<svg height="24" viewBox="0 0 24 24" width="24" xmlns="http://www.w3.org/2000/svg"><path d="m13 9h5.5l-5.5-5.5zm-7-7h8l6 6v12c0 1.1-.9 2-2 2h-12c-1.1 0-2-.9-2-2v-16c0-1.1.9-2 2-2m4.9 10.4c.4.9.9 1.6 1.5 2.2l.4.3c-.9.2-2.1.4-3.3.9h-.1l.5-1c.5-.8.8-1.6 1-2.4m6.5 3.8c.2-.2.3-.4.3-.7 0-.2 0-.4-.1-.6-.3-.5-1-.7-2.3-.7l-1.3.2-.9-.6c-.6-.5-1.2-1.4-1.6-2.6v-.1c.3-1.3.6-2.9 0-3.6-.2-.2-.4-.2-.6-.2h-.2c-.4 0-.7.4-.8.8-.4 1.3-.1 2.1.2 3.3-.3.9-.6 1.9-1.1 2.9l-1 1.8-.9.5c-1.2.8-1.8 1.6-1.9 2.1 0 .2 0 .4.1.5l.5.3.4.1c.8 0 1.7-1 3-3.1l.2-.1c1-.3 2.3-.6 4-.7 1 .5 2.2.7 3 .7.5.1.8 0 1-.2m-.4-.7.1.1c0 .1 0 .1-.1.1h-.2c-.5 0-1.2-.2-1.9-.5.1-.1.1-.1.2-.1 1.4.1 1.8.3 1.9.4m-9.2 1.5c-.6 1.2-1.2 1.9-1.7 2 .1-.4.5-1 1.2-1.7zm3-6.9c-.2-.9-.2-1.6-.1-2.1l.1-.1.2.1c.2.2.2.6.1 1.1v.2z" fill="#f00"/></svg>