<svg height="24" viewBox="0 0 24 24" width="24" xmlns="http://www.w3.org/2000/svg"><path d="m12 2c-5.52 0-10 4.48-10 10s4.48 10 10 10 10-4.48 10-10-4.48-10-10-10zm-6.52 11.57v-4.7c0-.19.16-.35.35-.35h6.85c1.06 0 1.93.85 1.93 1.91v4.7c0 .19-.16.35-.35.35h-6.85c-1.06 0-1.93-.85-1.93-1.91zm12.83 1.58c0 .42-.23.37-.44.22l-2.83-2.06v-2.6l2.83-2.07c.25-.2.44-.15.44.22z" fill="#4a8cff"/><g fill="#fff"><path d="m17.87 8.63-2.83 2.07v2.6l2.83 2.06c.2.15.44.2.44-.22v-6.3c0-.36-.19-.41-.44-.21z"/><path d="m14.26 15.48c.19 0 .35-.16.35-.35v-4.7c0-1.06-.87-1.92-1.93-1.91h-6.85c-.19 0-.35.16-.35.35v4.7c0 1.06.87 1.92 1.93 1.91z"/></g></svg>