<?xml version="1.0" encoding="utf-8"?>
<svg version="1.1" xmlns="http://www.w3.org/2000/svg" xmlns:xlink="http://www.w3.org/1999/xlink"
	 viewBox="0 0 24 24" xml:space="preserve">
<path d="M15.4,14L15.4,14c0-1.4-1.2-2.6-2.6-2.6c-1.4,0-2.6,1.1-2.6,2.6l0,0c0,1.4,1.1,2.6,2.6,2.6C14.2,16.6,15.4,15.4,15.4,14
	 M17.1,14c0,2.4-1.9,4.3-4.3,4.3c-1.6,0-3-0.9-3.8-2.3c-0.7,1.3-2.1,2.3-3.8,2.3c-2.3,0-4.2-1.9-4.3-4.2l0,0l0,0V7l0,0l0,0
	c0-0.4,0.4-0.8,0.9-0.8S2.7,6.6,2.7,7l0,0l0,0v3.6c0.7-0.5,1.6-0.9,2.6-0.9c1.6,0,3,0.9,3.8,2.3c0.7-1.3,2.1-2.3,3.8-2.3
	C15.2,9.8,17.1,11.7,17.1,14L17.1,14 M7.8,14L7.8,14c0-1.4-1.2-2.6-2.6-2.6c-1.4,0-2.6,1.1-2.6,2.6l0,0c0,1.4,1.1,2.6,2.6,2.6
	C6.7,16.6,7.8,15.4,7.8,14 M22.8,17L22.8,17c0.1,0.2,0.2,0.3,0.2,0.5c0,0.3-0.1,0.5-0.3,0.7c-0.2,0.1-0.3,0.2-0.5,0.2
	c-0.2,0-0.5-0.1-0.6-0.3l-1.9-2.5L17.7,18l0,0c-0.2,0.2-0.4,0.3-0.7,0.3c-0.2,0-0.4-0.1-0.5-0.2c-0.2-0.1-0.3-0.4-0.3-0.7
	c0-0.2,0.1-0.3,0.2-0.5l0,0l0,0l0,0l2.2-2.9l-2.2-2.9l0,0l0,0l0,0c-0.1-0.1-0.2-0.3-0.2-0.5c0-0.3,0.1-0.5,0.3-0.7
	c0.4-0.3,0.9-0.2,1.2,0.2l0,0l1.9,2.5l1.9-2.5c0.3-0.4,0.8-0.4,1.2-0.2c0.2,0.2,0.3,0.4,0.3,0.7c0,0.2,0,0.3-0.2,0.5l0,0l0,0l0,0
	L20.7,14L22.8,17L22.8,17L22.8,17z"/>
</svg>
