<svg height="24" viewBox="0 0 24 24" width="24" xmlns="http://www.w3.org/2000/svg" xmlns:xlink="http://www.w3.org/1999/xlink"><radialGradient id="a" cx="-254.81979" cy="705.83588" gradientTransform="matrix(2.827 1.6322 -1.6322 2.827 2092.1199 -1494.5786)" gradientUnits="userSpaceOnUse" r="82.978401"><stop offset="0" stop-color="#4387fd"/><stop offset=".65" stop-color="#3078f0"/><stop offset=".9099" stop-color="#2b72ea"/><stop offset="1" stop-color="#286ee6"/></radialGradient><radialGradient id="b" cx="-254.8174" cy="705.83691" gradientTransform="matrix(2.827 1.6322 -1.6322 2.827 2092.1199 -1494.5786)" gradientUnits="userSpaceOnUse" r="82.973"><stop offset="0" stop-color="#ffd24d"/><stop offset="1" stop-color="#f6c338"/></radialGradient><g stroke-width=".47644273"><path d="m18.15017244 21.97351781h-12.38751098c-.78910827156 0-1.42932819-.64021991844-1.42932819-1.42932819v-17.15193828c0-.78910827156.64021991844-1.42932819 1.42932819-1.42932819h9.05241187l4.7644273 4.7644273v13.81683917c0 .78910827156-.64021991844 1.42932819-1.42932819 1.42932819z" fill="#43a047"/><path d="m19.57950063 6.72735045h-4.7644273v-4.7644273z" fill="#c8e6c9"/><path d="m14.81507333 6.72735045 4.7644273 4.7644273v-4.7644273z" fill="#2e7d32"/><path d="m15.29151606 11.49177775h-7.62308368v6.67019822h8.57596914v-6.67019822zm-6.67019822.95288546h1.90577092v.95288546h-1.90577092zm0 1.90577092h1.90577092v.95288546h-1.90577092zm0 1.90577092h1.90577092v.95288546h-1.90577092zm6.67019822.95288546h-3.81154184v-.95288546h3.81154184zm0-1.90577092h-3.81154184v-.95288546h3.81154184zm0-1.90577092h-3.81154184v-.95288546h3.81154184z" fill="#e8f5e9"/></g><g transform="matrix(.08923862283 0 0 .08923862283 -6.83267260033 -2.22635229976)"><path d="m234.3 154.8 24.2 41.9-45.3 78.5-24.2-41.9z" fill="#0da960"/><path d="m328 233.3-24.2 41.9h-90.6l24.2-41.9z" fill="url(#a)"/><path d="m234.3 154.8h48.4l45.3 78.5h-48.4z" fill="url(#b)"/><path d="m247.9 215-34.7 60.2 45.3-41.9h-21.1z" fill="#2d6fdd"/><path d="m279.6 233.3h48.4l-58.9-18.3z" fill="#e5b93c"/><path d="m247.9 215 10.6-18.3-24.2-41.9z" fill="#0c9b57"/></g></svg>