<?xml version="1.0" encoding="UTF-8" standalone="no"?>
<svg
   xmlns:dc="http://purl.org/dc/elements/1.1/"
   xmlns:cc="http://creativecommons.org/ns#"
   xmlns:rdf="http://www.w3.org/1999/02/22-rdf-syntax-ns#"
   xmlns:svg="http://www.w3.org/2000/svg"
   xmlns="http://www.w3.org/2000/svg"
   id="svg4"
   viewBox="0 0 24 24"
   height="24"
   width="24"
   version="1.1">
  <metadata
     id="metadata10">
    <rdf:RDF>
      <cc:Work
         rdf:about="">
        <dc:format>image/svg+xml</dc:format>
        <dc:type
           rdf:resource="http://purl.org/dc/dcmitype/StillImage" />
        <dc:title></dc:title>
      </cc:Work>
    </rdf:RDF>
  </metadata>
  <defs
     id="defs8" />
  <g
     style="display:none"
     id="layer1">
    <g
       transform="matrix(0.47644273,0,0,0.47644273,0.52179143,0.53359496)"
       id="surface1">
      <path
         style="fill:#43a047"
         d="M 37,45 H 11 C 9.34375,45 8,43.65625 8,42 V 6 C 8,4.34375 9.34375,3 11,3 h 19 l 10,10 v 29 c 0,1.65625 -1.34375,3 -3,3 z"
         id="path13" />
      <path
         style="fill:#c8e6c9"
         d="M 40,13 H 30 V 3 Z"
         id="path15" />
      <path
         style="fill:#2e7d32"
         d="M 30,13 40,23 V 13 Z"
         id="path17" />
      <path
         style="fill:#e8f5e9"
         d="M 31,23 H 15 V 37 H 33 V 23 Z m -14,2 h 4 v 2 h -4 z m 0,4 h 4 v 2 h -4 z m 0,4 h 4 v 2 h -4 z m 14,2 h -8 v -2 h 8 z m 0,-4 h -8 v -2 h 8 z m 0,-4 h -8 v -2 h 8 z"
         id="path19" />
    </g>
  </g>
  <g
     style="display:none"
     id="layer2">
    <g
       transform="matrix(0.47621573,0,0,0.47621573,0.52837435,0.4825709)"
       id="surface1-5">
      <path
         style="fill:#2196f3"
         d="M 37,45 H 11 C 9.34375,45 8,43.65625 8,42 V 6 C 8,4.34375 9.34375,3 11,3 h 19 l 10,10 v 29 c 0,1.65625 -1.34375,3 -3,3 z"
         id="path36" />
      <path
         style="fill:#bbdefb"
         d="M 40,13 H 30 V 3 Z"
         id="path38" />
      <path
         style="fill:#1565c0"
         d="M 30,13 40,23 V 13 Z"
         id="path40" />
      <path
         style="fill:#e3f2fd"
         d="m 15,23 h 18 v 2 H 15 Z"
         id="path42" />
      <path
         style="fill:#e3f2fd"
         d="m 15,27 h 18 v 2 H 15 Z"
         id="path44" />
      <path
         style="fill:#e3f2fd"
         d="m 15,31 h 18 v 2 H 15 Z"
         id="path46" />
      <path
         style="fill:#e3f2fd"
         d="m 15,35 h 10 v 2 H 15 Z"
         id="path48" />
    </g>
  </g>
  <g
     id="layer3">
    <g
       transform="matrix(0.47669492,0,0,0.47669492,0.51170398,0.54050654)"
       id="surface1-1">
      <path
         style="fill:#ffc107"
         d="M 37,45 H 11 C 9.34375,45 8,43.65625 8,42 V 6 C 8,4.34375 9.34375,3 11,3 h 19 l 10,10 v 29 c 0,1.65625 -1.34375,3 -3,3 z"
         id="path68" />
      <path
         style="fill:#ffecb3"
         d="M 40,13 H 30 V 3 Z"
         id="path70" />
      <path
         style="fill:#ffa000"
         d="M 30,13 40,23 V 13 Z"
         id="path72" />
      <path
         style="fill:#ffffff"
         d="M 30,22 H 18 c -1.101562,0 -2,0.898438 -2,2 v 12 c 0,1.101563 0.898438,2 2,2 h 12 c 1.101563,0 2,-0.898437 2,-2 V 24 c 0,-1.101562 -0.898437,-2 -2,-2 z m 0,4 v 8 H 18 v -8 z"
         id="path74" />
    </g>
  </g>
</svg>
