<svg width="0" height="0" style="position:absolute"><defs><radialGradient id="g1" cx="-254.81979" cy="705.83588" gradientTransform="matrix(2.827 1.6322 -1.6322 2.827 2092.1199 -1494.5786)" gradientUnits="userSpaceOnUse" r="82.978401" xmlns="http://www.w3.org/2000/svg"><stop offset="0" stop-color="#4387fd"/><stop offset=".65" stop-color="#3078f0"/><stop offset=".9099" stop-color="#2b72ea"/><stop offset="1" stop-color="#286ee6"/></radialGradient><radialGradient id="g2" cx="-254.8174" cy="705.83691" gradientTransform="matrix(2.827 1.6322 -1.6322 2.827 2092.1199 -1494.5786)" gradientUnits="userSpaceOnUse" r="82.973"><stop offset="0" stop-color="#ffd24d"/><stop offset="1" stop-color="#f6c338"/></radialGradient><radialGradient id="g3" cx="-254.81979" cy="705.83588" gradientTransform="matrix(2.827 1.6322 -1.6322 2.827 2092.1199 -1494.5786)" gradientUnits="userSpaceOnUse" r="82.978401"><stop offset="0" stop-color="#4387fd"/><stop offset=".65" stop-color="#3078f0"/><stop offset=".9099" stop-color="#2b72ea"/><stop offset="1" stop-color="#286ee6"/></radialGradient><radialGradient id="g4" cx="-254.8174" cy="705.83691" gradientTransform="matrix(2.827 1.6322 -1.6322 2.827 2092.1199 -1494.5786)" gradientUnits="userSpaceOnUse" r="82.973"><stop offset="0" stop-color="#ffd24d"/><stop offset="1" stop-color="#f6c338"/></radialGradient><radialGradient id="g5" cx="-254.81979" cy="705.83588" gradientTransform="matrix(2.827 1.6322 -1.6322 2.827 2092.1199 -1494.5786)" gradientUnits="userSpaceOnUse" r="82.978401"><stop offset="0" stop-color="#4387fd"/><stop offset=".65" stop-color="#3078f0"/><stop offset=".9099" stop-color="#2b72ea"/><stop offset="1" stop-color="#286ee6"/></radialGradient><radialGradient id="g6" cx="-254.8174" cy="705.83691" gradientTransform="matrix(2.827 1.6322 -1.6322 2.827 2092.1199 -1494.5786)" gradientUnits="userSpaceOnUse" r="82.973"><stop offset="0" stop-color="#ffd24d"/><stop offset="1" stop-color="#f6c338"/></radialGradient><radialGradient id="g7" cx="-254.81979" cy="705.83588" gradientTransform="matrix(2.827 1.6322 -1.6322 2.827 2092.1199 -1494.5786)" gradientUnits="userSpaceOnUse" r="82.978401"><stop offset="0" stop-color="#4387fd"/><stop offset=".65" stop-color="#3078f0"/><stop offset=".9099" stop-color="#2b72ea"/><stop offset="1" stop-color="#286ee6"/></radialGradient><radialGradient id="g8" cx="-254.8174" cy="705.83691" gradientTransform="matrix(2.827 1.6322 -1.6322 2.827 2092.1199 -1494.5786)" gradientUnits="userSpaceOnUse" r="82.973"><stop offset="0" stop-color="#ffd24d"/><stop offset="1" stop-color="#f6c338"/></radialGradient></defs><symbol viewBox="0 0 24 24" id="access-point" xmlns="http://www.w3.org/2000/svg"><path d="M4.93 4.93A9.969 9.969 0 0 0 2 12c0 2.76 1.12 5.26 2.93 7.07l1.41-1.41A7.938 7.938 0 0 1 4 12c0-2.21.89-4.22 2.34-5.66L4.93 4.93m14.14 0l-1.41 1.41A7.955 7.955 0 0 1 20 12c0 2.22-.89 4.22-2.34 5.66l1.41 1.41A9.969 9.969 0 0 0 22 12c0-2.76-1.12-5.26-2.93-7.07M7.76 7.76A5.98 5.98 0 0 0 6 12c0 1.65.67 3.15 1.76 4.24l1.41-1.41A3.99 3.99 0 0 1 8 12c0-1.11.45-2.11 1.17-2.83L7.76 7.76m8.48 0l-1.41 1.41A3.99 3.99 0 0 1 16 12c0 1.11-.45 2.11-1.17 2.83l1.41 1.41A5.98 5.98 0 0 0 18 12c0-1.65-.67-3.15-1.76-4.24M12 10c-1.1 0-2 .9-2 2s.9 2 2 2 2-.9 2-2-.9-2-2-2z"/></symbol><symbol viewBox="0 0 24 24" id="account" xmlns="http://www.w3.org/2000/svg"><path d="M12 4c2.21 0 4 1.79 4 4s-1.79 4-4 4-4-1.79-4-4 1.79-4 4-4m0 10c4.42 0 8 1.79 8 4v2H4v-2c0-2.21 3.58-4 8-4z"/></symbol><symbol viewBox="0 0 24 24" id="account-circle" xmlns="http://www.w3.org/2000/svg"><path d="M12 19.2c-2.5 0-4.71-1.28-6-3.2.03-2 4-3.1 6-3.1s5.97 1.1 6 3.1a7.232 7.232 0 0 1-6 3.2M12 5c1.66 0 3 1.34 3 3s-1.34 3-3 3-3-1.34-3-3 1.34-3 3-3m0-3C6.48 2 2 6.48 2 12s4.48 10 10 10 10-4.48 10-10c0-5.53-4.5-10-10-10z"/></symbol><symbol viewBox="0 0 24 24" id="account-key" xmlns="http://www.w3.org/2000/svg"><path d="M11 10v2h-1v2H8v-2H5.83A2.99 2.99 0 0 1 3 14c-1.66 0-3-1.34-3-3s1.34-3 3-3c1.31 0 2.42.83 2.83 2H11m-8 0c-.55 0-1 .45-1 1s.45 1 1 1 1-.45 1-1-.45-1-1-1m13 4c2.67 0 8 1.34 8 4v2H8v-2c0-2.66 5.33-4 8-4m0-2c-2.21 0-4-1.79-4-4s1.79-4 4-4 4 1.79 4 4-1.79 4-4 4z"/></symbol><symbol viewBox="0 0 24 24" id="account-minus" xmlns="http://www.w3.org/2000/svg"><path d="M15 14c-2.67 0-8 1.33-8 4v2h16v-2c0-2.67-5.33-4-8-4M1 10v2h8v-2m6 2c2.21 0 4-1.79 4-4s-1.79-4-4-4-4 1.79-4 4 1.79 4 4 4z"/></symbol><symbol viewBox="0 0 24 24" id="account-multiple" xmlns="http://www.w3.org/2000/svg"><path d="M16 13c-.29 0-.62 0-.97.05C16.19 13.89 17 15 17 16.5V19h6v-2.5c0-2.33-4.67-3.5-7-3.5m-8 0c-2.33 0-7 1.17-7 3.5V19h14v-2.5c0-2.33-4.67-3.5-7-3.5m0-2c1.66 0 3-1.34 3-3S9.66 5 8 5 5 6.34 5 8s1.34 3 3 3m8 0c1.66 0 3-1.34 3-3s-1.34-3-3-3-3 1.34-3 3 1.34 3 3 3z"/></symbol><symbol viewBox="0 0 24 24" id="account-multiple-plus" xmlns="http://www.w3.org/2000/svg"><path d="M13 13c-2 0-6 1-6 3v2h12v-2c0-2-4-3-6-3m6.62.16c.83.72 1.38 1.66 1.38 2.84v2h3v-2c0-1.54-2.37-2.5-4.38-2.84M13 11c1.66 0 3-1.34 3-3s-1.34-3-3-3-3 1.34-3 3 1.34 3 3 3m5 0c1.66 0 3-1.34 3-3s-1.34-3-3-3c-.32 0-.63.05-.92.14.57.81.92 1.8.92 2.86 0 1.06-.35 2.04-.92 2.85.29.1.6.15.92.15M8 10H5V7H3v3H0v2h3v3h2v-3h3v-2z"/></symbol><symbol viewBox="0 0 24 24" id="account-network" xmlns="http://www.w3.org/2000/svg"><path d="M13 16v2h1c.55 0 1 .45 1 1h7v2h-7c0 .55-.45 1-1 1h-4c-.55 0-1-.45-1-1H2v-2h7c0-.55.45-1 1-1h1v-2H5v-1.5c0-1.93 3.13-3.5 7-3.5s7 1.57 7 3.5V16h-6M12 2c1.93 0 3.5 1.57 3.5 3.5S13.93 9 12 9 8.5 7.43 8.5 5.5 10.07 2 12 2z"/></symbol><symbol viewBox="0 0 24 24" id="account-plus" xmlns="http://www.w3.org/2000/svg"><path d="M15 14c-2.67 0-8 1.33-8 4v2h16v-2c0-2.67-5.33-4-8-4m-9-4V7H4v3H1v2h3v3h2v-3h3v-2m6 2c2.21 0 4-1.79 4-4s-1.79-4-4-4-4 1.79-4 4 1.79 4 4 4z"/></symbol><symbol viewBox="0 0 24 24" id="alert" xmlns="http://www.w3.org/2000/svg"><path d="M13 14h-2v-4h2m0 8h-2v-2h2M1 21h22L12 2 1 21z"/></symbol><symbol viewBox="0 0 24 24" id="application" xmlns="http://www.w3.org/2000/svg"><path d="M19 4a2 2 0 0 1 2 2v12c0 1.1-.9 2-2 2H5a2 2 0 0 1-2-2V6c0-1.1.9-2 2-2h14m0 14V8H5v10h14z"/></symbol><symbol viewBox="0 0 24 24" id="archive" xmlns="http://www.w3.org/2000/svg"><path d="M3 3h18v4H3V3m1 5h16v13H4V8m5.5 3c-.28 0-.5.22-.5.5V13h6v-1.5c0-.28-.22-.5-.5-.5h-5z"/></symbol><symbol viewBox="0 0 24 24" id="arrow-left" xmlns="http://www.w3.org/2000/svg"><path d="M20 11v2H8l5.5 5.5-1.42 1.42L4.16 12l7.92-7.92L13.5 5.5 8 11h12z"/></symbol><symbol viewBox="0 0 24 24" id="arrow-right" xmlns="http://www.w3.org/2000/svg"><path d="M4 11v2h12l-5.5 5.5 1.42 1.42L19.84 12l-7.92-7.92L10.5 5.5 16 11H4z"/></symbol><symbol viewBox="0 0 24 24" id="attachment" xmlns="http://www.w3.org/2000/svg"><path d="M7.5 18C4.46 18 2 15.54 2 12.5S4.46 7 7.5 7H18c2.21 0 4 1.79 4 4s-1.79 4-4 4H9.5a2.5 2.5 0 0 1 0-5H17v1.5H9.5c-.55 0-1 .45-1 1s.45 1 1 1H18a2.5 2.5 0 0 0 0-5H7.5c-2.21 0-4 1.79-4 4s1.79 4 4 4H17V18H7.5z"/></symbol><symbol viewBox="0 0 24 24" id="azure" xmlns="http://www.w3.org/2000/svg"><path d="M13.05 4.24L6.56 18.05 2 18l5.09-8.76 5.96-5m.7 1.09L22 19.76H6.74l9.3-1.66-4.87-5.79 2.58-6.98z"/></symbol><symbol viewBox="0 0 24 24" id="backup-restore" xmlns="http://www.w3.org/2000/svg"><path d="M12 3a9 9 0 0 0-9 9H0l4 4 4-4H5c0-3.87 3.13-7 7-7s7 3.13 7 7-3.13 7-7 7c-1.5 0-2.91-.5-4.06-1.3L6.5 19.14A9.115 9.115 0 0 0 12 21a9 9 0 0 0 0-18m2 9c0-1.1-.9-2-2-2s-2 .9-2 2 .9 2 2 2 2-.9 2-2z"/></symbol><symbol viewBox="0 0 24 24" id="bell" xmlns="http://www.w3.org/2000/svg"><path d="M21 19v1H3v-1l2-2v-6c0-3.1 2.03-5.83 5-6.71V4c0-1.1.9-2 2-2s2 .9 2 2v.29c2.97.88 5 3.61 5 6.71v6l2 2m-7 2c0 1.1-.9 2-2 2s-2-.9-2-2"/></symbol><symbol viewBox="0 0 24 24" id="bell-off" xmlns="http://www.w3.org/2000/svg"><path d="M20.84 22.73L18.11 20H3v-1l2-2v-6c0-1.14.29-2.27.83-3.28L1.11 3l1.28-1.27 19.72 19.73-1.27 1.27M19 15.8V11c0-3.1-2.03-5.83-5-6.71V4c0-1.1-.9-2-2-2s-2 .9-2 2v.29c-.61.18-1.2.45-1.74.8L19 15.8M12 23c1.1 0 2-.9 2-2h-4c0 1.1.9 2 2 2z"/></symbol><symbol viewBox="0 0 24 24" id="blogger" xmlns="http://www.w3.org/2000/svg"><path d="M14 13H9.95c-.55 0-1 .45-1 1s.45 1 1 1H14c.55 0 1-.45 1-1s-.45-1-1-1m-4.05-3h2.6c.55 0 1-.45 1-1s-.45-1-1-1h-2.6c-.55 0-1 .45-1 1s.45 1 1 1M16 9v1c0 .55.45 1 1 1s1 .45 1 1v3c0 1.66-1.34 3-3 3H9c-1.66 0-3-1.34-3-3V8c0-1.66 1.34-3 3-3h4c1.66 0 3 1.34 3 3m4-6H4c-1.11 0-2 .89-2 2v16c0 1.1.9 2 2 2h16c1.1 0 2-.9 2-2V4a2 2 0 0 0-2-2z"/></symbol><symbol viewBox="0 0 24 24" id="box" xmlns="http://www.w3.org/2000/svg"><path d="M15.4 14c0-1.4-1.2-2.6-2.6-2.6-1.4 0-2.6 1.1-2.6 2.6 0 1.4 1.1 2.6 2.6 2.6 1.4 0 2.6-1.2 2.6-2.6m1.7 0c0 2.4-1.9 4.3-4.3 4.3-1.6 0-3-.9-3.8-2.3-.7 1.3-2.1 2.3-3.8 2.3-2.3 0-4.2-1.9-4.3-4.2V7c0-.4.4-.8.9-.8s.9.4.9.8v3.6c.7-.5 1.6-.9 2.6-.9 1.6 0 3 .9 3.8 2.3.7-1.3 2.1-2.3 3.8-2.3 2.3.1 4.2 2 4.2 4.3m-9.3 0c0-1.4-1.2-2.6-2.6-2.6-1.4 0-2.6 1.1-2.6 2.6 0 1.4 1.1 2.6 2.6 2.6s2.6-1.2 2.6-2.6m15 3c.1.2.2.3.2.5 0 .3-.1.5-.3.7-.2.1-.3.2-.5.2s-.5-.1-.6-.3l-1.9-2.5-2 2.4c-.2.2-.4.3-.7.3-.2 0-.4-.1-.5-.2-.2-.1-.3-.4-.3-.7 0-.2.1-.3.2-.5l2.2-2.9-2.2-2.9c-.1-.1-.2-.3-.2-.5 0-.3.1-.5.3-.7.4-.3.9-.2 1.2.2l1.9 2.5 1.9-2.5c.3-.4.8-.4 1.2-.2.2.2.3.4.3.7 0 .2 0 .3-.2.5L20.7 14l2.1 3z"/></symbol><symbol viewBox="0 0 24 24" id="box-color" xmlns="http://www.w3.org/2000/svg"><path d="M12.151 15.361a2.126 2.126 0 1 1-.027-4.253 2.126 2.126 0 1 1 .027 4.253m-6.265.04a2.126 2.126 0 1 1-.027-4.254 2.127 2.127 0 0 1 .027 4.254m6.228-5.714a3.549 3.549 0 0 0-3.12 1.904A3.542 3.542 0 0 0 5.85 9.727a3.53 3.53 0 0 0-2.124.722l-.02-2.986a.71.71 0 0 0-.714-.69.707.707 0 0 0-.703.699l.036 5.884h.002a3.545 3.545 0 0 0 6.689 1.56 3.547 3.547 0 1 0 3.099-5.23" fill="#22a7f0"/><path d="M21.327 15.606l-1.992-2.415 1.96-2.442a.674.674 0 0 0-.168-.98.82.82 0 0 0-1.07.137v-.002l-1.694 2.108-1.719-2.085v.001a.818.818 0 0 0-1.071-.124.672.672 0 0 0-.157.984l1.99 2.415-1.96 2.44a.671.671 0 0 0 .171.98.816.816 0 0 0 1.07-.136l1.69-2.106 1.721 2.085a.82.82 0 0 0 1.073.124c.335-.237.402-.672.156-.984" fill="#22a7f0"/></symbol><symbol viewBox="0 0 24 24" id="calendar-check" xmlns="http://www.w3.org/2000/svg"><path d="M19 19H5V8h14m0-5h-1V1h-2v2H8V1H6v2H5a2 2 0 0 0-2 2v14c0 1.1.9 2 2 2h14c1.1 0 2-.9 2-2V5c0-1.1-.9-2-2-2m-2.47 8.06L15.47 10l-4.88 4.88-2.12-2.12-1.06 1.06L10.59 17l5.94-5.94z"/></symbol><symbol viewBox="0 0 24 24" id="calendar-text" xmlns="http://www.w3.org/2000/svg"><path d="M14 14H7v2h7m5 3H5V8h14m0-5h-1V1h-2v2H8V1H6v2H5a2 2 0 0 0-2 2v14c0 1.1.9 2 2 2h14c1.1 0 2-.9 2-2V5c0-1.1-.9-2-2-2m-2 7H7v2h10v-2z"/></symbol><symbol viewBox="0 0 24 24" id="camera" xmlns="http://www.w3.org/2000/svg"><path d="M4 4h3l2-2h6l2 2h3c1.1 0 2 .9 2 2v12c0 1.1-.9 2-2 2H4c-1.1 0-2-.9-2-2V6c0-1.1.9-2 2-2m8 3c-2.76 0-5 2.24-5 5s2.24 5 5 5 5-2.24 5-5-2.24-5-5-5m0 2c1.66 0 3 1.34 3 3s-1.34 3-3 3-3-1.34-3-3 1.34-3 3-3z"/></symbol><symbol viewBox="0 0 24 24" id="cash-usd" xmlns="http://www.w3.org/2000/svg"><path d="M20 18H4V6h16m0-2H4c-1.11 0-2 .89-2 2v12c0 1.1.9 2 2 2h16c1.1 0 2-.9 2-2V6a2 2 0 0 0-2-2m-9 13h2v-1h1c.55 0 1-.45 1-1v-3c0-.55-.45-1-1-1h-3v-1h4V8h-2V7h-2v1h-1c-.55 0-1 .45-1 1v3c0 .55.45 1 1 1h3v1H9v2h2v1z"/></symbol><symbol viewBox="0 0 24 24" id="cellphone-android" xmlns="http://www.w3.org/2000/svg"><path d="M17.25 18H6.75V4h10.5M14 21h-4v-1h4m2-19H8C6.34 1 5 2.34 5 4v16c0 1.66 1.34 3 3 3h8c1.66 0 3-1.34 3-3V4c0-1.66-1.34-3-3-3z"/></symbol><symbol viewBox="0 0 24 24" id="certificate" xmlns="http://www.w3.org/2000/svg"><path d="M4 3c-1.11 0-2 .89-2 2v10c0 1.1.9 2 2 2h8v5l3-3 3 3v-5h2c1.1 0 2-.9 2-2V5c0-1.1-.9-2-2-2H4m8 2l3 2 3-2v3.5l3 1.5-3 1.5V15l-3-2-3 2v-3.5L9 10l3-1.5V5M4 5h5v2H4V5m0 4h3v2H4V9m0 4h5v2H4v-2z"/></symbol><symbol viewBox="0 0 24 24" id="chart-bar" xmlns="http://www.w3.org/2000/svg"><path d="M22 21H2V3h2v16h2v-9h4v9h2V6h4v13h2v-5h4v7z"/></symbol><symbol viewBox="0 0 24 24" id="chart-line" xmlns="http://www.w3.org/2000/svg"><path d="M16 11.78l4.24-7.33 1.73 1-5.23 9.05-6.51-3.75L5.46 19H22v2H2V3h2v14.54L9.5 8l6.5 3.78z"/></symbol><symbol viewBox="0 0 24 24" id="check" xmlns="http://www.w3.org/2000/svg"><path d="M21 7L9 19l-5.5-5.5 1.41-1.41L9 16.17 19.59 5.59 21 7z"/></symbol><symbol viewBox="0 0 24 24" id="check-all" xmlns="http://www.w3.org/2000/svg"><path d="M.41 13.41L6 19l1.41-1.42L1.83 12m20.41-6.42L11.66 16.17 7.5 12l-1.43 1.41L11.66 19l12-12M18 7l-1.41-1.42-6.35 6.35 1.42 1.41L18 7z"/></symbol><symbol viewBox="0 0 24 24" id="check-circle" xmlns="http://www.w3.org/2000/svg"><path d="M12 2c5.52 0 10 4.48 10 10s-4.48 10-10 10S2 17.52 2 12 6.48 2 12 2m-1 14.5l7-7-1.41-1.41L11 13.67l-3.09-3.08L6.5 12l4.5 4.5z"/></symbol><symbol viewBox="0 0 24 24" id="check-circle-outline" xmlns="http://www.w3.org/2000/svg"><path d="M12 2c5.52 0 10 4.48 10 10s-4.48 10-10 10S2 17.52 2 12 6.48 2 12 2m0 2c-4.42 0-8 3.58-8 8s3.58 8 8 8 8-3.58 8-8-3.58-8-8-8m-1 12.5L6.5 12l1.41-1.41L11 13.67l5.59-5.58L18 9.5l-7 7z"/></symbol><symbol viewBox="0 0 24 24" id="checkbox-blank-outline" xmlns="http://www.w3.org/2000/svg"><path d="M19 3H5c-1.11 0-2 .89-2 2v14c0 1.1.9 2 2 2h14c1.1 0 2-.9 2-2V5a2 2 0 0 0-2-2m0 2v14H5V5h14z"/></symbol><symbol viewBox="0 0 24 24" id="checkbox-marked-outline" xmlns="http://www.w3.org/2000/svg"><path d="M19 19H5V5h10V3H5c-1.11 0-2 .89-2 2v14c0 1.1.9 2 2 2h14c1.1 0 2-.9 2-2v-8h-2m-11.09-.92L6.5 11.5 11 16 21 6l-1.41-1.42L11 13.17l-3.09-3.09z"/></symbol><symbol viewBox="0 0 24 24" id="checkbox-multiple-marked-circle" xmlns="http://www.w3.org/2000/svg"><path d="M14 2c-4.42 0-8 3.58-8 8s3.58 8 8 8 8-3.58 8-8-3.58-8-8-8M4.93 5.82A8.01 8.01 0 0 0 2 12c0 4.42 3.58 8 8 8 .64 0 1.27-.08 1.88-.23-1.76-.39-3.38-1.27-4.71-2.48A6.001 6.001 0 0 1 4 12c0-.3.03-.59.07-.89C4.03 10.74 4 10.37 4 10c0-1.44.32-2.87.93-4.18m13.16.26L19.5 7.5 13 14l-3.79-3.79 1.42-1.42L13 11.17"/></symbol><symbol viewBox="0 0 24 24" id="chevron-down" xmlns="http://www.w3.org/2000/svg"><path d="M7.41 8.58L12 13.17l4.59-4.59L18 10l-6 6-6-6 1.41-1.42z"/></symbol><symbol viewBox="0 0 24 24" id="circle-outline" xmlns="http://www.w3.org/2000/svg"><path d="M12 20c-4.42 0-8-3.58-8-8s3.58-8 8-8 8 3.58 8 8-3.58 8-8 8m0-18C6.48 2 2 6.48 2 12s4.48 10 10 10 10-4.48 10-10S17.52 2 12 2z"/></symbol><symbol viewBox="0 0 24 24" id="clipboard-text" xmlns="http://www.w3.org/2000/svg"><path d="M17 9H7V7h10m0 6H7v-2h10m-3 6H7v-2h7M12 3c.55 0 1 .45 1 1s-.45 1-1 1-1-.45-1-1 .45-1 1-1m7 0h-4.18C14.4 1.84 13.3 1 12 1c-1.3 0-2.4.84-2.82 2H5c-1.1 0-2 .9-2 2v14c0 1.1.9 2 2 2h14c1.1 0 2-.9 2-2V5c0-1.1-.9-2-2-2z"/></symbol><symbol viewBox="0 0 24 24" id="clock" xmlns="http://www.w3.org/2000/svg"><path d="M12 2C6.48 2 2 6.48 2 12s4.48 10 10 10 10-4.48 10-10S17.52 2 12 2m4.2 14.2L11 13V7h1.5v5.2l4.5 2.7-.8 1.3z"/></symbol><symbol viewBox="0 0 24 24" id="close" xmlns="http://www.w3.org/2000/svg"><path d="M19 6.41L17.59 5 12 10.59 6.41 5 5 6.41 10.59 12 5 17.59 6.41 19 12 13.41 17.59 19 19 17.59 13.41 12 19 6.41z"/></symbol><symbol viewBox="0 0 24 24" id="close-circle" xmlns="http://www.w3.org/2000/svg"><path d="M12 2c5.53 0 10 4.47 10 10s-4.47 10-10 10S2 17.53 2 12 6.47 2 12 2m3.59 5L12 10.59 8.41 7 7 8.41 10.59 12 7 15.59 8.41 17 12 13.41 15.59 17 17 15.59 13.41 12 17 8.41 15.59 7z"/></symbol><symbol viewBox="0 0 24 24" id="cloud-download" xmlns="http://www.w3.org/2000/svg"><path d="M17 13l-5 5-5-5h3V9h4v4m5.35-2.97A7.49 7.49 0 0 0 12 4C9.11 4 6.6 5.64 5.35 8.03A6.004 6.004 0 0 0 6 20h13c2.76 0 5-2.24 5-5 0-2.64-2.05-4.78-4.65-4.97z"/></symbol><symbol viewBox="0 0 24 24" id="collapse-window" xmlns="http://www.w3.org/2000/svg"><path d="M18.5 4.09L14 8.59V5h-2v7h7v-2h-3.59l4.5-4.5-1.41-1.41zM12 12H5v2h3.59l-4.5 4.5 1.41 1.41 4.5-4.5V19h2v-7z"/></symbol><symbol viewBox="0 0 24 24" id="comment" xmlns="http://www.w3.org/2000/svg"><path d="M9 22c-.55 0-1-.45-1-1v-3H4c-1.1 0-2-.9-2-2V4a2 2 0 0 1 2-2h16c1.1 0 2 .9 2 2v12c0 1.1-.9 2-2 2h-6.1l-3.7 3.71c-.2.19-.45.29-.7.29H9z"/></symbol><symbol viewBox="0 0 24 24" id="comment-check" xmlns="http://www.w3.org/2000/svg"><path d="M9 22c-.55 0-1-.45-1-1v-3H4c-1.1 0-2-.9-2-2V4a2 2 0 0 1 2-2h16c1.1 0 2 .9 2 2v12c0 1.1-.9 2-2 2h-6.1l-3.7 3.71c-.2.19-.45.29-.7.29H9m1-7l8-8-1.41-1.42L10 12.17 7.41 9.59 6 11l4 4z"/></symbol><symbol viewBox="0 0 24 24" id="comment-outline" xmlns="http://www.w3.org/2000/svg"><path d="M9 22c-.55 0-1-.45-1-1v-3H4c-1.1 0-2-.9-2-2V4a2 2 0 0 1 2-2h16c1.1 0 2 .9 2 2v12c0 1.1-.9 2-2 2h-6.1l-3.7 3.71c-.2.19-.45.29-.7.29H9m1-6v3.08L13.08 16H20V4H4v12h6z"/></symbol><symbol viewBox="0 0 24 24" id="comment-question-outline" xmlns="http://www.w3.org/2000/svg"><path d="M4 2c-1.1 0-2 .9-2 2v12c0 1.1.9 2 2 2h4v3c0 .55.45 1 1 1h.5c.25 0 .5-.1.7-.29L13.9 18H20c1.1 0 2-.9 2-2V4a2 2 0 0 0-2-2H4m0 2h16v12h-6.92L10 19.08V16H4V4m8.19 1.5c-.89 0-1.6.18-2.14.54-.55.36-.83.96-.78 1.65h1.97c0-.28.1-.49.26-.63.2-.14.42-.21.69-.21.31 0 .58.08.76.26.18.17.27.39.27.69 0 .28-.08.53-.22.74-.17.22-.38.4-.64.54-.52.32-.86.6-1.07.84-.19.24-.29.58-.29 1.08h2c0-.28.05-.5.14-.68.09-.17.26-.32.52-.47.46-.21.84-.49 1.13-.85.29-.37.44-.76.44-1.2 0-.7-.27-1.26-.81-1.68-.54-.41-1.29-.62-2.23-.62M11 12v2h2v-2h-2z"/></symbol><symbol viewBox="0 0 24 24" id="content-save" xmlns="http://www.w3.org/2000/svg"><path d="M15 9H5V5h10m-3 14c-1.66 0-3-1.34-3-3s1.34-3 3-3 3 1.34 3 3-1.34 3-3 3m5-16H5a2 2 0 0 0-2 2v14c0 1.1.9 2 2 2h14c1.1 0 2-.9 2-2V7l-4-4z"/></symbol><symbol viewBox="0 0 24 24" id="delete" xmlns="http://www.w3.org/2000/svg"><path d="M19 4h-3.5l-1-1h-5l-1 1H5v2h14M6 19c0 1.1.9 2 2 2h8c1.1 0 2-.9 2-2V7H6v12z"/></symbol><symbol viewBox="0 0 24 24" id="delete-forever" xmlns="http://www.w3.org/2000/svg"><path d="M6 19c0 1.1.9 2 2 2h8c1.1 0 2-.9 2-2V7H6v12m2.46-7.12l1.41-1.41L12 12.59l2.12-2.12 1.41 1.41L13.41 14l2.12 2.12-1.41 1.41L12 15.41l-2.12 2.12-1.41-1.41L10.59 14l-2.13-2.12M15.5 4l-1-1h-5l-1 1H5v2h14V4h-3.5z"/></symbol><symbol viewBox="0 0 24 24" id="dots-horizontal" xmlns="http://www.w3.org/2000/svg"><path d="M16 12c0-1.1.9-2 2-2s2 .9 2 2-.9 2-2 2-2-.9-2-2m-6 0c0-1.1.9-2 2-2s2 .9 2 2-.9 2-2 2-2-.9-2-2m-6 0c0-1.1.9-2 2-2s2 .9 2 2-.9 2-2 2-2-.9-2-2z"/></symbol><symbol viewBox="0 0 24 24" id="dots-horizontal-circle" xmlns="http://www.w3.org/2000/svg"><path d="M12 2c5.52 0 10 4.48 10 10s-4.48 10-10 10S2 17.52 2 12 6.48 2 12 2m0 8.5c-.83 0-1.5.67-1.5 1.5s.67 1.5 1.5 1.5 1.5-.67 1.5-1.5-.67-1.5-1.5-1.5m-5.5 0c-.83 0-1.5.67-1.5 1.5s.67 1.5 1.5 1.5S8 12.83 8 12s-.67-1.5-1.5-1.5m11 0c-.83 0-1.5.67-1.5 1.5s.67 1.5 1.5 1.5S19 12.83 19 12s-.67-1.5-1.5-1.5z"/></symbol><symbol viewBox="0 0 24 24" id="dots-vertical" xmlns="http://www.w3.org/2000/svg"><path d="M12 16c1.1 0 2 .9 2 2s-.9 2-2 2-2-.9-2-2 .9-2 2-2m0-6c1.1 0 2 .9 2 2s-.9 2-2 2-2-.9-2-2 .9-2 2-2m0-6c1.1 0 2 .9 2 2s-.9 2-2 2-2-.9-2-2 .9-2 2-2z"/></symbol><symbol viewBox="0 0 24 24" id="download" xmlns="http://www.w3.org/2000/svg"><path d="M5 20h14v-2H5m14-9h-4V3H9v6H5l7 7 7-7z"/></symbol><symbol viewBox="0 0 24 24" id="dropbox" xmlns="http://www.w3.org/2000/svg"><path d="M12 14.56l4.35 3.6 1.85-1.21v1.35L12 22l-6.18-3.7v-1.35l1.86 1.21 4.32-3.6M7.68 2.5L12 6.09l4.32-3.59 6.18 4-4.27 3.44 4.27 3.42-6.18 4.03L12 13.78l-4.32 3.61-6.18-4.03 4.27-3.42L1.5 6.5l6.18-4M12 13.68l6.13-3.74L12 6.19 5.87 9.94 12 13.68z"/></symbol><symbol viewBox="0 0 24 24" id="dropbox-color" xmlns="http://www.w3.org/2000/svg"><path d="M7.997 3.011L2.335 6.68l3.94 3.17 5.662-3.533zM2.335 12.93l5.662 3.714 3.94-3.306L6.276 9.85zm9.602.408l3.986 3.306 5.616-3.669-3.895-3.125zm9.602-6.658L15.923 3.01l-3.986 3.306 5.707 3.533zm-9.557 7.382l-3.985 3.306-1.676-1.132v1.268l5.661 3.397 5.662-3.397v-1.268l-1.721 1.132z" fill="#007ee5"/></symbol><symbol viewBox="0 0 24 24" id="email" xmlns="http://www.w3.org/2000/svg"><path d="M20 8l-8 5-8-5V6l8 5 8-5m0-2H4c-1.11 0-2 .89-2 2v12c0 1.1.9 2 2 2h16c1.1 0 2-.9 2-2V6a2 2 0 0 0-2-2z"/></symbol><symbol viewBox="0 0 24 24" id="emoticon" xmlns="http://www.w3.org/2000/svg"><path d="M12 17.5c2.33 0 4.3-1.46 5.11-3.5H6.89c.8 2.04 2.78 3.5 5.11 3.5M8.5 11c.83 0 1.5-.67 1.5-1.5S9.33 8 8.5 8 7 8.67 7 9.5 7.67 11 8.5 11m7 0c.83 0 1.5-.67 1.5-1.5S16.33 8 15.5 8 14 8.67 14 9.5s.67 1.5 1.5 1.5M12 20c-4.42 0-8-3.58-8-8s3.58-8 8-8 8 3.58 8 8-3.58 8-8 8m0-18C6.47 2 2 6.5 2 12c0 5.52 4.48 10 10 10s10-4.48 10-10S17.52 2 12 2z"/></symbol><symbol viewBox="0 0 24 24" id="expand-window" xmlns="http://www.w3.org/2000/svg"><path d="M12.199 4.8v2h3.59L11.3 11.29l-.012.01L6.8 15.79V12.2h-2v7h7v-2H8.21L12.7 12.71l.012-.012 4.488-4.488v3.59h2v-7h-7z"/></symbol><symbol viewBox="0 0 24 24" id="facebook" xmlns="http://www.w3.org/2000/svg"><path d="M17 2v4h-2c-.69 0-1 .81-1 1.5V10h3v4h-3v8h-4v-8H7v-4h3V6c0-2.21 1.79-4 4-4h3z"/></symbol><symbol viewBox="0 0 24 24" id="file" xmlns="http://www.w3.org/2000/svg"><path d="M13 9V3.5L18.5 9M6 2c-1.11 0-2 .89-2 2v16c0 1.1.9 2 2 2h12c1.1 0 2-.9 2-2V8l-6-6H6z"/></symbol><symbol viewBox="0 0 24 24" id="file-check" xmlns="http://www.w3.org/2000/svg"><path d="M13 9h5.5L13 3.5V9M6 2h8l6 6v12c0 1.1-.9 2-2 2H6a2 2 0 0 1-2-2V4c0-1.11.89-2 2-2m4.45 16.46l4.75-4.75-1.17-1.41-3.58 3.58-1.59-1.58-1.16 1.16 2.75 3z"/></symbol><symbol viewBox="0 0 24 24" id="file-document" xmlns="http://www.w3.org/2000/svg"><path d="M13 9h5.5L13 3.5V9M6 2h8l6 6v12c0 1.1-.9 2-2 2H6a2 2 0 0 1-2-2V4c0-1.11.89-2 2-2m9 16v-2H6v2h9m3-4v-2H6v2h12z"/></symbol><symbol viewBox="0 0 24 24" id="file-document-box" xmlns="http://www.w3.org/2000/svg"><path d="M14 17H7v-2h7m3-2H7v-2h10m0-2H7V7h10m2-4H5c-1.11 0-2 .89-2 2v14c0 1.1.9 2 2 2h14c1.1 0 2-.9 2-2V5a2 2 0 0 0-2-2z"/></symbol><symbol viewBox="0 0 24 24" id="file-excel" xmlns="http://www.w3.org/2000/svg"><path d="M6 2h8l6 6v12c0 1.1-.9 2-2 2H6c-1.1 0-2-.9-2-2V4c0-1.1.9-2 2-2m7 1.5V9h5.5L13 3.5m4 7.5h-4v2h1l-2 1.67L10 13h1v-2H7v2h1l3 2.5L8 18H7v2h4v-2h-1l2-1.67L14 18h-1v2h4v-2h-1l-3-2.5 3-2.5h1v-2z"/></symbol><symbol viewBox="0 0 24 24" id="file-export" xmlns="http://www.w3.org/2000/svg"><path d="M6 2a2 2 0 0 0-2 2v16c0 1.1.9 2 2 2h12c1.1 0 2-.9 2-2V8l-6-6m-1 1.5L18.5 9H13m-4.07 3.22H16v7.07l-2.12-2.12L11.05 20l-2.83-2.83 2.83-2.82"/></symbol><symbol viewBox="0 0 24 24" id="file-hidden" xmlns="http://www.w3.org/2000/svg"><path d="M13 9h1v2h-3V7h2v2m5.5 0l-2.12-2.12 1.25-1.25L20 8v2h-2v1h-3V9h3.5M13 3.5V2h-1v2h1v2h-2V4H9V2H8v2H6v1H4V4c0-1.11.89-2 2-2h8l2.36 2.36-1.25 1.25L13 3.5M20 20c0 1.1-.9 2-2 2h-2v-2h2v-1h2v1m-2-5h2v3h-2v-3m-6 7v-2h3v2h-3m-4 0v-2h3v2H8m-2 0a2 2 0 0 1-2-2v-2h2v2h1v2H6m-2-8h2v3H4v-3m0-4h2v3H4v-3m14 1h2v3h-2v-3M4 6h2v3H4V6z"/></symbol><symbol viewBox="0 0 24 24" id="file-image" xmlns="http://www.w3.org/2000/svg"><path d="M13 9h5.5L13 3.5V9M6 2h8l6 6v12c0 1.1-.9 2-2 2H6a2 2 0 0 1-2-2V4c0-1.11.89-2 2-2m0 18h12v-8l-4 4-2-2-6 6M8 9c-1.1 0-2 .9-2 2s.9 2 2 2 2-.9 2-2-.9-2-2-2z"/></symbol><symbol viewBox="0 0 24 24" id="file-music" xmlns="http://www.w3.org/2000/svg"><path d="M13 9h5.5L13 3.5V9M6 2h8l6 6v12c0 1.1-.9 2-2 2H6a2 2 0 0 1-2-2V4c0-1.11.89-2 2-2m3 14c-1.1 0-2 .9-2 2s.9 2 2 2 2-.9 2-2v-5h3v-2h-4v5.27c-.29-.17-.64-.27-1-.27z"/></symbol><symbol viewBox="0 0 24 24" id="file-pdf" xmlns="http://www.w3.org/2000/svg"><path d="M14 9h5.5L14 3.5V9M7 2h8l6 6v12c0 1.1-.9 2-2 2H7a2 2 0 0 1-2-2V4c0-1.1.9-2 2-2m4.93 10.44c.41.9.93 1.64 1.53 2.15l.41.32c-.87.16-2.07.44-3.34.93l-.11.04.5-1.04c.45-.87.78-1.66 1.01-2.4m6.48 3.81c.18-.18.27-.41.28-.66.03-.2-.02-.39-.12-.55-.29-.47-1.04-.69-2.28-.69l-1.29.07-.87-.58c-.63-.52-1.2-1.43-1.6-2.56l.04-.14c.33-1.33.64-2.94-.02-3.6a.853.853 0 0 0-.61-.24h-.24c-.37 0-.7.39-.79.77-.37 1.33-.15 2.06.22 3.27v.01c-.25.88-.57 1.9-1.08 2.93l-.96 1.8-.89.49c-1.2.75-1.77 1.59-1.88 2.12-.04.19-.02.36.05.54l.03.05.48.31.44.11c.81 0 1.73-.95 2.97-3.07l.18-.07c1.03-.33 2.31-.56 4.03-.75 1.03.51 2.24.74 3 .74.44 0 .74-.11.91-.3m-.41-.71l.09.11c-.01.1-.04.11-.09.13h-.04l-.19.02c-.46 0-1.17-.19-1.9-.51.09-.1.13-.1.23-.1 1.4 0 1.8.25 1.9.35M8.83 17c-.65 1.19-1.24 1.85-1.69 2 .05-.38.5-1.04 1.21-1.69l.48-.31m3.02-6.91c-.23-.9-.24-1.63-.07-2.05l.07-.12.15.05c.17.24.19.56.09 1.1l-.03.16-.16.82-.05.04z"/></symbol><symbol viewBox="0 0 24 24" id="file-powerpoint" xmlns="http://www.w3.org/2000/svg"><path d="M6 2h8l6 6v12c0 1.1-.9 2-2 2H6c-1.1 0-2-.9-2-2V4c0-1.1.9-2 2-2m7 1.5V9h5.5L13 3.5M8 11v2h1v6H8v1h4v-1h-1v-2h2c1.66 0 3-1.34 3-3s-1.34-3-3-3H8m5 2c.55 0 1 .45 1 1s-.45 1-1 1h-2v-2h2z"/></symbol><symbol viewBox="0 0 24 24" id="file-video" xmlns="http://www.w3.org/2000/svg"><path d="M13 9h5.5L13 3.5V9M6 2h8l6 6v12c0 1.1-.9 2-2 2H6a2 2 0 0 1-2-2V4c0-1.11.89-2 2-2m11 17v-6l-3 2.2V13H7v6h7v-2.2l3 2.2z"/></symbol><symbol viewBox="0 0 24 24" id="file-word" xmlns="http://www.w3.org/2000/svg"><path d="M6 2h8l6 6v12c0 1.1-.9 2-2 2H6c-1.1 0-2-.9-2-2V4c0-1.1.9-2 2-2m7 1.5V9h5.5L13 3.5M7 13l1.5 7h2l1.5-3 1.5 3h2l1.5-7h1v-2h-4v2h1l-.9 4.2L13 15h-2l-1.1 2.2L9 13h1v-2H6v2h1z"/></symbol><symbol viewBox="0 0 24 24" id="file-xml" xmlns="http://www.w3.org/2000/svg"><path d="M13 9h5.5L13 3.5V9M6 2h8l6 6v12c0 1.1-.9 2-2 2H6a2 2 0 0 1-2-2V4c0-1.11.89-2 2-2m.12 13.5l3.74 3.74 1.42-1.41-2.33-2.33 2.33-2.33-1.42-1.41-3.74 3.74m11.16 0l-3.74-3.74-1.42 1.41 2.33 2.33-2.33 2.33 1.42 1.41 3.74-3.74z"/></symbol><symbol viewBox="0 0 24 24" id="find-replace" xmlns="http://www.w3.org/2000/svg"><path d="M11 6c1.38 0 2.63.56 3.54 1.46L12 10h6V4l-2.05 2.05A6.976 6.976 0 0 0 11 4c-3.53 0-6.43 2.61-6.92 6H6.1A5 5 0 0 1 11 6m5.64 9.14A6.89 6.89 0 0 0 17.92 12H15.9a5 5 0 0 1-4.9 4c-1.38 0-2.63-.56-3.54-1.46L10 12H4v6l2.05-2.05A6.976 6.976 0 0 0 11 18c1.55 0 3-.5 4.14-1.36L20 21.5l1.5-1.5-4.86-4.86z"/></symbol><symbol viewBox="0 0 24 24" id="folder" xmlns="http://www.w3.org/2000/svg"><path d="M10 4H4c-1.11 0-2 .89-2 2v12c0 1.1.9 2 2 2h16c1.1 0 2-.9 2-2V8a2 2 0 0 0-2-2h-8l-2-2z"/></symbol><symbol viewBox="0 0 24 24" id="format-list-checks" xmlns="http://www.w3.org/2000/svg"><path d="M3 5h6v6H3V5m2 2v2h2V7H5m6 0h10v2H11V7m0 8h10v2H11v-2m-6 5l-3.5-3.5 1.41-1.41L5 17.17l4.59-4.58L11 14l-6 6z"/></symbol><symbol viewBox="0 0 24 24" id="forum" xmlns="http://www.w3.org/2000/svg"><path d="M17 12V3c0-.55-.45-1-1-1H3c-.55 0-1 .45-1 1v14l4-4h10c.55 0 1-.45 1-1m4-6h-2v9H6v2c0 .55.45 1 1 1h11l4 4V7c0-.55-.45-1-1-1z"/></symbol><symbol viewBox="0 0 24 24" id="fullscreen" xmlns="http://www.w3.org/2000/svg"><path d="M5 5h5v2H7v3H5V5m9 0h5v5h-2V7h-3V5m3 9h2v5h-5v-2h3v-3m-7 3v2H5v-5h2v3h3z"/></symbol><symbol viewBox="0 0 24 24" id="fullscreen-exit" xmlns="http://www.w3.org/2000/svg"><path d="M14 14h5v2h-3v3h-2v-5m-9 0h5v5H8v-3H5v-2m3-9h2v5H5V8h3V5m11 3v2h-5V5h2v3h3z"/></symbol><symbol viewBox="0 0 24 24" id="google" xmlns="http://www.w3.org/2000/svg"><path d="M21.35 11.1h-9.17v2.73h6.51c-.33 3.81-3.5 5.44-6.5 5.44C8.36 19.27 5 16.25 5 12c0-4.1 3.2-7.27 7.2-7.27 3.09 0 4.9 1.97 4.9 1.97L19 4.72S16.56 2 12.1 2C6.42 2 2.03 6.8 2.03 12c0 5.05 4.13 10 10.22 10 5.35 0 9.25-3.67 9.25-9.09 0-1.15-.15-1.81-.15-1.81z"/></symbol><symbol viewBox="0 0 24 24" id="google-docs-color" xmlns="http://www.w3.org/2000/svg"><path d="M18.148 21.912H5.767c-.789 0-1.429-.64-1.429-1.428V3.34c0-.789.64-1.429 1.429-1.429h9.048l4.762 4.762v13.81c0 .79-.64 1.43-1.429 1.43z" fill="#2196f3"/><path d="M19.577 6.673h-4.762V1.911z" fill="#bbdefb"/><path d="M14.815 6.673l4.762 4.763V6.673z" fill="#1565c0"/><path d="M7.672 11.436h8.571v.952H7.672zM7.672 13.34h8.571v.953H7.672zM7.672 15.245h8.571v.953H7.672zM7.672 17.15h4.762v.953H7.672z" fill="#e3f2fd"/></symbol><symbol viewBox="0 0 24 24" id="google-drive" xmlns="http://www.w3.org/2000/svg"><path d="M7.71 3.5L1.15 15l3.43 6 6.55-11.5M9.73 15L6.3 21h13.12l3.43-6m-.57-1L15.42 2H8.57l6.86 12h6.85z"/></symbol><symbol viewBox="0 0 24 24" id="google-drive-color" xmlns="http://www.w3.org/2000/svg"><path d="M12.017 8.653L4.816 21.131l-3.847-6.66 7.2-12.478z" fill="#0da960"/><path d="M303.8 275.2h-90.6l24.2-41.9H328z" fill="url(#g1)" transform="translate(-29.075 -22.615) scale(.15896)"/><path d="M282.7 154.8l45.3 78.5h-48.4l-45.3-78.5z" fill="url(#g2)" transform="translate(-29.075 -22.615) scale(.15896)"/><path d="M4.816 21.131l7.2-6.66H8.663l1.67-2.909z" fill="#2d6fdd"/><path d="M23.064 14.471l-9.362-2.909 1.669 2.909z" fill="#e5b93c"/><path d="M12.017 8.653L8.17 1.993l2.162 9.569z" fill="#0c9b57"/></symbol><symbol viewBox="0 0 24 24" id="google-drive-docs-color" xmlns="http://www.w3.org/2000/svg"><g stroke-width=".476"><path d="M18.148 21.912H5.767c-.789 0-1.429-.64-1.429-1.428V3.34c0-.789.64-1.429 1.429-1.429h9.048l4.762 4.762v13.81c0 .79-.64 1.43-1.429 1.43z" fill="#2196f3"/><path d="M19.577 6.673h-4.762V1.911z" fill="#bbdefb"/><path d="M14.815 6.673l4.762 4.763V6.673z" fill="#1565c0"/><g fill="#e3f2fd"><path d="M7.672 11.436h8.571v.952H7.672zM7.672 13.34h8.571v.953H7.672zM7.672 15.245h8.571v.953H7.672zM7.672 17.15h4.762v.953H7.672z"/></g></g><path d="M14.076 11.588l2.16 3.739-4.043 7.005-2.16-3.739z" fill="#0da960"/><path d="M328 233.3l-24.2 41.9h-90.6l24.2-41.9z" fill="url(#g3)" transform="matrix(.08924 0 0 .08924 -6.833 -2.226)"/><path d="M234.3 154.8h48.4l45.3 78.5h-48.4z" fill="url(#g4)" transform="matrix(.08924 0 0 .08924 -6.833 -2.226)"/><path d="M15.29 16.96l-3.097 5.372 4.043-3.739h-1.883z" fill="#2d6fdd"/><path d="M17.181 16.96l.937 1.633h4.32z" fill="#e5b93c"/><path d="M14.076 11.588l1.214 5.372.946-1.633z" fill="#0c9b57"/></symbol><symbol viewBox="0 0 24 24" id="google-drive-sheets-color" xmlns="http://www.w3.org/2000/svg"><g stroke-width=".476"><path d="M18.15 21.974H5.763c-.79 0-1.43-.64-1.43-1.43V3.392c0-.789.64-1.43 1.43-1.43h9.052l4.765 4.765v13.817c0 .79-.64 1.43-1.43 1.43z" fill="#43a047"/><path d="M19.58 6.727h-4.765V1.963z" fill="#c8e6c9"/><path d="M14.815 6.727l4.765 4.765V6.727z" fill="#2e7d32"/><path d="M15.292 11.492H7.668v6.67h8.576v-6.67zm-6.67.953h1.905v.953H8.621zm0 1.905h1.905v.953H8.621zm0 1.906h1.905v.953H8.621zm6.67.953H11.48v-.953h3.812zm0-1.906H11.48v-.953h3.812zm0-1.905H11.48v-.953h3.812z" fill="#e8f5e9"/></g><path d="M14.076 11.588l2.16 3.739-4.043 7.005-2.16-3.739z" fill="#0da960"/><path d="M328 233.3l-24.2 41.9h-90.6l24.2-41.9z" fill="url(#g5)" transform="matrix(.08924 0 0 .08924 -6.833 -2.226)"/><path d="M234.3 154.8h48.4l45.3 78.5h-48.4z" fill="url(#g6)" transform="matrix(.08924 0 0 .08924 -6.833 -2.226)"/><path d="M15.29 16.96l-3.097 5.372 4.043-3.739h-1.883z" fill="#2d6fdd"/><path d="M18.118 18.593h4.32L17.18 16.96z" fill="#e5b93c"/><path d="M15.29 16.96l.946-1.633-2.16-3.74z" fill="#0c9b57"/></symbol><symbol viewBox="0 0 24 24" id="google-drive-slides-color" xmlns="http://www.w3.org/2000/svg"><g stroke-width=".477"><path d="M18.15 21.992H5.754c-.79 0-1.43-.64-1.43-1.43V3.4c0-.79.64-1.43 1.43-1.43h9.058l4.767 4.767v13.824c0 .79-.641 1.43-1.43 1.43z" fill="#ffc107"/><path d="M19.58 6.738h-4.767V1.97z" fill="#ffecb3"/><path d="M14.813 6.738l4.767 4.766V6.738z" fill="#ffa000"/><path d="M14.813 11.028h-5.72a.955.955 0 0 0-.954.953v5.72c0 .526.428.954.953.954h5.72a.955.955 0 0 0 .954-.953v-5.72a.955.955 0 0 0-.953-.954zm0 1.907v3.813h-5.72v-3.813z" fill="#fff"/></g><path d="M14.076 11.588l2.16 3.739-4.043 7.005-2.16-3.739z" fill="#0da960"/><path d="M328 233.3l-24.2 41.9h-90.6l24.2-41.9z" fill="url(#g7)" transform="matrix(.08924 0 0 .08924 -6.833 -2.226)"/><path d="M234.3 154.8h48.4l45.3 78.5h-48.4z" fill="url(#g8)" transform="matrix(.08924 0 0 .08924 -6.833 -2.226)"/><path d="M15.29 16.96l-3.097 5.372 4.043-3.739h-1.883z" fill="#2d6fdd"/><path d="M22.438 18.593L17.18 16.96l.937 1.633z" fill="#e5b93c"/><path d="M16.236 15.327l-2.16-3.74 1.214 5.373z" fill="#0c9b57"/></symbol><symbol viewBox="0 0 24 24" id="google-sheets-color" xmlns="http://www.w3.org/2000/svg"><path d="M18.15 21.974H5.763c-.79 0-1.43-.64-1.43-1.43V3.392c0-.789.64-1.43 1.43-1.43h9.052l4.765 4.765v13.817c0 .79-.64 1.43-1.43 1.43z" fill="#43a047"/><path d="M19.58 6.727h-4.765V1.963z" fill="#c8e6c9"/><path d="M14.815 6.727l4.765 4.765V6.727z" fill="#2e7d32"/><path d="M15.292 11.492H7.668v6.67h8.576v-6.67zm-6.67.953h1.905v.953H8.621zm0 1.905h1.905v.953H8.621zm0 1.906h1.905v.953H8.621zm6.67.953H11.48v-.953h3.812zm0-1.906H11.48v-.953h3.812zm0-1.905H11.48v-.953h3.812z" fill="#e8f5e9"/></symbol><symbol viewBox="0 0 24 24" id="google-slides-color" xmlns="http://www.w3.org/2000/svg"><path d="M18.15 21.992H5.754c-.79 0-1.43-.64-1.43-1.43V3.4c0-.79.64-1.43 1.43-1.43h9.058l4.767 4.767v13.824c0 .79-.641 1.43-1.43 1.43z" fill="#ffc107"/><path d="M19.58 6.738h-4.767V1.97z" fill="#ffecb3"/><path d="M14.813 6.738l4.767 4.766V6.738z" fill="#ffa000"/><path d="M14.813 11.028h-5.72a.955.955 0 0 0-.954.953v5.72c0 .526.428.954.953.954h5.72a.955.955 0 0 0 .954-.953v-5.72a.955.955 0 0 0-.953-.954zm0 1.907v3.813h-5.72v-3.813z" fill="#fff"/></symbol><symbol viewBox="0 0 24 24" id="heart-box-outline" xmlns="http://www.w3.org/2000/svg"><path d="M12 17l-.72-.66C8.7 14 7 12.46 7 10.57c0-1.54 1.21-2.75 2.75-2.75.87 0 1.7.41 2.25 1.05.55-.64 1.38-1.05 2.25-1.05 1.54 0 2.75 1.21 2.75 2.75 0 1.89-1.7 3.43-4.28 5.77L12 17M5 3h14c1.1 0 2 .9 2 2v14c0 1.1-.9 2-2 2H5c-1.1 0-2-.9-2-2V5c0-1.1.9-2 2-2m0 2v14h14V5H5z"/></symbol><symbol viewBox="0 0 24 24" id="help-circle" xmlns="http://www.w3.org/2000/svg"><path d="M15.07 11.25l-.9.92C13.45 12.89 13 13.5 13 15h-2v-.5c0-1.11.45-2.11 1.17-2.83l1.24-1.26c.37-.36.59-.86.59-1.41a2 2 0 1 0-4 0H8c0-2.21 1.79-4 4-4s4 1.79 4 4a3.2 3.2 0 0 1-.93 2.25M13 19h-2v-2h2M12 2C6.48 2 2 6.48 2 12s4.48 10 10 10 10-4.48 10-10c0-5.53-4.5-10-10-10z"/></symbol><symbol viewBox="0 0 24 24" id="home" xmlns="http://www.w3.org/2000/svg"><path d="M10 20v-6h4v6h5v-8h3L12 3 2 12h3v8h5z"/></symbol><symbol viewBox="0 0 24 24" id="human-greeting" xmlns="http://www.w3.org/2000/svg"><path d="M1.5 4v1.5c0 4.15 2.21 7.78 5.5 9.8V20h15v-2c0-2.66-5.33-4-8-4h-.25C9 14 5 10 5 5.5V4m9 0c-2.21 0-4 1.79-4 4s1.79 4 4 4 4-1.79 4-4-1.79-4-4-4z"/></symbol><symbol viewBox="0 0 24 24" id="image" xmlns="http://www.w3.org/2000/svg"><path d="M8.5 13.5l2.5 3 3.5-4.5 4.5 6H5m16 1V5a2 2 0 0 0-2-2H5c-1.1 0-2 .9-2 2v14c0 1.1.9 2 2 2h14c1.1 0 2-.9 2-2z"/></symbol><symbol viewBox="0 0 24 24" id="image-gif" xmlns="http://www.w3.org/2000/svg"><path d="M5 3c-1.1 0-2 .9-2 2v14c0 1.1.9 2 2 2h14c1.1 0 2-.9 2-2V5c0-1.1-.9-2-2-2zm1 6h3c.6 0 1 .5 1 1v.5H6.5v3h2V12H10v2c0 .5-.4 1-1 1H6c-.6 0-1-.5-1-1v-4c0-.5.4-1 1-1zm5.5 0H13v6h-1.5zm3 0H19v1.5h-3v1h2V13h-2v2h-1.5z"/></symbol><symbol viewBox="0 0 24 24" id="information" xmlns="http://www.w3.org/2000/svg"><path d="M13 9h-2V7h2m0 10h-2v-6h2m-1-9C6.48 2 2 6.48 2 12s4.48 10 10 10 10-4.48 10-10S17.52 2 12 2z"/></symbol><symbol viewBox="0 0 24 24" id="information-outline" xmlns="http://www.w3.org/2000/svg"><path d="M11 9h2V7h-2m1 13c-4.41 0-8-3.59-8-8s3.59-8 8-8 8 3.59 8 8-3.59 8-8 8m0-18C6.48 2 2 6.48 2 12s4.48 10 10 10 10-4.48 10-10S17.52 2 12 2m-1 15h2v-6h-2v6z"/></symbol><symbol viewBox="0 0 24 24" id="laptop" xmlns="http://www.w3.org/2000/svg"><path d="M4 6h16v10H4m16 2c1.1 0 2-.9 2-2V6a2 2 0 0 0-2-2H4c-1.11 0-2 .89-2 2v10c0 1.1.9 2 2 2H0v2h24v-2h-4z"/></symbol><symbol viewBox="0 0 24 24" id="layers" xmlns="http://www.w3.org/2000/svg"><path d="M12 16l7.36-5.73L21 9l-9-7-9 7 1.63 1.27M12 18.54l-7.38-5.73L3 14.07l9 7 9-7-1.63-1.27L12 18.54z"/></symbol><symbol viewBox="0 0 24 24" id="lightbulb" xmlns="http://www.w3.org/2000/svg"><path d="M12 2C8.13 2 5 5.13 5 9c0 2.38 1.19 4.47 3 5.74V17c0 .55.45 1 1 1h6c.55 0 1-.45 1-1v-2.26c1.81-1.27 3-3.36 3-5.74 0-3.87-3.13-7-7-7M9 21c0 .55.45 1 1 1h4c.55 0 1-.45 1-1v-1H9v1z"/></symbol><symbol viewBox="0 0 24 24" id="lightbulb-outline" xmlns="http://www.w3.org/2000/svg"><path d="M12 2c3.87 0 7 3.13 7 7 0 2.38-1.19 4.47-3 5.74V17c0 .55-.45 1-1 1H9c-.55 0-1-.45-1-1v-2.26C6.19 13.47 5 11.38 5 9c0-3.87 3.13-7 7-7M9 21v-1h6v1c0 .55-.45 1-1 1h-4c-.55 0-1-.45-1-1m3-17C9.24 4 7 6.24 7 9c0 2.05 1.23 3.81 3 4.58V16h4v-2.42c1.77-.77 3-2.53 3-4.58 0-2.76-2.24-5-5-5z"/></symbol><symbol viewBox="0 0 24 24" id="link-context" xmlns="http://www.w3.org/2000/svg"><path d="M19 19H5V5h5l2-2H5c-1.1 0-2 .9-2 2v14c0 1.1.9 2 2 2h14c1.1 0 2-.9 2-2v-7l-2 2zm-6.1-7.9c.3.3.3.8 0 1.1s-.8.3-1.1 0c-1.5-1.5-1.5-3.9 0-5.4l2.7-2.7c1.5-1.5 3.9-1.5 5.4 0s1.5 3.9 0 5.4l-1.1 1.1c0-.6-.1-1.2-.3-1.8l.4-.4c.9-.9.9-2.3 0-3.2s-2.3-.9-3.2 0L13 7.9c-1 .8-1 2.3-.1 3.2zm2.2-3.2c.3-.3.8-.3 1.1 0 1.5 1.5 1.5 3.9 0 5.4L13.5 16c-1.5 1.5-3.9 1.5-5.4 0s-1.5-3.9 0-5.4l1.1-1.1c0 .6.1 1.2.3 1.8l-.4.4c-.9.9-.9 2.3 0 3.2s2.3.9 3.2 0l2.7-2.7c.9-.9.9-2.3 0-3.2-.2-.4-.2-.8.1-1.1z"/></symbol><symbol viewBox="0 0 24 24" id="link-variant" xmlns="http://www.w3.org/2000/svg"><path d="M10.59 13.41c.41.39.41 1.03 0 1.42-.39.39-1.03.39-1.42 0a5.003 5.003 0 0 1 0-7.07l3.54-3.54a5.003 5.003 0 0 1 7.07 0 5.003 5.003 0 0 1 0 7.07l-1.49 1.49c.01-.82-.12-1.64-.4-2.42l.47-.48a2.982 2.982 0 0 0 0-4.24 2.982 2.982 0 0 0-4.24 0l-3.53 3.53a2.982 2.982 0 0 0 0 4.24m2.82-4.24c.39-.39 1.03-.39 1.42 0a5.003 5.003 0 0 1 0 7.07l-3.54 3.54a5.003 5.003 0 0 1-7.07 0 5.003 5.003 0 0 1 0-7.07l1.49-1.49c-.01.82.12 1.64.4 2.43l-.47.47a2.982 2.982 0 0 0 0 4.24 2.982 2.982 0 0 0 4.24 0l3.53-3.53a2.982 2.982 0 0 0 0-4.24.973.973 0 0 1 0-1.42z"/></symbol><symbol viewBox="0 0 24 24" id="link-variant-off" xmlns="http://www.w3.org/2000/svg"><path d="M2 5.27L3.28 4 20 20.72 18.73 22l-4.83-4.83-2.61 2.61a5.003 5.003 0 0 1-7.07 0 5.003 5.003 0 0 1 0-7.07l1.49-1.49c-.01.82.12 1.64.4 2.43l-.47.47a2.982 2.982 0 0 0 0 4.24 2.982 2.982 0 0 0 4.24 0l2.62-2.6-1.62-1.61c-.01.24-.11.49-.29.68-.39.39-1.03.39-1.42 0A4.973 4.973 0 0 1 7.72 11L2 5.27m10.71-1.05a5.003 5.003 0 0 1 7.07 0 5.003 5.003 0 0 1 0 7.07l-1.49 1.49c.01-.82-.12-1.64-.4-2.42l.47-.48a2.982 2.982 0 0 0 0-4.24 2.982 2.982 0 0 0-4.24 0l-3.33 3.33-1.41-1.42 3.33-3.33m.7 4.95c.39-.39 1.03-.39 1.42 0a4.999 4.999 0 0 1 1.23 5.06l-1.78-1.77c-.05-.68-.34-1.35-.87-1.87a.973.973 0 0 1 0-1.42z"/></symbol><symbol viewBox="0 0 24 24" id="lock" xmlns="http://www.w3.org/2000/svg"><path d="M12 17a2 2 0 1 0 .001-4.001A2 2 0 0 0 12 17m6-9c1.1 0 2 .9 2 2v10c0 1.1-.9 2-2 2H6c-1.1 0-2-.9-2-2V10a2 2 0 0 1 2-2h1V6c0-2.76 2.24-5 5-5s5 2.24 5 5v2h1m-6-5c-1.66 0-3 1.34-3 3v2h6V6c0-1.66-1.34-3-3-3z"/></symbol><symbol viewBox="0 0 24 24" id="lock-open" xmlns="http://www.w3.org/2000/svg"><path d="M18 8c1.1 0 2 .9 2 2v10c0 1.1-.9 2-2 2H6a2 2 0 0 1-2-2V10c0-1.1.9-2 2-2h9V6c0-1.66-1.34-3-3-3S9 4.34 9 6H7c0-2.76 2.24-5 5-5s5 2.24 5 5v2h1m-6 9c1.1 0 2-.9 2-2s-.9-2-2-2-2 .9-2 2 .9 2 2 2z"/></symbol><symbol viewBox="0 0 24 24" id="lock-reset" xmlns="http://www.w3.org/2000/svg"><path d="M12.63 2c5.53 0 10.01 4.5 10.01 10s-4.48 10-10.01 10c-3.51 0-6.58-1.82-8.37-4.57l1.58-1.25C7.25 18.47 9.76 20 12.64 20c4.42 0 8-3.58 8-8s-3.58-8-8-8C8.56 4 5.2 7.06 4.71 11h2.76l-3.74 3.73L0 11h2.69c.5-5.05 4.76-9 9.94-9m2.96 8.24c.5.01.91.41.91.92v4.61c0 .5-.41.92-.92.92h-5.53c-.51 0-.92-.42-.92-.92v-4.61c0-.51.41-.91.91-.92V9.23c0-1.53 1.25-2.77 2.77-2.77 1.53 0 2.78 1.24 2.78 2.77v1.01m-2.78-2.38c-.75 0-1.37.61-1.37 1.37v1.01h2.75V9.23c0-.76-.62-1.37-1.38-1.37z"/></symbol><symbol viewBox="0 0 24 24" id="logout" xmlns="http://www.w3.org/2000/svg"><path d="M17 17.25V14h-7v-4h7V6.75L22.25 12 17 17.25M13 2c1.1 0 2 .9 2 2v4h-2V4H4v16h9v-4h2v4c0 1.1-.9 2-2 2H4c-1.1 0-2-.9-2-2V4c0-1.1.9-2 2-2h9z"/></symbol><symbol viewBox="0 0 24 24" id="magnify" xmlns="http://www.w3.org/2000/svg"><path d="M9.5 3A6.5 6.5 0 0 1 16 9.5c0 1.61-.59 3.09-1.56 4.23l.27.27h.79l5 5-1.5 1.5-5-5v-.79l-.27-.27A6.516 6.516 0 0 1 9.5 16a6.5 6.5 0 1 1 0-13m0 2C7 5 5 7 5 9.5S7 14 9.5 14 14 12 14 9.5 12 5 9.5 5z"/></symbol><symbol viewBox="0 0 24 24" id="menu" xmlns="http://www.w3.org/2000/svg"><path d="M3 6h18v2H3V6m0 5h18v2H3v-2m0 5h18v2H3v-2z"/></symbol><symbol viewBox="0 0 24 24" id="menu-down" xmlns="http://www.w3.org/2000/svg"><path d="M7 10l5 5 5-5H7z"/></symbol><symbol viewBox="0 0 24 24" id="menu-up" xmlns="http://www.w3.org/2000/svg"><path d="M7 15l5-5 5 5H7z"/></symbol><symbol viewBox="0 0 24 24" id="message" xmlns="http://www.w3.org/2000/svg"><path d="M20 2H4c-1.1 0-2 .9-2 2v18l4-4h14c1.1 0 2-.9 2-2V4a2 2 0 0 0-2-2z"/></symbol><symbol viewBox="0 0 24 24" id="message-plus" xmlns="http://www.w3.org/2000/svg"><path d="M20 2c1.1 0 2 .9 2 2v12c0 1.1-.9 2-2 2H6l-4 4V4a2 2 0 0 1 2-2h16m-9 4v3H8v2h3v3h2v-3h3V9h-3V6h-2z"/></symbol><symbol viewBox="0 0 24 24" id="message-text" xmlns="http://www.w3.org/2000/svg"><path d="M20 2H4c-1.1 0-2 .9-2 2v18l4-4h14c1.1 0 2-.9 2-2V4c0-1.1-.9-2-2-2M6 9h12v2H6m8 3H6v-2h8m4-4H6V6h12"/></symbol><symbol viewBox="0 0 24 24" id="microsoft" xmlns="http://www.w3.org/2000/svg"><path d="M2 3h9v9H2V3m9 19H2v-9h9v9M21 3v9h-9V3h9m0 19h-9v-9h9v9z"/></symbol><symbol viewBox="0 0 24 24" id="minus" xmlns="http://www.w3.org/2000/svg"><path d="M19 13H5v-2h14v2z"/></symbol><symbol viewBox="0 0 24 24" id="minus-box-outline" xmlns="http://www.w3.org/2000/svg"><path d="M19 19V5H5v14h14m0-16c1.1 0 2 .9 2 2v14c0 1.1-.9 2-2 2H5c-1.1 0-2-.9-2-2V5a2 2 0 0 1 2-2h14m-2 8v2H7v-2h10z"/></symbol><symbol viewBox="0 0 24 24" id="minus-circle-outline" xmlns="http://www.w3.org/2000/svg"><path d="M12 20c-4.41 0-8-3.59-8-8s3.59-8 8-8 8 3.59 8 8-3.59 8-8 8m0-18C6.48 2 2 6.48 2 12s4.48 10 10 10 10-4.48 10-10S17.52 2 12 2M7 13h10v-2H7"/></symbol><symbol viewBox="0 0 24 24" id="office" xmlns="http://www.w3.org/2000/svg"><path d="M3 18l4-1.25V7l7-2v14.5L3.5 18.25 14 22l6-1.25V3.5L13.95 2 3 5.75V18z"/></symbol><symbol viewBox="0 0 24 24" id="office-color" xmlns="http://www.w3.org/2000/svg"><path fill="#e64a19" d="M2.975 5.924L14.05 1.896l6.04 1.51v17.116l-6.04 1.51-11.075-4.027 11.075 1.51V4.917l-7.048 1.51v10.068l-4.027 1.51z"/></symbol><symbol viewBox="0 0 24 24" id="onedrive" xmlns="http://www.w3.org/2000/svg"><path d="M20.08 13.64c1.09.17 1.92 1.11 1.92 2.25 0 .89-.5 1.66-1.25 2.03l-.17.08H9.16c-1.45 0-2.62-1.19-2.62-2.64 0-1.46 1.18-2.64 2.64-2.64l.22.01-.01-.2c0-1.82 1.48-3.3 3.3-3.3 1.28 0 2.39.73 2.94 1.77.45-.27.99-.45 1.58-.45a2.88 2.88 0 0 1 2.88 2.88l-.01.21M8.82 12.16a3.218 3.218 0 0 0-2.86 3.2c0 .68.21 1.3.54 1.82H4.73C3.22 17.18 2 15.96 2 14.45c0-1.45 1.12-2.62 2.53-2.72l-.07-.67C4.46 9.36 5.84 8 7.54 8c.63 0 1.23.18 1.72.5a4.252 4.252 0 0 1 3.81-2.35c2.2 0 4.01 1.68 4.23 3.82h-.09c-.48 0-.94.1-1.37.28a3.87 3.87 0 0 0-3.15-1.61 3.89 3.89 0 0 0-3.87 3.52z"/></symbol><symbol viewBox="0 0 24 24" id="onedrive-color" xmlns="http://www.w3.org/2000/svg"><g fill="#3047ac"><path d="M19.878 17.757s1.39-.189 1.67-1.532a2.416 2.416 0 0 0 .027-.814c-.206-1.52-1.853-1.86-1.853-1.86s.286-1.637-1.224-2.494c-1.51-.857-2.888 0-2.888 0s-.808-1.636-2.994-1.636c-2.81 0-3.28 3.194-3.28 3.194s-2.653.157-2.653 2.493c0 2.338 2.42 2.65 2.42 2.65z"/><path d="M5.72 15.108c0-2.114 1.581-3.04 2.827-3.34.432-1.422 1.628-3.31 4.07-3.31l.008.001h.01c1.694 0 2.747.791 3.315 1.42a4.011 4.011 0 0 1 1.13-.165H17.088l.029.002c.018-.137-.302-3.504-4.175-3.504-2.647 0-3.582 2.257-3.582 2.257s-1.92-1.427-3.893.545c-1.013 1.012-.779 2.568-.779 2.568s-2.336.233-2.336 2.724c0 2.256 2.414 2.49 2.414 2.49h1.35a3.561 3.561 0 0 1-.396-1.688z"/></g></symbol><symbol viewBox="0 0 24 24" id="open-in-new" xmlns="http://www.w3.org/2000/svg"><path d="M14 3v2h3.59l-9.83 9.83 1.41 1.41L19 6.41V10h2V3m-2 16H5V5h7V3H5a2 2 0 0 0-2 2v14c0 1.1.9 2 2 2h14c1.1 0 2-.9 2-2v-7h-2v7z"/></symbol><symbol viewBox="0 0 24 24" id="palette" xmlns="http://www.w3.org/2000/svg"><path d="M17.5 12c-.83 0-1.5-.67-1.5-1.5S16.67 9 17.5 9s1.5.67 1.5 1.5-.67 1.5-1.5 1.5m-3-4c-.83 0-1.5-.67-1.5-1.5S13.67 5 14.5 5s1.5.67 1.5 1.5S15.33 8 14.5 8m-5 0C8.67 8 8 7.33 8 6.5S8.67 5 9.5 5s1.5.67 1.5 1.5S10.33 8 9.5 8m-3 4c-.83 0-1.5-.67-1.5-1.5S5.67 9 6.5 9 8 9.67 8 10.5 7.33 12 6.5 12M12 3a9 9 0 0 0 0 18c.83 0 1.5-.67 1.5-1.5 0-.39-.15-.74-.39-1-.23-.27-.38-.62-.38-1 0-.83.67-1.5 1.5-1.5H16c2.76 0 5-2.24 5-5 0-4.42-4.03-8-9-8z"/></symbol><symbol viewBox="0 0 24 24" id="paperclip" xmlns="http://www.w3.org/2000/svg"><path d="M16.5 6v11.5c0 2.21-1.79 4-4 4s-4-1.79-4-4V5a2.5 2.5 0 0 1 5 0v10.5c0 .55-.45 1-1 1s-1-.45-1-1V6H10v9.5a2.5 2.5 0 0 0 5 0V5c0-2.21-1.79-4-4-4S7 2.79 7 5v12.5c0 3.04 2.46 5.5 5.5 5.5s5.5-2.46 5.5-5.5V6h-1.5z"/></symbol><symbol viewBox="0 0 24 24" id="pencil" xmlns="http://www.w3.org/2000/svg"><path d="M20.71 7.04c.39-.39.39-1.04 0-1.41l-2.34-2.34c-.37-.39-1.02-.39-1.41 0l-1.84 1.83 3.75 3.75M3 17.25V21h3.75L17.81 9.93l-3.75-3.75L3 17.25z"/></symbol><symbol viewBox="0 0 24 24" id="pin" xmlns="http://www.w3.org/2000/svg"><path d="M16 12V4h1V2H7v2h1v8l-2 2v2h5.2v6h1.6v-6H18v-2l-2-2z"/></symbol><symbol viewBox="0 0 24 24" id="pin-off" xmlns="http://www.w3.org/2000/svg"><path d="M2 5.27L3.28 4 20 20.72 18.73 22l-5.93-5.93V22h-1.6v-6H6v-2l2-2v-.73l-6-6M16 12l2 2v2h-.18L8 6.18V4H7V2h10v2h-1v8z"/></symbol><symbol viewBox="0 0 24 24" id="play" xmlns="http://www.w3.org/2000/svg"><path d="M8 5.14v14l11-7-11-7z"/></symbol><symbol viewBox="0 0 24 24" id="plus" xmlns="http://www.w3.org/2000/svg"><path d="M19 13h-6v6h-2v-6H5v-2h6V5h2v6h6v2z"/></symbol><symbol viewBox="0 0 24 24" id="plus-box-outline" xmlns="http://www.w3.org/2000/svg"><path d="M19 19V5H5v14h14m0-16c1.1 0 2 .9 2 2v14c0 1.1-.9 2-2 2H5c-1.1 0-2-.9-2-2V5a2 2 0 0 1 2-2h14m-8 4h2v4h4v2h-4v4h-2v-4H7v-2h4V7z"/></symbol><symbol viewBox="0 0 24 24" id="plus-circle-outline" xmlns="http://www.w3.org/2000/svg"><path d="M12 20c-4.41 0-8-3.59-8-8s3.59-8 8-8 8 3.59 8 8-3.59 8-8 8m0-18C6.48 2 2 6.48 2 12s4.48 10 10 10 10-4.48 10-10S17.52 2 12 2m1 5h-2v4H7v2h4v4h2v-4h4v-2h-4V7z"/></symbol><symbol viewBox="0 0 24 24" id="poll-box" xmlns="http://www.w3.org/2000/svg"><path d="M17 17h-2v-4h2m-4 4h-2V7h2M9 17H7v-7h2m10-7H5c-1.11 0-2 .89-2 2v14c0 1.1.9 2 2 2h14c1.1 0 2-.9 2-2V5a2 2 0 0 0-2-2z"/></symbol><symbol viewBox="0 0 24 24" id="post-it" xmlns="http://www.w3.org/2000/svg"><path d="M14 14v5.5l5.5-5.5M5 21c-1.11 0-2-.89-2-2V5a2 2 0 0 1 2-2h14a2 2 0 0 1 2 2v10l-6 6H5z"/></symbol><symbol viewBox="0 0 24 24" id="refresh" xmlns="http://www.w3.org/2000/svg"><path d="M17.65 6.35A7.958 7.958 0 0 0 12 4c-4.42 0-8 3.58-8 8s3.58 8 8 8c3.73 0 6.84-2.55 7.73-6h-2.08A5.99 5.99 0 0 1 12 18c-3.31 0-6-2.69-6-6s2.69-6 6-6c1.66 0 3.14.69 4.22 1.78L13 11h7V4l-2.35 2.35z"/></symbol><symbol viewBox="0 0 24 24" id="rss-box" xmlns="http://www.w3.org/2000/svg"><path d="M5 3h14c1.1 0 2 .9 2 2v14c0 1.1-.9 2-2 2H5c-1.1 0-2-.9-2-2V5c0-1.1.9-2 2-2m2.5 12c-.83 0-1.5.67-1.5 1.5S6.67 18 7.5 18 9 17.33 9 16.5 8.33 15 7.5 15M6 10v2c3.31 0 6 2.69 6 6h2c0-4.42-3.58-8-8-8m0-4v2c5.52 0 10 4.48 10 10h2c0-6.63-5.37-12-12-12z"/></symbol><symbol viewBox="0 0 24 24" id="send" xmlns="http://www.w3.org/2000/svg"><path d="M2 21l21-9L2 3v7l15 2-15 2v7z"/></symbol><symbol viewBox="0 0 24 24" id="settings" xmlns="http://www.w3.org/2000/svg"><path d="M12 15.5c-1.93 0-3.5-1.57-3.5-3.5s1.57-3.5 3.5-3.5 3.5 1.57 3.5 3.5-1.57 3.5-3.5 3.5m7.43-2.53c.04-.32.07-.64.07-.97 0-.33-.03-.66-.07-1l2.11-1.63c.19-.15.24-.42.12-.64l-2-3.46c-.12-.22-.39-.31-.61-.22l-2.49 1c-.52-.39-1.06-.73-1.69-.98l-.37-2.65A.506.506 0 0 0 14 2h-4c-.25 0-.46.18-.5.42l-.37 2.65c-.63.25-1.17.59-1.69.98l-2.49-1c-.22-.09-.49 0-.61.22l-2 3.46c-.13.22-.07.49.12.64L4.57 11c-.04.34-.07.67-.07 1 0 .33.03.65.07.97l-2.11 1.66c-.19.15-.25.42-.12.64l2 3.46c.12.22.39.3.61.22l2.49-1.01c.52.4 1.06.74 1.69.99l.37 2.65c.04.24.25.42.5.42h4c.25 0 .46-.18.5-.42l.37-2.65c.63-.26 1.17-.59 1.69-.99l2.49 1.01c.22.08.49 0 .61-.22l2-3.46c.12-.22.07-.49-.12-.64l-2.11-1.66z"/></symbol><symbol viewBox="0 0 24 24" id="share-variant" xmlns="http://www.w3.org/2000/svg"><path d="M18 16.08c-.76 0-1.44.3-1.96.77L8.91 12.7c.05-.23.09-.46.09-.7 0-.24-.04-.47-.09-.7l7.05-4.11c.54.5 1.25.81 2.04.81 1.66 0 3-1.34 3-3s-1.34-3-3-3-3 1.34-3 3c0 .24.04.47.09.7L8.04 9.81C7.5 9.31 6.79 9 6 9c-1.66 0-3 1.34-3 3s1.34 3 3 3c.79 0 1.5-.31 2.04-.81l7.12 4.15c-.05.21-.08.43-.08.66 0 1.61 1.31 2.91 2.92 2.91 1.61 0 2.92-1.3 2.92-2.91s-1.31-2.92-2.92-2.92z"/></symbol><symbol viewBox="0 0 24 24" id="star" xmlns="http://www.w3.org/2000/svg"><path d="M12 17.27L18.18 21l-1.64-7.03L22 9.24l-7.19-.62L12 2 9.19 8.62 2 9.24l5.45 4.73L5.82 21 12 17.27z"/></symbol><symbol viewBox="0 0 24 24" id="star-off" xmlns="http://www.w3.org/2000/svg"><path d="M2 5.27L3.28 4 20 20.72 18.73 22l-1.68-1.69L12 17.27 5.82 21l1.63-7.03L2 9.24l3.66-.31L2 5.27M12 2l2.81 6.62 7.19.62-5.46 4.73.23.98-7.21-7.21L12 2z"/></symbol><symbol viewBox="0 0 24 24" id="star-outline" xmlns="http://www.w3.org/2000/svg"><path d="M12 15.39l-3.76 2.27.99-4.28-3.32-2.88 4.38-.37L12 6.09l1.71 4.04 4.38.37-3.32 2.88.99 4.28M22 9.24l-7.19-.61L12 2 9.19 8.63 2 9.24l5.45 4.73L5.82 21 12 17.27 18.18 21l-1.64-7.03L22 9.24z"/></symbol><symbol viewBox="0 0 24 24" id="subdirectory-arrow-left" xmlns="http://www.w3.org/2000/svg"><path d="M11 9l1.42 1.42L8.83 14H18V4h2v12H8.83l3.59 3.58L11 21l-6-6 6-6z"/></symbol><symbol viewBox="0 0 24 24" id="tab" xmlns="http://www.w3.org/2000/svg"><path d="M21 3H3c-1.1 0-2 .9-2 2v14c0 1.1.9 2 2 2h18c1.1 0 2-.9 2-2V5c0-1.1-.9-2-2-2m0 16H3V5h10v4h8v10z"/></symbol><symbol viewBox="0 0 24 24" id="textbox" xmlns="http://www.w3.org/2000/svg"><path d="M17 7h5v10h-5v2c0 .55.45 1 1 1h2v2h-2.5c-.55 0-1.5-.45-1.5-1 0 .55-.95 1-1.5 1H12v-2h2c.55 0 1-.45 1-1V5c0-.55-.45-1-1-1h-2V2h2.5c.55 0 1.5.45 1.5 1 0-.55.95-1 1.5-1H20v2h-2c-.55 0-1 .45-1 1v2M2 7h11v2H4v6h9v2H2V7m18 8V9h-3v6h3z"/></symbol><symbol viewBox="0 0 24 24" id="thumb-up" xmlns="http://www.w3.org/2000/svg"><path d="M23 10a2 2 0 0 0-2-2h-6.32l.96-4.57c.02-.1.03-.21.03-.32 0-.41-.17-.79-.44-1.06L14.17 1 7.59 7.58C7.22 7.95 7 8.45 7 9v10c0 1.1.9 2 2 2h9c.83 0 1.54-.5 1.84-1.22l3.02-7.05c.09-.23.14-.47.14-.73v-2M1 21h4V9H1v12z"/></symbol><symbol viewBox="0 0 24 24" id="thumb-up-outline" xmlns="http://www.w3.org/2000/svg"><path d="M5 9v12H1V9h4m4 12c-1.1 0-2-.9-2-2V9c0-.55.22-1.05.59-1.41L14.17 1l1.06 1.06c.27.27.44.64.44 1.05l-.03.32L14.69 8H21a2 2 0 0 1 2 2v2c0 .26-.05.5-.14.73l-3.02 7.05C19.54 20.5 18.83 21 18 21H9m0-2h9.03L21 12v-2h-8.79l1.13-5.32L9 9.03V19z"/></symbol><symbol viewBox="0 0 24 24" id="timelapse" xmlns="http://www.w3.org/2000/svg"><path d="M12 20c-4.42 0-8-3.58-8-8s3.58-8 8-8 8 3.58 8 8-3.58 8-8 8m0-18C6.48 2 2 6.48 2 12s4.48 10 10 10 10-4.48 10-10S17.52 2 12 2m4.24 5.76A5.95 5.95 0 0 0 12 6v6l-4.24 4.24a6 6 0 0 0 8.48 0 5.981 5.981 0 0 0 0-8.48z"/></symbol><symbol viewBox="0 0 24 24" id="trello" xmlns="http://www.w3.org/2000/svg"><path d="M19.5 2h-15A2.5 2.5 0 0 0 2 4.5v15A2.5 2.5 0 0 0 4.5 22h15a2.5 2.5 0 0 0 2.5-2.5v-15A2.5 2.5 0 0 0 19.5 2m-8.8 15.2c0 .66-.54 1.2-1.2 1.2H5.8c-.66 0-1.2-.54-1.2-1.2V5.8c0-.66.54-1.2 1.2-1.2h3.7c.66 0 1.2.54 1.2 1.2v11.4m8.7-5c0 .66-.54 1.2-1.2 1.2h-3.7c-.66 0-1.2-.54-1.2-1.2V5.8c0-.66.54-1.2 1.2-1.2h3.7c.66 0 1.2.54 1.2 1.2v6.4z"/></symbol><symbol viewBox="0 0 24 24" id="tune" xmlns="http://www.w3.org/2000/svg"><path d="M3 17v2h6v-2H3M3 5v2h10V5H3m10 16v-2h8v-2h-8v-2h-2v6h2M7 9v2H3v2h4v2h2V9H7m14 4v-2H11v2h10m-6-4h2V7h4V5h-4V3h-2v6z"/></symbol><symbol viewBox="0 0 24 24" id="twitter" xmlns="http://www.w3.org/2000/svg"><path d="M22.46 6c-.77.35-1.6.58-2.46.69.88-.53 1.56-1.37 1.88-2.38-.83.5-1.75.85-2.72 1.05C18.37 4.5 17.26 4 16 4c-2.35 0-4.27 1.92-4.27 4.29 0 .34.04.67.11.98C8.28 9.09 5.11 7.38 3 4.79c-.37.63-.58 1.37-.58 2.15 0 1.49.75 2.81 1.91 3.56-.71 0-1.37-.2-1.95-.5v.03c0 2.08 1.48 3.82 3.44 4.21a4.22 4.22 0 0 1-1.93.07 4.28 4.28 0 0 0 4 2.98 8.521 8.521 0 0 1-5.33 1.84c-.34 0-.68-.02-1.02-.06C3.44 20.29 5.7 21 8.12 21 16 21 20.33 14.46 20.33 8.79c0-.19 0-.37-.01-.56.84-.6 1.56-1.36 2.14-2.23z"/></symbol><symbol viewBox="0 0 24 24" id="undo" xmlns="http://www.w3.org/2000/svg"><path d="M12.5 8c-2.65 0-5.05 1-6.9 2.6L2 7v9h9l-3.62-3.62c1.39-1.16 3.16-1.88 5.12-1.88 3.54 0 6.55 2.31 7.6 5.5l2.37-.78C21.08 11.03 17.15 8 12.5 8z"/></symbol><symbol viewBox="0 0 24 24" id="upload" xmlns="http://www.w3.org/2000/svg"><path d="M9 16v-6H5l7-7 7 7h-4v6H9m-4 4v-2h14v2H5z"/></symbol><symbol viewBox="0 0 24 24" id="upload-network" xmlns="http://www.w3.org/2000/svg"><path d="M17 3c1.1 0 2 .9 2 2v10c0 1.1-.9 2-2 2h-4v2h1c.55 0 1 .45 1 1h7v2h-7c0 .55-.45 1-1 1h-4c-.55 0-1-.45-1-1H2v-2h7c0-.55.45-1 1-1h1v-2H7a2 2 0 0 1-2-2V5c0-1.1.9-2 2-2h10m-5 2.5L7.5 10H11v4h2v-4h3.5L12 5.5z"/></symbol><symbol viewBox="0 0 24 24" id="view-grid" xmlns="http://www.w3.org/2000/svg"><path d="M3 11h8V3H3m0 18h8v-8H3m10 8h8v-8h-8m0-10v8h8V3"/></symbol><symbol viewBox="0 0 24 24" id="view-module" xmlns="http://www.w3.org/2000/svg"><path d="M16 5v6h5V5m-11 6h5V5h-5m6 13h5v-6h-5m-6 6h5v-6h-5m-6 6h5v-6H4m0-1h5V5H4v6z"/></symbol><symbol viewBox="0 0 24 24" id="weavy" xmlns="http://www.w3.org/2000/svg"><path d="M5.283 3.5a2.111 2.111 0 0 0-1.006.287l-.004.002A2.128 2.128 0 0 0 3.5 6.7l5.523 9.572 2.463-4.261-4.298-7.444A2.133 2.133 0 0 0 5.34 3.5a2.111 2.111 0 0 0-.057 0zm13.377.065a2.129 2.129 0 0 0-1.848 1.07l-1.259 2.183 2.46 4.26 2.49-4.312a2.132 2.132 0 0 0-1.843-3.202zm-6.746 1.087a2.13 2.13 0 0 0-1.742 3.213l4.377 7.58a2.058 2.058 0 0 0 .568.643 1.919 1.919 0 0 0 .401.234 2.155 2.155 0 0 0 .878.192 2.132 2.132 0 0 0 1.844-3.202l-4.38-7.578a2.13 2.13 0 0 0-1.946-1.082zm.11 8.276v.008L9.5 17.301a2.008 2.008 0 0 0-.18.398 2.067 2.067 0 0 0-.1.746 2.131 2.131 0 0 0 3.911 1.086c.014-.032 1.521-2.636 1.521-2.636a1.078 1.078 0 0 1-.064-.049 3.06 3.06 0 0 1-.842-.938l-1.723-2.98z"/></symbol><symbol viewBox="0 0 24 24" id="weavy-messenger" xmlns="http://www.w3.org/2000/svg"><path d="M2 5.244A3.254 3.254 0 0 1 5.244 2h13.511A3.254 3.254 0 0 1 22 5.244v10.178a3.254 3.254 0 0 1-3.244 3.244H5.678L2 22zm13.089.789l-.809 1.401 1.578 2.734L17.456 7.4a1.365 1.365 0 0 0-1.181-2.051c-.474 0-.933.245-1.186.684zm-1.453 6.941c.095.166.22.304.365.411a1.338 1.338 0 0 0 .819.273 1.367 1.367 0 0 0 1.183-2.051l-2.81-4.865a1.365 1.365 0 0 0-1.867-.5 1.364 1.364 0 0 0-.5 1.867zm.066.929l-.042-.031a1.96 1.96 0 0 1-.54-.601l-1.106-1.913-.003.006-1.618 2.802a1.334 1.334 0 0 0-.183.736c.018.453.26.888.683 1.131a1.353 1.353 0 0 0 1.355.007c.184-.104.347-.252.472-.441.015-.022.982-1.696.982-1.696zM6.544 7.359l3.546 6.145 1.579-2.735-2.758-4.777a1.368 1.368 0 0 0-1.867-.501 1.366 1.366 0 0 0-.5 1.868z"/></symbol><symbol viewBox="0 0 24 24" id="webhook" xmlns="http://www.w3.org/2000/svg"><path d="M10.46 19C9 21.07 6.15 21.59 4.09 20.15c-2.05-1.44-2.53-4.31-1.09-6.4a4.585 4.585 0 0 1 3.58-1.98l.05 1.43c-.91.07-1.79.54-2.36 1.36-1 1.44-.69 3.38.68 4.35 1.38.96 3.31.59 4.31-.84.31-.45.49-.94.56-1.44v-1.01l5.58-.04.07-.11c.53-.92 1.68-1.24 2.58-.72a1.9 1.9 0 0 1 .68 2.6c-.53.91-1.69 1.23-2.59.71-.41-.23-.7-.6-.83-1.02l-4.07.02a4.96 4.96 0 0 1-.78 1.94m7.28-7.14c2.53.31 4.33 2.58 4.02 5.07-.31 2.5-2.61 4.27-5.14 3.96a4.629 4.629 0 0 1-3.43-2.21l1.24-.72a3.22 3.22 0 0 0 2.32 1.45c1.75.21 3.3-.98 3.51-2.65.21-1.67-1.03-3.2-2.76-3.41-.54-.06-1.06.01-1.53.18l-.85.44-2.58-4.77h-.22a1.906 1.906 0 0 1-1.85-1.95c.03-1.04.93-1.85 1.98-1.81 1.05.06 1.88.91 1.85 1.95-.02.44-.19.84-.46 1.15l1.9 3.51c.62-.2 1.3-.27 2-.19M8.25 9.14c-1-2.35.06-5.04 2.37-6.02 2.32-.98 5 .13 6 2.48.59 1.37.47 2.87-.2 4.07l-1.24-.72c.42-.81.49-1.8.09-2.73-.68-1.6-2.49-2.37-4.04-1.72-1.56.66-2.26 2.5-1.58 4.1.28.66.75 1.17 1.32 1.51l.39.21-3.07 4.99c.03.05.07.11.1.19.49.91.15 2.06-.77 2.55-.91.49-2.06.13-2.56-.81-.49-.93-.15-2.08.77-2.57.39-.21.82-.26 1.23-.17l2.31-3.77c-.47-.43-.87-.97-1.12-1.59z"/></symbol><symbol viewBox="0 0 24 24" id="wikipedia" xmlns="http://www.w3.org/2000/svg"><path d="M14.97 18.95l-2.56-6.03c-1.02 1.99-2.14 4.08-3.1 6.03-.01.01-.47 0-.47 0C7.37 15.5 5.85 12.1 4.37 8.68 4.03 7.84 2.83 6.5 2 6.5v-.45h5.06v.45c-.6 0-1.62.4-1.36 1.05.72 1.54 3.24 7.51 3.93 9.03.47-.94 1.8-3.42 2.37-4.47-.45-.88-1.87-4.18-2.29-5-.32-.54-1.13-.61-1.75-.61 0-.15.01-.25 0-.44l4.46.01v.4c-.61.03-1.18.24-.92.82.6 1.24.95 2.13 1.5 3.28.17-.34 1.07-2.19 1.5-3.16.26-.65-.13-.91-1.21-.91.01-.12.01-.33.01-.43 1.39-.01 3.48-.01 3.85-.02v.42c-.71.03-1.44.41-1.82.99L13.5 11.3c.18.51 1.96 4.46 2.15 4.9l3.85-8.83c-.3-.72-1.16-.87-1.5-.87v-.45l4 .03V6.5c-.88 0-1.43.5-1.75 1.25-.8 1.79-3.25 7.49-4.85 11.2h-.43z"/></symbol><symbol viewBox="0 0 24 24" id="windows" xmlns="http://www.w3.org/2000/svg"><path d="M3 12V6.75l6-1.32v6.48L3 12m17-9v8.75l-10 .15V5.21L20 3M3 13l6 .09v6.81l-6-1.15V13m17 .25V22l-10-1.91V13.1l10 .15z"/></symbol><symbol viewBox="0 0 24 24" id="wrench" xmlns="http://www.w3.org/2000/svg"><path d="M22.7 19l-9.1-9.1c.9-2.3.4-5-1.5-6.9-2-2-5-2.4-7.4-1.3L9 6 6 9 1.6 4.7C.4 7.1.9 10.1 2.9 12.1c1.9 1.9 4.6 2.4 6.9 1.5l9.1 9.1c.4.4 1 .4 1.4 0l2.3-2.3c.5-.4.5-1.1.1-1.4z"/></symbol><symbol viewBox="0 0 24 24" id="zip-box" xmlns="http://www.w3.org/2000/svg"><path d="M14 17h-2v-2h-2v-2h2v2h2m0-6h-2v2h2v2h-2v-2h-2V9h2V7h-2V5h2v2h2m5-4H5c-1.11 0-2 .89-2 2v14c0 1.1.9 2 2 2h14c1.1 0 2-.9 2-2V5a2 2 0 0 0-2-2z"/></symbol></svg>