<svg height="192" viewBox="0 0 192 192" width="192" xmlns="http://www.w3.org/2000/svg"><path d="m0 0h192v192h-192z" fill="#1c8fc4"/><g fill="#156b93"><path d="m35.499 147.086 44.911 44.911 111.59.003.001-51.939-74.738-74.739"/><path d="m51.989 161.239-6.56 6.561 24.2 24.201 19.23-.004-33.813-33.814"/><path d="m17.775 129.674 56.986 56.986 15.565-15.565-51.614-51.614"/><path d="m130.008 61.467 61.993 61.993-.003-91.41-16.286-16.287"/><path d="m139.226 69.379-3.667 3.667 56.441 56.441.004-10.747-51.07-51.07"/><path d="m120.101 51.734 31.854 31.854 8.7-8.7-28.851-28.851"/></g><g fill="#c9e9f7"><rect height="50.479" rx="12" width="50.479" x="128.9" y="13.107"/><path d="m139.717 75.3a5.409 5.409 0 0 1 -5.408-5.408v-17.123a5.408 5.408 0 0 1 10.817 0v17.131a5.409 5.409 0 0 1 -5.409 5.4z"/><path d="m168.562 75.3a5.409 5.409 0 0 1 -5.408-5.408v-18.325a5.408 5.408 0 1 1 10.817 0v18.333a5.409 5.409 0 0 1 -5.409 5.4z"/></g><path d="m148.432 37.746h-12.62a.9.9 0 0 1 0-1.8h12.62a.9.9 0 0 1 0 1.8z" fill="#156b93"/><path d="m172.693 37.746h-12.62a.9.9 0 1 1 0-1.8h12.62a.9.9 0 0 1 0 1.8z" fill="#156b93"/><path d="m139.717 53.971h-15.324a5.408 5.408 0 0 1 0-10.817h15.324a5.408 5.408 0 1 1 0 10.817z" fill="#c9e9f7"/><path d="m183.435 53.971h-14.423a5.408 5.408 0 0 1 0-10.817h14.423a5.408 5.408 0 1 1 0 10.817z" fill="#c9e9f7"/><path d="m167.66 51.717h-27.042a5.866 5.866 0 0 1 -5.859-5.859.9.9 0 0 1 1.8 0 4.061 4.061 0 0 0 4.056 4.056h27.045a4.061 4.061 0 0 0 4.056-4.056.9.9 0 0 1 1.8 0 5.866 5.866 0 0 1 -5.856 5.859z" fill="#156b93"/><g fill="#c9e9f7"><rect height="88.155" rx="12" width="88.155" x="32.026" y="61.269"/><path d="m50.916 169.888a9.445 9.445 0 0 1 -9.445-9.445v-29.91a9.445 9.445 0 1 1 18.89 0v29.91a9.445 9.445 0 0 1 -9.445 9.445z"/><path d="m101.29 169.888a9.446 9.446 0 0 1 -9.445-9.445v-32.008a9.445 9.445 0 1 1 18.89 0v32.008a9.446 9.446 0 0 1 -9.445 9.445z"/></g><path d="m66.136 104.3h-22.036a1.574 1.574 0 0 1 0-3.148h22.036a1.574 1.574 0 0 1 0 3.148z" fill="#156b93"/><path d="m108.506 104.3h-22.039a1.574 1.574 0 0 1 0-3.148h22.039a1.574 1.574 0 0 1 0 3.148z" fill="#156b93"/><path d="m50.916 132.632h-26.761a9.445 9.445 0 0 1 0-18.89h26.761a9.445 9.445 0 0 1 0 18.89z" fill="#c9e9f7"/><path d="m127.265 132.632h-25.188a9.445 9.445 0 1 1 0-18.89h25.187a9.445 9.445 0 0 1 0 18.89z" fill="#c9e9f7"/><path d="m99.716 128.7h-47.226a10.244 10.244 0 0 1 -10.232-10.232 1.574 1.574 0 0 1 3.148 0 7.092 7.092 0 0 0 7.084 7.084h47.226a7.092 7.092 0 0 0 7.084-7.084 1.574 1.574 0 0 1 3.148 0 10.244 10.244 0 0 1 -10.232 10.232z" fill="#156b93"/></svg>