<?xml version="1.0" encoding="utf-8"?><svg version="1.1" id="Layer_1" xmlns="http://www.w3.org/2000/svg" xmlns:xlink="http://www.w3.org/1999/xlink" x="0px" y="0px" viewBox="0 0 500 500" style="enable-background:new 0 0 500 500;" xml:space="preserve"><style type="text/css">	.st0{opacity:0.2;}	.st1{fill:#267397;}</style><g class="st0">	<path d="M271.3,386.7c-16.2,16.2-32.4,32.4-48.5,48.6c-1.8,1.8-1.8,4.8,0,6.5c4.7,4.7,15.6,20.9,22.8,20.9c2.6,0,4.5-2.6,6.1-4.2		c10.6-10.6,21.2-21.2,31.8-31.8C275.3,414.7,271.2,400.7,271.3,386.7z"/><path d="M408.3,49.5c-40.9-18.8-89.8-15.1-128.1,8.1c-15.7,9.5-28.1,22.3-40.9,35.1c-64.8,64.8-129.6,129.7-194.5,194.5 c-32,32-40.9,83.7-16.9,123c25.9,42.4,81.4,55.7,125.3,34.3c35.3-17.2,64.9-56.8,92-83.9c40-40,79.9-79.9,119.9-119.9 c8.4-8.4,16.7-16.7,25.1-25.1c32.6-32.6,23.3-94.2-26.1-103.6c-21.4-4-42.5,3.6-59.4,19.1c-24.2,22.2-119,119.5-148.2,148.6 c-1.8,1.8-1.8,4.8,0,6.5c6.4,6.4,12.8,12.8,19.2,19.2c5.7,5.7,14.2-7,17.9-10.5c7.3-7,84.7-84.6,116.3-116.2 c7.2-7.2,14.1-15.2,21.8-21.8c24.8-24.9,57,8.1,31.9,33.3c-21,21-41.9,41.9-62.9,62.9c-40,40-79.9,79.9-119.9,119.9 c-8.4,8.4-16.7,16.7-25.1,25.1c-33.5,33.5-96.6,22.1-104-28.8c-6.5-44.8,42.9-79.6,71-107.7c40.7-40.7,81.5-81.5,122.2-122.2 c35-35,69.6-73.6,125.3-63.6c47.6,8.6,80,52.8,76.4,100.5c-2.2,28.8-16.6,51.8-36.5,71.6c-22.6,22.6-45.2,45.3-67.9,67.9 c14,0,28,4,40,12.1c19.8-19.8,39.6-39.6,59.4-59.4C506,204.1,494.3,89.1,408.3,49.5z"/></g><g id="remove-circle_2_"><path class="st1" d="M299.4,343.9c-23.7,23.7-23.7,62.3,0,86c23.7,23.7,62.3,23.7,86,0c23.7-23.7,23.7-62.3,0-86 S323.1,320.2,299.4,343.9z M374,418.4c-17.4,17.4-45.7,17.4-63.2,0c-17.4-17.4-17.4-45.7,0-63.2c17.4-17.4,45.7-17.4,63.2,0 C391.4,372.7,391.4,401,374,418.4z M352.3,357.1l0,19.9h19.9c1.4,0,2.5,1.1,2.5,2.5v14.7c0,1.4-1.1,2.5-2.5,2.5h-19.9l0,19.9 c0,1.4-1.1,2.5-2.5,2.5l-14.7,0c-1.4,0-2.5-1.1-2.5-2.5l0-19.9l-20,0c-1.4,0-2.5-1.1-2.5-2.5v-14.7c0-1.4,1.1-2.5,2.5-2.5h20 l0-19.9c0-1.4,1.1-2.5,2.5-2.5l14.7,0C351.1,354.6,352.3,355.7,352.3,357.1z"/></g></svg>
