<svg height="192" viewBox="0 0 192 192" width="192" xmlns="http://www.w3.org/2000/svg"><path d="m0 0h192v192h-192z" fill="#1c8fc4"/><g fill="#156b93"><path d="m43.525 137.808 54.193 54.193 94.282-.001-.002-115.619-43.523-43.523"/><path d="m64.692 155.975-8.421 8.421 27.604 27.604 24.688.001-39.948-39.949"/><path d="m20.775 115.458 73.145 73.146 19.98-19.979-66.25-66.25"/></g><rect fill="#c9e9f7" height="112" rx="12" width="112" x="40" y="29.333"/><g stroke-linecap="round" stroke-miterlimit="10"><g fill="#87cdee" stroke="#c9e9f7" stroke-width="24"><path d="m64 117.333v38"/><path d="m128 114.667v40.666"/><path d="m64 108h-34"/><path d="m129 108h32"/></g><g fill="none" stroke="#156b93" stroke-width="4"><path d="m137 102a11.032 11.032 0 0 1 -11 11h-60a11.032 11.032 0 0 1 -11-11"/><path d="m109.167 82h28"/><path d="m55.337 82h28"/></g></g></svg>