<svg enable-background="new 0 0 64 64" height="64" viewBox="0 0 64 64" width="64" xmlns="http://www.w3.org/2000/svg" xmlns:xlink="http://www.w3.org/1999/xlink"><linearGradient id="a" gradientUnits="userSpaceOnUse" x1="31.9995" x2="31.9995" y1="2" y2="62.0005"><stop offset="0" stop-color="#f90"/><stop offset=".2875" stop-color="#ff9500"/><stop offset=".5853" stop-color="#f80"/><stop offset=".8868" stop-color="#ff7400"/><stop offset="1" stop-color="#ff6a00"/></linearGradient><path d="m2 32c0-16.564 13.439-30 30-30 16.572 0 30 13.436 30 30 0 16.57-13.428 30-30 30-16.561 0-30-13.43-30-30z" fill="url(#a)"/><path d="m47.938 25.384-.467 2.833c-.113.822-.652 1.233-1.46 1.233h-4.903l-.852 5.1h4.72c.907 0 1.389.553 1.233 1.46l-.425 2.832c-.114.865-.652 1.233-1.46 1.233h-4.99l-1.285 7.692c-.113.823-.638 1.233-1.445 1.233h-3.06c-.907 0-1.389-.553-1.232-1.459l1.246-7.466h-5.756l-1.284 7.692c-.114.823-.639 1.233-1.447 1.233h-3.06c-.906 0-1.388-.553-1.232-1.459l1.247-7.466h-4.732c-.906 0-1.389-.553-1.231-1.46l.467-2.832c.114-.822.651-1.233 1.46-1.233h4.96l.852-5.1h-4.777c-.906 0-1.388-.553-1.232-1.459l.467-2.833c.114-.822.652-1.233 1.46-1.233h5.005l1.285-7.693c.111-.821.635-1.232 1.442-1.232h3.061c.907 0 1.389.553 1.231 1.459l-1.246 7.465h5.757l1.284-7.693c.113-.82.638-1.231 1.444-1.231h3.062c.905 0 1.388.553 1.231 1.459l-1.246 7.465h4.676c.905.001 1.388.554 1.232 1.46zm-12.605 4.066h-5.756l-.852 5.1h5.755z" fill="#fff"/></svg>