<svg enable-background="new 0 0 64 64" height="64" viewBox="0 0 64 64" width="64" xmlns="http://www.w3.org/2000/svg" xmlns:xlink="http://www.w3.org/1999/xlink"><linearGradient id="a" gradientUnits="userSpaceOnUse" x1="31.9995" x2="31.9995" y1="2" y2="62.0005"><stop offset="0" stop-color="#00abf1"/><stop offset=".2292" stop-color="#00a7ef"/><stop offset=".4667" stop-color="#009ae9"/><stop offset=".708" stop-color="#0086e0"/><stop offset=".9504" stop-color="#0069d3"/><stop offset="1" stop-color="#0062d0"/></linearGradient><path d="m62 54c0 4.399-3.6 8-8 8h-44c-4.399 0-8-3.601-8-8v-44c0-4.4 3.601-8 8-8h44c4.4 0 8 3.6 8 8z" fill="url(#a)"/><path d="m19.676 32c0-9.507 4.468-16 12.325-16 7.856 0 12.324 6.493 12.324 16 0 9.508-4.468 16-12.324 16-7.857 0-12.325-6.492-12.325-16zm18.597 0c0-6.514-2.146-10.102-6.272-10.102-4.127 0-6.272 3.587-6.272 10.102s2.146 10.103 6.272 10.103 6.272-3.588 6.272-10.103z" fill="#fff"/></svg>