<svg enable-background="new 0 0 64 64" height="64" viewBox="0 0 64 64" width="64" xmlns="http://www.w3.org/2000/svg" xmlns:xlink="http://www.w3.org/1999/xlink"><linearGradient id="a" gradientUnits="userSpaceOnUse" x1="31.9995" x2="31.9995" y1="2" y2="62.0005"><stop offset="0" stop-color="#f90"/><stop offset=".2875" stop-color="#ff9500"/><stop offset=".5853" stop-color="#f80"/><stop offset=".8868" stop-color="#ff7400"/><stop offset="1" stop-color="#ff6a00"/></linearGradient><path d="m2 32c0-16.564 13.439-30 30-30 16.572 0 30 13.436 30 30 0 16.57-13.428 30-30 30-16.561 0-30-13.43-30-30z" fill="url(#a)"/><path d="m21.5 46.936v-2.781c0-.516.168-.932.549-1.313l10.113-10.203c1.974-2.006 3.667-4.339 3.667-6.548 0-2.646-1.581-4.081-3.902-4.081-2.254 0-3.823.976-4.182 3.185-.112.684-.471 1.031-1.11 1.031h-4.07c-.684 0-1.065-.381-1.021-1.11.516-6.313 5.326-9.116 10.248-9.116 5.102 0 10.203 3.173 10.203 10.091 0 3.588-2.242 7.12-4.955 9.8l-6.313 6.167h10.707c.684 0 1.065.382 1.065 1.065v3.813c0 .684-.382 1.064-1.065 1.064h-18.87c-.683 0-1.064-.381-1.064-1.064z" fill="#fff"/></svg>