<svg enable-background="new 0 0 64 64" height="64" viewBox="0 0 64 64" width="64" xmlns="http://www.w3.org/2000/svg" xmlns:xlink="http://www.w3.org/1999/xlink"><linearGradient id="a" gradientUnits="userSpaceOnUse" x1="31.9995" x2="31.9995" y1="2" y2="62.0005"><stop offset="0" stop-color="#00abf1"/><stop offset=".2292" stop-color="#00a7ef"/><stop offset=".4667" stop-color="#009ae9"/><stop offset=".708" stop-color="#0086e0"/><stop offset=".9504" stop-color="#0069d3"/><stop offset="1" stop-color="#0062d0"/></linearGradient><path d="m62 54c0 4.399-3.6 8-8 8h-44c-4.399 0-8-3.601-8-8v-44c0-4.4 3.601-8 8-8h44c4.4 0 8 3.6 8 8z" fill="url(#a)"/><path d="m43.191 37.718c0 6.738-5.292 10.282-11.212 10.282-5.584 0-10.618-3.162-11.167-9.172-.045-.729.37-1.11 1.054-1.11h4.082c.639 0 .953.348 1.099.997.404 2.02 2.164 3.274 4.934 3.274 3.24 0 5.045-1.737 5.045-4.271s-1.805-4.272-5.045-4.272h-2.287c-.684 0-1.065-.381-1.065-1.064v-2.287c0-.505.157-.897.46-1.323l5.258-6.985h-11.27c-.684 0-1.065-.382-1.065-1.065v-3.655c0-.684.381-1.064 1.065-1.064h17.604c.684 0 1.064.381 1.064 1.064v3.319c0 .504-.156.896-.459 1.322l-5.334 7.024c4.125 1.203 7.239 4.331 7.239 8.986z" fill="#fff"/></svg>