<svg enable-background="new 0 0 64 64" height="64" viewBox="0 0 64 64" width="64" xmlns="http://www.w3.org/2000/svg" xmlns:xlink="http://www.w3.org/1999/xlink"><linearGradient id="a" gradientUnits="userSpaceOnUse" x1="31.9995" x2="31.9995" y1="2" y2="62.0005"><stop offset="0" stop-color="#f90"/><stop offset=".2875" stop-color="#ff9500"/><stop offset=".5853" stop-color="#f80"/><stop offset=".8868" stop-color="#ff7400"/><stop offset="1" stop-color="#ff6a00"/></linearGradient><path d="m2 32c0-16.564 13.439-30 30-30 16.572 0 30 13.436 30 30 0 16.57-13.428 30-30 30-16.561 0-30-13.43-30-30z" fill="url(#a)"/><path d="m44.629 37.817v3.657c0 .697-.389 1.086-1.086 1.086h-2.343v4.354c0 .697-.389 1.086-1.086 1.086h-4.183c-.697 0-1.086-.389-1.086-1.086v-4.354h-14.387c-.698 0-1.086-.389-1.086-1.086v-4.046c0-.479.092-.88.309-1.349l9.908-19.303c.263-.525.663-.776 1.268-.776h4.469c.822 0 1.165.526.776 1.303l-9.954 19.429h8.697v-6.503c0-.697.389-1.085 1.086-1.085h4.183c.697 0 1.086.388 1.086 1.085v6.503h2.343c.697-.001 1.086.388 1.086 1.085z" fill="#fff"/></svg>