<svg enable-background="new 0 0 64 64" height="64" viewBox="0 0 64 64" width="64" xmlns="http://www.w3.org/2000/svg" xmlns:xlink="http://www.w3.org/1999/xlink"><linearGradient id="a" gradientUnits="userSpaceOnUse" x1="31.9995" x2="31.9995" y1="2" y2="62.0005"><stop offset="0" stop-color="#00abf1"/><stop offset=".2292" stop-color="#00a7ef"/><stop offset=".4667" stop-color="#009ae9"/><stop offset=".708" stop-color="#0086e0"/><stop offset=".9504" stop-color="#0069d3"/><stop offset="1" stop-color="#0062d0"/></linearGradient><path d="m62 54c0 4.399-3.6 8-8 8h-44c-4.399 0-8-3.601-8-8v-44c0-4.4 3.601-8 8-8h44c4.4 0 8 3.6 8 8z" fill="url(#a)"/><path d="m44.629 37.816v3.658c0 .696-.389 1.085-1.086 1.085h-2.343v4.354c0 .697-.389 1.086-1.086 1.086h-4.183c-.697 0-1.086-.389-1.086-1.086v-4.353h-14.387c-.698 0-1.086-.389-1.086-1.085v-4.047c0-.479.092-.88.309-1.348l9.909-19.304c.262-.525.661-.776 1.266-.776h4.469c.824 0 1.166.525.777 1.303l-9.954 19.427h8.697v-6.502c0-.697.389-1.086 1.086-1.086h4.183c.697 0 1.086.389 1.086 1.086v6.502h2.343c.697 0 1.086.389 1.086 1.086z" fill="#fff"/></svg>