<svg enable-background="new 0 0 64 64" height="64" viewBox="0 0 64 64" width="64" xmlns="http://www.w3.org/2000/svg" xmlns:xlink="http://www.w3.org/1999/xlink"><linearGradient id="a" gradientUnits="userSpaceOnUse" x1="31.9995" x2="31.9995" y1="2" y2="62.0005"><stop offset="0" stop-color="#00abf1"/><stop offset=".2292" stop-color="#00a7ef"/><stop offset=".4667" stop-color="#009ae9"/><stop offset=".708" stop-color="#0086e0"/><stop offset=".9504" stop-color="#0069d3"/><stop offset="1" stop-color="#0062d0"/></linearGradient><path d="m62 54c0 4.399-3.6 8-8 8h-44c-4.399 0-8-3.601-8-8v-44c0-4.4 3.601-8 8-8h44c4.4 0 8 3.6 8 8z" fill="url(#a)"/><path d="m43.191 37.718c0 6.738-5.291 10.282-11.211 10.282-5.584 0-10.619-3.162-11.168-9.172-.045-.729.37-1.11 1.054-1.11h4.082c.639 0 .953.348 1.099.997.403 2.02 2.164 3.274 4.934 3.274 3.241 0 5.045-1.737 5.045-4.271s-1.805-4.272-5.045-4.272h-8.668c-.684 0-1.076-.414-1.031-1.109l1.099-15.315c.045-.64.46-1.021 1.099-1.021h16.19c.684 0 1.064.381 1.064 1.064v3.655c0 .684-.381 1.065-1.064 1.065h-11.449l-.403 5.651h3.498c5.92.001 10.875 3.543 10.875 10.282z" fill="#fff"/></svg>