<svg enable-background="new 0 0 64 64" height="64" viewBox="0 0 64 64" width="64" xmlns="http://www.w3.org/2000/svg" xmlns:xlink="http://www.w3.org/1999/xlink"><linearGradient id="a" gradientUnits="userSpaceOnUse" x1="31.9995" x2="31.9995" y1="2" y2="62.0005"><stop offset="0" stop-color="#00abf1"/><stop offset=".2292" stop-color="#00a7ef"/><stop offset=".4667" stop-color="#009ae9"/><stop offset=".708" stop-color="#0086e0"/><stop offset=".9504" stop-color="#0069d3"/><stop offset="1" stop-color="#0062d0"/></linearGradient><path d="m62 54c0 4.399-3.6 8-8 8h-44c-4.399 0-8-3.601-8-8v-44c0-4.4 3.601-8 8-8h44c4.4 0 8 3.6 8 8z" fill="url(#a)"/><path d="m43.381 37.102c0 6.413-4.676 10.898-11.381 10.898-6.739 0-11.381-4.485-11.381-10.898 0-2.439.67-4.599 1.873-6.34l-.012-.007 9.295-14.071c.304-.471.729-.684 1.278-.684h4.699c.852 0 1.154.561.684 1.277l-6.089 8.93c6.518.152 11.034 4.592 11.034 10.895zm-6.168 0c0-3.151-2.32-5.091-5.212-5.091-2.928 0-5.214 1.906-5.214 5.091 0 3.184 2.287 5.09 5.214 5.09 2.892-.001 5.212-1.94 5.212-5.09z" fill="#fff"/></svg>