<svg enable-background="new 0 0 64 64" height="64" viewBox="0 0 64 64" width="64" xmlns="http://www.w3.org/2000/svg" xmlns:xlink="http://www.w3.org/1999/xlink"><linearGradient id="a" gradientUnits="userSpaceOnUse" x1="31.9995" x2="31.9995" y1="2" y2="62.0005"><stop offset="0" stop-color="#f90"/><stop offset=".2875" stop-color="#ff9500"/><stop offset=".5853" stop-color="#f80"/><stop offset=".8868" stop-color="#ff7400"/><stop offset="1" stop-color="#ff6a00"/></linearGradient><path d="m2 32c0-16.564 13.439-30 30-30 16.572 0 30 13.436 30 30 0 16.57-13.428 30-30 30-16.561 0-30-13.43-30-30z" fill="url(#a)"/><path d="m22.743 16h18.515c.697 0 1.085.388 1.085 1.085v3.566c0 .48-.091.88-.263 1.349l-10.228 25.178c-.217.57-.652.822-1.257.822h-4.4c-.788 0-1.131-.48-.822-1.258l10.034-24.708h-12.664c-.697 0-1.086-.389-1.086-1.086v-3.863c0-.697.389-1.085 1.086-1.085z" fill="#fff"/></svg>