<svg enable-background="new 0 0 64 64" height="64" viewBox="0 0 64 64" width="64" xmlns="http://www.w3.org/2000/svg" xmlns:xlink="http://www.w3.org/1999/xlink"><linearGradient id="a" gradientUnits="userSpaceOnUse" x1="31.9995" x2="31.9995" y1="2" y2="62.0005"><stop offset="0" stop-color="#f90"/><stop offset=".2875" stop-color="#ff9500"/><stop offset=".5853" stop-color="#f80"/><stop offset=".8868" stop-color="#ff7400"/><stop offset="1" stop-color="#ff6a00"/></linearGradient><path d="m2 32c0-16.564 13.439-30 30-30 16.573 0 30 13.436 30 30 0 16.57-13.428 30-30 30-16.561 0-30-13.43-30-30z" fill="url(#a)"/><path d="m38.789 31.368c2.73 1.627 4.27 4.305 4.27 7.444 0 5.678-4.213 9.188-11.059 9.188-6.844 0-11.059-3.51-11.059-9.188 0-3.14 1.54-5.817 4.271-7.444-1.969-1.383-3.225-3.512-3.225-6.366 0-5.953 4.61-9.002 10.013-9.002 5.404 0 10.013 3.049 10.013 9.002.001 2.854-1.255 4.983-3.224 6.366zm-1.783 6.685c0-2.74-2.111-4.247-5.006-4.247s-5.007 1.507-5.007 4.247 2.112 4.247 5.007 4.247 5.006-1.507 5.006-4.247zm-8.967-12.721c0 2.223 1.684 3.632 3.961 3.632 2.278 0 3.961-1.409 3.961-3.632 0-2.289-1.684-3.631-3.961-3.631-2.278 0-3.961 1.342-3.961 3.631z" fill="#fff"/></svg>