<svg enable-background="new 0 0 64 64" height="64" viewBox="0 0 64 64" width="64" xmlns="http://www.w3.org/2000/svg" xmlns:xlink="http://www.w3.org/1999/xlink"><linearGradient id="a" gradientUnits="userSpaceOnUse" x1="31.9995" x2="31.9995" y1="2" y2="62.0005"><stop offset="0" stop-color="#00abf1"/><stop offset=".2292" stop-color="#00a7ef"/><stop offset=".4667" stop-color="#009ae9"/><stop offset=".708" stop-color="#0086e0"/><stop offset=".9504" stop-color="#0069d3"/><stop offset="1" stop-color="#0062d0"/></linearGradient><path d="m62 54c0 4.4-3.6 8-8 8h-44c-4.399 0-8-3.6-8-8v-44c0-4.399 3.601-8 8-8h44c4.4 0 8 3.601 8 8z" fill="url(#a)"/><path d="m38.789 31.368c2.73 1.627 4.27 4.305 4.27 7.444 0 5.678-4.215 9.188-11.059 9.188-6.845 0-11.06-3.51-11.06-9.188 0-3.14 1.54-5.817 4.271-7.444-1.969-1.383-3.225-3.512-3.225-6.366.001-5.953 4.611-9.002 10.014-9.002 5.402 0 10.013 3.049 10.013 9.002.001 2.854-1.255 4.983-3.224 6.366zm-1.783 6.685c0-2.74-2.113-4.247-5.006-4.247-2.894 0-5.007 1.507-5.007 4.247s2.113 4.247 5.007 4.247c2.893 0 5.006-1.507 5.006-4.247zm-8.968-12.721c0 2.223 1.684 3.632 3.962 3.632s3.961-1.409 3.961-3.632c0-2.289-1.684-3.631-3.961-3.631-2.279 0-3.962 1.342-3.962 3.631z" fill="#fff"/></svg>