<svg enable-background="new 0 0 64 64" height="64" viewBox="0 0 64 64" width="64" xmlns="http://www.w3.org/2000/svg" xmlns:xlink="http://www.w3.org/1999/xlink"><linearGradient id="a" gradientUnits="userSpaceOnUse" x1="31.9995" x2="31.9995" y1="2" y2="62.0005"><stop offset="0" stop-color="#00abf1"/><stop offset=".2292" stop-color="#00a7ef"/><stop offset=".4667" stop-color="#009ae9"/><stop offset=".708" stop-color="#0086e0"/><stop offset=".9504" stop-color="#0069d3"/><stop offset="1" stop-color="#0062d0"/></linearGradient><path d="m62 54c0 4.399-3.6 8-8 8h-44c-4.399 0-8-3.601-8-8v-44c0-4.4 3.601-8 8-8h44c4.4 0 8 3.6 8 8z" fill="url(#a)"/><path d="m41.506 33.236.014.008-9.296 14.071c-.304.472-.729.685-1.278.685h-4.698c-.853 0-1.155-.561-.685-1.278l6.089-8.93c-6.519-.151-11.034-4.592-11.034-10.894.001-6.414 4.677-10.898 11.382-10.898 6.738 0 11.378 4.484 11.378 10.898.001 2.438-.669 4.598-1.872 6.338zm-9.506-1.248c2.925 0 5.212-1.906 5.212-5.09 0-3.185-2.287-5.091-5.212-5.091-2.893 0-5.214 1.939-5.214 5.091 0 3.151 2.322 5.09 5.214 5.09z" fill="#fff"/></svg>