<svg enable-background="new 0 0 64 64" height="64" viewBox="0 0 64 64" width="64" xmlns="http://www.w3.org/2000/svg" xmlns:xlink="http://www.w3.org/1999/xlink"><linearGradient id="a"><stop offset="0" stop-color="#4e585e"/><stop offset=".1604" stop-color="#434751"/><stop offset=".3802" stop-color="#383844"/><stop offset=".6345" stop-color="#322f3d"/><stop offset="1" stop-color="#302c3b"/></linearGradient><linearGradient id="b" gradientUnits="userSpaceOnUse" x1="14.0562" x2="49.3949" xlink:href="#a" y1="9.0566" y2="44.3954"/><linearGradient id="c" gradientUnits="userSpaceOnUse" x1="2.1709" x2="57.1907" xlink:href="#a" y1="-.772" y2="54.2479"/><path d="m32 2c-13.785 0-25 11.217-25 25 0 13.785 11.215 25 25 25s25-11.215 25-25c0-13.783-11.215-25-25-25zm0 45.002c-11.029 0-20.002-8.973-20.002-20.002 0-11.027 8.973-19.998 20.002-19.998 11.027 0 19.998 8.971 19.998 19.998 0 11.029-8.971 20.002-19.998 20.002z" fill="url(#b)"/><path d="m43.241 40h-3.938c-.453 0-.807-.139-1.095-.52l-6.926-8.488h-3.177v8.125c0 .566-.316.883-.882.883h-3.343c-.566 0-.88-.316-.88-.883v-24.235c0-.566.314-.882.881-.882h4.225 4.736c4.781 0 8.635 3.853 8.635 8.636 0 3.218-1.976 6.112-4.854 7.497l7.138 8.771c.465.567.222 1.096-.52 1.096zm-15.135-13.521h4.736c1.939 0 3.527-1.69 3.527-3.844 0-2.164-1.588-3.844-3.527-3.844h-4.736z" fill="url(#c)"/></svg>