<svg enable-background="new 0 0 64 64" height="64" viewBox="0 0 64 64" width="64" xmlns="http://www.w3.org/2000/svg" xmlns:xlink="http://www.w3.org/1999/xlink"><linearGradient id="a" gradientUnits="userSpaceOnUse" x1="32.0005" x2="32.0005" y1="62" y2="2.0005"><stop offset="0" stop-color="#e6ebef"/><stop offset=".1142" stop-color="#e8ecf0"/><stop offset="1" stop-color="#f2f5f7"/></linearGradient><linearGradient id="b" gradientUnits="userSpaceOnUse" x1="32.0005" x2="32.0005" y1="62" y2="2.0005"><stop offset="0" stop-color="#cfd8dd"/><stop offset=".5378" stop-color="#d9e0e5"/><stop offset="1" stop-color="#e6ebef"/></linearGradient><linearGradient id="c"><stop offset="0" stop-color="#bc2af7"/><stop offset=".2161" stop-color="#b928f3"/><stop offset=".4401" stop-color="#b121e6"/><stop offset=".6677" stop-color="#a217d2"/><stop offset=".8963" stop-color="#8e08b5"/><stop offset=".9949" stop-color="#8400a6"/></linearGradient><linearGradient id="d" gradientUnits="userSpaceOnUse" x1="26.1484" x2="24.0654" xlink:href="#c" y1="44.4648" y2="40.8407"/><linearGradient id="e" gradientUnits="userSpaceOnUse" x1="37.3965" x2="40.1462" y1="44.4014" y2="41.0682"><stop offset="0" stop-color="#ff3b3b"/><stop offset=".2558" stop-color="#fb3737"/><stop offset=".5207" stop-color="#f02b2a"/><stop offset=".7889" stop-color="#dd1616"/><stop offset="1" stop-color="#c90100"/></linearGradient><linearGradient id="f" gradientUnits="userSpaceOnUse" x1="32" x2="38.1221" xlink:href="#c" y1="45.5488" y2="45.5488"/><linearGradient id="g"><stop offset="0" stop-color="#c90100"/><stop offset=".2111" stop-color="#dd1616"/><stop offset=".4793" stop-color="#f02b2a"/><stop offset=".7442" stop-color="#fb3737"/><stop offset="1" stop-color="#ff3b3b"/></linearGradient><linearGradient id="h" gradientUnits="userSpaceOnUse" x1="25.8774" x2="32" xlink:href="#g" y1="45.5488" y2="45.5488"/><radialGradient id="i" cx="31.9282" cy="40.3438" gradientTransform="matrix(1 0 0 .8809 0 4.8034)" gradientUnits="userSpaceOnUse" r="6.7105"><stop offset=".2242" stop-color="#302c3b"/><stop offset=".9333" stop-color="#302c3b" stop-opacity="0"/></radialGradient><linearGradient id="j" gradientTransform="matrix(1 0 0 -1 194 170)" gradientUnits="userSpaceOnUse" x1="-178.8735" x2="-164.25" y1="138.3545" y2="138.3545"><stop offset="0" stop-color="#ff3b3b"/><stop offset=".1675" stop-color="#fb3737"/><stop offset=".3409" stop-color="#f02b2a"/><stop offset=".5165" stop-color="#dd1616"/><stop offset=".6548" stop-color="#c90100"/></linearGradient><linearGradient id="k" gradientTransform="matrix(1 0 0 -1 194 170)" gradientUnits="userSpaceOnUse" x1="-158.0718" x2="-149.9284" y1="146.0967" y2="131.9921"><stop offset="0" stop-color="#00abf1"/><stop offset=".1078" stop-color="#00a0ec"/><stop offset=".2942" stop-color="#0084df"/><stop offset=".4791" stop-color="#0062d0"/></linearGradient><linearGradient id="l" gradientTransform="matrix(1 0 0 -1 194 170)" gradientUnits="userSpaceOnUse" x1="-165.1504" x2="-154.4278" y1="154.4395" y2="135.8675"><stop offset=".0137" stop-color="#ffc300"/><stop offset=".2178" stop-color="#f90"/><stop offset=".4105" stop-color="#ff8900"/><stop offset=".6889" stop-color="#ff6a00"/></linearGradient><linearGradient id="m" gradientTransform="matrix(1 0 0 -1 194 170)" gradientUnits="userSpaceOnUse" x1="-148.1133" x2="-143" y1="141.4658" y2="141.4658"><stop offset="0" stop-color="#00abf1"/><stop offset=".3572" stop-color="#0084df"/><stop offset=".6434" stop-color="#006bd4"/><stop offset=".8181" stop-color="#0062d0"/></linearGradient><linearGradient id="n" gradientTransform="matrix(1 0 0 -1 194 170)" gradientUnits="userSpaceOnUse" x1="-151.9351" x2="-148.3304" y1="155.4531" y2="151.8485"><stop offset=".0137" stop-color="#ffc300"/><stop offset=".3058" stop-color="#f90"/><stop offset=".4625" stop-color="#ff8900"/><stop offset=".6889" stop-color="#ff6a00"/></linearGradient><linearGradient id="o" gradientTransform="matrix(1 0 0 -1 194 170)" gradientUnits="userSpaceOnUse" x1="-179.7148" x2="-177.1692" y1="145.584" y2="141.1748"><stop offset="0" stop-color="#ff3b3b"/><stop offset=".1502" stop-color="#f53030"/><stop offset=".7027" stop-color="#d50e0d"/><stop offset="1" stop-color="#c90100"/></linearGradient><linearGradient id="p" gradientTransform="matrix(1 0 0 -1 194 170)" gradientUnits="userSpaceOnUse" x1="-176.541" x2="-175.5459" xlink:href="#g" y1="124.7734" y2="123.0499"/><linearGradient id="q" gradientTransform="matrix(1 0 0 -1 194 170)" gradientUnits="userSpaceOnUse" x1="-168.3384" x2="-167.3433" xlink:href="#c" y1="118.5352" y2="116.8116"/><linearGradient id="r" gradientTransform="matrix(1 0 0 -1 194 170)" gradientUnits="userSpaceOnUse" x1="-156.6816" x2="-155.6866" xlink:href="#g" y1="118.5352" y2="116.8118"/><linearGradient id="s" gradientTransform="matrix(1 0 0 -1 194 170)" gradientUnits="userSpaceOnUse" x1="-148.4536" x2="-147.4585" xlink:href="#c" y1="124.7734" y2="123.0499"/><path d="m54 59c0 1.649-1.351 3-3 3h-38c-1.65 0-3-1.351-3-3v-54c0-1.65 1.35-3 3-3h38c1.649 0 3 1.35 3 3z" fill="url(#a)"/><path d="m51 2.5c1.378 0 2.5 1.122 2.5 2.5v54c0 1.378-1.122 2.5-2.5 2.5h-38c-1.378 0-2.5-1.122-2.5-2.5v-54c0-1.378 1.122-2.5 2.5-2.5zm0-.5h-38c-1.65 0-3 1.35-3 3v54c0 1.649 1.35 3 3 3h38c1.649 0 3-1.351 3-3v-54c0-1.65-1.351-3-3-3z" fill="url(#b)"/><path d="m17.957 46.088 8.601-1.693 5.442-5.624s-6.041-1.483-14.043 7.317z" fill="url(#d)"/><path d="m46.045 46.088-8.601-1.693-5.442-5.623c0-.001 6.04-1.484 14.043 7.316z" fill="url(#e)"/><path d="m32 47.426 5.818 4.9c1.912-12.547-5.818-13.555-5.818-13.555z" fill="url(#f)"/><path d="m32 47.426-5.818 4.9c-1.912-12.547 5.818-13.555 5.818-13.555z" fill="url(#h)"/><path d="m38.661 40.2s0 7.226-6.661 7.226c-6.123 0-6.93-7.102-6.93-7.102z" fill="url(#i)"/><path d="m29.75 25.275c-6.301-9.131-16.893-4.561-14.191 2.024 2.719-3.24 8.278.499 7.98 2.806-1.281 9.911 3 12.313 5.709 13.04 0 0 .127-8.771-1.735-13.996z" fill="url(#j)"/><path d="m34.738 25.211 1.589 4.296c-2.239 4.978-1.573 13.636-1.573 13.636 2.707-.728 6.285-3.736 5.189-11.614-.479-3.457 6.25-5.662 8.44-1.907 3.771-6.029-5.897-12.337-13.645-4.411z" fill="url(#k)"/><path d="m43.867 16.458c-2.479-8.954-20.974-5.404-18.834 18.019l8.421-2.75 5.521 2.75c.344-7.193-1.658-6.686-1.658-12.136-.001-4.532 2.238-7.497 6.55-5.883z" fill="url(#l)"/><path d="m37.463 29.145c-2.709-2.709-5.459 1.466-5.459 1.466s-2.75-4.175-5.459-1.466c-.828.828-1.659 2.772-1.512 5.332.059 1.039.633 4.358 1.31 5.637.623 1.178 2.7 3.156 3.975 3.555.399.124 1.051.186 1.688.188.636-.002 1.287-.063 1.687-.188 1.275-.398 3.352-2.377 3.976-3.555.676-1.279 1.25-4.598 1.31-5.637.143-2.56-.688-4.504-1.516-5.332z" fill="#f2f5f7"/><path d="m33.521 37.828c0 .99-3.04.99-3.04 0 0-.226 3.04-.226 3.04 0z" fill="#99a8ae"/><path d="m37.25 34.877c-.654 1.713-3.32 1.462-3.809.262.372-1.928 3.45-2.091 3.809-.262z" fill="#fff"/><path d="m26.752 34.877c.655 1.713 3.321 1.462 3.808.262-.37-1.929-3.448-2.091-3.808-.262z" fill="#fff"/><path d="m37.773 32.824c-1.032-1.609-3.919-1.343-4.583-.136-.16.197-.006.502.129.356 1.037-1.324 3.454-1.258 4.395.057.129.154.219-.08.059-.277z" fill="#1a1626"/><path d="m26.231 32.823c1.032-1.608 3.917-1.343 4.583-.135.16.197.006.502-.13.355-1.04-1.324-3.454-1.257-4.395.058-.129.154-.218-.08-.058-.278z" fill="#1a1626"/><path d="m34.122 34.693c0 1.505 2.177 1.505 2.177 0-.001-1.397-2.177-1.397-2.177 0z" fill="#613f34"/><path d="m34.337 35.175c0 .863 1.747.863 1.747 0 0-.8-1.747-.8-1.747 0z" fill="#7d5037"/><path d="m34.758 34.717c0 .626.904.626.904 0 .001-.578-.904-.578-.904 0z" fill="#1a1626"/><path d="m34.45 34.534c0 .315.457.315.457 0-.001-.291-.457-.291-.457 0z" fill="#ab968c"/><path d="m27.705 34.693c0 1.505 2.176 1.505 2.176 0 0-1.397-2.176-1.397-2.176 0z" fill="#613f34"/><path d="m27.92 35.175c0 .863 1.747.863 1.747 0 0-.802-1.747-.802-1.747 0z" fill="#7d5037"/><path d="m28.341 34.717c0 .623.904.623.904 0 .001-.581-.904-.581-.904 0z" fill="#1a1626"/><path d="m28.033 34.534c0 .315.456.315.456 0 0-.292-.456-.292-.456 0z" fill="#ab968c"/><path d="m37.25 34.864c0-1.841-3.809-1.841-3.809.292.545-1.751 3.265-1.751 3.809-.292z" fill="#99a8ae"/><path d="m26.752 34.864c0-1.841 3.808-1.841 3.808.292-.543-1.751-3.263-1.751-3.808-.292z" fill="#99a8ae"/><ellipse cx="48.443" cy="28.534" fill="url(#m)" rx="2.557" ry="2.541"/><ellipse cx="43.867" cy="16.349" fill="url(#n)" rx="2.557" ry="2.541"/><ellipse cx="15.558" cy="26.621" fill="url(#o)" rx="2.558" ry="2.541"/><ellipse cx="17.957" cy="46.088" fill="url(#p)" rx="1" ry=".993"/><ellipse cx="26.16" cy="52.326" fill="url(#q)" rx="1" ry=".993"/><ellipse cx="37.816" cy="52.326" fill="url(#r)" rx="1" ry=".993"/><ellipse cx="46.045" cy="46.088" fill="url(#s)" rx="1" ry=".993"/><path d="m13.001 11.31c-.013-.206.096-.313.291-.313h1.161c.182 0 .285.107.317.299.083.729.531 1.012 1.225 1.012.787 0 1.247-.365 1.247-1.09v-5.918c0-.192.109-.3.304-.3h1.152c.194 0 .302.107.302.3v5.919c0 1.907-1.456 2.781-3.006 2.781-1.478 0-2.86-.789-2.993-2.69z" fill="#302c3b"/><path d="m50.999 52.69c.014.205-.096.313-.291.313h-1.16c-.183 0-.285-.107-.317-.3-.083-.729-.53-1.013-1.225-1.013-.786 0-1.247.365-1.247 1.091v5.919c0 .192-.109.3-.303.3h-1.152c-.196 0-.304-.107-.304-.3v-5.919c0-1.907 1.456-2.781 3.006-2.781 1.477 0 2.86.788 2.993 2.69z" fill="#302c3b"/><g fill="#e81c27"><path d="m27.122 38.688c0 .93 1.164.93 1.164 0 0-.868-1.164-.868-1.164 0z"/><path d="m32.005 39.618c-1.09-1.052-2.324.637-4.506-1.287.418 1.123 1.121 1.179 1.744 2.084.748 1.088 1.342 1.385 2.762 1.385 1.418 0 2.014-.297 2.762-1.385.623-.905 1.324-.961 1.744-2.084-2.182 1.924-3.416.235-4.506 1.287z"/><path d="m35.726 38.688c0 .93 1.162.93 1.162 0 0-.868-1.164-.868-1.162 0z"/></g><path d="m29.305 39.779c1.343 1.604 4.056 1.609 5.403 0-1.428.089-3.961.092-5.403 0z" fill="#1a1626"/><path d="m29.803 39.991c1.095 1.04 3.308 1.045 4.409 0-1.166.057-3.233.059-4.409 0z" fill="#fff"/></svg>