<svg enable-background="new 0 0 64 64" height="64" viewBox="0 0 64 64" width="64" xmlns="http://www.w3.org/2000/svg" xmlns:xlink="http://www.w3.org/1999/xlink"><linearGradient id="a" gradientUnits="userSpaceOnUse" x1="31.9995" x2="31.9995" y1="2" y2="62.0005"><stop offset="0" stop-color="#ff3b3b"/><stop offset=".2558" stop-color="#fb3737"/><stop offset=".5207" stop-color="#f02b2a"/><stop offset=".7889" stop-color="#dd1616"/><stop offset="1" stop-color="#c90100"/></linearGradient><path d="m62 54c0 4.399-3.6 8-8 8h-44c-4.4 0-8-3.601-8-8v-44c0-4.4 3.6-8 8-8h44c4.4 0 8 3.6 8 8z" fill="url(#a)"/><path d="m44.697 37.465c0 5.399-4.029 9.535-9.473 9.535h-14.206-.696c-.653 0-1.019-.364-1.019-1.017v-27.966c0-.653.365-1.017 1.019-1.017h4.875 6.579c5.131 0 8.85 3.461 8.85 8.099 0 1.314-.402 2.582-1.086 3.662 3.132 1.632 5.157 4.824 5.157 8.704zm-19.501-14.937v5.08h8.632c.582-.583.904-1.39.904-2.187 0-1.682-1.137-2.892-2.958-2.892zm13.607 14.616c0-2.422-1.402-4.33-4.285-4.33h-9.322v8.657h9.279c2.914 0 4.328-1.917 4.328-4.327z" fill="#fff"/></svg>