<svg enable-background="new 0 0 64 64" height="64" viewBox="0 0 64 64" width="64" xmlns="http://www.w3.org/2000/svg" xmlns:xlink="http://www.w3.org/1999/xlink"><linearGradient id="a" gradientUnits="userSpaceOnUse" x1="31.9995" x2="31.9995" y1="2" y2="62.0005"><stop offset="0" stop-color="#ff3b3b"/><stop offset=".2558" stop-color="#fb3737"/><stop offset=".5207" stop-color="#f02b2a"/><stop offset=".7889" stop-color="#dd1616"/><stop offset="1" stop-color="#c90100"/></linearGradient><path d="m62 54c0 4.399-3.601 8-8 8h-44c-4.4 0-8-3.601-8-8v-44c0-4.4 3.6-8 8-8h44c4.399 0 8 3.6 8 8z" fill="url(#a)"/><g fill="#fff"><path d="m31.386 42.438c.186.549-.08.864-.637.864h-3.237c-.429 0-.735-.194-.864-.638l-1.089-3.415h-8.673l-1.088 3.415c-.129.443-.436.638-.864.638h-3.237c-.557 0-.823-.315-.638-.864l7.185-21.101c.129-.42.46-.638.888-.638h4.182c.428 0 .759.218.888.638zm-7.154-7.354-3.009-9.445-3.01 9.445z"/><path d="m53.001 36.117c0 4.068-3.035 7.184-7.137 7.184h-10.704-.524c-.493 0-.768-.273-.768-.766v-21.07c0-.492.274-.767.768-.767h3.673 4.956c3.867 0 6.668 2.608 6.668 6.103 0 .99-.303 1.944-.818 2.758 2.361 1.229 3.886 3.635 3.886 6.558zm-14.692-11.254v3.827h6.503c.438-.439.682-1.046.682-1.647 0-1.267-.855-2.179-2.229-2.179zm10.252 11.012c0-1.824-1.058-3.262-3.229-3.262h-7.022v6.522h6.99c2.195.001 3.261-1.444 3.261-3.26z"/></g></svg>