<svg enable-background="new 0 0 64 64" height="64" viewBox="0 0 64 64" width="64" xmlns="http://www.w3.org/2000/svg" xmlns:xlink="http://www.w3.org/1999/xlink"><linearGradient id="a" gradientUnits="userSpaceOnUse" x1="31.9995" x2="31.9995" y1="2" y2="62.0005"><stop offset="0" stop-color="#ff3b3b"/><stop offset=".2558" stop-color="#fb3737"/><stop offset=".5207" stop-color="#f02b2a"/><stop offset=".7889" stop-color="#dd1616"/><stop offset="1" stop-color="#c90100"/></linearGradient><path d="m62 54c0 4.399-3.601 8-8 8h-44c-4.4 0-8-3.601-8-8v-44c0-4.4 3.6-8 8-8h44c4.399 0 8 3.6 8 8z" fill="url(#a)"/><g fill="#fff"><path d="m11 32c0-7.267 5.429-12.918 12.962-12.918 5.553 0 10.298 3.421 11.825 8.413.151.578-.15.951-.729.951h-3.455c-.471 0-.756-.23-.961-.667-1.11-2.417-3.686-3.936-6.681-3.936-4.877 0-8.076 3.376-8.076 8.156 0 4.779 3.199 8.156 8.076 8.156 2.995 0 5.57-1.52 6.681-3.936.205-.436.49-.667.961-.667h3.455c.578 0 .888.346.737.88-1.475 5.002-6.247 8.484-11.834 8.484-7.533.002-12.961-5.649-12.961-12.916z"/><path d="m53 40.591v3.003c0 .543-.303.844-.844.844h-10.795-1.643c-.542 0-.844-.301-.844-.844v-23.189c0-.542.302-.843.844-.843h3.198c.542 0 .843.302.843.843v19.342h8.396c.542 0 .845.302.845.844z"/></g></svg>