<svg enable-background="new 0 0 64 64" height="64" viewBox="0 0 64 64" width="64" xmlns="http://www.w3.org/2000/svg" xmlns:xlink="http://www.w3.org/1999/xlink"><linearGradient id="a" gradientUnits="userSpaceOnUse" x1="31.9995" x2="31.9995" y1="2" y2="62.0005"><stop offset="0" stop-color="#00abf1"/><stop offset=".2292" stop-color="#00a7ef"/><stop offset=".4667" stop-color="#009ae9"/><stop offset=".708" stop-color="#0086e0"/><stop offset=".9504" stop-color="#0069d3"/><stop offset="1" stop-color="#0062d0"/></linearGradient><path d="m62 54c0 4.399-3.6 8-8 8h-44c-4.399 0-8-3.601-8-8v-44c0-4.4 3.601-8 8-8h44c4.4 0 8 3.6 8 8z" fill="url(#a)"/><g fill="#fff"><path d="m18.944 24.198h2.006c.34 0 .53.189.53.529v14.544c0 .342-.19.53-.53.53h-1.388c-.279 0-.507-.106-.651-.339l-5.846-9.302v9.11c0 .342-.189.53-.529.53h-2.006c-.34 0-.529-.188-.529-.53v-14.542c0-.34.189-.529.529-.529h1.388c.278 0 .507.105.651.34l5.846 9.301v-9.111c0-.342.189-.531.529-.531z"/><path d="m33.625 37.389v1.883c0 .342-.189.53-.529.53h-7.718-.474c-.34 0-.53-.188-.53-.53v-14.544c0-.34.189-.529.53-.529h2.535 5.545c.34 0 .529.189.529.529v1.883c0 .341-.189.53-.529.53h-5.545v3.337h4.988c.339 0 .529.189.529.53v1.816c0 .34-.19.53-.529.53h-4.988v3.505h5.656c.341 0 .53.19.53.53z"/><path d="m53.969 24.794-4.141 14.561c-.084.313-.295.446-.591.446h-2.464c-.295 0-.506-.134-.59-.446l-1.902-6.688-1.909 6.688c-.083.313-.296.446-.591.446h-2.463c-.296 0-.508-.134-.592-.446l-4.14-14.561c-.106-.379.067-.596.445-.596h2.107c.312 0 .507.167.573.463l3.004 11.234 2.224-7.946-.897-3.155c-.105-.379.066-.596.446-.596h1.771c.313 0 .508.167.574.463l3.004 11.234 3.003-11.234c.067-.296.263-.463.574-.463h2.107c.381 0 .553.217.448.596z"/></g></svg>