<svg enable-background="new 0 0 64 64" height="64" viewBox="0 0 64 64" width="64" xmlns="http://www.w3.org/2000/svg" xmlns:xlink="http://www.w3.org/1999/xlink"><linearGradient id="a" gradientUnits="userSpaceOnUse" x1="31.9995" x2="31.9995" y1="2" y2="62.0005"><stop offset="0" stop-color="#00abf1"/><stop offset=".2292" stop-color="#00a7ef"/><stop offset=".4667" stop-color="#009ae9"/><stop offset=".708" stop-color="#0086e0"/><stop offset=".9504" stop-color="#0069d3"/><stop offset="1" stop-color="#0062d0"/></linearGradient><path d="m62 54c0 4.399-3.6 8-8 8h-44c-4.399 0-8-3.601-8-8v-44c0-4.4 3.601-8 8-8h44c4.4 0 8 3.6 8 8z" fill="url(#a)"/><g fill="#fff"><path d="m18.754 25.034v1.804c0 .326-.182.507-.507.507h-5.312v3.806h5.151c.326 0 .507.182.507.507v1.805c0 .325-.182.506-.507.506h-5.151v4.997c0 .326-.182.508-.507.508h-1.922c-.325 0-.507-.182-.507-.508v-13.932c0-.326.182-.508.507-.508h2.429 5.312c.325 0 .507.182.507.508z"/><path d="m32.375 39.473h-2.264c-.262 0-.465-.08-.63-.299l-3.981-4.879h-1.827v4.671c0 .325-.182.507-.507.507h-1.922c-.326 0-.507-.182-.507-.507v-13.933c0-.325.181-.507.507-.507h2.429 2.722c2.75 0 4.964 2.215 4.964 4.964 0 1.851-1.136 3.514-2.79 4.31l4.104 5.043c.267.325.13.63-.298.63zm-8.701-7.772h2.722c1.116 0 2.028-.971 2.028-2.21 0-1.243-.912-2.21-2.028-2.21h-2.722z"/><path d="m43.049 37.162v1.804c0 .326-.182.508-.508.508h-7.393-.453c-.326 0-.508-.182-.508-.508v-13.932c0-.326.182-.508.508-.508h2.428 5.311c.326 0 .508.182.508.508v1.804c0 .326-.182.507-.508.507h-5.311v3.197h4.777c.326 0 .508.182.508.507v1.74c0 .325-.182.507-.508.507h-4.777v3.357h5.418c.326.001.508.183.508.509z"/><path d="m54 37.162v1.804c0 .326-.182.508-.508.508h-7.392-.454c-.325 0-.507-.182-.507-.508v-13.932c0-.326.182-.508.507-.508h2.429 5.312c.325 0 .507.182.507.508v1.804c0 .326-.182.507-.507.507h-5.312v3.197h4.777c.326 0 .508.182.508.507v1.74c0 .325-.182.507-.508.507h-4.777v3.357h5.418c.325.001.507.183.507.509z"/></g></svg>