<svg enable-background="new 0 0 64 64" height="64" viewBox="0 0 64 64" width="64" xmlns="http://www.w3.org/2000/svg" xmlns:xlink="http://www.w3.org/1999/xlink"><linearGradient id="a" gradientUnits="userSpaceOnUse" x1="31.9995" x2="31.9995" y1="2" y2="62.0005"><stop offset="0" stop-color="#00abf1"/><stop offset=".2292" stop-color="#00a7ef"/><stop offset=".4667" stop-color="#009ae9"/><stop offset=".708" stop-color="#0086e0"/><stop offset=".9504" stop-color="#0069d3"/><stop offset="1" stop-color="#0062d0"/></linearGradient><path d="m62 54c0 4.399-3.6 8-8 8h-44c-4.399 0-8-3.601-8-8v-44c0-4.4 3.601-8 8-8h44c4.4 0 8 3.6 8 8z" fill="url(#a)"/><g fill="#fff"><path d="m23.814 20.822h2.874c.487 0 .758.271.758.758v20.838c0 .488-.271.76-.758.76h-1.987c-.399 0-.727-.152-.935-.487l-8.375-13.325v13.052c0 .488-.272.76-.759.76h-2.875c-.487 0-.758-.271-.758-.76v-20.838c0-.486.271-.758.758-.758h1.988c.399 0 .727.152.934.487l8.375 13.325v-13.054c.002-.486.273-.758.76-.758z"/><path d="m53 31.943v3.123 7.352c0 .488-.271.76-.759.76h-2.635c-.486 0-.758-.271-.758-.76v-2.08c-1.572 2.164-4.08 3.271-7.162 3.271-6.348 0-11.129-5.078-11.129-11.609s4.877-11.609 11.607-11.609c4.967 0 9.206 3.026 10.58 7.082.184.519-.088.854-.632.854h-3.105c-.423 0-.679-.183-.886-.55-1.021-1.789-3.313-3.106-5.957-3.106-4.343 0-7.217 3.035-7.217 7.33 0 4.535 3.018 7.568 7.217 7.568 2.934 0 5.74-1.352 6.449-4.502h-5.473c-.487 0-.758-.271-.758-.76v-2.363c0-.487.271-.758.758-.758h9.102c.487 0 .758.271.758.757z"/></g></svg>