<svg enable-background="new 0 0 64 64" height="64" viewBox="0 0 64 64" width="64" xmlns="http://www.w3.org/2000/svg" xmlns:xlink="http://www.w3.org/1999/xlink"><linearGradient id="a" gradientUnits="userSpaceOnUse" x1="32.0003" x2="32.0003" y1="62" y2="2"><stop offset="0" stop-color="#1a1a1a"/><stop offset=".102" stop-color="#393939" stop-opacity=".949"/><stop offset=".3475" stop-color="#7f7f7f" stop-opacity=".8262"/><stop offset=".5688" stop-color="#b6b6b6" stop-opacity=".7156"/><stop offset=".7582" stop-color="#dedede" stop-opacity=".6209"/><stop offset=".9081" stop-color="#f6f6f6" stop-opacity=".5459"/><stop offset="1" stop-color="#fff" stop-opacity=".5"/></linearGradient><circle cx="32" cy="32" fill="#006dae" r="30"/><path d="m17.62 30.69-.34-1.35h-.3l-.45.5-.1-1.35-.67-.51-.34.17-.07.27-.65-.29-.47-.66 1.19-1.01-2.03-1.52-1.02-3.73 7.45 5.25 4.56-1.18-.16-.68.84-.17.44-1.51-.1-.52.3-.4.18-.97-.14-.45.63-.62-.12-1.45 1.52-.68 1.35-1.35-.17-.68 1 .49.75-.52.28-.81.38.64 4.34.19.89.85 3.46.69.75.68.5-.18.55 1.7.29-.05.39-.46 3.16 1.09.24.44.79-.18.84.84.95 4.91-.78 2.71 3.39 1.01.18 2.28-.7 1.73 1.03.73-.51 2.88-1.69 1.35.33 2.03-1.01.68-.51-.17v1.86h-.84l.33.68-1.69.67.47 1.08-1.15 1.12.34.34-.67-.17-3.21 1.9.16-.54-.95.18-.21-.48-.77.65-.34-.18-.5.67-3.62-.49-.45-.29-.6.28-1.37-.99.65-.6.85-1.85.04-1.13-.68-1.53-.84.75-4.67-1.21-.97.15-.87.5-2.3-.19v.34l-4.73-1.69v-1.01h-.85l-.17-2.88-.67.17-.85-2.03.17.51-1.69-1.87h1.01l-.32-2.01.83-1.32z" fill="#f5f5f5"/><circle cx="32" cy="32" fill="url(#a)" opacity=".1" r="30"/></svg>