<svg enable-background="new 0 0 64 64" height="64" viewBox="0 0 64 64" width="64" xmlns="http://www.w3.org/2000/svg" xmlns:xlink="http://www.w3.org/1999/xlink"><linearGradient id="a" gradientUnits="userSpaceOnUse" x1="32" x2="32" y1="62" y2="2"><stop offset="0" stop-color="#1a1a1a"/><stop offset=".102" stop-color="#393939" stop-opacity=".949"/><stop offset=".3475" stop-color="#7f7f7f" stop-opacity=".8262"/><stop offset=".5688" stop-color="#b6b6b6" stop-opacity=".7156"/><stop offset=".7582" stop-color="#dedede" stop-opacity=".6209"/><stop offset=".9081" stop-color="#f6f6f6" stop-opacity=".5459"/><stop offset="1" stop-color="#fff" stop-opacity=".5"/></linearGradient><path d="m32 62c9.81 0 18.53-4.71 24-12h-48c5.47 7.29 14.19 12 24 12z" fill="#014d87"/><path d="m32 2c-16.57 0-30 13.43-30 30h60c0-16.57-13.43-30-30-30z" fill="#014d87"/><path d="m61.4 38c.39-1.94.6-3.94.6-6h-60c0 2.06.21 4.06.6 6z" fill="#f5f5f5"/><path d="m4.5 44h55c.83-1.91 1.48-3.91 1.9-6h-58.8c.43 2.09 1.07 4.09 1.9 6z" fill="#e81c27"/><path d="m4.5 44c.94 2.14 2.11 4.15 3.5 6h48c1.39-1.85 2.56-3.86 3.5-6z" fill="#f5f5f5"/><g fill="#ffe12c"><path d="m25 26.06 1.24.94-.47-1.53 1.23-.94-1.53-.01-.47-1.52-.47 1.52-1.53.01 1.23.94-.47 1.53z"/><path d="m25 56.06 1.24.94-.47-1.53 1.23-.94-1.53-.01-.47-1.52-.47 1.52-1.53.01 1.23.94-.47 1.53z"/><path d="m36 36.06 1.24.94-.47-1.53 1.23-.94-1.53-.01-.47-1.52-.47 1.52-1.53.01 1.23.94-.47 1.53z"/><path d="m18 29.06 1.24.94-.47-1.53 1.23-.94-1.53-.01-.47-1.52-.47 1.52-1.53.01 1.23.94-.47 1.53z"/><path d="m32 29.06 1.24.94-.47-1.53 1.23-.94-1.53-.01-.47-1.52-.47 1.52-1.53.01 1.23.94-.47 1.53z"/><path d="m13 36.06 1.24.94-.47-1.53 1.23-.94-1.53-.01-.47-1.52-.47 1.52-1.53.01 1.23.94-.47 1.53z"/><path d="m36 48.06 1.24.94-.47-1.53 1.23-.94-1.53-.01-.47-1.52-.47 1.52-1.53.01 1.23.94-.47 1.53z"/><path d="m13 48.06 1.24.94-.47-1.53 1.23-.94-1.53-.01-.47-1.52-.47 1.52-1.53.01 1.23.94-.47 1.53z"/><path d="m31 54.06 1.24.94-.47-1.53 1.23-.94-1.53-.01-.47-1.52-.47 1.52-1.53.01 1.23.94-.47 1.53z"/><path d="m18 54.06 1.24.94-.47-1.53 1.23-.94-1.53-.01-.47-1.52-.47 1.52-1.53.01 1.23.94-.47 1.53z"/></g><circle cx="32" cy="32" fill="url(#a)" opacity=".1" r="30"/></svg>