<svg enable-background="new 0 0 64 64" height="64" viewBox="0 0 64 64" width="64" xmlns="http://www.w3.org/2000/svg" xmlns:xlink="http://www.w3.org/1999/xlink"><linearGradient id="a" gradientUnits="userSpaceOnUse" x1="32" x2="32" y1="62" y2="2"><stop offset="0" stop-color="#1a1a1a"/><stop offset=".102" stop-color="#393939" stop-opacity=".949"/><stop offset=".3475" stop-color="#7f7f7f" stop-opacity=".8262"/><stop offset=".5688" stop-color="#b6b6b6" stop-opacity=".7156"/><stop offset=".7582" stop-color="#dedede" stop-opacity=".6209"/><stop offset=".9081" stop-color="#f6f6f6" stop-opacity=".5459"/><stop offset="1" stop-color="#fff" stop-opacity=".5"/></linearGradient><path d="m10.79 26h50.61c-.9-4.43-2.78-8.51-5.4-12h-45.21z" fill="#f5f5f5"/><path d="m10.79 38v12h45.21c2.62-3.49 4.5-7.57 5.4-12z" fill="#f5f5f5"/><g fill="#014d87"><path d="m61.4 26h-50.61v12h50.61c.39-1.94.6-3.95.6-6s-.21-4.06-.6-6z"/><path d="m10.79 14h45.21c-5.47-7.29-14.19-12-24-12-8.29 0-15.78 3.37-21.21 8.8z"/><path d="m10.79 50v3.19c5.43 5.44 12.92 8.81 21.21 8.81 9.81 0 18.53-4.71 24-12z"/></g><path d="m10.79 10.79c-5.43 5.42-8.79 12.92-8.79 21.21 0 8.28 3.36 15.78 8.79 21.21l21.21-21.21z" fill="#e81c27"/><path d="m9.98 38 4.02-2.81 4.02 2.81-1.52-4.58 4-2.92h-4.96l-1.54-4.5-1.5 4.5h-5l4 2.92z" fill="#f5f5f5"/><circle cx="32" cy="32" fill="url(#a)" opacity=".1" r="30"/></svg>