<svg enable-background="new 0 0 64 64" height="64" viewBox="0 0 64 64" width="64" xmlns="http://www.w3.org/2000/svg" xmlns:xlink="http://www.w3.org/1999/xlink"><linearGradient id="a" gradientUnits="userSpaceOnUse" x1="32.0005" x2="32.0005" y1="62" y2="2"><stop offset="0" stop-color="#1a1a1a"/><stop offset=".102" stop-color="#393939" stop-opacity=".949"/><stop offset=".3475" stop-color="#7f7f7f" stop-opacity=".8262"/><stop offset=".5688" stop-color="#b6b6b6" stop-opacity=".7156"/><stop offset=".7582" stop-color="#dedede" stop-opacity=".6209"/><stop offset=".9081" stop-color="#f6f6f6" stop-opacity=".5459"/><stop offset="1" stop-color="#fff" stop-opacity=".5"/></linearGradient><path d="m6.63 16c-2.93 4.63-4.63 10.12-4.63 16h60c0-5.88-1.7-11.37-4.63-16z" fill="#f5f5f5"/><path d="m57.37 48c2.93-4.63 4.63-10.12 4.63-16h-60c0 5.88 1.7 11.37 4.63 16z" fill="#529320"/><path d="m6.63 48c3.94 6.23 10.1 10.9 17.37 12.91h16c7.27-2.01 13.44-6.68 17.37-12.91z" fill="#ffe12c"/><path d="m40 3.09h-16c-7.27 2.01-13.44 6.68-17.37 12.91h50.74c-3.93-6.23-10.1-10.9-17.37-12.91z" fill="#014d87"/><path d="m40 3.09c-2.55-.71-5.23-1.09-8-1.09s-5.45.38-8 1.09v57.82c2.55.7 5.23 1.09 8 1.09s5.45-.38 8-1.09z" fill="#e81c27"/><path d="m18 11.59 1.85 1.41-.7-2.29 1.85-1.42h-2.29l-.71-2.29-.72 2.29h-2.28l1.85 1.42-.71 2.29z" fill="#ffe12c"/><circle cx="32" cy="32" fill="url(#a)" opacity=".1" r="30"/></svg>