<svg enable-background="new 0 0 64 64" height="64" viewBox="0 0 64 64" width="64" xmlns="http://www.w3.org/2000/svg" xmlns:xlink="http://www.w3.org/1999/xlink"><linearGradient id="a" gradientUnits="userSpaceOnUse" x1="32" x2="32" y1="62" y2="2"><stop offset="0" stop-color="#1a1a1a"/><stop offset=".102" stop-color="#393939" stop-opacity=".949"/><stop offset=".3475" stop-color="#7f7f7f" stop-opacity=".8262"/><stop offset=".5688" stop-color="#b6b6b6" stop-opacity=".7156"/><stop offset=".7582" stop-color="#dedede" stop-opacity=".6209"/><stop offset=".9081" stop-color="#f6f6f6" stop-opacity=".5459"/><stop offset="1" stop-color="#fff" stop-opacity=".5"/></linearGradient><path d="m62 32h-60c0 5.47 1.47 10.59 4.02 15h51.95c2.56-4.41 4.03-9.53 4.03-15z" fill="#014d87"/><path d="m32 2c-16.57 0-30 13.43-30 30h60c0-16.57-13.43-30-30-30z" fill="#ffe12c"/><path d="m32 62c11.1 0 20.79-6.04 25.98-15h-51.96c5.19 8.96 14.88 15 25.98 15z" fill="#e81c27"/><path d="m37.31 17c-1.6 0-3.41 2.67-5.12 2.67s-3.52-2.67-5.12-2.67c-1.59 0-7.67 2.67-7.67 2.67 4.26 0 6.64 2.78 10.24 2.78-1.85 4.84.36 3.57.36 3.57s6.46-6.35 14.99-6.35c-.01 0-6.08-2.67-7.68-2.67z" fill="#594640"/><g fill="#bcbcbc"><path d="m20.05 25.74-.95-.97-2.1-.49 1.07 1.82 1.18.54c-.59.59-1.32 1.11-2.03 1.11.38.84 1.57 1.48 2.54.98-.08-.48.2-1.13.56-1.72l21.69 15.8.69.81 1.25.29-.63-1.08-.99-.42-21.74-15.83c.38-.57.76-1 .76-1l-.79-.57s-.19.31-.51.73z"/><path d="m22.08 22.32-.86-.83-1.79-.52 1.02 1.52 1.02.51c-.46.43-1.03.8-1.63.75.37.7 1.42 1.28 2.19.94-.1-.39.1-.89.35-1.34l20.03 14.59.63.69 1.06.31-.61-.9-.86-.4-20.05-14.61c.29-.43.57-.75.57-.75l-.7-.51c.01.01-.14.24-.37.55z"/><path d="m43.95 25.74.95-.97 2.1-.48-1.07 1.82-1.18.54c.59.59 1.32 1.11 2.03 1.11-.38.84-1.57 1.48-2.54.98.08-.48-.21-1.13-.56-1.72l-21.69 15.8-.69.81-1.25.29.63-1.08.99-.42 21.73-15.82c-.39-.57-.76-1-.76-1l.79-.57c.01-.02.2.29.52.71z"/><path d="m41.92 22.32.86-.83 1.79-.52-1.02 1.52-1.02.51c.46.43 1.03.8 1.63.75-.37.7-1.42 1.28-2.19.94.1-.39-.1-.89-.35-1.34l-20.03 14.6-.63.69-1.06.31.6-.9.86-.4 20.06-14.61c-.28-.43-.56-.75-.56-.75l.7-.51c-.02 0 .13.23.36.54z"/></g><path d="m23.65 23.59v9.69c0 5.12 8.91 7.48 11-2.02z" fill="#f59e01"/><path d="m25.58 24.94s-.02 3.69-.02 6.55c0 4.52 7.35 7.44 9.08-.23z" fill="#014d87"/><path d="m27.56 26.32v4.89c0 3.25 7.08 6.69 7.08.05z" fill="#ed1c24"/><path d="m23.54 22.82h.65v2.9h-.65z" fill="#e81c27"/><path d="m23.08 22.62h.65v2.9h-.65z" fill="#014d87"/><path d="m25.69 31.34c-1.56-.49-1.13-4.9 3.03-6.56.15-.06 1.3 7.92-3.03 6.56z" fill="#529320"/><path d="m22.14 27.45v9.69c0 5.12 8.91 7.48 11-2.02z" fill="#f59e01"/><path d="m24.07 28.8s-.02 3.69-.02 6.55c0 4.53 7.35 7.44 9.08-.23z" fill="#014d87"/><path d="m26.05 30.19v4.89c0 3.25 7.08 6.69 7.08.05z" fill="#ed1c24"/><path d="m22.03 26.69h.65v2.9h-.65z" fill="#e81c27"/><path d="m21.57 26.49h.65v2.9h-.65z" fill="#014d87"/><path d="m40.35 23.59v9.69c0 5.12-8.91 7.48-11-2.02z" fill="#f59e01"/><path d="m38.41 24.94s.02 3.69.02 6.55c0 4.52-7.35 7.44-9.08-.23z" fill="#014d87"/><path d="m36.44 26.32v4.89c0 3.25-7.08 6.69-7.08.05z" fill="#ed1c24"/><path d="m39.81 22.82h.65v2.9h-.65z" fill="#e81c27"/><path d="m40.26 22.62h.65v2.9h-.65z" fill="#014d87"/><path d="m38.31 31.34c1.56-.49 1.13-4.9-3.03-6.56-.15-.06-1.3 7.92 3.03 6.56z" fill="#529320"/><path d="m41.86 27.45v9.69c0 5.12-8.91 7.48-11-2.02z" fill="#f59e01"/><path d="m39.92 28.8s.02 3.69.02 6.55c0 4.53-7.35 7.44-9.08-.23z" fill="#014d87"/><path d="m37.94 30.19v4.89c0 3.25-7.08 6.69-7.08.05z" fill="#e81c27"/><path d="m41.31 26.69h.65v2.9h-.65z" fill="#e81c27"/><path d="m41.77 26.49h.65v2.9h-.65z" fill="#014d87"/><path d="m36.12 43.64h-8.24l2.4-6.4h3.44z" fill="#f59e01"/><path d="m34.35 45.09h-4.7l1.37-7.85h1.96z" fill="#014d87"/><path d="m33.37 47h-2.74l.8-9.76h1.14z" fill="#e81c27"/><path d="m32 24.89c-7.06 0-7.06 14.94 0 14.94s7.06-14.94 0-14.94z" fill="#0fb4d4"/><path d="m26.65 32.68c0 3.98 2.39 7.21 5.34 7.21s5.34-3.23 5.34-7.21z" fill="#529320"/><path d="m26.98 32.76 10.04.15v-1.28l-10.15-.91z" fill="#594640"/><path d="m29.72 29c-.3-.01-2.85 1.82-2.85 1.82 1.43 1.14 3.7.36 3.7.36 1.33.13 1.94 1.18 5.18.34-2-1.06-4.34-.8-6.03-2.52z" fill="#f5f5f5"/><path d="m28.48 32.55c.03.04 1.72 2.27 1.72 2.27l-2.6 1.5c1.33 4.53 7.5 4.63 8.85.01 0 0-3.73-.74-3.84-.83-.12-.09-3.65-2.86-3.75-2.93s.77-1.14.77-1.14z" fill="#018bc9"/><path d="m32 24.51c-7.42 0-7.42 15.7 0 15.7s7.42-15.7 0-15.7zm0 14.94c-6.44 0-6.44-14.18 0-14.18 6.44.01 6.44 14.18 0 14.18z" fill="#bcbcbc"/><path d="m33.16 36.98v-.75h-1.52v.75h-1.64v.83h4.4v-.83z" fill="#ffe12c"/><path d="m34.02 27.67c0 2.1-3 2.1-3 0s3-2.1 3 0z" fill="#ffe12c"/><path d="m26.77 40.76-.63.15-.93-.56.91-.57.6.17c-.06-.55-.18-1.12-.45-1.39.38-.31 1.01-.19 1.23.46-.16.23-.24.7-.27 1.15l10.04-.02.49-.17.55.33-.54.34-.49-.16-10.06.02c-.02.46 0 .84 0 .84h-.45c-.01.01.01-.24 0-.59z" fill="#bcbcbc"/><path d="m28.42 39.3h7.15v2.12h-7.15z" fill="#f59e01"/><path d="m33.44 20.52c0 2.1-3 2.1-3 0s3-2.1 3 0z" fill="#bcbcbc"/><path d="m32.3 20.45c0 .98-3.7.95-3.7-.04 0-1.17 3.7-1.13 3.7.04z" fill="#f59e01"/><path d="m32.98 25.32c-.3.06-.77-2.26-.47-2.32.36-.07.83 2.25.47 2.32z" fill="#f59e01"/><path d="m30.45 25.27c-.29-.09.49-2.34.78-2.24.35.11-.43 2.35-.78 2.24z" fill="#f59e01"/><path d="m30.19 19.55c-1.05.04-1.31 1.05-1.78.34-.37-.55 1.44-1.15 1.78-.34z" fill="#e81c27"/><path d="m29.15 20.61c0 .56-.86.52-1.13.09.52-.55 1.13-.76 1.13-.09z" fill="#bcbcbc"/><circle cx="32" cy="32" fill="url(#a)" opacity=".1" r="30"/></svg>