<svg enable-background="new 0 0 64 64" height="64" viewBox="0 0 64 64" width="64" xmlns="http://www.w3.org/2000/svg" xmlns:xlink="http://www.w3.org/1999/xlink"><linearGradient id="a" gradientUnits="userSpaceOnUse" x1="32" x2="32" y1="62" y2="2"><stop offset="0" stop-color="#1a1a1a"/><stop offset=".102" stop-color="#393939" stop-opacity=".949"/><stop offset=".3475" stop-color="#7f7f7f" stop-opacity=".8262"/><stop offset=".5688" stop-color="#b6b6b6" stop-opacity=".7156"/><stop offset=".7582" stop-color="#dedede" stop-opacity=".6209"/><stop offset=".9081" stop-color="#f6f6f6" stop-opacity=".5459"/><stop offset="1" stop-color="#fff" stop-opacity=".5"/></linearGradient><path d="m32 62c13.06 0 24.17-8.35 28.29-20h-56.58c4.12 11.65 15.23 20 28.29 20z" fill="#e81c27"/><path d="m32 2c-13.06 0-24.17 8.35-28.29 20h56.57c-4.11-11.65-15.22-20-28.28-20z" fill="#529320"/><path d="m60.29 42c1.1-3.13 1.71-6.49 1.71-10s-.61-6.87-1.71-10h-56.58c-1.1 3.13-1.71 6.49-1.71 10s.61 6.87 1.71 10z" fill="#ffe12c"/><circle cx="32" cy="32" fill="#014d87" r="14"/><g fill="#ffe12c"><path d="m35.79 33.29 6.06-4.32-7.51-.02-2.34-6.95-2.34 6.95-7.51.02 6.06 4.32-2.3 6.97 6.09-4.28 6.09 4.28zm3.52-3.51-3.79 2.7-.9-2.72zm-10.12 3.21 1.07-3.22h3.47l1.07 3.22-2.8 1.98zm2.81-8.39 1.46 4.35h-2.93zm-7.31 5.18 4.7-.01-.91 2.72zm2.79 8.38 1.44-4.36 2.37 1.68zm9.04 0-3.81-2.68 2.37-1.68z"/><path d="m31.58 37.27v4.73h.84v-4.73l-.42-.29z"/><path d="m25.91 32.66-3.91 1.14.24.78 4.51-1.32z"/><path d="m29.05 28.14.28-.81-3.11-3.84-.65.5 3.35 4.15z"/><path d="m35.08 28.14 3.35-4.15-.65-.5-3.11 3.84.28.81z"/><path d="m38.09 32.66-.84.6 4.51 1.32.24-.78z"/></g><circle cx="32" cy="32" fill="url(#a)" opacity=".1" r="30"/></svg>