<svg enable-background="new 0 0 64 64" height="64" viewBox="0 0 64 64" width="64" xmlns="http://www.w3.org/2000/svg" xmlns:xlink="http://www.w3.org/1999/xlink"><linearGradient id="a" gradientUnits="userSpaceOnUse" x1="32" x2="32" y1="62" y2="2"><stop offset="0" stop-color="#1a1a1a"/><stop offset=".102" stop-color="#393939" stop-opacity=".949"/><stop offset=".3475" stop-color="#7f7f7f" stop-opacity=".8262"/><stop offset=".5688" stop-color="#b6b6b6" stop-opacity=".7156"/><stop offset=".7582" stop-color="#dedede" stop-opacity=".6209"/><stop offset=".9081" stop-color="#f6f6f6" stop-opacity=".5459"/><stop offset="1" stop-color="#fff" stop-opacity=".5"/></linearGradient><path d="m37.97 2.6h-11.94c-11.77 2.38-21.04 11.64-23.43 23.4v12c2.39 11.77 11.66 21.02 23.43 23.4h11.97c11.76-2.39 21.02-11.66 23.4-23.43v-11.97c-2.39-11.76-11.66-21.02-23.43-23.4z" fill="#f5f5f5"/><path d="m38 26v-23.4c-1.94-.39-3.95-.6-6-.6s-4.06.21-6 .6v23.4h-23.4c-.39 1.94-.6 3.94-.6 6s.21 4.06.6 6h23.4v23.4c1.94.39 3.95.6 6 .6s4.06-.21 6-.6v-23.4h23.4c.39-1.94.6-3.95.6-6s-.21-4.06-.6-6z" fill="#e81c27"/><path d="m52 29.5h-17.5v-17.5l2.5-2.5h-10l2.5 2.5v17.5h-17.5l-2.5-2.5v10l2.5-2.5h17.5v17.5l-2.5 2.5h10l-2.5-2.5v-17.5h17.5l2.5 2.5v-10z" fill="#ffe12c"/><circle cx="32" cy="32" fill="url(#a)" opacity=".1" r="30"/></svg>