<svg enable-background="new 0 0 64 64" height="64" viewBox="0 0 64 64" width="64" xmlns="http://www.w3.org/2000/svg" xmlns:xlink="http://www.w3.org/1999/xlink"><linearGradient id="a" gradientUnits="userSpaceOnUse" x1="32" x2="32" y1="62" y2="2"><stop offset="0" stop-color="#1a1a1a"/><stop offset=".102" stop-color="#393939" stop-opacity=".949"/><stop offset=".3475" stop-color="#7f7f7f" stop-opacity=".8262"/><stop offset=".5688" stop-color="#b6b6b6" stop-opacity=".7156"/><stop offset=".7582" stop-color="#dedede" stop-opacity=".6209"/><stop offset=".9081" stop-color="#f6f6f6" stop-opacity=".5459"/><stop offset="1" stop-color="#fff" stop-opacity=".5"/></linearGradient><path d="m60 42c-5.52 0-10-4.48-10-10h-39.21v21.21c5.42 5.43 12.92 8.79 21.21 8.79 13.07 0 24.18-8.36 28.29-20.02-.1.01-.19.02-.29.02z" fill="#e81c27"/><path d="m60 22c.1 0 .19.01.29.01-4.11-11.65-15.22-20.01-28.29-20.01-8.29 0-15.79 3.36-21.21 8.79v21.21h39.21c0-5.52 4.48-10 10-10z" fill="#529320"/><path d="m60.29 22h-49.5v20h49.5c1.1-3.13 1.71-6.49 1.71-10s-.61-6.87-1.71-10z" fill="#f5f5f5"/><path d="m10.79 10.79c-5.43 5.42-8.79 12.92-8.79 21.21 0 8.28 3.36 15.78 8.79 21.21l10.21-21.21z" fill="#006dae"/><g fill="#ffe12c"><path d="m33.65 24.1-.58.03-.29.52-.32-.5-.59.02.27-.53-.32-.5.61-.03.27-.52.32.5.58-.02-.27.53z"/><path d="m31.15 24.29-.58.14-.16.57-.43-.42-.56.14.16-.57-.4-.43.56-.14.16-.57.42.42.58-.14-.19.57z"/><path d="m28.74 24.79-.53.26-.03.59-.51-.32-.53.26.05-.59-.5-.33.53-.27.05-.59.48.32.53-.26-.03.59z"/><path d="m34.42 24.1.58.03.27.52.32-.5.58.02-.26-.53.32-.5-.58-.03-.29-.52-.32.5-.58-.02.27.53z"/><path d="m36.92 24.29.56.14.15.57.43-.42.56.14-.16-.57.42-.43-.58-.14-.16-.57-.43.42-.56-.14.16.57z"/><path d="m39.31 24.79.53.26.03.59.5-.32.53.26-.03-.59.48-.33-.53-.27-.03-.59-.5.32-.53-.26.05.59z"/></g><path d="m28.9 25.59h10.17v10.65c0 3.58-4.67.82-5.07 2.73-.69-1.96-5.07.88-5.07-2.95-.01-3.7-.03-10.43-.03-10.43z" fill="#302c3b"/><path d="m29.3 26.12h9.37v9.82c0 3.3-4.3.76-4.67 2.52-.64-1.81-4.68.81-4.68-2.72 0-3.43-.02-9.62-.02-9.62z" fill="#f5f5f5"/><path d="m35.35 29.98-.32-.27s-.31.13-.73.54c.02-.23.04-.46.06-.7h-.48l-.01.73c-.06-.07-.34-.45-.65-.54l-.05.42c.9.48.48 4.86-.5 6.85h2.44c-1.09-3.51-.95-6.42.24-7.03z" fill="#785647"/><path d="m35.46 27.75c.16-.19.16-.19.45-.19.05-.4.71-.4.77.11.53-.11.64.21.42.53.5-.13.96 0 .82.58.9.24.56.88.16 1.01-.05.4-.42.53-.93.37-.64.45-1.01.29-1.3-.16-.72.11-.77-.05-1.09-.45-.56.24-.66.24-1.14-.05-.03.37-.16.27-.4.24.03.48-.16.69-.59.53.32.66-.5.96-.9.4-.37.03-.4-.08-.58-.21-.16.53-.74.45-.85.16-.74-.11-.66-.5-.05-.53.05-.42.42-.34.66-.29.03-.27.19-.21.32-.16-.08-.19-.03-.29.21-.35-.35-.45-.13-.61.21-.77-.19-.42.13-.4.37-.42-.03-.45.11-.53.58-.59-.05-.16.03-.29.29-.29-.16-.45.05-.55.53-.48.08-.65 1.49-.34 1.38.56.42.05.55.13.66.45z" fill="#529320"/><path d="m41.38 33.53c-.19 1.19-1.51 1.7-1.36 2.47.19.2.6 1.11.6 1.11-.3.44-.52.74-1.55 1.17-1.35.53-3.27.19-3.27.19l.05 1.3-3.67-.03.05-1.27s-1.91.35-3.27-.19c-.88-.36-1.39-.87-1.7-1.31 0 0 .68-.98.69-.98.16-.77-1.19-1.28-1.38-2.47-.11 1.96-1.06 2.65.16 3.32-.08.32-.19.68-.34.93.48 2.44 4.88 2.49 4.88 2.49v.45c0 .9 5.47.9 5.47 0v-.45s4.41-.05 4.86-2.49c-.25-.4-.35-.93-.35-.93 1.24-.69.23-1.35.13-3.31z" fill="#bcbcbc"/><circle cx="32" cy="32" fill="url(#a)" opacity=".1" r="30"/></svg>