<svg enable-background="new 0 0 64 64" height="64" viewBox="0 0 64 64" width="64" xmlns="http://www.w3.org/2000/svg" xmlns:xlink="http://www.w3.org/1999/xlink"><linearGradient id="a" gradientUnits="userSpaceOnUse" x1="32" x2="32" y1="62" y2="2"><stop offset="0" stop-color="#1a1a1a"/><stop offset=".102" stop-color="#393939" stop-opacity=".949"/><stop offset=".3475" stop-color="#7f7f7f" stop-opacity=".8262"/><stop offset=".5688" stop-color="#b6b6b6" stop-opacity=".7156"/><stop offset=".7582" stop-color="#dedede" stop-opacity=".6209"/><stop offset=".9081" stop-color="#f6f6f6" stop-opacity=".5459"/><stop offset="1" stop-color="#fff" stop-opacity=".5"/></linearGradient><path d="m11.01 32v21.42c5.41 5.3 12.81 8.58 20.99 8.58 16.57 0 30-13.43 30-30z" fill="#0fb4d4"/><path d="m11.01 32h50.99c0-16.57-13.43-30-30-30-8.18 0-15.58 3.28-20.99 8.58z" fill="#529320"/><path d="m11.01 10.58c-5.56 5.44-9.01 13.03-9.01 21.42s3.45 15.98 9.01 21.42l50.99-21.42z" fill="#e81c27"/><g fill="#ffe12c"><path d="m16.98 23.41c1.24 0 2.25-1.16 2.25-2.6 0-1.43-1.01.81-2.25.81s-2.26-2.24-2.26-.81c.01 1.44 1.02 2.6 2.26 2.6z"/><path d="m26.96 35.51c.28-.73.48-1.49.6-2.29.84-.38 1.44-1.31 1.44-2.41 0-1.04-.54-.14-1.31.43-.02-.82-.13-1.62-.32-2.39.54-.68.7-1.71.31-2.66-.37-.91-.53-.03-.96.77-.33-.75-.75-1.45-1.24-2.1.18-.81-.07-1.74-.74-2.42-.65-.66-.51.1-.59.96-.59-.54-1.25-1.02-1.96-1.43-.17-.78-.74-1.5-1.58-1.85-1.29-.55.35 1.26-.13 2.44s-2.89 1.27-1.59 1.82c1.02.43 2.12.2 2.78-.49.5.32.96.7 1.38 1.11-1 .28-2.29-.11-1.5.71.75.77 1.82 1 2.67.67.32.47.6.98.83 1.51-.99-.18-1.95-.94-1.54.08.39.96 1.22 1.57 2.08 1.65.11.53.19 1.08.2 1.64-.78-.57-1.32-1.48-1.32-.44 0 .99.49 1.84 1.2 2.28-.09.52-.22 1.03-.4 1.52-.44-.8-.6-1.69-.97-.78-.35.86-.25 1.78.17 2.46-.26.42-.55.82-.87 1.2-.07-.85.05-1.59-.59-.93-.61.63-.88 1.46-.79 2.22-.38.29-.78.54-1.2.77.25-.76.57-1.32-.23-.98-.77.33-1.32.97-1.53 1.67-.73.2-1.49.32-2.28.32s-1.55-.12-2.28-.32c-.21-.71-.76-1.34-1.53-1.67-.8-.34-.48.22-.23.98-.42-.22-.82-.48-1.2-.77.09-.76-.17-1.59-.78-2.22-.64-.66-.52.08-.59.93-.32-.38-.61-.77-.87-1.2.42-.67.52-1.59.17-2.46-.37-.91-.53-.02-.97.78-.18-.49-.31-1-.4-1.52.71-.44 1.2-1.29 1.2-2.28 0-1.05-.54-.13-1.32.44.02-.56.09-1.11.2-1.64.87-.08 1.7-.69 2.09-1.65.42-1.03-.56-.25-1.56-.08.23-.54.52-1.03.85-1.51.85.33 1.92.1 2.67-.67.8-.82-.52-.42-1.52-.71.43-.41.9-.78 1.41-1.1.66.69 1.76.92 2.77.48 1.3-.55-1.12-.64-1.59-1.82-.48-1.18 1.16-2.99-.13-2.44-.84.36-1.41 1.07-1.58 1.85-.71.4-1.37.88-1.96 1.42-.08-.86.05-1.61-.59-.95-.67.68-.92 1.61-.74 2.42-.49.65-.9 1.35-1.24 2.1-.43-.8-.59-1.66-.96-.76-.39.95-.23 1.97.31 2.66-.19.77-.3 1.58-.32 2.4-.75-.59-1.29-1.5-1.29-.45 0 1.1.6 2.04 1.44 2.41.12.79.32 1.56.6 2.29-.99-.18-1.94-.94-1.52.08.43 1.07 1.41 1.71 2.38 1.66.4.67.87 1.29 1.4 1.86-1 .28-2.31-.11-1.51.71.83.85 2.04 1.04 2.92.55.61.45 1.26.84 1.95 1.16-.81.7-2.27.85-1.2 1.3 1.12.47 2.33.16 2.95-.69.13.03.25.07.38.1-.37.49-.61 1.1-.61 1.77h5.62c0-.67-.23-1.28-.61-1.77.13-.03.25-.07.38-.1.62.84 1.84 1.16 2.95.69 1.07-.45-.39-.6-1.2-1.3.69-.32 1.34-.71 1.95-1.16.89.49 2.09.3 2.92-.55.8-.81-.51-.42-1.51-.71.53-.56 1-1.19 1.4-1.86.97.05 1.95-.59 2.38-1.66.43-1.02-.52-.26-1.5-.08z"/><path d="m16 25.88v16c0 1.29 2 1.29 2 0 0-5.33 0-10.67 0-16 0-1.29-2-1.29-2 0z"/><path d="m21 34s-2.67-.07-3.43.69-.76 1.98 0 2.74 1.99.76 2.74 0c.76-.76.69-3.43.69-3.43z"/><path d="m13 32s2.67-.07 3.43.69.76 1.98 0 2.74-1.99.76-2.74 0c-.76-.76-.69-3.43-.69-3.43z"/><path d="m13 27s2.67-.07 3.43.69.76 1.98 0 2.74-1.99.76-2.74 0c-.76-.76-.69-3.43-.69-3.43z"/><path d="m21 29s-2.67-.07-3.43.69-.76 1.98 0 2.74 1.99.76 2.74 0c.76-.76.69-3.43.69-3.43z"/><path d="m19 26s-1.34-.04-1.71.34c-.38.38-.38.99 0 1.37s.99.38 1.37 0c.38-.37.34-1.71.34-1.71z"/></g><circle cx="32" cy="32" fill="url(#a)" opacity=".1" r="30"/></svg>