<svg enable-background="new 0 0 64 64" height="64" viewBox="0 0 64 64" width="64" xmlns="http://www.w3.org/2000/svg" xmlns:xlink="http://www.w3.org/1999/xlink"><linearGradient id="a" gradientUnits="userSpaceOnUse" x1="32" x2="32" y1="62" y2="2"><stop offset="0" stop-color="#1a1a1a"/><stop offset=".102" stop-color="#393939" stop-opacity=".949"/><stop offset=".3475" stop-color="#7f7f7f" stop-opacity=".8262"/><stop offset=".5688" stop-color="#b6b6b6" stop-opacity=".7156"/><stop offset=".7582" stop-color="#dedede" stop-opacity=".6209"/><stop offset=".9081" stop-color="#f6f6f6" stop-opacity=".5459"/><stop offset="1" stop-color="#fff" stop-opacity=".5"/></linearGradient><path d="m32 2c-5.32 0-10.31 1.39-14.64 3.82l-.15 52.28c4.37 2.48 9.41 3.9 14.79 3.9 14.93 0 27.3-10.9 29.61-25.18v-9.65c-2.31-14.27-14.68-25.17-29.61-25.17z" fill="#529320"/><path d="m60.06 29.58-42.7-21.54v.36h-3.85c-.35.27-.69.55-1.03.84v45.54c.34.29.68.56 1.03.84h3.7v.43l43.2-21.55c.06-.83 1.59-1.67 1.59-2.5s-1.87-1.61-1.94-2.42z" fill="#ffe12c"/><path d="m13.5 8.4 48.5 23.4c-.01-1.57-.14-3.12-.39-4.63l-44.25-21.35c-1.36.76-2.65 1.62-3.86 2.58z" fill="#f5f5f5"/><path d="m12.45 12.02h-2.82c-4.74 5.31-7.63 12.3-7.63 19.98s2.89 14.67 7.63 19.98h2.82l19.98-19.98z" fill="#e81c27"/><path d="m12.48 9.23c-1.01.87-1.97 1.8-2.86 2.8l19.98 19.97-19.98 19.98c.89 1 1.85 1.93 2.86 2.8l22.78-22.78z" fill="#302c3b"/><path d="m61.61 36.82c.24-1.51.38-3.05.39-4.63l-48.5 23.41c1.21.96 2.51 1.82 3.86 2.58z" fill="#f5f5f5"/><circle cx="32" cy="32" fill="url(#a)" opacity=".1" r="30"/></svg>