<svg enable-background="new 0 0 64 64" height="64" viewBox="0 0 64 64" width="64" xmlns="http://www.w3.org/2000/svg" xmlns:xlink="http://www.w3.org/1999/xlink"><linearGradient id="a" gradientUnits="userSpaceOnUse" x1="31.9993" x2="31.9993" y1="62" y2="2"><stop offset="0" stop-color="#1a1a1a"/><stop offset=".102" stop-color="#393939" stop-opacity=".949"/><stop offset=".3475" stop-color="#7f7f7f" stop-opacity=".8262"/><stop offset=".5688" stop-color="#b6b6b6" stop-opacity=".7156"/><stop offset=".7582" stop-color="#dedede" stop-opacity=".6209"/><stop offset=".9081" stop-color="#f6f6f6" stop-opacity=".5459"/><stop offset="1" stop-color="#fff" stop-opacity=".5"/></linearGradient><path d="m32 2v30h-30c0 16.57 13.43 30 30 30s30-13.43 30-30-13.43-30-30-30z" fill="#014d87"/><path d="m12 12h21v21h-21z" fill="#014d87"/><path d="m18.91 8.14v5.86h-7.31l14.4 18h6v-7.5z" fill="#f5f5f5"/><path d="m11 18.91h-5.99c-1.92 3.96-3.01 8.39-3.01 13.09h12v-18.09h-3z" fill="#f5f5f5"/><path d="m32 27.06-13-16.06h-6l17 21h2z" fill="#e81c27"/><path d="m18.91 5.01v5.99h-7.91v3h21v-12c-4.69 0-9.13 1.09-13.09 3.01z" fill="#f5f5f5"/><path d="m32 5h-13.09c-6.05 2.94-10.97 7.86-13.91 13.91v13.09h6v-21h21z" fill="#e81c27"/><path d="m34.54 33.86-.04.08z" fill="#d8a322"/><g fill="#f5f5f5"><path d="m15.3 35.64 1.1 4.37 4.11-1.86-2.73 3.59 4.02 2.05-4.51.11.9 4.42-2.89-3.46-2.9 3.46.9-4.42-4.51-.11 4.02-2.05-2.73-3.59 4.11 1.86z"/><path d="m48.2 18.69.47 1.86 1.75-.79-1.16 1.53 1.71.87-1.92.04.38 1.88-1.23-1.47-1.23 1.47.39-1.88-1.92-.04 1.71-.87-1.17-1.53 1.75.79z"/><path d="m56.52 26.33.47 1.86 1.75-.79-1.17 1.53 1.71.87-1.92.04.39 1.88-1.23-1.47-1.23 1.47.38-1.88-1.92-.04 1.71-.87-1.16-1.53 1.75.79z"/><path d="m38.85 28.83.47 1.86 1.74-.8-1.16 1.53 1.71.87-1.92.05.39 1.88-1.23-1.47-1.23 1.47.38-1.88-1.92-.05 1.71-.87-1.16-1.53 1.75.8z"/><path d="m48.2 43.64.47 1.86 1.75-.79-1.16 1.52 1.71.88-1.92.04.38 1.88-1.23-1.47-1.23 1.47.39-1.88-1.92-.04 1.71-.88-1.17-1.52 1.75.79z"/><path d="m51.94 33.99.35 1.08h1.14l-.92.67.35 1.07-.92-.66-.91.66.35-1.07-.92-.67h1.13z"/></g><circle cx="32" cy="32" fill="url(#a)" opacity=".1" r="30"/></svg>