<svg enable-background="new 0 0 64 64" height="64" viewBox="0 0 64 64" width="64" xmlns="http://www.w3.org/2000/svg" xmlns:xlink="http://www.w3.org/1999/xlink"><linearGradient id="a" gradientUnits="userSpaceOnUse" x1="32" x2="32" y1="62.0003" y2="2.0003"><stop offset="0" stop-color="#1a1a1a"/><stop offset=".102" stop-color="#393939" stop-opacity=".949"/><stop offset=".3475" stop-color="#7f7f7f" stop-opacity=".8262"/><stop offset=".5688" stop-color="#b6b6b6" stop-opacity=".7156"/><stop offset=".7582" stop-color="#dedede" stop-opacity=".6209"/><stop offset=".9081" stop-color="#f6f6f6" stop-opacity=".5459"/><stop offset="1" stop-color="#fff" stop-opacity=".5"/></linearGradient><path d="m10.79 53.21c11.71 11.71 30.71 11.71 42.43 0l-42.43-42.42c-11.72 11.71-11.72 30.71 0 42.42z" fill="#014d87"/><path d="m10.79 10.79 42.43 42.43v-42.43c-11.72-11.72-30.72-11.72-42.43 0z" fill="#ffe12c"/><path d="m53.21 10.79v42.43c11.72-11.72 11.72-30.72 0-42.43z" fill="#014d87"/><g fill="#f5f5f5"><path d="m10.91 20.98 2.41 1.83-.91-2.98 2.41-1.85-2.98-.01-.93-2.97-.93 2.97-2.98.01 2.41 1.85-.92 2.98z"/><path d="m17.75 27.82 2.41 1.83-.91-2.98 2.4-1.85-2.98-.01-.92-2.97-.93 2.97-2.98.01 2.4 1.85-.91 2.98z"/><path d="m24.58 34.65 2.42 1.84-.92-2.98 2.41-1.85-2.98-.01-.93-2.98-.93 2.98-2.98.01 2.41 1.85-.91 2.98z"/><path d="m31.42 41.49 2.41 1.84-.91-2.99 2.41-1.84-2.98-.01-.93-2.98-.93 2.98-2.98.01 2.41 1.84-.92 2.99z"/><path d="m38.26 48.33 2.41 1.83-.91-2.98 2.4-1.85-2.97-.01-.93-2.97-.93 2.97-2.98.01 2.4 1.85-.91 2.98z"/><path d="m45.09 55.17 2.42 1.83-.91-2.98 2.4-1.85-2.98-.01-.93-2.97-.92 2.97-2.98.01 2.4 1.85-.91 2.98z"/></g><circle cx="32" cy="32" fill="url(#a)" opacity=".1" r="30"/></svg>