<svg enable-background="new 0 0 64 64" height="64" viewBox="0 0 64 64" width="64" xmlns="http://www.w3.org/2000/svg" xmlns:xlink="http://www.w3.org/1999/xlink"><linearGradient id="a" gradientUnits="userSpaceOnUse" x1="32" x2="32" y1="62" y2="2"><stop offset="0" stop-color="#1a1a1a"/><stop offset=".102" stop-color="#393939" stop-opacity=".949"/><stop offset=".3475" stop-color="#7f7f7f" stop-opacity=".8262"/><stop offset=".5688" stop-color="#b6b6b6" stop-opacity=".7156"/><stop offset=".7582" stop-color="#dedede" stop-opacity=".6209"/><stop offset=".9081" stop-color="#f6f6f6" stop-opacity=".5459"/><stop offset="1" stop-color="#fff" stop-opacity=".5"/></linearGradient><path d="m11 32v21.42c5.42 5.3 12.82 8.58 21 8.58 16.57 0 30-13.43 30-30z" fill="#529320"/><path d="m11 32h51c0-16.57-13.43-30-30-30-8.18 0-15.58 3.28-21 8.58z" fill="#0fb4d4"/><path d="m11 10.58c-5.55 5.44-9 13.03-9 21.42s3.45 15.98 9.01 21.42l21.42-21.42z" fill="#f5f5f5"/><path d="m14 35.71 4.32 3.29-1.63-5.34 4.31-3.41h-5.34l-1.66-5.25-1.62 5.25h-5.38l4.31 3.41-1.63 5.34z" fill="#e81c27"/><circle cx="32" cy="32" fill="url(#a)" opacity=".1" r="30"/></svg>