<svg enable-background="new 0 0 64 64" height="64" viewBox="0 0 64 64" width="64" xmlns="http://www.w3.org/2000/svg" xmlns:xlink="http://www.w3.org/1999/xlink"><linearGradient id="a" gradientUnits="userSpaceOnUse" x1="32" x2="32" y1="62" y2="2"><stop offset="0" stop-color="#1a1a1a"/><stop offset=".102" stop-color="#393939" stop-opacity=".949"/><stop offset=".3475" stop-color="#7f7f7f" stop-opacity=".8262"/><stop offset=".5688" stop-color="#b6b6b6" stop-opacity=".7156"/><stop offset=".7582" stop-color="#dedede" stop-opacity=".6209"/><stop offset=".9081" stop-color="#f6f6f6" stop-opacity=".5459"/><stop offset="1" stop-color="#fff" stop-opacity=".5"/></linearGradient><path d="m32 62c16.57 0 30-13.43 30-30h-60c0 16.57 13.43 30 30 30z" fill="#e81c27"/><path d="m32 2c-16.57 0-30 13.43-30 30h60c0-16.57-13.43-30-30-30z" fill="#014d87"/><path d="m20 22v17.35c.27-.19 23.74-.01 24 .13v-17.48z" fill="#f5f5f5"/><path d="m32.37 37.37h.01s0 0-.01 0z" fill="#529320"/><path d="m39.23 37.55-14.5.01-4.73 1.79v2.65h24v-2.52zm-1.79 3.04s-1.94.73-5.46.73c-3.5 0-5.46-.73-5.46-.73v-.8s1.5.68 5.46.68c3.97 0 5.46-.68 5.46-.68z" fill="#529320"/><path d="m31.53 35.4c-.02-.26-.05-.54-.07-.81l-1.98-2.2c-.64.11-.29.99-.12 1.38z" fill="#e81c27"/><path d="m28.68 33.63c-.63.2-.36 1.04-.16 1.5l2.6 1.49c.14-.07.32-.12.52-.14-.01-.13-.04-.33-.06-.58z" fill="#e81c27"/><path d="m30.88 36.8-2.61-1.46c-.22.09-.31.29-.31.54l1.24 1.79 1.6.5z" fill="#e81c27"/><path d="m34.61 33.77c.16-.39.51-1.27-.12-1.38l-2.04 2.27c-.02.27-.05.54-.08.79z" fill="#e81c27"/><path d="m35.45 35.13c.19-.46.47-1.3-.16-1.5l-2.97 2.32c-.03.22-.04.4-.06.53.23.03.43.09.58.17z" fill="#e81c27"/><path d="m36 35.89c0-.26-.08-.45-.31-.54l-2.65 1.47.08 1.37 1.64-.51z" fill="#e81c27"/><path d="m32.33 27.76s0 .13.02.35c.18.48.42.93.76 1.19.23-.34.25-1.16.04-1.98.35.37.77.72 1.18.8.03-.28-.18-.76-.52-1.2.55.27 1.28.49 2.11.42-.21-.31-.66-.62-1.17-.88.93.25 1.84.49 1.88.51-.11-.86-.51-.9-1.24-1.25l1.75.02c-.44-.79-1.93-.83-3.12-.64.75-.24 1.67-.49 1.81-.52-.34-.25-1.66-1.06-3.38.29-.02.53-.25.95-.52.95-.29 0-.52-.44-.53-.99-1.7-1.3-3-.5-3.33-.25.15.03 1.07.29 1.81.52-1.19-.19-2.67-.15-3.12.64l1.75-.02c-.73.35-1.13.39-1.24 1.25.04-.02.95-.26 1.88-.51-.51.25-.96.56-1.17.88.83.07 1.56-.16 2.11-.42-.34.44-.56.92-.53 1.2.41-.07.84-.43 1.18-.8-.21.81-.19 1.64.04 1.98.26-.2.46-.51.63-.86.01-.41.02-.68.02-.68z" fill="#529320"/><path d="m26.53 39.79v.8s1.96.73 5.46.73c3.51 0 5.46-.73 5.46-.73v-.8s-1.48.68-5.46.68c-3.96 0-5.46-.68-5.46-.68z" fill="#f5f5f5"/><g fill="#014d87"><path d="m29.48 32.39-2.41-2.68c-.66.59-.69 1.5-.68 1.83l2.97 2.23c-.17-.39-.52-1.28.12-1.38z"/><path d="m28.68 33.63-3.6-2.81c-.47.6-.17 2.07-.08 2.44l3.52 1.87c-.2-.46-.48-1.3.16-1.5z"/><path d="m23.93 34.29c.01.35-.11.57.12 1.2l3.92.4c0-.26.08-.45.31-.54l-4.49-2.5c-.28.56 0 1.32.14 1.44z"/><path d="m37.58 31.54c.02-.33-.01-1.24-.68-1.83l-2.41 2.68c.64.11.29.99.12 1.38z"/><path d="m38.97 33.26c.09-.37.39-1.84-.08-2.44l-3.6 2.81c.63.2.36 1.04.16 1.5z"/><path d="m40.19 32.85-4.5 2.5c.22.09.31.29.31.54l3.92-.4c.22-.63.11-.85.12-1.2.14-.12.42-.88.15-1.44z"/><path d="m31.94 25.84c.28 0 .5-.42.52-.95 0-.03.01-.05.01-.08 0-.57-.24-1.03-.53-1.03-.3 0-.53.46-.53 1.03v.04c.02.55.25.99.53.99z"/></g><path d="m40.35 36.29-.14-.83-1.74.18c-.25-.13-.52-.21-.82-.21-.43 0-.81.16-1.12.41l-2.03.21.17.82.61-.06-.51.88-1.64.51v-1.17h-2.33v1.16l-1.6-.5-.46-.79-.05-.09.61.06.17-.82-1.98-.2c-.31-.25-.7-.41-1.12-.41-.3 0-.58.08-.83.21l-1.77-.18-.14.83 1.16.12c-.12.24-.2.51-.2.8 0 .98.8 1.78 1.78 1.78.83 0 1.52-.57 1.72-1.34l.26.41 2.47.74c0 .21.52.38 1.16.38s1.16-.17 1.16-.38l2.51-.74.29-.42c.2.77.89 1.34 1.72 1.34.98 0 1.78-.8 1.78-1.78 0-.29-.08-.56-.2-.81z" fill="#ffe12c"/><path d="m24.61 30.49.05.04c-.07.09-.13.18-.18.27l.43.2.16-.19 6.48 5.14.09.53h.65l.06-.53 6.55-5.14.16.19.42-.21c-.05-.09-.11-.18-.18-.27l.05-.04h.32l.57-.84-1.01.42-.03.22-.06.05c-.06-.06-.14-.13-.22-.2l-.32.32.16.19-6.36 4.72.06-.69 4.57-5.12.19.16.38-.27c-.06-.08-.14-.16-.22-.24l.04-.04.31-.06.41-.92-.92.58.01.23-.05.06c-.08-.05-.16-.11-.25-.16l-.25.37.2.16-2.75 2.94.53-1.14-.28-.06-1.27 2.28 1.02-2.75-.41-.03-1.08 3.05.7-2.91-.34.01-.46 1.94c-.03-1.05-.2-4.99-.2-4.99h-.87s-.1 3.63-.11 4.68l-.39-1.63-.35.01.7 2.9-1.08-3.04-.41.03 1.02 2.75-1.27-2.28-.28.06.53 1.14-2.75-2.95.19-.16-.25-.37c-.1.05-.18.11-.25.16l-.05-.06.01-.23-.92-.58.41.92.31.06.04.04c-.09.08-.16.16-.22.24l.38.27.19-.16 4.5 5.12.06.69-6.29-4.72.16-.19-.32-.32c-.09.07-.16.13-.22.2l-.06-.05-.03-.22-1.01-.42.57.84z" fill="#ffe12c"/><path d="m23.64 33.05.13-.21 7.12 3.96.55-.16-7.57-3.99.13-.21-.36-.27c-.08.08-.13.16-.19.23l-.07-.04-.07-.22-1.07-.26.7.74.31-.05.05.03c-.05.1-.1.2-.13.29z" fill="#ffe12c"/><path d="m41.02 32.63.7-.74-1.06.26-.07.22-.07.04c-.05-.07-.11-.15-.19-.23l-.36.27.13.22-7.52 3.96.47.2 2.65-1.47 4.51-2.51.13.21.45-.14c-.04-.1-.08-.19-.13-.29l.05-.03z" fill="#ffe12c"/><ellipse cx="32" cy="36.97" fill="#014d87" rx="1.25" ry=".57"/><circle cx="32" cy="32" fill="url(#a)" opacity=".1" r="30"/></svg>