<svg enable-background="new 0 0 64 64" height="64" viewBox="0 0 64 64" width="64" xmlns="http://www.w3.org/2000/svg" xmlns:xlink="http://www.w3.org/1999/xlink"><linearGradient id="a" gradientUnits="userSpaceOnUse" x1="32" x2="32" y1="62" y2="2"><stop offset="0" stop-color="#1a1a1a"/><stop offset=".102" stop-color="#393939" stop-opacity=".949"/><stop offset=".3475" stop-color="#7f7f7f" stop-opacity=".8262"/><stop offset=".5688" stop-color="#b6b6b6" stop-opacity=".7156"/><stop offset=".7582" stop-color="#dedede" stop-opacity=".6209"/><stop offset=".9081" stop-color="#f6f6f6" stop-opacity=".5459"/><stop offset="1" stop-color="#fff" stop-opacity=".5"/></linearGradient><path d="m11.19 53.6c5.4 5.2 12.73 8.4 20.81 8.4s15.41-3.2 20.81-8.4z" fill="#e81c27"/><path d="m52.81 10.4c-5.4-5.2-12.73-8.4-20.81-8.4s-15.41 3.2-20.81 8.4z" fill="#e81c27"/><path d="m5.38 45.82 26.62-13.82-26.62-13.82c-2.16 4.13-3.38 8.83-3.38 13.82s1.22 9.69 3.38 13.82z" fill="#529320"/><path d="m62 32c0-4.99-1.22-9.69-3.38-13.82l-26.62 13.82 26.62 13.82c2.16-4.13 3.38-8.83 3.38-13.82z" fill="#529320"/><path d="m58.62 45.82-26.62-13.82-26.62 13.82c1.51 2.9 3.48 5.53 5.81 7.78h41.62c2.33-2.25 4.3-4.87 5.81-7.78z" fill="#ffe12c"/><path d="m5.38 18.18 26.62 13.82 26.62-13.82c-1.51-2.9-3.48-5.53-5.82-7.78h-41.61c-2.33 2.25-4.3 4.87-5.81 7.78z" fill="#ffe12c"/><circle cx="32" cy="32" fill="#e81c27" r="9"/><path d="m8.29 34.41c.77.8 1.64 1.47 2.45 1.81.01-.89-.15-1.9-.42-2.92-.68-.64-1.46-1.19-2.21-1.48-.12.82-.04 1.72.18 2.59z" fill="#ce1126"/><g fill="#ffe12c"><path d="m5.02 26.33c1.31 2.72-3.39 9.21 4.43 10.74-.52-.71-.93-1.65-1.17-2.65-.21-.87-.29-1.77-.18-2.58.76.29 1.53.84 2.21 1.48.8.75 1.48 1.62 1.85 2.37 2.05-7.44-5.24-6.99-7.14-9.36z"/><path d="m21.96 4.86.59 1.81h1.91l-1.55 1.12.59 1.82-1.54-1.12-1.55 1.12.59-1.82-1.54-1.12h1.91z"/><path d="m22.96 54.1.59 1.81h1.91l-1.55 1.13.59 1.81-1.54-1.12-1.55 1.12.59-1.81-1.54-1.13h1.91z"/><path d="m32 23 1.93 6.25h6.26l-5.06 3.87 1.93 6.26-5.06-3.87-5.06 3.87 1.93-6.26-5.06-3.87h6.26z"/><path d="m31.96 4.86.59 1.81h1.91l-1.55 1.12.59 1.82-1.54-1.12-1.55 1.12.59-1.82-1.54-1.12h1.91z"/><path d="m41.96 4.86.59 1.81h1.91l-1.55 1.12.59 1.82-1.54-1.12-1.55 1.12.59-1.82-1.54-1.12h1.91z"/><path d="m31.96 54.1.59 1.82h1.91l-1.55 1.12.59 1.82-1.54-1.13-1.55 1.13.59-1.82-1.54-1.12h1.91z"/><path d="m41.96 54.1.59 1.82h1.91l-1.55 1.12.59 1.81-1.54-1.12-1.55 1.12.59-1.81-1.54-1.12h1.91z"/></g><circle cx="32" cy="32" fill="url(#a)" opacity=".1" r="30"/></svg>