<svg enable-background="new 0 0 64 64" height="64" viewBox="0 0 64 64" width="64" xmlns="http://www.w3.org/2000/svg" xmlns:xlink="http://www.w3.org/1999/xlink"><linearGradient id="a" gradientUnits="userSpaceOnUse" x1="32" x2="32" y1="62" y2="2"><stop offset="0" stop-color="#1a1a1a"/><stop offset=".102" stop-color="#393939" stop-opacity=".949"/><stop offset=".3475" stop-color="#7f7f7f" stop-opacity=".8262"/><stop offset=".5688" stop-color="#b6b6b6" stop-opacity=".7156"/><stop offset=".7582" stop-color="#dedede" stop-opacity=".6209"/><stop offset=".9081" stop-color="#f6f6f6" stop-opacity=".5459"/><stop offset="1" stop-color="#fff" stop-opacity=".5"/></linearGradient><path d="m2 32c0 11.51 6.49 21.5 16 26.53v-53.06c-9.51 5.03-16 15.02-16 26.53z" fill="#014d87"/><path d="m62 32c0-11.51-6.49-21.5-16-26.53v53.07c9.51-5.04 16-15.03 16-26.54z" fill="#014d87"/><path d="m32 2c-5.06 0-9.82 1.26-14 3.47v53.07c4.18 2.2 8.94 3.46 14 3.46s9.82-1.26 14-3.47v-53.06c-4.18-2.21-8.94-3.47-14-3.47z" fill="#ffe12c"/><g fill="#302c3b"><path d="m43.84 20.16-1.07-1.08c-.2.22-4.63 5.25-5.06 15.12h-4.23v-10.92h-2.96v10.92h-4.23c-.43-9.87-4.86-14.9-5.06-15.12l-2.15 2.15c.04.05 4.28 4.95 4.28 14.54v1.56h7.15v10.82h2.96v-10.82h7.15v-1.56c0-9.58 4.24-14.49 4.28-14.54z"/><path d="m32 15.86-3.23 9.68h6.46z"/><path d="m21.24 19.08 6.45 6.46h-4.03z"/><path d="m42.76 19.08-6.46 6.46h4.04z"/></g><circle cx="32" cy="32" fill="url(#a)" opacity=".1" r="30"/></svg>