<svg enable-background="new 0 0 64 64" height="64" viewBox="0 0 64 64" width="64" xmlns="http://www.w3.org/2000/svg" xmlns:xlink="http://www.w3.org/1999/xlink"><linearGradient id="a" gradientUnits="userSpaceOnUse" x1="32" x2="32" y1="62" y2="2"><stop offset="0" stop-color="#1a1a1a"/><stop offset=".102" stop-color="#393939" stop-opacity=".949"/><stop offset=".3475" stop-color="#7f7f7f" stop-opacity=".8262"/><stop offset=".5688" stop-color="#b6b6b6" stop-opacity=".7156"/><stop offset=".7582" stop-color="#dedede" stop-opacity=".6209"/><stop offset=".9081" stop-color="#f6f6f6" stop-opacity=".5459"/><stop offset="1" stop-color="#fff" stop-opacity=".5"/></linearGradient><path d="m60 42c-5.52 0-10-4.48-10-10h-39.21v21.21c5.42 5.43 12.92 8.79 21.21 8.79 13.07 0 24.18-8.36 28.29-20.02-.1.01-.19.02-.29.02z" fill="#529320"/><path d="m60 22c.1 0 .19.01.29.01-4.11-11.65-15.22-20.01-28.29-20.01-8.29 0-15.79 3.36-21.21 8.79v21.21h39.21c0-5.52 4.48-10 10-10z" fill="#302c3b"/><path d="m60.29 22h-49.5v20h49.5c1.1-3.13 1.71-6.49 1.71-10s-.61-6.87-1.71-10z" fill="#f5f5f5"/><g fill="#e81c27"><path d="m10.79 10.79c-5.43 5.42-8.79 12.92-8.79 21.21 0 8.28 3.36 15.78 8.79 21.21l21.21-21.21z"/><path d="m44 38.86c-3.04-.65-5.33-3.47-5.33-6.86 0-3.38 2.29-6.21 5.33-6.86-.43-.1-.88-.14-1.33-.14-3.69 0-6.67 3.14-6.67 7s2.98 7 6.67 7c.45 0 .9-.05 1.33-.14z"/><path d="m45 34.12 2.47 1.88-.93-3.05 2.46-1.95h-3.05l-.95-3-.92 3h-3.08l2.46 1.95-.93 3.05z"/></g><circle cx="32" cy="32" fill="url(#a)" opacity=".1" r="30"/></svg>