<svg enable-background="new 0 0 64 64" height="64" viewBox="0 0 64 64" width="64" xmlns="http://www.w3.org/2000/svg" xmlns:xlink="http://www.w3.org/1999/xlink"><linearGradient id="a" gradientUnits="userSpaceOnUse" x1="32" x2="32" y1="2" y2="62.0005"><stop offset="0" stop-color="#f90"/><stop offset=".2875" stop-color="#ff9500"/><stop offset=".5853" stop-color="#f80"/><stop offset=".8868" stop-color="#ff7400"/><stop offset="1" stop-color="#ff6a00"/></linearGradient><path d="m2 32c0-16.564 13.44-30 30-30 16.572 0 30 13.436 30 30 0 16.57-13.428 30-30 30-16.56 0-30-13.43-30-30z" fill="url(#a)"/><path d="m47.467 31.923v4.303 10.134c0 .671-.375 1.045-1.045 1.045h-3.633c-.672 0-1.045-.374-1.045-1.045v-2.868c-2.166 2.982-5.623 4.508-9.87 4.508-8.748 0-15.34-6.999-15.34-16 0-9.002 6.724-16 16-16 6.845 0 12.687 4.17 14.582 9.76.252.716-.123 1.178-.871 1.178h-4.279c-.584 0-.936-.253-1.223-.759-1.408-2.466-4.566-4.281-8.208-4.281-5.986 0-9.947 4.182-9.947 10.103 0 6.25 4.159 10.432 9.947 10.432 4.042 0 7.91-1.863 8.888-6.206h-7.547c-.67 0-1.044-.374-1.044-1.046v-3.257c0-.672.375-1.046 1.044-1.046h12.547c.669-.001 1.044.373 1.044 1.045z" fill="#fff"/></svg>