<svg enable-background="new 0 0 64 64" height="64" viewBox="0 0 64 64" width="64" xmlns="http://www.w3.org/2000/svg" xmlns:xlink="http://www.w3.org/1999/xlink"><linearGradient id="a" gradientUnits="userSpaceOnUse" x1="32" x2="32" y1="62" y2="2"><stop offset="0" stop-color="#1a1a1a"/><stop offset=".102" stop-color="#393939" stop-opacity=".949"/><stop offset=".3475" stop-color="#7f7f7f" stop-opacity=".8262"/><stop offset=".5688" stop-color="#b6b6b6" stop-opacity=".7156"/><stop offset=".7582" stop-color="#dedede" stop-opacity=".6209"/><stop offset=".9081" stop-color="#f6f6f6" stop-opacity=".5459"/><stop offset="1" stop-color="#fff" stop-opacity=".5"/></linearGradient><path d="m62 32c0-13.06-8.35-24.17-20-28.29v56.57c11.65-4.11 20-15.22 20-28.28z" fill="#ffe12c"/><path d="m2 32c0 13.06 8.35 24.17 20 28.29v-56.58c-11.65 4.12-20 15.23-20 28.29z" fill="#529320"/><path d="m42 3.71c-3.13-1.1-6.49-1.71-10-1.71s-6.87.61-10 1.71v56.57c3.13 1.11 6.49 1.72 10 1.72s6.87-.61 10-1.71z" fill="#e81c27"/><path d="m32 36.25 5.25 3.75-1.98-6.11 5.23-3.78-6.48-.02-2.02-6.09-2.02 6.09-6.48.02 5.23 3.78-1.98 6.11z" fill="#ffe12c"/><circle cx="32" cy="32" fill="url(#a)" opacity=".1" r="30"/></svg>