<svg enable-background="new 0 0 64 64" height="64" viewBox="0 0 64 64" width="64" xmlns="http://www.w3.org/2000/svg" xmlns:xlink="http://www.w3.org/1999/xlink"><linearGradient id="a" gradientUnits="userSpaceOnUse" x1="32" x2="32" y1="62" y2="2"><stop offset="0" stop-color="#1a1a1a"/><stop offset=".102" stop-color="#393939" stop-opacity=".949"/><stop offset=".3475" stop-color="#7f7f7f" stop-opacity=".8262"/><stop offset=".5688" stop-color="#b6b6b6" stop-opacity=".7156"/><stop offset=".7582" stop-color="#dedede" stop-opacity=".6209"/><stop offset=".9081" stop-color="#f6f6f6" stop-opacity=".5459"/><stop offset="1" stop-color="#fff" stop-opacity=".5"/></linearGradient><path d="m2 32c0 11.51 6.49 21.5 16 26.53v-53.06c-9.51 5.03-16 15.02-16 26.53z" fill="#014d87"/><path d="m62 32c0-11.51-6.49-21.5-16-26.53v53.07c9.51-5.04 16-15.03 16-26.54z" fill="#e81c27"/><path d="m32 2c-5.06 0-9.82 1.26-14 3.47v53.07c4.18 2.2 8.94 3.46 14 3.46s9.82-1.26 14-3.47v-53.06c-4.18-2.21-8.94-3.47-14-3.47z" fill="#ffe12c"/><path d="m29.22 17c1.25 0 1.96 1.22 3.31.89.99-.25 2.49-1.65 3.3-.29.32.54.2 1.11.01 1.67-.17.48-.67 1.16-.16 1.59.74.63 2.24.37 2.87-.27-.6-.03-.96-.7-.48-1.14.22-.21.44-.1.65-.21.09-.05.16-.24.25-.31.12-.09.25-.14.4-.14.21 0 .35.21.53.21.25 0 .63-.27.82.05.13.23.29.08.5.04.34-.08.62.09.83.34.19.22.3.18.55.33.18.11.29.47.46.53.7.27.74.85.44 1.48-.44.93-2.5 2.03-1.75 3.18-.14-.79 1.12-.44.82.3 1.59-1.05 3.31 1.19 3.28 2.64-.03 1.38-.63 2.45-2.01 2.84.43.18.78.63.52 1.1-.11.2-.32.34-.56.34-.41 0-.45-.34-.72.08-.54.83-.24 2.12.49 2.74.22-.34.7-.56 1.04-.21.23.24.25.65.37.93.16.35.41.63.1 1.02-.3.38-.62.24-1.02.28.86.86 1.29 1.84.94 3.08-.35 1.25-1.28 2.15-2.49 2.57-1.2.42-2.5.49-3.75.55-1.27.05-2.57.05-3.53 1.01.41.3.72.72.54 1.25-.06.19-.19.35-.36.45-.19.13-.54.1-.66.31-.25.47-1.11.29-1.45.03-.24-.19-.33.06-.52.25-.14.17-.46.49-.71.49s-.46-.24-.64-.38c-.25-.19-.38-.54-.68-.37-.39.24-1.08.42-1.41-.03-.14-.19-.39-.17-.58-.28-.23-.13-.43-.33-.51-.58-.18-.53.12-.97.59-1.19-.9-.9-2.11-.91-3.3-.96-1.27-.05-2.82-.03-3.99-.57-1.02-.47-1.95-1.17-2.37-2.25-.49-1.24-.27-2.41.67-3.35-.4-.09-.79-.08-.99-.53-.21-.47.19-.67.2-1.07.01-.25.38-.74.62-.82.22-.07.46.01.61.18.21.24.33.01.47-.22.42-.72.74-1.92.04-2.62-.78.78-1.83-.77-.8-1.25-.28-.24-.66-.31-.94-.58-.24-.23-.44-.54-.59-.83-.36-.69-.41-1.48-.23-2.23.16-.67.61-1.42 1.23-1.76.71-.39 1.2-.35 1.91-.13-.12-.04.11-.6.19-.67.33-.28.57-.02.73.26.64-1.06-1.48-2.25-1.85-3.09-.18-.4-.27-1.43.42-1.43.2 0 .31-.33.46-.46.14-.12.32-.11.46-.21.12-.08.18-.24.28-.34.2-.2.47-.24.74-.21.39.05.19.12.54-.04.3-.14.45.01.75.01.23 0 .35-.31.67-.22.25.07.34.28.54.4.21.12.44.1.64.28.54.48.15 1.02-.38 1.19.52.41 1.14.56 1.8.51.54-.04 1.37-.34 1.18-1.05-.21-.76-.65-1.26-.53-2.1.09-.63.57-1.02 1.2-1.01z" fill="#e5bc5e"/><path d="m23.95 23.94h7.63v7.62h-7.63z" fill="#e81c27"/><path d="m27.53 29.94s0 .27-.08.49c-.09.25-.09.25-.17.38-.11.16-.24.29-.35.36-.18.12-.37.18-.55.16-.51-.04-.75-.6-.86-1.05-.12-.48-.47-.74-.69-.56-.13.1-.14.27-.03.43.12.17.38.26.38.26l-.27.35s-.58-.08-.7-.69c-.04-.23.07-.66.45-.79.49-.17.81.19.96.48.21.41.3 1.16.88 1.04.31-.06.46-.52.46-.73l.23-.25z" fill="#f5f5f5"/><path d="m28 29.94s0 .27.08.49c.09.25.09.25.17.38.11.16.24.29.35.36.18.12.37.18.55.16.51-.04.75-.6.86-1.05.12-.48.47-.74.69-.56.13.1.14.27.03.43-.12.17-.38.26-.38.26l.27.35s.58-.08.7-.69c.04-.23-.07-.66-.45-.79-.49-.17-.81.19-.96.48-.21.41-.3 1.16-.88 1.04-.31-.06-.46-.52-.46-.73l-.23-.25z" fill="#f5f5f5"/><path d="m28.45 26.7c.28-.31 1.15-.93 1.15-1.4-.52-.06-.03-.17.05-.48-.1.01-.2.01-.3.02.11-.37 1.05-.74 1.46-.57 1.03.42.29 2.02-.51 1.33.13-.41.66-.24.63-.59-.02-.33-.39-.55-.67-.35-.41.28-.13.88-.5 1.23-.33.52-.88.95-1.3 1.41-1.24 1.34-2.47 2.67-3.71 4.01-.71-.38 1.08-1.77 1.42-2.13.75-.82 1.52-1.65 2.28-2.48z" fill="#ffe12c"/><path d="m25.52 27.08s.25 1.24 1.1 3.1c.43-.16.69-.26 1.15-.26s.71.09 1.15.26c.85-1.86 1.1-3.1 1.1-3.1l-2.25-2.89z" fill="#f5f5f5"/><path d="m27.99 25.16 1.56 2.01s-.21.98-.84 2.45c-.25-.06-.46-.11-.72-.12z" fill="#ffe12c"/><path d="m27.55 25.16-1.56 2.01s.21.98.84 2.45c.25-.06.46-.11.72-.12z" fill="#ffe12c"/><path d="m32.39 23.94h7.63v7.62h-7.63z" fill="#ffe12c"/><path d="m33.46 23.94h1.14v7.62h-1.14z" fill="#e81c27"/><path d="m35.64 23.94h1.14v7.62h-1.14z" fill="#e81c27"/><path d="m37.82 23.94h1.14v7.62h-1.14z" fill="#e81c27"/><path d="m23.98 38.16c.02.14.07.37.2.61.14.22.09.21.4.56.15.17.39.32.58.42s.33.15.64.23c.6.16 1.03.17 1.54.15.4-.02.7-.06.95-.1.36-.05.63-.08 1.03-.09.2-.01.39-.01.57 0 .22.01.44.05.68.09.51.1 1.02.3 1.02.3v-7.95h-7.63v5.44z" fill="#ffe12c"/><g fill="#e81c27"><path d="m24.87 39.56.35.2.49.18v-7.57h-.84z"/><path d="m29.11 39.9v-7.53h-.85v7.65s.58-.07.85-.09z"/><path d="m30.8 32.37h-.85v7.56c.28.03.56.08.85.16z"/><path d="m27.41 32.37v7.74c-.01 0-.57.03-.85 0v-7.73z"/></g><path d="m40 38.16c-.02.14-.07.37-.2.61-.14.22-.09.21-.4.56-.15.17-.39.32-.58.42s-.33.15-.64.23c-.6.16-1.03.17-1.54.15-.4-.02-.7-.06-.95-.1-.36-.05-.63-.08-1.03-.09-.2-.01-.39-.01-.57 0-.22.01-.44.05-.68.09-.5.1-1.02.3-1.02.3v-7.95h7.63v5.44z" fill="#ffe12c"/><path d="m34.35 33.01c-.29.2-.43.5-.74.68.2.38.61.28.87.46.17 0 .41.64.39.67-.34.33.11 1.18.24.93s-.38-.93.3-.73c.23.07.35.8.07 1 .15.27.44.11.4-.2-.08-.55.01-.79.52-.81.62-.02.48.17.81.25h.3l.17-.19c-.01.35-.4.68-.61.85.41.17 1.04-.58.98-.95.38.18.08.91-.08 1.14 1.05.25.09-1.79.42-1.97.9-.5-.52-.84-.87-.82-.76.04-1.86.36-2.6.13.15-.05.16-.18.26-.28-.17-.16-.55.03-.83-.16zm.18 1.11" fill="#e81c27"/><path d="m34.35 36.41c-.29.2-.43.5-.74.68.19.38.61.28.87.46.17 0 .41.64.39.67-.34.33.11 1.18.24.93s-.38-.93.3-.73c.23.07.35.8.07 1 .15.27.44.11.4-.2-.08-.55.01-.79.52-.81.62-.02.48.17.81.25h.3l.17-.19c-.01.35-.4.68-.61.85.41.17 1.04-.58.98-.95.38.18.08.91-.08 1.14 1.05.25.09-1.79.42-1.97.9-.5-.52-.84-.87-.82-.76.04-1.86.36-2.6.13.15-.05.16-.18.26-.28-.17-.16-.55.02-.83-.16zm.18 1.1" fill="#e81c27"/><circle cx="32" cy="32" fill="url(#a)" opacity=".1" r="30"/></svg>