<svg enable-background="new 0 0 64 64" height="64" viewBox="0 0 64 64" width="64" xmlns="http://www.w3.org/2000/svg" xmlns:xlink="http://www.w3.org/1999/xlink"><linearGradient id="a" gradientUnits="userSpaceOnUse" x1="32" x2="32" y1="62" y2="2"><stop offset="0" stop-color="#1a1a1a"/><stop offset=".102" stop-color="#393939" stop-opacity=".949"/><stop offset=".3475" stop-color="#7f7f7f" stop-opacity=".8262"/><stop offset=".5688" stop-color="#b6b6b6" stop-opacity=".7156"/><stop offset=".7582" stop-color="#dedede" stop-opacity=".6209"/><stop offset=".9081" stop-color="#f6f6f6" stop-opacity=".5459"/><stop offset="1" stop-color="#fff" stop-opacity=".5"/></linearGradient><path d="m2 32c0 11.51 6.49 21.5 16 26.53v-53.06c-9.51 5.03-16 15.02-16 26.53z" fill="#f5f5f5"/><path d="m62 32c0-11.51-6.49-21.5-16-26.53v53.06c9.51-5.03 16-15.02 16-26.53z" fill="#ffe12c"/><path d="m32 2c-5.06 0-9.82 1.26-14 3.47v53.06c4.18 2.21 8.94 3.47 14 3.47s9.82-1.26 14-3.47v-53.06c-4.18-2.21-8.94-3.47-14-3.47z" fill="#014d87"/><path d="m44.28 38.07c.69-.74.6-2.06-.35-2.48-.2-.08-.54.17-.61.35-.19.48.53.87.12 1.3s-.5-.3-.6-.53c-.24-.53-.64-.83-1.07-1.2-.86-.74-1.33-1.86-1.32-2.98.01-1.43.32-3.48-1.48-3.98-.54-.15-.96-.01-1.48-.11-.79-.29-.99.4-.9 1.09-.82-.23-.88.79-1.57.58.18-.36.35-.77.58-1.1.22.11.6-.1.6-.34 0-.36.46-.73.46-1.13 0-.36-.09-1.02-.49-1.19-.15-.71-1.27-.82-1.85-.86-.37-.03-.3.17-.6-.13-.2-.19-.78-.23-1.03-.21.15-1.08-1.52-1.08-1.37 0-.17-.02-.7.02-.86.09-.42.19-.25.4-.69.24-.21.02-.43-.04-.57.13-.33-.12-1.13.22-1.29.55-.11.23-.32.3-.42.55-.08.23-.01.38-.09.59-.1.29.21 1.08.44 1.27-.12.35.23.42.49.44s.57.9.67 1.1c-.35 0-.41.07-.59-.21-.23-.36-.6-.47-1-.37.11-.85-.21-1.34-1.03-1.04-.35.13-.37-.04-.73-.06-.33-.02-.83.17-1.1.33-1.56.93-.83 2.95-1.06 4.42-.09.6-.32 1.18-.67 1.67-.39.55-1 .86-1.4 1.4-.12.17-.43 1.12-.59 1.12-.68 0-.27-.71-.16-.99.36-.93-.91-.92-1.25-.21-.57 1.22.51 2.76 1.89 2.3.02.3-.04.62-.36.74-.38.15-.21.86-.13 1.12.19.63.62 1.93 1.4 1.93.7 0 1.76-.09.95-1.07-.33-.4-1.04-.4-.77-1.12.2-.52.9-.63 1.14-1.19.35-.79.33.23.22.19-.05.24.49.6.62.8.54.84.75.97 1.74.97.5 0 .42-.54.27-.85-.21-.44-1.06-.57-1.06-1.02s.42-.64.29-1.15c-.13-.49-.52-.83-.94-1.09.5-.51 1.2-.74 1.69-1.25.41-.42.55-.96.96-1.37v2.35c0 .78-.14 1.76.19 2.49.7 1.54 2.95 1.91 4.46 1.91s3.76-.37 4.46-1.91c.31-.69.19-1.58.19-2.31 0-.85 0-1.7 0-2.54.33 0 .63.96.79 1.16.49.65 1.31.89 1.88 1.47-.61.37-1.42 1.26-.75 1.96.46.52-.39.69-.64.89-.24.2-.8 1.26-.1 1.26.68.29 1.37-.19 1.66-.73.12-.23.77-.75.77-.97 0-.26-.31-.43.11-.53.17.71 2.09 1.7.87 2.27-.35.16-.96.89-.57 1.29.2.2.74.1.98.1.92 0 1.08-.93 1.41-1.63.14-.29.38-1 .14-1.32-.26-.34-.52-.34-.5-.85.57.19 1.2.03 1.6-.4.3-.32 0 0 0 0zm-19.48-13.58c.15.34.43.59.75.77-.16.17-1.14.72-.3.91.43.1.89.08 1.32.04.47-.04 3.79-.98 3.12-1.82 1.53-.2 3.05-.2 4.58 0-.42 1.05 2.45 1.75 3.12 1.82.43.04.89.06 1.32-.04.84-.19-.14-.73-.3-.91.2-.12 1.42-1.32.58-1.43-.25-.03-.51.13-.78.11-.35-.03-.72-.11-1.03-.27-.69-.34-.47-1.22-1.25-1.54-.91-.38-2.2-.36-3.18-.39-1.12-.04-2.25.01-3.36.15-.83.11-1.87.16-2.1 1.15-.15.67-.89.86-1.53.91-.36.03-1.47-.25-.96.54.16.34 0 0 0 0z" fill="#f5f5f5"/><path d="m27.67 30.44h8.65v7.58c0 2.5-4.32 2.5-4.32 2.5s-4.32 0-4.32-2.5v-7.58z" fill="#4c86c7"/><g fill="#f5f5f5"><path d="m31.41 32.78-1.01-1.12c-.18-.2-.46-.2-.64 0l-1.01 1.12z"/><path d="m31.41 35.02-1.01-1.12c-.18-.2-.46-.2-.64 0l-1.01 1.12z"/><path d="m31.41 37.29-1.01-1.12c-.18-.2-.46-.2-.64 0l-1.01 1.12z"/><path d="m33.32 39.55-1.01-1.12c-.18-.2-.46-.2-.64 0l-1.01 1.12z"/><path d="m35.25 32.78-1.01-1.12c-.18-.2-.46-.2-.64 0l-1.01 1.12z"/><path d="m35.25 35.02-1.01-1.12c-.18-.2-.46-.2-.64 0l-1.01 1.12z"/><path d="m35.25 37.29-1.01-1.12c-.18-.2-.46-.2-.64 0l-1.01 1.12z"/></g><path d="m38.85 24.35.07-.18c-.17.08-.37.11-.57.12-.41.01-1.63-.19-1.96-.87l-.03.02.02-.11c0-.46-.33-.85-.77-.94h-.01c-1.17-.21-2.37-.33-3.6-.33h-.05c-1.23 0-2.43.11-3.6.33h-.01c-.44.09-.77.47-.77.94l.02.1-.02-.01c-.34.68-1.55.88-1.96.87-.2 0-.39-.04-.57-.12l.07.18c.17.38.51.68.91.79-.13.41-.43.56-.75.69.35.11 2.64.3 4.13-1.22l.04-.01-.01-.02-.01-.01-.22-.39-.03-.07c.91-.14 1.84-.23 2.79-.23h.04c.96 0 1.89.09 2.8.23l-.04.06-.22.39-.01.01-.01.02.04.01c1.49 1.52 3.77 1.33 4.13 1.22-.32-.13-.62-.27-.75-.69.41-.1.74-.39.91-.78z" fill="#bcbcbc"/><path d="m26.71 32.9c.34-.38.36-1.07.47-1.54.16-.69.44-.92 1.07-.92 0-.94-.93-.58-1.25-.09s-.64.98-.96 1.48c-.01-.31-.03-.62-.03-.93.39-.36.96-.62 1.07-1.19.04-.24.19-.81-.04-.99-.14-.11-.51.07-.64.12-.38.13-.36-.08-.73-.08-2.07 0-1.79 2.39-1.78 3.77.01 1.15-.45 2.29-1.28 3.09-.33.32-.71.54-.97.92-.21.32-.29 1.16-.79 1.16-.58 0-.89-.66-.67-1.15.34-.72-.22-.84-.49-.14-.44 1.16.92 2.43 1.95 1.52-.06.52.16 1.07-.33 1.46-.42.34-.24.89.07 1.34.17.35.31 1.21.8 1.21.25.08.66 0 .93 0 0-.44-.34-.85-.8-.85-.33-.28-.35-.85-.17-1.21.06-.13 1.65-1.57 1.28-1.64.24.05.65.07.76.35.1.27-.05.29-.08.52.2.1.36.3.48.48.21.29.36.93.8.93.22.07.56 0 .79 0 0-.9-1.51-.82-1.12-1.81.13-.34.46-.53.22-.95-.15-.42-.68-.79-1.08-.94.79-.88 2.16-1.33 2.5-2.54.98-.76.97-1.17.97-2.31-.29 0-.41.25-.43.49-.02.37-.16.61-.49.81-.01-.12-.03-.24-.03-.37z" fill="#c09b5a"/><path d="m44.04 35.97c-.12-.1-.24-.1-.35 0-.2.21.05.41.14.58.23.49-.09 1.15-.67 1.15-.4 0-.44-.4-.54-.68-.16-.45-.45-.75-.8-1.06-1.52-1.1-1.7-2.77-1.69-4.49 0-.64.08-1.31-.28-1.88-.22-.35-.56-.62-.96-.73-.17-.05-.36-.11-.54-.11-.21 0-.35.23-.54.15-.2-.08-.79-.41-.9-.09-.11.31-.03.85.11 1.14.2.41.66.63.98.93 0 .31-.02.62-.03.93-.29-.45-.58-.9-.87-1.35-.08-.13-.16-.31-.27-.41-.34-.51-1.07-.2-1.07.36.63 0 .91.23 1.07.92.13.55.52 1.39.43 1.92-.33-.2-.47-.44-.49-.81-.01-.24-.14-.49-.43-.49 0 1.14-.02 1.55.96 2.31.34 1.21 1.71 1.66 2.5 2.54-.45.18-.83.51-1.07.93-.18.48.07.57.22.96.38 1-1.13.91-1.13 1.81.83 0 1.02.02 1.46-.72.13-.21.27-.42.46-.59.29-.25.04-.1.04-.4 0-.47.42-.52.8-.59.06-.01.18.58.26.7.23.36.64.43.89.74.33.41.32 1.03-.04 1.42-.35.3-.8.18-.8.85.27 0 .67.08.93 0 .49 0 .63-.87.8-1.21.3-.45.48-1 .06-1.34-.49-.4-.26-.94-.33-1.46 1.23 1.12 2.73-.82 1.69-1.93-.1-.1.48.51 0 0z" fill="#c09b5a"/><path d="m32.01 26.78c1.03 0 3.12.26 3.88 1.04-.8 2.13-2.12 1.26-3.86 1.26-1.75 0-3.07.88-3.87-1.26.75-.78 2.82-1.04 3.85-1.04z" fill="#e81c27"/><path d="m34.7 29.14c-.67-.41-1.61-.5-2.65-.5s-1.97.09-2.65.5l.24 1c.61.2 1.46.32 2.41.33.95 0 1.8-.13 2.41-.33z" fill="#c8b100"/><path d="m35.6 26.64c-.21-.2-.62-.33-1.04-.33-.17 0-.33.02-.47.06.02.03-.3-.49-1.05-.49-.27 0-.51.07-.7.19v-.04c-.03-.13-.14-.23-.28-.23s-.26.1-.29.23v.04c-.19-.12-.43-.19-.7-.19-.74 0-1.08.52-1.05.49-.15-.04-.31-.06-.48-.06-2.49 0-1.21 1.84-1.21 1.84l.2-.37c-.58-.83-.08-1.33 1.01-1.33.14 0 .27.01.39.04-.37.61.32 1.12.32 1.12l.16-.29c-.39-.27-.42-1.3.66-1.3.27 0 .51.08.68.21-.01.06-.06.86-.11 1.02l.42.44.41-.44c-.05-.16-.11-.96-.11-1.02.17-.13.41-.21.68-.21 1.11 0 1.15 1.02.65 1.3l.16.29s.59-.51.32-1.12c.12-.03.25-.04.39-.04 1.29.02 1.38 1.05 1.01 1.33l.21.37c-.01 0 .55-.82-.18-1.51z" fill="#c8b100"/><path d="m31.7 25.46c0-.2.15-.36.34-.36s.34.16.34.36-.15.36-.34.36-.34-.16-.34-.36" fill="#005bbf"/><path d="m31.95 24.47v.19h-.19v.19h.19v.27.3h-.24l-.01.05.02.14h.63.01l.02-.14-.01-.05h-.23v-.3-.27h.19v-.19h-.19v-.19z" fill="#c8b100"/><path d="m32.04 30.33c-.86 0-1.63-.11-2.22-.28.59-.17 1.37-.27 2.22-.27.86 0 1.64.1 2.23.27-.59.17-1.37.28-2.23.28" fill="#e81c27"/><circle cx="32" cy="32" fill="url(#a)" opacity=".1" r="30"/></svg>