<svg enable-background="new 0 0 64 64" height="64" viewBox="0 0 64 64" width="64" xmlns="http://www.w3.org/2000/svg" xmlns:xlink="http://www.w3.org/1999/xlink"><linearGradient id="a" gradientUnits="userSpaceOnUse" x1="32" x2="32" y1="62" y2="2"><stop offset="0" stop-color="#1a1a1a"/><stop offset=".102" stop-color="#393939" stop-opacity=".949"/><stop offset=".3475" stop-color="#7f7f7f" stop-opacity=".8262"/><stop offset=".5688" stop-color="#b6b6b6" stop-opacity=".7156"/><stop offset=".7582" stop-color="#dedede" stop-opacity=".6209"/><stop offset=".9081" stop-color="#f6f6f6" stop-opacity=".5459"/><stop offset="1" stop-color="#fff" stop-opacity=".5"/></linearGradient><circle cx="32" cy="32" fill="#529320" r="30"/><path d="m35.55 39.94c-4.38 0-7.94-3.55-7.94-7.94s3.55-7.94 7.94-7.94c1.28 0 2.47.33 3.54.87-1.72-1.59-4.02-2.58-6.55-2.58-5.33 0-9.65 4.32-9.65 9.64 0 5.33 4.32 9.65 9.65 9.65 2.53 0 4.83-.98 6.55-2.58-1.07.55-2.26.88-3.54.88z" fill="#ffe12c"/><circle cx="13.14" cy="23.74" fill="#ffe12c" r="9"/><path d="m12.52 30.53h2.25s.1-.21-.02-.31-.61-.13-.48-.49c.27-.75.3-.52.47-2.3s.25-4.57.25-4.57h-.32s.06.87-.13 2-.24 1.23-.45 2.1-.24.94-.42 1.45c-.19.51-.21.53-.5 1s-.19.29-.35.57c-.08.14-.18.1-.23.21-.06.1-.07.34-.07.34z" fill="#802000"/><path d="m14.23 17.19c.02.35-.02.81-.16 1.19-.15.42-.31.84-.3 1.27-.23.08-.47-.51-.7-.16.17.47.56.85.82 1.28.05.13.43.48.21.56-.56-.19-.7-.9-1.04-1.33-.4-.73-1.16-1.24-2-1.28-.32.01-1.34-.08-1.07.46.39.27.88.44 1.26.74.29.03.81.51.78.69-.51-.21-.75-.45-1.29-.67-.74-.29-1.77-.11-2.18.62-.08.19-.19.75.05.8.28-.44.68-.93 1.28-.8.47.04-.52.87-.14.71.12-.05.4-.23.59-.26.19-.02.3.13.45.15.29.04.37.16.34.23-.03.08-.13.01-.42.11-.15.05-.23.18-.4.24s-.53.06-.67.01c-.47-.21-1.24-.17-1.39.42 0 .26-.23-.03-.34.08-.08.28-.1.57-.52.55-.25.27-.52.54-.84.73.19.44.94-.44.91-.07-.33.45.17.54.39.2.37-.39.83-.87 1.38-.47.26.25.42-.13.6-.11.12.31.27.01.41-.07.22-.03.16.28.42.09.53-.35 1.17-.06 1.69-.39.55-.25.08.2-.07.38-.24.47-.03 1.08-.55 1.37-.21.55.25 1.29-.22 1.7-.07.26.6.23.79.33.33.01-.01-.75.31-.85.44.27.41-.48.33-.71.04-.53.07-1.11.34-1.58.28-.59.54.24.23.47-.18.54-.44 1.21-.03 1.71.12.03.21.31.36.39.15.09.36-.02.39-.28.19-.77.1-1.6.37-2.35.2-.23.46-.04.58.18.39.45.66 1.01 1.13 1.38.43.2.8.5 1 .94 0 .34.96.39.67.01-.28-.37-.09-.73.19-.98.15.04.11-.23-.01-.12-.19-.04-.2-.39.06-.23.44.14-.03-.32-.19-.33-.37-.23-.8-.5-.98-.9.49.01.99.27 1.48.1.4-.2.8.02.94.37.31-.05.18-.36 0-.46.22-.09.38-.28.11-.45-.14-.19.19-.51-.22-.49.01-.32-.11-.61-.46-.71-.34-.29-1.36.43-1.33-.23-.1-.36.41-.05.55-.23.15-.38-.71-.34-.42-.63.18-.12 1.05-.29.37-.41-.34.09-.63.02-.89-.14-.24.41-.94-.22-.81.5-.09.27-.71.98-.88.44.14-.42.88-.56.65-1.13-.04-.36-.33.06-.47.04-.07-.22.21-.48.41-.54.39.3.41-.38.78-.33.27-.06-.09-.18-.16-.23.07-.2.49-.3.08-.48-.36-.27-.63.27-.93.3-.29-.32.26-.48.41-.65.01-.13-.32-.04-.22-.15.09-.15.67-.16.39-.39-.41-.14-.94-.11-1.33.08-.25.08-.32.64-.53.62-.13-.29.01-.78-.34-.85zm1.94 5.45c.31-.05.01.47-.14.46.01-.19-.45-.17-.16-.33.08-.06.19-.1.3-.13z" fill="#529320"/><g fill="#ffe12c"><path d="m48.15 42.87.52 1.61 1.58-.6-.93 1.41 1.45.86-1.69.15.24 1.67-1.17-1.22-1.17 1.22.24-1.67-1.69-.15 1.46-.86-.94-1.41 1.58.6z"/><path d="m38.74 27.97.52 1.61 1.58-.6-.93 1.41 1.45.87-1.68.14.23 1.68-1.17-1.23-1.16 1.23.23-1.68-1.69-.14 1.46-.87-.94-1.41 1.58.6z"/><path d="m48.15 17.78.52 1.61 1.58-.6-.93 1.41 1.45.86-1.69.15.24 1.68-1.17-1.23-1.17 1.23.24-1.68-1.69-.15 1.46-.86-.94-1.41 1.58.6z"/><path d="m56.51 25.46.52 1.61 1.59-.6-.94 1.41 1.45.87-1.68.14.23 1.68-1.17-1.23-1.16 1.23.23-1.68-1.69-.14 1.46-.87-.94-1.41 1.59.6z"/><path d="m51.91 33.01.41 1 1.09.08-.83.7.25 1.06-.92-.58-.92.58.26-1.06-.83-.7 1.08-.08z"/></g><circle cx="32" cy="32" fill="url(#a)" opacity=".1" r="30"/></svg>