<svg enable-background="new 0 0 64 64" height="64" viewBox="0 0 64 64" width="64" xmlns="http://www.w3.org/2000/svg" xmlns:xlink="http://www.w3.org/1999/xlink"><linearGradient id="a" gradientUnits="userSpaceOnUse" x1="32" x2="32" y1="61.9997" y2="1.9998"><stop offset="0" stop-color="#1a1a1a"/><stop offset=".102" stop-color="#393939" stop-opacity=".949"/><stop offset=".3475" stop-color="#7f7f7f" stop-opacity=".8262"/><stop offset=".5688" stop-color="#b6b6b6" stop-opacity=".7156"/><stop offset=".7582" stop-color="#dedede" stop-opacity=".6209"/><stop offset=".9081" stop-color="#f6f6f6" stop-opacity=".5459"/><stop offset="1" stop-color="#fff" stop-opacity=".5"/></linearGradient><path d="m37.97 2.6h-11.94c-11.77 2.38-21.04 11.64-23.43 23.4v12c2.39 11.77 11.66 21.02 23.43 23.4h11.97c11.76-2.39 21.02-11.66 23.4-23.43v-11.97c-2.39-11.76-11.66-21.02-23.43-23.4z" fill="#f5f5f5"/><g fill="#e81c27"><path d="m38 26v-23.4c-1.94-.39-3.95-.6-6-.6s-4.06.21-6 .6v23.4h-23.4c-.39 1.94-.6 3.95-.6 6 0 2.06.21 4.06.6 6h23.4v23.4c1.94.39 3.95.6 6 .6s4.06-.21 6-.6v-23.4h23.4c.39-1.94.6-3.95.6-6s-.21-4.06-.6-6z"/><path d="m18 20h-4l1-6-1-6h4l-1 6z"/><path d="m10 16v-4l6 1 6-1v4l-6-1z"/><path d="m50 20h-4l1-6-1-6h4l-1 6z"/><path d="m42 16v-4l6 1 6-1v4l-6-1z"/><path d="m18 56h-4s1-4.5 1-6-1-6-1-6h4s-1 4.5-1 6 1 6 1 6z"/><path d="m10 52v-4l6 1 6-1v4l-6-1z"/><path d="m50 56h-4l1-6-1-6h4l-1 6z"/><path d="m42 52v-4l6 1 6-1v4l-6-1z"/></g><circle cx="32" cy="32" fill="url(#a)" opacity=".1" r="30"/></svg>