<svg enable-background="new 0 0 64 64" height="64" viewBox="0 0 64 64" width="64" xmlns="http://www.w3.org/2000/svg" xmlns:xlink="http://www.w3.org/1999/xlink"><linearGradient id="a" gradientUnits="userSpaceOnUse" x1="32.0005" x2="32.0005" y1="62" y2="2.0005"><stop offset="0" stop-color="#1a1a1a"/><stop offset=".102" stop-color="#393939" stop-opacity=".949"/><stop offset=".3475" stop-color="#7f7f7f" stop-opacity=".8262"/><stop offset=".5688" stop-color="#b6b6b6" stop-opacity=".7156"/><stop offset=".7582" stop-color="#dedede" stop-opacity=".6209"/><stop offset=".9081" stop-color="#f6f6f6" stop-opacity=".5459"/><stop offset="1" stop-color="#fff" stop-opacity=".5"/></linearGradient><path d="m48 6.629c-4.631-2.928-10.115-4.629-16-4.629s-11.367 1.701-16 4.629v50.744c4.632 2.928 10.115 4.627 16 4.627s11.37-1.699 16-4.627z" fill="#f5f5f5"/><g fill="#e81c27"><path d="m48 6.629v50.744c8.41-5.236 14-14.846 14-25.373s-5.59-20.135-14-25.371z"/><path d="m16 6.629c-8.411 5.236-14 14.844-14 25.371s5.59 20.137 14 25.373z"/><path d="m42.914 31.555c-.432-.188-.453-.574-.408-.836l1.031-3.627-3.475.721c-.119.016-.451-.01-.623-.689l-.307-1.236-2.41 2.764s-1.559 1.691-1.07-.891l1.047-5.516-1.936.959c-.109.043-.49.098-.996-.857l-1.767-3.347-1.766 3.346c-.506.955-.887.9-.998.857l-1.934-.959 1.045 5.516c.49 2.582-1.07.891-1.07.891l-2.408-2.764-.307 1.236c-.172.68-.502.705-.625.689l-3.473-.721 1.029 3.627c.045.262.025.648-.406.836l-1.087.477s3.986 3.182 5.291 4.268c.256.209.871.824.658 1.484l-.465 1.443 5.453-.828c.281-.023.879.025.84.908l-.254 5.694h.953l-.254-5.693c-.037-.883.563-.932.84-.908l5.455.828-.467-1.443c-.211-.66.404-1.275.658-1.484 1.308-1.087 5.292-4.269 5.292-4.269z"/></g><circle cx="32" cy="32" fill="url(#a)" opacity=".1" r="30"/></svg>