<svg enable-background="new 0 0 64 64" height="64" viewBox="0 0 64 64" width="64" xmlns="http://www.w3.org/2000/svg" xmlns:xlink="http://www.w3.org/1999/xlink"><linearGradient id="a" gradientUnits="userSpaceOnUse" x1="31.9993" x2="31.9993" y1="62" y2="2"><stop offset="0" stop-color="#1a1a1a"/><stop offset=".102" stop-color="#393939" stop-opacity=".949"/><stop offset=".3475" stop-color="#7f7f7f" stop-opacity=".8262"/><stop offset=".5688" stop-color="#b6b6b6" stop-opacity=".7156"/><stop offset=".7582" stop-color="#dedede" stop-opacity=".6209"/><stop offset=".9081" stop-color="#f6f6f6" stop-opacity=".5459"/><stop offset="1" stop-color="#fff" stop-opacity=".5"/></linearGradient><path d="m12 12h20.42v20.42h-20.42z" fill="#014d87"/><path d="m18.91 8.14v5.86h-7.31l14.4 18h6v-7.5z" fill="#f5f5f5"/><path d="m32 2v30h-30c0 16.57 13.43 30 30 30s30-13.43 30-30-13.43-30-30-30z" fill="#014d87"/><path d="m11 18.91h-5.99c-1.92 3.96-3.01 8.4-3.01 13.09h12v-18.09h-3z" fill="#f5f5f5"/><path d="m32 27.06-13-16.06h-6l17 21h2z" fill="#e81c27"/><path d="m18.91 5.01v5.99h-7.91v3h21v-12c-4.69 0-9.13 1.09-13.09 3.01z" fill="#f5f5f5"/><path d="m32 5h-13.09c-6.05 2.94-10.97 7.86-13.91 13.91v13.09h6v-21h21z" fill="#e81c27"/><path d="m50 33.38c-1.63 0-3-1.38-3-1.38s-1.38 1.38-3 1.38c-1.5 0-4-1.38-4-1.38s.36 8.78 2 11.77c1.75 3.19 5 6.23 5 6.23s3.25-3.04 5-6.23c1.64-2.99 2-11.77 2-11.77s-2.5 1.38-4 1.38z" fill="#f5f5f5"/><path d="m42.88 43.29c1.18 2.15 3.1 4.26 4.12 5.31 1.02-1.04 2.95-3.16 4.12-5.3z" fill="#0fb4d4"/><g fill="#f59e01"><path d="m46.97 35.54c-.92.96-.37 3.62-1.29 2.66s-.92-2.52 0-3.47c.92-.96 2.41-.96 3.33 0 .92.95-1.12-.15-2.04.81z"/><path d="m44.79 39.96c1.26.35 3.22-1.47 2.87-.17-.34 1.3-1.65 2.08-2.91 1.74s-2.01-1.68-1.67-2.99c.35-1.3.44 1.08 1.71 1.42z"/><path d="m49.58 39.71c-.34-1.3-2.84-2.14-1.58-2.49s2.57.43 2.91 1.74c.35 1.3-.4 2.64-1.67 2.99-1.25.34.69-.94.34-2.24z"/></g><circle cx="32" cy="32" fill="url(#a)" opacity=".1" r="30"/></svg>