<svg enable-background="new 0 0 64 64" height="64" viewBox="0 0 64 64" width="64" xmlns="http://www.w3.org/2000/svg" xmlns:xlink="http://www.w3.org/1999/xlink"><linearGradient id="a" gradientUnits="userSpaceOnUse" x1="32" x2="32" y1="62" y2="2"><stop offset="0" stop-color="#1a1a1a"/><stop offset=".102" stop-color="#393939" stop-opacity=".949"/><stop offset=".3475" stop-color="#7f7f7f" stop-opacity=".8262"/><stop offset=".5688" stop-color="#b6b6b6" stop-opacity=".7156"/><stop offset=".7582" stop-color="#dedede" stop-opacity=".6209"/><stop offset=".9081" stop-color="#f6f6f6" stop-opacity=".5459"/><stop offset="1" stop-color="#fff" stop-opacity=".5"/></linearGradient><path d="m32 62c5.32 0 10.31-1.39 14.64-3.82l.15-52.28c-4.37-2.48-9.41-3.9-14.79-3.9-14.93 0-27.3 10.9-29.61 25.18v9.64c2.31 14.28 14.68 25.18 29.61 25.18z" fill="#014d87"/><path d="m62 32c0-7.67-2.89-14.66-7.63-19.97l.01-.01c-.89-1-1.85-1.93-2.86-2.8-.34-.29-.68-.56-1.03-.83h-3.7v-.42l-43.2 21.55c-.06.81-1.59 1.65-1.59 2.48s1.87 1.61 1.94 2.42l42.71 21.54v-.36h3.85c.35-.27.69-.54 1.03-.83 1.01-.87 1.97-1.8 2.86-2.8l-.01-.01c4.73-5.3 7.62-12.29 7.62-19.96z" fill="#f5f5f5"/><path d="m50.5 55.6-48.5-23.4c.01 1.57.14 3.12.39 4.63l44.25 21.36c1.36-.77 2.65-1.63 3.86-2.59z" fill="#e81c27"/><path d="m2.39 27.18c-.24 1.51-.37 3.05-.39 4.62l48.5-23.4c-1.21-.96-2.5-1.82-3.86-2.58z" fill="#e81c27"/><path d="m44.7 37.88-1.6-.25-.14-2.29.24-.93-.24-.87-.08-.98-2.06-.62-1.67-.19-1.21-.98.35-2.83-4.04-.69 2.72-2.28.09-1.91 2.24-1.05 4.34-1.83.17.62 3.72-1.65-.01.61 3.14-.71 3.38-1.2-.38 3.57-1.04 1.48-.73 1.67-3.67 2.28 4.75 1.9-1.93 2.38-2.14.08 1.23.93-1.27.6.95.06-.61.67 1.16-.18-1.51 1.27.25 1.27-1.16-.49.77 1.27-1.5-.36.24 1.31-1.03-.3-.09 1.15z" fill="#785647"/><path d="m53.89 18.03-.36 3.38-1.01 1.42-.75 1.68-3.83 2.36 4.82 1.93-1.78 2.2-2.44.09 1.34 1.02-1.51.72 1.17.08-.68.74 1.08-.17-1.23 1.04.21 1.11-1.3-.55.82 1.35-1.39-.33.24 1.3-.99-.29-.09 1.15-1.47-.48-1.52-.23-.14-2.19.24-.89-.24-.94-.08-1.06-2.14-.65-1.69-.19-1.1-.91.36-2.88-3.89-.67 2.51-2.1.12-1.93 2.18-1.02 4.2-1.78.17.63 3.67-1.63-.01.57 3.3-.75zm.3-.37-.37.13-3.21 1.14-2.96.67.01-.25.01-.39-.36.16-3.41 1.51-.09-.35-.07-.28-.26.11-4.2 1.78-2.19 1.02-.13.06-.01.15-.12 1.82-2.43 2.03-.42.35.53.09 3.65.63-.33 2.64-.02.14.11.09 1.1.91.06.05.07.01 1.69.19 1.93.59.06.87.23.92-.22.83-.01.04v.04l.14 2.19.01.2.2.03 1.52.23 1.43.47.3.1.03-.32.07-.84.69.2.39.11-.07-.4-.17-.92 1.02.25.58.14-.31-.51-.42-.68.59.25.43.18-.09-.46-.19-.96 1.12-.94.68-.57-.88.13-.37.06.2-.21.36-.38-.52-.04-.21-.02.64-.31.37-.18-.33-.25-.78-.59 1.73-.06h.12l.07-.09 1.78-2.2.21-.26-.31-.13-4.36-1.74 3.41-2.1.07-.04.02-.08.75-1.68.99-1.38.04-.05.01-.06.36-3.38z" fill="#302c3b"/><path d="m46.44 42.92s.01 0 0 0c.01-.02.01-.01 0 0z" fill="#ffc221"/><path d="m46.45 42.91c0 .01-.01.01 0 0-.01 0-.01 0 0 0" fill="#302c3b"/><path d="m41.46 44.37.54.89-9-4.16 1.47-1.26.17.34 5.12.45-.07-.28 1.14-.53.03-.28-2.29.46-.09-1.16-2.44-.51-.13.67-.74-.04-.18.63-1.26-.37.27-1.36-1.91.91-3.31-2.75 4.19-.79 1.31 1.47.36-1.27 1.27.32-.17.59.68.13-.17.82 2.53.59.44-.98 2.54 1.57 1.41-1.11.26.15.63-1.17 1.1.2.33.93-.54 1.48.27.42 5.97 1.39-.29.97-.59-.14.14.81-12.65-.86-.28.44 4.54.22-.3.38 2.96-.37-.17.74 2.76-.23-2 .77 2.2 1.02-2.58-.05 1.4 1.29-2.66-1.02.04 1.03zm7.44-3.1-4.07-.94-.9.5-.01.04z" fill="#ffe12c"/><path d="m32.93 35.36 1.42 1.59.38-1.37 1.03.26-.17.6.69.13-.17.82 2.75.64.43-.95 2.49 1.54 1.42-1.11.3.17.64-1.2.94.17.3.86-.56 1.46.3.47 5.92 1.42-.22.73-5.96-1.37-.99.51-.13.26 6.44.51.13.77-12.57-.86-.43.69 4.51.21-.34.43 3.09-.38-.17.73 2.05-.17-1.46.56 1.93.9-2.32-.04 1.16 1.07-2.23-.86.04.99-2.49-1.55.6.99-8.45-3.9 1.2-1.03.13.26 5.36.47-.09-.34 1.12-.51.05-.53-2.32.47-.09-1.12-2.66-.56-.13.69-.73-.04-.17.6-1.03-.3.3-1.5-2.06.98-3.04-2.53zm.09-.27-.14.03-3.86.73-.52.1.41.34 3.04 2.53.12.1.14-.07 1.61-.77-.2 1.01-.04.22.22.06 1.03.3.24.07.07-.24.12-.41.53.03.22.01.04-.22.08-.44 2.23.47.07.93.02.28.28-.06 1.99-.4v.04l-.98.45-.19.09.05.2-4.87-.43-.07-.13-.14-.29-.24.21-1.2 1.03-.29.25.35.16 8.45 3.9.75.35-.43-.7-.05-.09 1.6.99.4.25-.02-.47-.03-.61 1.88.72 1.21.47-.96-.88-.68-.63 1.66.03 1.18.02-1.07-.5-1.4-.65.9-.35 1.63-.63-1.74.14-1.71.14.09-.39.06-.27 5.43.37.32.02-.05-.31-.08-.47.29.07.23.05.07-.22.21-.73.08-.25-.26-.06-5.82-1.39-.18-.28.51-1.34.03-.09-.03-.09-.3-.86-.05-.14-.14-.03-.94-.17-.18-.03-.09.16-.52.97-.08-.04-.15-.08-.13.1-1.28 1-2.34-1.45-.24-.15-.12.26-.34.76-2.31-.54.12-.58.05-.25-.25-.05-.42-.08.1-.29.07-.25-.25-.06-1.03-.26-.24-.06-.06.23-.26.93-1.11-1.25zm11.29 5.69.58-.3 2.32.53zm-6.57 1.09.13-.2 6.57.45-2.39.3.27-.33-.49-.02z" fill="#302c3b"/><path d="m32.36 35.13c-.52-.26-.81-.6-.86-1.02-.1-.82.8-1.6.84-1.63l.16-.14.04.21c.09.44 1.05.54 1.42.54 0 0 .13-.04.31-.04.26 0 .62.08.87.44l.05.07-.05.07c-.53.78-1.25.94-1.77.94-.31 0-.56-.06-.69-.1-.03.07-.09.23-.14.56l-.03.17z" fill="#ffe12c"/><path d="m32.42 32.57c.13.64 1.54.64 1.54.64s.13-.04.31-.04c.23 0 .54.07.76.38-.49.72-1.16.89-1.66.89-.43 0-.74-.12-.74-.12s-.13.09-.21.69c-1.8-.89 0-2.44 0-2.44zm.2-.25h-.21c-.25 0-.88.79-1.02 1.35-.11.46-.04 1.1.9 1.57l.31.15.05-.34c.03-.21.06-.34.09-.43.15.04.36.07.61.07.55 0 1.31-.17 1.87-1l.1-.14-.1-.14c-.22-.32-.56-.49-.97-.49-.15 0-.28.03-.34.04-.49-.01-1.21-.15-1.27-.44z" fill="#302c3b"/><path d="m32.34 32.58.34-.59.19-.88 4.47-2.23 1.33-1.58-.49 1.5 1.78-.38-1.41 1.08 1.9-.43-1.68 1.16 2.16-.2-1.64 1.04 1.42.13-1.67.83-2.29.6-1.63 1.03-2.29.07z" fill="#f5f5f5"/><path d="m38.36 27.87-.36 1.11 1.45-.31-1.42 1.08 1.83-.41-1.54 1.06 2.12-.19-1.27.79-.72.12 1.81.17-1.28.63-2.27.6-1.66 1.04-2.14.05-.44-1.01.31-.53.19-.87 4.42-2.2zm.63-1.13-.82.97-.93 1.09-4.36 2.17-.11.05-.03.12-.18.83-.29.49-.06.11.05.12.43 1.01.07.15h.17l2.14-.05h.07l.06-.04 1.63-1.02 2.23-.59 1.32-.64.8-.39-.88-.08-.61-.06.89-.57.87-.55-1.03.09-1.17.11.76-.52 1.06-.73-1.26.28-.72.16.51-.39.89-.68-1.1.24-1.02.22.23-.7z" fill="#302c3b"/><path d="m50.83 31.24-.69-.9.53-1.52-.26-.49.2-.98 4.07-.71-.63 1.19 1.38 1.05-.94 1.61.75 1.59z" fill="#f5f5f5"/><path d="m54.45 26.8-.55 1.06 1.37 1.04-.92 1.58.68 1.42-4.17-.79-.58-.8.53-1.52-.29-.53.19-.82zm.45-.33-.5.09-3.73.65-.16.03-.04.16-.19.82-.02.09.05.08.24.44-.49 1.41-.06.12.08.11.58.79.06.08.1.02 4.17.79.49.09-.21-.45-.62-1.3.85-1.47.11-.19-.18-.13-1.2-.92.46-.87z" fill="#302c3b"/><circle cx="32" cy="32" fill="url(#a)" opacity=".1" r="30"/></svg>