<svg enable-background="new 0 0 64 64" height="64" viewBox="0 0 64 64" width="64" xmlns="http://www.w3.org/2000/svg" xmlns:xlink="http://www.w3.org/1999/xlink"><linearGradient id="a" gradientUnits="userSpaceOnUse" x1="32" x2="32" y1="62" y2="2"><stop offset="0" stop-color="#1a1a1a"/><stop offset=".102" stop-color="#393939" stop-opacity=".949"/><stop offset=".3475" stop-color="#7f7f7f" stop-opacity=".8262"/><stop offset=".5688" stop-color="#b6b6b6" stop-opacity=".7156"/><stop offset=".7582" stop-color="#dedede" stop-opacity=".6209"/><stop offset=".9081" stop-color="#f6f6f6" stop-opacity=".5459"/><stop offset="1" stop-color="#fff" stop-opacity=".5"/></linearGradient><circle cx="32" cy="32" fill="#014d87" r="30"/><g fill="#ffe12c"><path d="m32 11.8.72 2.21h2.32l-1.88 1.36.72 2.2-1.88-1.36-1.87 1.36.71-2.2-1.87-1.36h2.32z"/><path d="m32 45.78.72 2.2h2.32l-1.88 1.37.72 2.2-1.88-1.36-1.88 1.36.72-2.2-1.87-1.37h2.31z"/><path d="m40.42 43.03.72 2.21h2.32l-1.88 1.36.72 2.21-1.88-1.37-1.88 1.37.72-2.21-1.88-1.36h2.32z"/><path d="m46.22 37.23.72 2.21h2.31l-1.87 1.36.72 2.21-1.88-1.37-1.88 1.37.72-2.21-1.88-1.36h2.32z"/><path d="m48.96 28.79.72 2.2h2.32l-1.88 1.37.72 2.2-1.88-1.36-1.87 1.36.71-2.2-1.87-1.37h2.32z"/><path d="m46.22 20.34.72 2.21h2.31l-1.87 1.36.72 2.21-1.88-1.36-1.88 1.36.72-2.21-1.88-1.36h2.32z"/><path d="m40.42 14.54.72 2.21h2.32l-1.88 1.37.72 2.2-1.88-1.36-1.88 1.36.72-2.2-1.88-1.37h2.32z"/><path d="m23.58 43.03-.72 2.21h-2.32l1.88 1.36-.72 2.21 1.88-1.37 1.88 1.37-.72-2.21 1.88-1.36h-2.32z"/><path d="m17.78 37.23-.72 2.21h-2.31l1.87 1.36-.72 2.21 1.88-1.37 1.88 1.37-.72-2.21 1.88-1.36h-2.32z"/><path d="m15.04 28.79-.72 2.2h-2.32l1.88 1.37-.72 2.2 1.88-1.36 1.87 1.36-.71-2.2 1.87-1.37h-2.32z"/><path d="m17.78 20.34-.72 2.21h-2.31l1.87 1.36-.72 2.21 1.88-1.36 1.88 1.36-.72-2.21 1.88-1.36h-2.32z"/><path d="m23.58 14.54-.72 2.21h-2.32l1.88 1.37-.72 2.2 1.88-1.36 1.88 1.36-.72-2.2 1.88-1.37h-2.32z"/></g><circle cx="32" cy="32" fill="url(#a)" opacity=".1" r="30"/></svg>