<svg enable-background="new 0 0 64 64" height="64" viewBox="0 0 64 64" width="64" xmlns="http://www.w3.org/2000/svg" xmlns:xlink="http://www.w3.org/1999/xlink"><linearGradient id="a" gradientUnits="userSpaceOnUse" x1="31.9981" x2="31.9981" y1="62" y2="2"><stop offset="0" stop-color="#1a1a1a"/><stop offset=".102" stop-color="#393939" stop-opacity=".949"/><stop offset=".3475" stop-color="#7f7f7f" stop-opacity=".8262"/><stop offset=".5688" stop-color="#b6b6b6" stop-opacity=".7156"/><stop offset=".7582" stop-color="#dedede" stop-opacity=".6209"/><stop offset=".9081" stop-color="#f6f6f6" stop-opacity=".5459"/><stop offset="1" stop-color="#fff" stop-opacity=".5"/></linearGradient><path d="m32 2v30h-30c0 16.57 13.43 30 30 30s30-13.43 30-30-13.43-30-30-30z" fill="#014d87"/><path d="m12 12h21v21h-21z" fill="#014d87"/><path d="m18.91 8.14v5.86h-7.31l14.4 18h6v-7.5z" fill="#f5f5f5"/><path d="m11 18.91h-5.99c-1.92 3.96-3.01 8.39-3.01 13.09h12v-18.09h-3z" fill="#f5f5f5"/><path d="m32 27.06-13-16.06h-6l17 21h2z" fill="#e81c27"/><path d="m18.91 5.01v5.99h-7.91v3h21v-12c-4.69 0-9.13 1.09-13.09 3.01z" fill="#f5f5f5"/><path d="m32 5h-13.09c-6.05 2.94-10.97 7.86-13.91 13.91v13.09h6v-21h21z" fill="#e81c27"/><path d="m34.54 33.86-.04.08z" fill="#d8a322"/><g fill="#f5f5f5"><path d="m51.97 21.08-.19 1.84 1.68.75-1.8.38-.2 1.83-.92-1.59-1.8.38 1.23-1.37-.92-1.6 1.69.75z"/><path d="m56.43 24.32-.92 1.6 1.23 1.37-1.8-.38-.92 1.6-.2-1.84-1.8-.38 1.69-.75-.2-1.83 1.24 1.36z"/><path d="m59.19 29.1-1.49 1.08.57 1.76-1.5-1.09-1.49 1.09.57-1.76-1.49-1.08h1.84l.57-1.75.57 1.75z"/><path d="m59.76 34.58-1.8.39-.19 1.83-.92-1.6-1.81.39 1.24-1.37-.93-1.6 1.69.75 1.23-1.37-.19 1.83z"/><path d="m58.06 39.83-1.8-.39-.93 1.6-.19-1.83-1.8-.39 1.68-.75-.19-1.83 1.23 1.37 1.69-.75-.92 1.6z"/><path d="m54.37 43.93-1.49-1.09-1.49 1.09.57-1.76-1.5-1.08h1.85l.57-1.76.57 1.76h1.84l-1.49 1.08z"/><path d="m49.33 46.17-.92-1.6-1.8.39 1.23-1.38-.92-1.59 1.68.75 1.24-1.37-.2 1.83 1.69.75-1.8.38z"/><path d="m43.82 46.17-.19-1.84-1.81-.38 1.69-.75-.2-1.83 1.24 1.37 1.68-.75-.92 1.59 1.23 1.37-1.8-.38z"/><path d="m38.78 43.93.57-1.76-1.49-1.08h1.85l.57-1.76.56 1.76h1.85l-1.49 1.08.57 1.76-1.49-1.09z"/><path d="m35.09 39.83 1.24-1.37-.93-1.6 1.69.75 1.23-1.37-.19 1.83 1.69.75-1.81.39-.19 1.83-.92-1.6z"/><path d="m33.39 34.58 1.68-.75-.19-1.83 1.24 1.37 1.68-.75-.92 1.6 1.23 1.37-1.8-.39-.93 1.6-.19-1.83z"/><path d="m33.96 29.1h1.85l.57-1.75.57 1.75h1.84l-1.49 1.08.57 1.76-1.49-1.09-1.49 1.09.57-1.76z"/><path d="m36.72 24.32 1.69.75 1.23-1.36-.19 1.83 1.68.75-1.8.38-.19 1.84-.93-1.6-1.8.38 1.23-1.37z"/><path d="m41.18 21.08 1.24 1.37 1.68-.75-.92 1.6 1.23 1.37-1.8-.38-.92 1.59-.2-1.83-1.8-.38 1.69-.75z"/><path d="m46.58 19.94.57 1.75h1.84l-1.49 1.09.57 1.75-1.49-1.08-1.5 1.08.57-1.75-1.49-1.09h1.85z"/></g><circle cx="32" cy="32" fill="url(#a)" opacity=".1" r="30"/></svg>