<svg enable-background="new 0 0 64 64" height="64" viewBox="0 0 64 64" width="64" xmlns="http://www.w3.org/2000/svg" xmlns:xlink="http://www.w3.org/1999/xlink"><linearGradient id="a" gradientUnits="userSpaceOnUse" x1="32" x2="32" y1="62" y2="2"><stop offset="0" stop-color="#1a1a1a"/><stop offset=".102" stop-color="#393939" stop-opacity=".949"/><stop offset=".3475" stop-color="#7f7f7f" stop-opacity=".8262"/><stop offset=".5688" stop-color="#b6b6b6" stop-opacity=".7156"/><stop offset=".7582" stop-color="#dedede" stop-opacity=".6209"/><stop offset=".9081" stop-color="#f6f6f6" stop-opacity=".5459"/><stop offset="1" stop-color="#fff" stop-opacity=".5"/></linearGradient><path d="m32 62c16.57 0 30-13.43 30-30h-60c0 16.57 13.43 30 30 30z" fill="#302c3b"/><path d="m32 2c-16.57 0-30 13.43-30 30h60c0-16.57-13.43-30-30-30z" fill="#e81c27"/><g fill="#ffe12c"><path d="m27.49 24.48-1.32 4.06 3.45-2.51 3.46 2.51-1.32-4.06 3.45-2.51h-4.27l-1.32-4.06-1.32 4.06h-4.27z"/><path d="m48.03 48.57c-.51-.82-1.13-1.42-1.95-2.15-.82-.72-1.94-1.52-2.78-2.33l-1.59 1.86c-.07.08-.04.26.04.27 1.78.31 2.34.94 3.05 1.54.96.97 1.35 2.14 1.97 2.57 1.17.81 2-.55 1.26-1.76z"/><path d="m33.76 41.71c-1.7.59-3.56.82-5.47.62-2.47-.26-4.82-1.24-6.74-2.82l-1.86 2.27c.81.66 1.66 1.23 2.55 1.7l-.61 1.15c.98.53 2.01.95 3.07 1.27l.38-1.25c.99.3 2 .5 3.01.6l-.13 1.3c1.11.11 2.22.11 3.33 0l-.13-1.3c1.02-.1 2.03-.3 3.01-.6l.38 1.25c.53-.16 1.04-.35 1.55-.55l-.69-2.67z"/><path d="m42.29 30.99c-.36 3.4-2.02 6.34-4.45 8.39l3.58 2.48c.47-.45.91-.93 1.33-1.43l-1.01-.83s0 0 .01-.01c.66-.8 1.23-1.66 1.7-2.54l1.15.62c.52-.98.95-2.01 1.27-3.07l-1.25-.38c.3-.99.5-2 .6-3.01l1.3.13c.11-1.11.11-2.22 0-3.33l-1.3.13c-.1-1.02-.3-2.03-.6-3.01l1.25-.38c-.32-1.06-.75-2.09-1.27-3.07l-1.15.62c-.48-.9-1.05-1.75-1.71-2.55l1.01-.83c-.71-.86-1.49-1.65-2.35-2.35l-.83 1.01s-.01-.01-.01-.01c-.79-.65-1.65-1.22-2.55-1.7l.62-1.15c-.98-.52-2.01-.95-3.07-1.27l-.38 1.25c-.95-.29-1.92-.49-2.91-.59l-.32 2.89c7 .74 12.07 7 11.34 13.99z"/><path d="m37.34 41.17c-3.36-2.37-6.84-4.82-9.77-7.58l.22-.24c2.91 2.74 6.38 5.19 9.74 7.55 1.66 1.17 3.38 2.38 5 3.61l.45-.53c-5.59-4-18.83-13.19-18.99-16.54-2.61 5.1.7 8.15 2.83 9.36 5.43 3.09 9.03 5.12 14.7 8.89l.8-.94c-1.62-1.21-3.33-2.41-4.98-3.58z"/></g><circle cx="32" cy="32" fill="url(#a)" opacity=".1" r="30"/></svg>