<svg enable-background="new 0 0 64 64" height="64" viewBox="0 0 64 64" width="64" xmlns="http://www.w3.org/2000/svg" xmlns:xlink="http://www.w3.org/1999/xlink"><linearGradient id="a" gradientUnits="userSpaceOnUse" x1="32" x2="32" y1="62" y2="2"><stop offset="0" stop-color="#1a1a1a"/><stop offset=".102" stop-color="#393939" stop-opacity=".949"/><stop offset=".3475" stop-color="#7f7f7f" stop-opacity=".8262"/><stop offset=".5688" stop-color="#b6b6b6" stop-opacity=".7156"/><stop offset=".7582" stop-color="#dedede" stop-opacity=".6209"/><stop offset=".9081" stop-color="#f6f6f6" stop-opacity=".5459"/><stop offset="1" stop-color="#fff" stop-opacity=".5"/></linearGradient><path d="m62 32c0 16.57-13.43 30-30 30s-30-13.43-30-30 13.43-30 30-30 30 13.43 30 30" fill="#e81c27"/><path d="m49.29 22.79-5.13-.28-.38-.26-1.05.82.13.83-.33 1.27-2.28 4.78-.19 1.03.09 1.07-.48.17-5.11-2.71-.2.16.23-.21-1.69-5.18-2.2-3.71-1.92-.16-1.45 1.11-6.69 2.8-1.6-.55-2.62-2.39-.8.38 2.57 4.45v.46l1.26.42.62-.56 1.24-.42 5.26-.72.97-.39.83-.67.41.31.5 5.45-3.74 3.83-2.28 3.66.74 1.77 1.66.78 5.56 4.64.25 1.68-.91 3.42.7.54 2.76-4.33.42-.21-.21-1.32-.78-.29-.95-.91-3.04-4.3-.83-.7-.96-.44.09-.51 4.69-3.01.01.04 5.26 1.44 4.31.18 1.18-1.51-.14-1.83 1.32-7.12 1.35-1.04 3.43-.88z" fill="#f5f5f5"/><path d="m23.96 37.6 1.76.07.58-.31.38-.51.47.19.1 1.44-.62.14-.43-.44-1-.03-.9.38-.53-.24z" fill="#ffe606"/><g fill="#ffe12c"><path d="m32.91 47.36-1.68.33-.18.78 1.66-.5z"/><path d="m46.46 22.72-.64.13 1.12 1.29.77-.22z"/><path d="m40.86 32.13-1.21.79.07.5.62.09.56.35.8 1.57.7-.17-.05-.58-.49-.36-.29-.23-.46-.9.17-.59z"/><path d="m17.44 22.46-.32 1.71.45.46.48-1.64z"/><path d="m29.83 20.69-.46.36-.07.98-.5.87-.58.19-.16.6 1.32.58.38-.33-.27-.57-.01-.66.88-1.52z"/></g><path d="m32.45 34.39-.11.07.02.08h.53l-.43-.12zm-3.24-4.68-.17.56.04.02.19-.2-.03-.37zm5.36-.94-.17.13.18.56-.22.21.2-.16.15.08.15-.12z" fill="#f9db17"/><path d="m34.4 28.9-2.35 1.77-2.8-.95.03.37-.2.2 2.54 1.12.71 3.06.12-.08.01.04.43.12h.07l-.38-3.2 2.13-1.76-.15-.08-.2.16.23-.21z" fill="#ffe12c"/><path d="m19.53 25.97.49 1.52h1.6l-1.29.94.49 1.51-1.29-.93-1.29.93.49-1.51-1.29-.94h1.6z" fill="#f9dd16"/><path d="m41.71 20.5.49 1.51h1.6l-1.3.94.5 1.52-1.29-.94-1.29.94.49-1.52-1.29-.94h1.59z" fill="#f9dd16"/><path d="m35.25 41.53.49 1.51h1.59l-1.29.94.5 1.52-1.29-.94-1.3.94.5-1.52-1.29-.94h1.59z" fill="#f9dd16"/><circle cx="32" cy="32" fill="url(#a)" opacity=".1" r="30"/></svg>