<svg enable-background="new 0 0 64 64" height="64" viewBox="0 0 64 64" width="64" xmlns="http://www.w3.org/2000/svg" xmlns:xlink="http://www.w3.org/1999/xlink"><linearGradient id="a" gradientUnits="userSpaceOnUse" x1="32" x2="32" y1="62" y2="2"><stop offset="0" stop-color="#1a1a1a"/><stop offset=".102" stop-color="#393939" stop-opacity=".949"/><stop offset=".3475" stop-color="#7f7f7f" stop-opacity=".8262"/><stop offset=".5688" stop-color="#b6b6b6" stop-opacity=".7156"/><stop offset=".7582" stop-color="#dedede" stop-opacity=".6209"/><stop offset=".9081" stop-color="#f6f6f6" stop-opacity=".5459"/><stop offset="1" stop-color="#fff" stop-opacity=".5"/></linearGradient><path d="m38 2.6v23.4h23.4c-2.39-11.75-11.65-21.01-23.4-23.4z" fill="#e81c27"/><path d="m26 61.4v-23.4h-23.4c2.39 11.75 11.65 21.01 23.4 23.4z" fill="#e81c27"/><path d="m38 38v23.4c11.75-2.39 21.01-11.65 23.4-23.4z" fill="#014d87"/><path d="m2.6 26h23.4v-23.4c-11.75 2.39-21.01 11.65-23.4 23.4z" fill="#014d87"/><path d="m61.4 26h-23.4v-23.4c-1.94-.39-3.95-.6-6-.6s-4.06.21-6 .6v23.4h-23.4c-.39 1.94-.6 3.95-.6 6s.21 4.06.6 6h23.4v23.4c1.94.39 3.95.6 6 .6s4.06-.21 6-.6v-23.4h23.4c.39-1.94.6-3.95.6-6s-.21-4.06-.6-6z" fill="#f5f5f5"/><g fill="#529320"><path d="m28.99 29.33s-.42-.12-.75-.11l.01-.02c.26-.4.35-1.16.35-1.16s-.65.38-.92.78c-.14-.29-.39-.59-.39-.59s-.31.35-.26.68c.05.34.48.84.48.84s.64.18.96.09c.33-.09.52-.51.52-.51z"/><path d="m28.39 30.3s-.44-.01-.76.08l.01-.02c.15-.46.04-1.21.04-1.21s-.53.54-.68.99c-.21-.25-.53-.47-.53-.47s-.21.41-.07.73c.13.31.68.69.68.69s.66.01.95-.16c.28-.18.36-.63.36-.63z"/><path d="m28.05 31.39s-.42.1-.71.28v-.02c.03-.48-.28-1.18-.28-1.18s-.37.66-.4 1.14c-.27-.18-.64-.32-.64-.32s-.09.45.12.72.83.49.83.49.64-.16.88-.4c.25-.25.2-.71.2-.71z"/><path d="m28.02 32.52s-.38.21-.61.45v-.02c-.1-.47-.58-1.07-.58-1.07s-.19.73-.09 1.2c-.3-.11-.7-.14-.7-.14s.03.46.3.67c.27.2.93.26.93.26s.58-.32.75-.61c.16-.3 0-.74 0-.74z"/><path d="m28.28 33.63s-.31.3-.48.59l-.01-.02c-.22-.43-.83-.88-.83-.88s.01.75.22 1.18c-.32-.03-.71.04-.71.04s.15.44.47.57.97.01.97.01.48-.45.56-.78-.19-.71-.19-.71z"/><path d="m28.82 34.63s-.22.37-.3.69l-.01-.02c-.32-.36-1.04-.64-1.04-.64s.2.73.52 1.08c-.32.06-.67.22-.67.22s.26.38.6.43c.34.04.94-.24.94-.24s.34-.56.34-.9c-.03-.32-.38-.62-.38-.62z"/><path d="m29.6 35.46s-.12.42-.11.75l-.02-.01c-.41-.26-1.17-.35-1.17-.35s.39.65.79.91c-.29.14-.59.39-.59.39s.35.31.69.26.84-.47.84-.47.19-.63.09-.96-.52-.52-.52-.52z"/><path d="m30.57 36.06s-.01.43.09.75l-.02-.01c-.46-.15-1.22-.04-1.22-.04s.54.53 1 .68c-.25.21-.47.53-.47.53s.42.21.73.07c.32-.13.69-.67.69-.67s.02-.66-.16-.95c-.18-.28-.64-.36-.64-.36z"/><path d="m35.09 29.33s.42-.12.75-.11l-.01-.02c-.26-.4-.35-1.16-.35-1.16s.65.38.92.78c.14-.29.39-.59.39-.59s.31.35.26.68c-.05.34-.47.84-.47.84s-.64.18-.96.09c-.34-.09-.53-.51-.53-.51z"/><path d="m35.69 30.3s.44-.01.76.08l-.01-.02c-.15-.46-.04-1.21-.04-1.21s.53.54.68.99c.21-.25.53-.47.53-.47s.21.41.07.73c-.13.31-.68.69-.68.69s-.66.01-.95-.16c-.28-.18-.36-.63-.36-.63z"/><path d="m36.03 31.39s.42.1.71.28v-.02c-.02-.48.28-1.18.28-1.18s.37.66.4 1.14c.27-.18.64-.32.64-.32s.09.45-.12.72-.83.49-.83.49-.64-.16-.88-.4c-.25-.25-.2-.71-.2-.71z"/><path d="m36.07 32.52s.38.21.61.45v-.02c.1-.47.58-1.07.58-1.07s.19.73.09 1.2c.3-.11.7-.14.7-.14s-.03.46-.3.67c-.27.2-.93.26-.93.26s-.58-.32-.75-.61c-.17-.3 0-.74 0-.74z"/><path d="m35.8 33.63s.31.3.48.59l.01-.02c.22-.43.83-.88.83-.88s-.01.75-.22 1.18c.32-.03.71.04.71.04s-.15.44-.46.57c-.32.13-.97.01-.97.01s-.48-.45-.56-.78c-.09-.33.18-.71.18-.71z"/><path d="m35.27 34.63s.22.37.31.69l.01-.02c.32-.36 1.04-.64 1.04-.64s-.2.73-.52 1.08c.32.06.67.22.67.22s-.26.38-.6.43c-.34.04-.94-.24-.94-.24s-.34-.56-.34-.9c.01-.32.37-.62.37-.62z"/><path d="m34.48 35.46s.12.42.12.75l.02-.01c.41-.26 1.17-.35 1.17-.35s-.39.65-.79.91c.29.14.59.39.59.39s-.35.31-.69.26-.84-.47-.84-.47-.19-.63-.09-.96c.09-.33.51-.52.51-.52z"/><path d="m33.51 36.06s.01.43-.08.75l.02-.01c.46-.15 1.22-.04 1.22-.04s-.54.53-1 .68c.25.21.47.53.47.53s-.42.21-.73.07c-.31-.13-.69-.67-.69-.67s-.02-.66.16-.95c.17-.28.63-.36.63-.36z"/></g><path d="m29.05 29.06c.01.05 0 4.39 0 4.84 0 .43 0 .7.21.97.17.23.45.43.73.49.19.04.91.02 1.16.02.55-.03.62.1.83.37.24-.38.5-.39.99-.37.25 0 .78.02 1-.03.26-.06.47-.19.64-.4.28-.32.26-.72.26-1.14v-4.57c0-.21-.02-.15.08-.26l.69-.72h-7.36z" fill="#f5f5f5"/><path d="m31.35 31.21v-2.95h-3.05l.76.79v2.16z" fill="#002d62"/><path d="m32.57 31.21v-2.95h3.1l-.79.84v2.11z" fill="#ce1126"/><path d="m31.35 32.43h-2.3l-.01 1.86c.1.81.71 1.09 1.24 1.09.36 0 .49 0 1.06-.01v-2.94z" fill="#ce1126"/><path d="m32.57 32.43h2.32l-.01 1.86c-.05.81-.71 1.09-1.25 1.09l-1.06-.01z" fill="#002d62"/><path d="m30.22 25.93c-.92-.02-1.86.19-2.63.68-.36.22-.44.3-.24.65l-.45.16c-.3.11-.6.23-.85.38-.15.09-.22.16-.33.28l.74-.06-.11.16c-.13.18-.2.33-.32.52.21-.14.4-.27.64-.39.53-.27 1.48-.27 1.87-.74.1-.12.04-.19-.04-.38.29-.1.4-.16.75-.24.85-.19 1.43.04 1.85-.07.13-.03.25-.1.26-.24l-.06-.43h1.38c0 .24-.23.55.2.67.39.1 1.17-.12 1.85.07l.75.24-.07.18.03.2c.07.08.18.17.29.23.22.13.51.21.78.27.78.19.85.24 1.45.64-.04-.12-.32-.53-.42-.68l.74.06c-.13-.19-.52-.4-.74-.48l-.9-.33c.08-.16.15-.29.07-.42-.12-.19-.87-.56-1.06-.61-.32-.09-.66-.16-.98-.21s-.93-.1-.93-.1c-.04-.05.09-.29-.11-.46-.12-.09-.28-.12-.46-.14-.69-.07-1.62-.05-2.31 0-.2.01-.34.03-.45.14-.18.13-.2.21-.19.45z" fill="#002d62"/><path d="m28.98 36.78c-.37.12-.62.21-.98.42-.14-.2-.32-.51-.45-.68-.07-.09-.18-.2-.31-.26-.2-.09-.28-.07-.4.05l-.09-.17c-.18-.32-.37-.47-.57-.72l-.18-.22-.07-.07c.08.26.13.5.19.78-.11-.06-.21-.12-.33-.17-.09-.03-.31-.08-.42-.07l.13.12c.23.2.38.47.47.76.1.32.33.67.57.9.05.05.19.18.28.21.27.1.26 0 .36-.05.21.35.34.53.58.8.26.27.67.35 1.04.26.16-.04.27-.09.4-.16.48-.28.25-.49.19-.71.16-.05.77-.23.99-.28.78-.14 2.21-.16 3.14-.03.08.01 1.01.26 1.1.31-.07.15-.09.23-.08.4.02.16.15.24.27.31.13.07.23.12.4.16.16.04.33.05.5.02.35-.06.53-.26.68-.44.25-.28.32-.45.45-.65l.12.08.24-.03c.12-.04.19-.13.28-.21.26-.25.47-.56.57-.91.12-.41.29-.6.59-.87-.39.01-.52.12-.74.24l.08-.4c.02-.11.09-.27.1-.38-.18.19-.33.38-.49.56-.07.1-.16.18-.23.29-.16.24-.13.25-.19.33-.55-.3-.79.44-1.16.89-.69-.39-1.28-.51-2.09-.65-.18-.02-.34-.04-.49-.06-1.01-.12-2.13-.11-3.14.04-.53.06-.85.16-1.31.26z" fill="#ce1126"/><path d="m31.7 28.09v.66h-.66v.56h.66v2.36h.55v-2.36h.68v-.56h-.68v-.66z" fill="#eac102"/><path d="m29.92 32.19 2.67-1.56 1.47 2.1-2.83 1.82z" fill="#302c3b"/><path d="m30.24 31.67 2.26-1.32 1.23 1.78-2.38 1.53z" fill="#bcbcbc"/><circle cx="32" cy="32" fill="url(#a)" opacity=".1" r="30"/></svg>