<svg enable-background="new 0 0 64 64" height="64" viewBox="0 0 64 64" width="64" xmlns="http://www.w3.org/2000/svg" xmlns:xlink="http://www.w3.org/1999/xlink"><linearGradient id="a" gradientUnits="userSpaceOnUse" x1="32" x2="32" y1="62" y2="2"><stop offset="0" stop-color="#1a1a1a"/><stop offset=".102" stop-color="#393939" stop-opacity=".949"/><stop offset=".3475" stop-color="#7f7f7f" stop-opacity=".8262"/><stop offset=".5688" stop-color="#b6b6b6" stop-opacity=".7156"/><stop offset=".7582" stop-color="#dedede" stop-opacity=".6209"/><stop offset=".9081" stop-color="#f6f6f6" stop-opacity=".5459"/><stop offset="1" stop-color="#fff" stop-opacity=".5"/></linearGradient><path d="m3.16 26.59v.98h.58v.98h.58v-.98h.58v-.98h.58v-.98h.58v-.98h.58v-.98h.58v-.98h-.58v-.98h-.58v-.98h-1.74v.98h1.16v.98h-.58v.98h-.58v.98h-.58v-.98h-.54c-.24.82-.45 1.66-.62 2.51v.44h.58z" fill="#f5f5f5"/><path d="m10.12 11.52c-.1.11-.2.21-.3.32h.3z" fill="#f5f5f5"/><path d="m14.75 7.9h-.58v.98h-.57v.98h-.58v.98h-.58v.98h-.58v-.98h-.58v-.51c-.19.19-.39.37-.58.56v.93h.58v.98h.58v.98h-.58v.98h-.58v.98h-.58v-.98h-.58v-.96h-.58v-.98c-.2.23-.39.47-.58.71v.27h-.2c-.13.17-.25.33-.38.5v.49h-.36c-.08.11-.15.22-.23.33v.65h-.43c-.21.32-.41.65-.6.98h.46v.98h.58v.98h.58v.98h.58v.98h.23.12.23v-.98h.58v-.98h.58v-.98h.58v-.98h.58v-.98h.58v-.98h.58v.98h.58v.98h.58v.98h.58v.98h.58v.98h.58v-1.97h-.58v-.98h.58v-2.94h-.58v.98h-.58v.98h-.58v-.98h-.58v-.98h-.58v-.98h.58v-.98h.58v-.98h.58v.98h.58v.98h.58v-2.95h-.58v-.99h.58v-1.81c-.19.13-.39.26-.58.39v.44zm-5.79 9.84h-.23-.12-.23v-1.97h.23.12.23z" fill="#f5f5f5"/><path d="m2.58 35.44v-.98h.58v-.98h.58v-.98h.58v-.4-.2-.39h-.58v-.98h-.58v-.98h-.58v-.98h-.38c-.13 1.12-.2 2.26-.2 3.43s.07 2.31.2 3.44z" fill="#f5f5f5"/><path d="m14.75 29.54h-.58v.99h-.57v.98h-.58v.39.2.39h.58v.98h.57v.99h.58v.98h.58v-6.88h-.58z" fill="#f5f5f5"/><path d="m9.54 12.14c-.2.22-.39.45-.58.68h.58z" fill="#f5f5f5"/><path d="m9.82 52.16c.1.11.2.21.3.32v-.32z" fill="#f5f5f5"/><path d="m8.96 51.18c.19.23.38.46.58.68v-.68z" fill="#f5f5f5"/><path d="m14.75 55.12v-.98h.58v-2.95h-.58v.98h-.58v.98h-.57v-.98h-.58v-.98h-.58v-.99h.58v-.98h.58v-.98h.58v.98h.58v.98h.58v-2.95h-.58v-.98h.58v-1.97h-.58v.98h-.58v.98h-.58v.98h-.58v.98h-.58v.98h-.58v-.98h-.58v-.98h-.58v-.98h-.58v-.98h-.58v-.98h-.58v-.98h-.23-.12-.23v.98h-.58v.98h-.58v.98h-.58v.98h-.46c.2.33.39.66.6.98h.44v.65c.08.11.15.22.23.33h.35v.49c.12.17.25.33.38.5h.2v.27c.19.24.38.47.58.71v-.97h.58v-.98h.58v-.98h.58v.98h.58v.98h.58v.98h-.58v.98h-.58v.93c.19.19.38.38.58.56v-.51h.58v-.98h.58v.98h.58v.98h.58v.98h.58v.98h.58v.44c.19.13.39.26.58.39v-1.82h-.59zm-5.79-6.89h-.23-.12-.23v-1.97h.23.12.23z" fill="#f5f5f5"/><path d="m14.75 37.41h-.58v-.98h-.57v-.99h-.58v.99h-.58v.98h-.58v.98h-.58v.99h-.58v.98h-.58v.98h.58v.99h.58v.98h1.74v-.98h-1.16v-.99h.58v-.98h.58v-.98h.58v.98h.57v.98h.58v.99h.58v-1.97h-.58v-.98h.58v-.99h-.58z" fill="#f5f5f5"/><path d="m14.75 22.66h-.58v.98h-.57v.98h-.58v-.98h-.58v-.98h-.58v-.99h1.16v-.98h-1.74v.98h-.58v.99h-.58v.98h.58v.98h.58v.99h.58v.98h.58v.98h.58v.99h.58v-.99h.57v-.98h.58v-.98h.58v-.99h-.58v-.98h.58v-1.97h-.58z" fill="#f5f5f5"/><path d="m3.74 39.38h.58v.98h.58v.98h.58v.98h-1.16v.98h1.74v-.98h.58v-.98h.58v-.98h-.58v-.98h-.58v-.98h-.58v-.98h-.58v-.98h-.58v-.98h-.58v.98h-.58v.98h-.58v.44c.17.85.38 1.69.62 2.51h.54z" fill="#f5f5f5"/><path d="m10.12 26.59h-.58v-.98h-.58v-.98h-.23-.12-.23v.98h-.58v.98h-.58v.98h-.58v.98h-.58v.98h-.58v2.36.2 2.36h.58v.98h.58v.98h.58v.98h.58v.98h.58v.98h.23.12.23v-.98h.58v-.98h.58v-.98h.58v-.98h.58v-.98h.58v-2.35-.2-2.36h-.58v-.98h-.58v-.98h-.58zm-3.48 5.31v.2.39h-.58v-.39-.2-.39h.58zm4.06.2v-.2-.39h.58v.39.2.39h-.58zm-2.32-5.51h.23.12.23v.98h-.23-.12-.23zm.58 10.82h-.23-.12-.23v-.98h.23.12.23zm1.16-6.88h-.58v.98h-.58v.39.2.39h.58v.98h.58v1.97h-.58v-.98h-.58v-.98h-.23-.12-.23v.98h-.58v.98h-.58v-1.97h.58v-.98h.58v-.39-.2-.39h-.58v-.98h-.58v-1.97h.58v.98h.58v.98h.23.12.23v-.98h.58v-.98h.58z" fill="#f5f5f5"/><g fill="#c8313e"><path d="m7.22 15.12c-.15.21-.3.43-.44.65h.44z"/><path d="m7.8 14.79v-.49c-.12.16-.24.32-.35.49z"/><path d="m8.38 13.8v-.27c-.07.09-.14.18-.2.27z"/><path d="m6.06 31.9v.2.39h.58v-.39-.2-.39h-.58z"/><path d="m14.75 16.75h.58v.98h-.58z"/><path d="m9.54 13.8v.98h.58v.98h.58v-.98h.58v-.98h.58v-.98h-.58v-.98h-.58v-.93c-.2.2-.39.4-.58.61v.32h-.3c-.09.1-.19.2-.28.3v.68h-.58v.98z"/><path d="m14.75 8.88h.58v.98h-.58z"/><path d="m14.75 11.84h-.58v-.99h-.57v.99h-.58v.98h-.58v.98h.58v.99h.58v.98h.57v-.98h.58v-.99h.58v-.98h-.58z"/><path d="m11.86 10.85v.98h.58v-.98h.58v-.98h.58v-.99h.58v-.98h.58v-.44c-1.1.78-2.15 1.63-3.14 2.54h.02c-.12.11-.23.23-.35.34v.51z"/><path d="m8.61 15.77h-.23v1.97h.23.12.23v-1.97h-.23z"/><path d="m9.54 29.54h-.58v.99h-.23-.12-.23v-.99h-.58v-.98h-.58v1.97h.58v.98h.58v.39.2.39h-.58v.98h-.58v1.97h.58v-.98h.58v-.99h.23.12.23v.99h.58v.98h.58v-1.97h-.58v-.98h-.58v-.39-.2-.39h.58v-.98h.58v-1.97h-.58z"/><path d="m14.75 23.64h.58v.98h-.58z"/><path d="m14.75 18.72h-.58v-.98h-.57v-.98h-.58v-.98h-.58v-.98h-.58v.98h-.58v.98h-.58v.98h-.58v.98h-.58v.98h-.58v.98h-.23-.12-.23v-.98h-.58v-.98h-.58v-.98h-.58v-.98h-.46c-.62 1.04-1.19 2.12-1.68 3.24-.51 1.17-.95 2.39-1.31 3.64h.54v.98h.58v-.98h.59v-.98h.58v-.98h-1.16v-.98h1.74v.98h.58v.98h.58v.98h-.58v.98h-.58v.98h-.58v.98h-.58v.98h-.58v.98h-.58v-.98h-.58v-.98h-.58v-.44c-.16.79-.28 1.59-.38 2.4h.38v.98h.58v.98h.58v.98h.58v.39.2.39h-.58v.98h-.58v.98h-.58v.98h-.38c.09.81.22 1.61.38 2.4v-.44h.58v-.98h.58v-.98h.58v.98h.58v.98h.58v.98h.58v.98h.58v.98h.58v.98h-.58v.98h-.58v.98h-1.74v-.98h1.16v-.98h-.58v-.98h-.58v-.98h-.58v.98h-.54c.36 1.31.79 2.53 1.3 3.7.49 1.12 1.06 2.2 1.67 3.25h.46v-.98h.58v-.98h.59v-.98h.58v-.98h.23.12.23v.98h.58v.98h.58v.98h.58v.98h.58v.98h.58v.98h.58v-.98h.58v-.98h.58v-.98h.58v-.98h.58v-.98h.58v-1.97h-.58v-.98h-.58v-.98h-.58v-.98h-.58v.98h-.58v.98h-.58v.98h1.16v.98h-1.74v-.98h-.58v-.98h-.58v-.98h.58v-.98h.58v-.98h.58v-.98h.58v-.98h.58v-.98h.58v.98h.58v.98h.58v.98h.58v-2.95h-.58v-.98h-.58v-.98h-.58v-.98h-.58v-.43-.2-.39h.58v-.98h.58v-.98h.58v-.98h.58v-2.95h-.58v.98h-.58v.98h-.58v.98h-.58v-.98h-.58v-.98h-.58v-.98h-.58v-.98h-.58v-.98h-.58v-.98h.58v-.98h.58v-.98h1.74v.98h-1.16v.98h.58v.98h.58v.98h.58v-.98h.58v-.98h.58v-.98h.58v-1.97h-.58v-1.01zm-4.05 8.85v.98h.58v.98h.58v2.36.2 2.36h-.58v.98h-.58v.98h-.58v.98h-.58v.98h-.58v.98h-.23-.12-.23v-.98h-.58v-.98h-.58v-.98h-.58v-.98h-.58v-.98h-.58v-2.35-.2-2.36h.58v-.98h.58v-.98h.58v-.98h.58v-.98h.58v-.98h.23.12.23v.98h.58v.98h.58v.98h.58z"/><path d="m8.73 27.57h.23v-.98h-.23-.12-.23v.98h.23z"/><path d="m7.22 48.23h-.44c.14.22.29.43.44.65z"/><path d="m7.8 49.21h-.36c.12.16.24.32.35.49v-.49z"/><path d="m8.38 50.2h-.2c.07.09.13.18.2.27z"/><path d="m14.75 46.26h.58v.98h-.58z"/><path d="m14.75 49.21h-.58v-.98h-.57v.98h-.58v.99h-.58v.98h.58v.98h.58v.99h.57v-.99h.58v-.98h.58v-.98h-.58z"/><path d="m8.96 51.18v-.01z"/><path d="m9.54 51.18v.68c.09.1.19.2.28.3h.3v.32c.19.21.38.41.58.61v-.93h.58v-.98h.58v-.98h-.58v-.98h-.58v-.98h-.58v.98h-.58v.98h-.58v.98.01h.58z"/><path d="m14.75 54.13h.58v.98h-.58z"/><path d="m11.61 54c.99.92 2.04 1.76 3.14 2.54v-.44h-.58v-.98h-.57v-.98h-.58v-.98h-.58v-.98h-.58v.98h-.58v.51c.12.11.23.23.35.34h-.02z"/><path d="m8.61 46.26h-.23v1.97h.23.12.23v-1.97h-.23z"/><path d="m14.75 39.38h.58v.98h-.58z"/><path d="m11.28 32.1v-.2-.39h-.58v.39.2.39h.58z"/><path d="m8.61 36.43h-.23v.98h.23.12.23v-.98h-.23z"/></g><path d="m15.33 44v12.93c4.77 3.2 10.5 5.07 16.67 5.07 7.87 0 15.04-3.04 20.39-8h-.02c3.01-2.79 5.46-6.18 7.13-10z" fill="#529320"/><path d="m59.5 44c1.61-3.68 2.5-7.73 2.5-12s-.9-8.32-2.5-12c-1.67-3.82-4.12-7.21-7.13-10h.02c-5.35-4.96-12.52-8-20.39-8-6.17 0-11.9 1.87-16.67 5.07v36.93z" fill="#e81c27"/><circle cx="32" cy="32" fill="url(#a)" opacity=".1" r="30"/></svg>