<svg enable-background="new 0 0 64 64" height="64" viewBox="0 0 64 64" width="64" xmlns="http://www.w3.org/2000/svg" xmlns:xlink="http://www.w3.org/1999/xlink"><linearGradient id="a" gradientUnits="userSpaceOnUse" x1="32" x2="32" y1="62" y2="2"><stop offset="0" stop-color="#1a1a1a"/><stop offset=".102" stop-color="#393939" stop-opacity=".949"/><stop offset=".3475" stop-color="#7f7f7f" stop-opacity=".8262"/><stop offset=".5688" stop-color="#b6b6b6" stop-opacity=".7156"/><stop offset=".7582" stop-color="#dedede" stop-opacity=".6209"/><stop offset=".9081" stop-color="#f6f6f6" stop-opacity=".5459"/><stop offset="1" stop-color="#fff" stop-opacity=".5"/></linearGradient><path d="m2 32c0 16.57 13.43 30 30 30 11.74 0 21.91-6.75 26.83-16.58l-53.66-26.84c-2.02 4.04-3.17 8.6-3.17 13.42z" fill="#014d87"/><path d="m32 2c-11.74 0-21.9 6.75-26.83 16.58l53.66 26.83c2.03-4.03 3.17-8.59 3.17-13.41 0-16.57-13.43-30-30-30z" fill="#529320"/><circle cx="32" cy="32" fill="#ffe12c" r="11.22"/><path d="m25.15 26.96c.77 1.05 1.93 2.82 2.87 2.36.73 0 1.11.05 1.21.54 1.72.29 4.62-.43 6.41-2.78 0 0 .15.02.1-.87.01-.39.53-.31.54-.18.07.19.06.34.16.34.22-.07.52-.57.78-.89.07-.14.03-.29.05-.46.13-.33.47-.26.54-.09.06.11.06.2.13.31.34.22.95.01 1 .01.06-.28.24-.25.24-.25.23-.05.14-.03.29.05-.13 1.49.29 1.56.26 2.32.02.86-.26 1.1-.26 1.42.08.4 1.34.41.9.75-.39.21 0 .6-.58.75-1.7.87-2.03 1.61-2.03 1.61l-.48.81c-.29.54-.65.25-.85.51-.1.33-.21 1.06-.01 1.44.1.52-.01.81-.14 1.33-.11 1.09-.55 1.26-.6 1.64-.2.41.04 2.33-.15 2.33-1.27.02-2.24-.24-2.74-.34.49-2.11.3-3.96.3-4.15-.13-1.51-2.26-1.14-2.59-1.34-.27-.06-.44-.28-.54-.37-.3-.03-.41-.1-.71-.13-.15.08-.06.15-.4.26-.85.1-1.23-.74-1.23-.74.04-.29-1.91.06-2.98-.19-.43.24-.62.96-.98 1.05-.01.22-.59-.19-.71-.4-.02-.64.56-.92.56-.92.46-.32.73-.38.95-.6.11-.55.05-.97.29-1.38.2-.32.5-.17.7-.31.21-.14.31-1.08.11-1.33l-.91-.83c-.28-.82.33-1.34.5-1.28z" fill="#529320"/><path d="m60.52 26.75c-.15-.33-.62-.44-.96-.67-.49-.12-.83-.15-1.17.05-.11.06-.21.12-.32.17l-.53-.07c-1.15.03-1.34-3.79-1.87-5.35-.35-1.03-2.89-3.1-4.78-4.39-.45-.26-.71-.06-.62.35.25.35.45.74.7 1.1.08.24.21.41.29.65l.09.46c.6.57.72 1.08.72 1.08.37.59.69 1.02 1.29 1.48.66.34.29 1.61.36 2.26.03.41-.27.39-.53.36-2.18-1.71-4.2-1.56-6.02-1.96-.7-.02-.69.31-.45.48 1.35 1.23 2.59 2.05 4.19 2.68l.81.42c.31.22.63.45.94.67.72.39.81.79.81.83.08.83-.31 1.51-.42 1.78-.17.9-3.01 2.85-8.18 3.88-.1-.04-.68.1.02.3 5.34-.41 9.46-3.19 9.73-3.3.8-.51 3.09-1.19 3.59-1.67.61-.1 1.24-.23 1.25-.76.19-.15.49-.08.68-.52.47-.14.38-.31.38-.31z" fill="#ffe12c"/><g fill="#f5f5f5"><path d="m12.2 28.2-.76-.72-.77.71.08-1.05-1.03-.16.87-.59-.52-.9 1 .31.39-.97.38.97 1-.3-.53.91.86.59-1.03.15z"/><path d="m14.91 36.85-.82-.55-.8.58.28-.94-.81-.56.99-.03.3-.92.34.91.99-.01-.79.6z"/><path d="m12.36 44.29-.77-.71-.77.7.08-1.04-1.03-.16.87-.59-.52-.91 1 .31.39-.97.38.98 1-.3-.53.9.86.6-1.03.15z"/><path d="m5.5 35.57-.76-.72-.77.71.08-1.04-1.03-.17.86-.58-.51-.91.99.31.4-.97.37.98 1-.3-.52.9.86.59-1.04.16z"/><path d="m18.69 33.28-.76-.71-.77.7.08-1.04-1.03-.16.86-.59-.51-.91 1 .31.39-.96.37.97 1-.3-.52.9.86.6-1.04.15z"/></g><circle cx="32" cy="32" fill="url(#a)" opacity=".1" r="30"/></svg>