<svg enable-background="new 0 0 64 64" height="64" viewBox="0 0 64 64" width="64" xmlns="http://www.w3.org/2000/svg" xmlns:xlink="http://www.w3.org/1999/xlink"><linearGradient id="a" gradientUnits="userSpaceOnUse" x1="32" x2="32" y1="62" y2="2"><stop offset="0" stop-color="#1a1a1a"/><stop offset=".102" stop-color="#393939" stop-opacity=".949"/><stop offset=".3475" stop-color="#7f7f7f" stop-opacity=".8262"/><stop offset=".5688" stop-color="#b6b6b6" stop-opacity=".7156"/><stop offset=".7582" stop-color="#dedede" stop-opacity=".6209"/><stop offset=".9081" stop-color="#f6f6f6" stop-opacity=".5459"/><stop offset="1" stop-color="#fff" stop-opacity=".5"/></linearGradient><path d="m2 32c0 16.57 13.43 30 30 30 11.74 0 21.91-6.75 26.83-16.58l-53.66-26.84c-2.03 4.04-3.17 8.6-3.17 13.42z" fill="#ffe12c"/><path d="m32 2c-11.74 0-21.91 6.75-26.83 16.58l53.66 26.83c2.03-4.03 3.17-8.59 3.17-13.41 0-16.57-13.43-30-30-30z" fill="#529320"/><path d="m32 17.91 3.29 10.13h10.65l-8.62 6.25 3.3 10.13-8.62-6.26-8.61 6.26 3.29-10.13-8.62-6.25h10.65z" fill="#e81c27"/><circle cx="32" cy="32" fill="url(#a)" opacity=".1" r="30"/></svg>