<svg enable-background="new 0 0 64 64" height="64" viewBox="0 0 64 64" width="64" xmlns="http://www.w3.org/2000/svg" xmlns:xlink="http://www.w3.org/1999/xlink"><linearGradient id="a" gradientUnits="userSpaceOnUse" x1="32" x2="32" y1="62" y2="2"><stop offset="0" stop-color="#1a1a1a"/><stop offset=".102" stop-color="#393939" stop-opacity=".949"/><stop offset=".3475" stop-color="#7f7f7f" stop-opacity=".8262"/><stop offset=".5688" stop-color="#b6b6b6" stop-opacity=".7156"/><stop offset=".7582" stop-color="#dedede" stop-opacity=".6209"/><stop offset=".9081" stop-color="#f6f6f6" stop-opacity=".5459"/><stop offset="1" stop-color="#fff" stop-opacity=".5"/></linearGradient><path d="m32 2c-10.82 0-20.3 5.73-25.58 14.32v19.06h-4.23c1.68 14.98 14.38 26.62 29.81 26.62 10.82 0 20.3-5.73 25.58-14.32v-19.06h4.23c-1.68-14.97-14.38-26.62-29.81-26.62z" fill="#ffe12c"/><path d="m2.72 25.49 58.57 13.02c.46-2.1.71-4.27.71-6.51 0-1.14-.07-2.27-.19-3.38l-55.39-12.3c-1.71 2.79-2.98 5.88-3.7 9.17z" fill="#f5f5f5"/><path d="m61.28 38.51-58.56-13.02c-.47 2.1-.72 4.27-.72 6.51 0 1.14.07 2.27.19 3.38l55.38 12.31c1.72-2.8 2.98-5.89 3.71-9.18z" fill="#302c3b"/><g fill="#e81c27"><path d="m22.02 33.29c0 5.64 4.45 10.22 9.93 10.22s9.93-4.58 9.93-10.22c0-2.15-.65-4.14-1.75-5.78.58 1.23.92 2.62.92 4.08 0 4.21-2.69 7.77-6.4 8.95l-1.97-4.93v-7.86c.42.15 1.04.39 1.86.75 3.21 1.38 5.69-2.77 5.69-2.77s-2.28.32-4.14-1.49c-1.21-1.18-2.59-.64-3.41-.13v-1.15h1.55s.41-4.69-2.33-5.96v3.41h-1.5v2.56h.62v1.03c-.83-.47-2.09-.84-3.21.25-1.86 1.81-4.14 1.49-4.14 1.49s2.48 4.15 5.69 2.77c.7-.3 1.24-.52 1.65-.67v7.68h-.04l-1.97 4.92c-3.58-1.26-6.15-4.75-6.15-8.86 0-1.46.33-2.84.92-4.08-1.11 1.65-1.75 3.64-1.75 5.79z"/><path d="m21.19 40.64v-7.99c-3.21-1.7-3.21-4.15-3.21-4.15h-2.48c0 4.47 2.48 5.11 2.48 5.11v7.03z"/><path d="m46.02 28.5s0 2.45-3.21 4.15v7.99h3.21v-7.03s2.48-.64 2.48-5.11z"/><path d="m31.9 45.21c-3.56-.02-6.71-1.81-8.66-4.56l-2.98 4.57s2.69-.21 5.17 1.17c2.47 1.38 3.2.02 6.47 0 3.26.01 4 1.38 6.46 0 2.48-1.38 5.17-1.17 5.17-1.17l-2.98-4.57c-1.94 2.75-5.1 4.54-8.65 4.56z"/></g><circle cx="32" cy="32" fill="url(#a)" opacity=".1" r="30"/></svg>