<svg enable-background="new 0 0 64 64" height="64" viewBox="0 0 64 64" width="64" xmlns="http://www.w3.org/2000/svg" xmlns:xlink="http://www.w3.org/1999/xlink"><linearGradient id="a" gradientUnits="userSpaceOnUse" x1="32" x2="32" y1="62" y2="2"><stop offset="0" stop-color="#1a1a1a"/><stop offset=".102" stop-color="#393939" stop-opacity=".949"/><stop offset=".3475" stop-color="#7f7f7f" stop-opacity=".8262"/><stop offset=".5688" stop-color="#b6b6b6" stop-opacity=".7156"/><stop offset=".7582" stop-color="#dedede" stop-opacity=".6209"/><stop offset=".9081" stop-color="#f6f6f6" stop-opacity=".5459"/><stop offset="1" stop-color="#fff" stop-opacity=".5"/></linearGradient><path d="m2 32c0 5.88 1.7 11.37 4.63 16h50.74c2.93-4.63 4.63-10.12 4.63-16s-1.7-11.37-4.63-16h-50.74c-2.93 4.63-4.63 10.12-4.63 16z" fill="#f5f5f5"/><path d="m57.37 16c-5.31-8.41-14.69-14-25.37-14s-20.06 5.59-25.37 14z" fill="#a0d8e9"/><path d="m6.63 48c5.31 8.41 14.69 14 25.37 14s20.06-5.59 25.37-14z" fill="#a0d8e9"/><path d="m45.74 31.83-8.16-.31c0-.03 0-.06-.01-.09 1.33-.25 2.29-1 3.67-.87 1.7.15 2.66-.78 3.32-1s1.05.23 1.15.04c.09-.19-.43-.62-1.37-.48s-1.22.85-3.29.68c-1.76-.14-2.38.57-3.68.63-.01-.04-.03-.08-.04-.13l7.42-3.41s.24-.1.17-.26c-.06-.16-.3-.06-.3-.06l-7.66 2.84c-.01-.03-.03-.06-.04-.08 1.14-.74 1.73-1.8 3.05-2.21 1.63-.51 2.16-1.74 2.69-2.19s1.06-.19 1.08-.4c.01-.21-.63-.41-1.45.08-.81.49-.8 1.25-2.78 1.89-1.68.54-1.98 1.43-3.15 1.99-.03-.03-.05-.07-.08-.1l5.55-5.99s.18-.18.06-.3-.3.06-.3.06l-5.99 5.55c-.02-.02-.05-.04-.07-.06.77-1.12.91-2.32 1.98-3.21 1.31-1.09 1.33-2.43 1.64-3.05s.91-.58.84-.78-.74-.13-1.3.63c-.57.76-.26 1.46-1.84 2.81-1.34 1.14-1.28 2.08-2.15 3.05-.04-.02-.08-.04-.12-.06l2.84-7.66s.1-.24-.06-.3c-.16-.08-.26.16-.26.16l-3.41 7.42c-.03-.01-.06-.02-.09-.03.29-1.33-.05-2.5.6-3.73.79-1.51.3-2.75.35-3.45.05-.69.62-.88.48-1.05-.14-.16-.74.16-.97 1.08s.32 1.45-.63 3.3c-.8 1.57-.39 2.41-.82 3.64-.04 0-.09-.01-.13-.01l-.31-8.16s0-.26-.17-.26-.17.26-.17.26l-.31 8.16c-.03 0-.06 0-.09.01-.25-1.33-1-2.29-.88-3.67.15-1.7-.78-2.66-1-3.32s.23-1.05.04-1.15c-.19-.09-.62.43-.48 1.37s.85 1.22.68 3.29c-.14 1.76.56 2.38.63 3.68-.04.01-.08.02-.13.04l-3.41-7.42s-.1-.24-.26-.17-.06.3-.06.3l2.84 7.66c-.03.01-.05.03-.08.04-.74-1.14-1.8-1.73-2.21-3.06-.51-1.63-1.74-2.16-2.19-2.68-.45-.53-.19-1.06-.4-1.08-.21-.01-.41.63.08 1.45.49.81 1.25.8 1.89 2.78.54 1.68 1.43 1.98 1.99 3.16-.03.03-.07.05-.1.08l-5.99-5.55s-.18-.18-.3-.06.06.3.06.3l5.55 5.99c-.02.02-.04.05-.06.07-1.12-.77-2.32-.91-3.21-1.98-1.09-1.31-2.43-1.33-3.05-1.64s-.58-.91-.78-.84c-.21.07-.14.74.63 1.31.76.57 1.46.26 2.81 1.84 1.14 1.34 2.08 1.28 3.05 2.15-.02.04-.04.08-.06.12l-7.66-2.84s-.24-.1-.3.06c-.07.15.17.25.17.25l7.42 3.41c-.01.03-.02.06-.03.09-1.33-.29-2.5.05-3.73-.6-1.51-.79-2.75-.3-3.45-.35-.69-.05-.88-.62-1.05-.48-.16.14.16.74 1.08.97s1.45-.32 3.3.63c1.57.8 2.41.39 3.64.82 0 .04-.01.09-.01.13l-8.16.31s-.26 0-.26.17.26.17.26.17l8.16.31c0 .03 0 .06.01.09-1.34.24-2.29 1-3.67.88-1.7-.15-2.66.78-3.32 1s-1.05-.23-1.15-.04c-.09.19.43.62 1.37.48s1.22-.85 3.29-.68c1.76.14 2.38-.56 3.68-.63.01.04.02.08.04.13l-7.42 3.41s-.24.1-.17.26c.06.16.3.06.3.06l7.66-2.84c.01.03.03.06.04.08-1.14.74-1.73 1.8-3.06 2.21-1.63.51-2.16 1.74-2.68 2.19-.53.45-1.06.19-1.08.4-.01.22.63.41 1.45-.08.81-.49.8-1.25 2.78-1.89 1.68-.54 1.98-1.43 3.15-1.99.03.03.05.07.08.1l-5.55 5.99s-.18.18-.06.3.31-.06.31-.06l5.99-5.56c.02.02.05.04.07.06-.77 1.12-.91 2.32-1.98 3.21-1.31 1.09-1.33 2.43-1.64 3.05s-.91.58-.84.78.74.14 1.3-.63c.57-.76.26-1.46 1.84-2.81 1.34-1.14 1.28-2.08 2.15-3.05l.12.06-2.84 7.66s-.1.24.06.3c.16.07.26-.17.26-.17l3.41-7.42c.03.01.06.02.09.03-.29 1.33.05 2.49-.6 3.73-.79 1.51-.3 2.75-.35 3.45-.05.69-.62.89-.48 1.05s.74-.16.97-1.08-.32-1.45.63-3.3c.8-1.57.39-2.41.82-3.64.04 0 .09.01.13.01l.31 8.16s0 .26.17.26.17-.26.17-.26l.31-8.16c.03 0 .06 0 .09-.01.24 1.33 1 2.29.87 3.67-.15 1.7.78 2.66 1 3.32s-.23 1.05-.04 1.15c.19.09.62-.43.48-1.37s-.85-1.22-.68-3.29c.14-1.76-.56-2.38-.63-3.68.04-.01.08-.02.13-.04l3.41 7.42s.1.24.26.17.06-.3.06-.3l-2.84-7.66c.03-.01.05-.03.08-.04.74 1.14 1.8 1.73 2.21 3.06.51 1.63 1.74 2.16 2.19 2.68.45.53.19 1.06.4 1.08.21.01.41-.63-.08-1.45-.49-.81-1.25-.8-1.89-2.78-.54-1.68-1.43-1.98-1.99-3.16.04-.03.07-.05.1-.08l5.99 5.56s.18.18.3.06-.06-.31-.06-.31l-5.55-5.99c.02-.02.04-.05.06-.07 1.12.77 2.32.91 3.21 1.98 1.09 1.31 2.43 1.33 3.05 1.64s.58.91.79.84c.2-.07.13-.74-.63-1.31s-1.46-.26-2.81-1.84c-1.14-1.34-2.08-1.28-3.05-2.15.02-.04.04-.08.06-.12l7.66 2.84s.24.1.3-.06c.07-.16-.17-.26-.17-.26l-7.42-3.41c.01-.03.02-.06.03-.09 1.33.29 2.5-.05 3.73.6 1.51.79 2.75.3 3.45.35.69.05.88.62 1.05.48.16-.14-.16-.74-1.08-.97s-1.45.32-3.3-.63c-1.57-.8-2.41-.39-3.64-.82.01-.04.01-.09.01-.13l8.16-.31s.26 0 .26-.17c-.01-.15-.27-.15-.27-.15z" fill="#f6b40e"/><g fill="#85340a"><path d="m34.97 31.27c-.28-.3-.68-.47-1.06-.47s-.75.17-.96.51c.43.39 1.38.43 2.02-.04zm-.3-.05c-.16.18-.36.29-.57.33.11-.07.18-.19.18-.33 0-.13-.06-.25-.16-.32.28.05.51.19.55.32zm-1.02-.29c-.08.07-.14.18-.14.3 0 .15.08.27.21.34-.21-.03-.42-.12-.59-.25.13-.22.32-.34.52-.39z"/><path d="m33.98 30.54c-.56 0-.69.13-.95.34-.26.22-.39.17-.43.22-.04.04 0 .17.09.13s.26-.13.52-.34.52-.21.78-.21c.78 0 1.21.65 1.29.6s-.44-.74-1.3-.74z"/><path d="m32.34 30.36c-.06.16-.11.32-.13.49-.11.64.01 1.31.35 1.96.04-.04.13-.09.17-.09-.38-.54-.54-1.07-.45-1.56.04-.25.15-.49.32-.72.69-.65 1.94-.52 2.93.34-.95-1.28-2.24-1.19-3.19-.42z"/><path d="m33.29 31.66c-.35-.17-.43-.26-.52-.26s-.09.09.35.34c.43.26 1.16.3 1.89-.26-.86.35-1.37.35-1.72.18z"/><path d="m32.82 33.28c-.14 0-.25-.11-.26-.25-.04.08-.21.33-.54.35-.33-.01-.49-.26-.54-.35-.01.14-.12.25-.26.25s-.26-.12-.26-.26c0-.11.07-.21.17-.25-.19.03-.32.2-.32.38 0 .21.18.38.39.38.13 0 .24-.06.31-.16.15.11.36.12.47.13h.05c.11 0 .32-.01.47-.13.07.1.19.16.31.16.21 0 .39-.17.39-.38 0-.19-.13-.35-.31-.38.1.04.17.14.17.25.02.14-.1.26-.24.26z"/><path d="m31.99 34.18c.18 0 .44-.21.74-.04s.48.34.69.43c-.39-.26-.56-.65-1-.65-.09 0-.26.05-.43.13h-.01c-.17-.09-.34-.13-.43-.13-.43 0-.6.39-.99.65.21-.09.38-.26.69-.43s.57.04.74.04z"/><path d="m32 34.48c-.17 0-.29-.06-.58-.05-.17.01-.39.04-.7.13-.05 0-.09 0-.14 0 .9.09.47.61 1.42.61.95 0 .52-.52 1.42-.61-.06 0-.11-.01-.16-.01-.83-.23-1.01-.07-1.26-.07zm0 .56c-.73 0-.51-.49-1.26-.48h-.01c.75-.16.93.09 1.27.09.34 0 .51-.25 1.25-.1-.74.01-.53.49-1.25.49z"/><path d="m32 35.19c-.43 0-.77.35-.77.78.08-.36.41-.61.77-.61.37 0 .69.25.78.61 0-.43-.35-.78-.78-.78z"/><path d="m31.45 30.45c.17.23.28.47.32.72.09.49-.07 1.02-.45 1.56.04 0 .13.04.17.09.34-.65.46-1.33.35-1.96-.03-.17-.08-.33-.13-.49-.95-.77-2.24-.86-3.19.43.99-.87 2.24-1 2.93-.35z"/><path d="m30.85 30.88c.26.22.43.3.52.34s.13-.09.09-.13-.17 0-.43-.22c-.26-.21-.39-.34-.95-.34-.86 0-1.38.69-1.29.73s.52-.6 1.29-.6c.25.01.51.01.77.22z"/><path d="m29.08 31.31c.23.21.61.31 1.01.3h.01.01c.34-.02.7-.12 1-.34-.28-.3-.68-.47-1.06-.47-.39 0-.76.17-.97.51zm.18 0c.15-.24.38-.36.62-.41-.1.07-.17.18-.17.32 0 .15.09.29.22.35-.25-.01-.49-.11-.67-.26zm1.54-.09c-.14.15-.3.25-.47.3.09-.07.15-.18.15-.3s-.06-.23-.14-.3c.24.06.43.18.46.3z"/><path d="m31.28 31.4c-.09 0-.17.09-.52.26-.34.17-.86.17-1.72-.17.73.56 1.46.52 1.89.26.43-.27.43-.35.35-.35z"/></g><circle cx="32" cy="32" fill="url(#a)" opacity=".1" r="30"/></svg>