<svg enable-background="new 0 0 64 64" height="64" viewBox="0 0 64 64" width="64" xmlns="http://www.w3.org/2000/svg" xmlns:xlink="http://www.w3.org/1999/xlink"><linearGradient id="a" gradientUnits="userSpaceOnUse" x1="31.9995" x2="31.9995" y1="2" y2="62.0005"><stop offset="0" stop-color="#f90"/><stop offset=".2875" stop-color="#ff9500"/><stop offset=".5853" stop-color="#f80"/><stop offset=".8868" stop-color="#ff7400"/><stop offset="1" stop-color="#ff6a00"/></linearGradient><path d="m2 32c0-16.564 13.439-30 30-30 16.572 0 30 13.436 30 30 0 16.57-13.428 30-30 30-16.561 0-30-13.43-30-30z" fill="url(#a)"/><path d="m20.484 38.436c-.044-.729.337-1.11 1.021-1.11h4.07c.639 0 .997.382 1.109 1.065.291 2.591 1.861 3.6 4.295 3.6 2.758 0 4.372-1.301 4.372-3.88v-21.046c0-.685.382-1.065 1.065-1.065h4.037c.684 0 1.064.381 1.064 1.065v21.045c0 6.784-5.102 9.89-10.539 9.89-5.178 0-10.022-2.804-10.494-9.564z" fill="#fff"/></svg>