<svg enable-background="new 0 0 64 64" height="64" viewBox="0 0 64 64" width="64" xmlns="http://www.w3.org/2000/svg" xmlns:xlink="http://www.w3.org/1999/xlink"><clipPath id="a"><path d="m50.83 39.71-.11.13zm-3.21-5.54-4.11 4.39c.16.43.39.85.71 1.25l3.42-3.49 3.2 3.38c.34-.44.56-.9.71-1.39z"/></clipPath><clipPath id="b"><path d="m52.06 29.76c-.55.35-1.19.45-1.79.36.73-.15 1.36-.68 1.58-1.44.23-.8-.04-1.62-.62-2.13.1.35.1.74-.01 1.12-.32 1.1-1.54 1.91-2.57 1.41-.5-.24-.58-.86-.63-1.23-.34.68-.36 1.49-.05 2.21-.06.1-.13.2-.17.31-.38.97.1 2.06 1.07 2.43.7.27 1.47.09 1.98-.39-.33.06-.68.03-1.01-.1-.57-.22-.96-.69-1.12-1.23.85.69 2.08.81 3.06.2.9-.56 1.34-1.58 1.22-2.56-.19.41-.52.78-.94 1.04z"/></clipPath><clipPath id="c"><path d="m42.71 25.89c.54 1.53.08 3.09-1.02 3.48-.3.11-.62.11-.94.04.63.67 1.46.98 2.18.73 1.11-.39 1.56-1.95 1.02-3.48-.39-1.11-1.2-1.91-2.04-2.11.34.35.62.81.8 1.34z"/></clipPath><clipPath id="d"><path d="m36.2 27.18c-.28.8-.04 1.62.54 1.82.16.06.33.06.49.02-.33.35-.76.52-1.14.38-.58-.2-.82-1.02-.54-1.82.21-.58.63-1 1.07-1.1-.17.18-.32.42-.42.7z"/></clipPath><clipPath id="e"><path d="m58.15 25.41c-.84.17-1.42.79-1.29 1.39.03.17.11.31.23.43-.47-.1-.83-.39-.91-.79-.12-.6.46-1.23 1.29-1.39.61-.12 1.18.03 1.5.36-.25-.05-.53-.06-.82 0z"/></clipPath><clipPath id="f"><path d="m56.04 27.45c-1.3.32-2.5-.35-2.69-1.5-.05-.32-.02-.63.08-.94-.62.53-.96 1.3-.84 2.06.19 1.15 1.39 1.82 2.69 1.5.94-.23 1.68-.92 1.93-1.73-.32.29-.72.5-1.17.61z"/></clipPath><linearGradient id="g" gradientUnits="userSpaceOnUse" x1="32" x2="32" y1="62" y2="2"><stop offset="0" stop-color="#1a1a1a"/><stop offset=".102" stop-color="#393939" stop-opacity=".949"/><stop offset=".3475" stop-color="#7f7f7f" stop-opacity=".8262"/><stop offset=".5688" stop-color="#b6b6b6" stop-opacity=".7156"/><stop offset=".7582" stop-color="#dedede" stop-opacity=".6209"/><stop offset=".9081" stop-color="#f6f6f6" stop-opacity=".5459"/><stop offset="1" stop-color="#fff" stop-opacity=".5"/></linearGradient><path d="m12 12h20.75v20.75h-20.75z" fill="#014d87"/><path d="m18.91 8.14v5.86h-7.31l14.4 18h6v-7.5z" fill="#f5f5f5"/><path d="m32 2v30h-30c0 16.57 13.43 30 30 30s30-13.43 30-30-13.43-30-30-30z" fill="#014d87"/><path d="m11 18.91h-5.99c-1.92 3.96-3.01 8.4-3.01 13.09h12v-18.09h-3z" fill="#f5f5f5"/><path d="m32 27.06-13-16.06h-6l17 21h2z" fill="#e81c27"/><path d="m18.91 5.01v5.99h-7.91v3h21v-12c-4.69 0-9.13 1.09-13.09 3.01z" fill="#f5f5f5"/><path d="m32 5h-13.09c-6.05 2.94-10.97 7.86-13.91 13.91v13.09h6v-21h21z" fill="#e81c27"/><path d="m50.05 27.92c.57-1.52 1.92-2.42 3.02-2.01.3.11.55.31.75.58-.05-.92-.48-1.69-1.2-1.96-1.1-.41-2.45.49-3.02 2.01-.41 1.1-.3 2.23.21 2.93-.03-.5.05-1.03.24-1.55z" fill="#f5f5f5"/><path d="m42.23 24.5c-1.1-.41-2.45.49-3.02 2.01-.25.67-.29 1.33-.18 1.92-.5.39-1.19.65-1.96.7-.56.04-1.09-.04-1.55-.21.52.69 1.56 1.13 2.74 1.05 1.62-.1 2.88-1.14 2.8-2.31-.03-.42-.23-.8-.55-1.11.64-.65 1.46-.94 2.17-.67.3.11.55.31.74.58-.04-.92-.47-1.69-1.19-1.96z" fill="#f5f5f5"/><path d="m59.72 27.54c-.95-1.13-2.26-1.36-2.93-.52-.18.23-.3.52-.35.84-.29-.86-.23-1.73.2-2.29.67-.84 1.98-.61 2.93.52.69.82 1 1.89.87 2.73-.15-.44-.39-.88-.72-1.28z" fill="#f5f5f5"/><path d="m36.38 27.14c.52-1.1.24-2.16-.63-2.37-.24-.06-.49-.05-.75.02.55-.5 1.22-.76 1.79-.63.87.21 1.15 1.27.63 2.37-.38.8-1.07 1.39-1.75 1.58.28-.26.53-.59.71-.97z" fill="#f5f5f5"/><path d="m42.78 31.8s.05 5.05.13 5.52.36 3.37 4.54 5.11c0 0 3.23-1.37 4.05-3.27s.66-5.48.66-5.48v-1.95z" fill="#302c3b"/><path d="m43.11 32.17s.05 4.69.12 5.13c.07.43.34 3.13 4.21 4.75 0 0 3-1.27 3.76-3.04s.61-5.09.61-5.09v-1.82z" fill="#f5f5f5"/><path d="m51.87 33.7-1.28-.4-1.57.72-1.59-.56-1.41.56-1.65-.72-1.25.47.01 1.62 1.25-.47 1.64.72 1.42-.56 1.59.56 1.57-.72 1.28.4z" fill="#1b81b6"/><path d="m43.98 39.41c.15-.05 2.09.64 2.09.64l1.41-.56 1.59.56s1.85-.7 1.98-.67c.47.11-2.74 2.66-3.55 2.66-.82.01-3.94-2.5-3.52-2.63" fill="#1b81b6"/><path d="m51.49 38.02c-.24-.11-1-.26-1-.26l-1.54.72-1.56-.56-1.39.56-1.62-.72s-.8.22-1.05.36c-.11.06-.19-1.24-.19-1.24l1.23-.47 1.62.72 1.39-.56 1.56.56 1.54-.72 1.26.4c0-.01-.09 1.28-.25 1.21" fill="#1b81b6"/><path clip-path="url(#a)" d="m47.25 34.17-3.74 3.75v-3.75z" fill="#288549"/><path clip-path="url(#a)" d="m51.55 39.29-.53.53h-7.51v-1.89l3.75-3.76h4.29z" fill="#288549"/><path clip-path="url(#a)" d="m51.02 39.82.53-.53v.53z" fill="#288549"/><path clip-path="url(#a)" d="m50.73 39.71h.11v.13h-.11z" fill="#288549"/><path d="m44.68 28.25.64 1.49h4.19l.64-1.49-2.74-6.33z" fill="#302c3b"/><path d="m44.96 28.12.58 1.33h3.75l.58-1.33-2.46-5.68z" fill="#7ed16d"/><path d="m44.25 26.92 2.11 2.58 2.52-.1.58-1.77-1.83-.1-1.19.59z" fill="#93695a"/><path d="m47.22 29.08-3.21.95 1.52 1.81-.01 1.65 1.6-.25s.75-1.46.86-1.49c.1-.03 1.51.47 1.51.47l.33-.81 1.8-.63-3.1-.74.11-.77z" fill="#6baaa7"/><g fill="#288549"><path clip-path="url(#b)" d="m47.44 26.55h.25v6.52h-.25z"/><path clip-path="url(#b)" d="m47.69 26.55h5.35v6.52h-5.35z"/><path clip-path="url(#b)" d="m53.04 26.55h.1v6.52h-.1z"/><path clip-path="url(#c)" d="m40.75 29.53 1.4.86h-1.4z"/><path clip-path="url(#c)" d="m42.11 24.55 2.39 1.46v4.38h-2.35l-1.4-.86v-4.98z"/><path clip-path="url(#c)" d="m44.5 26.01-2.39-1.46h2.39z"/><path clip-path="url(#d)" d="m36.5 29.54.73-.45v.45z"/><path clip-path="url(#d)" d="m35.27 27.24 1.25-.76h.71v2.61l-.73.45h-1.23z"/><path clip-path="url(#d)" d="m36.52 26.48-1.25.76v-.76z"/><path clip-path="url(#e)" d="m56.06 26.76.91.48h-.91z"/><path clip-path="url(#e)" d="m58.18 24.93.79.42v1.89h-2l-.91-.48v-1.83z"/><path clip-path="url(#e)" d="m58.97 25.35-.79-.42h.79z"/><path clip-path="url(#f)" d="m53.38 25.01-.92 1.11v-1.11z"/><path clip-path="url(#f)" d="m57.21 27.11-1.47 1.78h-3.28v-2.77l.92-1.11h3.83z"/><path clip-path="url(#f)" d="m55.74 28.89 1.47-1.78v1.78z"/></g><path d="m36.26 43.28c-1.26-.5 2.9-2.75 4.74-2.64 1.41.08 4.21 2.49 3.2 2.77-5.01 1.39-4.84 1.11-7.94-.13z" fill="#74948f"/><path d="m40.69 31.81c.07-.41.52-1.19.84-1.46.3-.25 1.08-.58 1.47-.53.27.03 1 .36.9.61l-.28-.05c-.29.15-.38.92-.61 1.16-.18.19-.77.31-.9.55-.12.22.11.99.11.99l-1.46.13c.01.01-.13-1.05-.07-1.4z" fill="#e5c9bd"/><path d="m41.12 36.85c-.03.1.71 1.76.87 2.45.3 1.25-1.6 3.29-1.47 2.29.17-1.32-.47-2.56-.47-2.56z" fill="#c6a397"/><path d="m40.59 37.94c-.06.08.13 1.89.08 2.6-.1 1.28-2.54 2.64-2.1 1.73.57-1.2.33-2.58.33-2.58z" fill="#e5c9bd"/><path d="m41.58 33.3c.03.1 1.57 1.06 2.1 1.54.95.87.52 3.63.06 2.72-.6-1.19-1.82-1.85-1.82-1.85z" fill="#e5c9bd"/><path d="m41.14 32.43c-1.23.12-2.86 2.49-3.36 3.62-.53 1.2-1.2 4.96-.45 5.21.89.29 3.94-2.03 4.65-3.26.59-1.02.9-3.61.41-4.68-.17-.35-.87-.93-1.25-.89z" fill="#d66b3c"/><path d="m58.68 43.28c1.26-.5-2.9-2.75-4.73-2.64-1.41.08-4.21 2.49-3.2 2.77 5 1.39 4.82 1.11 7.93-.13z" fill="#74948f"/><path d="m54.25 31.81c-.07-.41-.52-1.19-.84-1.46-.3-.25-1.08-.58-1.47-.53-.27.03-1 .36-.9.61l.28-.05c.29.15.38.92.61 1.16.18.19.78.31.9.55.12.22-.11.99-.11.99l1.46.13c-.01.01.13-1.05.07-1.4z" fill="#e5c9bd"/><path d="m53.82 36.85c.03.1-.71 1.76-.88 2.45-.3 1.25 1.6 3.29 1.47 2.29-.17-1.32.47-2.56.47-2.56z" fill="#c6a397"/><path d="m54.35 37.94c.06.08-.13 1.89-.08 2.6.1 1.28 2.54 2.64 2.1 1.73-.57-1.2-.33-2.58-.33-2.58z" fill="#e5c9bd"/><path d="m53.36 33.3c-.03.1-1.57 1.06-2.1 1.54-.95.87-.52 3.63-.06 2.72.6-1.19 1.82-1.85 1.82-1.85z" fill="#e5c9bd"/><path d="m53.8 32.43c1.23.12 2.86 2.49 3.36 3.62.53 1.2 1.21 4.96.45 5.21-.89.29-3.94-2.03-4.64-3.26-.59-1.02-.9-3.61-.41-4.68.16-.35.86-.93 1.24-.89z" fill="#d66b3c"/><circle cx="32" cy="32" fill="url(#g)" opacity=".1" r="30"/></svg>