<svg enable-background="new 0 0 64 64" height="64" viewBox="0 0 64 64" width="64" xmlns="http://www.w3.org/2000/svg" xmlns:xlink="http://www.w3.org/1999/xlink"><linearGradient id="a" gradientUnits="userSpaceOnUse" x1="31.9995" x2="31.9995" y1="2" y2="62.0005"><stop offset="0" stop-color="#f90"/><stop offset=".2875" stop-color="#ff9500"/><stop offset=".5853" stop-color="#f80"/><stop offset=".8868" stop-color="#ff7400"/><stop offset="1" stop-color="#ff6a00"/></linearGradient><path d="m2 32c0-16.564 13.439-30 30-30 16.572 0 30 13.436 30 30 0 16.57-13.428 30-30 30-16.561 0-30-13.43-30-30z" fill="url(#a)"/><path d="m48.514 32c0 8.994-6.605 16-15.429 16h-11.542-.972c-.697 0-1.086-.389-1.086-1.086v-29.828c0-.697.389-1.086 1.086-1.086h5.2 7.313c8.824 0 15.43 7.005 15.43 16zm-6.057 0c0-5.909-3.817-9.966-9.372-9.966h-7.313v19.932h7.313c5.555 0 9.372-4.058 9.372-9.966z" fill="#fff"/></svg>