<svg enable-background="new 0 0 64 64" height="64" viewBox="0 0 64 64" width="64" xmlns="http://www.w3.org/2000/svg" xmlns:xlink="http://www.w3.org/1999/xlink"><linearGradient id="a" gradientUnits="userSpaceOnUse" x1="32" x2="32" y1="62" y2="2"><stop offset="0" stop-color="#1a1a1a"/><stop offset=".102" stop-color="#393939" stop-opacity=".949"/><stop offset=".3475" stop-color="#7f7f7f" stop-opacity=".8262"/><stop offset=".5688" stop-color="#b6b6b6" stop-opacity=".7156"/><stop offset=".7582" stop-color="#dedede" stop-opacity=".6209"/><stop offset=".9081" stop-color="#f6f6f6" stop-opacity=".5459"/><stop offset="1" stop-color="#fff" stop-opacity=".5"/></linearGradient><path d="m40.94 3.38h-17.88c-9.36 2.91-16.75 10.27-19.68 19.62v18c2.94 9.35 10.33 16.71 19.68 19.63h17.94c9.35-2.94 16.71-10.33 19.62-19.68v-17.95c-2.93-9.35-10.33-16.71-19.68-19.62z" fill="#529320"/><path d="m23 60.63c1.92.6 3.93 1.02 6 1.23v-59.71c-2.07.21-4.08.62-6 1.23z" fill="#ffe12c"/><path d="m29 61.85c.99.1 1.99.15 3 .15s2.01-.05 3-.15v-59.7c-.99-.1-1.99-.15-3-.15s-2.01.05-3 .15z" fill="#302c3b"/><path d="m35 61.85c2.07-.21 4.08-.62 6-1.23v-57.24c-1.92-.6-3.93-1.02-6-1.23z" fill="#f5f5f5"/><path d="m2.15 29h59.7c-.21-2.07-.62-4.08-1.23-6h-57.24c-.61 1.92-1.02 3.93-1.23 6z" fill="#ffe12c"/><path d="m2 32c0 1.01.05 2.01.15 3h59.7c.1-.99.15-1.99.15-3s-.05-2.01-.15-3h-59.7c-.1.99-.15 1.99-.15 3z" fill="#302c3b"/><path d="m3.38 41h57.25c.61-1.92 1.02-3.93 1.23-6h-59.71c.21 2.07.62 4.08 1.23 6z" fill="#f5f5f5"/><circle cx="32" cy="32" fill="#e81c27" r="15"/><g fill="#529320"><path d="m32 21.57 1.44 1.1-.54-1.78 1.43-1.11h-1.78l-.55-1.78-.56 1.78h-1.77l1.43 1.11-.54 1.78z"/><path d="m26.79 22.97 1.79.23-1.36-1.27.69-1.68-1.54.89-1.37-1.26.41 1.81-1.54.9 1.8.23.41 1.82z"/><path d="m22.97 26.79 1.67-.71-1.82-.41-.24-1.8-.89 1.54-1.81-.41 1.25 1.37-.88 1.54 1.68-.69 1.27 1.36z"/><path d="m21.57 32 1.1-1.44-1.79.54-1.1-1.43v1.78l-1.78.55 1.78.56v1.77l1.1-1.43 1.79.54z"/><path d="m22.97 37.21.23-1.79-1.27 1.36-1.68-.69.89 1.54-1.26 1.37 1.81-.41.9 1.54.23-1.8 1.82-.41z"/><path d="m26.79 41.03-.71-1.67-.41 1.82-1.8.24 1.54.89-.41 1.82 1.37-1.26 1.54.88-.69-1.67 1.36-1.28z"/><path d="m32 42.43-1.44-1.1.54 1.79-1.43 1.1h1.78l.55 1.78.56-1.78h1.77l-1.43-1.1.54-1.79z"/><path d="m37.21 41.03-1.79-.23 1.36 1.27-.69 1.68 1.54-.89 1.37 1.27-.41-1.82 1.54-.9-1.8-.23-.41-1.82z"/><path d="m41.03 37.21-1.67.71 1.82.41.23 1.8.9-1.54 1.82.41-1.27-1.37.89-1.54-1.68.69-1.27-1.36z"/><path d="m42.43 32-1.1 1.44 1.78-.54 1.11 1.43v-1.78l1.78-.55-1.78-.55v-1.78l-1.11 1.43-1.78-.54z"/><path d="m41.03 26.79-.23 1.79 1.27-1.36 1.68.69-.89-1.54 1.27-1.37-1.82.41-.9-1.54-.23 1.8-1.82.41z"/><path d="m37.21 22.97.7 1.67.42-1.82 1.8-.23-1.54-.9.41-1.81-1.37 1.26-1.54-.89.69 1.68-1.36 1.27z"/></g><path d="m36 38h-6.47s.93-3.37 6.47 0z" fill="#ffe12c"/><path d="m31.82 26.16s-7.31 8.2 4.18 11.84z" fill="#c28fef"/><path d="m31.82 26.16s4.18 1.01 4.18 11.84c0 0-4.18-2.38-4.18-11.84z" fill="#529320"/><path d="m29.53 26.38s-1.44.28-1.53 2.2c0 0 1.35-.73 2.65-.73 1.3.01-1.12-1.47-1.12-1.47z" fill="#ffe12c"/><path d="m29.53 26.38s.88 2.88 4.38 1.64c0 0-1.55-3.08-4.38-1.64z" fill="#c28fef"/><circle cx="32" cy="32" fill="url(#a)" opacity=".1" r="30"/></svg>