<svg enable-background="new 0 0 64 64" height="64" viewBox="0 0 64 64" width="64" xmlns="http://www.w3.org/2000/svg" xmlns:xlink="http://www.w3.org/1999/xlink"><linearGradient id="a" gradientUnits="userSpaceOnUse" x1="31.9976" x2="31.9976" y1="62" y2="2.0005"><stop offset="0" stop-color="#1a1a1a"/><stop offset=".102" stop-color="#393939" stop-opacity=".949"/><stop offset=".3475" stop-color="#7f7f7f" stop-opacity=".8262"/><stop offset=".5688" stop-color="#b6b6b6" stop-opacity=".7156"/><stop offset=".7582" stop-color="#dedede" stop-opacity=".6209"/><stop offset=".9081" stop-color="#f6f6f6" stop-opacity=".5459"/><stop offset="1" stop-color="#fff" stop-opacity=".5"/></linearGradient><path d="m26.817 6.057h-.01-.012c-3.609 0-4.713-.965-6.793-1.555-2.398 1.047-4.631 2.4-6.652 4.008.807-.184 1.773-.309 3.061-.309h.012.01c5.188 0 5.193 1.998 10.375 2 5.182-.002 5.188-2 10.377-2h.012.01c5.189 0 5.193 1.998 10.375 2 2.006 0 3.236-.301 4.291-.668-1.486-1.316-3.105-2.486-4.834-3.49-4.65-.135-4.85-1.982-9.842-1.986-5.186.004-5.19 2-10.38 2z" fill="#f5f5f5"/><path d="m47.581 10.201h-.012c-5.188 0-5.191-1.996-10.373-2-5.186.004-5.189 2-10.379 2h-.01-.012c-5.188 0-5.17 4.143.012 4.145 5.182-.002 5.188-1.998 10.377-1.998h.012.01c5.189 0 5.193 1.996 10.375 1.998 3.91-.002 4.875-1.137 7.34-1.695-.938-1.109-1.955-2.15-3.043-3.113-1.055.365-2.283.664-4.287.664h-.01z" fill="#014d87"/><path d="m37.185 4.057h.012.01c4.996 0 5.199 1.846 9.832 1.986-4.423-2.566-9.556-4.043-15.038-4.043-4.264 0-8.803 4.055-5.193 4.057 5.181-.002 5.187-2 10.377-2z" fill="#014d87"/><path d="m47.581 14.346-.012.002c-5.188 0-5.191-1.998-10.373-2-5.186.002-5.189 2-10.379 2l-.01-.002-.012.002c-5.188 0-5.193-1.998-10.373-2-4.514.002-5.105 1.514-8.607 1.906-.975 1.326-1.838 2.736-2.588 4.215.246.014.5.021.771.021l.035.002c5.188-.002 5.188-2 10.377-2h.012.01c5.188 0 5.193 1.996 10.375 2 5.182-.004 5.188-2 10.377-2h.012.01c5.189 0 5.193 1.996 10.375 2 5.088-.004 5.199-1.922 10.109-1.994-.82-1.357-1.748-2.641-2.768-3.846-2.455.561-3.422 1.695-7.332 1.695z" fill="#f5f5f5"/><path d="m47.581 18.492h-.012c-5.188 0-5.191-1.998-10.373-2-5.186.002-5.189 2-10.379 2h-.01-.012c-5.188 0-5.17 4.143.012 4.145 5.182-.002 5.188-2 10.377-2h.012.01c5.189 0 5.193 1.998 10.375 2 5.184-.002 5.189-2 10.381-2h.006.004l.031.002c.686 0 1.275.033 1.801.086-.598-1.469-1.301-2.883-2.113-4.227-4.898.074-5.008 1.994-10.1 1.994z" fill="#014d87"/><path d="m57.968 20.637c-5.186.002-5.188 2-10.377 2h-.01-.012c-5.188 0-5.191-1.996-10.373-2-5.186.004-5.189 2-10.379 2h-.01-.012c-5.188 0-5.193-1.996-10.373-2-5.186.004-5.189 2-10.383 2h-.005-.004-.031c-.977-.002-1.768-.064-2.443-.168-.418 1.248-.758 2.531-1.01 3.845.891.268 1.955.463 3.453.467h.035c5.188 0 5.188-2 10.377-2h.012.01c5.188 0 5.193 1.998 10.375 2 5.182-.002 5.188-2 10.377-2h.012.01c5.189 0 5.193 1.998 10.375 2 5.184-.002 5.189-2 10.381-2h.006.004l.031.002c1.363.002 2.361.123 3.189.305-.352-1.49-.813-2.939-1.377-4.336-.531-.07-1.125-.113-1.813-.113z" fill="#f5f5f5"/><path d="m57.968 24.781c-5.186.002-5.188 2-10.377 2h-.01-.012c-5.188 0-5.191-1.996-10.373-2-5.186.004-5.189 2-10.379 2h-.01-.012c-5.188 0-5.17 4.143.012 4.146 5.182-.004 5.188-2 10.377-2h.012.01c5.189 0 5.193 1.996 10.375 2 5.184-.004 5.189-2 10.381-2h.006.004.031c1.762.004 2.916.205 3.881.48-.123-1.441-.35-2.854-.67-4.229-.842-.232-1.848-.395-3.211-.396z" fill="#014d87"/><path d="m57.968 28.928c-5.186.002-5.188 2-10.377 2h-.01-.012c-5.188 0-5.191-1.998-10.373-2-5.186.002-5.189 2-10.379 2h-.01-.012c-5.188 0-5.193-1.998-10.373-2-5.186.002-5.189 2-10.383 2h-.005-.004l-.031-.002c-1.809-.002-2.977-.215-3.957-.5-.025.521-.041 1.047-.041 1.574 0 .83.043 1.652.109 2.465.977.338 2.139.604 3.889.607h.035c5.188 0 5.188-2 10.377-2h.012.01c5.188 0 5.193 1.998 10.375 2 5.182-.002 5.188-2 10.377-2h.012.01c5.189 0 5.193 1.998 10.375 2 5.184-.002 5.189-2 10.381-2h.006.004.031c1.809.004 2.979.217 3.957.502.027-.521.043-1.047.043-1.574 0-.83-.043-1.65-.109-2.465-.979-.338-2.141-.604-3.891-.607z" fill="#f5f5f5"/><path d="m57.968 33.072c-5.186.002-5.188 2-10.377 2h-.01-.012c-5.188 0-5.191-1.998-10.373-2-5.186.002-5.189 2-10.379 2h-.01-.012c-5.188 0-5.193-1.998-10.373-2-5.186.002-5.189 2-10.383 2h-.005-.004-.031c-1.762-.004-2.914-.205-3.879-.479.123 1.441.35 2.852.67 4.229.84.23 1.846.393 3.209.395l.035.002c5.188-.002 5.188-2 10.377-2h.012.01c5.188 0 5.193 1.996 10.375 2 5.182-.004 5.188-2 10.377-2h.012.01c5.189 0 5.193 1.996 10.375 2 5.184-.004 5.189-2 10.381-2h.006.004.031c1.521.004 2.588.154 3.471.371.24-1.27.404-2.568.479-3.889-.99-.348-2.164-.625-3.949-.629z" fill="#014d87"/><path d="m57.968 37.219c-5.186.002-5.188 2-10.377 2h-.01-.012c-5.188 0-5.191-1.998-10.373-2-5.186.002-5.189 2-10.379 2h-.01-.012c-5.188 0-5.193-1.998-10.373-2-5.186.002-5.189 2-10.383 2h-.005-.004l-.031-.002c-1.361-.002-2.359-.123-3.189-.305.354 1.492.814 2.939 1.379 4.336.531.07 1.125.113 1.811.115h.035c5.188-.002 5.188-2 10.377-2h.012.01c5.188 0 5.193 1.998 10.375 2 5.182-.002 5.188-2 10.377-2h.012.01c5.189 0 5.193 1.998 10.375 2 5.184-.002 5.189-2 10.381-2h.006.004l.031.002c.979 0 1.77.064 2.445.166.418-1.248.756-2.531 1.01-3.846-.891-.268-1.957-.463-3.455-.467h-.037z" fill="#f5f5f5"/><path d="m57.968 41.363c-5.186.002-5.188 2-10.377 2h-.01-.012c-5.188 0-5.191-1.996-10.373-2-5.186.004-5.189 2-10.379 2h-.01-.012c-5.188 0-5.193-1.996-10.373-2-5.186.004-5.189 2-10.383 2h-.005-.004-.031c-.684-.002-1.273-.033-1.799-.088.596 1.469 1.301 2.883 2.111 4.227 4.898-.074 5.01-1.994 10.1-1.994h.012.01c5.188 0 5.193 1.998 10.375 2 5.182-.002 5.188-2 10.377-2h.012.01c5.189 0 5.193 1.998 10.375 2 5.184-.002 5.189-2 10.381-2h.006.004l.031.002c.273 0 .529.006.775.016.641-1.268 1.195-2.586 1.654-3.949-.676-.129-1.465-.211-2.43-.211z" fill="#014d87"/><path d="m57.968 45.508c-5.186.002-5.188 2-10.377 2h-.01-.012c-5.188 0-5.191-1.996-10.373-2-5.186.004-5.189 2-10.379 2h-.01-.012c-5.188 0-5.193-1.996-10.373-2-5.09.004-5.199 1.922-10.109 1.994.82 1.357 1.748 2.641 2.766 3.846 2.457-.561 3.424-1.693 7.332-1.693h.012.01c5.188 0 5.193 1.996 10.375 1.998 5.182-.002 5.188-1.998 10.377-1.998h.012.01c5.189 0 5.193 1.996 10.375 1.998 4.514-.002 5.104-1.514 8.605-1.906.975-1.326 1.84-2.736 2.59-4.215-.246-.014-.5-.021-.773-.021z" fill="#f5f5f5"/><path d="m47.581 51.652-.012.002c-5.188 0-5.191-1.998-10.373-2-5.186.002-5.189 2-10.379 2l-.01-.002-.012.002c-5.188 0-5.193-1.998-10.373-2-3.91.002-4.877 1.137-7.34 1.695.938 1.109 1.955 2.15 3.043 3.113 1.053-.365 2.281-.664 4.285-.664h.012.01c5.188 0 5.193 1.996 10.375 2 5.182-.004 5.188-2 10.377-2h.012.01c5.189 0 5.193 1.996 10.375 2 1.295-.002 2.268-.127 3.078-.314 2.086-1.658 3.947-3.586 5.527-5.736-3.49.395-4.082 1.906-8.596 1.906z" fill="#014d87"/><path d="m47.581 55.799h-.012c-5.188 0-5.191-1.998-10.373-2-5.186.002-5.189 2-10.379 2h-.01-.012c-5.188 0-5.193-1.998-10.373-2-2.008.002-3.236.301-4.293.668 1.488 1.316 3.107 2.486 4.836 3.49 4.648.135 4.848 1.984 9.842 1.986 5.182-.002 5.188-2 10.377-2h.012.01c3.611 0 4.713.967 6.793 1.555 2.398-1.047 4.631-2.4 6.654-4.008-.809.186-1.775.309-3.063.309z" fill="#f5f5f5"/><path d="m26.817 59.943h-.01-.012c-4.996 0-5.197-1.846-9.83-1.986 4.423 2.566 9.556 4.043 15.036 4.043 4.264 0 8.318-.895 11.99-2.498-2.086-.588-3.188-1.557-6.795-1.559-5.185.004-5.189 2-10.379 2z" fill="#014d87"/><path d="m54.438 24.646 3.938.053c-.996-1.764-4.336-1.863-7-1.432 1.676-.531 3.74-1.111 4.066-1.174-.826-.611-4.285-2.754-8.689 1.605l-.07.002c-4.402-4.363-7.865-2.219-8.693-1.607.328.063 2.393.643 4.072 1.174-2.668-.432-6.01-.332-7.006 1.432l3.939-.053c-1.646.787-2.545.869-2.785 2.805.096-.039 2.141-.584 4.238-1.135-1.143.568-2.16 1.262-2.623 1.971 1.865.146 3.508-.357 4.75-.953-.77.988-1.25 2.066-1.18 2.689.926-.166 1.883-.961 2.664-1.795-.475 1.826-.438 3.688.088 4.445.766-.592 1.32-1.613 1.725-2.711l-.053 1.068h1.65l-.066-1.514c.414 1.256 1.018 2.486 1.883 3.156.525-.758.563-2.619.092-4.445.777.834 1.732 1.629 2.66 1.795.074-.623-.41-1.701-1.18-2.689 1.242.596 2.885 1.1 4.75.953-.463-.709-1.48-1.402-2.619-1.971 2.094.551 4.139 1.096 4.236 1.135-.244-1.934-1.14-2.016-2.787-2.804z" fill="#529320"/><path d="m45.388 28.229h2.662v21.762h-2.662z" fill="#e81c27"/><path d="m40.335 42.119 2.182 2.316 8.143-.008 2.211-2.309.232-3.402-5.307-1.623.463-.412-1.658-1.025-1.656 1.025.465.412-4.779 1.189zm11.508-2.803-1.34 1.967-1.334-.477-1.586-.258.016-2.947zm-10.483 0 4.221-1.686.039 2.918-1.584.258-1.334.477z" fill="#ffe12c"/><path d="m11.001 11h21v21h-21z" fill="#014d87"/><path d="m18.913 8.139v5.861h-7.312l14.4 18h6v-7.5z" fill="#f5f5f5"/><path d="m11.001 18.912h-5.988c-1.924 3.957-3.012 8.393-3.012 13.088h12v-18.088h-3z" fill="#f5f5f5"/><path d="m32.001 27.059-13-16.059h-6l17 21h2z" fill="#e81c27"/><path d="m18.913 5.012v5.988h-7.912v3h21v-12c-4.693 0-9.131 1.088-13.088 3.012z" fill="#f5f5f5"/><path d="m32.001 5h-13.088c-6.055 2.939-10.971 7.857-13.912 13.912v13.088h6v-21h21z" fill="#e81c27"/><path d="m21.878 5.906-.004.006z" fill="#d8a322"/><path d="m21.872 5.918-.035.08z" fill="#d8a322"/><circle cx="31.997" cy="32" fill="url(#a)" opacity=".1" r="30"/></svg>