<svg enable-background="new 0 0 64 64" height="64" viewBox="0 0 64 64" width="64" xmlns="http://www.w3.org/2000/svg" xmlns:xlink="http://www.w3.org/1999/xlink"><linearGradient id="a" gradientUnits="userSpaceOnUse" x1="32" x2="32" y1="62" y2="2"><stop offset="0" stop-color="#1a1a1a"/><stop offset=".102" stop-color="#393939" stop-opacity=".949"/><stop offset=".3475" stop-color="#7f7f7f" stop-opacity=".8262"/><stop offset=".5688" stop-color="#b6b6b6" stop-opacity=".7156"/><stop offset=".7582" stop-color="#dedede" stop-opacity=".6209"/><stop offset=".9081" stop-color="#f6f6f6" stop-opacity=".5459"/><stop offset="1" stop-color="#fff" stop-opacity=".5"/></linearGradient><g fill="#f5f5f5"><path d="m52.39 10c-5.35-4.96-12.52-8-20.39-8-7.88 0-15.04 3.04-20.39 8z"/><path d="m11.61 54c5.35 4.96 12.51 8 20.39 8 7.87 0 15.04-3.04 20.39-8z"/><path d="m2 32c0 4.27.9 8.32 2.5 12h55c1.61-3.68 2.5-7.73 2.5-12s-.9-8.32-2.5-12h-55c-1.6 3.68-2.5 7.73-2.5 12z"/></g><path d="m11.63 54h40.74c3.01-2.79 5.46-6.19 7.13-10h-55c1.67 3.81 4.12 7.21 7.13 10z" fill="#014d87"/><path d="m52.37 10h-40.74c-3.01 2.79-5.46 6.18-7.13 10h55c-1.67-3.82-4.12-7.21-7.13-10z" fill="#014d87"/><path d="m41 27h-6l-3-5-3 5h-6l3 5-3 5h6l3 5 3-5h6l-3-5zm-9-2.07 1.24 2.07h-2.49zm-6.36 3.53h2.48l-1.24 2.07zm0 7.08 1.24-2.07 1.24 2.07zm6.36 3.53-1.24-2.07h2.49zm2.12-3.53h-4.24l-2.12-3.54 2.12-3.54h4.24l2.12 3.54zm4.24 0h-2.48l1.24-2.07zm-1.24-5-1.24-2.07h2.48z" fill="#014d87"/><circle cx="32" cy="32" fill="url(#a)" opacity=".1" r="30"/></svg>