<svg enable-background="new 0 0 64 64" height="64" viewBox="0 0 64 64" width="64" xmlns="http://www.w3.org/2000/svg" xmlns:xlink="http://www.w3.org/1999/xlink"><linearGradient id="a" gradientUnits="userSpaceOnUse" x1="32" x2="32" y1="62" y2="2"><stop offset="0" stop-color="#1a1a1a"/><stop offset=".102" stop-color="#393939" stop-opacity=".949"/><stop offset=".3475" stop-color="#7f7f7f" stop-opacity=".8262"/><stop offset=".5688" stop-color="#b6b6b6" stop-opacity=".7156"/><stop offset=".7582" stop-color="#dedede" stop-opacity=".6209"/><stop offset=".9081" stop-color="#f6f6f6" stop-opacity=".5459"/><stop offset="1" stop-color="#fff" stop-opacity=".5"/></linearGradient><path d="m32 2c-13.06 0-24.17 8.35-28.29 20h56.57c-4.11-11.65-15.22-20-28.28-20z" fill="#e81c27"/><path d="m32 62c13.06 0 24.17-8.35 28.29-20h-56.58c4.12 11.65 15.23 20 28.29 20z" fill="#302c3b"/><path d="m3.71 22c-1.1 3.13-1.71 6.49-1.71 10s.61 6.87 1.71 10h56.57c1.11-3.13 1.72-6.49 1.72-10s-.61-6.87-1.71-10z" fill="#f5f5f5"/><path d="m32 34.68c-.14-.1-.26-.21-.38-.32l-.74 3.38c.37.01.75.03 1.13.04.38 0 .76 0 1.13-.02l-.75-3.41c-.13.12-.26.23-.39.33z" fill="none"/><g fill="#f5f5f5"><path d="m30.58 25.13c.28-.22.51-.02.68.22.15.21.14.81-.07 1.5-.12.41-.36.82-.55 1.1.44-.02.9-.12 1.37-.29.47.17.92.27 1.36.29-.21-.43-.38-1.17-.35-1.79.04-.88-.13-1.23-.26-1.36-.16-.16-.7-.31-1.05-.33-.2-.01-.17.15-.17.15-.37-.09-.73-.13-.9-.02-.14.11-.18.62-.06.53z"/><path d="m37.29 28.13c-.19-1.14-1.35-.82-2.2-.33-.37.24-.76.38-1.17.44-.11.02-.21.03-.32.03-.52.02-1.05-.08-1.6-.27-.55.19-1.08.29-1.6.27-.05 0-.11-.01-.16-.01-.47-.04-.91-.19-1.33-.46-.82-.47-1.92-.79-2.18.21.2-.12.44-.26.55-.26l-.4 9.63.2-.18.42-9.3c.14.14.55.47.62.55l-.35 8.12.28-.25.34-7.66c.14.14.41.34.48.41l-.27 6.74.76-.69.77-2.73c-.71-1.49-.6-2.82-.6-2.82.07.01.14.02.21.02.49 0 1.6-.28 2.1-.59.07-.05.13-.09.18-.14.04.05.1.1.16.15.48.34 1.57.58 2.06.58.07 0 .14-.01.21-.02 0 0 .1 1.32-.6 2.81l.75 2.65.79.74-.27-6.63c.07-.07.34-.27.48-.41l.34 7.54.27.25-.34-8c.07-.07.48-.41.61-.54l.41 9.18.2.18-.4-9.51c.13.01.41.17.6.3z"/><path d="m31.12 29.65v3.46.32c.02.02.03.04.05.06.02.03.05.05.07.08.14.16.29.31.45.46.1.09.2.18.31.26.11-.08.21-.17.31-.27.18-.16.35-.34.5-.52 0-.01.01-.01.01-.02v-.11-.21-3.52c-.33-.1-.63-.24-.81-.39-.2.16-.53.3-.89.4z"/></g><path d="m36.34 37.86c0-.46-.46-.52-.85-.39-.05.02-.11.04-.18.05l-.62-2.19 3.28 3.2-.42-10.44c-.06-1.58-1.37-1.22-2.32-.65-.45.3-.93.46-1.44.51-.68-1.24-.3-2.77-.8-3.21-.23-.21-.94-.47-1.38-.5-.25-.01-.21.21-.21.21-.46-.13-.9-.08-1.11.08-.2.15 0 1.08.14.95.35-.31.42-.22.63.11.17.28-.21 1.48-.7 2.38-.56-.02-1.09-.18-1.58-.52-.95-.57-2.26-.93-2.32.65l-.42 10.44 3.25-3.09-.59 2.09c-.06-.02-.12-.03-.18-.05-.39-.13-.85-.07-.85.39-.57-.12-.82.78-.2.98 0 .26 0 .46.4.53.91.26 2.49.39 4.13.39 1.65 0 3.22-.13 4.15-.39.39-.07.39-.27.39-.53.61-.22.37-1.12-.2-1zm-5.1-4.29c-.02-.03-.05-.05-.07-.08-.02-.02-.03-.04-.05-.06v-.32-3.46c.36-.11.69-.25.89-.4.18.16.48.29.81.39v3.52.21.11c0 .01-.01.01-.01.02-.16.18-.32.36-.5.52-.1.09-.2.18-.31.27-.11-.08-.21-.17-.31-.26-.16-.15-.31-.3-.45-.46zm-.06-6.71c.21-.7.22-1.29.07-1.5-.17-.24-.4-.44-.68-.22-.11.09-.08-.43.07-.53.16-.11.53-.07.9.02 0 0-.03-.16.17-.15.35.02.88.17 1.05.33.13.13.29.48.26 1.36-.03.63.13 1.37.35 1.79-.44-.02-.9-.12-1.36-.29-.47.17-.93.27-1.37.29.18-.29.42-.7.54-1.1zm-2.58 8.95.27-6.74c-.07-.08-.35-.27-.48-.41l-.34 7.66-.28.25.35-8.12c-.07-.07-.49-.41-.62-.55l-.42 9.3-.2.18.4-9.63c-.11 0-.35.14-.55.26.25-1 1.35-.68 2.18-.21.42.27.87.41 1.33.46.05 0 .11.01.16.01.51.02 1.05-.08 1.6-.27.55.19 1.09.29 1.6.27.11 0 .21-.02.32-.03.41-.06.8-.2 1.17-.44.85-.49 2.01-.81 2.2.33-.2-.13-.48-.29-.59-.29l.4 9.51-.2-.18-.41-9.18c-.13.13-.54.47-.61.54l.34 8-.27-.25-.34-7.54c-.13.13-.4.33-.48.41l.27 6.63-.79-.74-.75-2.65c.7-1.49.6-2.81.6-2.81-.07.01-.14.02-.21.02-.49 0-1.59-.25-2.06-.58-.07-.05-.13-.1-.16-.15-.04.05-.1.1-.18.14-.5.32-1.61.59-2.1.59-.07 0-.14-.01-.21-.02 0 0-.1 1.32.6 2.82l-.77 2.73zm3.4 1.98c-.38-.02-.75-.03-1.13-.04l.74-3.38c.12.11.24.21.38.32.13-.11.26-.21.38-.32l.75 3.41c-.36.01-.74.01-1.12.01z" fill="#c09300"/><circle cx="32" cy="32" fill="url(#a)" opacity=".1" r="30"/></svg>