<svg enable-background="new 0 0 64 64" height="64" viewBox="0 0 64 64" width="64" xmlns="http://www.w3.org/2000/svg" xmlns:xlink="http://www.w3.org/1999/xlink"><linearGradient id="a" gradientUnits="userSpaceOnUse" x1="32" x2="32" y1="62" y2="2"><stop offset="0" stop-color="#1a1a1a"/><stop offset=".102" stop-color="#393939" stop-opacity=".949"/><stop offset=".3475" stop-color="#7f7f7f" stop-opacity=".8262"/><stop offset=".5688" stop-color="#b6b6b6" stop-opacity=".7156"/><stop offset=".7582" stop-color="#dedede" stop-opacity=".6209"/><stop offset=".9081" stop-color="#f6f6f6" stop-opacity=".5459"/><stop offset="1" stop-color="#fff" stop-opacity=".5"/></linearGradient><path d="m32 2c-12.68 0-23.5 7.88-27.89 19h55.78c-4.39-11.12-15.21-19-27.89-19z" fill="#e81c27"/><path d="m32 62c12.68 0 23.5-7.88 27.89-19h-55.78c4.39 11.12 15.21 19 27.89 19z" fill="#529320"/><path d="m62 32c0-3.14-.49-6.16-1.38-9h-57.24c-.89 2.84-1.38 5.86-1.38 9s.49 6.16 1.38 9h57.23c.9-2.84 1.39-5.86 1.39-9z" fill="#014d87"/><path d="m60.29 22c-.12-.34-.27-.67-.4-1h-55.78c-.13.33-.28.66-.4 1-.12.33-.22.66-.33 1h57.23c-.1-.34-.21-.67-.32-1z" fill="#f5f5f5"/><path d="m3.71 42c.12.34.27.67.4 1h55.78c.13-.33.28-.66.4-1 .12-.33.22-.66.33-1h-57.24c.11.34.22.67.33 1z" fill="#f5f5f5"/><circle cx="32" cy="32" fill="url(#a)" opacity=".1" r="30"/></svg>