<svg enable-background="new 0 0 64 64" height="64" viewBox="0 0 64 64" width="64" xmlns="http://www.w3.org/2000/svg" xmlns:xlink="http://www.w3.org/1999/xlink"><clipPath id="a"><path d="m51.01 31.71c-.16-.08-.83-.17-1.59.32l.03 1.74s1.11-.6 1.65-.46c-.03-.53-.03-1.22-.09-1.6z"/></clipPath><linearGradient id="b" gradientUnits="userSpaceOnUse" x1="31.9993" x2="31.9993" y1="62" y2="2"><stop offset="0" stop-color="#1a1a1a"/><stop offset=".102" stop-color="#393939" stop-opacity=".949"/><stop offset=".3475" stop-color="#7f7f7f" stop-opacity=".8262"/><stop offset=".5688" stop-color="#b6b6b6" stop-opacity=".7156"/><stop offset=".7582" stop-color="#dedede" stop-opacity=".6209"/><stop offset=".9081" stop-color="#f6f6f6" stop-opacity=".5459"/><stop offset="1" stop-color="#fff" stop-opacity=".5"/></linearGradient><path d="m32 2v30h-30c0 16.57 13.43 30 30 30s30-13.43 30-30-13.43-30-30-30z" fill="#014d87"/><path d="m12 12h21v21h-21z" fill="#014d87"/><path d="m18.91 8.14v5.86h-7.31l14.4 18h6v-7.5z" fill="#f5f5f5"/><path d="m11 18.91h-5.99c-1.92 3.96-3.01 8.39-3.01 13.09h12v-18.09h-3z" fill="#f5f5f5"/><path d="m32 27.06-13-16.06h-6l17 21h2z" fill="#e81c27"/><path d="m18.91 5.01v5.99h-7.91v3h21v-12c-4.69 0-9.13 1.09-13.09 3.01z" fill="#f5f5f5"/><path d="m32 5h-13.09c-6.05 2.94-10.97 7.86-13.91 13.91v13.09h6v-21h21z" fill="#e81c27"/><path d="m44.57 41.7c-.62.59-1.8 1.17-2.64.6-1.05.24-.5.52-1.46-.17-.73.23-.85.23-1.86-.23-.47.94-1.13 1.11-1.88.46.14-.2.28-.4.42-.6 0 .35-1.63.26-1.73.28.87-2.92 4.55-5.26 6.68-7.32 1.01 1.88 3.67 4.78 2.47 6.98z" fill="#6a4c2d"/><path d="m48.75 42.04 1.54-.05-.66-.33 5.85-.22-.83-.31-.73-.99-3.63-.32-.3-.54-1.86-.14-1.16.79.78 2.02z" fill="#f5f5f5"/><path d="m48.75 31.11c.12-.07.49-.19.44-.73-.04-.54-.51-.6-.77-.59-.26.02-.5.24-.5.24l-.87-.55s.43-2.73.89-2.9c.44-.31.51-.45.51-.52l-.16-.25-2.82-.33-2.67.32s-.21.32-.18.44c.03.13.04.26.51.63.53.41.89 2.74.89 2.74l-.79.32c-.04-.04-.27-.09-.39-.07s-.5.22-.5.73.39.81.39.81 2.55-.3 2.93.4c.38-.84 2.81-.55 3.09-.69z" fill="#656263"/><path d="m51.5 28.27c.21-.57.58-.56 1.17-.57 1.23-.03 1.12.41 1.49 1.39.53 1.41 1.36 2.8 1.46 4.35.11 1.67.07 4-.72 5.52-.56 1.08.75 1.38 1.55 1.77l-.61-.23.61.51-.69-.33.41.41-1-.45.44.42-.75-.35c.14.15.29.3.44.45-.21-.1-.43-.2-.65-.28l.03.24c-.76-.63-2.01-.66-2.31-1.57-.35-1.05-1.16-2.46-1.11-3.58.11-2.33.83-5.41.24-7.7z" fill="#302c3b"/><path d="m43.99 39.74-.24.94.33-.46.03 1 .33-.56.01 1.2.29-.58-.03 1.1.26-.49.22.99.27-.64.44.79.12-.61.62.67v-.68l.68.62.03-.47.66.32-.02-.43.81.26-.5-.52h.47l-.78-.48.44-.02-.77-.54.52-.03-.79-.59.41-.09z" fill="#006b00"/><path d="m41.92 31.39c.72-.01 1.44-.03 2.16-.04 0 0 1.43 0 1.58.46.27-.62 1.5-.58 1.5-.58.75-.02 1.49-.05 2.24-.08.01 1.8.03 3.6.04 5.4-.44 2.1-1.96 3.58-3.63 4.21-2-.64-3.26-2.33-3.67-4.25-.07-1.7-.15-3.41-.22-5.12z" fill="#f5f5f5"/><path d="m42.56 31.19 3.29 8.76 2.96-8.95c-.92.06-2.9-.15-3.14.69-.38-.75-2.46-.44-3.11-.5z" fill="#006b00"/><path d="m43.99 17.83 1.84-1.53.24-1.13-.34.26-.12-.53-.09-.09-.16.21-.17-.42-.29.44.51.99-.49.79-.18-.55.19-.55-.33.11.02-.61-.42.33-.14-.06.47 1.25-.32.4-.51-1.32-.12.3-.22-.24.16.7-.25.06.35.39-.32.33.57-.2-.16.44z" fill="#f59e01"/><path d="m42.6 17.83-1.56-1.39-.16-1.04.24.24.17-.56.2.31.29-.4.18.3-.57.9.42.72.14-.5-.26-.4h.39l.02-.52.29.28.24-.23-.49 1.3.21.25.39-1.03.2.21.19-.21-.14.63.22.06-.13.35.1.3-.49-.18.14.4z" fill="#f59e01"/><path d="m48.15 32.62-.32-.36.37-.48-.61.15-.1-.61-.15.65-.6-.27.42.48-1.15.81.3.08-.4.05.13.22-.3.1.18.13-.78.02-.05-.6.83.04-.41-.8-.26.17-.26-.36-.7.21.42-.48-.6.27-.15-.65-.1.61-.61-.15.48.36-.42.48.54-.23.21.61.08-.36-.01-.02.27.21h.06l.14 2.01-.15.42.12-.1.27.65.09-.57.46-.23.33-.11.19.06.15.56-.46.66-.56.27-.21.27.57-.29.02.3.32-.28.02.23.19-.11-.51 1.32.45-.39-.04.57.2-.41.25-.22.09.21.05-.55.17.13-.2-.7.27.16-.23-.87.77-.42-.03-.4-.22.13.17-.4.09-.61-.02.3v-.51l.26.1-.19-.26.45-.18-.22-.01.49-.5-1.16.87-.13 1.7-.42-1.94.25.3.17-.79.42.1-.19-.27.2.06-.33-.19.45-.08-.38-.32.51-.2.01.63.21-.61zm-3.2 2.19.11-.66.8-.09z" fill="#ffc900"/><path d="m38.77 48.82c.32-.08 2.04.38 2.7 1.09-.14-1.27-.49-2.23-.49-2.23s-1.03-.29-1.17-.15c-.2.21-.82.86-1.04 1.29z" fill="#e81c27"/><path d="m38.25 42.97c-.12.02-.24.1-.36.3-.14.34-.24 1.21-.44 1.41s-.38.22-.38.4.02.6.56.76c.54.02 1.41-.86 1.41-.86s.44-.48.62-1c-1.05.36-1.79-.6-1.41-1.01z" fill="#e81c27"/><path d="m53.36 48.62c-.31-.07-2.05.38-2.71 1.08.14-1.26.49-2.22.49-2.22.12-.03 1-.29 1.15-.15.19.22.85.86 1.07 1.29z" fill="#e81c27"/><path d="m53.84 42.81c.12.02.16.18.26.38.14.34.28.83.48 1.03s.38.5.38.67c0 .18-.04.42-.58.58-.54.02-1.32-.67-1.32-.67s-.44-.48-.62-1c1.05.37 1.72-.56 1.4-.99z" fill="#e81c27"/><path d="m52.34 45.42c.41-.44.73-.58.73-.58s-.48-.6-.6-1.02c.96.48 2.29-1.08.84-1.2-1.04.11-1.88.91-2.5 1.88-3.06-1.49-6.69-1.38-9.56.07-.6-.97-1.42-1.76-2.45-1.78-1.47.12-.12 1.69.84 1.21-.12.42-.6 1.03-.6 1.03s.28.12.66.51c-.79.61-1.49 1.34-2.05 2.18 0 0 1.09.74 1.1 1.08.5-.74 1.14-1.4 1.87-1.95.36.72.7 1.71.88 3.05 0 0 .56-1.63.9-1.65.15-.01-.01-1.06-.46-2.23 2.43-1.24 5.48-1.45 8.15-.16-.46 1.11-.63 2.13-.5 2.38.34.02 1.02 1.45 1.02 1.45.18-1.32.51-2.29.86-3 .66.49 1.29 1.08 1.86 1.8.56-.74 1.15-.98 1.15-.98-.63-.82-1.36-1.52-2.14-2.09z" fill="#ffe12c"/><path d="m48.7 31.19.42-.01-.76.96.91 1.06-1.79 2.25 1.69 2.03c-.19.46-.4.87-.69 1.24l-.97-1.07 1.76-2.19-1.45-1.64z" fill="#1e5aa6"/><path d="m42.63 31.38-.46.01.85.92-.9 1.12 1.88 2.04-1.55 2.07c.19.46.45.96.74 1.33l.92-1.16-1.89-2.1 1.39-1.76z" fill="#1e5aa6"/><path d="m44.73 36.84-.67.89 2.38 2.76c.42-.21.75-.46 1.11-.75l-1.24-1.44.51-1.49.73.84-2.28 2.9c-.38-.16-.8-.42-1.18-.73l1.2-1.53z" fill="#1e5aa6"/><path d="m44 35.46.43.54-.28-.73z" fill="#1e5aa6"/><path d="m47.11 35.94.35-.47-.13-.18z" fill="#1e5aa6"/><path d="m51.54 29.51c.19-.01 1.44.03 1.44.2-.47.21-.83.54-1.09 1 .3.45.59.92.88 1.38.08 1.04-1.32 2.02-1.17 3.53.1 1.07.11 2.17.96 2.92 1.13 1 .64-2.09.69-2.37.05-.23 1.1 1 1.07 1.38-.07 1.09-.45.51-.52.78-.3 1.14-.34 1.85-1.25 1.76-1.41-.8-2.79-8.76-1.01-10.58z" fill="#f5f5f5"/><path d="m47.44 27.63s1.13 1.22 1.85 1.2c.13.36-.33.69-.52.85-.37-.12-.7.02-1.56-1.04.06-.67.25-.98.23-1.01z" fill="#f5f5f5"/><path d="m48.97 24.8c.14-.45.44-.81.69-.85-.07-.34.53-1.86 2.26-2.45.11.78-.74 1.55-.74 1.55s2.55-.44 3.07-1.08c-.05.29-.57 2.1-3.29 2.09 1.03.98-.33 1.76-.91 1.52 1.06-.82-.32-1.31-1.08-.78z" fill="#f5f5f5"/><path d="m48.77 29.68s1.4.38 1.56-1.63c-.3-.87-.73-2.75-.08-3.29-.6-.41-1.25.01-1.25.01-.04.09-.57.85.15 2.17-1.69-.45-1 1.15-1 1.15.07-.25.96-.49 1.19.79.09.32-.61.81-.57.8z" fill="#0fb4d4"/><path d="m50.34 28.07s1.48-.79 1.44-2.66c-1.26.03-1.71 1.65-1.71 1.65z" fill="#0fb4d4"/><path d="m43.7 27.97s-1.1.95-1.72.65c-.46.28-1-.21-1-.21s.63 2.34 2.91.65c-.04-.52-.16-1.05-.19-1.09z" fill="#f5f5f5"/><path d="m41.97 28.58c.09-.49.48-.73.78-.26.41.08.82-1.6-.64-1.32.41-2.2-.82-3.01-.82-3.01s-.44 2.43-.24 2.88-.29-.83-1.86-1.19c-.03 1.84 1.76 2.7 1.76 2.7s.5.45 1.02.2z" fill="#0fb4d4"/><path d="m41.1 24.89c0-.01-1.04 0-.42 1.06-.46.15-1.49-.53-.78-1.43-2.34-.05-3.29-1.18-3.29-2.21.69.71 2.33.42 2.91.86-.71-.66-.57-1.57-.57-1.57s2 .6 2.35 2.37c-.12.34-.18.95-.2.92z" fill="#f5f5f5"/><path d="m42.94 24.33c-.05.17-.1.35-.15.53 1.87.04 3.74.07 5.61.11-.11-.58-.51-1.24-.74-1.7.06-.44.14-1.06.25-1.63.09-.48-.65-.6-.47-1.1-.06.16.63.04.62.04-.25.02-.37-1.02-.7-1.15-.65-.25-1.01.01-1.62-.02-.83-.04-2.01-.02-1.77-1.16.39.12.87.03 1.02-.41-.1-.08-1.43-.28-1.64-.29-.19-.01-1.61.36-1.72.45.39.51.78.38 1.16.75.18.17.32 1.07.14 1.01h.21c-.1.09-.17.2-.2.33.12-.03.25-.04.37-.03-.08.18-.18.34-.3.5l.5.04c-.07.15-.13.31-.17.48.12-.05.24-.08.36-.11.29.95-.4 2.47-.76 3.36zm3.97-2.9c.84 0 .4 1.84.09 1.89-.76.1-.66-1.89-.09-1.89zm-1.98.59c-.26-1.63 2.01-1.06 1.29.1-.1.16-.58 1.27-.62 1.27-.62 0-.8-.91-.67-1.37zm-1 1.02c.39-.51-.29-1.75.65-1.98 0 .74.01 1.74-.42 2.38-.1-.18-.25-.26-.45-.24.11-.02.18-.07.22-.16z" fill="#785647"/><path d="m42.71 26.42 2.78 1.82 2.51-1.68s.52-.29.48-.5-.22-.13-.32-.09l-2.62 1.83-2.7-1.7s-.2-.06-.23.06c-.04.13.07.2.1.26z" fill="#bcbcbc"/><path d="m52.04 39.83-1.08.1.34.3 1.32-.02z" fill="#ff7000"/><path d="m51.6 28.4-1.32.69.33.31 1.32-.02z" fill="#ff7000"/><path d="m51.32 40.38.59.42 1.69-.26-.48-.32z" fill="#ff7000"/><path clip-path="url(#a)" d="m51.06 33.78.04-.03v.03z" fill="#ecf1ff"/><path clip-path="url(#a)" d="m50.99 33.78.11-.07v.04l-.04.03z" fill="#edf2ff"/><path clip-path="url(#a)" d="m50.91 33.78.19-.11v.04l-.11.07z" fill="#eef2ff"/><path clip-path="url(#a)" d="m50.84 33.78.26-.16v.05l-.19.11z" fill="#eff3ff"/><path clip-path="url(#a)" d="m50.77 33.78.33-.2v.04l-.26.16z" fill="#f1f4ff"/><path clip-path="url(#a)" d="m50.7 33.78.4-.25v.05l-.33.2z" fill="#f2f5ff"/><path clip-path="url(#a)" d="m50.62 33.78.48-.29v.04l-.4.25z" fill="#f3f6ff"/><path clip-path="url(#a)" d="m50.55 33.78.55-.34v.05l-.48.29z" fill="#f4f6ff"/><g fill="#f5f5f5"><path clip-path="url(#a)" d="m50.48 33.78.62-.38v.04l-.55.34z"/><path clip-path="url(#a)" d="m50.41 33.78.69-.43v.05l-.62.38z"/><path clip-path="url(#a)" d="m50.33 33.78.77-.47v.04l-.69.43z"/><path clip-path="url(#a)" d="m50.26 33.78.84-.52v.05l-.77.47z"/><path clip-path="url(#a)" d="m50.19 33.78.91-.56v.04l-.84.52z"/><path clip-path="url(#a)" d="m50.12 33.78.98-.61v.05l-.91.56z"/><path clip-path="url(#a)" d="m50.04 33.78 1.06-.65v.04l-.98.61z"/><path clip-path="url(#a)" d="m49.97 33.78 1.13-.7v.05l-1.06.65z"/><path clip-path="url(#a)" d="m49.9 33.78 1.2-.74v.04l-1.13.7z"/><path clip-path="url(#a)" d="m49.83 33.78 1.27-.79v.05l-1.2.74z"/><path clip-path="url(#a)" d="m49.75 33.78 1.35-.83v.04l-1.27.79z"/><path clip-path="url(#a)" d="m51.1 32.95-1.35.83h-.33v-2.24h1.68z"/></g><path d="m40.04 30.02c-.29.78.69 2 1.03 2.67.67-.85.96-.94.97.19 0 .26.07.72-.02.97-.13.32-.77.14-.54.54.57.98.46 1.59.17 2.64-.12.41-.53 2.5-1.05 2.59.03 0 .06-1.53.02-1.75-.05-.26-.56-1.02-.37-1.31-.21.34-1.03 1.46-1.54 1.13.22.48.01.73-.07 1.16-.06.3-.08.65-.13 1.01-.07.44-.69.77-.58 1.42-2.07-.73-3.54-2.29-2.84-4.58.16-.51.43-.99.87-1.3.55-.39.59-1.03.83-1.67.1-.25.29-.55.26-.82-.07-.55.27-.78.34-1.24.11-.67.17-1.54.16-2.22-.01-1.11.39-1.01 1.26-1.49.27-.15 1.54.08 1.81.31.3.29-.38 1.58-.58 1.75z" fill="#bcbcbc"/><path d="m42.57 24.72h5.95v1.18h-5.95z" fill="#f5f5f5"/><circle cx="32" cy="32" fill="url(#b)" opacity=".1" r="30"/></svg>