<svg enable-background="new 0 0 64 64" height="64" viewBox="0 0 64 64" width="64" xmlns="http://www.w3.org/2000/svg" xmlns:xlink="http://www.w3.org/1999/xlink"><linearGradient id="a" gradientUnits="userSpaceOnUse" x1="32" x2="32" y1="62" y2="2"><stop offset="0" stop-color="#1a1a1a"/><stop offset=".102" stop-color="#393939" stop-opacity=".949"/><stop offset=".3475" stop-color="#7f7f7f" stop-opacity=".8262"/><stop offset=".5688" stop-color="#b6b6b6" stop-opacity=".7156"/><stop offset=".7582" stop-color="#dedede" stop-opacity=".6209"/><stop offset=".9081" stop-color="#f6f6f6" stop-opacity=".5459"/><stop offset="1" stop-color="#fff" stop-opacity=".5"/></linearGradient><path d="m32 2c-13.06 0-24.17 8.35-28.29 20h56.57c-4.11-11.65-15.22-20-28.28-20z" fill="#e81c27"/><path d="m32 62c13.06 0 24.17-8.35 28.29-20h-56.58c4.12 11.65 15.23 20 28.29 20z" fill="#302c3b"/><path d="m3.71 22c-1.1 3.13-1.71 6.49-1.71 10s.61 6.87 1.71 10h56.57c1.11-3.13 1.72-6.49 1.72-10s-.61-6.87-1.71-10z" fill="#f5f5f5"/><g fill="#529320"><path d="m44.72 26.57c-.18-.09-.38-.24-.45-.33-.1-.14-.04-.14.37-.03.73.2 1.21.12 1.68-.28l.42-.35.49.25c.27.14.56.23.64.21.21-.06.65-.62.64-.81-.02-.24.19-.18.29.08.2.52-.09 1.11-.59 1.24-.25.06-.47.04-.84-.09-.46-.16-.54-.16-.76.02-.53.39-1.24.43-1.89.09z"/><path d="m46.54 24.91c-.18-.23-.39-1.09-.32-1.3.06-.18.12-.22.29-.17.29.09.36.29.31.97-.03.56-.11.71-.28.5z"/><path d="m25.1 24.29c-.06.42.74 1.45 1.1 1.64-.24.11-.55.06-.77.18-1.26 1.25-5.83 5.72-6.67 6.79 2.48.05 5.22-.04 7.55-.14 0-1.68 1.59-1.77 2.66-2.38.55.87 1.93.8 2.1 2.1v5.6c-7.01 0-14.15 0-21.16 0-.37 1.64-1.86 2.9-3.92 2.38.64-.67 1.72-.9 2.1-1.82.33-2.02-.65-3.27-1.28-4.42 1.04-.38 1.2-.47 2.26-1.19-.74 2.27 1.94 2.02 3.93 1.97.07-.77.03-1.67-.56-1.79.76-.28.89-.37 2.1-1.4v3.05c4.72 0 9.83-.04 14.65-.04 0-.95.25-2.48-.5-2.48-.72 0-.03 1.96-.59 1.96s-7.53 0-11.31 0c0-.42-.01-1.3-.01-1.94.48-.48.42-.44 3.7-3.71.31-.33 2.61-2.41 4.62-4.36z"/><path d="m53.38 24.21c.79.42 1.42 1.01 2.38 1.26-.11.4-.47.56-.56.98v8.54c1.08.24 1.31-.37 1.82-.7.14 1.37 1.01 2.71.98 3.78-1.54 0-3.08 0-4.63 0 .01-4.61.01-9.24.01-13.86z"/><path d="m47.22 28.79s1.68-1.42 1.68-1.47v7.46h1.21c0-2.84-.04-5.72-.04-8.36.49-.49 1.45-1.2 1.69-1.7v13.36c-3.41 0-9.78 0-10.62 0-.15-2.77-.18-5.64 3.05-5.03 0-.47 0-.75 0-1.13-.1-.19-.28.05-.32-.2.51-.51.69-.64 2.08-1.86 0 1.46.03 4.92.03 4.92h1.22c.01-.01.02-5.8.02-5.99zm-3.99 5.9c.23.34 1 .34.96-.24-.12-.47-1.14-.29-.96.24z"/><circle cx="12.49" cy="39.65" r=".65"/><path d="m32.5 24.22c.79.42 1.42 1.01 2.38 1.26-.11.4-.47.56-.56.98v8.55c1.08.24 1.31-.38 1.82-.7.14 1.37 1.01 2.71.98 3.78-1.54 0-3.08 0-4.62 0 0-4.62 0-9.24 0-13.87z"/></g><circle cx="32" cy="32" fill="url(#a)" opacity=".1" r="30"/></svg>