<svg enable-background="new 0 0 64 64" height="64" viewBox="0 0 64 64" width="64" xmlns="http://www.w3.org/2000/svg" xmlns:xlink="http://www.w3.org/1999/xlink"><linearGradient id="a" gradientUnits="userSpaceOnUse" x1="32" x2="32" y1="62" y2="2"><stop offset="0" stop-color="#1a1a1a"/><stop offset=".102" stop-color="#393939" stop-opacity=".949"/><stop offset=".3475" stop-color="#7f7f7f" stop-opacity=".8262"/><stop offset=".5688" stop-color="#b6b6b6" stop-opacity=".7156"/><stop offset=".7582" stop-color="#dedede" stop-opacity=".6209"/><stop offset=".9081" stop-color="#f6f6f6" stop-opacity=".5459"/><stop offset="1" stop-color="#fff" stop-opacity=".5"/></linearGradient><path d="m45.23 38.75c1.03-2.03 1.63-4.32 1.63-6.75s-.59-4.72-1.63-6.75l10.97-10.98c-1.87-2.55-4.13-4.79-6.7-6.63l-10.96 10.96c-2.03-1.01-4.31-1.6-6.73-1.6s-4.71.58-6.73 1.6l-10.81-10.8c-2.55 1.87-4.79 4.13-6.63 6.7l10.75 10.75c-1.03 2.03-1.63 4.32-1.63 6.75s.59 4.72 1.63 6.75l-10.75 10.75c1.85 2.57 4.09 4.83 6.63 6.7l10.8-10.8c2.03 1.01 4.31 1.6 6.73 1.6s4.71-.58 6.73-1.6l10.97 10.96c2.57-1.85 4.83-4.08 6.7-6.63z" fill="#f5f5f5"/><path d="m31.8 17c2.42 0 4.71.58 6.73 1.6l10.97-10.96c-4.93-3.55-10.97-5.64-17.5-5.64-6.63 0-12.76 2.16-17.73 5.8l10.8 10.8c2.03-1.02 4.31-1.6 6.73-1.6z" fill="#e81c27"/><path d="m46.85 32c0 2.43-.59 4.72-1.63 6.75l10.98 10.98c3.64-4.97 5.8-11.1 5.8-17.73s-2.16-12.76-5.8-17.73l-10.97 10.98c1.03 2.03 1.62 4.32 1.62 6.75z" fill="#529320"/><path d="m16.76 32c0-2.43.59-4.72 1.63-6.75l-10.75-10.75c-3.55 4.93-5.64 10.97-5.64 17.5s2.09 12.57 5.64 17.5l10.75-10.75c-1.04-2.03-1.63-4.32-1.63-6.75z" fill="#529320"/><g fill="#e81c27"><path d="m31.8 47c-2.42 0-4.71-.58-6.73-1.6l-10.8 10.8c4.97 3.64 11.1 5.8 17.73 5.8 6.53 0 12.57-2.09 17.5-5.64l-10.96-10.96c-2.03 1.02-4.31 1.6-6.74 1.6z"/><path d="m34.8 25.78h-2l-1-1.78-1 1.78h-2l1 1.78-1 1.78h2l1 1.78 1-1.78h2l-1-1.78z"/><path d="m28.8 34.67h-2l-1-1.78-1 1.78h-2l1 1.78-1 1.78h2l1 1.78 1-1.78h2l-1-1.78z"/><path d="m40.8 34.67h-2l-1-1.78-1 1.78h-2l1 1.78-1 1.78h2l1 1.78 1-1.78h2l-1-1.78z"/></g><circle cx="32" cy="32" fill="url(#a)" opacity=".1" r="30"/></svg>