<svg enable-background="new 0 0 64 64" height="64" viewBox="0 0 64 64" width="64" xmlns="http://www.w3.org/2000/svg" xmlns:xlink="http://www.w3.org/1999/xlink"><linearGradient id="a" gradientUnits="userSpaceOnUse" x1="32" x2="32" y1="62" y2="2"><stop offset="0" stop-color="#1a1a1a"/><stop offset=".102" stop-color="#393939" stop-opacity=".949"/><stop offset=".3475" stop-color="#7f7f7f" stop-opacity=".8262"/><stop offset=".5688" stop-color="#b6b6b6" stop-opacity=".7156"/><stop offset=".7582" stop-color="#dedede" stop-opacity=".6209"/><stop offset=".9081" stop-color="#f6f6f6" stop-opacity=".5459"/><stop offset="1" stop-color="#fff" stop-opacity=".5"/></linearGradient><path d="m32 2c-13.06 0-24.17 8.35-28.29 20h56.57c-4.11-11.65-15.22-20-28.28-20z" fill="#e81c27"/><path d="m32 62c13.06 0 24.17-8.35 28.29-20h-56.58c4.12 11.65 15.23 20 28.29 20z" fill="#529320"/><path d="m3.71 22c-1.1 3.13-1.71 6.49-1.71 10s.61 6.87 1.71 10h56.57c1.11-3.13 1.72-6.49 1.72-10s-.61-6.87-1.71-10z" fill="#ffe12c"/><path d="m31.32 37.73h1.37v2.91h-1.37z" fill="#e81c27"/><path d="m30.24 37.99h1.37v2.91h-1.37z" fill="#ffe000"/><path d="m32.39 37.99h1.37v2.91h-1.37z" fill="#ffe000"/><g fill="#529320"><path d="m30 37.99h.86v3.65h-.86z"/><path d="m33.13 37.99h.86v3.65h-.86z"/><path d="m29.6 23.38s-.33-.09-.59-.09l.01-.01c.21-.32.28-.91.28-.91s-.51.3-.72.62c-.11-.23-.31-.46-.31-.46s-.24.27-.21.54c.04.26.38.66.38.66s.5.14.76.07c.25-.09.4-.42.4-.42z"/><path d="m29.12 24.14s-.34-.01-.6.06l.01-.02c.12-.36.03-.95.03-.95s-.42.42-.54.78c-.17-.19-.42-.37-.42-.37s-.16.33-.06.57c.11.25.53.54.53.54s.52.01.75-.13c.24-.12.3-.48.3-.48z"/><path d="m28.86 24.99s-.33.08-.56.22v-.02c.02-.38-.22-.93-.22-.93s-.29.52-.32.89c-.21-.14-.5-.25-.5-.25s-.07.36.09.57c.17.21.66.39.66.39s.51-.12.69-.32c.2-.18.16-.55.16-.55z"/><path d="m28.83 25.89s-.3.16-.48.35v-.02c-.08-.37-.45-.84-.45-.84s-.15.57-.07.94c-.24-.08-.55-.11-.55-.11s.02.36.24.52c.21.16.73.2.73.2s.46-.25.59-.48c.12-.22-.01-.56-.01-.56z"/><path d="m29.04 26.76s-.25.24-.37.46l-.01-.01c-.18-.34-.66-.69-.66-.69s.01.59.18.93c-.25-.02-.56.03-.56.03s.12.34.37.45c.25.1.76.01.76.01s.38-.36.44-.62-.15-.56-.15-.56z"/><path d="m29.46 27.55s-.18.29-.24.55l-.01-.01c-.26-.28-.82-.5-.82-.5s.16.57.41.85c-.25.05-.53.17-.53.17s.2.3.47.34c.27.03.74-.19.74-.19s.27-.44.26-.71c0-.27-.28-.5-.28-.5z"/><path d="m30.08 28.2s-.09.33-.09.59l-.01-.01c-.32-.21-.92-.28-.92-.28s.3.51.62.72c-.23.11-.47.31-.47.31s.27.24.54.2.66-.37.66-.37.15-.5.07-.75c-.07-.26-.4-.41-.4-.41z"/><path d="m30.84 28.67s-.01.34.07.59h-.02c-.36-.12-.96-.03-.96-.03s.43.41.79.53c-.19.16-.37.42-.37.42s.33.16.58.06.54-.53.54-.53.01-.52-.13-.75c-.14-.22-.5-.29-.5-.29z"/><path d="m34.4 23.38s.33-.09.59-.09l-.01-.01c-.21-.32-.28-.91-.28-.91s.51.3.72.62c.11-.23.31-.46.31-.46s.24.27.21.54c-.04.26-.37.66-.37.66s-.5.14-.76.07c-.26-.09-.41-.42-.41-.42z"/><path d="m34.88 24.14s.34-.01.6.06l-.01-.02c-.12-.36-.03-.95-.03-.95s.42.42.54.78c.17-.19.42-.37.42-.37s.16.33.06.57c-.11.25-.53.54-.53.54s-.52.01-.75-.13c-.24-.12-.3-.48-.3-.48z"/><path d="m35.14 24.99s.33.08.56.22v-.02c-.02-.38.22-.93.22-.93s.29.52.31.89c.21-.14.5-.25.5-.25s.07.36-.09.57-.65.39-.65.39-.51-.12-.69-.32c-.2-.18-.16-.55-.16-.55z"/><path d="m35.17 25.89s.3.16.48.35v-.02c.08-.37.45-.84.45-.84s.15.57.07.94c.24-.08.55-.11.55-.11s-.02.36-.24.52c-.21.16-.73.2-.73.2s-.46-.25-.59-.48c-.12-.22.01-.56.01-.56z"/><path d="m34.96 26.76s.25.24.38.46l.01-.01c.17-.34.66-.69.66-.69s-.01.59-.18.93c.25-.02.56.03.56.03s-.12.34-.37.45c-.25.1-.76.01-.76.01s-.38-.36-.44-.62.14-.56.14-.56z"/><path d="m34.54 27.55s.17.29.24.55l.01-.01c.25-.28.81-.5.81-.5s-.16.57-.41.85c.25.05.53.17.53.17s-.2.3-.47.34c-.27.03-.74-.19-.74-.19s-.27-.44-.26-.71c0-.27.29-.5.29-.5z"/><path d="m33.92 28.2s.09.33.09.59l.01-.01c.32-.21.92-.28.92-.28s-.3.51-.62.72c.23.11.47.31.47.31s-.28.24-.54.2c-.27-.04-.66-.37-.66-.37s-.15-.5-.07-.75c.07-.26.4-.41.4-.41z"/><path d="m33.16 28.67s.01.34-.07.59h.01c.37-.12.96-.03.96-.03s-.43.41-.79.53c.2.16.37.42.37.42s-.33.16-.58.06-.54-.53-.54-.53-.01-.52.13-.75c.14-.22.51-.29.51-.29z"/></g><path d="m35.31 25.65c-1.03 0-2.2 1.18-3.31 1.18-1.1 0-2.27-1.18-3.31-1.18-1.03 0-4.96 1.18-4.96 1.18 5.51 0 8.27 2.95 8.27 2.95s2.76-2.95 8.27-2.95c0 0-3.93-1.18-4.96-1.18z" fill="#594640"/><circle cx="32" cy="26.34" fill="#f5f5f5" r=".69"/><path d="m27.22 32.2.6.49.28-.56.05-.35c-.04-.99-.02-1.96-.02-1.96l.18.13c-.2-.16-.43-.36-.67-.56l-.39-.32c-.01-.01-.02 2.07-.03 3.13z" fill="#ffe000"/><path d="m28.15 31.78.59-1.47-.61-.49s-.02.97.02 1.96z" fill="#529320"/><path d="m27.24 29.06.39.32c-.72-.6-1.56-1.3-1.98-1.66-.08-.07-.1 1.44-.09 3.11l1.66 1.37c.01-1.06.02-3.14.02-3.14z" fill="#d52b1e"/><path d="m36.78 32.2-.6.49-.28-.56-.05-.35c.04-.99.02-1.96.02-1.96l-.17.13c.19-.16.42-.36.67-.56l.4-.32c-.01-.01-.01 2.07.01 3.13z" fill="#ffe000"/><path d="m35.85 31.78-.59-1.47.61-.49s.02.97-.02 1.96z" fill="#529320"/><path d="m36.76 29.06-.39.32c.72-.6 1.56-1.3 1.98-1.66.08-.07.1 1.44.09 3.11l-1.66 1.37c-.02-1.06-.02-3.14-.02-3.14z" fill="#d52b1e"/><path d="m27.76 38.04c-1.33-.7-1.55-2.84-1.53-3.14.02-.29.03-3.71.03-3.71l.39.32c-.72-.6-1.56-1.31-1.98-1.67-.14-.12-.04 4.48-.04 6.53 0 .96.71 4.34 4.91 2.64 0 0 2.09-.63 2.71-1.39-.14 0-.28-.01-.42-.02l-.2.08c-2.43 1.36-3.87.36-3.87.36z" fill="#d52b1e"/><path d="m26.23 34.9c-.02.29.2 2.44 1.53 3.14 0 0 1.44 1 3.86-.36-.73.25-1.33.31-1.72.21-1.17-.29-2.41-1.42-2.6-2.56-.2-1.14-.15-3.38-.15-3.38l.18.13c-.19-.16-.42-.36-.67-.56l-.39-.32c-.01-.01-.02 3.41-.04 3.7z" fill="#ffe000"/><path d="m27.94 33.42c-.01-.1-.02-.47-.02-.87-.28-.23.05.05-.59-.49l-.18-.15v.07c-.01.31-.03 2.29.15 3.34.2 1.14 1.4 2.27 2.57 2.56.39.1 1.02.04 1.75-.21l.15-.09c-2.11-.24-3.57-1.89-3.83-4.16z" fill="#529320"/><path d="m36.24 38.11c1.33-.7 1.55-2.84 1.53-3.14-.02-.29-.03-3.71-.03-3.71l-.39.32c.72-.6 1.56-1.31 1.98-1.67.14-.12.04 4.48.04 6.53 0 .96-.71 4.34-4.91 2.64 0 0-2.09-.63-2.7-1.38.14 0 .28-.01.42-.02l.21.08c2.4 1.36 3.85.35 3.85.35z" fill="#d52b1e"/><path d="m37.77 34.98c.02.29-.2 2.44-1.53 3.14 0 0-1.44 1-3.86-.36.73.25 1.33.3 1.72.21 1.17-.29 2.4-1.42 2.6-2.56s.15-3.38.15-3.38l-.18.13c.2-.16.43-.36.67-.56l.4-.32c-.01-.02.01 3.41.03 3.7z" fill="#ffe000"/><path d="m36.05 33.5c.01-.1.02-.47.02-.87.28-.23-.05.05.59-.48l.18-.15v.07c.01.31.03 2.29-.15 3.34-.2 1.14-1.4 2.27-2.57 2.56-.39.1-1.02.04-1.75-.21l-.15-.09c2.12-.25 3.58-1.9 3.83-4.17z" fill="#529320"/><ellipse cx="32" cy="33.28" fill="#0fb4d4" rx="4.24" ry="4.91"/><path d="m35.46 33.43c0 2.26-6.92 2.26-6.92 0s1.55-4.1 3.46-4.1 3.46 1.84 3.46 4.1z" fill="#f59e01"/><ellipse cx="31.91" cy="31.63" fill="#d52b1e" rx="1.67" ry="1.43"/><path d="m31.82 31.28c-1.04.02-3.28 2.19-3.28 2.19 0 2.11 1.55 3.81 3.46 3.81s3.46-1.71 3.46-3.81c0 0-2.53-2.21-3.64-2.19z" fill="#529320"/><path d="m32.33 35.02h.85v1.44h-.85z" fill="#f59e01"/><path d="m33.58 33.43h.46v2.77h-.46z" fill="#f5f5f5"/><circle cx="32" cy="32" fill="url(#a)" opacity=".1" r="30"/></svg>