<svg enable-background="new 0 0 64 64" height="64" viewBox="0 0 64 64" width="64" xmlns="http://www.w3.org/2000/svg" xmlns:xlink="http://www.w3.org/1999/xlink"><linearGradient id="a" gradientUnits="userSpaceOnUse" x1="31.9995" x2="31.9995" y1="2" y2="62.0005"><stop offset="0" stop-color="#f90"/><stop offset=".2875" stop-color="#ff9500"/><stop offset=".5853" stop-color="#f80"/><stop offset=".8868" stop-color="#ff7400"/><stop offset="1" stop-color="#ff6a00"/></linearGradient><path d="m2 32c0-16.564 13.439-30 30-30 16.572 0 30 13.436 30 30 0 16.57-13.428 30-30 30-16.561 0-30-13.43-30-30z" fill="url(#a)"/><path d="m16.62 32c0-9.002 6.724-16 16.055-16 6.878 0 12.754 4.236 14.646 10.42.188.716-.187 1.178-.902 1.178h-4.28c-.583 0-.935-.286-1.188-.825-1.375-2.993-4.566-4.875-8.275-4.875-6.041 0-10.002 4.182-10.002 10.103 0 5.92 3.961 10.102 10.002 10.102 3.709 0 6.9-1.882 8.275-4.875.254-.539.605-.825 1.188-.825h4.28c.716 0 1.102.429.914 1.089-1.827 6.195-7.736 10.508-14.658 10.508-9.331 0-16.055-6.999-16.055-16z" fill="#fff"/></svg>