<svg enable-background="new 0 0 64 64" height="64" viewBox="0 0 64 64" width="64" xmlns="http://www.w3.org/2000/svg" xmlns:xlink="http://www.w3.org/1999/xlink"><linearGradient id="a" gradientUnits="userSpaceOnUse" x1="32.0005" x2="32.0005" y1="62" y2="2.0005"><stop offset="0" stop-color="#1a1a1a"/><stop offset=".102" stop-color="#393939" stop-opacity=".949"/><stop offset=".3475" stop-color="#7f7f7f" stop-opacity=".8262"/><stop offset=".5688" stop-color="#b6b6b6" stop-opacity=".7156"/><stop offset=".7582" stop-color="#dedede" stop-opacity=".6209"/><stop offset=".9081" stop-color="#f6f6f6" stop-opacity=".5459"/><stop offset="1" stop-color="#fff" stop-opacity=".5"/></linearGradient><path d="m61.535 26.768c-2.476-14.073-14.752-24.768-29.535-24.768s-27.06 10.695-29.537 24.768l29.537-14.768z" fill="#529320"/><path d="m2.463 37.232c2.477 14.073 14.754 24.768 29.537 24.768s27.059-10.695 29.535-24.768l-29.535 14.768z" fill="#529320"/><path d="m32 12-29.537 14.768c-.299 1.701-.463 3.447-.463 5.232s.164 3.533.463 5.232l29.537 14.768 29.535-14.768c.299-1.699.465-3.447.465-5.232s-.166-3.531-.465-5.232z" fill="#ffe12c"/><path d="m25.996 28.436c-3.174 0-6.175.688-8.895 1.871-.062.556-.101 1.119-.101 1.693 0 8.285 6.715 15 15 15 5.604 0 10.482-3.078 13.057-7.633-3.696-6.502-10.846-10.931-19.061-10.931z" fill="#014d87"/><path d="m46.785 34.43c.13-.793.215-1.6.215-2.43 0-8.283-6.717-15-15-15-5.924 0-11.03 3.443-13.469 8.428 2.367-.689 4.867-1.084 7.465-1.084 8.504 0 16.047 3.974 20.789 10.086z" fill="#014d87"/><g fill="#f5f5f5"><path d="m25.996 24.344c-2.598 0-5.098.395-7.465 1.084-.734 1.504-1.234 3.145-1.43 4.879 2.72-1.184 5.721-1.871 8.895-1.871 8.215 0 15.365 4.43 19.061 10.932.851-1.504 1.439-3.168 1.729-4.938-4.743-6.112-12.286-10.086-20.79-10.086z"/><circle cx="22" cy="32" r="1"/><circle cx="26" cy="38" r="1"/><circle cx="32" cy="38" r="1"/><circle cx="32" cy="42" r="1"/><circle cx="40" cy="38" r="1"/><circle cx="40" cy="42" r="1"/><circle cx="36" cy="40" r="1"/><circle cx="22" cy="36" r="1"/></g><circle cx="32" cy="32" fill="url(#a)" opacity=".1" r="30"/></svg>