<svg enable-background="new 0 0 64 64" height="64" viewBox="0 0 64 64" width="64" xmlns="http://www.w3.org/2000/svg" xmlns:xlink="http://www.w3.org/1999/xlink"><linearGradient id="a" gradientUnits="userSpaceOnUse" x1="32" x2="32" y1="62" y2="2"><stop offset="0" stop-color="#1a1a1a"/><stop offset=".102" stop-color="#393939" stop-opacity=".949"/><stop offset=".3475" stop-color="#7f7f7f" stop-opacity=".8262"/><stop offset=".5688" stop-color="#b6b6b6" stop-opacity=".7156"/><stop offset=".7582" stop-color="#dedede" stop-opacity=".6209"/><stop offset=".9081" stop-color="#f6f6f6" stop-opacity=".5459"/><stop offset="1" stop-color="#fff" stop-opacity=".5"/></linearGradient><path d="m32 2c-13.06 0-24.17 8.35-28.29 20h56.57c-4.11-11.65-15.22-20-28.28-20z" fill="#529320"/><path d="m32 62c13.06 0 24.17-8.35 28.29-20h-56.58c4.12 11.65 15.23 20 28.29 20z" fill="#e81c27"/><g fill="#f5f5f5"><path d="m3.71 22c-1.1 3.13-1.71 6.49-1.71 10s.61 6.87 1.71 10h56.57c1.11-3.13 1.72-6.49 1.72-10s-.61-6.87-1.71-10z"/><path d="m59.37 44.29c-.09.19-.17.39-.26.58h.26z"/><path d="m4.9 44.87c-.09-.19-.18-.39-.26-.58v.58z"/><path d="m5.63 18.8h-.57c-.06.11-.11.22-.16.33h.74v-.33z"/><path d="m5.63 21v-.33h-1v-.6h1.53v.93h2.2v-2.27h-.33v1.93h-.6v-1.93h-.33v1.93h-.6v-1.93h-.33v1h-1.54c-.11.24-.22.49-.32.74v.53z"/><path d="m5.63 44.87h-.73c.05.11.1.22.16.33h.58v-.33z"/><path d="m4.63 44.27h1.53v.93h2.2v-2.27h-.33v1.93h-.6v-1.93h-.33v1.93h-.6v-1.93h-.33v1h-1.7c.05.12.11.24.16.35z"/><path d="m5.63 43h-1.54c.04.11.09.22.13.33h1.41z"/><path d="m13.63 21h1.34v-.33h-1v-.6h1.53v.93h2.2v-2.27h-.33v1.94h-.6v-1.94h-.34v1.94h-.6v-1.94h-.33v1h-1.87z"/><path d="m13.03 21v-1.27h-1.33v.34h1v.6h-1.53v-.94h-2.2v1.34h.33v-1h1.53v.93z"/><path d="m9.83 20.67h.47v.33h-.47z"/><path d="m8.9 18.8h6.07v.33h-6.07z"/><path d="m11.7 44.27h1v.6h-1.53v-.94h-2.2v1.34h.33v-1h1.53v.93h2.2v-1.27h-1.33z"/><path d="m9.83 44.87h.47v.33h-.47z"/><path d="m8.9 43h6.07v.33h-6.07z"/><path d="m17.37 44.87h-.6v-1.94h-.34v1.94h-.6v-1.94h-.33v1h-1.87v1.27h1.34v-.33h-1v-.6h1.53v.93h2.2v-2.27h-.33z"/><path d="m22.97 21h1.33v-.33h-1v-.6h1.53v.93h2.2v-2.27h-.33v1.94h-.6v-1.94h-.33v1.94h-.6v-1.94h-.34v1h-1.86z"/><path d="m22.37 21v-1.27h-1.34v.34h1v.6h-1.53v-.94h-2.2v1.34h.33v-1h1.54v.93z"/><path d="m18.23 18.8h6.07v.33h-6.07z"/><path d="m19.17 20.67h.47v.33h-.47z"/><path d="m26.7 44.87h-.6v-1.94h-.33v1.94h-.6v-1.94h-.34v1h-1.86v1.27h1.33v-.33h-1v-.6h1.53v.93h2.2v-2.27h-.33z"/><path d="m19.17 44.87h.47v.33h-.47z"/><path d="m18.23 43h6.07v.33h-6.07z"/><path d="m21.03 44.27h1v.6h-1.53v-.94h-2.2v1.34h.33v-1h1.54v.93h2.2v-1.27h-1.34z"/><path d="m31.7 21v-1.27h-1.33v.34h1v.6h-1.54v-.94h-2.2v1.34h.34v-1h1.53v.93z"/><path d="m27.57 18.8h6.07v.33h-6.07z"/><path d="m28.5 20.67h.47v.33h-.47z"/><path d="m32.3 21h1.33v-.33h-1v-.6h1.54v.93h2.2v-2.27h-.34v1.94h-.6v-1.94h-.33v1.94h-.6v-1.94h-.33v1h-1.87z"/><path d="m27.57 43h6.07v.33h-6.07z"/><path d="m30.37 44.27h1v.6h-1.54v-.94h-2.2v1.34h.34v-1h1.53v.93h2.2v-1.27h-1.33z"/><path d="m28.5 44.87h.47v.33h-.47z"/><path d="m36.03 44.87h-.6v-1.94h-.33v1.94h-.6v-1.94h-.33v1h-1.87v1.27h1.33v-.33h-1v-.6h1.54v.93h2.2v-2.27h-.34z"/><path d="m37.83 20.67h.47v.33h-.47z"/><path d="m36.9 18.8h6.07v.33h-6.07z"/><path d="m41.63 21h1.34v-.33h-1v-.6h1.53v.93h2.2v-2.27h-.33v1.94h-.6v-1.94h-.34v1.94h-.6v-1.94h-.33v1h-1.87z"/><path d="m41.03 21v-1.27h-1.33v.34h1v.6h-1.53v-.94h-2.2v1.34h.33v-1h1.53v.93z"/><path d="m36.9 43h6.07v.33h-6.07z"/><path d="m45.37 44.87h-.6v-1.94h-.34v1.94h-.6v-1.94h-.33v1h-1.87v1.27h1.34v-.33h-1v-.6h1.53v.93h2.2v-2.27h-.33z"/><path d="m39.7 44.27h1v.6h-1.53v-.94h-2.2v1.34h.33v-1h1.53v.93h2.2v-1.27h-1.33z"/><path d="m37.83 44.87h.47v.33h-.47z"/><path d="m50.37 21v-1.27h-1.34v.34h1v.6h-1.53v-.94h-2.2v1.34h.33v-1h1.54v.93z"/><path d="m47.17 20.67h.46v.33h-.46z"/><path d="m46.23 18.8h6.07v.33h-6.07z"/><path d="m50.97 21h1.33v-.33h-1v-.6h1.53v.93h2.2v-2.27h-.33v1.94h-.6v-1.94h-.33v1.94h-.6v-1.94h-.34v1h-1.86z"/><path d="m47.17 44.87h.46v.33h-.46z"/><path d="m49.03 44.27h1v.6h-1.53v-.94h-2.2v1.34h.33v-1h1.54v.93h2.2v-1.27h-1.34z"/><path d="m46.23 43h6.07v.33h-6.07z"/><path d="m54.7 44.87h-.6v-1.94h-.33v1.94h-.6v-1.94h-.34v1h-1.86v1.27h1.33v-.33h-1v-.6h1.53v.93h2.2v-2.27h-.33z"/><path d="m55.57 19.13h3.54c-.05-.11-.11-.22-.16-.33h-3.38z"/><path d="m58.37 20.07h1v.6h-1.53v-.93h-2.2v1.33h.33v-1h1.53v.93h2.2v-.53c-.1-.25-.21-.49-.33-.74h-1.01v.34z"/><path d="m56.5 20.67h.47v.33h-.47z"/><path d="m56.5 44.87h.47v.33h-.47z"/><path d="m55.57 43v.33h4.21c.04-.11.09-.22.13-.33z"/><path d="m58.37 44.27h1v.02c.05-.12.11-.23.16-.35h-1.16z"/><path d="m57.83 44.87v-.93h-2.2v1.33h.33v-1h1.53v.93h1.44c.05-.11.11-.22.16-.33z"/></g><path d="m36.51 33.88c.85-2.62.05-5.5-2.04-7.3 2.27 3.36 1.45 7.89-1.8 10.25l.22-5.59v-4.41c-.35-.17-.66-.42-.88-.74-.23.32-.53.57-.88.74v4.41l.23 5.59c-3.25-2.37-4.08-6.9-1.8-10.26-2.09 1.8-2.9 4.68-2.04 7.3.57 1.76 1.79 3.13 3.31 3.93-.93.34-1.91.51-2.91.46 1.18.38 2.39.42 3.52.19l.01.24.55.81.58-.8.01-.24c1.13.24 2.34.2 3.52-.19-1 .05-1.98-.13-2.91-.46 1.52-.8 2.74-2.17 3.31-3.93z" fill="#e81c27"/><path d="m38.73 29.13c-.78-1.34-2.06-2.31-3.57-2.69 3.31 2.49 3.98 7.19 1.49 10.5 0 .01-.01.01-.01.02 2.74-1.58 3.67-5.09 2.09-7.83z" fill="#e81c27"/><path d="m28.84 26.44c-1.5.38-2.79 1.35-3.57 2.69-1.58 2.74-.65 6.24 2.09 7.83 0-.01-.01-.01-.01-.02-2.49-3.31-1.82-8.01 1.49-10.5z" fill="#e81c27"/><path d="m30.49 26.03c.49.34 1.16.23 1.51-.26.34.49 1.02.61 1.51.26.41-.29.57-.82.38-1.29-.1.55-.64.92-1.2.82-.29-.06-.55-.24-.7-.49-.15.26-.4.44-.7.49-.55.1-1.09-.26-1.2-.82-.17.47-.01 1 .4 1.29z" fill="#e81c27"/><circle cx="32" cy="32" fill="url(#a)" opacity=".1" r="30"/></svg>