<svg enable-background="new 0 0 64 64" height="64" viewBox="0 0 64 64" width="64" xmlns="http://www.w3.org/2000/svg" xmlns:xlink="http://www.w3.org/1999/xlink"><linearGradient id="a" gradientUnits="userSpaceOnUse" x1="32" x2="32" y1="62" y2="2"><stop offset="0" stop-color="#1a1a1a"/><stop offset=".102" stop-color="#393939" stop-opacity=".949"/><stop offset=".3475" stop-color="#7f7f7f" stop-opacity=".8262"/><stop offset=".5688" stop-color="#b6b6b6" stop-opacity=".7156"/><stop offset=".7582" stop-color="#dedede" stop-opacity=".6209"/><stop offset=".9081" stop-color="#f6f6f6" stop-opacity=".5459"/><stop offset="1" stop-color="#fff" stop-opacity=".5"/></linearGradient><g fill="#014d87"><path d="m22 60.29v-13.82l-10.31 7.6c2.95 2.72 6.45 4.85 10.31 6.22z"/><path d="m42 60.29c3.88-1.37 7.38-3.51 10.34-6.24l-10.34-7.6z"/><path d="m3.71 42c.35.98.74 1.94 1.18 2.87l3.9-2.87z"/><path d="m55.21 42 3.89 2.87c.44-.93.84-1.89 1.18-2.87z"/></g><path d="m2.6 38c.28 1.37.65 2.7 1.11 4h5.07l-3.88 2.87c.79 1.66 1.73 3.23 2.79 4.7l10.31-7.57h.04 3.96v2.05.02l-11.71 8.62c.45.47.91.93 1.39 1.38l10.32-7.6v13.82c1.29.46 2.63.83 4 1.11v-23.4z" fill="#f5f5f5"/><path d="m61.4 38h-23.4v23.4c1.37-.28 2.71-.65 4-1.11v-13.84l10.34 7.6c1.38-1.27 2.64-2.67 3.76-4.18l-10.65-7.87h.01 6.76l6.06 4.47c.29-.53.56-1.06.82-1.6l-3.89-2.87h5.07c.46-1.3.84-2.63 1.12-4z" fill="#f5f5f5"/><path d="m7.72 49.61c.78 1.08 1.63 2.1 2.55 3.06.01.01.02.02.03.03l11.7-8.63v-.02-2.05h-3.95z" fill="#e81c27"/><path d="m45.46 42 10.65 7.85c.37-.5.72-1.01 1.06-1.54.05-.08.1-.16.15-.24.33-.52.65-1.05.95-1.6l-6.05-4.47z" fill="#e81c27"/><path d="m42 3.71v13.82l10.31-7.6c-2.95-2.72-6.45-4.85-10.31-6.22z" fill="#014d87"/><path d="m22 3.71c-3.88 1.37-7.38 3.51-10.34 6.24l10.34 7.6z" fill="#014d87"/><path d="m60.29 22c-.35-.98-.74-1.94-1.18-2.87l-3.9 2.87z" fill="#014d87"/><path d="m8.79 22-3.89-2.87c-.45.93-.84 1.89-1.19 2.87z" fill="#014d87"/><path d="m61.4 26c-.28-1.37-.65-2.7-1.11-4h-5.07l3.89-2.87c-.79-1.66-1.72-3.23-2.79-4.7l-10.32 7.57h-.04-3.96v-2.05-.02l11.71-8.62c-.45-.47-.91-.93-1.39-1.38l-10.32 7.6v-13.82c-1.3-.46-2.63-.83-4-1.11v23.4z" fill="#f5f5f5"/><path d="m2.6 26h23.4v-23.4c-1.37.28-2.71.65-4 1.11v13.84l-10.34-7.6c-1.38 1.27-2.64 2.67-3.76 4.18l10.65 7.87h-.01-6.76l-6.06-4.47c-.29.53-.56 1.06-.82 1.6l3.89 2.87h-5.08c-.45 1.3-.83 2.63-1.11 4z" fill="#f5f5f5"/><path d="m56.28 14.39c-.78-1.08-1.63-2.1-2.55-3.06-.01-.01-.02-.02-.03-.03l-11.7 8.63v.02 2.05h3.95z" fill="#e81c27"/><path d="m18.54 22-10.65-7.85c-.37.5-.72 1.01-1.06 1.54-.05.08-.1.16-.15.24-.33.52-.65 1.05-.95 1.6l6.05 4.47z" fill="#e81c27"/><path d="m61.4 26h-23.4v-23.4c-1.94-.39-3.95-.6-6-.6s-4.06.21-6 .6v23.4h-23.4c-.39 1.94-.6 3.95-.6 6s.21 4.06.6 6h23.4v23.4c1.94.39 3.95.6 6 .6s4.06-.21 6-.6v-23.4h23.4c.39-1.94.6-3.95.6-6s-.21-4.06-.6-6z" fill="#e81c27"/><circle cx="32" cy="32" fill="url(#a)" opacity=".1" r="30"/></svg>