<svg enable-background="new 0 0 64 64" height="64" viewBox="0 0 64 64" width="64" xmlns="http://www.w3.org/2000/svg" xmlns:xlink="http://www.w3.org/1999/xlink"><linearGradient id="a" gradientUnits="userSpaceOnUse" x1="32" x2="32" y1="62" y2="2"><stop offset="0" stop-color="#1a1a1a"/><stop offset=".102" stop-color="#393939" stop-opacity=".949"/><stop offset=".3475" stop-color="#7f7f7f" stop-opacity=".8262"/><stop offset=".5688" stop-color="#b6b6b6" stop-opacity=".7156"/><stop offset=".7582" stop-color="#dedede" stop-opacity=".6209"/><stop offset=".9081" stop-color="#f6f6f6" stop-opacity=".5459"/><stop offset="1" stop-color="#fff" stop-opacity=".5"/></linearGradient><circle cx="32" cy="32" fill="#e81c27" r="30"/><g fill="#ffe12c"><path d="m22 28.37 8.03 5.63-3.03-9.16 8-5.84h-9.91l-3.09-9-3 9h-10l8 5.84-3.04 9.16z"/><path d="m35.27 35.28-2.27.56 2.24.86-.01 2.3 1.44-1.75 2.22.83-1.34-1.9 1.45-1.77-2.31.52-1.36-1.93z"/><path d="m38.71 28.47-1.71 1.53 2.29-.18.97 2.18.49-2.29 2.25-.2-1.95-1.2.49-2.31-1.76 1.51-1.99-1.22z"/><path d="m39.28 20.73.69 2.27.73-2.23 2.3.03-1.83-1.45.7-2.21-1.83 1.32-1.84-1.46.65 2.31-1.85 1.34z"/><path d="m35.27 12.72.06 2.28 1.36-1.93 2.31.52-1.43-1.75 1.32-1.92-2.21.84-1.45-1.76.01 2.3-2.24.86z"/></g><circle cx="32" cy="32" fill="url(#a)" opacity=".1" r="30"/></svg>