<svg enable-background="new 0 0 64 64" height="64" viewBox="0 0 64 64" width="64" xmlns="http://www.w3.org/2000/svg" xmlns:xlink="http://www.w3.org/1999/xlink"><linearGradient id="a" gradientUnits="userSpaceOnUse" x1="31.9995" x2="31.9995" y1="2" y2="62.0005"><stop offset="0" stop-color="#f90"/><stop offset=".2875" stop-color="#ff9500"/><stop offset=".5853" stop-color="#f80"/><stop offset=".8868" stop-color="#ff7400"/><stop offset="1" stop-color="#ff6a00"/></linearGradient><path d="m2 32c0-16.564 13.439-30 30-30 16.572 0 30 13.436 30 30 0 16.57-13.428 30-30 30-16.561 0-30-13.43-30-30z" fill="url(#a)"/><path d="m46.389 46.777c.263.777-.114 1.223-.903 1.223h-4.584c-.605 0-1.039-.274-1.223-.903l-1.539-4.834h-12.28l-1.54 4.834c-.183.629-.617.903-1.223.903h-4.583c-.789 0-1.166-.446-.902-1.223l10.172-29.875c.181-.593.65-.902 1.256-.902h5.919c.607 0 1.074.309 1.258.902zm-10.127-10.412-4.262-13.371-4.26 13.371z" fill="#fff"/></svg>