<svg enable-background="new 0 0 64 64" height="64" viewBox="0 0 64 64" width="64" xmlns="http://www.w3.org/2000/svg" xmlns:xlink="http://www.w3.org/1999/xlink"><linearGradient id="a" gradientUnits="userSpaceOnUse" x1="32" x2="32" y1="62" y2="2"><stop offset="0" stop-color="#1a1a1a"/><stop offset=".102" stop-color="#393939" stop-opacity=".949"/><stop offset=".3475" stop-color="#7f7f7f" stop-opacity=".8262"/><stop offset=".5688" stop-color="#b6b6b6" stop-opacity=".7156"/><stop offset=".7582" stop-color="#dedede" stop-opacity=".6209"/><stop offset=".9081" stop-color="#f6f6f6" stop-opacity=".5459"/><stop offset="1" stop-color="#fff" stop-opacity=".5"/></linearGradient><path d="m10.78 10.79c-8.7 8.7-10.93 21.4-6.71 32.17l38.89-38.89c-10.77-4.21-23.48-1.98-32.18 6.72z" fill="#0fb4d4"/><path d="m53.22 53.21c8.7-8.7 10.93-21.4 6.71-32.17l-38.88 38.89c10.76 4.21 23.47 1.98 32.17-6.72z" fill="#0fb4d4"/><path d="m53.22 10.79c-1.96-1.96-4.13-3.59-6.43-4.89l-40.89 40.89c1.3 2.3 2.93 4.47 4.89 6.43s4.13 3.59 6.43 4.89l40.88-40.9c-1.3-2.3-2.92-4.47-4.88-6.42z" fill="#e81c27"/><g fill="#ffe12c"><path d="m17.21 58.1c.61.35 1.23.67 1.86.97.65.31 1.31.59 1.98.85l38.88-38.88c-.26-.67-.54-1.33-.85-1.98-.3-.63-.63-1.25-.97-1.86z"/><path d="m44.93 4.92c-.65-.31-1.31-.59-1.98-.85l-38.88 38.89c.26.67.54 1.33.85 1.98.3.63.63 1.24.97 1.85l40.9-40.89c-.61-.35-1.23-.68-1.86-.98z"/><path d="m18 19.19 3.71 2.81-1.4-4.58 3.69-2.92h-4.57l-1.43-4.5-1.38 4.5h-4.62l3.69 2.92-1.4 4.58z"/></g><circle cx="32" cy="32" fill="url(#a)" opacity=".1" r="30"/></svg>