<svg enable-background="new 0 0 64 64" height="64" viewBox="0 0 64 64" width="64" xmlns="http://www.w3.org/2000/svg" xmlns:xlink="http://www.w3.org/1999/xlink"><linearGradient id="a" gradientUnits="userSpaceOnUse" x1="32" x2="32" y1="62" y2="2"><stop offset="0" stop-color="#1a1a1a"/><stop offset=".102" stop-color="#393939" stop-opacity=".949"/><stop offset=".3475" stop-color="#7f7f7f" stop-opacity=".8262"/><stop offset=".5688" stop-color="#b6b6b6" stop-opacity=".7156"/><stop offset=".7582" stop-color="#dedede" stop-opacity=".6209"/><stop offset=".9081" stop-color="#f6f6f6" stop-opacity=".5459"/><stop offset="1" stop-color="#fff" stop-opacity=".5"/></linearGradient><path d="m32 2c-13.06 0-24.17 8.35-28.29 20h56.57c-4.11-11.65-15.22-20-28.28-20z" fill="#0fb4d4"/><path d="m32 62c13.06 0 24.17-8.35 28.29-20h-56.58c4.12 11.65 15.23 20 28.29 20z" fill="#529320"/><path d="m3.71 22c-1.1 3.13-1.71 6.49-1.71 10s.61 6.87 1.71 10h56.57c1.11-3.13 1.72-6.49 1.72-10s-.61-6.87-1.71-10z" fill="#e81c27"/><path d="m31.61 40.19c-4.51 0-8.17-3.67-8.17-8.19s3.66-8.19 8.17-8.19c1.08 0 2.1.21 3.04.59-1.6-1.22-3.59-1.96-5.76-1.96-5.26 0-9.53 4.28-9.53 9.56s4.27 9.56 9.53 9.56c2.17 0 4.16-.73 5.76-1.96-.94.38-1.97.59-3.04.59z" fill="#f5f5f5"/><path d="m40.42 33.43-2.22 1.42 1.38-2.25-2.58-.56 2.57-.62-1.42-2.22 2.25 1.38.56-2.58.62 2.57 2.22-1.42-1.38 2.25 2.58.56-2.57.62 1.42 2.22-2.25-1.38-.56 2.58z" fill="#f5f5f5"/><circle cx="32" cy="32" fill="url(#a)" opacity=".1" r="30"/></svg>