<svg enable-background="new 0 0 64 64" height="64" viewBox="0 0 64 64" width="64" xmlns="http://www.w3.org/2000/svg" xmlns:xlink="http://www.w3.org/1999/xlink"><linearGradient id="a" gradientUnits="userSpaceOnUse" x1="32" x2="32" y1="61.9999" y2="1.9999"><stop offset="0" stop-color="#1a1a1a"/><stop offset=".102" stop-color="#393939" stop-opacity=".949"/><stop offset=".3475" stop-color="#7f7f7f" stop-opacity=".8262"/><stop offset=".5688" stop-color="#b6b6b6" stop-opacity=".7156"/><stop offset=".7582" stop-color="#dedede" stop-opacity=".6209"/><stop offset=".9081" stop-color="#f6f6f6" stop-opacity=".5459"/><stop offset="1" stop-color="#fff" stop-opacity=".5"/></linearGradient><path d="m17 6.02c-14.34 8.29-19.26 26.63-10.98 40.98l51.96-30c-8.29-14.34-26.63-19.26-40.98-10.98z" fill="#ffe12c"/><path d="m47 57.98c14.34-8.29 19.26-26.63 10.98-40.98l-51.96 30c8.29 14.34 26.63 19.26 40.98 10.98z" fill="#e84d17"/><path d="m57.65 18.39s-1.54-.14-2.32-.13c-.8.01-1.54.5-2.36.57.55-.25.87-.83 1.43-1.06.52-.21 1.28-.26 1.39-.96-.52.4-1.19.26-1.79.23-.6-.02-.95.51-1.39.82.18-.88.69-1.5.76-2.42.06-.82 1.38-1.42 1.04-2.26-.09.76-1.13.93-1.36 1.65-.31.94-1.08 1.62-1.19 2.6-.13 1.18-.97.64-1.77.89-.23.07-1.13-1.05-2.42-1-2.05.08-2.8.07-5.36-2.47-.59-.58-2.74-.82-3.51-.3.75-.04 1.5.2 2.13.62-.44.33-.98-.38-1.47-.09.85.04 1.08.35.99 1.08-.74-.54-1.85-1.23-2.79-.76-.56.28-1.7-.13-1.97.65.78-.38 1.63-.06 2.37.24-.43.14-1.38.08-1.7.48.38-.12.76-.12 1.15 0-.13.29-.17.58-.13.89-1.07-.43-2.61-.99-3.64-.17-1.08.87.61 1.93.85 1.31-.72.3-1.05-.86-.03-.94 1.36-.1 2.71.48 3.89 1.07-.63.17-2.52.03-2.78-.76-.1.31-.08.68.22.88-.92.03-1.68.86-2.47.83-.74-.02-2.06-.04-2.24.92 1.1-.99 2.63-.2 3.91-.41-.34.64-.5 1.33-.68 1.95-.27.92-1.25 1.29-1.71 2.24.41-.41.94-.71 1.52-.82-.35.66-1.09 1.79-.71 2.53.19-1.11.93-.85 1.67-1.25-.23.55.25 1.38.9 1.2-.33.48-.01 1.24.56 1.36-.43.54-1.38.17-1.65.74.71-.31 1.33.75 2.18.45-.1.36-.03.67.21.96-.53-.13-1.42.28-1.7-.41-.31.75 1.09.6.89 1.23-.27-.03-.69-.78-.89-.21-.15-.05-.26-.62-.59-.74-.36-.13-.89.17-1.08.1.41-.55-.73-1.02-1.1-.64.14-.89-1.55-1.49-1.59-2.16-.25.48.28.9.2 1.39-.17-.19-.38-.27-.64-.24-.61.11-.18-.11-.79-.19-.57-.08-.27.3-.76-.01-.26-.16-.66-.13-.84.13-.3-1.02-1.61-.46-1.93-1.28-.13.46.6 1.01.68 1.5-.59-.5-1.66.1-1.36.88-.24.14-1.62-.44-1.28.7-.43-.35-2.66-.1-2.69.63.36-.28 1.16-.13 1.52.08-.33.23-.44.93-.19 1.24-1.13-.14-.56 1.44-1.08 1.7-.75.39-1.35 1.39-2.32 1.12.48.76 1.48.03 2.13.1-.73.5-.13 1.34-.56 1.81-.42.46-.9 1.71-1.82 1.42.15.36.62.45.95.51-.29.18-.56.56-.96.43.03.27.16.48.38.63-.48-.04-.94.24-1.41.06 0 .25.07.47.21.68-.58-.2-1.84-.55-2.21.19.29-.02.75.02.87.36-.43-.27-.94-.11-1.4-.05-.7.08-1.14-.32-1.77-.52-.48-.15-2.84-.64-2.88.18.52-.42 1.58.38 2.2.33.88-.06 1.56.61 2.39.77-1.2-.12-1.9.47-2.99.6-.47.05-1.63-.09-1.71.61.54-.29 1.13.07 1.69-.08.48-.13.98-.55 1.5-.3-.33.39-.79.62-1.29.72-.76.14-1.12.43-1.78.77-.54.28-1.21.17-1.7.58-.41.35-.8.78-1.37.85.7.45 1.37-.27 1.98-.53.78-.34 1.59-.18 2.33-.68-.43 1.01-1.78.84-2.56 1.38-.97.67-1.67 1.81-2.92 1.99.51.58 1.56-.16 2.05-.42.88-.46 2.02-.3 2.78-.95.76-.66 1.66-.83 2.39-1.5.21-.2 2.03-1.41 2.17-1.36-.74.33-.82 1.41-1.67 1.57.71.28 2.23-.93 3-1.17-.45.63-1.67.86-1.84 1.63.69-.56 1.69-.36 2.33-.92.6-.52 1.76-1.3 2.18-1.95.41-.63.77-.94 1.4-1.35.32-.21.62-.51 1.01-.56.41-.06.85.18 1.24-.03.13 1.75-.64.33-1.24 1.13-.09.13.65.34.68.51.01.03-1.13.99-1.22 1 .33.4 1.02.08 1.27-.24-.06.33.33.55.18.89.21.02.7-1.15.89-.89-.55.24.36.52.38.55-.3.18 0 .47.23.41-.33.11-.04.56-.15.81-.22.51-.62.36-1.08.78-.4.37-.46.91-.38 1.42.07.38.42 1.71.6.85-.38 1.86 2.05 3.13 3.36 1.76.68-.71 1.53-3.64.34-4.18.24.07.45.03.65-.13.09.17.23.29.41.34.72.22.93 1.12.84 1.75.49-.64.45-2.07-.06-2.71-.17-.21-.92-.53-1.19-.57s-.48.04-.63.27c-.21-.2-.47-.27-.76-.23.08-.4-.44-1.4-.81-1.62-.81-.48-.26-1.8-.12-2.48.34.23 1.16.53 1.56.7.36.16 2.6.72 1.65.28 1.96.78 3.22-2.35 1.28-3.15.82.12.13-.73-.33-.88-.63-.2-1.8.13-2.32.47.1-.08.33-.78.45-.92.27-.32.65-.57 1.13-.45-1.88-2.46-2.55 2.07-3.37 1.71-.57-.25-.68-2.05-.35-2.45.19-.23-.03-.55.13-.76.23-.3.63-.56.82-.87.71-1.16 3.55-.6 4.92 0 1.7.74 3.98 1.04 5.84 1.15-.19.38.06.62-.03.9-.16-.1-1.78-.15-1.86-.02.45.02.81.48 1.31.53-.77.05-.88 1.22-1.54 1.17.37.35 2.68-1.14 1.67.62.45-.01.64-.51.73-.86.37.22 2.79 2.24 3.29 1.42-.02.45.7.51 1 .51.51-.01 1.44.4 1.84.28-1.54 1.05 2.6 4.64 2.61 3.25.01-.92 1.35.8 2.55-.43 1.32-1.35.23-3.77-1.65-3.69.52-.15 1.6-.16 1.76.69.91-1.47-1.46-2.29-2.5-1.9.6-.34.16-.62.72-.86.39-.17.66-.65 1.15-.51-.58-.68-3.04-.45-2.79.74-.29-.1-.53-.03-.72.22.01.39-.18.54-.58.45-.18.42-.39.46-.62.11-.39-.21-.63-.13-1.02-.37-.28-.18-.98-.24-1.31-.18-.52.09-.67-.65-1.26-.44-.09-.96.65-1.64 1.1-2.41.52-.9 1.03-1.82 1.17-2.87.12-.92-.24-1.7.96-1.85.95-.12 1.06 1.04.21 1.3.43.27.92-.11 1.13-.46-.29.63-.33 1.72.52 1.93-.24-.49.42-.89.17-1.37.41.17.79.63.77 1.1.52-.57-.24-1.23-.25-1.83.91.07 1.5-.24 2.22-.75.75-.53.87-.46 1.51.01 1.11.81 3.5.62 4.19-.71.34-.66.99-.69.4-1.53-.4-.57-.93-1.12-1.18-1.71-.8-1.9-3.34.23-3.65.78-.44.63-.14.68-.88.62-1.05-.09-1.92.6-3.03.41-.97-.16-1.66-.73-2.51-1.15-1.12-.56-1.74-.63-2.47-1.71.64.13 1.31.24 1.83.67.44.36.85.97 1.51.79-.71-.2-1.38-1.26-2.07-1.66.71-.91 2.24-.64 3.26-.62.89.01 1.32 1.02 1.99 1.44-.39.18-.47.79-.96.81.44.24.94.08 1.28-.25-.13.39.01.84.42.98-.28-.38.19-.67.37-.94.13.27.54.48.38.85.95-.22.33-2.61-.43-2.81 1.27-1.13 1.58.95 1.23 1.78.5-.36.5-1.03.5-1.58.98.33 5.78-1.1 5.64.8.68-.81-.63-1.37-1.23-1.48-.47-.08-.75-1.52-1.55-.91.83-.11.42.98-.05 1.17.18-.66-.55-1.22-1.16-.96 1.67.48-.94 1.84-.71.86.13-.58.58-.99.47-1.64-.05-.3-.29-.66-.26-.87.39.13.4-.24.11-.37.28.11.58-.2.89-.25.72-.11 1.31-.42 1.96-.73.87-.37 3.32-.74 3.32-.74zm-11.23 3.31c.33-.69 1.95-1.43 1.41-.18.22-.13.51-.76.85-.63.39.16.55.57.12.82.39 0 .77-.27 1.16-.15-.24.25-.24.62-.54.81-.58.36-2.08-.56-3-.67zm1.77 1.56c-.44-.19-1.15-.64-1.48-1 .64.17 1.28.34 1.9.55-.04.04-.31.29-.42.45z" fill="#f5f5f5"/><circle cx="32" cy="32" fill="url(#a)" opacity=".1" r="30"/></svg>