<svg enable-background="new 0 0 64 64" height="64" viewBox="0 0 64 64" width="64" xmlns="http://www.w3.org/2000/svg" xmlns:xlink="http://www.w3.org/1999/xlink"><linearGradient id="a" gradientUnits="userSpaceOnUse" x1="32" x2="32" y1="62" y2="2"><stop offset="0" stop-color="#1a1a1a"/><stop offset=".102" stop-color="#393939" stop-opacity=".949"/><stop offset=".3475" stop-color="#7f7f7f" stop-opacity=".8262"/><stop offset=".5688" stop-color="#b6b6b6" stop-opacity=".7156"/><stop offset=".7582" stop-color="#dedede" stop-opacity=".6209"/><stop offset=".9081" stop-color="#f6f6f6" stop-opacity=".5459"/><stop offset="1" stop-color="#fff" stop-opacity=".5"/></linearGradient><path d="m53.22 10.78c-8.7-8.7-21.41-10.93-32.17-6.71l38.89 38.89c4.21-10.77 1.98-23.48-6.72-32.18z" fill="#e81c27"/><path d="m10.78 53.22c8.7 8.7 21.41 10.93 32.17 6.71l-38.88-38.89c-4.22 10.77-1.99 23.48 6.71 32.18z" fill="#e81c27"/><path d="m10.78 10.78c-1.96 1.96-3.58 4.13-4.88 6.44l40.88 40.88c2.3-1.3 4.47-2.92 6.44-4.88 1.96-1.96 3.58-4.13 4.88-6.44l-40.88-40.88c-2.3 1.3-4.48 2.92-6.44 4.88z" fill="#302c3b"/><path d="m4.92 19.07c-.31.65-.59 1.31-.85 1.98l38.89 38.89c.67-.26 1.33-.54 1.98-.85.63-.3 1.24-.63 1.85-.98l-40.89-40.89c-.34.61-.68 1.22-.98 1.85z" fill="#f5f5f5"/><path d="m21.04 4.07c-.67.26-1.33.54-1.98.85-.63.3-1.24.63-1.85.98l40.89 40.88c.35-.61.68-1.22.98-1.85.31-.65.59-1.31.85-1.98z" fill="#f5f5f5"/><circle cx="32" cy="32" fill="url(#a)" opacity=".1" r="30"/></svg>