<svg enable-background="new 0 0 64 64" height="64" viewBox="0 0 64 64" width="64" xmlns="http://www.w3.org/2000/svg" xmlns:xlink="http://www.w3.org/1999/xlink"><linearGradient id="a" gradientUnits="userSpaceOnUse" x1="32.0003" x2="32.0003" y1="62" y2="2"><stop offset="0" stop-color="#1a1a1a"/><stop offset=".102" stop-color="#393939" stop-opacity=".949"/><stop offset=".3475" stop-color="#7f7f7f" stop-opacity=".8262"/><stop offset=".5688" stop-color="#b6b6b6" stop-opacity=".7156"/><stop offset=".7582" stop-color="#dedede" stop-opacity=".6209"/><stop offset=".9081" stop-color="#f6f6f6" stop-opacity=".5459"/><stop offset="1" stop-color="#fff" stop-opacity=".5"/></linearGradient><path d="m62 32c0-16.57-13.43-30-30-30v60c16.57 0 30-13.43 30-30z" fill="#f5f5f5"/><path d="m2 32c0 16.57 13.43 30 30 30v-60c-16.57 0-30 13.43-30 30z" fill="#ffe12c"/><path d="m49 21.33c0 2.94 0 3.81-3 3.81s-3-.86-3-3.81c0-2.94 1.34-5.33 3-5.33s3 2.39 3 5.33z" fill="#f5f5f5"/><path d="m47.5 17.79-1.5-1.21-1.5 1.21-1.5-1.21.54 2.42h4.92l.54-2.42z" fill="#ffe12c"/><path d="m47.5 20.61-1.5-1.39-1.5 1.39-1.5-1.39v2.78h6v-2.78z" fill="#ffe12c"/><path d="m47.5 23.5-1.5-1.5-1.5 1.5-1.5-1.5v3h6v-3z" fill="#ffe12c"/><ellipse cx="46" cy="15.12" fill="#ffe12c" rx=".5" ry="1.46"/><ellipse cx="46" cy="25" fill="#f5f5f5" rx="3" ry=".68"/><path d="m41.92 32.6c-1.4 0-2.46-2.06-2.62-2.77-.21-.96.28-2.01.8-3.12.25-.55.73-1.56.66-1.86-.12-.35-1.22-1.46-2.31-2.32l1.24-1.57c.82.64 2.74 2.26 3.02 3.43.23.97-.27 2.04-.79 3.17-.27.58-.72 1.55-.66 1.85.06.26.42.85.69 1.11.51-.54 1.29-2.92 1.67-5.26l1.97.32c-.4 2.48-1.39 6.68-3.45 7.01-.07 0-.14.01-.22.01z" fill="#e6ebef"/><path d="m50.07 32.6c-.07 0-.15-.01-.22-.02-2.06-.32-3.05-4.53-3.45-7.01l1.97-.32c.38 2.3 1.14 4.64 1.69 5.24.27-.27.62-.85.67-1.1.07-.3-.39-1.27-.66-1.85-.53-1.13-1.02-2.19-.79-3.17.28-1.17 2.2-2.79 3.02-3.43l1.24 1.57c-1.11.87-2.19 1.96-2.31 2.33-.07.29.41 1.3.66 1.85.52 1.11 1.01 2.16.8 3.12-.15.73-1.21 2.79-2.62 2.79z" fill="#e6ebef"/><path d="m41.53 36.57c-1.41-.9-3.24-.71-4.45.61-1.43 1.56-1.43 4.09 0 5.65s3.76 1.56 5.19 0c1.21-1.31 1.38-3.31.56-4.84l9.58-10.16 1.3 1.41 1.3-1.41-2.6-2.83z" fill="#ffe12c"/><path d="m40.26 39.41c.32-.32.32-.85 0-1.17s-.85-.32-1.17 0-.32.85 0 1.17c-.32-.32-.85-.32-1.17 0s-.32.85 0 1.17.85.32 1.17 0c-.32.32-.32.85 0 1.17.33.32.85.32 1.17 0s.32-.85 0-1.17c.32.32.85.32 1.17 0s.32-.85 0-1.17c-.33-.32-.85-.32-1.17 0z" fill="#f5f5f5"/><path d="m50.47 36.57c1.41-.9 3.24-.71 4.45.61 1.43 1.56 1.43 4.09 0 5.65s-3.76 1.56-5.19 0c-1.21-1.31-1.38-3.31-.56-4.84l-9.58-10.16-1.3 1.41-1.29-1.42 2.59-2.82z" fill="#bcbcbc"/><path d="m51.74 39.42c-.32-.32-.32-.85 0-1.17s.85-.32 1.17 0 .32.85 0 1.17c.32-.32.85-.32 1.17 0s.32.85 0 1.17-.85.32-1.17 0c.32.32.32.85 0 1.17-.33.32-.85.32-1.17 0s-.32-.85 0-1.17c-.32.32-.85.32-1.17 0s-.32-.85 0-1.17c.33-.32.85-.32 1.17 0z" fill="#f5f5f5"/><path d="m50.41 39.76c-2.92.43-5.91.43-8.83 0-.59-.09-.84.56-.25.65 3.09.45 6.24.45 9.32 0 .6-.09.35-.74-.24-.65z" fill="#e81c27"/><path d="m50.3 39.23c-1.78-1.33-3.38-2.92-4.7-4.71-.27-.36-.75-.15-.48.21 1.41 1.89 3.08 3.57 4.97 4.97.36.28.57-.2.21-.47z" fill="#e81c27"/><path d="m46.4 34.52c-1.33 1.79-2.92 3.38-4.71 4.71-.36.27-.15.75.21.48 1.89-1.41 3.57-3.08 4.97-4.97.28-.36-.2-.58-.47-.22z" fill="#e81c27"/><path d="m45.5 31h1v13h-1z" fill="#e81c27"/><path d="m44.5 32.57h1v3.36h-1z" fill="#e81c27" transform="matrix(.7071 -.7071 .7071 .7071 -11.0362 41.8504)"/><path d="m45.32 33.75h3.36v1h-3.36z" fill="#e81c27" transform="matrix(.7071 -.7072 .7072 .7071 -10.4498 43.2686)"/><path d="m45.54 42.71c-.55 0-1 .45-1 1v3h2v-3c0-.55-.45-1-1-1z" fill="#e81c27"/><path d="m46.54 41.78c-.55 0-1 .45-1 1v3h2v-3c0-.56-.45-1-1-1z" fill="#e81c27"/><ellipse cx="42.55" cy="37.12" fill="#bcbcbc" rx="1.21" ry="1.21" transform="matrix(.7069 -.7073 .7073 .7069 -13.7799 40.9758)"/><ellipse cx="36.79" cy="42.88" fill="#bcbcbc" rx="1.21" ry="1.21" transform="matrix(.7073 -.7069 .7069 .7073 -19.5484 38.5551)"/><ellipse cx="36.79" cy="37.11" fill="#bcbcbc" rx="1.21" ry="1.21" transform="matrix(.7071 -.7071 .7071 .7071 -15.4694 36.8836)"/><ellipse cx="42.55" cy="42.88" fill="#bcbcbc" rx="1.21" ry="1.21" transform="matrix(.7069 -.7073 .7073 .7069 -17.8595 42.669)"/><g fill="#ffe12c"><ellipse cx="55.21" cy="37.12" rx="1.21" ry="1.21" transform="matrix(.7069 -.7073 .7073 .7069 -10.0732 49.9354)"/><ellipse cx="49.44" cy="42.89" rx="1.21" ry="1.21" transform="matrix(.7073 -.7069 .7069 .7073 -15.8473 47.5056)"/><ellipse cx="49.45" cy="37.12" rx="1.21" ry="1.21" transform="matrix(.7071 -.7071 .7071 .7071 -11.7657 45.8352)"/><ellipse cx="55.21" cy="42.89" rx="1.21" ry="1.21" transform="matrix(.7069 -.7073 .7073 .7069 -14.1535 51.6224)"/><path d="m38.14 20.93h1.97v2.18h-1.97z"/><path d="m51.89 20.93h1.97v2.18h-1.97z"/><path d="m44.15 28.76-.59-.16.6-2.2.6.16z"/><path d="m43.94 26.5h.61v1.58h-.61z" transform="matrix(.2652 -.9642 .9642 .2652 6.1922 62.709)"/><path d="m47.85 28.76.59-.16-.6-2.2-.6.16z"/><path d="m46.97 26.99h1.58v.61h-1.58z" transform="matrix(.9642 -.2652 .2652 .9642 -5.5271 13.6415)"/></g><path d="m52.5 28.1-1.72 1.46-1.13-3.04 1.77-.91z" fill="#f5f5f5"/><path d="m39.5 28.1 1.72 1.46 1.13-3.04-1.77-.91z" fill="#f5f5f5"/><path d="m41.5 26.45-.56-.16-.14.52-.44-.13-.15.58.44.13-.29 1.1.57.16.28-1.1.44.13.15-.58-.43-.13z" fill="#ffe12c"/><path d="m51.79 27.26-.15-.58-.44.13-.14-.52-.56.16.13.52-.43.13.15.58.44-.13.28 1.1.57-.16-.29-1.1z" fill="#ffe12c"/><circle cx="32" cy="32" fill="url(#a)" opacity=".1" r="30"/></svg>