<svg enable-background="new 0 0 64 64" height="64" viewBox="0 0 64 64" width="64" xmlns="http://www.w3.org/2000/svg" xmlns:xlink="http://www.w3.org/1999/xlink"><linearGradient id="a" gradientUnits="userSpaceOnUse" x1="32" x2="32" y1="62" y2="2"><stop offset="0" stop-color="#1a1a1a"/><stop offset=".102" stop-color="#393939" stop-opacity=".949"/><stop offset=".3475" stop-color="#7f7f7f" stop-opacity=".8262"/><stop offset=".5688" stop-color="#b6b6b6" stop-opacity=".7156"/><stop offset=".7582" stop-color="#dedede" stop-opacity=".6209"/><stop offset=".9081" stop-color="#f6f6f6" stop-opacity=".5459"/><stop offset="1" stop-color="#fff" stop-opacity=".5"/></linearGradient><path d="m42 32h10 10c0-16.57-13.43-30-30-30s-30 13.43-30 30 13.43 30 30 30v-30z" fill="#529320"/><path d="m52 54.36c6.14-5.5 10-13.48 10-22.36h-10z" fill="#f59e01"/><path d="m42 32v28.29c3.73-1.32 7.11-3.35 10-5.93v-22.36z" fill="#302c3b"/><path d="m42 32h-10v30c3.51 0 6.87-.61 10-1.71z" fill="#e81c27"/><path d="m57.52 22.27c1.29-.74 1.49-1.39 1.47-1.42.02-.12-.87.51-2.49 1.23 1.98-.96 1.98-1.77 1.89-1.79-.31-.04-1.5.83-3.07 1.51 1.43-.67 2.15-1.51 2.05-1.63-.3.25-3.43 1.48-3.43 1.48l-.03-.01c.37-.23.66-.69.35-.66-.51.35-2.4.73-2.99.83-.37.12-1.54.51-1.76.48-2.04-.14-2.55.14-2.55.14.01 0 .04.05.09.11-.02-.02-.05-.03-.07-.04-.01-.01-.02-.02-.04-.03-.04-.05-.06-.11-.07-.14-.29-.63.1-.84.32-.87.19-.02.24.01.38-.05-.1-.04-.2-.07-.3-.11.24.05.54.05.45.36.23-.08.73-.62-.56-.74-.42-.44-2.15-.7-2.58 1.23.03.03.05.05.16.13-.54-.24-2.01-.43-2.54-.51-1.43-.38-2.92-1.29-3.06-1.18-.19.08.87.98.81 1-.91-.49-1.75-.84-2.53-1.15-.55-.19-1.1-.63-1.16-.54-.2.38.88 1.34 1.08 1.46.2.11 1.78.78 1.76.79-2.38-.99-2.78-1.17-2.9-1.29-.21-.04-.72-.67-.86-.63-.08.07.08 1.07 1.21 1.52.04.02.16.07.32.13-.32-.12-.55-.21-.58-.22-.5-.18-1.1-.8-1.22-.73-.11.06.28.74.78.95.17.07.62.27 1.17.49-.49-.18-1.06-.39-1.43-.53-.37-.19-.54-.42-.6-.37-.08.05.13 1.05 2.74 1.61h.05c-.05.01-.09.01-.1.01-.07-.01-.53.05-.54.07-.03.07.17.43 1.51.35.17-.01 1.11-.31 1.03-.25-.04.03-1.27.4-1.36.41-.08.01-.51.05-.53.09-.02.06.32.31 1.04.35.64.03 1.86-.36 1.83-.33-.02.03-1.17.39-1.2.41-.04.02-.46.04-.48.07-.04.07.61.62 2.5.04-.19.24-1.11.4-1.11.44 0 .03.2.21.52.28.16.03.38.03.58 0 .36-.07.74-.2 1.22-.61.06.13-1.21.71-1.15.77.27.23 1.18-.03 1.24-.06s1.75-.9 1.75-1.01c.03.13-2.18 1.23-2.16 1.28.14.21.9-.01.93-.03.04-.02.96-.48.99-.49s-1.09.6-.99.69c-.04.34 1.28-.11 1.73-.29-.25.12-.71.37-.71.51.3.46 1.26.32 1.41.21.07-.05-.09.34-.04.31.02-.01.21-.21.28-.36-.02.13-.13.33-.19.57-.06.23-.08.5-.16.78-.02.11.43-.15.5-.78-.04.45-.18.97-.13 1.01.04.03.1-.01.16-.07l-.02.05c0 .08-.09.54-.6.54-.63 0-.64.51-.64.51s-.05.04-.02.29c.1-.17.15-.22.15-.22.07.01.36.09.81-.24-.41.4-.17.55-.17.55s-.1.31.22.37c-.1-.13-.04-.24-.04-.24s.44-.04.42-.54c.02.45.28.56.28.56s0 .25.29.27c-.16-.13-.12-.32-.12-.32s.37-.25.06-.67c.06-.03.11-.07.15-.12 0 .05-.01.09 0 .15 0 .26.01.33.2.48-.05-.17-.03-.29-.03-.29s.26.14.51-.25c-.17.38-.05.52-.01.53.04.07-.07.38.28.38-.13-.12-.07-.29-.07-.29s.36-.05.24-.65c.13-.12.19-.01.19-.01s.04.36.36.29c.14.07-.02.27-.02.27s.23.01.3-.17.15-.5-.23-.63c-.05-.13.15-.14.15-.14s.24.07.31.18.05-.29-.25-.33c-.37-.01-.39-.08-.39-.1 0-.01-.01-.13-.02-.29.29.21.61.25.62.23 0-.06-.63-.84-.47-.94.16.03.42.39.64.27-.06-.14-.26-.06-.47-.41-.04-.07-.07-.15-.1-.23.01.01.47.48.91.46.17-.13-.34-.4-.34-.47.18.15.94.75 1.42.53.19-.25-.34-.21-.94-.9.41.25 1.45.81 1.93.59.13-.13-.36-.44-.83-.78.19.1.33.17.39.2.45.19.96-.07.98-.11-.01-.06-.2-.1-.49-.17.57.06 1.02-.04 1.07-.12-.02-.08-.1-.1-.66-.24 1.23.16 2.16-.49 2.16-.49s.29-.09-.21-.09c3.44-.4 4.04-1.88 3.98-1.88-.15-.02-.67.36-1.51.73 1.47-.67 2.23-1.62 2.19-1.68.01-.13-.52.1-1.19.4zm-19.44.77c.26-.05.57-.13.55-.11-.01 0-.3.06-.55.11zm-1.04-1.09c.71.26 1.96.69 1.94.73 0 .01-1.14-.43-1.94-.73zm11.66 2.96c-.13-.14-.22-.25-.21-.31.04.08.13.18.24.29zm6.53-.92c-1 .26-2.24.37-3.67.03 1.43.3 2.66.23 3.67-.03zm.56-.95c-.22.09-.42.15-.58.19.21-.06.4-.13.58-.19zm-9.62 3.39c0-.08.01-.16 0-.25zm1.62 1.45c-.02.02-.42-.04-.66.1-.05-.02-.25-.1-.36-.18-.06-.11 0-.71 0-.72.09.13.2.25.3.29-.02-.26 0-.25-.08-.51.05-.34.06-.82.07-1.36.52.9.72 1.29.58 1.98.06.02.14-.06.21-.18l.03.47c-.01.01-.05.07-.09.11zm.34-2.64c.02.02.04.04.06.05l-.01.01c-.01-.02-.03-.04-.05-.06zm7.38-1.32c.06-.02.12-.04.18-.05-.06.01-.12.03-.18.05z" fill="#f59e01"/><path d="m47.26 29.51-.4-.03c-.25-.02-.37-.18-.4-.32-.05-.03-.11-.09-.17-.19-.09.11-.2.17-.3.2 0 .02.01.04.03.06l.21.26-.33-.06c-.16-.03-.24-.12-.28-.18-.06-.1-.06-.2-.05-.27-.03-.04-.05-.09-.06-.15 0-.03 0-.07 0-.11-.14.05-.3.06-.4.04-.02.03-.06.08-.1.15l-.18.3-.05-.34c-.02-.16-.02-.27.02-.34.02-.22.21-.6.77-.6.27 0 .39-.15.44-.28l-.04-.02c-.07-.05-.08-.13-.05-.31-.09.08-.17.12-.23.12h-.06l-.09-.09.01-.07c.05-.17.07-.32.1-.46.02-.12.04-.23.07-.33 0-.02.01-.03.01-.05h-.05l-.04-.05c-.04-.05-.03-.11 0-.2-.13.03-.29.05-.44.05-.44 0-.76-.13-.92-.38l-.02-.03v-.04c0-.02 0-.05.02-.09-.26.07-.53.13-.71.13-.13 0-.22-.03-.28-.09-.02-.02-.04-.05-.05-.1l-.01-.01v-.08c-.15.04-.35.07-.52.07-.19 0-.32-.05-.38-.14l-.03-.05.01-.04c-.11.02-.22.03-.32.03-.21 0-.36-.04-.46-.13l-.05-.04.01-.07v-.01c-.22.03-.41.02-.56-.01-.26-.05-.64-.25-.62-.42 0-.02 0-.03.01-.04-.1.01-.2.01-.29.01-.69 0-1.01-.22-1.08-.33-.03-.05-.03-.09-.03-.12-.01 0-.02 0-.04 0-.66-.04-1.04-.25-1.13-.38l-.04-.05.01-.09c.02-.05.05-.08.15-.11-.5-.06-.68-.21-.75-.31-.04-.06-.06-.13-.03-.19.01-.03.03-.05.07-.06-2.03-.56-2.22-1.38-2.24-1.48-.02-.13.03-.18.07-.21l.03-.02.05-.01c.03 0 .05.01.08.02-.09-.14-.15-.28-.16-.36-.01-.11.05-.15.08-.17l.03-.02.06-.01c.08 0 .17.05.31.15-.1-.18-.17-.35-.19-.51-.04-.2.01-.27.05-.3l.07-.03h.03c.12 0 .26.12.49.34.12.11.31.29.38.3l.04.01.03.03c.04.04.16.11.46.24-.37-.37-.76-.86-.59-1.17l.04-.07.1-.01c.09 0 .19.06.42.19.22.12.48.28.75.37.6.24 1.22.5 1.89.82-.29-.29-.38-.44-.36-.55.01-.05.04-.09.08-.11.13-.07.34.02.97.31.59.27 1.39.64 2.18.85l.23.03c.53.08 1.44.21 2.02.37.35-1.41 1.34-1.57 1.76-1.57.38 0 .77.13.97.32.59.06.89.22.92.48.03.23-.2.44-.37.5l-.23.08.07-.23c.01-.04.01-.08.01-.1-.1.04-.17.04-.25.05-.04 0-.08 0-.14.01-.09.01-.22.07-.28.17-.07.12-.05.3.05.52.17-.06.59-.16 1.47-.16.32 0 .67.01 1.06.04.22 0 1.06-.27 1.47-.4l.25-.08c.78-.13 2.5-.5 2.95-.82l.06-.02h.04c.11 0 .19.05.22.14.03.1-.02.21-.1.33 1.21-.48 2.7-1.1 2.88-1.26l.09-.08.08.09c.02.02.05.07.04.16-.02.11-.14.28-.34.48.02-.01.04-.03.06-.04.63-.35.95-.52 1.14-.52h.04c.04.01.12.04.14.16.02.17-.07.45-.41.8.12-.06.22-.12.31-.17.36-.2.45-.25.53-.25h.06l.09.09v.04.06c-.03.15-.21.46-.61.83.16-.04.23-.03.29.03l.04.04v.04.07c-.03.1-.27.42-.72.79l.05.01v.12c-.01.23-.73 1.5-3.7 1.94-.01.04-.05.09-.15.13-.1.07-.67.42-1.47.51.02.02.03.05.04.08l.02.05-.03.05c-.07.11-.33.16-.56.19v.02.03l-.01.03c-.04.13-.43.27-.74.27.15.12.22.22.23.32 0 .06-.02.12-.06.16l-.04.03c-.23.1-.6.05-.96-.07.04.04.06.08.07.13.01.07-.01.14-.06.21l-.05.04c-.27.12-.67.01-.98-.16-.01.03-.04.06-.07.08l-.03.02h-.08c-.07 0-.14-.01-.21-.03.01.01.01.02.02.04l.05.11-.1.05c-.16.09-.36-.01-.51-.12.08.14.2.31.26.4.13.19.16.23.15.29l-.02.06-.04.06h-.04c.13.11.19.27.18.37l-.01.12-.13.02c-.04 0-.09-.01-.13-.08 0-.01-.01-.02-.02-.02.01.02.03.04.04.06.07.14.06.31-.02.53-.07.19-.27.25-.41.25h-.27l.17-.2c.01-.02.03-.04.04-.05-.15 0-.25-.07-.31-.16 0 .14-.04.26-.1.35-.06.08-.12.12-.18.15 0 .03.01.07.04.1l.24.21-.32.01c-.38 0-.39-.31-.39-.41 0-.01 0-.01 0-.02-.02-.02-.04-.04-.05-.07-.02-.04-.04-.1-.04-.17-.06.03-.12.04-.17.04 0 .03.01.07.02.11l.11.37-.3-.23c-.03-.02-.05-.04-.08-.06-.04.09-.1.15-.14.19 0 .04.02.11.08.16zm-.83-.99c.02.36.2.45.21.45v-.01l.04-.03s.11-.07.13-.2c.01-.09-.02-.19-.1-.3l-.09-.12.13-.07c.05-.03.09-.07.12-.1l.1-.11c-.09-.04-.2-.09-.27-.14l-.04-.04c-.02-.04-.07-.14-.02-.78l.03-.33.2.27c.02.02.03.04.05.06-.01-.04-.02-.09-.05-.17l-.01-.03v-.03c.04-.31.05-.73.06-1.22l.01-.57.22.39c.43.76.65 1.17.64 1.68l.14-.23.07.92-.02.04s-.05.07-.09.12-.1.05-.17.05h-.08c-.15 0-.33.01-.45.08l-.05.03-.04-.03-.01.15c0 .05-.01.08 0 .12v.04l.11.06s.02.01.06.01c.1 0 .2-.08.29-.22l.22.12c-.1.21-.08.33-.07.37l.03.01.03.05c.01.01.01.02.01.04l.06-.01s.06-.01.1-.08c.06-.09.07-.24.03-.43l-.01-.07.05-.05c.15-.14.34-.07.38.04l.01.04c0 .02.03.22.2.18l.05-.01.04.02c.06.03.1.07.12.13.04-.13.05-.23.02-.3-.03-.06-.09-.11-.18-.14l-.06-.02-.02-.05c-.03-.07-.02-.13.02-.19.01-.02.02-.03.03-.04-.14-.03-.24-.08-.24-.2 0-.01-.01-.13-.02-.28l-.02-.27.22.15c.1.07.19.12.28.15-.26-.38-.38-.6-.35-.74.01-.05.04-.09.08-.12l.04-.03.05.01h.01c-.03-.07-.06-.14-.09-.21l-.21-.55.41.41c.13.13.4.34.65.4-.04-.04-.1-.08-.13-.11-.11-.09-.17-.14-.17-.22v-.26l.21.18c.07.05.66.55 1.1.55.04 0 .09-.01.13-.02-.02-.02-.09-.06-.14-.09-.19-.11-.48-.28-.78-.63l-.53-.61.69.42c.49.3 1.17.62 1.6.62.05 0 .09 0 .13-.01-.1-.12-.4-.33-.61-.47l-.17-.12.13-.21c.18.1.32.17.38.19.19.08.46.06.63.01-.06-.01-.12-.03-.19-.04l-.04-.01.04-.25c.32.03.6.01.76-.02-.11-.03-.25-.06-.39-.1l.05-.25c.12.02.25.02.37.02.73 0 1.31-.27 1.56-.41l-.01-.19c2.45-.29 3.39-1.11 3.72-1.52-.06.03-.12.06-.18.1-.25.14-.59.32-1 .51l-.1-.23c1.07-.49 1.75-1.13 2.01-1.43-.25.09-.67.28-.9.39l-.11-.22c.77-.44 1.13-.84 1.29-1.08-.05.03-.11.06-.17.09-.41.23-1.1.61-2.02 1.02l-.11-.23c1.44-.7 1.8-1.31 1.85-1.54-.18.05-.54.25-.94.48-.54.3-1.21.67-1.98 1.01l-.1-.23c.88-.41 1.47-.88 1.76-1.19-.88.42-2.78 1.17-3.04 1.27l-.04.02-.32-.12.22-.14c.19-.12.33-.28.39-.39-.63.35-2.35.69-2.94.79l-.23.07c-.65.21-1.31.41-1.53.41h-.04c-.37-.03-.72-.04-1.03-.04-.71 0-1.1.07-1.29.12l.41.54-.65-.41c-.03-.02-.04-.03-.05-.04l-.03-.03h-.39l.3-.16c0-.01 0-.01-.01-.02-.13-.28-.15-.54-.04-.73.13-.24.39-.29.47-.3.03 0 .06 0 .08-.01l.04-.15c.03.01.07.01.1.02.14.02.29.05.39.15l.08.03c.01-.03.02-.05.02-.08-.01-.09-.21-.21-.74-.26h-.05l-.03-.03c-.13-.13-.44-.28-.83-.28-.36 0-1.21.14-1.52 1.37.02.02.05.04.09.07l-.12.22c-.46-.21-1.64-.37-2.27-.46l-.24-.04c-.82-.22-1.64-.59-2.24-.87-.23-.11-.46-.21-.61-.27.12.15.34.36.46.48.27.26.3.3.28.38l-.02.07-.12.04-.05-.03c-.91-.49-1.74-.83-2.52-1.14-.28-.1-.57-.27-.79-.39-.08-.05-.17-.1-.23-.13.03.3.81 1.07 1.05 1.2.1.05.57.26.99.44.39.17.6.26.71.32.01.01.03.01.04.02.08.05.08.07.08.12l-.01.18-.17-.07c-2.37-.99-2.76-1.16-2.91-1.29-.12-.04-.26-.16-.46-.35-.06-.06-.15-.13-.21-.19.06.29.35.89 1.14 1.2.04.02.1.05.32.13l-.09.23-.31-.12c-.15-.06-.25-.09-.26-.1-.28-.1-.58-.33-.82-.51-.05-.04-.12-.09-.17-.13.12.2.36.49.65.62.05.02.14.06.26.11.22.1.54.23.9.38l-.11.28c-.49-.18-1.06-.39-1.43-.53-.13-.06-.23-.13-.31-.19.23.31.85.83 2.52 1.19h.01l.04.25c-.06.01-.1.01-.12.01-.07 0-.2.01-.31.03.15.08.51.18 1.28.14.07 0 .35-.08.56-.14.3-.08.42-.12.47-.12h.09l.07.17-.07.06c-.09.08-1.42.43-1.43.44l-.07.01c-.04.01-.11.01-.19.02.15.07.4.15.77.17.46.03 1.29-.2 1.63-.29.15-.04.17-.05.19-.05h.08l.07.15-.06.06c-.03.03-.03.04-.74.27-.21.07-.46.15-.5.17-.03.02-.07.02-.22.04.14.05.36.1.67.1.42 0 .92-.09 1.48-.26l.39-.12-.26.32c-.14.18-.53.29-.94.4h-.01c.08.04.18.09.3.11.13.03.33.03.54 0 .31-.06.68-.17 1.16-.58l.13-.11.07.15c.08.17-.14.3-.76.64-.08.05-.17.1-.25.14.04 0 .08.01.12.01.34 0 .76-.13.81-.14.25-.12 1.58-.83 1.7-.96l.06.06.16-.02c.03.14-.02.2-1.5 1-.17.09-.35.19-.49.27.24 0 .55-.09.59-.11.02-.01.56-.28.83-.41l.21-.09h.48l-.42.23c-.27.15-.78.45-.91.57.02 0 .04.01.07.01.36 0 1.15-.28 1.48-.41l.1.23c-.36.17-.56.31-.62.38.17.18.48.21.67.21.28 0 .48-.06.52-.08l.03-.02.11-.01.04.05c.01-.01.01-.02.02-.03l.41-.83-.17.91c-.01.06-.04.14-.07.22l.22-.02c0 .04.01.09.01.14v.13l-.25-.02c0-.04 0-.08 0-.12 0-.02 0-.04 0-.05-.03.09-.07.19-.1.29s-.04.2-.06.31c-.01.05-.02.1-.03.15.08-.12.15-.28.18-.5l.25.03c-.02.21-.06.43-.09.62-.01.05-.02.11-.03.17l.31-.29-.18.52c-.02.19-.18.63-.73.63-.38 0-.48.21-.51.33h.02c.2.04.45-.02.72-.22l.16.19c-.19.18-.2.28-.2.31 0 .02.01.04.02.04l.08.05-.03.07h.04c.05-.01.31-.05.3-.39zm.45-.8c.06.04.15.08.25.12.16-.07.36-.08.51-.08h.08.01c0-.01.01-.01.01-.02l-.01-.14c-.02.01-.05.02-.08.02l-.07-.01-.1-.04.02-.1c.11-.54.01-.85-.34-1.5-.01.34-.02.64-.05.89.06.18.06.24.07.37 0 .04 0 .08.01.15l.02.21-.19-.08c-.05-.02-.09-.05-.14-.1-.01.14-.01.26 0 .31zm1.8-2.64-.07-.08c-.18-.19-.27-.31-.24-.43l.08-.3.15.27c.02.05.08.13.21.26l.1.1zm4.67-.72c-.6 0-1.21-.07-1.82-.22l.06-.24c1.25.27 2.47.25 3.62-.03l.06.24c-.63.17-1.28.25-1.92.25zm1.89-1.01-.06-.24c.2-.06.39-.12.57-.18l.08.23c-.26.1-.45.16-.59.19zm-17.14-.19-.05-.25.26-.05c.22-.05.28-.06.31-.06h.09l.05.18-.08.05c0 .02-.02.03-.58.13zm.88-.36c-.04 0-.08-.01-1.98-.74l.09-.23c.21.08.48.17.74.27 1.23.44 1.24.45 1.27.53l.02.05-.05.13h-.09c.01-.01 0-.01 0-.01z" fill="#302c3b"/><path d="m46.17 27.52c0-.03 0-.03 0 0z" fill="#f59e01"/><path d="m45.97 28.35.09-.95.17-.03.07.08-.01.11z" fill="#302c3b"/><circle cx="32" cy="32" fill="url(#a)" opacity=".1" r="30"/></svg>