<svg enable-background="new 0 0 64 64" height="64" viewBox="0 0 64 64" width="64" xmlns="http://www.w3.org/2000/svg" xmlns:xlink="http://www.w3.org/1999/xlink"><linearGradient id="a" gradientUnits="userSpaceOnUse" x1="31.9995" x2="31.9995" y1="2" y2="62.0005"><stop offset="0" stop-color="#f90"/><stop offset=".2875" stop-color="#ff9500"/><stop offset=".5853" stop-color="#f80"/><stop offset=".8868" stop-color="#ff7400"/><stop offset="1" stop-color="#ff6a00"/></linearGradient><path d="m2 32c0-16.564 13.439-30 30-30 16.572 0 30 13.436 30 30 0 16.57-13.428 30-30 30-16.561 0-30-13.43-30-30z" fill="url(#a)"/><path d="m45.371 26.628c0 5.875-4.742 10.628-10.8 10.628h-5.657v9.657c0 .697-.389 1.086-1.086 1.086h-4.113c-.697 0-1.086-.389-1.086-1.086v-29.827c0-.697.389-1.086 1.086-1.086h5.199 5.657c6.058 0 10.8 4.743 10.8 10.628zm-6.285 0c0-2.663-1.955-4.732-4.515-4.732h-5.657v9.463h5.657c2.56.001 4.515-2.079 4.515-4.731z" fill="#fff"/></svg>