<svg enable-background="new 0 0 64 64" height="64" viewBox="0 0 64 64" width="64" xmlns="http://www.w3.org/2000/svg" xmlns:xlink="http://www.w3.org/1999/xlink"><linearGradient id="a" gradientUnits="userSpaceOnUse" x1="32.0005" x2="32.0005" y1="62" y2="2"><stop offset="0" stop-color="#1a1a1a"/><stop offset=".102" stop-color="#393939" stop-opacity=".949"/><stop offset=".3475" stop-color="#7f7f7f" stop-opacity=".8262"/><stop offset=".5688" stop-color="#b6b6b6" stop-opacity=".7156"/><stop offset=".7582" stop-color="#dedede" stop-opacity=".6209"/><stop offset=".9081" stop-color="#f6f6f6" stop-opacity=".5459"/><stop offset="1" stop-color="#fff" stop-opacity=".5"/></linearGradient><path d="m32 2c-7.64 0-14.61 2.86-19.91 7.57v44.87c5.3 4.7 12.27 7.56 19.91 7.56 16.57 0 30-13.43 30-30s-13.43-30-30-30z" fill="#e81c27"/><path d="m12.09 9.57c-1.33 1.18-2.55 2.49-3.65 3.88v37.1c1.1 1.4 2.32 2.7 3.65 3.88l29.91-22.43z" fill="#ffe12c"/><path d="m8.44 13.44c-4.03 5.11-6.44 11.55-6.44 18.56s2.41 13.45 6.44 18.56l18.56-18.56z" fill="#302c3b"/><path d="m10.34 33.9 2.38 5.1.95-5.34 5.33-.38-4.75-2.94.92-5.34-3.89 3.51-4.76-2.91 2.34 5.11-3.86 3.55z" fill="#f5f5f5"/><circle cx="32" cy="32" fill="url(#a)" opacity=".1" r="30"/></svg>