<svg enable-background="new 0 0 64 64" height="64" viewBox="0 0 64 64" width="64" xmlns="http://www.w3.org/2000/svg" xmlns:xlink="http://www.w3.org/1999/xlink"><linearGradient id="a" gradientUnits="userSpaceOnUse" x1="32.0005" x2="32.0005" y1="62" y2="2.0005"><stop offset="0" stop-color="#1a1a1a"/><stop offset=".102" stop-color="#393939" stop-opacity=".949"/><stop offset=".3475" stop-color="#7f7f7f" stop-opacity=".8262"/><stop offset=".5688" stop-color="#b6b6b6" stop-opacity=".7156"/><stop offset=".7582" stop-color="#dedede" stop-opacity=".6209"/><stop offset=".9081" stop-color="#f6f6f6" stop-opacity=".5459"/><stop offset="1" stop-color="#fff" stop-opacity=".5"/></linearGradient><path d="m2 32c0 9.814 4.715 18.527 12 24h36.002c7.285-5.473 11.998-14.186 11.998-24s-4.713-18.525-11.998-24h-36.002c-7.285 5.475-12 14.186-12 24z" fill="#529320"/><path d="m14 8h36.002c-5.016-3.766-11.248-6-18.002-6s-12.986 2.234-18 6z" fill="#e81c27"/><path d="m32 62c6.754 0 12.986-2.232 18.002-6h-36.002c5.014 3.768 11.246 6 18 6z" fill="#e81c27"/><circle cx="32" cy="32" fill="url(#a)" opacity=".1" r="30"/><g fill="#ffe12c"><path d="m47.68 28.801c-1.485 7.303-7.94 12.799-15.68 12.799s-14.195-5.496-15.68-12.799c-.209 1.033-.32 2.103-.32 3.199 0 8.838 7.164 16 16 16s16-7.162 16-16c0-1.096-.111-2.166-.32-3.199z"/><path d="m26.561 32 5.439-3.752 5.439 3.752-2.054-6.105 5.416-3.895h-6.709l-2.092-6-2.029 6h-6.772l5.416 3.895z"/></g></svg>