<svg enable-background="new 0 0 64 64" height="64" viewBox="0 0 64 64" width="64" xmlns="http://www.w3.org/2000/svg" xmlns:xlink="http://www.w3.org/1999/xlink"><linearGradient id="a" gradientUnits="userSpaceOnUse" x1="32" x2="32" y1="62" y2="2"><stop offset="0" stop-color="#1a1a1a"/><stop offset=".102" stop-color="#393939" stop-opacity=".949"/><stop offset=".3475" stop-color="#7f7f7f" stop-opacity=".8262"/><stop offset=".5688" stop-color="#b6b6b6" stop-opacity=".7156"/><stop offset=".7582" stop-color="#dedede" stop-opacity=".6209"/><stop offset=".9081" stop-color="#f6f6f6" stop-opacity=".5459"/><stop offset="1" stop-color="#fff" stop-opacity=".5"/></linearGradient><path d="m2 32c0 9.81 4.71 18.53 12 24h36c7.29-5.47 12-14.19 12-24s-4.71-18.53-12-24h-36c-7.29 5.47-12 14.19-12 24z" fill="#529320"/><path d="m14 8h36c-5.02-3.77-11.25-6-18-6s-12.99 2.23-18 6z" fill="#e81c27"/><path d="m32 62c6.75 0 12.99-2.23 18-6h-36c5.01 3.77 11.25 6 18 6z" fill="#e81c27"/><path d="m43 49.64c-8.37-1.67-14.67-8.93-14.67-17.64s6.3-15.97 14.67-17.64c-1.18-.23-2.41-.36-3.67-.36-10.12 0-18.33 8.06-18.33 18s8.21 18 18.33 18c1.26 0 2.49-.12 3.67-.36z" fill="#f5f5f5"/><circle cx="32" cy="32" fill="url(#a)" opacity=".1" r="30"/></svg>