<svg enable-background="new 0 0 64 64" height="64" viewBox="0 0 64 64" width="64" xmlns="http://www.w3.org/2000/svg" xmlns:xlink="http://www.w3.org/1999/xlink"><linearGradient id="a" gradientUnits="userSpaceOnUse" x1="32" x2="32" y1="62" y2="2"><stop offset="0" stop-color="#1a1a1a"/><stop offset=".102" stop-color="#393939" stop-opacity=".949"/><stop offset=".3475" stop-color="#7f7f7f" stop-opacity=".8262"/><stop offset=".5688" stop-color="#b6b6b6" stop-opacity=".7156"/><stop offset=".7582" stop-color="#dedede" stop-opacity=".6209"/><stop offset=".9081" stop-color="#f6f6f6" stop-opacity=".5459"/><stop offset="1" stop-color="#fff" stop-opacity=".5"/></linearGradient><path d="m32 2c-12.68 0-23.5 7.88-27.89 19h55.78c-4.39-11.12-15.21-19-27.89-19z" fill="#0fb4d4"/><path d="m32 62c12.68 0 23.5-7.88 27.89-19h-55.78c4.39 11.12 15.21 19 27.89 19z" fill="#529320"/><path d="m62 32c0-3.14-.49-6.16-1.38-9h-57.24c-.89 2.84-1.38 5.86-1.38 9s.49 6.16 1.38 9h57.23c.9-2.84 1.39-5.86 1.39-9z" fill="#f5f5f5"/><path d="m59.89 21c.13.33.28.66.4 1 .12.33.22.67.33 1" fill="#e81c27"/><path d="m60.29 22c-.12-.34-.27-.67-.4-1h-55.78c-.13.33-.28.66-.4 1-.12.33-.22.67-.33 1h57.23c-.1-.33-.21-.67-.32-1z" fill="#e81c27"/><path d="m3.71 42c.12.34.27.67.4 1h55.78c.13-.33.28-.66.4-1 .12-.33.22-.67.33-1h-57.24c.11.33.22.67.33 1z" fill="#e81c27"/><g fill="#f5f5f5"><path d="m20.41 17.29c-2.36 0-4.28-1.92-4.28-4.29s1.91-4.29 4.28-4.29c.56 0 1.1.11 1.59.31-.84-.64-1.88-1.02-3.02-1.02-2.75 0-4.98 2.24-4.98 5s2.23 5 4.98 5c1.14 0 2.18-.38 3.02-1.02-.49.19-1.03.31-1.59.31z"/><path d="m24.73 15.2.35 1.07h1.13l-.92.66.35 1.07-.91-.66-.91.66.35-1.07-.92-.66h1.13z"/><path d="m28.99 15.2.35 1.07h1.13l-.91.66.35 1.07-.92-.66-.91.66.35-1.07-.91-.66h1.12z"/><path d="m33.25 15.2.35 1.07h1.13l-.91.66.35 1.07-.92-.66-.91.66.35-1.07-.91-.66h1.12z"/><path d="m37.51 15.2.35 1.07h1.13l-.91.66.35 1.07-.92-.66-.91.66.35-1.07-.91-.66h1.13z"/><path d="m41.78 15.2.35 1.07h1.12l-.91.66.35 1.07-.91-.66-.92.66.35-1.07-.91-.66h1.13z"/><path d="m28.99 11.6.35 1.07h1.13l-.91.66.35 1.07-.92-.66-.91.66.35-1.07-.91-.66h1.12z"/><path d="m33.25 11.6.35 1.07h1.13l-.91.66.35 1.07-.92-.66-.91.66.35-1.07-.91-.66h1.12z"/><path d="m37.51 11.6.35 1.07h1.13l-.91.66.35 1.07-.92-.66-.91.66.35-1.07-.91-.66h1.13z"/><path d="m41.78 11.6.35 1.07h1.12l-.91.66.35 1.07-.91-.66-.92.66.35-1.07-.91-.66h1.13z"/><path d="m33.25 8 .35 1.07h1.13l-.91.66.35 1.06-.92-.65-.91.65.35-1.06-.91-.66h1.12z"/><path d="m37.51 8 .35 1.07h1.13l-.91.66.35 1.06-.92-.65-.91.65.35-1.06-.91-.66h1.13z"/><path d="m41.78 8 .35 1.07h1.12l-.91.66.35 1.06-.91-.65-.92.65.35-1.06-.91-.66h1.13z"/></g><circle cx="32" cy="32" fill="url(#a)" opacity=".1" r="30"/></svg>