<svg enable-background="new 0 0 64 64" height="64" viewBox="0 0 64 64" width="64" xmlns="http://www.w3.org/2000/svg" xmlns:xlink="http://www.w3.org/1999/xlink"><linearGradient id="a" gradientUnits="userSpaceOnUse" x1="32" x2="32" y1="62" y2="2"><stop offset="0" stop-color="#1a1a1a"/><stop offset=".102" stop-color="#393939" stop-opacity=".949"/><stop offset=".3475" stop-color="#7f7f7f" stop-opacity=".8262"/><stop offset=".5688" stop-color="#b6b6b6" stop-opacity=".7156"/><stop offset=".7582" stop-color="#dedede" stop-opacity=".6209"/><stop offset=".9081" stop-color="#f6f6f6" stop-opacity=".5459"/><stop offset="1" stop-color="#fff" stop-opacity=".5"/></linearGradient><path d="m32 62c16.57 0 30-13.43 30-30h-60c0 16.57 13.43 30 30 30z" fill="#e81c27"/><path d="m32 2c-16.57 0-30 13.43-30 30h60c0-16.57-13.43-30-30-30z" fill="#014d87"/><path d="m28.69 20.9c0-2.85-.65-5.15-5.19-5.15-1.23 0-1.98.27-2.83.48-.17-.29-3.19-.28-3.36.02-.81-.18-1.55-.42-2.72-.42-5.3 0-5.15 2.29-5.15 5.11 0 .45-.44 1.29-.44 1.29l1.94 6.77h16.12l1.94-6.78s-.31-.86-.31-1.32z" fill="#ffe12c"/><ellipse cx="19" cy="29" fill="#302c3b" rx="8" ry="1"/><path d="m25.66 25h-1.07c0-1.32-.67-2.4-1.5-2.4s-1.51 1.08-1.51 2.4h-1.07c0-1.32-.68-2.4-1.51-2.4s-1.51 1.08-1.51 2.4h-1.07c0-1.32-.68-2.4-1.51-2.4s-1.5 1.08-1.5 2.4h-1.07c0-4-3.34-2.82-3.34-2.82.49-.76 1.14-1.18 1.83-1.18.83 0 1.57.61 2.04 1.56.47-.95 1.21-1.56 2.04-1.56s1.57.62 2.04 1.56c.48-.94 1.22-1.56 2.05-1.56s1.57.62 2.04 1.56c.47-.95 1.22-1.56 2.05-1.56s1.57.61 2.04 1.56c.47-.95 1.21-1.56 2.04-1.56.69 0 1.34.42 1.83 1.18 0 0-3.34-1.18-3.34 2.82z" fill="#302c3b"/><g fill="#ffe12c"><ellipse cx="16.84" cy="15.88" rx=".53" ry=".53"/><ellipse cx="15.64" cy="15.57" rx=".53" ry=".53"/><ellipse cx="14.43" cy="15.37" rx=".53" ry=".53"/><ellipse cx="13.22" cy="15.25" rx=".53" ry=".53"/><ellipse cx="12.04" cy="15.31" rx=".53" ry=".53"/><ellipse cx="10.91" cy="15.71" rx=".53" ry=".53"/><ellipse cx="9.96" cy="16.41" rx=".53" ry=".53"/><ellipse cx="9.29" cy="17.4" rx=".53" ry=".53"/><ellipse cx="8.96" cy="18.56" rx=".53" ry=".53"/><ellipse cx="8.98" cy="19.76" rx=".53" ry=".53"/><ellipse cx="9.2" cy="20.94" rx=".53" ry=".53"/><ellipse cx="21.16" cy="15.88" rx=".53" ry=".53"/><ellipse cx="22.36" cy="15.57" rx=".53" ry=".53"/><ellipse cx="23.57" cy="15.37" rx=".53" ry=".53"/><ellipse cx="24.78" cy="15.25" rx=".53" ry=".53"/><ellipse cx="25.96" cy="15.31" rx=".53" ry=".53"/><ellipse cx="27.09" cy="15.71" rx=".53" ry=".53"/><ellipse cx="28.04" cy="16.41" rx=".53" ry=".53"/><ellipse cx="28.71" cy="17.4" rx=".53" ry=".53"/><ellipse cx="29.04" cy="18.56" rx=".53" ry=".53"/><ellipse cx="29.02" cy="19.76" rx=".53" ry=".53"/><ellipse cx="28.8" cy="20.94" rx=".53" ry=".53"/><path d="m18.34 11.22c.06.26.27.45.53.5l-.77 1.43.28.53c-.56.2-.98.66-1.14 1.24-.04.15-.06.31-.06.47 0 1 .81 1.82 1.82 1.82 1 0 1.82-.81 1.82-1.82 0-.16-.02-.32-.06-.47-.16-.58-.58-1.04-1.14-1.24l.28-.53-.77-1.43c.26-.05.47-.25.53-.5l1.12.71 1.41-.9-1.41-.9-1.13.72c-.07-.25-.28-.43-.54-.47l.79-1.47-.9-1.67-.9 1.68.79 1.47c-.26.04-.46.23-.54.47l-1.13-.72-1.41.9 1.41.9z"/></g><path d="m15.46 20.72c-.49.49-1.08.8-1.7.94.95.24 1.99-.01 2.73-.75 1.13-1.13 1.13-2.95 0-4.07-.13-.13-.28-.25-.42-.35.74 1.36.54 3.09-.61 4.23z" fill="#302c3b"/><path d="m22.54 20.72c.49.49 1.08.8 1.7.94-.95.24-1.99-.01-2.73-.75-1.13-1.13-1.13-2.95 0-4.07.13-.13.28-.25.42-.35-.74 1.36-.54 3.09.61 4.23z" fill="#302c3b"/><ellipse cx="15.01" cy="25.53" fill="#302c3b" rx=".36" ry="1.65" transform="matrix(.9918 -.1281 .1281 .9918 -3.1458 2.1322)"/><ellipse cx="11.23" cy="25.75" fill="#302c3b" rx=".36" ry="1.65" transform="matrix(.9607 -.2776 .2776 .9607 -6.7056 4.1296)"/><ellipse cx="22.99" cy="25.53" fill="#302c3b" rx="1.65" ry=".36" transform="matrix(.1281 -.9918 .9918 .1281 -5.2706 45.0617)"/><ellipse cx="26.77" cy="25.75" fill="#302c3b" rx="1.65" ry=".36" transform="matrix(.2776 -.9607 .9607 .2776 -5.3969 44.316)"/><ellipse cx="19" cy="25.43" fill="#302c3b" rx=".38" ry="1.72"/><circle cx="19" cy="20.02" fill="#302c3b" r="1.14"/><circle cx="19" cy="18.03" fill="#302c3b" r="1"/><circle cx="19" cy="16.41" fill="#302c3b" r=".75"/><circle cx="32" cy="32" fill="url(#a)" opacity=".1" r="30"/></svg>