<svg enable-background="new 0 0 64 64" height="64" viewBox="0 0 64 64" width="64" xmlns="http://www.w3.org/2000/svg" xmlns:xlink="http://www.w3.org/1999/xlink"><linearGradient id="a" gradientUnits="userSpaceOnUse" x1="32" x2="32" y1="62" y2="2"><stop offset="0" stop-color="#1a1a1a"/><stop offset=".102" stop-color="#393939" stop-opacity=".949"/><stop offset=".3475" stop-color="#7f7f7f" stop-opacity=".8262"/><stop offset=".5688" stop-color="#b6b6b6" stop-opacity=".7156"/><stop offset=".7582" stop-color="#dedede" stop-opacity=".6209"/><stop offset=".9081" stop-color="#f6f6f6" stop-opacity=".5459"/><stop offset="1" stop-color="#fff" stop-opacity=".5"/></linearGradient><path d="m32 2c-16.57 0-30 13.43-30 30h60c0-16.57-13.43-30-30-30z" fill="#0fb4d4"/><path d="m58 47h-52c5.19 8.96 14.89 15 26 15s20.81-6.04 26-15z" fill="#529320"/><g fill="#ffe12c"><path d="m57.98 47c2.55-4.41 4.02-9.53 4.02-15h-60c0 5.47 1.47 10.59 4.02 15z"/><path d="m46.22 19.46 8.67-.5-8.67-.51 8.24-2.73-8.5 1.75 7.25-4.77-7.76 3.9 5.77-6.49-6.48 5.77 3.89-7.76-4.77 7.26 1.75-8.51-2.73 8.24-.5-8.66-.51 8.66-2.73-8.24 1.75 8.51-4.77-7.26 3.89 7.76-6.48-5.77 5.77 6.49-7.76-3.9 7.25 4.77-8.5-1.75 8.24 2.73-8.66.51 8.66.5-8.24 2.74 8.5-1.76-7.25 4.77 7.76-3.89-5.77 6.48 6.48-5.76-3.89 7.75 4.77-7.25-1.75 8.5 2.73-8.24.51 8.67.5-8.67 2.73 8.24-1.75-8.5 4.77 7.25-3.89-7.75 6.48 5.76-5.77-6.48 7.76 3.89-7.25-4.77 8.5 1.76z"/><circle cx="42.38" cy="18.96" r="3.7"/></g><path d="m42.38 23.04c-2.25 0-4.08-1.83-4.08-4.08s1.83-4.08 4.08-4.08 4.08 1.83 4.08 4.08c-.01 2.25-1.83 4.08-4.08 4.08zm0-7.4c-1.83 0-3.31 1.49-3.31 3.31 0 1.83 1.49 3.32 3.31 3.32 1.83 0 3.31-1.49 3.31-3.32 0-1.82-1.49-3.31-3.31-3.31z" fill="#0fb4d4"/><circle cx="32" cy="32" fill="url(#a)" opacity=".1" r="30"/></svg>