<svg enable-background="new 0 0 64 64" height="64" viewBox="0 0 64 64" width="64" xmlns="http://www.w3.org/2000/svg" xmlns:xlink="http://www.w3.org/1999/xlink"><linearGradient id="a" gradientUnits="userSpaceOnUse" x1="32.0005" x2="32.0005" y1="62" y2="2.0005"><stop offset="0" stop-color="#1a1a1a"/><stop offset=".102" stop-color="#393939" stop-opacity=".949"/><stop offset=".3475" stop-color="#7f7f7f" stop-opacity=".8262"/><stop offset=".5688" stop-color="#b6b6b6" stop-opacity=".7156"/><stop offset=".7582" stop-color="#dedede" stop-opacity=".6209"/><stop offset=".9081" stop-color="#f6f6f6" stop-opacity=".5459"/><stop offset="1" stop-color="#fff" stop-opacity=".5"/></linearGradient><path d="m2 32c0 13.061 8.35 24.167 20 28.286v-56.572c-11.65 4.119-20 15.225-20 28.286z" fill="#014d87"/><path d="m62 32c0-13.061-8.35-24.167-20-28.286v56.572c11.65-4.119 20-15.225 20-28.286z" fill="#e81c27"/><path d="m22 60.286c3.129 1.107 6.493 1.714 10 1.714s6.871-.607 10-1.714v-56.572c-3.129-1.107-6.492-1.714-10-1.714s-6.872.607-10 1.714z" fill="#ffe12c"/><circle cx="32" cy="32" fill="url(#a)" opacity=".1" r="30"/></svg>