<svg enable-background="new 0 0 64 64" height="64" viewBox="0 0 64 64" width="64" xmlns="http://www.w3.org/2000/svg" xmlns:xlink="http://www.w3.org/1999/xlink"><linearGradient id="a" gradientUnits="userSpaceOnUse" x1="32" x2="32" y1="62" y2="2"><stop offset="0" stop-color="#1a1a1a"/><stop offset=".102" stop-color="#393939" stop-opacity=".949"/><stop offset=".3475" stop-color="#7f7f7f" stop-opacity=".8262"/><stop offset=".5688" stop-color="#b6b6b6" stop-opacity=".7156"/><stop offset=".7582" stop-color="#dedede" stop-opacity=".6209"/><stop offset=".9081" stop-color="#f6f6f6" stop-opacity=".5459"/><stop offset="1" stop-color="#fff" stop-opacity=".5"/></linearGradient><path d="m32 62c13.06 0 24.17-8.35 28.29-20h-56.58c4.12 11.65 15.23 20 28.29 20z" fill="#e81c27"/><path d="m32 2c-13.06 0-24.17 8.35-28.29 20h56.57c-4.11-11.65-15.22-20-28.28-20z" fill="#f5f5f5"/><path d="m60.29 42c1.1-3.13 1.71-6.49 1.71-10s-.61-6.87-1.71-10h-56.58c-1.1 3.13-1.71 6.49-1.71 10s.61 6.87 1.71 10z" fill="#014d87"/><path d="m30.19 24.25.81-11.16c-6.33-2.79-13.67-2.79-20 0l.81 11.16c.36 5.01 4.02 9.3 9.19 10.75 5.16-1.45 8.82-5.73 9.19-10.75" fill="#014d87"/><path d="m13.5 25.76c.87 3.65 3.71 6.61 7.5 7.82 3.79-1.22 6.63-4.18 7.5-7.82l-3.75-4.66-1.5 1.86-2.25-4.18-2.25 4.19-1.5-1.86z" fill="#f5f5f5"/><path d="m13.83 26.93c.69 1.11 2.22 1.49 3.41.85.77-.42 1.73-.42 2.5 0s1.73.42 2.5 0 1.73-.42 2.5 0c1.2.64 2.72.26 3.42-.85v.67c-.69 1.11-2.22 1.49-3.42.85-.77-.42-1.73-.42-2.5 0s-1.73.42-2.5 0-1.73-.42-2.5 0c-1.2.64-2.72.26-3.41-.85z" fill="#014d87"/><path d="m13.83 28.27c.69 1.11 2.22 1.5 3.41.85.77-.42 1.73-.42 2.5 0 .77.41 1.73.41 2.5 0 .77-.42 1.73-.42 2.5 0 1.2.64 2.72.26 3.42-.85v.67c-.69 1.11-2.22 1.5-3.42.85-.77-.42-1.73-.42-2.5 0-.77.41-1.73.41-2.5 0-.77-.42-1.73-.42-2.5 0-1.2.64-2.72.26-3.41-.85z" fill="#014d87"/><path d="m11.7 12.8.83 11.41c.34 4.66 3.69 8.66 8.47 10.09 4.77-1.43 8.13-5.43 8.47-10.09l.83-11.41c.23.1.47.2.7.29l-.81 11.16c-.37 5.02-4.03 9.3-9.19 10.75-5.16-1.45-8.82-5.73-9.19-10.75l-.81-11.16c.24-.09.47-.19.7-.29" fill="#e81c27"/><g fill="#ffe12c"><path d="m17 11.9.22.74.78-.19-.56.55.56.55-.78-.19-.22.74-.22-.74-.78.19.56-.55-.56-.55.78.19z"/><path d="m25 11.9.22.74.78-.19-.56.55.56.55-.78-.19-.22.74-.22-.74-.78.19.56-.55-.56-.55.78.19z"/><path d="m21 14.8.22.74.78-.19-.56.55.56.55-.78-.19-.22.74-.22-.74-.78.19.56-.55-.56-.55.78.19z"/></g><circle cx="32" cy="32" fill="url(#a)" opacity=".1" r="30"/></svg>