<svg enable-background="new 0 0 64 64" height="64" viewBox="0 0 64 64" width="64" xmlns="http://www.w3.org/2000/svg" xmlns:xlink="http://www.w3.org/1999/xlink"><linearGradient id="a" gradientUnits="userSpaceOnUse" x1="31.9995" x2="31.9995" y1="2" y2="62.0005"><stop offset="0" stop-color="#f90"/><stop offset=".2875" stop-color="#ff9500"/><stop offset=".5853" stop-color="#f80"/><stop offset=".8868" stop-color="#ff7400"/><stop offset="1" stop-color="#ff6a00"/></linearGradient><path d="m2 32c0-16.564 13.439-30 30-30 16.572 0 30 13.436 30 30 0 16.57-13.428 30-30 30-16.561 0-30-13.43-30-30z" fill="url(#a)"/><path d="m16 32c0-9.001 7.119-16 16-16s16 6.999 16 16c0 9.002-7.119 16-16 16s-16-6.998-16-16zm25.947 0c0-5.921-4.357-10.102-9.947-10.102s-9.948 4.181-9.948 10.102c0 5.92 4.358 10.102 9.948 10.102s9.947-4.182 9.947-10.102z" fill="#fff"/></svg>