<svg enable-background="new 0 0 64 64" height="64" viewBox="0 0 64 64" width="64" xmlns="http://www.w3.org/2000/svg" xmlns:xlink="http://www.w3.org/1999/xlink"><linearGradient id="a" gradientUnits="userSpaceOnUse" x1="32" x2="32" y1="62" y2="2"><stop offset="0" stop-color="#1a1a1a"/><stop offset=".102" stop-color="#393939" stop-opacity=".949"/><stop offset=".3475" stop-color="#7f7f7f" stop-opacity=".8262"/><stop offset=".5688" stop-color="#b6b6b6" stop-opacity=".7156"/><stop offset=".7582" stop-color="#dedede" stop-opacity=".6209"/><stop offset=".9081" stop-color="#f6f6f6" stop-opacity=".5459"/><stop offset="1" stop-color="#fff" stop-opacity=".5"/></linearGradient><path d="m2 32c0 5.88 1.7 11.37 4.63 16h50.74c2.93-4.63 4.63-10.12 4.63-16s-1.7-11.37-4.63-16h-50.74c-2.93 4.63-4.63 10.12-4.63 16z" fill="#f5f5f5"/><path d="m57.37 16c-5.31-8.41-14.69-14-25.37-14s-20.06 5.59-25.37 14z" fill="#e81c27"/><path d="m6.63 48c5.31 8.41 14.69 14 25.37 14s20.06-5.59 25.37-14z" fill="#e81c27"/><path d="m30.5 34.56c-1.05 1.64-3.99 1.16-4.65.02v-9.79l-1.49-.01v10c.72 3.52 4.96 4.42 6.14-.22z" fill="#e81c27"/><path d="m37.76 24.77v9.79c-.66 1.15-3.46 1.63-4.51-.01 1.18 4.64 5.41 3.75 6.13.22v-10z" fill="#e81c27"/><path d="m28.99 19.88-.37-.64c-.97.26-1.9.62-2.77 1.08.75 1.45 2.61 5.04 2.61 5.04s.03-5.2.53-5.48z" fill="#ffe12c"/><path d="m34.99 22.72v2.71c1.02-1.73 2.05-3.46 3.07-5.18-.25-.13-.5-.25-.75-.36-.48-.19-.97-.36-1.46-.51-.26-.09-.53-.16-.79-.23-.03-.01-.06-.01-.08-.02-.36 1.2-1.09 3.6-1.09 3.6h1.1z" fill="#ffe12c"/><path d="m34.54 42.39c-1.14.04-1.91 1.11-2.83 1.03s-1.29-1.06-2.62-1.06c-.04 0-.08 0-.12 0-.87.05-2.2.58-2.67.91 0 0 2.13 1.74 5.51 1.74 3.4 0 5.62-1.74 5.62-1.74s-1.74-.92-2.89-.88z" fill="#014d87"/><path d="m34.77 40.96c-1.33.1-1.66-.77-2.87-.73-1.22.03-1.92.73-2.84.76-.92.04-2.1-.87-2.8-.83-.56.03-2.25.67-2.93.93.21.18.42.43.64.59h16.01c.1-.08.2-.16.3-.24-.5-.42-1.65-1.27-2.94-1.29-1.72-.03-1.24.7-2.57.81z" fill="#014d87"/><path d="m40.07 38.14c-1.03.04-1.77 1.01-2.62 1.04-.85.04-1.81-1.01-2.76-.97-.96.04-1.95.97-2.91.97s-1.66-1.01-2.87-1.01c-1.22 0-1.77 1.11-2.69 1.04s-1.73-1.11-2.62-1.11c-.63 0-1.54.62-2.13.96.16.22.33.5.5.7h20.04c.11-.13.22-.26.33-.4-.28-.49-1.3-1.14-2.27-1.22z" fill="#014d87"/><path d="m31.82 36.36c-1.44.04-2.42 1.43-2.34 1.43h4.69c.03-.04-1.06-1.54-2.35-1.43z" fill="#014d87"/><path d="m40.2 37.25c-.83-.04-.72-.25-1.13-.46-.23.43-1.06 1-1.06 1h5.46c.12-.21.22-.53.33-.74-.35-.31-.79-.63-1.18-.65-.8-.04-1.59.89-2.42.85z" fill="#014d87"/><path d="m24.5 36.79c-.41.21-.3.43-1.13.46-.83.04-1.62-.89-2.42-.86-.27.01-.56.17-.84.37.14.31.29.72.46 1.02h4.98c.01 0-.82-.57-1.05-.99z" fill="#014d87"/><path d="m23.86 34.49c-1.18-.38-2.14.83-2.99.87-.57.02-1.16-.38-1.48-.64.09.36.2.75.32 1.1h4.47c.01-.01-.28-.6-.32-1.33z" fill="#014d87"/><path d="m42.77 35.36c-.85-.04-1.81-1.25-2.99-.87-.04.73-.33 1.32-.33 1.32h4.57l.48-1.32s-.89.9-1.73.87z" fill="#014d87"/><path d="m30.64 35.81h2.32s.04-.73-1.18-.73c-1.21 0-1.1.76-1.14.73z" fill="#014d87"/><path d="m29.42 28.68 4.83 1.22v-6.5c-2.21.11-4.05-3.96-.15-4.24-3.83-.52-4.27.42-4.72 1.42z" fill="#e81c27"/><g fill="#ffe12c"><path d="m26.53 29.3v.77l2.05.06z"/><path d="m28.57 29.89.02-1.11c-.57-.37-1.53-1.28-2.06-1.6v1.72z"/><path d="m19.04 30.59c-.03.32-.04.65-.04.98 0 .66.05 1.31.15 1.94l4.36.03v-2.75z"/><path d="m19.94 26.81c-.38.93-.65 1.91-.8 2.94l4.38.4v-2z"/><path d="m21.96 23.46c-.66.79-1.23 1.65-1.68 2.58l3.23 1.48v-2.79z"/><path d="m26.53 26.4 2.04 1.87.01-2.04-3.63-5.38c-.84.53-1.61 1.16-2.3 1.86.45.47 1.05 1.11 1.4 1.47h2.48z"/><path d="m45 30.5-5.05.36v2.69h4.76c.01 0 .29-1.27.29-3.05z"/><path d="m44.84 29.68c-.21-1.78-.81-3.05-.83-3.09l-4.05 1.62v2.03z"/><path d="m43.63 25.78c-.47-.9-1.04-1.74-1.71-2.5-.66.47-1.31.95-1.97 1.42v2.91c1.23-.61 2.46-1.22 3.68-1.83z"/><path d="m34.99 30.19 2.04-.08v-.77z"/><path d="m34.98 28.85.01.9 2.04-.91v-1.71c-.72.58-2.05 1.72-2.05 1.72z"/><path d="m39.66 24.19s1.19-1.16 1.63-1.59c-.75-.74-1.59-1.4-2.5-1.94-1.27 1.86-2.53 3.71-3.79 5.57v2.16c.68-.62 1.36-1.23 2.04-1.85v-2.34h2.62z"/></g><path d="m26.81 35.07h2.19c.88 0 1.28-1.25 1.28-1.25h-2.04c-1.03 0-1.43 1.25-1.43 1.25z" fill="#e81c27"/><path d="m35.35 33.82h-2.04s.4 1.25 1.28 1.25h2.19s-.4-1.25-1.43-1.25z" fill="#e81c27"/><path d="m26.29 33.21h11v.37h-11z" fill="#e81c27"/><path d="m31.1 32.75.69-.66.7.66.21-.2-.7-.66.7-.66-.21-.2-.55.51v-.82h-.3v.82l-.54-.51-.21.2.69.66-.69.66z" fill="#e81c27"/><path d="m37.29 31.23-.21-.2-.54.51v-.82h-.3v.82l-.54-.51-.21.2.69.66-.69.66.21.2.69-.66.69.66.21-.2-.69-.66z" fill="#e81c27"/><path d="m33.4 32.75.69-.66.7.66.2-.2-.69-.66.69-.66-.2-.2-.55.51v-.82h-.3v.82l-.54-.51-.21.2.69.66-.69.66z" fill="#e81c27"/><path d="m28.8 32.75.7-.66.69.66.21-.2-.69-.66.69-.66-.21-.2-.55.51v-.82h-.29v.82l-.55-.51-.21.2.7.66-.7.66z" fill="#e81c27"/><path d="m26.51 32.75.69-.66.69.66.21-.2-.69-.66.69-.66-.21-.2-.54.51v-.82h-.3v.82l-.54-.51-.22.2.7.66-.7.66z" fill="#e81c27"/><circle cx="32" cy="32" fill="url(#a)" opacity=".1" r="30"/></svg>