<svg enable-background="new 0 0 64 64" height="64" viewBox="0 0 64 64" width="64" xmlns="http://www.w3.org/2000/svg" xmlns:xlink="http://www.w3.org/1999/xlink"><linearGradient id="a" gradientUnits="userSpaceOnUse" x1="32" x2="32" y1="62" y2="2"><stop offset="0" stop-color="#1a1a1a"/><stop offset=".102" stop-color="#393939" stop-opacity=".949"/><stop offset=".3475" stop-color="#7f7f7f" stop-opacity=".8262"/><stop offset=".5688" stop-color="#b6b6b6" stop-opacity=".7156"/><stop offset=".7582" stop-color="#dedede" stop-opacity=".6209"/><stop offset=".9081" stop-color="#f6f6f6" stop-opacity=".5459"/><stop offset="1" stop-color="#fff" stop-opacity=".5"/></linearGradient><circle cx="32" cy="32" fill="#0fb4d4" r="30"/><g fill="#ffe12c"><path d="m56.7 33.14c-.67-.41-1.47.15-1.51.77-.32 4.88-8.85 6.16-13 6.23-4.13.07-12.9-1.44-13.23-6.23-.04-.65-.83-1.14-1.51-.77-2.07 1.13-2.8 3.21-2.31 5.25.92 3.82 5.6 6.5 9.61 7.67-.27.7-.44 1.41-.49 2.08-.06.84 1.1 1.09 1.71.63 2.26-1.69 5.88-2.37 8.87-2.41 1.29-.02 1.29-1.8 0-1.78-2.69.04-5.57.5-8.03 1.61.95-2.06 3-4.15 5.26-4.28h.01.1c4.79.08 12.48-1.59 14.51-6.05.32.76.29 1.67.04 2.47-.99 3.25-4.53 4.52-7.76 5.39-1.23.33-.71 2.05.53 1.71 4.24-1.15 7.51-2.77 9.16-6.64.86-1.99.02-4.43-1.96-5.65zm-21.12 11.28c-3.25-.9-5.83-2.52-7.78-5.08-.84-1.11-1.1-2.57-.41-3.67 1.46 3.54 6.4 5.25 10.83 5.91-1.06.76-1.97 1.75-2.64 2.84z"/><circle cx="42" cy="27" r="7.69"/><path d="m42 18.27c.46-.01.63-.29.63-.63 0-.46-.63-2.64-.63-2.64s-.63 2.18-.63 2.63c0 .34.17.64.63.64z"/><path d="m50.73 27c.01.46.29.63.63.63.46 0 2.64-.63 2.64-.63s-2.18-.63-2.63-.63c-.35 0-.64.17-.64.63z"/><path d="m42 35.73c-.46.01-.63.29-.63.63 0 .46.63 2.64.63 2.64s.63-2.18.63-2.63c0-.35-.17-.64-.63-.64z"/><path d="m33.27 27c-.01-.46-.29-.63-.63-.63-.46 0-2.64.63-2.64.63s2.18.63 2.63.63c.35 0 .64-.17.64-.63z"/><path d="m45.34 18.93c.42.17.69-.03.82-.35.18-.42.43-2.67.43-2.67s-1.41 1.77-1.59 2.19c-.13.32-.08.66.34.83z"/><path d="m50.07 30.34c-.17.43.03.7.35.82.42.17 2.67.43 2.67.43s-1.77-1.41-2.19-1.59c-.32-.13-.66-.08-.83.34z"/><path d="m38.66 35.07c-.42-.17-.69.03-.82.35-.17.42-.43 2.67-.43 2.67s1.41-1.77 1.59-2.19c.13-.32.08-.66-.34-.83z"/><path d="m33.93 23.66c.17-.43-.03-.69-.34-.82-.42-.17-2.67-.43-2.67-.43s1.77 1.41 2.19 1.59c.31.13.65.08.82-.34z"/><path d="m48.17 20.82c.33.32.65.24.89 0 .32-.32 1.42-2.31 1.42-2.31s-1.98 1.09-2.31 1.42c-.23.24-.32.57 0 .89z"/><path d="m48.17 33.18c-.32.33-.24.65 0 .89.32.32 2.31 1.42 2.31 1.42s-1.09-1.98-1.42-2.31c-.23-.24-.56-.33-.89 0z"/><path d="m35.83 33.18c-.33-.32-.65-.24-.89 0-.32.33-1.42 2.31-1.42 2.31s1.98-1.09 2.31-1.42c.23-.25.32-.57 0-.89z"/><path d="m35.83 20.82c.32-.33.24-.65 0-.89-.32-.32-2.31-1.42-2.31-1.42s1.09 1.98 1.42 2.31c.24.24.56.33.89 0z"/><path d="m50.07 23.66c.18.42.51.47.83.34.42-.17 2.19-1.59 2.19-1.59s-2.25.25-2.67.43c-.32.13-.53.4-.35.82z"/><path d="m45.34 35.07c-.42.18-.47.51-.34.83.17.42 1.59 2.19 1.59 2.19s-.25-2.25-.43-2.67c-.13-.32-.4-.53-.82-.35z"/><path d="m33.93 30.34c-.18-.42-.51-.47-.83-.34-.42.18-2.19 1.59-2.19 1.59s2.25-.25 2.67-.43c.32-.12.53-.4.35-.82z"/><path d="m38.66 18.93c.42-.18.47-.51.34-.83-.17-.42-1.59-2.19-1.59-2.19s.25 2.25.43 2.67c.13.32.4.52.82.35z"/><path d="m43.7 18.43c.45.08.67-.16.74-.5.09-.45-.1-2.71-.1-2.71s-1.04 2.01-1.13 2.46c-.07.34.04.66.49.75z"/><path d="m50.56 28.71c-.08.45.16.67.5.74.45.09 2.71-.1 2.71-.1s-2.01-1.04-2.46-1.13c-.34-.08-.66.04-.75.49z"/><path d="m40.3 35.56c-.45-.08-.67.16-.74.5-.09.45.1 2.71.1 2.71s1.04-2.01 1.13-2.46c.07-.34-.05-.66-.49-.75z"/><path d="m33.44 25.3c.08-.45-.16-.67-.5-.74-.45-.09-2.71.1-2.71.1s2.01 1.04 2.46 1.13c.34.07.66-.05.75-.49z"/><path d="m46.85 19.74c.38.25.68.11.88-.18.25-.38.94-2.54.94-2.54s-1.73 1.46-1.98 1.84c-.2.28-.22.62.16.88z"/><path d="m49.26 31.85c-.25.38-.11.69.18.88.38.26 2.54.94 2.54.94s-1.46-1.73-1.84-1.99c-.29-.19-.62-.21-.88.17z"/><path d="m37.15 34.26c-.38-.25-.69-.11-.88.18-.25.38-.94 2.54-.94 2.54s1.73-1.46 1.98-1.84c.2-.29.22-.62-.16-.88z"/><path d="m34.74 22.15c.25-.38.11-.68-.18-.88-.38-.25-2.54-.94-2.54-.94s1.46 1.73 1.84 1.98c.29.2.62.22.88-.16z"/><path d="m49.26 22.15c.26.38.59.36.88.17.38-.25 1.84-1.98 1.84-1.98s-2.16.69-2.54.94c-.29.18-.43.49-.18.87z"/><path d="m46.85 34.26c-.38.26-.36.59-.17.88.25.38 1.98 1.84 1.98 1.84s-.69-2.16-.94-2.54c-.18-.28-.49-.43-.87-.18z"/><path d="m34.74 31.85c-.26-.38-.59-.36-.88-.17-.38.25-1.84 1.99-1.84 1.99s2.16-.69 2.54-.94c.29-.19.43-.5.18-.88z"/><path d="m37.15 19.74c.38-.26.36-.59.17-.88-.25-.38-1.98-1.84-1.98-1.84s.69 2.16.94 2.54c.18.29.49.43.87.18z"/><path d="m50.56 25.3c.1.45.41.56.75.49.45-.09 2.46-1.13 2.46-1.13s-2.26-.19-2.71-.1c-.33.06-.58.29-.5.74z"/><path d="m43.7 35.56c-.45.1-.56.41-.49.75.09.45 1.13 2.46 1.13 2.46s.19-2.26.1-2.71c-.06-.33-.29-.58-.74-.5z"/><path d="m33.44 28.71c-.1-.45-.41-.56-.75-.5-.45.09-2.46 1.13-2.46 1.13s2.26.19 2.71.1c.33-.06.58-.29.5-.73z"/><path d="m40.3 18.43c.45-.1.56-.41.49-.74-.09-.45-1.13-2.46-1.13-2.46s-.19 2.26-.1 2.71c.06.33.29.58.74.49z"/><path d="m16.5 51.63h-1.11v3.7h-2.24c1.06.86 2.18 1.65 3.36 2.36v-6.06z"/><path d="m15.39 8.67v3.7h1.11v-6.06c-1.17.71-2.29 1.5-3.36 2.36z"/><path d="m12.94 8.83c-.3.24-.59.5-.87.75l3.01 6.48h-2.52v-3.7h-1.11v3.7h-2.53l2.91-6.28c-.82.74-1.59 1.53-2.32 2.36l-2.29 4.96 3.91 8.43h-2.52v-3.7h-1.11v9.81h1.11v-4.05h2.62l-1.51 4.41 1.5 4.41h-2.61v-4.05h-1.11v9.81h1.11v-3.7h2.52l-3.91 8.43 2.29 4.94c.73.83 1.5 1.62 2.32 2.36l-2.91-6.28h2.52v3.7h1.11v-3.7h2.52l-3.01 6.49c.29.25.58.51.87.75l3.84-8.27-3.91-8.43h2.52v3.7h1.11v-9.81h-1.11v4.05h-2.62l1.5-4.41-1.5-4.41h2.62v4.05h1.11v-9.81h-1.11v3.7h-2.52l3.91-8.43zm2.14 37.05h-2.52v-3.7h-1.11v3.7h-2.53l3.08-6.64zm-3.08-10.63-.79-2.33h1.58zm.79-4.17h-1.58l.79-2.32zm-.79-6.32-3.08-6.64h2.52v3.7h1.11v-3.7h2.52z"/></g><circle cx="32" cy="32" fill="url(#a)" opacity=".1" r="30"/></svg>