<svg enable-background="new 0 0 64 64" height="64" viewBox="0 0 64 64" width="64" xmlns="http://www.w3.org/2000/svg" xmlns:xlink="http://www.w3.org/1999/xlink"><linearGradient id="a" gradientUnits="userSpaceOnUse" x1="31.997" x2="31.997" y1="62" y2="2"><stop offset="0" stop-color="#1a1a1a"/><stop offset=".102" stop-color="#393939" stop-opacity=".949"/><stop offset=".3475" stop-color="#7f7f7f" stop-opacity=".8262"/><stop offset=".5688" stop-color="#b6b6b6" stop-opacity=".7156"/><stop offset=".7582" stop-color="#dedede" stop-opacity=".6209"/><stop offset=".9081" stop-color="#f6f6f6" stop-opacity=".5459"/><stop offset="1" stop-color="#fff" stop-opacity=".5"/></linearGradient><path d="m12 12h21v21h-21z" fill="#014d87"/><path d="m32 2v30h-30c0 16.57 13.43 30 30 30s30-13.43 30-30-13.43-30-30-30z" fill="#399cb0"/><path d="m32 2c-4.69 0-9.13 1.09-13.09 3.01v3.13 2.86h-7.91v2.91.09 4.91h-5.99c-1.92 3.96-3.01 8.4-3.01 13.09h12v-15l12 15h6v-7.5l-8.4-10.5h8.4z" fill="#f5f5f5"/><path d="m15.43 14 14.57 18h2v-4.94l-10.57-13.06z" fill="#e81c27"/><path d="m32 5h-13.08c-6.06 2.94-10.98 7.86-13.92 13.91v13.09h6v-21h21z" fill="#e81c27"/><g fill="#ffe12c"><path d="m28.92 50.15-.67-2.05-.66 2.05h-2.15l1.74 1.27-.67 2.04 1.74-1.26 1.75 1.26-.67-2.04 1.74-1.27z"/><path d="m37.77 48.56.67-2.05-1.75 1.27-1.74-1.27.67 2.05-1.74 1.26h2.15l.66 2.05.67-2.05h2.15z"/><path d="m38.44 39.3-1.75 1.26-1.74-1.26.67 2.04-1.74 1.27h2.15l.66 2.05.67-2.05h2.15l-1.74-1.27z"/><path d="m45.22 46.73.67-2.04-1.74 1.26-1.74-1.26.66 2.04-1.74 1.27h2.15l.67 2.05.66-2.05h2.16z"/><path d="m43.48 32.3.67 2.05.66-2.05h2.16l-1.75-1.26.67-2.05-1.74 1.26-1.74-1.26.66 2.05-1.74 1.26z"/><path d="m49.69 41.22-.67-2.04-.66 2.04h-2.15l1.74 1.27-.67 2.04 1.74-1.26 1.74 1.26-.66-2.04 1.74-1.27z"/><path d="m49.75 30.16.66 2.05.67-2.05h2.15l-1.74-1.27.66-2.04-1.74 1.26-1.74-1.26.66 2.04-1.74 1.27z"/><path d="m55.98 37.17-.66-2.05-.67 2.05h-2.15l1.74 1.27-.66 2.04 1.74-1.26 1.74 1.26-.67-2.05 1.74-1.26z"/><path d="m54.24 24.59-.66 2.05 1.74-1.27 1.74 1.27-.67-2.05 1.74-1.27h-2.15l-.66-2.04-.67 2.04h-2.15z"/></g><circle cx="32" cy="32" fill="url(#a)" opacity=".1" r="30"/></svg>