<svg enable-background="new 0 0 64 64" height="64" viewBox="0 0 64 64" width="64" xmlns="http://www.w3.org/2000/svg" xmlns:xlink="http://www.w3.org/1999/xlink"><linearGradient id="a" gradientUnits="userSpaceOnUse" x1="32" x2="32" y1="2" y2="62.0005"><stop offset="0" stop-color="#f90"/><stop offset=".2875" stop-color="#ff9500"/><stop offset=".5853" stop-color="#f80"/><stop offset=".8868" stop-color="#ff7400"/><stop offset="1" stop-color="#ff6a00"/></linearGradient><path d="m2 32c0-16.564 13.44-30 30-30 16.572 0 30 13.436 30 30 0 16.57-13.428 30-30 30-16.56 0-30-13.43-30-30z" fill="url(#a)"/><path d="m21.102 38.998c-.045-.715.363-1.089 1.033-1.089h3.974c.627 0 .968.341 1.078 1.013.374 2.102 2.136 3.18 5.116 3.18 3.093 0 4.546-1.332 4.546-3.114 0-2.19-2.467-3.147-5.392-4.182-4.436-1.563-9.85-3.312-9.85-9.86 0-5.898 4.886-8.946 10.014-8.946 5.083 0 9.849 2.784 10.355 8.836.043.715-.363 1.09-1.035 1.09h-3.973c-.627 0-.967-.341-1.078-1.001-.363-2.036-1.893-3.026-4.269-3.026-2.498 0-3.961 1.277-3.961 3.048 0 2.267 2.123 3.268 4.963 4.314 4.467 1.606 10.277 3.223 10.277 9.726 0 5.909-4.875 9.013-10.597 9.013-5.711 0-10.695-2.839-11.201-9.002z" fill="#fff"/></svg>