<svg enable-background="new 0 0 64 64" height="64" viewBox="0 0 64 64" width="64" xmlns="http://www.w3.org/2000/svg" xmlns:xlink="http://www.w3.org/1999/xlink"><linearGradient id="a" gradientUnits="userSpaceOnUse" x1="32" x2="32" y1="62" y2="2"><stop offset="0" stop-color="#1a1a1a"/><stop offset=".102" stop-color="#393939" stop-opacity=".949"/><stop offset=".3475" stop-color="#7f7f7f" stop-opacity=".8262"/><stop offset=".5688" stop-color="#b6b6b6" stop-opacity=".7156"/><stop offset=".7582" stop-color="#dedede" stop-opacity=".6209"/><stop offset=".9081" stop-color="#f6f6f6" stop-opacity=".5459"/><stop offset="1" stop-color="#fff" stop-opacity=".5"/></linearGradient><circle cx="32" cy="32" fill="#529320" r="30"/><g clip-rule="evenodd" fill="#f5f5f5" fill-rule="evenodd"><path d="m31.67 26.65c-.12-.85.38-1.75 1.34-1.61.69.1 1.49.8 1.08 1.55-.62 1.11-2.21 1.14-3.24 1.66.11.58 3.04-.12 3.5-.11.47.01 1.02.24.69.8-.34.57-1.31.61-1.89.69-.59.08-1.55.1-1.95.64-.56.77.55.91.98 1.15.97.53-.57.97-1.02.89-1.5-.3-1.77-1.14-2.72-2.12-.89 1.15-3.68 3.86-4.33 1.08-1.03.35-2.03.86-3.12 1 .47-.74 1.53-1.03 2.27-1.42.96-.51 1.04-1.39 1.56-2.23.16.35.01.71.09 1.06.83-.41 1.8-1.2 1.38-2.22-.05-.11-1.21-2.47-.21-2.05.89.37.64 1.26.78 1.98.25 1.29-.31 2.02-1.27 2.76-.42.32-1.46 1.47-.17 1.46.9-.01 1.72-.96 2.2-1.63.59-.82.38-1.6.03-2.49-.25-.65-1-2.25-.08-2.71.71 1.12 1.04 2.44 1.25 3.73.18 1.1.43 2.17 1.63 2.54-.15-.81.41-1.36 1.09-1.69-.47-.45-3.32.15-2.24-1.42.38-.53 2.43-.89 2.37-1.29z"/><path d="m16.4 30.4c.45 1.36 2.22.94 3.18.47 1.6-.77 1.58-1.98 1.58-3.56-.57.29-.46 1.43-.74 1.94-.42.77-1.71 1.52-2.59 1.38-1.28-.19-1.93-2.4-.89-3.21.25.75-.29 2.16.89 2.29.87.1 2.67-.96 2.41-2-1.15.35-1.91.02-1.54-1.34.33-1.22 1.54-.34 1.97.3 1.9-1.08-1.52-5.27.46-6.39.41.7.98 1.62.47 2.32-.57.8.03 2.54.09 3.44 1.01-.86.24.7 1.01.79.54.07.71-1.25 1.02-1.21.07.26.12 1.22.59 1.06.56-.19-.1-.99.53-1.2.19.45.15 1.98-.64 1.87-.64-.09-.54-.5-1.19-.1-.55.35-.76-.05-1.22-.25-.14 1.21.27 2.54-.43 3.64-.59.93-1.76 1.36-2.79 1.55-2.62.51-3.35-2.08-2.37-4.17.37.61-.02 1.69.2 2.38.32.96-.23-.72 0 0z"/><path d="m40.75 30.91c.54 1.31 1.54-1.4 1.81-1.8.81-1.22 1.97 1.93 2.5-.09.33-1.26-.08-2.61-.18-3.87-.07-.93-.4-1.66-.96-2.39-.58-.76-1.21-1.47-.85-2.49.97.38.98 1.2 1.5 1.95.14-.6-.33-1.36.05-1.92.45-.67.88 1.19.92 1.39.12.54-.41.7-.09 1.46.25.59.6 1.2 1.02 1.69-.08-.55-1.02-4.66.04-4.75.3-.03.57 1.17.62 1.36.16.63-.18 1.13-.22 1.77-.07 1.2.14 2.55.86 3.53.36.48 1.9 2.29 1.11 2.88-.56-.71-1.01-1.5-1.53-2.24 0 .76.19 1.65-.24 2.34-.39-.17-.17-1.47-.16-1.8.01-1.11-.71-2.05-1.32-2.9-.17 1.46.95 4.31-.36 5.43-.94.81-2.05-.96-2.42-.32-.28.49-.98 2.3-1.75 2.13-.97-.21-1.73-2.99-.61-3.33.04.65 0 1.35.26 1.97.48 1.15-.26-.62 0 0z"/><path d="m19.41 24.13c.7.1-.03-2.27.02-2.66.06-.41.42-.63.63-.18.27.58.31 1.3.37 1.93.05.53.07 1.08-.32 1.51-.6.65-1.39.26-1.67-.47-1.37 1.24.44 3.26-.77 4.52-.19-1.05.05-2.29-.4-3.29-.24-.54-1.15-.32-1.21-1.24-.03-.43.27-1.46-.07-1.8-.18.44-.39 3.47-1.44 2.64-.77-.61-.6-2.59-.3-3.41.62.34-.12 2.48.65 2.59.39.05.47-1.62.64-1.93.25-.46 1.3-1.88 1.1-.51-.09.63-.58 2.46.56 2.43-.07-1.01-.22-1.98-.36-2.98-.08-.53.15-1.52.62-.64.34.64.09.9.04 1.52-.05.69.19 1.35.25 2.03.57-.54-.18-2.39.32-3.2 1.17.5-.19 2.93 1.34 3.14z"/><path d="m32.35 24.3c-.54.68-1.37.06-1.79-.41-.49.64-1.49 1.58-2.29.8-.63-.61.15-1.66-.44-2.24-.26.53-.79 2.88-1.7 1.79-.51-.6-1.16-2.74-.15-3.17-.09.79-.27 1.74.23 2.45.52.74 1.01-1.14 1.18-1.47.34-.68 1.3-1.9 1.11-.38-.08.6-.3 1.97.31 2.39.37.25.92-.2 1.13-.47.43-.55.24-1.28.11-1.9-.11-.5-.26-1.11.04-1.57.42-.64.67.82.69 1.08s.35 3.43 1.13 2.38c.66-.89-1.2-2.86.05-3.4.45-.2 1.42 1.83.43 1.17.2.87.63 2.1-.04 2.95z"/><path d="m36.08 25.46c.1 1.31 1.24 4.91-.31 5.72-.21-.41.04-1.04.1-1.46.12-.85-.11-1.8-.21-2.64-.24-1.9-.38-3.34-1.71-4.81-.35-.39-.81-.73-.87-1.28-.02-.21-.11-1.12.34-.86.25.14 1.96 1.58 1.05 1.63.11.15.48 1 .71.95-.03-.51-.56-1.96.01-2.32.54-.34 1.1 1.64.95 2.02-.2.47-.19.84-.02 1.45.22.79.66 1.5 1.08 2.2.59.98 1.84 2.41 1.46 3.66-.62-.32-.99-1.73-1.26-2.31-.22-.47-.44-.96-.71-1.4-.07-.12-.66-.89-.58-.36-.02 0-.02-.19-.03-.19.08 1.15.02 0 0 0z"/><path d="m49.95 27.4c.06 2.14-.56 4.84-3.21 4.84-.04-.58 1.29-1.17 1.66-1.48.96-.79.89-2.27.82-3.37-.1-1.49-.22-3.01-.47-4.48-.15-.85-.58-2.16.22-2.83.45.38 1.23 1.45.87 1.89-.44.52.1 5.07.11 5.43z"/><path d="m37.16 31.94c2.65-1.49 1.81-4.69 1.57-7.2-.07-.69-.14-1.38-.2-2.07-.04-.52-.35-1.2-.17-1.7.49-1.35.9-.05 1.05.66.11.53-.26.55-.23.98.05.82.08 1.63.16 2.45.13 1.27.34 2.56.22 3.84-.17 1.95-1.19 3.98-3.46 3.59.11-.3.81-.41 1.06-.55.45-.25-.29.16 0 0z"/><path d="m41.38 26.89c.15 1.04.49 2.77-.05 3.72-.36.64-.44-.35-.46-.55-.05-.82-.06-1.63-.12-2.45-.16-2.16-.88-4.35-.87-6.52.01-2.71 2.31 1.54.99 1.31.12 1.5.3 3 .51 4.49.03.25-.21-1.49 0 0z"/><path d="m25.1 21.76c.19.55-2.33 1.75-2.64 1.8-.06-.46 1.14-1.17 1.44-1.41.32-.26.5-.3.36-.66-.17-.43-.08-1.1.43-1.26 1.01-.32.28 1.14.41 1.53z"/><path d="m14.77 30.74c.04.76.26.41.71.22.21.44-.33 1.48-.84 1-.71-.68-.09-2.27.24-2.98.24.44-.14 1.26-.11 1.76.05.89-.04-.61 0 0z"/><path d="m43.01 24.52c.09-.38-.17-.82.09-1.17.37-.48.82.09.62.3-.23.23-.48-.2-.46.4.01.34.19.92-.14 1.18-.23-.12-1.12-1.4-.96-1.63.3-.39.76.78.85.92z"/><path d="m16.89 26.23c-.2.38-2.54 1.72-2.57 1.43-.04-.38 2.9-2.05 2.57-1.43z"/><path d="m33.9 31.33c-.31.87.95.1 1.26.03-.44.69-1.85 1.34-1.64-.04-.14.03-.27.05-.41.08-.07-.18 1.14-1.03.79-.07z"/><path d="m44.82 30.99c.26-.02.83.86.49 1.08-.23.15-1.1.31-.59-.14.58-.52.03-.94.1-.94z"/><path d="m30.73 25.93c.09-.23.14-.46.15-.71.96.79-1.58 2.15-1.12.2.18.2.15.49.39.65.05-.23.1-.46.15-.69.23.12.19.44.43.55z"/><path d="m42.43 27.2c-.27-.41 1.48-1.53 1.78-1.73.21.32-1.26 1.46-1.78 1.73z"/><path d="m47.96 23.15c-.15-.61-.76-1.8-.25-2.27.48.35.69 1.78.25 2.27z"/><path d="m37.08 21.21c-.11-.2-.41-.41-.36-.68.06-.36.35-.33.49-.11.28.44.48 1.47-.03 1.84-.02-.34.08-.71-.1-1.05-.16-.28.18.33 0 0z"/><path d="m24.87 23.86c.05.57-1 1.21-1.12.42-.05-.33.35-1.36.65-1.11-.37.92-.4 1.19.47.69z"/><path d="m37.39 22.84c.44.98.16.14.56-.07.7 1.35-1.51.96-1 .22.08.13.15.26.23.39.07-.18.14-.36.21-.54z"/><path d="m43.79 27.38c-.46-.4.11-.85.42-.41.23.33.24 1.11-.19 1.31 0-.31.04-.67-.23-.9-.19-.17.31.26 0 0z"/><path d="m23.32 29.57c.03-.24-.13-1.7.19-1.52.43.25.28 1.36-.19 1.52z"/><path d="m19.09 20.22c.06.26.2.72.42.2.78.87-1.99.62-1.03-.28.04.11.22.64.61.08z"/><path d="m29.31 22.38c-.04-.44-.56-2.11-.15-2.06.62.07.56 1.54.15 2.06z"/><path d="m15.32 21.46c-.31-.09.19-.63.04-.95-.22.1-.41-.18-.18-.36.73-.62.45 1.4.14 1.31z"/><path d="m41.2 41.83-.44-1.24-.44 1.24h-21.79s.18 1.76 2.38 1.76h19.35v1.44h5.27v-3.21h-4.33zm3.42 2.35h-3.57v-.98h3.57z"/></g><circle cx="32" cy="32" fill="url(#a)" opacity=".1" r="30"/></svg>