<svg enable-background="new 0 0 64 64" height="64" viewBox="0 0 64 64" width="64" xmlns="http://www.w3.org/2000/svg" xmlns:xlink="http://www.w3.org/1999/xlink"><linearGradient id="a" gradientUnits="userSpaceOnUse" x1="32" x2="32" y1="62" y2="2"><stop offset="0" stop-color="#1a1a1a"/><stop offset=".102" stop-color="#393939" stop-opacity=".949"/><stop offset=".3475" stop-color="#7f7f7f" stop-opacity=".8262"/><stop offset=".5688" stop-color="#b6b6b6" stop-opacity=".7156"/><stop offset=".7582" stop-color="#dedede" stop-opacity=".6209"/><stop offset=".9081" stop-color="#f6f6f6" stop-opacity=".5459"/><stop offset="1" stop-color="#fff" stop-opacity=".5"/></linearGradient><path d="m32 2c-9.19 0-17.42 4.14-22.92 10.65v19.35h52.09v-7c-3.15-13.19-15.01-23-29.17-23z" fill="#e81c27"/><path d="m9.08 32v19.35c5.5 6.51 13.73 10.65 22.92 10.65 14.16 0 26.02-9.81 29.17-23v-7z" fill="#529320"/><path d="m9.08 12.65c-.94 1.11-1.8 2.3-2.57 3.54v3.69h-1.95c-1.64 3.71-2.56 7.81-2.56 12.12s.92 8.41 2.56 12.11h1.95v3.69c.77 1.24 1.63 2.43 2.57 3.54l19.35-19.34z" fill="#302c3b"/><path d="m61.93 34v-4c-.12-1.71-.37-3.38-.76-5h-52.09v14h52.09c.39-1.62.64-3.29.76-5z" fill="#302c3b"/><path d="m6.51 16.18c-.73 1.18-1.39 2.42-1.95 3.7l12.11 12.12-12.12 12.11c.57 1.29 1.22 2.52 1.95 3.7l13.83-13.81h41.6c.04-.66.07-1.33.07-2s-.03-1.34-.07-2h-41.6z" fill="#ffe12c"/><path d="m7.32 26.69c-1.13 0-4.6.81-4.6 4.43s3.41 3.96 4.08 3.96 3.19-.61 2.9-3.32c0 .77-.87 2.4-2.7 2.4s-2.97-1.36-2.97-2.7 1.11-3.14 3.04-3.14 3.34 1.71 3.34 3.44-1.36 3.93-3.52 3.93v2.06c1.8 0 5.32-1.38 5.32-5.81s-3.76-5.25-4.89-5.25z" fill="#fdce12"/><path d="m7.4 30.86c-.02-.01-.04-.02-.06-.03.03-.03.05-.06.08-.08.15-.1.38-.11.54-.18.31-.17.52-.43.68-.86l-.04-.08c-.47-.09-.85.08-1.1.37-.11.16-.16.39-.28.54-.04.05-.09.09-.15.13-.05-.04-.11-.08-.15-.13-.1-.15-.15-.37-.26-.54-.25-.29-.63-.46-1.1-.38l-.04.08c.16.43.37.7.68.86.17.07.39.08.54.18.03.02.05.05.08.08-.02.01-.04.02-.05.03-.38.14-.67.4-.91.68-.21.32-.35.68-.33 1.14l.07.05c.44-.13.73-.35.98-.6.21-.26.39-.54.51-.89.12.35.3.63.51.89.25.25.54.46.98.6l.07-.05c.02-.46-.13-.82-.33-1.14-.25-.28-.54-.53-.92-.67z" fill="#fdce12"/><circle cx="32" cy="32" fill="url(#a)" opacity=".1" r="30"/></svg>