<svg enable-background="new 0 0 64 64" height="64" viewBox="0 0 64 64" width="64" xmlns="http://www.w3.org/2000/svg" xmlns:xlink="http://www.w3.org/1999/xlink"><linearGradient id="a" gradientUnits="userSpaceOnUse" x1="32" x2="32" y1="62" y2="2"><stop offset="0" stop-color="#1a1a1a"/><stop offset=".102" stop-color="#393939" stop-opacity=".949"/><stop offset=".3475" stop-color="#7f7f7f" stop-opacity=".8262"/><stop offset=".5688" stop-color="#b6b6b6" stop-opacity=".7156"/><stop offset=".7582" stop-color="#dedede" stop-opacity=".6209"/><stop offset=".9081" stop-color="#f6f6f6" stop-opacity=".5459"/><stop offset="1" stop-color="#fff" stop-opacity=".5"/></linearGradient><path d="m11.01 48v5.4c5.41 5.31 12.81 8.6 20.99 8.6 10.68 0 20.06-5.59 25.37-14z" fill="#014d87"/><path d="m11.01 32v16h46.37c2.92-4.63 4.62-10.12 4.62-16z" fill="#e81c27"/><path d="m11.01 32h50.99c0-5.88-1.7-11.37-4.63-16h-46.36z" fill="#f5f5f5"/><path d="m11.01 16h46.37c-5.32-8.41-14.7-14-25.38-14-8.18 0-15.58 3.29-20.99 8.6z" fill="#ffe12c"/><path d="m11.01 10.58c-5.56 5.44-9.01 13.03-9.01 21.42s3.45 15.98 9.01 21.42l21.42-21.42z" fill="#529320"/><g fill="#f5f5f5"><path d="m18 41.8c-4.56-.93-8-4.96-8-9.8s3.44-8.87 8-9.8c-.65-.13-1.31-.2-2-.2-5.52 0-10 4.48-10 10s4.48 10 10 10c.69 0 1.35-.07 2-.2z"/><path d="m16.76 36 1.24-.94 1.24.94-.47-1.53 1.23-.97h-1.53l-.47-1.5-.46 1.5h-1.54l1.23.97z"/><path d="m16.76 40 1.24-.94 1.24.94-.47-1.53 1.23-.97h-1.53l-.47-1.5-.46 1.5h-1.54l1.23.97z"/><path d="m16.76 28 1.24-.94 1.24.94-.47-1.53 1.23-.97h-1.53l-.47-1.5-.46 1.5h-1.54l1.23.97z"/><path d="m16.76 32 1.24-.94 1.24.94-.47-1.53 1.23-.97h-1.53l-.47-1.5-.46 1.5h-1.54l1.23.97z"/></g><circle cx="32" cy="32" fill="url(#a)" opacity=".1" r="30"/></svg>