<svg enable-background="new 0 0 64 64" height="64" viewBox="0 0 64 64" width="64" xmlns="http://www.w3.org/2000/svg" xmlns:xlink="http://www.w3.org/1999/xlink"><linearGradient id="a" gradientUnits="userSpaceOnUse" x1="32" x2="32" y1="62" y2="2"><stop offset="0" stop-color="#1a1a1a"/><stop offset=".102" stop-color="#393939" stop-opacity=".949"/><stop offset=".3475" stop-color="#7f7f7f" stop-opacity=".8262"/><stop offset=".5688" stop-color="#b6b6b6" stop-opacity=".7156"/><stop offset=".7582" stop-color="#dedede" stop-opacity=".6209"/><stop offset=".9081" stop-color="#f6f6f6" stop-opacity=".5459"/><stop offset="1" stop-color="#fff" stop-opacity=".5"/></linearGradient><path d="m32 2v30h30c0-16.57-13.43-30-30-30z" fill="#e81c27"/><path d="m32 62v-30h-30c0 16.57 13.43 30 30 30z" fill="#014d87"/><path d="m32 62v-30h30c0 16.57-13.43 30-30 30z" fill="#f5f5f5"/><path d="m32 2v30h-30c0-16.57 13.43-30 30-30z" fill="#f5f5f5"/><path d="m17 20.65 3.09 2.35-1.17-3.81 3.08-2.44h-3.81l-1.19-3.75-1.15 3.75h-3.85l3.08 2.44-1.17 3.81z" fill="#014d87"/><path d="m47 46.65 3.09 2.35-1.17-3.81 3.08-2.44h-3.81l-1.19-3.75-1.15 3.75h-3.85l3.08 2.44-1.17 3.81z" fill="#e81c27"/><circle cx="32" cy="32" fill="url(#a)" opacity=".1" r="30"/></svg>