<svg enable-background="new 0 0 64 64" height="64" viewBox="0 0 64 64" width="64" xmlns="http://www.w3.org/2000/svg" xmlns:xlink="http://www.w3.org/1999/xlink"><linearGradient id="a" gradientUnits="userSpaceOnUse" x1="32" x2="32" y1="62" y2="2"><stop offset="0" stop-color="#1a1a1a"/><stop offset=".102" stop-color="#393939" stop-opacity=".949"/><stop offset=".3475" stop-color="#7f7f7f" stop-opacity=".8262"/><stop offset=".5688" stop-color="#b6b6b6" stop-opacity=".7156"/><stop offset=".7582" stop-color="#dedede" stop-opacity=".6209"/><stop offset=".9081" stop-color="#f6f6f6" stop-opacity=".5459"/><stop offset="1" stop-color="#fff" stop-opacity=".5"/></linearGradient><path d="m32 62c13.06 0 24.17-8.35 28.29-20h-56.58c4.12 11.65 15.23 20 28.29 20z" fill="#529320"/><path d="m32 2c-13.06 0-24.17 8.35-28.29 20h56.57c-4.11-11.65-15.22-20-28.28-20z" fill="#014d87"/><path d="m60.29 42c1.1-3.13 1.71-6.49 1.71-10s-.61-6.87-1.71-10h-56.58c-1.1 3.13-1.71 6.49-1.71 10s.61 6.87 1.71 10z" fill="#e81c27"/><circle cx="24" cy="32" fill="#ffe12c" r="17.7"/><path d="m24 14c-9.93 0-18 8.07-18 18s8.07 18 18 18 18-8.07 18-18-8.07-18-18-18zm-17.4 18c0-9.47 7.61-17.2 17.04-17.4v3.86c-1.08.48-1.95.91-2.12 1.87-.02.13-.05 1.45-.08 1.77 0 0 .18.02.63-.33.19-.16.78-.26 1.58-.75v2.01c-1.15.18-2.04 1.17-2.04 2.37s.89 2.2 2.04 2.37v.5c-.91-.05-1.72-.33-2.4-1.73-.38-.78-1.38-1.98-1.38-1.98s.47 1.35.54 2.7c.1 1.99 1.86 2.2 3.24 2.22v.36h-2.65v.72h2.64v.36c-1.15.11-2.04.74-2.04 1.5s.89 1.39 2.04 1.5v.36h-2.64v.72h2.64v.37c-2.04.08-3.02.91-3.14 2.07-.23 2.54-.7 4.52-.7 4.52s.75-.93 1.64-3.12c.41-1 1.3-1.64 2.2-1.78v.26c-.92.25-1.62 1.42-1.62 2.83s.7 2.59 1.62 2.83v.82c-1.19.03-2.35.29-2.96.77-.82.65-2.83 2.64-3.56 3.39-6.18-2.65-10.52-8.81-10.52-15.96zm23.97 16.11c-.71-.76-2.53-2.67-3.57-3.53-.55-.45-1.56-.7-2.64-.76v-.83c.92-.25 1.62-1.42 1.62-2.83s-.7-2.58-1.62-2.83v-.26c.9.13 1.8.77 2.2 1.78.88 2.19 1.64 3.12 1.64 3.12s-.47-1.98-.71-4.52c-.11-1.17-1.1-1.99-3.14-2.07v-.38h2.65v-.72h-2.64v-.36c1.16-.11 2.04-.74 2.04-1.5s-.89-1.39-2.04-1.5v-.36h2.64v-.72h-2.64v-.36c1.39-.02 3.14-.23 3.24-2.22.07-1.35.54-2.7.54-2.7s-1 1.2-1.38 1.98c-.69 1.4-1.49 1.68-2.4 1.73v-.5c1.16-.17 2.04-1.17 2.04-2.37s-.89-2.19-2.04-2.37v-2.53c.7-.58 1.5-1.48 2.29-2.91.44-.79.23-1.13.23-1.13s.02.05-.3.33c-.71.62-1.49 1.02-2.22 1.35v-3.54c9.43.2 17.04 7.93 17.04 17.4 0 7.27-4.48 13.51-10.83 16.11z" fill="#302c3b"/><circle cx="32" cy="32" fill="url(#a)" opacity=".1" r="30"/></svg>