<svg enable-background="new 0 0 64 64" height="64" viewBox="0 0 64 64" width="64" xmlns="http://www.w3.org/2000/svg" xmlns:xlink="http://www.w3.org/1999/xlink"><linearGradient id="a" gradientUnits="userSpaceOnUse" x1="32" x2="32" y1="62" y2="2"><stop offset="0" stop-color="#1a1a1a"/><stop offset=".102" stop-color="#393939" stop-opacity=".949"/><stop offset=".3475" stop-color="#7f7f7f" stop-opacity=".8262"/><stop offset=".5688" stop-color="#b6b6b6" stop-opacity=".7156"/><stop offset=".7582" stop-color="#dedede" stop-opacity=".6209"/><stop offset=".9081" stop-color="#f6f6f6" stop-opacity=".5459"/><stop offset="1" stop-color="#fff" stop-opacity=".5"/></linearGradient><path d="m32 2c-10.68 0-20.06 5.59-25.37 14h50.74c-5.31-8.41-14.69-14-25.37-14z" fill="#e81c27"/><path d="m6.63 16c-2.93 4.63-4.63 10.12-4.63 16h60c0-5.88-1.7-11.37-4.63-16z" fill="#014d87"/><path d="m6.63 48c5.31 8.41 14.69 14 25.37 14s20.06-5.59 25.37-14z" fill="#529320"/><path d="m57.37 48c2.93-4.63 4.63-10.12 4.63-16h-60c0 5.88 1.7 11.37 4.63 16z" fill="#ffe12c"/><circle cx="32" cy="32" fill="url(#a)" opacity=".1" r="30"/></svg>