<svg enable-background="new 0 0 64 64" height="64" viewBox="0 0 64 64" width="64" xmlns="http://www.w3.org/2000/svg" xmlns:xlink="http://www.w3.org/1999/xlink"><linearGradient id="a" gradientUnits="userSpaceOnUse" x1="31.9995" x2="31.9995" y1="2" y2="62.0005"><stop offset="0" stop-color="#f90"/><stop offset=".2875" stop-color="#ff9500"/><stop offset=".5853" stop-color="#f80"/><stop offset=".8868" stop-color="#ff7400"/><stop offset="1" stop-color="#ff6a00"/></linearGradient><path d="m2 32c0-16.564 13.439-30 30-30 16.572 0 30 13.436 30 30 0 16.57-13.428 30-30 30-16.561 0-30-13.43-30-30z" fill="url(#a)"/><path d="m47.657 17.086v29.828c0 .697-.389 1.086-1.086 1.086h-4.114c-.696 0-1.085-.389-1.085-1.086v-20.406l-6.732 15.549c-.229.571-.65.822-1.257.822h-2.766c-.606 0-1.028-.251-1.257-.822l-6.732-15.548v20.406c0 .697-.388 1.086-1.085 1.086h-4.114c-.697 0-1.086-.389-1.086-1.086v-29.829c0-.697.389-1.086 1.086-1.086h4.114 1.074c.605 0 1.028.251 1.257.823l8.126 18.743 8.126-18.744c.228-.571.651-.822 1.257-.822h3.132 2.057c.697 0 1.085.389 1.085 1.086z" fill="#fff"/></svg>