<svg enable-background="new 0 0 64 64" height="64" viewBox="0 0 64 64" width="64" xmlns="http://www.w3.org/2000/svg" xmlns:xlink="http://www.w3.org/1999/xlink"><linearGradient id="a" gradientUnits="userSpaceOnUse" x1="32.0005" x2="32.0005" y1="62" y2="2.0005"><stop offset="0" stop-color="#1a1a1a"/><stop offset=".102" stop-color="#393939" stop-opacity=".949"/><stop offset=".3475" stop-color="#7f7f7f" stop-opacity=".8262"/><stop offset=".5688" stop-color="#b6b6b6" stop-opacity=".7156"/><stop offset=".7582" stop-color="#dedede" stop-opacity=".6209"/><stop offset=".9081" stop-color="#f6f6f6" stop-opacity=".5459"/><stop offset="1" stop-color="#fff" stop-opacity=".5"/></linearGradient><path d="m32 2c-5.266 0-10.213 1.361-14.516 3.746v52.51c4.303 2.383 9.25 3.744 14.516 3.744 16.568 0 30-13.432 30-30s-13.432-30-30-30z" fill="#8e143a"/><path d="m2 32c0 11.303 6.252 21.141 15.484 26.256l10.516-2.256-10-3 10-3-10-3 10-3-10-3 10-3-10-3 10-3-10-3 10-3-10-3 10-3-10-3 10-3-10-3 10-3-10.516-2.254c-9.232 5.115-15.484 14.953-15.484 26.254z" fill="#f5f5f5"/><circle cx="32" cy="32" fill="url(#a)" opacity=".1" r="30"/></svg>