<svg enable-background="new 0 0 64 64" height="64" viewBox="0 0 64 64" width="64" xmlns="http://www.w3.org/2000/svg" xmlns:xlink="http://www.w3.org/1999/xlink"><linearGradient id="a" gradientUnits="userSpaceOnUse" x1="31.9995" x2="31.9995" y1="2" y2="62.0005"><stop offset="0" stop-color="#f90"/><stop offset=".2875" stop-color="#ff9500"/><stop offset=".5853" stop-color="#f80"/><stop offset=".8868" stop-color="#ff7400"/><stop offset="1" stop-color="#ff6a00"/></linearGradient><path d="m2 32c0-16.564 13.439-30 30-30 16.573 0 30 13.436 30 30 0 16.57-13.428 30-30 30-16.561 0-30-13.43-30-30z" fill="url(#a)"/><path d="m38.572 16h4.113c.697 0 1.086.389 1.086 1.086v29.828c0 .697-.389 1.086-1.086 1.086h-2.845c-.57 0-1.039-.217-1.336-.697l-11.99-19.074v18.686c0 .697-.388 1.086-1.085 1.086h-4.115c-.697 0-1.086-.389-1.086-1.086v-29.829c0-.697.389-1.086 1.086-1.086h2.846c.572 0 1.041.217 1.338.697l11.989 19.074v-18.685c-.001-.697.388-1.086 1.085-1.086z" fill="#fff"/></svg>