<svg enable-background="new 0 0 64 64" height="64" viewBox="0 0 64 64" width="64" xmlns="http://www.w3.org/2000/svg" xmlns:xlink="http://www.w3.org/1999/xlink"><linearGradient id="a" gradientUnits="userSpaceOnUse" x1="32.0003" x2="32.0003" y1="62" y2="2"><stop offset="0" stop-color="#1a1a1a"/><stop offset=".102" stop-color="#393939" stop-opacity=".949"/><stop offset=".3475" stop-color="#7f7f7f" stop-opacity=".8262"/><stop offset=".5688" stop-color="#b6b6b6" stop-opacity=".7156"/><stop offset=".7582" stop-color="#dedede" stop-opacity=".6209"/><stop offset=".9081" stop-color="#f6f6f6" stop-opacity=".5459"/><stop offset="1" stop-color="#fff" stop-opacity=".5"/></linearGradient><path d="m32 2c-3.51 0-6.87.62-10 1.73v18.27h38.29c-4.12-11.65-15.23-20-28.29-20z" fill="#f5f5f5"/><path d="m60.29 22h-38.29v-18.29c-11.65 4.12-20 15.23-20 28.29s8.35 24.17 20 28.29v-18.29h38.29c1.1-3.13 1.71-6.49 1.71-10s-.61-6.87-1.71-10z" fill="#e81c27"/><path d="m22 42v18.27c3.13 1.11 6.49 1.73 10 1.73 13.06 0 24.17-8.35 28.29-20z" fill="#529320"/><path d="m19.14 22.38-.25.1-1.58-1.39-1.79-1.95c.05-.25.05-.69.05-1.03l.26-.31h.28c.12.21.35.36.61.36s.49-.15.61-.36h.4v.46h2.74v-1.51h-2.74v.45h-.35c-.09-.22-.28-.39-.52-.44l.06-.06 2.16-4.54-.25-.13-3.1 4.2.18.24-.18.37-.46.02-.14-.19.42.02v-.27l-.28-.12v-.57l.35-.01.11-.35-.81-.23v-1.96l.56-.73-.98-.68-.98.68.56.73v1.96l-.81.23.11.35.35.01v.57l-.28.12v.27l.42-.02-.14.19-.46-.02-.18-.37.18-.24-3.1-4.2-.25.13 2.16 4.54.06.06c-.24.05-.44.22-.52.44h-.35v-.45h-2.74v1.51h2.74v-.46h.4c.12.21.35.36.61.36s.49-.15.61-.36h.28l.29.36v.24h-.36l-.13.31-2.43.22-.11-.16s-1.31.17-1.55.5c-.05.06-.04.25 0 .31.23.34 1.51.65 1.51.65l.04-.15s.93.2 1.86.33l-.61.67-1.58 1.39-.25-.1-1.43 1.43.05.2 1.63-.45 1.15-.77-.2-.05 2.55-2.19c.08 0 .15 0 .21-.01.29-.04.87-.24 1.11-.43l.34.34 2.67 2.3-.2.05 1.15.77 1.65.44.05-.2z" fill="#f5f5f5"/><circle cx="32" cy="32" fill="url(#a)" opacity=".1" r="30"/></svg>