<svg enable-background="new 0 0 64 64" height="64" viewBox="0 0 64 64" width="64" xmlns="http://www.w3.org/2000/svg" xmlns:xlink="http://www.w3.org/1999/xlink"><linearGradient id="a" gradientTransform="matrix(1 0 0 -1 0 64)" gradientUnits="userSpaceOnUse" x1="32" x2="32" y1="2" y2="62"><stop offset="0" stop-color="#1a1a1a"/><stop offset=".102" stop-color="#393939" stop-opacity=".949"/><stop offset=".3475" stop-color="#7f7f7f" stop-opacity=".8262"/><stop offset=".5688" stop-color="#b6b6b6" stop-opacity=".7156"/><stop offset=".7582" stop-color="#dedede" stop-opacity=".6209"/><stop offset=".9081" stop-color="#f6f6f6" stop-opacity=".5459"/><stop offset="1" stop-color="#fff" stop-opacity=".5"/></linearGradient><path d="m47.97 6.61c-4.62-2.92-10.1-4.61-15.97-4.61v4.61z" fill="#e81c27"/><path d="m32 11.22h21.63c-1.69-1.76-3.58-3.31-5.65-4.61h-15.98z" fill="#f5f5f5"/><path d="m32 15.83h25.26c-1.06-1.66-2.28-3.2-3.64-4.61h-21.62z" fill="#e81c27"/><path d="m32 20.44h27.69c-.67-1.61-1.49-3.15-2.43-4.61h-25.26z" fill="#f5f5f5"/><path d="m32 25.05h29.18c-.38-1.59-.88-3.13-1.49-4.61h-27.69z" fill="#e81c27"/><path d="m32 29.66h29.9c-.12-1.57-.36-3.11-.72-4.61h-29.18z" fill="#f5f5f5"/><path d="m61.9 29.66h-29.9v2.34h-30c0 .76.04 1.52.09 2.27h59.81c.06-.75.1-1.51.1-2.27 0-.79-.04-1.57-.1-2.34z" fill="#e81c27"/><path d="m2.8 38.88h58.4c.35-1.5.59-3.04.71-4.61h-59.82c.12 1.57.36 3.11.71 4.61z" fill="#f5f5f5"/><path d="m4.28 43.49h55.43c.61-1.48 1.11-3.02 1.48-4.61h-58.39c.37 1.59.87 3.13 1.48 4.61z" fill="#e81c27"/><path d="m6.69 48.1h50.62c.93-1.46 1.74-3 2.41-4.61h-55.44c.67 1.61 1.48 3.15 2.41 4.61z" fill="#f5f5f5"/><path d="m10.3 52.71h43.39c1.35-1.41 2.56-2.96 3.62-4.61h-50.62c1.06 1.65 2.27 3.2 3.61 4.61z" fill="#e81c27"/><path d="m15.92 57.32h32.17c2.05-1.31 3.94-2.86 5.61-4.61h-43.4c1.68 1.75 3.56 3.3 5.62 4.61z" fill="#f5f5f5"/><path d="m32 62c5.92 0 11.43-1.72 16.08-4.68h-32.16c4.64 2.96 10.16 4.68 16.08 4.68z" fill="#e81c27"/><path d="m16.03 6.61c-2.07 1.3-3.97 2.86-5.65 4.61-1.36 1.41-2.57 2.95-3.64 4.61-.93 1.46-1.75 3-2.43 4.61-.62 1.48-1.12 3.02-1.49 4.61-.36 1.5-.6 3.04-.72 4.61-.06.77-.1 1.55-.1 2.34h30v-2.34-4.61-4.61-4.61-4.61-4.61-4.61c-5.87 0-11.35 1.69-15.97 4.61z" fill="#014d87"/><g fill="#f5f5f5"><path d="m25 3 .47 1.48h1.53l-1.24.98.48 1.52-1.24-.9-1.24.92.48-1.54-1.24-.98h1.53z"/><path d="m29 9 .47 1.48h1.53l-1.24.98.48 1.52-1.24-.9-1.24.92.48-1.54-1.24-.98h1.53z"/><path d="m21 9 .47 1.48h1.53l-1.24.98.48 1.52-1.24-.9-1.24.92.48-1.54-1.24-.98h1.53z"/><path d="m25 15 .47 1.48h1.53l-1.24.98.48 1.52-1.24-.9-1.24.92.48-1.54-1.24-.98h1.53z"/><path d="m17 15 .47 1.48h1.53l-1.24.98.48 1.52-1.24-.9-1.24.92.48-1.54-1.24-.98h1.53z"/><path d="m9 15 .47 1.48h1.53l-1.24.98.48 1.52-1.24-.9-1.24.92.48-1.54-1.24-.98h1.53z"/><path d="m29 21 .47 1.48h1.53l-1.24.98.48 1.52-1.24-.9-1.24.92.48-1.54-1.24-.98h1.53z"/><path d="m21 21 .47 1.48h1.53l-1.24.98.48 1.52-1.24-.9-1.24.92.48-1.54-1.24-.98h1.53z"/><path d="m13 21 .47 1.48h1.53l-1.24.98.48 1.52-1.24-.9-1.24.92.48-1.54-1.24-.98h1.53z"/><path d="m25 27 .47 1.48h1.53l-1.24.98.48 1.52-1.24-.9-1.24.92.48-1.54-1.24-.98h1.53z"/><path d="m17 27 .47 1.48h1.53l-1.24.98.48 1.52-1.24-.9-1.24.92.48-1.54-1.24-.98h1.53z"/><path d="m9 27 .47 1.48h1.53l-1.24.98.48 1.52-1.24-.9-1.24.92.48-1.54-1.24-.98h1.53z"/><path d="m11.76 13 1.24-.92 1.24.9-.47-1.51 1.23-.99h-1.53l-.47-1.48-.47 1.48h-1.42c-.02.02-.03.03-.05.04l1.18.93z"/><path d="m3.76 25 1.24-.92 1.24.9-.47-1.51 1.23-.99h-1.53l-.47-1.48-.47 1.48h-.98c-.04.12-.08.23-.12.34l.8.63z"/></g><circle cx="32" cy="32" fill="url(#a)" opacity=".1" r="30"/></svg>