<svg enable-background="new 0 0 64 64" height="64" viewBox="0 0 64 64" width="64" xmlns="http://www.w3.org/2000/svg" xmlns:xlink="http://www.w3.org/1999/xlink"><linearGradient id="a" gradientUnits="userSpaceOnUse" x1="32" x2="32" y1="62" y2="2"><stop offset="0" stop-color="#1a1a1a"/><stop offset=".102" stop-color="#393939" stop-opacity=".949"/><stop offset=".3475" stop-color="#7f7f7f" stop-opacity=".8262"/><stop offset=".5688" stop-color="#b6b6b6" stop-opacity=".7156"/><stop offset=".7582" stop-color="#dedede" stop-opacity=".6209"/><stop offset=".9081" stop-color="#f6f6f6" stop-opacity=".5459"/><stop offset="1" stop-color="#fff" stop-opacity=".5"/></linearGradient><path d="m17 58v-52c-8.96 5.19-15 14.89-15 26s6.04 20.81 15 26z" fill="#f5f5f5"/><path d="m32 2c-5.47 0-10.59 1.47-15 4.02v51.95c4.41 2.56 9.53 4.03 15 4.03 16.57 0 30-13.43 30-30s-13.43-30-30-30z" fill="#529320"/><path d="m38 38.13c-6.07 0-11-4.82-11-10.77 0-2.85 1.14-5.44 2.99-7.36-4.15 2.13-6.99 6.37-6.99 11.28 0 7.02 5.82 12.72 13 12.72s13-5.7 13-12.72c0-.69-.07-1.36-.18-2.02-.91 5.03-5.41 8.87-10.82 8.87z" fill="#f5f5f5"/><path d="m40 19.88 2.47-1.88-.93 3.05 2.46 1.89-3.05.01-.95 3.05-.95-3.05-3.05-.01 2.46-1.89-.93-3.05z" fill="#f5f5f5"/><circle cx="32" cy="32" fill="url(#a)" opacity=".1" r="30"/></svg>