<svg enable-background="new 0 0 64 64" height="64" viewBox="0 0 64 64" width="64" xmlns="http://www.w3.org/2000/svg" xmlns:xlink="http://www.w3.org/1999/xlink"><linearGradient id="a" gradientUnits="userSpaceOnUse" x1="32" x2="32" y1="62" y2="2"><stop offset="0" stop-color="#1a1a1a"/><stop offset=".102" stop-color="#393939" stop-opacity=".949"/><stop offset=".3475" stop-color="#7f7f7f" stop-opacity=".8262"/><stop offset=".5688" stop-color="#b6b6b6" stop-opacity=".7156"/><stop offset=".7582" stop-color="#dedede" stop-opacity=".6209"/><stop offset=".9081" stop-color="#f6f6f6" stop-opacity=".5459"/><stop offset="1" stop-color="#fff" stop-opacity=".5"/></linearGradient><path d="m32 2c-15.21 0-27.77 11.32-29.73 26h59.45c-1.95-14.68-14.51-26-29.72-26z" fill="#014d87"/><path d="m32 62c15.21 0 27.77-11.32 29.73-26h-59.46c1.96 14.68 14.52 26 29.73 26z" fill="#014d87"/><path d="m61.73 28h-59.46c-.17 1.31-.27 2.64-.27 4s.1 2.69.27 4h59.45c.18-1.31.28-2.64.28-4s-.1-2.69-.27-4z" fill="#ffe12c"/><path d="m16 41.18 1.19-2.18.27 2.47 1.94-1.56-.7 2.39 2.39-.7-1.56 1.94 2.47.27-2.18 1.19 2.18 1.19-2.47.27 1.56 1.94-2.39-.7.7 2.39-1.94-1.56-.27 2.47-1.19-2.18-1.19 2.18-.27-2.47-1.94 1.56.7-2.39-2.38.7 1.55-1.94-2.47-.27 2.18-1.19-2.18-1.19 2.47-.27-1.55-1.94 2.38.7-.7-2.39 1.94 1.56.27-2.47z" fill="#f5f5f5"/><circle cx="32" cy="32" fill="url(#a)" opacity=".1" r="30"/></svg>