<svg enable-background="new 0 0 64 64" height="64" viewBox="0 0 64 64" width="64" xmlns="http://www.w3.org/2000/svg" xmlns:xlink="http://www.w3.org/1999/xlink"><linearGradient id="a" gradientUnits="userSpaceOnUse" x1="32" x2="32" y1="62" y2="2"><stop offset="0" stop-color="#1a1a1a"/><stop offset=".102" stop-color="#393939" stop-opacity=".949"/><stop offset=".3475" stop-color="#7f7f7f" stop-opacity=".8262"/><stop offset=".5688" stop-color="#b6b6b6" stop-opacity=".7156"/><stop offset=".7582" stop-color="#dedede" stop-opacity=".6209"/><stop offset=".9081" stop-color="#f6f6f6" stop-opacity=".5459"/><stop offset="1" stop-color="#fff" stop-opacity=".5"/></linearGradient><path d="m2 32c0 3.88.75 7.59 2.09 11h55.82c1.34-3.41 2.09-7.12 2.09-11s-.75-7.59-2.09-11h-55.82c-1.34 3.41-2.09 7.12-2.09 11z" fill="#e81c27"/><path d="m7.29 49h49.43c1.28-1.86 2.36-3.87 3.2-6h-55.83c.84 2.13 1.91 4.14 3.2 6z" fill="#f5f5f5"/><path d="m4.09 21h55.82c-.84-2.13-1.91-4.14-3.2-6h-49.42c-1.29 1.86-2.36 3.87-3.2 6z" fill="#f5f5f5"/><path d="m32 37.31 6.18 4.69-2.34-7.63 6.16-4.73-7.62-.02-2.38-7.62-2.38 7.62-7.62.02 6.15 4.73-2.33 7.63z" fill="#ffe12c"/><path d="m56.71 15c-5.41-7.85-14.46-13-24.71-13s-19.3 5.15-24.71 13z" fill="#529320"/><path d="m7.29 49c5.41 7.85 14.46 13 24.71 13s19.3-5.15 24.71-13z" fill="#529320"/><circle cx="32" cy="32" fill="url(#a)" opacity=".1" r="30"/></svg>