<svg enable-background="new 0 0 64 64" height="64" viewBox="0 0 64 64" width="64" xmlns="http://www.w3.org/2000/svg" xmlns:xlink="http://www.w3.org/1999/xlink"><linearGradient id="a" gradientUnits="userSpaceOnUse" x1="31.9995" x2="31.9995" y1="2" y2="62.0005"><stop offset="0" stop-color="#f90"/><stop offset=".2875" stop-color="#ff9500"/><stop offset=".5853" stop-color="#f80"/><stop offset=".8868" stop-color="#ff7400"/><stop offset="1" stop-color="#ff6a00"/></linearGradient><path d="m2 32c0-16.564 13.439-30 30-30 16.572 0 30 13.436 30 30 0 16.57-13.428 30-30 30-16.561 0-30-13.43-30-30z" fill="url(#a)"/><path d="m43.217 48h-4.811c-.561 0-.995-.194-1.314-.663l-10.938-14.368v13.945c0 .697-.389 1.086-1.086 1.086h-4.113c-.698 0-1.087-.389-1.087-1.086v-29.828c0-.697.389-1.086 1.087-1.086h4.113c.697 0 1.086.389 1.086 1.086v13.06l10.48-13.482c.354-.458.743-.664 1.304-.664h4.811c.881 0 1.223.594.674 1.314l-10.859 14.256 11.316 15.116c.515.731.217 1.314-.663 1.314z" fill="#fff"/></svg>