<svg enable-background="new 0 0 64 64" height="64" viewBox="0 0 64 64" width="64" xmlns="http://www.w3.org/2000/svg" xmlns:xlink="http://www.w3.org/1999/xlink"><linearGradient id="a" gradientUnits="userSpaceOnUse" x1="32" x2="32" y1="62" y2="2"><stop offset="0" stop-color="#1a1a1a"/><stop offset=".102" stop-color="#393939" stop-opacity=".949"/><stop offset=".3475" stop-color="#7f7f7f" stop-opacity=".8262"/><stop offset=".5688" stop-color="#b6b6b6" stop-opacity=".7156"/><stop offset=".7582" stop-color="#dedede" stop-opacity=".6209"/><stop offset=".9081" stop-color="#f6f6f6" stop-opacity=".5459"/><stop offset="1" stop-color="#fff" stop-opacity=".5"/></linearGradient><path d="m32 2c-8.88 0-16.86 3.86-22.35 10h44.71c-5.5-6.14-13.48-10-22.36-10z" fill="#302c3b"/><path d="m54.36 12h-44.71c-2.58 2.88-4.62 6.27-5.93 10h56.57c-1.32-3.73-3.35-7.12-5.93-10z" fill="#ffe12c"/><path d="m60.29 22h-56.58c-1.1 3.13-1.71 6.49-1.71 10h60c0-3.51-.61-6.87-1.71-10z" fill="#e81c27"/><path d="m62 32h-60c0 3.51.61 6.87 1.71 10h56.57c1.11-3.13 1.72-6.49 1.72-10z" fill="#302c3b"/><path d="m60.29 42h-56.58c1.32 3.73 3.35 7.11 5.93 10h44.71c2.59-2.89 4.62-6.27 5.94-10z" fill="#ffe12c"/><path d="m54.36 52h-44.71c5.49 6.13 13.47 10 22.35 10s16.86-3.87 22.36-10z" fill="#e81c27"/><circle cx="32" cy="32" fill="#f5f5f5" r="10"/><g fill="#302c3b"><circle cx="31" cy="26" r="2"/><path d="m31.5 35 .5 6h.5v-6z"/><path d="m31 40.5v.5h2v-1z"/><path d="m34.93 37.25c-1.06-1.67-2.13-3.34-3.2-5.01-.35-.54-1.21-.04-.87.51.9 1.42 1.81 2.84 2.71 4.26-1.37 0-2.22 0-3.58 0v.5c1.67 0 2.83.5 4.5.5.38-.01.65-.44.44-.76z"/><path d="m33.93 32.1c-1.13-.42-3.36-.88-1.93-5.1h-1.82s-4.38 8.73 3.75 8.73c1.8 0 2.58 1.46 2.58 3.27 0 0 2.16-5.16-2.58-6.9z"/><path d="m29.5 36.5.5 2h.5v-2z"/><path d="m31 25-4 2h4z"/></g><path d="m35 32.62v3.33s1.59.65.94 3.06l1.06.52s1.84-4.8-2-6.91z" fill="#e81c27"/><path d="m31.5 32s0 2.58 2.54 2.58c0 0 .96-2.58-2.54-2.58z" fill="#bcbcbc"/><ellipse cx="30.36" cy="31.74" fill="#bcbcbc" rx=".86" ry="1.55"/><circle cx="32" cy="32" fill="url(#a)" opacity=".1" r="30"/></svg>