<svg enable-background="new 0 0 64 64" height="64" viewBox="0 0 64 64" width="64" xmlns="http://www.w3.org/2000/svg" xmlns:xlink="http://www.w3.org/1999/xlink"><linearGradient id="a" gradientUnits="userSpaceOnUse" x1="32" x2="32" y1="62" y2="2"><stop offset="0" stop-color="#1a1a1a"/><stop offset=".102" stop-color="#393939" stop-opacity=".949"/><stop offset=".3475" stop-color="#7f7f7f" stop-opacity=".8262"/><stop offset=".5688" stop-color="#b6b6b6" stop-opacity=".7156"/><stop offset=".7582" stop-color="#dedede" stop-opacity=".6209"/><stop offset=".9081" stop-color="#f6f6f6" stop-opacity=".5459"/><stop offset="1" stop-color="#fff" stop-opacity=".5"/></linearGradient><path d="m62 32c0-13.06-8.35-24.17-20-28.29v56.57c11.65-4.11 20-15.22 20-28.28z" fill="#e81c27"/><path d="m2 32c0 13.06 8.35 24.17 20 28.29v-56.58c-11.65 4.12-20 15.23-20 28.29z" fill="#529320"/><path d="m42 3.71c-3.13-1.1-6.49-1.71-10-1.71s-6.87.61-10 1.71v56.57c3.13 1.11 6.49 1.72 10 1.72s6.87-.61 10-1.71z" fill="#f5f5f5"/><path d="m40.74 31.66c-.07-.26-.16.07-.17.21-.04-.26-.13-.53-.27-.75-.29.3-.37.68-.4 1.08-.07-.3-.2-.59-.49-.71.17.28.11.48.08.79-.05.45.31.69.32 1.13.02.43-.18.71-.49.98.02-.1.01-.2.04-.31-1.01.35-.81.94-.77 1.76.04.87-.49.71-1.1 1.18.1-.22.1-.47-.02-.68-.04.56-.77.64-.92 1.14-.08.25-.04.55-.26.74-.19.12-.48.29-.53.53-.22-.11-.44-.1-.68-.06.11-.06.2-.14.27-.24-1.02-.46-1.31.55-2.17.72-.28-.02-.98-.4-1.02.02.85-.01 1.31.79 2.04.81.62.02 1.11-.55 1.73-.55-.06-.04-.4-.19-.66-.19.47-.27.79-.91 1.37-.92 1.05-.01 1.48-.23 1.82-1.19-.11-.01-.21.01-.3.06 0-.44.45-.87.78-1.11 1.03-.19.86-1.04 1.48-1.67-.25.01-.42.13-.59.31.04-.6-.14-1.16.43-1.58.78-.55.67-.73.48-1.5-.01-.06.03.1 0 0z" fill="#529320"/><path d="m23.26 31.66c-.19.77-.3.95.47 1.51.58.42.4.98.43 1.58-.17-.18-.35-.3-.59-.31.62.63.45 1.48 1.48 1.67.34.25.78.67.78 1.11-.1-.05-.2-.07-.31-.06.34.95.77 1.18 1.82 1.19.58 0 .89.65 1.37.92-.25 0-.6.15-.66.19.63 0 1.11.57 1.73.55.74-.02 1.19-.82 2.05-.81-.03-.42-.74-.04-1.02-.02-.85-.17-1.15-1.18-2.17-.72.07.1.16.18.27.24-.24-.05-.46-.05-.68.06-.05-.24-.35-.4-.53-.53-.22-.19-.18-.49-.26-.74-.15-.5-.88-.59-.92-1.14-.12.21-.12.46-.02.68-.61-.46-1.14-.3-1.1-1.18.04-.83.24-1.41-.77-1.76.03.1.02.21.04.31-.32-.27-.51-.54-.49-.98.01-.44.37-.68.32-1.13-.03-.31-.09-.51.08-.79-.3.12-.42.41-.49.71-.03-.4-.11-.78-.4-1.08-.14.23-.23.49-.27.75-.01-.15-.1-.49-.16-.22-.03.1.01-.06 0 0z" fill="#529320"/><path d="m34.66 37.65c-.17-.05-.29-.15-.38-.3.04-.21.76-.36.95-.39 0-.08.01-.16.01-.24-1.33.41-5.22.65-6.01-.69-.44.56-1.08.15-1.84-.3.15.19.53 1.2.47 1.08.2.08 1.51.36 1.53.68-.07.14-.18.23-.33.26 2.16.8 3.43 1.01 5.6-.1z" fill="#014d87"/><path d="m33.37 37.71c.08-.11.14-.24.14-.38 0-.04-.07-.26-.06-.27.22-.24.04-.73-.32-.56-.16.08-.09.11-.27.03-.06-.03-.13-.07-.19-.07-.25-.01-.49-.03-.73-.04-.21-.01-.49.01-.72.02-.15.01-.3-.02-.45 0-.16.02-.22-.06-.36-.1-.18-.06-.33.08-.38.25-.04.17.13.21.13.34 0 .1-.14.22-.13.36 0 .15.09.3.19.41-.41.34.05.83.37.47.09.23.45.21.65.22.36.01.72.02 1.07.02.21 0 .63.05.75-.16.38.29.71-.35.31-.54z" fill="#e81c27"/><path d="m36.64 35.14c-.84-1.04-1.24.5-2.14.45.22-1.15-1.58-.83-2.12-.48.13-.14.2-.32.32-.47-.38.05-.87.17-1.21-.06-.62-.42-1.43-.63-1.87.12-.44-.55-1.49-1.22-2.11-.56-.01-.62-.57-1.49-1.28-1.39-.78.1-.47 1.11-.08 1.45.31.27.73.4 1.14.38-.03.17.08.32.2.42.46.41 1.51.55 2 .12.04 1.03 1.96 1.01 2.49.47-.2.48-.38 1.5.33 1.46.57-.03.44-.58.93-.85.43-.23.87-.25 1.29-.08.59.26 2.79.18 2.11-.98 0 0 .07.13 0 0z" fill="#014d87"/><g fill="#529320"><path d="m28.36 32.63c-.07-.22-.3-.37-.34-.4-.36.11-.44-.19-.51-.48-.11-.45-.82-.66-.82-1.1 0-.43.4-.79.07-1.21-.28-.35-.76-.59-.81-.37-.05.2.43.23.43.73 0 .64-.59 1.07.09 1.64.52.43.5 1.57 1.27 1.57.27-.01.54-.1.62-.38z"/><path d="m29.85 32.1c-.25-.45.01-.96-.45-1.35-.48-.4-1.52.39-1.59-.62-.01-.22 1.15-1.4 1.26-1.53.3-.35.25-1.14-.09-1.33-.41-.24-.54.05-.81.37.13.08.46.27.46.43-.3.65-1.16.77-1.42 1.46-.2.53-.11 1.31.39 1.65.27.18.52.19.81.16.9-.08.37.08.51.33.15.28.53.98.93.43z"/><path d="m26.88 27.21c.02.59.6.47 1.05.44-.04-.19.03-.41.11-.61-.16.06-.45.11-.6.03-.33-.24.69-.59.58-.63-.03-.01-1.01.52-.58-.06.13-.17.29-.45.39-.63.11-.23-.3.03-.27.02-.14.02-.19-.03-.32.08-.61.45-.44.71-.36 1.36 0 0-.03-.21 0 0z"/></g><path d="m37.52 27.18c-.5-.65-2.38-2.96-5.12-3.18-.31-.02-1.09.26-1.35.42-.89.57 1.01 1.06 1.11 1.53.04.16.07.33.09.51-.26-.52-.65-.84-.66-.95-.47.22-1.32-.13-1.4-.59-.06.19-.12.32-.26.46-.02-.3-.08-.3-.18-.49.03.29.01.69-.31.8.15-.16.04-.44-.09-.56.04.26-.03.54-.21.74.05-.21-.08-.33-.11-.47-.07.76-1.18 1.12-.14 1.39.41.11.61-.03.97.17.09.05.25.25.3.24-.04.15-.38.51-.11.55-.05.08-.43.75-.44.75.28.04.05.21-.06.43-.28.55.04 1.04.13 1.6-.03-.19.33.12.35.39.02.44.42.55.52.9-.51-.45-.6.01-.03.28-.46.04-.61.33-.15.54-1.21.03-.24.54-.02.61.76.23 1.36-.44 1.36-.55 0 0 1.63 1.58 1.72 1.56.07-.01.89-.44 1.08-.22.22.26.44-.01.6.11.21.16.99.03 1.23-.1.07-.04 1.09-.24.93-.39.01.01.03.02 0 0-.01-.01-.01-.01 0 0-.48-.45-1.06-.82-1.58-1.21-.48-.36-.96-.71-1.43-1.07-.25-.19-.24-.56-.32-.89.89.89 1.83 1.39 1.71-.33.58.45 1.78 3.25 1.91 3.25.27 0 .05-3.03.03-3.29.44.38.37 3.69.45 3.69.42 0 1.17-4.41-.52-6.63zm-7.8-.35" fill="#785647"/><path d="m30.31 32.33c-.14-.01-.58-.67-.62-.8.32 1.17-.92.52-.63-.01-.44-.06-1.41.54-.98 1.05-.2.45 1.38.14 1.54-.05.41.86 1.41-.17.69-.19-.15-.01.2 0 0 0z" fill="#ffe12c"/><path d="m34.97 35.3c.48-.72-1.58-.9-1.36-1.74-.26.21-.67.95-1.12.7-.24-.13-1.05.36-.56.71.03-.41.2-.12.48-.17-.11.28-.38.6.1.76-.19-.53.58-.24.45-.59-.17-.19.71-.18.76-.18.26.01 1.25.27.89.57.1.06.28.06.36-.06 0 0-.02.04 0 0z" fill="#ffe12c"/><path d="m28.29 26.7c-.12.25-.54.49-.46.82.03.21.5.69.74.43-.6-.42.08-.71.37-.7.12 0 .13.19.14.21.1.14.89-.18.85-.41-.07-.42-1.37-.46-1.64-.35z" fill="#ffe12c"/><circle cx="32" cy="32" fill="url(#a)" opacity=".1" r="30"/></svg>