<svg enable-background="new 0 0 64 64" height="64" viewBox="0 0 64 64" width="64" xmlns="http://www.w3.org/2000/svg" xmlns:xlink="http://www.w3.org/1999/xlink"><linearGradient id="a" gradientUnits="userSpaceOnUse" x1="31.9995" x2="31.9995" y1="62" y2="2"><stop offset="0" stop-color="#1a1a1a"/><stop offset=".102" stop-color="#393939" stop-opacity=".949"/><stop offset=".3475" stop-color="#7f7f7f" stop-opacity=".8262"/><stop offset=".5688" stop-color="#b6b6b6" stop-opacity=".7156"/><stop offset=".7582" stop-color="#dedede" stop-opacity=".6209"/><stop offset=".9081" stop-color="#f6f6f6" stop-opacity=".5459"/><stop offset="1" stop-color="#fff" stop-opacity=".5"/></linearGradient><path d="m62 32c0-5.42-1.44-10.51-3.96-14.9l-43.35 37.27-.69 1.63c.13.1.26.19.39.29l46.61-16.58c.65-2.46 1-5.04 1-7.71z" fill="#e81c27"/><path d="m58.04 17.1c-4.41-7.7-12.14-13.25-21.23-14.72l-22.81 53.62z" fill="#ffe12c"/><path d="m32 2c-8.19 0-15.62 3.29-21.03 8.61-5.53 5.44-8.97 13.01-8.97 21.39 0 9.53 4.44 18.01 11.36 23.51.12.1.25.19.37.29.09.06.17.13.26.2l.69-1.63 22.13-51.99c-1.57-.25-3.17-.38-4.81-.38z" fill="#014d87"/><path d="m14.39 56.29c.06.04.11.08.17.12l40.25-4.92c2.88-3.36 5.02-7.37 6.19-11.77z" fill="#f5f5f5"/><path d="m32 62c9.13 0 17.3-4.08 22.81-10.51l-40.25 4.92c4.91 3.52 10.93 5.59 17.44 5.59z" fill="#529320"/><circle cx="32" cy="32" fill="url(#a)" opacity=".1" r="30"/></svg>