<svg enable-background="new 0 0 64 64" height="64" viewBox="0 0 64 64" width="64" xmlns="http://www.w3.org/2000/svg" xmlns:xlink="http://www.w3.org/1999/xlink"><linearGradient id="a" gradientUnits="userSpaceOnUse" x1="31.9991" x2="31.9991" y1="62" y2="2"><stop offset="0" stop-color="#1a1a1a"/><stop offset=".102" stop-color="#393939" stop-opacity=".949"/><stop offset=".3475" stop-color="#7f7f7f" stop-opacity=".8262"/><stop offset=".5688" stop-color="#b6b6b6" stop-opacity=".7156"/><stop offset=".7582" stop-color="#dedede" stop-opacity=".6209"/><stop offset=".9081" stop-color="#f6f6f6" stop-opacity=".5459"/><stop offset="1" stop-color="#fff" stop-opacity=".5"/></linearGradient><path d="m32 2v30h-30c0 16.57 13.43 30 30 30s30-13.43 30-30-13.43-30-30-30z" fill="#014d87"/><path d="m12 12h21v21h-21z" fill="#014d87"/><path d="m18.91 8.14v5.86h-7.31l14.4 18h6v-7.5z" fill="#f5f5f5"/><path d="m11 18.91h-5.99c-1.92 3.96-3.01 8.39-3.01 13.09h12v-18.09h-3z" fill="#f5f5f5"/><path d="m32 27.06-13-16.06h-6l17 21h2z" fill="#e81c27"/><path d="m18.91 5.01v5.99h-7.91v3h21v-12c-4.69 0-9.13 1.09-13.09 3.01z" fill="#f5f5f5"/><path d="m32 5h-13.09c-6.05 2.94-10.97 7.86-13.91 13.91v13.09h6v-21h21z" fill="#e81c27"/><path d="m34.54 33.86-.04.08z" fill="#d8a322"/><path d="m57.98 26.49v9.27c0 7.61-2.99 14.58-11.86 18.81-8.87-4.23-11.86-11.2-11.86-18.81v-9.27z" fill="#f5f5f5"/><path d="m57.18 27.44v8.64c0 7.1-2.79 13.6-11.06 17.54-8.27-3.95-11.06-10.45-11.06-17.54v-8.64z" fill="#ffe12c"/><path d="m40.97 31.22c-.48-.36-.41.02-.62-.58-.15-.44-.55-.46-.88-.68-.18-.12-1.17-1.55-1.46-1.39-.26.14-.37.97-.44 1.15-.24.64.14.48.24.89-.35 0 .06.41.2.44-.12.12-.11.22.04.31-.6 0-1.1.6-1.48.92.32.04.43-.16.71-.18s.47.26.78.2c-.24.16-.5.41-.54.72-.07.64-.76.63-.96 1.17.37.92 1.34.99 2.05 1.54.56.44 1.02.77 1.39 1.41.41.71 1.29 1.75 1.98.56.43-.73.22-2.17.17-2.96-.04-1.03-.13-2.92-1.18-3.52-.16-.11 0 0 0 0z" fill="#ff9e3d"/><path d="m41.65 29.09c-.79.85-.69 1.37-.72 2.46-.03 1.1-.88 1.22-1.16 2.13-.32 1.03 1.03 1.58 1.25 2.53.11.45.11.97.39 1.36.24.34 1.07.18 1.37-.03.33-.23.14-.66.28-.98.15-.35.66-.32.88-.63.51-.69.47-1.97.08-2.69-.23-.42.08-.9-.36-1.21-.36-.26-.18-.68-.56-.99-.67-.54-.44-1.56-1.45-1.95-.37.4 0 0 0 0z" fill="#ff927f"/><path d="m41.8 37.8c.89-.23.81-1.7.68-2.31s-.47-1.49-.21-2.19c.37-.99-.46-1.92-.24-2.3.21-.37.19-.57.16-.69s-.23-.21-.24.04-.08.35-.24.51-.12.51 0 .89c.12.39.37.97-.03 1.75s-.23 1.12-.08 1.48c.24.57.81 2.52.2 2.82z" fill="#ff9ee1"/><g fill="#ff9e3d"><path d="m37.8 29.44c.1 0 .29-.04.29.09"/><path d="m37.6 30.08c.12-.09.33.01.55-.11"/><path d="m37.81 30.61c.16 0 .37-.01.57-.17"/><path d="m38.01 31.05c.15 0 .42-.09.49-.29"/><path d="m38.05 31.36c.29-.01.67.09.72-.01"/><path d="m38.07 32.31c.2-.19.67-.31.78-.51"/><path d="m38.57 29.33c.33.11.2.31.36.44.29.23.03.48.27.55s.24.11.17.37c-.07.31.23.33.12.53"/><path d="m40.4 31.03c-.13 0-.53.01-.7.37"/><path d="m37.55 34.88c.15.03.23-.06.27-.15.05-.09.07-.16.21-.17s.35-.05.4-.15c.05-.11.21-.01.35-.29s.23-.62.61-.73"/></g><path d="m48.13 40.7c.15.22-.01.46.25.55.3.11.04.51.39.65.31.12 0 .5.34.67.3.15-.05.51.35.71s-.07.66.23.83c.3.18-.1.63.25.81s-.15.53.18.78-.08.63.25.86-.2.53.13.86c.25.25-.09.5.1.88.13.25-.13 1.26-.84 1.16-.25.43-1.24.81-1.59.69-.36.25-1.49.61-2.07.05-.58.55-1.72.2-2.07-.05-.35.13-1.34-.25-1.59-.69-.71.1-.96-.91-.84-1.16.19-.38-.15-.63.1-.88.33-.33-.2-.63.13-.86s-.08-.61.25-.86-.18-.61.18-.78c.36-.18-.05-.63.25-.81s-.18-.63.23-.83c.4-.2.05-.56.35-.71.34-.17.03-.55.34-.67.35-.14.09-.54.39-.65.26-.1.1-.34.26-.56.76.3 3.1.51 4.05.01z" fill="#529320"/><path d="m48.16 40.54c-.04-.05-.1-.07-.16-.07-.05-2.43-.5-3.31-1.89-3.31s-1.83.88-1.89 3.31c-.06.01-.12.03-.16.07-.18.23-.15.4.37.61.44.17 1.09.28 1.68.28s1.25-.11 1.68-.28c.52-.21.55-.38.37-.61z" fill="#e81c27"/><path d="m54.64 33.38.03-.71 2.24-.23-2.23-.15.01-.25-.07-.65 2.19-.41-2.27.08-.3-.57 1.62-1.26-1.88.97-.84-.42-.76-1.22.13-.42-.77 1.75.02.56-.16.58-.14-.58.02-.56-.77-1.75.13.42-.76 1.22-.84.42-1.88-.97 1.64 1.26-.3.57-2.27-.08 2.19.41-.06.65v.25l-2.23.15 2.24.23.03.71-2.01.82 2.03-.49.2 4.26-.51 2.83.77-2.56-.12-4.53h.02l1.1.28.15.48.1.6.16.53.03.06-.03.01.11.63.15.58v.01l.1.53.2.16-.92.93-.13.73.56-.22.13.67.34-.15.24.3.39-.79.39.79.24-.3.34.15.13-.67.56.21-.13-.73-.92-.93.2-.16.1-.53v-.01l.15-.58.11-.63-.03-.01.03-.06.16-.53.1-.61.15-.48 1.1-.28h.02l-.12 4.53.77 2.56-.51-2.83.2-4.26 2.03.49zm-3.51-2.46-.7-.75.73.54zm-.23.3-.1.06-1.2-.88.55-.23zm-.02-2.61.36 1.28-.01.21-.86-.34zm-1.56 2.1 1.16.89-.12.17-1.07-.52-.2-.07zm-.38 1.33.06-.51 1.24.61-.02.3-.09.28-.84-.28-.35-.09zm0 1.34-.01-.64 1.16.36v.02l-.04.47-.99-.2zm3.5-2.09-.1-.06.75-1.05.55.23zm-.33-.37-.03-.21.73-.54zm.78.85-.12-.17 1.16-.88.23.47-.2.07zm-.53-3.16.52 1.15-.86.34-.02-.22zm.65 3.53 1.24-.61.06.51.01.32-.35.09-.84.28-.09-.28zm1.17 1.25-.99.2-.04-.47v-.02l1.16-.36-.01.64z" fill="#b95a1e"/><circle cx="32" cy="32" fill="url(#a)" opacity=".1" r="30"/></svg>