<svg enable-background="new 0 0 64 64" height="64" viewBox="0 0 64 64" width="64" xmlns="http://www.w3.org/2000/svg" xmlns:xlink="http://www.w3.org/1999/xlink"><linearGradient id="a" gradientUnits="userSpaceOnUse" x1="32" x2="32" y1="62" y2="2"><stop offset="0" stop-color="#1a1a1a"/><stop offset=".102" stop-color="#393939" stop-opacity=".949"/><stop offset=".3475" stop-color="#7f7f7f" stop-opacity=".8262"/><stop offset=".5688" stop-color="#b6b6b6" stop-opacity=".7156"/><stop offset=".7582" stop-color="#dedede" stop-opacity=".6209"/><stop offset=".9081" stop-color="#f6f6f6" stop-opacity=".5459"/><stop offset="1" stop-color="#fff" stop-opacity=".5"/></linearGradient><path d="m32 2c-10.26 0-19.3 5.15-24.72 13h49.43c-5.41-7.85-14.46-13-24.71-13z" fill="#014d87"/><path d="m32 62c10.25 0 19.3-5.15 24.71-13h-49.43c5.42 7.85 14.46 13 24.72 13z" fill="#014d87"/><path d="m59.04 19h-54.08c-1.9 3.93-2.96 8.34-2.96 13s1.06 9.07 2.96 13h54.09c1.89-3.93 2.95-8.34 2.95-13s-1.06-9.07-2.96-13z" fill="#e81c27"/><g fill="#f5f5f5"><path d="m4.96 45c.67 1.4 1.46 2.73 2.33 4h49.43c.87-1.27 1.66-2.6 2.33-4z"/><path d="m59.04 19c-.67-1.4-1.46-2.73-2.33-4h-49.43c-.87 1.27-1.66 2.6-2.33 4z"/><circle cx="18" cy="32" r="11"/></g><path d="m18 35.91 4.95 3.76-1.88-6.11 4.93-3.78-6.1-.02-1.9-6.09-1.9 6.09-6.1.02 4.92 3.78-1.87 6.11z" fill="#e81c27"/><circle cx="32" cy="32" fill="url(#a)" opacity=".1" r="30"/></svg>