<svg enable-background="new 0 0 64 64" height="64" viewBox="0 0 64 64" width="64" xmlns="http://www.w3.org/2000/svg" xmlns:xlink="http://www.w3.org/1999/xlink"><linearGradient id="a" gradientUnits="userSpaceOnUse" x1="32" x2="32" y1="62" y2="2"><stop offset="0" stop-color="#1a1a1a"/><stop offset=".102" stop-color="#393939" stop-opacity=".949"/><stop offset=".3475" stop-color="#7f7f7f" stop-opacity=".8262"/><stop offset=".5688" stop-color="#b6b6b6" stop-opacity=".7156"/><stop offset=".7582" stop-color="#dedede" stop-opacity=".6209"/><stop offset=".9081" stop-color="#f6f6f6" stop-opacity=".5459"/><stop offset="1" stop-color="#fff" stop-opacity=".5"/></linearGradient><circle cx="32" cy="32" fill="#014d87" r="30"/><path d="m29.02 26.76s-1 1.54-2.7 2.15c0 0 .08 2.54-1.47 2.69-1.54.15-2.85 0-2.85 0s.23 2.31-.85 1.69c-1.08-.61-4.09-.46-2.86 1.31 1.24 1.77 3.09 2.62 3.63 6.77 0 0 5.17 1.85 5.55 5.46.39 3.61-.07 4.29-.07 4.29s3.17.17 3.17-2.37 1.93-2.38 2.78-2.46 1.7-2.38 2.86-1.38 2.16 1.23 3.09-.23 3.63-1.69 3.63-1.69.08-4.31 3.09-6.92c0 0-1.47-2.62-4.94-2.62 0 0-.23-3.15-2.93-3.15 0 0-1.85-3.54-5.02-3.54 0 0-1.11-1.4-1.11-3.63 0 0-1.98.32-2.83 1.02s-1.47.62-1.47.62.76.68 1.3 1.99z" fill="#f59e01"/><g fill="#f5f5f5"><path d="m28 17.47 1.85 1.41-.7-2.29 1.85-1.42-2.29-.01-.71-2.28-.71 2.28-2.29.01 1.85 1.42-.7 2.29z"/><path d="m21 19.47 1.85 1.41-.7-2.29 1.85-1.42-2.29-.01-.71-2.28-.71 2.28-2.29.01 1.85 1.42-.7 2.29z"/><path d="m36 17.47 1.85 1.41-.7-2.29 1.85-1.42-2.29-.01-.71-2.28-.71 2.28-2.29.01 1.85 1.42-.7 2.29z"/><path d="m14 23.47 1.85 1.41-.7-2.29 1.85-1.42-2.29-.01-.71-2.28-.71 2.28-2.29.01 1.85 1.42-.7 2.29z"/><path d="m50 22.47 1.85 1.41-.7-2.29 1.85-1.42-2.29-.01-.71-2.28-.71 2.28-2.29.01 1.85 1.42-.7 2.29z"/><path d="m43 19.47 1.85 1.41-.7-2.29 1.85-1.42-2.29-.01-.71-2.28-.71 2.28-2.29.01 1.85 1.42-.7 2.29z"/></g><circle cx="32" cy="32" fill="url(#a)" opacity=".1" r="30"/></svg>