<svg enable-background="new 0 0 64 64" height="64" viewBox="0 0 64 64" width="64" xmlns="http://www.w3.org/2000/svg" xmlns:xlink="http://www.w3.org/1999/xlink"><linearGradient id="a" gradientUnits="userSpaceOnUse" x1="32" x2="32" y1="2" y2="62.0005"><stop offset="0" stop-color="#f90"/><stop offset=".2875" stop-color="#ff9500"/><stop offset=".5853" stop-color="#f80"/><stop offset=".8868" stop-color="#ff7400"/><stop offset="1" stop-color="#ff6a00"/></linearGradient><path d="m2 32c0-16.564 13.44-30 30-30 16.572 0 30 13.436 30 30 0 16.57-13.428 30-30 30-16.56 0-30-13.43-30-30z" fill="url(#a)"/><path d="m46.078 44.096c.43.513.41.953-.113 1.393l-2.68 2.229c-.514.43-.996.356-1.393-.125l-2.615-2.969c-2.162 1.162-4.641 1.816-7.277 1.816-8.406 0-15.221-6.656-15.221-15.219.001-8.563 6.815-15.221 15.221-15.221s15.22 6.658 15.22 15.22c0 3.864-1.387 7.338-3.682 9.99zm-10.664-3.864-2.692-3.057c-.429-.512-.407-.951.115-1.392l2.68-2.229c.512-.43.994-.355 1.393.125l2.836 3.223c1.084-1.553 1.717-3.492 1.717-5.682 0-5.632-4.188-9.609-9.462-9.609-5.275 0-9.463 3.978-9.463 9.609s4.188 9.61 9.463 9.61c1.206 0 2.356-.209 3.413-.598z" fill="#fff"/></svg>