<svg enable-background="new 0 0 64 64" height="64" viewBox="0 0 64 64" width="64" xmlns="http://www.w3.org/2000/svg" xmlns:xlink="http://www.w3.org/1999/xlink"><linearGradient id="a" gradientUnits="userSpaceOnUse" x1="32.0005" x2="32.0005" y1="62" y2="2.0005"><stop offset="0" stop-color="#1a1a1a"/><stop offset=".102" stop-color="#393939" stop-opacity=".949"/><stop offset=".3475" stop-color="#7f7f7f" stop-opacity=".8262"/><stop offset=".5688" stop-color="#b6b6b6" stop-opacity=".7156"/><stop offset=".7582" stop-color="#dedede" stop-opacity=".6209"/><stop offset=".9081" stop-color="#f6f6f6" stop-opacity=".5459"/><stop offset="1" stop-color="#fff" stop-opacity=".5"/></linearGradient><circle cx="32" cy="32" fill="#00795e" r="30"/><path d="m37.45 30.383c-.742.209-1.398.533-1.978.918.099-.59.153-1.213.153-1.861 0-3.561-3.582-7.439-3.582-7.439s-3.583 3.879-3.583 7.439c0 .674.058 1.322.164 1.934-.603-.416-1.289-.77-2.075-.99-3.866-1.095-8.549 1.323-8.549 1.323s3.202 4.998 7.068 6.088c3.273.924 5.764-1.57 6.716-1.932.104-.039.337-.033.439.008.958.383 3.446 2.844 6.708 1.924 3.867-1.09 7.069-6.088 7.069-6.088s-4.683-2.418-8.55-1.324z" fill="#f5f5f5"/><path d="m24.744 48c2.151 1.271 4.623 2 7.256 2s5.104-.729 7.255-2z" fill="#f5f5f5"/><path d="m20.301 44c.545.723 1.149 1.387 1.801 2h19.796c.651-.613 1.257-1.277 1.801-2z" fill="#f5f5f5"/><g fill="#ffe12c"><path d="m32 18.123 2.474 1.877-.936-3.053 2.462-1.892-3.048-.01-.952-3.045-.953 3.045-3.047.01 2.461 1.892-.932 3.053z"/><path d="m24.652 19.34 1.849.232-1.402-1.306.712-1.721-1.587.91-1.409-1.297.419 1.867-1.581.92 1.846.244.432 1.868z"/><path d="m19.34 24.652 1.717-.722-1.867-.43-.245-1.846-.919 1.58-1.868-.418 1.297 1.409-.909 1.586 1.72-.711 1.307 1.4z"/><path d="m44.66 24.652-.232 1.848 1.304-1.4 1.723.711-.909-1.588 1.296-1.409-1.869.42-.918-1.582-.245 1.846-1.867.432z"/><path d="m39.348 19.34.722 1.717.43-1.866 1.848-.246-1.582-.92.418-1.867-1.408 1.297-1.587-.91.711 1.721-1.4 1.306z"/></g><path d="m46.317 40h-10.751c-2.399 0-2.559-1.676-2.566-2h-2c0 .205-.072 2-2.566 2h-10.751c.306.689.637 1.363 1.016 2h9.735c1.765 0 2.88-.641 3.566-1.436.687.795 1.802 1.436 3.566 1.436h9.735c.38-.637.711-1.311 1.016-2z" fill="#f5f5f5"/><circle cx="32" cy="32" fill="url(#a)" opacity=".1" r="30"/></svg>