<svg enable-background="new 0 0 64 64" height="64" viewBox="0 0 64 64" width="64" xmlns="http://www.w3.org/2000/svg" xmlns:xlink="http://www.w3.org/1999/xlink"><linearGradient id="a" gradientUnits="userSpaceOnUse" x1="32" x2="32" y1="62" y2="2"><stop offset="0" stop-color="#1a1a1a"/><stop offset=".102" stop-color="#393939" stop-opacity=".949"/><stop offset=".3475" stop-color="#7f7f7f" stop-opacity=".8262"/><stop offset=".5688" stop-color="#b6b6b6" stop-opacity=".7156"/><stop offset=".7582" stop-color="#dedede" stop-opacity=".6209"/><stop offset=".9081" stop-color="#f6f6f6" stop-opacity=".5459"/><stop offset="1" stop-color="#fff" stop-opacity=".5"/></linearGradient><path d="m32 2c-13.06 0-24.17 8.35-28.29 20h56.57c-4.11-11.65-15.22-20-28.28-20z" fill="#f5f5f5"/><path d="m32 62c13.06 0 24.17-8.35 28.29-20h-56.58c4.12 11.65 15.23 20 28.29 20z" fill="#e81c27"/><path d="m3.71 22c-1.1 3.13-1.71 6.49-1.71 10s.61 6.87 1.71 10h56.57c1.11-3.13 1.72-6.49 1.72-10s-.61-6.87-1.71-10z" fill="#014d87"/><path d="m33.89 19h-19.78-.11v13.83c0 9.17 9.59 11.93 10 12.17.41-.24 10-3 10-12.17 0-10.7 0-13.83 0-13.83z" fill="#f5f5f5"/><path d="m16 21v11.91c0 5.61 4.26 8.57 8 10.09 3.74-1.52 8-4.48 8-10.09v-11.91z" fill="#e81c27"/><g fill="#f5f5f5"><path d="m23 23h2v14h-2z"/><path d="m19 29h10v2h-10z"/><path d="m21 25h6v2h-6z"/></g><path d="m24 35c-1.31 0-2.46.64-3.2 1.62-.5-.39-1.12-.62-1.8-.62-.84 0-1.6.35-2.14.91 1.43 3.1 4.42 4.98 7.15 6.09 2.73-1.11 5.72-2.99 7.15-6.09-.56-.56-1.32-.91-2.16-.91-.68 0-1.3.23-1.8.62-.74-.98-1.89-1.62-3.2-1.62z" fill="#014d87"/><circle cx="32" cy="32" fill="url(#a)" opacity=".1" r="30"/></svg>