<svg enable-background="new 0 0 64 64" height="64" viewBox="0 0 64 64" width="64" xmlns="http://www.w3.org/2000/svg" xmlns:xlink="http://www.w3.org/1999/xlink"><linearGradient id="a" gradientUnits="userSpaceOnUse" x1="32" x2="32" y1="62" y2="2"><stop offset="0" stop-color="#1a1a1a"/><stop offset=".102" stop-color="#393939" stop-opacity=".949"/><stop offset=".3475" stop-color="#7f7f7f" stop-opacity=".8262"/><stop offset=".5688" stop-color="#b6b6b6" stop-opacity=".7156"/><stop offset=".7582" stop-color="#dedede" stop-opacity=".6209"/><stop offset=".9081" stop-color="#f6f6f6" stop-opacity=".5459"/><stop offset="1" stop-color="#fff" stop-opacity=".5"/></linearGradient><path d="m2 32c0 5.88 1.7 11.37 4.63 16h50.74c2.93-4.63 4.63-10.12 4.63-16s-1.7-11.37-4.63-16h-50.74c-2.93 4.63-4.63 10.12-4.63 16z" fill="#302c3b"/><path d="m57.37 16c-5.31-8.41-14.69-14-25.37-14s-20.06 5.59-25.37 14z" fill="#e81c27"/><path d="m6.63 48c5.31 8.41 14.69 14 25.37 14s20.06-5.59 25.37-14z" fill="#529320"/><path d="m38.23 36.67.01-3.57-3.57-1.1 3.57-1.1-.01-3.57 2.2 2.9 3.57-1.11-2.21 2.88 2.21 2.88-3.57-1.11z" fill="#f5f5f5"/><path d="m32.83 40c-4.37 0-7.91-3.58-7.91-8s3.54-8 7.91-8c1.67 0 3.22.53 4.5 1.42-1.81-2.1-4.48-3.42-7.45-3.42-5.45 0-9.88 4.48-9.88 10s4.42 10 9.89 10c2.97 0 5.63-1.32 7.45-3.42-1.28.89-2.83 1.42-4.51 1.42z" fill="#f5f5f5"/><circle cx="32" cy="32" fill="url(#a)" opacity=".1" r="30"/></svg>