<svg enable-background="new 0 0 64 64" height="64" viewBox="0 0 64 64" width="64" xmlns="http://www.w3.org/2000/svg" xmlns:xlink="http://www.w3.org/1999/xlink"><linearGradient id="a" gradientUnits="userSpaceOnUse" x1="32" x2="32" y1="62" y2="2"><stop offset="0" stop-color="#1a1a1a"/><stop offset=".102" stop-color="#393939" stop-opacity=".949"/><stop offset=".3475" stop-color="#7f7f7f" stop-opacity=".8262"/><stop offset=".5688" stop-color="#b6b6b6" stop-opacity=".7156"/><stop offset=".7582" stop-color="#dedede" stop-opacity=".6209"/><stop offset=".9081" stop-color="#f6f6f6" stop-opacity=".5459"/><stop offset="1" stop-color="#fff" stop-opacity=".5"/></linearGradient><path d="m32 2c-13.06 0-24.17 8.35-28.29 20h56.57c-4.11-11.65-15.22-20-28.28-20z" fill="#ffe12c"/><path d="m32 62c13.06 0 24.17-8.35 28.29-20h-56.58c4.12 11.65 15.23 20 28.29 20z" fill="#e81c27"/><path d="m3.71 22c-1.1 3.13-1.71 6.49-1.71 10s.61 6.87 1.71 10h56.57c1.11-3.13 1.72-6.49 1.72-10s-.61-6.87-1.71-10z" fill="#014d87"/><g fill="#f5f5f5"><path d="m34.56 27.15 1.04 1.05-.2-1.46 1.35-.65-1.47-.26-.21-1.45-.71 1.29-1.48-.24 1.03 1.06-.7 1.3z"/><path d="m29.17 27.17 1.37.64-.75-1.3 1-1.07-1.46.26-.76-1.29-.16 1.46-1.47.27 1.37.64-.15 1.46z"/><path d="m24.17 29.03 1.52.12-1.2-.96.52-1.33-1.26.74-1.2-.96.41 1.42-1.26.75 1.52.14.42 1.41z"/><path d="m20.23 32.45 1.47-.4-1.49-.49-.02-1.43-.9 1.12-1.48-.48.93 1.18-.88 1.13 1.46-.39.94 1.19z"/><path d="m17.9 36.98 1.21-.86-1.57.04-.58-1.33-.4 1.35-1.56.05 1.32.79-.38 1.36 1.21-.86 1.33.79z"/><path d="m46.12 36.82-.53 1.34 1.3-.81 1.24.84-.42-1.34 1.29-.81-1.56-.03-.44-1.35-.54 1.33-1.57-.02z"/><path d="m43.65 32.32.02 1.43.9-1.2 1.47.37-.91-1.11.89-1.2-1.47.5-.92-1.11.01 1.43-1.46.51z"/><path d="m39.61 28.94.57 1.33.37-1.42 1.52-.15-1.28-.74.37-1.42-1.17.96-1.29-.72.56 1.33-1.16.98z"/></g><circle cx="32" cy="32" fill="url(#a)" opacity=".1" r="30"/></svg>