<svg enable-background="new 0 0 64 64" height="64" viewBox="0 0 64 64" width="64" xmlns="http://www.w3.org/2000/svg" xmlns:xlink="http://www.w3.org/1999/xlink"><linearGradient id="a" gradientTransform="matrix(1 0 0 -1 194 169)" gradientUnits="userSpaceOnUse" x1="-162" x2="-162" y1="107" y2="167"><stop offset="0" stop-color="#1a1a1a"/><stop offset=".102" stop-color="#393939" stop-opacity=".949"/><stop offset=".3475" stop-color="#7f7f7f" stop-opacity=".8262"/><stop offset=".5688" stop-color="#b6b6b6" stop-opacity=".7156"/><stop offset=".7582" stop-color="#dedede" stop-opacity=".6209"/><stop offset=".9081" stop-color="#f6f6f6" stop-opacity=".5459"/><stop offset="1" stop-color="#fff" stop-opacity=".5"/></linearGradient><path d="m32 2v30h-30c0 16.57 13.43 30 30 30s30-13.43 30-30-13.43-30-30-30z" fill="#014d87"/><path d="m12 12h21v21h-21z" fill="#014d87"/><path d="m18.91 8.14v5.86h-7.31l14.4 18h6v-7.5z" fill="#f5f5f5"/><path d="m11 18.91h-5.99c-1.92 3.96-3.01 8.39-3.01 13.09h12v-18.09h-3z" fill="#f5f5f5"/><path d="m32 27.06-13-16.06h-6l17 21h2z" fill="#e81c27"/><path d="m18.91 5.01v5.99h-7.91v3h21v-12c-4.69 0-9.13 1.09-13.09 3.01z" fill="#f5f5f5"/><path d="m32 5h-13.09c-6.05 2.94-10.97 7.86-13.91 13.91v13.09h6v-21h21z" fill="#e81c27"/><path d="m35.05 22.15 19.47-.07-.04 17.34s.689 2.641-8.17 6.65c3.18-.32 6.649-3.721 6.649-3.721s1.41-1.81 2.09-.789c.69 1.01 1.341 1.52 1.841 1.909.51.4.899 1.48.139 2.28-.76.79-1.949.9-2.279-.07-.51.25-3.609 4.01-9.971 4.19-6.469-.11-10.01-4.229-10.01-4.229s-.869 1.369-2.1.289c-1.19-1.41-.29-2.31-.29-2.31s1.011-.58 1.3-.979c.471-.541.62-1.261 1.41-1.261.939.07 1.301.83 1.301.83s3.25 3.431 6.76 3.87c-7.91-3.79-8.2-6.141-8.17-6.721z" fill="#f5f5f5"/><path d="m35.52 22.62 18.57-.11v16.69c.04 2.17-3.609 4.37-9.32 7.19-5.89-3.041-9.289-4.881-9.319-7.23z" fill="#006b00"/><path d="m44.33 24.41c.12.38-.301.64-.27.81.049.26.129.8.449.92.6.21.131.81-.08 1.26.631-.06 1.271-.13 1.9-.2-.58-.93-.5-1.55-.54-2.65-.029-.7-1.549-.92-1.459-.14z" fill="#ffc6b5"/><path d="m43.98 27.22c-.76.41-.721 1.65-.82 2.4-.07.56-1.03 1.32-1.34 1.83-.36.58-.91 1.02-.9 1.739.01 1.24.59.57.859-.129.201-.511-.279-.641.281-1.051.5-.37 1.359-.84 1.64-1.42.4-.839.2-2.429.28-3.369z" fill="#ffc6b5"/><path d="m44.689 26.64c.4.79.811-.05 1.291-.05.51 0 .76.39 1.049.77.471.62-.239.52-.469 1-.281.55.31 1.37-.011 1.75-.28.32-.05 1.81-.06 2.35-.01.851.039 1.41.21 2.19.399 1.8.739 3.33 1.22 4.99.13.449-.05.92.061 1.299.119.451.459.91-.211.931-.289.01-.26.16-.529.149-.211-.01-.44-.05-.66-.039.199-.011-.9.369-.65.109-.15.15.141.61-.539.36-.19-.07-.141-.841-.541-.601.061-.029.291.271.061.45-.391.3-.46-.36-.891-.3-.22.03-1.39.55-1.39.03 0-1.05.28-2.03.28-3.171 0-.18 0-.359 0-.539 0-.101-.28-.051-.27-.26.029-.511.1-1.021.159-1.521.13-1.101.29-2.16.511-3.24h-.201c-.139-.92.65-2.26.65-3.28 0-.72-.93-1.08-.34-1.78.411-.497.501-1.467 1.27-1.597 0 0-.449.07 0 0z" fill="#f5f5f5"/><path d="m47.189 27.82c.541 0 .641 3.22.4 3.58-.39.58-.689 1.18-1.029 1.79-.221.4-.011.881-.101 1.211-.31.91-1.33-.131-.78-.811.34-.42.51-1.09.73-1.59.27-.6.73-1.23.38-1.88-.398-.75-.689-1.98.4-2.3z" fill="#ffc6b5"/><path d="m44.29 24.34c.97-.09 1.95 2.65 2.29 1.49.87-2.93-2.78-2.44-2.29-1.49z" fill="#9c5100"/><g fill="#f7c600"><path d="m46.85 42.939c.51-.629.32-.899.32-.899l-1.13-.62-.33.7.2.42c-.01 0 .44 1.03.94.399z"/><path d="m43.13 42.96c.17-.05 1.37-.68 1.37-.68l-.15-.171-.33-.289s-1.26.449-1.16.439c-.13.081.111.751.27.701z"/><path d="m56.91 43.97c-1.01-.36-1.84-2.06-2.42-2.2s-1.301.871-1.27.9c.039.04-3.32 3.79-8.531 3.939-4.66.291-8.85-4.52-8.85-4.52s-.689-.62-1.05-.25c-.181.65-1.771 1.88-1.771 1.88s-.649.4-.58 1.011c.07.609 1.01 1.229 1.23 1.27.21.04.65-.43.65-.43l.4-.43s4.549 4.369 10.079 4.329c5.351.181 9.97-4.329 9.97-4.329s.291-.11.44.469c.14.58 1.12.181 1.34.041.213-.16.863-.88.363-1.68z"/></g><circle cx="32" cy="32" fill="url(#a)" opacity=".1" r="30"/><path d="m48.756 41.181c-.367-.021-.105-1.465.25-1.453-.162.871.297 1.484-.25 1.453z" fill="#ff2300"/><path d="m52.078 41.711c-.118-.497 1.365-.923.529-1.056-.586-.093-1.065.559-1.677.258-.025-.494-1.111-.435-1.107-.018-.593 0-.778.244-1.373.123.26.775 1.361.378 1.11 1.213.571 0 1.152-.011 1.732 0 .011-.144-.051-.266-.184-.367.692-.093.764-.928 1.426-.969.154.021-1.035.544-.456.816z" fill="#f7c600"/><path d="m48.726 37.886c-.367-.021-.105-1.465.25-1.453-.163.871.296 1.484-.25 1.453z" fill="#ff2300"/><path d="m52.048 38.416c-.118-.497 1.365-.923.529-1.056-.586-.093-1.065.559-1.677.258-.025-.494-1.111-.435-1.107-.018-.593 0-.778.244-1.373.123.26.775 1.361.378 1.11 1.213.571 0 1.152-.011 1.732 0 .011-.144-.051-.266-.184-.367.692-.093.764-.928 1.426-.969.154.021-1.035.545-.456.816z" fill="#f7c600"/><path d="m48.756 34.949c-.367-.021-.105-1.465.25-1.453-.162.871.297 1.484-.25 1.453z" fill="#ff2300"/><path d="m52.078 35.479c-.118-.497 1.365-.923.529-1.056-.586-.093-1.065.559-1.677.258-.025-.494-1.111-.435-1.107-.018-.593 0-.778.244-1.373.123.26.775 1.361.378 1.11 1.213.571 0 1.152-.011 1.732 0 .011-.144-.051-.266-.184-.367.692-.093.764-.928 1.426-.969.154.022-1.035.545-.456.816z" fill="#f7c600"/><path d="m48.726 31.676c-.367-.021-.105-1.465.25-1.453-.163.871.296 1.484-.25 1.453z" fill="#ff2300"/><path d="m52.048 32.206c-.118-.497 1.365-.923.529-1.056-.586-.093-1.065.559-1.677.258-.025-.494-1.111-.435-1.107-.018-.593 0-.778.244-1.373.123.26.775 1.361.378 1.11 1.213.571 0 1.152-.01 1.732 0 .011-.143-.051-.266-.184-.367.692-.093.764-.928 1.426-.969.154.021-1.035.545-.456.816z" fill="#f7c600"/><path d="m48.754 28.45c-.367-.021-.105-1.465.25-1.453-.162.871.297 1.484-.25 1.453z" fill="#ff2300"/><path d="m52.076 28.98c-.118-.497 1.365-.923.529-1.056-.586-.093-1.065.559-1.677.258-.025-.494-1.111-.435-1.107-.018-.593 0-.778.244-1.373.123.26.775 1.361.378 1.11 1.212.571 0 1.152-.01 1.732 0 .011-.143-.051-.266-.184-.367.692-.093.764-.928 1.426-.969.155.023-1.035.546-.456.817z" fill="#f7c600"/><path d="m48.895 25.245c-.367-.021-.105-1.465.25-1.453-.163.871.296 1.484-.25 1.453z" fill="#ff2300"/><path d="m52.217 25.775c-.118-.497 1.365-.923.529-1.056-.586-.093-1.065.559-1.677.258-.025-.494-1.111-.435-1.107-.018-.593 0-.778.244-1.373.123.26.775 1.361.378 1.11 1.212.571 0 1.152-.01 1.732 0 .011-.143-.051-.266-.184-.367.692-.093.764-.928 1.426-.969.154.022-1.035.546-.456.817z" fill="#f7c600"/><path d="m37.456 25.245c-.367-.021-.105-1.465.25-1.453-.162.871.297 1.484-.25 1.453z" fill="#ff2300"/><path d="m40.778 25.775c-.118-.497 1.365-.923.529-1.056-.586-.093-1.065.559-1.677.258-.025-.494-1.111-.435-1.107-.018-.593 0-.778.244-1.373.123.26.775 1.361.378 1.11 1.212.571 0 1.152-.01 1.732 0 .011-.143-.051-.266-.184-.367.692-.093.764-.928 1.426-.969.155.022-1.035.546-.456.817z" fill="#f7c600"/><path d="m37.324 28.45c-.367-.021-.105-1.465.25-1.453-.162.871.297 1.484-.25 1.453z" fill="#ff2300"/><path d="m40.646 28.98c-.118-.497 1.365-.923.529-1.056-.586-.093-1.065.559-1.677.258-.025-.494-1.111-.435-1.107-.018-.593 0-.778.244-1.373.123.26.775 1.361.378 1.11 1.212.571 0 1.152-.01 1.732 0 .011-.143-.051-.266-.184-.367.692-.093.764-.928 1.426-.969.155.023-1.035.546-.456.817z" fill="#f7c600"/><path d="m37.324 31.676c-.367-.021-.105-1.465.25-1.453-.162.871.297 1.484-.25 1.453z" fill="#ff2300"/><path d="m40.646 32.206c-.118-.497 1.365-.923.529-1.056-.586-.093-1.065.559-1.677.258-.025-.494-1.111-.435-1.107-.018-.593 0-.778.244-1.373.123.26.775 1.361.378 1.11 1.213.571 0 1.152-.01 1.732 0 .011-.143-.051-.266-.184-.367.692-.093.764-.928 1.426-.969.155.021-1.035.545-.456.816z" fill="#f7c600"/><path d="m39.46 34.949c-.367-.02-.105-1.465.25-1.453-.162.871.297 1.484-.25 1.453z" fill="#ff2300"/><path d="m42.782 35.48c-.118-.498 1.365-.924.529-1.057-.586-.092-1.065.559-1.677.258-.025-.494-1.111-.434-1.107-.018-.593 0-.778.244-1.373.123.26.775 1.361.379 1.11 1.213.571 0 1.152-.01 1.732 0 .011-.143-.051-.266-.184-.367.692-.092.764-.928 1.426-.969.155.023-1.035.546-.456.817z" fill="#f7c600"/><path d="m37.034 37.886c-.367-.02-.105-1.465.25-1.453-.162.871.297 1.484-.25 1.453z" fill="#ff2300"/><path d="m40.356 38.417c-.118-.498 1.365-.924.529-1.057-.586-.092-1.065.559-1.677.258-.025-.494-1.111-.434-1.107-.018-.593 0-.778.244-1.373.123.26.775 1.361.379 1.11 1.213.571 0 1.152-.01 1.732 0 .011-.143-.051-.266-.184-.367.692-.092.764-.928 1.426-.969.155.022-1.035.546-.456.817z" fill="#f7c600"/><path d="m37.149 41.18c-.367-.02-.105-1.465.25-1.453-.162.871.297 1.484-.25 1.453z" fill="#ff2300"/><path d="m40.472 41.711c-.118-.498 1.365-.924.529-1.057-.586-.092-1.065.559-1.677.258-.025-.494-1.111-.434-1.107-.018-.593 0-.778.244-1.373.123.26.775 1.361.379 1.11 1.213.571 0 1.152-.01 1.732 0 .011-.143-.051-.266-.184-.367.692-.092.764-.928 1.426-.969.154.022-1.035.545-.456.817z" fill="#f7c600"/></svg>