<svg enable-background="new 0 0 64 64" height="64" viewBox="0 0 64 64" width="64" xmlns="http://www.w3.org/2000/svg" xmlns:xlink="http://www.w3.org/1999/xlink"><linearGradient id="a" gradientUnits="userSpaceOnUse" x1="32.0003" x2="32.0003" y1="62" y2="2"><stop offset="0" stop-color="#1a1a1a"/><stop offset=".102" stop-color="#393939" stop-opacity=".949"/><stop offset=".3475" stop-color="#7f7f7f" stop-opacity=".8262"/><stop offset=".5688" stop-color="#b6b6b6" stop-opacity=".7156"/><stop offset=".7582" stop-color="#dedede" stop-opacity=".6209"/><stop offset=".9081" stop-color="#f6f6f6" stop-opacity=".5459"/><stop offset="1" stop-color="#fff" stop-opacity=".5"/></linearGradient><g fill="#f5f5f5"><path d="m61.72 28c-.14-1.02-.32-2.02-.55-3h-58.34c-.23.98-.41 1.98-.55 3z"/><path d="m2.28 36c.14 1.02.32 2.02.55 3h58.34c.23-.98.41-1.98.55-3z"/><path d="m20 4.49c-1.03.45-2.03.95-3 1.51v52c.97.56 1.97 1.06 3 1.51z"/><path d="m28 2.26v59.47c.99.13 1.98.23 3 .26v-59.99c-1.02.03-2.01.13-3 .26z"/></g><path d="m2 32c0 1.36.1 2.69.27 4h59.45c.18-1.31.28-2.64.28-4s-.1-2.69-.27-4h-59.46c-.17 1.31-.27 2.64-.27 4z" fill="#014d87"/><path d="m20 59.5c2.51 1.1 5.19 1.86 8 2.23v-59.46c-2.81.38-5.49 1.13-8 2.23z" fill="#014d87"/><path d="m17 25v-18.98c-7.02 4.06-12.23 10.88-14.17 18.98z" fill="#e81c27"/><path d="m17 39.02v18.98c-7.02-4.06-12.23-10.88-14.17-18.98z" fill="#e81c27"/><path d="m32 2c-.34 0-.67.01-1 .03v22.97h30.17c-3.15-13.19-15.01-23-29.17-23z" fill="#e81c27"/><path d="m31 39v22.97c.33.01.66.03 1 .03 14.16 0 26.02-9.81 29.17-23z" fill="#e81c27"/><circle cx="32" cy="32" fill="url(#a)" opacity=".1" r="30"/></svg>