<svg enable-background="new 0 0 64 64" height="64" viewBox="0 0 64 64" width="64" xmlns="http://www.w3.org/2000/svg" xmlns:xlink="http://www.w3.org/1999/xlink"><linearGradient id="a" gradientUnits="userSpaceOnUse" x1="32" x2="32" y1="62.0001" y2="2.0001"><stop offset="0" stop-color="#1a1a1a"/><stop offset=".102" stop-color="#393939" stop-opacity=".949"/><stop offset=".3475" stop-color="#7f7f7f" stop-opacity=".8262"/><stop offset=".5688" stop-color="#b6b6b6" stop-opacity=".7156"/><stop offset=".7582" stop-color="#dedede" stop-opacity=".6209"/><stop offset=".9081" stop-color="#f6f6f6" stop-opacity=".5459"/><stop offset="1" stop-color="#fff" stop-opacity=".5"/></linearGradient><path d="m17 6.02c-10.66 6.15-16.1 17.84-14.81 29.33l47.62-27.49c-9.31-6.86-22.16-7.99-32.81-1.84z" fill="#529320"/><path d="m14.19 56.14c9.31 6.86 22.16 7.99 32.81 1.84s16.1-17.84 14.81-29.33z" fill="#014d87"/><path d="m57.99 17c-1.39-2.4-3.07-4.52-4.95-6.38l-50.07 28.9c.66 2.56 1.66 5.08 3.04 7.48 1.39 2.4 3.07 4.53 4.95 6.38l50.07-28.9c-.66-2.56-1.66-5.08-3.04-7.48z" fill="#302c3b"/><path d="m61.5 26.52c-.13-.68-.29-1.36-.47-2.04l-50.07 28.9c.5.49 1 .97 1.53 1.42.55.47 1.11.91 1.69 1.33l47.62-27.49c-.07-.7-.17-1.42-.3-2.12z" fill="#ffe12c"/><path d="m51.5 9.2c-.55-.47-1.11-.91-1.69-1.33l-47.62 27.48c.08.71.18 1.42.31 2.13.13.68.29 1.36.47 2.04l50.07-28.9c-.51-.49-1.01-.97-1.54-1.42z" fill="#ffe12c"/><circle cx="32" cy="32" fill="url(#a)" opacity=".1" r="30"/></svg>