<svg enable-background="new 0 0 64 64" height="64" viewBox="0 0 64 64" width="64" xmlns="http://www.w3.org/2000/svg" xmlns:xlink="http://www.w3.org/1999/xlink"><linearGradient id="a" gradientUnits="userSpaceOnUse" x1="31.9995" x2="31.9995" y1="2" y2="62.0005"><stop offset="0" stop-color="#f90"/><stop offset=".2875" stop-color="#ff9500"/><stop offset=".5853" stop-color="#f80"/><stop offset=".8868" stop-color="#ff7400"/><stop offset="1" stop-color="#ff6a00"/></linearGradient><path d="m2 32c0-16.564 13.439-30 30-30 16.572 0 30 13.436 30 30 0 16.57-13.428 30-30 30-16.561 0-30-13.43-30-30z" fill="url(#a)"/><path d="m46.631 46.651c.572.698.275 1.349-.639 1.349h-4.846c-.561 0-.994-.172-1.35-.641l-8.522-10.445h-3.911v10c0 .697-.389 1.086-1.086 1.086h-4.113c-.698 0-1.087-.389-1.087-1.086v-29.828c0-.697.389-1.086 1.087-1.086h5.199 5.828c5.887 0 10.629 4.743 10.629 10.628 0 3.961-2.432 7.524-5.974 9.227zm-19.268-15.291h5.828c2.389 0 4.344-2.08 4.344-4.731 0-2.663-1.955-4.732-4.344-4.732h-5.828z" fill="#fff"/></svg>