<svg enable-background="new 0 0 64 64" height="64" viewBox="0 0 64 64" width="64" xmlns="http://www.w3.org/2000/svg" xmlns:xlink="http://www.w3.org/1999/xlink"><linearGradient id="a" gradientUnits="userSpaceOnUse" x1="32" x2="32" y1="62" y2="2"><stop offset="0" stop-color="#1a1a1a"/><stop offset=".102" stop-color="#393939" stop-opacity=".949"/><stop offset=".3475" stop-color="#7f7f7f" stop-opacity=".8262"/><stop offset=".5688" stop-color="#b6b6b6" stop-opacity=".7156"/><stop offset=".7582" stop-color="#dedede" stop-opacity=".6209"/><stop offset=".9081" stop-color="#f6f6f6" stop-opacity=".5459"/><stop offset="1" stop-color="#fff" stop-opacity=".5"/></linearGradient><path d="m44.46 56.46-24.46-24.46h24l-25.29-25.29h-2.83v-.01c-8.34 5.33-13.88 14.67-13.88 25.3 0 16.57 13.43 30 30 30 4.45 0 8.66-.98 12.46-2.71z" fill="#e81c27"/><path d="m32 2c-4.45 0-8.66.98-12.46 2.71v4.85l21.01 21.01h-21.01v3.17l23.55 23.55h5.02c8.35-5.32 13.89-14.66 13.89-25.29 0-16.57-13.43-30-30-30z" fill="#f5f5f5"/><path d="m19.54 4.71c-1.27.58-2.49 1.25-3.66 1.99l23.29 23.3h-24l29.29 29.29c1.27-.58 2.49-1.25 3.66-1.99l-23.29-23.3h24z" fill="#014d87"/><path d="m19.55 21.8c.28-.54.45-1.15.45-1.8 0-2.21-1.79-4-4-4s-4 1.79-4 4c0 .65.17 1.26.45 1.8-1.95-.76-3.45-1.8-3.45-1.8s1.5 6 7 6c5.62 0 7-6 7-6s-1.5 1.04-3.45 1.8z" fill="#f5f5f5"/><path d="m16 39.56 1.61-1.56.61 2.16 2.17-.55-.55 2.17 2.16.61-1.56 1.61 1.56 1.61-2.16.61.55 2.17-2.17-.55-.61 2.16-1.61-1.56-1.61 1.56-.61-2.16-2.17.55.55-2.17-2.16-.61 1.56-1.61-1.56-1.61 2.16-.61-.55-2.17 2.17.55.61-2.16z" fill="#f5f5f5"/><circle cx="32" cy="32" fill="url(#a)" opacity=".1" r="30"/></svg>