<svg enable-background="new 0 0 64 64" height="64" viewBox="0 0 64 64" width="64" xmlns="http://www.w3.org/2000/svg" xmlns:xlink="http://www.w3.org/1999/xlink"><linearGradient id="a" gradientUnits="userSpaceOnUse" x1="31.9995" x2="31.9995" y1="62" y2="2"><stop offset="0" stop-color="#1a1a1a"/><stop offset=".102" stop-color="#393939" stop-opacity=".949"/><stop offset=".3475" stop-color="#7f7f7f" stop-opacity=".8262"/><stop offset=".5688" stop-color="#b6b6b6" stop-opacity=".7156"/><stop offset=".7582" stop-color="#dedede" stop-opacity=".6209"/><stop offset=".9081" stop-color="#f6f6f6" stop-opacity=".5459"/><stop offset="1" stop-color="#fff" stop-opacity=".5"/></linearGradient><path d="m25.79 9.31h-.02l-6.88.01h-3.51v-2.19-.1c-.79.52-1.54 1.08-2.27 1.68-1.72 1.39-3.27 2.97-4.64 4.71h2.76v2.13l.01 6.04h-7.38c-1.2 3.24-1.86 6.74-1.86 10.41 0 3.51.61 6.88 1.72 10.01h22.04v-20.43h-10.37l-.01-5.97v-2.2h3.53l6.86-.01h.02.01z" fill="#f5f5f5"/><path d="m32 2c-2.13 0-4.21.23-6.21.65v58.71c2 .41 4.08.64 6.21.64 16.57 0 30-13.43 30-30s-13.43-30-30-30z" fill="#0091c8"/><path d="m61.47 32.35c.03-.16.26-.68.51-1.21-.01-.31-.02-.62-.04-.93-.21.36-.39.72-.44.87-.23.65-.36.2-.43-1.55-.06-1.38.01-2.76.2-4.11-.74-3.32-2.03-6.44-3.77-9.24-.41.13-.73.23-.74.21-.02-.01.16-.27.45-.66-.09-.13-.17-.26-.25-.39-.6.75-1.2 1.47-1.31 1.51-.15.06-.9.33-1.65.61l-1.39.49 1.05-.99c.59-.54 1.69-1.56 2.46-2.29l.23-.21c-.08-.11-.16-.23-.25-.35l-1.46 1.37c-1.63 1.53-3.15 2.87-3.38 3.02-.23.14-.46.34-.52.46-.14.25.02.71.29.81.17.06.06.28-.51 1.07-.83 1.14-1.46 2.37-1.96 3.73l-.36.95-.2-.7c-.33-1.12-.58-2.75-.58-3.82 0-.98 0-.98.66-1.92.8-1.14 2.68-3.1 3.73-3.89.42-.32 1.13-.75 1.59-.97 1.02-.47 1.27-.69 1.27-1.04 0-.42-.3-.62-.79-.52-.28.05-1.41-.13-3.35-.52-1.6-.32-2.94-.6-2.95-.6 0-.01.13-.56.3-1.22.21-.78.42-1.32.62-1.54.38-.41.39-.88.01-1.23-.64-.6-1.59-.08-1.45.79l.06.43-.84.09c-.46.05-1.55.28-2.42.52-1.76.48-3.13.56-4.03.24-.28-.1-.52-.19-.54-.19-.03 0-.04.14-.04.32 0 .55.34 1.03.9 1.31l.54.27-.36.09c-.19.05-.76.05-1.29.01-.52-.04-.94-.04-.94 0 0 .27.62.98 1.03 1.18.89.46 2.75.29 4.81-.43 1.03-.36 2.37-.46 2.28-.18-.05.15-1.84 1.5-4.92 3.7-1.55 1.11-1.79 1.41-1.55 1.95.13.29.09.41-.29 1.04-.83 1.4-1.6 3.8-1.6 5.02 0 .61-.04.66-.88 1.55-1.72 1.81-5.07 6.02-5.8 7.27l-.23.4-.24-.31c-.48-.61-1.5-.27-1.5.51 0 .53.33.84.93.84.33 0 .99.25 2.14.84l1.67.83-.32.36c-.61.66-.74 1.18-.42 1.63.15.2.34.24 1.06.24.76 0 1.02.06 1.89.49s1.2.7 2.47 2.02c3.75 3.92 4.81 4.88 6.94 6.21.61.28 1.1.45 1.33.52.2-.11.61-.42.98-.83 1.75-2.01 3.12-1.51 6.32.35 1.57.93 2.17 1.11 2.39 1.13l.04-.17c.4-1.78.96-2.43 2.39-2.56.83-1.72 1.5-3.54 1.99-5.42-.76.03-1.68.04-2.25.01l-1.3-.08.08-.39c.11-.61.51-1.32 1.08-1.93.28-.3.53-.56.56-.56.04 0 .45.23.92.52.41.25.86.55 1.29.85.23-1.13.39-2.28.49-3.45-.28-1.04-.47-1.98-.41-2.23zm-14.63-18.06c.28-1.17.61-2.3.67-2.3.05 0 1.08.2 2.32.46 2.67.55 2.72.56 2.23.7-.21.06-1.49.42-2.84.8l-2.47.69zm-10.73 20.91-.41-.04c-.54-.06-4.33-1.81-4.33-2 0-.48 3.63-5.15 5.66-7.3l.76-.8.04.42c.03.24.13.79.21 1.22l.18.78-1.06 3.87zm3.96 1.97c-.12 0-.79-.34-1.5-.76-.7-.42-1.45-.81-1.67-.89l-.38-.14.95-3.49c.52-1.92.99-3.5 1.03-3.5.05 0 .2.3.36.68.23.53.28.91.28 1.97v1.3h.42.41l.02 1.12c.01.61.14 1.56.28 2.11.26 1.08.21 1.6-.2 1.6zm1.64-9.28-.36 1.21-.87.04c-.48.03-.93-.01-1.01-.09-.18-.18.01-1.1.33-1.57.33-.5 1.25-.99 1.83-.99.23 0 .42.04.42.09.02.06-.15.64-.34 1.31zm2.38 1.27h-1.16l.08-.36c.05-.19.18-.65.28-1.02l.19-.66.45.34c.25.19.65.6.89.9.24.32.43.62.43.68 0 .07-.52.12-1.16.12zm.29-13.88c-.53.14-1.37.38-1.86.52-.48.13-.84.21-.81.18.1-.09 4.22-3.1 4.26-3.1l-.03.15c-.03.09-.17.57-.32 1.07l-.25.92zm4.86 21.79c-1.06-.75-2.16-2.22-2.77-3.69-.38-.9-.41-1.04-.14-1.04.16 0 .19-.27.19-1.59v-1.59h-.38c-.33 0-.39-.06-.54-.55-.1-.32-.16-1.22-.16-2.25 0-1.88.18-2.67.99-4.49.43-.97.57-.93.59.14.01.74.33 2.2.71 3.33.25.75.29 1.02.19 1.45-.06.28-.18 1.14-.26 1.89-.24 2.43.15 4.74 1.2 6.89.32.63.6 1.29.65 1.45l.09.3zm3.23-2.55c-.04.09-.31.9-.61 1.82-.29.9-.59 1.71-.64 1.76-.05.06-.32 0-.6-.14-.42-.21-.52-.34-.66-.9-.15-.62-.15-.67.16-1.22.41-.69 1.01-1.16 1.68-1.32.7-.17.74-.17.67 0zm3.55 4.89c-.37-.04-1.25-.21-1.95-.34l-1.3-.27.3-.98c.17-.54.46-1.46.65-2.09.33-1.11.38-1.17.89-1.03.23.06.32.26.5 1.12.15.66.47 1.5.9 2.35l.66 1.31zm2.15-2.34c-.33.37-.69.93-.8 1.25-.12.32-.24.62-.29.67-.23.25-1.65-3.05-1.65-3.83 0-.27.47-.12 2.01.61l1.32.64z" fill="#ffe12c"/><g fill="#302c3b"><path d="m56.64 47.59-.04.17c-.22-.02-.82-.2-2.39-1.13-3.2-1.85-4.57-2.36-6.32-.35-.37.41-.78.72-.98.83-.23-.06-.73-.24-1.33-.52-.23-.1-.47-.22-.73-.35-1.92-.99-3.31-1.3-4.39-.95-.66.21-1.16.65-1.49 1.29-.23.43-.43.67-.58.71-.53.14-2.18-.91-2.81-1.3-2.28-1.44-3.73-1.47-5.78-.12-.45.3-.8.53-.97.55-.14.02-.47-.09-.93-.25-.53-.19-.87-.4-1-.49-.19-.36-.6-.55-1.01-.45l-.12.06h-.01v1 .76h.01c.35.29.85.57 1.53.81 1.6.56 1.99.5 3.49-.49 1.35-.89 2.06-.99 3.84.14 1.95 1.23 3.13 1.8 4.21 1.52.86-.23 1.36-.97 1.71-1.6.15-.3.32-.38.45-.43.32-.1 1.14-.13 3.02.84.22.11 2.14 1.08 2.95 1.08.49 0 1.05-.36 1.5-.73.37-.3.66-.61.76-.73.79-.91.95-1.1 4.07.71 1.29.77 2.26 1.23 3.05 1.33.3-.42.59-.85.87-1.28l.16-.26c.4-.64.79-1.3 1.14-1.97l.09-.17c.14-.27.28-.54.41-.81-1.43.15-1.98.8-2.38 2.58z"/><path d="m25.54 33.96.22.22.01.01v-.47l-.01.01z"/><path d="m23.09 33.96 1.31.34.33-.34-.33-.35z"/><path d="m24.79 33.28.34.33.35-.33-.35-1.3z"/><path d="m25.77 37.2v-1.72l-.01-.01-.53-1.2h-.23l-1.26 2.93h.8l.46.68h.23l.44-.68h.09z"/><path d="m17.45 33.96.34.34 1.29-.34-1.29-.35z"/><path d="m15.01 33.96 1.3.34.33-.34-.33-.35z"/><path d="m16.7 33.28.35.33.34-.33-.34-1.3z"/><path d="m16.91 34.27-1.26 2.93h.8l.46.68h.24l.43-.68h.86l-1.29-2.93z"/><path d="m9.36 33.96.33.34 1.3-.34-1.3-.35z"/><path d="m8.55 33.96-.34-.35-1.3.35 1.3.34z"/><path d="m8.61 33.28.34.33.35-.33-.35-1.3z"/><path d="m8.82 34.27-1.26 2.93h.8l.46.68h.23l.43-.68h.87l-1.3-2.93z"/><path d="m25 23.69h.23l.44-.68h.09.01v-1.43h-.01-1.41l-.61 1.43h.8z"/><path d="m16.91 23.69h.24l.43-.68h.86l-.63-1.43h-1.55l-.61 1.43h.8z"/><path d="m8.82 23.69h.23l.43-.68h.87l-.63-1.43h-1.55l-.61 1.43h.8z"/><path d="m6.95 26.98-1.3-.34-.33.34.33.35z"/><path d="m4.5 26.98-.33-.34-1.3.34 1.3.35z"/><path d="m5.25 26.31-.34-1.3-.35 1.3.35.33z"/><path d="m4.77 27.3-1.26 2.93h.8l.46.68h.24l.43-.68h.87l-1.3-2.93z"/><path d="m15.04 26.98-1.3-.34-.33.34.33.35z"/><path d="m12.59 26.98-.33-.34-1.3.34 1.3.35z"/><path d="m13.35 26.31-.35-1.3-.35 1.3.35.33z"/><path d="m12.86 27.3-1.26 2.93h.8l.46.68h.24l.43-.68h.87l-1.3-2.93z"/><path d="m23.13 26.98-1.3-.34-.33.34.33.35z"/><path d="m20.68 26.98-.33-.34-1.3.34 1.3.35z"/><path d="m21.44 26.31-.35-1.3-.34 1.3.34.33z"/><path d="m20.95 27.3-1.25 2.93h.8l.45.68h.24l.43-.68h.87l-1.3-2.93z"/><path d="m13.41 41.49.33.34 1.3-.34-1.3-.35z"/><path d="m10.96 41.49 1.3.34.33-.34-.33-.35z"/><path d="m12.65 40.82.35.33.35-.33-.35-1.31z"/><path d="m21.5 41.49.33.34 1.3-.34-1.3-.35z"/><path d="m19.05 41.49 1.3.34.33-.34-.33-.35z"/><path d="m20.75 40.82.34.33.35-.33-.35-1.31z"/></g><path d="m22.72 21.57-7.33-5.97v5.98h.87 1.55 6.54 1.41.01l-1.41-.01z" fill="#e81c27"/><path d="m18.89 9.31h6.88.01v-5.6l-.01.02z" fill="#e81c27"/><path d="m18.91 13.4 6.86 5.55.01.01v1.47-7.03h-.01z" fill="#e81c27"/><path d="m3.9 21.5-.04.08h4.31 1.55 1.52l-.01-6.04z" fill="#e81c27"/><path d="m25.78 2.65v.46z" fill="#e81c27"/><path d="m25.78 20.43v-1.47l-.01-.01-6.86-5.55-3.53.01.01 2.19 7.33 5.97h1.64l1.41.01h.01.01v-.25z" fill="#529320"/><path d="m25.78 3.11v-.46h-.01c-3.54.75-6.85 2.13-9.81 4-.2.12-.39.24-.58.37v.1 2.19h3.51l6.88-5.59.02-.01v-.01z" fill="#529320"/><path d="m8.46 13.41c-1.91 2.42-3.46 5.14-4.56 8.09l7.33-5.96v-2.13z" fill="#529320"/><path d="m53.3 48.18c-3.12-1.81-3.29-1.62-4.07-.71-.1.11-.39.42-.76.73-.44.37-1 .73-1.5.73-.81 0-2.73-.97-2.95-1.08-1.88-.98-2.7-.95-3.02-.85-.13.04-.3.13-.45.42-.35.64-.84 1.38-1.71 1.6-1.08.28-2.27-.29-4.21-1.52-1.78-1.13-2.49-1.03-3.84-.14-1.5.99-1.89 1.05-3.49.49-.68-.25-1.18-.52-1.53-.81h-.01v.55h.01c.32.4.92.76 1.8 1.08 1.6.56 1.99.5 3.49-.49 1.35-.89 2.06-.99 3.84.14 1.95 1.23 3.13 1.8 4.21 1.52.87-.23 1.36-.97 1.71-1.6.15-.29.32-.38.45-.42.32-.1 1.14-.13 3.02.84.21.11 2.13 1.08 2.95 1.08.71 0 1.55-.73 1.99-1.18.12-.12.22-.23.27-.28.79-.91.95-1.1 4.07.71.92.54 1.67.93 2.31 1.15.16-.21.31-.42.46-.63-.78-.1-1.75-.56-3.04-1.33z" fill="#f5f5f5"/><path d="m32.67 51.69c.85-.11 1.41.03 2.54.67 2.16 1.25 3.07 1.33 4.52.44 1.72-1.03 2.42-1.22 3.76-.94 1.04.19 1.13.19.72-.17-.88-.8-2.6-.8-4.14 0-1.76.89-2.6.92-4.58.03-1.79-.81-2.45-.86-3.33-.28-.56.36-.49.39.51.25z" fill="#f5f5f5"/><path d="m49.89 52.5c-1.44-.33-1.57-.11-.31.56 1.03.54 1.95.6 3.64.16.42-.42.83-.87 1.23-1.31-2.05.66-3.47.85-4.56.59z" fill="#f5f5f5"/><path d="m47.44 55.89c-1.47 1.2-2.42 1.22-3.95.14-1.41-1-2.35-1.03-4.23-.14-1.07.5-1.29.7-.88.83.28.11.94-.03 1.47-.25 1.38-.64 2.07-.56 3.83.53.88.53 1.72.97 1.85.97s.81-.39 1.54-.83c1.42-.91 2.11-1.26 2.98-1.18.26-.19.51-.39.76-.6-1.63-.62-2.07-.52-3.37.53z" fill="#f5f5f5"/><path d="m41.61 59.25c-1.19-.92-2.42-.92-4.24 0-1.66.83-2.23.75-4.3-.72-1.72-1.19-1.79-1.22-2.76-.81-.38.17-.85.53-1.04.83-.38.5-.35.53.22.28.78-.39 2.13-.39 2.38 0 .13.17.78.67 1.47 1.11 1.63 1.03 2.98 1.06 4.64.08 1.26-.72 2.1-.78 3.92-.25.46.15.4-.02-.29-.52z" fill="#f5f5f5"/><path d="m20.59 59.47c-.29-.1-.17-.39.03-.45.3-.09.62.19 1.38.15.19-.01.44-.04.44-.42 0-.55-.43-.95-1.78-.73-1.14.18-1.95.16-2.58.06-.02.2-.02.36.01.49.76.4 1.53.77 2.32 1.1.01-.07.05-.15.18-.2z" fill="#e81c27"/><path d="m3.72 42.01c.65 1.84 1.48 3.6 2.46 5.26.51.48 3.2 3.52 2.55 3.66 1.66 2.04 3.58 3.85 5.71 5.39.23-.04 7.29 3.6 7.05 3.79 1.38.52 2.81.93 4.27 1.24v-13.76-.55-.76-1-3.28h-22.04z" fill="#e81c27"/><path d="m23.5 48.55c-.09-.23-.16-.32-.49-.21-.81.25-3.03.11-3.73-.32 1.06.38 2.41-.43 2.41-1.11 0-.75-1.05-1.37-3.17-.96-2.13.41-4.71.23-4.71-.38 0-.62 1.86-.71 2.81-.58s1.63.21 3.42-.34c-.44.15-1.86.19-2.98-.09s-3.88-.28-3.9 1.03c-.03 1.31 2.94 1.19 5.49.86 1.49-.19 2.27-.06 2.27.37 0 .41-1.36.58-2.41.47s-2.13-.12-3.37.24c-2.22.65-4.78.17-5.45-.77.05-.1.08-.21.08-.4v-.01c.16-.14.31-.42.38-.62.15-.47-.06-.48-.66-.27-.21-.18-.56-.29-1.16-.29-.59 0-.95.11-1.16.29-.62-.21-.82-.2-.67.27.06.2.22.49.38.62v.01c0 .72.9 1.79.88 1.83-.5-.04-1.06-.43-1.57-.91.46.77.95 1.51 1.46 2.24.11.16.22.32.34.48.24.32.49.63.74.94.66-.13 1.33-.41 1.96-.91.39.01 3.11-.08 4.16-.65.7.71.81.63 1.43.73.64.11 1.02.11.6.42-.15.11-.76.06-1.23.07-1.06.04-1.55-.65-1.86-.29-.24.27-.03.4.41.41-.34 0-.72.02-.64.28.14.51.69-.09.9.11-.18-.04-.47.06-.48.21s.41.35.87.03c.25-.18.56-.24.76-.24.75.01 2.44.34 2.99-.2.22-.21-.06-.39-.28-.58-.21-.19-.26-.45-.22-.87.63.1 1.44.12 2.58-.06 1.35-.22 1.78.18 1.78.73 0 .38-.25.41-.44.42-.76.04-1.08-.25-1.38-.16-.2.06-.32.35-.03.45-.24.11-.21.3-.09.38s.44.01.65-.08c-.28.11-.56.3-.4.51.1.13.35.23.58-.04s.67-.43.93-.46c1.12-.1 1.63-1.6 1.22-2.6z" fill="#ffe12c"/><path d="m23.5 57.19c-.09-.23-.16-.32-.49-.21-.81.25-3.03.11-3.73-.32 1.06.38 2.41-.43 2.41-1.1 0-.75-1.05-1.37-3.17-.96-2.13.41-4.71.24-4.71-.38s1.86-.71 2.81-.58 1.63.21 3.42-.35c-.44.15-1.86.2-2.98-.08s-3.88-.28-3.9 1.03c-.03 1.31 2.94 1.19 5.49.86 1.49-.19 2.27-.06 2.27.37 0 .41-1.36.58-2.41.47s-2.13-.12-3.37.24c-.23.07-.46.11-.69.16 1.16.84 2.38 1.6 3.65 2.27-.03-.13-.03-.29-.01-.49.63.1 1.44.11 2.58-.06 1.35-.22 1.78.18 1.78.73 0 .38-.25.41-.44.42-.76.04-1.08-.25-1.38-.15-.2.06-.32.35-.03.45-.13.06-.17.14-.17.21.14.06.29.12.44.17l.07.03c.19.07.38.15.56.22.24-.18.56-.3.78-.32 1.12-.13 1.63-1.63 1.22-2.63z" fill="#ffe12c"/><circle cx="32" cy="32" fill="url(#a)" opacity=".1" r="30"/></svg>