<svg enable-background="new 0 0 64 64" height="64" viewBox="0 0 64 64" width="64" xmlns="http://www.w3.org/2000/svg" xmlns:xlink="http://www.w3.org/1999/xlink"><linearGradient id="a" gradientUnits="userSpaceOnUse" x1="32" x2="32" y1="62" y2="2"><stop offset="0" stop-color="#1a1a1a"/><stop offset=".102" stop-color="#393939" stop-opacity=".949"/><stop offset=".3475" stop-color="#7f7f7f" stop-opacity=".8262"/><stop offset=".5688" stop-color="#b6b6b6" stop-opacity=".7156"/><stop offset=".7582" stop-color="#dedede" stop-opacity=".6209"/><stop offset=".9081" stop-color="#f6f6f6" stop-opacity=".5459"/><stop offset="1" stop-color="#fff" stop-opacity=".5"/></linearGradient><path d="m32 62c5.88 0 11.37-1.7 16-4.63v-50.74c-4.63-2.93-10.12-4.63-16-4.63s-11.37 1.7-16 4.63v50.74c4.63 2.93 10.12 4.63 16 4.63z" fill="#ffe12c"/><path d="m16 6.63c-8.41 5.31-14 14.69-14 25.37s5.59 20.06 14 25.37z" fill="#014d87"/><g fill="#529320"><path d="m48 57.37c8.41-5.31 14-14.69 14-25.37s-5.59-20.06-14-25.37z"/><path d="m24.77 17.92-6.02 10.35 6.02 10.35 6.03-10.35z"/><path d="m39.23 17.92-6.02 10.35 6.02 10.35 6.02-10.35z"/><path d="m25.98 41.73 6.02 10.35 6.02-10.35-6.02-10.35z"/></g><circle cx="32" cy="32" fill="url(#a)" opacity=".1" r="30"/></svg>