<svg enable-background="new 0 0 64 64" height="64" viewBox="0 0 64 64" width="64" xmlns="http://www.w3.org/2000/svg" xmlns:xlink="http://www.w3.org/1999/xlink"><linearGradient id="a" gradientUnits="userSpaceOnUse" x1="32" x2="32" y1="62" y2="2"><stop offset="0" stop-color="#1a1a1a"/><stop offset=".102" stop-color="#393939" stop-opacity=".949"/><stop offset=".3475" stop-color="#7f7f7f" stop-opacity=".8262"/><stop offset=".5688" stop-color="#b6b6b6" stop-opacity=".7156"/><stop offset=".7582" stop-color="#dedede" stop-opacity=".6209"/><stop offset=".9081" stop-color="#f6f6f6" stop-opacity=".5459"/><stop offset="1" stop-color="#fff" stop-opacity=".5"/></linearGradient><path d="m32 2c-10.26 0-19.3 5.15-24.71 13h49.43c-5.42-7.85-14.46-13-24.72-13z" fill="#014d87"/><path d="m32 62c10.26 0 19.3-5.15 24.71-13h-49.42c5.41 7.85 14.45 13 24.71 13z" fill="#014d87"/><path d="m59.04 19h-54.08c-1.9 3.93-2.96 8.34-2.96 13s1.06 9.07 2.96 13h54.09c1.89-3.93 2.95-8.34 2.95-13s-1.06-9.07-2.96-13z" fill="#e81c27"/><path d="m4.96 45c.67 1.4 1.46 2.73 2.33 4h49.43c.87-1.27 1.66-2.6 2.33-4z" fill="#ffe12c"/><path d="m59.04 19c-.67-1.4-1.46-2.73-2.33-4h-49.42c-.87 1.27-1.66 2.6-2.33 4z" fill="#ffe12c"/><path d="m58.41 31.56h-52.82c-.26 0-.47.2-.47.44s.21.44.47.44h52.83c.26 0 .47-.2.47-.44-.01-.24-.22-.44-.48-.44z" fill="#ffe12c"/><path d="m12.44 28.49h38.82l1.79.58 2.69-.88-2.69-.88-1.79.58h-.57-.31-.31-37.63c-.19 0-.34.13-.34.29 0 .18.15.31.34.31z" fill="#ffe12c"/><path d="m9.91 30.25h37.61.31.31.01.57l1.79.59 2.69-.88-2.69-.88-1.79.58h-38.81c-.19 0-.34.13-.34.29 0 .17.15.3.34.3z" fill="#ffe12c"/><path d="m47.52 32c-3.16 2.92-7.38 8.77-15.81 8.77-7.38 0-4.93-8.77-4.93-8.77s-2.46-8.77 4.93-8.77c8.43 0 12.64 5.85 15.81 8.77z" fill="#f5f5f5"/><path d="m30.6 26.28c.84.88.14 1.23 1.03 1.29.94.06.41.92 1.2.95.55.02-.05 2.06.48 2.73.54.7 1 .21 1.01.71.01.52-1.47.47-1.5 2.09-.04.93-1.25.99-1.31 1.59-.07.56 2.38.88 2.35 1.38s-2.65.42-2.76 1c-.06.51 3.59.94 3.89 2.42-.54.16-2.1.32-3.27.32-7.38.01-12.65-5.84-15.81-8.77 3.16-2.92 8.43-8.77 15.81-8.77-.01.01-2.2 1.86-1.12 3.06z" fill="#302c3b"/><g fill="#f5f5f5"><path d="m21.79 28.88h.77v2.34h-.77z"/><path d="m21.79 32.78h.77v2.34h-.77z"/><path d="m23.33 28.88h.77v2.34h-.77z"/><path d="m23.33 32.78h.77v2.34h-.77z"/><path d="m24.86 28.88h.77v2.34h-.77z"/><path d="m24.86 32.78h.77v2.34h-.77z"/><path d="m26.39 28.88h.77v2.34h-.77z"/><path d="m26.39 32.78h.77v2.34h-.77z"/><path d="m27.93 28.88h.77v2.34h-.77z"/><path d="m27.93 32.78h.77v2.34h-.77z"/><path d="m29.46 28.88h.77v2.34h-.77z"/><path d="m29.46 32.78h.77v2.34h-.77z"/></g><path d="m33.39 28.88h.77v2.34h-.77z" fill="#302c3b"/><path d="m33.39 32.78h.77v2.34h-.77z" fill="#302c3b"/><path d="m34.93 28.88h.77v2.34h-.77z" fill="#302c3b"/><path d="m34.93 32.78h.77v2.34h-.77z" fill="#302c3b"/><path d="m36.46 28.88h.77v2.34h-.77z" fill="#302c3b"/><path d="m36.46 32.78h.77v2.34h-.77z" fill="#302c3b"/><path d="m37.99 28.88h.77v2.34h-.77z" fill="#302c3b"/><path d="m37.99 32.78h.77v2.34h-.77z" fill="#302c3b"/><path d="m39.53 28.88h.77v2.34h-.77z" fill="#302c3b"/><path d="m39.53 32.78h.77v2.34h-.77z" fill="#302c3b"/><path d="m41.06 28.88h.77v2.34h-.77z" fill="#302c3b"/><path d="m41.06 32.78h.77v2.34h-.77z" fill="#302c3b"/><path d="m29.25 25.84c-3.78-2.62-4.93 1.15-4.62 2.84.46-.55 2.78 1.64 4.23 1.84-1.12-.82 2.31-3.34.39-4.68-1.89-1.31.35.24 0 0z" fill="#014d87"/><path d="m56.48 36.29c2.79-3.53-1.31-4.54-3.13-4.24.6.42-1.75 2.59-1.94 3.93.87-1.04 3.64 2.1 5.07.31 1.39-1.76-.26.32 0 0z" fill="#014d87"/><path d="m9.21 31.76c-4.64.83-2.39 4.14-.83 5.07-.13-.68 3.19-.8 4.32-1.66-1.41.22-1.13-3.82-3.49-3.41-2.32.42.43-.07 0 0z" fill="#014d87"/><circle cx="32" cy="32" fill="url(#a)" opacity=".1" r="30"/></svg>