<svg enable-background="new 0 0 64 64" height="64" viewBox="0 0 64 64" width="64" xmlns="http://www.w3.org/2000/svg" xmlns:xlink="http://www.w3.org/1999/xlink"><linearGradient id="a" gradientUnits="userSpaceOnUse" x1="31.9995" x2="31.9995" y1="2" y2="62.0005"><stop offset="0" stop-color="#f90"/><stop offset=".2875" stop-color="#ff9500"/><stop offset=".5853" stop-color="#f80"/><stop offset=".8868" stop-color="#ff7400"/><stop offset="1" stop-color="#ff6a00"/></linearGradient><path d="m2 32c0-16.564 13.439-30 30-30 16.572 0 30 13.436 30 30 0 16.57-13.428 30-30 30-16.561 0-30-13.43-30-30z" fill="url(#a)"/><path d="m41.715 41.965c.697 0 1.086.389 1.086 1.086v3.863c0 .697-.389 1.086-1.086 1.086h-19.429c-.698 0-1.087-.389-1.087-1.086v-3.189c0-.514.127-.891.389-1.336l12.938-20.354h-11.954c-.698 0-1.087-.389-1.087-1.086v-3.862c0-.697.389-1.086 1.087-1.086h18.856c.697 0 1.086.389 1.086 1.086v3.188c0 .514-.126.891-.389 1.337l-12.937 20.353z" fill="#fff"/></svg>