<svg enable-background="new 0 0 64 64" height="64" viewBox="0 0 64 64" width="64" xmlns="http://www.w3.org/2000/svg" xmlns:xlink="http://www.w3.org/1999/xlink"><linearGradient id="a" gradientUnits="userSpaceOnUse" x1="32" x2="32" y1="62" y2="2"><stop offset="0" stop-color="#1a1a1a"/><stop offset=".102" stop-color="#393939" stop-opacity=".949"/><stop offset=".3475" stop-color="#7f7f7f" stop-opacity=".8262"/><stop offset=".5688" stop-color="#b6b6b6" stop-opacity=".7156"/><stop offset=".7582" stop-color="#dedede" stop-opacity=".6209"/><stop offset=".9081" stop-color="#f6f6f6" stop-opacity=".5459"/><stop offset="1" stop-color="#fff" stop-opacity=".5"/></linearGradient><path d="m53.42 53h-42.04s25.99-29.38 42.36-38.18c0 0-11.85 21.52 2.97 34.19 3.33-4.83 5.29-10.69 5.29-17.01 0-16.57-13.43-30-30-30s-30 13.43-30 30c0 9.81 4.71 18.53 12 24h36c1.21-.91 2.35-1.92 3.42-3z" fill="#014d87"/><path d="m32 62c4.69 0 9.13-1.08 13.09-3h-26.18c3.96 1.92 8.4 3 13.09 3z" fill="#014d87"/><path d="m53.74 14.82c-16.37 8.8-42.36 38.18-42.36 38.18h42.04c1.21-1.23 2.31-2.57 3.29-3.99-14.82-12.67-2.97-34.19-2.97-34.19z" fill="#ffe12c"/><path d="m14 56c1.53 1.15 3.18 2.16 4.91 3h26.17c1.74-.84 3.38-1.85 4.91-3z" fill="#ffe12c"/><g fill="#f5f5f5"><path d="m18.49 10.28.55 1.68h1.78l-1.44 1.05.55 1.69-1.44-1.05-1.43 1.05.55-1.69-1.44-1.05h1.78z"/><path d="m27.14 18.14.49 1.49h1.56l-1.27.91.49 1.49-1.27-.92-1.26.92.48-1.49-1.27-.91h1.57z"/><path d="m8.3 20.5.54 1.68h1.76l-1.42 1.03.54 1.68-1.42-1.04-1.43 1.04.55-1.68-1.43-1.03h1.76z"/><path d="m18.45 33.3.65 1.98h2.08l-1.68 1.22.64 1.98-1.69-1.22-1.68 1.22.64-1.98-1.68-1.22h2.08z"/></g><circle cx="32" cy="32" fill="url(#a)" opacity=".1" r="30"/></svg>