<svg enable-background="new 0 0 64 64" height="64" viewBox="0 0 64 64" width="64" xmlns="http://www.w3.org/2000/svg" xmlns:xlink="http://www.w3.org/1999/xlink"><linearGradient id="a" gradientUnits="userSpaceOnUse" x1="32" x2="32" y1="62" y2="2.0001"><stop offset="0" stop-color="#1a1a1a"/><stop offset=".102" stop-color="#393939" stop-opacity=".949"/><stop offset=".3475" stop-color="#7f7f7f" stop-opacity=".8262"/><stop offset=".5688" stop-color="#b6b6b6" stop-opacity=".7156"/><stop offset=".7582" stop-color="#dedede" stop-opacity=".6209"/><stop offset=".9081" stop-color="#f6f6f6" stop-opacity=".5459"/><stop offset="1" stop-color="#fff" stop-opacity=".5"/></linearGradient><path d="m6.01 47c1.94 3.37 4.44 6.2 7.31 8.48l48.36-27.92c-.54-3.63-1.75-7.21-3.69-10.57-1.94-3.37-4.44-6.21-7.31-8.48l-48.36 27.92c.54 3.62 1.75 7.21 3.69 10.57z" fill="#302c3b"/><path d="m19.09 59.09 42.82-24.72c.18-2.25.1-4.53-.23-6.8l-48.36 27.92c1.8 1.43 3.73 2.63 5.77 3.6z" fill="#ffe12c"/><path d="m2.32 36.43 48.36-27.92c-1.79-1.43-3.73-2.63-5.77-3.6l-42.82 24.72c-.18 2.25-.11 4.53.23 6.8z" fill="#ffe12c"/><path d="m44.9 4.92c-8.61-4.1-19.02-4.04-27.9 1.09-8.89 5.13-14.15 14.11-14.91 23.62z" fill="#529320"/><path d="m19.1 59.08c8.61 4.1 19.02 4.03 27.91-1.1 8.88-5.13 14.14-14.11 14.9-23.62z" fill="#e81c27"/><path d="m21.99 40.11 4.58.58-3.48-3.23 1.77-4.27-3.93 2.25-3.49-3.21 1.04 4.63-3.92 2.28 4.57.6 1.07 4.63z" fill="#f5f5f5"/><path d="m44.03 27.39 4.58.58-3.47-3.24 1.76-4.27-3.93 2.26-3.49-3.22 1.04 4.63-3.92 2.28 4.58.61 1.07 4.62z" fill="#f5f5f5"/><circle cx="32" cy="32" fill="url(#a)" opacity=".1" r="30"/></svg>