<svg enable-background="new 0 0 64 64" height="64" viewBox="0 0 64 64" width="64" xmlns="http://www.w3.org/2000/svg" xmlns:xlink="http://www.w3.org/1999/xlink"><linearGradient id="a" gradientUnits="userSpaceOnUse" x1="32" x2="32" y1="62" y2="2"><stop offset="0" stop-color="#1a1a1a"/><stop offset=".102" stop-color="#393939" stop-opacity=".949"/><stop offset=".3475" stop-color="#7f7f7f" stop-opacity=".8262"/><stop offset=".5688" stop-color="#b6b6b6" stop-opacity=".7156"/><stop offset=".7582" stop-color="#dedede" stop-opacity=".6209"/><stop offset=".9081" stop-color="#f6f6f6" stop-opacity=".5459"/><stop offset="1" stop-color="#fff" stop-opacity=".5"/></linearGradient><path d="m10.79 41.99v11.22c5.42 5.43 12.92 8.79 21.21 8.79 12.3 0 22.86-7.4 27.49-18h-47.73c-.36-.66-.68-1.33-.97-2.01z" fill="#ffe12c"/><path d="m11.76 20h47.74c-4.64-10.6-15.2-18-27.5-18-8.29 0-15.79 3.36-21.21 8.79v11.22c.29-.68.61-1.35.97-2.01z" fill="#529320"/><path d="m62 32c0-2.78-.39-5.45-1.1-8h-50.11v16h50.11c.71-2.55 1.1-5.22 1.1-8z" fill="#302c3b"/><path d="m10.79 22.01v.01z" fill="#302c3b"/><path d="m10.79 41.98v.01z" fill="#302c3b"/><g fill="#f5f5f5"><path d="m10.03 24h.76v-1.98c-.28.65-.54 1.31-.76 1.98z"/><path d="m10.03 40c.23.67.48 1.33.76 1.98v-1.98z"/><path d="m60.29 22.01c-.24-.68-.51-1.35-.8-2.01h-47.73c-.35.66-.67 1.33-.96 2.01v1.99h50.1c-.19-.67-.38-1.34-.61-1.99z"/><path d="m60.29 41.99c.23-.65.43-1.32.61-1.99h-50.11v1.98.01c.29.68.61 1.35.96 2.01h47.74c.29-.66.56-1.33.8-2.01"/></g><path d="m10.79 10.79c-5.43 5.42-8.79 12.92-8.79 21.21 0 8.28 3.36 15.78 8.79 21.21l21.21-21.21z" fill="#e81c27"/><path d="m20.65 42.02-6.52-4.77-6.51 4.77 2.52-7.67-6.54-4.72 8.07.03 2.46-7.68 2.47 7.69 8.07-.04-6.55 4.72z" fill="#ffe12c"/><path d="m8.48 36.67h4.69c.38.42 1.22.6 2.02 0 1.47-.81 4.32 0 4.32 0l.56-.6-1.37-4.48-.49-.52s-1.05-.63-3.05-.42-2.7-.07-2.7-.07-1.75.21-2.24.46c-.05.04-.56.56-.56.56z" fill="#f5f5f5"/><path d="m5.43 37.21 1.1 1.29c.13.08.25.07.36 0l1.63-1.96.69-.85c.11-.13.14-.27.13-.39l1.31-1.17c.11.01.17.02.28.03-.13-.03-.22-.1-.12-.23l.29-.23.23.29s-.33.43-.36.43-.36 0-.36 0l-.69.62.3.27.45 1.24.56-.39-.36-1.28.79-.85-.29-.46.2-.26s2.72 1.71 3.76 1.25c.03.01.06-1.22.06-1.22s-2.81-.29-2.88-.85.62-.62.62-.62l-.29-.43.07-.23.49.62 1.11-.95 6.54 7.46c.36-.14.44-.23.46-.59-.01-.01-6.41-7.36-6.41-7.36l.49-.52c.1-.11.13-.15.13-.33l.75-.66c.23.08.37.21.49.39l2.07-1.75c.05.05.22.11.33.05l3.42-3.28-3.73 2.63-.13-.1c0-.11.13-.13 0-.33-.14-.17-.36.16-.39.16s-.54-.18-.65-.41l-.04.6-.95.88-.72-.03-1.05 1.02-.13.39.16.33s-.55.49-.55.46-.11-.14-.12-.16l.48-.43.07-.29-.16-.25c-.05.04-.66.67-.69.61-.05-.06-1.77-1.99-1.77-1.99l.1-.36-1.11-1.21c-.4-.14-1.05-.17-1.18.72-.1.21-.95.03-.95.03l-.46.1-2.59 3.66 1.44 1.73 2.94-3.73.09-1.06.62.69c.21.03.4.03.59-.07l1.74 1.95-.29.29c.1.11.17.18.26.29.1-.07.19-.14.29-.21.03.04.09.13.12.17-.15.08-.25.19-.39.27-.23-.15-.46-.34-.44-.64l-.98.82-.03.16-2.9 2.42-.26.03-.06.75 1.9-1.57v-.23l.2.16 1.47-1.18s.1.13.06.13c-.03 0-1.31 1.18-1.31 1.18l-.03.13-.24.2-.13-.1-1.77 1.57h-.25l-.98.98c-.25.02-.47.05-.69.2z" fill="#302c3b"/><circle cx="32" cy="32" fill="url(#a)" opacity=".1" r="30"/></svg>