<svg enable-background="new 0 0 64 64" height="64" viewBox="0 0 64 64" width="64" xmlns="http://www.w3.org/2000/svg" xmlns:xlink="http://www.w3.org/1999/xlink"><linearGradient id="a" gradientUnits="userSpaceOnUse" x1="32" x2="32" y1="62" y2="2"><stop offset="0" stop-color="#1a1a1a"/><stop offset=".102" stop-color="#393939" stop-opacity=".949"/><stop offset=".3475" stop-color="#7f7f7f" stop-opacity=".8262"/><stop offset=".5688" stop-color="#b6b6b6" stop-opacity=".7156"/><stop offset=".7582" stop-color="#dedede" stop-opacity=".6209"/><stop offset=".9081" stop-color="#f6f6f6" stop-opacity=".5459"/><stop offset="1" stop-color="#fff" stop-opacity=".5"/></linearGradient><path d="m32 2c-6.16 0-11.88 1.86-16.65 5.04h33.29c-4.76-3.18-10.48-5.04-16.64-5.04z" fill="#529320"/><path d="m32 62c6.16 0 11.88-1.86 16.65-5.04h-33.3c4.77 3.18 10.49 5.04 16.65 5.04z" fill="#529320"/><path d="m7.05 47.04h50.9c1.78-3.06 3.03-6.46 3.63-10.08h-58.17c.61 3.62 1.86 7.02 3.64 10.08z" fill="#e81c27"/><path d="m3 32c0 1.72.15 3.4.43 5.04h58.14c.28-1.64.43-3.32.43-5.04s-.15-3.4-.43-5.04h-58.14c-.28 1.64-.43 3.32-.43 5.04z" fill="#302c3b"/><path d="m3.41 27.04h58.17c-.6-3.62-1.86-7.02-3.63-10.08h-50.9c-1.78 3.06-3.03 6.46-3.64 10.08z" fill="#e81c27"/><path d="m12.3 17.04h45.7c-2.34-4.05-5.59-7.51-9.49-10.08h-33.03c-1.12.74-2.17 1.56-3.18 2.43z" fill="#ffe12c"/><path d="m12.3 46.96v7.65c1.01.88 2.06 1.7 3.18 2.43h33.03c3.89-2.57 7.15-6.03 9.49-10.08z" fill="#ffe12c"/><path d="m12.63 12.2h-3.15c-4.65 5.29-7.48 12.21-7.48 19.8 0 7.75 2.94 14.8 7.76 20.12h2.54l20.13-20.12z" fill="#f5f5f5"/><path d="m12.3 9.38c-1.01.88-1.95 1.82-2.84 2.82l19.8 19.8-19.79 19.79c.88 1 1.83 1.95 2.84 2.82l22.61-22.61z" fill="#302c3b"/><path d="m17.46 33.93 5.38-4.52-6.34-1.06-3.29-6.66-3.28 6.66-6.34 1.06 5.38 4.52-1.4 6.7 5.64-3.22 5.65 3.22z" fill="#e81c27"/><path d="m11.34 30.11c.69 1.5.86 1.6 2.59 2.19s6.6 1.15 7.08 1.21c-.31-.31-5.8-4.38-6.93-5.19s-1.44-1.18-1.44-1.18-1.01-1.83-1.37-2.37c-.35-.54-1-1.3-1.85-1.3s-1.37.5-1.61 1.39c-.14.04-.86.48-.84.94.21-.03 1.53-.39 1.98 1.09.46 1.49.48 3.93.01 5.14s-1.2 2.12-1.2 3.18c0 .15.1.44.34.44.09.47.78 3.81.78 3.81h9.83l1.56-6.04" fill="#ffe12c"/><path d="m11.34 30.11c.69 1.5.86 1.6 2.59 2.19s6.6 1.15 7.08 1.21c-.31-.31-5.8-4.38-6.93-5.19s-1.44-1.18-1.44-1.18-1.01-1.83-1.37-2.37c-.35-.54-1-1.3-1.85-1.3s-1.37.5-1.61 1.39c-.14.04-.86.48-.84.94.21-.03 1.53-.39 1.98 1.09.46 1.49.48 3.93.01 5.14s-1.2 2.12-1.2 3.18c0 .15.1.44.34.44.09.47.78 3.81.78 3.81h9.83l1.56-6.04" fill="#ffe12c"/><path d="m18.72 39.56h-9.83c-.05 0-.09-.03-.1-.08-.01-.03-.64-3.07-.76-3.74-.25-.06-.36-.36-.36-.53 0-.72.33-1.38.68-2.08.18-.36.36-.73.52-1.13.45-1.16.44-3.57-.01-5.07-.39-1.29-1.45-1.1-1.8-1.04-.04 0-.06.01-.08.01-.03 0-.05-.01-.08-.02-.02-.02-.03-.04-.04-.07-.03-.49.63-.91.85-1.02.27-.94.84-1.41 1.7-1.41.87 0 1.53.73 1.93 1.34.35.53 1.33 2.29 1.37 2.37s.34.37 1.41 1.15c1.07.77 6.62 4.88 6.94 5.2.03.03.04.08.02.12s-.06.06-.1.06c-.09-.01-.32-.04-.64-.08l-1.54 5.95c.01.04-.03.07-.08.07zm-9.75-.2h9.67l1.51-5.85c-1.59-.2-4.91-.65-6.26-1.11-1.72-.59-1.94-.71-2.64-2.24-.02-.05 0-.11.05-.13s.11 0 .13.05c.68 1.48.82 1.56 2.53 2.14 1.5.52 5.47 1.02 6.72 1.17-1.13-.89-5.54-4.16-6.67-4.97-1.12-.81-1.45-1.18-1.46-1.2-.02-.04-1.03-1.85-1.38-2.38-.3-.47-.94-1.25-1.76-1.25-.78 0-1.27.43-1.52 1.31-.01.04-.04.06-.07.07-.11.03-.66.37-.75.72 1.02-.16 1.68.24 1.97 1.19.47 1.53.47 4.01.01 5.2-.16.41-.35.79-.53 1.15-.35.71-.66 1.32-.66 1.99 0 .1.07.34.25.34.05 0 .09.03.1.08.08.42.66 3.21.76 3.72z" fill="#302c3b"/><path d="m8.11 35.65s2.1-.12 2.66-.12c.57 0 5.84.01 8.79.69" fill="#ffe12c"/><path d="m19.56 36.32c-.01 0-.01 0-.02 0-2.81-.65-7.79-.69-8.76-.69-.56 0-2.63.12-2.66.12-.06 0-.1-.04-.11-.09 0-.06.04-.1.09-.11.09-.01 2.11-.12 2.67-.12.97 0 5.97.03 8.81.69.05.01.09.07.08.12s-.06.08-.1.08z" fill="#302c3b"/><path d="m8.85 35.61s-.21-.25-.08-.76 1.61-1.81 1.61-3.66" fill="#ffe12c"/><path d="m8.85 35.71c-.03 0-.06-.01-.08-.04-.01-.01-.24-.3-.09-.85.04-.17.2-.38.41-.68.48-.67 1.2-1.68 1.2-2.96 0-.06.04-.1.1-.1s.1.04.1.1c0 1.34-.75 2.38-1.24 3.07-.18.26-.34.48-.38.61-.12.44.05.66.06.67.03.04.03.11-.02.14-.01.04-.03.04-.06.04z" fill="#302c3b"/><path d="m10.12 35.53s-.17-.82 1.71-1.53c.53-.16 2.04-1.01 2.09-1.7" fill="#ffe12c"/><path d="m10.12 35.63c-.05 0-.09-.03-.1-.08-.01-.04-.17-.92 1.78-1.64.57-.17 1.99-1.01 2.03-1.62 0-.05.05-.09.1-.09h.01c.06 0 .1.05.09.11-.05.76-1.63 1.63-2.16 1.79-1.76.65-1.65 1.4-1.65 1.41.01.05-.03.11-.08.12-.01 0-.01 0-.02 0z" fill="#302c3b"/><path d="m11.63 34.08s4.62.02 8.28.76" fill="#ffe12c"/><path d="m19.92 34.94c-.01 0-.01 0-.02 0-3.61-.73-8.22-.76-8.26-.76-.06 0-.1-.05-.1-.1 0-.06.05-.1.1-.1.05 0 4.67.03 8.3.76.05.01.09.06.08.12-.01.05-.06.08-.1.08z" fill="#302c3b"/><path d="m12.79 33.53s1.59.05 1.85-.02.72-.27.9-.81" fill="#ffe12c"/><path d="m13.85 33.65c-.47 0-.97-.02-1.06-.02-.05 0-.1-.05-.1-.1s.05-.1.1-.1c.63.02 1.64.04 1.82-.02.29-.09.68-.28.83-.74.02-.05.08-.08.13-.06s.08.07.06.13c-.14.43-.48.73-.97.87-.11.03-.45.04-.81.04z" fill="#302c3b"/><path d="m13.73 33.55s.85-.44 1.02-1.02" fill="#ffe12c"/><path d="m13.73 33.65c-.04 0-.07-.02-.09-.05-.03-.05-.01-.11.04-.13.01 0 .81-.43.97-.96.02-.05.07-.08.12-.07s.08.07.07.12c-.18.61-1.03 1.06-1.07 1.08-.01.01-.02.01-.04.01z" fill="#302c3b"/><path d="m11.17 39.46s-.36-2.52-.44-3.93l.95.9 1-.88.86.92 1-.85.86.97.99-.84.79.92.99-.71 1.17 1.11" fill="#ffe12c"/><path d="m11.17 39.56c-.05 0-.09-.04-.1-.09 0-.03-.37-2.54-.44-3.94 0-.04.02-.08.06-.1s.08-.01.11.02l.88.84.93-.81c.04-.04.1-.03.14.01l.8.85.93-.79c.04-.04.1-.03.14.01l.79.89.91-.78c.04-.04.1-.03.14.01l.73.85.91-.66c.04-.03.09-.02.13.01l1.17 1.11c.04.04.04.1 0 .14s-.1.04-.14 0l-1.11-1.06-.92.66c-.04.03-.1.02-.13-.02l-.72-.84-.91.78c-.04.03-.1.03-.14-.01l-.79-.9-.92.79c-.04.03-.1.03-.14-.01l-.8-.85-.93.81c-.04.04-.1.03-.13 0l-.76-.73c.1 1.42.42 3.64.42 3.67.01.05-.03.11-.08.11-.02.03-.03.03-.03.03z" fill="#302c3b"/><path d="m19.13 37.88c-3.52-.51-8.23-.47-8.23-.47" fill="#ffe12c"/><path d="m19.13 37.97h-.01c-3.47-.5-8.17-.47-8.21-.47-.05 0-.1-.04-.1-.1 0-.05.04-.1.1-.1.04 0 4.76-.03 8.24.47.05.01.09.06.08.11-.01.06-.05.09-.1.09z" fill="#302c3b"/><path d="m9.27 28.7s2.86-1.37 3.37-1.56" fill="#ffe12c"/><path d="m9.27 28.79c-.04 0-.07-.02-.09-.06-.02-.05 0-.11.05-.13.12-.06 2.87-1.37 3.38-1.56.05-.02.11.01.13.06s-.01.11-.06.13c-.49.19-3.33 1.54-3.36 1.55s-.04.01-.05.01z" fill="#302c3b"/><path d="m10.81 36.53.96.88.87-.87.88.91.95-.85.87.92.99-.81.81.94.98-.75 1.03.91" fill="#ffe12c"/><path d="m19.15 37.91c-.02 0-.05-.01-.07-.03l-.97-.86-.92.7c-.04.03-.1.03-.14-.01l-.74-.87-.91.75c-.04.03-.1.03-.14-.01l-.81-.85-.88.78c-.04.04-.1.03-.14-.01l-.81-.83-.8.8c-.04.04-.1.04-.14 0l-.96-.88c-.04-.04-.04-.1-.01-.14.04-.04.1-.04.14-.01l.89.81.8-.8c.02-.02.04-.03.07-.03.03 0 .05.01.07.03l.81.84.88-.78c.04-.04.1-.03.14.01l.81.85.91-.75c.04-.03.1-.03.14.01l.75.87.91-.69c.04-.03.09-.03.13 0l1.03.91c.04.04.04.1.01.14 0 .04-.02.05-.05.05z" fill="#302c3b"/><circle cx="13.54" cy="34.87" fill="#ffe12c" r=".38"/><path d="m13.54 35.35c-.27 0-.48-.22-.48-.48 0-.27.22-.48.48-.48.27 0 .48.21.48.48 0 .26-.21.48-.48.48zm0-.77c-.16 0-.28.13-.28.28 0 .16.13.28.28.28.16 0 .28-.13.28-.28s-.12-.28-.28-.28z" fill="#302c3b"/><circle cx="15.15" cy="34.98" fill="#ffe12c" r=".38"/><path d="m15.15 35.46c-.27 0-.48-.22-.48-.48 0-.27.21-.48.48-.48s.48.21.48.48c0 .26-.21.48-.48.48zm0-.77c-.16 0-.28.13-.28.28 0 .16.13.28.28.28.16 0 .28-.13.28-.28s-.12-.28-.28-.28z" fill="#302c3b"/><circle cx="9.15" cy="24.66" fill="#ffe12c" r=".29"/><path d="m9.15 25.05c-.22 0-.39-.18-.39-.4s.18-.39.39-.39c.22 0 .39.18.39.39 0 .23-.17.4-.39.4zm0-.59c-.11 0-.2.09-.2.2s.09.2.2.2.19-.09.19-.2-.08-.2-.19-.2z" fill="#302c3b"/><circle cx="32" cy="32" fill="url(#a)" opacity=".1" r="30"/></svg>