<svg enable-background="new 0 0 64 64" height="64" viewBox="0 0 64 64" width="64" xmlns="http://www.w3.org/2000/svg" xmlns:xlink="http://www.w3.org/1999/xlink"><linearGradient id="a" gradientUnits="userSpaceOnUse" x1="32.0005" x2="32.0005" y1="62" y2="2.0005"><stop offset="0" stop-color="#1a1a1a"/><stop offset=".102" stop-color="#393939" stop-opacity=".949"/><stop offset=".3475" stop-color="#7f7f7f" stop-opacity=".8262"/><stop offset=".5688" stop-color="#b6b6b6" stop-opacity=".7156"/><stop offset=".7582" stop-color="#dedede" stop-opacity=".6209"/><stop offset=".9081" stop-color="#f6f6f6" stop-opacity=".5459"/><stop offset="1" stop-color="#fff" stop-opacity=".5"/></linearGradient><path d="m58.948 45.188c1.536-3.133 2.543-6.571 2.902-10.202-2.445-1.289-2.091-5.31 0-5.971-.359-3.631-1.366-7.069-2.902-10.202-2.251.113-3.793-2.387-2.657-4.408-4.669-6.435-11.827-10.941-20.064-12.103-1.488 2.728-6.926 2.582-8.454 0-8.238 1.162-15.396 5.668-20.065 12.103.843 1.562-.365 4.562-2.656 4.406-1.536 3.134-2.543 6.572-2.902 10.203 1.382.871 1.798 4.932 0 5.971.359 3.631 1.366 7.069 2.902 10.203 2.166-.18 3.833 2.362 2.656 4.406 4.669 6.436 11.827 10.941 20.064 12.104 1.55-2.794 6.862-2.794 8.455 0 8.236-1.163 15.396-5.669 20.064-12.104-1.365-2.065-.178-4.419 2.657-4.406z" fill="#e81c27"/><g fill="#ffe12c"><circle cx="32.001" cy="32" r="8.571"/><path d="m21.286 32c0-.359.019-.716.053-1.066l-19.19-1.919c-.098.981-.149 1.977-.149 2.985 0 1.007.051 2.003.148 2.985l19.19-1.919c-.033-.35-.052-.707-.052-1.066z"/><path d="m23.497 25.482-15.798-11.075c-1.002 1.381-1.889 2.852-2.646 4.396l17.199 8.745c.338-.737.757-1.43 1.245-2.066z"/><path d="m41.749 27.549 17.2-8.745c-.758-1.545-1.645-3.016-2.646-4.397l-15.799 11.075c.488.636.907 1.329 1.245 2.067z"/><path d="m61.854 29.015-19.191 1.919c.035.351.053.707.053 1.066s-.018.716-.053 1.066l19.191 1.919c.095-.982.146-1.978.146-2.985 0-1.008-.051-2.004-.146-2.985z"/><path d="m40.504 38.518 15.799 11.075c1.002-1.381 1.889-2.852 2.646-4.396l-17.2-8.745c-.338.737-.757 1.43-1.245 2.066z"/><path d="m22.252 36.451-17.199 8.745c.758 1.545 1.645 3.016 2.646 4.396l15.798-11.075c-.488-.635-.907-1.328-1.245-2.066z"/><path d="m32.001 42.714c-.364 0-.724-.018-1.078-.054l-3.16 19.036c1.384.197 2.799.304 4.238.304s2.853-.107 4.238-.304l-3.161-19.036c-.354.036-.714.054-1.077.054z"/><path d="m32.001 21.286c.363 0 .723.018 1.077.054l3.161-19.036c-1.385-.197-2.799-.304-4.238-.304s-2.854.107-4.238.304l3.16 19.036c.354-.036.714-.054 1.078-.054z"/></g><circle cx="32" cy="32" fill="url(#a)" opacity=".1" r="30"/></svg>