<svg enable-background="new 0 0 64 64" height="64" viewBox="0 0 64 64" width="64" xmlns="http://www.w3.org/2000/svg" xmlns:xlink="http://www.w3.org/1999/xlink"><linearGradient id="a" gradientUnits="userSpaceOnUse" x1="32.0005" x2="32.0005" y1="62" y2="2"><stop offset="0" stop-color="#1a1a1a"/><stop offset=".102" stop-color="#393939" stop-opacity=".949"/><stop offset=".3475" stop-color="#7f7f7f" stop-opacity=".8262"/><stop offset=".5688" stop-color="#b6b6b6" stop-opacity=".7156"/><stop offset=".7582" stop-color="#dedede" stop-opacity=".6209"/><stop offset=".9081" stop-color="#f6f6f6" stop-opacity=".5459"/><stop offset="1" stop-color="#fff" stop-opacity=".5"/></linearGradient><path d="m32 62c9.81 0 18.53-4.71 24-12l-48-36c-3.77 5.01-6 11.25-6 18 0 16.57 13.43 30 30 30z" fill="#302c3b"/><path d="m62 32c0-16.57-13.43-30-30-30-9.82 0-18.53 4.71-24 12l48 36c3.77-5.01 6-11.24 6-18z" fill="#e81c27"/><path d="m53.03 29.71c-.21-2.79-1.14-3.18-1.28-3.61s.23.11.54.23-.06-.6-.14-.92c-.09-.31.94.66 1.2.74.26.09-.6-2.35-.86-2.52s.26.06.43.11c.17.06-1.57-2.66-1.95-2.66-.37 0 .31-.14.52-.14.2 0-2-1.78-2.38-1.78-.37 0 .8-.46.92-.49.2.03-2.55-1.46-5.01.03-.14-.12 1.16-1.02 1.2-1.4.02-.1-.43-.31-.46-.43-.03-.11.69-.46.71-.71-.17-.23-.49-.14-.66-.2-.04-.21.6-.74.54-.97-.04-.13-.52-.17-.63-.09-.11.09.3-.6.23-.8-.06-.08-.29-.03-.51.03-.14-.03.74-1.26.57-1.43s-2.58 1.26-3.46 2.86c-.89 1.6-.2 2.89-.31 3.43-.12.54-.26 1.09-.63 1.09s-1.23-.57-1.52-.86-.34-.49-.74-.6c-.4-.12-1.32.23-1.66.26s-1.69-.26-1.78-.17 1.32.6 1.63.77c.32.17.34.4.57.54s2.38.77 1.69 1.66c-.48.63-1.63-.63-3.01-.66-1.37-.03-2.35 1.31-2.75 1.77s-1.69 2.86-1.66 3.12.8-.72 1.09-.89c.03.34-.31.74-.23.86.09.12 1-.69 1.32-.71.09.23-.17.46-.09.8.11.12.63-.57.97-.71.06.26-.31.74-.12 1.06.14.03 1-.97 1.29-1.09s-.14.95 0 1.03c.26-.17 1.06-1.09 1.31-1.2.26-.11-.03 1.17.09 1.17.32-.23 1.12-1.32 1.2-1.49.09-.17-.09 1.66.8 2.63s2.23 2.09 2.38 2.09c.17-.31-.06-.97.09-.94.4.43 1.14 1.06 1.32 1.06.17 0-.12-.69.11-.69.46.43 1.78 2.12 4.35 2.89-.17-.49-.54-.92-.57-1.14.17.03.77.31.89.29.12-.03-1.26-1.72-1.17-1.95.31-.03.46.17.57.03-.14-.23-1.35-1.57-1.35-1.89 0-.31.37.06.49 0s-.46-1.26-.34-1.4 1.37.77 1.69.77c.12 0 .16-.17.17-.38.85.7 2.52 2.03 3.66 3.72-.01.36-.06.74-.18 1.12-.86 2.09-2.58 3.21-5.09 2.29.14.23 1.49 1.35 2.95.94 1.23-.34 2.68-1.2 2.99-3.18.33.71.53 1.47.53 2.26 0 3.78-3.38 3.66-4.35 3.55 1.09.92 5.21.74 5.21-3.55.02-1.21-.55-2.44-1.33-3.55zm-4.37-4.15c0-.12.01-.21.05-.23.14-.06 1.2.6 1.43.6s.2-.49.29-.43c.06.04 1.38 1.35 1.78 3.17-1.31-1.5-2.86-2.66-3.55-3.11z" fill="#ffe12c"/><g fill="#f5f5f5"><path d="m19.37 41.24-.38-1.23-.38 1.23h-1.22l.99.74-.37 1.18.97-.72.99.75-.37-1.21.99-.74z"/><path d="m14.41 26.6-.73 2.34 1.93-1.43 1.98 1.5-.74-2.42 1.98-1.48h-2.44l-.75-2.46-.77 2.46h-2.43z"/><path d="m8.88 34.72-.76-2.46-.76 2.46h-2.44l1.97 1.49-.73 2.34 1.93-1.43 1.99 1.5-.75-2.42 1.99-1.48z"/><path d="m24.33 35.51 1.98-1.47h-2.44l-.75-2.47-.77 2.47h-2.43l1.97 1.49-.73 2.34 1.93-1.43 1.98 1.5z"/><path d="m16.39 47.7-.75-2.46-.77 2.46h-2.43l1.97 1.49-.73 2.35 1.93-1.44 1.98 1.5-.74-2.42 1.98-1.48z"/></g><circle cx="32" cy="32" fill="url(#a)" opacity=".1" r="30"/></svg>