<svg enable-background="new 0 0 64 64" height="64" viewBox="0 0 64 64" width="64" xmlns="http://www.w3.org/2000/svg" xmlns:xlink="http://www.w3.org/1999/xlink"><linearGradient id="a" gradientUnits="userSpaceOnUse" x1="32.0005" x2="32.0005" y1="62" y2="2.0005"><stop offset="0" stop-color="#1a1a1a"/><stop offset=".102" stop-color="#393939" stop-opacity=".949"/><stop offset=".3475" stop-color="#7f7f7f" stop-opacity=".8262"/><stop offset=".5688" stop-color="#b6b6b6" stop-opacity=".7156"/><stop offset=".7582" stop-color="#dedede" stop-opacity=".6209"/><stop offset=".9081" stop-color="#f6f6f6" stop-opacity=".5459"/><stop offset="1" stop-color="#fff" stop-opacity=".5"/></linearGradient><circle cx="32" cy="32" fill="#018bc9" r="30"/><g fill="#fff"><path d="m17.894 26.554c.325-.66.528-1.406.619-2.136-.121.312-.31.599-.568.844-1.086 1.031-2.371 2.048-2.617 3.511-.035.207-.055.424-.115.625l-.064-.047.136-1.813c.129-1.768-.802-3.732.223-5.29l-.082.034c-.93 1.187-1.549 2.484-1.549 4.078 0 1.967 1.131 3.34 1.272 5.186.288-1.926 1.905-3.295 2.745-4.992z"/><path d="m16.067 36.353.101.08c-.106-.736-.162-1.527.047-2.23.316-1.124.716-2.217.925-3.381.161-.904.35-1.92.241-2.799-.118.475-.243.939-.504 1.343-.985 1.526-2 3.317-1.31 5.255l-.063.033c-.276-.642-.34-1.369-.521-2.055-.479-1.82-1.877-3.341-1.467-5.443-.217.455-.305.971-.42 1.47-.242 1.285 0 2.651.35 3.833.439 1.479 1.888 2.537 2.621 3.894z"/><path d="m15.694 26.912c.328-.668.861-1.306 1.488-1.779 1.4-1.059 2.937-2.426 2.957-4.225-.465 1.294-1.875 1.829-2.813 2.714-.496.47-.877 1.031-1.099 1.617l-.033-.026c.115-.519.334-.987.484-1.489.408-1.369.336-3.009 1.67-3.927-.688.177-1.264.621-1.779 1.19-1.075 1.195-.981 2.957-.84 4.529.047.487.021.899-.035 1.396z"/><path d="m17.326 23.011c.748-.701 1.614-1.22 2.248-2.055.76-1.006 1.422-2.125 2.409-2.992-1.346.523-2.793 1.063-3.67 2.445-.507.808-.584 1.766-.987 2.602z"/><path d="m22.74 43.839c-1.558-1.253-1.791-3.135-2.484-4.786-.43-1.024-1.133-1.946-1.881-2.842.824 1.644.469 3.765 1.535 5.313.334.485.803.951 1.231 1.343l-.02.021c-.391-.183-.742-.455-1.098-.75-1.869-1.553-4.678-1.751-5.797-4.283.305 1.859 1.78 3.506 3.371 4.549 1.52.992 3.461.881 5.143 1.435z"/><path d="m15.729 38.624c1.053.83 2.309 1.479 3.268 2.208-.189-.478-.496-.92-.621-1.423-.564-2.278-.248-4.912-1.225-7.018.182 1.197-.293 2.254-.402 3.395-.09.938.072 1.846.436 2.633.107.232.306.443.359.682-.352-.314-.602-.721-.842-1.11-1.133-1.835-3.508-3.025-3.67-5.257-.08.992.006 2.045.336 2.926.458 1.222 1.343 2.163 2.361 2.964z"/><path d="m26.752 44.842c.281-.069.625-.048.888-.144-1.091-.223-2.144-.553-2.988-1.324-1.215-1.109-2.291-2.292-3.588-3.154 1.018 1.367 1.307 3.355 3.164 4.055.328.123.705.145.989.324-.356.057-.672-.056-1.004-.128-2.396-.509-5.315.147-7.108-1.894.68 1.335 2.08 2.387 3.428 2.831 2.084.689 4.258-.079 6.219-.566z"/><path d="m47.32 23.724c.15.502.369.971.486 1.489l-.035.026c-.222-.586-.603-1.147-1.099-1.617-.938-.885-2.35-1.42-2.813-2.714.021 1.799 1.556 3.166 2.955 4.225.629.476 1.162 1.111 1.488 1.779-.055-.497-.08-.909-.035-1.396.146-1.572.238-3.334-.84-4.529-.514-.569-1.092-1.016-1.779-1.19 1.338.918 1.264 2.557 1.672 3.927z"/><path d="m49.016 32.599c-.18.686-.242 1.413-.518 2.055l-.064-.033c.691-1.938-.324-3.729-1.309-5.255-.26-.402-.385-.868-.504-1.343-.107.879.078 1.895.242 2.799.207 1.164.604 2.257.922 3.381.209.703.154 1.494.047 2.23l.102-.08c.732-1.355 2.183-2.414 2.621-3.896.348-1.181.59-2.548.348-3.833-.112-.499-.2-1.016-.418-1.471.408 2.105-.991 3.623-1.469 5.446z"/><path d="m48.721 27.538.135 1.813-.065.047c-.062-.201-.078-.418-.113-.625-.247-1.463-1.53-2.479-2.618-3.511-.259-.245-.445-.532-.566-.844.09.729.293 1.476.619 2.136.838 1.697 2.455 3.066 2.746 4.992.141-1.846 1.272-3.219 1.272-5.186 0-1.594-.619-2.893-1.551-4.078l-.08-.034c1.02 1.558.09 3.524.221 5.29z"/><path d="m46.674 23.011c-.402-.836-.479-1.794-.988-2.602-.877-1.383-2.322-1.922-3.67-2.445.99.867 1.65 1.986 2.41 2.992.633.835 1.502 1.354 2.248 2.055z"/><path d="m39.787 44.471c-.332.072-.645.185-1.002.128.283-.181.66-.201.99-.324 1.854-.698 2.146-2.688 3.162-4.055-1.297.862-2.373 2.045-3.586 3.154-.847.771-1.896 1.104-2.99 1.324.264.096.604.074.889.144 1.961.487 4.135 1.255 6.221.566 1.346-.444 2.746-1.496 3.428-2.831-1.795 2.041-4.717 1.385-7.112 1.894z"/><path d="m47.301 37.989c-.242.391-.49.796-.842 1.111.055-.238.25-.449.357-.683.363-.787.529-1.696.436-2.633-.109-1.14-.584-2.196-.402-3.396-.975 2.105-.66 4.739-1.225 7.019-.123.503-.432.944-.621 1.423.959-.729 2.215-1.378 3.27-2.208 1.019-.802 1.9-1.742 2.359-2.966.332-.881.418-1.934.336-2.926-.16 2.234-2.535 3.423-3.668 5.259z"/><path d="m39.063 46.203c-1.612-.67-3.254-1.558-5.092-1.558-.668 0-1.326.113-1.971.308-.644-.193-1.304-.308-1.972-.308-1.838 0-3.479.888-5.09 1.558-1.457.604-3.393.483-4.684-.407.639.805 1.496 1.298 2.377 1.633 1.643.655 3.557.153 4.951-.74 1.006-.644 1.869-1.555 3.066-1.555.217 0 .438.027.656.075-1.688.672-3.224 1.853-4.421 2.995.22.251.503.484.771.699 1.332-1.373 2.84-2.86 4.344-3.476 1.504.614 3.013 2.103 4.344 3.476.269-.215.554-.448.771-.699-1.196-1.145-2.733-2.323-4.42-2.995.22-.048.438-.075.656-.075 1.195 0 2.06.911 3.064 1.555 1.396.895 3.311 1.396 4.953.74.881-.335 1.738-.828 2.375-1.633-1.288.892-3.221 1.014-4.678.407z"/><path d="m43.975 42.138c-.354.295-.707.567-1.098.75l-.018-.021c.43-.392.896-.856 1.229-1.343 1.065-1.549.713-3.67 1.535-5.313-.748.896-1.449 1.815-1.881 2.842-.691 1.651-.929 3.533-2.481 4.786 1.684-.554 3.622-.443 5.139-1.438 1.592-1.043 3.067-2.688 3.371-4.547-1.117 2.533-3.927 2.731-5.796 4.284z"/><path d="m45.43 30.091c0-1.756-.336-3.457-.975-5.037-.668-1.647-1.662-3.164-2.959-4.461-1.301-1.3-2.822-2.299-4.479-2.967l-.002.002c-1.574-.635-3.269-.969-5.017-.969-2.162 0-4.199.516-6.01 1.426l.148.283c1.75-.877 3.688-1.357 5.698-1.381v2.423c-1.642.024-3.19.423-4.573 1.108-.998.496-1.908 1.14-2.699 1.908l-1.717-1.717c.983-.959 2.092-1.745 3.288-2.343l-.146-.283c-2.615 1.313-4.744 3.455-6.041 6.081l.098.054-.1-.054c-.881 1.789-1.379 3.8-1.379 5.926 0 1.301.186 2.571.539 3.785l.317-.08c-.334-1.138-.518-2.326-.53-3.543h2.422c.016 1.016.172 2.005.459 2.952.488 1.608 1.354 3.087 2.557 4.325l-1.713 1.712c-1.516-1.554-2.598-3.416-3.193-5.444l-.318.079c.627 2.138 1.777 4.095 3.396 5.711 1.094 1.097 2.346 1.979 3.703 2.628l.162-.285c-1.285-.611-2.473-1.437-3.521-2.46l1.713-1.712c.892.864 1.904 1.553 3.002 2.055l.16-.283c-1.072-.485-2.063-1.157-2.934-2l1.551-1.551c.729.699 1.563 1.248 2.467 1.631l.158-.282c-.877-.368-1.689-.897-2.395-1.575l1.713-1.713c.549.52 1.189.91 1.885 1.159.531.188 1.092.297 1.67.313v2.423c-1.002-.021-1.973-.227-2.871-.605l-.16.283c.947.404 1.973.625 3.031.646v2.192c-1.443-.022-2.836-.339-4.115-.919l-.158.283c1.326.605 2.775.938 4.273.959v2.422c-1.922-.022-3.781-.459-5.469-1.264l-.16.284c1.785.854 3.754 1.308 5.791 1.308 2.14 0 4.196-.5 6.053-1.438 1.259-.638 2.421-1.472 3.445-2.497 1.078-1.078 1.946-2.307 2.594-3.639l-.002-.003c.878-1.8 1.343-3.794 1.343-5.856zm-1.276-4.908c.604 1.491.928 3.094.949 4.746h-2.422c-.021-1.318-.279-2.599-.755-3.789-.51-1.283-1.271-2.468-2.26-3.486l1.711-1.713c1.213 1.24 2.146 2.678 2.777 4.242zm-6.736 4.746c-.016-.593-.129-1.169-.328-1.71-.248-.681-.635-1.307-1.143-1.848l1.711-1.711c.73.76 1.289 1.644 1.658 2.601.326.842.506 1.741.524 2.668zm2.422.323c-.021 1.067-.26 2.086-.67 3.011-.373.838-.885 1.603-1.514 2.258l-1.709-1.711c.473-.506.84-1.084 1.09-1.713.232-.58.361-1.203.381-1.845zm-3.049-1.905c.184.502.287 1.034.305 1.582h-2.197c-.037-.662-.293-1.281-.733-1.772l1.553-1.556c.478.509.84 1.102 1.072 1.746zm.305 1.905c-.021.594-.141 1.162-.346 1.688-.24.61-.594 1.166-1.035 1.639l-1.551-1.555c.441-.491.697-1.11.734-1.772zm-1.608 3.558c-.371.351-.795.643-1.258.867-.629.309-1.328.489-2.068.514v-2.197c.66-.036 1.279-.292 1.773-.734zm-1.109 1.158c.484-.236.938-.548 1.34-.928l1.709 1.71c-.57.549-1.225 1.01-1.939 1.366-1.006.502-2.133.794-3.325.818v-2.423c.779-.021 1.531-.209 2.215-.543zm1.26 2.438c.734-.364 1.414-.841 2.021-1.425l1.549 1.547c-.754.73-1.619 1.347-2.565 1.822-1.353.681-2.871 1.074-4.479 1.101v-2.192c1.224-.024 2.403-.319 3.474-.853zm2.248-1.657c.664-.689 1.191-1.479 1.572-2.33.439-.986.684-2.057.705-3.167h2.193c-.023 1.506-.371 2.935-.974 4.219-.491 1.05-1.151 2.005-1.948 2.826zm2.277-5.82c-.02-.971-.209-1.914-.551-2.795-.385-.994-.967-1.913-1.727-2.701l1.551-1.553c.961.991 1.696 2.141 2.19 3.387.459 1.153.709 2.39.729 3.662zm-8.002-10.196c1.299.02 2.561.278 3.734.754l.115-.301c-1.21-.49-2.511-.759-3.851-.776v-2.423c1.646.02 3.248.346 4.735.945l.002-.002c1.564.629 3.009 1.564 4.25 2.778l-1.713 1.714c-1.002-.973-2.164-1.727-3.426-2.236l-.115.301c1.219.496 2.342 1.225 3.313 2.166l-1.551 1.552c-.755-.726-1.623-1.289-2.564-1.674-.922-.378-1.911-.585-2.932-.604zm0 2.518c.979.02 1.93.22 2.813.581.902.369 1.732.908 2.455 1.603l-1.713 1.711c-.482-.453-1.031-.81-1.627-1.058-.605-.254-1.256-.396-1.928-.414zm0 2.746c.631.02 1.242.152 1.809.393.555.231 1.068.563 1.518.985l-1.555 1.554c-.492-.441-1.11-.697-1.771-.734zm-4.752-4.196c1.362-.674 2.866-1.043 4.428-1.067v2.192c-1.221.025-2.375.318-3.405.822-.773.376-1.478.87-2.091 1.458l-1.553-1.553c.785-.761 1.668-1.381 2.621-1.852zm-.121 7.331c.231-.561.565-1.076.989-1.529l1.556 1.555c-.426.478-.696 1.094-.733 1.773h-2.197c.018-.628.152-1.235.385-1.799zm-.709 1.799h-2.424c.021-1.09.268-2.143.709-3.106.362-.789.856-1.519 1.475-2.162l1.714 1.714c-.438.466-.794 1.008-1.048 1.604-.256.6-.405 1.258-.426 1.95zm1.93-3.557c.4-.378.854-.682 1.343-.909.616-.287 1.289-.448 1.985-.47v2.197c-.34.02-.666.097-.965.224-.299.126-.569.299-.81.511zm1.193-1.193c-.524.246-1.004.573-1.42.965l-1.716-1.711c.603-.578 1.279-1.05 2.009-1.403v.001c1.008-.488 2.112-.758 3.262-.782v2.423c-.762.02-1.484.202-2.135.507zm-3.591-.746c-.627.651-1.145 1.407-1.526 2.237-.463.994-.729 2.097-.752 3.259h-2.192c.022-1.515.371-2.977 1.006-4.308.479-.999 1.121-1.925 1.914-2.741zm-7.216 5.496c.022-1.979.485-3.885 1.334-5.611h.002c.604-1.23 1.403-2.37 2.389-3.379l1.717 1.717c-.799.822-1.467 1.771-1.969 2.816h.002c-.652 1.354-1.029 2.861-1.053 4.457zm7.444 5.591c-.834-.867-1.44-1.896-1.805-3.013l-.313.079c.373 1.173 1.014 2.252 1.889 3.162l-1.551 1.552c-1.16-1.196-1.998-2.624-2.471-4.176-.281-.922-.436-1.887-.449-2.874h2.193c.016.805.148 1.589.387 2.336l.314-.08c-.232-.721-.361-1.479-.379-2.256h2.424c.016.576.123 1.137.311 1.663.248.696.642 1.341 1.162 1.894zm1.938-1.941c-.479-.51-.84-1.104-1.071-1.744-.185-.501-.287-1.036-.306-1.583h2.199c.037.661.293 1.281.733 1.772zm3.56 1.609c-.521-.017-1.026-.111-1.51-.277-.668-.232-1.287-.604-1.818-1.102l1.556-1.555c.492.442 1.113.698 1.772.734zm-1.666-3.27c-.485-.489-.756-1.138-.756-1.828s.271-1.339.756-1.827c.248-.246.535-.437.851-.563.305-.126.635-.191.979-.191.688 0 1.338.269 1.826.755.487.489.756 1.139.756 1.828 0 1.426-1.158 2.584-2.582 2.584-.692-.002-1.342-.271-1.83-.758zm7.728 9.871c-1.73.875-3.676 1.381-5.738 1.405v-2.422c1.635-.022 3.209-.416 4.629-1.131.963-.482 1.855-1.113 2.648-1.883l1.707 1.707c-.951.932-2.046 1.718-3.246 2.324zm3.475-2.554-1.709-1.709c.836-.862 1.514-1.84 2.01-2.898.637-1.354.982-2.841 1.006-4.378h2.42c-.022 1.981-.49 3.86-1.305 5.537-.619 1.278-1.44 2.442-2.422 3.448z"/><path d="m28.733 30.66c.082-.482 1.054-1.091.937-.207.703-.063.873-.789 1.084-1.277-.092.002-.183.011-.271.026.088-.106 1.985-2.129.613-2.119-.472.004-.908.661-1.31.854-.584.28-1.146-.188-1.718-.285-1.09-.188-2.161.186-2.36 1.404-.129.81-1.174 1.577-1.174 2.457-.49-.623-1.884-.006-1.568 1.531.084.417-1.967.805-2.442.407-.078-.064-.058-.312.137-.386-1.15-.256-1.16 1.78-.313 2.035-.127-1.721 2.541 1.012 2.893 1.328.66.594 1.373.437 2.08.904.33.219 1.998-.079 1.639-.583-.326-.458.361-.636-.25-1.002-.684-.406-.578-.729-.799-1.464-.256-.844-.582-1.893-.727-2.732-.101-.57.328-.99.711-1.326.174-.261-.164-.883-.004-1.021.678-.583.393 1.922.596 1.986.049.019.576-.121.799-.066.404.097 1.309.646 1.471.613.086.056.074.597.088.725.607-.059.553-1.352.973-1.54-.171-.687-.626-.503-1.085-.262z"/><path d="m30.496 31.885c.726.179 1.887-1.077.854-1.458-.354-.856-1.454 1.308-.854 1.458z"/><path d="m37.699 23.769c-.072-.168-.758-1.595-1.459-1.264-.719.338 2.942 4.767 1.459 1.264z"/><path d="m41.551 24.733c.17-.702.047-.194.001-.004.267-1.131-2.051-1.355-1.708-2.621-.137.072-1.955-1.815-2.789-1.803-1.004.016.26 2.732.701 2.562.678-.265.605.733.723 1.055.066.183 1.224.922 1.441 1.073.318.22.955 1.167 1.318 1.102 1.168-.215.168-.769.313-1.364z"/><path d="m39.609 27.931c-.142.143-.728.703-.916.56-.125-.099.395-.526-.238-.546-.518-.018-.379.828-.793.056-.539-1.004-.838-.878-1.711-.06.125-.116-.42-.653.182-.84-.379-.108-1.689.573-1.764-.11-.561.252.127.92-.561.858-.701-.061-.813-.422-.455-.953-.381.188-1.279 1.062-1.722.797.021.386 1.606 1.107 1.017 1.4.168-.05.33-.105.492-.17.364.321-.099.938-.423 1.037.834-.146 1.318 1.316.396 1.589-.6.175-1.4 1.375-.287 1.396-.035-.286-.01-.565.08-.838.184-.062.234.722.127.845-.182.175-.383.182-.603.021-.059.408-.34.727-.758.771.148.186.139.349-.033.491-1.572.524 1.419.063 1.619.291-.131-.154-.229-.326-.299-.516.479-.146.724.596 1.19.6-.866-.664.48-2.873 1.49-1.717-.471-.002-1.635.868-1.422 1.414-.023-.061 1.398-.367.309.442-1.077.8-1.475-.366-2.372.083-.805.402-1.592.958-2.271 1.55.877 1.204 1.545 1.272 2.996 1.397.945.082.845 1.119 1.322 1.728.789 1 2.008.702 2.922.042 1.013-.729.269-.389.336-1.249.031-.362.358-.638.354-.995 0-.428-.42-.568-.401-1.072.019-.549.17-1.145.084-1.691-.81.895-1.631.568-2.627.219.19-.188 1.33.165 1.633.117.529-.087 1.279-1.475.547-1.727-.059.31-.647.537-.907.578.203-.56 1.317-1.039 1.778-1.342.688-.455 1.263-.57.707-1.031-.489-.405-.112-1.58-.006-2.086.024-.109.78-.15.951-.463.022-.041 1.049-1.723-.123-3.06-.107-.128.395 1.943.16 2.184z"/></g><circle cx="32" cy="32" fill="url(#a)" opacity=".1" r="30"/></svg>