<svg enable-background="new 0 0 64 64" height="64" viewBox="0 0 64 64" width="64" xmlns="http://www.w3.org/2000/svg" xmlns:xlink="http://www.w3.org/1999/xlink"><linearGradient id="a" gradientUnits="userSpaceOnUse" x1="32.0005" x2="32.0005" y1="62" y2="2.0005"><stop offset="0" stop-color="#1a1a1a"/><stop offset=".102" stop-color="#393939" stop-opacity=".949"/><stop offset=".3475" stop-color="#7f7f7f" stop-opacity=".8262"/><stop offset=".5688" stop-color="#b6b6b6" stop-opacity=".7156"/><stop offset=".7582" stop-color="#dedede" stop-opacity=".6209"/><stop offset=".9081" stop-color="#f6f6f6" stop-opacity=".5459"/><stop offset="1" stop-color="#fff" stop-opacity=".5"/></linearGradient><g fill="#f5f5f5"><path d="m61.721 28c-.138-1.016-.316-2.019-.551-3h-58.341c-.234.981-.413 1.984-.55 3z"/><path d="m2.279 36c.137 1.016.315 2.018.55 3h58.341c.234-.982.413-1.984.551-3z"/><path d="m20 4.489c-1.03.45-2.034.952-3 1.513v51.996c.966.561 1.97 1.063 3 1.512z"/><path d="m28 2.263v59.474c.986.133 1.984.23 3 .264v-60.001c-1.016.033-2.014.131-3 .263z"/></g><path d="m2 32c0 1.357.099 2.689.273 4h59.453c.174-1.311.274-2.643.274-4s-.1-2.69-.273-4h-59.454c-.174 1.31-.273 2.643-.273 4z" fill="#014d87"/><path d="m20 59.496c2.507 1.096 5.191 1.855 8 2.23v-59.453c-2.809.375-5.493 1.135-8 2.23z" fill="#014d87"/><path d="m17 25v-18.977c-7.018 4.061-12.234 10.879-14.171 18.977z" fill="#e81c27"/><path d="m17 39.023v18.977c-7.018-4.061-12.234-10.879-14.171-18.977z" fill="#e81c27"/><path d="m32 2c-.336 0-.668.015-1 .025v22.975h30.17c-3.154-13.19-15.014-23-29.17-23z" fill="#e81c27"/><path d="m31 39v22.975c.332.009.664.025 1 .025 14.156 0 26.016-9.811 29.17-23z" fill="#e81c27"/><circle cx="32" cy="32" fill="url(#a)" opacity=".1" r="30"/></svg>