<svg enable-background="new 0 0 64 64" height="64" viewBox="0 0 64 64" width="64" xmlns="http://www.w3.org/2000/svg" xmlns:xlink="http://www.w3.org/1999/xlink"><linearGradient id="a" gradientUnits="userSpaceOnUse" x1="32" x2="32" y1="62" y2="2"><stop offset="0" stop-color="#1a1a1a"/><stop offset=".102" stop-color="#393939" stop-opacity=".949"/><stop offset=".3475" stop-color="#7f7f7f" stop-opacity=".8262"/><stop offset=".5688" stop-color="#b6b6b6" stop-opacity=".7156"/><stop offset=".7582" stop-color="#dedede" stop-opacity=".6209"/><stop offset=".9081" stop-color="#f6f6f6" stop-opacity=".5459"/><stop offset="1" stop-color="#fff" stop-opacity=".5"/></linearGradient><path d="m32 2v30h-30c0 16.57 13.43 30 30 30s30-13.43 30-30-13.43-30-30-30z" fill="#e81c27"/><path d="m32 2c-16.57 0-30 13.43-30 30h30z" fill="#014d87"/><g fill="#f5f5f5"><path d="m19 13.06 1.24.94-.47-1.52 1.23-.95-1.52-.01-.48-1.52-.48 1.52-1.52.01 1.23.95-.47 1.52z"/><path d="m19 27.06 1.24.94-.47-1.53 1.23-.94-1.52-.01-.48-1.52-.48 1.52-1.52.01 1.23.94-.47 1.53z"/><path d="m14 18.06 1.24.94-.47-1.53 1.23-.94-1.53-.01-.47-1.52-.47 1.52-1.53.01 1.23.94-.47 1.53z"/><path d="m24 18.06 1.23.94-.46-1.53 1.23-.94-1.53-.01-.47-1.52-.47 1.52-1.53.01 1.23.94-.47 1.53z"/><path d="m22 22.53.63.47-.24-.76.63-.47-.78-.01-.24-.76-.24.76-.78.01.63.47-.24.76z"/></g><circle cx="32" cy="32" fill="url(#a)" opacity=".1" r="30"/></svg>