<svg enable-background="new 0 0 64 64" height="64" viewBox="0 0 64 64" width="64" xmlns="http://www.w3.org/2000/svg" xmlns:xlink="http://www.w3.org/1999/xlink"><linearGradient id="a" gradientUnits="userSpaceOnUse" x1="32" x2="32" y1="61.9997" y2="1.9997"><stop offset="0" stop-color="#1a1a1a"/><stop offset=".102" stop-color="#393939" stop-opacity=".949"/><stop offset=".3475" stop-color="#7f7f7f" stop-opacity=".8262"/><stop offset=".5688" stop-color="#b6b6b6" stop-opacity=".7156"/><stop offset=".7582" stop-color="#dedede" stop-opacity=".6209"/><stop offset=".9081" stop-color="#f6f6f6" stop-opacity=".5459"/><stop offset="1" stop-color="#fff" stop-opacity=".5"/></linearGradient><path d="m17 6.02c-10.65 6.15-16.1 17.84-14.81 29.33l47.62-27.49c-9.31-6.86-22.16-8-32.81-1.84zm8.55 11.42-3.18-.91.91 3.18-2.3-2.38-.8 3.21-.8-3.21-2.3 2.38.91-3.18-3.18.91 2.38-2.3-3.21-.8 3.21-.81-2.38-2.3 3.18.91-.91-3.18 2.3 2.38.8-3.21.8 3.21 2.3-2.38-.91 3.18 3.18-.91-2.38 2.3 3.21.8-3.21.8z" fill="#014d87"/><path d="m14.19 56.14c9.31 6.86 22.16 7.99 32.81 1.84s16.1-17.85 14.81-29.34z" fill="#529320"/><path d="m57.98 17c-1.39-2.4-3.07-4.53-4.95-6.38l-50.06 28.9c.66 2.56 1.66 5.08 3.05 7.48s3.07 4.53 4.95 6.38l50.07-28.9c-.67-2.56-1.67-5.08-3.06-7.48z" fill="#e81c27"/><path d="m61.5 26.52c-.13-.68-.29-1.36-.47-2.04l-50.07 28.9c.5.49 1 .97 1.53 1.43.55.47 1.11.91 1.69 1.33l47.62-27.49c-.07-.71-.17-1.43-.3-2.13z" fill="#f5f5f5"/><path d="m51.5 9.19c-.55-.47-1.11-.91-1.69-1.33l-47.62 27.49c.08.71.18 1.42.31 2.13.13.68.29 1.36.47 2.04l50.07-28.9c-.51-.49-1.01-.98-1.54-1.43z" fill="#f5f5f5"/><path d="m23.17 13.53 2.38-2.3-3.18.91.91-3.18-2.31 2.38-.8-3.22-.81 3.22-2.3-2.38.91 3.18-3.18-.91 2.38 2.3-3.21.81 3.21.8-2.38 2.3 3.18-.91-.91 3.18 2.31-2.37.8 3.21.8-3.21 2.3 2.37-.9-3.18 3.18.91-2.38-2.3 3.21-.81z" fill="#ffe12c"/><circle cx="32" cy="32" fill="url(#a)" opacity=".1" r="30"/></svg>