<svg enable-background="new 0 0 64 64" height="64" viewBox="0 0 64 64" width="64" xmlns="http://www.w3.org/2000/svg" xmlns:xlink="http://www.w3.org/1999/xlink"><linearGradient id="a" gradientUnits="userSpaceOnUse" x1="32" x2="32" y1="62" y2="2"><stop offset="0" stop-color="#1a1a1a"/><stop offset=".102" stop-color="#393939" stop-opacity=".949"/><stop offset=".3475" stop-color="#7f7f7f" stop-opacity=".8262"/><stop offset=".5688" stop-color="#b6b6b6" stop-opacity=".7156"/><stop offset=".7582" stop-color="#dedede" stop-opacity=".6209"/><stop offset=".9081" stop-color="#f6f6f6" stop-opacity=".5459"/><stop offset="1" stop-color="#fff" stop-opacity=".5"/></linearGradient><path d="m38 2.6v29.4h-36c0 16.57 13.43 30 30 30s30-13.43 30-30c0-14.52-10.31-26.62-24-29.4z" fill="#e81c27"/><path d="m38 2.6c-.33-.07-.67-.12-1-.18v28.58h-11.67v-28.25c-4.32.98-8.28 2.89-11.67 5.51v22.74h-11.63c-.02.33-.03.66-.03 1h36z" fill="#f5f5f5"/><path d="m2.03 31h11.64v-22.74c-6.85 5.3-11.34 13.49-11.64 22.74z" fill="#014d87"/><path d="m25.33 31h11.67v-28.58c-1.63-.27-3.3-.42-5-.42-2.29 0-4.52.27-6.67.75z" fill="#e81c27"/><g fill="#fff"><path d="m48 36 6-6h-12z"/><path d="m50 38 6 6v-12z"/><path d="m48 40-6 6h12z"/><path d="m46 38-6-6v12z"/></g><circle cx="32" cy="32" fill="url(#a)" opacity=".1" r="30"/></svg>