<svg enable-background="new 0 0 64 64" height="64" viewBox="0 0 64 64" width="64" xmlns="http://www.w3.org/2000/svg" xmlns:xlink="http://www.w3.org/1999/xlink"><linearGradient id="a" gradientUnits="userSpaceOnUse" x1="32" x2="32" y1="62" y2="2"><stop offset="0" stop-color="#1a1a1a"/><stop offset=".102" stop-color="#393939" stop-opacity=".949"/><stop offset=".3475" stop-color="#7f7f7f" stop-opacity=".8262"/><stop offset=".5688" stop-color="#b6b6b6" stop-opacity=".7156"/><stop offset=".7582" stop-color="#dedede" stop-opacity=".6209"/><stop offset=".9081" stop-color="#f6f6f6" stop-opacity=".5459"/><stop offset="1" stop-color="#fff" stop-opacity=".5"/></linearGradient><circle cx="32" cy="32" fill="#e81c27" r="30"/><g fill="#ffe12c"><path d="m49.73 34.3c-1.34-1.15-3.61-.94-5.22-.83 1.76-.94 4.56-2.66 6.49-1.11-1.4-1.93-4.48-1.3-6.41-.86 1.59-1.2 4.09-3.34 6.23-2.11-1.68-1.68-4.65-.59-6.48.16 1.39-1.43 3.52-3.95 5.83-3.07-1.93-1.4-4.67.15-6.37 1.16 1.14-1.63 2.86-4.45 5.28-3.94-2.14-1.08-4.57.89-6.11 2.14.88-1.79 2.13-4.82 4.6-4.71-2.27-.72-4.41 1.57-5.7 3.08.58-1.9 1.35-5.12 3.8-5.38-2.34-.36-4.11 2.25-5.15 3.94.28-1.97.53-5.26 2.92-5.91-2.37.01-3.72 2.86-4.47 4.69-.03-2-.3-5.27 1.95-6.3-2.34.38-3.22 3.4-3.68 5.33-.35-1.97-1.12-5.17.95-6.52-2.25.74-2.65 3.87-2.8 5.84-.65-1.89-1.92-4.93-.09-6.59-2.11 1.08-2.01 4.24-1.85 6.21-.93-1.76-2.66-4.57-1.12-6.49-1.92 1.39-1.32 4.5-.86 6.42-1.2-1.6-3.35-4.09-2.12-6.24-1.67 1.68-.6 4.65.16 6.47-1.43-1.39-3.95-3.52-3.07-5.83-1.39 1.92.14 4.69 1.17 6.37-1.63-1.14-4.45-2.86-3.95-5.28-1.07 2.11.86 4.62 2.15 6.11-1.79-.87-4.84-2.13-4.72-4.6-.73 2.25 1.58 4.42 3.08 5.7-1.9-.58-5.12-1.35-5.38-3.8-.37 2.34 2.25 4.12 3.94 5.14-1.97-.27-5.26-.53-5.91-2.91 0 2.37 2.87 3.71 4.69 4.46-1.99.03-5.28.3-6.3-1.95.38 2.34 3.41 3.21 5.33 3.68-1.97.35-5.17 1.12-6.52-.94.74 2.26 3.87 2.64 5.84 2.8-1.89.65-4.93 1.92-6.59.09 1.08 2.12 4.24 2 6.21 1.85-1.77.93-4.56 2.67-6.5 1.12 1.39 1.91 4.5 1.33 6.42.86-1.59 1.2-4.1 3.35-6.24 2.12 1.68 1.68 4.65.59 6.48-.16-1.39 1.43-3.52 3.95-5.83 3.07 1.92 1.39 4.68-.14 6.37-1.17-1.15 1.64-2.86 4.44-5.28 3.95 2.11 1.07 4.61-.86 6.11-2.15-.88 1.79-2.13 4.85-4.6 4.72 2.26.73 4.42-1.58 5.7-3.08-.58 1.9-1.35 5.12-3.8 5.38 2.34.38 4.12-2.25 5.15-3.94-.28 1.96-.53 5.27-2.91 5.91 2.37 0 3.72-2.86 4.47-4.69.03 1.99.3 5.29-1.95 6.3 2.34-.37 3.22-3.41 3.68-5.33.34 1.97 1.12 5.17-.94 6.52 2.25-.73 2.64-3.88 2.8-5.84.65 1.89 1.92 4.93.09 6.59 2.11-1.08 2.01-4.24 1.85-6.21.94 1.76 2.66 4.57 1.12 6.5 1.92-1.39 1.32-4.5.86-6.42 1.2 1.6 3.35 4.09 2.12 6.24 1.67-1.68.6-4.65-.16-6.48 1.43 1.39 3.94 3.52 3.07 5.83 1.39-1.92-.14-4.69-1.17-6.37 1.63 1.15 4.45 2.86 3.94 5.28 1.08-2.13-.88-4.58-2.14-6.11 1.79.88 4.83 2.13 4.71 4.59.73-2.25-1.58-4.41-3.08-5.7 1.9.58 5.11 1.35 5.38 3.8.37-2.37-2.26-4.07-3.93-5.14 1.97.29 5.25.53 5.9 2.91 0-2.38-2.86-3.69-4.68-4.47 2-.03 5.27-.3 6.29 1.95-.38-2.36-3.41-3.18-5.32-3.68 1.97-.34 5.16-1.12 6.51.95-.73-2.25-3.87-2.65-5.84-2.8 1.89-.65 4.93-1.91 6.59-.09-.23-.43-.6-.77-.99-1.03-.24-.2.25.17 0 0zm-17.73 9.7c-4.47 0-8.67-2.57-10.7-6.55-2.06-4.04-1.62-9.04 1.1-12.66 2.72-3.61 7.34-5.41 11.78-4.59 4.36.8 8.01 4.07 9.3 8.31 2.31 7.59-3.55 15.49-11.48 15.49-6.63 0 6.63 0 0 0z"/><path d="m24.84 25.02c-1.75 1.8-2.84 4.26-2.84 6.98 0 2.02.61 3.9 1.64 5.48.84-3.68 2.47-7.07 4.74-9.94-1.07-.97-2.26-1.81-3.54-2.52z"/><path d="m31.28 24.43c-.82-.68-1.7-1.29-2.61-1.85-.42.15-.82.32-1.21.52 1.05.63 2.04 1.35 2.96 2.14.28-.28.57-.54.86-.81z"/><path d="m29.76 25.93c-1.01-.86-2.1-1.62-3.25-2.28-.33.22-.64.45-.94.71 1.22.7 2.37 1.52 3.41 2.46.25-.31.51-.61.78-.89z"/><path d="m29.07 28.18c-2.32 2.96-3.95 6.46-4.68 10.29.46.54.99 1.03 1.55 1.47.38-3.99 1.81-7.67 4.03-10.77-.29-.33-.59-.67-.9-.99z"/><path d="m34.03 29.18c2.22 3.09 3.65 6.78 4.03 10.76.57-.43 1.09-.92 1.55-1.47-.73-3.83-2.36-7.34-4.68-10.29-.31.32-.61.66-.9 1z"/><path d="m31.18 29.16c.28.36.57.72.82 1.1.26-.38.54-.74.82-1.1-.27-.35-.54-.68-.82-1.01-.28.33-.56.67-.82 1.01z"/><path d="m34.13 22.23c-.69-.15-1.4-.23-2.13-.23s-1.44.08-2.13.23c.73.49 1.45 1.01 2.13 1.58.68-.57 1.4-1.09 2.13-1.58z"/><path d="m31.45 31.16c-.27-.42-.56-.82-.86-1.21-2.13 3.05-3.48 6.68-3.76 10.6.58.35 1.19.64 1.84.87 0-.1-.01-.2-.01-.31 0-3.64 1.03-7.04 2.79-9.95z"/><path d="m32 26.73c.28-.29.57-.58.87-.86-.28-.28-.57-.55-.87-.82-.3.26-.59.54-.87.81.3.29.59.58.87.87z"/><path d="m33.45 28.41c.29-.33.57-.66.88-.96-.26-.3-.52-.6-.79-.88-.31.29-.6.58-.89.88.28.3.54.63.8.96z"/><path d="m30.46 26.56c-.27.29-.53.58-.79.88.31.31.59.64.88.96.26-.33.53-.66.81-.97-.3-.29-.59-.58-.9-.87z"/><path d="m32 32.07c-1.52 2.68-2.4 5.76-2.4 9.05 0 .2.01.39.02.59.77.18 1.56.29 2.38.29s1.61-.11 2.38-.3c.01-.2.02-.39.02-.59 0-3.29-.88-6.37-2.4-9.04z"/><path d="m32.55 31.16c1.76 2.91 2.79 6.31 2.79 9.95 0 .1-.01.2-.01.31.65-.23 1.26-.52 1.84-.87-.28-3.92-1.63-7.55-3.76-10.6-.3.39-.59.79-.86 1.21z"/><path d="m33.58 25.24c.92-.79 1.92-1.51 2.96-2.14-.39-.2-.79-.37-1.21-.52-.91.57-1.79 1.17-2.61 1.85.29.27.58.53.86.81z"/><path d="m40.36 37.48c1.03-1.58 1.64-3.46 1.64-5.48 0-2.71-1.09-5.18-2.84-6.98-1.27.7-2.46 1.54-3.53 2.52 2.26 2.87 3.89 6.25 4.73 9.94z"/><path d="m35.03 26.81c1.04-.94 2.19-1.76 3.41-2.46-.3-.25-.62-.49-.95-.7-1.15.66-2.25 1.42-3.25 2.28.27.28.53.58.79.88z"/></g><circle cx="32" cy="32" fill="url(#a)" opacity=".1" r="30"/></svg>