<svg enable-background="new 0 0 64 64" height="64" viewBox="0 0 64 64" width="64" xmlns="http://www.w3.org/2000/svg" xmlns:xlink="http://www.w3.org/1999/xlink"><linearGradient id="a" gradientUnits="userSpaceOnUse" x1="32.0003" x2="32.0003" y1="62" y2="2"><stop offset="0" stop-color="#1a1a1a"/><stop offset=".102" stop-color="#393939" stop-opacity=".949"/><stop offset=".3475" stop-color="#7f7f7f" stop-opacity=".8262"/><stop offset=".5688" stop-color="#b6b6b6" stop-opacity=".7156"/><stop offset=".7582" stop-color="#dedede" stop-opacity=".6209"/><stop offset=".9081" stop-color="#f6f6f6" stop-opacity=".5459"/><stop offset="1" stop-color="#fff" stop-opacity=".5"/></linearGradient><circle cx="32" cy="32" fill="#e81c27" r="30"/><path d="m41.35 39 .01-5.36-5.36-1.64 5.36-1.64-.01-5.36 3.3 4.34 5.35-1.67-3.32 4.33 3.32 4.33-5.35-1.67z" fill="#f5f5f5"/><path d="m33.25 44c-6.55 0-11.87-5.37-11.87-12s5.31-12 11.87-12c2.51 0 4.83.79 6.75 2.13-2.72-3.14-6.71-5.13-11.17-5.13-8.19 0-14.83 6.72-14.83 15 0 8.29 6.64 15 14.83 15 4.46 0 8.45-1.99 11.17-5.13-1.92 1.34-4.24 2.13-6.75 2.13z" fill="#f5f5f5"/><circle cx="32" cy="32" fill="url(#a)" opacity=".1" r="30"/></svg>