<svg enable-background="new 0 0 64 64" height="64" viewBox="0 0 64 64" width="64" xmlns="http://www.w3.org/2000/svg" xmlns:xlink="http://www.w3.org/1999/xlink"><linearGradient id="a" gradientUnits="userSpaceOnUse" x1="32" x2="32" y1="62" y2="2"><stop offset="0" stop-color="#1a1a1a"/><stop offset=".102" stop-color="#393939" stop-opacity=".949"/><stop offset=".3475" stop-color="#7f7f7f" stop-opacity=".8262"/><stop offset=".5688" stop-color="#b6b6b6" stop-opacity=".7156"/><stop offset=".7582" stop-color="#dedede" stop-opacity=".6209"/><stop offset=".9081" stop-color="#f6f6f6" stop-opacity=".5459"/><stop offset="1" stop-color="#fff" stop-opacity=".5"/></linearGradient><path d="m2 32c0 16.57 13.43 30 30 30v-60c-16.57 0-30 13.43-30 30z" fill="#f5f5f5"/><path d="m62 32c0-16.57-13.43-30-30-30v60c16.57 0 30-13.43 30-30z" fill="#e81c27"/><path d="m8.63 17.04v5.66h5.66c0 .94.94 1.88 1.89 1.88v5.66h5.66v-5.66c.94 0 1.89-.94 1.89-1.88h5.66v-5.66h-5.66c0-.94-.94-1.88-1.89-1.88v-5.66h-5.66v5.66c-.94 0-1.89.94-1.89 1.88z" fill="#e81c27"/><path d="m9.2 17.61v4.53h5.66c0 .94.94 1.88 1.89 1.88v5.66h4.52v-5.66c.94 0 1.89-.94 1.89-1.88h5.66v-4.53h-5.66c0-.94-.94-1.88-1.89-1.88v-5.66h-4.52v5.66c-.94 0-1.89.94-1.89 1.88z" fill="#bcbcbc"/><path d="m16.38 15.66c.33.33.24.96-.2 1.4s-1.07.53-1.4.2-.24-.96.2-1.4c.44-.45 1.07-.54 1.4-.2z" fill="#6e8189"/><path d="m14.72 16.65.13-.13.53.27-.27-.53.13-.13.53 1.07z" fill="#bcbcbc"/><path d="m15.52 15.86.13-.13.8.8-.13.13z" fill="#bcbcbc"/><path d="m23.21 17.26c-.33.33-.96.24-1.4-.2s-.53-1.07-.2-1.4.96-.24 1.4.2.53 1.06.2 1.4z" fill="#6e8189"/><path d="m22.21 15.59.13.13-.27.53.53-.27.13.13-1.07.53z" fill="#bcbcbc"/><path d="m23.01 16.39.13.13-.8.8-.13-.13z" fill="#bcbcbc"/><path d="m21.61 24.09c-.33-.33-.24-.96.2-1.4s1.07-.53 1.4-.2.24.96-.2 1.4-1.07.53-1.4.2z" fill="#6e8189"/><path d="m23.28 23.09-.13.13-.53-.27.27.53-.13.13-.53-1.07z" fill="#bcbcbc"/><path d="m22.48 23.88-.13.13-.8-.8.13-.13z" fill="#bcbcbc"/><path d="m14.78 22.49c.33-.33.96-.24 1.4.2s.53 1.07.2 1.4-.96.24-1.4-.2c-.44-.45-.53-1.07-.2-1.4z" fill="#6e8189"/><path d="m15.78 24.15-.13-.13.27-.53-.53.27-.13-.13 1.07-.53z" fill="#bcbcbc"/><path d="m14.98 23.35-.13-.13.8-.8.13.13z" fill="#bcbcbc"/><g fill="#302c3b"><path d="m17.49 22.89.19.19-.19.18-.19-.18z"/><path d="m20.51 22.89.18.19-.18.18-.19-.18z"/><path d="m18.87 23.08v.2h-.25v.2h.25v.2l.24.02.02-.21h.25v-.2h-.25v-.2h-.26z"/></g><path d="m20.69 19.08c.33-.08.57.18.68.17.09.18.3.04.3.04s-.18-.15-.35-.29c-.14-.02-.43-.21-.61-.21-.1.15-.4.31-.4.31s-.14-.2-.23-.25c.04-.09-.1-.29-.21-.43.11-.1.2-.2.27-.27.06-.01.1-.04.13-.07 0 0 .08.02.09-.05s.02-.11-.04-.22c-.19-.01-.47-.12-.67-.1.04-.07.01-.17.01-.17s-.08.02-.17.09c-.05-.03-.13 0-.13 0l-.01.01c0-.01 0-.03 0-.04 0-.23-.18-.41-.41-.41-.2 0-.36.13-.4.32-1.63-.36-2.44 1.18-1.99 1.65.14.15.54-.07.8-.22-.02.1-.02.18-.02.18s-.01.01-.02.03c-.05-.02-.12-.03-.13-.01-.02.03.37.32.37.32l.29.25c-.15.09-.27.23-.33.45-.21.06-.57-.27-.74-.14s-.09.43.02.59c.11.15-.16.2-.23.29-.07.08.18.61.27.62-.03-.06.02-.24.02-.24s.15.01.19-.05-.04-.21-.04-.21.19-.21.18-.37c0-.16-.34-.33-.22-.41.13-.09.37.23.57.09.12.28.46.48.68.52.04.15-.1.38-.06.47.03.07.19-.01.47.15-.03.05-.07.1-.1.14l-.33.04-.13.15-.4.03-.63-.01.41.31h3.22l.25-.2-.41-.22-.04-.01c.05-.01.08-.06.08-.06s.11 0 .15-.05c.43.3.58-.05.58-.05s-.06-.02-.06-.08c-.05.02-.08-.06-.08-.06s-.01.2-.1.2c-.04 0-.1-.04-.16-.09.16-.12.31-.36.31-.36l.08-.16.12-.03s.01-.08-.06-.08c0-.05-.04-.07-.1-.06.01-.03-.03-.05-.03-.05-.11.03-.12.32-.12.32s-.2.15-.27.19c0-.17-.28-.39-.22-.5s.24.17.4.12c.11-.03.18-.14.21-.26.07.06.16.08.16.08s0-.04-.02-.1c.04.02.14.01.14.01s-.05-.05-.09-.06c.02-.01.07-.05.07-.05s-.11.01-.15-.01c.03-.01.02-.06.02-.06s-.05-.01-.11 0c-.05-.11-.14-.25-.14-.25l-.1-.01-.09-.22s-.19.12-.18.23c0 .08.11.15.17.18-.07.04-.29-.1-.29-.1s.06.1.16.16c-.02 0-.04 0-.06-.01-.01.11.13.09.18.09.03.08.1.12.1.12s.05.12-.08.11c-.12-.01-.27-.3-.45-.17-.19.14.08.4.08.4s-.04.02-.09.07c-.02-.03-.06-.07-.1-.12.02-.21.09-.64.32-.84-.12-.03-.35.17-.51.34-.12-.1-.29-.22-.34-.27-.02-.04-.06-.11-.09-.19.03-.01.06-.03.1-.04.31.04.57-.09.78-.15.08.06.12.06.22.04.3.16.31.51.38.29.08.27.28.23.28.23l-.22-.38s-.25-.2-.42-.34c-.17-.1-.47-.06-.47-.06s.33-.19.34-.48zm.2 1.32v-.01c.01 0 .01.01.01.01s0 0-.01 0zm-.87-2.24h.03c-.05.06-.13.14-.22.23-.06-.08-.12-.13-.12-.13s.21-.03.31-.1zm-.91-.09-.11.09v.04l-.14-.07s.04-.02.06-.04c.04.02.12-.06.14-.09h.01c.04.01.08.01.08-.01 0-.01 0-.01.01-.03.01-.01.03-.01.04-.02zm-.55-.34c.02.06.05.11.09.15-.03.02-.06.04-.06.04s-.02-.01-.04-.01c-.02-.01-.04-.02-.07-.02-.04-.01-.08-.02-.12-.03.04-.04.12-.09.2-.13zm-.91 1.62-.09-.06c.02 0 .08.04.09.03.02-.02 0-.06-.01-.08s-.07-.03-.08-.11c-.01-.07.04-.18.04-.18s.08-.07.16-.15c.25-.12.36-.25.36-.25h.01c-.04.14-.01.31.09.39.01.17.15.5.27.55-.14.03-.28.06-.42.11zm.83 1.7c.1-.05.21-.31.16-.39.13.16.03.39.09.44.07.05.17-.03.17-.03.17.04.48-.05.48-.05.14.08.08-.04.17-.03.02.05.05.09.09.11-.13.02-.27.07-.44.1-.22-.12-.35-.01-.46.13-.12-.07-.22-.13-.26-.28zm1.28-.68c0 .03 0 .06.02.1.03.04.15.04.15.02.02.03.06.04.1.06-.03.04-.06.06-.07.08-.24-.14-.55-.23-.89-.08.36-.04.37.16.37.16s.25-.01.2.17c.14-.02.15.13.15.13s.12-.05.14.05c.08-.04.14.05.17.11-.1-.06-.2-.09-.3-.09-.08-.07-.21-.19-.3-.24-.11.06-.42.07-.47.06-.06-.01-.02-.09-.05-.13.1-.09.05-.3-.01-.43.04 0 .12-.01.24-.06.1-.05.19-.11.28-.17.08.11.17.19.27.26z" fill="#6e8189"/><circle cx="32" cy="32" fill="url(#a)" opacity=".1" r="30"/></svg>