<svg enable-background="new 0 0 64 64" height="64" viewBox="0 0 64 64" width="64" xmlns="http://www.w3.org/2000/svg" xmlns:xlink="http://www.w3.org/1999/xlink"><linearGradient id="a" gradientUnits="userSpaceOnUse" x1="32" x2="32" y1="62" y2="2"><stop offset="0" stop-color="#1a1a1a"/><stop offset=".102" stop-color="#393939" stop-opacity=".949"/><stop offset=".3475" stop-color="#7f7f7f" stop-opacity=".8262"/><stop offset=".5688" stop-color="#b6b6b6" stop-opacity=".7156"/><stop offset=".7582" stop-color="#dedede" stop-opacity=".6209"/><stop offset=".9081" stop-color="#f6f6f6" stop-opacity=".5459"/><stop offset="1" stop-color="#fff" stop-opacity=".5"/></linearGradient><path d="m10.79 10.79v21.21h51.21c0-16.57-13.43-30-30-30-8.29 0-15.79 3.36-21.21 8.79z" fill="#e81c27"/><path d="m10.79 32v21.21c5.42 5.43 12.92 8.79 21.21 8.79 16.57 0 30-13.43 30-30z" fill="#014d87"/><path d="m10.79 10.79c-5.43 5.43-8.79 12.93-8.79 21.21 0 8.29 3.36 15.78 8.79 21.21l21.21-21.21z" fill="#f5f5f5"/><path d="m18.46 25.53.01-.38s-.2-.32.03-.67c0 0-.5-.26-.38-.67 0 0-.45-.11-.42-.61 0 0-.48-.03-.54-.45 0 0-.48.08-.7-.32 0 0-.47.09-.61-.24 0 0-.46.16-.73-.23 0 0-.48.2-.69-.17-.2.37-.69.17-.69.17-.27.39-.73.23-.73.23-.13.33-.6.24-.6.24-.21.4-.7.32-.7.32-.05.41-.53.45-.53.45.04.5-.41.61-.41.61.12.41-.38.67-.38.67.24.35.04.66.04.66l-.01.35z" fill="#ff0"/><path d="m18.46 25.53.01-.38s-.2-.32.03-.67c0 0-.5-.26-.38-.67 0 0-.45-.11-.42-.61 0 0-.48-.03-.54-.45 0 0-.48.08-.7-.32 0 0-.47.09-.61-.24 0 0-.46.16-.73-.23 0 0-.48.2-.69-.17-.2.37-.69.17-.69.17-.27.39-.73.23-.73.23-.13.33-.6.24-.6.24-.21.4-.7.32-.7.32-.05.41-.53.45-.53.45.04.5-.41.61-.41.61.12.41-.38.67-.38.67.24.35.04.66.04.66l-.01.35z" fill="#ffe12c"/><path d="m18.28 25.06c-1.26-.13-2.71-.43-3.83.2-.75-.44-1.8-.41-2.69-.33-.48.09-1.05.09-1.56.17l-.08.01c-.92.06-1.75-.21-2.55-.57.25 1.44.54 2.91.67 4.41.3 2.23-1.05 4.1-.5 6.29.33 1.05 1.49 1.67 2.55 1.79 1.03.06 2.09.23 3.05.44.18.04.39.12.52.18.26.11.45.27.62.44.57-.6 1.42-.76 2.25-.85 1.5-.18 3.35-.08 4.26-1.44v-.08c.5-.75.43-1.9.22-2.75-.01-.29-.09-.56-.14-.84-.92-2.42-.13-5.13.26-7.57-.48.26-1.02.39-1.55.52-.43.06-.9.03-1.33.01z" fill="#e81c27"/><path d="m20.16 32c-.01.16.08.28.11.43.17 1.06.34 2.46-.74 3.11-1.2.77-2.78.44-4.17.84-.28.08-.66.33-.86.52-.13-.08-.25-.21-.41-.29-1.14-.61-2.63-.4-3.93-.73-.65-.21-1.33-.71-1.49-1.38-.42-1.74.59-3.23.47-4.96-.08-1.32-.3-2.59-.6-3.83 1.01.47 2.18.55 3.32.32.84-.12 1.82-.12 2.61.23.43-.19.94-.27 1.41-.32.89.09 1.85.25 2.76.24.61-.03 1.17-.21 1.7-.45-.32 2.06-.93 4.21-.18 6.27" fill="#014d87"/><path d="m19.24 34.94h-.68l-.01-2.07h.14v-.43h-.35l-.01-1.95h.24l-2.94-1.9-.01-.99h.28l-1.47-1.05-1.46 1.05h.28l.01.99-2.93 1.9h.23l.01 1.94h-.36v.44l.17.01.01 2.06h-.63v.6l9.48.01z" fill="#f5f5f5"/><path d="m18.37 26.37c.28-.01.35 1.14.35 1.71.24.06.76.4 1 .7h-2.67c.23-.29.75-.63.99-.7-.01-.57.05-1.72.33-1.71" fill="#f5f5f5"/><path d="m24.33 32.63-.47.03c-.05-.45-.15-1.01-.37-1.64l-1.37.43.43 2.22.38.06c-.2 1.68-1.1 4.43-5.17 4.61l.03.23c-.76.32-2.15.54-3.29.54-1.14 0-2.57-.22-3.34-.54l.02-.24c-4.07-.18-4.99-2.93-5.21-4.61l.38-.06.41-2.22-1.37-.44c-.21.63-.31 1.19-.35 1.64l-.47-.04c-.21 1.86.15 6.4 4.86 7.19v.48c1.33.73 4.41.89 5.09.88.67 0 3.72-.15 5.04-.88l-.01-.48c4.69-.78 5.02-5.31 4.78-7.16z" fill="#ffe12c"/><path d="m9.58 23.87c.11-.25 1.07-.94 4.25-.64 0 0 .54.33.85.29.18-.02-.11.01-.34-.18-.24-.2-.29-.6.26-.59.54.02 2.58.13 2.62.31s-1.08.26-1.49.25-.37.2.05.18c1.29-.05 2.7-.5 4.19.55.18.13-.45.15-.93-.06 0 0-1.31.07-1.88-.02 0 0-.44.35-1.01.32.07.19-.21.87-2 .36-.3.09-1.37.27-1.26-.05-.28 0-.78.09-.85-.07s.88-.4 1.04-.57c0 0-2 .02-2.38-.12-.01 0-1.19.27-1.12.04" fill="#594640"/><path d="m10.22 26.67.15-.16 1.98.18-.34.53.18.52-.12.22-.45-.16.13.21-.3.01-.07.2-.23-.21.07.21-.3.68-.17.09-.05-.46-.34.45-.32-.44.13-.59-.27-.23-.61.06.19-.72-.66-.71z" fill="#529320"/><circle cx="32" cy="32" fill="url(#a)" opacity=".1" r="30"/></svg>