<svg enable-background="new 0 0 64 64" height="64" viewBox="0 0 64 64" width="64" xmlns="http://www.w3.org/2000/svg" xmlns:xlink="http://www.w3.org/1999/xlink"><linearGradient id="a" gradientUnits="userSpaceOnUse" x1="32" x2="32" y1="2" y2="62"><stop offset="0" stop-color="#ff3b3b"/><stop offset=".2558" stop-color="#fb3737"/><stop offset=".5207" stop-color="#f02b2a"/><stop offset=".7889" stop-color="#dd1616"/><stop offset="1" stop-color="#c90100"/></linearGradient><path d="m62 54c0 4.4-3.6 8-8 8h-44c-4.4 0-8-3.6-8-8v-44c0-4.4 3.6-8 8-8h44c4.4 0 8 3.6 8 8z" fill="url(#a)"/><g fill="#fff"><path d="m16.018 35.805v15.195h31.965v-15.195zm25.541 9.758h-19.118v-4.32h19.117v4.32z"/><path d="m32 11s-9.969 8.641-22.223 14.6l3.197 6.092s7.914-2.59 19.025-11.529c11.111 8.94 19.025 11.529 19.025 11.529l3.197-6.092c-12.252-5.959-22.221-14.6-22.221-14.6z"/><path d="m20.85 28.506h22.299v5.139h-22.299z"/></g></svg>