<svg enable-background="new 0 0 64 64" height="64" viewBox="0 0 64 64" width="64" xmlns="http://www.w3.org/2000/svg" xmlns:xlink="http://www.w3.org/1999/xlink"><linearGradient id="a" gradientUnits="userSpaceOnUse" x1="32" x2="32" y1="2" y2="62"><stop offset="0" stop-color="#f90"/><stop offset=".2875" stop-color="#ff9500"/><stop offset=".5853" stop-color="#f80"/><stop offset=".8868" stop-color="#ff7400"/><stop offset="1" stop-color="#ff6a00"/></linearGradient><path d="m62 54c0 4.4-3.6 8-8 8h-44c-4.4 0-8-3.6-8-8v-44c0-4.4 3.6-8 8-8h44c4.4 0 8 3.6 8 8z" fill="url(#a)"/><path d="m47 42.516c0 2.598-.625 3.824-2.318 4.547-1.767.758-4.344.828-8.135.828-.258-1.262-1.143-3.318-1.842-4.51 2.576.144 5.67.109 6.479.109.883 0 1.18-.289 1.18-1.047v-5.231h-15.757c-.957 4.04-2.797 7.974-6.22 10.788-.662-.902-2.43-2.49-3.387-3.104 5.559-4.654 6.074-11.545 6.074-17.027v-11.869h23.926zm-4.637-9.453v-4.4h-14.761c-.037 1.371-.111 2.887-.258 4.4zm-14.761-12.879v4.402h14.762v-4.402z" fill="#fff"/></svg>