<svg enable-background="new 0 0 64 64" height="64" viewBox="0 0 64 64" width="64" xmlns="http://www.w3.org/2000/svg" xmlns:xlink="http://www.w3.org/1999/xlink"><linearGradient id="a" gradientUnits="userSpaceOnUse" x1="32" x2="32" y1="2" y2="62"><stop offset="0" stop-color="#f90"/><stop offset=".2875" stop-color="#ff9500"/><stop offset=".5853" stop-color="#f80"/><stop offset=".8868" stop-color="#ff7400"/><stop offset="1" stop-color="#ff6a00"/></linearGradient><path d="m62 54c0 4.4-3.6 8-8 8h-44c-4.4 0-8-3.6-8-8v-44c0-4.4 3.6-8 8-8h44c4.4 0 8 3.6 8 8z" fill="url(#a)"/><path d="m28.996 22.971c-.471 1.041-.981 2.041-1.57 3.041h18.177v19.021c0 2.271-.432 3.504-2.041 4.197-1.532.733-3.769.77-6.949.77-.197-1.27-.824-3.195-1.414-4.428 2.002.117 4.28.117 4.947.117.667-.039.903-.232.903-.771v-2.309h-14.171v7.353h-4.634v-16.75c-1.57 1.695-3.259 3.234-5.183 4.504-.667-1-2.158-2.656-3.061-3.504 4.162-2.734 7.42-6.775 9.774-11.242h-8.597v-4.313h10.56c.63-1.578 1.141-3.119 1.533-4.658l4.827 1.078c-.392 1.193-.785 2.387-1.255 3.58h19.158v4.313h-21.004zm12.054 7.045h-14.172v2.467h14.172zm0 8.781v-2.504h-14.172v2.504z" fill="#fff"/></svg>