<svg enable-background="new 0 0 64 64" height="64" viewBox="0 0 64 64" width="64" xmlns="http://www.w3.org/2000/svg" xmlns:xlink="http://www.w3.org/1999/xlink"><linearGradient id="a" gradientUnits="userSpaceOnUse" x1="32" x2="32" y1="2" y2="62"><stop offset="0" stop-color="#ff3b3b"/><stop offset=".2558" stop-color="#fb3737"/><stop offset=".5207" stop-color="#f02b2a"/><stop offset=".7889" stop-color="#dd1616"/><stop offset="1" stop-color="#c90100"/></linearGradient><path d="m2 32c0-16.564 13.439-30 30-30 16.572 0 30 13.436 30 30 0 16.57-13.428 30-30 30-16.561 0-30-13.43-30-30z" fill="url(#a)"/><g fill="#fff"><path d="m22.239 22.815c-1.908 3.311-5.219 6.575-8.231 8.784.652 1.203 1.756 3.914 2.006 4.969 1.055-.854 2.109-1.807 3.164-2.861v15.059h4.418v-20.18c1.053-1.354 2.008-2.811 2.762-4.165z"/><path d="m25.753 16.841-4.166-1.707c-1.506 2.359-4.467 5.221-7.025 6.928.6.954 1.606 2.911 1.957 3.915 3.162-2.208 6.828-5.873 9.234-9.136z"/><path d="m43.323 35.765v-1.758h3.764v-3.814h-20.779v3.814h12.297v1.758h-13.202v3.914h4.619l-2.459 1.608c1.504 1.506 3.26 3.563 4.064 4.971l3.363-2.41c-.703-1.205-2.209-2.813-3.564-4.168h7.178v4.52c0 .451-.15.602-.65.602-.504 0-1.959 0-3.465-.051.551 1.154 1.205 2.861 1.355 4.117 2.561 0 4.367-.051 5.721-.703 1.406-.652 1.758-1.809 1.758-3.865v-4.619h4.668v-3.914h-4.668z"/><path d="m46.335 16.188h-18.574v12.55h18.574zm-4.969 9.487h-8.885v-1.756h8.885zm0-4.668h-8.885v-1.705h8.885z"/></g></svg>