<svg enable-background="new 0 0 64 64" height="64" viewBox="0 0 64 64" width="64" xmlns="http://www.w3.org/2000/svg" xmlns:xlink="http://www.w3.org/1999/xlink"><linearGradient id="a" gradientUnits="userSpaceOnUse" x1="14.0697" x2="49.9302" y1="14.0697" y2="49.9302"><stop offset=".0225" stop-color="#5fcff6"/><stop offset=".1226" stop-color="#54c7f1"/><stop offset=".296" stop-color="#38b3e3"/><stop offset=".5207" stop-color="#0b92ce"/><stop offset=".5644" stop-color="#018bc9"/><stop offset=".7155" stop-color="#0187c5"/><stop offset=".8718" stop-color="#007aba"/><stop offset=".9816" stop-color="#006dae"/></linearGradient><linearGradient id="b" gradientUnits="userSpaceOnUse" x1="19.5018" x2="44.5344" y1="19.5335" y2="44.5662"><stop offset=".0613" stop-color="#b6e4fa"/><stop offset=".6646" stop-color="#75d6ff"/><stop offset=".7882" stop-color="#72d2fb"/><stop offset=".9161" stop-color="#68c8ee"/><stop offset="1" stop-color="#5fbde2"/></linearGradient><path d="m41.536 11.163s5.485-6.313 20.462-2.028c-39.512-24.995-72.904 22.03-39.534 43.702 0 0-5.485 6.314-20.462 2.028 39.512 24.995 72.904-22.031 39.534-43.702zm-12.231 42.895c7.818-4.384 7.438-9.306 7.438-9.306-22.413 4.672-28.273-28.899-2.009-34.71-7.819 4.384-7.439 9.307-7.439 9.307 22.413-4.674 28.273 28.897 2.01 34.709z" fill="url(#a)"/><path d="m36.742 44.752s.381 4.922-7.438 9.306c26.265-5.812 20.403-39.383-2.009-34.709 0 0-.382-4.923 7.437-9.307-26.263 5.811-20.402 39.382 2.01 34.71z" fill="url(#b)"/><circle cx="32.158" cy="32.759" fill="#fff" r="5.999"/></svg>