<svg enable-background="new 0 0 64 64" height="64" viewBox="0 0 64 64" width="64" xmlns="http://www.w3.org/2000/svg" xmlns:xlink="http://www.w3.org/1999/xlink"><linearGradient id="a" gradientUnits="userSpaceOnUse" x1="32.0005" x2="32.0005" y1="61" y2="2.0005"><stop offset="0" stop-color="#fa0"/><stop offset=".0979" stop-color="#ff9e00"/><stop offset=".3384" stop-color="#ff8500"/><stop offset=".4848" stop-color="#ff7c00"/><stop offset=".6779" stop-color="#e96100"/><stop offset="1" stop-color="#bf2d00"/></linearGradient><radialGradient id="b" cx="32" cy="44.0732" gradientUnits="userSpaceOnUse" r="32.1857"><stop offset=".3455" stop-color="#fa0"/><stop offset="1" stop-color="#fa0" stop-opacity="0"/></radialGradient><linearGradient id="c"><stop offset="0" stop-color="#ba4400"/><stop offset=".1713" stop-color="#a63900"/><stop offset=".5291" stop-color="#802600"/><stop offset=".8181" stop-color="#691a00"/><stop offset="1" stop-color="#611600"/></linearGradient><linearGradient id="d" gradientUnits="userSpaceOnUse" x1="45.8242" x2="45.8242" xlink:href="#c" y1="44.1543" y2="21.3491"/><linearGradient id="e"><stop offset="0" stop-color="#8c3400"/><stop offset=".0711" stop-color="#853000"/><stop offset=".4723" stop-color="#5f1e00"/><stop offset=".7961" stop-color="#481300"/><stop offset="1" stop-color="#400f00"/></linearGradient><linearGradient id="f" gradientUnits="userSpaceOnUse" x1="51.4902" x2="51.4902" xlink:href="#e" y1="44.1543" y2="21.3491"/><linearGradient id="g" gradientUnits="userSpaceOnUse" x1="38.5684" x2="38.5684" xlink:href="#c" y1="60.5869" y2="33.9844"/><linearGradient id="h" gradientUnits="userSpaceOnUse" x1="44.1787" x2="44.1787" xlink:href="#e" y1="60.5869" y2="33.9844"/><linearGradient id="i"><stop offset="0" stop-color="#b84400"/><stop offset=".3222" stop-color="#872e00"/><stop offset=".6158" stop-color="#611e00"/><stop offset=".8516" stop-color="#4a1400"/><stop offset="1" stop-color="#421000"/></linearGradient><linearGradient id="j" gradientUnits="userSpaceOnUse" x1="10.2344" x2="24.2344" xlink:href="#i" y1="26.5" y2="26.5"/><linearGradient id="k" gradientUnits="userSpaceOnUse" x1="9.2344" x2="25.2344" xlink:href="#i" y1="42" y2="42"/><linearGradient id="l" gradientUnits="userSpaceOnUse" x1="17.2344" x2="17.2344" xlink:href="#i" y1="61" y2="45"/><linearGradient id="m" gradientUnits="userSpaceOnUse" x1="50.9766" x2="50.9766" xlink:href="#c" y1="62" y2="43"/><linearGradient id="n" gradientUnits="userSpaceOnUse" x1="57.8379" x2="57.8379" xlink:href="#e" y1="62" y2="43"/><linearGradient id="o" gradientUnits="userSpaceOnUse" x1="26.4297" x2="26.4297" xlink:href="#c" y1="61.333" y2="42.1377"/><linearGradient id="p" gradientUnits="userSpaceOnUse" x1="33.6377" x2="33.6377" xlink:href="#e" y1="61.333" y2="42.1377"/><linearGradient id="q" gradientUnits="userSpaceOnUse" x1="7.7393" x2="7.7393" xlink:href="#c" y1="61" y2="47.502"/><linearGradient id="r" gradientUnits="userSpaceOnUse" x1="11.1777" x2="11.1777" xlink:href="#e" y1="61" y2="47.502"/><path d="m2 2h60v59h-60z" fill="url(#a)"/><path d="m2 2h60v59h-60z" fill="url(#b)"/><path d="m42.157 21.349h7.334v22.806h-7.334z" fill="url(#d)"/><path d="m48.824 21.349h5.333v22.806h-5.333z" fill="url(#f)"/><path d="m36.205 32.86h6.498v1.401h-6.498z" fill="#852700"/><path d="m40.93 32.86h3.545v1.401h-3.545z" fill="#450c00"/><path d="m34.434 33.984h8.27v26.603h-8.27z" fill="url(#g)"/><path d="m42.111 33.984h4.135v26.603h-4.135z" fill="url(#h)"/><path d="m12.234 16h10v2h-10z" fill="#852700"/><path d="m10.234 17h14v19h-14z" fill="url(#j)"/><path d="m9.234 32h16v20h-16z" fill="url(#k)"/><path d="m8.234 45h18v16h-18z" fill="url(#l)"/><path d="m46.795 41.396h10.643v2h-10.643z" fill="#852700"/><path d="m55.158 41.396h2.561v2h-2.561z" fill="#450c00"/><path d="m44.516 43h12.922v19h-12.922z" fill="url(#m)"/><path d="m55.678 43h4.32v19h-4.32z" fill="url(#n)"/><path d="m51.763 44.5h2v1h-2z" fill="#ff7c30"/><g fill="#ffac30"><path d="m38.454 36h2v1h-2z"/><path d="m36.184 39.667h2v1h-2z"/><path d="m39.454 47.092h2v1h-2z"/><path d="m46.017 29.655h2v1h-2z"/><path d="m43.179 24.905h2v1h-2z"/><path d="m19.991 19.03h2v1h-2z"/><path d="m15.391 28.655h2v1h-2z"/><path d="m19.991 24.905h2v1h-2z"/><path d="m12.149 22.474h2v1h-2z"/><path d="m12.149 33.762h2v1h-2z"/><path d="m18.626 37.168h2v1h-2z"/><path d="m12.149 39.167h2v1h-2z"/><path d="m15.897 42h2v1h-2z"/><path d="m17.234 48.646h2v1h-2z"/><path d="m14.391 54.959h2v1h-2z"/><path d="m37.184 52.863h2v1h-2z"/></g><path d="m49.824 46.785h2v1h-2z" fill="#ff7c30"/><path d="m52.157 52.129h2v1h-2z" fill="#ff7c30"/><path d="m46.246 55.625h2v1h-2z" fill="#ff7c30"/><path d="m22.26 41.037h8.809v1.372h-8.809z" fill="#852700"/><path d="m30.334 41.037h4.404v1.372h-4.404z" fill="#450c00"/><path d="m20.791 42.138h11.277v19.195h-11.277z" fill="url(#o)"/><path d="m31.068 42.138h5.139v19.195h-5.139z" fill="url(#p)"/><path d="m4 47.502h7.479v13.498h-7.479z" fill="url(#q)"/><path d="m8.799 47.502h4.758v13.498h-4.758z" fill="url(#r)"/><path d="m49 59c-6 2.496-13 0-14 0-3.182 0-6.176 2.159-8 2-1.896-.165-5.096-2-7-2-.828 0-2.969 1.352-5 1-.889-.154-5.1-2-6-2-1.375 0-7 2-7 2v2h60v-3s-4.666-2-6-2c-1.125 0-5.152 1.232-7 2z" fill="#942300"/><path d="m22.554 43.654h2v1h-2z" fill="#ff7c30"/><path d="m27.013 47.916h2v1h-2z" fill="#ff7c30"/><path d="m5.739 54.459h2v1h-2z" fill="#ff7c30"/><path d="m4.739 50.735h2v1h-2z" fill="#ff7c30"/><path d="m23.554 53.625h2v1h-2z" fill="#ff7c30"/></svg>