<svg enable-background="new 0 0 64 64" height="64" viewBox="0 0 64 64" width="64" xmlns="http://www.w3.org/2000/svg" xmlns:xlink="http://www.w3.org/1999/xlink"><radialGradient id="a" cx="32.5" cy="62" gradientTransform="matrix(1 0 0 .6847 -.000488 19.5463)" gradientUnits="userSpaceOnUse" r="106.4122"><stop offset=".1091" stop-color="#ffea80"/><stop offset=".3818" stop-color="#190bb0"/><stop offset=".4046" stop-color="#180aa2"/><stop offset=".4899" stop-color="#150674"/><stop offset=".5717" stop-color="#120450"/><stop offset=".6477" stop-color="#100236"/><stop offset=".7159" stop-color="#0f0026"/><stop offset=".7697" stop-color="#0f0021"/></radialGradient><linearGradient id="b" gradientUnits="userSpaceOnUse" x1="1.999512" x2="61.999712" y1="62" y2="1.9998"><stop offset=".2" stop-color="#ff00b7" stop-opacity="0"/><stop offset=".47" stop-color="#57dcff" stop-opacity=".5"/><stop offset=".52" stop-color="#57dcff" stop-opacity=".5"/><stop offset=".8" stop-color="#ff00b7" stop-opacity="0"/></linearGradient><linearGradient id="c" gradientTransform="matrix(.7071 -.7071 .7071 .7071 -181.5416 161.3828)" gradientUnits="userSpaceOnUse" x1="233.4922" x2="256.4178" y1="56.4131" y2="56.4131"><stop offset=".2485" stop-color="#02005e" stop-opacity="0"/><stop offset=".5" stop-color="#02005e"/><stop offset="1" stop-color="#02005e" stop-opacity="0"/></linearGradient><path d="m2 2h59.999v60h-59.999z" fill="url(#a)"/><path d="m2 2h59.999v60h-59.999z" fill="url(#b)"/><path d="m44.025 30.757c-1.033-.992-3.395 1.243-4.037-.393-1.197-3.044-2.834 1.588-4.457-1.592-.918-1.798-2.15 1.585-3.997-.149-1.028-.966 4.288-3.221-.975-2.636-1.748.194-1.183-1.44-2.182-1.943-1.221-.614-1.041-3.475-2.271-2.315-1.331 1.254-2.218-4.486-3.004-1.807-.869 2.963-2.587-1.242-3.591-.866-3.027 1.132 2.419-3.856-.29-4.152-2.104-.229-2.274.096-3.118-1.063-1.619-2.224-3.676 2.854-5.747 1.471-.919-.614.813-2.652 1.372-3.853.891-1.908-2.624-1.979-2.722-3.633-.217-3.732-7.006-5.826-7.006-5.826v1.854s4.235 1.779 3.995 3.533c-.27 1.967 2.596 2.021 1.558 3.579-1.96 2.94.438 2.084-.363 3.9-1.109 2.515 3.675 1.366 4.671 3.121.558.982.538 6.535 2.558 4.708 2.828-2.559 3.068 5.997 6.152 3.584 2.403-1.881-2.346 8.021.574 6.857 1.328-.529 6.819-1.365 6.346.377-1.754 6.454 2.396 1.046 4.759.928 4.142-.207-3.236 8.104 1.078 5.744 1.369-.749 3.594-4.416 4.479-3.732 3.277 2.532 3.098 5.255 2.939 6.551-.332 2.744 5.496-3.475 4.121-1.318-1.607 2.519 1.578 1.572.277 3.532-2.467 3.717.938 1.399 2.504 3.54 1.814 2.479 4.516-.752 3.598 3.604-.062.293 10.754.881 10.754.881v-5.237c-4.176 4.402-6.07.392-7.881-.331-3.084-1.231.5-2.326-2.709-3.557-1.453-.557 3.834-2.433 1.543-3.464-3.908-1.759.357-2.525-3.01-3.766-3.48-1.281 3.613-2.056 5.168-6.245 1.321-3.556-7.576 3.49-11.086.114z" fill="url(#c)" opacity=".35"/><path d="m2 55.283s5.414-2.82 7.5-2.985c2.658-.211 7.654 2.449 10.313 2.238 2.086-.164 5.428-2.737 7.5-2.985 1.41-.17 4.232.985 5.625.746 1.652-.281 3.935-2.965 5.625-2.984 2.211-.026 5.289 3.687 7.5 3.73 2.412.051 6.066-1.827 8.438-2.189 1.857-.281 7.5 2.39 7.5 2.39v8.756h-60.001z" fill="#1a1626"/><g fill="#fff"><path d="m22.227 21.236c.877 0 .875-1.314-.001-1.314-.877 0-.877 1.314.001 1.314z" opacity=".3"/><path d="m25.516 26.498c.877 0 .877-1.313 0-1.313-.875 0-.875 1.313 0 1.313z" opacity=".3"/><path d="m22.885 26.938c.876 0 .875-1.315-.001-1.315s-.876 1.315.001 1.315z" opacity=".7"/><path d="m46.641 42.26c.877 0 .877-1.315 0-1.315s-.877 1.315 0 1.315z" opacity=".3"/><path d="m36.48 31.76c.877 0 .877-1.315 0-1.315s-.878 1.315 0 1.315z" opacity=".3"/><path d="m22.665 14.174c.878 0 .878-1.313 0-1.313-.879-.001-.877 1.315 0 1.313z" opacity=".7"/><path d="m6.672 3.853c.879 0 .878-1.314 0-1.313-.878-.001-.878 1.313 0 1.313z" opacity=".3"/><path d="m13.648 4.96c.877 0 .877-1.313 0-1.313-.878-.002-.879 1.313 0 1.313z" opacity=".3"/><path d="m6.235 6.29c.878 0 .878-1.317 0-1.314-.877-.003-.878 1.314 0 1.314z" opacity=".3"/><path d="m33.408 42.564c.879 0 .877-1.314 0-1.314s-.877 1.313 0 1.314z" opacity=".3"/><path d="m43.08 47.559c.879.001.879-1.313 0-1.313-.877-.001-.877 1.313 0 1.313z" opacity=".3"/><path d="m31.218 38.779c.878 0 .877-1.314 0-1.314-.878 0-.878 1.313 0 1.314z" opacity=".3"/><path d="m16.829 33.953c.877-.002.877-1.314-.001-1.314-.877 0-.877 1.314.001 1.314z" opacity=".7"/><path d="m9.779 47.976c.878 0 .878-1.313 0-1.313-.878-.003-.878 1.315 0 1.313z" opacity=".3"/><path d="m7.552 28.497c.878-.001.878-1.314 0-1.316-.878.002-.878 1.315 0 1.316z" opacity=".7"/><path d="m55.385 8.326c.877 0 .877-1.315.002-1.315-.881 0-.881 1.315-.002 1.315z" opacity=".7"/><path d="m33.848 13.146c.879 0 .879-1.315.002-1.315-.88 0-.88 1.315-.002 1.315z" opacity=".3"/><path d="m51.373 31.169c.875.001.877-1.314 0-1.314-.879-.001-.879 1.315 0 1.314z" opacity=".7"/><path d="m41.523 14.175c.879 0 .879-1.314 0-1.315-.877-.001-.877 1.315 0 1.315z" opacity=".3"/><path d="m42.863 40.505c.877.002.877-1.315 0-1.316s-.877 1.316 0 1.316z" opacity=".3"/><path d="m29.033 29.567c.878-.012.86-1.325-.018-1.316-.877.01-.859 1.327.018 1.316z" opacity=".3"/><path d="m36.48 26.718c.584-.001.582-.877 0-.877-.584 0-.584.877 0 .877z" opacity=".7"/><path d="m27.806 22.991c.585-.002.584-.878 0-.878-.589 0-.586.876 0 .878z" opacity=".3"/><path d="m15.666 22.796c.586-.001.586-.878 0-.879-.586.001-.586.878 0 .879z" opacity=".3"/><path d="m12.3 16.448c.585 0 .584-.877-.001-.877-.586-.001-.586.877.001.877z" opacity=".3"/><path d="m5.996 17.9c.584 0 .584-.879 0-.878-.587-.001-.587.878 0 .878z" opacity=".3"/><path d="m18.062 49.751c.585 0 .585-.878-.002-.877-.585 0-.585.877.002.877z" opacity=".3"/><path d="m10.586 3.853c.584 0 .586-.876-.002-.876-.584 0-.584.876.002.876z" opacity=".7"/><path d="m21.348 9.497c.586-.001.586-.878 0-.879-.588 0-.587.878 0 .879z" opacity=".7"/><path d="m19.815 22.771c.585 0 .585-.88.001-.878-.585.001-.586.878-.001.878z" opacity=".3"/><path d="m16.61 20.141c.585 0 .584-.878 0-.879-.584.001-.584.879 0 .879z" opacity=".7"/><path d="m31.218 30.444c.586.002.586-.877 0-.876-.586-.001-.586.878 0 .876z" opacity=".3"/><path d="m41.305 35.929c.582 0 .582-.88 0-.878-.586 0-.586.878 0 .878z" opacity=".3"/><path d="m44.449 32.86c.582-.001.582-.878 0-.879-.586 0-.586.879 0 .879z" opacity=".7"/><path d="m47.646 28.033c.584-.001.584-.876 0-.879-.583 0-.583.879 0 .879z" opacity=".7"/><path d="m59.779 17.022c.582 0 .582-.877-.002-.877s-.584.877.002.877z" opacity=".3"/><path d="m52.656 13.736c.584.002.584-.877 0-.876-.584 0-.584.876 0 .876z" opacity=".3"/><path d="m55.084 25.185c.584-.002.584-.878 0-.879-.584 0-.584.879 0 .879z" opacity=".3"/><path d="m52.186 41.907c.582 0 .584-.877 0-.879-.586 0-.586.879 0 .879z" opacity=".7"/><path d="m59.779 33.952c.584-.002.582-.877 0-.877-.586 0-.586.877 0 .877z" opacity=".7"/><path d="m37.795 45.424c.584-.002.584-.878 0-.88-.584 0-.584.88 0 .88z" opacity=".3"/><path d="m29.464 49.313c.582 0 .582-.879 0-.879-.586.002-.586.879 0 .879z" opacity=".3"/><path d="m21.789 42.479c.583 0 .583-.877 0-.875-.586 0-.586.875 0 .875z" opacity=".7"/><path d="m13.715 27.813c.582 0 .582-.877-.001-.876-.586.001-.587.876.001.876z" opacity=".3"/><path d="m16.61 40.406c.584-.001.582-.877 0-.877-.585 0-.586.876 0 .877z" opacity=".3"/><path d="m12.836 31.545c.584 0 .584-.878 0-.879-.585 0-.585.879 0 .879z" opacity=".3"/><path d="m21.569 31.105c.584-.002.584-.878 0-.88-.585.001-.585.88 0 .88z" opacity=".3"/><path d="m17.624 25.402c.583-.001.583-.877 0-.879-.587 0-.587.879 0 .879z" opacity=".3"/><path d="m24.86 21.237c.585 0 .585-.876 0-.876-.586 0-.586.876 0 .876z" opacity=".3"/><path d="m48.584 37.903c.877 0 .875-1.317 0-1.317-.877 0-.877 1.317 0 1.317z" opacity=".3"/><path d="m45.107 36.146c.877 0 .877-1.313 0-1.313s-.877 1.314 0 1.313z" opacity=".3"/><path d="m50.119 40.843c.877 0 .877-1.313 0-1.313-.879-.001-.879 1.314 0 1.313z" opacity=".3"/><path d="m55.742 44.118c.877 0 .877-1.314 0-1.314-.879 0-.877 1.315 0 1.314z" opacity=".3"/><path d="m57.984 49.976c.877 0 .877-1.313 0-1.313-.879-.002-.879 1.315 0 1.313z" opacity=".3"/><path d="m45.523 39.189c.877 0 .877-1.317 0-1.317-.877.001-.877 1.317 0 1.317z" opacity=".3"/><path d="m59.779 47.761c.875 0 .877-1.317 0-1.317s-.877 1.317 0 1.317z" opacity=".3"/><path d="m47.648 33.587c.875 0 .875-1.314 0-1.314-.878-.002-.88 1.314 0 1.314z" opacity=".3"/><path d="m49.68 48.663c.877 0 .877-1.314 0-1.314s-.877 1.313 0 1.314z" opacity=".3"/><path d="m49.865 45.349c.877 0 .877-1.315 0-1.315s-.877 1.314 0 1.315z" opacity=".3"/><path d="m39.33 41.686c.877 0 .877-1.315 0-1.315s-.877 1.314 0 1.315z" opacity=".3"/><path d="m34.068 34.245c.877 0 .877-1.315 0-1.316-.879 0-.879 1.316 0 1.316z" opacity=".7"/><path d="m17.624 16.229c.876 0 .876-1.314 0-1.314-.88 0-.878 1.315 0 1.314z" opacity=".3"/><path d="m9.708 14.176c.876 0 .875-1.316 0-1.316-.877 0-.877 1.316 0 1.316z" opacity=".7"/><path d="m10.106 10.492c.877 0 .877-1.316 0-1.316-.877.002-.877 1.315 0 1.316z" opacity=".3"/><path d="m15.227 10.154c.875 0 .875-1.315 0-1.315-.879-.001-.88 1.315 0 1.315z" opacity=".3"/><path d="m4.306 13.341c.876 0 .875-1.315-.002-1.315-.876-.001-.877 1.315.002 1.315z" opacity=".7"/><path d="m17.185 6.832c.875 0 .874-1.316-.001-1.316-.877 0-.878 1.316.001 1.316z" opacity=".3"/><path d="m39.109 28.032c.586 0 .586-.877 0-.877s-.584.877 0 .877z" opacity=".3"/><path d="m32.75 24.961c.588 0 .588-.876 0-.876-.583 0-.583.876 0 .876z" opacity=".7"/><path d="m22.227 23.868c.583-.001.583-.877 0-.878-.586 0-.586.878 0 .878z" opacity=".3"/><path d="m14.417 17.9c.876.002.878-1.316 0-1.316-.876 0-.876 1.316 0 1.316z" opacity=".3"/><path d="m38.451 34.893c.879-.001.879-1.318 0-1.316-.875-.001-.875 1.316 0 1.316z" opacity=".3"/><path d="m32.751 18.563c.584.002.584-.874 0-.875-.585 0-.585.875 0 .875z" opacity=".7"/><path d="m36.922 4.73c.582.001.582-.875 0-.877-.588.002-.588.878 0 .877z" opacity=".7"/><path d="m23.105 17.138c.584 0 .584-.877 0-.877-.586 0-.586.877 0 .877z" opacity=".7"/><path d="m46.99 16.01c.584 0 .584-.875 0-.875-.586 0-.586.875 0 .875z" opacity=".7"/><path d="m29.682 9.935c.585 0 .585-.875 0-.875-.586 0-.584.875 0 .875z" opacity=".3"/><path d="m29.903 33.953c.584-.001.584-.878 0-.878-.586 0-.586.878 0 .878z" opacity=".3"/><path d="m23.749 31.762c.585-.001.585-.878 0-.878-.584 0-.584.877 0 .878z" opacity=".3"/><path d="m19.816 25.402c.586 0 .586-.879 0-.879-.585 0-.585.879 0 .879z" opacity=".3"/><path d="m13.712 21.894c.585 0 .585-.878.002-.877-.587 0-.587.877-.002.877z" opacity=".7"/><path d="m9.709 19.702c.584-.002.584-.878 0-.878-.586 0-.585.876 0 .878z" opacity=".3"/><path d="m9.449 16.449c.584-.002.584-.878 0-.879-.587 0-.587.879 0 .879z" opacity=".7"/><path d="m16.746 12.025c.584-.002.584-.878 0-.878-.586 0-.586.878 0 .878z" opacity=".3"/><path d="m6.435 10.713c.583 0 .583-.879 0-.879-.587 0-.587.879 0 .879z" opacity=".3"/><path d="m13.787 13.585c.585.001.585-.878 0-.878s-.585.879 0 .878z" opacity=".3"/><path d="m11.422 7.826c.583-.001.583-.878 0-.879-.587.001-.587.879 0 .879z" opacity=".7"/><path d="m12.109 10.375c.584.001.584-.877 0-.878-.587.001-.587.878 0 .878z" opacity=".3"/><path d="m9.01 6.795c.585.001.585-.876 0-.877-.587.001-.587.877 0 .877z" opacity=".3"/><path d="m7.553 14.903c.583 0 .583-.88 0-.878-.587-.002-.587.878 0 .878z" opacity=".3"/><path d="m6.674 22.552c.582 0 .584-.877 0-.878-.586 0-.586.878 0 .878z" opacity=".3"/><path d="m6.675 35.952c.585.001.585-.878 0-.877-.586 0-.586.878 0 .877z" opacity=".3"/><path d="m11.252 38.969c.585 0 .585-.877.001-.877-.586 0-.586.878-.001.877z" opacity=".7"/><path d="m27.491 43.004c.584 0 .584-.878 0-.879-.587.001-.587.877 0 .879z" opacity=".7"/><path d="m22.886 47.542c.583 0 .583-.88 0-.88-.587 0-.587.88 0 .88z" opacity=".7"/><path d="m5.49 44.34c.583-.001.583-.878 0-.879-.589 0-.589.879 0 .879z" opacity=".7"/><path d="m14.858 44.233c.583-.002.583-.88 0-.88-.587.002-.588.88 0 .88z" opacity=".7"/><path d="m11.565 23.235c.585-.001.586-.878 0-.878-.587 0-.587.877 0 .878z" opacity=".3"/><path d="m26.719 15.574c.585 0 .585-.879 0-.879-.585.001-.585.878 0 .879z" opacity=".7"/><path d="m44.18 6.613c.584-.001.584-.878 0-.879-.586.001-.586.879 0 .879z" opacity=".3"/><path d="m53.096 20.801c.582 0 .582-.878 0-.879-.586 0-.586.879 0 .879z" opacity=".3"/><path d="m58.939 28.105c.584 0 .584-.877-.002-.877-.585 0-.585.877.002.877z" opacity=".3"/><path d="m48.586 23.21c.611-.001.609-.877 0-.877-.615 0-.615.876 0 .877z" opacity=".7"/><path d="m58.904 42.347c.611 0 .611-.879 0-.879-.615 0-.615.879 0 .879z" opacity=".3"/><path d="m52.625 50.19c.609 0 .609-.879 0-.879-.617.001-.615.877 0 .879z" opacity=".3"/><path d="m45.984 46.303c.611-.003.611-.879 0-.88-.615.001-.615.877 0 .88z" opacity=".3"/><path d="m48.107 45.218c.611 0 .611-.878 0-.878-.615 0-.615.878 0 .878z" opacity=".3"/><path d="m53.816 47.103c.611 0 .613-.876 0-.878-.613.002-.615.878 0 .878z" opacity=".3"/><path d="m51.914 35.929c.613-.002.609-.878 0-.878-.613 0-.613.876 0 .878z" opacity=".3"/><path d="m57.326 38.066c.611.001.611-.877 0-.876-.613-.001-.613.877 0 .876z" opacity=".3"/><path d="m55.395 31.981c.611 0 .611-.879 0-.878-.616 0-.616.878 0 .878z" opacity=".7"/><path d="m25.737 29.351c.877 0 .877-1.317 0-1.317-.879-.001-.879 1.317 0 1.317z" opacity=".3"/><path d="m32.972 28.473c.583 0 .583-.876-.002-.876s-.584.876.002.876z" opacity=".3"/><path d="m28.584 26.498c.879 0 .879-1.315 0-1.315-.876.001-.876 1.317 0 1.315z" opacity=".3"/><path d="m33.189 31.542c.879 0 .877-1.316 0-1.316-.876 0-.877 1.316 0 1.316z" opacity=".3"/><path d="m41.305 31.981c.582-.002.582-.878 0-.879-.586.001-.586.879 0 .879z" opacity=".3"/><path d="m43.303 29.131c.584 0 .582-.877 0-.877-.586 0-.586.877 0 .877z" opacity=".3"/><path d="m19.503 28.936c.583.003.583-.877 0-.876-.585 0-.585.876 0 .876z" opacity=".3"/><path d="m27.597 19.441c.583-.001.583-.878 0-.879-.586.001-.586.879 0 .879z" opacity=".3"/><path d="m26.611 34.673c.586-.001.586-.878 0-.876-.583-.002-.583.875 0 .876z" opacity=".7"/><path d="m23.542 36.805c.586.001.586-.875 0-.876-.584 0-.584.876 0 .876z" opacity=".3"/><path d="m37.141 38.342c.584 0 .586-.877 0-.877s-.586.879 0 .877z" opacity=".7"/><path d="m40.865 23.43c.584 0 .584-.878 0-.878-.584-.002-.584.878 0 .878z" opacity=".3"/><path d="m37.578 20.361c.586 0 .586-.878.002-.878-.584-.001-.584.878-.002.878z" opacity=".3"/></g></svg>