<svg enable-background="new 0 0 64 64" height="64" viewBox="0 0 64 64" width="64" xmlns="http://www.w3.org/2000/svg" xmlns:xlink="http://www.w3.org/1999/xlink"><linearGradient id="a"><stop offset="0" stop-color="#00b7d9"/><stop offset=".2266" stop-color="#00b3d6"/><stop offset=".4511" stop-color="#00a7cf"/><stop offset=".675" stop-color="#0093c2"/><stop offset=".897" stop-color="#0078b0"/><stop offset="1" stop-color="#0068a6"/></linearGradient><radialGradient id="b" cx="-56.2461" cy="-217.6328" gradientTransform="matrix(.6795 0 0 .6395 69.583 175.0037)" gradientUnits="userSpaceOnUse" r="42.0859" xlink:href="#a"/><radialGradient id="c" cx="-47.1699" cy="-213.0146" gradientTransform="matrix(.6795 0 0 .6395 69.583 175.0037)" gradientUnits="userSpaceOnUse" r="33.0588" xlink:href="#a"/><radialGradient id="d" cx="-38.833" cy="-209.1426" gradientTransform="matrix(.6795 0 0 .6395 69.583 175.0037)" gradientUnits="userSpaceOnUse" r="25.3666" xlink:href="#a"/><radialGradient id="e" cx="-54.8838" cy="-238.3154" gradientTransform="matrix(.6795 0 0 .6395 69.583 175.0037)" gradientUnits="userSpaceOnUse" r="38.4045"><stop offset=".5212" stop-color="#e8ffff"/><stop offset=".5955" stop-color="#e2feff"/><stop offset=".69" stop-color="#d3faff"/><stop offset=".7955" stop-color="#b9f5ff"/><stop offset=".9081" stop-color="#95edff"/><stop offset=".9636" stop-color="#80e8ff"/></radialGradient><path d="m9.768 17.438c-26.927 32.094 22.552 60.593 50.961 34.133-33.295 3.225-20.95-26.726-6.965-13.608 1.814-25.487-29.98-37.23-43.996-20.525z" fill="url(#b)"/><path d="m18.8 26.925c-16.8 21.344 17.469 44.685 41.929 24.646-33.295 3.225-20.95-26.726-6.965-13.608-1.466-16.272-21.14-28.598-34.964-11.038z" fill="url(#c)"/><path d="m29.837 32.346c-15.387 18.342 15.614 33.455 30.892 19.225-33.295 3.225-20.95-26.726-6.965-13.608.71-15.179-15.024-16.227-23.927-5.617z" fill="url(#d)"/><path d="m36.528 18.479c-1.266-.991-5.235-2.079-5.909-1.665-13.036 2.437-24.715 21.663-10.379 34.789-14.309-15.943 2.561-32.418 16.288-33.124z" fill="#75d6ff"/><path d="m20.64 40.888c.765-11.634 9.916-17.725 19.398-20.176l.202-1.813c-10.206 3.146-21.298 10.649-19.6 21.989z" fill="#a8e5ff"/><path d="m7.552 39.479c2.011-14.873 10.179-23.654 21.54-27.298l.043-2.384c-12.17 4.591-21.596 13.662-21.583 29.682z" fill="#a8e5ff"/><path d="m34.57 43.992c-1.274-11.191 9.443-15.388 18.404-11.75l.127-1.599c-10.659-3.883-22.099 3.038-18.531 13.349z" fill="#a8e5ff"/><path d="m45.059 26.358c-.52-.551-2.071-2.12-2.319-2.362-9.071-.847-28.576 18.421-9.757 29.709-16.532-12.989 2.482-28.359 12.076-27.347z" fill="#75d6ff"/><path d="m57.675 40.034c8.037.959 2.684-5.385 1.242-7.568 3.341-1.013 2.606-6.144-.141-7.754 4.473-3.57 2.463-9.153-8.069-8.354-.283-2.665-1.619-5.152-5.096-5.196 1.472-1.971-.198-4.072-4.12-3.956.114-4.264-4.161-3.385-4.976-1.919.814-2.005-1.564-5.436-6.151-1.438-1.643 1.431-4.884-.24-6.073 2.118-1.741-3.237-10.404-1.439-11.083 4.037-.458 3.696-13.038 9.993-10.215 19.429 1.467-6.52 8.658-14.003 12.804-12.904 4.334 1.149 5.482-1.047 5.078-2.58 1.308 1.926 3.898 1.966 4.79.187-.17 4.137 2.449 4.922 6.626 2.983 1.111 1.838 5.796 2.508 5.284 4.716-1.497 6.455 4.552 6.77 4.788 3.677.635 4.831 4.862 4.157 5.584 2.519 1.784 2.438-.892 5.117 3.61 5.776-1.047 2.535 1.019 5.156 2.356 4.976-2.25 3.716 3.228 7.133 3.762 1.251z" fill="url(#e)"/><g fill="#c2f8ff"><path d="m51.008 43.208c-1.347-.088-1.455 2.66-.108 2.746 1.344.09 1.451-2.659.108-2.746z"/><path d="m51.798 11.08c-.645 1.116 1.965 2.353 2.608 1.235.647-1.113-1.966-2.349-2.608-1.235z"/><path d="m25.083 3.33c.288 1.242 3.121.57 2.832-.671-.287-1.241-3.121-.567-2.832.671z"/><path d="m48.728 6.586c-.406.7 1.233 1.478 1.638.775.405-.698-1.235-1.475-1.638-.775z"/><path d="m45.151 32.689c-2.304-.147-2.487 4.558-.184 4.704 2.303.151 2.483-4.553.184-4.704z"/></g><path d="m44.671 17.428c-.917 1.354 2.259 3.133 3.176 1.778.92-1.351-2.256-3.127-3.176-1.778z" fill="#a8e5ff"/><path d="m37.653 11.042c-.676.997 1.664 2.308 2.34 1.311.678-.996-1.663-2.305-2.34-1.311z" fill="#a8e5ff"/><path d="m23.203 8.322c-.676.997 1.664 2.308 2.34 1.31.677-.996-1.664-2.304-2.34-1.31z" fill="#a8e5ff"/><path d="m47.554 24.017c-.641.945 1.577 2.187 2.218 1.241.641-.942-1.577-2.183-2.218-1.241z" fill="#a8e5ff"/><path d="m32.384 20.941c-2.336-.152-2.523 4.62-.187 4.77 2.336.155 2.521-4.619.187-4.77z" fill="#c2f8ff"/><path d="m20.099 20.333c-1.348-.087-1.455 2.661-.107 2.747 1.343.089 1.451-2.66.107-2.747z" fill="#c2f8ff"/></svg>