<svg enable-background="new 0 0 64 64" height="64" viewBox="0 0 64 64" width="64" xmlns="http://www.w3.org/2000/svg" xmlns:xlink="http://www.w3.org/1999/xlink"><linearGradient id="a"><stop offset="0" stop-color="#bd0000" stop-opacity="0"/><stop offset=".5576" stop-color="#bd0000"/></linearGradient><linearGradient id="b" gradientUnits="userSpaceOnUse" x1="48.4316" x2="48.4316" xlink:href="#a" y1="46.334" y2="13.5008"/><linearGradient id="c"><stop offset=".1515" stop-color="#cf5700" stop-opacity="0"/><stop offset="1" stop-color="#eb6300"/></linearGradient><linearGradient id="d" gradientUnits="userSpaceOnUse" x1="48.4316" x2="48.4316" xlink:href="#c" y1="34.7871" y2="14.0917"/><linearGradient id="e" gradientUnits="userSpaceOnUse" x1="31.999" x2="31.999" xlink:href="#a" y1="46.334" y2="12.0005"/><linearGradient id="f" gradientUnits="userSpaceOnUse" x1="34.2871" x2="34.2871" xlink:href="#c" y1="46.334" y2="12.0005"/><linearGradient id="g" gradientUnits="userSpaceOnUse" x1="30.2559" x2="30.2559" y1="34.0781" y2="22.6343"><stop offset="0" stop-color="#eb6300"/><stop offset=".2026" stop-color="#e85f00"/><stop offset=".4034" stop-color="#de5300"/><stop offset=".6035" stop-color="#ce3f00"/><stop offset=".8021" stop-color="#b82400"/><stop offset="1" stop-color="#9c0000"/></linearGradient><linearGradient id="h" gradientUnits="userSpaceOnUse" x1="16.999" x2="16.999" xlink:href="#a" y1="46.334" y2="13.6206"/><linearGradient id="i" gradientUnits="userSpaceOnUse" x1="16.999" x2="16.999" xlink:href="#c" y1="35.1426" y2="13.6206"/><path d="m2 62.001h60v-45.529c-24.666 9.9-39.115-8.91-60 0z" fill="#f2f5f7"/><path d="m62 62.001h-60v-38.686c24.664 9.149 39.113-8.236 60 0z" fill="#e6ebef"/><path d="m2 62.001h60v-32.1c-24.666 9.899-39.115-8.912-60 0z" fill="#cfd8dd"/><path d="m34.863 15.099v4.078c1.439 1.356 2.998 2.69 4.656 3.97v23.188h1.182v-22.309c1.156.852 2.336 1.685 3.551 2.476v19.832h1.182v-19.092c1.174.735 2.355 1.445 3.547 2.103v16.989h1.184v-16.364c1.188.626 2.375 1.223 3.549 1.752v14.612h1.182v-14.108c1.205.514 2.396.981 3.549 1.369v12.739h1.184v-12.372c.814.247 1.602.444 2.373.618v-2.156c-8.846-2.004-20.156-9.377-27.139-17.325z" fill="url(#b)"/><path d="m34.863 15.099v2.462c6.983 7.949 18.293 14.849 27.137 16.714v-1.852c-8.844-2.003-20.154-9.376-27.137-17.324z" fill="url(#d)"/><path d="m28.451 12v34.334h7.096v-34.334zm3.37 22.066h-2.288v-11.444h2.288z" fill="url(#e)"/><path d="m33.027 12v34.334h2.52v-34.334z" fill="url(#f)"/><path d="m29.524 22.634v11.444h1.464v-11.444z" fill="url(#g)"/><path d="m30.391 13.62c-6.818 8.494-19 16.679-28.392 18.807v2.153c.771-.174 1.558-.372 2.374-.618v12.372h1.182v-12.739c1.153-.388 2.343-.855 3.547-1.369v14.108h1.186v-14.612c1.174-.529 2.357-1.126 3.547-1.752v16.364h1.183v-16.989c1.191-.657 2.376-1.367 3.55-2.103v19.092h1.182v-19.832c1.212-.791 2.393-1.624 3.548-2.476v22.308h1.183v-23.188c2.834-2.187 5.418-4.523 7.52-6.886v-2.64z" fill="url(#h)"/><path d="m2 32.5v1.98c12.64-2.795 25.274-12.859 29.999-18.22v-2.64c-7.274 9.52-20.366 16.993-29.999 18.88z" fill="url(#i)"/><path d="m62 62.001h-60v-22.047c24.664 7.986 39.113-7.189 60 0z" fill="#e6ebef"/><path d="m62 62.001h-60v-12.582c24.029-7.424 37.937 8.104 60 0z" fill="#cfd8dd"/></svg>