<svg enable-background="new 0 0 64 64" height="64" viewBox="0 0 64 64" width="64" xmlns="http://www.w3.org/2000/svg" xmlns:xlink="http://www.w3.org/1999/xlink"><radialGradient id="a" cx="28.5" cy="26.5" gradientUnits="userSpaceOnUse" r="35"><stop offset="0" stop-color="#4ecee6"/><stop offset=".1789" stop-color="#46c4e0"/><stop offset=".4862" stop-color="#30a8d0"/><stop offset=".8823" stop-color="#0c7cb6"/><stop offset="1" stop-color="#006dae"/></radialGradient><radialGradient id="b" cx="29.375" cy="29.125" gradientUnits="userSpaceOnUse" r="30"><stop offset="0" stop-color="#00ffe0" stop-opacity=".3"/><stop offset=".0987" stop-color="#00f5da" stop-opacity=".3691"/><stop offset=".2684" stop-color="#00d9cc" stop-opacity=".4879"/><stop offset=".4887" stop-color="#00acb3" stop-opacity=".6421"/><stop offset=".7479" stop-color="#006f92" stop-opacity=".8235"/><stop offset="1" stop-color="#002c6e"/></radialGradient><circle cx="32" cy="32" fill="url(#a)" r="30"/><g fill="#9bf500"><path d="m7.504 20.889c.939 1.795 2.051-.598 1.965 1.197-.084 1.795 1.197 5.811 1.967 5.299.77-.514.768-3.453 2.137-3.82 1.367-.367 3.332-2.676 3.93-1.65.6 1.025.428 2.906.941 2.479.512-.428 1.195 0 1.109 1.281-.084 1.283 1.111 3.078 1.453 3.762s-2.137-1.967-3.332-3.59c-1.197-1.623.854 3.418 2.393 5.299 1.537 1.879 7.35 3.246 8.887 4.016 1.539.77 5.727-1.453 4.102-1.367 0 0-3.674.514-5.041-.17s-4.445-.684-4.958-1.625c-.512-.941-.512-2.309-1.453-3.59-.939-1.283-1.537-3.59-.256-2.564s2.65 1.197 2.82.512c.172-.684-2.393-2.99-.77-4.016 1.625-1.025 3.162-.256 3.932-1.025s2.564-3.076 2.137-4.188-.514-1.881 0-2.223c.512-.342-2.479-.342-1.281-1.195 1.195-.855 2.477-1.623 2.563 0s0 3.076.598 3.076c.6 0 1.539-1.795 1.283-2.564-.258-.768.256-2.477 1.453-2.563 1.195-.086 2.563-2.051 2.904-4.018.342-1.965.342-3.504-.598-3.332-.828.15-.934-1.029.254-1.953-1.514-.236-3.065-.357-4.643-.357-12.187 0-22.68 7.27-27.373 17.709.977-.051 2.312.102 2.877 1.18z"/><path d="m42.627 7.9c-.672 1.191 1.129-.477 2.336-2.963-.586-.281-1.182-.543-1.787-.787.023 1.028-.022 2.811-.549 3.75z"/><path d="m34.252 16.873c1.367-.941 3.59-.941 3.59-2.82 0-1.881 5.383-5.127 4.102-5.043-1.281.086-3.76 2.479-3.76.855s0-4.615-.342-5.385c-.42-.943-.182 4.359-.561 5.299-.381.939.047 4.188-1.148 4.615-1.197.428-3.248 1.281-3.248 2.479 0 1.195 0 .94 1.367 0z"/><path d="m35.809 32.709c.74.57-.398 2.164.398 1.822.799-.342 1.652.551 2.053.049.398-.504.455-.891 1.709.156 1.252 1.049 2.164.832 1.367 0-.799-.832-1.539-2.25-3.191-2.736 0 0-1.766-.203-3.02-.773 0 0-1.719-.91-2.254-.342-.537.57-.463-1.594-.871-1.195-.406.398.219 1.709-.977 1.367-1.197-.342-1.596.057-1.938-.912s-2.051-.455-.684-1.195c1.367-.742 2.051-.969 2.107-.4.059.57 1.426-.512.912-2.051-.512-1.537-1.881-1.025-1.822-2.963.025-.883-1.367.342-1.141 1.426.229 1.082-.285 1.311-.797 2.164-.514.855-2.621 2.85-3.191 2.85-.568 0-.398 1.139 0 1.822s2.393.799 2.793.912c.398.113.854-3.076.969-2.223.113.855.283 3.418.568 2.85.285-.57 1.367.227 1.367-.342 0-.57-.455-1.533.627-.994 1.082.537 2.564.879 2.508.254-.055-.628 1.767-.116 2.508.454zm-6.61-6.666c.533 2.145-.74 2.449-1.139 2.107s1.01-2.629 1.139-2.107z"/><path d="m40.652 39.66c-1.652-1.482-2.393-3.873-2.793-4.215-.658-.566-.361 2.049-.578 2.563-.219.512-1.188-.627-1.643-.855-.457-.227-.172-.568 0-1.025.17-.455-.855-.852-1.652-.682-.799.17-.807-.059-1.115.568s-.064 1.174-.871.757-1.318.211-1.889.838c-.57.625-.797.854-1.025 1.311-.229.455-3.361.17-3.361 1.65 0 1.482 1.311 2.678 1.025 3.818-.285 1.139.229 2.336 1.197 1.766s2.393-.398 2.791-.854c.398-.457 3.076-1.197 3.533-.342.455.854.969 1.318 1.766 1.342.797.025.912.766.912 1.336 0 .568 1.195.113 1.879.342.684.227 2.336.057 2.451-1.254.113-1.311.854-2.223 1.139-2.906s-.113-2.677-1.766-4.158z"/><path d="m39.17 48.775c-.797-.113-.17 1.766.342 1.938.514.17.783-1.123.742-1.938-.033-.615-.285.114-1.084 0z"/><path d="m51.762 47.123c-.512.057-.912-1.254-1.254-.969-.668.559.799 1.881 0 2.621-.797.74-1.025 1.854-1.652 1.953-.627.098-1.594 1.01-.969 1.521.627.514 1.596 0 1.938-.967.342-.969.627-1.375 1.311-1.656s.627-1.08 1.254-1.564-.115-.996-.628-.939z"/></g><circle cx="32" cy="32" fill="url(#b)" opacity=".5" r="30"/></svg>