<svg enable-background="new 0 0 64 64" height="64" viewBox="0 0 64 64" width="64" xmlns="http://www.w3.org/2000/svg" xmlns:xlink="http://www.w3.org/1999/xlink"><linearGradient id="a"><stop offset="0" stop-color="#ffe12c"/><stop offset=".1414" stop-color="#ffdc2b"/><stop offset=".3081" stop-color="#fece26"/><stop offset=".4877" stop-color="#fdb61f"/><stop offset=".6763" stop-color="#fb9516"/><stop offset=".8701" stop-color="#f96b0a"/><stop offset="1" stop-color="#f74a00"/></linearGradient><radialGradient id="b" cx="22.7383" cy="24.5938" gradientTransform="matrix(.8855 .0355 -.1285 2.9092 16.028 -48.7819)" gradientUnits="userSpaceOnUse" r="7.354" xlink:href="#a"/><linearGradient id="c"><stop offset=".4242" stop-color="#fff"/><stop offset="1" stop-color="#fff" stop-opacity="0"/></linearGradient><radialGradient id="d" cx="169.0264" cy="7.9063" gradientTransform="matrix(1.3256 0 0 1 -192.0564 -.000539)" gradientUnits="userSpaceOnUse" r="5.9067" xlink:href="#c"/><radialGradient id="e" cx="12.8799" cy="16.7271" gradientTransform="matrix(1.0032 0 0 1 -.3621 -.000539)" gradientUnits="userSpaceOnUse" r="5.906" xlink:href="#c"/><radialGradient id="f" cx="16.9214" cy="12.2417" gradientTransform="matrix(1.0032 0 0 1 -.3621 -.000539)" gradientUnits="userSpaceOnUse" r="5.9065" xlink:href="#c"/><radialGradient id="g" cx="23.5537" cy="9.0361" gradientTransform="matrix(1.0032 0 0 1 -.3621 -.000539)" gradientUnits="userSpaceOnUse" r="5.9065" xlink:href="#c"/><radialGradient id="h" cx="1147.1895" cy="16.7271" gradientTransform="matrix(-1.0032 0 0 1 1202.3381 -.000539)" gradientUnits="userSpaceOnUse" r="5.906" xlink:href="#c"/><radialGradient id="i" cx="1151.2314" cy="12.2417" gradientTransform="matrix(-1.0032 0 0 1 1202.3381 -.000539)" gradientUnits="userSpaceOnUse" r="5.9065" xlink:href="#c"/><linearGradient id="j" gradientUnits="userSpaceOnUse" x1="2" x2="62" y1="46.7822" y2="46.7822"><stop offset="0" stop-color="#916958"/><stop offset=".21" stop-color="#8b6454"/><stop offset=".4866" stop-color="#7b5748"/><stop offset=".799" stop-color="#5f4034"/><stop offset="1" stop-color="#4a2f24"/></linearGradient><radialGradient id="k" cx="35.8721" cy="41.2607" gradientTransform="matrix(1.0032 0 0 .8758 -.3621 5.5857)" gradientUnits="userSpaceOnUse" r="16.798" xlink:href="#a"/><linearGradient id="l"><stop offset="0" stop-color="#f74a00"/><stop offset=".1275" stop-color="#f75002"/><stop offset=".3049" stop-color="#f86207"/><stop offset=".5117" stop-color="#fa8010"/><stop offset=".7405" stop-color="#fca91c"/><stop offset=".9849" stop-color="#ffde2b"/><stop offset="1" stop-color="#ffe12c"/></linearGradient><linearGradient id="m" gradientUnits="userSpaceOnUse" x1="18.7856" x2="18.7856" xlink:href="#l" y1="28.4072" y2="24.6226"/><linearGradient id="n" gradientUnits="userSpaceOnUse" x1="31.2808" x2="31.2808" xlink:href="#l" y1="28.875" y2="3.0005"/><linearGradient id="o" gradientUnits="userSpaceOnUse" x1="24.7407" x2="24.7407" xlink:href="#l" y1="27.4155" y2="3.2764"/><linearGradient id="p" gradientUnits="userSpaceOnUse" x1="20.9526" x2="20.9526" xlink:href="#l" y1="27.4736" y2="11.8481"/><linearGradient id="q" gradientUnits="userSpaceOnUse" x1="36.5645" x2="36.5645" xlink:href="#l" y1="24.3662" y2="5.8721"/><linearGradient id="r" gradientUnits="userSpaceOnUse" x1="44.0469" x2="44.0469" xlink:href="#l" y1="27.7065" y2="12.3125"/><linearGradient id="s" gradientUnits="userSpaceOnUse" x1="48.584" x2="48.584" xlink:href="#l" y1="26.5142" y2="21.5322"/><radialGradient id="t" cx="22.3184" cy="15.564" gradientTransform="matrix(1.0032 0 0 1 -.3621 -.000539)" gradientUnits="userSpaceOnUse" r="5.9063" xlink:href="#c"/><radialGradient id="u" cx="144.4785" cy="15.7817" gradientTransform="matrix(1.254 0 0 1 -149.1832 -.000539)" gradientUnits="userSpaceOnUse" r="5.9063" xlink:href="#c"/><radialGradient id="v" cx="1156.6279" cy="15.564" gradientTransform="matrix(-1.0032 0 0 1 1202.3381 -.000539)" gradientUnits="userSpaceOnUse" r="5.9065" xlink:href="#c"/><radialGradient id="w" cx="1157.8633" cy="9.0361" gradientTransform="matrix(-1.0032 0 0 1 1202.3381 -.000539)" gradientUnits="userSpaceOnUse" r="5.9067" xlink:href="#c"/><path d="m16.163 19.152c0 7.875 11.851 7.875 11.851 0s-11.851-7.875-11.851 0z" fill="#cfd8dd"/><path d="m37.993 19.152c0 7.875 11.851 7.875 11.851 0s-11.851-7.875-11.851 0z" fill="#cfd8dd"/><path d="m24.176 14.941s3.033 8.312 3.186 17.264h11.473c.121-10.795 2.996-17.264 2.996-17.264z" fill="url(#b)"/><g fill="#cfd8dd"><path d="m39.83 7.906c0 7.875-15.66 7.875-15.66 0s15.66-7.875 15.66 0z"/><path d="m39.406 15.781c0 7.875-14.813 7.875-14.813 0s14.813-7.875 14.813 0z"/><path d="m18.484 16.726c0 7.875-11.851 7.875-11.851 0 .001-7.874 11.851-7.874 11.851 0z"/><path d="m22.539 12.241c0 7.875-11.851 7.875-11.851 0 0-7.876 11.851-7.876 11.851 0z"/><path d="m29.193 9.035c0 7.875-11.852 7.875-11.852 0s11.852-7.875 11.852 0z"/><path d="m27.953 15.563c0 7.875-11.851 7.875-11.851 0 .001-7.875 11.851-7.875 11.851 0z"/><path d="m45.516 16.726c0 7.875 11.851 7.875 11.851 0-.001-7.874-11.851-7.874-11.851 0z"/><path d="m41.461 12.241c0 7.875 11.851 7.875 11.851 0 0-7.876-11.851-7.876-11.851 0z"/><path d="m34.807 9.035c0 7.875 11.852 7.875 11.852 0s-11.852-7.875-11.852 0z"/><path d="m36.047 15.563c0 7.875 11.851 7.875 11.851 0-.001-7.875-11.851-7.875-11.851 0z"/></g><path d="m39.83 7.906c0 7.875-15.66 7.875-15.66 0s15.66-7.875 15.66 0z" fill="url(#d)"/><path d="m18.484 16.726c0 7.875-11.851 7.875-11.851 0 .001-7.874 11.851-7.874 11.851 0z" fill="url(#e)"/><path d="m22.539 12.241c0 7.875-11.851 7.875-11.851 0 0-7.876 11.851-7.876 11.851 0z" fill="url(#f)"/><path d="m29.193 9.035c0 7.875-11.852 7.875-11.852 0s11.852-7.875 11.852 0z" fill="url(#g)"/><path d="m45.516 16.726c0 7.875 11.851 7.875 11.851 0-.001-7.874-11.851-7.874-11.851 0z" fill="url(#h)"/><path d="m41.461 12.241c0 7.875 11.851 7.875 11.851 0 0-7.876-11.851-7.876-11.851 0z" fill="url(#i)"/><path d="m2 57.836c0-2.322 6.187-3.257 7.077-6.916 4.358-1.705 5.974-5.453 7.016-8.85 5.184-3.812 10.319-10.506 10.319-10.506h9.653l25.935 26.272c-8.074 2.703-21.24 2.34-21.24 2.34l-10 1.824s-12.388-1.589-14.596-3.485l-6.042.474c0-.001-8.122-.32-8.122-1.153z" fill="url(#j)"/><path d="m31.483 31.564.576 6.437-2.11 2.422-1.164 4.277-5.968 7.177 9.844-7.443-3.813 5.72 1.718 5.884-5.906-2.108 6.099 8.07 10-1.824-3.167-9.341 12.251 6.749-8.014-8.976-2.099-7.974 11.366 9.136s3.984 7.723 10.902 8.065c0-2.888-1.605-1.466-8.724-11.566-4.999-2.392-8.251-7.354-13.21-14.705z" fill="#45332c"/><path d="m22.496 42.795-2.135 4.356-14.869 9.53 16.669-6.964 1.389-6.169 6.425-9.295z" fill="#45332c"/><path d="m19.926 54.167c-6 2.214-9.804 4.821-9.804 4.821l6.042-.474c-.001.001 1.262-2.426 3.762-4.347z" fill="#45332c"/><path d="m29.722 30.355c-.964-.573-3.156-.188-3.715 1.003-1.06 2.26-4.55 3.471-3.503 4.788 0 0 2.765-2.888 2.27-1.702-1.772 4.24-9.555 9.216-8.053 10.689 1.503 1.471 10.035-12.247 9.986-9.62-.144 7.643-11.128 20.844-6.335 16.863 8.237-6.838 6.709-17.075 9.273-19.427 1.082-.992-1.233 3.718.161 5.662 1.395 1.947.102-4.403 1.248-5.188 1.73-1.188-.443 5.688 2.761 8.111 2.599 1.965-.345 7.125 1.587 6.412 1.935-.712 1.813-5.344-.374-7.35-2.185-2.007-2.104-6.891-1.213-7.362.892-.476-.358 2.188 1.869 3.419 2.256 1.245-1.062-4.367 1.383-2.565 5.478 4.038 4.771 10.13 6.928 13.035 2.623 3.539 5.456 7.113 9.707 7.042 3.9-.065-4.405-1.715-7.719-7.734-.835-1.514-1.491-5.688-4.71-10.046-.921-1.245-.82-3.128 5.006 3.934 1.771-1.566-4.246-5.459-5.683-8.903-.717-1.721-2.561-2.736-4.816-1.657-1.4-.836-5.088-.567-6.058.596z" fill="url(#k)"/><path d="m13.625 25.347c3.241 2.779 13.303 4.128 9.953 2.053-3.35-2.093-11.986-3.802-9.953-2.053z" fill="url(#m)"/><path d="m30.882 3.221c-1.669 3.253-.811 19.686.769 25.012 1.68 5.681.899-28.265-.769-25.012z" fill="url(#n)"/><path d="m19.948 3.564c-.501 3.622 5.733 18.85 8.984 23.354 3.464 4.811-8.484-26.974-8.984-23.354z" fill="url(#o)"/><path d="m26.38 26.294c-2.763-5.278-11.005-18.75-11.211-13.079-.158 4.47 13.971 18.357 11.211 13.079z" fill="url(#p)"/><path d="m37.431 5.997c-2.126 2.06-3.092 13.844-2.036 17.86 1.121 4.283 4.156-19.921 2.036-17.86z" fill="url(#q)"/><path d="m48.21 12.354c-2.642 1.062-8.038 10.956-8.676 14.798-.684 4.096 11.313-15.863 8.676-14.798z" fill="url(#r)"/><path d="m52.422 22.066c-1.994 2.851-9.657 5.954-7.436 3.638 2.22-2.33 8.685-5.43 7.436-3.638z" fill="url(#s)"/><path d="m27.953 15.563c0 7.875-11.851 7.875-11.851 0 .001-7.875 11.851-7.875 11.851 0z" fill="url(#t)"/><path d="m39.406 15.781c0 7.875-14.813 7.875-14.813 0s14.813-7.875 14.813 0z" fill="url(#u)"/><path d="m36.047 15.563c0 7.875 11.851 7.875 11.851 0-.001-7.875-11.851-7.875-11.851 0z" fill="url(#v)"/><path d="m34.807 9.035c0 7.875 11.852 7.875 11.852 0s-11.852-7.875-11.852 0z" fill="url(#w)"/></svg>