<svg enable-background="new 0 0 64 64" height="64" viewBox="0 0 64 64" width="64" xmlns="http://www.w3.org/2000/svg" xmlns:xlink="http://www.w3.org/1999/xlink"><radialGradient id="a" cx="32" cy="32" gradientUnits="userSpaceOnUse" r="30"><stop offset=".3697" stop-color="#f90"/><stop offset=".3793" stop-color="#ff9c03"/><stop offset=".4794" stop-color="#ffb620"/><stop offset=".586" stop-color="#ffca37"/><stop offset=".7007" stop-color="#ffd847"/><stop offset=".8292" stop-color="#ffe051"/><stop offset="1" stop-color="#ffe354"/></radialGradient><radialGradient id="b" cx="29.6289" cy="29.5518" gradientUnits="userSpaceOnUse" r="18"><stop offset="0" stop-color="#ffd500"/><stop offset=".381" stop-color="#ffd200"/><stop offset=".7146" stop-color="#ffc700"/><stop offset="1" stop-color="#ffb700"/></radialGradient><path d="m50.184 36.871 11.816-4.873-11.816-4.873 7.797-10.127-12.67 1.688 1.688-12.668-10.127 7.797-4.874-11.815-4.871 11.814-10.129-7.794 1.689 12.668-12.669-1.688 7.797 10.127-11.815 4.873 11.814 4.871-7.794 10.129 12.668-1.689-1.688 12.669 10.127-7.797 4.873 11.817 4.873-11.816 10.127 7.796-1.688-12.67 12.668 1.688z" fill="url(#a)"/><circle cx="31.998" cy="32" fill="url(#b)" r="18"/><path d="m45.516 29.003c-1.764 4.623-8.949 3.946-10.266.711 1-5.196 9.297-5.642 10.266-.711z" fill="#fff"/><path d="m18.482 29.003c1.768 4.623 8.953 3.946 10.268.711-.998-5.2-9.293-5.644-10.268-.711z" fill="#fff"/><path d="m37.084 28.512c0 4.057 5.867 4.057 5.867 0 0-3.766-5.867-3.766-5.867 0z" fill="#45332c"/><path d="m37.664 29.81c0 2.326 4.707 2.326 4.707 0 0-2.161-4.707-2.161-4.707 0z" fill="#7d5037"/><path d="m38.799 28.575c0 1.685 2.436 1.685 2.436 0-.001-1.562-2.436-1.562-2.436 0z" fill="#1a1626"/><path d="m37.969 28.084c0 .85 1.23.85 1.23 0 0-.789-1.23-.789-1.23 0z" fill="#ab968c"/><path d="m21.051 28.51c0 4.058 5.869 4.058 5.869 0 0-3.766-5.869-3.766-5.869 0z" fill="#45332c"/><path d="m21.631 29.809c0 2.326 4.707 2.326 4.707 0 0-2.161-4.707-2.161-4.707 0z" fill="#7d5037"/><path d="m22.768 28.574c0 1.684 2.436 1.684 2.436 0-.001-1.563-2.436-1.563-2.436 0z" fill="#1a1626"/><path d="m21.936 28.082c0 .851 1.23.851 1.23 0 0-.789-1.23-.789-1.23 0z" fill="#ab968c"/><path d="m45.516 28.969c0-4.964-10.266-4.964-10.266.786 1.467-4.718 8.801-4.718 10.266-.786z" fill="#e39415"/><path d="m18.482 28.969c0-4.964 10.268-4.964 10.268.785-1.465-4.72-8.799-4.72-10.268-.785z" fill="#e39415"/><path d="m31.999 40.031c-2.551-.75-6.326.355-6.326.355 1.438 1.566 2.492 3.598 6.326 3.598 4.391 0 5.137-2.307 6.324-3.598 0 .001-3.779-1.109-6.324-.355z" fill="#e37a15"/><path d="m26.638 40.65c2.671 2.242 8.068 2.256 10.754 0-2.848.123-7.887.123-10.754 0z" fill="#fff"/><path d="m35.513 35.816c0 2.287-7.027 2.287-7.027 0-.001-.525 7.027-.525 7.027 0z" fill="#e37a15"/></svg>