<svg enable-background="new 0 0 64 64" height="64" viewBox="0 0 64 64" width="64" xmlns="http://www.w3.org/2000/svg" xmlns:xlink="http://www.w3.org/1999/xlink"><radialGradient id="a" cx="-401.7734" cy="30.2495" gradientTransform="matrix(-1 0 0 1.0067 -376.7734 -.2036)" gradientUnits="userSpaceOnUse" r="29.8417"><stop offset=".6667" stop-color="#fff" stop-opacity=".2"/><stop offset=".7" stop-color="#f2f1ee" stop-opacity=".2801"/><stop offset=".7664" stop-color="#d2ccc1" stop-opacity=".4393"/><stop offset=".8594" stop-color="#9d9179" stop-opacity=".6626"/><stop offset=".9746" stop-color="#564017" stop-opacity=".939"/><stop offset="1" stop-color="#452d00"/></radialGradient><path d="m22.402 2.153c5.037 2.469 9.391 6.371 12.355 11.523 1.563 2.715 2.625 5.574 3.211 8.479 1.772 8.706-6.094 11.418-10.511 9.845-1.242-.442-1.5 4.042 3.333 5.337 1.321.354-.969 1.727-1.824 2.352 0 0 .48 1.594 2.246 2.543 0 0-5.489 1.34-2.148 3.904 1.512 1.158-.203 3.137-1.067 3.854-1.422 1.18-2.977 2.248-4.658 3.182-4.86 2.692-10.153 3.911-15.339 3.804 9.316 6.076 21.762 6.891 32.252 1.074 14.818-8.217 20.119-26.543 11.836-40.932-6.119-10.635-17.947-16.131-29.686-14.965z" fill="#ffeb3d"/><g fill="#fd0"><path d="m41.504 9.321c3.998 3.996-.478 9.685-4.805 8.451-.528-1.39-1.171-2.756-1.938-4.088-.486-.847-1.024-1.646-1.583-2.424 1.133-3.055 5.236-5.03 8.326-1.939z"/><path d="m46.211 29.837c-5.532-5.531-.095-13.248 5.871-12.727.003.005.007.01.01.016 2.431 4.223 3.684 8.784 3.877 13.33-2.647 2.107-6.567 2.573-9.758-.619z"/><path d="m22.932 61.923c-1.069-2.452-.846-5.447 1.69-7.984 5.42-5.42 12.941-.31 12.754 5.511-4.673 2.004-9.622 2.793-14.444 2.473z"/><path d="m38.643 42.169c0 7.196 10.795 7.196 10.795 0s-10.795-7.196-10.795 0z"/></g><path d="m22.402 2.153c5.037 2.469 9.391 6.371 12.355 11.523 1.563 2.715 2.625 5.574 3.211 8.479 1.772 8.706-6.094 11.418-10.511 9.845-1.242-.442-1.5 4.042 3.333 5.337 1.321.354-.969 1.727-1.824 2.352 0 0 .48 1.594 2.246 2.543 0 0-5.489 1.34-2.148 3.904 1.512 1.158-.203 3.137-1.067 3.854-1.422 1.18-2.977 2.248-4.658 3.182-4.86 2.692-10.153 3.911-15.339 3.804 9.316 6.076 21.762 6.891 32.252 1.074 14.818-8.217 20.119-26.543 11.836-40.932-6.119-10.635-17.947-16.131-29.686-14.965z" fill="url(#a)" opacity=".2"/><path d="m42.456 42.357c-4.645 1.292-7.513-.19-9.782-2.044-.543-.443-2.332.234-3.709-.625 0 0 .34 1.742 2.055 2.595 4.83 2.401 10.416 2.018 11.436.074z" fill="#e37a15"/><path d="m38.428 48.298c-3.9.246-8.521.737-8.777-.824.059-1.051-.77-1.051-1.256-1.965 1.612 1.164 4.098.537 4.893 1.102 2.312 1.64 5.14 1.687 5.14 1.687z" fill="#e37a15"/><path d="m31.168 37.807c-.02-.688-3.191-.548-4.231-3.528 3.502 3.152 4.502-.108 8.186 2.267 1.749 1.128 2.732-.522 2.688-.19-.668 4.791-4.861.244-6.643 1.451z" fill="#e37a15"/><path d="m34.584 37.813c-.66-.607-2.263-.566-3.144-1.434 1.152.036 3.296-.419 3.144 1.434z" fill="#45332c"/><path d="m43.428 30.804c0 4.333-5 4.333-5 0s5-4.333 5 0z" fill="#45332c"/><path d="m40.678 29.692c0 1.001-1.5 1.001-1.5 0 0-.999 1.5-.999 1.5 0z" fill="#ab968c"/></svg>