<svg enable-background="new 0 0 64 64" height="64" viewBox="0 0 64 64" width="64" xmlns="http://www.w3.org/2000/svg" xmlns:xlink="http://www.w3.org/1999/xlink"><radialGradient id="a" cx="3.916" cy="31.666" gradientTransform="matrix(1 0 0 5 0 -126.6641)" gradientUnits="userSpaceOnUse" r="35.2717"><stop offset=".8" stop-color="#10003b" stop-opacity="0"/><stop offset=".8179" stop-color="#10003b" stop-opacity=".0717"/><stop offset="1" stop-color="#10003b" stop-opacity=".8"/></radialGradient><radialGradient id="b" cx="24.292" cy="26.918" gradientUnits="userSpaceOnUse" r="34.0249"><stop offset="0" stop-color="#ffe600" stop-opacity=".2"/><stop offset=".0877" stop-color="#f8e001" stop-opacity=".2702"/><stop offset=".2166" stop-color="#e4cf05" stop-opacity=".3733"/><stop offset=".3708" stop-color="#c4b30b" stop-opacity=".4966"/><stop offset=".5447" stop-color="#978c14" stop-opacity=".6357"/><stop offset=".735" stop-color="#5d5a1f" stop-opacity=".788"/><stop offset=".9361" stop-color="#181e2c" stop-opacity=".9489"/><stop offset="1" stop-color="#000a30"/></radialGradient><g clip-rule="evenodd" fill-rule="evenodd"><circle cx="32" cy="32" fill="#ffeb3d" r="30"/><path d="m43.494 49.844c-5.648 1.654 9.158 6 2.855 5.701-9.76-.465-16.75-2.861-5.5 3.15-7.352 3.15-7.701-4.352-12.336-2.203-6.779 3.143-12.201-1.688-13.258-6.896 9.668 6.787 9.342-5.652 17.234.451 3.359-8.053 18.21-2.309 11.005-.203z" fill="#fd0"/><path d="m41.07 5.003c1.486 1.795-3.051 2.059-3.602 0-.411-1.545 2.581-1.231 3.602 0z" fill="#fd0"/><path d="m11.014 37.152c0 2.479-5.213 2.625-4.063.053.94-2.094 4.063-2.346 4.063-.053z" fill="#fd0"/><path d="m29.934 38.709c0 6.42-12.148 7.422-12.148 1-.001-6.781 12.148-7.782 12.148-1z" fill="#fd0"/></g><path d="m36.699 10.749c-5.301-4.551-12.301 2.201-8.945 6.93-7.1-.23-8.805 14.071 6.895 7.955-.438-2.672-5.406.891-4.773-3.18 3.133 2.699 5.283-2.264 6.895 1.059 2.354 4.848-6.158 7.061-2.65 11.14 2.68-7.862 6.932 2.971 1.061 4.24 3.563 3.424 7.24-2.359 6.363-5.301 1.713 1.197 3.756 3.4 5.832 2.65 1.354 12.617 13.039 1.367 9.547-6.364-1.453-3.215-7.842-9.297-3.18-12.199 2.078 3.047 1.482 7.721 5.301 10.076 1.323-2.274-5.209-14.037.695-7.189-.026-.063-.049-.128-.075-.191-.016-.039-.034-.077-.05-.116-2.07-4.863-5.388-9.065-9.551-12.209 3.391 3.861 4.686 6.85 4.686 6.85-11.252-12.452-24.252 8.849-18.051-4.151zm5.162 16.041c0-2.398 3.863-2.592 4.537 1.16.426 2.362-4.537 1.24-4.537-1.16zm-1.115-9.949c1.395-5.576 6.629-2.992 7.723 1.734.812 3.506-8.85 2.774-7.723-1.734z" fill="#fd0"/><circle clip-rule="evenodd" cx="32" cy="32" fill="url(#a)" fill-rule="evenodd" r="30"/><circle cx="32" cy="32" fill="url(#b)" opacity=".5" r="30"/></svg>