<svg enable-background="new 0 0 64 64" height="64" viewBox="0 0 64 64" width="64" xmlns="http://www.w3.org/2000/svg" xmlns:xlink="http://www.w3.org/1999/xlink"><radialGradient id="a" cx="1574.9873" cy="31.666" gradientTransform="matrix(-1 0 0 5 1635.0703 -126.6641)" gradientUnits="userSpaceOnUse" r="35.2708"><stop offset=".8" stop-color="#10003b" stop-opacity="0"/><stop offset=".8179" stop-color="#10003b" stop-opacity=".0717"/><stop offset="1" stop-color="#10003b" stop-opacity=".8"/></radialGradient><radialGradient id="b" cx="1595.3623" cy="26.918" gradientTransform="matrix(-1 0 0 1 1635.0703 0)" gradientUnits="userSpaceOnUse" r="34.0254"><stop offset=".2485" stop-color="#ffe600" stop-opacity=".2"/><stop offset=".4902" stop-color="#b0a20f" stop-opacity=".4573"/><stop offset="1" stop-color="#000a30"/></radialGradient><g clip-rule="evenodd" fill-rule="evenodd"><circle cx="32" cy="32" fill="#ffeb3d" r="30"/><path d="m43.494 49.846c-5.648 1.652 9.158 5.998 2.855 5.699-9.76-.465-16.75-2.861-5.5 3.148-7.352 3.15-7.701-4.35-12.336-2.201-6.779 3.141-12.201-1.688-13.258-6.895 9.668 6.785 9.342-5.652 17.234.451 3.359-8.052 18.21-2.308 11.005-.202z" fill="#fd0"/><path d="m41.07 5.004c1.486 1.795-3.051 2.059-3.602 0-.411-1.545 2.581-1.231 3.602 0z" fill="#fd0"/><path d="m11.014 37.154c0 2.479-5.213 2.625-4.063.053.94-2.096 4.063-2.348 4.063-.053z" fill="#fd0"/><path d="m29.934 38.711c0 6.42-12.148 7.422-12.148 1-.001-6.783 12.148-7.783 12.148-1z" fill="#fd0"/><path d="m59.75 20.58c-1.838-4.881-5.576-9.58-9.705-12.551 3.404 3.871 4.703 6.871 4.703 6.871-11.25-12.451-24.25 8.85-18.049-4.15-5.301-4.551-12.301 2.201-8.945 6.93-7.1-.23-8.805 14.07 6.895 7.955-.438-2.672-5.406.891-4.773-3.18 3.133 2.699 5.283-2.264 6.895 1.059 2.354 4.848-6.158 7.061-2.65 11.139 2.68-7.861 6.932 2.973 1.061 4.242 3.563 3.424 7.24-2.361 6.363-5.303 1.713 1.197 3.756 3.402 5.832 2.65 1.354 12.619 13.039 1.369 9.547-6.363-1.453-3.215-7.842-9.297-3.18-12.199 2.078 3.047 1.482 7.721 5.301 10.076 1.322-2.276-5.221-14.055.705-7.176zm-17.889 6.211c0-2.398 3.863-2.592 4.537 1.16.426 2.362-4.537 1.24-4.537-1.16zm-1.115-9.949c1.395-5.576 6.629-2.992 7.723 1.734.812 3.506-8.85 2.774-7.723-1.734z" fill="#fd0"/><circle cx="32" cy="32" fill="url(#a)" r="29.999"/></g><circle cx="32" cy="32" fill="url(#b)" opacity=".5" r="30.001"/></svg>