<svg enable-background="new 0 0 64 64" height="64" viewBox="0 0 64 64" width="64" xmlns="http://www.w3.org/2000/svg" xmlns:xlink="http://www.w3.org/1999/xlink"><radialGradient id="a" cx="32.1667" cy="18.3333" gradientTransform="matrix(-1 -.0094 .0121 -1.28 64.1102 42.1043)" gradientUnits="userSpaceOnUse" r="34.0859"><stop offset="0" stop-color="#0dacd0"/><stop offset=".1502" stop-color="#0ca6cd"/><stop offset=".3423" stop-color="#0997c4"/><stop offset=".5562" stop-color="#037cb6"/><stop offset=".6605" stop-color="#006dae"/><stop offset=".8467" stop-color="#0064a3"/><stop offset="1" stop-color="#015996"/></radialGradient><path d="m32 2c-13.901 0-30 13.433-30 30 0 16.568 13.432 30 30 30 13.901 0 30-13.433 30-30 0-16.568-13.432-30-30-30zm-25.915 32h8.981c.229 3.919 1.109 7.635 2.382 11h-7.95c-1.904-3.282-3.109-7.017-3.413-11zm27.915-19v-7.715c1.785 1.481 4.143 4.155 6.22 7.715zm8.238 4c1.395 3.241 2.427 6.958 2.69 11h-10.928v-11zm-12.238-11.715v7.715h-6.22c2.077-3.56 4.435-6.233 6.22-7.715zm0 11.715v11h-10.928c.263-4.042 1.295-7.759 2.69-11zm-14.935 11h-8.98c.305-3.983 1.509-7.718 3.414-11h7.949c-1.273 3.365-2.153 7.081-2.383 11zm4.007 4h10.928v11h-8.238c-1.394-3.241-2.426-6.958-2.69-11zm10.928 15v7.715c-1.785-1.482-4.143-4.155-6.22-7.715zm4 7.715v-7.715h6.22c-2.077 3.56-4.435 6.233-6.22 7.715zm0-11.715v-11h10.928c-.263 4.042-1.295 7.759-2.69 11zm14.935-11h8.981c-.305 3.983-1.509 7.718-3.414 11h-7.949c1.272-3.365 2.152-7.081 2.382-11zm0-4c-.229-3.919-1.109-7.635-2.382-11h7.949c1.904 3.282 3.109 7.017 3.414 11zm2.712-15h-6.864c-1.574-3.102-3.43-5.786-5.286-7.893 4.772 1.439 8.965 4.216 12.15 7.893zm-27.145-7.893c-1.856 2.107-3.712 4.791-5.286 7.893h-6.864c3.186-3.677 7.38-6.454 12.15-7.893zm-12.149 41.893h6.864c1.574 3.103 3.43 5.786 5.286 7.894-4.771-1.44-8.965-4.217-12.15-7.894zm27.145 7.894c1.856-2.107 3.712-4.791 5.286-7.894h6.864c-3.186 3.677-7.379 6.454-12.15 7.894z" fill="url(#a)"/></svg>