<svg enable-background="new 0 0 64 64" height="64" viewBox="0 0 64 64" width="64" xmlns="http://www.w3.org/2000/svg" xmlns:xlink="http://www.w3.org/1999/xlink"><linearGradient id="a"><stop offset="0" stop-color="#f90"/><stop offset=".0615" stop-color="#ff9f07"/><stop offset=".4777" stop-color="#ffc431"/><stop offset=".8046" stop-color="#ffdb4a"/><stop offset="1" stop-color="#ffe354"/></linearGradient><radialGradient id="b" cx="32.001" cy="32.0049" gradientUnits="userSpaceOnUse" r="29.7584" xlink:href="#a"/><radialGradient id="c" cx="32.001" cy="32.0049" gradientUnits="userSpaceOnUse" r="29.7543" xlink:href="#a"/><radialGradient id="d" cx="32.0127" cy="32.001" gradientUnits="userSpaceOnUse" r="29.7512" xlink:href="#a"/><radialGradient id="e" cx="32.0112" cy="32.001" gradientUnits="userSpaceOnUse" r="29.7546" xlink:href="#a"/><radialGradient id="f" cx="32.0122" cy="32.0049" gradientUnits="userSpaceOnUse" r="29.7505" xlink:href="#a"/><radialGradient id="g" cx="32.0112" cy="32.0049" gradientUnits="userSpaceOnUse" r="29.7524" xlink:href="#a"/><radialGradient id="h" cx="30.1572" cy="30.0962" gradientUnits="userSpaceOnUse" r="13.9999"><stop offset="0" stop-color="#ffd500"/><stop offset=".381" stop-color="#ffd200"/><stop offset=".7146" stop-color="#ffc700"/><stop offset="1" stop-color="#ffb700"/></radialGradient><linearGradient id="i" gradientUnits="userSpaceOnUse" x1="42" x2="42" y1="53.7773" y2="29.6489"><stop offset="0" stop-color="#d9f5ff"/><stop offset="1" stop-color="#fff"/></linearGradient><linearGradient id="j" gradientUnits="userSpaceOnUse" x1="33.1689" x2="49.1513" y1="33.5869" y2="56.2658"><stop offset="0" stop-color="#ffec8c"/><stop offset=".1394" stop-color="#b0d9eb"/><stop offset=".4292" stop-color="#abd4e6"/><stop offset=".7799" stop-color="#9cc6d8"/><stop offset="1" stop-color="#8fbacc"/></linearGradient><path d="m37.611 15.686-5.61-13.686-5.611 13.686c1.822-.32 3.691-.516 5.609-.516 1.921 0 3.79.195 5.612.516z" fill="url(#b)"/><path d="m26.39 48.316 5.611 13.684 5.61-13.684c-1.822.319-3.691.514-5.611.514-1.918 0-3.788-.195-5.61-.514z" fill="url(#c)"/><path d="m48.316 37.611 13.684-5.609-13.684-5.611c.32 1.822.516 3.691.516 5.609 0 1.92-.195 3.789-.516 5.611z" fill="url(#d)"/><path d="m15.685 26.391-13.685 5.611 13.686 5.609c-.32-1.822-.516-3.691-.516-5.611-.001-1.918.195-3.787.515-5.609z" fill="url(#e)"/><path d="m47.506 24.43 5.707-13.643-13.643 5.709c1.516 1.063 2.975 2.246 4.332 3.602 1.358 1.357 2.541 2.818 3.604 4.332z" fill="url(#f)"/><path d="m16.496 39.568-5.709 13.645 13.645-5.709c-1.516-1.063-2.975-2.246-4.332-3.604s-2.542-2.816-3.604-4.332z" fill="url(#g)"/><path d="m24.431 16.496-13.645-5.709 5.709 13.643c1.063-1.514 2.246-2.975 3.604-4.332 1.358-1.356 2.817-2.539 4.332-3.602z" fill="url(#g)"/><circle cx="32" cy="32" fill="url(#h)" r="14"/><path d="m29.997 53.777c-.711 0-1.414-.107-2.092-.323-2.732-.86-4.57-3.283-4.57-6.026 0-1.831.834-3.573 2.284-4.781.377-.314.783-.583 1.22-.806l-.022-.003.444-1.469c1.102-3.667 4.665-6.227 8.664-6.227.4 0 .809.03 1.289.096.367.051.729.12 1.084.213l.176-.304c1.613-2.774 4.684-4.499 8.004-4.499 5.047 0 9.15 3.913 9.15 8.721 0 .236-.016.465-.037.695l-.012.17c.387.141.766.314 1.133.517 2.439 1.339 3.955 3.834 3.955 6.509 0 3.521-2.514 6.533-6.115 7.32-.588.131-1.186.197-1.77.197z" fill="url(#i)"/><path d="m46.477 30.918c4.316 0 7.816 3.337 7.816 7.451 0 .202-.016.396-.033.591-1.803.134-3.447.82-4.736 1.888.959-.527 2.07-.831 3.256-.831.439 0 .869.042 1.285.118.707.136 1.373.381 1.979.716 1.967 1.078 3.291 3.093 3.291 5.409 0 2.965-2.172 5.447-5.08 6.084-.475.104-.967.164-1.473.164h-.002-22.783c-.582 0-1.145-.094-1.67-.261-2.124-.665-3.657-2.571-3.657-4.819 0-1.529.708-2.896 1.827-3.826.508-.421 1.097-.75 1.747-.969.548-.181 1.138-.286 1.753-.286 1.719 0 3.242.778 4.218 1.981h.049c-1.133-1.984-3.247-3.386-5.724-3.609.922-3.063 3.877-5.307 7.384-5.307.375 0 .738.034 1.1.084.713.098 1.391.283 2.027.553 2.363 1.005 4.09 3.112 4.475 5.636 0-.014.002-.029.002-.043 0-2.874-1.547-5.403-3.891-6.879 1.336-2.29 3.894-3.845 6.84-3.845m0-2.539c-3.594 0-6.93 1.761-8.85 4.635-.072-.013-.146-.022-.223-.033-.549-.073-1.018-.107-1.48-.107-4.589 0-8.679 2.938-9.946 7.146l-.304 1.002c-.326.199-.639.424-.933.67-1.74 1.447-2.741 3.537-2.741 5.736 0 3.293 2.207 6.199 5.49 7.231.806.257 1.651.388 2.506.388h22.783c.688 0 1.385-.076 2.076-.23 4.206-.921 7.145-4.438 7.145-8.557 0-3.129-1.77-6.045-4.621-7.611-.139-.074-.277-.147-.42-.216 0-.021 0-.039 0-.063 0-5.509-4.703-9.991-10.482-9.991z" fill="url(#j)"/></svg>