<svg enable-background="new 0 0 64 64" height="64" viewBox="0 0 64 64" width="64" xmlns="http://www.w3.org/2000/svg" xmlns:xlink="http://www.w3.org/1999/xlink"><linearGradient id="a"><stop offset="0" stop-color="#fff5bf"/><stop offset=".3907" stop-color="#ffeb93"/><stop offset="1" stop-color="#ffd947"/></linearGradient><linearGradient id="b" gradientUnits="userSpaceOnUse" x1="2" x2="22.041" xlink:href="#a" y1="30.0107" y2="30.0107"/><linearGradient id="c" gradientUnits="userSpaceOnUse" x1="26.0684" x2="62" xlink:href="#a" y1="19.0151" y2="19.0151"/><linearGradient id="d" gradientUnits="userSpaceOnUse" x1="13.8369" x2="62" xlink:href="#a" y1="12.4106" y2="12.4106"/><linearGradient id="e" gradientUnits="userSpaceOnUse" x1="41.2607" x2="62" xlink:href="#a" y1="26.8965" y2="26.8965"/><linearGradient id="f" gradientTransform="matrix(.866 -.5 .5 .866 -2.1594 86.6653)" gradientUnits="userSpaceOnUse" x1="49.5898" x2="49.5898" y1="-8.2197" y2="-54.0449"><stop offset="0" stop-color="#ffb700"/><stop offset="1" stop-color="#ffd500"/></linearGradient><path d="m11.188 36.316s4.232-10.5 10.854-18.332c-14.085 9.524-20.042 24.053-20.042 24.053z" fill="url(#b)"/><path d="m37.077 36.03s18.048-27.712 24.923-34.03c-13.459 7.65-35.932 24.046-35.932 24.046z" fill="url(#c)"/><path d="m62 2c-26.26 0-48.163 13-48.163 13l7.425 7.821s22.099-20.821 40.738-20.821z" fill="url(#d)"/><path d="m49.456 47.309s10.251-23.49 12.544-40.824c-4.043 13-20.739 35.553-20.739 35.553z" fill="url(#e)"/><path d="m13.541 16.683c-.382-1.763.399-2.214 1.736-1.002l12.152 11.029 13.902-8.036c1.617-.934 2.336-.315 1.597 1.371l-6.49 14.84 12.143 11.015c1.339 1.213.933 2.038-.899 1.834l-16.087-1.786-6.496 14.824c-.739 1.689-1.657 1.627-2.039-.138l-3.468-16.024-16.096-1.798c-1.83-.204-2.007-1.135-.39-2.068l13.911-8.021z" fill="url(#f)"/></svg>