<svg enable-background="new 0 0 64 64" height="64" viewBox="0 0 64 64" width="64" xmlns="http://www.w3.org/2000/svg" xmlns:xlink="http://www.w3.org/1999/xlink"><linearGradient id="a"><stop offset="0" stop-color="#6babb8"/><stop offset=".0654" stop-color="#73b0bd"/><stop offset=".3905" stop-color="#99c6d3"/><stop offset=".6529" stop-color="#b0d4e1"/><stop offset=".8182" stop-color="#b8d9e6"/></linearGradient><linearGradient id="b" gradientUnits="userSpaceOnUse" x1="34.0039" x2="52.4204" xlink:href="#a" y1="39.5137" y2="22.3467"/><linearGradient id="c" gradientUnits="userSpaceOnUse" x1="33.7471" x2="52.5793" xlink:href="#a" y1="42.5088" y2="59.5911"/><linearGradient id="d" gradientUnits="userSpaceOnUse" x1="1.9995" x2="34" y1="27" y2="27"><stop offset="0" stop-color="#a6c8db"/><stop offset=".0019" stop-color="#a6c8db"/><stop offset=".3686" stop-color="#bed6e5"/><stop offset=".7102" stop-color="#ccdfeb"/><stop offset="1" stop-color="#d1e2ed"/></linearGradient><path d="m49.154 24.55c.801 1.489-.6 2.28-1.566 1.154-1.232-1.443.593-4.362 2.344-2.609 4.341 4.338-4.241 12.859-15.415 17.044 21.662-2.969 21.734-18.678 15.135-21.215-4.504-1.731-7.343 5.237-5.046 8.678 2.371 3.549 7.086-.624 4.548-3.052z" fill="url(#b)"/><path d="m57.878 29.502c.381 1.175-.664 1.436-1.195.475-.678-1.231.891-2.854 1.889-1.311 2.473 3.827-5.828 8.891-14.984 10.108 17.293 0 19.473-9.952 15.258-13.007-2.875-2.086-5.588 2.096-4.406 4.902 1.215 2.896 4.897.999 3.438-1.167z" fill="#b8d9e6"/><path d="m48.534 56.603c.811-1.368-.587-2.078-1.557-1.038-1.24 1.33.564 3.977 2.328 2.36 4.359-4.009-4.161-11.702-15.307-15.407 21.629 2.484 21.609 16.834 15.002 19.219-4.512 1.63-7.308-4.706-4.991-7.876 2.387-3.267 7.075.496 4.525 2.742z" fill="url(#c)"/><path d="m56.892 56.916c.568-1.031-.402-1.603-1.086-.831-.869.991.383 3.054 1.617 1.857 3.061-2.97-4.156-10.445-12.859-14.439 16.828 5.307 17.252 15.665 12.629 17.345-3.154 1.146-5.082-3.755-3.451-6.125 1.677-2.448 4.937.529 3.15 2.193z" fill="#b8d9e6"/><path d="m59.741 45.938c.174-1.005-.68-1.009-1-.146-.406 1.107 1.012 2.091 1.639.673 1.545-3.505-5.568-5.915-12.944-5.116 13.687-3.328 16.479 4.129 13.472 7.357-2.055 2.206-4.648-.582-4.012-3.031.648-2.526 3.765-1.734 2.845.263z" fill="#b8d9e6"/><path d="m36.104 41.825c9.165-.711 13.526 2.691 16.79 4.527 1.394.782.019-7.481-16.79-4.527z" fill="#9dc6d5"/><path d="m58.077 36.021c-1.582 1.324-3.688 3.742-8.19 3.458 8.266 1.648 8.866-4.022 8.19-3.458z" fill="#b8d9e6"/><path d="m32.973 36.07c.592-.585 1.794-2.591.324-3.726-2.765-2.129-4.138-5.012-3.85-6.356 1.608-7.406-.916-13.29-.916-13.29-.599-8.551-14.399-13.113-26.531-9.389v43.537c2.206.063 6.442-1.277 6.442-1.277 2.202 4.652 15.354 8.204 18.457 5.488 1.889-1.651.613-4.5 3.215-6.66 2.31-.194 4.059-2.651.472-3.065 0 0 1.721-.571 2.005-1.909-1.05-.548-2.017-1.902-1.8-2.2.7-.96 1.657-.633 2.182-1.153z" fill="url(#d)"/><path d="m30.425 44.357c-1.776.039-3.06-.575-2.914-.06.358 1.275 1.257.855.933 2.748.741-2.322 1.981-2.688 1.981-2.688z" fill="#7ba5ba"/><path d="m30.762 37.292c.833-1.323 2.333.158 3.154-2.896-.904 2.534-3.73 1.083-4.937 2.236 0 0 .646.844 1.783.66z" fill="#7ba5ba"/><path d="m23.305 28.57c1.978 2.237 3.391 1.229 3.43 1.094.611-2.088-.279-.375-3.43-1.094z" fill="#6e94a6"/><g fill="#7ba5ba"><path d="m32.59 39.422s-.269.225-.767 0c-.646.999-1.449 1.605-2.513 2.163 4.156 0 3.28-2.163 3.28-2.163z"/><path d="m26.875 27.09c.617-1.177.023-2.973.023-2.973s.885 1.307.57 3.098c-.03.164.603 1.053 1.072 1.296.512.271-4.361 1.591-5.706-.233 2.287.16 3.877-.875 4.041-1.188z"/><path d="m28.115 14.649c-2.007 11.927-15.114 17.736-26.115 15.332v6.131c12.075.816 26.67-9.929 26.115-21.463z"/><path d="m17.183 32.01c-2.396 8.654-8.996 13.145-15.183 13.039v4.227c6.973-.76 14.203-6.672 15.183-17.266z"/><path d="m26.067 14.509c-10.731 6.925-16.256 1.511-24.067-1.528v4.159c7.816 3.999 16.618 7.155 24.067-2.631z"/></g></svg>