<svg enable-background="new 0 0 64 64" height="64" viewBox="0 0 64 64" width="64" xmlns="http://www.w3.org/2000/svg" xmlns:xlink="http://www.w3.org/1999/xlink"><linearGradient id="a"><stop offset="0" stop-color="#f90"/><stop offset=".0615" stop-color="#ff9f07"/><stop offset=".4777" stop-color="#ffc431"/><stop offset=".8046" stop-color="#ffdb4a"/><stop offset="1" stop-color="#ffe354"/></linearGradient><radialGradient id="b" cx="22.001" cy="28.0044" gradientUnits="userSpaceOnUse" r="19.8395" xlink:href="#a"/><radialGradient id="c" cx="22.0083" cy="28.0015" gradientUnits="userSpaceOnUse" r="19.8366" xlink:href="#a"/><radialGradient id="d" cx="22.0078" cy="28.0034" gradientUnits="userSpaceOnUse" r="19.8348" xlink:href="#a"/><radialGradient id="e" cx="22.0073" cy="28.0049" gradientUnits="userSpaceOnUse" r="19.8336" xlink:href="#a"/><radialGradient id="f" cx="22.0073" cy="28.0034" gradientUnits="userSpaceOnUse" r="19.834" xlink:href="#a"/><radialGradient id="g" cx="20.7822" cy="26.7422" gradientUnits="userSpaceOnUse" r="9.25"><stop offset="0" stop-color="#ffd500"/><stop offset=".381" stop-color="#ffd200"/><stop offset=".7146" stop-color="#ffc700"/><stop offset="1" stop-color="#ffb700"/></radialGradient><linearGradient id="h" gradientUnits="userSpaceOnUse" x1="34" x2="34" y1="54.2227" y2="20.4434"><stop offset="0" stop-color="#d9f5ff"/><stop offset="1" stop-color="#fff"/></linearGradient><linearGradient id="i" gradientUnits="userSpaceOnUse" x1="21.6357" x2="44.0107" y1="25.9546" y2="57.7046"><stop offset="0" stop-color="#ffec8c"/><stop offset=".1394" stop-color="#b0d9eb"/><stop offset=".4292" stop-color="#abd4e6"/><stop offset=".7799" stop-color="#9cc6d8"/><stop offset="1" stop-color="#8fbacc"/></linearGradient><path d="m25.741 17.125-3.74-9.125-3.74 9.124c1.215-.214 2.461-.344 3.739-.344 1.28.001 2.526.131 3.741.345z" fill="url(#b)"/><path d="m11.124 24.261-9.124 3.74 9.124 3.74c-.214-1.214-.344-2.46-.344-3.741 0-1.278.13-2.524.344-3.739z" fill="url(#c)"/><path d="m32.337 22.954 3.806-9.095-9.096 3.806c1.01.709 1.982 1.498 2.888 2.401.905.904 1.694 1.879 2.402 2.888z" fill="url(#d)"/><path d="m11.664 33.047-3.806 9.096 9.096-3.807c-1.01-.709-1.982-1.498-2.888-2.402s-1.694-1.877-2.402-2.887z" fill="url(#e)"/><path d="m16.954 17.665-9.096-3.806 3.806 9.095c.708-1.009 1.497-1.983 2.402-2.888.906-.903 1.878-1.692 2.888-2.401z" fill="url(#f)"/><circle cx="22" cy="28" fill="url(#g)" r="9.25"/><path d="m17.194 54.223c-.994 0-1.98-.15-2.929-.453-3.825-1.203-6.397-4.596-6.397-8.436 0-2.564 1.168-5.004 3.197-6.695.528-.439 1.097-.814 1.708-1.127l-.031-.004.621-2.057c1.543-5.133 6.531-8.717 12.13-8.717.56 0 1.132.043 1.804.134.514.071 1.021.169 1.518.299l.246-.426c2.26-3.884 6.557-6.298 11.207-6.298 7.064 0 12.811 5.478 12.811 12.208 0 .332-.022.652-.053.974l-.016.238c.542.195 1.071.439 1.586.723 3.414 1.875 5.537 5.367 5.537 9.111 0 4.932-3.521 9.148-8.562 10.25-.824.182-1.66.275-2.478.275h-31.899z" fill="url(#h)"/><path d="m40.268 22.22c6.043 0 10.942 4.671 10.942 10.431 0 .283-.021.556-.046.828-2.525.188-4.826 1.148-6.633 2.643 1.344-.738 2.898-1.164 4.561-1.164.614 0 1.215.059 1.799.166.989.189 1.922.533 2.771 1.002 2.753 1.51 4.605 4.33 4.605 7.572 0 4.152-3.04 7.627-7.112 8.518-.664.146-1.352.23-2.061.23h-.002-31.898c-.815 0-1.603-.131-2.338-.365-2.974-.932-5.119-3.6-5.119-6.746 0-2.143.99-4.055 2.558-5.357.711-.59 1.536-1.051 2.445-1.355.768-.254 1.594-.4 2.454-.4 2.406 0 4.539 1.088 5.905 2.773h.069c-1.585-2.779-4.546-4.74-8.015-5.053 1.291-4.288 5.428-7.43 10.339-7.43.525 0 1.034.048 1.538.117 1 .138 1.948.397 2.839.774 3.31 1.407 5.727 4.357 6.266 7.89 0-.02.003-.041.003-.061 0-4.023-2.167-7.565-5.448-9.63 1.872-3.207 5.454-5.383 9.578-5.383m0-3.554c-5.031 0-9.702 2.465-12.39 6.488-.103-.018-.206-.031-.312-.046-.769-.104-1.425-.151-2.073-.151-6.426 0-12.152 4.112-13.925 10.004l-.425 1.404c-.457.277-.895.592-1.307.938-2.435 2.025-3.836 4.953-3.836 8.031 0 4.609 3.089 8.678 7.686 10.123 1.128.359 2.312.543 3.508.543h31.897c.961 0 1.938-.107 2.904-.322 5.891-1.289 10.005-6.213 10.005-11.981 0-4.379-2.479-8.463-6.471-10.654-.193-.105-.389-.207-.586-.302 0-.03 0-.056 0-.09 0-7.711-6.585-13.985-14.675-13.985z" fill="url(#i)"/></svg>