<svg enable-background="new 0 0 64 64" height="64" viewBox="0 0 64 64" width="64" xmlns="http://www.w3.org/2000/svg" xmlns:xlink="http://www.w3.org/1999/xlink"><linearGradient id="a"><stop offset="0" stop-color="#f90"/><stop offset=".0615" stop-color="#ff9f07"/><stop offset=".4777" stop-color="#ffc431"/><stop offset=".8046" stop-color="#ffdb4a"/><stop offset="1" stop-color="#ffe354"/></linearGradient><radialGradient id="b" cx="18.0513" cy="17.0537" gradientUnits="userSpaceOnUse" r="14.93" xlink:href="#a"/><radialGradient id="c" cx="18.0552" cy="17.0518" gradientUnits="userSpaceOnUse" r="14.9263" xlink:href="#a"/><radialGradient id="d" cx="18.0576" cy="17.0537" gradientUnits="userSpaceOnUse" r="14.9264" xlink:href="#a"/><radialGradient id="e" cx="18.0571" cy="17.0537" gradientUnits="userSpaceOnUse" r="14.9276" xlink:href="#a"/><radialGradient id="f" cx="18.0571" cy="17.0537" gradientUnits="userSpaceOnUse" r="14.928" xlink:href="#a"/><radialGradient id="g" cx="17.127" cy="16.0962" gradientUnits="userSpaceOnUse" r="7.0242"><stop offset="0" stop-color="#ffd500"/><stop offset=".381" stop-color="#ffd200"/><stop offset=".7146" stop-color="#ffc700"/><stop offset="1" stop-color="#ffb700"/></radialGradient><linearGradient id="h" gradientTransform="matrix(1 -.002 .002 1 -.6512 -.1476)" gradientUnits="userSpaceOnUse" x1="38.5996" x2="38.5996" y1="33.4453" y2="5.6958"><stop offset="0" stop-color="#d9f5ff"/><stop offset="1" stop-color="#fff"/></linearGradient><linearGradient id="i" gradientUnits="userSpaceOnUse" x1="20.1411" x2="58.5152" y1="12.5776" y2="31.3272"><stop offset="0" stop-color="#ffec8c"/><stop offset=".1394" stop-color="#b0d9eb"/><stop offset=".4292" stop-color="#abd4e6"/><stop offset=".7799" stop-color="#9cc6d8"/><stop offset="1" stop-color="#8fbacc"/></linearGradient><linearGradient id="j"><stop offset="0" stop-color="#adf1ff"/><stop offset=".159" stop-color="#a9f0ff"/><stop offset=".3113" stop-color="#9eedff"/><stop offset=".461" stop-color="#8ae8ff"/><stop offset=".609" stop-color="#6fe1ff"/><stop offset=".7558" stop-color="#4cd8ff"/><stop offset=".8998" stop-color="#22cdff"/><stop offset="1" stop-color="#00c4ff"/></linearGradient><radialGradient id="k" cx="-183.6045" cy="93.5498" gradientTransform="matrix(.7831 .285 -.6296 1.73 222.0429 -68.4413)" gradientUnits="userSpaceOnUse" r="3.295" xlink:href="#j"/><radialGradient id="l" cx="-164.1841" cy="89.8379" gradientTransform="matrix(.7831 .285 -.6296 1.73 220.9753 -65.5079)" gradientUnits="userSpaceOnUse" r="3.8444" xlink:href="#j"/><radialGradient id="m" cx="-145.543" cy="82.0059" gradientTransform="matrix(.7831 .285 -.6296 1.73 218.7227 -59.3185)" gradientUnits="userSpaceOnUse" r="3.295" xlink:href="#j"/><radialGradient id="n" cx="-150.4995" cy="98.2314" gradientTransform="matrix(.7831 .285 -.6296 1.73 223.3894 -72.141)" gradientUnits="userSpaceOnUse" r="3.2953" xlink:href="#j"/><radialGradient id="o" cx="-174.7354" cy="105.582" gradientTransform="matrix(.7831 .285 -.6296 1.73 225.5036 -77.95)" gradientUnits="userSpaceOnUse" r="3.295" xlink:href="#j"/><path d="m20.866 8.866-2.814-6.866-2.815 6.866c.915-.161 1.853-.259 2.814-.259.963 0 1.901.098 2.815.259z" fill="url(#b)"/><path d="m9.865 14.237-6.865 2.816 6.865 2.813c-.16-.913-.258-1.852-.258-2.814s.098-1.9.258-2.815z" fill="url(#c)"/><path d="m25.831 13.253 2.863-6.845-6.844 2.865c.761.532 1.492 1.126 2.173 1.806.68.682 1.274 1.415 1.808 2.174z" fill="url(#d)"/><path d="m10.272 20.849-2.864 6.846 6.846-2.865c-.761-.532-1.492-1.126-2.173-1.808-.682-.681-1.275-1.414-1.809-2.173z" fill="url(#e)"/><path d="m14.254 9.273-6.846-2.865 2.864 6.845c.533-.759 1.127-1.492 1.809-2.174.681-.68 1.412-1.273 2.173-1.806z" fill="url(#f)"/><circle cx="18.052" cy="17.052" fill="url(#g)" r="7.024"/><path d="m24.211 33.247c-.817.002-1.628-.119-2.407-.366-3.145-.983-5.263-3.766-5.269-6.92-.005-2.106.951-4.112 2.615-5.505.434-.362.899-.672 1.401-.929l-.026-.004.508-1.689c1.259-4.221 5.351-7.173 9.949-7.182.46-.001.931.034 1.483.107.422.058.839.137 1.246.242l.201-.35c1.852-3.194 5.377-5.184 9.197-5.191 5.804-.012 10.532 4.479 10.543 10.008.001.273-.018.535-.042.801l-.01.196c.445.16.88.36 1.304.591 2.808 1.535 4.558 4.4 4.563 7.477.009 4.05-2.877 7.521-7.016 8.434-.678.151-1.363.229-2.035.23z" fill="url(#h)"/><path d="m43.112 6.921c4.965-.01 8.997 3.819 9.006 8.551.001.232-.017.456-.036.681-2.074.157-3.963.95-5.444 2.181 1.103-.608 2.379-.96 3.745-.963.504-.001.998.046 1.478.134.813.154 1.579.435 2.277.818 2.264 1.236 3.791 3.55 3.796 6.213.007 3.41-2.485 6.27-5.829 7.008-.545.122-1.11.192-1.692.193h-.003l-26.203.052c-.67.001-1.316-.104-1.921-.297-2.444-.761-4.211-2.948-4.216-5.534-.004-1.759.807-3.332 2.092-4.403.584-.486 1.261-.867 2.007-1.119.63-.209 1.309-.332 2.015-.333 1.978-.004 3.731.888 4.856 2.27h.057c-1.306-2.28-3.741-3.887-6.592-4.139 1.054-3.523 4.446-6.111 8.481-6.12.432-.001.85.038 1.264.095.821.111 1.601.322 2.333.631 2.722 1.151 4.712 3.57 5.16 6.473 0-.017.003-.034.003-.05-.008-3.306-1.793-6.212-4.492-7.903 1.532-2.639 4.471-4.432 7.858-4.439m-.005-2.921c-4.134.009-7.967 2.041-10.168 5.351-.084-.014-.169-.024-.256-.037-.631-.084-1.171-.122-1.703-.121-5.278.011-9.977 3.398-11.423 8.241l-.347 1.154c-.375.229-.734.488-1.072.772-1.997 1.667-3.144 4.074-3.139 6.603.007 3.787 2.551 7.125 6.33 8.305.928.293 1.9.441 2.883.439l26.203-.051c.789-.002 1.592-.091 2.385-.269 4.837-1.069 8.209-5.121 8.199-9.858-.007-3.598-2.05-6.948-5.332-8.742-.159-.086-.319-.169-.482-.247 0-.025 0-.046 0-.074-.011-6.334-5.431-11.479-12.078-11.466z" fill="url(#i)"/><path d="m21.237 36.165c-3.001 2.4-5.114 4.846-5.961 7.176-.721 1.98.019 4.069 1.653 4.665 1.635.595 3.545-.53 4.267-2.511.848-2.329.786-5.623.041-9.33z" fill="url(#k)"/><path d="m38.027 37.395c-3.501 2.801-5.967 5.653-6.954 8.372-.841 2.311.021 4.747 1.929 5.442 1.907.694 4.136-.618 4.978-2.929.989-2.717.916-6.56.047-10.885z" fill="url(#l)"/><path d="m54.991 36.165c-3.001 2.4-5.114 4.846-5.961 7.176-.721 1.98.019 4.069 1.653 4.665 1.635.595 3.545-.53 4.267-2.511.848-2.329.786-5.623.041-9.33z" fill="url(#m)"/><path d="m45.561 50c-3.001 2.4-5.114 4.846-5.961 7.176-.721 1.98.019 4.069 1.653 4.665 1.635.595 3.545-.53 4.267-2.511.847-2.329.786-5.623.041-9.33z" fill="url(#n)"/><path d="m24.067 50c-3.001 2.4-5.114 4.846-5.961 7.176-.721 1.98.019 4.069 1.653 4.665 1.635.595 3.545-.53 4.267-2.511.848-2.329.787-5.623.041-9.33z" fill="url(#o)"/></svg>