<svg enable-background="new 0 0 64 64" height="64" viewBox="0 0 64 64" width="64" xmlns="http://www.w3.org/2000/svg" xmlns:xlink="http://www.w3.org/1999/xlink"><linearGradient id="a"><stop offset="0" stop-color="#adf1ff"/><stop offset=".159" stop-color="#a9f0ff"/><stop offset=".3113" stop-color="#9eedff"/><stop offset=".461" stop-color="#8ae8ff"/><stop offset=".609" stop-color="#6fe1ff"/><stop offset=".7558" stop-color="#4cd8ff"/><stop offset=".8998" stop-color="#22cdff"/><stop offset="1" stop-color="#00c4ff"/></linearGradient><radialGradient id="b" cx="-190.7808" cy="94.6611" gradientTransform="matrix(.7831 .285 -.6296 1.73 222.3625 -69.3195)" gradientUnits="userSpaceOnUse" r="3.2953" xlink:href="#a"/><radialGradient id="c" cx="-170.9497" cy="91.8906" gradientTransform="matrix(.7831 .285 -.6296 1.73 221.5657 -67.1301)" gradientUnits="userSpaceOnUse" r="3.8441" xlink:href="#a"/><radialGradient id="d" cx="-152.7192" cy="83.1182" gradientTransform="matrix(.7831 .285 -.6296 1.73 219.0426 -60.1975)" gradientUnits="userSpaceOnUse" r="3.295" xlink:href="#a"/><radialGradient id="e" cx="-157.2651" cy="100.2842" gradientTransform="matrix(.7831 .285 -.6296 1.73 223.9798 -73.7633)" gradientUnits="userSpaceOnUse" r="3.295" xlink:href="#a"/><radialGradient id="f" cx="-181.5015" cy="107.6338" gradientTransform="matrix(.7831 .285 -.6296 1.73 226.0937 -79.5714)" gradientUnits="userSpaceOnUse" r="3.2953" xlink:href="#a"/><linearGradient id="g" gradientUnits="userSpaceOnUse" x1="32.0015" x2="32.0015" y1="30.5713" y2="3.4277"><stop offset="0" stop-color="#d9f5ff"/><stop offset="1" stop-color="#fff"/></linearGradient><linearGradient id="h" gradientUnits="userSpaceOnUse" x1="32.0005" x2="32.0005" y1="32" y2="2"><stop offset="0" stop-color="#8fbacc"/><stop offset=".2558" stop-color="#9cc6d8"/><stop offset=".6633" stop-color="#abd4e6"/><stop offset="1" stop-color="#b0d9eb"/></linearGradient><path d="m15.237 35.165c-3.001 2.4-5.114 4.846-5.961 7.176-.721 1.98.019 4.069 1.653 4.665 1.635.595 3.545-.53 4.267-2.511.848-2.329.786-5.623.041-9.33z" fill="url(#b)"/><path d="m32.027 37.395c-3.501 2.801-5.967 5.653-6.954 8.372-.841 2.311.021 4.747 1.929 5.442 1.907.694 4.136-.618 4.978-2.929.989-2.717.916-6.56.047-10.885z" fill="url(#c)"/><path d="m48.991 35.165c-3.001 2.4-5.114 4.846-5.961 7.176-.721 1.98.019 4.069 1.653 4.665 1.635.595 3.545-.53 4.267-2.511.848-2.329.786-5.623.041-9.33z" fill="url(#d)"/><path d="m39.561 50c-3.001 2.4-5.114 4.846-5.961 7.176-.721 1.98.019 4.069 1.653 4.665 1.635.595 3.545-.53 4.267-2.511.847-2.329.786-5.623.041-9.33z" fill="url(#e)"/><path d="m18.067 50c-3.001 2.4-5.114 4.846-5.961 7.176-.721 1.98.019 4.069 1.653 4.665 1.635.595 3.545-.53 4.267-2.511.848-2.329.787-5.623.041-9.33z" fill="url(#f)"/><path d="m18.195 30.571c-.816 0-1.627-.119-2.404-.362-3.143-.968-5.256-3.693-5.256-6.779 0-2.06.959-4.021 2.627-5.38.434-.353.9-.655 1.402-.906l-.025-.003.51-1.652c1.268-4.125 5.365-7.006 9.965-7.006.459 0 .93.035 1.48.108.422.058.84.136 1.246.24l.203-.343c1.855-3.121 5.385-5.061 9.205-5.061 5.803 0 10.523 4.4 10.523 9.811 0 .266-.018.523-.043.782l-.014.19c.445.159.881.354 1.303.581 2.805 1.507 4.549 4.314 4.549 7.323 0 3.962-2.893 7.352-7.033 8.235-.676.146-1.363.221-2.035.221h-26.203z" fill="url(#g)"/><path d="m37.148 4.856c4.965 0 8.988 3.753 8.988 8.382 0 .227-.018.445-.037.664-2.074.151-3.965.923-5.449 2.123 1.105-.592 2.381-.935 3.748-.935.504 0 .996.048 1.477.134.813.152 1.578.43 2.275.806 2.262 1.212 3.783 3.479 3.783 6.085 0 3.336-2.496 6.127-5.842 6.844-.545.117-1.109.187-1.693.187h-26.203c-.67 0-1.316-.106-1.92-.294-2.443-.75-4.205-2.893-4.205-5.422 0-1.721.813-3.258 2.102-4.304.584-.476 1.262-.846 2.008-1.092.631-.202 1.311-.32 2.016-.32 1.977 0 3.729.874 4.852 2.229h.057c-1.301-2.232-3.734-3.809-6.584-4.062 1.061-3.443 4.459-5.97 8.494-5.97.43 0 .85.038 1.262.094.822.111 1.602.32 2.332.623 2.719 1.131 4.705 3.501 5.146 6.341 0-.016.004-.034.004-.049 0-3.233-1.781-6.08-4.477-7.739 1.536-2.577 4.48-4.325 7.866-4.325m0-2.856c-4.133 0-7.969 1.98-10.178 5.213-.084-.014-.168-.024-.254-.037-.633-.083-1.172-.121-1.703-.121-5.279 0-9.982 3.305-11.439 8.04l-.35 1.128c-.375.223-.734.477-1.072.754-2.002 1.627-3.152 3.979-3.152 6.453 0 3.705 2.537 6.974 6.314 8.136.926.288 1.899.434 2.881.434h26.203c.789 0 1.59-.085 2.385-.258 4.838-1.036 8.217-4.994 8.217-9.627 0-3.52-2.035-6.802-5.314-8.563-.158-.083-.32-.165-.48-.241 0-.025 0-.045 0-.072-.001-6.198-5.411-11.239-12.058-11.239z" fill="url(#h)"/></svg>