<svg enable-background="new 0 0 64 64" height="64" viewBox="0 0 64 64" width="64" xmlns="http://www.w3.org/2000/svg" xmlns:xlink="http://www.w3.org/1999/xlink"><linearGradient id="a" gradientTransform="matrix(1 0 0 -1 -56 -80)" gradientUnits="userSpaceOnUse" x1="86.8789" x2="104.5168" y1="-117.4624" y2="-104.4522"><stop offset=".4683" stop-color="#7b330d"/><stop offset=".5408" stop-color="#c0531d"/><stop offset=".7664" stop-color="#fcc17d"/><stop offset=".7674" stop-color="#fcc27f"/><stop offset=".7821" stop-color="#fdcb97"/><stop offset=".7985" stop-color="#fdd3aa"/><stop offset=".8178" stop-color="#fed8b8"/><stop offset=".8421" stop-color="#fedbc0"/><stop offset=".8883" stop-color="#fedcc2"/></linearGradient><linearGradient id="b" gradientTransform="matrix(1 0 0 -1 -56 -80)" gradientUnits="userSpaceOnUse" x1="70.6006" x2="88.7285" y1="-124.354" y2="-109.5966"><stop offset=".1285" stop-color="#c0531d"/><stop offset=".4369" stop-color="#e19a3d"/><stop offset=".6635" stop-color="#fcc17d"/><stop offset=".8376" stop-color="#fedcc2"/><stop offset=".9894" stop-color="#feead9"/></linearGradient><path d="m18.028 17.085c8.033 29.124 42.972 48.138 42.972 31.726 0-6.705-10.743-9.508-22.691-30.525-13.453-20.817-22.389-8.907-20.281-1.201z" fill="url(#a)"/><path d="m41.32 57.518c6.627 6.105 16.566 5.904 16.566-1.102 0-8.006-13.755-15.613-33.131-47.837-3.313-5.605-10.14-8.207-12.951-5.504-8.635 7.905 11.646 38.13 29.516 54.443z" fill="#b44422"/><g fill="#94371b"><path d="m42.525 47.41c6.024-4.904 10.743.1 10.743.1-5.321-.901-10.743-.1-10.743-.1z"/><path d="m34.996 38.402c6.023-4.904 10.742.1 10.742.1-5.32-.9-10.742-.1-10.742-.1z"/><path d="m27.466 29.395c6.024-4.904 10.743.1 10.743.1-5.321-.901-10.743-.1-10.743-.1z"/><path d="m21.041 20.388c6.024-4.904 10.743.1 10.743.1-5.422-.901-10.743-.1-10.743-.1z"/><path d="m15.62 12.381s5.421-.8 10.743.1c-.001 0-4.719-5.004-10.743-.1z"/></g><path d="m46.943 50.512c-.703 1.102 1.204 2.102 1.807 1 1.707-2.801 1.507-6.404-1.907-7.805-1.808-.701-3.614-.301-5.421-.801-4.016-1.201-.703-4.104-.303-6.406.402-2.803-1.605-4.003-4.316-4.403-2.409-.301-5.622-.5-4.718-3.804.402-1.4 1.607-3.002 1.205-4.504-.703-2.401-3.513-3.102-5.823-4.003-1.205-.5-2.51-.9-2.008-2.401.301-.901.602-1.701.803-2.603.201-1.2.502-2.701-.401-3.803-2.008-2.202-5.924-.801-8.233-2.703-1.004-.8-2.51.601-1.506 1.402 1.205 1 2.61 1.501 4.217 1.701 1.104.201 4.216-.101 4.016 1.601-.201 2.402-2.711 6.206.502 7.907 1.204.6 2.409 1.001 3.614 1.4 2.209.901 3.213 1.602 2.108 3.903-1.004 2.102-1.104 5.305 1.205 6.806 1.304.901 2.509.901 4.117 1 .902.102 2.408.102 3.111.9.803 1.002-.402 2.502-.904 3.303-1.404 2.402-.502 5.104 2.109 6.305 2.109 1.002 7.129-.299 7.631 2.803.099 1.103-.302 2.203-.905 3.205z" fill="#f9b700"/><path d="m56.357 57.92c.408-1.582-.378-3.004-.378-3.004 0 .898-.302 2.201-.702 2.701 0-.701-.402-2.201-1.607-3.203 0 0 .603 2.402.201 4.004-.502-.301-1.506-1.701-1.907-2.703 0-.063-.258 1.514-.067 2.984-11.304-.799-44.277-51.753-40.093-55.625-8.735 7.906 11.646 38.131 29.516 54.444 6.728 6.004 16.566 6.305 16.566-1.102.001 0-.226.838-1.529 1.504z" fill="#94371b"/><path d="m3.169 16.284c-.301 1.902-.201 3.804.301 5.705 7.43 29.324 41.564 50.14 43.473 33.726.803-6.904-8.133-9.006-22.489-32.525-12.048-18.515-19.878-14.712-21.285-6.906z" fill="url(#b)"/></svg>