<svg enable-background="new 0 0 64 64" height="64" viewBox="0 0 64 64" width="64" xmlns="http://www.w3.org/2000/svg" xmlns:xlink="http://www.w3.org/1999/xlink"><radialGradient id="a" cx="29.5254" cy="-.1074" gradientTransform="matrix(.8966 0 0 .899 5.4312 42.3184)" gradientUnits="userSpaceOnUse" r="15.6574"><stop offset="0" stop-color="#92c932"/><stop offset=".3269" stop-color="#7fb52b"/><stop offset=".9958" stop-color="#4d8019"/><stop offset="1" stop-color="#4d8019"/></radialGradient><linearGradient id="b"><stop offset="0" stop-color="#b30000"/><stop offset=".8176" stop-color="#f11f1f"/><stop offset="1" stop-color="#ff2626"/></linearGradient><linearGradient id="c" gradientUnits="userSpaceOnUse" x1="13.9585" x2="29.2012" xlink:href="#b" y1="11.4238" y2="11.4238"/><radialGradient id="d" cx="44.248" cy="-34.3945" gradientTransform="matrix(.8991 0 0 .8837 5.1681 48.1362)" gradientUnits="userSpaceOnUse" r="13.1417"><stop offset=".4121" stop-color="#b30000"/><stop offset=".4931" stop-color="#ca0c0c"/><stop offset=".5993" stop-color="#e11717"/><stop offset=".7132" stop-color="#f22020"/><stop offset=".839" stop-color="#fc2424"/><stop offset="1" stop-color="#ff2626"/></radialGradient><linearGradient id="e" gradientUnits="userSpaceOnUse" x1="24.2778" x2="44.0352" xlink:href="#b" y1="10.5791" y2="10.5791"/><linearGradient id="f"><stop offset="0" stop-color="#ff2626"/><stop offset=".1824" stop-color="#f11f1f"/><stop offset="1" stop-color="#b30000"/></linearGradient><linearGradient id="g" gradientUnits="userSpaceOnUse" x1="33.6396" x2="51.0391" xlink:href="#f" y1="16.311" y2="16.311"/><linearGradient id="h"><stop offset="0" stop-color="#ff2626"/><stop offset=".5971" stop-color="#cf0e0e"/><stop offset="1" stop-color="#b30000"/></linearGradient><linearGradient id="i" gradientTransform="matrix(.6229 0 0 1.0869 29.7431 -43.9956)" gradientUnits="userSpaceOnUse" x1="-2.5532" x2="17.2051" xlink:href="#h" y1="53.625" y2="53.625"/><linearGradient id="j" gradientUnits="userSpaceOnUse" x1="20.7852" x2="32.2476" xlink:href="#f" y1="19.3066" y2="19.3066"/><linearGradient id="k" gradientTransform="matrix(-1 0 0 1 174.7148 0)" gradientUnits="userSpaceOnUse" x1="129.5674" x2="141.4463" xlink:href="#b" y1="16.9893" y2="16.9893"/><linearGradient id="l"><stop offset="0" stop-color="#b30000"/><stop offset=".4029" stop-color="#cf0e0e"/><stop offset="1" stop-color="#ff2626"/></linearGradient><linearGradient id="m" gradientUnits="userSpaceOnUse" x1="30.2808" x2="37.5215" xlink:href="#l" y1="14.769" y2="14.769"/><linearGradient id="n" gradientUnits="userSpaceOnUse" x1="27.1069" x2="34.7217" xlink:href="#l" y1="16.3115" y2="16.3115"/><linearGradient id="o" gradientUnits="userSpaceOnUse" x1="24.0806" x2="37.749" xlink:href="#h" y1="14.8662" y2="14.8662"/><linearGradient id="p" gradientTransform="matrix(-1 0 0 1 174.7148 0)" gradientUnits="userSpaceOnUse" x1="129.0303" x2="150.4795" y1="17.5107" y2="17.5107"><stop offset="0" stop-color="#ff2626"/><stop offset=".0953" stop-color="#f11f1f"/><stop offset=".3148" stop-color="#d61111"/><stop offset=".5378" stop-color="#c20808"/><stop offset=".7644" stop-color="#b70202"/><stop offset="1" stop-color="#b30000"/></linearGradient><linearGradient id="q" gradientUnits="userSpaceOnUse" x1="19.8042" x2="51.0391" y1="14.6553" y2="14.6553"><stop offset="0" stop-color="#b30000"/><stop offset="1" stop-color="#ff2626"/></linearGradient><linearGradient id="r" gradientUnits="userSpaceOnUse" x1="27.6475" x2="51.6484" y1="17.8975" y2="17.8975"><stop offset="0" stop-color="#b30000"/><stop offset=".2356" stop-color="#b70202"/><stop offset=".4622" stop-color="#c20808"/><stop offset=".6852" stop-color="#d61111"/><stop offset=".9047" stop-color="#f11f1f"/><stop offset="1" stop-color="#ff2626"/></linearGradient><radialGradient id="s" cx="31.1699" cy="-20.7358" gradientTransform="matrix(.8991 0 0 .8837 5.1681 48.1362)" gradientUnits="userSpaceOnUse" r="13.6968"><stop offset="0" stop-color="#ff2626"/><stop offset=".5965" stop-color="#d31010"/><stop offset="1" stop-color="#b30000"/></radialGradient><linearGradient id="t" gradientUnits="userSpaceOnUse" x1="34.3066" x2="34.3066" y1="28.5557" y2="17.7524"><stop offset="0" stop-color="#b30000"/><stop offset=".3648" stop-color="#b50101"/><stop offset=".5597" stop-color="#bd0505"/><stop offset=".7145" stop-color="#cb0c0c"/><stop offset=".8482" stop-color="#de1616"/><stop offset=".9672" stop-color="#f72222"/><stop offset="1" stop-color="#ff2626"/></linearGradient><linearGradient id="u" gradientUnits="userSpaceOnUse" x1="16.8062" x2="34.5684" y1="29.3638" y2="29.3638"><stop offset="0" stop-color="#ff2626"/><stop offset=".4784" stop-color="#dd1515"/><stop offset="1" stop-color="#b30000"/></linearGradient><linearGradient id="v" gradientUnits="userSpaceOnUse" x1="21.8472" x2="21.8472" y1="29.3633" y2="4.3994"><stop offset="0" stop-color="#b30000"/><stop offset=".5216" stop-color="#dd1515"/><stop offset="1" stop-color="#ff2626"/></linearGradient><path d="m31.903 22.443c2.481 0 2.242 39.557 2.242 39.557h-4.483s-.24-39.557 2.241-39.557z" fill="url(#a)"/><path d="m32.805 43.289c-8.373 0-7.564-4.148-7.564-4.148h15.125c-.001 0 .809 4.148-7.561 4.148z" fill="#92c932"/><path d="m37.593 40.41c-20.606 3.66-18.583-10.482-29.593-15.078 17.829-1.66 15.688 12.34 29.593 15.078z" fill="#7ab51d"/><path d="m13.958 9.242c.375-8.431 25-7.242 10.875 9.486-1.666-.499-10.125-5.707-10.875-9.486z" fill="url(#c)"/><path d="m53.503 12.195c-9.183-12.642-33.299-8.086-9.223 17.868 2.641-13.292 17.539-6.417 9.223-17.868z" fill="url(#d)"/><path d="m33.561 2c-2.622 0-18.955 1.473-.898 17.158 23.376-8.984 3.971-17.158.898-17.158z" fill="url(#e)"/><path d="m50.498 7.598c-3.316-6.482-33.076-3.26-4.714 20.357-3.107-8.027 7.748-14.43 4.714-20.357z" fill="url(#g)"/><path d="m33.936 4.965c-1.634 0-11.809 1.604-.561 18.65 14.563-9.765 2.474-18.65.561-18.65z" fill="url(#i)"/><path d="m21.689 7.598c.806-1.277 20.436-2.176 4.055 23.926 4.454-9.292-8.379-17.057-4.055-23.926z" fill="url(#j)"/><path d="m42.061 6.363c-8.391 1.348-12.091 11.797-5.17 21.317 7.801-12.17 11.211-22.287 5.17-21.317z" fill="url(#k)"/><path d="m36.975 9.242c-.794-1.012-13.59 1.807-1.575 11.248-1.695-4.379 3.823-8.381 1.575-11.248z" fill="url(#m)"/><path d="m27.682 10.5c.834-1.064 14.293 1.9 1.656 11.828 1.784-4.605-4.02-8.814-1.656-11.828z" fill="url(#n)"/><path d="m36.975 9.242c1.086 5.779-28.622 4.859-1.318 11.248-1.696-4.379 4.115-8.027 1.318-11.248z" fill="url(#o)"/><path d="m44.26 6.717c2.83 10.793-39.203 6.004-9.13 21.588 7.801-12.17 13.278-17.942 9.13-21.588z" fill="url(#p)"/><path d="m21.689 7.598c-4.551 8.582 21.074 12.625 29.35 4.035-13.614 18.724-38.227 7.789-29.35-4.035z" fill="url(#q)"/><path d="m27.647 21.078c4.832-6.477 27.282-3.463 22.633-13.836 5.07 7.125-5.693 13.092-4.158 20.861-4.892 1.877-15.987-2.445-18.475-7.025z" fill="url(#r)"/><path d="m20.223 20.664c.867-1.545 10.389-6.334 25.216 5.635 5.978 13.779-26.129 27.533-25.216-5.635z" fill="url(#s)"/><path d="m20.223 20.664c-.536-2.061 11.578-7.834 28.186 6.408-4.973 5.781-15.022-7.191-19.618-7.336-3.505-.109-7.019.299-8.568.928z" fill="url(#t)"/><path d="m16.806 17.513c.571 1.488.955 2.944.783 4.284-.925 7.186 3.964 19.172 14.86 19.418 7.467-17.07-6.489-19.778-15.643-23.702z" fill="url(#u)"/><path d="m19.2 4.399c-14.699 6.474 9.687 10.548 14.909 24.964-5.234-.808-11.663-11.851-19.421-10.453-7.432 1.339-7.416-12.216 4.512-14.511z" fill="url(#v)"/><path d="m30.781 41.08c8.689 3.506 23.263.135 24.236-10.723-7.276 7.018-18.955 6.791-24.236 10.723z" fill="#92c932"/><path d="m29.729 49.189c-3.702 1.262-3.704.231 0 1.492.298.101.298-1.592 0-1.492z" fill="#7fbd1e"/><path d="m29.729 56.898c-3.702 1.262-3.704.231 0 1.492.298.101.298-1.592 0-1.492z" fill="#618f16"/><path d="m34.014 53.18c3.702 1.262 3.705.231 0 1.492-.297.1-.297-1.593 0-1.492z" fill="#6b9e19"/></svg>