<svg enable-background="new 0 0 64 64" height="64" viewBox="0 0 64 64" width="64" xmlns="http://www.w3.org/2000/svg" xmlns:xlink="http://www.w3.org/1999/xlink"><linearGradient id="a"><stop offset="0" stop-color="#ffcfe0"/><stop offset=".1769" stop-color="#ffc9dd"/><stop offset=".4036" stop-color="#ffb9d3"/><stop offset=".6574" stop-color="#ff9fc3"/><stop offset=".9292" stop-color="#ff7bad"/><stop offset="1" stop-color="#ff70a6"/></linearGradient><radialGradient id="b" cx="21.4941" cy="47.4844" gradientTransform="matrix(1 0 0 1.2 0 -9.4969)" gradientUnits="userSpaceOnUse" r="13.323" xlink:href="#a"/><radialGradient id="c" cx="17.2319" cy="31.3438" gradientTransform="matrix(1 0 0 1.2 0 -6.2688)" gradientUnits="userSpaceOnUse" r="13.8346" xlink:href="#a"/><radialGradient id="d" cx="33.0947" cy="17.5674" gradientTransform="matrix(1 0 0 1.2 0 -3.5135)" gradientUnits="userSpaceOnUse" r="14.0952" xlink:href="#a"/><radialGradient id="e" cx="47.1621" cy="28.4839" gradientTransform="matrix(1 0 0 1.2 0 -5.6968)" gradientUnits="userSpaceOnUse" r="13.1824" xlink:href="#a"/><radialGradient id="f" cx="44.2734" cy="47.5068" gradientTransform="matrix(1 0 0 1.2 0 -9.5014)" gradientUnits="userSpaceOnUse" r="13.8469" xlink:href="#a"/><path d="m32.306 33.054c-13.802.583-34.082 20.516-15.383 25.946 12.63 11.166 19.781-12.394 15.383-25.946z" fill="url(#b)"/><path d="m32.464 33.123c-11.38-16.202-35.534-21.092-29.516-.093-1.742 16.92 21.175 10.997 29.516.093z" fill="url(#c)"/><path d="m32.244 33.135c-11.373-8.622-18.924-33.126-.379-30.977 24.463-2.354 10.686 22.117.379 30.977z" fill="url(#d)"/><path d="m32.324 33.095c5.411-13.183 33.398-25.074 28.834-5.743 5.6 16.207-18.169 14.807-28.834 5.743z" fill="url(#e)"/><path d="m32.352 33.014c13.832.296 37.366 20.396 17.35 25.601-15.214 12.098-21.492-11.014-17.35-25.601z" fill="url(#f)"/><g fill="#ed74a4"><path d="m32.273 32.605c-3.119 4.697-8.708 13.619-8.176 14.199.682.744 5.591-6.409 8.176-14.199z"/><path d="m32.391 32.656c-5.535-.312-15.855-.607-16.016.163-.204.986 8.31 1.597 16.016-.163z"/><path d="m32.229 32.665c-.353-5.806-.732-16.635 0-16.81.934-.226 1.601 8.707 0 16.81z"/><path d="m32.287 32.636c5.339-1.364 15.362-3.629 15.696-2.907.428.922-7.758 3.154-15.696 2.907z"/><path d="m32.308 32.576c3.477 4.628 9.741 13.428 9.255 14.017-.625.758-6.075-6.289-9.255-14.017z"/><path d="m31.428 32.65c-4.364-3.418-12.665-9.558-13.237-9.017-.731.692 5.907 6.058 13.237 9.017z"/><path d="m31.289 32.565c3.028-4.966 8.904-14.07 9.605-13.795.896.348-3.661 8.06-9.605 13.795z"/><path d="m31.354 32.574c5.16 1.932 14.681 5.8 14.542 6.584-.175 1.001-8.169-1.845-14.542-6.584z"/><path d="m31.405 32.537c.208 5.785.322 16.586-.414 16.791-.945.265-1.391-8.632.414-16.791z"/></g><path d="m30.238 36.932c-.093 2.447-3.754 2.305-3.663-.14.093-2.447 3.757-2.305 3.663.14z" fill="#fabf49"/><path d="m31.154 32.996c-.14 3.668-5.633 3.459-5.495-.212.141-3.671 5.633-3.459 5.495.212z" fill="#ffd582"/><path d="m38.321 30.804c-.143 3.671-5.634 3.462-5.493-.209.139-3.67 5.633-3.461 5.493.209z" fill="#fabf49"/><path d="m36.904 32.151c-.186 4.895-7.51 4.613-7.325-.278.188-4.892 7.512-4.613 7.325.278z" fill="#feec9a"/><path d="m37.617 35.789c-.139 3.67-5.633 3.459-5.493-.209.14-3.671 5.634-3.459 5.493.209z" fill="#fabf49"/><path d="m31.773 35.098c-.094 2.444-3.755 2.302-3.661-.14.093-2.446 3.754-2.308 3.661.14z" fill="#feec9a"/><path d="m37.153 38.394c-.093 2.444-3.756 2.305-3.661-.143.093-2.444 3.755-2.305 3.661.143z" fill="#feec9a"/><path d="m34.657 28.014c-.093 2.447-3.757 2.306-3.663-.139.093-2.444 3.754-2.308 3.663.139z" fill="#ffd582"/><path d="m31.536 29.139c-.092 2.447-3.756 2.308-3.661-.139.094-2.445 3.754-2.306 3.661.139z" fill="#feec9a"/><path d="m39.567 34.209c-.095 2.446-3.756 2.308-3.664-.14.095-2.444 3.757-2.304 3.664.14z" fill="#feec9a"/><path d="m34.111 33.525c-.092 2.444-3.754 2.306-3.662-.139.094-2.447 3.756-2.308 3.662.139z" fill="#ffd582"/><path d="m35.055 37.121c-.142 3.67-5.635 3.458-5.494-.209.139-3.671 5.631-3.459 5.494.209z" fill="#ffd582"/><path d="m33.42 16.175c-.059 1.532-2.353 1.444-2.294-.087.059-1.53 2.351-1.444 2.294.087z" fill="#c94376"/><path d="m42.154 19.107c-.059 1.532-2.353 1.444-2.294-.087.059-1.53 2.351-1.444 2.294.087z" fill="#b82e61"/><path d="m48.31 30.178c-.059 1.532-2.353 1.444-2.294-.087.058-1.53 2.35-1.445 2.294.087z" fill="#b82e61"/><path d="m46.692 39.052c-.059 1.532-2.353 1.444-2.294-.087.059-1.53 2.351-1.444 2.294.087z" fill="#c94376"/><path d="m42.438 46.691c-.059 1.532-2.353 1.444-2.294-.087.059-1.53 2.351-1.444 2.294.087z" fill="#b82e61"/><path d="m32.011 49.377c-.059 1.532-2.353 1.444-2.294-.087.058-1.53 2.35-1.444 2.294.087z" fill="#c94376"/><path d="m25.528 46.9c-.059 1.532-2.353 1.444-2.294-.087.059-1.53 2.351-1.444 2.294.087z" fill="#b82e61"/><path d="m17.468 33.163c-.059 1.532-2.353 1.444-2.294-.087.058-1.53 2.35-1.444 2.294.087z" fill="#b82e61"/><path d="m19.282 23.644c-.059 1.532-2.353 1.444-2.294-.087s2.351-1.445 2.294.087z" fill="#c94376"/></svg>