<svg enable-background="new 0 0 64 64" height="64" viewBox="0 0 64 64" width="64" xmlns="http://www.w3.org/2000/svg" xmlns:xlink="http://www.w3.org/1999/xlink"><radialGradient id="a" cx="34.915" cy="54.5039" gradientTransform="matrix(.9877 0 0 .7222 -2.2772 3.1805)" gradientUnits="userSpaceOnUse" r="39.1474"><stop offset=".2424" stop-color="#4d1808"/><stop offset=".4349" stop-color="#541e0d"/><stop offset=".7138" stop-color="#672e1d"/><stop offset="1" stop-color="#824532"/></radialGradient><radialGradient id="b" cx="41.8467" cy="88.6055" gradientTransform="matrix(1.3746 0 0 .6169 -25.5229 -27.1868)" gradientUnits="userSpaceOnUse" r="19.8959"><stop offset=".1939" stop-color="#a84d31"/><stop offset=".8848" stop-color="#a84d31" stop-opacity="0"/></radialGradient><radialGradient id="c" cx="34.7041" cy="43.3457" gradientTransform="matrix(.9877 0 0 .7046 -2.2772 12.3999)" gradientUnits="userSpaceOnUse" r="25.7647"><stop offset=".297" stop-color="#784825"/><stop offset=".4543" stop-color="#7b4a27"/><stop offset=".5748" stop-color="#85522d"/><stop offset=".6832" stop-color="#955f38"/><stop offset=".7844" stop-color="#ac7147"/><stop offset=".8806" stop-color="#ca895b"/><stop offset=".9718" stop-color="#eea673"/><stop offset="1" stop-color="#fbb07b"/></radialGradient><path d="m32 2s0 3.628-8.967 7.393c-8.1 3.4-18.15 11.36-20.637 23.268-2.894 14.929 10.36 27.03 29.604 27.03s32.499-12.101 29.604-27.031c-2.487-11.907-12.538-19.867-20.638-23.268-8.966-3.764-8.966-7.392-8.966-7.392z" fill="url(#a)"/><g fill="#4d1808"><path d="m49.503 51.518c3.799-3.16 6.342-7.654 7.007-12.611.339-2.469.248-5.01-.277-7.517-.497-2.482-1.341-4.954-2.492-7.263-2.299-4.634-5.793-8.717-10.012-11.854-1.055-.786-2.162-1.503-3.309-2.152-1.15-.624-2.373-1.258-3.482-2.015-1.119-.751-2.184-1.597-3.096-2.594-.881-.993-1.717-2.162-1.842-3.512.209 1.333 1.102 2.42 2.021 3.338.951.918 2.043 1.678 3.182 2.344 1.143.679 2.331 1.201 3.563 1.773 1.216.591 2.397 1.255 3.531 1.995 4.535 2.955 8.448 6.955 11.205 11.731 2.712 4.762 4.423 10.321 3.991 16.036-.211 2.841-.949 5.671-2.2 8.274-1.236 2.598-3.017 4.998-5.07 6.958z"/><path d="m44.898 51.711c3.07-3.342 4.883-7.762 5.48-12.406.611-4.646-.028-9.496-1.519-14.064-1.503-4.558-3.958-8.862-7.321-12.371-.84-.878-1.742-1.695-2.7-2.442-.948-.729-2.033-1.398-2.975-2.228-.947-.816-1.822-1.728-2.527-2.761-.69-1.03-1.268-2.195-1.336-3.439.152 1.233.799 2.332 1.537 3.292.756.961 1.666 1.787 2.639 2.519.97.745 2.039 1.304 3.102 2.008 1.041.704 2.029 1.485 2.957 2.333 3.721 3.39 6.592 7.696 8.503 12.397.957 2.354 1.672 4.809 2.142 7.318.475 2.533.643 5.117.487 7.716-.302 5.163-2.022 10.464-5.383 14.674z"/><path d="m39.719 52.031c2.18-3.605 3.315-7.919 3.801-12.299.484-4.395.247-8.897-.519-13.321-.781-4.409-2.12-8.771-4.329-12.697-.556-.977-1.166-1.925-1.855-2.809-.346-.442-.707-.871-1.096-1.273-.397-.413-.791-.858-1.146-1.314-1.416-1.825-2.487-4.014-2.575-6.318.258 2.286 1.465 4.335 2.957 5.995.38.42.773.806 1.197 1.187.437.391.845.809 1.236 1.241.782.865 1.484 1.799 2.132 2.766 2.577 3.887 4.29 8.29 5.435 12.806 1.125 4.52 1.728 9.213 1.555 13.949-.182 4.711-1.036 9.556-3.276 13.993z"/><path d="m33.836 52.561c1.039-3.99 1.553-8.213 1.861-12.443.301-4.238.344-8.508.184-12.78-.168-4.268-.522-8.541-1.285-12.744-.196-1.049-.418-2.094-.689-3.123-.252-1.041-.643-2.002-.979-3.062-.625-2.09-.946-4.255-.928-6.409.148 2.146.635 4.262 1.4 6.245.389.966.889 1.972 1.223 3.005.359 1.029.666 2.073.947 3.123 1.105 4.204 1.799 8.5 2.305 12.812.497 4.311.791 8.659.821 13.026.017 4.367-.163 8.766-.95 13.197z"/><path d="m14.498 51.518c-3.799-3.16-6.342-7.654-7.008-12.611-.338-2.469-.248-5.01.277-7.517.498-2.482 1.342-4.954 2.492-7.263 2.299-4.634 5.794-8.717 10.013-11.854 1.054-.786 2.161-1.503 3.308-2.152 1.15-.624 2.374-1.258 3.482-2.015 1.119-.751 2.185-1.597 3.096-2.594.881-.993 1.717-2.162 1.842-3.512-.209 1.333-1.101 2.42-2.021 3.338-.951.918-2.042 1.678-3.182 2.344-1.143.679-2.33 1.201-3.563 1.773-1.216.591-2.398 1.255-3.531 1.995-4.535 2.955-8.449 6.955-11.205 11.731-2.713 4.762-4.424 10.321-3.991 16.036.21 2.841.949 5.671 2.2 8.274 1.236 2.598 3.016 4.998 5.07 6.958z"/><path d="m19.102 51.711c-3.069-3.342-4.882-7.762-5.48-12.406-.611-4.646.029-9.496 1.52-14.064 1.502-4.558 3.957-8.862 7.321-12.371.839-.878 1.741-1.695 2.7-2.442.949-.728 2.033-1.396 2.975-2.227.947-.816 1.822-1.728 2.528-2.761.688-1.031 1.266-2.196 1.334-3.44-.152 1.233-.799 2.332-1.537 3.292-.756.961-1.666 1.787-2.639 2.519-.969.745-2.039 1.304-3.102 2.008-1.04.704-2.028 1.485-2.957 2.333-3.721 3.39-6.592 7.696-8.502 12.397-.957 2.354-1.672 4.809-2.142 7.318-.475 2.533-.643 5.117-.487 7.716.301 5.163 2.021 10.464 5.383 14.674z"/><path d="m24.281 52.031c-2.18-3.605-3.314-7.919-3.801-12.299-.484-4.395-.246-8.897.52-13.321.781-4.409 2.119-8.771 4.329-12.697.556-.977 1.165-1.925 1.855-2.809.345-.442.706-.871 1.095-1.273.398-.413.791-.858 1.146-1.314 1.417-1.825 2.487-4.014 2.575-6.318-.257 2.286-1.465 4.335-2.957 5.995-.379.42-.773.806-1.197 1.187-.436.391-.844.809-1.235 1.241-.782.865-1.484 1.799-2.132 2.766-2.577 3.887-4.29 8.29-5.436 12.806-1.125 4.52-1.727 9.213-1.555 13.949.182 4.711 1.037 9.556 3.277 13.993z"/><path d="m30.164 52.561c-1.038-3.99-1.552-8.213-1.861-12.443-.3-4.238-.343-8.508-.184-12.78.168-4.268.523-8.541 1.286-12.744.196-1.049.417-2.094.688-3.123.252-1.041.644-2.002.979-3.062.625-2.09.946-4.255.928-6.409-.148 2.146-.635 4.262-1.399 6.245-.39.966-.889 1.972-1.224 3.005-.358 1.029-.666 2.073-.947 3.123-1.105 4.204-1.799 8.5-2.305 12.812-.496 4.311-.791 8.659-.82 13.026-.017 4.367.162 8.766.95 13.197z"/></g><path d="m58.762 27.474c3.146 16.64-56.67 16.64-53.523 0 3.145-16.641 50.378-16.641 53.523 0z" fill="url(#b)"/><path d="m32.025 53.129c-5.742 2.643-11.876-3.918-17.119-2-4.07 1.443-10.051-3.404-11.836-7.977 3.043 10.83 14.549 18.848 28.93 18.848 14.382-.002 25.889-8.018 28.93-18.848-3.414 5.686-7.354 2.727-10.82 7.268-3.063 3.848-12.441.023-18.085 2.709z" fill="url(#c)"/></svg>