<svg enable-background="new 0 0 64 64" height="64" viewBox="0 0 64 64" width="64" xmlns="http://www.w3.org/2000/svg" xmlns:xlink="http://www.w3.org/1999/xlink"><linearGradient id="a"><stop offset="0" stop-color="#4d8019"/><stop offset=".0042" stop-color="#4d8019"/><stop offset=".6731" stop-color="#7fb52b"/><stop offset="1" stop-color="#92c932"/></linearGradient><linearGradient id="b" gradientTransform="matrix(-1 0 0 1 360.3672 0)" gradientUnits="userSpaceOnUse" x1="298.3672" x2="328.0527" xlink:href="#a" y1="44.2051" y2="44.2051"/><linearGradient id="c" gradientUnits="userSpaceOnUse" x1="2" x2="33.1484" xlink:href="#a" y1="39.9238" y2="39.9238"/><radialGradient id="d" cx="-30.8691" cy="45.8408" gradientTransform="matrix(.6461 0 0 1.0173 52.4056 -7.012)" gradientUnits="userSpaceOnUse" r="15.657"><stop offset="0" stop-color="#92c932"/><stop offset=".3269" stop-color="#7fb52b"/><stop offset=".9958" stop-color="#4d8019"/><stop offset="1" stop-color="#4d8019"/></radialGradient><linearGradient id="e" gradientTransform="matrix(-1 0 0 1 142.9102 0)" gradientUnits="userSpaceOnUse" x1="109.8438" x2="109.8438" y1="24.1548" y2="2"><stop offset="0" stop-color="#7a0032"/><stop offset=".1403" stop-color="#8b0539"/><stop offset="1" stop-color="#f22462"/></linearGradient><linearGradient id="f" gradientTransform="matrix(-1 0 0 1 130.084 0)" gradientUnits="userSpaceOnUse" x1="102.002" x2="102.002" y1="30.5176" y2="4.5918"><stop offset="0" stop-color="#ff70ab"/><stop offset="1" stop-color="#ff3672"/></linearGradient><linearGradient id="g" gradientUnits="userSpaceOnUse" x1="37.4658" x2="37.4658" y1="30.5176" y2="4.5918"><stop offset="0" stop-color="#ff99c3"/><stop offset="1" stop-color="#ff3672"/></linearGradient><linearGradient id="h"><stop offset=".2364" stop-color="#6ca82e"/><stop offset=".4768" stop-color="#7eb830"/><stop offset=".7633" stop-color="#8dc531"/><stop offset="1" stop-color="#92c932"/></linearGradient><linearGradient id="i" gradientUnits="userSpaceOnUse" x1="13.4053" x2="21.0581" xlink:href="#h" y1="44.5576" y2="36.9048"/><linearGradient id="j" gradientTransform="matrix(-1 0 0 1 360.3672 0)" gradientUnits="userSpaceOnUse" x1="311.2197" x2="317.2928" xlink:href="#h" y1="46.9297" y2="40.8566"/><path d="m32.414 51.912c-.595 2.149 1.663 10.088 1.663 10.088 8.045-22.004 16.963-13.839 27.923-35.59-9.797 7.564-25.392 9.72-29.586 25.502z" fill="url(#b)"/><path d="m33.059 49.485c.623 2.665-2.211 12.515-2.211 12.515-8.446-27.298-24.031-23.307-28.848-44.153 10.285 9.383 26.654 12.058 31.059 31.638z" fill="url(#c)"/><path d="m32.462 17.24c1.788 0 1.615 44.76 1.615 44.76h-3.229s-.174-44.76 1.614-44.76z" fill="url(#d)"/><path d="m32.462 31.418c-4.365 0-3.943-2.172-3.943-2.172h7.887c-.001 0 .42 2.172-3.944 2.172z" fill="#92c932"/><path d="m37.601 6.396c-1.271-1.178-2.617-2.438-3.757-4.396-.997.83-3.527 2.25-5.767 4.583-3.364-2.029-6.395-1.991-7.732-1.991 7.796 12.573 17.473 13.815 25.248 0-1.295 0-4.527-.033-7.992 1.804z" fill="#b81d4b"/><path d="m24.064 17.721c0 8.579 18.003 8.579 18.003 0 0-8.578-6.273-14.096-8.224-15.721-.11 7.881-9.779 7.143-9.779 15.721z" fill="url(#e)"/><path d="m35.213 20.395c1.798 6.508-.729 10.123-2.582 10.123-5.148 0-10.728-3.762-10.4-11.279.39-8.935-1.799-10.985-1.896-14.646 2.332-.001 10.891 1.365 14.878 15.802z" fill="url(#f)"/><path d="m29.945 20.395c-1.797 6.508.729 10.123 2.583 10.123 5.148 0 10.728-3.762 10.4-11.279-.389-8.935 2.576-10.985 2.674-14.646-2.332-.001-11.669 1.365-15.657 15.802z" fill="url(#g)"/><path d="m34.077 62h-3.229c-7.558-22.181-26.11-23.44-28.848-44.153 5.755 18.034 26.082 21.773 32.077 44.153z" fill="url(#i)"/><path d="m30.848 62h3.229c7.198-17.879 25.315-18.895 27.923-35.59-5.061 11.178-27.503 11.408-31.152 35.59z" fill="url(#j)"/></svg>