<svg enable-background="new 0 0 64 64" height="64" viewBox="0 0 64 64" width="64" xmlns="http://www.w3.org/2000/svg" xmlns:xlink="http://www.w3.org/1999/xlink"><linearGradient id="a"><stop offset="0" stop-color="#92c932"/><stop offset=".2616" stop-color="#8bc230"/><stop offset=".6443" stop-color="#79ae29"/><stop offset="1" stop-color="#629621"/></linearGradient><radialGradient id="b" cx="23.3232" cy="15.5928" gradientTransform="matrix(1.0397 0 0 1.022 -1.8423 -10.6885)" gradientUnits="userSpaceOnUse" r="14.1439" xlink:href="#a"/><radialGradient id="c" cx="188.5107" cy="17.2236" gradientTransform="matrix(-1.0397 0 0 1.022 232.3287 -10.6885)" gradientUnits="userSpaceOnUse" r="13.9047" xlink:href="#a"/><radialGradient id="d" cx="179.8115" cy="24.9063" gradientTransform="matrix(-1.0397 0 0 1.022 232.3287 -10.6885)" gradientUnits="userSpaceOnUse" r="14.1045" xlink:href="#a"/><radialGradient id="e" cx="535.0439" cy="587.8037" gradientTransform="matrix(.00000005 -1.0233 -1.0383 -.00000004 658.4698 575.1697)" gradientUnits="userSpaceOnUse" r="14.3618" xlink:href="#a"/><radialGradient id="f" cx="436.7998" cy="796.2969" gradientTransform="matrix(.4874 -.9039 -.9172 -.4791 557.1702 814.4069)" gradientUnits="userSpaceOnUse" r="13.7882" xlink:href="#a"/><radialGradient id="g" cx="13.6685" cy="25.251" gradientTransform="matrix(1.0397 0 0 1.022 -1.8423 -10.6885)" gradientUnits="userSpaceOnUse" r="16.4824" xlink:href="#a"/><radialGradient id="h" cx="536.1123" cy="420.626" gradientTransform="matrix(-.00000005 -1.0233 1.0383 -.00000004 -427.9835 575.1697)" gradientUnits="userSpaceOnUse" r="16.8414" xlink:href="#a"/><radialGradient id="i" cx="527.9658" cy="430.9844" gradientTransform="matrix(-.00000005 -1.0233 1.0383 -.00000004 -427.9835 575.1697)" gradientUnits="userSpaceOnUse" r="15.8011" xlink:href="#a"/><linearGradient id="j" gradientUnits="userSpaceOnUse" x1="23.2632" x2="38.0488" y1="48.877" y2="48.877"><stop offset="0" stop-color="#91632e"/><stop offset=".2923" stop-color="#8e612d"/><stop offset=".4957" stop-color="#855a29"/><stop offset=".672" stop-color="#764f22"/><stop offset=".833" stop-color="#603f19"/><stop offset=".9821" stop-color="#442a0d"/><stop offset="1" stop-color="#40270b"/></linearGradient><radialGradient id="k" cx="32.9063" cy="25.707" gradientTransform="matrix(1.0397 0 0 1.022 -1.8423 -10.6885)" gradientUnits="userSpaceOnUse" r="15.0562" xlink:href="#a"/><radialGradient id="l" cx="20.7339" cy="33.3799" gradientTransform="matrix(1.0397 0 0 1.022 -1.8423 -10.6885)" gradientUnits="userSpaceOnUse" r="15.3615" xlink:href="#a"/><radialGradient id="m" cx="35.3525" cy="38.9414" gradientTransform="matrix(1.0397 0 0 1.022 -1.8423 -10.6885)" gradientUnits="userSpaceOnUse" r="15.2344" xlink:href="#a"/><path d="m33.343 3.85c13.562 0-17.571 20.192-17.571 6.844 0-3.796 3.573-5.046 4.359-6.137 3.829-5.306 11.422-.707 13.212-.707z" fill="url(#b)"/><path d="m29.061 11.131c0 13.347 13.088 10.521 21.558.095 0-3.352-5.436-5.644-7.299-7.03-3.914-2.912-14.259-.001-14.259 6.935z" fill="url(#c)"/><path d="m38.943 15.673c-4.136 12.713 15.029 20.16 18.503 7.258 1.554-5.772-4.216-12.187-7.658-12.672-3.634-.514-9.232.459-10.845 5.414z" fill="url(#d)"/><path d="m48.43 21.512c-13.362 2.28-11.284 19.864 2.276 19.864 8.814 0 13.981-22.639-2.276-19.864z" fill="url(#e)"/><path d="m48.348 33.159c-9.471-9.556-27.951 14.521-14.609 12.122 4.803-.863 8.161 4.684 12.637 1.569 4.748-3.304 5.662-9.966 1.972-13.691z" fill="url(#f)"/><path d="m25.259 15.256c4.136 12.712-27.226 15.611-18.82 5.137 3.027-3.771.714-7.409 5.607-9.841 5.191-2.58 11.6-.251 13.213 4.704z" fill="url(#g)"/><path d="m15.771 21.095c13.345-2.38 12.093 19.836-1.47 19.836-7.444 0-16.039-16.713 1.47-19.836z" fill="url(#h)"/><path d="m14.745 32.206c45.231 8.725 12.933 9.741 10.75 11.816-3.379 3.213-21.393-3.091-10.75-11.816z" fill="url(#i)"/><path d="m23.293 37.345c1.057 4.402 6.507 6 5.437 18.071-.276 3.125-7.259 4.938-2.829 4.71 3.467-.181 2.933-2.131 5.426.785 2.935 3.436-.633-2.467 4.45-1.25 5.602 1.34-.938-1.045-.752-3.766.552-8.086-2.466-11.721 1.613-14.429-4.437-3.903-1.97-.23-5.215.728-4.736-1.469-3.755-4.077-6.683-6.159-1.349-.96-1.571.793-1.447 1.31z" fill="url(#j)"/><path d="m44.467 18.134c4.189 12.695-23.741 14.91-22.444 1.623 1.225-12.565 18.637-13.16 22.444-1.623z" fill="url(#k)"/><path d="m33.546 28.973c3 13.019-26.13 10.983-22.296-1.21 4.008-12.752 18.948-13.325 22.296 1.21z" fill="url(#l)"/><path d="m49.746 32.206c3.321 12.942-26.624 12.895-23.327-.054 2.642-10.372 20.039-12.756 23.327.054z" fill="url(#m)"/><g fill="#679e23"><path d="m10.021 18.521c.453 2.066 3.151 2.135 3.709.1-1.11.45-2.623.407-3.709-.1z" opacity=".5"/><path d="m41.182 7.04c.453 2.067 3.152 2.136 3.714.1-1.113.452-2.627.407-3.714-.1z" opacity=".5"/><path d="m53.392 30.654c.448 2.063 3.146 2.138 3.704.101-1.108.447-2.618.404-3.704-.101z" opacity=".5"/><path d="m42.665 31.882c.448 2.063 3.146 2.138 3.704.101-1.107.447-2.618.404-3.704-.101z" opacity=".5"/><path d="m38.706 36.841c.448 2.063 3.146 2.138 3.704.101-1.107.447-2.618.404-3.704-.101z" opacity=".5"/><path d="m28.804 35.753c.448 2.063 3.146 2.138 3.704.101-1.108.447-2.618.404-3.704-.101z" opacity=".5"/><path d="m20.48 31.411c.448 2.063 3.146 2.138 3.704.101-1.107.447-2.618.404-3.704-.101z" opacity=".5"/><path d="m14.235 32.205c.448 2.063 3.146 2.138 3.704.101-1.107.447-2.618.404-3.704-.101z" opacity=".5"/><path d="m17.292 16.05c.448 2.063 3.146 2.138 3.704.101-1.107.447-2.618.404-3.704-.101z" opacity=".5"/><path d="m7.499 34.164c.448 2.063 3.146 2.138 3.704.101-1.107.447-2.618.404-3.704-.101z" opacity=".5"/><path d="m14.235 39.357c.448 2.063 3.146 2.138 3.704.101-1.107.447-2.618.404-3.704-.101z" opacity=".5"/><path d="m20.127 41.094c.448 2.063 3.146 2.138 3.704.101-1.107.447-2.618.404-3.704-.101z" opacity=".5"/><path d="m37.779 42.918c.448 2.063 3.146 2.138 3.704.101-1.107.447-2.618.404-3.704-.101z" opacity=".5"/><path d="m45.062 42.124c.448 2.063 3.146 2.138 3.704.101-1.108.447-2.619.404-3.704-.101z" opacity=".5"/><path d="m51.895 35.499c.448 2.063 3.146 2.138 3.704.101-1.108.447-2.619.404-3.704-.101z" opacity=".5"/><path d="m23.299 7.965c.452 2.063 3.151 2.137 3.708.101-1.111.444-2.622.41-3.708-.101z" opacity=".5"/><path d="m51.892 17.338c.453 2.067 3.151 2.14 3.709.103-1.116.449-2.622.407-3.709-.103z" opacity=".5"/><path d="m38.362 17.339c.448 2.066 3.146 2.135 3.704.099-1.106.45-2.617.411-3.704-.099z" opacity=".5"/><path d="m31.908 19.832c.453 2.067 3.151 2.137 3.709.101-1.11.449-2.623.411-3.709-.101z" opacity=".5"/></g></svg>