<svg enable-background="new 0 0 64 64" height="64" viewBox="0 0 64 64" width="64" xmlns="http://www.w3.org/2000/svg" xmlns:xlink="http://www.w3.org/1999/xlink"><linearGradient id="a" gradientUnits="userSpaceOnUse" x1="40.2344" x2="35.2256" y1="40.7881" y2="42.0683"><stop offset="0" stop-color="#735628"/><stop offset=".3925" stop-color="#8f6f40"/><stop offset=".7419" stop-color="#a07f4f"/><stop offset="1" stop-color="#a68554"/></linearGradient><path d="m46.426 60.774c0 1.97-6.646 1.97-6.646 0 0-7.751-7.779-28.659-7.779-39.425 0-1.842 4.923-1.842 4.923 0 0 10.767 9.502 31.674 9.502 39.425z" fill="url(#a)"/><g fill="#cfb092"><path d="m45.773 56.135c1.205 2.839-5.922 3.467-6.262 1.594.434 1.123 5.983 1.307 6.262-1.594z"/><path d="m38.404 52.164c-.301 3.153 6.637 1.794 6.201-.492-.095 1.974-5.392 3.083-6.201.492z"/><path d="m35.877 42.139c-.303 3.153 6.068 1.817 5.633-.469-.096 1.974-4.824 3.059-5.633.469z"/><path d="m33.664 33.07c-.303 3.153 5.688 2.146 5.254-.14-.098 1.974-4.445 2.731-5.254.14z"/><path d="m43.084 46.656c1.203 2.839-5.371 3.168-5.711 1.295.434 1.123 5.43 1.607 5.711-1.295z"/><path d="m40.047 36.904c1.205 2.839-4.848 3.099-5.188 1.226.434 1.123 4.909 1.676 5.188-1.226z"/><path d="m37.619 27.419c1.203 2.839-4.876 3.036-5.216 1.163.433 1.124 4.935 1.739 5.216-1.163z"/></g><path d="m7 13.495c3.212-.496 6.383.643 9.806 2.012.101-.321 1.88-2.097 1.88-2.097s-.94 2.078-1.05 2.43c.806.326 1.629.656 2.468.977.105-.314 1.815-2.091 1.815-2.091s-.858 1.984-.986 2.4c1.166.427 2.371.819 3.622 1.138-.018-.068 1.741-2.151 1.741-2.151s-.932 2.291-.964 2.337c2.901.651 6.055.855 9.58.066-8.894-1.866-16.497-10.297-27.912-5.021z" fill="#92c932"/><path d="m23.757 11.807c.022.087.15 1.688.15 1.688s-1.096-1.75-1.137-2.041c-.006-.035.002-.065.004-.099-1.143-.485-2.343-.874-3.615-1.093.057.116.248 1.781.248 1.781s-1.165-1.678-1.282-1.92c-3.264-.318-6.95.479-11.125 3.37 11.589-4.829 19.232 3.77 27.912 5.021-2.769-.495-6.388-4.379-11.155-6.707z" fill="#7ab51d"/><path d="m12.773 36.047c1.69-2.762 4.521-4.471 7.689-6.202-.116-.389.235-2.883.235-2.883s.479 2.204.551 2.455c.843-.456 1.705-.92 2.57-1.41-.099-.509.324-3.235.324-3.235s.437 2.409.495 2.763c.54-.317 1.08-.653 1.619-1.001.029-.562.496-3.383.496-3.383s.397 2.423.395 2.787c2.838-1.963 5.525-4.488 7.531-8.298-7.174 5.69-18.372 6.104-21.905 18.407z" fill="#92c932"/><path d="m23.761 21.379c.187.152 1.486 1.203 1.486 1.203s-2.163-.652-2.521-.781c-1.514.66-2.995 1.496-4.337 2.621.169.122 1.462 1.104 1.462 1.104s-1.89-.327-2.15-.49c-2.449 2.332-4.336 5.757-4.928 11.011 3.975-12.148 15.325-12.482 21.907-18.407-1.974 1.661-6.484 2.041-10.919 3.739z" fill="#7ab51d"/><path d="m48.293 11.969c.188.308 1.344 2.598 1.344 2.598s-2.033-2.14-2.338-2.428c-.012-.011-.014-.023-.023-.034-.875.119-1.766.251-2.66.424.242.428 1.549 2.948 1.549 2.948s-2.17-2.332-2.471-2.754c-.707.162-1.414.357-2.115.602.172.255 1.521 2.603 1.521 2.603s-2.156-1.991-2.383-2.275c-2.205.908-4.33 2.354-6.193 4.827 7.314-2.85 17.46 1.686 22.476-9.791-2.111 2.375-5.256 2.823-8.707 3.28z" fill="#92c932"/><path d="m34.523 18.479c2.025-.885 6.146.726 10.395.896.025-.431.842-2.397.842-2.397s.066 2.057.045 2.41c1.271-.015 2.541-.191 3.76-.617.113-.488.975-2.589.975-2.589s.086 1.903.025 2.175c2.703-1.315 5.057-4.118 6.436-9.668-5.394 11.115-15.665 6.43-22.478 9.79z" fill="#7ab51d"/><path d="m31.813 21.053c2.941-1.851 4.486-4.241 5.458-6.741-.316-.055-2.25-1.104-2.25-1.104s2.225.177 2.566.239c.328-.975.588-1.959.822-2.929-.418-.163-2.338-1.36-2.338-1.36s2.209.347 2.549.479c.193-.829.379-1.64.59-2.417-.189-.055-1.885-1.066-1.885-1.066s1.943.136 2.137.192c.578-1.861 1.377-3.479 2.871-4.598-10.323 3.431-7.386 12.992-10.52 19.305z" fill="#92c932"/><path d="m34.158 5.602c.145.028 1.316.769 1.316.769s-1.648.084-1.934.076c-.808 1.275-1.226 2.697-1.416 4.152.127-.014 1.531.465 1.531.465s-1.468.437-1.625.451c-.279 3.872.738 7.784-.219 9.538 3.527-5.814.473-15.501 10.521-19.305-4.143.608-6.66 2.031-8.174 3.854z" fill="#7ab51d"/><path d="m30.309 29.351s1.74 1.931 2.023 2.343c.539-1.225 1.058-2.491 1.5-3.818-.385-.415-1.523-2.847-1.523-2.847s1.605 1.62 1.832 1.867c.865-2.943 1.281-6.188.582-9.918-2.123 8.475-10.587 15.319-5.849 26.647-.268-2.243.285-4.418 1.152-6.658-.188-.288-1.146-2.588-1.146-2.588s1.432 1.427 1.549 1.598c.457-1.09.973-2.203 1.488-3.348-.409-.567-1.608-3.278-1.608-3.278z" fill="#92c932"/><path d="m34.723 16.978c-.563 2.564-4.265 5.708-6.707 9.974.227-.014 2.016-.401 2.016-.401s-2.123 1.307-2.518 1.336c-.697 1.381-1.235 2.878-1.491 4.5.239-.069 2.057-.559 2.057-.559s-1.819 1.422-2.174 1.53c-.247 2.975.485 6.364 2.967 10.268-4.297-11.472 4.33-18.343 5.85-26.648z" fill="#7ab51d"/><path d="m32.864 17.509c-5.023.115-2.086 2.934 2.779 7.049.211-.447 1.279-2.944 1.279-2.944s-.389 3.105-.58 3.534c1.051.883 2.172 1.82 3.311 2.799.246-.367 1.045-2.861 1.045-2.861s-.051 2.976-.367 3.446c3.332 2.896 6.713 6.115 8.799 9.347-6.607-15.94-13.263-20.296-16.266-20.37z" fill="#92c932"/><path d="m46.525 28.235c-.424-.03-2.717-.988-2.717-.988s2.01.036 2.293.054c-.594-1.283-1.23-2.452-1.902-3.48l-2.947-.925 2.324.015c-.838-1.162-1.709-2.145-2.58-2.958l-3.383-.925 2.334.015c-3.232-2.55-6.229-2.819-7.083-1.532 3.263.24 9.841 6.798 16.265 20.37-.557-3.784-1.477-6.976-2.604-9.646z" fill="#7ab51d"/></svg>