<svg enable-background="new 0 0 64 64" height="64" viewBox="0 0 64 64" width="64" xmlns="http://www.w3.org/2000/svg" xmlns:xlink="http://www.w3.org/1999/xlink"><radialGradient id="a" cx="27.4072" cy="49.4951" gradientTransform="matrix(.9977 0 0 1.0034 .6738 -.1656)" gradientUnits="userSpaceOnUse" r="12.5208"><stop offset="0" stop-color="#f5cfa0"/><stop offset=".3312" stop-color="#ecc396"/><stop offset=".9283" stop-color="#d2a37c"/><stop offset="1" stop-color="#cf9f78"/></radialGradient><linearGradient id="b" gradientUnits="userSpaceOnUse" x1="31.8413" x2="31.8413" y1="62" y2="30.5029"><stop offset=".3636" stop-color="#f5cfa0" stop-opacity="0"/><stop offset=".4264" stop-color="#f0c89a" stop-opacity=".1594"/><stop offset=".5174" stop-color="#e1b58b" stop-opacity=".3903"/><stop offset=".6255" stop-color="#c89571" stop-opacity=".6648"/><stop offset=".746" stop-color="#a76a4e" stop-opacity=".9705"/><stop offset=".7576" stop-color="#a3654a"/></linearGradient><radialGradient id="c" cx="23.3301" cy="14.7344" gradientTransform="matrix(.9977 0 0 .6957 .6738 4.4863)" gradientUnits="userSpaceOnUse" r="30.1016"><stop offset="0" stop-color="#ff3b3b"/><stop offset=".2816" stop-color="#fc3838"/><stop offset=".5284" stop-color="#f32d2d"/><stop offset=".7622" stop-color="#e31b1b"/><stop offset=".9869" stop-color="#cd0302"/><stop offset="1" stop-color="#cc0100"/></radialGradient><linearGradient id="d"><stop offset="0" stop-color="#ffefeb"/><stop offset=".3494" stop-color="#fdece8"/><stop offset=".601" stop-color="#f6e4df"/><stop offset=".8212" stop-color="#ebd6cf"/><stop offset="1" stop-color="#dec5bc"/></linearGradient><radialGradient id="e" cx="22.6328" cy="5.7764" gradientTransform="matrix(.9977 0 0 1 .6738 .0025)" gradientUnits="userSpaceOnUse" r="41.3332" xlink:href="#d"/><radialGradient id="f" cx="22.6328" cy="5.7759" gradientTransform="matrix(.9977 0 0 1 .6738 .0025)" gradientUnits="userSpaceOnUse" r="41.3325" xlink:href="#d"/><radialGradient id="g" cx="22.6328" cy="5.7769" gradientTransform="matrix(.9977 0 0 1 .6738 .0025)" gradientUnits="userSpaceOnUse" r="41.331" xlink:href="#d"/><radialGradient id="h" cx="22.6313" cy="5.7759" gradientTransform="matrix(.9977 0 0 1 .6738 .0025)" gradientUnits="userSpaceOnUse" r="41.3316" xlink:href="#d"/><radialGradient id="i" cx="22.6299" cy="5.7773" gradientTransform="matrix(.9977 0 0 1 .6738 .0025)" gradientUnits="userSpaceOnUse" r="41.3335" xlink:href="#d"/><path d="m43.928 52.705c.649 12.394-24.825 12.394-24.174 0 .214-4.076 3.424-12.17 3.424-16.25 0-8.125 17.327-7.746 17.327 0 0 4.08 3.208 12.174 3.423 16.25z" fill="url(#a)"/><path d="m43.928 52.705c.649 12.394-24.825 12.394-24.174 0 .214-4.076 3.424-12.17 3.424-16.25 0-8.125 17.327-7.746 17.327 0 0 4.08 3.208 12.174 3.423 16.25z" fill="url(#b)"/><path d="m32.144 2c-16.649 0-30.144 12.486-30.144 25.697 0 13.717 59.866 13.697 59.866-.02 0-13.21-13.076-25.677-29.722-25.677z" fill="url(#c)"/><path d="m27.983 4.223c-.472-.689-.962-1.256-1.549-1.727-5.183.58-11.282 3.326-14.257 6.285-1.784 6.944 20.795 2.696 15.806-4.558z" fill="url(#e)"/><path d="m40.333 23.094c1.499 9.824-19.299 10.705-16.984.178 1.957-8.897 15.776-8.096 16.984-.178z" fill="url(#f)"/><path d="m53.96 14.818c-1.469 5.266-14.226-2.969-8.79-6.16 4.092-2.404 9.661 3.043 8.79 6.16z" fill="url(#g)"/><path d="m15.007 24.381c-1.873 9.381-13.754 9.311-11.908-.074 2.067-10.518 13.656-8.68 11.908.074z" fill="url(#h)"/><path d="m61.96 28.238c.133-1.441-.076-3.318-.482-4.52-3.032-2.535-9.061-1.262-10.464 5.869-.538 2.742.118 4.711 1.33 5.859 5.293-1.419 9.298-3.79 9.616-7.208z" fill="url(#i)"/></svg>