<svg enable-background="new 0 0 64 64" height="64" viewBox="0 0 64 64" width="64" xmlns="http://www.w3.org/2000/svg" xmlns:xlink="http://www.w3.org/1999/xlink"><radialGradient id="a" cx="25.6646" cy="31.0146" gradientTransform="matrix(1 0 0 .9797 0 -4.3272)" gradientUnits="userSpaceOnUse" r="32.5796"><stop offset=".4" stop-color="#f5000d"/><stop offset=".6175" stop-color="#f2010d"/><stop offset=".7583" stop-color="#ea040e"/><stop offset=".8774" stop-color="#db0a10"/><stop offset=".9838" stop-color="#c61213"/><stop offset="1" stop-color="#c21413"/></radialGradient><radialGradient id="b" cx="279.1543" cy="-536.5967" gradientTransform="matrix(1.0169 -.0948 -.1721 -.9845 -358.6922 -470.8543)" gradientUnits="userSpaceOnUse" r="14.0291"><stop offset="0" stop-color="#ff7a70"/><stop offset="1" stop-color="#ff7a70" stop-opacity="0"/></radialGradient><path d="m45.246 15.272c-6.83-2.562-20.538-2.089-26.617 0-8.223 1.443-16.629 5.296-16.629 19.081 0 37.646 60 36.073 60 0 0-13.779-8.473-17.635-16.754-19.081z" fill="url(#a)"/><path d="m31.795 29.629c-1.332-7.627-8.8-13.215-16.676-12.479-7.883.734-13.189 7.512-11.857 15.14 1.335 7.629 8.803 13.214 16.682 12.48s13.185-7.512 11.851-15.141z" fill="url(#b)"/><path d="m31.5 18.876c-7.97-7.936-18.231-7.331-13.845-6.227 5.596 1.408 7.371 4.416 8.9 6.296-10.105-1.848-16.908 1.98-17.246 4.345-.198 1.394 5.403-5.687 19.489-1.97 1.659.438 2.82 1.773 4.534 6.531.682 1.89 1.881-2.872.115-6.809 11.951-7.663 18.809-2.789 18.457-3.213-.734-.879-8.354-4.975-16.699.837 3.482-7.1 7.947-6.571 7.195-6.918-1.23-.571-5.759.062-10.9 7.128z" fill="#7ab51d"/><path d="m24.639 2.632c-2.18 1.693 1.886 1.52 3.805 14.027-6.016 4.587 11.857 3.535 3.867-.301-3.712-13.039-4.969-15.828-7.672-13.726z" fill="#449c00"/></svg>