<svg enable-background="new 0 0 64 64" height="64" viewBox="0 0 64 64" width="64" xmlns="http://www.w3.org/2000/svg" xmlns:xlink="http://www.w3.org/1999/xlink"><radialGradient id="a" cx="-204.6675" cy="-82.0615" gradientTransform="matrix(.7 -.7013 .8542 .8559 259.2888 -38.5514)" gradientUnits="userSpaceOnUse" r="28.2093"><stop offset=".2909" stop-color="#ffe12c"/><stop offset=".5302" stop-color="#ffdf29"/><stop offset=".7285" stop-color="#fdd91e"/><stop offset=".9115" stop-color="#fbcf0d"/><stop offset="1" stop-color="#f9c802"/></radialGradient><radialGradient id="b" cx="462.6641" cy="-153.874" gradientTransform="matrix(-.5019 .7239 .913 .7667 413.3012 -188.2663)" gradientUnits="userSpaceOnUse" r="16.2214"><stop offset="0" stop-color="#ffea80"/><stop offset="1" stop-color="#ffea80" stop-opacity="0"/></radialGradient><path d="m12.889 13.26c3.222-17.94 27.72-8.853 27.72-8.853-10.587 18.793-27.72 8.853-27.72 8.853z" fill="#449c00"/><path d="m13.061 12.933c.006 0 13.104-7.598 27.548-8.525 0 0-24.442-9.275-27.707 8.586" fill="#56ab15"/><path d="m19.82 19.854c-.334-4.463-9.917-10.014-11.491-7.146-2.142 3.901 4.984-.675 11.491 7.146z" fill="#785647"/><path d="m19.276 13.761c-.72-.563-2.479-.452-4.03 1.117-1.554 1.572-2.309 3.354-1.762 4.088-5.979 9.449-3.585 22.528 6.286 32.514 8.809 8.917 20.887 12.87 30.029 9.09 2.186 1.768 6.004 1.047 8.8-1.786 2.798-2.827 3.514-6.682 1.779-8.896 3.758-9.25.93-21.515-7.886-30.439-10.431-10.47-24.423-11.322-33.216-5.688z" fill="url(#a)"/><path d="m8.95 14.031c-16.112 13.088.837 34.033.837 34.033 12.989-20.945-.837-34.033-.837-34.033z" fill="#449c00"/><path d="m9.787 48.063c14.686-20.944-.837-34.032-.837-34.032s-3.903 15.567.837 34.032z" fill="#56ab15"/><path d="m32.467 40.424c8.18 6.869 18.456 7.18 22.949.693 4.499-6.486 1.515-17.312-6.665-24.181-8.182-6.869-18.457-7.179-22.952-.693-4.499 6.486-1.513 17.312 6.668 24.181z" fill="url(#b)"/></svg>