<svg enable-background="new 0 0 64 64" height="64" viewBox="0 0 64 64" width="64" xmlns="http://www.w3.org/2000/svg" xmlns:xlink="http://www.w3.org/1999/xlink"><radialGradient id="a" cx="25.875" cy="24.5039" gradientTransform="matrix(1 0 0 1.003 0 .9633)" gradientUnits="userSpaceOnUse" r="31.8935"><stop offset=".4" stop-color="#93d422"/><stop offset=".6325" stop-color="#90d120"/><stop offset=".7831" stop-color="#88c919"/><stop offset=".91" stop-color="#79ba0d"/><stop offset="1" stop-color="#69ab00"/></radialGradient><radialGradient id="b" cx="31.9761" cy="15.9727" gradientTransform="matrix(1 0 0 .4524 0 9.7582)" gradientUnits="userSpaceOnUse" r="12.2206"><stop offset="0" stop-color="#6aad00"/><stop offset="1" stop-color="#6aad00" stop-opacity="0"/></radialGradient><radialGradient id="c" cx="284.9482" cy="-516.1475" gradientTransform="matrix(1.0508 -.1028 -.1778 -1.0674 -373.0879 -493.6691)" gradientUnits="userSpaceOnUse" r="13.6328"><stop offset="0" stop-color="#aff23c"/><stop offset="1" stop-color="#aff23c" stop-opacity="0"/></radialGradient><path d="m31.873 13.657c-2.309 0-28.873-8.803-28.873 16.262 0 15.214 15.711 32.081 22.568 32.081 3.111 0 4.5-1.996 6.305-1.996 1.838 0 2.158 1.996 6.141 1.996 6.859 0 22.986-18.614 22.986-32.081 0-25.09-26.818-16.262-29.127-16.262z" fill="url(#a)"/><path d="m32 17.868c6.573 0 6.19-3.344 21.237-3.704-8.112-4.195-19.87-.507-21.364-.507-1.493 0-13.122-3.668-21.158.506 15.095.352 14.704 3.705 21.285 3.705z" fill="url(#b)"/><path d="m32.453 26.574c-1.338-8.037-8.838-13.924-16.747-13.149-7.915.773-13.245 7.914-11.907 15.951 1.34 8.038 8.84 13.924 16.752 13.149 7.913-.772 13.242-7.915 11.902-15.951z" fill="url(#c)"/><path d="m31.56 13.63c14.804 2.127 18.667-11.495 18.667-11.495s-14.301 6.543-18.667 11.495z" fill="#449c00"/><path d="m31.56 13.63c5.003-4.383 18.667-11.495 18.667-11.495s-16.007-2.236-18.667 11.495z" fill="#56ab15"/><path d="m32.67 17.868c-2.549-2.545-1.67-12.114.279-12.114 3.227 0-2.388 3.311-.279 12.114z" fill="#785647"/></svg>