<svg enable-background="new 0 0 64 64" height="64" viewBox="0 0 64 64" width="64" xmlns="http://www.w3.org/2000/svg" xmlns:xlink="http://www.w3.org/1999/xlink"><radialGradient id="a" cx="30.0576" cy="45.1436" gradientTransform="matrix(.9813 0 0 1.2617 2.505 -11.8129)" gradientUnits="userSpaceOnUse" r="27.0083"><stop offset="0" stop-color="#f80"/><stop offset=".1338" stop-color="#fb8100"/><stop offset=".3356" stop-color="#f16c00"/><stop offset=".5801" stop-color="#e14a00"/><stop offset=".8559" stop-color="#ca1b00"/><stop offset="1" stop-color="#bd0000"/></radialGradient><radialGradient id="b" cx="34.2051" cy="54.8252" gradientTransform="matrix(1.0362 0 0 1.0345 -3.0549 -8.9475)" gradientUnits="userSpaceOnUse" r="40.9147"><stop offset="0" stop-color="#bd0000"/><stop offset="1" stop-color="#bd0000"/></radialGradient><g clip-rule="evenodd" fill-rule="evenodd"><path d="m60 37.443c-2.743-3.051-13.725-3.168-13.725-3.168-1.025-3.317 8.699-6.086 10.648-8.919-5.606-2.046-1.706-7.858-.204-11.146.376-.822-8.499 4.348-10.046-.163-3.014 6.738-9.031 11.411-9.031 11.411-2.132-2.026 4.43-9.786 2.046-14.767-5.46 4.637-6.301-7.262-7.688-8.691-1.387 1.429-2.228 13.328-7.688 8.691-2.384 4.98 3.178 12.74 1.046 14.767 0 0-5.018-4.673-8.031-11.411-1.548 4.511-10.423-.659-10.047.163 1.502 3.288 5.401 9.101-.204 11.146 1.949 2.833 9.379 5.886 8.648 8.919 0 0-8.981.117-11.725 3.168 2.272 3.275 12.083 2.23 6.763 8.246 3.55-.004 7.355-.625 9.931.365-.702 1.92-1.408 4.442-1.783 6.694 4.07.374 8.147-2.598 13.09-7.766 4.942 5.168 9.02 8.14 13.09 7.766-.375-2.252-1.081-4.774-1.783-6.694 2.575-.99 6.381-.369 9.931-.365-5.321-6.015 4.49-4.97 6.762-8.246z" fill="url(#a)"/><path d="m60 37.443c-14.89 3.237-20.937 2.942-27.471 7.641 10.1-18.629 13.396-17.232 23.633-30.429-8.513 9.94-14.699 12.335-23.701 28.903 0 0-2.626-21.777-.461-40.317-3.564 15.627-.312 40.172-.312 40.172s-9.456-16.022-23.923-28.817c5.834 5.904 15.946 17.675 23.706 30.17-6.699-3.411-18.591-4.746-27.471-7.323 9.58 4.4 21.896 3.815 27.77 8.631.722 7.57 3.434 14.152 4.978 15.926 1.468-.09 1.628-1.115 1.628-1.115-.82-2.716-2.804-1.881-5.872-14.8 7.476-5.731 21.985-5.183 27.496-8.642z" fill="url(#b)"/></g></svg>