<svg enable-background="new 0 0 64 64" height="64" viewBox="0 0 64 64" width="64" xmlns="http://www.w3.org/2000/svg" xmlns:xlink="http://www.w3.org/1999/xlink"><linearGradient id="a"><stop offset=".2788" stop-color="#a6007c"/><stop offset=".4654" stop-color="#a00078"/><stop offset=".7036" stop-color="#91006c"/><stop offset=".9688" stop-color="#770058"/><stop offset="1" stop-color="#730055"/></linearGradient><radialGradient id="b" cx="293.0898" cy="-320.873" gradientTransform="matrix(1 0 0 -1.0023 -274 -297.6096)" gradientUnits="userSpaceOnUse" r="9.0829" xlink:href="#a"/><radialGradient id="c" cx="297.9717" cy="-343.3052" gradientTransform="matrix(1 0 0 -1.0023 -274 -297.6096)" gradientUnits="userSpaceOnUse" r="8.144" xlink:href="#a"/><radialGradient id="d" cx="311.7998" cy="-347.8467" gradientTransform="matrix(1 0 0 -1.0023 -274 -297.6096)" gradientUnits="userSpaceOnUse" r="8.9728" xlink:href="#a"/><radialGradient id="e" cx="291.8047" cy="-335.1743" gradientTransform="matrix(1 0 0 -1.0023 -274 -297.6096)" gradientUnits="userSpaceOnUse" r="8.0775" xlink:href="#a"/><radialGradient id="f" cx="315.2227" cy="-321.1982" gradientTransform="matrix(1 0 0 -1.0023 -274 -297.6096)" gradientUnits="userSpaceOnUse" r="7.9973" xlink:href="#a"/><radialGradient id="g" cx="306.1006" cy="-341.0156" gradientTransform="matrix(1 0 0 -1.0023 -274 -297.6096)" gradientUnits="userSpaceOnUse" r="8.077" xlink:href="#a"/><linearGradient id="h"><stop offset=".2788" stop-color="#c09"/><stop offset=".4252" stop-color="#c60095"/><stop offset=".612" stop-color="#b70089"/><stop offset=".8199" stop-color="#9d0075"/><stop offset="1" stop-color="#800060"/></linearGradient><radialGradient id="i" cx="314.0205" cy="-311.4189" gradientTransform="matrix(1 0 0 -1.0023 -274 -297.6096)" gradientUnits="userSpaceOnUse" r="8.5686" xlink:href="#h"/><radialGradient id="j" cx="301.5918" cy="-315.3013" gradientTransform="matrix(1 0 0 -1.0023 -274 -297.6096)" gradientUnits="userSpaceOnUse" r="8.3266" xlink:href="#h"/><radialGradient id="k" cx="325.1689" cy="-347.8848" gradientTransform="matrix(1 0 0 -1.0023 -274 -297.6096)" gradientUnits="userSpaceOnUse" r="8.7964" xlink:href="#h"/><radialGradient id="l" cx="283.376" cy="-327.1768" gradientTransform="matrix(1 0 0 -1.0023 -274 -297.6096)" gradientUnits="userSpaceOnUse" r="9.5966" xlink:href="#h"/><radialGradient id="m" cx="320.3447" cy="-333.853" gradientTransform="matrix(1 0 0 -1.0023 -274 -297.6096)" gradientUnits="userSpaceOnUse" r="8.4162" xlink:href="#h"/><radialGradient id="n" cx="305.4424" cy="-330.061" gradientTransform="matrix(1 0 0 -1.0023 -274 -297.6096)" gradientUnits="userSpaceOnUse" r="8.6115" xlink:href="#h"/><path d="m30.273 25.995c0 12.138-18.166 12.138-18.166 0 0-12.14 18.166-12.14 18.166 0z" fill="url(#b)"/><path d="m34 48.271c0 10.885-16.289 10.885-16.289 0s16.289-10.882 16.289 0z" fill="url(#c)"/><path d="m48.848 53.006c0 11.992-17.943 11.992-17.943 0-.003-11.988 17.943-11.988 17.943 0z" fill="url(#d)"/><path d="m27.75 40.107c0 10.795-16.154 10.795-16.154 0s16.154-10.794 16.154 0z" fill="url(#e)"/><path d="m51.068 26.083c0 10.689-15.994 10.689-15.994 0s15.994-10.689 15.994 0z" fill="url(#f)"/><path d="m42.045 45.963c0 10.795-16.154 10.795-16.154 0s16.154-10.795 16.154 0z" fill="url(#g)"/><path d="m15.334 12.893c2.074 7.094-2.37 11.581-1.993 13.035.203.786 1.372.659 1.687-.068.488-1.123 3.976-6.224 2.171-13.518z" fill="#449c00"/><path d="m15.961 8.168c5.074 5.364 11.178 3.771 12.241 4.828.573.571-.122 1.52-.907 1.428-1.212-.143-7.363.312-12.75-4.917z" fill="#449c00"/><path d="m23.423 19.074c-6.634-6.733-7.807-11.198-8.405-16.217-.129-1.091-2.621-1.152-2.85-.114-.411 1.873 1.156 9.885 9.396 18.266z" fill="#56ab15"/><path d="m14.364 3.234c-.38.468-1.966.389-1.751-.303.3-.954 2.332-.411 1.751.303" fill="#297024"/><path d="m50.57 16.404c0 11.451-17.137 11.451-17.137 0 .001-11.45 17.137-11.45 17.137 0z" fill="url(#i)"/><path d="m37.844 20.244c0 11.126-16.652 11.126-16.652 0-.001-11.127 16.652-11.127 16.652 0z" fill="url(#j)"/><path d="m62 53.006c0 11.758-17.594 11.758-17.594 0 0-11.756 17.594-11.756 17.594 0z" fill="url(#k)"/><path d="m21.191 32.425c0 12.825-19.191 12.825-19.191 0s19.191-12.824 19.191 0z" fill="url(#l)"/><path d="m56.707 38.857c0 11.248-16.832 11.248-16.832 0s16.832-11.248 16.832 0z" fill="url(#m)"/><path d="m42.045 35.1c0 11.51-17.223 11.51-17.223 0 0-11.511 17.223-11.511 17.223 0z" fill="url(#n)"/></svg>