<svg enable-background="new 0 0 64 64" height="64" viewBox="0 0 64 64" width="64" xmlns="http://www.w3.org/2000/svg" xmlns:xlink="http://www.w3.org/1999/xlink"><linearGradient id="a"><stop offset="0" stop-color="#a9b0b3"/><stop offset=".2699" stop-color="#acb3b6" stop-opacity=".7301"/><stop offset=".4849" stop-color="#b6bdc0" stop-opacity=".5151"/><stop offset=".681" stop-color="#c6cdd1" stop-opacity=".319"/><stop offset=".8647" stop-color="#dce3e8" stop-opacity=".1353"/><stop offset="1" stop-color="#f2f9ff" stop-opacity="0"/></linearGradient><linearGradient id="b" gradientUnits="userSpaceOnUse" x1="9.6733" x2="4.6733" xlink:href="#a" y1="48.8779" y2="19.3779"/><linearGradient id="c" gradientUnits="userSpaceOnUse" x1="16.7314" x2="11.7314" xlink:href="#a" y1="47.7002" y2="18.2002"/><linearGradient id="d" gradientUnits="userSpaceOnUse" x1="23.7827" x2="18.7827" xlink:href="#a" y1="46.4854" y2="16.9854"/><linearGradient id="e" gradientUnits="userSpaceOnUse" x1="48.8701" x2="63.1202" xlink:href="#a" y1="26.2285" y2="5.1033"/><linearGradient id="f" gradientUnits="userSpaceOnUse" x1="44.1172" x2="58.3672" xlink:href="#a" y1="23.022" y2="1.897"/><linearGradient id="g" gradientUnits="userSpaceOnUse" x1="39.3008" x2="53.5508" xlink:href="#a" y1="19.7734" y2="-1.3516"/><path d="m9.794 15.809c-9.006 6.6-10.591 24.381-2.738 36.222 1.83 2.757 7.188-.074 5.286-2.51-7.551-9.668-8.542-25.356-2.548-33.712z" fill="url(#b)" opacity=".6"/><path d="m13.826 17.766c-6.309 6.148-5.312 20.42 2.421 29.016 1.803 2.002 5.694-.79 3.877-2.53-7.218-6.904-9.991-19.25-6.298-26.486z" fill="url(#c)" opacity=".6"/><path d="m17.912 19.809c-3.889 5.399-1.063 16.104 6.047 21.722 1.659 1.306 4.203-1.259 2.57-2.37-6.473-4.391-10.37-13.434-8.617-19.352z" fill="url(#d)" opacity=".6"/><path d="m59.633 2c5.375 6.528 1.242 19.367-8.813 26.044-2.347 1.554-5.877-1.56-3.571-2.873 9.147-5.215 14.751-16.04 12.384-23.171z" fill="url(#e)" opacity=".6"/><path d="m55.727 2.529c3.297 5.649-1.878 15.471-10.845 19.896-2.092 1.027-4.431-1.753-2.409-2.594 8.03-3.34 14.075-11.439 13.254-17.302z" fill="url(#f)" opacity=".6"/><path d="m51.753 3.107c1.543 4.613-4.046 11.55-11.598 14.007-1.756.571-3.062-1.767-1.383-2.205 6.651-1.729 12.608-7.272 12.981-11.802z" fill="url(#g)" opacity=".6"/><path d="m29.513 10.428c22.546-7.576 20.561 22.692 20.561 22.692s-14.209-10.693-20.561-22.692z" fill="#92c932"/><path d="m29.513 10.428c4.1 10.122 20.562 22.692 20.562 22.692s-29.676-1.945-20.562-22.692z" fill="#7ab51d"/><g fill="#71a81b"><path d="m34.91 18.381c.986-1.02 6.408-4.801 10.44-4.038-4.185-1.383-9.939 2.381-10.986 3.393-1.208.814-4.475 2.648-3.89 6.948.006-4.037 3.227-5.543 4.436-6.303z"/><path d="m32.584 15.613c.653-1.228 3.406-4.547 6.156-5.896-2.819.561-5.912 4.042-6.655 5.303-1.403.474-3.052 1.058-4.149 3.671 1.872-2.396 3.297-2.681 4.648-3.078z"/><path d="m37.961 22.016c-.982 1.037-3.125 2.96-2.691 6.612.193-3.619 2.191-5.067 3.177-6.033 1.152-.768 6.207-2.598 9.859-2.094-3.565-1.115-9.122.766-10.345 1.515z"/><path d="m41.5 25.69c-1.823 3.088-.976 5.215-.976 5.215s-.118-1.773 1.433-4.672c1.531-.681 5.187-1.835 7.691.771-2.098-3.073-6.49-1.944-8.148-1.314z"/></g><path d="m26.392 4.098c3.425 14.207 19.412 26.087 23.683 29.022-4.31-3.338-20.76-19.678-22.09-30.981-.058-.492-1.981.354-1.593 1.959z" fill="#699c19"/><path d="m49.58 46.596c-17.698-27.838-41.968 6.528-41.968 6.528s24.65.866 41.968-6.528z" fill="#92c932"/><path d="m49.58 46.596c-13.251 7.337-41.968 6.528-41.968 6.528s33.693 23.792 41.968-6.528z" fill="#7ab51d"/><path d="m36.821 50.463c-.174-1.961-2.72-10.767-7.732-13.464 5.717 2.16 8.639 11.239 8.885 13.242.592 1.934 2.514 6.761-1.869 10.886 3.516-4.357 1.357-8.791.716-10.664z" fill="#71a81b"/><path d="m41.744 49.508c.366-1.894.295-7.875-1.493-11.728 2.55 3.064 2.847 9.516 2.549 11.524 1.1 1.734 2.367 3.802 1.271 7.578.073-4.217-1.216-5.768-2.327-7.374z" fill="#71a81b"/><path d="m30.361 51.72c.155 1.975.787 5.917-2.867 9.477 2.949-4.07 2.058-7.375 1.838-9.276-.572-1.833-4.426-8.216-8.804-10.858 4.817 1.906 9.169 8.782 9.833 10.657z" fill="#71a81b"/><path d="m23.339 52.594c-.728 4.92-3.497 6.474-3.497 6.474s1.674-1.809 2.531-6.288c-1.058-2.069-3.991-6.502-8.966-5.878 4.945-1.484 8.696 3.565 9.932 5.692z" fill="#71a81b"/><path d="m58.468 42.494c-16.088 12.33-43.688 11.19-50.855 10.63 7.56.161 39.552-3.104 50.848-14.131.489-.479 1.824 2.109.007 3.501z" fill="#699c19"/></svg>