<svg enable-background="new 0 0 64 64" height="64" viewBox="0 0 64 64" width="64" xmlns="http://www.w3.org/2000/svg" xmlns:xlink="http://www.w3.org/1999/xlink"><linearGradient id="a"><stop offset="0" stop-color="#e0dad8"/><stop offset=".4644" stop-color="#ded8d5"/><stop offset=".7539" stop-color="#d7d0cd"/><stop offset=".9953" stop-color="#ccc2be"/><stop offset="1" stop-color="#ccc2be"/></linearGradient><radialGradient id="b" cx="58.4277" cy="347.2754" gradientTransform="matrix(.7029 -.7097 -.7029 -.7097 219.2432 295.9945)" gradientUnits="userSpaceOnUse" r="8.7582" xlink:href="#a"/><radialGradient id="c" cx="51.9385" cy="344.4287" gradientTransform="matrix(.7029 -.7097 -.7029 -.7097 219.2432 295.9945)" gradientUnits="userSpaceOnUse" r="10.3663" xlink:href="#a"/><linearGradient id="d" gradientTransform="matrix(.7071 .7071 -.7071 .7071 165.8154 107.0033)" gradientUnits="userSpaceOnUse" x1="-148.0493" x2="-148.0493" y1="59.1055" y2="25.7686"><stop offset="0" stop-color="#6b0b00"/><stop offset=".083" stop-color="#7e1c01"/><stop offset=".245" stop-color="#9e3802"/><stop offset=".4138" stop-color="#b74d03"/><stop offset=".59" stop-color="#c85d03"/><stop offset=".7784" stop-color="#d36604"/><stop offset="1" stop-color="#d66904"/></linearGradient><radialGradient id="e" cx="-133.8955" cy="39.1484" gradientTransform="matrix(.6994 .6994 -3.1787 3.1787 260.5635 11.8953)" gradientUnits="userSpaceOnUse" r="3.0724"><stop offset="0" stop-color="#380404"/><stop offset=".2016" stop-color="#680404"/><stop offset=".4028" stop-color="#900505"/><stop offset=".5858" stop-color="#ac0505"/><stop offset=".7443" stop-color="#be0505"/><stop offset=".8606" stop-color="#c40505"/></radialGradient><radialGradient id="f" cx="59.7227" cy="88.0273" gradientTransform="matrix(.7097 -.7029 .7097 .7029 -49.5277 27.2974)" gradientUnits="userSpaceOnUse" r="9.4934" xlink:href="#a"/><radialGradient id="g" cx="53.2363" cy="86.0273" gradientTransform="matrix(.7097 -.7029 .7097 .7029 -49.5297 27.2988)" gradientUnits="userSpaceOnUse" r="10.3663" xlink:href="#a"/><path clip-rule="evenodd" d="m19.529 12.208c-.297.888 7.225 9.647 15.501 18.349l-4.625 4.667c-8.182-8.614-16.547-16.81-17.252-16.523-12.571 5.084-14.403-8.879-6.06-11.198 3.014-10.038 15.727-5.07 12.436 4.705z" fill="url(#b)" fill-rule="evenodd"/><path clip-rule="evenodd" d="m13.154 18.7c-12.572 5.085-14.404-8.878-6.061-11.197 8.356-2.321 10.369 9.458 6.061 11.197z" fill="url(#c)" fill-rule="evenodd"/><path d="m53.376 32.332c-.971-4.019-11.186-10.862-17.615-18.828-6.75-8.362-25.761 9.302-23.666 18.826 2.066 9.394 16.006 20.291 20.021 21.264 4.83 1.169 22.434-16.432 21.26-21.262z" fill="url(#d)"/><g fill="#8f2b00"><path d="m37.755 17.217c-6.724-5.836-21.699 7.936-22.673 17.387 3.889-8.251 15.591-18.082 22.673-17.387z" opacity=".3"/><path d="m43.795 22.862c-6.708-5.854-21.721 7.873-22.724 17.321 3.914-8.238 15.643-18.035 22.724-17.321z" opacity=".3"/><path d="m50.155 28.901c-6.832-5.71-21.548 8.335-22.349 17.804 3.737-8.321 15.256-18.366 22.349-17.804z" opacity=".3"/></g><path d="m53.021 32.334c-1.457-6.035-26.941 19.443-20.902 20.904 4.747 1.15 22.058-16.155 20.902-20.904z" fill="#d6a57c"/><path d="m52.571 33.099c-1.006-5.32-25.013 18.68-19.689 19.689 4.185.796 20.49-15.505 19.689-19.689z" fill="url(#e)"/><path clip-rule="evenodd" d="m56.495 56.906c-2.318 8.345-16.281 6.513-11.197-6.061.129-.313-2.248-2.967-4.904-5.757-.045-1.368 4.123-5.303 5.139-5.324 3.021 2.545 5.859 4.841 6.26 4.706 9.774-3.29 14.741 9.423 4.702 12.436z" fill="url(#f)" fill-rule="evenodd"/><path clip-rule="evenodd" d="m45.298 50.846c-5.084 12.573 8.879 14.405 11.197 6.061 2.322-8.357-9.457-10.369-11.197-6.061z" fill="url(#g)" fill-rule="evenodd"/></svg>