<svg enable-background="new 0 0 64 64" height="64" viewBox="0 0 64 64" width="64" xmlns="http://www.w3.org/2000/svg" xmlns:xlink="http://www.w3.org/1999/xlink"><linearGradient id="a"><stop offset="0" stop-color="#db4d27"/><stop offset=".2274" stop-color="#d54121"/><stop offset=".637" stop-color="#c52111"/><stop offset="1" stop-color="#b50000"/></linearGradient><linearGradient id="b" gradientUnits="userSpaceOnUse" x1="34.9497" x2="40.0882" xlink:href="#a" y1="38.1431" y2="24.0252"/><linearGradient id="c" gradientUnits="userSpaceOnUse" x1="16.1035" x2="21.3948" xlink:href="#a" y1="28.0039" y2="13.4662"/><linearGradient id="d" gradientTransform="matrix(.8941 -.465 .4636 .8962 -5.8036 -21.2096)" gradientUnits="userSpaceOnUse" x1="-5.9263" x2="-1.4316" xlink:href="#a" y1="73.1074" y2="60.7584"/><radialGradient id="e" cx="-20.6743" cy="-98.6123" gradientTransform="matrix(.8775 .4931 -.1891 .3107 31.4259 60.507)" gradientUnits="userSpaceOnUse" r="37.4547"><stop offset=".4909" stop-color="#995b11"/><stop offset=".7333" stop-color="#cc8533"/></radialGradient><linearGradient id="f" gradientUnits="userSpaceOnUse" x1="8.9951" x2="8.9951" xlink:href="#a" y1="48.29" y2="37.251"/><linearGradient id="g" gradientUnits="userSpaceOnUse" x1="15.5835" x2="15.5835" xlink:href="#a" y1="58.4043" y2="48.6807"/><path d="m57.864 28.687c-10.295-2.445-51.72 20.507-51.212 33.233 1.039.717 4.943-3.479 12.777-7.533 4.02-2.077 17.367-8.771 19.962-10.739 8.25-6.263 17.463-8.389 18.512-11.899.239-.801-.039-3.062-.039-3.062z" fill="#874c14"/><path d="m9.453 10.722s-1.24 9.602-1.037 13.883c.238 5.003-.883 11.835-.883 11.835l-.899 12.006c-1.095 11.066-.781 15.411 1.014 12.74 1.004-1.492 2.434-2.49 2.434-2.49l11.977-7.542s4.127-3.725 8.764-3.725c1.945 0 2.542-4.578 6.427-4.963 3.088-.305 2.811-3.142 5.277-3.944 5.227-1.7 8.314-5.487 8.314-5.487 2.166-13.491-27.916-29.653-41.388-22.313z" fill="#ffcb63"/><path d="m30.087 27.228c3.687-10.484 21.281-.516 14.603 7.873-6.658 8.362-18.149 2.21-14.603-7.873z" fill="#b00000"/><path d="m30.458 27.431c3.458-9.836 19.966-.483 13.701 7.387-6.246 7.845-17.029 2.074-13.701-7.387z" fill="url(#b)"/><path d="m11.017 17.012c5.82-10.05 22.052-.675 15.004 8.091-6.883 8.555-20.344 1.127-15.004-8.091z" fill="#b00000"/><path d="m11.435 17.071c5.506-9.506 20.861-.637 14.193 7.654-6.511 8.094-19.246 1.068-14.193-7.654z" fill="url(#c)"/><path d="m14.521 40.372c.709-9.392 15.287-9.16 14.58.23-.709 9.389-15.287 9.159-14.58-.23z" fill="#b00000"/><path d="m15.033 40.378c.672-8.895 14.479-8.675 13.809.219-.673 8.89-14.479 8.673-13.809-.219z" fill="url(#d)"/><path d="m7.533 36.44c6.141 2.002 5.389 10.842-.898 12.006" fill="#b00000"/><path d="m10.082 58.695c.508.273 11.879-6.774 11.977-7.542-5.534-6.658-16.474.485-11.977 7.542z" fill="#b00000"/><path d="m30.888 18.33c1.732-1.056 3.429 1.372 1.695 2.427-1.734 1.057-3.427-1.37-1.695-2.427z" fill="#fac150"/><path d="m37.021 19.666c1.605-.978 3.174 1.271 1.57 2.246-1.604.978-3.174-1.27-1.57-2.246z" fill="#fac150"/><path d="m34.53 17.409c1.137-.691 2.25.902 1.113 1.597-1.136.692-2.249-.902-1.113-1.597z" fill="#fac150"/><path d="m47.45 30.854c1.305-.795 2.584 1.035 1.275 1.83-1.304.797-2.583-1.031-1.275-1.83z" fill="#fac150"/><path d="m25.392 31.153c-1.822-1.021-.18-3.574 1.643-2.553 1.824 1.024.183 3.577-1.643 2.553z" fill="#fac150"/><path d="m10.75 13.38c-1.197-.67-.117-2.347 1.078-1.677 1.197.672.119 2.349-1.078 1.677z" fill="#fac150"/><path d="m27.933 16.276c-1.375-.771-.139-2.696 1.236-1.926s.139 2.696-1.236 1.926z" fill="#fac150"/><path d="m28.845 24.685c-.846-.474-.084-1.659.762-1.186.848.477.086 1.662-.762 1.186z" fill="#fac150"/><path d="m12.3 34.715c.797-1.288 2.865-.173 2.068 1.116-.796 1.287-2.865.173-2.068-1.116z" fill="#fac150"/><path d="m31.505 39.854c.904-1.461 3.25-.197 2.345 1.264-.901 1.461-3.247.196-2.345-1.264z" fill="#fac150"/><path d="m9.841 31.185c.834-1.35 3.006-.18 2.172 1.172-.836 1.351-3.01.179-2.172-1.172z" fill="#fac150"/><path d="m29.644 44.36c.42-.678 1.508-.092 1.088.588-.418.678-1.508.09-1.088-.588z" fill="#fac150"/><path d="m22.783 31.013c.539-.873 1.941-.115 1.402.756-.539.875-1.943.118-1.402-.756z" fill="#fac150"/><path d="m16.701 31.124c.383-.617 1.377-.083.992.535-.383.618-1.373.083-.992-.535z" fill="#fac150"/><path d="m12.316 45.392c.785-1.27 2.822-.174 2.037 1.096-.783 1.267-2.82.169-2.037-1.096z" fill="#fac150"/><path d="m7.638 49.937c.584-.945 2.1-.129 1.516.816-.584.943-2.098.129-1.516-.816z" fill="#fac150"/><path d="m9.453 10.722c8.918-3.686 20.705 2.717 24.201 3.674 3.836 1.05 14.957 9.353 17.188 18.639 0 0 3.113-5.326 7.023-4.348-5.454-14.752-14.716-18.566-19.817-20.639-4.166-1.694-15.533-8.424-25.828-5.173-6.775 3.165-2.767 7.847-2.767 7.847z" fill="url(#e)"/><path d="m7.472 37.251c-.801 5.266-.736 11.039-.736 11.039 5.305-1.174 6.426-9.023.736-11.039z" fill="url(#f)"/><path d="m10.291 58.404s5.98-4.423 11.438-7.141c-5.423-6.436-15.235.376-11.438 7.141z" fill="url(#g)"/><g fill="#fff"><path d="m21.257 23.313c-1.822-1.021-.182-3.574 1.643-2.553 1.822 1.022.182 3.576-1.643 2.553z" opacity=".07"/><path d="m16.435 17.649c.795-1.287 2.863-.172 2.068 1.117-.796 1.288-2.865.172-2.068-1.117z" opacity=".07"/><path d="m13.847 22.284c.852-1.379 3.068-.184 2.217 1.195-.854 1.381-3.072.186-2.217-1.195z" opacity=".07"/><path d="m23.781 19.817c.383-.617 1.375-.083.992.535s-1.375.084-.992-.535z" opacity=".07"/><path d="m34.97 29.775c-.266 2.071-3.248 1.502-2.98-.57.267-2.073 3.247-1.505 2.98.57z" opacity=".07"/><path d="m40.515 30.413c-1.49-.258-1.229-2.593.264-2.336 1.492.258 1.23 2.594-.264 2.336z" opacity=".07"/><path d="m39.782 34.942c-1.217-.209-1.004-2.117.213-1.907 1.221.21 1.006 2.118-.213 1.907z" opacity=".07"/><path d="m41.712 33.442c-.715-.125-.592-1.246.127-1.121.715.125.59 1.244-.127 1.121z" opacity=".07"/><path d="m20.779 42.548c-.268 2.072-3.248 1.502-2.982-.57.267-2.074 3.249-1.505 2.982.57z" opacity=".07"/><path d="m13.98 54.731c-.266 2.072-3.248 1.502-2.98-.57.267-2.074 3.248-1.506 2.98.57z" opacity=".07"/><path d="m24.642 43.43c-1.492-.258-1.23-2.593.264-2.336 1.49.258 1.23 2.594-.264 2.336z" opacity=".07"/><path d="m16.884 52.841c-1.492-.258-1.23-2.592.264-2.336 1.49.258 1.23 2.594-.264 2.336z" opacity=".07"/><path d="m18.054 38.848c-1.012-.173-.832-1.758.178-1.583 1.012.173.834 1.758-.178 1.583z" opacity=".07"/><path d="m22.998 36.87c-1.012-.174-.832-1.758.178-1.584 1.011.174.833 1.76-.178 1.584z" opacity=".07"/><path d="m8.513 41.47c-1.01-.174-.832-1.758.178-1.584 1.014.174.836 1.76-.178 1.584z" opacity=".07"/><path d="m26.355 39.418c-.986-.172-.814-1.718.174-1.546s.814 1.717-.174 1.546z" opacity=".07"/><path d="m8.898 45.157c-1.4-.244-1.156-2.439.248-2.195 1.402.244 1.156 2.437-.248 2.195z" opacity=".07"/></g></svg>