<svg enable-background="new 0 0 64 64" height="64" viewBox="0 0 64 64" width="64" xmlns="http://www.w3.org/2000/svg"><path d="m32.487 61.796c7.253-.913 26.156-8.866 27.431-12.161 1.377-3.558-.984-16.362-.984-19.635 0-2.729 2.844-3.86 2.844-7.364.505-7.287-13.694-10.636-20.546-10.636-8.85 0-37.232 2.688-39.199 16.073z" fill="#c48354"/><path d="m60.549 26.476c-4.521-1.866-31.323 1.123-26.652 12.832 0 0 14.713-9.308 25.037-9.308 0-1.883 1.615-3.524 1.615-3.524z" fill="#9e6238"/><path d="m57.463 16.165c6.811 4.831-16.684 9.529-21.52 8.813l-3.01 12.778s12.967-8.912 27.616-11.28c1.855-2.569 2.906-6.947-3.086-10.311z" fill="#b36f3f"/><path d="m19.089 61.076c3.198-.016 15.344 2.839 16.756-1.41 2.066-6.213-.674-20.53-.674-23.393 0-3.644 2.844-5.188 2.844-8.24 0-7.098-9.383-10.072-18.007-10.072-8.628 0-18.008 2.403-18.008 10.072 0 3.053 2.844 5.342 2.844 8.24 0 2.862-2.631 14.161-.931 21.894 1.278 5.813 11.323 2.926 15.176 2.909z" fill="#b36f3f"/><path d="m19.146 60.197c2.999-.016 14.382 2.719 15.707-1.353 1.937-5.953-.632-19.676-.632-22.418 0-3.491 2.666-4.971 2.666-7.895 0-6.804-8.795-9.654-16.878-9.654-8.087 0-16.879 2.304-16.879 9.654 0 2.924 2.665 5.118 2.665 7.895 0 2.742-2.467 13.572-.871 20.981 1.197 5.573 10.612 2.806 14.222 2.79z" fill="#ffefdb"/><g fill="#fff5e8"><path d="m32.018 34.756c0 1.154-1.687 1.154-1.687 0 .001-1.156 1.687-1.156 1.687 0z"/><path d="m27.871 50.397c0 1.154-1.688 1.154-1.688 0 0-1.156 1.688-1.156 1.688 0z"/><path d="m11.962 47.673c0 1.156-1.687 1.156-1.687 0 .001-1.155 1.687-1.155 1.687 0z"/><path d="m23.585 32.474c0 1.157-1.688 1.157-1.688 0 .001-1.155 1.688-1.155 1.688 0z"/><path d="m16.655 26.464c0 1.154-1.687 1.154-1.687 0 0-1.156 1.687-1.156 1.687 0z"/><path d="m9.685 29.788c0 1.155-1.688 1.155-1.688 0 .001-1.157 1.688-1.157 1.688 0z"/><path d="m29.646 26.612c0 1.183-1.727 1.183-1.727 0s1.727-1.182 1.727 0z"/><path d="m19.714 42.653c0 1.181-1.729 1.181-1.729 0 .001-1.184 1.729-1.184 1.729 0z"/><path d="m12.708 37.594c0 1.42-2.072 1.42-2.072 0s2.072-1.42 2.072 0z"/><path d="m12.537 55.179c0 1.181-1.727 1.181-1.727 0 0-1.185 1.727-1.185 1.727 0z"/><path d="m31.173 55.179c0 1.419-2.071 1.419-2.071 0 0-1.422 2.071-1.422 2.071 0z"/><path d="m19.693 50.994c0 1.156-1.688 1.156-1.688 0 0-1.155 1.688-1.155 1.688 0z"/><path d="m25.831 39.349c0 1.156-1.687 1.156-1.687 0s1.687-1.156 1.687 0z"/><path d="m23.087 23.491c0 1.184-1.727 1.184-1.727 0s1.727-1.183 1.727 0z"/><path d="m17.917 34.064c0 1.183-1.726 1.183-1.726 0 .001-1.183 1.726-1.183 1.726 0z"/><path d="m10.602 24.379c0 1.183-1.728 1.183-1.728 0 .001-1.182 1.728-1.182 1.728 0z"/><path d="m23.607 56.468c0 1.185-1.729 1.185-1.729 0 0-1.183 1.729-1.183 1.729 0z"/><path d="m31.001 43.803c0 1.184-1.727 1.184-1.727 0 .001-1.183 1.727-1.183 1.727 0z"/></g></svg>