<svg enable-background="new 0 0 64 64" height="64" viewBox="0 0 64 64" width="64" xmlns="http://www.w3.org/2000/svg" xmlns:xlink="http://www.w3.org/1999/xlink"><radialGradient id="a" cx="31.333" cy="24.667" gradientTransform="matrix(1 0 0 .8986 0 2.501)" gradientUnits="userSpaceOnUse" r="31.4741"><stop offset="0" stop-color="#ffbe5c"/><stop offset=".2553" stop-color="#fbb958"/><stop offset=".5648" stop-color="#f1aa4b"/><stop offset=".9011" stop-color="#df9237"/><stop offset="1" stop-color="#d98930"/></radialGradient><linearGradient id="b" gradientUnits="userSpaceOnUse" x1="32.0005" x2="32.0005" y1="61.999" y2="30.5449"><stop offset="0" stop-color="#1f2420"/><stop offset=".5402" stop-color="#2b342c"/><stop offset="1" stop-color="#374538"/></linearGradient><path d="m61.992 33.133c-.388-8.552-3.055-14.982-8.51-21.521-5.562-6.668-13.526-9.231-21.922-9.583-8.162-.343-15.491 2.362-21.363 8.266-3.082 3.1-5.56 7.01-7.25 11.028-1.411 3.355-.805 6.888-.838 10.458-.032 3.427-.6 7.255 1.211 10.295 2.027 3.4 3.576 7.017 6.021 10.171 10.236 13.207 32.445 12.427 43.692 1.118 2.656-2.67 6.291-6.779 6.809-10.641.429-3.201 2.296-6.395 2.15-9.591z" fill="url(#a)"/><g fill="#d46a06"><path d="m17.039 18.894c-.605-1.615-7.678-1.764-8.234.158.81 1.97 7.73 1.445 8.234-.158z" opacity=".3"/><path d="m25.271 25.861c-.605-1.615-7.678-1.764-8.232.16.809 1.971 7.727 1.446 8.232-.16z" opacity=".3"/><path d="m43.047 33.365c1.494-.863.475-7.863-1.512-8.096-1.81 1.124-.154 7.862 1.512 8.096z" opacity=".3"/><path d="m59.539 39.054c-.605-1.615-7.676-1.764-8.232.158.808 1.971 7.728 1.447 8.232-.158z" opacity=".3"/><path d="m29.822 6.253c-.604-1.615-7.678-1.764-8.233.158.808 1.973 7.729 1.447 8.233-.158z" opacity=".3"/><path d="m9.382 34.387c.953-1.439-3.086-7.248-4.967-6.568-1.117 1.812 3.373 7.103 4.967 6.568z" opacity=".3"/><path d="m11.819 36.89c-.59-1.621-7.66-1.834-8.234.084.791 1.978 7.715 1.515 8.234-.084z" opacity=".3"/><path d="m60.567 30.513c.951-1.439-3.086-7.248-4.969-6.568-1.117 1.812 3.374 7.101 4.969 6.568z" opacity=".3"/><path d="m30.964 27.907c.951-1.439-3.086-7.246-4.966-6.568-1.119 1.814 3.373 7.103 4.966 6.568z" opacity=".3"/><path d="m55.279 48.092c.951-1.438-3.086-7.246-4.969-6.566-1.119 1.812 3.374 7.101 4.969 6.566z" opacity=".3"/><path d="m48.928 37.775c1.652.498 6.059-5.037 4.867-6.645-2.057-.55-5.834 5.27-4.867 6.645z" opacity=".3"/><path d="m20.359 19.934c1.723-.076 4.051-6.756 2.393-7.879-2.123.16-3.762 6.904-2.393 7.879z" opacity=".3"/><path d="m11.861 34.549c1.453.932 7.201-3.193 6.492-5.064-1.828-1.092-7.051 3.478-6.492 5.064z" opacity=".3"/><path d="m14.913 14.109c1.68.389 5.713-5.425 4.417-6.949-2.089-.414-5.476 5.643-4.417 6.949z" opacity=".3"/><path d="m5.138 26.785c1.076 1.35 7.848-.695 7.783-2.695-1.379-1.623-7.796 1.014-7.783 2.695z" opacity=".3"/><path d="m39.87 18.551c1.074 1.35 7.848-.695 7.781-2.695-1.379-1.624-7.797 1.013-7.781 2.695z" opacity=".3"/><path d="m32.707 5.677c-.461 1.662 5.174 5.939 6.754 4.711.504-2.071-5.402-5.713-6.754-4.711z" opacity=".3"/><path d="m42.991 8.227c-.459 1.662 5.176 5.939 6.756 4.711.504-2.069-5.402-5.711-6.756-4.711z" opacity=".3"/><path d="m31.22 12.024c-.459 1.664 5.176 5.939 6.754 4.713.505-2.07-5.402-5.713-6.754-4.713z" opacity=".3"/><path d="m42.096 21.509c-.459 1.664 5.174 5.939 6.754 4.713.504-2.071-5.403-5.713-6.754-4.713z" opacity=".3"/><path d="m36.815 19.524c-1.701.287-3.191 7.203-1.41 8.115 2.088-.419 2.889-7.312 1.41-8.115z" opacity=".3"/><path d="m6.657 41.111c-1.201 1.24 1.695 7.693 3.672 7.373 1.431-1.576-2.006-7.603-3.672-7.373z" opacity=".3"/><path d="m28.373 10.109c-1.615.605-1.764 7.678.158 8.234 1.97-.81 1.445-7.728-.158-8.234z" opacity=".3"/><path d="m50.771 17.167c-1.615.605-1.764 7.678.158 8.234 1.971-.81 1.446-7.728-.158-8.234z" opacity=".3"/></g><path d="m48.077 31.529c-1.12-1.167-30.34-1.451-32.047 0-2.625 2.244-3.653 22.142-2.289 26.378 1.757 5.456 34.867 5.456 36.625 0 1.257-3.901-.005-23.995-2.289-26.378z" fill="url(#b)"/><path d="m15.41 44.553c-.502.614-.981-.033-.495-.648 7.743-9.288 13.525-12.12 13.537-12.143.308.277-5.155 3.366-13.042 12.791z" fill="#1f2420" opacity=".5"/><path d="m21.356 58.369c-1.07 1.058-2.079.048-1.021-1.021 32.821-32.838 33.861-31.799 1.021 1.021z" fill="#1f2420" opacity=".5"/><path d="m16.409 53.398c-.865 1.068-1.325-.125-.52-1.188 13.179-14.805 21.909-20.782 22.065-20.747.445.283-7.683 6.575-21.545 21.935z" fill="#1f2420" opacity=".5"/><path d="m28.606 60.569c-1.003.747-2.174.264-1.166-.541 14.453-12.954 20.298-20.635 20.583-20.194.041.151-5.478 8.425-19.417 20.735z" fill="#1f2420" opacity=".5"/><path d="m38.571 59.845c-.566.45-1.167.009-.597-.456 8.696-7.278 11.547-12.319 11.803-12.035-.019.011-2.634 5.347-11.206 12.491z" fill="#1f2420" opacity=".5"/><path d="m26.468 18.686c-.494.654-2.888-1.155-2.394-1.809.495-.654 2.888 1.155 2.394 1.809z" fill="#302c3b"/><path d="m11.838 43.544c-.494.654-2.888-1.155-2.394-1.809.495-.654 2.889 1.156 2.394 1.809z" fill="#302c3b"/><path d="m57.883 35.823c-.494.654-2.888-1.155-2.394-1.809s2.888 1.156 2.394 1.809z" fill="#302c3b"/><path d="m39.313 24.109c-.566-.592 1.603-2.665 2.168-2.072.566.592-1.603 2.665-2.168 2.072z" fill="#302c3b"/><path d="m10.735 15.164c-.566-.592 1.603-2.665 2.169-2.072.566.592-1.603 2.665-2.169 2.072z" fill="#302c3b"/><path d="m41.088 12.213c.059-.816 3.052-.597 2.991.221-.059.816-3.052.596-2.991-.221z" fill="#302c3b"/><path d="m10.323 29.831c.06-.816 3.052-.597 2.992.221-.06.816-3.052.596-2.992-.221z" fill="#302c3b"/></svg>