<svg enable-background="new 0 0 64 64" height="64" viewBox="0 0 64 64" width="64" xmlns="http://www.w3.org/2000/svg" xmlns:xlink="http://www.w3.org/1999/xlink"><radialGradient id="a" cx="327.3623" cy="60.0859" gradientTransform="matrix(.6967 -.697 .7796 .7799 -228.9221 213.2282)" gradientUnits="userSpaceOnUse" r="30.55"><stop offset="0" stop-color="#ff000e"/><stop offset=".2136" stop-color="#f8000d"/><stop offset=".5143" stop-color="#e60009"/><stop offset=".8652" stop-color="#c80102"/><stop offset=".9767" stop-color="#bd0100"/></radialGradient><path d="m18.914 18.914c-9.09 9.074-14.979 21.833-4.259 32.528 5.815 5.806 14.149 7.078 22.564 8.375 5.775.892 13.753 5.327 20.88-1.792 7.053-7.041 2.559-15.078 1.694-20.792-1.295-8.554-2.555-17.015-8.242-22.598-11.563-11.352-22.019-6.145-32.637 4.279z" fill="url(#a)"/><path d="m34.454 30.078c1.676 1.82-.201 3.483-1.873 1.663-1.674-1.818.202-3.48 1.873-1.663z" fill="#8f0008" opacity=".2"/><path d="m34.188 30.638c.602 1.656.602 1.656-1.015.897-2.244-1.053.176-3.198 1.015-.897z" fill="#ea8800"/><path d="m43.089 32.438c1.779 1.747-.021 3.515-1.799 1.768-1.783-1.748.021-3.516 1.799-1.768z" fill="#8f0008" opacity=".2"/><path d="m42.842 33.016c.691 1.622.691 1.622-.964.948-2.298-.941.005-3.203.964-.948z" fill="#ea8800"/><path d="m51.216 36.258c1.811 1.777-.022 3.578-1.835 1.799s.021-3.58 1.835-1.799z" fill="#8f0008" opacity=".2"/><path d="m50.952 36.85c.688 1.624.688 1.624-.967.948-2.297-.941.009-3.203.967-.948z" fill="#ea8800"/><path d="m58.458 45.535c1.075 2.284-1.279 3.353-2.354 1.068-1.073-2.285 1.279-3.353 2.354-1.068z" fill="#8f0008" opacity=".2"/><path d="m58.004 46.004c.072 1.757.072 1.757-1.241.563-1.825-1.663 1.134-3.004 1.241-.563z" fill="#ea8800"/><path d="m58.311 53.334c.398 2.655-2.339 3.053-2.738.395-.399-2.654 2.339-3.049 2.738-.395z" fill="#8f0008" opacity=".2"/><path d="m57.652 53.669c-.435 1.707-.435 1.707-1.353.196-1.27-2.101 1.956-2.565 1.353-.196z" fill="#ea8800"/><path d="m50.736 46.171c2.106 1.567.491 3.663-1.618 2.092-2.109-1.566-.493-3.661 1.618-2.092z" fill="#8f0008" opacity=".2"/><path d="m50.532 46.826c.91 1.517.91 1.517-.824 1.07-2.406-.624-.44-3.173.824-1.07z" fill="#ea8800"/><path d="m43.332 56.458c2.396 1.031 1.339 3.41-1.06 2.382-2.397-1.03-1.337-3.411 1.06-2.382z" fill="#8f0008" opacity=".2"/><path d="m43.299 57.131c1.242 1.266 1.242 1.266-.551 1.228-2.486-.051-1.179-2.985.551-1.228z" fill="#ea8800"/><path d="m40.904 49.525c2.399 1.03 1.338 3.416-1.064 2.385-2.402-1.029-1.341-3.415 1.064-2.385z" fill="#8f0008" opacity=".2"/><path d="m40.868 50.199c1.243 1.267 1.243 1.267-.549 1.229-2.488-.052-1.182-2.985.549-1.229z" fill="#ea8800"/><path d="m43.503 41.807c1.968 1.79.121 3.744-1.846 1.951-1.967-1.789-.122-3.743 1.846-1.951z" fill="#8f0008" opacity=".2"/><path d="m43.221 42.453c.751 1.597.751 1.597-.931.982-2.33-.852-.113-3.199.931-.982z" fill="#ea8800"/><path d="m33.932 46.931c1.892 1.723.117 3.604-1.775 1.877-1.895-1.721-.12-3.602 1.775-1.877z" fill="#8f0008" opacity=".2"/><path d="m33.685 47.54c.75 1.597.75 1.597-.929.982-2.333-.853-.117-3.2.929-.982z" fill="#ea8800"/><path d="m32.443 53.428c2.132 1.425.666 3.543-1.466 2.116-2.13-1.422-.664-3.541 1.466-2.116z" fill="#8f0008" opacity=".2"/><path d="m32.294 54.066c.985 1.471.985 1.471-.769 1.108-2.435-.5-.6-3.147.769-1.108z" fill="#ea8800"/><path d="m23.229 49.01c2.235 1.493.695 3.717-1.54 2.222-2.239-1.493-.699-3.715 1.54-2.222z" fill="#8f0008" opacity=".2"/><path d="m23.04 49.703c.985 1.467.985 1.467-.769 1.106-2.436-.501-.603-3.147.769-1.106z" fill="#ea8800"/><path d="m35.742 38.759c1.424 2.16-.801 3.576-2.229 1.415-1.423-2.157.802-3.573 2.229-1.415z" fill="#8f0008" opacity=".2"/><path d="m35.329 39.305c.33 1.727.33 1.727-1.143.727-2.046-1.391.688-3.133 1.143-.727z" fill="#ea8800"/><path d="m20.997 36.195c1.369 2.075-.771 3.438-2.141 1.359-1.371-2.075.768-3.438 2.141-1.359z" fill="#8f0008" opacity=".2"/><path d="m20.628 36.71c.329 1.728.329 1.728-1.143.728-2.049-1.389.686-3.13 1.143-.728z" fill="#ea8800"/><path d="m26.307 42.759c1.447 2.19-.81 3.629-2.26 1.437-1.447-2.192.811-3.631 2.26-1.437z" fill="#8f0008" opacity=".2"/><path d="m25.881 43.313c.329 1.727.329 1.727-1.146.729-2.047-1.392.689-3.132 1.146-.729z" fill="#ea8800"/><path d="m17.164 43.127c.721 2.626-1.985 3.345-2.709.718-.724-2.626 1.983-3.345 2.709-.718z" fill="#8f0008" opacity=".2"/><path d="m16.529 43.542c-.225 1.744-.225 1.744-1.316.349-1.517-1.938 1.633-2.775 1.316-.349z" fill="#ea8800"/><path d="m15.19 33.589c-.184 2.615-2.882 2.436-2.697-.186.181-2.615 2.882-2.434 2.697.186z" fill="#8f0008" opacity=".2"/><path d="m14.505 33.78c-.795 1.575-.795 1.575-1.36-.094-.791-2.317 2.462-2.097 1.36.094z" fill="#ea8800"/><path d="m23.01 28.3c1.718 2.031-.373 3.742-2.096 1.71-1.723-2.03.371-3.744 2.096-1.71z" fill="#8f0008" opacity=".2"/><path d="m22.638 28.911c.538 1.677.538 1.677-1.045.853-2.203-1.139.303-3.186 1.045-.853z" fill="#ea8800"/><path d="m28.508 34.205c1.662 1.964-.362 3.621-2.027 1.655-1.668-1.965.36-3.621 2.027-1.655z" fill="#8f0008" opacity=".2"/><path d="m28.172 34.789c.536 1.677.536 1.677-1.049.854-2.199-1.141.306-3.188 1.049-.854z" fill="#ea8800"/><path d="m50.277 53.493c2.421 1.039 1.351 3.446-1.072 2.403-2.42-1.038-1.351-3.445 1.072-2.403z" fill="#8f0008" opacity=".2"/><path d="m50.235 54.178c1.244 1.266 1.244 1.266-.546 1.229-2.49-.053-1.182-2.986.546-1.229z" fill="#ea8800"/><path d="m48.762 26.919c1.641 1.896-.309 3.525-1.951 1.633-1.642-1.895.308-3.527 1.951-1.633z" fill="#8f0008" opacity=".2"/><path d="m48.463 27.479c.552 1.676.552 1.676-1.042.872-2.211-1.115.269-3.193 1.042-.872z" fill="#ea8800"/><path d="m51.147 19.434c1.834 1.787-.007 3.607-1.838 1.822-1.834-1.787.004-3.608 1.838-1.822z" fill="#8f0008" opacity=".2"/><path d="m50.881 20.036c.696 1.62.696 1.62-.963.952-2.301-.931-.005-3.205.963-.952z" fill="#ea8800"/><path d="m36.691 11.069c2.617.612 1.984 3.214-.632 2.599-2.619-.614-1.985-3.213.632-2.599z" fill="#8f0008" opacity=".2"/><path d="m36.77 11.771c1.454 1.033 1.454 1.033-.317 1.306-2.461.379-1.702-2.735.317-1.306z" fill="#ea8800"/><path d="m39.1 23.871c2.291 1.055 1.202 3.327-1.085 2.273-2.29-1.055-1.202-3.329 1.085-2.273z" fill="#8f0008" opacity=".2"/><path d="m39.065 24.502c1.211 1.299 1.211 1.299-.579 1.213-2.483-.117-1.099-3.015.579-1.213z" fill="#ea8800"/><path d="m45.148 13.502c2.438 1.119 1.28 3.539-1.155 2.418-2.435-1.122-1.276-3.542 1.155-2.418z" fill="#8f0008" opacity=".2"/><path d="m45.081 14.203c1.21 1.301 1.21 1.301-.581 1.215-2.483-.117-1.098-3.016.581-1.215z" fill="#ea8800"/><path d="m28.938 23.724c2.443.874 1.541 3.301-.898 2.428-2.446-.873-1.544-3.301.898-2.428z" fill="#8f0008" opacity=".2"/><path d="m28.951 24.387c1.321 1.189 1.321 1.189-.468 1.261-2.488.102-1.372-2.907.468-1.261z" fill="#ea8800"/><path d="m33.688 17.491c2.407.862 1.52 3.254-.887 2.392-2.406-.858-1.518-3.251.887-2.392z" fill="#8f0008" opacity=".2"/><path d="m33.706 18.139c1.324 1.188 1.324 1.188-.468 1.26-2.487.101-1.37-2.906.468-1.26z" fill="#ea8800"/><path d="m42.219 18.163c2.5.894 1.578 3.377-.919 2.483-2.5-.893-1.578-3.375.919-2.483z" fill="#8f0008" opacity=".2"/><path d="m42.222 18.855c1.321 1.188 1.321 1.188-.469 1.26-2.487.102-1.371-2.906.469-1.26z" fill="#ea8800"/><path d="m56.217 28.713c.616 2.332-1.787 2.942-2.402.612-.619-2.333 1.785-2.942 2.402-.612z" fill="#8f0008" opacity=".2"/><path d="m55.737 29.081c-.247 1.741-.247 1.741-1.322.334-1.494-1.952 1.662-2.758 1.322-.334z" fill="#ea8800"/><path d="m57.728 36.682c1.097 2.199-1.167 3.29-2.265 1.091-1.104-2.199 1.165-3.29 2.265-1.091z" fill="#8f0008" opacity=".2"/><path d="m57.315 37.146c.115 1.755.115 1.755-1.227.588-1.865-1.617 1.061-3.026 1.227-.588z" fill="#ea8800"/><path d="m21.912 6.639c1.143 4.815-5.594 5.802-1.279 13.773 7.74-.896 5.57-8.724 1.279-13.773z" fill="#7ab51d"/><path d="m6.648 21.869c4.826 1.141 5.813-5.581 13.804-1.275-.899 7.725-8.743 5.56-13.804 1.275z" fill="#7ab51d"/><path d="m31.757 2c.337 3.235-3.631 4.999-5.008 10.404 0 0-4.842 3.322-7.916 6.393-3.078 3.07-6.405 7.9-6.405 7.9-5.418 1.374-7.185 5.334-10.428 5 3.982 5.59 14.052.041 13.597-5.407 0 0 4.527-2.152 4.826-5.908 3.759-.296 5.916-4.813 5.916-4.813 5.461.455 11.02-9.595 5.418-13.569z" fill="#56ab15"/><path d="m26.813 6.577c.878 2.577-2.255 5.035-2.397 6.947-.219 2.933.042 5.014-4.128 6.724-1.716 4.164-3.804 3.902-6.741 4.121-1.913.143-4.378 3.269-6.96 2.394 4.132 8.641 15.92-1.421 13.984-6.23 4.821 1.932 14.902-9.833 6.242-13.956z" fill="#449c00"/><path d="m20.755 18.807c-.365.917-1.424 1.221-1.424 1.221-5.822-2.211-10.668-9.454-8.443-11.638 4.281-4.204-.373 5.861 9.867 10.417z" fill="#7ab51d"/></svg>