<svg enable-background="new 0 0 64 64" height="64" viewBox="0 0 64 64" width="64" xmlns="http://www.w3.org/2000/svg" xmlns:xlink="http://www.w3.org/1999/xlink"><linearGradient id="a"><stop offset="0" stop-color="#e0dad8"/><stop offset=".4644" stop-color="#ded8d5"/><stop offset=".7539" stop-color="#d7d0cd"/><stop offset=".9953" stop-color="#ccc2be"/><stop offset="1" stop-color="#ccc2be"/></linearGradient><radialGradient id="b" cx="253.0205" cy="347.9121" gradientTransform="matrix(.7055 -.7229 -.7055 -.7229 83.3643 442.7201)" gradientUnits="userSpaceOnUse" r="8.9415" xlink:href="#a"/><radialGradient id="c" cx="246.5322" cy="345.2783" gradientTransform="matrix(.7055 -.7229 -.7055 -.7229 83.3643 442.7201)" gradientUnits="userSpaceOnUse" r="10.3663" xlink:href="#a"/><radialGradient id="d" cx="-387.582" cy="315.9697" gradientTransform="matrix(-.6736 .7529 -1.0694 -.9663 119.4379 629.2971)" gradientUnits="userSpaceOnUse" r="24.8202"><stop offset="0" stop-color="#d6863a"/><stop offset=".2086" stop-color="#d38338"/><stop offset=".3859" stop-color="#ca7833"/><stop offset=".5517" stop-color="#bb672b"/><stop offset=".7105" stop-color="#a54e20"/><stop offset=".8629" stop-color="#8a2e11"/><stop offset="1" stop-color="#6b0b00"/></radialGradient><path clip-rule="evenodd" d="m19.595 12.397c-.299.904 7.952 10.538 16.26 19.399l-4.64 4.752c-8.212-8.773-17.311-17.833-18.019-17.54-12.62 5.18-14.459-9.042-6.084-11.403 3.026-10.224 15.785-5.164 12.483 4.792z" fill="url(#b)" fill-rule="evenodd"/><path clip-rule="evenodd" d="m13.195 19.009c-12.619 5.179-14.458-9.043-6.083-11.404 8.388-2.365 10.408 9.632 6.083 11.404z" fill="url(#c)" fill-rule="evenodd"/><path d="m28.314 54.369c20.733 20.837 46.824-5.387 26.093-26.224-8.29-8.33-18.307-6.777-26.164-8.416-2.787-.583-4.866-3.077-4.866-3.077s-.649 1.73-1.009 3.692c-2.01-1.635-3.767-2.717-3.767-2.717s-.224 2.433.316 4.917c-1.183.315-2.041.642-2.041.642s2.483 2.087 3.062 4.888c1.632 7.898.083 17.964 8.376 26.295z" fill="url(#d)"/><g fill="#bf5d17"><path d="m31.113 28.034c0 1.21-.759-.71-3.321 0 .553-1.67 2.638-1.899 3.321 0z"/><path d="m48.393 47.678c-1.361 1.269 0-1.605-3.48-3.771 2.455-1.121 4.897 1.006 3.48 3.771z"/><path d="m35.601 42.845c-1.466 1.145.139-1.599-3.144-4.059 2.543-.904 4.793 1.425 3.144 4.059z"/><path d="m43.822 34.658c-.841.978-.123-1.105-2.683-2.328 1.605-.96 3.447.316 2.683 2.328z"/><path d="m41.523 25.591c-.337 1.249-.588-.942-3.423-.928 1.034-1.565 3.244-1.218 3.423.928z"/><path d="m53.334 39.508c-.521 1.214-.455-1.04-3.328-1.444 1.273-1.43 3.46-.754 3.328 1.444z"/></g></svg>