<svg enable-background="new 0 0 64 64" height="64" viewBox="0 0 64 64" width="64" xmlns="http://www.w3.org/2000/svg" xmlns:xlink="http://www.w3.org/1999/xlink"><linearGradient id="a"><stop offset=".4" stop-color="#e60026"/><stop offset=".6175" stop-color="#e30026"/><stop offset=".7583" stop-color="#db0024"/><stop offset=".8774" stop-color="#c02"/><stop offset=".9838" stop-color="#b7001f"/><stop offset="1" stop-color="#b3001e"/></linearGradient><radialGradient id="b" cx=".8428" cy="-20.8735" gradientTransform="matrix(.9397 -.3471 .3464 .9659 45.7123 56.3235)" gradientUnits="userSpaceOnUse" r="18.7336" xlink:href="#a"/><linearGradient id="c"><stop offset="0" stop-color="#b30100"/><stop offset="1" stop-color="#c21413" stop-opacity="0"/></linearGradient><radialGradient id="d" cx="17.6084" cy="-22.9033" gradientTransform="matrix(1.0247 -.3785 .1551 .4324 26.785 48.0776)" gradientUnits="userSpaceOnUse" r="7.2608" xlink:href="#c"/><linearGradient id="e"><stop offset="0" stop-color="#ff7a70" stop-opacity=".65"/><stop offset="1" stop-color="#ff7a70" stop-opacity="0"/></linearGradient><radialGradient id="f" cx="188.1328" cy="-631.771" gradientTransform="matrix(.9312 -.4976 -.5732 -.9178 -484.0186 -453.5528)" gradientUnits="userSpaceOnUse" r="4.3999" xlink:href="#e"/><radialGradient id="g" cx="124.3789" cy="-799.0391" gradientTransform="matrix(.9515 -.4227 -.4849 -.591 -464.0916 -381.5928)" gradientUnits="userSpaceOnUse" r="6.8179" xlink:href="#e"/><radialGradient id="h" cx="17.0444" cy="32.4189" gradientTransform="matrix(1 0 0 1.0279 0 5.0832)" gradientUnits="userSpaceOnUse" r="20.5479" xlink:href="#a"/><radialGradient id="i" cx="32.7676" cy="30.9009" gradientTransform="matrix(1.0905 0 0 .4602 -15.0138 20.4546)" gradientUnits="userSpaceOnUse" r="7.9641" xlink:href="#c"/><radialGradient id="j" cx="275.1465" cy="-527.1807" gradientTransform="matrix(1.0508 -.1028 -.1778 -1.0674 -373.2963 -494.2632)" gradientUnits="userSpaceOnUse" r="5.0386" xlink:href="#e"/><radialGradient id="k" cx="45.6992" cy="-600.5313" gradientTransform="matrix(1.6135 -.5671 -.7111 -.9132 -473.2143 -481.5759)" gradientUnits="userSpaceOnUse" r="5.0383"><stop offset="0" stop-color="#ff5e52" stop-opacity=".65"/><stop offset="1" stop-color="#ff5e52" stop-opacity="0"/></radialGradient><path d="m40.196 27.958c-1.287.476-16.459.914-12.778 15.252 6.387 24.861 43.985 9.665 32.37-11.956-7.074-13.167-18.303-3.772-19.592-3.296z" fill="url(#b)"/><path d="m41.507 32.104c4-1.477 3.088-3.289 12.17-6.875-5.791-.559-21.838 5.381-25.879 9.557 9.258-3.194 9.705-1.203 13.709-2.682z" fill="url(#d)"/><path d="m33.655 8.046c-.488.485-1.034.836-1.586 1.243-.451 12.405 6.866 19.981 9.438 22.814 0 0 1.172-.284 2.123-1.063-2.463-2.717-10.671-10.678-9.975-22.994z" fill="#529320"/><path d="m57.399 30.483c-1.393-2.23-4.357-3.058-6.619-1.849-2.264 1.209-2.969 3.997-1.576 6.227s4.357 3.058 6.619 1.849c2.264-1.209 2.969-3.997 1.576-6.227z" fill="url(#f)"/><path d="m48.194 35.182c-1.824-2.225-6.209-2.739-9.791-1.147-3.584 1.592-5.01 4.686-3.182 6.911 1.824 2.227 6.211 2.739 9.793 1.148 3.583-1.592 5.008-4.687 3.18-6.912z" fill="url(#g)"/><path d="m20.92 30.605c-1.504 0-17.305-5.324-18.811 10.857-2.607 28.055 41.762 26.706 37.784 0-2.421-16.266-17.471-10.857-18.973-10.857z" fill="url(#h)"/><path d="m20.737 35.377c4.67 0 4.396-2.215 15.086-2.455-5.762-2.779-24.499-2.766-30.208 0 10.725.233 10.446 2.455 15.122 2.455z" fill="url(#i)"/><path d="m21.772 35.336c-.965.146-2.066 0-2.066 0 0-13.57 7.578-32.849 31.217-33.336.523-.01.744 1.179.221 1.203-19.304 0-29.372 15.498-29.372 32.133z" fill="#56ab15"/><path d="m34.425 6.686c7.115 21.904 27.576 16.416 27.576 16.416s-18.154-14.364-27.576-16.416z" fill="#449c00"/><path d="m34.425 6.686c9.102 3.373 27.576 16.416 27.576 16.416s-7.773-23.633-27.576-16.416z" fill="#56ab15"/><path d="m14.856 39.646c-.494-2.971-3.266-5.146-6.189-4.859-2.924.285-4.895 2.925-4.4 5.895.496 2.971 3.268 5.146 6.191 4.86 2.923-.287 4.894-2.927 4.398-5.896z" fill="url(#j)"/><path d="m35.69 38.057c-1.977-2.542-7.223-3.321-11.711-1.744-4.49 1.579-6.527 4.917-4.549 7.458 1.98 2.541 7.225 3.321 11.713 1.743 4.491-1.577 6.528-4.916 4.547-7.457z" fill="url(#k)"/></svg>