<svg enable-background="new 0 0 64 64" height="64" viewBox="0 0 64 64" width="64" xmlns="http://www.w3.org/2000/svg" xmlns:xlink="http://www.w3.org/1999/xlink"><linearGradient id="a"><stop offset="0" stop-color="#ffc480"/><stop offset=".1976" stop-color="#ffbf7b"/><stop offset=".4306" stop-color="#ffb16e"/><stop offset=".6815" stop-color="#ff9959"/><stop offset=".9434" stop-color="#ff783a"/><stop offset="1" stop-color="#ff7033"/></linearGradient><radialGradient id="b" cx="43.2539" cy="26.207" gradientTransform="matrix(1 0 0 1.5449 0 -14.2738)" gradientUnits="userSpaceOnUse" r="21.0675" xlink:href="#a"/><linearGradient id="c"><stop offset="0" stop-color="#ffdc87"/><stop offset="1" stop-color="#ffdc87" stop-opacity="0"/></linearGradient><radialGradient id="d" cx="340.2461" cy="-262.3652" gradientTransform="matrix(-.8567 .0793 .1474 .8495 369.6544 223.1953)" gradientUnits="userSpaceOnUse" r="19.2681" xlink:href="#c"/><radialGradient id="e" cx="25.2793" cy="24.7109" gradientTransform="matrix(1 -.0048 .0073 1.5165 -.1807 -12.6347)" gradientUnits="userSpaceOnUse" r="20.7792" xlink:href="#a"/><radialGradient id="f" cx="481.0332" cy="-142.1348" gradientTransform="matrix(-.527 .6913 .8037 .6247 390.4774 -217.3081)" gradientUnits="userSpaceOnUse" r="16.2214" xlink:href="#c"/><path d="m31.359 12.524c7.117 4.59 17.154-1.86 21.727-7.696 0 0-18.32-2.729-21.727 7.696z" fill="#449c00"/><path d="m31.359 12.524c4.402-9.78 21.727-7.696 21.727-7.696-9.07-6.325-24.496-1.29-21.727 7.696z" fill="#56ab15"/><path d="m30.496 17.024c3.02-3.851.07-16-3.18-14.961-4.42 1.412 4.141 3.458 3.18 14.961z" fill="#785647"/><path d="m30.498 13.835c-7.18 6.348-19.506.84-25.612-4.909 0 0 20.028-6.174 25.612 4.909z" fill="#449c00"/><path d="m30.498 13.835c-6.588-10.19-25.612-4.909-25.612-4.909 9.069-8.62 27.182-5.616 25.612 4.909z" fill="#56ab15"/><path d="m30.965 12.352s-13.836 18.156-2.068 49.648c9.179 0 33.103-9.336 33.103-29.996 0-21.492-22.607-24.186-31.035-19.652z" fill="url(#b)"/><path d="m22.986 28.824c1.568 9.04 10.23 15.684 19.346 14.838 9.118-.844 15.237-8.854 13.669-17.895-1.571-9.041-10.233-15.684-19.349-14.839-9.117.843-15.237 8.855-13.666 17.896z" fill="url(#d)"/><path d="m30.965 12.352s-3.621-2.068-10.344-2.068c-6.725-.001-18.621 4.685-18.621 20.685 0 20.693 19.2 31.031 26.896 31.031 9.438-5.369 17.198-36.751 2.069-49.648z" fill="url(#e)"/><path d="m14.188 37.646c7.2 5.598 16.865 5.113 21.584-1.08 4.724-6.195 2.716-15.752-4.485-21.349-7.202-5.597-16.866-5.112-21.586 1.082-4.723 6.193-2.714 15.752 4.487 21.347z" fill="url(#f)"/></svg>