<svg enable-background="new 0 0 64 64" height="64" viewBox="0 0 64 64" width="64" xmlns="http://www.w3.org/2000/svg" xmlns:xlink="http://www.w3.org/1999/xlink"><radialGradient id="a" cx="30.875" cy="29.875" gradientUnits="userSpaceOnUse" r="30"><stop offset="0" stop-color="#fac37d"/><stop offset=".4402" stop-color="#f8c17b"/><stop offset=".6383" stop-color="#f2ba75"/><stop offset=".788" stop-color="#e7ad6b"/><stop offset=".9125" stop-color="#d79b5c"/><stop offset="1" stop-color="#c7894d"/></radialGradient><linearGradient id="b"><stop offset=".4182" stop-color="#965a42"/><stop offset=".529" stop-color="#8b543e"/><stop offset=".7223" stop-color="#6f4433"/><stop offset=".9734" stop-color="#402a21"/><stop offset="1" stop-color="#3b271f"/></linearGradient><radialGradient id="c" cx="30.1777" cy="27.0938" gradientTransform="matrix(.947 -.3211 .2694 .7943 -5.6994 15.2635)" gradientUnits="userSpaceOnUse" r="6.8428" xlink:href="#b"/><radialGradient id="d" cx="49.6289" cy="32.627" gradientUnits="userSpaceOnUse" r="5.7305" xlink:href="#b"/><radialGradient id="e" cx="13.1709" cy="39.5342" gradientUnits="userSpaceOnUse" r="6.1822" xlink:href="#b"/><radialGradient id="f" cx="14.7891" cy="15.9448" gradientTransform="matrix(1 0 0 .8097 0 3.034)" gradientUnits="userSpaceOnUse" r="4.7738" xlink:href="#b"/><radialGradient id="g" cx="36.0547" cy="8.7695" gradientUnits="userSpaceOnUse" r="4.9447" xlink:href="#b"/><radialGradient id="h" cx="33.5762" cy="49.3525" gradientUnits="userSpaceOnUse" r="6.1928" xlink:href="#b"/><radialGradient id="i" cx="49.3164" cy="16.8306" gradientUnits="userSpaceOnUse" r="3.3807" xlink:href="#b"/><path d="m62 32c0 13.902-12.432 30-29 30-19.234 0-31-12.43-31-29 0-21.9 15.434-31 32-31 16.568 0 28 10.764 28 30z" fill="url(#a)"/><g fill="#965f27"><path d="m11.478 27.654c-1.174-.602-2.538 1.298-.69 1.519 1.409.169 1.242-1.235.69-1.519z" opacity=".2"/><path d="m27.649 15.81c-1.468-.751-3.173 1.623-.862 1.899 1.762.211 1.553-1.545.862-1.899z" opacity=".2"/><path d="m41.534 39.057c-1.174-.601-2.539 1.299-.69 1.521 1.409.167 1.242-1.237.69-1.521z" opacity=".2"/><path d="m47.923 24.711c-1.467-.752-3.173 1.622-.862 1.898 1.761.211 1.552-1.545.862-1.898z" opacity=".2"/><path d="m26.522 42.905c-1.467-.752-3.173 1.623-.862 1.899 1.762.211 1.553-1.544.862-1.899z" opacity=".2"/><path d="m31.513 22.889c-8.874.766-8.802 16.495 2.263 11.142 8.439-4.081 1.905-11.502-2.263-11.142z" opacity=".35"/><path d="m49.035 28.993c-6.888 3.064-2.486 15.631 4.889 8.29 5.626-5.596-1.653-9.731-4.889-8.29z" opacity=".35"/><path d="m17.629 37.284c-7.047-3.914-14.954 7.932-3.938 9.512 8.401 1.205 7.251-7.672 3.938-9.512z" opacity=".35"/><path d="m17.177 12.514c-6.51-1.864-10.733 9.325-1.42 8.53 7.101-.605 4.479-7.651 1.42-8.53z" opacity=".35"/><path d="m36.383 4.916c-6.864 1.121-5.886 13.368 2.419 8.551 6.335-3.675.808-9.076-2.419-8.551z" opacity=".35"/><path d="m33.975 45.62c-7.69 1.254-6.596 14.974 2.71 9.576 7.095-4.117.907-10.166-2.71-9.576z" opacity=".35"/><path d="m49.7 14.151c-4.795.781-4.111 9.333 1.688 5.969 4.423-2.565.565-6.337-1.688-5.969z" opacity=".35"/></g><path d="m31.512 23.501c-7.986.689-7.922 14.846 2.037 10.028 7.596-3.674 1.715-10.353-2.037-10.028z" fill="url(#c)"/><path d="m49.221 29.533c-6.162 2.742-2.225 13.984 4.373 7.417 5.033-5.007-1.479-8.705-4.373-7.417z" fill="url(#d)"/><path d="m17.314 37.686c-6.406-3.557-13.594 7.21-3.58 8.646 7.637 1.096 6.592-6.974 3.58-8.646z" fill="url(#e)"/><path d="m16.979 12.961c-5.814-1.666-9.588 8.328-1.27 7.619 6.344-.541 4.002-6.835 1.27-7.619z" fill="url(#f)"/><path d="m36.426 5.422c-6.152 1.004-5.275 11.98 2.168 7.663 5.677-3.294.724-8.134-2.168-7.663z" fill="url(#g)"/><path d="m34.021 46.178c-6.902 1.125-5.92 13.439 2.432 8.596 6.369-3.696.815-9.126-2.432-8.596z" fill="url(#h)"/><path d="m49.74 14.618c-4.135.674-3.545 8.049 1.455 5.148 3.815-2.212.489-5.464-1.455-5.148z" fill="url(#i)"/></svg>