<svg enable-background="new 0 0 64 64" height="64" viewBox="0 0 64 64" width="64" xmlns="http://www.w3.org/2000/svg" xmlns:xlink="http://www.w3.org/1999/xlink"><radialGradient id="a" cx="31.9995" cy="44.668" gradientTransform="matrix(1 0 0 .4633 0 23.8134)" gradientUnits="userSpaceOnUse" r="29.0745"><stop offset=".5273" stop-color="#c6c6c6"/><stop offset=".6581" stop-color="#cfd0d0"/><stop offset=".881" stop-color="#e7eaeb"/><stop offset=".9636" stop-color="#f2f5f7"/></radialGradient><linearGradient id="b" gradientUnits="userSpaceOnUse" x1="15.3477" x2="48.6523" y1="37.2236" y2="37.2236"><stop offset="0" stop-color="#ffdc96"/><stop offset=".1948" stop-color="#fdd790"/><stop offset=".4516" stop-color="#f7ca80"/><stop offset=".7415" stop-color="#eeb364"/><stop offset="1" stop-color="#e39a46"/></linearGradient><linearGradient id="c" gradientUnits="userSpaceOnUse" x1="19.1455" x2="44.8535" y1="25.2192" y2="25.2192"><stop offset="0" stop-color="#ba4a18"/><stop offset="1" stop-color="#7d3d15"/></linearGradient><path d="m32 62c-13.785 0-25-5.707-25-12.721 0-7.016 11.215-12.721 25-12.721s25 5.705 25 12.721c0 7.014-11.215 12.721-25 12.721z" fill="#99a8ae"/><path d="m32 60.969c-16.542 0-30-6.85-30-15.266 0-8.418 13.458-15.265 30-15.265 16.541 0 30 6.847 30 15.265 0 8.416-13.459 15.266-30 15.266z" fill="#cfd8dd"/><path d="m61.156 45.098c0 7.936-13.055 14.367-29.156 14.367-16.103 0-29.158-6.432-29.158-14.367 0-7.93 13.055-14.362 29.158-14.362 16.102-.001 29.156 6.432 29.156 14.362z" fill="url(#a)"/><path d="m49.469 37.041c-3.232-1.625-31.581-6.532-37.786 3.533-1.729 2.805-.315 6.637 4.928 9.273 3.232 1.627 10.084 4.344 14.437 4.957 4.353.609 8.416-1.627 11.847-2.318 5.568-1.117 9.172-3.41 9.479-6.969.308-3.556 2.337-5.843-2.905-8.476z" fill="#ba4a18"/><path d="m49.99 43.211c0 11.459-35.98 11.459-35.98 0 0-9.529 35.98-9.529 35.98 0z" fill="#7d3d15"/><path d="m45.598 24.678h-27.197s-3.054 17.861-3.054 18.072c0 3.879 7.455 7.02 16.653 7.02 9.195 0 16.652-3.141 16.652-7.02 0-.211-3.054-18.072-3.054-18.072z" fill="url(#b)"/><path d="m45.875 25.849c0-3.231-6.211-5.849-13.875-5.849-7.665 0-13.877 2.618-13.877 5.849 0 3.229 6.213 5.847 13.877 5.847 8.469 0 13.875-4.114 13.875-5.847z" fill="#ba4a18"/><path d="m44.854 25.218c0-2.881-5.756-5.218-12.855-5.218s-12.853 2.336-12.853 5.218c0 2.886 5.754 5.221 12.853 5.221 7.845-.001 12.855-3.673 12.855-5.221z" fill="url(#c)"/></svg>