<svg enable-background="new 0 0 64 64" height="64" viewBox="0 0 64 64" width="64" xmlns="http://www.w3.org/2000/svg" xmlns:xlink="http://www.w3.org/1999/xlink"><linearGradient id="a" gradientTransform="matrix(.7071 -.7071 .7071 .7071 -19.7804 -418.4854)" gradientUnits="userSpaceOnUse" x1="-281.9268" x2="-281.9268" y1="383.9063" y2="355.4355"><stop offset="0" stop-color="#f5000d"/><stop offset=".2714" stop-color="#f2010d"/><stop offset=".5093" stop-color="#e7060f"/><stop offset=".7339" stop-color="#d50d11"/><stop offset=".903" stop-color="#c21413"/></linearGradient><linearGradient id="b"><stop offset="0" stop-color="#e6ebef"/><stop offset=".2857" stop-color="#e2e8ec"/><stop offset=".5605" stop-color="#d7dfe3"/><stop offset=".83" stop-color="#c3cfd3"/><stop offset="1" stop-color="#b3c2c6"/></linearGradient><linearGradient id="c" gradientTransform="matrix(.7071 -.7071 .7071 .7071 -19.7804 -418.4854)" gradientUnits="userSpaceOnUse" x1="-281.9263" x2="-261.9976" xlink:href="#b" y1="358.0293" y2="358.0293"/><linearGradient id="d" gradientTransform="matrix(.7071 -.7071 .7071 .7071 -19.7804 -418.4854)" gradientUnits="userSpaceOnUse" x1="-301.8555" x2="-280.0278" xlink:href="#b" y1="360.1816" y2="360.1816"/><path d="m2 22.132 20.133 20.131h13.419l13.423-13.421-26.842-26.842z" fill="#9e6c49"/><path d="m22.132 2-.67 3.355-2.685 2.685-3.354.671z" fill="#785647"/><path d="m22.132 12.737v2.685l-6.709-6.711 3.355.671z" fill="#594640"/><path d="m25.489 8.039-2.686-2.684-.671-3.355 6.71 6.711h-2.684l-4.026 4.026z" fill="#d6a57c"/><path d="m28.842 8.711-.671 3.355-2.683 2.684-3.357.672z" fill="#785647"/><path d="m28.842 19.447-.001 2.685-6.709-6.71 3.356.671z" fill="#594640"/><path d="m32.198 14.75-2.684-2.684-.672-3.355 6.71 6.711h-2.684l-4.026 4.025z" fill="#d6a57c"/><path d="m22.132 15.422-.671 3.354-2.684 2.684-3.355.672z" fill="#785647"/><path d="m22.133 26.158v2.685l-6.711-6.711 3.355.671z" fill="#594640"/><path d="m25.489 21.461-2.686-2.685-.671-3.354 6.709 6.71h-2.683l-4.025 4.026z" fill="#d6a57c"/><path d="m15.422 22.132-.672 3.355-2.683 2.684-3.356.672z" fill="#785647"/><path d="m15.422 32.868v2.685l-6.711-6.71 3.356.671z" fill="#594640"/><path d="m18.777 28.171-2.685-2.684-.67-3.355 6.711 6.711h-2.686l-4.025 4.025z" fill="#d6a57c"/><path d="m8.711 15.421-.67 3.355-2.685 2.685-3.356.671z" fill="#785647"/><path d="m8.711 26.158v2.685l-6.711-6.711 3.356.671z" fill="#594640"/><path d="m12.067 21.46-2.684-2.684-.672-3.355 6.711 6.711h-2.686l-4.025 4.026z" fill="#d6a57c"/><path d="m15.422 8.711-.672 3.355-2.684 2.684-3.356.671z" fill="#785647"/><path d="m15.422 19.447v2.685l-6.711-6.711 3.356.672z" fill="#594640"/><path d="m18.777 14.75-2.684-2.684-.671-3.355 6.709 6.711-2.685-.001-4.025 4.026z" fill="#d6a57c"/><path d="m35.553 15.422-.671 3.354-2.685 2.685-3.355.671z" fill="#785647"/><path d="m35.553 26.158-.001 2.685-6.71-6.711 3.355.671z" fill="#594640"/><path d="m22.803 32.197-.67-3.355 6.71 6.711h-2.685z" fill="#d6a57c"/><path d="m28.841 22.132-.67 3.355-2.684 2.684-3.355.672z" fill="#785647"/><path d="m28.843 32.868-.001 2.685-6.709-6.71 3.355.67z" fill="#594640"/><path d="m32.197 28.171-2.684-2.684-.672-3.355 6.71 6.711h-2.681l-4.026 4.025z" fill="#d6a57c"/><path d="m22.133 28.843-.672 3.354-2.684 2.685-3.354.671z" fill="#785647"/><path d="m22.132 39.579v2.685l-6.709-6.711 3.354.671z" fill="#594640"/><path d="m38.908 21.461-2.685-2.685-.672-3.355 6.711 6.711h-2.682l-4.027 4.026z" fill="#d6a57c"/><path d="m28.843 35.553 3.354-.671 2.684-2.685.671-3.355z" fill="#785647"/><path d="m39.58 35.553h2.684l-6.711-6.711.672 3.355z" fill="#d6a57c"/><path d="m35.553 28.842 3.355-.671 2.684-2.684.671-3.355z" fill="#785647"/><path d="m38.908 29.513-3.355-.671 6.711 6.711z" fill="#594640"/><path d="m37.565 37.566 4.697-15.435 19.462 19.46c.367.369.367.974-.001 1.343l-18.788 18.79c-.371.369-.975.369-1.344 0l-17.446-17.447c7.047-7.047 13.42-6.711 13.42-6.711z" fill="url(#a)"/><path d="m40.593 40.592c2.046-2.047 5.413-2.01 7.504.081 2.092 2.091 2.128 5.458.082 7.505-2.048 2.047-5.415 2.01-7.506-.08-2.092-2.092-2.128-5.459-.08-7.506zm-1.265-1.264c-2.733 2.733-2.685 7.215.106 10.006 2.795 2.795 7.273 2.841 10.008.107 2.732-2.732 2.686-7.213-.107-10.006s-7.273-2.84-10.007-.107z" fill="#faa19b"/><path d="m45.882 43.902c-.166.166-.332.164-.502-.006l-.506-.506c-.17-.17-.17-.334-.004-.501l1.607-1.607c.168-.167.332-.165.501.003l.253.254c1.607 1.606 1.634 4.183.063 5.754-.766.766-1.793 1.172-2.863 1.161-.239-.004-.357-.121-.36-.357l-.01-1.063c-.003-.235.112-.351.349-.349.607.004 1.188-.224 1.62-.656.716-.716.845-1.8.395-2.669z" fill="#faa19b"/><path d="m42.263 22.132c-8.654 10.881-4.382 15.749-4.382 15.749s.356-6.354 7.066-13.065c2.461-2.461 2.013-6.039 2.013-6.039s-3.354 2.013-6.711 1.342z" fill="url(#c)"/><path d="m18.778 38.908c-1.455 1.454-.28 7.771 4.025 12.079 0 0 2.685-13.421 20.802-10.066 0 0-13.408-13.432-24.827-2.013z" fill="url(#d)"/></svg>