<svg enable-background="new 0 0 64 64" height="64" viewBox="0 0 64 64" width="64" xmlns="http://www.w3.org/2000/svg" xmlns:xlink="http://www.w3.org/1999/xlink"><linearGradient id="a"><stop offset="0" stop-color="#e6ebef"/><stop offset=".2857" stop-color="#e2e8ec"/><stop offset=".5605" stop-color="#d7dfe3"/><stop offset=".83" stop-color="#c3cfd3"/><stop offset="1" stop-color="#b3c2c6"/></linearGradient><linearGradient id="b" gradientUnits="userSpaceOnUse" x1="17.7808" x2="42.2188" xlink:href="#a" y1="56.0527" y2="56.0527"/><linearGradient id="c" gradientUnits="userSpaceOnUse" x1="25.519" x2="34.4805" xlink:href="#a" y1="51.5225" y2="51.5225"/><linearGradient id="d" gradientUnits="userSpaceOnUse" x1="1.9995" x2="58.002" y1="40.374" y2="40.374"><stop offset="0" stop-color="#cfd8dd"/><stop offset=".3818" stop-color="#cbd5da"/><stop offset=".7485" stop-color="#c0ccd0"/><stop offset="1" stop-color="#b3c2c6"/></linearGradient><linearGradient id="e" gradientUnits="userSpaceOnUse" x1="45.166" x2="62.001" y1="10.417" y2="10.417"><stop offset="0" stop-color="#ff8fa8"/><stop offset=".3253" stop-color="#fb8ba4"/><stop offset=".6381" stop-color="#f08099"/><stop offset=".945" stop-color="#dd6d85"/><stop offset="1" stop-color="#d96981"/></linearGradient><linearGradient id="f" gradientTransform="matrix(.9333 0 0 1 12.5209 0)" gradientUnits="userSpaceOnUse" x1="-10.0869" x2="47.542" y1="19.5254" y2="19.5254"><stop offset="0" stop-color="#f44336"/><stop offset=".25" stop-color="#ffe12c"/><stop offset=".5" stop-color="#77b516"/><stop offset=".75" stop-color="#18b5f8"/><stop offset="1" stop-color="#b30bad"/></linearGradient><ellipse cx="30" cy="56.053" fill="url(#b)" rx="12.219" ry="5.947"/><path d="m34.48 54.701c0 3.643-8.961 3.643-8.961 0 0-1.814 0-9.09 0-9.09h8.961z" fill="url(#c)"/><path d="m58.002 29.6c0 28.73-56.002 28.73-56.002 0z" fill="url(#d)"/><path d="m45.166 17.805 1.031 1.029c4.782-5.203 18.869-12.564 15.201-16.232-3.666-3.668-11.029 10.42-16.232 15.203z" fill="url(#e)"/><path d="m30 20.801c15.467 0 28.002 4.068 28.002 8.799 0 4.73-12.535 8.8-28.002 8.8-15.461 0-28-4.07-28-8.8 0-4.73 12.535-8.799 28-8.799z" fill="#e6ebef"/><path d="m29.986 2.127c2.725-.572 5.307.965 7.995 1.152 3.533.248 6.063 3.436 9.166 4.844 2.752 1.25 3.553 4.748 5.914 6.881 1.549 1.398 1.297 3.961 2.564 5.82 1.555 2.279 1.24 5.486 1.24 8.496 0 4.156-12.031 7.73-26.877 7.73s-26.881-3.574-26.881-7.73c0-1.783.654-3.449.443-5.17-.254-2.094 1.336-3.904 1.727-5.898.539-2.76 3.047-4.66 4.33-6.996 1.322-2.406 4.654-3.822 6.256-5.271 1.684-1.525 4.43-1.676 6.291-2.754 2.234-1.293 5.17-.547 7.832-1.104z" fill="url(#f)"/><g fill="#fff"><path d="m47.923 11.893c0 1.082-1.596 1.082-1.596 0s1.596-1.082 1.596 0z" opacity=".3"/><path d="m47.125 25.765c0 1.082-1.596 1.082-1.596 0s1.596-1.082 1.596 0z" opacity=".3"/><path d="m32.156 29.355c0 1.083-1.596 1.083-1.596 0 0-1.082 1.596-1.082 1.596 0z" opacity=".3"/><path d="m33.883 4.173c0 1.082-1.596 1.082-1.596 0 0-1.084 1.596-1.084 1.596 0z" opacity=".3"/><path d="m23.339 6.051c0 1.082-1.596 1.082-1.596 0s1.596-1.082 1.596 0z" opacity=".3"/><path d="m10.015 27.525c0 1.082-1.596 1.082-1.596 0s1.596-1.082 1.596 0z" opacity=".3"/><path d="m28.029 13.271c0 1.082-1.596 1.082-1.596 0 0-1.084 1.596-1.084 1.596 0z" opacity=".3"/><path d="m40.846 19.526c0 1.082-1.596 1.082-1.596 0s1.596-1.082 1.596 0z" opacity=".3"/><path d="m40.846 32.658c0 1.082-1.596 1.082-1.596 0s1.596-1.082 1.596 0z" opacity=".3"/><path d="m51.545 18.834c0 1.803-2.658 1.803-2.658 0s2.658-1.802 2.658 0z" opacity=".3"/><path d="m54.752 28.337c0 1.803-2.658 1.803-2.658 0 0-1.804 2.658-1.804 2.658 0z" opacity=".3"/><path d="m28.56 24.953c0 1.805-2.658 1.805-2.658 0 0-1.803 2.658-1.803 2.658 0z" opacity=".3"/><path d="m37.258 11.013c1.152 1.369-.867 3.131-2.02 1.76-1.154-1.369.866-3.129 2.02-1.76z" opacity=".3"/><path d="m18.636 9.538c1.154 1.371-.865 3.131-2.02 1.76-1.152-1.37.868-3.13 2.02-1.76z" opacity=".3"/><path d="m11.582 18.753c1.154 1.371-.865 3.131-2.02 1.762-1.152-1.371.867-3.131 2.02-1.762z" opacity=".3"/><path d="m18.791 28.021c1.154 1.369-.865 3.129-2.02 1.76-1.152-1.371.867-3.131 2.02-1.76z" opacity=".3"/></g></svg>