<svg enable-background="new 0 0 64 64" height="64" viewBox="0 0 64 64" width="64" xmlns="http://www.w3.org/2000/svg" xmlns:xlink="http://www.w3.org/1999/xlink"><linearGradient id="a" gradientUnits="userSpaceOnUse" x1="32.0005" x2="32.0005" y1="57.8516" y2="3.0005"><stop offset="0" stop-color="#e8e8e8"/><stop offset="1" stop-color="#f5f5f5"/></linearGradient><path d="m62 32.071c.006 2.502-4.309 4.413-4.918 6.718-.633 2.39 2.148 6.184.943 8.274-1.224 2.122-5.91 1.615-7.631 3.334-1.72 1.72-1.213 6.408-3.334 7.63-2.09 1.204-5.886-1.575-8.271-.944-2.307.609-4.217 4.926-6.721 4.917-2.506-.006-4.4-4.333-6.715-4.959-2.392-.644-6.207 2.118-8.302.901-2.125-1.235-1.616-5.927-3.344-7.653-1.726-1.728-6.418-1.219-7.649-3.343-1.218-2.096 1.543-5.911.897-8.303-.621-2.309-4.949-4.207-4.955-6.713-.008-2.503 4.307-4.412 4.916-6.718.631-2.39-2.15-6.185-.945-8.274 1.223-2.12 5.91-1.615 7.631-3.334 1.719-1.721 1.213-6.409 3.334-7.63 2.09-1.204 5.885 1.575 8.273.942 2.307-.608 4.217-4.922 6.719-4.916 2.508.009 4.402 4.334 6.717 4.957 2.39.646 6.203-2.113 8.299-.898 2.125 1.235 1.617 5.927 3.345 7.653 1.728 1.728 6.418 1.221 7.651 3.343 1.218 2.094-1.545 5.91-.897 8.3.623 2.313 4.949 4.211 4.957 6.716z" fill="#cfd8dd"/><path d="m60.026 30.492c.006 2.285-4.025 4.033-4.595 6.14-.591 2.186 2.008 5.653.882 7.565-1.144 1.938-5.521 1.477-7.129 3.047-1.606 1.572-1.133 5.858-3.115 6.977-1.952 1.1-5.498-1.441-7.728-.864-2.154.557-3.938 4.504-6.277 4.495-2.342-.006-4.111-3.961-6.273-4.534-2.235-.588-5.799 1.938-7.756.825-1.985-1.129-1.51-5.418-3.124-6.996-1.612-1.58-5.996-1.116-7.146-3.057-1.138-1.917 1.442-5.404.838-7.591-.581-2.111-4.624-3.847-4.63-6.139-.007-2.287 4.023-4.032 4.592-6.14.589-2.186-2.009-5.654-.883-7.565 1.143-1.937 5.521-1.477 7.129-3.048 1.606-1.572 1.133-5.858 3.115-6.976 1.952-1.1 5.497 1.441 7.729.862 2.154-.556 3.939-4.5 6.275-4.494 2.344.009 4.113 3.962 6.275 4.532 2.235.592 5.797-1.931 7.755-.821 1.985 1.129 1.512 5.418 3.125 6.996 1.614 1.58 5.996 1.116 7.148 3.057 1.137 1.915-1.444 5.402-.839 7.588.584 2.115 4.625 3.85 4.632 6.141z" fill="url(#a)"/><path d="m48.609 22.189c3.92 8.695-.367 20.771-13.859 23.41-10.405 2.033-17.957-3.945-20.133-11.949-2.205-8.115 1.391-16.891 12.604-19.295 8.187-1.754 16.188 3.135 15.325 11.477-.646 6.248-4.922 8.715-7.783 9.234-7.489 1.363-10.501-5.059-5.646-9.971-5.822 10.994 9.816 10.262 9.617.572-.164-7.975-10.488-8.701-15.938-3.859-7.795 6.93-1.334 21.49 11.285 19.678 12.685-1.826 15.898-11.92 14.528-19.297z" fill="#e84d88"/></svg>