<svg enable-background="new 0 0 64 64" height="64" viewBox="0 0 64 64" width="64" xmlns="http://www.w3.org/2000/svg" xmlns:xlink="http://www.w3.org/1999/xlink"><linearGradient id="a" gradientTransform="matrix(.7071 -.7071 .7071 .7071 -134.9498 74.3154)" gradientUnits="userSpaceOnUse" x1="145.7715" x2="150.1777" y1="108.2305" y2="108.2305"><stop offset="0" stop-color="#a16b43"/><stop offset="1" stop-color="#c4926e"/></linearGradient><linearGradient id="b" gradientUnits="userSpaceOnUse" x1="23.5591" x2="25.495" y1="25.8223" y2="1.9049"><stop offset="0" stop-color="#ffd37a"/><stop offset=".176" stop-color="#ffd076"/><stop offset=".3584" stop-color="#ffc969"/><stop offset=".5438" stop-color="#ffbc55"/><stop offset=".7312" stop-color="#ffaa38"/><stop offset=".9184" stop-color="#ff9313"/><stop offset="1" stop-color="#f80"/></linearGradient><linearGradient id="c" gradientUnits="userSpaceOnUse" x1="23.9243" x2="8.6253" y1="27.605" y2="9.3086"><stop offset="0" stop-color="#ff8c5c"/><stop offset=".1831" stop-color="#fe885a"/><stop offset=".3728" stop-color="#fa7b54"/><stop offset=".5656" stop-color="#f5674a"/><stop offset=".7605" stop-color="#ed4a3c"/><stop offset=".9553" stop-color="#e3252b"/><stop offset="1" stop-color="#e01b26"/></linearGradient><linearGradient id="d" gradientUnits="userSpaceOnUse" x1="25.812" x2="1.957" y1="28.2085" y2="26.6473"><stop offset="0" stop-color="#ffa1bd"/><stop offset=".1874" stop-color="#fe9dba"/><stop offset=".3816" stop-color="#fb90b3"/><stop offset=".5789" stop-color="#f77ca5"/><stop offset=".7784" stop-color="#f15f93"/><stop offset=".9778" stop-color="#e93a7c"/><stop offset="1" stop-color="#e83579"/></linearGradient><linearGradient id="e" gradientUnits="userSpaceOnUse" x1="27.6733" x2="9.3144" y1="28.0063" y2="43.3055"><stop offset="0" stop-color="#e666e1"/><stop offset=".1814" stop-color="#e262dd"/><stop offset=".3695" stop-color="#d557d1"/><stop offset=".5605" stop-color="#c145bc"/><stop offset=".7537" stop-color="#a42b9f"/><stop offset=".9467" stop-color="#7f0a7b"/><stop offset="1" stop-color="#73006f"/></linearGradient><linearGradient id="f" gradientUnits="userSpaceOnUse" x1="28.3335" x2="26.5224" y1="26.1382" y2="50.119"><stop offset="0" stop-color="#31a9e0"/><stop offset=".2012" stop-color="#2fa5dc"/><stop offset=".4098" stop-color="#299bcf"/><stop offset=".6217" stop-color="#1e8abb"/><stop offset=".8345" stop-color="#0f719e"/><stop offset="1" stop-color="#015a82"/></linearGradient><linearGradient id="g" gradientUnits="userSpaceOnUse" x1="27.9683" x2="43.4558" y1="24.2319" y2="42.8419"><stop offset="0" stop-color="#a7e342"/><stop offset=".2119" stop-color="#a3df40"/><stop offset=".4316" stop-color="#96d33b"/><stop offset=".6547" stop-color="#82c033"/><stop offset=".8789" stop-color="#65a528"/><stop offset="1" stop-color="#529320"/></linearGradient><linearGradient id="h" gradientUnits="userSpaceOnUse" x1="26.1006" x2="50.142" y1="23.5957" y2="25.4691"><stop offset="0" stop-color="#e2f200"/><stop offset=".2173" stop-color="#deee00"/><stop offset=".4424" stop-color="#d3e100"/><stop offset=".6711" stop-color="#bfcd00"/><stop offset=".901" stop-color="#a5b000"/><stop offset="1" stop-color="#97a100"/></linearGradient><linearGradient id="i" gradientUnits="userSpaceOnUse" x1="24.2612" x2="42.6831" y1="23.8877" y2="8.7131"><stop offset="0" stop-color="#ffee8a"/><stop offset=".1652" stop-color="#ffed86"/><stop offset=".3365" stop-color="#ffe979"/><stop offset=".5105" stop-color="#ffe465"/><stop offset=".6864" stop-color="#ffdc48"/><stop offset=".8621" stop-color="#ffd223"/><stop offset="1" stop-color="#ffc800"/></linearGradient><path d="m61.877 58.761c-5.952-5.952-28.804-28.787-28.804-28.787l-3.104 3.106s22.311 22.313 28.793 28.797c.779.776 3.891-2.338 3.115-3.116z" fill="url(#a)"/><path d="m10.651 7.542c.311-.071.623-.148.929-.207 7.987-1.639 14.129.827 17.298 3.838 6.83 6.229 3.958 14.289-2.898 14.807 5.765 4.834 13.106.328 12.483-8.6-.442-4.356-2.646-10.317-10.561-15.296-.634-.051-1.274-.084-1.923-.084-5.831 0-11.172 2.082-15.328 5.542z" fill="url(#b)"/><path d="m28.878 11.173c-3.167-3.011-9.311-5.476-17.297-3.838-.306.059-.619.136-.93.207-4.824 4.014-8.041 9.885-8.568 16.515 4.978-7.913 10.938-10.124 15.335-10.562 8.892-.615 13.396 6.717 8.562 12.484 6.857-.517 9.728-8.577 2.898-14.806z" fill="url(#c)"/><path d="m17.382 13.496c-4.356.44-10.319 2.647-15.299 10.563-.05.634-.083 1.275-.083 1.921 0 5.83 2.083 11.174 5.542 15.329-.071-.311-.148-.623-.207-.929-1.639-7.987.826-14.131 3.837-17.298 6.229-6.832 14.29-3.959 14.808 2.896 4.835-5.764.328-13.104-8.598-12.482z" fill="url(#d)"/><path d="m13.494 34.541c-.613-8.892 6.717-13.396 12.485-8.562-.517-6.856-8.578-9.728-14.809-2.896-3.011 3.169-5.477 9.313-3.837 17.3.059.305.136.616.207.926 4.014 4.825 9.888 8.043 16.519 8.569-7.915-4.978-10.127-10.94-10.565-15.337z" fill="url(#e)"/><path d="m41.311 44.418c-.312.071-.625.147-.931.206-7.987 1.639-14.13-.827-17.298-3.837-6.83-6.229-3.959-14.29 2.897-14.808-5.765-4.835-13.105-.329-12.483 8.598.442 4.357 2.648 10.321 10.566 15.301.633.05 1.271.083 1.917.083 5.832 0 11.174-2.083 15.332-5.543z" fill="url(#f)"/><path d="m49.875 27.903c-4.976 7.913-10.938 10.123-15.334 10.562-8.892.612-13.395-6.718-8.562-12.485-6.857.518-9.728 8.578-2.897 14.809 3.169 3.011 9.311 5.476 17.298 3.837.305-.059.618-.136.93-.206 4.823-4.016 8.039-9.887 8.565-16.517z" fill="url(#g)"/><path d="m44.626 11.577c1.638 7.987-.827 14.131-3.839 17.3-6.23 6.83-14.29 3.959-14.808-2.897-4.835 5.766-.328 13.105 8.599 12.484 4.356-.443 10.318-2.648 15.297-10.563.051-.634.084-1.272.084-1.92 0-5.828-2.082-11.171-5.539-15.326.071.308.147.618.206.922z" fill="url(#h)"/><path d="m44.626 11.578c-.059-.304-.135-.615-.206-.924-4.014-4.825-9.885-8.043-16.516-8.57 7.913 4.976 10.124 10.936 10.561 15.332.615 8.894-6.717 13.397-12.485 8.563.518 6.856 8.578 9.728 14.808 2.897 3.011-3.167 5.475-9.311 3.838-17.298z" fill="url(#i)"/></svg>