<svg enable-background="new 0 0 64 64" height="64" viewBox="0 0 64 64" width="64" xmlns="http://www.w3.org/2000/svg" xmlns:xlink="http://www.w3.org/1999/xlink"><radialGradient id="a" cx="38.085" cy="25.084" gradientTransform="matrix(.7071 -.7071 .4301 .4301 .366 41.2253)" gradientUnits="userSpaceOnUse" r="34.7188"><stop offset="0" stop-color="#ba746e"/><stop offset=".5677" stop-color="#995b57"/><stop offset="1" stop-color="#854c48"/></radialGradient><radialGradient id="b" cx="23.7432" cy="41.2783" gradientUnits="userSpaceOnUse" r="19.7785"><stop offset="0" stop-color="#fa0"/><stop offset=".6358" stop-color="#f29600"/><stop offset="1" stop-color="#ea8800"/></radialGradient><path d="m60.644 2.802c-2.174-1.664-6.629-.418-10.654.836-1.201.375-8.908 1.412-14.08 2.191-4.692.711-12.718 5.178-14.2 7.619-.678 1.115-19.975 5.443-19.703 18.4.184 8.747 4.139 15.637 9.627 20.182-1.142.08-2.313.15-3.529.205 13.443 14.049 31.581 13.016 39.899-3.607 3.748-7.492 4.059-10.588 5.668-14.162 1.709-3.811 3.641-8.237 4.029-13.6 0 0 1.453-5.287 2.301-9.467.561-2.78 3.784-5.124.642-8.597z" fill="url(#a)"/><g fill="#854c48"><path d="m58.452 18.019c-.113 1.549-.836 3.781-.836 3.781-1.203-5.174-3.945-8.111-11.504-12.076-.05-.047 9.989 2.09 12.34 8.295z"/><path d="m46.749 4.232c4.311.707 7.852 4.645 7.852 4.645s-5.916-3.5-10.377-4.262c1.238-.383 2.525-.383 2.525-.383z"/><path d="m53.671 34.467c-.385 1.688-1.6 4.334-1.6 4.334.383-9.583-8.346-19.987-8.346-19.987s9.378 6 9.946 15.653z"/><path d="m22.186 12.828c10.102 0 14.915 5.611 14.915 5.611s-8.981-4.563-17.964-3.799c.867-.623 3.049-1.812 3.049-1.812z"/><path d="m2.327 31.476c.144-8.946 8.014-12.473 17.065-11.771 2.876-1.104 7.657.301 8.341 1.76 5.156 1.771 10.063 4.766 13.55 8.773 1.579-1.013 4.423 3.738 4.116 7.006.699 2.045 1.061 4.24 1.004 6.572-.64 26.491-44.659 23.94-44.076-12.34z"/></g><path d="m40.854 30.505c-3.439-3.902-8.213-6.827-13.253-8.587-1.646 3.239-8.228 1.764-8.447-1.819-9.085-.726-17.003 2.779-17.148 11.75-.584 36.286 43.46 38.838 44.101 12.344.057-2.353-.327-4.558-1.043-6.615-3.153.219-6.042-4.422-4.21-7.073z" fill="#de7600"/><path d="m40.313 32.933c-3.51-4.516-8.989-7.772-14.669-9.452-1.691.534-3.896.065-5.26-1.096-8.904-1.068-16.933 2.047-17.073 10.605-.541 33.071 40.272 35.395 40.866 11.25.065-2.671-.484-5.144-1.494-7.396-1.254-.877-2.194-2.408-2.37-3.911z" fill="url(#b)"/></svg>