<svg enable-background="new 0 0 64 64" height="64" viewBox="0 0 64 64" width="64" xmlns="http://www.w3.org/2000/svg" xmlns:xlink="http://www.w3.org/1999/xlink"><radialGradient id="a" cx="49.3125" cy="4.6084" gradientTransform="matrix(1.001 0 0 1 -.0313 0)" gradientUnits="userSpaceOnUse" r="6.7248"><stop offset="0" stop-color="#b47d56"/><stop offset=".3491" stop-color="#b07952"/><stop offset=".7155" stop-color="#a36c46"/><stop offset="1" stop-color="#945d37"/></radialGradient><path d="m58 28.567c0-3.003-1.752-5.905-5.054-7.508-8.41-4.103-33.533-4.103-41.941 0-3.304 1.603-5.005 4.505-5.005 7.508v17.517c0 9.41 7.707 15.916 26.025 15.916 18.319 0 25.975-6.607 25.975-15.916 0-5.59 0-11.381 0-17.517z" fill="#f59e01"/><path d="m51.132 21.36c0 6.607-38.264 6.607-38.264 0-.099-3.604 38.264-3.604 38.264 0z" fill="#d47706"/><path d="m52.43 15.154h-40.861v7.608c0 7.606 40.861 7.606 40.861 0 0-2.403 0-7.608 0-7.608z" fill="#d47706"/><ellipse cx="31.949" cy="15.555" fill="#f59e01" rx="20.48" ry="5.206"/><path d="m46.837 15.554c-4.066-4.068-25.708-4.068-29.773 0 4.062 4.069 25.71 4.069 29.773 0z" fill="#99480e"/><path d="m6 29.67v14.41c0 14.211 52 14.229 52 .018 0-2.802 0-13.428 0-14.228 0 11.21-52 11.011-52-.2z" fill="#d47706"/><path d="m22.259 10.45c-2.498-.2-3.198 2.401.798 3.804 2.499.801 5.795.5 8.592-.5 3.697-1.302 5.695 1.301 11.191.6 2.396-.301 5.893-1.901.1-3.504-8.493-2.503-13.288-1.1-20.681-.4z" fill="#f9c802"/><path d="m21.96 11.55c-2.098-1.201 2.398 0 6.093-.9 2.798-.602-2.997 2.803-6.093.9z" fill="#feec9a"/><path d="m44.238 12.05c2.798 1.803-3.597-.7-9.491-.899-4.295-.2 5.294-1.803 9.491.899z" fill="#feec9a"/><path d="m46.735 19.258 4.796-9.409-4.594-2.402-6.094 11.811z" fill="#b47d56"/><path d="m55.028 9.348c-3.097 5.906-11.889 1.302-8.892-4.604s11.889-1.301 8.892 4.604z" fill="url(#a)"/><path d="m19.163 14.154c.2-3.404-10.79-3.203-8.593 8.808.5 2.703 2.398-3.203 3.997-3.104 1.598.102-3.097 10.111 2.497 12.814 5.595 2.701 1.1-11.011 4.896-11.812s5.894-.801 5.094-2.603c-.698-1.702-10.09-.901-7.891-4.103z" fill="#f9c802"/><path d="m12.968 14.253c2.298-1.502-.999 2.402-1.498 6.406-.401 3.004-1.998-4.104 1.498-6.406z" fill="#feec9a"/><path d="m18.663 16.355c-4.596-1.802-3.097 4.204-2.197 2.603 1.098-2.103 3.896-1.902 2.197-2.603z" fill="#feec9a"/><path d="m15.866 30.168c1.797 2.203-.201-2.702.5-7.107.499-3.203-3.198 3.805-.5 7.107z" fill="#feec9a"/><path d="m29.951 18.257c-1.498 1.301-.598 3.003 1.599 4.404 4.297 2.803-2.797 13.313 3.298 16.415 4.096 2.104-2.599-14.713 4.494-16.214 4.896-1.002-2.997 6.307 2.897 8.507 4.995 1.803.399-10.709 3.996-10.31 2.599.301-1.898 13.814 3.297 13.314 4.195-.4-2.696-9.81 2.197-14.314 1.399-1.301 1.799-3.304.999-5.005-.698-1.602-1.896-2.203-3.695-.701-8.992 6.206-15.585.701-19.082 3.904z" fill="#f9c802"/><g fill="#feec9a"><path d="m34.849 17.556c2.297.3-1.6.601-3.597 2.603-1.6 1.502-2.499-3.604 3.597-2.603z"/><path d="m51.231 14.553c-2.897-1.301-2.098 2.603-1.499 1.603.8-1.303 2.598-1.102 1.499-1.603z"/><path d="m33.549 36.975c1.497 2.203-.101-2.602.799-6.706.598-2.903-3.097 3.502-.799 6.706z"/><path d="m48.334 33.473c1.099 1.6-.299-2.002 0-5.206.2-2.302-1.698 2.801 0 5.206z"/><path d="m40.642 29.668c.799 1.802.201-2.002 1.099-5.105.698-2.202-2.299 2.502-1.099 5.105z"/></g></svg>