<svg enable-background="new 0 0 64 64" height="64" viewBox="0 0 64 64" width="64" xmlns="http://www.w3.org/2000/svg" xmlns:xlink="http://www.w3.org/1999/xlink"><linearGradient id="a"><stop offset="0" stop-color="#f6bec1"/><stop offset="1" stop-color="#fde0da"/></linearGradient><linearGradient id="b" gradientTransform="matrix(-.9659 .2588 -.2588 -.9659 -261.2006 212.5933)" gradientUnits="userSpaceOnUse" x1="-347.457" x2="-347.457" xlink:href="#a" y1="105.5146" y2="100.748"/><linearGradient id="c" gradientTransform="matrix(-.5296 .9555 .8229 .599 -326.9255 125.4342)" gradientUnits="userSpaceOnUse" x1="-281.2915" x2="-281.2915" xlink:href="#a" y1="269.1396" y2="264.374"/><linearGradient id="d" gradientTransform="matrix(.9659 -.2588 .2588 .9659 -120.9654 -139.0411)" gradientUnits="userSpaceOnUse" x1="85.9785" x2="85.9785" xlink:href="#a" y1="211.7646" y2="206.998"/><linearGradient id="e" gradientTransform="matrix(.5296 -.9555 -.8229 -.599 -55.242 -51.8815)" gradientUnits="userSpaceOnUse" x1="-31.9951" x2="-31.9951" xlink:href="#a" y1="-112.606" y2="-117.3716"/><radialGradient id="f" cx="26.1245" cy="29.0435" gradientTransform="matrix(.7155 .7155 -.7512 .7512 31.7169 -11.972)" gradientUnits="userSpaceOnUse" r="18.582"><stop offset=".6606" stop-color="#1a1626" stop-opacity="0"/><stop offset="1" stop-color="#1a1626"/></radialGradient><linearGradient id="g" gradientTransform="matrix(.7071 -.7071 .7071 .7071 -105.5421 -150.4067)" gradientUnits="userSpaceOnUse" x1="-31.7222" x2="-31.7222" y1="227.2451" y2="214.2109"><stop offset="0" stop-color="#fff" stop-opacity="0"/><stop offset="1" stop-color="#fff"/></linearGradient><path d="m41.954 22.046c-5.486-5.488-4.366-15.506-.668-19.204 3.695-3.694 3.254 5.646 8.742 11.131 5.486 5.489 14.826 5.043 11.129 8.742-3.695 3.695-13.715 4.816-19.203-.669z" fill="#f6bec1"/><path d="m53.927 17.525c-.512-2.343.768-4.562-1.061-6.391-1.829-1.825-4.051-.549-6.389-1.061-4.863-1.067-5.191-7.231-5.191-7.231-3.697 3.698-5.83 14.728-.344 20.217 5.488 5.484 16.521 3.351 20.215-.345 0 .001-6.162-.327-7.23-5.189z" fill="#fde0da"/><path d="m53.093 23.826c-.393-1.47-5.076-4.412-10.557-1.592-.139 6.287 10.557 1.592 10.557 1.592z" fill="url(#b)"/><path d="m42.442 10.392c1.252.911 2.596 6.934-1.67 11.906-5.9-1.932 1.67-11.906 1.67-11.906z" fill="url(#c)"/><path d="m22.046 41.954c5.486 5.488 4.366 15.506.668 19.204-3.695 3.695-3.254-5.646-8.742-11.131-5.486-5.488-14.826-5.043-11.129-8.741 3.694-3.696 13.715-4.817 19.203.668z" fill="#f6bec1"/><path d="m10.072 46.475c.513 2.343-.767 4.563 1.062 6.391 1.828 1.825 4.05.549 6.389 1.062 4.863 1.067 5.191 7.23 5.191 7.23 3.697-3.698 5.83-14.728.344-20.217-5.488-5.483-16.521-3.351-20.216.345 0-.001 6.163.327 7.23 5.189z" fill="#fde0da"/><path d="m10.905 40.174c.395 1.47 5.077 4.412 10.559 1.592.139-6.287-10.559-1.592-10.559-1.592z" fill="url(#d)"/><path d="m21.558 53.608c-1.253-.91-2.596-6.934 1.669-11.906 5.901 1.932-1.669 11.906-1.669 11.906z" fill="url(#e)"/><circle cx="31.999" cy="32.001" fill="#fde0da" r="14.164"/><g fill="#e03636"><path d="m18.066 29.517c-.144.807-.23 1.635-.231 2.484.001 1.191.164 2.343.44 3.45l10.275 10.274c1.105.275 2.256.44 3.449.44.849-.001 1.677-.089 2.484-.231z"/><path d="m23.529 20.667c-1.086.813-2.048 1.776-2.862 2.863l19.803 19.803c1.086-.813 2.05-1.776 2.862-2.861z"/><path d="m31.999 17.837c-.85 0-1.676.086-2.484.23l16.418 16.417c.145-.808.232-1.637.232-2.486 0-1.188-.162-2.34-.441-3.445l-10.276-10.277c-1.107-.278-2.256-.439-3.449-.439z"/></g><path d="m19.539 25.264c-.345.636-.627 1.305-.87 1.992l18.076 18.075c.688-.243 1.357-.525 1.992-.869z" fill="#f6bec1"/><path d="m27.255 18.669c-.689.243-1.359.527-1.993.87l19.2 19.199c.343-.636.625-1.305.869-1.992z" fill="#f6bec1"/><circle cx="31.999" cy="32" fill="url(#f)" opacity=".4" r="14.164"/><path d="m32.936 19.722c15.63 1.387-11.82 28.844-13.211 13.211-.621-6.938 6.272-13.827 13.211-13.211z" fill="url(#g)" opacity=".6"/></svg>