<svg enable-background="new 0 0 64 64" height="64" viewBox="0 0 64 64" width="64" xmlns="http://www.w3.org/2000/svg" xmlns:xlink="http://www.w3.org/1999/xlink"><radialGradient id="a" cx="79.5176" cy="-124.4468" gradientTransform="matrix(.7071 -.7071 .7071 .7071 44.828 153.0322)" gradientUnits="userSpaceOnUse" r="11.9325"><stop offset="0" stop-color="#ff8fa8"/><stop offset=".3253" stop-color="#fb8ba4"/><stop offset=".6381" stop-color="#f08099"/><stop offset=".945" stop-color="#dd6d85"/><stop offset="1" stop-color="#d96981"/></radialGradient><radialGradient id="b" cx="79.5205" cy="-105.3926" gradientTransform="matrix(.7071 -.7071 .7071 .7071 44.828 153.0322)" gradientUnits="userSpaceOnUse" r="11.9325"><stop offset="0" stop-color="#fff2a6"/><stop offset=".3213" stop-color="#ffeea4"/><stop offset=".6304" stop-color="#ffe39d"/><stop offset=".9335" stop-color="#ffcf92"/><stop offset="1" stop-color="#ffca8f"/></radialGradient><radialGradient id="c" cx="79.5205" cy="-86.3325" gradientTransform="matrix(.7071 -.7071 .7071 .7071 44.828 153.0322)" gradientUnits="userSpaceOnUse" r="11.9325"><stop offset="0" stop-color="#a5c967"/><stop offset=".3428" stop-color="#a1c564"/><stop offset=".6719" stop-color="#96ba5b"/><stop offset=".9953" stop-color="#84a64b"/><stop offset="1" stop-color="#84a64b"/></radialGradient><path d="m2.677 5.062 3.737 3.737c.659.659 3.048-1.729 2.389-2.389l-3.739-3.737c-1.388-1.387-3.777 1.002-2.387 2.389z" fill="#d99025"/><path d="m5.813 5.814c-4.828 4.829-5.109 12.378-.625 16.863s12.035 4.205 16.864-.625c4.829-4.829 5.111-12.38.625-16.863-4.487-4.486-12.034-4.206-16.864.625z" fill="url(#a)"/><path d="m19.287 19.286c-4.828 4.828-5.109 12.378-.625 16.862s12.035 4.205 16.865-.625c4.828-4.828 5.111-12.38.625-16.862-4.486-4.486-12.035-4.207-16.865.625z" fill="url(#b)"/><path d="m32.765 32.764c-4.828 4.828-5.109 12.378-.625 16.862s12.035 4.205 16.865-.625c4.828-4.828 5.111-12.38.625-16.862-4.486-4.487-12.035-4.207-16.865.625z" fill="url(#c)"/><path d="m46.249 48.635c2.896 2.897 12.868 12.87 12.868 12.87.656.66 1.727.66 2.388 0 .66-.656.66-1.731 0-2.391 0 0-9.788-9.789-12.868-12.868-.597-.597-2.985 1.792-2.388 2.389z" fill="#d99025"/></svg>