<svg enable-background="new 0 0 64 64" height="64" viewBox="0 0 64 64" width="64" xmlns="http://www.w3.org/2000/svg" xmlns:xlink="http://www.w3.org/1999/xlink"><linearGradient id="a" gradientUnits="userSpaceOnUse" x1="27.2979" x2="47.6912" y1="47.6904" y2="27.2971"><stop offset="0" stop-color="#dae3eb"/><stop offset=".2546" stop-color="#e5ecf2"/><stop offset=".5273" stop-color="#e9eff5"/><stop offset=".7937" stop-color="#e6edf3"/><stop offset=".9537" stop-color="#dee6ee"/><stop offset="1" stop-color="#dae3eb"/></linearGradient><linearGradient id="b" gradientTransform="matrix(.7071 -.7071 .7071 .7071 75.4218 240.9434)" gradientUnits="userSpaceOnUse" x1="105.0332" x2="129.7568" y1="-169.3301" y2="-169.3301"><stop offset="0" stop-color="#e8e8e8"/><stop offset="1" stop-color="#f5f5f5"/></linearGradient><radialGradient id="c" cx="116.9268" cy="-216.0518" gradientTransform="matrix(.7064 -.7064 .4902 .4901 28.8297 194.0232)" gradientUnits="userSpaceOnUse" r="19.7369"><stop offset="0" stop-color="#ffcf21"/><stop offset=".2891" stop-color="#ffc91c"/><stop offset=".6902" stop-color="#ffb70e"/><stop offset="1" stop-color="#ffa400"/></radialGradient><radialGradient id="d" cx="18.5547" cy="18.5513" gradientTransform="matrix(.9997 0 0 .9994 .0108 .0191)" gradientUnits="userSpaceOnUse" r="15.8519"><stop offset=".5394" stop-color="#0fb4d4"/><stop offset=".5467" stop-color="#0fb3d3"/><stop offset=".6943" stop-color="#06a1bf"/><stop offset=".8445" stop-color="#0297b4"/><stop offset="1" stop-color="#0093b0"/></radialGradient><path d="m28.755 14.188-14.566 14.566c-1.603 1.602-1.602 4.224 0 5.825l26.216 26.219c1.602 1.603 4.226 1.603 5.827 0l14.567-14.568c1.602-1.599 1.602-4.22-.002-5.824l-26.215-26.218c-1.603-1.601-4.225-1.602-5.827 0z" fill="url(#a)"/><path d="m16.388 33.371 25.632 25.632c.802.8 1.956.976 2.758.173l14.563-14.483c1.251-1.249 1.244-2.09-.338-3.671l-7.65-7.65h-34.965z" fill="url(#b)"/><path d="m13.859 8.382c-2.352 1.122-2.451-2.451-5.188-5.189-3.631-3.63-9.11 1.846-5.478 5.478 2.738 2.737 6.31 2.836 5.19 5.188-1.542 3.235-1.805 6.416-.398 7.823 5.112 5.111 18.206-9.184 13.696-13.693-1.405-1.408-4.584-1.149-7.822.393z" fill="url(#c)"/><path d="m51.353 33.371c-1.145-1.093-10.494-1.999-19.98-1.999-9.311.002-16.131.902-14.985 1.999 1.145 1.095 9.67 1.999 18.981 1.997 9.16.002 17.13-.9 15.984-1.997z" fill="#fff"/><path d="m28.753 11.277-2.911-2.913c-.801-.802-2.114-.801-2.914 0l-14.564 14.563c-.801.802-.801 2.111-.001 2.917l2.912 2.912c.801.8 2.115.799 2.914-.001l14.566-14.566c.799-.799.801-2.111-.002-2.912z" fill="url(#d)"/><g fill="#006dae"><path d="m12.411 24.674c2.354 2.354 3.195 1.516.837-.839-2.355-2.355-3.19-1.514-.837.839z"/><path d="m15.488 21.596c2.353 2.353 3.196 1.517.839-.838-2.351-2.353-3.192-1.515-.839.838z"/><path d="m18.542 18.542c2.356 2.355 3.219 1.488.864-.863-2.351-2.354-3.216-1.488-.864.863z"/><path d="m21.646 15.438c2.354 2.357 3.193 1.515.839-.837-2.353-2.353-3.194-1.517-.839.837z"/><path d="m24.727 12.359c2.354 2.357 3.192 1.515.836-.837-2.351-2.354-3.191-1.518-.836.837z"/></g><path d="m44.479 50.126h2.06v8.238h-2.06z" fill="#b3c2c6" transform="matrix(.7073 .7069 -.7069 .7073 51.6623 -16.2938)"/><path d="m40.104 45.756h2.061v8.239h-2.061z" fill="#b3c2c6" transform="matrix(.7059 .7083 -.7083 .7059 47.4228 -14.4682)"/><path d="m35.735 41.386h2.063v8.239h-2.063z" fill="#b3c2c6" transform="matrix(.7069 .7073 -.7073 .7069 42.9657 -12.6675)"/><path d="m31.363 37.016h2.06v8.238h-2.06z" fill="#b3c2c6" transform="matrix(.7065 .7077 -.7077 .7065 38.6184 -10.8523)"/><path d="m26.996 32.642h2.057v8.243h-2.057z" fill="#b3c2c6" transform="matrix(.7084 .7058 -.7058 .7084 34.1195 -9.0599)"/></svg>