<svg enable-background="new 0 0 64 64" height="64" viewBox="0 0 64 64" width="64" xmlns="http://www.w3.org/2000/svg" xmlns:xlink="http://www.w3.org/1999/xlink"><linearGradient id="a"><stop offset="0" stop-color="#d3d8db"/><stop offset=".358" stop-color="#cfd5d8"/><stop offset=".7017" stop-color="#c4cdd1"/><stop offset="1" stop-color="#b3c2c6"/></linearGradient><linearGradient id="b" gradientUnits="userSpaceOnUse" x1="18.0005" x2="34" xlink:href="#a" y1="32.001" y2="32.001"/><linearGradient id="c"><stop offset="0" stop-color="#fff"/><stop offset="1" stop-color="#fff" stop-opacity="0"/></linearGradient><radialGradient id="d" cx="398.9707" cy="23.7451" gradientTransform="matrix(.0092 2.4482 -.3438 .0304 29.5863 -927.9327)" gradientUnits="userSpaceOnUse" r="4.4774" xlink:href="#c"/><linearGradient id="e" gradientUnits="userSpaceOnUse" x1="36" x2="46" xlink:href="#a" y1="32" y2="32"/><radialGradient id="f" cx="389.6826" cy="16.3115" gradientTransform="matrix(-.0594 2.1245 -.3445 .0161 69.3169 -776.0233)" gradientUnits="userSpaceOnUse" r="4.2512" xlink:href="#c"/><path d="m31 2c-.459 0 .883 12.482-1 12.482s-.282-12.482-2-12.482c-1.719 0 .039 12.482-2 12.482s-.281-12.482-2-12.482-.118 12.483-2 12.483c-1.884 0-.54-12.483-1-12.483-1.385 0-3 11.448-3 13.518 0 6.207 2.938 8.313 4 9.311 1.061.997 2 2.068 2 4.138 0 20.173-3.702 33.034 2 33.034s2-12.861 2-33.035c0-2.069.939-3.142 1.999-4.139 1.061-.997 4-3.103 4-9.31-.001-2.068-1.615-13.517-2.999-13.517z" fill="url(#b)"/><path d="m25.134 60.911c-2.334.207-2.42-22.509-.086-22.714 2.332-.207 2.418 22.508.086 22.714z" fill="url(#d)" opacity=".2"/><path d="m39.75 36.94c0 13.304-3.75 25.061 1.25 25.061s2.5-4.191 2.5-25.061c0-4.174 2.5-5.217 2.5-10.434 0-2.22 0-13.559 0-21.913 0-.942-.525-3.735-2.5-2.081-2.449 2.055-7.5 16.04-7.5 23.995 0 5.738 3.75 6.654 3.75 10.433z" fill="url(#e)"/><path d="m40.279 61.492c-2.219.104-1.695-18.613.523-18.713 2.219-.104 1.698 18.612-.523 18.713z" fill="url(#f)" opacity=".2"/></svg>