<svg enable-background="new 0 0 64 64" height="64" viewBox="0 0 64 64" width="64" xmlns="http://www.w3.org/2000/svg" xmlns:xlink="http://www.w3.org/1999/xlink"><radialGradient id="a" cx="26.999" cy="27.0005" gradientUnits="userSpaceOnUse" r="25.87"><stop offset=".5273" stop-color="#4e5e67"/><stop offset=".6034" stop-color="#4b5862"/><stop offset=".7016" stop-color="#414854"/><stop offset=".8115" stop-color="#312e3d"/><stop offset=".8182" stop-color="#302c3b"/></radialGradient><radialGradient id="b" cx="26.9988041" cy="26.9995664" gradientUnits="userSpaceOnUse" r="15.0272835"><stop offset=".6788" stop-color="#fff"/><stop offset=".7933" stop-color="#f4f6f6"/><stop offset=".9636" stop-color="#dce1e3"/></radialGradient><radialGradient id="c" cx="22.7446" cy="26.2222" gradientUnits="userSpaceOnUse" r="8.4612"><stop offset=".4848" stop-color="#f5c001"/><stop offset=".6957" stop-color="#f4b905"/><stop offset=".9994" stop-color="#f0a611"/><stop offset="1" stop-color="#f0a611"/></radialGradient><linearGradient id="d" gradientUnits="userSpaceOnUse" x1="24.4175" x2="24.4175" y1="27.4092" y2="21.7285"><stop offset="0" stop-color="#fff" stop-opacity="0"/><stop offset="1" stop-color="#fff"/></linearGradient><path d="m43.024 43.221h4.354v3.959h-4.354z" fill="#99a8ae" transform="matrix(.7072 -.707 .707 .7072 -18.7222 45.1908)"/><path d="m47.463 43.764-3.7 3.699c7.1 5.474 10.526 13.491 14.442 14.442 2.281.555 4.256-1.421 3.701-3.7-.951-3.917-8.97-7.345-14.443-14.441zm12.821 14.904c.009.595-1.021 1.624-1.615 1.614-1.447-.023-4.16-3.784-4.099-4.438.039-.412.863-1.236 1.275-1.276.653-.06 4.415 2.652 4.439 4.1z" fill="#302c3b"/><circle cx="27" cy="27.001" fill="#4e5e67" r="25"/><circle cx="27" cy="27" fill="url(#a)" r="24.039"/><path d="m34.012 14.467c-8.28.575-9.967-5.058-17.197-.222-3.394 2.269-2.48 6.55-4.327 11.754-3.14 8.842 3.373 13.98 11.076 15.535 6.85 1.38 9.214-4.819 15.784-8.146 5.259-2.667 3.572-19.541-5.336-18.921z" fill="url(#b)"/><circle cx="24.417" cy="27.997" fill="url(#c)" r="7.52"/><path d="m28.779 23.475c4.704 5.244-13.426 5.246-8.723 0 2.086-2.329 6.635-2.328 8.723 0z" fill="url(#d)" opacity=".6"/></svg>