<svg enable-background="new 0 0 64 64" height="64" viewBox="0 0 64 64" width="64" xmlns="http://www.w3.org/2000/svg" xmlns:xlink="http://www.w3.org/1999/xlink"><linearGradient id="a" gradientUnits="userSpaceOnUse" x1="32.7505" x2="32.7505" y1="54" y2="10.0005"><stop offset="0" stop-color="#d6d6d6"/><stop offset="1" stop-color="#e8e8e8"/></linearGradient><linearGradient id="b"><stop offset="0" stop-color="#d3d8db"/><stop offset=".358" stop-color="#cfd5d8"/><stop offset=".7017" stop-color="#c4cdd1"/><stop offset="1" stop-color="#b3c2c6"/></linearGradient><linearGradient id="c" gradientUnits="userSpaceOnUse" x1="2" x2="12" xlink:href="#b" y1="32" y2="32"/><linearGradient id="d" gradientUnits="userSpaceOnUse" x1="56" x2="62" xlink:href="#b" y1="32" y2="32"/><linearGradient id="e"><stop offset="0" stop-color="#fff"/><stop offset="1" stop-color="#fff" stop-opacity="0"/></linearGradient><radialGradient id="f" cx="378.2422" cy="80.7334" gradientTransform="matrix(-.0357 1.7704 -.2067 .0134 88.5864 -622.3221)" gradientUnits="userSpaceOnUse" r="4.2512" xlink:href="#e"/><radialGradient id="g" cx="376.2949" cy="143.0391" gradientTransform="matrix(-.0357 1.7704 -.2067 .0134 48.9695 -619.7548)" gradientUnits="userSpaceOnUse" r="4.2512" xlink:href="#e"/><circle cx="32.75" cy="32" fill="url(#a)" r="22"/><path d="m25.288 19.079c-7.488 4.323-10.258 13.581-6.369 20.905-.095-.152-.206-.294-.297-.451-4.271-7.396-1.526-16.972 6.126-21.39 7.653-4.419 17.316-2.006 21.587 5.39.091.157.161.322.247.479-4.402-7.027-13.805-9.257-21.294-4.933z" fill="#bcc4c6"/><path d="m40.208 44.921c7.489-4.324 10.259-13.582 6.374-20.908.096.152.201.297.292.454 4.27 7.396 1.527 16.971-6.126 21.39-7.652 4.418-17.317 2.006-21.587-5.39-.091-.157-.157-.324-.242-.482 4.398 7.029 13.801 9.259 21.289 4.936z" fill="#e4e4e6"/><path d="m10.334 7c-.385 0 .512 11.667-.643 11.667-1.152 0-.482-11.667-1.537-11.667s.096 11.667-1.154 11.667-.1-11.667-1.154-11.667c-1.053 0-.383 11.667-1.537 11.667s-.258-11.667-.641-11.667c-1.156 0-1.668 11.667-1.668 13.333 0 2.892 1.424 4.196 2.309 5 .882.804 1.537 1.667 1.537 3.334 0 16.25-3.598 28.333 1.154 28.333s1.154-12.083 1.154-28.333c0-1.667.654-2.53 1.537-3.333.885-.803 2.309-2.107 2.309-5 0-1.667-.512-13.334-1.666-13.334z" fill="url(#c)"/><path d="m58 35.146c0 10.717-3 21.854 1 21.854 5 0 2-5.043 2-21.854 0-3.363 1-4.203 1-8.405 0-1.787 0-10.923 0-17.651 0-.759-.422-3.009-2-1.677-1.959 1.655-4 17.332-4 19.328 0 4.623 2 5.361 2 8.405z" fill="url(#d)"/><path d="m58.256 56.201c-1.332.087-1.018-15.511.314-15.594 1.33-.086 1.018 15.509-.314 15.594z" fill="url(#f)" opacity=".3"/><path d="m5.831 56.155c-1.332.087-1.018-15.511.314-15.594 1.331-.086 1.018 15.509-.314 15.594z" fill="url(#g)" opacity=".3"/></svg>