<svg enable-background="new 0 0 64 64" height="64" viewBox="0 0 64 64" width="64" xmlns="http://www.w3.org/2000/svg" xmlns:xlink="http://www.w3.org/1999/xlink"><linearGradient id="a"><stop offset="0" stop-color="#f59e01"/><stop offset=".3749" stop-color="#f39b01"/><stop offset=".6448" stop-color="#eb9203"/><stop offset=".8811" stop-color="#dd8205"/><stop offset="1" stop-color="#d47706"/></linearGradient><linearGradient id="b" gradientTransform="matrix(.9962 -.0872 .0872 .9962 -.8596 16.3588)" gradientUnits="userSpaceOnUse" x1="37.5889" x2="37.5889" xlink:href="#a" y1="29.1763" y2="-1.0708"/><linearGradient id="c"><stop offset="0" stop-color="#fff" stop-opacity="0"/><stop offset=".1142" stop-color="#fff" stop-opacity=".1142"/><stop offset="1" stop-color="#fff"/></linearGradient><linearGradient id="d" gradientTransform="matrix(.9962 -.0872 .0872 .9962 -.8596 16.3588)" gradientUnits="userSpaceOnUse" x1="28.7983" x2="28.7983" xlink:href="#c" y1="24.8486" y2="-6.4077"/><linearGradient id="e" gradientTransform="matrix(-.9962 -.0872 -.0872 .9962 253.6838 16.3588)" gradientUnits="userSpaceOnUse" x1="224.5625" x2="224.5625" xlink:href="#a" y1="58.5889" y2="28.3408"/><linearGradient id="f" gradientTransform="matrix(-.9962 -.0872 -.0872 .9962 253.6838 16.3588)" gradientUnits="userSpaceOnUse" x1="215.7705" x2="215.7705" xlink:href="#c" y1="54.2598" y2="23.0034"/><path d="m5.246 10.595c-2.069 3.584 8.134 5.072 8.296 4.788.165-.283-6.224-8.378-8.296-4.788z" fill="#0fb4d4"/><path d="m20.131 2c4.138.001.325 9.579-.002 9.579-.328 0-4.141-9.579.002-9.579z" fill="#0fb4d4"/><path d="m11.542 4.313c-3.588 2.071 4.506 8.459 4.788 8.296.285-.165-1.201-10.367-4.788-8.296z" fill="#0fb4d4"/><path d="m48.197 10.216.621 7.104s.705-1.798 1.123-2.014c.701-.358 5.691-.718 6.307-.482 1.201.461 1.758 7.907 1.18 14.487-.129 1.452-2.336 3.742-4.684 4.897-1.18.582-2.602-1.74-2.602-1.74l1.67 10.246s.813-2.445 1.375-3.14c1.662-2.051 6.393-3.914 7.721-6.625 1.775-3.623 1.35-17.768-1.025-20.611-1.916-2.293-3.459-1.697-10.322-1.097-.735.051-1.364-1.025-1.364-1.025z" fill="#b8cad9"/><path d="m49.943 15.306c.701-.358 5.691-.718 6.307-.482.545.209.955 1.866 1.189 4.221-.211-2.831-.656-4.891-1.27-5.125-.615-.235-4.588.331-6.305.481-.59.052-1.463-1.862-1.463-1.862l.418 4.781c.001 0 .706-1.798 1.124-2.014z" fill="#96aab0"/><path d="m60.832 32.044c-1.227 2.5-7.881 4.223-9.438 8.095l.42 2.574s.813-2.445 1.375-3.14c1.662-2.051 6.393-3.914 7.721-6.626 1.08-2.204 1.344-8.299.852-13.378.379 4.878.086 10.4-.93 12.475z" fill="#96aab0"/><path d="m51.547 36.005c-.84-9.595-2.727-31.17-2.727-31.17-.086-.99-25.801 1.26-25.714 2.249 0 0 1.888 21.575 2.728 31.17.205 2.351-.675 9.427-.675 9.427.259 2.947 28.947.438 28.689-2.51 0 0-2.096-6.817-2.301-9.166z" fill="#c5d7e8"/><path d="m24.544 13.861s3.333 27.316 4.33 27.714l.013-.002c.879.914 5.603.99 10.242.574 4.643-.396 9.279-1.291 9.984-2.344h.014c.914-.566-.547-28.045-.547-28.045-.219-1.048-24.002 1.034-24.036 2.103z" fill="url(#b)"/><path d="m23.972 7.321s.236 2.703.572 6.54c8.846-1.034 15.145-1.585 24.036-2.103-.336-3.837-.572-6.54-.572-6.54-.067-.75-24.101 1.353-24.036 2.103z" fill="#ffe8c9"/><g fill="#d47706"><path d="m37.969 34.036c.227 2.584-3.65 2.923-3.877.339-.225-2.584 3.65-2.923 3.877-.339z"/><path d="m34.529 28.206c.137 1.55-2.191 1.754-2.326.203-.136-1.55 2.192-1.754 2.326-.203z"/><path d="m37.814 25.575c.182 2.067-2.92 2.338-3.102.271-.179-2.067 2.923-2.339 3.102-.271z"/><path d="m33.557 21.552c.09 1.034-1.46 1.169-1.551.136-.09-1.033 1.459-1.169 1.551-.136z"/></g><path d="m27.491 43.892c9.716 2.613 11.615 3.131 22.007-2.107-8.057 1.671-14.314 2.714-22.007 2.107z" fill="#96aab0"/><path d="m31.125 45.858c6.329 1.729 13.18.547 19.352-2.672-6.512.85-12.743 2.501-19.352 2.672z" fill="#96aab0"/><path d="m26.022 11.391c.98 9.358 2.362 18.916 2.4 26.305.006 1.024 3.103 1.403 3.004-.164-.453-7.181-1.592-17.745-2.418-26.401z" fill="url(#d)" opacity=".5"/><path d="m22.79 8.697c-.109-2.951 1.438-2.906 3.007-3.401 1.608-.506 1.983-1.466 4.423-2.432 3.342-1.322 6.436.642 9.149-.345 5.211-1.894 11.24 1.82 9.602 4.024-.725-.914-2.713-2.055-4.215.857-1 1.943.504 4.719.68 6.728.236 2.715-1.914 2.587-2.125.186-.188-2.138.521-5.123-1.186-5.971-4.105-2.039-5.783 3.435-8.275.94-3.506-3.513-3.996 2.472-6.662-.933-1.539-1.963-4.314 2.591-4.398.347z" fill="#fff3e3"/><path d="m26.472 5.942s-2.777.039-3.105 1.573c-.33 1.535 2.319-.724 3.105-1.573z" fill="#fff"/><path d="m43.908 12.669s-.877 1.514.113 2.71c.6.724-.113-2.71-.113-2.71z" fill="#fff"/><path d="m29.639 5.753c1.941-.355 1.822.245 3.878.065 2.613-.229 3.072-1.719 5.85-1.724 0 0-2.926-.923-6.58.926 0 0-.049-.394.775-1.151-2.055.308-2.361 1.339-3.923 1.884z" fill="#fff"/><path d="m14.44 24.244c-6.863-.6-8.407-1.197-10.323 1.097-2.375 2.843-2.801 16.987-1.025 20.61 1.329 2.712 6.06 4.575 7.722 6.626.562.695 1.375 3.141 1.375 3.141l1.669-10.248s-1.421 2.322-2.601 1.741c-2.348-1.155-4.555-3.446-4.684-4.897-.579-6.58-.022-14.026 1.179-14.487.616-.235 5.606.124 6.307.482.419.216 1.124 2.014 1.124 2.014l.621-7.104c-.001 0-.631 1.076-1.364 1.025z" fill="#b8cad9"/><path d="m14.056 28.309c-.7-.358-5.69-.718-6.306-.482-.546.209-.956 1.866-1.19 4.221.212-2.831.656-4.891 1.27-5.125.615-.235 4.589.331 6.306.481.59.052 1.463-1.862 1.463-1.862l-.418 4.781c-.001 0-.707-1.798-1.125-2.014z" fill="#96aab0"/><path d="m3.168 45.047c1.226 2.5 7.881 4.224 9.437 8.095l-.419 2.576s-.813-2.445-1.375-3.141c-1.662-2.051-6.394-3.914-7.722-6.627-1.08-2.203-1.344-8.299-.852-13.377-.378 4.876-.085 10.399.931 12.474z" fill="#96aab0"/><path d="m10.153 58.173c-.258 2.947 28.429 5.459 28.689 2.51 0 0-.881-7.076-.676-9.426.84-9.596 2.729-31.17 2.729-31.17.086-.989-25.628-3.239-25.714-2.249 0 0-1.888 21.575-2.728 31.169-.205 2.35-2.3 9.166-2.3 9.166z" fill="#c5d7e8"/><path d="m15.419 24.761s-1.461 27.478-.547 28.046h.014c.706 1.053 5.342 1.947 9.984 2.344 4.639.416 9.364.34 10.243-.574l.012.002c.998-.4 4.33-27.715 4.33-27.715-.033-1.07-23.817-3.151-24.036-2.103z" fill="url(#e)"/><path d="m15.992 18.222s-.236 2.703-.572 6.54c8.891.518 15.189 1.069 24.036 2.103.336-3.837.572-6.54.572-6.54.066-.751-23.97-2.854-24.036-2.103z" fill="#ffe8c9"/><path d="m29.908 47.378c-.227 2.584-4.104 2.245-3.877-.34.226-2.584 4.101-2.244 3.877.34z" fill="#d47706"/><path d="m31.796 41.411c-.135 1.551-2.463 1.348-2.326-.203.135-1.551 2.463-1.347 2.326.203z" fill="#d47706"/><path d="m29.287 38.849c-.182 2.066-3.283 1.795-3.102-.271.18-2.068 3.281-1.797 3.102.271z" fill="#d47706"/><path d="m31.994 34.69c-.09 1.034-1.641.898-1.551-.136.092-1.033 1.64-.897 1.551.136z" fill="#d47706"/><path d="m14.501 54.786c10.393 5.238 12.291 4.721 22.008 2.109-7.693.608-13.951-.437-22.008-2.109z" fill="#96aab0"/><path d="m13.523 56.188c6.172 3.219 13.023 4.4 19.352 2.674-6.61-.174-12.84-1.822-19.352-2.674z" fill="#96aab0"/><path d="m37.979 24.394c-.98 9.357-2.363 18.915-2.4 26.305-.006 1.025-3.104 1.403-3.004-.164.454-7.182 1.592-17.745 2.418-26.401z" fill="url(#f)" opacity=".5"/><path d="m36.813 21.355c-2.666 3.405-3.156-2.581-6.663.933-2.492 2.495-4.17-2.979-8.275-.94-1.707.848-.998 3.833-1.186 5.971-.211 2.401-2.361 2.529-2.125-.186.176-2.009 1.68-4.785.68-6.728-1.502-2.913-3.49-1.771-4.214-.857-1.639-2.204 4.39-5.918 9.601-4.024 2.713.987 5.807-.978 9.149.345 2.441.966 2.816 1.926 4.424 2.432 1.57.495 3.117.45 3.008 3.401-.085 2.242-2.86-2.312-4.399-.347z" fill="#fff3e3"/><path d="m40.633 20.519c-.328-1.534-3.105-1.573-3.105-1.573.786.848 3.435 3.107 3.105 1.573z" fill="#fff"/><path d="m20.091 25.672s.877 1.514-.113 2.71c-.6.723.113-2.71.113-2.71z" fill="#fff"/><path d="m30.437 16.874c.824.757.775 1.151.775 1.151-3.654-1.849-6.58-.926-6.58-.926 2.777.005 3.236 1.495 5.85 1.724 2.057.18 1.938-.42 3.879-.065-1.563-.547-1.869-1.578-3.924-1.884z" fill="#fff"/></svg>