<svg enable-background="new 0 0 64 64" height="64" viewBox="0 0 64 64" width="64" xmlns="http://www.w3.org/2000/svg" xmlns:xlink="http://www.w3.org/1999/xlink"><linearGradient id="a"><stop offset="0" stop-color="#ffd675"/><stop offset=".3819" stop-color="#ffd267"/><stop offset="1" stop-color="#ffc847"/></linearGradient><linearGradient id="b" gradientUnits="userSpaceOnUse" x1="2" x2="58.375" xlink:href="#a" y1="53.0371" y2="53.0371"/><linearGradient id="c" gradientUnits="userSpaceOnUse" x1="2" x2="58.4053" xlink:href="#a" y1="30.2163" y2="30.2163"/><radialGradient id="d" cx="-8.2388" cy="92.3438" gradientTransform="matrix(-.7189 -.7056 -.8156 .8005 95.2853 -68.0931)" gradientUnits="userSpaceOnUse" r="7.912"><stop offset=".4" stop-color="#f5000d"/><stop offset=".6175" stop-color="#f2010d"/><stop offset=".7583" stop-color="#ea040e"/><stop offset=".8774" stop-color="#db0a10"/><stop offset=".9838" stop-color="#c61213"/><stop offset="1" stop-color="#c21413"/></radialGradient><radialGradient id="e" cx="468.835" cy="-504.4814" gradientTransform="matrix(-1.0684 -.1043 .1808 -1.0825 620.3008 -486.9057)" gradientUnits="userSpaceOnUse" r="4.8789"><stop offset="0" stop-color="#ff4f42"/><stop offset="1" stop-color="#ff4f42" stop-opacity="0"/></radialGradient><path d="m56.394 54.677-54.394 7.323v-10.407l56.375-7.519z" fill="url(#b)"/><path d="m58.405 33.184-56.405 7.722v-10.974l54.422-10.406z" fill="url(#c)"/><path d="m58.375 44.074-56.375 7.519v-10.687l56.405-8.067z" fill="#ffd1cf"/><path d="m20.376 39.718c.183 4.39-3.46 8.441-8.132 9.093-4.664.648-8.658-2.328-8.933-6.69z" fill="#e81c27"/><path d="m18.181 40.025c.143 3.263-2.564 6.287-6.043 6.772-3.476.483-6.446-1.735-6.643-4.985z" fill="#f66257"/><path d="m54.894 34.857c-.004 4.441-3.844 8.541-8.571 9.201-4.717.655-8.607-2.354-8.699-6.771z" fill="#e81c27"/><path d="m52.668 35.171c.006 3.302-2.845 6.362-6.364 6.853-3.518.494-6.41-1.756-6.466-5.045z" fill="#f66257"/><path d="m20.744 47.624c-.182-4.351 3.506-8.452 8.242-9.118 4.744-.668 8.668 2.371 8.761 6.749z" fill="#e81c27"/><path d="m22.922 47.32c-.124-3.231 2.617-6.271 6.129-6.764 3.518-.494 6.431 1.756 6.507 5.004z" fill="#f66257"/><path d="m60.598 21.577c-2.171-6.196-17.427-8.744-21.227-8.226-10.815 1.473-29.904 8.941-37.371 13.363v3.218c37.138-5.28 51.796-7.247 53.77-5.342 1.364 1.317 1.625 11.655.624 30.087l4.204-.51s3.156-23.578 0-32.59z" fill="#f5eddd"/><path d="m54.679 18.948c8.379-.781-8.445-6.454-14.841-5.642-23.086 2.934-37.838 13.408-37.838 13.408s23.907-5.083 52.679-7.766z" fill="#e6ded3"/><g fill="#d46a06"><path d="m21.927 31.871c-.826-.474-.082-1.659.744-1.186.827.477.083 1.663-.744 1.186z" opacity=".1"/><path d="m34.452 30.106c-.826-.474-.082-1.659.744-1.186.827.477.084 1.663-.744 1.186z" opacity=".1"/><path d="m44.075 31.871c-.826-.474-.082-1.659.744-1.186.828.477.084 1.663-.744 1.186z" opacity=".1"/><path d="m51.563 31.168c-.826-.474-.082-1.659.744-1.186.828.477.084 1.663-.744 1.186z" opacity=".1"/><path d="m48.349 28.009c-.826-.474-.082-1.659.743-1.186.828.477.084 1.662-.743 1.186z" opacity=".1"/><path d="m25.225 34.282c.41-.678 1.473-.092 1.063.588-.409.678-1.474.09-1.063-.588z" opacity=".1"/><path d="m39.645 27.826c.41-.678 1.473-.092 1.063.588-.409.678-1.474.09-1.063-.588z" opacity=".1"/><path d="m36.593 33.14c.409-.678 1.472-.092 1.063.588-.41.677-1.473.089-1.063-.588z" opacity=".1"/><path d="m5.588 31.688c.41-.678 1.473-.092 1.063.588-.409.677-1.473.089-1.063-.588z" opacity=".1"/><path d="m17.27 35.324c.526-.873 1.896-.115 1.369.756-.527.875-1.898.118-1.369-.756z" opacity=".1"/><path d="m11.329 35.436c.374-.617 1.345-.083.97.535-.374.618-1.342.083-.97-.535z" opacity=".1"/><path d="m34.143 52.954c.853.422.179 1.651-.673 1.229-.855-.424-.183-1.654.673-1.229z" opacity=".1"/><path d="m21.743 55.488c.852.422.18 1.651-.673 1.229-.853-.424-.181-1.654.673-1.229z" opacity=".1"/><path d="m12.033 54.32c.853.422.181 1.651-.672 1.229-.855-.424-.182-1.653.672-1.229z" opacity=".1"/><path d="m7.996 58.439c.852.422.18 1.651-.674 1.229-.853-.424-.18-1.653.674-1.229z" opacity=".1"/><path d="m30.709 50.751c-.37.702-1.465.183-1.096-.521.367-.702 1.465-.181 1.096.521z" opacity=".1"/><path d="m16.694 58.085c-.369.702-1.464.183-1.095-.521.369-.703 1.465-.181 1.095.521z" opacity=".1"/><path d="m19.429 52.593c-.37.702-1.465.183-1.095-.521.367-.702 1.464-.181 1.095.521z" opacity=".1"/><path d="m50.462 52.129c-.369.702-1.464.183-1.095-.521.368-.702 1.465-.18 1.095.521z" opacity=".1"/><path d="m38.588 49.22c-.475.904-1.886.232-1.412-.67.474-.905 1.887-.236 1.412.67z" opacity=".1"/><path d="m44.511 48.742c-.337.64-1.338.166-.999-.475.337-.639 1.333-.164.999.475z" opacity=".1"/></g><path d="m35.486 18.197c.16 1.327-12.736 2.876-12.896 1.549-.159-1.328 12.737-2.877 12.896-1.549z" fill="#c2bab1"/><path d="m34.413 7.142c2.765 2.759 3.989 6.774 1.294 9.463-3.654 3.648-11.498 4.133-13.211 2.424-1.692-1.69-1.125-9.714 2.416-13.188 2.946-2.891 6.277-1.864 9.501 1.301z" fill="url(#d)"/><path d="m22.975 9.787c.486-2.916 3.215-5.054 6.094-4.773 2.88.282 4.818 2.874 4.332 5.791-.488 2.917-3.217 5.053-6.096 4.771-2.88-.279-4.818-2.872-4.33-5.789z" fill="url(#e)"/><path d="m29.6 10.456c-.666.726.081 1.386.745.661.667-.722-.081-1.384-.745-.661z" fill="#e0000d"/><path d="m29.768 10.703c-.183.505-.183.505.31.274.681-.321-.055-.972-.31-.274z" fill="#ea8800"/><path d="m26.979 11.172c-.703.688.008 1.387.711.697s-.007-1.388-.711-.697z" fill="#e0000d"/><path d="m27.136 11.426c-.21.494-.21.494.294.288.698-.284-.002-.974-.294-.288z" fill="#ea8800"/><path d="m24.515 12.337c-.704.689.008 1.386.71.696.702-.687-.009-1.387-.71-.696z" fill="#e0000d"/><path d="m24.671 12.592c-.21.494-.21.494.294.288.698-.286-.003-.974-.294-.288z" fill="#ea8800"/><path d="m22.29 15.188c-.416.886.496 1.3.911.414.417-.885-.494-1.299-.911-.414z" fill="#e0000d"/><path d="m22.525 15.374c-.021.535-.021.535.378.172.556-.505-.344-.913-.378-.172z" fill="#ea8800"/><path d="m22.352 17.592c-.146.963.85 1.107.995.143.143-.965-.851-1.109-.995-.143z" fill="#e0000d"/><path d="m22.633 17.705c.132.518.132.518.412.059.386-.638-.596-.781-.412-.059z" fill="#ea8800"/><path d="m24.68 15.352c-.793.588-.187 1.375.606.785.792-.589.185-1.374-.606-.785z" fill="#e0000d"/><path d="m24.798 15.625c-.276.46-.276.46.251.324.732-.189.134-.964-.251-.324z" fill="#ea8800"/><path d="m26.947 18.463c-.909.39-.508 1.294.402.902.91-.389.509-1.293-.402-.902z" fill="#e0000d"/><path d="m26.998 18.757c-.378.384-.378.384.167.374.756-.018.358-.908-.167-.374z" fill="#ea8800"/><path d="m27.686 16.355c-.909.391-.507 1.294.404.904.909-.39.508-1.294-.404-.904z" fill="#e0000d"/><path d="m27.736 16.649c-.378.386-.378.386.168.374.756-.014.36-.906-.168-.374z" fill="#ea8800"/><path d="m26.874 14.034c-.729.663-.044 1.387.685.724.727-.663.045-1.387-.685-.724z" fill="#e0000d"/><path d="m27.022 14.296c-.229.485-.229.485.281.298.71-.26.036-.973-.281-.298z" fill="#ea8800"/><path d="m29.774 15.582c-.728.661-.044 1.386.684.721.729-.662.046-1.386-.684-.721z" fill="#e0000d"/><path d="m29.922 15.843c-.229.483-.229.483.281.298.71-.259.036-.973-.281-.298z" fill="#ea8800"/><path d="m30.239 17.545c-.822.549-.257 1.365.565.815.821-.547.257-1.363-.565-.815z" fill="#e0000d"/><path d="m30.344 17.825c-.299.447-.299.447.234.338.74-.153.183-.958-.234-.338z" fill="#ea8800"/><path d="m33.053 16.22c-.822.547-.256 1.362.565.813.822-.547.256-1.363-.565-.813z" fill="#e0000d"/><path d="m33.158 16.5c-.3.445-.3.445.233.335.742-.151.184-.955-.233-.335z" fill="#ea8800"/><path d="m29.213 13.119c-.541.818.304 1.354.844.537.541-.818-.304-1.354-.844-.537z" fill="#e0000d"/><path d="m29.422 13.338c-.102.525-.102.525.347.222.622-.423-.209-.952-.347-.222z" fill="#ea8800"/><path d="m33.684 12.331c-.541.818.304 1.355.844.537s-.304-1.355-.844-.537z" fill="#e0000d"/><path d="m33.893 12.55c-.101.525-.101.525.348.221.621-.422-.211-.952-.348-.221z" fill="#ea8800"/><path d="m32.087 14.339c-.541.818.302 1.354.844.535.54-.817-.303-1.353-.844-.535z" fill="#e0000d"/><path d="m32.295 14.556c-.1.526-.1.526.348.222.623-.423-.209-.953-.348-.222z" fill="#ea8800"/><path d="m34.872 14.48c-.26.941.711 1.199.97.258.26-.941-.711-1.199-.97-.258z" fill="#e0000d"/><path d="m35.138 14.627c.067.53.067.53.399.104.463-.588-.495-.842-.399-.104z" fill="#ea8800"/><path d="m35.455 11.607c.067.973 1.069.905 1.001-.068-.066-.973-1.07-.905-1.001.068z" fill="#e0000d"/><path d="m35.753 11.659c.242.479.242.479.414-.027.24-.705-.749-.638-.414.027z" fill="#ea8800"/><path d="m33.101 9.938c-.635.75.137 1.381.771.632.637-.75-.136-1.382-.771-.632z" fill="#e0000d"/><path d="m33.28 10.181c-.164.508-.164.508.319.258.669-.347-.093-.97-.319-.258z" fill="#ea8800"/><path d="m31.417 11.725c-.636.749.138 1.381.773.631.636-.75-.136-1.38-.773-.631z" fill="#e0000d"/><path d="m31.598 11.966c-.163.51-.163.51.319.26.668-.348-.094-.968-.319-.26z" fill="#ea8800"/><path d="m24.836 17.565c-.908.39-.506 1.295.404.902.909-.389.508-1.293-.404-.902z" fill="#e0000d"/><path d="m24.888 17.859c-.378.384-.378.384.167.373.757-.015.358-.907-.167-.373z" fill="#ea8800"/><path d="m25.25 9.503c-.644.743.122 1.381.767.64.643-.744-.122-1.383-.767-.64z" fill="#e0000d"/><path d="m25.427 9.745c-.167.51-.167.51.316.265.673-.339-.081-.972-.316-.265z" fill="#ea8800"/><path d="m24.537 7.226c-.706.688.002 1.387.707.7.706-.687-.001-1.387-.707-.7z" fill="#e0000d"/><path d="m24.691 7.481c-.211.493-.211.493.294.29.7-.283.002-.973-.294-.29z" fill="#ea8800"/><path d="m28.987 4.671c-.967.228-.732 1.187.232.961.967-.228.734-1.187-.232-.961z" fill="#e0000d"/><path d="m28.982 4.97c-.44.313-.44.313.097.396.749.115.519-.831-.097-.396z" fill="#ea8800"/><path d="m28.227 8.548c-.901.412-.473 1.306.427.892.899-.416.471-1.308-.427-.892z" fill="#e0000d"/><path d="m28.285 8.84c-.368.395-.368.395.177.368.755-.036.333-.916-.177-.368z" fill="#ea8800"/><path d="m26.397 5.417c-.9.413-.473 1.307.427.893.901-.415.472-1.307-.427-.893z" fill="#e0000d"/><path d="m26.455 5.71c-.366.395-.366.395.177.368.755-.035.335-.917-.177-.368z" fill="#ea8800"/><path d="m31.33 8.508c-.935.333-.59 1.26.344.928.934-.334.588-1.262-.344-.928z" fill="#e0000d"/><path d="m31.36 8.804c-.402.361-.402.361.143.384.757.031.417-.883-.143-.384z" fill="#ea8800"/><path d="m29.883 6.607c-.933.335-.588 1.262.344.927.933-.331.589-1.259-.344-.927z" fill="#e0000d"/><path d="m29.914 6.904c-.402.361-.402.361.143.384.756.031.416-.883-.143-.384z" fill="#ea8800"/><path d="m27.294 6.826c-.935.335-.59 1.262.343.927.934-.331.591-1.26-.343-.927z" fill="#e0000d"/><path d="m27.325 7.123c-.402.361-.402.361.142.384.759.03.419-.884-.142-.384z" fill="#ea8800"/><path d="m22.949 10.088c-.251.944.723 1.191.973.248s-.724-1.19-.973-.248z" fill="#e0000d"/><path d="m23.215 10.231c.076.529.076.529.402.102.454-.594-.506-.837-.402-.102z" fill="#ea8800"/><path d="m22.504 12.49c-.438.876.465 1.309.901.435.44-.876-.464-1.311-.901-.435z" fill="#e0000d"/><path d="m22.736 12.684c-.037.532-.037.532.372.177.568-.492-.322-.919-.372-.177z" fill="#ea8800"/><path d="m33.5 3.409c-.346 1.464 1.702 1.764.391 4.188-2.355-.274-1.695-2.652-.391-4.188z" fill="#7ab51d"/><path d="m38.143 8.039c-1.467.348-1.768-1.696-4.197-.387.273 2.347 2.658 1.689 4.197.387z" fill="#7ab51d"/><path d="m30.509 2c-.103.983 1.103 1.52 1.521 3.162 0 0 1.472 1.011 2.407 1.943.937.934 1.948 2.401 1.948 2.401 1.646.417 2.185 1.621 3.171 1.519-1.212 1.699-4.273.012-4.135-1.644 0 0-1.376-.653-1.469-1.794-1.142-.092-1.797-1.463-1.797-1.463-1.661.139-3.351-2.916-1.646-4.124z" fill="#56ab15"/><path d="m32.012 3.392c-.269.783.685 1.53.729 2.112.065.891-.014 1.522 1.254 2.043.522 1.265 1.157 1.186 2.051 1.253.582.042 1.331.993 2.116.726-1.256 2.628-4.84-.432-4.253-1.893-1.467.588-4.532-2.988-1.897-4.241z" fill="#449c00"/><path d="m33.854 7.108c.11.277.433.371.433.371 1.771-.673 3.244-2.873 2.567-3.538-1.303-1.277.113 1.783-3 3.167z" fill="#7ab51d"/></svg>