<svg enable-background="new 0 0 64 64" height="64" viewBox="0 0 64 64" width="64" xmlns="http://www.w3.org/2000/svg" xmlns:xlink="http://www.w3.org/1999/xlink"><radialGradient id="a" cx="-255.0928" cy="19.0103" gradientTransform="matrix(-1 0 0 1.0239 -223.0313 -7.7327)" gradientUnits="userSpaceOnUse" r="23.3274"><stop offset=".1394" stop-color="#c40505"/><stop offset=".2557" stop-color="#be0505"/><stop offset=".4142" stop-color="#ac0505"/><stop offset=".5972" stop-color="#900505"/><stop offset=".7984" stop-color="#680404"/><stop offset="1" stop-color="#380404"/></radialGradient><linearGradient id="b" gradientUnits="userSpaceOnUse" x1="18.7505" x2="18.7505" y1="26.7891" y2="8.2695"><stop offset="0" stop-color="#fff" stop-opacity="0"/><stop offset="1" stop-color="#fff"/></linearGradient><path d="m16.195 4.408c3.165-3.208 28.438-3.214 31.609 0 1.45 1.47 12.102 26.876-15.804 34.555-27.906-7.679-17.254-33.085-15.805-34.555z" fill="#c5d7e8"/><path d="m16.93 5.125c2.775-2.814 27.367-2.811 30.152.011.451.526 1.826 3.712 2.494 7.776h-35.189c.658-4.207 2.084-7.257 2.543-7.787z" fill="#e6ebef"/><path d="m27.84 56.44c2.047-2.068 2.531-2.833 2.734-4.039.641-3.783 0-14.398 0-14.398h2.85s-.48 10.59 0 14.398c.154 1.214.443 1.726 2.734 4.039 4.236.42 7.24 1.461 7.24 2.68 0 1.59-5.101 2.88-11.398 2.88s-11.4-1.29-11.4-2.88c0-1.219 3.004-2.26 7.24-2.68z" fill="#c5d7e8"/><path d="m14.383 12.912h35.191c.316 1.494.475 3.414.475 4.385 0 13.987-13.299 17.059-18.049 17.059-4.748 0-18.051-3.071-18.051-17.058 0-1.411.229-3.186.434-4.386z" fill="url(#a)"/><path d="m32.475 61.04c7.77 0-10.84-1.016-6.586-3.095 3.469-1.693-3.875.105-3.875.997 0 .976 4.049 2.098 10.461 2.098z" fill="#e6ebef"/><path d="m23.916 33.99c0-.53 3.402 1.228 8.568 1.522 3.461.198 5.088-.818 5.088-.094 0 .313-3.875 2.05-5.854 2.05-2.083.001-7.802-2.624-7.802-3.478z" fill="#96aab0"/><path d="m33.311 54.241c2.42 3.016 4.467 4.472 4.092 4.511-3.655.383-5.196-5.887-4.092-4.511z" fill="#96aab0"/><path d="m14.385 12.864c0 1.257 7.885 2.277 17.613 2.277 9.73 0 17.578-1.021 17.578-2.277 0-.87-7.961-1.818-17.578-1.818-9.84 0-17.613.947-17.613 1.818z" fill="#cc0100"/><path d="m17.176 8.27s1.475.682 3.936 1.131c0 0-3.145 8.264.699 17.389 0 0-2.572-.424-4.23-.92-.001-.001-3.968-7.12-.405-17.6z" fill="url(#b)" opacity=".7"/><path d="m16 5.38c0 1.411 7.164 2.56 16 2.56 8.834 0 15.998-1.148 15.998-2.56 0-1.002-7.219-2.56-15.998-2.56-8.895 0-16 1.558-16 2.56z" fill="#c5d7e8"/><path d="m16.969 4.828c0 .911 6.707 1.945 15.01 1.945s15.053-1.032 15.053-1.945c0-.842-6.783-2.15-15.031-2.15-8.355 0-15.032 1.308-15.032 2.15z" fill="#f5f5f5"/></svg>