<svg enable-background="new 0 0 64 64" height="64" viewBox="0 0 64 64" width="64" xmlns="http://www.w3.org/2000/svg" xmlns:xlink="http://www.w3.org/1999/xlink"><radialGradient id="a" cx="8.1401" cy="26.5342" gradientTransform="matrix(.9491 -.3065 .221 .6849 -4.5787 -.7202)" gradientUnits="userSpaceOnUse" r="8.0121"><stop offset="0" stop-color="#ffe1bd"/><stop offset=".2329" stop-color="#ffe0b9"/><stop offset=".4777" stop-color="#ffddac"/><stop offset=".7271" stop-color="#ffd997"/><stop offset=".9333" stop-color="#ffd480"/></radialGradient><linearGradient id="b"><stop offset="0" stop-color="#22401a"/><stop offset=".1217" stop-color="#2b5b1f"/><stop offset=".2503" stop-color="#326f23"/><stop offset=".3774" stop-color="#367c25"/><stop offset=".5" stop-color="#378026"/><stop offset=".6226" stop-color="#367c25"/><stop offset=".7497" stop-color="#326f23"/><stop offset=".8783" stop-color="#2b5b1f"/><stop offset="1" stop-color="#22401a"/></linearGradient><linearGradient id="c" gradientTransform="matrix(.7071 -.7071 .7071 .7071 -162.2614 296.8975)" gradientUnits="userSpaceOnUse" x1="314.1533" x2="335.209" xlink:href="#b" y1="-32.0884" y2="-32.0884"/><linearGradient id="d"><stop offset="0" stop-color="#ffe1bd"/><stop offset=".3617" stop-color="#ffdba1"/><stop offset=".7568" stop-color="#ffd689"/><stop offset="1" stop-color="#ffd480"/></linearGradient><radialGradient id="e" cx="5.7715" cy="36.4063" gradientTransform="matrix(.9973 0 0 .9977 .8923 -11.5139)" gradientUnits="userSpaceOnUse" r="5.2887" xlink:href="#d"/><radialGradient id="f" cx="5.9976" cy="44.4063" gradientTransform="matrix(.9973 0 0 .9977 .8923 -11.5139)" gradientUnits="userSpaceOnUse" r="4.5388" xlink:href="#d"/><radialGradient id="g" cx="6.8252" cy="55.4209" gradientTransform="matrix(.9973 0 0 .9977 .8923 -11.5139)" gradientUnits="userSpaceOnUse" r="2.7592" xlink:href="#d"/><linearGradient id="h"><stop offset="0" stop-color="#b38c3e"/><stop offset=".0163" stop-color="#b68f41"/><stop offset=".228" stop-color="#deb463"/><stop offset=".3966" stop-color="#f6cc78"/><stop offset=".5" stop-color="#ffd480"/><stop offset=".6034" stop-color="#f6cc78"/><stop offset=".772" stop-color="#deb463"/><stop offset=".9837" stop-color="#b68f41"/><stop offset="1" stop-color="#b38c3e"/></linearGradient><linearGradient id="i" gradientTransform="matrix(.7071 -.7071 .7071 .7071 -151.8229 377.6406)" gradientUnits="userSpaceOnUse" x1="365.043" x2="383.748" xlink:href="#h" y1="-92.4014" y2="-92.4014"/><linearGradient id="j" gradientTransform="matrix(.7071 -.7071 .7071 .7071 -398.2286 -163.1387)" gradientUnits="userSpaceOnUse" x1="162.332" x2="170.1631" xlink:href="#b" y1="425.9414" y2="425.9414"/><linearGradient id="k" gradientTransform="matrix(.7071 -.7071 .7071 .7071 -162.2614 296.8975)" gradientUnits="userSpaceOnUse" x1="316.625" x2="332.749" xlink:href="#h" y1="-54.6782" y2="-54.6782"/><g fill="#ffd480"><path d="m19.457 13.9c-.942-3.331.836-7.821 2.917-6.48 2.13 1.372-2.301 2.75-2.917 6.48z"/><path d="m18.385 12.431c-4.18-4.421-1.495-10.255.724-9.542 2.278.731-2.015 5.542-.724 9.542z"/><path d="m16.378 11.926c-6.468-6.713-4.145-10.478-2.558-9.861 1.626.633-.053 5.278 2.558 9.861z"/><path d="m6.446 15.5c-2.877-.428-5.905 3.333-3.673 4.484 1.69.862 1.573-2.76 3.673-4.484z"/><path d="m2.157 15.882c.959 1.123 3.499-3.502 8.051-3.229-6.088-2.004-8.831 2.324-8.051 3.229z"/></g><path d="m7.804 18.977c1.136 6.156 5.761-1.25 7.318.073l4.048-4.048c-3.065-6.473-17.62.681-11.366 3.975z" fill="url(#a)"/><path d="m38.607 27.619-10.972 10.978c1.068 2.924 2.27 5.712 4.662 8.346.898.987 11.369 11.803 14.553 14.637 1.416 1.258 4.084-.226 9.295-5.438 5.209-5.212 6.691-7.882 5.434-9.298-2.832-3.186-13.644-13.66-14.627-14.559-2.636-2.395-5.423-3.596-8.345-4.666z" fill="url(#c)"/><path d="m10.764 6.94c0 1.345-2.455 3.802-3.8 3.801-1.259.001-3.567-3.569-3.567-3.569l3.799-3.801s3.568 2.309 3.568 3.569z" fill="#b47d56"/><path d="m9.146 2.708c1.083 1.083-5.331 7.499-6.414 6.417-2.829-2.833 3.584-9.248 6.414-6.417z" fill="#9e6c49"/><path d="m11.915 24.328c2.753 5.106-4.943 9.47-6.673 3.932-1.663-5.322 4.753-7.495 6.673-3.932z" fill="url(#e)"/><path d="m14.112 29.512c2.363 4.383-4.244 8.129-5.729 3.375-1.427-4.569 4.08-6.436 5.729-3.375z" fill="#ffd480"/><path d="m10.933 31.555c2.364 4.385-4.244 8.128-5.73 3.374-1.427-4.568 4.081-6.435 5.73-3.374z" fill="url(#f)"/><path d="m13.292 40.821c1.651 3.066-2.968 5.687-4.006 2.361-.998-3.193 2.851-4.498 4.006-2.361z" fill="#ffd480"/><path d="m13.643 35.654c2.016 3.742-3.622 6.938-4.889 2.88-1.219-3.897 3.481-5.49 4.889-2.88z" fill="#ffd480"/><path d="m13.431 46.799c.839 1.556-1.507 2.887-2.033 1.199-.509-1.622 1.448-2.286 2.033-1.199z" fill="#ffd480"/><path d="m10.181 43.511c1.409 2.613-2.53 4.848-3.415 2.014-.851-2.726 2.432-3.838 3.415-2.014z" fill="url(#g)"/><path d="m59.673 46.445c-3.685 5.075-8.148 9.539-13.222 13.227-3.831-3.833-7.663-7.666-11.494-11.498 3.141-2.282 10.941-10.086 13.222-13.228 3.833 3.833 7.663 7.666 11.494 11.499z" fill="url(#i)"/><path d="m42.74 42.732c-2.67 2.672-2.672 7.003-.001 9.674 2.672 2.673 7.001 2.673 9.673 0 2.668-2.669 2.67-7.002 0-9.674-2.671-2.672-7.004-2.669-9.672 0zm8.463 8.465c-2.001 2.001-5.254 2.001-7.256.001-1.999-2.002-1.998-5.256-.001-7.255 2.001-2.002 5.257-2.003 7.257-.001 1.998 2 1.996 5.256 0 7.255z" fill="#fff" opacity=".5"/><path d="m49.629 44.548-1.57 1.57c-.162.163-.165.324 0 .485l.484.484c.162.162.321.16.482-.001l.529-.529c.428.838.291 1.886-.408 2.584-.422.423-.984.651-1.572.654-.229-.001-.342.111-.341.34l-.001 1.027c.002.229.113.341.342.342 1.037-.002 2.035-.405 2.779-1.152 1.537-1.538 1.539-4.027.002-5.564l-.24-.242c-.162-.162-.322-.162-.486.002z" fill="#fff" opacity=".5"/><path d="m16.91 16.891c-2.004 2.005-3.24 3.329-1.513 3.624.897 1.27 2.294 2.778 2.744 3.02.257.137 1.014.073 1.217.278.919.919 1.699 1.797 2.389 2.648l4.729-4.729c-.852-.69-1.73-1.47-2.649-2.39-.203-.204-.14-.963-.277-1.219-.239-.451-1.746-1.848-3.016-2.745-.295-1.726-1.618-.491-3.624 1.513z" fill="url(#j)"/><path d="m21.747 26.461c3.792 4.683 4.503 8.487 6.142 12.816 3.395-2.869 8.529-8.005 11.398-11.404-4.328-1.638-8.13-2.349-12.811-6.142l-.942-.205.118.737-1.371.81-1.12 1.79-1.138.408z" fill="url(#k)"/></svg>