<svg enable-background="new 0 0 64 64" height="64" viewBox="0 0 64 64" width="64" xmlns="http://www.w3.org/2000/svg" xmlns:xlink="http://www.w3.org/1999/xlink"><radialGradient id="a" cx="84.2832" cy="28.9858" gradientTransform="matrix(.8659 0 0 .9987 -38.375 .4169)" gradientUnits="userSpaceOnUse" r="14.8229"><stop offset="0" stop-color="#ffa200"/><stop offset=".3315" stop-color="#ff9f00"/><stop offset=".5786" stop-color="#ff9500"/><stop offset=".7976" stop-color="#ff8500"/><stop offset="1" stop-color="#ff6f00"/></radialGradient><linearGradient id="b" gradientUnits="userSpaceOnUse" x1="24.1479" x2="24.1479" y1="37.5566" y2="13.1501"><stop offset="0" stop-color="#fff" stop-opacity="0"/><stop offset=".1142" stop-color="#fff" stop-opacity=".1142"/><stop offset="1" stop-color="#fff"/></linearGradient><path d="m30.016 56.34c.582-.493 1.223-1.169 1.674-2.162.727-1.586.895-7.82.895-7.82v-5.866h2.675v5.866s.168 6.234.893 7.82c.451.993 1.09 1.669 1.676 2.162 3.979.428 6.799 1.487 6.799 2.727 0 1.62-4.791 2.934-10.705 2.934s-10.708-1.313-10.708-2.934c-.002-1.24 2.821-2.299 6.801-2.727z" fill="#c5d7e8"/><path d="m48.678 12.138c-.724-2.951-27.453-3.195-28.142 0-.74 3.423-2.223 10.755-2.223 16.62 0 14.666 15.193 14.666 16.294 14.666 1.1 0 16.293 0 16.293-14.666 0-6.844-1.168-12.335-2.222-16.62z" fill="#c5d7e8"/><path d="m47.27 12.74c-.57-2.318-24.781-2.52-25.31-.065-.422 1.949-.766 3.72-1.045 5.323l27.505-.002c-.342-1.85-.74-3.59-1.15-5.256z" fill="#e3edf3"/><path d="m48.42 17.998c-.186-.978-27.33-.981-27.515-.004-.428 2.264-1.109 6.479-1.109 10.761 0 12.099 12.338 12.712 14.812 12.712 2.473 0 14.811-.613 14.811-12.712.001-4.766-.571-8.491-.999-10.757z" fill="url(#a)"/><path d="m48.42 17.97c-.264-.687-4.064-1.777-13.813-1.777-9.751 0-13.425 1.074-13.703 1.776-.283.72 4.35 2.224 13.703 2.224 10.129-.001 14.118-1.417 13.813-2.223z" fill="#f9b700"/><path d="m34.068 60.919c7.199 0-10.046-.97-6.101-2.953 3.213-1.618-3.592.1-3.592.948 0 .936 3.752 2.005 9.693 2.005z" fill="#e6ebef"/><path d="m35.258 54.272c2.08 2.88 3.838 4.271 3.518 4.309-3.145.364-4.469-5.62-3.518-4.309z" fill="#93b0c0"/><path d="m39.557 14.749c.52-4.964 4.932-10.08 11.359-7.214 3.803 1.695 4.635 8.157 3.773 11.611-.104.414-1.422 1.019-1.818 1.04-.385.019-3.613-5.797-6.932-6.188-1.595-.185-6.382.751-6.382.751z" fill="#529320"/><path d="m39.504 14.691c0-2.45 2.557-8.03 7.461-7.732 5.15.31 7.33 9.102 6.115 13.143-.164.55-4.398-1.528-6.783-2.667-.273-.13-.295-3.299-.41-3.348-.248-.105-1.051 2.936-1.818 2.705-3.165-.951-4.565-1.799-4.565-2.101z" fill="#b8e866"/><g fill="#89cc14"><path d="m46.299 8.521c0-.909-3.557.754-3.557 1.601 0 .995 1.645 5.354 1.904 5.323.276-.032 1.653-5.211 1.653-6.924z"/><path d="m41.803 10.872c-.379-.286-1.746 3.397-1.43 3.654.51.455 3.477 1.704 3.586 1.414.111-.315-1.754-4.732-2.156-5.068z"/><path d="m52.381 18.754c.664-.05-.594-6.332-1.123-6.115-.844.336-3.98 3.717-3.932 4.078.051.385 4.358 2.09 5.055 2.037z"/><path d="m50.301 11.212c.307-1.012-2.947-3.76-3.283-2.691-.393 1.244-.488 7.097-.293 7.31.205.23 3.25-3.602 3.576-4.619z"/></g><path d="m37.895 37.982c.434 1.011 2.227-.146 1.789-1.154-1.992-4.643-5.234-12.479-7.232-17.122-.723-.205-1.748-.026-2.393-.246 2.195 5.107 5.642 13.414 7.836 18.522z" fill="#f9b700"/><path d="m32.99 18.54c0 .731-4.641.731-4.641 0 0-.723 4.641-.723 4.641 0z" fill="#ea8800"/><path d="m31.954 18.618-6.008-13.834c-.641.252-1.295.477-1.955.688l5.695 13.146z" fill="#e81c27"/><path d="m9.227 5.708s10.211-2.511 14.76-3.675c.307-.079.906-.108 1.314 1.022l-1.979.887-13.544 3.582c-.549.163-1.1-1.659-.551-1.816z" fill="#e81c27"/><path d="m23.034 4.244c-.059-.223.041-.384.293-.483l1.717-.687c.498-.077.689.058.566.396.232.076.303.22.207.431.236.078.307.223.205.434.199.05.318.238.201.432.412.095.264.516-.057.644l-1.711.685c-.307.123-.764-.07-.559-.4-.232-.051-.324-.24-.209-.429-.23-.053-.32-.241-.203-.432-.234-.049-.328-.239-.211-.429-.105-.005-.181-.055-.239-.162-.03-.067.035.068 0 0z" fill="#db1a25"/><path d="m22.938 4.182c.037.065-.039-.067 0 0z" fill="#302c3b"/><path d="m9.731 7.398c.418-.124-.086-1.662-.504-1.536-.418.125.086 1.662.504 1.536z" fill="#302c3b"/><path d="m45.939 13.999c-5.164 1.02-22.935.506-24.039-1.121-.109.346-.305 1.046-.303 1.048 1.408 1.855 19.146 2.53 24.397 1.203.001 0 .001-.579-.055-1.13z" fill="#c5d7e8"/><path d="m22.133 16.118s-2.633 12.368-.535 17.735c.488 1.247 4.797 5.2 4.605 3.098-.842-9.249 1.305-18.463 1.305-18.463s-3.099-.49-5.375-2.37z" fill="url(#b)" opacity=".7"/></svg>