<svg enable-background="new 0 0 64 64" height="64" viewBox="0 0 64 64" width="64" xmlns="http://www.w3.org/2000/svg" xmlns:xlink="http://www.w3.org/1999/xlink"><linearGradient id="a"><stop offset="0" stop-color="#f5efe6"/><stop offset=".3337" stop-color="#f3ece2"/><stop offset=".6546" stop-color="#eee4d7"/><stop offset=".9694" stop-color="#e4d7c3"/><stop offset="1" stop-color="#e3d5c1"/></linearGradient><linearGradient id="b" gradientUnits="userSpaceOnUse" x1="10" x2="38" xlink:href="#a" y1="32" y2="32"/><linearGradient id="c"><stop offset="0" stop-color="#f5000d"/><stop offset=".2714" stop-color="#f2010d"/><stop offset=".5093" stop-color="#e7060f"/><stop offset=".7339" stop-color="#d50d11"/><stop offset=".903" stop-color="#c21413"/></linearGradient><linearGradient id="d" gradientUnits="userSpaceOnUse" x1="13.1406" x2="34.8652" xlink:href="#c" y1="12.0303" y2="12.0303"/><linearGradient id="e"><stop offset="0" stop-color="#c9b9a1"/><stop offset=".2831" stop-color="#cbbca5"/><stop offset=".5552" stop-color="#d2c5b0"/><stop offset=".8222" stop-color="#ded3c4"/><stop offset="1" stop-color="#e8e0d5"/></linearGradient><linearGradient id="f" gradientUnits="userSpaceOnUse" x1="21.0996" x2="26.9353" xlink:href="#e" y1="11.8516" y2="1.7438"/><linearGradient id="g" gradientUnits="userSpaceOnUse" x1="36" x2="54" xlink:href="#a" y1="52" y2="52"/><linearGradient id="h" gradientUnits="userSpaceOnUse" x1="36" x2="54" xlink:href="#c" y1="49.833" y2="49.833"/><linearGradient id="i" gradientUnits="userSpaceOnUse" x1="42.8604" x2="47.1632" xlink:href="#e" y1="49.1406" y2="41.6879"/><path d="m30 18.875c0-1.875 4.98-4.375 4.98-11.875 0-4.064-8.063-5-10.98-5s-10.98.936-10.98 5c0 7.5 4.98 10 4.98 11.875 0 2.266-8 7.188-8 26.25 0 9.766 1.958 16.875 14 16.875 12.041 0 14-7.109 14-16.875 0-19.062-8-23.984-8-26.25z" fill="url(#b)"/><path d="m34.238 11.65c.281-.818.502-1.729.627-2.748-.676 1.295-3.099 4.361-10.928 4.361-7.734 0-10.121-2.975-10.797-4.295.129 1.01.353 1.912.635 2.725 1.871 1.826 4.982 3.465 10.162 3.465 5.22 0 8.388-1.666 10.301-3.508z" fill="url(#d)"/><path d="m24 2.938c-11.992 0-13.324 7.5 0 7.5s11.992-7.5 0-7.5z" fill="url(#f)"/><path d="m45 42c-2.5 0-9 .223-9 5.21 0 9.853.703 14.79 9 14.79s9-4.937 9-14.79c0-4.762-6.75-5.21-9-5.21z" fill="url(#g)"/><path d="m54 47.333v1.667s-1.188 3.333-9 3.333c-7.688 0-9-3.333-9-3.333v-1.667s1.875 3.334 9 3.334 9-3.334 9-3.334z" fill="url(#h)"/><path d="m45 42.667c-8.994 0-9.994 5.333 0 5.333 9.992 0 8.994-5.333 0-5.333z" fill="url(#i)"/><path d="m51.141 46.833c-1.643-1-4.891-1.326-6.141-1.326-1.258 0-4.547.277-6.18 1.3 2.371 1.624 9.881 1.548 12.321.026z" fill="#abd6ff" opacity=".4"/></svg>