<svg enable-background="new 0 0 64 64" height="64" viewBox="0 0 64 64" width="64" xmlns="http://www.w3.org/2000/svg" xmlns:xlink="http://www.w3.org/1999/xlink"><radialGradient id="a" cx="31.8379" cy="31.9404" gradientUnits="userSpaceOnUse" r="15"><stop offset=".1758" stop-color="#fa0" stop-opacity=".7"/><stop offset=".9394" stop-color="#fa0" stop-opacity="0"/></radialGradient><path d="m16.837 31.932c0 20.016 30 20.006 30 0 .001-19.989-30-19.989-30 0z" fill="url(#a)"/><path d="m30.337 31.939c0 2.002 3 2.001 3 0 .001-1.999-3-1.999-3 0z" fill="#ffe3ef"/><g fill="#ffb700"><path d="m25.865 51.217c.238-.646 4.34-14.646 4.34-14.646s-5.629 13.061-5.938 13.908c-.631 1.694 1.045 2.233 1.598.738z"/><path d="m12.361 37.209c.676-.146 14.627-4.241 14.627-4.241s-13.988 2.296-14.865 2.493c-1.764.383-1.311 2.089.238 1.748z"/><path d="m16.81 18.615c.492.484 11.543 9.965 11.543 9.965s-9.57-10.498-10.217-11.126c-1.287-1.272-2.459.043-1.326 1.161z"/><path d="m37.508 12.486c-.211.66-3.639 14.842-3.639 14.842s5-13.319 5.268-14.18c.551-1.724-1.149-2.182-1.629-.662z"/><path d="m51.02 26.302c-.674.147-14.605 4.3-14.605 4.3s13.98-2.354 14.855-2.558c1.759-.387 1.3-2.091-.25-1.742z"/><path d="m46.666 45c-.494-.48-11.605-9.889-11.605-9.889s9.639 10.434 10.287 11.058c1.293 1.265 2.457-.056 1.318-1.169z"/></g><path d="m54.514 37.958c-.646-.206-14.535-3.495-14.535-3.495s13.053 4.848 13.898 5.104c1.689.531 2.127-1.144.637-1.609z" fill="#ff7b00"/><path d="m48.15 14.718c-.484.474-9.941 11.197-9.941 11.197s10.43-9.25 11.053-9.875c1.267-1.243.004-2.421-1.112-1.322z" fill="#ff7b00"/><path d="m8.958 25.758c.641.212 14.502 3.616 14.502 3.616s-13.013-4.954-13.855-5.215c-1.686-.548-2.135 1.124-.647 1.599z" fill="#ff7b00"/><path d="m25.062 37.912s-10.502 9.168-11.131 9.788c-1.277 1.231-.021 2.423 1.1 1.33.49-.467 10.031-11.118 10.031-11.118z" fill="#ff7b00"/><path d="m46.693 7.462c-.529.802-10.48 18.453-10.48 18.453s11.725-15.895 12.414-16.945c1.383-2.093-.713-3.356-1.934-1.508z" fill="#ff4d00"/><path d="m16.791 56.298c.551-.787 10.998-18.147 10.998-18.147s-12.17 15.558-12.889 16.583c-1.44 2.057.617 3.377 1.891 1.564z" fill="#ff4d00"/><path d="m57.492 20.629c2.252-1.093 1.09-3.253-.898-2.286-.863.419-18.385 10.515-18.385 10.515s18.158-7.678 19.283-8.229z" fill="#f00"/><path d="m5.949 42.913c-2.285 1.028-1.186 3.223.83 2.313.873-.396 18.682-9.974 18.682-9.974s-18.372 7.146-19.512 7.661z" fill="#f00"/><path d="m60.385 30.376c-.957-.045-21.156.39-21.156.39s19.604 1.991 20.854 2.049c2.499.123 2.509-2.333.302-2.439z" fill="#ff4d00"/><path d="m3.861 30.973c-2.504 0-2.396 2.451-.188 2.451.959 0 21.113-1.41 21.113-1.41s-19.675-1.041-20.925-1.041z" fill="#ff4d00"/><path d="m57.469 44.796c-.828-.481-18.984-9.377-18.984-9.377s16.52 10.779 17.605 11.406c2.166 1.259 3.293-.919 1.379-2.029z" fill="#f00"/><path d="m6.474 19.201c.83.48 18.986 9.377 18.986 9.377s-16.521-10.78-17.603-11.406c-2.168-1.258-3.295.919-1.383 2.029z" fill="#f00"/><path d="m35.207 38.602s7.26 18.388 7.781 19.527c1.041 2.284 3.219 1.166 2.297-.852-.398-.875-10.078-18.675-10.078-18.675z" fill="#ff4d00"/><path d="m18.623 6.576c.398.877 10.039 18.697 10.039 18.697s-7.221-18.401-7.74-19.545c-1.038-2.287-3.217-1.171-2.299.848z" fill="#ff4d00"/><path d="m31.103 60.131c0 2.514 2.444 2.406 2.444.188-.002-.961-1.405-21.193-1.405-21.193s-1.039 19.75-1.039 21.005z" fill="#f00"/><path d="m32.511 3.852c-.029-2.512-2.471-2.373-2.443-.156.01.96 1.66 21.177 1.66 21.177s.799-19.766.783-21.021z" fill="#f00"/></svg>