<svg enable-background="new 0 0 64 64" height="64" viewBox="0 0 64 64" width="64" xmlns="http://www.w3.org/2000/svg" xmlns:xlink="http://www.w3.org/1999/xlink"><radialGradient id="a" cx="36.4336" cy="37.0254" gradientTransform="matrix(1.0221 0 0 .6647 2.0687 14.3932)" gradientUnits="userSpaceOnUse" r="19.1114"><stop offset="0" stop-color="#ff5e9c"/><stop offset=".3985" stop-color="#ff5c9b"/><stop offset=".6114" stop-color="#ff5496"/><stop offset=".7805" stop-color="#fe468e"/><stop offset=".9257" stop-color="#fd3382"/><stop offset="1" stop-color="#fd267a"/></radialGradient><linearGradient id="b"><stop offset="0" stop-color="#b3c3cc"/><stop offset=".1754" stop-color="#afbfc8"/><stop offset=".3653" stop-color="#a4b2bb"/><stop offset=".562" stop-color="#919ea5"/><stop offset=".7634" stop-color="#768187"/><stop offset=".9666" stop-color="#545c60"/><stop offset="1" stop-color="#4e5559"/></linearGradient><linearGradient id="c" gradientUnits="userSpaceOnUse" x1="15.5264" x2="17.9678" xlink:href="#b" y1="39.6602" y2="39.6602"/><radialGradient id="d" cx="36.4336" cy="19.4336" gradientTransform="matrix(1.0221 0 0 .6257 2.0687 9.6382)" gradientUnits="userSpaceOnUse" r="19.9992"><stop offset="0" stop-color="#57e5ff"/><stop offset=".2047" stop-color="#52e1ff"/><stop offset=".446" stop-color="#44d5ff"/><stop offset=".706" stop-color="#2cc1ff"/><stop offset=".9772" stop-color="#0ba6ff"/><stop offset="1" stop-color="#08a3ff"/></radialGradient><linearGradient id="e" gradientUnits="userSpaceOnUse" x1="15.5264" x2="17.9678" xlink:href="#b" y1="22.397" y2="22.397"/><linearGradient id="f" gradientUnits="userSpaceOnUse" x1="5" x2="7" y1="34" y2="34"><stop offset=".2303" stop-color="#cfd8dd"/><stop offset=".3769" stop-color="#c7d1d6"/><stop offset=".6058" stop-color="#b1bcc2"/><stop offset=".8424" stop-color="#93a1a8"/></linearGradient><path d="m6 2c-2.667 0-2.667 4 0 4-2.333 0-2.333-4 0-4z" fill="#f9c802"/><path d="m6 2c2.334 0 2.334 4 0 4 2.667 0 2.667-4 0-4z" fill="#f9c802"/><path d="m5.554 4c0-1.104.446-2 .446-2s.445.896.445 2-.445 2-.445 2-.446-.896-.446-2z" fill="#f9c802"/><path d="m5.646 2.038c-1.499.42-1.499 3.504 0 3.925-.838-.88-.838-3.046 0-3.925z" fill="#f9c802"/><path d="m6.354 5.963c1.499-.42 1.499-3.505 0-3.925.838.879.838 3.045 0 3.925z" fill="#f9c802"/><path d="m6.128 59.472-.472-.122c11.025-32.24.674-47.369.568-47.517l.418-.227c.107.151 10.573 15.445-.514 47.866z" fill="#cfd8dd"/><path d="m19.56 34.729c-3.393.178-3.189 5.498-1.78 7.107 1.246 1.423 5.694 2.059 7.487 2.731 2.208.829 12.268.235 12.912-.044 1.973-.852 4.814-1.463 10.361-1.025 2.848.225 8.129 1.895 12.941 1.67.145-2.928-2.867-4.809-2.867-5.742 0-1.399 2.592-2.219 3.182-5.742-4.76-.145-11.373 3.088-12.703 3.088-6.721 0-8.008-2.605-10.779-3.129-2.133-1.536-8.708-.463-8.866-.361-2.866 1.864-9.547 1.429-9.888 1.447z" fill="url(#a)"/><path d="m25.793 38.037c0 3.123-4.367 3.123-4.367 0 .001-3.124 4.367-3.124 4.367 0z" fill="#fff"/><path d="m25.477 38.004c0 2.623-3.84 2.623-3.84 0s3.84-2.623 3.84 0z" fill="#c20067"/><path d="m24.794 38.288c0 2.048-2.999 2.048-2.999 0s2.999-2.048 2.999 0z" fill="#93e67f"/><path d="m23.852 38.613c0 1.182-1.728 1.182-1.728 0 0-1.178 1.728-1.178 1.728 0z" fill="#302c3b"/><g fill="#c20067"><path d="m46 43.193c2.424-.035 2.424-3.499 0-3.533 1.588.537 1.588 2.994 0 3.533z"/><path d="m46.902 40.229c2.498-.058 1.463-4.08-1.076-3.38 1.684.073 2.432 2.423 1.076 3.38z"/><path d="m45.076 40.87c2-.036 2-3.054 0-3.091 1.084.471 1.084 2.619 0 3.091z"/><path d="m44.213 39.414c1.822-.033 1.822-3.058 0-3.092 1.082.471 1.082 2.619 0 3.092z"/><path d="m44.1 42.826c1.893-.035 1.893-3.056 0-3.091 1.084.472 1.084 2.62 0 3.091z"/><path d="m43.152 41.07c1.893-.035 1.896-3.055 0-3.092 1.084.473 1.084 2.62 0 3.092z"/><path d="m42.354 39.005c1.654-.03 1.654-3.06 0-3.091 1.084.473 1.084 2.619 0 3.091z"/><path d="m42.047 42.75c1.893-.034 1.895-3.056 0-3.09 1.084.471 1.084 2.619 0 3.09z"/><path d="m40.363 43.011c1.875-.032 1.877-2.807 0-2.839 1.082.433 1.082 2.406 0 2.839z"/><path d="m41.191 40.87c1.912-.036 1.91-3.056 0-3.091 1.084.471 1.084 2.619 0 3.091z"/><path d="m41.348 37.613c1.768-.025 1.768-2.422 0-2.447 1.084.372 1.084 2.074 0 2.447z"/><path d="m40.314 39.061c2.016-.037 2.016-3.054 0-3.092 1.084.472 1.084 2.621 0 3.092z"/><path d="m39.443 41.27c1.842-.033 1.842-3.057 0-3.092 1.084.471 1.084 2.621 0 3.092z"/><path d="m38.543 43.438c1.943-.035 1.945-3.055 0-3.09 1.084.47 1.084 2.619 0 3.09z"/><path d="m39.344 37.613c1.938-.037 1.936-3.055 0-3.092 1.082.471 1.082 2.62 0 3.092z"/><path d="m38.408 36.067c1.865-.025 1.867-2.308 0-2.333 1.082.356 1.082 1.977 0 2.333z"/><path d="m36.891 43.697c2.068-.039 2.068-3.053 0-3.092 1.084.471 1.084 2.622 0 3.092z"/><path d="m37.58 37.868c1.902-.036 1.902-3.056 0-3.091 1.082.471 1.082 2.619 0 3.091z"/><path d="m36.621 36.116c1.752-.032 1.754-3.059 0-3.091 1.084.473 1.084 2.621 0 3.091z"/><path d="m35.65 37.979c1.982-.035 1.982-3.053 0-3.09 1.084.47 1.084 2.619 0 3.09z"/><path d="m34.57 36.014c1.979-.035 1.979-3.054 0-3.091 1.084.472 1.084 2.62 0 3.091z"/><path d="m33.654 37.936c2.018-.038 2.018-3.055 0-3.092 1.084.47 1.084 2.619 0 3.092z"/><path d="m32.572 36.067c1.92-.035 1.924-3.056 0-3.091 1.084.471 1.084 2.62 0 3.091z"/><path d="m31.56 38.256c1.918-.035 1.918-3.055 0-3.09 1.083.471 1.083 2.619 0 3.09z"/><path d="m29.701 37.289c1.943-.036 1.944-3.056 0-3.092 1.082.472 1.082 2.62 0 3.092z"/><path d="m30.744 36.067c2.045-.038 2.046-3.054 0-3.091 1.084.471 1.084 2.62 0 3.091z"/><path d="m34.895 43.5c2.064-.038 2.063-3.053 0-3.092 1.084.473 1.084 2.621 0 3.092z"/><path d="m32.964 43.381c2.042-.037 2.042-3.053 0-3.09 1.085.471 1.085 2.62 0 3.09z"/><path d="m30.941 43.5c2.047-.038 2.045-3.053 0-3.092 1.082.473 1.082 2.621 0 3.092z"/><path d="m28.967 43.596c1.878-.033 1.876-3.056 0-3.09 1.083.471 1.083 2.619 0 3.09z"/></g><path d="m19.56 34.729c-3.779 5.796.634 5.501.613 6.525-.021 1.094-1.796.482-1.796-.5-.026 2.098 2.333 1.881 2.454.66.158-1.59-3.172-1.266-1.577-3.958.288 2.048 3.646 4.956 6.343 3.827.604-.416.442 2.809-.33 3.284-1.74 1.071-8.366-.907-8.434-1.069-.684-1.612-1.576-1.881-1.789-3.377-.403-2.832 1.19-5.594 4.516-5.392z" fill="#e6ebef"/><path d="m47.773 38.205c-1.111-.439 9.422-3.484 10.283-3.43.858.053-9.429 3.767-10.283 3.43z" fill="#c20067"/><path d="m47.908 39.041c-1.129-.42 9-2.56 9.76-2.361.846.218-8.897 2.681-9.76 2.361z" fill="#c20067"/><path d="m47.494 39.965c-1.084-.42 7.967-1.541 8.469-1.3.771.37-7.639 1.622-8.469 1.3z" fill="#c20067"/><path d="m56.719 40.689c-.746-.316-10.357-.908-9.477-.143.676.589 10.223.46 9.477.143z" fill="#c20067"/><path d="m47.523 41.455c-.994-.719 9.607.848 10.295 1.248.762.447-9.533-.696-10.295-1.248z" fill="#c20067"/><path d="m47.473 42.301c-1.074-.732 10.697 1.709 11.188 2.095.751.589-10.364-1.534-11.188-2.095z" fill="#c20067"/><path d="m59.209 33.875c.273 3.477-2.891 3.727-2.891 5.396 0 1.378 3.35 2.042 3.35 5.899.906.127 1.906.028 1.906.028-.025-3.993-2.854-4.707-2.854-5.792 0-1.025 3.076-2.699 3.279-5.797-1.517-.151-2.79.266-2.79.266z" fill="#e6ebef"/><path d="m29.449 33.281c4.756-.256 8.346.347 8.866.361-3.126-2.157-7.565-3.321-8.866-.361z" fill="#e81566"/><path d="m30.181 37.641s8.334-1.532 9.229-1.445c.893.086.67 3.523-.793 4.531-1.463 1.01-8.081.479-8.637-.305s.201-2.781.201-2.781z" fill="#fff"/><path d="m30.33 38.58c-1.316-.537 7.393-1.531 8.405-1.482s-7.397 1.894-8.405 1.482z" fill="#e81566"/><path d="m30.195 39.34c-1.314-.537 7.553-.874 8.438-.621.986.281-7.43 1.033-8.438.621z" fill="#e81566"/><path d="m30.195 40.125c-1.314-.537 7.209-.219 7.819.092.935.472-6.811.319-7.819-.092z" fill="#e81566"/><path d="m25.188 42.32c.876 1.241 2.919 1.569 3.301.178.329-1.203 2.294-.678 1.907-2.301-.309-1.289.811-1.832-.377-3.377-.653-.854-2.898-.209-2.424 1.109.473 1.319-2.907 3.684-2.407 4.391z" fill="#e81566"/><path d="m26.293 41.836c1.958.518 3.3-3.186 2.051-4.38.395 1.743-.969 3.909-2.051 4.38z" fill="#93e67f"/><path d="m17.015 35.804c1.168 0-.616 5.589.953 7.712-3.23-2.123-2.942-6.356-.953-7.712z" fill="url(#c)"/><path d="m17.968 43.516c-7.193-3.107-7.908-3.344-7.908-4.047 0-.644 2.064-1.739 6.955-3.665.358-.062.358.388.358.388s-6.73 2.514-6.726 3.309c.004.791 7.001 3.432 7.001 3.432s.32.211.32.583z" fill="#cfd8dd"/><path d="m19.56 17.521c-3.393.176-3.189 5.498-1.78 7.107 1.246 1.422 5.694 2.059 7.487 2.731 2.208.828 12.268.235 12.912-.044 1.973-.853 4.814-1.464 10.361-1.026 2.848.225 8.129 1.895 12.941 1.67.145-2.928-2.867-4.81-2.867-5.742 0-1.399 2.592-2.219 3.182-5.742-4.76-.145-11.373 3.088-12.703 3.088-6.721 0-8.008-2.605-10.779-3.128-2.133-1.536-8.708-.465-8.866-.362-2.866 1.866-9.547 1.43-9.888 1.448z" fill="url(#d)"/><path d="m25.793 20.829c0 3.123-4.367 3.123-4.367 0 .001-3.124 4.367-3.124 4.367 0z" fill="#fff"/><path d="m25.477 20.797c0 2.623-3.84 2.623-3.84 0s3.84-2.623 3.84 0z" fill="#014d87"/><path d="m24.794 21.081c0 2.048-2.999 2.048-2.999 0 0-2.049 2.999-2.049 2.999 0z" fill="#ffe12c"/><path d="m23.852 21.406c0 1.18-1.728 1.18-1.728 0s1.728-1.179 1.728 0z" fill="#302c3b"/><path d="m46 25.985c2.424-.035 2.424-3.499 0-3.533 1.588.538 1.588 2.995 0 3.533z" fill="#006dae"/><path d="m46.902 23.021c2.498-.057 1.463-4.08-1.076-3.38 1.684.074 2.432 2.423 1.076 3.38z" fill="#006dae"/><path d="m45.076 23.662c2-.036 2-3.053 0-3.091 1.084.472 1.084 2.619 0 3.091z" fill="#006dae"/><path d="m44.213 22.205c1.822-.033 1.822-3.057 0-3.091 1.082.472 1.082 2.62 0 3.091z" fill="#006dae"/><path d="m44.1 25.619c1.893-.035 1.893-3.057 0-3.091 1.084.471 1.084 2.62 0 3.091z" fill="#006dae"/><path d="m43.152 23.863c1.893-.035 1.896-3.056 0-3.092 1.084.472 1.084 2.62 0 3.092z" fill="#006dae"/><path d="m42.354 21.798c1.654-.031 1.654-3.061 0-3.092 1.084.473 1.084 2.62 0 3.092z" fill="#006dae"/><path d="m42.047 25.543c1.893-.035 1.895-3.057 0-3.091 1.084.472 1.084 2.62 0 3.091z" fill="#006dae"/><path d="m40.363 25.804c1.875-.032 1.877-2.808 0-2.839 1.082.432 1.082 2.405 0 2.839z" fill="#006dae"/><path d="m41.191 23.662c1.912-.035 1.91-3.056 0-3.091 1.084.472 1.084 2.619 0 3.091z" fill="#006dae"/><path d="m41.348 20.404c1.768-.025 1.768-2.421 0-2.447 1.084.374 1.084 2.075 0 2.447z" fill="#006dae"/><path d="m40.314 21.853c2.016-.036 2.016-3.054 0-3.091 1.084.471 1.084 2.62 0 3.091z" fill="#006dae"/><path d="m39.443 24.062c1.842-.034 1.842-3.057 0-3.091 1.084.47 1.084 2.62 0 3.091z" fill="#006dae"/><path d="m38.543 26.229c1.943-.035 1.945-3.055 0-3.091 1.084.472 1.084 2.62 0 3.091z" fill="#006dae"/><path d="m39.344 20.404c1.938-.035 1.936-3.055 0-3.09 1.082.471 1.082 2.62 0 3.09z" fill="#006dae"/><path d="m38.408 18.86c1.865-.026 1.867-2.308 0-2.334 1.082.356 1.082 1.978 0 2.334z" fill="#006dae"/><path d="m36.891 26.489c2.068-.039 2.068-3.052 0-3.091 1.084.471 1.084 2.62 0 3.091z" fill="#006dae"/><path d="m37.58 20.661c1.902-.036 1.902-3.056 0-3.092 1.082.472 1.082 2.62 0 3.092z" fill="#006dae"/><path d="m36.621 18.908c1.752-.031 1.754-3.058 0-3.089 1.084.471 1.084 2.619 0 3.089z" fill="#006dae"/><path d="m35.65 20.771c1.982-.036 1.982-3.054 0-3.09 1.084.471 1.084 2.619 0 3.09z" fill="#006dae"/><path d="m34.57 18.807c1.979-.036 1.979-3.054 0-3.092 1.084.472 1.084 2.62 0 3.092z" fill="#006dae"/><path d="m33.654 20.727c2.018-.037 2.018-3.054 0-3.091 1.084.47 1.084 2.619 0 3.091z" fill="#006dae"/><path d="m32.572 18.859c1.92-.035 1.924-3.055 0-3.091 1.084.471 1.084 2.621 0 3.091z" fill="#006dae"/><path d="m31.56 21.048c1.918-.034 1.918-3.055 0-3.091 1.083.472 1.083 2.62 0 3.091z" fill="#006dae"/><path d="m29.701 20.081c1.943-.035 1.944-3.055 0-3.091 1.082.471 1.082 2.619 0 3.091z" fill="#006dae"/><path d="m30.744 18.859c2.045-.038 2.046-3.053 0-3.091 1.084.471 1.084 2.621 0 3.091z" fill="#006dae"/><path d="m34.895 26.292c2.064-.038 2.063-3.053 0-3.091 1.084.472 1.084 2.619 0 3.091z" fill="#006dae"/><path d="m32.964 26.174c2.042-.037 2.042-3.053 0-3.091 1.085.472 1.085 2.62 0 3.091z" fill="#006dae"/><path d="m30.941 26.292c2.047-.038 2.045-3.053 0-3.091 1.082.472 1.082 2.619 0 3.091z" fill="#006dae"/><path d="m28.967 26.389c1.878-.034 1.876-3.057 0-3.091 1.083.472 1.083 2.62 0 3.091z" fill="#006dae"/><path d="m19.56 17.521c-3.779 5.796.634 5.5.613 6.524-.021 1.095-1.796.482-1.796-.5-.026 2.098 2.333 1.882 2.454.662.158-1.592-3.172-1.267-1.577-3.96.288 2.048 3.646 4.956 6.343 3.826.604-.414.442 2.81-.33 3.286-1.74 1.071-8.366-.907-8.434-1.07-.684-1.612-1.576-1.881-1.789-3.377-.403-2.831 1.19-5.592 4.516-5.391z" fill="#e6ebef"/><path d="m47.773 20.998c-1.111-.439 9.422-3.484 10.283-3.431.858.054-9.429 3.767-10.283 3.431z" fill="#006dae"/><path d="m47.908 21.833c-1.129-.421 9-2.56 9.76-2.361.846.219-8.897 2.682-9.76 2.361z" fill="#006dae"/><path d="m47.494 22.758c-1.084-.421 7.967-1.542 8.469-1.301.771.37-7.639 1.622-8.469 1.301z" fill="#006dae"/><path d="m56.719 23.481c-.746-.317-10.357-.907-9.477-.143.676.589 10.223.461 9.477.143z" fill="#006dae"/><path d="m47.523 24.247c-.994-.718 9.607.848 10.295 1.249.762.447-9.533-.697-10.295-1.249z" fill="#006dae"/><path d="m47.473 25.093c-1.074-.732 10.697 1.709 11.188 2.095.751.589-10.364-1.534-11.188-2.095z" fill="#006dae"/><path d="m59.209 16.668c.273 3.476-2.891 3.727-2.891 5.395 0 1.379 3.35 2.043 3.35 5.899.906.126 1.906.029 1.906.029-.025-3.994-2.854-4.708-2.854-5.793 0-1.024 3.076-2.698 3.279-5.798-1.517-.149-2.79.268-2.79.268z" fill="#e6ebef"/><path d="m29.449 16.073c4.756-.254 8.346.348 8.866.362-3.126-2.157-7.565-3.321-8.866-.362z" fill="#014d87"/><path d="m30.181 20.434s8.334-1.532 9.229-1.446c.893.087.67 3.524-.793 4.532s-8.081.478-8.637-.305.201-2.781.201-2.781z" fill="#fff"/><path d="m30.33 21.373c-1.316-.538 7.393-1.532 8.405-1.483 1.011.049-7.397 1.893-8.405 1.483z" fill="#006dae"/><path d="m30.195 22.132c-1.314-.537 7.553-.874 8.438-.621.986.281-7.43 1.034-8.438.621z" fill="#006dae"/><path d="m30.195 22.918c-1.314-.538 7.209-.219 7.819.092.935.472-6.811.319-7.819-.092z" fill="#006dae"/><path d="m25.188 25.113c.876 1.24 2.919 1.568 3.301.177.329-1.203 2.294-.678 1.907-2.3-.309-1.289.811-1.833-.377-3.379-.653-.852-2.898-.208-2.424 1.111.473 1.319-2.907 3.684-2.407 4.391z" fill="#018bc9"/><path d="m26.293 24.629c1.958.517 3.3-3.186 2.051-4.381.395 1.744-.969 3.91-2.051 4.381z" fill="#ffe12c"/><path d="m17.015 18.541c1.168 0-.616 5.588.953 7.712-3.23-2.124-2.942-6.357-.953-7.712z" fill="url(#e)"/><path d="m17.968 26.253c-7.193-3.106-8.308-3.272-8.308-3.977 0-.644 2.463-1.81 7.354-3.735.358-.061.358.388.358.388s-7.13 2.584-7.126 3.378c.005.792 7.401 3.362 7.401 3.362s.321.212.321.584z" fill="#cfd8dd"/><path d="m5 6h2v56h-2z" fill="url(#f)"/><path d="m5.875 5.882h.25v7.8h-.25z" fill="#f9b700"/><path d="m6.5 7.962h-1l-.125-2.08h1.25z" fill="#f9b700"/><path d="m5.5 11.602h1l.125 2.08h-1.25z" fill="#f9b700"/><path d="m2.1 9.656h7.8v.25h-7.8z" fill="#f9b700"/><path d="m7.82 10.281v-1l2.08-.125v1.25z" fill="#f9b700"/><path d="m4.18 9.281v1l-2.08.125v-1.25z" fill="#f9b700"/><path d="m5.875 5.882h.25v7.8h-.25z" fill="#f9b700" transform="matrix(.7071 .7071 -.7071 .7071 8.6741 -1.3776)"/><path d="m7.64 8.849-.707-.707 1.383-1.56.884.884z" fill="#f9b700"/><path d="m4.36 10.715.707.707-1.383 1.559-.884-.883z" fill="#f9b700"/><path d="m5.875 5.882h.25v7.8h-.25z" fill="#f9b700" transform="matrix(-.7071 .7071 -.7071 -.7071 17.1594 12.4558)"/><path d="m6.933 11.422.707-.707 1.56 1.383-.884.883z" fill="#f9b700"/><path d="m5.067 8.142-.707.707-1.56-1.383.884-.884z" fill="#f9b700"/><path d="m6 5.781c-2.209 0-4 1.791-4 4s1.791 4 4 4 4-1.791 4-4-1.791-4-4-4zm0 7.75c-2.071 0-3.75-1.679-3.75-3.75s1.679-3.75 3.75-3.75 3.75 1.679 3.75 3.75-1.679 3.75-3.75 3.75z" fill="#f9c802"/><path d="m7 9.781c0 1.334-2 1.334-2 0 0-1.333 2-1.333 2 0z" fill="#f9c802"/></svg>