<svg enable-background="new 0 0 64 64" height="64" viewBox="0 0 64 64" width="64" xmlns="http://www.w3.org/2000/svg"><path d="m32.162 23.585c6.012 9.84 17.619 1.514 23.631 11.354 2.045-6.737 4.164-13.454 6.207-20.192-6.012-9.842-17.619-1.512-23.631-11.354-2.045 6.739-4.162 13.454-6.207 20.192z" fill="#e6ebef"/><path d="m51.438 21.261c-.848 2.791-3.484 4.113-5.891 2.957s-3.67-4.355-2.822-7.148c.846-2.791 3.484-4.115 5.891-2.955 2.405 1.154 3.669 4.357 2.822 7.146z" fill="#e81c27"/><path d="m39.385 3.343c.17-.547-.139-1.129-.688-1.297-.547-.168-1.129.139-1.299.688l-18.146 59.266h2.174z" fill="#302c3b"/><path d="m31.84 23.585c-6.012 9.84-17.619 1.514-23.631 11.354-2.045-6.738-4.162-13.453-6.209-20.191 6.014-9.842 17.621-1.512 23.633-11.354 2.045 6.738 4.162 13.453 6.207 20.191z" fill="#e6ebef"/><path d="m12.564 21.261c.848 2.791 3.484 4.113 5.891 2.957s3.67-4.355 2.822-7.148c-.846-2.791-3.482-4.115-5.891-2.955-2.406 1.154-3.669 4.357-2.822 7.146z" fill="#e81c27"/><path d="m26.604 2.734c-.168-.549-.75-.855-1.299-.688s-.855.75-.688 1.297l17.961 58.657h2.172z" fill="#4e5e67"/></svg>