<svg enable-background="new 0 0 64 64" height="64" viewBox="0 0 64 64" width="64" xmlns="http://www.w3.org/2000/svg" xmlns:xlink="http://www.w3.org/1999/xlink"><radialGradient id="a" cx="25.6143" cy="29.7568" gradientTransform="matrix(1.0125 0 0 1.1385 .0033 -17.7804)" gradientUnits="userSpaceOnUse" r="25.5517"><stop offset="0" stop-color="#ff7575"/><stop offset=".1505" stop-color="#ff6c6d"/><stop offset=".396" stop-color="#ff5457"/><stop offset=".7039" stop-color="#ff2c34"/><stop offset="1" stop-color="#ff000d"/></radialGradient><path d="m11.691 62-.191-.725c10.171-2.693 17.743-7.35 20.775-12.773l.654.365c-3.13 5.602-10.87 10.389-21.238 13.133z" fill="#99a8ae"/><path d="m32.49 48.305c-.69-.031-.539 1.427-1.393 2.865-.148.575 2.555.519 2.811 0-1.266-2.366-.724-2.833-1.418-2.865z" fill="#de000c"/><path d="m32.117 48.626s-.084 1.211-.64 2.207c-.198.356.517.313.749-.019.535-.764-.109-2.188-.109-2.188z" fill="#c70000"/><path d="m33.285 50.454c-.418-.949-.512-2.062-.512-2.062s-.408 1.257-.013 1.992c.174.32.675.41.525.07z" fill="#c70000"/><path d="m52.5 23.398c0 14.594-17.053 25.38-20.001 25.38s-19.999-10.786-19.999-25.38c0-11.817 8.952-21.398 19.999-21.398 11.046 0 20.001 9.581 20.001 21.398z" fill="url(#a)"/><path d="m31.852 48.913c.429.041.868.042 1.296 0 .423-.05.276-.339-.079-.297-.375.035-.762.035-1.138 0-.355-.041-.502.247-.079.297z" fill="#99a8ae"/><path d="m30.973 51.835c.509.22 2.548.22 3.055 0 .5-.129.331-.856-.118-.741-.468.202-2.349.202-2.817 0-.45-.115-.621.613-.12.741z" fill="#ff000d"/></svg>