<svg enable-background="new 0 0 64 64" height="64" viewBox="0 0 64 64" width="64" xmlns="http://www.w3.org/2000/svg" xmlns:xlink="http://www.w3.org/1999/xlink"><linearGradient id="a" gradientUnits="userSpaceOnUse" x1="17.6704" x2="9.4207" y1="56.3301" y2="42.2681"><stop offset="0" stop-color="#db7600"/><stop offset=".2284" stop-color="#e18608"/><stop offset=".6722" stop-color="#f1af1f"/><stop offset="1" stop-color="#ffd231"/></linearGradient><radialGradient id="b" cx="23.6553" cy="39.6152" gradientUnits="userSpaceOnUse" r="11.0556"><stop offset="0" stop-color="#853b1b"/><stop offset=".1832" stop-color="#7d391d"/><stop offset=".4679" stop-color="#673321"/><stop offset=".8168" stop-color="#432928"/><stop offset=".8727" stop-color="#3d2729"/></radialGradient><linearGradient id="c"><stop offset="0" stop-color="#53daf2"/><stop offset=".2093" stop-color="#4ed5f1"/><stop offset=".4561" stop-color="#40c7ed"/><stop offset=".7218" stop-color="#28afe7"/><stop offset=".9992" stop-color="#078ede"/><stop offset="1" stop-color="#078ede"/></linearGradient><linearGradient id="d" gradientTransform="matrix(-.8331 -.5532 -.5532 .8331 428.5887 91.3966)" gradientUnits="userSpaceOnUse" x1="354.1514" x2="366.9795" xlink:href="#c" y1="145.3047" y2="145.3047"/><linearGradient id="e"><stop offset="0" stop-color="#078ede"/><stop offset=".0752" stop-color="#1199e2"/><stop offset=".3319" stop-color="#2fbaef"/><stop offset=".5779" stop-color="#45d2f8"/><stop offset=".8063" stop-color="#52e0fd"/><stop offset="1" stop-color="#57e5ff"/></linearGradient><linearGradient id="f" gradientTransform="matrix(-.8331 -.5532 .5532 -.8331 831.1859 -515.3917)" gradientUnits="userSpaceOnUse" x1="353.8623" x2="367.0518" xlink:href="#e" y1="-868.3057" y2="-868.3057"/><linearGradient id="g" gradientTransform="matrix(-.8331 -.5532 -.5532 .8331 428.5887 91.3966)" gradientUnits="userSpaceOnUse" x1="354.0791" x2="366.9053" xlink:href="#c" y1="156.2793" y2="156.2793"/><linearGradient id="h" gradientTransform="matrix(-.8331 -.5532 .5532 -.8331 831.1859 -515.3917)" gradientUnits="userSpaceOnUse" x1="353.8135" x2="366.9502" xlink:href="#e" y1="-879.9424" y2="-879.9424"/><linearGradient id="i" gradientTransform="matrix(-.8331 -.5532 .5532 -.8331 831.1859 -515.3917)" gradientUnits="userSpaceOnUse" x1="353.6074" x2="367.166" y1="-898.7725" y2="-898.7725"><stop offset="0" stop-color="#57e5ff"/><stop offset=".1937" stop-color="#52e0fd"/><stop offset=".4221" stop-color="#45d2f8"/><stop offset=".6681" stop-color="#2fbaef"/><stop offset=".9248" stop-color="#1199e2"/><stop offset="1" stop-color="#078ede"/></linearGradient><linearGradient id="j"><stop offset=".2303" stop-color="#aa5bef"/><stop offset=".4906" stop-color="#a858ee"/><stop offset=".6597" stop-color="#a250e9"/><stop offset=".8029" stop-color="#9641e1"/><stop offset=".9308" stop-color="#872cd7"/><stop offset="1" stop-color="#7c1dcf"/></linearGradient><linearGradient id="k" gradientTransform="matrix(-.3898 -.9209 -.9209 .3898 162.8349 45.9777)" gradientUnits="userSpaceOnUse" x1="46.1006" x2="55.2373" xlink:href="#j" y1="97.5566" y2="97.5566"/><linearGradient id="l"><stop offset="0" stop-color="#7c1dcf"/><stop offset=".0692" stop-color="#872cd7"/><stop offset=".1971" stop-color="#9641e1"/><stop offset=".3403" stop-color="#a250e9"/><stop offset=".5094" stop-color="#a858ee"/><stop offset=".7697" stop-color="#aa5bef"/></linearGradient><linearGradient id="m" gradientTransform="matrix(-.3898 -.9209 .9209 -.3898 832.5491 -238.1846)" gradientUnits="userSpaceOnUse" x1="45.459" x2="54.8525" xlink:href="#l" y1="-821.3799" y2="-821.3799"/><linearGradient id="n" gradientTransform="matrix(-.3898 -.9209 -.9209 .3898 162.8349 45.9777)" gradientUnits="userSpaceOnUse" x1="46.0479" x2="55.1846" xlink:href="#j" y1="105.3711" y2="105.3711"/><linearGradient id="o" gradientTransform="matrix(-.3898 -.9209 .9209 -.3898 832.5491 -238.1846)" gradientUnits="userSpaceOnUse" x1="45.4238" x2="54.7813" xlink:href="#l" y1="-829.6675" y2="-829.6675"/><linearGradient id="p" gradientTransform="matrix(-.3898 -.9209 .9209 -.3898 832.5491 -238.1846)" gradientUnits="userSpaceOnUse" x1="45.2773" x2="54.9365" xlink:href="#j" y1="-843.0771" y2="-843.0771"/><linearGradient id="q"><stop offset="0" stop-color="#ff000e"/><stop offset="1" stop-color="#b80000"/></linearGradient><linearGradient id="r" gradientTransform="matrix(.8843 .4669 -.4669 .8843 -2.7356 -197.9841)" gradientUnits="userSpaceOnUse" x1="118.6484" x2="127.3291" xlink:href="#q" y1="170.6973" y2="170.6973"/><linearGradient id="s"><stop offset="0" stop-color="#cf0000"/><stop offset="1" stop-color="#ff000e"/></linearGradient><linearGradient id="t" gradientTransform="matrix(.8843 .4669 .4669 -.8843 336.2825 -841.4993)" gradientUnits="userSpaceOnUse" x1="119.2988" x2="128.2236" xlink:href="#s" y1="-894.5596" y2="-894.5596"/><linearGradient id="u" gradientTransform="matrix(.8843 .4669 -.4669 .8843 -2.7356 -197.9841)" gradientUnits="userSpaceOnUse" x1="118.6016" x2="127.2793" xlink:href="#q" y1="178.124" y2="178.124"/><linearGradient id="v" gradientTransform="matrix(.8843 .4669 .4669 -.8843 336.2825 -841.4993)" gradientUnits="userSpaceOnUse" x1="119.2666" x2="128.1563" xlink:href="#s" y1="-902.4336" y2="-902.4336"/><linearGradient id="w" gradientTransform="matrix(.8843 .4669 .4669 -.8843 336.2825 -841.4993)" gradientUnits="userSpaceOnUse" x1="119.1299" x2="128.3066" xlink:href="#s" y1="-915.1758" y2="-915.1758"/><path d="m12.664 29.522s0 0-10.631 31.681c-.158.473.277.934.758.76 30.461-11.021 30.461-11.021 30.461-11.021z" fill="url(#a)"/><path d="m27.412 35.789c5.816 5.924 8.818 12.471 6.707 14.622-2.113 2.151-8.545-.905-14.363-6.829-5.816-5.923-8.818-12.47-6.705-14.621 2.113-2.152 8.543.906 14.361 6.828z" fill="#e88a30"/><g fill="#fff"><path d="m10.434 48.663-.533-3.126-2.346-.79.236-.702 1.914-.988.035-3.17 2.266 2.216 3.02-.948-1.403 2.839 1.836 2.584-3.135-.459z" opacity=".3"/><path d="m15.514 54.948-2.821 1.441 2.803.978 3.959-1.434 1.4-2.83-3.031.916-2.242-2.239z" opacity=".3"/><path d="m2.381 60.166 1.933-2.137 2.758.694-1.404-2.474 1.514-2.408-2.893.638z" opacity=".3"/></g><path d="m27.307 35.895c5.705 5.806 8.691 12.178 6.678 14.233-2.018 2.052-8.277-.988-13.982-6.795-5.703-5.802-8.691-12.174-6.674-14.228 2.015-2.056 8.276.986 13.978 6.79z" fill="url(#b)"/><path d="m43.297 8.201c2.109-1.133 10.277 6.073 6.041 11.929-.299.416 2.01-1.215 1.867-.787 5.561-6.18-5.105-15.366-6.387-13.437-1.392 2.097-.13.198-1.521 2.295z" fill="url(#d)"/><path d="m44.816 5.904c-.631 3.617 10.121 5.603 14.182 1.699-3.537 7.521-15.086 5.421-16.313 1.511-.294-.949.741-1.112 2.131-3.21z" fill="url(#f)"/><path d="m37.443 17.149c2.105-1.13 10.641 5.604 6.289 12.785-.268.444 1.764-2.077 1.619-1.644 5.559-6.181-5.105-15.365-6.387-13.437-1.392 2.098-.128.2-1.521 2.296z" fill="url(#g)"/><path d="m38.963 14.854c-.406 3.563 9.193 6.656 13.266 2.979-3.801 8.31-14.58 3.959-15.393.23-.213-.967.736-1.112 2.127-3.209z" fill="url(#h)"/><path d="m46.121 27.256c-6.584 13.667-18.979 6.526-24.922 13.392 7.24-10.908 17.172-4.555 24.922-13.392z" fill="url(#i)"/><path d="m52.438 32.725c1.695.157 3.719 7.647-1.096 9.462-.342.129 1.67.067 1.418.265 5.729-1.486 3-11.134 1.482-10.491-1.648.698-.156.064-1.804.764z" fill="url(#k)"/><path d="m54.242 31.96c-1.795 1.898 3.813 7.304 7.758 6.578-5.055 3.08-11.092-2.706-10.283-5.51.195-.679.875-.37 2.525-1.068z" fill="url(#m)"/><path d="m45.445 35.741c1.695.155 4.119 7.511-1.283 10.066-.334.158 1.861-.541 1.607-.34 5.729-1.487 3-11.134 1.48-10.491-1.647.699-.153.066-1.804.765z" fill="url(#n)"/><path d="m47.25 34.976c-1.641 1.956 2.848 7.567 6.711 6.98-5.521 3.445-10.217-3.377-9.236-5.911.254-.657.875-.37 2.525-1.069z" fill="url(#o)"/><path d="m46.633 45.154c-9.279 5.532-13.838-3.579-20.066-1.836 8.585-3.634 11.992 4.042 20.066 1.836z" fill="url(#p)"/><path d="m30.631 11.526c-.01-1.621-6.936-4.144-9.043.269-.15.312.072-1.586-.137-1.365 1.871-5.303 10.778-1.937 10.049-.552-.797 1.506-.076.142-.869 1.648z" fill="url(#r)"/><path d="m31.5 9.878c-1.941 1.545-6.602-4.202-5.598-7.878-3.322 4.537 1.664 10.722 4.381 10.184.66-.131.42-.8 1.217-2.306z" fill="url(#t)"/><path d="m27.209 17.9c-.01-1.617-6.775-4.511-9.631.399-.178.305.662-1.72.453-1.492 1.869-5.305 10.779-1.939 10.047-.555-.795 1.507-.076.143-.869 1.648z" fill="url(#u)"/><path d="m28.078 16.253c-1.982 1.396-6.928-3.308-6.063-6.92-3.703 4.949 2.367 9.947 4.846 9.226.645-.189.424-.8 1.217-2.306z" fill="url(#v)"/><path d="m18.396 16.014c-5.986 8.337 2.266 13.393.111 19.147 4.136-7.834-2.851-11.681-.111-19.147z" fill="url(#w)"/><path d="m27.957 28.04.52-2.529-1.981-1.655 2.565-.287.962-2.395 1.065 2.351 2.574.175-1.904 1.739.627 2.503-2.242-1.274z" fill="#e635de"/><path d="m57.719 25.979.32-1.557-1.219-1.018 1.578-.177.592-1.475.656 1.447 1.586.109-1.173 1.071.388 1.541-1.381-.784z" fill="#3cc3ec"/><path d="m35.057 8.673 1.162-1.428-.705-1.7 1.716.666 1.401-1.197-.104 1.839 1.571.96-1.78.471-.427 1.792-.998-1.547z" fill="#a6e639"/><path d="m38.779 41.516 1.164-1.427-.705-1.7 1.717.665 1.399-1.197-.104 1.839 1.572.961-1.781.471-.428 1.791-.996-1.547z" fill="#e81c27"/><path d="m34.918 35.706 1.508 2.74-2.205 2.203-1.055-2.856z" fill="#a6e639"/><path d="m23.082 29.462 1.508 2.74-2.203 2.205-1.057-2.857z" fill="#3cc3ec"/><path d="m51.395 28.899-1.827 1.986-2.406-1.197 2.045-1.648z" fill="#e81c27"/><path d="m15.611 6.738 2.303 2.337-1.596 2.853-1.88-2.583z" fill="#e635de"/><path d="m51.582 48.358-2.393 1.245-1.855-1.945 2.484-.853z" fill="#a6e639"/></svg>