<svg enable-background="new 0 0 64 64" height="64" viewBox="0 0 64 64" width="64" xmlns="http://www.w3.org/2000/svg" xmlns:xlink="http://www.w3.org/1999/xlink"><radialGradient id="a" cx="108.9844" cy="-116.6943" gradientTransform="matrix(1 0 0 -1 -56 -80)" gradientUnits="userSpaceOnUse" r="5.6212"><stop offset="0" stop-color="#fff"/><stop offset=".3139" stop-color="#f8f9f9"/><stop offset=".7733" stop-color="#e4e8ea"/><stop offset="1" stop-color="#d8dde0"/></radialGradient><linearGradient id="b"><stop offset="0" stop-color="#d8dde0"/><stop offset=".2267" stop-color="#e4e8ea"/><stop offset=".6861" stop-color="#f8f9f9"/><stop offset="1" stop-color="#fff"/></linearGradient><linearGradient id="c" gradientTransform="matrix(1 0 0 -1 -56 -80)" gradientUnits="userSpaceOnUse" x1="88.001" x2="88.001" xlink:href="#b" y1="-139" y2="-96.9258"/><radialGradient id="d" cx="87.6035" cy="-989.79" gradientTransform="matrix(1 0 0 -.29 -56 -265.9752)" gradientUnits="userSpaceOnUse" r="25.8028"><stop offset=".3818" stop-color="#d8dde0"/><stop offset=".668" stop-color="#e8ebec"/><stop offset="1" stop-color="#fff"/></radialGradient><linearGradient id="e" gradientTransform="matrix(1 0 0 -1 -56 -80)" gradientUnits="userSpaceOnUse" x1="88.001" x2="88.001" xlink:href="#b" y1="-121.8301" y2="-114.8301"/><path d="m10.021 49.289c2.795-1.728 13.389-5.289 13.389-5.289h17.27s10.584 3.553 13.359 5.285c7.479 4.651 7.961 12.715 7.961 12.715h-22.998s-6.502-2.832-14.004 0h-22.998s.527-8.084 8.021-12.711z" fill="#e81c27"/><path d="m24.998 50.861h14.004v11.139h-14.004z" fill="#fff"/><path d="m31.5 50.861h1v11.139h-1z" fill="#f2f5f7"/><path d="m49.49 22.674c-2.736.494-5.42 8.697-3.299 10.787 4.58 4.51 9.143-11.842 3.299-10.787z" fill="#755035"/><path d="m14.512 22.674c-5.848-1.055-1.281 15.297 3.297 10.787 2.121-2.09-.563-10.293-3.297-10.787z" fill="#755035"/><path d="m33.832 3.098s18.01 13.83 16.492 31.732l5.209-1c0-14.674-3.762-30.732-21.701-30.732z" fill="#c21413"/><path d="m49 38.662c-2.828-9.121 10.248-10.076 9.742-1.6 0 0-.332-.535-1.074-.668.666 3.516-1.527 5.766-1.527 5.766-.311-1.01-1.107-1.523-1.107-1.523-1.848 2.045-5.602 2.107-7.82-1.287 1.497-.299 1.786-.688 1.786-.688z" fill="url(#a)"/><path d="m32 3.5c-12.092 0-17.918 9.148-17.189 21.869.146 2.561 1.732 10.908 3.23 13.902 1.533 3.063 6.66 7.787 9.803 8.766 1.984.617 6.328.617 8.313 0 3.143-.979 8.271-5.703 9.803-8.766 1.5-2.994 3.086-11.342 3.23-13.902.73-12.721-5.096-21.869-17.19-21.869z" fill="#916b50"/><path d="m44.947 26.354c-1.615 4.23-8.189 3.609-9.396.65.916-4.756 8.508-5.162 9.396-.65z" fill="#fff"/><path d="m19.053 26.354c1.615 4.23 8.191 3.609 9.395.65-.915-4.758-8.505-5.164-9.395-.65z" fill="#fff"/><path d="m45.617 22.068c-2.766-1.951-8.057-2.047-10.029-.689-.422.266-.145 2.115.213 1.939 2.748-1.447 7.18-1.48 9.752.125.342.207.484-1.101.064-1.375z" fill="#e6ebef"/><path d="m18.383 22.068c2.766-1.951 8.057-2.047 10.029-.689.422.266.145 2.115-.211 1.939-2.752-1.447-7.18-1.48-9.752.125-.344.207-.484-1.101-.066-1.375z" fill="#e6ebef"/><path d="m48.525 16.928c.342 11.857-.951 18.572-6.27 22.092h-20.511c-5.406-3.578-6.678-10.164-6.277-22.092h-1.344c.307 12.639-.023 23.068.881 26.104 3.238 10.835 16.996 15.968 16.996 15.968s13.758-5.133 16.994-15.969c.906-3.035.576-13.467.885-26.105h-1.354z" fill="url(#c)"/><path d="m37.23 25.902c0 3.713 5.369 3.713 5.369 0 .001-3.445-5.369-3.445-5.369 0z" fill="#613f34"/><path d="m37.762 27.092c0 2.127 4.307 2.127 4.307 0-.001-1.977-4.307-1.977-4.307 0z" fill="#7d5037"/><path d="m38.801 25.961c0 1.541 2.229 1.541 2.229 0-.001-1.43-2.229-1.43-2.229 0z" fill="#1a1626"/><path d="m38.041 25.512c0 .777 1.125.777 1.125 0 0-.723-1.125-.723-1.125 0z" fill="#ab968c"/><path d="m21.402 25.902c0 3.713 5.369 3.713 5.369 0 0-3.445-5.369-3.445-5.369 0z" fill="#613f34"/><path d="m21.932 27.09c0 2.129 4.309 2.129 4.309 0-.001-1.977-4.309-1.977-4.309 0z" fill="#7d5037"/><path d="m22.973 25.961c0 1.541 2.229 1.541 2.229 0-.001-1.43-2.229-1.43-2.229 0z" fill="#1a1626"/><path d="m22.211 25.51c0 .779 1.125.779 1.125 0 0-.721-1.125-.721-1.125 0z" fill="#ab968c"/><path d="m44.947 26.322c0-4.543-9.396-4.543-9.396.719 1.344-4.316 8.054-4.316 9.396-.719z" fill="#755035"/><path d="m19.053 26.322c0-4.543 9.395-4.543 9.395.717-1.343-4.316-8.053-4.316-9.395-.717z" fill="#755035"/><path d="m32 2c-9.824 0-17.785 5.15-17.785 16.115h35.57c0-10.965-7.961-16.115-17.785-16.115z" fill="#e81c27"/><path d="m32.197 10.748c-1.643-.416 1.145-.998 1.162-.973-13.777.373-19.002 4.25-20.51 6.293-1.43 1.938-1.229 4.949 2.117 6.408-.092-1.273.293-1.279.279-1.285 2.303 1.141 5.428.355 9.736-1.877.006-.004.135.285-.504.967 6.592-.094 7.564-1.822 14.674-1.57-.002 0-.852.533-1.322.998 3.145.754 6.99 1.949 10.488.148-.01.004.713.869 1.129 2.389 10.271-8.562-13.653-11.275-17.249-11.498z" fill="url(#d)"/><path d="m24.574 37.598c2.424 6.311 12.424 6.367 14.855 0z" fill="#45332c"/><path d="m32 34.83c-8.814-.002-13.381 4.107-12.854 5.063 1.977 3.617 11.428 1.422 12.855-.561 1.43 1.984 10.875 4.176 12.854.561.528-.955-4.039-5.063-12.855-5.063z" fill="url(#e)"/><path d="m35.75 33.633c0 2.441-7.498 2.441-7.498 0 0-.559 7.498-.559 7.498 0z" fill="#755035"/></svg>