<svg enable-background="new 0 0 64 64" height="64" viewBox="0 0 64 64" width="64" xmlns="http://www.w3.org/2000/svg"><path d="m4.499 31v19c0 6.631 12.313 12 27.5 12 15.188 0 27.499-5.369 27.499-12v-19z" fill="#594640"/><path d="m4.001 30.346v6.469c0 3.793 3.686 8.521 9.445 6.098 6.113-2.568 8.324 5.48 15.441 5.48 7.626 0 15.38-7.533 22.698-4.773 5.297 2 8.414-3.24 8.414-6.805v-6.469z" fill="#f7e3c6"/><path d="m3.999 30.346c0 12.469 55.999 12.469 55.999 0 0-12.461-55.999-12.461-55.999 0z" fill="#ffeed6"/><path d="m58.961 33.061c0-.738-6.707 5.705-26.962 5.559-20.256.146-26.961-6.297-26.961-5.559 0 .574 6.111 7.939 26.961 7.939 20.849 0 26.962-7.281 26.962-7.939z" fill="#fff4e6"/><path d="m33.499 35.786c0 .681-3 .681-3 0 0-.685 3-.685 3 0z" fill="#89cc14"/><path d="m15.189 33.103c0 .681-3 .681-3 0 0-.686 3-.686 3 0z" fill="#fc8da8"/><path d="m51.81 32.38c0 .681-3 .681-3 0 0-.686 3-.686 3 0z" fill="#ffe12c"/><path d="m22.642 35.586c0 .681-3 .681-3 0 0-.686 3-.686 3 0z" fill="#48c2f9"/><path d="m43.291 34.762c0 .681-3 .681-3 0 0-.686 3-.686 3 0z" fill="#f80"/><path d="m10.077 29.991c0 .681-3 .681-3 0 0-.685 3-.685 3 0z" fill="#ffe12c"/><path d="m36.242 28.638c0 .681-3 .681-3 0 0-.686 3-.686 3 0z" fill="#ffe12c"/><path d="m57.801 28.751c0 .681-3 .681-3 0 0-.687 3-.687 3 0z" fill="#ff4638"/><path d="m16.471 28.969c0 .679-3 .679-3 0 0-.427 3-.427 3 0z" fill="#89cc14"/><path d="m28.317 27.535c0 .551-2.436.551-2.436 0 .001-.347 2.436-.347 2.436 0z" fill="#48c2f9"/><path d="m49.701 24.149c0 .553-2.434.553-2.434 0 .001-.344 2.434-.344 2.434 0z" fill="#f80"/><path d="m28.882 31.769c0 .682-3 .682-3 0 0-.425 3-.425 3 0z" fill="#f80"/><path d="m14.564 25.918c0 .679-3 .679-3 0 0-.471 3-.471 3 0z" fill="#f80"/><path d="m52.012 28.231c0 .682-3 .682-3 0 0-.467 3-.467 3 0z" fill="#48c2f9"/><path d="m27.1 23.614c0 .551-2.436.551-2.436 0 0-.346 2.436-.346 2.436 0z" fill="#ff4638"/><path d="m39.338 23.613c0 .553-2.436.553-2.436 0 0-.344 2.436-.344 2.436 0z" fill="#fc8da8"/><path d="m37.742 32.282c0 .681-3 .681-3 0 0-.425 3-.425 3 0z" fill="#fc8da8"/><path d="m20.839 18.524c-3.082-.016-2.221.703-2.316 12.624h4.633c-.109-11.92.566-12.638-2.317-12.624z" fill="#0fb4d4"/><path d="m23.378 19.066c.997 1.798-.951.542-1.248 1.59-.73 2.572-1.813-1.931-2.684 1.441-1.434 5.565-1.424-2.077-1.131-3.214.304-1.173 3.884-1.939 5.063.183z" fill="#75d6ff"/><path d="m20.8 17.934c-5.168-3.45.855-5.648-.265-8.791 0 0 6.205 3.938.265 8.791z" fill="#ea8800"/><path d="m20.8 17.934s-2.253-2.154.378-5.658c0-.001 1.773 3.108-.378 5.658z" fill="#ffe12c"/><path d="m43.084 18.524c3.003-.016 2.171.703 2.255 12.624h-4.513c.088-11.92-.552-12.638 2.258-12.624z" fill="#0fb4d4"/><path d="m40.611 19.066c-.973 1.798.38 5.22.478 4.132.495-5.468 2.013-.327 2.332-3.404.153-1.472 3.167 3.256 2.119-.91-.294-1.174-3.78-1.94-4.929.182z" fill="#75d6ff"/><path d="m42.813 17.934c-5.031-3.45.836-5.648-.256-8.791 0 0 6.045 3.938.256 8.791z" fill="#ea8800"/><path d="m42.813 17.934s-2.194-2.154.368-5.658c0-.001 1.728 3.108-.368 5.658z" fill="#ffe12c"/><path d="m31.844 12.217c-3.063-.016-2.218-.271-2.302 12.711h4.604c-.087-12.982.564-12.727-2.302-12.711z" fill="#0fb4d4"/><path d="m34.366 12.807c.991 1.958-.449 4.438-.646 3.269-.646-3.858-2.583-.838-2.809-1.944-.391-1.914-2.186 4.308-1.575-1.522.138-1.316 3.859-2.114 5.03.197z" fill="#75d6ff"/><path d="m31.805 11.573c-5.135-3.757.851-6.15-.262-9.573 0 0 6.166 4.289.262 9.573z" fill="#ea8800"/><path d="m31.805 11.573s-2.24-2.346.375-6.161c0 0 1.763 3.385-.375 6.161z" fill="#ffe12c"/><g fill="#f7e3c6"><path d="m39.422 31.38c1.625-.247 5.828 1.722 6.906-.669-1.341.934-5.469-1.044-6.906.669z"/><path d="m28.317 25.177c1.625-.247 5.828 1.722 6.906-.669-1.34.933-5.468-1.044-6.906.669z"/><path d="m24.362 31.38c-1.625-.247-5.828 1.722-6.906-.669 1.341.934 5.469-1.044 6.906.669z"/></g></svg>