<svg enable-background="new 0 0 64 64" height="64" viewBox="0 0 64 64" width="64" xmlns="http://www.w3.org/2000/svg" xmlns:xlink="http://www.w3.org/1999/xlink"><linearGradient id="a"><stop offset="0" stop-color="#9e003e"/><stop offset=".0736" stop-color="#b00749"/><stop offset=".2142" stop-color="#cc125b"/><stop offset=".3661" stop-color="#e21b69"/><stop offset=".5324" stop-color="#f12172"/><stop offset=".7243" stop-color="#fa2578"/><stop offset="1" stop-color="#fd267a"/></linearGradient><linearGradient id="b" gradientUnits="userSpaceOnUse" x1="33.1455" x2="11.1625" xlink:href="#a" y1="20.811" y2="52.9282"/><linearGradient id="c" gradientTransform="matrix(-1 0 0 1 -.54 0)" gradientUnits="userSpaceOnUse" x1="-31.395" x2="-53.3784" y1="20.8105" y2="52.9283"><stop offset="0" stop-color="#590023"/><stop offset=".0417" stop-color="#6d052d"/><stop offset=".1351" stop-color="#930d42"/><stop offset=".2357" stop-color="#b41553"/><stop offset=".3432" stop-color="#cf1b61"/><stop offset=".4601" stop-color="#e3206c"/><stop offset=".5914" stop-color="#f22374"/><stop offset=".7485" stop-color="#fa2579"/><stop offset="1" stop-color="#fd267a"/></linearGradient><linearGradient id="d" gradientUnits="userSpaceOnUse" x1="2" x2="28.7622" y1="21.4253" y2="21.4253"><stop offset="0" stop-color="#fd267a"/><stop offset=".2757" stop-color="#fa2578"/><stop offset=".4676" stop-color="#f12172"/><stop offset=".6339" stop-color="#e21b69"/><stop offset=".7858" stop-color="#cc125b"/><stop offset=".9264" stop-color="#b00749"/><stop offset="1" stop-color="#9e003e"/></linearGradient><linearGradient id="e"><stop offset="0" stop-color="#a80042"/><stop offset=".2012" stop-color="#a40040"/><stop offset=".4098" stop-color="#97003b"/><stop offset=".6217" stop-color="#830033"/><stop offset=".8345" stop-color="#660028"/><stop offset="1" stop-color="#4a001d"/></linearGradient><linearGradient id="f" gradientUnits="userSpaceOnUse" x1="15.9517" x2="15.9517" xlink:href="#e" y1="38" y2="25.7007"/><linearGradient id="g" gradientUnits="userSpaceOnUse" x1="35.2373" x2="62" xlink:href="#a" y1="21.4253" y2="21.4253"/><linearGradient id="h" gradientUnits="userSpaceOnUse" x1="48.0479" x2="48.0479" xlink:href="#e" y1="38" y2="25.7007"/><linearGradient id="i" gradientUnits="userSpaceOnUse" x1="32.0005" x2="32.0005" y1="28.4478" y2="13.3926"><stop offset="0" stop-color="#cc0050"/><stop offset=".2692" stop-color="#ef4184"/><stop offset=".4121" stop-color="#ff5e9c"/><stop offset=".5302" stop-color="#fe4a90"/><stop offset=".6855" stop-color="#fe3684"/><stop offset=".8419" stop-color="#fd2a7c"/><stop offset="1" stop-color="#fd267a"/></linearGradient><path d="m33.189 18.95c-.333 13.497-11.571 24.456-12.3 39.05-3.492-6.568-6.271-12.74-6.271-12.74s-8.523 2.28-12.618 5.775c4.095-18.178 20.118-21.385 22.999-32.441 2.481-1.294 8.048-.145 8.19.356z" fill="url(#b)"/><path d="m30.81 18.95c.333 13.497 11.571 24.456 12.301 39.05 3.492-6.568 6.27-12.74 6.27-12.74s8.524 2.28 12.619 5.775c-4.095-18.178-20.119-21.385-23-32.441-2.48-1.294-8.048-.145-8.19.356z" fill="url(#c)"/><path d="m28.256 14.935c-2.69.099-13.403-12.761-21.65-7.793-4.483 2.701-6.417 17.134-2.475 28.081 2.319 6.439 15.161-8.366 23.825-7.438 1.618.173.3-12.85.3-12.85z" fill="url(#d)"/><path d="m4.248 35.401c2.516 7.901 16.702-4.439 23.708-7.616-12.504-5.06-26.223-.285-23.708 7.616z" fill="url(#f)"/><path d="m35.744 14.935c2.689.099 13.403-12.761 21.649-7.793 4.483 2.702 6.417 17.134 2.476 28.081-2.32 6.439-15.16-8.367-23.826-7.438-1.617.173-.299-12.85-.299-12.85z" fill="url(#g)"/><path d="m59.752 35.401c-2.516 7.901-16.703-4.439-23.709-7.616 12.505-5.06 26.224-.285 23.709 7.616z" fill="url(#h)"/><path d="m36.445 28.006c-.847 1.021-2.58-.17-4.334-.148-1.826.023-3.675 1.213-4.557.148-1.835-2.216-1.668-11.61 0-14.104.799-1.192 2.674.081 4.532.101 1.8.018 3.585-1.256 4.358-.101 1.669 2.494 1.836 11.888.001 14.104z" fill="url(#i)"/></svg>