<svg enable-background="new 0 0 64 64" height="64" viewBox="0 0 64 64" width="64" xmlns="http://www.w3.org/2000/svg" xmlns:xlink="http://www.w3.org/1999/xlink"><linearGradient id="a"><stop offset="0" stop-color="#83b52d"/><stop offset=".2551" stop-color="#72a127"/><stop offset=".7765" stop-color="#466c17"/><stop offset="1" stop-color="#325410"/></linearGradient><radialGradient id="b" cx="32" cy="41.1943" gradientTransform="matrix(1 0 0 .9867 0 6.233)" gradientUnits="userSpaceOnUse" r="21.9536" xlink:href="#a"/><linearGradient id="c"><stop offset="0" stop-color="#92c932"/><stop offset=".2313" stop-color="#8ec531"/><stop offset=".4674" stop-color="#83b92c"/><stop offset=".7058" stop-color="#6fa425"/><stop offset=".9444" stop-color="#54881c"/><stop offset="1" stop-color="#4d8019"/></linearGradient><radialGradient id="d" cx="32" cy="32.8154" gradientTransform="matrix(1 0 0 .9867 0 6.233)" gradientUnits="userSpaceOnUse" r="22.4386" xlink:href="#c"/><radialGradient id="e" cx="32" cy="28.9043" gradientTransform="matrix(1 0 0 .9867 0 6.233)" gradientUnits="userSpaceOnUse" r="18.1185" xlink:href="#a"/><radialGradient id="f" cx="32" cy="23.1641" gradientTransform="matrix(1 0 0 .9867 0 6.233)" gradientUnits="userSpaceOnUse" r="18.1965" xlink:href="#c"/><radialGradient id="g" cx="32.4683" cy="20.2305" gradientTransform="matrix(1 0 0 .9867 0 6.233)" gradientUnits="userSpaceOnUse" r="14.4444" xlink:href="#a"/><radialGradient id="h" cx="32.4678" cy="15.5635" gradientTransform="matrix(1 0 0 .9867 0 6.233)" gradientUnits="userSpaceOnUse" r="13.9057" xlink:href="#c"/><radialGradient id="i" cx="32" cy="12.4688" gradientTransform="matrix(1 0 0 .9867 0 6.233)" gradientUnits="userSpaceOnUse" r="9.9737" xlink:href="#a"/><radialGradient id="j" cx="32" cy="8.4033" gradientTransform="matrix(1 0 0 .9867 0 6.233)" gradientUnits="userSpaceOnUse" r="9.2255" xlink:href="#c"/><linearGradient id="k"><stop offset="0" stop-color="#f00"/><stop offset="1" stop-color="#d40100"/></linearGradient><radialGradient id="l" cx="38.2109" cy="23.251" gradientUnits="userSpaceOnUse" r="3" xlink:href="#k"/><radialGradient id="m" cx="29.9082" cy="46.2324" gradientUnits="userSpaceOnUse" r="2.0005" xlink:href="#k"/><linearGradient id="n"><stop offset="0" stop-color="#00a4d6"/><stop offset="1" stop-color="#0061a6"/></linearGradient><radialGradient id="o" cx="47.2314" cy="43.5518" gradientUnits="userSpaceOnUse" r="3" xlink:href="#n"/><radialGradient id="p" cx="16.624" cy="34.5859" gradientUnits="userSpaceOnUse" r="2" xlink:href="#n"/><linearGradient id="q"><stop offset="0" stop-color="#ffec45"/><stop offset="1" stop-color="#f9c802"/></linearGradient><radialGradient id="r" cx="17.0732" cy="47.0303" gradientUnits="userSpaceOnUse" r="3" xlink:href="#q"/><radialGradient id="s" cx="44.7891" cy="32.1377" gradientUnits="userSpaceOnUse" r="2.0001" xlink:href="#q"/><radialGradient id="t" cx="36.6123" cy="53.1553" gradientUnits="userSpaceOnUse" r="2.4995"><stop offset="0" stop-color="#f90"/><stop offset="1" stop-color="#eb7d00"/></radialGradient><radialGradient id="u" cx="28.2979" cy="32.9482" gradientUnits="userSpaceOnUse" r="3"><stop offset="0" stop-color="#ff70ab"/><stop offset="1" stop-color="#ff3672"/></radialGradient><linearGradient id="v"><stop offset="0" stop-color="#d414cf"/><stop offset="1" stop-color="#7d0c7a"/></linearGradient><radialGradient id="w" cx="23.2139" cy="22.3164" gradientUnits="userSpaceOnUse" r="2.5002" xlink:href="#v"/><radialGradient id="x" cx="46.2666" cy="50.8574" gradientUnits="userSpaceOnUse" r="2.0143" xlink:href="#v"/><linearGradient id="y" gradientUnits="userSpaceOnUse" x1="32.3032" x2="32.3032" y1="15.353" y2="2"><stop offset="0" stop-color="#ffb700"/><stop offset="1" stop-color="#ffd500"/></linearGradient><path d="m59 58.58s-11.338-3.352-26.934-26.632c-1.539-2.3-7.41 16.412-27.066 26.632 0 0 5.826 1.37 15.976-1.075 1.049-.253-1.661 3.324-1.661 3.324s7.365-2.868 10.059-2.696c2.291.144 7.993 3.867 7.993 3.867s1.891-4.692 2.799-4.305c3.311 1.42 9.113 2.621 9.113 2.621s-3.953-3.276-2.885-3.276c1.07 0 12.606 1.54 12.606 1.54z" fill="url(#b)"/><path d="m59 51.712s-11.338-3.692-26.934-29.338c-1.539-2.534-7.41 18.082-27.066 29.338 0 0 5.826 1.511 15.976-1.184 1.049-.279-1.661 3.661-1.661 3.661s7.365-3.156 10.059-2.969c2.292.162 7.717 3.84 7.717 3.84s.92-4.646 1.827-4.218c3.312 1.566 10.362 2.784 10.362 2.784s-3.953-3.609-2.885-3.609c1.069.001 12.605 1.695 12.605 1.695z" fill="url(#d)"/><path d="m10.908 44.899s8.975-3.062 21.158-24.327c1.203-2.101 5.67 14.993 21.025 24.327 0 0-4.152 1.36-12.08-.873-.819-.232.213 3.286.213 3.286s-4.951-2.978-7.054-2.821c-1.791.133-6.562 4.615-6.562 4.615s-2.014-5.378-2.724-5.023c-2.586 1.297-6.383 2.402-6.383 2.402s3.088-2.99 2.253-2.99-9.846 1.404-9.846 1.404z" fill="url(#e)"/><path d="m10.908 39.047s8.975-3.062 21.158-24.329c1.203-2.099 5.67 14.997 21.025 24.329 0 0-4.553 1.253-12.48-.98-.819-.233 1.298 3.035 1.298 3.035s-4.538-2.424-6.641-2.267c-1.792.133-6.952 4.799-6.952 4.799s-1.011-5.664-1.719-5.308c-2.587 1.299-8.095 2.307-8.095 2.307s3.088-2.99 2.253-2.99-9.847 1.404-9.847 1.404z" fill="url(#f)"/><path d="m50.154 33.388s-7.871-2.16-18.088-17.155c-1.009-1.479-4.409 10.574-17.284 17.155 0 0 3.816.882 10.464-.692.688-.165-1.088 2.142-1.088 2.142s5.139-1.679 6.902-1.569c1.501.095 5.223 3.011 5.223 3.011s.783-3.401 1.379-3.151c2.169.914 6.124 1.378 6.124 1.378s-2.589-2.108-1.89-2.108c.702-.003 8.258.989 8.258.989z" fill="url(#g)"/><path d="m49.383 28.971s-7.545-2.16-17.316-17.154c-.964-1.482-4.199 10.573-16.514 17.154 0 0 3.65.881 10.008-.693.658-.162-1.364 3.208-1.364 3.208s5.446-2.732 7.133-2.623c1.437.095 3.944 2.623 3.944 2.623s.959-3.274 1.527-3.021c2.075.913 6.492 1.624 6.492 1.624s-2.477-2.109-1.807-2.109 7.897.991 7.897.991z" fill="url(#h)"/><path d="m20.223 23.817s5.041-1.618 11.844-12.848c.672-1.105 3.137 7.921 11.711 12.848 0 0-1.151.509-5.578-.67-.457-.122-.666 1.753-.666 1.753s-2.115-1.836-3.291-1.753c-1 .069-3.91 3.046-3.91 3.046s-.953-2.944-1.35-2.759c-1.444.688-4.803 2.17-4.803 2.17s2.008-2.528 1.541-2.528-5.498.741-5.498.741z" fill="url(#i)"/><path d="m21.186 20.261s4.634-1.615 10.881-12.845c.617-1.107 2.875 7.917 10.748 12.845 0 0-1.088.327-5.152-.853-.42-.121-.58 1.939-.58 1.939s-2.444-1.658-3.522-1.577c-.919.073-2.745 1.954-2.745 1.954s-1.223-2.031-1.584-1.846c-1.328.686-4.151 1.22-4.151 1.22s1.583-1.58 1.155-1.58-5.05.743-5.05.743z" fill="url(#j)"/><path d="m36.211 24.418c0 4 6 4 6 0s-6-4-6 0z" fill="url(#l)"/><path d="m28.449 46.857c0 2.668 4 2.668 4 0 0-2.666-4-2.666-4 0z" fill="url(#m)"/><path d="m44.857 44.51c0 4 6 4 6 0s-6-4-6 0z" fill="url(#o)"/><path d="m15.249 35.336c0 2.666 4 2.666 4 0s-4-2.666-4 0z" fill="url(#p)"/><path d="m14.907 48.197c0 4 6 4 6 0s-6-4-6 0z" fill="url(#r)"/><path d="m43.289 32.887c0 2.668 4 2.668 4 0 0-2.666-4-2.666-4 0z" fill="url(#s)"/><path d="m34.82 54.197c0 3.332 5 3.332 5 0 0-3.334-5-3.334-5 0z" fill="url(#t)"/><path d="m25.964 34.115c0 4 6 4 6 0s-6-4-6 0z" fill="url(#u)"/><path d="m21.464 23.357c0 3.334 5 3.334 5 0s-5-3.334-5 0z" fill="url(#w)"/><path d="m44.857 51.696c0 2.687 4.027 2.687 4.027 0 .001-2.685-4.027-2.685-4.027 0z" fill="url(#x)"/><g fill="#fff"><path d="m40.711 41.51c-.313 3.473-.945 4.099-3.605 4.465 2.66.364 3.293.99 3.605 4.464.312-3.474.944-4.1 3.606-4.464-2.662-.367-3.295-.993-3.606-4.465z"/><path d="m32 15.326c-.313 3.473-.945 4.099-3.605 4.465 2.66.364 3.293.99 3.605 4.464.312-3.474.944-4.1 3.606-4.464-2.662-.366-3.294-.992-3.606-4.465z"/><path d="m37.105 30.236c-.178 1.736-.54 2.049-2.061 2.232 1.521.182 1.883.494 2.061 2.231.178-1.737.54-2.05 2.06-2.231-1.519-.183-1.882-.495-2.06-2.232z"/><path d="m25.964 52.437c-.178 1.736-.54 2.049-2.061 2.232 1.521.182 1.883.494 2.061 2.231.178-1.737.54-2.05 2.06-2.231-1.52-.184-1.882-.496-2.06-2.232z"/><path d="m23.247 38.046c-.18 1.737-.541 2.049-2.062 2.231 1.521.184 1.882.497 2.062 2.232.178-1.735.538-2.049 2.06-2.232-1.522-.182-1.882-.494-2.06-2.231z"/></g><path d="m32.008 2.375c.162-.5.43-.5.59 0l1.48 4.555 4.742-.003c.551 0 .645.261.207.579l-3.852 2.799 1.479 4.549c.164.501-.063.65-.5.332l-3.852-2.793-3.85 2.793c-.439.318-.664.169-.502-.332l1.48-4.549-3.85-2.799c-.438-.318-.346-.579.205-.579l4.744.003z" fill="url(#y)"/></svg>