<svg enable-background="new 0 0 64 64" height="64" viewBox="0 0 64 64" width="64" xmlns="http://www.w3.org/2000/svg" xmlns:xlink="http://www.w3.org/1999/xlink"><linearGradient id="a" gradientUnits="userSpaceOnUse" x1="32.2295" x2="62" y1="40.1348" y2="40.1348"><stop offset=".103" stop-color="#018bc9"/><stop offset=".1602" stop-color="#007bbb"/><stop offset=".2266" stop-color="#0070b1"/><stop offset=".303" stop-color="#006dae"/></linearGradient><radialGradient id="b" cx="44.7236" cy="25.4111" gradientTransform="matrix(1.08 0 0 2.2548 -29.9394 -17.4068)" gradientUnits="userSpaceOnUse" r="12.823"><stop offset=".1636" stop-color="#014d87"/><stop offset=".2984" stop-color="#015c97"/><stop offset=".5734" stop-color="#0176b2"/><stop offset=".8163" stop-color="#0185c3"/><stop offset="1" stop-color="#018bc9"/></radialGradient><linearGradient id="c" gradientUnits="userSpaceOnUse" x1="19.02" x2="19.02" y1="62" y2="33.1406"><stop offset="0" stop-color="#006dae"/><stop offset=".0199" stop-color="#006faf"/><stop offset=".2891" stop-color="#017fbe"/><stop offset=".5924" stop-color="#0188c6"/><stop offset="1" stop-color="#018bc9"/></linearGradient><linearGradient id="d" gradientUnits="userSpaceOnUse" x1="29.7754" x2="32.3804" y1="26.0054" y2="17.4848"><stop offset=".0303" stop-color="#018bc9"/><stop offset=".1533" stop-color="#007bbb"/><stop offset=".2962" stop-color="#0070b1"/><stop offset=".4606" stop-color="#006dae"/></linearGradient><linearGradient id="e" gradientUnits="userSpaceOnUse" x1="21.6338" x2="18.8399" y1="23.5308" y2="33.1625"><stop offset=".103" stop-color="#ffc42e"/><stop offset=".213" stop-color="#ffd43e"/><stop offset=".3585" stop-color="#ffe24d"/><stop offset=".4788" stop-color="#ffe752"/></linearGradient><linearGradient id="f" gradientTransform="matrix(-1 0 0 1 783.9473 0)" gradientUnits="userSpaceOnUse" x1="738.7393" x2="735.2039" y1="23.2144" y2="34.424"><stop offset=".103" stop-color="#ffc42e"/><stop offset=".1107" stop-color="#fec32c"/><stop offset=".2436" stop-color="#f2b314"/><stop offset=".3658" stop-color="#eba905"/><stop offset=".4667" stop-color="#e8a600"/></linearGradient><linearGradient id="g" gradientTransform="matrix(.9881 -.1536 .1536 .9881 71.7845 -8.6729)" gradientUnits="userSpaceOnUse" x1="-60.5283" x2="-44.5269" y1="16.8018" y2="16.8018"><stop offset="0" stop-color="#ffdb00"/><stop offset=".1263" stop-color="#fdcf00"/><stop offset=".4667" stop-color="#f9b401"/><stop offset=".769" stop-color="#f6a401"/><stop offset="1" stop-color="#f59e01"/></linearGradient><linearGradient id="h"><stop offset=".0121" stop-color="#db8d01"/><stop offset=".1938" stop-color="#d78901"/><stop offset=".3821" stop-color="#ca7d01"/><stop offset=".5734" stop-color="#b66901"/><stop offset=".7668" stop-color="#994c00"/><stop offset=".9601" stop-color="#742800"/><stop offset="1" stop-color="#6b2000"/></linearGradient><linearGradient id="i" gradientTransform="matrix(.9881 -.1536 .1536 .9881 71.7845 -8.6729)" gradientUnits="userSpaceOnUse" x1="-52.1763" x2="-52.1763" xlink:href="#h" y1="24.0127" y2="19.377"/><linearGradient id="j" gradientTransform="matrix(.9881 -.1536 .1536 .9881 71.7845 -8.6729)" gradientUnits="userSpaceOnUse" x1="-42.3218" x2="-26.3271" y1="16.8848" y2="16.8848"><stop offset="0" stop-color="#f59e01"/><stop offset=".231" stop-color="#f6a401"/><stop offset=".5333" stop-color="#f9b401"/><stop offset=".8737" stop-color="#fdcf00"/><stop offset="1" stop-color="#ffdb00"/></linearGradient><linearGradient id="k" gradientTransform="matrix(.9881 -.1536 .1536 .9881 71.7845 -8.6729)" gradientUnits="userSpaceOnUse" x1="-34.6563" x2="-34.6563" xlink:href="#h" y1="24.0957" y2="19.4253"/><linearGradient id="l" gradientTransform="matrix(.9881 -.1536 .1536 .9881 71.7845 -8.6729)" gradientUnits="userSpaceOnUse" x1="-43.4272" x2="-43.4272" y1="20.436" y2="14.7407"><stop offset="0" stop-color="#f59e01"/><stop offset=".528" stop-color="#fbc419"/><stop offset="1" stop-color="#ffe12c"/></linearGradient><path d="m34.729 27.475c-5.623 7.82 0 34.525 0 34.525 4.39 0 24.825-9.732 25.667-10.535 1.146-1.094 2.363-31.599 1.004-32.958-1.969-1.967-26.671 8.968-26.671 8.968z" fill="url(#a)"/><path d="m2.957 17.781c-1.511 1.44-1.181 31.372.62 33.088l31.152 11.131v-34.525z" fill="url(#b)"/><path d="m10.41 31.283s-8.682 17.36-6.802 19.155c2.199 2.096 26.676 9.525 30.364 9.525l-7.439-23.762z" fill="#1a1626" opacity=".1"/><path d="m10.41 33.141s-8.714 15.934-6.833 17.729c2.197 2.095 27.464 11.13 31.152 11.13l-8.195-23.939z" fill="url(#c)"/><path d="m3.694 19.496s4.881 18.797 6.665 20.479c.764.723 14.35 5.193 15.396 4.365 1.707-1.355 7.922-15.028 7.922-15.028z" fill="#1a1626" opacity=".1"/><path d="m2.957 17.781s6.29 20.206 7.402 21.264c.759.727 14.47 5.4 15.113 4.787.802-.766 9.256-16.357 9.256-16.357z" fill="#018bc9"/><path d="m2.957 17.781s28.549 9.694 31.771 9.694c2.045 0 26.671-8.968 26.671-8.968-2.7-2.575-27.368-8.481-31.419-8.481-2.551 0-25.2 6.016-27.023 7.755z" fill="url(#d)"/><path d="m22.87 24.287c.665-.651 9.308-6.59 9.308-6.59s11.696 6.051 12.418 6.76c1.422 1.394 11.545-4.181 11.545-4.181l-9.731-3.441 4.593-2.238-7.426-2.251-12.17 1.614-12.563-1.792-8.192 2.693 7.378 2.474-6.895 2.941c-.001 0 10.777 4.951 11.735 4.011z" fill="#ffc42e"/><path d="m22.87 24.287c-.617.605-1.462 13.28 0 34.422.046.654-10.882-3.33-10.938-3.975-1.607-18.377-.798-34.458-.798-34.458z" fill="url(#e)"/><path d="m44.596 24.457c.618.606 1.46 13.264 0 34.405-.047.654 10.699-4.143 10.755-4.787 1.608-18.375.79-33.798.79-33.798z" fill="url(#f)"/><path d="m29.832 13.356c-1.585.278-8.99-5.524-13.568-2.926-2.488 1.413-2.464 8.942.514 12.678 1.751 2.197 8.462-4.489 13.639-4.923.965-.081-.585-4.829-.585-4.829z" fill="url(#g)"/><path d="m16.857 23.165c1.955 2.726 9.607-3.162 13.559-4.979-7.691-.767-15.514 2.253-13.559 4.979z" fill="url(#i)"/><path d="m32.611 12.932c1.595-.205 6.854-7.937 12.021-6.822 2.808.604 5.117 7.786 3.438 12.231-.99 2.616-9.451-1.762-14.521-.634-.946.211-.938-4.775-.938-4.775z" fill="url(#j)"/><path d="m48.01 18.419c-1.02 3.178-10.134-.155-14.462-.712 7.093-3.016 15.48-2.466 14.462.712z" fill="url(#k)"/><path d="m33.879 17.742c-.297.437-1.104.104-1.845.224-.772.127-1.486.691-1.924.35-.909-.708-1.394-4.229-.834-5.269.267-.498 1.138-.144 1.927-.255.765-.11 1.445-.702 1.839-.319.856.823 1.485 4.322.837 5.269z" fill="url(#l)"/></svg>