<svg enable-background="new 0 0 64 64" height="64" viewBox="0 0 64 64" width="64" xmlns="http://www.w3.org/2000/svg" xmlns:xlink="http://www.w3.org/1999/xlink"><linearGradient id="a" gradientUnits="userSpaceOnUse" x1="2.0005" x2="62.0005" y1="62.001" y2="2.001"><stop offset=".4061" stop-color="#013366"/><stop offset="1" stop-color="#006dae"/></linearGradient><radialGradient id="b" cx="52.0889" cy="11.0269" gradientUnits="userSpaceOnUse" r="9.0001"><stop offset="0" stop-color="#ffe8bb"/><stop offset=".4945" stop-color="#ffe9bd"/><stop offset=".707" stop-color="#ffebc4"/><stop offset=".865" stop-color="#fff0d1"/><stop offset=".996" stop-color="#fff6e2"/><stop offset="1" stop-color="#fff6e3"/></radialGradient><linearGradient id="c"><stop offset=".497" stop-color="#e6ebef"/><stop offset=".6703" stop-color="#e1e7eb"/><stop offset=".8747" stop-color="#d3dbe0"/><stop offset=".9152" stop-color="#cfd8dd"/></linearGradient><radialGradient id="d" cx="638.0859" cy="32.7813" gradientTransform="matrix(-1 0 0 1 684.6855 0)" gradientUnits="userSpaceOnUse" r="3.5889" xlink:href="#c"/><radialGradient id="e" cx="634.498" cy="38.5225" gradientTransform="matrix(-1 0 0 1 684.6855 0)" gradientUnits="userSpaceOnUse" r="3.5885" xlink:href="#c"/><radialGradient id="f" cx="641.6738" cy="38.5225" gradientTransform="matrix(-1 0 0 1 684.6855 0)" gradientUnits="userSpaceOnUse" r="3.5889" xlink:href="#c"/><radialGradient id="g" cx="645.2637" cy="44.2627" gradientTransform="matrix(-1 0 0 1 684.6855 0)" gradientUnits="userSpaceOnUse" r="3.5885" xlink:href="#c"/><radialGradient id="h" cx="638.1016" cy="44.2627" gradientTransform="matrix(-1 0 0 1 684.6855 0)" gradientUnits="userSpaceOnUse" r="3.5885" xlink:href="#c"/><radialGradient id="i" cx="630.9092" cy="44.2646" gradientTransform="matrix(-1 0 0 1 684.6855 0)" gradientUnits="userSpaceOnUse" r="3.5885" xlink:href="#c"/><linearGradient id="j"><stop offset="0" stop-color="#db9442"/><stop offset=".3947" stop-color="#cf843d"/><stop offset="1" stop-color="#b86432"/></linearGradient><linearGradient id="k" gradientUnits="userSpaceOnUse" x1="46.0244" x2="46.0244" xlink:href="#j" y1="62" y2="51.5449"/><linearGradient id="l" gradientUnits="userSpaceOnUse" x1="33.8232" x2="58.2256" xlink:href="#j" y1="49.3926" y2="49.3926"/><path d="m2 2h60v60h-60z" fill="url(#a)"/><circle cx="50" cy="14" fill="url(#b)" r="9"/><path d="m39.66 42.7c1.673-8.024 11.056-8.024 12.728 0 1.87 8.972-14.598 8.972-12.728 0z" fill="#cfd8dd"/><path d="m48.554 36.071c-3.395 3.361-8.297-1.709-5.026-4.943 3.462-3.425 8.266 1.741 5.026 4.943z" fill="url(#d)"/><path d="m52.143 41.813c-3.394 3.362-8.297-1.709-5.026-4.942 3.461-3.425 8.264 1.74 5.026 4.942z" fill="url(#e)"/><path d="m44.967 41.813c-3.397 3.362-8.297-1.709-5.027-4.942 3.461-3.425 8.264 1.74 5.027 4.942z" fill="url(#f)"/><path d="m41.377 47.554c-3.395 3.36-8.296-1.71-5.026-4.943 3.462-3.424 8.264 1.742 5.026 4.943z" fill="url(#g)"/><path d="m48.54 47.554c-3.396 3.36-8.297-1.71-5.028-4.943 3.463-3.424 8.266 1.742 5.028 4.943z" fill="url(#h)"/><path d="m55.732 47.554c-3.396 3.362-8.297-1.708-5.029-4.942 3.462-3.424 8.267 1.741 5.029 4.942z" fill="url(#i)"/><path d="m55.354 51.545v10.455h-18.659v-10.455z" fill="url(#k)"/><path d="m33.823 47.239h24.402v4.306h-24.402z" fill="url(#l)"/><path d="m44.588 55.541c0-2.228 2.871-2.228 2.871 0 .825.112 1.436.496 1.436 1.436 0 3.737-5.74 3.737-5.74 0-.001-.94.61-1.324 1.433-1.436z" fill="#1a1626"/><path d="m9.928 24.271s-6.267 17.728-4.971 37.729h-1.957c0-22.9 6.928-37.729 6.928-37.729z" fill="#7ab51d"/><path d="m21.286 53.103s-14.531-11.104-13.233 8.897h-1.96c0-22.9 15.193-8.897 15.193-8.897z" fill="#529320"/><path d="m9.971 46.298c-.134-.893-2.02.856-3.766 7.948.428-15.531 2.52-17.971 1.985-17.639-1.377.858-4.009 7.496-3.315 25.393h2.145c.343-14.327 3.176-14.216 2.951-15.702z" fill="#96c908"/><path d="m6.564 40.384c.972.523 3.385-1.913 2.066-1.973.188-1.205-2.227.824-2.066 1.973z" fill="#ffe12c"/><path d="m8.331 38.625c.971.521 3.385-1.914 2.065-1.974.189-1.205-2.227.825-2.065 1.974z" fill="#f9c802"/><path d="m8.972 36.625c1.084.102 2.491-3.117 1.244-2.652-.235-1.195-1.788 1.648-1.244 2.652z" fill="#f9c802"/><path d="m10.876 32.498c1.084.101 2.489-3.119 1.244-2.651-.236-1.196-1.784 1.646-1.244 2.651z" fill="#f9c802"/><path d="m13.938 28.864c1.021.399 3.163-2.314 1.845-2.213.061-1.22-2.123 1.092-1.845 2.213z" fill="#f9c802"/><path d="m19.848 25.472c1.021.4 3.158-2.314 1.844-2.213.057-1.219-2.126 1.092-1.844 2.213z" fill="#f9c802"/><path d="m12.787 30.7c.867.701 3.649-1.226 2.363-1.541.389-1.148-2.329.379-2.363 1.541z" fill="#f9c802"/><path d="m16.565 27.902c.868.702 3.648-1.224 2.361-1.539.388-1.149-2.326.378-2.361 1.539z" fill="#f9c802"/><path d="m25.322 24.374c.462 1.056 3.756.757 2.759-.168.845-.82-2.22-.841-2.759.168z" fill="#f9c802"/><path d="m22.973 24.61c.864.703 3.645-1.225 2.362-1.54.384-1.149-2.329.38-2.362 1.54z" fill="#f9c802"/><path d="m10.675 35.969c.974.521 3.382-1.914 2.067-1.974.187-1.205-2.229.824-2.067 1.974z" fill="#f9c802"/><path d="m10.247 34.553c.975.522 3.385-1.913 2.066-1.974.188-1.204-2.224.824-2.066 1.974z" fill="#ffea66"/><path d="m20.574 25.587c.707.89 3.812-.334 2.622-.945.611-1.029-2.349-.179-2.622.945z" fill="#ffea66"/><path d="m14.263 32.712c.974.521 3.384-1.914 2.067-1.974.186-1.205-2.227.824-2.067 1.974z" fill="#ffea66"/><path d="m17.439 31.492c.749.848 3.788-.559 2.569-1.097.559-1.063-2.354-.041-2.569 1.097z" fill="#ffea66"/><path d="m15.786 27.476c.972.523 3.382-1.913 2.064-1.973.189-1.205-2.223.825-2.064 1.973z" fill="#ffea66"/><path d="m10.292 37.635c.974.522 3.385-1.914 2.067-1.974.187-1.205-2.226.825-2.067 1.974z" fill="#ffea66"/><path d="m13.692 34.344c.972.521 3.383-1.914 2.065-1.973.188-1.207-2.224.824-2.065 1.973z" fill="#f9c802"/><path d="m16.872 31.095c.973.523 3.382-1.912 2.066-1.974.187-1.205-2.226.824-2.066 1.974z" fill="#f9c802"/><path d="m20.616 29.239c.794.796 3.751-.805 2.503-1.266.497-1.095-2.352.116-2.503 1.266z" fill="#f9c802"/><path d="m24.036 28.402c.514 1.03 3.79.54 2.746-.327.802-.867-2.256-.71-2.746.327z" fill="#ffea66"/><path d="m26.362 28.099c.513 1.03 3.79.539 2.747-.326.801-.868-2.259-.71-2.747.326z" fill="#ffe12c"/><path d="m9.236 37.301c.97.522 3.383-1.913 2.065-1.973.188-1.206-2.225.824-2.065 1.973z" fill="#ffe12c"/><path d="m11.45 32.712c.975.521 3.386-1.914 2.066-1.974.187-1.205-2.225.824-2.066 1.974z" fill="#ffe12c"/><path d="m14.461 29.291c.819.768 3.72-.939 2.46-1.353.462-1.117-2.348.2-2.46 1.353z" fill="#ffe12c"/><path d="m11.896 35.715c.829.755 3.707-.997 2.443-1.391.449-1.123-2.345.235-2.443 1.391z" fill="#ffe12c"/><path d="m15.334 32.812c.828.756 3.709-.997 2.443-1.391.447-1.123-2.343.234-2.443 1.391z" fill="#ffe12c"/><path d="m7.435 38.461c1.045.316 2.985-2.564 1.682-2.354-.029-1.222-2.042 1.259-1.682 2.354z" fill="#ffe12c"/><path d="m10.128 34.542c1.083-.104 1.947-3.535.798-2.846-.429-1.131-1.495 1.956-.798 2.846z" fill="#ffe12c"/><path d="m12.366 30.631c1.047.315 2.987-2.564 1.684-2.356-.029-1.222-2.042 1.26-1.684 2.356z" fill="#ffe12c"/><path d="m17.749 26.245c.938.587 3.488-1.678 2.178-1.828.259-1.191-2.269.671-2.178 1.828z" fill="#ffe12c"/><path d="m18.674 30.237c.94.586 3.489-1.679 2.182-1.828.257-1.189-2.271.672-2.182 1.828z" fill="#ffe12c"/><path d="m18.789 26.32c.663.928 3.822-.126 2.664-.799.658-.995-2.337-.307-2.664.799z" fill="#ffe12c"/><path d="m19.675 30.259c.661.928 3.82-.125 2.663-.797.659-.996-2.338-.309-2.663.797z" fill="#ffe12c"/><path d="m23.213 25.148c.663.927 3.821-.127 2.661-.8.659-.995-2.338-.308-2.661.8z" fill="#ffe12c"/><path d="m22.105 28.876c.363 1.099 3.672 1.141 2.764.117.91-.728-2.139-1.064-2.764-.117z" fill="#ffe12c"/><path d="m25.038 27.362c.613.966 3.82.101 2.7-.641.708-.954-2.322-.444-2.7.641z" fill="#f9c802"/><path d="m21.338 24.486c.812.776 3.729-.896 2.473-1.323.473-1.113-2.35.171-2.473 1.323z" fill="#ffe12c"/><path d="m25.42 23.75c.812.777 3.729-.896 2.477-1.324.47-1.112-2.352.173-2.477 1.324z" fill="#ffe12c"/><path d="m27.225 23.586c.428 1.075 3.732.896 2.765-.065.867-.79-2.197-.921-2.765.065z" fill="#ffe12c"/><path d="m12.537 34.117c1.046.315 2.987-2.563 1.682-2.356-.028-1.222-2.038 1.26-1.682 2.356z" fill="#ffe12c"/><path d="m15.822 31.699c1.046.316 2.986-2.563 1.681-2.356-.028-1.221-2.04 1.261-1.681 2.356z" fill="#ffe12c"/><path d="m22.729 28.288c.813.777 3.73-.898 2.474-1.323.472-1.112-2.352.169-2.474 1.323z" fill="#ffe12c"/><path d="m9.022 48.433c.967.534 3.402-1.875 2.085-1.95.2-1.203-2.235.8-2.085 1.95z" fill="#f9c802"/><path d="m9.687 46.409c1.082.113 2.522-3.089 1.271-2.639-.229-1.196-1.805 1.627-1.271 2.639z" fill="#f9c802"/><path d="m11.63 42.303c1.082.113 2.521-3.09 1.271-2.639-.227-1.196-1.804 1.628-1.271 2.639z" fill="#f9c802"/><path d="m14.729 38.704c1.019.411 3.181-2.28 1.866-2.194.071-1.219-2.134 1.068-1.866 2.194z" fill="#f9c802"/><path d="m20.669 35.377c1.017.411 3.18-2.278 1.864-2.193.071-1.218-2.134 1.067-1.864 2.193z" fill="#f9c802"/><path d="m13.559 40.524c.861.711 3.66-1.183 2.378-1.512.398-1.146-2.333.353-2.378 1.512z" fill="#f9c802"/><path d="m17.363 37.771c.858.713 3.66-1.185 2.377-1.513.397-1.146-2.332.352-2.377 1.513z" fill="#f9c802"/><path d="m26.154 34.339c.447 1.064 3.748.801 2.76-.137.852-.807-2.211-.865-2.76.137z" fill="#f9c802"/><path d="m23.801 34.55c.859.714 3.661-1.183 2.377-1.512.397-1.146-2.331.353-2.377 1.512z" fill="#f9c802"/><path d="m11.394 45.771c.97.532 3.403-1.876 2.087-1.949.198-1.206-2.234.798-2.087 1.949z" fill="#f9c802"/><path d="m10.982 44.35c.968.533 3.4-1.874 2.085-1.949.201-1.203-2.233.799-2.085 1.949z" fill="#ffea66"/><path d="m21.395 35.5c.697.899 3.813-.291 2.631-.913.621-1.024-2.349-.208-2.631.913z" fill="#ffea66"/><path d="m15.013 42.553c.969.534 3.402-1.874 2.089-1.949.198-1.204-2.236.799-2.089 1.949z" fill="#ffea66"/><path d="m18.204 41.37c.738.854 3.793-.515 2.577-1.068.569-1.057-2.353-.069-2.577 1.068z" fill="#ffea66"/><path d="m16.586 37.337c.969.531 3.401-1.876 2.087-1.951.2-1.203-2.235.799-2.087 1.951z" fill="#ffea66"/><path d="m10.996 47.433c.968.533 3.402-1.875 2.088-1.95.197-1.203-2.235.799-2.088 1.95z" fill="#ffea66"/><path d="m14.429 44.18c.966.532 3.399-1.876 2.085-1.95.198-1.204-2.235.797-2.085 1.95z" fill="#f9c802"/><path d="m17.638 40.967c.968.534 3.403-1.875 2.088-1.949.198-1.205-2.237.798-2.088 1.949z" fill="#f9c802"/><path d="m21.402 39.152c.786.805 3.758-.763 2.514-1.236.508-1.091-2.355.088-2.514 1.236z" fill="#f9c802"/><path d="m24.83 38.355c.502 1.034 3.783.58 2.749-.297.808-.858-2.253-.735-2.749.297z" fill="#ffea66"/><path d="m27.158 38.078c.501 1.036 3.78.581 2.749-.296.81-.859-2.253-.737-2.749.296z" fill="#ffe12c"/><path d="m9.941 47.086c.969.534 3.403-1.875 2.086-1.949.199-1.203-2.234.799-2.086 1.949z" fill="#ffe12c"/><path d="m12.201 42.521c.969.533 3.402-1.875 2.087-1.949.198-1.202-2.234.799-2.087 1.949z" fill="#ffe12c"/><path d="m15.245 39.135c.813.777 3.729-.896 2.474-1.324.472-1.111-2.351.171-2.474 1.324z" fill="#ffe12c"/><path d="m12.619 45.531c.82.765 3.718-.956 2.454-1.364.459-1.117-2.344.208-2.454 1.364z" fill="#ffe12c"/><path d="m16.085 42.667c.82.764 3.716-.955 2.455-1.364.459-1.116-2.346.209-2.455 1.364z" fill="#ffe12c"/><path d="m8.319 48.01c1.041.327 3.008-2.53 1.704-2.336-.015-1.224-2.052 1.237-1.704 2.336z" fill="#ffe12c"/><path d="m10.861 44.338c1.082-.092 1.98-3.515.824-2.837-.416-1.136-1.511 1.94-.824 2.837z" fill="#ffe12c"/><path d="m13.138 40.451c1.044.328 3.013-2.528 1.706-2.337-.018-1.221-2.054 1.239-1.706 2.337z" fill="#ffe12c"/><path d="m18.562 36.126c.933.598 3.506-1.638 2.196-1.803.271-1.188-2.276.646-2.196 1.803z" fill="#ffe12c"/><path d="m19.45 40.128c.932.599 3.504-1.639 2.197-1.803.269-1.185-2.278.647-2.197 1.803z" fill="#ffe12c"/><path d="m19.604 36.214c.65.935 3.823-.083 2.672-.769.666-.989-2.337-.335-2.672.769z" fill="#ffe12c"/><path d="m20.451 40.164c.651.934 3.822-.083 2.668-.77.669-.989-2.334-.334-2.668.77z" fill="#ffe12c"/><path d="m24.036 35.091c.652.935 3.822-.084 2.671-.771.671-.987-2.335-.333-2.671.771z" fill="#ffe12c"/><path d="m22.895 38.806c.352 1.104 3.66 1.181 2.762.146.917-.717-2.129-1.088-2.762-.146z" fill="#ffe12c"/><path d="m25.84 37.326c.603.972 3.822.143 2.706-.61.72-.947-2.317-.472-2.706.61z" fill="#f9c802"/><path d="m22.166 34.408c.807.786 3.738-.854 2.488-1.296.482-1.106-2.349.146-2.488 1.296z" fill="#ffe12c"/><path d="m26.257 33.718c.804.786 3.739-.854 2.487-1.295.483-1.108-2.349.143-2.487 1.295z" fill="#ffe12c"/><path d="m28.066 33.573c.412 1.079 3.717.937 2.761-.035.878-.78-2.182-.944-2.761.035z" fill="#ffe12c"/><path d="m13.274 43.94c1.044.326 3.011-2.531 1.705-2.339-.015-1.221-2.051 1.241-1.705 2.339z" fill="#ffe12c"/><path d="m16.583 41.56c1.043.328 3.01-2.532 1.704-2.338-.015-1.222-2.054 1.238-1.704 2.338z" fill="#ffe12c"/><path d="m23.522 38.227c.803.784 3.736-.858 2.485-1.297.485-1.107-2.35.143-2.485 1.297z" fill="#ffe12c"/><g fill="#fff"><path d="m28.268 57.431c.877 0 .875-1.315 0-1.315-.877-.001-.877 1.315 0 1.315z" opacity=".7"/><path d="m22.664 14.175c.879 0 .879-1.313 0-1.313s-.877 1.315 0 1.313z" opacity=".7"/><path d="m5.622 24.262c.877-.001.877-1.314 0-1.316-.879.001-.879 1.315 0 1.316z" opacity=".7"/><path d="m58.227 6.047c.877 0 .877-1.315.002-1.315-.881-.001-.881 1.315-.002 1.315z" opacity=".7"/><path d="m51.373 31.17c.875.001.877-1.314 0-1.314-.879-.001-.879 1.315 0 1.314z" opacity=".7"/><path d="m36.48 26.719c.584-.001.582-.877 0-.877-.584 0-.584.877 0 .877z" opacity=".7"/><path d="m10.586 3.854c.584 0 .586-.876-.002-.876-.584 0-.584.876.002.876z" opacity=".7"/><path d="m21.348 9.498c.586-.001.586-.878 0-.879-.588 0-.586.878 0 .879z" opacity=".7"/><path d="m16.609 20.142c.586 0 .584-.878 0-.879-.584.001-.584.879 0 .879z" opacity=".7"/><path d="m59.779 33.953c.584-.002.582-.877 0-.877-.586 0-.586.877 0 .877z" opacity=".7"/><path d="m34.068 34.246c.877 0 .877-1.315 0-1.316-.879 0-.879 1.316 0 1.316z" opacity=".7"/><path d="m4.307 13.342c.875 0 .875-1.315-.002-1.315s-.877 1.315.002 1.315z" opacity=".7"/><path d="m32.752 18.563c.584.002.584-.874 0-.875-.586 0-.586.875 0 .875z" opacity=".7"/><path d="m36.922 4.731c.582.001.582-.875 0-.877-.588.002-.588.878 0 .877z" opacity=".7"/><path d="m11.686 12.466c.584-.001.584-.878 0-.879-.586.001-.586.879 0 .879z" opacity=".7"/><path d="m25.421 49.304c.584 0 .584-.878 0-.879-.586.001-.586.877 0 .879z" opacity=".7"/><path d="m31.002 9.937c.611-.001.609-.877 0-.877-.615 0-.615.876 0 .877z" opacity=".7"/><path d="m37.141 38.343c.584 0 .586-.877 0-.877s-.586.879 0 .877z" opacity=".7"/></g></svg>