<svg enable-background="new 0 0 64 64" height="64" viewBox="0 0 64 64" width="64" xmlns="http://www.w3.org/2000/svg" xmlns:xlink="http://www.w3.org/1999/xlink"><linearGradient id="a" gradientUnits="userSpaceOnUse" x1="16.9902" x2="46.5918" y1="9.4102" y2="9.4102"><stop offset="0" stop-color="#faa303"/><stop offset="1" stop-color="#fa8003"/></linearGradient><linearGradient id="b" gradientUnits="userSpaceOnUse" x1="12" x2="48.123" y1="32.0498" y2="32.0498"><stop offset="0" stop-color="#ffc800"/><stop offset="1" stop-color="#ffd900"/></linearGradient><path d="m32.102 2c-.004 0-.016 0-.016 0s-12.637 0-14.711 4.904c-.816 1.93-.117 7.615.127 9.383 1.701-3.199 7.453-5.553 14.289-5.553 7.209 0 13.213 2.617 14.531 6.086h.27v-9.72c0-2.377-6.279-5.1-14.49-5.1z" fill="url(#a)"/><path d="m34.117 2.055s17.883-.922 17.883 16.664c0 17.588-31.225 43.186-31.225 43.186l-4.896-11.139s54.157-44.411 18.238-48.711z" fill="#ffc800"/><path d="m29.756 2.107s-17.756-.879-17.756 16.707c0 17.588 31.225 43.186 31.225 43.186l4.898-11.139s-54.285-44.455-18.367-48.754z" fill="url(#b)"/></svg>