<svg enable-background="new 0 0 64 64" height="64" viewBox="0 0 64 64" width="64" xmlns="http://www.w3.org/2000/svg"><path d="m62 19.25c-2.143 0-4.285-2.125-4.285-4.25h-51.429c0 2.125-2.143 4.25-4.286 4.25v25.5c2.143 0 4.286 2.125 4.286 4.25h51.429c0-2.125 2.143-4.25 4.285-4.25 0-1.174 0-24.325 0-25.5z" fill="#ff7d9a"/><g fill="#85184c"><path d="m20.93 21.342 1.511 9.232h-2.701l-.143-1.66h-.943l-.159 1.66h-2.733l1.348-9.232zm-1.402 5.936c-.134-1.046-.268-2.337-.402-3.878-.27 1.769-.439 3.062-.508 3.878z"/><path d="m22.889 21.342h1.978c1.276 0 2.141.053 2.59.16.45.107.791.281 1.025.523.234.244.381.516.439.814.059.297.088.884.088 1.758v3.234c0 .828-.041 1.383-.127 1.662s-.236.498-.45.655-.478.268-.791.331-.787.094-1.418.094h-3.333v-9.231zm2.643 1.58v6.072c.381 0 .615-.068.703-.207s.132-.517.132-1.132v-3.587c0-.418-.015-.686-.044-.805-.029-.117-.096-.204-.201-.26-.104-.054-.301-.081-.59-.081z"/><path d="m38.15 21.342v9.232h-2.31l-.002-6.232-.92 6.232h-1.639l-.969-6.09-.004 6.09h-2.311v-9.232h3.42c.102.556.205 1.209.314 1.964l.375 2.348.607-4.312z"/><path d="m41.854 21.342v9.232h-2.643v-9.232z"/><path d="m48.238 21.342v1.848h-1.568v7.385h-2.645v-7.385h-1.563v-1.848z"/><path d="m28.976 38.637c0 .93-.025 1.584-.073 1.971s-.198.738-.452 1.059c-.253.32-.594.564-1.025.736-.431.17-.933.256-1.506.256-.544 0-1.034-.082-1.467-.242-.433-.162-.781-.404-1.044-.727-.264-.324-.42-.676-.471-1.057-.05-.379-.075-1.045-.075-1.996v-1.578c0-.928.023-1.586.071-1.971.048-.387.199-.738.452-1.057.253-.32.597-.564 1.028-.736s.933-.256 1.506-.256c.544 0 1.032.08 1.465.24.433.162.782.406 1.046.729s.421.674.471 1.055.075 1.045.075 1.996v1.578zm-2.643-3.033c0-.43-.027-.703-.08-.822-.052-.121-.159-.182-.322-.182-.138 0-.245.049-.318.146-.073.096-.108.383-.108.857v4.311c0 .537.023.867.071.994.048.125.161.188.337.188.18 0 .295-.072.345-.217s.076-.488.076-1.033v-4.242z"/><path d="m35.863 33.23v9.234h-2.316l-1.375-4.197v4.197h-2.209v-9.234h2.209l1.483 4.158v-4.158z"/><path d="m36.924 33.23h4.406v1.85h-1.764v1.75h1.652v1.756h-1.652v2.031h1.939v1.848h-4.582v-9.235z"/></g><path d="m53.43 17.125h-42.859c-2.356 0-4.286 1.911-4.286 4.25v21.25c0 2.338 1.929 4.25 4.286 4.25h42.859c2.355 0 4.285-1.912 4.285-4.25v-21.25c0-2.339-1.93-4.25-4.285-4.25zm-2.68 1.063v27.625h-37.5v-27.625zm-43.393 24.437v-21.25c0-1.758 1.442-3.188 3.214-3.188h1.607v27.625h-1.607c-1.772.001-3.214-1.429-3.214-3.187zm49.286 0c0 1.758-1.441 3.188-3.213 3.188h-1.607v-27.625h1.607c1.771 0 3.213 1.43 3.213 3.188z" fill="#b0356f"/></svg>