<svg enable-background="new 0 0 64 64" height="64" viewBox="0 0 64 64" width="64" xmlns="http://www.w3.org/2000/svg" xmlns:xlink="http://www.w3.org/1999/xlink"><linearGradient id="a" gradientUnits="userSpaceOnUse" x1="30" x2="34" y1="32.1245" y2="32.1245"><stop offset=".4061" stop-color="#fad103"/><stop offset=".5732" stop-color="#facf06"/><stop offset=".715" stop-color="#f8c911"/><stop offset=".8475" stop-color="#f6be22"/><stop offset=".9737" stop-color="#f3af3b"/><stop offset="1" stop-color="#f2ab41"/></linearGradient><linearGradient id="b"><stop offset=".3333" stop-color="#eef2f5"/><stop offset=".647" stop-color="#e4e8ea"/><stop offset="1" stop-color="#d4d7d9"/></linearGradient><radialGradient id="c" cx="40" cy="14" gradientTransform="matrix(-.00000004 -1 3 -.00000013 -2 54)" gradientUnits="userSpaceOnUse" r="8.6023" xlink:href="#b"/><radialGradient id="d" cx="24" cy="14" gradientTransform="matrix(-.00000004 -1 3 -.00000013 -18 38)" gradientUnits="userSpaceOnUse" r="8.6023" xlink:href="#b"/><radialGradient id="e" cx="32" cy="14" gradientTransform="matrix(-.00000004 -1 3 -.00000013 -10 46)" gradientUnits="userSpaceOnUse" r="9.4868"><stop offset="0" stop-color="#ff000e"/><stop offset=".7283" stop-color="#dd0004"/><stop offset="1" stop-color="#cf0000"/></radialGradient><linearGradient id="f"><stop offset="0" stop-color="#2289c7"/><stop offset=".2635" stop-color="#1c7fbb"/><stop offset=".7381" stop-color="#0b669b"/><stop offset="1" stop-color="#005687"/></linearGradient><radialGradient id="g" cx="19" cy="14" gradientTransform="matrix(-.00000004 -1 3 -.00000013 -23 33)" gradientUnits="userSpaceOnUse" r="8.7464" xlink:href="#f"/><radialGradient id="h" cx="-32.6328" cy="14" gradientTransform="matrix(.00000004 -1 -3 -.00000013 87 -18.6328)" gradientUnits="userSpaceOnUse" r="8.7464" xlink:href="#f"/><linearGradient id="i" gradientUnits="userSpaceOnUse" x1="32.0005" x2="32.0005" y1="28" y2="26"><stop offset="0" stop-color="#4a2f24"/><stop offset=".201" stop-color="#5f4034"/><stop offset=".5134" stop-color="#7b5748"/><stop offset=".79" stop-color="#8b6454"/><stop offset="1" stop-color="#916958"/></linearGradient><radialGradient id="j" cx="44.3555" cy="45.5273" gradientTransform="matrix(.8081 -.8081 4.0406 4.0406 -187.8018 -100.1121)" gradientUnits="userSpaceOnUse" r="12.2495"><stop offset=".1636" stop-color="#fad103"/><stop offset=".3241" stop-color="#f9cd09"/><stop offset=".5373" stop-color="#f7c31a"/><stop offset=".7793" stop-color="#f4b235"/><stop offset=".8667" stop-color="#f2ab41"/></radialGradient><radialGradient id="k" cx="44.3555" cy="45.5273" gradientTransform="matrix(.8081 .8081 -1.6162 1.6162 69.7398 -61.4264)" gradientUnits="userSpaceOnUse" r="10.5"><stop offset=".1636" stop-color="#fad103"/><stop offset=".3546" stop-color="#f9cd09"/><stop offset=".6082" stop-color="#f7c31a"/><stop offset=".896" stop-color="#f4b235"/><stop offset="1" stop-color="#f2ab41"/></radialGradient><path d="m32 30c-4 0-4-2-4-2h-2s0 4 6 4 6-4 6-4h-2s0 2-4 2z" fill="#f9b700"/><path d="m34 36h-4v-5.908c0-2.457 4-2.457 4 0z" fill="url(#a)"/><path d="m38 2h4v24h-4z" fill="url(#c)"/><path d="m22 2h4v24h-4z" fill="url(#d)"/><path d="m26 2h12v24h-12z" fill="url(#e)"/><path d="m16 4v12c0 1.101.54 2.721 1.2 3.601l4.8 6.399v-24h-4c-1.1 0-2 .9-2 2z" fill="url(#g)"/><path d="m48 4v12c0 1.101-.54 2.721-1.2 3.601l-4.8 6.399v-24h4c1.101 0 2 .9 2 2z" fill="url(#h)"/><path d="m22 26h20v2h-20z" fill="url(#i)"/><ellipse cx="32" cy="48" fill="url(#j)" rx="14" ry="14"/><path d="m32 36.001c6.633 0 12 5.375 12 12s-5.367 12-12 12c-6.629 0-12-5.375-12-12s5.371-12 12-12z" fill="url(#k)"/><path d="m30.457 45.786-1.547-2.241-6.909 1.058 5.002 1.709z" fill="#ffe12c"/><path d="m33.543 45.786 1.547-2.241-3.088-6.583v5.537z" fill="#f59e01"/><path d="m34.5 48.872 2.499.855 5-5.124-5.002 1.709z" fill="#ea8800"/><path d="m32.002 50.777v2.77l6.178 3.415-3.092-4.473z" fill="#f9b700"/><path d="m29.501 48.872-2.5.855-1.181 7.235 3.092-4.473z" fill="#feec9a"/><path d="m32.002 42.499v-5.537l-3.092 6.583 1.547 2.241z" fill="#feec9a"/><path d="m36.997 46.312 5.002-1.709-6.909-1.058-1.547 2.241z" fill="#ffe12c"/><path d="m34.5 48.872.588 3.617 3.092 4.473-1.181-7.235z" fill="#f59e01"/><path d="m28.912 52.489-3.092 4.473 6.182-3.415v-2.77z" fill="#f59e01"/><path d="m27.003 46.312-5.002-1.709 5 5.124 2.5-.855z" fill="#f9b700"/><g fill="#302c3b"><path d="m46 2h-28c-.735 0-1.373.406-1.721 1h31.441c-.347-.594-.986-1-1.72-1z" opacity=".15"/><path d="m16 4h32v1h-32z" opacity=".15"/><path d="m16 6h32v1h-32z" opacity=".15"/><path d="m16 8h32v1h-32z" opacity=".15"/><path d="m16 10h32v1h-32z" opacity=".15"/><path d="m16 12h32v1h-32z" opacity=".15"/><path d="m16 14h32v1h-32z" opacity=".15"/><path d="m16.116 17h31.767c.073-.354.117-.697.117-1h-32c0 .303.044.646.116 1z" opacity=".15"/><path d="m16.83 19h30.338c.164-.307.312-.646.436-1h-31.208c.124.354.271.693.434 1z" opacity=".15"/><path d="m18.25 21h27.499l.75-1h-28.999z" opacity=".15"/><path d="m19.75 23h24.5l.749-1h-25.999z" opacity=".15"/><path d="m21.25 25h21.5l.75-1h-23z" opacity=".15"/></g></svg>