<svg enable-background="new 0 0 64 64" height="64" viewBox="0 0 64 64" width="64" xmlns="http://www.w3.org/2000/svg" xmlns:xlink="http://www.w3.org/1999/xlink"><linearGradient id="a"><stop offset="0" stop-color="#ecf1f5"/><stop offset=".3963" stop-color="#e9eef2"/><stop offset=".7218" stop-color="#dfe5ea"/><stop offset="1" stop-color="#cfd8dd"/></linearGradient><linearGradient id="b" gradientUnits="userSpaceOnUse" x1="37.5684" x2="37.5684" xlink:href="#a" y1="62" y2="46.9902"/><linearGradient id="c"><stop offset="0" stop-color="#b3c2c6"/><stop offset=".2131" stop-color="#aebdc1"/><stop offset=".4787" stop-color="#a0adb2"/><stop offset=".771" stop-color="#889499"/><stop offset="1" stop-color="#717b80"/></linearGradient><linearGradient id="d" gradientUnits="userSpaceOnUse" x1="35.2822" x2="35.2822" xlink:href="#c" y1="62" y2="54.3535"/><linearGradient id="e" gradientUnits="userSpaceOnUse" x1="32.7168" x2="32.7168" xlink:href="#c" y1="57.6445" y2="46.9902"/><radialGradient id="f" cx="42.5029" cy="20.7612" gradientTransform="matrix(.9662 -.2576 .5626 2.1102 -10.2465 -12.099)" gradientUnits="userSpaceOnUse" r="21.2674"><stop offset=".3697" stop-color="#b3c2c6"/><stop offset=".504" stop-color="#aebdc1"/><stop offset=".6714" stop-color="#a0adb2"/><stop offset=".8557" stop-color="#889499"/><stop offset="1" stop-color="#717b80"/></radialGradient><linearGradient id="g" gradientUnits="userSpaceOnUse" x1="28.7876" x2="50.8135" xlink:href="#a" y1="24.6563" y2="24.6563"/><radialGradient id="h" cx="15.2285" cy="28.8994" gradientTransform="matrix(.9727 -.2319 .5734 2.4054 -16.156 -37.0832)" gradientUnits="userSpaceOnUse" r="11.2751" xlink:href="#c"/><path d="m41.339 56.49c-1.916 0-1.916-4.414 0-4.414s1.916 4.414 0 4.414z" fill="#6e8189"/><path d="m42.083 54.631c.025-2.361-.617-6.738-.617-6.738l-6.684-.902-1.729 15.009h7.398s-.107-2.064-.213-4.229c.987-.257 1.827-1.521 1.845-3.14z" fill="url(#b)"/><path d="m38.155 51.145c.768 0 1.837.992 1.924 3.141.023.59.057 1.32.093 2.094.247-.547.443-1.303.443-2.35 0-.926-.714-3.641-.714-3.641l-2.534-.15.186.906z" fill="#6e8189"/><path d="m38.055 62h-5.545l.727-4.566c1.733.736 4.817.963 4.817-3.08v7.646z" fill="url(#d)"/><path d="m29.327 49.035s1.896 4.996 2.774 6.949c1.419 3.158 3.973 1.344 4.005-1.564.025-2.361-1.324-7.43-1.324-7.43z" fill="url(#e)"/><path d="m33.409 57.178c-2.527 0-2.527-5.787 0-5.787s2.527 5.787 0 5.787z" fill="#e6ebef"/><path d="m32.858 56.91c-1.916 0-1.916-5.254 0-5.254 1.915 0 1.915 5.254 0 5.254z" fill="#99a8ae"/><path d="m20.315 4.942c23.515-8.76 26.664 4.831 26.664 4.831l-1.625.553 4.188 23.607 2.043.543s5.195 15.213-21.117 15.213c-11.126-6.978-21.64-36.46-10.153-44.747z" fill="url(#f)"/><path d="m28.858 8.288c-1.241-3.881 14.27-8.836 16.94 1.283l-.519 2.657 1.971.005.542 3.085-.842-.056.07 2.744 1.125.021.626 2.939-.808-.054.226 2.624.999.098.521 2.877-.732-.108.19 2.921 1.084.021.563 2.521-.859-.094.419 3.228c2.902 13.521-13.952 11.967-14.378 7.658-.85-8.615-3.662-23.501-7.138-34.37z" fill="url(#g)"/><path d="m20.315 4.942s-10.388 6.11-7.942 14.842l.527-.469.88 2.424-.754.699.629 2.871.599-.596.818 2.236-.943.728.761 2.878.691-.547.742 2.318-.742.747.669 2.719.639-.568.747 2.273-.917.766.719 2.705.739-.605.705 2.324-.804.861s.539 6.141 12.879 6.141c-4.96-3.512-5.718-6.189-6.444-8.777-1.872-6.682-5.231-18.648-7.458-26.733-1.548-5.616 3.26-9.237 3.26-9.237z" fill="url(#h)"/><g fill="#302c3b"><path d="m36.093 48.477c6.008-2.699 5.654-3.232 5.543-7.564-.078-3.043-2.12-1.166-2.26.4s.138 2.652-.35 3.832c-.908 2.199-3.566 3.615-2.933 3.332z"/><path d="m40.306 47.582c3.332-.871 4.631-2.805 4.52-7.137-.078-3.043-1.816-1.732-1.677.1.119 1.568.173 2.887-.315 4.066-.908 2.2-3.202 3.149-2.528 2.971z"/><path d="m43.694 46.949c3.61-2.139 4.52-3.049 4.029-6.805-.393-3.021-1.641-1.766-1.501.068.119 1.566.068 2.943-.384 3.98-.455 1.052-2.737 3.109-2.144 2.757z"/><path d="m46.663 45.75c2.821-2.072 3.636-2.781 3.366-6.104-.245-3.037-1.431-1.906-1.291-.072.119 1.566.104 2.523-.232 3.436-.327.89-2.396 3.146-1.843 2.74z"/><path d="m28.422 3.829c2.392 0 3.642 1.041 4.591 2.792 1.128 2.083-.985 2.14-1.775.579-1.306-2.583-3.514-3.371-2.816-3.371z"/><path d="m32.334 3.013c1.646 0 3.248 1.322 4.197 3.074 1.129 2.082-1.093 2.186-1.774.579-1.261-2.97-3.121-3.653-2.423-3.653z"/><path d="m35.644 3.013c1.438 0 2.885 1.456 3.713 2.986.986 1.818-1.036 1.938-1.549.506-1.121-3.135-2.774-3.492-2.164-3.492z"/><path d="m38.532 3.118c.77 0 2.673 1.442 3.42 2.82.888 1.638-.956 1.753-1.395.455-.934-2.756-2.575-3.275-2.025-3.275z"/><path d="m15.66 17.054c-.686.307-2.269 1.791-2.76 2.262l.735 2.934c.592-.465 2.677-2.095 3.516-2.624 1.021-.647.427-3.431-1.491-2.572z"/><path d="m16.895 22.54c-.627.281-2.026 1.584-2.642 2.174l.706 2.818c.684-.501 2.625-1.914 3.428-2.421 1.023-.645.427-3.428-1.492-2.571z"/><path d="m18.118 27.954c-.598.268-1.888 1.444-2.537 2.055l.698 2.785c.61-.428 2.512-1.752 3.329-2.27 1.023-.646.427-3.427-1.49-2.57z"/><path d="m19.098 33.369c-.645.287-1.766 1.398-2.21 1.855l.704 2.811c.59-.43 2.201-1.594 2.996-2.098 1.024-.644.427-3.428-1.49-2.568z"/><path d="m20.464 38.51c-.672.301-1.88 1.455-2.288 1.854l.709 2.828c.535-.381 2.248-1.59 3.071-2.111 1.022-.645.425-3.431-1.492-2.571z"/><path d="m46.218 12.795s.256-1.675-.42-3.224c0 0-2.106-.26-5.443-.056.308 1.162.603 2.31.886 3.434 3.005-.239 4.977-.154 4.977-.154z"/><path d="m21.799 14.905c-2.546 1.43-1.686 4.83 1.048 3.247 5.387-3.123 11.577-4.441 16.232-4.991-.294-1.118-.607-2.271-.939-3.455-4.462.501-10.37 1.843-16.341 5.199z"/><path d="m23.283 20.663c-2.545 1.43-2.017 4.766.718 3.18 5.485-3.179 11.8-4.487 16.483-5.019-.255-1.093-.531-2.235-.827-3.416-4.402.5-10.317 1.85-16.374 5.255z"/><path d="m47.37 18.487s.256-1.676-.42-3.225c0 0-1.977-.24-5.147-.042.284 1.166.554 2.301.81 3.402 2.882-.216 4.757-.135 4.757-.135z"/><path d="m48.382 24.138s.259-1.675-.418-3.224c0 0-1.85-.279-4.86-.149.273 1.218.529 2.384.767 3.491 2.74-.194 4.511-.118 4.511-.118z"/><path d="m24.699 26.047c-2.546 1.431-2.42 5.033.314 3.447 5.566-3.227 11.988-4.526 16.69-5.042-.223-1.108-.47-2.288-.746-3.534-4.309.423-10.159 1.701-16.258 5.129z"/><path d="m49.396 29.628s.257-1.675-.419-3.224c0 0-1.773-.197-4.657-.02.251 1.213.478 2.335.676 3.347 2.681-.19 4.4-.103 4.4-.103z"/><path d="m25.485 31.939c-2.546 1.432-1.568 4.563 1.165 2.979 5.453-3.161 11.551-4.455 16.059-4.974-.166-1.008-.361-2.131-.593-3.365-4.389.5-10.409 1.863-16.631 5.36z"/><path d="m26.969 36.811c-2.555 1.41-1.673 4.563 1.061 2.979 5.281-3.062 11.058-4.236 15.416-4.659-.075-.667-.207-1.724-.415-3.134-4.453.47-10.435 1.706-16.062 4.814z"/><path d="m49.954 31.775s-1.771-.136-4.56.025c.266 1.413.457 2.483.573 3.152 2.689-.114 4.407.048 4.407.048s.257-1.674-.42-3.225z"/></g></svg>