<svg enable-background="new 0 0 64 64" height="64" viewBox="0 0 64 64" width="64" xmlns="http://www.w3.org/2000/svg" xmlns:xlink="http://www.w3.org/1999/xlink"><linearGradient id="a" gradientUnits="userSpaceOnUse" x1="32.0005" x2="32.0005" y1="62" y2="2.0005"><stop offset="0" stop-color="#93a1a8"/><stop offset=".2062" stop-color="#a8b4bb"/><stop offset=".4833" stop-color="#bec8ce"/><stop offset=".7519" stop-color="#cbd4d9"/><stop offset="1" stop-color="#cfd8dd"/></linearGradient><linearGradient id="b"><stop offset="0" stop-color="#cfd8dd"/><stop offset=".2384" stop-color="#dee4e8"/><stop offset=".71" stop-color="#f6f8f9"/><stop offset="1" stop-color="#fff"/></linearGradient><linearGradient id="c" gradientUnits="userSpaceOnUse" x1="45.998" x2="45.998" xlink:href="#b" y1="54.999" y2="36.999"/><linearGradient id="d" gradientUnits="userSpaceOnUse" x1="18.0005" x2="18.0005" xlink:href="#b" y1="54.999" y2="36.999"/><linearGradient id="e" gradientUnits="userSpaceOnUse" x1="18.0005" x2="18.0005" xlink:href="#b" y1="29.0005" y2="11.0005"/><linearGradient id="f" gradientUnits="userSpaceOnUse" x1="46" x2="46" xlink:href="#b" y1="29.0005" y2="11.0005"/><linearGradient id="g"><stop offset="0" stop-color="#1f1c26"/><stop offset=".2664" stop-color="#221f29"/><stop offset=".4857" stop-color="#2a2933"/><stop offset=".6882" stop-color="#383b44"/><stop offset=".8794" stop-color="#4b535b"/><stop offset="1" stop-color="#5b666e"/></linearGradient><linearGradient id="h" gradientUnits="userSpaceOnUse" x1="18.0005" x2="18.0005" xlink:href="#g" y1="27.75" y2="12.25"/><linearGradient id="i"><stop offset="0" stop-color="#302c3b"/><stop offset=".3779" stop-color="#454854"/><stop offset=".7557" stop-color="#555e67"/><stop offset="1" stop-color="#5b666e"/></linearGradient><linearGradient id="j" gradientUnits="userSpaceOnUse" x1="18.0005" x2="18.0005" xlink:href="#i" y1="27" y2="13"/><linearGradient id="k"><stop offset="0" stop-color="#cfd8dd"/><stop offset=".2163" stop-color="#eaeef0"/><stop offset=".4182" stop-color="#fff"/></linearGradient><linearGradient id="l" gradientUnits="userSpaceOnUse" x1="18.0005" x2="18.0005" xlink:href="#k" y1="11.9424" y2="19.9424"/><linearGradient id="m" gradientUnits="userSpaceOnUse" x1="45.999" x2="45.999" xlink:href="#g" y1="27.751" y2="12.25"/><linearGradient id="n" gradientUnits="userSpaceOnUse" x1="46" x2="46" xlink:href="#i" y1="27.0015" y2="12.999"/><linearGradient id="o" gradientUnits="userSpaceOnUse" x1="49.9697" x2="46.0379" xlink:href="#k" y1="13.0332" y2="20.0232"/><linearGradient id="p" gradientUnits="userSpaceOnUse" x1="45.999" x2="45.999" xlink:href="#g" y1="53.75" y2="38.25"/><linearGradient id="q" gradientUnits="userSpaceOnUse" x1="46" x2="46" xlink:href="#i" y1="53.001" y2="38.998"/><linearGradient id="r" gradientUnits="userSpaceOnUse" x1="39.0859" x2="46.0783" xlink:href="#k" y1="41.9688" y2="46.0892"/><linearGradient id="s" gradientUnits="userSpaceOnUse" x1="18.0005" x2="18.0005" xlink:href="#g" y1="53.75" y2="38.25"/><linearGradient id="t" gradientUnits="userSpaceOnUse" x1="18.0005" x2="18.0005" xlink:href="#i" y1="53" y2="39"/><linearGradient id="u" gradientUnits="userSpaceOnUse" x1="26.0005" x2="18.1193" xlink:href="#k" y1="46" y2="46"/><path d="m62 58c0 2.2-1.801 4-4 4h-52c-2.2 0-4-1.8-4-4v-52c0-2.2 1.8-4 4-4h52c2.199 0 4 1.8 4 4z" fill="url(#a)"/><path d="m60 57.5c0 1.375-1.125 2.5-2.5 2.5h-51c-1.375 0-2.5-1.125-2.5-2.5v-51c0-1.375 1.125-2.5 2.5-2.5h51c1.375 0 2.5 1.125 2.5 2.5z" fill="#e6ebef"/><circle cx="45.998" cy="45.999" fill="url(#c)" r="9"/><circle cx="18" cy="45.999" fill="url(#d)" r="9"/><circle cx="18" cy="20" fill="url(#e)" r="9"/><circle cx="46" cy="20" fill="url(#f)" r="9"/><circle cx="18" cy="20" fill="url(#h)" r="7.75"/><circle cx="18" cy="20" fill="url(#j)" r="7"/><path d="m19 19.5c0 .275-.225.5-.5.5h-1c-.275 0-.5-.225-.5-.5v-7c0-.275.225-.5.5-.5h1c.275 0 .5.225.5.5z" fill="url(#l)"/><circle cx="45.999" cy="20" fill="url(#m)" r="7.748"/><circle cx="46" cy="20" fill="url(#n)" r="7"/><path d="m47.115 20.067c-.139.238-.445.321-.684.183l-.867-.5c-.238-.138-.32-.445-.182-.683l3.5-6.062c.137-.238.443-.321.682-.183l.867.5c.238.138.32.445.184.683z" fill="url(#o)"/><circle cx="45.999" cy="46" fill="url(#p)" r="7.748"/><circle cx="46" cy="46" fill="url(#q)" r="7"/><path d="m46.066 44.885c.238.138.32.444.184.683l-.5.867c-.139.238-.445.32-.684.183l-6.063-3.5c-.238-.138-.32-.444-.182-.683l.5-.867c.137-.238.443-.32.682-.183z" fill="url(#r)"/><circle cx="18" cy="46" fill="url(#s)" r="7.75"/><circle cx="18" cy="46" fill="url(#t)" r="7"/><path d="m18.5 47c-.275 0-.5-.226-.5-.5v-1c0-.274.225-.5.5-.5h7c.275 0 .5.226.5.5v1c0 .274-.225.5-.5.5z" fill="url(#u)"/><path d="m54.66 25c.668-1.154 2.398-.154 1.732 1s-2.398.154-1.732-1z" fill="#6e8189"/><path d="m35.607 14c.666-1.154 2.398-.154 1.732 1-.667 1.154-2.398.154-1.732-1z" fill="#a6e639"/><path d="m40 9.607c1.154-.666 2.154 1.065 1 1.732s-2.154-1.065-1-1.732z" fill="#a6e639"/><path d="m46 8c1.332 0 1.332 2 0 2s-1.332-2 0-2z" fill="#a6e639"/><path d="m52 9.607c1.154.667.154 2.398-1 1.732s-.154-2.398 1-1.732z" fill="#a6e639"/><path d="m37.34 25c.666 1.154-1.066 2.154-1.732 1s1.064-2.154 1.732-1z" fill="#a6e639"/><path d="m56.393 14c.666 1.154-1.064 2.154-1.732 1-.667-1.154 1.066-2.154 1.732-1z" fill="#6e8189"/><path d="m36 20c0 1.333-2 1.333-2 0s2-1.333 2 0z" fill="#a6e639"/><path d="m58 20c0 1.333-2 1.333-2 0s2-1.333 2 0z" fill="#6e8189"/><path d="m54.66 51c.668-1.156 2.398-.156 1.732 1-.665 1.152-2.398.152-1.732-1z" fill="#6e8189"/><path d="m35.607 40c.666-1.156 2.398-.156 1.732 1-.667 1.152-2.398.152-1.732-1z" fill="#a6e639"/><path d="m40 35.607c1.154-.666 2.154 1.064 1 1.732-1.154.665-2.154-1.066-1-1.732z" fill="#6e8189"/><path d="m46 34c1.332 0 1.332 2 0 2s-1.332-2 0-2z" fill="#6e8189"/><path d="m52 35.607c1.154.666.154 2.396-1 1.732-1.154-.667-.154-2.398 1-1.732z" fill="#6e8189"/><path d="m37.34 51c.666 1.152-1.066 2.152-1.732 1-.667-1.156 1.064-2.156 1.732-1z" fill="#a6e639"/><path d="m56.393 40c.666 1.152-1.064 2.152-1.732 1-.667-1.156 1.066-2.156 1.732-1z" fill="#6e8189"/><path d="m36 46c0 1.332-2 1.332-2 0s2-1.332 2 0z" fill="#a6e639"/><path d="m58 46c0 1.332-2 1.332-2 0s2-1.332 2 0z" fill="#6e8189"/><path d="m26.661 51c.667-1.156 2.397-.156 1.731 1-.666 1.152-2.397.152-1.731-1z" fill="#6e8189"/><g fill="#a6e639"><path d="m7.608 40c.666-1.156 2.398-.156 1.732 1-.668 1.152-2.398.152-1.732-1z"/><path d="m12 35.607c1.154-.666 2.154 1.064 1 1.732-1.154.665-2.154-1.066-1-1.732z"/><path d="m18 34c1.332 0 1.332 2 0 2s-1.332-2 0-2z"/><path d="m24 35.607c1.154.666.154 2.396-1 1.732-1.154-.667-.154-2.398 1-1.732z"/><path d="m9.34 51c.666 1.152-1.066 2.152-1.732 1-.666-1.156 1.064-2.156 1.732-1z"/><path d="m28.392 40c.666 1.152-1.064 2.152-1.731 1-.666-1.156 1.065-2.156 1.731-1z"/><path d="m8 46c0 1.332-2 1.332-2 0s2-1.332 2 0z"/><path d="m30 46c0 1.332-2 1.332-2 0s2-1.332 2 0z"/></g><path d="m26.661 25c.665-1.154 2.397-.154 1.731 1-.668 1.154-2.397.154-1.731-1z" fill="#6e8189"/><path d="m7.608 14c.666-1.154 2.398-.154 1.732 1-.668 1.154-2.398.154-1.732-1z" fill="#a6e639"/><path d="m12 9.607c1.154-.666 2.154 1.065 1 1.732s-2.154-1.065-1-1.732z" fill="#a6e639"/><path d="m18 8c1.332 0 1.332 2 0 2-1.333 0-1.333-2 0-2z" fill="#a6e639"/><path d="m24 9.607c1.154.667.154 2.398-1 1.732s-.154-2.398 1-1.732z" fill="#6e8189"/><path d="m9.34 25c.666 1.154-1.066 2.154-1.732 1s1.064-2.154 1.732-1z" fill="#a6e639"/><path d="m28.392 14c.666 1.154-1.066 2.154-1.731 1-.666-1.154 1.063-2.154 1.731-1z" fill="#6e8189"/><path d="m8 20c0 1.333-2 1.333-2 0s2-1.333 2 0z" fill="#a6e639"/><path d="m30 20c0 1.333-2 1.333-2 0s2-1.333 2 0z" fill="#6e8189"/></svg>