<svg enable-background="new 0 0 64 64" height="64" viewBox="0 0 64 64" width="64" xmlns="http://www.w3.org/2000/svg"><path d="m60 17h-14.457c0 1.658-2.486 1.658-2.486 0h-39.057c-1.1 0-2 .899-2 2v26c0 1.1.9 2 2 2h39.057c0-1.658 2.486-1.658 2.486 0h14.457c1.1 0 2-.9 2-2v-26c0-1.101-.9-2-2-2zm-16.943 26.25c0-1.658 2.486-1.658 2.486 0s-2.486 1.658-2.486 0zm0-3.75c0-1.658 2.486-1.658 2.486 0s-2.486 1.658-2.486 0zm0-3.75c0-1.658 2.486-1.658 2.486 0s-2.486 1.658-2.486 0zm0-3.75c0-1.658 2.486-1.658 2.486 0s-2.486 1.658-2.486 0zm0-3.75c0-1.658 2.486-1.658 2.486 0s-2.486 1.658-2.486 0zm0-3.75c0-1.658 2.486-1.658 2.486 0s-2.486 1.658-2.486 0zm0-3.75c0-1.658 2.486-1.658 2.486 0s-2.486 1.658-2.486 0z" fill="#75d6ff"/><g fill="#018bc9"><path d="m59 20v24h-10.457v-24zm1-1h-12.457v26h12.457z"/><path d="m40.057 19.808v24h-35.057v-24zm1-1h-37.057v26h37.057z"/><path d="m7 22.856h8v2h-8z"/><path d="m7 26.856h6v2h-6z"/><path d="m7 30.857h4v2h-4z"/><path d="m7 34.857h8v2h-8z"/><path d="m7 38.759h6v2h-6z"/><path d="m52.09 36.517c-.346-.339-.52-.77-.52-1.293 0-.7.231-1.212.696-1.535.261-.18.522-.275.784-.288v.879c-.201.056-.354.128-.456.216-.183.155-.274.388-.274.695 0 .313.129.561.387.74.258.182.622.271 1.094.271s.825-.096 1.061-.285c.235-.191.353-.434.353-.729 0-.301-.102-.531-.302-.688-.109-.088-.271-.161-.489-.218v-.873c.46.075.832.268 1.119.576.287.311.431.707.431 1.191 0 .598-.194 1.068-.582 1.41-.39.343-.925.514-1.604.514-.735.001-1.301-.194-1.698-.583z"/><path d="m52.413 25.105v2.225h.893v-2.042h.73v2.042h1.082v-2.328h.756v3.187h-4.205v-3.084z"/><path d="m55.874 37.837v.873h-4.205v-.873z"/><path d="m51.669 32.636v-.865h1.732l-1.732-1.625v-1.135l1.729 1.725 2.476-1.813v1.13l-1.836 1.296.43.423h1.406v.865h-4.205z"/><path d="m51.669 39.593h.744v1.258h3.461v.885h-3.461v1.264h-.744z"/><path d="m51.669 21h.744v1.258h3.461v.885h-3.461v1.264h-.744z"/><path d="m27.528 24.308c4.136 0 7.5 3.365 7.5 7.5s-3.364 7.5-7.5 7.5-7.5-3.365-7.5-7.5 3.365-7.5 7.5-7.5zm0-2.5c-5.522 0-10 4.479-10 10 0 5.525 4.478 10 10 10s10-4.475 10-10c0-5.522-4.477-10-10-10z"/><path d="m29.529 32.81c-.337 0-.502-.164-.502-.5v-1.001c0-.335.165-.499.502-.499h3.248c.337 0 .502.164.502.499v.499c0 3.178-2.576 5.751-5.751 5.751-1.546 0-2.993-.614-4.065-1.683-.236-.24-.236-.473-.002-.709l1.063-1.061c.235-.237.469-.237.704 0 .609.605 1.426.952 2.3.952 1.445 0 2.671-.944 3.095-2.249h-1.094z"/></g></svg>