<svg enable-background="new 0 0 64 64" height="64" viewBox="0 0 64 64" width="64" xmlns="http://www.w3.org/2000/svg" xmlns:xlink="http://www.w3.org/1999/xlink"><radialGradient id="a" cx="29.7734" cy="30.8838" gradientTransform="matrix(1.0454 0 0 .9432 .8748 1.7539)" gradientUnits="userSpaceOnUse" r="29.3058"><stop offset=".5273" stop-color="#6e8189"/><stop offset=".7317" stop-color="#6c7f87"/><stop offset=".8375" stop-color="#66787f"/><stop offset=".9206" stop-color="#5b6b72"/><stop offset=".9917" stop-color="#4c5a5f"/><stop offset="1" stop-color="#4a575c"/></radialGradient><linearGradient id="b"><stop offset="0" stop-color="#6e8189"/><stop offset=".3552" stop-color="#6c7e86"/><stop offset=".6109" stop-color="#64767d"/><stop offset=".8348" stop-color="#58676d"/><stop offset="1" stop-color="#4a575c"/></linearGradient><radialGradient id="c" cx="10.8994" cy="47.9336" gradientTransform="matrix(1.0454 0 0 1 .8748 0)" gradientUnits="userSpaceOnUse" r="11.3262" xlink:href="#b"/><radialGradient id="d" cx="48.6484" cy="47.9346" gradientTransform="matrix(1.0454 0 0 1 .8748 0)" gradientUnits="userSpaceOnUse" r="11.3259" xlink:href="#b"/><radialGradient id="e" cx="30.8477" cy="20.876" gradientTransform="matrix(1.0319 0 0 .7427 .169 5.3715)" gradientUnits="userSpaceOnUse" r="22.5694"><stop offset=".6121" stop-color="#5b666e"/><stop offset=".8632" stop-color="#3d3d4a"/><stop offset="1" stop-color="#302c3b"/></radialGradient><linearGradient id="f"><stop offset="0" stop-color="#4e585e"/><stop offset=".297" stop-color="#495058"/><stop offset=".7553" stop-color="#3a3a46"/><stop offset="1" stop-color="#302c3b"/></linearGradient><radialGradient id="g" cx="25.2222" cy="44.7568" gradientTransform="matrix(.9556 -.2946 .5582 1.8109 -23.8655 -28.8618)" gradientUnits="userSpaceOnUse" r="9.0522" xlink:href="#f"/><radialGradient id="h" cx="-130.7505" cy="44.7568" gradientTransform="matrix(-.9556 -.2946 -.5582 1.8109 -61.1858 -74.8095)" gradientUnits="userSpaceOnUse" r="9.0522" xlink:href="#f"/><path d="m32 2c-13.292 0-30 8.742-30 28.109 0 16.444 3.96 23.353 4.124 22.305 3.641-22.022-.723-8.479-.723-22.517 0-13.959 12.57-23.567 26.599-23.567s26.599 9.608 26.599 23.567c0 14.038-4.363.495-.723 22.517.164 1.048 4.124-5.86 4.124-22.305 0-19.367-16.708-28.109-30-28.109z" fill="url(#a)"/><path d="m17.185 47.171c4.131 13.619 4.697 13.482.671 14.454-11.692 2.823-19.95-24.411-8.259-27.235 4.025-.975 3.458-.836 7.588 12.781z" fill="url(#c)"/><path d="m46.814 47.171c-4.128 13.619-4.696 13.482-.671 14.455 11.693 2.822 19.95-24.412 8.259-27.236-4.026-.973-3.458-.836-7.588 12.781z" fill="url(#d)"/><path d="m32.001 3.844c-10.478 0-18.139 4.148-24.597 12.272 0 0 1.844.775 3.455.436 3.124-.662 9.398-6.397 21.143-6.397s18.018 5.735 21.143 6.397c1.611.34 3.453-.436 3.453-.436-6.458-8.123-14.121-12.272-24.597-12.272z" fill="url(#e)"/><path d="m20.28 30.619c-1.871-.574-7.464 1.377-8.255 1.995-5.283 4.126.417 27.577 8.429 29.296 2.154.461 8.206-.868 9.54-3.285 2.194-3.978-3.595-26.129-9.714-28.006z" fill="url(#g)"/><path d="m27.194 54.028c1.838-.443-3.467-17.929-5.304-17.483-3.012.727 2.29 18.212 5.304 17.483z" fill="#1a1626"/><path d="m43.72 30.619c1.871-.574 7.465 1.377 8.256 1.995 5.283 4.126-.417 27.577-8.43 29.296-2.153.461-8.205-.868-9.539-3.285-2.194-3.978 3.594-26.129 9.713-28.006z" fill="url(#h)"/><path d="m36.806 54.028c-1.838-.443 3.467-17.929 5.305-17.483 3.011.727-2.292 18.212-5.305 17.483z" fill="#1a1626"/></svg>