<svg enable-background="new 0 0 64 64" height="64" viewBox="0 0 64 64" width="64" xmlns="http://www.w3.org/2000/svg" xmlns:xlink="http://www.w3.org/1999/xlink"><linearGradient id="a" gradientUnits="userSpaceOnUse" x1="1.9995" x2="62" y1="44" y2="44"><stop offset="0" stop-color="#6e8189"/><stop offset=".3552" stop-color="#6c7e86"/><stop offset=".6109" stop-color="#64767d"/><stop offset=".8348" stop-color="#58676d"/><stop offset="1" stop-color="#4a575c"/></linearGradient><path d="m56 62c-13 0-35 0-48 0-4 0-6-2-6-6 0-10 0-30 0-30h60v30c0 4-2 6-6 6z" fill="url(#a)"/><path d="m4 45h56v1h-56z" fill="#e6ebef"/><path d="m4 53h56v1h-56z" fill="#e6ebef"/><path d="m4 38h56v1h-56z" fill="#e6ebef"/><path d="m2 26h60v8h-60z" fill="#302c3b"/><g fill="#e6ebef"><path d="m4 34 4-8h6l-4 8z"/><path d="m16 34 4-8h6l-4 8z"/><path d="m28 34 4-8h6l-4 8z"/><path d="m40 34 4-8h6l-4 8z"/><path d="m52 34 4-8h6l-4 8z"/><path d="m22 53h1v7h-1z"/><path d="m41 53h1v7h-1z"/></g><path d="m62 9.725-2.07-7.725-3.864 1.035-1.412 2.449-4.381-.896-5.793 1.551-1.414 2.449-4.378-.897-5.793 1.553-1.414 2.449-4.379-.896-5.792 1.553-1.414 2.447-4.381-.897-5.791 1.553-1.414 2.447-4.379-.896-1.931.517 2.07 7.725 5.793-1.553 1.412-2.447 4.379.897 5.795-1.553 1.412-2.449 4.38.896 5.792-1.553 1.414-2.447 4.381.897 5.791-1.553 1.416-2.447 4.379.894 5.793-1.551 1.412-2.449z" fill="#302c3b"/><path d="m62 9.725-5.934-6.69-5.793 1.553 5.934 6.689z" fill="#e6ebef"/><path d="m50.414 12.828-5.934-6.689-5.792 1.552 5.931 6.69z" fill="#e6ebef"/><path d="m38.828 15.934-5.933-6.69-5.793 1.553 5.931 6.687z" fill="#e6ebef"/><path d="m27.241 19.037-5.931-6.687-5.795 1.55 5.934 6.69z" fill="#e6ebef"/><path d="m15.654 22.143-5.93-6.69-5.793 1.551 5.932 6.689z" fill="#e6ebef"/><path d="m2 34v-16l12 4v8z" fill="#302c3b"/><path d="m11 26c0 4-6 4-6 0s6-4 6 0z" fill="#bec3cf"/></svg>