<svg enable-background="new 0 0 64 64" height="64" viewBox="0 0 64 64" width="64" xmlns="http://www.w3.org/2000/svg" xmlns:xlink="http://www.w3.org/1999/xlink"><linearGradient id="a" gradientUnits="userSpaceOnUse" x1="52.5859" x2="59" y1="50.0596" y2="50.0596"><stop offset=".1636" stop-color="#916958"/><stop offset=".3382" stop-color="#8b6453"/><stop offset=".5782" stop-color="#795546"/><stop offset=".8549" stop-color="#5c3e31"/><stop offset="1" stop-color="#4a2f24"/></linearGradient><linearGradient id="b"><stop offset="0" stop-color="#bac3c6"/><stop offset=".1905" stop-color="#c4cccf"/><stop offset=".6662" stop-color="#d6dee1"/><stop offset="1" stop-color="#dde4e8"/></linearGradient><linearGradient id="c" gradientUnits="userSpaceOnUse" x1="27.7798" x2="27.8002" xlink:href="#b" y1="3.6206" y2="2.148"/><linearGradient id="d" gradientUnits="userSpaceOnUse" x1="12.9063" x2="12.0298" xlink:href="#b" y1="7.1147" y2="6.0084"/><linearGradient id="e" gradientTransform="matrix(0 1 -1 0 351.7402 10.8208)" gradientUnits="userSpaceOnUse" x1="22.3286" x2="32.689" y1="344.2197" y2="344.2197"><stop offset="0" stop-color="#004e7a"/><stop offset=".2077" stop-color="#02527f"/><stop offset=".4527" stop-color="#095d8d"/><stop offset=".7164" stop-color="#136fa5"/><stop offset=".9917" stop-color="#2288c6"/><stop offset="1" stop-color="#2289c7"/></linearGradient><linearGradient id="f" gradientTransform="matrix(0 1 -1 0 351.7402 10.8208)" gradientUnits="userSpaceOnUse" x1="33.7178" x2="42.2647" y1="337.4629" y2="337.4629"><stop offset="0" stop-color="#004e7a"/><stop offset="1" stop-color="#2289c7"/></linearGradient><linearGradient id="g" gradientTransform="matrix(0 1 -1 0 351.7402 10.8208)" gradientUnits="userSpaceOnUse" x1="26.6313" x2="26.6313" y1="335.3379" y2="325.7402"><stop offset="0" stop-color="#2289c7"/><stop offset="1" stop-color="#004e7a"/></linearGradient><linearGradient id="h" gradientTransform="matrix(0 1 -1 0 351.7402 10.8208)" gradientUnits="userSpaceOnUse" x1="24.1709" x2="24.1709" y1="345.7832" y2="329.3027"><stop offset="0" stop-color="#006dae"/><stop offset=".2465" stop-color="#1a8dc0"/><stop offset=".5675" stop-color="#36b0d5"/><stop offset=".8302" stop-color="#48c6e1"/><stop offset="1" stop-color="#4ecee6"/></linearGradient><linearGradient id="i" gradientTransform="matrix(0 1 -1 0 351.7402 10.8208)" gradientUnits="userSpaceOnUse" x1="23.1553" x2="31.8633" y1="337.9873" y2="337.9873"><stop offset=".103" stop-color="#0069a3" stop-opacity="0"/><stop offset="1" stop-color="#0069a3"/></linearGradient><linearGradient id="j" gradientUnits="userSpaceOnUse" x1="43.8086" x2="42.3679" y1="7.0171" y2="8.311"><stop offset="0" stop-color="#dde4e8"/><stop offset=".5601" stop-color="#cbd3d7"/><stop offset="1" stop-color="#bac3c6"/></linearGradient><linearGradient id="k" gradientUnits="userSpaceOnUse" x1="54.793" x2="52.1027" y1="24.4355" y2="24.8735"><stop offset="0" stop-color="#dde4e8"/><stop offset=".3556" stop-color="#dae1e5"/><stop offset=".6674" stop-color="#cfd7da"/><stop offset=".9619" stop-color="#bdc6c9"/><stop offset="1" stop-color="#bac3c6"/></linearGradient><linearGradient id="l" gradientUnits="userSpaceOnUse" x1="38.4971" x2="38.4971" y1="43.3076" y2="39.5459"><stop offset="0" stop-color="#4a2f24"/><stop offset=".0749" stop-color="#55382c"/><stop offset=".2947" stop-color="#6f4d3f"/><stop offset=".5198" stop-color="#825d4d"/><stop offset=".7516" stop-color="#8d6655"/><stop offset="1" stop-color="#916958"/></linearGradient><path d="m50.398 31.196c-.81 3.583-1.237 6.979-.875 11.986 2.252-1.17 3.705.05 3.901-.138 2.768-2.65 1.857-11.061-.148-11.579-.347-.089-.859.642-2.878-.269z" fill="#6e8189"/><path d="m50.776 31.541c-.81 3.583-.283 11.177-.283 11.177.396.24 1.896.324 2.093.137 2.769-2.65 1.676-10.87-.329-11.389-.348-.09-1.481-.27-1.481.075z" fill="#e6ebef"/><path d="m13.691 7.615c-.485 1.411-1.681-.145-1.441-.855.394-.622 1.441.855 1.441.855z" fill="#302c3b"/><path d="m51.018 25.964c-.997-1.507 1.385-1.495 1.892-.737.307.835-1.892.737-1.892.737z" fill="#302c3b"/><path d="m41.729 9.517c-1.745-.486.061-2.032.942-1.791.782.429-.942 1.791-.942 1.791z" fill="#302c3b"/><path d="m27.702 4.537c-1.246.828-1.248-1.131-.623-1.551.692-.257.623 1.551.623 1.551z" fill="#302c3b"/><path d="m12.765 7.496c-.546.918.344 13.359 1.433 25.02 0-12.877-1.761-23.844-.506-24.9 16.291-8.346 42.426-2.2 37.206 35.102 6.22-25.135-9.901-48.316-38.133-35.222z" fill="#cfd8dd"/><path d="m57.207 60.893c.396-1.913-3.322-2.419-3.719-.504-.367 1.777 3.352 2.282 3.719.504z" fill="#1a1626"/><path d="m57.33 48.324c.707-17.057-4.836-58.953-45.115-42.14-1.297.543-2.15 1.894-.391 1.13 39.281-17.043 43.692 23.898 42.985 40.258z" fill="#302c3b"/><path d="m53.541 41.682c-.305 9.056.078 7.5-.943 16.481l-.006.02c-.209 2.404 5.432 2.969 5.504 1.831 1.049-9.302.656-7.895.904-17.037-.186-4.483-4.963-4.215-5.459-1.295z" fill="url(#a)"/><path d="m27.702 4.537c-1.281 1.854-1.547-.773-.922-1.193.691-.257.016 1.073.547 1.189z" fill="#4e5e67"/><path d="m13.691 7.615c.113 2.248-1.701.32-1.46-.392.393-.622.666.843 1.16.614z" fill="#4e5e67"/><path d="m25.235 3.612 4.575.028.537-1.64-4.637.229z" fill="url(#c)"/><path d="m13.93 5.036-3.784 2.09.836.897 4.018-1.76z" fill="url(#d)"/><path d="m6.473 33.149s-2.209 5.384-1.217 10.36c1.982-2.986 4.785-.689 4.785-.689z" fill="url(#e)"/><path d="m22.353 52.965c-.075-2.272-3.188-3.581-4.938-5.125-1.375-1.214-1.211-2.375-.776-3.171h-5.676c.268 1.027.126 1.98-.745 2.986-1.427 1.428-3.937 2.934-4.017 5.31 2.657-3.145 13.55-3.079 16.152 0z" fill="url(#f)"/><path d="m16.415 45.436c4.145-1.286 8.264-6.017 9.56-11.609.329-1.425-2.682-1.021-4.258-4.359 1.095 7.064-5.647 16.075-5.302 15.968z" fill="url(#g)"/><g fill="#004c78"><path d="m23.742 38.459c-4.016 2.408-8.533.915-10.115-2.473.081 2.72 4.936 7.526 10.115 2.473z"/><path d="m15.335 46.001c-.292.104-.587.201-.881.301.254 1.062.855 2.196 1.933 3.36-.686-1.217-1.013-2.467-1.052-3.661z"/><path d="m17.518 42.1c.062.303.115.606.173.911 1.091-.098 2.306-.526 3.618-1.419-1.309.499-2.598.642-3.791.508z"/><path d="m13.418 45.952c-.284-.123-.566-.252-.85-.377-.541.948-.878 2.186-.888 3.769.333-1.356.949-2.492 1.738-3.392z"/><path d="m7.318 37.527c-.284-.122-.566-.251-.85-.377-.541.949-.878 2.187-.888 3.77.333-1.356.949-2.492 1.738-3.393z"/><path d="m8.959 39.432c-.22-.218-.434-.442-.65-.663-.855.682-1.629 1.707-2.227 3.174.813-1.137 1.808-1.965 2.877-2.511z"/><path d="m14.311 46.509c-.31-.014-.62-.035-.93-.053-.168 1.078-.041 2.354.514 3.838-.173-1.384-.001-2.664.416-3.785z"/><path d="m24.739 35.899c-4.017 2.408-8.534.915-10.115-2.473.08 2.72 4.935 7.525 10.115 2.473z"/><path d="m25.423 33.35c-4.017 2.407-8.534.914-10.115-2.474.08 2.719 4.934 7.524 10.115 2.474z"/></g><path d="m21.954 29.467c-1.461-4.243-5.502-4.572-6.462-6.065-.76-1.182-2.203 1.307-1.419 5.008-1.484-1.687-1.307-5.038-1.876-4.68-.891.56-2.065 1.211-3.12 2.122s-3.12 2.121-3.12 7.113c0 10.397 6.56 13.912 7.796 13.912 3.417 0 10.607-10.42 8.201-17.41z" fill="url(#h)"/><path d="m16.935 29.695c-2.17 0-2.17-3.072 0-3.072s2.17 3.072 0 3.072z" fill="#302c3b"/><path d="m17.658 28.006c-.651 0-.651-.922 0-.922s.652.922 0 .922z" fill="#6e8189"/><path d="m13.466 34.795c-3.351-4.494-4.827 11.16 1.605 7.258 4.053-2.458.418-4.545-1.605-7.258z" fill="url(#i)"/><path d="m19.486 31.731c-4.016 2.409-8.533.916-10.115-2.473.081 2.721 4.936 7.526 10.115 2.473z" fill="#006dae"/><path d="m20.461 36.231c-.651 0-.651-.923 0-.923s.651.923 0 .923z" fill="#19b3d1"/><path d="m18.33 36.838c-.651 0-.651-.923 0-.923s.651.923 0 .923z" fill="#19b3d1"/><path d="m19.185 38.84c-.421 0-.421-.597 0-.597s.421.597 0 .597z" fill="#19b3d1"/><path d="m20.949 33.112c-.422 0-.422-.597 0-.597s.422.597 0 .597z" fill="#19b3d1"/><path d="m19.185 34.427c-.421 0-.421-.597 0-.597s.421.597 0 .597z" fill="#19b3d1"/><path d="m18.196 41.159c-.651 0-.651-.923 0-.923s.652.923 0 .923z" fill="#19b3d1"/><path d="m41.729 9.517c-2.721.291-.504-2.022.376-1.783.782.43-.978.86-.667 1.438z" fill="#4e5e67"/><path d="m51.018 25.964c-2.245-1.556.952-1.855 1.459-1.102.308.835-1.305.012-1.451.651z" fill="#4e5e67"/><path d="m40.582 6.694 3.443 3.001 1.709-1.189-3.693-2.801z" fill="url(#j)"/><path d="m55.465 26.859-1.418-4.693-2.623.284 1.178 4.747z" fill="url(#k)"/><path d="m49.523 43.183c-3.421-.46-2.803-11.986.875-11.986 2.956-.001 2.983 12.504-.875 11.986z" fill="#b3c2c6"/><path d="m47.267 35.237s-.468 2.225-.331 3.821c.52.12 8.003-.115 8.409-.16.596-.066.533-4.424-.183-4.422-.448.002-7.25.675-7.895.761z" fill="#6e8189"/><path d="m49.106 38.932c-1.293-.146-1.059-3.821.33-3.821 1.118-.001 1.129 3.986-.33 3.821z" fill="#302c3b"/><path d="m54.927 34.777c-.405 0-.475 1.073-.096 1.116.426.048.422-1.116.096-1.116z" fill="#302c3b"/><path d="m55.031 37.382c-.405 0-.475 1.073-.097 1.116.426.048.423-1.116.097-1.116z" fill="#302c3b"/><path d="m49.173 36.26c-6.355-.198-1.246 4.719-8.375 4.541-.326-.009-.326 1.289 0 1.303 8.473.36 3.391-4.578 8.375-4.428.355.011.355-1.405 0-1.416z" fill="#b3c2c6"/><path d="m35.378 43.308c2.033 0 4.939-.374 7.314-.763.602-.098.701-2.375.094-2.426-2.641-.218-5.531-.573-7.256-.573-2.158 0-2.4 3.762-.152 3.762z" fill="url(#l)"/></svg>