<svg enable-background="new 0 0 64 64" height="64" viewBox="0 0 64 64" width="64" xmlns="http://www.w3.org/2000/svg" xmlns:xlink="http://www.w3.org/1999/xlink"><radialGradient id="a" cx="-20.0283" cy="133.5508" gradientTransform="matrix(.7071 .7071 -.7071 .7071 157.6475 -69.2999)" gradientUnits="userSpaceOnUse" r="14.7145"><stop offset="0" stop-color="#dde4e8"/><stop offset=".2316" stop-color="#d6dde1"/><stop offset=".5714" stop-color="#c2cacd"/><stop offset=".9762" stop-color="#a2aaad"/><stop offset="1" stop-color="#a0a8ab"/></radialGradient><radialGradient id="b" cx="-19.9658" cy="174.4043" gradientTransform="matrix(.7071 .7071 -5.6569 5.6569 1020.9047 -932.5571)" gradientUnits="userSpaceOnUse" r="18.8618"><stop offset="0" stop-color="#545061"/><stop offset=".164" stop-color="#464253"/><stop offset=".4749" stop-color="#211d2d"/><stop offset=".5273" stop-color="#1a1626"/></radialGradient><radialGradient id="c" cx="-19.3823" cy="137.415" gradientTransform="matrix(.7071 .7071 -2.1213 2.1213 351.9817 -263.6341)" gradientUnits="userSpaceOnUse" r="11.9602"><stop offset="0" stop-color="#c0c7cc"/><stop offset=".2342" stop-color="#b6bec3"/><stop offset=".6247" stop-color="#9da6ab"/><stop offset="1" stop-color="#7e898f"/></radialGradient><radialGradient id="d" cx="-20.2988" cy="148.3887" gradientTransform="matrix(.7071 .7071 -3.5355 3.5355 577.354 -489.0064)" gradientUnits="userSpaceOnUse" r="7.3216"><stop offset="0" stop-color="#494554"/><stop offset=".3398" stop-color="#3b3746"/><stop offset=".9843" stop-color="#161320"/><stop offset="1" stop-color="#15121f"/></radialGradient><linearGradient id="e" gradientTransform="matrix(.7071 .7071 -.7071 .7071 157.6475 -69.2999)" gradientUnits="userSpaceOnUse" x1="-20.9561" x2="-13.4761" y1="198.4219" y2="198.4219"><stop offset="0" stop-color="#cfd8dd"/><stop offset=".1801" stop-color="#cad3d8"/><stop offset=".4047" stop-color="#bac3c8"/><stop offset=".653" stop-color="#a1aaaf"/><stop offset=".9165" stop-color="#7e888d"/><stop offset="1" stop-color="#717b80"/></linearGradient><circle cx="48.432" cy="15.568" fill="url(#a)" r="13.5"/><path d="m33.058 18.542-30.09 37.203v2.664l2.625 2.623h2.664l37.201-30.09c-4.834-7.754-12.4-12.4-12.4-12.4z" fill="url(#b)"/><path d="m59.171 24.675c-7.125-6.086-13.762-12.724-19.848-19.848-.293.246-1.389 1.343-1.637 1.638 6.086 7.125 12.723 13.762 19.848 19.848.295-.246 1.393-1.344 1.637-1.638z" fill="url(#c)"/><path d="m58.53 25.316c-7.125-6.086-13.762-12.723-19.85-19.848-.08.034-.314.27-.352.354 6.086 7.125 12.723 13.762 19.848 19.849.085-.035.321-.274.354-.355z" fill="#4e5e67"/><path d="m34.956 14.718c-.658 1.3-1.314 2.598-1.969 3.894 3.848 4.411 7.99 8.555 12.402 12.403 1.295-.655 2.592-1.312 3.893-1.971-5.142-4.394-9.933-9.184-14.326-14.326z" fill="url(#d)"/><path d="m39.964 35.387c-4.074-3.48-7.869-7.275-11.35-11.35-.213.263-.424.524-.637.787 3.438 4.018 7.182 7.763 11.199 11.2.264-.212.526-.425.788-.637z" fill="#1a1626"/><path d="m8.271 61.019-5.29-5.29-.912.917 5.289 5.285z" fill="url(#e)"/><g fill="#302c3b"><path d="m37.472 14.767c-.615.938-2.084-.468-1.279-1.445.82-1.007 1.941.46 1.279 1.445z" opacity=".2"/><path d="m40.103 17.612c-.633.941-2.35-.691-1.662-1.781.781-1.168 2.413.734 1.662 1.781z" opacity=".2"/><path d="m42.745 20.334c-.732.753-2.387-.874-1.748-1.786.77-1.027 2.607.904 1.748 1.786z" opacity=".2"/><path d="m45.452 23.003c-.912.641-2.541-1.015-1.787-1.748.883-.861 2.814.979 1.787 1.748z" opacity=".2"/><path d="m48.169 25.56c-1.09.688-2.721-1.028-1.781-1.663 1.047-.753 2.949.881 1.781 1.663z" opacity=".2"/><path d="m50.679 27.809c-.979.804-2.381-.665-1.445-1.281.984-.662 2.449.46 1.445 1.281z" opacity=".2"/><path d="m38.647 10.746c-.914 1.027-1.896-.353-.887-1.288.94-.985 1.764.207.887 1.288z" opacity=".2"/><path d="m54.542 26.239c-.936 1.012-2.316.026-1.287-.887 1.08-.876 2.271-.053 1.287.887z" opacity=".2"/><path d="m40.915 13.577c-1.049 1.254-2.57-.577-1.502-1.823 1.057-1.312 2.566.488 1.502 1.823z" opacity=".2"/><path d="m43.563 16.512c-1.1 1.192-2.84-.702-1.795-1.958 1.086-1.323 2.952.685 1.795 1.958z" opacity=".2"/><path d="m46.481 19.468c-1.189 1.104-3.055-.76-1.949-1.948 1.176-1.255 3.203.772 1.949 1.948z" opacity=".2"/><path d="m49.446 22.231c-1.256 1.043-3.15-.693-1.957-1.795 1.272-1.155 3.28.709 1.957 1.795z" opacity=".2"/><path d="m52.247 24.587c-1.246 1.068-3.082-.453-1.824-1.501 1.336-1.066 3.135.446 1.824 1.501z" opacity=".2"/><path d="m43.067 6.049c-1.043.953-1.939-.045-.984-.915.871-.959 1.955-.109.984.915z" opacity=".2"/><path d="m58.866 21.916c-.871.955-1.867.062-.914-.982 1.022-.97 1.875.111.914.982z" opacity=".2"/><path d="m45.595 8.482c-1.336 1.256-2.936-.448-1.674-1.62 1.195-1.233 2.953.317 1.674 1.62z" opacity=".2"/><path d="m48.511 11.351c-1.363 1.325-3.301-.663-1.969-1.94 1.299-1.299 3.299.599 1.969 1.94z" opacity=".2"/><path d="m51.612 14.446c-1.344 1.351-3.408-.715-2.059-2.058 1.344-1.335 3.393.715 2.059 2.058z" opacity=".2"/><path d="m54.591 17.459c-1.277 1.33-3.268-.606-1.941-1.969 1.341-1.33 3.238.668 1.941 1.969z" opacity=".2"/><path d="m57.138 20.079c-1.172 1.263-2.877-.335-1.621-1.674 1.304-1.279 2.855.479 1.621 1.674z" opacity=".2"/><path d="m46.712 4.663c-1.088.911-2.359-.187-1.344-1.073.961-.941 2.375.132 1.344 1.073z" opacity=".2"/><path d="m49.685 7.286c-1.332 1.174-3.213-.598-1.902-1.711 1.249-1.12 3.167.542 1.902 1.711z" opacity=".2"/><path d="m52.743 10.212c-1.281 1.26-3.336-.759-2.021-1.956 1.269-1.165 3.246.727 2.021 1.956z" opacity=".2"/><path d="m55.743 13.277c-1.195 1.317-3.215-.743-1.955-2.021 1.229-1.226 3.121.753 1.955 2.021z" opacity=".2"/><path d="m58.425 16.218c-1.111 1.313-2.887-.572-1.711-1.902 1.168-1.263 2.832.65 1.711 1.902z" opacity=".2"/><path d="m60.411 18.632c-.889 1.016-1.984-.257-1.074-1.344.941-1.031 2.014.382 1.074 1.344z" opacity=".2"/><path d="m50.892 3.862c-.904.679-2.289-.472-1.373-1.164.878-.678 2.23.509 1.373 1.164z" opacity=".2"/><path d="m53.62 6.343c-.934.811-2.584-.705-1.592-1.474.938-.721 2.461.714 1.592 1.474z" opacity=".2"/><path d="m56.489 9.165c-.836.908-2.48-.738-1.576-1.576.848-.777 2.35.726 1.576 1.576z" opacity=".2"/><path d="m59.202 12.052c-.768.992-2.275-.656-1.469-1.592.758-.873 2.188.651 1.469 1.592z" opacity=".2"/><path d="m61.302 14.48c-.693.917-1.842-.472-1.166-1.373.654-.858 1.845.497 1.166 1.373z" opacity=".2"/><path d="m56.345 6.164c-.535.492-1.777-.704-1.174-1.155.553-.389 1.65.72 1.174 1.155z" opacity=".2"/><path d="m58.991 8.829c-.451.604-1.648-.638-1.154-1.174.432-.476 1.545.621 1.154 1.174z" opacity=".2"/></g></svg>