<svg enable-background="new 0 0 64 64" height="64" viewBox="0 0 64 64" width="64" xmlns="http://www.w3.org/2000/svg" xmlns:xlink="http://www.w3.org/1999/xlink"><linearGradient id="a"><stop offset="0" stop-color="#ff000e"/><stop offset=".7283" stop-color="#dd0004"/><stop offset="1" stop-color="#cf0000"/></linearGradient><linearGradient id="b" gradientUnits="userSpaceOnUse" x1="2" x2="62" xlink:href="#a" y1="32" y2="32"/><linearGradient id="c" gradientUnits="userSpaceOnUse" x1="17" x2="47" xlink:href="#a" y1="32" y2="32"/><linearGradient id="d"><stop offset="0" stop-color="#009af7"/><stop offset=".1209" stop-color="#0da3f4"/><stop offset=".4955" stop-color="#30baec"/><stop offset=".8019" stop-color="#46c9e8"/><stop offset="1" stop-color="#4ecee6"/></linearGradient><linearGradient id="e" gradientUnits="userSpaceOnUse" x1="43.8672" x2="62" xlink:href="#d" y1="14.5508" y2="14.5508"/><linearGradient id="f" gradientUnits="userSpaceOnUse" x1="42.7451" x2="47.1991" y1="16.8018" y2="21.2557"><stop offset="0" stop-color="#2289c7"/><stop offset="1" stop-color="#005687"/></linearGradient><linearGradient id="g" gradientUnits="userSpaceOnUse" x1="43.3398" x2="55.5508" xlink:href="#d" y1="10.1836" y2="10.1836"/><circle cx="32" cy="32" fill="url(#b)" r="30"/><circle cx="32" cy="32" fill="#fff" r="22"/><circle cx="32" cy="32" fill="url(#c)" r="15"/><circle cx="32" cy="32" fill="#fff" r="7"/><path d="m31 31.667s1 19.5 12.867 27.893c0 0 4.918-1.955 9.066-6.073-4.085-9.924-11.835-10.424-21.933-21.82z" fill="#302c3b" opacity=".2"/><path d="m32.739 32.76c-.826.826-2.322-.673-1.498-1.498 4.749-4.751 6.247-3.252 1.498 1.498z" fill="#99a8ae"/><path d="m55.555 8.445-11.688 11.687s9.287 2.419 14.805-3.1c9.006-9.005-3.117-8.587-3.117-8.587z" fill="url(#e)"/><path d="m37.768 30.687c-3.986 3.986-8.439-.468-4.453-4.454 7.912-7.914 23.275-20.427 24.078-19.626.8.802-11.713 16.166-19.625 24.08z" fill="url(#f)"/><path d="m43.533 18.286c-.396-2.991-.561-8.963 3.434-12.958 7.691-7.69 8.508.028 8.584 2.445.012.415-11.867 11.652-12.018 10.513z" fill="url(#g)"/></svg>