<svg enable-background="new 0 0 64 64" height="64" viewBox="0 0 64 64" width="64" xmlns="http://www.w3.org/2000/svg" xmlns:xlink="http://www.w3.org/1999/xlink"><linearGradient id="a"><stop offset=".3455" stop-color="#302c3b"/><stop offset=".5753" stop-color="#3f424d"/><stop offset=".8148" stop-color="#4a5259"/><stop offset="1" stop-color="#4e585e"/></linearGradient><linearGradient id="b" gradientUnits="userSpaceOnUse" x1="17" x2="17" xlink:href="#a" y1="49.6777" y2="11.6577"/><linearGradient id="c" gradientTransform="matrix(-1 0 0 1 308.6133 0)" gradientUnits="userSpaceOnUse" x1="261.6133" x2="261.6133" xlink:href="#a" y1="49.6777" y2="11.6577"/><linearGradient id="d" gradientUnits="userSpaceOnUse" x1="32.0005" x2="32.0005" y1="41.5654" y2="11.6577"><stop offset=".1212" stop-color="#302c3b"/><stop offset=".2424" stop-color="#393945"/><stop offset=".4695" stop-color="#454a53"/><stop offset=".7132" stop-color="#4c555b"/><stop offset="1" stop-color="#4e585e"/></linearGradient><linearGradient id="e"><stop offset="0" stop-color="#302c3b"/><stop offset=".2107" stop-color="#373643"/><stop offset="1" stop-color="#4e585e"/></linearGradient><linearGradient id="f" gradientTransform="matrix(-1 0 0 1 308.6133 0)" gradientUnits="userSpaceOnUse" x1="258.5811" x2="246.7179" xlink:href="#e" y1="48.4277" y2="36.4332"/><linearGradient id="g" gradientUnits="userSpaceOnUse" x1="13.9692" x2="2.1056" xlink:href="#e" y1="48.4277" y2="36.4327"/><linearGradient id="h"><stop offset="0" stop-color="#4e585e"/><stop offset=".2831" stop-color="#4a5259"/><stop offset=".6551" stop-color="#3f424c"/><stop offset="1" stop-color="#302c3b"/></linearGradient><linearGradient id="i" gradientUnits="userSpaceOnUse" x1="36.6611" x2="45.1464" xlink:href="#h" y1="30.3232" y2="38.8085"/><linearGradient id="j"><stop offset="0" stop-color="#657078"/><stop offset=".2646" stop-color="#606b72"/><stop offset=".6132" stop-color="#525b62"/><stop offset="1" stop-color="#3c4247"/></linearGradient><radialGradient id="k" cx="40.4502" cy="33.4629" gradientUnits="userSpaceOnUse" r="4.1313" xlink:href="#j"/><linearGradient id="l" gradientUnits="userSpaceOnUse" x1="18.8545" x2="27.3391" xlink:href="#h" y1="30.3237" y2="38.8083"/><radialGradient id="m" cx="22.644" cy="33.4629" gradientUnits="userSpaceOnUse" r="4.1311" xlink:href="#j"/><radialGradient id="n" cx="48.3701" cy="18.4087" gradientUnits="userSpaceOnUse" r="2.7456"><stop offset="0" stop-color="#ffe02e"/><stop offset=".2489" stop-color="#ffda29"/><stop offset=".5857" stop-color="#ffc91a"/><stop offset=".9714" stop-color="#ffac02"/><stop offset="1" stop-color="#fa0"/></radialGradient><radialGradient id="o" cx="52.5645" cy="22.6025" gradientUnits="userSpaceOnUse" r="2.7464"><stop offset=".2121" stop-color="#ff3b3b"/><stop offset=".4183" stop-color="#f63131"/><stop offset=".7712" stop-color="#de1615"/><stop offset="1" stop-color="#cc0100"/></radialGradient><radialGradient id="p" cx="48.3701" cy="26.7974" gradientUnits="userSpaceOnUse" r="2.7456"><stop offset="0" stop-color="#9be022"/><stop offset=".2668" stop-color="#91d422"/><stop offset=".7474" stop-color="#78b423"/><stop offset="1" stop-color="#69a123"/></radialGradient><radialGradient id="q" cx="44.1777" cy="22.6035" gradientUnits="userSpaceOnUse" r="2.7464"><stop offset="0" stop-color="#2289c7"/><stop offset=".2907" stop-color="#1a7eb9"/><stop offset=".842" stop-color="#066093"/><stop offset="1" stop-color="#005687"/></radialGradient><linearGradient id="r"><stop offset="0" stop-color="#7b9099"/><stop offset=".4494" stop-color="#768a92"/><stop offset="1" stop-color="#6a7b82"/></linearGradient><radialGradient id="s" cx="11.4746" cy="23.1572" gradientUnits="userSpaceOnUse" r="2.1017" xlink:href="#r"/><radialGradient id="t" cx="18.8994" cy="23.1572" gradientUnits="userSpaceOnUse" r="2.1009" xlink:href="#r"/><radialGradient id="u" cx="15.1885" cy="19.4453" gradientUnits="userSpaceOnUse" r="2.1012" xlink:href="#r"/><radialGradient id="v" cx="15.1885" cy="26.8691" gradientUnits="userSpaceOnUse" r="2.1014" xlink:href="#r"/><path d="m25.47 12.065s-2.904-2.065-4.326-2.065c-10.787 0-12.181 4.856-12.565 6.282-.386 1.424 16.386-3.985 16.891-4.217z" fill="#302c3b"/><path d="m32 11.657c-14.531 0-23.154 1.657-24.962 6.688-1.961 5.459-5.038 22.043-5.038 27.714 0 10.235 14.766-4.493 16.641-4.493" fill="url(#b)"/><path d="m38.53 12.065s2.904-2.065 4.326-2.065c10.788 0 12.181 4.856 12.565 6.282.386 1.424-16.386-3.985-16.891-4.217z" fill="#302c3b"/><path d="m32 11.657c14.531 0 23.154 1.657 24.963 6.688 1.961 5.459 5.037 22.043 5.037 27.714 0 10.235-14.766-4.493-16.641-4.493" fill="url(#c)"/><path d="m58.844 25.344s-.967-4.287-1.881-6.999c-1.707-5.064-10.432-6.688-24.963-6.688s-23.256 1.624-24.962 6.688c-.914 2.712-1.881 6.999-1.881 6.999s-2.182 14.327 13.484 16.221h13.359s10.841 0 13.359 0c15.666-1.894 13.485-16.221 13.485-16.221z" fill="url(#d)"/><path d="m58.844 25.344c1.601 7.143 3.156 16.684 3.156 20.715 0 5.776-2.729 7.941-5.498 7.941-2.139 0-4.303-1.289-5.258-3.203-1.203-2.408-4.097-7.323-5.885-9.231 3.787-1.017 13.133-11.776 13.485-16.222z" fill="url(#f)"/><path d="m5.157 25.344c-1.602 7.143-3.157 16.684-3.157 20.715 0 5.776 2.729 7.941 5.499 7.941 2.139 0 4.303-1.289 5.258-3.203 1.203-2.408 4.096-7.323 5.884-9.231-3.787-1.017-13.133-11.776-13.484-16.222z" fill="url(#g)"/><circle cx="40.903" cy="34.565" fill="url(#i)" r="6"/><circle cx="40.903" cy="34.565" fill="#1a1626" r="4.5"/><circle cx="40.903" cy="34.565" fill="url(#k)" r="3.5"/><circle cx="23.097" cy="34.565" fill="url(#l)" r="6"/><circle cx="23.097" cy="34.565" fill="#1a1626" r="4.5"/><circle cx="23.097" cy="34.565" fill="url(#m)" r="3.5"/><circle cx="48.814" cy="18.963" fill="url(#n)" r="2.307"/><path d="m53.008 20.85c-1.277 0-2.307 1.034-2.307 2.307 0 1.275 1.029 2.308 2.307 2.308 1.273 0 2.307-1.032 2.307-2.308-.001-1.273-1.034-2.307-2.307-2.307z" fill="url(#o)"/><circle cx="48.814" cy="27.352" fill="url(#p)" r="2.307"/><path d="m44.621 20.851c-1.277 0-2.307 1.035-2.307 2.307 0 1.276 1.029 2.308 2.307 2.308 1.271 0 2.307-1.031 2.307-2.308 0-1.272-1.035-2.307-2.307-2.307z" fill="url(#q)"/><path d="m12.924 21.89c-.324-.347-.976-.629-1.451-.629h-1.425c-.473 0-.861.388-.861.861v2.07c0 .474.388.861.861.861h1.425c.475 0 1.127-.282 1.451-.629l.597-.639c.324-.347.324-.911 0-1.258z" fill="url(#s)"/><path d="m17.452 24.425c.324.347.976.629 1.451.629h1.425c.473 0 .859-.388.859-.861v-2.07c0-.474-.386-.861-.859-.861h-1.425c-.475 0-1.127.282-1.451.629l-.597.639c-.324.347-.324.911 0 1.258z" fill="url(#t)"/><path d="m16.457 20.894c.345-.325.628-.977.628-1.45v-1.425c0-.475-.388-.861-.861-.861h-2.071c-.473 0-.861.387-.861.861v1.425c0 .474.281 1.125.628 1.45l.639.598c.345.322.91.322 1.257 0z" fill="url(#u)"/><path d="m13.921 25.422c-.347.324-.628.977-.628 1.449v1.426c0 .474.388.86.861.86h2.071c.473 0 .861-.387.861-.86v-1.426c0-.473-.283-1.125-.628-1.449l-.639-.599c-.348-.322-.912-.322-1.257 0z" fill="url(#v)"/><g fill="#556670"><path d="m32 19.12c1.654 0 3 1.346 3 3s-1.346 3-3 3-3-1.346-3-3 1.346-3 3-3zm0-1c-2.208 0-4 1.791-4 4s1.792 4 4 4c2.209 0 4-1.791 4-4s-1.791-4-4-4z"/><path d="m32.8 22.521c-.133 0-.201-.066-.201-.199v-.4c0-.135.067-.201.201-.201h1.3c.135 0 .2.066.2.201v.199c0 1.271-1.029 2.301-2.3 2.301-.618 0-1.198-.246-1.626-.674-.095-.096-.095-.188-.001-.283l.427-.424c.094-.094.188-.094.281 0 .243.242.57.381.919.381.578 0 1.068-.377 1.237-.9h-.437z"/></g></svg>