<svg enable-background="new 0 0 64 64" height="64" viewBox="0 0 64 64" width="64" xmlns="http://www.w3.org/2000/svg" xmlns:xlink="http://www.w3.org/1999/xlink"><linearGradient id="a" gradientTransform="matrix(.9245 -.3812 .3812 .9245 -109.6064 -66.9809)" gradientUnits="userSpaceOnUse" x1="99.7666" x2="107.0186" y1="130.2275" y2="130.2275"><stop offset="0" stop-color="#9be022"/><stop offset=".2668" stop-color="#91d422"/><stop offset=".7474" stop-color="#78b423"/><stop offset="1" stop-color="#69a123"/></linearGradient><linearGradient id="b" gradientTransform="matrix(.7134 -.7008 .7008 .7134 -231.8928 -88.0285)" gradientUnits="userSpaceOnUse" x1="108.541" x2="115.7939" y1="258.917" y2="258.917"><stop offset="0" stop-color="#ffe02e"/><stop offset=".2489" stop-color="#ffda29"/><stop offset=".5857" stop-color="#ffc91a"/><stop offset=".9714" stop-color="#ffac02"/><stop offset="1" stop-color="#fa0"/></linearGradient><linearGradient id="c" gradientTransform="matrix(.564 -.8258 .8258 .564 -289.4252 -57.8383)" gradientUnits="userSpaceOnUse" x1="105.8125" x2="113.917" y1="305.4277" y2="305.4277"><stop offset=".2121" stop-color="#ff3b3b"/><stop offset=".4183" stop-color="#f63131"/><stop offset=".7712" stop-color="#de1615"/><stop offset="1" stop-color="#cc0100"/></linearGradient><g fill="#b00505"><path d="m24.872 6.77h.5v62.453h-.5z" transform="matrix(.7071 .7071 -.7071 .7071 34.2257 -6.635)"/><path d="m55.699 21.979-38.34 38.339.354.354 38.35-38.35c-.127-.108-.243-.228-.364-.343z"/><path d="m46.661 25.031h.5v42h-.5z" transform="matrix(.7071 .7071 -.7071 .7071 46.2886 -19.6891)"/><path d="m54.117 43.486h.5v20h-.5z" transform="matrix(.7071 .7071 -.7071 .7071 53.744 -22.7778)"/><path d="m43.385 18.299h.5v48.909h-.5z" transform="matrix(-.7071 .7071 -.7071 -.7071 104.7208 42.131)"/><path d="m53.732 12.278h.5v22h-.5z" transform="matrix(-.7071 .7071 -.7071 -.7071 108.614 1.5672)"/><path d="m47.337 12.294h.5v39h-.5z" transform="matrix(-.7071 .7071 -.7071 -.7071 103.7188 20.6271)"/><path d="m21.446 35.123c-.083.154-.155.315-.235.472l25.077 25.077.354-.354z"/><path d="m15.559 44.148c-.002.003 0 .006-.002.009-.076.174-.155.256-.305.367-.005.004-.012.003-.018.007l16.527 16.525.352-.354z"/><path d="m9.27 52.77c-.121.113-.234.236-.354.353l7.611 7.611.352-.354z"/></g><path d="m2 55.118h2v6.882h-2z" fill="#e81c27"/><path d="m33 62h-2v-41.883l2-1.999z" fill="#e81c27"/><path d="m18 62h-2v-18.881l2-2z" fill="#e81c27"/><path d="m48 62h-1.998l-.002-46.883 2 1.001z" fill="#e81c27"/><path d="m62 62h-2v-36.881l2 2z" fill="#e81c27"/><path d="m59.032 24.192c-8.942-7.831-12.642-11.072-20.895-8.386-8.722 2.84-13.578 12.228-18.273 21.306-4.881 9.433-9.489 18.343-17.864 18.343v1c8.982 0 13.728-9.173 18.751-18.884 4.604-8.899 9.364-18.103 17.696-20.814 7.711-2.511 11.037.403 19.926 8.188 1.113.975 2.326 2.034 3.627 3.155v-1.321c-1.047-.908-2.048-1.781-2.968-2.587z" fill="#6e8189"/><path d="m59.957 23.891c-9.461-8.225-13.38-11.625-21.894-9.046-8.933 2.707-13.958 12.36-18.819 21.695-4.84 9.297-9.413 18.078-17.244 18.078v1c8.438 0 13.146-9.043 18.131-18.617 4.766-9.151 9.693-18.614 18.223-21.199 7.986-2.42 11.517.646 20.947 8.844.846.734 1.753 1.521 2.699 2.336v-1.32c-.707-.612-1.395-1.208-2.043-1.771z" fill="#b3c2c6"/><path d="m38.203 12.49c-4.147 3.944-1.938.938-1.747-1.32.192-2.292 1.94.809 1.747 1.32z" fill="#302c3b"/><path d="m33.837 9.325c-.145-.157-.085-.685.401-.253.338-.366.305.305.305.305l-.426.275s-.209-.247-.28-.327z" fill="#fc6"/><path d="m36.053 11.365s-1.17.068-1.973-1.754c-.063-.146.404-.427.469-.282.605 1.345 1.922 1.554 1.922 1.554z" fill="#8e3ed6"/><path d="m35.455 10.828c-.03-.069-.289.039-.103-.131.206-.187-.096-.396-.134-.322-.055.102-.185.233-.185.233-.031-.033-.016-.083-.055-.088-.378-.049.052-.242-.106-.59-.097-.212.035-.398.182-.59 2.628.102.759 2.279.401 1.488z" fill="#fc6"/><path d="m34.859 9.672c.193-.055.621-.134.73.21.305-.529.495.288.266.346.182.2.543.444.693-.306-.025-1.711-1.989-.965-1.689-.25z" fill="#594640"/><path d="m36.367 8.904c.294.87.096 1.428-.492 1.905-.454.465-.25 2.509-.25 2.509l1.504-.63s-.137-1.081-.237-1.373c.209-.811.579-1.067.065-2.647-.041-.127-.631.11-.59.236z" fill="#8e3ed6"/><path d="m36.803 8.25c-.041-.219-.518-.503-.465.174-.519.05.061.446.061.446l.498-.182c-.001 0-.075-.328-.094-.438z" fill="#fc6"/><path d="m33.065 15.136h6.211v.878h-6.211z" fill="#302c3b" transform="matrix(.9245 -.3813 .3813 .9245 -3.2061 14.9671)"/><path d="m35.661 13.207-.4-.668c-.925.427-3.524 1.549-3.239 2.238.236.576.818 1.983.818 1.983l6.459-2.663c.129-1.251-.843-2.042-.843-2.042z" fill="url(#a)"/><path d="m31.492 15.735c-2.488 5.154-1.482 1.563-2.101-.618-.626-2.211 2.102.072 2.101.618z" fill="#302c3b"/><path d="m26.29 14.315c-.19-.097-.319-.612.288-.379.188-.463.393.178.393.178l-.303.406c0 .001-.281-.155-.378-.205z" fill="#fc6"/><path d="m29.084 15.442s-1.07.477-2.464-.946c-.11-.112.227-.542.339-.43 1.041 1.044 2.346.776 2.346.776z" fill="#e81c27"/><path d="m28.336 15.151c-.054-.055-.258.135-.144-.086.127-.249-.229-.339-.239-.256-.014.114-.09.283-.09.283-.04-.021-.043-.072-.08-.063-.373.088-.037-.245-.31-.515-.165-.162-.106-.384-.038-.615 2.495-.831 1.514 1.866.901 1.252z" fill="#fc6"/><path d="m27.369 14.279c.162-.121.536-.347.758-.061.1-.605.566.092.372.229.24.123.664.225.54-.53-.628-1.594-2.203-.201-1.67.362z" fill="#594640"/><path d="m28.51 13.03c.582.709.594 1.303.213 1.955-.264.595.648 2.435.648 2.435l1.187-1.118s-.509-.964-.706-1.203c-.091-.831.164-1.201-.873-2.5-.084-.105-.551.326-.469.431z" fill="#e81c27"/><path d="m28.688 12.261c-.117-.189-.661-.287-.375.329-.467.229.215.396.215.396l.402-.346s-.185-.282-.242-.379z" fill="#fc6"/><path d="m27.575 18.872h6.216v.879h-6.216z" fill="#302c3b" transform="matrix(.7133 -.7009 .7009 .7133 -4.7378 27.0415)"/><path d="m29.32 17.307-.623-.466c-.696.74-2.683 2.759-2.159 3.292.437.444 1.503 1.53 1.503 1.53l4.984-4.896c-.352-1.209-1.55-1.578-1.55-1.578z" fill="url(#b)"/><path d="m22.614 24.324h7.064v.88h-7.064z" fill="#302c3b" transform="matrix(.5637 -.826 .826 .5637 -9.047 32.3993)"/><path d="m26.38 20.713c-1.331 5.567-1.115 1.843-2.186-.156-1.085-2.029 2.069-.378 2.186.156z" fill="#302c3b"/><path d="m20.994 20.436c-.207-.054-.443-.529.199-.432.084-.492.422.09.422.09l-.209.463s-.308-.094-.412-.121z" fill="#fc6"/><path d="m23.964 20.94s-.944.694-2.609-.399c-.132-.087.104-.576.239-.49 1.24.799 2.457.258 2.457.258z" fill="#7ab51d"/><path d="m23.17 20.813c-.064-.041-.224.19-.158-.053.07-.269-.297-.28-.288-.199.011.117-.027.298-.027.298-.044-.011-.058-.062-.093-.044-.345.164-.088-.232-.412-.437-.195-.124-.186-.353-.168-.594 2.257-1.344 1.877 1.5 1.146 1.029z" fill="#fc6"/><path d="m22.039 20.169c.135-.151.449-.452.729-.222-.033-.61.572-.028.412.145.261.07.695.078.414-.633-.955-1.423-2.196.274-1.555.71z" fill="#594640"/><path d="m22.888 18.705c.72.569.857 1.145.624 1.865-.129.637 1.156 2.241 1.156 2.241l.918-1.348s-.703-.833-.947-1.024c-.266-.792-.095-1.209-1.386-2.254-.105-.083-.469.436-.365.52z" fill="#7ab51d"/><path d="m22.896 17.917c-.154-.161-.707-.139-.295.4-.408.325.293.341.293.341l.32-.424c.001 0-.241-.234-.318-.317z" fill="#fc6"/><path d="m24.662 22.712-.858-.432c-1.691 2.701-.893 4.983-.033 5.655l4.42-6.475c-.577-1.117-1.825-1.245-1.825-1.245z" fill="url(#c)"/></svg>