<svg enable-background="new 0 0 64 64" height="64" viewBox="0 0 64 64" width="64" xmlns="http://www.w3.org/2000/svg" xmlns:xlink="http://www.w3.org/1999/xlink"><radialGradient id="a" cx="30.1343" cy="46.8496" gradientTransform="matrix(.9803 0 0 2.8251 2.459 -79.7733)" gradientUnits="userSpaceOnUse" r="22.1313"><stop offset=".5273" stop-color="#1a1626"/><stop offset=".9455" stop-color="#4e4959"/></radialGradient><radialGradient id="b" cx="11.1143" cy="30.6963" gradientTransform="matrix(.9361 0 0 6.9251 21.5961 -179.8885)" gradientUnits="userSpaceOnUse" r="21.0139"><stop offset="0" stop-color="#1a1626"/><stop offset=".1928" stop-color="#1d1929"/><stop offset=".3233" stop-color="#262232"/><stop offset=".4349" stop-color="#353141"/><stop offset=".497" stop-color="#413d4d"/><stop offset=".7091" stop-color="#413d4d"/><stop offset=".7227" stop-color="#3d3949"/><stop offset=".814" stop-color="#2a2636"/><stop offset=".9062" stop-color="#1e1a2a"/><stop offset="1" stop-color="#1a1626"/></radialGradient><radialGradient id="c" cx="11.1143" cy="48.417" gradientTransform="matrix(.9361 0 0 2.9679 21.5961 -93.4794)" gradientUnits="userSpaceOnUse" r="15.5427"><stop offset=".4848" stop-color="#ff3030"/><stop offset="1" stop-color="#bd0000"/></radialGradient><radialGradient id="d" cx="11.1147" cy="108.8633" gradientTransform="matrix(.9361 0 0 .2013 21.5961 -8.4524)" gradientUnits="userSpaceOnUse" r="15.8911"><stop offset="0" stop-color="#1a1626"/><stop offset=".2625" stop-color="#23202e"/><stop offset="1" stop-color="#3a3742"/></radialGradient><path d="m32 50.132c-9.709 0-30-11.262-30-3.262 0 6.887 10.223 15.13 30 15.13s30-8.243 30-15.13c0-8-20.291 3.262-30 3.262z" fill="#302c3b"/><path d="m32 48.249c-17.238 0-29.448-7.863-29.448-1.379 0 5.493 10.627 13.988 29.448 13.988s29.448-8.495 29.448-13.988c0-6.484-12.21 1.379-29.448 1.379z" fill="url(#a)"/><path d="m52.998 13.925c-13.99-.695-28.006-.695-41.996 0 .01-.001 1.676 11.396 2.078 28.511-1.637 9.77 18.926 9.375 18.92 9.535-.006-.161 20.557.234 18.918-9.535.404-17.115 2.068-28.512 2.08-28.511z" fill="url(#b)"/><path d="m50.918 42.436c.377 6.05-12.605 6.49-18.918 6.567-6.313-.078-19.295-.518-18.92-6.567-.658.437-.037 5.637.213 8.902.228 2.62 7.566 6.674 18.707 6.662 11.139.013 18.479-4.042 18.707-6.662.252-3.266.869-8.464.211-8.902z" fill="url(#c)"/><path d="m50.918 42.436c.377 6.05-12.605 6.49-18.918 6.567-6.313-.078-19.295-.518-18.92-6.567-.492.443-1.084 7.281 18.92 7.063 20.002.218 19.412-6.621 18.918-7.063z" fill="#f46c60"/><path d="m11.002 13.925c.273 3.998 41.723 3.998 41.996 0 .287-5.234-42.283-5.234-41.996 0z" fill="url(#d)"/><path d="m11.398 14.617c4.043 3.05 37.16 3.05 41.201 0-6.949 2.155-34.251 2.155-41.201 0z" fill="#302c3b"/></svg>