<svg enable-background="new 0 0 64 64" height="64" viewBox="0 0 64 64" width="64" xmlns="http://www.w3.org/2000/svg" xmlns:xlink="http://www.w3.org/1999/xlink"><linearGradient id="a"><stop offset="0" stop-color="#4ecee6"/><stop offset=".2029" stop-color="#45c8e8"/><stop offset=".5337" stop-color="#2db8ed"/><stop offset=".9491" stop-color="#059ef6"/><stop offset="1" stop-color="#009af7"/></linearGradient><linearGradient id="b" gradientUnits="userSpaceOnUse" x1="28.4995" x2="35.5" xlink:href="#a" y1="7.5" y2="7.5"/><linearGradient id="c" gradientUnits="userSpaceOnUse" x1="28.4995" x2="35.5" xlink:href="#a" y1="3" y2="3"/><linearGradient id="d" gradientUnits="userSpaceOnUse" x1="28.4995" x2="35.5" xlink:href="#a" y1="56.5" y2="56.5"/><linearGradient id="e" gradientUnits="userSpaceOnUse" x1="28.4995" x2="35.5" xlink:href="#a" y1="52" y2="52"/><linearGradient id="f"><stop offset="0" stop-color="#f02beb"/><stop offset=".2432" stop-color="#e725e2"/><stop offset=".6383" stop-color="#cf14ca"/><stop offset="1" stop-color="#b300af"/></linearGradient><linearGradient id="g" gradientUnits="userSpaceOnUse" x1="41.1777" x2="48.1777" xlink:href="#f" y1="10.709" y2="10.709"/><linearGradient id="h" gradientUnits="userSpaceOnUse" x1="41.1777" x2="48.1777" xlink:href="#f" y1="6.209" y2="6.209"/><linearGradient id="i"><stop offset="0" stop-color="#92c932"/><stop offset=".3445" stop-color="#89c131"/><stop offset=".9047" stop-color="#71ac2f"/><stop offset="1" stop-color="#6ca82e"/></linearGradient><linearGradient id="j" gradientUnits="userSpaceOnUse" x1="15.8232" x2="22.8232" xlink:href="#i" y1="10.709" y2="10.709"/><linearGradient id="k" gradientUnits="userSpaceOnUse" x1="15.8232" x2="22.8232" xlink:href="#i" y1="6.209" y2="6.209"/><linearGradient id="l" gradientUnits="userSpaceOnUse" x1="15.8232" x2="22.8232" xlink:href="#f" y1="52.709" y2="52.709"/><linearGradient id="m" gradientUnits="userSpaceOnUse" x1="15.8232" x2="22.8232" xlink:href="#f" y1="48.209" y2="48.209"/><linearGradient id="n" gradientUnits="userSpaceOnUse" x1="41.1777" x2="48.1777" xlink:href="#i" y1="52.709" y2="52.709"/><linearGradient id="o" gradientUnits="userSpaceOnUse" x1="41.1777" x2="48.1777" xlink:href="#i" y1="48.209" y2="48.209"/><linearGradient id="p"><stop offset="0" stop-color="#fa0"/><stop offset=".1338" stop-color="#ff9c00"/><stop offset=".4979" stop-color="#ff7a00"/><stop offset=".7997" stop-color="#ff6500"/><stop offset="1" stop-color="#ff5e00"/></linearGradient><linearGradient id="q" gradientUnits="userSpaceOnUse" x1="4" x2="11" xlink:href="#p" y1="32" y2="32"/><linearGradient id="r" gradientUnits="userSpaceOnUse" x1="4" x2="11" xlink:href="#p" y1="27.5" y2="27.5"/><linearGradient id="s" gradientUnits="userSpaceOnUse" x1="53" x2="60" xlink:href="#p" y1="31.999" y2="31.999"/><linearGradient id="t" gradientUnits="userSpaceOnUse" x1="53" x2="60" xlink:href="#p" y1="27.499" y2="27.499"/><linearGradient id="u"><stop offset="0" stop-color="#ff3b3b"/><stop offset=".2492" stop-color="#f73232"/><stop offset=".6541" stop-color="#e21a1a"/><stop offset="1" stop-color="#cc0100"/></linearGradient><linearGradient id="v" gradientUnits="userSpaceOnUse" x1="50.375" x2="57.375" xlink:href="#u" y1="43.834" y2="43.834"/><linearGradient id="w" gradientUnits="userSpaceOnUse" x1="50.375" x2="57.375" xlink:href="#u" y1="39.334" y2="39.334"/><linearGradient id="x"><stop offset="0" stop-color="#ffe02e"/><stop offset=".266" stop-color="#ffd726"/><stop offset=".6982" stop-color="#ffbf12"/><stop offset="1" stop-color="#fa0"/></linearGradient><linearGradient id="y" gradientUnits="userSpaceOnUse" x1="6.625" x2="13.625" xlink:href="#x" y1="43.834" y2="43.834"/><linearGradient id="z" gradientUnits="userSpaceOnUse" x1="6.625" x2="13.625" xlink:href="#x" y1="39.334" y2="39.334"/><linearGradient id="A" gradientUnits="userSpaceOnUse" x1="6.625" x2="13.625" xlink:href="#u" y1="20.166" y2="20.166"/><linearGradient id="B" gradientUnits="userSpaceOnUse" x1="6.625" x2="13.625" xlink:href="#u" y1="15.666" y2="15.666"/><linearGradient id="C" gradientUnits="userSpaceOnUse" x1="50.375" x2="57.375" xlink:href="#x" y1="20.166" y2="20.166"/><linearGradient id="D" gradientUnits="userSpaceOnUse" x1="50.375" x2="57.375" xlink:href="#x" y1="15.666" y2="15.666"/><path d="m43.764 61-10.86-29.834-2.01.73 10.592 29.104z" fill="#cfd8dd"/><path d="m22.515 61 10.592-29.102-2.01-.732-10.86 29.834z" fill="#cfd8dd"/><g fill="#e6ebef"><path d="m31.5 3h1v50h-1z"/><path d="m31.499 3h1.001v50h-1.001z" transform="matrix(.8663 -.4995 .4995 .8663 -9.708 19.7271)"/><path d="m7 27.5h50v1h-50z"/><path d="m31.5 2.999h.999v50h-.999z" transform="matrix(.5003 -.8658 .8658 .5003 -8.2533 41.6964)"/><path d="m31.5 2.999h.999v50h-.999z" transform="matrix(-.5003 -.8658 .8658 -.5003 23.7686 69.7146)"/><path d="m31.5 2.999h1v50.001h-1z" transform="matrix(-.8672 -.498 .498 -.8672 45.8042 68.2174)"/></g><path d="m32 3c-13.807 0-25 11.191-25 25 0 13.807 11.193 25 25 25s25-11.193 25-25c0-13.809-11.193-25-25-25zm0 49c-13.255 0-24-10.744-24-24s10.745-24 24-24c13.256 0 24 10.744 24 24s-10.744 24-24 24z" fill="#6e8189"/><path d="m32 8c-11.045 0-20 8.953-20 20s8.954 20 20 20c11.047 0 20-8.953 20-20s-8.953-20-20-20zm0 39.199c-10.603 0-19.2-8.596-19.2-19.199 0-10.605 8.597-19.201 19.2-19.201 10.604 0 19.202 8.596 19.202 19.201-.001 10.604-8.598 19.199-19.202 19.199z" fill="#99a8ae"/><path d="m34.723 9h-5.446l-.777-3h7z" fill="url(#b)"/><path d="m32 2c-3.23 0-3.5 2-3.5 2h7s-.27-2-3.5-2z" fill="url(#c)"/><path d="m31.75 3.75h.5v2.5h-.5z" fill="#018bc9"/><path d="m28.5 3.5h7v.5h-7z" fill="#018bc9"/><path d="m28.5 6h7v.5h-7z" fill="#018bc9"/><path d="m34.723 58h-5.446l-.777-3h7z" fill="url(#d)"/><path d="m32 51c-3.23 0-3.5 2-3.5 2h7s-.27-2-3.5-2z" fill="url(#e)"/><path d="m31.75 52.75h.5v2.5h-.5z" fill="#018bc9"/><path d="m28.5 52.5h7v.5h-7z" fill="#018bc9"/><path d="m28.5 55h7v.5h-7z" fill="#018bc9"/><path d="m47.398 12.209h-5.443l-.777-3h7z" fill="url(#g)"/><path d="m44.678 5.209c-3.23 0-3.5 2-3.5 2h7s-.27-2-3.5-2z" fill="url(#h)"/><path d="m44.428 6.959h.5v2.5h-.5z" fill="#a30b9e"/><path d="m41.178 6.709h7v.5h-7z" fill="#a30b9e"/><path d="m41.178 9.209h7v.5h-7z" fill="#a30b9e"/><path d="m22.045 12.209h-5.443l-.779-3h7z" fill="url(#j)"/><path d="m19.323 5.209c-3.231 0-3.5 2-3.5 2h7s-.269-2-3.5-2z" fill="url(#k)"/><path d="m19.073 6.959h.5v2.5h-.5z" fill="#529320"/><path d="m15.823 6.709h7v.5h-7z" fill="#529320"/><path d="m15.823 9.209h7v.5h-7z" fill="#529320"/><path d="m22.045 54.209h-5.443l-.779-3h7z" fill="url(#l)"/><path d="m19.323 47.209c-3.23 0-3.5 2-3.5 2h7s-.269-2-3.5-2z" fill="url(#m)"/><path d="m19.073 48.959h.5v2.5h-.5z" fill="#a30b9e"/><path d="m15.823 48.709h7v.5h-7z" fill="#a30b9e"/><path d="m15.823 51.209h7v.5h-7z" fill="#a30b9e"/><path d="m47.398 54.209h-5.443l-.777-3h7z" fill="url(#n)"/><path d="m44.678 47.209c-3.232 0-3.5 2-3.5 2h7s-.27-2-3.5-2z" fill="url(#o)"/><path d="m44.428 48.959h.5v2.5h-.5z" fill="#529320"/><path d="m41.178 48.709h7v.5h-7z" fill="#529320"/><path d="m41.178 51.209h7v.5h-7z" fill="#529320"/><path d="m10.223 33.5h-5.446l-.777-3h7z" fill="url(#q)"/><path d="m7.5 26.5c-3.23 0-3.5 2-3.5 2h7s-.27-2-3.5-2z" fill="url(#r)"/><path d="m7.25 28.25h.5v2.5h-.5z" fill="#d45c06"/><path d="m4 28h7v.5h-7z" fill="#d45c06"/><path d="m4 30.5h7v.5h-7z" fill="#d45c06"/><path d="m59.223 33.499h-5.446l-.777-3h7z" fill="url(#s)"/><path d="m56.5 26.499c-3.23 0-3.5 2-3.5 2h7s-.27-2-3.5-2z" fill="url(#t)"/><path d="m56.25 28.249h.5v2.5h-.5z" fill="#d45c06"/><path d="m53 27.999h7v.5h-7z" fill="#d45c06"/><path d="m53 30.499h7v.5h-7z" fill="#d45c06"/><path d="m56.598 45.334h-5.446l-.777-3h7z" fill="url(#v)"/><path d="m53.875 38.334c-3.23 0-3.5 2-3.5 2h7s-.27-2-3.5-2z" fill="url(#w)"/><path d="m53.625 40.084h.5v2.5h-.5z" fill="#b00505"/><path d="m50.375 39.834h7v.5h-7z" fill="#b00505"/><path d="m50.375 42.334h7v.5h-7z" fill="#b00505"/><path d="m12.848 45.334h-5.446l-.777-3h7z" fill="url(#y)"/><path d="m10.125 38.334c-3.23 0-3.5 2-3.5 2h7s-.27-2-3.5-2z" fill="url(#z)"/><path d="m9.875 40.084h.5v2.5h-.5z" fill="#f9b700"/><path d="m6.625 39.834h7v.5h-7z" fill="#f9b700"/><path d="m6.625 42.334h7v.5h-7z" fill="#f9b700"/><path d="m12.848 21.666h-5.446l-.777-3h7z" fill="url(#A)"/><path d="m10.125 14.666c-3.23 0-3.5 2-3.5 2h7s-.27-2-3.5-2z" fill="url(#B)"/><path d="m9.875 16.416h.5v2.5h-.5z" fill="#b00505"/><path d="m6.625 16.166h7v.5h-7z" fill="#b00505"/><path d="m6.625 18.666h7v.5h-7z" fill="#b00505"/><path d="m56.598 21.666h-5.446l-.777-3h7z" fill="url(#C)"/><path d="m53.875 14.666c-3.23 0-3.5 2-3.5 2h7s-.27-2-3.5-2z" fill="url(#D)"/><path d="m53.625 16.416h.5v2.5h-.5z" fill="#f9b700"/><path d="m50.375 16.166h7v.5h-7z" fill="#f9b700"/><path d="m50.375 18.666h7v.5h-7z" fill="#f9b700"/><path d="m44.832 61-10.859-29.834-2.011.73 10.593 29.104z" fill="#b3c2c6"/><path d="m21.445 61 10.592-29.102-2.01-.732-10.859 29.834z" fill="#b3c2c6"/><path d="m32 23.398 3.521-3.9-.267 5.25 5.246-.269-3.9 3.521 3.9 3.521-5.246-.269.267 5.248-3.521-3.9-3.522 3.9.272-5.248-5.25.269 3.9-3.521-3.9-3.521 5.25.269-.272-5.25z" fill="#e635de"/><path d="m32 23.5c2.487 0 4.5 2.01 4.5 4.5 0 2.488-2.014 4.5-4.5 4.5s-4.5-2.012-4.5-4.5c0-2.49 2.013-4.5 4.5-4.5z" fill="#b30bad"/><circle cx="32" cy="28" fill="#c28fef" r="2.5"/><path d="m12 60h40v2h-40z" fill="#99a8ae"/></svg>