<svg enable-background="new 0 0 64 64" height="64" viewBox="0 0 64 64" width="64" xmlns="http://www.w3.org/2000/svg" xmlns:xlink="http://www.w3.org/1999/xlink"><linearGradient id="a" gradientTransform="matrix(.9397 -.342 .342 .9397 52.0735 -21.2939)" gradientUnits="userSpaceOnUse" x1="-60.0303" x2="-60.0303" y1="61.0967" y2="60.0967"><stop offset=".3758" stop-color="#99a8ae"/><stop offset=".8121" stop-color="#b3c2c6"/></linearGradient><linearGradient id="b" gradientUnits="userSpaceOnUse" x1="53.4287" x2="53.4287" y1="53.8428" y2="34.1572"><stop offset="0" stop-color="#302c3b"/><stop offset=".4795" stop-color="#312e3d"/><stop offset=".6666" stop-color="#373543"/><stop offset=".8026" stop-color="#40414d"/><stop offset=".9132" stop-color="#4c525d"/><stop offset="1" stop-color="#5b666e"/></linearGradient><linearGradient id="c" gradientUnits="userSpaceOnUse" x1="42.7148" x2="42.7148" y1="49.7861" y2="38.2139"><stop offset=".3758" stop-color="#4e5e67"/><stop offset=".7269" stop-color="#5b6e78"/><stop offset="1" stop-color="#617580"/></linearGradient><linearGradient id="d"><stop offset="0" stop-color="#5b666e"/><stop offset=".0868" stop-color="#4c525d"/><stop offset=".1974" stop-color="#40414d"/><stop offset=".3334" stop-color="#373543"/><stop offset=".5205" stop-color="#312e3d"/><stop offset="1" stop-color="#302c3b"/></linearGradient><linearGradient id="e" gradientUnits="userSpaceOnUse" x1="49.6787" x2="50.75" xlink:href="#d" y1="44" y2="44"/><linearGradient id="f" gradientUnits="userSpaceOnUse" x1="50.75" x2="51.8223" xlink:href="#d" y1="43.999" y2="43.999"/><linearGradient id="g" gradientUnits="userSpaceOnUse" x1="51.8223" x2="52.8926" xlink:href="#d" y1="44" y2="44"/><linearGradient id="h" gradientTransform="matrix(0 1 1 0 64.8711 -125.3574)" gradientUnits="userSpaceOnUse" x1="166.2764" x2="172.4385" y1="-53.5322" y2="-53.5322"><stop offset="0" stop-color="#617580"/><stop offset=".2731" stop-color="#5b6e78"/><stop offset=".6242" stop-color="#4e5e67"/></linearGradient><linearGradient id="i" gradientTransform="matrix(0 1 1 0 64.8711 -125.3574)" gradientUnits="userSpaceOnUse" x1="166.4785" x2="172.2344" xlink:href="#d" y1="-57.5156" y2="-57.5156"/><linearGradient id="j" gradientTransform="matrix(0 1 1 0 64.8711 -125.3574)" gradientUnits="userSpaceOnUse" x1="165.6074" x2="173.1074" xlink:href="#d" y1="-61.0918" y2="-61.0918"/><linearGradient id="k" gradientUnits="userSpaceOnUse" x1="32.0005" x2="32.0005" y1="31.9995" y2="2"><stop offset="0" stop-color="#302c3b"/><stop offset=".5017" stop-color="#312e3d"/><stop offset=".6824" stop-color="#363543"/><stop offset=".8113" stop-color="#3f404d"/><stop offset=".9147" stop-color="#4c515c"/><stop offset="1" stop-color="#5b666e"/></linearGradient><path d="m25.955 53.229-18.794 6.84-.342-.94 18.794-6.84z" fill="url(#a)"/><path d="m11.091 59.171-7.518 2.736c-1.457.53-2.141-1.349-.684-1.88l7.518-2.736c1.456-.529 2.14 1.35.684 1.88z" fill="#302c3b"/><path d="m33.179 54c0 8-12 8-12 0s12-8 12 0z" fill="#302c3b"/><path d="m31.179 54c0 5.334-8 5.334-8 0s8-5.334 8 0z" fill="#1a1626"/><path d="m61.281 53.81-11.066-4.023h-5.357v-11.573h5.357l11.066-4.023c.35-.128.719.131.719.503v18.612c0 .373-.369.631-.719.504z" fill="url(#b)"/><path d="m38.429 38.214h8.571v11.572h-8.571z" fill="url(#c)"/><path d="m45.393 37.679h1.072v12.643h-1.072z" fill="#99a8ae"/><path d="m50.215 37.679c-.297 0-.536.24-.536.535v11.572c0 .295.239.535.536.535.296 0 .535-.24.535-.535v-11.572c0-.295-.239-.535-.535-.535z" fill="url(#e)"/><path d="m51.285 37.142c-.296 0-.535.24-.535.537v12.643c0 .296.239.535.535.535.295 0 .537-.239.537-.535v-12.643c0-.297-.242-.537-.537-.537z" fill="url(#f)"/><path d="m52.356 36.607c-.296 0-.534.239-.534.534v13.715c0 .295.238.537.534.537s.536-.242.536-.537v-13.714c.001-.295-.24-.535-.536-.535z" fill="url(#g)"/><path d="m9.464 40.919h3.749v6.162h-3.749z" fill="url(#h)"/><path d="m5.715 46.877h3.749v-5.756h-3.749c-1.054 2.805 0 5.756 0 5.756z" fill="url(#i)"/><path d="m2.321 47.75 2.75-.873s.847-2.766 0-5.756l-2.75-.871c-.471 3.123 0 7.5 0 7.5z" fill="url(#j)"/><g fill="#1a1626"><path d="m2 47.564v-7.129l.321-.185v7.5z"/><path d="m5.071 46.877v-5.756l.323.186.321-.186v5.756l-.321-.185z"/><path d="m46.999 32-8.573 4.285h-21.427v-4.285l16.071-3.214z"/></g><path d="m47.707 2.016c-6.752-.311-12.578 3.846-14.775 9.762-.324.876-1.541.876-1.865 0-2.197-5.916-8.024-10.072-14.775-9.762-7.639.352-13.924 6.635-14.276 14.274-.395 8.607 6.465 15.71 14.983 15.71h30c8.519 0 15.381-7.103 14.984-15.71-.351-7.639-6.637-13.923-14.276-14.274z" fill="url(#k)"/><path d="m11.101 24.032h13.716v.642h-13.716z" fill="#1a1626" transform="matrix(.6936 .7204 -.7204 .6936 23.0473 -5.4749)"/><path d="m17.768 19.478h12.75v.643h-12.75z" fill="#1a1626" transform="matrix(.5405 .8413 -.8413 .5405 27.7503 -11.2146)"/><circle cx="17" cy="16.999" fill="#1a1626" r="5.143"/><circle cx="17" cy="16.999" fill="#4e5e67" r="4.5"/><circle cx="17" cy="16.999" fill="#1a1626" r="3.857"/><circle cx="17" cy="16.999" fill="#99a8ae" r="1.286"/><circle cx="47" cy="16.999" fill="#1a1626" r="5.143"/><circle cx="46.999" cy="16.999" fill="#4e5e67" r="4.5"/><circle cx="47" cy="16.999" fill="#1a1626" r="3.857"/><circle cx="46.999" cy="16.999" fill="#99a8ae" r="1.286"/><circle cx="24.928" cy="26.963" fill="#1a1626" r="3.857"/><circle cx="24.928" cy="26.963" fill="#4e5e67" r="3.214"/><circle cx="24.928" cy="26.963" fill="#1a1626" r="2.572"/><circle cx="24.928" cy="26.963" fill="#99a8ae" r=".643"/><circle cx="27.179" cy="60" fill="#99a8ae" r="1.999"/><circle cx="27.179" cy="60" fill="#4e5e67" r="1.6"/><circle cx="27.179" cy="60" fill="#99a8ae" r=".399"/><path d="m42.179 54.5c0 .275-.225.5-.5.5h-29c-.275 0-.5-.225-.5-.5v-19c0-.275.225-.5.5-.5h29c.275 0 .5.225.5.5z" fill="#302c3b"/><path d="m37.197 50.52c.665-.001.666.999 0 .998-.668.002-.668-1 0-.998z" fill="#6e8189"/><path d="m37.557 50.658c.06.061-.66.78-.72.721-.06-.061.659-.78.72-.721z" fill="#42424f"/><path d="m37.196 38.482c.666 0 .667.999 0 .999-.667.001-.667-1 0-.999z" fill="#6e8189"/><path d="m37.557 39.342c-.061.061-.78-.659-.721-.72.06-.059.78.659.721.72z" fill="#42424f"/><path d="m17.162 38.482c.666-.001.667.999 0 .998-.667.002-.667-1 0-.998z" fill="#6e8189"/><path d="m17.522 38.621c.06.061-.66.78-.72.721-.059-.061.66-.78.72-.721z" fill="#42424f"/><path d="m17.162 50.519c.666 0 .667.999 0 .999-.667.002-.667-1 0-.999z" fill="#6e8189"/><path d="m17.521 51.378c-.06.061-.78-.659-.72-.72s.781.66.72.72z" fill="#42424f"/><path d="m38.679 53.5h-23c-.551 0-1-.448-1-1v-15c0-.552.449-1 1-1h23c.552 0 1 .448 1 1v15c0 .552-.449 1-1 1zm0-1v.5zm-23-15v15h22.999l.001-15z" fill="#99a8ae"/><path d="m21.412 48.5c0 .275-.225.5-.5.5h-3.5c-.275 0-.5-.225-.5-.5v-5c0-.275.225-.5.5-.5h3.5c.275 0 .5.225.5.5z" fill="#4e5e67"/><path d="m20.912 46c0 2.334-3.5 2.334-3.5 0s3.5-2.334 3.5 0z" fill="#1a1626"/><path d="m20.662 46c0 2-3 2-3 0s3-2 3 0z" fill="#4e5e67"/><path d="m18.787 46c0 .333-.5.333-.5 0s.5-.333.5 0z" fill="#1a1626"/><path d="m20.037 46c0 .333-.5.333-.5 0s.5-.333.5 0z" fill="#1a1626"/><path d="m19.412 46.75c0 .333-.5.333-.5 0s.5-.333.5 0z" fill="#1a1626"/></svg>