<svg enable-background="new 0 0 64 64" height="64" viewBox="0 0 64 64" width="64" xmlns="http://www.w3.org/2000/svg" xmlns:xlink="http://www.w3.org/1999/xlink"><radialGradient id="a" cx="26.57021616" cy="24.95604654" gradientUnits="userSpaceOnUse" r="34.26710502"><stop offset=".2727" stop-color="#3a3547"/><stop offset=".5195" stop-color="#373244"/><stop offset=".7203" stop-color="#2d283a"/><stop offset=".9043" stop-color="#1d1929"/><stop offset=".9273" stop-color="#1a1626"/></radialGradient><radialGradient id="b" cx="548.3496" cy="-17.7998" gradientTransform="matrix(.3583 .4654 -.7924 .61 -189.15 -228.3004)" gradientUnits="userSpaceOnUse" r="16.3745"><stop offset="0" stop-color="#586167"/><stop offset="1" stop-color="#586167" stop-opacity="0"/></radialGradient><circle cx="32" cy="32" fill="url(#a)" r="30"/><path d="m27.298 23.685c-7.167 5.517-15.604 6.577-18.843 2.367-3.241-4.21-.06-12.094 7.107-17.611s15.603-6.577 18.842-2.367c3.242 4.21.06 12.094-7.106 17.611z" fill="url(#b)"/><ellipse cx="36.265" cy="24.269" fill="#fff" rx="13.143" ry="13.865" transform="matrix(.7706 -.6373 .6373 .7706 -7.1478 28.6787)"/><path d="m45.26 23.205c1.783 2.871.783 6.313-2.896 8.602-3.678 2.287-7.209 1.662-8.992-1.207-1.131-1.818-1.09-3.803.02-5.621-1.658.035-3.104-.689-4.072-2.244-1.68-2.703-.656-5.959 2.484-7.912 3.117-1.939 6.49-1.416 8.172 1.285.967 1.557.977 3.174.234 4.631 2.12-.19 3.919.65 5.05 2.466zm-3.106 1.565c-.922-1.482-2.867-1.863-4.639-.762-1.773 1.102-2.309 2.994-1.371 4.5.969 1.557 2.945 1.984 4.717.883 1.772-1.104 2.246-3.09 1.293-4.621zm-10.105-3.5c.893 1.436 2.676 1.854 4.291.848 1.592-.99 2.014-2.813 1.137-4.225-.879-1.41-2.684-1.813-4.275-.822-1.616 1.003-2.046 2.763-1.153 4.199z" fill="#302c3b"/></svg>