<svg enable-background="new 0 0 64 64" height="64" viewBox="0 0 64 64" width="64" xmlns="http://www.w3.org/2000/svg" xmlns:xlink="http://www.w3.org/1999/xlink"><linearGradient id="a"><stop offset="0" stop-color="#545061"/><stop offset=".2793" stop-color="#464253"/><stop offset=".6189" stop-color="#211d2d"/><stop offset="1" stop-color="#1a1626"/></linearGradient><linearGradient id="b" gradientUnits="userSpaceOnUse" x1="4.5446" x2="19.0924" xlink:href="#a" y1="7.0386" y2="32.2362"/><linearGradient id="c" gradientUnits="userSpaceOnUse" x1="40.5446" x2="55.0926" xlink:href="#a" y1="7.0376" y2="32.2356"/><linearGradient id="d" gradientUnits="userSpaceOnUse" x1="17.5446" x2="32.0926" xlink:href="#a" y1="33.0376" y2="58.2356"/><path d="m17.646 30.534v-16.887s8.156 3.938 3.76 12.631c-.146.29 1.119.602 1.283.322 8.971-15.382-2.893-14.333-5.043-24.599h-4.375v23.479c-.834-.266-2.311-.414-3.27-.414-10.668 0-10.668 10.936 0 10.936 3.911-.001 7.645-2.45 7.645-5.468z" fill="url(#b)"/><path d="m53.646 30.534v-16.887s8.156 3.938 3.76 12.631c-.146.29 1.119.602 1.283.322 8.971-15.383-2.893-14.334-5.043-24.6h-4.375v23.479c-.834-.266-2.311-.414-3.27-.414-10.668 0-10.668 10.936 0 10.936 3.91 0 7.645-2.449 7.645-5.467z" fill="url(#c)"/><path d="m30.646 56.534v-16.888s8.156 3.938 3.76 12.631c-.146.29 1.119.602 1.283.322 8.971-15.383-2.893-14.334-5.043-24.6h-4.375v23.479c-.834-.266-2.311-.414-3.27-.414-10.668 0-10.668 10.936 0 10.936 3.91.001 7.645-2.448 7.645-5.466z" fill="url(#d)"/></svg>