<svg enable-background="new 0 0 64 64" height="64" viewBox="0 0 64 64" width="64" xmlns="http://www.w3.org/2000/svg" xmlns:xlink="http://www.w3.org/1999/xlink"><linearGradient id="a" gradientUnits="userSpaceOnUse" x1="33.4824" x2="33.4824" y1="62" y2="2.4507"><stop offset="0" stop-color="#005687"/><stop offset="1" stop-color="#2289c7"/></linearGradient><linearGradient id="b" gradientUnits="userSpaceOnUse" x1="6" x2="56.8271" y1="30.9668" y2="30.9668"><stop offset="0" stop-color="#ffc800"/><stop offset="1" stop-color="#ffd900"/></linearGradient><path d="m6.057 48.955c7.9 4.085 46.186-35.209 43.753-46.955-.758 0-36.131 11.498-43.753 46.955z" fill="#f9b700"/><path d="m57.109 24.971c.201-1.186-8.424-2.684-6.181-21.527l-5.33-.994-12.114 12.48-12.116-12.48-5.331.993c2.244 18.843-6.38 20.341-6.18 21.527 2.798 16.563-1.422 34.638-.834 35.044.961.666 10.857 1.986 24.46 1.986s23.498-1.32 24.46-1.985c.587-.407-3.631-18.481-.834-35.044z" fill="url(#a)"/><path d="m33.483 5.897c-4.951 0-9.164-1.916-12.115-3.447 1.12 8.367 6.194 12.48 12.115 12.48s10.994-4.113 12.114-12.48c-2.95 1.532-7.161 3.447-12.114 3.447z" fill="#013366"/><path d="m6.057 48.955c-.496.409 2.392 12.271 3.972 10.862 25.432-22.709 41.377-33.982 46.798-53.951.052-.194-5.53-3.866-7.017-3.866-.758 0-3.934 14.269-43.753 46.955z" fill="url(#b)"/></svg>