<svg enable-background="new 0 0 64 64" height="64" viewBox="0 0 64 64" width="64" xmlns="http://www.w3.org/2000/svg" xmlns:xlink="http://www.w3.org/1999/xlink"><linearGradient id="a"><stop offset=".1455" stop-color="#ecf1f5"/><stop offset=".4997" stop-color="#e1e8ec"/><stop offset="1" stop-color="#cbd4d9"/></linearGradient><linearGradient id="b" gradientUnits="userSpaceOnUse" x1="1.9995" x2="16.0122" xlink:href="#a" y1="26.6255" y2="26.6255"/><linearGradient id="c"><stop offset="0" stop-color="#ff000e"/><stop offset=".2692" stop-color="#fa000c"/><stop offset=".6048" stop-color="#ea0008"/><stop offset=".9743" stop-color="#d10001"/><stop offset="1" stop-color="#cf0000"/></linearGradient><linearGradient id="d" gradientUnits="userSpaceOnUse" x1="4.8223" x2="13.1872" xlink:href="#c" y1="15.9561" y2="15.9561"/><linearGradient id="e" gradientUnits="userSpaceOnUse" x1="1.104" x2="16.9075" xlink:href="#c" y1="19.6484" y2="19.6484"/><linearGradient id="f" gradientUnits="userSpaceOnUse" x1="26.0317" x2="40.0439" xlink:href="#a" y1="23.6255" y2="23.6255"/><linearGradient id="g" gradientUnits="userSpaceOnUse" x1="28.8545" x2="37.2194" xlink:href="#c" y1="12.9561" y2="12.9561"/><linearGradient id="h" gradientUnits="userSpaceOnUse" x1="25.1362" x2="40.9397" xlink:href="#c" y1="16.6484" y2="16.6484"/><linearGradient id="i" gradientUnits="userSpaceOnUse" x1="11" x2="28.2529" xlink:href="#a" y1="26.6255" y2="26.6255"/><linearGradient id="j" gradientUnits="userSpaceOnUse" x1="14.4761" x2="24.7755" xlink:href="#c" y1="13.4888" y2="13.4888"/><linearGradient id="k" gradientUnits="userSpaceOnUse" x1="9.896" x2="29.3562" xlink:href="#c" y1="18.0342" y2="18.0342"/><radialGradient id="l" cx="38.380584" cy="37.30414284" gradientUnits="userSpaceOnUse" r="22.84543708"><stop offset=".2727" stop-color="#3a3547"/><stop offset=".5195" stop-color="#373244"/><stop offset=".7203" stop-color="#2d283a"/><stop offset=".9043" stop-color="#1d1929"/><stop offset=".9273" stop-color="#1a1626"/></radialGradient><radialGradient id="m" cx="408.6895" cy="45.1738" gradientTransform="matrix(.2389 .3103 -.5283 .4067 -38.8054 -113.7975)" gradientUnits="userSpaceOnUse" r="16.375"><stop offset="0" stop-color="#586167"/><stop offset="1" stop-color="#586167" stop-opacity="0"/></radialGradient><path d="m5.345 10.947c0 2.478 1.695 4.695 1.636 6.318-.101 2.723-3.445 7.553-4.385 11.526-1.761 7.441.722 14.846 2.994 17.117.966.965 5.883.948 6.832 0 2.271-2.271 4.755-9.676 2.994-17.117-.939-3.973-4.284-8.803-4.385-11.526-.059-1.624 1.636-3.841 1.636-6.318 0-5.762-7.322-5.762-7.322 0z" fill="url(#b)"/><path d="m11.065 16.855c.068-.578.29-1.22.561-1.914-1.738.271-3.502.271-5.24 0 .271.694.493 1.335.561 1.914 1.369.154 2.749.154 4.118 0z" fill="url(#d)"/><path d="m11.943 20.437c-.268-.631-.49-1.226-.65-1.777-1.521.174-3.054.174-4.574 0-.16.551-.383 1.146-.65 1.777 1.95.268 3.924.268 5.874 0z" fill="url(#e)"/><path d="m29.377 7.947c0 2.478 1.695 4.695 1.636 6.318-.101 2.723-3.445 7.553-4.385 11.526-1.761 7.441.723 14.846 2.994 17.117.966.965 5.883.948 6.832 0 2.271-2.271 4.755-9.676 2.994-17.117-.939-3.973-4.284-8.803-4.385-11.526-.059-1.624 1.636-3.841 1.636-6.318 0-5.762-7.322-5.762-7.322 0z" fill="url(#f)"/><path d="m35.098 13.855c.068-.578.29-1.22.561-1.914-1.738.271-3.502.271-5.24 0 .271.694.493 1.335.561 1.914 1.369.154 2.749.154 4.118 0z" fill="url(#g)"/><path d="m35.976 17.437c-.268-.631-.49-1.226-.65-1.777-1.521.174-3.054.174-4.574 0-.16.551-.383 1.146-.65 1.777 1.949.268 3.923.268 5.874 0z" fill="url(#h)"/><path d="m15.119 7.321c0 3.051 2.087 5.78 2.014 7.779-.123 3.353-4.241 9.299-5.398 14.191-2.168 9.164.89 18.279 3.687 21.076 1.189 1.188 7.243 1.168 8.412 0 2.797-2.797 5.854-11.912 3.687-21.076-1.157-4.892-5.275-10.838-5.398-14.191-.072-1.999 2.014-4.729 2.014-7.779-.003-7.095-9.018-7.095-9.018 0z" fill="url(#i)"/><path d="m22.163 14.596c.084-.712.356-1.501.69-2.356-2.141.334-4.313.333-6.452 0 .333.854.606 1.644.689 2.356 1.688.189 3.386.189 5.073 0z" fill="url(#j)"/><path d="m23.244 19.005c-.33-.776-.604-1.509-.802-2.188-1.872.215-3.759.215-5.631 0-.198.679-.472 1.412-.802 2.188 2.402.33 4.833.33 7.235 0z" fill="url(#k)"/><circle cx="42" cy="42.001" fill="url(#l)" r="20"/><path d="m38.864 36.457c-4.777 3.677-10.402 4.384-12.561 1.579-2.162-2.809-.041-8.063 4.738-11.742 4.777-3.678 10.4-4.384 12.561-1.578 2.163 2.806.04 8.062-4.738 11.741z" fill="url(#m)"/><g fill="#1a1626"><circle cx="41.06" cy="30.576" r="2.763"/><circle cx="31.697" cy="34.349" r="2.763"/><circle cx="41.06" cy="45.668" r="2.763"/></g></svg>