<svg enable-background="new 0 0 64 64" height="64" viewBox="0 0 64 64" width="64" xmlns="http://www.w3.org/2000/svg" xmlns:xlink="http://www.w3.org/1999/xlink"><linearGradient id="a"><stop offset="0" stop-color="#fff"/><stop offset=".2726" stop-color="#f8f9fa"/><stop offset=".6715" stop-color="#e4e9ec"/><stop offset="1" stop-color="#cfd8dd"/></linearGradient><linearGradient id="b" gradientUnits="userSpaceOnUse" x1="53" x2="53" xlink:href="#a" y1="59" y2="3.0005"/><linearGradient id="c" gradientUnits="userSpaceOnUse" x1="39" x2="39" xlink:href="#a" y1="59" y2="3.0005"/><linearGradient id="d" gradientUnits="userSpaceOnUse" x1="25" x2="25" xlink:href="#a" y1="59" y2="3.0005"/><linearGradient id="e" gradientUnits="userSpaceOnUse" x1="11" x2="11" xlink:href="#a" y1="59" y2="3.0005"/><linearGradient id="f"><stop offset="0" stop-color="#5b666e"/><stop offset=".0455" stop-color="#576169"/><stop offset=".1007" stop-color="#4c525c"/><stop offset=".1606" stop-color="#3a3a47"/><stop offset=".1879" stop-color="#302c3b"/></linearGradient><linearGradient id="g" gradientUnits="userSpaceOnUse" x1="42" x2="50" xlink:href="#f" y1="26.124" y2="26.124"/><linearGradient id="h"><stop offset="0" stop-color="#5b666e"/><stop offset=".2305" stop-color="#515862"/><stop offset="1" stop-color="#302c3b"/></linearGradient><linearGradient id="i" gradientUnits="userSpaceOnUse" x1="46" x2="46" xlink:href="#h" y1="36" y2="12.0005"/><linearGradient id="j" gradientUnits="userSpaceOnUse" x1="28" x2="36" xlink:href="#f" y1="26.124" y2="26.124"/><linearGradient id="k" gradientUnits="userSpaceOnUse" x1="32.0005" x2="32.0005" xlink:href="#h" y1="36" y2="12.0005"/><linearGradient id="l" gradientUnits="userSpaceOnUse" x1="13" x2="21" xlink:href="#f" y1="26.124" y2="26.124"/><linearGradient id="m" gradientUnits="userSpaceOnUse" x1="17" x2="17" xlink:href="#h" y1="36" y2="12.0005"/><linearGradient id="n" gradientUnits="userSpaceOnUse" x1="32.0005" x2="32.0005" y1="12" y2="2"><stop offset=".4545" stop-color="#302c3b"/><stop offset=".665" stop-color="#322e3d"/><stop offset=".7813" stop-color="#383644"/><stop offset=".8747" stop-color="#424450"/><stop offset=".9553" stop-color="#505861"/><stop offset="1" stop-color="#5b666e"/></linearGradient><path d="m58 2h-52c-1.1 0-2 .899-2 2v56c0 1.1.9 2 2 2h10c1.1 0 2-.9 2-2 0 1.1.9 2 2 2h10c1.1 0 2-.9 2-2 0 1.1.9 2 2 2h10c1.1 0 2-.9 2-2 0 1.1.9 2 2 2h10c1.1 0 2-.9 2-2v-56c0-1.101-.9-2-2-2z" fill="#b3c2c6"/><path d="m59 57c0 1.1-.9 2-2 2h-8c-1.1 0-2-.9-2-2v-52c0-1.101.9-2 2-2h8c1.1 0 2 .899 2 2z" fill="url(#b)"/><path d="m45 57c0 1.1-.9 2-2 2h-8c-1.1 0-2-.9-2-2v-52c0-1.101.9-2 2-2h8c1.1 0 2 .899 2 2z" fill="url(#c)"/><path d="m31 57c0 1.1-.9 2-2 2h-8c-1.1 0-2-.9-2-2v-52c0-1.101.9-2 2-2h8c1.1 0 2 .899 2 2z" fill="url(#d)"/><path d="m17 57c0 1.1-.9 2-2 2h-8c-1.1 0-2-.9-2-2v-52c0-1.101.9-2 2-2h8c1.1 0 2 .899 2 2z" fill="url(#e)"/><path d="m50 39c0 1.1-.9 2-2 2h-4c-1.1 0-2-.9-2-2v-27c0-1.003 8-1.003 8 0z" fill="url(#g)"/><path d="m49 34c0 1.1-.9 2-2 2h-2c-1.1 0-2-.9-2-2v-22h6z" fill="url(#i)"/><path d="m36 39c0 1.1-.9 2-2 2h-4c-1.1 0-2-.9-2-2v-27c0-1.003 8-1.003 8 0z" fill="url(#j)"/><path d="m35 34c0 1.1-.9 2-2 2h-2c-1.1 0-2-.9-2-2v-22h6z" fill="url(#k)"/><path d="m21 39c0 1.1-.9 2-2 2h-4c-1.1 0-2-.9-2-2v-27c0-1.003 8-1.003 8 0z" fill="url(#l)"/><path d="m20 34c0 1.1-.9 2-2 2h-2c-1.1 0-2-.9-2-2v-22h6z" fill="url(#m)"/><path d="m5 12h54c1.1 0 2-.9 2-2v-6c0-1.1-.9-2-2-2h-54c-1.1 0-2 .9-2 2v6c0 1.1.9 2 2 2z" fill="url(#n)"/></svg>