<svg enable-background="new 0 0 64 64" height="64" viewBox="0 0 64 64" width="64" xmlns="http://www.w3.org/2000/svg" xmlns:xlink="http://www.w3.org/1999/xlink"><radialGradient id="a" cx="31.0093" cy="57.0859" gradientTransform="matrix(1.0521 0 0 1.0506 -6.0533 -35.0184)" gradientUnits="userSpaceOnUse" r="32.5953"><stop offset=".2727" stop-color="#d2f205"/><stop offset=".4767" stop-color="#cff006"/><stop offset=".6425" stop-color="#c5ea08"/><stop offset=".7945" stop-color="#b4e10c"/><stop offset=".9273" stop-color="#9ed411"/></radialGradient><radialGradient id="b" cx="34.3125" cy="26.1523" gradientTransform="matrix(1.0014 0 0 1 -.3958 0)" gradientUnits="userSpaceOnUse" r="31.3428"><stop offset=".6" stop-color="#f8ffe8"/><stop offset=".7391" stop-color="#f5fce5"/><stop offset=".8523" stop-color="#edf4db"/><stop offset=".956" stop-color="#dfe5ca"/><stop offset="1" stop-color="#d7ddc0"/></radialGradient><path d="m62 32c0 16.566-13.45 30-30.042 30-1.013 0-2.014-.051-3-.148-.704-2.117-4.225-3.242-5.923-1.197-10.934-3.393-19.191-12.853-20.824-24.436.115-1.953 1.398-7.968-.211-6.485 1.16-15.508 14.128-27.734 29.958-27.734 16.592 0 30.042 13.433 30.042 30z" fill="url(#a)"/><path d="m55.418 30.305c8.782-16.767-15.818-34.745-35.647-24.55-8.287 4.258-15.301 14.188-17.771 23.977.899 2.193.128 5.09.209 6.477 1.47-12.451 10.589-23.149 19.235-28.726 16.219-10.459 40.068 4.492 29.696 20.64-5.813 9.047-29.786 16.406-28.106 32.549 1.178-.371 4.787.051 5.927 1.182-.547-16.446 20.715-20.586 26.457-31.549z" fill="url(#b)"/></svg>