<svg enable-background="new 0 0 64 64" height="64" viewBox="0 0 64 64" width="64" xmlns="http://www.w3.org/2000/svg" xmlns:xlink="http://www.w3.org/1999/xlink"><linearGradient id="a"><stop offset=".1636" stop-color="#ea8800"/><stop offset=".3526" stop-color="#e48402"/><stop offset=".6038" stop-color="#d37806"/><stop offset=".8887" stop-color="#b8650d"/><stop offset="1" stop-color="#ab5c10"/></linearGradient><linearGradient id="b" gradientUnits="userSpaceOnUse" x1="56.2354" x2="59.1308" xlink:href="#a" y1="4.8662" y2="7.7616"/><radialGradient id="c" cx="24.5049" cy="39.4502" gradientUnits="userSpaceOnUse" r="22.5186" xlink:href="#a"/><linearGradient id="d" gradientTransform="matrix(.7071 .7071 -.7071 .7071 139.5791 -216.464)" gradientUnits="userSpaceOnUse" x1="85.8584" x2="107.2061" y1="261.9932" y2="261.9932"><stop offset="0" stop-color="#ff9400"/><stop offset=".1262" stop-color="#fb9200" stop-opacity=".8264"/><stop offset=".7273" stop-color="#ea8800" stop-opacity="0"/></linearGradient><linearGradient id="e"><stop offset="0" stop-color="#5b666e"/><stop offset=".214" stop-color="#505760"/><stop offset=".6273" stop-color="#322e3d"/><stop offset=".6485" stop-color="#302c3b"/></linearGradient><linearGradient id="f" gradientTransform="matrix(.7071 .7071 -.7071 .7071 139.5791 -216.464)" gradientUnits="userSpaceOnUse" x1="96.8486" x2="102.3691" xlink:href="#e" y1="238.1973" y2="238.1973"/><linearGradient id="g" gradientUnits="userSpaceOnUse" x1="10.7422" x2="15.8287" xlink:href="#e" y1="48.1513" y2="53.2378"/><g fill="#302c3b"><path d="m52.833 3.663h4.627v1.168h-4.627z" transform="matrix(-.7075 -.7067 .7067 -.7075 91.1632 46.2223)"/><path d="m56.61 8.258h3.895v1.168h-3.895z" transform="matrix(-.7075 -.7067 .7067 -.7075 93.737 56.4825)"/><path d="m58.059 10.31 1.876.872.963-.964-.873-1.875z"/><path d="m55.882 12.543 1.847.844.896-.896-1.483-1.208z"/><path d="m51.111 6.002h4.628v1.172h-4.628z" transform="matrix(-.7073 -.7069 .7069 -.7073 86.557 49.0137)"/><path d="m53.816 5.013-1.857-.852-.962.963.851 1.855z"/><path d="m55.849 2.98-1.858-.851-.894.895 1.49 1.216z"/><path d="m54.271 10.688h4.616v1.171h-4.616z" transform="matrix(-.7071 -.7071 .7071 -.7071 88.615 59.2524)"/></g><path d="m57.074 3.351 3.574 3.574 1.352-1.957-2.971-2.971z" fill="#ab5c10"/><path d="m52.564 8.536 3.908-2.903.411-1.102 3.824-2.53 1.291 1.287-2.531 3.824-1.105.411-2.901 3.908z" fill="url(#b)"/><path d="m53.607 8.437 5.43-4.497 1.018 1.017-4.496 5.427z" fill="#ab5c10"/><path d="m7.646 37.267c2.827-.273 3.646-1.648 3.775-2.561.47-3.279 1.555-2.59 1.896-1.893 1.863 3.805 5.875.76 6.753.105 3.157-2.357.991-6.334.991-6.334 4.642.328 4.401-3.529 5.484-5.48 4.923-8.873 12.272-1.291 14.919 1.356 2.649 2.647 10.235 9.991 1.358 14.912-1.947 1.083-5.814.847-5.482 5.485 0 0-3.979-2.166-6.336.988-.656.877-3.7 4.887.106 6.75.693.342 1.383 1.424-1.896 1.895-.912.133-2.367.928-2.56 3.773-.459 6.821-9.863 8.5-18.688-.318-8.925-8.924-6.828-18.051-.32-18.678z" fill="url(#c)"/><path d="m27.265 21.928c-1.063 1.794-.53 5.664-4.656 5.599 0 0 1.357 4.191-1.577 6.449-.816.628-6.071 4.364-7.547 1.062-.27-.606-1.204-1.168-1.783 1.781-.162.82-1.714 1.334-4.249 1.718-5.841.879-5.869 9.072 1.645 16.586 5.44 5.44 39.95-23.125 31.543-31.532-2.147-2.146-8.545-9.824-13.376-1.663z" fill="url(#d)"/><path d="m28.736 39.786c.329-.115.825-.197 1.179.158 2.674 2.672-6.266 7.045-4.498 8.813.39.389.733.287.921.18-.029-.221.027-.447.196-.615.29-.289.753-.287 1.039 0 .288.287.29.752.001 1.039-.243.244-.615.268-.898.094-.31.213-1.105.623-1.844-.115-2.525-2.521 6.143-7.238 4.535-8.847-.104-.101-.258-.112-.391-.095-.015.163-.078.328-.203.453-.29.289-.753.287-1.04 0-.288-.285-.288-.752 0-1.039.276-.279.714-.282 1.003-.026z" fill="#302c3b"/><path d="m24.195 35.247c.114-.328.195-.824-.16-1.18-2.672-2.672-7.047 6.264-8.815 4.496-.39-.389-.288-.732-.18-.92.22.027.448-.027.616-.195.287-.287.286-.752 0-1.039-.288-.289-.755-.289-1.041 0-.245.246-.27.613-.094.896-.214.311-.623 1.105.113 1.842 2.524 2.523 7.244-6.139 8.853-4.531.103.104.112.258.097.39-.166.017-.328.077-.454.202-.289.289-.289.754-.001 1.041.287.287.752.289 1.041 0 .275-.277.279-.713.025-1.002z" fill="#302c3b"/><path d="m26.635 33.444 3.906 3.901 25.018-26.961-1.952-1.947z" fill="url(#f)"/><path d="m17.607 41.679h8v1h-8z" fill="#302c3b" transform="matrix(.7072 .707 -.707 .7072 36.1495 -2.9258)"/><path d="m20.29 47.153-.329-.377 3.721-3.254 34.756-37.329.237.237-34.646 37.452z" fill="#d6a57c"/><path d="m16.826 43.69 3.256-3.718 37.477-34.658.237.238-37.354 34.767-3.239 3.702z" fill="#d6a57c"/><path d="m17.871 44.745 2.826-3.441 37.169-35.682.238.237-37.041 35.783-2.805 3.421z" fill="#d6a57c"/><path d="m19.234 46.108-.318-.386 3.443-2.825 35.772-37.011.235.236-35.667 37.143z" fill="#d6a57c"/><path d="m21.113 47.952s-2.103 1.256-2.862 1.541c-.683.258-2.204.299-2.843.65-2.049 1.133-6.623 6.619-6.623 6.619l-1.576-1.574s5.488-4.572 6.621-6.619c.354-.639.395-2.16.652-2.842.285-.762 1.544-2.861 1.544-2.861z" fill="url(#g)"/><path d="m-5.623 36.021h65.752v1.489h-65.752z" fill="#ffe1bd" transform="matrix(-.707 -.7072 .7072 -.707 20.5196 82.0317)"/><path d="m3.11 14.942h6.135v1.486h-6.135z" fill="#99a8ae" transform="matrix(-.707 -.7072 .7072 -.707 -.5467 31.1436)"/><path d="m-1.412 29.347h53.865v1.492h-53.865z" fill="#ab5c10" transform="matrix(-.7071 -.7071 .7071 -.7071 22.2888 69.4177)"/><path d="m48.082 53.708 3.33 3.343 1.061-1.061-3.337-3.337z" fill="#302c3b"/><path d="m51.621 57.24 2.28 2.293 1.058-1.056-2.287-2.288z" fill="#ab5c10"/><path d="m44.038 49.664 4.037 4.05 1.061-1.061-4.043-4.044z" fill="#99a8ae"/><path d="m47.915 58.486 3.518 3.517 2.064-4.988-2.055-2.056z" fill="#302c3b"/><path d="m5.538 16.098-3.517-3.518 4.981-2.06 2.056 2.055z" fill="#ab5c10"/></svg>