<svg enable-background="new 0 0 64 64" height="64" viewBox="0 0 64 64" width="64" xmlns="http://www.w3.org/2000/svg" xmlns:xlink="http://www.w3.org/1999/xlink"><linearGradient id="a" gradientUnits="userSpaceOnUse" x1="58.1445" x2="59.5608" y1="15.0581" y2="12.3076"><stop offset=".1212" stop-color="#302c3b"/><stop offset=".2424" stop-color="#393945"/><stop offset=".4695" stop-color="#454a53"/><stop offset=".7132" stop-color="#4c555b"/><stop offset="1" stop-color="#4e585e"/></linearGradient><linearGradient id="b" gradientUnits="userSpaceOnUse" x1="43.1934" x2="17.4525" y1="46.876" y2="18.2286"><stop offset="0" stop-color="#ffb300"/><stop offset=".4893" stop-color="#ffc713"/><stop offset="1" stop-color="#ffe12c"/></linearGradient><radialGradient id="c" cx="16.0273" cy="26.1191" gradientTransform="matrix(.9502 -.3115 .0757 .2308 -1.1788 25.0832)" gradientUnits="userSpaceOnUse" r="14.7621"><stop offset=".5212" stop-color="#ffb300"/><stop offset=".6544" stop-color="#ffba06"/><stop offset=".8441" stop-color="#ffcc18"/><stop offset="1" stop-color="#ffe12c"/></radialGradient><linearGradient id="d" gradientUnits="userSpaceOnUse" x1="16.5771" x2="15.5113" y1="28.8452" y2="23.5139"><stop offset="0" stop-color="#915c2b"/><stop offset=".2111" stop-color="#b8811c"/><stop offset=".4223" stop-color="#d79e10"/><stop offset=".628" stop-color="#edb307"/><stop offset=".8241" stop-color="#fac002"/><stop offset="1" stop-color="#ffc400"/></linearGradient><g fill="#f59e01"><path d="m23.635 44.32-.605-.381 14.279-32.8.504.45z"/><path d="m19.082 42.691.384-.6 6.434 2.93-.276.577z"/><path d="m37.095 11.875.214-.736 6.604 3.067-.275.576z"/></g><path d="m58.961 12.744c.014-1.199-2.17-2.367-2.17-2.367-1.847.829-1.615 2.805-1.615 2.805s3.026 2.767 6.582 3.044c1.298.101-2.817-1.763-2.797-3.482z" fill="url(#a)"/><path d="m31.941 51.598-3.256-1.506 4.247-9.026 2.533 1.171z" fill="#f59e01"/><path d="m36.756 38.479-3.257-1.506 9.35-24.451 2.533 1.172z" fill="#f59e01"/><path d="m55.304 12.899c1.244-.866 1.302-1.822 1.268-2.188-4.157-5.738-9.54-12.915-13.936-5.63-4.705 7.798-10.304 25.458-18.468 39.35-1.808 3.076-4.704 1.678-3.081-.738 4.831-7.2 7.565-12.283 6.927-20.627l-24.136 6.907c4.591 5.785.854 12.761.266 19.015-1.408 14.976 19.776 19.269 27.07.784 9.324-23.628 11.39-31.779 15.165-40.66 1.493-3.513 4.605-.34 8.925 3.787z" fill="url(#b)"/><path d="m29.104 20.543c10.74 3.646-31.505 18.425-26.738 8.966 2.397-4.757 20.835-10.968 26.738-8.966z" fill="url(#c)"/><path d="m27.313 22.099c.613 1.184-3.263 3.455-9.78 5.647-6.511 2.19-12.289 3.011-12.899 1.827-.61-1.186 4.175-3.92 10.688-6.112 6.514-2.192 11.381-2.545 11.991-1.362z" fill="url(#d)"/><path d="m24.728 33.447c.343 3.336-5.743 3.411-5.153.429.533-2.682 4.85-3.367 5.153-.429z" fill="#f59e01"/><path d="m25.178 32.154c.403 3.916-6.743 4.003-6.049.501.624-3.148 5.692-3.952 6.049-.501z" fill="#ffe12c"/><path d="m20.81 40.183c.343 3.336-5.743 3.409-5.152.428.532-2.683 4.849-3.368 5.152-.428z" fill="#f59e01"/><path d="m21.261 38.888c.402 3.917-6.744 4.005-6.049.501.624-3.147 5.692-3.952 6.049-.501z" fill="#ffe12c"/><path d="m27.149 41.121c-.344 3.336 5.742 3.41 5.152.429-.532-2.683-4.849-3.368-5.152-.429z" fill="#f59e01"/><path d="m26.698 39.827c-.402 3.916 6.744 4.004 6.049.501-.624-3.147-5.692-3.952-6.049-.501z" fill="#ffe12c"/><path d="m29.261 39.53c-3.867.163-4.065 1.545.009 1.364.643-.029.613-1.39-.009-1.364z" fill="#f59e01"/><path d="m30.075 33.923c-.287 2.792 4.805 2.854 4.311.36-.447-2.244-4.058-2.818-4.311-.36z" fill="#f59e01"/><path d="m29.698 32.841c-.337 3.277 5.642 3.35 5.06.419-.522-2.632-4.762-3.305-5.06-.419z" fill="#ffe12c"/><path d="m31.841 32.594c-3.234.136-3.4 1.292.008 1.141.539-.025.512-1.163-.008-1.141z" fill="#f59e01"/><path d="m32.419 27.741c-.287 2.792 4.806 2.853 4.311.359-.446-2.244-4.058-2.818-4.311-.359z" fill="#f59e01"/><path d="m32.042 26.659c-.337 3.276 5.642 3.351 5.061.42-.522-2.634-4.763-3.307-5.061-.42z" fill="#ffe12c"/><path d="m34.186 26.411c-3.235.137-3.401 1.293.008 1.142.537-.025.512-1.165-.008-1.142z" fill="#f59e01"/><path d="m35.142 21.607c-.287 2.792 4.806 2.854 4.311.359-.446-2.245-4.058-2.817-4.311-.359z" fill="#f59e01"/><path d="m34.765 20.525c-.337 3.275 5.642 3.351 5.06.419-.522-2.632-4.762-3.307-5.06-.419z" fill="#ffe12c"/><path d="m36.908 20.277c-3.235.137-3.401 1.292.008 1.142.538-.025.513-1.165-.008-1.142z" fill="#f59e01"/><path d="m37.485 15.098c-.287 2.79 4.806 2.853 4.311.358-.445-2.245-4.057-2.817-4.311-.358z" fill="#f59e01"/><path d="m37.109 14.014c-.338 3.277 5.641 3.351 5.06.42-.522-2.633-4.763-3.306-5.06-.42z" fill="#ffe12c"/><path d="m39.252 13.767c-3.235.136-3.4 1.292.008 1.142.538-.025.512-1.163-.008-1.142z" fill="#f59e01"/><path d="m21.074 32.184.384-.601 6.435 2.931-.277.576z" fill="#f59e01"/><path d="m18.123 38.551.384-.6 6.434 2.93-.276.577z" fill="#f59e01"/><path d="m4.02 48.553c-.146-.103.086-1.173.243-1.088 2.997 1.628 13.375 2.404 16.35-2.487.168-.275.479.64.4.778-3.107 5.469-14.652 4.451-16.993 2.797z" fill="#ffae00"/><path d="m32.342 47.106c-2.999-.28-5.935-1.927-7.4-4.062-.125-.182-.56.669-.473.872.539 1.246 3.814 4.334 7.521 4.179.094-.003.543-.971.352-.989z" fill="#ffae00"/><path d="m22.497 46.965c2.684 2.039-1.434 6.486-3.217 4.016-1.603-2.224.854-5.811 3.217-4.016z" fill="#f59e01"/><path d="m21.856 45.752c3.15 2.395-1.684 7.616-3.778 4.713-1.882-2.609 1.003-6.821 3.778-4.713z" fill="#ffe12c"/><path d="m19.883 47.4c2.771-2.684 3.921-1.878.996.941-.464.445-1.441-.51-.996-.941z" fill="#f59e01"/></svg>