<svg enable-background="new 0 0 64 64" height="64" viewBox="0 0 64 64" width="64" xmlns="http://www.w3.org/2000/svg" xmlns:xlink="http://www.w3.org/1999/xlink"><linearGradient id="a"><stop offset=".5879" stop-color="#fff"/><stop offset=".7082" stop-color="#f4f6f7"/><stop offset=".9161" stop-color="#d8dfe3"/><stop offset="1" stop-color="#cbd4d9"/></linearGradient><radialGradient id="b" cx="12.0664" cy="32" gradientTransform="matrix(-.00000004 -1 3 -.00000013 -83.9336 44.0664)" gradientUnits="userSpaceOnUse" r="16.9634" xlink:href="#a"/><linearGradient id="c"><stop offset="0" stop-color="#2289c7"/><stop offset="1" stop-color="#005687"/></linearGradient><linearGradient id="d" gradientUnits="userSpaceOnUse" x1="13.0439" x2="13.0439" xlink:href="#c" y1="15" y2="10"/><linearGradient id="e"><stop offset="0" stop-color="#cf0000"/><stop offset=".2717" stop-color="#dd0004"/><stop offset="1" stop-color="#ff000e"/></linearGradient><linearGradient id="f" gradientUnits="userSpaceOnUse" x1="13.5776" x2="13.5776" xlink:href="#e" y1="54" y2="49.584"/><radialGradient id="g" cx="32" cy="32" gradientTransform="matrix(-.00000004 -1 3 -.00000013 -64 64)" gradientUnits="userSpaceOnUse" r="16.7931" xlink:href="#a"/><linearGradient id="h" gradientUnits="userSpaceOnUse" x1="32.0015" x2="32.0015" xlink:href="#c" y1="15" y2="10"/><linearGradient id="i" gradientUnits="userSpaceOnUse" x1="32.0015" x2="32.0015" xlink:href="#e" y1="54" y2="49.502"/><radialGradient id="j" cx="51.9336" cy="32" gradientTransform="matrix(-.00000004 -1 3 -.00000013 -44.0664 83.9336)" gradientUnits="userSpaceOnUse" r="16.9634" xlink:href="#a"/><linearGradient id="k" gradientUnits="userSpaceOnUse" x1="50.957" x2="50.957" xlink:href="#c" y1="15" y2="10"/><linearGradient id="l" gradientUnits="userSpaceOnUse" x1="50.4238" x2="50.4238" xlink:href="#e" y1="54" y2="49.584"/><linearGradient id="m" gradientUnits="userSpaceOnUse" x1="4.4824" x2="17.7852" y1="32.5645" y2="32.5645"><stop offset="0" stop-color="#ff000e"/><stop offset=".7283" stop-color="#dd0004"/><stop offset="1" stop-color="#cf0000"/></linearGradient><linearGradient id="n" gradientUnits="userSpaceOnUse" x1="45.5566" x2="58.8594" y1="32.5645" y2="32.5645"><stop offset="0" stop-color="#4ecee6"/><stop offset=".1981" stop-color="#46c9e8"/><stop offset=".5045" stop-color="#30baec"/><stop offset=".8791" stop-color="#0da3f4"/><stop offset="1" stop-color="#009af7"/></linearGradient><path d="m2 7h60v50h-60z" fill="#302c3b"/><path d="m5.66 54h15.973c-1.658-14.299-1.658-29.701 0-44-5.324 0-10.648 0-15.973 0-4.213 14.299-4.213 29.701 0 44z" fill="url(#b)"/><path d="m20.32 15c-5.025 0-10.053 0-15.078 0 .352-1.604.754-3.42 1.207-5h14.396c-.197 1.58-.37 3.396-.525 5z" fill="url(#d)"/><path d="m20.498 54c-.699-5.984-15.412-5.791-13.703 0z" fill="url(#f)"/><path d="m24.014 54h15.973c1.279-14.299 1.279-29.701 0-44-5.324 0-10.646 0-15.973 0-1.28 14.299-1.28 29.701 0 44z" fill="url(#g)"/><path d="m39.539 15c-5.025 0-10.051 0-15.076 0 .098-1.604.211-3.42.338-5h14.398c.129 1.58.24 3.396.34 5z" fill="url(#h)"/><path d="m38.854 54c.535-5.998-14.24-5.998-13.705 0z" fill="url(#i)"/><path d="m42.367 54h15.973c4.213-14.299 4.213-29.701 0-44-5.324 0-10.648 0-15.973 0 1.658 14.299 1.658 29.701 0 44z" fill="url(#j)"/><path d="m58.76 15c-5.027 0-10.053 0-15.08 0-.152-1.604-.328-3.42-.525-5h14.398c.451 1.58.853 3.396 1.207 5z" fill="url(#k)"/><path d="m57.207 54c1.705-5.791-13.006-5.984-13.705 0z" fill="url(#l)"/><path d="m14.369 39.543h-7.527s.592-5.326 4.852-8.846c0 0-4.633-1.395-5.986 2.207h-1.745v-6.896h1.744v.756s4.635-2.977 9.697.361l.828-.461 2.73.035c.001 0-4.593 4.653-4.593 12.844z" fill="#302c3b"/><path d="m13.746 38.939h-6.144s.922-5.154 5.406-8.598c0 0-5.852-2.158-7.75 2.066h-.776v-5.799h.705v1.041s5.553-3.451 10.217.256l.967-.641h1.414c0 .002-4.039 4.886-4.039 11.675z" fill="url(#m)"/><path d="m34.906 39.543h-7.529s.594-5.326 4.852-8.846c0 0-4.631-1.395-5.984 2.207h-1.745v-6.896h1.744v.756s4.635-2.977 9.697.361l.828-.461 2.73.035c.001 0-4.593 4.653-4.593 12.844z" fill="#302c3b"/><path d="m34.283 38.939h-6.145s.922-5.154 5.406-8.598c0 0-5.852-2.158-7.752 2.066h-.772v-5.799h.705v1.041s5.553-3.451 10.217.256l.967-.641h1.414c-.001.002-4.04 4.886-4.04 11.675z" fill="#fff"/><path d="m55.443 39.543h-7.529s.594-5.326 4.852-8.846c0 0-4.631-1.395-5.984 2.207h-1.744v-6.896h1.744v.756s4.635-2.977 9.697.361l.828-.461 2.73.035s-4.594 4.653-4.594 12.844z" fill="#302c3b"/><path d="m54.82 38.939h-6.145s.922-5.154 5.406-8.598c0 0-5.852-2.158-7.752 2.066h-.773v-5.799h.705v1.041s5.553-3.451 10.217.256l.967-.641h1.414c0 .002-4.039 4.886-4.039 11.675z" fill="url(#n)"/></svg>