<svg enable-background="new 0 0 64 64" height="64" viewBox="0 0 64 64" width="64" xmlns="http://www.w3.org/2000/svg" xmlns:xlink="http://www.w3.org/1999/xlink"><radialGradient id="a" cx="29.3975" cy="26.4795" gradientTransform="matrix(1 0 0 .7174 0 7.4833)" gradientUnits="userSpaceOnUse" r="31.7773"><stop offset="0" stop-color="#ecf1f5"/><stop offset=".4062" stop-color="#e9eff3"/><stop offset=".6887" stop-color="#e0e7eb"/><stop offset=".9329" stop-color="#d1d9de"/><stop offset="1" stop-color="#cbd4d9"/></radialGradient><linearGradient id="b" gradientUnits="userSpaceOnUse" x1="39.6729" x2="32.9226" y1="62.209" y2="35.208"><stop offset="0" stop-color="#bac3c6"/><stop offset=".3428" stop-color="#bec7ca"/><stop offset=".6719" stop-color="#c9d2d5"/><stop offset=".9953" stop-color="#dde4e8"/><stop offset="1" stop-color="#dde4e8"/></linearGradient><linearGradient id="c" gradientUnits="userSpaceOnUse" x1="2" x2="29.0127" y1="27.7559" y2="27.7559"><stop offset="0" stop-color="#dbe3e6"/><stop offset=".882" stop-color="#f2f8fc"/><stop offset="1" stop-color="#f6fbff"/></linearGradient><linearGradient id="d" gradientUnits="userSpaceOnUse" x1="33.8975" x2="52.3059" y1="30.1035" y2="11.6951"><stop offset="0" stop-color="#f6fbff"/><stop offset=".118" stop-color="#f2f8fc"/><stop offset="1" stop-color="#dbe3e6"/></linearGradient><path d="m61.77 36.938c-.319-.147-34.534-34.334-34.706-34.705-.24-.514-2.459.016-4.959 1.182s-4.332 2.525-4.094 3.039c.115.248-9.191 41.664-9.357 41.832-.4.4.855 2.305 2.805 4.256 1.951 1.951 3.855 3.207 4.258 2.807.203-.205 41.518-9.504 41.831-9.359.512.24 1.875-1.594 3.039-4.092 1.167-2.502 1.694-4.722 1.183-4.96z" fill="url(#a)"/><path d="m56.326 41.246-19.719-5.953c-2.68-.811-6.364.043-8.227 1.906l-13.701 13.701c-1.863 1.863-1.199 4.031 1.482 4.84l19.719 5.953c2.678.811 6.363-.043 8.225-1.904l13.703-13.705c1.862-1.861 1.2-4.029-1.482-4.838z" fill="url(#b)"/><path d="m4.212 19.895c-1.863 1.863-2.717 5.545-1.906 8.227l5.955 19.718c.809 2.682 2.975 3.344 4.838 1.48l13.701-13.701c1.863-1.863 2.717-5.546 1.906-8.226l-5.953-19.721c-.809-2.68-2.977-3.344-4.838-1.48z" fill="url(#c)"/><path d="m54.957 15.739c-.92-2.777-3.92-5.775-6.693-6.695l-20.429-6.774c-2.777-.92-4.281.586-3.361 3.363l6.773 20.426c.918 2.777 3.917 5.775 6.694 6.695l20.428 6.771c2.775.92 4.281-.586 3.361-3.361z" fill="url(#d)"/><path d="m40.16 16.745c-1.061 0-1.838.408-2.072 1.219-.479 1.621 1.387 4.248 4.154 5.871 1.385.814 2.732 1.219 3.795 1.219 1.061 0 1.838-.404 2.078-1.219.477-1.623-1.385-4.25-4.156-5.871-1.381-.811-2.732-1.219-3.799-1.219z" fill="#e81c27"/><g fill="#1a1626"><path d="m27.718 49.793c.818.289 1.303.813 1.262 1.498-.078 1.375-2.223 2.883-4.789 3.371-1.283.244-2.426.189-3.242-.104-.814-.287-1.301-.813-1.26-1.496.078-1.373 2.223-2.883 4.789-3.375 1.285-.242 2.43-.185 3.24.106z"/><path d="m40.137 47.002c.816.289 1.299.811 1.264 1.498-.082 1.373-2.219 2.881-4.789 3.371-1.281.242-2.428.186-3.24-.104-.813-.289-1.299-.813-1.26-1.5.078-1.373 2.221-2.881 4.786-3.371 1.28-.244 2.426-.185 3.239.106z"/><path d="m52.043 44.568c.814.291 1.301.811 1.262 1.5-.078 1.375-2.219 2.883-4.785 3.369-1.285.246-2.43.188-3.244-.102s-1.297-.811-1.26-1.498c.076-1.375 2.221-2.881 4.783-3.371 1.285-.245 2.433-.185 3.244.102z"/></g><path d="m20.972 25.024c.734-.576 1.494-.715 2.098-.283 1.205.865 1.342 3.691.307 6.313-.518 1.313-1.232 2.322-1.969 2.9-.734.576-1.49.715-2.098.279-1.203-.863-1.342-3.685-.307-6.308.522-1.313 1.235-2.325 1.969-2.901z" fill="#302c3b"/><path d="m9.605 21.563c.734-.576 1.492-.717 2.096-.285 1.205.865 1.344 3.691.307 6.313-.518 1.311-1.232 2.322-1.965 2.9-.738.574-1.494.715-2.096.281-1.211-.865-1.348-3.688-.311-6.311.52-1.312 1.233-2.32 1.969-2.898z" fill="#302c3b"/></svg>