<svg enable-background="new 0 0 64 64" height="64" viewBox="0 0 64 64" width="64" xmlns="http://www.w3.org/2000/svg" xmlns:xlink="http://www.w3.org/1999/xlink"><linearGradient id="a" gradientTransform="matrix(1 0 0 -1 -56 -80)" gradientUnits="userSpaceOnUse" x1="69.5215" x2="105.1248" y1="-136.311" y2="-132.5964"><stop offset="0" stop-color="#b9f44c"/><stop offset=".1759" stop-color="#95e76c"/><stop offset=".3211" stop-color="#7ede81"/><stop offset=".4131" stop-color="#76db88"/><stop offset=".637" stop-color="#4ac5a3"/><stop offset=".8767" stop-color="#20b0bc"/><stop offset="1" stop-color="#10a8c6"/></linearGradient><radialGradient id="b" cx="61.0381" cy="-1576.2769" gradientTransform="matrix(.9996 -.0698 -.0147 -.2105 -52.2908 -274.1669)" gradientUnits="userSpaceOnUse" r="30.2132"><stop offset=".6319" stop-color="#fff" stop-opacity=".3"/><stop offset=".7129" stop-color="#e5e5e6" stop-opacity=".328"/><stop offset=".8593" stop-color="#a3a1a7" stop-opacity=".3882"/><stop offset="1" stop-color="#393644" stop-opacity=".4752"/></radialGradient><path d="m59.484 51.285c-.125-.592 1.908-1.492.736-2.369-12.521-4.447-43.479-.775-57.969 7.497-.41.236-.254.953.004 1.053 6.646 2.596 15.418 3.621 24.254 3.529 14.73-.15 29.641-3.404 35.176-7.667 1.26-.967-1.63-1.213-2.201-2.043z" fill="url(#a)"/><path d="m59.484 51.285c-.125-.592 1.908-1.492.736-2.369-12.521-4.447-43.479-.775-57.969 7.497-.41.236-.254.953.004 1.053 6.646 2.596 15.418 3.621 24.254 3.529 14.73-.15 29.641-3.404 35.176-7.667 1.26-.967-1.63-1.213-2.201-2.043z" fill="url(#b)" opacity=".25"/><path d="m13.334 55.467c-.375-.777.449-1.576 1.859-1.787 1.398-.205 2.848.254 3.223 1.031.377.779-.463 1.579-1.859 1.788-1.412.209-2.846-.254-3.223-1.032zm-.844.125c.498 1.038 2.416 1.655 4.291 1.376 1.863-.275 2.982-1.344 2.482-2.382-.502-1.035-2.434-1.65-4.295-1.373-1.878.277-2.982 1.344-2.478 2.379z" fill="#a6dd3a"/><path d="m16.033 54.664c.029.061-.012.102-.127.119l-.336.051c-.113.016-.186-.008-.217-.068l-.297-.609c-.027-.063.014-.104.127-.121l.168-.023c1.074-.16 2.186.193 2.473.789.143.291.059.596-.215.851-.047.055-.129.066-.236.035l-.447-.147c-.107-.033-.129-.076-.064-.133.141-.143.193-.314.113-.48-.131-.27-.564-.453-1.041-.467z" fill="#a6dd3a"/><path d="m55.184 22.802c-.225-.719-2.496-.525-5.012 0-2.371.492-4.209-.693-6.326-.656l-5.383-2.01c-.344 1.203-.371 2.287-.734 3.484 2.035.652 3.902.992 5.096 1.23 2.707.631 7.541-.205 7.541-.205 4.07.729 4.391.625 2.73-.217-.033-.344 1.191-.352 2.568-.438 2.731-.17-.48-1.188-.48-1.188z" fill="#e3c19b"/><path d="m6.291 29.857c-.107-.744 2.021-1.551 4.516-2.164 2.354-.582 3.492-2.443 5.418-3.324l3.879-3.914c.832.936.65 2.352 1.5 3.271-1.549 1.469-2.311 1.91-3.281 2.641-2.166 1.736-6.885 3.07-6.885 3.07-3.352 2.414-3.686 2.459-2.555.984-.121-.322-1.227.197-2.506.715-2.535 1.024-.086-1.279-.086-1.279z" fill="#e3c19b"/><g clip-rule="evenodd" fill-rule="evenodd"><path d="m40.508 34.758c-.422-.299-4.537-2.532-7.771-3.075-.352-.955.275-4.232 1.219-4.721 1.664-.861 1.625-2.787 1.857-3.893 0 0 1.201.248 1.916.551 0 0 1.195-1.602.762-3.484-.998-.703-2.541-2.07-4.895-2.561-.98-.203-4.295-.76-5.371-.748-2.977.027-5.672.486-8.121 3.627.32 2.129 1.5 3.271 1.5 3.271s1.783-1.246 2.754-1.549c1.59 7.975-6.188 10.467.805 18.147 4.959-1.355 5.824-.83 4.959-3.25 2.049.512 2.08 1.213 7.27 2.148 1.424.259 4.081-3.783 3.116-4.463z" fill="#8e3ed6"/><path d="m24.357 22.177c1.313 7.713-5.668 9.92 1.506 17.493.23-.064.316-.625.529-.682-6.39-7.352.292-10.192-2.035-16.811z" fill="#c28fef"/><path d="m43.061 38.439c.121-1.551-.012-2.576-2.553-3.682-2.229-.256-3.664 3.215-3.117 4.465.486.227 1.74.404 1.74.404-.352 2.914 2.084 4.895 2.541 8.305.24 1.793-.715 2.92 1.666 3.34 1.633.287 2.658 2.324 5.283.475 1.273-.896-3.875-1.242-4.846-3.596-.384-.937-.824-8.316-.714-9.711z" fill="#e3c19b"/><path d="m29.998 42.645c.977-1.25 1.176-2.994.393-4.629-2.223-.707-4.932.336-5.229 2.309.324.482.766.697.766.697-1.939 2.273-.793 5.41-2.264 8.588-.773 1.672-2.283 2.063-.316 3.838 1.346 1.217 1.16 3.565 4.607 3.554 1.672-.006-2.885-3.366-2.475-5.95.165-1.031 3.645-7.284 4.518-8.407z" fill="#e3c19b"/></g><path d="m38.576 20.744c-.996-.701-2.092-2.857-5.455-3.623-.975-.221-3.813-.563-4.889-.553-2.979.029-5.621 1.053-8.07 4.195 0 0 0 .359.188.748 1.502-1.865 3.053-3.014 4.715-3.625.986.398 4.297 1.994 5.809 6.016 1.963-3.727 4.094-4.514 4.955-4.688 1.146.869 2.078 1.947 2.707 2.391-.001 0 .142-.416.04-.861z" fill="#c28fef"/><path d="m47.043 19.144c-.709-.027-1.607-1.1-2.412-2.518.691.127 1.436.082 2.25-.242-6.686-2.484-4.199-16.702-13.061-12.378l1.289 4.04c5.164-3.026 3.998 10.995 11.934 11.098z" fill="#efde8b"/><path d="m47.043 19.144c-.709-.027-3.059-1.334-3.861-2.754 1.949.719 3.004.678 3.699-.006-7.596-.961-5.322-14.956-12.119-10.188l.348 1.851c4.628-1.666 1.447 11.37 11.933 11.097z" fill="#ba9d52"/><path d="m33.268 3.688c-1.445.611 2.227 6.997 3.656 4.86 1.512-2.253-1.584-5.735-3.656-4.86z" fill="#8e3ed6"/><path d="m33.207 17.103c0 2.691-5.125 2.691-5.125 0 0-.803 0-3.088 0-3.088h5.125z" fill="#d6a67a"/><path d="m35.242 13.406c1.482 1.471 2.959-3.867 1.066-3.523-.884.161-1.753 2.839-1.066 3.523z" fill="#d6a67a"/><path d="m26.055 13.406c.688-.684-.182-3.361-1.066-3.523-1.893-.344-.417 4.993 1.066 3.523z" fill="#d6a67a"/><path d="m30.646 3.688c-3.945 0-5.846 3.2-5.607 7.317.047.826.279 2.02.566 3.043.59 2.125 3.713 4.264 5.041 4.264 1.332 0 4.451-2.139 5.045-4.264.285-1.023.516-2.217.564-3.043.239-4.117-1.659-7.317-5.609-7.317z" fill="#e3c19b"/><path d="m34.996 9.507c-.891-.525-2.484-.592-3.117-.23-.131.072-.094.455.02.406.9-.373 2.271-.393 3.117.039.113.059.115-.137-.02-.215z" fill="#594640"/><path d="m26.303 9.507c.885-.525 2.48-.592 3.113-.23.133.072.098.455-.02.406-.9-.373-2.27-.393-3.113.039-.115.059-.119-.137.02-.215z" fill="#594640"/><path d="m31.869 13.484c0 .793-2.443.793-2.443 0 0-.184 2.443-.184 2.443 0z" fill="#d6a67a"/><path d="m34.91 11.119c-.525 1.371-2.672 1.17-3.063.209.296-1.547 2.77-1.678 3.063-.209z" fill="#fff"/><path d="m32.383 10.966c0 1.219 1.77 1.219 1.77 0-.001-1.131-1.77-1.131-1.77 0z" fill="#613f34"/><path d="m32.559 11.355c0 .699 1.418.699 1.418 0 0-.647-1.418-.647-1.418 0z" fill="#7d5037"/><path d="m32.9 10.988c0 .504.732.504.732 0 .001-.471-.732-.471-.732 0z" fill="#1a1626"/><path d="m32.65 10.837c0 .256.371.256.371 0 0-.236-.371-.236-.371 0z" fill="#ab968c"/><path d="m34.91 11.107c0-1.479-3.063-1.479-3.063.232.436-1.404 2.626-1.404 3.063-.232z" fill="#45332c"/><path d="m26.385 11.119c.529 1.371 2.674 1.17 3.066.209-.299-1.547-2.775-1.678-3.066-.209z" fill="#fff"/><path d="m27.146 10.97c0 1.217 1.766 1.217 1.766 0 0-1.131-1.766-1.131-1.766 0z" fill="#613f34"/><path d="m27.322 11.359c0 .697 1.414.697 1.414 0 0-.649-1.414-.649-1.414 0z" fill="#7d5037"/><path d="m27.658 10.99c0 .504.736.504.736 0 .001-.471-.736-.471-.736 0z" fill="#1a1626"/><path d="m27.41 10.841c0 .254.373.254.373 0 0-.238-.373-.238-.373 0z" fill="#ab968c"/><path d="m26.385 11.107c0-1.479 3.066-1.479 3.066.23-.437-1.402-2.629-1.402-3.066-.23z" fill="#45332c"/><path d="m36.256 11.281c-.828-4.25-4.777-3.701-1.998-6.538 1.738-.545 3.763 4.028 1.998 6.538z" fill="#efde8b"/><path d="m34.258 4.741c-1.688 4.229-7.729 3.667-9.24 6.269-.607-2.17-.305-6.304 3.51-7.626 3.445-1.192 6.167.712 5.73 1.357z" fill="#efde8b"/><path d="m34.258 4.743c-.977 2.427-4.234 1.905-8.445 3.728 3.914-2.756 5.531-1.557 8.445-3.728z" fill="#ba9d52"/><path d="m34.258 4.741c-1.516 4.858-6.932 3.804-9.24 6.269 1.021-2.884 6.711-2.251 9.24-6.269z" fill="#ba9d52"/><path d="m36.232 8.599c-1.363-3.753-3.299-2.243-2.922-3.229 1.124-.578 2.61.621 2.922 3.229z" fill="#ba9d52"/><path d="m30.648 14.861c-.928-.408-.938-.018-2.367.078.537.607.934 1.389 2.365 1.389 1.646 0 1.924-.887 2.367-1.389-1.429-.096-1.437-.486-2.365-.078z" fill="#c97e55"/><path d="m28.711 15.089c.936.969 2.949.957 3.875 0-1.441.155-2.434.155-3.875 0z" fill="#fff"/><path d="m25.705 23.902c-.398 1.818 2.109 3.49 3.486 2.432-1.296.113-2.935-1.376-3.486-2.432z" fill="#792cbf"/></svg>