<svg enable-background="new 0 0 64 64" height="64" viewBox="0 0 64 64" width="64" xmlns="http://www.w3.org/2000/svg"><path d="m62 39.102s-40.413 6.606-60 4.014v18.884h60z" fill="#18b5f8"/><path d="m10.454 16.313c-.267.419-.11 1.471.983 1.29 2.376-.394 1.752-1.788 4.729-2.4-1.024-3.358-5.335.518-5.712 1.11z" fill="#e6b045"/><path d="m47.209 31.271c-1.877-9.886-4.998-20.026-7.176-20.426-4.783-1.048-22.408-1.012-24.002-.488-.82.27-5.011 1.544-8.136 2.167-.563.112-2.393 1.959-3.541 2.757-1.628 1.13-.374 2.477.88 1.75 1.125-.653 2.457-1.71 3.286-1.978 2.792-.901 5.354 1.881 8.687-.435 6.682-.472 17.714 2.586 18.201 3.766 3 7.276 1.271 10.343 2.684 15.922-.926 2.039-5.043 13.611-1.502 13.611 10.502 0 16.689-3.246 25.41-3.246v-9.238c-3.373-.001-9.273-3.361-14.791-4.162z" fill="#fc6"/><g fill="#e6b045"><path d="m36.867 48.27c4.473-4.377 4.471-5.258-.002-9.634z"/><path d="m23.109 32.955s5.971 3.613 6.465 1.985c1.484-4.892-7.457-1.868-6.465-1.985z"/><path d="m23.109 53.951s5.971-3.611 6.465-1.984c1.484 4.891-7.457 1.867-6.465 1.984z"/></g><path d="m11.619 43.455c0 7.271 5.48 10.777 13.105 10.339 1.533-.089 6.537-1.041 8.331-1.944 1.838-.924 4.668-4.006 5.254-5.896.369-1.193.369-3.805 0-4.998-.586-1.891-3.416-4.975-5.254-5.896-1.793-.903-6.797-1.854-8.331-1.943-7.625-.441-13.105 3.065-13.105 10.338z" fill="#fc6"/><path d="m29.677 41.199c1.461 0 1.461 4.509 0 4.509-.336 0-.336-4.509 0-4.509z" fill="#e6b045"/><path d="m22.261 35.266c-.82 1.664-.861 4.845-.287 6.03.109.253.891.087.816-.128-.611-1.653-.625-4.317.053-5.864.086-.209-.467-.294-.582-.038z" fill="#c1873c"/><path d="m22.261 51.646c-.82-1.664-.861-4.848-.287-6.033.109-.256.891-.087.816.127-.611 1.656-.625 4.316.053 5.868.086.205-.467.29-.582.038z" fill="#c1873c"/><path d="m24.523 32.465c-17.533-2.281-17.533 24.258 0 21.979-3.197-3.016-3.197-18.965 0-21.979z" fill="#e81c27"/><path d="m25.771 34.415c3.967 0 3.967 8.132 0 8.132-3.969 0-3.969-8.132 0-8.132z" fill="#302c3b"/><path d="m25.771 35.432c2.381 0 2.381 6.1 0 6.1-2.383-.001-2.383-6.1 0-6.1z" fill="#44618b"/><path d="m25.771 44.36c3.967 0 3.967 8.132 0 8.132-3.969 0-3.969-8.132 0-8.132z" fill="#302c3b"/><path d="m25.771 45.375c2.381 0 2.381 6.102 0 6.102-2.383 0-2.383-6.102 0-6.102z" fill="#44618b"/><path d="m24.878 41.93h1.787v3.049h-1.787z" fill="#006dae"/><path d="m26.666 33.301v1.748h-1.788v-1.996z" fill="#006dae"/><path d="m26.666 51.858v1.749l-1.788.248v-1.997z" fill="#006dae"/><path d="m35.076 41.852c1.418 0 1.418 3.205 0 3.205-2.752 0-2.752-3.205 0-3.205z" fill="#45332c"/><path clip-rule="evenodd" d="m49.471 31.725c4.633.662 7.754 2.69 12.529 3.378v9.954c-3.432-.091-15.623 3.213-21.779 2.859 2.906-.584 5.488-2.699 5.488-4.463 0-3.615-8.768-6.08-8.768-6.08s.436-1.941 1.15-3.068c6.743 1.693 12.68-1.004 11.38-2.58z" fill="#8e3ed6" fill-rule="evenodd"/><path d="m2 62h60v-12.82c-31.227-5.727-28.988 3.958-60 1.004z" fill="#48c2f9"/><path d="m62 54.834c-21.779-1.338-32.575 2.998-60 1.496v5.67h60z" fill="#7ed2fc"/></svg>