<svg enable-background="new 0 0 64 64" height="64" viewBox="0 0 64 64" width="64" xmlns="http://www.w3.org/2000/svg" xmlns:xlink="http://www.w3.org/1999/xlink"><radialGradient id="a" cx="53.3809" cy="53.7744" gradientUnits="userSpaceOnUse" r="7"><stop offset="0" stop-color="#ff000e"/><stop offset=".2721" stop-color="#fa000d"/><stop offset=".593" stop-color="#ec0008"/><stop offset=".9372" stop-color="#d40001"/><stop offset="1" stop-color="#cf0000"/></radialGradient><linearGradient id="b" gradientTransform="matrix(.7071 .7071 -.7071 .7071 5.3472 5.5116)" gradientUnits="userSpaceOnUse" x1="31.8223" x2="43.3271" y1="-26.9629" y2="-26.9629"><stop offset=".3455" stop-color="#cfd8dd"/><stop offset=".518" stop-color="#cbd4d9"/><stop offset=".7029" stop-color="#bec9ce"/><stop offset=".893" stop-color="#a8b6bb"/><stop offset="1" stop-color="#99a8ae"/></linearGradient><linearGradient id="c"><stop offset="0" stop-color="#fdd674"/><stop offset="1" stop-color="#e6b53c"/></linearGradient><linearGradient id="d" gradientTransform="matrix(.7071 .7071 -.7071 .7071 5.3472 5.5116)" gradientUnits="userSpaceOnUse" x1="37.0068" x2="44.4805" xlink:href="#c" y1="11.9951" y2="11.9951"/><linearGradient id="e" gradientTransform="matrix(.7071 .7071 -.7071 .7071 5.3472 5.5116)" gradientUnits="userSpaceOnUse" x1="30.6729" x2="37.5771" xlink:href="#c" y1="11.9956" y2="11.9956"/><linearGradient id="f"><stop offset="0" stop-color="#69a3c7"/><stop offset=".2635" stop-color="#5e98bb"/><stop offset=".7381" stop-color="#417a9b"/><stop offset="1" stop-color="#2e6787"/></linearGradient><linearGradient id="g" gradientTransform="matrix(.7071 .7071 -.7071 .7071 5.3472 5.5116)" gradientUnits="userSpaceOnUse" x1="30.6729" x2="44.4805" xlink:href="#f" y1="36.2949" y2="36.2949"/><linearGradient id="h"><stop offset="0" stop-color="#5b666e"/><stop offset=".2305" stop-color="#515862"/><stop offset="1" stop-color="#302c3b"/></linearGradient><linearGradient id="i" gradientTransform="matrix(.7071 .7071 -.7071 .7071 5.3472 5.5116)" gradientUnits="userSpaceOnUse" x1="30.6719" x2="44.4785" xlink:href="#h" y1="-13.0781" y2="-13.0781"/><linearGradient id="j" gradientTransform="matrix(.7071 .7071 -.7071 .7071 5.3472 5.5116)" gradientUnits="userSpaceOnUse" x1="35.2734" x2="39.876" xlink:href="#h" y1="-39.46" y2="-39.46"/><linearGradient id="k" gradientTransform="matrix(.7071 .7071 -.7071 .7071 5.3472 5.5116)" gradientUnits="userSpaceOnUse" x1="35.2734" x2="39.876" xlink:href="#f" y1="-36.2061" y2="-36.2061"/><circle cx="55" cy="54.999" fill="url(#a)" r="7"/><g fill="#e6ebef"><path d="m47.98 54.498h14.041v1.002h-14.041z" transform="matrix(.7071 -.7071 .7071 .7071 -22.7811 54.9959)"/><path d="m52.578 53.08h2.007v1.002h-2.007z" transform="matrix(.7066 -.7076 .7076 .7066 -22.1938 53.6335)"/><path d="m54.705 50.951h2.006v1.005h-2.006z" transform="matrix(.7064 -.7078 .7078 .7064 -20.0632 54.54)"/><path d="m50.451 55.207h2.007v1.003h-2.007z" transform="matrix(.7071 -.7071 .7071 .7071 -24.3213 52.7002)"/><path d="m55.415 55.917h2.006v1.002h-2.006z" transform="matrix(.7074 -.7069 .7069 .7074 -23.3691 56.3905)"/><path d="m57.543 53.79h2.004v1.003h-2.004z" transform="matrix(.7071 -.7071 .7071 .7071 -21.2421 57.299)"/><path d="m59.608 52.519.71.707 1.086-1.086c-.142-.316-.303-.627-.494-.924z"/><path d="m52.14 61.405 1.087-1.088-.708-.709-1.302 1.301c.296.192.605.354.923.496z"/><path d="m53.288 58.043h2.005v1.003h-2.005z" transform="matrix(.7071 -.7071 .7071 .7071 -25.4962 55.5366)"/><path d="m50.39 57.481-.708-.709-1.087 1.086c.141.318.302.627.495.924z"/><path d="m57.858 48.595-1.087 1.085.71.71 1.302-1.301c-.298-.192-.607-.354-.925-.494z"/></g><path d="m42.147 18.598 16.595-16.598c.831.129 3.124 2.424 3.258 3.251l-16.602 16.601c-1.347 1.349-1.347 3.534 0 4.881l-8.135-8.135c1.347 1.349 3.533 1.349 4.884 0z" fill="url(#b)"/><path d="m5.541 58.46c2.796 2.795 5.641 4.121 6.51 3.252 8.456-8.458 34.161-34.164 34.161-34.164l-5.465-4.297c-10.867 9.056-35.206 35.209-35.206 35.209z" fill="url(#d)"/><path d="m5.54 58.46c-2.795-2.797-4.121-5.643-3.252-6.512 8.457-8.455 34.162-34.163 34.162-34.163l4.297 5.465z" fill="url(#e)"/><path d="m2.288 51.948c-.869.869.254 3.918 3.05 6.713 2.796 2.797 5.844 3.92 6.713 3.051-3.554-2.182-7.582-6.209-9.763-9.764z" fill="url(#g)"/><path d="m36.449 17.786c.771.771 2.628 1.896 3.63 1.788.418.786.943 1.698 1.625 2.721 1.02.682 1.936 1.208 2.719 1.623-.109 1.003 1.018 2.862 1.789 3.631 0 0-3.049-1.567-6.135-3.628-2.06-3.086-3.628-6.135-3.628-6.135z" fill="url(#i)"/><path d="m57.378 3.365 1.364-1.365c.831.129 3.124 2.424 3.258 3.251l-1.367 1.367c-.132-.829-2.426-3.122-3.255-3.253z" fill="url(#j)"/><path d="m55.411 5.331.695-.696c.832.129 3.125 2.424 3.258 3.252l-.698.698c-.132-.83-2.427-3.122-3.255-3.254z" fill="url(#k)"/></svg>