<svg enable-background="new 0 0 64 64" height="64" viewBox="0 0 64 64" width="64" xmlns="http://www.w3.org/2000/svg" xmlns:xlink="http://www.w3.org/1999/xlink"><linearGradient id="a"><stop offset="0" stop-color="#ffb300"/><stop offset=".5098" stop-color="#ffc700"/><stop offset="1" stop-color="#ffd500"/></linearGradient><linearGradient id="b" gradientTransform="matrix(-1 0 0 1 510.7344 0)" gradientUnits="userSpaceOnUse" x1="483.4619" x2="508.7344" xlink:href="#a" y1="18.7051" y2="18.7051"/><linearGradient id="c" gradientUnits="userSpaceOnUse" x1="36.7275" x2="62.0005" xlink:href="#a" y1="18.7051" y2="18.7051"/><linearGradient id="d"><stop offset="0" stop-color="#916958"/><stop offset=".21" stop-color="#8b6454"/><stop offset=".4866" stop-color="#7b5748"/><stop offset=".799" stop-color="#5f4034"/><stop offset="1" stop-color="#4a2f24"/></linearGradient><linearGradient id="e" gradientUnits="userSpaceOnUse" x1="11.0908" x2="52.9092" xlink:href="#d" y1="58.3643" y2="58.3643"/><linearGradient id="f" gradientUnits="userSpaceOnUse" x1="14.7275" x2="49.2725" xlink:href="#d" y1="51.2734" y2="51.2734"/><linearGradient id="g"><stop offset="0" stop-color="#ffd500"/><stop offset=".4902" stop-color="#ffc700"/><stop offset="1" stop-color="#ffb300"/></linearGradient><radialGradient id="h" cx="29" cy="3.3525" gradientTransform="matrix(1 0 0 3 0 -6.7051)" gradientUnits="userSpaceOnUse" r="19.5923" xlink:href="#g"/><radialGradient id="i" cx="31.708" cy="38.5205" gradientTransform="matrix(1 0 0 .4456 0 21.3561)" gradientUnits="userSpaceOnUse" r="19.5919" xlink:href="#a"/><linearGradient id="j" gradientUnits="userSpaceOnUse" x1="13.9912" x2="50.0088" y1="3.5908" y2="3.5908"><stop offset="0" stop-color="#b37600"/><stop offset=".1805" stop-color="#ae7300"/><stop offset=".3816" stop-color="#a16a00"/><stop offset=".5925" stop-color="#8b5b00"/><stop offset=".8089" stop-color="#6c4700"/><stop offset="1" stop-color="#4a3000"/></linearGradient><linearGradient id="k" gradientUnits="userSpaceOnUse" x1="31.978" x2="31.978" xlink:href="#a" y1="37.8643" y2="34.54"/><linearGradient id="l" gradientUnits="userSpaceOnUse" x1="24.7832" x2="39.2181" xlink:href="#g" y1="44.542" y2="58.9769"/><path d="m14.09 9.014c-1.955 0-2.717-1.473-2.717-3.309h-9.185c-1.658 16.214 7.766 28.689 24.258 25.5 1.975-.382-.012-4.521-1.531-4.232-13.282 2.51-19.099-8.428-18.774-17.585h2.385c0 1.494 2.213 3.847 5.564 3.847 5.578-.001 0-4.221 0-4.221z" fill="url(#b)"/><path d="m49.91 9.014c1.955 0 2.717-1.473 2.717-3.309h9.186c1.658 16.214-7.768 28.689-24.258 25.5-1.975-.382.012-4.521 1.531-4.232 13.281 2.511 19.098-8.428 18.773-17.585h-2.385c0 1.494-2.213 3.847-5.564 3.847-5.578-.001 0-4.221 0-4.221z" fill="url(#c)"/><path d="m52.909 54.728h-41.818v4.547h.001c.003 1.363 6.972 2.727 20.908 2.727s20.905-1.363 20.908-2.727h.001z" fill="url(#e)"/><path d="m32 57.454c-27.878 0-27.878-5.453 0-5.453s27.878 5.453 0 5.453z" fill="#523214"/><path d="m49.272 54.362v-8.361h-34.544v8.365h.001c.003 1.09 5.761 2.18 17.271 2.18 11.52 0 17.277-1.092 17.272-2.184z" fill="url(#f)"/><path d="m32 48.183c-23.029 0-23.029-4.363 0-4.363 23.031-.001 23.031 4.363 0 4.363z" fill="#523214"/><path d="m29.218 35.208h5.564c2.424-4.559 16.309-9.533 16.309-31.21 0-2.664-38.182-2.664-38.182 0 0 21.677 13.885 26.651 16.309 31.21z" fill="url(#h)"/><path d="m34.424 36.634h-4.848c-.152 6.184-12.034 4.316-12.034 9.324 0 1.996 28.918 1.996 28.918 0 0-5.008-11.884-3.141-12.036-9.324z" fill="url(#i)"/><path d="m50.009 3.59c0 2.123-36.018 2.123-36.018 0 0-2.121 36.018-2.121 36.018 0z" fill="url(#j)"/><path d="m35.457 37.509c-.376.516-6.687.43-6.941 0-.345-.584-1.143-2.186-.478-2.746.367-.309 7.608-.285 7.897 0 .606.597-.089 2.215-.478 2.746z" fill="url(#k)"/><path d="m14.361 5.756c0-.335 1.937.538 4.213.538.458 0-.392 6.31 4.375 20.102.366 1.058-8.588-6.589-8.588-20.64z" fill="#ffe600"/><path d="m44.438 53.606v-3.846c-.587 0-1.167-.373-1.236-1.107-2.777.289-6.501.473-11.2.473-4.7 0-8.423-.184-11.201-.473-.069.734-.649 1.107-1.236 1.107v3.846c.715.007 1.349.69 1.261 1.412 2.775.289 6.49.471 11.177.471s8.4-.182 11.175-.471c-.089-.722.545-1.406 1.26-1.412z" fill="url(#l)"/><path d="m20.377 51.905c0-1 1.5-1 1.5 0s-1.5 1-1.5 0z" fill="#feec9a"/><path d="m20.377 51.905c0-.125 1.5-.125 1.5 0s-1.5.125-1.5 0z" fill="#d47706"/><path d="m42.125 51.905c0-1 1.5-1 1.5 0s-1.5 1-1.5 0z" fill="#feec9a"/><path d="m42.125 51.905c0-.125 1.5-.125 1.5 0s-1.5.125-1.5 0z" fill="#d47706"/></svg>