<svg enable-background="new 0 0 64 64" height="64" viewBox="0 0 64 64" width="64" xmlns="http://www.w3.org/2000/svg"><path d="m38.103 9.784c-.479.201-1.413-.234-2.39-.933.499-.129.98-.393 1.421-.862-5.226.422-6.345-9.319-12.056-4.719l1.62 2.811c1.146-2.971 2.195 4.761 6.272 4.189-.5-.077-.936-.683-1.376-1.453 2.051 1.645 4.429 2.89 6.509.967z" fill="#614036"/><path d="m38.103 9.784c-.479.201-2.451.059-3.428-.64 1.521-.128 2.209-.481 2.459-1.155-5.354 1.721-6.979-7.098-11.242-3.037l.807 1.129c1.146-2.971 2.195 4.761 6.272 4.189-1.51-.306-2.01-1.126-2.025-1.853 2.049 1.646 5.077 3.29 7.157 1.367z" fill="#4a2e24"/><path d="m24.502 3.196c-.834.797.12 3.464 1.977 3.085 1.522-.307-.874-4.146-1.977-3.085z" fill="#8e3ed6"/><path d="m20.608 15.643c1.364-1.037 1.146 1.979 1.226 2.33 0 0 1.132-1.546 4.233-2.418 0 0-.673-1.194-1.355-3.226-1.178-5.765-4.104 3.314-4.104 3.314z" fill="#755035"/><path d="m14.525 7.133c-.121.877-.044 1.827.318 2.537.56 1.093.175 1.806-.503 2.837-.646.979.478 1.404 1.38 1.156.256.217.173.52.173.52.891.435 1.134 1.402.872 1.754 0 0 .252.057.319.481.197 1.214 1.026 1.378 2.635.334 3.178-2.063 2.762-4.741 2.762-4.741.982.816 2.66-1.475 2.158-3.588-.827-3.508-5.164-7.722-10.114-1.29z" fill="#916b50"/><path d="m22.087 10.332c-.232-.854.259-1.787.956-1.979 0 0-.919 1.343-.241 2.632 0-.001-.554-.057-.715-.653z" fill="#755035"/><path d="m18.004 10.473c-.313.646-1.354 1.242-1.748 1.267-1.637-2.48.845-2.256 1.748-1.267z" fill="#f5f5f5"/><path d="m16.3 11.735c1.06-.321-.307-3.028-.613-1.275.033.282.399 1.341.613 1.275z" fill="#45332c"/><path d="m18.004 10.473c-.574-.988-2.623-1.265-2.317-.013.11-.751 1.53-.67 2.317.013z" fill="#45332c"/><path d="m16.019 10.402c.076.262.45.148.375-.114-.074-.238-.448-.127-.375.114z" fill="#f5f5f5"/><path d="m17.831 8.721c-.874-.38-2.338.065-2.782.578-.1.101.129.481.203.4.505-.549 1.62-.979 2.604-.799.108.02.107-.129-.025-.179z" fill="#423225"/><path d="m16.352 14.636c.391.139.161.602.161.602-.301.068-.085.878.252.699.979-.519 1.688-1.541 1.643-1.858-.203.062-1.786.423-2.515.104 0 0 .029.344.459.453z" fill="#84401e"/><path d="m16.352 14.636.161.602c.266-.06 1.206-.531 1.658-1.012 0 0-1.12.462-1.819.41z" fill="#fff"/><path d="m25.406 4.732c-.782-2.398-3.577-3.23-6.507-2.447-3.794 1.014-5.121 3.819-4.374 4.848 3.8-3.275 6.303 4.829 7.268 1.688.483-1.572 2.614-1.362 2.705.58.092 1.961-.978 2.563-.978 2.563.687.735 1.306.69 1.306.69 2.853-1.25 2.926-7.342.58-7.922z" fill="#614036"/><path d="m25.406 4.732c-.782-2.398-5.195-2.424-6.48-1.799 2.051-.203 4.691.469 5.166 1.208-1.733-.019-4.381-.352-7.1.522 1.734-.215 3.484.816 7.047.488 0 0-2.35 1.179-5.35.764.984.781 3.207 1.183 4.256 1.217-1.078.348-2.337.552-5.323-.47 2.081 1.08 3.499 4.345 4.171 2.157.483-1.572 2.614-1.362 2.705.58.092 1.961-.978 2.563-.978 2.563.687.735 1.306.69 1.306.69 2.853-1.248 2.926-7.34.58-7.92z" fill="#4a2e24"/><path d="m16.401 13.018c-.042.397-.564.635-.895.71-.44.1-.914-.015-1.18-.275.08-.408 1.255.289 2.075-.435z" fill="#755035"/><path d="m8 58.901s2.693 2.688 6.544 2.505l2.257.594c.206-.33.092-.45.092-.45s-1.438-1.842-8.594-2.935c0 0-.196-.041-.299.286z" fill="#8e3ed6"/><path d="m14.656 57.1c-1.132 1.209-5.603-.896-6.357 1.516 0 0 2.487 2.525 6.338 2.342l2.256.593c3.556-5.698-2.237-4.451-2.237-4.451z" fill="#302c3b"/><path d="m11.498 57.416c.661 1.098 1.23 1.423 1.462.834.484.589.917.329 1.017-.031.569.45.955-.062.362-.897-.347-.452-3.019-.202-2.841.094z" fill="#8e3ed6"/><path d="m55.816 53.982s.892-3.713-1.256-6.936l-.843-2.288c-.387-.007-.43.153-.43.153s-.643 2.229 2.131 8.961c.001.001.067.191.398.11z" fill="#8e3ed6"/><path d="m50.842 49.179c1.613.35 2.136 5.292 4.577 4.694 0 0 .86-3.45-1.288-6.673l-.843-2.288c-4.179.373-3.392 1.629-2.446 4.267z" fill="#302c3b"/><path d="m52.744 51.735c.592-1.137.573-1.796-.046-1.69.25-.722-.195-.961-.553-.859.088-.725-.547-.791-.951.151-.204.532 1.391 2.705 1.55 2.398z" fill="#8e3ed6"/><path d="m23.793 33.569c-2.928 2.794-7.773 8.783-7.712 10.821.157 5.191-1.085 11.544-1.085 11.544.239 1.089 2.504 1.563 3.095.775 1.103-4.981 3.134-5.98 2.354-11.528 4.206-2.775 6.981-7.132 8.926-7.618.226 5.821 5.268 12.123 6.332 12.376 1.155.274 5.875-1.266 13.859-1.052.652.017.201-2.979-.124-2.977-6.001.067-8.982-1.684-12.105-.038-.373-3.841-1.888-6.085-1.969-9.896-.015-.691-11.571-2.407-11.571-2.407z" fill="#916b50"/><path d="m14.996 55.935c-.141.845-.238 1.464-.238 1.464s.783 1.077 2.955.934c.127-.59.232-1.112.378-1.622-.515.368-2.501-.014-3.095-.776z" fill="#f2f5f7"/><path d="m50.709 45.873c-.44.021-.862.032-1.271.038.457.972.386 2.383.124 2.977.378.002.758.005 1.146.016.653.017.326-3.046.001-3.031z" fill="#f2f5f7"/><path d="m30.271 42.787s4.184-.104 6.53-1.539c-.458-4.664-2.298-8.868-4.021-11.266-5.052.993-7.914 4.38-2.509 12.805z" fill="#1a1626"/><path d="m25.264 31.214c-1.431 2.349-4.828 5.737-6.37 7.202 0 0 2.303 3.003 6.461 3.602 3.185-2.731 14.2-5.061 7.425-12.035-5.052.992-7.516 1.231-7.516 1.231z" fill="#302c3b"/><path d="m23.604 20.988c-2.452-1.246-3.171 4.273-3.71 5.43-2.207-1.122-6.055-2.438-5.999-2.84.145-1.032-.021-1.499-.997-2.732-.27-.341-.857.208-.857.208-.845-.628-.803.243-1.356.513-.515.25-.307.676-.792 1.03-1.08.789.774 2.333 2.697 2.928 1.377.427 5.938 4.331 9.09 4.85 1.188.194 4.47-7.462 1.924-9.387z" fill="#916b50"/><path d="m25.516 14.414c-1.352.156-2.371 2.253-3.745 2.393-.233.426-.427 1.057-.43 1.566-.015 3.027-3.938 7.183.843 7.795.597.077 2.288 3.053 2.52 5.746.803 1.316 7.608.278 8.411-1.81-4.561-5.445 1.069-10.56-7.599-15.69z" fill="#8e3ed6"/><path d="m28.465 17.073c-2.253 2.601 3.949 3.907 6.844 5.376-1.523 1.897-5.525 7.955-5.906 7.781-1.109-.5-1.592-.406-3.026.319-.398.199.073.837.073.837-.79.696.117.79.304 1.354.174.521.647.392.932.902.636 1.137 2.556-.152 3.487-1.866.666-1.228 5.864-4.888 8.044-9.865.458-1.048-8.343-6.93-10.752-4.838z" fill="#916b50"/><path d="m30.66 21.396c1.08-2.349 2.25-3.645 2.854-4.115-8.966-6.779-12.614.682-2.854 4.115z" fill="#732eb0"/></svg>