<svg enable-background="new 0 0 64 64" height="64" viewBox="0 0 64 64" width="64" xmlns="http://www.w3.org/2000/svg" xmlns:xlink="http://www.w3.org/1999/xlink"><radialGradient id="a" cx="23.9561" cy="16.9399" gradientTransform="matrix(.7071 -.7071 .4753 .4753 6.1296 33.0539)" gradientUnits="userSpaceOnUse" r="41.8869"><stop offset="0" stop-color="#ffaf36"/><stop offset=".2563" stop-color="#fcad36"/><stop offset=".4378" stop-color="#f3a735"/><stop offset=".5961" stop-color="#e39d34"/><stop offset=".7411" stop-color="#cd8f32"/><stop offset=".8759" stop-color="#b17c2f"/><stop offset=".9394" stop-color="#a1722e"/></radialGradient><path d="m59.332 4.664c-3.856-3.861-29.562-5.672-45.13 10.062-15.417 15.581-13.294 40.473-9.346 44.42 3.942 3.945 28.835 6.069 44.417-9.347 15.733-15.57 13.928-41.273 10.059-45.135z" fill="url(#a)"/><path d="m4.856 59.146c-1.209-17.895 36.061-55.901 54.474-54.483-17.197 1.016-53.572 38.853-54.474 54.483z" fill="#ab6e13"/><path d="m23.732 21.473c.936.935-1.169 3.04-2.104 2.104-.936-.935 1.17-3.04 2.104-2.104z" fill="#1a1626"/><path d="m29.547 27.287c.936.936-1.169 3.04-2.104 2.104-.936-.934 1.168-3.038 2.104-2.104z" fill="#1a1626"/><path d="m21.776 23.208c2.115 2.116 3.922 3.92 6.033 6.037.323.32 1.908-1.265 1.586-1.587-2.114-2.115-3.92-3.92-6.033-6.036-.319-.32-1.906 1.265-1.586 1.586z" fill="#785000"/><path d="m28.931 16.976c.936.936-1.169 3.04-2.104 2.104-.935-.935 1.168-3.039 2.104-2.104z" fill="#1a1626"/><path d="m34.569 22.615c.936.936-1.168 3.04-2.104 2.104-.935-.935 1.17-3.039 2.104-2.104z" fill="#1a1626"/><path d="m26.974 18.71c2.117 2.115 3.748 3.745 5.859 5.861.322.321 1.908-1.264 1.586-1.586-2.113-2.116-3.745-3.746-5.857-5.861-.321-.32-1.908 1.266-1.588 1.586z" fill="#785000"/><path d="m19.236 26.67c.935.936-1.169 3.04-2.104 2.104-.936-.934 1.169-3.039 2.104-2.104z" fill="#1a1626"/><path d="m24.875 32.31c.937.936-1.169 3.04-2.104 2.104-.935-.935 1.169-3.039 2.104-2.104z" fill="#1a1626"/><path d="m17.28 28.405c2.117 2.114 3.747 3.745 5.859 5.859.322.322 1.906-1.264 1.585-1.585-2.113-2.116-3.745-3.745-5.858-5.861-.318-.318-1.907 1.266-1.586 1.587z" fill="#785000"/><path d="m15.091 32.219c.936.935-1.17 3.04-2.105 2.104-.935-.935 1.169-3.039 2.105-2.104z" fill="#1a1626"/><path d="m20.203 37.333c.936.936-1.169 3.039-2.104 2.104-.935-.936 1.17-3.04 2.104-2.104z" fill="#1a1626"/><path d="m13.134 33.954c2.117 2.115 3.222 3.219 5.333 5.334.322.321 1.907-1.265 1.585-1.586-2.113-2.115-3.219-3.219-5.331-5.334-.32-.32-1.908 1.266-1.587 1.586z" fill="#785000"/><path d="m34.479 12.83c.936.935-1.17 3.04-2.104 2.104-.936-.935 1.169-3.039 2.104-2.104z" fill="#1a1626"/><path d="m39.592 17.943c.937.936-1.169 3.041-2.104 2.104-.935-.935 1.169-3.039 2.104-2.104z" fill="#1a1626"/><path d="m32.522 14.564c2.117 2.115 3.223 3.219 5.334 5.334.322.321 1.906-1.265 1.585-1.586-2.114-2.115-3.22-3.219-5.332-5.334-.319-.319-1.907 1.266-1.587 1.586z" fill="#785000"/></svg>