<svg enable-background="new 0 0 64 64" height="64" viewBox="0 0 64 64" width="64" xmlns="http://www.w3.org/2000/svg" xmlns:xlink="http://www.w3.org/1999/xlink"><radialGradient id="a" cx="52.3603" cy="35.8774" gradientTransform="matrix(1.006 0 0 .8401 -.8445 5.7384)" gradientUnits="userSpaceOnUse" r="3.0999"><stop offset="0" stop-color="#6e8189"/><stop offset=".1728" stop-color="#5f6d77"/><stop offset=".5252" stop-color="#464a56"/><stop offset=".8136" stop-color="#363442"/><stop offset="1" stop-color="#302c3b"/></radialGradient><path d="m21.584 12.181c2.04 5.061-1.268 6.448 3.433 8.412 4.991-.107 3.102-3.157 6.484-6.672-1.5-1.947-6.745-2.957-9.917-1.74z" fill="#fc6"/><path d="m33.598 10.288s-2.836 3.211-1.899 3.68c2.816 1.412 1.935-4.288 1.899-3.68z" fill="#e6b045"/><path d="m20.831 8.061s1.556 3.977.513 4.101c-3.134.373-.335-4.684-.513-4.101z" fill="#e6b045"/><path d="m20.663 8.381c-.485 4.354 2.003 7.267 5.211 7.826 3.204.559 6.719-1.306 7.77-5.561 1.025-4.158-12.506-6.518-12.981-2.265z" fill="#594640"/><path d="m52.819 40.924c-.468.831-3.184 1.315-3.382.096-.516-3.17.644-5.314 2.246-6.366 2.295 1.189 3.262 2.492 1.136 6.27z" fill="url(#a)"/><path d="m16.859 14.542c.321-1.275-1.273-1.809-1.692-.624-3.371-.115-2.733 2.396-3.298 2.663.512 3.165 1.941 8.549 2.736 9.023 2.432 1.448 2.548-3.412 1.753-4.851-.724-1.315-2.19-3.281-1.701-4.692.202-.582 1.842-.084 2.202-1.519z" fill="#e6b045"/><path d="m21.029 56.977s.71 2.023 0 3.769c0 0-2.655.628-6.188 0-.646-1.894 0-3.769 0-3.769z" fill="#594640"/><path d="m38.778 52.864c.386 1.11-1.115 8.25-5.418 9.136-4.26 0 .969-5.764-.052-7.987.001 0 1.603-3.782 5.47-1.149z" fill="#594640"/><path d="m38.778 52.864c1.174.898.11 9.136-5.418 9.136-2.906 0 2.474-5.311 1.46-8.863 0 0 .091-2.906 3.958-.273z" fill="#45332c"/><path d="m26.118 34.97c-3.021-1.825-12.782-1.551-12.782-1.551-2.17 9.058-.901 12.276 1.122 24.26 0 0 3.192.093 6.756-.486-2.109-9.486-1.759-8.111-.203-15.856 2.27 5.298 3.057 5.575 4.316 7.27 1.483 1.987 8.006 6.208 8.006 6.208s1.985-3.082 5.718-1.835c.666-2.007-8.194-6.784-9.12-8.961-1.019-2.418-2.677-7.771-3.813-9.049z" fill="#6e8189"/><path d="m26.664 35.437s-6.435 1.676-13.639-1.783c2.606-7.267 6.329-11.591 8.308-16.342 1.908-1.141 7.593 1.037 7.593 1.828-.074 4.553-3.217 8.704-2.262 16.297z" fill="#7ab51d"/><path d="m10.3 15.489c-.002-.229 2.383.338 3.092.136-.136 2.231 1.209 3.269 1.875 5.602 3.982-2.466 8.932.123 7.271 1.274-1.919 1.339-6.875 5.178-9.306 3.73-.975-.581-2.903-8.522-2.932-10.742z" fill="#fc6"/><path d="m23.213 22.701c4.037-3.279-.006-8.012-3.316-4.402-2.357 1.561-4.29 2.527-4.29 2.527 2.986 2.15 2.242 5.022 2.242 5.022s3.704-1.798 5.364-3.147z" fill="#529320"/><path d="m52.131 34.926c.653.396-.003 1.423-.651 1.019-7.689-4.783-28.926-18.173-28.926-18.173l.649-1.018s18.611 11.91 28.928 18.172z" fill="#6e8189"/><path d="m11.492 8.747 14.44 9.071c.792.486-.468 2.43-1.244 1.943l-14.438-9.071c-.782-.49.449-2.438 1.242-1.943z" fill="#302c3b"/><path d="m15.196 13.014c.252 1.038 1.256 1.038 1.638.354 1.249-2.002.395-2.376-.245-2.19-.862-1.74-2.779 2.214-1.393 1.836z" fill="#e6b045"/><path d="m13.815 15.516c-.061.168-.117.357-.172.538-1.201.318-3.372-.42-3.574-.486.159-.803-.158-1.975-.043-2.723.279-1.847 1.627-4.75 2.655-3.507.291-.361 1.015-.09 1.132.289 0 0 .897-.469 1.276.46.734-.214 1.761.309-.471 3.207l1.358.995c-.286 1.353-1.952.649-2.161 1.227z" fill="#99a8ae"/><path d="m10.882 13.001c-.206-1.859 2.481-1.841 2.593.596-.225.295-2.137.12-2.593-.596z" fill="#fc6"/><path d="m33.746 11.191c3.267-10.305-12.873-13.119-13.365-2.33 1.203 4.872 10.878 6.573 13.365 2.33z" fill="#e81c27"/><path d="m29.671 12.009c1.274-4.016-5.017-5.112-5.209-.908 0 0 2.689 1.215 5.209.908z" fill="#594640"/></svg>