<svg enable-background="new 0 0 64 64" height="64" viewBox="0 0 64 64" width="64" xmlns="http://www.w3.org/2000/svg" xmlns:xlink="http://www.w3.org/1999/xlink"><radialGradient id="a" cx="31.7402" cy="51.3555" gradientTransform="matrix(1.0074 0 0 .9864 .0244 -2.058)" gradientUnits="userSpaceOnUse" r="28.2138"><stop offset="0" stop-color="#fac703"/><stop offset=".3506" stop-color="#fac103"/><stop offset=".7991" stop-color="#fab203"/><stop offset="1" stop-color="#faa803"/></radialGradient><linearGradient id="b" gradientTransform="matrix(1 0 0 -1 -56 -80)" gradientUnits="userSpaceOnUse" x1="78.5459" x2="83.2253" y1="-90.4736" y2="-98.5787"><stop offset=".0638" stop-color="#008cc9"/><stop offset=".3298" stop-color="#bcebff"/><stop offset=".6117" stop-color="#75d6ff"/><stop offset=".8032" stop-color="#abe6ff"/><stop offset="1" stop-color="#75d6ff"/></linearGradient><path d="m9.458 55.026c-4.898 1.603 3.693 9.135 8.787 6.369 16.517-8.968 34.302-17.645 35.544-18.567 5.783-4.291-.805-11.249-8.043-5.368-3.528 2.871-22.141 12.939-36.288 17.566z" fill="url(#a)"/><g fill="#ffe600"><path d="m29.132 46.796v8.804c.877-.459 1.746-.911 2.604-1.357v-8.738c-.848.427-1.717.858-2.604 1.291z" opacity=".7"/><path d="m22.212 50.022v9.234c1.443-.771 2.884-1.535 4.312-2.288v-8.922c-1.416.669-2.858 1.331-4.312 1.976z" opacity=".7"/><path d="m46.462 36.917v9.767c.545-.277 1.063-.542 1.557-.796v-9.883c-.51.244-1.03.542-1.557.912z" opacity=".7"/><path d="m42.081 39.878v9.043c1.168-.598 2.279-1.164 3.314-1.692v-9.5c-.732.545-1.871 1.283-3.314 2.149z" opacity=".7"/></g><path d="m27.796 19.785c6.682-7.598 14.342-2.957 18.135-5.273 1.578-.962.691 3.948 1.33 7.244.484 2.486-10.244-4.928-16.232 1.248-.001 0-3.848-2.523-3.233-3.219z" fill="#b00505"/><path d="m27.899 22.101c-1.344-2.138 2.58-3.555 3.635-1.842.971 1.575 3.014 3.42 3.289 4.305 2.6.243 3.197 1.026 4.955 1.103l.648 3.177s-6.186-.65-7.953-1.499c-1.634-.788-3.699-3.852-4.574-5.244z" fill="#4f5e66"/><path d="m22.341 52.757c-.168 1.51.086 3.155 3.835 2.396 6.174-1.252 2.482-4.963 2.482-4.963-1.456-2.08-5.957-.658-6.317 2.567z" fill="#006dae"/><path d="m26.024 52.277c-1.544.35-2.492 3.067-3.685.479-.621 2.984 1.488 3.65 3.703 2.672 3.227-1.301 5.393-1.919 2.617-5.239 1.309 4.083-1.228 1.773-2.635 2.088z" fill="#014d87"/><path d="m36.653 46.004c1.074 1.69 9.078-1.017 7.516-2.159-1.088-.798-2.016-1.222-2.016-1.222-2.64-2.733-6.33 2.08-5.5 3.381z" fill="#006dae"/><path d="m36.653 46.004c-.232.894 2.811 1.109 4.604 1.109 4.291 0 4.238-2.784 2.912-3.269-3.717-1.361.203 3.527-7.516 2.16z" fill="#014d87"/><path d="m42.153 42.622s-1.104-7.462-3.402-9.728c-1.096-1.081-3.459-2.629-6.213-3.64-4.99.497-5.863 1.76-10.691 3.757-.049 4.721 2.445 5.922 1.75 9.61-1.303 6.91-1.256 10.135-1.256 10.135 1.275-3.765 5.246-3.765 6.318-2.567 0 0 .992-3.646 1.725-7.567.316-1.694-.816-5.232-1.146-7.298 2.029.075 4.217 1.295 4.662 1.8 1.182 1.34.727 7.879 2.754 8.88 1.454-3.382 3.333-4.828 5.499-3.382z" fill="#1a1726"/><path d="m35.108 42.597c.279 1.583.691 2.987 1.545 3.407 1.455-3.382 3.334-4.828 5.5-3.382 0 0 0 0 0-.001-.361-2.415-3.359-3.521-5.293-1.943-.654.537-1.242 1.176-1.752 1.919z" fill="#036"/><path d="m22.546 49.609c-.219 2.124-.205 3.147-.205 3.147 1.275-3.765 5.246-3.765 6.318-2.567 0 0 .449-1.65.965-3.921-1.076-.45-2.469-.484-3.795-.212-1.779.364-3.101 1.811-3.283 3.553z" fill="#036"/><path d="m33.03 29.462c-2.102-3.849.107-6.693-2.16-9.677-3.15-4.143-11.361 2.482-11.361 2.482.299 5.877 1.783 5.654 2.346 11.565.244 2.601 12.839-1.314 11.175-4.37z" fill="#006dae"/><path d="m18.304 13.12c-2.266-.431-.496 6.252 1.275 4.409.823-.855-.216-4.207-1.275-4.409z" fill="#dba97f"/><path d="m31.851 13.12c-1.059.202-2.1 3.554-1.277 4.409 1.773 1.843 3.538-4.84 1.277-4.409z" fill="#dba97f"/><path d="m25.077 5.974c-4.683 0-6.939 3.41-6.656 8.15.055.953.67 4.064 1.25 5.181.594 1.141 2.578 2.901 3.795 3.266.77.23 2.451.23 3.22 0 1.217-.364 3.201-2.125 3.795-3.266.582-1.116 1.195-4.228 1.252-5.181.284-4.741-1.972-8.15-6.656-8.15z" fill="#fcd5b2"/><path d="m27.86 4.532c-.023 3.048-5.564 3.201-5.544.152 0-3.527 5.544-3.579 5.544-.152z" fill="#e81c26"/><path d="m32.397 10.835c-.047 3.441-14.685 3.46-14.638.018 0-9.508 14.638-9.329 14.638-.018z" fill="#1a1726"/><path d="m25.077 18.879c-1.054-.3-2.615.141-2.615.141.594.622 1.031 1.431 2.615 1.431 1.814 0 2.123-.917 2.613-1.431 0 0-1.562-.442-2.613-.141z" fill="#cc9d76"/><path d="m22.861 19.125c1.104.892 3.333.896 4.445 0-1.178.048-3.26.049-4.445 0z" fill="#fff"/><path d="m26.528 17.202c0 .91-2.904.91-2.904 0 .001-.209 2.904-.209 2.904 0z" fill="#cc9d76"/><path d="m31.839 13.254c-4.477-.576-9.05-.57-13.527.018-.881.121-1.537-2.284-.553-2.419 5.473-1.498 8.8-1.601 14.638-.018.983.131.321 2.538-.558 2.419z" fill="#e81c26"/><path d="m31.544 12.535c-.184-.46-.637-.826-1.24-.955-4.557-.985-6.089-.985-10.648 0-.602.13-1.055.495-1.24.955h-.928v.371c0 .537.279 1.009.703 1.296l-.164 1.717c-.035.377.182.741.574.954 0 0 2.771 1.009 3.742 1.235.49.114 1.041-.076 1.307-.424.232-.302.6-.899.988-1.251.178-.159.505-.159.681 0 .391.352.758.95.99 1.251.266.348.816.538 1.305.424.973-.227 3.744-1.235 3.744-1.235.389-.213.609-.577.574-.954l-.154-1.615c.523-.265.887-.787.887-1.397v-.371h-1.121z" fill="#036"/><path d="m27.325 17.589c-.166 0-.559-.369-.635-.477-.451-.642-.869-1.189-1.414-1.407-.189-.075-.4-.076-.589-.001-.545.217-.963.765-1.414 1.408-.076.107-.311.519-.635.477-.857-.112-2.883-.904-3.689-1.197-.162-.104-.252-.265-.236-.431l.291-3.06c.037-.372.371-.688.83-.789 2.275-.491 3.205-.719 5.148-.719s2.875.229 5.148.719c.459.101.793.416.828.789l.293 3.06c.016.166-.072.327-.236.431-.807.293-2.85 1.015-3.588 1.187z" fill="url(#b)"/><path d="m24.98 11.395c-.236 0-.445.007-.656.015l-5.525 3.63-.088.923c-.016.166.074.327.236.431.027.01.066.024.098.036l7.55-4.961c-.489-.049-.998-.074-1.615-.074z" fill="#fff" opacity=".5"/><path d="m19.003 13.771c.035-.371.369-.688.832-.788 2.271-.491 3.203-.72 5.146-.72 1.941 0 2.873.229 5.146.72.463.1.797.417.832.788 0 0 .301 2.278.291 2.192l-.291-3.06c-.035-.371-.369-.688-.832-.789-2.271-.49-3.203-.719-5.146-.719s-2.873.229-5.146.719c-.463.101-.797.418-.832.789l-.291 3.06c-.009.086.291-2.192.291-2.192z" fill="#006ead" opacity=".47"/><path d="m19.449 21.76c2.725-1.418 4.922 2.104 2.736 3.224-2.008 1.026-4.287 3.07-5.441 3.399-.107 2.43-1.396 3.116-1.004 6.494l-4.207-.951s.359-5.789 1.34-7.495c.908-1.58 4.798-3.744 6.576-4.671z" fill="#4f5e66"/><path d="m30.481 19.303c-3.645 4.579-8.462 3.085-10.81 0 0 0-.326 1.422-.115 2.939.463 2.132 5.667 4.195 9.599 1.772.641-.395 1.33-.91 1.859-1.512.77-.874.813-2.18.057-3.065-.238-.279-.468-.415-.59-.134z" fill="#e81c26"/><path d="m11.585 33.199 4.084.742c1.891 2.899 1.84 3.976.73 3.686 0 0 .338 2.479-.883 2.71-.768.147-1.395-.604-1.395-.604-2.551-.22-3.592-2.705-2.536-6.534z" fill="#e81c26"/><path d="m44.604 29.206c.318-1.901-1.428-3.377-4.828-3.54l-.457 3.048c2.051 2.07 3.113 2.509 3.09 1.634 0 0 1.998.847 2.432.019.269-.52-.237-1.161-.237-1.161z" fill="#e81c26"/><path d="m32.046 25.928c-1.625 3.898-7.833 5.007-10.906 3.861.285 1.009.543 2.239.715 4.044.244 2.6 12.839-1.315 11.175-4.371-.695-1.275-.914-2.439-.984-3.534z" fill="#008cc9"/></svg>