<svg enable-background="new 0 0 64 64" height="64" viewBox="0 0 64 64" width="64" xmlns="http://www.w3.org/2000/svg" xmlns:xlink="http://www.w3.org/1999/xlink"><radialGradient id="a" cx="42.498" cy="-5.0747" gradientTransform="matrix(.7072 -.7072 .461 .461 4.6199 56.0593)" gradientUnits="userSpaceOnUse" r="37.8901"><stop offset="0" stop-color="#c25b2e"/><stop offset=".3192" stop-color="#bf592d"/><stop offset=".5788" stop-color="#b55328"/><stop offset=".8168" stop-color="#a44921"/><stop offset=".9273" stop-color="#99431d"/></radialGradient><linearGradient id="b"><stop offset=".2727" stop-color="#fafdff"/><stop offset=".4936" stop-color="#f7fafc"/><stop offset=".6732" stop-color="#edf2f4"/><stop offset=".8379" stop-color="#dce3e7"/><stop offset=".9273" stop-color="#cfd8dd"/></linearGradient><radialGradient id="c" cx="21.74209072" cy="38.24164995" gradientUnits="userSpaceOnUse" r="24.60005976" xlink:href="#b"/><radialGradient id="d" cx="38.95181152" cy="15.489875" gradientUnits="userSpaceOnUse" r="21.66996678" xlink:href="#b"/><path d="m59.245 32.352s-1.277-6.489 2.143-8.759c1.443-9.309.134-17.184-1.836-19.149-1.963-1.965-9.835-3.274-19.144-1.832-4.3 3.977-8.757 2.139-8.757 2.139-5.99 2.032-12.011 5.334-17.031 10.408-4.61 4.657-7.695 10.102-9.666 15.558 1.979 5.051-2.272 8.716-2.272 8.716-1.602 9.607-.15 17.85 1.943 19.943 2.091 2.092 10.334 3.544 19.943 1.941 0 0 4.491-3.422 8.712-2.271 5.455-1.972 10.9-5.055 15.557-9.665 5.073-5.02 8.377-11.039 10.408-17.029z" fill="url(#a)"/><path d="m16.376 47.62c-5.129-5.133-9.039-10.975-11.421-16.903-1.064 2.944-1.802 5.887-2.272 8.716 2.545 4.336 5.763 8.511 9.569 12.314 3.804 3.807 7.977 7.024 12.316 9.57 2.827-.472 5.769-1.209 8.712-2.271-5.929-2.382-11.77-6.291-16.904-11.426z" fill="url(#c)"/><path d="m59.245 32.352c1.01-2.971 1.704-5.929 2.143-8.759-2.494-4.135-5.596-8.111-9.234-11.753-3.637-3.636-7.61-6.737-11.745-9.228-2.829.438-5.786 1.132-8.757 2.139 5.748 2.401 11.396 6.236 16.375 11.218 4.984 4.983 8.82 10.634 11.218 16.383z" fill="url(#d)"/><path d="m4.628 59.374c-.908-17.731 36.68-56.037 54.922-54.929-17.076 1.286-53.773 39.409-54.922 54.929z" fill="#1a1626" opacity=".2"/><path d="m36.921 15.891c-7.451 6.373-14.354 13.528-20.727 20.98-.381.446-2.09-1.033-1.705-1.485 6.441-7.531 13.418-14.758 20.947-21.2.454-.388 1.932 1.323 1.485 1.705z" fill="#f2f5f7"/><path d="m38.158 17.128c-7.45 6.373-14.354 13.528-20.728 20.98-.379.445-2.089-1.033-1.703-1.486 6.44-7.53 13.417-14.757 20.947-21.199.454-.388 1.931 1.325 1.484 1.705z" fill="#e6ebef"/><g fill="#fff"><path d="m32.098 14.2c2.198 1.866 4.291 3.951 6.154 6.153.276.35 1.452-1.721 1.104-2.16-1.979-2.337-2.761-3.121-5.098-5.099-.437-.344-2.513.83-2.16 1.106z"/><path d="m26.716 18.509c1.999 1.744 4.65 4.398 6.396 6.396.26.308 1.813-1.472 1.498-1.838-1.887-2.152-3.906-4.169-6.053-6.058-.367-.312-2.152 1.238-1.841 1.5z"/><path d="m21.755 23.342c1.793 1.792 4.733 4.732 6.521 6.524.273.271 2.039-1.495 1.768-1.768-1.79-1.791-4.732-4.731-6.522-6.522-.271-.271-2.039 1.495-1.767 1.766z"/><path d="m17.188 28.375c1.889 2.151 3.905 4.167 6.057 6.057.365.311 2.147-1.239 1.839-1.499-1.997-1.749-4.652-4.398-6.396-6.397-.259-.308-1.812 1.472-1.5 1.839z"/><path d="m13.276 34.081c1.977 2.336 2.76 3.119 5.097 5.097.438.345 2.511-.827 2.161-1.103-2.203-1.865-4.288-3.957-6.155-6.157-.275-.35-1.447 1.724-1.103 2.163z"/></g></svg>