<svg enable-background="new 0 0 64 64" height="64" viewBox="0 0 64 64" width="64" xmlns="http://www.w3.org/2000/svg"><path d="m10.454 16.313c-.267.419-.11 1.471.983 1.29 2.376-.394 1.752-1.788 4.729-2.4-1.024-3.358-5.335.517-5.712 1.11z" fill="#e6b045"/><path d="m62 39.102s-40.412 6.605-60 4.014v18.884h60z" fill="#18b5f8"/><path d="m16.031 10.357c-.82.27-5.011 1.544-8.136 2.167-.563.112-2.393 1.959-3.541 2.757-1.628 1.13-.374 2.477.88 1.75 1.125-.653 2.457-1.71 3.286-1.978 2.792-.901 5.354 1.881 8.688-.435 6.682-.472 17.714 2.586 18.2 3.766 3 7.277 1.271 10.343 2.684 15.922-.926 2.039-5.043 13.611-1.502 13.611 10.502 0 16.69-3.246 25.41-3.246v-9.238s-6.907-4.87-14.641-5.707c-1.877-9.886-5.164-18.405-7.326-18.879-4.783-1.049-22.407-1.013-24.002-.49z" fill="#fc6"/><g fill="#e6b045"><path clip-rule="evenodd" d="m54.001 41.531s2.148-8.48-5.937-10.573c6.458 3.009 5.937 10.573 5.937 10.573z" fill-rule="evenodd"/><path clip-rule="evenodd" d="m51.606 36.947c-1.125.27-2.015-2.381-.889-2.646 1.128-.268 2.016 2.381.889 2.646z" fill-rule="evenodd"/><path d="m36.867 48.27c4.473-4.377 4.471-5.258-.002-9.635z"/><path d="m23.109 32.955s5.971 3.612 6.465 1.985c1.485-4.892-7.457-1.868-6.465-1.985z"/><path d="m23.109 53.951s5.971-3.613 6.465-1.984c1.485 4.89-7.457 1.867-6.465 1.984z"/></g><path d="m11.619 43.455c0 7.271 5.48 10.777 13.105 10.338 1.533-.088 6.537-1.041 8.33-1.943 1.838-.924 4.668-4.006 5.254-5.896.369-1.193.369-3.805 0-5-.586-1.889-3.416-4.973-5.254-5.895-1.793-.904-6.797-1.855-8.33-1.945-7.624-.439-13.105 3.068-13.105 10.341z" fill="#fc6"/><path d="m29.678 41.199c1.461 0 1.461 4.508 0 4.508-.336 0-.336-4.508 0-4.508z" fill="#e6b045"/><path d="m22.262 35.266c-.82 1.662-.861 4.844-.287 6.029.109.254.891.086.816-.129-.611-1.652-.625-4.316.053-5.863.086-.209-.467-.293-.582-.037z" fill="#c1873c"/><path d="m22.262 51.646c-.82-1.664-.861-4.848-.287-6.035.109-.254.891-.086.816.129-.611 1.656-.625 4.316.053 5.867.086.206-.467.289-.582.039z" fill="#c1873c"/><path d="m24.523 32.464c-17.533-2.281-17.533 24.258 0 21.979-3.197-3.015-3.197-18.964 0-21.979z" fill="#e81c27"/><path d="m25.771 34.414c3.967 0 3.967 8.133 0 8.133-3.968 0-3.968-8.133 0-8.133z" fill="#302c3b"/><path d="m25.771 35.432c2.381 0 2.381 6.1 0 6.1-2.382-.001-2.382-6.1 0-6.1z" fill="#44618b"/><path d="m25.771 44.359c3.967 0 3.967 8.133 0 8.133-3.968 0-3.968-8.133 0-8.133z" fill="#302c3b"/><path d="m25.771 45.375c2.381 0 2.381 6.102 0 6.102-2.382 0-2.382-6.102 0-6.102z" fill="#44618b"/><path d="m24.879 41.928h1.787v3.051h-1.787z" fill="#006dae"/><path d="m26.666 33.301v1.748h-1.787v-1.996z" fill="#006dae"/><path d="m26.666 51.857v1.75l-1.787.248v-1.998z" fill="#006dae"/><path d="m35.076 41.852c1.418 0 1.418 3.205 0 3.205-2.752 0-2.752-3.205 0-3.205z" fill="#45332c"/><path d="m2 62h60v-12.82c-31.227-5.727-28.988 3.957-60 1.004z" fill="#48c2f9"/><path d="m62 54.834c-21.779-1.338-32.574 2.996-60 1.496v5.67h60z" fill="#7ed2fc"/></svg>