<svg enable-background="new 0 0 64 64" height="64" viewBox="0 0 64 64" width="64" xmlns="http://www.w3.org/2000/svg" xmlns:xlink="http://www.w3.org/1999/xlink"><radialGradient id="a" cx="52.3594" cy="35.876" gradientTransform="matrix(1.006 0 0 .8401 -.8445 5.7382)" gradientUnits="userSpaceOnUse" r="3.1002"><stop offset="0" stop-color="#6e8189"/><stop offset=".1728" stop-color="#5f6d77"/><stop offset=".5252" stop-color="#464a56"/><stop offset=".8136" stop-color="#363442"/><stop offset="1" stop-color="#302c3b"/></radialGradient><path d="m21.584 12.18c2.04 5.063-1.268 6.449 3.433 8.412 4.991-.105 3.102-3.156 6.485-6.672-1.501-1.947-6.746-2.957-9.918-1.74z" fill="#916b50"/><path d="m33.597 10.287s-2.835 3.211-1.898 3.68c2.816 1.412 1.935-4.287 1.898-3.68z" fill="#755035"/><path d="m20.831 8.061s1.556 3.977.513 4.1c-3.134.374-.335-4.684-.513-4.1z" fill="#755035"/><path d="m20.663 8.381c-.485 4.354 2.003 7.266 5.211 7.826 3.204.559 6.719-1.307 7.77-5.563 1.025-4.156-12.506-6.517-12.981-2.263z" fill="#614036"/><path d="m33.745 11.191c3.268-10.305-12.872-13.119-13.364-2.33 1.203 4.872 10.878 6.573 13.364 2.33z" fill="#e81c27"/><path d="m37.853 26.155c-.697-.162-1.393-1.402-1.922-2.973.66.258 1.416.354 2.287.186-6.197-3.748-2.631-17.234-11.63-14.281-1.515.498-1.435 2.408-1.435 2.408 6.532-.883 1.52 8.408 6.551 11.063-.496-.492-.496-1.521-.363-2.738.965 3.495 2.623 6.808 6.512 6.335z" fill="#614036"/><path d="m37.853 26.155c-.697-.162-2.795-1.912-3.326-3.482 1.807 1.088 2.869 1.246 3.691.695-8.068-2.277-4.807-16.848-13.064-11.873 5.53-.563 1.52 8.408 6.551 11.063-1.443-1.563-1.342-2.885-.77-3.709.965 3.494 3.029 7.779 6.918 7.306z" fill="#4a2e24"/><path d="m52.819 40.924c-.469.83-3.184 1.314-3.383.096-.516-3.17.645-5.314 2.246-6.367 2.296 1.189 3.262 2.492 1.137 6.271z" fill="url(#a)"/><path d="m16.859 14.541c.321-1.275-1.272-1.809-1.692-.623-3.371-.115-2.733 2.395-3.298 2.662.315 1.951 2.137 8.666 2.736 9.023 2.432 1.447 2.542-2.945 1.747-4.385-.724-1.314-2.184-3.748-1.695-5.158.202-.581 1.842-.083 2.202-1.519z" fill="#755035"/><path d="m21.029 60.744s.396.625 0 1.256h-5.188c-.443-.627 0-1.256 0-1.256z" fill="#45332c"/><path d="m21.029 56.977s.71 2.023 0 3.768c0 0-1.655.629-5.188 0-.646-1.893 0-3.768 0-3.768z" fill="#594640"/><path d="m38.778 52.863c.385 1.111-.518 8.25-4.82 9.137-4.259 0 .969-5.764-.051-7.988 0 0 1.004-3.782 4.871-1.149z" fill="#594640"/><path d="m38.778 52.863c1.174.899.707 9.137-4.82 9.137-2.906 0 2.475-5.311 1.461-8.863 0 0-.508-2.907 3.359-.274z" fill="#45332c"/><path d="m25.996 34.653c-3.021-1.824-10.66-1.235-10.66-1.235-2.17 9.059-1.901 12.277.122 24.26 0 0 2.192.094 5.756-.486-2.109-9.486-1.759-8.111-.203-15.855 2.27 5.297 2.632 6.211 3.892 7.906 1.483 1.988 9.028 5.572 9.028 5.572s1.387-3.082 5.119-1.836c.666-2.006-9.193-5.783-10.119-7.961-1.019-2.418-1.799-9.085-2.935-10.365z" fill="#6e8189"/><path d="m26.543 35.12s-4.313 1.991-11.518-1.468c2.606-7.266 4.329-11.59 6.308-16.342 1.908-1.141 7.592 1.037 7.592 1.828-.072 4.555-3.337 8.39-2.382 15.982z" fill="#8e3ed6"/><path d="m10.3 15.488c-.002-.229 2.383.338 3.092.137-.136 2.23.994 3.949 1.869 6.068 3.982-2.467 8.938-.344 7.276.807-1.919 1.34-6.875 4.766-9.306 3.318-.974-.58-2.902-8.109-2.931-10.33z" fill="#916b50"/><path d="m23.213 22.701c4.037-3.279-.006-8.012-3.316-4.402-2.356 1.561-4.296 2.994-4.296 2.994 2.986 2.15 2.248 4.143 2.248 4.143s3.704-1.387 5.364-2.735z" fill="#5d1e96"/><path d="m52.13 34.926c.654.395-.002 1.422-.65 1.018-7.69-4.784-28.926-18.173-28.926-18.173l.649-1.018c0 .001 18.61 11.911 28.927 18.173z" fill="#6e8189"/><path d="m11.492 8.746 14.44 9.072c.792.486-.468 2.43-1.244 1.943l-14.438-9.072c-.782-.49.449-2.437 1.242-1.943z" fill="#302c3b"/><path d="m15.196 13.014c.252 1.037 1.256 1.037 1.638.354 1.249-2.002.395-2.377-.245-2.189-.861-1.741-2.779 2.212-1.393 1.835z" fill="#755035"/><path d="m13.815 15.516c-.061.168-.117.355-.172.537-1.201.318-3.372-.42-3.574-.486.159-.803-.158-1.975-.043-2.723.279-1.846 1.627-4.75 2.655-3.506.291-.361 1.015-.09 1.132.289 0 0 .897-.469 1.276.459.734-.213 1.761.309-.471 3.207l1.357.996c-.285 1.352-1.951.649-2.16 1.227z" fill="#99a8ae"/><path d="m10.882 13c-.206-1.859 2.481-1.84 2.593.596-.225.295-2.137.121-2.593-.596z" fill="#916b50"/></svg>