<svg enable-background="new 0 0 64 64" height="64" viewBox="0 0 64 64" width="64" xmlns="http://www.w3.org/2000/svg" xmlns:xlink="http://www.w3.org/1999/xlink"><radialGradient id="a" cx="26.57021616" cy="24.95604654" gradientUnits="userSpaceOnUse" r="34.26710502"><stop offset="0" stop-color="#f80"/><stop offset=".2913" stop-color="#fc8500"/><stop offset=".5282" stop-color="#f27e00"/><stop offset=".7453" stop-color="#e17000"/><stop offset=".9273" stop-color="#cc6000"/></radialGradient><radialGradient id="b" cx="555.6484" cy="-15.2764" gradientTransform="matrix(.3583 .4654 -.7924 .61 -189.2077 -228.6484)" gradientUnits="userSpaceOnUse" r="22.0688"><stop offset="0" stop-color="#ffdada"/><stop offset="1" stop-color="#ffdada" stop-opacity="0"/></radialGradient><circle cx="32" cy="32" fill="url(#a)" r="30"/><path d="m46.857 38.858c-11.041-3.657-20.576-6.815-24.343-14.4-.253-.508-.461-1.03-.631-1.563 14.353-5.514 31.31-6.788 38.499-.633-.25-.729-.526-1.444-.829-2.146-3.47-2.354-9.387-3.706-16.027-3.436-6.949.283-14.857 1.996-22.013 4.701-.536-3.144.26-6.53 2.322-9.521 3.55-5.146 9.838-8.161 17.295-8.442-.925-.295-1.868-.547-2.829-.753-7.552.703-12.649 3.82-15.747 8.312-2.368 3.435-3.229 7.354-2.514 10.982-1.223.493-2.423 1.013-3.584 1.562-.868.411-1.699.83-2.5 1.256-.812-3.287-1.245-6.48-1.202-9.406.037-2.481.453-5.427 1.861-7.821-.678.482-1.333.993-1.967 1.529-2.523 5.79-1.013 12.806-.08 16.461-1.568.894-2.989 1.815-4.259 2.757-.809-2.883-2.02-5.607-3.93-8.025-.24.564-.462 1.139-.668 1.721 1.565 2.224 2.573 4.717 3.258 7.353-2.177 1.798-3.803 3.653-4.835 5.514.071.755.171 1.503.298 2.241.879-1.752 2.309-3.807 4.927-6.08.631 3.026.919 6.195 1.202 9.323.422 4.672 1.001 10.817 3.287 13.883.813.737 1.668 1.433 2.559 2.078-3.192-3.932-3.718-9.713-4.296-16.101-.313-3.454-.63-6.956-1.392-10.29 1.25-.959 2.677-1.903 4.269-2.824 1.287 4.5 3.225 9.215 5.699 13.724 4.983 9.082 11.625 18.307 21.602 20.028.855-.245 1.695-.528 2.519-.847-1.904-.025-3.9-.544-5.98-1.565-9.245-4.544-18.762-18.874-22.465-32.107.876-.472 1.795-.937 2.76-1.393 1.079-.511 2.185-.996 3.308-1.456.188.571.417 1.133.689 1.68 4.055 8.166 13.877 11.419 25.248 15.186 4.157 1.377 8.424 2.793 12.737 4.533.223-.469.434-.943.632-1.424-4.372-1.769-8.68-3.2-12.88-4.591z" fill="#1a1626"/><path d="m29.894 30.903c-9.658 7.435-21.027 8.862-25.393 3.19-4.368-5.674-.08-16.299 9.578-23.733s21.026-8.863 25.393-3.19c4.369 5.673.08 16.299-9.578 23.733z" fill="url(#b)" opacity=".5"/></svg>