<svg enable-background="new 0 0 64 64" height="64" viewBox="0 0 64 64" width="64" xmlns="http://www.w3.org/2000/svg" xmlns:xlink="http://www.w3.org/1999/xlink"><linearGradient id="a" gradientUnits="userSpaceOnUse" x1="31.4868" x2="31.4868" y1="62" y2="11.9751"><stop offset="0" stop-color="#916958"/><stop offset=".537" stop-color="#ae7b65"/><stop offset="1" stop-color="#c2886f"/></linearGradient><path d="m48.533 38.396c1.059 15.764-4.707 10.284-5.592 17.55-.113.917 3.85 1.287 3.975.039-.811-4.041 3.594-2.593 6.004-9.197.424-1.163-3.789-4.958-4.387-8.392z" fill="#856050"/><path d="m59.361 34.368c1.612-7.96-12.689-10.368-11.361-1.229 10.266-2.229 1.516 10.339 14 14.432-3.828-5.446-3.725-7.846-2.639-13.203z" fill="#302c3b"/><path d="m15.441 55.429c.838.219 3.006-.037 1.289-3.772-1.104-2.402 5.502-5.134 7.266-10.482-9.639 1.504-13.014 9.785-8.555 14.254z" fill="#856050"/><path d="m16.73 51.656s-.436 2.09-1.289 3.772c-.129.255 2.496 1.517 3.307 1.447-.162-1.691.754-6.733-2.018-5.219z" fill="#302c3b"/><path d="m46.916 55.985c-2.313.709-3.143-.507-3.975-.039-.197.11-1.395 2.103.688 3.844.258.214 3.92-1.597 3.287-3.805z" fill="#302c3b"/><path d="m60 57.19c-.354-.341.176-1.474 0-1.925-.438-1.126-3.305-1.886-4-2.886-.574-.823-.021-3.534-1-3.849-3-.961-6-3.848-6-4.81 0-1.684 2-3.608 2-6.734 0-3.607-2.375-7.696-7-7.696-4 0-7.438 1.653-10 2.887-6 .961-7.791-2.067-9-6.734-1.068-4.123-2.5-13.469-10-13.469-3 0-4.879 2.286-6.055 3.707-1.25 1.512-4.795 4.559-4.898 5.598-.262 2.627-.75 3.729 1.832 3.93-.115.732 1.938 1.107 2.188-.367.271-1.595 3.375-.25 5.041-2.619 1.667 6.232-1.108 8.992-1.108 13.802 0 1.528.307 2.779.811 3.816-2.567-.361-4.911-.915-5.811-.915-1.104 0-1.715.884-2 1.91-.582 2.089-3 7.115-3 9.625 0 3.897 3 5.768 4 5.768.625 0 .529-4.93-.334-5.553-1.807-1.306 1.076-5.735 2.334-6.944 1.414-1.357 4 1.913 8 1.913 1.248 0 2.193-.62 2.912-1.479 2.043.489 4.018.517 5.088.517 5.166 0 10.5-1.924 14-1.924 2.945 0 4.85 5.406 10 6.734 2.16.557 4.215 1.704 5 2.886.957 1.443 3 9.62 7 9.62 2 .001.354-4.469 0-4.809z" fill="url(#a)"/><path d="m5.666 50.676s-.666 2.666-1.666 4.59c-.15.292 1.16 2.335 3.234 1.846-.109-2.932 2.219-6.436-1.568-6.436z" fill="#38434a"/><path d="m29.428 15.906c-.496 1.047-1.953 5.03-5.094 6.413 3.453 4.416 6.561-3.839 5.094-6.413z" fill="#529320"/><path d="m38.795 20.846c-7.066 5.111-9.236 6.779-7.631 9.696 6.344 2.375 4.389-1.338 7.631-9.696z" fill="#94989b"/><path d="m11.943 16.283c-.18-.263-3.377-1.016-1.848 1.313.725-.821 2.03-1.05 1.848-1.313z" fill="#302c3b"/><path d="m5.506 18.879c1.322 1.677 2.307 3.391 3.002 5.379.207.588 1.162.336.955-.258-.725-2.067-1.734-3.864-3.104-5.611-.412-.535-1.16.101-.853.49z" fill="#302c3b"/><path d="m38.139 36.148s.705 4.624-1.043 6.749c0 0 1.846-.187 2.621.428 1.568-3.781.549-7.778.547-7.781z" fill="#302c3b"/><path d="m29.826 34.673s-1.621 4.988-.176 9.64c0 0-1.51.094-2.621.428-1.234-5.942.477-10.155.477-10.158z" fill="#302c3b"/><path d="m24.656 26.735s-1.318 11.001 10.129 11.337c7.002.207 9.875-8.825 7.271-8.975-3.292-.19-11.812 5.452-17.4-2.362z" fill="#99a8ae"/><g fill="#302c3b"><path d="m26 28.329s1.779 7.819 8.785 7.819c3.211 0 6.115-3.101 6.115-6.949-3.388.446-8.812 2.764-14.9-.87z"/><path d="m25.248 22.748c0-4.979-2.248-7.888-5.689-7.888l.441 1.924c2.221 2.137 2.615 4.104 3 5.772 1 4.329 3 5.772 3 5.772s-.752-3.518-.752-5.58z"/><path d="m22.127 19.01c1.504-4.164-1.127-6.695-4.654-6.695 0 0-.645 1.879.467 3.826.941 1.654 2.17 2.603 2.17 5.332.001 3.548 1.89 3.97 1.89 3.97s-1-3.307.127-6.433z"/><path d="m17 16.784c0-3.026-2-5.772-2-5.772 4.502 0 4.59 4.887 4 7.697-.406 1.93 0 3.848 0 3.848s-2-.962-2-5.773z"/><path d="m13 11.012c-1.5 0-3.553 1.393-2 2.887.969.932 2.082.962 3 2.886 0 0 .916-1.042 0-1.924-2.824-2.716-1-3.849-1-3.849z"/></g><path d="m12 8.126s0 5.772 1.418 5.772c3.103 0 4.252-3.847-1.418-5.772z" fill="#c2886f"/><path d="m19.303 23.748c-3.328.154-6.988-.511-10.373-1.576-.727-.232-1.199.657-.467.889 3.539 1.116 7.344 1.954 10.84 1.809z" fill="#302c3b"/><path d="m13 10.051s0 2.886 1 2.886c.957 0 1-1.925-1-2.886z" fill="#856050"/><path d="m28.115 15.916c.977-1.125 1.279.797 2.299.963 0 0 .238-1.633 2.756-2.939 0 0-.818-.883-1.813-2.469-2.16-4.641-3.242 4.445-3.242 4.445z" fill="#755035"/><path d="m21.42 9.338c.068.785.375 1.325.832 1.875.711.845.516 1.537.129 2.563-.369.972.699 1.131 1.443.744.266.142.395.516.395.516s.793.154.734 1.181c.891.271.357 1.794 1.855 1.097 1.465-.68 2.811-2.688 2.975-3.16.258-.746-.369-2.345-.369-2.345 1.027.524 1.84-1.677.977-3.421-1.43-2.894-5.924-5.575-8.971.95z" fill="#916b50"/><path d="m28.479 9.963c-.375-.678-.123-1.557.451-1.852 0 0-.545 1.307.301 2.268-.001 0-.499.056-.752-.416z" fill="#755035"/><path d="m25.342 11.186c-.186.594-1.027 1.242-1.373 1.316-1.799-1.898.435-2.039 1.373-1.316z" fill="#f5f5f5"/><path d="m24.008 12.491c.893-.413-.695-2.546-.725-1.007.071.239.543 1.092.725 1.007z" fill="#45332c"/><path d="m25.342 11.186c-.648-.767-2.504-.729-2.059.299-.004-.655 1.264-.776 2.059-.299z" fill="#755035"/><path d="m23.572 11.391c.104.213.42.066.316-.145-.099-.197-.415-.053-.316.145z" fill="#f5f5f5"/><path d="m24.732 9.662c-.842-.154-2.045.375-2.334.892-.068.104.205.496.264.418.457-.616 1.451-1.087 2.211-.989.098.011-.016-.301-.141-.321z" fill="#664129"/><path d="m24.4 15.336c.371.045.291.438.291.438-.137.063.059.536.262.442 1.01-.47 1.076-1.287 1.172-1.772-1.139.457-2.518.432-1.725.892z" fill="#664129"/><path d="m24.4 15.336s.211.4.291.438c.223-.102.959-.654 1.256-1.158z" fill="#fff"/><path d="m29.926 3.828c-1.232-.853-2.98-.968-5.395.151-2.223 1.03-3.211 2.368-3.928 2.362 0 0 .061.412.357.648-.303.157-.582.045-.582.049-.049.436.018 1.486 1.041 2.299 2.885-2.903 3.686-1.802 4.963-1.221.295.137.203 1.39 1.621 1.96-.902-2.306 1.893-3.347 2.529-1.286.408 1.319.098 2.1-.072 2.523.584-.083 1.057.408 1.057.408 2.508-1.162.534-7.463-1.591-7.893z" fill="#614036"/><path d="m24.289 13.83c.043.354-.367.659-.641.785-.367.17-.803.161-1.09-.016-.011-.37 1.159.015 1.731-.769z" fill="#755035"/><path d="m31.156 7.107s-.932-.117-.885.094c.191.878-.148 3.07-.148 3.07s-2.568-.904-3.893-3.112c-.111-.189-.682.354-.682.569-.006 1.316 4.354 3.555 4.354 3.555s-.721 3.637-1.52 4.818c3.077-1.406 2.774-8.994 2.774-8.994z" fill="#302c3b"/><path d="m25.344 2.137c-3.572.715-5.885 4.023-5.168 7.388.197.928 3.805-1.03 6.393-1.548 2.361-.472 6.781.105 6.537-1.035-.717-3.366-4.192-5.518-7.762-4.805z" fill="#e81c27"/><path d="m21.979 23.362-.906.052c-.787-.509-1.58-.176-2.424-.205-.432-.014-.984.287-.861.555l.639.131c-.385.41-1.162 1.112-.551 1.326 1.117.39.938.994 2.277 1.199.488.074 1.238-.466 1.486-.795l.895-.113z" fill="#916b50"/><path d="m28.053 22.174s-3.736.797-6.563 1.047c0 0 .832 1.691.461 2.521 0 0 6.291-.172 7.977-1.149 1.527-.886 3.879-5.379 3.879-5.379l4.988 1.633s3.639-.494 6.428-3.388c0 0-3.758-4.356-13.051-4.774 0 0-1.293.902-2.406 3.09-.811 1.918-.416 3.694-1.713 6.399z" fill="#7ab51d"/><path d="m38.795 20.846s-4.896 4.58-5.914 7.451c-.689 1.945 1.605 4.65 2.047 5.541 0 0 2.252.094 3.449-1.252 0 0 .021-1.025-1.721-3.48 0 0 5.654-2.326 7.822-4.414 2.164-2.088 2.641-4.04.744-7.233z" fill="#d0d0d0"/><path d="m36.639 38.314s-3.283 2.525-3.348 3.137c-.07.613.766.724.766.724s3.266-.229 6.619-1.729l-2.732-9.668s-1.145 1.475-3.99 2.204z" fill="#594640"/><path d="m60 57.19s-.336 2.405-2.672 3.484c0 .001.672 1.326 2.672 1.326s1.707-4.81 0-4.81z" fill="#38434a"/><path d="m35.146 37.324s-.049 2.053.957 4.63c0 0-.922.577-1.928.413-1.09-2.637-.834-5.043-.834-5.043z" fill="#302c3b"/><path d="m4.631 21.303c.121.768-.207 1.662-.031 1.653.173-.009 1.552-1.675.031-1.653z" fill="#856050"/><path d="m6.057 25.605c-.26-.296-.26-.296-.623-.444 2.722-3.42 2.423-3.087.623.444z" fill="#856050"/><path d="m9.164 22.632c0 1.519-2.369 1.519-2.369 0s2.369-1.519 2.369 0z" fill="#99a8ae"/></svg>