<svg enable-background="new 0 0 64 64" height="64" viewBox="0 0 64 64" width="64" xmlns="http://www.w3.org/2000/svg" xmlns:xlink="http://www.w3.org/1999/xlink"><linearGradient id="a" gradientTransform="matrix(1 0 0 -1 -56 -80)" gradientUnits="userSpaceOnUse" x1="69.5215" x2="105.1248" y1="-136.3105" y2="-132.5959"><stop offset="0" stop-color="#b9f44c"/><stop offset=".1759" stop-color="#95e76c"/><stop offset=".3211" stop-color="#7ede81"/><stop offset=".4131" stop-color="#76db88"/><stop offset=".637" stop-color="#4ac5a3"/><stop offset=".8767" stop-color="#20b0bc"/><stop offset="1" stop-color="#10a8c6"/></linearGradient><radialGradient id="b" cx="61.0127" cy="-1576.4531" gradientTransform="matrix(.9996 -.0698 -.0147 -.2105 -52.2683 -274.2069)" gradientUnits="userSpaceOnUse" r="30.213"><stop offset=".6319" stop-color="#fff" stop-opacity=".3"/><stop offset=".7129" stop-color="#e5e5e6" stop-opacity=".328"/><stop offset=".8593" stop-color="#a3a1a7" stop-opacity=".3882"/><stop offset="1" stop-color="#393644" stop-opacity=".4752"/></radialGradient><path d="m59.484 51.284c-.125-.591 1.908-1.492.736-2.368-12.521-4.448-43.479-.775-57.967 7.496-.412.236-.256.953.004 1.053 6.645 2.596 15.418 3.621 24.252 3.529 14.731-.15 29.641-3.404 35.176-7.666 1.26-.967-1.63-1.214-2.201-2.044z" fill="url(#a)"/><path d="m59.484 51.284c-.125-.591 1.908-1.492.736-2.368-12.521-4.448-43.479-.775-57.967 7.496-.412.236-.256.953.004 1.053 6.645 2.596 15.418 3.621 24.252 3.529 14.731-.15 29.641-3.404 35.176-7.666 1.26-.967-1.63-1.214-2.201-2.044z" fill="url(#b)" opacity=".25"/><path d="m13.333 55.467c-.375-.777.449-1.576 1.861-1.787 1.396-.205 2.846.254 3.221 1.031.377.779-.463 1.578-1.859 1.787-1.412.209-2.844-.254-3.223-1.031zm-.843.125c.498 1.037 2.416 1.654 4.291 1.375 1.863-.275 2.982-1.344 2.482-2.381-.502-1.036-2.434-1.65-4.295-1.374-1.879.277-2.982 1.345-2.478 2.38z" fill="#a6dd3a"/><path d="m16.033 54.664c.029.061-.012.102-.127.119l-.336.051c-.113.016-.186-.008-.217-.068l-.297-.609c-.027-.063.014-.104.129-.121l.166-.024c1.074-.159 2.186.194 2.473.79.143.291.059.596-.215.85-.047.055-.129.066-.236.035l-.447-.146c-.107-.033-.129-.076-.064-.133.141-.143.193-.314.113-.48-.131-.27-.564-.453-1.041-.467z" fill="#a6dd3a"/><path d="m55.213 22.788c-.229-.719-2.551-.525-5.123 0-2.424.49-4.305-.694-6.467-.655l-5.5-2.009c-.354 1.203-.422 2.842-.793 4.037 2.08.652 4.064.717 5.285.955 2.766.629 7.67-.486 7.67-.486 4.16.729 4.488.624 2.793-.217-.033-.342 1.215-.352 2.625-.438 2.789-.171-.49-1.187-.49-1.187z" fill="#e3c19b"/><path d="m5.238 29.838c-.111-.743 2.066-1.55 4.615-2.163 2.404-.58 3.57-2.439 5.537-3.322l3.963-3.91c.854.937.666 2.861 1.535 3.781-1.584 1.467-2.617 1.586-3.609 2.314-2.217 1.736-6.783 2.88-6.783 2.88-3.426 2.413-3.766 2.457-2.611.983-.123-.323-1.254.197-2.563.716-2.59 1.023-.084-1.279-.084-1.279z" fill="#e3c19b"/><path d="m40.422 34.271c-.432-.297-4.637-2.529-7.944-3.069-.357-.957 2.422-4.016 2.891-7.59 0 0 1.229.246 1.959.55 0 0 1.264-2.156.822-4.037-1.021-.702-2.6-2.069-5.006-2.56-1-.203-4.389-.758-5.489-.748-3.043.026-5.799.485-8.303 3.625.328 2.127 1.535 3.781 1.535 3.781s1.82-1.246 2.816-1.548c1.623 7.97-6.326 9.948.82 17.621 5.068-1.355 5.953-.829 5.068-3.247 2.096.511 2.129 1.211 7.43 2.146 1.463.259 4.387-4.246 3.401-4.924z" fill="#7ab51d"/><path d="m23.705 22.676c1.34 7.707-5.795 9.401 1.537 16.969.236-.064.324-.625.543-.682-6.534-7.348.297-9.673-2.08-16.287z" fill="#89cc14"/><path d="m42.822 38.413c.123-1.55.195-3.036-2.4-4.144-2.277-.254-3.957 3.679-3.398 4.926.498.229 1.762.619 1.762.619-.359 2.912 1.859 4.892 2.326 8.297.244 1.793-.73 2.92 1.701 3.338 1.668.287 3.008 2.111 5.691.263 1.301-.897-3.961-1.241-4.953-3.594-.395-.936-.842-8.309-.729-9.705z" fill="#e3c19b"/><path d="m29.47 42.616c.996-1.25 1.201-2.991.398-4.626-2.27-.706-5.039.337-5.342 2.307.33.482.588.939.588.939-1.982 2.271-.828 4.937-2.332 8.109-.793 1.67-2.334 2.063-.324 3.836 1.375 1.217 1.398 3.791 4.924 3.779 1.707-.008-2.947-3.363-2.529-5.947.168-1.027 3.723-7.277 4.617-8.397z" fill="#e3c19b"/><path d="m38.238 20.731c-1.02-.699-2.139-2.854-5.577-3.619-.996-.223-3.898-.563-4.996-.555-3.043.028-5.746 1.053-8.25 4.191 0 0 .008.436.201.82 1.533-1.861 3.111-3.084 4.811-3.694 1.01.397 4.393 1.993 5.936 6.011 2.008-3.723 4.188-4.51 5.067-4.684 1.172.87 2.125 1.945 2.768 2.389-.003.001.144-.414.04-.859z" fill="#89cc14"/><g fill="#d6a67a"><path d="m27.904 17.421c0 2.459 4.783 2.459 4.783 0v-2.55h-4.783z"/><path d="m24.515 9.32c-1.934-.346-.426 5.047 1.088 3.56.703-.69-.184-3.395-1.088-3.56z"/><path d="m36.078 9.32c-.904.165-1.791 2.87-1.09 3.56 1.516 1.487 3.024-3.905 1.09-3.56z"/></g><path d="m30.296 3c-3.996 0-5.924 3.018-5.684 7.212.049.844.572 3.598 1.066 4.583.51 1.013 2.203 2.569 3.242 2.892.656.205 2.092.205 2.748 0 1.041-.321 2.735-1.879 3.241-2.892.498-.985 1.02-3.739 1.068-4.583.246-4.194-1.682-7.212-5.681-7.212z" fill="#e3c19b"/><path d="m30.296 14.42c-.898-.264-2.232.125-2.232.125.508.552.879 1.267 2.232 1.267 1.549 0 1.814-.811 2.232-1.267-.001 0-1.333-.392-2.232-.125z" fill="#bf8c6b"/><path d="m28.404 14.64c.943.788 2.848.793 3.797 0-1.006.041-2.784.043-3.797 0z" fill="#fff"/><path d="m31.537 12.938c0 .805-2.48.805-2.48 0-.001-.186 2.48-.186 2.48 0z" fill="#d6a67a"/><path d="m30.296 3c-2.75 0-4.412.906-5.127.559 0 0-.08.467.201.772 0 0-.297.255-.773-.177-.457 1.478.896 2.33 5.699 2.33 4.805 0 3.657-1.166 6.02.883-.232-2.524-1.841-4.367-6.02-4.367z" fill="#efde8b"/><path d="m32.33 5.201c-2.645.975-3.611-.782-6.105-.954 1.188.562 1.766 1.421 2.74 2.043-2.121-.709-3.68-1.927-3.797-2.729 0 0-.354 1.17 1.047 2.043-1.342.123-1.619-1.445-1.619-1.445-.678 1.088-.584 4.592.168 7.188.125-.928-.16-1.311.27-2.428 1.289-3.342.461-1.938 5.266-1.938 4.803 0 3.938-1.278 5.262 1.938.395.958.143 1.5.27 2.428 1.576-5.863-.693-7.178-3.502-6.146z" fill="#ba9d52"/><path d="m34.576 10.536c-.533 1.395-2.708 1.191-3.106.214.303-1.568 2.813-1.702 3.106-.214z" fill="#fff"/><path d="m26.015 10.536c.533 1.395 2.709 1.191 3.107.214-.302-1.568-2.814-1.704-3.107-.214z" fill="#fff"/><path d="m34.799 8.857c-.916-.451-2.663-.476-3.315-.157-.141.059-.049.487.068.448.908-.336 2.374-.344 3.223.028.118.049.163-.255.024-.319z" fill="#bf8c6b"/><path d="m25.794 8.857c.914-.451 2.662-.476 3.316-.157.139.059.047.487-.072.448-.906-.336-2.371-.344-3.225.028-.11.049-.157-.255-.019-.319z" fill="#bf8c6b"/><path d="m32.025 10.388c0 1.225 1.776 1.225 1.776 0 0-1.137-1.776-1.137-1.776 0z" fill="#613f34"/><path d="m32.203 10.778c0 .703 1.424.703 1.424 0 0-.65-1.424-.65-1.424 0z" fill="#7d5037"/><path d="m32.542 10.407c0 .506.739.506.739 0 0-.47-.739-.47-.739 0z" fill="#1a1626"/><path d="m32.292 10.258c0 .257.371.257.371 0 .001-.237-.371-.237-.371 0z" fill="#ab968c"/><path d="m26.791 10.388c0 1.225 1.775 1.225 1.775 0 0-1.137-1.775-1.137-1.775 0z" fill="#613f34"/><path d="m26.966 10.778c0 .703 1.426.703 1.426 0 0-.65-1.426-.65-1.426 0z" fill="#7d5037"/><path d="m27.31 10.407c0 .506.736.506.736 0 .002-.47-.736-.47-.736 0z" fill="#1a1626"/><path d="m27.058 10.258c0 .257.373.257.373 0 0-.237-.373-.237-.373 0z" fill="#ab968c"/><path d="m34.576 10.524c0-1.497-3.106-1.497-3.106.238.446-1.422 2.665-1.422 3.106-.238z" fill="#d6a67a"/><path d="m26.015 10.524c0-1.497 3.107-1.497 3.107.238-.445-1.423-2.662-1.423-3.107-.238z" fill="#d6a67a"/></svg>