<svg enable-background="new 0 0 64 64" height="64" viewBox="0 0 64 64" width="64" xmlns="http://www.w3.org/2000/svg"><path d="m2 16.234h60v1.537h-60z" fill="#99a8ae"/><path d="m50 14.002h1v6h-1z" fill="#6e8189"/><path d="m51 8h5v18.002h-5z" fill="#302c3b"/><path d="m56 14.002h2v6h-2z" fill="#6e8189"/><path d="m56.5 13.002h1v2h-1z" fill="#302c3b"/><path d="m13 14.002h1v6h-1z" fill="#6e8189"/><path d="m8 8h5v18.002h-5z" fill="#302c3b"/><path d="m6 14.002h2v6h-2z" fill="#6e8189"/><path d="m6.5 13.002h1v2h-1z" fill="#302c3b"/><path d="m41.053 39.468c-5.408-1.359-4.611-6.533-4.611-6.533l-4.442 1.261-4.441-1.262s.797 5.174-4.611 6.533c.697 2.613 3.098 3.475 2.043 7.186-2.043 7.193 2.076 8.539 7.01 8.539s9.053-1.346 7.01-8.539c-1.056-3.711 1.344-4.572 2.042-7.185z" fill="#7ab51d"/><path d="m38.764 44.541s-3.264 1.565-6.764 1.565-6.764-1.565-6.764-1.565l-.127 1.642s3.391 2.574 6.891 2.574 6.891-2.574 6.891-2.574z" fill="#302c3b"/><g fill="#fc6"><path d="m27.559 32.935s-.477-1.762-3.045-2.496c-.974-4.599-3.057-6.733-4.168-11.146h-2.691c1.824 4.871-1.342 9.393 4.6 16.174-.158 2.211.693 4.002.693 4.002 5.933-.761 4.611-6.534 4.611-6.534z"/><path d="m16.989 17.776c-.033 2.475 3.883 3.42 4 0z"/><path d="m17.731 16.465s.391.454.969.078c.234.592.906.458 1.166.136.053.255.6.324.6.324s-1.772.372-1.922 1.103c-.328 1.603 1.305 1.67 1.813 1.415 1.39-.696 1.155-1.853 1.86-3.287.133-.27.095-.987-1.111-.461 0 0 .029-.945-1.107-.619.068-.662-1.01-.657-1.221-.151-.656-.475-1.219-.1-1.256.212-1.337-.094-.89 2.158.209 1.25z"/><path d="m47.01 17.776c.033 2.475-3.883 3.42-4 0z"/><path d="m46.268 16.465s-.391.454-.969.078c-.234.592-.906.458-1.166.136-.053.255-.6.324-.6.324s1.772.372 1.922 1.103c.328 1.603-1.305 1.67-1.813 1.415-1.39-.696-1.155-1.853-1.86-3.287-.133-.27-.095-.987 1.111-.461 0 0-.029-.945 1.107-.619-.068-.662 1.01-.657 1.221-.151.656-.475 1.219-.1 1.256.212 1.337-.094.89 2.158-.209 1.25z"/><path d="m36.441 32.935s.477-1.762 3.045-2.496c.974-4.599 3.057-6.733 4.168-11.146h2.691c-1.824 4.871 1.342 9.393-4.6 16.174.158 2.211-.693 4.002-.693 4.002-5.933-.761-4.611-6.534-4.611-6.534z"/></g><path d="m28.885 33.241c0 3.136 6.125 3.136 6.125 0v-3.25h-6.125z" fill="#e6b045"/><path d="m26.172 25.911c-1.949-.352-.428 5.101 1.098 3.596.707-.696-.188-3.43-1.098-3.596z" fill="#e6b045"/><path d="m37.83 25.911c-.912.166-1.807 2.899-1.098 3.596 1.526 1.505 3.047-3.947 1.098-3.596z" fill="#e6b045"/><path d="m32 19.521c-4.029 0-5.973 3.049-5.729 7.29.049.853.576 3.636 1.076 4.634.512 1.021 2.221 2.595 3.268 2.921.662.205 2.109.205 2.771 0 1.047-.326 2.756-1.899 3.268-2.921.5-.998 1.027-3.781 1.076-4.634.245-4.242-1.699-7.29-5.73-7.29z" fill="#fc6"/><path d="m33.25 29.565c0 .813-2.498.813-2.498 0 0-.187 2.498-.187 2.498 0z" fill="#e6b045"/><path d="m32 19.521c-2.771 0-4.447.915-5.17.563 0 0-.078.473.205.781 0 0-.299.258-.781-.178-.461 1.493.904 2.357 5.746 2.357 4.844 0 3.688-1.181 6.068.891-.234-2.552-1.855-4.414-6.068-4.414z" fill="#594640"/><path d="m34.051 21.746c-2.666.984-3.641-.792-6.156-.964 1.197.565 1.781 1.436 2.764 2.063-2.139-.717-3.709-1.948-3.828-2.757 0 0-.355 1.181 1.055 2.063-1.35.124-1.631-1.46-1.631-1.46-.684 1.098-.589 4.639.17 7.266.127-.938-.162-1.324.271-2.455 1.297-3.377.463-1.959 5.307-1.959 4.842 0 3.969-1.293 5.305 1.959.398.97.145 1.518.271 2.455 1.592-5.923-.698-7.255-3.528-6.211z" fill="#453631"/><path d="m36.316 27.138c-.539 1.41-2.73 1.203-3.131.217.305-1.585 2.835-1.722 3.131-.217z" fill="#fff"/><path d="m27.686 27.138c.537 1.41 2.73 1.203 3.131.217-.305-1.585-2.838-1.722-3.131-.217z" fill="#fff"/><path d="m36.539 25.44c-.922-.457-2.685-.479-3.342-.16-.141.062-.049.495.071.454.915-.34 2.392-.349 3.249.029.116.05.163-.257.022-.323z" fill="#c1873c"/><path d="m27.461 25.44c.922-.457 2.686-.479 3.344-.16.141.062.049.495-.071.454-.917-.34-2.392-.349-3.252.029-.113.05-.16-.257-.021-.323z" fill="#c1873c"/><path d="m33.744 26.987c0 1.237 1.789 1.237 1.789 0 0-1.148-1.789-1.148-1.789 0z" fill="#613f34"/><path d="m33.922 27.384c0 .709 1.436.709 1.436 0-.001-.658-1.436-.658-1.436 0z" fill="#7d5037"/><path d="m34.268 27.008c0 .513.742.513.742 0 0-.477-.742-.477-.742 0z" fill="#1a1626"/><path d="m34.014 26.857c0 .26.375.26.375 0 0-.241-.375-.241-.375 0z" fill="#ab968c"/><path d="m28.467 26.987c0 1.237 1.791 1.237 1.791 0 0-1.148-1.791-1.148-1.791 0z" fill="#613f34"/><path d="m28.645 27.383c0 .71 1.436.71 1.436 0-.001-.657-1.436-.657-1.436 0z" fill="#7d5037"/><path d="m28.99 27.008c0 .513.744.513.744 0 0-.477-.744-.477-.744 0z" fill="#1a1626"/><path d="m28.738 26.857c0 .26.375.26.375 0 0-.241-.375-.241-.375 0z" fill="#ab968c"/><path d="m36.316 27.127c0-1.513-3.131-1.513-3.131.24.448-1.439 2.684-1.439 3.131-.24z" fill="#e6b045"/><path d="m27.686 27.127c0-1.513 3.131-1.513 3.131.24-.448-1.439-2.684-1.439-3.131-.24z" fill="#e6b045"/><path d="m34.06 31.526c-.225-.361-.771-.602-2.059-.602s-1.834.24-2.061.602c-.121.191.053.502.053.502.215.391.184.502 2.008.502 1.82 0 1.793-.111 2.008-.502 0 0 .174-.31.051-.502z" fill="#45332c"/><path d="m33.606 31.524c.01-.055-.02-.123-.063-.15 0 0-.391-.25-1.543-.25-1.15 0-1.543.25-1.543.25-.045.027-.072.096-.061.15l.02.104c.01.055.059.098.111.098h2.945c.051 0 .102-.043.111-.098z" fill="#fff"/><path d="m32.001 32.331c.631 0 1.529 0 1.504-.209-.002-.037-.014-.08-.029-.127-.012-.053-.025-.066-.135-.066-.236 0-2.498 0-2.682 0-.107 0-.121.014-.135.066-.012.047-.023.09-.029.127-.023.209.875.209 1.506.209z" fill="#fff"/><path d="m23.039 53.093s2.574 1.448 4.403 1.448c.952-3.628-2.601-8.472-3.462-8.981z" fill="#e6b045"/><path d="m25.417 58.153s-.277 1.474-3.539.369c-.477-3.33-3.004-6.521-3.44-9.393 0 0 2.734-3.072 6.035.629 1.489 3.088-.526 5.434.944 8.395z" fill="#fc6"/><path d="m24.473 49.759s-3.217-2.584-6.035-.629c0 0-.41-5.572 5.543-3.57.892.3 1.15 3.923.492 4.199z" fill="#e6ebef"/><path d="m25.749 61.411c.625-1.836-.332-3.258-.332-3.258-1.605.914-3.539.369-3.539.369-4.967.969-5.133 1.74-5.016 2.889z" fill="#302c3b"/><path d="m25.679 62.001c.322-.223.07-.59.07-.59h-8.887s-.297.26.027.59z" fill="#7ab51d"/><path d="m21.872 58.392c-.484-.33-3.131.615-2.863.848.988.852 1.662 1.004 1.729.391.662.42 1.027.063 1.023-.301.711.269.955-.313.111-.938z" fill="#7ab51d"/><path d="m40.961 53.093s-2.574 1.448-4.403 1.448c-.952-3.628 2.601-8.472 3.462-8.981z" fill="#e6b045"/><path d="m38.583 58.153s.277 1.474 3.539.369c.477-3.33 3.004-6.521 3.44-9.393 0 0-2.734-3.072-6.035.629-1.489 3.088.526 5.434-.944 8.395z" fill="#fc6"/><path d="m39.527 49.759s3.217-2.584 6.035-.629c0 0 .41-5.572-5.543-3.57-.892.3-1.15 3.923-.492 4.199z" fill="#e6ebef"/><path d="m38.251 61.411c-.625-1.836.332-3.258.332-3.258 1.605.914 3.539.369 3.539.369 4.968.969 5.134 1.74 5.017 2.889z" fill="#302c3b"/><path d="m38.321 62.001c-.322-.223-.07-.59-.07-.59h8.888s.297.26-.027.59z" fill="#7ab51d"/><path d="m42.128 58.392c.484-.33 3.131.615 2.863.848-.988.852-1.662 1.004-1.729.391-.662.42-1.027.063-1.023-.301-.711.269-.955-.313-.111-.938z" fill="#7ab51d"/></svg>