<svg enable-background="new 0 0 64 64" height="64" viewBox="0 0 64 64" width="64" xmlns="http://www.w3.org/2000/svg"><path d="m42.652 16.395h3v2h-3z" fill="#f9b700"/><path d="m16 17.235h1v39h-1z" fill="#f9c802"/><path d="m20 17.235h1v39h-1z" fill="#f9c802"/><path d="m16 35.235v1l5-3v-1z" fill="#f9c802"/><path d="m16 36.235 5 3v-1l-5-3z" fill="#f9c802"/><path d="m16 29.235v1l5-3v-1z" fill="#f9c802"/><path d="m16 30.235 5 3v-1l-5-3z" fill="#f9c802"/><path d="m16 47.235v1l5-3v-1z" fill="#f9c802"/><path d="m16 48.235 5 3v-1l-5-3z" fill="#f9c802"/><path d="m16 41.235v1l5-3v-1z" fill="#f9c802"/><path d="m16 42.235 5 3v-1l-5-3z" fill="#f9c802"/><path d="m16 53.235v1l5-3v-1z" fill="#f9c802"/><path d="m39.734 22.389h.5v1.96h-.5z" fill="#302c3b"/><path d="m43.886 22.389h.5v1.96h-.5z" fill="#302c3b"/><path d="m37.935 26h.5v21h-.5z" fill="#302c3b"/><path d="m45.686 26h.5v21h-.5z" fill="#302c3b"/><path d="m43.818 24.349-1.757 1.319-1.759-1.319h-.568l2.327 1.819 2.325-1.819z" fill="#302c3b"/><path d="m39.734 23.849h4.651v.5h-4.651z" fill="#302c3b"/><path d="m37.935 25.668h8.251v.5h-8.251z" fill="#302c3b"/><path d="m43.785 21.024h-.353l-.783-2.926h.355z" fill="#302c3b"/><path d="m44.52 21.024h.365l.782-2.926h-.366z" fill="#302c3b"/><path d="m44.746 22.573h-1.186l-.182-1.695h1.55z" fill="#f9c802"/><path d="m43.298 18.205c0 .57-.854.57-.854 0s.854-.57.854 0z" fill="#d46a06"/><path d="m45.862 18.205c0 .57-.854.57-.854 0s.854-.57.854 0z" fill="#d46a06"/><path d="m38.468 16.395h3v2h-3z" fill="#f9b700"/><path d="m39.601 21.024h-.351l-.781-2.926h.35z" fill="#302c3b"/><path d="m40.336 21.024h.362l.781-2.926h-.362z" fill="#302c3b"/><path d="m40.561 22.573h-1.187l-.181-1.695h1.549z" fill="#f9c802"/><path d="m39.113 18.205c0 .57-.855.57-.855 0s.855-.57.855 0z" fill="#d46a06"/><path d="m41.678 18.205c0 .57-.855.57-.855 0s.855-.57.855 0z" fill="#d46a06"/><path d="m4 16h7v5h-7z" fill="#b3c2c6"/><path d="m17.533 2.05-15.533 12.962 1.023-.244 15.014-12.533z" fill="#302c3b"/><path d="m19.006 2.05 33.262 10.961h-1.722l-32.131-10.59z" fill="#302c3b"/><path d="m20.856 16.811-1.788-14.811h-1.582l-1.779 14.817v.794h5.149zm-4.023-2.097 2.716-1.577.412 3.6-3.15-1.829zm1.901-8.682.147 1.283-1.29.749.287-2.529zm-.79-1.067.247-2.167h.173l.296 2.583zm1.003 2.92.4 3.494-2.002-1.162.171-1.502zm.475 4.145.062.536-2.576 1.496.374-3.275zm-2.676 3.448 2.3 1.335-2.452.004z" fill="#f9c802"/><path d="m2 14v4h1l-.008-4z" fill="#f9c802"/><path d="m7 14v4h1l-.008-4z" fill="#f9c802"/><path d="m12 14v4h1l-.008-4z" fill="#f9c802"/><path d="m16.502 14h-14.502v1l14.502-.008z" fill="#f9c802"/><path d="m27 44v2.49h30v-2.49z" fill="#e81c27"/><path d="m27 38v2.49h30v-2.49z" fill="#e81c27"/><path d="m28 40.49v3.51h28v-3.51z" fill="#b00505"/><path d="m15 19h7v4h-7z" fill="#cfd8dd"/><path d="m15.5 19.32h6v2h-6z" fill="#302c3b"/><path d="m14 23h9v1h-9z" fill="#f9b700"/><path d="m14 25h9v1h-9z" fill="#f9b700"/><path d="m14 23h1v3h-1z" fill="#f9b700"/><path d="m22 23h1v3h-1z" fill="#f9b700"/><path d="m18 23h1v3h-1z" fill="#f9b700"/><path d="m12 55h13v7h-13z" fill="#b3c2c6"/><path d="m11 61h15v1h-15z" fill="#302c3b"/><path d="m11.5 60h1v1h-1z" fill="#4e5e67"/><path d="m24.5 60h1v1h-1z" fill="#4e5e67"/><path d="m14 55h1v6h-1z" fill="#302c3b"/><path d="m22 55h1v6h-1z" fill="#302c3b"/><path d="m37.828 37.29h.5v9.49h-.5z" fill="#302c3b"/><path d="m45.793 37.29h.5v9.49h-.5z" fill="#302c3b"/><g fill="#f9c802"><path d="m22.145 13h36.855v1h-36.855z"/><path d="m2 18h60l-1-1h-59z"/><path d="m53 13h-1l3 5h1z"/><path d="m52 13-3 5h1l3-5z"/><path d="m59 13h-1l3 5h1z"/><path d="m58 13-3 5h1l3-5z"/><path d="m41 13h-1l3 5h1z"/><path d="m40 13-3 5h1l3-5z"/><path d="m47 13h-1l3 5h1z"/><path d="m46 13-3 5h1l3-5z"/><path d="m29 13h-1l3 5h1z"/><path d="m28 13-3 5h1l3-5z"/><path d="m35 13h-1l3 5h1z"/><path d="m34 13-3 5h1l3-5z"/><path d="m23 13h-1l3 5h1z"/><path d="m22 13-3 5h1l3-5z"/></g></svg>