<svg enable-background="new 0 0 64 64" height="64" viewBox="0 0 64 64" width="64" xmlns="http://www.w3.org/2000/svg" xmlns:xlink="http://www.w3.org/1999/xlink"><linearGradient id="a" gradientUnits="userSpaceOnUse" x1="32.0005" x2="32.0005" y1="62" y2="42"><stop offset="0" stop-color="#9be323"/><stop offset="1" stop-color="#52a100"/></linearGradient><linearGradient id="b" gradientUnits="userSpaceOnUse" x1="17.5361" x2="23.7969" y1="42.5977" y2="42.5977"><stop offset="0" stop-color="#91632e"/><stop offset=".1992" stop-color="#8c5f2c"/><stop offset=".4407" stop-color="#7d5425"/><stop offset=".7042" stop-color="#65421b"/><stop offset=".9816" stop-color="#43290c"/><stop offset="1" stop-color="#40270b"/></linearGradient><linearGradient id="c"><stop offset="0" stop-color="#83b52d"/><stop offset=".2551" stop-color="#72a127"/><stop offset=".7765" stop-color="#466c17"/><stop offset="1" stop-color="#325410"/></linearGradient><radialGradient id="d" cx="42.8066" cy="109.9824" gradientTransform="matrix(.6667 0 0 .7191 -7.8715 -47.4118)" gradientUnits="userSpaceOnUse" r="22.8751" xlink:href="#c"/><linearGradient id="e"><stop offset="0" stop-color="#92c932"/><stop offset=".2313" stop-color="#8ec531"/><stop offset=".4674" stop-color="#83b92c"/><stop offset=".7058" stop-color="#6fa425"/><stop offset=".9444" stop-color="#54881c"/><stop offset="1" stop-color="#4d8019"/></linearGradient><radialGradient id="f" cx="42.8066" cy="102.2402" gradientTransform="matrix(.6667 0 0 .7191 -7.8715 -47.4118)" gradientUnits="userSpaceOnUse" r="23.3949" xlink:href="#e"/><radialGradient id="g" cx="42.8066" cy="98.0479" gradientTransform="matrix(.6667 0 0 .7191 -7.8715 -47.4118)" gradientUnits="userSpaceOnUse" r="18.9071" xlink:href="#c"/><radialGradient id="h" cx="42.8066" cy="92.0371" gradientTransform="matrix(.6667 0 0 .7191 -7.8715 -47.4118)" gradientUnits="userSpaceOnUse" r="18.9905" xlink:href="#e"/><radialGradient id="i" cx="43.291" cy="88.8779" gradientTransform="matrix(.6667 0 0 .7191 -7.8715 -47.4118)" gradientUnits="userSpaceOnUse" r="15.0524" xlink:href="#c"/><radialGradient id="j" cx="43.292" cy="84.002" gradientTransform="matrix(.6667 0 0 .7191 -7.8715 -47.4118)" gradientUnits="userSpaceOnUse" r="14.4944" xlink:href="#e"/><radialGradient id="k" cx="42.8076" cy="80.6738" gradientTransform="matrix(.6667 0 0 .7191 -7.8715 -47.4118)" gradientUnits="userSpaceOnUse" r="10.4048" xlink:href="#c"/><radialGradient id="l" cx="42.8076" cy="76.4336" gradientTransform="matrix(.6667 0 0 1.4381 -7.8715 -102.3727)" gradientUnits="userSpaceOnUse" r="9.6262" xlink:href="#e"/><radialGradient id="m" cx="43.4023" cy="55.9648" gradientTransform="matrix(.9355 0 0 .9808 -1.6001 -17.1565)" gradientUnits="userSpaceOnUse" r="14.5267"><stop offset="0" stop-color="#ffc166"/><stop offset=".2217" stop-color="#fdbc5c"/><stop offset=".5927" stop-color="#f6ae43"/><stop offset="1" stop-color="#ed9a1f"/></radialGradient><radialGradient id="n" cx="43.4014" cy="65.2881" gradientTransform="matrix(.9355 0 0 .5638 -1.5996 10.0683)" gradientUnits="userSpaceOnUse" r="15.8278"><stop offset=".2667" stop-color="#99a8ae"/><stop offset=".469" stop-color="#96a4ab"/><stop offset=".65" stop-color="#8c9aa0"/><stop offset=".8228" stop-color="#7b878f"/><stop offset=".9897" stop-color="#646e77"/><stop offset="1" stop-color="#626c75"/></radialGradient><radialGradient id="o" cx="43.4014" cy="69.2891" gradientTransform="matrix(.9355 0 0 1.0548 -1.5996 -22.2903)" gradientUnits="userSpaceOnUse" r="17.5784"><stop offset=".2909" stop-color="#73868c"/><stop offset=".4878" stop-color="#6e7f85"/><stop offset=".7656" stop-color="#5f6d73"/><stop offset="1" stop-color="#4f585e"/></radialGradient><linearGradient id="p" gradientTransform="matrix(.9551 0 0 .9506 -4.0984 14.1448)" gradientUnits="userSpaceOnUse" x1="45.125" x2="45.125" y1="38.1211" y2="24.6714"><stop offset="0" stop-color="#5b666e"/><stop offset=".3154" stop-color="#59636b"/><stop offset=".5504" stop-color="#525963"/><stop offset=".7594" stop-color="#464955"/><stop offset=".9521" stop-color="#353341"/><stop offset="1" stop-color="#302c3b"/></linearGradient><linearGradient id="q" gradientUnits="userSpaceOnUse" x1="39" x2="39" y1="50.9551" y2="37.0225"><stop offset="0" stop-color="#ffc166"/><stop offset=".1689" stop-color="#faba5c"/><stop offset=".4516" stop-color="#eda843"/><stop offset=".8111" stop-color="#d88b19"/><stop offset="1" stop-color="#cc7a00"/></linearGradient><ellipse cx="32" cy="52" fill="url(#a)" rx="30" ry="10"/><path d="m23.129 38.372h-4.925s-.668 4.989-.668 7.527c0 1.231 6.261 1.231 6.261 0 0-1.52-.668-7.527-.668-7.527z" fill="url(#b)"/><path d="m39.333 40.688s-7.837-2.581-18.62-20.517c-1.065-1.771-5.123 12.645-18.713 20.517 0 0 4.028 1.056 11.045-.829.725-.193-1.148 2.562-1.148 2.562s5.091-2.208 6.955-2.076c1.584.112 5.526 2.979 5.526 2.979s1.307-3.615 1.935-3.316c2.289 1.094 6.301 2.02 6.301 2.02s-2.733-2.524-1.994-2.524c.737-.001 8.713 1.184 8.713 1.184z" fill="url(#d)"/><path d="m39.333 36.2s-7.837-2.846-18.62-22.604c-1.065-1.951-5.123 13.931-18.713 22.604 0 0 4.028 1.162 11.045-.913.725-.215-1.148 2.822-1.148 2.822s5.091-2.434 6.955-2.289c1.584.126 5.334 2.959 5.334 2.959s.635-3.579 1.263-3.249c2.289 1.206 7.164 2.144 7.164 2.144s-2.733-2.779-1.994-2.779c.738 0 8.714 1.305 8.714 1.305z" fill="url(#f)"/><path d="m6.086 30.909s6.204-2.359 14.627-18.742c.832-1.619 3.919 11.551 14.535 18.742 0 0-2.869 1.048-8.352-.672-.566-.179.147 2.531.147 2.531s-3.422-2.294-4.876-2.173c-1.238.103-4.537 3.557-4.537 3.557s-1.392-4.144-1.883-3.871c-1.788 1-4.413 1.851-4.413 1.851s2.134-2.304 1.557-2.304-6.805 1.081-6.805 1.081z" fill="url(#g)"/><path d="m6.086 26.442s6.204-2.36 14.627-18.744c.832-1.618 3.919 11.553 14.535 18.744 0 0-3.146.964-8.627-.756-.566-.18.896 2.338.896 2.338s-3.136-1.868-4.591-1.747c-1.238.104-4.807 3.698-4.807 3.698s-.698-4.364-1.188-4.089c-1.789 1-5.596 1.777-5.596 1.777s2.134-2.305 1.557-2.305-6.806 1.084-6.806 1.084z" fill="url(#h)"/><path d="m33.217 22.04s-5.441-1.664-12.503-13.216c-.698-1.14-3.048 8.147-11.951 13.216 0 0 2.64.68 7.236-.533.474-.126-.752 1.65-.752 1.65s3.552-1.294 4.772-1.208c1.038.071 3.609 2.318 3.609 2.318s.543-2.622.955-2.428c1.499.705 4.232 1.061 4.232 1.061s-1.789-1.625-1.306-1.625c.484.001 5.708.765 5.708.765z" fill="url(#i)"/><path d="m32.685 18.679s-5.216-1.664-11.971-13.217c-.667-1.141-2.904 8.146-11.418 13.217 0 0 2.523.679 6.92-.536.453-.124-.944 2.474-.944 2.474s3.766-2.105 4.931-2.021c.993.073 2.728 2.021 2.728 2.021s.663-2.523 1.056-2.329c1.434.704 4.488 1.253 4.488 1.253s-1.712-1.626-1.25-1.626c.463 0 5.46.764 5.46.764z" fill="url(#j)"/><path d="m12.524 14.667s3.484-1.245 8.189-9.897c.465-.853 2.168 6.101 8.096 9.897 0 0-.797.392-3.856-.516-.316-.094-.46 1.35-.46 1.35s-1.463-1.414-2.276-1.35c-.691.052-2.703 2.347-2.703 2.347s-.659-2.27-.934-2.126c-.999.529-3.32 1.671-3.32 1.671s1.388-1.947 1.065-1.947c-.321 0-3.801.571-3.801.571z" fill="url(#k)"/><path d="m13.19 11.968s3.205-1.244 7.523-9.896c.427-.853 1.987 6.1 7.431 9.896 0 0-.753.253-3.563-.655-.291-.094-.402 1.493-.402 1.493s-1.689-1.276-2.435-1.214c-.634.056-1.897 1.506-1.897 1.506s-.845-1.566-1.095-1.423c-.918.528-2.87.939-2.87.939s1.094-1.217.798-1.217c-.295-.001-3.49.571-3.49.571z" fill="url(#l)"/><path d="m21.961 46.477c-.645 1.561-1.202 3.277-1.627 5.189l.626.207c.445-2.001 1.036-3.789 1.727-5.396z" fill="#cfd8dd"/><path d="m55.314 46.477c.689 1.607 1.279 3.396 1.725 5.396l.627-.207c-.426-1.912-.982-3.629-1.627-5.189z" fill="#cfd8dd"/><path d="m56.18 46.764c-5.506-16.197-17.18-18.064-17.18-18.064s-11.674 1.867-17.178 18.063h34.358z" fill="url(#m)"/><path d="m55.391 46.764c-5.252-10.512-16.391-11.724-16.391-11.724s-11.139 1.212-16.391 11.724z" fill="#d47706"/><path d="m56.894 51.596c-.159 1.616-.565 3.704-.381 3.704.243 0 .854-1.638 1.472-3.427.166-.486-1.04-.79-1.091-.277z" fill="#302c3b"/><path d="m21.106 51.596c.16 1.616.566 3.704.381 3.704-.244 0-.854-1.638-1.471-3.427-.167-.486 1.039-.79 1.09-.277z" fill="#302c3b"/><path d="m39 35.44s-10.728 1.169-15.787 11.323h31.575c-5.06-10.154-15.788-11.323-15.788-11.323z" fill="url(#n)"/><path d="m54.788 46.764c-10.519-.627-21.058-.627-31.575 0-.665 2.172-1.31 5.852-1.74 8.536 11.627-.767 23.428-.767 35.055 0-.43-2.686-1.076-6.364-1.74-8.536z" fill="url(#o)"/><path d="m45.906 49.535c-.182 1.129-13.631 1.129-13.811 0-.439-2.754 1.325-8.282 2.255-10.938.47-1.335 8.831-1.335 9.3 0 .93 2.656 2.696 8.184 2.256 10.938z" fill="url(#p)"/><path d="m38.834 37.306h.301v9.239h-.301z" fill="#1a1626"/><path d="m31.727 46.384h14.517v.301h-14.517z" fill="#1a1626"/><path d="m44.068 38.115c-.513-1.457-9.624-1.457-10.136 0-1.013 2.893-2.936 8.918-2.458 11.918.195 1.229 14.855 1.229 15.051 0 .478-3-1.443-9.025-2.457-11.918zm1.838 11.42c-.182 1.129-13.631 1.129-13.811 0-.439-2.754 1.325-8.282 2.255-10.938.47-1.335 8.831-1.335 9.3 0 .93 2.656 2.696 8.184 2.256 10.938z" fill="url(#q)"/></svg>