<svg enable-background="new 0 0 64 64" height="64" viewBox="0 0 64 64" width="64" xmlns="http://www.w3.org/2000/svg" xmlns:xlink="http://www.w3.org/1999/xlink"><linearGradient id="a" gradientUnits="userSpaceOnUse" x1="32" x2="32" y1="62" y2="15.6362"><stop offset="0" stop-color="#288f28"/><stop offset=".085" stop-color="#3f8636"/><stop offset=".1981" stop-color="#567c45"/><stop offset=".3198" stop-color="#66754f"/><stop offset=".4549" stop-color="#707155"/><stop offset=".6303" stop-color="#737057"/></linearGradient><linearGradient id="b" gradientUnits="userSpaceOnUse" x1="42.0859" x2="42.0859" y1="62" y2="21.7358"><stop offset="0" stop-color="#1a5e1a"/><stop offset=".0572" stop-color="#22591c"/><stop offset=".2182" stop-color="#324e20"/><stop offset=".3976" stop-color="#3c4722"/><stop offset=".6303" stop-color="#3f4523"/></linearGradient><path d="m56.843 44.775c-.182-1.737-5.445-13.416-5.445-13.416s-.324-9.413-15.012-5.817c4.772 7.202 14.888 16.539 20.457 19.233z" fill="#474d2c"/><path d="m42.306 28.908s3.936-1.453 5.416.926c3.549 6.197 1.74-1.036 1.74-1.036l3.225 5.464s-.645-5.23-5.165-12.237c-1.073-.962-2.923-5.094-3.692-5.919-.229-.068-4.62 10.112-4.62 10.112z" fill="#cfd8dd"/><path d="m34.874 27.281c7.574-6.754 8.98-3.684 11.018-2.959 1.094.389-.756-3.041-2.193-3.795-.638-.334.485-3.087.131-4.422-.247-.075-7.684 8.535-8.956 11.176z" fill="#e6ebef"/><path d="m8.806 42.621c.129-1.373 1.739-2.907 2.744-6.385.518-2.02 1.702-3.991 1.702-3.991s.134-7.481 12.733-3.769c-3.964 5.463-12.463 12.319-17.179 14.145z" fill="#474d2c"/><path d="m23.585 28.853s-3.907-8.364-4.102-8.325c-.645.614-1.453 2.293-1.596 2.478-.584.766-1.369 1.534-1.814 2.466-2.941 3.637-2.821 6.774-2.821 6.774l1.614-1.928s-1.434 5.658 1.502.926c1.229-1.812 4.612-.426 4.612-.426z" fill="#e6ebef"/><path d="m19.483 20.527c-.281 1.045.254 2.738-.08 3.189 0 0-1.57 2.314-1.557 3.24 0 0 1.929-1.314 2.035-.72.213 1.19 1.688 1.979 1.901 2.496.862 2.091 4.164-.034 5.522 1.215-1.126-2.176-7.611-9.463-7.821-9.42z" fill="#cfd8dd"/><path d="m2.038 50.828c5.443-6.476 10.584-13.409 15.371-18.868 9.64-10.489 17.575-16.324 17.575-16.324l27.016 35.192c-1.104 2.582-8.355 4.082-10.229 6.165-2.376 1.417-11.388 2.083-11.388 2.083l-10.656 2.924s-8.218-1.468-10.353-4.007l-8.814-1.5s-9.227-4.825-8.522-5.665z" fill="url(#a)"/><path d="m32.386 21.735-4.443 11.496-5.77 9.612 9.52-9.97-4.387 11.417-1.32 8.528 7.64-8.528-3.899 17.71 10.656-2.924.001-12.8 11.387 10.717-11.212-18.526 1.277-6.639s13.474 18.541 20.164 19c-.234-2.795-4.594-6.795-7.202-11.648-2.156-2.064-7.116-7.605-7.116-7.605z" fill="url(#b)"/><path d="m21.243 32.424-1.447 4.092-14.381 12.763 16.123-9.328 2.264-7.378 5.603-7.485z" fill="#474d2c"/><path d="m19.374 45.913c-5.802 2.966-8.814 10.58-8.814 10.58l8.814 1.5s-2.418-9.508 0-12.08z" fill="#3b5216"/><path d="m40.333 30.966c-1.22-5.033-6.033-18.966-6.476-18.966-.208 0-4.336 5.074-6.552 6.792-4.071 6.299-11.117 11.5-13.246 17.134-.587 1.555 9.288-9.352 7.184-3.502-1.239 3.445 4.438-3.33 4.152-1.674-.69 3.994-1.286 8.61-.136 6.951 2.046-2.951 5.176-3.158 6.74-6.562.775-1.686 5.034 7.872 5.729 5.485 1.251-4.29 1.626-5.186 2.605-5.658z" fill="#e6ebef"/><path d="m38.948 18.125c-2.562-1.75-3.25-5.125-5.091-6.125.216 4.105-2.847 7-3.534 10.906-.303 1.722 6.292-4.89 5.852-3.83-1.008 2.424-1.846 5.409-.164 6.162 2.076.93 1.906 3.512 4.322 5.728 1.584.128 4.393-.812 9.865 3.784 4.061 3.408-8.559-13.75-11.25-16.625z" fill="#b3c2c6"/><path d="m27.228 45.048s-.269-5.242 3.932-10.786c-.597 5.761-3.932 10.786-3.932 10.786z" fill="#cfd8dd"/><path d="m29.021 30.917s.171-4.088 3.584-6.875c-1.209 3.401-3.584 6.875-3.584 6.875z" fill="#b3c2c6"/><path d="m52.452 44.387s-12.522-10.125-10.616-12.559c6.352 3.625 10.616 12.559 10.616 12.559z" fill="#b3c2c6"/><g fill="#cfd8dd"><path d="m19.086 44.387s4.125-2.594 8.581-7.297c-4.29 6.953-8.581 7.297-8.581 7.297z"/><path d="m11.047 44.016s6.8-5.77 9.125-8.563c-.949 5.838-9.125 8.563-9.125 8.563z"/></g></svg>