<svg enable-background="new 0 0 64 64" height="64" viewBox="0 0 64 64" width="64" xmlns="http://www.w3.org/2000/svg" xmlns:xlink="http://www.w3.org/1999/xlink"><radialGradient id="a" cx="26.57021616" cy="24.95604654" gradientUnits="userSpaceOnUse" r="34.26710502"><stop offset=".2727" stop-color="#e6ebef"/><stop offset=".4783" stop-color="#e3e8ec"/><stop offset=".6455" stop-color="#d9e0e4"/><stop offset=".7988" stop-color="#c8d3d7"/><stop offset=".9273" stop-color="#b3c2c6"/></radialGradient><radialGradient id="b" cx="555.9336" cy="-16.0322" gradientTransform="matrix(.3583 .4654 -.7924 .61 -189.2077 -228.6484)" gradientUnits="userSpaceOnUse" r="22.0686"><stop offset="0" stop-color="#fff"/><stop offset="1" stop-color="#fff" stop-opacity="0"/></radialGradient><circle cx="32" cy="32" fill="url(#a)" r="30"/><path d="m58.675 19.945c-1.996-2.798-4.019-4.478-5.237-5.336.279-.996.482-1.987.598-2.965-.369-.399-.748-.788-1.138-1.166-.378 8.583-9.402 19.325-12.391 22.882-.161.191-.304.362-.435.518-3.613-.882-7.947-1.834-12.387-2.763 3.197-10.917 9.212-23.178 15.771-26.848-.475-.196-.955-.381-1.44-.553-6.95 4.59-12.615 17.134-15.537 27.148-4.971-1.031-10-2.021-14.232-2.841.461-4.66 1.874-9.872 3.824-14.061 2.652-5.697 6.307-9.657 10.592-11.488-1.444.26-2.852.623-4.217 1.081-2.957 2.275-5.504 5.624-7.492 9.896-1.988 4.271-3.434 9.577-3.92 14.338-1.902-.367-3.611-.694-5.041-.967-.532-.103-1.023-.196-1.47-.281-.169-1.928-.146-6.479 2.829-11.643-1.73 2.489-3.094 5.252-4.012 8.211-.174 1.643-.108 2.961-.016 3.81-.461.783-.887 1.758-1.243 2.873-.053.731-.081 1.467-.081 2.21 0 1.409.1 2.795.287 4.153.064-3.447.914-6.495 1.984-8.418.451.086.949.182 1.488.284 7.766 1.484 23.828 4.555 34.047 7.051 1.141 4.026 2.035 7.689 2.676 10.916-5.407 1.668-14.288 1.837-22.361.402-9.238-1.643-15.645-4.962-17.661-9.13.188 1.066.435 2.112.732 3.137 1.261 1.322 2.96 2.522 5.087 3.589 3.109 1.56 7.129 2.807 11.625 3.605 3.723.662 7.619.987 11.289.987 4.397 0 8.469-.468 11.521-1.385.718 3.882 1.038 7.072.942 9.431-4.011 2.16-10.203 3.306-16.273 2.996-4.901-.249-9.33-1.388-12.922-3.28 2.127 1.536 4.464 2.799 6.959 3.74 1.873.398 3.848.655 5.9.76.672.034 1.346.051 2.019.051 5.271 0 10.472-1.034 14.193-2.831-.103.732-.263 1.348-.479 1.839.506-.2 1.005-.416 1.498-.643 1.338-5.546-1.543-17.396-3.57-24.551.138-.166.295-.354.471-.562 1.447-1.723 3.909-4.653 6.281-8.147 4.15 5.227 11.092 14.436 7.513 24.969.692-.849 1.341-1.735 1.938-2.657.682-4.016.098-8.201-1.754-12.489-1.955-4.528-4.939-8.328-6.983-10.896 1.837-2.822 3.55-5.951 4.607-9.076 1.087.813 2.872 2.359 4.617 4.806 2.026 2.841 3.464 6.111 4.286 9.736-.13-2.439-.552-4.802-1.229-7.053-.604-1.184-1.289-2.315-2.053-3.389z" fill="#99a8ae"/><path d="m30.595 30.575c-9.658 7.434-21.027 8.863-25.393 3.189-4.368-5.673-.08-16.297 9.578-23.732s21.026-8.863 25.393-3.19c4.369 5.673.08 16.298-9.578 23.733z" fill="url(#b)"/></svg>