<svg enable-background="new 0 0 64 64" height="64" viewBox="0 0 64 64" width="64" xmlns="http://www.w3.org/2000/svg" xmlns:xlink="http://www.w3.org/1999/xlink"><linearGradient id="a"><stop offset="0" stop-color="#5b666e"/><stop offset=".2305" stop-color="#515862"/><stop offset="1" stop-color="#302c3b"/></linearGradient><linearGradient id="b" gradientUnits="userSpaceOnUse" x1="42" x2="57" xlink:href="#a" y1="57" y2="57"/><linearGradient id="c"><stop offset="0" stop-color="#302c3b"/><stop offset=".7695" stop-color="#515862"/><stop offset="1" stop-color="#5b666e"/></linearGradient><linearGradient id="d" gradientUnits="userSpaceOnUse" x1="45.6025" x2="53.3974" xlink:href="#c" y1="58.6904" y2="50.8956"/><linearGradient id="e" gradientTransform="matrix(.8429 .5381 -.5381 .8429 26.4847 -37.7809)" gradientUnits="userSpaceOnUse" x1="43.3037" x2="40.2932" y1="90.417" y2="84.3398"><stop offset=".1152" stop-color="#302c3b"/><stop offset=".3306" stop-color="#363442"/><stop offset=".6613" stop-color="#464955"/><stop offset="1" stop-color="#5b666e"/></linearGradient><linearGradient id="f" gradientTransform="matrix(.8346 .5507 -.5507 .8346 34.0468 -3.5544)" gradientUnits="userSpaceOnUse" x1="24.2988" x2="27.5728" xlink:href="#a" y1="1.9116" y2="1.9116"/><linearGradient id="g" gradientTransform="matrix(.8346 .5507 -.5507 .8346 34.0468 -3.5544)" gradientUnits="userSpaceOnUse" x1="25.77" x2="25.77" xlink:href="#c" y1="-7.4536" y2="-9.4214"/><path d="m49.5 52c-4.141 0-7.5 1.318-7.5 2.949v4.102c0 1.631 3.359 2.949 7.5 2.949s7.5-1.318 7.5-2.949v-4.102c0-1.631-3.359-2.949-7.5-2.949z" fill="url(#b)"/><g fill="#1a1626"><path d="m49.813 61.99h.313v-4.111c-.107 0-.205 0-.313.01z" opacity=".3"/><path d="m49.188 61.99c.107.01.205.01.312.01v-4.111c-.107 0-.205 0-.313 0v4.101z" opacity=".3"/><path d="m50.438 61.971c.107 0 .205-.01.313-.01v-4.111c-.107.01-.205.01-.313.02z" opacity=".3"/><path d="m48.563 61.971c.107.01.205.01.313.02v-4.111c-.107 0-.205-.01-.313-.01z" opacity=".3"/><path d="m52.313 61.785c.107-.02.205-.039.313-.059v-4.102c-.107.02-.205.039-.313.049z" opacity=".3"/><path d="m51.688 61.873c.107-.01.205-.029.313-.049v-4.102c-.107.01-.205.029-.313.039z" opacity=".3"/><path d="m47.938 61.932c.107.01.205.02.313.029v-4.111c-.107-.01-.205-.01-.313-.02z" opacity=".3"/><path d="m51.063 61.932c.107-.01.205-.02.313-.029v-4.102c-.107 0-.205.02-.313.029z" opacity=".3"/><path d="m52.938 61.668c.107-.02.205-.039.313-.068v-4.102c-.107.02-.205.039-.313.068z" opacity=".3"/><path d="m44.188 61.131c.098.039.205.078.313.117v-4.111c-.107-.039-.215-.068-.313-.107z" opacity=".3"/><path d="m42.938 60.477c.098.068.205.137.313.205v-4.112c-.107-.059-.215-.127-.313-.195z" opacity=".3"/><path d="m47.313 61.873c.107.01.205.02.313.029v-4.102c-.107-.02-.205-.02-.313-.039z" opacity=".3"/><path d="m42.313 55.789v4.102c.088.117.195.234.313.342v-4.111c-.118-.108-.226-.216-.313-.333z" opacity=".3"/><path d="m43.563 60.848c.098.049.205.098.313.156v-4.111c-.107-.049-.215-.098-.313-.146z" opacity=".3"/><path d="m44.813 61.355c.098.029.205.059.313.088v-4.111c-.107-.029-.215-.059-.313-.088z" opacity=".3"/><path d="m46.063 61.668c.107.02.205.039.313.059v-4.102c-.107-.02-.205-.039-.313-.059z" opacity=".3"/><path d="m46.688 61.785c.107.02.205.029.313.039v-4.102c-.107-.02-.205-.029-.313-.049z" opacity=".3"/><path d="m45.438 61.531c.098.02.205.049.313.068v-4.102c-.107-.029-.215-.049-.313-.078z" opacity=".3"/><path d="m56.688 55.789v4.102c.205-.264.312-.547.312-.84v-4.102c0 .293-.107.567-.312.84z" opacity=".3"/><path d="m54.188 61.355c.107-.039.205-.078.313-.107v-4.111c-.107.039-.205.078-.313.107z" opacity=".3"/><path d="m54.813 61.131c.107-.039.205-.088.313-.127v-4.111c-.107.049-.205.088-.313.137z" opacity=".3"/><path d="m55.438 60.848c.107-.059.215-.107.313-.166v-4.112c-.098.059-.205.117-.313.176z" opacity=".3"/><path d="m56.063 60.477c.117-.078.215-.156.313-.244v-4.111c-.098.088-.195.166-.313.254z" opacity=".3"/><path d="m53.563 61.531c.107-.029.205-.059.313-.088v-4.111c-.107.029-.205.059-.313.088z" opacity=".3"/></g><path d="m56.775 54.793c0 1.543-3.262 2.793-7.275 2.793s-7.275-1.25-7.275-2.793 3.261-2.793 7.275-2.793 7.275 1.25 7.275 2.793z" fill="url(#d)"/><path d="m49.5 52.996c2.588 0 4.688.781 4.688 1.758 0 .967-2.1 1.758-4.688 1.758s-4.688-.791-4.688-1.758c.001-.977 2.1-1.758 4.688-1.758zm0-.586c-3.447 0-6.25 1.045-6.25 2.344 0 1.289 2.803 2.344 6.25 2.344s6.25-1.055 6.25-2.344c0-1.299-2.803-2.344-6.25-2.344z" fill="#e6ebef" opacity=".2"/><path d="m50.75 54.988c-.205 0-.313-.039-.313-.117v-.234c0-.078.107-.117.313-.117h2.031c.205 0 .313.039.313.117v.117c0 .742-1.611 1.348-3.594 1.348-.967 0-1.875-.146-2.539-.4-.146-.049-.146-.107 0-.166l.664-.244c.146-.059.293-.059.439 0 .381.137.889.225 1.436.225.908 0 1.67-.225 1.934-.527h-.684z" fill="#e6ebef" opacity=".2"/><path d="m31.318 51.599-2.924-2.039c-3.163 4.646-9.216 6.175-11.494 5.91-3.555-.407-7.655-1.352-11.763-2.519-3.183-.853-4.568 7.607-1.146 7.912 7.556.672 16.167 1.263 19 1.023 3.146-.265 3.933-2.47 8.327-10.287z" fill="#fdd674"/><path d="m31.318 51.599 19.6-30.779-2.621-1.68-19.902 30.42s1.126 1.58 2.923 2.039z" fill="#ff000e"/><path d="m30.791 51.427c-4.395 7.816-4.904 9.527-8.048 9.793-2.833.24-11.444-.352-19-1.023-.734-.064-1.235-.518-1.556-1.16.267.994.839 1.741 1.806 1.827 7.556.672 16.167 1.263 19 1.023 3.144-.266 3.931-2.471 8.326-10.288z" fill="#f5c755"/><path d="m50.439 20.513-19.648 30.914c.358.125.527.172.527.172l19.6-30.779z" fill="#db0000"/><path d="m8.009 53.647s-1.209 3.712-1.639 7.446c5.841.604 12.146.96 15.971.889l.132-7.698c-3.703 1.314-8.673.436-14.464-.637z" fill="url(#e)"/><path d="m20.568 62-.809-.035.316-7.117.819-.145z" fill="#302c3b"/><path d="m18.184 61.933-.808-.032.31-6.96h.749z" fill="#302c3b"/><path d="m15.625 61.82-.812-.046.721-6.955.905.071z" fill="#302c3b"/><path d="m13.123 61.67-.873-.063.982-7.065.798.11z" fill="#302c3b"/><path d="m10.659 61.488-.978-.083 1.319-7.219.788.133z" fill="#302c3b"/><path d="m8.247 61.278-.89-.086 1.585-7.374.805.148z" fill="#302c3b"/><path d="m50.684 21.296c-1.885-.446-2.59-2.019-2.59-2.019l10.752-16.048 2.234 1.485z" fill="url(#f)"/><path d="m60.951 5.023c-.293.172-2.389-1.284-2.334-1.554.072-.367.322-1.339.727-1.467.224-.07 2.65 1.561 2.656 1.768.012.43-.748 1.077-1.049 1.253z" fill="url(#g)"/><path d="m51.23 20.345-.439.671c-1.85-1.158-1.889-2.928-1.889-2.928l.436-.671c0 .001.385 2.079 1.892 2.928z" fill="#302c3b"/><path d="m52.748 17.997-.432.689c-1.896-1.192-1.93-2.831-1.93-2.831l.516-.771s.293 2.031 1.846 2.913z" fill="#302c3b"/><path d="m54.195 15.565-.436.669c-1.852-1.159-1.83-2.681-1.83-2.681l.537-.803c.001 0 .223 1.964 1.729 2.815z" fill="#302c3b"/><path d="m55.732 13.212-.439.67c-1.85-1.157-1.793-2.673-1.793-2.673l.531-.791s.194 1.944 1.701 2.794z" fill="#302c3b"/><path d="m57.236 10.841-.42.673c-1.852-1.159-1.787-2.586-1.787-2.586l.467-.697s.233 1.76 1.74 2.61z" fill="#302c3b"/><path d="m58.715 8.487-.408.653c-1.852-1.161-1.615-2.694-1.615-2.694l.467-.697c-.001.001.048 1.887 1.556 2.738z" fill="#302c3b"/><path d="m60.221 6.084-.422.673c-1.852-1.159-1.531-2.665-1.531-2.665l.457-.676c0 .001-.012 1.818 1.496 2.668z" fill="#302c3b"/></svg>