<svg enable-background="new 0 0 64 64" height="64" viewBox="0 0 64 64" width="64" xmlns="http://www.w3.org/2000/svg"><path d="m50 11h5v8h-5z" fill="#e8000d"/><g fill="#cf0505"><path d="m53 11.5h2v1h-2z"/><path d="m51.755 14.5h2v1h-2z"/><path d="m53 13.5h2v1h-2z"/><path d="m53 16.5h2v1h-2z"/><path d="m50 12.5h2v1h-2z"/></g><path d="m49.5 10h6v1.5h-6z" fill="#6e8189"/><path d="m43 6-15 15h30z" fill="#9e6c49"/><path d="m30.499 21h25l-12.5-11.5z" fill="#f5cfa0"/><path d="m43 11-12.5 10v13h25v-13z" fill="#ffe8bb"/><path d="m44.5 22v7h9v-7z" fill="#9e6c49"/><path d="m45.5 23h7v5h-7z" fill="#4ecee6"/><path d="m44 29h10v.5h-10z" fill="#785647"/><path d="m33 22h7v12h-7z" fill="#9e6c49"/><path d="m33.438 22.439h6.125v11.561h-6.125z" fill="#785647"/><path d="m33.875 22.88h5.25v11.12h-5.25z" fill="#9e6c49"/><path d="m5 26h5v8h-5z" fill="#e8000d"/><path d="m5 26.5h2v1h-2z" fill="#cf0505"/><path d="m6.245 29.5h2v1h-2z" fill="#cf0505"/><path d="m5 28.5h2v1h-2z" fill="#cf0505"/><path d="m5 31.5h2v1h-2z" fill="#cf0505"/><path d="m8 27.5h2v1h-2z" fill="#cf0505"/><path d="m4.5 25h6v1.5h-6z" fill="#6e8189"/><path d="m17 21 15 15h-30z" fill="#b00505"/><path d="m29.501 36h-25l12.5-11.5z" fill="#99a8ae"/><path d="m17 26 12.5 10v13h-25v-13z" fill="#b3c2c6"/><path d="m6.5 37v7h9v-7z" fill="#9e6c49"/><path d="m7.5 38h7v5h-7z" fill="#4ecee6"/><path d="m6 44h10v.5h-10z" fill="#785647"/><path d="m20 37h7v12h-7z" fill="#9e6c49"/><path d="m20.438 37.439h6.125v11.561h-6.125z" fill="#785647"/><path d="m20.875 37.88h5.25v11.12h-5.25z" fill="#9e6c49"/><path d="m4.941 46.981c.208-1.017 2.778-1.582 3.445-.615.422-.979 2.093-.785 2.351.183.068-1.065 2.252-1.273 2.779-.466.881-1.284 3.013-.328 2.773.676 2.32.096 1.959 2.241 1.959 2.241h-16.225c-.241-1.896 1.46-3.207 2.918-2.019z" fill="#7ab51d"/><path d="m5.842 47.713c.606-1.686 3.073-2.707 4.57-.689.707-.465 1.889-.398 2.25.122.464-.548 1.597-.782 2.155-.151 1.159-.717 2.225-.111 2.225-.111s-1.555-.227-2.284.871c-.462-.873-1.876-.594-1.953.299-.412-.908-1.673-1.078-2.834-.313-.059-.875-2.115-2.432-4.129-.028z" fill="#92c932"/><path d="m50.801 29.799h7v11.201h-7z" fill="#e8000d"/><path d="m55 30.5h2.8v1.399h-2.8z" fill="#cf0505"/><path d="m53.258 34.699h2.799v1.399h-2.799z" fill="#cf0505"/><path d="m55 33.299h2.8v1.4h-2.8z" fill="#cf0505"/><path d="m55 37.499h2.8v1.4h-2.8z" fill="#cf0505"/><path d="m50.801 31.899h2.799v1.399h-2.799z" fill="#cf0505"/><path d="m50.1 28.399h8.4v2.101h-8.4z" fill="#6e8189"/><path d="m41 22.799-21 21h42z" fill="#ff000e"/><path d="m23.498 43.799h35l-17.5-16.1z" fill="#cfd8dd"/><path d="m41 29.799-17.5 14v18.201h35v-18.201z" fill="#e6ebef"/><path d="m23.5 60.949h16.801v1.051h-16.801z" fill="#cfd8dd"/><path d="m24.551 59.899h14.699v1.05h-14.699z" fill="#b3c2c6"/><path d="m37.83 57.664c-.875-.167-.514.701-.514.701h1.821c.207-1.19-1.223-1.775-1.307-.701z" fill="#7ab51d"/><path d="m37.15 58.365.2 1.534h1.701l.199-1.534z" fill="#9e6c49"/><path d="m25.23 57.664c-.877-.167-.514.701-.514.701h1.82c.208-1.19-1.223-1.775-1.306-.701z" fill="#7ab51d"/><path d="m24.551 58.365.199 1.534h1.7l.2-1.534z" fill="#9e6c49"/><path d="m43.1 45.199v9.8h12.6v-9.8z" fill="#9e6c49"/><path d="m44.5 46.6h9.8v7.001h-9.8z" fill="#4ecee6"/><path d="m42.4 54.999h14v.7h-14z" fill="#785647"/><path d="m27 45.199h9.801v14.7h-9.801z" fill="#9e6c49"/><path d="m27.613 45.815h8.574v14.084h-8.574z" fill="#785647"/><path d="m28.225 46.431h7.351v13.469h-7.351z" fill="#9e6c49"/><path d="m29.1 46.88h5.6v2.8h-5.6z" fill="#4ecee6"/><path d="m31.746 46.705h.307v3.149h-.307z" fill="#9e6c49"/><path d="m30.063 46.705h.307v3.149h-.307z" fill="#9e6c49"/><path d="m33.432 46.705h.307v3.149h-.307z" fill="#9e6c49"/><path d="m33.738 53.208h1.225v2.464h-1.225z" fill="#855a3d"/><path d="m32.518 54.191c1.064-.245 1.711-.107 1.711-.107.439.401.828-.44.199-.535-1.211-.183-2.391.753-1.91.642z" fill="#99a8ae"/><path d="m34.504 55.019c0 .411-.307.411-.307 0s.307-.411.307 0z" fill="#45332c"/><path d="m39.757 45.199h.386v1.092h-.386z" fill="#302c3b"/><path d="m40.836 50.1h-1.772l-.514-2.769h2.8z" fill="#302c3b"/><path d="m39.064 46.238h1.772l.514 1.093h-2.8z" fill="#4e5e67"/><path d="m40.529 49.622h-1.158l-.258-1.812h1.674z" fill="#ffe463"/><path d="m44.201 59.304c.279-1.356 3.71-2.111 4.602-.82.563-1.309 2.795-1.05 3.139.243.092-1.423 3.008-1.7 3.711-.621 1.178-1.716 4.023-.439 3.705.901 3.097.129 2.615 2.993 2.615 2.993h-21.668c-.323-2.53 1.951-4.282 3.896-2.696z" fill="#7ab51d"/><path d="m45.405 60.282c.81-2.251 4.104-3.615 6.103-.921.944-.622 2.521-.533 3.006.162.619-.732 2.131-1.045 2.877-.203 1.549-.956 2.971-.147 2.971-.147s-2.076-.304-3.051 1.164c-.616-1.166-2.504-.793-2.607.397-.55-1.213-2.234-1.439-3.785-.418-.079-1.166-2.824-3.246-5.514-.034z" fill="#92c932"/><path d="m21.256 60.549c-2.231-.346-1.311 1.451-1.311 1.451h4.635c.526-2.465-3.114-3.678-3.324-1.451z" fill="#7ab51d"/></svg>