<svg enable-background="new 0 0 64 64" height="64" viewBox="0 0 64 64" width="64" xmlns="http://www.w3.org/2000/svg" xmlns:xlink="http://www.w3.org/1999/xlink"><linearGradient id="a" gradientUnits="userSpaceOnUse" x1="32.0005" x2="32.0005" y1="56.082" y2="30.5845"><stop offset="0" stop-color="#5b666e"/><stop offset=".2385" stop-color="#565f68"/><stop offset=".5791" stop-color="#484c58"/><stop offset=".9795" stop-color="#312e3d"/><stop offset="1" stop-color="#302c3b"/></linearGradient><path d="m9.808 30.584h44.385v25.498h-44.385z" fill="url(#a)"/><path d="m2 60.125h60v1.875h-60z" fill="#cfd8dd"/><path d="m5.5 56.375h53v1.875h-53z" fill="#cfd8dd"/><path d="m3.75 58.25h56.5v1.875h-56.5z" fill="#e6ebef"/><path d="m7.25 54.5h49.5v1.875h-49.5z" fill="#e6ebef"/><path d="m4.813 27.77h54.375v1.877h-54.375z" fill="#99a8ae"/><path d="m2 29.646h60v1.877h-60z" fill="#cfd8dd"/><path d="m31.988 4.84-29.988 16.396 2.512 3.754 27.476-18.299 27.5 18.299 2.512-3.754z" fill="#99a8ae"/><path d="m31.988 2-29.988 19.236v2.815l29.988-19.237 30.012 19.237v-2.815z" fill="#cfd8dd"/><path d="m31.988 6.691-29.988 19.237v1.877h60v-1.877z" fill="#cfd8dd"/><path d="m31.988 9.482-24.906 16.446h49.836z" fill="#e6ebef"/><path d="m8.5 33.197h6v19.553h-6z" fill="#e6ebef"/><path d="m7.75 52.75h7.5v1.75h-7.5z" fill="#cfd8dd"/><path d="m7.75 31.5h7.5v1.697h-7.5z" fill="#cfd8dd"/><g fill="#c8d0d6"><path d="m9.099 33.98h.708v18.039h-.708z"/><path d="m13.192 33.98h.708v18.039h-.708z"/><path d="m11.828 33.98h.707v18.039h-.707z"/><path d="m10.464 33.98h.707v18.039h-.707z"/></g><path d="m22.166 33.197h6v19.615h-6z" fill="#e6ebef"/><path d="m21.416 52.813h7.5v1.688h-7.5z" fill="#cfd8dd"/><path d="m21.416 31.5h7.5v1.697h-7.5z" fill="#cfd8dd"/><path d="m22.766 33.98h.707v18.039h-.707z" fill="#c8d0d6"/><path d="m26.859 33.98h.707v18.039h-.707z" fill="#c8d0d6"/><path d="m25.494 33.98h.708v18.039h-.708z" fill="#c8d0d6"/><path d="m24.13 33.98h.708v18.039h-.708z" fill="#c8d0d6"/><path d="m35.833 33.197h6v19.615h-6z" fill="#e6ebef"/><path d="m35.083 52.813h7.5v1.688h-7.5z" fill="#cfd8dd"/><path d="m35.083 31.5h7.5v1.697h-7.5z" fill="#cfd8dd"/><path d="m36.433 33.98h.707v18.039h-.707z" fill="#c8d0d6"/><path d="m40.526 33.98h.707v18.039h-.707z" fill="#c8d0d6"/><path d="m39.161 33.98h.708v18.039h-.708z" fill="#c8d0d6"/><path d="m37.797 33.98h.708v18.039h-.708z" fill="#c8d0d6"/><path d="m49.5 33.197h6v19.553h-6z" fill="#e6ebef"/><path d="m48.75 52.75h7.5v1.75h-7.5z" fill="#cfd8dd"/><path d="m48.75 31.5h7.5v1.697h-7.5z" fill="#cfd8dd"/><path d="m50.099 33.98h.708v18.039h-.708z" fill="#c8d0d6"/><path d="m54.192 33.98h.708v18.039h-.708z" fill="#c8d0d6"/><path d="m52.828 33.98h.707v18.039h-.707z" fill="#c8d0d6"/><path d="m51.464 33.98h.707v18.039h-.707z" fill="#c8d0d6"/></svg>