<svg enable-background="new 0 0 64 64" height="64" viewBox="0 0 64 64" width="64" xmlns="http://www.w3.org/2000/svg" xmlns:xlink="http://www.w3.org/1999/xlink"><linearGradient id="a" gradientUnits="userSpaceOnUse" x1="32.0005" x2="32.0005" y1="56.7676" y2="39.1152"><stop offset="0" stop-color="#009af7"/><stop offset=".1209" stop-color="#0da3f4"/><stop offset=".4955" stop-color="#30baec"/><stop offset=".8019" stop-color="#46c9e8"/><stop offset="1" stop-color="#4ecee6"/></linearGradient><radialGradient id="b" cx="75.5234" cy="50.7881" gradientTransform="matrix(1.1461 0 0 .319 -56.5606 20.293)" gradientUnits="userSpaceOnUse" r="27.0805"><stop offset="0" stop-color="#fdca47"/><stop offset=".3227" stop-color="#fbc745"/><stop offset=".5551" stop-color="#f5be40"/><stop offset=".7592" stop-color="#ecae37"/><stop offset=".9458" stop-color="#de982a"/><stop offset="1" stop-color="#d99025"/></radialGradient><radialGradient id="c" cx="201.0771" cy="87.2959" gradientTransform="matrix(.9053 .4248 -.353 .7524 -126.8485 -113.2208)" gradientUnits="userSpaceOnUse" r="2.8917"><stop offset=".1455" stop-color="#8c6041"/><stop offset=".4059" stop-color="#885d3f"/><stop offset=".6489" stop-color="#7d543a"/><stop offset=".8842" stop-color="#6a4632"/><stop offset="1" stop-color="#5e3c2c"/></radialGradient><linearGradient id="d" gradientUnits="userSpaceOnUse" x1="31.605" x2="28.1107" y1="25.0337" y2="25.9268"><stop offset="0" stop-color="#735628"/><stop offset=".3925" stop-color="#8f6f40"/><stop offset=".7419" stop-color="#a07f4f"/><stop offset="1" stop-color="#a68554"/></linearGradient><path d="m62 43.459c0-5.791-60-5.792-60 0 0 1.406 2.16 1.525 5.398 1.868-2.258.328-3.689.77-3.689 1.324 0 .903 3.758 1.506 8.781 1.813-2.984.341-4.957.837-4.957 1.489 0 1.008 4.676 1.644 10.577 1.908-2.246.287-3.698.688-3.698 1.205 0 .928 4.665 1.483 10.262 1.67-2.08.186-3.518.485-3.518.9 0 1.399 16.332 1.499 18.671.3 5.508-.072 10.602-.548 10.602-1.43 0-.539-1.898-.926-4.627-1.162 4.979-.227 8.916-.765 8.916-1.616 0-.357-.693-.658-1.857-.905 3.295-.342 5.506-.857 5.506-1.551 0-.615-1.748-1.091-4.445-1.43 4.232-.33 7.244-.897 7.244-1.706 0-.438-.881-.803-2.354-1.1 1.973-.319 3.188-.413 3.188-1.577z" fill="url(#a)"/><path d="m45.66 57.98c0 1.299-16.337 1.299-16.337 0s16.337-1.298 16.337 0z" fill="#129fdb"/><path d="m39.193 60.104c0 1.136-14.306 1.136-14.306 0 0-1.138 14.306-1.138 14.306 0z" fill="#129fdb"/><path d="m39.543 61.391c0 .813-10.22.813-10.22 0s10.22-.813 10.22 0z" fill="#129fdb"/><path d="m32.133 34.208c-10.715 0-20.563 2.057-25.059 7-1.176 1.293 6.041 2.575 11.186 2.575 4.537 0 7.594 2.458 13.873 2.458 6.283 0 11.316-2.458 15.855-2.458 5.91 0 9.748-1.422 8.934-2.575-3.486-4.943-14.385-7-24.789-7z" fill="url(#b)"/><path d="m26.303 40.071c-1.049 2.235-5.123.324-4.074-1.912 1.049-2.235 5.123-.324 4.074 1.912z" fill="url(#c)"/><path d="m22.33 6.288c-.005-.004-.535.46-.826 1.028 0 0 1.138.522 1.681.814.418-.355.982-.545.986-.538-.003-.002-.441.338-.587.748 1.2.602 2.35 1.443 3.267 2.044-.857-2.777-6.618-7.927-10.498-4.276 0 0 1.199-.258 2.834.246.102-.126.963-.867.966-.861-.001-.002-.603 1.005-.603 1.005s.98.325 1.559.588c.472-.571 1.215-.807 1.221-.798z" fill="#92c932"/><path d="m23.325 5.034c.011.132.199 1.177.197 1.176.006-.002-.591-1.271-.62-1.497-.625-.444-1.311-.773-2.038-.9.046.138.341 1.177.338 1.177.006-.001-.698-1.031-.77-1.229-1.314-.082-2.761.537-4.08 2.347 3.852-3.607 10.004 2.366 10.498 4.276-.705-2.32-1.625-3.761-3.525-5.35z" fill="#7ab51d"/><path d="m31.312 4.989c.006-.006.742.57 1.157 1.263 0 0-1.522.596-2.248.93-.579-.44-1.35-.686-1.354-.677.003-.003.608.42.821.919-1.604.688-3.129 1.667-4.351 2.363 1.062-3.32 8.676-9.351 14.065-4.83 0 0-1.633-.349-3.828.208-.145-.156-1.336-1.075-1.342-1.068.004-.002.854 1.23.854 1.23s-1.314.36-2.09.66c-.66-.702-1.677-1.008-1.684-.998z" fill="#92c932"/><path d="m29.92 3.447c-.012.158-.229 1.413-.227 1.411-.008-.003.755-1.514.785-1.786.831-.515 1.748-.892 2.728-1.021-.057.164-.418 1.407-.415 1.409-.007-.002.909-1.221.999-1.457 1.777-.059 3.758.732 5.611 2.955-5.35-4.466-13.464 2.542-14.065 4.83.873-2.776 2.065-4.485 4.584-6.341z" fill="#7ab51d"/><path d="m35.855 38.927c0 1.369-4.581 1.369-4.581 0 0-5.387-5.36-19.917-5.36-27.4 0-1.279 3.395-1.279 3.395 0 0 7.483 6.546 22.013 6.546 27.4z" fill="url(#d)"/><g fill="#cfb092"><path d="m35.408 35.702c.828 1.972-4.082 2.409-4.317 1.107.299.782 4.122.909 4.317-1.107z"/><path d="m30.327 32.942c-.207 2.192 4.573 1.248 4.275-.342-.069 1.372-3.717 2.143-4.275.342z"/><path d="m28.584 25.975c-.209 2.192 4.183 1.264 3.885-.326-.068 1.372-3.326 2.127-3.885.326z"/><path d="m27.061 19.674c-.209 2.19 3.92 1.49 3.619-.098-.066 1.372-3.064 1.899-3.619.098z"/><path d="m33.553 29.116c.828 1.971-3.703 2.201-3.938.899.3.78 3.742 1.117 3.938-.899z"/><path d="m31.458 22.338c.832 1.973-3.34 2.154-3.575.851.299.78 3.382 1.165 3.575-.851z"/><path d="m29.788 15.746c.828 1.974-3.364 2.11-3.6.808.301.782 3.404 1.208 3.6-.808z"/></g><path d="m14.831 24.005c.721-2.126 2.368-3.71 4.24-5.357-.139-.246-.275-1.991-.275-1.991s.654 1.426.737 1.584c.5-.435 1.012-.879 1.52-1.341-.146-.33-.27-2.242-.27-2.242s.658 1.569.749 1.8c.318-.297.627-.604.938-.922-.064-.387-.177-2.368-.177-2.368s.633 1.583.688 1.832c1.613-1.758 3.039-3.871 3.816-6.754-3.972 4.93-11.445 6.885-11.966 15.759z" fill="#92c932"/><path d="m20.015 12.413c.147.075 1.182.592 1.182.592s-1.555-.119-1.813-.151c-.919.673-1.793 1.462-2.524 2.425.13.058 1.149.531 1.149.531s-1.319.06-1.52-.013c-1.298 1.95-2.052 4.554-1.658 8.208.845-8.835 8.432-10.759 11.967-15.761-1.079 1.42-4.055 2.353-6.783 4.169z" fill="#7ab51d"/><path d="m24.712 17.202s1.332 1.211 1.553 1.476c.284-.886.55-1.798.756-2.747-.292-.26-1.248-1.859-1.248-1.859s1.218 1.005 1.39 1.16c.384-2.097.434-4.37-.313-6.896-.848 6.01-6.159 11.34-2.103 18.834-.343-1.533-.121-3.074.314-4.685-.149-.187-.971-1.708-.971-1.708s1.082.887 1.176.995c.235-.785.509-1.591.781-2.42-.32-.361-1.335-2.15-1.335-2.15z" fill="#92c932"/><path d="m26.85 8.336c-.199 1.812-2.515 4.249-3.883 7.369.155-.025 1.353-.419 1.353-.419s-1.36 1.053-1.63 1.101c-.378 1.004-.641 2.077-.699 3.217.16-.064 1.369-.532 1.369-.532s-1.145 1.113-1.38 1.211c.042 2.073.786 4.365 2.768 6.887-3.764-7.624 1.655-12.986 2.102-18.834z" fill="#7ab51d"/><path d="m18.225 10.653c-.009.001-.32 1.049-.254 1.915 0 0 1.833-.829 2.739-1.186.257-.815.819-1.644.831-1.642-.006.002-.297.825-.166 1.376 1.972-.828 4.062-1.373 5.678-1.874-3.205-1.597-14.4.266-16.492 8.161 0 0 1.312-1.629 3.756-3.05.032-.237.55-1.923.558-1.921-.004.001.011 1.634.011 1.634s1.479-.83 2.411-1.256c.158-1.077.915-2.158.928-2.157z" fill="#92c932"/><path d="m18.518 8.334c.116.109 1.152.865 1.15.867.005-.009-1.719-.501-1.927-.679-1.126.31-2.241.795-3.255 1.519.163.075 1.329.703 1.327.707.004-.007-1.668-.153-1.91-.254-1.719 1.445-3.065 3.695-3.342 6.91 2.092-7.823 14.407-9.37 16.492-8.161-2.665-1.347-4.924-1.629-8.535-.909z" fill="#7ab51d"/><path d="m34.67 8.373c.01-.001.586.926.748 1.78 0 0-1.986-.318-2.955-.424-.461-.719-1.223-1.37-1.232-1.366.006 0 .502.718.521 1.284-2.119-.282-4.279-.259-5.971-.318 2.674-2.382 13.964-3.523 18.056 3.545 0 0-1.693-1.228-4.426-1.956-.092-.221-1.035-1.712-1.043-1.708.004 0 .42 1.58.42 1.58s-1.646-.413-2.658-.579c-.433-.999-1.448-1.843-1.46-1.838z" fill="#92c932"/><path d="m33.779 6.211c-.084.136-.886 1.137-.882 1.138-.007-.007 1.527-.934 1.681-1.161 1.168.003 2.371.179 3.539.612-.139.115-1.098 1.027-1.096 1.03-.004-.005 1.57-.585 1.777-.746 2.037.942 3.928 2.76 5.039 5.79-4.072-6.999-16.361-5.259-18.056-3.545 2.219-2 4.325-2.864 7.998-3.118z" fill="#7ab51d"/><path d="m25.993 8.622c-3.463.081-1.438 2.039 1.914 4.899.147-.312.883-2.048.883-2.048s-.27 2.158-.4 2.457c.725.613 1.497 1.265 2.281 1.945.168-.254.724-1.988.724-1.988s-.038 2.067-.256 2.395c2.295 2.012 4.627 4.25 6.063 6.496-4.553-11.078-9.139-14.103-11.209-14.156z" fill="#92c932"/><path d="m35.408 16.076c-.293-.02-1.873-.686-1.873-.686s1.385.025 1.58.036c-.408-.891-.846-1.704-1.311-2.419l-2.032-.643 1.6.01c-.578-.808-1.175-1.489-1.775-2.054l-2.332-.644 1.607.008c-2.227-1.771-4.291-1.957-4.881-1.063 2.248.166 6.782 4.724 11.208 14.156-.381-2.628-1.013-4.845-1.791-6.701z" fill="#7ab51d"/></svg>