<svg enable-background="new 0 0 64 64" height="64" viewBox="0 0 64 64" width="64" xmlns="http://www.w3.org/2000/svg"><path d="m17.177 19.959h-1.941s-.463-1.032 0-1.655c.312 1.096 1.941 1.655 1.941 1.655z" fill="#404d54"/><path d="m46.823 19.959h1.939s.465-1.032 0-1.655c-.312 1.096-1.939 1.655-1.939 1.655z" fill="#404d54"/><path d="m10.901 25.709h42.197v23.406h-42.197z" fill="#ded9d5"/><path d="m53.1 37.7h-42.198s-2.406 2.131-6.902.776c0 3.962 9.186 4.639 13.996 4.639h28.008c4.811 0 13.996-.677 13.996-4.639-4.496 1.355-6.9-.776-6.9-.776z" fill="#4e5e67"/><path d="m52.711 24.823c-1.455-1.854-3.885-4.99-3.885-4.99h-33.652s-2.43 3.137-3.885 4.99c-1.004 1.28-3.773 2.206-7.289 1.01 0 3.962 7.955 4.639 18.436 4.639 1.57 0 2.283-4.409 4.021-4.409h11.086c1.738 0 2.451 4.409 4.023 4.409 10.479 0 18.434-.677 18.434-4.639-3.516 1.196-6.283.271-7.289-1.01z" fill="#4e5e67"/><path d="m26.36 3.655h-1.939s-.465-1.032 0-1.655c.312 1.097 1.939 1.655 1.939 1.655z" fill="#404d54"/><path d="m37.638 3.655h1.941s.463-1.032 0-1.655c-.312 1.097-1.941 1.655-1.941 1.655z" fill="#404d54"/><path d="m19 17.368h26v5.787h-26z" fill="#ded9d5"/><path d="m41.778 12.898h-19.556s-2.875 3.845-7.039 2.472c0 2.379 5.516 2.785 8.404 2.785h16.826c2.889 0 8.404-.406 8.404-2.785-4.162 1.373-7.039-2.472-7.039-2.472z" fill="#4e5e67"/><path d="m22.222 7.139h19.557v5.76h-19.557z" fill="#ded9d5"/><path d="m44.321 6.21c-2.748 1.15-4.631-2.791-4.631-2.791h-15.38s-1.883 3.941-4.631 2.791c-.34 2.193 2.496 2.606 7.283 2.606.715 0 1.264-1.696 2.059-1.696h5.959c.795 0 1.344 1.696 2.061 1.696 4.786 0 7.622-.413 7.28-2.606z" fill="#4e5e67"/><path d="m37.307 18.155-5.307-4.795-5.307 4.795z" fill="#404d54"/><path d="m27.834 19.123h8.332l-4.166-3.763z" fill="#ded9d5"/><path d="m53.099 49.115h-42.198l-1.998 12.885h46.194z" fill="#8a6859"/><path d="m14.318 53.161c-.499.589-2.317.589-2.816 0-.47-.557-.47-2.598 0-3.153.499-.589 2.317-.589 2.816 0 .471.557.471 2.596 0 3.153z" fill="#c49e8f"/><path d="m21.581 52.4c.113.758-.967 1.563-1.672 1.245-.666-.3-2.085-2.162-2.192-2.878-.114-.758.967-1.561 1.671-1.245.668.302 2.085 2.163 2.193 2.878z" fill="#d6a57c"/><path d="m17.481 51.296c-.093.491-1.064.939-1.506.69-.413-.231-1.017-1.511-.929-1.977.093-.49 1.064-.938 1.504-.692.419.236 1.019 1.515.931 1.979z" fill="#c49e8f"/><path d="m18.871 56.344c-.445.76-2.489 1.118-3.166.553-.638-.536-1.041-2.839-.622-3.561.445-.761 2.49-1.119 3.167-.554.639.538 1.041 2.841.621 3.562z" fill="#b47d56"/><path d="m29.566 53.701c.546-.514 2.54-.514 3.087 0 .516.485.516 2.266 0 2.751-.547.514-2.541.514-3.087 0-.516-.486-.516-2.265 0-2.751z" fill="#d6a57c"/><path d="m25.56 51.584c-.502-.35-.477-1.589.038-1.918.487-.311 2.246-.276 2.717.055.5.348.476 1.588-.038 1.919-.488.311-2.247.275-2.717-.056z" fill="#d6a57c"/><path d="m22.007 51.222c-.444-.263-.424-1.191.028-1.437.428-.231 1.978-.201 2.394.048.441.262.422 1.19-.029 1.438-.428.232-1.978.2-2.393-.049z" fill="#c49e8f"/><path d="m30.886 49.634c.633-.091 1.567.874 1.448 1.494-.112.586-1.412 1.817-2.009 1.903-.632.091-1.566-.874-1.448-1.494.113-.586 1.413-1.817 2.009-1.903z" fill="#c49e8f"/><path d="m26.513 52.594c.37-.674 1.723-.674 2.093 0 .35.638.35 2.976 0 3.613-.37.674-1.723.674-2.093 0-.35-.64-.35-2.976 0-3.613z" fill="#705041"/><path d="m23.918 51.72c.654-.129 1.608.819 1.477 1.466-.126.612-1.492 1.957-2.11 2.078-.654.129-1.608-.82-1.477-1.467.126-.612 1.49-1.956 2.11-2.077z" fill="#b47d56"/><path d="m37.438 52.588c-.74.514-3.443.514-4.183 0-.701-.485-.701-2.266 0-2.751.739-.514 3.443-.514 4.183 0 .7.486.7 2.266 0 2.751z" fill="#b47d56"/><path d="m42.75 52.4c.114.758-.966 1.563-1.671 1.245-.667-.3-2.085-2.162-2.192-2.878-.113-.758.967-1.561 1.671-1.245.668.302 2.085 2.163 2.192 2.878z" fill="#705041"/><path d="m40.097 54.564c-.093.491-1.064.939-1.506.69-.414-.231-1.016-1.511-.93-1.977.094-.49 1.065-.938 1.505-.692.418.236 1.019 1.516.931 1.979z" fill="#c49e8f"/><path d="m37.487 57.521c-.37.674-1.722.674-2.093 0-.35-.638-.35-2.976 0-3.613.371-.674 1.723-.674 2.093 0 .351.64.351 2.976 0 3.613z" fill="#d6a57c"/><path d="m50.468 52.901c.486-.514 2.257-.514 2.743 0 .458.485.458 2.266 0 2.751-.486.514-2.257.514-2.743 0-.458-.486-.458-2.265 0-2.751z" fill="#c49e8f"/><path d="m43.37 51.046c-.443-.263-.423-1.191.029-1.437.428-.231 1.978-.201 2.393.048.442.262.423 1.19-.028 1.438-.428.232-1.978.2-2.394-.049z" fill="#c49e8f"/><path d="m52.637 49.658c.537.345.611 1.687.114 2.077-.469.369-2.258.447-2.765.121-.536-.346-.61-1.687-.114-2.078.47-.368 2.259-.446 2.765-.12z" fill="#705041"/><path d="m46.789 50.61c.25-.728 1.582-.956 2.062-.355.453.569.851 2.873.614 3.561-.252.728-1.584.957-2.063.355-.454-.571-.85-2.873-.613-3.561z" fill="#b47d56"/><path d="m45.118 51.999c.762-.127 1.599.927 1.297 1.626-.287.664-2.132 2.1-2.851 2.218-.76.126-1.598-.928-1.296-1.629.288-.663 2.13-2.097 2.85-2.215z" fill="#b47d56"/><path d="m27.181 32.7h3v3h-3z" fill="#c4bfbd"/><path d="m27.681 33.2h2v2h-2z" fill="#302c3b"/><path d="m33.819 32.7h3v3h-3z" fill="#c4bfbd"/><path d="m34.319 33.2h2v2h-2z" fill="#302c3b"/><path d="m40.459 32.7h3v3h-3z" fill="#c4bfbd"/><path d="m40.959 33.2h2v2h-2z" fill="#302c3b"/><path d="m47.099 32.7h3v3h-3z" fill="#c4bfbd"/><path d="m47.599 33.2h2v2h-2z" fill="#302c3b"/><path d="m20.541 32.7h3v3h-3z" fill="#c4bfbd"/><path d="m21.041 33.2h2v2h-2z" fill="#302c3b"/><path d="m13.901 32.7h3v3h-3z" fill="#c4bfbd"/><path d="m14.401 33.2h2v2h-2z" fill="#302c3b"/><path d="m27.181 44.115h3v3h-3z" fill="#c4bfbd"/><path d="m27.681 44.615h2v2h-2z" fill="#302c3b"/><path d="m33.819 44.115h3v3h-3z" fill="#c4bfbd"/><path d="m34.319 44.615h2v2h-2z" fill="#302c3b"/><path d="m40.459 44.115h3v3h-3z" fill="#c4bfbd"/><path d="m40.959 44.615h2v2h-2z" fill="#302c3b"/><path d="m47.099 44.115h3v3h-3z" fill="#c4bfbd"/><path d="m47.599 44.615h2v2h-2z" fill="#302c3b"/><path d="m20.541 44.115h3v3h-3z" fill="#c4bfbd"/><path d="m21.041 44.615h2v2h-2z" fill="#302c3b"/><path d="m13.901 44.115h3v3h-3z" fill="#c4bfbd"/><path d="m14.401 44.615h2v2h-2z" fill="#302c3b"/><path d="m33.819 27.152h3v3h-3z" fill="#c4bfbd"/><path d="m34.319 27.652h2v2h-2z" fill="#302c3b"/><path d="m27.181 27.152h3v3h-3z" fill="#c4bfbd"/><path d="m27.681 27.652h2v2h-2z" fill="#302c3b"/><path d="m33.82 19.155h3v3h-3z" fill="#c4bfbd"/><path d="m34.32 19.655h2v2h-2z" fill="#302c3b"/><path d="m40.459 19.155h3v3h-3z" fill="#c4bfbd"/><path d="m40.959 19.655h2v2h-2z" fill="#302c3b"/><path d="m27.181 19.155h3v3h-3z" fill="#c4bfbd"/><path d="m27.681 19.655h2v2h-2z" fill="#302c3b"/><path d="m20.541 19.155h3v3h-3z" fill="#c4bfbd"/><path d="m21.041 19.655h2v2h-2z" fill="#302c3b"/><path d="m37.14 9.289h3v3h-3z" fill="#c4bfbd"/><path d="m37.64 9.789h2v2h-2z" fill="#302c3b"/><path d="m30.5 9.289h3v3h-3z" fill="#c4bfbd"/><path d="m31 9.789h2v2h-2z" fill="#302c3b"/><path d="m23.86 9.289h3v3h-3z" fill="#c4bfbd"/><path d="m24.36 9.789h2v2h-2z" fill="#302c3b"/><path d="m6.271 59.116-.39.039c0 .381-.018 2.844-.018 2.844h.528c.002 0-.121-2.496-.12-2.883z" fill="#785647"/><path d="m5.936 54.016c-1.064.114-1.058.607-1.264.72-.209.113-1.593.359-1.697.758-.104.396.309 1.133-.026 1.136-1.323.009.099.718-.44.927-1.706.663 1.444 1.022 1.298 1.505-.365 1.198 2.183.168 2.476.594.489.709 1.776-1.221 2.372-1.031.952.303 1.947-1.39.762-1.54-.596-.077 1.513-.868-1.108-1.837-.59-.22-.771-1.402-2.373-1.232z" fill="#ff8fa8"/><path d="m11.777 58.801-.477-.045c0 .435-.15 3.243-.15 3.243h.649s-.022-2.771-.022-3.198z" fill="#785647"/><path d="m11.713 53.018c1.31.127 1.3.683 1.555.81.256.128 1.959.405 2.087.853s-.38 1.274.032 1.277c1.629.01-.122.808.54 1.043 2.101.746-1.775 1.15-1.595 1.693.448 1.348-2.686.188-3.047.669-.6.797-2.183-1.375-2.917-1.161-1.171.342-2.396-1.563-.937-1.733.733-.085-1.86-.975 1.362-2.066.727-.246.947-1.577 2.92-1.385z" fill="#ffa8c3"/><path d="m17.633 59.116-.389.039c0 .381-.018 2.844-.018 2.844h.527c.001 0-.122-2.496-.12-2.883z" fill="#785647"/><path d="m17.297 54.016c-1.064.114-1.057.607-1.264.72-.209.113-1.592.359-1.697.758-.104.396.309 1.133-.025 1.136-1.324.009.098.718-.441.927-1.705.663 1.445 1.022 1.299 1.505-.365 1.198 2.182.168 2.475.594.49.709 1.777-1.221 2.373-1.031.951.303 1.947-1.39.762-1.54-.596-.077 1.512-.868-1.109-1.837-.59-.22-.77-1.402-2.373-1.232z" fill="#ff8fa8"/><path d="m23.139 58.801-.478-.045c0 .435-.15 3.243-.15 3.243h.649s-.021-2.771-.021-3.198z" fill="#785647"/><path d="m23.074 53.018c1.31.127 1.3.683 1.555.81.256.128 1.959.405 2.087.853s-.38 1.274.032 1.277c1.629.01-.122.808.54 1.043 2.101.746-1.775 1.15-1.595 1.693.448 1.348-2.686.188-3.047.669-.6.797-2.183-1.375-2.917-1.161-1.171.342-2.396-1.563-.937-1.733.733-.085-1.86-.975 1.362-2.066.727-.246.948-1.577 2.92-1.385z" fill="#ffa8c3"/><path d="m28.995 59.116-.39.039c0 .381-.018 2.844-.018 2.844h.528c.001 0-.122-2.496-.12-2.883z" fill="#785647"/><path d="m28.659 54.016c-1.064.114-1.058.607-1.264.72-.209.113-1.593.359-1.697.758-.104.396.309 1.133-.026 1.136-1.323.009.099.718-.44.927-1.706.663 1.444 1.022 1.298 1.505-.365 1.198 2.183.168 2.476.594.489.709 1.776-1.221 2.372-1.031.952.303 1.947-1.39.762-1.54-.596-.077 1.513-.868-1.108-1.837-.59-.22-.77-1.402-2.373-1.232z" fill="#ff8fa8"/><path d="m34.501 58.801-.478-.045c0 .435-.15 3.243-.15 3.243h.649s-.021-2.771-.021-3.198z" fill="#785647"/><path d="m34.437 53.018c1.31.127 1.3.683 1.555.81.256.128 1.959.405 2.087.853s-.38 1.274.032 1.277c1.629.01-.122.808.54 1.043 2.101.746-1.775 1.15-1.595 1.693.448 1.348-2.686.188-3.047.669-.6.797-2.183-1.375-2.917-1.161-1.171.342-2.396-1.563-.937-1.733.733-.085-1.86-.975 1.362-2.066.726-.246.947-1.577 2.92-1.385z" fill="#ffa8c3"/><path d="m40.357 59.116-.39.039c0 .381-.018 2.844-.018 2.844h.528c.002 0-.122-2.496-.12-2.883z" fill="#785647"/><path d="m40.021 54.016c-1.064.114-1.058.607-1.264.72-.209.113-1.593.359-1.697.758-.104.396.309 1.133-.026 1.136-1.323.009.099.718-.44.927-1.706.663 1.444 1.022 1.298 1.505-.365 1.198 2.183.168 2.476.594.489.709 1.776-1.221 2.372-1.031.952.303 1.947-1.39.762-1.54-.596-.077 1.513-.868-1.108-1.837-.589-.22-.77-1.402-2.373-1.232z" fill="#ff8fa8"/><path d="m45.863 58.801-.479-.045c0 .435-.15 3.243-.15 3.243h.65c.001 0-.021-2.771-.021-3.198z" fill="#785647"/><path d="m45.799 53.018c1.309.127 1.299.683 1.555.81.256.128 1.959.405 2.086.853.129.447-.379 1.274.033 1.277 1.629.01-.123.808.539 1.043 2.102.746-1.775 1.15-1.594 1.693.447 1.348-2.686.188-3.047.669-.6.797-2.184-1.375-2.918-1.161-1.17.342-2.395-1.563-.936-1.733.732-.085-1.861-.975 1.361-2.066.727-.246.948-1.577 2.921-1.385z" fill="#ffa8c3"/><path d="m51.719 59.116-.39.039c0 .381-.018 2.844-.018 2.844h.528c.001 0-.122-2.496-.12-2.883z" fill="#785647"/><path d="m51.383 54.016c-1.064.114-1.058.607-1.264.72-.209.113-1.593.359-1.697.758-.104.396.309 1.133-.026 1.136-1.323.009.099.718-.44.927-1.706.663 1.444 1.022 1.298 1.505-.365 1.198 2.183.168 2.476.594.489.709 1.776-1.221 2.372-1.031.952.303 1.947-1.39.762-1.54-.596-.077 1.513-.868-1.108-1.837-.59-.22-.771-1.402-2.373-1.232z" fill="#ff8fa8"/><path d="m57.225 58.801-.478-.045c0 .435-.15 3.243-.15 3.243h.649s-.021-2.771-.021-3.198z" fill="#785647"/><path d="m57.16 53.018c1.31.127 1.3.683 1.555.81.256.128 1.959.405 2.087.853s-.38 1.274.032 1.277c1.629.01-.122.808.54 1.043 2.101.746-1.775 1.15-1.595 1.693.448 1.348-2.686.188-3.047.669-.6.797-2.183-1.375-2.917-1.161-1.171.342-2.396-1.563-.937-1.733.733-.085-1.86-.975 1.362-2.066.727-.246.948-1.577 2.92-1.385z" fill="#ffa8c3"/><path d="m60.098 61.081c.229-.411-1.818-.802-2.666-.277-.508-.329-2.605-.244-2.672.191-.248-.396-1.854-.476-2.26-.074-.643-.396-3.111-.165-3.313.251-.941-.325-1.984-.191-2.502.17-.277-.139-.732-.248-1.482-.261.23-.411-1.818-.802-2.666-.277-.506-.329-2.605-.244-2.672.191-.248-.396-1.854-.476-2.26-.074-.641-.396-3.111-.165-3.313.251-.867-.302-1.824-.208-2.371.09-.285-.099-.693-.169-1.291-.181.23-.411-1.818-.802-2.666-.277-.506-.329-2.605-.244-2.672.191-.248-.396-1.854-.476-2.26-.074-.641-.396-3.111-.165-3.313.251-.941-.325-1.984-.191-2.5.17-.279-.139-.732-.248-1.482-.261.229-.411-1.82-.802-2.668-.277-.506-.329-2.605-.244-2.67.191-.248-.396-1.855-.476-2.26-.074-.643-.396-3.113-.165-3.313.251-1.402-.485-3.037.051-2.807.827h59.961s.348-.878-1.882-.918z" fill="#7ab51d"/></svg>