<svg enable-background="new 0 0 64 64" height="64" viewBox="0 0 64 64" width="64" xmlns="http://www.w3.org/2000/svg"><path d="m60 45.5c0 .275-.225.5-.5.5h-5c-.275 0-.5-.225-.5-.5v-22c0-.275.225-.5.5-.5h5c.275 0 .5.225.5.5z" fill="#e84d88"/><path d="m51.999 44h2v1h-2z" fill="#6e8189"/><path d="m51.999 24h2v1h-2z" fill="#6e8189"/><path d="m58.048 24.599v2.698c0 .063-.035.099-.098.099h-.373c-.063 0-.098-.035-.098-.099v-1.117h-.961v1.117c0 .063-.035.099-.1.099h-.371c-.064 0-.098-.035-.098-.099v-2.698c0-.063.033-.099.098-.099h.371c.064 0 .1.036.1.099v1.035h.961v-1.035c0-.063.035-.099.098-.099h.373c.063 0 .098.036.098.099z" fill="#fff"/><path d="m55.497 30.225c0-.846.668-1.504 1.502-1.504.836 0 1.504.658 1.504 1.504s-.668 1.504-1.504 1.504c-.834 0-1.502-.659-1.502-1.504zm2.438 0c0-.557-.41-.949-.936-.949s-.934.393-.934.949.408.949.934.949.936-.394.936-.949z" fill="#fff"/><path d="m57.981 33.151v.35c0 .063-.035.098-.098.098h-.6v2.251c0 .063-.035.099-.098.099h-.373c-.063 0-.098-.035-.098-.099v-2.251h-.6c-.063 0-.098-.035-.098-.098v-.35c0-.063.035-.099.098-.099h1.168.6c.064.001.099.036.099.099z" fill="#fff"/><path d="m57.925 39.777v.349c0 .063-.035.099-.1.099h-1.432-.088c-.063 0-.098-.035-.098-.099v-2.698c0-.063.035-.099.098-.099h.471 1.029c.063 0 .098.035.098.099v.35c0 .063-.035.098-.098.098h-1.029v.619h.926c.063 0 .098.035.098.099v.337c0 .063-.035.099-.098.099h-.926v.65h1.049c.065-.001.1.034.1.097z" fill="#fff"/><path d="m57.931 44.053v.35c0 .063-.035.098-.098.098h-1.258-.191c-.063 0-.098-.034-.098-.098v-2.699c0-.063.035-.098.098-.098h.373c.063 0 .098.035.098.098v2.252h.979c.062-.001.097.033.097.097z" fill="#fff"/><path d="m7 20h46v42h-46z" fill="#f6bec1"/><path d="m42.75 38.5h6v8h-6z" fill="#ff8fa8"/><path d="m32.25 38.5h6v8h-6z" fill="#ff8fa8"/><path d="m21.75 38.5h6v8h-6z" fill="#ff8fa8"/><path d="m11.25 38.5h6v8h-6z" fill="#ff8fa8"/><path d="m43.965 39h3.57v7h-3.57z" fill="#302c3b"/><path d="m33.465 39h3.57v7h-3.57z" fill="#302c3b"/><path d="m22.965 39h3.57v7h-3.57z" fill="#302c3b"/><path d="m12.465 39h3.57v7h-3.57z" fill="#302c3b"/><path d="m43.25 46h1.652c0-1.324-.482-4.169-.482-4.169s.828-2.165.828-2.831h-1.998z" fill="#a81d51"/><path d="m48.25 46h-1.652c0-1.324.482-4.169.482-4.169s-.828-2.165-.828-2.831h1.998z" fill="#a81d51"/><path d="m32.75 46h1.652c0-1.324-.482-4.169-.482-4.169s.828-2.165.828-2.831h-1.998z" fill="#a81d51"/><path d="m37.75 46h-1.652c0-1.324.482-4.169.482-4.169s-.828-2.165-.828-2.831h1.998z" fill="#a81d51"/><path d="m22.25 46h1.652c0-1.324-.482-4.169-.482-4.169s.828-2.165.828-2.831h-1.998z" fill="#a81d51"/><path d="m27.25 46h-1.652c0-1.324.482-4.169.482-4.169s-.828-2.165-.828-2.831h1.998z" fill="#a81d51"/><path d="m11.75 46h1.652c0-1.324-.482-4.169-.482-4.169s.828-2.165.828-2.831h-1.998z" fill="#a81d51"/><path d="m16.75 46h-1.652c0-1.324.482-4.169.482-4.169s-.828-2.165-.828-2.831h1.998z" fill="#a81d51"/><path d="m42.938 41.275h2.562v5.02h.5v-5.02h2.563v-.5h-5.625z" fill="#ff8fa8"/><path d="m32.438 41.275h2.562v5.02h.5v-5.02h2.563v-.5h-5.625z" fill="#ff8fa8"/><path d="m21.938 41.275h2.562v5.02h.5v-5.02h2.563v-.5h-5.625z" fill="#ff8fa8"/><path d="m11.438 41.275h2.562v5.02h.5v-5.02h2.563v-.5h-5.625z" fill="#ff8fa8"/><path d="m5 19v1c0 .55.45 1 1 1h48c.55 0 1-.45 1-1v-1z" fill="#ff8fa8"/><path d="m54 62v-11c0-.55-.45-1-1-1h-46c-.55 0-1 .45-1 1v11z" fill="#d93070"/><path d="m4 18.5c0-.275.225-.5.5-.5h51c.275 0 .5.225.5.5 0 .275-.225.5-.5.5h-51c-.275 0-.5-.225-.5-.5z" fill="#e84d88"/><path d="m39.5 52h-19c-.275 0-.5.225-.5.5v9.5h20v-9.5c0-.275-.225-.5-.5-.5z" fill="#ff8fa8"/><path d="m21 53h3.5v9h-3.5z" fill="#302c3b"/><path d="m35.5 53h3.5v9h-3.5z" fill="#302c3b"/><path d="m25 53h4.75v9h-4.75z" fill="#302c3b"/><path d="m30.25 53h4.75v9h-4.75z" fill="#302c3b"/><path d="m31.32 56.104h.18v2.791h-.18z" fill="#fff"/><path d="m28.5 56.104h.178v2.791h-.178z" fill="#fff"/><path d="m38.455 15.008c0 .716-.585 1.301-1.301 1.301h-14.308c-.716 0-1.301-.585-1.301-1.301v-11.707c0-.716.585-1.301 1.301-1.301h14.309c.716 0 1.301.585 1.301 1.301v11.707z" fill="#d93070"/><path d="m37.154 14.356c0 .358-.293.651-.651.651h-13.008c-.356 0-.649-.293-.649-.651v-10.405c0-.357.293-.65.649-.65h13.008c.358 0 .651.293.651.65z" fill="#ffdedf"/><path d="m24.375 15.398h.846v2.602h-.846z" fill="#d93070"/><path d="m34.779 15.398h.846v2.602h-.846z" fill="#d93070"/><path d="m30 6.613c-1.208-2.02-4.553-1.231-4.553 1.306 0 1.703 1.541 2.842 4.553 5.354 3.009-2.513 4.553-3.651 4.553-5.354 0-2.537-3.345-3.325-4.553-1.306z" fill="#fb367d"/><path d="m11.25 25.5h6v8h-6z" fill="#ff8fa8"/><path d="m21.75 25.5h6v8h-6z" fill="#ff8fa8"/><path d="m32.25 25.5h6v8h-6z" fill="#ff8fa8"/><path d="m42.75 25.5h6v8h-6z" fill="#ff8fa8"/><path d="m12.465 26h3.57v7h-3.57z" fill="#302c3b"/><path d="m22.965 26h3.57v7h-3.57z" fill="#302c3b"/><path d="m33.465 26h3.57v7h-3.57z" fill="#302c3b"/><path d="m43.965 26h3.57v7h-3.57z" fill="#302c3b"/><path d="m16.75 33h-1.652c0-1.324.482-4.169.482-4.169s-.828-2.165-.828-2.831h1.998z" fill="#a81d51"/><path d="m11.75 33h1.652c0-1.324-.482-4.169-.482-4.169s.828-2.165.828-2.831h-1.998z" fill="#a81d51"/><path d="m27.25 33h-1.652c0-1.324.482-4.169.482-4.169s-.828-2.165-.828-2.831h1.998z" fill="#a81d51"/><path d="m22.25 33h1.652c0-1.324-.482-4.169-.482-4.169s.828-2.165.828-2.831h-1.998z" fill="#a81d51"/><path d="m37.75 33h-1.652c0-1.324.482-4.169.482-4.169s-.828-2.165-.828-2.831h1.998z" fill="#a81d51"/><path d="m32.75 33h1.652c0-1.324-.482-4.169-.482-4.169s.828-2.165.828-2.831h-1.998z" fill="#a81d51"/><path d="m48.25 33h-1.652c0-1.324.482-4.169.482-4.169s-.828-2.165-.828-2.831h1.998z" fill="#a81d51"/><path d="m43.25 33h1.652c0-1.324-.482-4.169-.482-4.169s.828-2.165.828-2.831h-1.998z" fill="#a81d51"/><path d="m17.063 28.275h-2.563v5.02h-.5v-5.02h-2.562v-.5h5.625z" fill="#ff8fa8"/><path d="m27.563 28.275h-2.563v5.02h-.5v-5.02h-2.562v-.5h5.625z" fill="#ff8fa8"/><path d="m38.063 28.275h-2.563v5.02h-.5v-5.02h-2.562v-.5h5.625z" fill="#ff8fa8"/><path d="m48.563 28.275h-2.563v5.02h-.5v-5.02h-2.562v-.5h5.625z" fill="#ff8fa8"/><g fill="#fb367d"><path d="m6 53.5h3v1h-3z"/><path d="m13 52.396h3v1h-3z"/><path d="m15 57.052h3v1h-3z"/><path d="m22.167 50h3v1h-3z"/><path d="m32.959 51h3v1h-3z"/><path d="m42.938 52.396h3v1h-3z"/><path d="m45.751 55.896h3v1h-3z"/><path d="m40 58.999h3v1h-3z"/><path d="m51 59.999h3v1h-3z"/><path d="m50.5 52.396h3v1h-3z"/><path d="m8.75 59.372h3v1h-3z"/></g></svg>