<svg enable-background="new 0 0 64 64" height="64" viewBox="0 0 64 64" width="64" xmlns="http://www.w3.org/2000/svg"><path d="m5 32h54v30h-54z" fill="#8f8876"/><path d="m5 59h54v3h-54z" fill="#ffe12c"/><path d="m62 33v-2c0-.55-.45-1-1-1h-58c-.55 0-1 .45-1 1v2z" fill="#e81c27"/><path d="m2 36v2c0 .55.45 1 1 1h58c.55 0 1-.45 1-1v-2z" fill="#ffe12c"/><path d="m2 33h60v3h-60z" fill="#f59e01"/><path d="m57 24c0 1.1-.9 2-2 2h-28c-1.1 0-2-.9-2-2v-18c0-1.1.9-2 2-2h28c1.1 0 2 .9 2 2z" fill="#e81c27"/><path d="m55 23c0 .55-.45 1-1 1h-26c-.55 0-1-.45-1-1v-16c0-.55.45-1 1-1h26c.55 0 1 .45 1 1z" fill="#ffe12c"/><g fill="#e81c27"><path d="m29.707 19.631v-.835c0-.153.051-.278.165-.394l3.034-3.063c.593-.604 1.101-1.302 1.101-1.965 0-.794-.475-1.226-1.171-1.226-.676 0-1.146.291-1.255.955-.034.205-.142.311-.333.311h-1.223c-.205 0-.318-.114-.305-.333.152-1.896 1.598-2.733 3.073-2.733 1.53 0 3.063.95 3.063 3.026 0 1.076-.674 2.137-1.487 2.938l-1.896 1.853h3.215c.205 0 .317.114.317.317v1.146c0 .205-.112.319-.317.319h-5.664c-.204.003-.317-.111-.317-.316z"/><path d="m43.99 16.952v1.077c0 .205-.114.318-.319.318h-.69v1.281c0 .205-.112.319-.317.319h-1.234c-.205 0-.318-.114-.318-.319v-1.281h-4.235c-.205 0-.317-.113-.317-.318v-1.191c0-.143.024-.259.09-.396l2.918-5.684c.076-.154.193-.229.373-.229h1.314c.242 0 .344.154.229.384l-2.932 5.72h2.561v-1.914c0-.205.115-.32.32-.32h1.23c.205 0 .318.115.318.32v1.914h.689c.206 0 .32.114.32.319z"/><path d="m51.848 10.85v8.781c0 .205-.113.319-.32.319h-1.211c-.205 0-.317-.114-.317-.319v-3.638h-3.13v3.638c0 .205-.114.319-.32.319h-1.211c-.205 0-.317-.114-.317-.319v-8.781c0-.205.112-.318.317-.318h1.211c.206 0 .32.113.32.318v3.367h3.129v-3.367c0-.205.112-.318.317-.318h1.211c.205-.003.321.113.321.318z"/><path d="m29 26h2v4h-2z"/><path d="m51 26h2v4h-2z"/></g><path d="m22 44h20v18h-20z" fill="#ffe12c"/><path d="m8 44h11v10h-11z" fill="#ffe12c"/><path d="m9 45h9v8h-9z" fill="#302c3b"/><path d="m44.934 44h11v10h-11z" fill="#ffe12c"/><path d="m45.934 45h9v8h-9z" fill="#302c3b"/><path d="m15 57.333h4v4.667h-4z" fill="#006dae"/><path d="m19 58.333c0 .367-.3.667-.667.667h-2.666c-.367 0-.667-.3-.667-.667v-1.666c0-.367.3-.667.667-.667h2.666c.367 0 .667.3.667.667z" fill="#018bc9"/><path d="m15.667 56.667h2.666v1.333h-2.666z" fill="#013366"/><path d="m23 45h8.25v16h-8.25z" fill="#302c3b"/><path d="m32.75 45h8.25v16h-8.25z" fill="#302c3b"/><path d="m22.5 52h19v2h-19z" fill="#ffe12c"/><path d="m32.604 51.5c-.138 0-.138.5 0 .5h1c.139 0 .25.111.25.25v1.5c0 .139-.111.25-.25.25h-1c-.138 0-.138.5 0 .5h1.392c.136 0 .358-.064.358-.329v-2.342c0-.265-.224-.329-.358-.329z" fill="#8f8876"/><path d="m31.396 54.5c.138 0 .138-.5 0-.5h-1c-.139 0-.25-.111-.25-.25v-1.5c0-.139.111-.25.25-.25h1c.138 0 .138-.5 0-.5h-1.392c-.136 0-.358.064-.358.329v2.342c0 .265.224.329.358.329z" fill="#8f8876"/><path d="m31.875 44h.25v18h-.25z" fill="#4e5e67"/></svg>