<svg enable-background="new 0 0 64 64" height="64" viewBox="0 0 64 64" width="64" xmlns="http://www.w3.org/2000/svg" xmlns:xlink="http://www.w3.org/1999/xlink"><linearGradient id="a" gradientUnits="userSpaceOnUse" x1="32.0005" x2="32.0005" y1="16.5" y2="7.5"><stop offset="0" stop-color="#302c3b"/><stop offset=".2926" stop-color="#454754"/><stop offset=".7557" stop-color="#636d78"/><stop offset="1" stop-color="#6e7b85"/></linearGradient><path d="m58.313 2h-52.625l-3.688 10h60z" fill="#4e5e67"/><g fill="#302c3b"><path d="m5.369 2.867-1.348 3.653.481.48 2.498-2.501z"/><path d="m2.674 10.173 1.828 1.827 2.498-2.501-2.498-2.499-1.041 1.04z"/><path d="m7.733 2.731h3.533v3.536h-3.533z" transform="matrix(.707 .7072 -.7072 .707 5.9657 -5.4005)"/><path d="m7.731 7.732h3.538v3.535h-3.538z" transform="matrix(-.7072 -.707 .707 -.7072 9.5033 22.9334)"/><path d="m12.733 2.731h3.533v3.536h-3.533z" transform="matrix(.707 .7072 -.7072 .707 7.4309 -8.9367)"/><path d="m12.731 7.732h3.538v3.535h-3.538z" transform="matrix(-.7072 -.707 .707 -.7072 18.0395 26.4682)"/><path d="m17.733 2.731h3.533v3.536h-3.533z" transform="matrix(.707 .7072 -.7072 .707 8.896 -12.4729)"/><path d="m17.731 7.732h3.538v3.535h-3.538z" transform="matrix(-.7072 -.707 .707 -.7072 26.5758 30.003)"/><path d="m22.733 2.731h3.533v3.536h-3.533z" transform="matrix(.707 .7072 -.7072 .707 10.3612 -16.0091)"/><path d="m22.731 7.732h3.538v3.535h-3.538z" transform="matrix(-.7072 -.707 .707 -.7072 35.112 33.5379)"/><path d="m27.733 2.731h3.533v3.536h-3.533z" transform="matrix(.707 .7072 -.7072 .707 11.8263 -19.5454)"/><path d="m27.731 7.732h3.538v3.535h-3.538z" transform="matrix(-.7072 -.707 .707 -.7072 43.6482 37.0727)"/><path d="m32.733 2.731h3.533v3.536h-3.533z" transform="matrix(.707 .7072 -.7072 .707 13.2915 -23.0816)"/><path d="m32.731 7.732h3.538v3.535h-3.538z" transform="matrix(-.7072 -.707 .707 -.7072 52.1844 40.6076)"/><path d="m37.733 2.731h3.533v3.536h-3.533z" transform="matrix(.707 .7072 -.7072 .707 14.7567 -26.6178)"/><path d="m37.731 7.732h3.538v3.535h-3.538z" transform="matrix(-.7072 -.707 .707 -.7072 60.7207 44.1424)"/><path d="m42.733 2.731h3.533v3.536h-3.533z" transform="matrix(.707 .7072 -.7072 .707 16.2218 -30.154)"/><path d="m42.731 7.732h3.538v3.535h-3.538z" transform="matrix(-.7072 -.707 .707 -.7072 69.2569 47.6773)"/><path d="m47.733 2.731h3.533v3.536h-3.533z" transform="matrix(.707 .7072 -.7072 .707 17.687 -33.6903)"/><path d="m47.731 7.732h3.538v3.535h-3.538z" transform="matrix(-.7072 -.707 .707 -.7072 77.7931 51.2121)"/><path d="m52.733 2.731h3.533v3.536h-3.533z" transform="matrix(.707 .7072 -.7072 .707 19.1521 -37.2265)"/><path d="m52.731 7.732h3.538v3.535h-3.538z" transform="matrix(-.7072 -.707 .707 -.7072 86.3293 54.747)"/><path d="m59.98 6.521-1.347-3.653-1.633 1.631 2.502 2.501z"/><path d="m57 9.499 2.502 2.501 1.824-1.827-.787-2.135-1.037-1.038z"/></g><path d="m4 12h56v50h-56z" fill="#e6ebef"/><path d="m21 45h22v17h-22z" fill="#99a8ae"/><path d="m23.5 47h8v15h-8z" fill="#302c3b"/><path d="m32.5 47h8v15h-8z" fill="#302c3b"/><path d="m20 44h24v1h-24z" fill="#b3c2c6"/><path d="m19 43h26v1h-26z" fill="#cfd8dd"/><path d="m23 20.618h18v4h-18z" fill="#ff000e"/><path d="m23 26.618h18v4h-18z" fill="#ff000e"/><path d="m30 28.618h4v10h-4z" fill="#ff000e"/><path d="m52.27 59c0 .275-.227.5-.5.5h-4c-.275 0-.5-.225-.5-.5v-8.5c0-.275.225-.5.5-.5h4c.273 0 .5.225.5.5z" fill="#ff000e"/><path d="m48.52 59.5h2.5v2.5h-2.5z" fill="#302c3b"/><path d="m51.77 56.5c0 .273-.227.5-.5.5h-3c-.275 0-.5-.227-.5-.5v-5c0-.275.225-.5.5-.5h3c.273 0 .5.225.5.5z" fill="#e6ebef"/><path d="m48.27 52.5h3v3h-3z" fill="#b3c2c6"/><path d="m48.27 52.5h3v1h-3z" fill="#6e8189"/><path d="m33.57 53.104h.18v2.791h-.18z" fill="#fff"/><path d="m30.25 53.104h.178v2.791h-.178z" fill="#fff"/><path d="m32 4c-4.42 0-8 3.58-8 8h16c0-4.42-3.58-8-8-8z" fill="#6e8189"/><circle cx="32" cy="12" fill="#e6ebef" r="6"/><circle cx="32" cy="12" fill="url(#a)" r="4.5"/><path d="m8 44.5c0-.275-.225-.5-.5-.5h-3.5v4h3.5c.275 0 .5-.225.5-.5z" fill="#99a8ae"/><path d="m6 38.5c0-.275-.225-.5-.5-.5h-1.5v4h1.5c.275 0 .5-.225.5-.5z" fill="#b3c2c6"/><path d="m8 32.5c0-.275-.225-.5-.5-.5h-3.5v4h3.5c.275 0 .5-.225.5-.5z" fill="#99a8ae"/><path d="m6 26.5c0-.275-.225-.5-.5-.5h-1.5v4h1.5c.275 0 .5-.225.5-.5z" fill="#b3c2c6"/><path d="m8 20.5c0-.275-.225-.5-.5-.5h-3.5v4h3.5c.275 0 .5-.225.5-.5z" fill="#99a8ae"/><path d="m6 14.5c0-.275-.225-.5-.5-.5h-1.5v4h1.5c.275 0 .5-.225.5-.5z" fill="#b3c2c6"/><path d="m8 56.5c0-.275-.225-.5-.5-.5h-3.5v4h3.5c.275 0 .5-.225.5-.5z" fill="#99a8ae"/><path d="m6 50.5c0-.275-.225-.5-.5-.5h-1.5v4h1.5c.275 0 .5-.225.5-.5z" fill="#b3c2c6"/><path d="m56 47.5c0 .275.225.5.5.5h3.5v-4h-3.5c-.275 0-.5.225-.5.5z" fill="#99a8ae"/><path d="m58 41.5c0 .275.225.5.5.5h1.5v-4h-1.5c-.275 0-.5.225-.5.5z" fill="#b3c2c6"/><path d="m56 35.5c0 .275.225.5.5.5h3.5v-4h-3.5c-.275 0-.5.225-.5.5z" fill="#99a8ae"/><path d="m58 29.5c0 .275.225.5.5.5h1.5v-4h-1.5c-.275 0-.5.225-.5.5z" fill="#b3c2c6"/><path d="m56 23.5c0 .275.225.5.5.5h3.5v-4h-3.5c-.275 0-.5.225-.5.5z" fill="#99a8ae"/><path d="m58 17.5c0 .275.225.5.5.5h1.5v-4h-1.5c-.275 0-.5.225-.5.5z" fill="#b3c2c6"/><path d="m56 59.5c0 .275.225.5.5.5h3.5v-4h-3.5c-.275 0-.5.225-.5.5z" fill="#99a8ae"/><path d="m58 53.5c0 .275.225.5.5.5h1.5v-4h-1.5c-.275 0-.5.225-.5.5z" fill="#b3c2c6"/></svg>