<svg enable-background="new 0 0 64 64" height="64" viewBox="0 0 64 64" width="64" xmlns="http://www.w3.org/2000/svg"><path d="m13 2h38v7h-38z" fill="#c1bcaf"/><path d="m60 3-9-1v7h9z" fill="#98907d"/><path d="m13 2-9 1v6h9z" fill="#98907d"/><path d="m62 5-10-1v58l10-1z" fill="#c1bcaf"/><path d="m12 4-10 1v56l10 1z" fill="#c1bcaf"/><path d="m8.647 54.76c-2.143 2.09-1.578 5.381-1.578 5.381h2.928c.031-2.86-1.244-2.493-1.35-5.381z" fill="#7ab51d"/><path d="m6.812 59.141c.105.903.211 1.805.317 2.702.902.21 1.842.21 2.744-.001.104-.897.209-1.798.313-2.701-1.102.32-2.272.32-3.374 0z" fill="#cfd8dd"/><path d="m55.341 54.76c2.143 2.09 1.576 5.381 1.576 5.381h-2.922c-.037-2.86 1.238-2.493 1.346-5.381z" fill="#7ab51d"/><path d="m57.187 59.141c-.105.903-.211 1.805-.317 2.702-.901.21-1.839.21-2.74 0-.106-.897-.212-1.799-.317-2.702 1.101.32 2.271.32 3.374 0z" fill="#cfd8dd"/><path d="m18 23v37h14 14v-37z" fill="#e6ebef"/><g fill="#302c3b"><path d="m23.023 52.125h4.241v7.875h-4.241z"/><path d="m41.306 52.125h4.241v7.875h-4.241z"/><path d="m18.453 52.125h4.241v7.875h-4.241z"/><path d="m27.594 52.125h4.241v7.875h-4.241z"/><path d="m36.735 52.125h4.241v7.875h-4.241z"/><path d="m32.165 52.125h4.241v7.875h-4.241z"/><path d="m18.453 39.657h4.241v11.812h-4.241z"/><path d="m23.023 39.657h8.812v11.812h-8.812z"/><path d="m32.165 39.657h8.812v11.812h-8.812z"/><path d="m41.306 39.657h4.241v11.812h-4.241z"/><path d="m23.023 31.453h8.812v7.874h-8.812z"/><path d="m18.453 31.453h4.241v7.874h-4.241z"/><path d="m41.306 31.453h4.241v7.874h-4.241z"/><path d="m32.165 31.453h8.812v7.874h-8.812z"/><path d="m18.453 23.25h4.241v7.874h-4.241z"/><path d="m32.165 23.25h8.812v7.874h-8.812z"/><path d="m41.306 23.25h4.241v7.874h-4.241z"/><path d="m23.023 23.25h8.812v7.874h-8.812z"/></g><path d="m26.38 55.406h.164v1.313h-.164z" fill="#e6ebef"/><path d="m28.314 55.406h.165v1.313h-.165z" fill="#e6ebef"/><path d="m35.521 55.406h.165v1.313h-.165z" fill="#e6ebef"/><path d="m37.456 55.406h.164v1.313h-.164z" fill="#e6ebef"/><path d="m18 60-6 2v-42l6 3z" fill="#98907d"/><path d="m32 20h-20l6 3h14 14l6-3z" fill="#7f7358"/><path d="m46 60 6 2v-42l-6 3z" fill="#98907d"/><path d="m46 60h-14-14l-6 2h20 20z" fill="#dbd6c7"/><path d="m32 44.5h-14v3h14 14v-3z" fill="#b3c2c6"/><path d="m16.251 47.5h1.749v-3l-1.749.25z" fill="#99a8ae"/><path d="m46 44.5v3h1.749v-2.75z" fill="#99a8ae"/><path d="m32 44.953h-14.249v2.094h14.249 14.249v-2.094z" fill="#e6ebef"/><path d="m16 47.047h1.751v-2.094l-1.751.25z" fill="#cfd8dd"/><path d="m46.249 44.953v2.094h1.751v-1.844z" fill="#cfd8dd"/><path d="m12 4h40v16h-40z" fill="#dbd6c7"/><path d="m47 8c0-.55-.45-1-1-1h-28c-.55 0-1 .45-1 1v8c0 .55.45 1 1 1h28c.55 0 1-.45 1-1z" fill="#e81c27"/><path d="m22.141 13.479c-.01-.15.076-.23.217-.232h.842c.135 0 .205.075.23.215.078.447.451.675 1.08.675.654 0 .961-.281.961-.658 0-.464-.521-.665-1.139-.887-.939-.327-2.084-.7-2.084-2.085 0-1.248 1.033-1.893 2.117-1.891 1.074-.002 2.084.588 2.191 1.867.01.15-.076.23-.221.23h-.838c-.135-.002-.207-.07-.229-.21-.078-.431-.4-.642-.902-.641-.529 0-.84.269-.84.644 0 .48.451.688 1.049.914.949.339 2.176.683 2.174 2.058 0 1.249-1.029 1.906-2.24 1.905-1.208.002-2.261-.6-2.368-1.904z" fill="#fff"/><path d="m32.668 15.257h-.936c-.121.002-.211-.056-.25-.184l-.313-.982-2.5.001-.314.981c-.037.128-.127.184-.25.184h-.932c-.16 0-.236-.091-.184-.249l2.072-6.083c.035-.12.131-.185.254-.185l1.205.001c.123 0 .221.063.256.184l2.074 6.084c.054.157-.024.248-.182.248zm-1.879-2.368-.871-2.725-.865 2.725z" fill="#fff"/><path d="m37.271 14.252v.785c0 .143-.078.22-.221.22h-2.828-.432c-.141 0-.219-.077-.219-.22v-6.075c0-.141.078-.221.219-.221l.838-.001c.145 0 .223.081.223.222v5.065l2.199.002c.143 0 .221.077.221.223z" fill="#fff"/><path d="m41.859 14.253v.784c0 .143-.078.222-.221.222h-3.227-.195c-.145 0-.221-.08-.221-.222v-6.076c0-.141.076-.22.221-.22h1.059 2.314c.143-.001.223.079.223.22v.786c0 .144-.078.223-.221.223l-2.316.001v1.394h2.084c.141 0 .221.078.221.218v.763c0 .14-.08.222-.221.222h-2.084v1.461h2.363c.143-.002.221.078.221.224z" fill="#fff"/></svg>