<svg enable-background="new 0 0 64 64" height="64" viewBox="0 0 64 64" width="64" xmlns="http://www.w3.org/2000/svg" xmlns:xlink="http://www.w3.org/1999/xlink"><linearGradient id="a"><stop offset="0" stop-color="#92c932"/><stop offset=".2616" stop-color="#8bc230"/><stop offset=".6443" stop-color="#79ae29"/><stop offset="1" stop-color="#629621"/></linearGradient><radialGradient id="b" cx="540.4131" cy="782.1631" gradientTransform="matrix(0 -1.0233 -.9531 0 779.1847 575.3568)" gradientUnits="userSpaceOnUse" r="14.2385" xlink:href="#a"/><radialGradient id="c" cx="377.2051" cy="14.5181" gradientTransform="matrix(-.9544 0 0 1.022 387.7691 -10.3481)" gradientUnits="userSpaceOnUse" r="10.8482" xlink:href="#a"/><radialGradient id="d" cx="-161.7114" cy="15.7695" gradientTransform="matrix(.9544 0 0 1.022 172.2973 -10.3481)" gradientUnits="userSpaceOnUse" r="10.6645" xlink:href="#a"/><radialGradient id="e" cx="-168.3848" cy="21.6621" gradientTransform="matrix(.9544 0 0 1.022 172.2973 -10.3481)" gradientUnits="userSpaceOnUse" r="10.8176" xlink:href="#a"/><radialGradient id="f" cx="541.0781" cy="240.0195" gradientTransform="matrix(0 -1.0233 .9531 0 -219.1183 575.3568)" gradientUnits="userSpaceOnUse" r="11.0168" xlink:href="#a"/><radialGradient id="g" cx="608.0596" cy="490.3516" gradientTransform="matrix(-.4474 -.9039 .842 -.4791 -125.2508 814.244)" gradientUnits="userSpaceOnUse" r="10.5755" xlink:href="#a"/><radialGradient id="h" cx="369.7402" cy="22.4971" gradientTransform="matrix(-.9544 0 0 1.022 387.7691 -10.3481)" gradientUnits="userSpaceOnUse" r="13.4645" xlink:href="#a"/><linearGradient id="i" gradientTransform="matrix(-1 0 0 1 400.6973 0)" gradientUnits="userSpaceOnUse" x1="374.5352" x2="383.9512" y1="43.8652" y2="43.8652"><stop offset="0" stop-color="#91632e"/><stop offset=".2923" stop-color="#8e612d"/><stop offset=".4957" stop-color="#855a29"/><stop offset=".672" stop-color="#764f22"/><stop offset=".833" stop-color="#603f19"/><stop offset=".9821" stop-color="#442a0d"/><stop offset="1" stop-color="#40270b"/></linearGradient><radialGradient id="j" cx="384.5566" cy="22.2764" gradientTransform="matrix(-.9544 0 0 1.022 387.7691 -10.3481)" gradientUnits="userSpaceOnUse" r="11.5476" xlink:href="#a"/><radialGradient id="k" cx="375.2178" cy="28.1611" gradientTransform="matrix(-.9544 0 0 1.022 387.7691 -10.3481)" gradientUnits="userSpaceOnUse" r="11.7826" xlink:href="#a"/><radialGradient id="l" cx="386.4307" cy="32.4272" gradientTransform="matrix(-.9544 0 0 1.022 387.7691 -10.3481)" gradientUnits="userSpaceOnUse" r="11.6853" xlink:href="#a"/><path d="m36.801 18.463c-31.848 6.691-13.737 15.355-12.199 16.947 5.535 5.733 23.084-7.226 12.199-16.947z" fill="url(#b)"/><path d="m20.066 3.418c-9.549 0 12.371 15.488 12.371 5.25 0-2.912-2.516-3.871-3.068-4.707-2.697-4.07-8.043-.543-9.303-.543z" fill="url(#c)"/><path d="m23.08 9.004c0 10.236-9.215 8.068-15.178.072 0-2.57 3.826-4.328 5.139-5.393 2.756-2.232 10.039.001 10.039 5.321z" fill="url(#d)"/><path d="m16.121 12.486c2.912 9.752-10.582 15.463-13.027 5.568-1.094-4.427 2.969-9.347 5.392-9.72 2.559-.393 6.5.354 7.635 4.152z" fill="url(#e)"/><path d="m9.443 16.965c9.408 1.75 7.945 15.236-1.604 15.236-6.204 0-9.844-17.363 1.604-15.236z" fill="url(#f)"/><path d="m9.5 25.898c6.668-7.328 19.682 11.139 10.287 9.299-3.383-.662-5.746 3.592-8.898 1.203-3.344-2.535-3.987-7.644-1.389-10.502z" fill="url(#g)"/><path d="m25.758 12.168c-2.912 9.75 19.471 16.123 13.252 3.939-1.635-3.201-.504-5.684-3.949-7.549-3.657-1.978-8.166-.191-9.303 3.61z" fill="url(#h)"/><path d="m26.141 29.109c-.555 2.51-4.885 6.857-3.826 28.861.115 2.402-4.303 2.455-4.434.367-.389-6.201 1.736-23.99-1.135-26.066 3.123-2.994 1.387-.178 3.672.559 3.334-1.127 2.643-3.127 4.705-4.725.951-.736 1.106.608 1.018 1.004z" fill="url(#i)"/><path d="m12.232 14.375c-2.949 9.736 16.717 11.436 15.803 1.244-.861-9.637-13.121-10.094-15.803-1.244z" fill="url(#j)"/><path d="m19.924 22.688c-2.113 9.986 18.396 8.426 15.697-.928-2.822-9.781-13.342-10.219-15.697.928z" fill="url(#k)"/><path d="m8.516 25.168c-2.338 9.928 18.746 9.891 16.426-.041-1.862-7.955-14.112-9.785-16.426.041z" fill="url(#l)"/><path d="m10.576 56.289h.437v1.996h-.437z" fill="#7ab51d"/><path d="m9.483 52.795v2.621c0 .484.392.873.874.873h.874v-1.748c0-1.275-1.748-1.746-1.748-1.746z" fill="#c21413"/><path d="m12.104 52.795v2.621c0 .484-.391.873-.873.873h-.874v-1.748c0-1.275 1.747-1.746 1.747-1.746z" fill="#e03636"/><path d="m5.273 52.666v2.619c0 .486.389.877.871.877h.873v-1.75c.001-1.273-1.744-1.746-1.744-1.746z" fill="#f9c802"/><path d="m7.892 52.666v2.619c0 .486-.391.877-.874.877h-.873v-1.75c0-1.273 1.747-1.746 1.747-1.746z" fill="#ffe12c"/><path d="m6.364 56.162h.435v3.713h-.435z" fill="#7ab51d"/><path d="m17.735 54.75h.437v3.535h-.437z" fill="#7ab51d"/><path d="m16.643 52.846v2.623c0 .482.392.873.874.873h.874v-1.748c0-1.276-1.748-1.748-1.748-1.748z" fill="#c21413"/><path d="m19.264 52.846v2.623c0 .482-.391.873-.873.873h-.874v-1.748c0-1.276 1.747-1.748 1.747-1.748z" fill="#e03636"/><path d="m14.318 53.828h.436v4.457h-.436z" fill="#7ab51d"/><path d="m13.228 51.125v2.621c0 .484.389.877.871.877h.873v-1.75c0-1.273-1.744-1.748-1.744-1.748z" fill="#f9c802"/><path d="m15.846 51.125v2.621c0 .484-.39.877-.874.877h-.873v-1.75c0-1.273 1.747-1.748 1.747-1.748z" fill="#ffe12c"/><path d="m50.267 25.334h7.334v11.732h-7.334z" fill="#e8000d"/><g fill="#cf0505"><path d="m54.667 26.066h2.933v1.467h-2.933z"/><path d="m52.841 30.467h2.934v1.467h-2.934z"/><path d="m54.667 29h2.933v1.467h-2.933z"/><path d="m54.667 33.4h2.933v1.467h-2.933z"/><path d="m50.267 27.533h2.934v1.467h-2.934z"/></g><path d="m49.533 23.867h8.801v2.199h-8.801z" fill="#6e8189"/><path d="m40 18-22 22h44z" fill="#ff000e"/><path d="m21.665 40h36.667l-18.333-16.865z" fill="#cfd8dd"/><path d="m40 25.334-18.333 14.666v19.066h36.667v-19.066z" fill="#e6ebef"/><path d="m41.369 58.875c.322-1.572 4.3-2.447 5.333-.951.653-1.516 3.24-1.215 3.639.283.105-1.65 3.486-1.973 4.302-.721 1.365-1.988 4.663-.51 4.294 1.043 3.59.153 3.032 3.471 3.032 3.471h-25.117c-.373-2.934 2.261-4.963 4.517-3.125z" fill="#7ab51d"/><path d="m42.764 60.01c.938-2.609 4.757-4.191 7.074-1.068 1.095-.721 2.923-.617 3.484.188.718-.848 2.471-1.211 3.336-.234 1.794-1.109 3.442-.172 3.442-.172s-2.406-.352-3.536 1.35c-.715-1.35-2.903-.918-3.021.461-.64-1.404-2.592-1.668-4.389-.484-.09-1.354-3.272-3.766-6.39-.041z" fill="#92c932"/><path d="m20.934 60.533h19.066v1.467h-19.066z" fill="#cfd8dd"/><path d="m22.4 59.066h16.133v1.467h-16.133z" fill="#b3c2c6"/><path d="m36.68 56.727c-.918-.176-.539.734-.539.734h1.908c.217-1.248-1.282-1.861-1.369-.734z" fill="#7ab51d"/><path d="m35.967 57.461.21 1.605h1.781l.209-1.605z" fill="#9e6c49"/><path d="m23.479 56.727c-.917-.176-.539.734-.539.734h1.908c.217-1.248-1.282-1.861-1.369-.734z" fill="#7ab51d"/><path d="m22.767 57.461.21 1.605h1.781l.209-1.605z" fill="#9e6c49"/><path d="m42.2 41.467v10.268h13.2v-10.268z" fill="#9e6c49"/><path d="m43.667 42.934h10.267v7.334h-10.267z" fill="#4ecee6"/><path d="m41.467 51.734h14.667v.732h-14.667z" fill="#785647"/><path d="m25.334 41.467h10.267v17.6h-10.267z" fill="#9e6c49"/><path d="m25.976 42.113h8.983v16.953h-8.983z" fill="#785647"/><path d="m26.617 42.758h7.699v16.309h-7.699z" fill="#9e6c49"/><path d="m27.533 43.227h5.867v2.934h-5.867z" fill="#4ecee6"/><path d="m30.307 43.045h.32v3.299h-.32z" fill="#9e6c49"/><path d="m28.542 43.045h.32v3.299h-.32z" fill="#9e6c49"/><path d="m32.071 43.045h.32v3.299h-.32z" fill="#9e6c49"/><path d="m32.392 49.857h1.283v2.58h-1.283z" fill="#855a3d"/><path d="m31.113 50.887c1.116-.256 1.794-.111 1.794-.111.46.42.866-.463.208-.561-1.268-.192-2.505.789-2.002.672z" fill="#99a8ae"/><path d="m33.194 51.754c0 .432-.321.432-.321 0 0-.43.321-.43.321 0z" fill="#45332c"/><path d="m38.698 41.467h.404v1.145h-.404z" fill="#302c3b"/><path d="m39.828 46.6h-1.855l-.539-2.899h2.933z" fill="#302c3b"/><path d="m37.973 42.557h1.855l.539 1.144h-2.933z" fill="#4e5e67"/><path d="m39.507 46.1h-1.213l-.271-1.899h1.754z" fill="#ffe463"/><path d="m6.075 58.965c.287-1.527 3.848-2.377 4.773-.924.583-1.473 2.897-1.182 3.255.273.094-1.602 3.119-1.914 3.851-.701 1.22-1.928 4.171-.494 3.841 1.016 3.213.146 2.713 3.371 2.713 3.371h-22.476c-.334-2.85 2.023-4.822 4.043-3.035z" fill="#7ab51d"/><path d="m7.322 60.066c.841-2.533 4.258-4.07 6.331-1.037.978-.701 2.615-.6 3.116.18.644-.82 2.212-1.172 2.986-.225 1.606-1.078 3.08-.166 3.08-.166s-2.152-.344-3.163 1.309c-.64-1.311-2.6-.893-2.706.447-.57-1.365-2.317-1.619-3.926-.469-.078-1.314-2.927-3.656-5.718-.039z" fill="#92c932"/></svg>