<svg enable-background="new 0 0 64 64" height="64" viewBox="0 0 64 64" width="64" xmlns="http://www.w3.org/2000/svg"><path d="m32 2.396v5.875c3.223 1.371 6.444-4.309 9.667-2.938-3.223-3.329-6.444.392-9.667-2.937z" fill="#ff000e"/><path d="m31.667 2.354v9.646h.666v-9.646c0-.471-.666-.471-.666 0z" fill="#b3c2c6"/><path d="m4 27h56v35h-56z" fill="#e3cc9e"/><path d="m57 21h-50l-5 6h60z" fill="#cf0505"/><path d="m32 11-18 16h36z" fill="#ff000e"/><path d="m32 15-14 12v35h28v-35z" fill="#ffe8bb"/><path d="m48.214 59.912c.215-1.051 2.873-1.635 3.563-.637.437-1.014 2.165-.813 2.432.189.07-1.104 2.33-1.318 2.874-.48.912-1.33 3.116-.342 2.87.695 2.4.102 2.025 2.32 2.025 2.32h-16.782c-.251-1.96 1.51-3.315 3.018-2.087z" fill="#7ab51d"/><path d="m49.146 60.67c.627-1.744 3.178-2.801 4.728-.713.731-.482 1.952-.414 2.327.123.479-.566 1.651-.809 2.229-.154 1.199-.742 2.301-.117 2.301-.117s-1.608-.234-2.363.902c-.478-.902-1.938-.613-2.018.309-.428-.939-1.731-1.115-2.934-.324-.06-.903-2.187-2.514-4.27-.026z" fill="#92c932"/><path d="m15.786 59.912c-.215-1.051-2.873-1.635-3.563-.637-.437-1.014-2.165-.813-2.432.189-.07-1.104-2.33-1.318-2.874-.48-.913-1.33-3.117-.342-2.871.695-2.4.102-2.025 2.321-2.025 2.321h16.782c.252-1.961-1.509-3.316-3.017-2.088z" fill="#7ab51d"/><path d="m14.854 60.67c-.627-1.744-3.177-2.801-4.727-.713-.731-.482-1.952-.414-2.327.123-.479-.566-1.652-.809-2.229-.154-1.199-.742-2.301-.117-2.301-.117s1.608-.234 2.363.902c.478-.902 1.939-.613 2.018.309.428-.939 1.731-1.115 2.934-.324.059-.903 2.186-2.514 4.269-.026z" fill="#92c932"/><circle cx="32" cy="32" fill="#b79c7c" r="6.5"/><circle cx="32" cy="32" fill="#fff" r="5"/><path d="m28.818 31.545h3.183v.908h-3.183z" fill="#302c3b"/><path d="m31.546 27.455h.908v4.545h-.908z" fill="#302c3b"/><circle cx="32" cy="32" fill="#302c3b" r=".909"/><circle cx="31.998" cy="32" fill="#fff" r=".568"/><path d="m19 60h26v1h-26z" fill="#e6ebef"/><path d="m18 61h28v1h-28z" fill="#cfd8dd"/><path d="m21 58h22v1h-22z" fill="#e6ebef"/><path d="m20 59h24v1h-24z" fill="#cfd8dd"/><path d="m7.5 31h7v10.5h-7z" fill="#b79c7c"/><path d="m11.25 32h2.25v4h-2.25z" fill="#302c3b"/><path d="m8.5 32h2.25v4h-2.25z" fill="#302c3b"/><path d="m11.25 36.5h2.25v4h-2.25z" fill="#302c3b"/><path d="m8.5 36.5h2.25v4h-2.25z" fill="#302c3b"/><path d="m49.5 31h7v10.5h-7z" fill="#b79c7c"/><path d="m53.25 32h2.25v4h-2.25z" fill="#302c3b"/><path d="m50.5 32h2.25v4h-2.25z" fill="#302c3b"/><path d="m53.25 36.5h2.25v4h-2.25z" fill="#302c3b"/><path d="m50.5 36.5h2.25v4h-2.25z" fill="#302c3b"/><path d="m7.5 44.999h7v10.5h-7z" fill="#b79c7c"/><path d="m11.25 45.999h2.25v4h-2.25z" fill="#302c3b"/><path d="m8.5 45.999h2.25v4h-2.25z" fill="#302c3b"/><path d="m11.25 50.499h2.25v4h-2.25z" fill="#302c3b"/><path d="m8.5 50.499h2.25v4h-2.25z" fill="#302c3b"/><path d="m49.5 44.999h7v10.5h-7z" fill="#b79c7c"/><path d="m53.25 45.999h2.25v4h-2.25z" fill="#302c3b"/><path d="m50.5 45.999h2.25v4h-2.25z" fill="#302c3b"/><path d="m53.25 50.499h2.25v4h-2.25z" fill="#302c3b"/><path d="m50.5 50.499h2.25v4h-2.25z" fill="#302c3b"/><path d="m23 43.999h18v14h-18z" fill="#e3cc9e"/><path d="m24.25 44.999h15.5v13h-15.5z" fill="#744727"/><path d="m24.75 45.499h14.5v12.5h-14.5z" fill="#9e6c49"/><path d="m31.75 45.249h.5v12.75h-.5z" fill="#744727"/><path d="m30.75 51.89v1.469c0 .354-.625.354-.625 0v-1.469c0-.355.625-.355.625 0z" fill="#744727"/><path d="m33.875 51.89v1.469c0 .354-.625.354-.625 0v-1.469c0-.355.625-.355.625 0z" fill="#744727"/><g fill="#302c3b"><path d="m33.75 46.749h1.75v1.75h-1.75z"/><path d="m36 46.749h1.75v1.75h-1.75z"/><path d="m33.75 48.999h1.75v1.75h-1.75z"/><path d="m36 48.999h1.75v1.75h-1.75z"/><path d="m26.25 46.749h1.75v1.75h-1.75z"/><path d="m28.5 46.749h1.75v1.75h-1.75z"/><path d="m26.25 48.999h1.75v1.75h-1.75z"/><path d="m28.5 48.999h1.75v1.75h-1.75z"/></g></svg>