<svg enable-background="new 0 0 64 64" height="64" viewBox="0 0 64 64" width="64" xmlns="http://www.w3.org/2000/svg"><path d="m9 31h46v30h-46z" fill="#e8c892"/><path d="m11 3h42v30h-42z" fill="#e8c892"/><path d="m55 54h-46c-.275 0-.5.225-.5.5v6h47v-6c0-.275-.225-.5-.5-.5z" fill="#d6a57c"/><path d="m43.75 7h6v8h-6z" fill="#9e6c49"/><path d="m34.25 7h6v8h-6z" fill="#9e6c49"/><path d="m23.75 7h6v8h-6z" fill="#9e6c49"/><path d="m14.25 7h6v8h-6z" fill="#9e6c49"/><path d="m43.75 19h6v8h-6z" fill="#9e6c49"/><path d="m34.25 19h6v8h-6z" fill="#9e6c49"/><path d="m23.75 19h6v8h-6z" fill="#9e6c49"/><path d="m14.25 19h6v8h-6z" fill="#9e6c49"/><path d="m44.75 34.5h6v8h-6z" fill="#9e6c49"/><path d="m34.25 34.5h6v8h-6z" fill="#9e6c49"/><path d="m23.75 34.5h6v8h-6z" fill="#9e6c49"/><path d="m13.25 34.5h6v8h-6z" fill="#9e6c49"/><path d="m61 28.5c0 .275-.225.5-.5.5h-5c-.275 0-.5-.225-.5-.5v-22c0-.275.225-.5.5-.5h5c.275 0 .5.225.5.5z" fill="#f66257"/><path d="m52.999 27h2v1h-2z" fill="#6e8189"/><path d="m52.999 7h2v1h-2z" fill="#6e8189"/><path d="m59.048 7.599v2.698c0 .063-.035.099-.098.099h-.373c-.063 0-.098-.035-.098-.099v-1.117h-.961v1.117c0 .063-.035.099-.1.099h-.371c-.064 0-.098-.035-.098-.099v-2.698c0-.063.033-.099.098-.099h.371c.064 0 .1.036.1.099v1.035h.961v-1.035c0-.063.035-.099.098-.099h.373c.063 0 .098.036.098.099z" fill="#fff"/><path d="m56.497 13.225c0-.846.668-1.504 1.502-1.504.836 0 1.504.658 1.504 1.504s-.668 1.504-1.504 1.504c-.834 0-1.502-.659-1.502-1.504zm2.438 0c0-.557-.41-.949-.936-.949s-.934.393-.934.949.408.949.934.949.936-.394.936-.949z" fill="#fff"/><path d="m58.981 16.151v.35c0 .063-.035.098-.098.098h-.6v2.251c0 .063-.035.099-.098.099h-.373c-.063 0-.098-.035-.098-.099v-2.251h-.6c-.063 0-.098-.035-.098-.098v-.35c0-.063.035-.099.098-.099h1.168.6c.064.001.099.036.099.099z" fill="#fff"/><path d="m58.925 22.777v.349c0 .063-.035.099-.1.099h-1.432-.088c-.063 0-.098-.035-.098-.099v-2.698c0-.063.035-.099.098-.099h.471 1.029c.063 0 .098.035.098.099v.35c0 .063-.035.098-.098.098h-1.029v.619h.926c.063 0 .098.035.098.099v.337c0 .063-.035.099-.098.099h-.926v.65h1.049c.065-.001.1.034.1.097z" fill="#fff"/><path d="m58.931 27.053v.35c0 .063-.035.098-.098.098h-1.258-.191c-.063 0-.098-.034-.098-.098v-2.699c0-.063.035-.098.098-.098h.373c.063 0 .098.035.098.098v2.252h.979c.062-.001.097.033.097.097z" fill="#fff"/><path d="m44.965 7.5h3.57v7h-3.57z" fill="#1a1626"/><path d="m35.465 7.5h3.57v7h-3.57z" fill="#1a1626"/><path d="m24.965 7.5h3.57v7h-3.57z" fill="#1a1626"/><path d="m15.465 7.5h3.57v7h-3.57z" fill="#1a1626"/><path d="m44.965 19.5h3.57v7h-3.57z" fill="#1a1626"/><path d="m35.465 19.5h3.57v7h-3.57z" fill="#1a1626"/><path d="m24.965 19.5h3.57v7h-3.57z" fill="#1a1626"/><path d="m15.465 19.5h3.57v7h-3.57z" fill="#1a1626"/><path d="m45.965 35h3.57v7h-3.57z" fill="#1a1626"/><path d="m35.465 35h3.57v7h-3.57z" fill="#1a1626"/><path d="m24.965 35h3.57v7h-3.57z" fill="#1a1626"/><path d="m14.465 35h3.57v7h-3.57z" fill="#1a1626"/><g fill="#5f4047"><path d="m44.25 14.5h1.652c0-1.324-.482-4.169-.482-4.169s.828-2.165.828-2.831h-1.998z"/><path d="m49.25 14.5h-1.652c0-1.324.482-4.169.482-4.169s-.828-2.165-.828-2.831h1.998z"/><path d="m34.75 14.5h1.652c0-1.324-.482-4.169-.482-4.169s.828-2.165.828-2.831h-1.998z"/><path d="m39.75 14.5h-1.652c0-1.324.482-4.169.482-4.169s-.828-2.165-.828-2.831h1.998z"/><path d="m24.25 14.5h1.652c0-1.324-.482-4.169-.482-4.169s.828-2.165.828-2.831h-1.998z"/><path d="m29.25 14.5h-1.652c0-1.324.482-4.169.482-4.169s-.828-2.165-.828-2.831h1.998z"/><path d="m14.75 14.5h1.652c0-1.324-.482-4.169-.482-4.169s.828-2.165.828-2.831h-1.998z"/><path d="m19.75 14.5h-1.652c0-1.324.482-4.169.482-4.169s-.828-2.165-.828-2.831h1.998z"/><path d="m44.25 26.5h1.652c0-1.324-.482-4.169-.482-4.169s.828-2.165.828-2.831h-1.998z"/><path d="m49.25 26.5h-1.652c0-1.324.482-4.169.482-4.169s-.828-2.165-.828-2.831h1.998z"/><path d="m34.75 26.5h1.652c0-1.324-.482-4.169-.482-4.169s.828-2.165.828-2.831h-1.998z"/><path d="m39.75 26.5h-1.652c0-1.324.482-4.169.482-4.169s-.828-2.165-.828-2.831h1.998z"/><path d="m24.25 26.5h1.652c0-1.324-.482-4.169-.482-4.169s.828-2.165.828-2.831h-1.998z"/><path d="m29.25 26.5h-1.652c0-1.324.482-4.169.482-4.169s-.828-2.165-.828-2.831h1.998z"/><path d="m14.75 26.5h1.652c0-1.324-.482-4.169-.482-4.169s.828-2.165.828-2.831h-1.998z"/><path d="m19.75 26.5h-1.652c0-1.324.482-4.169.482-4.169s-.828-2.165-.828-2.831h1.998z"/><path d="m45.25 42h1.652c0-1.324-.482-4.169-.482-4.169s.828-2.165.828-2.831h-1.998z"/><path d="m50.25 42h-1.652c0-1.324.482-4.169.482-4.169s-.828-2.165-.828-2.831h1.998z"/><path d="m34.75 42h1.652c0-1.324-.482-4.169-.482-4.169s.828-2.165.828-2.831h-1.998z"/><path d="m39.75 42h-1.652c0-1.324.482-4.169.482-4.169s-.828-2.165-.828-2.831h1.998z"/><path d="m24.25 42h1.652c0-1.324-.482-4.169-.482-4.169s.828-2.165.828-2.831h-1.998z"/><path d="m29.25 42h-1.652c0-1.324.482-4.169.482-4.169s-.828-2.165-.828-2.831h1.998z"/><path d="m13.75 42h1.652c0-1.324-.482-4.169-.482-4.169s.828-2.165.828-2.831h-1.998z"/><path d="m18.75 42h-1.652c0-1.324.482-4.169.482-4.169s-.828-2.165-.828-2.831h1.998z"/></g><path d="m43.938 9.275v.5h2.562v5.02h.5v-5.02h2.563v-.5z" fill="#9e6c49"/><path d="m34.438 9.775h2.562v5.02h.5v-5.02h2.563v-.5h-5.625z" fill="#9e6c49"/><path d="m23.938 9.775h2.562v5.02h.5v-5.02h2.563v-.5h-5.625z" fill="#9e6c49"/><path d="m14.438 9.775h2.562v5.02h.5v-5.02h2.563v-.5h-5.625z" fill="#9e6c49"/><path d="m43.938 21.775h2.562v5.02h.5v-5.02h2.563v-.5h-5.625z" fill="#9e6c49"/><path d="m34.438 21.775h2.562v5.02h.5v-5.02h2.563v-.5h-5.625z" fill="#9e6c49"/><path d="m23.938 21.775h2.562v5.02h.5v-5.02h2.563v-.5h-5.625z" fill="#9e6c49"/><path d="m14.438 21.775h2.562v5.02h.5v-5.02h2.563v-.5h-5.625z" fill="#9e6c49"/><path d="m44.938 37.275h2.562v5.02h.5v-5.02h2.563v-.5h-5.625z" fill="#9e6c49"/><path d="m34.438 37.275h2.562v5.02h.5v-5.02h2.563v-.5h-5.625z" fill="#9e6c49"/><path d="m23.938 37.275h2.562v5.02h.5v-5.02h2.563v-.5h-5.625z" fill="#9e6c49"/><path d="m13.438 37.275h2.562v5.02h.5v-5.02h2.563v-.5h-5.625z" fill="#9e6c49"/><path d="m10 3v1c0 .55.45 1 1 1h42c.55 0 1-.45 1-1v-1z" fill="#f0dbaf"/><path d="m9 2.5c0-.275.225-.5.5-.5h45c.275 0 .5.225.5.5 0 .275-.225.5-.5.5h-45c-.275 0-.5-.225-.5-.5z" fill="#fff1d4"/><path d="m8 30.5v1c0 .55.45 1 1 1h46c.55 0 1-.45 1-1v-1z" fill="#f0dbaf"/><path d="m7 30c0-.275.225-.5.5-.5h49c.275 0 .5.225.5.5 0 .275-.225.5-.5.5h-49c-.275 0-.5-.225-.5-.5z" fill="#fff1d4"/><path d="m43.5 45.999h-23c-.275 0-.5.225-.5.5v14h24v-14c0-.275-.225-.5-.5-.5z" fill="#f0dbaf"/><path d="m21 46.999h22v13h-22z" fill="#302c3b"/><path d="m31.75 48.999h.5v11h-.5z" fill="#f0dbaf"/><path d="m38 45.999h.5v14h-.5z" fill="#f0dbaf"/><path d="m25.5 45.999h.5v14h-.5z" fill="#f0dbaf"/><path d="m21 48.999h22v.5h-22z" fill="#f0dbaf"/><path d="m33.32 53.104h.18v2.791h-.18z" fill="#fff"/><path d="m30.5 53.104h.178v2.791h-.178z" fill="#fff"/><path d="m2 59.999h60v2.001h-60z" fill="#7ab51d"/><path d="m17.395 60.419c0 .775-2.596.775-2.596 0 0-3.051-3.037-11.283-3.037-15.521 0-.725 1.922-.725 1.922 0 0 4.238 3.711 12.47 3.711 15.521z" fill="#9e6c49"/><path d="m2 41.806c1.255-.195 7.136 2.875 10.898 1.977-3.472-.735-6.441-4.055-10.898-1.977z" fill="#92c932"/><path d="m2 41.806c4.523-1.9 7.509 1.484 10.898 1.977-1.082-.196-6.215-6.415-10.898-1.977z" fill="#7ab51d"/><path d="m4.254 50.685c.659-1.088 7.846-4.598 8.553-7.248-2.802 2.24-7.174 2.404-8.553 7.248z" fill="#92c932"/><path d="m4.254 50.685c1.553-4.781 5.982-4.914 8.555-7.246-.772.652-8.555.132-8.555 7.246z" fill="#7ab51d"/><path d="m12.744 43.765c2.855-1.121 6.818.664 8.775-3.852-2.519 2.268-8.165.861-8.775 3.852z" fill="#92c932"/><path d="m12.745 43.767c.793-.348 7.688 2.732 8.776-3.852-2.105 4.373-6.115 2.531-8.776 3.852z" fill="#7ab51d"/><path d="m11.688 44.782c3.076-1.782 2.386-6.282 4.108-7.6-4.03 1.352-2.884 5.114-4.108 7.6z" fill="#92c932"/><path d="m11.688 44.784c1.379-2.291.186-6.105 4.108-7.602-1.619.237-5.809.671-4.108 7.602z" fill="#7ab51d"/><path d="m12.824 43.177c-.829 3.336-4.133 6.031-2.283 10.49-.057-4.813 4.037-6.768 2.283-10.49z" fill="#92c932"/><path d="m12.823 43.177c-.218 1.01-6.859 5.245-2.283 10.49-1.677-4.516 1.689-7.221 2.283-10.49z" fill="#7ab51d"/><path d="m12.1 43.386c-3.417.904 3.396 3.113 6.349 8.02-2.579-6.276-5.178-7.989-6.349-8.02z" fill="#92c932"/><path d="m12.1 43.386c1.273.096 3.842 2.676 6.35 8.02-.22-1.491-1.799-9.71-6.35-8.02z" fill="#7ab51d"/><path d="m50.316 44.897c0-.725 1.922-.725 1.922 0 0 4.238-3.037 12.471-3.037 15.521 0 .775-2.596.775-2.596 0 0-3.05 3.711-11.282 3.711-15.521z" fill="#9e6c49"/><path d="m51.102 43.782c3.763.898 9.644-2.172 10.898-1.977-4.457-2.077-7.426 1.243-10.898 1.977z" fill="#92c932"/><path d="m51.102 43.782c3.39-.492 6.375-3.877 10.898-1.977-4.683-4.437-9.816 1.782-10.898 1.977z" fill="#7ab51d"/><path d="m51.193 43.437c.707 2.65 7.894 6.16 8.553 7.248-1.379-4.844-5.751-5.008-8.553-7.248z" fill="#92c932"/><path d="m51.191 43.438c2.572 2.332 7.002 2.465 8.555 7.246 0-7.113-7.783-6.593-8.555-7.246z" fill="#7ab51d"/><path d="m42.48 39.913c1.957 4.516 5.92 2.73 8.775 3.852-.609-2.991-6.255-1.584-8.775-3.852z" fill="#92c932"/><path d="m42.479 39.915c1.089 6.584 7.983 3.504 8.776 3.852-2.661-1.321-6.671.521-8.776-3.852z" fill="#7ab51d"/><path d="m48.204 37.183c1.723 1.317 1.032 5.817 4.108 7.6-1.224-2.487-.078-6.249-4.108-7.6z" fill="#92c932"/><path d="m48.204 37.183c3.923 1.496 2.729 5.311 4.108 7.602 1.701-6.932-2.489-7.366-4.108-7.602z" fill="#7ab51d"/><path d="m53.459 53.667c1.85-4.459-1.454-7.154-2.283-10.49-1.754 3.722 2.34 5.677 2.283 10.49z" fill="#92c932"/><path d="m53.46 53.667c4.576-5.245-2.065-9.48-2.283-10.49.594 3.269 3.96 5.974 2.283 10.49z" fill="#7ab51d"/><path d="m45.552 51.405c2.953-4.906 9.766-7.115 6.349-8.02-1.172.032-3.771 1.745-6.349 8.02z" fill="#92c932"/><path d="m45.551 51.405c2.508-5.344 5.076-7.924 6.35-8.02-4.552-1.689-6.131 6.53-6.35 8.02z" fill="#7ab51d"/><path d="m42.5 62h-21l4.5-2.001h12z" fill="#cfd8dd"/></svg>