<svg enable-background="new 0 0 64 64" height="64" viewBox="0 0 64 64" width="64" xmlns="http://www.w3.org/2000/svg" xmlns:xlink="http://www.w3.org/1999/xlink"><linearGradient id="a" gradientUnits="userSpaceOnUse" x1="31.9995" x2="31.9995" y1="2" y2="62.0005"><stop offset="0" stop-color="#00abf1"/><stop offset=".2292" stop-color="#00a7ef"/><stop offset=".4667" stop-color="#009ae9"/><stop offset=".708" stop-color="#0086e0"/><stop offset=".9504" stop-color="#0069d3"/><stop offset="1" stop-color="#0062d0"/></linearGradient><path d="m61.999 54c0 4.4-3.6 8-7.999 8h-44c-4.4 0-8-3.6-8-8v-44c0-4.4 3.6-8 8-8h44c4.399 0 7.999 3.6 7.999 8z" fill="url(#a)"/><path d="m2 19h60v26h-60z" fill="#013366"/><g fill="#fff"><path d="m23.854 41.213h-2.639c-.349 0-.599-.158-.704-.521l-.887-2.783h-7.07l-.887 2.783c-.105.362-.355.521-.704.521h-2.638c-.454 0-.672-.258-.521-.705l5.856-17.201c.105-.342.375-.52.725-.52h3.408c.349 0 .618.178.724.52l5.856 17.201c.152.447-.064.705-.519.705zm-5.311-6.699-2.453-7.699-2.453 7.699z"/><path d="m36.176 23.413v2.224c0 .401-.224.625-.625.625h-3.816v14.326c0 .4-.225.625-.626.625h-2.369c-.401 0-.625-.225-.625-.625v-14.326h-3.817c-.401 0-.625-.224-.625-.625v-2.224c0-.401.224-.625.625-.625h7.437 3.816c.401 0 .625.223.625.625z"/><path d="m56.242 23.413v17.175c0 .4-.224.625-.625.625h-2.369c-.401 0-.625-.225-.625-.625v-11.75l-3.876 8.953c-.132.328-.375.473-.724.473h-1.593c-.349 0-.592-.145-.724-.473l-3.876-8.953v11.75c0 .4-.224.625-.625.625h-2.369c-.401 0-.625-.225-.625-.625v-17.175c0-.401.224-.625.625-.625h2.369.619c.349 0 .592.145.724.474l4.679 10.792 4.679-10.792c.131-.329.375-.474.724-.474h1.803 1.185c.401 0 .624.223.624.625z"/></g></svg>