<svg enable-background="new 0 0 64 64" height="64" viewBox="0 0 64 64" width="64" xmlns="http://www.w3.org/2000/svg"><path d="m49 9h12v53h-12z" fill="#cfd8dd"/><path d="m3 9h12v53h-12z" fill="#cfd8dd"/><path d="m50.53 60.288c.179-.862 2.391-1.341 2.965-.522.363-.831 1.802-.666 2.023.154.059-.904 1.938-1.081 2.391-.394.759-1.091 2.593-.28 2.388.571 1.997.084 1.685 1.903 1.685 1.903h-13.961c-.209-1.607 1.255-2.72 2.509-1.712z" fill="#7ab51d"/><path d="m51.307 60.909c.521-1.431 2.644-2.297 3.933-.584.609-.396 1.625-.341 1.937.101.398-.465 1.374-.663 1.854-.127.997-.608 1.914-.097 1.914-.097s-1.339-.191-1.967.741c-.397-.741-1.612-.503-1.679.253-.355-.771-1.44-.915-2.44-.266-.05-.741-1.82-2.062-3.552-.021z" fill="#92c932"/><path d="m13.47 60.288c-.179-.862-2.39-1.341-2.965-.522-.362-.831-1.801-.666-2.023.154-.059-.904-1.938-1.081-2.39-.394-.76-1.091-2.594-.28-2.389.571-1.997.084-1.685 1.903-1.685 1.903h13.962c.208-1.607-1.256-2.72-2.51-1.712z" fill="#7ab51d"/><path d="m12.693 60.909c-.521-1.431-2.644-2.297-3.933-.584-.609-.396-1.625-.341-1.937.101-.398-.465-1.374-.663-1.854-.127-.997-.608-1.914-.097-1.914-.097s1.339-.191 1.967.741c.397-.741 1.613-.503 1.679.253.355-.771 1.44-.915 2.44-.266.05-.741 1.82-2.062 3.552-.021z" fill="#92c932"/><path d="m15 8h34v54h-34z" fill="#e6ebef"/><path d="m9 2h46v1h-46z" fill="#6e8189"/><path d="m9 3h46v4h-46z" fill="#b3c2c6"/><path d="m43.5 50h-23c-.275 0-.5.225-.5.5v11.5h24v-11.5c0-.275-.225-.5-.5-.5z" fill="#99a8ae"/><g fill="#302c3b"><path d="m21 53.5h4.5v8.5h-4.5z"/><path d="m26 51h12v2h-12z"/><path d="m26 53.5h5.75v8.5h-5.75z"/><path d="m21 51h4.5v2h-4.5z"/><path d="m38.5 51h4.5v2h-4.5z"/><path d="m38.5 53.5h4.5v8.5h-4.5z"/><path d="m32.25 53.5h5.75v8.5h-5.75z"/></g><path d="m33.32 56.75h.18v1.5h-.18z" fill="#fff"/><path d="m30.5 56.75h.178v1.5h-.178z" fill="#fff"/><path d="m49 8h12.5v1h-12.5z" fill="#b3c2c6"/><path d="m49 6h13v2h-13z" fill="#4e5e67"/><path d="m2.5 8h12.5v1h-12.5z" fill="#b3c2c6"/><path d="m2 6h13v2h-13z" fill="#4e5e67"/><path d="m14.5 7h35v1h-35z" fill="#b3c2c6"/><path d="m49 44h13v3h-13z" fill="#4e5e67"/><path d="m49 47h12.5v1h-12.5z" fill="#b3c2c6"/><path d="m2 44h13v3h-13z" fill="#4e5e67"/><path d="m2.5 47h12.5v1h-12.5z" fill="#b3c2c6"/><path d="m14 43h36v3h-36z" fill="#6e8189"/><path d="m14.5 46h35v1h-35z" fill="#b3c2c6"/><path d="m14 4h36v3h-36z" fill="#6e8189"/><path d="m17.5 10h29v7h-29z" fill="#99a8ae"/><path d="m18 10.5h28v6h-28z" fill="#302c3b"/><path d="m38.875 10h.5v7h-.5z" fill="#99a8ae"/><path d="m31.75 10h.5v7h-.5z" fill="#99a8ae"/><path d="m24.625 10h.5v7h-.5z" fill="#99a8ae"/><path d="m17.5 12.25h29v.5h-29z" fill="#99a8ae"/><path d="m17.5 21.5h29v7h-29z" fill="#99a8ae"/><path d="m18 22h28v6h-28z" fill="#302c3b"/><path d="m38.875 21.5h.5v7h-.5z" fill="#99a8ae"/><path d="m31.75 21.5h.5v7h-.5z" fill="#99a8ae"/><path d="m24.625 21.5h.5v7h-.5z" fill="#99a8ae"/><path d="m17.5 23.75h29v.5h-29z" fill="#99a8ae"/><path d="m51.188 11h7.625v7h-7.625z" fill="#99a8ae"/><path d="m51.688 11.5h6.625v6h-6.625z" fill="#302c3b"/><path d="m51.188 13.25h7.625v.5h-7.625z" fill="#99a8ae"/><path d="m51.188 22.5h7.625v7h-7.625z" fill="#99a8ae"/><path d="m51.688 23h6.625v6h-6.625z" fill="#302c3b"/><path d="m51.188 24.75h7.625v.5h-7.625z" fill="#99a8ae"/><path d="m51.188 50h7.625v7h-7.625z" fill="#99a8ae"/><path d="m51.688 50.5h6.625v6h-6.625z" fill="#302c3b"/><path d="m51.188 52.25h7.625v.5h-7.625z" fill="#99a8ae"/><path d="m5.188 11h7.625v7h-7.625z" fill="#99a8ae"/><path d="m5.688 11.5h6.625v6h-6.625z" fill="#302c3b"/><path d="m5.188 13.25h7.625v.5h-7.625z" fill="#99a8ae"/><path d="m5.188 22.5h7.625v7h-7.625z" fill="#99a8ae"/><path d="m5.688 23h6.625v6h-6.625z" fill="#302c3b"/><path d="m5.188 24.75h7.625v.5h-7.625z" fill="#99a8ae"/><path d="m17.5 33h29v7h-29z" fill="#99a8ae"/><path d="m18 33.5h28v6h-28z" fill="#302c3b"/><path d="m38.875 33h.5v7h-.5z" fill="#99a8ae"/><path d="m31.75 33h.5v7h-.5z" fill="#99a8ae"/><path d="m24.625 33h.5v7h-.5z" fill="#99a8ae"/><path d="m17.5 35.25h29v.5h-29z" fill="#99a8ae"/><path d="m51.188 34h7.625v7h-7.625z" fill="#99a8ae"/><path d="m51.688 34.5h6.625v6h-6.625z" fill="#302c3b"/><path d="m51.188 36.25h7.625v.5h-7.625z" fill="#99a8ae"/><path d="m5.188 34h7.625v7h-7.625z" fill="#99a8ae"/><path d="m5.688 34.5h6.625v6h-6.625z" fill="#302c3b"/><path d="m5.188 36.25h7.625v.5h-7.625z" fill="#99a8ae"/><path d="m5.188 50h7.625v7h-7.625z" fill="#99a8ae"/><path d="m5.688 50.5h6.625v6h-6.625z" fill="#302c3b"/><path d="m5.188 52.25h7.625v.5h-7.625z" fill="#99a8ae"/></svg>