<svg enable-background="new 0 0 64 64" height="64" viewBox="0 0 64 64" width="64" xmlns="http://www.w3.org/2000/svg" xmlns:xlink="http://www.w3.org/1999/xlink"><linearGradient id="a"><stop offset="0" stop-color="#f3f8fc"/><stop offset="1" stop-color="#c6cfd4"/></linearGradient><linearGradient id="b" gradientTransform="matrix(1 0 0 -1 194 170)" gradientUnits="userSpaceOnUse" x1="-142.001" x2="-138.001" xlink:href="#a" y1="123.75" y2="123.75"/><linearGradient id="c" gradientTransform="matrix(1 0 0 -1 194 170)" gradientUnits="userSpaceOnUse" x1="-186.001" x2="-182.001" xlink:href="#a" y1="123.75" y2="123.75"/><path d="m5 35h54v22h-54z" fill="#e6ebef"/><path d="m4 57h56v5h-56z" fill="#ccd3d9"/><path d="m18.5 61h27v1h-27z" fill="#dadfe3"/><path d="m20 60h24v1h-24z" fill="#e6ebef"/><path d="m21.5 59h21v1h-21z" fill="#dadfe3"/><path d="m23 58h18v1h-18z" fill="#e6ebef"/><path d="m24.5 57h15v1h-15z" fill="#dadfe3"/><path d="m51.999 35h4v2h-4z" fill="#cfd8dd"/><path d="m51.999 37.5h4v17.5h-4z" fill="url(#b)"/><path d="m51.5 55h5v.5h-5z" fill="#b3c2c6"/><path d="m51.499 56h5v1h-5z" fill="#b3c2c6"/><path d="m51.999 55.5h4v.5h-4z" fill="#cfd8dd"/><path d="m51.5 37h5v.5h-5z" fill="#b3c2c6"/><path d="m51.5 35h5v1h-5z" fill="#b3c2c6"/><path d="m55.499 37.5h.5v17.5h-.5z" fill="#b3c2c6"/><path d="m54.499 37.5h.5v17.5h-.5z" fill="#c3ccd1"/><path d="m52.75 37.5h.5v17.5h-.5z" fill="#f2f5f7"/><path d="m51.5 36c-.667 0-.667-1 0-1 .666 0 .666 1 0 1z" fill="#99a8ae"/><path d="m56.5 36c-.667 0-.667-1 0-1 .666 0 .666 1 0 1z" fill="#99a8ae"/><path d="m7.999 35h4v2h-4z" fill="#cfd8dd"/><path d="m7.999 37.5h4v17.5h-4z" fill="url(#c)"/><path d="m7.5 55h5v.5h-5z" fill="#b3c2c6"/><path d="m7.499 56h5v1h-5z" fill="#b3c2c6"/><path d="m7.999 55.5h4v.5h-4z" fill="#cfd8dd"/><path d="m7.5 37h5v.5h-5z" fill="#b3c2c6"/><path d="m7.5 35h5v1h-5z" fill="#b3c2c6"/><path d="m11.499 37.5h.5v17.5h-.5z" fill="#b3c2c6"/><path d="m10.499 37.5h.5v17.5h-.5z" fill="#c3ccd1"/><path d="m8.75 37.5h.5v17.5h-.5z" fill="#f2f5f7"/><path d="m7.5 36c-.667 0-.667-1 0-1 .666 0 .666 1 0 1z" fill="#99a8ae"/><path d="m12.5 36c-.667 0-.667-1 0-1 .666 0 .666 1 0 1z" fill="#99a8ae"/><path d="m15.77 59.123c-.271-1.986-2.87-2.251-3.561-.877-.435-1.396-2.598-1.545-2.865-.164-.07-1.521-1.936-1.313-2.479-.158-.91-1.831-3.067-.549-2.822.879-2.397.14-2.022 3.197-2.022 3.197h16.763c.967-1.889-1.544-3.83-3.014-2.877z" fill="#7ab51d"/><path d="m14.837 59.862c-.626-1.921-3.174-3.085-4.721-.786-.731-.531-1.951-.455-2.325.136-.479-.624-1.648-.89-2.227-.169-1.197-.817-2.298-.061-2.298-.061s1.607-.327 2.36.924c.479-.994 1.938-.675 2.016.34.428-1.034 1.73-1.227 2.93-.356.061-.994 2.185-2.769 4.265-.028z" fill="#92c932"/><path d="m48.229 59.123c.271-1.986 2.869-2.251 3.56-.877.436-1.396 2.599-1.545 2.865-.164.07-1.521 1.936-1.312 2.479-.158.911-1.831 3.068-.549 2.822.879 2.398.14 2.024 3.197 2.024 3.197h-16.763c-.968-1.889 1.544-3.831 3.013-2.877z" fill="#7ab51d"/><path d="m49.162 59.862c.626-1.921 3.174-3.085 4.721-.786.731-.531 1.95-.455 2.325.136.478-.624 1.648-.89 2.226-.169 1.198-.817 2.299-.061 2.299-.061s-1.608-.327-2.361.924c-.478-.993-1.938-.675-2.016.34-.426-1.034-1.729-1.228-2.93-.355-.061-.995-2.184-2.769-4.264-.029z" fill="#92c932"/><path d="m42.5 41h6v10h-6z" fill="#99a8ae"/><path d="m43 41.5h5v9h-5z" fill="#302c3b"/><path d="m42.75 45.75h5.5v.5h-5.5z" fill="#99a8ae"/><path d="m45.25 41.25h.5v9.5h-.5z" fill="#99a8ae"/><path d="m15.5 41h6v10h-6z" fill="#99a8ae"/><path d="m16 41.5h5v9h-5z" fill="#302c3b"/><path d="m15.75 45.75h5.5v.5h-5.5z" fill="#99a8ae"/><path d="m18.25 41.25h.5v9.5h-.5z" fill="#99a8ae"/><path d="m32.001 9-30.001 20h60z" fill="#cfd8dd"/><path d="m9.5 29h45l-22.499-15z" fill="#e6ebef"/><path d="m32.001 12 25.499 17h1.5l-26.999-18-27.001 18h1.5z" fill="#e6ebef"/><path d="m2.5 29h59v3h-59z" fill="#cfd8dd"/><path d="m2 32h60v1h-60z" fill="#e6ebef"/><path d="m2 29h60v1h-60z" fill="#e6ebef"/><path d="m3 33h58v2h-58z" fill="#cfd8dd"/><path d="m26.135 26.126c0 1.159-.865 2.092-2.031 2.092h-2.911-.172c-.126 0-.195-.069-.195-.195v-6.045c0-.126.069-.195.195-.195h.654 1.752c1.041 0 1.742.72 1.742 1.627 0 .285-.083.557-.224.789.72.33 1.19 1.062 1.19 1.927zm-4.46-3.543v1.429h2.427c.139-.155.217-.362.217-.58 0-.475-.326-.85-.892-.85h-1.752zm3.609 3.521c0-.731-.481-1.315-1.288-1.315h-2.322v2.629h2.313c.81 0 1.297-.591 1.297-1.314z" fill="#6e8189"/><path d="m31.804 28.218h-.504c-.106 0-.187-.055-.224-.159l-.459-1.279h-2.868l-.46 1.279c-.036.104-.115.159-.223.159h-.503c-.145 0-.207-.085-.159-.223l2.239-6.054c.037-.102.117-.159.227-.159h.629c.107 0 .188.058.226.159l2.238 6.054c.047.138-.015.223-.159.223zm-1.474-2.239-1.146-3.195-1.147 3.195z" fill="#6e8189"/><path d="m36.615 21.782h.459c.127 0 .195.069.195.195v6.045c0 .126-.068.195-.195.195h-.338c-.105 0-.187-.039-.236-.126l-2.839-4.631v4.562c0 .126-.069.195-.196.195h-.459c-.126 0-.195-.069-.195-.195v-6.045c0-.126.069-.195.195-.195h.338c.105 0 .187.04.236.126l2.839 4.631v-4.562c0-.126.069-.195.196-.195z" fill="#6e8189"/><path d="m43.012 28.218h-.586c-.1 0-.177-.026-.241-.106l-2.683-2.986v2.897c0 .126-.068.195-.195.195h-.459c-.127 0-.195-.069-.195-.195v-6.045c0-.126.068-.195.195-.195h.459c.127 0 .195.069.195.195v2.719l2.591-2.808c.066-.074.136-.106.233-.106h.587c.164 0 .224.12.113.242l-2.627 2.889 2.719 3.063c.108.128.057.241-.106.241z" fill="#6e8189"/><path d="m32 36c-3.867 0-7 3.135-7 7v14h14v-14c0-3.865-3.133-7-7-7z" fill="#99a8ae"/><path d="m32 37c-3.314 0-6 2.687-6 6v14h12v-14c0-3.313-2.686-6-6-6z" fill="#9e6c49"/><g fill="#785647"><path d="m37 44.5v5.5h-3.75v-5.5zm.5-.5h-4.75v6.5h4.75z"/><path d="m37 51.5v4.5h-3.75v-4.5zm.5-.5h-4.75v5.5h4.75z"/><path d="m30.75 44.5v5.5h-3.75v-5.5zm.5-.5h-4.75v6.5h4.75z"/><path d="m30.75 51.5v4.5h-3.75v-4.5zm.5-.5h-4.75v5.5h4.75z"/><path d="m31.75 43h.5v14h-.5z"/><path d="m26 43h12v.5h-12z"/></g><path d="m31.625 42.094v-4.574c-1.236.083-2.357.572-3.236 1.338z" fill="#302c3b"/><path d="m33.03 42.5h4.444c-.107-1.188-.592-2.262-1.333-3.111z" fill="#302c3b"/><path d="m32.375 37.52v4.575l3.236-3.236c-.878-.767-2-1.256-3.236-1.339z" fill="#302c3b"/><path d="m30.97 42.5-3.111-3.111c-.741.849-1.226 1.924-1.333 3.111z" fill="#302c3b"/><path d="m32.375 52.117v-2.734c0-.177.25-.177.25 0v2.734c0 .177-.25.177-.25 0z" fill="#b3c2c6"/><path d="m32.383 49.45h.234c.177 0 .177.25 0 .25h-.234c-.177 0-.177-.25 0-.25z" fill="#cfdbde"/><path d="m32.383 51.8h.234c.177 0 .177.25 0 .25h-.234c-.177 0-.177-.25 0-.25z" fill="#cfdbde"/><path d="m31.375 52.117v-2.734c0-.177.25-.177.25 0v2.734c0 .177-.25.177-.25 0z" fill="#b3c2c6"/><path d="m31.383 49.45h.234c.177 0 .177.25 0 .25h-.234c-.177 0-.177-.25 0-.25z" fill="#cfdbde"/><path d="m31.383 51.8h.234c.177 0 .177.25 0 .25h-.234c-.177 0-.177-.25 0-.25z" fill="#cfdbde"/></svg>