<svg enable-background="new 0 0 64 64" height="64" viewBox="0 0 64 64" width="64" xmlns="http://www.w3.org/2000/svg" xmlns:xlink="http://www.w3.org/1999/xlink"><linearGradient id="a" gradientUnits="userSpaceOnUse" x1="32.0005" x2="32.0005" y1="62" y2="2.0005"><stop offset="0" stop-color="#1a1a1a"/><stop offset=".102" stop-color="#393939" stop-opacity=".949"/><stop offset=".3475" stop-color="#7f7f7f" stop-opacity=".8262"/><stop offset=".5688" stop-color="#b6b6b6" stop-opacity=".7156"/><stop offset=".7582" stop-color="#dedede" stop-opacity=".6209"/><stop offset=".9081" stop-color="#f6f6f6" stop-opacity=".5459"/><stop offset="1" stop-color="#fff" stop-opacity=".5"/></linearGradient><g fill="#006dae"><path d="m53.127 10.701c-11.695-11.601-30.561-11.601-42.256 0l21.129 16.253z"/><path d="m10.871 53.302c11.695 11.598 30.561 11.598 42.256 0l-21.127-16.254z"/><path d="m58.01 46.964c5.32-9.232 5.32-20.689 0-29.924l-19.449 14.961z"/><path d="m5.988 17.039c-5.318 9.233-5.318 20.69 0 29.923l19.449-14.961z"/></g><path d="m53.127 10.701-21.127 16.252-21.129-16.252c-1.895 1.88-3.535 4.014-4.879 6.342l19.445 14.958-19.443 14.959c1.344 2.328 2.982 4.463 4.879 6.342l21.127-16.254 21.125 16.254c1.896-1.879 3.537-4.014 4.881-6.342l-19.445-14.959 19.445-14.959c-1.342-2.327-2.983-4.461-4.879-6.341z" fill="#f5f5f5"/><circle cx="32" cy="31.999" fill="url(#a)" opacity=".1" r="30"/></svg>