<svg enable-background="new 0 0 64 64" height="64" viewBox="0 0 64 64" width="64" xmlns="http://www.w3.org/2000/svg" xmlns:xlink="http://www.w3.org/1999/xlink"><linearGradient id="a" gradientUnits="userSpaceOnUse" x1="32.0005" x2="32.0005" y1="62" y2="2.0005"><stop offset="0" stop-color="#1a1a1a"/><stop offset=".102" stop-color="#393939" stop-opacity=".949"/><stop offset=".3475" stop-color="#7f7f7f" stop-opacity=".8262"/><stop offset=".5688" stop-color="#b6b6b6" stop-opacity=".7156"/><stop offset=".7582" stop-color="#dedede" stop-opacity=".6209"/><stop offset=".9081" stop-color="#f6f6f6" stop-opacity=".5459"/><stop offset="1" stop-color="#fff" stop-opacity=".5"/></linearGradient><path d="m32 2c-16.568 0-30 13.432-30 30h60c0-16.568-13.432-30-30-30z" fill="#f5f5f5"/><path d="m32 62c16.568 0 30-13.432 30-30h-60c0 16.568 13.432 30 30 30z" fill="#529320"/><path d="m55.371 19.09c-1.646 2.107-3.508 4.018-5.402 5.883.953.229 1.762-.051 2.703-.051-.258.553-.516 1.104-.773 1.657-.693-.421-1.484-.674-2.289-.701-1.199-.038-2.699.466-3.107 1.772-.986 3.166 3.189 2.673 4.414 2.658-.52 1.291-2.422 1.363-3.719 1.306-2.191-.099-4.242-.64-6.477-.621.473-1.505 2.689-2.168 4.016-1.775-2.371-2.753.801-5.899 3.348-6.721-3.605-1.231.559-4.513 2.02-5.614-1.975.855-3.947 1.706-5.947 2.485-2.641 1.028-4.176-.517-2.525-3.369-2.566 1.47-5.074 3.056-7.451 4.837-2.617 1.959-4.178 3.061-4.338 6.432.07 1.164-1.945 1.689-2.822 2.166-.16.088-1.201.83-1.383.754.033-.006-1.002-2.203.99-1.461.109-1.062-2.254-1.266-1.43-2.474.463-.681 1.445.503 1.885.503.152 0-.609-1.486-1.006-1.597-.531-.194-.961-1.322-.168-1.509.5-.118.924.418 1.404.444-.043-1.087-1.473-1.378-1.504-1.934-.021-.575 1.152-.44 1.367-.414-.297-.897-1.402-.993-1.881-1.853-.557-1.066.93-1.688 1.615-2.146-.797-.1-.381-.966-.285-1.673-1.096 1.551-4.316 1.69-5.939 1.606-.957-.054-2.674-.317-2.904 1.069-1.859.194-3.797.146-5.078 1.813 2.334-.113 2.988-.067 4.545 1.182.152-.426.979-.758 1.256-.551-.168-1.372 1.611-.355 1.921.316-.22-.229-3.017.4-3.366.426-1.58.121-3.195.17-4.774.008.387-.198.772-.396 1.159-.594-1.467-.309-2.922-.654-4.127-1.634.293 1.138 2.142 4.144 3.519 4.118 0-.24-.353-.72-.494-.927 1.438.065 2.976.12 4.343.209.043.366.406 2.409.784 2.647-.096-.197.546-1.412.64-1.674.108.266.235.52.381.766.109-.586 1.539-2.396 1.957-1.396.379.91-.545.572-.656 1.643-.114 1.1-1.164 1.977-1.404 3.111-.283 1.33-1.514 3.268-1.18 4.777.207.93.754.617.234 1.43-.447.697-.603.596-1.332.221-.939-.483-1.558-1.057-2.369-1.82-.871-.822-.387-2.239-1.264-3.213-.136-.854 2.695-2.815.896-3.883.026.896-.468 1.304-1.065 1.772-.371-.517.477-1.233-.059-1.952-.505-.525-.637-1.183-1.539-1.16 1.393.846.152 2.902.551 4.237-.765-1.188-.904-3.198-2.796-2.858 1.214.338.425 1.256.933 1.93-.031.468.127.849.474 1.141.849.716.479 1.242.356 2.403-.107 1.021-1.342 3.7-2.221 3.829 1.587.755 2.528-1.541 2.969-2.739.688 3.808 5.18 5.292 5.154 9.399.809-.78.686-2.168 1.791-2.405.749-.158 1.533-.201 2.283-.166-.697 1.52-1.021 4.146-2.715 5.233-1.188.762-5.082-1.647-5.336.039.951-.818.764.363 1.182.529-.6.689-1.752.031-2.035 1.24.564-.48 1.354-.172 1.938.041.063.719-.883.742-1.045 1.756.516-.566.813-.535 1.369-.652.728 1.104 2.578-.787 3.531-.555.697.17.936-.377 1.602-.385.82-.014 1.195.781 2.051.859.806.075 1.188-.832 1.969.002.014-1.498-2.333-1.197-3.138-1.677.614-2.422 2.567-3.67 3.974-5.563-.048.947.596 1.813.914 2.647.188-.315.625-1.922.785-2.002.047.106 1.256-.924 1.16-.799 1.082.685 1.885-.83 2.699-1.074-.303.298 1.68-.1 1.387-.006-1.063 2.24 3.412 2.856 4.279 3.724-.004.002-.018.002-.023.002h.02c-.336.166-1.557 1.291-1.631 1.635-1.227.021-1.955.635-3.113-.035-.709-.406-3.07-2.42-3.434-.301.658-.496 2.951.535 3.273 1.461-.926.289-4.139-1.547-4.244.725.99-.938 1.244-.049 2.02.416-.617.17-.857.535-.703 1.221.285-.483 2.947-1.059 3.559-1.121.707-.086 2.629-.358 3.215.078.391.217.779.437 1.168.65.918.301 1.229-.73 2.066.236.012-1.482-2.371-1.254-3.199-1.656 1.52-.406 2.932-1.174 4.055-2.314.541-.551 1.01-1.176 1.408-1.842.68.25 1.363.514 2.053.729.051-2.063-6.58-2.549-3.527-5.039 1.008-.821.699-.041 1.781-.252.533 1.558 3.215.515 3.793 1.328 1.225 1.73 2.447 3.461 3.672 5.191.369.521-.631 1.111-1.027 1.244-1.01.338-1.908-.484-2.568-1.154-.475-.48-2.195-.807-2.311.436.605-.61 2.756.878 3.461 1.269-.959-.455-4.012-1.223-3.938.884.43-.73 3.02-.459 3.709-.22-.959.291-2.283.672-2.512 1.892.621-.412 1.465-.271 1.951-.603 1.275-.881 1.52-.367 2.934-.392.775-.014 1.314-.602 2.156-.405.586.135.881.563 1.406.748.502-.347 1.113-.324 1.592.276-.307-1.604-2.01-1.135-2.645-2.313-.352-.652.277-2.023.408-2.727.27-1.504.285-2.976-.25-4.422.781.352 1.389 1.45 2.379 1.063 0-1.604-4.682-3.459-5.768-4.07 2.34-.123 4.963-1.098 6.521-2.983.684-.826 1.107-1.87.992-2.971-.18-1.701-.045-2.498.494-4.232-.006.02-.004.018.004-.002.406.837 1.188 1.509 2.035 1.824-1.074-2.103-.951-5.4-.637-7.676z" fill="#e81c27"/><circle cx="32" cy="32" fill="url(#a)" opacity=".1" r="30"/></svg>