<svg enable-background="new 0 0 64 64" height="64" viewBox="0 0 64 64" width="64" xmlns="http://www.w3.org/2000/svg" xmlns:xlink="http://www.w3.org/1999/xlink"><linearGradient id="a" gradientUnits="userSpaceOnUse" x1="32.0005" x2="32.0005" y1="62" y2="2.0005"><stop offset="0" stop-color="#1a1a1a"/><stop offset=".102" stop-color="#393939" stop-opacity=".949"/><stop offset=".3475" stop-color="#7f7f7f" stop-opacity=".8262"/><stop offset=".5688" stop-color="#b6b6b6" stop-opacity=".7156"/><stop offset=".7582" stop-color="#dedede" stop-opacity=".6209"/><stop offset=".9081" stop-color="#f6f6f6" stop-opacity=".5459"/><stop offset="1" stop-color="#fff" stop-opacity=".5"/></linearGradient><path d="m37.969 2.602h-11.936c-11.769 2.377-21.045 11.634-23.431 23.399v11.997c2.387 11.766 11.662 21.023 23.432 23.4h11.966c11.764-2.389 21.023-11.662 23.4-23.432v-11.965c-2.388-11.765-11.662-21.022-23.431-23.399z" fill="#f5f5f5"/><path d="m38 26v-23.398c-1.937-.395-3.945-.602-6-.602s-4.061.207-6 .602v23.398h-23.398c-.394 1.939-.602 3.945-.602 6s.208 4.061.602 6h23.398v23.398c1.939.395 3.945.602 6 .602s4.063-.207 6-.602v-23.398h23.4c.393-1.939.6-3.945.6-6s-.207-4.061-.6-6z" fill="#e81c27"/><circle cx="32" cy="32" fill="url(#a)" opacity=".1" r="30"/></svg>