<svg enable-background="new 0 0 64 64" height="64" viewBox="0 0 64 64" width="64" xmlns="http://www.w3.org/2000/svg"><path d="m62 11.228c-19.334-8.227-38.667 8.226-58 0 0-1.959 0-4.896 0-6.853 19.333 8.225 38.666-8.227 58 0z" fill="#e81c27"/><path d="m62 17.104c-19.334-8.225-38.667 8.227-58 0 0-1.959 0-4.896 0-6.854 19.333 8.225 38.666-8.228 58 0z" fill="#ea8800"/><path d="m62 22.979c-19.334-8.225-38.667 8.227-58 0 0-1.958 0-4.896 0-6.854 19.333 8.226 38.666-8.228 58 0z" fill="#ffe12c"/><path d="m62 28.854c-19.334-8.226-38.667 8.226-58 0 0-1.96 0-4.898 0-6.854 19.333 8.225 38.666-8.227 58 0z" fill="#7ab51d"/><path d="m62 34.729c-19.334-8.226-38.667 8.226-58 0 0-1.957 0-4.896 0-6.854 19.333 8.226 38.666-8.227 58 0z" fill="#006dae"/><path d="m62 39.625c-19.334-8.227-38.667 8.227-58 0 0-1.959 0-3.916 0-5.875 19.333 8.226 38.666-8.226 58 0z" fill="#7d0c7a"/><path d="m2 4.117v57.881l4 .002v-57.879c-.001-2.826-4.001-2.828-4-.004z" fill="#99a8ae"/><path d="m2.995 2.271c.566.323 1.001.909 1.001 1.823l.007 57.879 1.997.002v-57.881c-.001-1.91-1.821-2.498-3.005-1.823z" fill="#6e8189"/></svg>