<svg enable-background="new 0 0 64 64" height="64" viewBox="0 0 64 64" width="64" xmlns="http://www.w3.org/2000/svg" xmlns:xlink="http://www.w3.org/1999/xlink"><linearGradient id="a" gradientUnits="userSpaceOnUse" x1="32" x2="38.333" y1="4.375" y2="4.375"><stop offset="0" stop-color="#c40000"/><stop offset=".0315" stop-color="#c70001"/><stop offset=".4274" stop-color="#e50008"/><stop offset=".7642" stop-color="#f8000c"/><stop offset="1" stop-color="#ff000e"/></linearGradient><linearGradient id="b"><stop offset=".2606" stop-color="#e8e3d3"/><stop offset=".4367" stop-color="#e3dece"/><stop offset=".6422" stop-color="#d6d0c1"/><stop offset=".8618" stop-color="#bfb9aa"/><stop offset="1" stop-color="#ada698"/></linearGradient><linearGradient id="c" gradientUnits="userSpaceOnUse" x1="24" x2="40" xlink:href="#b" y1="31" y2="31"/><linearGradient id="d" gradientUnits="userSpaceOnUse" x1="22" x2="42" y1="14" y2="14"><stop offset="0" stop-color="#009af7"/><stop offset=".0787" stop-color="#0095ef"/><stop offset=".4713" stop-color="#007fcc"/><stop offset=".7924" stop-color="#0072b6"/><stop offset="1" stop-color="#006dae"/></linearGradient><linearGradient id="e"><stop offset="0" stop-color="#e8e3d3"/><stop offset=".2381" stop-color="#e3dece"/><stop offset=".5162" stop-color="#d6d0c1"/><stop offset=".8131" stop-color="#bfb9aa"/><stop offset="1" stop-color="#ada698"/></linearGradient><linearGradient id="f" gradientUnits="userSpaceOnUse" x1="2" x2="18" xlink:href="#e" y1="48.125" y2="48.125"/><linearGradient id="g" gradientUnits="userSpaceOnUse" x1="3" x2="17" xlink:href="#b" y1="30.2344" y2="30.2344"/><linearGradient id="h" gradientUnits="userSpaceOnUse" x1="46" x2="62" xlink:href="#e" y1="48.125" y2="48.125"/><linearGradient id="i" gradientUnits="userSpaceOnUse" x1="47" x2="61" xlink:href="#b" y1="30.2344" y2="30.2344"/><path d="m38.333 6.399c-2.11-1.214-4.223 1.215-6.333 0 0-1.349 0-2.7 0-4.048 2.11 1.213 4.223-1.215 6.333 0-.527.371-1.056.97-1.583 1.682.527.638 1.056 1.387 1.583 2.366z" fill="url(#a)"/><path d="m32.5 9h-1v-6.411c0-.785 1-.785 1 0z" fill="#302c3b"/><path d="m24 20h16v22h-16z" fill="url(#c)"/><path d="m30.125 28.839v3.161h3.75v-3.161c0-2.452-3.75-2.452-3.75 0z" fill="#302c3b"/><path d="m32 8-10 12h20z" fill="url(#d)"/><path d="m47 38v-2h-2v2h-2v-2h-2v2h-2v-2h-2v2h-2v-2h-2v2h-2v-2h-2v2h-2v-2h-2v2h-2v-2h-2v2h-2v-2h-2v2h-3v22h36v-22z" fill="#c1bcaf"/><path d="m5 34.25h10l3 27c0 1-16 1-16 0z" fill="url(#f)"/><path d="m4 25h1v3h-1z" fill="#ada698"/><path d="m15 25h1v3h-1z" fill="#ada698"/><path d="m8 25h1v3h-1z" fill="#ada698"/><path d="m11 25h1v3h-1z" fill="#ada698"/><path d="m15.5 25v2h-2v-2h-2v2h-3v-2h-2v2h-2v-2h-1.5v2l1 8c0 .625 12 .625 12 0l1-8v-2z" fill="url(#g)"/><path d="m49 34.25h10l3 27c0 1-16 1-16 0z" fill="url(#h)"/><path d="m48 25h1v3h-1z" fill="#ada698"/><path d="m59 25h1v3h-1z" fill="#ada698"/><path d="m52 25h1v3h-1z" fill="#ada698"/><path d="m55 25h1v3h-1z" fill="#ada698"/><path d="m59.5 25v2h-2v-2h-2v2h-3v-2h-2v2h-2v-2h-1.5v2l1 8c0 .625 12 .625 12 0l1-8v-2z" fill="url(#i)"/><path d="m27 52h10v8h-10z" fill="#785647"/><path d="m32.5 51v9.523l.5.477.5-.477v-9.523z" fill="#45332c"/><path d="m34.5 51v9.523l.5.477.5-.477v-9.523z" fill="#45332c"/><path d="m30.5 51v9.523l.5.477.5-.477v-9.523z" fill="#45332c"/><path d="m28.5 51v9.523l.5.477.5-.477v-9.523z" fill="#45332c"/><path d="m27 59h10v1h-10z" fill="#594640"/><path d="m27 57h10v1h-10z" fill="#594640"/><path d="m27 55h10v1h-10z" fill="#594640"/><path d="m27 53h10v1h-10z" fill="#594640"/><path d="m8.5 46.471v2.529h3v-2.529c0-1.961-3-1.961-3 0z" fill="#302c3b"/><path d="m30.125 44.839v3.161h3.75v-3.161c0-2.451-3.75-2.451-3.75 0z" fill="#302c3b"/><path d="m52.5 46.471v2.529h3v-2.529c0-1.961-3-1.961-3 0z" fill="#302c3b"/><path d="m41 61-2-13v-2h-2v2h-2v-2h-2v2h-2v-2h-2v2h-2v-2h-2v2l-2 13h5v-5c0-2 2-4 4-4s4 2 4 4v5z" fill="#e8e3d3"/><path d="m8 49h4v1h-4z" fill="#ada698"/><path d="m52 49h4v1h-4z" fill="#ada698"/><path d="m29.5 32h5v1h-5z" fill="#ada698"/><path d="m12.75 58.156h2v1h-2z" fill="#ada698"/><path d="m26.167 49.844h2v1h-2z" fill="#c1bcaf"/><path d="m36.875 51.5h2v1h-2z" fill="#c1bcaf"/><path d="m33.333 49.5h2v1h-2z" fill="#c1bcaf"/><path d="m38.208 57.656h2v1h-2z" fill="#c1bcaf"/><path d="m24.542 55.219h2v1h-2z" fill="#c1bcaf"/><g fill="#ada698"><path d="m8.25 55.719h2v1h-2z"/><path d="m12.188 53.156h2v1h-2z"/><path d="m12.75 46.5h2v1h-2z"/><path d="m7 42.844h2v1h-2z"/><path d="m6 36.875h2v1h-2z"/><path d="m12.188 31h2v1h-2z"/><path d="m5.656 28.75h2v1h-2z"/><path d="m8.25 32.291h2v1h-2z"/><path d="m49.5 29.521h2v1h-2z"/><path d="m55 31h2v1h-2z"/><path d="m11 38.813h2v1h-2z"/><path d="m19 48.5h2v1h-2z"/><path d="m18 40.5h2v1h-2z"/><path d="m23 42.844h2v1h-2z"/><path d="m43.5 49.344h2v1h-2z"/><path d="m42.156 56.219h2v1h-2z"/><path d="m19.875 56h2v1h-2z"/><path d="m27.667 21.063h2v1h-2z"/><path d="m29.5 24.521h2v1h-2z"/><path d="m24 27h2v1h-2z"/><path d="m25.167 33.291h2v1h-2z"/><path d="m35.541 34h2v1h-2z"/><path d="m35 22.563h2v1h-2z"/><path d="m36.541 28.521h2v1h-2z"/><path d="m40.656 43.344h2v1h-2z"/><path d="m35 41h2v1h-2z"/><path d="m44.781 40.75h2v1h-2z"/><path d="m51.5 53.5h2v1h-2z"/><path d="m48.5 57.5h2v1h-2z"/><path d="m56.5 43.844h2v1h-2z"/><path d="m4.656 51.344h2v1h-2z"/><path d="m56 51.844h2v1h-2z"/><path d="m58.5 58.156h2v1h-2z"/><path d="m50 40.25h2v1h-2z"/><path d="m55.209 37.292h2v1h-2z"/></g></svg>