<svg enable-background="new 0 0 64 64" height="64" viewBox="0 0 64 64" width="64" xmlns="http://www.w3.org/2000/svg" xmlns:xlink="http://www.w3.org/1999/xlink"><linearGradient id="a" gradientUnits="userSpaceOnUse" x1="25.7998" x2="25.7998" y1="62" y2="14.5933"><stop offset="0" stop-color="#f9b700"/><stop offset=".2464" stop-color="#fbbe1b"/><stop offset=".5251" stop-color="#fcc533"/><stop offset=".7835" stop-color="#fdc942"/><stop offset="1" stop-color="#fdca47"/></linearGradient><path d="m40.808 22.8c3.823-2.644 5.847-.435-.25 1.788z" fill="#6e8189"/><path d="m48.99 35.482.605-10.256c.033-.564-.177-1.116-.578-1.516l-8.573-8.538c-.401-.4-.955-.609-1.521-.576l-10.298.604c-.485.028-.943.233-1.287.576l-24.756 24.656c-.775.771-.775 2.025 0 2.798l18.265 18.19c.776.773 2.034.773 2.81 0l24.756-24.654c.343-.344.549-.8.577-1.284zm-10.903-9.67c-1.163-1.159-1.163-3.039 0-4.198 1.164-1.159 3.052-1.159 4.216 0 1.163 1.159 1.163 3.039 0 4.198-1.164 1.159-3.052 1.159-4.216 0z" fill="url(#a)"/><path d="m37.643 21.171c-1.41 1.404-1.408 3.681 0 5.083 1.411 1.404 3.695 1.406 5.104.001 1.41-1.405 1.41-3.68 0-5.084-1.409-1.405-3.693-1.405-5.104 0zm.73.726c1.006-1.002 2.639-1.002 3.646.001 1.005 1.001 1.007 2.628 0 3.63-1.007 1.004-2.64 1.004-3.646.001-1.008-1.003-1.008-2.63 0-3.632z" fill="#785647"/><path d="m39.254 23.462c4.646-12.236 14.467-13.975 21.642-14.459 1.473-.1 1.471 1.819 0 1.948-7.335.641-16.146 2.515-19.752 13.005-.408 1.192-2.143.731-1.89-.494z" fill="#99a8ae"/><path d="m44.924 19.634c5.064-5.042 7.244-10.907 8.085-16.54.218-1.457 2.14-1.461 1.954 0-.717 5.568-3.401 12.701-8.646 17.926z" fill="#6e8189"/></svg>