<svg enable-background="new 0 0 64 64" height="64" viewBox="0 0 64 64" width="64" xmlns="http://www.w3.org/2000/svg" xmlns:xlink="http://www.w3.org/1999/xlink"><radialGradient id="a" cx="32" cy="32" gradientUnits="userSpaceOnUse" r="29.0172"><stop offset="0" stop-color="#fa8003"/><stop offset=".2766" stop-color="#faa103"/><stop offset=".5552" stop-color="#fabb03"/><stop offset=".805" stop-color="#facb03"/><stop offset="1" stop-color="#fad103"/></radialGradient><radialGradient id="b" cx="32.2241" cy="34.4941" gradientTransform="matrix(1 0 0 1.2 0 -6.8988)" gradientUnits="userSpaceOnUse" r="14.2754"><stop offset=".1939" stop-color="#fa9903"/><stop offset=".251" stop-color="#faa303"/><stop offset=".4472" stop-color="#fac103"/><stop offset=".6402" stop-color="#fad703"/><stop offset=".8269" stop-color="#fae403"/><stop offset="1" stop-color="#fae803"/></radialGradient><path d="m46.534 31.187-2.775-8.33s8.541-12.328 5.326-14.605c-3.213-2.277-12.594 9.455-12.594 9.455h-8.983s-9.379-11.732-12.594-9.455 5.328 14.605 5.328 14.605l-2.775 8.33s-14.338 5.078-13.111 8.764c1.229 3.686 15.887-.43 15.887-.43l7.266 5.15s.518 14.872 4.492 14.872c3.973 0 4.491-14.872 4.491-14.872l7.268-5.15s14.658 4.115 15.885.43c1.227-3.686-13.111-8.764-13.111-8.764z" fill="#ea8800"/><path d="m58.226 24.157c-.814-2.445 2.6-10.955-7.188-7.852-4.188 1.327-8.148 3.298-11.182 5.514 1.223-3.611 1.947-7.852 1.947-11.913 0-10.039-7.24-4.242-9.875-4.242s-9.875-5.797-9.875 4.242c0 4.31.817 8.821 2.18 12.567-3.045-2.455-7.043-4.638-11.271-5.978-9.787-3.104-6.373 5.406-7.188 7.85-.813 2.445-8.703 7.371 1.084 10.473 4.146 1.313 8.558 1.957 12.401 1.888-3.114 2.152-6.251 5.18-8.786 8.583-6.049 8.121 3.301 7.582 5.434 9.094 2.133 1.51 4.496 10.351 10.545 2.23 2.782-3.735 4.763-8.099 5.676-12.032.927 3.902 2.898 8.216 5.651 11.913 6.049 8.12 8.414-.719 10.543-2.229 2.133-1.514 11.484-.973 5.436-9.096-2.735-3.673-6.172-6.909-9.525-9.078 3.959.357 8.581-.095 12.91-1.467 9.786-3.098 1.897-8.023 1.083-10.467z" fill="url(#a)"/><path d="m41.451 31.53c9.63-5.211-4.995-17.704-8.61-5.316-2.114-11.305-18.041-3.25-8.916 5.208-12.355.617-4.209 15.834 2.851 8.623-4.113 11.127 13.567 11.002 9.677.01 8.472 8.405 15.915-7.782 4.998-8.525z" fill="url(#b)"/><path d="m37 33.752c0 2.76-2.237 4.998-5 4.998-2.762 0-5.001-2.238-5.001-4.998 0-2.763 2.239-5.001 5.001-5.001 2.763-.001 5 2.238 5 5.001z" fill="#fff8d6"/></svg>