<svg enable-background="new 0 0 64 64" height="64" viewBox="0 0 64 64" width="64" xmlns="http://www.w3.org/2000/svg" xmlns:xlink="http://www.w3.org/1999/xlink"><radialGradient id="a" cx="30.6621" cy="36.3564" gradientUnits="userSpaceOnUse" r="37.118"><stop offset="0" stop-color="#4ecee6"/><stop offset=".2737" stop-color="#4ccbe4"/><stop offset=".4641" stop-color="#44c2df"/><stop offset=".6291" stop-color="#38b3d6"/><stop offset=".7799" stop-color="#269dca"/><stop offset=".9195" stop-color="#1081b9"/><stop offset="1" stop-color="#006dae"/></radialGradient><radialGradient id="b" cx="31.8608" cy="31.2231" gradientTransform="matrix(1 0 0 .8998 0 3.1277)" gradientUnits="userSpaceOnUse" r="30.4404"><stop offset=".1333" stop-color="#e4ecf2"/><stop offset=".5694" stop-color="#e2eaf0"/><stop offset=".8023" stop-color="#dae2e9"/><stop offset=".9869" stop-color="#ccd5dc"/><stop offset="1" stop-color="#cbd4db"/></radialGradient><linearGradient id="c" gradientUnits="userSpaceOnUse" x1="37.4961" x2="55.2044" y1="42.1094" y2="63.6369"><stop offset="0" stop-color="#4ecee6"/><stop offset=".1698" stop-color="#48c6e1"/><stop offset=".4325" stop-color="#36b0d5"/><stop offset=".7535" stop-color="#1a8dc0"/><stop offset="1" stop-color="#006dae"/></linearGradient><path d="m21.184 52.173c.677 3.096-12.023 14.353-8.29.51.828-3.074 7.607-3.604 8.29-.51z" fill="#018bc9"/><path d="m51.278 2.15c-.398-.643-5.655.479-5.512 9.497-7.118 1.206-10.549 5.878-9.76 6.379 7.963 5.059 10.966-3.012 11.7-2.604 5.393 2.989 8.682 19.816-5.068 19.816-12.455 0-27.594-14.868-38.498-9.662-6.524.997 1.187 36.386 32.567 36.386 24.264 0 35.282-32.39 13.876-49.896-.646-.529 4.673-3.495.695-9.916z" fill="url(#a)"/><path d="m4.141 25.576c-6.524.997 1.187 36.386 32.567 36.386 18.521 0 29.324-18.872 23.881-35.59 3.323 18.335-18.191 25.982-27.835 15.63-12.763-13.699-26.39-17.155-28.613-16.426z" fill="url(#b)"/><g fill="#fff"><path d="m37.472 59.137c-25.57 0-35.04-24.064-33.77-32.589-3.241 6.178 5.577 34.352 33.245 34.352 12.238 0 21.018-8.444 23.77-18.961-3.233 9.68-11.698 17.198-23.245 17.198z" opacity=".2"/><path d="m39.474 55.867c-23.185.912-32.648-21.03-31.808-28.969-2.713 5.836 6.309 31.607 31.395 30.621 11.096-.437 18.747-8.569 20.859-18.405-2.578 9.078-9.98 16.34-20.446 16.753z" opacity=".2"/><path d="m38.802 52.98c-20.021-.479-27.02-17.907-25.881-23.996-2.643 4.369 3.776 24.73 25.439 25.25 9.581.229 16.601-5.661 18.936-13.148-2.697 6.882-9.455 12.11-18.494 11.894z" opacity=".2"/><path d="m43.978 49.733c-17.174 1.433-27.07-12.886-27.533-18.988-1.352 4.869 8.829 22.144 27.715 20.385-.065-.465-.121-.931-.182-1.397z" opacity=".2"/><path d="m37.406 46.315c-8.095-1.393-13.52-7.693-14.314-11.087-.338 2.905 5.329 10.542 14.314 12.132z" opacity=".2"/></g><path d="m56.32 61.96c-2.53.523-19.923-4.044-22.248-20.449-.595-4.19 12.725 2.098 13.722 4.373 3.333 7.611 11.055 15.552 8.526 16.076z" fill="url(#c)"/><path d="m4.141 25.576c13.161-1.802 23.694 14.351 29.203 14.151-6.62 3.102-12.743-12.933-29.203-14.151z" fill="#006dae"/><circle cx="32.745" cy="36.405" fill="#302c3b" r="2.083"/><path d="m32.045 35.56c0 .695-.834.695-.834 0s.834-.696.834 0z" fill="#6e8189"/><path d="m30.104 38.38c.158-.012 4.536 3.029 5.969-.604.781-1.976-5.969.604-5.969.604z" fill="#4ecee6"/><path d="m32.307 38.937c1.394.286 1.807-.49 1.916 1.536-.639-1.599-.334-.657-1.916-1.536z" fill="#006dae"/></svg>