<svg enable-background="new 0 0 64 64" height="64" viewBox="0 0 64 64" width="64" xmlns="http://www.w3.org/2000/svg"><path d="m11.013 18.595c-.859 1.062-.234 4.118.686 2.999 3.909-4.758 7.912-.449 7.99-5.051.088-5.121-4.293-5.621-4.669-2.956-.063.46-.003.726.159.187.574-1.902 3.644-.982 3.494 2.02-.173 3.518-4.629-.94-7.66 2.801z" fill="#cfd8dd"/><path d="m11.169 18.735c-.462.57-.27 1.504.191.806 2.724-4.128 7.444.528 7.744-3.503.313-4.197-3.424-4.747-4.012-2.671-.063.224-.008.366.104.046.688-1.996 4.016-.992 3.633 2.521-.376 3.461-4.63-.94-7.66 2.801z" fill="#e6ebef"/><path d="m12.687 32.086c-.346 1.123-1.789 1.609-1.789 1.609-.084-.517-.383-.972-.383-.972-.715.822-2.337 1.109-2.337 1.109.515-.738.585-1.454.585-1.454-.939.116-1.766-.204-1.766-.204.713-.444.762-1.214.762-1.214z" fill="#4e5e67"/><path d="m16.646 35.817c-1.357.867-1.481 3.015-1.481 3.015.71-.064 1.417.186 1.417.186-.83 1.268-.629 3.592-.629 3.592.789-.964 1.707-1.311 1.707-1.311.182 1.329.898 2.35.898 2.35.332-1.132 1.329-1.467 1.329-1.467z" fill="#4e5e67"/><g fill="#302c3b"><path d="m34.082 45.035c.207 1.619 2.58 2.665 2.58 2.665.334-.679 1.023-1.218 1.023-1.218.966 1.311 3.727 2.134 3.727 2.134-.643-1.142-.513-2.133-.513-2.133 1.617.41 3.189.196 3.189.196-1.099-.795-.907-1.854-.907-1.854z"/><path d="m47.459 35.905c5.342 5.233 7.162 14.261 8.205 15.659.426.564.904 4.831-.365 5.936-.363.326 1.869 1.105 2.27.846 2.65-1.736.284-4.913 1.118-7.17.296-.811 1.046-3.071.583-3.77-6.016-9.213 1.305-10.53.879-18.47-.223-4.103-15.538 4.196-12.69 6.969z"/><path d="m55.434 57.354c-1.922.541-2.547 2.65-2.547 2.65h3.256s1.709-.406 1.873-2.007c-1.741.214-2.582-.643-2.582-.643z"/><path d="m25.134 35.207c-.044 4.904 2.409 7.633 1.695 12.877-.322 2.367 1.689 5.751.158 9.416-.203.487 1.629 1.105 2.127.846 3.297-1.736.165-5.356 1.361-7.555 1.088-2.008.289-12.213 1.853-17.208 1.199-3.823-7.159-2.48-7.194 1.624z"/><path d="m27.158 57.354c-2.392.541-3.17 2.65-3.17 2.65h3.354s2.125-.406 2.331-2.007c-2.168.214-2.515-.643-2.515-.643z"/></g><path d="m12.826 32.489c.416 3.281 3.893 4.206 4.535 6.009 3.723 10.466 11.221 6.169 13.332 6.057 3.057-.18 3.665 2.594 12.495.733 3.584-.756 11.775-1.771 14.303-4.579 3.941-4.374 4.195-15.817.828-18.876-7.273-6.605-11.213-1.252-22.389.055-7.713.901-11.1-3.479-15.678-1.63-2.088.856-5.779.819-7.426 2.433-1.696 1.656-.305 7.364 0 9.798z" fill="#4e5e67"/><path d="m19.833 42.998c1.143-.768 1.217-5.876 1.217-5.876s.514 4.534 1.469 7.872c0 0-1.343-.31-2.686-1.996z" fill="#302c3b"/><path d="m44.035 37.813s2.125 4.402 2.283 5.957c-4.115.655-10.067 2.635-11.869.447 0 0 1.633-.192 3.197-1.026-7.932 1.285-9.542.35-11.163-4.86 0 0-.58 4.511-.422 7.16 2.141.439 3.797-1.003 6.537-.191 6.973 2.086 17.559-1.347 17.559-1.347-.348-.398-3.639-5.68-6.122-6.14z" fill="#302c3b"/><path d="m56.604 33.807c1.209 2.542-1.267 6.701-.719 6.245 3.912-3.26 4.35-14.104 2.399-17.153 3.337-.284 5.03 17.904-4.438 20.208-.582.141-.075-6.504 2.758-9.3z" fill="#302c3b"/><path d="m44.131 37.914c5.344 5.22 4.65 8.952 7.49 12.076.553.608-.02 2.107 1.023 3.495.426.575.148 4.917-1.121 6.022-.363.327 1.756 1.104 2.156.846 2.65-1.736.744-5.346 1.578-7.613.295-.799 1.443-4.037.971-4.741-5-7.457 2.467-11.077 2.039-19.016-.22-4.106-16.982 6.146-14.136 8.931z" fill="#4e5e67"/><path d="m51.66 59.361c-1.922.541-2.547 2.639-2.547 2.639h3.143s1.709-.395 1.873-1.996c-1.742.215-2.469-.643-2.469-.643z" fill="#302c3b"/><path d="m52.887 20.581c6.52 0 9.318 1.247 9.102 5.438-.189 3.676-1.813 10.514-1.25 14.687.041.307-1.281-.163-1.332-.469-.617-3.704 1.055-10.09.77-13.441-.472-5.555-10.808-6.215-7.29-6.215z" fill="#4e5e67"/><path d="m59.406 39.764c-1.158 1.335-.145 6.896.299 6.36 1.477-1.762 1.572-5.295.98-6.019-.115-.14-1.16-.476-1.279-.341z" fill="#4e5e67"/><path d="m20.332 36.486c-.037 4.893 2.514 8.387 1.875 13.631-.288 2.368 2.014 5.488.05 9.391-.228.451 1.751 1.104 2.197.846 2.952-1.736.149-5.356 1.221-7.557.976-2.006.259-12.212 1.659-17.206 1.074-3.834-6.969-3.221-7.002.895z" fill="#4e5e67"/><path d="m22.407 59.361c-2.143.541-2.839 2.639-2.839 2.639h3.297s1.904-.395 2.088-1.996c-1.942.215-2.546-.643-2.546-.643z" fill="#302c3b"/><path d="m9.686 21.35c-3.688 2.217-.886 1.779-6.028 6.061-.581.483-1.863 3.522-.613 4.12-.079.406.166.881.576.779.674-.158 2.145.36 3.328-.43.57-.383 2.527 1.455 6.987-.158 2.557-.924 7.317-7.43 5.757-9.788-1.436-2.169-3.133-3.226-5.444-2.893-2.146-1.376-4.406.911-4.563 2.309z" fill="#4e5e67"/><path d="m7.142 30.876c.204 1.952-2.389 1.907-3.704 1.523-1.19-.361-.531-2.165 3.704-1.523z" fill="#302c3b"/><path d="m3.53 27.504c.677-.834 4.484 2.256 3.612 3.372-.648.836-2.781 1.039-4.098.654-1.189-.359-.847-1.206-1.041-2.345-.073-.429 1.029-1.06 1.527-1.681z" fill="#6e8189"/><path d="m2.776 29.264c-.023.586-.631 1.602.21 1.274.938-.371-.174-2.209-.21-1.274z" fill="#302c3b"/><path d="m11.473 24.769c0 .8-.464 1.454-1.038 1.454s-1.037-.654-1.037-1.454c0-.812.463-1.466 1.037-1.466s1.038.655 1.038 1.466z" fill="#1a1626"/><path d="m10.361 24.125c0 .508-.519.508-.519 0s.519-.507.519 0z" fill="#fff"/><path d="m17.511 27.663c-.094-.474-.391 2.932-4.741 4.421.007.789.32 1.466.32 1.466 4.156-2.087 4.527-5.356 4.421-5.887z" fill="#302c3b"/><path d="m15.613 25.072c3.869 6.115 10.294 2.937 9.076 1.614-.896-.966-3.445-3.409-6.478-4.86-.338-.146-3.013 2.577-2.598 3.246z" fill="#302c3b"/><path d="m15.212 24.489c3.355 5.306 9.271 2.611 8.698 1.99-.896-.968-3.069-3.783-6.101-5.235-.337-.147-3.013 2.577-2.597 3.245z" fill="#4e5e67"/><path d="m16.449 25.069c2.366 3.599 7.022 1.828 6.496 1.279-3.539-3.695-6.934-1.928-6.496-1.279z" fill="#302c3b"/><path d="m16.447 25.069c.081.131.179.236.267.355 1.572-.32 3.613-.26 5.932.643-3.431-3.302-6.624-1.629-6.199-.998z" fill="#1a1626"/><path d="m11.707 19.614c-.174-1.164.914-2.248.914-2.248.297.426.763.702.763.702.286-1.06 1.619-2.044 1.619-2.044-.143.895.103 1.568.103 1.568.793-.525 1.674-.607 1.674-.607-.449.719-.16 1.432-.16 1.432z" fill="#4e5e67"/><path d="m17.079 29.331c.697.941.245 2.417.245 2.417-.461-.23-1-.248-1-.248.242 1.069-.472 2.577-.472 2.577-.292-.854-.823-1.33-.823-1.33-.453.845-1.19 1.341-1.19 1.341.06-.849-.528-1.336-.528-1.336z" fill="#302c3b"/><path d="m12.741 19.008c-2.028 1.137-2.386 5.621-.224 4.428 9.193-5.076 14.209 2.463 16.552-3.89 2.608-7.07-4.901-9.473-6.841-5.923-.334.614-.354 1.006.191.322 1.928-2.416 6.914.059 5.213 4.166-1.992 4.812-7.738-3.111-14.891.897z" fill="#cfd8dd"/><path d="m12.949 19.263c-1.088.61-1.194 1.981-.045 1.192 6.795-4.665 12.912 3.638 15.375-1.84 2.563-5.699-3.781-7.92-5.816-5.27-.221.286-.189.506.16.104 2.172-2.501 7.578.191 5.218 4.916-2.326 4.655-7.74-3.111-14.892.898z" fill="#e6ebef"/></svg>