<svg enable-background="new 0 0 64 64" height="64" viewBox="0 0 64 64" width="64" xmlns="http://www.w3.org/2000/svg" xmlns:xlink="http://www.w3.org/1999/xlink"><linearGradient id="a" gradientUnits="userSpaceOnUse" x1="24.3652" x2="38.2959" y1="21.8994" y2="63.407"><stop offset=".2485" stop-color="#edba6f"/><stop offset=".4905" stop-color="#ebb86d"/><stop offset=".6305" stop-color="#e2b167"/><stop offset=".7446" stop-color="#d4a45d"/><stop offset=".8446" stop-color="#c0934f"/><stop offset=".9346" stop-color="#a77c3c"/><stop offset="1" stop-color="#8f672b"/></linearGradient><linearGradient id="b"><stop offset="0" stop-color="#916958"/><stop offset=".6651" stop-color="#5e4033"/><stop offset="1" stop-color="#4a2f24"/></linearGradient><linearGradient id="c" gradientUnits="userSpaceOnUse" x1="2.8804" x2="21.6514" xlink:href="#b" y1="47.2266" y2="47.2266"/><linearGradient id="d" gradientUnits="userSpaceOnUse" x1="2.8804" x2="10.8711" xlink:href="#b" y1="48.1523" y2="48.1523"/><linearGradient id="e" gradientUnits="userSpaceOnUse" x1="2.3247" x2="6.5264" xlink:href="#b" y1="47.54" y2="47.54"/><linearGradient id="f" gradientUnits="userSpaceOnUse" x1="2.3252" x2="4.3369" xlink:href="#b" y1="48.0254" y2="48.0254"/><linearGradient id="g" gradientUnits="userSpaceOnUse" x1="4.9282" x2="38.4473" xlink:href="#b" y1="40.791" y2="40.791"/><path d="m54.955 18.216c.216-2.572 8.446-1.84 4.463-1.143-3.267.572-4.672 3.62-4.463 1.143z" fill="#edba6f"/><path d="m49.212 21.432c5.17-1.367 1.408-23.886 1.093-12.678-.26 9.202-6.068 13.995-1.093 12.678z" fill="#edba6f"/><path d="m2 61.79s26.563.859 35.603-.9c17.064-3.32 13.619-30.629 17.419-34.953 5.001.206 6.501-8.302 1.149-8.876-4.683-.503-7.151-3.067-9.635 2.992-17.945 43.792-42.111 36.555-44.536 41.737z" fill="url(#a)"/><path d="m56.581 19.578c1.533-2.992 7.974 3.408 4.305 1.593-3.013-1.488-5.782 1.287-4.305-1.593z" fill="#edba6f"/><path d="m2.88 45.647c2.784-20.122 21.628-5.375 18.4 8.77-3.067 6.955-14.579 6.166-18.4-8.77z" fill="url(#c)"/><path d="m2.88 46.694c1.002-10.538 9.895-1.09 7.62 5.799-1.215 3.681-7.334 1.856-7.62-5.799z" fill="url(#d)"/><path d="m2.325 46.773c.526-5.542 5.203-.573 4.007 3.05-.64 1.936-3.858.976-4.007-3.05z" fill="url(#e)"/><path d="m2.333 47.224c.035-.892 2.246-.383 1.982.916-.07.345-2.13 2.849-1.982-.916z" fill="url(#f)"/><path d="m4.928 39.112c6.573-19.337 23.956-13.952 31.425-3.895 0 0 1.719-.576 1.995.978 1.492 8.386-14.332 15.632-17.619 19.251 1.592-9.595-7.191-25.177-15.801-16.334z" fill="url(#g)"/><path d="m48.859 19.976c4.759-2.741-3.33-23.62-1.433-12.631 1.557 9.023-3.148 15.27 1.433 12.631z" fill="#edba6f"/><path d="m23.126 57.036c.309 2.244 3.336 1.838 3.025-.408-.313-2.297-3.339-1.891-3.025.408z" fill="#a35d35" opacity=".3"/><path d="m33.836 51.813c.309 2.245 3.336 1.838 3.025-.408-.313-2.298-3.34-1.891-3.025.408z" fill="#a35d35" opacity=".3"/><path d="m35.56 46.611c.211 1.53 2.275 1.253 2.064-.277-.214-1.566-2.278-1.289-2.064.277z" fill="#a35d35" opacity=".3"/><path d="m39.715 43.147c.209 1.529 2.274 1.252 2.064-.279-.215-1.566-2.278-1.289-2.064.279z" fill="#a35d35" opacity=".3"/><path d="m39.716 49.802c.209 1.531 2.272 1.255 2.063-.277-.215-1.567-2.278-1.29-2.063.277z" fill="#a35d35" opacity=".3"/><path d="m29.277 52.745c.21 1.529 2.274 1.254 2.062-.278-.213-1.567-2.275-1.288-2.062.278z" fill="#a35d35" opacity=".3"/><path d="m30.996 57.257c.209 1.529 2.273 1.254 2.062-.278-.213-1.568-2.276-1.289-2.062.278z" fill="#a35d35" opacity=".3"/><path d="m47.382 5.997c-1.607 0-1.607-3.997 0-3.997 1.609 0 1.609 3.997 0 3.997z" fill="#edba6f"/><path d="m47.382 5.448c-1.166 0-1.166-2.9 0-2.9 1.167 0 1.167 2.9 0 2.9z" fill="#302c3b"/><path d="m47.383 3.567c0 .504-.626.504-.626 0 0-.506.626-.506.626 0z" fill="#6e8189"/><path d="m50.902 7.183c-1.608 0-1.608-3.996 0-3.996 1.61 0 1.61 3.996 0 3.996z" fill="#edba6f"/><path d="m50.902 6.635c-1.166 0-1.166-2.9 0-2.9 1.167 0 1.167 2.9 0 2.9z" fill="#302c3b"/><path d="m50.903 4.753c0 .504-.626.504-.626 0 0-.506.626-.506.626 0z" fill="#6e8189"/><g fill="#291e1e"><path d="m31.641 31.924c1.428.468-7.948 1.237-12.643 9.483 1.439-6.466 9.409-10.546 12.643-9.483z" opacity=".3"/><path d="m8.837 37.221c.535.05-2.314 1.145-2.392 4.603-.653-2.518 1.181-4.717 2.392-4.603z" opacity=".3"/><path d="m13.945 38.321c.671.028-3.428 1.443-4.861 5.436.128-2.869 3.343-5.502 4.861-5.436z" opacity=".3"/><path d="m18.911 45.485c.646.381-4.247-.586-8.039 2.064 1.833-2.382 6.579-2.925 8.039-2.064z" opacity=".3"/><path d="m8.994 44.753c.281.129-1.635.087-2.729 1.706.402-1.318 2.09-1.997 2.729-1.706z" opacity=".3"/><path d="m4.689 44.901c.22.044-1.14.334-1.652 1.66.073-.998 1.156-1.759 1.652-1.66z" opacity=".3"/><path d="m6.088 42.234c.272.026-1.211.577-1.328 2.337-.278-1.282.712-2.396 1.328-2.337z" opacity=".3"/><path d="m20.362 51.807c.607-.592-4.532 2.056-9.49.856 2.711 1.633 8.121.483 9.49-.856z" opacity=".3"/><path d="m10.652 49.912c.282-.275-2.109.957-4.418.399 1.262.76 3.78.225 4.418-.399z" opacity=".3"/><path d="m6.266 49.214c.142-.229-1.189.647-2.688-.182.876.89 2.37.697 2.688.182z" opacity=".3"/><path d="m14.402 57.942c.55-.258-3.185-.184-5.333-3.439.797 2.646 4.094 4.019 5.333 3.439z" opacity=".3"/><path d="m8.646 53.507c.369-.172-2.137-.122-3.578-2.307.535 1.776 2.746 2.697 3.578 2.307z" opacity=".3"/><path d="m36.144 35.847c-2.822 6.133-12.479 9.549-14.493 17.283 5.81-7.582 15.001-10.848 14.493-17.283z" opacity=".3"/><path d="m20.777 27.024c1.154.188-5.354 2.12-6.414 9.558-.776-5.521 3.799-9.984 6.414-9.558z" opacity=".3"/><path d="m11.596 29.769c.732.019-2.546 1.7-1.056 6.232-2.025-3.238-.603-6.275 1.056-6.232z" opacity=".3"/></g></svg>