<svg enable-background="new 0 0 64 64" height="64" viewBox="0 0 64 64" width="64" xmlns="http://www.w3.org/2000/svg"><path d="m60.805 26.297c2.656-4.414-8.041-6.656-12.275-.477v1.447s8.732-2.711 6.736 2.629c-2.221 5.95 6.734 10.928 6.734 10.928s-4.926-8.334-1.195-14.527z" fill="#302c3b"/><path d="m12.868 58.834.572-4.783s-.865.016-1.816-.254c-.262.885-.66 2.432-.914 4.266 1.193.683 2.158.771 2.158.771z" fill="#302c3b"/><path d="m27.619 46.762c-.707.568-1.545 1.293-2.145 1.932l-3.522-1.105s3.208-5.293 10.892-8.783c0 0-8.641-3.426-11.544 1.076 0 0-3.871 6.195-5.18 7.67-1.311 1.475.064 2.797.723 3.016.66.219 9.837 1.045 9.837 1.045s1.256-1.145 2.828-1.797c-.67-1.56-1.397-2.527-1.889-3.054z" fill="#785647"/><path d="m28.998 45.691s-.615.449-1.379 1.07c.492.527 1.219 1.494 1.889 3.053.754-.318 1.576-.52 2.371-.438 0 .001-1.184-2.769-2.881-3.685z" fill="#302c3b"/><path d="m38.902 34.051-.797 6.357s8.025 1.461 11.393.105c0 0 2.984 7.84 8.5 12.789.414-.799.914-2.074 1.262-3.961-2.16-1.471-5.506-4.799-7.057-11.816 0 0-6.523.844-13.301-3.474z" fill="#785647"/><path d="m57.998 53.303c.738.666 1.527 1.281 2.359 1.816 0 0 .826-2.207.887-4.73 0 0-.818-.248-1.984-1.047-.348 1.887-.848 3.162-1.262 3.961z" fill="#302c3b"/><path d="m36.445 40.824c4.514 10.939 16.074 5.645 16.074 5.645-2.225 6.689-.59 11.277.809 13.646 1.213-.662 1.967-2.15 2.326-3.037-3.123-3.787-.893-8.822-.289-10.801.664-2.174-.303-3.568-.303-3.568-2.721-.672-4.322 1.334-7.549-3.139-3.224-4.466-11.068 1.254-11.068 1.254z" fill="#b47d56"/><path d="m54.744 62c1.557-.076 2.01-3.834 2.01-3.834-.426-.352-.789-.713-1.1-1.088-.359.887-1.113 2.375-2.326 3.037.744 1.252 1.416 1.885 1.416 1.885z" fill="#302c3b"/><path d="m13.741 7.738s-.207-2.242 2.047-5.738c0 0 2.299 2.441 2.518 7.094z" fill="#785647"/><g fill="#302c3b"><path d="m13.544 6.01c5.992 15.016 14.159 17.236 14.159 17.236-1.957-15.986-14.159-17.236-14.159-17.236z"/><path d="m7.804 9.051s6.219.779 5.719-3.205c-4.044-.377-5.719 3.205-5.719 3.205z"/><path d="m14.921 6.691c2.221 2.773 6.025.957 6.025.957s-4.601-3.451-6.025-.957z"/><path d="m17.366 8.797c2.221 2.773 6.587 1.779 6.587 1.779s-3.022-4.25-6.587-1.779z"/><path d="m19.837 11.488c2.221 2.771 6.024.953 6.024.953s-4.6-3.447-6.024-.953z"/><path d="m22.312 13.457c2.313 3.596 6.251 3.781 6.251 3.781s-2.686-6.252-6.251-3.781z"/><path d="m22.883 16.42c2.223 2.773 6.352 4.48 6.352 4.48s-2.786-6.951-6.352-4.48z"/><path d="m23.217 18.814c2.221 2.773 5.846 4.691 5.846 4.691s-2.282-7.163-5.846-4.691z"/></g><path d="m44.313 23.119c-9.902-1.973-15.477 3.441-16.639-.686-2.723-9.666-5.909-10.863-8.442-9.6.141-.781.443-1.33.443-1.33-2.076.398-3.373-2.891-3.373-2.891-.377-3.652-4.375-6.424-4.375-6.424-.826 2.266-.447 6.285-.447 6.285-1.391 2.762-8.316 10.213-9.139 11.336-.824 1.123 5.699 4.031 7.482 3.656 6.715-1.426 5.475-4.328 5.475-4.328 4.146 5.979-5.547 10.893-.461 19.639-1.863 1.709-8.045 3.254-8.045 3.254-1.895 10.738 1.49 14.63 3.918 16.033.254-1.834.652-3.381.914-4.266-.941-.27-1.963-.822-2.33-1.955-.744-2.281.678-7.414.678-7.414 6.582.846 10.725-1.357 15.444-2.605 4.725-1.25 9.305-.43 13.809.473 14.611 2.931 16.486-16.9 5.088-19.177z" fill="#b47d56"/><path d="m6.415 15.084c-2.412 2.766-4.879 4.791-4.34 5.77.771 1.395.195 2.271 1.967 3.402.59.979.914.002 1.752 1.096.373.488 1.416-.557 2.57-1.258.461-.279.953-.523 1.461-.629.869-5.279-5.31-1.549-3.41-8.381z" fill="#f5cfa0"/><path d="m4.095 21.504c-.273.219-.939.383-1.143.088-.203-.297.139-.941.412-1.16.271-.217.658-.154.857.143.206.294.147.71-.126.929z" fill="#302c3b"/><path d="m12.251 4.391c-.113.443-.705 3.586.217 4.684.621.742.684.621.6.188-.086-.436.268-1.24.238-.84-.027.404.082.707.223.322.139-.379.521-.916.361-.363-.162.547-.158 1.393.168 1.406.32.002.48-.283.555-.588.845-3.384-2.231-5.329-2.362-4.809z" fill="#785647"/><path d="m3.321 19.99c-.234.164-.191.264.014.176.207-.086 1.217-.373 1.301.828 0 0 .057.539.184.002.126-.535-.174-1.92-1.499-1.006z" fill="#d6a57c"/><path d="m8.36 21.236c-.107 2.389-2.279 3.053-4.318 3.02 2.043-.697 3.773-1.467 4.318-3.02z" fill="#302c3b"/><path d="m6.29 13.365s1.262-.877 3.375-1.77c2.914-1.23 1.705-3.35 1.705-3.35-4.404.915-5.08 5.12-5.08 5.12z" fill="#302c3b"/><path d="m14.837 38.777 3.908-3.041s-4.643 2.771-4.987-5.152c0 0-1.657 4.6 1.079 8.193z" fill="#9e6c49"/><path d="m37.033 42.084s-1.182-1.674-1.88-6.609c0 0 .073 5.549-3.831 5.723 0-.001 2.094.253 5.711.886z" fill="#9e6c49"/><path d="m48.24 40.502s2.768-1.725 3.359-6.35c0 0-1.884 6.35-4.446 3.406 0 .001.275 1.928 1.087 2.944z" fill="#9e6c49"/><path d="m11.868 13.922c0 1.633-1.845 1.633-1.845 0s1.845-1.633 1.845 0z" fill="#302c3b"/><path d="m10.923 13.505c0 .409-.567.409-.567 0-.001-.408.567-.408.567 0z" fill="#6e8189"/></svg>