<svg enable-background="new 0 0 64 64" height="64" viewBox="0 0 64 64" width="64" xmlns="http://www.w3.org/2000/svg"><path d="m17.999 48.47c.87-2.831 3.668-.497 5.698-2.319l2.011.456c.267 4.655-4.296 2.188-6.024 4.655 0 0-.458-1.11.288-1.779 0 0-.899-.114-1.938.41 0 0 .14-.982 1.038-1.654 0-.001-.475-.093-1.073.231z" fill="#f6bec1"/><path d="m30.392 47.584c.869-2.83 4.388-.89 6.417-2.713l5.812.768c1.74 4.233-6.647 1.096-10.545 4.738 0 0-.457-1.109.289-1.778 0 0-.899-.116-1.938.411 0 0 .139-.984 1.038-1.653 0-.001-.475-.097-1.073.227z" fill="#f6bec1"/><path d="m51.573 36.215c11.48.513 16.121 19.629.023 24.188-16.281 4.611-28.733-1.977-29.665-4.482-.991-2.662 8.46 8.423 28.477 1.936 11.988-3.885 8.63-18.473-.137-16.969-5.163.885 1.302-4.673 1.302-4.673z" fill="#f6bec1"/><path d="m21.404 12.238c-4.141-1.989-7.638 9.086-5.926 10.238 1.647 1.111 9.41-8.566 5.926-10.238z" fill="#cfd8dd"/><path d="m2.216 26.019c4.952 1.912 5.426 6.576 10.711 6.576 1.871 5.548 8.621 7.526 9.773 10.827 0 0-.551 2.895 0 3.518.576.648 2.521.394 3.256 0 1.068-.571 2.68-2.371 2.986-4.131 2.204.574 4.068-1.799 6.105-1.346 0 0 .811 2.721 1.254 3.372 1.024 1.512 7.155 2.294 7.252.863 12.792-.749 12.466-22.561-1.113-26.832-9.972-3.136-14.005 4.799-17.265 3.748-2.609-.841-7.832-12.285-22.959 3.405z" fill="#e6ebef"/><g fill="#cfd8dd"><path d="m36.414 44.977s-3.132-13.183 5.28-16.497c-7.144.254-9.653 9.37-5.28 16.497z"/><path d="m27.984 44.977s2.061-1.423 1.534-6.07c.622.008 1.12.346 1.12.346.236-2.275-1.137-3.52-1.137-3.52.543-.496 1.175-.114 1.175-.114.04-2.372-1.366-3.595-1.366-3.595s.717 1.721.445 2.485c0 0-1.068.25-1.492.822 0 0 1.068 1.282 1.171 2.238-.814-.172-1.45.152-1.45.152s1.45 3.1 0 7.256z"/><path d="m22.502 44.871c.811-3.999-2.22-5.861 1.194-10.834-1.853 5.376.77 7.291-1.194 10.834z"/><path d="m3.741 27.242c5.701.471 4.953 6.215 16.62 4.093-9.588 5.456-12.633-1.989-16.62-4.093z"/></g><path d="m14.322 21.519c.341 2.389-1.798 3.593-3.863 2.063.039-2.305 2.542-3.334 3.863-2.063z" fill="#e81c27"/><path d="m12.009 22.555c-.063.705-1.042.607-.977-.097.063-.703 1.041-.605.977.097z" fill="#fff"/><path d="m19.166 24.263c-1.475-3.625 9.086-1.457 12.273-4.384-.381 7.363-11.476 6.344-12.273 4.384z" fill="#cfd8dd"/><path d="m17.173 23.911c-1.475-3.625 12.279-18.449 14.436-6.954 1.589 8.481-13.638 8.914-14.436 6.954z" fill="#e6ebef"/><path d="m18.947 23.438c-1.141-2.798 10.632-14.528 11.727-5.57.693 5.681-11.111 7.083-11.727 5.57z" fill="#fde0da"/><path d="m27.822 14.56c-3.759.149-9.701 6.852-8.875 8.878.147.365.959.561 2.084.564 1.254-3.205 3.994-7.281 6.791-9.442z" fill="#f6bec1"/><path d="m5.07 27.713c-2.752 0-4.37-2.748-1.725-2.835 1.992-.065-.044 1.164 1.725 2.835z" fill="#ff8fa8"/></svg>