<svg enable-background="new 0 0 64 64" height="64" viewBox="0 0 64 64" width="64" xmlns="http://www.w3.org/2000/svg"><path d="m17.962 47.934c.868-2.84 3.66-.498 5.686-2.326l2.006.457c.266 4.668-4.285 2.194-6.011 4.668 0 0-.456-1.112.288-1.783 0 0-.897-.115-1.934.41 0 0 .139-.985 1.036-1.658.001-.001-.473-.094-1.071.232z" fill="#ff8fa8"/><path d="m30.328 47.045c.869-2.838 4.378-.892 6.404-2.721l5.798.77c1.736 4.246-6.632 1.1-10.521 4.752 0 0-.456-1.112.288-1.783 0 0-.897-.117-1.934.412 0 0 .139-.986 1.036-1.658 0-.001-.474-.096-1.071.228z" fill="#ff8fa8"/><path d="m51.531 35.045c13.823 1.159 17.13 23.539-9.927 26.586-20.724 2.333-33.837-7.024-34.55-10.277-.609-2.781 10.115 10.17 33.15 6.553 20.814-3.269 19.07-17.377 10.146-17.381-5.227-.004 1.181-5.481 1.181-5.481z" fill="#ff8fa8"/><path d="m22.23 16.336c-4.043-2.093-5.93 6.233-4.219 7.36 1.647 1.085 7.62-5.601 4.219-7.36z" fill="#4e5e67"/><path d="m2.215 25.418c4.94 1.917 5.413 6.596 10.688 6.596 1.868 5.563 8.601 7.547 9.752 10.856 0 0-.55 2.903 0 3.53.573.648 2.515.393 3.249 0 1.064-.574 2.672-2.379 2.978-4.145 2.2.576 4.061-1.803 6.092-1.35 0 0 .809 2.729 1.25 3.382 1.023 1.516 7.141 2.302 7.236.866 12.764-.752 12.438-22.626-1.111-26.91-9.949-3.146-13.972 4.813-17.226 3.759-2.604-.842-11.756-7.888-22.908 3.416z" fill="#6e8189"/><g fill="#4e5e67"><path d="m36.337 44.43s-3.125-13.22 5.268-16.544c-7.129.255-9.631 9.397-5.268 16.544z"/><path d="m27.925 44.43s2.057-1.427 1.531-6.086c.621.008 1.117.346 1.117.346.236-2.283-1.135-3.53-1.135-3.53.543-.498 1.173-.114 1.173-.114.04-2.378-1.362-3.605-1.362-3.605s.715 1.724.444 2.492c0 0-1.066.251-1.489.825 0 0 1.065 1.284 1.168 2.244-.813-.172-1.447.153-1.447.153s1.448 3.107 0 7.275z"/><path d="m22.456 44.324c.81-4.01-2.214-5.879 1.192-10.865-1.85 5.392.768 7.312-1.192 10.865z"/><path d="m3.738 26.645c5.688.472 4.941 6.233 16.582 4.105-9.567 5.471-12.606-1.996-16.582-4.105z"/></g><path d="m14.293 20.905c.341 2.396-1.793 3.604-3.854 2.068.04-2.311 2.537-3.343 3.854-2.068z" fill="#302c3b"/><path d="m11.987 21.944c-.063.707-1.039.608-.975-.097.063-.705 1.038-.608.975.097z" fill="#fff"/><path d="m21.065 23.976c-.922-2.278 5.68-.915 7.673-2.755-.238 4.627-7.174 3.987-7.673 2.755z" fill="#4e5e67"/><path d="m19.82 23.754c-.922-2.278 7.676-11.593 9.024-4.369.994 5.33-8.526 5.602-9.024 4.369z" fill="#6e8189"/><path d="m20.927 23.458c-.713-1.759 6.648-9.13 7.332-3.5.434 3.57-6.945 4.451-7.332 3.5z" fill="#ff8fa8"/><path d="m26.476 17.878c-2.35.094-6.064 4.306-5.549 5.58.094.229.6.352 1.305.354.783-2.014 2.496-4.575 4.244-5.934z" fill="#f26887"/><path d="m5.062 27.117c-2.745 0-4.359-2.755-1.72-2.843 1.987-.065-.044 1.168 1.72 2.843z" fill="#f26887"/></svg>