<svg enable-background="new 0 0 64 64" height="64" viewBox="0 0 64 64" width="64" xmlns="http://www.w3.org/2000/svg"><path clip-rule="evenodd" d="m18.725 37.886c-.432 7.041 4.432 10.449 4.858 19.717.081 1.75 3.479 3.076 3.479 3.076 2.842-11.219 2.26-15.752.17-22.925 0 0-8.412-1.412-8.507.132z" fill="#c49a45" fill-rule="evenodd"/><path clip-rule="evenodd" d="m45.457 45.252c-.283-2.03-14.83-3.205-14.83-3.205 3.439 6.817 6.986 6.825 9.266 8.524 1.238.921 1.401 5.547.626 7.031-.624 1.201 1.528 4.398 1.528 4.398 3.875-6.858 4.01-12.509 3.41-16.748z" fill="#c49a45" fill-rule="evenodd"/><path clip-rule="evenodd" d="m40.519 57.603c-.989 1.25-4.483 1.105-4.483 4.397h7.32c.65 0 .771-1.931.603-2.651-.332-1.405-1.801-.36-3.44-1.746z" fill="#f5cfa0" fill-rule="evenodd"/><path clip-rule="evenodd" d="m23.583 57.603c-.989 1.25-5.044 1.105-5.044 4.397h7.881c.65 0 .84-1.103.67-1.822-.33-1.404-2.23-1.282-3.507-2.575z" fill="#f5cfa0" fill-rule="evenodd"/><path d="m37.107 29.459c19.668.595 11.105 25.89 23.297 16.606 1.758-1.34 2.182 1.916.674 2.932-12.652 8.516-9.965-10.7-19.232-13.362-2.395-.688-4.739-6.176-4.739-6.176z" fill="#e5bc5e"/><path d="m14.549 41.575c-1.209-.938-5.426-4.653-8.625-1.292-1.127 1.184-1.926-1.235-3.469-1.957-.826-.387.568-3.338 1.076-4.184.521-.867-.783-1.671 3.58-6.032 1.262-3.059 2.549-2.361 3.041-.62 4.273-.115 8.654.331 15.408 2.135 5.672 1.516 11.863-1.783 17.195.909 3.125 1.579 8.424 11.367.98 12.968-9.18 1.973-16.483 7.925-29.186-1.927z" fill="#e5bc5e"/><path d="m13.963 41.838c-1.041-1.119-5.025-4.234-8.225-.873-1.127 1.184-1.74-1.917-3.283-2.639 2.795 1.2 3.625-3.846 5.662-3.846 1.887 0 5.996 7.109 19.07 8.937 7.063.986 4.881-.762 16.549 2.114-9.181 1.974-19.484 7.365-29.773-3.693z" fill="#ffe8bb"/><path clip-rule="evenodd" d="m4.844 32.669s1-.146 1.422.805c0 0-.52 1.132-1.367.694-.46-.235-.055-1.499-.055-1.499z" fill="#302c3b" fill-rule="evenodd"/><path clip-rule="evenodd" d="m2.467 36.482s-1.232 1.703.309 2.195c.611.195-.378-1.046-.309-2.195z" fill="#f0525c" fill-rule="evenodd"/><path clip-rule="evenodd" d="m8.852 28.421s-.82-.55-1.213-.212c.197-1.526.992-1.903 1.213.212z" fill="#ab5c10" fill-rule="evenodd"/><path clip-rule="evenodd" d="m15.104 38.483c-.295 7.791 3.315 10.066.865 19.119-.452 1.674 3.351 3.768 3.351 3.768 4.266-8.906 3.749-14.789 4.56-19.206-.001 0-8.698-5.758-8.776-3.681z" fill="#e5bc5e" fill-rule="evenodd"/><path clip-rule="evenodd" d="m46.83 36.148c-.258-.738-14.924 6.175-14.1 5.9 3.441 6.817 6.988 4.796 9.268 6.493 1.238.924 4.045 7.576 3.271 9.061-.624 1.201 3.452 3.291 3.452 3.291.427-3.622 3.008-10.708-1.891-24.745z" fill="#e5bc5e" fill-rule="evenodd"/><path d="m4.229 40.149c-.33-.2-.609-.688-.609-.688s1.727-.373 2.814-1.431c-.446 1.561-2.205 2.119-2.205 2.119z" fill="#302c3b"/><g clip-rule="evenodd" fill-rule="evenodd"><path d="m15.969 57.603c-.988 1.249-5.482-.104-5.482 4.397h8.318c.65 0 .942-1.211.773-1.931-.331-1.404-2.076-1.673-3.609-2.466z" fill="#ffe8bb"/><path d="m12.564 59.168c-.619.507-1.054 1.349-1.054 2.832h.789s-.422-.968.265-2.832z" fill="#f5cfa0"/><path d="m45.269 57.603c-.987 1.249-5.483-.104-5.483 4.397h8.32c.65 0 .941-1.211.771-1.931-.33-1.404-2.063-1.111-3.608-2.466z" fill="#ffe8bb"/><path d="m41.863 59.168c-.618.507-1.053 1.349-1.053 2.832h.79s-.423-.968.263-2.832z" fill="#f5cfa0"/><path d="m17.364 30.941c0 2-3 2-3 0s3-2 3 0z" fill="#785647"/><path d="m32.777 37.783c0 2.667-4 2.667-4 0 0-2.666 4-2.666 4 0z" fill="#785647"/><path d="m45.985 34.95c0 2.667-4 2.667-4 0s4-2.667 4 0z" fill="#785647"/><path d="m37.107 29.459c.189 2.66-3.81 2.964-3.999.304 2.35-.399 3.999-.304 3.999-.304z" fill="#785647"/><path d="m23.63 29.13c-.5 2.62-4.483 1.758-3.984-.862 1.89.284 3.984.862 3.984.862z" fill="#785647"/><path d="m37.735 33.464c0 1.334-2 1.334-2 0 0-1.333 2-1.333 2 0z" fill="#785647"/><path d="m44.985 40.687c0 1.333-2 1.333-2 0 0-1.334 2-1.334 2 0z" fill="#785647"/><path d="m21.766 36.482c0 1.334-2 1.334-2 0 0-1.332 2-1.332 2 0z" fill="#785647"/><path d="m22.616 45.476c0 1.333-2 1.333-2 0 0-1.334 2-1.334 2 0z" fill="#785647"/><path d="m20.516 48.765c0 1-1.5 1-1.5 0s1.5-1 1.5 0z" fill="#785647"/><path d="m50.444 39.784c0 1-1.5 1-1.5 0s1.5-1 1.5 0z" fill="#785647"/><path d="m53.072 46.226c0 1-1.5 1-1.5 0s1.5-1 1.5 0z" fill="#785647"/><path d="m59.489 48.479c0 .666-1 .666-1 0s1-.666 1 0z" fill="#785647"/><path d="m53.572 48.479c0 .666-1 .666-1 0s1-.666 1 0z" fill="#785647"/><path d="m42.735 45.476c0 1-1.5 1-1.5 0s1.5-1 1.5 0z" fill="#785647"/><path d="m20.516 42.285c0 1.001-1.5 1.001-1.5 0 0-1 1.5-1 1.5 0z" fill="#785647"/><path d="m11.486 30.941c0 1.333-2 1.333-2 0s2-1.333 2 0z" fill="#785647"/><path d="m27.944 32.95c0 1.333-2 1.333-2 0s2-1.333 2 0z" fill="#785647"/><path d="m38.614 42.047c0 2-3 2-3 0 0-1.999 3-1.999 3 0z" fill="#785647"/><path d="m46.724 49.046c0 1.334-2 1.334-2 0 0-1.332 2-1.332 2 0z" fill="#785647"/></g><path d="m5.145 33.004c-.033.328-.27.289-.236-.039.024-.25.26-.211.236.039z" fill="#fff"/></svg>