<svg enable-background="new 0 0 64 64" height="64" viewBox="0 0 64 64" width="64" xmlns="http://www.w3.org/2000/svg" xmlns:xlink="http://www.w3.org/1999/xlink"><linearGradient id="a" gradientUnits="userSpaceOnUse" x1="22.1836" x2="43" y1="47.959" y2="47.959"><stop offset="0" stop-color="#004e7a"/><stop offset=".2077" stop-color="#02527f"/><stop offset=".4527" stop-color="#095d8d"/><stop offset=".7164" stop-color="#136fa5"/><stop offset=".9917" stop-color="#2288c6"/><stop offset="1" stop-color="#2289c7"/></linearGradient><linearGradient id="b" gradientUnits="userSpaceOnUse" x1="45.0664" x2="62.2408" y1="34.4453" y2="34.4453"><stop offset="0" stop-color="#004e7a"/><stop offset="1" stop-color="#2289c7"/></linearGradient><linearGradient id="c" gradientUnits="userSpaceOnUse" x1="30.8286" x2="30.8286" y1="30.1953" y2="11"><stop offset="0" stop-color="#2289c7"/><stop offset="1" stop-color="#004e7a"/></linearGradient><linearGradient id="d" gradientUnits="userSpaceOnUse" x1="25.8838" x2="25.8838" y1="51.085" y2="18.1255"><stop offset="0" stop-color="#006dae"/><stop offset=".2465" stop-color="#1a8dc0"/><stop offset=".5675" stop-color="#36b0d5"/><stop offset=".8302" stop-color="#48c6e1"/><stop offset="1" stop-color="#4ecee6"/></linearGradient><linearGradient id="e" gradientUnits="userSpaceOnUse" x1="23.8438" x2="41.3408" y1="35.4932" y2="35.4932"><stop offset=".103" stop-color="#0069a3" stop-opacity="0"/><stop offset="1" stop-color="#0069a3"/></linearGradient><path d="m22.184 50.054s10.816 4.418 20.816 2.435c-6-3.965-1.385-9.571-1.385-9.571z" fill="url(#a)"/><path d="m62 18.294c-4.566.151-7.194 6.376-10.298 9.875-2.44 2.751-4.771 2.423-6.372 1.554v11.351c2.064-.534 3.981-.252 6.001 1.49 2.868 2.854 5.896 7.874 10.669 8.033-6.318-5.315-6.187-27.1 0-32.303z" fill="url(#b)"/><path d="m46.872 30.17c-2.584-8.29-12.091-16.528-23.329-19.12-2.863-.658-2.051 5.364-8.76 8.515 14.198-2.189 32.304 11.293 32.089 10.605z" fill="url(#c)"/><g fill="#004c78"><path d="m32.853 15.514c4.839 8.032 1.839 17.068-4.969 20.231 5.464-.162 15.12-9.871 4.969-20.231z"/><path d="m48.007 32.33c.209.584.403 1.174.605 1.761 2.132-.508 4.411-1.71 6.751-3.865-2.445 1.371-4.956 2.026-7.356 2.104z"/><path d="m40.169 27.964c.607-.123 1.219-.229 1.829-.345-.195-2.183-1.057-4.611-2.852-7.237 1.005 2.617 1.292 5.196 1.023 7.582z"/><path d="m47.908 36.163c-.245.568-.505 1.133-.757 1.7 1.905 1.082 4.393 1.756 7.573 1.774-2.723-.663-5.006-1.896-6.816-3.474z"/><path d="m30.98 48.362c-.245.568-.505 1.133-.757 1.7 1.905 1.082 4.393 1.756 7.573 1.774-2.723-.663-5.006-1.896-6.816-3.474z"/><path d="m34.808 45.082c-.438.438-.889.866-1.333 1.3 1.369 1.711 3.43 3.258 6.377 4.453-2.285-1.625-3.949-3.615-5.044-5.753z"/><path d="m49.027 34.378c-.027.62-.07 1.24-.104 1.859 2.165.336 4.73.083 7.711-1.027-2.782.346-5.355.003-7.607-.832z"/><path d="m27.709 13.521c4.839 8.032 1.839 17.068-4.969 20.23 5.464-.16 15.12-9.87 4.969-20.23z"/><path d="m22.584 12.154c4.839 8.032 1.839 17.068-4.969 20.23 5.464-.16 15.12-9.87 4.969-20.23z"/></g><path d="m14.783 19.091c-8.527 2.922-9.186 11.004-12.187 12.923-2.375 1.52 2.625 4.407 10.063 2.839-3.389 2.969-10.125 2.612-9.404 3.752 1.125 1.78 2.434 4.131 4.265 6.239h-.002s4.264 6.24 14.295 6.24c20.893 0 27.955-13.119 27.955-15.592 0-6.832-20.938-21.213-34.985-16.401z" fill="url(#d)"/><path d="m15.242 29.13c0 4.34-6.174 4.34-6.174 0 0-4.342 6.174-4.342 6.174 0z" fill="#302c3b"/><path d="m11.848 27.683c0 1.303-1.854 1.303-1.854 0s1.854-1.303 1.854 0z" fill="#6e8189"/><path d="m25.488 36.067c-9.029 6.701 22.426 9.654 14.584-3.211-4.937-8.106-9.131-.835-14.584 3.211z" fill="url(#e)"/><path d="m19.335 24.026c4.839 8.032 1.839 17.068-4.969 20.231 5.464-.162 15.12-9.871 4.969-20.231z" fill="#006dae"/><path d="m28.375 22.078c0 1.303-1.854 1.303-1.854 0s1.854-1.303 1.854 0z" fill="#19b3d1"/><path d="m29.594 26.339c0 1.303-1.854 1.303-1.854 0s1.854-1.302 1.854 0z" fill="#19b3d1"/><path d="m33.617 24.629c0 .843-1.199.843-1.199 0s1.199-.843 1.199 0z" fill="#19b3d1"/><path d="m22.107 21.101c0 .843-1.199.843-1.199 0s1.199-.844 1.199 0z" fill="#19b3d1"/><path d="m24.751 24.629c0 .843-1.199.843-1.199 0s1.199-.843 1.199 0z" fill="#19b3d1"/><path d="m38.277 26.606c0 1.303-1.854 1.303-1.854 0s1.854-1.302 1.854 0z" fill="#19b3d1"/></svg>