<svg enable-background="new 0 0 64 64" height="64" viewBox="0 0 64 64" width="64" xmlns="http://www.w3.org/2000/svg" xmlns:xlink="http://www.w3.org/1999/xlink"><linearGradient id="a"><stop offset="0" stop-color="#ffecba"/><stop offset=".3017" stop-color="#fee9b6"/><stop offset=".5832" stop-color="#fbe1ab"/><stop offset=".8558" stop-color="#f6d398"/><stop offset="1" stop-color="#f2c98b"/></linearGradient><radialGradient id="b" cx="-400.8662" cy="125.5127" gradientTransform="matrix(.6817 .6659 .803 -.7844 177.55 369.7715)" gradientUnits="userSpaceOnUse" r="2.5628" xlink:href="#a"/><radialGradient id="c" cx="-397.2949" cy="125.4395" gradientTransform="matrix(.6817 .6659 .803 -.7844 177.55 369.7715)" gradientUnits="userSpaceOnUse" r="5.3729" xlink:href="#a"/><radialGradient id="d" cx="-392.3706" cy="123.709" gradientTransform="matrix(.6817 .6659 .803 -.7844 177.55 369.7715)" gradientUnits="userSpaceOnUse" r="8.5201" xlink:href="#a"/><radialGradient id="e" cx="-383.1084" cy="121.1055" gradientTransform="matrix(.6817 .6659 .803 -.7844 177.55 369.7715)" gradientUnits="userSpaceOnUse" r="13.1613" xlink:href="#a"/><radialGradient id="f" cx="-355.3906" cy="89.1494" gradientTransform="matrix(.6817 .6659 .7511 -.7337 206.088 341.8963)" gradientUnits="userSpaceOnUse" r="24.6922" xlink:href="#a"/><linearGradient id="g" gradientTransform="matrix(.7071 .7071 .7071 -.7071 207.0282 353.7422)" gradientUnits="userSpaceOnUse" x1="-344.2881" x2="-330.7238" y1="94.6846" y2="119.4819"><stop offset="0" stop-color="#4a310d"/><stop offset=".0958" stop-color="#604620"/><stop offset=".3906" stop-color="#9d8056"/><stop offset=".6406" stop-color="#caab7d"/><stop offset=".8333" stop-color="#e6c595"/><stop offset=".9455" stop-color="#f0cf9e"/></linearGradient><radialGradient id="h" cx="-292.5342" cy="106.6621" gradientTransform="matrix(.8356 .8162 .7511 -.7337 213.1225 348.7664)" gradientUnits="userSpaceOnUse" r="15.1691" xlink:href="#a"/><linearGradient id="i" gradientTransform="matrix(.7071 .7071 .7071 -.7071 207.0282 353.7422)" gradientUnits="userSpaceOnUse" x1="-365.2246" x2="-318.8965" y1="103.5234" y2="103.5234"><stop offset="0" stop-color="#ffecba"/><stop offset=".3995" stop-color="#feeab8"/><stop offset=".6306" stop-color="#fce4af"/><stop offset=".8182" stop-color="#f8daa1"/><stop offset=".9825" stop-color="#f3cb8e"/><stop offset="1" stop-color="#f2c98b"/></linearGradient><path d="m2.885 7.183c-.885-3.753 2.762-6.533 5.463-4.495 1.418 1.071-5.463 4.495-5.463 4.495z" fill="url(#b)"/><path d="m2.7 12.692c-3.173-5.206 5.055-13.709 12.394-8.882.988.647-12.394 8.882-12.394 8.882z" fill="url(#c)"/><path d="m3.928 22.463c-7.837-15.561 10.934-23.739 17.697-15.328.751.935-17.697 15.328-17.697 15.328z" fill="url(#d)"/><path d="m8.467 38.718c-16.683-24.728 9.434-41.403 22.429-26.16.773.907-22.429 26.16-22.429 26.16z" fill="url(#e)"/><path d="m49.099 60.478c-33.663 9.527-61.359-27.878-25.571-50.569 5.961-3.78 17.325 10.661 16.339 18.225-2.063 15.845 9.232 32.344 9.232 32.344z" fill="url(#f)"/><path d="m33.044 18.988c35.972 2.215 33.702 41.755 15.443 42.307-18.659-10.953-15.84-15.738-15.443-42.307z" fill="url(#g)"/><path d="m32.304 15.396c31.438 5.758 32.82 27.572 27.006 38.488 5.296-16.331-4.081-31.878-26.009-34.644-.123-.982-.862-2.802-.997-3.844z" fill="url(#h)"/><path d="m31.061 13.203c8.837 12.817-5.939 34.539 17.426 48.092-27.668-6.311-13.469-37.476-17.426-48.092z" fill="url(#i)"/><g fill="#e0b97b"><path d="m6.838 33.386c3.212-15.366 17.506-23.871 17.506-23.871s-16.413 6.688-17.506 23.871z"/><path d="m3.487 19.334c3.205-11.123 13.993-12.552 13.993-12.552s-12.216.243-13.993 12.552z"/><path d="m2.75 11.39c2.764-6.032 9.098-7.401 9.098-7.401s-7.208.602-9.098 7.401z"/><path d="m3.068 6.668c1.8-2.756 4.863-3.864 4.863-3.864s-3.443.497-4.863 3.864z"/></g></svg>