<svg enable-background="new 0 0 64 64" height="64" viewBox="0 0 64 64" width="64" xmlns="http://www.w3.org/2000/svg"><path d="m19.614 13.529c.493-6.664 8.582-6.994 8.582-6.994-10.381-3.603-12.677 6.595-12.039 7.303.852.948 3.342 1.235 3.457-.309z" fill="#8a6859"/><path d="m6.39 30.578c1.733-1.861.761-4.84.761-4.84l3.216-.62c1.063 5.025-.57 6.313-.57 6.313-.071-1.018-.586-1.675-.586-1.675-.366 1.748-1.807 2.232-1.807 2.232.65-1.107.761-2.295.761-2.295-.697.899-1.775.885-1.775.885z" fill="#baa495"/><path d="m19.182 57.424h3.753c.253-1.025.516-1.582.758-1.885l-3.586-2.629c-.507 1.346-.925 2.83-.925 4.514z" fill="#8a6859"/><path d="m28.465 32.406c0-6.947-9.054.518-9.054.518s.766 6.723 2.386 13.879c.399 1.758-.785 3.703-1.691 6.107l3.586 2.629c.513-.645.919-.117.877-.445-1.035-8.105 2.094-4.117.868-8.328-1.881-6.469 3.028-5.756 3.028-14.36z" fill="#d1bcad"/><path d="m46.493 57.424h3.754c.252-1.023.515-1.582.758-1.885l-3.586-2.627c-.507 1.344-.926 2.83-.926 4.512z" fill="#8a6859"/><path d="m51.7 32.408c1.852-6.63-12.109.514-12.109.514s2.465 9.643 9.52 13.883c1.425.855-.788 3.703-1.691 6.107l3.586 2.627c.513-.643.919-.115.876-.443-1.035-8.109 2.095-4.119.869-8.33-1.883-6.467-3.054-7.19-1.051-14.358z" fill="#d1bcad"/><path d="m57.197 30.078c-4.158-4.702 1.402-4.058-.88-11.645 6.72 6.147 2.502 13.479.88 11.645z" fill="#baa495"/><path d="m45.806 22.601c-13.321 1.885-12.611-1.703-19.563-1.703-1.812 0-3.885-3.839-4.956-5.618-2.227-3.698-10.655 3.038-6.929 7.622 3.493 4.297 1.894 13.079 8.231 17.252 10.373 6.834 24.25 2.936 33.025-2.105 6.237-3.582.684-16.933-9.808-15.448z" fill="#e1d3c8"/><path d="m9.243 15.764c1.349-1.169.624-4.306 8.208-4.645 7.26-.324 8.337 13.356-3.327 13.745-7.083.236-7.201 2.829-8.122.003-1.748.338-.708-.944-1.674-2.522-.64-1.047-.927-1.52 4.915-6.581z" fill="#e1d3c8"/><path clip-rule="evenodd" d="m6.175 22.041s-.91 1.027-1.215.462c-.422-.785 1.159-.902 1.215-.462z" fill="#302c3b" fill-rule="evenodd"/><path d="m6.198 25.376c-.136-.284-.196-.508-.196-.508s1.842-.272 3.883-1.204c-1.329 1.2-3.687 1.712-3.687 1.712z" fill="#302c3b"/><path d="m17.969 15.366c6.449.014 7.541-6.594 6.673-6.432-1.357.25-5.028.588-8.134 2.463-.334.203.653 3.967 1.461 3.969z" fill="#e1d3c8"/><path d="m18.695 14.665c4.429-.075 5.943-5.188 5.166-5.031-5.257 1.062-5.973 5.044-5.166 5.031z" fill="#baa495"/><path d="m18.692 14.665c.159-.002.305-.025.458-.04.737-1.566 2.084-3.342 4.289-4.887-4.864 1.187-5.529 4.939-4.747 4.927z" fill="#967668"/><path clip-rule="evenodd" d="m12.01 15.23s1.642-.207 2.338 1.144c0 0-.854 1.608-2.249.988-.753-.336-.089-2.132-.089-2.132z" fill="#302c3b" fill-rule="evenodd"/><path d="m12.453 15.785c-.052.528-.436.464-.381-.063.039-.403.421-.339.381.063z" fill="#fff"/><path d="m25.05 62h3.754c.252-1.023.515-1.582.757-1.883l-3.586-2.629c-.505 1.344-.925 2.832-.925 4.512z" fill="#8a6859"/><path d="m34.334 36.984c0-6.949-9.054.516-9.054.516s.767 6.723 2.388 13.881c.398 1.758-.788 3.703-1.693 6.107l3.586 2.629c.515-.645.921-.117.877-.445-1.034-8.107 2.094-4.117.869-8.328-1.882-6.467 3.027-5.758 3.027-14.36z" fill="#e1d3c8"/><path d="m52.688 62h3.753c.254-1.023.516-1.582.757-1.883l-3.585-2.629c-.507 1.344-.925 2.832-.925 4.512z" fill="#8a6859"/><g fill="#e1d3c8"><path d="m57.197 36.609c2.758-7-11.413.891-11.413.891s2.467 9.643 9.521 13.881c1.424.857-.789 3.703-1.693 6.107l3.585 2.629c.515-.645.921-.117.878-.445-1.034-8.107 2.094-4.117.869-8.328-1.883-6.467-4.476-7.803-1.747-14.735z"/><path d="m40.994 44.762c-1.036-1.49-.416-3.523-.416-3.523l-9.036.234c1.034 3.297 3.194 4.732 3.194 4.732-.389-1.465.085-2.643.085-2.643.792 2.063 3.482 2.846 3.482 2.846-.911-1.521-.551-2.539-.551-2.539 1.449 1.219 3.242.893 3.242.893z"/><path d="m21.658 41.045c.479-1.742 2.458-2.607 2.458-2.607l-6.076-6.551c-1.878 2.918-1.583 5.456-1.583 5.456.882-1.242 2.104-1.66 2.104-1.66-1.082 1.934.067 4.439.067 4.439.583-1.668 1.606-2.063 1.606-2.063.002 1.869 1.424 2.986 1.424 2.986z"/></g><path d="m17.383 12.666c-1.842-7.519 6.96-10.656 6.96-10.656-12.737-.414-11.619 11.622-10.662 12.184 1.277.751 4.128.215 3.702-1.528z" fill="#8a6859"/></svg>