<svg enable-background="new 0 0 64 64" height="64" viewBox="0 0 64 64" width="64" xmlns="http://www.w3.org/2000/svg" xmlns:xlink="http://www.w3.org/1999/xlink"><linearGradient id="a"><stop offset="0" stop-color="#ffc800"/><stop offset=".329" stop-color="#ffc500"/><stop offset=".5911" stop-color="#fb0"/><stop offset=".8293" stop-color="#fa0"/><stop offset="1" stop-color="#f90"/></linearGradient><linearGradient id="b" gradientUnits="userSpaceOnUse" x1="32.9219" x2="27.0467" xlink:href="#a" y1="27.7915" y2="45.2296"/><linearGradient id="c"><stop offset="0" stop-color="#b3806a"/><stop offset=".4547" stop-color="#956b58"/><stop offset=".9515" stop-color="#785647"/></linearGradient><linearGradient id="d" gradientUnits="userSpaceOnUse" x1="38.4531" x2="31.953" xlink:href="#c" y1="29.5825" y2="46.7705"/><linearGradient id="e" gradientUnits="userSpaceOnUse" x1="43.3906" x2="37.5156" xlink:href="#a" y1="31.3188" y2="48.7563"/><linearGradient id="f" gradientUnits="userSpaceOnUse" x1="48.876" x2="42.3758" xlink:href="#c" y1="33.5244" y2="50.7123"/><linearGradient id="g" gradientUnits="userSpaceOnUse" x1="53.9355" x2="48.0606" xlink:href="#a" y1="34.8721" y2="52.3095"/><linearGradient id="h" gradientUnits="userSpaceOnUse" x1="59.2461" x2="52.7461" xlink:href="#c" y1="37.4463" y2="54.6338"/><linearGradient id="i" gradientUnits="userSpaceOnUse" x1="15.9087" x2="34.7578" y1="34.2109" y2="34.2109"><stop offset="0" stop-color="#a85a00"/><stop offset=".1826" stop-color="#ae5f00"/><stop offset=".4366" stop-color="#c06c00"/><stop offset=".731" stop-color="#de8100"/><stop offset="1" stop-color="#f90"/></linearGradient><linearGradient id="j" gradientUnits="userSpaceOnUse" x1="17.2783" x2="32.0938" y1="33.8213" y2="33.8213"><stop offset="0" stop-color="#753317"/><stop offset=".1458" stop-color="#7b3716"/><stop offset=".3486" stop-color="#8d4212"/><stop offset=".5848" stop-color="#ab550d"/><stop offset=".8442" stop-color="#d46e05"/><stop offset="1" stop-color="#f08000"/></linearGradient><radialGradient id="k" cx="11.708" cy="30.9175" gradientTransform="matrix(.7071 .7071 -1.0674 1.0674 36.4305 -10.3626)" gradientUnits="userSpaceOnUse" r="7.926"><stop offset="0" stop-color="#d1853d"/><stop offset=".1741" stop-color="#cc813c"/><stop offset=".3852" stop-color="#bd753a"/><stop offset=".6156" stop-color="#a46136"/><stop offset=".8579" stop-color="#834530"/><stop offset="1" stop-color="#6b322c"/></radialGradient><radialGradient id="l" cx="12.4751" cy="31.2544" gradientTransform="matrix(.7071 .7071 -1.3098 1.3098 44.5923 -18.5052)" gradientUnits="userSpaceOnUse" r="3.2367"><stop offset="0" stop-color="#5b666e"/><stop offset=".2523" stop-color="#545d66"/><stop offset=".6624" stop-color="#424551"/><stop offset="1" stop-color="#302c3b"/></radialGradient><path d="m30.811 59.151c-1.844-1.58-3.443-10.154-3.977-4.592-.461 4.79 7.576 7.694 3.977 4.592z" fill="#45332c"/><path d="m31.291 48.124c-.746.48-4.266-.932-3.264-2.065 4.838-5.475 5.108.874 3.264 2.065z" fill="#45332c"/><path d="m30.223 45.758c1.309.626.287 7.392-.992 8.853-.318.361-4.844-.088-4.334-.73 2.082-2.634 4.08-8.715 5.326-8.123z" fill="#45332c"/><path d="m29.596 45.416 5.98-16.43c-4.959-.436-6.852 2.518-8.232 6.307-1.379 3.791-1.826 7.271 2.252 10.123z" fill="url(#b)"/><path d="m33.994 47.604c.225.082.438.15.658.23l6.35-17.449c-.217-.084-.428-.168-.652-.25-1.859-.676-3.424-1.031-4.773-1.15l-5.98 16.43c1.11.778 2.538 1.512 4.397 2.189z" fill="url(#d)"/><path d="m40.006 49.433 6.125-16.832c-1.52-.756-3.223-1.5-5.129-2.215l-6.35 17.449c1.92.676 3.703 1.201 5.354 1.598z" fill="url(#e)"/><path d="m45.596 50.378 5.426-14.907c-1.373-.959-2.99-1.924-4.891-2.87l-6.125 16.832c2.062.498 3.922.798 5.59.945z" fill="url(#f)"/><path d="m51.588 50.224 3.924-10.782c-1.092-1.266-2.551-2.611-4.49-3.971l-5.426 14.907c2.361.207 4.342.111 5.992-.154z" fill="url(#g)"/><path d="m55.512 39.441-3.924 10.782c5.059-1.461 6.201-1.045 6.201-1.045s1.236-5.664-2.277-9.737z" fill="url(#h)"/><path d="m46.588 2c-19.494 6.417-23.418 28.107-23.418 28.107s32.939-2.194 23.418-28.107z" fill="#8fbedb" opacity=".6"/><path d="m24.996 30.818s39.004 8.657 36.924-19.563c-24.856-.166-36.924 19.563-36.924 19.563z" fill="#8fbedb" opacity=".6"/><g fill="#45332c"><path d="m13.703 37.553c-.49.209.727 1.791 1.256 1.742 2.59-.242 5.103-4.445-1.256-1.742z"/><path d="m12.307 39.797c-.115.143 1.275 2.062 1.432 1.79 1.122-1.947 2.539-6.737-1.432-1.79z"/><path d="m13.165 44.204c-.264-1.828 1.07-4.82-.316-4.178-1.192.555.832 7.753.316 4.178z"/><path d="m19.033 42.512c-.401.341 1.438 1.227 1.879.938 2.164-1.413 2.258-4.455-1.879-.938z"/><path d="m20.055 42.598c-.822-.316-2.377 1.893-2.201 2.762.045.215 2.369 1.774 2.318 1.411-.209-1.486.666-3.871-.117-4.173z"/><path d="m20.42 49.558c-.865-1.604-.645-4.829-1.709-3.765-.918.921 3.398 6.899 1.709 3.765z"/></g><path d="m35.789 60.837c-2.076-1.26-5.049-9.459-4.672-3.883.324 4.801 8.727 6.359 4.672 3.883z" fill="#8a6151"/><path d="m33.031 47.716c1.395.406 1.484 7.25.461 8.896-.256.41-4.795.703-4.396-.016 1.627-2.935 2.609-9.259 3.935-8.88z" fill="#785647"/><path d="m33.027 40.584c1.125 0 3.066 7.819 1.441 9.294-.658.596-4.945-.91-3.555-1.508 1.692-.724 1.382-7.788 2.114-7.786z" fill="#6e4f41"/><path d="m34.758 37.18-2.305-.631c.863-1.354 2.199-1.514 2.199-1.514-.395-3.051-3.236-4.04-3.236-4.04.465.006 1.998-.242 1.998-.242-1.67-3.104-4.793-3.273-6.006-3.4l1.631-1.193s-3.107-.73-5.105.753c.322-.446 1.23-1.94 1.23-1.94-8.01 1.073-12.037 12.073-7.094 16.518 0 0 .992-.535 1.324-1.07.9 2.557 3.08 2.813 3.08 2.813l.17-1.324c1.066.645 2.627 2.088 5.367 1.324 0 0-.299-1.027-.623-1.363 0 0 2.465 1.135 4.898-.695 0 0-.811-.889-1.34-.982 2.435-.344 3.812-3.014 3.812-3.014z" fill="url(#i)"/><path d="m32.094 36.154-1.813-.496c.68-1.064 1.729-1.189 1.729-1.189-.311-2.399-2.543-3.174-2.543-3.174.365.004 1.57-.191 1.57-.191-1.313-2.439-3.768-2.572-4.721-2.673l1.281-.938s-2.441-.574-4.012.592c.254-.351.967-1.524.967-1.524-6.295.843-9.461 9.489-5.576 12.981 0 0 .781-.42 1.043-.84.705 2.01 2.42 2.211 2.42 2.211l.133-1.041c.838.506 2.064 1.641 4.219 1.041 0 0-.236-.809-.49-1.072 0 0 1.938.893 3.852-.545 0 0-.639-.699-1.055-.773 1.914-.271 2.996-2.369 2.996-2.369z" fill="url(#j)"/><path d="m7.063 35.35c-1.656 1.535-2.094 4.516 1.391 2.297z" fill="#45332c"/><path d="m14.863 27.158c-3.375-4.48-7.162-5.318-7.313-4.963-1.668 3.947-5.354 6.163-5.154 6.742.334.961 5.578-3.045 5.576-5.544.002-.452 3.488 1.216 5.531 4.173.206.292 1.571-.121 1.36-.408z" fill="#45332c"/><path d="m19.293 35.719c-10.094 4.637-15.66 2.955-10.697-4.907 10.568-16.723 21.306.039 10.697 4.907z" fill="url(#k)"/><path d="m13.781 35.693c-4.857 2.408-7.391-.631-3.895-4.586 8.671-9.815 14.178-.512 3.895 4.586z" fill="url(#l)"/><path d="m8.617 34.383c-.113.525 5.311-5.686 4.967-5.793-.193-.061-4.289 2.675-4.967 5.793z" fill="#6e8189"/><path d="m16.047 25.205c-2.055-6.019-5.842-8.27-6.127-7.943-3.18 3.648-7.934 4.71-7.92 5.405.02 1.149 7.076-1.28 7.951-3.968.158-.484 3.336 2.555 4.496 6.459.116.386 1.735.431 1.6.047z" fill="#45332c"/><path d="m15.131 45.441c-.613-1.742.115-4.938-1.121-4.035-1.063.776 2.32 7.445 1.121 4.035z" fill="#8a6151"/><path d="m15.693 39.396c-.646-.373-2.234 1.268-2.203 2.02.008.184 1.746 1.791 1.752 1.48.022-1.265 1.065-3.144.451-3.5z" fill="#785647"/><path d="m14.244 39.242c-.521.105 1.059 1.615 1.568 1.465 2.496-.74 6.078-4.668 5.408-5.385-.515-.554-4.173 3.362-6.976 3.92z" fill="#6e4f41"/><path d="m23.49 51.421c-1.422-1.33-2.295-4.668-3.008-3.229-.617 1.243 5.784 5.829 3.008 3.229z" fill="#8a6151"/><path d="m20.756 44.5c-.941-.041-1.764 2.724-1.289 3.542.117.205 3 .99 2.824.641-.717-1.432-.641-4.144-1.535-4.183z" fill="#785647"/><path d="m19.6 44.75c-.387.41 1.871.754 2.221.311 1.711-2.164 2.471-7.762 1.469-7.975-.776-.166-1.604 5.467-3.69 7.664z" fill="#6e4f41"/></svg>