<svg enable-background="new 0 0 64 64" height="64" viewBox="0 0 64 64" width="64" xmlns="http://www.w3.org/2000/svg"><path d="m9.037 17.609s3.552.924.428 4.455c6.906-2.062 10.327-8.939-.428-4.455z" fill="#302c3b"/><path clip-rule="evenodd" d="m21.285 3.947c.32-1.791 2.791 1.613 2.164 6.688 0 0-2.326-.578-3.902-.797-.001.001 1.031-1.95 1.738-5.891z" fill="#b47d56" fill-rule="evenodd"/><path clip-rule="evenodd" d="m51.527 40.016c.301-7.618-11.016 3.921-11.016 3.921 3.232 5.481 10.246 7.006 9.955 14.33-.045 1.124-5.08-.249-5.08 3.733h8.67c3.641-5.516-2.626-19.54-2.529-21.984z" fill="#b47d56" fill-rule="evenodd"/><path clip-rule="evenodd" d="m22.316 42.609c-.406 5.661 4.453 8.204 4.854 15.657.076 1.406-5.26.114-5.26 3.733h7.814c2.672-9.021 2.549-13.729.584-19.497 0 .001-7.904-1.135-7.992.107z" fill="#b47d56" fill-rule="evenodd"/><path d="m49.666 29.4c5.199-.355 11.557-12.355 11.371-7.31-.164 4.47-4.162 8.745-4.223 13.198z" fill="#c4926e"/><g clip-rule="evenodd" fill-rule="evenodd"><path d="m61.752 48.532c-.268-1.632-4.363-4.372-3.146-6.503 1.941-3.402 2.818-11.161-4.693-13.855-3.904-1.396-17.73 1.723-23.215-3.424-3.479-3.264 1.063-18.158-4.955-22.623-1.375-1.021-1.893 4.322-3.215 7.262-17.596.716-20.264 3.414-20.264 4.783 0 1.576.551 3.343 1.92 3.986 4.125 1.938 12.5-3.875 9.687.172-2.4 3.453-8.363 3.313-7.937 3.641 4.409 3.404 11.335 2.438 11.335 2.438-.729 13.384 2.563 31.163.924 33.858-.732 1.21-5.26.113-5.26 3.732h7.816c4.008-7.162 4.676-11.168 5.438-14.719 0 0 14.377 2.068 22.387-5.252 3.232 5.48 5.807 7.783 7.947 9.148 1.164.742-.838 5.895-1.564 7.09-.586.965-5.08-.25-5.08 3.732h8.668c3.641-5.514 3.768-10.057 3.207-13.466z" fill="#d6a57c"/><path d="m18.773 11.971s1.947-.243 2.775 1.344c0 0-1.014 1.89-2.67 1.159-.894-.394-.105-2.503-.105-2.503z" fill="#302c3b"/><path d="m24.812 3.577c.32-1.791 1.678 1.454 1.051 6.528 0 0-1.213-.418-2.789-.637 0 .001 1.031-1.95 1.738-5.891z" fill="#785647"/><path d="m4.643 11.964s-4.442-.386-1.807 4.825c.467.922 1.238-3.399 1.807-4.825z" fill="#302c3b"/></g><path d="m50.42 27.774s-15.273.297-19.358-2.704c-6.746 9.094 1.438 14.292 6.36 10.557 7.553-5.732 20.09 1.045 12.998-7.853z" fill="#b47d56"/><path d="m16.974 31.033v-3.406c8.633-.657 12.547-6.203 12.547-6.203l1.176 3.203c-.197.289-4.615 5.713-13.723 6.406z" fill="#8cdbb3"/><path d="m17.091 36.721-.234-4.902c1.68-1.176 3.498-.545 3.498-.545l.25 5.135c0-.001-1.984 1.14-3.514.312z" fill="#cfd8dd"/><path d="m17.274 34.719-.063-1.219c1.354-.672 2.922-1.391 2.922-1.391l.063 1.234c0 .001-1.297.72-2.922 1.376z" fill="#fff"/><path d="m17.33 36.016-.031-.563c1.354-.672 2.922-1.391 2.922-1.391l.031.578c-.001.001-1.297.719-2.922 1.376z" fill="#fff"/><path d="m18.011 32.279-.234-4.902c.453-.426 1.261-.188 1.261-.188l.258 4.811c-.197.289-.832.498-1.285.279z" fill="#302c3b"/><path d="m26.187 47.281s.647-2.694.647-5.644c0 0 1.637 4.872 2.899 5.899.001.001-2.347.001-3.546-.255z" fill="#c4926e"/><path d="m11.69 20.254c-7.047.123-10.471 5.592-8.475 5.592 2.859 0 3.094-2.868 8.475-5.592z" fill="#e03636"/><path d="m19.351 12.623c-.065.671-.546.591-.479-.08.051-.512.53-.432.479.08z" fill="#fff"/></svg>