<svg enable-background="new 0 0 64 64" height="64" viewBox="0 0 64 64" width="64" xmlns="http://www.w3.org/2000/svg" xmlns:xlink="http://www.w3.org/1999/xlink"><linearGradient id="a" gradientUnits="userSpaceOnUse" x1="32.1245" x2="32.1245" y1="53.4102" y2="16.4971"><stop offset="0" stop-color="#bac2c7"/><stop offset=".3704" stop-color="#d2d8dd"/><stop offset=".7154" stop-color="#e1e6ea"/><stop offset="1" stop-color="#e6ebef"/></linearGradient><linearGradient id="b" gradientUnits="userSpaceOnUse" x1="11.7295" x2="32.7481" y1="30.394" y2="49.8428"><stop offset="0" stop-color="#e6ebef"/><stop offset=".3961" stop-color="#e1e7eb"/><stop offset=".8755" stop-color="#d2dadf"/><stop offset="1" stop-color="#cdd6db"/></linearGradient><linearGradient id="c" gradientUnits="userSpaceOnUse" x1="17.958" x2="3.2062" y1="33.7324" y2="16.9584"><stop offset="0" stop-color="#cfd8dd"/><stop offset=".0807" stop-color="#d2dbdf"/><stop offset=".5842" stop-color="#e1e7eb"/><stop offset="1" stop-color="#e6ebef"/></linearGradient><linearGradient id="d" gradientTransform="matrix(-.8876 -.4606 -.4606 .8876 166.3605 40.4708)" gradientUnits="userSpaceOnUse" x1="148.3389" x2="148.3389" y1="59.8135" y2="47.8047"><stop offset="0" stop-color="#f5000d"/><stop offset=".5763" stop-color="#d90b10"/><stop offset="1" stop-color="#c21413"/></linearGradient><linearGradient id="e" gradientUnits="userSpaceOnUse" x1="14.0396" x2="14.0395" y1="13.8896" y2="2"><stop offset=".097" stop-color="#c21413"/><stop offset=".2661" stop-color="#d50d11"/><stop offset=".4907" stop-color="#e7060f"/><stop offset=".7286" stop-color="#f2010d"/><stop offset="1" stop-color="#f5000d"/></linearGradient><path d="m27.304 51.463c1.623 7.624-1.189 6.884-1.101 7.37-.341.482-3.088.072-3.104.699-1.199.668-.888.887-.003.627.594.092 4.532.236 4.771-.254.296.5.517.744.771.744.208 0 .478-.545.802-.816 1.291.408 1.988-.123 2.86.182-.189-.904-2.731-.888-3.06-2.711-.591-3.268 1.924-2.195 1.825-3.432-.401.241-3.009.945-1.443-2.549-1.394-.529-2.318.14-2.318.14z" fill="#de8f01"/><path d="m22.053 52.683c1.136 5.117-2.593 6.608-2.495 7.18-.37.566-3.329.086-3.344.823-1.297.786-.962 1.042-.006.737.641.107 4.886.277 5.14-.299.32.588.558.876.833.876.224 0 .517-.642.862-.962 1.392.48 2.145-.145 3.084.215-.203-1.064-2.457-.417-2.746-2.571-.411-3.044 2.591-1.607 2.384-2.88-.433.283-2.849.588-1.012-2.958-1.501-.622-2.7-.161-2.7-.161z" fill="#f59e01"/><path d="m23.902 50.552c5.299 5.953 7.305-.289 6.728-2.389-.74-2.702-7.133 1.934-6.728 2.389z" fill="#99a8ae"/><path d="m60 27.669c-5.795-14.846-24.003-14.32-27.459-1.835-2.781 10.024-12.704 3.291-12.938-1.055 0 0-5.546-2.115-12.628.97-8.491 11.211 5.509 17.429 6.057 18.536 2.347 4.74 6.384 5.391 6.999 6.424 1.821 3.054 4.254 4.172 7.079-.156 1.024-1.566 8.241-2.256 11.408-9.455 2.708 0 3.827 1.514 4.76 3.322 1.313-4.094-1.414-8.563-1.414-8.563 2.12 1.478 5.414 3.346 6.404 6.948.896-4.439-.036-9.019-2.167-11.208 2.455 1.241 9.133 3.377 10.88 6.842-.548-6.07-3.828-11.611-6.838-13.801.001 0 6.667.431 9.857 3.031z" fill="url(#a)"/><path d="m30.13 43.399c2.728 1.053 5.512 1.719 8.034 1.741-12.136-8.123-15.016-18.643-19.904-17.468-1.579.38-7.921 2.918-8.907 3.155-10.374 2.498 7.757 17.359 19.906 17.468-2.061-1.379-3.834-2.826-5.416-4.273 3.638 1.801 7.584 3.033 11.049 3.064-1.782-1.191-3.347-2.436-4.762-3.687z" fill="url(#b)"/><path d="m8.084 13.229c.727-2.747 6.527-4.001 9.645 3.011 3.009 6.769.564 9.492 5.223 13.102-1.224.021-4.142-.266-4.142-.266l.281 2.813-3.75-1.438-.5 3.219-3.337-1.813-1.318 4.313-2.563-3.313s-2.119 2.527-2.373 4.521c-5.612-12.737 9.938-15.596 2.834-24.149z" fill="url(#c)"/><path d="m8.817 20.917c-.562 5.599-7.037 3.043-4.02-1.502 2.723-4.099 7.102-6.12 7.102-6.12s-2.814 4.935-3.082 7.622z" fill="#c21413"/><path d="m10.092 14.699s-3.762-1.086-5.744 1.553c1.786-.892 5.131 1.637 5.744-1.553z" fill="#d47706"/><path d="m9.781 15.435c1.19-1.19-.479-3.211-2.011-2.913-3.17.618-3.522 3.854-3.522 3.854 2.148-1.807 3.901.693 5.533-.941z" fill="#f59e01"/><path d="m14.418 14.22c0 1.566-1.468 2.835-3.279 2.835-1.808 0-3.277-1.269-3.277-2.835s1.47-2.835 3.277-2.835c1.811-.001 3.279 1.268 3.279 2.835z" fill="#c41c27"/><path d="m7.017 20.9c-3.881 4.357 2.771 6.602 4.064 1.453 1.169-4.643-.458-8.842-.458-8.842s-1.741 5.3-3.606 7.389z" fill="url(#d)"/><path d="m17.807 9.56c.474-1.615-1.311-3.296 2.599-5.578 0 0-6.088-.611-7.138 4.185-1.824-2.669.711-6.167.711-6.167s-6.243 1.051-5.275 7.462c-1.826-1.24-1.301-4.417-1.301-4.417s-2.972 2.629-2.122 5.855c.496 1.88 2.396 3.775 4.015 2.208.487-.474 1.707-1.224 2.449-1.433.552-.156 1.94-.095 2.808.541.802.587 1.391 1.617 2.557 1.668 4.944.217 5.842-6.04 5.842-6.04s-2.377 1.76-5.145 1.716z" fill="url(#e)"/><path d="m10.562 14.611c-1.548 0-1.548-2.419 0-2.419 1.544 0 1.544 2.419 0 2.419z" fill="#302c3b"/><path d="m10.354 12.979c0 .421-.647.421-.647 0-.001-.422.647-.422.647 0z" fill="#6e8189"/><path d="m37.269 27.669c11.365-6.406 22.731 0 22.731 0s-13.024-11.698-22.731 0z" fill="#cfd8dd"/><path d="m36.726 31.18c10.959-1.5 20.256 7.259 20.256 7.259s-7.588-12.759-20.256-7.259z" fill="#cfd8dd"/><g fill="#c7cfd4"><path d="m34.144 35.638c10.958-1.5 14.229 7.25 14.229 7.25s-1.563-12.75-14.229-7.25z"/><path d="m34.352 40.138c7.458 1.396 8.927 4.281 8.927 4.281s-.268-5.981-8.927-4.281z"/></g></svg>