<svg enable-background="new 0 0 64 64" height="64" viewBox="0 0 64 64" width="64" xmlns="http://www.w3.org/2000/svg" xmlns:xlink="http://www.w3.org/1999/xlink"><linearGradient id="a" gradientUnits="userSpaceOnUse" x1="2.9497" x2="18.1206" y1="18.0137" y2="18.0137"><stop offset="0" stop-color="#ffa194"/><stop offset="1" stop-color="#bd6c6c"/></linearGradient><linearGradient id="b" gradientUnits="userSpaceOnUse" x1="45.8691" x2="61.04" y1="18.0137" y2="18.0137"><stop offset="0" stop-color="#bd6c6c"/><stop offset="1" stop-color="#ffa194"/></linearGradient><linearGradient id="c" gradientUnits="userSpaceOnUse" x1="32.0059" x2="32.0059" y1="62" y2="8.0005"><stop offset="0" stop-color="#855f4e"/><stop offset="1" stop-color="#b39284"/></linearGradient><linearGradient id="d" gradientUnits="userSpaceOnUse" x1="32.0059" x2="32.0059" y1="57.5068" y2="36.6143"><stop offset="0" stop-color="#4a2f24"/><stop offset=".2508" stop-color="#664639"/><stop offset=".5259" stop-color="#7e594a"/><stop offset=".7824" stop-color="#8c6554"/><stop offset="1" stop-color="#916958"/></linearGradient><linearGradient id="e"><stop offset=".2242" stop-color="#171417"/><stop offset=".3809" stop-color="#382a26"/><stop offset=".5379" stop-color="#513a31"/><stop offset=".6803" stop-color="#614439"/><stop offset=".7939" stop-color="#66483b"/></linearGradient><radialGradient id="f" cx="-25.6191" cy="66.2793" gradientTransform="matrix(.9134 .2442 -.3804 1.4674 84.6707 -42.3022)" gradientUnits="userSpaceOnUse" r="5.7651" xlink:href="#e"/><radialGradient id="g" cx="1406.3525" cy="66.2793" gradientTransform="matrix(-.9134 .2442 .3804 1.4674 1287.2698 -391.9619)" gradientUnits="userSpaceOnUse" r="5.7645" xlink:href="#e"/><path d="m39.86 11.309c-.239-4.031-3.53-6.763-3.53-6.763-.488 1.664-1.472 2.964-1.472 2.964-1.312-3.308-5.152-5.51-5.152-5.51.866 2.871.651 5.324.651 5.324-2.252-1.109-4.46-.669-4.46-.669 1.515 2.038 1.212 4.655 1.212 4.655h12.751z" fill="#b39284"/><path d="m22.505 12.507c-1.84-3.948-6.492-5.591-12.752-5.802-2.352-.08-11.414-2.614-6.131 3.904 3.453 4.262-.32 15.619 4.826 18.822 6.132 3.817 15.901-12.968 14.057-16.924z" fill="#ad8c7d"/><path d="m10.458 9.672c-2.251-1.312-9.998-3.785-6.705.016 5.348 6.172-.32 20.786 9 18.419l5.367-10.488c-3.794-2.619-4.525-6.122-7.662-7.947z" fill="url(#a)"/><path d="m41.484 12.507c1.838-3.948 6.492-5.591 12.75-5.802 2.354-.08 11.416-2.614 6.133 3.904-3.455 4.262.32 15.619-4.826 18.822-6.131 3.817-15.9-12.968-14.057-16.924z" fill="#ad8c7d"/><path d="m53.531 9.672c2.252-1.312 9.998-3.785 6.705.017-5.348 6.172.32 20.786-9 18.419l-5.367-10.488c3.793-2.62 4.526-6.123 7.662-7.948z" fill="url(#b)"/><path d="m57.006 47.639c0 9.932-19.17 14.361-25 14.361s-25-4.43-25-14.361c-.001-21.008 5.494-39.639 24.999-39.639 19.509 0 25.001 18.631 25.001 39.639z" fill="url(#c)"/><ellipse cx="43.379" cy="30.354" fill="#302c3b" rx="3.5" ry="4.5"/><path d="m42.738 28.418c0 1.365-1.75 1.365-1.75 0 0-1.363 1.75-1.363 1.75 0z" fill="#6e8189"/><ellipse cx="20.632" cy="30.5" fill="#302c3b" rx="3.5" ry="4.5"/><path d="m19.996 28.564c0 1.363-1.75 1.363-1.75 0s1.75-1.363 1.75 0z" fill="#6e8189"/><path d="m21.591 47.816c-1.246-4.24-11.563-15.867-11.563-15.867s4.84 21.503 12.563 21.503c0 0-.391-3.564-1-5.636z" fill="#fff3e0"/><path d="m42.42 47.816c1.246-4.24 11.564-15.867 11.564-15.867s-4.84 21.503-12.564 21.503c0 0 .392-3.564 1-5.636z" fill="#fff3e0"/><path d="m32.007 59c-4.655 0-6.571-3.744-5.073-3.266.861.275 9.282.275 10.142 0 1.5-.474-.418 3.266-5.069 3.266z" fill="#19171f"/><path d="m44.542 50.116c0 9.854-25.073 9.854-25.073 0 0-6.41 6.728-13.502 12.535-13.502 5.811 0 12.538 7.092 12.538 13.502z" fill="url(#d)"/><path d="m36.216 53.263c-5.786 0-1.171-11.288 2.157-9.647 4.49 2.218 3.623 9.647-2.157 9.647z" fill="url(#f)"/><path d="m27.797 53.263c5.783 0 1.168-11.288-2.159-9.647-4.49 2.218-3.622 9.647 2.159 9.647z" fill="url(#g)"/></svg>