<svg enable-background="new 0 0 64 64" height="64" viewBox="0 0 64 64" width="64" xmlns="http://www.w3.org/2000/svg" xmlns:xlink="http://www.w3.org/1999/xlink"><linearGradient id="a"><stop offset=".6606" stop-color="#f59e01"/><stop offset=".7191" stop-color="#f29c02"/><stop offset=".7576" stop-color="#ea9704"/><stop offset=".7902" stop-color="#db8f09"/><stop offset=".8196" stop-color="#c5820f"/><stop offset=".8469" stop-color="#aa7317"/><stop offset=".8726" stop-color="#885f21"/><stop offset=".8969" stop-color="#60482d"/><stop offset=".9197" stop-color="#332e3a"/><stop offset=".9212" stop-color="#302c3b"/></linearGradient><radialGradient id="b" cx="54.749" cy="12.9463" gradientTransform="matrix(1.0001 0 0 .8911 -.2494 1.4104)" gradientUnits="userSpaceOnUse" r="12.0171" xlink:href="#a"/><linearGradient id="c"><stop offset="0" stop-color="#b38f63"/><stop offset=".0493" stop-color="#b7956a"/><stop offset=".4976" stop-color="#dec7a7"/><stop offset=".827" stop-color="#f6e7cd"/><stop offset="1" stop-color="#fff3db"/></linearGradient><linearGradient id="d" gradientUnits="userSpaceOnUse" x1="49.3848" x2="59.7195" xlink:href="#c" y1="12.2983" y2="12.4654"/><radialGradient id="e" cx="-61.2266" cy="12.9463" gradientTransform="matrix(-1.0001 0 0 .8911 -51.7457 1.4104)" gradientUnits="userSpaceOnUse" r="12.0175" xlink:href="#a"/><linearGradient id="f" gradientTransform="matrix(-1 0 0 1 -51.9814 0)" gradientUnits="userSpaceOnUse" x1="-66.5884" x2="-56.2537" xlink:href="#c" y1="12.2983" y2="12.4654"/><radialGradient id="g" cx="-211.0693" cy="275.293" gradientTransform="matrix(50.6498 0 0 -50.6498 10722.6191 13974.4434)" gradientUnits="userSpaceOnUse" r=".5166"><stop offset="0" stop-color="#ffc800"/><stop offset=".329" stop-color="#ffc500"/><stop offset=".5911" stop-color="#fb0"/><stop offset=".8293" stop-color="#fa0"/><stop offset="1" stop-color="#f90"/></radialGradient><linearGradient id="h" gradientTransform="matrix(15.914 0 0 -22.0745 3202.3691 5905.6772)" gradientUnits="userSpaceOnUse" x1="-199.2207" x2="-199.2207" y1="265.4648" y2="266.4648"><stop offset="0" stop-color="#f90"/><stop offset=".1707" stop-color="#fa0"/><stop offset=".4089" stop-color="#fb0"/><stop offset=".671" stop-color="#ffc500"/><stop offset="1" stop-color="#ffc800"/></linearGradient><path d="m57.906 2.839c-2.863-2.208-11.096.193-14.553 4.278-.967 1.141 10.973 14.265 12.479 13.392 6.977-4.043 5.381-15.121 2.074-17.67z" fill="url(#b)"/><path d="m47.961 8.988c0 4.033 4.596 10.283 7.584 10.208 5.959-2.208 7.16-21.175-7.584-10.208z" fill="url(#d)"/><path d="m6.085 2.839c2.864-2.208 11.097.193 14.555 4.278.964 1.14-10.974 14.264-12.48 13.391-6.977-4.042-5.381-15.12-2.075-17.669z" fill="url(#e)"/><path d="m16.03 8.988c0 4.033-4.596 10.283-7.584 10.208-5.959-2.208-7.159-21.175 7.584-10.208z" fill="url(#f)"/><path d="m31.992 5.535c-11.134 0-26.982-1.041-26.982 36.986 0 5.207 26.982 13.662 26.982 13.662s26.99-8.455 26.99-13.662c0-38.027-15.857-36.986-26.99-36.986z" fill="url(#g)"/><path d="m62 37.378c-.221-9.255-6.313-18.538-6.313-18.538s2.428 8.857 2.318 11.912c0 0-.941-.841-2.307-1.313.842 2.84 2.086 8.037 1.367 12.099 0 0-.672-.744-1.781-1.729-1.436 6.965-5.5 9.125-5.5 9.125-1.635-3.469-3.219 4.4-17.777.109v-.003c-.003 0-.005 0-.008.002-.003-.002-.005-.002-.008-.002v.004c-14.56 4.291-16.142-3.578-17.778-.109 0 0-4.064-2.16-5.5-9.125-1.109.984-1.781 1.729-1.781 1.729-.72-4.063.525-9.259 1.368-12.099-1.364.472-2.308 1.313-2.308 1.313-.107-3.055 2.32-11.912 2.32-11.912s-6.09 9.282-6.312 18.537l2.749-1.633s-2.848 6.104.217 13.586l2.881-3.385s.766 7.084 8.512 10.707l.352-3.094s5.844 4.594 15.283 4.6h.008s.005 0 .008 0c9.438-.006 15.282-4.6 15.282-4.6l.354 3.094c7.744-3.623 8.51-10.707 8.51-10.707l2.883 3.385c3.064-7.482.217-13.586.217-13.586z" fill="#ffe8bb"/><path d="m56.688 33.745c.359 2.232.512 4.719.096 7.07 0 0-.531-2.082-1.641-3.066-1.438 6.965-5.148 10.129-5.148 10.129-.133-2.357-.459-3.004-.459-3.004-1.924 3.084-5.229 4.621-5.229 4.621s-2.494-1.406-3.977-3.469c-2.982 4.004 2.529 7.107 2.529 7.107s3.898-1.582 6.166-4.754c0 0 .385.664.541 3.09 0 0 4.379-3.256 6.066-10.418 1.313 1.012 1.938 3.154 1.938 3.154.735-3.63-.021-7.571-.882-10.46z" fill="#302c3b"/><path d="m7.313 33.745c-.36 2.232-.513 4.719-.097 7.07 0 0 .532-2.082 1.642-3.066 1.436 6.965 5.146 10.129 5.146 10.129.133-2.357.459-3.004.459-3.004 1.924 3.084 5.23 4.621 5.23 4.621s2.494-1.406 3.976-3.469c2.983 4.004-2.53 7.107-2.53 7.107s-3.898-1.582-6.166-4.754c0 0-.386.664-.541 3.09 0 0-4.377-3.256-6.067-10.418-1.312 1.012-1.937 3.154-1.937 3.154-.734-3.63.023-7.571.885-10.46z" fill="#302c3b"/><path d="m38.813 38.21c-.379-.932-13.282-.867-13.661.063-4.33 10.662-3.395 18.443 2.537 22.17l.906-1.729s1.067 2.443 3.398 3.287c2.331-.844 3.405-3.287 3.405-3.287l.908 1.729c5.946-3.735 6.835-11.569 2.507-22.233z" fill="#ffe8bb"/><path d="m31.979 47.124c-1.685 7.197-5.638 5.59-7.565 4.512-3.151-1.764 3.17 5.438 7.565.9 4.395 4.537 10.72-2.664 7.567-.9-1.927 1.078-5.881 2.685-7.567-4.512z" fill="#302c3b"/><g fill="#d6a57c"><path d="m35.658 48.737c0 .736 1.105.736 1.105 0 .003-.736-1.105-.736-1.105 0z"/><path d="m37.518 47.493c0 .738 1.104.738 1.104 0 .001-.736-1.104-.736-1.104 0z"/><path d="m37.654 50.038c0 .738 1.105.738 1.105 0 .003-.736-1.105-.736-1.105 0z"/><path d="m39.377 48.81c0 .736 1.105.736 1.105 0 0-.739-1.105-.739-1.105 0z"/><path d="m28.306 48.737c0 .736-1.106.736-1.106 0-.002-.736 1.106-.736 1.106 0z"/><path d="m26.446 47.493c0 .738-1.105.738-1.105 0-.002-.736 1.105-.736 1.105 0z"/><path d="m26.308 50.038c0 .738-1.104.738-1.104 0-.002-.736 1.104-.736 1.104 0z"/><path d="m24.585 48.81c0 .736-1.105.736-1.105 0-.001-.739 1.105-.739 1.105 0z"/></g><path d="m31.994 7.691c-1.597 2.076-13.39 2.545-15.013 7.76 3.252-2.291 11.615-3.877 15.013-1.105 3.396-2.771 11.74-1.186 14.99 1.105-1.621-5.215-13.392-5.683-14.99-7.76z" fill="#302c3b"/><path d="m19.701 17.33c-9.326 1.196-9.03 10.042-9.03 10.042 2.829-4.174 6.201-6.286 6.201-6.286-.923-.309-1.585-.29-1.585-.29 1.448-1.798 4.414-3.466 4.414-3.466z" fill="#302c3b"/><path d="m44.291 17.33s2.967 1.668 4.414 3.466c0 0-.662-.02-1.586.29 0 0 3.373 2.112 6.201 6.286 0-.001.297-8.846-9.029-10.042z" fill="#302c3b"/><path d="m53.49 34.767c-1.883 9.211-10.684 8.264-10.684 8.264 4.373-2.514 6.729-5.721 6.729-5.721.24.943.172 1.603.172 1.603 1.9-1.312 3.783-4.146 3.783-4.146z" fill="#302c3b"/><path d="m10.509 34.767c1.883 9.211 10.684 8.264 10.684 8.264-4.373-2.514-6.729-5.721-6.729-5.721-.24.943-.172 1.603-.172 1.603-1.9-1.312-3.783-4.146-3.783-4.146z" fill="#302c3b"/><path d="m39.938 44.651c0 1.344-15.913 1.344-15.913 0 0-2.314 3.422-21.067 7.97-21.067 4.546 0 7.943 18.753 7.943 21.067z" fill="url(#h)"/><path d="m51.369 27.845c.83 12.821-15.631 12.968-14.943 4.571 1.199-14.665 14.582-10.181 14.943-4.571z" fill="#ffe8bb"/><path d="m12.624 27.845c-.83 12.821 15.629 12.968 14.941 4.571-1.198-14.665-14.582-10.181-14.941-4.571z" fill="#ffe8bb"/><ellipse cx="42.34" cy="31.691" fill="#302c3b" rx="3.271" ry="4"/><path d="m41.74 29.756c0 1.364-1.637 1.364-1.637 0 .001-1.364 1.637-1.364 1.637 0z" fill="#6e8189"/><ellipse cx="21.622" cy="31.691" fill="#302c3b" rx="3.272" ry="4"/><path d="m21.023 29.756c0 1.364-1.637 1.364-1.637 0 .001-1.364 1.637-1.364 1.637 0z" fill="#6e8189"/><path d="m23.996 44.603c0-2.258 3.575-2.693 7.985-2.693 4.411 0 7.983.436 7.983 2.693 0 1.797-6.354 3.391-7.983 3.391-1.628-.001-7.985-1.597-7.985-3.391z" fill="#db7f9a"/><path d="m31.995 15.564c-1.117 1.541-9.377.154-10.512 4.025 0 0 5.832-3.133 10.512.916 4.681-4.049 10.489-.916 10.489-.916-1.132-3.87-9.373-2.484-10.489-4.025z" fill="#302c3b"/><path d="m21.021 21.694s6.028 1.014 9.709 4.592c-.153-2.645-.185-5.891-9.709-4.592z" fill="#302c3b"/><path d="m42.947 21.694s-6.027 1.014-9.709 4.592c.155-2.645.186-5.891 9.709-4.592z" fill="#302c3b"/></svg>