<svg enable-background="new 0 0 64 64" height="64" viewBox="0 0 64 64" width="64" xmlns="http://www.w3.org/2000/svg" xmlns:xlink="http://www.w3.org/1999/xlink"><linearGradient id="a" gradientUnits="userSpaceOnUse" x1="45.333" x2="62" y1="28.0723" y2="28.0723"><stop offset=".1212" stop-color="#f9c802"/><stop offset=".282" stop-color="#facc11"/><stop offset=".5915" stop-color="#fcd538"/><stop offset="1" stop-color="#ffe375"/></linearGradient><linearGradient id="b" gradientUnits="userSpaceOnUse" x1="2" x2="18.6665" y1="28.0723" y2="28.0723"><stop offset="0" stop-color="#ffe375"/><stop offset=".4085" stop-color="#fcd538"/><stop offset=".718" stop-color="#facc11"/><stop offset=".8788" stop-color="#f9c802"/></linearGradient><linearGradient id="c"><stop offset="0" stop-color="#ffe375"/><stop offset=".1979" stop-color="#ffe271"/><stop offset=".3826" stop-color="#fedf66"/><stop offset=".562" stop-color="#fddb53"/><stop offset=".7382" stop-color="#fcd539"/><stop offset=".9105" stop-color="#facd17"/><stop offset="1" stop-color="#f9c802"/></linearGradient><radialGradient id="d" cx="33.8896" cy="45.5791" gradientTransform="matrix(1.0057 0 0 1.0056 -2.1412 1.2885)" gradientUnits="userSpaceOnUse" r="17.0948" xlink:href="#c"/><radialGradient id="e" cx="33.9492" cy="19.4609" gradientTransform="matrix(1.0057 0 0 1.0056 -2.1412 1.2895)" gradientUnits="userSpaceOnUse" r="18.9858" xlink:href="#c"/><radialGradient id="f" cx="32" cy="27.8696" gradientTransform="matrix(1 0 0 1.6682 0 -18.6215)" gradientUnits="userSpaceOnUse" r="4.3017"><stop offset="0" stop-color="#ffc800"/><stop offset=".3537" stop-color="#fab201"/><stop offset=".7076" stop-color="#f6a301"/><stop offset="1" stop-color="#f59e01"/></radialGradient><path d="m60.84 18.357c3.074-1.904.313 18.218-11.591 19.557-11.03-8.958 3.961-14.832 11.591-19.557z" fill="url(#a)"/><path d="m3.16 18.357c-3.074-1.904-.313 18.218 11.591 19.557 11.03-8.958-3.962-14.832-11.591-19.557z" fill="url(#b)"/><path d="m23.208 49.246c.783 10.521-3.213 9.483-3.078 10.244-.502.755-4.684.06-4.705 1.042-1.766 1.047-1.361 1.104-.059.699.871.143 6.654.369 7.002-.398.434.782.76 1.167 1.131 1.167.307 0 .707-.854 1.178-1.28 1.893.64 2.92-.193 4.201.284-.277-1.416-3.574-.284-3.969-3.153-.561-4.055 2.096-8.042 2.096-8.042-2.018-.092-3.797-.563-3.797-.563z" fill="#f59e01"/><path d="m40.792 49.246c-.783 10.521 3.213 9.483 3.078 10.244.502.755 4.684.06 4.705 1.042 1.766 1.047 1.361 1.104.059.699-.871.143-6.654.369-7.002-.398-.434.782-.76 1.167-1.131 1.167-.307 0-.707-.854-1.178-1.28-1.893.64-2.92-.193-4.201.284.277-1.416 3.574-.284 3.969-3.153.561-4.055-2.096-8.042-2.096-8.042 2.018-.092 3.797-.563 3.797-.563z" fill="#f59e01"/><path d="m49.997 42.44c0 10.305-8.061 13.899-17.999 13.899-9.94 0-17.995-3.595-17.995-13.899 0-13.781 8.801-19.923 17.995-19.923 9.19.001 17.999 6.142 17.999 19.923z" fill="url(#d)"/><path d="m37.366 6.413c-1.396-2.888-3.428-4.171-3.428-4.171.491 1.752-.109 3.16-.109 3.16-1-2.465-4.398-3.402-4.398-3.402 1.153 1.819.697 3.035.697 3.035-1.83-1.458-4.095-1.066-4.095-1.066.56.761.728 1.634.746 2.392-14.702 4.677-12.964 29.084 5.223 29.084 18.125-.001 19.907-24.241 5.364-29.032z" fill="url(#e)"/><path d="m27.458 20.288c0 1.651-1.126 2.987-2.515 2.987-1.391 0-2.514-1.336-2.514-2.987 0-1.653 1.123-2.988 2.514-2.988 1.389 0 2.515 1.335 2.515 2.988z" fill="#302c3b"/><path d="m24.099 19.076c0 .996-1.005.996-1.005 0s1.005-.996 1.005 0z" fill="#6e8189"/><path d="m41.57 20.288c0 1.651-1.125 2.987-2.514 2.987-1.391 0-2.515-1.336-2.515-2.987 0-1.653 1.124-2.988 2.515-2.988 1.389 0 2.514 1.335 2.514 2.988z" fill="#302c3b"/><path d="m38.214 19.076c0 .996-1.006.996-1.006 0s1.006-.996 1.006 0z" fill="#6e8189"/><path d="m27 27.223h10c0 2.549-2.5 4.265-5 4.265-2.504-.001-5-1.717-5-4.265z" fill="#de8f01"/><path d="m37 27.223s-3.213 1.195-5 1.195c-1.787-.002-5-1.195-5-1.195 0-3.168 2.24-5.735 5-5.735s5 2.567 5 5.735z" fill="url(#f)"/></svg>