<svg enable-background="new 0 0 64 64" height="64" viewBox="0 0 64 64" width="64" xmlns="http://www.w3.org/2000/svg" xmlns:xlink="http://www.w3.org/1999/xlink"><linearGradient id="a"><stop offset="0" stop-color="#e6ebef"/><stop offset=".1872" stop-color="#d2dade"/><stop offset=".6279" stop-color="#a9b6bb"/><stop offset=".8545" stop-color="#99a8ae"/></linearGradient><linearGradient id="b" gradientUnits="userSpaceOnUse" x1="2" x2="21.8438" xlink:href="#a" y1="21.3643" y2="21.3643"/><linearGradient id="c" gradientTransform="matrix(-1 0 0 1 2311.8945 0)" gradientUnits="userSpaceOnUse" x1="2249.8945" x2="2269.7383" xlink:href="#a" y1="21.3643" y2="21.3643"/><linearGradient id="d" gradientUnits="userSpaceOnUse" x1="32.0005" x2="32.0005" y1="54" y2="6.0005"><stop offset="0" stop-color="#7b8a94"/><stop offset=".2872" stop-color="#8b9aa2"/><stop offset=".6144" stop-color="#96a5ab"/><stop offset="1" stop-color="#99a8ae"/></linearGradient><linearGradient id="e" gradientUnits="userSpaceOnUse" x1="31.999" x2="31.999" y1="58" y2="50.083"><stop offset="0" stop-color="#e6ebef"/><stop offset=".3479" stop-color="#ced7db"/><stop offset="1" stop-color="#99a8ae"/></linearGradient><radialGradient id="f" cx="32.0864" cy="41.4834" gradientTransform="matrix(1 0 0 1.3072 0 -12.7433)" gradientUnits="userSpaceOnUse" r="8.4971"><stop offset="0" stop-color="#5b666e"/><stop offset=".2305" stop-color="#515862"/><stop offset="1" stop-color="#302c3b"/></radialGradient><path d="m2.813 13.873c-1.161 3.085 13.414 12.3 20.496-.557-7.674-9.194-18.78-3.999-20.496.557z" fill="#99a8ae"/><path d="m5.302 13.547c-2.75 1.681-3.528 5.166-2.99 4.923 1.024-.465 2.654-1.126 2.174-.727-1.929 1.602-3.076 6.487-2.17 5.628 1.598-1.513 2.706-1.604 2.436-1.24-2.446 3.293-2.109 6.913-1.132 5.546 2.049-2.865 2.438-2.438 2.297-1.989-1.404 4.483-.133 5.998.376 5.168 1.373-2.251 2.965-2.246 2.764-1.593-1.364 4.421 5.705 1.146 12.788-11.712-5.543-8.717-13.636-5.781-16.543-4.004z" fill="url(#b)"/><path d="m61.186 13.873c1.162 3.085-13.413 12.3-20.495-.557 7.674-9.194 18.779-3.999 20.495.557z" fill="#99a8ae"/><path d="m58.698 13.547c2.75 1.681 3.528 5.166 2.99 4.923-1.024-.465-2.654-1.126-2.174-.727 1.929 1.602 3.076 6.487 2.17 5.628-1.599-1.513-2.706-1.604-2.436-1.24 2.447 3.293 2.109 6.913 1.132 5.546-2.049-2.865-2.438-2.438-2.297-1.989 1.404 4.483.133 5.998-.376 5.168-1.374-2.251-2.965-2.246-2.764-1.593 1.364 4.421-5.706 1.146-12.788-11.712 5.543-8.717 13.637-5.781 16.543-4.004z" fill="url(#c)"/><path d="m53.699 25.416c-2.925-6.078-9.858-19.416-21.698-19.416-11.837 0-18.776 13.338-21.698 19.416-1.487 3.09-2.783 6.108-3.255 10.582-.825 7.813 9.18 14.534 14.602 14.534 2.594 0 5.342 3.468 10.352 3.468 5.006 0 7.755-3.468 10.35-3.468 5.422 0 15.424-6.721 14.602-14.534-.476-4.474-1.771-7.492-3.255-10.582z" fill="url(#d)"/><ellipse cx="19.602" cy="34.796" fill="#302c3b" rx="3.134" ry="4"/><path d="m19.377 33.046c0 1.383-1.563 1.383-1.563 0-.001-1.381 1.563-1.381 1.563 0z" fill="#6e8189"/><path d="m47.531 34.796c0 2.209-1.398 4-3.134 4-1.731 0-3.134-1.791-3.134-4s1.402-4 3.134-4c1.736 0 3.134 1.791 3.134 4z" fill="#302c3b"/><path d="m44.172 33.046c0 1.383-1.564 1.383-1.564 0-.001-1.381 1.564-1.381 1.564 0z" fill="#6e8189"/><path d="m27.167 50.083s-.412 4.709 2.342 7.057l.013-1.813s.76 1.677 2.478 2.674c1.72-.997 2.478-2.674 2.478-2.674l.015 1.813c2.752-2.348 2.339-7.057 2.339-7.057z" fill="url(#e)"/><path d="m25.528 43.376c0 2.061 1.61 5.061 1.599 6.76-.025 2.971 9.771 2.971 9.747 0-.016-1.699 1.598-4.699 1.598-6.76 0-10.334-12.944-10.334-12.944 0z" fill="url(#f)"/></svg>