<svg enable-background="new 0 0 64 64" height="64" viewBox="0 0 64 64" width="64" xmlns="http://www.w3.org/2000/svg" xmlns:xlink="http://www.w3.org/1999/xlink"><radialGradient id="a" cx="26.1514" cy="37.6807" gradientUnits="userSpaceOnUse" r="21.3152"><stop offset=".297" stop-color="#e6ebef"/><stop offset=".4051" stop-color="#e2e7eb"/><stop offset=".5218" stop-color="#d5dce0"/><stop offset=".6426" stop-color="#bfc9ce"/><stop offset=".7655" stop-color="#a1afb5"/><stop offset=".7939" stop-color="#99a8ae"/></radialGradient><linearGradient id="b" gradientUnits="userSpaceOnUse" x1="14.1221" x2="20.3525" y1="28.3789" y2="28.3789"><stop offset="0" stop-color="#ff6052"/><stop offset=".2049" stop-color="#fc5e50"/><stop offset=".3677" stop-color="#f2574a"/><stop offset=".516" stop-color="#e14c40"/><stop offset=".6548" stop-color="#ca3d32"/><stop offset=".7576" stop-color="#b32e24"/></linearGradient><linearGradient id="c"><stop offset="0" stop-color="#3889ad"/><stop offset="1" stop-color="#69d1f0"/></linearGradient><radialGradient id="d" cx="48.4365" cy="30.3955" gradientUnits="userSpaceOnUse" r="22.1404" xlink:href="#c"/><radialGradient id="e" cx="28.208" cy="32" gradientUnits="userSpaceOnUse" r="27.2583" xlink:href="#c"/><path d="m31.917 13.987-20.777 16.563c-2.711 3.547-3.99 6.2-1.92 6.522 6.713 1.041 11.57-10.813 21.738-1.746 5.824 5.195 2.049 9.436-2.35 12.684-6.796 11.385 35.778-3.115 3.309-34.023z" fill="url(#a)"/><path d="m20.353 24.519c-6.047 12.563-16.117 14.595-8.33 5.563z" fill="#302c3b"/><path d="m15.265 28.439 5.088-3.921c-4.608 9.282-8.141 9.688-5.088 3.921z" fill="url(#b)"/><path d="m59.388 9.939c-3.057-2.984-12.609-2.432-15.898.777-3.293 3.209 7.646 18.366 8.498 13.905 1.111-5.831 10.46-11.699 7.4-14.682z" fill="url(#d)"/><path d="m51.812 21.412c-1.426-8.631-8.293-19.412-22.27-19.412-13.971 0-23.057 11.694-20.879 20.799.609 2.546-7.27 8.704-3.758 9.44 3.289.69 10.396-2.931 13.67-6.099 3.373-3.263 6.189-5.01 8.762-5.348-.855.793-1.375 2.132-1.375 4.393 0 5.094 4.75 12.928 7.984 12.928 2.93 0 1.51-6.094 3.125-11.322 5.58 7.472 5.771 17.965-3.256 22.266-4.912 2.34-5.719.889-5.207-1.047-1.496 1.105-3.051 2.078-4.289 2.895-2.039-2.701-6.068-7.486-9.023-7.486-4.121 0 1.588 9.291 1.588 9.291s-5.709 9.29-1.588 9.29c3.08 0 7.32-5.188 9.266-7.811 9.429 1.586 31.804-5.179 27.25-32.777z" fill="url(#e)"/><path d="m23.628 19.662c0 3.336-5.004 3.336-5.004 0 0-3.33 5.004-3.33 5.004 0z" fill="#302c3b"/><path d="m20.542 18.982c0 .91-1.365.91-1.365 0 0-.907 1.365-.907 1.365 0z" fill="#6e8189"/></svg>