<svg enable-background="new 0 0 64 64" height="64" viewBox="0 0 64 64" width="64" xmlns="http://www.w3.org/2000/svg" xmlns:xlink="http://www.w3.org/1999/xlink"><linearGradient id="a" gradientUnits="userSpaceOnUse" x1="45.333" x2="62" y1="28.5845" y2="28.5845"><stop offset=".1212" stop-color="#f9c802"/><stop offset=".282" stop-color="#facc11"/><stop offset=".5915" stop-color="#fcd538"/><stop offset="1" stop-color="#ffe375"/></linearGradient><linearGradient id="b" gradientUnits="userSpaceOnUse" x1="2" x2="18.6665" y1="28.5845" y2="28.5845"><stop offset="0" stop-color="#ffe375"/><stop offset=".4085" stop-color="#fcd538"/><stop offset=".718" stop-color="#facc11"/><stop offset=".8788" stop-color="#f9c802"/></linearGradient><linearGradient id="c"><stop offset="0" stop-color="#ffe375"/><stop offset=".1979" stop-color="#ffe271"/><stop offset=".3826" stop-color="#fedf66"/><stop offset=".562" stop-color="#fddb53"/><stop offset=".7382" stop-color="#fcd539"/><stop offset=".9105" stop-color="#facd17"/><stop offset="1" stop-color="#f9c802"/></linearGradient><radialGradient id="d" cx="33.9492" cy="37.9082" gradientTransform="matrix(1.0057 0 0 1.0056 -2.1412 1.2895)" gradientUnits="userSpaceOnUse" r="17.9327" xlink:href="#c"/><radialGradient id="e" cx="33.9473" cy="19.4609" gradientTransform="matrix(1.0057 0 0 1.0056 -2.1412 1.2895)" gradientUnits="userSpaceOnUse" r="18.9865" xlink:href="#c"/><radialGradient id="f" cx="33.9482" cy="24.9053" gradientTransform="matrix(1.0057 0 0 1.0056 -2.1412 1.2895)" gradientUnits="userSpaceOnUse" r="4.9701"><stop offset="0" stop-color="#ffc800"/><stop offset=".3537" stop-color="#fab201"/><stop offset=".7076" stop-color="#f6a301"/><stop offset="1" stop-color="#f59e01"/></radialGradient><radialGradient id="g" cx="33.9482" cy="25.5381" gradientTransform="matrix(1.0057 0 0 1.0056 -2.1412 1.2895)" gradientUnits="userSpaceOnUse" r="3.9403"><stop offset="0" stop-color="#592d11"/><stop offset="1" stop-color="#592d11"/></radialGradient><radialGradient id="h" cx="34.0498" cy="39.4072" gradientTransform="matrix(1.0057 0 0 .8514 -2.1412 7.365)" gradientUnits="userSpaceOnUse" r="23.9179"><stop offset="0" stop-color="#ecf1f5"/><stop offset=".4619" stop-color="#eaeff3"/><stop offset=".6891" stop-color="#e2e9ed"/><stop offset=".8645" stop-color="#d5dde2"/><stop offset=".9212" stop-color="#cfd8dd"/></radialGradient><path d="m6.244 37.709c0 32.388 51.512 32.388 51.512 0 0-12.851-51.512-12.851-51.512 0z" fill="#cfd8dd"/><path d="m7.068 37.944c0 17.86 49.863 17.86 49.863 0 .001-12.44-49.863-12.44-49.863 0z" fill="#6e8189"/><path d="m60.84 18.87c3.074-1.904.313 18.217-11.591 19.556-11.03-8.958 3.961-14.831 11.591-19.556z" fill="url(#a)"/><path d="m3.16 18.87c-3.074-1.904-.313 18.217 11.591 19.556 11.03-8.958-3.962-14.831-11.591-19.556z" fill="url(#b)"/><path d="m51.107 43.669c0 10.94-8.558 12.634-19.109 12.634-10.554 0-19.105-1.693-19.105-12.634 0-14.632 9.344-21.152 19.105-21.152 9.758 0 19.109 6.52 19.109 21.152z" fill="url(#d)"/><path d="m37.364 6.412c-1.396-2.887-3.428-4.171-3.428-4.171.491 1.752-.109 3.16-.109 3.16-1-2.465-4.398-3.401-4.398-3.401 1.153 1.818.697 3.034.697 3.034-1.83-1.457-4.095-1.066-4.095-1.066.56.762.728 1.634.746 2.393-14.702 4.676-12.964 29.083 5.223 29.083 18.125 0 19.907-24.24 5.364-29.032z" fill="url(#e)"/><ellipse cx="24.943" cy="20.287" fill="#302c3b" rx="2.514" ry="2.987"/><path d="m24.098 19.075c0 .996-1.005.996-1.005 0 0-.995 1.005-.995 1.005 0z" fill="#6e8189"/><ellipse cx="39.055" cy="20.287" fill="#302c3b" rx="2.514" ry="2.987"/><path d="m38.213 19.075c0 .996-1.006.996-1.006 0 0-.995 1.006-.995 1.006 0z" fill="#6e8189"/><path d="m32 21.366c-2.775 0-5.028 2.551-5.028 5.699 0 2.531 2.51 4.236 5.028 4.236 2.514 0 5.028-1.705 5.028-4.236 0-3.148-2.253-5.699-5.028-5.699z" fill="url(#f)"/><path d="m37.028 26.972s-2.249 2.473-5.028 2.473c-2.777 0-5.028-2.473-5.028-2.473s2.251-2.476 5.028-2.476c2.779 0 5.028 2.476 5.028 2.476z" fill="url(#g)"/><path d="m56.586 36.216c1.764 4.342-5.671 6.624-5.671 6.624l-3.922-5.767-4.192 4.601-5.313-3.382-6.415 5.574-8.626-5.171-3.309 9.345-6.265-9.109-2.936 2.3c-1.854-.28-2.87-1.904-2.87-3.197l-.824-.324c0 26.227 47.916 33.789 51.508.202-.005.116-1.165-1.696-1.165-1.696z" fill="url(#h)"/></svg>