<svg enable-background="new 0 0 64 64" height="64" viewBox="0 0 64 64" width="64" xmlns="http://www.w3.org/2000/svg" xmlns:xlink="http://www.w3.org/1999/xlink"><linearGradient id="a"><stop offset="0" stop-color="#fff"/><stop offset=".1397" stop-color="#f2f4f5"/><stop offset=".3868" stop-color="#e1e5e7"/><stop offset=".6587" stop-color="#d7dde0"/><stop offset="1" stop-color="#d4dadd"/></linearGradient><linearGradient id="b" gradientTransform="matrix(-1 0 0 1 -177.6025 0)" gradientUnits="userSpaceOnUse" x1="-237.8984" x2="-224.8208" xlink:href="#a" y1="38.918" y2="38.918"/><linearGradient id="c" gradientUnits="userSpaceOnUse" x1="3.7041" x2="16.7822" xlink:href="#a" y1="38.918" y2="38.918"/><radialGradient id="d" cx="31.999" cy="34.6328" gradientTransform="matrix(1 0 0 1.2812 0 -9.7373)" gradientUnits="userSpaceOnUse" r="20.2465"><stop offset=".3697" stop-color="#fff"/><stop offset=".5626" stop-color="#fbfcfc"/><stop offset=".7541" stop-color="#eff1f2"/><stop offset=".9446" stop-color="#dbe0e3"/><stop offset="1" stop-color="#d4dadd"/></radialGradient><radialGradient id="e" cx="32.0518" cy="20.7935" gradientTransform="matrix(1 0 0 1.5135 0 -10.6766)" gradientUnits="userSpaceOnUse" r="3.5581"><stop offset="0" stop-color="#ffc800"/><stop offset=".3537" stop-color="#fab201"/><stop offset=".7076" stop-color="#f6a301"/><stop offset="1" stop-color="#f59e01"/></radialGradient><path d="m21.809 56.279c-4.482 1.662-6.179 5.102-4.642 4.645 2.174-.645 3.503-1.803 2.931.24-.766 2.734 5.25-2.316 4.772.032-.687 3.365 9.737-6.816-3.061-4.917z" fill="#f59e01"/><path d="m42.19 56.279c4.482 1.662 6.179 5.102 4.641 4.645-2.174-.645-3.502-1.803-2.93.24.766 2.734-5.251-2.316-4.771.032.685 3.365-9.738-6.816 3.06-4.917z" fill="#f59e01"/><path d="m46.563 24.43c1.941 6.499 13.893 7.921 15.434 20.429.314 2.544-24.643-13.095-15.434-20.429z" fill="#302c3b"/><path d="m47.244 33.112c7.638 1.935 12.812 8.513 13.052 11.612-4.51-1.149-13.627-8.077-13.052-11.612z" fill="url(#b)"/><path d="m17.437 24.43c-1.941 6.499-13.893 7.921-15.434 20.429-.314 2.544 24.643-13.095 15.434-20.429z" fill="#302c3b"/><path d="m16.756 33.112c-7.638 1.935-12.812 8.513-13.052 11.613 4.51-1.15 13.627-8.078 13.052-11.613z" fill="url(#c)"/><path d="m47.999 17.467c0-8.543-7.162-15.467-16-15.467-8.836 0-16 6.924-16 15.467 0 3.687 1.438 6.963 1.438 6.963s-12.481 33.57 14.562 33.57c27.047 0 14.564-33.569 14.564-33.57 0 0 1.436-3.277 1.436-6.963z" fill="#302c3b"/><path d="m42.958 23.129s1.443-3.244 1.443-5.691c0-10.755-10.465-8.258-10.465-.731h-3.873c0-7.527-10.466-10.026-10.466.731 0 2.447 1.442 5.691 1.442 5.691s-14.138 35.937 10.96 35.937c25.099 0 10.959-35.937 10.959-35.937z" fill="url(#d)"/><path d="m28.678 19.65h6.642c0 2.103-1.485 3.803-3.32 3.803-1.837.001-3.322-1.7-3.322-3.803z" fill="#de8f01"/><path d="m36.134 19.916-4.135 1.009-4.133-1.009c0-2.611 1.85-4.73 4.133-4.73s4.135 2.118 4.135 4.73z" fill="url(#e)"/><ellipse cx="24.765" cy="15.557" fill="#302c3b" rx="1.654" ry="2.067"/><path d="m24.464 14.58c0 .689-.828.689-.828 0s.828-.689.828 0z" fill="#6e8189"/><ellipse cx="39.234" cy="15.557" fill="#302c3b" rx="1.654" ry="2.067"/><path d="m38.933 14.58c0 .689-.828.689-.828 0-.001-.689.828-.689.828 0z" fill="#6e8189"/></svg>