<svg enable-background="new 0 0 64 64" height="64" viewBox="0 0 64 64" width="64" xmlns="http://www.w3.org/2000/svg" xmlns:xlink="http://www.w3.org/1999/xlink"><radialGradient id="a" cx="33.8975" cy="46.5098" gradientTransform="matrix(.9814 0 0 .8069 .7311 8.9791)" gradientUnits="userSpaceOnUse" r="39.0116"><stop offset="0" stop-color="#4ecee6"/><stop offset=".3134" stop-color="#4bcbe6"/><stop offset=".5314" stop-color="#42c3e5"/><stop offset=".7204" stop-color="#33b5e3"/><stop offset=".8919" stop-color="#1da1e0"/><stop offset="1" stop-color="#0b91de"/></radialGradient><radialGradient id="b" cx="33.5" cy="50.9912" gradientTransform="matrix(.9814 0 0 1 .7311 0)" gradientUnits="userSpaceOnUse" r="19.8434"><stop offset=".1333" stop-color="#e4ecf2"/><stop offset=".5694" stop-color="#e2eaf0"/><stop offset=".8023" stop-color="#dae2e9"/><stop offset=".9869" stop-color="#ccd5dc"/><stop offset="1" stop-color="#cbd4db"/></radialGradient><linearGradient id="c" gradientUnits="userSpaceOnUse" x1="33.8447" x2="43.5765" y1="51.0732" y2="62.3722"><stop offset=".1152" stop-color="#4ecee6"/><stop offset=".3069" stop-color="#47c8e5"/><stop offset=".5807" stop-color="#34b7e3"/><stop offset=".9025" stop-color="#169bdf"/><stop offset="1" stop-color="#0b91de"/></linearGradient><path d="m61.699 22.295c-4.291-1.285-7.928 3.229-7.928 3.229s-5.344-2.824-9.591-1.021c.417 3.988 6.394 6.902 8.922 6.902 0 0 2.16 10.446-4.683 10.446-5.061 0-7.282-4.901-14.567-11.447-9.985-8.969-25.688-4.457-30.081 1.887-4.106 5.93-.408 20.857 4.297 21.792 0 0 29.452 14.387 48.794-7.049 4.79-6.6.483-15.473.483-15.473 3.11-1.201 5.524-4.793 4.354-9.266z" fill="url(#a)"/><path d="m8.459 55.873c-2.232 4.918 6.693 5.731 16 5.731 15.798 0 32.901-3.615 34.644-21.227-2.907 14.484-24.429 13.23-24.429 13.23-2.493 1.168-2.563-4.515-4.78-2.755-2.275 3.757-18.76 4.882-21.435 5.021z" fill="url(#b)"/><path d="m31.583 54.476c1.633 6.346 10.28 9.246 14.53 6.473 2.283-1.49-4.309.227-3.959-6.389.26-4.872-12.41-7.221-10.571-.084z" fill="url(#c)"/><path d="m29.895 50.854c-1.001 1.313-15.799 4.188-21.825 3.229.326.417.39 1.79.39 1.79 12.395-.248 21.107-3.06 21.435-5.019z" fill="#013366"/><path d="m29.036 47.334c0 1.652-1.317 2.998-2.943 2.998-1.629 0-2.946-1.346-2.946-2.998 0-1.662 1.317-3.002 2.946-3.002 1.626 0 2.943 1.34 2.943 3.002z" fill="#302c3b"/><path d="m25.614 46.16c0 .469-.372.85-.832.85-.464 0-.836-.381-.836-.85s.372-.85.836-.85c.46.001.832.381.832.85z" fill="#6e8189"/><path d="m20.958 26.697c0 1-3.925 1-3.925 0-.001-1 3.925-1 3.925 0z" fill="#013366"/><path d="m30.852 16.032c-2.522-1.684-8.753-2.736-11.683 5.736 0-17.71 9.997-17.621 11.09-17.621 1.842 0 1.842-2.147 0-2.147-11.277 0-11.918 12.348-11.918 18.135-2.298-10.61-10.042-8.943-11.229-8.373-1.603.768-1.726 2.696 0 2.148 8.827-2.578 10.93 7.174 11.566 10.741-2.365-6.784-6.844-5.96-8.006-5.471-2.221.936-1.186 2.512.542 1.965 5.298-1.675 7.768 5.551 7.768 5.551 1.02-2.854 7.122-3.222 7.122-3.222 1.842 0 1.842-2.148 0-2.148-4.749 0-7.085 3.426-7.119 4.143 0-6.843 7.119-9.859 11.273-7.264 1.984 1.242 2.034-1.211.594-2.173z" fill="#0fb4d4"/><g fill="#75d6ff"><path d="m9.896 15.471c-2.528-.026-1.591 2.831-.354 2.136 1.85-1.035 3.504-.855 3.504-.855s-1.177-1.261-3.15-1.281z"/><path d="m11.446 9.728c2.549.813 3.976 2.376 3.976 2.376s-.139-1.971-1.989-3.689c-2.369-2.202-3.694.77-1.987 1.313z"/><path d="m7.043 20.719c.431-1.205 1.256-1.88 1.256-1.88s-1.041.066-1.95.94c-1.163 1.121.407 1.746.694.94z"/><path d="m24.531 10.659c-1.849 1.719-1.989 3.689-1.989 3.689s1.426-1.563 3.977-2.375c1.708-.543.381-3.515-1.988-1.314z"/><path d="m30.428 8.554c-.909-.875-1.95-.941-1.95-.941s.825.676 1.257 1.88c.286.806 1.856.181.693-.939z"/><path d="m27.291 18.839s.825.675 1.257 1.88c.286.806 1.857.181.693-.939-.909-.875-1.95-.941-1.95-.941z"/><path d="m16.608 7.61c-.021 2.798 1.275 4.494 1.275 4.494s-.151-2.351.975-4.953c.757-1.74-2.222-3.128-2.25.459z"/></g><path d="m22.872 49.737c.212-.018 6.072 4.128 7.989-.823 1.046-2.693-7.989.823-7.989.823z" fill="#4ecee6"/></svg>