<svg enable-background="new 0 0 64 64" height="64" viewBox="0 0 64 64" width="64" xmlns="http://www.w3.org/2000/svg" xmlns:xlink="http://www.w3.org/1999/xlink"><radialGradient id="a" cx="87.6377" cy="41.8281" gradientTransform="matrix(1.0735 0 0 .979 -62.0788 -7.3915)" gradientUnits="userSpaceOnUse" r="25.5877"><stop offset="0" stop-color="#b37a52"/><stop offset="1" stop-color="#825538"/></radialGradient><path d="m14.003 4.999c-6.629 0-12.003 5.821-12.003 13 0 7.18 5.374 13.001 12.003 13.001 6.626 0 11.997-5.821 11.997-13.001 0-7.179-5.371-13-11.997-13z" fill="#825538"/><ellipse cx="14.003" cy="18.001" fill="#ab7049" rx="7.001" ry="7.584"/><path d="m50.004 4.999c-6.629 0-12.004 5.821-12.004 13 0 7.18 5.375 13.001 12.004 13.001 6.625 0 11.996-5.821 11.996-13.001 0-7.179-5.371-13-11.996-13z" fill="#825538"/><path d="m50.004 10.417c-3.869 0-7.002 3.394-7.002 7.583 0 4.191 3.133 7.586 7.002 7.586 3.863 0 6.998-3.395 6.998-7.586 0-4.189-3.135-7.583-6.998-7.583z" fill="#ab7049"/><path d="m46 48.436c0-16.751-28-16.751-28 0 0 16.752 28 16.752 28 0z" fill="#825538"/><path d="m40.559 7.505s-2.174-1.83-4.52-.342c0 0-.26-1.443 1.342-2.768 0 0-3.172-.534-5.316 1.8 0 0-.381-1.49.5-3.195 0 0-3.922.441-5.572 4.182 0 0-1.895-.792-3.315.549 1.48.323 1.461 1.835 1.461 1.835l14.253-.03c-.001-.001-.398-1.707 1.167-2.031z" fill="#825538"/><path d="m54.848 28.232c-3.723-6.342-4.996-20.086-22.846-20.086-17.852 0-19.127 13.743-22.85 20.086-17.622 30.04 25.85 30.738 22.85 30.738-3.004 0 40.471-.698 22.846-30.738z" fill="url(#a)"/><path d="m43.975 29.228c1.748 0 3.164 2.127 3.164 4.75 0 2.624-1.416 4.75-3.164 4.75-1.752 0-3.168-2.126-3.168-4.75s1.416-4.75 3.168-4.75z" fill="#1a1626"/><ellipse cx="20.026" cy="33.978" fill="#1a1626" rx="3.168" ry="4.75"/><path d="m20.191 49.15c0-4.593 7.678-14.667 11.811-14.667 4.129 0 11.809 10.074 11.809 14.667 0 3.686-3.703 9.85-11.809 9.85-8.109 0-11.811-6.164-11.811-9.85z" fill="#d6a57c"/><path d="m32.047 50.929c-1.395 6.018-6.234 3.066-6.814 2.035 0 1.717 3.893 4.738 6.814 1.689 2.926 3.049 6.816.027 6.816-1.689-.582 1.031-5.42 3.982-6.816-2.035z" fill="#1a1626"/><path d="m25.77 48.32c0-2.769 2.793-3.3 6.24-3.3 3.443 0 6.236.531 6.236 3.3 0 2.202-4.965 4.154-6.236 4.154-1.276.001-6.24-1.952-6.24-4.154z" fill="#302c3b"/><g fill="#6e8189"><path d="m43.621 31.851c0 1.498-1.818 1.498-1.818 0 0-1.5 1.818-1.5 1.818 0z"/><path d="m19.677 31.851c0 1.498-1.818 1.498-1.818 0-.001-1.5 1.818-1.5 1.818 0z"/></g></svg>