<svg enable-background="new 0 0 64 64" height="64" viewBox="0 0 64 64" width="64" xmlns="http://www.w3.org/2000/svg" xmlns:xlink="http://www.w3.org/1999/xlink"><linearGradient id="a"><stop offset="0" stop-color="#1a1626"/><stop offset=".4493" stop-color="#1c1828"/><stop offset=".6893" stop-color="#24202f"/><stop offset=".8794" stop-color="#322e3b"/><stop offset="1" stop-color="#3f3b47"/></linearGradient><radialGradient id="b" cx="2647.8164" cy="14.4629" gradientTransform="matrix(-.9384 0 0 1.0012 2496.9246 .8277)" gradientUnits="userSpaceOnUse" r="9.772" xlink:href="#a"/><radialGradient id="c" cx="-135.769" cy="14.4629" gradientTransform="matrix(.9384 0 0 1.0012 179.245 .8277)" gradientUnits="userSpaceOnUse" r="9.7722" xlink:href="#a"/><radialGradient id="d" cx="31.0483" cy="32.9551" gradientTransform="matrix(.9992 0 0 1.0043 .9897 .7821)" gradientUnits="userSpaceOnUse" r="29.0215"><stop offset=".297" stop-color="#f7fcff"/><stop offset=".5353" stop-color="#f3f8fb"/><stop offset=".7716" stop-color="#e7edf0"/><stop offset="1" stop-color="#d4dadd"/></radialGradient><path d="m23.918 9.486c4.419 16.039-16.686 22.26-21.021 10.599-5.61-15.093 16.758-26.07 21.021-10.599z" fill="url(#b)"/><path d="m40.074 9.486c-4.418 16.039 16.688 22.259 21.021 10.599 5.612-15.093-16.759-26.07-21.021-10.599z" fill="url(#c)"/><path d="m52.373 18.046s.607-1.492 1.998-1.998c-2.139-1.155-4.336-1.111-4.336-1.111s-.475-1.697 2.521-2.513c-3.256-1.823-6.08-.658-6.08-.658l7.131 9.221s.031-1.59 1.098-2.374c-1.185-.574-2.332-.567-2.332-.567z" fill="#dfe4e7"/><path d="m11.473 12.424c2.996.816 2.521 2.513 2.521 2.513s-2.198-.044-4.334 1.111c1.39.506 1.997 1.998 1.997 1.998s-1.147-.007-2.334.568c1.067.784 1.099 2.374 1.099 2.374l7.132-9.221c-.001-.001-2.825-1.166-6.081.657z" fill="#dfe4e7"/><path d="m51.635 17.866c-2.811-3.294-6.441-12.108-19.621-12.108-13.178 0-16.812 8.814-19.62 12.108-5.89 6.902-10.935 13.467-10.312 22.314 2.048 29.091 57.817 29.097 59.868 0 .616-8.85-4.427-15.409-10.315-22.314z" fill="url(#d)"/><path d="m38.346 28.393c1.107-4.494 6.615-5.23 8.506-1.284 1.432 2.989 3.283 4.67 5.305 6.242 6.418 4.988-.668 14.764-8.764 8.833-3.666-2.686-6.459-8.074-5.047-13.791z" fill="#4e5e67"/><path d="m25.685 28.393c-1.109-4.494-6.616-5.23-8.508-1.284-1.431 2.989-3.282 4.67-5.304 6.242-6.418 4.988.668 14.764 8.764 8.833 3.666-2.686 6.458-8.074 5.048-13.791z" fill="#4e5e67"/><ellipse cx="21.024" cy="32.13" fill="#1a1626" rx="3.497" ry="5.021"/><path d="m20.853 30.249c0 1.674-1.999 1.674-1.999 0s1.999-1.674 1.999 0z" fill="#6e8189"/><ellipse cx="43.006" cy="32.13" fill="#1a1626" rx="3.498" ry="5.021"/><path d="m42.836 30.249c0 1.674-1.998 1.674-1.998 0s1.998-1.674 1.998 0z" fill="#6e8189"/><g fill="#302c3b"><path d="m32.014 49.597c-1.996 7.823-8.919 3.986-9.748 2.646 0 2.231 5.565 6.16 9.748 2.195 4.183 3.965 9.75.036 9.75-2.195-.832 1.34-7.754 5.177-9.75-2.646z"/><path d="m23.033 46.205c0-3.599 3.997-4.29 8.925-4.29 4.927 0 8.923.691 8.923 4.29 0 2.863-7.104 5.402-8.923 5.402-1.824 0-8.925-2.539-8.925-5.402z"/></g></svg>