<svg enable-background="new 0 0 64 64" height="64" viewBox="0 0 64 64" width="64" xmlns="http://www.w3.org/2000/svg" xmlns:xlink="http://www.w3.org/1999/xlink"><linearGradient id="a" gradientUnits="userSpaceOnUse" x1="32.0005" x2="32.0005" y1="55.4512" y2="5.0005"><stop offset="0" stop-color="#e09c67"/><stop offset=".3188" stop-color="#e5a97b"/><stop offset=".7235" stop-color="#e9b68f"/><stop offset="1" stop-color="#ebbb96"/></linearGradient><linearGradient id="b"><stop offset=".2667" stop-color="#995f34"/><stop offset=".3577" stop-color="#a0673d"/><stop offset=".6105" stop-color="#af774f"/><stop offset=".7879" stop-color="#b47d56"/></linearGradient><linearGradient id="c" gradientUnits="userSpaceOnUse" x1="13.165" x2="13.165" xlink:href="#b" y1="46.7852" y2="5.3574"/><linearGradient id="d" gradientUnits="userSpaceOnUse" x1="50.835" x2="50.835" xlink:href="#b" y1="46.7852" y2="5.3584"/><linearGradient id="e" gradientUnits="userSpaceOnUse" x1="32.0005" x2="32.0005" y1="59" y2="45.4355"><stop offset="0" stop-color="#ff6052"/><stop offset=".2049" stop-color="#fc5e50"/><stop offset=".3677" stop-color="#f2574a"/><stop offset=".516" stop-color="#e14c40"/><stop offset=".6548" stop-color="#ca3d32"/><stop offset=".7576" stop-color="#b32e24"/></linearGradient><linearGradient id="f" gradientUnits="userSpaceOnUse" x1="32.0005" x2="32.0005" y1="53.668" y2="8.6948"><stop offset="0" stop-color="#e1eaf0"/><stop offset=".0404" stop-color="#e4ecf2"/><stop offset=".2856" stop-color="#f3f7f9"/><stop offset=".5724" stop-color="#fcfdfe"/><stop offset="1" stop-color="#fff"/></linearGradient><path d="m39.67 7.019c-5.023-2.691-10.318-2.691-15.34 0-7.494 4.013-16.041 12.796-16.041 23.041 0 24.272 17.109 25.392 23.711 25.392 6.604 0 23.711-1.119 23.711-25.392 0-10.245-8.547-19.028-16.041-23.041z" fill="url(#a)"/><path d="m24.33 7.066c-8.988 5.678-10.348 29.984-15.834 36.181-2.832-19.06 12.074-41.344 15.834-36.181z" fill="#785647"/><path d="m15.463 7.357c-6.617 5.216-17.056 5.99-12.229 19.145 3.327 9.065-3.014 22.744 1.836 19.902 12.086-7.084 2.965-32.551 19.26-39.338-.767-1.864-4.98-2.772-8.867.291z" fill="url(#c)"/><path d="m39.67 7.066c8.988 5.678 10.35 29.984 15.838 36.181 2.83-19.06-12.078-41.344-15.838-36.181z" fill="#785647"/><path d="m48.535 7.357c6.619 5.216 17.058 5.99 12.23 19.145-3.326 9.065 3.017 22.744-1.836 19.902-12.087-7.084-2.966-32.551-19.259-39.338.768-1.861 4.98-2.772 8.865.291z" fill="url(#d)"/><ellipse cx="44.357" cy="28.98" fill="#302c3b" rx="3.637" ry="4.945"/><path d="m43.693 26.854c0 1.498-1.818 1.498-1.818 0 0-1.5 1.818-1.5 1.818 0z" fill="#6e8189"/><ellipse cx="19.643" cy="28.98" fill="#302c3b" rx="3.637" ry="4.945"/><path d="m18.979 26.854c0 1.498-1.818 1.498-1.818 0-.001-1.5 1.818-1.5 1.818 0z" fill="#6e8189"/><path d="m32 37.938c-3.367 0-16.518 4.997-16.518 10.635 0 7.081 7.392 8.444 16.518 8.444s16.518-1.363 16.518-8.444c0-5.637-13.151-10.635-16.518-10.635z" fill="#cfd8dd"/><path d="m27.753 45.436c-1.118 2.825-1.94 5.772-1.632 7.863 1.125 7.602 10.635 7.602 11.758 0 .309-2.091-.514-5.038-1.632-7.863z" fill="url(#e)"/><path d="m32 56.148-1.488-10.713h2.974z" fill="#b81b1b"/><path d="m34.802 13.071c0-5.836-5.604-5.836-5.604 0 0 31.56-19.608 24.479-16.034 36.218 2.478 8.138 18.836 3.69 18.836-3.254 0 6.944 16.358 11.392 18.836 3.254 3.574-11.738-16.034-4.658-16.034-36.218z" fill="url(#f)"/><path d="m24 39.635c0-3.671 3.58-4.378 8-4.378 4.418 0 8 .707 8 4.378 0 2.923-6.371 5.514-8 5.514-1.631-.001-8-2.591-8-5.514z" fill="#302c3b"/><g fill="#dde2e6"><path d="m39.246 45.843c0 1.265 1.92 1.265 1.92 0 0-1.264-1.92-1.264-1.92 0z"/><path d="m42.471 43.707c0 1.268 1.918 1.268 1.918 0 .003-1.266-1.918-1.266-1.918 0z"/><path d="m42.711 48.075c0 1.267 1.918 1.267 1.918 0 0-1.264-1.918-1.264-1.918 0z"/><path d="m45.7 45.967c0 1.264 1.918 1.264 1.918 0 0-1.268-1.918-1.268-1.918 0z"/><path d="m24.754 45.843c0 1.265-1.92 1.265-1.92 0 0-1.264 1.92-1.264 1.92 0z"/><path d="m21.529 43.707c0 1.268-1.918 1.268-1.918 0-.004-1.266 1.918-1.266 1.918 0z"/><path d="m21.289 48.075c0 1.267-1.918 1.267-1.918 0 0-1.264 1.918-1.264 1.918 0z"/><path d="m18.3 45.967c0 1.264-1.918 1.264-1.918 0 0-1.268 1.918-1.268 1.918 0z"/></g></svg>