<svg enable-background="new 0 0 64 64" height="64" viewBox="0 0 64 64" width="64" xmlns="http://www.w3.org/2000/svg" xmlns:xlink="http://www.w3.org/1999/xlink"><linearGradient id="a" gradientUnits="userSpaceOnUse" x1="32.0005" x2="32.0005" y1="57" y2="7.0005"><stop offset="0" stop-color="#d9667f"/><stop offset=".3265" stop-color="#eb7a93"/><stop offset=".7045" stop-color="#fa89a2"/><stop offset="1" stop-color="#ff8fa8"/></linearGradient><linearGradient id="b"><stop offset=".2242" stop-color="#170615"/><stop offset=".2555" stop-color="#240c1b"/><stop offset=".3804" stop-color="#512032"/><stop offset=".5003" stop-color="#753143"/><stop offset=".6122" stop-color="#8e3c50"/><stop offset=".7133" stop-color="#9e4457"/><stop offset=".7939" stop-color="#a3465a"/></linearGradient><radialGradient id="c" cx="-19.4922" cy="52.8555" gradientTransform="matrix(.9134 .2442 -.3804 1.4674 79.6053 -36.8784)" gradientUnits="userSpaceOnUse" r="13.7947" xlink:href="#b"/><radialGradient id="d" cx="1412.5166" cy="52.8555" gradientTransform="matrix(-.9134 .2442 .3804 1.4674 1292.3352 -386.5504)" gradientUnits="userSpaceOnUse" r="13.7947" xlink:href="#b"/><path d="m62 39.312c0 23.585-60 23.585-60 0 0-15.34 16.099-32.312 29.998-32.312 13.905 0 30.002 16.972 30.002 32.312z" fill="url(#a)"/><path d="m42.073 46.842c-13.842 0-2.801-27.015 5.163-23.086 10.745 5.308 8.672 23.086-5.163 23.086z" fill="url(#c)"/><path d="m21.93 46.842c13.838 0 2.794-27.015-5.167-23.086-10.745 5.308-8.668 23.086 5.167 23.086z" fill="url(#d)"/></svg>