<svg enable-background="new 0 0 64 64" height="64" viewBox="0 0 64 64" width="64" xmlns="http://www.w3.org/2000/svg" xmlns:xlink="http://www.w3.org/1999/xlink"><linearGradient id="a" gradientUnits="userSpaceOnUse" x1="41.6924" x2="60.3076" y1="17.9233" y2="17.9233"><stop offset="0" stop-color="#c98796"/><stop offset=".0068" stop-color="#ca8897"/><stop offset=".1825" stop-color="#dca8af"/><stop offset=".3649" stop-color="#ebc1c2"/><stop offset=".5558" stop-color="#f5d2cf"/><stop offset=".7599" stop-color="#fbddd7"/><stop offset="1" stop-color="#fde0da"/></linearGradient><linearGradient id="b" gradientUnits="userSpaceOnUse" x1="3.6924" x2="22.3076" y1="17.9233" y2="17.9233"><stop offset="0" stop-color="#fde0da"/><stop offset=".2401" stop-color="#fbddd7"/><stop offset=".4442" stop-color="#f5d2cf"/><stop offset=".6351" stop-color="#ebc1c2"/><stop offset=".8175" stop-color="#dca8af"/><stop offset=".9932" stop-color="#ca8897"/><stop offset="1" stop-color="#c98796"/></linearGradient><radialGradient id="c" cx="6.4229" cy="24.2329" gradientTransform="matrix(.9667 0 0 1.0161 25.7908 5.6132)" gradientUnits="userSpaceOnUse" r="28.4704"><stop offset="0" stop-color="#ffc166"/><stop offset=".3417" stop-color="#fec063"/><stop offset=".5472" stop-color="#fcbb5b"/><stop offset=".7166" stop-color="#f9b34d"/><stop offset=".8655" stop-color="#f4a839"/><stop offset="1" stop-color="#ed9a1f"/></radialGradient><radialGradient id="d" cx="6.6729" cy="34.2197" gradientTransform="matrix(.9667 0 0 1.0161 25.7908 5.6132)" gradientUnits="userSpaceOnUse" r="27.7602"><stop offset=".3697" stop-color="#fff"/><stop offset=".5626" stop-color="#fbfcfc"/><stop offset=".7541" stop-color="#eff1f2"/><stop offset=".9446" stop-color="#dbe0e3"/><stop offset="1" stop-color="#d4dadd"/></radialGradient><path d="m62 17.933c0 6.074-4.927 11-10.998 11-6.077 0-11.002-4.926-11.002-11 0-6.075 4.925-11 11.002-11 6.071 0 10.998 4.925 10.998 11z" fill="#f7b148"/><ellipse cx="51" cy="17.924" fill="url(#a)" rx="9.308" ry="9.275"/><path d="m24 17.933c0 6.074-4.927 11-10.998 11-6.077 0-11.002-4.926-11.002-11 0-6.075 4.925-11 11.002-11 6.071 0 10.998 4.925 10.998 11z" fill="#f7b148"/><ellipse cx="13" cy="17.924" fill="url(#b)" rx="9.308" ry="9.275"/><path d="m35.695 4.587c-.523 1.69-1.576 3.01-1.576 3.01-1.406-3.361-5.517-5.597-5.517-5.597.928 2.916.697 5.409.697 5.409-2.412-1.128-4.775-.681-4.775-.681 1.621 2.069 1.297 4.727 1.297 4.727h13.656c-.258-4.093-3.782-6.868-3.782-6.868z" fill="#f7b148"/><path d="m53.833 27.299c-3.995-6.086-4.74-19.094-21.833-19.094s-17.838 13.008-21.833 19.094c-2.885 4.394-9.449 11.762-7.167 19.83 5.297 18.724 21.625 14.451 29 14.451s23.703 4.272 29-14.451c2.282-8.068-4.282-15.436-7.167-19.83z" fill="url(#c)"/><path d="m43.396 39.413c-8.033 2.793-5.846-23.53-11.396-23.53s-3.365 26.323-11.398 23.53c-10.945-3.803-14.84 1.322-14.066 7.901 1.928 16.326 22.654 11.638 25.464 11.638s23.534 4.688 25.462-11.638c.776-6.579-3.121-11.704-14.066-7.901z" fill="url(#d)"/><path d="m46.9 33.253c0 6.774-7.566 6.774-7.566 0 0-6.773 7.566-6.773 7.566 0z" fill="#302c3b"/><path d="m43.02 31.527c0 1.691-2.324 1.691-2.324 0-.001-1.694 2.324-1.694 2.324 0z" fill="#6e8189"/><path d="m24.664 33.253c0 6.774-7.564 6.774-7.564 0 0-6.773 7.564-6.773 7.564 0z" fill="#302c3b"/><path d="m20.785 31.527c0 1.691-2.326 1.691-2.326 0 0-1.695 2.326-1.695 2.326 0z" fill="#6e8189"/><g fill="#b3c2c6"><path d="m22.484 49.712c-12.949-2.098-15.727.387-15.65.912.025.172 5.686-1.598 15.65-.912z"/><path d="m22.941 51.512c-15.877-.077-18.753 3.462-18.568 4.088.063.198 6.516-3.021 18.568-4.088z"/><path d="m41.516 49.712c12.949-2.098 15.727.387 15.65.912-.025.172-5.686-1.598-15.65-.912z"/><path d="m41.059 51.512c15.877-.077 18.754 3.462 18.566 4.088-.061.198-6.516-3.021-18.566-4.088z"/></g><path d="m32 51.959c-1.553 6.937-6.938 3.534-7.582 2.347 0 1.979 4.33 5.461 7.582 1.945 3.252 3.516 7.582.033 7.582-1.945-.646 1.187-6.029 4.59-7.582-2.347z" fill="#ff8fa8"/><path d="m25.119 48.964c0-3.428 3.082-4.088 6.881-4.088 3.801 0 6.879.66 6.879 4.088 0 2.727-5.473 5.146-6.879 5.146-1.404-.001-6.881-2.42-6.881-5.146z" fill="#ff8fa8"/></svg>