<svg enable-background="new 0 0 64 64" height="64" viewBox="0 0 64 64" width="64" xmlns="http://www.w3.org/2000/svg" xmlns:xlink="http://www.w3.org/1999/xlink"><radialGradient id="a" cx="32.9785" cy="31" gradientTransform="matrix(.9907 0 0 1 -.6711 0)" gradientUnits="userSpaceOnUse" r="27.7665"><stop offset="0" stop-color="#92c932"/><stop offset=".3048" stop-color="#8ec531"/><stop offset=".5891" stop-color="#83ba30"/><stop offset=".8645" stop-color="#70a82d"/><stop offset="1" stop-color="#649c2b"/></radialGradient><linearGradient id="b"><stop offset="0" stop-color="#ffe06e"/><stop offset=".2552" stop-color="#ffdf6b"/><stop offset=".439" stop-color="#fedd62"/><stop offset=".6004" stop-color="#fdda52"/><stop offset=".7489" stop-color="#fcd53c"/><stop offset=".8873" stop-color="#fbcf1f"/><stop offset="1" stop-color="#f9c802"/></linearGradient><radialGradient id="c" cx="13.4932" cy="13.4531" gradientTransform="matrix(.9907 0 0 1 2.8494 2.5154)" gradientUnits="userSpaceOnUse" r="8.25" xlink:href="#b"/><radialGradient id="d" cx="43.1758" cy="13.3101" gradientTransform="matrix(.9907 0 0 1 2.6912 2.5173)" gradientUnits="userSpaceOnUse" r="8.2491" xlink:href="#b"/><radialGradient id="e" cx="37.0244" cy="34.3906" gradientTransform="matrix(1.0201 0 0 .7665 -5.7672 8.0318)" gradientUnits="userSpaceOnUse" r="30.2498"><stop offset=".2485" stop-color="#ffdaad"/><stop offset=".5528" stop-color="#fdd8ab"/><stop offset=".7289" stop-color="#f6d0a2"/><stop offset=".8718" stop-color="#eac394"/><stop offset=".997" stop-color="#d9b181"/><stop offset="1" stop-color="#d9b080"/></radialGradient><linearGradient id="f" gradientUnits="userSpaceOnUse" x1="32.0005" x2="32.0005" y1="45.873" y2="42.1143"><stop offset="0" stop-color="#ff6052"/><stop offset=".1994" stop-color="#f95c4e"/><stop offset=".4768" stop-color="#e75043"/><stop offset=".7985" stop-color="#c93d31"/><stop offset="1" stop-color="#b32e24"/></linearGradient><path d="m56.46 23.325c1.25-1.79 1.991-3.968 1.991-6.325 0-6.072-4.881-11-10.896-11-4.563 0-8.468 2.836-10.091 6.853-2.058-.55-3.937-.853-5.464-.853s-3.404.302-5.463.851c-1.623-4.016-5.526-6.851-10.085-6.851-6.019 0-10.9 4.928-10.9 11 0 2.355.74 4.532 1.988 6.321-7.341 7.163-5.27 9.024-5.27 9.024s13.063 23.655 29.73 23.655c16.669 0 29.73-23.654 29.73-23.654s2.071-1.861-5.27-9.021z" fill="url(#a)"/><path d="m29.876 33.981c0 .703-1.819 1.274-2.515 1.274-1.952 0-1.952-2.55 0-2.55.696.001 2.515.57 2.515 1.276z" fill="#302c3b"/><path d="m36.64 35.256c-.696 0-2.515-.571-2.515-1.274 0-.706 1.818-1.275 2.515-1.275 1.952-.001 1.952 2.549 0 2.549z" fill="#302c3b"/><g fill="#528008"><path d="m5.325 32.225c1.398 2.253 5.209-5.598 1.831-5.518-3.509.077-2.72 4.088-1.831 5.518z"/><path d="m12.177 31.022c1.653.211-.565-4.919-1.907-3.178-1.393 1.806.859 3.045 1.907 3.178z"/><path d="m10.128 25.85c.895-.407-1.73-2.304-1.895-1.013-.169 1.343 1.329 1.27 1.895 1.013z"/><path d="m53.207 28.036c-1.613-.433-.07 4.953 1.484 3.407 1.612-1.602-.462-3.134-1.484-3.407z"/><path d="m56.335 27.609c1.655.212-.563-4.919-1.907-3.179-1.391 1.807.861 3.047 1.907 3.179z"/><path d="m58.769 31.718c1.302.165-.443-3.861-1.496-2.496-1.096 1.421.672 2.392 1.496 2.496z"/></g><path d="m24.622 17c0 4.558-3.66 8.25-8.171 8.25-4.513 0-8.175-3.692-8.175-8.25 0-4.555 3.662-8.25 8.175-8.25 4.511 0 8.171 3.696 8.171 8.25z" fill="url(#c)"/><ellipse cx="16.448" cy="17" fill="#302c3b" rx="5.449" ry="5.533"/><ellipse cx="13.999" cy="14.342" fill="#6e8189" rx="1.265" ry="1.284"/><path d="m39.381 17c0 4.557 3.661 8.249 8.172 8.249 4.514 0 8.174-3.692 8.174-8.249 0-4.555-3.66-8.249-8.174-8.249-4.511 0-8.172 3.696-8.172 8.249z" fill="url(#d)"/><ellipse cx="47.554" cy="17" fill="#302c3b" rx="5.449" ry="5.531"/><ellipse cx="45.104" cy="14.344" fill="#6e8189" rx="1.262" ry="1.283"/><path d="m32 42.592c-.01-.002-17.303-2.908-29.73-10.246.542 11.621 9.68 16.938 9.68 16.938s5.421 8.716 20.05 8.716c14.632 0 20.05-8.716 20.05-8.717 0 0 9.139-5.316 9.68-16.938-12.427 7.339-29.72 10.245-29.73 10.247z" fill="url(#e)"/><path d="m32 40.939c-5.76 0-16.406-2.816-29.73-8.594 5.361 9.122 19.373 13.528 29.73 13.528 10.361 0 24.369-4.406 29.73-13.527-13.324 5.777-23.97 8.593-29.73 8.593z" fill="#302c3b"/><path d="m32 45.873c6.876 0 12.496-1.863 12.496-1.863-4.009-2.525-20.978-2.529-24.992 0 0 0 5.622 1.863 12.496 1.863z" fill="url(#f)"/></svg>