<svg enable-background="new 0 0 64 64" height="64" viewBox="0 0 64 64" width="64" xmlns="http://www.w3.org/2000/svg" xmlns:xlink="http://www.w3.org/1999/xlink"><linearGradient id="a"><stop offset=".3636" stop-color="#d9667f"/><stop offset=".5578" stop-color="#ea7891"/><stop offset=".8113" stop-color="#f989a2"/><stop offset="1" stop-color="#ff8fa8"/></linearGradient><linearGradient id="b" gradientTransform="matrix(.9987 -.0519 .0519 .9987 19.9115 56.0376)" gradientUnits="userSpaceOnUse" x1="26.9395" x2="43.5635" xlink:href="#a" y1="-36.563" y2="-36.563"/><linearGradient id="c" gradientTransform="matrix(-.9987 -.0519 -.0519 .9987 2096.6274 56.0376)" gradientUnits="userSpaceOnUse" x1="2076.6143" x2="2093.2393" xlink:href="#a" y1="69.9541" y2="69.9541"/><linearGradient id="d" gradientUnits="userSpaceOnUse" x1="31.9585" x2="31.9585" y1="59" y2="10.0063"><stop offset="0" stop-color="#ff9eb5"/><stop offset=".1064" stop-color="#ffa4b9"/><stop offset=".6652" stop-color="#ffbdcd"/><stop offset="1" stop-color="#ffc7d4"/></linearGradient><linearGradient id="e" gradientUnits="userSpaceOnUse" x1="31.958" x2="31.958" y1="52.7051" y2="36.2871"><stop offset="0" stop-color="#d9667f"/><stop offset=".3265" stop-color="#eb7a93"/><stop offset=".7045" stop-color="#fa89a2"/><stop offset="1" stop-color="#ff8fa8"/></linearGradient><linearGradient id="f"><stop offset=".2242" stop-color="#302c3b"/><stop offset=".3131" stop-color="#5a3a4c"/><stop offset=".4245" stop-color="#874a5e"/><stop offset=".5316" stop-color="#ab566c"/><stop offset=".6316" stop-color="#c45f77"/><stop offset=".7219" stop-color="#d4647d"/><stop offset=".7939" stop-color="#d9667f"/></linearGradient><radialGradient id="g" cx="-26.5356" cy="68.7852" gradientTransform="matrix(.9134 .2405 -.3804 1.445 85.5955 -47.232)" gradientUnits="userSpaceOnUse" r="4.5995" xlink:href="#f"/><radialGradient id="h" cx="1405.5361" cy="68.7852" gradientTransform="matrix(-.9134 .2405 .3804 1.445 1286.3419 -391.5931)" gradientUnits="userSpaceOnUse" r="4.5995" xlink:href="#f"/><path d="m54.006 6.347c-6.48 1.07-11.355 3.381-13.404 7.65-2.055 4.279 7.418 20.032 13.898 15.31 5.443-3.965 1.969-15.013 5.699-19.823 5.707-7.359-3.758-3.538-6.193-3.137z" fill="#ffc7d4"/><path d="m53.166 9.464c2.377-1.644 10.482-5.22 6.934-.901-5.762 7.016-.451 21.121-10 19.985l-5.156-9.945c4.021-3.186 4.91-6.852 8.222-9.139z" fill="url(#b)"/><path d="m9.995 6.347c6.48 1.07 11.354 3.381 13.403 7.65 2.055 4.279-7.417 20.032-13.898 15.31-5.443-3.965-1.968-15.013-5.699-19.823-5.708-7.359 3.757-3.538 6.194-3.137z" fill="#ffc7d4"/><path d="m10.833 9.464c-2.376-1.644-10.481-5.22-6.934-.901 5.764 7.016.453 21.121 10 19.985l5.158-9.945c-4.022-3.186-4.911-6.852-8.224-9.139z" fill="url(#c)"/><path d="m15.589 24.056c2.732-4.84 5.127-14.05 16.368-14.05 11.242 0 13.638 9.21 16.371 14.05 1.793 3.176 7.133 7.36 6.635 16.725-.533 9.992-8.51 18.219-23.005 18.219-14.497 0-22.471-8.227-23.004-18.219-.499-9.362 4.844-13.552 6.635-16.725z" fill="url(#d)"/><ellipse cx="43.564" cy="33.741" fill="#302c3b" rx="3.111" ry="4"/><path d="m42.994 32.021c0 1.213-1.555 1.213-1.555 0s1.555-1.212 1.555 0z" fill="#6e8189"/><path d="m23.464 33.898c0 2.207-1.393 3.998-3.111 3.998s-3.111-1.791-3.111-3.998c0-2.211 1.393-4.002 3.111-4.002s3.111 1.792 3.111 4.002z" fill="#302c3b"/><path d="m19.785 32.177c0 1.212-1.555 1.212-1.555 0s1.555-1.212 1.555 0z" fill="#6e8189"/><path d="m31.959 54.102c-5.005 0-7.063-2.986-5.454-2.604.927.218 9.979.218 10.903 0 1.613-.381-.447 2.604-5.449 2.604z" fill="#302c3b"/><path d="m41.961 46.897c0 7.744-20.006 7.744-20.006 0 0-5.037 5.368-10.61 10.003-10.61 4.636 0 10.003 5.573 10.003 10.61z" fill="url(#e)"/><path d="m35.316 49.37c-4.615 0-.934-8.87 1.723-7.581 3.582 1.744 2.891 7.581-1.723 7.581z" fill="url(#g)"/><path d="m28.6 49.37c4.615 0 .932-8.87-1.723-7.581-3.583 1.744-2.89 7.581 1.723 7.581z" fill="url(#h)"/></svg>