<svg enable-background="new 0 0 64 64" height="64" viewBox="0 0 64 64" width="64" xmlns="http://www.w3.org/2000/svg" xmlns:xlink="http://www.w3.org/1999/xlink"><linearGradient id="a"><stop offset=".2606" stop-color="#ebbb96"/><stop offset=".4854" stop-color="#e7b792"/><stop offset=".7285" stop-color="#daaa85"/><stop offset=".9795" stop-color="#c69470"/><stop offset="1" stop-color="#c4926e"/></linearGradient><radialGradient id="b" cx="1091.2783" cy="-896.5474" gradientTransform="matrix(0 .9308 1.1711 0 1107.7545 -985.6353)" gradientUnits="userSpaceOnUse" r="8.161" xlink:href="#a"/><radialGradient id="c" cx="220.0205" cy="287.1836" gradientTransform="matrix(0 -.9308 -1.1711 0 342.5169 234.6676)" gradientUnits="userSpaceOnUse" r="8.161" xlink:href="#a"/><radialGradient id="d" cx="33.6504" cy="47.7793" gradientTransform="matrix(1.004 0 0 .9643 -1.7863 -15.1041)" gradientUnits="userSpaceOnUse" r="24.9981"><stop offset="0" stop-color="#b3806a"/><stop offset="1" stop-color="#785647"/></radialGradient><linearGradient id="e"><stop offset="0" stop-color="#ebbb96"/><stop offset="1" stop-color="#ebbb96"/></linearGradient><radialGradient id="f" cx="267.5078" cy="-932.2607" gradientTransform="matrix(1.3077 0 0 -.8853 -317.8211 -781.8891)" gradientUnits="userSpaceOnUse" r="12.7083" xlink:href="#e"/><radialGradient id="g" cx="1312.9336" cy="53.4902" gradientTransform="matrix(-1 0 0 .9524 1352.2305 -20.9658)" gradientUnits="userSpaceOnUse" r="10.4613" xlink:href="#e"/><radialGradient id="h" cx="1327.5293" cy="53.4902" gradientTransform="matrix(-1 0 0 .9524 1352.2305 -20.9658)" gradientUnits="userSpaceOnUse" r="10.4618" xlink:href="#e"/><linearGradient id="i"><stop offset="0" stop-color="#d9a17a"/><stop offset="1" stop-color="#ebbb96"/></linearGradient><linearGradient id="j" gradientUnits="userSpaceOnUse" x1="41.4834" x2="39.4763" xlink:href="#i" y1="17.5015" y2="28.9496"/><linearGradient id="k" gradientTransform="matrix(-1 0 0 1 1352.2305 0)" gradientUnits="userSpaceOnUse" x1="1329.7168" x2="1327.7096" xlink:href="#i" y1="17.5015" y2="28.95"/><linearGradient id="l" gradientUnits="userSpaceOnUse" x1="31.9985" x2="31.9985" y1="50.1963" y2="48.8271"><stop offset="0" stop-color="#d63324"/><stop offset=".0798" stop-color="#dc3f31"/><stop offset=".2475" stop-color="#e75346"/><stop offset=".4352" stop-color="#ee6155"/><stop offset=".6572" stop-color="#f3695d"/><stop offset="1" stop-color="#f46c60"/></linearGradient><circle cx="52.998" cy="30" fill="#785647" r="9"/><circle cx="52.998" cy="29.999" fill="url(#b)" opacity=".7" r="6.545"/><circle cx="11.002" cy="30" fill="#785647" r="9"/><circle cx="11.002" cy="30.001" fill="url(#c)" opacity=".7" r="6.545"/><path d="m44.999 45.624c0-16.5-26-16.5-26 0 0 16.501 26 16.501 26 0z" fill="#785647"/><path d="m43.156 7.017s-2.531-1.998-5.414-.526c0 0-.248-1.522 1.734-2.849 0 0-3.789-.678-6.463 1.687 0 0-.398-1.576.734-3.329 0 0-4.727.316-6.871 4.173 0 0-2.242-.9-4.008.451 1.766.394 1.711 1.21 1.711 1.21l17.088 1.267c.001 0-.401-1.802 1.489-2.084z" fill="#785647"/><path d="m51.566 25.724c0-13.238-10.072-19.784-19.566-19.784-9.496 0-19.568 6.546-19.568 19.784 0 4.025-4.502 7.409-4.531 12.792-.069 13.875 12.05 17.483 24.099 17.483 12.047 0 24.17-3.604 24.096-17.485-.03-5.382-4.53-8.765-4.53-12.79z" fill="url(#d)"/><ellipse cx="31.999" cy="43.44" fill="url(#f)" rx="17" ry="10.986"/><ellipse cx="39.296" cy="29.978" fill="url(#g)" rx="10.702" ry="9.729"/><ellipse cx="24.701" cy="29.978" fill="url(#h)" rx="10.703" ry="9.729"/><ellipse cx="39.296" cy="29.978" fill="url(#j)" rx="8.845" ry="8.001"/><ellipse cx="24.702" cy="29.978" fill="url(#k)" rx="8.844" ry="8.001"/><g fill="#302c3b"><path d="m27.53 37.472c-.452-1.916 4.056 1.297 3.449 1.516-1.099.403-3.087-.001-3.449-1.516z"/><path d="m36.466 37.472c.453-1.916-4.055 1.297-3.449 1.516 1.101.403 3.087-.001 3.449-1.516z"/><path d="m39.361 44.612c0-.357-.203-.804-.788-.92-1.5-.293-3.716-.596-6.575-.596-2.856 0-5.073.303-6.574.596-.584.116-.79.563-.79.92 0 3.23 2.431 6.484 7.364 6.484 4.934.001 7.363-3.253 7.363-6.484z"/></g><path d="m28.896 49.53c.897.42 1.931.666 3.102.666 1.173 0 2.205-.246 3.103-.666 0 0-1.555-1.232-3.103-.434-1.549-.798-3.102.434-3.102.434z" fill="url(#l)"/><path d="m40.271 26.6c1.611 0 2.916 1.96 2.916 4.378 0 2.417-1.305 4.378-2.916 4.378-1.614 0-2.92-1.961-2.92-4.378.001-2.418 1.306-4.378 2.92-4.378z" fill="#302c3b"/><ellipse cx="23.73" cy="30.978" fill="#302c3b" rx="2.919" ry="4.378"/><path d="m23.651 29.572c0 1.369-1.914 1.369-1.914 0 0-1.373 1.914-1.373 1.914 0z" fill="#6e8189"/><path d="m40.12 29.572c0 1.369-1.914 1.369-1.914 0 0-1.373 1.914-1.373 1.914 0z" fill="#6e8189"/></svg>