<svg enable-background="new 0 0 64 64" height="64" viewBox="0 0 64 64" width="64" xmlns="http://www.w3.org/2000/svg" xmlns:xlink="http://www.w3.org/1999/xlink"><linearGradient id="a"><stop offset=".2545" stop-color="#995f34"/><stop offset=".5224" stop-color="#9f663c"/><stop offset=".9401" stop-color="#b17a52"/><stop offset="1" stop-color="#b47d56"/></linearGradient><linearGradient id="b" gradientUnits="userSpaceOnUse" x1="43.834" x2="43.834" xlink:href="#a" y1="62" y2="36.1714"/><linearGradient id="c" gradientUnits="userSpaceOnUse" x1="31.6313" x2="41.8658" y1="41.2295" y2="45.9601"><stop offset="0" stop-color="#302c3b" stop-opacity=".4"/><stop offset="1" stop-color="#302c3b" stop-opacity="0"/></linearGradient><linearGradient id="d" gradientUnits="userSpaceOnUse" x1="27.3159" x2="21.394" xlink:href="#a" y1="54.4238" y2="35.9306"/><linearGradient id="e" gradientUnits="userSpaceOnUse" x1="11.5181" x2="11.5181" y1="53.5283" y2="26.1553"><stop offset="0" stop-color="#dbaf76"/><stop offset=".1314" stop-color="#e3b882"/><stop offset=".3809" stop-color="#edc593"/><stop offset=".6554" stop-color="#f3cd9d"/><stop offset="1" stop-color="#f5cfa0"/></linearGradient><path d="m20.936 4.352c-.175-1.631 9.593 4.684 9.988 15.526.033.696-4.548.056-7.347-2.363 0-.001-2.016-7.24-2.641-13.163z" fill="#b47d56"/><path d="m21.948 6.981c-.1-1.146 6.427 4.532 6.589 12.044.016.482-3.067-.583-4.933-2.627 0 0-1.291-5.255-1.656-9.417z" fill="#785647"/><path d="m18.858 14.08s12.298 6.111 13.744-2.32c-8.078-3.71-13.744 2.32-13.744 2.32z" fill="#302c3b"/><path d="m27.483 12.546c6.257 9.492 18.712 16.397 26.084 10.485-2.049-13.491-15.581-17.515-26.084-10.485z" fill="#302c3b"/><path d="m32.075 15.095c5.131 10.836 17.621 20.667 26.914 16.696.292-13.713-13.938-20.989-26.914-16.696z" fill="#3e3a47"/><path d="m39.825 20.167c2.328 11.891 11.489 27.072 21.427 25.819 2.554-18.384-7.856-26.359-21.427-25.819z" fill="#302c3b"/><path d="m47.616 27.708c-1.757 12.003 3.115 21.583 10.442 28.569 9.516-7.535.128-27.739-10.442-28.569z" fill="#3e3a47"/><path d="m31.954 14.953c-5.317 8.905-.611 29.596-.611 29.596 7.596 1.812 1.078 17.451 6.083 17.451 14.204 0 20.633-5.723 20.633-5.723 2.191-20.431-15.18-40.57-26.105-41.324z" fill="url(#b)"/><path d="m37.734 25.76c-9.795-.786-6.392 18.789-6.392 18.789 7.597 1.812 1.079 17.451 6.084 17.451-1.876-11.178 8.126-21.537.308-36.24z" fill="url(#c)"/><path d="m36.495 16.813c-.501-2.431-2.975-12.103-8.174-14.807-.629-.327-1.161 12.275-1.161 12.275-10.813 8.997-23.164 24.1-24.651 26.829-1.477 2.708 3.831 9.646 3.831 9.646 1.59.201 3.569 1.646 4.38 2.261 1.497 1.141 5.133-3.273 9.21-4.091 15.341-3.085 18.381-8.528 18.892-13.657 1.191-11.956-2.327-18.456-2.327-18.456z" fill="url(#d)"/><path d="m14.86 26.155c-6.324 6.806-11.688 13.277-12.611 14.97-1.477 2.708 4.091 9.63 4.091 9.63 1.59.201 3.529 1.972 4.34 2.587 1.497 1.142 5.478-3.281 9.25-4.417 4.879-6.933-8.149-11.958-5.07-22.77z" fill="url(#e)"/><path d="m6.442 44.197c-.529.401-1.82.701-2.211.158-.393-.544.269-1.727.796-2.127.525-.397 1.271-.282 1.66.261.393.542.283 1.31-.245 1.708z" fill="#302c3b"/><path d="m16.348 41.225c-.12 2.521-1.304 4.996-3.123 6.792-.925.892-2.008 1.607-3.178 2.069-1.167.467-2.411.682-3.635.662 2.332-.759 4.451-1.82 6.119-3.479.84-.812 1.569-1.75 2.202-2.764.619-1.025 1.182-2.106 1.615-3.28z" fill="#302c3b"/><path d="m28.338 3.865c.164-1.138 5.196 6.075 3.641 13.402-.098.473-3.799-.838-4.184-3.839 0 0-.053-5.434.543-9.563z" fill="#785647"/><path d="m5.195 40.107c-.537.352-.442.569.029.381.473-.188 2.777-.813 2.97 1.794 0 0 .13 1.167.422.009.289-1.165-.401-4.168-3.421-2.184z" fill="#d6a57c"/><path d="m26.802 27.17c0 4.237-4.786 4.237-4.786 0s4.786-4.236 4.786 0z" fill="#302c3b"/><path d="m24.348 26.09c0 1.058-1.472 1.058-1.472 0 0-1.06 1.472-1.06 1.472 0z" fill="#6e8189"/><path d="m15.773 23.845s2.733-1.873 7.306-3.772c6.31-2.621 3.69-7.146 3.69-7.146-9.533 1.954-10.996 10.918-10.996 10.918z" fill="#302c3b"/></svg>