<svg enable-background="new 0 0 64 64" height="64" viewBox="0 0 64 64" width="64" xmlns="http://www.w3.org/2000/svg" xmlns:xlink="http://www.w3.org/1999/xlink"><radialGradient id="a" cx="-8.9521" cy="43.1943" gradientTransform="matrix(-.00000004 -.97 1.1358 -.00000005 -7.5398 27.3165)" gradientUnits="userSpaceOnUse" r="30.8583"><stop offset="0" stop-color="#fc6"/><stop offset=".4485" stop-color="#fc6"/><stop offset=".7332" stop-color="#fecb64"/><stop offset=".87" stop-color="#fac65c"/><stop offset=".9751" stop-color="#f4bd4f"/><stop offset="1" stop-color="#f2ba4b"/></radialGradient><path d="m32.356 9.358c-5.806 10.288-14.275 10.86-18.985 16.852-1.751 2.23-6.388 2.788-8.815 2.788-2.528 0-2.442 22.66 0 22.66 6.461 0 10.184 2.494 17.49 3.538 2.094.299 9.151-.273 11.245-.624 4.166-.697 5.541-4.481 4.189-7.125 0 0 4.231-3.426 1.203-7.731 0 0 3.963-3.404 1.152-7.757h16.996c5.963 0 5.963-7.747 0-7.747-6.589 0-22.656 0-24.56 0-2.911 0 4.776-3.393 4.776-11.033.002-3.814-3.756-5.476-4.691-3.821z" fill="url(#a)"/><path d="m56.832 32.678h-15.799c1.025 2.375.519 5.004-1.434 7.135 1.572 2.65.986 5.563-1.257 7.813 1.155 3.021-.534 6.918-4.935 7.656-1.998.334-9.187.951-11.463.625-7.473-1.066-11.016-3.53-17.545-3.53-3.201 0-3.201-24.1 0-24.1 2.167 0 6.759-.412 8.411-2.515 4.87-6.197 13.213-6.641 18.923-16.761 1.334-2.363 6.029-.383 6.029 4.176 0 5.316-3.473 8.652-4.979 10.313h24.047c6.893.001 6.893 9.188.002 9.188zm-18.314-1.44h18.314c5.001 0 5.001-6.306 0-6.306h-24.56c-1.497 0-1.696-1.1-.943-1.98 1.538-1.798 5.005-4.701 5.005-9.772 0-3.147-2.854-4.355-3.356-3.464-5.86 10.383-14.591 11.272-19.046 16.942-1.97 2.507-6.804 3.047-9.229 3.061-1.769 1.888-1.558 19.443.013 21.22 6.358.028 10.672 2.579 17.431 3.546 1.926.274 8.86-.259 11.027-.621 4.256-.713 4.781-4.62 3.404-6.607 0 0 4.684-3.243 1.145-7.66 2.437-2.005 3.494-5.005.795-8.359z" fill="#d9a640"/></svg>