<svg enable-background="new 0 0 64 64" height="64" viewBox="0 0 64 64" width="64" xmlns="http://www.w3.org/2000/svg" xmlns:xlink="http://www.w3.org/1999/xlink"><radialGradient id="a" cx="39.8474" cy="39.4179" gradientTransform="matrix(1 0 0 1.2034 0 -7.8048)" gradientUnits="userSpaceOnUse" r="32.5345"><stop offset=".3152" stop-color="#452f1b" stop-opacity="0"/><stop offset=".8667" stop-color="#452f1b" stop-opacity=".9"/></radialGradient><path d="m12.715 34.208c-8.613-18.748 4.754-32.208 19.277-32.208 10.797 0 19.953 10.177 21.533 20.079 2.049 12.752-2.396 29.08-16.092 31.251-9.103 1.443-11.922 13.5-23.244 6.502-9.068-5.604 4.192-13.288-1.474-25.624z" fill="#614a36"/><path d="m33.631 45.677s6.293-7.199 13.764-7.708c7.605-16.997-7.231-35.235-21.41-30.395-12.418 4.237-13.551 21.235-9.166 23.005 4.94 1.992 7.902 7.032 2.188 10.948-4.051 2.777.828 11.98 4.233 7.95 3.463-4.105 5.907-5.346 10.391-3.8z" fill="url(#a)"/><path d="m33.631 45.677s-1.883-2.825-6.012-2.386c-1.264.137 3.41-3.75-1.836-7.415-.715-7.992-7.078-7.682-6.219-9.838 1.191-2.961 8.285-1.9 11.822 4.363.053-11.037-14.998-6.828-12.232-12.582 6.424-13.347 32.854-5.904 28.24 20.149 7.606-16.996-7.23-35.234-21.409-30.394-12.418 4.237-13.551 21.235-9.166 23.005 4.94 1.992 7.902 7.032 2.188 10.948-4.051 2.777.828 11.98 4.233 7.95 3.463-4.105 5.907-5.346 10.391-3.8z" fill="#452f1b"/></svg>