<svg enable-background="new 0 0 64 64" height="64" viewBox="0 0 64 64" width="64" xmlns="http://www.w3.org/2000/svg" xmlns:xlink="http://www.w3.org/1999/xlink"><linearGradient id="a" gradientUnits="userSpaceOnUse" x1="32.0015" x2="32.0015" y1="13.1465" y2="57.0005"><stop offset="0" stop-color="#b32e24"/><stop offset=".0103" stop-color="#b63026"/><stop offset=".1122" stop-color="#d14136"/><stop offset=".2241" stop-color="#e54f42"/><stop offset=".3496" stop-color="#f4594b"/><stop offset=".4998" stop-color="#fc5e50"/><stop offset=".7394" stop-color="#ff6052"/></linearGradient><path d="m60.015 7c-.565 0-11.735 3.486-28.013 3.486-16.281 0-27.451-3.486-28.017-3.486-1.293 0-1.985.887-1.985 1.743 0 12.675 10.519 26.146 30.002 26.146 19.482 0 29.998-13.471 29.998-26.146 0-.856-.689-1.743-1.985-1.743z" fill="#302c3b"/><path d="m12.114 20.384v8.526c0 18.7 8.907 28.08 19.888 28.09 10.98-.01 19.887-9.39 19.887-28.09 0-3.426 0-6.619 0-8.526 0-11.172-19.887-6.079-19.887-6.079s-19.888-5.093-19.888 6.079z" fill="url(#a)"/><path d="m29.174 13.734 2.828 27.869 2.819-27.869c-1.702.285-2.819.57-2.819.57s-1.127-.284-2.828-.57z" fill="#b81b1b"/></svg>