<svg enable-background="new 0 0 64 64" height="64" viewBox="0 0 64 64" width="64" xmlns="http://www.w3.org/2000/svg" xmlns:xlink="http://www.w3.org/1999/xlink"><radialGradient id="a" cx="27.4238" cy="32.5459" gradientTransform="matrix(1.0005 0 0 1.2466 -.0195 -8.0255)" gradientUnits="userSpaceOnUse" r="25.1468"><stop offset=".4909" stop-color="#fc6"/><stop offset=".7208" stop-color="#feca63"/><stop offset=".8692" stop-color="#fac45b"/><stop offset=".9943" stop-color="#f2bb4c"/><stop offset="1" stop-color="#f2ba4b"/></radialGradient><path d="m53.24 36.379c-.069-2.761-.422-15.482-1.14-18.693-.493-2.207-1.403-5.744-4.012-10.158-1.427-2.414-4.056-2.25-5.274-.166-.854-.848-1.979-1.893-3.566-3.424-2.932-2.83-7.48-.199-5.563 4.547-1.852-1.105-5.528-1.668-7.169-2.418-4.393-2.006-6.994 5.693 3.039 9.305 2.521 1.893 6.946 6.346 8.412 8.252.204.609.414 1.187.626 1.745-.352-.182-.664-.317-.937-.401-1.743-.533-5.458-.158-13.731-1.23-3.57-.461-3.803 2.07-10.29 7.816-1.228 1.086-.227 2.508 1.34 3.162 2.364.557 6.496-.029 9.778-3.799 0 0 4.743 3.502 9.29 2.898 0 0 1.524 5.854 4.053 7.369-2.226 3.744-6.274 2.773-7.654 4.959-5.548.484-7.33-3.035-9.528-3.172-.482-4.707-3.511-7.322-5.938-8.256-1.54-.393-3.283-.279-3.775.416-1.307 1.848.702 3.711.784 10.271.061 5.061 3.25 7.045 12.665 13.818 5.644 4.057 22.652 2.105 24.792-6.607 1.563-6.374 4.278-12.391 3.798-16.234z" fill="url(#a)"/><g fill="#d9a640"><path d="m35.02 9.475c-2.908-4.682.92-7.57 3.707-4.998 2.298 2.125 4.9 4.598 5.817 6.256 4.422 8.006 5.778 12.6 5.778 12.6s-.606-4.928-4.456-13.307c-.955-2.082-3.682-4.314-6.097-6.627-3.373-3.232-8.365-.49-7.08 4.428.806.497 1.564 1.079 2.331 1.648z"/><path d="m37.825 25.471c.611.193 1.218.398 1.821.617-.346-.871-.688-1.805-1.025-2.813-1.534-1.992-6.203-6.67-8.713-8.557-8.625-2.842-7.451-9.674-3.703-7.971 1.923.879 6.03 1.469 7.464 2.627 1.964 1.586 8.995 6.133 10.456 8.955 1.69 3.277 6.416 11.064 6.416 11.064s-2.973-7.674-5.081-11.752c-1.749-3.379-8.35-7.418-10.848-9.434-1.799-1.455-6.139-2.074-7.784-2.824-5.339-2.439-8.646 6.711 2.365 10.652 2.403 1.83 6.573 6 8.103 7.945.176.52.351 1.008.529 1.491z"/><path d="m53.996 37.28c-.301-10.81-.194-15.43-1.161-19.757-.578-2.58-1.565-6.09-4.102-10.377-1.716-2.904-4.839-2.732-6.391-.424.362.369.706.758 1.046 1.148.899-1.76 2.852-1.994 4.053.037 2.427 4.107 3.373 7.471 3.926 9.941.698 3.124 1.146 12.549 1.146 17.724 0 6.594-2.175 10.243-3.805 16.86-1.989 8.111-18.347 9.971-23.621 6.178-9.126-6.547-12.297-8.48-12.354-13.217-.077-6.006-1.935-8.393-.918-9.83.195-.279 1.469-.707 2.931-.135 4.788 1.875 5.401 7.102 5.485 8.25 2.888-.117 3.716 3.742 10.646 3.178 1.159-2.295 5.729-1.076 8.247-5.934 0 0-2.658-.721-4.522-7.941-4.8.955-9.959-3.082-9.959-3.082-1.459 1.834-4.917 4.912-9.433 4.098-.723-.129-1.894-1.162-1.077-1.885 6.841-6.061 6.625-8.035 9.696-7.633 7.286.957 12.395.832 13.606 1.203 1.282.393 8.903 4.635 8.903 4.635s-6.66-5.516-8.464-6.068c-1.522-.467-7.136-.359-13.854-1.258-4.047-.541-4.42 2.275-10.885 8-1.161 1.027-.809 2.201-.475 2.773-.721.066-1.618.285-2.073.934-1.598 2.254.565 4.191.643 10.713.064 5.346 3.326 7.492 12.978 14.416 5.968 4.293 23.654 2.359 25.96-7.037 1.442-5.869 3.939-11.508 3.828-15.51zm-29.128-5.378c3.096 2.004 6.217 2.85 8.622 2.717.443 1.488 1.661 5.055 3.586 6.74-2.042 2.693-5.405 2.047-7.039 4.061-4.702.277-6.158-2.469-8.45-3.092-.456-3.084-1.968-5.32-3.719-6.766 1.759-.228 4.489-1.035 7-3.66z"/></g></svg>