<svg enable-background="new 0 0 64 64" height="64" viewBox="0 0 64 64" width="64" xmlns="http://www.w3.org/2000/svg" xmlns:xlink="http://www.w3.org/1999/xlink"><radialGradient id="a" cx="-8.9517" cy="43.1934" gradientTransform="matrix(.00000004 -.97 -1.1358 -.00000005 71.5396 27.3164)" gradientUnits="userSpaceOnUse" r="30.8588"><stop offset="0" stop-color="#fc6"/><stop offset=".4485" stop-color="#fc6"/><stop offset=".7332" stop-color="#fecb64"/><stop offset=".87" stop-color="#fac65c"/><stop offset=".9751" stop-color="#f4bd4f"/><stop offset="1" stop-color="#f2ba4b"/></radialGradient><path d="m31.644 9.358c5.806 10.288 14.275 10.86 18.984 16.852 1.752 2.23 6.389 2.788 8.815 2.788 2.528 0 2.442 22.66 0 22.66-6.461 0-10.184 2.494-17.489 3.538-2.095.299-9.151-.273-11.245-.624-4.166-.697-5.541-4.481-4.189-7.125 0 0-4.231-3.426-1.203-7.731 0 0-3.963-3.404-1.152-7.757 0 0-12.516 0-16.996 0-5.963 0-5.963-7.747 0-7.747h24.56c2.911 0-4.776-3.393-4.776-11.033-.002-3.814 3.756-5.476 4.691-3.821z" fill="url(#a)"/><path d="m7.168 23.491h24.047c-1.506-1.66-4.979-4.996-4.979-10.313 0-4.559 4.694-6.539 6.029-4.176 5.709 10.12 14.053 10.563 18.923 16.761 1.652 2.103 6.244 2.515 8.411 2.515 3.2 0 3.2 24.1 0 24.1-6.529 0-10.072 2.464-17.545 3.53-2.276.326-9.465-.291-11.463-.625-4.4-.738-6.09-4.636-4.935-7.656-2.243-2.251-2.829-5.163-1.257-7.813-1.952-2.131-2.459-4.761-1.434-7.135h-15.797c-6.891-.001-6.891-9.188 0-9.188zm19.109 16.104c-3.539 4.417 1.145 7.66 1.145 7.66-1.377 1.987-.852 5.895 3.404 6.607 2.167.362 9.102.896 11.027.621 6.759-.967 11.072-3.518 17.431-3.546 1.57-1.776 1.781-19.332.013-21.22-2.426-.014-7.26-.554-9.229-3.061-4.455-5.67-13.186-6.56-19.045-16.942-.502-.892-3.356.316-3.356 3.464 0 5.071 3.467 7.975 5.005 9.772.753.881.554 1.98-.943 1.98h-24.561c-5.001 0-5.001 6.306 0 6.306h18.314c-2.699 3.356-1.642 6.356.795 8.359z" fill="#d9a640"/></svg>