<svg enable-background="new 0 0 64 64" height="64" viewBox="0 0 64 64" width="64" xmlns="http://www.w3.org/2000/svg" xmlns:xlink="http://www.w3.org/1999/xlink"><radialGradient id="a" cx="52.1074" cy="23.7783" gradientTransform="matrix(1.0187 0 0 .7499 -22.6806 8.4045)" gradientUnits="userSpaceOnUse" r="30.4245"><stop offset=".4485" stop-color="#fc6"/><stop offset=".7332" stop-color="#fecb64"/><stop offset=".87" stop-color="#fac65c"/><stop offset=".9751" stop-color="#f4bd4f"/><stop offset="1" stop-color="#f2ba4b"/></radialGradient><path d="m27.896 45.964c-3.939 5.402 1.342 11.771 5.281 10.313 7.922-2.936 11.061-2.604 18.5-1.156 6.678 1.299 11.426-9.881 8.719-14.313-4.014-6.567-2.623-17.081-8.531-24.5z" fill="#f2ba4b"/><path d="m52.037 19.026c2.018 3.487 2.951 7.669 3.86 11.737.919 4.113 1.787 7.998 3.712 11.146.753 1.234.463 4.417-1.326 7.607-1.949 3.476-4.468 4.895-6.309 4.535 0 0-6.607-1.286-9.374-1.286-3.066 0-6.119.646-10.208 2.161-1.988.738-6.429-3.491-3.395-7.73zm.146-3.337-24.772 30.288c-3.965 5.438 1.75 12.276 5.676 10.826 3.999-1.481 6.782-2.037 9.514-2.037 2.679 0 5.309.533 8.992 1.25 6.676 1.299 12.431-10.716 9.723-15.148-4.014-6.568-3.225-17.759-9.133-25.179z" fill="#d9a640"/><path d="m52.813 16.609c-1.971-5.899-5.563-8.425-11.979-4.063-5.844-5.98-9.148-6.416-14.438.417-5.529-3.096-10.189-.632-13.063 4.354-4.125-2.652-9.069-.058-9.896 5.271-3.564 23.043 2.583 24.137 9.75 22.084 4.635 7.785 12.521 1.771 12.521 1.771s6.281 9.536 16.188 1.083c4.518 5.109 12.955.768 13.541-5.438.399-4.214-.254-18.383-2.624-25.479z" fill="url(#a)"/><path d="m53.108 16.419c-1.327-3.974-3.442-6.665-6.642-6.665-1.551 0-3.355.632-5.45 2.056-3.018-3.089-5.467-4.81-7.857-4.81-2.238 0-4.425 1.507-6.982 4.81-1.651-.924-3.219-1.344-4.681-1.344-3.434 0-6.29 2.31-8.305 5.807-.944-.607-1.948-.883-2.943-.883-3.352 0-6.615 3.124-7.252 7.232-2.888 18.666.904 23.311 6.257 23.311 1.256 0 2.597-.256 3.958-.646 1.823 3.063 4.16 3.992 6.322 3.992 3.333 0 6.254-2.207 6.254-2.207s2.935 4.306 7.966 4.306c2.315 0 5.075-.912 8.198-3.577 1.372 1.552 3.146 2.218 4.964 2.218 4.168 0 8.582-3.493 8.989-7.813.4-4.216-.426-18.691-2.796-25.787zm.806 25.598c-.291 3.086-3.692 6.002-6.998 6.002-1.395 0-2.561-.52-3.465-1.543l-.538-.607c-.091-2.594-1.379-18.595-1.278-22.436l-1.998-.053c-.105 3.948 1.195 20.104 1.281 22.674l-.264.226c-2.41 2.056-4.731 3.099-6.9 3.099-3.873 0-6.295-3.406-6.313-3.432l-.545-.794c-.012-1.714-.232-17.883-.108-22.537l-1.999-.054c-.125 4.694.097 20.957.108 22.682l-.309.229c-.024.019-2.458 1.808-5.054 1.808-2.545 0-4.504-1.892-5.244-4.092-1.56-4.64-.629-16.088-.582-17.876l-1.999-.054c-.046 1.744-.843 13.496.573 18.205-1.164.31-2.165.47-3.028.47-1.434 0-2.461-.42-3.234-1.322-1.582-1.844-3.047-6.757-1.047-19.681.474-3.055 2.84-5.539 5.275-5.539 1.712 0 3.628 1.701 3.628 1.701 1.263-2.192 3.771-6.625 7.62-6.625 1.922 0 3.918 1.208 5.208 1.931 2.101-2.716 3.984-5.399 6.454-5.399 2.863 0 4.755 2.495 7.598 5.405 1.669-1.134 3.745-2.651 5.711-2.651 2.347 0 3.57 1.783 4.744 5.298 2.279 6.828 3.074 21.044 2.703 24.965z" fill="#d9a640"/></svg>