<svg enable-background="new 0 0 64 64" height="64" viewBox="0 0 64 64" width="64" xmlns="http://www.w3.org/2000/svg" xmlns:xlink="http://www.w3.org/1999/xlink"><radialGradient id="a" cx="39.8467" cy="39.6318" gradientTransform="matrix(1 0 0 1.2034 -.000472 -8.0614)" gradientUnits="userSpaceOnUse" r="32.5353"><stop offset=".3152" stop-color="#d99000" stop-opacity="0"/><stop offset=".8667" stop-color="#c28100" stop-opacity=".9"/></radialGradient><path d="m12.715 34.208c-8.613-18.748 4.753-32.208 19.278-32.208 10.795 0 19.952 10.177 21.533 20.079 2.048 12.752-2.396 29.079-16.092 31.251-9.104 1.443-11.921 13.5-23.245 6.502-9.068-5.603 4.191-13.289-1.474-25.624z" fill="#fdca47"/><path d="m33.63 45.677s6.294-7.199 13.764-7.708c7.605-16.997-7.229-35.235-21.409-30.395-12.418 4.238-13.551 21.235-9.166 23.005 4.938 1.992 7.901 7.033 2.188 10.949-4.051 2.777.827 11.98 4.232 7.949 3.464-4.105 5.907-5.346 10.391-3.8z" fill="url(#a)"/><path d="m33.63 45.677s-1.882-2.825-6.011-2.386c-1.263.137 3.411-3.75-1.835-7.415-.716-7.993-7.079-7.682-6.219-9.838 1.191-2.96 8.284-1.9 11.822 4.363.053-11.037-14.999-6.828-12.232-12.582 6.424-13.348 32.853-5.904 28.239 20.149 7.605-16.997-7.229-35.234-21.409-30.395-12.418 4.238-13.551 21.235-9.166 23.005 4.938 1.992 7.901 7.033 2.188 10.949-4.051 2.777.827 11.98 4.232 7.949 3.464-4.104 5.907-5.345 10.391-3.799z" fill="#8a1e1e" opacity=".25"/></svg>