<svg enable-background="new 0 0 64 64" height="64" viewBox="0 0 64 64" width="64" xmlns="http://www.w3.org/2000/svg" xmlns:xlink="http://www.w3.org/1999/xlink"><radialGradient id="a" cx="32" cy="9.3516" gradientTransform="matrix(1 0 0 .7895 0 28.0801)" gradientUnits="userSpaceOnUse" r="23.5959"><stop offset=".4848" stop-color="#ff3030"/><stop offset="1" stop-color="#d40000"/></radialGradient><radialGradient id="b" cx="32" cy="-4.0225" gradientTransform="matrix(1 0 0 .7895 0 28.0801)" gradientUnits="userSpaceOnUse" r="22.3635"><stop offset=".4848" stop-color="#ff3030"/><stop offset="1" stop-color="#bd0000"/></radialGradient><path d="m32 23.927c-6.311 0-30 8.707-30 8.707 5.632 5.89 8.98 14.366 30 14.366s24.368-8.476 30-14.366c0 0-23.689-8.707-30-8.707z" fill="url(#a)"/><path d="m32 20.526-26 11.828c15.15-.868 15.354 3.525 26 3.525s10.85-4.394 26-3.525z" fill="#1a1626"/><path d="m32 22.236s-12.403-1.549-16.069 5.996c1.069 2.105 2.595 3.433 8.278 2.018 2.907.916 5.323 1.368 7.791.734 2.468.634 4.884.182 7.791-.734 5.684 1.415 7.209.088 8.278-2.018-3.666-7.544-16.069-5.996-16.069-5.996z" fill="#fff"/><path d="m44.381 17.388c-5.748-1.492-12.381 1.798-12.381 1.798s-6.633-3.289-12.381-1.798c-7.418 1.885-17.619 15.246-17.619 15.246 15.213 1.146 13.793-3.616 20.889-5.684 2.36-.688 5.83.658 9.111.658s6.751-1.347 9.111-.658c7.096 2.067 5.676 6.829 20.889 5.684 0 0-10.201-13.361-17.619-15.246z" fill="url(#b)"/></svg>