<svg enable-background="new 0 0 64 64" height="64" viewBox="0 0 64 64" width="64" xmlns="http://www.w3.org/2000/svg" xmlns:xlink="http://www.w3.org/1999/xlink"><radialGradient id="a" cx="382.5935" cy="-671.9778" gradientTransform="matrix(.7109 .7199 -.5521 .5591 -619.223 120.9295)" gradientUnits="userSpaceOnUse" r="46.1359"><stop offset=".4364" stop-color="#b88a6f"/><stop offset=".7049" stop-color="#b7886d"/><stop offset=".8242" stop-color="#b28266"/><stop offset=".903" stop-color="#ab795b"/></radialGradient><path d="m49.982 12.255c-5.934 6.246-.642 12.668-3.805 13.037-.822.092-3.168-2.602-3.168-2.602-4.031-4.242-9.648-10.017-17.977-18.449-4.188-4.244-10.426 2.066-6.232 6.314-1.051-1.066-2.125-2.154-3.227-3.272-4.185-4.237-10.458 2.041-6.233 6.314 1.129 1.144 2.197 2.228 3.229 3.271-4.184-4.234-10.418 2.078-6.236 6.313.893.904 2.945 2.98 5.367 5.436-4.352-4.039-9.428 1.285-5.395 5.658 4.59 4.975 14.027 14.988 19.082 20.092 7.246 7.314 18.063 9.848 25.932 1.57 17.109-17.998.375-26.266 4.678-43.6.53-2.146-3.052-3.197-6.015-.082z" fill="url(#a)"/><g fill="#0fb4d4"><path d="m43.021 15.578c-3.895-7.869-10.709-9.912-10.777-9.932-1.354-.391-.932-1.883.422-1.488.305.088 7.533 2.256 11.729 10.727.601 1.218-.735 1.984-1.374.693z"/><path d="m45.043 10.355c-1.896-4.781-6.688-6.781-6.736-6.801-1.318-.537-.748-1.971.572-1.438.221.088 5.443 2.25 7.586 7.662.492 1.237-.895 1.909-1.422.577z"/><path d="m17.004 51.853c-7.568-1.092-9.748-8.502-9.838-8.816-.387-1.367 1.082-1.793 1.475-.426.08.275 2.012 6.762 8.576 7.709 1.374.197 1.005 1.713-.213 1.533z"/><path d="m15.992 57.019c-8.521-1.074-11.73-8.414-11.861-8.727-.563-1.322.844-1.932 1.408-.611.029.068 3.016 6.838 10.643 7.801 1.37.172 1.027 1.691-.19 1.537z"/></g><path d="m45.306 25.019c-2.965 3.25-2.676 13.279 3.254 18.77-4.768-5.578-4.1-15.649-1.088-18.617z" fill="#996748"/><path d="m49.422 11.718c-5.627 5.803-1.787 12.516-3.248 12.807-.594.117-1.949-1.992-20.604-20.83-3.656-3.691-8.818-.537-8.928 3.584l-.533-.539c-4.92-4.969-12.269 2.406-7.32 7.406l.541.549c-4.008.109-7.225 5.311-3.549 9.033l2.646 2.68c-3.869.027-6.051 4.754-2.691 8.396 4.559 4.941 13.984 14.945 19.1 20.111 9.508 9.6 20.182 8.762 27.039 1.568 17.502-18.361.627-26.91 4.857-43.959.707-2.856-3.547-4.685-7.31-.806zm5.822.432c-4.379 17.658 12.344 25.557-4.483 43.254-5.834 6.135-15.381 7.967-24.84-1.584-5.103-5.154-14.511-15.139-19.062-20.072-3.383-3.668.711-7.904 4.314-4.561l11.961 12.107 1.086-1.094-17.351-17.566c-2.674-2.705-.148-6.393 2.59-6.391.914 0 1.799.406 2.557 1.172 0 .002 17.354 17.566 17.354 17.566l1.086-1.094-20.579-20.835c-3.469-3.502 1.688-8.709 5.145-5.221l20.582 20.836 1.086-1.096-17.411-17.63c-3.428-3.603 1.797-8.592 5.205-5.15 19.26 19.445 19.986 21.496 21.773 21.274 4.313-.541-1.535-7.285 4.271-13.272 2.356-2.428 5.038-1.95 4.716-.643z" fill="#996748"/></svg>