<svg enable-background="new 0 0 64 64" height="64" viewBox="0 0 64 64" width="64" xmlns="http://www.w3.org/2000/svg" xmlns:xlink="http://www.w3.org/1999/xlink"><radialGradient id="a" cx="2.2686" cy="52.6087" gradientTransform="matrix(0 -.97 1.1358 0 -18.2356 38.2005)" gradientUnits="userSpaceOnUse" r="30.8577"><stop offset=".4485" stop-color="#fcd5b2"/><stop offset=".7565" stop-color="#fbd3b0"/><stop offset=".9046" stop-color="#f6cda8"/><stop offset="1" stop-color="#f0c59e"/></radialGradient><path d="m32.356 9.359c-5.805 10.287-14.276 10.859-18.985 16.851-1.752 2.231-6.389 2.787-8.814 2.787-2.529 0-2.443 22.66 0 22.66 6.461 0 10.184 2.494 17.488 3.537 2.096.299 9.152-.273 11.246-.623 4.166-.697 5.541-4.482 4.189-7.125 0 0 4.23-3.426 1.203-7.732 0 0 3.963-3.404 1.152-7.756h16.996c5.963 0 5.963-7.746 0-7.746-6.59 0-22.656 0-24.561 0-2.91 0 4.777-3.393 4.777-11.033.002-3.814-3.756-5.477-4.691-3.82z" fill="url(#a)"/><path d="m56.832 32.677h-15.799c1.025 2.375.517 5.004-1.434 7.135 1.572 2.65.986 5.563-1.258 7.814 1.156 3.02-.533 6.918-4.934 7.656-1.998.334-9.188.951-11.463.625-7.473-1.066-11.016-3.531-17.545-3.531-3.201 0-3.201-24.098 0-24.098 2.166 0 6.758-.412 8.41-2.516 4.871-6.197 13.215-6.641 18.924-16.76 1.334-2.363 6.029-.383 6.029 4.176 0 5.316-3.473 8.652-4.979 10.313h24.047c6.893.001 6.893 9.186.002 9.186zm-18.314-1.439h18.314c5 0 5-6.307 0-6.307h-24.56c-1.496 0-1.695-1.1-.943-1.981 1.539-1.797 5.006-4.701 5.006-9.771 0-3.148-2.854-4.356-3.355-3.465-5.861 10.383-14.592 11.274-19.047 16.943-1.969 2.506-6.803 3.047-9.229 3.061-1.77 1.887-1.559 19.441.012 21.219 6.359.027 10.672 2.578 17.432 3.545 1.926.275 8.859-.258 11.027-.621 4.256-.713 4.781-4.619 3.404-6.607 0 0 4.684-3.242 1.145-7.66 2.436-2.003 3.493-5.003.794-8.356z" fill="#e0af82"/></svg>