<svg enable-background="new 0 0 64 64" height="64" viewBox="0 0 64 64" width="64" xmlns="http://www.w3.org/2000/svg" xmlns:xlink="http://www.w3.org/1999/xlink"><linearGradient id="a" gradientTransform="matrix(1 0 0 -1 0 350.7617)" gradientUnits="userSpaceOnUse" x1="27.6759" x2="27.6759" y1="347.5456" y2="289.5555"><stop offset=".097" stop-color="#e3b68d"/><stop offset=".1495" stop-color="#e3ba92"/><stop offset=".3067" stop-color="#e3bf99"/><stop offset=".6606" stop-color="#e3c19b"/></linearGradient><linearGradient id="b"><stop offset=".4545" stop-color="#e3c19b"/><stop offset=".7558" stop-color="#e3bd96"/><stop offset="1" stop-color="#e3b68d"/></linearGradient><radialGradient id="c" cx="41.5639" cy="354.8574" gradientTransform="matrix(.9875 .005 .0033 -.6308 3.3025 229.9272)" gradientUnits="userSpaceOnUse" r="6.4558" xlink:href="#b"/><radialGradient id="d" cx="41.9862" cy="371.1252" gradientTransform="matrix(.9875 .0041 .0033 -.5175 3.2487 205.5733)" gradientUnits="userSpaceOnUse" r="8.1308" xlink:href="#b"/><radialGradient id="e" cx="20.4478" cy="330.2875" gradientTransform="matrix(.9528 .005 .0032 -.6308 26.9461 238.4288)" gradientUnits="userSpaceOnUse" r="8.363" xlink:href="#b"/><radialGradient id="f" cx="42.9217" cy="361.0144" gradientTransform="matrix(.9875 .0041 .0033 -.5175 3.2821 208.4037)" gradientUnits="userSpaceOnUse" r="8.9587" xlink:href="#b"/><path d="m38.24 41.98c2.654 5.252 3.475 10.254.309 15.578-3.951 6.645-9.172 2.738-8.889-.17 1.422-14.604-6.559-21.533-8.758-25.279-1.178-2.01-9.693-1.365-9.693-1.365s-5.185-12.879 0-24.287c4.934.83 9.309.728 9.693.504 9.906-5.809 22.584-3.125 22.584-3.125l2.961 29.174c0-.001-12.156 1.155-8.207 8.97z" fill="url(#a)"/><g fill="#cf9e70"><path d="m37.899 3.995c-.473-.017-9.967-.469-16.617 3.609-.145.088-2.606.766-9.619-.316-4.074 9.598-.787 20.26.057 22.672 6.473-.398 8.387.1 9.828 1.768 4.795 5.545 10.049 13.506 8.857 25.732-.213 2.217 3.98 5.637 7.5-.285 2.684-4.512 2.582-9.092-.33-14.857-2.432-4.807.609-7.697 4.537-9.084.33.42.674.828 1.01 1.244-3.281 1.041-6.014 3.6-4.213 7.162 3.17 6.275 3.256 11.301.283 16.303-4.397 7.391-10.643 3.143-10.275-.629 1.133-11.645-3.51-18.76-8.658-24.826-1.053-1.244-6.605-1.199-9.537-.957 0 0-6.152-14.291.045-25.908 6.496 1.084 9.664.686 9.82.654 8.125-4.588 17.728-3.775 18.553-3.723-.404.49-.818.97-1.241 1.441z"/><path d="m39.502 22.075.4-1.559c-1.926-3.822-10.766-7.35-17.98-3.803 6.875-2.454 15.932 1.595 17.58 5.362z"/><path d="m49.256 2.632c-2.613-.609-6.877-.801-9.057-.475-1.652.246-3.055.933-3.762 1.558-1.916 1.699-2.244 6.842 3.088 6.842h10.037c4.594.001 3.581-7.021-.306-7.925z"/></g><path d="m48.623 4.021c-1.793-.353-6.59-.672-8.273-.379-1.061.184-2.318.602-2.773 1.006-1.236 1.094-1.6 4.412 1.838 4.412h9.988c2.962 0 1.839-4.524-.78-5.039z" fill="url(#c)"/><path d="m49.635 9.05c-7.006 0-5.801 0-11.287 0-6.035 0-6.035 9.291 0 9.291h11.287c6.031 0 6.031-9.291 0-9.291z" fill="#cf9e70"/><path d="m49.74 10.466c-4.873 0-7.676 0-11.49 0-4.049 0-4.049 6.461 0 6.461h11.49c4.078 0 4.078-6.461 0-6.461z" fill="url(#d)"/><path d="m51.697 25.183c-6.107 0-8.514 0-13.291 0-4.197 0-4.383 5.44-1.807 7.865.684.644 2.605 1.461 4.379 1.773 2.771.488 7.789.582 11.233-.209 5.209-1.197 5.057-9.429-.514-9.429z" fill="#cf9e70"/><path d="m51.713 26.683c-4.275 0-9.918 0-13.262 0-2.94 0-2.389 4.373-.457 5.506.729.426 2.092.977 3.775 1.242 1.766.279 6.438.504 10.021-.26 3.634-.775 3.823-6.488-.077-6.488z" fill="url(#e)"/><path d="m51.166 16.843c-7.42 0-7.142 0-12.951 0-6.396 0-6.396 9.842 0 9.842h12.951c6.391 0 6.391-9.842 0-9.842z" fill="#cf9e70"/><path d="m51.279 18.341c-5.162 0-9.129 0-13.168 0-4.289 0-4.289 6.844 0 6.844h13.168c4.319 0 4.319-6.844 0-6.844z" fill="url(#f)"/></svg>