<svg enable-background="new 0 0 64 64" height="64" viewBox="0 0 64 64" width="64" xmlns="http://www.w3.org/2000/svg" xmlns:xlink="http://www.w3.org/1999/xlink"><linearGradient id="a" gradientUnits="userSpaceOnUse" x1="27.6772" x2="27.6772" y1="60.7842" y2="2.7944"><stop offset=".097" stop-color="#f2ba4b"/><stop offset=".1248" stop-color="#f4bd50"/><stop offset=".2254" stop-color="#fac65d"/><stop offset=".3592" stop-color="#fecb64"/><stop offset=".6606" stop-color="#fc6"/></linearGradient><linearGradient id="b"><stop offset=".4545" stop-color="#fc6"/><stop offset=".6609" stop-color="#fdc961"/><stop offset=".9065" stop-color="#f6bf53"/><stop offset="1" stop-color="#f2ba4b"/></linearGradient><radialGradient id="c" cx="42.1543" cy="60.4453" gradientTransform="matrix(.9874 -.005 .0033 .6308 3.6953 19.7915)" gradientUnits="userSpaceOnUse" r="6.4558" xlink:href="#b"/><radialGradient id="d" cx="42.5762" cy="12.0469" gradientTransform="matrix(.9874 -.0041 .0033 .5175 3.8552 44.246)" gradientUnits="userSpaceOnUse" r="8.1317" xlink:href="#b"/><radialGradient id="e" cx="20.8804" cy="35.875" gradientTransform="matrix(.9528 -.005 .0032 .6308 27.4741 11.2893)" gradientUnits="userSpaceOnUse" r="8.3632" xlink:href="#b"/><radialGradient id="f" cx="43.5117" cy="1.9346" gradientTransform="matrix(.9874 -.0041 .0033 .5175 3.8887 41.4152)" gradientUnits="userSpaceOnUse" r="8.9597" xlink:href="#b"/><path d="m38.242 22.021c2.653-5.253 3.474-10.255.307-15.579-3.95-6.645-9.171-2.737-8.887.171 1.421 14.603-6.561 21.532-8.759 25.279-1.179 2.01-9.693 1.366-9.693 1.366s-5.185 12.878 0 24.287c4.934-.83 9.309-.729 9.693-.504 9.906 5.808 22.583 3.125 22.583 3.125l2.962-29.174s-12.156-1.158-8.206-8.971z" fill="url(#a)"/><g fill="#d9a640"><path d="m37.898 60.006c-.473.017-9.967.468-16.617-3.61-.145-.088-2.606-.766-9.62.317-4.073-9.599-.787-20.26.058-22.673 6.474.399 8.386-.099 9.828-1.768 4.795-5.545 10.048-13.506 8.858-25.732-.214-2.216 3.979-5.637 7.5.286 2.683 4.511 2.58 9.093-.332 14.856-2.432 4.808.609 7.697 4.537 9.085.33-.421.674-.829 1.011-1.245-3.281-1.04-6.014-3.6-4.213-7.162 3.169-6.274 3.257-11.301.282-16.302-4.396-7.392-10.642-3.144-10.274.628 1.133 11.645-3.51 18.761-8.659 24.826-1.054 1.244-6.605 1.199-9.538.957 0 0-6.151 14.292.046 25.91 6.496-1.084 9.663-.687 9.82-.655 8.124 4.588 17.729 3.775 18.553 3.723-.401-.49-.815-.97-1.24-1.441z"/><path d="m39.503 41.926.4 1.559c-1.927 3.822-10.766 7.35-17.981 3.803 6.874 2.453 15.932-1.595 17.581-5.362z"/><path d="m49.256 61.369c-2.612.608-6.876.8-9.057.475-1.652-.247-3.055-.934-3.76-1.56-1.918-1.698-2.246-6.841 3.086-6.841h10.038c4.593 0 3.581 7.021-.307 7.926z"/></g><path d="m48.625 59.98c-1.794.353-6.592.671-8.274.379-1.062-.184-2.319-.602-2.774-1.006-1.236-1.095-1.6-4.412 1.839-4.412h9.988c2.962 0 1.838 4.524-.779 5.039z" fill="url(#c)"/><path d="m49.635 54.95c-7.005 0-5.801 0-11.286 0-6.037 0-6.037-9.29 0-9.29h11.286c6.032 0 6.032 9.29 0 9.29z" fill="#d9a640"/><path d="m49.742 53.536c-4.874 0-7.677 0-11.49 0-4.05 0-4.05-6.462 0-6.462h11.49c4.076 0 4.076 6.462 0 6.462z" fill="url(#d)"/><path d="m51.697 38.817c-6.106 0-8.514 0-13.29 0-4.197 0-4.383-5.438-1.808-7.865.684-.644 2.606-1.461 4.379-1.772 2.771-.489 7.789-.583 11.232.208 5.21 1.196 5.058 9.429-.513 9.429z" fill="#d9a640"/><path d="m51.713 37.318c-4.275 0-9.918 0-13.261 0-2.939 0-2.39-4.375-.458-5.507.729-.426 2.092-.976 3.775-1.241 1.767-.278 6.438-.505 10.021.26 3.636.775 3.824 6.488-.077 6.488z" fill="url(#e)"/><path d="m51.168 47.158c-7.422 0-7.144 0-12.953 0-6.395 0-6.395-9.842 0-9.842h12.953c6.391 0 6.391 9.842 0 9.842z" fill="#d9a640"/><path d="m51.28 45.66c-5.161 0-9.129 0-13.169 0-4.289 0-4.289-6.845 0-6.845h13.169c4.319 0 4.319 6.845 0 6.845z" fill="url(#f)"/></svg>