<svg enable-background="new 0 0 64 64" height="64" viewBox="0 0 64 64" width="64" xmlns="http://www.w3.org/2000/svg" xmlns:xlink="http://www.w3.org/1999/xlink"><linearGradient id="a"><stop offset="0" stop-color="#614a36"/><stop offset=".4726" stop-color="#5f4834"/><stop offset=".7182" stop-color="#58412c"/><stop offset=".8182" stop-color="#523b26"/></linearGradient><radialGradient id="b" cx="2210.4963" cy="46.3792" gradientTransform="matrix(-1 0 0 1.01 2227.2266 -2.0018)" gradientUnits="userSpaceOnUse" r="10.1582" xlink:href="#a"/><radialGradient id="c" cx="124.9512" cy="46.3792" gradientTransform="matrix(1 0 0 1.01 -77.6816 -2.0018)" gradientUnits="userSpaceOnUse" r="10.1583" xlink:href="#a"/><linearGradient id="d"><stop offset="0" stop-color="#17100a"/><stop offset=".0543" stop-color="#1f160e"/><stop offset=".2457" stop-color="#352618"/><stop offset=".4533" stop-color="#463220"/><stop offset=".6867" stop-color="#4f3925"/><stop offset="1" stop-color="#523b26"/></linearGradient><linearGradient id="e" gradientTransform="matrix(.9956 .0936 -.0777 .8265 23.311 -60.4733)" gradientUnits="userSpaceOnUse" x1="8.2088" x2="7.2933" xlink:href="#d" y1="139.143" y2="142.2556"/><linearGradient id="f" gradientTransform="matrix(-.9956 .0936 .0777 .8265 2186.8811 -60.4733)" gradientUnits="userSpaceOnUse" x1="2145.0002" x2="2144.0847" xlink:href="#d" y1="-102.8452" y2="-99.7328"/><radialGradient id="g" cx="-11.0179" cy="32.2639" gradientTransform="matrix(.9609 0 0 3.2359 42.6694 -85.4262)" gradientUnits="userSpaceOnUse" r="11.8306"><stop offset="0" stop-color="#614a36"/><stop offset=".514" stop-color="#5c4531"/><stop offset="1" stop-color="#523b26"/></radialGradient><radialGradient id="h" cx="-28.9681" cy="18.4688" gradientTransform="matrix(.9453 0 0 .8774 59.3845 29.3685)" gradientUnits="userSpaceOnUse" r="14.2059"><stop offset="0" stop-color="#614a36"/><stop offset=".8281" stop-color="#614a36" stop-opacity=".0026"/><stop offset=".8303" stop-color="#614a36" stop-opacity="0"/></radialGradient><path d="m7 49.228c0 5.578 4.476 10.101 10 10.101 3.482 0 3.455-2.329 7.232-.411 4.934 2.506.174-18.648-5.232-19.789-7.434-1.569-12 4.522-12 10.099z" fill="url(#b)"/><path d="m57 49.228c0 5.578-4.477 10.101-10 10.101-3.482 0-3.455-2.329-7.232-.411-4.934 2.505-.176-18.649 5.232-19.79 7.434-1.568 12 4.523 12 10.1z" fill="url(#c)"/><path d="m43.922 56.603c-5.369 2.867-5.338 5.397-11.92 5.397-6.584 0-6.551-2.53-11.922-5.397-10.068-5.375 33.904-5.372 23.842 0z" fill="#523b26"/><path d="m15.801 54.921c-1.768.611.502 4.361 4.525 2.646 2.371-1.011 4.684 1.816 4.152.68-1.207-2.589-4.689-4.702-8.677-3.326z" fill="url(#e)"/><path d="m48.199 54.921c1.768.611-.5 4.361-4.525 2.646-2.371-1.011-4.684 1.816-4.152.68 1.209-2.589 4.691-4.702 8.677-3.326z" fill="url(#f)"/><path d="m41.184 7.884c0-7.846-18.365-7.846-18.365 0 0 25.192-8.176 33.7-3.098 43.81 4.615 9.187 19.939 9.187 24.559 0 5.076-10.102-3.096-18.62-3.096-43.81z" fill="url(#g)"/><path d="m45.43 45.573c0 6.886-6.014 12.465-13.43 12.465-7.42 0-13.428-5.579-13.428-12.465 0-6.885 6.008-12.464 13.428-12.464 7.416 0 13.43 5.579 13.43 12.464z" fill="url(#h)"/></svg>