<svg enable-background="new 0 0 64 64" height="64" viewBox="0 0 64 64" width="64" xmlns="http://www.w3.org/2000/svg" xmlns:xlink="http://www.w3.org/1999/xlink"><radialGradient id="a" cx="27.4214" cy="32.5463" gradientTransform="matrix(1 0 0 1.2466 0 -8.0256)" gradientUnits="userSpaceOnUse" r="25.1472"><stop offset=".4909" stop-color="#614a36"/><stop offset=".766" stop-color="#5f4833"/><stop offset=".9436" stop-color="#563f2b"/><stop offset="1" stop-color="#523b26"/></radialGradient><path d="m53.231 36.379c-.07-2.762-.422-15.482-1.141-18.693-.492-2.207-1.402-5.744-4.01-10.158-1.426-2.414-4.053-2.25-5.271-.166-.854-.848-1.979-1.892-3.564-3.424-2.93-2.83-7.477-.199-5.561 4.547-1.851-1.106-5.525-1.668-7.166-2.418-4.391-2.006-6.99 5.693 3.037 9.305 2.52 1.893 6.943 6.346 8.408 8.252.205.609.414 1.185.627 1.744-.352-.182-.664-.316-.938-.4-1.742-.533-5.455-.158-13.725-1.23-3.568-.461-3.801 2.07-10.285 7.816-1.226 1.086-.226 2.508 1.34 3.162 2.363.557 6.492-.029 9.773-3.799 0 0 4.74 3.502 9.285 2.898 0 0 1.523 5.854 4.051 7.369-2.225 3.744-6.271 2.773-7.65 4.959-5.545.484-7.326-3.035-9.523-3.172-.482-4.707-3.51-7.322-5.936-8.256-1.539-.393-3.281-.279-3.773.416-1.307 1.848.701 3.711.783 10.271.061 5.06 3.248 7.045 12.658 13.818 5.641 4.057 22.641 2.105 24.779-6.607 1.568-6.375 4.281-12.392 3.802-16.234z" fill="url(#a)"/><g fill="#452f1b"><path d="m35.018 9.475c-2.906-4.682.92-7.57 3.705-4.998 2.297 2.125 4.898 4.598 5.814 6.256 4.42 8.006 5.775 12.6 5.775 12.6s-.605-4.928-4.453-13.307c-.955-2.082-3.68-4.314-6.094-6.627-3.371-3.233-8.361-.49-7.076 4.428.806.497 1.564 1.079 2.329 1.648z"/><path d="m37.823 25.471c.611.193 1.217.399 1.82.617-.346-.871-.688-1.805-1.025-2.813-1.533-1.992-6.199-6.67-8.709-8.557-8.621-2.842-7.447-9.674-3.701-7.971 1.922.879 6.027 1.469 7.461 2.627 1.963 1.586 8.99 6.133 10.451 8.955 1.689 3.277 6.412 11.064 6.412 11.064s-2.971-7.674-5.078-11.752c-1.748-3.379-8.346-7.418-10.842-9.434-1.799-1.455-6.137-2.074-7.781-2.824-5.336-2.44-8.641 6.711 2.363 10.652 2.402 1.83 6.57 6 8.1 7.945.175.52.351 1.008.529 1.491z"/><path d="m53.985 37.279c-.301-10.809-.193-15.43-1.16-19.756-.578-2.58-1.565-6.09-4.1-10.377-1.715-2.904-4.836-2.732-6.387-.424.361.369.705.758 1.045 1.148.898-1.76 2.85-1.994 4.051.037 2.426 4.107 3.371 7.471 3.924 9.941.697 3.123 1.145 12.549 1.145 17.723 0 6.594-2.174 10.244-3.803 16.861-1.988 8.111-18.338 9.971-23.609 6.178-9.121-6.547-12.291-8.48-12.348-13.217-.076-6.006-1.934-8.393-.918-9.83.195-.279 1.469-.707 2.93-.135 4.785 1.875 5.399 7.102 5.483 8.25 2.887-.117 3.715 3.742 10.641 3.178 1.158-2.295 5.727-1.076 8.242-5.934 0 0-2.656-.721-4.52-7.941-4.799.955-9.955-3.082-9.955-3.082-1.459 1.834-4.914 4.912-9.428 4.098-.723-.129-1.893-1.162-1.076-1.885 6.838-6.061 6.621-8.035 9.691-7.633 7.281.957 12.389.832 13.6 1.203 1.281.393 8.898 4.635 8.898 4.635s-6.656-5.516-8.459-6.068c-1.521-.467-7.133-.359-13.848-1.258-4.045-.541-4.418 2.275-10.879 8-1.16 1.027-.809 2.201-.475 2.773-.721.066-1.617.285-2.072.934-1.598 2.254.564 4.191.643 10.713.064 5.346 3.324 7.492 12.971 14.416 5.965 4.293 23.643 2.359 25.947-7.037 1.443-5.87 3.937-11.509 3.826-15.511zm-29.113-5.376c3.094 2.004 6.213 2.85 8.617 2.717.443 1.488 1.66 5.055 3.584 6.74-2.041 2.693-5.402 2.047-7.035 4.061-4.699.277-6.154-2.469-8.445-3.092-.455-3.084-1.967-5.32-3.717-6.766 1.758-.229 4.486-1.035 6.996-3.66z"/></g></svg>