<svg enable-background="new 0 0 64 64" height="64" viewBox="0 0 64 64" width="64" xmlns="http://www.w3.org/2000/svg" xmlns:xlink="http://www.w3.org/1999/xlink"><linearGradient id="a"><stop offset="0" stop-color="#545061"/><stop offset=".2793" stop-color="#464253"/><stop offset=".6189" stop-color="#211d2d"/><stop offset="1" stop-color="#1a1626"/></linearGradient><linearGradient id="b" gradientUnits="userSpaceOnUse" x1="20.1779" x2="49.4857" xlink:href="#a" y1="9.756" y2="60.5185"/><linearGradient id="c" gradientUnits="userSpaceOnUse" x1="27.5989" x2="36.5008" xlink:href="#a" y1="22.627" y2="38.0456"/><path d="m55.58 41.686c4.018-4.4 6.42-8.935 6.42-11.453 0-5.962-13.432-23.233-30-23.233-16.567 0-30 17.271-30 23.233s13.433 23.232 30 23.232c4.615 0 8.986-1.342 12.892-3.404l10.688 6.939z" fill="url(#b)"/><circle cx="32" cy="30.25" fill="#fff" r="15"/><path d="m32 21.25c-.975 0-1.91.16-2.789.446 1.085.917 1.789 2.272 1.789 3.804 0 2.762-2.238 5-5 5-1.113 0-2.132-.376-2.963-.991-.02.245-.037.491-.037.741 0 4.971 4.029 9 9 9s9-4.029 9-9-4.029-9-9-9z" fill="url(#c)"/></svg>