<svg enable-background="new 0 0 64 64" height="64" viewBox="0 0 64 64" width="64" xmlns="http://www.w3.org/2000/svg" xmlns:xlink="http://www.w3.org/1999/xlink"><radialGradient id="a" cx="52.1082" cy="23.7783" gradientTransform="matrix(1.0187 0 0 .7499 -22.6805 8.4048)" gradientUnits="userSpaceOnUse" r="30.4256"><stop offset=".4485" stop-color="#916b50"/><stop offset=".77" stop-color="#8f694e"/><stop offset=".9245" stop-color="#8a6246"/><stop offset="1" stop-color="#855c3f"/></radialGradient><path d="m27.898 45.964c-3.939 5.402 1.342 11.771 5.281 10.313 7.922-2.936 11.061-2.604 18.5-1.156 6.676 1.299 11.424-9.881 8.717-14.313-4.012-6.567-2.623-17.08-8.529-24.5z" fill="#855c3f"/><path d="m52.038 19.027c2.016 3.486 2.951 7.669 3.859 11.736.92 4.113 1.787 7.998 3.711 11.146.754 1.233.465 4.416-1.326 7.605-1.949 3.477-4.467 4.896-6.307 4.537 0 0-6.607-1.287-9.375-1.287-3.067 0-6.119.646-10.209 2.162-1.988.736-6.428-3.492-3.395-7.73zm.145-3.338-24.772 30.288c-3.965 5.438 1.75 12.276 5.676 10.826 4-1.482 6.783-2.037 9.514-2.037 2.68 0 5.308.533 8.992 1.25 6.676 1.299 12.43-10.715 9.723-15.148-4.014-6.568-3.225-17.759-9.133-25.179z" fill="#754e31"/><path d="m52.814 16.609c-1.971-5.898-5.563-8.424-11.979-4.062-5.844-5.981-9.148-6.415-14.437.417-5.529-3.096-10.189-.632-13.063 4.355-4.125-2.652-9.07-.058-9.896 5.27-3.564 23.043 2.584 24.136 9.75 22.083 4.635 7.785 12.522 1.771 12.522 1.771s6.281 9.536 16.187 1.083c4.518 5.109 12.955.768 13.541-5.438.398-4.214-.256-18.383-2.625-25.479z" fill="url(#a)"/><path d="m53.109 16.42c-1.328-3.974-3.441-6.665-6.643-6.665-1.549 0-3.355.632-5.449 2.056-3.018-3.09-5.467-4.811-7.858-4.811-2.238 0-4.426 1.508-6.982 4.811-1.65-.924-3.219-1.344-4.682-1.344-3.434 0-6.289 2.31-8.305 5.807-.943-.607-1.947-.883-2.943-.883-3.352 0-6.615 3.124-7.252 7.232-2.886 18.664.905 23.31 6.258 23.31 1.256 0 2.598-.255 3.959-.646 1.824 3.063 4.16 3.992 6.322 3.992 3.334 0 6.254-2.207 6.254-2.207s2.935 4.306 7.965 4.306c2.316 0 5.076-.912 8.199-3.577 1.373 1.553 3.144 2.218 4.965 2.218 4.168 0 8.58-3.493 8.988-7.813.399-4.216-.427-18.69-2.796-25.786zm.806 25.598c-.291 3.084-3.693 6.001-6.998 6.001-1.395 0-2.561-.519-3.467-1.542l-.537-.609c-.09-2.592-1.379-18.594-1.277-22.435l-2-.053c-.104 3.948 1.197 20.104 1.283 22.674l-.266.226c-2.408 2.057-4.73 3.099-6.9 3.099-3.871 0-6.295-3.407-6.313-3.433l-.545-.793c-.012-1.713-.232-17.883-.107-22.537l-2-.053c-.125 4.693.098 20.955.109 22.68l-.309.23c-.025.017-2.459 1.807-5.055 1.807-2.545 0-4.504-1.892-5.244-4.092-1.56-4.641-.629-16.088-.582-17.875l-2-.055c-.045 1.744-.842 13.496.574 18.205-1.164.311-2.164.47-3.029.47-1.434 0-2.461-.42-3.234-1.321-1.58-1.846-3.047-6.758-1.047-19.682.475-3.055 2.84-5.539 5.275-5.539 1.713 0 3.629 1.701 3.629 1.701 1.262-2.193 3.772-6.625 7.619-6.625 1.922 0 3.918 1.209 5.209 1.931 2.103-2.714 3.986-5.398 6.456-5.398 2.863 0 4.754 2.496 7.598 5.406 1.668-1.135 3.744-2.651 5.709-2.651 2.348 0 3.572 1.782 4.746 5.298 2.279 6.828 3.072 21.043 2.703 24.965z" fill="#754e31"/></svg>