<svg enable-background="new 0 0 64 64" height="64" viewBox="0 0 64 64" width="64" xmlns="http://www.w3.org/2000/svg" xmlns:xlink="http://www.w3.org/1999/xlink"><linearGradient id="a" gradientUnits="userSpaceOnUse" x1="27.6763" x2="27.6763" y1="60.7839" y2="2.7938"><stop offset=".097" stop-color="#855c3f"/><stop offset=".1732" stop-color="#8a6347"/><stop offset=".3231" stop-color="#90694e"/><stop offset=".6606" stop-color="#916b50"/></linearGradient><linearGradient id="b"><stop offset=".4545" stop-color="#916b50"/><stop offset=".724" stop-color="#8d674b"/><stop offset="1" stop-color="#855c3f"/></linearGradient><radialGradient id="c" cx="41.7672" cy="60.097" gradientTransform="matrix(.9875 -.005 .0033 .6308 4.0757 20.0075)" gradientUnits="userSpaceOnUse" r="6.4558" xlink:href="#b"/><radialGradient id="d" cx="42.1899" cy="11.8198" gradientTransform="matrix(.9875 -.0041 .0033 .5175 4.2353 44.3617)" gradientUnits="userSpaceOnUse" r="8.1314" xlink:href="#b"/><radialGradient id="e" cx="20.6581" cy="35.5275" gradientTransform="matrix(.9528 -.005 .0032 .6308 27.686 11.506)" gradientUnits="userSpaceOnUse" r="8.3632" xlink:href="#b"/><radialGradient id="f" cx="43.1249" cy="1.7078" gradientTransform="matrix(.9875 -.0041 .0033 .5175 4.2687 41.531)" gradientUnits="userSpaceOnUse" r="8.9587" xlink:href="#b"/><path d="m38.242 22.02c2.652-5.252 3.473-10.254.307-15.578-3.951-6.644-9.172-2.738-8.887.17 1.42 14.604-6.561 21.533-8.76 25.279-1.178 2.01-9.693 1.365-9.693 1.365s-5.183 12.879 0 24.287c4.934-.83 9.309-.729 9.693-.504 9.906 5.809 22.584 3.125 22.584 3.125l2.961-29.174c0 .001-12.156-1.155-8.205-8.97z" fill="url(#a)"/><g fill="#754e31"><path d="m37.898 60.005c-.473.018-9.967.469-16.617-3.609-.145-.088-2.605-.766-9.619.316-4.073-9.598-.787-20.26.057-22.672 6.475.399 8.387-.1 9.828-1.767 4.795-5.545 10.049-13.506 8.859-25.733-.215-2.217 3.979-5.637 7.5.285 2.682 4.512 2.58 9.094-.332 14.857-2.432 4.807.609 7.697 4.537 9.084.33-.42.674-.828 1.01-1.244-3.281-1.041-6.014-3.6-4.213-7.162 3.17-6.275 3.258-11.301.283-16.303-4.396-7.391-10.643-3.143-10.273.629 1.133 11.645-3.51 18.76-8.66 24.826-1.053 1.244-6.606 1.199-9.537.957 0 0-6.151 14.291.045 25.908 6.496-1.084 9.664-.686 9.82-.654 8.125 4.588 17.729 3.775 18.553 3.723-.403-.49-.817-.97-1.241-1.441z"/><path d="m39.502 41.925.4 1.559c-1.926 3.822-10.766 7.35-17.98 3.803 6.875 2.454 15.931-1.595 17.58-5.362z"/><path d="m49.256 61.368c-2.613.609-6.877.801-9.057.475-1.652-.246-3.055-.934-3.76-1.559-1.918-1.699-2.246-6.842 3.086-6.842h10.037c4.594 0 3.581 7.022-.306 7.926z"/></g><path d="m48.625 59.979c-1.795.353-6.592.672-8.275.379-1.061-.184-2.318-.602-2.773-1.006-1.236-1.094-1.6-4.412 1.838-4.412h9.988c2.962 0 1.839 4.524-.778 5.039z" fill="url(#c)"/><path d="m49.635 54.95c-7.006 0-5.801 0-11.287 0-6.035 0-6.035-9.291 0-9.291h11.287c6.031 0 6.031 9.291 0 9.291z" fill="#754e31"/><path d="m49.742 53.536c-4.875 0-7.678 0-11.49 0-4.051 0-4.051-6.463 0-6.463h11.49c4.076 0 4.076 6.463 0 6.463z" fill="url(#d)"/><path d="m51.697 38.817c-6.107 0-8.514 0-13.291 0-4.197 0-4.383-5.439-1.807-7.865.684-.642 2.605-1.461 4.379-1.771 2.771-.49 7.789-.584 11.232.207 5.21 1.197 5.058 9.429-.513 9.429z" fill="#754e31"/><path d="m51.713 37.317c-4.275 0-9.918 0-13.262 0-2.939 0-2.389-4.373-.457-5.506.729-.426 2.092-.977 3.775-1.242 1.766-.277 6.438-.504 10.021.26 3.636.775 3.823 6.488-.077 6.488z" fill="url(#e)"/><path d="m51.168 47.157c-7.422 0-7.145 0-12.953 0-6.395 0-6.395-9.842 0-9.842h12.953c6.391 0 6.391 9.842 0 9.842z" fill="#754e31"/><path d="m51.279 45.659c-5.16 0-9.129 0-13.168 0-4.289 0-4.289-6.844 0-6.844h13.168c4.319 0 4.319 6.844 0 6.844z" fill="url(#f)"/></svg>