<svg enable-background="new 0 0 64 64" height="64" viewBox="0 0 64 64" width="64" xmlns="http://www.w3.org/2000/svg" xmlns:xlink="http://www.w3.org/1999/xlink"><linearGradient id="a" gradientUnits="userSpaceOnUse" x1="32.0005" x2="32.0005" y1="62" y2="6.5449"><stop offset="0" stop-color="#f68"/><stop offset="1" stop-color="#ff809c"/></linearGradient><path d="m39.284 3.844h-14.566c-1.625.648 7.283 11.999 7.283 11.999s8.908-11.351 7.283-11.999z" fill="#c97186"/><path d="m37.127 2h-10.252c-1.624.648-1.313 1.999-1.313 1.999h12.877s.312-1.351-1.312-1.999z" fill="#e0adb0"/><path d="m50.578 27.53c3.501-2.379 9.242-7.584 8.324-8.363-2.021-1.717-6.72-10.492-7.391-10.66-10.888-2.282-14.1-4.508-19.511 6.267-4.703-11.021-8.622-8.549-19.51-6.267-.669.167-5.369 8.943-7.393 10.66-.916.779 4.825 5.984 8.326 8.363.183.125 1.095-.988 2.34-1.835 2.617 8.59 4.359 13.563-5.103 30.999-.677 1.248 7.491 5.306 21.341 5.306 13.851 0 22.018-4.058 21.341-5.306-9.463-17.437-7.721-22.409-5.104-30.999 1.245.847 2.157 1.96 2.34 1.835z" fill="url(#a)"/><path d="m51.106 12.914c.169-1.368-3.026 9.87-6.025 12.626-2.347 2.156-8.363 4.707-13.08.233-4.717 4.474-10.733 1.923-13.08-.233-2.998-2.756-6.194-13.994-6.025-12.626 2.391 19.398 10.946 19.49-2.234 43.78 9.61-11.197 7.49-23.53 21.34-23.53s11.729 12.333 21.341 23.53c-13.183-24.29-4.627-24.381-2.237-43.78z" fill="#f26182"/><path d="m31.017 16.982h2.35c0-3.71 6.228-10.769 7.056-11.057.825-.287-6.564.906-9.406 11.057z" fill="#e0adb0"/><path d="m37.127 2c1.624 1.44 1.367 4.435 1.071 4.82 1.767-.208 1.758 2.875 6.883 3.896-.378-.913-.262-3.986-1.191-4.25-4.663-1.326-4.339-4.466-6.763-4.466z" fill="#fde0da"/><path d="m23.58 5.926c.828.288 7.057 5.197 7.057 11.057v45.017h3.223v-45.018c-.001-8.192-11.106-11.344-10.28-11.056z" fill="#f6bec1"/><g fill="#fff"><path d="m33.022 19.675c0 .958-1.551.958-1.551 0 .001-.959 1.551-.959 1.551 0z"/><path d="m33.022 27.494c0 .959-1.551.959-1.551 0s1.551-.959 1.551 0z"/><path d="m33.022 35.313c0 .959-1.551.959-1.551 0 .001-.958 1.551-.958 1.551 0z"/><path d="m33.022 43.134c0 .958-1.551.958-1.551 0 .001-.959 1.551-.959 1.551 0z"/><path d="m33.022 50.953c0 .959-1.551.959-1.551 0 .001-.958 1.551-.958 1.551 0z"/></g><path d="m26.875 2c-1.624 1.44-1.345 4.435-1.048 4.82-1.766-.208-1.781 2.875-6.906 3.896.378-.913.262-3.986 1.191-4.25 4.664-1.326 4.339-4.466 6.763-4.466z" fill="#fde0da"/></svg>