<svg enable-background="new 0 0 64 64" height="64" viewBox="0 0 64 64" width="64" xmlns="http://www.w3.org/2000/svg" xmlns:xlink="http://www.w3.org/1999/xlink"><linearGradient id="a"><stop offset=".3394" stop-color="#fff"/><stop offset="1" stop-color="#fff" stop-opacity="0"/></linearGradient><linearGradient id="b" gradientUnits="userSpaceOnUse" x1="16.5903" x2="16.5903" xlink:href="#a" y1="25.1206" y2="32.9636"/><linearGradient id="c" gradientTransform="matrix(-1 0 0 1 889.1523 0)" gradientUnits="userSpaceOnUse" x1="841.7422" x2="841.7422" xlink:href="#a" y1="25.1206" y2="32.9636"/><path d="m28.538 25.935c-5.215-2.421-22.834-2.48-23.246-1.413-.742 1.917-.719 11.295 2.703 14.687 3.084 3.058 13.791 1.506 16.834-.547 3.406-2.299 5.084-12.089 3.709-12.727z" fill="#cae8f0" opacity=".6"/><path d="m25.783 28.004c-3.462-1.995-15.64-2.877-17.669-1.686-2.487 1.462-.925 9.793.994 11.083 2.408 1.619 10.963 2.017 13.869.021 3.254-2.233 4.074-8.689 2.806-9.418z" fill="url(#b)"/><path d="m35.462 25.935c5.215-2.421 22.834-2.48 23.246-1.413.742 1.918.719 11.296-2.703 14.688-3.084 3.058-13.791 1.506-16.834-.547-3.406-2.3-5.084-12.09-3.709-12.728z" fill="#cae8f0" opacity=".6"/><path d="m38.217 28.004c3.462-1.995 15.64-2.877 17.669-1.686 2.487 1.462.925 9.793-.994 11.083-2.408 1.619-10.963 2.017-13.869.021-3.254-2.233-4.074-8.689-2.806-9.418z" fill="url(#c)"/><path d="m59.928 22.308c-1.03-.139-4.262-.308-8.182-.308-4.498 0-8.086.703-11.621 1.383-3.506.674-5.842 1.148-8.125 1.148-2.285 0-4.619-.475-8.125-1.148-3.537-.68-7.123-1.383-11.621-1.383-3.92 0-7.152.169-8.184.308-2.07.278-2.07.278-2.07 2.778 0 3.652.383 4.288.545 4.508.219.295.834.703 1.033 1.016.293.457.398 1.869.539 2.685 1.117 6.465 2.658 8.705 11.449 8.705 8.184 0 12.217-2.661 13.756-9.234.115-.49.318-2.589.443-3.077.049-.192.211-.483.637-.553.568-.061 1.086-.088 1.598-.088s1.027.027 1.598.088c.424.069.588.36.637.553.123.488.328 2.587.443 3.077 1.539 6.573 5.572 9.234 13.756 9.234 8.791 0 10.332-2.24 11.447-8.706.141-.815.248-2.228.541-2.685.199-.313.813-.721 1.033-1.016.162-.219.545-.855.545-4.507 0-2.5 0-2.5-2.072-2.778zm-32.106 7.954c-.105.529-.242 1.146-.432 1.927-1.102 4.556-3.535 7.589-11.824 7.589-8.033 0-8.746-1.836-9.502-6.989-.281-1.921-.887-4.05-.195-5.838.385-.994 1.047-2.39 3.371-2.39 1.697 0 10.094.12 15.256 1.339 1.506.355 3.957.974 3.326 4.362zm30.112 2.526c-.756 5.153-1.467 6.989-9.5 6.989-8.291 0-10.723-3.033-11.824-7.589-.189-.781-.326-1.397-.434-1.927-.629-3.388 1.822-4.007 3.328-4.362 5.162-1.219 13.559-1.339 15.256-1.339 2.322 0 2.986 1.396 3.369 2.39.693 1.788.088 3.917-.195 5.838z" fill="#302c3b"/></svg>