<svg enable-background="new 0 0 64 64" height="64" viewBox="0 0 64 64" width="64" xmlns="http://www.w3.org/2000/svg" xmlns:xlink="http://www.w3.org/1999/xlink"><linearGradient id="a"><stop offset="0" stop-color="#fcc223"/><stop offset=".2748" stop-color="#f9be20"/><stop offset=".5553" stop-color="#eeb218"/><stop offset=".8375" stop-color="#de9d0a"/><stop offset="1" stop-color="#d18e00"/></linearGradient><radialGradient id="b" cx="41.0215" cy="55.6211" gradientTransform="matrix(1 0 0 .6587 0 8.0227)" gradientUnits="userSpaceOnUse" r="32.7962" xlink:href="#a"/><radialGradient id="c" cx="79.6025" cy="-22.8779" gradientTransform="matrix(1.7679 -.3403 .3146 1.9246 -107.828 96.7158)" gradientUnits="userSpaceOnUse" r="9.148" xlink:href="#a"/><radialGradient id="d" cx="25.729" cy="47.5547" gradientTransform="matrix(1 0 0 .8194 0 1.0007)" gradientUnits="userSpaceOnUse" r="13.1508"><stop offset="0" stop-color="#019be0"/><stop offset="1" stop-color="#0174a8"/></radialGradient><path d="m56.39 36.084c9.367 1.943 8.754 18.029-15.445 23.438-25.823 5.771-35.355-2.707-38.24-7.385-5.725-9.278 24.477-22.113 53.685-16.053z" fill="url(#b)"/><path d="m2.504 52.462c11.499 1.656 14.373-6.129 19.25-8.813-6.94-3.095-6.171 4.649-16.168 5.696-1.989.208-3.082 3.117-3.082 3.117z" fill="#014d87"/><path d="m9.038 55.716c-1.253 1.123 1.728 6.934 2.319 6.225 7.479-8.979 9.994-16.125 10.042-17.76-5.248-.863-2.664 2.861-12.361 11.535z" fill="#006dae"/><path d="m44.587 37.013c1.35 8.249-26.096 13.534-27.446 5.282-1.849-11.313.511-17.878 10.907-19.879 10.394-2.002 14.689 3.28 16.539 14.597z" fill="url(#c)"/><path d="m44.587 37.013c-.107-.654-.225-1.284-.35-1.898-5.285 7.011-20.182 9.878-27.371 5.27.079.621.167 1.257.275 1.911 1.566 9.571 29.01 4.29 27.446-5.283z" fill="url(#d)"/></svg>