<svg enable-background="new 0 0 64 64" height="64" viewBox="0 0 64 64" width="64" xmlns="http://www.w3.org/2000/svg" xmlns:xlink="http://www.w3.org/1999/xlink"><radialGradient id="a" cx="31.999" cy="43.8477" gradientTransform="matrix(1 0 0 1.1414 0 -6.2014)" gradientUnits="userSpaceOnUse" r="31.4672"><stop offset="0" stop-color="#fffb7a"/><stop offset=".1466" stop-color="#fef674"/><stop offset=".3504" stop-color="#f9e762"/><stop offset=".588" stop-color="#f3cf44"/><stop offset=".8488" stop-color="#e9ad1b"/><stop offset="1" stop-color="#e39700"/></radialGradient><linearGradient id="b"><stop offset="0" stop-color="#ffe14d"/><stop offset=".2499" stop-color="#ffdf4a"/><stop offset=".4691" stop-color="#ffd93f"/><stop offset=".6767" stop-color="#ffcf2d"/><stop offset=".8761" stop-color="#ffc214"/><stop offset="1" stop-color="#ffb700"/></linearGradient><radialGradient id="c" cx="31.999" cy="43.8477" gradientTransform="matrix(1 0 0 1.1414 0 -6.2014)" gradientUnits="userSpaceOnUse" r="31.4672" xlink:href="#b"/><linearGradient id="d"><stop offset="0" stop-color="#75d6ff" stop-opacity="0"/><stop offset="1" stop-color="#75d6ff"/></linearGradient><linearGradient id="e" gradientUnits="userSpaceOnUse" x1="31.9995" x2="31.9995" xlink:href="#d" y1="47.0723" y2="42.0859"/><linearGradient id="f" gradientUnits="userSpaceOnUse" x1="15.7998" x2="15.7998" xlink:href="#d" y1="47.459" y2="44.1514"/><linearGradient id="g" gradientUnits="userSpaceOnUse" x1="48.1982" x2="48.1982" xlink:href="#d" y1="47.459" y2="44.1514"/><linearGradient id="h" gradientUnits="userSpaceOnUse" x1="59.3857" x2="59.3857" xlink:href="#d" y1="45.0596" y2="42.1221"/><linearGradient id="i" gradientTransform="matrix(-1 0 0 1 409.3555 0)" gradientUnits="userSpaceOnUse" x1="404.7422" x2="404.7422" xlink:href="#d" y1="45.0596" y2="42.1221"/><radialGradient id="j" cx="30.2979" cy="19.8267" gradientUnits="userSpaceOnUse" r="8.2418" xlink:href="#b"/><radialGradient id="k" cx="56.7354" cy="25.999" gradientUnits="userSpaceOnUse" r="5.8874" xlink:href="#b"/><radialGradient id="l" cx="4.8345" cy="25.999" gradientUnits="userSpaceOnUse" r="5.8871" xlink:href="#b"/><radialGradient id="m" cx="31.999" cy="50.9336" gradientTransform="matrix(1 0 0 .2771 0 36.8186)" gradientUnits="userSpaceOnUse" r="28.5975" xlink:href="#b"/><path d="m55.485 38.333c-10.526 0-8.737-11.393-8.737-11.391h-3.582c0-.002 1.791 11.391-8.737 11.391 7.583 6.409 13.473 6.409 21.056 0z" fill="#ffbb4f"/><path d="m29.569 38.333c-10.527 0-8.738-11.393-8.738-11.391h-3.581c0-.002 1.792 11.391-8.738 11.391 7.583 6.409 13.473 6.409 21.057 0z" fill="#ffbb4f"/><circle cx="44.957" cy="25.591" fill="#ffb33b" r="3.239"/><circle cx="19.041" cy="25.591" fill="#ffb33b" r="3.24"/><path d="m56.059 28.936s-.961 12.866-10.875 12.866-10.536-16.107-10.536-16.107h-5.303s-.621 16.106-10.534 16.106c-9.915 0-10.875-12.866-10.875-12.866h-3.881l1.57 26.824c.519 8.32 52.229 8.32 52.747 0l1.571-26.824h-3.884z" fill="url(#a)"/><path d="m56.059 28.936s-.961 12.866-10.875 12.866-10.536-16.107-10.536-16.107h-5.303s-.621 16.106-10.534 16.106c-9.915 0-10.875-12.866-10.875-12.866h-3.881l1.57 26.824c.519 8.32 52.229 8.32 52.747 0l1.571-26.824h-3.884z" fill="url(#c)"/><path d="m32.056 41.072-4.127 5.978 4.127 6.234 4.012-6.234z" fill="#018bc9"/><path d="m32.046 42.086-3.442 4.986h6.79z" fill="url(#e)"/><path d="m15.838 43.479-2.736 3.964 2.736 4.135 2.66-4.135z" fill="#018bc9"/><path d="m15.832 44.151-2.283 3.308h4.502z" fill="url(#f)"/><path d="m48.236 43.479-2.736 3.964 2.736 4.135 2.66-4.135z" fill="#018bc9"/><path d="m48.229 44.151-2.282 3.308h4.502z" fill="url(#g)"/><path d="m58.842 41.423-1.35 3.622.91 3.781 2.202-3.781z" fill="#018bc9"/><path d="m59.184 42.122-1.016 2.938 2.436-.015z" fill="url(#h)"/><path d="m5.156 41.423 1.35 3.622-.91 3.781-2.201-3.781z" fill="#018bc9"/><path d="m4.816 42.122 1.016 2.938-2.437-.015z" fill="url(#i)"/><circle cx="31.999" cy="21.669" fill="url(#j)" r="5.669"/><circle cx="57.95" cy="27.315" fill="url(#k)" r="4.05"/><circle cx="6.049" cy="27.315" fill="url(#l)" r="4.049"/><path d="m58.609 54.624c-17.351 5.403-35.869 5.403-53.22.001-1.275-.409-1.248-3.486-.012-3.102 17.357 5.217 35.886 5.217 53.243 0 1.236-.382 1.263 2.691-.011 3.101z" fill="url(#m)"/></svg>