<svg enable-background="new 0 0 64 64" height="64" viewBox="0 0 64 64" width="64" xmlns="http://www.w3.org/2000/svg" xmlns:xlink="http://www.w3.org/1999/xlink"><linearGradient id="a"><stop offset="0" stop-color="#f6bec1"/><stop offset="1" stop-color="#f6d6d8"/></linearGradient><linearGradient id="b" gradientUnits="userSpaceOnUse" x1="32.0005" x2="32.0005" xlink:href="#a" y1="62" y2="26.8906"/><linearGradient id="c" gradientUnits="userSpaceOnUse" x1="50.3047" x2="50.3047" xlink:href="#a" y1="43.0879" y2="6.8955"/><linearGradient id="d" gradientUnits="userSpaceOnUse" x1="13.6958" x2="13.6958" xlink:href="#a" y1="43.0879" y2="6.8955"/><linearGradient id="e" gradientUnits="userSpaceOnUse" x1="27.3423" x2="27.3423" xlink:href="#a" y1="21.7271" y2="3.459"/><linearGradient id="f" gradientUnits="userSpaceOnUse" x1="36.6582" x2="36.6582" xlink:href="#a" y1="21.7271" y2="3.459"/><radialGradient id="g" cx="32" cy="25.0137" gradientTransform="matrix(1 0 0 2.5 0 -37.5205)" gradientUnits="userSpaceOnUse" r="7.1426"><stop offset=".4485" stop-color="#ab0e73"/><stop offset=".704" stop-color="#9f0d6b"/><stop offset="1" stop-color="#8c0b5e"/></radialGradient><path d="m44.79 61.819h-25.58c.243 2.854.029-29.063 3.541-32.745 2.906-3.05 15.228-2.771 18.498 0 4.293 3.637 3.292 35.05 3.541 32.745z" fill="url(#b)"/><path d="m26.522 28.906h3.001v32.913h-3.001z" fill="#f26887"/><path d="m58.999 43.067s-11.24.34-13.886-1.719c-1.554-1.21-1.893-22.396-2.864-22.396-3.827 0-.104-10.917 3.514-12.025 1.864-.512 13.236 5.171 13.236 5.171s2.189 11.854 0 30.969z" fill="url(#c)"/><path d="m62 43.067h-3.001v-30.968l3.001 1.069z" fill="#f26887"/><path d="m5.001 43.067s11.24.34 13.886-1.719c1.554-1.21 1.891-22.396 2.864-22.396 3.827 0 .104-10.917-3.514-12.025-1.864-.512-13.236 5.171-13.236 5.171s-2.188 11.854 0 30.969z" fill="url(#d)"/><path d="m2 43.067h3.001v-30.968l-3.001 1.069z" fill="#f26887"/><path d="m26.558 2h10.884l-5.442 13.264z" fill="#bf3a7a"/><path d="m26.558 4.504h10.884l-5.442 12.242z" fill="#e6a3a8"/><path d="m27.554 5.521c3.822 3.632 6.318 2.413 8.9 0-1.15 10.092-7.603 12.933-8.9 0z" fill="#db979c"/><path d="m24.592 3.459s-5.938 2.428-6.354 3.469c0 0 1.318 12.003 4.514 14.025 2.74 1.741 13.695 0 13.695 0z" fill="url(#e)"/><path d="m26.558 2-1.966 1.459 9.134 17.494h2.72z" fill="#f26887"/><path d="m39.408 3.459s5.938 2.428 6.354 3.469c0 0-1.318 12.003-4.514 14.025-2.741 1.741-13.695 0-13.695 0z" fill="url(#f)"/><path d="m37.442 2 1.966 1.459-9.134 17.494h-2.72z" fill="#f26887"/><path d="m22.751 20.953h18.498v8.121h-18.498z" fill="url(#g)"/></svg>