<svg enable-background="new 0 0 64 64" height="64" viewBox="0 0 64 64" width="64" xmlns="http://www.w3.org/2000/svg" xmlns:xlink="http://www.w3.org/1999/xlink"><linearGradient id="a" gradientUnits="userSpaceOnUse" x1="32.0005" x2="32.0005" y1="36.0742" y2="19.9946"><stop offset="0" stop-color="#c29474"/><stop offset=".0896" stop-color="#cb9b79"/><stop offset=".2556" stop-color="#d3a27e"/><stop offset=".5091" stop-color="#d6a480"/></linearGradient><linearGradient id="b" gradientUnits="userSpaceOnUse" x1="32.0005" x2="32.0005" y1="62" y2="36.0742"><stop offset="0" stop-color="#b3896b"/><stop offset=".075" stop-color="#bd9171"/><stop offset=".2277" stop-color="#cb9c7a"/><stop offset=".4148" stop-color="#d4a27f"/><stop offset=".7333" stop-color="#d6a480"/><stop offset=".8991" stop-color="#d4a27f"/><stop offset=".9587" stop-color="#cd9d7b"/><stop offset="1" stop-color="#c29474"/></linearGradient><linearGradient id="c"><stop offset="0" stop-color="#45332c"/><stop offset=".086" stop-color="#48362f"/><stop offset=".5541" stop-color="#55423c"/><stop offset="1" stop-color="#594640"/></linearGradient><linearGradient id="d" gradientUnits="userSpaceOnUse" x1="46.4141" x2="46.4141" xlink:href="#c" y1="32.105" y2="23.4995"/><linearGradient id="e" gradientUnits="userSpaceOnUse" x1="17.5874" x2="17.5874" xlink:href="#c" y1="32.105" y2="23.4995"/><linearGradient id="f" gradientUnits="userSpaceOnUse" x1="32.0215" x2="32.0215" xlink:href="#c" y1="22.7646" y2="2.0005"/><radialGradient id="g" cx="32.0205" cy="10.2432" gradientUnits="userSpaceOnUse" r="10.8035"><stop offset="0" stop-color="#d6a480"/><stop offset=".4098" stop-color="#d3a27e"/><stop offset=".6786" stop-color="#cb9b79"/><stop offset=".9063" stop-color="#bc8f70"/><stop offset="1" stop-color="#b3886b"/></radialGradient><path d="m57.679 22.729c-2.918-2.81-48.439-2.811-51.357 0-2.373 2.286-6.59 39.271-2.813 39.271h28.491s25.259 0 28.491 0c3.777 0-.44-36.985-2.812-39.271z" fill="#d6a480"/><path d="m57.549 21.316c-.966-.981-16.18-1.322-25.528-1.322s-24.563.341-25.529 1.322c-.48.487-1.239 7.045-1.912 14.758h54.841c-.663-7.506-1.401-14.28-1.872-14.758z" fill="url(#a)"/><path d="m59.44 36.074h-54.88c-1.016 11.646-1.838 25.926-1.215 25.926h28.655s25.404 0 28.655 0c.623 0-.197-14.28-1.215-25.926z" fill="url(#b)"/><path d="m32 35.908c-6.809 0-27.234.066-27.234.066v.268s20.426-.068 27.234-.068 27.236.068 27.236.068v-.268c0 .001-20.427-.066-27.236-.066z" fill="#a37968"/><path d="m57.778 21.292c-.971-.982-16.409-1.55-25.758-1.55s-24.788.568-25.757 1.55c-1.204 1.222-3.933 40.708-2.898 40.708h.54c-.6-4.233 1.779-39.091 2.918-40.243.967-.982 15.849-1.321 25.197-1.321s24.23.339 25.197 1.321c1.139 1.152 3.519 36.009 2.918 40.243h.54c1.036 0-1.692-39.486-2.897-40.708z" fill="#a37968"/><path d="m48.016 21.319c-.512-.356-2.689-.356-3.203 0-.521.364-1.424 2.826-.924 3.254.686.59 4.367.59 5.053 0 .497-.428-.403-2.89-.926-3.254zm-3.483 2.72c.031-.77.219-1.512.764-2.207.525-.159 1.709-.159 2.236 0 .545.694.73 1.437.762 2.207-1.313.25-2.449.25-3.762 0z" fill="#e6ebef"/><path d="m49.365 31.729c-.629.502-5.273.502-5.902 0-.545-.436.688-7.569 1.264-8.053.281-.235 3.096-.235 3.375 0 .576.483 1.806 7.617 1.263 8.053z" fill="url(#d)"/><path d="m15.061 24.573c.686.59 4.367.59 5.053 0 .498-.428-.404-2.89-.926-3.254-.512-.356-2.691-.356-3.201 0-.524.364-1.424 2.826-.926 3.254zm.644-.534c.031-.77.219-1.512.764-2.207.525-.159 1.711-.159 2.236 0 .545.694.732 1.437.762 2.207-1.313.25-2.447.25-3.762 0z" fill="#e6ebef"/><path d="m14.637 31.729c.627.502 5.273.502 5.902 0 .543-.436-.689-7.569-1.266-8.053-.281-.235-3.094-.235-3.373 0-.578.483-1.808 7.617-1.263 8.053z" fill="url(#e)"/><path d="m15.802 18.318c.287 2.265-.285 2.667.104 4.235.079.326 3.444.265 3.483-.112.324-3.059-.652-2.13-.975-3.963-3.282-18.679 30.493-18.679 27.211 0-.322 1.833-1.299.904-.974 3.963.039.377 3.403.438 3.484.112.388-1.568-.184-1.971.104-4.235 2.766-21.757-35.202-21.757-32.437 0z" fill="url(#f)"/><path d="m18.213 16.728c-.891-16.126 28.506-16.127 27.615 0 1.026-17.292-28.642-17.292-27.615 0z" fill="url(#g)"/></svg>