<svg enable-background="new 0 0 64 64" height="64" viewBox="0 0 64 64" width="64" xmlns="http://www.w3.org/2000/svg" xmlns:xlink="http://www.w3.org/1999/xlink"><linearGradient id="a" gradientUnits="userSpaceOnUse" x1="35.6113" x2="34.1732" y1="61.2305" y2="20.0466"><stop offset=".4303" stop-color="#ad1531"/><stop offset=".5515" stop-color="#b11935"/><stop offset=".6748" stop-color="#bc2540"/><stop offset=".7992" stop-color="#cf3a52"/><stop offset=".9235" stop-color="#ea566c"/><stop offset=".9273" stop-color="#eb576d"/></linearGradient><linearGradient id="b" gradientUnits="userSpaceOnUse" x1="2" x2="16.5098" y1="41.7148" y2="41.7148"><stop offset=".4303" stop-color="#ad1531"/><stop offset=".5936" stop-color="#a91430"/><stop offset=".7597" stop-color="#9d132c"/><stop offset=".9266" stop-color="#881026"/><stop offset="1" stop-color="#7d0f23"/></linearGradient><path d="m62 53.49c0 2.71-41.236 8.509-48.736 8.509-6.055 0-5.906-24.153-3.172-40.445.305-.507 7.005-1.531 45.666-1.439 4.188 2.179 6.242 17.444 6.242 33.375z" fill="url(#a)"/><path d="m16.51 60.513c0 3.46-14.51.173-14.51-2.665 0-18.803 4.02-33.833 6.72-36.243.796-.336 2.329-.086 2.329-.086 3.985 7.534 5.461 25.157 5.461 38.994z" fill="url(#b)"/><path d="m11.049 21.519c-.124.487-2.329.086-2.329.086 4.794-2.221 47.038-1.49 47.038-1.49s-44.487.525-44.709 1.404z" fill="#cfd8dd"/><path d="m9.18 32.562c.378-3.847 1.869-11.042 1.869-11.042l-2.329.085s-1.511 7.081-1.893 10.957z" fill="#99a8ae"/><path d="m10.77 39.569-.658-5.625c-.207-1.794-3.459-1.958-3.823-.199l-1.136 5.532c-.64 3.116 5.989 3.456 5.617.292zm-4.591.395.485-3.095 2.801.146.227 3.128c-.103.245-3.44.073-3.513-.179z" fill="#cfd8dd"/><path d="m9.205 35.414-2.848-.206 2.329-4.285.71.092z" fill="#6e8189"/><path d="m8.5 35.317-2.143-.109.187-4.397 2.142.112z" fill="#cfd8dd"/></svg>