<svg enable-background="new 0 0 64 64" height="64" viewBox="0 0 64 64" width="64" xmlns="http://www.w3.org/2000/svg" xmlns:xlink="http://www.w3.org/1999/xlink"><linearGradient id="a" gradientUnits="userSpaceOnUse" x1="32.4946" x2="54" y1="22.7007" y2="22.7007"><stop offset="0" stop-color="#006dae"/><stop offset=".1" stop-color="#0676b9"/><stop offset=".4907" stop-color="#1a95df"/><stop offset=".8044" stop-color="#26a9f6"/><stop offset="1" stop-color="#2bb0ff"/></linearGradient><linearGradient id="b" gradientUnits="userSpaceOnUse" x1="10.0005" x2="31.5063" y1="22.7007" y2="22.7007"><stop offset="0" stop-color="#2bb0ff"/><stop offset=".1956" stop-color="#26a9f6"/><stop offset=".5093" stop-color="#1a95df"/><stop offset=".9" stop-color="#0676b9"/><stop offset="1" stop-color="#006dae"/></linearGradient><path d="m29.631 28.269h4.737v1.243h-4.737z" fill="#006dae"/><path d="m13.591 11.402c.264 6.467 1.401 3.229 1.401 3.229 2.367-7.913 5.358-12.631 5.358-12.631h-2.107s-2.153 3.545-4.652 9.402z" fill="#006dae"/><path d="m50.41 11.402c-.264 6.467-1.4 3.229-1.4 3.229-2.368-7.913-5.359-12.631-5.359-12.631h2.107c.001 0 2.151 3.545 4.652 9.402z" fill="#006dae"/><path d="m50.41 11.402c2.207 5.279 6.525 13.309.574 19.397-4.52 4.624-13.336 4.271-18.49-1.288.258-1.668 9.533-7.926 17.916-18.109z" fill="url(#a)"/><path d="m13.591 11.402c-2.208 5.279-6.525 13.309-.575 19.397 4.519 4.624 13.337 4.271 18.491-1.288-.26-1.668-9.533-7.926-17.916-18.109z" fill="url(#b)"/><g fill="#fff"><path d="m48.953 15.499c1.178.115 1.365 1.966.131 1.885-1.221-.066-1.302-1.979-.131-1.885z" opacity=".8"/><path d="m49.006 21.275c1.261.037 1.299 1.887.027 1.885-1.26-.002-1.279-1.915-.027-1.885z"/><path d="m46.088 18.567c1.223.03 1.281 1.937.026 1.921-1.251-.009-1.247-1.937-.026-1.921z"/><path d="m51.551 18.674c.898.088 1.07 1.862.132 1.813-1.244-.057-1.347-1.922-.132-1.813z" opacity=".8"/><path d="m46.313 24.97c1.277-.001 1.26 1.906-.01 1.92-1.264.008-1.266-1.92.01-1.92z"/><path d="m51.568 24.115c1.023-.003.97 1.766-.045 1.813-1.256.053-1.224-1.811.045-1.813z" opacity=".8"/><path d="m49.426 27.711c1.27-.041 1.159 1.809-.078 1.885-1.228.062-1.181-1.852.078-1.885z" opacity=".8"/><path d="m45.408 31.148c.002-.532.414-.965.92-.976.507-.01.903.403.881.931-.021.528-.438.977-.924.99-.488.014-.881-.413-.877-.945z" opacity=".8"/><path d="m43.253 21.472c1.264-.009 1.267 1.92-.009 1.92-1.278.001-1.26-1.906.009-1.92z"/><path d="m40.131 24.133c1.271.002 1.288 1.916.026 1.885-1.27-.038-1.309-1.888-.026-1.885z"/><path d="m43.016 27.202c1.262.009 1.258 1.938.027 1.921-1.234-.03-1.293-1.936-.027-1.921z"/><path d="m39.909 29.83c1.222.064 1.302 1.979.132 1.885-1.18-.114-1.365-1.965-.132-1.885z" opacity=".8"/><path d="m37.352 26.836c1.254.058 1.356 1.923.132 1.813-1.241-.122-1.406-1.878-.132-1.813z" opacity=".8"/><path d="m42.068 33.979c-.342-1.512 2.138-1.547 1.859-.027-.551.047-1.283.066-1.859.027z" opacity=".8"/><path d="m34.389 29.919c.873 0 1.322 1.1.587 1.708-.509-.339-.995-.712-1.466-1.124.146-.343.484-.584.879-.584z" opacity=".8"/><path d="m15.044 15.499c-1.178.115-1.366 1.966-.132 1.885 1.222-.066 1.302-1.979.132-1.885z" opacity=".8"/><path d="m14.991 21.275c-1.261.037-1.299 1.887-.027 1.885 1.26-.002 1.278-1.915.027-1.885z"/><path d="m17.909 18.567c-1.224.03-1.282 1.937-.026 1.921 1.251-.009 1.246-1.937.026-1.921z"/><path d="m12.446 18.674c-.899.088-1.071 1.862-.132 1.813 1.244-.057 1.347-1.922.132-1.813z" opacity=".8"/><path d="m17.685 24.97c-1.277-.001-1.26 1.906.009 1.92 1.264.008 1.266-1.92-.009-1.92z"/><path d="m12.428 24.115c-1.022-.003-.969 1.766.044 1.813 1.258.053 1.226-1.811-.044-1.813z" opacity=".8"/><path d="m14.57 27.711c-1.269-.041-1.159 1.809.08 1.885 1.226.062 1.18-1.852-.08-1.885z" opacity=".8"/><path d="m18.589 31.148c-.002-.532-.415-.965-.921-.976-.506-.01-.903.403-.881.931.021.528.438.977.924.99.488.014.881-.413.878-.945z" opacity=".8"/><path d="m20.744 21.472c-1.263-.009-1.267 1.92.009 1.92 1.278.001 1.259-1.906-.009-1.92z"/><path d="m23.866 24.133c-1.27.002-1.288 1.916-.026 1.885 1.271-.038 1.309-1.888.026-1.885z"/><path d="m20.98 27.202c-1.261.009-1.257 1.938-.026 1.921 1.234-.03 1.293-1.936.026-1.921z"/><path d="m24.088 29.83c-1.221.064-1.303 1.979-.132 1.885 1.179-.114 1.365-1.965.132-1.885z" opacity=".8"/><path d="m26.646 26.836c-1.254.058-1.357 1.923-.132 1.813 1.239-.122 1.404-1.878.132-1.813z" opacity=".8"/><path d="m21.928 33.979c.342-1.512-2.137-1.547-1.859-.027.552.047 1.284.066 1.859.027z" opacity=".8"/><path d="m29.608 29.919c-.873 0-1.322 1.1-.587 1.708.509-.339.996-.712 1.466-1.124-.147-.343-.485-.584-.879-.584z" opacity=".8"/></g><path d="m54 44.789-1.076-2.789h-41.844l-1.08 2.789c13.176 0 17.614 15.532 19.3 16.626 1.136.737 4.329.821 5.405 0 2.029-1.554 5.453-16.626 19.295-16.626z" fill="#006dae"/><path d="m17.516 42.983c-1.299.112-1.84 2.081-.481 2.002 1.319-.073 1.744-2.108.481-2.002z" fill="#fff" opacity=".8"/><path d="m13.678 42.482c-1.299.113-1.84 2.081-.481 2.002 1.318-.073 1.743-2.108.481-2.002z" fill="#fff" opacity=".8"/><path d="m23.31 42.604c-1.293.068-1.64 2.14-.289 2.091 1.328-.043 1.56-2.154.289-2.091z" fill="#fff" opacity=".8"/><path d="m29.104 42.414c-1.285.025-1.439 2.153-.097 2.137 1.335-.014 1.374-2.155.097-2.137z" fill="#fff"/><path d="m34.896 42.414c-1.276-.019-1.239 2.123.097 2.137 1.343.016 1.19-2.113-.097-2.137z" fill="#fff"/><path d="m40.691 42.604c-1.271-.063-1.041 2.048.287 2.091 1.352.048 1.006-2.022-.287-2.091z" fill="#fff" opacity=".8"/><path d="m46.484 42.983c-1.262-.107-.84 1.929.481 2.002 1.357.079.82-1.889-.481-2.002z" fill="#fff" opacity=".8"/><path d="m50.354 42.482c-1.261-.107-.84 1.929.481 2.002 1.358.079.82-1.889-.481-2.002z" fill="#fff" opacity=".8"/><path d="m20.885 45.809c-1.358.056-1.606 2.097-.212 2.066 1.364-.027 1.543-2.117.212-2.066z" fill="#fff" opacity=".8"/><path d="m25.938 45.664c-1.351.03-1.502 2.135-.116 2.119 1.372-.014 1.452-2.145.116-2.119z" fill="#fff"/><path d="m32 45.603c-1.344.002-1.379 2.143 0 2.142 1.379 0 1.344-2.141 0-2.142z" fill="#fff"/><path d="m38.063 45.664c-1.336-.027-1.256 2.104.116 2.119 1.385.017 1.236-2.089-.116-2.119z" fill="#fff"/><path d="m24.073 48.864c-1.331.02-1.392 2.103-.049 2.102 1.322-.001 1.36-2.12.049-2.102z" fill="#fff" opacity=".8"/><path d="m28.892 48.821c-1.384.008-1.417 2.137-.02 2.136 1.388 0 1.398-2.142.02-2.136z" fill="#fff"/><path d="m26.787 52.022c-1.398 0-1.356 2.113.032 2.126 1.376.012 1.355-2.126-.032-2.126z" fill="#fff" opacity=".8"/><path d="m32 52.026c-1.393 0-1.381 2.141 0 2.142 1.381-.001 1.393-2.142 0-2.142z" fill="#fff"/><path d="m32 58.451c-1.338-.003-1.281 2.138 0 2.141 1.281-.003 1.34-2.144 0-2.141z" fill="#fff" opacity=".8"/><path d="m37.213 52.022c-1.387.001-1.407 2.137-.031 2.126 1.385-.012 1.431-2.126.031-2.126z" fill="#fff" opacity=".8"/><path d="m35.108 48.821c-1.376-.006-1.37 2.135.02 2.136 1.395.001 1.366-2.127-.02-2.136z" fill="#fff"/><path d="m39.928 48.864c-1.311-.018-1.273 2.101.049 2.102 1.342.002 1.283-2.082-.049-2.102z" fill="#fff" opacity=".8"/><path d="m43.115 45.809c-1.33-.052-1.153 2.039.212 2.066 1.394.03 1.148-2.012-.212-2.066z" fill="#fff" opacity=".8"/><path d="m28.911 55.229c-1.381-.009-1.291 2.12.059 2.136 1.338.012 1.317-2.13-.059-2.136z" fill="#fff" opacity=".8"/><path d="m35.09 55.229c-1.375.007-1.398 2.149-.059 2.136 1.348-.016 1.442-2.144.059-2.136z" fill="#fff" opacity=".8"/></svg>