<svg enable-background="new 0 0 64 64" height="64" viewBox="0 0 64 64" width="64" xmlns="http://www.w3.org/2000/svg" xmlns:xlink="http://www.w3.org/1999/xlink"><linearGradient id="a"><stop offset="0" stop-color="#ffd480"/><stop offset=".5033" stop-color="#f1c266"/><stop offset=".8667" stop-color="#e6b450"/></linearGradient><radialGradient id="b" cx="29.0522" cy="12.9678" gradientTransform="matrix(1 0 0 .9986 0 .5452)" gradientUnits="userSpaceOnUse" r="3.4998" xlink:href="#a"/><radialGradient id="c" cx="32" cy="26.022" gradientTransform="matrix(1 0 0 .9986 0 .5452)" gradientUnits="userSpaceOnUse" r="17.2926" xlink:href="#a"/><linearGradient id="d" gradientUnits="userSpaceOnUse" x1="32.0005" x2="32.0005" y1="61.0439" y2="22.811"><stop offset="0" stop-color="#004066"/><stop offset=".1879" stop-color="#006dae"/><stop offset=".7939" stop-color="#00a0ff"/></linearGradient><linearGradient id="e" gradientUnits="userSpaceOnUse" x1="32.002" x2="32.002" y1="62" y2="22.731"><stop offset="0" stop-color="#004b78"/><stop offset=".1515" stop-color="#006dae"/><stop offset=".2152" stop-color="#0676b9"/><stop offset=".4638" stop-color="#1a95df"/><stop offset=".6634" stop-color="#26a9f6"/><stop offset=".7879" stop-color="#2bb0ff"/></linearGradient><path d="m29.673 16.944h-4.688c-2.912 0-2.916 3.305 0 3.305h5.348.006c.826 0 1.334-.634 1.66-.957z" fill="#c29843"/><path d="m38.448 13.497c0 4.657-7 4.657-7 0 .001-4.663 7-4.663 7 0z" fill="#c29843"/><path d="m30.341 13.012 3.984 3.932h4.689c2.914 0 2.916 3.305 0 3.305h-5.348c-.004 0-.004 0-.006 0-.428 0-.853-.157-1.179-.479l-4.488-4.438c-.646-.639 1.7-2.961 2.348-2.32z" fill="#e6b450"/><path d="m32.552 13.497c0 4.657-7 4.657-7 0 0-4.663 7-4.663 7 0z" fill="url(#b)"/><path d="m49.301 20.055h-34.601c-8.373 0-8.373 12.951 0 12.951h34.601c8.373 0 8.373-12.951 0-12.951z" fill="url(#c)"/><path d="m12.736 24.171c-5.846 4.932-12.764 21.52-10.178 28.673 1.004 2.771 7.348 5.199 10.178 6.119 9.145 2.973 29.236 2.568 38.503 0 2.867-.793 9.176-3.348 10.178-6.119 2.586-7.152-3.908-24.278-10.178-28.672-2.642-1.851-36.392-1.779-38.503-.001z" fill="url(#d)"/><path d="m50.993 24.015c-.908-.963-10.271-1.382-18.992-1.266-8.721-.116-18.082.303-18.99 1.266 0 0-11.553 29.303 3.596 35.817 6.715 2.891 24.076 2.891 30.789 0 15.15-6.514 3.597-35.817 3.597-35.817z" fill="url(#e)"/><g fill="#019ee6"><path d="m33.788 32.021c1.064 5.23-4.64 5.23-3.576 0 1.934-9.501 1.643-9.501 3.576 0z"/><path d="m24.938 31.316c-2.739 4.499-6.774.223-2.529-2.679 7.711-5.269 7.505-5.488 2.529 2.679z"/><path d="m41.591 28.637c4.246 2.901.21 7.175-2.529 2.679-4.976-8.167-5.182-7.948 2.529-2.679z"/></g></svg>