<svg enable-background="new 0 0 64 64" height="64" viewBox="0 0 64 64" width="64" xmlns="http://www.w3.org/2000/svg" xmlns:xlink="http://www.w3.org/1999/xlink"><linearGradient id="a" gradientUnits="userSpaceOnUse" x1="32.0005" x2="32.0005" y1="62" y2="2.6831"><stop offset="0" stop-color="#0174a8"/><stop offset="1" stop-color="#019be0"/></linearGradient><path d="m50.56 6.572c-.959-1.294-4.44-2.449-8.464-3.761-2.49-.812-10.096 2.475-10.096 2.475s-7.608-3.287-10.096-2.475c-4.023 1.312-7.507 2.467-8.464 3.761-3.593 4.856-11.312 15.154-11.312 15.154 3.109 4.255 12.131 6.998 12.131 6.998l2.742-3.939-1.34 34.964c5.236 3.003 27.441 3.003 32.678 0l-1.34-34.964 2.74 3.939s9.023-2.743 12.134-6.998c0 0-7.722-10.298-11.313-15.154z" fill="url(#a)"/><path d="m32 3.05s-3.727.045-9.143-1.05v2.5l9.143 5.247 9.143-5.247v-2.5c-5.416 1.095-9.143 1.05-9.143 1.05z" fill="#013366"/><path d="m32 4.887s-4.411-.062-9.143-1.05l2.666 4.222 6.477 1.426 6.475-1.427 2.668-4.222c-4.732.989-9.143 1.051-9.143 1.051z" fill="#006dae"/><path d="m46.999 24.784 1.85 2.66c-.604-5.608.05-12.76.05-12.76s-2.614 4.233-1.9 10.1z" fill="#006dae"/><path d="m41.143 2c-1.081 3.696-5.353 6.433-9.143 6.433s-8.063-2.737-9.143-6.433l-1.918 1.126c2.063 5.031 6.358 7.593 11.061 7.593s8.995-2.562 11.059-7.593z" fill="#014d87"/><path d="m17.001 24.784-1.851 2.66c.603-5.608-.051-12.76-.051-12.76s2.615 4.233 1.902 10.1z" fill="#006dae"/><g fill="#014d87"><path d="m48.073 26.479 1.657 2.398s9.125-2.794 12.27-7.125c0 0-.647-.871-1.655-2.228-4.298 3.926-12.272 6.955-12.272 6.955z"/><path d="m15.927 26.479-1.656 2.398s-9.126-2.794-12.271-7.125c0 0 .647-.871 1.655-2.228 4.298 3.926 12.272 6.955 12.272 6.955z"/></g></svg>