<svg enable-background="new 0 0 64 64" height="64" viewBox="0 0 64 64" width="64" xmlns="http://www.w3.org/2000/svg" xmlns:xlink="http://www.w3.org/1999/xlink"><linearGradient id="a"><stop offset=".4364" stop-color="#614a36"/><stop offset=".72" stop-color="#5f4834"/><stop offset=".846" stop-color="#58412d"/><stop offset=".903" stop-color="#523b26"/></linearGradient><radialGradient id="b" cx="404.2266" cy="-918.5195" gradientTransform="matrix(.5725 .6961 -.5421 .4639 -715.9612 170.1056)" gradientUnits="userSpaceOnUse" r="28.4527" xlink:href="#a"/><radialGradient id="c" cx="1322.1084" cy="-180.6333" gradientTransform="matrix(-.5725 .6961 .5421 .4639 905.4119 -811.1179)" gradientUnits="userSpaceOnUse" r="28.4532" xlink:href="#a"/><path d="m28.327 21.886c-3.607 3.207-1.027 6.986-2.793 7.055-.457.016-1.604-1.578-1.604-1.578-1.994-2.523-4.779-5.963-8.916-10.993-2.08-2.531-5.857.697-3.773 3.23-.523-.635-1.057-1.283-1.604-1.949-2.078-2.527-5.873.682-3.773 3.231.559.682 1.09 1.328 1.602 1.951-2.076-2.526-5.854.705-3.775 3.23.443.539 1.463 1.777 2.664 3.24-2.182-2.424-5.264.307-3.277 2.904 2.262 2.953 6.926 8.906 9.438 11.949 3.6 4.365 9.432 6.223 14.217 1.975 10.396-9.238 1.609-14.527 4.912-23.949.407-1.165-1.519-1.896-3.318-.296z" fill="url(#b)"/><path d="m25.069 28.751c-1.809 1.674-2.188 7.242.785 10.539-2.328-3.295-1.418-8.845.402-10.361z" fill="#452f1b"/><path d="m28.038 21.539c-3.473 3.088-1.66 7.094-2.48 6.947-.236-.045-.795-.738-1.275-1.406-2.1-2.656-4.934-6.15-8.922-10.999-1.805-2.195-4.83-.729-5.15 1.557l-.227-.275c-2.48-2.979-6.963.811-4.467 3.809l.24.293c-2.221-.078-4.242 2.664-2.412 4.889l1.283 1.561c-2.137-.115-3.561 2.408-1.906 4.572 2.24 2.923 6.893 8.867 9.447 11.96 2.791 3.385 8.787 7.16 14.852 2.033 10.604-9.42 1.809-14.904 5.047-24.144.527-1.501-1.637-2.819-4.03-.797zm3.18.494c-3.43 9.785 5.447 14.671-4.775 23.753-5.141 4.344-10.533 1.779-13.582-1.918-2.547-3.086-7.191-9.018-9.428-11.937-1.648-2.154.813-4.283 2.582-2.33l5.943 7.226.693-.576-5.949-7.234v-.002l-2.664-3.242c-1.719-2.061 1.385-4.686 3.078-2.652l8.617 10.478.693-.58-9.1-11.066v.002l-1.116-1.362c-1.758-2.137 1.436-4.653 3.082-2.653l1.602 1.951h.002l8.613 10.475.693-.578-8.625-10.491c-1.707-2.047 1.396-4.672 3.09-2.639 4.014 4.817 6.816 8.334 8.898 10.969.855 1.188 1.523 1.781 1.986 1.766 2.486-.098-.461-4.027 3.064-7.162 1.525-1.286 2.827-.835 2.603-.198z" fill="#452f1b"/><path d="m35.673 21.896c3.607 3.207 1.027 6.986 2.791 7.055.457.016 1.605-1.578 1.605-1.578 1.992-2.521 4.777-5.963 8.914-10.993 2.082-2.531 5.859.699 3.775 3.23.521-.635 1.057-1.283 1.604-1.949 2.078-2.527 5.873.682 3.773 3.231-.561.682-1.09 1.328-1.602 1.951 2.076-2.526 5.852.705 3.775 3.229-.443.541-1.465 1.779-2.666 3.242 2.182-2.424 5.266.307 3.279 2.904-2.262 2.953-6.926 8.906-9.438 11.949-3.602 4.367-9.434 6.223-14.217 1.975-10.396-9.238-1.611-14.529-4.912-23.949-.408-1.166 1.518-1.895 3.319-.297z" fill="url(#c)"/><g fill="#452f1b"><path d="m38.929 28.763c1.809 1.672 2.189 7.242-.783 10.537 2.328-3.295 1.416-8.845-.402-10.361z"/><path d="m31.933 22.345c3.238 9.238-5.559 14.724 5.045 24.144 6.064 5.127 12.063 1.352 14.854-2.033 2.555-3.094 7.207-9.037 9.447-11.96 1.654-2.162.23-4.688-1.906-4.57l1.283-1.563c1.83-2.223-.191-4.969-2.414-4.887l.24-.295c2.498-2.999-1.984-6.788-4.467-3.809l-.227.277c-.318-2.287-3.344-3.754-5.15-1.559-3.986 4.846-6.82 8.342-8.922 10.999-.48.668-1.039 1.361-1.275 1.406-.818.146.994-3.859-2.479-6.947-2.393-2.022-4.557-.703-4.029.797zm3.449-.103c3.527 3.135.58 7.064 3.064 7.162.465.016 1.131-.578 1.986-1.766 2.084-2.637 4.885-6.15 8.898-10.969 1.693-2.033 4.797.592 3.092 2.639l-8.625 10.491.691.578 8.615-10.477v.002l1.604-1.951c1.646-2 4.838.516 3.082 2.653l-1.117 1.361-9.101 11.065.693.576 8.617-10.474c1.695-2.035 4.797.59 3.08 2.652l-2.666 3.24.002.002-5.949 7.234.693.576 5.943-7.226c1.77-1.953 4.229.176 2.58 2.33-2.236 2.919-6.879 8.851-9.426 11.937-3.049 3.697-8.443 6.262-13.582 1.918-10.223-9.082-1.346-13.968-4.777-23.753-.221-.636 1.081-1.087 2.603.2z"/></g></svg>