<svg enable-background="new 0 0 64 64" height="64" viewBox="0 0 64 64" width="64" xmlns="http://www.w3.org/2000/svg"><path d="m10.553 42.8c-1.831-1.927.134 3.637-1.565 1.847-1.582-1.667-.779-4.457-.779-4.457l2.695-.509c0 .001 1.162 4.713-.351 3.119z" fill="#fc6"/><path d="m31.889 43.455c2.797-2.419-.471-4.955-.471-4.955l-2.327 1.553c-.087-.195 1.795 4.269 2.798 3.402z" fill="#fc6"/><path d="m24.673 36.853h-12.411c-1.082 5.025.186 10.995-1.079 23.245-.16 1.543 5.806 1.552 5.752 0-.249-7.146.458-11.612.964-15.968.037-.325 1.101-.325 1.138 0 .507 4.355 1.213 8.821.964 15.968-.054 1.552 5.912 1.543 5.752 0-1.267-12.25.002-18.22-1.08-23.245z" fill="#302c3b"/><path d="m26.822 62h-6.837c-1.208-5.095 6.837-4.1 6.837 0z" fill="#cfd8dd"/><path d="m26.382 23.273c-.644-1.523-5.449-3.329-5.449-3.329h-4.931s-4.959 1.74-5.449 3.329c-2.479 8.033-2.743 9.242-2.464 17.219.028.813 2.944-.259 2.954-.659.188-7.177.137-5.512 1.219-11.098.648 3.709-.228 7.704 0 8.117.802 1.462 11.609 1.462 12.411 0 .228-.413-.648-4.408 0-8.117 2.044 4.753 2.278 5.613 4.497 11.769.135.373 2.659-1.032 2.463-1.817-1.467-5.865-2.896-9.838-5.251-15.414z" fill="#7ab51d"/><path d="m10.112 62h6.837c1.208-5.095-6.837-4.1-6.837 0z" fill="#cfd8dd"/><g fill="#e6b045"><path d="m21.189 19.941c0-.469 0-2.549 0-2.549h-5.447v2.549c0 2.744 5.447 2.744 5.447 0z"/><path d="m11.523 10.217c-2.322-.42-.508 6.063 1.309 4.277.84-.83-.225-4.082-1.309-4.277z"/><path d="m25.408 10.217c-1.084.195-2.149 3.447-1.309 4.277 1.827 1.785 3.633-4.697 1.309-4.277z"/></g><path d="m18.467 2.611c-4.805 0-7.119 3.631-6.826 8.67.059 1.016.684 4.324 1.279 5.516.615 1.211 2.647 3.086 3.897 3.476.791.244 2.51.244 3.299 0 1.25-.391 3.291-2.266 3.896-3.476.596-1.191 1.221-4.5 1.279-5.516.293-5.039-2.021-8.67-6.824-8.67z" fill="#fc6"/><path d="m18.467 16.348c-1.084-.322-2.676.146-2.676.146.605.664 1.055 1.523 2.676 1.523 1.863 0 2.176-.977 2.684-1.523-.001 0-1.6-.469-2.684-.146z" fill="#e6a400"/><path d="m16.191 16.611c1.133.947 3.428.947 4.559 0-1.199.049-3.338.049-4.559 0z" fill="#fff"/><path d="m19.961 14.563c0 .965-2.979.965-2.979 0 0-.225 2.979-.225 2.979 0z" fill="#e6b045"/><path d="m18.467 2.611c-3.301 0-5.303 1.084-6.162.674 0 0-.088.557.244.928 0 0-.352.303-.928-.215-.547 1.777 1.074 2.801 6.846 2.801 5.769 0 4.392-1.394 7.234 1.064-.283-3.035-2.217-5.252-7.234-5.252z" fill="#594640"/><path d="m20.906 5.258c-3.172 1.17-4.334-.938-7.332-1.143 1.426.664 2.119 1.709 3.291 2.449-2.549-.848-4.414-2.313-4.561-3.279 0 0-.42 1.406 1.26 2.461-1.611.145-1.943-1.738-1.943-1.738-.818 1.299-.703 5.516.205 8.641.146-1.113-.195-1.572.322-2.92 1.543-4.022.547-2.334 6.318-2.334 5.769 0 4.725-1.531 6.316 2.334.478 1.152.176 1.807.332 2.92 1.896-7.049-.839-8.631-4.208-7.391z" fill="#453631"/><path d="m23.611 11.672c-.644 1.68-3.262 1.436-3.728.254.361-1.885 3.377-2.041 3.728-.254z" fill="#fff"/><path d="m13.32 11.672c.645 1.68 3.262 1.436 3.73.254-.361-1.885-3.368-2.041-3.73-.254z" fill="#fff"/><path d="m23.875 9.65c-1.104-.537-3.203-.566-3.983-.186-.166.068-.059.586.088.537 1.092-.4 2.85-.41 3.865.039.137.05.196-.311.03-.39z" fill="#c1873c"/><path d="m13.057 9.65c1.103-.537 3.203-.566 3.984-.186.166.068.059.586-.078.537-1.094-.4-2.852-.41-3.877.039-.137.05-.195-.311-.029-.39z" fill="#c1873c"/><path d="m20.545 11.496c0 1.475 2.129 1.475 2.129 0 0-1.367-2.129-1.367-2.129 0z" fill="#613f34"/><path d="m20.75 11.965c0 .85 1.719.85 1.719 0 0-.781-1.719-.781-1.719 0z" fill="#7d5037"/><path d="m21.17 11.516c0 .615.879.615.879 0 0-.567-.879-.567-.879 0z" fill="#1a1626"/><path d="m20.867 11.34c0 .313.44.313.44 0 0-.283-.44-.283-.44 0z" fill="#ab968c"/><path d="m14.258 11.496c0 1.475 2.129 1.475 2.129 0 0-1.367-2.129-1.367-2.129 0z" fill="#613f34"/><path d="m14.473 11.965c0 .84 1.709.84 1.709 0 0-.781-1.709-.781-1.709 0z" fill="#7d5037"/><path d="m14.883 11.516c0 .615.879.615.879 0 0-.567-.879-.567-.879 0z" fill="#1a1626"/><path d="m14.58 11.34c0 .313.449.313.449 0 0-.283-.449-.283-.449 0z" fill="#ab968c"/><path d="m23.611 11.662c0-1.807-3.728-1.807-3.728.283.525-1.709 3.191-1.709 3.728-.283z" fill="#e6b045"/><path d="m13.32 11.662c0-1.807 3.73-1.807 3.73.283-.527-1.709-3.193-1.709-3.73-.283z" fill="#e6b045"/><path d="m53.447 42.8c1.831-1.927-.134 3.637 1.565 1.847 1.581-1.666.778-4.456.778-4.456l-2.695-.509c.001 0-1.161 4.712.352 3.118z" fill="#fc6"/><path d="m32.111 43.455c-2.797-2.419.471-4.955.471-4.955l2.327 1.553c.087-.195-1.795 4.269-2.798 3.402z" fill="#fc6"/><path d="m39.327 36.853h12.411c1.082 5.025-.187 10.995 1.079 23.245.16 1.543-5.806 1.552-5.752 0 .249-7.146-.458-11.612-.964-15.968-.037-.325-1.101-.325-1.138 0-.507 4.355-1.213 8.821-.964 15.968.054 1.552-5.912 1.543-5.752 0 1.267-12.25-.002-18.22 1.08-23.245z" fill="#302c3b"/><path d="m37.178 62h6.837c1.208-5.095-6.837-4.1-6.837 0z" fill="#cfd8dd"/><path d="m37.618 23.273c.644-1.523 5.449-3.329 5.449-3.329h4.931s4.959 1.74 5.449 3.329c2.479 8.033 2.743 9.242 2.464 17.219-.028.813-2.944-.259-2.954-.659-.188-7.177-.137-5.512-1.219-11.098-.648 3.709.228 7.704 0 8.117-.802 1.462-11.609 1.462-12.411 0-.227-.413.648-4.408 0-8.117-2.044 4.753-2.278 5.613-4.497 11.769-.135.373-2.659-1.032-2.463-1.817 1.467-5.865 2.896-9.838 5.251-15.414z" fill="#7ab51d"/><path d="m53.888 62h-6.837c-1.208-5.095 6.837-4.1 6.837 0z" fill="#cfd8dd"/><path d="m48.256 19.941c0-.469 0-2.549 0-2.549h-5.447v2.549c0 2.744 5.447 2.744 5.447 0z" fill="#e6b045"/><path d="m38.59 10.217c-2.322-.42-.508 6.063 1.309 4.277.839-.83-.225-4.082-1.309-4.277z" fill="#e6b045"/><path d="m52.475 10.217c-1.084.195-2.149 3.447-1.309 4.277 1.826 1.785 3.633-4.697 1.309-4.277z" fill="#e6b045"/><path d="m45.533 2.611c-4.805 0-7.119 3.631-6.826 8.67.059 1.016.684 4.324 1.279 5.516.615 1.211 2.646 3.086 3.896 3.476.791.244 2.51.244 3.299 0 1.25-.391 3.291-2.266 3.897-3.476.596-1.191 1.221-4.5 1.279-5.516.293-5.039-2.021-8.67-6.824-8.67z" fill="#fc6"/><path d="m45.533 16.348c-1.084-.322-2.676.146-2.676.146.606.664 1.055 1.523 2.676 1.523 1.863 0 2.176-.977 2.684-1.523 0 0-1.6-.469-2.684-.146z" fill="#e6a400"/><path d="m43.258 16.611c1.133.947 3.428.947 4.559 0-1.2.049-3.338.049-4.559 0z" fill="#fff"/><path d="m47.027 14.563c0 .965-2.979.965-2.979 0 .001-.225 2.979-.225 2.979 0z" fill="#e6b045"/><path d="m45.533 2.611c-3.301 0-5.303 1.084-6.162.674 0 0-.088.557.244.928 0 0-.352.303-.928-.215-.547 1.777 1.074 2.801 6.846 2.801 5.77 0 4.393-1.394 7.234 1.064-.283-3.035-2.216-5.252-7.234-5.252z" fill="#594640"/><path d="m47.973 5.258c-3.172 1.17-4.334-.938-7.332-1.143 1.426.664 2.119 1.709 3.291 2.449-2.549-.848-4.414-2.313-4.56-3.279 0 0-.42 1.406 1.26 2.461-1.611.145-1.943-1.738-1.943-1.738-.818 1.299-.703 5.516.205 8.641.146-1.113-.195-1.572.322-2.92 1.543-4.022.547-2.334 6.318-2.334 5.77 0 4.725-1.531 6.316 2.334.479 1.152.176 1.807.332 2.92 1.894-7.049-.84-8.631-4.209-7.391z" fill="#453631"/><path d="m50.678 11.672c-.645 1.68-3.262 1.436-3.729.254.362-1.885 3.377-2.041 3.729-.254z" fill="#fff"/><path d="m40.387 11.672c.645 1.68 3.262 1.436 3.73.254-.361-1.885-3.369-2.041-3.73-.254z" fill="#fff"/><path d="m50.941 9.65c-1.103-.537-3.203-.566-3.982-.186-.166.068-.058.586.088.537 1.092-.4 2.85-.41 3.865.039.137.05.195-.311.029-.39z" fill="#c1873c"/><path d="m40.123 9.65c1.104-.537 3.203-.566 3.984-.186.166.068.059.586-.078.537-1.094-.4-2.852-.41-3.877.039-.136.05-.195-.311-.029-.39z" fill="#c1873c"/><path d="m47.611 11.496c0 1.475 2.129 1.475 2.129 0 0-1.367-2.129-1.367-2.129 0z" fill="#613f34"/><path d="m47.816 11.965c0 .85 1.719.85 1.719 0 0-.781-1.719-.781-1.719 0z" fill="#7d5037"/><path d="m48.236 11.516c0 .615.879.615.879 0 0-.567-.879-.567-.879 0z" fill="#1a1626"/><path d="m47.934 11.34c0 .313.439.313.439 0 0-.283-.439-.283-.439 0z" fill="#ab968c"/><path d="m41.324 11.496c0 1.475 2.129 1.475 2.129 0 0-1.367-2.129-1.367-2.129 0z" fill="#613f34"/><path d="m41.539 11.965c0 .84 1.709.84 1.709 0 0-.781-1.709-.781-1.709 0z" fill="#7d5037"/><path d="m41.949 11.516c0 .615.879.615.879 0 0-.567-.879-.567-.879 0z" fill="#1a1626"/><path d="m41.646 11.34c0 .313.449.313.449 0 .001-.283-.449-.283-.449 0z" fill="#ab968c"/><path d="m50.678 11.662c0-1.807-3.729-1.807-3.729.283.526-1.709 3.192-1.709 3.729-.283z" fill="#e6b045"/><path d="m40.387 11.662c0-1.807 3.73-1.807 3.73.283-.527-1.709-3.193-1.709-3.73-.283z" fill="#e6b045"/></svg>