<svg enable-background="new 0 0 64 64" height="64" viewBox="0 0 64 64" width="64" xmlns="http://www.w3.org/2000/svg"><path d="m6.789 53.711c2.699-1.223 15.135-4.451 15.135-4.451h14.24s12.426 3.223 15.111 4.449c3.905 1.779 4.725 8.291 4.725 8.291h-54s.871-6.518 4.789-8.289" fill="#e6ebef"/><path d="m19.971 51.082 9.029 3.273 9.027-3.273v-7.082h-18.056z" fill="#e6b045"/><path d="m8.457 62c.576-1.643-.102-4.139-.818-5.512-.666-1.281-.416 4.608.818 5.512" fill="#cfd8dd"/><path d="m39.457 55.453c-1.209-.437-10.457-1.098-10.457-1.098s8.156 1.021 9.229 1.508c1.074.487 1.228 6.137 1.228 6.137h1.227s-.018-6.107-1.227-6.547z" fill="#cfd8dd"/><g fill="#068ac7"><path d="m27.535 51.094c-8.582-1.576-7.328-4.508-7.328-4.508s-1.467.125-1.467 2.512c0 5.258 10.26 5.258 10.26 5.258s-1.191-3.213-1.465-3.262"/><path d="m37.795 46.586s1.248 2.932-7.328 4.508c-.278.049-1.467 3.261-1.467 3.261s10.26 0 10.26-5.258c0-2.386-1.465-2.511-1.465-2.511"/><path d="m22.52 57.844c.893 0 1.621.67 1.621 1.5 0 .828-.729 1.5-1.621 1.5-.896 0-1.619-.672-1.619-1.5-.001-.83.722-1.5 1.619-1.5"/><path d="m35.48 57.844c.895 0 1.619.67 1.619 1.5 0 .828-.725 1.5-1.619 1.5-.896 0-1.619-.672-1.619-1.5 0-.83.723-1.5 1.619-1.5"/></g><path d="m11.902 24.237c-5.719-1.031-1.252 14.958 3.225 10.547 2.072-2.045-.551-10.064-3.225-10.547z" fill="#e6b045"/><path d="m46.102 24.237c-2.674.483-5.299 8.502-3.223 10.547 4.476 4.41 8.937-11.578 3.223-10.547z" fill="#e6b045"/><path d="m29.002 5.489c-11.824 0-17.521 8.945-16.807 21.384.143 2.503 1.693 10.666 3.158 13.593 1.498 2.994 6.512 7.613 9.584 8.57 1.939.604 6.188.604 8.127 0 3.072-.957 8.086-5.576 9.586-8.57 1.465-2.928 3.016-11.09 3.158-13.593.715-12.439-4.982-21.384-16.806-21.384z" fill="#fc6"/><path d="m29.002 39.351c-2.66-.783-6.6.369-6.6.369 1.5 1.635 2.6 3.756 6.6 3.756 4.582 0 5.359-2.406 6.6-3.756 0 0-3.944-1.157-6.6-.369z" fill="#e6a400"/><path d="m23.408 39.997c2.787 2.34 8.418 2.354 11.221 0-2.971.127-8.229.129-11.221 0z" fill="#fff"/><path d="m32.668 34.952c0 2.387-7.332 2.387-7.332 0 0-.547 7.332-.547 7.332 0z" fill="#e6b045"/><path d="m44.578 20.076c1.146 5.819.414 7.426.785 10.163.727-2.707 1.262-6.401 1.262-6.401z" fill="#453631"/><path d="m13.428 20.076-2.053 3.762s.621 4.159 1.27 6.401c.369-2.739-.465-3.881.783-10.163z" fill="#453631"/><path d="m41.66 27.834c-1.58 4.135-8.008 3.53-9.186.635.895-4.649 8.319-5.047 9.186-.635z" fill="#fff"/><path d="m16.342 27.834c1.58 4.135 8.01 3.53 9.186.635-.895-4.651-8.317-5.049-9.186-.635z" fill="#fff"/><path d="m42.316 22.856c-2.705-1.342-7.879-1.407-9.807-.472-.412.182-.141 1.454.207 1.332 2.688-.995 7.02-1.019 9.535.086.335.142.476-.758.065-.946z" fill="#c1873c"/><path d="m15.688 22.856c2.703-1.342 7.877-1.407 9.807-.472.412.182.141 1.454-.207 1.332-2.691-.995-7.02-1.019-9.537.086-.335.142-.474-.758-.063-.946z" fill="#c1873c"/><path d="m34.115 27.394c0 3.628 5.25 3.628 5.25 0 0-3.369-5.25-3.369-5.25 0z" fill="#613f34"/><path d="m34.635 28.555c0 2.081 4.211 2.081 4.211 0 0-1.931-4.211-1.931-4.211 0z" fill="#7d5037"/><path d="m35.65 27.451c0 1.507 2.18 1.507 2.18 0 0-1.398-2.18-1.398-2.18 0z" fill="#1a1626"/><path d="m34.906 27.011c0 .761 1.102.761 1.102 0 0-.706-1.102-.706-1.102 0z" fill="#ab968c"/><path d="m18.639 27.393c0 3.629 5.25 3.629 5.25 0 0-3.369-5.25-3.369-5.25 0z" fill="#613f34"/><path d="m19.158 28.554c0 2.081 4.211 2.081 4.211 0 0-1.931-4.211-1.931-4.211 0z" fill="#7d5037"/><path d="m20.174 27.451c0 1.506 2.18 1.506 2.18 0 0-1.399-2.18-1.399-2.18 0z" fill="#1a1626"/><path d="m19.43 27.01c0 .761 1.1.761 1.1 0-.001-.706-1.1-.706-1.1 0z" fill="#ab968c"/><path d="m41.66 27.803c0-4.44-9.186-4.44-9.186.703 1.313-4.219 7.874-4.219 9.186-.703z" fill="#e6b045"/><path d="m16.342 27.803c0-4.44 9.186-4.44 9.186.702-1.311-4.221-7.874-4.221-9.186-.702z" fill="#e6b045"/><path d="m29 10.545c-11.863 0-17.625 6.646-17.625 6.646v6.646s5.432-2.849 17.625-2.849c12.191 0 17.625 2.849 17.625 2.849v-6.646s-5.762-6.646-17.625-6.646" fill="#e6ebef"/><path d="m45.533 4.661c-3.73-1.775-5.955-2.661-8.754-2.661-1.287 0-4.561 1.38-7.781 1.33-3.219.05-6.49-1.33-7.777-1.33-2.799 0-5.027.886-8.756 2.661-3.727 1.775-6.328 3.23-6.328 6.656 0 4.854 5.238 6.653 5.238 6.653s17.744-7.985 35.248 0c0 0 5.242-1.799 5.242-6.653 0-3.425-2.603-4.881-6.332-6.656" fill="#e6ebef"/><path d="m41.918 13.232c-3.518 3.881-2.443-7.397-4.891-7.358-2.516.041-3.486 7.279-8.078 7.175-4.764-.109-4.322-8.143-7.564-7.733-3.143.396-2.848 12.805-7.502 6.018-7.188-10.484-.608 12.504-7.725.528.318 5.33 5.217 6.108 5.217 6.108 3.482-1.78 20.24-7.062 35.248 0 0 0 4.459-.612 5.152-5.597-8.273 9.366 2.12-12.353-9.857.859z" fill="#cfd8dd"/><path d="m21.379 7.322s1.119 7.03-3.096 7.868-6.789-4.623-6.789-4.623c1.846 6.572-.119 7.403-.119 7.403 8.006-3.66 17.625-3.543 17.625-3.543-6.133 0-7.621-7.105-7.621-7.105" fill="#99a8ae"/><path d="m46.506 10.567s-2.574 5.463-6.787 4.625c-4.217-.838-3.096-7.87-3.096-7.87s-1.49 7.104-7.623 7.104c0 0 9.619-.117 17.625 3.543 0 .001-1.967-.829-.119-7.402" fill="#99a8ae"/><path d="m47.787 55.263c1.485-1.432-.711-3.528-1.322-2.313-.818 1.629-1.066 3.512-2.75 5.141-.857.828-1.121 2.367-1.088 3.908l1.867.001s2.692-6.161 3.293-6.737z" fill="#e6b045"/><path d="m53.365 55.573-5.767-2.097-3.104 8.524h2.851z" fill="#1a1626"/><path d="m47.732 53.524 8.938 3.252c3.441-9.405 7.727-22.303 3.703-30.021-4.078 2.623-7.457 12.601-12.641 26.769z" fill="#cfd8dd"/><path d="m54.822 56.104 1.848.672c3.441-9.405 7.727-22.303 3.703-30.021-.432.277-.855.638-1.275 1.077 2.804 7.741-1.067 19.481-4.276 28.272z" fill="#bec3cf"/><path d="m49.441 48.837 11.375-5.303c.52-2.241.904-4.472 1.08-6.618l-9.711 4.527c-.865 2.261-1.773 4.736-2.744 7.394z" fill="#fff" opacity=".1"/><path d="m52.186 41.443 9.711-4.527c.08-.983.113-1.946.096-2.886l-8.432 3.932c-.45 1.098-.905 2.258-1.375 3.481z" fill="#fff" opacity=".2"/><path d="m58.375 29.926c-2.471 2.696-4.57 8.12-10.281 23.729l.439.159c4.432-12.11 7.375-20.585 9.842-23.888z" fill="#e6ebef"/><path d="m53.005 57.758c1.256 1.235.076 2.229-.45 2.427.643 1.306-.277 1.66-.726 1.815h-4.484c-2.691-1.357-1.023-2.321.738-2.212-4.21-.781-1.854-2.34 1.616-1.891-5.749-1.13 5.871-5.154 3.306-.139z" fill="#fc6"/></svg>