<svg enable-background="new 0 0 64 64" height="64" viewBox="0 0 64 64" width="64" xmlns="http://www.w3.org/2000/svg"><path d="m19.076 13.402c-8.713 37.398-7.915 36.597 10.425 36.597-10.149-7.102 9.294-37.105-10.425-36.597z" fill="#3b2c29"/><path d="m15.933 12.823c-6.358 28.412-.873 35.709 3.998 37.176h5.582c-13.06-9.203 7.356-37.735-9.58-37.176z" fill="#453631"/><path d="m44.71 13.401c8.712 37.397 7.914 36.596-10.426 36.596 9.333-5.699-9.294-37.105 10.426-36.596z" fill="#3b2c29"/><path d="m47.851 12.822c9.295 25.849-.021 35.978-3.998 37.175h-5.58c13.061-8.45-7.356-37.735 9.578-37.175z" fill="#453631"/><path d="m49.397 26.712c2.691 6.572.028 20.058-5.545 23.287 6.177 0 9.939-8.551 11.773-20.311 2.293-14.694-11.023-14.702-6.228-2.976z" fill="#594640"/><path d="m8.849 32.415c2.25 10.613 5.02 17.584 11.082 17.584-6.759-7-5.964-21.761-4.043-25.434 9.793-5.827-10.845-10.103-7.039 7.85z" fill="#594640"/><path d="m12.256 51.71c2.399-1.518 12.361-5.525 12.361-5.525h14.84s9.953 3.998 12.34 5.523c3.472 2.207 4.203 10.292 4.203 10.292h-48s.773-8.093 4.256-10.29" fill="#e6ebef"/><path d="m12.845 62c.558-2.036-.1-5.136-.795-6.843-.647-1.589-.404 5.723.795 6.843" fill="#cfd7dc"/><path d="m51.154 62c-.558-2.036.098-5.136.794-6.843.647-1.589.403 5.723-.794 6.843" fill="#cfd7dc"/><path d="m45.67 55.553c-.846-5.353-3.423-8.813-7.662-10.287-6.873-2.386-18.57 1.11-18.817 4.431l-1.133-.165c0-4.151 13.053-7.649 20.274-5.143 4.598 1.597 7.386 5.306 8.288 11.022z" fill="#302c3b"/><path d="m46.145 54.55c2.118 0 3.84 1.67 3.84 3.727s-1.722 3.723-3.84 3.723c-2.12 0-3.84-1.667-3.84-3.724s1.719-3.726 3.84-3.726" fill="#cfd8dd"/><path d="m46.145 55.481c1.592 0 2.878 1.25 2.878 2.795 0 1.543-1.286 2.792-2.878 2.792s-2.882-1.249-2.882-2.792c0-1.545 1.29-2.795 2.882-2.795" fill="#4e5e67"/><path d="m46.145 55.946c1.326 0 2.398 1.043 2.398 2.33s-1.072 2.326-2.398 2.326c-1.327 0-2.401-1.039-2.401-2.326s1.073-2.33 2.401-2.33" fill="#bec3cf"/><path d="m25.033 42.444h13.932v9.811h-13.932z" fill="#e6b045"/><path d="m38.239 49.12c-1.914.981-4.032 1.544-6.24 1.544-2.205 0-4.325-.563-6.239-1.547l6.24 12.883z" fill="#018bc9"/><path d="m23.133 46.649c-1.891 5.682-1.01 9.311-1.01 9.311 1.592-1.426 4.72-3.001 4.72-3.002-1.133 1.59-2.03 4.204-2.03 4.204 3.395.538 7.187 4.838 7.187 4.838s-5.277-15.119-8.867-15.351z" fill="#bec3cf"/><path d="m25.494 43.714s-.933-.383-1.329.334c-2.339 4.268-1.56 10.302-1.56 10.302 1.592-1.425 4.771-1.847 4.772-1.849-1.134 1.591-1.617 3.383-1.617 3.383 2.398 1.124 6.24 6.116 6.24 6.116s-3.208-9.231-6.506-18.286z" fill="#e6ebef"/><path d="m40.864 46.649c1.891 5.682 1.012 9.311 1.012 9.311-1.592-1.426-4.72-3.001-4.722-3.002 1.134 1.59 2.032 4.204 2.032 4.204-3.395.538-7.186 4.838-7.186 4.838s5.274-15.119 8.864-15.351z" fill="#bec3cf"/><path d="m38.506 43.714s.933-.383 1.329.334c2.339 4.268 1.56 10.302 1.56 10.302-1.592-1.425-4.772-1.847-4.772-1.849 1.132 1.591 1.617 3.383 1.617 3.383-2.4 1.124-6.24 6.116-6.24 6.116s3.207-9.231 6.506-18.286z" fill="#e6ebef"/><path d="m23.683 54.228h-1.133c-.002-2.123-1.781-3.85-3.972-3.85-2.188-.002-3.97 1.727-3.972 3.85h-1.132c0-2.728 2.289-4.949 5.104-4.951 2.816-.001 5.105 2.223 5.105 4.951" fill="#302c3b"/><path d="m13.475 54.228-.002 5.838c.002 1.057.55 1.828 1.702 1.909.731.052.725-1.05-.002-1.101-.758-.053-.564-.939-.564-1.457l-.002-5.189c.002-.709-1.134-.709-1.132 0" fill="#99a8ae"/><path d="m22.55 54.228v5.031c-.002.528.227 1.559-.567 1.615-.726.051-.73 1.152 0 1.101 1.084-.076 1.7-.794 1.7-1.821v-5.926c0-.709-1.133-.709-1.133 0" fill="#99a8ae"/><path d="m15.941 61.978-.829-.001c-.727 0-.726-1.212 0-1.211l.829.001c.727-.002.727 1.21 0 1.211z" fill="#302c3b"/><path d="m22.045 61.977h-.826c-.73 0-.73-1.211-.002-1.211l.828.001c.728-.001.728 1.21 0 1.21z" fill="#302c3b"/><path d="m32 4.415c-11.609 0-17.201 9.455-16.502 21.611.143 2.444.822 5.969 1.661 8.989 1.741 6.278 10.929 12.6 14.841 12.6s13.1-6.321 14.841-12.6c.839-3.02 1.519-6.545 1.663-8.989.697-12.156-4.893-21.611-16.504-21.611z" fill="#fc6"/><path d="m32 37.587c-2.822-1.24-2.844-.051-7.2.242 1.636 1.855 2.839 4.244 7.198 4.244 5.003 0 5.849-2.711 7.204-4.244-4.359-.293-4.379-1.482-7.202-.242z" fill="#d47706"/><path d="m26.108 38.292c2.844 2.959 8.977 2.92 11.785.001-4.378.47-7.405.47-11.785-.001z" fill="#fff"/><path d="m44.795 21.61c-2.616-1.559-7.308-1.75-9.165-.688-.394.214-.287 1.341.053 1.2 2.648-1.103 6.682-1.158 9.168.117.333.17.339-.403-.056-.629z" fill="#594640"/><path d="m19.207 21.61c2.615-1.559 7.307-1.75 9.166-.688.394.214.289 1.341-.054 1.2-2.648-1.103-6.68-1.159-9.167.117-.334.17-.341-.403.055-.629z" fill="#594640"/><path d="m35.601 33.345c0 2.342-7.201 2.342-7.201 0 0-.537 7.201-.537 7.201 0z" fill="#e6b045"/><path d="m44.542 26.357c-1.552 4.06-7.861 3.464-9.017.624.876-4.566 8.163-4.957 9.017-.624z" fill="#fff"/><path d="m37.106 25.916c0 3.596 5.2 3.596 5.2 0 .001-3.338-5.2-3.338-5.2 0z" fill="#613f34"/><path d="m37.62 27.065c0 2.063 4.172 2.063 4.172 0 0-1.913-4.172-1.913-4.172 0z" fill="#7d5037"/><path d="m38.627 25.972c0 1.492 2.159 1.492 2.159 0 0-1.385-2.159-1.385-2.159 0z" fill="#1a1626"/><path d="m37.89 25.536c0 .754 1.09.754 1.09 0-.001-.7-1.09-.7-1.09 0z" fill="#ab968c"/><path d="m44.542 26.326c0-4.361-9.017-4.361-9.017.691 1.287-4.146 7.73-4.146 9.017-.691z" fill="#45332c"/><path d="m19.459 26.357c1.552 4.06 7.862 3.466 9.019.624-.876-4.566-8.164-4.957-9.019-.624z" fill="#fff"/><path d="m21.695 25.921c0 3.596 5.2 3.596 5.2 0 0-3.338-5.2-3.338-5.2 0z" fill="#613f34"/><path d="m22.208 27.071c0 2.062 4.172 2.062 4.172 0 0-1.913-4.172-1.913-4.172 0z" fill="#7d5037"/><path d="m23.215 25.978c0 1.492 2.159 1.492 2.159 0 .001-1.386-2.159-1.386-2.159 0z" fill="#1a1626"/><path d="m22.478 25.542c0 .754 1.09.754 1.09 0 0-.7-1.09-.7-1.09 0z" fill="#ab968c"/><path d="m19.459 26.326c0-4.361 9.019-4.361 9.019.689-1.287-4.145-7.73-4.145-9.019-.689z" fill="#45332c"/><path d="m44.973 6.105c-8.14 8.341-.371 8.88 4.425 20.607 2.691 6.572 4.395 14.736 6.229 2.976 2.291-14.694-6.518-24.81-10.654-23.583z" fill="#594640"/><path d="m24.99 2.911c-10.323 2.429-19.947 11.551-16.141 29.504 2.25 10.613 5.118-4.177 7.039-7.85 9.793-5.827 26.54-10.241 29.084-18.46 1.293-1.897-9.652-5.9-19.982-3.194z" fill="#594640"/><g fill="#453631"><path d="m17.081 15.988c4.365-.885 25.25-1.302 27.892-9.883-4.936 3.934-10.048 5.005-27.892 9.883z"/><path d="m9.553 29.637c7.324-9.774 31.316-8.695 35.419-23.531-7.965 12.451-33.417 14.135-35.419 23.531z"/><path d="m42.559 8.139c-1.89 2.977 4.678-1.398 11.757 17.785-1.746-11.215-7.727-18.937-11.757-17.785z"/></g></svg>