<svg enable-background="new 0 0 64 64" height="64" viewBox="0 0 64 64" width="64" xmlns="http://www.w3.org/2000/svg"><path d="m23.92 9.117c-5.444 23.344-4.943 22.848 6.519 22.848-6.342-4.436 5.806-23.164-6.519-22.848z" fill="#3b2c29"/><path d="m21.958 8.756c-3.975 17.736-.546 22.291 2.498 23.209h3.49c-8.164-5.748 4.596-23.557-5.988-23.209z" fill="#453631"/><path d="m39.941 9.115c5.447 23.346 4.947 22.846-6.514 22.846 5.832-3.557-5.809-23.162 6.514-22.846z" fill="#3b2c29"/><path d="m41.908 8.756c5.806 16.135-.015 22.457-2.5 23.205h-3.49c8.163-5.275-4.595-23.555 5.99-23.205z" fill="#453631"/><path d="m42.873 17.428c1.683 4.102.018 12.52-3.465 14.537 3.859 0 6.21-5.34 7.357-12.682 1.431-9.174-6.891-9.178-3.892-1.855z" fill="#594640"/><path d="m17.53 20.986c1.406 6.623 3.136 10.979 6.927 10.979-4.223-4.371-3.727-13.586-2.527-15.879 6.12-3.639-6.777-6.307-4.4 4.9z" fill="#594640"/><path d="m20.522 32.738c7.696-5.117 15.26-5.117 22.957 0 2.442 1.623 2.947 7.74 3.255 13.037l-4.339 16.225h-20.789l-4.339-16.225c.308-5.296.813-11.414 3.255-13.037z" fill="#8e3ed6"/><path d="m27.792 29.674c0-.723 0-3.932 0-3.932h8.417v3.932c0 4.23-8.417 4.23-8.417 0z" fill="#e6b045"/><path d="m31.999 3.506c-7.256 0-10.751 5.902-10.313 13.492.09 1.525.516 3.725 1.037 5.611 1.091 3.918 6.833 7.865 9.276 7.865 2.446 0 8.187-3.947 9.278-7.865.523-1.887.946-4.086 1.039-5.611.434-7.59-3.061-13.492-10.317-13.492z" fill="#fc6"/><path d="m32 24.213c-1.765-.773-1.776-.029-4.501.154 1.023 1.158 1.775 2.648 4.499 2.648 3.127 0 3.655-1.693 4.501-2.648-2.723-.183-2.734-.928-4.499-.154z" fill="#d47706"/><path d="m28.32 24.654c1.776 1.848 5.608 1.824 7.361 0-2.733.295-4.628.295-7.361 0z" fill="#fff"/><path d="m39.994 14.24c-1.635-.973-4.567-1.092-5.726-.428-.248.133-.181.838.033.748 1.653-.688 4.175-.723 5.729.074.209.106.213-.251-.036-.394z" fill="#594640"/><path d="m24.003 14.24c1.633-.973 4.568-1.092 5.729-.428.248.133.181.838-.034.748-1.654-.688-4.175-.723-5.729.074-.208.106-.211-.251.034-.394z" fill="#594640"/><path d="m34.25 21.566c0 1.461-4.501 1.461-4.501 0 0-.336 4.501-.336 4.501 0z" fill="#e6b045"/><path d="m39.838 17.205c-.971 2.533-4.913 2.162-5.636.389.547-2.852 5.104-3.096 5.636-.389z" fill="#fff"/><path d="m35.192 16.93c0 2.244 3.248 2.244 3.248 0 0-2.086-3.248-2.086-3.248 0z" fill="#613f34"/><path d="m35.512 17.648c0 1.283 2.608 1.283 2.608 0 0-1.197-2.608-1.197-2.608 0z" fill="#7d5037"/><path d="m36.141 16.963c0 .934 1.35.934 1.35 0-.001-.865-1.35-.865-1.35 0z" fill="#1a1626"/><path d="m35.679 16.691c0 .471.684.471.684 0-.001-.435-.684-.435-.684 0z" fill="#ab968c"/><path d="m39.838 17.186c0-2.723-5.636-2.723-5.636.432.805-2.589 4.832-2.589 5.636-.432z" fill="#45332c"/><path d="m24.163 17.205c.969 2.533 4.912 2.164 5.636.389-.546-2.852-5.104-3.096-5.636-.389z" fill="#fff"/><path d="m25.56 16.932c0 2.246 3.248 2.246 3.248 0 0-2.082-3.248-2.082-3.248 0z" fill="#613f34"/><path d="m25.88 17.65c0 1.285 2.607 1.285 2.607 0 .001-1.193-2.607-1.193-2.607 0z" fill="#7d5037"/><path d="m26.509 16.967c0 .932 1.35.932 1.35 0 0-.865-1.35-.865-1.35 0z" fill="#1a1626"/><path d="m26.047 16.695c0 .471.682.471.682 0 0-.435-.682-.435-.682 0z" fill="#ab968c"/><path d="m24.163 17.186c0-2.723 5.636-2.723 5.636.43-.805-2.589-4.833-2.589-5.636-.43z" fill="#45332c"/><path d="m40.107 4.563c-5.089 5.207-.233 5.543 2.766 12.865 1.683 4.102 2.745 9.197 3.893 1.855 1.43-9.174-4.075-15.488-6.659-14.72z" fill="#594640"/><path d="m27.618 2.568c-6.451 1.516-12.465 7.211-10.088 18.418 1.406 6.623 3.2-2.607 4.399-4.9 6.121-3.639 16.586-6.393 18.178-11.523.807-1.184-6.034-3.684-12.489-1.995z" fill="#594640"/><g fill="#453631"><path d="m22.677 10.732c2.728-.553 15.779-.814 17.43-6.17-3.085 2.456-6.279 3.126-17.43 6.17z"/><path d="m17.97 19.252c4.577-6.104 19.573-5.43 22.137-14.689-4.978 7.771-20.886 8.824-22.137 14.689z"/><path d="m38.598 5.832c-1.182 1.859 2.923-.873 7.349 11.104-1.092-7.002-4.828-11.823-7.349-11.104z"/></g><path d="m51.671 55.423c-.563-3.247-4.918-6.438-6.238-4.148-2.352 4.081 6.56 6.011 6.238 4.148z" fill="#e6b045"/><path d="m12.328 55.423c.563-3.247 4.918-6.438 6.238-4.148 2.351 4.081-6.561 6.011-6.238 4.148z" fill="#e6b045"/><path d="m50.288 55.188c-4.816-3.131-10.578-3.1-15.402.002-1.657 1.062-2.205 6.81-2.205 6.81h19.792c.001 0-.546-5.752-2.185-6.812z" fill="#4abdff"/><path d="m45.501 53.426c0-.537 0-2.924 0-2.924h-5.85v2.924c0 2.367 5.85 2.367 5.85 0z" fill="#e6b045"/><path d="m42.575 31.984c-10.515 0-9.502 8.422-9.502 12.357h19.006c0-3.935 1.014-12.357-9.504-12.357z" fill="#594640"/><path d="m34.013 42.76c-3.339-.51-1.162 7.4 1.451 5.219 1.207-1.01.109-4.981-1.451-5.219z" fill="#e6b045"/><path d="m51.14 42.76c-1.563.238-2.662 4.209-1.451 5.219 2.613 2.181 4.789-5.729 1.451-5.219z" fill="#e6b045"/><path d="m51.03 42.592c0-5.613-3.32-4.363-8.455-4.363-5.133 0-8.453-1.25-8.453 4.363 0 0 .016 2.141.564 4.951.896 4.602 4.617 6.406 7.889 6.406s6.996-1.805 7.889-6.406c.547-2.813.566-4.951.566-4.951z" fill="#fc6"/><path d="m42.401 36.119c-1.535 2.734-7.289 4.447-9.268 4.268 1.794-1.807 2.587-6.465 9.268-4.268z" fill="#594640"/><path d="m33.134 40.387c2.52-.656 5.791-1.996 9.268-4.268-1.536 2.735-6.589 4.895-9.268 4.268z" fill="#453631"/><path d="m50.163 35.973c-2.174 3.258-10.313 5.295-13.107 5.082 2.531-2.155 3.656-7.7 13.107-5.082z" fill="#594640"/><path d="m37.056 41.055c6.686-1.857 13.107-5.082 13.107-5.082-2.174 3.257-8.23 5.554-13.107 5.082z" fill="#453631"/><path d="m50.478 35.225c2.605 4.238-4.176 5.977-6.979 5.805 2.514-1.655 4.199-5.938 6.979-5.805z" fill="#594640"/><path d="m43.499 41.029c3.369-1.543 8.506-1.859 6.979-5.805 2.605 4.239-4.006 6.188-6.979 5.805z" fill="#453631"/><path d="m48.812 44.334c-.777 2.035-3.943 1.738-4.523.314.439-2.289 4.097-2.484 4.523-.314z" fill="#fff"/><path d="m45.095 44.117c0 1.787 2.588 1.787 2.588 0 0-1.658-2.588-1.658-2.588 0z" fill="#613f34"/><path d="m45.351 44.689c0 1.025 2.076 1.025 2.076 0 0-.949-2.076-.949-2.076 0z" fill="#7d5037"/><path d="m45.851 44.148c0 .738 1.074.738 1.074 0 0-.689-1.074-.689-1.074 0z" fill="#1a1626"/><path d="m45.485 43.932c0 .373.543.373.543 0 0-.348-.543-.348-.543 0z" fill="#ab968c"/><path d="m48.812 44.318c0-2.184-4.523-2.184-4.523.348.646-2.078 3.878-2.078 4.523-.348z" fill="#e6b045"/><path d="m36.341 44.334c.775 2.035 3.943 1.738 4.523.314-.441-2.289-4.093-2.484-4.523-.314z" fill="#fff"/><path d="m37.472 44.117c0 1.787 2.586 1.787 2.586 0 0-1.658-2.586-1.658-2.586 0z" fill="#613f34"/><path d="m37.728 44.688c0 1.027 2.074 1.027 2.074 0 0-.948-2.074-.948-2.074 0z" fill="#7d5037"/><path d="m38.228 44.146c0 .74 1.074.74 1.074 0 0-.689-1.074-.689-1.074 0z" fill="#1a1626"/><path d="m37.86 43.93c0 .375.541.375.541 0 0-.348-.541-.348-.541 0z" fill="#ab968c"/><path d="m36.341 44.318c0-2.184 4.523-2.184 4.523.346-.646-2.076-3.879-2.076-4.523-.346z" fill="#e6b045"/><path d="m49.229 42.104c-1.352-.668-3.938-.701-4.902-.234-.203.09-.068.727.105.664 1.344-.496 3.508-.51 4.766.043.166.071.239-.378.031-.473z" fill="#c1873c"/><path d="m35.921 42.104c1.354-.668 3.939-.701 4.904-.234.203.09.066.727-.104.664-1.346-.496-3.51-.51-4.768.043-.165.071-.237-.378-.032-.473z" fill="#c1873c"/><path d="m42.575 49.77c-1.328-.391-3.299.186-3.299.186.754.816 1.301 1.873 3.299 1.873 2.291 0 2.68-1.201 3.299-1.873 0-.001-1.971-.579-3.299-.186z" fill="#e6a400"/><path d="m39.782 50.094c1.393 1.166 4.207 1.174 5.605 0-1.484.062-4.109.064-5.605 0z" fill="#fff"/><path d="m44.407 48.021c0 1.191-3.662 1.191-3.662 0 0-.273 3.662-.273 3.662 0z" fill="#e6b045"/><path d="m29.136 55.188c-4.816-3.131-10.578-3.1-15.402.002-1.656 1.062-2.205 6.81-2.205 6.81h19.793s-.547-5.752-2.186-6.812z" fill="#4abdff"/><path d="m24.349 53.426c0-.537 0-2.924 0-2.924h-5.849v2.924c0 2.367 5.849 2.367 5.849 0z" fill="#e6b045"/><path d="m21.423 31.984c-10.516 0-9.502 8.422-9.502 12.357h19.006c0-3.935 1.014-12.357-9.504-12.357z" fill="#594640"/><path d="m12.861 42.76c-3.34-.51-1.162 7.4 1.451 5.219 1.207-1.01.109-4.981-1.451-5.219z" fill="#e6b045"/><path d="m29.988 42.76c-1.563.238-2.662 4.209-1.451 5.219 2.613 2.181 4.788-5.729 1.451-5.219z" fill="#e6b045"/><path d="m29.878 42.592c0-5.613-3.32-4.363-8.455-4.363-5.133 0-8.453-1.25-8.453 4.363 0 0 .016 2.141.564 4.951.896 4.602 4.617 6.406 7.889 6.406s6.996-1.805 7.889-6.406c.547-2.813.566-4.951.566-4.951z" fill="#fc6"/><path d="m21.25 36.119c-1.535 2.734-7.289 4.447-9.268 4.268 1.793-1.807 2.586-6.465 9.268-4.268z" fill="#594640"/><path d="m11.982 40.387c2.52-.656 5.791-1.996 9.268-4.268-1.536 2.735-6.588 4.895-9.268 4.268z" fill="#453631"/><path d="m29.011 35.973c-2.174 3.258-10.313 5.295-13.107 5.082 2.531-2.155 3.656-7.7 13.107-5.082z" fill="#594640"/><path d="m15.904 41.055c6.686-1.857 13.107-5.082 13.107-5.082-2.174 3.257-8.23 5.554-13.107 5.082z" fill="#453631"/><path d="m29.326 35.225c2.605 4.238-4.176 5.977-6.979 5.805 2.514-1.655 4.199-5.938 6.979-5.805z" fill="#594640"/><path d="m22.347 41.029c3.369-1.543 8.506-1.859 6.979-5.805 2.605 4.239-4.006 6.188-6.979 5.805z" fill="#453631"/><path d="m27.66 44.334c-.777 2.035-3.943 1.738-4.523.314.439-2.289 4.097-2.484 4.523-.314z" fill="#fff"/><path d="m23.943 44.117c0 1.787 2.588 1.787 2.588 0 0-1.658-2.588-1.658-2.588 0z" fill="#613f34"/><path d="m24.199 44.689c0 1.025 2.076 1.025 2.076 0 0-.949-2.076-.949-2.076 0z" fill="#7d5037"/><path d="m24.699 44.148c0 .738 1.074.738 1.074 0 0-.689-1.074-.689-1.074 0z" fill="#1a1626"/><path d="m24.333 43.932c0 .373.543.373.543 0 0-.348-.543-.348-.543 0z" fill="#ab968c"/><path d="m27.66 44.318c0-2.184-4.523-2.184-4.523.348.646-2.078 3.878-2.078 4.523-.348z" fill="#e6b045"/><path d="m15.189 44.334c.775 2.035 3.943 1.738 4.523.314-.441-2.289-4.093-2.484-4.523-.314z" fill="#fff"/><path d="m16.32 44.117c0 1.787 2.586 1.787 2.586 0 0-1.658-2.586-1.658-2.586 0z" fill="#613f34"/><path d="m16.576 44.688c0 1.027 2.074 1.027 2.074 0 0-.948-2.074-.948-2.074 0z" fill="#7d5037"/><path d="m17.076 44.146c0 .74 1.074.74 1.074 0 0-.689-1.074-.689-1.074 0z" fill="#1a1626"/><path d="m16.708 43.93c0 .375.541.375.541 0 .001-.348-.541-.348-.541 0z" fill="#ab968c"/><path d="m15.189 44.318c0-2.184 4.523-2.184 4.523.346-.646-2.076-3.879-2.076-4.523-.346z" fill="#e6b045"/><path d="m28.078 42.104c-1.352-.668-3.938-.701-4.902-.234-.203.09-.068.727.105.664 1.344-.496 3.508-.51 4.766.043.165.071.238-.378.031-.473z" fill="#c1873c"/><path d="m14.769 42.104c1.354-.668 3.939-.701 4.904-.234.203.09.066.727-.104.664-1.346-.496-3.51-.51-4.768.043-.165.071-.237-.378-.032-.473z" fill="#c1873c"/><path d="m21.423 49.77c-1.328-.391-3.299.186-3.299.186.754.816 1.301 1.873 3.299 1.873 2.291 0 2.68-1.201 3.299-1.873 0-.001-1.971-.579-3.299-.186z" fill="#e6a400"/><path d="m18.63 50.094c1.393 1.166 4.207 1.174 5.605 0-1.484.062-4.109.064-5.605 0z" fill="#fff"/><path d="m23.255 48.021c0 1.191-3.662 1.191-3.662 0 0-.273 3.662-.273 3.662 0z" fill="#e6b045"/><path d="m47.036 52.978c-1.615.012-4.027 2.17-2.334 2.126-.234.538-.047 1.048 1.061.382-.342.563.521.71 1.092.394.127 1.163 2.137-.062 2.889.119 1.076.258 1.361.505 1.561.296 1.45-1.521-1.593-3.344-4.269-3.317z" fill="#fc6"/><path d="m16.962 52.978c-2.676-.026-5.719 1.797-4.268 3.316.199.209.484-.038 1.561-.296.752-.181 2.762 1.044 2.889-.119.57.316 1.434.169 1.092-.394 1.107.666 1.295.156 1.061-.382 1.693.044-.719-2.114-2.335-2.125z" fill="#fc6"/></svg>