<svg enable-background="new 0 0 64 64" height="64" viewBox="0 0 64 64" width="64" xmlns="http://www.w3.org/2000/svg"><path d="m20.146 15.477c-7.992 37.396-7.262 36.596 9.564 36.596-9.311-7.1 8.523-37.105-9.564-36.596z" fill="#3b2c29"/><path d="m17.263 14.897c-5.832 28.413-.801 35.709 3.668 37.175h5.119c-11.981-9.201 6.748-37.734-8.787-37.175z" fill="#453631"/><path d="m43.659 15.475c7.992 37.397 7.26 36.596-9.563 36.596 8.561-5.698-8.525-37.105 9.563-36.596z" fill="#3b2c29"/><path d="m46.54 14.896c8.527 25.85-.018 35.979-3.666 37.175h-5.119c11.98-8.45-6.746-37.735 8.785-37.175z" fill="#453631"/><path d="m47.96 28.787c2.469 6.571.025 20.058-5.086 23.286 5.666 0 9.117-8.549 10.799-20.31 2.103-14.695-10.113-14.703-5.713-2.976z" fill="#594640"/><path d="m10.765 34.489c2.064 10.614 4.604 17.583 10.166 17.583-6.201-6.998-5.471-21.76-3.709-25.433 8.982-5.826-9.95-10.102-6.457 7.85z" fill="#594640"/><path d="m12.257 53.047c2.4-1.32 12.363-4.807 12.363-4.807h14.84s9.953 3.478 12.342 4.803c3.469 1.924 4.199 8.957 4.199 8.957h-48s.773-7.041 4.256-8.953z" fill="#006dae"/><path d="m25.302 51.092 6.699 4.418 6.697-4.418v-8.534h-13.396z" fill="#e6a400"/><path d="m17.628 57.43h8.727v.883h-8.727z" fill="#ffe12c"/><path d="m17.628 60.232h8.727v1.768h-8.727z" fill="#014d87"/><path d="m32.001 54.861h3.137v7.139h-3.137z" fill="#014d87"/><path d="m26.354 59.164h-8.726v1.165h.975l3.388 1.235 3.387-1.235h.976z" fill="#018bc9"/><path d="m41.591 54.818.854-1.028c1.113.776 2.035-.175 2.035-.175s.924.951 2.035.175l.852 1.028c-1.428.906.498 2.371.043 3.957-.635 2.204-2.156 1.964-2.93 2.84-.775-.876-2.293-.636-2.928-2.84-.455-1.586 1.472-3.05.039-3.957z" fill="#ffe12c"/><path d="m24.354 55.341s-3.227-3.596-.814-7.212c.41-.612 1.754-1.631 1.754-1.631 0 2.444 6.707 8.128 6.707 8.128v1.036s-.932-1.065-3.771-.543c0 0-.297-1.074.1-2.034-.001 0-2.101.388-3.976 2.256z" fill="#018bc9"/><path d="m39.647 55.341s3.225-3.596.813-7.212c-.41-.612-1.754-1.631-1.754-1.631 0 2.444-6.705 8.128-6.705 8.128v1.919s.932-1.948 3.771-1.426c0 0 .295-1.074-.102-2.034.001 0 2.102.388 3.977 2.256z" fill="#018bc9"/><path d="m34.659 59.349c0 1.177-2.182 1.177-2.182 0 .001-1.179 2.182-1.179 2.182 0z" fill="#006dae"/><path d="m42.274 49.033.895 2.7s7.615 2.991 9.41 3.776c1.781.78 1.059-1.734-.342-2.645-.521-.339-6.863-2.988-9.963-3.831z" fill="#014d87"/><path d="m45.511 50.987c.588 1.079-1.09 1.024-1.725-.036-.705-1.179 1.111-1.088 1.725.036z" fill="#006dae"/><path d="m21.724 49.033-.895 2.7s-7.613 2.991-9.408 3.776c-1.779.78-1.059-1.734.34-2.645.525-.339 6.863-2.988 9.963-3.831z" fill="#014d87"/><path d="m18.487 50.987c-.588 1.079 1.094 1.024 1.729-.036.705-1.179-1.115-1.088-1.729.036z" fill="#006dae"/><path d="m46.661 57.973c0 2.461-4.363 2.461-4.363 0s4.363-2.461 4.363 0z" fill="#e6a400"/><path d="m42.843 54.941h3.273v.615h-3.273z" fill="#e6a400"/><path d="m13.739 62c.51-1.772-.088-4.469-.727-5.953-.595-1.383-.368 4.978.727 5.953z" fill="#014d87"/><path d="m50.989 56.047c-.639 1.484-1.24 4.181-.729 5.953 1.098-.975 1.321-7.336.729-5.953z" fill="#014d87"/><path d="m13.575 19.285s-.104.342-.264.92c2.862 2.483 12.051 3.795 18.692 3.795 6.645 0 15.762-1.313 18.619-3.795-.139-.576-.256-.871-.256-.871z" opacity=".2"/><path d="m32.001 6.489c-11.609 0-17.201 9.455-16.502 21.611.143 2.444.822 5.968 1.66 8.989 1.742 6.278 10.93 12.601 14.842 12.601 3.91 0 13.1-6.322 14.84-12.601.84-3.021 1.52-6.545 1.664-8.989.697-12.156-4.893-21.611-16.504-21.611z" fill="#fc6"/><path d="m32.001 39.661c-2.822-1.241-2.844-.05-7.199.242 1.635 1.856 2.838 4.243 7.197 4.243 5.004 0 5.85-2.711 7.203-4.243-4.359-.292-4.379-1.483-7.201-.242z" fill="#d47706"/><path d="m26.108 40.365c2.844 2.96 8.977 2.921 11.785.002-4.378.471-7.404.471-11.785-.002z" fill="#fff"/><path d="m44.796 23.684c-2.617-1.559-7.309-1.75-9.166-.688-.393.214-.287 1.341.053 1.2 2.648-1.103 6.682-1.158 9.168.117.334.17.339-.402-.055-.629z" fill="#594640"/><path d="m19.208 23.684c2.615-1.559 7.307-1.75 9.166-.688.393.214.289 1.341-.055 1.2-2.648-1.103-6.68-1.159-9.166.117-.334.17-.341-.402.055-.629z" fill="#594640"/><path d="m35.601 35.419c0 2.342-7.199 2.342-7.199 0-.001-.538 7.199-.538 7.199 0z" fill="#e6b045"/><path d="m44.542 28.431c-1.551 4.06-7.861 3.464-9.016.624.875-4.566 8.162-4.957 9.016-.624z" fill="#fff"/><path d="m37.106 27.99c0 3.596 5.201 3.596 5.201 0 .001-3.338-5.201-3.338-5.201 0z" fill="#613f34"/><path d="m37.62 29.14c0 2.063 4.172 2.063 4.172 0 0-1.913-4.172-1.913-4.172 0z" fill="#7d5037"/><path d="m38.628 28.046c0 1.492 2.158 1.492 2.158 0 0-1.385-2.158-1.385-2.158 0z" fill="#1a1626"/><path d="m37.89 27.61c0 .754 1.09.754 1.09 0-.001-.699-1.09-.699-1.09 0z" fill="#ab968c"/><path d="m44.542 28.4c0-4.361-9.016-4.361-9.016.691 1.286-4.146 7.729-4.146 9.016-.691z" fill="#45332c"/><path d="m19.46 28.431c1.553 4.06 7.863 3.466 9.02.624-.877-4.566-8.165-4.957-9.02-.624z" fill="#fff"/><path d="m21.696 27.995c0 3.596 5.199 3.596 5.199 0 .001-3.337-5.199-3.337-5.199 0z" fill="#613f34"/><path d="m22.21 29.146c0 2.062 4.172 2.062 4.172 0 0-1.914-4.172-1.914-4.172 0z" fill="#7d5037"/><path d="m23.216 28.052c0 1.492 2.16 1.492 2.16 0 0-1.385-2.16-1.385-2.16 0z" fill="#1a1626"/><path d="m22.479 27.616c0 .754 1.09.754 1.09 0 0-.7-1.09-.7-1.09 0z" fill="#ab968c"/><path d="m19.46 28.4c0-4.361 9.02-4.361 9.02.689-1.288-4.145-7.731-4.145-9.02-.689z" fill="#45332c"/><path d="m43.901 8.18c-7.467 8.341-.342 8.88 4.059 20.607 2.469 6.571 4.031 14.737 5.713 2.976 2.103-14.695-5.977-24.811-9.772-23.583z" fill="#594640"/><path d="m25.571 4.985c-9.471 2.43-18.299 11.552-14.807 29.504 2.064 10.614 2.926-3.804 4.688-7.477 8.984-5.827 26.113-10.614 28.449-18.833 1.184-1.896-8.855-5.9-18.33-3.194z" fill="#594640"/><g fill="#453631"><path d="m18.315 18.063c4.004-.885 23.162-1.302 25.586-9.883-4.527 3.933-9.218 5.004-25.586 9.883z"/><path d="m11.411 31.711c6.717-9.774 28.725-8.695 32.49-23.531-7.308 12.451-30.654 14.135-32.49 23.531z"/><path d="m41.687 10.213c-1.734 2.977 4.291-1.398 10.785 17.785-1.602-11.214-7.088-18.936-10.785-17.785z"/></g><path d="m10.399 21.141s-.055 4.676 21.602 4.676 21.594-4.676 21.594-4.676z" opacity=".2"/><path d="m56.165 15.123c-5.086-3.639-5.664-8.916-7.723-9.201-12.812-1.785-13.248-3.922-16.441-3.922-3.197 0-3.631 2.137-16.443 3.922-2.055.285-2.635 5.563-7.725 9.201-2.451 1.756 3.49 3.307 5.617 6.443 1.148 1.691 35.955 1.691 37.1 0 2.129-3.136 8.072-4.687 5.615-6.443z" fill="#014d87"/><path d="m32.001 12.949s-16.773 0-21.656 3.74v3.508h21.656 21.656v-3.508c-4.883-3.74-21.656-3.74-21.656-3.74z" fill="#006dae"/><path d="m32.001 18.525c-20.01 0-21.656 2.615-21.656 2.615s0 3.676 21.656 3.676 21.656-3.676 21.656-3.676-1.648-2.615-21.656-2.615z" fill="#302c3b"/><path d="m32.001 17.523s-13.215-.205-21.656 2.023v1.594s3.5-1.928 21.656-1.928c18.16 0 21.656 1.928 21.656 1.928v-1.594c-8.441-2.228-21.656-2.023-21.656-2.023z" fill="#ffe12c"/><path d="m36.769 7.031-1.411-1.431c-1.836 1.076-3.357-.246-3.357-.246s-1.523 1.322-3.357.246l-1.408 1.432c2.359 1.258-.818 3.295-.068 5.502 1.047 3.063 3.557 2.729 4.834 3.945 1.277-1.217 3.787-.883 4.832-3.945.753-2.208-2.429-4.245-.065-5.503z" fill="#ffe12c"/></svg>