<svg enable-background="new 0 0 64 64" height="64" viewBox="0 0 64 64" width="64" xmlns="http://www.w3.org/2000/svg"><path d="m9.055 9.117c-5.445 23.344-4.943 22.848 6.518 22.848-6.342-4.436 5.806-23.164-6.518-22.848z" fill="#3b2c29"/><path d="m7.092 8.756c-3.974 17.736-.545 22.291 2.498 23.209h3.49c-8.163-5.748 4.596-23.557-5.988-23.209z" fill="#453631"/><path d="m25.077 9.115c5.447 23.346 4.947 22.846-6.514 22.846 5.83-3.557-5.811-23.162 6.514-22.846z" fill="#3b2c29"/><path d="m27.044 8.756c5.805 16.135-.016 22.457-2.5 23.205h-3.49c8.161-5.275-4.596-23.555 5.99-23.205z" fill="#453631"/><path d="m28.008 17.428c1.682 4.102.018 12.52-3.465 14.537 3.859 0 6.209-5.34 7.357-12.682 1.431-9.173-6.892-9.177-3.892-1.855z" fill="#594640"/><path d="m2.665 20.986c1.406 6.624 3.134 10.979 6.925 10.979-4.223-4.371-3.727-13.586-2.527-15.879 6.121-3.639-6.775-6.307-4.398 4.9z" fill="#594640"/><path d="m5.657 32.738c7.695-5.117 15.26-5.117 22.957 0 2.441 1.623 2.947 7.74 3.254 13.037h-4.338v16.225h-20.789v-16.224h-4.34c.309-5.297.812-11.415 3.256-13.038z" fill="#8e3ed6"/><path d="m26.745 46.074h1.408l-1.408-7.597z" fill="#732eb0"/><path d="m26.745 62h4.025l1.098-16.225s-2.561-.658-5.123 0z" fill="#fc6"/><path d="m12.926 29.674c0-.723 0-3.932 0-3.932h8.418v3.932c0 4.23-8.418 4.23-8.418 0z" fill="#e6b045"/><path d="m17.133 3.506c-7.256 0-10.752 5.902-10.314 13.492.09 1.525.516 3.725 1.037 5.611 1.092 3.918 6.834 7.865 9.277 7.865 2.445 0 8.188-3.947 9.277-7.865.524-1.887.947-4.086 1.039-5.611.436-7.59-3.06-13.492-10.316-13.492z" fill="#fc6"/><path d="m17.135 24.213c-1.766-.774-1.777-.029-4.502.154 1.023 1.158 1.775 2.648 4.5 2.648 3.127 0 3.654-1.693 4.502-2.648-2.724-.183-2.736-.927-4.5-.154z" fill="#d47706"/><path d="m13.454 24.654c1.777 1.848 5.609 1.824 7.361 0-2.732.295-4.627.295-7.361 0z" fill="#fff"/><path d="m25.129 14.24c-1.635-.973-4.568-1.092-5.727-.428-.248.133-.18.838.033.748 1.654-.688 4.176-.723 5.729.074.21.106.213-.251-.035-.394z" fill="#594640"/><path d="m9.137 14.24c1.633-.973 4.568-1.092 5.731-.428.248.133.18.838-.035.748-1.654-.688-4.174-.723-5.728.074-.21.106-.212-.251.032-.394z" fill="#594640"/><path d="m19.385 21.567c0 1.461-4.502 1.461-4.502 0 0-.336 4.502-.336 4.502 0z" fill="#e6b045"/><path d="m24.973 17.205c-.971 2.533-4.914 2.162-5.637.389.547-2.852 5.104-3.096 5.637-.389z" fill="#fff"/><path d="m20.327 16.93c0 2.244 3.248 2.244 3.248 0 0-2.086-3.248-2.086-3.248 0z" fill="#613f34"/><path d="m20.647 17.649c0 1.283 2.607 1.283 2.607 0 0-1.198-2.607-1.198-2.607 0z" fill="#7d5037"/><path d="m21.276 16.963c0 .934 1.35.934 1.35 0 0-.865-1.35-.865-1.35 0z" fill="#1a1626"/><path d="m20.813 16.692c0 .471.684.471.684 0 0-.436-.684-.436-.684 0z" fill="#ab968c"/><path d="m24.973 17.186c0-2.723-5.637-2.723-5.637.432.805-2.589 4.833-2.589 5.637-.432z" fill="#45332c"/><path d="m9.297 17.205c.969 2.533 4.912 2.164 5.635.389-.545-2.852-5.103-3.096-5.635-.389z" fill="#fff"/><path d="m10.694 16.932c0 2.246 3.248 2.246 3.248 0 0-2.082-3.248-2.082-3.248 0z" fill="#613f34"/><path d="m11.014 17.651c0 1.285 2.607 1.285 2.607 0 .001-1.194-2.607-1.194-2.607 0z" fill="#7d5037"/><path d="m11.643 16.967c0 .932 1.35.932 1.35 0 0-.865-1.35-.865-1.35 0z" fill="#1a1626"/><path d="m11.182 16.695c0 .471.682.471.682 0 0-.435-.682-.435-.682 0z" fill="#ab968c"/><path d="m9.297 17.186c0-2.723 5.635-2.723 5.635.43-.805-2.589-4.832-2.589-5.635-.43z" fill="#45332c"/><path d="m25.243 4.563c-5.09 5.207-.234 5.543 2.766 12.865 1.682 4.102 2.744 9.197 3.893 1.855 1.429-9.173-4.075-15.488-6.659-14.72z" fill="#594640"/><path d="m12.752 2.569c-6.451 1.515-12.464 7.21-10.087 18.417 1.406 6.623 3.199-2.607 4.398-4.9 6.121-3.639 16.588-6.392 18.18-11.523.806-1.184-6.035-3.684-12.491-1.994z" fill="#594640"/><path d="m7.811 10.733c2.728-.553 15.779-.814 17.432-6.17-3.086 2.455-6.28 3.125-17.432 6.17z" fill="#453631"/><path d="m3.104 19.252c4.578-6.104 19.574-5.43 22.139-14.689-4.979 7.771-20.887 8.824-22.139 14.689z" fill="#453631"/><path d="m23.733 5.832c-1.182 1.859 2.922-.873 7.348 11.103-1.09-7.001-4.827-11.822-7.348-11.103z" fill="#453631"/><path d="m58.612 32.738c-7.697-5.117-15.262-5.117-22.957 0-2.443 1.623-2.947 7.74-3.256 13.037h4.34v16.225h20.789v-16.224h4.338c-.307-5.297-.813-11.415-3.254-13.038z" fill="#7ab51d"/><path d="m54.743 50.074 2-4.298v-7.299z" fill="#529320"/><path d="m9.524 50.059-2-4.283v-7.315z" fill="#732eb0"/><path d="m37.522 46.074h-1.406l1.406-7.597z" fill="#7ab51d"/><path d="m37.522 62h-4.023l-1.1-16.225s2.563-.658 5.123 0z" fill="#fc6"/><path d="m51.342 29.674c0-.723 0-3.932 0-3.932h-8.418v3.932c0 4.23 8.418 4.23 8.418 0z" fill="#e6b045"/><path d="m36.422 14.672c-3.584-.645-.785 9.361 2.017 6.601 1.302-1.281-.343-6.298-2.017-6.601z" fill="#e6b045"/><path d="m57.848 14.672c-1.676.303-3.32 5.32-2.017 6.601 2.804 2.76 5.597-7.246 2.017-6.601z" fill="#e6b045"/><path d="m47.135 2.942c-7.408 0-10.979 5.598-10.531 13.381.09 1.566 1.063 6.674 1.979 8.506.939 1.873 4.08 4.764 6.006 5.361 1.215.379 3.877.379 5.094 0 1.922-.598 5.066-3.488 6.002-5.361.92-1.832 1.891-6.939 1.98-8.506.447-7.784-3.123-13.381-10.53-13.381z" fill="#fc6"/><path d="m47.135 24.131c-1.668-.49-4.135.232-4.135.232.939 1.023 1.629 2.348 4.135 2.348 2.869 0 3.359-1.504 4.135-2.348 0 0-2.471-.724-4.135-.232z" fill="#e6a400"/><path d="m43.629 24.535c1.748 1.463 5.275 1.473 7.031 0-1.861.08-5.156.08-7.031 0z" fill="#fff"/><path d="m49.434 21.379c0 1.492-4.596 1.492-4.596 0 0-.342 4.596-.342 4.596 0z" fill="#e6b045"/><path d="m47.135 2.942c-5.096 0-8.176 1.68-9.504 1.035 0 0-.144.867.375 1.433 0 0-.547.475-1.433-.326-.846 2.738 1.662 4.326 10.562 4.326s6.773-2.166 11.15 1.637c-.427-4.687-3.409-8.105-11.15-8.105z" fill="#594640"/><path d="m50.903 7.026c-4.9 1.809-6.691-1.453-11.314-1.768 2.199 1.037 3.273 2.635 5.078 3.785-3.932-1.312-6.814-3.574-7.033-5.059 0 0-.656 2.168 1.938 3.789-2.48.228-2.996-2.682-2.996-2.682-1.258 2.016-1.084 8.514.311 13.338.232-1.723-.297-2.434.5-4.506 2.383-6.199.85-3.598 9.75-3.598s7.295-2.371 9.75 3.598c.732 1.777.266 2.783.5 4.506 2.926-10.876-1.285-13.319-6.484-11.403z" fill="#453631"/><path d="m55.065 16.926c-.99 2.588-5.017 2.207-5.754.394.561-2.908 5.211-3.156 5.754-.394z" fill="#fff"/><path d="m39.204 16.926c.99 2.588 5.016 2.207 5.754.394-.559-2.91-5.211-3.158-5.754-.394z" fill="#fff"/><path d="m55.477 13.809c-1.695-.84-4.936-.881-6.146-.295-.258.113-.086.908.133.834 1.684-.625 4.398-.639 5.973.053.21.087.296-.475.04-.592z" fill="#c1873c"/><path d="m38.794 13.809c1.691-.84 4.936-.881 6.143-.295.26.113.088.908-.129.834-1.685-.625-4.398-.639-5.975.053-.211.087-.295-.475-.039-.592z" fill="#c1873c"/><path d="m50.338 16.649c0 2.271 3.289 2.271 3.289 0 0-2.108-3.289-2.108-3.289 0z" fill="#613f34"/><path d="m50.663 17.375c0 1.305 2.641 1.305 2.641 0-.001-1.209-2.641-1.209-2.641 0z" fill="#7d5037"/><path d="m51.299 16.686c0 .941 1.367.941 1.367 0 .001-.877-1.367-.877-1.367 0z" fill="#1a1626"/><path d="m50.835 16.41c0 .475.689.475.689 0 0-.443-.689-.443-.689 0z" fill="#ab968c"/><path d="m40.641 16.649c0 2.271 3.289 2.271 3.289 0 0-2.108-3.289-2.108-3.289 0z" fill="#613f34"/><path d="m40.967 17.375c0 1.301 2.639 1.301 2.639 0 0-1.209-2.639-1.209-2.639 0z" fill="#7d5037"/><path d="m41.604 16.686c0 .941 1.365.941 1.365 0 0-.877-1.365-.877-1.365 0z" fill="#1a1626"/><path d="m41.137 16.408c0 .477.689.477.689 0 .001-.441-.689-.441-.689 0z" fill="#ab968c"/><path d="m55.065 16.904c0-2.779-5.754-2.779-5.754.441.822-2.64 4.932-2.64 5.754-.441z" fill="#e6b045"/><path d="m39.204 16.904c0-2.779 5.754-2.779 5.754.439-.823-2.64-4.934-2.64-5.754-.439z" fill="#e6b045"/><path d="m50.493 55.188c-4.816-3.131-10.578-3.101-15.402.001-1.657 1.062-2.206 6.811-2.206 6.811h19.793s-.547-5.752-2.185-6.812z" fill="#4abdff"/><path d="m45.706 53.426c0-.538 0-2.925 0-2.925h-5.85v2.925c0 2.366 5.85 2.366 5.85 0z" fill="#e6b045"/><path d="m42.78 31.985c-10.516 0-9.502 8.421-9.502 12.356h19.006c0-3.936 1.013-12.356-9.504-12.356z" fill="#594640"/><path d="m34.217 42.76c-3.34-.511-1.162 7.4 1.451 5.218 1.208-1.01.11-4.98-1.451-5.218z" fill="#e6b045"/><path d="m51.344 42.76c-1.563.238-2.662 4.208-1.451 5.218 2.613 2.182 4.789-5.729 1.451-5.218z" fill="#e6b045"/><path d="m51.235 42.592c0-5.614-3.32-4.364-8.455-4.364-5.133 0-8.453-1.25-8.453 4.364 0 0 .016 2.141.564 4.95.897 4.602 4.617 6.407 7.889 6.407s6.996-1.806 7.889-6.407c.546-2.811.566-4.95.566-4.95z" fill="#fc6"/><path d="m42.606 36.119c-1.535 2.734-7.289 4.446-9.268 4.268 1.793-1.807 2.586-6.465 9.268-4.268z" fill="#594640"/><path d="m33.338 40.387c2.52-.656 5.791-1.996 9.268-4.268-1.535 2.735-6.588 4.894-9.268 4.268z" fill="#453631"/><path d="m50.368 35.973c-2.174 3.257-10.313 5.294-13.107 5.082 2.531-2.154 3.656-7.699 13.107-5.082z" fill="#594640"/><path d="m37.26 41.055c6.686-1.857 13.107-5.082 13.107-5.082-2.173 3.257-8.23 5.554-13.107 5.082z" fill="#453631"/><path d="m50.682 35.224c2.606 4.239-4.176 5.977-6.979 5.806 2.514-1.655 4.2-5.939 6.979-5.806z" fill="#594640"/><path d="m43.704 41.029c3.369-1.544 8.506-1.859 6.979-5.806 2.605 4.24-4.007 6.189-6.979 5.806z" fill="#453631"/><path d="m49.016 44.334c-.777 2.035-3.943 1.737-4.523.313.439-2.287 4.097-2.484 4.523-.313z" fill="#fff"/><path d="m45.299 44.117c0 1.786 2.588 1.786 2.588 0 0-1.658-2.588-1.658-2.588 0z" fill="#613f34"/><path d="m45.555 44.69c0 1.024 2.076 1.024 2.076 0 0-.951-2.076-.951-2.076 0z" fill="#7d5037"/><path d="m46.055 44.148c0 .739 1.074.739 1.074 0 0-.689-1.074-.689-1.074 0z" fill="#1a1626"/><path d="m45.69 43.931c0 .373.543.373.543 0 0-.347-.543-.347-.543 0z" fill="#ab968c"/><path d="m49.016 44.319c0-2.184-4.523-2.184-4.523.348.646-2.079 3.879-2.079 4.523-.348z" fill="#e6b045"/><path d="m36.545 44.334c.775 2.035 3.943 1.737 4.523.313-.441-2.288-4.093-2.484-4.523-.313z" fill="#fff"/><path d="m37.676 44.117c0 1.786 2.586 1.786 2.586 0 0-1.658-2.586-1.658-2.586 0z" fill="#613f34"/><path d="m37.932 44.688c0 1.026 2.074 1.026 2.074 0 0-.949-2.074-.949-2.074 0z" fill="#7d5037"/><path d="m38.432 44.146c0 .741 1.074.741 1.074 0 0-.689-1.074-.689-1.074 0z" fill="#1a1626"/><path d="m38.065 43.929c0 .375.541.375.541 0 0-.348-.541-.348-.541 0z" fill="#ab968c"/><path d="m36.545 44.319c0-2.184 4.523-2.184 4.523.346-.646-2.077-3.878-2.077-4.523-.346z" fill="#e6b045"/><path d="m49.434 42.103c-1.352-.668-3.938-.701-4.902-.234-.203.091-.068.727.105.664 1.344-.496 3.508-.509 4.766.043.166.072.238-.378.031-.473z" fill="#c1873c"/><path d="m36.126 42.103c1.354-.668 3.939-.701 4.904-.234.203.091.066.727-.104.664-1.346-.496-3.51-.509-4.768.043-.165.072-.238-.378-.032-.473z" fill="#c1873c"/><path d="m42.78 49.77c-1.328-.391-3.299.185-3.299.185.754.817 1.301 1.874 3.299 1.874 2.291 0 2.68-1.201 3.299-1.874 0-.001-1.971-.579-3.299-.185z" fill="#e6a400"/><path d="m39.987 50.093c1.393 1.167 4.207 1.175 5.605 0-1.484.062-4.109.064-5.605 0z" fill="#fff"/><path d="m44.612 48.022c0 1.19-3.662 1.19-3.662 0 0-.275 3.662-.275 3.662 0z" fill="#e6b045"/><path d="m29.342 54.669c-.982-.688-5.299-2.493-5.299-2.493h-4.797s-4.318 1.809-5.307 2.494c-1.655 1.144-2.206 7.33-2.206 7.33h19.793s-.547-6.189-2.184-7.331z" fill="#e32b56"/><path d="m24.553 52.839c0-.538 0-2.925 0-2.925h-5.85v2.925c.001 2.366 5.85 2.366 5.85 0z" fill="#e6b045"/><path d="m14.124 43.937c-7.076 4.172-.855 7.97-2.869 9.768 3.914 2.425 13.494-1.755 2.869-9.768z" fill="#594640"/><path d="m12.01 45.522c1.736 6.659 5.31 6.89 5.012 8.095 3.322-1.741 3.354-7.353-5.012-8.095z" fill="#453631"/><path d="m29.135 43.937c7.076 4.172.855 7.97 2.871 9.768-3.912 2.425-13.494-1.755-2.871-9.768z" fill="#594640"/><path d="m31.249 45.522c-1.734 6.659-5.31 6.89-5.01 8.095-3.322-1.741-3.356-7.353 5.01-8.095z" fill="#453631"/><path d="m11.952 43.769h19.348c2.816-15.122-22.165-15.122-19.348 0z" fill="#594640"/><path d="m11.926 43.582s11.016 4.105 18.652-.651c-1.543.291-4.051-5.605-15.775-6.047-.429 6.698-2.49 4.88-2.877 6.698z" fill="#453631"/><path d="m30.391 42.69c.822-11.314-18.359-11.314-17.535 0 .715-9.502 16.818-9.502 17.535 0z" fill="#cfd8dd"/><path d="m30.391 42.323c.822-11.313-18.359-11.313-17.535 0 .715-9.502 16.818-9.502 17.535 0z" fill="#fff"/><path d="m13.059 42.767c-3.336-.506-1.162 7.364 1.451 5.193 1.213-1.007.114-4.955-1.451-5.193z" fill="#e6b045"/><path d="m30.188 42.767c-1.561.238-2.66 4.187-1.451 5.193 2.615 2.169 4.787-5.699 1.451-5.193z" fill="#e6b045"/><path d="m30.079 42.785c-3.195-.91-7.289-5.256-15.07-4.729.137 1.708-.313 3.646-1.814 4.735 0 0-.006 1.535.543 4.345.895 4.602 4.617 6.407 7.887 6.407 3.274 0 6.994-1.806 7.891-6.407.545-2.812.563-4.351.563-4.351z" fill="#fc6"/><path d="m27.874 44.294c-.777 2.036-3.943 1.738-4.525.313.441-2.288 4.097-2.484 4.525-.313z" fill="#fff"/><path d="m24.157 44.078c0 1.786 2.586 1.786 2.586 0 0-1.658-2.586-1.658-2.586 0z" fill="#613f34"/><path d="m24.413 44.649c0 1.024 2.074 1.024 2.074 0 0-.951-2.074-.951-2.074 0z" fill="#7d5037"/><path d="m24.911 44.106c0 .742 1.076.742 1.076 0 0-.688-1.076-.688-1.076 0z" fill="#1a1626"/><path d="m24.547 43.889c0 .376.541.376.541 0 0-.348-.541-.348-.541 0z" fill="#ab968c"/><path d="m27.874 44.279c0-2.186-4.525-2.186-4.525.346.646-2.076 3.878-2.076 4.525-.346z" fill="#e6b045"/><path d="m15.401 44.294c.775 2.036 3.943 1.738 4.525.313-.439-2.29-4.095-2.486-4.525-.313z" fill="#fff"/><path d="m16.534 44.078c0 1.784 2.586 1.784 2.586 0 0-1.658-2.586-1.658-2.586 0z" fill="#613f34"/><path d="m16.79 44.649c0 1.022 2.072 1.022 2.072 0 0-.951-2.072-.951-2.072 0z" fill="#7d5037"/><path d="m17.288 44.106c0 .74 1.074.74 1.074 0 0-.688-1.074-.688-1.074 0z" fill="#1a1626"/><path d="m16.922 43.889c0 .374.543.374.543 0 0-.348-.543-.348-.543 0z" fill="#ab968c"/><path d="m15.401 44.279c0-2.186 4.525-2.186 4.525.346-.644-2.078-3.881-2.078-4.525-.346z" fill="#e6b045"/><path d="m28.292 42.064c-1.35-.672-3.938-.703-4.9-.236-.207.091-.07.726.105.666 1.34-.498 3.504-.509 4.764.043.165.07.236-.381.031-.473z" fill="#c1873c"/><path d="m14.981 42.064c1.353-.672 3.939-.703 4.904-.236.207.091.068.726-.104.666-1.344-.498-3.51-.509-4.768.043-.167.07-.235-.381-.032-.473z" fill="#c1873c"/><path d="m21.637 49.73c-1.328-.391-3.299.185-3.299.185.75.814 1.303 1.875 3.299 1.875 2.289 0 2.682-1.201 3.299-1.875 0-.001-1.973-.578-3.299-.185z" fill="#e6a400"/><path d="m18.84 50.052c1.395 1.169 4.211 1.175 5.611 0-1.488.063-4.113.063-5.611 0z" fill="#fff"/><path d="m23.471 47.98c0 1.19-3.666 1.19-3.666 0 0-.274 3.666-.274 3.666 0z" fill="#e6b045"/><g fill="#fc6"><path d="m12.235 57.492c.807.49 2.559-2.121 1.822-2.713-4.496-3.604-6.533-9.004-6.533-9.004-2.283-.691-5.123 0-5.123 0 .291 5.366 5.914 9.325 9.834 11.717z"/><path d="m15.76 53.645c1.666-.393 4.767 1.096 3.01 1.477.396.463.348 1.004-.982.637.512.459-.336.818-1.014.654.201 1.16-2.219.477-2.941.84-1.037.52-1.26.83-1.523.678-1.931-1.111.685-3.64 3.45-4.286z"/><path d="m52.032 57.492c-.805.49-2.559-2.121-1.822-2.713 4.498-3.604 6.533-9.004 6.533-9.004 2.283-.691 5.123 0 5.123 0-.291 5.366-5.914 9.325-9.834 11.717z"/><path d="m48.506 53.645c-1.666-.393-4.767 1.096-3.01 1.477-.395.463-.348 1.004.982.637-.51.459.338.818 1.016.654-.201 1.16 2.217.477 2.941.84 1.035.52 1.258.83 1.523.678 1.931-1.111-.686-3.64-3.452-4.286z"/></g></svg>