<svg enable-background="new 0 0 64 64" height="64" viewBox="0 0 64 64" width="64" xmlns="http://www.w3.org/2000/svg"><path d="m9.055 9.117c-5.445 23.344-4.944 22.848 6.518 22.848-6.342-4.436 5.807-23.164-6.518-22.848z" fill="#3b2c29"/><path d="m7.093 8.756c-3.975 17.736-.546 22.291 2.498 23.209h3.49c-8.165-5.748 4.596-23.557-5.988-23.209z" fill="#453631"/><path d="m25.076 9.115c5.447 23.346 4.947 22.846-6.514 22.846 5.832-3.557-5.81-23.162 6.514-22.846z" fill="#3b2c29"/><path d="m27.043 8.756c5.806 16.135-.015 22.457-2.5 23.205h-3.49c8.163-5.275-4.596-23.555 5.99-23.205z" fill="#453631"/><path d="m28.008 17.428c1.683 4.102.018 12.52-3.465 14.537 3.859 0 6.21-5.34 7.357-12.682 1.431-9.173-6.891-9.177-3.892-1.855z" fill="#594640"/><path d="m2.664 20.986c1.406 6.624 3.136 10.979 6.927 10.979-4.223-4.371-3.726-13.586-2.527-15.879 6.121-3.639-6.777-6.307-4.4 4.9z" fill="#594640"/><path d="m5.656 32.738c7.696-5.117 15.261-5.117 22.957 0 2.442 1.623 2.947 7.74 3.255 13.037h-4.339v16.225h-20.789v-16.224h-4.339c.308-5.297.813-11.415 3.255-13.038z" fill="#8e3ed6"/><path d="m26.745 46.074h1.407l-1.407-7.597z" fill="#732eb0"/><path d="m26.745 62h4.024l1.099-16.225s-2.562-.658-5.123 0z" fill="#fc6"/><path d="m12.926 29.674c0-.723 0-3.932 0-3.932h8.418v3.932c0 4.23-8.418 4.23-8.418 0z" fill="#e6b045"/><path d="m17.133 3.506c-7.256 0-10.751 5.902-10.313 13.492.09 1.525.516 3.725 1.037 5.611 1.091 3.918 6.833 7.865 9.276 7.865 2.446 0 8.188-3.947 9.278-7.865.523-1.887.946-4.086 1.039-5.611.435-7.59-3.06-13.492-10.317-13.492z" fill="#fc6"/><path d="m17.135 24.213c-1.765-.774-1.776-.029-4.501.154 1.023 1.158 1.775 2.648 4.499 2.648 3.128 0 3.655-1.693 4.502-2.648-2.724-.183-2.736-.927-4.5-.154z" fill="#d47706"/><path d="m13.454 24.654c1.776 1.848 5.608 1.824 7.361 0-2.733.295-4.628.295-7.361 0z" fill="#fff"/><path d="m25.129 14.24c-1.635-.973-4.567-1.092-5.726-.428-.248.133-.181.838.033.748 1.653-.688 4.175-.723 5.729.074.209.106.213-.251-.036-.394z" fill="#594640"/><path d="m9.138 14.24c1.633-.973 4.568-1.092 5.73-.428.248.133.181.838-.034.748-1.654-.688-4.175-.723-5.729.074-.21.106-.212-.251.033-.394z" fill="#594640"/><path d="m19.385 21.567c0 1.461-4.502 1.461-4.502 0 0-.336 4.502-.336 4.502 0z" fill="#e6b045"/><path d="m24.973 17.205c-.971 2.533-4.913 2.162-5.636.389.547-2.852 5.103-3.096 5.636-.389z" fill="#fff"/><path d="m20.327 16.93c0 2.244 3.248 2.244 3.248 0 0-2.086-3.248-2.086-3.248 0z" fill="#613f34"/><path d="m20.646 17.649c0 1.283 2.608 1.283 2.608 0 .001-1.198-2.608-1.198-2.608 0z" fill="#7d5037"/><path d="m21.275 16.963c0 .934 1.35.934 1.35 0 0-.865-1.35-.865-1.35 0z" fill="#1a1626"/><path d="m20.813 16.692c0 .471.684.471.684 0 0-.436-.684-.436-.684 0z" fill="#ab968c"/><path d="m24.973 17.186c0-2.723-5.636-2.723-5.636.432.805-2.589 4.832-2.589 5.636-.432z" fill="#45332c"/><path d="m9.297 17.205c.969 2.533 4.912 2.164 5.636.389-.545-2.852-5.104-3.096-5.636-.389z" fill="#fff"/><path d="m10.694 16.932c0 2.246 3.248 2.246 3.248 0 0-2.082-3.248-2.082-3.248 0z" fill="#613f34"/><path d="m11.015 17.651c0 1.285 2.607 1.285 2.607 0 0-1.194-2.607-1.194-2.607 0z" fill="#7d5037"/><path d="m11.644 16.967c0 .932 1.35.932 1.35 0-.001-.865-1.35-.865-1.35 0z" fill="#1a1626"/><path d="m11.182 16.695c0 .471.682.471.682 0-.001-.435-.682-.435-.682 0z" fill="#ab968c"/><path d="m9.297 17.186c0-2.723 5.636-2.723 5.636.43-.805-2.589-4.832-2.589-5.636-.43z" fill="#45332c"/><path d="m25.242 4.563c-5.089 5.207-.233 5.543 2.766 12.865 1.683 4.102 2.745 9.197 3.893 1.855 1.43-9.173-4.075-15.488-6.659-14.72z" fill="#594640"/><path d="m12.752 2.569c-6.451 1.515-12.465 7.21-10.088 18.417 1.406 6.623 3.2-2.607 4.399-4.9 6.121-3.639 16.587-6.392 18.179-11.523.807-1.184-6.034-3.684-12.49-1.994z" fill="#594640"/><path d="m7.811 10.733c2.728-.553 15.779-.814 17.431-6.17-3.085 2.455-6.279 3.125-17.431 6.17z" fill="#453631"/><path d="m3.104 19.252c4.577-6.104 19.573-5.43 22.138-14.689-4.978 7.771-20.887 8.824-22.138 14.689z" fill="#453631"/><path d="m23.732 5.832c-1.182 1.859 2.923-.873 7.349 11.103-1.091-7.001-4.827-11.822-7.349-11.103z" fill="#453631"/><path d="m58.611 32.738c-7.696-5.117-15.261-5.117-22.957 0-2.442 1.623-2.947 7.74-3.255 13.037h4.339v16.225h20.789v-16.224h4.339c-.307-5.297-.812-11.415-3.255-13.038z" fill="#7ab51d"/><path d="m54.743 50.074 2-4.298v-7.299z" fill="#529320"/><path d="m9.524 50.059-2-4.283v-7.315z" fill="#732eb0"/><path d="m37.522 46.074h-1.407l1.407-7.597z" fill="#7ab51d"/><path d="m37.522 62h-4.024l-1.099-16.225s2.562-.658 5.123 0z" fill="#fc6"/><path d="m51.342 29.674c0-.723 0-3.932 0-3.932h-8.418v3.932c0 4.23 8.418 4.23 8.418 0z" fill="#e6b045"/><path d="m36.423 14.672c-3.585-.645-.785 9.361 2.017 6.601 1.301-1.281-.343-6.298-2.017-6.601z" fill="#e6b045"/><path d="m57.849 14.672c-1.676.303-3.32 5.32-2.018 6.601 2.804 2.76 5.598-7.246 2.018-6.601z" fill="#e6b045"/><path d="m47.135 2.942c-7.408 0-10.978 5.598-10.53 13.381.09 1.566 1.062 6.674 1.979 8.506.939 1.873 4.08 4.764 6.005 5.361 1.215.379 3.877.379 5.094 0 1.923-.598 5.066-3.488 6.003-5.361.92-1.832 1.89-6.939 1.979-8.506.447-7.784-3.123-13.381-10.53-13.381z" fill="#fc6"/><path d="m47.135 24.131c-1.667-.49-4.135.232-4.135.232.939 1.023 1.629 2.348 4.135 2.348 2.87 0 3.359-1.504 4.136-2.348-.001 0-2.471-.724-4.136-.232z" fill="#e6a400"/><path d="m43.63 24.535c1.747 1.463 5.275 1.473 7.031 0-1.861.08-5.156.08-7.031 0z" fill="#fff"/><path d="m49.434 21.379c0 1.492-4.596 1.492-4.596 0 0-.342 4.596-.342 4.596 0z" fill="#e6b045"/><path d="m47.135 2.942c-5.096 0-8.176 1.68-9.504 1.035 0 0-.144.867.376 1.433 0 0-.548.475-1.434-.326-.845 2.738 1.661 4.326 10.562 4.326s6.773-2.166 11.151 1.637c-.429-4.687-3.411-8.105-11.151-8.105z" fill="#594640"/><path d="m50.903 7.026c-4.9 1.809-6.691-1.453-11.315-1.768 2.2 1.037 3.273 2.635 5.078 3.785-3.931-1.312-6.813-3.574-7.033-5.059 0 0-.655 2.168 1.938 3.789-2.479.228-2.996-2.682-2.996-2.682-1.257 2.016-1.084 8.514.312 13.338.231-1.723-.297-2.434.5-4.506 2.383-6.199.85-3.598 9.749-3.598 8.901 0 7.295-2.371 9.751 3.598.731 1.777.266 2.783.499 4.506 2.926-10.876-1.283-13.319-6.483-11.403z" fill="#453631"/><path d="m55.065 16.926c-.99 2.588-5.017 2.207-5.754.394.56-2.908 5.21-3.156 5.754-.394z" fill="#fff"/><path d="m39.203 16.926c.99 2.588 5.017 2.207 5.754.394-.559-2.91-5.21-3.158-5.754-.394z" fill="#fff"/><path d="m55.477 13.809c-1.694-.84-4.936-.881-6.146-.295-.258.113-.087.908.132.834 1.684-.625 4.398-.639 5.974.053.21.087.296-.475.04-.592z" fill="#c1873c"/><path d="m38.793 13.809c1.692-.84 4.936-.881 6.144-.295.26.113.088.908-.129.834-1.686-.625-4.398-.639-5.976.053-.21.087-.295-.475-.039-.592z" fill="#c1873c"/><path d="m50.339 16.649c0 2.271 3.289 2.271 3.289 0 0-2.108-3.289-2.108-3.289 0z" fill="#613f34"/><path d="m50.663 17.375c0 1.305 2.64 1.305 2.64 0 0-1.209-2.64-1.209-2.64 0z" fill="#7d5037"/><path d="m51.3 16.686c0 .941 1.366.941 1.366 0 0-.877-1.366-.877-1.366 0z" fill="#1a1626"/><path d="m50.834 16.41c0 .475.689.475.689 0 0-.443-.689-.443-.689 0z" fill="#ab968c"/><path d="m40.642 16.649c0 2.271 3.289 2.271 3.289 0 0-2.108-3.289-2.108-3.289 0z" fill="#613f34"/><path d="m40.967 17.375c0 1.301 2.64 1.301 2.64 0-.001-1.209-2.64-1.209-2.64 0z" fill="#7d5037"/><path d="m41.604 16.686c0 .941 1.364.941 1.364 0 .001-.877-1.364-.877-1.364 0z" fill="#1a1626"/><path d="m41.138 16.408c0 .477.688.477.688 0 0-.441-.688-.441-.688 0z" fill="#ab968c"/><path d="m55.065 16.904c0-2.779-5.754-2.779-5.754.441.822-2.64 4.932-2.64 5.754-.441z" fill="#e6b045"/><path d="m39.203 16.904c0-2.779 5.754-2.779 5.754.439-.821-2.64-4.933-2.64-5.754-.439z" fill="#e6b045"/><path d="m29.138 54.67c-.982-.688-5.299-2.494-5.299-2.494h-4.797s-4.318 1.811-5.307 2.494c-1.656 1.145-2.207 7.33-2.207 7.33h19.793s-.547-6.189-2.183-7.33z" fill="#e32b56"/><path d="m24.349 52.84c0-.539 0-2.926 0-2.926h-5.85v2.926c0 2.365 5.85 2.365 5.85 0z" fill="#e6b045"/><path d="m13.919 43.938c-7.076 4.172-.856 7.969-2.869 9.768 3.914 2.425 13.494-1.755 2.869-9.768z" fill="#594640"/><path d="m11.806 45.522c1.736 6.66 5.311 6.891 5.012 8.096 3.322-1.741 3.353-7.354-5.012-8.096z" fill="#453631"/><path d="m28.931 43.938c7.076 4.172.855 7.969 2.871 9.768-3.912 2.425-13.494-1.755-2.871-9.768z" fill="#594640"/><path d="m31.044 45.522c-1.734 6.66-5.311 6.891-5.01 8.096-3.322-1.741-3.355-7.354 5.01-8.096z" fill="#453631"/><path d="m11.747 43.77h19.348c2.816-15.123-22.164-15.123-19.348 0z" fill="#594640"/><path d="m11.722 43.582s11.016 4.105 18.652-.65c-1.543.291-4.051-5.605-15.775-6.047-.43 6.697-2.491 4.879-2.877 6.697z" fill="#453631"/><path d="m30.186 42.69c.822-11.314-18.359-11.314-17.535 0 .715-9.502 16.819-9.502 17.535 0z" fill="#cfd8dd"/><path d="m30.186 42.324c.822-11.314-18.359-11.314-17.535 0 .715-9.502 16.819-9.502 17.535 0z" fill="#fff"/><path d="m12.854 42.768c-3.336-.506-1.162 7.363 1.451 5.193 1.214-1.008.114-4.955-1.451-5.193z" fill="#e6b045"/><path d="m29.983 42.768c-1.561.238-2.66 4.185-1.451 5.193 2.615 2.168 4.787-5.699 1.451-5.193z" fill="#e6b045"/><path d="m29.874 42.785c-3.195-.91-7.289-5.256-15.07-4.729.137 1.707-.313 3.645-1.814 4.734 0 0-.006 1.535.543 4.346.895 4.602 4.617 6.406 7.887 6.406 3.273 0 6.994-1.805 7.891-6.406.545-2.812.563-4.351.563-4.351z" fill="#fc6"/><path d="m27.669 44.295c-.777 2.035-3.943 1.738-4.525.313.441-2.289 4.097-2.485 4.525-.313z" fill="#fff"/><path d="m23.952 44.078c0 1.787 2.586 1.787 2.586 0 0-1.658-2.586-1.658-2.586 0z" fill="#613f34"/><path d="m24.208 44.649c0 1.025 2.074 1.025 2.074 0 0-.95-2.074-.95-2.074 0z" fill="#7d5037"/><path d="m24.706 44.106c0 .742 1.076.742 1.076 0 0-.688-1.076-.688-1.076 0z" fill="#1a1626"/><path d="m24.343 43.889c0 .377.541.377.541 0 0-.348-.541-.348-.541 0z" fill="#ab968c"/><path d="m27.669 44.279c0-2.186-4.525-2.186-4.525.346.646-2.076 3.878-2.076 4.525-.346z" fill="#e6b045"/><path d="m15.196 44.295c.775 2.035 3.943 1.738 4.525.313-.439-2.291-4.095-2.487-4.525-.313z" fill="#fff"/><path d="m16.329 44.078c0 1.785 2.586 1.785 2.586 0 0-1.658-2.586-1.658-2.586 0z" fill="#613f34"/><path d="m16.585 44.649c0 1.023 2.072 1.023 2.072 0 0-.95-2.072-.95-2.072 0z" fill="#7d5037"/><path d="m17.083 44.106c0 .74 1.074.74 1.074 0 0-.688-1.074-.688-1.074 0z" fill="#1a1626"/><path d="m16.718 43.889c0 .375.543.375.543 0 0-.348-.543-.348-.543 0z" fill="#ab968c"/><path d="m15.196 44.279c0-2.186 4.525-2.186 4.525.346-.644-2.078-3.88-2.078-4.525-.346z" fill="#e6b045"/><path d="m28.087 42.065c-1.35-.672-3.938-.703-4.9-.236-.207.09-.07.725.105.666 1.34-.498 3.504-.51 4.764.043.166.07.236-.382.031-.473z" fill="#c1873c"/><path d="m14.776 42.065c1.354-.672 3.939-.703 4.904-.236.207.09.068.725-.104.666-1.344-.498-3.51-.51-4.768.043-.166.07-.235-.382-.032-.473z" fill="#c1873c"/><path d="m21.433 49.731c-1.328-.391-3.299.184-3.299.184.75.814 1.303 1.875 3.299 1.875 2.289 0 2.682-1.201 3.299-1.875-.001-.001-1.973-.577-3.299-.184z" fill="#e6a400"/><path d="m18.636 50.053c1.395 1.168 4.211 1.174 5.611 0-1.488.062-4.113.062-5.611 0z" fill="#fff"/><path d="m23.267 47.981c0 1.189-3.666 1.189-3.666 0 0-.274 3.666-.274 3.666 0z" fill="#e6b045"/><path d="m50.289 54.67c-.982-.688-5.299-2.494-5.299-2.494h-4.797s-4.318 1.811-5.307 2.494c-1.656 1.145-2.206 7.33-2.206 7.33h19.793s-.547-6.189-2.184-7.33z" fill="#e32b56"/><path d="m45.5 52.84c0-.539 0-2.926 0-2.926h-5.85v2.926c0 2.365 5.85 2.365 5.85 0z" fill="#e6b045"/><path d="m35.07 43.938c-7.076 4.172-.855 7.969-2.869 9.768 3.914 2.425 13.494-1.755 2.869-9.768z" fill="#594640"/><path d="m32.957 45.522c1.736 6.66 5.311 6.891 5.012 8.096 3.322-1.741 3.353-7.354-5.012-8.096z" fill="#453631"/><path d="m50.082 43.938c7.076 4.172.855 7.969 2.871 9.768-3.912 2.425-13.494-1.755-2.871-9.768z" fill="#594640"/><path d="m52.195 45.522c-1.734 6.66-5.311 6.891-5.01 8.096-3.322-1.741-3.355-7.354 5.01-8.096z" fill="#453631"/><path d="m32.898 43.77h19.348c2.816-15.123-22.164-15.123-19.348 0z" fill="#594640"/><path d="m32.873 43.582s11.016 4.105 18.652-.65c-1.543.291-4.051-5.605-15.775-6.047-.43 6.697-2.49 4.879-2.877 6.697z" fill="#453631"/><path d="m51.338 42.69c.822-11.314-18.359-11.314-17.535 0 .715-9.502 16.818-9.502 17.535 0z" fill="#cfd8dd"/><path d="m51.338 42.324c.822-11.314-18.359-11.314-17.535 0 .715-9.502 16.818-9.502 17.535 0z" fill="#fff"/><path d="m34.006 42.768c-3.336-.506-1.162 7.363 1.451 5.193 1.213-1.008.113-4.955-1.451-5.193z" fill="#e6b045"/><path d="m51.135 42.768c-1.561.238-2.66 4.185-1.451 5.193 2.615 2.168 4.787-5.699 1.451-5.193z" fill="#e6b045"/><path d="m51.025 42.785c-3.195-.91-7.289-5.256-15.07-4.729.137 1.707-.313 3.645-1.815 4.734 0 0-.006 1.535.543 4.346.894 4.602 4.617 6.406 7.887 6.406 3.273 0 6.994-1.805 7.891-6.406.547-2.812.564-4.351.564-4.351z" fill="#fc6"/><path d="m48.82 44.295c-.777 2.035-3.943 1.738-4.525.313.441-2.289 4.098-2.485 4.525-.313z" fill="#fff"/><path d="m45.103 44.078c0 1.787 2.586 1.787 2.586 0 0-1.658-2.586-1.658-2.586 0z" fill="#613f34"/><path d="m45.359 44.649c0 1.025 2.074 1.025 2.074 0 .001-.95-2.074-.95-2.074 0z" fill="#7d5037"/><path d="m45.857 44.106c0 .742 1.076.742 1.076 0 .001-.688-1.076-.688-1.076 0z" fill="#1a1626"/><path d="m45.494 43.889c0 .377.541.377.541 0 0-.348-.541-.348-.541 0z" fill="#ab968c"/><path d="m48.82 44.279c0-2.186-4.525-2.186-4.525.346.646-2.076 3.879-2.076 4.525-.346z" fill="#e6b045"/><path d="m36.348 44.295c.775 2.035 3.943 1.738 4.525.313-.439-2.291-4.096-2.487-4.525-.313z" fill="#fff"/><path d="m37.48 44.078c0 1.785 2.586 1.785 2.586 0 0-1.658-2.586-1.658-2.586 0z" fill="#613f34"/><path d="m37.736 44.649c0 1.023 2.072 1.023 2.072 0 .001-.95-2.072-.95-2.072 0z" fill="#7d5037"/><path d="m38.234 44.106c0 .74 1.074.74 1.074 0 .001-.688-1.074-.688-1.074 0z" fill="#1a1626"/><path d="m37.869 43.889c0 .375.543.375.543 0 0-.348-.543-.348-.543 0z" fill="#ab968c"/><path d="m36.348 44.279c0-2.186 4.525-2.186 4.525.346-.645-2.078-3.881-2.078-4.525-.346z" fill="#e6b045"/><path d="m49.238 42.065c-1.35-.672-3.938-.703-4.9-.236-.207.09-.07.725.106.666 1.34-.498 3.504-.51 4.764.043.165.07.235-.382.03-.473z" fill="#c1873c"/><path d="m35.928 42.065c1.354-.672 3.939-.703 4.904-.236.207.09.068.725-.104.666-1.344-.498-3.51-.51-4.768.043-.167.07-.235-.382-.032-.473z" fill="#c1873c"/><path d="m42.584 49.731c-1.328-.391-3.299.184-3.299.184.75.814 1.303 1.875 3.299 1.875 2.289 0 2.682-1.201 3.299-1.875 0-.001-1.973-.577-3.299-.184z" fill="#e6a400"/><path d="m39.787 50.053c1.395 1.168 4.211 1.174 5.611 0-1.488.062-4.113.062-5.611 0z" fill="#fff"/><path d="m44.418 47.981c0 1.189-3.666 1.189-3.666 0 0-.274 3.666-.274 3.666 0z" fill="#e6b045"/><g fill="#fc6"><path d="m12.235 57.492c.806.49 2.559-2.121 1.822-2.713-4.497-3.604-6.533-9.004-6.533-9.004-2.283-.691-5.123 0-5.123 0 .291 5.366 5.914 9.325 9.834 11.717z"/><path d="m15.761 53.645c1.666-.393 4.767 1.096 3.01 1.477.396.463.348 1.004-.982.637.511.459-.337.818-1.015.654.201 1.16-2.218.477-2.942.84-1.036.52-1.259.83-1.523.678-1.93-1.111.686-3.64 3.452-4.286z"/><path d="m52.032 57.492c-.806.49-2.559-2.121-1.822-2.713 4.497-3.604 6.533-9.004 6.533-9.004 2.283-.691 5.123 0 5.123 0-.291 5.366-5.914 9.325-9.834 11.717z"/><path d="m48.507 53.645c-1.666-.393-4.767 1.096-3.01 1.477-.396.463-.348 1.004.982.637-.511.459.337.818 1.015.654-.201 1.16 2.218.477 2.941.84 1.036.52 1.259.83 1.523.678 1.931-1.111-.686-3.64-3.451-4.286z"/></g></svg>