<svg enable-background="new 0 0 64 64" height="64" viewBox="0 0 64 64" width="64" xmlns="http://www.w3.org/2000/svg"><path d="m32 2c-28.695 0-25.928 23-25.928 33.75h51.855c0-10.75 2.766-33.75-25.927-33.75z" fill="#614036"/><path d="m8.634 31.432c-9.108-1.393-3.174 20.217 3.957 14.258 3.305-2.765.305-13.606-3.957-14.258z" fill="#755035"/><path d="m55.367 31.432c-4.264.652-7.264 11.493-3.959 14.258 7.133 5.957 13.064-15.651 3.959-14.258z" fill="#755035"/><path d="m55.07 30.978c0-15.339-9.059-11.925-23.07-11.925-14.008 0-23.068-3.414-23.068 11.925 0 0 .051 5.844 1.543 13.521 2.445 12.568 12.597 17.501 21.525 17.501s19.084-4.933 21.525-17.501c1.494-7.681 1.545-13.521 1.545-13.521z" fill="#916b50"/><path d="m31.525 13.294c-4.191 7.471-19.887 12.143-25.281 11.656 4.885-4.94 7.055-17.659 25.281-11.656z" fill="#614036"/><path d="m6.244 24.95c6.869-1.794 15.791-5.453 25.281-11.656-4.191 7.471-17.975 13.367-25.281 11.656z" fill="#4a2e24"/><path d="m52.701 12.891c-5.93 8.899-28.135 14.463-35.768 13.884 6.91-5.885 9.981-21.034 35.768-13.884z" fill="#614036"/><path d="m16.933 26.774c18.244-5.071 35.768-13.884 35.768-13.884-5.93 8.899-22.459 15.173-35.768 13.884z" fill="#4a2e24"/><path d="m53.564 10.848c7.109 11.578-11.396 16.326-19.043 15.859 6.856-4.519 11.455-16.222 19.043-15.859z" fill="#614036"/><path d="m34.521 26.707c9.195-4.219 23.209-5.081 19.043-15.859 7.11 11.578-10.935 16.904-19.043 15.859z" fill="#4a2e24"/><path d="m49.017 35.735c-2.125 5.559-10.764 4.744-12.348.854 1.202-6.25 11.18-6.785 12.348-.854z" fill="#fff"/><path d="m38.875 35.143c0 4.879 7.059 4.879 7.059 0-.001-4.529-7.059-4.529-7.059 0z" fill="#613f34"/><path d="m39.574 36.704c0 2.798 5.66 2.798 5.66 0 0-2.597-5.66-2.597-5.66 0z" fill="#7d5037"/><path d="m40.939 35.22c0 2.025 2.93 2.025 2.93 0 0-1.879-2.93-1.879-2.93 0z" fill="#1a1626"/><path d="m39.939 34.629c0 1.023 1.479 1.023 1.479 0 0-.949-1.479-.949-1.479 0z" fill="#ab968c"/><path d="m49.017 35.693c0-5.969-12.348-5.969-12.348.945 1.764-5.672 10.585-5.672 12.348-.945z" fill="#755035"/><path d="m14.984 35.735c2.123 5.559 10.766 4.744 12.346.854-1.201-6.253-11.176-6.787-12.346-.854z" fill="#fff"/><path d="m18.072 35.142c0 4.879 7.057 4.879 7.057 0 0-4.529-7.057-4.529-7.057 0z" fill="#613f34"/><path d="m18.769 36.702c0 2.798 5.662 2.798 5.662 0 0-2.596-5.662-2.596-5.662 0z" fill="#7d5037"/><path d="m20.136 35.219c0 2.024 2.928 2.024 2.928 0 0-1.88-2.928-1.88-2.928 0z" fill="#1a1626"/><path d="m19.134 34.627c0 1.023 1.479 1.023 1.479 0 0-.949-1.479-.949-1.479 0z" fill="#ab968c"/><path d="m14.984 35.693c0-5.969 12.346-5.969 12.346.943-1.762-5.674-10.582-5.674-12.346-.943z" fill="#755035"/><g fill="#664129"><path d="m50.158 29.641c-3.688-1.83-10.744-1.919-13.373-.643-.563.247-.191 1.982.283 1.816 3.664-1.357 9.572-1.39 13.002.117.455.193.646-1.035.088-1.29z"/><path d="m13.845 29.641c3.688-1.83 10.742-1.919 13.373-.643.563.247.191 1.982-.281 1.816-3.67-1.357-9.574-1.39-13.006.117-.455.193-.644-1.035-.086-1.29z"/><path d="m32.002 50.581c-3.627-1.066-9 .506-9 .506 2.047 2.229 3.547 5.121 9 5.121 6.248 0 7.311-3.283 9-5.121 0 0-5.377-1.578-9-.506z"/></g><path d="m24.375 51.464c3.801 3.19 11.48 3.21 15.301 0-4.051.174-11.221.176-15.301 0z" fill="#fff"/><path d="m37.002 45.803c0 3.254-10 3.254-10 0 0-.747 10-.747 10 0z" fill="#755035"/></svg>