<svg enable-background="new 0 0 64 64" height="64" viewBox="0 0 64 64" width="64" xmlns="http://www.w3.org/2000/svg"><path d="m45.819 61.998c0-15.812-27.909-16.185-27.909 0z" fill="#2e1d17"/><path d="m15.845 16.253c-10.892 46.746-9.894 45.745 13.032 45.745-12.688-8.876 11.616-46.381-13.032-45.745z" fill="#40281f"/><path d="m11.916 15.529c-7.947 35.516-1.09 44.636 4.998 46.469h6.979c-16.327-11.503 9.193-47.168-11.977-46.469z" fill="#4a2e24"/><path d="m47.887 16.251c10.891 46.746 9.893 45.745-13.031 45.745 11.666-7.123-11.62-46.381 13.031-45.745z" fill="#40281f"/><path d="m51.813 15.527c11.619 32.312-.025 44.973-4.998 46.469h-6.975c16.326-10.562-9.193-47.168 11.973-46.469z" fill="#4a2e24"/><path d="m32 5.019c-14.513 0-21.503 11.818-20.63 27.014.18 3.055 1.029 7.461 2.078 11.236 2.176 7.847 13.662 15.75 18.552 15.75 4.889 0 16.373-7.902 18.551-15.75 1.049-3.775 1.898-8.182 2.078-11.236.871-15.196-6.115-27.014-20.629-27.014z" fill="#916b50"/><path d="m47.676 32.446c-1.939 5.074-9.826 4.33-11.27.779 1.096-5.706 10.204-6.195 11.27-.779z" fill="#fff"/><path d="m16.324 32.446c1.939 5.074 9.829 4.332 11.274.779-1.096-5.706-10.206-6.195-11.274-.779z" fill="#fff"/><path d="m32 46.483c-3.527-1.551-3.555-.063-9.001.303 2.045 2.32 3.55 5.305 8.999 5.305 6.254 0 7.311-3.389 9.004-5.305-5.449-.365-5.472-1.853-9.002-.303z" fill="#7a421b"/><path d="m24.634 47.364c3.556 3.699 11.222 3.65 14.731.002-5.472.588-9.255.588-14.731-.002z" fill="#fff"/><path d="m47.993 26.513c-3.27-1.949-9.135-2.188-11.455-.859-.492.268-.359 1.676.064 1.5 3.311-1.379 8.354-1.447 11.461.146.416.211.426-.504-.07-.787z" fill="#423225"/><path d="m16.007 26.513c3.269-1.949 9.133-2.188 11.458-.859.492.268.361 1.676-.066 1.5-3.312-1.379-8.351-1.449-11.46.146-.418.211-.426-.504.068-.787z" fill="#423225"/><path d="m36.5 41.181c0 2.928-9 2.928-9 0 0-.672 9-.672 9 0z" fill="#755035"/><path d="m48.215 7.132c-10.174 10.427-.463 11.101 5.531 25.759 3.363 8.214.035 25.072-6.932 29.108 7.721 0 12.424-10.688 14.717-25.388 2.866-18.369-8.144-31.013-13.316-29.479z" fill="#614036"/><path d="m23.236 3.139c-12.903 3.037-24.932 14.439-20.174 36.88 2.813 13.267 6.273 21.979 13.852 21.979-8.449-8.749-7.455-27.2-5.053-31.791 12.24-7.284 33.173-12.801 36.354-23.075 1.616-2.371-12.064-7.376-24.979-3.993z" fill="#614036"/><g fill="#4a2e24"><path d="m13.351 19.485c5.455-1.107 31.563-1.628 34.864-12.354-6.17 4.918-12.558 6.257-34.864 12.354z"/><path d="m3.941 36.546c9.156-12.218 39.146-10.869 44.275-29.414-9.958 15.564-41.773 17.669-44.275 29.414z"/><path d="m45.198 9.674c-2.361 3.722 5.848-1.747 14.695 22.231-2.18-14.018-9.656-23.671-14.695-22.231z"/></g><path d="m38.383 31.895c0 4.495 6.5 4.495 6.5 0 0-4.172-6.5-4.172-6.5 0z" fill="#613f34"/><path d="m39.026 33.332c0 2.578 5.215 2.578 5.215 0 0-2.392-5.215-2.392-5.215 0z" fill="#7d5037"/><path d="m40.284 31.965c0 1.865 2.699 1.865 2.699 0 0-1.732-2.699-1.732-2.699 0z" fill="#1a1626"/><path d="m39.362 31.42c0 .943 1.363.943 1.363 0 0-.875-1.363-.875-1.363 0z" fill="#ab968c"/><path d="m19.119 31.901c0 4.495 6.5 4.495 6.5 0 0-4.171-6.5-4.171-6.5 0z" fill="#613f34"/><path d="m19.761 33.339c0 2.578 5.215 2.578 5.215 0 0-2.392-5.215-2.392-5.215 0z" fill="#7d5037"/><path d="m21.019 31.972c0 1.865 2.699 1.865 2.699 0 0-1.732-2.699-1.732-2.699 0z" fill="#1a1626"/><path d="m20.097 31.427c0 .943 1.363.943 1.363 0 0-.875-1.363-.875-1.363 0z" fill="#ab968c"/><path d="m47.676 32.407c0-5.451-11.27-5.451-11.27.863 1.608-5.181 9.663-5.181 11.27-.863z" fill="#45332c"/><path d="m16.324 32.407c0-5.451 11.274-5.451 11.274.861-1.61-5.181-9.665-5.181-11.274-.861z" fill="#45332c"/></svg>