<svg enable-background="new 0 0 64 64" height="64" viewBox="0 0 64 64" width="64" xmlns="http://www.w3.org/2000/svg"><path d="m43.479 32.738c-7.696-5.117-15.261-5.117-22.957 0-2.442 1.623-4.947 6.74-5.255 12.037l6.339 1v16.225h20.789v-16.225l6.339-1c-.308-5.296-2.813-10.414-5.255-12.037z" fill="#7ab51d"/><path d="m36.209 29.674c0-.723 0-3.932 0-3.932h-8.418v3.932c0 4.23 8.418 4.23 8.418 0z" fill="#e6b045"/><path d="m21.29 14.672c-3.585-.645-.785 9.361 2.018 6.601 1.3-1.281-.344-6.298-2.018-6.601z" fill="#e6b045"/><path d="m42.716 14.672c-1.676.303-3.32 5.32-2.019 6.601 2.805 2.76 5.599-7.246 2.019-6.601z" fill="#e6b045"/><path d="m32.002 2.941c-7.408 0-10.977 5.598-10.53 13.381.09 1.566 1.061 6.674 1.978 8.506.94 1.873 4.08 4.764 6.005 5.361 1.215.379 3.877.379 5.094 0 1.923-.598 5.066-3.488 6.003-5.361.92-1.832 1.89-6.939 1.979-8.506.448-7.783-3.122-13.381-10.529-13.381z" fill="#fc6"/><path d="m32.002 24.131c-1.667-.49-4.135.232-4.135.232.939 1.023 1.629 2.348 4.135 2.348 2.87 0 3.359-1.504 4.136-2.348 0 0-2.471-.724-4.136-.232z" fill="#e6a400"/><path d="m28.497 24.535c1.747 1.463 5.275 1.473 7.031 0-1.861.08-5.156.08-7.031 0z" fill="#fff"/><path d="m34.301 21.379c0 1.492-4.596 1.492-4.596 0 0-.342 4.596-.342 4.596 0z" fill="#e6b045"/><path d="m32.002 2.941c-5.096 0-8.176 1.68-9.504 1.035 0 0-.144.867.376 1.434 0 0-.548.475-1.435-.326-.844 2.738 1.663 4.326 10.563 4.326 8.901 0 6.773-2.166 11.151 1.637-.428-4.688-3.411-8.106-11.151-8.106z" fill="#594640"/><path d="m35.771 7.025c-4.9 1.809-6.691-1.453-11.316-1.768 2.2 1.037 3.274 2.635 5.078 3.785-3.93-1.311-6.813-3.573-7.033-5.058 0 0-.655 2.168 1.938 3.789-2.479.228-2.996-2.682-2.996-2.682-1.257 2.016-1.084 8.514.312 13.338.231-1.723-.297-2.434.5-4.506 2.383-6.199.85-3.598 9.749-3.598 8.901 0 7.295-2.371 9.751 3.598.731 1.777.266 2.783.499 4.506 2.927-10.876-1.283-13.32-6.482-11.404z" fill="#453631"/><path d="m39.933 16.926c-.99 2.588-5.018 2.207-5.754.394.559-2.908 5.21-3.156 5.754-.394z" fill="#fff"/><path d="m24.07 16.926c.99 2.588 5.017 2.207 5.754.394-.558-2.91-5.21-3.158-5.754-.394z" fill="#fff"/><path d="m40.344 13.809c-1.694-.84-4.936-.881-6.146-.295-.258.113-.087.908.132.834 1.684-.625 4.398-.639 5.974.053.211.087.297-.475.04-.592z" fill="#c1873c"/><path d="m23.66 13.809c1.692-.84 4.935-.881 6.144-.295.26.113.088.908-.129.834-1.687-.625-4.398-.639-5.976.053-.21.087-.295-.475-.039-.592z" fill="#c1873c"/><path d="m35.206 16.648c0 2.272 3.289 2.272 3.289 0 0-2.107-3.289-2.107-3.289 0z" fill="#613f34"/><path d="m35.53 17.375c0 1.305 2.64 1.305 2.64 0 0-1.209-2.64-1.209-2.64 0z" fill="#7d5037"/><path d="m36.167 16.685c0 .941 1.366.941 1.366 0 0-.876-1.366-.876-1.366 0z" fill="#1a1626"/><path d="m35.701 16.41c0 .475.69.475.69 0 0-.443-.69-.443-.69 0z" fill="#ab968c"/><path d="m25.509 16.648c0 2.272 3.289 2.272 3.289 0 0-2.107-3.289-2.107-3.289 0z" fill="#613f34"/><path d="m25.834 17.375c0 1.301 2.64 1.301 2.64 0 0-1.209-2.64-1.209-2.64 0z" fill="#7d5037"/><path d="m26.472 16.685c0 .941 1.364.941 1.364 0 0-.876-1.364-.876-1.364 0z" fill="#1a1626"/><path d="m26.005 16.408c0 .477.688.477.688 0 0-.441-.688-.441-.688 0z" fill="#ab968c"/><path d="m39.933 16.904c0-2.779-5.754-2.779-5.754.441.821-2.64 4.931-2.64 5.754-.441z" fill="#e6b045"/><path d="m24.07 16.904c0-2.779 5.754-2.779 5.754.439-.821-2.64-4.932-2.64-5.754-.439z" fill="#e6b045"/><path d="m39.713 54.669c-.982-.688-5.299-2.493-5.299-2.493h-4.797s-4.318 1.809-5.307 2.494c-1.656 1.143-2.206 7.33-2.206 7.33h19.793c-.001 0-.547-6.189-2.184-7.331z" fill="#e32b56"/><path d="m34.924 52.839c0-.538 0-2.925 0-2.925h-5.85v2.925c0 2.366 5.85 2.366 5.85 0z" fill="#e6b045"/><path d="m24.494 43.937c-7.076 4.172-.855 7.97-2.869 9.768 3.914 2.425 13.494-1.755 2.869-9.768z" fill="#594640"/><path d="m22.381 45.521c1.736 6.659 5.311 6.89 5.012 8.095 3.322-1.74 3.353-7.352-5.012-8.095z" fill="#453631"/><path d="m39.506 43.937c7.076 4.172.855 7.97 2.871 9.768-3.912 2.425-13.494-1.755-2.871-9.768z" fill="#594640"/><path d="m41.619 45.521c-1.734 6.659-5.311 6.89-5.01 8.095-3.322-1.74-3.355-7.352 5.01-8.095z" fill="#453631"/><path d="m22.322 43.769h19.348c2.816-15.123-22.164-15.123-19.348 0z" fill="#594640"/><path d="m22.297 43.582s11.016 4.105 18.652-.651c-1.543.291-4.051-5.605-15.775-6.047-.43 6.698-2.49 4.88-2.877 6.698z" fill="#453631"/><path d="m40.762 42.689c.822-11.314-18.359-11.314-17.535 0 .714-9.501 16.818-9.501 17.535 0z" fill="#cfd8dd"/><path d="m40.762 42.323c.822-11.313-18.359-11.313-17.535 0 .714-9.502 16.818-9.502 17.535 0z" fill="#fff"/><path d="m23.43 42.767c-3.336-.506-1.162 7.364 1.451 5.193 1.213-1.007.113-4.955-1.451-5.193z" fill="#e6b045"/><path d="m40.559 42.767c-1.561.238-2.66 4.186-1.451 5.193 2.615 2.169 4.787-5.699 1.451-5.193z" fill="#e6b045"/><path d="m40.449 42.785c-3.195-.91-7.289-5.256-15.07-4.729.137 1.708-.313 3.646-1.814 4.735 0 0-.006 1.535.543 4.345.895 4.602 4.617 6.407 7.887 6.407 3.273 0 6.994-1.806 7.891-6.407.546-2.812.563-4.351.563-4.351z" fill="#fc6"/><path d="m38.244 44.294c-.777 2.036-3.943 1.738-4.525.313.441-2.289 4.098-2.484 4.525-.313z" fill="#fff"/><path d="m34.527 44.078c0 1.786 2.586 1.786 2.586 0 0-1.658-2.586-1.658-2.586 0z" fill="#613f34"/><path d="m34.783 44.648c0 1.024 2.074 1.024 2.074 0 0-.95-2.074-.95-2.074 0z" fill="#7d5037"/><path d="m35.281 44.105c0 .742 1.076.742 1.076 0 0-.687-1.076-.687-1.076 0z" fill="#1a1626"/><path d="m34.918 43.889c0 .376.541.376.541 0 0-.348-.541-.348-.541 0z" fill="#ab968c"/><path d="m38.244 44.279c0-2.186-4.525-2.186-4.525.346.646-2.076 3.879-2.076 4.525-.346z" fill="#e6b045"/><path d="m25.771 44.294c.775 2.036 3.943 1.738 4.525.313-.438-2.291-4.095-2.486-4.525-.313z" fill="#fff"/><path d="m26.904 44.078c0 1.784 2.586 1.784 2.586 0 0-1.658-2.586-1.658-2.586 0z" fill="#613f34"/><path d="m27.16 44.648c0 1.022 2.072 1.022 2.072 0 .001-.95-2.072-.95-2.072 0z" fill="#7d5037"/><path d="m27.658 44.105c0 .74 1.074.74 1.074 0 .001-.687-1.074-.687-1.074 0z" fill="#1a1626"/><path d="m27.293 43.889c0 .374.543.374.543 0 0-.348-.543-.348-.543 0z" fill="#ab968c"/><path d="m25.771 44.279c0-2.186 4.525-2.186 4.525.346-.644-2.078-3.88-2.078-4.525-.346z" fill="#e6b045"/><path d="m38.662 42.063c-1.35-.672-3.938-.703-4.9-.236-.207.091-.07.726.105.666 1.34-.498 3.504-.509 4.764.043.166.07.236-.38.031-.473z" fill="#c1873c"/><path d="m25.352 42.063c1.353-.672 3.939-.703 4.904-.236.207.091.068.726-.104.666-1.344-.498-3.51-.509-4.768.043-.167.07-.235-.38-.032-.473z" fill="#c1873c"/><path d="m32.008 49.729c-1.328-.391-3.299.185-3.299.185.75.814 1.303 1.875 3.299 1.875 2.289 0 2.682-1.201 3.299-1.875 0 0-1.973-.577-3.299-.185z" fill="#e6a400"/><path d="m29.211 50.052c1.394 1.169 4.211 1.175 5.611 0-1.488.063-4.113.063-5.611 0z" fill="#fff"/><path d="m33.842 47.979c0 1.19-3.666 1.19-3.666 0 0-.273 3.666-.273 3.666 0z" fill="#e6b045"/><g fill="#fc6"><path d="m41.567 58.081c-.594.731-1.94-2.198-1.523-3.047 4.083-8.303 3.291-5.617 2.979-9.357 2.57-.556 5.711-.901 5.711-.901-.001 5.968-.001 4.484-7.167 13.305z"/><path d="m38.281 54.203c-1.562-.406-4.45 1.055-2.804 1.45-.365.459-.316 1 .925.644-.475.455.321.82.954.662-.179 1.157 2.078.494 2.758.863.974.527 1.185.84 1.431.689 1.796-1.091-.672-3.64-3.264-4.308z"/><path d="m22.434 58.081c.594.731 1.94-2.198 1.523-3.047-4.083-8.303-3.291-5.617-2.979-9.357-2.57-.556-5.711-.901-5.711-.901 0 5.968 0 4.484 7.167 13.305z"/><path d="m25.719 54.203c1.562-.406 4.45 1.055 2.804 1.45.365.459.316 1-.925.644.475.455-.321.82-.954.662.179 1.157-2.078.494-2.758.863-.974.527-1.185.84-1.431.689-1.796-1.091.672-3.64 3.264-4.308z"/></g></svg>