<svg enable-background="new 0 0 64 64" height="64" viewBox="0 0 64 64" width="64" xmlns="http://www.w3.org/2000/svg"><path d="m10.539 50.848c2.699-1.645 14.848-5.285 14.848-5.285h14.727s12.226 3.631 14.912 5.281c3.904 2.393 4.724 11.156 4.724 11.156h-54s.871-8.771 4.789-11.152" fill="#302c3b"/><path d="m24.75 48.411c0 2.239 8 13.038 8 13.038s8-10.275 8-13.038v-10.632h-16z" fill="#916b50"/><path d="m12.207 62c.576-2.209-.102-5.568-.82-7.416-.666-1.723-.414 6.199.82 7.416" fill="#1a1626"/><path d="m54.111 54.584c-.719 1.85-1.395 5.206-.82 7.415 1.236-1.214 1.488-9.138.82-7.415" fill="#1a1626"/><path d="m15.65 24.236c-5.718-1.031-1.252 14.957 3.225 10.547 2.073-2.044-.55-10.063-3.225-10.547z" fill="#755035"/><path d="m49.85 24.236c-2.675.483-5.299 8.503-3.224 10.547 4.478 4.41 8.939-11.578 3.224-10.547z" fill="#755035"/><path d="m32.75 5.488c-11.823 0-17.521 8.945-16.807 21.384.143 2.503 1.693 10.665 3.158 13.593 1.499 2.995 6.512 7.614 9.584 8.57 1.941.604 6.189.604 8.128 0 3.072-.956 8.086-5.575 9.585-8.57 1.466-2.928 3.016-11.09 3.158-13.593.715-12.438-4.981-21.384-16.806-21.384z" fill="#916b50"/><path d="m32.75 39.35c-2.66-.782-6.6.37-6.6.37 1.501 1.635 2.601 3.756 6.6 3.756 4.582 0 5.36-2.407 6.6-3.756-.001 0-3.944-1.157-6.6-.37z" fill="#664129"/><path d="m27.157 39.996c2.786 2.34 8.418 2.354 11.221 0-2.972.128-8.229.129-11.221 0z" fill="#fff"/><path d="m36.417 34.952c0 2.386-7.333 2.386-7.333 0 0-.548 7.333-.548 7.333 0z" fill="#755035"/><path d="m45.408 27.834c-1.579 4.136-8.007 3.529-9.185.635.894-4.65 8.318-5.047 9.185-.635z" fill="#fff"/><path d="m20.09 27.834c1.58 4.136 8.01 3.529 9.186.635-.894-4.652-8.316-5.049-9.186-.635z" fill="#fff"/><path d="m46.064 22.855c-2.704-1.342-7.879-1.407-9.807-.472-.412.182-.141 1.454.208 1.332 2.686-.995 7.02-1.019 9.534.086.336.142.475-.757.065-.946z" fill="#664129"/><path d="m19.435 22.855c2.704-1.342 7.878-1.407 9.807-.472.413.182.141 1.454-.206 1.332-2.691-.995-7.021-1.019-9.537.086-.334.142-.473-.757-.064-.946z" fill="#664129"/><path d="m37.863 27.393c0 3.629 5.25 3.629 5.25 0 0-3.369-5.25-3.369-5.25 0z" fill="#613f34"/><path d="m38.383 28.555c0 2.081 4.212 2.081 4.212 0 0-1.932-4.212-1.932-4.212 0z" fill="#7d5037"/><path d="m39.398 27.45c0 1.507 2.18 1.507 2.18 0 0-1.397-2.18-1.397-2.18 0z" fill="#1a1626"/><path d="m38.655 27.011c0 .761 1.101.761 1.101 0 0-.706-1.101-.706-1.101 0z" fill="#ab968c"/><path d="m22.387 27.392c0 3.63 5.25 3.63 5.25 0 0-3.369-5.25-3.369-5.25 0z" fill="#613f34"/><path d="m22.906 28.554c0 2.081 4.211 2.081 4.211 0 0-1.932-4.211-1.932-4.211 0z" fill="#7d5037"/><path d="m23.922 27.45c0 1.506 2.18 1.506 2.18 0-.001-1.398-2.18-1.398-2.18 0z" fill="#1a1626"/><path d="m23.178 27.01c0 .761 1.101.761 1.101 0-.001-.706-1.101-.706-1.101 0z" fill="#ab968c"/><path d="m45.408 27.803c0-4.44-9.185-4.44-9.185.703 1.312-4.22 7.874-4.22 9.185-.703z" fill="#755035"/><path d="m20.09 27.803c0-4.44 9.186-4.44 9.186.702-1.311-4.222-7.874-4.222-9.186-.702z" fill="#755035"/><path d="m46.644 16.503c.458 2.989.988 4.383 1.791 6.342 1.174 2.863.429 4.483.802 7.254 1.306-4.869 1.723-8.685 1.47-13.596z" fill="#4a2e24"/><path d="m18.854 16.503c-.459 2.989-.989 4.383-1.792 6.342-1.174 2.863-.428 4.483-.802 7.254-1.306-4.869-1.723-8.685-1.47-13.596z" fill="#4a2e24"/><path d="m56.744 38.039-13.834 23.961h6.93l12.101-20.961z" fill="#e6ebef"/><path d="m48.418 60.557 11.623-21.061.867.5z" fill="#cfd8dd"/><path d="m61.941 41.039c-.668 1.154-5.863-1.846-5.197-3 .668-1.155 5.863 1.845 5.197 3z" fill="#cfd8dd"/><path d="m48.715 51.948-1 1.731c-.668 1.154 4.529 4.154 5.195 3l1-1.731c-.666 1.155-5.863-1.845-5.195-3z" fill="#e81c27"/><path d="m14.723 6.938v10.612c10.486 0 18.027 3.388 18.027 3.388s7.541-3.388 18.027-3.388v-10.612z" fill="#1a1626"/><path d="m32.75 2-29.25 3.556v.937l29.25 4.445 29.25-4.445v-.937z" fill="#302c3b"/><path d="m3.5 6.493v24.054c0 .645 1 .645 1 0v-23.906z" fill="#ffcf0a"/><path d="m5 29.398c-.314-.391-1.646-.355-2 0-.178.176-.193.842 0 1 .389.313 1.646.354 2 0 .176-.177.156-.806 0-1" fill="#f0c100"/><path d="m6 37.898c0 2.209-.002 2-2 2-2 0-2 .209-2-2s.896-6 2-6 2 3.791 2 6" fill="#f0c100"/><g fill="#c79414"><path d="m3.75 39.898s.25-3.059.25-3.998l.25 3.998z"/><path d="m2.75 39.898s.25-3.059.25-3.998l.25 3.998z"/><path d="m4.75 39.898s.25-3.059.25-3.998l.25 3.998z"/></g><path d="m3.998 29.898c1.104 0 2 .895 2 2 0 1.104-.896 1.998-2 1.998s-1.998-.894-1.998-1.998c0-1.105.894-2 1.998-2" fill="#ffcf0a"/><path d="m36.827 49.051c-1.939.604-6.188.604-8.127 0-1.024-.318-2.265-1.049-3.518-1.985 6.623 5.663 8.527 5.667 15.135.021-1.244.926-2.474 1.647-3.49 1.964z" fill="#755035"/></svg>