<svg enable-background="new 0 0 64 64" height="64" viewBox="0 0 64 64" width="64" xmlns="http://www.w3.org/2000/svg"><path d="m17.783 15.476c-7.563 37.397-6.871 36.596 9.049 36.596-8.809-7.099 8.064-37.105-9.049-36.596z" fill="#5c3a2e"/><path d="m15.055 14.897c-5.518 28.414-.758 35.708 3.471 37.175h4.844c-11.337-9.201 6.384-37.734-8.315-37.175z" fill="#6b4435"/><path d="m40.031 15.475c7.563 37.396 6.869 36.595-9.049 36.595 8.102-5.697-8.066-37.104 9.049-36.595z" fill="#5c3a2e"/><path d="m42.758 14.896c8.068 25.85-.018 35.979-3.469 37.174h-4.844c11.336-8.449-6.382-37.734 8.313-37.174z" fill="#6b4435"/><path d="m44.1 28.787c2.336 6.571.025 20.057-4.811 23.286 5.359 0 8.625-8.549 10.217-20.31 1.99-14.695-9.568-14.703-5.406-2.976z" fill="#875b49"/><path d="m8.906 34.488c1.955 10.615 4.357 17.584 9.619 17.584-5.867-6.998-5.176-21.76-3.51-25.433 8.501-5.827-9.411-10.102-6.109 7.849z" fill="#875b49"/><path d="m9.256 53.713c2.4-1.223 13.453-4.451 13.453-4.451h12.658s11.045 3.221 13.434 4.449c3.469 1.777 4.199 8.289 4.199 8.289h-48s.773-6.518 4.256-8.287" fill="#e6ebef"/><path d="m22.281 51.084 6.719 3.271 6.721-3.271v-7.084h-13.44z" fill="#946346"/><path d="m10.738 62c.514-1.641-.09-4.137-.727-5.512-.591-1.279-.368 4.61.727 5.512" fill="#cfd8dd"/><path d="m39.563 55.455c-1.221-.437-10.563-1.1-10.563-1.1s8.238 1.023 9.322 1.508c1.084.487 1.241 6.137 1.241 6.137h1.24s-.02-6.107-1.24-6.545z" fill="#cfd8dd"/><g fill="#068ac7"><path d="m27.91 51.094c-6.389-1.576-5.455-4.506-5.455-4.506s-1.092.125-1.092 2.512c0 5.256 7.637 5.256 7.637 5.256s-.887-3.211-1.09-3.262"/><path d="m35.547 46.588s.928 2.93-5.455 4.506c-.205.051-1.092 3.261-1.092 3.261s7.637 0 7.637-5.256c0-2.386-1.09-2.511-1.09-2.511"/><path d="m22.455 57.844c.9 0 1.637.672 1.637 1.5 0 .83-.736 1.5-1.637 1.5-.906 0-1.637-.67-1.637-1.5 0-.828.731-1.5 1.637-1.5"/><path d="m35.547 57.844c.902 0 1.635.672 1.635 1.5 0 .83-.732 1.5-1.635 1.5-.906 0-1.637-.67-1.637-1.5 0-.828.731-1.5 1.637-1.5"/></g><path d="m14.828 62h28.344" fill="none"/><path d="m29 6.489c-11.609 0-17.201 9.455-16.502 21.611.143 2.443.822 5.968 1.66 8.988 1.742 6.279 10.93 12.601 14.842 12.601 3.91 0 13.1-6.322 14.84-12.602.84-3.02 1.52-6.544 1.664-8.988.697-12.155-4.893-21.61-16.504-21.61z" fill="#b88a6f"/><path d="m29 39.66c-2.822-1.24-2.844-.049-7.199.242 1.635 1.857 2.838 4.244 7.197 4.244 5.004 0 5.85-2.711 7.203-4.244-4.359-.291-4.379-1.482-7.201-.242z" fill="#84401e"/><path d="m23.107 40.365c2.844 2.959 8.977 2.92 11.785.002-4.378.471-7.404.471-11.785-.002z" fill="#fff"/><path d="m41.795 23.684c-2.617-1.56-7.309-1.75-9.166-.688-.393.214-.287 1.341.053 1.2 2.648-1.104 6.682-1.158 9.168.117.334.17.339-.402-.055-.629z" fill="#36281d"/><path d="m16.207 23.684c2.615-1.56 7.307-1.75 9.166-.688.393.214.289 1.341-.055 1.2-2.648-1.104-6.68-1.159-9.166.117-.334.17-.341-.402.055-.629z" fill="#36281d"/><path d="m32.6 35.418c0 2.342-7.199 2.342-7.199 0-.001-.537 7.199-.537 7.199 0z" fill="#946346"/><path d="m41.541 28.431c-1.551 4.06-7.861 3.464-9.016.623.875-4.565 8.163-4.956 9.016-.623z" fill="#fff"/><path d="m34.105 27.99c0 3.596 5.201 3.596 5.201 0 .001-3.338-5.201-3.338-5.201 0z" fill="#613f34"/><path d="m34.619 29.139c0 2.063 4.172 2.063 4.172 0 0-1.913-4.172-1.913-4.172 0z" fill="#7d5037"/><path d="m35.627 28.046c0 1.492 2.158 1.492 2.158 0 0-1.385-2.158-1.385-2.158 0z" fill="#1a1626"/><path d="m34.889 27.61c0 .754 1.09.754 1.09 0 0-.699-1.09-.699-1.09 0z" fill="#ab968c"/><path d="m41.541 28.4c0-4.361-9.016-4.361-9.016.69 1.286-4.145 7.729-4.145 9.016-.69z" fill="#45332c"/><path d="m16.459 28.431c1.553 4.06 7.863 3.466 9.02.623-.877-4.565-8.165-4.956-9.02-.623z" fill="#fff"/><path d="m18.695 27.995c0 3.596 5.199 3.596 5.199 0 .001-3.337-5.199-3.337-5.199 0z" fill="#613f34"/><path d="m19.209 29.145c0 2.063 4.172 2.063 4.172 0 0-1.913-4.172-1.913-4.172 0z" fill="#7d5037"/><path d="m20.215 28.051c0 1.492 2.16 1.492 2.16 0 0-1.384-2.16-1.384-2.16 0z" fill="#1a1626"/><path d="m19.479 27.616c0 .754 1.09.754 1.09 0-.001-.7-1.09-.7-1.09 0z" fill="#ab968c"/><path d="m16.459 28.4c0-4.361 9.02-4.361 9.02.688-1.288-4.144-7.731-4.144-9.02-.688z" fill="#45332c"/><path d="m40.26 8.179c-7.064 8.342-.322 8.881 3.84 20.607 2.336 6.571 3.814 14.737 5.406 2.976 1.99-14.694-5.654-24.81-9.246-23.583z" fill="#875b49"/><path d="m22.916 4.985c-8.961 2.43-17.313 11.552-14.01 29.503 1.955 10.615 2.77-3.803 4.436-7.476 8.502-5.827 24.709-10.613 26.918-18.833 1.121-1.896-8.379-5.9-17.344-3.194z" fill="#875b49"/><path d="m16.051 18.062c3.789-.885 21.916-1.302 24.209-9.883-4.283 3.934-8.723 5.005-24.209 9.883z" fill="#6b4435"/><path d="m9.52 31.71c6.355-9.774 27.178-8.695 30.74-23.531-6.914 12.452-29.004 14.136-30.74 23.531z" fill="#6b4435"/><path d="m38.164 10.213c-1.641 2.977 4.061-1.398 10.205 17.785-1.515-11.214-6.707-18.937-10.205-17.785z" fill="#6b4435"/><path d="m29 11c-14.01 0-20.814 7-20.814 7v6.891c0-.001 6.416-2.891 20.814-2.891 14.396 0 20.813 3 20.813 3v-7s-6.803-7-20.813-7" fill="#e6ebef"/><path d="m48.523 4.804c-4.404-1.869-7.033-2.804-10.335-2.804-1.521 0-5.387 1.453-9.189 1.402-3.802.051-7.667-1.402-9.188-1.402-3.305 0-5.932.936-10.338 2.805-4.399 1.866-7.473 3.4-7.473 7.007 0 5.115 6.186 7.01 6.186 7.01s20.953-8.412 41.627 0c0 0 6.188-1.895 6.188-7.01-.001-3.607-3.075-5.141-7.478-7.008" fill="#e6ebef"/><path d="m44.254 13.832c-4.152 4.086-2.885-7.793-5.771-7.75-2.975.043-4.121 7.666-9.541 7.555-5.625-.113-5.107-8.574-8.934-8.143-3.713.418-3.363 13.486-8.859 6.338-8.489-11.043-.717 13.168-9.122.554.375 5.614 6.159 6.436 6.159 6.436 4.111-1.877 23.902-7.439 41.627 0 0 0 5.264-.646 6.082-5.895-9.77 9.862 2.503-13.013-11.641.905z" fill="#cfd8dd"/><path d="m19.998 7.607s1.32 7.402-3.654 8.285c-4.975.885-8.018-4.869-8.018-4.869 2.182 6.922-.141 7.799-.141 7.799 9.456-3.856 20.815-3.735 20.815-3.735-7.242 0-9.002-7.48-9.002-7.48" fill="#99a8ae"/><path d="m49.672 11.025s-3.041 5.752-8.018 4.869-3.654-8.287-3.654-8.287-1.758 7.48-9 7.48c0 0 11.357-.121 20.813 3.734 0 .001-2.321-.876-.141-7.796" fill="#99a8ae"/><path d="m47.787 55.262c1.486-1.43-.711-3.527-1.322-2.311-.818 1.629-1.066 3.51-2.75 5.139-.857.83-1.121 2.367-1.088 3.91h1.867s2.692-6.16 3.293-6.738z" fill="#946346"/><path d="m53.365 55.574-5.767-2.099-3.104 8.525h2.852z" fill="#1a1626"/><path d="m47.732 53.523 8.938 3.252c3.441-9.404 7.727-22.303 3.703-30.021-4.078 2.624-7.457 12.601-12.641 26.769z" fill="#cfd8dd"/><path d="m54.822 56.104 1.848.672c3.441-9.404 7.727-22.303 3.703-30.021-.432.277-.855.638-1.275 1.077 2.804 7.74-1.067 19.481-4.276 28.272z" fill="#bec3cf"/><path d="m49.441 48.836 11.375-5.303c.52-2.24.904-4.471 1.08-6.617l-9.711 4.527c-.865 2.262-1.773 4.735-2.744 7.393z" fill="#fff" opacity=".1"/><path d="m52.186 41.443 9.711-4.527c.08-.982.113-1.947.096-2.887l-8.432 3.934c-.45 1.098-.905 2.256-1.375 3.48z" fill="#fff" opacity=".2"/><path d="m58.375 29.925c-2.471 2.697-4.57 8.122-10.281 23.729l.439.16c4.432-12.111 7.375-20.584 9.842-23.889z" fill="#e6ebef"/><path d="m53.006 57.758c1.256 1.234.076 2.229-.451 2.428.643 1.305-.277 1.66-.725 1.814h-4.484c-2.691-1.357-1.023-2.32.738-2.213-4.211-.781-1.854-2.338 1.615-1.891-5.748-1.13 5.871-5.152 3.307-.138z" fill="#b88a6f"/></svg>