<svg enable-background="new 0 0 64 64" height="64" viewBox="0 0 64 64" width="64" xmlns="http://www.w3.org/2000/svg"><path d="m9.788 52.143c2.699-1.452 13.906-5.292 13.906-5.292h16.695s11.197 3.831 13.883 5.289c3.904 2.115 4.727 9.86 4.727 9.86h-54c0 0 .871-7.752 4.789-9.857z" fill="#e6ebef"/><path d="m40.499 48.257c0-1.141 0-6.203 0-6.203h-17v6.203c0 5.021 17 5.021 17 0z" fill="#946346"/><path d="m11.456 62c.574-1.952-.102-4.921-.818-6.556-.669-1.521-.417 5.483.818 6.556z" fill="#bec3cf"/><path d="m49.45 57.527c.102-2.172.111-3.393-.752-7.669-.209-.348-4.881-2.133-5.479-1.992.779 4.671.828 6.587.771 9.217-6.484-.156-17.502-.156-23.986.001-.057-2.631-.008-4.547.774-9.218-.6-.141-5.27 1.645-5.479 1.992-.863 4.276-.855 5.497-.754 7.669-.876.508-1.447 4.473-1.447 4.473h37.801s-.57-3.965-1.449-4.473z" fill="#006dae"/><path d="m61.2 24.303c-1.08 2.176-2.23 4.033-3.648 5.598l-1.756-.387.531 1.604c-4.338 3.863-11.109 5.557-24.416 5.557-20.322 0-26.559-5.813-29.291-12.371-2.473-5.931 60.771-4.413 58.58-.001z" fill="#c49a45"/><path d="m14.901 24.235c-5.719-1.031-1.252 14.957 3.225 10.547 2.072-2.044-.551-10.063-3.225-10.547z" fill="#946346"/><path d="m49.1 24.235c-2.674.483-5.299 8.503-3.223 10.547 4.477 4.41 8.938-11.578 3.223-10.547z" fill="#946346"/><path d="m32.001 5.487c-11.824 0-17.521 8.945-16.807 21.384.142 2.503 1.693 10.665 3.158 13.593 1.498 2.995 6.512 7.614 9.584 8.57 1.939.604 6.188.604 8.127 0 3.072-.956 8.086-5.575 9.586-8.57 1.465-2.928 3.016-11.09 3.158-13.593.715-12.438-4.982-21.384-16.806-21.384z" fill="#b88a6f"/><path d="m32.001 39.349c-2.66-.782-6.6.37-6.6.37 1.5 1.635 2.6 3.756 6.6 3.756 4.582 0 5.359-2.407 6.6-3.756-.001 0-3.944-1.156-6.6-.37z" fill="#80553c"/><path d="m26.407 39.995c2.787 2.34 8.418 2.355 11.221 0-2.971.128-8.229.129-11.221 0z" fill="#fff"/><path d="m35.667 34.951c0 2.386-7.332 2.386-7.332 0 0-.548 7.332-.548 7.332 0z" fill="#946346"/><path d="m47.577 22.074c1.146 3.819.414 5.426.785 8.163.727-2.706 1.178-5.085 1.389-8.163z" fill="#6b4435"/><path d="m16.426 22.074h-2.219c.311 3.453.787 5.922 1.436 8.163.369-2.738-.465-3.88.783-8.163z" fill="#6b4435"/><path d="m44.659 27.833c-1.58 4.136-8.008 3.529-9.186.635.895-4.65 8.319-5.047 9.186-.635z" fill="#fff"/><path d="m19.341 27.833c1.58 4.136 8.01 3.529 9.185.635-.894-4.652-8.316-5.049-9.185-.635z" fill="#fff"/><path d="m45.315 22.854c-2.705-1.342-7.879-1.407-9.807-.472-.412.182-.141 1.454.207 1.332 2.688-.995 7.019-1.019 9.535.086.335.142.475-.757.065-.946z" fill="#80553c"/><path d="m18.686 22.854c2.703-1.342 7.877-1.407 9.807-.472.412.182.141 1.454-.207 1.332-2.691-.995-7.02-1.019-9.537.086-.334.142-.473-.757-.063-.946z" fill="#80553c"/><path d="m37.114 27.392c0 3.629 5.25 3.629 5.25 0 0-3.369-5.25-3.369-5.25 0z" fill="#613f34"/><path d="m37.633 28.554c0 2.081 4.211 2.081 4.211 0 0-1.932-4.211-1.932-4.211 0z" fill="#7d5037"/><path d="m38.649 27.449c0 1.507 2.18 1.507 2.18 0 0-1.397-2.18-1.397-2.18 0z" fill="#1a1626"/><path d="m37.905 27.01c0 .761 1.102.761 1.102 0 0-.706-1.102-.706-1.102 0z" fill="#ab968c"/><path d="m21.637 27.392c0 3.63 5.25 3.63 5.25 0 0-3.37-5.25-3.37-5.25 0z" fill="#613f34"/><path d="m22.157 28.553c0 2.081 4.211 2.081 4.211 0 0-1.932-4.211-1.932-4.211 0z" fill="#7d5037"/><path d="m23.173 27.449c0 1.506 2.18 1.506 2.18 0-.001-1.398-2.18-1.398-2.18 0z" fill="#1a1626"/><path d="m22.428 27.009c0 .761 1.1.761 1.1 0 0-.706-1.1-.706-1.1 0z" fill="#ab968c"/><path d="m44.659 27.802c0-4.44-9.186-4.44-9.186.703 1.313-4.22 7.873-4.22 9.186-.703z" fill="#946346"/><path d="m19.341 27.802c0-4.44 9.185-4.44 9.185.702-1.31-4.222-7.873-4.222-9.185-.702z" fill="#946346"/><path d="m32.174 2c-5.389 0-9.185 1.77-11.002 2.291-6.877 1.973-7.955 7.658-7.955 14.225h37.91c.001-6.295-9.173-16.516-18.953-16.516z" fill="#e5bc5e"/><path d="m43.003 4.639c-2.217-.563-2.59-2.639-10.829-2.639 11.404 1.65 16.379 9.311 12.184 16.516h6.77c0-6.295-1.547-12.209-8.125-13.877z" fill="#d4ae57"/><path d="m61.2 24.303c-4.34 8.742-9.814-4.773-29.289-4.773-16.605 0-26.559 11.332-29.291 4.773-1.826-4.379.594-6.256 4.455-7.289l2.066 1.42.268-1.93c.246-.045.494-.088.744-.127l1.029 1.02.406-1.238c11.639-1.662 12.424-4.225 20.322-4.225 8.34 0 10.371 3.223 21.201 3.836l.715 1.828 2.338-1.455c5.563 1.124 6.921 4.365 5.036 8.16z" fill="#c49a45"/><path d="m53.032 54.813c-4.455 0-8.967-3.027-8.967-8.817v-8.631c0-.902 1.635-3.635 1.635-3.635s1.635 2.732 1.635 3.635v8.631c0 3.832 2.863 5.547 5.697 5.547 2.836 0 5.697-1.715 5.697-5.547v-8.631c0-.902 1.635-3.635 1.635-3.635s1.637 2.732 1.637 3.635v8.631c0 5.789-4.512 8.817-8.969 8.817z" fill="#6e8189"/><path d="m51.475 55.754h3.113v6.246h-3.113z" fill="#8a6859"/><path d="m54.669 37.365c0-.902-1.637-3.635-1.637-3.635s-1.635 2.732-1.635 3.635v19.213h3.27z" fill="#6e8189"/></svg>