<svg enable-background="new 0 0 64 64" height="64" viewBox="0 0 64 64" width="64" xmlns="http://www.w3.org/2000/svg"><path d="m6.788 51.719c2.7-1.514 13.907-5.52 13.907-5.52h16.695s11.197 3.996 13.882 5.518c3.906 2.205 4.728 10.283 4.728 10.283h-54s.869-8.084 4.788-10.281" fill="#018bc9"/><path d="m21.463 42.465h15.072v7.705h-15.072z" fill="#e6b045"/><path d="m8.912 62c.576-2.037-.099-5.133-.818-6.836-.666-1.588-.415 5.715.818 6.836" fill="#006dae"/><path d="m29 54.484h3.375v7.516h-3.375z" fill="#006dae"/><path d="m31.86 59.209c0 1.24-2.348 1.24-2.348 0s2.348-1.24 2.348 0z" fill="#018bc9"/><path d="m35.75 46.863c-2.071.836-4.364 1.314-6.75 1.314s-4.681-.479-6.75-1.314l6.75 10.961z" fill="#fff"/><path d="m19.408 45.766c-2.044 4.465-1.092 7.313-1.092 7.313 1.723-1.117 5.104-2.354 5.106-2.355-1.226 1.248-2.198 3.301-2.198 3.301 3.673.422 7.776 3.799 7.776 3.799s-5.708-11.875-9.592-12.058z" fill="#006dae"/><path d="m21.961 43.461s-1.008-.301-1.438.264c-2.529 3.35-1.688 8.09-1.688 8.09 1.724-1.121 5.164-1.451 5.166-1.451-1.228 1.25-1.751 2.656-1.751 2.656 2.595.885 6.75 4.805 6.75 4.805s-3.47-7.251-7.039-14.364z" fill="#018bc9"/><path d="m38.589 45.766c2.044 4.465 1.093 7.313 1.093 7.313-1.721-1.117-5.104-2.354-5.106-2.355 1.228 1.248 2.198 3.301 2.198 3.301-3.673.422-7.774 3.799-7.774 3.799s5.706-11.875 9.589-12.058z" fill="#006dae"/><path d="m36.037 43.461s1.008-.301 1.438.264c2.529 3.35 1.688 8.09 1.688 8.09-1.722-1.121-5.164-1.451-5.164-1.451 1.226 1.25 1.751 2.656 1.751 2.656-2.597.884-6.75 4.804-6.75 4.804s3.468-7.25 7.037-14.363z" fill="#018bc9"/><path d="m11.901 20.749c-5.719-1.031-1.252 14.957 3.225 10.547 2.072-2.044-.551-10.064-3.225-10.547z" fill="#e6b045"/><path d="m46.101 20.749c-2.674.483-5.299 8.503-3.223 10.547 4.476 4.41 8.937-11.578 3.223-10.547z" fill="#e6b045"/><path d="m29.001 2.001c-11.824 0-17.521 8.945-16.807 21.384.143 2.503 1.693 10.665 3.158 13.594 1.498 2.994 6.512 7.613 9.584 8.57 1.939.604 6.188.604 8.127 0 3.072-.957 8.086-5.576 9.586-8.57 1.465-2.929 3.016-11.091 3.158-13.594.715-12.439-4.982-21.384-16.806-21.384z" fill="#fc6"/><path d="m29.001 35.862c-2.66-.782-6.6.37-6.6.37 1.5 1.635 2.6 3.756 6.6 3.756 4.582 0 5.359-2.406 6.6-3.756 0 0-3.944-1.156-6.6-.37z" fill="#e6a400"/><path d="m23.407 36.509c2.787 2.341 8.418 2.354 11.221 0-2.971.128-8.229.129-11.221 0z" fill="#fff"/><path d="m32.667 31.465c0 2.386-7.332 2.386-7.332 0 0-.548 7.332-.548 7.332 0z" fill="#e6b045"/><path d="m29.001 2c-8.135 0-13.049 2.688-15.168 1.655 0 0-.23 1.388.6 2.291 0 0-.877.758-2.291-.521-1.348 4.377 2.652 6.913 16.859 6.913s10.813-3.46 17.797 2.616c-.686-7.489-5.444-12.954-17.797-12.954z" fill="#594640"/><path d="m35.017 8.529c-7.822 2.888-10.682-2.321-18.061-2.824 3.51 1.657 5.223 4.208 8.105 6.049-6.273-2.101-10.877-5.712-11.227-8.085 0 0-1.047 3.464 3.094 6.053-3.959.367-4.785-4.283-4.785-4.283-2.004 3.221-1.727 13.606.5 21.313.371-2.75-.475-3.887.797-7.201 3.805-9.904 1.355-5.745 15.563-5.745 14.205 0 11.641-3.793 15.561 5.745 1.17 2.844.426 4.451.799 7.201 4.669-17.378-2.048-21.285-10.346-18.223z" fill="#453631"/><path d="m41.659 24.347c-1.58 4.136-8.008 3.529-9.186.635.895-4.65 8.319-5.047 9.186-.635z" fill="#fff"/><path d="m16.341 24.347c1.58 4.136 8.01 3.529 9.186.635-.895-4.652-8.317-5.049-9.186-.635z" fill="#fff"/><path d="m42.315 19.368c-2.705-1.342-7.879-1.407-9.807-.472-.412.182-.141 1.454.207 1.332 2.688-.995 7.02-1.019 9.535.086.335.142.476-.757.065-.946z" fill="#c1873c"/><path d="m15.687 19.368c2.703-1.342 7.877-1.407 9.807-.472.412.182.141 1.454-.207 1.332-2.691-.995-7.02-1.019-9.537.086-.335.142-.474-.757-.063-.946z" fill="#c1873c"/><path d="m34.114 23.906c0 3.629 5.25 3.629 5.25 0 0-3.369-5.25-3.369-5.25 0z" fill="#613f34"/><path d="m34.634 25.067c0 2.081 4.211 2.081 4.211 0 0-1.931-4.211-1.931-4.211 0z" fill="#7d5037"/><path d="m35.649 23.963c0 1.507 2.18 1.507 2.18 0 0-1.398-2.18-1.398-2.18 0z" fill="#1a1626"/><path d="m34.905 23.523c0 .761 1.102.761 1.102 0 0-.706-1.102-.706-1.102 0z" fill="#ab968c"/><path d="m18.638 23.905c0 3.63 5.25 3.63 5.25 0 0-3.369-5.25-3.369-5.25 0z" fill="#613f34"/><path d="m19.157 25.066c0 2.081 4.211 2.081 4.211 0 0-1.931-4.211-1.931-4.211 0z" fill="#7d5037"/><path d="m20.173 23.963c0 1.506 2.18 1.506 2.18 0 0-1.399-2.18-1.399-2.18 0z" fill="#1a1626"/><path d="m19.429 23.522c0 .761 1.1.761 1.1 0-.001-.706-1.1-.706-1.1 0z" fill="#ab968c"/><path d="m41.659 24.315c0-4.44-9.186-4.44-9.186.703 1.313-4.219 7.874-4.219 9.186-.703z" fill="#e6b045"/><path d="m16.341 24.315c0-4.44 9.186-4.44 9.186.702-1.311-4.221-7.874-4.221-9.186-.702z" fill="#e6b045"/><path d="m54.177 62h-10.688s2.777-4.176 4.503-4.109c8.896.336 6.185 4.109 6.185 4.109z" fill="#018bc9"/><path d="m51.879 46.344c.277-1.473 3.28.238 2.132 2.164-.465.779 6.137 7.055 5.732 8.486-.725 2.576-6.104 3.709-6.463 4.691-.36.979-6.051-2.609-5.118-3.359 3.059-2.465.633-2.803 2.362-5.719 1.299-2.191.981-4.291 1.355-6.263z" fill="#e6b045"/><path d="m52.643 35.581h5.503v26.419h-5.503z" fill="#99a8ae"/><path d="m52.643 39.064c.838.391 1.768.617 2.753.617.984 0 1.915-.227 2.75-.617v-2.782h-5.503z" fill="#6e8189"/><path d="m58.146 25.977v6.55l-2.75 2.146-2.753-2.146v-6.55c-2.271 1.045-3.853 3.334-3.853 5.998 0 3.647 2.958 6.605 6.605 6.605s6.605-2.958 6.605-6.605c0-2.664-1.581-4.954-3.854-5.998z" fill="#99a8ae"/><path d="m61.448 31.718c0-.478-.051-.945-.147-1.395.237.634.367 1.317.367 2.032 0 3.001-2.295 5.484-5.281 5.893 2.922-.824 5.061-3.435 5.061-6.53z" fill="#6e8189"/><path d="m52.643 26.208c-1.86.838-3.226 2.627-3.522 4.775.539-1.904 1.831-3.477 3.522-4.34z" fill="#cfd8dd"/><path d="m59.192 49.799c1.763.693 1.134 2.217.735 2.648 1.221 1.035.861 2.5.515 2.855 1.242 3.504-9.172 3.957-5.264 1.389-3.161-.186-1.318-2.008.379-2.674-4.306 1.066-2.845-1.545.612-2.621-5.913 1.393 3.033-7.791 3.023-1.597z" fill="#fc6"/></svg>