<svg enable-background="new 0 0 64 64" height="64" viewBox="0 0 64 64" width="64" xmlns="http://www.w3.org/2000/svg"><path d="m38.921 9.117c-5.445 23.344-4.943 22.848 6.518 22.848-6.342-4.436 5.806-23.164-6.518-22.848z" fill="#3b2c29"/><path d="m36.958 8.756c-3.975 17.736-.545 22.291 2.498 23.209h3.49c-8.164-5.748 4.596-23.557-5.988-23.209z" fill="#453631"/><path d="m54.942 9.115c5.447 23.346 4.947 22.846-6.514 22.846 5.831-3.557-5.81-23.162 6.514-22.846z" fill="#3b2c29"/><path d="m56.909 8.756c5.805 16.135-.016 22.457-2.5 23.205h-3.49c8.162-5.275-4.596-23.555 5.99-23.205z" fill="#453631"/><path d="m57.874 17.428c1.682 4.102.018 12.52-3.465 14.537 3.859 0 6.209-5.34 7.357-12.682 1.43-9.174-6.892-9.178-3.892-1.855z" fill="#594640"/><path d="m32.53 20.986c1.406 6.623 3.135 10.979 6.926 10.979-4.223-4.371-3.727-13.586-2.527-15.879 6.121-3.639-6.776-6.307-4.399 4.9z" fill="#594640"/><path d="m37.553 32.738c7.695-5.117 13.979-4.509 19.829.491 2.411 2.061 1.686 10.314.382 16.546h-2.338v12.225h-20.789l-.34-16.225c.308-5.296.812-11.414 3.256-13.037z" fill="#8e3ed6"/><path d="m50.977 51.074h1.664l.529-11.597z" fill="#732eb0"/><path d="m50.999 29.674c0-.723 0-3.932 0-3.932h-8v3.932c0 4.23 8 4.23 8 0z" fill="#e6b045"/><path d="m46.999 3.506c-7.256 0-10.752 5.902-10.314 13.492.09 1.525.516 3.725 1.037 5.611 1.092 3.918 6.834 7.865 9.277 7.865 2.445 0 8.188-3.947 9.277-7.865.523-1.887.947-4.086 1.039-5.611.436-7.59-3.06-13.492-10.316-13.492z" fill="#fc6"/><path d="m47.001 24.213c-1.766-.773-1.777-.029-4.502.154 1.023 1.158 1.775 2.648 4.5 2.648 3.127 0 3.654-1.693 4.502-2.648-2.725-.183-2.736-.928-4.5-.154z" fill="#d47706"/><path d="m43.319 24.654c1.777 1.848 5.609 1.824 7.361 0-2.732.295-4.626.295-7.361 0z" fill="#fff"/><path d="m54.995 14.24c-1.635-.973-4.568-1.092-5.727-.428-.248.133-.18.838.033.748 1.654-.688 4.176-.723 5.729.074.209.106.213-.251-.035-.394z" fill="#594640"/><path d="m39.003 14.24c1.633-.973 4.568-1.092 5.73-.428.248.133.18.838-.035.748-1.654-.688-4.174-.723-5.729.074-.208.106-.21-.251.034-.394z" fill="#594640"/><path d="m49.251 21.566c0 1.461-4.502 1.461-4.502 0 0-.336 4.502-.336 4.502 0z" fill="#e6b045"/><path d="m54.839 17.205c-.971 2.533-4.914 2.162-5.637.389.547-2.852 5.104-3.096 5.637-.389z" fill="#fff"/><path d="m50.192 16.93c0 2.244 3.248 2.244 3.248 0 0-2.086-3.248-2.086-3.248 0z" fill="#613f34"/><path d="m50.513 17.648c0 1.283 2.607 1.283 2.607 0 0-1.197-2.607-1.197-2.607 0z" fill="#7d5037"/><path d="m51.142 16.963c0 .934 1.35.934 1.35 0-.001-.865-1.35-.865-1.35 0z" fill="#1a1626"/><path d="m50.679 16.691c0 .471.684.471.684 0-.001-.435-.684-.435-.684 0z" fill="#ab968c"/><path d="m54.839 17.186c0-2.723-5.637-2.723-5.637.432.805-2.589 4.832-2.589 5.637-.432z" fill="#45332c"/><path d="m39.163 17.205c.969 2.533 4.912 2.164 5.635.389-.545-2.852-5.104-3.096-5.635-.389z" fill="#fff"/><path d="m40.56 16.932c0 2.246 3.248 2.246 3.248 0 0-2.082-3.248-2.082-3.248 0z" fill="#613f34"/><path d="m40.88 17.65c0 1.285 2.607 1.285 2.607 0 0-1.193-2.607-1.193-2.607 0z" fill="#7d5037"/><path d="m41.509 16.967c0 .932 1.35.932 1.35 0-.001-.865-1.35-.865-1.35 0z" fill="#1a1626"/><path d="m41.048 16.695c0 .471.682.471.682 0-.001-.435-.682-.435-.682 0z" fill="#ab968c"/><path d="m39.163 17.186c0-2.723 5.635-2.723 5.635.43-.805-2.589-4.832-2.589-5.635-.43z" fill="#45332c"/><path d="m55.108 4.563c-5.09 5.207-.234 5.543 2.766 12.865 1.682 4.102 2.744 9.197 3.893 1.855 1.429-9.174-4.075-15.488-6.659-14.72z" fill="#594640"/><path d="m42.618 2.568c-6.451 1.516-12.465 7.211-10.088 18.418 1.406 6.623 3.199-2.607 4.398-4.9 6.121-3.639 16.588-6.393 18.18-11.523.807-1.184-6.035-3.684-12.49-1.995z" fill="#594640"/><path d="m37.677 10.732c2.729-.553 15.779-.814 17.432-6.17-3.087 2.456-6.28 3.126-17.432 6.17z" fill="#453631"/><path d="m32.97 19.252c4.578-6.104 19.574-5.43 22.139-14.689-4.979 7.771-20.887 8.824-22.139 14.689z" fill="#453631"/><path d="m53.599 5.832c-1.182 1.859 2.922-.873 7.348 11.104-1.091-7.002-4.827-11.823-7.348-11.104z" fill="#453631"/><path d="m8.921 9.117c-5.445 23.344-4.943 22.848 6.518 22.848-6.342-4.436 5.806-23.164-6.518-22.848z" fill="#3b2c29"/><path d="m6.958 8.756c-3.975 17.736-.545 22.291 2.498 23.209h3.49c-8.164-5.748 4.596-23.557-5.988-23.209z" fill="#453631"/><path d="m24.942 9.115c5.447 23.346 4.947 22.846-6.514 22.846 5.831-3.557-5.81-23.162 6.514-22.846z" fill="#3b2c29"/><path d="m26.909 8.756c5.805 16.135-.016 22.457-2.5 23.205h-3.49c8.162-5.275-4.596-23.555 5.99-23.205z" fill="#453631"/><path d="m27.874 17.428c1.682 4.102.018 12.52-3.465 14.537 3.859 0 6.209-5.34 7.357-12.682 1.43-9.174-6.892-9.178-3.892-1.855z" fill="#594640"/><path d="m2.53 20.986c1.406 6.623 3.135 10.979 6.926 10.979-4.223-4.371-3.727-13.586-2.527-15.879 6.121-3.639-6.776-6.307-4.399 4.9z" fill="#594640"/><path d="m26.447 32.738c-7.695-5.117-13.979-4.509-19.829.491-2.411 2.061-1.685 10.315-.382 16.546h2.338v12.225h20.789l.34-16.225c-.308-5.296-.812-11.414-3.256-13.037z" fill="#8e3ed6"/><path d="m13.023 51.074h-1.664l-.529-11.597z" fill="#732eb0"/><path d="m39.713 55.188c-4.816-3.131-10.578-3.101-15.402.001-1.657 1.062-2.206 6.811-2.206 6.811h19.793s-.546-5.752-2.185-6.812z" fill="#4abdff"/><path d="m34.926 53.426c0-.538 0-2.925 0-2.925h-5.85v2.925c0 2.366 5.85 2.366 5.85 0z" fill="#e6b045"/><path d="m32 31.984c-10.516 0-9.502 8.421-9.502 12.356h19.006c0-3.935 1.014-12.356-9.504-12.356z" fill="#594640"/><path d="m23.438 42.76c-3.34-.511-1.162 7.4 1.451 5.218 1.207-1.01.109-4.98-1.451-5.218z" fill="#e6b045"/><path d="m40.564 42.76c-1.563.238-2.662 4.208-1.451 5.218 2.614 2.182 4.789-5.729 1.451-5.218z" fill="#e6b045"/><path d="m40.455 42.592c0-5.614-3.32-4.364-8.455-4.364-5.133 0-8.453-1.25-8.453 4.364 0 0 .016 2.141.564 4.95.896 4.602 4.617 6.407 7.889 6.407s6.996-1.806 7.889-6.407c.547-2.812.566-4.95.566-4.95z" fill="#fc6"/><path d="m31.826 36.119c-1.535 2.734-7.289 4.446-9.268 4.268 1.794-1.807 2.587-6.465 9.268-4.268z" fill="#594640"/><path d="m22.559 40.387c2.52-.656 5.791-1.996 9.268-4.268-1.536 2.735-6.589 4.894-9.268 4.268z" fill="#453631"/><path d="m39.588 35.973c-2.174 3.257-10.313 5.294-13.107 5.082 2.531-2.155 3.656-7.7 13.107-5.082z" fill="#594640"/><path d="m26.48 41.055c6.686-1.857 13.107-5.082 13.107-5.082-2.173 3.256-8.23 5.553-13.107 5.082z" fill="#453631"/><path d="m39.902 35.224c2.605 4.239-4.176 5.977-6.979 5.806 2.515-1.655 4.2-5.939 6.979-5.806z" fill="#594640"/><path d="m32.924 41.029c3.369-1.544 8.506-1.859 6.979-5.806 2.605 4.24-4.007 6.189-6.979 5.806z" fill="#453631"/><path d="m38.236 44.334c-.777 2.035-3.943 1.737-4.523.313.439-2.288 4.098-2.484 4.523-.313z" fill="#fff"/><path d="m34.52 44.117c0 1.786 2.588 1.786 2.588 0-.001-1.658-2.588-1.658-2.588 0z" fill="#613f34"/><path d="m34.775 44.689c0 1.024 2.076 1.024 2.076 0 .001-.95-2.076-.95-2.076 0z" fill="#7d5037"/><path d="m35.275 44.147c0 .739 1.074.739 1.074 0 .001-.688-1.074-.688-1.074 0z" fill="#1a1626"/><path d="m34.91 43.931c0 .373.543.373.543 0 0-.347-.543-.347-.543 0z" fill="#ab968c"/><path d="m38.236 44.318c0-2.184-4.523-2.184-4.523.348.646-2.078 3.879-2.078 4.523-.348z" fill="#e6b045"/><path d="m25.766 44.334c.775 2.035 3.943 1.737 4.523.313-.441-2.289-4.094-2.484-4.523-.313z" fill="#fff"/><path d="m26.896 44.117c0 1.786 2.586 1.786 2.586 0 0-1.658-2.586-1.658-2.586 0z" fill="#613f34"/><path d="m27.152 44.688c0 1.026 2.074 1.026 2.074 0 .001-.949-2.074-.949-2.074 0z" fill="#7d5037"/><path d="m27.652 44.146c0 .741 1.074.741 1.074 0 .001-.689-1.074-.689-1.074 0z" fill="#1a1626"/><path d="m27.285 43.929c0 .375.541.375.541 0 0-.348-.541-.348-.541 0z" fill="#ab968c"/><path d="m25.766 44.318c0-2.184 4.523-2.184 4.523.346-.646-2.076-3.879-2.076-4.523-.346z" fill="#e6b045"/><path d="m38.654 42.103c-1.352-.668-3.938-.701-4.902-.234-.203.091-.068.727.105.664 1.344-.496 3.508-.509 4.766.043.166.071.238-.378.031-.473z" fill="#c1873c"/><path d="m25.346 42.103c1.354-.668 3.939-.701 4.904-.234.203.091.066.727-.104.664-1.346-.496-3.51-.509-4.768.043-.165.071-.237-.378-.032-.473z" fill="#c1873c"/><path d="m32 49.77c-1.328-.391-3.299.185-3.299.185.754.817 1.301 1.874 3.299 1.874 2.291 0 2.68-1.201 3.299-1.874 0-.001-1.971-.579-3.299-.185z" fill="#e6a400"/><path d="m29.207 50.093c1.393 1.167 4.207 1.175 5.605 0-1.484.062-4.109.064-5.605 0z" fill="#fff"/><path d="m33.832 48.021c0 1.19-3.662 1.19-3.662 0 0-.274 3.662-.274 3.662 0z" fill="#e6b045"/><path d="m13.001 29.674c0-.723 0-3.932 0-3.932h8v3.932c0 4.23-8 4.23-8 0z" fill="#e6b045"/><path d="m16.999 3.506c-7.256 0-10.752 5.902-10.314 13.492.09 1.525.516 3.725 1.037 5.611 1.092 3.918 6.834 7.865 9.277 7.865 2.445 0 8.188-3.947 9.277-7.865.523-1.887.947-4.086 1.039-5.611.436-7.59-3.06-13.492-10.316-13.492z" fill="#fc6"/><path d="m17.001 24.213c-1.766-.773-1.777-.029-4.502.154 1.023 1.158 1.775 2.648 4.5 2.648 3.127 0 3.654-1.693 4.502-2.648-2.725-.183-2.736-.928-4.5-.154z" fill="#d47706"/><path d="m13.319 24.654c1.777 1.848 5.609 1.824 7.361 0-2.732.295-4.626.295-7.361 0z" fill="#fff"/><path d="m24.995 14.24c-1.635-.973-4.568-1.092-5.727-.428-.248.133-.18.838.033.748 1.654-.688 4.176-.723 5.729.074.209.106.213-.251-.035-.394z" fill="#594640"/><path d="m9.003 14.24c1.633-.973 4.568-1.092 5.73-.428.248.133.18.838-.035.748-1.654-.688-4.174-.723-5.729.074-.208.106-.21-.251.034-.394z" fill="#594640"/><path d="m19.251 21.566c0 1.461-4.502 1.461-4.502 0 0-.336 4.502-.336 4.502 0z" fill="#e6b045"/><path d="m24.839 17.205c-.971 2.533-4.914 2.162-5.637.389.547-2.852 5.104-3.096 5.637-.389z" fill="#fff"/><path d="m20.192 16.93c0 2.244 3.248 2.244 3.248 0 0-2.086-3.248-2.086-3.248 0z" fill="#613f34"/><path d="m20.513 17.648c0 1.283 2.607 1.283 2.607 0 0-1.197-2.607-1.197-2.607 0z" fill="#7d5037"/><path d="m21.142 16.963c0 .934 1.35.934 1.35 0-.001-.865-1.35-.865-1.35 0z" fill="#1a1626"/><path d="m20.679 16.691c0 .471.684.471.684 0-.001-.435-.684-.435-.684 0z" fill="#ab968c"/><path d="m24.839 17.186c0-2.723-5.637-2.723-5.637.432.805-2.589 4.832-2.589 5.637-.432z" fill="#45332c"/><path d="m9.163 17.205c.969 2.533 4.912 2.164 5.635.389-.545-2.852-5.104-3.096-5.635-.389z" fill="#fff"/><path d="m10.56 16.932c0 2.246 3.248 2.246 3.248 0 0-2.082-3.248-2.082-3.248 0z" fill="#613f34"/><path d="m10.88 17.65c0 1.285 2.607 1.285 2.607 0 0-1.193-2.607-1.193-2.607 0z" fill="#7d5037"/><path d="m11.509 16.967c0 .932 1.35.932 1.35 0-.001-.865-1.35-.865-1.35 0z" fill="#1a1626"/><path d="m11.048 16.695c0 .471.682.471.682 0-.001-.435-.682-.435-.682 0z" fill="#ab968c"/><path d="m9.163 17.186c0-2.723 5.635-2.723 5.635.43-.805-2.589-4.832-2.589-5.635-.43z" fill="#45332c"/><path d="m25.108 4.563c-5.09 5.207-.234 5.543 2.766 12.865 1.682 4.102 2.744 9.197 3.893 1.855 1.429-9.174-4.075-15.488-6.659-14.72z" fill="#594640"/><path d="m12.618 2.568c-6.451 1.516-12.465 7.211-10.088 18.418 1.406 6.623 3.199-2.607 4.398-4.9 6.121-3.639 16.588-6.393 18.18-11.523.807-1.184-6.035-3.684-12.49-1.995z" fill="#594640"/><path d="m7.677 10.732c2.729-.553 15.779-.814 17.432-6.17-3.087 2.456-6.28 3.126-17.432 6.17z" fill="#453631"/><path d="m2.97 19.252c4.578-6.104 19.574-5.43 22.139-14.689-4.979 7.771-20.887 8.824-22.139 14.689z" fill="#453631"/><path d="m23.599 5.832c-1.182 1.859 2.922-.873 7.348 11.104-1.091-7.002-4.827-11.823-7.348-11.104z" fill="#453631"/><g fill="#fc6"><path d="m22.144 57.252c.834.419 2.585-2.339 1.718-2.713-7.489-3.228-8.343-4.729-12.667-6.762-1.697-.798-4.958 1.998-4.958 1.998 1.093 3.975 6.094 2.55 15.907 7.477z"/><path d="m26.065 53.404c1.666-.393 4.768 1.096 3.01 1.477.396.463.348 1.004-.982.637.512.459-.336.818-1.014.654.201 1.16-2.219.477-2.941.84-1.037.52-1.26.83-1.523.678-1.93-1.11.685-3.639 3.45-4.286z"/><path d="m41.856 57.252c-.834.419-2.585-2.339-1.718-2.713 7.489-3.228 8.343-4.729 12.667-6.762 1.697-.798 4.958 1.998 4.958 1.998-1.093 3.975-6.094 2.55-15.907 7.477z"/><path d="m37.935 53.404c-1.666-.393-4.768 1.096-3.01 1.477-.396.463-.348 1.004.982.637-.512.459.336.818 1.014.654-.201 1.16 2.219.477 2.941.84 1.037.52 1.26.83 1.523.678 1.93-1.11-.685-3.639-3.45-4.286z"/></g></svg>