<svg enable-background="new 0 0 64 64" height="64" viewBox="0 0 64 64" width="64" xmlns="http://www.w3.org/2000/svg"><path d="m8.105 27.32c-.572 7.352.697 12.645 5.262 17.021 5.375 5.16 20.928 5.16 26.303 0 4.564-4.377 5.834-9.67 5.262-17.021-1.651-21.18-35.744-13.87-36.827 0z" fill="#854ab8"/><path d="m8.137 53.711c2.234-1.221 11.51-4.451 11.51-4.451h13.818s9.266 3.223 11.488 4.447c3.231 1.781 3.912 8.293 3.912 8.293h-44.691s.721-6.52 3.963-8.289z" fill="#302c3b"/><path d="m20.283 51.9 6.235 9.286 6.238-9.286v-7.9h-12.473z" fill="#916b50"/><path d="m8.137 53.711c7.889-4.287 12.916-.486 12.916-.486l5.465 8.775s-8.37-9.146-18.381-8.289z" fill="#1a1626"/><path d="m6.742 53.094c7.523-8.037 13.531-6.93 13.531-6.93-2.334 5.045.176 7.506 6.244 14.828v1.008c.001 0-8.441-10.615-19.775-8.906z" fill="#4e5e67"/><path d="m8.367 52.367c5.713-5.826 11.906-6.02 11.906-6.02 0 5.832.809 5.787 6.244 14.645.001 0-7.726-9.783-18.15-8.625z" fill="#aa5bef"/><path d="m9.518 62c.475-1.641-.084-4.137-.678-5.51-.553-1.281-.344 4.608.678 5.51z" fill="#1a1626"/><path d="m44.199 56.49c-.596 1.373-1.154 3.869-.678 5.51 1.02-.902 1.231-6.791.678-5.51z" fill="#1a1626"/><path d="m44.902 53.711c-7.891-4.287-12.918-.486-12.918-.486l-5.464 8.775s8.369-9.146 18.382-8.289z" fill="#1a1626"/><path d="m46.295 53.094c-7.523-8.037-13.531-6.93-13.531-6.93 2.336 5.045-.176 7.506-6.244 14.828v1.008s8.443-10.615 19.775-8.906z" fill="#4e5e67"/><path d="m44.67 52.367c-5.713-5.826-11.906-6.02-11.906-6.02 0 5.832-.807 5.787-6.244 14.645 0 0 7.726-9.783 18.15-8.625z" fill="#aa5bef"/><path d="m19.697 45.689c6.203 7.16 7.449 7.154 13.648-.004z" fill="#755035"/><path d="m26.52 5.748c-11.609 0-17.201 9.455-16.502 21.611.143 2.443.822 5.969 1.662 8.988 1.74 6.279 10.928 12.6 14.84 12.6s13.1-6.32 14.842-12.6c.838-3.02 1.518-6.545 1.662-8.988.697-12.156-4.893-21.611-16.504-21.611z" fill="#916b50"/><path d="m39.063 27.69c-1.553 4.06-7.861 3.464-9.018.624.877-4.566 8.164-4.957 9.018-.624z" fill="#fff"/><path d="m13.98 27.69c1.551 4.06 7.861 3.466 9.018.624-.875-4.566-8.164-4.957-9.018-.624z" fill="#fff"/><path d="m26.521 38.92c-2.822-1.24-2.844-.05-7.201.242 1.637 1.856 2.84 4.244 7.199 4.244 5.002 0 5.848-2.711 7.203-4.244-4.359-.292-4.378-1.482-7.201-.242z" fill="#854ab8"/><path d="m20.629 39.625c2.844 2.959 8.977 2.92 11.783.002-4.377.47-7.404.47-11.783-.002z" fill="#fff"/><path d="m39.314 22.943c-2.615-1.56-7.307-1.75-9.164-.688-.395.215-.287 1.341.053 1.2 2.648-1.103 6.682-1.157 9.168.117.332.17.34-.402-.057-.629z" fill="#36281d"/><path d="m13.727 22.943c2.615-1.56 7.307-1.75 9.166-.688.395.215.289 1.341-.053 1.2-2.648-1.103-6.68-1.159-9.168.117-.334.17-.34-.402.055-.629z" fill="#36281d"/><path d="m30.121 34.678c0 2.342-7.201 2.342-7.201 0 0-.537 7.201-.537 7.201 0z" fill="#755035"/><path d="m31.627 27.249c0 3.596 5.199 3.596 5.199 0 0-3.337-5.199-3.337-5.199 0z" fill="#613f34"/><path d="m32.141 28.398c0 2.063 4.172 2.063 4.172 0 0-1.912-4.172-1.912-4.172 0z" fill="#7d5037"/><path d="m33.146 27.306c0 1.492 2.16 1.492 2.16 0 .001-1.386-2.16-1.386-2.16 0z" fill="#1a1626"/><path d="m32.41 26.869c0 .754 1.09.754 1.09 0 0-.699-1.09-.699-1.09 0z" fill="#ab968c"/><path d="m16.215 27.254c0 3.596 5.201 3.596 5.201 0 0-3.337-5.201-3.337-5.201 0z" fill="#613f34"/><path d="m16.729 28.404c0 2.063 4.172 2.063 4.172 0-.001-1.913-4.172-1.913-4.172 0z" fill="#7d5037"/><path d="m17.736 27.311c0 1.492 2.158 1.492 2.158 0 .001-1.385-2.158-1.385-2.158 0z" fill="#1a1626"/><path d="m16.998 26.875c0 .754 1.09.754 1.09 0 0-.699-1.09-.699-1.09 0z" fill="#ab968c"/><path d="m39.063 27.659c0-4.36-9.018-4.36-9.018.69 1.287-4.144 7.73-4.144 9.018-.69z" fill="#45332c"/><path d="m13.98 27.659c0-4.36 9.018-4.36 9.018.688-1.287-4.144-7.73-4.144-9.018-.688z" fill="#45332c"/><path d="m39.883 43.633c6.674-13.854.174-29.597-5.576-31.7 3.437-13.596 24.25 13.637 5.576 31.7z" fill="#aa5bef"/><path d="m44.537 40.553c7.082-24.653-11.252-31.028-8.014-35.251 2.002-6.184 21.272 14.9 8.014 35.251z" fill="#c28fef"/><path d="m36.859 8.717c-2.559 2.466 6.01 1.516 9.313 20.477-.178-16.212-8.014-21.713-9.313-20.477z" fill="#854ab8"/><path d="m26.711 4.734c-17.984.174-27.895 22.348-19.574 41.893-.094-2.93-1.965-21.049 19.953-28.813 11.451-4.056 12.308-13.205-.379-13.08z" fill="#c28fef"/><path d="m3.578 41.395c.201-22.912 26.629-17.746 36.02-34.278 1.867-11.69-41.368-2.803-36.02 34.278z" fill="#aa5bef"/><path d="m2 28.188c6.9-20.313 33.723-19.518 34.789-22.055 2.816-6.711-31.289-8.797-34.789 22.055z" fill="#c28fef"/><path d="m13.457 17.075c4.092-.893 23.666-1.313 26.141-9.959-4.625 3.964-9.416 5.043-26.141 9.959z" fill="#854ab8"/><path d="m6.402 30.83c6.865-9.851 29.35-8.763 33.195-23.714-7.466 12.548-31.318 14.245-33.195 23.714z" fill="#854ab8"/><path clip-rule="evenodd" d="m56 54h1.332v8h-1.332z" fill="#4e5e67" fill-rule="evenodd"/><g fill="#302c3b"><path clip-rule="evenodd" d="m56.666 54h1.334v8h-1.334z" fill-rule="evenodd"/><path d="m39.83 45.08c2.021 1.711 5.051 1.615 6.957-.293 1.906-1.906 2.004-4.934.295-6.957z"/><path d="m39.506 37.506c-1.904 1.908-2.002 4.938-.295 6.957l7.254-7.25c-2.024-1.711-5.051-1.611-6.959.293z"/></g><path d="m46.582 37.094-7.488 7.492c.094.107.506.521.617.615l7.49-7.488c-.094-.113-.508-.525-.619-.619z" fill="#4e5e67"/><path d="m40.428 43.25-1.002 1.002c.1.102.516.516.615.617l1.006-1.004c-.102-.101-.514-.517-.619-.615z" fill="#6e8189"/><path clip-rule="evenodd" d="m38.98 43.361c.422.555.307-3.094.408-4.842.067-1.123-2.117 2.59-.408 4.842z" fill="#4e5e67" fill-rule="evenodd"/><path d="m42.881 46.287 1.387.66 14.041 11.358.486-.489 2.781 2.184.424-.424-2.184-2.779.487-.486-11.356-14.043-.66-1.387z" fill="#302c3b"/><path d="m45.551 45.666-1.19-.859-1.185 1.185 1.388.66 14 11.395.489-.49z" fill="#4e5e67"/><path d="m48.965 51.033 2.092 1.875 3.849-3.851-1.873-2.09z" fill="#4e5e67"/><path d="m49.223 50.777 2.097 1.866.862-.86-2.1-1.863z" fill="#6e8189"/><path d="m58.061 57.23h2.822v.486h-2.822z" fill="#4e5e67" transform="matrix(.7068 -.7075 .7075 .7068 -23.2197 58.9267)"/><path d="m59.053 57.557-.489.49.331.349.498-.5z" fill="#6e8189"/></svg>