<svg enable-background="new 0 0 64 64" height="64" viewBox="0 0 64 64" width="64" xmlns="http://www.w3.org/2000/svg"><path d="m6.787 51.719c2.701-1.515 13.908-5.521 13.908-5.521h16.695s11.197 3.997 13.881 5.519c3.907 2.205 4.729 10.283 4.729 10.283h-54s.869-8.084 4.787-10.281" fill="#018bc9"/><path d="m21.463 42.465h15.072v7.705h-15.072z" fill="#946346"/><path d="m8.912 62c.576-2.037-.1-5.133-.818-6.836-.666-1.589-.416 5.715.818 6.836" fill="#006dae"/><path d="m29 54.484h3.375v7.516h-3.375z" fill="#006dae"/><path d="m31.859 59.208c0 1.24-2.348 1.24-2.348 0 .001-1.239 2.348-1.239 2.348 0z" fill="#018bc9"/><path d="m35.75 46.863c-2.072.835-4.365 1.314-6.75 1.314-2.387 0-4.682-.479-6.75-1.314l6.75 10.96z" fill="#fff"/><path d="m19.408 45.766c-2.045 4.464-1.092 7.313-1.092 7.313 1.723-1.118 5.104-2.354 5.105-2.356-1.225 1.249-2.197 3.301-2.197 3.301 3.672.422 7.776 3.799 7.776 3.799s-5.709-11.875-9.592-12.057z" fill="#006dae"/><path d="m21.961 43.46s-1.008-.301-1.44.265c-2.529 3.35-1.688 8.09-1.688 8.09 1.725-1.121 5.164-1.451 5.166-1.452-1.226 1.25-1.75 2.656-1.75 2.656 2.594.885 6.75 4.805 6.75 4.805s-3.47-7.251-7.038-14.364z" fill="#018bc9"/><path d="m38.588 45.766c2.045 4.464 1.094 7.313 1.094 7.313-1.721-1.118-5.106-2.354-5.107-2.356 1.229 1.249 2.199 3.301 2.199 3.301-3.674.422-7.774 3.799-7.774 3.799s5.705-11.875 9.588-12.057z" fill="#006dae"/><path d="m36.037 43.46s1.008-.301 1.438.265c2.529 3.35 1.688 8.09 1.688 8.09-1.721-1.121-5.164-1.451-5.164-1.452 1.227 1.25 1.752 2.656 1.752 2.656-2.599.884-6.751 4.804-6.751 4.804s3.467-7.25 7.037-14.363z" fill="#018bc9"/><path d="m11.9 20.749c-5.719-1.031-1.252 14.957 3.225 10.547 2.072-2.044-.551-10.064-3.225-10.547z" fill="#946346"/><path d="m46.1 20.749c-2.674.483-5.299 8.503-3.223 10.547 4.477 4.41 8.937-11.578 3.223-10.547z" fill="#946346"/><path d="m29 2.001c-11.824 0-17.521 8.945-16.807 21.384.143 2.503 1.693 10.665 3.158 13.593 1.498 2.995 6.512 7.614 9.584 8.57 1.939.604 6.188.604 8.127 0 3.072-.956 8.086-5.575 9.586-8.57 1.465-2.928 3.016-11.09 3.158-13.593.715-12.439-4.982-21.384-16.806-21.384z" fill="#b88a6f"/><path d="m29 35.862c-2.66-.782-6.6.37-6.6.37 1.5 1.635 2.6 3.756 6.6 3.756 4.582 0 5.359-2.407 6.6-3.756 0 0-3.944-1.156-6.6-.37z" fill="#80553c"/><path d="m23.406 36.509c2.787 2.34 8.418 2.354 11.221 0-2.971.128-8.228.129-11.221 0z" fill="#fff"/><path d="m32.666 31.465c0 2.386-7.332 2.386-7.332 0 0-.548 7.332-.548 7.332 0z" fill="#946346"/><path d="m29 2c-8.135 0-13.049 2.688-15.168 1.655 0 0-.231 1.388.6 2.291 0 0-.877.758-2.291-.522-1.348 4.378 2.652 6.914 16.859 6.914s10.813-3.46 17.797 2.616c-.686-7.489-5.443-12.954-17.797-12.954z" fill="#875b49"/><path d="m35.016 8.529c-7.822 2.888-10.682-2.321-18.061-2.824 3.51 1.657 5.223 4.208 8.106 6.049-6.274-2.101-10.877-5.712-11.227-8.085 0 0-1.047 3.464 3.094 6.053-3.959.367-4.785-4.283-4.785-4.283-2.004 3.221-1.727 13.606.5 21.313.371-2.75-.475-3.887.797-7.201 3.805-9.904 1.356-5.745 15.563-5.745 14.205 0 11.641-3.793 15.56 5.745 1.17 2.844.426 4.451.799 7.201 4.669-17.378-2.048-21.285-10.346-18.223z" fill="#6b4435"/><path d="m41.658 24.347c-1.58 4.136-8.008 3.529-9.186.635.895-4.65 8.319-5.047 9.186-.635z" fill="#fff"/><path d="m16.34 24.347c1.58 4.136 8.01 3.529 9.186.635-.895-4.652-8.317-5.049-9.186-.635z" fill="#fff"/><path d="m42.314 19.368c-2.705-1.342-7.879-1.407-9.807-.472-.412.182-.141 1.454.207 1.332 2.688-.995 7.02-1.019 9.535.086.335.142.476-.757.065-.946z" fill="#80553c"/><path d="m15.686 19.368c2.703-1.342 7.877-1.407 9.807-.472.412.182.141 1.454-.207 1.332-2.691-.995-7.02-1.019-9.537.086-.335.142-.474-.757-.063-.946z" fill="#80553c"/><path d="m34.113 23.906c0 3.629 5.25 3.629 5.25 0 0-3.369-5.25-3.369-5.25 0z" fill="#613f34"/><path d="m34.633 25.067c0 2.081 4.211 2.081 4.211 0 0-1.931-4.211-1.931-4.211 0z" fill="#7d5037"/><path d="m35.648 23.963c0 1.507 2.18 1.507 2.18 0 0-1.398-2.18-1.398-2.18 0z" fill="#1a1626"/><path d="m34.904 23.523c0 .761 1.102.761 1.102 0 0-.706-1.102-.706-1.102 0z" fill="#ab968c"/><path d="m18.637 23.905c0 3.63 5.25 3.63 5.25 0 0-3.369-5.25-3.369-5.25 0z" fill="#613f34"/><path d="m19.156 25.066c0 2.081 4.211 2.081 4.211 0 0-1.931-4.211-1.931-4.211 0z" fill="#7d5037"/><path d="m20.172 23.963c0 1.506 2.18 1.506 2.18 0 0-1.398-2.18-1.398-2.18 0z" fill="#1a1626"/><path d="m19.428 23.522c0 .761 1.1.761 1.1 0-.001-.706-1.1-.706-1.1 0z" fill="#ab968c"/><path d="m41.658 24.315c0-4.44-9.186-4.44-9.186.703 1.313-4.219 7.874-4.219 9.186-.703z" fill="#946346"/><path d="m16.34 24.315c0-4.44 9.186-4.44 9.186.702-1.311-4.221-7.874-4.221-9.186-.702z" fill="#946346"/><path d="m54.176 62h-10.688s2.777-4.176 4.504-4.11c8.895.336 6.184 4.11 6.184 4.11z" fill="#018bc9"/><path d="m51.879 46.344c.277-1.474 3.279.238 2.131 2.164-.465.779 6.137 7.054 5.732 8.485-.725 2.576-6.104 3.71-6.463 4.691-.359.979-6.051-2.608-5.117-3.358 3.059-2.465.633-2.804 2.361-5.719 1.299-2.192.981-4.292 1.356-6.263z" fill="#946346"/><path d="m52.643 35.581h5.502v26.419h-5.502z" fill="#99a8ae"/><path d="m52.643 39.063c.838.392 1.768.618 2.752.618s1.916-.226 2.75-.618v-2.781h-5.502z" fill="#6e8189"/><path d="m58.145 25.977v6.55l-2.75 2.146-2.752-2.146v-6.55c-2.271 1.045-3.854 3.334-3.854 5.998 0 3.648 2.959 6.606 6.605 6.606 3.648 0 6.605-2.958 6.605-6.606.001-2.664-1.581-4.954-3.854-5.998z" fill="#99a8ae"/><path d="m61.447 31.718c0-.478-.051-.945-.146-1.395.236.634.367 1.317.367 2.032 0 3.001-2.295 5.483-5.281 5.893 2.922-.825 5.06-3.435 5.06-6.53z" fill="#6e8189"/><path d="m52.643 26.208c-1.861.838-3.227 2.627-3.523 4.775.539-1.904 1.832-3.477 3.523-4.34z" fill="#cfd8dd"/><path d="m59.191 49.798c1.764.693 1.135 2.218.736 2.648 1.221 1.035.861 2.501.514 2.855 1.242 3.505-9.172 3.958-5.264 1.389-3.16-.185-1.318-2.007.379-2.673-4.305 1.065-2.844-1.545.613-2.622-5.913 1.393 3.032-7.79 3.022-1.597z" fill="#b88a6f"/></svg>