<svg enable-background="new 0 0 64 64" height="64" viewBox="0 0 64 64" width="64" xmlns="http://www.w3.org/2000/svg"><path d="m40.465 6.614c-3.536 15.134-3.204 14.812 4.227 14.812-4.11-2.88 3.759-15.017-4.227-14.812z" fill="#3b2c29"/><path d="m39.195 6.38c-2.579 11.492-.36 14.45 1.609 15.046h2.266c-5.291-3.73 2.978-15.271-3.875-15.046z" fill="#453631"/><path d="m50.854 6.614c3.525 15.134 3.201 14.812-4.229 14.812 3.779-2.314-3.77-15.017 4.229-14.812z" fill="#3b2c29"/><path d="m52.123 6.38c3.768 10.457-.01 14.558-1.621 15.046h-2.255c5.28-3.427-2.989-15.271 3.876-15.046z" fill="#453631"/><path d="m52.748 12.004c1.092 2.656.01 8.113-2.246 9.422 2.5 0 4.033-3.466 4.775-8.221.926-5.946-4.472-5.946-2.529-1.201z" fill="#594640"/><path d="m36.323 14.309c.909 4.296 2.032 7.117 4.481 7.117-2.732-2.831-2.41-8.807-1.629-10.291 3.966-2.363-4.395-4.091-2.852 3.174z" fill="#594640"/><path d="m47.808 20.65v-2.257h-4.211v2.258c-.601.164-2.552.487-2.552.487s2.419 6.98 4.658 6.98c2.241 0 4.66-6.98 4.66-6.98s-1.954-.323-2.555-.488z" fill="#fc6"/><path d="m43.297 19.371c2.184 2.249 2.621 2.247 4.805-.001z" fill="#e6b045"/><path d="m41.438 59.513c0-5.148-.98-8.529-.98-15.293h4.157c0 6.957-.609 9.539-.214 15.186z" fill="#fc6"/><path d="m44.311 57.76c0 1.446-2.912 1.591-2.912 0 0 0-1.704 3.075-.866 4.24h4.715c.836-1.159-.937-4.24-.937-4.24z" fill="#302c3b"/><path d="m50.037 59.513c0-5.148.922-8.529.922-15.293h-3.924c0 6.957.575 9.539.202 15.186z" fill="#fc6"/><path d="m47.321 57.76c0 1.446 2.752 1.591 2.752 0 0 0 1.605 3.075.815 4.24h-4.452c-.786-1.159.885-4.24.885-4.24z" fill="#302c3b"/><path d="m51.505 37.063c2.947-1.988 4.765-4.828 4.463-5.614-1.5-3.905-2.73-9.224-4.717-10.027l-1.405 4.304c.916-.354 2.466 4.054 3.496 5.481.151.21-.468 2.097-2.877 4.306z" fill="#fc6"/><path d="m30.181 41.701c.57-3.415 3.682-6.94 5.653-11.273 1.727-3.795 2.306-8.203 4.292-9.007l1.405 4.304c-.916-.354-3.563 5.018-4.071 6.881-1.014 3.715-2.994 4.433-3.605 8.157-.593 3.613-1.497 1.057-1.513-.226-.779 2.171-2.468 3.001-2.161 1.164z" fill="#fc6"/><path d="m45.696 2.973c-4.696 0-6.97 3.827-6.686 8.748.059.986.341 2.412.673 3.642.711 2.539 4.432 5.097 6.013 5.097 1.593 0 5.313-2.558 6.017-5.097.342-1.229.615-2.655.674-3.642.283-4.921-1.983-8.748-6.691-8.748z" fill="#fc6"/><path d="m45.696 16.397c-1.142-.498-1.151-.02-2.919.098.664.752 1.152 1.719 2.919 1.719 2.032 0 2.375-1.094 2.921-1.719-1.768-.117-1.777-.596-2.921-.098z" fill="#d47706"/><path d="m43.316 16.681c1.15 1.201 3.63 1.191 4.774 0-1.777.195-3.008.195-4.774 0z" fill="#fff"/><path d="m50.883 9.935c-1.055-.635-2.959-.703-3.711-.273-.156.078-.117.537.02.479 1.075-.439 2.705-.469 3.711.049.136.067.146-.158-.02-.255z" fill="#594640"/><path d="m40.512 9.935c1.066-.635 2.969-.703 3.721-.273.156.078.117.537-.029.479-1.063-.441-2.704-.47-3.712.047-.137.069-.137-.156.02-.253z" fill="#594640"/><path d="m47.162 14.68c0 .946-2.92.946-2.92 0 0-.215 2.92-.215 2.92 0z" fill="#e6b045"/><path d="m50.785 11.857c-.635 1.641-3.184 1.396-3.652.254.351-1.854 3.301-2.01 3.652-.254z" fill="#fff"/><path d="m47.768 11.682c0 1.455 2.109 1.455 2.109 0 0-1.356-2.109-1.356-2.109 0z" fill="#613f34"/><path d="m47.974 12.141c0 .84 1.698.84 1.698 0 0-.772-1.698-.772-1.698 0z" fill="#7d5037"/><path d="m48.384 11.701c0 .605.878.605.878 0 0-.566-.878-.566-.878 0z" fill="#1a1626"/><path d="m48.091 11.525c0 .303.438.303.438 0 0-.283-.438-.283-.438 0z" fill="#ab968c"/><path d="m50.785 11.848c0-1.767-3.652-1.767-3.652.273.517-1.678 3.125-1.678 3.652-.273z" fill="#45332c"/><path d="m40.621 11.857c.625 1.641 3.184 1.406 3.65.254-.351-1.854-3.31-2.01-3.65-.254z" fill="#fff"/><path d="m41.527 11.682c0 1.455 2.102 1.455 2.102 0 0-1.356-2.102-1.356-2.102 0z" fill="#613f34"/><path d="m41.734 12.141c0 .84 1.688.84 1.688 0 0-.772-1.688-.772-1.688 0z" fill="#7d5037"/><path d="m42.145 11.701c0 .605.867.605.867 0 0-.556-.867-.556-.867 0z" fill="#1a1626"/><path d="m41.84 11.525c0 .303.441.303.441 0 0-.283-.441-.283-.441 0z" fill="#ab968c"/><path d="m40.621 11.848c0-1.767 3.65-1.767 3.65.273-.517-1.678-3.134-1.678-3.65-.273z" fill="#45332c"/><path d="m50.961 3.666c-3.301 3.368-.156 3.593 1.787 8.338 1.092 2.656 1.787 5.956 2.529 1.201.926-5.946-2.646-10.037-4.316-9.539z" fill="#594640"/><path d="m42.855 2.367c-4.177.986-8.075 4.677-6.532 11.941.909 4.296 2.071-1.689 2.853-3.174 3.965-2.362 10.75-4.149 11.785-7.469.518-.77-3.917-2.392-8.106-1.298z" fill="#594640"/><g fill="#453631"><path d="m39.652 7.659c1.77-.361 10.234-.527 11.309-3.993-2.002 1.582-4.073 2.022-11.309 3.993z"/><path d="m36.607 13.186c2.967-3.954 12.684-3.524 14.354-9.52-3.232 5.028-13.544 5.712-14.354 9.52z"/><path d="m49.975 4.486c-.762 1.201 1.895-.566 4.764 7.195-.704-4.539-3.124-7.663-4.764-7.195z"/></g><path d="m37.14 46.999c0-8.791 4.389-13.632 4.389-18.382-1.905-1.541 0-3.315-1.588-7.327l1.192-.358c1.551 3.554 7.558 3.557 9.109 0l1.194.358c-1.588 4.012.317 5.786-1.588 7.327 0 4.75 4.389 9.591 4.389 18.382z" fill="#8e3ed6"/><path d="m45.672 44.836c4.437 0 7.564-.832 8.361-1.068.127 1.018.204 2.09.204 3.231 0 0-3.399 1.131-8.565 1.131-5.087 0-8.532-1.131-8.532-1.131 0-1.142.075-2.214.204-3.231.801.235 3.954 1.068 8.328 1.068z" fill="#5d1e96"/><path d="m13.059 6.614c-3.536 15.134-3.204 14.812 4.227 14.812-4.11-2.88 3.759-15.017-4.227-14.812z" fill="#3b2c29"/><path d="m11.789 6.38c-2.579 11.492-.36 14.45 1.609 15.046h2.266c-5.291-3.73 2.978-15.271-3.875-15.046z" fill="#453631"/><path d="m23.447 6.614c3.525 15.134 3.201 14.812-4.229 14.812 3.78-2.314-3.769-15.017 4.229-14.812z" fill="#3b2c29"/><path d="m24.717 6.38c3.768 10.457-.01 14.558-1.621 15.046h-2.255c5.28-3.427-2.989-15.271 3.876-15.046z" fill="#453631"/><path d="m25.342 12.004c1.092 2.656.01 8.113-2.246 9.422 2.5 0 4.033-3.466 4.775-8.221.926-5.946-4.473-5.946-2.529-1.201z" fill="#594640"/><path d="m8.917 14.309c.909 4.296 2.032 7.117 4.481 7.117-2.732-2.831-2.41-8.807-1.629-10.291 3.965-2.363-4.395-4.091-2.852 3.174z" fill="#594640"/><path d="m16.192 20.65v-2.257h4.211v2.258c.601.164 2.552.487 2.552.487s-2.419 6.98-4.658 6.98c-2.241 0-4.66-6.98-4.66-6.98s1.954-.323 2.555-.488z" fill="#fc6"/><path d="m20.703 19.371c-2.184 2.249-2.621 2.247-4.805-.001z" fill="#e6b045"/><path d="m22.563 59.513c0-5.148.98-8.529.98-15.293h-4.157c0 6.957.609 9.539.214 15.186z" fill="#fc6"/><path d="m19.689 57.76c0 1.446 2.912 1.591 2.912 0 0 0 1.704 3.075.866 4.24h-4.715c-.836-1.159.937-4.24.937-4.24z" fill="#302c3b"/><path d="m13.963 59.513c0-5.148-.922-8.529-.922-15.293h3.924c0 6.957-.575 9.539-.202 15.186z" fill="#fc6"/><path d="m16.679 57.76c0 1.446-2.752 1.591-2.752 0 0 0-1.605 3.075-.815 4.24h4.452c.786-1.159-.885-4.24-.885-4.24z" fill="#302c3b"/><path d="m12.495 37.063c-2.947-1.988-4.765-4.828-4.463-5.614 1.5-3.905 2.73-9.224 4.717-10.027l1.405 4.304c-.916-.354-2.466 4.054-3.496 5.481-.151.21.468 2.097 2.877 4.306z" fill="#fc6"/><path d="m33.683 41.489c-2.739-4.232-3.545-6.729-5.517-11.062-1.727-3.795-2.306-8.203-4.292-9.007l-1.405 4.304c.916-.354 3.563 5.018 4.071 6.881 1.014 3.715 2.93 4.067 3.541 7.792.593 3.614 3.722 3.611 3.602 1.092z" fill="#fc6"/><path d="m18.29 2.973c-4.696 0-6.97 3.827-6.686 8.748.059.986.341 2.412.673 3.642.711 2.539 4.432 5.097 6.013 5.097 1.593 0 5.313-2.558 6.017-5.097.342-1.229.615-2.655.674-3.642.283-4.921-1.983-8.748-6.691-8.748z" fill="#fc6"/><path d="m18.29 16.397c-1.142-.498-1.151-.02-2.919.098.664.752 1.152 1.719 2.919 1.719 2.032 0 2.375-1.094 2.921-1.719-1.769-.117-1.777-.596-2.921-.098z" fill="#d47706"/><path d="m15.91 16.681c1.15 1.201 3.63 1.191 4.774 0-1.778.195-3.008.195-4.774 0z" fill="#fff"/><path d="m23.477 9.935c-1.055-.635-2.959-.703-3.711-.273-.156.078-.117.537.02.479 1.075-.439 2.705-.469 3.711.049.136.067.146-.158-.02-.255z" fill="#594640"/><path d="m13.105 9.935c1.066-.635 2.969-.703 3.721-.273.156.078.117.537-.029.479-1.063-.439-2.703-.469-3.711.049-.137.067-.137-.158.019-.255z" fill="#594640"/><path d="m19.756 14.68c0 .946-2.92.946-2.92 0 0-.215 2.92-.215 2.92 0z" fill="#e6b045"/><path d="m23.379 11.857c-.635 1.641-3.184 1.396-3.652.254.351-1.854 3.3-2.01 3.652-.254z" fill="#fff"/><path d="m20.361 11.682c0 1.455 2.109 1.455 2.109 0 .001-1.356-2.109-1.356-2.109 0z" fill="#613f34"/><path d="m20.567 12.141c0 .84 1.698.84 1.698 0 .001-.772-1.698-.772-1.698 0z" fill="#7d5037"/><path d="m20.978 11.701c0 .605.878.605.878 0-.001-.566-.878-.566-.878 0z" fill="#1a1626"/><path d="m20.685 11.525c0 .303.438.303.438 0 0-.283-.438-.283-.438 0z" fill="#ab968c"/><path d="m23.379 11.848c0-1.767-3.652-1.767-3.652.273.517-1.678 3.125-1.678 3.652-.273z" fill="#45332c"/><path d="m13.215 11.857c.625 1.641 3.184 1.406 3.65.254-.351-1.854-3.31-2.01-3.65-.254z" fill="#fff"/><path d="m14.121 11.682c0 1.455 2.102 1.455 2.102 0 0-1.356-2.102-1.356-2.102 0z" fill="#613f34"/><path d="m14.328 12.141c0 .84 1.688.84 1.688 0 0-.772-1.688-.772-1.688 0z" fill="#7d5037"/><path d="m14.738 11.701c0 .605.867.605.867 0 0-.556-.867-.556-.867 0z" fill="#1a1626"/><path d="m14.434 11.525c0 .303.441.303.441 0 0-.283-.441-.283-.441 0z" fill="#ab968c"/><path d="m13.215 11.848c0-1.767 3.65-1.767 3.65.273-.517-1.678-3.135-1.678-3.65-.273z" fill="#45332c"/><path d="m23.555 3.666c-3.301 3.368-.156 3.593 1.787 8.338 1.092 2.656 1.787 5.956 2.529 1.201.926-5.946-2.646-10.037-4.316-9.539z" fill="#594640"/><path d="m15.449 2.367c-4.177.986-8.075 4.677-6.532 11.941.909 4.296 2.071-1.689 2.853-3.174 3.965-2.362 10.75-4.149 11.785-7.469.517-.77-3.917-2.392-8.106-1.298z" fill="#594640"/><path d="m12.246 7.659c1.77-.361 10.234-.527 11.309-3.993-2.002 1.582-4.074 2.022-11.309 3.993z" fill="#453631"/><path d="m9.201 13.186c2.967-3.954 12.684-3.524 14.354-9.52-3.233 5.028-13.544 5.712-14.354 9.52z" fill="#453631"/><path d="m22.568 4.486c-.762 1.201 1.895-.566 4.764 7.195-.703-4.539-3.123-7.663-4.764-7.195z" fill="#453631"/><path d="m26.86 46.999c0-8.791-4.389-13.632-4.389-18.382 1.905-1.541 0-3.315 1.588-7.327l-1.192-.358c-1.551 3.554-7.558 3.557-9.109 0l-1.194.358c1.588 4.012-.317 5.786 1.588 7.327 0 4.75-4.389 9.591-4.389 18.382z" fill="#8e3ed6"/><path d="m18.328 44.836c-4.437 0-7.564-.832-8.361-1.068-.127 1.018-.204 2.09-.204 3.231 0 0 3.399 1.131 8.565 1.131 5.087 0 8.532-1.131 8.532-1.131 0-1.142-.075-2.214-.204-3.231-.801.235-3.954 1.068-8.328 1.068z" fill="#5d1e96"/></svg>