<svg enable-background="new 0 0 64 64" height="64" viewBox="0 0 64 64" width="64" xmlns="http://www.w3.org/2000/svg"><path d="m9.79 51.273c2.698-1.582 15.135-5.76 15.135-5.76h14.24s12.425 4.168 15.112 5.758c3.903 2.301 4.723 10.729 4.723 10.729h-54s.871-8.436 4.79-10.727" fill="#302c3b"/><path d="m23.36 48.93c0 3.541 5.826 5.305 8.61 5.295 2.784-.012 8.669-1.82 8.669-5.295v-10.225h-17.279z" fill="#d6a67a"/><path d="m53.665 54.867c-.733 1.779-1.424 5.01-.837 7.133 1.264-1.168 1.519-8.789.837-7.133" fill="#1a1626"/><path d="m11.172 62c.589-2.123-.104-5.354-.837-7.133-.682-1.656-.424 5.965.837 7.133" fill="#1a1626"/><path d="m21.396 47.08s-2.378 3.141-3.375 5.721l3.837 2.014s-2.616 2.658-3.033 3.168c0 0 2.649 2.959 3.033 4.018h1.097s-1.369-2.475-2.689-4.018c0 0 1.679-2.479 2.689-3.352l-3.519-2.293c.001 0 .964-3.234 1.96-5.258" fill="#1a1626"/><path d="m42.604 47.08s2.378 3.141 3.375 5.721l-3.835 2.014s2.614 2.658 3.031 3.168c0 0-2.646 2.959-3.031 4.018h-1.099s1.369-2.475 2.691-4.018c0 0-1.681-2.479-2.691-3.352l3.521-2.293c-.001 0-.964-3.234-1.962-5.258" fill="#1a1626"/><path d="m38.568 62c1.966-3.244 2.013-13.07 2.013-13.07-2.884 3.566-8.296 5.193-8.61 5.285-.316-.092-5.728-1.719-8.61-5.285 0 0 .044 9.826 2.012 13.07z" fill="#e6ebef"/><path d="m49.352 59.008c-.302 0-.831.295-1.042.422-.291-.211-.713-.211-1.002 0-.213-.127-.74-.422-1.044-.422-.66 0-2.101.49-2.101.701 0 .09 1.406-.195 2.866.508.156.83 1.4.83 1.557 0 1.46-.703 2.866-.418 2.866-.508 0-.211-1.44-.701-2.1-.701z" fill="#f9c802"/><path d="m34.816 62-.914-3.684 1.005-2.084-2.949-2.007-2.865 2.007 1.007 2.084-.913 3.684z" fill="#302c3b"/><path d="m31.971 54.215c-.316-.092-5.728-1.719-8.61-5.285 0 0 .017 3.037.367 6.291 1.069 1.209 2.848 3.096 3.539 3.096 1.017 0 4.704-3.729 4.704-3.729s3.657 3.729 4.765 3.729c.795 0 2.471-1.818 3.475-3.051.354-3.271.371-6.336.371-6.336-2.885 3.566-8.297 5.193-8.611 5.285" fill="#fff"/><path d="m14.901 24.237c-5.719-1.031-1.252 14.957 3.225 10.546 2.072-2.043-.551-10.063-3.225-10.546z" fill="#d6a67a"/><path d="m49.101 24.237c-2.674.483-5.299 8.503-3.223 10.546 4.476 4.41 8.937-11.577 3.223-10.546z" fill="#d6a67a"/><path d="m32.001 5.489c-11.824 0-17.521 8.945-16.807 21.384.143 2.503 1.693 10.665 3.158 13.592 1.498 2.996 6.512 7.615 9.584 8.57 1.939.604 6.188.604 8.127 0 3.072-.955 8.086-5.574 9.586-8.57 1.465-2.928 3.016-11.089 3.158-13.592.715-12.439-4.982-21.384-16.806-21.384z" fill="#e3c19b"/><path d="m32.001 39.35c-2.66-.781-6.6.371-6.6.371 1.5 1.635 2.6 3.756 6.6 3.756 4.582 0 5.359-2.408 6.6-3.756 0 0-3.944-1.157-6.6-.371z" fill="#bf8c6b"/><path d="m26.407 39.996c2.787 2.34 8.418 2.355 11.221 0-2.971.129-8.229.129-11.221 0z" fill="#fff"/><path d="m35.667 34.953c0 2.385-7.332 2.385-7.332 0 0-.549 7.332-.549 7.332 0z" fill="#d6a67a"/><path d="m47.577 20.076c1.146 5.818.414 7.426.785 10.163.728-2.707 1.178-5.086 1.39-10.163z" fill="#ba9d52"/><path d="m16.428 20.076h-2.219c.31 5.453.787 7.921 1.435 10.163.369-2.739-.465-3.881.784-10.163z" fill="#ba9d52"/><path d="m44.659 27.834c-1.58 4.136-8.008 3.529-9.186.635.895-4.649 8.319-5.047 9.186-.635z" fill="#fff"/><path d="m19.341 27.834c1.58 4.136 8.01 3.529 9.186.635-.895-4.651-8.317-5.049-9.186-.635z" fill="#fff"/><path d="m45.315 22.856c-2.705-1.342-7.879-1.407-9.807-.472-.412.182-.141 1.454.207 1.332 2.688-.995 7.02-1.019 9.535.086.335.142.476-.758.065-.946z" fill="#bf8c6b"/><path d="m18.687 22.856c2.703-1.342 7.877-1.407 9.807-.472.412.182.141 1.454-.207 1.332-2.691-.995-7.02-1.019-9.537.086-.335.142-.474-.758-.063-.946z" fill="#bf8c6b"/><path d="m37.114 27.394c0 3.629 5.25 3.629 5.25 0 0-3.369-5.25-3.369-5.25 0z" fill="#613f34"/><path d="m37.634 28.555c0 2.081 4.211 2.081 4.211 0 0-1.931-4.211-1.931-4.211 0z" fill="#7d5037"/><path d="m38.649 27.451c0 1.507 2.18 1.507 2.18 0 0-1.398-2.18-1.398-2.18 0z" fill="#1a1626"/><path d="m37.905 27.011c0 .761 1.102.761 1.102 0 0-.706-1.102-.706-1.102 0z" fill="#ab968c"/><path d="m21.638 27.393c0 3.63 5.25 3.63 5.25 0 0-3.369-5.25-3.369-5.25 0z" fill="#613f34"/><path d="m22.157 28.554c0 2.081 4.211 2.081 4.211 0 0-1.931-4.211-1.931-4.211 0z" fill="#7d5037"/><path d="m23.173 27.451c0 1.506 2.18 1.506 2.18 0 0-1.399-2.18-1.399-2.18 0z" fill="#1a1626"/><path d="m22.429 27.01c0 .761 1.1.761 1.1 0-.001-.706-1.1-.706-1.1 0z" fill="#ab968c"/><path d="m44.659 27.803c0-4.44-9.186-4.44-9.186.703 1.313-4.219 7.874-4.219 9.186-.703z" fill="#d6a67a"/><path d="m19.341 27.803c0-4.44 9.186-4.44 9.186.702-1.311-4.221-7.874-4.221-9.186-.702z" fill="#d6a67a"/><path d="m14.309 20.071c3.964 3.015 11.62 4.373 17.693 4.373 6.071 0 13.705-1.347 17.671-4.358z" opacity=".2"/><path d="m50.145 16.284s18.993-14.283-18.143-14.283c-37.138-.001-18.145 14.283-18.145 14.283s6.644-3.063 18.165-3.061c11.495.002 18.123 3.061 18.123 3.061" fill="#302c3b"/><path d="m32 13.223c-11.802 0-19.864 1.736-19.864 4.637 0 3.621 11.694 5.564 19.864 5.564s19.864-1.943 19.864-5.564c0-2.901-8.062-4.637-19.864-4.637" fill="#302c3b"/><g fill="#f9c802"><path d="m14.228 15.262s17.346-5.246 35.545 0c-.001 0-16.45-9.179-35.545 0"/><path d="m35.983 4.551c-.853 0-2.426 1.045-2.837 1.328-.686-.408-1.61-.408-2.296 0-.408-.283-1.981-1.328-2.834-1.328-1.711 0-5.426 1.428-5.426 2.043 0 .264 3.603-.59 7.359 1.434.382 2.16 3.716 2.16 4.1 0 3.757-2.023 7.359-1.17 7.359-1.434.001-.615-3.714-2.043-5.425-2.043z"/><path d="m45.32 19.43c.029.014 2.04-2.162 1.161-1.912-.849.266-2.432 1.363-2.244 2.182.189.834 2.228 1.035 3.155.748.9-.258-2.093-.99-2.072-1.018"/><path d="m42.104 19.942c.028.012 2.136-2.066 1.245-1.857-.855.225-2.485 1.248-2.338 2.074.15.84 2.172 1.137 3.108.893.907-.216-2.037-1.087-2.015-1.11"/><path d="m38.871 20.35c.026.014 2.224-1.967 1.329-1.797-.864.184-2.538 1.133-2.43 1.965.112.846 2.114 1.234 3.055 1.035.917-.174-1.976-1.179-1.954-1.203"/><path d="m35.625 20.659c.026.016 2.311-1.861 1.41-1.734-.87.146-2.585 1.018-2.515 1.852.068.852 2.047 1.33 2.996 1.174.922-.134-1.916-1.269-1.891-1.292"/><path d="m19.763 19.7c.188-.818-1.396-1.916-2.244-2.182-.88-.25 1.134 1.926 1.16 1.912.022.027-2.971.76-2.071 1.018.927.289 2.965.084 3.155-.748"/><path d="m22.988 20.159c.15-.826-1.481-1.85-2.338-2.074-.891-.209 1.22 1.869 1.246 1.857.023.023-2.924.895-2.016 1.109.937.244 2.959-.052 3.108-.892"/><path d="m26.229 20.516c.107-.83-1.565-1.779-2.428-1.961-.897-.172 1.301 1.809 1.329 1.795.022.023-2.873 1.029-1.956 1.201.943.201 2.945-.187 3.055-1.035"/><path d="m29.479 20.776c.07-.834-1.645-1.705-2.516-1.852-.899-.127 1.385 1.75 1.413 1.734.023.023-2.815 1.16-1.895 1.289.952.159 2.93-.32 2.998-1.171"/></g></svg>