<svg enable-background="new 0 0 64 64" height="64" viewBox="0 0 64 64" width="64" xmlns="http://www.w3.org/2000/svg" xmlns:xlink="http://www.w3.org/1999/xlink"><radialGradient id="a" cx="28.001" cy="19.1674" gradientTransform="matrix(1 0 0 1.5 0 -9.5837)" gradientUnits="userSpaceOnUse" r="17.316"><stop offset=".1879" stop-color="#e6ebef"/><stop offset=".4083" stop-color="#d5dde1"/><stop offset=".8405" stop-color="#aab7bd"/><stop offset="1" stop-color="#99a8ae"/></radialGradient><radialGradient id="b" cx="24.25" cy="18.2204" gradientUnits="userSpaceOnUse" r="31.0857"><stop offset="0" stop-color="#fff"/><stop offset=".7879" stop-color="#fff" stop-opacity="0"/></radialGradient><path d="m57.537 52.486-1.092-.822c-.064-3.563-16.264-8.25-16.264-8.25h-16.363s-16.197 4.688-16.262 8.25l-1.096.822c-2.739-.048-4.46 9.514-4.46 9.514h60s-1.721-9.562-4.463-9.514z" fill="#cfd8dd"/><path d="m11.797 62h-1.535c0-5.379-3.801-9.514-3.801-9.514l1.096-.822s4.24 4.24 4.24 10.336z" fill="#99a8ae"/><path d="m52.205 62h1.533c0-5.379 3.799-9.514 3.799-9.514l-1.092-.822s-4.24 4.24-4.24 10.336z" fill="#99a8ae"/><path d="m19.1 56.418v5.582l1.322-4.428h10.359l1.323 4.428v-5.582z" fill="#fff"/><path d="m38.922 54.209h6.924v6.637h-6.924z" fill="#fff"/><path d="m38.922 60.846h6.924v1.154h-6.924z" fill="#99a8ae"/><path d="m40.654 60.846h1.154v1.154h-1.154z" fill="#ffe12c"/><path d="m42.961 60.846h1.154v1.154h-1.154z" fill="#a6e639"/><path d="m39.824 53.559h1.658v.65h-1.658z" fill="#bec3cf"/><path d="m40.773 53.559h.709v.65h-.709z" fill="#99a8ae"/><path d="m42.229 53.559h.986v.65h-.986z" fill="#bec3cf"/><path d="m42.846 53.559h.369v.65h-.369z" fill="#99a8ae"/><path d="m44.691 57.488c0 3.078-4.615 3.078-4.615 0 0-3.076 4.615-3.076 4.615 0z" fill="#bec3cf"/><path d="m44.602 57.746c0 2.836-4.434 2.836-4.434 0 0-2.84 4.434-2.84 4.434 0z" fill="#e6ebef"/><path d="m4.83 53.617s-1.793 1.834-1.873 4.402c0 .859 2.156 3.459 2.156 3.459s1.799-1.646 2.615-3.137c-2.355-2.862-2.898-4.724-2.898-4.724z" fill="#018bc9"/><path d="m47.67 42.609c-2.129 0-29.217 0-31.344 0-2.984 0-2.607 2.113-2.607 4.226 0 4.756 10.385 7.047 18.281 7.047s18.281-2.291 18.281-7.047c0-2.112.377-4.226-2.611-4.226" fill="#99a8ae"/><path d="m60 29.342c0 2.148-1.74 3.887-3.887 3.887h-48.226c-2.147 0-3.887-1.739-3.887-3.887v-6.684c0-2.146 1.74-3.887 3.887-3.887h48.227c2.146 0 3.887 1.74 3.887 3.887v6.684z" fill="#99a8ae"/><circle cx="32" cy="26" fill="#302c3b" r="22"/><g fill="#fff"><path d="m59.25 23.375c0 1.998-3 1.998-3 0 0-2 3-2 3 0z"/><path d="m59.25 28.625c0 2-3 2-3 0 0-1.998 3-1.998 3 0z"/><path d="m7.75 23.375c0 1.998-3 1.998-3 0 0-2 3-2 3 0z"/><path d="m7.75 28.625c0 2-3 2-3 0 0-1.998 3-1.998 3 0z"/></g><path d="m15.679 24.737c-5.459-.984-1.195 14.276 3.078 10.067 1.977-1.95-.525-9.606-3.078-10.067z" fill="#755035"/><path d="m48.323 24.737c-2.553.461-5.058 8.116-3.076 10.067 4.273 4.21 8.531-11.051 3.076-10.067z" fill="#755035"/><path d="m32.001 6.841c-11.287 0-16.725 8.539-16.043 20.412.137 2.389 1.617 10.181 3.015 12.976 1.431 2.858 6.216 7.268 9.148 8.18 1.852.576 5.906.576 7.758 0 2.933-.912 7.718-5.321 9.15-8.18 1.397-2.795 2.878-10.587 3.014-12.976.683-11.873-4.756-20.412-16.042-20.412z" fill="#916b50"/><path d="m32.001 39.163c-2.539-.747-6.3.354-6.3.354 1.432 1.56 2.481 3.585 6.3 3.585 4.374 0 5.115-2.298 6.3-3.585 0 0-3.765-1.104-6.3-.354z" fill="#664129"/><path d="m26.661 39.78c2.661 2.233 8.036 2.247 10.711 0-2.836.122-7.854.123-10.711 0z" fill="#fff"/><path d="m35.5 34.966c0 2.277-6.998 2.277-6.998 0 0-.523 6.998-.523 6.998 0z" fill="#755035"/><path d="m32.001 6.841c-7.765 0-12.456 2.565-14.479 1.579 0 0-.22 1.325.572 2.188 0 0-.837.724-2.187-.498-1.286 4.178 2.531 6.599 16.093 6.599s10.321-3.303 16.987 2.497c-.653-7.149-5.194-12.365-16.986-12.365z" fill="#614036"/><path d="m37.743 13.073c-7.467 2.756-10.196-2.216-17.239-2.696 3.35 1.582 4.985 4.017 7.736 5.774-5.988-2.005-10.382-5.452-10.716-7.717 0 0-.999 3.307 2.953 5.777-3.779.351-4.567-4.089-4.567-4.089-1.913 3.074-1.648 12.988.477 20.344.354-2.625-.452-3.71.761-6.874 3.632-9.453 1.294-5.483 14.855-5.483 13.56 0 11.111-3.62 14.853 5.483 1.117 2.715.407 4.249.763 6.874 4.457-16.587-1.954-20.317-9.876-17.393z" fill="#4a2e24"/><path d="m44.084 28.171c-1.509 3.948-7.645 3.369-8.769.606.855-4.438 7.941-4.817 8.769-.606z" fill="#fff"/><path d="m19.916 28.171c1.509 3.948 7.646 3.369 8.769.606-.855-4.44-7.939-4.819-8.769-.606z" fill="#fff"/><path d="m44.71 23.419c-2.582-1.281-7.521-1.344-9.36-.45-.394.173-.135 1.388.197 1.271 2.565-.95 6.7-.973 9.102.082.319.135.453-.723.061-.903z" fill="#664129"/><path d="m19.292 23.419c2.58-1.281 7.519-1.344 9.36-.45.394.173.135 1.388-.197 1.271-2.569-.95-6.7-.973-9.103.082-.319.135-.452-.723-.06-.903z" fill="#664129"/><path d="m36.882 27.751c0 3.464 5.011 3.464 5.011 0 0-3.216-5.011-3.216-5.011 0z" fill="#613f34"/><path d="m37.378 28.859c0 1.986 4.02 1.986 4.02 0-.001-1.843-4.02-1.843-4.02 0z" fill="#7d5037"/><path d="m38.347 27.805c0 1.438 2.081 1.438 2.081 0 0-1.334-2.081-1.334-2.081 0z" fill="#1a1626"/><path d="m37.637 27.385c0 .726 1.052.726 1.052 0-.001-.674-1.052-.674-1.052 0z" fill="#ab968c"/><path d="m22.108 27.75c0 3.465 5.012 3.465 5.012 0 0-3.216-5.012-3.216-5.012 0z" fill="#613f34"/><path d="m22.604 28.858c0 1.986 4.02 1.986 4.02 0 0-1.843-4.02-1.843-4.02 0z" fill="#7d5037"/><path d="m23.574 27.805c0 1.438 2.08 1.438 2.08 0 0-1.335-2.08-1.335-2.08 0z" fill="#1a1626"/><path d="m22.864 27.385c0 .726 1.049.726 1.049 0 0-.675-1.049-.675-1.049 0z" fill="#ab968c"/><path d="m44.084 28.142c0-4.239-8.769-4.239-8.769.671 1.253-4.029 7.516-4.029 8.769-.671z" fill="#755035"/><path d="m19.916 28.142c0-4.239 8.769-4.239 8.769.67-1.251-4.031-7.516-4.031-8.769-.67z" fill="#755035"/><path d="m53.73 25.09c.176-.949.27-1.92.27-2.91 0-10.274-9.85-18.602-22-18.602s-22 8.328-22 18.602c0 .99.094 1.961.27 2.91 3.49-13.822 39.972-13.822 43.46 0z" fill="url(#a)"/><path d="m32 2c-13.254 0-24 10.746-24 24s10.746 24 24 24 24-10.746 24-24-10.746-24-24-24zm0 45.5c-11.873 0-21.5-9.627-21.5-21.5 0-11.875 9.627-21.5 21.5-21.5 11.875 0 21.5 9.625 21.5 21.5 0 11.873-9.625 21.5-21.5 21.5z" fill="#cfd8dd"/><path d="m45.518 43.906-.709-3.076 2.062-2.019h3.844z" fill="#cfd8dd"/><path d="m38.387 43.781c-.797 0-.797-.969 0-.969 5.953 0 7.391-2.5 9.953-3.313.666-.211 1.234 1.469.125 2.201-.375.247-4.203 2.081-10.078 2.081z" fill="#302c3b"/><path d="m10.521 25.463c-.016.34-.025.681-.025 1.024 0 11.908 9.628 21.013 21.504 21.013s21.504-9.105 21.504-21.013c0-.344-.01-.685-.025-1.024-3.65-13.363-39.306-13.363-42.958 0z" fill="url(#b)" opacity=".8"/></svg>