<svg enable-background="new 0 0 64 64" height="64" viewBox="0 0 64 64" width="64" xmlns="http://www.w3.org/2000/svg" xmlns:xlink="http://www.w3.org/1999/xlink"><radialGradient id="a" cx="32.0078" cy="8.5469" gradientTransform="matrix(1 0 0 .9392 0 7.1185)" gradientUnits="userSpaceOnUse" r="16.5135"><stop offset=".2606" stop-color="#a10505"/><stop offset=".4829" stop-color="#b20b0d"/><stop offset=".924" stop-color="#e01923"/><stop offset="1" stop-color="#e81c27"/></radialGradient><radialGradient id="b" cx="32.0078" cy="13.8535" gradientTransform="matrix(1 0 0 .9392 0 7.1185)" gradientUnits="userSpaceOnUse" r="14.9761"><stop offset="0" stop-color="#747080"/><stop offset="1" stop-color="#302c3b"/></radialGradient><ellipse cx="32.011" cy="31.875" fill="#b00505" rx="19.3" ry="10.125"/><path d="m9.789 52.619c2.699-1.385 14.846-4.512 14.846-4.512l7.365 1.852 7.363-1.852s12.229 3.121 14.912 4.508c3.903 2.014 4.725 9.385 4.725 9.385h-54s.873-7.377 4.789-9.381" fill="#e81c27"/><path d="m11.459 62h41.084l.934-3.705h-42.748z" fill="#ffe12c"/><path d="m23.486 43.477h17.027v8.945h-17.027z" fill="#e6b045"/><path d="m24.635 50.117c1.568 2.744 7.365 6.61 7.365 6.61s5.797-3.865 7.363-6.609c-4.773 1.402-9.953 1.402-14.728-.001z" fill="#302c3b"/><path d="m11.459 62c.572-1.857-.102-4.684-.82-6.238-.67-1.449-.416 5.217.82 6.238" fill="#b00505"/><path d="m53.361 55.762c-.717 1.555-1.395 4.381-.818 6.238 1.234-1.021 1.484-7.687.818-6.238" fill="#b00505"/><path d="m32.002 54.709h.922v7.291h-.922z" fill="#302c3b"/><path d="m32.002 62s-3.73-10.508-12.957-8.367c0 0-.363-5.377 4.287-8.215 1.439-.879-1.557 4.604 8.668 9.293z" fill="#b00505"/><path d="m32.002 58.295s3.381-5.148 12.951-4.662c0 0 .365-5.377-4.281-8.215-1.443-.879 1.996 5.221-8.672 9.293l.002 7.289" fill="#b00505"/><path d="m14.9 24.236c-5.719-1.031-1.252 14.958 3.225 10.547 2.072-2.043-.551-10.063-3.225-10.547z" fill="#e6b045"/><path d="m49.1 24.236c-2.674.484-5.299 8.504-3.223 10.547 4.477 4.41 8.937-11.578 3.223-10.547z" fill="#e6b045"/><path d="m32 5.488c-11.824 0-17.521 8.945-16.807 21.385.143 2.502 1.693 10.665 3.158 13.592 1.498 2.996 6.512 7.615 9.584 8.57 1.939.604 6.188.604 8.127 0 3.072-.955 8.086-5.574 9.586-8.57 1.465-2.928 3.016-11.09 3.158-13.592.715-12.44-4.982-21.385-16.806-21.385z" fill="#fc6"/><path d="m32 39.35c-2.66-.781-6.6.371-6.6.371 1.5 1.635 2.6 3.756 6.6 3.756 4.582 0 5.359-2.408 6.6-3.756 0 0-3.944-1.157-6.6-.371z" fill="#e6a400"/><path d="m26.406 39.996c2.787 2.34 8.418 2.355 11.221 0-2.971.129-8.229.129-11.221 0z" fill="#fff"/><path d="m35.666 34.953c0 2.385-7.332 2.385-7.332 0 0-.549 7.332-.549 7.332 0z" fill="#e6b045"/><path d="m47.576 22.076c1.146 3.818.414 5.426.785 8.162.729-2.705 1.178-5.084 1.391-8.162z" fill="#453631"/><path d="m16.428 22.076h-2.219c.309 3.453.787 5.922 1.434 8.162.369-2.738-.465-3.879.785-8.162z" fill="#453631"/><path d="m44.658 27.833c-1.58 4.137-8.008 3.529-9.186.635.895-4.648 8.319-5.047 9.186-.635z" fill="#fff"/><path d="m19.34 27.833c1.58 4.137 8.01 3.529 9.186.635-.895-4.65-8.317-5.049-9.186-.635z" fill="#fff"/><path d="m45.314 22.855c-2.705-1.342-7.879-1.406-9.807-.471-.412.182-.141 1.453.207 1.332 2.688-.996 7.02-1.02 9.535.086.335.141.476-.758.065-.947z" fill="#c1873c"/><path d="m18.686 22.855c2.703-1.342 7.877-1.406 9.807-.471.412.182.141 1.453-.207 1.332-2.691-.996-7.02-1.02-9.537.086-.335.141-.474-.758-.063-.947z" fill="#c1873c"/><path d="m37.113 27.394c0 3.629 5.25 3.629 5.25 0 0-3.369-5.25-3.369-5.25 0z" fill="#613f34"/><path d="m37.633 28.554c0 2.082 4.211 2.082 4.211 0 0-1.931-4.211-1.931-4.211 0z" fill="#7d5037"/><path d="m38.648 27.451c0 1.506 2.18 1.506 2.18 0 0-1.399-2.18-1.399-2.18 0z" fill="#1a1626"/><path d="m37.904 27.011c0 .76 1.102.76 1.102 0 0-.707-1.102-.707-1.102 0z" fill="#ab968c"/><path d="m21.637 27.392c0 3.631 5.25 3.631 5.25 0 0-3.369-5.25-3.369-5.25 0z" fill="#613f34"/><path d="m22.156 28.554c0 2.08 4.211 2.08 4.211 0 0-1.931-4.211-1.931-4.211 0z" fill="#7d5037"/><path d="m23.172 27.451c0 1.506 2.18 1.506 2.18 0 0-1.399-2.18-1.399-2.18 0z" fill="#1a1626"/><path d="m22.428 27.009c0 .762 1.1.762 1.1 0-.001-.705-1.1-.705-1.1 0z" fill="#ab968c"/><path d="m44.658 27.802c0-4.439-9.186-4.439-9.186.703 1.313-4.218 7.874-4.218 9.186-.703z" fill="#e6b045"/><path d="m19.34 27.802c0-4.439 9.186-4.439 9.186.703-1.311-4.222-7.874-4.222-9.186-.703z" fill="#e6b045"/><path d="m32.002 18.65c-28.152 0-19.24 16.827-19.24 15.225 0-5.594 8.617-10.125 19.25-10.125 10.631 0 19.25 4.531 19.25 10.125 0 1.59 8.89-15.225-19.26-15.225z" opacity=".2"/><path d="m52.174 24.461c0 5.368.443-3.362-20.166-3.362-20.609.002-20.166 8.73-20.166 3.362 0-13.242 9.028-20.376 20.166-20.376s20.166 7.134 20.166 20.376z" fill="url(#a)"/><path d="m37.56 20.239h-11.104s0-12.45 0-15.215c0-4.031 11.104-4.031 11.104 0z" fill="#e81c27"/><path d="m52.174 24.461c0-1.374-.119-2.665-.306-3.907-3.538-3.845-11.103-6.501-19.864-6.501-8.754 0-16.313 2.65-19.854 6.49-.188 1.245-.308 2.541-.308 3.918 0 5.368-.443-3.36 20.166-3.362 20.609 0 20.166 8.731 20.166 3.362z" fill="url(#b)"/><path d="m32.008 17.81c-12.15 0-22 5.107-22 11.412 0 2.673 1.777 5.131 4.746 7.075-1.26-1.266-1.986-2.684-1.986-4.187 0-5.254 8.617-9.51 19.25-9.51 10.631 0 19.25 4.256 19.25 9.51 0 1.492-.715 2.898-1.955 4.154 2.938-1.938 4.695-4.383 4.695-7.042 0-6.305-9.85-11.412-22-11.412z" fill="#e81c27"/><path d="m37.957 8.774c-1.49-2.883-4.694-2.275-5.95-4.688-1.255 2.413-4.461 1.806-5.949 4.688-1.496 2.895 1.308 4.134-.438 5.803 0 0 1.864 1.313 1.332 4.3 0 0 2.037-.962 5.055 1.139 3.018-2.101 5.054-1.139 5.054-1.139-.53-2.986 1.334-4.3 1.334-4.3-1.747-1.669 1.058-2.909-.438-5.803z" fill="#ffe12c"/><g fill="#302c3b"><path d="m35.308 15.914h-1.16v.465h1.064v.382h-1.064v.563h1.213v.394h-1.661v-2.192h1.608z"/><path d="m28.654 15.527h1.561v.384h-1.107v.506h.973v.38h-.973v.918h-.453v-2.188z"/><path d="m31.127 17.717h-.456v-2.192h.456z"/><path d="m32.977 15.58c.08.034.149.087.205.155.046.055.084.115.11.183.027.068.042.145.042.231 0 .104-.027.208-.08.309-.052.1-.139.17-.26.212.101.04.172.098.214.174.043.075.065.189.065.343v.146c0 .1.003.168.01.205.013.058.041.097.085.126v.054h-.506c-.013-.047-.023-.088-.029-.117-.013-.062-.019-.125-.02-.188l-.004-.206c0-.14-.025-.231-.072-.278-.045-.047-.134-.07-.261-.07h-.448v.859h-.445v-2.192h1.048c.149.001.265.019.346.054zm-.949.325v.59h.494c.098 0 .172-.014.22-.037.087-.041.131-.124.131-.245 0-.132-.042-.223-.127-.268-.044-.027-.116-.04-.212-.04z"/></g><path d="m35.47 9.226c-.838-.839-2.037.387-2.386.463.075-.349 1.301-1.549.463-2.388-.242-.242-2.838-.242-3.08 0-.838.839.388 2.039.462 2.388-.348-.076-1.547-1.302-2.386-.463-.241.244-.241 2.836 0 3.08.839.837 2.038-.387 2.386-.463-.075.349-1.3 1.548-.462 2.388.242.24 2.838.24 3.08 0 .838-.84-.388-2.039-.463-2.388.349.076 1.548 1.3 2.386.463.242-.244.242-2.836 0-3.08z" fill="#e81c27"/></svg>