<svg enable-background="new 0 0 64 64" height="64" viewBox="0 0 64 64" width="64" xmlns="http://www.w3.org/2000/svg"><path d="m8.682 27.566c-7.797-1.406-1.707 20.396 4.396 14.383 2.829-2.787-.749-13.724-4.396-14.383z" fill="#755035"/><path d="m55.319 27.566c-3.649.659-7.227 11.596-4.396 14.383 6.105 6.013 12.189-15.789 4.396-14.383z" fill="#755035"/><path d="m32 2c-16.123 0-23.889 13.131-22.919 30.015.199 3.394 1.143 8.29 2.308 12.485 2.417 8.72 15.177 17.5 20.611 17.5 5.432 0 18.191-8.78 20.611-17.5 1.165-4.195 2.108-9.091 2.308-12.485.967-16.884-6.794-30.015-22.919-30.015z" fill="#916b50"/><path d="m49.417 32.475c-2.155 5.638-10.917 4.812-12.521.866 1.217-6.341 11.335-6.883 12.521-.866z" fill="#fff"/><path d="m14.584 32.475c2.154 5.638 10.919 4.813 12.524.866-1.217-6.341-11.338-6.883-12.524-.866z" fill="#fff"/><path d="m32 48.072c-3.919-1.723-3.949-.07-9.999.336 2.271 2.578 3.942 5.895 9.997 5.895 6.948 0 8.122-3.766 10.003-5.895-6.054-.406-6.079-2.059-10.001-.336z" fill="#7a421b"/><path d="m23.817 49.051c3.949 4.11 12.467 4.056 16.365.002-6.08.653-10.283.653-16.365-.002z" fill="#fff"/><path d="m49.768 25.882c-3.633-2.166-10.15-2.431-12.728-.955-.547.297-.4 1.862.072 1.667 3.677-1.532 9.28-1.608 12.733.163.463.234.474-.56-.077-.875z" fill="#423225"/><path d="m14.232 25.882c3.633-2.166 10.147-2.431 12.728-.955.547.297.401 1.862-.073 1.667-3.678-1.532-9.276-1.61-12.731.163-.465.234-.474-.56.076-.875z" fill="#423225"/><path d="m37 42.18c0 3.253-10 3.253-10 0 0-.746 10-.746 10 0z" fill="#755035"/><path d="m39.091 31.862c0 4.994 7.223 4.994 7.223 0-.001-4.635-7.223-4.635-7.223 0z" fill="#613f34"/><path d="m39.804 33.459c0 2.864 5.795 2.864 5.795 0 0-2.657-5.795-2.657-5.795 0z" fill="#7d5037"/><path d="m41.203 31.941c0 2.072 2.999 2.072 2.999 0 0-1.924-2.999-1.924-2.999 0z" fill="#1a1626"/><path d="m40.178 31.335c0 1.047 1.515 1.047 1.515 0 0-.972-1.515-.972-1.515 0z" fill="#ab968c"/><path d="m17.689 31.87c0 4.994 7.222 4.994 7.222 0 0-4.636-7.222-4.636-7.222 0z" fill="#613f34"/><path d="m18.403 33.467c0 2.864 5.794 2.864 5.794 0 0-2.657-5.794-2.657-5.794 0z" fill="#7d5037"/><path d="m19.8 31.948c0 2.073 2.999 2.073 2.999 0 0-1.924-2.999-1.924-2.999 0z" fill="#1a1626"/><path d="m18.776 31.342c0 1.048 1.515 1.048 1.515 0 0-.971-1.515-.971-1.515 0z" fill="#ab968c"/><g fill="#45332c"><path d="m49.417 32.432c0-6.057-12.521-6.057-12.521.959 1.785-5.757 10.735-5.757 12.521-.959z"/><path d="m14.584 32.432c0-6.057 12.524-6.057 12.524.957-1.788-5.758-10.736-5.758-12.524-.957z"/></g></svg>