<svg enable-background="new 0 0 64 64" height="64" viewBox="0 0 64 64" width="64" xmlns="http://www.w3.org/2000/svg"><path d="m61.2 25.102c-1.08 2.176-2.23 4.033-3.648 5.6l-1.756-.387.531 1.601c-4.338 3.863-11.109 5.557-24.416 5.557-20.322 0-26.559-5.812-29.291-12.371-2.472-5.928 60.772-4.412 58.58 0z" fill="#c49a45"/><path d="m19.973 15.476c-8.107 37.397-7.365 36.596 9.702 36.596-9.444-7.1 8.647-37.105-9.702-36.596z" fill="#3b2c29"/><path d="m17.049 14.897c-5.917 28.413-.813 35.709 3.721 37.175h5.193c-12.152-9.202 6.845-37.734-8.914-37.175z" fill="#453631"/><path d="m43.826 15.475c8.106 37.397 7.364 36.596-9.701 36.596 8.685-5.699-8.648-37.105 9.701-36.596z" fill="#3b2c29"/><path d="m46.748 14.896c8.649 25.85-.019 35.979-3.72 37.175h-5.192c12.154-8.45-6.844-37.735 8.912-37.175z" fill="#453631"/><path d="m47.946 28.786c2.468 6.571.026 20.058-5.082 23.286 5.661 0 9.111-8.55 10.792-20.31 2.101-14.695-10.105-14.702-5.71-2.976z" fill="#594640"/><path d="m10.778 34.489c2.063 10.614 4.601 17.583 10.159 17.583-6.196-6.999-5.467-21.76-3.706-25.433 8.976-5.827-9.942-10.103-6.453 7.85z" fill="#594640"/><path d="m12.257 52.204c2.399-1.443 13.233-5.257 13.233-5.257h13.099s10.823 3.807 13.209 5.253c3.472 2.105 4.202 9.8 4.202 9.8h-48s.776-7.703 4.257-9.796z" fill="#e6ebef"/><path d="m39.091 48.345c0-1.135 0-6.166 0-6.166h-14.182v6.166c0 4.989 14.182 4.989 14.182 0z" fill="#e6b045"/><path d="m47.514 57.448c.089-2.16.112-3.184-.656-7.432-.186-.346-4.317-1.979-4.851-1.837.694 4.64.704 6.213.655 8.827-5.766-.155-15.559-.155-21.324 0-.049-2.614-.044-4.156.65-8.796-.533-.143-4.668 1.493-4.853 1.838-.767 4.25-.737 5.242-.647 7.399-.781.504-1.289 4.553-1.289 4.553h33.602s-.508-4.049-1.287-4.552z" fill="#006dae"/><path d="m13.742 62c.505-1.788-.094-4.509-.726-6.005-.597-1.395-.375 5.022.726 6.005z" fill="#bec3cf"/><path d="m50.985 55.995c-.633 1.496-1.229 4.217-.727 6.005 1.102-.983 1.325-7.4.727-6.005z" fill="#bec3cf"/><path d="m31.999 6.488c-11.609 0-17.201 9.455-16.502 21.611.143 2.444.822 5.969 1.661 8.989 1.741 6.278 10.929 12.6 14.841 12.6 3.911 0 13.1-6.322 14.841-12.6.839-3.02 1.519-6.545 1.663-8.989.697-12.156-4.892-21.611-16.504-21.611z" fill="#fc6"/><path d="m32 39.661c-2.822-1.241-2.844-.05-7.2.242 1.636 1.856 2.839 4.244 7.198 4.244 5.003 0 5.849-2.711 7.203-4.244-4.359-.293-4.379-1.483-7.201-.242z" fill="#d47706"/><path d="m26.108 40.365c2.844 2.959 8.976 2.92 11.784.001-4.378.471-7.405.471-11.784-.001z" fill="#fff"/><path d="m44.794 23.684c-2.616-1.559-7.308-1.75-9.165-.688-.394.214-.287 1.341.053 1.2 2.648-1.103 6.682-1.158 9.168.117.333.169.34-.403-.056-.629z" fill="#594640"/><path d="m19.206 23.684c2.615-1.559 7.307-1.75 9.166-.688.394.214.289 1.341-.054 1.2-2.648-1.103-6.68-1.159-9.167.117-.333.169-.34-.403.055-.629z" fill="#594640"/><path d="m35.6 35.418c0 2.342-7.2 2.342-7.2 0 0-.537 7.2-.537 7.2 0z" fill="#e6b045"/><path d="m44.541 28.431c-1.552 4.06-7.861 3.464-9.017.623.877-4.566 8.164-4.956 9.017-.623z" fill="#fff"/><path d="m37.106 27.989c0 3.596 5.2 3.596 5.2 0 0-3.337-5.2-3.337-5.2 0z" fill="#613f34"/><path d="m37.619 29.139c0 2.063 4.172 2.063 4.172 0 0-1.913-4.172-1.913-4.172 0z" fill="#7d5037"/><path d="m38.626 28.046c0 1.492 2.159 1.492 2.159 0 0-1.385-2.159-1.385-2.159 0z" fill="#1a1626"/><path d="m37.889 27.61c0 .754 1.09.754 1.09 0 0-.7-1.09-.7-1.09 0z" fill="#ab968c"/><path d="m44.541 28.399c0-4.361-9.017-4.361-9.017.691 1.287-4.145 7.73-4.145 9.017-.691z" fill="#45332c"/><path d="m19.459 28.431c1.552 4.06 7.862 3.466 9.019.623-.876-4.566-8.164-4.956-9.019-.623z" fill="#fff"/><path d="m21.695 27.995c0 3.596 5.2 3.596 5.2 0 0-3.338-5.2-3.338-5.2 0z" fill="#613f34"/><path d="m22.208 29.145c0 2.062 4.172 2.062 4.172 0 0-1.913-4.172-1.913-4.172 0z" fill="#7d5037"/><path d="m23.215 28.051c0 1.492 2.159 1.492 2.159 0 0-1.385-2.159-1.385-2.159 0z" fill="#1a1626"/><path d="m22.478 27.615c0 .754 1.09.754 1.09 0 0-.699-1.09-.699-1.09 0z" fill="#ab968c"/><path d="m19.459 28.399c0-4.361 9.019-4.361 9.019.689-1.287-4.145-7.731-4.145-9.019-.689z" fill="#45332c"/><path d="m43.891 8.179c-7.462 8.341-.34 8.88 4.056 20.607 2.468 6.571 4.029 14.736 5.71 2.976 2.1-14.695-5.974-24.81-9.766-23.583z" fill="#594640"/><path d="m25.573 4.984c-9.463 2.43-18.284 11.552-14.796 29.504 2.063 10.614 2.9-3.666 4.661-7.338 8.977-5.827 26.119-10.752 28.452-18.971 1.185-1.897-8.847-5.901-18.317-3.195z" fill="#594640"/><g fill="#453631"><path d="m18.116 18.062c4.063-.885 23.496-1.302 25.954-9.883-4.592 3.934-9.349 5.005-25.954 9.883z"/><path d="m11.112 31.711c6.816-9.774 29.14-8.695 32.958-23.531-7.412 12.451-31.095 14.135-32.958 23.531z"/><path d="m41.824 10.213c-1.759 2.977 4.353-1.398 10.941 17.785-1.624-11.215-7.191-18.937-10.941-17.785z"/></g><path d="m32.175 2c-5.841 0-9.957 1.77-11.927 2.291-7.454 1.973-8.622 7.658-8.622 14.225h41.094c0-6.295-9.945-16.516-20.545-16.516z" fill="#e5bc5e"/><path d="m43.911 4.639c-2.402-.563-2.807-2.639-11.736-2.639 12.362 1.65 17.756 9.311 13.208 16.516h7.337c0-6.295-1.677-12.209-8.809-13.877z" fill="#d4ae57"/><path d="m61.2 25.102c-4.34 8.742-9.814-4.772-29.289-4.772-16.605 0-26.559 11.33-29.291 4.772-1.826-4.379.594-6.254 4.455-7.289l2.066 1.422.268-1.932c.246-.043.494-.086.744-.127l1.029 1.019.406-1.238c11.639-1.662 12.424-4.225 20.322-4.225 8.34 0 10.371 3.223 21.201 3.836l.715 1.83 2.338-1.457c5.564 1.125 6.921 4.366 5.036 8.161z" fill="#c49a45"/><path d="m53.031 54.813c-4.455 0-8.967-3.027-8.967-8.816v-8.631c0-.902 1.635-3.635 1.635-3.635s1.635 2.732 1.635 3.635v8.631c0 3.832 2.863 5.547 5.697 5.547 2.836 0 5.697-1.715 5.697-5.547v-8.631c0-.902 1.635-3.635 1.635-3.635s1.637 2.732 1.637 3.634v8.631c0 5.789-4.512 8.817-8.969 8.817z" fill="#6e8189"/><path d="m51.475 55.754h3.113v6.246h-3.113z" fill="#8a6859"/><path d="m54.668 37.365c0-.902-1.637-3.635-1.637-3.635s-1.635 2.732-1.635 3.635v19.213h3.27z" fill="#6e8189"/></svg>