<svg enable-background="new 0 0 64 64" height="64" viewBox="0 0 64 64" width="64" xmlns="http://www.w3.org/2000/svg"><path d="m19.076 13.402c-8.713 37.397-7.915 36.596 10.426 36.596-10.15-7.1 9.293-37.104-10.426-36.596z" fill="#3b2c29"/><path d="m15.933 12.823c-6.358 28.413-.873 35.709 3.998 37.175h5.582c-13.06-9.202 7.356-37.734-9.58-37.175z" fill="#453631"/><path d="m44.71 13.401c8.712 37.397 7.914 36.596-10.426 36.596 9.333-5.699-9.294-37.105 10.426-36.596z" fill="#3b2c29"/><path d="m47.85 12.822c9.295 25.85-.021 35.979-3.998 37.175h-5.58c13.062-8.45-7.354-37.735 9.578-37.175z" fill="#453631"/><path d="m49.397 26.712c2.691 6.571.028 20.058-5.545 23.286 6.177 0 9.939-8.55 11.773-20.31 2.293-14.694-11.024-14.702-6.228-2.976z" fill="#594640"/><path d="m8.849 32.415c2.25 10.614 5.02 17.583 11.082 17.583-6.759-6.999-5.964-21.76-4.043-25.433 9.793-5.827-10.844-10.103-7.039 7.85z" fill="#594640"/><path d="m12.257 52.131c2.399-1.457 12.362-5.302 12.362-5.302h14.841s9.952 3.837 12.338 5.298c3.471 2.119 4.202 9.873 4.202 9.873h-48s.773-7.76 4.257-9.869" fill="#018bc9"/><path d="m24.427 49.975 7.575 12.025 7.57-12.025v-9.411h-15.145z" fill="#fc6"/><path d="m50.988 55.438c-.639 1.637-1.239 4.607-.729 6.563 1.098-1.075 1.322-8.087.729-6.563" fill="#006dae"/><path d="m14.025 62c.512-1.955-.089-4.928-.729-6.563-.594-1.525-.368 5.487.729 6.563" fill="#006dae"/><path d="m32.002 62h-3.471s-2.704-3.514-7.451-5.311c0 0 2.329-2.889 5.459-4.137 4.016 3.987 5.463 9.448 5.463 9.448" fill="#006dae"/><path d="m32.002 62s-3.26-11.346-11.318-9.035c0 0-.319-5.806 3.744-8.87 1.257-.949-1.132 3.162 3.956 8.886 2.736 3.078 3.618 9.019 3.618 9.019" fill="#e6ebef"/><path d="m32.002 62h3.471s2.702-3.514 7.449-5.311c0 0-2.329-2.889-5.461-4.137-4.015 3.987-5.459 9.448-5.459 9.448" fill="#006dae"/><path d="m32.002 62s3.256-11.346 11.314-9.035c0 0 .319-5.806-3.742-8.87-1.259-.949 1.13 3.162-3.956 8.886-2.738 3.078-3.616 9.019-3.616 9.019" fill="#e6ebef"/><path d="m32 4.415c-11.609 0-17.201 9.455-16.502 21.611.142 2.444.822 5.969 1.661 8.989 1.741 6.278 10.929 12.6 14.841 12.6 3.911 0 13.1-6.322 14.841-12.6.839-3.02 1.519-6.545 1.663-8.989.697-12.156-4.893-21.611-16.504-21.611z" fill="#fc6"/><path d="m32.001 37.587c-2.822-1.241-2.844-.05-7.2.242 1.636 1.856 2.839 4.244 7.198 4.244 5.003 0 5.849-2.711 7.203-4.244-4.359-.292-4.379-1.483-7.201-.242z" fill="#d47706"/><path d="m26.108 38.292c2.844 2.959 8.977 2.92 11.784.001-4.378.47-7.404.47-11.784-.001z" fill="#fff"/><path d="m44.795 21.61c-2.616-1.559-7.308-1.75-9.165-.688-.394.214-.287 1.341.053 1.2 2.649-1.103 6.682-1.158 9.168.117.332.17.339-.402-.056-.629z" fill="#594640"/><path d="m19.207 21.61c2.615-1.559 7.307-1.75 9.166-.688.393.214.289 1.341-.054 1.2-2.648-1.103-6.68-1.159-9.167.117-.334.17-.341-.402.055-.629z" fill="#594640"/><path d="m35.6 33.345c0 2.342-7.2 2.342-7.2 0 0-.538 7.2-.538 7.2 0z" fill="#e6b045"/><path d="m44.542 26.357c-1.552 4.059-7.861 3.464-9.017.624.876-4.566 8.163-4.957 9.017-.624z" fill="#fff"/><path d="m37.106 25.916c0 3.596 5.2 3.596 5.2 0 0-3.338-5.2-3.338-5.2 0z" fill="#613f34"/><path d="m37.62 27.066c0 2.063 4.172 2.063 4.172 0 0-1.914-4.172-1.914-4.172 0z" fill="#7d5037"/><path d="m38.627 25.972c0 1.492 2.159 1.492 2.159 0 0-1.385-2.159-1.385-2.159 0z" fill="#1a1626"/><path d="m37.889 25.536c0 .754 1.09.754 1.09 0 0-.699-1.09-.699-1.09 0z" fill="#ab968c"/><path d="m44.542 26.326c0-4.361-9.017-4.361-9.017.691 1.286-4.146 7.73-4.146 9.017-.691z" fill="#45332c"/><path d="m19.46 26.357c1.552 4.059 7.862 3.466 9.019.624-.877-4.566-8.165-4.957-9.019-.624z" fill="#fff"/><path d="m21.695 25.921c0 3.596 5.2 3.596 5.2 0 0-3.337-5.2-3.337-5.2 0z" fill="#613f34"/><path d="m22.209 27.071c0 2.062 4.172 2.062 4.172 0 0-1.913-4.172-1.913-4.172 0z" fill="#7d5037"/><path d="m23.216 25.978c0 1.492 2.159 1.492 2.159 0 0-1.386-2.159-1.386-2.159 0z" fill="#1a1626"/><path d="m22.478 25.542c0 .754 1.09.754 1.09 0 0-.7-1.09-.7-1.09 0z" fill="#ab968c"/><path d="m19.46 26.326c0-4.361 9.019-4.361 9.019.689-1.288-4.145-7.731-4.145-9.019-.689z" fill="#45332c"/><path d="m44.972 6.106c-8.14 8.341-.371 8.88 4.425 20.607 2.691 6.571 4.395 14.736 6.229 2.976 2.292-14.695-6.517-24.811-10.654-23.583z" fill="#594640"/><path d="m24.99 2.911c-10.323 2.429-19.946 11.551-16.141 29.504 2.25 10.614 5.118-4.177 7.039-7.85 9.793-5.827 26.539-10.241 29.084-18.46 1.292-1.896-9.652-5.9-19.982-3.194z" fill="#594640"/><g fill="#453631"><path d="m17.081 15.988c4.365-.885 25.25-1.302 27.892-9.883-4.936 3.934-10.048 5.005-27.892 9.883z"/><path d="m9.553 29.637c7.324-9.774 31.316-8.695 35.419-23.531-7.965 12.451-33.417 14.135-35.419 23.531z"/><path d="m42.558 8.139c-1.89 2.977 4.678-1.398 11.757 17.785-1.745-11.214-7.726-18.937-11.757-17.785z"/></g><path d="m25.779 45.129c5.478 6.498 6.965 6.493 12.442-.007-2.375 1.544-4.702 2.513-6.227 2.513-1.522 0-3.844-.965-6.215-2.506z" fill="#e6b045"/></svg>