<svg enable-background="new 0 0 64 64" height="64" viewBox="0 0 64 64" width="64" xmlns="http://www.w3.org/2000/svg"><path d="m11.225 10.678c-2.793 11.992-2.537 11.735 3.344 11.735-3.255-2.277 2.98-11.899-3.344-11.735z" fill="#3b2c29"/><path d="m10.217 10.492c-2.036 9.111-.277 11.451 1.284 11.921h1.788c-4.185-2.951 2.357-12.1-3.072-11.921z" fill="#453631"/><path d="m19.445 10.677c2.794 11.993 2.537 11.736-3.343 11.736 2.994-1.828-2.979-11.899 3.343-11.736z" fill="#3b2c29"/><path d="m20.453 10.492c2.98 8.288-.006 11.536-1.283 11.921h-1.789c4.19-2.71-2.357-12.101 3.072-11.921z" fill="#453631"/><path d="m20.949 14.945c.863 2.108.009 6.433-1.779 7.468 1.981 0 3.189-2.741 3.776-6.513.736-4.712-3.534-4.715-1.997-.955z" fill="#594640"/><path d="m7.947 16.775c.721 3.403 1.608 5.638 3.554 5.638-2.167-2.245-1.914-6.978-1.296-8.155 3.138-1.869-3.478-3.24-2.258 2.517z" fill="#594640"/><path d="m31.607 52.668c-3.776-2.395-1.157-5.275.465-4.266 7.252 4.502 3.362 6.696-.465 4.266z" fill="#302c3b"/><path d="m15.98 61.898c-1.517-.572.242-2.225-.318-4.396-1.097-4.244 2.68-3.984 3.13-1.969.969 4.321-1.043 7.035-2.812 6.365z" fill="#302c3b"/><path d="m18.003 55.764c-.276-5.256 1.092-6.002-.882-9.502 1.031-3.094.508-4.852.508-4.852l-4.913-4.408s.303 8.127 1.249 11.135c1.159 3.705 1.876 8.033 1.876 8.033.098 2.176 2.288 1.959 2.162-.406z" fill="#fdca47"/><path d="m9.212 29.539 1.227-2.267-2.183-2.011c-2.604 4.347-2.548 4.598-1.834 5.469l5.978 3.959-.017-2.571z" fill="#fdca47"/><path d="m22.646 28.362-1.067-1.185 2.134-2.4c2.678 3.238 3.229 3.819 1.991 5.185l-5.455 3.84-1.369-1.912z" fill="#fdca47"/><path d="m19.712 32.5c-1.021-.75-1.11-4.6.185-6.167l1.772 1.181 2.42-2.658s-1.628-1.807-2.815-2.821c-2.109-1.8-8.724-1.444-10.684.196-1.195 1.001-2.915 3.603-2.915 3.603l2.715 1.765.39-.51c1.937 5.484.536 7.62 1.957 10.399.021-1.074 1.742 4.383 5.547 4.383 2.118 0 7.362-5.023 1.428-9.371z" fill="#302c3b"/><path d="m32.204 49.643c-3.588-3.477-3.082-5.236-6.856-6.021-1.12-6.053-4.996-9.236-4.996-9.236-2.704 3.559-1.803 6.66-1.803 6.66s3.063 5.135 5.728 6.461c3.28 1.623 6.614 4.072 6.614 4.072 1.473 1.452 2.929-.368 1.313-1.936z" fill="#fdca47"/><path d="m13.319 21.107c0 2.32 4.101 2.32 4.101 0v-2.405h-4.101z" fill="#e6b045"/><path d="m15.37 7.796c-3.724 0-5.517 3.03-5.291 6.93.045.784.263 1.914.532 2.882.558 2.013 3.504 4.04 4.759 4.04 1.256 0 4.199-2.027 4.759-4.04.269-.968.487-2.099.533-2.882.224-3.899-1.568-6.93-5.292-6.93z" fill="#fc6"/><path d="m15.37 18.434c-.904-.398-.913-.016-2.311.077.526.595.913 1.36 2.31 1.36 1.605 0 1.876-.869 2.311-1.36-1.398-.094-1.406-.476-2.31-.077z" fill="#d47706"/><path d="m13.479 18.658c.912.949 2.88.938 3.781 0-1.405.152-2.373.152-3.781 0z" fill="#fff"/><path d="m19.473 13.309c-.84-.499-2.343-.561-2.939-.219-.125.068-.09.43.019.385.849-.354 2.142-.372 2.939.038.107.053.108-.132-.019-.204z" fill="#594640"/><path d="m11.269 13.309c.838-.499 2.342-.561 2.938-.219.125.068.093.43-.018.385-.85-.354-2.142-.372-2.938.038-.108.053-.111-.132.018-.204z" fill="#594640"/><path d="m16.524 17.073c0 .751-2.308.751-2.308 0 .001-.174 2.308-.174 2.308 0z" fill="#e6b045"/><path d="m19.392 14.833c-.497 1.3-2.521 1.11-2.89.2.279-1.466 2.615-1.591 2.89-.2z" fill="#fff"/><path d="m17.007 14.691c0 1.152 1.669 1.152 1.669 0 0-1.072-1.669-1.072-1.669 0z" fill="#613f34"/><path d="m17.172 15.059c0 .662 1.338.662 1.338 0 0-.613-1.338-.613-1.338 0z" fill="#7d5037"/><path d="m17.494 14.708c0 .479.693.479.693 0 .001-.444-.693-.444-.693 0z" fill="#1a1626"/><path d="m17.26 14.568c0 .242.349.242.349 0-.001-.224-.349-.224-.349 0z" fill="#ab968c"/><path d="m19.392 14.823c0-1.4-2.89-1.4-2.89.221.411-1.331 2.477-1.331 2.89-.221z" fill="#45332c"/><path d="m11.348 14.833c.499 1.3 2.523 1.11 2.894.2-.283-1.466-2.618-1.591-2.894-.2z" fill="#fff"/><path d="m12.066 14.693c0 1.152 1.666 1.152 1.666 0 0-1.071-1.666-1.071-1.666 0z" fill="#613f34"/><path d="m12.23 15.061c0 .662 1.339.662 1.339 0 0-.613-1.339-.613-1.339 0z" fill="#7d5037"/><path d="m12.552 14.71c0 .479.694.479.694 0 0-.444-.694-.444-.694 0z" fill="#1a1626"/><path d="m12.317 14.571c0 .241.35.241.35 0 0-.225-.35-.225-.35 0z" fill="#ab968c"/><path d="m11.348 14.823c0-1.4 2.894-1.4 2.894.219-.414-1.329-2.48-1.329-2.894-.219z" fill="#45332c"/><path d="m19.529 8.337c-2.61 2.676-.117 2.848 1.42 6.608.863 2.108 1.41 4.727 1.997.956.736-4.713-2.091-7.957-3.417-7.564z" fill="#594640"/><path d="m13.123 7.313c-3.312.779-6.396 3.705-5.176 9.462.721 3.403 1.64-1.34 2.258-2.518 3.138-1.869 8.508-3.285 9.324-5.921.415-.607-3.095-1.891-6.406-1.023z" fill="#594640"/><g fill="#453631"><path d="m10.586 11.506c1.4-.284 8.097-.417 8.943-3.169-1.582 1.262-3.219 1.606-8.943 3.169z"/><path d="m8.172 15.884c2.349-3.135 10.042-2.79 11.357-7.547-2.554 3.993-10.716 4.533-11.357 7.547z"/><path d="m18.756 8.989c-.605.956 1.501-.447 3.77 5.704-.559-3.597-2.478-6.072-3.77-5.704z"/></g><path d="m20.111 2.004c-.292-.103-2.761 1.792-2.836 3.368-.085 1.787-.191 3.074-.267 3.85-.751-.104-2.529-.1-3.276.015-.075-.774-.181-2.066-.266-3.864-.077-1.576-2.545-3.471-2.839-3.368-.474.162-1.33 2.995-.523 4.226 1.164 1.771 1.662 2.875 1.877 3.519-.666.311-1.229.733-1.597 1.283 3.411-1.213 6.674-1.213 10.085 0-.384-.577-.983-1.016-1.694-1.329.224-.649.722-1.742 1.859-3.473.809-1.231-.046-4.064-.523-4.227z" fill="#302c3b"/><path d="m33.079 10.678c-2.793 11.992-2.537 11.735 3.345 11.735-3.255-2.277 2.979-11.899-3.345-11.735z" fill="#3b2c29"/><path d="m32.071 10.492c-2.036 9.111-.277 11.451 1.284 11.921h1.788c-4.185-2.951 2.358-12.1-3.072-11.921z" fill="#453631"/><path d="m41.3 10.677c2.794 11.993 2.537 11.736-3.343 11.736 2.993-1.828-2.979-11.899 3.343-11.736z" fill="#3b2c29"/><path d="m42.308 10.492c2.98 8.288-.006 11.536-1.283 11.921h-1.789c4.19-2.71-2.357-12.101 3.072-11.921z" fill="#453631"/><path d="m42.804 14.945c.863 2.108.009 6.433-1.779 7.468 1.981 0 3.189-2.741 3.776-6.513.735-4.712-3.534-4.715-1.997-.955z" fill="#594640"/><path d="m29.802 16.775c.721 3.403 1.608 5.638 3.554 5.638-2.167-2.245-1.914-6.978-1.296-8.155 3.137-1.869-3.479-3.24-2.258 2.517z" fill="#594640"/><path d="m53.462 52.668c-3.776-2.395-1.157-5.275.465-4.266 7.252 4.502 3.361 6.696-.465 4.266z" fill="#302c3b"/><path d="m37.835 61.898c-1.517-.572.242-2.225-.318-4.396-1.097-4.244 2.68-3.984 3.13-1.969.968 4.321-1.043 7.035-2.812 6.365z" fill="#302c3b"/><path d="m39.857 55.764c-.276-5.256 1.092-6.002-.882-9.502 1.031-3.094.508-4.852.508-4.852l-4.913-4.408s.303 8.127 1.249 11.135c1.159 3.705 1.876 8.033 1.876 8.033.099 2.176 2.288 1.959 2.162-.406z" fill="#fdca47"/><path d="m31.066 29.539 1.227-2.267-2.183-2.011c-2.604 4.346-2.548 4.598-1.834 5.469l5.978 3.959-.017-2.571z" fill="#fdca47"/><path d="m44.5 28.362-1.067-1.185 2.134-2.4c2.678 3.238 3.229 3.819 1.991 5.185l-5.455 3.84-1.368-1.913z" fill="#fdca47"/><path d="m41.566 32.5c-1.021-.75-1.11-4.599.185-6.167l1.772 1.181 2.42-2.658s-1.628-1.807-2.815-2.821c-2.109-1.8-8.724-1.444-10.684.196-1.195 1.001-2.915 3.603-2.915 3.603l2.715 1.766.39-.51c1.937 5.484.536 7.62 1.957 10.399.021-1.074 1.742 4.383 5.547 4.383 2.119-.001 7.363-5.024 1.428-9.372z" fill="#302c3b"/><path d="m54.059 49.643c-3.588-3.477-3.082-5.236-6.856-6.021-1.12-6.053-4.996-9.236-4.996-9.236-2.704 3.559-1.803 6.66-1.803 6.66s3.063 5.135 5.728 6.461c3.28 1.623 6.614 4.072 6.614 4.072 1.473 1.452 2.929-.368 1.313-1.936z" fill="#fdca47"/><path d="m35.174 21.107c0 2.32 4.101 2.32 4.101 0v-2.405h-4.101z" fill="#e6b045"/><path d="m37.225 7.796c-3.724 0-5.517 3.03-5.291 6.93.045.784.263 1.914.532 2.882.558 2.013 3.504 4.04 4.759 4.04 1.256 0 4.199-2.027 4.759-4.04.269-.968.487-2.099.533-2.882.223-3.899-1.569-6.93-5.292-6.93z" fill="#fc6"/><path d="m37.225 18.434c-.904-.398-.913-.016-2.311.077.526.595.913 1.36 2.31 1.36 1.605 0 1.876-.869 2.311-1.36-1.398-.094-1.406-.476-2.31-.077z" fill="#d47706"/><path d="m35.334 18.658c.912.949 2.88.938 3.781 0-1.405.152-2.374.152-3.781 0z" fill="#fff"/><path d="m41.327 13.309c-.84-.499-2.343-.561-2.939-.219-.125.068-.09.43.019.385.849-.354 2.142-.372 2.939.038.107.053.108-.132-.019-.204z" fill="#594640"/><path d="m33.123 13.309c.838-.499 2.342-.561 2.938-.219.125.068.093.43-.018.385-.85-.354-2.142-.372-2.938.038-.108.053-.111-.132.018-.204z" fill="#594640"/><path d="m38.379 17.073c0 .751-2.308.751-2.308 0 0-.174 2.308-.174 2.308 0z" fill="#e6b045"/><path d="m41.246 14.833c-.497 1.3-2.521 1.11-2.89.2.28-1.466 2.616-1.591 2.89-.2z" fill="#fff"/><path d="m38.861 14.691c0 1.152 1.669 1.152 1.669 0 0-1.072-1.669-1.072-1.669 0z" fill="#613f34"/><path d="m39.026 15.059c0 .662 1.338.662 1.338 0 0-.613-1.338-.613-1.338 0z" fill="#7d5037"/><path d="m39.349 14.708c0 .479.693.479.693 0 0-.444-.693-.444-.693 0z" fill="#1a1626"/><path d="m39.114 14.568c0 .242.349.242.349 0 0-.224-.349-.224-.349 0z" fill="#ab968c"/><path d="m41.246 14.823c0-1.4-2.89-1.4-2.89.221.412-1.331 2.478-1.331 2.89-.221z" fill="#45332c"/><path d="m33.202 14.833c.499 1.3 2.523 1.11 2.894.2-.283-1.466-2.617-1.591-2.894-.2z" fill="#fff"/><path d="m33.921 14.693c0 1.152 1.666 1.152 1.666 0 0-1.071-1.666-1.071-1.666 0z" fill="#613f34"/><path d="m34.085 15.061c0 .662 1.339.662 1.339 0 0-.613-1.339-.613-1.339 0z" fill="#7d5037"/><path d="m34.406 14.71c0 .479.694.479.694 0 .001-.444-.694-.444-.694 0z" fill="#1a1626"/><path d="m34.172 14.571c0 .241.35.241.35 0-.001-.225-.35-.225-.35 0z" fill="#ab968c"/><path d="m33.202 14.823c0-1.4 2.894-1.4 2.894.219-.413-1.329-2.48-1.329-2.894-.219z" fill="#45332c"/><path d="m41.384 8.337c-2.61 2.676-.117 2.848 1.42 6.608.863 2.108 1.41 4.727 1.997.956.735-4.713-2.091-7.957-3.417-7.564z" fill="#594640"/><path d="m34.978 7.313c-3.312.779-6.396 3.705-5.176 9.462.721 3.403 1.64-1.34 2.258-2.518 3.138-1.869 8.508-3.285 9.324-5.921.415-.607-3.096-1.891-6.406-1.023z" fill="#594640"/><path d="m32.44 11.506c1.4-.284 8.097-.417 8.943-3.169-1.581 1.262-3.219 1.606-8.943 3.169z" fill="#453631"/><path d="m30.026 15.884c2.349-3.135 10.042-2.79 11.357-7.547-2.554 3.993-10.715 4.533-11.357 7.547z" fill="#453631"/><path d="m40.61 8.989c-.605.956 1.501-.447 3.77 5.704-.559-3.597-2.478-6.072-3.77-5.704z" fill="#453631"/><path d="m41.966 2.004c-.292-.103-2.761 1.792-2.836 3.368-.085 1.787-.191 3.074-.267 3.85-.751-.104-2.529-.1-3.276.015-.075-.774-.181-2.066-.266-3.864-.077-1.576-2.545-3.471-2.839-3.368-.474.162-1.331 2.995-.523 4.226 1.164 1.771 1.662 2.875 1.877 3.519-.666.311-1.229.733-1.597 1.283 3.411-1.213 6.674-1.213 10.085 0-.384-.577-.983-1.016-1.694-1.329.224-.649.722-1.742 1.859-3.473.809-1.231-.047-4.064-.523-4.227z" fill="#302c3b"/></svg>