<svg enable-background="new 0 0 64 64" height="64" viewBox="0 0 64 64" width="64" xmlns="http://www.w3.org/2000/svg" xmlns:xlink="http://www.w3.org/1999/xlink"><linearGradient id="a" gradientUnits="userSpaceOnUse" x1="32.0005" x2="32.0005" y1="62" y2="2.0005"><stop offset="0" stop-color="#424e57"/><stop offset="1" stop-color="#5b6d78"/></linearGradient><path d="m51.799 49.273c-2.054-1.178-9.696-4-11.797-4.768v-3.512c2.123-1.73 4.156-3.967 5.005-5.663.525-1.048 1.061-2.802 1.533-4.709 3.306-.507 5.656-11.116 1.518-10.784-.196-10.508-5.615-17.837-16.056-17.837-10.443 0-15.86 7.329-16.057 17.838-4.142-.333-1.788 10.277 1.519 10.784.473 1.907 1.009 3.661 1.533 4.709.848 1.696 2.881 3.935 5.005 5.666v3.536c-2.204.808-9.704 3.584-11.745 4.744-3.482 1.977-4.257 12.723-4.257 12.723h48s-.731-10.74-4.201-12.727z" fill="url(#a)"/></svg>