<svg enable-background="new 0 0 64 64" height="64" viewBox="0 0 64 64" width="64" xmlns="http://www.w3.org/2000/svg"><path d="m19.076 13.403c-8.712 37.396-7.915 36.596 10.426 36.596-10.149-7.101 9.293-37.105-10.426-36.596z" fill="#261a17"/><path d="m15.934 12.824c-6.357 28.412-.872 35.709 3.998 37.175h5.583c-13.062-9.203 7.354-37.735-9.581-37.175z" fill="#1e1513"/><path d="m44.709 13.401c8.713 37.397 7.915 36.597-10.425 36.597 9.333-5.7-9.294-37.106 10.425-36.597z" fill="#261a17"/><path d="m47.85 12.822c9.295 25.85-.02 35.979-3.998 37.176h-5.579c13.061-8.451-7.355-37.736 9.577-37.176z" fill="#1e1513"/><path d="m32 4.414c-11.609 0-17.201 9.455-16.502 21.611.143 2.444.822 5.969 1.662 8.989 1.74 6.278 10.928 12.6 14.84 12.6 3.911 0 13.1-6.321 14.84-12.6.84-3.021 1.52-6.545 1.664-8.989.697-12.156-4.893-21.611-16.504-21.611z" fill="#fcd5b2"/><path d="m44.542 26.357c-1.552 4.06-7.861 3.465-9.017.624.875-4.567 8.163-4.957 9.017-.624z" fill="#fff"/><path d="m19.46 26.357c1.552 4.06 7.862 3.466 9.019.624-.876-4.567-8.165-4.957-9.019-.624z" fill="#fff"/><path d="m44.795 21.61c-2.617-1.559-7.308-1.75-9.165-.688-.394.215-.287 1.341.053 1.2 2.648-1.103 6.681-1.157 9.167.117.334.17.339-.403-.055-.629z" fill="#594640"/><path d="m19.207 21.61c2.616-1.559 7.307-1.75 9.167-.688.392.215.288 1.341-.055 1.2-2.649-1.103-6.68-1.159-9.167.117-.334.17-.34-.403.055-.629z" fill="#594640"/><path d="m35.601 33.345c0 2.342-7.2 2.342-7.2 0-.001-.538 7.2-.538 7.2 0z" fill="#dba97f"/><path d="m44.973 6.106c-8.14 8.341-.371 8.88 4.424 20.606 2.692 6.571.029 20.059-5.545 23.286 6.177 0 9.94-8.55 11.774-20.309 2.291-14.696-6.517-24.811-10.653-23.583z" fill="#3a2c29"/><path d="m24.99 2.91c-10.323 2.43-19.945 11.552-16.139 29.505 2.25 10.613 5.019 17.583 11.081 17.583-6.758-6.999-5.964-21.76-4.043-25.433 9.793-5.827 26.539-10.241 29.084-18.46 1.292-1.897-9.653-5.901-19.983-3.195z" fill="#3a2c29"/><path d="m17.081 15.989c4.366-.886 25.249-1.303 27.892-9.883-4.936 3.933-10.049 5.004-27.892 9.883z" fill="#1e1513"/><path d="m9.555 29.637c7.324-9.774 31.314-8.695 35.418-23.531-7.966 12.451-33.416 14.135-35.418 23.531z" fill="#1e1513"/><path d="m42.559 8.139c-1.89 2.978 4.678-1.397 11.757 17.785-1.747-11.215-7.727-18.936-11.757-17.785z" fill="#1e1513"/><path d="m37.106 25.915c0 3.596 5.199 3.596 5.199 0 .001-3.337-5.199-3.337-5.199 0z" fill="#613f34"/><path d="m37.619 27.066c0 2.063 4.172 2.063 4.172 0 0-1.913-4.172-1.913-4.172 0z" fill="#7d5037"/><path d="m38.626 25.972c0 1.492 2.16 1.492 2.16 0 0-1.385-2.16-1.385-2.16 0z" fill="#1a1626"/><path d="m37.889 25.536c0 .754 1.09.754 1.09 0 0-.7-1.09-.7-1.09 0z" fill="#ab968c"/><path d="m21.695 25.921c0 3.596 5.2 3.596 5.2 0 .001-3.338-5.2-3.338-5.2 0z" fill="#613f34"/><path d="m22.21 27.072c0 2.062 4.172 2.062 4.172 0 0-1.914-4.172-1.914-4.172 0z" fill="#7d5037"/><path d="m23.217 25.978c0 1.492 2.158 1.492 2.158 0 0-1.386-2.158-1.386-2.158 0z" fill="#1a1626"/><path d="m22.479 25.541c0 .755 1.09.755 1.09 0 0-.699-1.09-.699-1.09 0z" fill="#ab968c"/><path d="m44.542 26.326c0-4.36-9.017-4.36-9.017.691 1.286-4.146 7.729-4.146 9.017-.691z" fill="#45332c"/><path d="m19.46 26.326c0-4.36 9.019-4.36 9.019.689-1.288-4.146-7.731-4.146-9.019-.689z" fill="#45332c"/><path d="m53.832 59.5h-43.664c-1.279 0-1.209 1.125-1.279 2.5h46.223c-.071-1.375-.001-2.5-1.28-2.5z" fill="#bec3cf"/><path d="m10.332 60c0-.174 3.719-.313 21.668-.313s21.666.139 21.666.313c0 .17-3.717.313-21.666.313s-21.668-.143-21.668-.313" fill="#99a8ae"/><path d="m56.986 36h-49.972c-.625 0-1.078.412-1.006.916l3.148 22.166c.071.504.641.918 1.264.918h43.158c.625 0 1.195-.414 1.266-.918l3.148-22.166c.072-.504-.383-.916-1.006-.916" fill="#cfd8dd"/><path d="m55.738 36.922c0 .256-4.074.463-23.738.463-19.666 0-23.738-.207-23.738-.463 0-.254 4.072-.461 23.738-.461 19.664 0 23.738.207 23.738.461" fill="#fff"/><g fill="#99a8ae"><path d="m16.758 61h-3.934c-1.377 0-1.377-2 0-2h3.934c1.379 0 1.379 2 0 2z"/><path d="m51.174 61h-3.934c-1.377 0-1.377-2 0-2h3.934c1.379 0 1.379 2 0 2z"/><path d="m44.406 61.137c0 .691-1 .691-1 0 0-.643 1-.643 1 0z"/><path d="m42.375 61.137c0 .691-1 .691-1 0 0-.643 1-.643 1 0z"/></g><path d="m32 45.999c2.068 0 3.75 1.346 3.75 3s-1.682 3-3.75 3c-2.066 0-3.75-1.346-3.75-3s1.684-3 3.75-3zm0-1c-2.76 0-5 1.791-5 4s2.24 4 5 4c2.762 0 5-1.791 5-4s-2.238-4-5-4z" fill="#fff"/><path d="m33.002 49.4c-.168 0-.252-.066-.252-.199v-.4c0-.135.084-.201.252-.201h1.623c.168 0 .252.066.252.201v.199c0 1.271-1.287 2.301-2.877 2.301-.771 0-1.496-.246-2.031-.674-.119-.096-.119-.188-.002-.283l.533-.424c.117-.094.234-.094.352 0 .304.241.712.38 1.148.38.723 0 1.336-.377 1.549-.9z" fill="#fff"/></svg>