<svg enable-background="new 0 0 64 64" height="64" viewBox="0 0 64 64" width="64" xmlns="http://www.w3.org/2000/svg" xmlns:xlink="http://www.w3.org/1999/xlink"><radialGradient id="a" cx="-875.7236" cy="-339.9463" gradientTransform="matrix(1.4308 .2523 -.2682 1.5209 1198.286 742.8124)" gradientUnits="userSpaceOnUse" r="9.8124"><stop offset=".4182" stop-color="#ff0071"/><stop offset=".6534" stop-color="#f6006b"/><stop offset="1" stop-color="#e0005d"/></radialGradient><path d="m36.137 6.329c-2.462-6.216-12.396-5.71-13.638 1.333-.833 4.725 3.014 8.663 10.378 17.155 9.825-5.461 14.788-7.847 15.621-12.57 1.242-7.044-7.921-10.916-12.361-5.918z" fill="url(#a)"/><path d="m32.164 41.558c-4.006-1.473-2.811 10.645.986 8.029 1.762-1.213.885-7.34-.986-8.029z" fill="#e6b045"/><path d="m56.892 45.919c-1.995.008-4.914 5.463-3.673 7.207 2.676 3.756 7.935-7.223 3.673-7.207z" fill="#e6b045"/><path d="m46.914 30.2c-8.549-1.509-13.809 4.227-14.876 13.299-.214 1.826-.132 7.92.553 10.219.703 2.354 2.591 6.127 4.69 7.207 1.325.686 4.396 1.229 5.879 1.037 2.34-.299 7.705-2.791 9.168-4.764 1.435-1.926 3.593-7.623 4.016-9.414 2.1-8.888-.881-16.076-9.43-17.584z" fill="#fc6"/><path d="m46.914 30.2c-5.881-1.038-9.777.274-11.179-.739 0 0-.342.972.143 1.731 0 0-.729.436-1.59-.668-1.532 2.987 1.038 5.331 11.31 7.142 10.272 1.813 8.259-1.121 12.537 4.158.46-5.497-2.287-10.05-11.221-11.624z" fill="#594640"/><path d="m50.433 35.681c-6.023 1.09-7.427-3.04-12.699-4.344 2.328 1.645 3.241 3.708 5.091 5.403-4.271-2.314-7.137-5.512-7.088-7.27 0 0-1.197 2.369 1.465 4.768-2.908-.242-2.912-3.705-2.912-3.705-1.861 2.07-2.983 9.605-2.354 15.457.617-1.941.152-2.869 1.495-5.098 4.01-6.67 1.711-3.979 11.981-2.17 10.273 1.813 8.901-1.252 10.522 6.137.481 2.199-.26 3.268-.342 5.303 5.593-11.96 1.23-15.636-5.159-14.481z" fill="#453631"/><path d="m54.33 44.44c-1.784-1.316-5.517-2.021-7.032-1.592-.321.078-.286 1.031-.018.988 2.069-.379 5.205.158 6.884 1.275.225.148.439-.485.166-.671z" fill="#c1873c"/><path d="m35.075 41.044c2.125-.625 5.876-.012 7.15.91.276.184-.083 1.066-.317.936-1.819-1.064-4.947-1.633-6.908-1.154-.261.058-.243-.61.075-.692z" fill="#c1873c"/><path d="m36.982 54.761c-2.271 2.41 3.216 3.4 4.986 1.045z" fill="#e6a400"/><path d="m38.311 54.364c1.207-.357 2.031.732 3.658 1.441-1.58.408-3.65.137-3.838-.537 0 0-.676.338-1.206-.268-.593-.673.229-1.489 1.386-.636z" fill="#cc9200"/><g fill="#e6b045"><path d="m39.803 50.956c-.473 1.539 4.254 2.998 4.729 1.459.111-.352-4.62-1.812-4.729-1.459z"/><path d="m34.736 45.813c-.379 2.143 6.538 3.361 6.975.883.236-3.654-6.217-4.693-6.975-.883z"/><path d="m53.014 49.036c-.377 2.141-7.295.922-6.857-1.557 1.028-3.515 7.447-2.281 6.857 1.557z"/></g><path d="m53.013 49.036c-.377 2.141-7.295.922-6.857-1.559.355 1.243 6.133 2.413 6.857 1.559z" fill="#613f34"/><path d="m34.736 45.813c-.379 2.143 6.538 3.361 6.975.883-.757 1.045-6.586.166-6.975-.883z" fill="#613f34"/><path d="m7.108 45.919c1.995.008 4.914 5.463 3.673 7.207-2.676 3.756-7.935-7.223-3.673-7.207z" fill="#e6b045"/><path d="m17.086 30.2c8.549-1.509 13.809 4.227 14.876 13.299.214 1.826.132 7.92-.553 10.219-.703 2.354-2.591 6.127-4.69 7.207-1.325.686-4.396 1.229-5.879 1.037-2.34-.299-7.705-2.791-9.168-4.764-1.435-1.926-3.593-7.623-4.016-9.414-2.1-8.888.881-16.076 9.43-17.584z" fill="#fc6"/><path d="m17.086 30.2c5.881-1.038 9.777.274 11.179-.739 0 0 .342.972-.143 1.731 0 0 .729.436 1.59-.668 1.532 2.987-1.038 5.331-11.31 7.142-10.272 1.813-8.259-1.121-12.537 4.158-.46-5.497 2.287-10.05 11.221-11.624z" fill="#594640"/><path d="m13.567 35.681c6.023 1.09 7.427-3.04 12.699-4.344-2.328 1.645-3.241 3.708-5.091 5.403 4.271-2.314 7.137-5.512 7.088-7.27 0 0 1.197 2.369-1.465 4.768 2.908-.242 2.912-3.705 2.912-3.705 1.861 2.07 2.983 9.605 2.354 15.457-.617-1.941-.152-2.869-1.495-5.098-4.01-6.67-1.711-3.979-11.981-2.17-10.273 1.812-8.9-1.252-10.522 6.136-.481 2.199.26 3.268.342 5.303-5.593-11.959-1.23-15.635 5.159-14.48z" fill="#453631"/><path d="m9.67 44.44c1.784-1.316 5.517-2.021 7.032-1.592.321.078.286 1.031.018.988-2.069-.379-5.205.158-6.884 1.275-.225.148-.439-.485-.166-.671z" fill="#c1873c"/><path d="m28.925 41.044c-2.125-.625-5.876-.012-7.15.91-.276.184.083 1.066.317.936 1.819-1.064 4.947-1.633 6.908-1.154.261.058.243-.61-.075-.692z" fill="#c1873c"/><path d="m27.018 54.761c2.271 2.41-3.216 3.4-4.986 1.045z" fill="#e6a400"/><path d="m25.689 54.364c-1.207-.357-2.031.732-3.658 1.441 1.58.408 3.65.137 3.838-.537 0 0 .676.338 1.206-.268.593-.673-.229-1.489-1.386-.636z" fill="#cc9200"/><path d="m24.197 50.956c.473 1.539-4.254 2.998-4.729 1.459-.111-.352 4.62-1.812 4.729-1.459z" fill="#e6b045"/><path d="m29.264 45.813c.379 2.143-6.538 3.361-6.975.883-.236-3.654 6.217-4.693 6.975-.883z" fill="#e6b045"/><path d="m10.986 49.036c.377 2.141 7.295.922 6.857-1.557-1.028-3.515-7.447-2.281-6.857 1.557z" fill="#e6b045"/><path d="m10.987 49.036c.377 2.141 7.295.922 6.857-1.559-.355 1.243-6.133 2.413-6.857 1.559z" fill="#613f34"/><path d="m29.264 45.813c.379 2.143-6.538 3.361-6.975.883.757 1.045 6.586.166 6.975-.883z" fill="#613f34"/></svg>