<svg enable-background="new 0 0 64 64" height="64" viewBox="0 0 64 64" width="64" xmlns="http://www.w3.org/2000/svg" xmlns:xlink="http://www.w3.org/1999/xlink"><linearGradient id="a" gradientUnits="userSpaceOnUse" x1="25.9985" x2="25.9985" y1="33.29" y2="20.9316"><stop offset="0" stop-color="#fff" stop-opacity=".2"/><stop offset="1" stop-color="#fff"/></linearGradient><linearGradient id="b" gradientUnits="userSpaceOnUse" x1="43.25" x2="60.75" y1="55.75" y2="55.75"><stop offset="0" stop-color="#a3f01f"/><stop offset="1" stop-color="#62ad00"/></linearGradient><path d="m13.076 13.402c-8.713 37.397-7.916 36.596 10.426 36.596-10.15-7.1 9.293-37.104-10.426-36.596z" fill="#947d41"/><path d="m9.934 12.824c-6.359 28.412-.873 35.709 3.998 37.174h5.582c-13.061-9.202 7.355-37.734-9.58-37.174z" fill="#ba9d52"/><path d="m38.709 13.401c8.713 37.398 7.914 36.597-10.426 36.597 9.334-5.699-9.293-37.106 10.426-36.597z" fill="#947d41"/><path d="m41.85 12.822c9.295 25.849-.02 35.979-3.998 37.176h-5.58c13.062-8.452-7.354-37.736 9.578-37.176z" fill="#ba9d52"/><path d="m43.396 26.712c2.691 6.572.029 20.059-5.545 23.286 6.178 0 9.939-8.55 11.773-20.309 2.294-14.695-11.022-14.703-6.228-2.977z" fill="#efde8b"/><path d="m2.85 32.415c2.25 10.614 5.02 17.583 11.082 17.583-6.76-6.998-5.965-21.76-4.043-25.432 9.793-5.828-10.846-10.104-7.039 7.849z" fill="#efde8b"/><path d="m6.256 51.906c2.4-1.49 12.361-5.424 12.361-5.424h14.842s9.951 3.926 12.338 5.422c3.471 2.164 4.203 10.096 4.203 10.096h-48s.771-7.939 4.256-10.094" fill="#e6ebef"/><path d="m19.301 42.816h13.396v9.625h-13.396z" fill="#d6a67a"/><path d="m32 48.311c-1.842 1.043-3.879 1.641-6 1.641-2.123 0-4.16-.598-6-1.643l6 13.691z" fill="#018bc9"/><path d="m17.475 46.939c-1.818 5.576-.973 9.133-.973 9.133 1.533-1.396 4.539-2.941 4.541-2.943-1.09 1.561-1.955 4.123-1.955 4.123 3.266.529 6.912 4.748 6.912 4.748s-5.072-14.832-8.525-15.061z" fill="#bec3cf"/><path d="m19.742 44.063s-.896-.377-1.277.328c-2.248 4.186-1.5 10.104-1.5 10.104 1.531-1.396 4.59-1.813 4.59-1.814-1.09 1.559-1.555 3.317-1.555 3.317 2.307 1.106 6 6.002 6 6.002s-3.084-9.057-6.258-17.937z" fill="#e6ebef"/><path d="m34.525 46.939c1.814 5.576.969 9.133.969 9.133-1.529-1.396-4.539-2.941-4.539-2.943 1.092 1.561 1.953 4.123 1.953 4.123-3.265.529-6.908 4.748-6.908 4.748s5.072-14.832 8.525-15.061z" fill="#bec3cf"/><path d="m32.254 44.063s.896-.377 1.279.328c2.248 4.186 1.5 10.104 1.5 10.104-1.529-1.396-4.588-1.813-4.59-1.814 1.09 1.559 1.557 3.317 1.557 3.317-2.307 1.106-6 6.002-6 6.002s3.08-9.057 6.254-17.937z" fill="#e6ebef"/><path d="m7.881 62c.512-2-.09-5.039-.727-6.713-.593-1.56-.369 5.613.727 6.713" fill="#cfd7dc"/><path d="m26 4.415c-11.609 0-17.201 9.455-16.502 21.611.143 2.444.822 5.969 1.66 8.989 1.742 6.277 10.93 12.6 14.842 12.6 3.91 0 13.1-6.323 14.84-12.601.84-3.02 1.52-6.544 1.664-8.989.697-12.155-4.893-21.61-16.504-21.61z" fill="#e3c19b"/><path d="m26 37.587c-2.822-1.24-2.844-.051-7.199.242 1.635 1.855 2.838 4.244 7.197 4.244 5.004 0 5.85-2.711 7.203-4.244-4.359-.293-4.379-1.482-7.201-.242z" fill="#c97e55"/><path d="m20.107 38.292c2.844 2.959 8.977 2.92 11.785 0-4.378.471-7.404.471-11.785 0z" fill="#fff"/><path d="m38.795 21.61c-2.617-1.56-7.309-1.75-9.166-.688-.393.214-.287 1.341.053 1.2 2.648-1.104 6.682-1.158 9.168.117.334.17.339-.403-.055-.629z" fill="#594640"/><path d="m13.207 21.61c2.615-1.56 7.307-1.75 9.166-.688.393.214.289 1.341-.055 1.2-2.648-1.104-6.68-1.159-9.166.117-.334.17-.341-.403.055-.629z" fill="#594640"/><path d="m29.6 33.345c0 2.342-7.199 2.342-7.199 0-.001-.537 7.199-.537 7.199 0z" fill="#d6a67a"/><path d="m38.541 26.357c-1.551 4.06-7.861 3.465-9.016.623.875-4.565 8.163-4.956 9.016-.623z" fill="#fff"/><path d="m31.105 25.916c0 3.596 5.201 3.596 5.201 0 .001-3.338-5.201-3.338-5.201 0z" fill="#613f34"/><path d="m31.619 27.066c0 2.063 4.172 2.063 4.172 0 0-1.914-4.172-1.914-4.172 0z" fill="#7d5037"/><path d="m32.627 25.972c0 1.492 2.158 1.492 2.158 0 0-1.385-2.158-1.385-2.158 0z" fill="#1a1626"/><path d="m31.889 25.537c0 .754 1.09.754 1.09 0 0-.701-1.09-.701-1.09 0z" fill="#ab968c"/><path d="m38.541 26.326c0-4.361-9.016-4.361-9.016.691 1.286-4.146 7.729-4.146 9.016-.691z" fill="#45332c"/><path d="m13.459 26.357c1.553 4.06 7.863 3.466 9.02.623-.877-4.565-8.165-4.956-9.02-.623z" fill="#fff"/><path d="m15.695 25.921c0 3.596 5.199 3.596 5.199 0 .001-3.338-5.199-3.338-5.199 0z" fill="#613f34"/><path d="m16.209 27.072c0 2.062 4.172 2.062 4.172 0 0-1.914-4.172-1.914-4.172 0z" fill="#7d5037"/><path d="m17.215 25.978c0 1.492 2.16 1.492 2.16 0 0-1.386-2.16-1.386-2.16 0z" fill="#1a1626"/><path d="m16.479 25.542c0 .755 1.09.755 1.09 0-.001-.701-1.09-.701-1.09 0z" fill="#ab968c"/><path d="m13.459 26.326c0-4.361 9.02-4.361 9.02.689-1.288-4.145-7.731-4.145-9.02-.689z" fill="#45332c"/><path d="m38.973 6.105c-8.141 8.342-.371 8.881 4.424 20.607 2.691 6.572 4.395 14.736 6.229 2.977 2.292-14.695-6.517-24.811-10.653-23.584z" fill="#efde8b"/><path d="m18.99 2.911c-10.324 2.429-19.947 11.551-16.14 29.504 2.25 10.614 5.117-4.177 7.039-7.849 9.793-5.828 26.539-10.241 29.084-18.461 1.291-1.897-9.653-5.9-19.983-3.194z" fill="#efde8b"/><g fill="#ba9d52"><path d="m11.08 15.988c4.365-.885 25.25-1.302 27.893-9.883-4.936 3.934-10.049 5.005-27.893 9.883z"/><path d="m3.553 29.636c7.324-9.773 31.316-8.695 35.42-23.531-7.967 12.452-33.418 14.136-35.42 23.531z"/><path d="m36.559 8.139c-1.891 2.978 4.678-1.397 11.756 17.785-1.745-11.215-7.727-18.936-11.756-17.785z"/></g><path d="m8.832 20.931v8.429c0 1.524 7.193 2.889 10.533 3.778.848.229 2.018.357 2.504-.801.828-1.97 1.408-3.403 2.4-5.745.434-1.029 3.025-1.031 3.459 0 .992 2.342 1.574 3.774 2.4 5.745.486 1.158 1.658 1.029 2.506.801 3.338-.889 10.529-2.253 10.529-3.778 0-2.173 0-8.429 0-8.429z" fill="url(#a)" opacity=".8"/><path d="m29.244 31.571s-2.137-4.294-2.539-5.087c-.133-.262-.381-.412-.688-.414-.26.016-.566.107-.725.414-.4.793-2.539 5.087-2.539 5.087-.107.211-1.025-.113-.92-.324 0 0 2.141-4.294 2.545-5.088.285-.561.926-.922 1.637-.922h.004c.703.002 1.316.354 1.604.922.402.794 2.541 5.088 2.541 5.088.107.211-.838.482-.92.324z" fill="#f5f5f5"/><path d="m43.852 22.004c-11.883-.935-23.822-.935-35.705 0-.049-.624-.098-1.248-.147-1.874 11.979-.943 24.016-.943 36 0-.053.626-.1 1.25-.148 1.874z" fill="#302c3b"/><path d="m50.063 42.438c.896-2.025-2.037-3.449-2.166-1.957-.174 1.998.305 4.06-.709 6.364-1.35 3.064 3.098 9.789 3.346 8.779s5.137-2.643 5.582-5.275c.249-1.462-6.417-7.091-6.053-7.911z" fill="#d6a67a"/><path d="m54.5 47v-7.501c.686 0 1.25-.564 1.25-1.252 0-.686-.564-1.248-1.25-1.248h-5c-.689 0-1.25.563-1.25 1.248 0 .688.561 1.252 1.25 1.252v7.501c0 3.125-7.5 10.652-7.5 12.5 0 2.5 7.422 2.5 10 2.5s10 0 10-2.5c0-1.848-7.5-9.375-7.5-12.5z" fill="#cae8f0"/><path d="m48.875 50.75c-2.178 3.783-5.625 7.42-5.625 8.459 0 1.049 5.385 1.541 8.75 1.541 3.363 0 8.75-.492 8.75-1.541 0-1.039-3.449-4.676-5.625-8.459z" fill="url(#b)"/><path d="m55.895 43.955c1.691.852.926 2.311.49 2.705 1.121 1.143.629 2.568.252 2.889 1.404 2.492-5.752 2.523-4.314.461-1.719.232-2.184-1.678-.432-2.186-1.975.357-1.725-1.877-.551-2.139.441-.098.891-.309 1.398-.416-2.01.334-1.697-2.01-.697-2.467 1.793-.819 4.135-1.86 3.854 1.153z" fill="#e3c19b"/></svg>