<svg enable-background="new 0 0 64 64" height="64" viewBox="0 0 64 64" width="64" xmlns="http://www.w3.org/2000/svg"><g fill="#3a2c29"><path d="m16.447 28.375c0 6.196-9.205 6.196-9.205 0s9.205-6.196 9.205 0z"/><path d="m16.205 21.927c0 6.196-9.205 6.196-9.205 0 0-6.198 9.205-6.198 9.205 0z"/><path d="m17.758 16.698c0 6.196-9.203 6.196-9.203 0s9.203-6.196 9.203 0z"/><path d="m20.404 13.154c0 6.196-9.203 6.196-9.203 0s9.203-6.196 9.203 0z"/><path d="m24.627 9.494c0 6.196-9.205 6.196-9.205 0s9.205-6.196 9.205 0z"/><path d="m36.629 6.647c0 6.197-9.205 6.197-9.205 0 0-6.196 9.205-6.196 9.205 0z"/><path d="m29.725 7.577c0 6.196-9.205 6.196-9.205 0s9.205-6.196 9.205 0z"/><path d="m47.553 28.375c0 6.196 9.205 6.196 9.205 0s-9.205-6.196-9.205 0z"/><path d="m47.795 21.927c0 6.196 9.205 6.196 9.205 0 0-6.198-9.205-6.198-9.205 0z"/><path d="m46.242 16.698c0 6.196 9.205 6.196 9.205 0s-9.205-6.196-9.205 0z"/><path d="m43.596 13.154c0 6.196 9.205 6.196 9.205 0s-9.205-6.196-9.205 0z"/><path d="m39.375 9.494c0 6.196 9.203 6.196 9.203 0s-9.203-6.196-9.203 0z"/><path d="m34.277 7.577c0 6.196 9.203 6.196 9.203 0s-9.203-6.196-9.203 0z"/></g><path d="m17.422 29.375c0 6.196-9.205 6.196-9.205 0s9.205-6.196 9.205 0z" fill="#1e1513"/><path d="m18.18 23.927c0 6.196-9.205 6.196-9.205 0 0-6.198 9.205-6.198 9.205 0z" fill="#1e1513"/><path d="m20.732 18.698c0 6.196-9.205 6.196-9.205 0s9.205-6.196 9.205 0z" fill="#1e1513"/><path d="m25.6 14.494c0 6.196-9.205 6.196-9.205 0s9.205-6.196 9.205 0z" fill="#1e1513"/><path d="m36.604 10.647c0 6.197-9.205 6.197-9.205 0-.001-6.196 9.205-6.196 9.205 0z" fill="#1e1513"/><path d="m30.697 11.577c0 6.196-9.203 6.196-9.203 0s9.203-6.196 9.203 0z" fill="#1e1513"/><path d="m46.58 29.375c0 6.196 9.205 6.196 9.205 0s-9.205-6.196-9.205 0z" fill="#1e1513"/><path d="m45.822 23.927c0 6.196 9.205 6.196 9.205 0 0-6.198-9.205-6.198-9.205 0z" fill="#1e1513"/><path d="m43.27 18.698c0 6.196 9.203 6.196 9.203 0s-9.203-6.196-9.203 0z" fill="#1e1513"/><path d="m38.4 14.494c0 6.196 9.205 6.196 9.205 0s-9.205-6.196-9.205 0z" fill="#1e1513"/><path d="m33.303 11.577c0 6.196 9.205 6.196 9.205 0s-9.205-6.196-9.205 0z" fill="#1e1513"/><path d="m11.014 31.009c-7.018-1.266-1.535 18.357 3.957 12.945 2.545-2.509-.674-12.351-3.957-12.945z" fill="#dba97f"/><path d="m52.988 31.009c-3.283.594-6.504 10.436-3.957 12.945 5.496 5.412 10.971-14.21 3.957-12.945z" fill="#dba97f"/><path d="m32 8c-14.51 0-21.502 10.979-20.627 26.243.176 3.072 2.078 13.09 3.877 16.684 1.84 3.676 7.99 9.345 11.762 10.518 2.381.74 7.596.74 9.977 0 3.77-1.173 9.924-6.842 11.764-10.518 1.799-3.594 3.701-13.611 3.875-16.684.876-15.264-6.114-26.243-20.628-26.243z" fill="#fcd5b2"/><path d="m32 49.558c-3.266-.96-8.1.455-8.1.455 1.842 2.006 3.191 4.609 8.1 4.609 5.623 0 6.58-2.955 8.1-4.609 0 0-4.84-1.42-8.1-.455z" fill="#cc9d76"/><path d="m25.137 50.353c3.42 2.871 10.33 2.889 13.77 0-3.647.156-10.098.158-13.77 0z" fill="#fff"/><path d="m36.5 44.161c0 2.928-8.998 2.928-8.998 0 0-.672 8.998-.672 8.998 0z" fill="#dba97f"/><path d="m47.535 35.425c-1.938 5.076-9.826 4.332-11.271.779 1.095-5.705 10.207-6.194 11.271-.779z" fill="#fff"/><path d="m16.463 35.425c1.939 5.076 9.83 4.332 11.273.779-1.097-5.708-10.205-6.196-11.273-.779z" fill="#fff"/><path d="m48.342 29.315c-3.318-1.647-9.67-1.727-12.037-.579-.506.223-.172 1.784.256 1.635 3.297-1.222 8.615-1.25 11.701.105.41.175.582-.93.08-1.161z" fill="#cc9d76"/><path d="m15.66 29.315c3.318-1.647 9.668-1.727 12.035-.579.506.223.172 1.784-.254 1.635-3.303-1.222-8.615-1.25-11.703.105-.412.175-.58-.93-.078-1.161z" fill="#cc9d76"/><path d="m38.275 34.884c0 4.455 6.443 4.455 6.443 0 .001-4.134-6.443-4.134-6.443 0z" fill="#613f34"/><path d="m38.914 36.31c0 2.555 5.168 2.555 5.168 0 0-2.372-5.168-2.372-5.168 0z" fill="#7d5037"/><path d="m40.16 34.954c0 1.85 2.674 1.85 2.674 0 0-1.715-2.674-1.715-2.674 0z" fill="#1a1626"/><path d="m39.248 34.415c0 .934 1.35.934 1.35 0 0-.867-1.35-.867-1.35 0z" fill="#ab968c"/><path d="m19.281 34.884c0 4.453 6.443 4.453 6.443 0 .001-4.135-6.443-4.135-6.443 0z" fill="#613f34"/><path d="m19.918 36.308c0 2.555 5.17 2.555 5.17 0 0-2.37-5.17-2.37-5.17 0z" fill="#7d5037"/><path d="m21.166 34.954c0 1.848 2.674 1.848 2.674 0 0-1.717-2.674-1.717-2.674 0z" fill="#1a1626"/><path d="m20.252 34.413c0 .934 1.352.934 1.352 0 0-.867-1.352-.867-1.352 0z" fill="#ab968c"/><path d="m47.535 35.387c0-5.45-11.271-5.45-11.271.863 1.609-5.179 9.662-5.179 11.271-.863z" fill="#dba97f"/><path d="m16.463 35.387c0-5.45 11.273-5.45 11.273.861-1.609-5.181-9.664-5.181-11.273-.861z" fill="#dba97f"/><path d="m54.342 24.401c-3.063-4.799-7.684-16.7-22.342-16.7-14.656 0-19.277 11.901-22.342 16.7-.172 5.435.605 8.296 2.246 13.975.455-3.375-.584-4.771.979-8.837 4.668-12.156 1.684-7.052 19.117-7.052 17.436 0 14.449-5.104 19.119 7.052 1.561 4.066.521 5.462.977 8.837 1.64-5.678 2.42-8.54 2.246-13.975z" fill="#1e1513"/><path d="m37.582 14.14c-.156-4.229-6.27-5.328-7.857-1.41 2.326-1.254 6.099-.576 7.857 1.41z" fill="#3a2c29"/><path d="m45.426 12.224c-.154-4.229-6.268-5.328-7.857-1.41 2.327-1.254 6.099-.576 7.857 1.41z" fill="#3a2c29"/><path d="m26.594 10.008c-2.605-3.334-8.203-.639-7.191 3.466 1.15-2.381 4.603-4.044 7.191-3.466z" fill="#3a2c29"/><path d="m16.205 17.385c-3.797-1.868-7.664 2.994-4.967 6.25 0-2.644 2.385-5.644 4.967-6.25z" fill="#3a2c29"/><path d="m25.883 15.828c-2.223-3.603-8.082-1.544-7.531 2.648 1.406-2.239 5.021-3.51 7.531-2.648z" fill="#3a2c29"/><path d="m42.355 16.323c-.33-4.219-6.484-5.063-7.91-1.082 2.274-1.35 6.073-.829 7.91 1.082z" fill="#3a2c29"/><path d="m51.289 23.907c3.225-2.738.307-8.221-3.754-7.046 2.426 1.053 4.227 4.436 3.754 7.046z" fill="#3a2c29"/></svg>