<svg enable-background="new 0 0 64 64" height="64" viewBox="0 0 64 64" width="64" xmlns="http://www.w3.org/2000/svg"><path d="m6.787 52.143c2.701-1.451 13.908-5.292 13.908-5.292h16.695s11.197 3.831 13.881 5.289c3.907 2.116 4.729 9.86 4.729 9.86h-54s.871-7.751 4.787-9.857z" fill="#e6ebef"/><path d="m37.5 48.258c0-1.141 0-6.204 0-6.204h-17v6.204c0 5.02 17 5.02 17 0z" fill="#dba97f"/><path d="m8.457 62c.572-1.952-.102-4.92-.818-6.555-.67-1.522-.416 5.482.818 6.555z" fill="#bec3cf"/><path d="m46.451 57.528c.1-2.172.111-3.394-.754-7.67-.209-.348-4.879-2.133-5.479-1.991.781 4.671.83 6.587.773 9.216-6.484-.155-17.502-.155-23.986.002-.057-2.631-.008-4.547.771-9.218-.6-.142-5.269 1.644-5.478 1.991-.861 4.276-.853 5.498-.752 7.67-.876.507-1.446 4.472-1.446 4.472h37.8s-.57-3.965-1.449-4.472z" fill="#006dae"/><path d="m11.9 24.236c-5.719-1.031-1.252 14.957 3.225 10.547 2.072-2.044-.551-10.063-3.225-10.547z" fill="#dba97f"/><path d="m46.1 24.236c-2.674.483-5.299 8.503-3.223 10.547 4.477 4.41 8.937-11.578 3.223-10.547z" fill="#dba97f"/><path d="m29 5.488c-11.824 0-17.521 8.945-16.807 21.384.143 2.503 1.693 10.665 3.158 13.593 1.498 2.995 6.512 7.614 9.584 8.57 1.939.604 6.188.604 8.127 0 3.072-.956 8.086-5.575 9.586-8.57 1.465-2.928 3.016-11.09 3.158-13.593.715-12.438-4.982-21.384-16.806-21.384z" fill="#fcd5b2"/><path d="m29 39.35c-2.66-.782-6.6.37-6.6.37 1.5 1.635 2.6 3.756 6.6 3.756 4.582 0 5.359-2.407 6.6-3.756 0 0-3.944-1.157-6.6-.37z" fill="#cc9d76"/><path d="m23.406 39.996c2.787 2.34 8.418 2.354 11.221 0-2.971.128-8.228.129-11.221 0z" fill="#fff"/><path d="m32.666 34.952c0 2.386-7.332 2.386-7.332 0 0-.548 7.332-.548 7.332 0z" fill="#dba97f"/><path d="m44.576 22.075c1.146 3.818.414 5.426.785 8.163.729-2.707 1.178-5.086 1.391-8.163z" fill="#1e1513"/><path d="m13.428 22.075h-2.219c.309 3.453.787 5.921 1.434 8.163.369-2.739-.465-3.881.785-8.163z" fill="#1e1513"/><path d="m41.658 27.834c-1.58 4.136-8.008 3.529-9.186.635.895-4.65 8.319-5.047 9.186-.635z" fill="#fff"/><path d="m16.34 27.834c1.58 4.136 8.01 3.529 9.186.635-.895-4.652-8.317-5.049-9.186-.635z" fill="#fff"/><path d="m42.314 22.855c-2.705-1.342-7.879-1.407-9.807-.472-.412.182-.141 1.454.207 1.332 2.688-.995 7.02-1.018 9.535.086.335.142.476-.757.065-.946z" fill="#cc9d76"/><path d="m15.686 22.855c2.703-1.342 7.877-1.407 9.807-.472.412.182.141 1.454-.207 1.332-2.691-.995-7.02-1.018-9.537.086-.335.142-.474-.757-.063-.946z" fill="#cc9d76"/><path d="m34.113 27.394c0 3.629 5.25 3.629 5.25 0 0-3.37-5.25-3.37-5.25 0z" fill="#613f34"/><path d="m34.633 28.555c0 2.081 4.211 2.081 4.211 0 0-1.932-4.211-1.932-4.211 0z" fill="#7d5037"/><path d="m35.648 27.45c0 1.507 2.18 1.507 2.18 0 0-1.397-2.18-1.397-2.18 0z" fill="#1a1626"/><path d="m34.904 27.011c0 .761 1.102.761 1.102 0 0-.706-1.102-.706-1.102 0z" fill="#ab968c"/><path d="m18.637 27.393c0 3.63 5.25 3.63 5.25 0 0-3.369-5.25-3.369-5.25 0z" fill="#613f34"/><path d="m19.156 28.554c0 2.081 4.211 2.081 4.211 0 0-1.932-4.211-1.932-4.211 0z" fill="#7d5037"/><path d="m20.172 27.45c0 1.506 2.18 1.506 2.18 0 0-1.398-2.18-1.398-2.18 0z" fill="#1a1626"/><path d="m19.428 27.01c0 .761 1.1.761 1.1 0-.001-.706-1.1-.706-1.1 0z" fill="#ab968c"/><path d="m41.658 27.803c0-4.44-9.186-4.44-9.186.703 1.313-4.22 7.874-4.22 9.186-.703z" fill="#dba97f"/><path d="m16.34 27.803c0-4.44 9.186-4.44 9.186.702-1.311-4.222-7.874-4.222-9.186-.702z" fill="#dba97f"/><path d="m46.225 24.881c-11.19-3.785-23.242-3.785-34.432 0-.471-1.499-.938-2.998-1.404-4.497 12.102-4.095 25.135-4.095 37.238 0-.467 1.499-.935 2.998-1.402 4.497z" opacity=".2"/><path d="m46.035 23.936c-11.189-3.785-23.244-3.785-34.432 0-.469-1.5-.936-2.998-1.402-4.498 12.098-4.094 25.135-4.094 37.236 0-.466 1.5-.935 2.998-1.402 4.498z" fill="#99a8ae"/><path d="m5.625 21.188v6.046l3.92 1.184v-8.412z" fill="#6e8189"/><path d="m52.375 21.188v6.046l-3.92 1.184v-8.412z" fill="#6e8189"/><path d="m49.354 32c0-19.371-2.92-29.361-20.352-29.361-17.434 0-20.352 9.99-20.352 29.361 0 0 2.918-17.497 20.352-17.497 17.432 0 20.352 17.497 20.352 17.497z" fill="#302c3b"/><path d="m29 7.734c6.346 0 10.916 1.196 14.199 3.55l-2.016-6.638c-12.182-2.647-24.365 0-24.365 0l-2.016 6.637c3.282-2.352 7.854-3.549 14.198-3.549z" fill="#6e8189"/><path d="m41.184 4.647-1.731-2.647h-20.89l-1.729 2.646z" fill="#4e5e67"/><path d="m39.877 4.647-.865-1.324h-20.01l-.863 1.324z" fill="#302c3b"/><path d="m49.354 32c0-12.832-10.758-17.559-20.352-17.559-9.592 0-20.352 4.727-20.352 17.559 0 0 2.918-15.375 20.352-15.375 17.432 0 20.352 15.375 20.352 15.375z" fill="#4e5e67"/><path d="m42.307 57.352-1.875-.49 2.535-9.092c.418-1.517 1.299-4.672 5.639-5.868l.533 1.813c-3.287.902-3.894 3.094-4.301 4.543z" fill="#99a8ae"/><path d="m62 38.332s-3.223-1.223-9.705 1.023c-3.141 1.096-1.564 5.348 1.578 4.258 6.231-2.164 8.127-5.281 8.127-5.281z" fill="#f9b700"/><path d="m52.939 42.735c-2.381.836-3.172-1.303-.787-2.126 2.783-.97 7.879-1.595 7.879-1.595s-4.306 2.754-7.092 3.721" fill="#ffe12c"/><path d="m49.033 44.642-1.082-3.619 2.133.381.545 1.806z" fill="#6e8189"/><path d="m42.021 62 1.516-5.455-3.75-.982-1.787 6.437z" fill="#302c3b"/></svg>