<svg enable-background="new 0 0 64 64" height="64" viewBox="0 0 64 64" width="64" xmlns="http://www.w3.org/2000/svg" xmlns:xlink="http://www.w3.org/1999/xlink"><radialGradient id="a" cx="-876.9355" cy="-339.7207" gradientTransform="matrix(1.4308 .2523 -.2682 1.5209 1198.2924 742.7767)" gradientUnits="userSpaceOnUse" r="9.8119"><stop offset=".4182" stop-color="#ff0071"/><stop offset=".6534" stop-color="#f6006b"/><stop offset="1" stop-color="#e0005d"/></radialGradient><path d="m55.146 35.659c1.534 28.047 1.056 27.373-12.172 25.041 8.22-3.828-1.988-27.916 12.172-25.041z" fill="#3b2c29"/><path d="m57.484 35.642c.977 21.277-3.906 25.836-7.605 26.275l-4.028-.709c10.591-4.973-.51-28.123 11.633-25.566z" fill="#453631"/><path d="m36.657 32.396c-11.038 25.834-10.359 25.359 2.868 27.691-6.005-5.291 11.419-25.549-2.868-27.691z" fill="#3b2c29"/><path d="m34.46 31.581c-9.983 17.44-4.554 25.92-1.837 27.29l4.028.711c-8.347-7.751 10.097-26.251-2.191-28.001z" fill="#453631"/><path d="m31.581 41.392c-2.775 4.393-2.567 14.447 1.04 17.482-4.452-.785-6.079-7.424-5.909-16.133.215-10.878 9.821-9.187 4.869-1.349z" fill="#594640"/><path d="m60.106 50.657c-2.972 7.357-5.853 12.031-10.228 11.26 5.762-4.186 7.064-14.92 6.146-17.813-6.322-5.443 9.106-5.898 4.082 6.553z" fill="#594640"/><path d="m34.349 6.33c-2.462-6.216-12.396-5.71-13.638 1.333-.833 4.725 3.014 8.663 10.378 17.155 9.825-5.461 14.788-7.847 15.621-12.57 1.242-7.044-7.921-10.916-12.361-5.918z" fill="url(#a)"/><path d="m30.775 58.978c-1.607-9.113-17.732-6.492-16.088 2.838z" fill="#30231e"/><path d="m8.854 35.659c-1.534 28.047-1.056 27.373 12.172 25.041-8.22-3.828 1.988-27.916-12.172-25.041z" fill="#3b2c29"/><path d="m6.516 35.642c-.977 21.277 3.906 25.836 7.605 26.275l4.028-.709c-10.591-4.973.51-28.123-11.633-25.566z" fill="#453631"/><path d="m27.343 32.396c11.038 25.834 10.359 25.359-2.868 27.691 6.005-5.291-11.419-25.549 2.868-27.691z" fill="#3b2c29"/><path d="m29.54 31.581c9.983 17.44 4.554 25.92 1.837 27.29l-4.028.711c8.347-7.751-10.097-26.251 2.191-28.001z" fill="#453631"/><path d="m32.419 41.392c2.775 4.393 2.567 14.447-1.04 17.482 4.452-.785 6.079-7.424 5.909-16.133-.215-10.878-9.821-9.187-4.869-1.349z" fill="#594640"/><path d="m3.894 50.657c2.972 7.357 5.853 12.031 10.228 11.26-5.762-4.186-7.064-14.92-6.146-17.813 6.322-5.443-9.106-5.898-4.082 6.553z" fill="#594640"/><path d="m17.034 27.538c-8.373 1.477-11.206 9-9.157 17.67.414 1.744 1.354 4.193 2.339 6.266 2.057 4.299 10.637 7.484 13.456 6.986 2.822-.498 7.496-6.02 7.957-10.762.222-2.283.263-4.908.059-6.689-1.043-8.846-6.279-14.948-14.654-13.471z" fill="#fc6"/><path d="m26.608 27.108c-4.813 7.043.858 6.446 5.811 14.284 2.775 4.393 5.039 10.059 4.869 1.35-.215-10.879-7.853-17.046-10.68-15.634z" fill="#594640"/><path d="m11.788 27.348c-7.137 3.062-12.918 10.858-7.894 23.309 2.972 7.357 3.163-3.66 4.081-6.553 6.323-5.443 17.842-10.752 18.634-16.997.69-1.529-7.714-3.024-14.821.241z" fill="#594640"/><g fill="#453631"><path d="m7.748 37.774c3.034-1.191 18.044-4.15 18.86-10.667-3.06 3.462-6.61 4.884-18.86 10.667z"/><path d="m4.049 48.565c4.039-7.975 21.483-10.25 22.56-21.458-4.165 9.982-22.31 14.435-22.56 21.458z"/><path d="m25.125 28.879c-.985 2.387 3.194-1.602 10.74 11.319-2.684-7.857-7.976-12.66-10.74-11.319z"/></g><path d="m26.851 51.448c2.272 2.41-3.214 3.398-4.985 1.045z" fill="#e6a400"/><path d="m25.523 51.052c-1.208-.359-2.03.73-3.658 1.441 1.58.408 3.651.135 3.837-.537 0 0 .676.338 1.208-.27.591-.671-.23-1.488-1.387-.634z" fill="#cc9200"/><path d="m24.031 47.644c.473 1.539-4.255 2.998-4.729 1.459-.111-.352 4.621-1.813 4.729-1.459z" fill="#e6b045"/><path d="m29.099 42.499c.377 2.143-6.538 3.363-6.976.883-.236-3.653 6.217-4.692 6.976-.883z" fill="#e6b045"/><path d="m10.819 45.724c.378 2.141 7.295.922 6.857-1.559-1.027-3.514-7.447-2.281-6.857 1.559z" fill="#e6b045"/><path d="m10.82 45.724c.379 2.141 7.295.922 6.857-1.559-.353 1.242-6.133 2.412-6.857 1.559z" fill="#613f34"/><path d="m29.099 42.499c.377 2.143-6.538 3.363-6.976.883.757 1.047 6.586.168 6.976-.883z" fill="#613f34"/><path d="m33.225 58.978c1.607-9.113 17.732-6.492 16.088 2.838z" fill="#30231e"/><path d="m46.966 27.538c8.373 1.477 11.206 9 9.157 17.67-.414 1.744-1.354 4.193-2.339 6.266-2.057 4.299-10.637 7.484-13.456 6.986-2.822-.498-7.496-6.02-7.957-10.762-.222-2.283-.263-4.908-.059-6.689 1.043-8.846 6.279-14.948 14.654-13.471z" fill="#fc6"/><path d="m37.392 27.108c4.813 7.043-.619 7.143-5.571 14.981 0-2.816-3.131-6.533-3.928-6.078 2.296-6.587 7.323-9.99 9.499-8.903z" fill="#594640"/><path d="m52.212 27.348c7.137 3.062 12.918 10.858 7.895 23.309-2.972 7.357-3.163-3.66-4.081-6.553-6.323-5.443-17.842-10.752-18.634-16.997-.691-1.529 7.713-3.024 14.82.241z" fill="#594640"/><path d="m56.252 37.774c-3.034-1.191-18.044-4.15-18.86-10.667 3.06 3.462 6.61 4.884 18.86 10.667z" fill="#453631"/><path d="m59.951 48.565c-4.039-7.975-21.483-10.25-22.56-21.458 4.165 9.982 22.31 14.435 22.56 21.458z" fill="#453631"/><path d="m38.875 28.879c.985 2.387-2.758-1.563-7.675 6.049 1.798-5.834 4.911-7.39 7.675-6.049z" fill="#453631"/><path d="m37.149 51.448c-2.272 2.41 3.214 3.398 4.985 1.045z" fill="#e6a400"/><path d="m38.477 51.052c1.208-.359 2.03.73 3.658 1.441-1.58.408-3.651.135-3.837-.537 0 0-.676.338-1.208-.27-.591-.671.23-1.488 1.387-.634z" fill="#cc9200"/><path d="m39.969 47.644c-.473 1.539 4.255 2.998 4.729 1.459.111-.352-4.621-1.813-4.729-1.459z" fill="#e6b045"/><path d="m34.901 42.499c-.377 2.143 6.538 3.363 6.976.883.236-3.653-6.217-4.692-6.976-.883z" fill="#e6b045"/><path d="m53.181 45.724c-.378 2.141-7.295.922-6.857-1.559 1.027-3.514 7.447-2.281 6.857 1.559z" fill="#e6b045"/><path d="m53.18 45.724c-.379 2.141-7.295.922-6.857-1.559.353 1.242 6.133 2.412 6.857 1.559z" fill="#613f34"/><path d="m34.901 42.499c-.377 2.143 6.538 3.363 6.976.883-.757 1.047-6.586.168-6.976-.883z" fill="#613f34"/></svg>