<svg enable-background="new 0 0 64 64" height="64" viewBox="0 0 64 64" width="64" xmlns="http://www.w3.org/2000/svg"><path d="m5.523 32.269c7.696-5.117 15.261-5.117 22.957 0 2.442 1.622 2.947 7.739 3.255 13.036h-4.339v16.225h-20.789v-16.225h-4.339c.307-5.297.812-11.414 3.255-13.036z" fill="#7ab51d"/><path d="m26.611 45.604h1.408l-1.408-7.598z" fill="#7ab51d"/><path d="m26.611 61.529h4.024l1.099-16.225s-2.562-.658-5.123 0z" fill="#fc6"/><path d="m12.792 29.203c0-.722 0-3.931 0-3.931h8.418v3.931c0 4.232-8.418 4.232-8.418 0z" fill="#e6b045"/><path d="m58.478 32.269c-7.696-5.117-15.261-5.117-22.957 0-2.442 1.622-2.947 7.739-3.255 13.036h4.339v16.225h20.789v-16.225h4.339c-.308-5.297-.813-11.414-3.255-13.036z" fill="#7ab51d"/><path d="m54.609 49.604 2-4.299v-7.299z" fill="#529320"/><path d="m9.391 49.589-2-4.284v-7.315z" fill="#529320"/><path d="m37.389 45.604h-1.408l1.408-7.598z" fill="#7ab51d"/><path d="m37.389 61.529h-4.024l-1.099-16.225s2.562-.658 5.123 0z" fill="#fc6"/><path d="m51.208 29.203c0-.722 0-3.931 0-3.931h-8.418v3.931c0 4.232 8.418 4.232 8.418 0z" fill="#e6b045"/><path d="m36.289 14.202c-3.585-.646-.785 9.36 2.018 6.601 1.3-1.281-.344-6.298-2.018-6.601z" fill="#e6b045"/><path d="m57.715 14.202c-1.676.303-3.32 5.32-2.019 6.601 2.805 2.76 5.599-7.246 2.019-6.601z" fill="#e6b045"/><path d="m47.001 2.471c-7.408 0-10.978 5.599-10.53 13.381.09 1.567 1.062 6.675 1.979 8.506.939 1.873 4.08 4.764 6.005 5.362 1.215.379 3.877.379 5.094 0 1.923-.599 5.066-3.489 6.003-5.362.92-1.831 1.89-6.938 1.979-8.506.448-7.783-3.123-13.381-10.53-13.381z" fill="#fc6"/><path d="m47.001 23.661c-1.667-.491-4.135.231-4.135.231.939 1.024 1.629 2.349 4.135 2.349 2.87 0 3.359-1.505 4.136-2.349 0 .001-2.471-.724-4.136-.231z" fill="#e6a400"/><path d="m43.496 24.065c1.747 1.464 5.275 1.474 7.031 0-1.861.08-5.156.08-7.031 0z" fill="#fff"/><path d="m49.3 20.908c0 1.493-4.596 1.493-4.596 0 0-.342 4.596-.342 4.596 0z" fill="#e6b045"/><path d="m47.001 2.471c-5.096 0-8.176 1.681-9.504 1.035 0 0-.144.868.376 1.435 0 0-.548.474-1.435-.327-.844 2.739 1.663 4.326 10.563 4.326 8.901 0 6.773-2.166 11.151 1.636-.428-4.686-3.411-8.105-11.151-8.105z" fill="#594640"/><path d="m50.77 6.556c-4.9 1.808-6.691-1.453-11.315-1.769 2.2 1.038 3.273 2.636 5.078 3.786-3.931-1.314-6.813-3.574-7.033-5.059 0 0-.655 2.167 1.938 3.788-2.479.229-2.996-2.681-2.996-2.681-1.257 2.015-1.084 8.514.312 13.338.231-1.723-.297-2.434.5-4.507 2.383-6.199.85-3.597 9.749-3.597 8.901 0 7.295-2.372 9.751 3.597.731 1.777.266 2.784.499 4.507 2.926-10.876-1.284-13.319-6.483-11.403z" fill="#453631"/><path d="m54.932 16.455c-.99 2.588-5.018 2.207-5.754.396.559-2.909 5.21-3.158 5.754-.396z" fill="#fff"/><path d="m39.069 16.455c.99 2.588 5.017 2.207 5.754.396-.558-2.912-5.21-3.159-5.754-.396z" fill="#fff"/><path d="m55.343 13.338c-1.694-.84-4.936-.881-6.146-.294-.258.112-.087.908.132.833 1.684-.624 4.398-.638 5.974.054.211.088.297-.475.04-.593z" fill="#c1873c"/><path d="m38.659 13.338c1.692-.84 4.936-.881 6.144-.294.26.112.088.908-.129.833-1.687-.624-4.398-.638-5.976.054-.21.088-.295-.475-.039-.593z" fill="#c1873c"/><path d="m50.205 16.178c0 2.272 3.289 2.272 3.289 0 0-2.108-3.289-2.108-3.289 0z" fill="#613f34"/><path d="m50.529 16.905c0 1.304 2.64 1.304 2.64 0 0-1.21-2.64-1.21-2.64 0z" fill="#7d5037"/><path d="m51.166 16.215c0 .942 1.366.942 1.366 0 0-.876-1.366-.876-1.366 0z" fill="#1a1626"/><path d="m50.7 15.939c0 .475.69.475.69 0 0-.442-.69-.442-.69 0z" fill="#ab968c"/><path d="m40.508 16.178c0 2.272 3.289 2.272 3.289 0 0-2.108-3.289-2.108-3.289 0z" fill="#613f34"/><path d="m40.833 16.905c0 1.3 2.64 1.3 2.64 0 0-1.21-2.64-1.21-2.64 0z" fill="#7d5037"/><path d="m41.471 16.215c0 .942 1.364.942 1.364 0 0-.877-1.364-.877-1.364 0z" fill="#1a1626"/><path d="m41.004 15.939c0 .476.689.476.689 0-.001-.443-.689-.443-.689 0z" fill="#ab968c"/><path d="m54.932 16.434c0-2.778-5.754-2.778-5.754.441.821-2.641 4.931-2.641 5.754-.441z" fill="#e6b045"/><path d="m39.069 16.434c0-2.778 5.754-2.778 5.754.44-.821-2.641-4.932-2.641-5.754-.44z" fill="#e6b045"/><path d="m6.289 14.202c-3.585-.646-.785 9.36 2.018 6.601 1.3-1.281-.344-6.298-2.018-6.601z" fill="#e6b045"/><path d="m27.715 14.202c-1.676.303-3.32 5.32-2.019 6.601 2.805 2.76 5.599-7.246 2.019-6.601z" fill="#e6b045"/><path d="m17.001 2.471c-7.408 0-10.977 5.599-10.53 13.381.09 1.567 1.062 6.675 1.978 8.506.939 1.873 4.08 4.764 6.005 5.362 1.215.379 3.877.379 5.094 0 1.923-.599 5.066-3.489 6.003-5.362.92-1.831 1.89-6.938 1.979-8.506.449-7.783-3.122-13.381-10.529-13.381z" fill="#fc6"/><path d="m17.001 23.661c-1.667-.491-4.135.231-4.135.231.939 1.024 1.629 2.349 4.135 2.349 2.87 0 3.359-1.505 4.136-2.349 0 .001-2.471-.724-4.136-.231z" fill="#e6a400"/><path d="m13.496 24.065c1.747 1.464 5.275 1.474 7.031 0-1.861.08-5.156.08-7.031 0z" fill="#fff"/><path d="m19.3 20.908c0 1.493-4.596 1.493-4.596 0 0-.342 4.596-.342 4.596 0z" fill="#e6b045"/><path d="m17.001 2.471c-5.096 0-8.176 1.681-9.504 1.035 0 0-.144.868.376 1.435 0 0-.548.474-1.435-.327-.844 2.739 1.663 4.326 10.563 4.326 8.901 0 6.773-2.166 11.151 1.636-.428-4.686-3.411-8.105-11.151-8.105z" fill="#594640"/><path d="m20.77 6.556c-4.9 1.808-6.691-1.453-11.315-1.769 2.2 1.038 3.274 2.636 5.078 3.786-3.931-1.313-6.814-3.574-7.034-5.058 0 0-.655 2.167 1.937 3.788-2.479.229-2.996-2.681-2.996-2.681-1.256 2.015-1.083 8.514.312 13.338.231-1.723-.297-2.434.5-4.507 2.383-6.199.85-3.597 9.749-3.597 8.901 0 7.295-2.372 9.751 3.597.731 1.777.266 2.784.499 4.507 2.928-10.877-1.282-13.32-6.481-11.404z" fill="#453631"/><path d="m24.932 16.455c-.99 2.588-5.018 2.207-5.754.396.559-2.909 5.21-3.158 5.754-.396z" fill="#fff"/><path d="m9.069 16.455c.99 2.588 5.017 2.207 5.754.396-.558-2.912-5.21-3.159-5.754-.396z" fill="#fff"/><path d="m25.343 13.338c-1.694-.84-4.936-.881-6.146-.294-.258.112-.087.908.132.833 1.684-.624 4.399-.638 5.974.054.211.088.297-.475.04-.593z" fill="#c1873c"/><path d="m8.659 13.338c1.692-.84 4.936-.881 6.144-.294.26.112.088.908-.129.833-1.687-.624-4.398-.638-5.976.054-.21.088-.295-.475-.039-.593z" fill="#c1873c"/><path d="m20.205 16.178c0 2.272 3.289 2.272 3.289 0 0-2.108-3.289-2.108-3.289 0z" fill="#613f34"/><path d="m20.529 16.905c0 1.304 2.64 1.304 2.64 0 0-1.21-2.64-1.21-2.64 0z" fill="#7d5037"/><path d="m21.166 16.215c0 .942 1.366.942 1.366 0 0-.876-1.366-.876-1.366 0z" fill="#1a1626"/><path d="m20.7 15.939c0 .475.69.475.69 0 0-.442-.69-.442-.69 0z" fill="#ab968c"/><path d="m10.508 16.178c0 2.272 3.289 2.272 3.289 0 0-2.108-3.289-2.108-3.289 0z" fill="#613f34"/><path d="m10.833 16.905c0 1.3 2.64 1.3 2.64 0 0-1.21-2.64-1.21-2.64 0z" fill="#7d5037"/><path d="m11.471 16.215c0 .942 1.364.942 1.364 0 0-.877-1.364-.877-1.364 0z" fill="#1a1626"/><path d="m11.004 15.939c0 .476.689.476.689 0-.001-.443-.689-.443-.689 0z" fill="#ab968c"/><path d="m24.932 16.434c0-2.778-5.754-2.778-5.754.441.821-2.641 4.931-2.641 5.754-.441z" fill="#e6b045"/><path d="m9.069 16.434c0-2.778 5.754-2.778 5.754.44-.821-2.641-4.932-2.641-5.754-.44z" fill="#e6b045"/><path d="m29.138 54.199c-.982-.688-5.299-2.494-5.299-2.494h-4.797s-4.318 1.81-5.307 2.494c-1.656 1.145-2.207 7.33-2.207 7.33h19.793s-.547-6.189-2.183-7.33z" fill="#e32b56"/><path d="m24.349 52.369c0-.539 0-2.926 0-2.926h-5.85v2.926c0 2.365 5.85 2.365 5.85 0z" fill="#e6b045"/><path d="m13.919 43.467c-7.076 4.172-.855 7.969-2.869 9.768 3.914 2.425 13.494-1.755 2.869-9.768z" fill="#594640"/><path d="m11.806 45.051c1.736 6.66 5.31 6.891 5.012 8.096 3.322-1.741 3.353-7.354-5.012-8.096z" fill="#453631"/><path d="m28.931 43.467c7.076 4.172.855 7.969 2.871 9.768-3.912 2.425-13.494-1.755-2.871-9.768z" fill="#594640"/><path d="m31.044 45.051c-1.734 6.66-5.311 6.891-5.01 8.096-3.322-1.741-3.355-7.354 5.01-8.096z" fill="#453631"/><path d="m11.747 43.299h19.348c2.816-15.123-22.164-15.123-19.348 0z" fill="#594640"/><path d="m11.722 43.111s11.016 4.105 18.652-.65c-1.543.291-4.051-5.605-15.775-6.047-.43 6.697-2.491 4.879-2.877 6.697z" fill="#453631"/><path d="m30.187 42.219c.822-11.314-18.359-11.314-17.535 0 .714-9.502 16.818-9.502 17.535 0z" fill="#cfd8dd"/><path d="m30.187 41.854c.822-11.314-18.359-11.314-17.535 0 .714-9.502 16.818-9.502 17.535 0z" fill="#fff"/><path d="m12.854 42.297c-3.336-.506-1.162 7.363 1.451 5.193 1.214-1.008.114-4.955-1.451-5.193z" fill="#e6b045"/><path d="m29.983 42.297c-1.561.238-2.66 4.185-1.451 5.193 2.615 2.168 4.787-5.699 1.451-5.193z" fill="#e6b045"/><path d="m29.874 42.314c-3.195-.91-7.289-5.256-15.07-4.729.137 1.707-.313 3.645-1.814 4.734 0 0-.006 1.535.543 4.346.895 4.602 4.617 6.406 7.887 6.406 3.273 0 6.994-1.805 7.891-6.406.546-2.811.563-4.351.563-4.351z" fill="#fc6"/><path d="m27.669 43.824c-.777 2.035-3.943 1.738-4.525.313.441-2.289 4.097-2.485 4.525-.313z" fill="#fff"/><path d="m23.952 43.607c0 1.787 2.586 1.787 2.586 0 0-1.658-2.586-1.658-2.586 0z" fill="#613f34"/><path d="m24.208 44.178c0 1.025 2.074 1.025 2.074 0 0-.949-2.074-.949-2.074 0z" fill="#7d5037"/><path d="m24.706 43.635c0 .742 1.076.742 1.076 0 0-.688-1.076-.688-1.076 0z" fill="#1a1626"/><path d="m24.343 43.418c0 .377.541.377.541 0 0-.348-.541-.348-.541 0z" fill="#ab968c"/><path d="m27.669 43.809c0-2.186-4.525-2.186-4.525.346.646-2.077 3.878-2.077 4.525-.346z" fill="#e6b045"/><path d="m15.196 43.824c.775 2.035 3.943 1.738 4.525.313-.439-2.291-4.095-2.487-4.525-.313z" fill="#fff"/><path d="m16.329 43.607c0 1.785 2.586 1.785 2.586 0 0-1.658-2.586-1.658-2.586 0z" fill="#613f34"/><path d="m16.585 44.178c0 1.023 2.072 1.023 2.072 0 0-.949-2.072-.949-2.072 0z" fill="#7d5037"/><path d="m17.083 43.635c0 .74 1.074.74 1.074 0 0-.688-1.074-.688-1.074 0z" fill="#1a1626"/><path d="m16.718 43.418c0 .375.543.375.543 0 0-.348-.543-.348-.543 0z" fill="#ab968c"/><path d="m15.196 43.809c0-2.186 4.525-2.186 4.525.346-.644-2.079-3.88-2.079-4.525-.346z" fill="#e6b045"/><path d="m28.087 41.594c-1.35-.672-3.938-.703-4.9-.236-.207.09-.07.725.105.666 1.34-.498 3.504-.51 4.764.043.166.07.236-.381.031-.473z" fill="#c1873c"/><path d="m14.776 41.594c1.354-.672 3.939-.703 4.904-.236.207.09.068.725-.104.666-1.344-.498-3.51-.51-4.768.043-.166.07-.235-.381-.032-.473z" fill="#c1873c"/><path d="m21.433 49.26c-1.328-.391-3.299.184-3.299.184.75.814 1.303 1.875 3.299 1.875 2.289 0 2.682-1.201 3.299-1.875 0-.001-1.973-.577-3.299-.184z" fill="#e6a400"/><path d="m18.636 49.582c1.395 1.168 4.211 1.174 5.611 0-1.488.063-4.113.063-5.611 0z" fill="#fff"/><path d="m23.267 47.51c0 1.189-3.666 1.189-3.666 0 0-.274 3.666-.274 3.666 0z" fill="#e6b045"/><path d="m50.289 54.199c-.982-.688-5.299-2.494-5.299-2.494h-4.797s-4.318 1.81-5.307 2.494c-1.656 1.145-2.207 7.33-2.207 7.33h19.793c.001 0-.546-6.189-2.183-7.33z" fill="#e32b56"/><path d="m45.5 52.369c0-.539 0-2.926 0-2.926h-5.85v2.926c0 2.365 5.85 2.365 5.85 0z" fill="#e6b045"/><path d="m35.07 43.467c-7.076 4.172-.855 7.969-2.869 9.768 3.914 2.425 13.494-1.755 2.869-9.768z" fill="#594640"/><path d="m32.957 45.051c1.736 6.66 5.311 6.891 5.012 8.096 3.322-1.741 3.353-7.354-5.012-8.096z" fill="#453631"/><path d="m50.082 43.467c7.076 4.172.855 7.969 2.871 9.768-3.912 2.425-13.494-1.755-2.871-9.768z" fill="#594640"/><path d="m52.195 45.051c-1.734 6.66-5.311 6.891-5.01 8.096-3.322-1.741-3.355-7.354 5.01-8.096z" fill="#453631"/><path d="m32.898 43.299h19.348c2.817-15.123-22.164-15.123-19.348 0z" fill="#594640"/><path d="m32.873 43.111s11.016 4.105 18.652-.65c-1.543.291-4.051-5.605-15.775-6.047-.43 6.697-2.49 4.879-2.877 6.697z" fill="#453631"/><path d="m51.338 42.219c.822-11.314-18.359-11.314-17.535 0 .715-9.502 16.818-9.502 17.535 0z" fill="#cfd8dd"/><path d="m51.338 41.854c.822-11.314-18.359-11.314-17.535 0 .715-9.502 16.818-9.502 17.535 0z" fill="#fff"/><path d="m34.006 42.297c-3.336-.506-1.162 7.363 1.451 5.193 1.213-1.008.113-4.955-1.451-5.193z" fill="#e6b045"/><path d="m51.135 42.297c-1.561.238-2.66 4.185-1.451 5.193 2.615 2.168 4.787-5.699 1.451-5.193z" fill="#e6b045"/><path d="m51.025 42.314c-3.195-.91-7.289-5.256-15.07-4.729.137 1.707-.313 3.645-1.815 4.734 0 0-.006 1.535.543 4.346.894 4.602 4.617 6.406 7.887 6.406 3.273 0 6.994-1.805 7.891-6.406.547-2.811.564-4.351.564-4.351z" fill="#fc6"/><path d="m48.82 43.824c-.777 2.035-3.943 1.738-4.525.313.441-2.289 4.098-2.485 4.525-.313z" fill="#fff"/><path d="m45.104 43.607c0 1.787 2.586 1.787 2.586 0-.001-1.658-2.586-1.658-2.586 0z" fill="#613f34"/><path d="m45.359 44.178c0 1.025 2.074 1.025 2.074 0 .001-.949-2.074-.949-2.074 0z" fill="#7d5037"/><path d="m45.857 43.635c0 .742 1.076.742 1.076 0 .001-.688-1.076-.688-1.076 0z" fill="#1a1626"/><path d="m45.494 43.418c0 .377.541.377.541 0 0-.348-.541-.348-.541 0z" fill="#ab968c"/><path d="m48.82 43.809c0-2.186-4.525-2.186-4.525.346.646-2.077 3.879-2.077 4.525-.346z" fill="#e6b045"/><path d="m36.348 43.824c.775 2.035 3.943 1.738 4.525.313-.439-2.291-4.096-2.487-4.525-.313z" fill="#fff"/><path d="m37.48 43.607c0 1.785 2.586 1.785 2.586 0 0-1.658-2.586-1.658-2.586 0z" fill="#613f34"/><path d="m37.736 44.178c0 1.023 2.072 1.023 2.072 0 .001-.949-2.072-.949-2.072 0z" fill="#7d5037"/><path d="m38.234 43.635c0 .74 1.074.74 1.074 0 .001-.688-1.074-.688-1.074 0z" fill="#1a1626"/><path d="m37.869 43.418c0 .375.543.375.543 0 0-.348-.543-.348-.543 0z" fill="#ab968c"/><path d="m36.348 43.809c0-2.186 4.525-2.186 4.525.346-.644-2.079-3.881-2.079-4.525-.346z" fill="#e6b045"/><path d="m49.238 41.594c-1.35-.672-3.938-.703-4.9-.236-.207.09-.07.725.106.666 1.34-.498 3.504-.51 4.764.043.165.07.235-.381.03-.473z" fill="#c1873c"/><path d="m35.928 41.594c1.354-.672 3.939-.703 4.904-.236.207.09.068.725-.104.666-1.344-.498-3.51-.51-4.768.043-.167.07-.235-.381-.032-.473z" fill="#c1873c"/><path d="m42.584 49.26c-1.328-.391-3.299.184-3.299.184.75.814 1.303 1.875 3.299 1.875 2.289 0 2.682-1.201 3.299-1.875 0-.001-1.973-.577-3.299-.184z" fill="#e6a400"/><path d="m39.787 49.582c1.395 1.168 4.211 1.174 5.611 0-1.488.063-4.113.063-5.611 0z" fill="#fff"/><path d="m44.418 47.51c0 1.189-3.666 1.189-3.666 0 0-.274 3.666-.274 3.666 0z" fill="#e6b045"/><g fill="#fc6"><path d="m12.102 57.021c.806.491 2.559-2.121 1.822-2.712-4.497-3.604-6.533-9.005-6.533-9.005-2.283-.691-5.123 0-5.123 0 .291 5.367 5.914 9.326 9.834 11.717z"/><path d="m15.627 53.174c1.666-.392 4.768 1.096 3.01 1.478.396.462.348 1.003-.982.637.511.458-.337.817-1.015.654.201 1.159-2.218.477-2.941.84-1.036.52-1.259.829-1.524.677-1.93-1.109.686-3.64 3.452-4.286z"/><path d="m51.898 57.021c-.806.491-2.559-2.121-1.822-2.712 4.497-3.604 6.533-9.005 6.533-9.005 2.283-.691 5.123 0 5.123 0-.291 5.367-5.914 9.326-9.834 11.717z"/><path d="m48.373 53.174c-1.666-.392-4.768 1.096-3.01 1.478-.396.462-.348 1.003.982.637-.511.458.337.817 1.015.654-.201 1.159 2.218.477 2.941.84 1.036.52 1.259.829 1.523.677 1.931-1.109-.685-3.64-3.451-4.286z"/></g></svg>