<svg enable-background="new 0 0 64 64" height="64" viewBox="0 0 64 64" width="64" xmlns="http://www.w3.org/2000/svg"><path d="m13.076 13.402c-8.713 37.398-7.915 36.597 10.426 36.597-10.15-7.101 9.293-37.106-10.426-36.597z" fill="#5c3a2e"/><path d="m9.933 12.823c-6.358 28.413-.873 35.709 3.999 37.176h5.582c-13.061-9.202 7.355-37.734-9.581-37.176z" fill="#6b4435"/><path d="m38.71 13.401c8.712 37.396 7.914 36.596-10.426 36.596 9.333-5.698-9.294-37.105 10.426-36.596z" fill="#5c3a2e"/><path d="m41.85 12.822c9.295 25.85-.021 35.979-3.998 37.175h-5.58c13.062-8.45-7.354-37.734 9.578-37.175z" fill="#6b4435"/><path d="m43.397 26.713c2.691 6.571.028 20.058-5.545 23.286 6.177 0 9.939-8.55 11.773-20.311 2.293-14.694-11.024-14.702-6.228-2.975z" fill="#875b49"/><path d="m2.85 32.415c2.25 10.614 5.019 17.584 11.082 17.584-6.759-6.999-5.964-21.761-4.043-25.434 9.793-5.827-10.845-10.102-7.039 7.85z" fill="#875b49"/><path d="m6.258 50.384c2.398-1.714 13.453-6.241 13.453-6.241h12.658s11.044 4.517 13.433 6.237c3.468 2.493 4.198 11.62 4.198 11.62h-48s.774-9.136 4.258-11.616" fill="#302c3b"/><path d="m19.037 47.844c0 3.835 4.72 4.992 6.963 4.981 2.245-.011 6.962-1.217 6.962-4.981v-11.076h-13.925z" fill="#946346"/><path d="m44.846 54.273c-.64 1.929-1.239 5.427-.728 7.727 1.097-1.264 1.32-9.52.728-7.727" fill="#1a1626"/><path d="m7.884 62c.512-2.3-.09-5.798-.729-7.727-.592-1.793-.37 6.463.729 7.727" fill="#1a1626"/><path d="m26 61.427c-7.104 0-8.445-10.384-8.498-10.824l1.124-.142c.014.098 1.274 9.819 7.374 9.819 6.102 0 7.361-9.721 7.375-9.819l1.122.142c-.051.44-1.396 10.824-8.497 10.824" fill="#1a1626"/><path d="m26 51.679h-5.669s1.027 6.881 5.669 6.881c4.641 0 5.67-6.881 5.67-6.881z" fill="#e6ebef"/><path d="m21.878 55.942s1.622-4.264 4.147-4.264c2.526 0 4.096 4.264 4.096 4.264s1.549-2.544 1.549-4.264h-11.339c0 .001.153 1.914 1.547 4.264" fill="#bec3cf"/><path d="m19.037 44.142s-8.694 5.386-.666 13.506c0 0 3.802-5.97 7.629-5.97 0 .001-6.963-2.024-6.963-7.536" fill="#fff"/><path d="m32.962 44.142s8.722 5.386.692 13.506c0 0-3.802-5.97-7.629-5.97 0 .001 6.937-2.024 6.937-7.536" fill="#fff"/><path d="m25.434 53.973c0 .764 1.133.764 1.133 0 0-.765-1.133-.765-1.133 0z" fill="#fff"/><path d="m25.434 57.413c0 .764 1.133.764 1.133 0s-1.133-.764-1.133 0z" fill="#fff"/><g fill="#1a1626"><path d="m37.662 57.783c-.196-.011-.459 1.667-.697 4.217h.939c.036-2.533-.047-4.204-.242-4.217"/><path d="m11.079 56.265c-.279.018-.397 2.353-.334 5.735h1.288c-.3-3.408-.671-5.749-.954-5.735"/><path d="m34.482 62c-.037-1.647-.165-2.702-.371-2.713-.208-.013-.452 1.045-.671 2.713z"/><path d="m40.921 56.265c-.283-.015-.654 2.326-.956 5.734h1.29c.063-3.381-.055-5.716-.334-5.734"/><path d="m14.336 57.783c-.193.013-.276 1.684-.24 4.217h.939c-.238-2.55-.501-4.228-.699-4.217"/><path d="m17.889 59.287c-.206.011-.334 1.063-.371 2.713h1.042c-.217-1.668-.463-2.726-.671-2.713"/></g><path d="m49.507 62 2.627-11.315-1.471-.382-3.719 11.697z" fill="#9e6c49"/><path d="m60.237 41.314-1.473-.381-.215.773c-1.152.764-2.254 2.457-2.836 4.576-.586 2.127-.5 4.131.105 5.352l-.213.773 1.473.385c1.627.424 3.65-1.799 4.523-4.969.874-3.167.261-6.083-1.364-6.509" fill="#9e6c49"/><path d="m60.13 47.439c-.871 3.17-2.896 5.395-4.523 4.969-1.625-.424-2.238-3.336-1.365-6.506.871-3.168 2.896-5.393 4.523-4.969 1.625.424 2.238 3.334 1.365 6.506" fill="#b47d56"/><path d="m55.804 51.691-10.307-2.689 2.762-10.041 10.308 2.691z" fill="#9e6c49"/><path d="m48.243 39.015-2.732 9.93c.014.021.023.047.033.068l2.85.744c1.176-.742 2.307-2.463 2.902-4.623.594-2.162.498-4.203-.141-5.418l-2.85-.748c-.021.018-.04.036-.062.047" fill="#785647"/><path d="m49.192 38.432-1.475-.379-.211.773c-1.152.762-2.254 2.457-2.84 4.576-.582 2.125-.498 4.129.109 5.35l-.213.773 1.473.385c1.627.424 3.65-1.799 4.523-4.969.873-3.168.261-6.084-1.366-6.509" fill="#9e6c49"/><path d="m49.087 44.557c-.873 3.17-2.896 5.395-4.523 4.969-1.627-.424-2.24-3.336-1.367-6.504.871-3.17 2.896-5.396 4.524-4.969 1.626.423 2.235 3.334 1.366 6.504" fill="#b47d56"/><path d="m59.393 47.248c-.762 2.773-2.369 4.762-3.59 4.443-1.219-.318-1.59-2.824-.828-5.596.764-2.773 2.371-4.764 3.592-4.443 1.219.317 1.59 2.822.826 5.596" fill="#9e6c49"/><path d="m52.86 50.924c-.109.393-.529.629-.936.524l-1.471-.383c-.406-.105-.648-.516-.539-.91z" fill="#785647"/><path d="m26 4.415c-11.609 0-17.201 9.455-16.502 21.611.143 2.443.822 5.969 1.661 8.988 1.741 6.279 10.929 12.601 14.841 12.601 3.911 0 13.1-6.322 14.841-12.601.839-3.02 1.519-6.545 1.663-8.988.697-12.156-4.893-21.611-16.504-21.611z" fill="#b88a6f"/><path d="m26.001 37.587c-2.822-1.24-2.844-.05-7.2.242 1.636 1.857 2.839 4.244 7.198 4.244 5.003 0 5.849-2.711 7.203-4.244-4.359-.292-4.379-1.482-7.201-.242z" fill="#84401e"/><path d="m20.108 38.292c2.844 2.959 8.976 2.92 11.784.001-4.377.471-7.404.471-11.784-.001z" fill="#fff"/><path d="m38.795 21.61c-2.616-1.56-7.308-1.75-9.165-.688-.393.214-.287 1.341.053 1.2 2.648-1.104 6.682-1.158 9.168.117.332.17.339-.402-.056-.629z" fill="#423225"/><path d="m13.207 21.61c2.615-1.56 7.307-1.75 9.166-.688.394.214.289 1.341-.054 1.2-2.648-1.104-6.68-1.159-9.167.117-.334.17-.341-.402.055-.629z" fill="#423225"/><path d="m29.6 33.345c0 2.342-7.2 2.342-7.2 0 0-.538 7.2-.538 7.2 0z" fill="#946346"/><path d="m38.542 26.357c-1.552 4.06-7.861 3.464-9.017.623.876-4.565 8.163-4.956 9.017-.623z" fill="#fff"/><path d="m31.106 25.916c0 3.596 5.2 3.596 5.2 0 .001-3.338-5.2-3.338-5.2 0z" fill="#613f34"/><path d="m31.62 27.065c0 2.063 4.172 2.063 4.172 0 0-1.913-4.172-1.913-4.172 0z" fill="#7d5037"/><path d="m32.627 25.973c0 1.492 2.159 1.492 2.159 0 0-1.386-2.159-1.386-2.159 0z" fill="#1a1626"/><path d="m31.89 25.536c0 .754 1.09.754 1.09 0-.001-.699-1.09-.699-1.09 0z" fill="#ab968c"/><path d="m38.542 26.326c0-4.361-9.017-4.361-9.017.69 1.286-4.145 7.73-4.145 9.017-.69z" fill="#45332c"/><path d="m13.46 26.357c1.552 4.06 7.862 3.466 9.019.623-.877-4.565-8.165-4.956-9.019-.623z" fill="#fff"/><path d="m15.695 25.921c0 3.596 5.2 3.596 5.2 0 0-3.337-5.2-3.337-5.2 0z" fill="#613f34"/><path d="m16.209 27.071c0 2.063 4.172 2.063 4.172 0 0-1.913-4.172-1.913-4.172 0z" fill="#7d5037"/><path d="m17.216 25.977c0 1.492 2.159 1.492 2.159 0 0-1.384-2.159-1.384-2.159 0z" fill="#1a1626"/><path d="m16.478 25.542c0 .754 1.09.754 1.09 0 0-.7-1.09-.7-1.09 0z" fill="#ab968c"/><path d="m13.46 26.326c0-4.361 9.019-4.361 9.019.689-1.288-4.145-7.731-4.145-9.019-.689z" fill="#45332c"/><path d="m38.973 6.105c-8.14 8.342-.371 8.881 4.425 20.607 2.691 6.571 4.394 14.736 6.229 2.976 2.291-14.694-6.518-24.81-10.654-23.583z" fill="#875b49"/><path d="m18.99 2.911c-10.323 2.43-19.946 11.552-16.14 29.504 2.25 10.614 5.118-4.177 7.039-7.85 9.793-5.827 26.539-10.24 29.084-18.46 1.292-1.896-9.653-5.9-19.983-3.194z" fill="#875b49"/><path d="m11.081 15.988c4.365-.885 25.25-1.302 27.892-9.883-4.936 3.934-10.048 5.005-27.892 9.883z" fill="#6b4435"/><path d="m3.554 29.637c7.324-9.774 31.315-8.695 35.419-23.531-7.966 12.451-33.417 14.135-35.419 23.531z" fill="#6b4435"/><path d="m36.558 8.14c-1.89 2.977 4.678-1.398 11.757 17.785-1.745-11.215-7.726-18.938-11.757-17.785z" fill="#6b4435"/></svg>