<svg enable-background="new 0 0 64 64" height="64" viewBox="0 0 64 64" width="64" xmlns="http://www.w3.org/2000/svg"><path d="m8.921 9.117c-5.443 23.344-4.943 22.848 6.52 22.848-6.342-4.436 5.806-23.164-6.52-22.848z" fill="#3b2c29"/><path d="m6.96 8.756c-3.975 17.736-.547 22.291 2.498 23.209h3.49c-8.166-5.748 4.596-23.557-5.988-23.209z" fill="#453631"/><path d="m24.942 9.115c5.447 23.346 4.947 22.846-6.514 22.846 5.833-3.557-5.81-23.162 6.514-22.846z" fill="#3b2c29"/><path d="m26.909 8.756c5.807 16.135-.014 22.457-2.5 23.205h-3.49c8.164-5.275-4.596-23.555 5.99-23.205z" fill="#453631"/><path d="m27.874 17.428c1.684 4.102.018 12.52-3.465 14.537 3.859 0 6.211-5.34 7.357-12.682 1.432-9.174-6.89-9.178-3.892-1.855z" fill="#594640"/><path d="m2.53 20.986c1.406 6.623 3.137 10.979 6.928 10.979-4.223-4.371-3.727-13.586-2.527-15.879 6.121-3.639-6.778-6.307-4.401 4.9z" fill="#594640"/><path d="m5.522 32.738c7.697-5.117 15.262-5.117 22.957 0 2.443 1.623 2.947 7.74 3.256 13.037h-4.34v16.225h-20.789v-16.225h-4.337c.306-5.296.812-11.414 3.253-13.037z" fill="#8e3ed6"/><path d="m26.612 46.074h1.407l-1.407-7.597z" fill="#732eb0"/><path d="m26.612 62h4.023l1.1-16.225s-2.563-.658-5.123 0z" fill="#fc6"/><path d="m12.792 29.674c0-.723 0-3.932 0-3.932h8.418v3.932c0 4.23-8.418 4.23-8.418 0z" fill="#e6b045"/><path d="m16.999 3.506c-7.256 0-10.75 5.902-10.313 13.492.09 1.525.516 3.725 1.037 5.611 1.09 3.918 6.832 7.865 9.275 7.865 2.447 0 8.188-3.947 9.279-7.865.523-1.887.945-4.086 1.039-5.611.435-7.59-3.059-13.492-10.317-13.492z" fill="#fc6"/><path d="m17.001 24.213c-1.764-.773-1.775-.029-4.5.154 1.023 1.158 1.775 2.648 4.498 2.648 3.129 0 3.656-1.693 4.502-2.648-2.723-.183-2.734-.928-4.5-.154z" fill="#d47706"/><path d="m13.321 24.654c1.775 1.848 5.607 1.824 7.361 0-2.734.295-4.628.295-7.361 0z" fill="#fff"/><path d="m24.995 14.24c-1.635-.973-4.566-1.092-5.725-.428-.248.133-.182.838.033.748 1.652-.688 4.174-.723 5.729.074.209.106.213-.251-.037-.394z" fill="#594640"/><path d="m9.005 14.24c1.633-.973 4.568-1.092 5.729-.428.248.133.182.838-.033.748-1.654-.688-4.176-.723-5.73.074-.208.106-.212-.251.034-.394z" fill="#594640"/><path d="m19.251 21.566c0 1.461-4.502 1.461-4.502 0 0-.336 4.502-.336 4.502 0z" fill="#e6b045"/><path d="m24.839 17.205c-.971 2.533-4.912 2.162-5.635.389.547-2.852 5.104-3.096 5.635-.389z" fill="#fff"/><path d="m20.194 16.93c0 2.244 3.248 2.244 3.248 0 0-2.086-3.248-2.086-3.248 0z" fill="#613f34"/><path d="m20.513 17.648c0 1.283 2.609 1.283 2.609 0 0-1.197-2.609-1.197-2.609 0z" fill="#7d5037"/><path d="m21.142 16.963c0 .934 1.35.934 1.35 0-.001-.865-1.35-.865-1.35 0z" fill="#1a1626"/><path d="m20.681 16.691c0 .471.684.471.684 0-.001-.435-.684-.435-.684 0z" fill="#ab968c"/><path d="m24.839 17.186c0-2.723-5.635-2.723-5.635.432.805-2.589 4.832-2.589 5.635-.432z" fill="#45332c"/><path d="m9.163 17.205c.969 2.533 4.912 2.164 5.637.389-.545-2.852-5.104-3.096-5.637-.389z" fill="#fff"/><path d="m10.562 16.932c0 2.246 3.248 2.246 3.248 0 0-2.082-3.248-2.082-3.248 0z" fill="#613f34"/><path d="m10.882 17.65c0 1.285 2.607 1.285 2.607 0 0-1.193-2.607-1.193-2.607 0z" fill="#7d5037"/><path d="m11.511 16.967c0 .932 1.35.932 1.35 0-.001-.865-1.35-.865-1.35 0z" fill="#1a1626"/><path d="m11.048 16.695c0 .471.682.471.682 0-.001-.435-.682-.435-.682 0z" fill="#ab968c"/><path d="m9.163 17.186c0-2.723 5.637-2.723 5.637.43-.805-2.589-4.832-2.589-5.637-.43z" fill="#45332c"/><path d="m25.108 4.563c-5.088 5.207-.232 5.543 2.766 12.865 1.684 4.102 2.746 9.197 3.893 1.855 1.431-9.174-4.075-15.488-6.659-14.72z" fill="#594640"/><path d="m12.618 2.568c-6.451 1.516-12.465 7.211-10.088 18.418 1.406 6.623 3.201-2.607 4.4-4.9 6.121-3.639 16.586-6.393 18.178-11.523.807-1.184-6.033-3.684-12.49-1.995z" fill="#594640"/><path d="m7.679 10.732c2.727-.553 15.779-.814 17.43-6.17-3.085 2.456-6.28 3.126-17.43 6.17z" fill="#453631"/><path d="m2.972 19.252c4.576-6.104 19.572-5.43 22.137-14.689-4.979 7.771-20.887 8.824-22.137 14.689z" fill="#453631"/><path d="m23.599 5.832c-1.182 1.859 2.924-.873 7.35 11.104-1.093-7.002-4.829-11.823-7.35-11.104z" fill="#453631"/><path d="m38.921 9.117c-5.443 23.344-4.943 22.848 6.52 22.848-6.342-4.436 5.806-23.164-6.52-22.848z" fill="#3b2c29"/><path d="m36.96 8.756c-3.975 17.736-.547 22.291 2.498 23.209h3.49c-8.166-5.748 4.596-23.557-5.988-23.209z" fill="#453631"/><path d="m54.942 9.115c5.447 23.346 4.947 22.846-6.514 22.846 5.833-3.557-5.81-23.162 6.514-22.846z" fill="#3b2c29"/><path d="m56.909 8.756c5.807 16.135-.014 22.457-2.5 23.205h-3.49c8.164-5.275-4.596-23.555 5.99-23.205z" fill="#453631"/><path d="m57.874 17.428c1.684 4.102.018 12.52-3.465 14.537 3.859 0 6.211-5.34 7.357-12.682 1.432-9.174-6.89-9.178-3.892-1.855z" fill="#594640"/><path d="m32.53 20.986c1.406 6.623 3.137 10.979 6.928 10.979-4.223-4.371-3.727-13.586-2.527-15.879 6.121-3.639-6.778-6.307-4.401 4.9z" fill="#594640"/><path d="m58.478 32.738c-7.695-5.117-15.26-5.117-22.957 0-2.441 1.623-2.947 7.74-3.254 13.037h4.338v16.225h20.789v-16.225h4.34c-.309-5.296-.813-11.414-3.256-13.037z" fill="#8e3ed6"/><path d="m54.61 50.074 2-4.299v-7.298z" fill="#732eb0"/><path d="m9.392 50.059-2-4.284v-7.314z" fill="#732eb0"/><path d="m37.39 46.074h-1.409l1.409-7.597z" fill="#732eb0"/><path d="m37.39 62h-4.025l-1.098-16.225s2.561-.658 5.123 0z" fill="#fc6"/><path d="m51.208 29.674c0-.723 0-3.932 0-3.932h-8.418v3.932c0 4.23 8.418 4.23 8.418 0z" fill="#e6b045"/><path d="m46.999 3.506c-7.256 0-10.75 5.902-10.313 13.492.09 1.525.516 3.725 1.037 5.611 1.09 3.918 6.832 7.865 9.275 7.865 2.447 0 8.188-3.947 9.279-7.865.523-1.887.945-4.086 1.039-5.611.435-7.59-3.059-13.492-10.317-13.492z" fill="#fc6"/><path d="m47.001 24.213c-1.764-.773-1.775-.029-4.5.154 1.023 1.158 1.775 2.648 4.498 2.648 3.129 0 3.656-1.693 4.502-2.648-2.723-.183-2.734-.928-4.5-.154z" fill="#d47706"/><path d="m43.321 24.654c1.775 1.848 5.607 1.824 7.361 0-2.734.295-4.628.295-7.361 0z" fill="#fff"/><path d="m54.995 14.24c-1.635-.973-4.566-1.092-5.725-.428-.248.133-.182.838.033.748 1.652-.688 4.174-.723 5.729.074.209.106.213-.251-.037-.394z" fill="#594640"/><path d="m39.005 14.24c1.633-.973 4.568-1.092 5.729-.428.248.133.182.838-.033.748-1.654-.688-4.176-.723-5.73.074-.208.106-.212-.251.034-.394z" fill="#594640"/><path d="m49.251 21.566c0 1.461-4.502 1.461-4.502 0 0-.336 4.502-.336 4.502 0z" fill="#e6b045"/><path d="m54.839 17.205c-.971 2.533-4.912 2.162-5.635.389.547-2.852 5.104-3.096 5.635-.389z" fill="#fff"/><path d="m50.194 16.93c0 2.244 3.248 2.244 3.248 0 0-2.086-3.248-2.086-3.248 0z" fill="#613f34"/><path d="m50.513 17.648c0 1.283 2.609 1.283 2.609 0 0-1.197-2.609-1.197-2.609 0z" fill="#7d5037"/><path d="m51.142 16.963c0 .934 1.35.934 1.35 0-.001-.865-1.35-.865-1.35 0z" fill="#1a1626"/><path d="m50.681 16.691c0 .471.684.471.684 0-.001-.435-.684-.435-.684 0z" fill="#ab968c"/><path d="m54.839 17.186c0-2.723-5.635-2.723-5.635.432.805-2.589 4.832-2.589 5.635-.432z" fill="#45332c"/><path d="m39.163 17.205c.969 2.533 4.912 2.164 5.637.389-.545-2.852-5.104-3.096-5.637-.389z" fill="#fff"/><path d="m40.562 16.932c0 2.246 3.248 2.246 3.248 0 0-2.082-3.248-2.082-3.248 0z" fill="#613f34"/><path d="m40.882 17.65c0 1.285 2.607 1.285 2.607 0 0-1.193-2.607-1.193-2.607 0z" fill="#7d5037"/><path d="m41.511 16.967c0 .932 1.35.932 1.35 0-.001-.865-1.35-.865-1.35 0z" fill="#1a1626"/><path d="m41.048 16.695c0 .471.682.471.682 0-.001-.435-.682-.435-.682 0z" fill="#ab968c"/><path d="m39.163 17.186c0-2.723 5.637-2.723 5.637.43-.805-2.589-4.832-2.589-5.637-.43z" fill="#45332c"/><path d="m55.108 4.563c-5.088 5.207-.232 5.543 2.766 12.865 1.684 4.102 2.746 9.197 3.893 1.855 1.431-9.174-4.075-15.488-6.659-14.72z" fill="#594640"/><path d="m42.618 2.568c-6.451 1.516-12.465 7.211-10.088 18.418 1.406 6.623 3.201-2.607 4.4-4.9 6.121-3.639 16.586-6.393 18.178-11.523.807-1.184-6.033-3.684-12.49-1.995z" fill="#594640"/><path d="m37.679 10.732c2.727-.553 15.779-.814 17.43-6.17-3.085 2.456-6.28 3.126-17.43 6.17z" fill="#453631"/><path d="m32.972 19.252c4.576-6.104 19.572-5.43 22.137-14.689-4.979 7.771-20.887 8.824-22.137 14.689z" fill="#453631"/><path d="m53.599 5.832c-1.182 1.859 2.924-.873 7.35 11.104-1.093-7.002-4.829-11.823-7.35-11.104z" fill="#453631"/><path d="m29.137 54.67c-.982-.688-5.299-2.494-5.299-2.494h-4.797s-4.318 1.811-5.307 2.494c-1.656 1.144-2.207 7.33-2.207 7.33h19.793s-.547-6.189-2.183-7.33z" fill="#e32b56"/><path d="m24.348 52.84c0-.539 0-2.926 0-2.926h-5.85v2.926c0 2.365 5.85 2.365 5.85 0z" fill="#e6b045"/><path d="m13.918 43.938c-7.076 4.172-.855 7.969-2.869 9.768 3.914 2.425 13.494-1.755 2.869-9.768z" fill="#594640"/><path d="m11.805 45.521c1.736 6.66 5.311 6.891 5.012 8.096 3.322-1.74 3.353-7.353-5.012-8.096z" fill="#453631"/><path d="m28.93 43.938c7.076 4.172.855 7.969 2.871 9.768-3.912 2.425-13.494-1.755-2.871-9.768z" fill="#594640"/><path d="m31.043 45.521c-1.734 6.66-5.311 6.891-5.01 8.096-3.322-1.74-3.355-7.353 5.01-8.096z" fill="#453631"/><path d="m11.746 43.77h19.348c2.816-15.124-22.164-15.124-19.348 0z" fill="#594640"/><path d="m11.721 43.582s11.016 4.105 18.652-.65c-1.543.291-4.051-5.605-15.775-6.047-.43 6.697-2.491 4.879-2.877 6.697z" fill="#453631"/><path d="m30.186 42.689c.822-11.314-18.359-11.314-17.535 0 .714-9.501 16.818-9.501 17.535 0z" fill="#cfd8dd"/><path d="m30.186 42.324c.822-11.314-18.359-11.314-17.535 0 .714-9.502 16.818-9.502 17.535 0z" fill="#fff"/><path d="m12.854 42.768c-3.336-.506-1.162 7.363 1.451 5.193 1.213-1.008.113-4.955-1.451-5.193z" fill="#e6b045"/><path d="m29.982 42.768c-1.561.238-2.66 4.186-1.451 5.193 2.615 2.168 4.787-5.699 1.451-5.193z" fill="#e6b045"/><path d="m29.873 42.785c-3.195-.91-7.289-5.256-15.07-4.729.137 1.707-.313 3.645-1.814 4.734 0 0-.006 1.535.543 4.346.895 4.602 4.617 6.406 7.887 6.406 3.273 0 6.994-1.805 7.891-6.406.545-2.812.563-4.351.563-4.351z" fill="#fc6"/><path d="m27.668 44.295c-.777 2.035-3.943 1.738-4.525.313.441-2.29 4.097-2.485 4.525-.313z" fill="#fff"/><path d="m23.951 44.078c0 1.787 2.586 1.787 2.586 0 0-1.658-2.586-1.658-2.586 0z" fill="#613f34"/><path d="m24.207 44.648c0 1.025 2.074 1.025 2.074 0 0-.949-2.074-.949-2.074 0z" fill="#7d5037"/><path d="m24.705 44.105c0 .742 1.076.742 1.076 0 0-.687-1.076-.687-1.076 0z" fill="#1a1626"/><path d="m24.342 43.889c0 .377.541.377.541 0 0-.348-.541-.348-.541 0z" fill="#ab968c"/><path d="m27.668 44.279c0-2.186-4.525-2.186-4.525.346.646-2.076 3.878-2.076 4.525-.346z" fill="#e6b045"/><path d="m15.195 44.295c.775 2.035 3.943 1.738 4.525.313-.439-2.292-4.095-2.487-4.525-.313z" fill="#fff"/><path d="m16.328 44.078c0 1.785 2.586 1.785 2.586 0 0-1.658-2.586-1.658-2.586 0z" fill="#613f34"/><path d="m16.584 44.648c0 1.023 2.072 1.023 2.072 0 0-.949-2.072-.949-2.072 0z" fill="#7d5037"/><path d="m17.082 44.105c0 .74 1.074.74 1.074 0 0-.687-1.074-.687-1.074 0z" fill="#1a1626"/><path d="m16.717 43.889c0 .375.543.375.543 0 0-.348-.543-.348-.543 0z" fill="#ab968c"/><path d="m15.195 44.279c0-2.186 4.525-2.186 4.525.346-.644-2.078-3.88-2.078-4.525-.346z" fill="#e6b045"/><path d="m28.086 42.064c-1.35-.672-3.938-.703-4.9-.236-.207.09-.07.725.105.666 1.34-.498 3.504-.51 4.764.043.166.07.236-.381.031-.473z" fill="#c1873c"/><path d="m14.775 42.064c1.354-.672 3.939-.703 4.904-.236.207.09.068.725-.104.666-1.344-.498-3.51-.51-4.768.043-.166.07-.235-.381-.032-.473z" fill="#c1873c"/><path d="m21.432 49.73c-1.328-.391-3.299.184-3.299.184.75.814 1.303 1.875 3.299 1.875 2.289 0 2.682-1.201 3.299-1.875-.001 0-1.973-.576-3.299-.184z" fill="#e6a400"/><path d="m18.635 50.053c1.395 1.168 4.211 1.174 5.611 0-1.488.062-4.113.062-5.611 0z" fill="#fff"/><path d="m23.266 47.98c0 1.189-3.666 1.189-3.666 0 0-.273 3.666-.273 3.666 0z" fill="#e6b045"/><path d="m50.289 54.67c-.982-.688-5.299-2.494-5.299-2.494h-4.797s-4.318 1.811-5.307 2.494c-1.656 1.144-2.206 7.33-2.206 7.33h19.793s-.547-6.189-2.184-7.33z" fill="#e32b56"/><path d="m45.5 52.84c0-.539 0-2.926 0-2.926h-5.85v2.926c0 2.365 5.85 2.365 5.85 0z" fill="#e6b045"/><path d="m35.07 43.938c-7.076 4.172-.855 7.969-2.869 9.768 3.914 2.425 13.494-1.755 2.869-9.768z" fill="#594640"/><path d="m32.957 45.521c1.736 6.66 5.311 6.891 5.012 8.096 3.322-1.74 3.353-7.353-5.012-8.096z" fill="#453631"/><path d="m50.082 43.938c7.076 4.172.855 7.969 2.871 9.768-3.912 2.425-13.494-1.755-2.871-9.768z" fill="#594640"/><path d="m52.195 45.521c-1.734 6.66-5.311 6.891-5.01 8.096-3.322-1.74-3.355-7.353 5.01-8.096z" fill="#453631"/><path d="m32.898 43.77h19.348c2.817-15.124-22.164-15.124-19.348 0z" fill="#594640"/><path d="m32.873 43.582s11.016 4.105 18.652-.65c-1.543.291-4.051-5.605-15.775-6.047-.43 6.697-2.49 4.879-2.877 6.697z" fill="#453631"/><path d="m51.338 42.689c.822-11.314-18.359-11.314-17.535 0 .715-9.501 16.818-9.501 17.535 0z" fill="#cfd8dd"/><path d="m51.338 42.324c.822-11.314-18.359-11.314-17.535 0 .715-9.502 16.818-9.502 17.535 0z" fill="#fff"/><path d="m34.006 42.768c-3.336-.506-1.162 7.363 1.451 5.193 1.213-1.008.113-4.955-1.451-5.193z" fill="#e6b045"/><path d="m51.135 42.768c-1.561.238-2.66 4.186-1.451 5.193 2.615 2.168 4.787-5.699 1.451-5.193z" fill="#e6b045"/><path d="m51.025 42.785c-3.195-.91-7.289-5.256-15.07-4.729.137 1.707-.313 3.645-1.814 4.734 0 0-.006 1.535.543 4.346.895 4.602 4.617 6.406 7.887 6.406 3.273 0 6.994-1.805 7.891-6.406.546-2.812.563-4.351.563-4.351z" fill="#fc6"/><path d="m48.82 44.295c-.777 2.035-3.943 1.738-4.525.313.441-2.29 4.098-2.485 4.525-.313z" fill="#fff"/><path d="m45.104 44.078c0 1.787 2.586 1.787 2.586 0-.001-1.658-2.586-1.658-2.586 0z" fill="#613f34"/><path d="m45.359 44.648c0 1.025 2.074 1.025 2.074 0 .001-.949-2.074-.949-2.074 0z" fill="#7d5037"/><path d="m45.857 44.105c0 .742 1.076.742 1.076 0 .001-.687-1.076-.687-1.076 0z" fill="#1a1626"/><path d="m45.494 43.889c0 .377.541.377.541 0 0-.348-.541-.348-.541 0z" fill="#ab968c"/><path d="m48.82 44.279c0-2.186-4.525-2.186-4.525.346.646-2.076 3.879-2.076 4.525-.346z" fill="#e6b045"/><path d="m36.348 44.295c.775 2.035 3.943 1.738 4.525.313-.439-2.292-4.096-2.487-4.525-.313z" fill="#fff"/><path d="m37.48 44.078c0 1.785 2.586 1.785 2.586 0 0-1.658-2.586-1.658-2.586 0z" fill="#613f34"/><path d="m37.736 44.648c0 1.023 2.072 1.023 2.072 0 .001-.949-2.072-.949-2.072 0z" fill="#7d5037"/><path d="m38.234 44.105c0 .74 1.074.74 1.074 0 .001-.687-1.074-.687-1.074 0z" fill="#1a1626"/><path d="m37.869 43.889c0 .375.543.375.543 0 0-.348-.543-.348-.543 0z" fill="#ab968c"/><path d="m36.348 44.279c0-2.186 4.525-2.186 4.525.346-.644-2.078-3.881-2.078-4.525-.346z" fill="#e6b045"/><path d="m49.238 42.064c-1.35-.672-3.938-.703-4.9-.236-.207.09-.07.725.105.666 1.34-.498 3.504-.51 4.764.043.166.07.236-.381.031-.473z" fill="#c1873c"/><path d="m35.928 42.064c1.354-.672 3.939-.703 4.904-.236.207.09.068.725-.104.666-1.344-.498-3.51-.51-4.768.043-.167.07-.235-.381-.032-.473z" fill="#c1873c"/><path d="m42.584 49.73c-1.328-.391-3.299.184-3.299.184.75.814 1.303 1.875 3.299 1.875 2.289 0 2.682-1.201 3.299-1.875 0 0-1.973-.576-3.299-.184z" fill="#e6a400"/><path d="m39.787 50.053c1.395 1.168 4.211 1.174 5.611 0-1.488.062-4.113.062-5.611 0z" fill="#fff"/><path d="m44.418 47.98c0 1.189-3.666 1.189-3.666 0 0-.273 3.666-.273 3.666 0z" fill="#e6b045"/><g fill="#fc6"><path d="m12.103 57.492c.805.49 2.559-2.121 1.822-2.713-4.498-3.604-6.533-9.004-6.533-9.004-2.283-.691-5.123 0-5.123 0 .291 5.366 5.914 9.325 9.834 11.717z"/><path d="m15.628 53.645c1.666-.393 4.768 1.096 3.01 1.477.395.463.348 1.004-.982.637.51.459-.338.818-1.016.654.201 1.16-2.217.477-2.941.84-1.035.52-1.258.83-1.523.678-1.931-1.111.686-3.64 3.452-4.286z"/><path d="m51.899 57.492c-.807.49-2.559-2.121-1.822-2.713 4.496-3.604 6.533-9.004 6.533-9.004 2.283-.691 5.123 0 5.123 0-.291 5.366-5.914 9.325-9.834 11.717z"/><path d="m48.374 53.645c-1.666-.393-4.768 1.096-3.01 1.477-.396.463-.348 1.004.982.637-.512.459.336.818 1.014.654-.201 1.16 2.219.477 2.941.84 1.037.52 1.26.83 1.523.678 1.931-1.111-.684-3.64-3.45-4.286z"/></g></svg>