<svg enable-background="new 0 0 64 64" height="64" viewBox="0 0 64 64" width="64" xmlns="http://www.w3.org/2000/svg" xmlns:xlink="http://www.w3.org/1999/xlink"><radialGradient id="a" cx="89.4854" cy="15.749" gradientTransform="matrix(1.0909 0 0 .9959 -65.6198 .2549)" gradientUnits="userSpaceOnUse" r="16.5133"><stop offset=".2606" stop-color="#a10505"/><stop offset=".4829" stop-color="#b20b0d"/><stop offset=".9239" stop-color="#e01923"/><stop offset="1" stop-color="#e81c27"/></radialGradient><radialGradient id="b" cx="89.4854" cy="21.0552" gradientTransform="matrix(1.0909 0 0 .9959 -65.6198 .2549)" gradientUnits="userSpaceOnUse" r="14.9761"><stop offset="0" stop-color="#747080"/><stop offset="1" stop-color="#302c3b"/></radialGradient><path d="m53.131 33.547c0 5.854-9.459 10.602-21.131 10.602-11.67 0-21.131-4.748-21.131-10.602 0-5.858 9.461-10.604 21.131-10.604 11.672 0 21.131 4.746 21.131 10.604z" fill="#b00505"/><path d="m20.926 15.476c-7.467 37.399-6.783 36.598 8.934 36.598-8.698-7.101 7.962-37.106-8.934-36.598z" fill="#40281f"/><path d="m18.232 14.898c-5.449 28.413-.748 35.709 3.426 37.176h4.783c-11.191-9.203 6.303-37.735-8.209-37.176z" fill="#4a2e24"/><path d="m42.891 15.476c7.465 37.397 6.781 36.596-8.934 36.596 7.998-5.699-7.963-37.106 8.934-36.596z" fill="#40281f"/><path d="m45.582 14.896c7.965 25.85-.018 35.979-3.426 37.176h-4.781c11.191-8.451-6.303-37.735 8.207-37.176z" fill="#4a2e24"/><path d="m46.686 28.787c2.271 6.573.023 20.059-4.68 23.288 5.213 0 8.389-8.551 9.938-20.311 1.933-14.696-9.307-14.704-5.258-2.977z" fill="#614036"/><path d="m12.457 34.49c1.9 10.613 4.238 17.584 9.355 17.584-5.705-7-5.035-21.762-3.412-25.434 8.266-5.828-9.156-10.103-5.943 7.85z" fill="#614036"/><path d="m12.258 53.156c2.398-1.305 13.195-4.254 13.195-4.254l6.547 1.748 6.545-1.748s10.871 2.943 13.256 4.25c3.469 1.899 4.199 8.848 4.199 8.848h-48s.777-6.953 4.258-8.844" fill="#e81c27"/><path d="m13.742 62h36.52l.828-3.492h-37.998z" fill="#ffe12c"/><path d="m25.453 44.537h13.092v8.434h-13.092z" fill="#755035"/><path d="m25.453 50.799c1.395 2.586 6.547 6.228 6.547 6.228s5.154-3.643 6.545-6.229c-4.242 1.321-8.846 1.321-13.092.001z" fill="#302c3b"/><path d="m13.742 62c.508-1.75-.09-4.414-.729-5.881-.595-1.367-.37 4.918.729 5.881" fill="#b00505"/><path d="m50.988 56.119c-.637 1.467-1.24 4.131-.727 5.881 1.096-.963 1.319-7.248.727-5.881" fill="#b00505"/><path d="m32.002 55.127h.82v6.873h-.82z" fill="#302c3b"/><path d="m32.002 62s-2.869-9.906-9.959-7.889c0 0-.281-5.068 3.293-7.744 1.107-.828-1.197 4.34 6.664 8.762z" fill="#b00505"/><path d="m32.002 58.508s2.6-4.854 9.957-4.396c0 0 .281-5.068-3.293-7.744-1.107-.828 1.535 4.922-6.666 8.762l.002 6.87" fill="#b00505"/><path d="m32 6.49c-11.609 0-17.201 9.455-16.502 21.611.143 2.443.822 5.969 1.66 8.989 1.742 6.277 10.93 12.6 14.842 12.6 3.91 0 13.1-6.322 14.84-12.6.84-3.02 1.52-6.545 1.664-8.989.697-12.156-4.893-21.611-16.504-21.611z" fill="#916b50"/><path d="m32 39.662c-2.822-1.24-2.844-.051-7.199.242 1.635 1.855 2.838 4.244 7.197 4.244 5.004 0 5.85-2.711 7.203-4.244-4.359-.293-4.379-1.482-7.201-.242z" fill="#7a421b"/><path d="m26.107 40.367c2.844 2.959 8.977 2.92 11.785 0-4.378.471-7.404.471-11.785 0z" fill="#fff"/><path d="m44.795 23.685c-2.617-1.561-7.309-1.75-9.166-.688-.393.213-.287 1.34.053 1.199 2.648-1.104 6.682-1.158 9.168.117.334.171.339-.401-.055-.628z" fill="#36281d"/><path d="m19.207 23.685c2.615-1.561 7.307-1.75 9.166-.688.393.213.289 1.34-.055 1.199-2.648-1.104-6.68-1.158-9.166.117-.334.171-.341-.401.055-.628z" fill="#36281d"/><path d="m35.6 35.42c0 2.342-7.199 2.342-7.199 0-.001-.537 7.199-.537 7.199 0z" fill="#755035"/><path d="m44.541 28.431c-1.551 4.061-7.861 3.465-9.016.623.875-4.564 8.163-4.955 9.016-.623z" fill="#fff"/><path d="m37.105 27.99c0 3.596 5.201 3.596 5.201 0 .001-3.338-5.201-3.338-5.201 0z" fill="#613f34"/><path d="m37.619 29.14c0 2.063 4.172 2.063 4.172 0 0-1.914-4.172-1.914-4.172 0z" fill="#7d5037"/><path d="m38.627 28.046c0 1.492 2.158 1.492 2.158 0 0-1.384-2.158-1.384-2.158 0z" fill="#1a1626"/><path d="m37.889 27.611c0 .754 1.09.754 1.09 0 0-.699-1.09-.699-1.09 0z" fill="#ab968c"/><path d="m44.541 28.4c0-4.361-9.016-4.361-9.016.691 1.286-4.146 7.729-4.146 9.016-.691z" fill="#45332c"/><path d="m19.459 28.431c1.553 4.061 7.863 3.467 9.02.623-.877-4.564-8.165-4.955-9.02-.623z" fill="#fff"/><path d="m21.695 27.996c0 3.596 5.199 3.596 5.199 0 .001-3.338-5.199-3.338-5.199 0z" fill="#613f34"/><path d="m22.209 29.146c0 2.063 4.172 2.063 4.172 0 0-1.914-4.172-1.914-4.172 0z" fill="#7d5037"/><path d="m23.215 28.052c0 1.492 2.16 1.492 2.16 0 0-1.385-2.16-1.385-2.16 0z" fill="#1a1626"/><path d="m22.479 27.617c0 .754 1.09.754 1.09 0-.001-.701-1.09-.701-1.09 0z" fill="#ab968c"/><path d="m19.459 28.4c0-4.361 9.02-4.361 9.02.689-1.288-4.144-7.731-4.144-9.02-.689z" fill="#45332c"/><path d="m42.949 8.179c-6.871 8.342-.313 8.881 3.736 20.607 2.271 6.573 3.709 14.737 5.258 2.977 1.934-14.695-5.502-24.81-8.994-23.584z" fill="#614036"/><path d="m26.082 4.986c-8.713 2.43-16.838 11.551-13.625 29.504 1.9 10.613 2.672-3.667 4.293-7.338 8.266-5.828 24.051-10.752 26.199-18.973 1.092-1.896-8.146-5.9-16.867-3.193z" fill="#614036"/><path d="m19.215 18.062c3.742-.885 21.637-1.301 23.9-9.883-4.228 3.934-8.609 5.006-23.9 9.883z" fill="#4a2e24"/><path d="m12.766 31.71c6.275-9.773 26.834-8.695 30.35-23.531-6.827 12.453-28.636 14.137-30.35 23.531z" fill="#4a2e24"/><path d="m41.047 10.214c-1.619 2.977 4.008-1.398 10.074 17.786-1.494-11.215-6.621-18.938-10.074-17.786z" fill="#4a2e24"/><path d="m31.992 19.658c-30.711 0-20.988 17.842-20.988 16.143 0-5.932 9.4-10.737 21-10.737 11.598 0 21 4.805 21 10.737 0 1.685 9.699-16.143-21.012-16.143z" opacity=".2"/><path d="m53.998 25.816c0 5.693.484-3.563-21.998-3.563-22.484.002-22 9.256-22 3.563 0-14.041 9.85-21.604 22-21.604s21.998 7.563 21.998 21.604z" fill="url(#a)"/><path d="m38.057 21.339h-12.114s0-13.201 0-16.133c0-4.275 12.113-4.275 12.113 0 .001 3.243.001 16.133.001 16.133z" fill="#e81c27"/><path d="m53.998 25.816c0-1.455-.129-2.824-.332-4.141-3.861-4.078-12.113-6.895-21.67-6.895-9.551 0-17.797 2.811-21.66 6.881-.205 1.323-.336 2.696-.336 4.155 0 5.693-.484-3.561 22-3.563 22.482 0 21.998 9.256 21.998 3.563z" fill="url(#b)"/><path d="m32 18.765c-13.256 0-24 5.416-24 12.102 0 2.833 1.938 5.44 5.178 7.5-1.375-1.342-2.168-2.846-2.168-4.439 0-5.573 9.4-10.084 21-10.084 11.598 0 21 4.512 21 10.084 0 1.582-.779 3.072-2.133 4.404 3.205-2.055 5.123-4.646 5.123-7.465 0-6.686-10.746-12.102-24-12.102z" fill="#e81c27"/><path d="m37.949 10.845c-1.49-2.883-4.695-2.275-5.951-4.688-1.254 2.412-4.461 1.805-5.949 4.688-1.496 2.895 1.309 4.135-.438 5.803 0 0 1.865 1.314 1.332 4.301 0 0 2.037-.963 5.055 1.139 3.018-2.102 5.055-1.139 5.055-1.139-.531-2.986 1.334-4.301 1.334-4.301-1.746-1.668 1.058-2.908-.438-5.803z" fill="#ffe12c"/><g fill="#302c3b"><path d="m35.299 17.986h-1.16v.465h1.064v.381h-1.064v.564h1.213v.393h-1.66v-2.191h1.607z"/><path d="m28.646 17.599h1.561v.383h-1.107v.506h.973v.381h-.973v.918h-.453v-2.188z"/><path d="m31.119 19.789h-.457v-2.191h.457z"/><path d="m32.969 17.652c.08.033.148.086.205.154.045.055.084.115.109.184.027.068.043.145.043.23 0 .105-.027.209-.08.309s-.139.17-.26.213c.1.039.172.098.213.174.043.074.066.189.066.342v.146c0 .1.002.168.01.205.012.059.041.098.084.127v.053h-.506c-.012-.047-.023-.088-.029-.117-.012-.061-.018-.125-.02-.188l-.004-.205c0-.141-.025-.232-.072-.279-.045-.047-.133-.07-.26-.07h-.448v.859h-.445v-2.191h1.049c.147.001.265.019.345.054zm-.949.324v.59h.494c.098 0 .172-.014.221-.037.086-.041.131-.123.131-.244 0-.133-.043-.223-.127-.268-.045-.027-.117-.041-.213-.041z"/></g><path d="m35.461 11.298c-.838-.84-2.037.387-2.385.463.074-.35 1.301-1.549.463-2.389-.242-.242-2.838-.242-3.08 0-.838.84.387 2.039.461 2.389-.348-.076-1.547-1.303-2.385-.463-.242.244-.242 2.836 0 3.08.838.836 2.037-.387 2.385-.463-.074.348-1.299 1.547-.461 2.387.242.24 2.838.24 3.08 0 .838-.84-.389-2.039-.463-2.387.348.076 1.547 1.299 2.385.463.242-.244.242-2.836 0-3.08z" fill="#e81c27"/></svg>