<svg enable-background="new 0 0 64 64" height="64" viewBox="0 0 64 64" width="64" xmlns="http://www.w3.org/2000/svg"><path d="m9.789 50.424c2.699-1.707 13.906-6.217 13.906-6.217h16.695s11.197 4.5 13.882 6.215c3.905 2.484 4.728 11.578 4.728 11.578h-54s.87-9.104 4.789-11.576" fill="#e6ebef"/><path d="m10.451 62c.628-2.291-.112-5.777-.895-7.697-.727-1.788-.453 6.437.895 7.697" fill="#cfd7dc"/><path d="m53.549 62c-.628-2.291.109-5.777.893-7.697.727-1.788.453 6.437-.893 7.697" fill="#cfd7dc"/><path d="m47.379 54.747c-.951-6.022-3.851-9.915-8.62-11.573-7.731-2.684-20.891 1.25-21.168 4.984l-1.275-.186c0-4.67 14.685-8.605 22.808-5.785 5.173 1.797 8.31 5.969 9.324 12.4z" fill="#302c3b"/><path d="m47.912 53.619c2.384 0 4.32 1.879 4.32 4.191 0 2.313-1.937 4.189-4.32 4.189-2.385 0-4.319-1.876-4.319-4.189 0-2.312 1.934-4.191 4.319-4.191" fill="#cfd8dd"/><path d="m47.912 54.668c1.791 0 3.238 1.404 3.238 3.145 0 1.734-1.447 3.141-3.238 3.141-1.79 0-3.241-1.406-3.241-3.141 0-1.741 1.451-3.145 3.241-3.145" fill="#4e5e67"/><path d="m47.912 55.191c1.492 0 2.699 1.172 2.699 2.621 0 1.446-1.207 2.617-2.699 2.617s-2.701-1.171-2.701-2.617c0-1.449 1.209-2.621 2.701-2.621" fill="#bec3cf"/><path d="m24.162 40h15.674v11.037h-15.674z" fill="#e6a400"/><path d="m39.02 47.51c-2.153 1.105-4.537 1.737-7.02 1.737-2.48 0-4.866-.632-7.02-1.739l7.02 14.492z" fill="#018bc9"/><path d="m22.025 44.73c-2.127 6.393-1.136 10.475-1.136 10.475 1.791-1.604 5.31-3.376 5.31-3.378-1.274 1.79-2.284 4.73-2.284 4.73 3.82.607 8.085 5.443 8.085 5.443s-5.936-17.009-9.975-17.27z" fill="#bec3cf"/><path d="m24.681 41.429s-1.049-.432-1.495.376c-2.631 4.801-1.755 11.59-1.755 11.59 1.791-1.604 5.367-2.078 5.369-2.081-1.275 1.79-1.819 3.806-1.819 3.806 2.697 1.264 7.019 6.88 7.019 6.88s-3.607-10.386-7.319-20.571z" fill="#e6ebef"/><path d="m41.973 44.73c2.127 6.393 1.138 10.475 1.138 10.475-1.791-1.604-5.31-3.376-5.312-3.378 1.275 1.79 2.286 4.73 2.286 4.73-3.82.607-8.085 5.443-8.085 5.443s5.934-17.009 9.973-17.27z" fill="#bec3cf"/><path d="m39.319 41.429s1.049-.432 1.495.376c2.631 4.801 1.755 11.59 1.755 11.59-1.791-1.604-5.369-2.078-5.369-2.081 1.273 1.79 1.819 3.806 1.819 3.806-2.7 1.264-7.019 6.88-7.019 6.88s3.607-10.386 7.319-20.571z" fill="#e6ebef"/><path d="m22.644 53.258h-1.274c-.002-2.391-2.004-4.333-4.468-4.333-2.462-.001-4.466 1.944-4.468 4.333h-1.274c0-3.07 2.575-5.57 5.741-5.571 3.167-.001 5.744 2.501 5.743 5.571" fill="#302c3b"/><path d="m11.16 53.258-.002 6.566c.002 1.188.618 2.056 1.915 2.147.822.059.814-1.181-.003-1.237-.853-.061-.635-1.059-.635-1.64l-.002-5.837c.003-.798-1.275-.798-1.273.001" fill="#99a8ae"/><path d="m21.369 53.258v5.659c-.002.594.256 1.753-.638 1.817-.816.057-.822 1.296 0 1.237 1.22-.086 1.912-.892 1.913-2.05l-.001-6.664c.002-.798-1.274-.798-1.274.001" fill="#99a8ae"/><path d="m13.934 61.975h-.933c-.817 0-.815-1.363 0-1.363l.933.002c.819-.003.819 1.361 0 1.361z" fill="#302c3b"/><path d="m20.802 61.975h-.93c-.821 0-.821-1.363-.002-1.363l.932.002c.818-.003.818 1.361 0 1.361z" fill="#302c3b"/><path d="m14.9 20.749c-5.718-1.031-1.252 14.957 3.225 10.548 2.073-2.045-.55-10.065-3.225-10.548z" fill="#e6b045"/><path d="m49.101 20.749c-2.675.483-5.299 8.503-3.224 10.548 4.477 4.409 8.938-11.579 3.224-10.548z" fill="#e6b045"/><path d="m32 2.001c-11.823 0-17.521 8.945-16.807 21.384.144 2.503 1.693 10.666 3.158 13.593 1.499 2.995 6.512 7.614 9.584 8.57 1.94.604 6.188.604 8.128 0 3.072-.956 8.086-5.575 9.585-8.57 1.466-2.927 3.016-11.09 3.158-13.593.715-12.439-4.981-21.384-16.806-21.384z" fill="#fc6"/><path d="m32 35.862c-2.66-.782-6.6.37-6.6.37 1.501 1.635 2.601 3.756 6.6 3.756 4.582 0 5.36-2.407 6.6-3.756 0 0-3.944-1.156-6.6-.37z" fill="#e6a400"/><path d="m26.407 36.51c2.786 2.34 8.418 2.354 11.221 0-2.972.127-8.229.129-11.221 0z" fill="#fff"/><path d="m35.667 31.465c0 2.387-7.333 2.387-7.333 0 0-.548 7.333-.548 7.333 0z" fill="#e6b045"/><path d="m32 2c-8.134 0-13.049 2.688-15.168 1.655 0 0-.23 1.388.601 2.291 0 0-.877.758-2.292-.521-1.348 4.377 2.652 6.913 16.859 6.913s10.813-3.46 17.797 2.616c-.685-7.489-5.443-12.954-17.797-12.954z" fill="#594640"/><path d="m38.016 8.529c-7.821 2.888-10.682-2.321-18.06-2.824 3.509 1.657 5.223 4.208 8.104 6.049-6.272-2.101-10.877-5.712-11.226-8.085 0 0-1.047 3.464 3.093 6.053-3.958.367-4.784-4.283-4.784-4.283-2.005 3.221-1.728 13.606.5 21.313.371-2.75-.476-3.887.796-7.201 3.805-9.904 1.356-5.745 15.563-5.745s11.642-3.793 15.562 5.745c1.169 2.844.425 4.451.798 7.201 4.67-17.378-2.048-21.285-10.346-18.223z" fill="#453631"/><path d="m44.658 24.347c-1.579 4.136-8.007 3.529-9.185.635.894-4.65 8.318-5.047 9.185-.635z" fill="#fff"/><path d="m19.34 24.347c1.58 4.136 8.01 3.529 9.186.635-.894-4.652-8.316-5.049-9.186-.635z" fill="#fff"/><path d="m45.314 19.368c-2.704-1.342-7.879-1.407-9.807-.472-.412.182-.141 1.454.208 1.332 2.687-.995 7.02-1.019 9.534.086.336.142.476-.757.065-.946z" fill="#c1873c"/><path d="m18.686 19.368c2.704-1.342 7.878-1.407 9.807-.472.413.182.141 1.454-.206 1.332-2.691-.995-7.021-1.019-9.537.086-.335.142-.474-.757-.064-.946z" fill="#c1873c"/><path d="m37.113 23.906c0 3.629 5.25 3.629 5.25 0 0-3.369-5.25-3.369-5.25 0z" fill="#613f34"/><path d="m37.633 25.067c0 2.081 4.212 2.081 4.212 0 0-1.931-4.212-1.931-4.212 0z" fill="#7d5037"/><path d="m38.648 23.963c0 1.507 2.18 1.507 2.18 0 0-1.398-2.18-1.398-2.18 0z" fill="#1a1626"/><path d="m37.905 23.523c0 .761 1.101.761 1.101 0 0-.706-1.101-.706-1.101 0z" fill="#ab968c"/><path d="m21.637 23.905c0 3.63 5.25 3.63 5.25 0 0-3.369-5.25-3.369-5.25 0z" fill="#613f34"/><path d="m22.156 25.066c0 2.081 4.211 2.081 4.211 0 0-1.931-4.211-1.931-4.211 0z" fill="#7d5037"/><path d="m23.172 23.963c0 1.506 2.18 1.506 2.18 0 0-1.399-2.18-1.399-2.18 0z" fill="#1a1626"/><path d="m22.428 23.522c0 .761 1.101.761 1.101 0-.001-.706-1.101-.706-1.101 0z" fill="#ab968c"/><g fill="#e6b045"><path d="m44.658 24.315c0-4.44-9.185-4.44-9.185.703 1.312-4.219 7.874-4.219 9.185-.703z"/><path d="m19.34 24.315c0-4.44 9.186-4.44 9.186.702-1.311-4.221-7.874-4.221-9.186-.702z"/></g></svg>