<svg enable-background="new 0 0 64 64" height="64" viewBox="0 0 64 64" width="64" xmlns="http://www.w3.org/2000/svg"><path d="m19.076 13.402c-8.713 37.398-7.914 36.597 10.425 36.597-10.148-7.101 9.293-37.106-10.425-36.597z" fill="#261a17"/><path d="m15.933 12.823c-6.357 28.413-.873 35.709 3.998 37.176h5.582c-13.06-9.202 7.356-37.735-9.58-37.176z" fill="#1e1513"/><path d="m44.71 13.401c8.711 37.396 7.914 36.596-10.426 36.596 9.333-5.698-9.294-37.105 10.426-36.596z" fill="#261a17"/><path d="m47.851 12.822c9.295 25.85-.021 35.979-3.998 37.175h-5.58c13.06-8.45-7.356-37.734 9.578-37.175z" fill="#1e1513"/><path d="m49.398 26.713c2.691 6.571.027 20.058-5.545 23.286 6.176 0 9.94-8.55 11.773-20.311 2.291-14.694-11.025-14.702-6.228-2.975z" fill="#3a2c29"/><path d="m8.849 32.415c2.25 10.614 5.019 17.584 11.082 17.584-6.758-6.999-5.963-21.761-4.043-25.434 9.793-5.827-10.844-10.102-7.039 7.85z" fill="#3a2c29"/><path d="m12.257 51.71c2.398-1.517 12.361-5.525 12.361-5.525h14.84s9.953 3.999 12.34 5.523c3.471 2.208 4.201 10.292 4.201 10.292h-48s.774-8.092 4.258-10.29" fill="#e6ebef"/><path d="m12.845 62c.559-2.036-.1-5.136-.795-6.842-.646-1.59-.404 5.723.795 6.842" fill="#cfd7dc"/><path d="m51.154 62c-.557-2.036.098-5.136.795-6.842.646-1.59.402 5.723-.795 6.842" fill="#cfd7dc"/><path d="m45.669 55.553c-.846-5.353-3.422-8.813-7.662-10.287-6.871-2.386-18.568 1.111-18.816 4.431l-1.133-.165c0-4.15 13.053-7.649 20.273-5.143 4.598 1.598 7.387 5.306 8.289 11.023z" fill="#302c3b"/><path d="m46.144 54.551c2.119 0 3.84 1.669 3.84 3.726s-1.721 3.724-3.84 3.724-3.84-1.667-3.84-3.724 1.721-3.726 3.84-3.726" fill="#cfd8dd"/><path d="m46.144 55.482c1.592 0 2.879 1.249 2.879 2.795 0 1.542-1.287 2.791-2.879 2.791s-2.881-1.249-2.881-2.791c0-1.546 1.289-2.795 2.881-2.795" fill="#4e5e67"/><path d="m46.144 55.947c1.326 0 2.399 1.043 2.399 2.33 0 1.286-1.072 2.326-2.399 2.326-1.326 0-2.4-1.04-2.4-2.326 0-1.287 1.074-2.33 2.4-2.33" fill="#bec3cf"/><path d="m25.033 42.444h13.932v9.811h-13.932z" fill="#dba97f"/><path d="m38.24 49.12c-1.914.981-4.033 1.544-6.24 1.544-2.205 0-4.324-.563-6.238-1.547l6.237 12.883z" fill="#018bc9"/><path d="m23.134 46.649c-1.891 5.683-1.01 9.311-1.01 9.311 1.592-1.426 4.719-3.001 4.719-3.002-1.133 1.591-2.029 4.204-2.029 4.204 3.394.539 7.185 4.838 7.185 4.838s-5.275-15.119-8.865-15.351z" fill="#bec3cf"/><path d="m25.494 43.715s-.932-.384-1.328.334c-2.34 4.268-1.561 10.301-1.561 10.301 1.592-1.425 4.771-1.847 4.773-1.849-1.135 1.591-1.617 3.383-1.617 3.383 2.397 1.124 6.238 6.116 6.238 6.116s-3.207-9.232-6.505-18.285z" fill="#e6ebef"/><path d="m40.865 46.649c1.891 5.683 1.012 9.311 1.012 9.311-1.592-1.426-4.721-3.001-4.723-3.002 1.135 1.591 2.033 4.204 2.033 4.204-3.397.539-7.188 4.838-7.188 4.838s5.276-15.119 8.866-15.351z" fill="#bec3cf"/><path d="m38.505 43.715s.934-.384 1.33.334c2.338 4.268 1.559 10.301 1.559 10.301-1.592-1.425-4.771-1.847-4.771-1.849 1.131 1.591 1.617 3.383 1.617 3.383-2.4 1.124-6.24 6.116-6.24 6.116s3.206-9.232 6.505-18.285z" fill="#e6ebef"/><path d="m23.683 54.228h-1.133c-.002-2.124-1.781-3.851-3.971-3.851-2.189-.001-3.971 1.728-3.973 3.851h-1.131c0-2.729 2.289-4.95 5.104-4.951s5.104 2.223 5.104 4.951" fill="#302c3b"/><path d="m13.476 54.228-.002 5.837c.002 1.057.549 1.828 1.701 1.909.732.053.725-1.049-.002-1.101-.758-.053-.564-.939-.564-1.456l-.002-5.189c.002-.709-1.133-.709-1.131 0" fill="#99a8ae"/><path d="m22.55 54.228v5.031c-.002.527.226 1.558-.566 1.614-.727.052-.73 1.153 0 1.101 1.084-.076 1.699-.793 1.699-1.821v-5.925c0-.71-1.133-.709-1.133 0" fill="#99a8ae"/><path d="m15.941 61.977-.828-.001c-.727 0-.727-1.212 0-1.211l.828.002c.728-.003.728 1.209 0 1.21z" fill="#302c3b"/><path d="m22.046 61.976h-.826c-.73 0-.73-1.211-.002-1.211l.828.002c.727-.002.727 1.209 0 1.209z" fill="#302c3b"/><path d="m31.999 4.415c-11.609 0-17.201 9.455-16.502 21.611.143 2.443.822 5.969 1.662 8.988 1.74 6.278 10.928 12.601 14.84 12.601s13.1-6.322 14.842-12.601c.838-3.019 1.518-6.545 1.662-8.988.698-12.156-4.892-21.611-16.504-21.611z" fill="#fcd5b2"/><path d="m32.001 37.587c-2.822-1.24-2.844-.05-7.201.242 1.637 1.856 2.84 4.244 7.199 4.244 5.002 0 5.848-2.711 7.203-4.244-4.359-.292-4.378-1.482-7.201-.242z" fill="#d88d56"/><path d="m26.109 38.292c2.844 2.959 8.977 2.92 11.783.001-4.377.471-7.404.471-11.783-.001z" fill="#fff"/><path d="m44.794 21.61c-2.615-1.56-7.307-1.75-9.164-.688-.395.214-.287 1.341.053 1.2 2.648-1.104 6.682-1.158 9.168.117.332.17.34-.402-.057-.629z" fill="#594640"/><path d="m19.206 21.61c2.615-1.56 7.307-1.75 9.166-.688.395.214.289 1.341-.053 1.2-2.648-1.104-6.68-1.159-9.168.117-.333.17-.339-.402.055-.629z" fill="#594640"/><path d="m35.601 33.345c0 2.342-7.201 2.342-7.201 0 0-.538 7.201-.538 7.201 0z" fill="#dba97f"/><path d="m44.542 26.357c-1.553 4.06-7.861 3.464-9.018.623.878-4.565 8.165-4.956 9.018-.623z" fill="#fff"/><path d="m37.107 25.916c0 3.596 5.199 3.596 5.199 0 0-3.338-5.199-3.338-5.199 0z" fill="#613f34"/><path d="m37.621 27.065c0 2.063 4.172 2.063 4.172 0-.001-1.913-4.172-1.913-4.172 0z" fill="#7d5037"/><path d="m38.626 25.972c0 1.492 2.16 1.492 2.16 0 .001-1.385-2.16-1.385-2.16 0z" fill="#1a1626"/><path d="m37.89 25.536c0 .754 1.09.754 1.09 0 0-.699-1.09-.699-1.09 0z" fill="#ab968c"/><path d="m44.542 26.326c0-4.361-9.018-4.361-9.018.69 1.288-4.145 7.731-4.145 9.018-.69z" fill="#45332c"/><path d="m19.46 26.357c1.551 4.06 7.861 3.466 9.018.623-.875-4.565-8.164-4.956-9.018-.623z" fill="#fff"/><path d="m21.695 25.921c0 3.596 5.201 3.596 5.201 0 0-3.337-5.201-3.337-5.201 0z" fill="#613f34"/><path d="m22.208 27.071c0 2.063 4.172 2.063 4.172 0 0-1.913-4.172-1.913-4.172 0z" fill="#7d5037"/><path d="m23.216 25.977c0 1.492 2.158 1.492 2.158 0 0-1.384-2.158-1.384-2.158 0z" fill="#1a1626"/><path d="m22.478 25.542c0 .754 1.09.754 1.09 0 0-.7-1.09-.7-1.09 0z" fill="#ab968c"/><path d="m19.46 26.326c0-4.361 9.018-4.361 9.018.688-1.287-4.144-7.731-4.144-9.018-.688z" fill="#45332c"/><path d="m44.972 6.105c-8.139 8.342-.371 8.881 4.426 20.607 2.691 6.571 4.395 14.736 6.228 2.976 2.291-14.694-6.517-24.81-10.654-23.583z" fill="#3a2c29"/><path d="m24.99 2.911c-10.323 2.43-19.946 11.552-16.141 29.504 2.25 10.614 5.119-4.177 7.039-7.85 9.793-5.827 26.539-10.24 29.084-18.46 1.293-1.896-9.652-5.9-19.982-3.194z" fill="#3a2c29"/><g fill="#1e1513"><path d="m17.081 15.988c4.365-.885 25.25-1.302 27.891-9.883-4.935 3.934-10.047 5.005-27.891 9.883z"/><path d="m9.554 29.637c7.324-9.774 31.314-8.695 35.418-23.531-7.965 12.451-33.416 14.135-35.418 23.531z"/><path d="m42.558 8.139c-1.889 2.977 4.678-1.398 11.758 17.785-1.746-11.214-7.727-18.937-11.758-17.785z"/></g></svg>