<svg enable-background="new 0 0 64 64" height="64" viewBox="0 0 64 64" width="64" xmlns="http://www.w3.org/2000/svg"><path d="m10.218 9.117c-5.445 23.344-4.943 22.848 6.518 22.848-6.342-4.436 5.806-23.164-6.518-22.848z" fill="#3b2c29"/><path d="m8.255 8.756c-3.974 17.736-.545 22.291 2.498 23.209h3.49c-8.163-5.748 4.596-23.557-5.988-23.209z" fill="#453631"/><path d="m26.24 9.115c5.447 23.346 4.947 22.846-6.514 22.846 5.83-3.557-5.81-23.162 6.514-22.846z" fill="#3b2c29"/><path d="m28.207 8.756c5.804 16.135-.016 22.457-2.5 23.205h-3.49c8.161-5.275-4.596-23.555 5.99-23.205z" fill="#453631"/><path d="m29.171 17.428c1.682 4.102.018 12.52-3.465 14.537 3.859 0 6.209-5.34 7.357-12.682 1.43-9.174-6.892-9.178-3.892-1.855z" fill="#594640"/><path d="m3.828 20.986c1.406 6.623 3.135 10.979 6.926 10.979-4.223-4.371-3.727-13.586-2.527-15.879 6.12-3.639-6.776-6.307-4.399 4.9z" fill="#594640"/><path d="m27.745 32.738c-7.695-5.117-13.979-4.509-19.829.491-2.412 2.061-1.686 10.315-.382 16.546h2.338v12.225h20.789l.339-16.225c-.308-5.296-.812-11.414-3.255-13.037z" fill="#8e3ed6"/><path d="m14.321 51.074h-1.664l-.53-11.597z" fill="#732eb0"/><path d="m38.582 32.738c7.695-5.117 13.979-4.509 19.829.491 2.411 2.061 1.686 10.314.382 16.546h-2.338v12.225h-20.789l-.34-16.225c.309-5.296.813-11.414 3.256-13.037z" fill="#7ab51d"/><path d="m52.006 51.074h1.664l.529-11.597z" fill="#529320"/><path d="m14.298 29.674c0-.723 0-3.932 0-3.932h8v3.932c0 4.23-8 4.23-8 0z" fill="#e6b045"/><path d="m18.296 3.506c-7.256 0-10.752 5.902-10.314 13.492.09 1.525.516 3.725 1.037 5.611 1.092 3.918 6.834 7.865 9.277 7.865 2.445 0 8.188-3.947 9.277-7.865.523-1.887.947-4.086 1.039-5.611.436-7.59-3.06-13.492-10.316-13.492z" fill="#fc6"/><path d="m18.298 24.213c-1.766-.773-1.777-.029-4.502.154 1.023 1.158 1.775 2.648 4.5 2.648 3.127 0 3.654-1.693 4.502-2.648-2.724-.183-2.736-.928-4.5-.154z" fill="#d47706"/><path d="m14.617 24.654c1.777 1.848 5.609 1.824 7.361 0-2.732.295-4.627.295-7.361 0z" fill="#fff"/><path d="m26.292 14.24c-1.635-.973-4.568-1.092-5.727-.428-.248.133-.18.838.033.748 1.654-.688 4.176-.723 5.729.074.21.106.214-.251-.035-.394z" fill="#594640"/><path d="m10.3 14.24c1.633-.973 4.568-1.092 5.73-.428.248.133.18.838-.035.748-1.654-.688-4.174-.723-5.729.074-.208.106-.21-.251.034-.394z" fill="#594640"/><path d="m20.548 21.566c0 1.461-4.502 1.461-4.502 0 0-.336 4.502-.336 4.502 0z" fill="#e6b045"/><path d="m26.136 17.205c-.971 2.533-4.914 2.162-5.637.389.547-2.852 5.104-3.096 5.637-.389z" fill="#fff"/><path d="m21.49 16.93c0 2.244 3.248 2.244 3.248 0 0-2.086-3.248-2.086-3.248 0z" fill="#613f34"/><path d="m21.81 17.648c0 1.283 2.607 1.283 2.607 0 0-1.197-2.607-1.197-2.607 0z" fill="#7d5037"/><path d="m22.439 16.963c0 .934 1.35.934 1.35 0 0-.865-1.35-.865-1.35 0z" fill="#1a1626"/><path d="m21.976 16.691c0 .471.684.471.684 0 0-.435-.684-.435-.684 0z" fill="#ab968c"/><path d="m26.136 17.186c0-2.723-5.637-2.723-5.637.432.805-2.589 4.833-2.589 5.637-.432z" fill="#45332c"/><path d="m10.46 17.205c.969 2.533 4.912 2.164 5.635.389-.545-2.852-5.103-3.096-5.635-.389z" fill="#fff"/><path d="m11.857 16.932c0 2.246 3.248 2.246 3.248 0 0-2.082-3.248-2.082-3.248 0z" fill="#613f34"/><path d="m12.177 17.65c0 1.285 2.607 1.285 2.607 0 .001-1.193-2.607-1.193-2.607 0z" fill="#7d5037"/><path d="m12.806 16.967c0 .932 1.35.932 1.35 0 0-.865-1.35-.865-1.35 0z" fill="#1a1626"/><path d="m12.345 16.695c0 .471.682.471.682 0 0-.435-.682-.435-.682 0z" fill="#ab968c"/><path d="m10.46 17.186c0-2.723 5.635-2.723 5.635.43-.804-2.589-4.832-2.589-5.635-.43z" fill="#45332c"/><path d="m26.406 4.563c-5.09 5.207-.234 5.543 2.766 12.865 1.682 4.102 2.744 9.197 3.892 1.855 1.429-9.174-4.074-15.488-6.658-14.72z" fill="#594640"/><path d="m13.916 2.568c-6.452 1.516-12.465 7.211-10.088 18.418 1.406 6.623 3.199-2.607 4.398-4.9 6.121-3.639 16.588-6.393 18.18-11.523.806-1.184-6.035-3.684-12.49-1.995z" fill="#594640"/><path d="m8.974 10.732c2.729-.553 15.779-.814 17.432-6.17-3.086 2.456-6.28 3.126-17.432 6.17z" fill="#453631"/><path d="m4.267 19.252c4.578-6.104 19.574-5.43 22.139-14.689-4.979 7.771-20.887 8.824-22.139 14.689z" fill="#453631"/><path d="m24.896 5.832c-1.182 1.859 2.922-.873 7.348 11.104-1.09-7.002-4.827-11.823-7.348-11.104z" fill="#453631"/><path d="m52.505 29.674c0-.723 0-3.932 0-3.932h-8.418v3.932c0 4.23 8.418 4.23 8.418 0z" fill="#e6b045"/><path d="m37.585 14.672c-3.584-.645-.785 9.361 2.018 6.602 1.3-1.282-.344-6.299-2.018-6.602z" fill="#e6b045"/><path d="m59.011 14.672c-1.676.303-3.32 5.32-2.018 6.602 2.805 2.759 5.598-7.247 2.018-6.602z" fill="#e6b045"/><path d="m48.298 2.941c-7.408 0-10.979 5.598-10.531 13.381.09 1.566 1.063 6.674 1.979 8.506.939 1.873 4.08 4.764 6.006 5.361 1.215.379 3.877.379 5.094 0 1.922-.598 5.066-3.488 6.002-5.361.92-1.832 1.891-6.939 1.98-8.506.446-7.783-3.124-13.381-10.53-13.381z" fill="#fc6"/><path d="m48.298 24.131c-1.668-.49-4.135.232-4.135.232.939 1.023 1.629 2.348 4.135 2.348 2.869 0 3.359-1.504 4.135-2.348 0 0-2.471-.724-4.135-.232z" fill="#e6a400"/><path d="m44.792 24.535c1.748 1.463 5.275 1.473 7.031 0-1.861.08-5.156.08-7.031 0z" fill="#fff"/><path d="m50.597 21.379c0 1.492-4.596 1.492-4.596 0 0-.342 4.596-.342 4.596 0z" fill="#e6b045"/><path d="m48.298 2.941c-5.096 0-8.176 1.68-9.504 1.035 0 0-.145.867.375 1.434 0 0-.547.475-1.434-.326-.845 2.738 1.662 4.326 10.563 4.326s6.773-2.166 11.15 1.637c-.427-4.688-3.41-8.106-11.15-8.106z" fill="#594640"/><path d="m52.065 7.025c-4.9 1.809-6.691-1.453-11.314-1.768 2.199 1.037 3.273 2.635 5.078 3.785-3.932-1.313-6.814-3.574-7.033-5.059 0 0-.656 2.168 1.938 3.789-2.48.229-2.996-2.682-2.996-2.682-1.258 2.016-1.084 8.514.311 13.338.232-1.723-.297-2.434.5-4.506 2.383-6.199.85-3.598 9.75-3.598s7.295-2.371 9.75 3.598c.732 1.777.266 2.783.5 4.506 2.927-10.875-1.284-13.319-6.484-11.403z" fill="#453631"/><path d="m56.228 16.926c-.99 2.588-5.018 2.207-5.754.395.56-2.909 5.211-3.157 5.754-.395z" fill="#fff"/><path d="m40.366 16.926c.99 2.588 5.016 2.207 5.754.395-.558-2.911-5.211-3.159-5.754-.395z" fill="#fff"/><path d="m56.64 13.809c-1.695-.84-4.936-.881-6.146-.295-.258.113-.086.908.133.834 1.684-.625 4.398-.639 5.973.053.21.087.296-.475.04-.592z" fill="#c1873c"/><path d="m39.956 13.809c1.691-.84 4.936-.881 6.143-.295.26.113.088.908-.129.834-1.686-.625-4.398-.639-5.975.053-.211.087-.295-.475-.039-.592z" fill="#c1873c"/><path d="m51.501 16.648c0 2.271 3.289 2.271 3.289 0 0-2.107-3.289-2.107-3.289 0z" fill="#613f34"/><path d="m51.825 17.375c0 1.305 2.641 1.305 2.641 0 0-1.209-2.641-1.209-2.641 0z" fill="#7d5037"/><path d="m52.462 16.686c0 .941 1.367.941 1.367 0 0-.877-1.367-.877-1.367 0z" fill="#1a1626"/><path d="m51.997 16.41c0 .475.689.475.689 0 .001-.443-.689-.443-.689 0z" fill="#ab968c"/><path d="m41.804 16.648c0 2.271 3.289 2.271 3.289 0 0-2.107-3.289-2.107-3.289 0z" fill="#613f34"/><path d="m42.13 17.375c0 1.301 2.639 1.301 2.639 0 0-1.209-2.639-1.209-2.639 0z" fill="#7d5037"/><path d="m42.767 16.686c0 .941 1.365.941 1.365 0 0-.877-1.365-.877-1.365 0z" fill="#1a1626"/><path d="m42.3 16.408c0 .477.689.477.689 0 0-.441-.689-.441-.689 0z" fill="#ab968c"/><path d="m56.228 16.904c0-2.779-5.754-2.779-5.754.441.822-2.64 4.931-2.64 5.754-.441z" fill="#e6b045"/><path d="m40.366 16.904c0-2.779 5.754-2.779 5.754.439-.822-2.64-4.933-2.64-5.754-.439z" fill="#e6b045"/><path d="m40.876 54.669c-.982-.688-5.299-2.493-5.299-2.493h-4.796s-4.318 1.81-5.307 2.494c-1.656 1.143-2.207 7.33-2.207 7.33h19.793s-.547-6.189-2.184-7.331z" fill="#e32b56"/><path d="m36.087 52.839c0-.538 0-2.925 0-2.925h-5.849v2.925c0 2.366 5.849 2.366 5.849 0z" fill="#e6b045"/><path d="m25.658 43.937c-7.076 4.172-.855 7.97-2.869 9.768 3.914 2.425 13.493-1.755 2.869-9.768z" fill="#594640"/><path d="m23.544 45.521c1.736 6.659 5.311 6.89 5.012 8.095 3.322-1.74 3.354-7.352-5.012-8.095z" fill="#453631"/><path d="m40.669 43.937c7.076 4.172.855 7.97 2.871 9.768-3.912 2.425-13.494-1.755-2.871-9.768z" fill="#594640"/><path d="m42.782 45.521c-1.734 6.659-5.311 6.89-5.01 8.095-3.322-1.74-3.355-7.352 5.01-8.095z" fill="#453631"/><path d="m23.486 43.769h19.347c2.816-15.123-22.164-15.123-19.347 0z" fill="#594640"/><path d="m23.46 43.582s11.015 4.105 18.652-.651c-1.543.291-4.051-5.605-15.775-6.047-.429 6.698-2.49 4.88-2.877 6.698z" fill="#453631"/><path d="m41.925 42.689c.822-11.314-18.359-11.314-17.535 0 .715-9.501 16.818-9.501 17.535 0z" fill="#cfd8dd"/><path d="m41.925 42.323c.822-11.313-18.359-11.313-17.535 0 .715-9.502 16.818-9.502 17.535 0z" fill="#fff"/><path d="m24.593 42.767c-3.336-.506-1.162 7.364 1.451 5.193 1.213-1.007.114-4.955-1.451-5.193z" fill="#e6b045"/><path d="m41.722 42.767c-1.561.238-2.66 4.187-1.451 5.193 2.615 2.169 4.787-5.699 1.451-5.193z" fill="#e6b045"/><path d="m41.612 42.785c-3.195-.91-7.289-5.256-15.07-4.729.137 1.708-.313 3.646-1.814 4.735 0 0-.006 1.535.543 4.345.895 4.602 4.617 6.407 7.886 6.407 3.273 0 6.994-1.806 7.891-6.407.547-2.812.564-4.351.564-4.351z" fill="#fc6"/><path d="m39.407 44.294c-.777 2.036-3.943 1.738-4.525.313.441-2.289 4.097-2.484 4.525-.313z" fill="#fff"/><path d="m35.69 44.078c0 1.786 2.586 1.786 2.586 0 0-1.658-2.586-1.658-2.586 0z" fill="#613f34"/><path d="m35.946 44.648c0 1.024 2.074 1.024 2.074 0 .001-.95-2.074-.95-2.074 0z" fill="#7d5037"/><path d="m36.444 44.105c0 .742 1.076.742 1.076 0 .001-.687-1.076-.687-1.076 0z" fill="#1a1626"/><path d="m36.081 43.889c0 .376.541.376.541 0 0-.348-.541-.348-.541 0z" fill="#ab968c"/><path d="m39.407 44.279c0-2.186-4.525-2.186-4.525.346.646-2.076 3.879-2.076 4.525-.346z" fill="#e6b045"/><path d="m26.935 44.294c.775 2.036 3.943 1.738 4.525.313-.439-2.291-4.095-2.486-4.525-.313z" fill="#fff"/><path d="m28.068 44.078c0 1.784 2.586 1.784 2.586 0 0-1.658-2.586-1.658-2.586 0z" fill="#613f34"/><path d="m28.324 44.648c0 1.022 2.072 1.022 2.072 0 0-.95-2.072-.95-2.072 0z" fill="#7d5037"/><path d="m28.822 44.105c0 .74 1.074.74 1.074 0 0-.687-1.074-.687-1.074 0z" fill="#1a1626"/><path d="m28.457 43.889c0 .374.543.374.543 0 0-.348-.543-.348-.543 0z" fill="#ab968c"/><path d="m26.935 44.279c0-2.186 4.525-2.186 4.525.346-.644-2.078-3.88-2.078-4.525-.346z" fill="#e6b045"/><path d="m39.825 42.063c-1.35-.672-3.938-.703-4.9-.236-.207.091-.07.726.105.666 1.34-.498 3.504-.509 4.764.043.166.07.236-.38.031-.473z" fill="#c1873c"/><path d="m26.515 42.063c1.354-.672 3.939-.703 4.904-.236.207.091.068.726-.104.666-1.344-.498-3.51-.509-4.768.043-.167.07-.235-.38-.032-.473z" fill="#c1873c"/><path d="m33.171 49.729c-1.328-.391-3.298.185-3.298.185.75.814 1.303 1.875 3.298 1.875 2.289 0 2.682-1.201 3.299-1.875 0 0-1.973-.577-3.299-.185z" fill="#e6a400"/><path d="m30.375 50.052c1.395 1.169 4.21 1.175 5.611 0-1.489.063-4.113.063-5.611 0z" fill="#fff"/><path d="m35.005 47.979c0 1.19-3.666 1.19-3.666 0 0-.273 3.666-.273 3.666 0z" fill="#e6b045"/><g fill="#fc6"><path d="m23.336 57.252c.843.424 2.689-2.339 1.822-2.713-7.489-3.228-8.343-4.729-12.667-6.762-1.697-.798-4.958 1.998-4.958 1.998 1.094 3.975 5.886 2.489 15.803 7.477z"/><path d="m26.862 53.404c1.666-.393 4.768 1.096 3.01 1.477.396.463.348 1.004-.982.637.512.459-.336.818-1.014.654.201 1.16-2.219.477-2.941.84-1.037.52-1.26.83-1.523.678-1.931-1.11.684-3.639 3.45-4.286z"/><path d="m42.99 57.252c-.843.424-2.689-2.339-1.822-2.713 7.489-3.228 8.343-4.729 12.667-6.762 1.697-.798 4.958 1.998 4.958 1.998-1.094 3.975-5.886 2.489-15.803 7.477z"/><path d="m39.465 53.404c-1.666-.393-4.768 1.096-3.01 1.477-.396.463-.348 1.004.982.637-.512.459.336.818 1.014.654-.201 1.16 2.219.477 2.941.84 1.037.52 1.26.83 1.523.678 1.931-1.11-.685-3.639-3.45-4.286z"/></g></svg>