<svg enable-background="new 0 0 64 64" height="64" viewBox="0 0 64 64" width="64" xmlns="http://www.w3.org/2000/svg"><path d="m11.52 33.446c-19.308 11.393-2.332 21.768-7.83 26.678 10.677 6.629 36.82-4.793 7.83-26.678z" fill="#efde8b"/><path d="m5.752 37.774c4.74 18.193 14.49 18.818 13.678 22.113 9.064-4.751 9.146-20.085-13.678-22.113z" fill="#ba9d52"/><path d="m52.48 33.446c19.307 11.393 2.334 21.768 7.832 26.678-10.679 6.629-36.822-4.793-7.832-26.678z" fill="#efde8b"/><path d="m58.248 37.774c-4.74 18.193-14.49 18.818-13.676 22.113-9.064-4.751-9.148-20.085 13.676-22.113z" fill="#ba9d52"/><path d="m5.59 32.983h52.791c7.682-41.31-60.474-41.31-52.791 0z" fill="#efde8b"/><path d="m5.527 32.474s30.047 11.219 50.881-1.781c-4.207.797-11.041-15.307-43.035-16.516-1.172 18.297-6.797 13.334-7.846 18.297z" fill="#ba9d52"/><path d="m55.904 30.038c2.24-30.908-50.086-30.908-47.846 0 1.952-25.959 45.895-25.959 47.846 0z" fill="#cfd8dd"/><path d="m55.904 29.038c2.24-30.908-50.086-30.908-47.846 0 1.952-25.959 45.895-25.959 47.846 0z" fill="#fff"/><path d="m8.619 30.251c-9.108-1.385-3.174 20.111 3.957 14.184 3.305-2.75.305-13.534-3.957-14.184z" fill="#d6a67a"/><path d="m55.352 30.251c-4.264.65-7.264 11.434-3.959 14.184 7.132 5.925 13.064-15.569 3.959-14.184z" fill="#d6a67a"/><path d="m55.055 30.294c-8.727-2.479-19.893-14.354-41.121-12.92.373 4.67-.855 9.961-4.949 12.938 0 0-.018 4.195 1.475 11.873 2.445 12.568 12.598 17.502 21.525 17.502s19.084-4.934 21.525-17.502c1.494-7.68 1.545-11.891 1.545-11.891z" fill="#e3c19b"/><path d="m49.035 34.421c-2.123 5.559-10.762 4.744-12.346.854 1.202-6.251 11.18-6.786 12.346-.854z" fill="#fff"/><path d="m38.893 33.829c0 4.879 7.059 4.879 7.059 0-.001-4.529-7.059-4.529-7.059 0z" fill="#613f34"/><path d="m39.592 35.39c0 2.797 5.66 2.797 5.66 0 0-2.598-5.66-2.598-5.66 0z" fill="#7d5037"/><path d="m40.957 33.905c0 2.025 2.93 2.025 2.93 0 0-1.879-2.93-1.879-2.93 0z" fill="#1a1626"/><path d="m39.957 33.313c0 1.023 1.479 1.023 1.479 0 0-.949-1.479-.949-1.479 0z" fill="#ab968c"/><path d="m49.035 34.38c0-5.971-12.346-5.971-12.346.945 1.764-5.674 10.582-5.674 12.346-.945z" fill="#d6a67a"/><path d="m15.002 34.421c2.123 5.559 10.766 4.744 12.348.854-1.202-6.253-11.176-6.788-12.348-.854z" fill="#fff"/><path d="m18.09 33.827c0 4.879 7.057 4.879 7.057 0-.001-4.527-7.057-4.527-7.057 0z" fill="#613f34"/><path d="m18.787 35.388c0 2.797 5.662 2.797 5.662 0 0-2.596-5.662-2.596-5.662 0z" fill="#7d5037"/><path d="m20.154 33.905c0 2.023 2.928 2.023 2.928 0 0-1.881-2.928-1.881-2.928 0z" fill="#1a1626"/><path d="m19.152 33.312c0 1.023 1.48 1.023 1.48 0 .001-.95-1.48-.95-1.48 0z" fill="#ab968c"/><path d="m15.002 34.38c0-5.971 12.348-5.971 12.348.943-1.762-5.676-10.584-5.676-12.348-.943z" fill="#d6a67a"/><g fill="#bf8c6b"><path d="m50.176 28.327c-3.688-1.83-10.744-1.92-13.373-.645-.563.248-.191 1.982.283 1.816 3.664-1.357 9.572-1.389 13.002.117.457.195.646-1.032.088-1.288z"/><path d="m13.863 28.327c3.688-1.83 10.742-1.92 13.373-.645.563.248.191 1.982-.281 1.816-3.67-1.357-9.572-1.389-13.004.117-.457.195-.644-1.032-.088-1.288z"/><path d="m32.02 49.267c-3.627-1.066-9 .506-9 .506 2.047 2.229 3.547 5.121 9 5.121 6.248 0 7.311-3.283 9-5.121 0-.001-5.377-1.579-9-.506z"/></g><path d="m24.393 50.149c3.801 3.189 11.48 3.209 15.301 0-4.051.174-11.221.176-15.301 0z" fill="#fff"/><path d="m37.02 44.487c0 3.254-10 3.254-10 0 0-.746 10-.746 10 0z" fill="#d6a67a"/></svg>