<svg enable-background="new 0 0 64 64" height="64" viewBox="0 0 64 64" width="64" xmlns="http://www.w3.org/2000/svg" xmlns:xlink="http://www.w3.org/1999/xlink"><radialGradient id="a" cx="32.0796" cy="4.8721" gradientTransform="matrix(1 0 0 1.1161 0 -.5655)" gradientUnits="userSpaceOnUse" r="15.0194"><stop offset=".4182" stop-color="#ff0071"/><stop offset=".6534" stop-color="#f6006b"/><stop offset="1" stop-color="#e0005d"/></radialGradient><path d="m32.001 6.52c-3.823-6.21-14.401-3.786-14.401 4.016 0 5.233 4.88 8.735 14.401 16.464 9.52-7.729 14.399-11.23 14.399-16.465-.001-7.801-10.577-10.226-14.399-4.015z" fill="url(#a)"/><path d="m34.953 42.489c-4.189-.754-.917 10.965 2.362 7.732 1.521-1.496-.403-7.376-2.362-7.732z" fill="#e6b045"/><path d="m60.021 42.489c-1.962.355-3.885 6.235-2.363 7.732 3.281 3.233 6.553-8.486 2.363-7.732z" fill="#e6b045"/><path d="m47.485 28.75c-8.664 0-12.841 6.558-12.317 15.673.104 1.833 1.241 7.818 2.314 9.963 1.099 2.195 4.773 5.582 7.025 6.282 1.422.441 4.537.441 5.958 0 2.251-.7 5.925-4.087 7.025-6.282 1.073-2.145 2.209-8.13 2.314-9.963.526-9.115-3.65-15.673-12.319-15.673z" fill="#fc6"/><path d="m47.485 53.569c-1.949-.575-4.836.271-4.836.271 1.1 1.197 1.905 2.753 4.836 2.753 3.36 0 3.93-1.767 4.838-2.753 0 .001-2.891-.848-4.838-.271z" fill="#e6a400"/><path d="m43.387 54.042c2.043 1.715 6.17 1.727 8.227 0-2.182.095-6.033.095-8.227 0z" fill="#fff"/><path d="m50.175 50.344c0 1.75-5.376 1.75-5.376 0 0-.4 5.376-.4 5.376 0z" fill="#e6b045"/><path d="m47.485 28.749c-5.961 0-9.563 1.969-11.117 1.212 0 0-.166 1.019.441 1.679 0 0-.644.557-1.68-.381-.989 3.207 1.943 5.066 12.355 5.066 10.415 0 7.927-2.537 13.047 1.918-.502-5.49-3.988-9.494-13.046-9.494z" fill="#594640"/><path d="m51.896 33.534c-5.731 2.117-7.83-1.701-13.234-2.07 2.57 1.214 3.826 3.085 5.938 4.435-4.599-1.541-7.973-4.188-8.229-5.926 0 0-.767 2.538 2.268 4.437-2.901.269-3.507-3.14-3.507-3.14-1.47 2.359-1.267 9.973.366 15.622.271-2.017-.35-2.851.582-5.28 2.789-7.259.996-4.21 11.408-4.21s8.534-2.781 11.406 4.21c.857 2.086.311 3.264.585 5.28 3.423-12.739-1.5-15.601-7.583-13.358z" fill="#453631"/><path d="m56.765 45.127c-1.155 3.032-5.868 2.589-6.731.467.654-3.407 6.094-3.7 6.731-.467z" fill="#fff"/><path d="m38.209 45.127c1.157 3.032 5.869 2.589 6.73.467-.654-3.41-6.094-3.7-6.73-.467z" fill="#fff"/><path d="m57.246 41.479c-1.983-.984-5.774-1.032-7.187-.346-.304.133-.104 1.064.149.976 1.971-.73 5.146-.747 6.99.064.245.103.348-.557.048-.694z" fill="#c1873c"/><path d="m37.728 41.479c1.981-.984 5.772-1.032 7.189-.346.302.133.103 1.064-.152.976-1.973-.73-5.146-.747-6.991.064-.243.103-.348-.557-.046-.694z" fill="#c1873c"/><path d="m51.234 44.805c0 2.662 3.849 2.662 3.849 0 0-2.468-3.849-2.468-3.849 0z" fill="#613f34"/><path d="m51.615 45.655c0 1.527 3.088 1.527 3.088 0 0-1.414-3.088-1.414-3.088 0z" fill="#7d5037"/><path d="m52.359 44.848c0 1.104 1.599 1.104 1.599 0 0-1.026-1.599-1.026-1.599 0z" fill="#1a1626"/><path d="m51.815 44.524c0 .559.807.559.807 0 0-.515-.807-.515-.807 0z" fill="#ab968c"/><path d="m39.891 44.803c0 2.661 3.848 2.661 3.848 0-.001-2.468-3.848-2.468-3.848 0z" fill="#613f34"/><path d="m40.272 45.655c0 1.524 3.086 1.524 3.086 0 0-1.418-3.086-1.418-3.086 0z" fill="#7d5037"/><path d="m41.015 44.846c0 1.104 1.599 1.104 1.599 0-.001-1.026-1.599-1.026-1.599 0z" fill="#1a1626"/><path d="m40.472 44.524c0 .557.807.557.807 0-.001-.517-.807-.517-.807 0z" fill="#ab968c"/><path d="m56.765 45.106c0-3.258-6.731-3.258-6.731.515.961-3.094 5.769-3.094 6.731-.515z" fill="#e6b045"/><path d="m38.209 45.106c0-3.258 6.73-3.258 6.73.515-.959-3.095-5.77-3.095-6.73-.515z" fill="#e6b045"/><path d="m25.553 60.999c0-8.5-15.001-8.699-15.001 0z" fill="#30231e"/><path d="m9.442 36.409c-5.855 25.126-5.318 24.59 7.004 24.59-6.819-4.771 6.243-24.931-7.004-24.59z" fill="#3b2c29"/><path d="m7.329 36.021c-4.271 19.091-.585 23.994 2.688 24.979h3.751c-8.776-6.185 4.942-25.354-6.439-24.979z" fill="#453631"/><path d="m26.665 36.409c5.854 25.126 5.317 24.588-7.005 24.588 6.271-3.829-6.246-24.931 7.005-24.588z" fill="#3b2c29"/><path d="m28.775 36.019c6.244 17.369-.014 24.174-2.688 24.979h-3.747c8.775-5.678-4.943-25.353 6.435-24.979z" fill="#453631"/><path d="m18.126 30.37c-7.802 0-11.559 6.354-11.089 14.521.096 1.643.553 4.01 1.117 6.039 1.17 4.218 7.343 8.466 9.972 8.466 2.628 0 8.801-4.248 9.972-8.466.563-2.029 1.019-4.396 1.116-6.039.468-8.166-3.288-14.521-11.088-14.521z" fill="#fc6"/><path d="m26.551 45.114c-1.042 2.729-5.282 2.326-6.059.418.591-3.068 5.487-3.329 6.059-.418z" fill="#fff"/><path d="m9.699 45.114c1.043 2.729 5.283 2.328 6.06.418-.589-3.068-5.485-3.329-6.06-.418z" fill="#fff"/><path d="m18.126 52.658c-1.897-.833-1.912-.033-4.839.165 1.101 1.246 1.908 2.851 4.838 2.851 3.361 0 3.929-1.822 4.839-2.851-2.929-.198-2.943-.998-4.838-.165z" fill="#d47706"/><path d="m14.165 53.134c1.912 1.989 6.032 1.961 7.919 0-2.941.315-4.975.315-7.919 0z" fill="#fff"/><path d="m26.722 41.925c-1.757-1.048-4.912-1.176-6.158-.463-.264.145-.192.902.035.807 1.779-.74 4.49-.778 6.16.078.223.113.229-.271-.037-.422z" fill="#594640"/><path d="m9.529 41.925c1.757-1.048 4.909-1.176 6.158-.463.264.145.194.902-.035.807-1.781-.74-4.488-.778-6.158.078-.226.113-.23-.271.035-.422z" fill="#594640"/><path d="m20.544 49.81c0 1.572-4.837 1.572-4.837 0 0-.362 4.837-.362 4.837 0z" fill="#e6b045"/><path d="m26.842 31.507c-5.471 5.604-.249 5.967 2.972 13.846 1.808 4.414.02 13.478-3.727 15.646 4.151 0 6.679-5.744 7.911-13.646 1.541-9.874-4.377-16.671-7.156-15.846z" fill="#594640"/><path d="m13.414 29.361c-6.935 1.631-13.401 7.761-10.843 19.822 1.511 7.134 3.371 11.816 7.445 11.816-4.541-4.703-4.006-14.621-2.715-17.089 6.579-3.914 17.83-6.881 19.541-12.403.867-1.276-6.486-3.964-13.428-2.146z" fill="#594640"/><g fill="#453631"><path d="m8.101 38.147c2.934-.594 16.967-.875 18.741-6.641-3.319 2.644-6.751 3.365-18.741 6.641z"/><path d="m3.044 47.317c4.921-6.567 21.04-5.842 23.798-15.811-5.354 8.368-22.453 9.499-23.798 15.811z"/><path d="m25.219 32.873c-1.27 2.001 3.144-.938 7.898 11.948-1.171-7.533-5.189-12.72-7.898-11.948z"/></g><path d="m21.556 44.817c0 2.415 3.493 2.415 3.493 0 0-2.243-3.493-2.243-3.493 0z" fill="#613f34"/><path d="m21.902 45.591c0 1.384 2.802 1.384 2.802 0 0-1.286-2.802-1.286-2.802 0z" fill="#7d5037"/><path d="m22.578 44.856c0 1.001 1.451 1.001 1.451 0 0-.932-1.451-.932-1.451 0z" fill="#1a1626"/><path d="m22.083 44.563c0 .506.732.506.732 0 0-.47-.732-.47-.732 0z" fill="#ab968c"/><path d="m11.201 44.82c0 2.416 3.495 2.416 3.495 0 0-2.243-3.495-2.243-3.495 0z" fill="#613f34"/><path d="m11.547 45.594c0 1.386 2.803 1.386 2.803 0 0-1.286-2.803-1.286-2.803 0z" fill="#7d5037"/><path d="m12.224 44.858c0 1.003 1.451 1.003 1.451 0 0-.93-1.451-.93-1.451 0z" fill="#1a1626"/><path d="m11.728 44.566c0 .507.731.507.731 0 0-.469-.731-.469-.731 0z" fill="#ab968c"/><path d="m26.551 45.094c0-2.932-6.059-2.932-6.059.465.865-2.788 5.196-2.788 6.059-.465z" fill="#45332c"/><path d="m9.699 45.094c0-2.932 6.06-2.932 6.06.462-.865-2.785-5.195-2.785-6.06-.462z" fill="#45332c"/></svg>