<svg enable-background="new 0 0 64 64" height="64" viewBox="0 0 64 64" width="64" xmlns="http://www.w3.org/2000/svg"><path d="m5.522 32.739c7.697-5.117 15.262-5.117 22.957 0 2.443 1.622 2.947 7.739 3.256 13.036h-4.34v16.225h-20.789v-16.225h-4.338c.306-5.296.812-11.414 3.254-13.036z" fill="#92c932"/><path d="m26.611 46.075h1.407l-1.407-7.598z" fill="#7ab51d"/><path d="m26.611 62h4.024l1.1-16.225s-2.563-.658-5.123 0v16.225z" fill="#fc6"/><path d="m12.791 29.674c0-.722 0-3.931 0-3.931h8.418v3.931c0 4.231-8.418 4.231-8.418 0z" fill="#e6b045"/><path d="m58.477 32.739c-7.695-5.117-15.26-5.117-22.957 0-2.441 1.622-2.947 7.739-3.254 13.036h4.338v16.225h20.789v-16.225h4.34c-.309-5.296-.813-11.414-3.256-13.036z" fill="#92c932"/><path d="m54.609 50.075 2-4.3v-7.298z" fill="#7ab51d"/><path d="m9.391 50.06-2-4.285v-7.314z" fill="#7ab51d"/><path d="m37.389 46.075h-1.409l1.409-7.598z" fill="#7ab51d"/><path d="m37.389 62h-4.025l-1.098-16.225s2.561-.658 5.123 0z" fill="#fc6"/><path d="m51.207 29.674c0-.722 0-3.931 0-3.931h-8.418v3.931c0 4.231 8.418 4.231 8.418 0z" fill="#e6b045"/><path d="m50.359 55.188c-4.816-3.131-10.578-3.101-15.402.001-1.656 1.062-2.205 6.811-2.205 6.811h19.793s-.547-5.752-2.186-6.812z" fill="#4abdff"/><path d="m45.572 53.426c0-.538 0-2.925 0-2.925h-5.85v2.925c.001 2.366 5.85 2.366 5.85 0z" fill="#e6b045"/><path d="m42.646 31.984c-10.516 0-9.502 8.421-9.502 12.356h19.006c0-3.935 1.014-12.356-9.504-12.356z" fill="#594640"/><path d="m34.084 42.76c-3.34-.511-1.162 7.4 1.451 5.218 1.207-1.01.11-4.98-1.451-5.218z" fill="#e6b045"/><path d="m51.211 42.76c-1.563.238-2.662 4.208-1.451 5.218 2.613 2.182 4.789-5.729 1.451-5.218z" fill="#e6b045"/><path d="m51.102 42.592c0-5.614-3.32-4.364-8.455-4.364-5.133 0-8.453-1.25-8.453 4.364 0 0 .016 2.141.564 4.95.896 4.602 4.617 6.407 7.889 6.407s6.996-1.806 7.889-6.407c.546-2.812.566-4.95.566-4.95z" fill="#fc6"/><path d="m42.473 36.119c-1.535 2.734-7.289 4.446-9.268 4.268 1.793-1.807 2.586-6.465 9.268-4.268z" fill="#594640"/><path d="m33.205 40.387c2.52-.656 5.791-1.996 9.268-4.268-1.535 2.735-6.588 4.894-9.268 4.268z" fill="#453631"/><path d="m50.234 35.973c-2.174 3.257-10.313 5.294-13.107 5.082 2.531-2.155 3.656-7.7 13.107-5.082z" fill="#594640"/><path d="m37.127 41.055c6.686-1.857 13.107-5.082 13.107-5.082-2.173 3.256-8.23 5.553-13.107 5.082z" fill="#453631"/><path d="m50.549 35.224c2.605 4.239-4.176 5.977-6.979 5.806 2.514-1.655 4.2-5.939 6.979-5.806z" fill="#594640"/><path d="m43.57 41.029c3.369-1.544 8.506-1.859 6.979-5.806 2.605 4.24-4.006 6.189-6.979 5.806z" fill="#453631"/><path d="m48.883 44.334c-.777 2.035-3.943 1.737-4.523.313.439-2.288 4.097-2.484 4.523-.313z" fill="#fff"/><path d="m45.166 44.117c0 1.786 2.588 1.786 2.588 0 0-1.658-2.588-1.658-2.588 0z" fill="#613f34"/><path d="m45.422 44.689c0 1.024 2.076 1.024 2.076 0 0-.95-2.076-.95-2.076 0z" fill="#7d5037"/><path d="m45.922 44.147c0 .739 1.074.739 1.074 0 0-.688-1.074-.688-1.074 0z" fill="#1a1626"/><path d="m45.557 43.931c0 .373.543.373.543 0 0-.347-.543-.347-.543 0z" fill="#ab968c"/><path d="m48.883 44.318c0-2.184-4.523-2.184-4.523.348.646-2.078 3.878-2.078 4.523-.348z" fill="#e6b045"/><path d="m36.412 44.334c.775 2.035 3.943 1.737 4.523.313-.441-2.289-4.093-2.484-4.523-.313z" fill="#fff"/><path d="m37.543 44.117c0 1.786 2.586 1.786 2.586 0 0-1.658-2.586-1.658-2.586 0z" fill="#613f34"/><path d="m37.799 44.688c0 1.026 2.074 1.026 2.074 0 0-.949-2.074-.949-2.074 0z" fill="#7d5037"/><path d="m38.299 44.146c0 .741 1.074.741 1.074 0 0-.689-1.074-.689-1.074 0z" fill="#1a1626"/><path d="m37.932 43.929c0 .375.541.375.541 0 0-.348-.541-.348-.541 0z" fill="#ab968c"/><path d="m36.412 44.318c0-2.184 4.523-2.184 4.523.346-.646-2.076-3.878-2.076-4.523-.346z" fill="#e6b045"/><path d="m49.301 42.103c-1.352-.668-3.938-.701-4.902-.234-.203.091-.068.727.105.664 1.344-.496 3.508-.509 4.766.043.166.071.238-.378.031-.473z" fill="#c1873c"/><path d="m35.992 42.103c1.354-.668 3.939-.701 4.904-.234.203.091.066.727-.104.664-1.346-.496-3.51-.509-4.768.043-.165.071-.237-.378-.032-.473z" fill="#c1873c"/><path d="m42.646 49.77c-1.328-.391-3.299.185-3.299.185.754.817 1.301 1.874 3.299 1.874 2.291 0 2.68-1.201 3.299-1.874 0-.001-1.97-.579-3.299-.185z" fill="#e6a400"/><path d="m39.854 50.093c1.393 1.167 4.207 1.175 5.605 0-1.484.062-4.109.064-5.605 0z" fill="#fff"/><path d="m44.479 48.021c0 1.19-3.662 1.19-3.662 0-.001-.274 3.662-.274 3.662 0z" fill="#e6b045"/><path d="m29.207 54.669c-.982-.688-5.299-2.493-5.299-2.493h-4.797s-4.318 1.81-5.307 2.494c-1.656 1.143-2.206 7.33-2.206 7.33h19.793s-.547-6.189-2.184-7.331z" fill="#e32b56"/><path d="m24.418 52.839c0-.538 0-2.925 0-2.925h-5.85v2.925c0 2.366 5.85 2.366 5.85 0z" fill="#e6b045"/><path d="m13.988 43.937c-7.076 4.172-.856 7.97-2.869 9.768 3.914 2.425 13.494-1.755 2.869-9.768z" fill="#594640"/><path d="m11.875 45.521c1.736 6.659 5.311 6.89 5.012 8.095 3.322-1.74 3.353-7.352-5.012-8.095z" fill="#453631"/><path d="m29 43.937c7.076 4.172.855 7.97 2.871 9.768-3.912 2.425-13.494-1.755-2.871-9.768z" fill="#594640"/><path d="m31.113 45.521c-1.734 6.659-5.311 6.89-5.01 8.095-3.322-1.74-3.355-7.352 5.01-8.095z" fill="#453631"/><path d="m11.816 43.769h19.348c2.816-15.123-22.164-15.123-19.348 0z" fill="#594640"/><path d="m11.791 43.582s11.016 4.105 18.652-.651c-1.543.291-4.051-5.605-15.775-6.047-.43 6.698-2.49 4.88-2.877 6.698z" fill="#453631"/><path d="m30.256 42.689c.822-11.314-18.359-11.314-17.535 0 .715-9.501 16.818-9.501 17.535 0z" fill="#cfd8dd"/><path d="m30.256 42.323c.822-11.313-18.359-11.313-17.535 0 .715-9.502 16.818-9.502 17.535 0z" fill="#fff"/><path d="m12.924 42.767c-3.336-.506-1.162 7.364 1.451 5.193 1.213-1.007.113-4.955-1.451-5.193z" fill="#e6b045"/><path d="m30.053 42.767c-1.56.238-2.66 4.186-1.451 5.193 2.615 2.169 4.787-5.699 1.451-5.193z" fill="#e6b045"/><path d="m29.943 42.785c-3.195-.91-7.289-5.256-15.07-4.729.137 1.708-.313 3.646-1.814 4.735 0 0-.006 1.535.543 4.345.895 4.602 4.617 6.407 7.887 6.407 3.273 0 6.994-1.806 7.891-6.407.546-2.812.563-4.351.563-4.351z" fill="#fc6"/><path d="m27.738 44.294c-.777 2.036-3.943 1.738-4.525.313.441-2.289 4.098-2.484 4.525-.313z" fill="#fff"/><path d="m24.021 44.078c0 1.786 2.586 1.786 2.586 0 0-1.658-2.586-1.658-2.586 0z" fill="#613f34"/><path d="m24.277 44.648c0 1.025 2.074 1.025 2.074 0 .001-.95-2.074-.95-2.074 0z" fill="#7d5037"/><path d="m24.775 44.105c0 .742 1.076.742 1.076 0 .001-.687-1.076-.687-1.076 0z" fill="#1a1626"/><path d="m24.412 43.889c0 .376.541.376.541 0 0-.348-.541-.348-.541 0z" fill="#ab968c"/><path d="m27.738 44.279c0-2.186-4.525-2.186-4.525.346.646-2.076 3.879-2.076 4.525-.346z" fill="#e6b045"/><path d="m15.266 44.294c.775 2.036 3.943 1.738 4.525.313-.439-2.291-4.096-2.486-4.525-.313z" fill="#fff"/><path d="m16.398 44.078c0 1.784 2.586 1.784 2.586 0 0-1.658-2.586-1.658-2.586 0z" fill="#613f34"/><path d="m16.654 44.648c0 1.022 2.072 1.022 2.072 0 .001-.95-2.072-.95-2.072 0z" fill="#7d5037"/><path d="m17.152 44.105c0 .74 1.074.74 1.074 0 .001-.687-1.074-.687-1.074 0z" fill="#1a1626"/><path d="m16.787 43.889c0 .374.543.374.543 0 0-.348-.543-.348-.543 0z" fill="#ab968c"/><path d="m15.266 44.279c0-2.186 4.525-2.186 4.525.346-.645-2.078-3.881-2.078-4.525-.346z" fill="#e6b045"/><path d="m28.156 42.063c-1.35-.672-3.938-.703-4.9-.236-.207.091-.07.725.105.666 1.34-.498 3.504-.509 4.764.043.166.07.236-.38.031-.473z" fill="#c1873c"/><path d="m14.846 42.063c1.353-.672 3.939-.703 4.904-.236.207.091.068.725-.104.666-1.344-.498-3.51-.509-4.768.043-.167.07-.235-.38-.032-.473z" fill="#c1873c"/><path d="m21.502 49.729c-1.328-.391-3.299.185-3.299.185.75.814 1.303 1.875 3.299 1.875 2.289 0 2.682-1.201 3.299-1.875 0 0-1.973-.577-3.299-.185z" fill="#e6a400"/><path d="m18.705 50.052c1.395 1.169 4.211 1.175 5.611 0-1.488.063-4.113.063-5.611 0z" fill="#fff"/><path d="m23.336 47.979c0 1.19-3.666 1.19-3.666 0 0-.273 3.666-.273 3.666 0z" fill="#e6b045"/><g fill="#fc6"><path d="m12.102 57.492c.805.491 2.559-2.121 1.822-2.712-4.498-3.604-6.533-9.005-6.533-9.005-2.283-.691-5.123 0-5.123 0 .291 5.367 5.914 9.326 9.834 11.717z"/><path d="m15.627 53.645c1.666-.392 4.768 1.096 3.01 1.478.395.462.348 1.003-.982.637.51.458-.338.817-1.016.654.201 1.159-2.217.477-2.941.84-1.035.52-1.258.829-1.523.677-1.931-1.11.686-3.64 3.452-4.286z"/><path d="m51.898 57.492c-.807.491-2.558-2.121-1.822-2.712 4.496-3.604 6.533-9.005 6.533-9.005 2.283-.691 5.123 0 5.123 0-.291 5.367-5.914 9.326-9.834 11.717z"/><path d="m48.373 53.645c-1.666-.392-4.768 1.096-3.01 1.478-.396.462-.348 1.003.982.637-.512.458.336.817 1.014.654-.201 1.159 2.219.477 2.941.84 1.037.52 1.26.829 1.523.677 1.931-1.11-.684-3.64-3.45-4.286z"/></g><path d="m36.289 14.673c-3.586-.646-.785 9.36 2.017 6.6 1.301-1.28-.343-6.297-2.017-6.6z" fill="#e6b045"/><path d="m57.715 14.673c-1.676.303-3.32 5.32-2.02 6.6 2.805 2.76 5.6-7.246 2.02-6.6z" fill="#e6b045"/><path d="m47 2.941c-7.408 0-10.977 5.599-10.529 13.381.09 1.567 1.061 6.675 1.979 8.506.939 1.873 4.08 4.764 6.004 5.362 1.215.379 3.877.379 5.094 0 1.924-.599 5.066-3.489 6.004-5.362.92-1.831 1.889-6.938 1.979-8.506.448-7.782-3.123-13.381-10.531-13.381z" fill="#fc6"/><path d="m47 24.132c-1.666-.491-4.135.232-4.135.232.939 1.024 1.629 2.349 4.135 2.349 2.871 0 3.359-1.505 4.137-2.349 0-.001-2.471-.725-4.137-.232z" fill="#e6a400"/><path d="m43.496 24.535c1.746 1.464 5.275 1.474 7.031 0-1.861.08-5.156.08-7.031 0z" fill="#fff"/><path d="m49.299 21.379c0 1.493-4.596 1.493-4.596 0 0-.342 4.596-.342 4.596 0z" fill="#e6b045"/><path d="m47 2.941c-5.096 0-8.176 1.681-9.504 1.035 0 0-.143.868.377 1.434 0 0-.549.474-1.436-.327-.843 2.74 1.663 4.328 10.563 4.328 8.902 0 6.773-2.166 11.152 1.636-.429-4.687-3.412-8.106-11.152-8.106z" fill="#594640"/><path d="m50.77 7.026c-4.9 1.808-6.691-1.453-11.316-1.769 2.201 1.038 3.274 2.636 5.078 3.786-3.93-1.313-6.813-3.574-7.033-5.059 0 0-.654 2.167 1.938 3.788-2.479.23-2.996-2.681-2.996-2.681-1.256 2.015-1.084 8.514.313 13.338.23-1.723-.297-2.434.5-4.507 2.383-6.199.85-3.597 9.748-3.597 8.902 0 7.295-2.372 9.752 3.597.73 1.777.266 2.784.498 4.507 2.926-10.875-1.283-13.319-6.482-11.403z" fill="#453631"/><path d="m54.932 16.926c-.99 2.588-5.017 2.207-5.754.396.558-2.909 5.209-3.158 5.754-.396z" fill="#fff"/><path d="m39.068 16.926c.99 2.588 5.017 2.207 5.754.396-.558-2.912-5.209-3.159-5.754-.396z" fill="#fff"/><path d="m55.342 13.809c-1.693-.84-4.936-.881-6.145-.294-.258.112-.088.908.131.833 1.684-.624 4.399-.638 5.975.054.211.087.297-.475.039-.593z" fill="#c1873c"/><path d="m38.658 13.809c1.693-.84 4.936-.881 6.145-.294.26.112.088.908-.129.833-1.688-.624-4.398-.638-5.977.054-.209.087-.295-.475-.039-.593z" fill="#c1873c"/><path d="m50.205 16.648c0 2.273 3.289 2.273 3.289 0 0-2.107-3.289-2.107-3.289 0z" fill="#613f34"/><path d="m50.529 17.376c0 1.304 2.639 1.304 2.639 0 0-1.21-2.639-1.21-2.639 0z" fill="#7d5037"/><path d="m51.166 16.686c0 .942 1.365.942 1.365 0 0-.876-1.365-.876-1.365 0z" fill="#1a1626"/><path d="m50.699 16.41c0 .475.689.475.689 0 .001-.442-.689-.442-.689 0z" fill="#ab968c"/><path d="m40.508 16.648c0 2.273 3.289 2.273 3.289 0 0-2.107-3.289-2.107-3.289 0z" fill="#613f34"/><path d="m40.832 17.376c0 1.3 2.641 1.3 2.641 0 0-1.21-2.641-1.21-2.641 0z" fill="#7d5037"/><path d="m41.471 16.686c0 .942 1.363.942 1.363 0 0-.877-1.363-.877-1.363 0z" fill="#1a1626"/><path d="m41.004 16.409c0 .476.688.476.688 0-.001-.442-.688-.442-.688 0z" fill="#ab968c"/><path d="m54.932 16.904c0-2.778-5.754-2.778-5.754.441.82-2.64 4.931-2.64 5.754-.441z" fill="#e6b045"/><path d="m39.068 16.904c0-2.778 5.754-2.778 5.754.44-.82-2.64-4.931-2.64-5.754-.44z" fill="#e6b045"/><path d="m6.289 14.673c-3.586-.646-.785 9.36 2.017 6.6 1.301-1.28-.343-6.297-2.017-6.6z" fill="#e6b045"/><path d="m27.715 14.673c-1.676.303-3.32 5.32-2.02 6.6 2.805 2.76 5.6-7.246 2.02-6.6z" fill="#e6b045"/><path d="m17 2.941c-7.408 0-10.977 5.599-10.529 13.381.09 1.567 1.061 6.675 1.978 8.506.939 1.873 4.08 4.764 6.004 5.362 1.215.379 3.877.379 5.094 0 1.924-.599 5.066-3.489 6.004-5.362.92-1.831 1.889-6.938 1.979-8.506.449-7.782-3.122-13.381-10.53-13.381z" fill="#fc6"/><path d="m17 24.132c-1.666-.491-4.135.232-4.135.232.939 1.024 1.629 2.349 4.135 2.349 2.871 0 3.359-1.505 4.137-2.349 0-.001-2.471-.725-4.137-.232z" fill="#e6a400"/><path d="m13.496 24.535c1.746 1.464 5.275 1.474 7.031 0-1.861.08-5.156.08-7.031 0z" fill="#fff"/><path d="m19.299 21.379c0 1.493-4.596 1.493-4.596 0 0-.342 4.596-.342 4.596 0z" fill="#e6b045"/><path d="m17 2.941c-5.096 0-8.176 1.681-9.504 1.035 0 0-.143.868.377 1.434 0 0-.549.474-1.436-.327-.843 2.74 1.663 4.328 10.563 4.328 8.902 0 6.773-2.166 11.152 1.636-.429-4.687-3.412-8.106-11.152-8.106z" fill="#594640"/><path d="m20.77 7.026c-4.9 1.808-6.691-1.453-11.316-1.769 2.201 1.038 3.273 2.636 5.078 3.786-3.93-1.313-6.812-3.574-7.033-5.059 0 0-.654 2.167 1.938 3.788-2.479.23-2.996-2.681-2.996-2.681-1.256 2.015-1.084 8.514.313 13.338.23-1.723-.297-2.434.5-4.507 2.383-6.199.85-3.597 9.748-3.597 8.902 0 7.295-2.372 9.752 3.597.73 1.777.266 2.784.498 4.507 2.926-10.875-1.283-13.319-6.482-11.403z" fill="#453631"/><path d="m24.932 16.926c-.99 2.588-5.017 2.207-5.754.396.558-2.909 5.209-3.158 5.754-.396z" fill="#fff"/><path d="m9.068 16.926c.99 2.588 5.017 2.207 5.754.396-.558-2.912-5.209-3.159-5.754-.396z" fill="#fff"/><path d="m25.342 13.809c-1.693-.84-4.936-.881-6.145-.294-.258.112-.088.908.131.833 1.684-.624 4.399-.638 5.975.054.211.087.297-.475.039-.593z" fill="#c1873c"/><path d="m8.658 13.809c1.693-.84 4.936-.881 6.144-.294.26.112.088.908-.129.833-1.688-.624-4.398-.638-5.977.054-.208.087-.294-.475-.038-.593z" fill="#c1873c"/><path d="m20.205 16.648c0 2.273 3.289 2.273 3.289 0 0-2.107-3.289-2.107-3.289 0z" fill="#613f34"/><path d="m20.529 17.376c0 1.304 2.639 1.304 2.639 0 0-1.21-2.639-1.21-2.639 0z" fill="#7d5037"/><path d="m21.166 16.686c0 .942 1.365.942 1.365 0 0-.876-1.365-.876-1.365 0z" fill="#1a1626"/><path d="m20.699 16.41c0 .475.69.475.69 0 0-.442-.69-.442-.69 0z" fill="#ab968c"/><path d="m10.508 16.648c0 2.273 3.289 2.273 3.289 0 0-2.107-3.289-2.107-3.289 0z" fill="#613f34"/><path d="m10.832 17.376c0 1.3 2.641 1.3 2.641 0 0-1.21-2.641-1.21-2.641 0z" fill="#7d5037"/><path d="m11.471 16.686c0 .942 1.363.942 1.363 0 0-.877-1.363-.877-1.363 0z" fill="#1a1626"/><path d="m11.004 16.409c0 .476.688.476.688 0-.001-.442-.688-.442-.688 0z" fill="#ab968c"/><path d="m24.932 16.904c0-2.778-5.754-2.778-5.754.441.82-2.64 4.931-2.64 5.754-.441z" fill="#e6b045"/><path d="m9.068 16.904c0-2.778 5.754-2.778 5.754.44-.82-2.64-4.931-2.64-5.754-.44z" fill="#e6b045"/></svg>