<svg enable-background="new 0 0 64 64" height="64" viewBox="0 0 64 64" width="64" xmlns="http://www.w3.org/2000/svg"><path d="m8.682 27.565c-7.797-1.406-1.707 20.396 4.396 14.383 2.829-2.787-.749-13.722-4.396-14.383z" fill="#d6a67a"/><path d="m55.319 27.565c-3.648.66-7.227 11.596-4.396 14.383 6.105 6.014 12.189-15.789 4.396-14.383z" fill="#d6a67a"/><path d="m32 3.001c-16.124 0-23.892 11.199-22.918 28.159.195 3.413 2.309 14.544 4.307 18.536 2.044 4.084 8.879 10.383 13.068 11.687 2.646.823 8.44.823 11.084 0 4.189-1.304 11.026-7.603 13.07-11.687 1.999-3.992 4.112-15.123 4.307-18.536.975-16.96-6.793-28.159-22.918-28.159z" fill="#e3c19b"/><path d="m32 48.175c-3.628-1.066-9 .506-9 .506 2.047 2.229 3.547 5.121 9 5.121 6.249 0 7.31-3.283 9-5.121-.001 0-5.378-1.578-9-.506z" fill="#bf8c6b"/><path d="m24.373 49.058c3.8 3.19 11.48 3.21 15.301 0-4.052.173-11.221.175-15.301 0z" fill="#fff"/><path d="m37 42.179c0 3.254-10 3.254-10 0 0-.746 10-.746 10 0z" fill="#d6a67a"/><path d="m32 2c-11.092 0-17.794 3.664-20.684 2.257 0 0-.314 1.893.818 3.124 0 0-1.195 1.033-3.125-.71-1.838 5.967 3.617 9.426 22.99 9.426 19.374 0 14.745-4.719 24.269 3.567-.933-10.212-7.422-17.664-24.268-17.664z" fill="#e6ebef"/><path d="m40.203 10.903c-10.667 3.938-14.567-3.166-24.627-3.852 4.785 2.26 7.122 5.738 11.052 8.249-8.554-2.865-14.832-7.79-15.308-11.025 0 0-1.428 4.724 4.217 8.255-5.396.5-6.523-5.842-6.523-5.842-2.734 4.392-2.356 18.554.681 29.063.506-3.75-.648-5.301 1.086-9.819 5.188-13.507 1.85-7.835 21.221-7.835 19.373 0 15.875-5.172 21.221 7.835 1.594 3.877.579 6.069 1.088 9.819 6.369-23.695-2.791-29.023-14.108-24.848z" fill="#b3c2c6"/><path d="m49.261 32.472c-2.153 5.641-10.918 4.814-12.524.867 1.218-6.34 11.341-6.883 12.524-.867z" fill="#fff"/><path d="m14.736 32.472c2.154 5.641 10.922 4.814 12.525.867-1.219-6.344-11.339-6.885-12.525-.867z" fill="#fff"/><path d="m50.156 25.685c-3.688-1.83-10.744-1.92-13.373-.645-.563.248-.191 1.982.283 1.816 3.664-1.357 9.572-1.389 13.002.117.456.194.647-1.033.088-1.288z" fill="#99a8ae"/><path d="m13.843 25.685c3.688-1.83 10.742-1.92 13.373-.645.563.248.191 1.982-.281 1.816-3.67-1.357-9.573-1.389-13.005.117-.456.194-.644-1.033-.087-1.288z" fill="#99a8ae"/><path d="m38.973 31.872c0 4.949 7.159 4.949 7.159 0 0-4.594-7.159-4.594-7.159 0z" fill="#613f34"/><path d="m39.681 33.456c0 2.838 5.743 2.838 5.743 0 0-2.635-5.743-2.635-5.743 0z" fill="#7d5037"/><path d="m41.066 31.95c0 2.055 2.972 2.055 2.972 0 0-1.906-2.972-1.906-2.972 0z" fill="#1a1626"/><path d="m40.053 31.351c0 1.037 1.5 1.037 1.5 0 0-.963-1.5-.963-1.5 0z" fill="#ab968c"/><path d="m17.868 31.87c0 4.949 7.159 4.949 7.159 0 0-4.594-7.159-4.594-7.159 0z" fill="#613f34"/><path d="m18.576 33.454c0 2.838 5.743 2.838 5.743 0 0-2.635-5.743-2.635-5.743 0z" fill="#7d5037"/><path d="m19.961 31.948c0 2.055 2.972 2.055 2.972 0 0-1.906-2.972-1.906-2.972 0z" fill="#1a1626"/><path d="m18.947 31.349c0 1.037 1.5 1.037 1.5 0 0-.963-1.5-.963-1.5 0z" fill="#ab968c"/><g fill="#d6a67a"><path d="m49.261 32.431c0-6.057-12.524-6.057-12.524.959 1.788-5.756 10.736-5.756 12.524-.959z"/><path d="m14.736 32.431c0-6.057 12.525-6.057 12.525.957-1.787-5.758-10.736-5.758-12.525-.957z"/></g></svg>