<svg enable-background="new 0 0 64 64" height="64" viewBox="0 0 64 64" width="64" xmlns="http://www.w3.org/2000/svg"><path d="m45.818 61.998c0-15.812-27.908-16.185-27.908 0z" fill="#ad5622"/><path d="m15.846 16.253c-10.893 46.746-9.895 45.745 13.031 45.745-12.688-8.876 11.615-46.381-13.031-45.745z" fill="#c75d00"/><path d="m11.916 15.529c-7.947 35.516-1.09 44.636 4.998 46.469h6.979c-16.327-11.503 9.193-47.168-11.977-46.469z" fill="#eb7700"/><path d="m47.887 16.251c10.891 46.746 9.893 45.745-13.031 45.745 11.665-7.123-11.62-46.381 13.031-45.745z" fill="#c75d00"/><path d="m51.813 15.527c11.619 32.312-.025 44.973-4.998 46.469h-6.975c16.326-10.562-9.194-47.168 11.973-46.469z" fill="#eb7700"/><path d="m32 5.019c-14.512 0-21.502 11.818-20.629 27.014.18 3.055 1.029 7.461 2.078 11.236 2.176 7.848 13.66 15.75 18.551 15.75 4.889 0 16.373-7.902 18.551-15.75 1.049-3.775 1.898-8.182 2.078-11.236.871-15.196-6.115-27.014-20.629-27.014z" fill="#fcd5b2"/><path d="m47.676 32.446c-1.939 5.074-9.826 4.33-11.27.779 1.096-5.706 10.203-6.195 11.27-.779z" fill="#fff"/><path d="m16.324 32.446c1.939 5.074 9.828 4.332 11.273.779-1.095-5.706-10.204-6.195-11.273-.779z" fill="#fff"/><path d="m32 46.483c-3.527-1.551-3.555-.063-9 .303 2.045 2.32 3.549 5.305 8.998 5.305 6.254 0 7.311-3.389 9.004-5.305-5.449-.365-5.473-1.853-9.002-.303z" fill="#d88d56"/><path d="m24.635 47.364c3.555 3.699 11.221 3.65 14.73.002-5.472.588-9.256.588-14.73-.002z" fill="#fff"/><path d="m47.992 26.513c-3.27-1.949-9.135-2.188-11.455-.859-.492.268-.359 1.676.064 1.5 3.311-1.379 8.354-1.447 11.461.146.417.211.426-.504-.07-.787z" fill="#c75d00"/><path d="m16.008 26.513c3.27-1.949 9.133-2.188 11.457-.859.492.268.361 1.676-.066 1.5-3.311-1.379-8.35-1.449-11.459.146-.419.211-.426-.504.068-.787z" fill="#c75d00"/><path d="m36.5 41.181c0 2.928-9 2.928-9 0 0-.672 9-.672 9 0z" fill="#dba97f"/><path d="m48.215 7.132c-10.174 10.427-.463 11.101 5.531 25.759 3.363 8.214.035 25.072-6.932 29.107 7.721 0 12.424-10.688 14.717-25.388 2.865-18.368-8.144-31.012-13.316-29.478z" fill="#fc902e"/><path d="m23.236 3.139c-12.902 3.037-24.931 14.439-20.173 36.88 2.813 13.268 6.273 21.979 13.852 21.979-8.449-8.749-7.455-27.2-5.053-31.791 12.24-7.284 33.172-12.801 36.354-23.075 1.614-2.371-12.066-7.376-24.98-3.993z" fill="#fc902e"/><g fill="#eb7700"><path d="m13.352 19.485c5.455-1.106 31.563-1.628 34.863-12.354-6.17 4.918-12.559 6.257-34.863 12.354z"/><path d="m3.941 36.546c9.156-12.218 39.145-10.869 44.273-29.414-9.956 15.564-41.771 17.669-44.273 29.414z"/><path d="m45.197 9.674c-2.361 3.722 5.848-1.747 14.695 22.231-2.179-14.018-9.656-23.671-14.695-22.231z"/></g><path d="m38.383 31.895c0 4.494 6.5 4.494 6.5 0 0-4.172-6.5-4.172-6.5 0z" fill="#613f34"/><path d="m39.025 33.332c0 2.577 5.215 2.577 5.215 0 0-2.392-5.215-2.392-5.215 0z" fill="#7d5037"/><path d="m40.283 31.965c0 1.865 2.699 1.865 2.699 0 0-1.732-2.699-1.732-2.699 0z" fill="#1a1626"/><path d="m39.361 31.42c0 .942 1.363.942 1.363 0 .001-.875-1.363-.875-1.363 0z" fill="#ab968c"/><path d="m19.119 31.901c0 4.494 6.5 4.494 6.5 0 0-4.172-6.5-4.172-6.5 0z" fill="#613f34"/><path d="m19.762 33.339c0 2.577 5.215 2.577 5.215 0 0-2.392-5.215-2.392-5.215 0z" fill="#7d5037"/><path d="m21.02 31.972c0 1.865 2.699 1.865 2.699 0 0-1.732-2.699-1.732-2.699 0z" fill="#1a1626"/><path d="m20.098 31.427c0 .942 1.363.942 1.363 0 0-.875-1.363-.875-1.363 0z" fill="#ab968c"/><path d="m47.676 32.407c0-5.451-11.27-5.451-11.27.863 1.608-5.181 9.662-5.181 11.27-.863z" fill="#45332c"/><path d="m16.324 32.407c0-5.451 11.273-5.451 11.273.861-1.609-5.181-9.663-5.181-11.273-.861z" fill="#45332c"/></svg>