<svg enable-background="new 0 0 64 64" height="64" viewBox="0 0 64 64" width="64" xmlns="http://www.w3.org/2000/svg"><path d="m8.682 27.566c-7.797-1.406-1.707 20.396 4.396 14.383 2.829-2.787-.749-13.723-4.396-14.383z" fill="#755035"/><path d="m55.319 27.566c-3.648.659-7.227 11.596-4.396 14.383 6.105 6.014 12.189-15.789 4.396-14.383z" fill="#755035"/><path d="m32 3.002c-16.123 0-23.892 11.198-22.917 28.158.195 3.413 2.309 14.544 4.307 18.536 2.043 4.084 8.879 10.383 13.068 11.687 2.646.823 8.44.823 11.084 0 4.189-1.304 11.025-7.603 13.07-11.687 1.998-3.992 4.111-15.123 4.307-18.536.975-16.96-6.793-28.158-22.919-28.158z" fill="#916b50"/><path d="m32 48.176c-3.629-1.067-9 .505-9 .505 2.047 2.229 3.547 5.121 9 5.121 6.249 0 7.309-3.282 8.999-5.121 0 0-5.377-1.577-8.999-.505z" fill="#664129"/><path d="m24.374 49.058c3.799 3.19 11.479 3.21 15.301 0-4.053.173-11.221.175-15.301 0z" fill="#fff"/><path d="m37.001 42.179c0 3.254-10 3.254-10 0-.001-.746 10-.746 10 0z" fill="#755035"/><path d="m32 2c-11.091 0-17.794 3.664-20.683 2.258 0 0-.314 1.892.818 3.123 0 0-1.195 1.033-3.125-.71-1.838 5.968 3.617 9.426 22.99 9.426 19.374 0 14.745-4.718 24.268 3.567-.933-10.212-7.421-17.664-24.268-17.664z" fill="#fc902e"/><path d="m40.204 10.904c-10.667 3.937-14.567-3.166-24.627-3.853 4.785 2.26 7.121 5.738 11.051 8.249-8.553-2.865-14.832-7.789-15.307-11.025 0 0-1.428 4.725 4.217 8.255-5.396.5-6.523-5.841-6.523-5.841-2.735 4.391-2.356 18.553.681 29.063.506-3.75-.648-5.301 1.086-9.82 5.188-13.506 1.85-7.835 21.221-7.835 19.372 0 15.875-5.171 21.221 7.835 1.594 3.877.578 6.07 1.088 9.82 6.369-23.696-2.791-29.024-14.108-24.848z" fill="#eb7700"/><path d="m49.261 32.473c-2.152 5.64-10.918 4.813-12.523.866 1.218-6.34 11.341-6.883 12.523-.866z" fill="#fff"/><path d="m14.737 32.473c2.154 5.64 10.922 4.813 12.525.866-1.219-6.343-11.34-6.885-12.525-.866z" fill="#fff"/><path d="m50.157 25.685c-3.688-1.83-10.744-1.919-13.373-.644-.563.247-.191 1.982.283 1.816 3.664-1.357 9.572-1.39 13.002.117.455.194.647-1.034.088-1.289z" fill="#664129"/><path d="m13.844 25.685c3.688-1.83 10.742-1.919 13.373-.644.563.247.191 1.982-.281 1.816-3.67-1.357-9.574-1.39-13.006.117-.455.194-.644-1.034-.086-1.289z" fill="#664129"/><path d="m38.974 31.872c0 4.949 7.158 4.949 7.158 0 0-4.594-7.158-4.594-7.158 0z" fill="#613f34"/><path d="m39.681 33.456c0 2.838 5.744 2.838 5.744 0 0-2.635-5.744-2.635-5.744 0z" fill="#7d5037"/><path d="m41.067 31.95c0 2.055 2.971 2.055 2.971 0 0-1.906-2.971-1.906-2.971 0z" fill="#1a1626"/><path d="m40.054 31.351c0 1.037 1.5 1.037 1.5 0 0-.963-1.5-.963-1.5 0z" fill="#ab968c"/><path d="m17.868 31.871c0 4.949 7.16 4.949 7.16 0 0-4.594-7.16-4.594-7.16 0z" fill="#613f34"/><path d="m18.577 33.454c0 2.838 5.742 2.838 5.742 0 0-2.634-5.742-2.634-5.742 0z" fill="#7d5037"/><path d="m19.961 31.949c0 2.054 2.973 2.054 2.973 0 0-1.907-2.973-1.907-2.973 0z" fill="#1a1626"/><path d="m18.948 31.349c0 1.038 1.5 1.038 1.5 0 0-.963-1.5-.963-1.5 0z" fill="#ab968c"/><g fill="#755035"><path d="m49.261 32.431c0-6.056-12.523-6.056-12.523.959 1.788-5.755 10.736-5.755 12.523-.959z"/><path d="m14.737 32.431c0-6.056 12.525-6.056 12.525.957-1.787-5.757-10.736-5.757-12.525-.957z"/></g></svg>