<svg enable-background="new 0 0 64 64" height="64" viewBox="0 0 64 64" width="64" xmlns="http://www.w3.org/2000/svg"><path d="m8.682 27.565c-7.797-1.406-1.707 20.396 4.396 14.383 2.829-2.787-.749-13.723-4.396-14.383z" fill="#e6b045"/><path d="m55.319 27.565c-3.648.659-7.227 11.596-4.396 14.383 6.105 6.014 12.189-15.789 4.396-14.383z" fill="#e6b045"/><path d="m32 2.001c-16.123 0-23.892 12.198-22.918 29.158.195 3.414 2.309 14.545 4.307 18.536 2.044 4.085 8.879 10.384 13.068 11.687 2.646.823 8.44.823 11.084 0 4.189-1.303 11.026-7.602 13.07-11.687 1.999-3.991 4.112-15.122 4.307-18.536.975-16.96-6.793-29.158-22.918-29.158z" fill="#fc6"/><path d="m32 48.175c-3.628-1.066-9 .506-9 .506 2.047 2.229 3.547 5.121 9 5.121 6.249 0 7.31-3.283 9-5.121-.001 0-5.378-1.578-9-.506z" fill="#e6a400"/><path d="m24.373 49.058c3.8 3.189 11.48 3.209 15.301 0-4.052.173-11.221.175-15.301 0z" fill="#fff"/><path d="m37 42.179c0 3.254-10 3.254-10 0 0-.747 10-.747 10 0z" fill="#e6b045"/><path d="m49.261 32.472c-2.153 5.64-10.918 4.813-12.524.866 1.218-6.34 11.341-6.883 12.524-.866z" fill="#fff"/><path d="m14.736 32.472c2.154 5.64 10.922 4.813 12.525.866-1.219-6.343-11.339-6.885-12.525-.866z" fill="#fff"/><path d="m50.156 25.684c-3.688-1.83-10.744-1.919-13.373-.644-.563.247-.191 1.982.283 1.816 3.664-1.357 9.572-1.39 13.002.117.456.194.647-1.034.088-1.289z" fill="#c1873c"/><path d="m13.843 25.684c3.688-1.83 10.742-1.919 13.373-.644.563.247.191 1.982-.281 1.816-3.67-1.357-9.573-1.39-13.005.117-.456.194-.644-1.034-.087-1.289z" fill="#c1873c"/><path d="m38.973 31.871c0 4.949 7.159 4.949 7.159 0 0-4.594-7.159-4.594-7.159 0z" fill="#613f34"/><path d="m39.681 33.455c0 2.838 5.743 2.838 5.743 0 0-2.635-5.743-2.635-5.743 0z" fill="#7d5037"/><path d="m41.066 31.949c0 2.055 2.972 2.055 2.972 0 0-1.906-2.972-1.906-2.972 0z" fill="#1a1626"/><path d="m40.053 31.35c0 1.037 1.5 1.037 1.5 0 0-.963-1.5-.963-1.5 0z" fill="#ab968c"/><path d="m17.868 31.87c0 4.949 7.159 4.949 7.159 0 0-4.594-7.159-4.594-7.159 0z" fill="#613f34"/><path d="m18.576 33.453c0 2.838 5.743 2.838 5.743 0 0-2.634-5.743-2.634-5.743 0z" fill="#7d5037"/><path d="m19.961 31.948c0 2.054 2.972 2.054 2.972 0 0-1.907-2.972-1.907-2.972 0z" fill="#1a1626"/><path d="m18.947 31.348c0 1.038 1.5 1.038 1.5 0 0-.963-1.5-.963-1.5 0z" fill="#ab968c"/><g fill="#e6b045"><path d="m49.261 32.43c0-6.056-12.524-6.056-12.524.959 1.788-5.755 10.736-5.755 12.524-.959z"/><path d="m14.736 32.43c0-6.056 12.525-6.056 12.525.957-1.787-5.757-10.736-5.757-12.525-.957z"/></g></svg>