<svg enable-background="new 0 0 64 64" height="64" viewBox="0 0 64 64" width="64" xmlns="http://www.w3.org/2000/svg" xmlns:xlink="http://www.w3.org/1999/xlink"><linearGradient id="a" gradientUnits="userSpaceOnUse" x1="29.0005" x2="29.0005" y1="31.2905" y2="18.9316"><stop offset="0" stop-color="#fff" stop-opacity=".2"/><stop offset="1" stop-color="#fff"/></linearGradient><linearGradient id="b" gradientUnits="userSpaceOnUse" x1="43.25" x2="60.75" y1="55.75" y2="55.75"><stop offset="0" stop-color="#a3f01f"/><stop offset="1" stop-color="#62ad00"/></linearGradient><path d="m6.789 51.266c2.699-1.586 13.908-5.768 13.908-5.768h16.693s11.199 4.174 13.885 5.764c3.905 2.302 4.725 10.738 4.725 10.738h-54s.871-8.443 4.789-10.734" fill="#e6ebef"/><path d="m21.463 41.6h15.072v10.234h-15.072z" fill="#dba97f"/><path d="m35.75 47.441c-2.07 1.109-4.361 1.746-6.75 1.746-2.385 0-4.678-.637-6.75-1.748l6.75 14.561z" fill="#018bc9"/><path d="m19.408 45.984c-2.043 5.93-1.09 9.713-1.09 9.713 1.721-1.486 5.104-3.129 5.104-3.131-1.225 1.66-2.195 4.385-2.195 4.385 3.671.563 7.773 5.049 7.773 5.049s-5.707-15.773-9.592-16.016z" fill="#bec3cf"/><path d="m21.963 42.924s-1.008-.4-1.438.35c-2.529 4.451-1.688 10.744-1.688 10.744 1.721-1.486 5.16-1.928 5.162-1.93-1.227 1.66-1.75 3.529-1.75 3.529 2.595 1.174 6.751 6.383 6.751 6.383s-3.469-9.631-7.037-19.076z" fill="#e6ebef"/><path d="m38.59 45.984c2.045 5.93 1.094 9.713 1.094 9.713-1.723-1.486-5.105-3.129-5.107-3.131 1.227 1.66 2.199 4.385 2.199 4.385-3.674.563-7.776 5.049-7.776 5.049s5.705-15.773 9.59-16.016z" fill="#bec3cf"/><path d="m36.039 42.924s1.008-.4 1.438.35c2.529 4.451 1.688 10.744 1.688 10.744-1.724-1.487-5.165-1.928-5.165-1.93 1.225 1.66 1.75 3.529 1.75 3.529-2.596 1.174-6.75 6.383-6.75 6.383s3.469-9.631 7.039-19.076z" fill="#e6ebef"/><path d="m8.619 62c.576-2.127-.102-5.359-.82-7.141-.666-1.658-.416 5.971.82 7.141" fill="#cfd7dc"/><path d="m11.902 20.75c-5.719-1.031-1.252 14.957 3.225 10.547 2.072-2.045-.551-10.065-3.225-10.547z" fill="#dba97f"/><path d="m46.102 20.75c-2.674.482-5.299 8.502-3.223 10.547 4.476 4.41 8.937-11.578 3.223-10.547z" fill="#dba97f"/><path d="m29.002 2.002c-11.824 0-17.521 8.945-16.807 21.383.143 2.504 1.693 10.666 3.158 13.594 1.498 2.994 6.512 7.613 9.584 8.57 1.939.604 6.188.604 8.127 0 3.072-.957 8.086-5.576 9.586-8.57 1.465-2.928 3.016-11.09 3.158-13.594.715-12.438-4.982-21.383-16.806-21.383z" fill="#fcd5b2"/><path d="m29.002 35.863c-2.66-.783-6.6.369-6.6.369 1.5 1.635 2.6 3.756 6.6 3.756 4.582 0 5.359-2.406 6.6-3.756 0 0-3.944-1.156-6.6-.369z" fill="#cc9d76"/><path d="m23.408 36.51c2.787 2.34 8.418 2.354 11.221 0-2.971.127-8.229.129-11.221 0z" fill="#fff"/><path d="m32.668 31.465c0 2.387-7.332 2.387-7.332 0 0-.547 7.332-.547 7.332 0z" fill="#dba97f"/><path d="m29.002 2c-8.135 0-13.049 2.688-15.168 1.656 0 0-.23 1.387.6 2.291 0 0-.877.758-2.291-.521-1.348 4.377 2.652 6.912 16.859 6.912s10.813-3.459 17.797 2.617c-.686-7.49-5.444-12.955-17.797-12.955z" fill="#3a2c29"/><path d="m35.018 8.529c-7.822 2.889-10.682-2.32-18.061-2.824 3.51 1.658 5.223 4.209 8.105 6.049-6.273-2.1-10.877-5.711-11.227-8.084 0 0-1.047 3.463 3.094 6.053-3.959.367-4.785-4.283-4.785-4.283-2.004 3.221-1.727 13.605.5 21.313.371-2.75-.475-3.887.797-7.201 3.805-9.904 1.355-5.746 15.563-5.746 14.205 0 11.641-3.793 15.561 5.746 1.17 2.844.426 4.451.799 7.201 4.669-17.378-2.048-21.286-10.346-18.224z" fill="#1e1513"/><path d="m41.66 24.348c-1.58 4.135-8.008 3.529-9.186.635.895-4.651 8.319-5.047 9.186-.635z" fill="#fff"/><path d="m16.342 24.348c1.58 4.135 8.01 3.529 9.186.635-.895-4.653-8.317-5.049-9.186-.635z" fill="#fff"/><path d="m42.316 19.369c-2.705-1.342-7.879-1.408-9.807-.473-.412.182-.141 1.455.207 1.332 2.688-.994 7.02-1.018 9.535.086.335.143.476-.757.065-.945z" fill="#cc9d76"/><path d="m15.688 19.369c2.703-1.342 7.877-1.408 9.807-.473.412.182.141 1.455-.207 1.332-2.691-.994-7.02-1.018-9.537.086-.335.143-.474-.757-.063-.945z" fill="#cc9d76"/><path d="m34.115 23.906c0 3.629 5.25 3.629 5.25 0 0-3.369-5.25-3.369-5.25 0z" fill="#613f34"/><path d="m34.635 25.068c0 2.08 4.211 2.08 4.211 0 0-1.931-4.211-1.931-4.211 0z" fill="#7d5037"/><path d="m35.65 23.963c0 1.508 2.18 1.508 2.18 0 0-1.397-2.18-1.397-2.18 0z" fill="#1a1626"/><path d="m34.906 23.523c0 .762 1.102.762 1.102 0 0-.705-1.102-.705-1.102 0z" fill="#ab968c"/><path d="m18.639 23.906c0 3.629 5.25 3.629 5.25 0 0-3.369-5.25-3.369-5.25 0z" fill="#613f34"/><path d="m19.158 25.066c0 2.082 4.211 2.082 4.211 0 0-1.931-4.211-1.931-4.211 0z" fill="#7d5037"/><path d="m20.174 23.963c0 1.506 2.18 1.506 2.18 0 0-1.399-2.18-1.399-2.18 0z" fill="#1a1626"/><path d="m19.43 23.523c0 .76 1.1.76 1.1 0-.001-.707-1.1-.707-1.1 0z" fill="#ab968c"/><path d="m41.66 24.316c0-4.441-9.186-4.441-9.186.703 1.313-4.22 7.874-4.22 9.186-.703z" fill="#dba97f"/><path d="m16.342 24.316c0-4.441 9.186-4.441 9.186.701-1.311-4.22-7.874-4.22-9.186-.701z" fill="#dba97f"/><path d="m11.834 18.932v8.428c0 1.525 7.191 2.891 10.531 3.779.848.227 2.02.357 2.506-.801.826-1.971 1.406-3.404 2.4-5.746.432-1.029 3.023-1.031 3.459 0 .99 2.342 1.572 3.775 2.4 5.746.486 1.158 1.656 1.027 2.504.801 3.338-.889 10.531-2.254 10.531-3.779 0-2.172 0-8.428 0-8.428z" fill="url(#a)" opacity=".8"/><path d="m32.246 29.57s-2.139-4.293-2.539-5.086c-.133-.262-.383-.412-.689-.414-.258.016-.564.107-.723.414-.402.793-2.539 5.086-2.539 5.086-.109.213-1.027-.111-.92-.322 0 0 2.139-4.295 2.543-5.088.287-.561.928-.922 1.637-.922h.004c.705.002 1.318.354 1.604.922.402.793 2.543 5.088 2.543 5.088.104.211-.841.482-.921.322z" fill="#f5f5f5"/><path d="m46.852 20.004c-11.883-.934-23.822-.934-35.705 0-.047-.623-.096-1.248-.147-1.873 11.98-.943 24.018-.943 36 0-.051.625-.098 1.25-.148 1.873z" fill="#302c3b"/><path d="m50.063 42.439c.896-2.025-2.037-3.449-2.166-1.957-.174 1.998.305 4.059-.709 6.363-1.35 3.064 3.098 9.789 3.346 8.779s5.137-2.643 5.582-5.275c.249-1.462-6.417-7.091-6.053-7.91z" fill="#dba97f"/><path d="m54.5 47v-7.5c.686 0 1.25-.564 1.25-1.252 0-.686-.564-1.248-1.25-1.248h-5c-.689 0-1.25.563-1.25 1.248 0 .688.561 1.252 1.25 1.252v7.5c0 3.125-7.5 10.652-7.5 12.5 0 2.5 7.422 2.5 10 2.5s10 0 10-2.5c0-1.848-7.5-9.375-7.5-12.5z" fill="#cae8f0"/><path d="m48.875 50.75c-2.178 3.783-5.625 7.42-5.625 8.459 0 1.049 5.385 1.541 8.75 1.541 3.363 0 8.75-.492 8.75-1.541 0-1.039-3.449-4.676-5.625-8.459z" fill="url(#b)"/><path d="m55.895 43.955c1.691.852.926 2.311.49 2.705 1.121 1.143.629 2.568.252 2.889 1.404 2.492-5.752 2.523-4.314.461-1.719.232-2.184-1.678-.432-2.186-1.975.357-1.725-1.877-.551-2.139.441-.098.891-.309 1.398-.416-2.01.334-1.697-2.01-.697-2.467 1.793-.818 4.135-1.859 3.854 1.153z" fill="#fcd5b2"/></svg>