<svg enable-background="new 0 0 64 64" height="64" viewBox="0 0 64 64" width="64" xmlns="http://www.w3.org/2000/svg"><path d="m9.054 9.117c-5.443 23.344-4.943 22.848 6.52 22.848-6.342-4.436 5.806-23.164-6.52-22.848z" fill="#3b2c29"/><path d="m7.093 8.756c-3.974 17.736-.547 22.291 2.498 23.209h3.49c-8.165-5.748 4.596-23.557-5.988-23.209z" fill="#453631"/><path d="m25.076 9.115c5.447 23.346 4.947 22.846-6.514 22.846 5.832-3.557-5.811-23.162 6.514-22.846z" fill="#3b2c29"/><path d="m27.042 8.756c5.807 16.135-.014 22.457-2.5 23.205h-3.49c8.164-5.275-4.595-23.555 5.99-23.205z" fill="#453631"/><path d="m28.007 17.428c1.684 4.102.018 12.52-3.465 14.537 3.859 0 6.211-5.34 7.358-12.682 1.432-9.173-6.891-9.177-3.893-1.855z" fill="#594640"/><path d="m2.664 20.986c1.406 6.624 3.136 10.979 6.927 10.979-4.223-4.371-3.727-13.586-2.527-15.879 6.121-3.639-6.777-6.307-4.4 4.9z" fill="#594640"/><path d="m5.656 32.738c7.697-5.117 15.262-5.117 22.957 0 2.443 1.623 2.947 7.74 3.256 13.037h-4.34v16.225h-20.789v-16.224h-4.338c.307-5.297.812-11.415 3.254-13.038z" fill="#8e3ed6"/><path d="m26.746 46.074h1.406l-1.406-7.597z" fill="#732eb0"/><path d="m26.746 62h4.023l1.1-16.225s-2.563-.658-5.123 0z" fill="#fc6"/><path d="m12.925 29.674c0-.723 0-3.932 0-3.932h8.418v3.932c0 4.23-8.418 4.23-8.418 0z" fill="#e6b045"/><path d="m17.132 3.506c-7.256 0-10.75 5.902-10.313 13.492.09 1.525.516 3.725 1.037 5.611 1.09 3.918 6.832 7.865 9.275 7.865 2.447 0 8.188-3.947 9.279-7.865.523-1.887.945-4.086 1.039-5.611.435-7.59-3.059-13.492-10.317-13.492z" fill="#fc6"/><path d="m17.134 24.213c-1.764-.774-1.775-.029-4.5.154 1.023 1.158 1.775 2.648 4.498 2.648 3.129 0 3.656-1.693 4.502-2.648-2.722-.183-2.734-.927-4.5-.154z" fill="#d47706"/><path d="m13.455 24.654c1.775 1.848 5.607 1.824 7.361 0-2.734.295-4.629.295-7.361 0z" fill="#fff"/><path d="m25.128 14.24c-1.635-.973-4.566-1.092-5.725-.428-.248.133-.182.838.033.748 1.652-.688 4.174-.723 5.728.074.211.106.214-.251-.036-.394z" fill="#594640"/><path d="m9.138 14.24c1.633-.973 4.568-1.092 5.729-.428.248.133.182.838-.033.748-1.654-.688-4.176-.723-5.731.074-.207.106-.211-.251.035-.394z" fill="#594640"/><path d="m19.384 21.567c0 1.461-4.502 1.461-4.502 0 0-.336 4.502-.336 4.502 0z" fill="#e6b045"/><path d="m24.972 17.205c-.971 2.533-4.912 2.162-5.635.389.547-2.852 5.104-3.096 5.635-.389z" fill="#fff"/><path d="m20.328 16.93c0 2.244 3.248 2.244 3.248 0 0-2.086-3.248-2.086-3.248 0z" fill="#613f34"/><path d="m20.646 17.649c0 1.283 2.609 1.283 2.609 0 0-1.198-2.609-1.198-2.609 0z" fill="#7d5037"/><path d="m21.275 16.963c0 .934 1.35.934 1.35 0 0-.865-1.35-.865-1.35 0z" fill="#1a1626"/><path d="m20.814 16.692c0 .471.684.471.684 0 0-.436-.684-.436-.684 0z" fill="#ab968c"/><path d="m24.972 17.186c0-2.723-5.635-2.723-5.635.432.805-2.589 4.832-2.589 5.635-.432z" fill="#45332c"/><path d="m9.296 17.205c.969 2.533 4.912 2.164 5.637.389-.545-2.852-5.103-3.096-5.637-.389z" fill="#fff"/><path d="m10.695 16.932c0 2.246 3.248 2.246 3.248 0 0-2.082-3.248-2.082-3.248 0z" fill="#613f34"/><path d="m11.015 17.651c0 1.285 2.607 1.285 2.607 0 .001-1.194-2.607-1.194-2.607 0z" fill="#7d5037"/><path d="m11.644 16.967c0 .932 1.35.932 1.35 0 0-.865-1.35-.865-1.35 0z" fill="#1a1626"/><path d="m11.181 16.695c0 .471.682.471.682 0 0-.435-.682-.435-.682 0z" fill="#ab968c"/><path d="m9.296 17.186c0-2.723 5.637-2.723 5.637.43-.805-2.589-4.832-2.589-5.637-.43z" fill="#45332c"/><path d="m25.242 4.563c-5.088 5.207-.233 5.543 2.766 12.865 1.684 4.102 2.746 9.197 3.893 1.855 1.431-9.173-4.075-15.488-6.659-14.72z" fill="#594640"/><path d="m12.751 2.569c-6.451 1.515-12.464 7.21-10.087 18.417 1.406 6.623 3.201-2.607 4.4-4.9 6.121-3.639 16.586-6.392 18.178-11.523.806-1.184-6.033-3.684-12.491-1.994z" fill="#594640"/><path d="m7.812 10.733c2.727-.553 15.779-.814 17.43-6.17-3.084 2.455-6.28 3.125-17.43 6.17z" fill="#453631"/><path d="m3.105 19.252c4.576-6.104 19.572-5.43 22.137-14.689-4.979 7.771-20.887 8.824-22.137 14.689z" fill="#453631"/><path d="m23.732 5.832c-1.182 1.859 2.924-.873 7.35 11.103-1.092-7.001-4.829-11.822-7.35-11.103z" fill="#453631"/><path d="m58.611 32.738c-7.695-5.117-15.26-5.117-22.957 0-2.441 1.623-2.947 7.74-3.254 13.037h4.338v16.225h20.789v-16.224h4.34c-.309-5.297-.813-11.415-3.256-13.038z" fill="#7ab51d"/><path d="m54.744 50.074 2-4.298v-7.299z" fill="#529320"/><path d="m9.525 50.059-2-4.283v-7.315z" fill="#732eb0"/><path d="m37.523 46.074h-1.408l1.408-7.597z" fill="#7ab51d"/><path d="m37.523 62h-4.025l-1.098-16.224s2.561-.658 5.123 0z" fill="#fc6"/><path d="m51.341 29.674c0-.723 0-3.932 0-3.932h-8.418v3.932c0 4.23 8.418 4.23 8.418 0z" fill="#e6b045"/><path d="m36.423 14.672c-3.586-.645-.785 9.361 2.018 6.601 1.301-1.281-.344-6.298-2.018-6.601z" fill="#e6b045"/><path d="m57.849 14.672c-1.676.303-3.32 5.32-2.019 6.601 2.804 2.76 5.599-7.246 2.019-6.601z" fill="#e6b045"/><path d="m47.134 2.942c-7.408 0-10.977 5.598-10.529 13.381.09 1.566 1.061 6.674 1.979 8.506.939 1.873 4.08 4.764 6.004 5.361 1.215.379 3.877.379 5.094 0 1.924-.598 5.066-3.488 6.004-5.361.92-1.832 1.889-6.939 1.978-8.506.449-7.784-3.122-13.381-10.53-13.381z" fill="#fc6"/><path d="m47.134 24.131c-1.666-.49-4.134.232-4.134.232.939 1.023 1.629 2.348 4.135 2.348 2.871 0 3.359-1.504 4.137-2.348-.001 0-2.472-.724-4.138-.232z" fill="#e6a400"/><path d="m43.63 24.535c1.746 1.463 5.275 1.473 7.031 0-1.861.08-5.156.08-7.031 0z" fill="#fff"/><path d="m49.433 21.379c0 1.492-4.596 1.492-4.596 0 0-.342 4.596-.342 4.596 0z" fill="#e6b045"/><path d="m47.134 2.942c-5.096 0-8.176 1.68-9.504 1.035 0 0-.142.867.377 1.433 0 0-.549.475-1.436-.326-.843 2.738 1.663 4.326 10.563 4.326 8.902 0 6.773-2.166 11.152 1.637-.429-4.687-3.411-8.105-11.152-8.105z" fill="#594640"/><path d="m50.904 7.026c-4.9 1.809-6.691-1.453-11.316-1.768 2.201 1.037 3.273 2.635 5.078 3.785-3.93-1.312-6.813-3.574-7.033-5.059 0 0-.654 2.168 1.938 3.789-2.479.228-2.996-2.682-2.996-2.682-1.256 2.016-1.084 8.514.313 13.338.23-1.723-.297-2.434.5-4.506 2.383-6.199.85-3.598 9.748-3.598 8.902 0 7.295-2.371 9.752 3.598.73 1.777.266 2.783.498 4.506 2.926-10.876-1.283-13.319-6.482-11.403z" fill="#453631"/><path d="m55.066 16.926c-.99 2.588-5.018 2.207-5.754.394.559-2.908 5.209-3.156 5.754-.394z" fill="#fff"/><path d="m39.203 16.926c.99 2.588 5.018 2.207 5.754.394-.559-2.91-5.209-3.158-5.754-.394z" fill="#fff"/><path d="m55.476 13.809c-1.693-.84-4.935-.881-6.144-.295-.258.113-.088.908.131.834 1.684-.625 4.398-.639 5.975.053.21.087.296-.475.038-.592z" fill="#c1873c"/><path d="m38.792 13.809c1.693-.84 4.936-.881 6.145-.295.26.113.088.908-.129.834-1.688-.625-4.398-.639-5.977.053-.208.087-.294-.475-.039-.592z" fill="#c1873c"/><path d="m50.339 16.649c0 2.271 3.289 2.271 3.289 0 0-2.108-3.289-2.108-3.289 0z" fill="#613f34"/><path d="m50.664 17.375c0 1.305 2.639 1.305 2.639 0-.001-1.209-2.639-1.209-2.639 0z" fill="#7d5037"/><path d="m51.3 16.686c0 .941 1.365.941 1.365 0 .001-.877-1.365-.877-1.365 0z" fill="#1a1626"/><path d="m50.834 16.41c0 .475.689.475.689 0 0-.443-.689-.443-.689 0z" fill="#ab968c"/><path d="m40.642 16.649c0 2.271 3.289 2.271 3.289 0 0-2.108-3.289-2.108-3.289 0z" fill="#613f34"/><path d="m40.966 17.375c0 1.301 2.641 1.301 2.641 0 0-1.209-2.641-1.209-2.641 0z" fill="#7d5037"/><path d="m41.605 16.686c0 .941 1.363.941 1.363 0 0-.877-1.363-.877-1.363 0z" fill="#1a1626"/><path d="m41.138 16.408c0 .477.688.477.688 0 0-.441-.688-.441-.688 0z" fill="#ab968c"/><path d="m55.066 16.904c0-2.779-5.754-2.779-5.754.441.82-2.64 4.932-2.64 5.754-.441z" fill="#e6b045"/><path d="m39.203 16.904c0-2.779 5.754-2.779 5.754.439-.821-2.64-4.932-2.64-5.754-.439z" fill="#e6b045"/><path d="m50.289 55.188c-4.816-3.131-10.578-3.1-15.402.002-1.657 1.062-2.206 6.81-2.206 6.81h19.793s-.547-5.752-2.185-6.812z" fill="#4abdff"/><path d="m45.501 53.426c0-.537 0-2.924 0-2.924h-5.85v2.924c.001 2.367 5.85 2.367 5.85 0z" fill="#e6b045"/><path d="m42.576 31.985c-10.516 0-9.502 8.422-9.502 12.357h19.006c0-3.936 1.013-12.357-9.504-12.357z" fill="#594640"/><path d="m34.013 42.76c-3.34-.51-1.162 7.4 1.451 5.219 1.207-1.01.11-4.981-1.451-5.219z" fill="#e6b045"/><path d="m51.14 42.76c-1.563.238-2.662 4.209-1.451 5.219 2.613 2.181 4.789-5.729 1.451-5.219z" fill="#e6b045"/><path d="m51.031 42.592c0-5.613-3.32-4.363-8.455-4.363-5.133 0-8.453-1.25-8.453 4.363 0 0 .016 2.141.564 4.951.896 4.602 4.617 6.406 7.889 6.406 3.271 0 6.996-1.805 7.889-6.406.546-2.812.566-4.951.566-4.951z" fill="#fc6"/><path d="m42.402 36.119c-1.535 2.734-7.289 4.447-9.268 4.268 1.793-1.807 2.586-6.465 9.268-4.268z" fill="#594640"/><path d="m33.134 40.387c2.52-.656 5.791-1.996 9.268-4.268-1.535 2.735-6.588 4.895-9.268 4.268z" fill="#453631"/><path d="m50.164 35.973c-2.174 3.258-10.313 5.295-13.107 5.082 2.53-2.154 3.655-7.699 13.107-5.082z" fill="#594640"/><path d="m37.056 41.055c6.686-1.857 13.107-5.082 13.107-5.082-2.173 3.258-8.23 5.554-13.107 5.082z" fill="#453631"/><path d="m50.478 35.225c2.605 4.238-4.176 5.977-6.979 5.805 2.514-1.655 4.2-5.938 6.979-5.805z" fill="#594640"/><path d="m43.5 41.029c3.369-1.543 8.506-1.859 6.979-5.805 2.605 4.239-4.007 6.188-6.979 5.805z" fill="#453631"/><path d="m48.812 44.334c-.777 2.035-3.943 1.738-4.524.314.44-2.288 4.098-2.484 4.524-.314z" fill="#fff"/><path d="m45.095 44.117c0 1.787 2.588 1.787 2.588 0 0-1.658-2.588-1.658-2.588 0z" fill="#613f34"/><path d="m45.351 44.69c0 1.025 2.076 1.025 2.076 0 0-.95-2.076-.95-2.076 0z" fill="#7d5037"/><path d="m45.851 44.149c0 .738 1.074.738 1.074 0 0-.69-1.074-.69-1.074 0z" fill="#1a1626"/><path d="m45.486 43.932c0 .373.543.373.543 0 0-.348-.543-.348-.543 0z" fill="#ab968c"/><path d="m48.812 44.319c0-2.184-4.524-2.184-4.524.348.647-2.079 3.879-2.079 4.524-.348z" fill="#e6b045"/><path d="m36.341 44.334c.775 2.035 3.943 1.738 4.523.314-.441-2.288-4.093-2.484-4.523-.314z" fill="#fff"/><path d="m37.472 44.117c0 1.787 2.586 1.787 2.586 0 0-1.658-2.586-1.658-2.586 0z" fill="#613f34"/><path d="m37.728 44.688c0 1.027 2.074 1.027 2.074 0 0-.948-2.074-.948-2.074 0z" fill="#7d5037"/><path d="m38.228 44.147c0 .74 1.074.74 1.074 0 0-.69-1.074-.69-1.074 0z" fill="#1a1626"/><path d="m37.861 43.93c0 .375.541.375.541 0 0-.348-.541-.348-.541 0z" fill="#ab968c"/><path d="m36.341 44.319c0-2.184 4.523-2.184 4.523.346-.646-2.077-3.878-2.077-4.523-.346z" fill="#e6b045"/><path d="m49.23 42.104c-1.352-.668-3.938-.701-4.902-.234-.203.09-.068.727.105.664 1.344-.496 3.508-.51 4.766.043.166.072.238-.378.031-.473z" fill="#c1873c"/><path d="m35.921 42.104c1.354-.668 3.939-.701 4.904-.234.203.09.067.727-.104.664-1.346-.496-3.51-.51-4.767.043-.165.072-.238-.378-.033-.473z" fill="#c1873c"/><path d="m42.576 49.77c-1.328-.391-3.299.186-3.299.186.754.816 1.301 1.873 3.299 1.873 2.291 0 2.68-1.201 3.299-1.873 0-.001-1.971-.579-3.299-.186z" fill="#e6a400"/><path d="m39.783 50.094c1.393 1.166 4.207 1.174 5.605 0-1.484.062-4.109.064-5.605 0z" fill="#fff"/><path d="m44.408 48.022c0 1.191-3.662 1.191-3.662 0 0-.274 3.662-.274 3.662 0z" fill="#e6b045"/><path d="m29.136 55.188c-4.816-3.131-10.578-3.1-15.402.002-1.656 1.062-2.205 6.81-2.205 6.81h19.793s-.547-5.752-2.186-6.812z" fill="#4abdff"/><path d="m24.349 53.426c0-.537 0-2.924 0-2.924h-5.849v2.924c0 2.367 5.849 2.367 5.849 0z" fill="#e6b045"/><path d="m21.423 31.985c-10.516 0-9.502 8.422-9.502 12.357h19.006c0-3.936 1.014-12.357-9.504-12.357z" fill="#594640"/><path d="m12.861 42.76c-3.34-.51-1.162 7.4 1.451 5.219 1.207-1.01.109-4.981-1.451-5.219z" fill="#e6b045"/><path d="m29.988 42.76c-1.563.238-2.662 4.209-1.451 5.219 2.613 2.181 4.789-5.729 1.451-5.219z" fill="#e6b045"/><path d="m29.878 42.592c0-5.613-3.32-4.363-8.455-4.363-5.133 0-8.453-1.25-8.453 4.363 0 0 .016 2.141.564 4.951.897 4.602 4.617 6.406 7.889 6.406s6.996-1.805 7.889-6.406c.547-2.812.566-4.951.566-4.951z" fill="#fc6"/><path d="m21.25 36.119c-1.535 2.734-7.289 4.447-9.268 4.268 1.793-1.807 2.586-6.465 9.268-4.268z" fill="#594640"/><path d="m11.982 40.387c2.52-.656 5.791-1.996 9.268-4.268-1.536 2.735-6.588 4.895-9.268 4.268z" fill="#453631"/><path d="m29.011 35.973c-2.174 3.258-10.313 5.295-13.107 5.082 2.531-2.154 3.656-7.699 13.107-5.082z" fill="#594640"/><path d="m15.904 41.055c6.686-1.857 13.107-5.082 13.107-5.082-2.174 3.258-8.23 5.554-13.107 5.082z" fill="#453631"/><path d="m29.326 35.225c2.605 4.238-4.176 5.977-6.979 5.805 2.514-1.655 4.199-5.938 6.979-5.805z" fill="#594640"/><path d="m22.347 41.029c3.369-1.543 8.506-1.859 6.979-5.805 2.605 4.239-4.006 6.188-6.979 5.805z" fill="#453631"/><path d="m27.66 44.334c-.777 2.035-3.943 1.738-4.523.314.439-2.288 4.097-2.484 4.523-.314z" fill="#fff"/><path d="m23.943 44.117c0 1.787 2.588 1.787 2.588 0 0-1.658-2.588-1.658-2.588 0z" fill="#613f34"/><path d="m24.199 44.69c0 1.025 2.076 1.025 2.076 0 0-.95-2.076-.95-2.076 0z" fill="#7d5037"/><path d="m24.699 44.149c0 .738 1.074.738 1.074 0 0-.69-1.074-.69-1.074 0z" fill="#1a1626"/><path d="m24.334 43.932c0 .373.543.373.543 0-.001-.348-.543-.348-.543 0z" fill="#ab968c"/><path d="m27.66 44.319c0-2.184-4.523-2.184-4.523.348.646-2.079 3.878-2.079 4.523-.348z" fill="#e6b045"/><path d="m15.189 44.334c.775 2.035 3.943 1.738 4.524.314-.442-2.288-4.094-2.484-4.524-.314z" fill="#fff"/><path d="m16.32 44.117c0 1.787 2.586 1.787 2.586 0 0-1.658-2.586-1.658-2.586 0z" fill="#613f34"/><path d="m16.576 44.688c0 1.027 2.074 1.027 2.074 0 0-.948-2.074-.948-2.074 0z" fill="#7d5037"/><path d="m17.076 44.147c0 .74 1.074.74 1.074 0 0-.69-1.074-.69-1.074 0z" fill="#1a1626"/><path d="m16.709 43.93c0 .375.541.375.541 0 0-.348-.541-.348-.541 0z" fill="#ab968c"/><path d="m15.189 44.319c0-2.184 4.524-2.184 4.524.346-.647-2.077-3.879-2.077-4.524-.346z" fill="#e6b045"/><path d="m28.078 42.104c-1.352-.668-3.938-.701-4.902-.234-.203.09-.068.727.105.664 1.344-.496 3.508-.51 4.766.043.165.072.238-.378.031-.473z" fill="#c1873c"/><path d="m14.769 42.104c1.353-.668 3.939-.701 4.904-.234.203.09.066.727-.104.664-1.346-.496-3.51-.51-4.768.043-.165.072-.237-.378-.032-.473z" fill="#c1873c"/><path d="m21.423 49.77c-1.328-.391-3.299.186-3.299.186.754.816 1.301 1.873 3.299 1.873 2.291 0 2.68-1.201 3.299-1.873 0-.001-1.971-.579-3.299-.186z" fill="#e6a400"/><path d="m18.63 50.094c1.393 1.166 4.207 1.174 5.605 0-1.484.062-4.109.064-5.605 0z" fill="#fff"/><path d="m23.255 48.022c0 1.191-3.662 1.191-3.662 0 0-.274 3.662-.274 3.662 0z" fill="#e6b045"/><g fill="#fc6"><path d="m12.236 57.492c.805.49 2.559-2.121 1.822-2.713-4.498-3.604-6.533-9.004-6.533-9.004-2.283-.691-5.123 0-5.123 0 .291 5.366 5.914 9.325 9.834 11.717z"/><path d="m15.761 53.645c1.666-.393 4.768 1.096 3.01 1.477.394.463.348 1.004-.983.637.51.459-.338.818-1.016.654.201 1.16-2.217.477-2.941.84-1.035.52-1.258.83-1.523.678-1.93-1.111.688-3.64 3.453-4.286z"/><path d="m52.033 57.492c-.807.49-2.559-2.121-1.822-2.713 4.496-3.604 6.533-9.004 6.533-9.004 2.283-.691 5.123 0 5.123 0-.291 5.366-5.914 9.325-9.834 11.717z"/><path d="m48.507 53.645c-1.666-.393-4.768 1.096-3.01 1.477-.397.463-.348 1.004.982.637-.512.459.336.818 1.014.654-.201 1.16 2.219.477 2.941.84 1.037.52 1.26.83 1.523.678 1.931-1.111-.684-3.64-3.45-4.286z"/></g></svg>