<svg enable-background="new 0 0 64 64" height="64" viewBox="0 0 64 64" width="64" xmlns="http://www.w3.org/2000/svg"><path d="m40.465 6.615c-3.536 15.134-3.204 14.812 4.226 14.812-4.109-2.881 3.76-15.018-4.226-14.812z" fill="#3b2c29"/><path d="m39.195 6.38c-2.579 11.492-.36 14.45 1.609 15.046h2.266c-5.291-3.729 2.978-15.27-3.875-15.046z" fill="#453631"/><path d="m50.853 6.615c3.525 15.134 3.201 14.812-4.229 14.812 3.78-2.314-3.769-15.018 4.229-14.812z" fill="#3b2c29"/><path d="m52.123 6.38c3.768 10.457-.01 14.558-1.621 15.046h-2.255c5.28-3.427-2.989-15.27 3.876-15.046z" fill="#453631"/><path d="m52.748 12.004c1.092 2.656.01 8.113-2.246 9.422 2.5 0 4.033-3.466 4.775-8.221.926-5.946-4.472-5.946-2.529-1.201z" fill="#594640"/><path d="m36.323 14.309c.909 4.296 2.032 7.117 4.481 7.117-2.732-2.831-2.41-8.807-1.629-10.291 3.966-2.362-4.395-4.091-2.852 3.174z" fill="#594640"/><path d="m47.807 20.651v-2.257h-4.211v2.258c-.601.164-2.552.487-2.552.487s2.419 6.98 4.658 6.98c2.241 0 4.66-6.98 4.66-6.98s-1.953-.323-2.555-.488z" fill="#fc6"/><path d="m43.297 19.371c2.184 2.249 2.621 2.247 4.805-.001z" fill="#e6b045"/><path d="m41.437 59.513c0-5.148-.98-8.529-.98-15.293h4.157c0 6.957-.609 9.539-.214 15.186z" fill="#fc6"/><path d="m44.31 57.76c0 1.446-2.912 1.591-2.912 0 0 0-1.704 3.075-.866 4.24h4.715c.837-1.159-.937-4.24-.937-4.24z" fill="#302c3b"/><path d="m50.037 59.513c0-5.148.922-8.529.922-15.293h-3.924c0 6.957.575 9.539.202 15.186z" fill="#fc6"/><path d="m47.321 57.76c0 1.446 2.752 1.591 2.752 0 0 0 1.605 3.075.815 4.24h-4.452c-.786-1.159.885-4.24.885-4.24z" fill="#302c3b"/><g fill="#fc6"><path d="m51.505 37.063c2.947-1.988 4.765-4.828 4.463-5.614-1.5-3.905-2.73-9.224-4.717-10.027l-1.405 4.304c.916-.354 2.466 4.054 3.496 5.481.151.21-.468 2.097-2.877 4.306z"/><path d="m30.181 41.701c2.739-4.233 3.682-6.941 5.653-11.274 1.727-3.795 2.306-8.203 4.292-9.007l1.405 4.304c-.916-.354-3.563 5.018-4.071 6.881-1.014 3.715-2.93 4.067-3.541 7.792-.593 3.613-1.561 1.422-1.577.14-1.651 3.162-2.282 3.683-2.161 1.164z"/><path d="m10.553 42.8c-1.831-1.927.134 3.637-1.566 1.847-1.581-1.666-.778-4.456-.778-4.456l2.695-.509s1.162 4.712-.351 3.118z"/><path d="m31.889 43.455c2.797-2.419-.471-4.955-.471-4.955l-2.327 1.553c-.087-.194 1.795 4.27 2.798 3.402z"/></g><path d="m24.673 36.853h-12.411c-1.082 5.025.187 10.995-1.079 23.245-.16 1.543 5.806 1.552 5.752 0-.249-7.146.458-11.612.964-15.968.037-.325 1.101-.325 1.138 0 .507 4.355 1.213 8.821.964 15.968-.054 1.552 5.912 1.543 5.752 0-1.267-12.25.002-18.22-1.08-23.245z" fill="#302c3b"/><path d="m26.822 62h-6.837c-1.208-5.094 6.837-4.099 6.837 0z" fill="#cfd8dd"/><path d="m26.382 23.274c-.644-1.523-5.449-3.329-5.449-3.329h-4.931s-4.959 1.74-5.449 3.329c-2.479 8.033-2.743 9.242-2.464 17.219.028.813 2.944-.259 2.954-.659.188-7.177.137-5.512 1.219-11.098.649 3.709-.227 7.704 0 8.117.802 1.462 11.609 1.462 12.411 0 .228-.413-.648-4.408 0-8.117 2.044 4.753 2.278 5.613 4.497 11.769.135.373 2.659-1.032 2.463-1.817-1.467-5.865-2.896-9.839-5.251-15.414z" fill="#7ab51d"/><path d="m10.112 62h6.837c1.208-5.094-6.837-4.099-6.837 0z" fill="#cfd8dd"/><path d="m45.696 2.973c-4.696 0-6.97 3.827-6.686 8.748.059.986.341 2.412.673 3.642.711 2.539 4.432 5.097 6.013 5.097 1.593 0 5.313-2.558 6.017-5.097.342-1.23.615-2.655.674-3.642.283-4.921-1.983-8.748-6.691-8.748z" fill="#fc6"/><path d="m45.696 16.398c-1.142-.498-1.151-.02-2.919.098.664.752 1.152 1.719 2.919 1.719 2.032 0 2.375-1.094 2.921-1.719-1.768-.118-1.777-.596-2.921-.098z" fill="#d47706"/><path d="m43.316 16.681c1.15 1.201 3.63 1.191 4.775 0-1.779.195-3.009.195-4.775 0z" fill="#fff"/><path d="m50.883 9.935c-1.055-.635-2.959-.703-3.711-.274-.156.078-.117.537.019.479 1.075-.439 2.705-.469 3.711.049.137.068.147-.157-.019-.254z" fill="#594640"/><path d="m40.512 9.935c1.067-.635 2.969-.703 3.721-.274.156.078.117.537-.029.479-1.063-.44-2.704-.469-3.712.049-.137.068-.137-.157.02-.254z" fill="#594640"/><path d="m47.162 14.68c0 .946-2.92.946-2.92 0 0-.215 2.92-.215 2.92 0z" fill="#e6b045"/><path d="m50.785 11.858c-.635 1.641-3.184 1.396-3.652.254.351-1.855 3.3-2.011 3.652-.254z" fill="#fff"/><path d="m47.767 11.682c0 1.455 2.109 1.455 2.109 0 .001-1.356-2.109-1.356-2.109 0z" fill="#613f34"/><path d="m47.974 12.141c0 .84 1.698.84 1.698 0 0-.772-1.698-.772-1.698 0z" fill="#7d5037"/><path d="m48.384 11.701c0 .605.878.605.878 0 0-.566-.878-.566-.878 0z" fill="#1a1626"/><path d="m48.091 11.526c0 .303.438.303.438 0 0-.284-.438-.284-.438 0z" fill="#ab968c"/><path d="m50.785 11.848c0-1.767-3.652-1.767-3.652.273.517-1.677 3.125-1.677 3.652-.273z" fill="#45332c"/><path d="m40.621 11.858c.625 1.641 3.184 1.406 3.65.254-.351-1.855-3.31-2.011-3.65-.254z" fill="#fff"/><path d="m41.527 11.682c0 1.455 2.101 1.455 2.101 0 .001-1.356-2.101-1.356-2.101 0z" fill="#613f34"/><path d="m41.734 12.141c0 .84 1.688.84 1.688 0 0-.772-1.688-.772-1.688 0z" fill="#7d5037"/><path d="m42.144 11.701c0 .605.867.605.867 0 .001-.556-.867-.556-.867 0z" fill="#1a1626"/><path d="m41.84 11.526c0 .303.441.303.441 0 0-.284-.441-.284-.441 0z" fill="#ab968c"/><path d="m40.621 11.848c0-1.767 3.65-1.767 3.65.273-.517-1.677-3.134-1.677-3.65-.273z" fill="#45332c"/><path d="m50.961 3.666c-3.301 3.368-.156 3.593 1.787 8.338 1.092 2.656 1.787 5.956 2.529 1.201.926-5.946-2.646-10.037-4.316-9.539z" fill="#594640"/><path d="m42.855 2.367c-4.177.986-8.075 4.677-6.532 11.941.909 4.296 2.071-1.689 2.853-3.174 3.965-2.362 10.75-4.15 11.785-7.469.517-.77-3.917-2.391-8.106-1.298z" fill="#594640"/><path d="m39.652 7.659c1.77-.361 10.234-.527 11.309-3.993-2.002 1.582-4.073 2.022-11.309 3.993z" fill="#453631"/><path d="m36.607 13.186c2.967-3.954 12.683-3.524 14.353-9.519-3.232 5.028-13.543 5.711-14.353 9.519z" fill="#453631"/><path d="m49.974 4.487c-.762 1.201 1.895-.566 4.764 7.195-.703-4.54-3.123-7.664-4.764-7.195z" fill="#453631"/><path d="m21.189 19.942c0-.468 0-2.548 0-2.548h-5.447v2.548c0 2.744 5.447 2.744 5.447 0z" fill="#e6b045"/><path d="m11.523 10.218c-2.322-.42-.508 6.063 1.309 4.276.84-.83-.225-4.082-1.309-4.276z" fill="#e6b045"/><path d="m25.408 10.218c-1.084.194-2.148 3.446-1.309 4.276 1.827 1.787 3.633-4.696 1.309-4.276z" fill="#e6b045"/><path d="m18.467 2.612c-4.805 0-7.119 3.632-6.826 8.67.058 1.016.683 4.325 1.279 5.517.615 1.211 2.646 3.085 3.896 3.476.791.244 2.51.244 3.299 0 1.25-.391 3.291-2.265 3.896-3.476.596-1.191 1.221-4.501 1.279-5.517.294-5.039-2.021-8.67-6.823-8.67z" fill="#fc6"/><path d="m18.467 16.349c-1.084-.322-2.676.146-2.676.146.605.664 1.055 1.523 2.676 1.523 1.863 0 2.176-.976 2.684-1.523-.001 0-1.6-.468-2.684-.146z" fill="#e6a400"/><path d="m16.191 16.613c1.133.947 3.428.947 4.559 0-1.199.048-3.338.048-4.559 0z" fill="#fff"/><path d="m19.961 14.563c0 .966-2.979.966-2.979 0 0-.225 2.979-.225 2.979 0z" fill="#e6b045"/><path d="m18.467 2.612c-3.301 0-5.303 1.084-6.162.674 0 0-.088.557.244.928 0 0-.352.303-.928-.215-.547 1.777 1.074 2.801 6.846 2.801 5.77 0 4.393-1.395 7.234 1.064-.283-3.036-2.217-5.252-7.234-5.252z" fill="#594640"/><path d="m20.906 5.258c-3.172 1.171-4.334-.938-7.332-1.143 1.426.665 2.119 1.709 3.291 2.451-2.549-.849-4.414-2.313-4.561-3.28 0 0-.42 1.406 1.26 2.461-1.611.146-1.943-1.738-1.943-1.738-.818 1.299-.703 5.517.205 8.641.146-1.113-.195-1.572.322-2.919 1.543-4.023.547-2.334 6.318-2.334 5.77 0 4.725-1.532 6.316 2.334.479 1.151.176 1.806.332 2.919 1.896-7.05-.839-8.632-4.208-7.392z" fill="#453631"/><path d="m23.611 11.672c-.645 1.68-3.262 1.436-3.729.254.362-1.884 3.378-2.04 3.729-.254z" fill="#fff"/><path d="m13.32 11.672c.645 1.68 3.262 1.436 3.731.254-.362-1.884-3.369-2.04-3.731-.254z" fill="#fff"/><path d="m23.875 9.652c-1.104-.537-3.203-.566-3.982-.186-.166.068-.059.586.088.537 1.092-.4 2.85-.41 3.865.039.136.049.195-.312.029-.39z" fill="#c1873c"/><path d="m13.057 9.652c1.104-.537 3.203-.566 3.984-.186.166.068.059.586-.078.537-1.094-.4-2.852-.41-3.877.039-.137.049-.195-.312-.029-.39z" fill="#c1873c"/><path d="m20.545 11.496c0 1.475 2.129 1.475 2.129 0 0-1.366-2.129-1.366-2.129 0z" fill="#613f34"/><path d="m20.75 11.965c0 .85 1.719.85 1.719 0 0-.781-1.719-.781-1.719 0z" fill="#7d5037"/><path d="m21.17 11.516c0 .615.879.615.879 0 0-.567-.879-.567-.879 0z" fill="#1a1626"/><path d="m20.867 11.34c0 .313.439.313.439 0 .001-.283-.439-.283-.439 0z" fill="#ab968c"/><path d="m14.258 11.496c0 1.475 2.129 1.475 2.129 0 0-1.366-2.129-1.366-2.129 0z" fill="#613f34"/><path d="m14.473 11.965c0 .84 1.709.84 1.709 0 0-.781-1.709-.781-1.709 0z" fill="#7d5037"/><path d="m14.883 11.516c0 .615.879.615.879 0 0-.567-.879-.567-.879 0z" fill="#1a1626"/><path d="m14.58 11.34c0 .313.449.313.449 0 0-.283-.449-.283-.449 0z" fill="#ab968c"/><path d="m23.611 11.662c0-1.806-3.729-1.806-3.729.283.526-1.707 3.192-1.707 3.729-.283z" fill="#e6b045"/><path d="m13.32 11.662c0-1.806 3.731-1.806 3.731.283-.528-1.707-3.194-1.707-3.731-.283z" fill="#e6b045"/><path d="m37.14 46.999c0-8.791 4.389-13.632 4.389-18.382-1.905-1.541 0-3.315-1.588-7.327l1.192-.358c1.551 3.554 7.558 3.557 9.109 0l1.194.358c-1.588 4.012.317 5.786-1.588 7.327 0 4.75 4.389 9.591 4.389 18.382z" fill="#8e3ed6"/><path d="m45.672 44.836c4.436 0 7.564-.832 8.361-1.068.127 1.018.204 2.09.204 3.231 0 0-3.399 1.131-8.565 1.131-5.087 0-8.532-1.131-8.532-1.131 0-1.142.075-2.214.204-3.231.8.235 3.954 1.068 8.328 1.068z" fill="#5d1e96"/></svg>