<svg enable-background="new 0 0 64 64" height="64" viewBox="0 0 64 64" width="64" xmlns="http://www.w3.org/2000/svg"><path d="m23.921 9.213c-5.444 23.344-4.943 22.848 6.519 22.848-6.342-4.436 5.806-23.165-6.519-22.848z" fill="#3b2c29"/><path d="m21.959 8.852c-3.975 17.736-.546 22.291 2.498 23.209h3.49c-8.165-5.748 4.596-23.557-5.988-23.209z" fill="#453631"/><path d="m39.942 9.211c5.447 23.346 4.947 22.846-6.514 22.846 5.832-3.557-5.81-23.162 6.514-22.846z" fill="#3b2c29"/><path d="m41.909 8.852c5.806 16.135-.015 22.457-2.5 23.205h-3.49c8.163-5.276-4.596-23.555 5.99-23.205z" fill="#453631"/><path d="m42.874 17.523c1.683 4.102.018 12.52-3.465 14.537 3.859 0 6.21-5.34 7.357-12.682 1.431-9.173-6.891-9.177-3.892-1.855z" fill="#594640"/><path d="m17.53 21.082c1.406 6.623 3.136 10.979 6.927 10.979-4.223-4.371-3.727-13.586-2.527-15.879 6.121-3.639-6.777-6.307-4.4 4.9z" fill="#594640"/><path d="m43.479 32.738c-7.696-5.117-15.261-5.117-22.957 0-2.442 1.623-3.947 6.74-4.255 12.037l5.339 1v16.225h20.789v-16.225l5.339-1c-.308-5.296-1.813-10.414-4.255-12.037z" fill="#8e3ed6"/><path d="m27.792 29.77c0-.723 0-3.932 0-3.932h8.418v3.932c0 4.23-8.418 4.23-8.418 0z" fill="#e6b045"/><path d="m31.999 3.602c-7.256 0-10.751 5.902-10.313 13.492.09 1.525.516 3.725 1.037 5.611 1.091 3.918 6.833 7.865 9.276 7.865 2.446 0 8.188-3.947 9.278-7.865.523-1.887.946-4.086 1.039-5.611.435-7.59-3.06-13.492-10.317-13.492z" fill="#fc6"/><path d="m32.001 24.309c-1.765-.773-1.776-.029-4.501.154 1.023 1.158 1.775 2.648 4.499 2.648 3.128 0 3.655-1.693 4.502-2.648-2.724-.184-2.735-.928-4.5-.154z" fill="#d47706"/><path d="m28.32 24.75c1.776 1.848 5.608 1.824 7.361 0-2.733.295-4.627.295-7.361 0z" fill="#fff"/><path d="m39.995 14.336c-1.635-.973-4.567-1.092-5.726-.428-.248.133-.181.838.033.748 1.653-.688 4.175-.723 5.729.074.209.106.213-.251-.036-.394z" fill="#594640"/><path d="m24.004 14.336c1.633-.973 4.568-1.092 5.729-.428.248.133.181.838-.034.748-1.654-.688-4.175-.723-5.729.074-.208.106-.211-.251.034-.394z" fill="#594640"/><path d="m34.251 21.662c0 1.461-4.502 1.461-4.502 0 0-.336 4.502-.336 4.502 0z" fill="#e6b045"/><path d="m39.839 17.301c-.971 2.533-4.913 2.162-5.636.389.547-2.852 5.104-3.096 5.636-.389z" fill="#fff"/><path d="m35.193 17.025c0 2.244 3.248 2.244 3.248 0 0-2.086-3.248-2.086-3.248 0z" fill="#613f34"/><path d="m35.513 17.744c0 1.283 2.608 1.283 2.608 0 0-1.197-2.608-1.197-2.608 0z" fill="#7d5037"/><path d="m36.142 17.059c0 .934 1.35.934 1.35 0-.001-.866-1.35-.866-1.35 0z" fill="#1a1626"/><path d="m35.68 16.787c0 .471.684.471.684 0-.001-.435-.684-.435-.684 0z" fill="#ab968c"/><path d="m39.839 17.281c0-2.723-5.636-2.723-5.636.432.805-2.588 4.832-2.588 5.636-.432z" fill="#45332c"/><path d="m24.163 17.301c.969 2.533 4.912 2.164 5.636.389-.545-2.852-5.104-3.096-5.636-.389z" fill="#fff"/><path d="m25.561 17.027c0 2.246 3.248 2.246 3.248 0 0-2.082-3.248-2.082-3.248 0z" fill="#613f34"/><path d="m25.881 17.746c0 1.285 2.607 1.285 2.607 0 0-1.193-2.607-1.193-2.607 0z" fill="#7d5037"/><path d="m26.51 17.063c0 .932 1.35.932 1.35 0-.001-.866-1.35-.866-1.35 0z" fill="#1a1626"/><path d="m26.048 16.791c0 .471.682.471.682 0-.001-.436-.682-.436-.682 0z" fill="#ab968c"/><path d="m24.163 17.281c0-2.723 5.636-2.723 5.636.43-.805-2.588-4.832-2.588-5.636-.43z" fill="#45332c"/><path d="m40.108 4.658c-5.089 5.207-.233 5.543 2.766 12.865 1.683 4.102 2.745 9.197 3.893 1.855 1.43-9.173-4.075-15.487-6.659-14.72z" fill="#594640"/><path d="m27.618 2.664c-6.451 1.516-12.465 7.211-10.088 18.418 1.406 6.623 3.2-2.607 4.399-4.9 6.121-3.639 16.587-6.393 18.179-11.523.807-1.184-6.034-3.684-12.49-1.995z" fill="#594640"/><path d="m22.678 10.828c2.728-.553 15.779-.814 17.431-6.17-3.086 2.455-6.28 3.125-17.431 6.17z" fill="#453631"/><path d="m17.971 19.348c4.577-6.104 19.573-5.43 22.138-14.689-4.979 7.771-20.887 8.823-22.138 14.689z" fill="#453631"/><path d="m38.599 5.928c-1.182 1.859 2.923-.873 7.349 11.104-1.092-7.003-4.828-11.823-7.349-11.104z" fill="#453631"/><path d="m39.712 55.188c-4.816-3.131-10.578-3.101-15.402.001-1.657 1.062-2.206 6.811-2.206 6.811h19.793s-.546-5.752-2.185-6.812z" fill="#4abdff"/><path d="m34.925 53.426c0-.538 0-2.925 0-2.925h-5.85v2.925c0 2.366 5.85 2.366 5.85 0z" fill="#e6b045"/><path d="m31.999 31.984c-10.516 0-9.502 8.421-9.502 12.356h19.006c0-3.935 1.014-12.356-9.504-12.356z" fill="#594640"/><path d="m23.437 42.76c-3.34-.511-1.162 7.4 1.451 5.218 1.207-1.01.109-4.98-1.451-5.218z" fill="#e6b045"/><path d="m40.563 42.76c-1.563.238-2.662 4.208-1.451 5.218 2.614 2.182 4.789-5.729 1.451-5.218z" fill="#e6b045"/><path d="m40.454 42.592c0-5.614-3.32-4.364-8.455-4.364-5.133 0-8.453-1.25-8.453 4.364 0 0 .016 2.141.564 4.95.896 4.602 4.617 6.407 7.889 6.407s6.996-1.806 7.889-6.407c.547-2.812.566-4.95.566-4.95z" fill="#fc6"/><path d="m31.825 36.119c-1.535 2.734-7.289 4.446-9.268 4.268 1.794-1.807 2.587-6.465 9.268-4.268z" fill="#594640"/><path d="m22.558 40.387c2.52-.656 5.791-1.996 9.268-4.268-1.536 2.735-6.589 4.894-9.268 4.268z" fill="#453631"/><path d="m39.587 35.973c-2.174 3.257-10.313 5.294-13.107 5.082 2.531-2.155 3.656-7.7 13.107-5.082z" fill="#594640"/><path d="m26.479 41.055c6.686-1.857 13.107-5.082 13.107-5.082-2.173 3.256-8.23 5.553-13.107 5.082z" fill="#453631"/><path d="m39.901 35.224c2.605 4.239-4.176 5.977-6.979 5.806 2.515-1.655 4.2-5.939 6.979-5.806z" fill="#594640"/><path d="m32.923 41.029c3.369-1.544 8.506-1.859 6.979-5.806 2.605 4.24-4.006 6.189-6.979 5.806z" fill="#453631"/><path d="m38.235 44.334c-.777 2.035-3.943 1.737-4.523.313.439-2.288 4.098-2.484 4.523-.313z" fill="#fff"/><path d="m34.519 44.117c0 1.786 2.588 1.786 2.588 0-.001-1.658-2.588-1.658-2.588 0z" fill="#613f34"/><path d="m34.774 44.689c0 1.024 2.076 1.024 2.076 0 .001-.95-2.076-.95-2.076 0z" fill="#7d5037"/><path d="m35.274 44.147c0 .739 1.074.739 1.074 0 .001-.688-1.074-.688-1.074 0z" fill="#1a1626"/><path d="m34.909 43.931c0 .373.543.373.543 0 0-.347-.543-.347-.543 0z" fill="#ab968c"/><path d="m38.235 44.318c0-2.184-4.523-2.184-4.523.348.646-2.078 3.879-2.078 4.523-.348z" fill="#e6b045"/><path d="m25.765 44.334c.775 2.035 3.943 1.737 4.523.313-.441-2.289-4.094-2.484-4.523-.313z" fill="#fff"/><path d="m26.896 44.117c0 1.786 2.586 1.786 2.586 0-.001-1.658-2.586-1.658-2.586 0z" fill="#613f34"/><path d="m27.151 44.688c0 1.026 2.074 1.026 2.074 0 .001-.949-2.074-.949-2.074 0z" fill="#7d5037"/><path d="m27.651 44.146c0 .741 1.074.741 1.074 0 .001-.689-1.074-.689-1.074 0z" fill="#1a1626"/><path d="m27.284 43.929c0 .375.541.375.541 0 0-.348-.541-.348-.541 0z" fill="#ab968c"/><path d="m25.765 44.318c0-2.184 4.523-2.184 4.523.346-.646-2.076-3.879-2.076-4.523-.346z" fill="#e6b045"/><path d="m38.653 42.103c-1.352-.668-3.938-.701-4.902-.234-.203.091-.068.727.105.664 1.344-.496 3.508-.509 4.766.043.166.071.238-.378.031-.473z" fill="#c1873c"/><path d="m25.345 42.103c1.354-.668 3.939-.701 4.904-.234.203.091.066.727-.104.664-1.346-.496-3.51-.509-4.768.043-.165.071-.237-.378-.032-.473z" fill="#c1873c"/><path d="m31.999 49.77c-1.328-.391-3.299.185-3.299.185.754.817 1.301 1.874 3.299 1.874 2.291 0 2.68-1.201 3.299-1.874 0-.001-1.971-.579-3.299-.185z" fill="#e6a400"/><path d="m29.206 50.093c1.393 1.167 4.207 1.175 5.605 0-1.484.062-4.109.064-5.605 0z" fill="#fff"/><path d="m33.831 48.021c0 1.19-3.662 1.19-3.662 0 0-.274 3.662-.274 3.662 0z" fill="#e6b045"/><g fill="#fc6"><path d="m41.566 58.081c-.594.731-1.939-2.198-1.522-3.047 4.083-8.303 3.291-5.617 2.979-9.357 2.57-.556 4.711-.901 4.711-.901-.001 5.968.999 4.484-6.168 13.305z"/><path d="m38.281 54.203c-1.562-.406-4.45 1.055-2.804 1.45-.365.459-.316 1 .925.644-.475.455.321.82.954.662-.179 1.157 2.078.494 2.758.863.974.527 1.185.84 1.431.689 1.796-1.091-.672-3.64-3.264-4.308z"/><path d="m22.434 58.081c.594.731 1.939-2.198 1.522-3.047-4.083-8.303-3.291-5.617-2.979-9.357-2.57-.556-4.711-.901-4.711-.901.001 5.968-.999 4.484 6.168 13.305z"/><path d="m25.719 54.203c1.562-.406 4.45 1.055 2.804 1.45.365.459.316 1-.925.644.475.455-.321.82-.954.662.179 1.157-2.078.494-2.758.863-.974.527-1.185.84-1.431.689-1.796-1.091.672-3.64 3.264-4.308z"/></g></svg>