<svg enable-background="new 0 0 64 64" height="64" viewBox="0 0 64 64" width="64" xmlns="http://www.w3.org/2000/svg"><path d="m45.818 61.998c0-15.813-27.908-16.186-27.908 0z" fill="#99a8ae"/><path d="m15.846 16.252c-10.893 46.746-9.895 45.746 13.031 45.746-12.688-8.877 11.615-46.381-13.031-45.746z" fill="#b3c2c6"/><path d="m11.916 15.529c-7.947 35.516-1.09 44.635 4.998 46.469h6.978c-16.326-11.504 9.194-47.168-11.976-46.469z" fill="#cfd8dd"/><path d="m47.887 16.25c10.891 46.746 9.893 45.746-13.031 45.746 11.665-7.123-11.62-46.381 13.031-45.746z" fill="#b3c2c6"/><path d="m51.812 15.527c11.619 32.311-.025 44.973-4.998 46.469h-6.974c16.326-10.562-9.194-47.168 11.972-46.469z" fill="#cfd8dd"/><path d="m32 5.018c-14.512 0-21.502 11.818-20.629 27.014.18 3.055 1.029 7.461 2.078 11.236 2.176 7.848 13.66 15.75 18.551 15.75 4.889 0 16.373-7.902 18.551-15.75 1.049-3.775 1.898-8.182 2.078-11.236.871-15.196-6.115-27.014-20.629-27.014z" fill="#fcd5b2"/><path d="m47.676 32.445c-1.939 5.074-9.826 4.33-11.27.779 1.096-5.706 10.203-6.195 11.27-.779z" fill="#fff"/><path d="m16.324 32.445c1.94 5.074 9.828 4.332 11.274.779-1.096-5.706-10.205-6.195-11.274-.779z" fill="#fff"/><path d="m32 46.483c-3.527-1.551-3.555-.063-9 .303 2.045 2.32 3.549 5.305 8.998 5.305 6.254 0 7.311-3.389 9.004-5.305-5.449-.366-5.473-1.854-9.002-.303z" fill="#d88d56"/><path d="m24.635 47.363c3.555 3.699 11.221 3.65 14.73.002-5.472.588-9.256.588-14.73-.002z" fill="#fff"/><path d="m47.992 26.512c-3.27-1.949-9.135-2.188-11.455-.859-.492.268-.359 1.676.064 1.5 3.311-1.379 8.354-1.447 11.461.146.416.211.426-.504-.07-.787z" fill="#99a8ae"/><path d="m16.008 26.512c3.27-1.949 9.133-2.188 11.457-.859.492.268.361 1.676-.066 1.5-3.31-1.379-8.35-1.449-11.459.146-.419.211-.426-.504.068-.787z" fill="#99a8ae"/><path d="m36.5 41.18c0 2.928-9 2.928-9 0 0-.672 9-.672 9 0z" fill="#dba97f"/><path d="m48.215 7.131c-10.174 10.428-.463 11.102 5.531 25.76 3.363 8.213.035 25.072-6.932 29.107 7.721 0 12.424-10.688 14.717-25.389 2.865-18.367-8.144-31.011-13.316-29.478z" fill="#e6ebef"/><path d="m23.236 3.139c-12.902 3.037-24.931 14.439-20.174 36.879 2.813 13.267 6.273 21.98 13.852 21.98-8.449-8.75-7.455-27.201-5.053-31.791 12.24-7.285 33.172-12.801 36.354-23.076 1.615-2.371-12.065-7.375-24.979-3.992z" fill="#e6ebef"/><g fill="#b3c2c6"><path d="m13.352 19.485c5.455-1.105 31.563-1.627 34.863-12.354-6.17 4.918-12.559 6.256-34.863 12.354z"/><path d="m3.941 36.545c9.156-12.217 39.145-10.869 44.273-29.414-9.956 15.564-41.771 17.67-44.273 29.414z"/><path d="m45.197 9.674c-2.361 3.721 5.848-1.748 14.695 22.23-2.179-14.017-9.656-23.669-14.695-22.23z"/></g><path d="m38.383 31.895c0 4.494 6.5 4.494 6.5 0 0-4.172-6.5-4.172-6.5 0z" fill="#613f34"/><path d="m39.025 33.332c0 2.577 5.215 2.577 5.215 0 0-2.392-5.215-2.392-5.215 0z" fill="#7d5037"/><path d="m40.283 31.965c0 1.865 2.699 1.865 2.699 0 0-1.732-2.699-1.732-2.699 0z" fill="#1a1626"/><path d="m39.361 31.42c0 .942 1.363.942 1.363 0 .001-.875-1.363-.875-1.363 0z" fill="#ab968c"/><path d="m19.119 31.901c0 4.495 6.5 4.495 6.5 0 0-4.172-6.5-4.172-6.5 0z" fill="#613f34"/><path d="m19.762 33.338c0 2.578 5.215 2.578 5.215 0 0-2.391-5.215-2.391-5.215 0z" fill="#7d5037"/><path d="m21.019 31.972c0 1.865 2.699 1.865 2.699 0 .001-1.732-2.699-1.732-2.699 0z" fill="#1a1626"/><path d="m20.098 31.426c0 .943 1.363.943 1.363 0 0-.874-1.363-.874-1.363 0z" fill="#ab968c"/><path d="m47.676 32.406c0-5.451-11.27-5.451-11.27.863 1.608-5.181 9.662-5.181 11.27-.863z" fill="#45332c"/><path d="m16.324 32.406c0-5.451 11.274-5.451 11.274.861-1.61-5.181-9.664-5.181-11.274-.861z" fill="#45332c"/></svg>