<svg enable-background="new 0 0 64 64" height="64" viewBox="0 0 64 64" width="64" xmlns="http://www.w3.org/2000/svg" xmlns:xlink="http://www.w3.org/1999/xlink"><radialGradient id="a" cx="35.833" cy="19.1348" gradientTransform="matrix(.7923 -.6101 .9945 1.2914 -11.5869 16.286)" gradientUnits="userSpaceOnUse" r="29.7353"><stop offset="0" stop-color="#ff2121"/><stop offset=".3929" stop-color="#fc1f20"/><stop offset=".6291" stop-color="#f4191c"/><stop offset=".8233" stop-color="#e60f15"/><stop offset=".9947" stop-color="#d2010b"/><stop offset="1" stop-color="#d1000b"/></radialGradient><path d="m8.127 27.867s-1.231 27.445 1.864 28.246l2.018-.727s-1.323-18.849 3.531-20.515z" fill="#1a1626"/><path d="m11.723 32.498s-2.687-12.729-8.568-13.825c4.284 10.48 4.427 16.276 4.427 36.909l2.41.531c-.001 0-.993-22.789 1.731-23.615z" fill="#302c3b"/><path d="m10.697 3.064c-8.952 1.359-9.56 15.231-5.053 22.859 4.046 6.851 8.287 10.605 14.943 23.529 6.016 11.68 12.036 12.548 17.834 12.548h21.574c2.305 0 2.278-2.729 1.502-3.175-2.693-1.552-37.647-15.413-50.8-55.761z" fill="#1a1626"/><path d="m61.717 56.503c-.877-3.469-9.476-10.544-14.977-10.891 0 0-22.891-3.265-36.043-43.612-8.952 1.359-10.854 13.165-6.347 20.794 4.046 6.851 9.773 12.206 16.428 25.13 6.015 11.679 11.845 13.012 17.643 13.012h21.424c1.153 0 2.828-.653 1.872-4.433z" fill="url(#a)"/><path d="m12.713 19.604c10.081 23.473 13.609 30.105 22.683 27.555 5.663-1.592 9.361-1.693 11.345-1.546-12.362-6.694-13.837-10.036-21.173-25.498-7.688-16.201-10.58-18.115-14.871-18.115-5.012.718-2.688 6.649 2.016 17.604z" fill="#45332c"/><path d="m12.713 19.604c10.081 23.473 13.609 30.105 22.683 27.555.263-.073.518-.143.768-.209-11.34-7.755-16.942-25.204-20.277-30.828-1.865-3.149-4.293-4.099-6.34-4.221.821 2.205 1.908 4.775 3.166 7.703z" fill="#1a1626"/></svg>