<svg enable-background="new 0 0 64 64" height="64" viewBox="0 0 64 64" width="64" xmlns="http://www.w3.org/2000/svg"><path d="m23.921 9.213c-5.444 23.344-4.943 22.848 6.519 22.848-6.342-4.436 5.806-23.165-6.519-22.848z" fill="#3b2c29"/><path d="m21.959 8.852c-3.975 17.736-.546 22.291 2.498 23.209h3.49c-8.165-5.748 4.596-23.557-5.988-23.209z" fill="#453631"/><path d="m39.942 9.211c5.447 23.346 4.947 22.846-6.514 22.846 5.832-3.557-5.81-23.162 6.514-22.846z" fill="#3b2c29"/><path d="m41.909 8.852c5.806 16.135-.015 22.457-2.5 23.205h-3.49c8.163-5.276-4.596-23.555 5.99-23.205z" fill="#453631"/><path d="m42.874 17.523c1.683 4.102.018 12.52-3.465 14.537 3.859 0 6.21-5.34 7.357-12.682 1.431-9.173-6.891-9.177-3.892-1.855z" fill="#594640"/><path d="m17.53 21.082c1.406 6.623 3.136 10.979 6.927 10.979-4.223-4.371-3.727-13.586-2.527-15.879 6.121-3.639-6.777-6.307-4.4 4.9z" fill="#594640"/><path d="m43.479 32.738c-7.696-5.117-15.261-5.117-22.957 0-2.442 1.623-3.947 6.74-4.255 12.037l5.339 1v16.225h20.789v-16.225l5.339-1c-.307-5.296-1.814-10.414-4.255-12.037z" fill="#8e3ed6"/><path d="m27.792 29.77c0-.723 0-3.932 0-3.932h8.418v3.932c0 4.23-8.418 4.23-8.418 0z" fill="#e6b045"/><path d="m31.999 3.602c-7.256 0-10.751 5.902-10.313 13.492.09 1.525.516 3.725 1.037 5.611 1.091 3.918 6.833 7.865 9.276 7.865 2.446 0 8.188-3.947 9.278-7.865.523-1.887.946-4.086 1.039-5.611.435-7.59-3.06-13.492-10.317-13.492z" fill="#fc6"/><path d="m32.001 24.309c-1.765-.773-1.776-.029-4.501.154 1.023 1.158 1.775 2.648 4.499 2.648 3.128 0 3.655-1.693 4.502-2.648-2.724-.184-2.735-.928-4.5-.154z" fill="#d47706"/><path d="m28.32 24.75c1.776 1.848 5.608 1.824 7.361 0-2.733.295-4.627.295-7.361 0z" fill="#fff"/><path d="m39.995 14.336c-1.635-.973-4.567-1.092-5.726-.428-.248.133-.181.838.033.748 1.653-.688 4.175-.723 5.729.074.209.106.213-.251-.036-.394z" fill="#594640"/><path d="m24.004 14.336c1.633-.973 4.568-1.092 5.729-.428.248.133.181.838-.034.748-1.654-.688-4.175-.723-5.729.074-.208.106-.211-.251.034-.394z" fill="#594640"/><path d="m34.251 21.662c0 1.461-4.502 1.461-4.502 0 0-.336 4.502-.336 4.502 0z" fill="#e6b045"/><path d="m39.839 17.301c-.971 2.533-4.913 2.162-5.636.389.547-2.852 5.104-3.096 5.636-.389z" fill="#fff"/><path d="m35.193 17.025c0 2.244 3.248 2.244 3.248 0 0-2.086-3.248-2.086-3.248 0z" fill="#613f34"/><path d="m35.513 17.744c0 1.283 2.608 1.283 2.608 0 0-1.197-2.608-1.197-2.608 0z" fill="#7d5037"/><path d="m36.142 17.059c0 .934 1.35.934 1.35 0-.001-.866-1.35-.866-1.35 0z" fill="#1a1626"/><path d="m35.68 16.787c0 .471.684.471.684 0-.001-.435-.684-.435-.684 0z" fill="#ab968c"/><path d="m39.839 17.281c0-2.723-5.636-2.723-5.636.432.805-2.588 4.832-2.588 5.636-.432z" fill="#45332c"/><path d="m24.163 17.301c.969 2.533 4.912 2.164 5.636.389-.545-2.852-5.104-3.096-5.636-.389z" fill="#fff"/><path d="m25.561 17.027c0 2.246 3.248 2.246 3.248 0 0-2.082-3.248-2.082-3.248 0z" fill="#613f34"/><path d="m25.881 17.746c0 1.285 2.607 1.285 2.607 0 0-1.193-2.607-1.193-2.607 0z" fill="#7d5037"/><path d="m26.51 17.063c0 .932 1.35.932 1.35 0-.001-.866-1.35-.866-1.35 0z" fill="#1a1626"/><path d="m26.048 16.791c0 .471.682.471.682 0-.001-.436-.682-.436-.682 0z" fill="#ab968c"/><path d="m24.163 17.281c0-2.723 5.636-2.723 5.636.43-.805-2.588-4.832-2.588-5.636-.43z" fill="#45332c"/><path d="m40.108 4.658c-5.089 5.207-.233 5.543 2.766 12.865 1.683 4.102 2.745 9.197 3.893 1.855 1.43-9.173-4.075-15.487-6.659-14.72z" fill="#594640"/><path d="m27.618 2.664c-6.451 1.516-12.465 7.211-10.088 18.418 1.406 6.623 3.2-2.607 4.399-4.9 6.121-3.639 16.587-6.393 18.179-11.523.807-1.184-6.034-3.684-12.49-1.995z" fill="#594640"/><path d="m22.678 10.828c2.728-.553 15.779-.814 17.431-6.17-3.086 2.455-6.28 3.125-17.431 6.17z" fill="#453631"/><path d="m17.971 19.348c4.577-6.104 19.573-5.43 22.138-14.689-4.979 7.771-20.887 8.823-22.138 14.689z" fill="#453631"/><path d="m38.599 5.928c-1.182 1.859 2.923-.873 7.349 11.104-1.092-7.003-4.828-11.823-7.349-11.104z" fill="#453631"/><path d="m39.713 54.669c-.982-.688-5.299-2.493-5.299-2.493h-4.797s-4.318 1.81-5.307 2.494c-1.656 1.143-2.206 7.33-2.206 7.33h19.793c-.001 0-.547-6.189-2.184-7.331z" fill="#e32b56"/><path d="m34.924 52.839c0-.538 0-2.925 0-2.925h-5.85v2.925c0 2.366 5.85 2.366 5.85 0z" fill="#e6b045"/><path d="m24.494 43.937c-7.076 4.172-.855 7.97-2.869 9.768 3.914 2.425 13.494-1.755 2.869-9.768z" fill="#594640"/><path d="m22.381 45.521c1.736 6.659 5.311 6.89 5.012 8.095 3.322-1.74 3.353-7.352-5.012-8.095z" fill="#453631"/><path d="m39.506 43.937c7.076 4.172.855 7.97 2.871 9.768-3.912 2.425-13.494-1.755-2.871-9.768z" fill="#594640"/><path d="m41.619 45.521c-1.734 6.659-5.311 6.89-5.01 8.095-3.322-1.74-3.355-7.352 5.01-8.095z" fill="#453631"/><path d="m22.322 43.769h19.348c2.816-15.123-22.164-15.123-19.348 0z" fill="#594640"/><path d="m22.297 43.582s11.016 4.105 18.652-.651c-1.543.291-4.051-5.605-15.775-6.047-.43 6.698-2.49 4.88-2.877 6.698z" fill="#453631"/><path d="m40.762 42.689c.822-11.314-18.359-11.314-17.535 0 .714-9.501 16.818-9.501 17.535 0z" fill="#cfd8dd"/><path d="m40.762 42.323c.822-11.313-18.359-11.313-17.535 0 .714-9.502 16.818-9.502 17.535 0z" fill="#fff"/><path d="m23.43 42.767c-3.336-.506-1.162 7.364 1.451 5.193 1.213-1.007.113-4.955-1.451-5.193z" fill="#e6b045"/><path d="m40.559 42.767c-1.561.238-2.66 4.187-1.451 5.193 2.615 2.169 4.787-5.699 1.451-5.193z" fill="#e6b045"/><path d="m40.449 42.785c-3.195-.91-7.289-5.256-15.07-4.729.137 1.708-.313 3.646-1.814 4.735 0 0-.006 1.535.543 4.345.895 4.602 4.617 6.407 7.887 6.407 3.273 0 6.994-1.806 7.891-6.407.546-2.812.563-4.351.563-4.351z" fill="#fc6"/><path d="m38.244 44.294c-.777 2.036-3.943 1.738-4.525.313.441-2.289 4.097-2.484 4.525-.313z" fill="#fff"/><path d="m34.527 44.078c0 1.786 2.586 1.786 2.586 0 0-1.658-2.586-1.658-2.586 0z" fill="#613f34"/><path d="m34.783 44.648c0 1.024 2.074 1.024 2.074 0 0-.95-2.074-.95-2.074 0z" fill="#7d5037"/><path d="m35.281 44.105c0 .742 1.076.742 1.076 0 0-.687-1.076-.687-1.076 0z" fill="#1a1626"/><path d="m34.918 43.889c0 .376.541.376.541 0 0-.348-.541-.348-.541 0z" fill="#ab968c"/><path d="m38.244 44.279c0-2.186-4.525-2.186-4.525.346.646-2.076 3.879-2.076 4.525-.346z" fill="#e6b045"/><path d="m25.771 44.294c.775 2.036 3.943 1.738 4.525.313-.439-2.291-4.095-2.486-4.525-.313z" fill="#fff"/><path d="m26.904 44.078c0 1.784 2.586 1.784 2.586 0 0-1.658-2.586-1.658-2.586 0z" fill="#613f34"/><path d="m27.16 44.648c0 1.022 2.072 1.022 2.072 0 0-.95-2.072-.95-2.072 0z" fill="#7d5037"/><path d="m27.658 44.105c0 .74 1.074.74 1.074 0 0-.687-1.074-.687-1.074 0z" fill="#1a1626"/><path d="m27.293 43.889c0 .374.543.374.543 0 0-.348-.543-.348-.543 0z" fill="#ab968c"/><path d="m25.771 44.279c0-2.186 4.525-2.186 4.525.346-.644-2.078-3.88-2.078-4.525-.346z" fill="#e6b045"/><path d="m38.662 42.063c-1.35-.672-3.938-.703-4.9-.236-.207.091-.07.726.105.666 1.34-.498 3.504-.509 4.764.043.166.07.236-.38.031-.473z" fill="#c1873c"/><path d="m25.352 42.063c1.354-.672 3.939-.703 4.904-.236.207.091.068.726-.104.666-1.344-.498-3.51-.509-4.768.043-.167.07-.236-.38-.032-.473z" fill="#c1873c"/><path d="m32.008 49.729c-1.328-.391-3.299.185-3.299.185.75.814 1.303 1.875 3.299 1.875 2.289 0 2.682-1.201 3.299-1.875 0 0-1.973-.577-3.299-.185z" fill="#e6a400"/><path d="m29.211 50.052c1.395 1.169 4.211 1.175 5.611 0-1.488.063-4.113.063-5.611 0z" fill="#fff"/><path d="m33.842 47.979c0 1.19-3.666 1.19-3.666 0 0-.273 3.666-.273 3.666 0z" fill="#e6b045"/><g fill="#fc6"><path d="m41.566 58.081c-.594.731-1.939-2.198-1.522-3.047 4.083-8.303 3.291-5.617 2.979-9.357 2.57-.556 4.711-.901 4.711-.901-.001 5.968.999 4.484-6.168 13.305z"/><path d="m38.281 54.203c-1.562-.406-4.45 1.055-2.804 1.45-.365.459-.316 1 .925.644-.475.455.321.82.954.662-.179 1.157 2.078.494 2.758.863.974.527 1.185.84 1.431.689 1.796-1.091-.672-3.64-3.264-4.308z"/><path d="m22.434 58.081c.594.731 1.939-2.198 1.522-3.047-4.083-8.303-3.291-5.617-2.979-9.357-2.57-.556-4.711-.901-4.711-.901.001 5.968-.999 4.484 6.168 13.305z"/><path d="m25.719 54.203c1.562-.406 4.45 1.055 2.804 1.45.365.459.316 1-.925.644.475.455-.321.82-.954.662.179 1.157-2.078.494-2.758.863-.974.527-1.185.84-1.431.689-1.796-1.091.672-3.64 3.264-4.308z"/></g></svg>