<svg enable-background="new 0 0 64 64" height="64" viewBox="0 0 64 64" width="64" xmlns="http://www.w3.org/2000/svg"><path d="m52.041 55.48c-.563-3.246-4.917-6.438-6.237-4.146-2.352 4.08 6.56 6.011 6.237 4.146z" fill="#e6b045"/><path d="m43.478 32.797c-7.695-5.117-15.259-5.117-22.957 0-2.441 1.623-2.947 7.74-3.254 13.037l4.338 16.225h20.789l4.34-16.225c-.309-5.297-.813-11.414-3.256-13.037z" fill="#7ab51d"/><g fill="#e6b045"><path d="m36.208 29.732c0-.723 0-3.932 0-3.932h-8.417v3.932c0 4.231 8.417 4.231 8.417 0z"/><path d="m21.291 14.73c-3.586-.645-.785 9.361 2.018 6.602 1.3-1.281-.345-6.299-2.018-6.602z"/><path d="m42.716 14.73c-1.676.303-3.32 5.32-2.02 6.602 2.805 2.76 5.6-7.246 2.02-6.602z"/></g><path d="m32.001 3c-7.408 0-10.977 5.598-10.529 13.381.09 1.566 1.061 6.674 1.979 8.506.939 1.873 4.08 4.764 6.004 5.361 1.215.379 3.876.379 5.093 0 1.924-.598 5.066-3.488 6.004-5.361.92-1.832 1.889-6.939 1.979-8.506.448-7.783-3.122-13.381-10.53-13.381z" fill="#fc6"/><path d="m32.001 24.189c-1.666-.49-4.135.232-4.135.232.939 1.023 1.629 2.348 4.135 2.348 2.871 0 3.359-1.504 4.136-2.348.001.001-2.47-.724-4.136-.232z" fill="#e6a400"/><path d="m28.498 24.594c1.746 1.463 5.275 1.473 7.031 0-1.862.08-5.156.08-7.031 0z" fill="#fff"/><path d="m34.3 21.438c0 1.492-4.595 1.492-4.595 0 0-.342 4.595-.342 4.595 0z" fill="#e6b045"/><path d="m32.001 3c-5.096 0-8.176 1.68-9.504 1.035 0 0-.143.867.377 1.434 0 0-.549.475-1.436-.326-.844 2.738 1.662 4.326 10.563 4.326 8.902 0 6.773-2.166 11.152 1.637-.429-4.688-3.412-8.106-11.152-8.106z" fill="#594640"/><path d="m35.771 7.084c-4.9 1.809-6.691-1.453-11.316-1.768 2.201 1.037 3.273 2.635 5.078 3.785-3.93-1.313-6.813-3.574-7.033-5.059 0 0-.654 2.168 1.938 3.789-2.479.229-2.996-2.682-2.996-2.682-1.256 2.016-1.084 8.514.313 13.338.23-1.723-.297-2.434.5-4.506 2.383-6.199.85-3.598 9.748-3.598 8.902 0 7.294-2.371 9.751 3.598.73 1.777.266 2.783.498 4.506 2.927-10.876-1.282-13.319-6.481-11.403z" fill="#453631"/><path d="m39.933 16.984c-.99 2.588-5.018 2.207-5.754.395.558-2.908 5.209-3.156 5.754-.395z" fill="#fff"/><path d="m24.07 16.984c.99 2.588 5.018 2.207 5.754.395-.559-2.91-5.209-3.158-5.754-.395z" fill="#fff"/><path d="m40.343 13.867c-1.693-.84-4.936-.881-6.145-.295-.258.113-.088.908.131.834 1.684-.625 4.398-.639 5.975.053.211.088.297-.475.039-.592z" fill="#c1873c"/><path d="m23.66 13.867c1.693-.84 4.936-.881 6.145-.295.26.113.088.908-.129.834-1.688-.625-4.398-.639-5.977.053-.209.088-.295-.475-.039-.592z" fill="#c1873c"/><path d="m35.206 16.707c0 2.271 3.289 2.271 3.289 0 0-2.107-3.289-2.107-3.289 0z" fill="#613f34"/><path d="m35.53 17.434c0 1.305 2.639 1.305 2.639 0 0-1.209-2.639-1.209-2.639 0z" fill="#7d5037"/><path d="m36.167 16.744c0 .941 1.365.941 1.365 0 0-.877-1.365-.877-1.365 0z" fill="#1a1626"/><path d="m35.7 16.469c0 .475.689.475.689 0 .001-.444-.689-.444-.689 0z" fill="#ab968c"/><path d="m25.509 16.707c0 2.271 3.289 2.271 3.289 0 0-2.107-3.289-2.107-3.289 0z" fill="#613f34"/><path d="m25.833 17.434c0 1.301 2.641 1.301 2.641 0 0-1.209-2.641-1.209-2.641 0z" fill="#7d5037"/><path d="m26.472 16.744c0 .941 1.363.941 1.363 0 0-.877-1.363-.877-1.363 0z" fill="#1a1626"/><path d="m26.005 16.467c0 .477.688.477.688 0 0-.442-.688-.442-.688 0z" fill="#ab968c"/><path d="m39.933 16.963c0-2.779-5.754-2.779-5.754.441.82-2.64 4.931-2.64 5.754-.441z" fill="#e6b045"/><path d="m24.07 16.963c0-2.779 5.754-2.779 5.754.439-.821-2.64-4.932-2.64-5.754-.439z" fill="#e6b045"/><path d="m50.654 55.246c-4.816-3.131-10.578-3.101-15.402.001-1.656 1.063-2.205 6.812-2.205 6.812h19.793s-.547-5.752-2.186-6.813z" fill="#4abdff"/><path d="m45.867 53.484c0-.538 0-2.925 0-2.925h-5.85v2.925c.001 2.367 5.85 2.367 5.85 0z" fill="#e6b045"/><path d="m42.941 32.043c-10.515 0-9.502 8.421-9.502 12.356h19.006c0-3.935 1.014-12.356-9.504-12.356z" fill="#594640"/><path d="m34.379 42.818c-3.339-.511-1.162 7.4 1.451 5.218 1.207-1.01.109-4.979-1.451-5.218z" fill="#e6b045"/><path d="m51.506 42.818c-1.563.238-2.662 4.208-1.451 5.218 2.613 2.183 4.789-5.728 1.451-5.218z" fill="#e6b045"/><path d="m51.396 42.65c0-5.614-3.32-4.364-8.455-4.364-5.133 0-8.453-1.25-8.453 4.364 0 0 .016 2.141.564 4.95.896 4.602 4.617 6.407 7.889 6.407s6.996-1.806 7.889-6.407c.547-2.811.566-4.95.566-4.95z" fill="#fc6"/><path d="m42.768 36.178c-1.535 2.734-7.289 4.446-9.268 4.268 1.793-1.807 2.586-6.466 9.268-4.268z" fill="#594640"/><path d="m33.5 40.445c2.52-.656 5.791-1.996 9.268-4.268-1.536 2.735-6.588 4.894-9.268 4.268z" fill="#453631"/><path d="m50.529 36.031c-2.174 3.257-10.313 5.294-13.107 5.082 2.531-2.154 3.656-7.699 13.107-5.082z" fill="#594640"/><path d="m37.422 41.113c6.686-1.857 13.107-5.082 13.107-5.082-2.174 3.257-8.23 5.554-13.107 5.082z" fill="#453631"/><path d="m50.844 35.282c2.605 4.239-4.176 5.977-6.979 5.806 2.514-1.654 4.199-5.939 6.979-5.806z" fill="#594640"/><path d="m43.865 41.088c3.369-1.544 8.506-1.859 6.979-5.806 2.605 4.239-4.006 6.189-6.979 5.806z" fill="#453631"/><path d="m49.178 44.393c-.777 2.035-3.943 1.737-4.523.313.439-2.288 4.097-2.484 4.523-.313z" fill="#fff"/><path d="m45.461 44.176c0 1.786 2.588 1.786 2.588 0 0-1.658-2.588-1.658-2.588 0z" fill="#613f34"/><path d="m45.717 44.748c0 1.024 2.076 1.024 2.076 0 0-.95-2.076-.95-2.076 0z" fill="#7d5037"/><path d="m46.217 44.206c0 .739 1.074.739 1.074 0 0-.688-1.074-.688-1.074 0z" fill="#1a1626"/><path d="m45.852 43.989c0 .373.543.373.543 0 0-.346-.543-.346-.543 0z" fill="#ab968c"/><path d="m49.178 44.377c0-2.184-4.523-2.184-4.523.348.646-2.079 3.878-2.079 4.523-.348z" fill="#e6b045"/><path d="m36.707 44.393c.775 2.035 3.943 1.737 4.523.313-.441-2.289-4.093-2.484-4.523-.313z" fill="#fff"/><path d="m37.838 44.176c0 1.786 2.586 1.786 2.586 0 0-1.658-2.586-1.658-2.586 0z" fill="#613f34"/><path d="m38.094 44.746c0 1.026 2.074 1.026 2.074 0 0-.948-2.074-.948-2.074 0z" fill="#7d5037"/><path d="m38.594 44.204c0 .741 1.074.741 1.074 0 0-.688-1.074-.688-1.074 0z" fill="#1a1626"/><path d="m38.227 43.987c0 .375.541.375.541 0 0-.347-.541-.347-.541 0z" fill="#ab968c"/><path d="m36.707 44.377c0-2.184 4.523-2.184 4.523.346-.646-2.077-3.878-2.077-4.523-.346z" fill="#e6b045"/><path d="m49.596 42.161c-1.352-.668-3.938-.701-4.902-.234-.203.091-.068.727.105.664 1.344-.496 3.508-.509 4.766.043.165.072.238-.377.031-.473z" fill="#c1873c"/><path d="m36.287 42.161c1.354-.668 3.939-.701 4.904-.234.203.091.066.727-.104.664-1.346-.496-3.51-.509-4.768.043-.165.072-.237-.377-.032-.473z" fill="#c1873c"/><path d="m42.941 49.828c-1.328-.391-3.299.185-3.299.185.754.817 1.301 1.874 3.299 1.874 2.291 0 2.68-1.201 3.299-1.874 0 0-1.97-.578-3.299-.185z" fill="#e6a400"/><path d="m40.148 50.151c1.393 1.167 4.207 1.175 5.605 0-1.483.063-4.108.065-5.605 0z" fill="#fff"/><path d="m44.773 48.08c0 1.19-3.662 1.19-3.662 0 0-.274 3.662-.274 3.662 0z" fill="#e6b045"/><path d="m29.503 54.728c-.982-.688-5.299-2.493-5.299-2.493h-4.797s-4.318 1.81-5.307 2.494c-1.656 1.144-2.207 7.33-2.207 7.33h19.793c.001 0-.546-6.19-2.183-7.331z" fill="#e32b56"/><path d="m24.714 52.897c0-.538 0-2.925 0-2.925h-5.85v2.925c.001 2.367 5.85 2.367 5.85 0z" fill="#e6b045"/><path d="m14.285 43.995c-7.076 4.172-.855 7.97-2.869 9.768 3.914 2.425 13.494-1.754 2.869-9.768z" fill="#594640"/><path d="m12.171 45.58c1.736 6.659 5.311 6.89 5.012 8.095 3.322-1.74 3.354-7.353-5.012-8.095z" fill="#453631"/><path d="m29.296 43.995c7.076 4.172.855 7.97 2.871 9.768-3.912 2.425-13.494-1.754-2.871-9.768z" fill="#594640"/><path d="m31.41 45.58c-1.734 6.659-5.311 6.89-5.01 8.095-3.322-1.74-3.356-7.353 5.01-8.095z" fill="#453631"/><path d="m12.113 43.827h19.347c2.816-15.122-22.164-15.122-19.347 0z" fill="#594640"/><path d="m12.087 43.641s11.016 4.105 18.652-.651c-1.543.291-4.051-5.605-15.775-6.047-.429 6.698-2.49 4.879-2.877 6.698z" fill="#453631"/><path d="m30.552 42.748c.822-11.314-18.359-11.314-17.535 0 .715-9.502 16.818-9.502 17.535 0z" fill="#cfd8dd"/><path d="m30.552 42.382c.822-11.313-18.359-11.313-17.535 0 .715-9.502 16.818-9.502 17.535 0z" fill="#fff"/><path d="m13.22 42.825c-3.336-.506-1.162 7.364 1.451 5.193 1.213-1.006.114-4.955-1.451-5.193z" fill="#e6b045"/><path d="m30.349 42.825c-1.561.238-2.66 4.187-1.451 5.193 2.615 2.17 4.787-5.699 1.451-5.193z" fill="#e6b045"/><path d="m30.24 42.844c-3.195-.91-7.289-5.256-15.07-4.729.137 1.708-.313 3.646-1.814 4.735 0 0-.006 1.535.543 4.345.895 4.602 4.617 6.407 7.887 6.407 3.273 0 6.994-1.806 7.891-6.407.545-2.812.563-4.351.563-4.351z" fill="#fc6"/><path d="m28.035 44.353c-.777 2.036-3.943 1.738-4.525.313.441-2.289 4.097-2.484 4.525-.313z" fill="#fff"/><path d="m24.318 44.137c0 1.786 2.586 1.786 2.586 0 0-1.658-2.586-1.658-2.586 0z" fill="#613f34"/><path d="m24.574 44.707c0 1.024 2.074 1.024 2.074 0 0-.95-2.074-.95-2.074 0z" fill="#7d5037"/><path d="m25.072 44.164c0 .742 1.076.742 1.076 0 0-.687-1.076-.687-1.076 0z" fill="#1a1626"/><path d="m24.708 43.947c0 .376.541.376.541 0 .001-.347-.541-.347-.541 0z" fill="#ab968c"/><path d="m28.035 44.338c0-2.186-4.525-2.186-4.525.346.646-2.077 3.878-2.077 4.525-.346z" fill="#e6b045"/><path d="m15.562 44.353c.775 2.036 3.943 1.738 4.525.313-.439-2.291-4.095-2.486-4.525-.313z" fill="#fff"/><path d="m16.695 44.137c0 1.784 2.586 1.784 2.586 0 0-1.658-2.586-1.658-2.586 0z" fill="#613f34"/><path d="m16.951 44.707c0 1.022 2.072 1.022 2.072 0 0-.95-2.072-.95-2.072 0z" fill="#7d5037"/><path d="m17.449 44.164c0 .74 1.074.74 1.074 0 0-.687-1.074-.687-1.074 0z" fill="#1a1626"/><path d="m17.083 43.947c0 .374.543.374.543 0 0-.347-.543-.347-.543 0z" fill="#ab968c"/><path d="m15.562 44.338c0-2.186 4.525-2.186 4.525.346-.644-2.079-3.88-2.079-4.525-.346z" fill="#e6b045"/><path d="m28.453 42.122c-1.35-.672-3.938-.703-4.9-.236-.207.091-.07.726.105.666 1.34-.498 3.504-.509 4.764.043.165.07.236-.38.031-.473z" fill="#c1873c"/><path d="m15.142 42.122c1.354-.672 3.939-.703 4.904-.236.207.091.068.726-.104.666-1.344-.498-3.51-.509-4.768.043-.167.07-.235-.38-.032-.473z" fill="#c1873c"/><path d="m21.798 49.788c-1.328-.391-3.299.185-3.299.185.75.814 1.303 1.875 3.299 1.875 2.289 0 2.682-1.201 3.299-1.875 0 0-1.972-.577-3.299-.185z" fill="#e6a400"/><path d="m19.001 50.11c1.395 1.169 4.211 1.175 5.611 0-1.487.064-4.112.064-5.611 0z" fill="#fff"/><path d="m23.632 48.038c0 1.19-3.666 1.19-3.666 0 0-.273 3.666-.273 3.666 0z" fill="#e6b045"/><path d="m47.406 53.036c-1.614.012-4.026 2.17-2.333 2.126-.234.538-.047 1.048 1.06.382-.341.563.522.71 1.093.394.127 1.163 2.136-.062 2.888.119 1.077.258 1.361.505 1.561.296 1.451-1.52-1.593-3.343-4.269-3.317z" fill="#fc6"/><path d="m17.333 52.588c-2.676-.025-5.72 1.797-4.268 3.316.199.209.483-.037 1.561-.295.752-.182 2.761 1.043 2.888-.119.57.316 1.434.168 1.093-.395 1.106.666 1.294.156 1.06-.381 1.693.044-.719-2.114-2.334-2.126z" fill="#fc6"/></svg>