<svg enable-background="new 0 0 64 64" height="64" viewBox="0 0 64 64" width="64" xmlns="http://www.w3.org/2000/svg"><path d="m15.996 61.9c-1.504-.567.239-2.203-.316-4.356-1.087-4.201 2.659-3.944 3.106-1.948.96 4.28-1.036 6.966-2.79 6.304z" fill="#302c3b"/><g fill="#fdca47"><path d="m18.002 55.825c-.274-5.206 1.084-5.942-.873-9.408 1.021-3.065.502-4.807.502-4.807l-4.873-4.364s.299 8.048 1.238 11.026c1.149 3.668 1.86 7.953 1.86 7.953.099 2.155 2.271 1.941 2.146-.4z"/><path d="m9.281 29.854c.947-1.077 1.216-2.243 1.216-2.243l-2.164-1.991c-2.776 4.668-2.632 4.126-1.819 5.415 1.851 2.932 5.93 3.922 5.93 3.922s.477-2.316-.017-2.547c-1.361-.642-1.698-1.869-3.146-2.556z"/><path d="m22.607 28.689c-.67-.314-1.059-1.174-1.059-1.174l2.116-2.376c2.87 3.934 3.128 3.029 1.976 5.134-.967 1.766-5.41 3.803-5.41 3.803s-1.834-1.64-1.359-1.893c2.057-1.092 2.272-2.903 3.736-3.494z"/></g><path d="m31.498 52.759c-3.746-2.371-1.148-5.225.462-4.226 7.193 4.459 3.335 6.63-.462 4.226z" fill="#302c3b"/><path d="m32.09 49.762c-3.558-3.441-3.057-5.183-6.801-5.959-1.111-5.996-4.957-9.149-4.957-9.149-2.684 3.523-1.787 6.598-1.787 6.598s3.039 5.083 5.682 6.397c3.254 1.604 6.562 4.029 6.562 4.029 1.461 1.44 2.905-.364 1.301-1.916z" fill="#fdca47"/><path d="m22.361 36.553c-.496-1.089-1.15-2.207-2.663-3.768-1.49-1.539.456-3.738.184-6.106l1.759 1.17 2.601-2.015s-1.036-3.072-3.743-3.228c-1.576-1.995-7.15-2.407-10.043.35-2.202.711-2.699 3.632-2.699 3.632l2.693 1.344.387-.504c.209 3.17 1.606 3.688 1.664 9.658.021 2.258.598 6.861.598 6.861h4.77l.053-1.912c.121.012.236.034.36.034.177 0 .378-.039.591-.108l.896 1.469 4.576-3.26c-.904-2.404-1.549-2.667-1.984-3.617z" fill="#302c3b"/><path d="m13.352 21.626c0 2.32 4.5 2.32 4.5 0v-2.405h-4.5z" fill="#e6b045"/><path d="m10.162 13.986c-1.819-.328-.399 4.759 1.024 3.356.661-.65-.174-3.202-1.024-3.356z" fill="#e6b045"/><path d="m21.043 13.986c-.852.154-1.687 2.706-1.024 3.356 1.423 1.404 2.843-3.684 1.024-3.356z" fill="#e6b045"/><path d="m15.602 8.021c-3.761 0-5.574 2.846-5.347 6.804.046.796.538 3.393 1.005 4.325.478.954 2.072 2.423 3.05 2.727.617.192 1.969.192 2.586 0 .978-.304 2.572-1.773 3.05-2.727.467-.932.959-3.528 1.005-4.325.227-3.958-1.587-6.804-5.349-6.804z" fill="#fc6"/><path d="m15.602 18.795c-.846-.249-2.1.118-2.1.118.478.521.827 1.195 2.1 1.195 1.458 0 1.706-.766 2.1-1.195-.001 0-1.255-.368-2.1-.118z" fill="#e6a400"/><path d="m13.822 19.001c.888.744 2.68.749 3.571 0-.946.041-2.619.041-3.571 0z" fill="#fff"/><path d="m16.769 17.396c0 .759-2.332.759-2.332 0 0-.174 2.332-.174 2.332 0z" fill="#e6b045"/><path d="m15.602 8.021c-2.587 0-4.15.855-4.825.527 0 0-.073.441.191.729 0 0-.279.241-.729-.166-.43 1.393.845 2.2 5.363 2.2 4.521 0 3.441-1.101 5.664.833-.219-2.384-1.733-4.123-5.664-4.123z" fill="#594640"/><path d="m17.516 10.099c-2.488.918-3.397-.739-5.746-.899 1.118.527 1.663 1.339 2.58 1.925-1.996-.668-3.462-1.817-3.573-2.573 0 0-.332 1.103.984 1.926-1.26.117-1.522-1.362-1.522-1.362-.638 1.024-.549 4.329.159 6.781.118-.875-.151-1.237.253-2.292 1.211-3.151.433-1.829 4.953-1.829 4.519 0 3.704-1.206 4.951 1.829.372.905.135 1.417.253 2.292 1.486-5.53-.651-6.773-3.292-5.798z" fill="#453631"/><path d="m19.63 15.131c-.503 1.315-2.548 1.123-2.922.202.284-1.479 2.646-1.606 2.922-.202z" fill="#fff"/><path d="m11.575 15.131c.501 1.315 2.548 1.123 2.922.202-.284-1.479-2.647-1.606-2.922-.202z" fill="#fff"/><path d="m19.838 13.547c-.86-.427-2.506-.447-3.119-.149-.131.057-.045.462.066.424.854-.317 2.232-.325 3.033.027.108.045.152-.242.02-.302z" fill="#c1873c"/><path d="m11.365 13.547c.86-.427 2.507-.447 3.121-.149.131.057.045.462-.066.424-.856-.317-2.232-.325-3.035.027-.106.045-.15-.242-.02-.302z" fill="#c1873c"/><path d="m17.229 14.991c0 1.155 1.67 1.155 1.67 0 0-1.072-1.67-1.072-1.67 0z" fill="#613f34"/><path d="m17.396 15.36c0 .662 1.34.662 1.34 0-.001-.614-1.34-.614-1.34 0z" fill="#7d5037"/><path d="m17.718 15.009c0 .479.693.479.693 0 0-.445-.693-.445-.693 0z" fill="#1a1626"/><path d="m17.481 14.869c0 .242.35.242.35 0 0-.224-.35-.224-.35 0z" fill="#ab968c"/><path d="m12.304 14.991c0 1.155 1.672 1.155 1.672 0 0-1.072-1.672-1.072-1.672 0z" fill="#613f34"/><path d="m12.47 15.36c0 .663 1.34.663 1.34 0 0-.614-1.34-.614-1.34 0z" fill="#7d5037"/><path d="m12.793 15.009c0 .479.694.479.694 0 0-.445-.694-.445-.694 0z" fill="#1a1626"/><path d="m12.558 14.869c0 .243.35.243.35 0-.001-.225-.35-.225-.35 0z" fill="#ab968c"/><path d="m19.63 15.121c0-1.413-2.922-1.413-2.922.224.418-1.343 2.505-1.343 2.922-.224z" fill="#e6b045"/><path d="m11.575 15.121c0-1.413 2.922-1.413 2.922.224-.418-1.344-2.505-1.344-2.922-.224z" fill="#e6b045"/><path d="m20.344 2.004c-.292-.103-2.761 1.792-2.836 3.368-.085 1.787-.191 3.074-.267 3.85-.751-.104-2.529-.1-3.276.015-.075-.774-.181-2.066-.266-3.864-.077-1.576-2.545-3.471-2.839-3.368-.474.162-1.331 2.995-.523 4.226 1.164 1.771 1.662 2.875 1.877 3.519-.666.311-1.229.733-1.597 1.283 3.411-1.213 6.674-1.213 10.085 0-.384-.577-.983-1.016-1.694-1.329.224-.649.722-1.742 1.859-3.473.809-1.231-.047-4.064-.523-4.227z" fill="#302c3b"/><path d="m37.995 61.9c-1.504-.566.24-2.203-.316-4.355-1.086-4.201 2.66-3.945 3.107-1.949.959 4.281-1.037 6.967-2.791 6.304z" fill="#302c3b"/><path d="m40.001 55.826c-.273-5.207 1.084-5.943-.873-9.408 1.021-3.066.502-4.807.502-4.807l-4.873-4.365s.299 8.049 1.238 11.027c1.15 3.668 1.861 7.953 1.861 7.953.098 2.155 2.27 1.94 2.145-.4z" fill="#fdca47"/><path d="m31.28 29.854c.947-1.077 1.217-2.243 1.217-2.243l-2.164-1.991c-2.777 4.668-2.633 4.126-1.82 5.416 1.852 2.931 5.93 3.921 5.93 3.921s.477-2.316-.016-2.547c-1.362-.642-1.699-1.868-3.147-2.556z" fill="#fdca47"/><path d="m44.606 28.69c-.67-.314-1.059-1.174-1.059-1.174l2.117-2.376c2.869 3.934 3.127 3.029 1.975 5.134-.967 1.766-5.41 3.804-5.41 3.804s-1.834-1.64-1.359-1.893c2.057-1.094 2.272-2.904 3.736-3.495z" fill="#fdca47"/><path d="m53.497 52.76c-3.746-2.371-1.148-5.225.463-4.227 7.193 4.459 3.334 6.631-.463 4.227z" fill="#302c3b"/><path d="m54.089 49.762c-3.557-3.441-3.057-5.182-6.801-5.959-1.111-5.996-4.957-9.148-4.957-9.148-2.684 3.523-1.787 6.598-1.787 6.598s3.039 5.082 5.682 6.396c3.254 1.605 6.563 4.029 6.563 4.029 1.46 1.441 2.905-.364 1.3-1.916z" fill="#fdca47"/><path d="m44.36 36.553c-.496-1.088-1.15-2.207-2.662-3.767-1.49-1.54.455-3.738.184-6.106l1.758 1.17 2.602-2.015s-1.037-3.072-3.744-3.228c-1.576-1.995-7.15-2.407-10.043.35-2.201.711-2.699 3.632-2.699 3.632l2.693 1.344.387-.504c.209 3.17 1.607 3.689 1.664 9.657.021 2.258.598 6.861.598 6.861h4.77l.053-1.911c.121.012.236.034.361.034.176 0 .377-.039.59-.108l.896 1.468 4.576-3.26c-.904-2.404-1.548-2.666-1.984-3.617z" fill="#302c3b"/><path d="m35.351 21.626c0 2.32 4.5 2.32 4.5 0v-2.405h-4.5z" fill="#e6b045"/><path d="m32.161 13.987c-1.818-.328-.398 4.759 1.025 3.356.661-.65-.175-3.202-1.025-3.356z" fill="#e6b045"/><path d="m43.042 13.987c-.852.154-1.686 2.706-1.023 3.356 1.423 1.403 2.843-3.684 1.023-3.356z" fill="#e6b045"/><path d="m37.601 8.022c-3.76 0-5.574 2.846-5.346 6.804.045.796.537 3.393 1.004 4.325.479.954 2.072 2.423 3.051 2.727.617.192 1.969.192 2.586 0 .977-.304 2.572-1.773 3.049-2.727.467-.932.959-3.528 1.006-4.325.226-3.958-1.587-6.804-5.35-6.804z" fill="#fc6"/><path d="m37.601 18.796c-.846-.249-2.1.118-2.1.118.479.521.828 1.195 2.1 1.195 1.459 0 1.707-.766 2.1-1.195-.001 0-1.255-.369-2.1-.118z" fill="#e6a400"/><path d="m35.821 19.002c.889.744 2.68.749 3.572 0-.947.04-2.619.041-3.572 0z" fill="#fff"/><path d="m38.769 17.397c0 .759-2.332.759-2.332 0 0-.175 2.332-.175 2.332 0z" fill="#e6b045"/><path d="m37.601 8.021c-2.586 0-4.15.855-4.824.527 0 0-.074.441.191.729 0 0-.279.241-.73-.166-.43 1.393.846 2.2 5.363 2.2 4.521 0 3.441-1.101 5.664.833-.219-2.384-1.733-4.123-5.664-4.123z" fill="#594640"/><path d="m39.515 10.099c-2.488.918-3.396-.739-5.746-.899 1.119.527 1.664 1.339 2.58 1.925-1.996-.668-3.461-1.817-3.572-2.573 0 0-.332 1.103.984 1.926-1.26.117-1.523-1.362-1.523-1.362-.637 1.024-.549 4.329.16 6.781.117-.875-.152-1.237.252-2.292 1.211-3.151.434-1.829 4.953-1.829s3.705-1.206 4.951 1.829c.373.905.135 1.417.254 2.292 1.486-5.529-.651-6.772-3.293-5.798z" fill="#453631"/><path d="m41.63 15.132c-.504 1.315-2.549 1.123-2.922.202.283-1.48 2.645-1.606 2.922-.202z" fill="#fff"/><path d="m33.575 15.132c.5 1.315 2.547 1.123 2.922.202-.285-1.48-2.648-1.607-2.922-.202z" fill="#fff"/><path d="m41.837 13.547c-.859-.427-2.506-.447-3.119-.149-.131.057-.045.462.066.424.855-.317 2.232-.325 3.033.027.108.045.153-.242.02-.302z" fill="#c1873c"/><path d="m33.364 13.547c.861-.427 2.508-.447 3.121-.149.131.057.045.462-.066.424-.855-.317-2.232-.325-3.035.027-.106.045-.149-.242-.02-.302z" fill="#c1873c"/><path d="m39.229 14.991c0 1.155 1.67 1.155 1.67 0 0-1.072-1.67-1.072-1.67 0z" fill="#613f34"/><path d="m39.396 15.361c0 .662 1.34.662 1.34 0-.001-.615-1.34-.615-1.34 0z" fill="#7d5037"/><path d="m39.718 15.01c0 .479.693.479.693 0 0-.445-.693-.445-.693 0z" fill="#1a1626"/><path d="m39.481 14.87c0 .242.35.242.35 0 0-.225-.35-.225-.35 0z" fill="#ab968c"/><path d="m34.304 14.991c0 1.155 1.672 1.155 1.672 0 0-1.072-1.672-1.072-1.672 0z" fill="#613f34"/><path d="m34.47 15.36c0 .663 1.34.663 1.34 0 0-.614-1.34-.614-1.34 0z" fill="#7d5037"/><path d="m34.792 15.01c0 .479.695.479.695 0 0-.446-.695-.446-.695 0z" fill="#1a1626"/><path d="m34.558 14.869c0 .243.35.243.35 0-.001-.224-.35-.224-.35 0z" fill="#ab968c"/><path d="m41.63 15.122c0-1.413-2.922-1.413-2.922.224.418-1.343 2.504-1.343 2.922-.224z" fill="#e6b045"/><path d="m33.575 15.122c0-1.413 2.922-1.413 2.922.224-.418-1.344-2.506-1.344-2.922-.224z" fill="#e6b045"/><path d="m42.343 2.004c-.291-.103-2.76 1.792-2.836 3.368-.084 1.787-.191 3.074-.266 3.85-.752-.104-2.529-.1-3.277.015-.074-.774-.18-2.066-.266-3.864-.076-1.576-2.545-3.471-2.838-3.368-.474.162-1.332 2.995-.523 4.227 1.164 1.771 1.662 2.875 1.877 3.519-.666.311-1.23.733-1.598 1.283 3.412-1.213 6.674-1.213 10.086 0-.385-.577-.984-1.016-1.695-1.329.225-.649.723-1.742 1.859-3.473.809-1.232-.047-4.065-.523-4.228z" fill="#302c3b"/></svg>