<svg enable-background="new 0 0 64 64" height="64" viewBox="0 0 64 64" width="64" xmlns="http://www.w3.org/2000/svg"><path d="m20.145 15.477c-7.992 37.397-7.261 36.597 9.564 36.597-9.31-7.101 8.525-37.106-9.564-36.597z" fill="#5c3a2e"/><path d="m17.262 14.897c-5.832 28.413-.801 35.71 3.668 37.176h5.12c-11.98-9.202 6.747-37.734-8.788-37.176z" fill="#6b4435"/><path d="m43.66 15.476c7.991 37.397 7.26 36.597-9.563 36.597 8.56-5.7-8.526-37.106 9.563-36.597z" fill="#5c3a2e"/><path d="m46.541 14.896c8.526 25.85-.019 35.979-3.667 37.176h-5.119c11.981-8.451-6.747-37.735 8.786-37.176z" fill="#6b4435"/><path d="m47.96 28.787c2.469 6.571.026 20.059-5.086 23.286 5.666 0 9.117-8.55 10.8-20.311 2.102-14.694-10.113-14.701-5.714-2.975z" fill="#875b49"/><path d="m10.764 34.49c2.064 10.613 4.604 17.583 10.166 17.583-6.2-6.999-5.471-21.761-3.709-25.434 8.984-5.826-9.948-10.102-6.457 7.851z" fill="#875b49"/><path d="m12.257 51.715c2.399-1.517 13.453-5.524 13.453-5.524h12.659s11.046 4 13.435 5.522c3.468 2.206 4.197 10.287 4.197 10.287h-48.001s.776-8.087 4.257-10.285" fill="#302c3b"/><path d="m25.301 49.469c0 3.393 4.518 5.087 6.676 5.076 2.161-.01 6.723-1.746 6.723-5.076v-9.807h-13.399z" fill="#946346"/><path d="m50.847 55.16c-.639 1.705-1.24 4.804-.729 6.84 1.098-1.12 1.321-8.428.729-6.84" fill="#1a1626"/><path d="m13.883 62c.514-2.036-.09-5.135-.729-6.84-.592-1.588-.368 5.72.729 6.84" fill="#1a1626"/><path d="m23.536 47.693s-2.114 3.011-3 5.486l3.408 1.932s-2.324 2.548-2.695 3.037c0 0 2.354 2.836 2.695 3.852h.977s-1.217-2.373-2.391-3.852c0 0 1.491-2.377 2.391-3.212l-3.128-2.202c-.001 0 .856-3.101 1.743-5.041" fill="#1a1626"/><path d="m40.466 47.693s2.114 3.011 3 5.486l-3.409 1.932s2.325 2.548 2.695 3.037c0 0-2.352 2.836-2.695 3.852h-.976s1.217-2.373 2.393-3.852c0 0-1.493-2.377-2.393-3.212l3.128-2.202s-.856-3.101-1.743-5.041" fill="#1a1626"/><path d="m37.093 62c1.526-3.109 1.561-12.531 1.561-12.531-2.235 3.419-6.431 4.979-6.676 5.066-.245-.087-4.44-1.647-6.676-5.066 0 0 .034 9.422 1.56 12.531z" fill="#e6ebef"/><path d="m46.464 59.133c-.267 0-.737.281-.927.402-.258-.202-.633-.202-.891 0-.188-.121-.658-.402-.927-.402-.588 0-1.866.468-1.866.67 0 .09 1.248-.184 2.548.488.139.795 1.244.795 1.383 0 1.298-.672 2.549-.398 2.549-.488 0-.202-1.281-.67-1.869-.67z" fill="#f9c802"/><path d="m34.641 62-.855-3.531.943-2-2.77-1.924-2.686 1.924.944 2-.856 3.531z" fill="#302c3b"/><path d="m31.977 54.535c-.245-.087-4.44-1.647-6.676-5.066 0 0 .013 2.911.283 6.031.829 1.162 2.208 2.969 2.745 2.969.79 0 3.647-3.576 3.647-3.576s2.836 3.576 3.695 3.576c.618 0 1.916-1.742 2.695-2.926.275-3.135.286-6.074.286-6.074-2.234 3.419-6.43 4.979-6.675 5.066" fill="#fff"/><path d="m32 6.489c-11.609 0-17.201 9.455-16.502 21.611.143 2.443.822 5.969 1.661 8.989 1.741 6.277 10.929 12.6 14.841 12.6s13.1-6.322 14.841-12.6c.839-3.021 1.519-6.546 1.663-8.989.698-12.156-4.892-21.611-16.504-21.611z" fill="#b88a6f"/><path d="m32.001 39.662c-2.822-1.241-2.844-.051-7.2.242 1.636 1.855 2.839 4.243 7.198 4.243 5.003 0 5.849-2.711 7.204-4.243-4.359-.293-4.379-1.483-7.202-.242z" fill="#84401e"/><path d="m26.109 40.366c2.844 2.96 8.977 2.921 11.785.001-4.378.471-7.405.471-11.785-.001z" fill="#fff"/><path d="m44.796 23.685c-2.616-1.56-7.308-1.75-9.165-.688-.394.214-.287 1.341.053 1.2 2.648-1.104 6.682-1.158 9.168.117.333.169.339-.403-.056-.629z" fill="#423225"/><path d="m19.208 23.685c2.615-1.56 7.307-1.75 9.166-.688.394.214.289 1.341-.054 1.2-2.648-1.104-6.68-1.159-9.167.117-.334.169-.341-.403.055-.629z" fill="#423225"/><path d="m35.602 35.42c0 2.342-7.201 2.342-7.201 0 0-.538 7.201-.538 7.201 0z" fill="#946346"/><path d="m44.543 28.432c-1.552 4.06-7.861 3.464-9.017.623.876-4.566 8.163-4.956 9.017-.623z" fill="#fff"/><path d="m37.107 27.99c0 3.596 5.2 3.596 5.2 0 .001-3.338-5.2-3.338-5.2 0z" fill="#613f34"/><path d="m37.621 29.14c0 2.063 4.172 2.063 4.172 0 0-1.913-4.172-1.913-4.172 0z" fill="#7d5037"/><path d="m38.628 28.047c0 1.492 2.159 1.492 2.159 0 0-1.386-2.159-1.386-2.159 0z" fill="#1a1626"/><path d="m37.891 27.61c0 .754 1.09.754 1.09 0-.001-.699-1.09-.699-1.09 0z" fill="#ab968c"/><path d="m44.543 28.4c0-4.361-9.017-4.361-9.017.69 1.287-4.145 7.73-4.145 9.017-.69z" fill="#45332c"/><path d="m19.46 28.432c1.552 4.06 7.862 3.466 9.019.623-.876-4.566-8.164-4.956-9.019-.623z" fill="#fff"/><path d="m21.696 27.995c0 3.596 5.2 3.596 5.2 0 0-3.337-5.2-3.337-5.2 0z" fill="#613f34"/><path d="m22.209 29.146c0 2.063 4.172 2.063 4.172 0 0-1.914-4.172-1.914-4.172 0z" fill="#7d5037"/><path d="m23.216 28.052c0 1.492 2.159 1.492 2.159 0 0-1.385-2.159-1.385-2.159 0z" fill="#1a1626"/><path d="m22.479 27.616c0 .754 1.09.754 1.09 0 0-.7-1.09-.7-1.09 0z" fill="#ab968c"/><path d="m19.46 28.4c0-4.361 9.019-4.361 9.019.688-1.287-4.144-7.73-4.144-9.019-.688z" fill="#45332c"/><path d="m43.901 8.18c-7.467 8.342-.341 8.881 4.059 20.607 2.469 6.571 4.031 14.736 5.714 2.976 2.102-14.695-5.978-24.811-9.773-23.583z" fill="#875b49"/><path d="m25.571 4.985c-9.47 2.43-18.298 11.552-14.807 29.505 2.064 10.613 2.927-3.805 4.688-7.478 8.983-5.827 26.114-10.613 28.449-18.833 1.185-1.896-8.854-5.9-18.33-3.194z" fill="#875b49"/><path d="m18.315 18.063c4.005-.885 23.163-1.302 25.586-9.883-4.527 3.933-9.217 5.005-25.586 9.883z" fill="#6b4435"/><path d="m11.411 31.711c6.718-9.774 28.726-8.695 32.491-23.531-7.308 12.452-30.655 14.135-32.491 23.531z" fill="#6b4435"/><path d="m41.687 10.214c-1.733 2.977 4.291-1.398 10.785 17.785-1.602-11.215-7.088-18.937-10.785-17.785z" fill="#6b4435"/><path d="m11.11 17.347s-.117.482-.299 1.298c3.245 3.503 13.666 5.355 21.196 5.355 7.536 0 17.875-1.852 21.115-5.355-.157-.813-.29-1.229-.29-1.229z" opacity=".2"/><path d="m51.721 16s20.647-14-19.72-14-19.723 14-19.723 14 7.223-3.002 19.748-3c12.494.002 19.695 3 19.695 3" fill="#302c3b"/><path d="m32 13c-12.827 0-21.59 1.705-21.59 4.545.001 3.551 12.71 5.455 21.59 5.455 8.881 0 21.59-1.904 21.59-5.455.001-2.84-8.761-4.545-21.59-4.545" fill="#302c3b"/><g fill="#f9c802"><path d="m12.683 15s18.854-5.143 38.636 0c0 0-17.881-9-38.636 0"/><path d="m36.331 4.5c-.928 0-2.637 1.025-3.08 1.301-.748-.396-1.754-.396-2.5 0-.443-.276-2.152-1.301-3.08-1.301-1.86 0-5.897 1.4-5.897 2.004 0 .26 3.914-.578 7.999 1.404.418 2.119 4.04 2.119 4.457 0 4.085-1.982 7.999-1.145 7.999-1.404 0-.604-4.037-2.004-5.898-2.004z"/><path d="m46.479 19.088c.031.01 2.22-2.123 1.264-1.875-.922.258-2.646 1.336-2.439 2.137.206.816 2.421 1.016 3.429.734.977-.252-2.279-.971-2.254-.996"/><path d="m42.984 19.588c.03.012 2.32-2.027 1.353-1.82-.93.219-2.703 1.223-2.541 2.033.164.824 2.362 1.115 3.377.875.988-.211-2.214-1.065-2.189-1.088"/><path d="m39.469 19.988c.03.014 2.418-1.928 1.443-1.762-.936.182-2.757 1.111-2.639 1.926.121.83 2.295 1.211 3.32 1.014.999-.17-2.148-1.154-2.124-1.178"/><path d="m35.938 20.291c.032.016 2.514-1.826 1.533-1.699-.945.141-2.807.996-2.732 1.814.076.834 2.225 1.303 3.26 1.148 1.001-.128-2.086-1.241-2.061-1.263"/><path d="m18.7 19.35c.205-.801-1.518-1.877-2.439-2.137-.957-.246 1.231 1.887 1.262 1.875.021.025-3.229.742-2.251.996 1.006.281 3.22.082 3.428-.734"/><path d="m22.207 19.801c.159-.811-1.611-1.813-2.541-2.033-.968-.207 1.322 1.832 1.354 1.82.022.023-3.179.877-2.19 1.088 1.015.238 3.212-.051 3.377-.875"/><path d="m25.729 20.152c.117-.814-1.703-1.744-2.642-1.926-.974-.166 1.416 1.775 1.447 1.762.022.023-3.122 1.008-2.126 1.178 1.024.197 3.199-.184 3.321-1.014"/><path d="m29.262 20.406c.075-.818-1.788-1.674-2.734-1.814-.979-.127 1.504 1.715 1.534 1.699.026.021-3.06 1.137-2.058 1.264 1.033.156 3.183-.315 3.258-1.149"/></g></svg>