<svg enable-background="new 0 0 64 64" height="64" viewBox="0 0 64 64" width="64" xmlns="http://www.w3.org/2000/svg"><path d="m20.724 15.476c-8.107 37.397-7.365 36.597 9.701 36.597-9.443-7.101 8.649-37.106-9.701-36.597z" fill="#40281f"/><path d="m17.801 14.896c-5.918 28.413-.813 35.709 3.721 37.176h5.193c-12.153-9.202 6.843-37.734-8.914-37.176z" fill="#4a2e24"/><path d="m44.578 15.475c8.106 37.396 7.363 36.596-9.701 36.596 8.683-5.699-8.649-37.105 9.701-36.596z" fill="#40281f"/><path d="m47.5 14.896c8.648 25.85-.02 35.979-3.721 37.175h-5.191c12.154-8.451-6.844-37.735 8.912-37.175z" fill="#4a2e24"/><path d="m48.939 28.786c2.504 6.571.025 20.058-5.16 23.286 5.748 0 9.25-8.55 10.955-20.311 2.133-14.694-10.258-14.702-5.795-2.975z" fill="#614036"/><path d="m11.209 34.488c2.094 10.614 4.67 17.584 10.313 17.584-6.291-6.999-5.551-21.761-3.764-25.434 9.113-5.826-10.09-10.102-6.549 7.85z" fill="#614036"/><path d="m13.006 50.949c2.4-1.631 13.197-4.314 13.197-4.314h13.092s10.867 2.676 13.256 4.311c3.468 2.37 4.199 11.054 4.199 11.054h-48s.775-8.691 4.256-11.051" fill="#302c3b"/><path d="m25.75 48.535c0 2.219 7 12.918 7 12.918s7-10.182 7-12.918v-10.535h-14z" fill="#916b50"/><path d="m14.488 62c.512-2.189-.088-5.518-.728-7.35-.592-1.707-.368 6.145.728 7.35" fill="#1a1626"/><path d="m51.738 54.65c-.639 1.834-1.24 5.16-.729 7.348 1.098-1.203 1.323-9.053.729-7.348" fill="#1a1626"/><path d="m56.744 38.039-13.834 23.961h6.93l12.101-20.961z" fill="#e6ebef"/><path d="m48.418 60.557 11.623-21.061.867.5z" fill="#cfd8dd"/><path d="m61.941 41.039c-.668 1.154-5.863-1.846-5.197-3 .668-1.156 5.863 1.844 5.197 3z" fill="#cfd8dd"/><path d="m48.715 51.947-1 1.732c-.668 1.154 4.529 4.154 5.195 3l1-1.732c-.666 1.155-5.863-1.845-5.195-3z" fill="#e81c27"/><path d="m32.75 6.488c-11.609 0-17.201 9.455-16.502 21.611.143 2.443.822 5.969 1.662 8.988 1.74 6.278 10.928 12.601 14.84 12.601s13.1-6.322 14.842-12.601c.838-3.02 1.518-6.545 1.662-8.988.697-12.156-4.893-21.611-16.504-21.611z" fill="#916b50"/><path d="m32.752 39.66c-2.822-1.24-2.844-.05-7.201.242 1.637 1.856 2.84 4.244 7.199 4.244 5.002 0 5.848-2.711 7.203-4.244-4.359-.292-4.379-1.482-7.201-.242z" fill="#7a421b"/><path d="m26.859 40.365c2.844 2.959 8.976 2.92 11.783.001-4.377.471-7.404.471-11.783-.001z" fill="#fff"/><path d="m45.545 23.684c-2.615-1.56-7.307-1.75-9.164-.688-.395.214-.287 1.341.053 1.2 2.648-1.104 6.682-1.158 9.168.117.331.169.339-.403-.057-.629z" fill="#423225"/><path d="m19.957 23.684c2.615-1.56 7.307-1.75 9.166-.688.395.214.289 1.341-.053 1.2-2.648-1.104-6.68-1.159-9.168.117-.334.169-.34-.403.055-.629z" fill="#423225"/><path d="m36.351 35.418c0 2.342-7.201 2.342-7.201 0 0-.537 7.201-.537 7.201 0z" fill="#755035"/><path d="m45.293 28.431c-1.553 4.06-7.861 3.464-9.018.623.877-4.566 8.164-4.956 9.018-.623z" fill="#fff"/><path d="m37.857 27.989c0 3.596 5.199 3.596 5.199 0 0-3.338-5.199-3.338-5.199 0z" fill="#613f34"/><path d="m38.371 29.139c0 2.063 4.172 2.063 4.172 0 0-1.913-4.172-1.913-4.172 0z" fill="#7d5037"/><path d="m39.377 28.046c0 1.492 2.16 1.492 2.16 0 0-1.386-2.16-1.386-2.16 0z" fill="#1a1626"/><path d="m38.64 27.609c0 .754 1.09.754 1.09 0 0-.699-1.09-.699-1.09 0z" fill="#ab968c"/><path d="m45.293 28.399c0-4.361-9.018-4.361-9.018.69 1.287-4.145 7.731-4.145 9.018-.69z" fill="#45332c"/><path d="m20.211 28.431c1.551 4.06 7.861 3.466 9.018.623-.876-4.566-8.165-4.956-9.018-.623z" fill="#fff"/><path d="m22.445 27.994c0 3.596 5.201 3.596 5.201 0 0-3.337-5.201-3.337-5.201 0z" fill="#613f34"/><path d="m22.959 29.145c0 2.063 4.172 2.063 4.172 0 0-1.914-4.172-1.914-4.172 0z" fill="#7d5037"/><path d="m23.967 28.051c0 1.492 2.158 1.492 2.158 0 0-1.385-2.158-1.385-2.158 0z" fill="#1a1626"/><path d="m23.228 27.615c0 .754 1.09.754 1.09 0 0-.7-1.09-.7-1.09 0z" fill="#ab968c"/><path d="m20.211 28.399c0-4.361 9.018-4.361 9.018.688-1.288-4.144-7.731-4.144-9.018-.688z" fill="#45332c"/><path d="m44.822 8.179c-7.574 8.342-.346 8.881 4.117 20.607 2.504 6.571 4.09 14.736 5.795 2.976 2.133-14.695-6.062-24.811-9.912-23.583z" fill="#614036"/><path d="m26.228 4.984c-9.607 2.43-18.561 11.552-15.02 29.504 2.094 10.614 4.762-4.177 6.549-7.85 9.113-5.827 24.695-10.24 27.065-18.46 1.201-1.896-8.982-5.9-18.594-3.194z" fill="#614036"/><g fill="#4a2e24"><path d="m18.867 18.062c4.063-.885 23.496-1.302 25.955-9.883-4.594 3.933-9.349 5.005-25.955 9.883z"/><path d="m11.863 31.71c6.816-9.774 29.141-8.695 32.959-23.531-7.412 12.452-31.096 14.135-32.959 23.531z"/><path d="m42.576 10.213c-1.76 2.976 4.352-1.399 10.939 17.785-1.623-11.215-7.189-18.937-10.939-17.785z"/></g><path d="m11.959 6.938v10.614c12.07 0 20.873 3.386 20.873 3.386s8.68-3.389 20.752-3.389v-10.611z" fill="#1a1626"/><path d="m32.75 2-29.25 3.555v.937l29.25 4.446 29.25-4.446v-.937z" fill="#302c3b"/><path d="m3.5 6.492v24.055c0 .645 1 .645 1 0v-23.906z" fill="#ffcf0a"/><path d="m5 29.397c-.314-.39-1.646-.354-2 0-.178.177-.193.843 0 1 .389.313 1.646.354 2 0 .176-.176.156-.806 0-1" fill="#f0c100"/><path d="m6 37.897c0 2.209-.002 2-2 2-2 0-2 .209-2-2s.896-6 2-6 2 3.791 2 6" fill="#f0c100"/><path d="m3.75 39.897s.25-3.059.25-3.998l.25 3.998z" fill="#c79414"/><path d="m2.75 39.897s.25-3.059.25-3.998l.25 3.998z" fill="#c79414"/><path d="m4.75 39.897s.25-3.059.25-3.998l.25 3.998z" fill="#c79414"/><path d="m3.998 29.898c1.104 0 2 .895 2 1.999s-.896 1.999-2 1.999-1.998-.895-1.998-1.999.894-1.999 1.998-1.999" fill="#ffcf0a"/><path d="m32.739 49.742c-1.634 0-4.19-1.113-6.738-2.855 5.983 6.089 7.499 6.086 13.479-.003-2.55 1.743-5.107 2.858-6.741 2.858z" fill="#755035"/></svg>