<svg enable-background="new 0 0 64 64" height="64" viewBox="0 0 64 64" width="64" xmlns="http://www.w3.org/2000/svg" xmlns:xlink="http://www.w3.org/1999/xlink"><linearGradient id="a" gradientUnits="userSpaceOnUse" x1="44.3271" x2="44.3271" y1="60.8877" y2="46.4746"><stop offset="0" stop-color="#72a31d"/><stop offset="1" stop-color="#92c932"/></linearGradient><path d="m54.982 57.884c-1.499-2.003-1.299-5.997-2.168-7.027-2.45-2.811-10.487 10.031 2.168 7.027z" fill="#529320"/><path d="m16.746 61.349s.741-.633 1.101-1.171c.537-7.993 1.693-11.923 5.244-16.225-8.174-13.96-6.345 17.396-6.345 17.396z" fill="#594640"/><path d="m2.144 29.818c7.166 14.286 6.88 30.063 6.965 31.139.084 1.077 7.637.637 7.637.392 0-.244-.831-15.581 2.72-19.883.478-.579-16.804-12.43-17.322-11.648z" fill="#785647"/><path d="m30.888 58.195c4.482 5.774 26.975 3.719 30.435 1.957.846-.429.774-1.346.46-2.073-39.592 3.086-22.226-5.33-59.11-29.893-4.284 2.632 12.701 10.028 28.215 30.009z" fill="#c4926e"/><path d="m31.268 56.729c5.268 6.476 26.651 3.62 30.111 1.859 4.269-2.174-22.57.676-26.854-3.964-8.586-9.298-26.219-27.744-31.421-26.57-5.253 1.186 12.01 8.807 28.164 28.675z" fill="#fed0ac"/><path d="m35.7 59.452c-3.502-8.62 4.612-14.314 7.282-12.706 5.074 3.059 8.838 2.643 9.832 4.11-1.405-1.241-.78 6.805 1.003 9.398-.683.906-17.155 1.003-18.117-.802z" fill="url(#a)"/></svg>