<svg enable-background="new 0 0 64 64" height="64" viewBox="0 0 64 64" width="64" xmlns="http://www.w3.org/2000/svg"><path d="m5.945 28.929c-8.354-1.271-1.828 18.422 4.711 12.991 3.03-2.518-.804-12.395-4.711-12.991z" fill="#e6b045"/><path d="m58.057 28.929c-3.909.596-7.743 10.473-4.711 12.991 6.542 5.432 13.06-14.261 4.711-12.991z" fill="#e6b045"/><path d="m32 2c-18.025 0-27.166 10.573-25.881 28.805.22 3.142 2.606 12.406 4.863 16.08 9.099 14.82 32.937 14.82 42.036 0 2.258-3.674 4.645-12.938 4.863-16.08 1.285-18.232-7.858-28.805-25.881-28.805z" fill="#fc6"/><path d="m37 39.799c0 3.254-10 3.254-10 0 0-.746 10-.746 10 0z" fill="#e6b045"/><path d="m50.995 33.334c-2.371 6.207-12.016 5.299-13.783.955 1.341-6.978 12.481-7.576 13.783-.955z" fill="#fff"/><path d="m13.001 33.334c2.371 6.207 12.02 5.299 13.783.955-1.339-6.981-12.476-7.578-13.783-.955z" fill="#fff"/><path d="m50.688 24.807c-3.343-2.014-9.738-2.111-12.122-.708-.511.271-.174 2.181.256 1.999 3.321-1.494 8.679-1.53 11.787.128.413.213.586-1.137.079-1.419z" fill="#e6b045"/><path d="m13.311 24.807c3.343-2.014 9.737-2.111 12.122-.708.511.271.174 2.181-.255 1.999-3.326-1.494-8.679-1.53-11.788.128-.413.213-.585-1.137-.079-1.419z" fill="#e6b045"/><path d="m39.674 32.674c0 5.447 7.878 5.447 7.878 0 0-5.055-7.878-5.055-7.878 0z" fill="#613f34"/><path d="m40.452 34.418c0 3.121 6.319 3.121 6.319 0 0-2.9-6.319-2.9-6.319 0z" fill="#7d5037"/><path d="m41.977 32.76c0 2.262 3.271 2.262 3.271 0-.001-2.098-3.271-2.098-3.271 0z" fill="#1a1626"/><path d="m40.861 32.1c0 1.142 1.651 1.142 1.651 0 .001-1.059-1.651-1.059-1.651 0z" fill="#ab968c"/><path d="m16.448 32.673c0 5.446 7.879 5.446 7.879 0 0-5.055-7.879-5.055-7.879 0z" fill="#613f34"/><path d="m17.228 34.414c0 3.123 6.319 3.123 6.319 0 0-2.897-6.319-2.897-6.319 0z" fill="#7d5037"/><path d="m18.752 32.759c0 2.261 3.271 2.261 3.271 0 0-2.099-3.271-2.099-3.271 0z" fill="#1a1626"/><path d="m17.636 32.098c0 1.142 1.649 1.142 1.649 0 .001-1.06-1.649-1.06-1.649 0z" fill="#ab968c"/><path d="m50.995 33.289c0-6.665-13.783-6.665-13.783 1.055 1.969-6.333 11.814-6.333 13.783-1.055z" fill="#e6b045"/><path d="m13.001 33.289c0-6.665 13.783-6.665 13.783 1.053-1.965-6.336-11.813-6.336-13.783-1.053z" fill="#e6b045"/><path d="m33.918 9.804c15.984-1.763 9.218-7.804-2.716-7.804-3.926 0-8.472.871-10.522 1.901.84 3.804 23.799-.937 13.238 5.903z" fill="#594640"/><path d="m33.918 9.804c14.031-8.458-11.909-3.555-13.238-5.903.84 3.804 23.132-.654 13.238 5.903z" fill="#453631"/><path d="m43.779 47.908c0 12.85-23.559 12.85-23.559 0 0-6.564 5.305-3.742 11.81-3.742 6.507 0 11.749-2.822 11.749 3.742z" fill="#42ade2"/><path d="m43.779 48.693c0 12.064-23.559 12.064-23.559 0 0-6.564 5.305-3.742 11.81-3.742 6.507 0 11.749-2.822 11.749 3.742z" fill="#61c2ff"/><path d="m31.998 53.695c-6.279 0-6.279-6.283 0-6.283 6.285 0 6.285 6.283 0 6.283z" fill="#006dae"/><path d="m32 49.682c-4.771 0-8.638-.543-8.638 4.113 0 10.939 17.276 10.939 17.276 0 0-4.656-3.868-4.113-8.638-4.113zm-6.526 4.113c0-3.313 3.133-2.25 6.525-2.25 3.393 0 6.526-1.063 6.526 2.25 0 6.453-13.051 6.453-13.051 0z" fill="#afecff"/><path d="m25.755 52.432c.835-1.596 3.45-.881 6.244-.881s5.411-.715 6.247.881c-.351-2.598-12.14-2.598-12.491 0z" fill="#81adba"/><path d="m23.524 55.521c1.615 8.639 15.337 8.639 16.952 0-2.254 7.59-14.699 7.59-16.952 0z" fill="#81adba"/><path d="m33.688 52.518c-.661 0-2.644 0-3.375 0-.893 0-.893-3.928 0-3.928h3.375c.891 0 .891 3.928 0 3.928z" fill="#42ade2"/><path d="m30.255 49.104c.078-.328 3.405-.334 3.488 0 .374 1.511-3.86 1.568-3.488 0z" fill="#75d6ff"/></svg>