<svg enable-background="new 0 0 64 64" height="64" viewBox="0 0 64 64" width="64" xmlns="http://www.w3.org/2000/svg"><path d="m45.818 61.998c0-15.813-27.908-16.186-27.908 0z" fill="#9e7c37"/><path d="m15.845 16.253c-10.891 46.745-9.894 45.745 13.031 45.745-12.686-8.877 11.616-46.381-13.031-45.745z" fill="#ad883d"/><path d="m11.917 15.529c-7.948 35.516-1.091 44.635 4.998 46.469h6.978c-16.327-11.504 9.192-47.168-11.976-46.469z" fill="#c49a45"/><path d="m47.886 16.251c10.891 46.745 9.894 45.745-13.031 45.745 11.666-7.123-11.618-46.381 13.031-45.745z" fill="#ad883d"/><path d="m51.813 15.527c11.618 32.311-.026 44.973-4.998 46.469h-6.976c16.327-10.562-9.192-47.168 11.974-46.469z" fill="#c49a45"/><path d="m32 5.019c-14.512 0-21.502 11.818-20.628 27.013.179 3.054 1.028 7.46 2.077 11.236 2.176 7.847 13.661 15.75 18.551 15.75 4.888 0 16.374-7.902 18.55-15.75 1.049-3.775 1.898-8.182 2.079-11.236.871-15.195-6.116-27.013-20.629-27.013z" fill="#fc6"/><path d="m47.676 32.446c-1.939 5.074-9.826 4.33-11.271.779 1.096-5.706 10.204-6.195 11.271-.779z" fill="#fff"/><path d="m16.325 32.446c1.939 5.074 9.828 4.332 11.273.779-1.096-5.706-10.205-6.195-11.273-.779z" fill="#fff"/><path d="m32 46.482c-3.527-1.551-3.555-.063-9 .303 2.045 2.32 3.549 5.305 8.998 5.305 6.252 0 7.31-3.389 9.002-5.305-5.447-.365-5.472-1.853-9-.303z" fill="#d47706"/><path d="m24.635 47.363c3.555 3.699 11.219 3.65 14.729.002-5.472.588-9.254.588-14.729-.002z" fill="#fff"/><path d="m47.992 26.513c-3.27-1.949-9.135-2.188-11.456-.859-.492.268-.359 1.676.065 1.5 3.311-1.379 8.353-1.447 11.461.146.417.211.425-.504-.07-.787z" fill="#594640"/><path d="m16.008 26.513c3.27-1.949 9.133-2.188 11.457-.859.492.268.361 1.676-.066 1.5-3.311-1.379-8.35-1.449-11.459.146-.418.211-.426-.504.068-.787z" fill="#594640"/><path d="m36.499 41.18c0 2.928-8.999 2.928-8.999 0 0-.672 8.999-.672 8.999 0z" fill="#e6b045"/><path d="m48.215 7.132c-10.175 10.427-.464 11.101 5.531 25.759 3.363 8.212.035 25.072-6.932 29.107 7.721 0 12.424-10.688 14.717-25.389 2.865-18.367-8.145-31.011-13.316-29.477z" fill="#ffd68c"/><path d="m23.237 3.139c-12.904 3.037-24.933 14.439-20.175 36.879 2.813 13.268 6.273 21.98 13.853 21.98-8.449-8.75-7.455-27.201-5.054-31.791 12.24-7.284 33.172-12.801 36.354-23.075 1.614-2.371-12.066-7.376-24.978-3.993z" fill="#ffd68c"/><g fill="#c49a45"><path d="m13.351 19.485c5.456-1.106 31.562-1.628 34.864-12.354-6.17 4.918-12.56 6.257-34.864 12.354z"/><path d="m3.942 36.545c9.155-12.217 39.143-10.868 44.273-29.413-9.958 15.564-41.771 17.669-44.273 29.413z"/><path d="m45.197 9.674c-2.362 3.722 5.847-1.747 14.695 22.231-2.18-14.018-9.657-23.671-14.695-22.231z"/></g><path d="m38.382 31.895c0 4.494 6.5 4.494 6.5 0 0-4.172-6.5-4.172-6.5 0z" fill="#613f34"/><path d="m39.024 33.332c0 2.577 5.215 2.577 5.215 0 0-2.392-5.215-2.392-5.215 0z" fill="#7d5037"/><path d="m40.282 31.965c0 1.865 2.699 1.865 2.699 0 0-1.732-2.699-1.732-2.699 0z" fill="#1a1626"/><path d="m39.36 31.42c0 .942 1.363.942 1.363 0 .001-.875-1.363-.875-1.363 0z" fill="#ab968c"/><path d="m19.119 31.901c0 4.495 6.5 4.495 6.5 0 0-4.172-6.5-4.172-6.5 0z" fill="#613f34"/><path d="m19.761 33.338c0 2.578 5.215 2.578 5.215 0 0-2.391-5.215-2.391-5.215 0z" fill="#7d5037"/><path d="m21.019 31.972c0 1.865 2.699 1.865 2.699 0 0-1.732-2.699-1.732-2.699 0z" fill="#1a1626"/><path d="m20.097 31.426c0 .943 1.363.943 1.363 0 0-.874-1.363-.874-1.363 0z" fill="#ab968c"/><path d="m47.676 32.407c0-5.451-11.271-5.451-11.271.863 1.609-5.181 9.662-5.181 11.271-.863z" fill="#45332c"/><path d="m16.325 32.407c0-5.451 11.273-5.451 11.273.861-1.609-5.181-9.664-5.181-11.273-.861z" fill="#45332c"/></svg>