<svg enable-background="new 0 0 64 64" height="64" viewBox="0 0 64 64" width="64" xmlns="http://www.w3.org/2000/svg"><path d="m20.977 15.726c-7.432 36.657-6.752 35.872 8.893 35.872-8.657-6.959 7.927-36.37-8.893-35.872z" fill="#211e1a"/><path d="m18.297 15.157c-5.424 27.853-.746 35.003 3.41 36.44h4.76c-11.139-9.019 6.275-36.989-8.17-36.44z" fill="#26221e"/><path d="m42.842 15.724c7.432 36.657 6.75 35.872-8.893 35.872 7.961-5.584-7.928-36.37 8.893-35.872z" fill="#211e1a"/><path d="m45.521 15.157c7.928 25.339-.018 35.267-3.41 36.438h-4.76c11.141-8.281-6.273-36.989 8.17-36.438z" fill="#26221e"/><path d="m46.619 28.773c2.262 6.439.023 19.66-4.658 22.824 5.189 0 8.352-8.379 9.893-19.908 1.925-14.403-9.264-14.411-5.235-2.916z" fill="#38332d"/><path d="m12.547 34.361c1.893 10.406 4.219 17.236 9.313 17.236-5.68-6.859-5.01-21.33-3.396-24.93 8.227-5.711-9.114-9.902-5.917 7.694z" fill="#38332d"/><path d="m12.256 51.533c2.4-.992 12.363-3.604 12.363-3.604h14.838s9.953 2.609 12.34 3.602c3.471 1.442 4.203 10.469 4.203 10.469h-48s.775-9.033 4.256-10.467z" fill="#006dae"/><path d="m11.816 51.744c.512-.41 8.148-2.65 10.533-3.211 2.686 6.084 7.264 13.467 7.264 13.467h-18.379z" fill="#302c3b"/><path d="m12.256 51.533c.186-.238 9.236-3.01 9.77-2.912 2.347 5.957 6.788 13.379 6.788 13.379h-16.82z" fill="#f59e01"/><path d="m14.916 50.6c2.158-.768 4.117-1.246 4.117-1.246l1.362 12.646h-5.121z" fill="#ffe12c"/><path d="m52.184 51.744c-.512-.41-8.148-2.65-10.533-3.211-2.686 6.084-7.264 13.467-7.264 13.467h18.379z" fill="#302c3b"/><path d="m51.744 51.533c-.186-.238-9.236-3.01-9.77-2.912-2.347 5.957-6.788 13.379-6.788 13.379h16.822z" fill="#f59e01"/><path d="m49.084 50.6c-2.16-.768-4.115-1.246-4.115-1.246l-1.364 12.646h5.121z" fill="#ffe12c"/><path d="m24.383 48.662c0 6.43 15.236 6.43 15.236 0 0-3.922 0-10.404 0-10.404h-15.236z" fill="#423225"/><path d="m32 6.487c-11.609 0-17.201 9.455-16.502 21.612.143 2.443.822 5.969 1.662 8.988 1.74 6.28 10.928 12.602 14.84 12.602s13.1-6.322 14.842-12.602c.838-3.02 1.518-6.545 1.662-8.988.697-12.157-4.893-21.612-16.504-21.612z" fill="#614a36"/><path d="m32.002 39.66c-2.822-1.24-2.844-.049-7.201.242 1.637 1.857 2.84 4.244 7.199 4.244 5.002 0 5.848-2.711 7.203-4.244-4.359-.291-4.379-1.482-7.201-.242z" fill="#36281d"/><path d="m26.109 40.365c2.844 2.959 8.977 2.92 11.783.002-4.376.471-7.404.471-11.783-.002z" fill="#fff"/><path d="m44.795 23.684c-2.615-1.559-7.307-1.751-9.164-.688-.395.215-.287 1.342.053 1.201 2.648-1.104 6.682-1.158 9.168.117.332.168.339-.404-.057-.63z" fill="#36281d"/><path d="m19.207 23.684c2.615-1.559 7.307-1.751 9.166-.688.395.215.289 1.342-.053 1.201-2.648-1.104-6.68-1.16-9.168.117-.334.168-.339-.404.055-.63z" fill="#36281d"/><path d="m35.602 35.418c0 2.342-7.201 2.342-7.201 0-.001-.537 7.201-.537 7.201 0z" fill="#423225"/><path d="m44.543 28.432c-1.553 4.059-7.861 3.463-9.018.623.877-4.567 8.164-4.957 9.018-.623z" fill="#fff"/><path d="m37.107 27.99c0 3.596 5.199 3.596 5.199 0 .001-3.338-5.199-3.338-5.199 0z" fill="#613f34"/><path d="m37.621 29.139c0 2.063 4.172 2.063 4.172 0 0-1.912-4.172-1.912-4.172 0z" fill="#7d5037"/><path d="m38.627 28.047c0 1.492 2.16 1.492 2.16 0 0-1.387-2.16-1.387-2.16 0z" fill="#1a1626"/><path d="m37.891 27.609c0 .754 1.09.754 1.09 0-.001-.699-1.09-.699-1.09 0z" fill="#ab968c"/><path d="m44.543 28.4c0-4.361-9.018-4.361-9.018.689 1.288-4.144 7.731-4.144 9.018-.689z" fill="#45332c"/><path d="m19.461 28.432c1.551 4.059 7.861 3.465 9.018.623-.875-4.567-8.165-4.957-9.018-.623z" fill="#fff"/><path d="m21.695 27.994c0 3.596 5.201 3.596 5.201 0 0-3.336-5.201-3.336-5.201 0z" fill="#613f34"/><path d="m22.209 29.145c0 2.063 4.172 2.063 4.172 0 0-1.913-4.172-1.913-4.172 0z" fill="#7d5037"/><path d="m23.217 28.051c0 1.492 2.158 1.492 2.158 0 0-1.385-2.158-1.385-2.158 0z" fill="#1a1626"/><path d="m22.479 27.615c0 .754 1.09.754 1.09 0-.001-.699-1.09-.699-1.09 0z" fill="#ab968c"/><path d="m19.461 28.4c0-4.361 9.018-4.361 9.018.688-1.288-4.145-7.731-4.145-9.018-.688z" fill="#45332c"/><path d="m42.902 8.573c-6.842 8.176-.313 8.705 3.717 20.2 2.262 6.439 3.693 14.445 5.234 2.916 1.926-14.403-5.476-24.319-8.951-23.116z" fill="#38332d"/><path d="m26.111 5.44c-8.675 2.381-16.761 11.325-13.564 28.921 1.893 10.406 1.346-2.76 2.959-6.361 8.229-5.711 25.256-11.37 27.396-19.427 1.086-1.859-8.111-5.785-16.791-3.133z" fill="#38332d"/><g fill="#26221e"><path d="m19.273 18.261c3.725-.867 21.539-1.277 23.793-9.688-4.211 3.856-8.57 4.905-23.793 9.688z"/><path d="m12.854 31.639c6.248-9.581 26.713-8.523 30.213-23.065-6.796 12.204-28.504 13.854-30.213 23.065z"/><path d="m41.008 10.565c-1.613 2.918 3.988-1.369 10.027 17.435-1.488-10.993-6.59-18.563-10.027-17.435z"/></g><path d="m51.801 23.09h-39.6c0-10.431 4.955-18.54 19.801-18.54s19.799 8.109 19.799 18.54z" fill="#ffe12c"/><path d="m40.467 18.47v-12.791l-8.463-2.469-8.467 2.469v12.791c-7.949 1.016-13.535 3.418-13.535 6.224h44c0-2.806-5.588-5.209-13.535-6.224z" fill="#f9b700"/><path d="m38.998 20.677h-13.992v-15.365c0-4.416 13.992-4.416 13.992 0z" fill="#ffe12c"/><path d="m52.133 25.5-40.27-.008.043-.799h40.172z" opacity=".2"/></svg>