<svg enable-background="new 0 0 64 64" height="64" viewBox="0 0 64 64" width="64" xmlns="http://www.w3.org/2000/svg"><path d="m14.896 24.239c-5.717-1.132-1.25 16.405 3.225 11.568 2.076-2.241-.549-11.038-3.225-11.568z" fill="#946346"/><path d="m49.1 24.239c-2.676.529-5.299 9.326-3.225 11.568 4.479 4.838 8.939-12.699 3.225-11.568z" fill="#946346"/><path d="m9.787 51.757c2.701-1.511 13.908-5.499 13.908-5.499h16.695s11.197 3.981 13.881 5.496c3.907 2.198 4.729 10.246 4.729 10.246h-54s.871-8.054 4.787-10.243z" fill="#e6ebef"/><path d="m23.359 48.021c0 6.126 17.279 6.126 17.279 0 0-3.737 0-9.914 0-9.914h-17.279z" fill="#946346"/><path d="m10.451 62c.627-2.028-.113-5.113-.895-6.811-.728-1.583-.455 5.696.895 6.811" fill="#cfd8dd"/><path d="m53.549 62c-.629-2.028.109-5.113.893-6.811.726-1.583.453 5.696-.893 6.811" fill="#cfd8dd"/><path d="m31.998 52.615c2.471.908 3.94 2.022 2.957 9.385h1.137c1.002-6.831-.998-9.039-4.094-9.385z" fill="#cfd8dd"/><path d="m32.488 54.527c.551 0 1 .447 1 1s-.449 1-1 1c-.555 0-1-.447-1-1s.446-1 1-1" fill="#cfd8dd"/><path d="m32 5.486c-11.826 0-17.524 8.945-16.809 21.385.143 2.503 1.693 10.666 3.158 13.594 1.502 2.996 6.512 7.615 9.582 8.571 1.943.603 6.191.603 8.131 0 3.074-.956 8.088-5.575 9.586-8.571 1.467-2.928 3.016-11.091 3.16-13.594.713-12.44-4.984-21.385-16.808-21.385z" fill="#b88a6f"/><path d="m32 39.349c-2.66-.782-6.602.37-6.602.37 1.5 1.634 2.602 3.756 6.602 3.756 4.58 0 5.359-2.407 6.598-3.756 0 0-3.944-1.156-6.598-.37z" fill="#80553c"/><path d="m26.404 39.996c2.787 2.34 8.42 2.354 11.225 0-2.975.127-8.233.128-11.225 0z" fill="#fff"/><path d="m35.666 34.95c0 2.387-7.334 2.387-7.334 0 0-.547 7.334-.547 7.334 0z" fill="#946346"/><path d="m42.029 40.218s-.605-1.499-2.211-2.292c-2.016-.997-3.83-.754-7.82-.747-3.99-.007-5.805-.25-7.822.747-1.603.793-2.209 2.292-2.209 2.292-7.619-5.047-5.111-12.731-7.572-16.031.512 6.344 0 8.59.984 11.887 3.164 10.595 9.75 13.409 16.619 13.414 6.869-.005 13.453-2.819 16.617-13.414.986-3.297.473-5.543.986-11.887-2.458 3.3.049 10.984-7.572 16.031zm-7.849 4.919c-.955-.394-1.264-1.179-1.264-1.179h-1.834s-.311.785-1.266 1.179c-2.19.889-6.41-5.348-5.219-5.74 1.521-.5 4.17-.674 7.4-.675 3.231.001 5.879.175 7.4.675 1.193.392-3.026 6.629-5.217 5.74z" fill="#6b4435"/><path d="m44.656 27.832c-1.578 4.136-8.006 3.53-9.184.636.893-4.649 8.317-5.048 9.184-.636z" fill="#fff"/><path d="m19.338 27.832c1.58 4.136 8.01 3.53 9.186.636-.893-4.651-8.315-5.049-9.186-.636z" fill="#fff"/><path d="m45.313 22.855c-2.703-1.342-7.879-1.407-9.807-.472-.412.181-.141 1.453.207 1.332 2.688-.996 7.021-1.019 9.535.086.334.142.475-.759.065-.946z" fill="#80553c"/><path d="m18.684 22.855c2.705-1.342 7.877-1.407 9.807-.472.412.181.141 1.453-.205 1.332-2.691-.996-7.022-1.019-9.537.086-.335.142-.474-.759-.065-.946z" fill="#80553c"/><path d="m37.111 27.392c0 3.63 5.25 3.63 5.25 0 0-3.368-5.25-3.368-5.25 0z" fill="#613f34"/><path d="m37.631 28.554c0 2.081 4.211 2.081 4.211 0 0-1.933-4.211-1.933-4.211 0z" fill="#7d5037"/><path d="m38.646 27.449c0 1.507 2.18 1.507 2.18 0 0-1.398-2.18-1.398-2.18 0z" fill="#1a1626"/><path d="m37.904 27.01c0 .76 1.1.76 1.1 0 0-.706-1.1-.706-1.1 0z" fill="#ab968c"/><path d="m21.635 27.391c0 3.63 5.25 3.63 5.25 0 0-3.368-5.25-3.368-5.25 0z" fill="#613f34"/><path d="m22.154 28.552c0 2.081 4.211 2.081 4.211 0 0-1.932-4.211-1.932-4.211 0z" fill="#7d5037"/><path d="m23.17 27.448c0 1.506 2.18 1.506 2.18 0 0-1.398-2.18-1.398-2.18 0z" fill="#1a1626"/><path d="m22.426 27.008c0 .762 1.102.762 1.102 0-.001-.706-1.102-.706-1.102 0z" fill="#ab968c"/><path d="m44.656 27.802c0-4.441-9.184-4.441-9.184.703 1.311-4.221 7.874-4.221 9.184-.703z" fill="#946346"/><path d="m19.338 27.802c0-4.441 9.186-4.441 9.186.701-1.311-4.222-7.874-4.222-9.186-.701z" fill="#946346"/><path d="m51.313 11.691c.66-.793.221-1.797-1.723-3.229.002 0 .002.001.008.001-3.309-10.756-45.582-9.632-38.711 15.261-.547 4.396 1.406 7.732 1.814 7.887 4.471-8.783 13.797-12.822 22.16-15.179 12.914 3.317 16.396 15.351 16.396 15.351 2.922-3.6 2.287-7.627 2.287-7.62 1.649-4.545 1.144-9.126-2.231-12.472z" fill="#e6ebef"/><g fill="#bec3cf"><path d="m15.66 7.367c-4.445 3.51-6.846 8.851-4.773 16.357-.547 4.396 1.406 7.732 1.814 7.887 1.111-2.183 5.703-7.813 7.324-9.457-5.869 1.57-11.41-7.713-4.365-14.787z" opacity=".3"/><path d="m51.313 11.691c.66-.793.221-1.797-1.723-3.229.002 0 .002.001.008.001-.408-1.321-1.404-2.464-2.822-3.404 3.258 2.187 5.996 14.502-1.162 17.574 3.729 3.598 5.645 9.15 5.645 9.15 2.922-3.6 2.287-7.627 2.287-7.62 1.647-4.545 1.142-9.126-2.233-12.472z" opacity=".3"/><path d="m12.701 31.611c5.537-18.828 29.455-13.9 38.611-19.92-7.115 7.88-26.746 1.326-38.611 19.92z"/><path d="m53.545 24.162c-1.68-7.61-8.139-9.722-8.139-9.722l-2.074.597s5.871 1.117 10.213 9.125z"/><path d="m51.258 31.782c-3.27-12.193-14.918-15.461-14.918-15.461l-2.072.597c0-.001 12.527 3.74 16.99 14.864z"/><path d="m10.887 23.724c4.433-22.365 32.174-18.901 38.703-15.263-7.682-1.83-30.951-4.792-38.703 15.263z"/></g></svg>