<svg enable-background="new 0 0 64 64" height="64" viewBox="0 0 64 64" width="64" xmlns="http://www.w3.org/2000/svg" xmlns:xlink="http://www.w3.org/1999/xlink"><linearGradient id="a"><stop offset="0" stop-color="#288677"/><stop offset="1" stop-color="#18a891"/></linearGradient><linearGradient id="b" gradientUnits="userSpaceOnUse" x1="49" x2="49" xlink:href="#a" y1="14" y2="8"/><linearGradient id="c" gradientUnits="userSpaceOnUse" x1="15" x2="15" xlink:href="#a" y1="14" y2="8"/><linearGradient id="d" gradientUnits="userSpaceOnUse" x1="32.0005" x2="32.0005" xlink:href="#a" y1="62" y2="14.0005"/><path d="m46 8h6v6h-6z" fill="url(#b)"/><path d="m12 8h6v6h-6z" fill="url(#c)"/><path d="m56 20v12h-4v-6h-6v-12h-6v6h-16v-6h-6v12h-6v6h-4v-12h-6v18h6v12h12v6h-6v6h12v-12h12v12h12v-6h-6v-6h12v-12h6v-18z" fill="url(#d)"/><g fill="#302c3b"><path d="m20 32h6v10h-6z"/><path d="m38 32h6v10h-6z"/></g></svg>