<svg enable-background="new 0 0 64 64" height="64" viewBox="0 0 64 64" width="64" xmlns="http://www.w3.org/2000/svg"><path d="m5.945 28.929c-8.354-1.271-1.828 18.422 4.711 12.991 3.031-2.518-.803-12.395-4.711-12.991z" fill="#d6a67a"/><path d="m58.057 28.929c-3.908.596-7.742 10.473-4.711 12.991 6.543 5.432 13.06-14.261 4.711-12.991z" fill="#d6a67a"/><path d="m32 2c-18.024 0-27.165 10.573-25.881 28.805.221 3.14 2.607 12.404 4.863 16.078 9.1 14.822 32.938 14.822 42.036 0 2.258-3.674 4.645-12.938 4.863-16.078 1.285-18.232-7.858-28.805-25.881-28.805z" fill="#e3c19b"/><path d="m37 39.799c0 3.254-9.999 3.254-9.999 0 0-.748 9.999-.748 9.999 0z" fill="#d6a67a"/><path d="m50.996 33.334c-2.371 6.207-12.016 5.297-13.783.953 1.34-6.976 12.48-7.574 13.783-.953z" fill="#fff"/><path d="m13.001 33.334c2.371 6.207 12.02 5.297 13.783.953-1.339-6.979-12.476-7.576-13.783-.953z" fill="#fff"/><path d="m50.689 24.807c-3.344-2.015-9.738-2.111-12.123-.708-.51.271-.174 2.181.256 1.999 3.322-1.494 8.68-1.53 11.787.128.414.213.586-1.138.08-1.419z" fill="#d6a67a"/><path d="m13.312 24.807c3.342-2.015 9.736-2.111 12.121-.708.512.271.174 2.181-.254 1.999-3.326-1.494-8.68-1.53-11.789.128-.412.213-.584-1.138-.078-1.419z" fill="#d6a67a"/><path d="m39.674 32.673c0 5.446 7.879 5.446 7.879 0 0-5.054-7.879-5.054-7.879 0z" fill="#613f34"/><path d="m40.453 34.416c0 3.123 6.318 3.123 6.318 0 0-2.899-6.318-2.899-6.318 0z" fill="#7d5037"/><path d="m41.977 32.759c0 2.26 3.271 2.26 3.271 0 0-2.097-3.271-2.097-3.271 0z" fill="#1a1626"/><path d="m40.861 32.1c0 1.14 1.652 1.14 1.652 0 .001-1.059-1.652-1.059-1.652 0z" fill="#ab968c"/><path d="m16.449 32.672c0 5.447 7.879 5.447 7.879 0 0-5.054-7.879-5.054-7.879 0z" fill="#613f34"/><path d="m17.228 34.414c0 3.123 6.32 3.123 6.32 0 0-2.898-6.32-2.898-6.32 0z" fill="#7d5037"/><path d="m18.753 32.758c0 2.259 3.27 2.259 3.27 0 0-2.098-3.27-2.098-3.27 0z" fill="#1a1626"/><path d="m17.636 32.098c0 1.142 1.65 1.142 1.65 0 .001-1.06-1.65-1.06-1.65 0z" fill="#ab968c"/><path d="m50.996 33.287c0-6.663-13.783-6.663-13.783 1.057 1.969-6.334 11.814-6.334 13.783-1.057z" fill="#d6a67a"/><path d="m13.001 33.287c0-6.663 13.783-6.663 13.783 1.055-1.964-6.336-11.812-6.336-13.783-1.055z" fill="#d6a67a"/><path d="m33.918 9.804c15.984-1.763 9.219-7.804-2.715-7.804-3.926 0-8.473.871-10.521 1.901.839 3.804 23.798-.938 13.236 5.903z" fill="#efde8b"/><path d="m33.918 9.804c14.031-8.459-11.909-3.556-13.237-5.903.84 3.804 23.132-.654 13.237 5.903z" fill="#ba9d52"/><path d="m43.779 47.908c0 12.85-23.559 12.85-23.559 0 0-6.564 5.305-3.742 11.811-3.742s11.748-2.822 11.748 3.742z" fill="#42ade2"/><path d="m43.779 48.693c0 12.064-23.559 12.064-23.559 0 0-6.564 5.305-3.742 11.811-3.742s11.748-2.822 11.748 3.742z" fill="#61c2ff"/><path d="m31.998 53.695c-6.279 0-6.279-6.283 0-6.283 6.285 0 6.285 6.283 0 6.283z" fill="#006dae"/><path d="m32 49.682c-4.771 0-8.637-.543-8.637 4.113 0 10.939 17.276 10.939 17.276 0 0-4.656-3.869-4.113-8.639-4.113zm-6.526 4.113c0-3.313 3.133-2.25 6.525-2.25 3.393 0 6.526-1.063 6.526 2.25 0 6.453-13.051 6.453-13.051 0z" fill="#afecff"/><path d="m25.755 52.432c.836-1.596 3.451-.881 6.244-.881 2.795 0 5.411-.715 6.247.881-.351-2.598-12.139-2.598-12.491 0z" fill="#81adba"/><path d="m23.525 55.521c1.615 8.639 15.336 8.639 16.952 0-2.254 7.59-14.7 7.59-16.952 0z" fill="#81adba"/><path d="m33.689 52.518c-.662 0-2.645 0-3.375 0-.893 0-.893-3.928 0-3.928h3.375c.891 0 .891 3.928 0 3.928z" fill="#42ade2"/><path d="m30.255 49.104c.078-.328 3.405-.334 3.489 0 .373 1.511-3.86 1.568-3.489 0z" fill="#75d6ff"/></svg>