<svg enable-background="new 0 0 64 64" height="64" viewBox="0 0 64 64" width="64" xmlns="http://www.w3.org/2000/svg"><path d="m51.799 51.701c-11.348-7.238-28.186-7.187-39.543.004-3.483 2.199-4.256 10.295-4.256 10.295h48s-.73-8.089-4.201-10.299z" fill="#e6ebef"/><path d="m12.846 62c.559-2.038-.102-5.14-.795-6.847-.647-1.591-.405 5.726.795 6.847" fill="#cfd8dd"/><path d="m51.156 62c-.559-2.038.098-5.14.793-6.847.647-1.591.401 5.726-.793 6.847" fill="#cfd8dd"/><path d="m31.998 53.163c2.197.855 3.502 1.904 2.629 8.837h1.012c.89-6.432-.889-8.511-3.641-8.837z" fill="#cfd8dd"/><path d="m32.436 54.963c.488 0 .887.421.887.941 0 .521-.398.942-.887.942-.494 0-.891-.421-.891-.942 0-.52.396-.941.891-.941" fill="#cfd8dd"/><path d="m25.012 48.854c0 5.745 13.977 5.745 13.977 0 0-3.506 0-9.302 0-9.302h-13.977z" fill="#dba97f"/><path d="m15.15 26.185c-5.402-.933-1.885 13.533 2.346 9.544 1.961-1.85.182-9.106-2.346-9.544z" fill="#dba97f"/><path d="m48.852 26.185c-2.527.438-4.307 7.693-2.346 9.544 4.23 3.989 7.746-10.476 2.346-9.544z" fill="#dba97f"/><path d="m32 6.768c-11.531 0-17.086 9.392-16.391 21.464.141 2.43.816 5.93 1.65 8.93 1.731 6.236 10.856 12.517 14.741 12.517s13.012-6.28 14.74-12.517c.834-3 1.51-6.5 1.652-8.93.696-12.072-4.861-21.464-16.392-21.464z" fill="#fcd5b2"/><path d="m32 39.717c-2.803-1.231-2.824-.049-7.152.241 1.625 1.843 2.82 4.216 7.152 4.216 4.967 0 5.807-2.693 7.152-4.216-4.328-.29-4.347-1.473-7.152-.241z" fill="#d88d56"/><path d="m26.148 40.418c2.824 2.939 8.914 2.899 11.703 0-4.347.468-7.353.468-11.703 0z" fill="#fff"/><path d="m35.576 35.503c0 2.328-7.152 2.328-7.152 0 0-.533 7.152-.533 7.152 0z" fill="#dba97f"/><path d="m44.793 23.823c-2.615-1.559-7.309-1.75-9.164-.687-.393.213-.287 1.341.051 1.199 2.65-1.103 6.684-1.158 9.17.117.334.17.341-.401-.057-.629z" fill="#594640"/><path d="m19.207 23.823c2.617-1.559 7.307-1.75 9.166-.687.393.213.287 1.341-.053 1.199-2.65-1.103-6.682-1.159-9.168.117-.334.17-.342-.401.055-.629z" fill="#594640"/><path d="m19.498 28.591c1.543 4.025 7.83 3.443 8.981.628-.875-4.523-8.133-4.92-8.981-.628z" fill="#fff"/><path d="m44.506 28.59c-1.545 4.025-7.83 3.444-8.98.629.872-4.523 8.132-4.921 8.98-.629z" fill="#fff"/><path d="m37.129 28.171c0 3.549 5.133 3.549 5.133 0 0-3.294-5.133-3.294-5.133 0z" fill="#613f34"/><path d="m37.637 29.306c0 2.035 4.117 2.035 4.117 0 0-1.889-4.117-1.889-4.117 0z" fill="#7d5037"/><path d="m38.631 28.226c0 1.473 2.129 1.473 2.129 0 0-1.367-2.129-1.367-2.129 0z" fill="#1a1626"/><path d="m37.902 27.797c0 .743 1.076.743 1.076 0 .001-.691-1.076-.691-1.076 0z" fill="#ab968c"/><path d="m21.741 28.171c0 3.549 5.133 3.549 5.133 0 0-3.294-5.133-3.294-5.133 0z" fill="#613f34"/><path d="m22.249 29.306c0 2.035 4.117 2.035 4.117 0 0-1.889-4.117-1.889-4.117 0z" fill="#7d5037"/><path d="m23.243 28.226c0 1.473 2.129 1.473 2.129 0 0-1.367-2.129-1.367-2.129 0z" fill="#1a1626"/><path d="m22.515 27.797c0 .743 1.076.743 1.076 0 0-.691-1.076-.691-1.076 0z" fill="#ab968c"/><path d="m20.658 26.091c-.203-.019-.77-.088-1.248-.339.133.424.328.727.553.95-.354.09-.807.064-1.516-.308.162.522.414.874.711 1.098-.328.187-.781.278-1.598.063.527.906 1.283 1.14 1.938 1.036 1.645-3.112 6.537-3.489 8.981.662 0-3.461-5.389-5.184-7.821-3.162z" fill="#45332c"/><path d="m44.846 27.492c.295-.225.547-.575.709-1.099-.709.372-1.16.398-1.516.308.225-.224.422-.525.553-.949-.479.25-1.043.319-1.248.338-2.428-2.02-7.818-.3-7.818 3.163 2.441-4.151 7.336-3.776 8.98-.663.652.104 1.406-.129 1.934-1.036-.815.215-1.264.125-1.594-.062z" fill="#45332c"/><path d="m51.395 11.729c.66-.796.219-1.804-1.732-3.241.002 0 .004.001.008.001-3.321-10.799-45.767-9.671-38.866 15.321-.551 4.414 1.412 7.766 1.822 7.919 4.488-8.817 13.852-12.874 22.25-15.239 12.965 3.331 16.461 15.412 16.461 15.412 2.934-3.614 2.295-7.657 2.295-7.65 1.656-4.563 1.148-9.161-2.238-12.523z" fill="#e6ebef"/><g fill="#bec3cf"><path d="m15.598 7.39c-4.465 3.523-6.873 8.886-4.793 16.421-.551 4.414 1.412 7.766 1.822 7.919 1.115-2.191 5.725-7.845 7.352-9.495-5.893 1.575-11.454-7.744-4.381-14.845z" opacity=".3"/><path d="m51.395 11.729c.66-.796.219-1.804-1.732-3.241.002 0 .004.001.008.001-.408-1.328-1.408-2.475-2.834-3.419 3.273 2.194 6.021 14.562-1.166 17.645 3.744 3.613 5.668 9.188 5.668 9.188 2.934-3.614 2.295-7.657 2.295-7.65 1.655-4.564 1.147-9.162-2.239-12.524z" opacity=".3"/><path d="m12.627 31.729c5.561-18.902 29.572-13.957 38.768-20-7.147 7.913-26.856 1.332-38.768 20z"/><path d="m53.633 24.252c-1.686-7.642-8.17-9.761-8.17-9.761l-2.082.6s5.892 1.12 10.252 9.161z"/><path d="m51.338 31.902c-3.283-12.243-14.979-15.524-14.979-15.524l-2.08.6c0-.001 12.576 3.755 17.059 14.924z"/><path d="m10.805 23.81c4.449-22.454 32.302-18.974 38.857-15.322-7.713-1.838-31.076-4.812-38.857 15.322z"/></g></svg>