<svg enable-background="new 0 0 64 64" height="64" viewBox="0 0 64 64" width="64" xmlns="http://www.w3.org/2000/svg" xmlns:xlink="http://www.w3.org/1999/xlink"><linearGradient id="a" gradientUnits="userSpaceOnUse" x1="32" x2="32" y1="62" y2="2.0005"><stop offset="0" stop-color="#92c932"/><stop offset=".0386" stop-color="#94cc33"/><stop offset=".418" stop-color="#a8e839"/><stop offset=".7511" stop-color="#b4f93e"/><stop offset="1" stop-color="#b8ff3f"/></linearGradient><linearGradient id="b"><stop offset="0" stop-color="#726e7a"/><stop offset=".101" stop-color="#615d69"/><stop offset=".2508" stop-color="#4c4854"/><stop offset=".3515" stop-color="#45414d"/><stop offset=".3534" stop-color="#45414d"/><stop offset=".6086" stop-color="#2c2931"/><stop offset=".8326" stop-color="#1c1a20"/><stop offset="1" stop-color="#17151a"/></linearGradient><radialGradient id="c" cx="47.5205" cy="30.8496" gradientTransform="matrix(.7562 -.6543 .4222 .488 -1.4403 46.8889)" gradientUnits="userSpaceOnUse" r="11.0831" xlink:href="#b"/><radialGradient id="d" cx="388.8027" cy="30.8496" gradientTransform="matrix(-.7562 -.6543 -.4222 .488 323.5324 270.1881)" gradientUnits="userSpaceOnUse" r="11.0831" xlink:href="#b"/><path d="m31.999 2c-27.83.483-31.851 21.49-25.208 37.205 5.416 12.986 17.747 22.69 25.208 22.795 7.459-.106 19.797-9.805 25.209-22.795 6.645-15.715 2.623-36.723-25.209-37.205z" fill="url(#a)"/><path d="m6.984 26.757c-1.059 1.589 1.567 18.009 17.81 15.197 1.15-.198 2.674-1.307 2.813-2.461 2.316-19.5-19.364-14.624-20.623-12.736z" fill="#92c932"/><path d="m57.018 26.757c-1.259-1.889-22.94-6.765-20.622 12.736.138 1.155 1.661 2.264 2.812 2.462 16.244 2.811 18.868-13.61 17.81-15.198z" fill="#92c932"/><path d="m39.638 48.592c-4.922 3.436-10.381 3.415-15.277 0-.588-.41-1.119.302-.721.959 1.492 2.456 4.504 4.643 8.361 4.643 3.855 0 6.867-2.187 8.359-4.643.399-.657-.132-1.367-.722-.959z" fill="#1a1626"/><path d="m55.8 27.899c-1.227-1.837-22.383-6.58-20.121 12.389.135 1.122 1.621 2.202 2.742 2.394 15.85 2.734 18.412-13.239 17.379-14.783z" fill="url(#c)"/><path d="m8.201 27.899c1.227-1.837 22.382-6.58 20.121 12.389-.135 1.122-1.621 2.202-2.742 2.394-15.85 2.734-18.413-13.239-17.379-14.783z" fill="url(#d)"/></svg>