<svg enable-background="new 0 0 64 64" height="64" viewBox="0 0 64 64" width="64" xmlns="http://www.w3.org/2000/svg"><path d="m8.682 27.566c-7.797-1.406-1.707 20.397 4.396 14.383 2.829-2.787-.749-13.724-4.396-14.383z" fill="#e6b045"/><path d="m55.319 27.566c-3.648.659-7.227 11.596-4.396 14.383 6.105 6.014 12.189-15.789 4.396-14.383z" fill="#e6b045"/><path d="m31.999 2.001c-16.124 0-23.891 12.199-22.918 29.159.195 3.413 2.309 14.545 4.307 18.536 2.045 4.085 8.879 10.384 13.068 11.687 2.646.823 8.44.823 11.084 0 4.189-1.303 11.027-7.602 13.07-11.687 2-3.991 4.113-15.123 4.307-18.536.975-16.96-6.793-29.159-22.918-29.159z" fill="#fc6"/><path d="m31.999 48.176c-3.627-1.066-9 .506-9 .506 2.047 2.229 3.547 5.121 9 5.121 6.249 0 7.311-3.283 9-5.121 0 0-5.377-1.578-9-.506z" fill="#e6a400"/><path d="m24.372 49.059c3.801 3.189 11.481 3.209 15.301 0-4.051.173-11.221.175-15.301 0z" fill="#fff"/><path d="m36.999 42.179c0 3.255-9.999 3.255-9.999 0 0-.746 9.999-.746 9.999 0z" fill="#e6b045"/><path d="m31.999 2c-11.092 0-17.793 3.664-20.684 2.257 0 0-.314 1.892.818 3.124 0 0-1.195 1.033-3.125-.71-1.838 5.968 3.617 9.426 22.99 9.426 19.374 0 14.745-4.718 24.27 3.567-.933-10.212-7.423-17.664-24.269-17.664z" fill="#ffd68c"/><path d="m40.202 10.904c-10.667 3.937-14.567-3.166-24.627-3.852 4.785 2.26 7.123 5.738 11.053 8.249-8.555-2.865-14.832-7.79-15.309-11.025 0 0-1.428 4.724 4.217 8.254-5.396.5-6.523-5.841-6.523-5.841-2.733 4.391-2.356 18.553.681 29.063.506-3.75-.648-5.301 1.086-9.82 5.188-13.506 1.85-7.835 21.221-7.835 19.374 0 15.875-5.171 21.221 7.835 1.594 3.877.58 6.07 1.088 9.82 6.369-23.696-2.791-29.025-14.108-24.848z" fill="#c49a45"/><path d="m49.261 32.473c-2.154 5.64-10.918 4.813-12.525.866 1.218-6.34 11.341-6.883 12.525-.866z" fill="#fff"/><path d="m14.735 32.473c2.154 5.64 10.922 4.813 12.525.866-1.218-6.343-11.338-6.885-12.525-.866z" fill="#fff"/><path d="m50.155 25.684c-3.688-1.83-10.744-1.919-13.373-.644-.563.247-.191 1.982.283 1.816 3.664-1.357 9.572-1.39 13.002.117.457.194.647-1.033.088-1.289z" fill="#c1873c"/><path d="m13.842 25.684c3.688-1.83 10.742-1.919 13.373-.644.563.247.191 1.982-.281 1.816-3.67-1.357-9.572-1.39-13.004.117-.457.194-.644-1.033-.088-1.289z" fill="#c1873c"/><path d="m38.972 31.872c0 4.949 7.16 4.949 7.16 0 0-4.594-7.16-4.594-7.16 0z" fill="#613f34"/><path d="m39.681 33.456c0 2.838 5.742 2.838 5.742 0 0-2.635-5.742-2.635-5.742 0z" fill="#7d5037"/><path d="m41.065 31.95c0 2.055 2.973 2.055 2.973 0 0-1.907-2.973-1.907-2.973 0z" fill="#1a1626"/><path d="m40.052 31.351c0 1.037 1.5 1.037 1.5 0 0-.964-1.5-.964-1.5 0z" fill="#ab968c"/><path d="m17.868 31.871c0 4.949 7.158 4.949 7.158 0 0-4.594-7.158-4.594-7.158 0z" fill="#613f34"/><path d="m18.575 33.454c0 2.838 5.744 2.838 5.744 0 0-2.634-5.744-2.634-5.744 0z" fill="#7d5037"/><path d="m19.961 31.949c0 2.054 2.971 2.054 2.971 0 0-1.907-2.971-1.907-2.971 0z" fill="#1a1626"/><path d="m18.946 31.349c0 1.038 1.5 1.038 1.5 0 0-.964-1.5-.964-1.5 0z" fill="#ab968c"/><g fill="#e6b045"><path d="m49.261 32.431c0-6.056-12.525-6.056-12.525.959 1.788-5.756 10.736-5.756 12.525-.959z"/><path d="m14.735 32.431c0-6.056 12.525-6.056 12.525.957-1.787-5.758-10.736-5.758-12.525-.957z"/></g></svg>