<svg enable-background="new 0 0 64 64" height="64" viewBox="0 0 64 64" width="64" xmlns="http://www.w3.org/2000/svg"><path d="m9.787 52.727c2.701-1.367 13.908-4.979 13.908-4.979h16.695s11.197 3.604 13.881 4.975c3.907 1.992 4.729 9.277 4.729 9.277h-54s.871-7.291 4.787-9.273z" fill="#006dae"/><path d="m9.291 53.018c.576-.564 9.168-3.66 11.852-4.432 3.017 8.4 8.171 13.414 8.171 13.414h-20.677z" fill="#302c3b"/><path d="m9.787 52.727c.209-.326 10.391-4.154 10.99-4.02 2.641 8.225 7.637 13.293 7.637 13.293h-18.922z" fill="#f59e01"/><path d="m12.779 51.438c2.43-1.059 4.631-1.719 4.631-1.719l1.531 12.281h-5.76z" fill="#ffe12c"/><path d="m54.707 53.018c-.578-.564-9.168-3.66-11.854-4.432-3.017 8.4-8.167 13.414-8.167 13.414h20.676z" fill="#302c3b"/><path d="m54.211 52.727c-.209-.326-10.391-4.154-10.99-4.02-2.643 8.225-7.637 13.293-7.637 13.293h18.922z" fill="#f59e01"/><path d="m51.221 51.438c-2.43-1.059-4.633-1.719-4.633-1.719l-1.531 12.281h5.76z" fill="#ffe12c"/><g fill="#e6b045"><path d="m23.25 49.344c0 5.547 17.5 5.547 17.5 0 0-3.383 0-8.977 0-8.977h-17.5z"/><path d="m14.9 24.236c-5.719-1.031-1.252 14.957 3.225 10.547 2.072-2.045-.551-10.064-3.225-10.547z"/><path d="m49.1 24.236c-2.674.482-5.299 8.502-3.223 10.547 4.477 4.41 8.937-11.578 3.223-10.547z"/></g><path d="m32 5.487c-11.824 0-17.521 8.945-16.807 21.384.143 2.504 1.693 10.666 3.158 13.594 1.498 2.994 6.512 7.613 9.584 8.57 1.939.604 6.188.604 8.127 0 3.072-.957 8.086-5.576 9.586-8.57 1.465-2.928 3.016-11.09 3.158-13.594.715-12.438-4.982-21.384-16.806-21.384z" fill="#fc6"/><path d="m32 39.35c-2.66-.783-6.6.369-6.6.369 1.5 1.635 2.6 3.756 6.6 3.756 4.582 0 5.359-2.406 6.6-3.756 0 0-3.944-1.156-6.6-.369z" fill="#e6a400"/><path d="m26.406 39.996c2.787 2.34 8.418 2.354 11.221 0-2.971.127-8.229.129-11.221 0z" fill="#fff"/><path d="m35.666 34.951c0 2.387-7.332 2.387-7.332 0 0-.547 7.332-.547 7.332 0z" fill="#e6b045"/><path d="m47.576 22.074c1.146 3.82.414 5.426.785 8.164.729-2.707 1.178-5.086 1.391-8.164z" fill="#453631"/><path d="m16.428 22.074h-2.219c.309 3.453.787 5.922 1.434 8.164.369-2.738-.465-3.881.785-8.164z" fill="#453631"/><path d="m44.658 27.834c-1.58 4.135-8.008 3.529-9.186.635.895-4.651 8.319-5.047 9.186-.635z" fill="#fff"/><path d="m19.34 27.834c1.58 4.135 8.01 3.529 9.186.635-.895-4.653-8.317-5.049-9.186-.635z" fill="#fff"/><path d="m45.314 22.855c-2.705-1.343-7.879-1.407-9.807-.473-.412.182-.141 1.455.207 1.332 2.688-.994 7.02-1.018 9.535.086.335.143.476-.757.065-.945z" fill="#c1873c"/><path d="m18.686 22.855c2.703-1.343 7.877-1.407 9.807-.473.412.182.141 1.455-.207 1.332-2.691-.994-7.02-1.018-9.537.086-.335.143-.474-.757-.063-.945z" fill="#c1873c"/><path d="m37.113 27.393c0 3.629 5.25 3.629 5.25 0 0-3.37-5.25-3.37-5.25 0z" fill="#613f34"/><path d="m37.633 28.555c0 2.08 4.211 2.08 4.211 0 0-1.932-4.211-1.932-4.211 0z" fill="#7d5037"/><path d="m38.648 27.449c0 1.508 2.18 1.508 2.18 0 0-1.396-2.18-1.396-2.18 0z" fill="#1a1626"/><path d="m37.904 27.01c0 .762 1.102.762 1.102 0 0-.705-1.102-.705-1.102 0z" fill="#ab968c"/><path d="m21.637 27.393c0 3.629 5.25 3.629 5.25 0 0-3.37-5.25-3.37-5.25 0z" fill="#613f34"/><path d="m22.156 28.553c0 2.082 4.211 2.082 4.211 0 0-1.932-4.211-1.932-4.211 0z" fill="#7d5037"/><path d="m23.172 27.449c0 1.506 2.18 1.506 2.18 0 0-1.398-2.18-1.398-2.18 0z" fill="#1a1626"/><path d="m22.428 27.01c0 .76 1.1.76 1.1 0-.001-.707-1.1-.707-1.1 0z" fill="#ab968c"/><path d="m44.658 27.803c0-4.441-9.186-4.441-9.186.703 1.313-4.221 7.874-4.221 9.186-.703z" fill="#e6b045"/><path d="m19.34 27.803c0-4.441 9.186-4.441 9.186.701-1.311-4.221-7.874-4.221-9.186-.701z" fill="#e6b045"/><path d="m51.32 23.09h-38.64c0-10.431 4.834-18.54 19.32-18.54s19.32 8.109 19.32 18.54z" fill="#ffe12c"/><path d="m40.26 18.47v-12.791l-8.258-2.469-8.26 2.469v12.791c-7.758 1.016-13.209 3.418-13.209 6.224h42.934c0-2.806-5.451-5.209-13.207-6.224z" fill="#f9b700"/><path d="m38.828 20.677h-13.654v-15.365c0-4.416 13.654-4.416 13.654 0z" fill="#ffe12c"/><path d="m51.451 25.5h-38.904c.209-.404.533-.807.533-.807h37.838s.295.307.533.807z" opacity=".2"/></svg>