<svg enable-background="new 0 0 64 64" height="64" viewBox="0 0 64 64" width="64" xmlns="http://www.w3.org/2000/svg"><path d="m51.002 19.898c-7.045-4.266-30.957-4.266-38.002 0-10.412 6.307-11 42.102-11 42.102h60s-.59-35.795-10.998-42.102z" fill="#cfd8dd"/><path d="m43.053 49.998c0-12.648-22.326-12.947-22.326 0z" fill="#30231e"/><path d="m19.074 13.402c-8.713 37.397-7.916 36.596 10.426 36.596-10.15-7.1 9.291-37.104-10.426-36.596z" fill="#3b2c29"/><path d="m15.932 12.823c-6.359 28.413-.875 35.708 3.998 37.175h5.582c-13.063-9.202 7.353-37.734-9.58-37.175z" fill="#453631"/><path d="m44.707 13.4c8.713 37.396 7.916 36.596-10.426 36.596 9.334-5.697-9.293-37.104 10.426-36.596z" fill="#3b2c29"/><path d="m47.848 12.821c9.295 25.851-.02 35.979-3.998 37.175h-5.58c13.06-8.449-7.354-37.734 9.578-37.175z" fill="#453631"/><path d="m24.982 48.869c0 5.754 14.035 5.754 14.035 0 0-3.512 0-9.316 0-9.316h-14.035z" fill="#fc6"/><path d="m24.801 44.295c6.544 6.736 7.858 6.73 14.398-.004z" fill="#e6b045"/><path d="m31.998 4.416c-11.609 0-17.203 9.454-16.502 21.61.143 2.443.822 5.968 1.66 8.99 1.742 6.277 10.93 12.6 14.842 12.6 3.91 0 13.1-6.322 14.842-12.6.836-3.021 1.518-6.547 1.664-8.99.695-12.156-4.895-21.61-16.506-21.61z" fill="#fc6"/><path d="m31.998 37.588c-2.822-1.242-2.842-.051-7.199.24 1.637 1.856 2.84 4.244 7.197 4.244 5.004 0 5.85-2.711 7.203-4.244-4.359-.291-4.377-1.482-7.201-.24z" fill="#e81c27"/><path d="m26.107 38.291c2.842 2.959 8.975 2.92 11.781.002-4.374.471-7.404.471-11.781-.002z" fill="#fff"/><path d="m44.791 21.61c-2.615-1.559-7.309-1.75-9.164-.687-.393.213-.287 1.34.051 1.199 2.65-1.102 6.684-1.158 9.17.118.334.168.341-.403-.057-.63z" fill="#594640"/><path d="m19.205 21.61c2.617-1.559 7.307-1.75 9.166-.687.393.213.287 1.34-.053 1.199-2.65-1.102-6.682-1.159-9.168.118-.334.168-.341-.403.055-.63z" fill="#594640"/><path d="m35.598 33.345c0 2.343-7.199 2.343-7.199 0-.001-.538 7.199-.538 7.199 0z" fill="#e6b045"/><path d="m44.973 6.106c-8.141 8.34-.373 8.88 4.424 20.607 2.689 6.571.027 20.057-5.547 23.285 6.178 0 9.941-8.551 11.775-20.31 2.291-14.694-6.518-24.81-10.652-23.582z" fill="#594640"/><path d="m24.306 3.025c-10.354 2.291-19.263 11.438-15.458 29.39 2.25 10.614 5.018 17.583 11.082 17.583-6.758-6.998-5.965-21.759-4.043-25.433 9.793-5.828 26.537-10.241 29.086-18.459 1.287-1.898-10.217-5.393-20.667-3.081z" fill="#594640"/><path d="m9.553 29.637c7.322-9.775 31.314-8.696 35.42-23.531-7.967 12.452-33.42 14.134-35.42 23.531z" fill="#453631"/><path d="m11.162 52.379c2.533-1.42 14.105-5.166 14.105-5.166 3.728 3.727 9.817 3.727 13.545 0 0 0 11.561 3.74 14.082 5.162 3.665 2.066 4.438 9.625 4.438 9.625h-50.662s.816-7.566 4.492-9.621z" fill="#fc6"/><path d="m34.402 54.867c-1.351.887-2.402 2.899-2.402 2.899s-1.051-2.012-2.402-2.898c2.4 4.529 1.82 6.564 1.82 6.564h1.162s-.582-2.319 1.822-6.565z" fill="#e6b045"/><path d="m10.537 52.574c-.083-.834 1.417-1.875 2.104-1.271.54-1.125 2.354-1.18 2.4-.561.516 6.852 3.12 9.895.435 11.258-5.397-1.051-8.626-9.26-4.939-9.426z" fill="#fff"/><path d="m12.814 51.887c-.134 2.061 1.618 5.77 3.473 9.469-5.854-9.219-3.384-10.833-3.473-9.469z" fill="#e6ebef"/><path d="m10.495 52.865c-.271.604.354 4.541 4.833 8.566-4.375-4.816-4.516-9.271-4.833-8.566z" fill="#e6ebef"/><path d="m53.463 52.574c.083-.834-1.417-1.875-2.104-1.271-.54-1.125-2.354-1.18-2.4-.561-.516 6.852-3.12 9.895-.435 11.258 5.397-1.051 8.626-9.26 4.939-9.426z" fill="#fff"/><path d="m51.186 51.887c.134 2.061-1.618 5.77-3.473 9.469 5.854-9.219 3.384-10.833 3.473-9.469z" fill="#e6ebef"/><path d="m53.505 52.865c.271.604-.354 4.541-4.833 8.566 4.375-4.816 4.516-9.271 4.833-8.566z" fill="#e6ebef"/><path d="m32 60.77c-7.543-7.582-17.813-3.332-17.813 1.23h35.625c.001-4.562-10.269-8.812-17.812-1.23z" fill="#f2f5f7"/><path d="m32.002 2c-27.564 0-24.076 24.623-24.077 24.624 6.21-6.227 14.433-10.114 24.077-10.114 9.643 0 17.863 3.887 24.071 10.114 0-.001 3.491-24.624-24.071-24.624z" fill="#cfd8dd" opacity=".8"/><path d="m55.33 31.381c2.185-30.91-48.847-30.91-46.662 0 1.903-25.96 44.759-25.96 46.662 0z" fill="#cfd8dd"/><g fill="#fff"><path d="m55.33 30.381c2.185-30.91-48.847-30.91-46.662 0 1.903-25.96 44.759-25.96 46.662 0z"/><path d="m19.496 26.377c1.543 4.025 7.83 3.443 8.98.627-.874-4.521-8.132-4.919-8.98-.627z"/><path d="m44.504 26.376c-1.545 4.025-7.83 3.444-8.98.628.872-4.522 8.132-4.92 8.98-.628z"/></g><path d="m37.127 25.957c0 3.549 5.133 3.549 5.133 0 0-3.293-5.133-3.293-5.133 0z" fill="#613f34"/><path d="m37.635 27.092c0 2.035 4.117 2.035 4.117 0 0-1.888-4.117-1.888-4.117 0z" fill="#7d5037"/><path d="m38.629 26.013c0 1.473 2.129 1.473 2.129 0 0-1.367-2.129-1.367-2.129 0z" fill="#1a1626"/><path d="m37.9 25.583c0 .744 1.076.744 1.076 0 .001-.69-1.076-.69-1.076 0z" fill="#ab968c"/><path d="m21.739 25.957c0 3.549 5.133 3.549 5.133 0 0-3.293-5.133-3.293-5.133 0z" fill="#613f34"/><path d="m22.247 27.092c0 2.035 4.117 2.035 4.117 0 0-1.888-4.117-1.888-4.117 0z" fill="#7d5037"/><path d="m23.241 26.013c0 1.473 2.129 1.473 2.129 0 0-1.367-2.129-1.367-2.129 0z" fill="#1a1626"/><path d="m22.513 25.583c0 .744 1.076.744 1.076 0 0-.69-1.076-.69-1.076 0z" fill="#ab968c"/><path d="m20.656 23.877c-.203-.019-.77-.088-1.248-.339.133.424.328.727.553.95-.354.09-.807.064-1.516-.308.162.523.414.874.711 1.098-.328.187-.781.278-1.598.063.527.907 1.283 1.14 1.938 1.037 1.645-3.113 6.537-3.49 8.98.662.001-3.461-5.388-5.184-7.82-3.163z" fill="#45332c"/><path d="m44.844 25.278c.295-.224.547-.575.709-1.098-.709.372-1.16.398-1.516.308.225-.224.422-.525.553-.949-.479.25-1.043.319-1.248.337-2.428-2.019-7.818-.299-7.818 3.163 2.441-4.151 7.336-3.776 8.98-.663.652.104 1.406-.129 1.934-1.036-.815.216-1.264.125-1.594-.062z" fill="#45332c"/></svg>