<svg enable-background="new 0 0 64 64" height="64" viewBox="0 0 64 64" width="64" xmlns="http://www.w3.org/2000/svg"><path d="m8.682 27.565c-7.797-1.406-1.707 20.396 4.396 14.382 2.829-2.787-.749-13.722-4.396-14.382z" fill="#d6a67a"/><path d="m55.318 27.565c-3.646.66-7.225 11.595-4.396 14.382 6.107 6.014 12.189-15.788 4.396-14.382z" fill="#d6a67a"/><path d="m32 2c-16.123 0-23.892 12.198-22.917 29.159.195 3.414 2.309 14.544 4.307 18.537 2.043 4.084 8.879 10.383 13.068 11.686 2.646.824 8.439.824 11.083 0 4.189-1.303 11.025-7.602 13.07-11.686 1.998-3.992 4.111-15.123 4.307-18.537.975-16.961-6.793-29.159-22.918-29.159z" fill="#e3c19b"/><path d="m49.594 9.854c4.168 5.277 1.746 10.611 3.795 15.813 1.547 3.928.586 6.115 1.094 9.892.951-7.578 4.592-8.029 3.092-15.48-1.179-5.85-7.981-10.225-7.981-10.225z" fill="#99a8ae"/><path d="m14.407 9.854c-4.17 5.277-1.748 10.611-3.797 15.813-1.547 3.928-.584 6.115-1.092 9.892-.953-7.578-4.593-8.029-3.092-15.48 1.178-5.85 7.981-10.225 7.981-10.225z" fill="#99a8ae"/><g fill="#d6a67a"><path d="m37.055 34.797c1.996 3.773 9.945 5.084 9.945 5.084s-8.496-3.074-9.945-5.084z"/><path d="m17 39.881s7.92-1.273 9.945-5.084c-1.45 2.01-9.945 5.084-9.945 5.084z"/><path d="m45 17.409c-6.016-3.98-19.904-4.018-26 0 6.784-3.367 19.221-3.367 26 0z"/><path d="m49 22.993c-7.867-4.645-26.029-4.688-34 0 8.368-3.707 25.637-3.705 34 0z"/></g><path d="m22.25 49.139c4.277 3.988 15.238 4.012 19.546 0-5.107 1.136-14.401 1.144-19.546 0z" fill="#a17c5b"/><path d="m50.156 26.684c-3.688-1.83-10.744-1.92-13.373-.645-.563.248-.191 1.982.283 1.816 3.664-1.357 9.572-1.389 13.002.117.455.195.647-1.032.088-1.288z" fill="#99a8ae"/><path d="m13.844 26.684c3.688-1.83 10.742-1.92 13.373-.645.563.248.191 1.982-.281 1.816-3.67-1.357-9.574-1.389-13.006.117-.455.195-.644-1.032-.086-1.288z" fill="#99a8ae"/><path d="m49 34.107c-1.281 3.893-11.244 2.348-12 .194 1.168-7.049 10.865-6.883 12-.194z" fill="#fff"/><path d="m38.92 32.52c0 4.949 7.158 4.949 7.158 0 0-4.594-7.158-4.594-7.158 0z" fill="#613f34"/><path d="m39.627 34.104c0 2.838 5.744 2.838 5.744 0 0-2.635-5.744-2.635-5.744 0z" fill="#7d5037"/><path d="m41.014 32.598c0 2.054 2.971 2.054 2.971 0-.001-1.906-2.971-1.906-2.971 0z" fill="#1a1626"/><path d="m40 31.999c0 1.037 1.5 1.037 1.5 0 0-.963-1.5-.963-1.5 0z" fill="#ab968c"/><path d="m49 34.061c0-6.734-12-7.503-12 .295 1.713-6.398 10.285-5.629 12-.295z" fill="#d6a67a"/><path d="m14.999 34.107c1.283 3.893 11.246 2.348 12 .193-1.166-7.048-10.864-6.882-12-.193z" fill="#fff"/><path d="m17.918 32.52c0 4.949 7.158 4.949 7.158 0 .001-4.594-7.158-4.594-7.158 0z" fill="#613f34"/><path d="m18.625 34.104c0 2.838 5.744 2.838 5.744 0 .001-2.635-5.744-2.635-5.744 0z" fill="#7d5037"/><path d="m20.012 32.598c0 2.054 2.971 2.054 2.971 0 0-1.906-2.971-1.906-2.971 0z" fill="#1a1626"/><path d="m18.999 31.999c0 1.037 1.5 1.037 1.5 0 0-.963-1.5-.963-1.5 0z" fill="#ab968c"/><path d="m14.999 34.061c0-6.732 12-7.503 12 .293-1.713-6.396-10.286-5.627-12-.293z" fill="#d6a67a"/><path d="m36.998 43.178c0 3.254-9.998 3.254-9.998 0 0-.746 9.998-.746 9.998 0z" fill="#d6a67a"/><path d="m26.502 43.52c-2.994 3.211-6.209 5.219-4.975 9.768.132-4.319 2.87-5.134 4.975-9.768z" fill="#d6a67a"/><path d="m42.473 53.285c1.223-4.5-1.953-6.523-4.977-9.764 2.106 4.639 4.84 5.448 4.977 9.764z" fill="#d6a67a"/></svg>