<svg enable-background="new 0 0 64 64" height="64" viewBox="0 0 64 64" width="64" xmlns="http://www.w3.org/2000/svg"><path d="m8.682 27.565c-7.797-1.406-1.707 20.396 4.397 14.383 2.827-2.787-.75-13.723-4.397-14.383z" fill="#e6b045"/><path d="m55.319 27.565c-3.647.659-7.226 11.596-4.396 14.383 6.106 6.014 12.189-15.789 4.396-14.383z" fill="#e6b045"/><path d="m32 2c-16.123 0-23.892 12.198-22.918 29.16.195 3.414 2.309 14.543 4.307 18.537 2.044 4.084 8.879 10.383 13.068 11.686 2.646.824 8.439.824 11.084 0 4.189-1.303 11.026-7.602 13.07-11.686 1.999-3.993 4.112-15.123 4.307-18.537.976-16.962-6.793-29.16-22.918-29.16z" fill="#fc6"/><path d="m49.594 9.855c4.169 5.277 1.747 10.61 3.796 15.812 1.547 3.927.585 6.114 1.093 9.893.952-7.579 4.592-8.03 3.092-15.48-1.179-5.851-7.981-10.225-7.981-10.225z" fill="#99a8ae"/><path d="m14.406 9.855c-4.169 5.277-1.747 10.61-3.796 15.812-1.547 3.927-.585 6.114-1.093 9.893-.952-7.579-4.592-8.03-3.092-15.48 1.179-5.851 7.981-10.225 7.981-10.225z" fill="#99a8ae"/><g fill="#e6b045"><path d="m37.055 34.798c1.996 3.772 9.945 5.084 9.945 5.084s-8.495-3.074-9.945-5.084z"/><path d="m17 39.882s7.921-1.274 9.945-5.084c-1.451 2.01-9.945 5.084-9.945 5.084z"/><path d="m45 17.409c-6.016-3.981-19.904-4.019-26 0 6.784-3.367 19.221-3.367 26 0z"/><path d="m49 22.993c-7.867-4.645-26.028-4.688-34 0 8.368-3.707 25.637-3.706 34 0z"/></g><path d="m22.251 49.14c4.276 3.987 15.238 4.012 19.547 0-5.108 1.136-14.403 1.144-19.547 0z" fill="#a17b31"/><path d="m50.156 26.684c-3.688-1.83-10.744-1.919-13.373-.644-.563.247-.191 1.982.283 1.816 3.664-1.357 9.572-1.39 13.002.117.456.194.647-1.034.088-1.289z" fill="#99a8ae"/><path d="m13.844 26.684c3.688-1.83 10.742-1.919 13.373-.644.563.247.191 1.982-.281 1.816-3.67-1.357-9.573-1.39-13.005.117-.456.194-.645-1.034-.087-1.289z" fill="#99a8ae"/><path d="m49.001 34.108c-1.281 3.893-11.244 2.348-12 .193 1.168-7.048 10.865-6.882 12-.193z" fill="#fff"/><path d="m38.921 32.521c0 4.949 7.158 4.949 7.158 0 0-4.594-7.158-4.594-7.158 0z" fill="#613f34"/><path d="m39.628 34.104c0 2.838 5.744 2.838 5.744 0 0-2.634-5.744-2.634-5.744 0z" fill="#7d5037"/><path d="m41.015 32.599c0 2.055 2.971 2.055 2.971 0-.001-1.906-2.971-1.906-2.971 0z" fill="#1a1626"/><path d="m40.001 32c0 1.037 1.5 1.037 1.5 0 0-.963-1.5-.963-1.5 0z" fill="#ab968c"/><path d="m49.001 34.062c0-6.734-12-7.503-12 .295 1.713-6.399 10.285-5.629 12-.295z" fill="#e6b045"/><path d="m14.999 34.108c1.283 3.893 11.246 2.348 12 .193-1.166-7.048-10.863-6.882-12-.193z" fill="#fff"/><path d="m17.919 32.521c0 4.949 7.158 4.949 7.158 0 0-4.594-7.158-4.594-7.158 0z" fill="#613f34"/><path d="m18.626 34.104c0 2.838 5.744 2.838 5.744 0 0-2.634-5.744-2.634-5.744 0z" fill="#7d5037"/><path d="m20.013 32.599c0 2.055 2.971 2.055 2.971 0-.001-1.906-2.971-1.906-2.971 0z" fill="#1a1626"/><path d="m18.999 32c0 1.037 1.5 1.037 1.5 0 0-.963-1.5-.963-1.5 0z" fill="#ab968c"/><path d="m14.999 34.062c0-6.732 12-7.503 12 .293-1.713-6.397-10.285-5.627-12-.293z" fill="#e6b045"/><path d="m36.999 43.179c0 3.254-9.998 3.254-9.998 0 0-.747 9.998-.747 9.998 0z" fill="#e6b045"/><path d="m26.502 43.521c-2.993 3.21-6.209 5.218-4.975 9.767.132-4.318 2.87-5.133 4.975-9.767z" fill="#e6b045"/><path d="m42.473 53.286c1.223-4.501-1.953-6.523-4.976-9.765 2.106 4.639 4.84 5.448 4.976 9.765z" fill="#e6b045"/></svg>