<svg enable-background="new 0 0 64 64" height="64" viewBox="0 0 64 64" width="64" xmlns="http://www.w3.org/2000/svg" xmlns:xlink="http://www.w3.org/1999/xlink"><radialGradient id="a" cx="29.5571" cy="31.998" gradientTransform="matrix(1.0108 0 0 1 -3.3147 .0033)" gradientUnits="userSpaceOnUse" r="27.2994"><stop offset=".4848" stop-color="#ff3030"/><stop offset="1" stop-color="#d40000"/></radialGradient><linearGradient id="b"><stop offset="0" stop-color="#9c0000"/><stop offset="1" stop-color="#9c0000" stop-opacity="0"/></linearGradient><linearGradient id="c" gradientUnits="userSpaceOnUse" x1="41.5947" x2="41.4072" xlink:href="#b" y1="35.6699" y2="40.9195"/><linearGradient id="d" gradientUnits="userSpaceOnUse" x1="44.5381" x2="42.3524" xlink:href="#b" y1="29.8604" y2="24.6771"/><linearGradient id="e"><stop offset=".1455" stop-color="#676175"/><stop offset="1" stop-color="#1a1626"/></linearGradient><radialGradient id="f" cx="37.418" cy="33.873" gradientTransform="matrix(1.0108 0 0 1 -3.3147 .0033)" gradientUnits="userSpaceOnUse" r="24.6288" xlink:href="#e"/><radialGradient id="g" cx="37.418" cy="33.873" gradientTransform="matrix(1.0108 0 0 1 -3.3147 .0033)" gradientUnits="userSpaceOnUse" r="24.6283" xlink:href="#e"/><radialGradient id="h" cx="37.417" cy="33.8711" gradientTransform="matrix(1.0108 0 0 1 -3.3147 .0033)" gradientUnits="userSpaceOnUse" r="24.6303" xlink:href="#e"/><radialGradient id="i" cx="37.417" cy="33.873" gradientTransform="matrix(1.0108 0 0 1 -3.3147 .0033)" gradientUnits="userSpaceOnUse" r="24.6279" xlink:href="#e"/><radialGradient id="j" cx="37.416" cy="33.873" gradientTransform="matrix(1.0108 0 0 1 -3.3147 .0033)" gradientUnits="userSpaceOnUse" r="24.6298" xlink:href="#e"/><linearGradient id="k" gradientUnits="userSpaceOnUse" x1="44.1104" x2="46.4292" y1="24.0283" y2="35.5599"><stop offset=".4848" stop-color="#ff3030"/><stop offset=".5921" stop-color="#ef2929"/><stop offset=".7999" stop-color="#c61515"/><stop offset="1" stop-color="#900"/></linearGradient><linearGradient id="l" gradientUnits="userSpaceOnUse" x1="31.936" x2="57.582" y1="28.1328" y2="28.1328"><stop offset=".2727" stop-color="#ff3030"/><stop offset="1" stop-color="#ff5757"/></linearGradient><path d="m48.515 45.447c-3.001 8.796-7.348 16.546-16.933 16.553-9.598.006-22.246-7.095-26.117-15.604-3.591-7.898-4.794-29.89-1.665-38.011.922-2.396 2.3-4.893 4.704-5.411 10.559-2.285 23.763.681 35.953-.951 2.445-.326 3.782 3.017 4.706 5.413 3.13 8.122 2.206 29.645-.648 38.011z" fill="url(#a)"/><path d="m32.799 38.438c8.361 2.38 13.774 7.284 14.234 10.94 2.633-6.065 3.196-12.029 3.196-12.029s-5.774-3.636-17.43 1.089z" fill="url(#c)"/><path d="m32.578 28.174c5.869 1.101 16.236-.236 18.543-2.287 0-4.396-.128-7.396-.128-7.396s-9.478 7.566-18.415 9.683z" fill="url(#d)"/><path d="m8.098 8.382s5.189 12.646 22.519 12.646c4.401 0-1.088-8.753-9.647-12.44 1.944 2.373 5.59 4.376 6.346 6.991.568 1.967-12.76-10.232-15.744-10.679-1.885-.281.064 5.075.064 5.075z" fill="url(#f)"/><path d="m49.612 9.221s-2.523 11.807-10.946 11.807c-2.139 0 .529-8.174 4.69-11.616-.944 2.215-2.717 4.086-3.084 6.528-.278 1.836 6.201-9.555 7.649-9.971.92-.263-.029 4.738-.029 4.738z" fill="url(#g)"/><path d="m42.578 55.307s-2.001-7.94-6.654-7.084c-9.275 1.704-10.805 10.498-10.805 10.498l1.737-1.392s-.514 3.699.468 3.329c1.554-.585 7.483-9.889 7.37-8.542-.144 1.786-1.897 3.458-2.705 5.202 1.902-1.467 3.363-3.545 4.185-5.351.743 1.437 1.853 2.978 3.037 3.828-.727-1.356-1.86-2.409-2.297-3.971-.33-1.181 4.265 5.647 5.08 5.775.518.083-.483-3.099-.483-3.099z" fill="url(#h)"/><path d="m29.361 23.207c3.08 12.047-21.652 9.3-17.724-1.334.763-2.063 2.665-3.383 2.665-3.383s7.38 3.887 15.059 4.717z" fill="#fff"/><path d="m25.873 26.057c0 3.797-6.096 3.797-6.096 0 0-3.799 6.096-3.799 6.096 0z" fill="#1a1626"/><path d="m38.01 22.977c-1.9 12.047 13.377 9.299 10.951-1.336-.47-2.062-1.646-3.382-1.646-3.382s-4.559 3.887-9.305 4.718z" fill="#fff"/><path d="m40.663 25.234c0 3.393 5.443 3.393 5.443 0 0-3.391-5.443-3.391-5.443 0z" fill="#1a1626"/><path d="m44.988 50.402c-1.121 5.528-4.757-4.688-9.122-4.688-8.531 0-12.643 17.154-15.446 8.583-1.567-4.795 6.915-10.449 15.446-10.449 3.096.002 10.24 1.052 9.122 6.554z" fill="#fff"/><path d="m32.17 41.473c-11.118 1.931-8.89 5.507-15.646 7.051-6.754 1.54-17.052-7.217-9.436-14.579.424 4.207 3.541 5.324 3.541 5.324s-.495-1.96 1.833-4.463c1.736 3.344 3.767 7.952 19.708 6.667z" fill="url(#i)"/><path d="m40.557 41.4c4.76 1.018 3.807 2.896 6.696 3.707s7.299-3.793 4.037-7.664c-.181 2.21-1.514 2.801-1.514 2.801s.211-1.031-.784-2.349c-.744 1.758-1.613 4.183-8.435 3.505z" fill="url(#j)"/><path d="m58.827 34.761c-7.955 3.047-16.845 4.519-26.052 4.032-4.682-.35-3.888-11.253-.232-10.881 7.613.541 14.926-.578 21.413-2.975 5.424-2.28 12.116 6.667 4.871 9.824z" fill="url(#k)"/><path d="m56.742 26.417c-4.461-2.633-1.601 2.152-24.806 2.487 8.034 3.752 30.217.706 24.806-2.487z" fill="url(#l)"/><g fill="#fff"><path d="m41.469 24.03c0 .667 1.011.667 1.011 0-.001-.666-1.011-.665-1.011 0z"/><path d="m20.783 24.53c0 .667 1.011.667 1.011 0s-1.011-.666-1.011 0z"/></g></svg>