<svg enable-background="new 0 0 64 64" height="64" viewBox="0 0 64 64" width="64" xmlns="http://www.w3.org/2000/svg"><path d="m20.975 15.726c-7.432 36.657-6.75 35.872 8.895 35.872-8.659-6.959 7.925-36.37-8.895-35.872z" fill="#3b2c29"/><path d="m18.295 15.157c-5.424 27.853-.744 35.003 3.41 36.44h4.762c-11.141-9.019 6.273-36.989-8.172-36.44z" fill="#453631"/><path d="m42.842 15.724c7.43 36.657 6.75 35.872-8.895 35.872 7.963-5.584-7.927-36.37 8.895-35.872z" fill="#3b2c29"/><path d="m45.52 15.157c7.93 25.339-.018 35.267-3.41 36.438h-4.76c11.14-8.281-6.274-36.989 8.17-36.438z" fill="#453631"/><path d="m46.617 28.773c2.264 6.439.025 19.66-4.658 22.824 5.189 0 8.354-8.379 9.893-19.908 1.925-14.403-9.264-14.411-5.235-2.916z" fill="#594640"/><path d="m12.547 34.361c1.891 10.406 4.219 17.236 9.313 17.236-5.68-6.859-5.012-21.33-3.396-24.93 8.225-5.711-9.114-9.902-5.917 7.694z" fill="#594640"/><path d="m12.256 51.533c2.4-.992 12.361-3.604 12.361-3.604h14.84s9.953 2.609 12.338 3.602c3.471 1.442 4.205 10.469 4.205 10.469h-48s.773-9.033 4.256-10.467z" fill="#006dae"/><path d="m11.814 51.744c.512-.41 8.15-2.65 10.533-3.211 2.686 6.084 7.264 13.467 7.264 13.467h-18.379z" fill="#302c3b"/><path d="m12.256 51.533c.186-.238 9.236-3.01 9.77-2.912 2.347 5.957 6.787 13.379 6.787 13.379h-16.82z" fill="#f59e01"/><path d="m14.914 50.6c2.16-.768 4.117-1.246 4.117-1.246l1.362 12.646h-5.119z" fill="#ffe12c"/><path d="m52.184 51.744c-.514-.41-8.15-2.65-10.535-3.211-2.684 6.084-7.262 13.467-7.262 13.467h18.379z" fill="#302c3b"/><path d="m51.742 51.533c-.186-.238-9.236-3.01-9.77-2.912-2.347 5.957-6.786 13.379-6.786 13.379h16.82z" fill="#f59e01"/><path d="m49.084 50.6c-2.162-.768-4.117-1.246-4.117-1.246l-1.362 12.646h5.119z" fill="#ffe12c"/><path d="m24.383 48.662c0 6.43 15.234 6.43 15.234 0 0-3.922 0-10.404 0-10.404h-15.234z" fill="#e6b045"/><path d="m32 6.487c-11.609 0-17.201 9.455-16.502 21.612.143 2.443.822 5.969 1.66 8.988 1.742 6.28 10.93 12.602 14.842 12.602 3.91 0 13.1-6.322 14.84-12.602.84-3.02 1.52-6.545 1.664-8.988.697-12.157-4.893-21.612-16.504-21.612z" fill="#fc6"/><path d="m32 39.66c-2.822-1.24-2.844-.049-7.199.242 1.635 1.857 2.838 4.244 7.197 4.244 5.004 0 5.85-2.711 7.203-4.244-4.359-.291-4.379-1.482-7.201-.242z" fill="#d47706"/><path d="m26.107 40.365c2.844 2.959 8.977 2.92 11.785.002-4.378.471-7.404.471-11.785-.002z" fill="#fff"/><path d="m44.795 23.684c-2.617-1.559-7.309-1.751-9.166-.688-.393.215-.287 1.342.053 1.201 2.648-1.104 6.682-1.158 9.168.117.334.168.339-.404-.055-.63z" fill="#594640"/><path d="m19.207 23.684c2.615-1.559 7.307-1.751 9.166-.688.393.215.289 1.342-.055 1.201-2.648-1.104-6.68-1.16-9.166.117-.334.168-.341-.404.055-.63z" fill="#594640"/><path d="m35.6 35.418c0 2.342-7.199 2.342-7.199 0-.001-.537 7.199-.537 7.199 0z" fill="#e6b045"/><path d="m44.541 28.432c-1.551 4.059-7.861 3.463-9.016.623.875-4.567 8.163-4.957 9.016-.623z" fill="#fff"/><path d="m37.105 27.99c0 3.596 5.201 3.596 5.201 0 .001-3.338-5.201-3.338-5.201 0z" fill="#613f34"/><path d="m37.619 29.139c0 2.063 4.172 2.063 4.172 0 0-1.912-4.172-1.912-4.172 0z" fill="#7d5037"/><path d="m38.627 28.047c0 1.492 2.158 1.492 2.158 0 0-1.387-2.158-1.387-2.158 0z" fill="#1a1626"/><path d="m37.889 27.609c0 .754 1.09.754 1.09 0 0-.699-1.09-.699-1.09 0z" fill="#ab968c"/><path d="m44.541 28.4c0-4.361-9.016-4.361-9.016.689 1.286-4.144 7.729-4.144 9.016-.689z" fill="#45332c"/><path d="m19.459 28.432c1.553 4.059 7.863 3.465 9.02.623-.877-4.567-8.165-4.957-9.02-.623z" fill="#fff"/><path d="m21.695 27.994c0 3.596 5.199 3.596 5.199 0 .001-3.336-5.199-3.336-5.199 0z" fill="#613f34"/><path d="m22.209 29.145c0 2.063 4.172 2.063 4.172 0 0-1.913-4.172-1.913-4.172 0z" fill="#7d5037"/><path d="m23.215 28.051c0 1.492 2.16 1.492 2.16 0 0-1.385-2.16-1.385-2.16 0z" fill="#1a1626"/><path d="m22.479 27.615c0 .754 1.09.754 1.09 0-.001-.699-1.09-.699-1.09 0z" fill="#ab968c"/><path d="m19.459 28.4c0-4.361 9.02-4.361 9.02.688-1.288-4.145-7.731-4.145-9.02-.688z" fill="#45332c"/><path d="m42.9 8.573c-6.84 8.176-.313 8.705 3.717 20.2 2.264 6.439 3.695 14.445 5.234 2.916 1.926-14.403-5.476-24.319-8.951-23.116z" fill="#594640"/><path d="m26.109 5.44c-8.675 2.381-16.759 11.325-13.562 28.921 1.891 10.406 1.344-2.76 2.959-6.361 8.226-5.711 25.256-11.37 27.394-19.427 1.086-1.859-8.111-5.785-16.791-3.133z" fill="#594640"/><g fill="#453631"><path d="m19.273 18.261c3.725-.867 21.539-1.277 23.791-9.688-4.209 3.856-8.57 4.905-23.791 9.688z"/><path d="m12.854 31.639c6.248-9.581 26.711-8.523 30.211-23.065-6.794 12.204-28.504 13.854-30.211 23.065z"/><path d="m41.006 10.565c-1.613 2.918 3.99-1.369 10.029 17.435-1.488-10.993-6.592-18.563-10.029-17.435z"/></g><path d="m51.801 23.09h-39.6c0-10.431 4.953-18.54 19.799-18.54s19.801 8.109 19.801 18.54z" fill="#ffe12c"/><path d="m40.465 18.47v-12.791l-8.463-2.469-8.467 2.469v12.791c-7.947 1.015-13.535 3.418-13.535 6.223h44c0-2.805-5.586-5.208-13.535-6.223z" fill="#f9b700"/><path d="m38.998 20.677h-13.994v-15.365c0-4.416 13.994-4.416 13.994 0z" fill="#ffe12c"/><path d="m52.133 25.5-40.272-.008.043-.799h40.172z" opacity=".2"/></svg>