<svg enable-background="new 0 0 64 64" height="64" viewBox="0 0 64 64" width="64" xmlns="http://www.w3.org/2000/svg"><path d="m45.819 61.998c0-15.813-27.908-16.185-27.908 0z" fill="#9e7c37"/><path d="m15.846 16.253c-10.892 46.745-9.894 45.745 13.029 45.745-12.685-8.877 11.618-46.381-13.029-45.745z" fill="#ad883d"/><path d="m11.916 15.529c-7.948 35.516-1.09 44.635 4.998 46.469h6.979c-16.326-11.504 9.191-47.168-11.977-46.469z" fill="#c49a45"/><path d="m47.887 16.251c10.891 46.745 9.893 45.745-13.031 45.745 11.666-7.123-11.619-46.381 13.031-45.745z" fill="#ad883d"/><path d="m51.813 15.527c11.619 32.311-.025 44.973-4.998 46.469h-6.977c16.328-10.562-9.191-47.168 11.975-46.469z" fill="#c49a45"/><path d="m32 5.019c-14.512 0-21.502 11.818-20.629 27.013.18 3.054 1.029 7.46 2.078 11.235 2.176 7.848 13.66 15.75 18.551 15.75 4.889 0 16.373-7.901 18.549-15.75 1.051-3.774 1.898-8.182 2.08-11.235.871-15.195-6.115-27.013-20.629-27.013z" fill="#b88a6f"/><path d="m47.676 32.446c-1.939 5.074-9.826 4.33-11.271.779 1.095-5.706 10.205-6.195 11.271-.779z" fill="#fff"/><path d="m16.325 32.446c1.939 5.074 9.828 4.332 11.274.779-1.097-5.706-10.206-6.195-11.274-.779z" fill="#fff"/><path d="m32 46.482c-3.527-1.551-3.555-.063-9 .303 2.045 2.32 3.549 5.305 8.998 5.305 6.252 0 7.31-3.389 9.002-5.305-5.447-.365-5.472-1.853-9-.303z" fill="#84401e"/><path d="m24.635 47.363c3.555 3.699 11.219 3.65 14.728.002-5.47.588-9.253.588-14.728-.002z" fill="#fff"/><path d="m47.993 26.513c-3.27-1.949-9.135-2.188-11.457-.859-.492.268-.359 1.676.066 1.5 3.311-1.379 8.352-1.447 11.461.146.416.211.424-.504-.07-.787z" fill="#423225"/><path d="m16.008 26.513c3.27-1.949 9.133-2.188 11.457-.859.492.268.361 1.676-.066 1.5-3.31-1.379-8.35-1.449-11.459.146-.418.211-.426-.504.068-.787z" fill="#423225"/><path d="m36.499 41.18c0 2.928-8.998 2.928-8.998 0-.001-.672 8.998-.672 8.998 0z" fill="#946346"/><path d="m48.215 7.132c-10.175 10.427-.465 11.101 5.532 25.759 3.363 8.213.035 25.072-6.932 29.107 7.721 0 12.424-10.688 14.717-25.389 2.865-18.367-8.145-31.011-13.317-29.477z" fill="#ffd68c"/><path d="m23.237 3.139c-12.905 3.037-24.933 14.439-20.175 36.879 2.813 13.269 6.273 21.98 13.853 21.98-8.449-8.75-7.455-27.201-5.053-31.791 12.24-7.284 33.172-12.801 36.354-23.075 1.613-2.371-12.067-7.376-24.979-3.993z" fill="#ffd68c"/><g fill="#c49a45"><path d="m13.352 19.485c5.455-1.106 31.561-1.628 34.863-12.354-6.17 4.918-12.56 6.257-34.863 12.354z"/><path d="m3.941 36.545c9.157-12.217 39.144-10.868 44.274-29.413-9.959 15.564-41.771 17.669-44.274 29.413z"/><path d="m45.198 9.674c-2.363 3.722 5.846-1.747 14.695 22.231-2.182-14.018-9.658-23.671-14.695-22.231z"/></g><path d="m38.381 31.895c0 4.494 6.5 4.494 6.5 0 0-4.172-6.5-4.172-6.5 0z" fill="#613f34"/><path d="m39.024 33.332c0 2.577 5.215 2.577 5.215 0 0-2.392-5.215-2.392-5.215 0z" fill="#7d5037"/><path d="m40.282 31.965c0 1.865 2.699 1.865 2.699 0 0-1.732-2.699-1.732-2.699 0z" fill="#1a1626"/><path d="m39.36 31.42c0 .942 1.363.942 1.363 0 .002-.875-1.363-.875-1.363 0z" fill="#ab968c"/><path d="m19.12 31.901c0 4.496 6.5 4.496 6.5 0 0-4.172-6.5-4.172-6.5 0z" fill="#613f34"/><path d="m19.762 33.338c0 2.578 5.215 2.578 5.215 0 0-2.391-5.215-2.391-5.215 0z" fill="#7d5037"/><path d="m21.02 31.972c0 1.865 2.697 1.865 2.697 0 0-1.732-2.697-1.732-2.697 0z" fill="#1a1626"/><path d="m20.098 31.426c0 .943 1.361.943 1.361 0 0-.874-1.361-.874-1.361 0z" fill="#ab968c"/><path d="m47.676 32.407c0-5.451-11.271-5.451-11.271.862 1.609-5.18 9.662-5.18 11.271-.862z" fill="#45332c"/><path d="m16.325 32.407c0-5.451 11.274-5.451 11.274.86-1.61-5.18-9.665-5.18-11.274-.86z" fill="#45332c"/></svg>