<svg enable-background="new 0 0 64 64" height="64" viewBox="0 0 64 64" width="64" xmlns="http://www.w3.org/2000/svg" xmlns:xlink="http://www.w3.org/1999/xlink"><radialGradient id="a" cx="32" cy="34.3594" gradientUnits="userSpaceOnUse" r="20.9796"><stop offset=".4848" stop-color="#ff3030"/><stop offset="1" stop-color="#d40000"/></radialGradient><path d="m56 22.346s2.441 0 4.732 1.477c0 0 .301-8.72-9.494-12.88 0 0 2.396-.998 5.249-.69 0 0-5.444-6.151-14.946-4.604 0 0 1.201-1.582 3.867-2.392-9.577-3.48-13.408 1.371-13.408 1.371s-3.832-4.851-13.408-1.371c2.666.81 3.867 2.392 3.867 2.392-9.502-1.548-14.946 4.604-14.946 4.604 2.853-.308 5.249.69 5.249.69-9.795 4.16-9.494 12.88-9.494 12.88 2.291-1.477 4.732-1.477 4.732-1.477-9.878 10.723-4.582 19.615-4.582 19.615 1.727-3.41 3.906-4.219 3.906-4.219-1.502 14.099 7.322 18.164 7.322 18.164.752-2.378 2.354-3.996 2.354-3.996 1.967 5.344 6.736 7.384 6.736 7.384-.148-2.849 1.504-4.289 1.504-4.289 1.903 6.258 11.268 6.995 11.268 6.995s-2.941-4.148 2.252-6.995c0 0 1.652.598 1.504 3.445 0 0 4.77-1.196 6.736-6.54 0 0 2.502.773 3.254 3.153 0 0 7.924-3.223 6.423-17.321 0 0 2.179.809 3.905 4.219 0 0 5.296-8.893-4.582-19.615z" fill="#302c3b"/><path d="m51.919 27.486c0-20.668-7.91-10.335-19.919-10.335s-19.919-10.333-19.919 10.335c-6.019 10.052 2.307 9.16 2.307 13.22 0 12.208 10.559 13.445 17.612 13.445s17.612-1.237 17.612-13.445c0-4.06 8.326-3.168 2.307-13.22z" fill="url(#a)"/><path d="m36.188 27.443c0 8.001 12 8.001 12 0 0-8.004-12-7.995-12 0z" fill="#fff"/><circle cx="41.188" cy="28.443" fill="#1a1626" r="3.5"/><path d="m15.813 27.443c0 8.001 12 8.001 12 0 0-8.004-12-7.995-12 0z" fill="#fff"/><circle cx="22.813" cy="28.443" fill="#1a1626" r="3.5"/><path d="m16.999 39.642c0 15.377 30.002 15.377 30.002 0 0-3.746-4.528 2.907-15.003 2.907-10.465 0-14.999-6.652-14.999-2.907z" fill="#1a1626"/><g fill="#fff"><path d="m43.818 40.851c.805 5.472 3.283 7.909 1.871 7.907-1.327-.001-3.697-1.098-5.529-6.226-.456-1.275 3.491-2.812 3.658-1.681z"/><path d="m32.291 43.923c0 3.821 3.637 3.094 3.637-.728 0-.819-3.637-.658-3.637.728z"/><path d="m36.345 43.557c0 3.821 3.322 2.79 3.322-1.031 0-1.146-3.322-.355-3.322 1.031z"/><path d="m39.793 48.52c0-2.561-3.234-1.839-3.234.859 0 1.097 3.234.237 3.234-.859z"/><path d="m36.058 49.571c0-3.021-3.767-3.225-3.767.202 0 1.386 3.767.61 3.767-.202z"/><path d="m20.182 40.851c-.806 5.472-3.283 7.909-1.871 7.907 1.326-.001 3.697-1.098 5.529-6.226.456-1.275-3.491-2.812-3.658-1.681z"/><path d="m31.709 43.923c0 3.821-3.637 3.094-3.637-.728 0-.819 3.637-.658 3.637.728z"/><path d="m27.655 43.557c0 3.821-3.322 2.79-3.322-1.031 0-1.146 3.322-.355 3.322 1.031z"/><path d="m24.207 48.52c0-2.561 3.234-1.839 3.234.859 0 1.097-3.234.237-3.234-.859z"/><path d="m27.942 49.571c0-3.021 3.767-3.225 3.767.202 0 1.386-3.767.61-3.767-.202z"/></g><path d="m22.076 11.34c-5.521-5.85-5.474-10.43-7.143-9.112-1.567 1.237-3.075 4.469.823 10.954.971 1.614 7.461-.632 6.32-1.842z" fill="#e81c27"/><path d="m41.86 11.34c5.521-5.85 5.474-10.43 7.143-9.112 1.567 1.237 3.075 4.469-.823 10.954-.97 1.614-7.46-.632-6.32-1.842z" fill="#e81c27"/><path d="m38.625 26.944c0 1.334 2 1.334 2 0s-2-1.332-2 0z" fill="#fff"/><path d="m20.25 26.944c0 1.334 2 1.334 2 0s-2-1.332-2 0z" fill="#fff"/><path d="m40.832 35.949c-.135 2.572-2.31 3.742-4.308 3.521.016-.149-.111-1.645-.348-2.122-.166 4.869-8.186 4.869-8.352 0-.236.478-.363 1.973-.348 2.122-1.998.222-4.173-.948-4.308-3.521-.083.333-.134.691-.134 1.083 0 2.988 2.641 4.245 4.873 3.785 1.551 2.757 6.63 2.758 8.183.001 2.233.461 4.874-.798 4.874-3.786.002-.391-.049-.75-.132-1.083z" fill="#910404"/></svg>