<svg enable-background="new 0 0 64 64" height="64" viewBox="0 0 64 64" width="64" xmlns="http://www.w3.org/2000/svg"><path d="m5.945 28.929c-8.354-1.271-1.828 18.423 4.711 12.991 3.031-2.518-.803-12.395-4.711-12.991z" fill="#755035"/><path d="m58.056 28.929c-3.908.596-7.742 10.473-4.711 12.991 6.543 5.432 13.061-14.261 4.711-12.991z" fill="#755035"/><path d="m32 2c-18.024 0-27.164 10.573-25.881 28.805.221 3.141 2.607 12.404 4.863 16.078 9.1 14.822 32.938 14.822 42.035 0 2.258-3.674 4.645-12.938 4.863-16.078 1.286-18.232-7.857-28.805-25.88-28.805z" fill="#916b50"/><path d="m37 39.799c0 3.254-9.998 3.254-9.998 0 0-.747 9.998-.747 9.998 0z" fill="#755035"/><path d="m50.996 33.335c-2.371 6.206-12.016 5.297-13.783.953 1.339-6.977 12.48-7.574 13.783-.953z" fill="#fff"/><path d="m13.002 33.335c2.371 6.206 12.02 5.297 13.783.953-1.34-6.98-12.477-7.576-13.783-.953z" fill="#fff"/><path d="m50.689 24.807c-3.344-2.015-9.738-2.111-12.123-.708-.51.271-.174 2.181.256 1.999 3.322-1.494 8.68-1.53 11.787.128.414.213.586-1.137.08-1.419z" fill="#755035"/><path d="m13.312 24.807c3.342-2.015 9.736-2.111 12.121-.708.512.271.174 2.181-.254 1.999-3.326-1.494-8.68-1.53-11.789.128-.412.213-.584-1.137-.078-1.419z" fill="#755035"/><path d="m39.674 32.674c0 5.446 7.879 5.446 7.879 0-.001-5.055-7.879-5.055-7.879 0z" fill="#613f34"/><path d="m40.453 34.417c0 3.123 6.318 3.123 6.318 0 0-2.9-6.318-2.9-6.318 0z" fill="#7d5037"/><path d="m41.976 32.76c0 2.261 3.271 2.261 3.271 0 .001-2.098-3.271-2.098-3.271 0z" fill="#1a1626"/><path d="m40.861 32.1c0 1.141 1.652 1.141 1.652 0 0-1.059-1.652-1.059-1.652 0z" fill="#ab968c"/><path d="m16.449 32.673c0 5.446 7.879 5.446 7.879 0 0-5.055-7.879-5.055-7.879 0z" fill="#613f34"/><path d="m17.228 34.415c0 3.123 6.32 3.123 6.32 0 .001-2.899-6.32-2.899-6.32 0z" fill="#7d5037"/><path d="m18.754 32.759c0 2.26 3.27 2.26 3.27 0-.001-2.099-3.27-2.099-3.27 0z" fill="#1a1626"/><path d="m17.636 32.098c0 1.142 1.65 1.142 1.65 0 .001-1.06-1.65-1.06-1.65 0z" fill="#ab968c"/><path d="m50.996 33.288c0-6.663-13.783-6.663-13.783 1.056 1.968-6.333 11.814-6.333 13.783-1.056z" fill="#755035"/><path d="m13.002 33.288c0-6.663 13.783-6.663 13.783 1.054-1.965-6.335-11.813-6.335-13.783-1.054z" fill="#755035"/><path d="m33.918 9.804c15.984-1.763 9.218-7.804-2.715-7.804-3.926 0-8.473.871-10.521 1.901.839 3.804 23.798-.937 13.236 5.903z" fill="#614036"/><path d="m33.918 9.804c14.031-8.459-11.908-3.556-13.236-5.903.839 3.804 23.13-.654 13.236 5.903z" fill="#4a2e24"/><path d="m43.779 47.908c0 12.85-23.559 12.85-23.559 0 0-6.565 5.305-3.741 11.811-3.741s11.748-2.823 11.748 3.741z" fill="#42ade2"/><path d="m43.779 48.693c0 12.064-23.559 12.064-23.559 0 0-6.564 5.305-3.741 11.811-3.741s11.748-2.823 11.748 3.741z" fill="#61c2ff"/><path d="m31.998 53.695c-6.279 0-6.279-6.282 0-6.282 6.285 0 6.285 6.282 0 6.282z" fill="#006dae"/><path d="m32 49.682c-4.771 0-8.637-.544-8.637 4.112 0 10.94 17.275 10.94 17.275 0 0-4.656-3.869-4.112-8.638-4.112zm-6.526 4.113c0-3.312 3.133-2.25 6.525-2.25 3.393 0 6.525-1.062 6.525 2.25.001 6.453-13.05 6.453-13.05 0z" fill="#afecff"/><path d="m25.756 52.432c.836-1.597 3.451-.882 6.244-.882 2.795 0 5.41-.715 6.246.882-.352-2.597-12.139-2.597-12.49 0z" fill="#81adba"/><path d="m23.525 55.521c1.615 8.639 15.336 8.639 16.951 0-2.254 7.59-14.699 7.59-16.951 0z" fill="#81adba"/><path d="m33.689 52.517c-.662 0-2.644 0-3.375 0-.893 0-.893-3.927 0-3.927h3.375c.891.001.891 3.927 0 3.927z" fill="#42ade2"/><path d="m30.256 49.104c.078-.328 3.404-.335 3.488 0 .373 1.512-3.86 1.569-3.488 0z" fill="#75d6ff"/></svg>