<svg enable-background="new 0 0 64 64" height="64" viewBox="0 0 64 64" width="64" xmlns="http://www.w3.org/2000/svg" xmlns:xlink="http://www.w3.org/1999/xlink"><linearGradient id="a" gradientUnits="userSpaceOnUse" x1="31.9996" x2="31.9996" y1="15.9654" y2="1.9654"><stop offset=".4121" stop-color="#00d0ff"/><stop offset=".9879" stop-color="#0174c7"/></linearGradient><path d="m27.562 40.43c4.162-5.434 14.951 1.21 22.613 1.534 16.566.7 12.99 8.646 5.771 6.733 4.801 9.466-5.623 4.19-5.623 4.19 5.992 9.367-3.805 4.038-3.805 4.038 4.355 8.782-4.246 1.278-4.246 1.278 2.324 6.618-3.814 1.378-3.814 1.378.736 6.024-4.379-.727-7.246-2.477z" fill="#e6ebef"/><g fill="#b3c2c6"><path d="m41.588 46.425c-1.883-1.1 12.572 3.867 20.041 1.216-2.991 4.04-18.086-.072-20.041-1.216z"/><path d="m38.859 48.92c-1.531-1.262 11.252 4.302 16.928 5.393-2.055.955-15.369-4.11-16.928-5.393z"/><path d="m36.929 51.311c-1.336-1.544 3.736 3.037 13.889 7.119-3.611-.001-12.734-5.784-13.889-7.119z"/><path d="m35.496 52.812c2.15 1.525 4.838 4.304 11.576 8.375-3.479-.259-12.66-9.145-11.576-8.375z"/><path d="m33.615 54.934c1.213.994 2.91 3.21 7.768 6.494-2.854-.751-8.825-7.36-7.768-6.494z"/></g><path d="m36.439 40.43c-4.162-5.434-14.953 1.21-22.615 1.534-16.566.7-12.988 8.646-5.771 6.733-4.799 9.466 5.625 4.19 5.625 4.19-5.994 9.367 3.803 4.038 3.803 4.038-4.355 8.782 4.246 1.278 4.246 1.278-2.322 6.618 3.816 1.378 3.816 1.378-.736 6.024 4.377-.727 7.246-2.477z" fill="#e6ebef"/><path d="m22.414 46.425c1.881-1.1-12.574 3.867-20.041 1.216 2.988 4.04 18.084-.072 20.041-1.216z" fill="#b3c2c6"/><path d="m25.14 48.92c1.533-1.262-11.252 4.302-16.928 5.393 2.057.955 15.372-4.11 16.928-5.393z" fill="#b3c2c6"/><path d="m27.072 51.311c1.334-1.544-3.736 3.037-13.889 7.119 3.61-.001 12.735-5.784 13.889-7.119z" fill="#b3c2c6"/><path d="m28.506 52.812c-2.15 1.525-4.838 4.304-11.576 8.375 3.476-.259 12.659-9.145 11.576-8.375z" fill="#b3c2c6"/><path d="m30.386 54.934c-1.213.994-2.91 3.21-7.768 6.494 2.852-.751 8.823-7.36 7.768-6.494z" fill="#b3c2c6"/><path d="m9.201 30.829c-7.311-1.11-1.6 16.12 4.121 11.368 2.654-2.204-.703-10.848-4.121-11.368z" fill="#dba97f"/><path d="m54.8 30.829c-3.422.521-6.779 9.164-4.123 11.368 5.723 4.752 11.428-12.479 4.123-11.368z" fill="#dba97f"/><path d="m31.998 7.267c-15.77 0-23.766 9.25-22.646 25.204.191 2.749 2.285 10.854 4.256 14.069 7.961 12.968 28.82 12.968 36.783 0 1.975-3.216 4.063-11.32 4.254-14.069 1.122-15.954-6.878-25.204-22.647-25.204z" fill="#fcd5b2"/><path d="m36.373 40.34c0 2.847-8.75 2.847-8.75 0 0-.654 8.75-.654 8.75 0z" fill="#dba97f"/><path d="m48.619 34.684c-2.074 5.429-10.514 4.634-12.061.834 1.172-6.105 10.922-6.629 12.061-.834z" fill="#fff"/><path d="m15.375 34.684c2.076 5.429 10.518 4.634 12.063.834-1.173-6.109-10.919-6.63-12.063-.834z" fill="#fff"/><path d="m48.347 27.222c-2.922-1.762-8.518-1.848-10.604-.618-.447.237-.152 1.908.223 1.748 2.908-1.308 7.598-1.339 10.316.113.36.186.511-.996.065-1.243z" fill="#dba97f"/><path d="m15.65 27.222c2.922-1.762 8.518-1.848 10.602-.618.451.237.154 1.908-.219 1.748-2.91-1.308-7.6-1.339-10.318.113-.358.186-.512-.996-.065-1.243z" fill="#dba97f"/><path d="m38.714 34.104c0 4.768 6.893 4.768 6.893 0 0-4.423-6.893-4.423-6.893 0z" fill="#613f34"/><path d="m39.392 35.63c0 2.733 5.531 2.733 5.531 0 0-2.537-5.531-2.537-5.531 0z" fill="#7d5037"/><path d="m40.728 34.179c0 1.978 2.861 1.978 2.861 0 0-1.833-2.861-1.833-2.861 0z" fill="#1a1626"/><path d="m39.752 33.604c0 .998 1.445.998 1.445 0 0-.928-1.445-.928-1.445 0z" fill="#ab968c"/><path d="m18.388 34.104c0 4.766 6.896 4.766 6.896 0 .001-4.424-6.896-4.424-6.896 0z" fill="#613f34"/><path d="m19.072 35.63c0 2.729 5.533 2.729 5.533 0 0-2.537-5.533-2.537-5.533 0z" fill="#7d5037"/><path d="m20.408 34.179c0 1.978 2.859 1.978 2.859 0 0-1.835-2.859-1.835-2.859 0z" fill="#1a1626"/><path d="m19.429 33.602c0 1 1.445 1 1.445 0 .001-.927-1.445-.927-1.445 0z" fill="#ab968c"/><path d="m48.619 34.643c0-5.831-12.061-5.831-12.061.923 1.725-5.539 10.338-5.539 12.061-.923z" fill="#dba97f"/><path d="m15.375 34.643c0-5.831 12.063-5.831 12.063.921-1.725-5.541-10.339-5.541-12.063-.921z" fill="#dba97f"/><path d="m24.127 45.717c3.443 5.815 12.275 5.851 15.744 0-4.115 1.659-11.604 1.669-15.744 0z" fill="#b08766"/><path d="m32 1.965c-13.887 0-21 3.134-21 6.999 0 3.866 7.113 7.001 21 7.001 13.891 0 21-3.135 21-7.001 0-3.865-7.11-6.999-21-6.999zm-13.561 5.349c0-3.113 27.125-3.113 27.125 0 0 3.111-27.125 3.111-27.125 0z" fill="url(#a)"/></svg>