<svg enable-background="new 0 0 64 64" height="64" viewBox="0 0 64 64" width="64" xmlns="http://www.w3.org/2000/svg" xmlns:xlink="http://www.w3.org/1999/xlink"><radialGradient id="a" cx="32" cy="32" gradientUnits="userSpaceOnUse" r="32.0376"><stop offset=".3212" stop-color="#fff"/><stop offset=".5669" stop-color="#fcfdfd"/><stop offset=".7318" stop-color="#f3f6f7"/><stop offset=".8726" stop-color="#e4e9ec"/><stop offset="1" stop-color="#cfd8dd"/></radialGradient><linearGradient id="b" gradientUnits="userSpaceOnUse" x1="32.0024" x2="32.0024" y1="35.7021" y2="50.8164"><stop offset="0" stop-color="#b32e24"/><stop offset=".0103" stop-color="#b63026"/><stop offset=".1122" stop-color="#d14136"/><stop offset=".2241" stop-color="#e54f42"/><stop offset=".3496" stop-color="#f4594b"/><stop offset=".4998" stop-color="#fc5e50"/><stop offset=".7394" stop-color="#ff6052"/></linearGradient><path d="m59.872 23.619c-3.297 5.914-8.046 8.792-7.718 2.438.639-12.598-8.891-23.057-20.154-23.057s-20.793 10.46-20.154 23.057c.328 6.354-4.421 3.477-7.718-2.438-1.073-1.92-4.231 11.891 8.675 19.602.572 7.02 1.467 14.908 2.861 16.881 2.311 3.26 5.183-3.398 8.9-3.398s3.721 4.191 7.436 4.191 3.719-4.191 7.436-4.191c3.718 0 6.59 6.658 8.9 3.398 1.395-1.973 2.289-9.861 2.861-16.881 12.907-7.711 9.748-21.522 8.675-19.602z" fill="url(#a)"/><path d="m61.662 24.164c-.316-1.146-.843-1.726-1.563-1.726-.215 0-.749.067-1.099.693-2.372 4.253-5.005 5.914-5.46 5.43-.115-.12-.479-.652-.388-2.454.331-6.526-2.003-12.925-6.404-17.556-4.017-4.224-9.254-6.551-14.748-6.551s-10.73 2.327-14.748 6.551c-4.401 4.631-6.735 11.029-6.405 17.556.094 1.802-.271 2.334-.387 2.454-.453.476-3.088-1.176-5.46-5.43-.35-.626-.884-.693-1.099-.693-.722 0-1.248.58-1.563 1.727-.847 3.067-.873 13.164 9.51 19.646 1.072 12.822 2.224 15.77 3.001 16.869.621.875 1.377 1.32 2.247 1.32 1.299 0 2.461-1.016 3.691-2.092 1.18-1.033 2.52-2.205 3.776-2.205 1.409 0 2.099.775 2.971 1.76.963 1.084 2.159 2.432 4.466 2.432s3.503-1.348 4.465-2.432c.873-.984 1.563-1.76 2.972-1.76 1.257 0 2.597 1.172 3.778 2.205 1.228 1.076 2.39 2.092 3.689 2.092.87 0 1.626-.445 2.247-1.32.777-1.1 1.929-4.047 3.002-16.869 10.382-6.483 10.356-16.579 9.509-19.647zm-2.011 6.215c-.731 3.458-3.122 8.734-9.208 12.373-.963 11.768-2.233 15.793-2.924 16.771-.336.475-.543.477-.614.477h-.001c-.547 0-1.517-.848-2.373-1.598-1.446-1.266-3.085-2.699-5.095-2.699-2.309 0-3.506 1.348-4.468 2.432-.872.984-1.562 1.76-2.969 1.76s-2.097-.775-2.969-1.76c-.963-1.084-2.159-2.432-4.468-2.432-2.01 0-3.648 1.434-5.095 2.699-.855.75-1.823 1.598-2.371 1.598-.069 0-.277 0-.614-.477-.691-.979-1.962-5.004-2.925-16.771-6.087-3.639-8.479-8.914-9.208-12.373-.429-2.027-.403-3.751-.248-4.87 1.693 2.607 4.052 5.137 6.143 5.137.65 0 1.228-.245 1.668-.708.726-.764 1.031-2.05.936-3.933-.305-5.981 1.83-11.841 5.854-16.076 3.636-3.823 8.358-5.929 13.298-5.929s9.663 2.106 13.299 5.93c4.024 4.235 6.159 10.095 5.854 16.076-.096 1.883.21 3.17.936 3.934.44.463 1.017.707 1.668.707h.001c2.09 0 4.448-2.529 6.142-5.137.155 1.118.18 2.843-.249 4.869z" fill="#cfd8dd"/><path d="m43.684 32.419c-.236 0-4.895 1.473-11.682 1.473-6.789 0-11.447-1.473-11.684-1.473-.539 0-.828.373-.828.737 0 5.352 4.385 11.037 12.512 11.037 8.123 0 12.508-5.686 12.508-11.037 0-.364-.285-.737-.826-.737z" fill="#302c3b"/><path d="m24.645 38.195v2.939c0 6.445 3.293 9.678 7.357 9.682 4.063-.004 7.359-3.236 7.359-9.682 0-1.182 0-2.283 0-2.939 0-3.85-7.359-2.094-7.359-2.094s-7.357-1.755-7.357 2.094z" fill="url(#b)"/><path d="m30.957 35.904 1.045 9.605 1.043-9.605c-.629.098-1.043.197-1.043.197s-.418-.099-1.045-.197z" fill="#b81b1b"/><ellipse cx="24" cy="21.476" fill="#302c3b" rx="5.999" ry="3.5" transform="matrix(.342 -.9397 .9397 .342 -4.3889 36.6843)"/><ellipse cx="24.646" cy="22.476" fill="#4e5e67" rx="2.862" ry="1.669" transform="matrix(.3419 -.9397 .9397 .3419 -4.9025 37.9515)"/><ellipse cx="39" cy="20.476" fill="#302c3b" rx="8" ry="4.5" transform="matrix(-.342 -.9397 .9397 -.342 33.0984 64.1274)"/><ellipse cx="38.417" cy="22.226" fill="#4e5e67" rx="3.909" ry="2.198" transform="matrix(-.342 -.9397 .9397 -.342 30.6718 65.9282)"/></svg>