<svg enable-background="new 0 0 64 64" height="64" viewBox="0 0 64 64" width="64" xmlns="http://www.w3.org/2000/svg" xmlns:xlink="http://www.w3.org/1999/xlink"><linearGradient id="a" gradientUnits="userSpaceOnUse" x1="43.0077" x2="38.6658" y1="56.5011" y2="55.3971"><stop offset="0" stop-color="#5d1e96"/><stop offset=".093" stop-color="#6825a5"/><stop offset=".2674" stop-color="#7930bb"/><stop offset=".4596" stop-color="#8538ca"/><stop offset=".6813" stop-color="#8c3dd3"/><stop offset="1" stop-color="#8e3ed6"/></linearGradient><path d="m12.937 14.644c-8.131 34.903-7.388 34.155 9.73 34.155-9.472-6.627 8.674-34.63-9.73-34.155z" fill="#947d41"/><path d="m10.005 14.102c-5.935 26.52-.815 33.33 3.731 34.697h5.21c-12.189-8.587 6.864-35.218-8.941-34.697z" fill="#ba9d52"/><path d="m36.861 14.642c8.132 34.905 7.387 34.157-9.731 34.157 8.712-5.319-8.673-34.632 9.731-34.157z" fill="#947d41"/><path d="m39.793 14.101c8.675 24.127-.018 33.581-3.732 34.698h-5.207c12.191-7.889-6.864-35.22 8.939-34.698z" fill="#ba9d52"/><path d="m41.236 27.065c2.512 6.133.027 18.722-5.176 21.733 5.767 0 9.277-7.979 10.99-18.954 2.139-13.716-10.289-13.724-5.814-2.779z" fill="#efde8b"/><path d="m3.393 32.39c2.1 9.905 4.685 16.409 10.343 16.409-6.309-6.531-5.566-20.308-3.772-23.736 9.138-5.441-10.124-9.429-6.571 7.327z" fill="#efde8b"/><path d="m6.077 50.43c2.302-1.412 12.2-5.139 12.2-5.139h13.517s9.89 3.721 12.18 5.135c3.324 2.054 4.026 11.574 4.026 11.574h-46s.741-9.527 4.077-11.57z" fill="#8e3ed6"/><path d="m18 45c0 6.75 14 6.75 14 0v-7h-14z" fill="#d6a67a"/><path d="m25 6.255c-10.836 0-16.054 8.824-15.402 20.17.134 2.281.768 5.57 1.551 8.391 1.624 5.858 10.2 11.758 13.851 11.758 3.649 0 12.227-5.9 13.85-11.759.785-2.82 1.419-6.109 1.555-8.391.648-11.345-4.567-20.169-15.405-20.169z" fill="#e3c19b"/><path d="m25 37.218c-2.635-1.16-2.654-.049-6.719.225 1.525 1.732 2.648 3.96 6.717 3.96 4.67 0 5.459-2.53 6.723-3.96-4.069-.274-4.087-1.385-6.721-.225z" fill="#c97e55"/><path d="m19.5 37.872c2.655 2.764 8.378 2.729 11 .002-4.088.439-6.91.439-11-.002z" fill="#fff"/><path d="m36.941 22.302c-2.442-1.453-6.82-1.633-8.555-.641-.366.201-.268 1.252.05 1.121 2.472-1.029 6.235-1.08 8.556.109.312.157.318-.376-.051-.589z" fill="#594640"/><path d="m13.06 22.302c2.44-1.453 6.818-1.633 8.555-.641.366.201.27 1.252-.051 1.121-2.473-1.029-6.234-1.082-8.555.109-.312.157-.32-.376.051-.589z" fill="#594640"/><path d="m28.359 33.257c0 2.186-6.719 2.186-6.719 0 0-.504 6.719-.504 6.719 0z" fill="#d6a67a"/><path d="m36.705 26.735c-1.447 3.787-7.337 3.233-8.414.582.816-4.263 7.617-4.629 8.414-.582z" fill="#fff"/><path d="m29.765 26.323c0 3.355 4.854 3.355 4.854 0 0-3.117-4.854-3.117-4.854 0z" fill="#613f34"/><path d="m30.245 27.396c0 1.926 3.893 1.926 3.893 0 0-1.786-3.893-1.786-3.893 0z" fill="#7d5037"/><path d="m31.184 26.376c0 1.393 2.015 1.393 2.015 0 0-1.293-2.015-1.293-2.015 0z" fill="#1a1626"/><path d="m30.496 25.97c0 .703 1.018.703 1.018 0-.001-.655-1.018-.655-1.018 0z" fill="#ab968c"/><path d="m36.705 26.706c0-4.072-8.414-4.072-8.414.644 1.198-3.871 7.213-3.871 8.414-.644z" fill="#45332c"/><path d="m13.295 26.735c1.449 3.787 7.339 3.233 8.418.582-.819-4.263-7.62-4.629-8.418-.582z" fill="#fff"/><path d="m15.383 26.329c0 3.356 4.851 3.356 4.851 0 0-3.117-4.851-3.117-4.851 0z" fill="#613f34"/><path d="m15.861 27.401c0 1.924 3.894 1.924 3.894 0 .001-1.785-3.894-1.785-3.894 0z" fill="#7d5037"/><path d="m16.8 26.382c0 1.393 2.017 1.393 2.017 0 0-1.295-2.017-1.295-2.017 0z" fill="#1a1626"/><path d="m16.113 25.974c0 .705 1.018.705 1.018 0 0-.653-1.018-.653-1.018 0z" fill="#ab968c"/><path d="m13.295 26.706c0-4.072 8.418-4.072 8.418.642-1.201-3.871-7.215-3.871-8.418-.642z" fill="#45332c"/><path d="m37.107 7.833c-7.598 7.785-.346 8.287 4.129 19.232 2.512 6.133 4.101 13.755 5.814 2.779 2.139-13.716-6.082-23.156-9.943-22.011z" fill="#efde8b"/><path d="m18.457 4.851c-9.635 2.267-18.617 10.783-15.064 27.539 2.1 9.905 4.776-3.898 6.57-7.326 9.139-5.441 24.769-9.561 27.144-17.23 1.206-1.772-9.009-5.509-18.65-2.983z" fill="#efde8b"/><g fill="#ba9d52"><path d="m11.074 17.056c4.074-.826 23.566-1.215 26.033-9.223-4.605 3.67-9.378 4.67-26.033 9.223z"/><path d="m4.05 29.796c6.835-9.123 29.228-8.117 33.058-21.963-7.436 11.621-31.19 13.191-33.058 21.963z"/><path d="m34.855 9.729c-1.766 2.781 4.364-1.303 10.971 16.6-1.628-10.467-7.211-17.672-10.971-16.6z"/></g><path d="m53.092 40.838c.611-.342.564-1.785-.917-1.404-3.563.915-5.712 1.596-6.733 3.496-.689 1.281 3.346-.139 7.65-2.092z" fill="#d6a67a"/><path d="m9 62h1c-.5-6.666-.5-6.666-1 0z" fill="#732eb0"/><path d="m35.441 62h7.768l.31-11.938-4.99-2.123s-2.798 9.967-3.088 14.061z" fill="url(#a)"/><path d="m51.843 62s-.467-15.172-1.031-15.766c-1.053-1.104-5.824-.666-6.635.021-.81.688-2.334 15.745-2.334 15.745z" fill="#8e3ed6"/><path d="m50.453 46.75c-.088-.662.328-1.234.328-1.234s12.961-2.807 11.021-5.51c-.836-1.162-5.111.26-8.902.695-2.307.266-8.887-.998-8.267 6.049.126 1.451 5.923.791 5.82 0z" fill="#e3c19b"/></svg>