<svg enable-background="new 0 0 64 64" height="64" viewBox="0 0 64 64" width="64" xmlns="http://www.w3.org/2000/svg"><path d="m6.256 49.336c2.4-1.572 12.361-5.727 12.361-5.727h14.842s9.951 4.145 12.34 5.723c3.469 2.289 4.201 12.668 4.201 12.668h-48s.775-10.387 4.256-12.664z" fill="#7ab51d"/><g fill="#dba97f"><path d="m34 44.998c0 6.75-16 6.75-16 0v-6.999h16z"/><path d="m41.391 22.874c5.146-.928 1.127 13.461-2.902 9.492-1.866-1.842.495-9.057 2.902-9.492z"/><path d="m10.611 22.874c2.406.435 4.769 7.65 2.9 9.492-4.028 3.969-8.044-10.42-2.9-9.492z"/></g><path d="m26 6.001c10.643 0 15.77 8.051 15.127 19.244-.129 2.254-1.525 9.6-2.844 12.234-1.348 2.695-5.859 6.851-8.625 7.712-1.746.543-5.568.543-7.314 0-2.764-.861-7.277-5.017-8.627-7.712-1.318-2.635-2.713-9.98-2.842-12.234-.644-11.193 4.484-19.244 15.125-19.244z" fill="#fcd5b2"/><path d="m26 36.475c2.395-.705 5.94.332 5.94.332-1.35 1.471-2.34 3.381-5.94 3.381-4.123 0-4.822-2.166-5.939-3.381 0 0 3.548-1.041 5.939-.332z" fill="#cc9d76"/><path d="m31.035 37.057c-2.508 2.105-7.576 2.117-10.1 0 2.674.114 7.407.116 10.1 0z" fill="#fff"/><path d="m22.701 32.516c0 2.148 6.6 2.148 6.6 0 0-.492-6.6-.492-6.6 0z" fill="#dba97f"/><path d="m26 6.001c7.322 0-9.73 6.19-16.016 11.658.616-6.74 4.899-11.658 16.016-11.658z" fill="#1e1513"/><path d="m20.586 11.876c7.041 2.6 21.992 2.803 21.705 7.127-.205 3.084-.734 6.387-1.568 9.271-.334-2.475.426-3.496-.717-6.479-3.426-8.914-1.221-5.172-14.008-5.172-12.783 0-10.477-3.414-14.004 5.172-1.053 2.559-.383 4.004-.719 6.479-4.203-15.636 1.842-19.154 9.311-16.398z" fill="#1e1513"/><path d="m14.608 26.112c1.424 3.721 7.207 3.176 8.267.57-.805-4.183-7.486-4.541-8.267-.57z" fill="#fff"/><path d="m37.395 26.112c-1.422 3.721-7.209 3.176-8.268.57.807-4.185 7.486-4.543 8.268-.57z" fill="#fff"/><path d="m14.018 21.632c2.436-1.207 7.092-1.268 8.826-.426.371.164.127 1.311-.186 1.199-2.42-.895-6.318-.916-8.582.078-.301.127-.427-.681-.058-.851z" fill="#cc9d76"/><path d="m37.984 21.632c-2.434-1.207-7.09-1.268-8.826-.426-.371.164-.127 1.311.186 1.199 2.422-.895 6.318-.916 8.584.078.301.127.426-.681.056-.851z" fill="#cc9d76"/><path d="m16.674 25.714c0 3.266 4.725 3.266 4.725 0 0-3.032-4.725-3.032-4.725 0z" fill="#613f34"/><path d="m20.932 26.761c0 1.871-3.791 1.871-3.791 0 0-1.739 3.791-1.739 3.791 0z" fill="#7d5037"/><path d="m20.018 25.764c0 1.357-1.963 1.357-1.963 0 0-1.253 1.963-1.253 1.963 0z" fill="#1a1626"/><path d="m17.385 25.37c0 .686.992.686.992 0 0-.633-.992-.633-.992 0z" fill="#ab968c"/><path d="m30.602 25.714c0 3.266 4.727 3.266 4.727 0-.001-3.032-4.727-3.032-4.727 0z" fill="#613f34"/><path d="m34.859 26.759c0 1.873-3.789 1.873-3.789 0 0-1.739 3.789-1.739 3.789 0z" fill="#7d5037"/><path d="m33.945 25.764c0 1.355-1.961 1.355-1.961 0 0-1.255 1.961-1.255 1.961 0z" fill="#1a1626"/><path d="m31.315 25.37c0 .684.99.684.99 0 0-.635-.99-.635-.99 0z" fill="#ab968c"/><path d="m14.608 26.083c0-3.996 8.267-3.996 8.267.633-1.182-3.797-7.086-3.797-8.267-.633z" fill="#dba97f"/><path d="m37.395 26.083c0-3.996-8.268-3.996-8.268.631 1.18-3.797 7.086-3.797 8.268-.631z" fill="#dba97f"/><path d="m9 62h1c-.5-6.668-.5-6.668-1 0z" fill="#529320"/><path d="m42 62h1c-.5-6.668-.5-6.668-1 0z" fill="#529320"/><path d="m45.908 6.749c-.338 13.354.547 21.566.547 21.566s1.02 2.348.854 2.854c-.557-.184-1.17-.254-1.799-.182-2.24.262-3.854 2.211-3.602 4.352.25 2.145 2.27 3.668 4.508 3.41 2.24-.262 3.854-2.213 3.604-4.355-.025-.234-.186-.803-.199-.84-1.633-4.602-1.072-6.408-1.072-6.408zm.289 30.123c-1.158.137-2.203-.652-2.332-1.76s.707-2.115 1.863-2.252c1.16-.135 2.205.654 2.332 1.762.133 1.107-.704 2.117-1.863 2.25z" fill="#bec3cf"/><path d="m26.176 6.001c-14.83 0-15.219 7.988-11.344 9.717 13.441 5.99 34.744 10.109 38.072-.99-10.638 4.763-9.031-8.727-26.728-8.727z" fill="#3a2c29"/><path d="m15.672 8.202c-.924.648-6.217 3.586-1.352 7.896 7.4 6.557 36.658 10.461 38.584-1.371-4.882 13.787-43.443.7-37.232-6.525z" fill="#1e1513"/><path d="m54.725 26.001c-.392.477-.65 1.014-.785 1.572-.531-.135-2.068-2.197-2.068-2.197l-16.247-13.082c5.391 8.164 10.705 11.603 10.807 12.994.182 2.51 2.779 2.373 3.373 1.172 0 0 1.717.668 4.926 4.422.025.029.447.459.637.606 1.764 1.33 4.332 1.029 5.738-.672 1.41-1.697 1.121-4.156-.643-5.486-1.762-1.331-4.326-1.028-5.738.671zm4.843 3.654c-.73.877-2.059 1.033-2.969.346-.912-.688-1.061-1.959-.332-2.838.727-.879 2.057-1.035 2.967-.348.913.688 1.061 1.959.334 2.84z" fill="#cfd8dd"/><path d="m49.006 24.473c.465.354.543 1.004.17 1.453-.375.451-1.055.531-1.521.182-.467-.355-.545-1.004-.168-1.455.369-.453 1.05-.531 1.519-.18z" fill="#302c3b"/></svg>