<svg enable-background="new 0 0 64 64" height="64" viewBox="0 0 64 64" width="64" xmlns="http://www.w3.org/2000/svg" xmlns:xlink="http://www.w3.org/1999/xlink"><linearGradient id="a" gradientTransform="matrix(.7071 .7071 -.7071 .7071 -379.1406 114.7655)" gradientUnits="userSpaceOnUse" x1="225.082" x2="238.7998" y1="-354.4897" y2="-354.4897"><stop offset="0" stop-color="#ff3b3b"/><stop offset=".2558" stop-color="#fb3737"/><stop offset=".5207" stop-color="#f12b2a"/><stop offset=".7889" stop-color="#df1616"/><stop offset="1" stop-color="#cc0100"/></linearGradient><linearGradient id="b" gradientTransform="matrix(.7071 .7071 -.7071 .7071 -379.1406 114.7655)" gradientUnits="userSpaceOnUse" x1="225.21" x2="238.8174" y1="-340.5488" y2="-340.5488"><stop offset="0" stop-color="#5f727d"/><stop offset="1" stop-color="#46545c"/></linearGradient><linearGradient id="c"><stop offset="0" stop-color="#cfd8dd"/><stop offset=".1801" stop-color="#cad3d8"/><stop offset=".4047" stop-color="#bac3c8"/><stop offset=".653" stop-color="#a1aaaf"/><stop offset=".9165" stop-color="#7e888d"/><stop offset="1" stop-color="#717b80"/></linearGradient><linearGradient id="d" gradientTransform="matrix(.7071 .7071 -.7071 .7071 -379.1406 114.7655)" gradientUnits="userSpaceOnUse" x1="231.2764" x2="232.2783" xlink:href="#c" y1="-384.2397" y2="-384.2397"/><linearGradient id="e" gradientTransform="matrix(.7071 .7071 -.7071 .7071 -379.1406 114.7655)" gradientUnits="userSpaceOnUse" x1="227.7285" x2="236.002" xlink:href="#c" y1="-370.2446" y2="-370.2446"/><linearGradient id="f" gradientTransform="matrix(.7071 .7071 -.7071 .7071 -379.1406 114.7655)" gradientUnits="userSpaceOnUse" x1="227.292" x2="236.4346" y1="-367.7827" y2="-367.7827"><stop offset="0" stop-color="#cfd8dd"/><stop offset=".0962" stop-color="#c3cdd2"/><stop offset=".502" stop-color="#97a0a5"/><stop offset=".8167" stop-color="#7b858a"/><stop offset="1" stop-color="#717b80"/></linearGradient><linearGradient id="g" gradientTransform="matrix(.7071 .7071 -.7071 .7071 -379.1406 114.7655)" gradientUnits="userSpaceOnUse" x1="230.4902" x2="233.1533" xlink:href="#c" y1="-374.8979" y2="-374.8979"/><linearGradient id="h" gradientTransform="matrix(.7071 .7071 -.7071 .7071 -379.1406 114.7655)" gradientUnits="userSpaceOnUse" x1="220.1377" x2="244.0332" xlink:href="#c" y1="-327.5044" y2="-327.5044"/><linearGradient id="i"><stop offset="0" stop-color="#ff000e"/><stop offset=".2721" stop-color="#fa000d"/><stop offset=".593" stop-color="#ec0008"/><stop offset=".9372" stop-color="#d40001"/><stop offset="1" stop-color="#cf0000"/></linearGradient><radialGradient id="j" cx="59.123" cy="16.5537" gradientTransform="matrix(1 0 0 1.3499 -.686 -5.1595)" gradientUnits="userSpaceOnUse" r="4.1228" xlink:href="#i"/><radialGradient id="k" cx="55.123" cy="29.3447" gradientTransform="matrix(1 0 0 1.3499 -.686 -9.4932)" gradientUnits="userSpaceOnUse" r="4.1226" xlink:href="#i"/><path d="m17.083 46.753 4.777 4.829 7.162-7.241-4.777-4.829z" fill="#cfd8dd"/><path d="m12.308 41.924 4.775 4.829 7.162-7.241-4.775-4.828z" fill="#cfd8dd"/><path d="m38.723 15.22 3.052.686 5.819 5.883.677 3.086.002.001-17.12 17.31-9.553-9.658 17.121-17.31z" fill="url(#a)"/><path d="m22.422 31.697 9.553 9.657-2.953 2.987-9.554-9.657z" fill="url(#b)"/><path d="m59.932 2.767 2.068-.767-10.451 10.566-.654-.661z" fill="url(#d)"/><path d="m46.939 13.348 3.186 3.218-2.531 5.221-5.819-5.882z" fill="url(#e)"/><path d="m41.393 15.677 6.425 6.498.537-.542-6.427-6.496z" fill="url(#f)"/><path d="m47.598 14.018 1.861 1.877 2.693-2.722-1.861-1.877z" fill="url(#g)"/><path d="m6.82 57.127 1.539 1.557 17.999-17.034-2.115-2.138z" fill="#4e5e67"/><path d="m6.82 57.127-1.538-1.555 16.845-18.2 2.116 2.14z" fill="#6e8189"/><path d="m7.614 39.344 16.799 16.982 1.07-1.081-16.798-16.984z" fill="url(#h)"/><path d="m2 53.338 8.569 8.662 1.071-1.082-8.569-8.662z" fill="#4e5e67"/><g fill="#1a1626"><path d="m30.157 43.193-4.776-4.828-.397.403 4.774 4.828z"/><path d="m31.383 41.953-3.182-3.218-.4.403 3.184 3.218z"/><path d="m32.608 40.715-3.183-3.218-.398.401 3.183 3.218z"/><path d="m33.834 39.475-3.183-3.219-.399.402 3.184 3.219z"/><path d="m35.059 38.234-3.184-3.216-.396.401 3.183 3.218z"/><path d="m36.285 36.996-4.775-4.828-.398.402 4.775 4.829z"/><path d="m37.51 35.758-3.182-3.219-.398.402 3.183 3.219z"/><path d="m38.736 34.518-3.181-3.219-.399.402 3.184 3.219z"/><path d="m39.963 33.278-3.184-3.217-.398.401 3.183 3.219z"/><path d="m41.189 32.039-3.183-3.218-.397.403 3.182 3.216z"/><path d="m42.414 30.8-4.775-4.828-.397.402 4.774 4.828z"/><path d="m43.639 29.561-3.182-3.219-.398.401 3.183 3.219z"/><path d="m44.865 28.32-3.183-3.217-.397.402 3.184 3.219z"/><path d="m46.092 27.081-3.184-3.219-.398.404 3.183 3.218z"/><path d="m47.316 25.842-3.181-3.218-.399.402 3.184 3.218z"/></g><path d="m58.998 13.711c-1.904 2.633-2.998 5.056-2.998 7.047 0 1.69 1.344 3.063 3 3.063s3-1.371 3-3.063c0-1.991-1.127-4.455-3.002-7.047z" fill="url(#j)"/><path d="m54.998 26.644c-1.904 2.631-2.998 5.055-2.998 7.045 0 1.691 1.344 3.064 3 3.063 1.656 0 3-1.371 3-3.062 0-1.991-1.127-4.455-3.002-7.046z" fill="url(#k)"/></svg>