<svg enable-background="new 0 0 64 64" height="64" viewBox="0 0 64 64" width="64" xmlns="http://www.w3.org/2000/svg" xmlns:xlink="http://www.w3.org/1999/xlink"><linearGradient id="a" gradientUnits="userSpaceOnUse" x1="15.8389" x2="41.4854" y1="30.2012" y2="30.2012"><stop offset=".1091" stop-color="#c21322"/><stop offset=".2673" stop-color="#cd1626"/><stop offset=".5454" stop-color="#eb2031"/><stop offset=".7091" stop-color="#ff2638"/><stop offset=".8177" stop-color="#fb2436"/><stop offset=".9334" stop-color="#ee1c2e"/><stop offset="1" stop-color="#e31628"/></linearGradient><linearGradient id="b" gradientUnits="userSpaceOnUse" x1="28.105" x2="42.9662" y1="35.7031" y2="35.7031"><stop offset=".1455" stop-color="#ff6672" stop-opacity="0"/><stop offset=".6909" stop-color="#ff6672"/><stop offset="1" stop-color="#ff6672" stop-opacity="0"/></linearGradient><linearGradient id="c" gradientUnits="userSpaceOnUse" x1="21.8179" x2="45.3899" y1="4.3027" y2="30.0074"><stop offset="0" stop-color="#f34"/><stop offset=".2233" stop-color="#fb3142"/><stop offset=".4316" stop-color="#f02a3b"/><stop offset=".6341" stop-color="#dd202f"/><stop offset=".8316" stop-color="#c3111f"/><stop offset="1" stop-color="#a6000e"/></linearGradient><linearGradient id="d" gradientUnits="userSpaceOnUse" x1="9.6421" x2="45.1226" y1="53.8945" y2="53.8945"><stop offset=".1091" stop-color="#a67410"/><stop offset=".2269" stop-color="#b17c13"/><stop offset=".4347" stop-color="#cf931a"/><stop offset=".7065" stop-color="#ffb726"/><stop offset=".7091" stop-color="#ffb726"/><stop offset=".8177" stop-color="#fbb324"/><stop offset=".9334" stop-color="#eea81c"/><stop offset="1" stop-color="#e39f16"/></linearGradient><linearGradient id="e" gradientUnits="userSpaceOnUse" x1="26.6118" x2="47.1713" y1="53.8965" y2="53.8965"><stop offset=".1455" stop-color="#fc6" stop-opacity="0"/><stop offset=".2532" stop-color="#ffce6d" stop-opacity=".1976"/><stop offset=".4051" stop-color="#ffd47f" stop-opacity=".4761"/><stop offset=".5824" stop-color="#ffdf9d" stop-opacity=".8011"/><stop offset=".6909" stop-color="#ffe6b3"/><stop offset="1" stop-color="#fc6" stop-opacity="0"/></linearGradient><path d="m47.902 49.565h-31.804v-38.728l31.804 11.765z" fill="url(#a)"/><path d="m28.255 21.842h18.43v27.724h-18.43z" fill="url(#b)"/><path d="m47.902 22.602c.03-7.477-13.896-18.386-23.27-20.528-2.694-.62-8.512 2.707-8.535 8.764-.062 14.75 31.768 20.574 31.805 11.764z" fill="#ff6672"/><path d="m46.775 21.059c.029-6.753-12.548-16.597-21.008-18.535-2.432-.557-7.681 2.445-7.707 7.913-.055 13.315 28.682 18.572 28.715 10.622z" fill="url(#c)"/><path d="m54 62h-44s0-6.418 0-12.268c0-5.255 44-5.257 44 0z" fill="url(#d)"/><path d="m26.819 45.893v16.107h25.496v-13.893c-4.202-1.862-15.582-2.597-25.496-2.214z" fill="url(#e)"/><path d="m53.95 49.444c-1.694-5.339-42.309-5.023-43.9 0 6.165-3.538 37.734-3.539 43.9 0z" fill="#fbb855"/></svg>