<svg enable-background="new 0 0 64 64" height="64" viewBox="0 0 64 64" width="64" xmlns="http://www.w3.org/2000/svg" xmlns:xlink="http://www.w3.org/1999/xlink"><linearGradient id="a" gradientUnits="userSpaceOnUse" x1="32.0005" x2="32.0005" y1="49.998" y2="14.0005"><stop offset="0" stop-color="#e6ebed"/><stop offset=".512" stop-color="#dbe2e5"/><stop offset="1" stop-color="#ccd5d9"/></linearGradient><linearGradient id="b" gradientUnits="userSpaceOnUse" x1="32.0005" x2="32.0005" y1="49.998" y2="21.1997"><stop offset="0" stop-color="#e6ebed"/><stop offset=".2602" stop-color="#e3e9eb"/><stop offset=".4539" stop-color="#dae1e4"/><stop offset=".5758" stop-color="#cfd8dd"/></linearGradient><linearGradient id="c" gradientUnits="userSpaceOnUse" x1="32.0005" x2="32.0005" y1="37.7402" y2="-51.6028"><stop offset="0" stop-color="#b9c2c7"/><stop offset=".0456" stop-color="#c2cacf"/><stop offset=".2033" stop-color="#dce2e5"/><stop offset=".297" stop-color="#e6ebed"/></linearGradient><linearGradient id="d" gradientUnits="userSpaceOnUse" x1="32.0005" x2="32.0005" y1="38.5859" y2="14.0005"><stop offset="0" stop-color="#e6ebed"/><stop offset=".582" stop-color="#e3e9ec"/><stop offset="1" stop-color="#dae3e8"/></linearGradient><radialGradient id="e" cx="-578.7305" cy="411.0469" gradientTransform="matrix(2.9059 0 0 -3.1362 1713.8101 1311.8519)" gradientUnits="userSpaceOnUse" r="4.8315"><stop offset=".4182" stop-color="#ff1c23"/><stop offset=".6205" stop-color="#f6151b"/><stop offset=".9523" stop-color="#dd0404"/><stop offset="1" stop-color="#d90100"/></radialGradient><path d="m2 14h60v35.998h-60z" fill="url(#a)"/><path d="m32 20-30 29.998h60z" fill="#99a8ae"/><path d="m32 21.199-30 28.799h60z" fill="url(#b)"/><path d="m30.68 39.16-28.68-25.16h60l-28.682 25.16c-.754.662-1.882.662-2.638 0z" fill="#99a8ae"/><path d="m30.713 38.119-28.713-24.119h60l-28.715 24.119c-.744.623-1.828.623-2.572 0z" fill="url(#c)"/><path d="m30.713 38.119-28.713-24.119h60l-28.715 24.119c-.744.623-1.828.623-2.572 0z" fill="url(#d)"/><path d="m32 24.227c-3.451-5.695-13-3.471-13 3.681 0 4.798 4.404 8.007 13 15.092 8.594-7.085 13-10.294 13-15.092 0-7.152-9.551-9.377-13-3.681z" fill="url(#e)"/></svg>