<svg enable-background="new 0 0 64 64" height="64" viewBox="0 0 64 64" width="64" xmlns="http://www.w3.org/2000/svg" xmlns:xlink="http://www.w3.org/1999/xlink"><linearGradient id="a"><stop offset=".3" stop-color="#ab795b"/><stop offset=".3586" stop-color="#ae7d60"/><stop offset=".551" stop-color="#b6876b"/><stop offset=".7576" stop-color="#b88a6f"/></linearGradient><linearGradient id="b" gradientUnits="userSpaceOnUse" x1="18.2592" x2="10.7023" xlink:href="#a" y1="29.1874" y2="18.5408"/><linearGradient id="c"><stop offset="0" stop-color="#ff3030"/><stop offset=".2571" stop-color="#fb2d2d"/><stop offset=".497" stop-color="#f02525"/><stop offset=".73" stop-color="#dd1717"/><stop offset=".9575" stop-color="#c30404"/><stop offset="1" stop-color="#bd0000"/></linearGradient><radialGradient id="d" cx="22.511" cy="11.6172" gradientTransform="matrix(.9084 -.4183 .2024 .4395 -.5027 15.929)" gradientUnits="userSpaceOnUse" r="12.5673" xlink:href="#c"/><linearGradient id="e" gradientUnits="userSpaceOnUse" x1="24.0476" x2="15.5884" xlink:href="#a" y1="39.9388" y2="28.0211"/><radialGradient id="f" cx="33.8943" cy="18.8379" gradientTransform="matrix(.9084 -.4183 .2024 .4395 -.9203 24.7384)" gradientUnits="userSpaceOnUse" r="12.5671" xlink:href="#c"/><linearGradient id="g" gradientUnits="userSpaceOnUse" x1="24.2243" x2="16.1428" xlink:href="#a" y1="56.8937" y2="45.508"/><radialGradient id="h" cx="30.6567" cy="38.2392" gradientTransform="matrix(.9084 -.4183 .2024 .4395 -5.1445 34.2592)" gradientUnits="userSpaceOnUse" r="12.568" xlink:href="#c"/><linearGradient id="i" gradientUnits="userSpaceOnUse" x1="40.7034" x2="54.124" y1="35.5215" y2="35.5215"><stop offset="0" stop-color="#ff3030"/><stop offset=".2275" stop-color="#fb2d2d"/><stop offset=".4397" stop-color="#f02525"/><stop offset=".6459" stop-color="#dd1717"/><stop offset=".8472" stop-color="#c30404"/><stop offset=".8848" stop-color="#bd0000"/></linearGradient><path d="m55.16 8.029-4.375 20.932 3.022 1.283 6.564-22.215z" fill="#6e8189"/><path d="m54.758 9.955c3.713 2.625 2.963 2.238-1.893 20.066-.063.232.941.223.941.223l6.564-22.215c.001 0-4.694.76-5.612 1.926z" fill="#4e5e67"/><path d="m62 2h-9.137l-1.045 5.776s2.33 5.099 10.182 3.481z" fill="#e81c27"/><path d="m29.51 12.777c-7.518-3.664-18.947 2.313-27.51 6.754v19.01c9.998-5.709 31.916-17.556 27.51-25.764z" fill="url(#b)"/><path d="m12.943 14.729c-1.353 1.451 4.361 4.93 6.656 4.705 9.436-.926 17.52-12.924 8.41-11.547-7.017 1.059-14.136 5.845-15.066 6.842z" fill="url(#d)"/><path d="m40.895 19.998c-10.262-5.001-27.772 8.129-38.895 11.862v20.692c5.83-3.607 14.832-8.386 18.172-11.684 3.953-2.552 25.129-12.662 20.723-20.87z" fill="url(#e)"/><path d="m24.328 21.949c-1.354 1.452 4.361 4.93 6.656 4.705 9.436-.926 17.519-12.924 8.408-11.547-7.015 1.06-14.136 5.847-15.064 6.842z" fill="url(#f)"/><path d="m37.656 39.4c-10.26-5.002-28 8.096-35.656 10.6v12h12.592s1.721-1.115 2.34-1.729c3.957-2.55 25.131-12.664 20.724-20.871z" fill="url(#g)"/><path d="m21.09 41.352c-1.354 1.451 4.361 4.93 6.656 4.705 9.436-.926 17.52-12.924 8.41-11.549-7.017 1.06-14.136 5.847-15.066 6.844z" fill="url(#h)"/><path d="m54.061 29.391s-2.402.631-3.1-1.264c-1.416 5.33-6.041 4.789-6.834 10.414l3.293 4.375c4.881-1.134 7.125-7.5 6.641-13.525z" fill="url(#i)"/></svg>