<svg enable-background="new 0 0 64 64" height="64" viewBox="0 0 64 64" width="64" xmlns="http://www.w3.org/2000/svg" xmlns:xlink="http://www.w3.org/1999/xlink"><radialGradient id="a" cx="28.4058" cy="7.729" gradientUnits="userSpaceOnUse" r="11.8904"><stop offset="0" stop-color="#f7edd7"/><stop offset=".3718" stop-color="#f6ecd4"/><stop offset=".6488" stop-color="#f5e7ca"/><stop offset=".8943" stop-color="#f2dfba"/><stop offset="1" stop-color="#f0dab1"/></radialGradient><linearGradient id="b"><stop offset="0" stop-color="#fff" stop-opacity=".5"/><stop offset="1" stop-color="#fff" stop-opacity="0"/></linearGradient><radialGradient id="c" cx="546.7852" cy="29.5981" gradientTransform="matrix(.3583 .4654 -.5242 .4036 -154.4499 -262.5237)" gradientUnits="userSpaceOnUse" r="22.9111" xlink:href="#b"/><linearGradient id="d"><stop offset="0" stop-color="#cfd8dd"/><stop offset=".3707" stop-color="#b4c0c6"/><stop offset=".8061" stop-color="#99a8ae"/></linearGradient><linearGradient id="e" gradientUnits="userSpaceOnUse" x1="24.5" x2="39.5" xlink:href="#d" y1="59" y2="59"/><linearGradient id="f" gradientUnits="userSpaceOnUse" x1="24.6152" x2="39.3848" y1="41.1006" y2="41.1006"><stop offset="0" stop-color="#f2f5f7"/><stop offset=".3173" stop-color="#eff2f4"/><stop offset=".5783" stop-color="#e5e9ec"/><stop offset=".8186" stop-color="#d3dade"/><stop offset="1" stop-color="#c1cacf"/></linearGradient><linearGradient id="g"><stop offset="0" stop-color="#ff000e"/><stop offset="1" stop-color="#cf0000"/></linearGradient><linearGradient id="h" gradientUnits="userSpaceOnUse" x1="24.6152" x2="39.3848" xlink:href="#g" y1="27.6724" y2="27.6724"/><linearGradient id="i"><stop offset="0" stop-color="#0085d4"/><stop offset=".0945" stop-color="#0080cc"/><stop offset=".6976" stop-color="#00639e"/><stop offset="1" stop-color="#00588c"/></linearGradient><linearGradient id="j" gradientUnits="userSpaceOnUse" x1="24.6152" x2="39.3848" xlink:href="#i" y1="35.3701" y2="35.3701"/><linearGradient id="k" gradientUnits="userSpaceOnUse" x1="24.6152" x2="39.3848" xlink:href="#g" y1="45.6309" y2="45.6309"/><linearGradient id="l" gradientUnits="userSpaceOnUse" x1="24.6152" x2="39.3848" xlink:href="#i" y1="53.3281" y2="53.3281"/><linearGradient id="m" gradientUnits="userSpaceOnUse" x1="24" x2="40" xlink:href="#d" y1="24.3003" y2="24.3003"/><linearGradient id="n" gradientTransform="matrix(1 0 0 -1 -26 -671.6563)" gradientUnits="userSpaceOnUse" x1="50" x2="66" xlink:href="#d" y1="-728.356" y2="-728.356"/><linearGradient id="o" gradientUnits="userSpaceOnUse" x1="25.8457" x2="33.2314" xlink:href="#b" y1="40.5" y2="40.5"/><linearGradient id="p" gradientUnits="userSpaceOnUse" x1="26" x2="38" xlink:href="#d" y1="21" y2="21"/><linearGradient id="q"><stop offset=".3636" stop-color="#d2dbe0"/><stop offset=".5166" stop-color="#ccd6db"/><stop offset=".7237" stop-color="#bbc6cc"/><stop offset=".9608" stop-color="#9eadb3"/><stop offset="1" stop-color="#99a8ae"/></linearGradient><linearGradient id="r" gradientUnits="userSpaceOnUse" x1="23.5" x2="40.5" xlink:href="#q" y1="23.5" y2="23.5"/><linearGradient id="s" gradientUnits="userSpaceOnUse" x1="23.5" x2="40.5" xlink:href="#q" y1="57.5" y2="57.5"/><circle cx="32" cy="12" fill="url(#a)" r="10"/><path d="m34.871 15.701c-3.425 2.643-8.105 2.314-10.445-.729-2.346-3.046-1.467-7.652 1.962-10.29 3.427-2.645 8.107-2.313 10.454.729 2.346 3.047 1.46 7.656-1.971 10.29z" fill="url(#c)"/><path d="m24.5 56c0 8 15 8 15 0z" fill="url(#e)"/><path d="m24 26.101h16v28.799h-16z" fill="#e6ebef"/><path d="m24.615 24.301h14.77v33.6h-14.77z" fill="url(#f)"/><path d="m24.615 25.749v5.129c0-2.851 14.77-3.053 14.77-6.411z" fill="url(#h)"/><path d="m24.615 36.01v5.133c0-2.855 14.77-3.057 14.77-6.416v-5.129c0 3.358-14.77 3.56-14.77 6.412z" fill="url(#j)"/><path d="m24.615 46.273v5.131c0-2.854 14.77-3.055 14.77-6.414v-5.133c0 3.361-14.77 3.561-14.77 6.416z" fill="url(#k)"/><path d="m24.615 56.533 14.77-1.282v-5.129c0 3.358-14.77 3.56-14.77 6.411z" fill="url(#l)"/><path d="m24 22.5h16v3.601h-16z" fill="url(#m)"/><path d="m24 54.899h16v3.601h-16z" fill="url(#n)"/><path d="m25.846 26.101h7.386v28.799h-7.386z" fill="url(#o)"/><path d="m26 20h12v2h-12z" fill="url(#p)"/><path d="m40.5 24.5c0 .55-.45 1-1 1h-15c-.55 0-1-.45-1-1v-2c0-.55.45-1 1-1h15c.55 0 1 .45 1 1z" fill="url(#r)"/><path d="m40.5 58.5c0 .55-.45 1-1 1h-15c-.55 0-1-.45-1-1v-2c0-.55.45-1 1-1h15c.55 0 1 .45 1 1z" fill="url(#s)"/></svg>