<svg enable-background="new 0 0 64 64" height="64" viewBox="0 0 64 64" width="64" xmlns="http://www.w3.org/2000/svg" xmlns:xlink="http://www.w3.org/1999/xlink"><radialGradient id="a" cx="32" cy="31.4897" gradientUnits="userSpaceOnUse" r="27.7837"><stop offset=".3212" stop-color="#fff"/><stop offset=".5523" stop-color="#fcfdfd"/><stop offset=".7075" stop-color="#f3f5f6"/><stop offset=".8404" stop-color="#e4e8eb"/><stop offset=".9601" stop-color="#cfd7db"/><stop offset="1" stop-color="#c6cfd4"/></radialGradient><linearGradient id="b" gradientUnits="userSpaceOnUse" x1="6.168" x2="13.9619" y1="30.375" y2="30.375"><stop offset=".1818" stop-color="#cfd8dd" stop-opacity="0"/><stop offset="1" stop-color="#cfd8dd"/></linearGradient><linearGradient id="c" gradientUnits="userSpaceOnUse" x1="50.0381" x2="57.832" y1="30.375" y2="30.375"><stop offset="0" stop-color="#cfd8dd"/><stop offset=".8182" stop-color="#cfd8dd" stop-opacity="0"/></linearGradient><linearGradient id="d"><stop offset="0" stop-color="#4e5e67"/><stop offset=".3649" stop-color="#4c5b65"/><stop offset=".6013" stop-color="#47535d"/><stop offset=".8007" stop-color="#3e4450"/><stop offset=".9792" stop-color="#322f3e"/><stop offset="1" stop-color="#302c3b"/></linearGradient><radialGradient id="e" cx="31.9033" cy="52.0146" gradientTransform="matrix(1 0 0 1.3605 0 -18.7497)" gradientUnits="userSpaceOnUse" r="6.814" xlink:href="#d"/><radialGradient id="f" cx="21.0908" cy="39.4541" gradientTransform="matrix(1 0 0 .8884 0 4.4048)" gradientUnits="userSpaceOnUse" r="7.6923" xlink:href="#d"/><radialGradient id="g" cx="469.1396" cy="39.4541" gradientTransform="matrix(-1 0 0 .8884 512.0488 4.4048)" gradientUnits="userSpaceOnUse" r="7.6923" xlink:href="#d"/><path d="m32 2c-14.212 0-32.294 13.788-23.529 39.341-8.423 10.49 7.694 7.156 7.694 15.961 0 2.848 6.979 4.121 7.926 1.424 0 2.318 7.909 3.146 7.909 1.049 0 2.098 7.909 1.27 7.909-1.049.947 2.697 7.926 1.424 7.926-1.424 0-8.805 16.117-5.471 7.694-15.961 8.765-25.553-9.317-39.341-23.529-39.341z" fill="url(#a)"/><path d="m55.529 41.341c3.948 9.666-9.375 7.152-9.375 13.91 0 1.734-6.332 3.064-6.245-1.836.021 4.6-7.909 6.291-7.909.111 0 6.18-7.932 4.488-7.909-.111.087 4.9-6.245 3.57-6.245 1.836 0-6.758-13.323-4.244-9.375-13.91-8.424 10.49 7.394 9.857 7.394 15.998 0 5.484 6.668 4.588 8.213 1.967.963 3.461 7.922 3.554 7.922.468 0 3.086 6.96 2.992 7.921-.469 1.548 2.623 8.215 3.516 8.215-1.967 0-6.14 15.818-5.507 7.393-15.997z" fill="#c6cfd4"/><path d="m6.577 23.603c-.863 5.068-.42 10.994 1.894 17.738.157-8.318 3.671-9.851 5.132-14.987 2.127-7.496-5.844-9.691-7.026-2.751z" fill="url(#b)"/><path d="m57.423 23.603c.863 5.068.42 10.994-1.894 17.738-.157-8.318-3.671-9.851-5.132-14.987-2.127-7.496 5.844-9.691 7.026-2.751z" fill="url(#c)"/><path d="m32 40.237c-4.604 0-7.251 14.93 0 8.268 7.251 6.662 4.604-8.268 0-8.268z" fill="url(#e)"/><path d="m25.44 31.134c-2.62-1.976-11.982-.538-12.924 3.799-2.447 11.279 9.648 8.273 14.655 3.68.676-.62 1.287-5.202-1.731-7.479z" fill="url(#f)"/><path d="m38.56 31.134c2.62-1.976 11.982-.538 12.924 3.799 2.447 11.279-9.648 8.273-14.655 3.68-.676-.62-1.287-5.202 1.731-7.479z" fill="url(#g)"/></svg>