<svg enable-background="new 0 0 64 64" height="64" viewBox="0 0 64 64" width="64" xmlns="http://www.w3.org/2000/svg"><path d="m22.75 28.227c-6.171 29.605-5.605 28.972 7.387 28.972-7.19-5.622 6.581-29.376-7.387-28.972z" fill="#3b2c29"/><path d="m20.525 27.768c-4.504 22.493-.618 28.27 2.832 29.431h3.954c-9.251-7.286 5.21-29.874-6.786-29.431z" fill="#453631"/><path d="m40.909 28.226c6.17 29.605 5.604 28.972-7.385 28.972 6.61-4.512-6.584-29.376 7.385-28.972z" fill="#3b2c29"/><path d="m43.134 27.767c6.583 20.464-.015 28.483-2.833 29.431h-3.953c9.252-6.69-5.209-29.874 6.786-29.431z" fill="#453631"/><path d="m17.021 35.684c-.305 15.848 2.646 21.515 6.501 21.515-4.594-10.284-2.424-21.534-2.424-21.534z" fill="#594640"/><path d="m46.978 35.684c.305 15.848-2.646 21.515-6.501 21.515 4.593-10.285 2.423-21.535 2.423-21.535z" fill="#594640"/><path d="m18.015 56.61c1.701-.796 8.757-2.895 8.757-2.895h10.515s7.049 2.095 8.739 2.893c2.458 1.156 2.974 5.392 2.974 5.392h-34s.549-4.238 3.015-5.39z" fill="#e81c27"/><path d="m39.279 54.192.633 1.626s5.394 1.803 6.664 2.275c1.262.47.751-1.045-.241-1.592-.371-.205-4.86-1.799-7.056-2.309z" fill="#302c3b"/><path d="m41.572 55.37c.415.649-.775.617-1.224-.021-.499-.71.789-.655 1.224.021z" fill="#ffe12c"/><path d="m24.722 54.192-.635 1.626s-5.392 1.803-6.664 2.275c-1.26.47-.749-1.045.241-1.592.371-.205 4.862-1.799 7.058-2.309z" fill="#302c3b"/><path d="m22.429 55.37c-.417.649.773.617 1.224-.021.499-.71-.789-.655-1.224.021z" fill="#ffe12c"/><path d="m19.064 62c.363-1.065-.063-2.689-.515-3.584-.42-.832-.261 2.998.515 3.584z" fill="#b00505"/><path d="m45.451 58.416c-.453.895-.878 2.519-.517 3.584.777-.586.936-4.416.517-3.584z" fill="#b00505"/><path d="m31.324 57.036h.677v4.964h-.677z" fill="#e6ebef"/><path d="m34.846 60.319c0 .952-1.699.952-1.699 0-.001-.953 1.699-.953 1.699 0z" fill="#ffe12c"/><path d="m26.452 55.728 4.872 1.842h1.352s5.08-.677 5.08-5.461l-11.304-2.807z" fill="#e6b045"/><path d="m25.815 53.824c0-.518 0-1.492 0-2.143 0-.161.782-.15.782-.15-.485 5.019 4.727 5.064 4.727 5.064v2.228s-5.509-.018-5.509-4.999z" fill="#302c3b"/><path d="m25.815 51.682c0-.161.782-.15.782-.15 0 4.786 4.727 5.064 4.727 5.064v.534c-1.979 0-5.509-1.379-5.509-5.448z" fill="#e6ebef"/><path d="m29.916 57.922c-.395.47-1.416-.047-1.02-.519.395-.469 1.416.05 1.02.519z" fill="#ffe12c"/><path d="m38.187 53.824c0-.518 0-1.492 0-2.143 0-.161-.782-.15-.782-.15.47 4.961-4.729 5.064-4.729 5.064v2.228s5.511-.018 5.511-4.999z" fill="#302c3b"/><path d="m38.187 51.682c0-.161-.782-.15-.782-.15 0 4.786-4.729 5.064-4.729 5.064v.534c1.981 0 5.511-1.379 5.511-5.448z" fill="#e6ebef"/><path d="m34.085 57.922c.396.47 1.417-.047 1.021-.519-.395-.469-1.416.05-1.021.519z" fill="#ffe12c"/><path d="m31.905 21.111c-9.19 0-13.617 7.485-13.063 17.108.112 1.935.65 4.726 1.314 7.116 1.379 4.971 8.652 9.976 11.749 9.976s10.37-5.005 11.749-9.976c.664-2.391 1.202-5.182 1.316-7.116.552-9.622-3.872-17.108-13.065-17.108z" fill="#fc6"/><path d="m42.034 34.724c-2.07-1.234-5.785-1.385-7.255-.544-.312.17-.228 1.062.041.95 2.097-.873 5.29-.917 7.259.093.264.133.269-.32-.045-.499z" fill="#594640"/><path d="m21.777 34.724c2.07-1.234 5.785-1.385 7.257-.544.312.17.229 1.062-.043.95-2.097-.873-5.288-.918-7.257.093-.264.133-.269-.32.043-.499z" fill="#594640"/><path d="m34.756 44.014c0 1.854-5.7 1.854-5.7 0 0-.425 5.7-.425 5.7 0z" fill="#e6b045"/><path d="m41.834 38.482c-1.229 3.214-6.223 2.742-7.138.493.694-3.614 6.462-3.923 7.138-.493z" fill="#fff"/><path d="m35.948 38.133c0 2.847 4.116 2.847 4.116 0 0-2.643-4.116-2.643-4.116 0z" fill="#613f34"/><path d="m36.354 39.043c0 1.633 3.303 1.633 3.303 0 0-1.515-3.303-1.515-3.303 0z" fill="#7d5037"/><path d="m37.151 38.178c0 1.181 1.71 1.181 1.71 0 0-1.097-1.71-1.097-1.71 0z" fill="#1a1626"/><path d="m36.568 37.832c0 .597.862.597.862 0 .001-.554-.862-.554-.862 0z" fill="#ab968c"/><path d="m41.834 38.457c0-3.452-7.138-3.452-7.138.547 1.019-3.281 6.119-3.281 7.138-.547z" fill="#45332c"/><path d="m21.978 38.482c1.229 3.214 6.225 2.743 7.14.493-.694-3.614-6.464-3.923-7.14-.493z" fill="#fff"/><path d="m23.747 38.137c0 2.847 4.117 2.847 4.117 0 0-2.642-4.117-2.642-4.117 0z" fill="#613f34"/><path d="m24.154 39.048c0 1.632 3.303 1.632 3.303 0 0-1.516-3.303-1.516-3.303 0z" fill="#7d5037"/><path d="m24.951 38.182c0 1.182 1.709 1.182 1.709 0 0-1.097-1.709-1.097-1.709 0z" fill="#1a1626"/><path d="m24.367 37.837c0 .597.863.597.863 0 0-.555-.863-.555-.863 0z" fill="#ab968c"/><path d="m21.978 38.457c0-3.452 7.14-3.452 7.14.546-1.019-3.281-6.12-3.281-7.14-.546z" fill="#45332c"/><path d="m43.357 31.715v8.119c0 5.916-4.987 10.549-11.356 10.549-6.368 0-11.357-4.633-11.357-10.549v-8.119h-1.893v8.119c0 6.941 5.932 12.406 13.25 12.406 7.315 0 13.25-5.465 13.25-12.406v-8.119z" fill="#302c3b"/><path d="m48.713 33.898c0 5.996-5.576 2.018-7.426 1.529-4.491-1.178-14.079-1.176-18.573 0-1.848.488-7.428 4.467-7.428-1.529v-22.527c0-12.494 33.427-12.494 33.427 0z" fill="#302c3b"/><path d="m32.001 47.83c-1.521-.179-3.08-.203-4.651-.061 3.393 2.36 5.908 2.36 9.301 0-1.571-.142-3.129-.118-4.65.061z" fill="#d99025"/><path d="m33.854 47.242c-1.368-.49-1.862.166-1.853.157.01.009-.486-.647-1.853-.157-1.051.367-2.799.513-2.799.527 1.909-.025 2.19.479 4.651.412 2.461.066 2.741-.438 4.649-.412.002-.014-1.746-.16-2.795-.527z" fill="#d47706"/></svg>