<svg enable-background="new 0 0 64 64" height="64" viewBox="0 0 64 64" width="64" xmlns="http://www.w3.org/2000/svg"><path d="m12.256 49.337c2.4-1.572 12.361-5.726 12.361-5.726h14.842s9.951 4.145 12.34 5.723c3.469 2.288 4.201 12.665 4.201 12.665h-48s.775-10.385 4.256-12.662z" fill="#7ab51d"/><g fill="#dba97f"><path d="m24.223 45.446c0 6.381 15.553 6.381 15.553 0 0-3.891 0-10.324 0-10.324h-15.553z"/><path d="m16.611 22.874c-5.147-.928-1.127 13.463 2.902 9.494 1.866-1.842-.495-9.058-2.902-9.494z"/><path d="m47.391 22.874c-2.406.436-4.77 7.652-2.9 9.494 4.027 3.969 8.042-10.422 2.9-9.494z"/></g><path d="m32 6.001c-10.641 0-15.77 8.051-15.125 19.246.127 2.254 1.524 9.6 2.842 12.234 1.348 2.695 5.861 6.852 8.625 7.713 1.746.543 5.568.543 7.314 0 2.766-.861 7.277-5.018 8.627-7.713 1.318-2.635 2.715-9.98 2.844-12.234.643-11.195-4.484-19.246-15.127-19.246z" fill="#fcd5b2"/><path d="m32 36.478c-2.395-.705-5.939.332-5.939.332 1.349 1.47 2.339 3.38 5.939 3.38 4.125 0 4.824-2.166 5.939-3.381 0 .001-3.548-1.04-5.939-.331z" fill="#cc9d76"/><path d="m26.967 37.06c2.508 2.105 7.576 2.117 10.098 0-2.674.113-7.407.115-10.098 0z" fill="#fff"/><path d="m35.299 32.519c0 2.148-6.598 2.148-6.598 0 0-.493 6.598-.493 6.598 0z" fill="#dba97f"/><path d="m32 6.001c-7.32 0-11.744 2.418-13.65 1.49 0 0-.207 1.248.539 2.061 0 0-.789.684-2.063-.469-1.213 3.939 2.389 6.221 15.174 6.221 12.787 0 9.732-3.113 16.018 2.356-.618-6.741-4.899-11.659-16.018-11.659z" fill="#3a2c29"/><path d="m37.414 11.876c-7.039 2.6-9.613-2.088-16.254-2.541 3.158 1.492 4.701 3.787 7.295 5.443-5.646-1.889-9.789-5.141-10.103-7.275 0 0-.943 3.117 2.783 5.447-3.563.33-4.307-3.855-4.307-3.855-1.803 2.898-1.553 12.246.451 19.182.334-2.475-.428-3.498.717-6.48 3.424-8.914 1.221-5.172 14.006-5.172s10.477-3.414 14.004 5.172c1.053 2.559.385 4.006.719 6.48 4.203-15.639-1.842-19.157-9.311-16.401z" fill="#1e1513"/><path d="m43.982 21.632c-2.434-1.207-7.09-1.268-8.824-.426-.371.164-.127 1.31.186 1.199 2.418-.895 6.318-.916 8.582.078.301.127.426-.681.056-.851z" fill="#cc9d76"/><path d="m20.018 21.632c2.434-1.207 7.09-1.268 8.826-.426.371.164.127 1.31-.188 1.199-2.422-.895-6.316-.916-8.582.078-.3.127-.425-.681-.056-.851z" fill="#cc9d76"/><path d="m28.561 26.142c-2.016 1.285-5.145 1.285-7.16 0-.309-.197-.492.016-.395.182 1.957 3.318 5.99 3.318 7.947 0 .1-.167-.086-.38-.392-.182z" fill="#45332c"/><path d="m42.6 26.142c-2.016 1.285-5.145 1.285-7.16 0-.309-.197-.49.016-.395.182 1.957 3.318 5.99 3.318 7.947 0 .1-.167-.086-.38-.392-.182z" fill="#45332c"/><path d="m26.328 14.153c-2.59.191-13.893-5.953-13.932 2.955-.012 2.814 3.393 8.486 3.537 10.149.25 2.875 3.371 2.84 3.252.771-.396-6.791-1.928-9.469.314-11.459.496-.44 4.701.84 6.559-.061 1.286-.624 1.091-2.413.27-2.355z" opacity=".3"/><path d="m26.223 13.981c-2.59.191-4.166-2.273-5.182-3.9-.705-1.129-3.271-2.049-3.951-3.719-.762-1.875-.939-4.361-.939-4.361h-6.1s1.635 5.68 1.596 14.586c-.012 2.814 1.467 7.379 3.629 9.406 0 0 .25.803.693 1.992.828 2.221 3.246 1.656 2.787-.365-1.225-5.383-2.242-10.283 0-12.273.496-.439 5.311 1.6 7.168.697 1.285-.623 1.119-2.121.299-2.063z" fill="#fcd5b2"/><path d="m37.67 14.153c2.592.191 13.895-5.953 13.932 2.955.014 2.814-3.391 8.486-3.535 10.149-.25 2.875-3.373 2.84-3.252.771.395-6.791 1.928-9.469-.314-11.459-.496-.44-4.703.84-6.559-.061-1.286-.624-1.09-2.413-.272-2.355z" opacity=".3"/><path d="m37.775 13.981c2.592.191 4.168-2.273 5.184-3.9.703-1.129 3.271-2.049 3.951-3.719.762-1.875.939-4.361.939-4.361h6.1s-1.635 5.68-1.598 14.586c.014 2.814-1.465 7.379-3.627 9.406 0 0-.25.803-.693 1.992-.828 2.221-3.248 1.656-2.787-.365 1.223-5.383 2.242-10.283 0-12.273-.496-.439-5.313 1.6-7.168.697-1.285-.623-1.119-2.121-.301-2.063z" fill="#fcd5b2"/><path d="m15 61.999h1c-.5-6.666-.5-6.666-1 0z" fill="#529320"/><path d="m48 61.999h1c-.5-6.666-.5-6.666-1 0z" fill="#529320"/></svg>