<svg enable-background="new 0 0 64 64" height="64" viewBox="0 0 64 64" width="64" xmlns="http://www.w3.org/2000/svg" xmlns:xlink="http://www.w3.org/1999/xlink"><linearGradient id="a" gradientUnits="userSpaceOnUse" x1="43.0098" x2="38.6672" y1="56.501" y2="55.3968"><stop offset="0" stop-color="#5d1e96"/><stop offset=".093" stop-color="#6825a5"/><stop offset=".2674" stop-color="#7930bb"/><stop offset=".4596" stop-color="#8538ca"/><stop offset=".6813" stop-color="#8c3dd3"/><stop offset="1" stop-color="#8e3ed6"/></linearGradient><path d="m12.938 14.643c-8.131 34.904-7.388 34.156 9.73 34.156-9.473-6.627 8.673-34.631-9.73-34.156z" fill="#3b2c29"/><path d="m10.005 14.102c-5.935 26.519-.815 33.33 3.731 34.697h5.21c-12.189-8.588 6.865-35.218-8.941-34.697z" fill="#453631"/><path d="m36.861 14.641c8.133 34.906 7.387 34.158-9.73 34.158 8.713-5.319-8.674-34.632 9.73-34.158z" fill="#3b2c29"/><path d="m39.793 14.1c8.676 24.126-.018 33.582-3.732 34.699h-5.207c12.191-7.889-6.864-35.22 8.939-34.699z" fill="#453631"/><path d="m41.236 27.065c2.512 6.132.027 18.722-5.176 21.734 5.768 0 9.277-7.979 10.99-18.955 2.139-13.717-10.288-13.724-5.814-2.779z" fill="#594640"/><path d="m3.394 32.389c2.1 9.906 4.685 16.41 10.343 16.41-6.309-6.531-5.567-20.308-3.773-23.736 9.139-5.441-10.124-9.43-6.57 7.326z" fill="#594640"/><path d="m6.077 50.43c2.302-1.412 12.2-5.139 12.2-5.139h13.517s9.889 3.721 12.18 5.135c3.325 2.054 4.026 11.574 4.026 11.574h-46s.741-9.527 4.077-11.57z" fill="#8e3ed6"/><path d="m18 45c0 6.75 14 6.75 14 0v-7h-14z" fill="#e6b045"/><path d="m25 6.254c-10.836 0-16.054 8.824-15.402 20.17.134 2.281.768 5.57 1.551 8.39 1.624 5.86 10.201 11.76 13.851 11.76 3.649 0 12.227-5.9 13.85-11.76.785-2.82 1.42-6.109 1.555-8.39.65-11.345-4.567-20.17-15.405-20.17z" fill="#fc6"/><path d="m25 37.217c-2.635-1.16-2.654-.049-6.719.225 1.525 1.732 2.648 3.961 6.717 3.961 4.67 0 5.459-2.531 6.722-3.961-4.068-.274-4.085-1.385-6.72-.225z" fill="#d47706"/><path d="m19.5 37.871c2.655 2.764 8.378 2.729 11 .002-4.088.44-6.91.44-11-.002z" fill="#fff"/><path d="m36.941 22.301c-2.441-1.453-6.82-1.633-8.555-.641-.366.201-.268 1.252.05 1.121 2.472-1.029 6.235-1.08 8.556.109.313.157.319-.376-.051-.589z" fill="#594640"/><path d="m13.061 22.301c2.44-1.453 6.818-1.633 8.555-.641.366.201.27 1.252-.051 1.121-2.473-1.029-6.234-1.082-8.555.109-.313.157-.321-.376.051-.589z" fill="#594640"/><path d="m28.359 33.256c0 2.186-6.719 2.186-6.719 0 .001-.504 6.719-.504 6.719 0z" fill="#e6b045"/><path d="m36.705 26.735c-1.447 3.787-7.337 3.232-8.414.582.816-4.264 7.617-4.629 8.414-.582z" fill="#fff"/><path d="m29.766 26.323c0 3.355 4.854 3.355 4.854 0-.001-3.117-4.854-3.117-4.854 0z" fill="#613f34"/><path d="m30.245 27.395c0 1.926 3.894 1.926 3.894 0 0-1.785-3.894-1.785-3.894 0z" fill="#7d5037"/><path d="m31.185 26.375c0 1.393 2.014 1.393 2.014 0 0-1.292-2.014-1.292-2.014 0z" fill="#1a1626"/><path d="m30.496 25.969c0 .703 1.017.703 1.017 0 0-.654-1.017-.654-1.017 0z" fill="#ab968c"/><path d="m36.705 26.706c0-4.072-8.414-4.072-8.414.645 1.198-3.872 7.213-3.872 8.414-.645z" fill="#45332c"/><path d="m13.295 26.735c1.449 3.787 7.339 3.232 8.418.582-.818-4.264-7.619-4.629-8.418-.582z" fill="#fff"/><path d="m15.383 26.329c0 3.355 4.852 3.355 4.852 0-.001-3.118-4.852-3.118-4.852 0z" fill="#613f34"/><path d="m15.861 27.401c0 1.924 3.895 1.924 3.895 0 0-1.785-3.895-1.785-3.895 0z" fill="#7d5037"/><path d="m16.801 26.381c0 1.393 2.017 1.393 2.017 0-.001-1.295-2.017-1.295-2.017 0z" fill="#1a1626"/><path d="m16.113 25.973c0 .705 1.018.705 1.018 0 0-.652-1.018-.652-1.018 0z" fill="#ab968c"/><path d="m13.295 26.706c0-4.072 8.418-4.072 8.418.643-1.2-3.872-7.215-3.872-8.418-.643z" fill="#45332c"/><path d="m37.107 7.833c-7.598 7.785-.346 8.287 4.129 19.232 2.512 6.132 4.102 13.755 5.814 2.779 2.139-13.717-6.081-23.156-9.943-22.011z" fill="#594640"/><path d="m18.457 4.85c-9.635 2.268-18.617 10.783-15.063 27.539 2.1 9.906 4.776-3.898 6.57-7.326 9.139-5.441 24.769-9.561 27.144-17.23 1.206-1.772-9.009-5.508-18.651-2.983z" fill="#594640"/><g fill="#453631"><path d="m11.074 17.055c4.074-.826 23.566-1.215 26.033-9.223-4.606 3.67-9.378 4.67-26.033 9.223z"/><path d="m4.05 29.795c6.835-9.123 29.228-8.117 33.058-21.963-7.436 11.622-31.19 13.192-33.058 21.963z"/><path d="m34.855 9.729c-1.766 2.781 4.365-1.303 10.971 16.6-1.627-10.467-7.211-17.672-10.971-16.6z"/></g><path d="m53.094 40.838c.611-.342.564-1.785-.918-1.404-3.563.914-5.711 1.595-6.732 3.495-.69 1.282 3.345-.138 7.65-2.091z" fill="#e6b045"/><path d="m9 62h1c-.5-6.666-.5-6.666-1 0z" fill="#732eb0"/><path d="m35.441 62h7.77l.309-11.938-4.99-2.124c-.001 0-2.798 9.967-3.089 14.062z" fill="url(#a)"/><path d="m51.844 62s-.467-15.172-1.031-15.766c-1.053-1.104-5.824-.666-6.635.021s-2.334 15.745-2.334 15.745z" fill="#8e3ed6"/><path d="m50.453 46.75c-.088-.662.328-1.234.328-1.234s12.961-2.808 11.021-5.51c-.836-1.163-5.111.26-8.902.695-2.307.266-8.887-.998-8.268 6.049.128 1.451 5.925.791 5.821 0z" fill="#fc6"/></svg>