<svg enable-background="new 0 0 64 64" height="64" viewBox="0 0 64 64" width="64" xmlns="http://www.w3.org/2000/svg"><path d="m16.369 55.209c1.9-1.004 9.787-3.648 9.787-3.648h11.752s7.877 2.641 9.766 3.645c2.748 1.456 3.326 6.794 3.326 6.794h-38s.613-5.34 3.369-6.791z" fill="#e81c27"/><path d="m40.135 52.162.707 2.049s6.029 2.27 7.449 2.865c1.41.594.84-1.316-.27-2.004-.414-.261-5.433-2.269-7.886-2.91z" fill="#302c3b"/><path d="m42.697 53.646c.465.816-.865.775-1.367-.029-.559-.892.881-.824 1.367.029z" fill="#ffe12c"/><path d="m23.865 52.162-.709 2.049s-6.027 2.27-7.449 2.865c-1.408.594-.838-1.316.27-2.004.414-.261 5.435-2.269 7.888-2.91z" fill="#302c3b"/><path d="m21.303 53.646c-.467.816.863.775 1.367-.029.559-.892-.881-.824-1.367.029z" fill="#ffe12c"/><path d="m17.541 62c.406-1.344-.068-3.391-.574-4.516-.471-1.048-.293 3.776.574 4.516z" fill="#b00505"/><path d="m47.033 57.484c-.508 1.125-.98 3.172-.578 4.516.869-.74 1.047-5.564.578-4.516z" fill="#b00505"/><path d="m31.244 55.744h.756v6.256h-.756z" fill="#e6ebef"/><path d="m35.18 59.883c0 1.199-1.898 1.199-1.898 0-.001-1.201 1.898-1.201 1.898 0z" fill="#ffe12c"/><path d="m25.799 54.098 5.445 2.318h1.512s5.678-.852 5.678-6.881l-12.635-3.535z" fill="#e6b045"/><path d="m25.088 51.697c0-.652 0-1.881 0-2.697 0-.205.873-.191.873-.191-.541 6.322 5.283 6.381 5.283 6.381v2.807c0-.001-6.156-.022-6.156-6.3z" fill="#302c3b"/><path d="m25.088 49c0-.205.873-.191.873-.191 0 6.031 5.283 6.381 5.283 6.381v.674c-2.213-.001-6.156-1.739-6.156-6.864z" fill="#e6ebef"/><path d="m29.67 56.859c-.439.594-1.582-.059-1.139-.65.442-.594 1.58.061 1.139.65z" fill="#ffe12c"/><path d="m38.914 51.697c0-.652 0-1.881 0-2.697 0-.205-.875-.191-.875-.191.525 6.25-5.283 6.381-5.283 6.381v2.807c0-.001 6.158-.022 6.158-6.3z" fill="#302c3b"/><path d="m38.914 49c0-.205-.875-.191-.875-.191 0 6.031-5.283 6.381-5.283 6.381v.674c2.213-.001 6.158-1.739 6.158-6.864z" fill="#e6ebef"/><path d="m34.33 56.859c.441.594 1.584-.059 1.141-.65-.442-.594-1.582.061-1.141.65z" fill="#ffe12c"/><path d="m19.219 35.125c-4.275-.771-.936 11.18 2.41 7.884 1.549-1.529-.412-7.523-2.41-7.884z" fill="#e6b045"/><path d="m44.781 35.125c-1.998.361-3.961 6.355-2.408 7.884 3.346 3.296 6.68-8.655 2.408-7.884z" fill="#e6b045"/><path d="m32 21.111c-8.838 0-13.096 6.687-12.563 15.984.107 1.871 1.266 7.972 2.361 10.16 1.119 2.238 4.867 5.691 7.164 6.406 1.449.451 4.625.451 6.074 0 2.297-.715 6.043-4.168 7.166-6.406 1.094-2.188 2.254-8.289 2.359-10.16.537-9.297-3.723-15.984-12.561-15.984z" fill="#fc6"/><path d="m34.74 43.135c0 1.783-5.48 1.783-5.48 0 0-.409 5.48-.409 5.48 0z" fill="#e6b045"/><path d="m41.463 37.814c-1.182 3.092-5.986 2.639-6.867.475.67-3.476 6.218-3.772 6.867-.475z" fill="#fff"/><path d="m22.537 37.814c1.182 3.092 5.986 2.639 6.865.475-.668-3.476-6.214-3.773-6.865-.475z" fill="#fff"/><path d="m41.953 34.093c-2.023-1.003-5.891-1.052-7.33-.353-.309.136-.105 1.087.154.996 2.008-.744 5.246-.762 7.127.064.25.106.356-.566.049-.707z" fill="#c1873c"/><path d="m22.049 34.093c2.02-1.003 5.887-1.052 7.33-.353.307.136.104 1.087-.156.996-2.012-.744-5.246-.762-7.129.064-.248.106-.352-.566-.045-.707z" fill="#c1873c"/><path d="m35.822 37.485c0 2.712 3.924 2.712 3.924 0 0-2.518-3.924-2.518-3.924 0z" fill="#613f34"/><path d="m36.211 38.354c0 1.555 3.146 1.555 3.146 0 0-1.445-3.146-1.445-3.146 0z" fill="#7d5037"/><path d="m36.971 37.527c0 1.127 1.629 1.127 1.629 0 0-1.045-1.629-1.045-1.629 0z" fill="#1a1626"/><path d="m36.414 37.199c0 .568.822.568.822 0 0-.527-.822-.527-.822 0z" fill="#ab968c"/><path d="m24.254 37.484c0 2.713 3.924 2.713 3.924 0 0-2.518-3.924-2.518-3.924 0z" fill="#613f34"/><path d="m24.643 38.353c0 1.556 3.146 1.556 3.146 0 0-1.445-3.146-1.445-3.146 0z" fill="#7d5037"/><path d="m25.402 37.527c0 1.126 1.629 1.126 1.629 0 0-1.045-1.629-1.045-1.629 0z" fill="#1a1626"/><path d="m24.846 37.198c0 .569.822.569.822 0 0-.528-.822-.528-.822 0z" fill="#ab968c"/><path d="m41.463 37.791c0-3.319-6.867-3.319-6.867.525.98-3.154 5.884-3.154 6.867-.525z" fill="#e6b045"/><path d="m22.537 37.791c0-3.319 6.865-3.319 6.865.525-.978-3.156-5.884-3.156-6.865-.525z" fill="#e6b045"/><path d="m43.143 31.715v8.119c0 5.916-4.895 10.549-11.143 10.549s-11.143-4.633-11.143-10.549v-8.119h-1.857v8.119c0 6.941 5.82 12.406 13 12.406 7.178 0 13-5.465 13-12.406v-8.119z" fill="#302c3b"/><path d="m48.713 33.898c0 5.996-5.576 2.018-7.426 1.529-4.492-1.178-14.08-1.176-18.574 0-1.848.488-7.428 4.467-7.428-1.529v-22.529c0-12.492 33.428-12.492 33.428 0z" fill="#302c3b"/><path d="m36.5 47.553c-3.113 1.816-6.021 1.674-9 0 3.096-.438 5.904-.438 9 0z" fill="#e6a400"/><path d="m32 46.959c-1.313-.354-2.453.359-4.5.594 1.104.195 2.92.086 4.5.148 1.58-.063 3.396.047 4.5-.148-2.045-.235-3.187-.948-4.5-.594z" fill="#d99025"/></svg>