<svg enable-background="new 0 0 64 64" height="64" viewBox="0 0 64 64" width="64" xmlns="http://www.w3.org/2000/svg" xmlns:xlink="http://www.w3.org/1999/xlink"><linearGradient id="a" gradientTransform="matrix(-.7071 .7071 .7071 .7071 -28.2744 11.7118)" gradientUnits="userSpaceOnUse" x1="-42.2563" x2="-14.2925" y1="75.0879" y2="75.0879"><stop offset="0" stop-color="#ffd94d"/><stop offset=".3431" stop-color="#fed64b"/><stop offset=".6187" stop-color="#fccc44"/><stop offset=".8699" stop-color="#f8bb39"/><stop offset="1" stop-color="#f5af31"/></linearGradient><linearGradient id="b" gradientTransform="matrix(-.7071 .7071 .7071 .7071 -28.2744 11.7118)" gradientUnits="userSpaceOnUse" x1="-42.2563" x2="-14.291" y1="38.8467" y2="38.8467"><stop offset="0" stop-color="#ff2121"/><stop offset=".3304" stop-color="#fc1f1f"/><stop offset=".5957" stop-color="#f2181b"/><stop offset=".8377" stop-color="#e10b13"/><stop offset="1" stop-color="#d1000b"/></linearGradient><radialGradient id="c" cx="451.7842" cy="117.6445" gradientTransform="matrix(.0836 .6433 .6485 -.0843 -99.9672 -282.2481)" gradientUnits="userSpaceOnUse" r="36.9883"><stop offset="0" stop-color="#fff" stop-opacity=".4"/><stop offset=".8606" stop-color="#fff" stop-opacity="0"/></radialGradient><path d="m57.628 57.627c-5.461 5.459-13.91 5.861-18.875.898l-16.639-16.64 19.773-19.772 16.637 16.637c4.965 4.965 4.563 13.415-.896 18.877z" fill="url(#a)"/><path d="m6.374 6.373c-5.461 5.461-5.861 13.911-.9 18.876l16.641 16.637 19.773-19.772-16.639-16.639c-4.965-4.965-13.415-4.56-18.875.898z" fill="url(#b)"/><path d="m18.105 28.8c6.848-.885 11.68-7.113 10.794-13.901-.883-6.797-7.146-11.581-13.991-10.69-6.847.888-11.68 7.116-10.801 13.91.884 6.798 7.157 11.578 13.998 10.681z" fill="url(#c)"/></svg>