<svg enable-background="new 0 0 64 64" height="64" viewBox="0 0 64 64" width="64" xmlns="http://www.w3.org/2000/svg" xmlns:xlink="http://www.w3.org/1999/xlink"><radialGradient id="a" cx="-486.6191" cy="-420.25" gradientTransform="matrix(2.9058 0 0 3.0887 1446.1848 1308.9381)" gradientUnits="userSpaceOnUse" r="11.15"><stop offset=".4182" stop-color="#ff1c23"/><stop offset=".6205" stop-color="#f6151b"/><stop offset=".9523" stop-color="#dd0404"/><stop offset="1" stop-color="#d90100"/></radialGradient><radialGradient id="b" cx="32" cy="32.9512" gradientUnits="userSpaceOnUse" r="21.3475"><stop offset="0" stop-color="#ffe72e"/><stop offset=".0773" stop-color="#ffe327"/><stop offset=".4631" stop-color="#ffd30b"/><stop offset=".6848" stop-color="#ffcd00"/></radialGradient><path d="m31.997 14.334c-7.963-12.942-29.997-7.888-29.997 8.367 0 10.904 10.163 18.199 29.997 34.299 19.834-16.1 30.003-23.395 30.003-34.299 0-16.255-22.037-21.309-30.003-8.367z" fill="url(#a)"/><path d="m54.264 38.084c-14.801 1.568-29.727 1.568-44.527 0-6.883-5.422-7.26-11.441-7.26-11.441 19.574 2.91 39.473 2.909 59.047 0-.001-.001-.264 5.357-7.26 11.441z" fill="url(#b)"/><path d="m11.402 36.871s3.043 5.605-.955 15.059l6.383-2.977 3.662 7.854s4.189-8.386-2.609-22.966z" fill="#f59e01"/><path d="m27.754 29.246s2.338 5.936 12.148 8.95l-6.382 2.974 3.664 7.854s-9.117-2.181-15.916-16.761z" fill="#f59e01"/><path d="m19.121 33.793c1.758 3.771.691 8.734-2.375 11.029l-2.451 1.838c-3.063 2.295-6.131 1.689-6.814-1.344-.682-3.033-2.785-7.541-4.668-10.014-1.885-2.475-.377-5.212 3.35-6.083l2.984-.697c3.726-.873 8.216 1.501 9.974 5.271z" fill="#ffe12c"/><path d="m8.5 45.336c-.086.51.412.777.59.916.535.42 1.645.621 3.15-.08.432-.201.867-.467 1.295-.789l2.453-1.837c1.717-1.285 2.74-3.552 2.844-5.827 0 0-9.303 1.583-10.332 7.617z" fill="#f59e01"/><path d="m20.436 33.18c1.758 3.771 6.246 6.145 9.973 5.271l2.984-.697c3.729-.871 5.234-3.609 3.35-6.083-1.883-2.474-3.984-6.981-4.668-10.014-.684-3.034-3.75-3.639-6.813-1.344l-2.453 1.838c-3.065 2.295-4.131 7.259-2.373 11.029z" fill="#ffe12c"/><g fill="#f59e01"><path d="m36.104 32.464c.447.262.33.816.322 1.04-.021.682-.58 1.66-2.086 2.361-.432.202-.916.365-1.438.487l-2.982.698c-2.09.489-4.482-.184-6.293-1.567 0-.001 7.193-6.109 12.477-3.019z"/><path d="m18.896 32.6s-.314 1.453-3.523-.183c-3.656-1.863-5.223 3.602.061 3.233 2.822-.197 3.462-3.05 3.462-3.05z"/><path d="m19.666 32.242s1.313.693 2.123-2.817c.924-3.997 6.117-1.685 2.438 2.125-1.965 2.034-4.561.692-4.561.692z"/><path d="m22.182 38.641c-1.836.855-1.332 3.119-4.656-4.01-3.326-7.132-1.914-5.291-.08-6.146s1.33-3.119 4.656 4.011c3.324 7.129 1.914 5.289.08 6.145z"/></g><path d="m22.242 38.773c-1.486.693-.871 2.969-4.283-4.345-3.41-7.317-2.063-5.382-.576-6.076 1.488-.693.873-2.97 4.285 4.346 3.41 7.316 2.062 5.382.574 6.075z" fill="#ffe12c"/></svg>