<svg enable-background="new 0 0 64 64" height="64" viewBox="0 0 64 64" width="64" xmlns="http://www.w3.org/2000/svg" xmlns:xlink="http://www.w3.org/1999/xlink"><linearGradient id="a" gradientTransform="matrix(-.8078 .5895 .5895 .8078 -242.7072 105.6927)" gradientUnits="userSpaceOnUse" x1="-258.2114" x2="-258.2114" y1="93.9951" y2="76.0742"><stop offset="0" stop-color="#ffe600"/><stop offset=".3258" stop-color="#ffda00"/><stop offset=".9131" stop-color="#ffba00"/><stop offset="1" stop-color="#ffb500"/></linearGradient><linearGradient id="b" gradientTransform="matrix(.8078 -.5895 .5895 .8078 -347.7828 182.3786)" gradientUnits="userSpaceOnUse" x1="394.793" x2="394.793" y1="93.998" y2="76.4873"><stop offset="0" stop-color="#ffb500"/><stop offset=".0869" stop-color="#ffba00"/><stop offset=".6742" stop-color="#ffda00"/><stop offset="1" stop-color="#ffe600"/></linearGradient><linearGradient id="c" gradientTransform="matrix(-.2303 .9731 .9731 .2303 -424.8931 534.7024)" gradientUnits="userSpaceOnUse" x1="-583.8506" x2="-583.8506" y1="324.3604" y2="305.9727"><stop offset="0" stop-color="#ab11a7"/><stop offset=".0906" stop-color="#b512b1"/><stop offset=".2944" stop-color="#c613c2"/><stop offset=".5152" stop-color="#d114cc"/><stop offset=".7818" stop-color="#d414cf"/></linearGradient><linearGradient id="d" gradientTransform="matrix(.2303 -.9731 .9731 .2303 -454.8523 661.2886)" gradientUnits="userSpaceOnUse" x1="720.2227" x2="720.2227" y1="324.3643" y2="306.1494"><stop offset=".2182" stop-color="#d414cf"/><stop offset=".4848" stop-color="#d114cc"/><stop offset=".7056" stop-color="#c613c2"/><stop offset=".9094" stop-color="#b512b1"/><stop offset="1" stop-color="#ab11a7"/></linearGradient><linearGradient id="e" gradientTransform="matrix(-.9685 .2491 .2491 .9685 -.5412 70.3171)" gradientUnits="userSpaceOnUse" x1="-46.9985" x2="-46.9985" y1="-36.249" y2="-50.5845"><stop offset="0" stop-color="#7a0032"/><stop offset=".1403" stop-color="#8b0539"/><stop offset="1" stop-color="#f22462"/></linearGradient><linearGradient id="f" gradientTransform="matrix(-.9685 .2491 .2491 .9685 -12.9611 73.5105)" gradientUnits="userSpaceOnUse" x1="-56.4287" x2="-56.4287" y1="-32.1304" y2="-49.0269"><stop offset="0" stop-color="#ff70ab"/><stop offset="1" stop-color="#ff3672"/></linearGradient><linearGradient id="g" gradientTransform="matrix(.9685 -.2491 .2491 .9685 -138.9417 105.9181)" gradientUnits="userSpaceOnUse" x1="192.8496" x2="192.8496" y1="-32.1362" y2="-48.8022"><stop offset="0" stop-color="#ff99c3"/><stop offset="1" stop-color="#ff3672"/></linearGradient><linearGradient id="h" gradientTransform="matrix(.7071 -.7071 .7071 .7071 -421.8097 203.3779)" gradientUnits="userSpaceOnUse" x1="430.0713" x2="454.5078" y1="218.9746" y2="218.9746"><stop offset="0" stop-color="#cfd8dd"/><stop offset=".2647" stop-color="#dbe2e7"/><stop offset=".7455" stop-color="#ecf1f5"/></linearGradient><path d="m49.645 49.267-32.389-9.84 21.153-19.883z" fill="#449c00"/><path d="m54.374 54.313-1.3 1.2 5.372 6.487 1.009-.943z" fill="#56ab15"/><path d="m61.729 60.78-.967.931-7.541-6.396 1.588-1.448z" fill="#449c00"/><path d="m53.411 55.342 7.581 4.374 1.008-.998-6.789-5.135z" fill="#56ab15"/><path d="m31.362 39.623c-11.425-8.2-23.113 5.584-23.113 5.584 16.309 5.065 23.113-5.584 23.113-5.584z" fill="#449c00"/><path d="m8.249 45.207c16.567 6.129 23.113-5.584 23.113-5.584s-11.23-.144-23.113 5.584z" fill="#56ab15"/><path d="m29.977 32.604c-6.426-15.523-27.977-8.238-27.977-8.238 13.661 15.22 27.977 8.238 27.977 8.238z" fill="#449c00"/><path d="m2 24.366c13.214 16.495 27.977 8.238 27.977 8.238s-11.67-6.991-27.977-8.238z" fill="#56ab15"/><path d="m30.389 27.967c-13.15-5.323-6.438-21.867-6.438-21.867 12.736 10.921 6.438 21.867 6.438 21.867z" fill="#449c00"/><path d="m23.951 6.1c13.841 10.604 6.438 21.867 6.438 21.867s-5.726-9.198-6.438-21.867z" fill="#56ab15"/><path d="m16.822 12.34c-1.213-.138-2.505-.29-3.971-.9-.22.845-1.07 2.612-1.376 4.765-2.758.228-4.469 1.446-5.229 1.975 9.673 3.739 15.698.591 14.372-9.975-.731.509-2.587 1.769-3.796 4.135z" fill="#d47706"/><path d="m13.829 23.829c3.572 4.654 13.818-2.461 10.254-7.112-3.575-4.653-9.444-5.168-11.231-5.277 3.217 4.318-2.593 7.738.977 12.389z" fill="#ea8800"/><path d="m21.29 20.874c3.732 2.819 3.799 5.781 2.741 6.513-2.93 2.036-7.671 2.198-10.614-2.008-3.498-5.002-5.595-5.25-7.176-7.195 1.326-.923 6.768-3.565 15.049 2.69z" fill="url(#a)"/><path d="m18.291 22.957c1.688 4.24 4.628 5.205 5.686 4.471 2.93-2.033 4.541-6.279 1.225-10.229-3.943-4.691-3.105-6.976-4.576-9-1.328.923-6.077 5.353-2.335 14.758z" fill="url(#b)"/><path d="m36.968 30.994c-6.73-10.048 6.774-18.83 6.774-18.83 3.496 13.899-6.774 18.83-6.774 18.83z" fill="#449c00"/><path d="m43.742 12.164c4.456 14.189-6.774 18.83-6.774 18.83s.665-9.348 6.774-18.83z" fill="#56ab15"/><path d="m34.75 21.901c-9.899-7.287-.316-19.901-.316-19.901 8.231 11.951.316 19.901.316 19.901z" fill="#449c00"/><path d="m34.434 2c9.237 11.917.316 19.901.316 19.901s-2.697-9.01-.316-19.901z" fill="#56ab15"/><path d="m35.721 33.025c-1.425-11.834-17.727-10.566-17.727-10.566 6.485 12.895 17.727 10.566 17.727 10.566z" fill="#449c00"/><g fill="#56ab15"><path d="m17.994 22.459c5.925 13.696 17.727 10.566 17.727 10.566s-6.703-6.859-17.727-10.566z"/><path d="m12.454 30.933c7.645 9.305 17.558 4.632 28.123 13.277l1.658-.92c-9.817-9.191-21.395-5.216-29.781-12.357z"/><path d="m28.213 15.137c10.399 6.478 6.268 16.212 16.205 25.499l-.839 1.64c-10.45-8.541-7.185-19.788-15.366-27.139z"/></g><path d="m10.13 31.18c-1.016.645-2.101 1.323-3.636 1.762.415.777.98 2.644 2.227 4.468-1.94 1.872-2.401 3.849-2.616 4.722 9.915-3.117 12.329-9.221 4.07-16.433-.208.842-.75 2.939-.045 5.481z" fill="#7a107a"/><path d="m15.743 41.752c5.911 1.337 8.811-10.383 2.905-11.718s-10.72 1.89-12.154 2.907c5.41 1.3 3.343 7.476 9.249 8.811z" fill="#ab11a7"/><path d="m19.384 34.913c4.771-.157 6.854 2.052 6.554 3.257-.827 3.354-4.318 6.396-9.44 5.015-6.092-1.647-7.855-.543-10.394-1.048.375-1.518 2.694-6.876 13.28-7.224z" fill="url(#c)"/><path d="m18.535 38.342c4.192 2.182 7.087 1.105 7.39-.105.827-3.351-.862-7.567-6.093-8.524-6.215-1.138-7.147-3.387-9.656-4.02-.374 1.518-.941 7.808 8.359 12.649z" fill="url(#d)"/><path d="m35.96 11.671c-1.035-.537-2.134-1.108-3.215-2.147-.514.678-1.932 1.969-3.009 3.782-2.55-.729-4.536-.22-5.416-.01 7.259 6.612 13.824 5.841 16.582-4.029-.85.206-2.978.7-4.942 2.404z" fill="#b81d4b"/><path d="m28.997 20.903c1.459 5.362 13.277 2.486 11.819-2.874-1.458-5.357-6.513-7.803-8.071-8.506 1.268 4.941-5.207 6.024-3.748 11.38z" fill="url(#e)"/><path d="m36.773 20.795c2.286 3.778 1.241 6.441.026 6.739-3.383.821-7.684-.64-8.748-5.388-1.262-5.644-3.049-6.576-3.735-8.848 1.535-.368 7.383-.884 12.457 7.497z" fill="url(#f)"/><path d="m33.315 21.637c-.076 4.351 2.196 6.208 3.412 5.909 3.383-.818 6.407-4.062 4.911-8.703-1.77-5.521-.177-7.274-.731-9.579-1.529.376-7.433 2.72-7.592 12.373z" fill="url(#g)"/><path d="m53.662 56.701s-.686 1.559.164 2.85c1.179 1.79 1.123-1.805 2.33-1.918 3.149-.307 1.18-2.428 3.128-2.765 1.867-.317-1-1.398-3.243-.968-3.045-11.265-11.671-16.744-13.033-28.475-3.77.815-8.433 12.101-15.938 18.621 7.065 1.521 13.28 8.206 26.592 12.655z" fill="url(#h)"/><path d="m55.843 52.777c-1.112.361-1.936 2.449-3.518 3.383-.469.277.848 1.004 1.313.899 1.253-.274 2.382-2.534 2.832-2.963.41-.387-.151-1.471-.627-1.319z" fill="#6e8189"/></svg>