<svg enable-background="new 0 0 64 64" height="64" viewBox="0 0 64 64" width="64" xmlns="http://www.w3.org/2000/svg" xmlns:xlink="http://www.w3.org/1999/xlink"><radialGradient id="a" cx="-486.6191" cy="-419.8887" gradientTransform="matrix(2.9058 0 0 3.0887 1446.1848 1308.8221)" gradientUnits="userSpaceOnUse" r="11.15"><stop offset=".4182" stop-color="#ff1c23"/><stop offset=".6205" stop-color="#f6151b"/><stop offset=".9523" stop-color="#dd0404"/><stop offset="1" stop-color="#d90100"/></radialGradient><path d="m31.997 15.334c-7.963-12.942-29.997-7.888-29.997 8.367 0 10.904 10.163 18.199 29.997 34.299 19.834-16.1 30.003-23.395 30.003-34.299 0-16.255-22.037-21.309-30.003-8.367z" fill="url(#a)"/><path d="m51.332 7.818c0 7.86-5.103 11.288-11.091 11.288 5.988 0 10.234 7.033 10.234 14.895 0-7.861 4.254-14.895 10.242-14.895-5.988-.001-9.385-3.428-9.385-11.288z" fill="#1a1626" opacity=".25"/><path d="m51.758 2c0 7.86-4.244 14.891-10.231 14.891 5.987 0 10.231 7.034 10.231 14.895 0-7.861 4.254-14.895 10.242-14.895-5.988 0-10.242-7.031-10.242-14.891z" fill="#ffe12c"/><path d="m13.091 22.818c0 7.86-5.103 11.288-11.091 11.288 5.988 0 10.234 7.033 10.234 14.895 0-7.861 4.254-14.895 10.242-14.895-5.988-.001-9.385-3.428-9.385-11.288z" fill="#1a1626" opacity=".25"/><path d="m13.517 17c0 7.86-4.244 14.891-10.231 14.891 5.987 0 10.231 7.035 10.231 14.894 0-7.859 4.254-14.894 10.242-14.894-5.988 0-10.242-7.031-10.242-14.891z" fill="#ffe12c"/><path d="m42.212 35.818c0 7.859-5.104 11.287-11.092 11.287 5.988 0 10.234 7.033 10.234 14.895 0-7.861 4.254-14.895 10.242-14.895-5.988 0-9.384-3.427-9.384-11.287z" fill="#1a1626" opacity=".25"/><path d="m42.638 30c0 7.859-4.244 14.891-10.232 14.891 5.988 0 10.232 7.033 10.232 14.895 0-7.861 4.254-14.895 10.242-14.895-5.988 0-10.242-7.032-10.242-14.891z" fill="#ffe12c"/></svg>