<svg enable-background="new 0 0 64 64" height="64" viewBox="0 0 64 64" width="64" xmlns="http://www.w3.org/2000/svg" xmlns:xlink="http://www.w3.org/1999/xlink"><radialGradient id="a" cx="30.5" cy="20.1665" gradientUnits="userSpaceOnUse" r="27.5794"><stop offset=".4182" stop-color="#ff1c23"/><stop offset=".6205" stop-color="#f6151b"/><stop offset=".9523" stop-color="#dd0404"/><stop offset="1" stop-color="#d90100"/></radialGradient><path d="m61.026 18.24c-4.476-13.039-16.685-13.332-23.117-7.952-4.585 3.834-6.935 11.312-6.935 11.312l8.008 1.406-8.358 14.875 9.308-1.842-4.585 16.514-1.16-12.229-10.799 2.289 8.43-15.231-7.399-1.427 4.1-12.722c-6.396-6.915-22.942-8.191-26.175 8.392-3.845 19.753 33.019 35.375 33.019 35.375 8.423-5.879 31.409-22.031 25.663-38.76z" fill="url(#a)"/><path d="m28.518 13.233.798 2.662-3.683 9.875-2.488.843z" fill="#850505"/><path d="m31.396 27.979 1.928-1.409-7.59-1.071-2.589 1.114z" fill="#b00505"/><path d="m21.897 43.478 3.216-1.588 8.211-15.32-2.574 1.303z" fill="#850505"/><path d="m34.143 40.74 1.071-1.342-9.909 2.134-3.408 1.946z" fill="#b00505"/><path d="m35.348 52.553-.134-13.155-1.422 1.42z" fill="#850505"/></svg>