<svg enable-background="new 0 0 64 64" height="64" viewBox="0 0 64 64" width="64" xmlns="http://www.w3.org/2000/svg" xmlns:xlink="http://www.w3.org/1999/xlink"><linearGradient id="a" gradientUnits="userSpaceOnUse" x1="32" x2="32" y1="2" y2="62"><stop offset="0" stop-color="#ff3b3b"/><stop offset=".2558" stop-color="#fb3737"/><stop offset=".5207" stop-color="#f02b2a"/><stop offset=".7889" stop-color="#dd1616"/><stop offset="1" stop-color="#c90100"/></linearGradient><path d="m62 54c0 4.4-3.6 8-8 8h-44c-4.4 0-8-3.6-8-8v-44c0-4.4 3.6-8 8-8h44c4.4 0 8 3.6 8 8z" fill="url(#a)"/><path d="m32 20.219c-5.307-8.623-20-5.254-20 5.58 0 7.272 6.776 12.139 20 22.868 13.224-10.729 20-15.596 20-22.868 0-10.834-14.693-14.203-20-5.58z" fill="#fff"/></svg>