<svg enable-background="new 0 0 64 64" height="64" viewBox="0 0 64 64" width="64" xmlns="http://www.w3.org/2000/svg" xmlns:xlink="http://www.w3.org/1999/xlink"><linearGradient id="a"><stop offset=".4182" stop-color="#ff1c23"/><stop offset=".6205" stop-color="#f6151b"/><stop offset=".9523" stop-color="#dd0404"/><stop offset="1" stop-color="#d90100"/></linearGradient><radialGradient id="b" cx="-403.9219" cy="-434.1431" gradientTransform="matrix(2.6335 1.228 -1.3054 2.7993 527.3209 1738.5195)" gradientUnits="userSpaceOnUse" r="9.3097" xlink:href="#a"/><radialGradient id="c" cx="-558.6694" cy="-452.9209" gradientTransform="matrix(2.6335 -1.228 1.3054 2.7993 2109.2158 588.7471)" gradientUnits="userSpaceOnUse" r="5.0779" xlink:href="#a"/><path d="m28.941 29.715c-1.459-12.604-19.916-16.554-25.65-4.254-3.848 8.252 1.269 17.358 10.595 36.539 20.688-5.184 30.958-7.115 34.806-15.367 5.736-12.3-9.157-23.901-19.751-16.918z" fill="url(#b)"/><path d="m47.303 8.39c-5.777-3.809-13.898 2.518-10.771 9.226 2.099 4.5 7.697 5.556 18.981 8.383 5.088-10.462 7.881-15.43 5.782-19.931-3.127-6.708-13.195-4.553-13.992 2.322z" fill="url(#c)"/></svg>