<svg enable-background="new 0 0 64 64" height="64" viewBox="0 0 64 64" width="64" xmlns="http://www.w3.org/2000/svg" xmlns:xlink="http://www.w3.org/1999/xlink"><radialGradient id="a" cx="-500.3774" cy="-369.3257" gradientTransform="matrix(2.4215 0 0 2.5945 1244.0358 976.5097)" gradientUnits="userSpaceOnUse" r="11.15"><stop offset=".4182" stop-color="#ff1c23"/><stop offset=".6205" stop-color="#f6151b"/><stop offset=".9523" stop-color="#dd0404"/><stop offset="1" stop-color="#d90100"/></radialGradient><g fill="#e81c27"><path d="m42.039 12.425c8.816-1.419 16.055 4.503 17.717 12.287.102.482.746.325.766-.223.299-8.311-6.771-16.936-18.355-12.958-.501.172-.601.969-.128.894z"/><path d="m46.902 8.546c7.197-1.16 13.109 3.676 14.465 10.032.084.394.609.265.625-.182.244-6.786-5.527-13.827-14.986-10.58-.41.141-.488.792-.104.73z"/><path d="m21.961 12.425c-8.815-1.419-16.056 4.503-17.716 12.287-.104.482-.748.325-.768-.223-.298-8.311 6.773-16.935 18.356-12.958.502.172.6.969.128.894z"/><path d="m17.098 8.546c-7.198-1.16-13.108 3.676-14.465 10.032-.084.394-.61.265-.626-.182-.244-6.786 5.53-13.827 14.988-10.58.409.141.489.792.103.73z"/></g><path d="m32.231 21.161c-6.635-10.872-24.997-6.626-24.997 7.028 0 9.159 8.47 15.288 24.997 28.812 16.529-13.524 25.003-19.653 25.003-28.813 0-13.653-18.365-17.899-25.003-7.027z" fill="url(#a)"/></svg>