<svg enable-background="new 0 0 64 64" height="64" viewBox="0 0 64 64" width="64" xmlns="http://www.w3.org/2000/svg" xmlns:xlink="http://www.w3.org/1999/xlink"><linearGradient id="a" gradientUnits="userSpaceOnUse" x1="32.0005" x2="32.0005" y1="62" y2="2.0005"><stop offset="0" stop-color="#d90100"/><stop offset=".1165" stop-color="#e01313"/><stop offset=".3661" stop-color="#ee3535"/><stop offset=".6033" stop-color="#f74d4d"/><stop offset=".8207" stop-color="#fd5c5c"/><stop offset="1" stop-color="#ff6161"/></linearGradient><linearGradient id="b" gradientUnits="userSpaceOnUse" x1="31.8091" x2="31.8091" y1="47.6797" y2="15.3228"><stop offset="0" stop-color="#f80"/><stop offset=".2113" stop-color="#ffa113"/><stop offset=".5427" stop-color="#ffc32b"/><stop offset=".8176" stop-color="#ffd83a"/><stop offset="1" stop-color="#ffdf40"/></linearGradient><linearGradient id="c" gradientUnits="userSpaceOnUse" x1="31.8081" x2="31.8081" y1="38.3516" y2="24.6509"><stop offset="0" stop-color="#fff1a3"/><stop offset=".1596" stop-color="#fff4b6"/><stop offset=".5273" stop-color="#fffade"/><stop offset=".8203" stop-color="#fffef6"/><stop offset="1" stop-color="#fff"/></linearGradient><path d="m43.908 35.201 18.092-10.033-20.301.883 6.03-12.455-10.997 7.824 1.358-17.178-8 14.156-12.043-16.398 5.176 20.43-18.065-5.996 14.397 13.15-17.555 3.416 16.828 3.832-9.437 16.84 15.445-9.326.637 17.654 6.326-16.125 8.512 12.76-.471-15.324 14.654 5.595z" fill="url(#a)"/><path d="m38.652 33.674 10.594-4.912-11.748-.348 3.15-6.986-6.224 3.566.232-9.5-4.179 7.92-6.295-8.092 2.75 10.199-10.487-2.656 8.571 7.395-10.645 2.502 9.742 2.242-6.867 10.533 10.529-7.131.288 9.274 3.783-8.473 4.275 6.33-.072-7.672 7.697 3.375z" fill="url(#b)"/><path d="m34.705 32.42 4.486-2.08-4.974-.147 1.334-2.957-2.635 1.51.098-4.023-1.77 3.353-2.666-3.426 1.166 4.319-4.441-1.125 3.629 3.131-4.508 1.06 4.125.949-2.906 4.459 4.457-3.019.123 3.928 1.601-3.588 1.811 2.679-.031-3.248 3.259 1.43z" fill="url(#c)"/></svg>