<svg enable-background="new 0 0 64 64" height="64" viewBox="0 0 64 64" width="64" xmlns="http://www.w3.org/2000/svg" xmlns:xlink="http://www.w3.org/1999/xlink"><radialGradient id="a" cx="128.4438" cy="26.5831" gradientTransform="matrix(.0555 .9988 -1.3849 .0616 69.4525 -103.3391)" gradientUnits="userSpaceOnUse" r="31.4367"><stop offset=".4121" stop-color="#614a36"/><stop offset=".7338" stop-color="#5f4833"/><stop offset=".9327" stop-color="#57402b"/><stop offset="1" stop-color="#523b26"/></radialGradient><path d="m31.801 11.215c3.26 4.246 5 2.842 6.182 3.117 3.559.828 3.957 2.41 7.178 2.787 4.473.524 2.896-2.879 1.109-4.203-4.53-3.36-14.955-2.334-14.469-1.701z" fill="#523b26"/><path d="m46.453 14.103c.662.746 2.176 2.668-1.205 2.272-3.096-.361-3.336-1.898-7.096-2.773-1.098-.258-2.094.59-3.971-.936-.506.211-1.006.438-1.498.676 2.627 2.506 4.211 1.494 5.129 1.721 3.203.744 4.049 2.426 7.262 2.803 3.565.412 4.623-1.672 3.016-4.078-.545.11-1.09.216-1.637.315z" fill="#452f1b"/><path d="m31.221 12.863c1.68.715 3.434.053 4.158-.611 1.225.09 2.92-.164 2.92-.164-.342 2.777 1.498 2.447 5.371 2.662.641.293 2.619.154 2.57-1.197.633.254 3.184.381 2.84-1.205.613-.082 1.74-.184 1.561-1.146-.15-.816-2.826-9.016-6.836-8.314-.582.102-7.234.197-7.869.471-3.305 1.428-6.838 1.428-8.475 3.047-20.758 20.506-19.326 28.7-23.525 35.872-3.611 6.17 2.09 9.883 3.178 10.262 23.074 8.016 22.801 11.748 51.568 5.766 1.547-.32 6.826-11.387-4.57-19.869-10.328-7.688-21.479-5.725-29.822-.346 4.357-13.267-2.641-12.994 6.931-25.228z" fill="url(#a)"/><g fill="#452f1b"><path d="m25.75 47.147c-.803-1.068.555-2.088 1.359-1.021 5.17 6.871 16.402 8.002 25.039 2.518 1.201-.76 2.107.674.912 1.435-8.945 5.679-21.05 5.386-27.31-2.932z"/><path d="m54.559 37.834c-9.043-6.73-19.5-6.719-28.902-1.441 2.988-11.09-2.539-11.764 5.826-22.643.41.115.836.172 1.272.172 1.223 0 2.254-.451 2.873-.906.646.025 1.35-.027 1.889-.08.174 2.814 3.613 2.428 5.994 2.557 1.203.414 2.813-.094 3.291-1.063 1.396.141 2.766-.256 3.025-1.438.838-.176 1.775-.715 1.551-1.926-.279-1.518-3.031-4.797-3.213-6.436-.256-2.318-1.764-2.959-4.486-2.484-.248.037-7.125.139-8.039.522-3.41 1.428-6.844 1.361-8.705 3.203-21.23 20.975-18.833 27.813-23.646 36.028-3.828 6.539 1.93 10.777 3.578 11.348 14.188 4.919 20.369 8.753 30.471 8.753 5.084 0 11.512-.885 21.496-2.961 2.494-.517 7.367-12.539-4.275-21.205zm3.97 19.737c-9.879 2.055-16.217 2.93-21.191 2.93-10.375 0-17.334-4.482-29.979-8.67-1.189-.393-5.932-3.785-2.775-9.174 4.877-8.327 2.332-14.899 23.404-35.72 1.395-1.379 5.471-1.691 8.213-2.879.465-.137 7.494-.393 7.732-.434 1.568-.275 2.666-.293 2.738 1.172.098 1.953 2.963 5.557 3.254 6.576-.104.111-.547.178-.848.219-.043-.08-1.611-3-1.893-3.857.162 1.707.836 3.52 1.172 4.906.08.332-1.078.326-1.398.297-.205-3.195-.621-4.576-.666-7.744-.029-1.914-2.32-.756-4.732-.996 2.344.506 4.295-.223 4.17.971-.732 7.496.885 9.148-1.619 8.934.16-1.879-.17-5.488-.139-7.285.027-1.596-2.619-.482-4.4-1.047 1.68.756 3.557.207 3.842.818.15.242-.357 6.998-.658 7.369-3.047-.129-3.857-.004-3.729-1.58.025-.012.387-.182.547-.258.646.531 1.463.871 2.43.551-.736-.098-1.311-.598-1.525-1.045.711-.453 1.268-1.094 1.605-1.793-1.512 1.967-6.975 1.648-6.975 1.648s-1.635 1.773-4.125.469c-10.508 13.43-2.996 14.146-7.408 25.907-1.467 3.916-3.252 5.494-4.83 7.494-.73.926.525 1.717 1.176.93 1.215-1.471 3.883-4.326 5.053-7.727 9.691-6.113 19.99-5.99 28.688.484 10.573 7.871 6.112 17.836 4.866 18.534z"/></g></svg>