<svg enable-background="new 0 0 64 64" height="64" viewBox="0 0 64 64" width="64" xmlns="http://www.w3.org/2000/svg" xmlns:xlink="http://www.w3.org/1999/xlink"><linearGradient id="a" gradientUnits="userSpaceOnUse" x1="2" x2="28.8281" y1="33.4648" y2="33.4648"><stop offset="0" stop-color="#cfdde6"/><stop offset=".8063" stop-color="#adcbdc"/><stop offset="1" stop-color="#a4c6d9"/></linearGradient><radialGradient id="b" cx="41.1982" cy="32" gradientTransform="matrix(1 0 0 1.2774 0 -8.8768)" gradientUnits="userSpaceOnUse" r="20.0611"><stop offset="0" stop-color="#cfdde6"/><stop offset=".3103" stop-color="#cbdbe5"/><stop offset=".6087" stop-color="#c0d5e1"/><stop offset=".9014" stop-color="#accadc"/><stop offset="1" stop-color="#a4c6d9"/></radialGradient><path d="m28.828 17.898s-7.414 9.5-21.637 9.529c5.262 1.768 3.174 4.066-5.182 4.797 8.328 2.721 3.066 4.496-.01 5.502 9.775.857 9.076 3.473 5.182 4.795 12.566 1.146 21.646 6.51 21.646 6.51v-31.133z" fill="url(#a)"/><path d="m30.868 27.117c-.401-1.973-7.853 1.082-18.978 3.209 10.087.342 17.802-.752 18.978-3.209z" fill="#a4c6d9"/><path d="m30.589 32.49c-.317-1.99-8.778.723-21.253 2.34 11.164.801 19.791.063 21.253-2.34z" fill="#a4c6d9"/><path d="m30.198 36.512c-.325-1.984-7.294.787-17.642 2.494 9.33.719 16.497-.082 17.642-2.494z" fill="#a4c6d9"/><path d="m62 34.629c0-3.996-1.783-7.52-4.502-9.648.594-1.252.934-2.68.934-4.195 0-4.713-3.246-8.57-7.369-8.939-1.231-4.54-4.993-7.847-9.446-7.847-3.68 0-6.883 2.26-8.58 5.602-.762-.201-1.553-.318-2.369-.318-5.672 0-10.271 5.148-10.271 11.502 0 5.299 3.205 9.75 7.559 11.084-4.1 1.32-7.102 5.541-7.102 10.557 0 6.072 4.395 10.994 9.814 10.994 1.006 0 1.973-.172 2.887-.484 1.894 4.186 5.767 7.063 10.246 7.063 6.348 0 11.494-5.762 11.494-12.869 0-.51-.033-1.01-.086-1.504 3.967-1.684 6.791-5.967 6.791-10.998z" fill="url(#b)"/><g fill="#fff"><path d="m59.162 36.127c1.875-6.531-3.709-13.219-10.25-10.182 4.875.494 8.938 4.182 10.25 10.182z"/><path d="m41.779 43.668c1.875-6.531-3.709-13.217-10.25-10.182 4.875.494 8.938 4.182 10.25 10.182z"/><path d="m56.121 23.793c1.875-6.531-3.711-13.217-10.252-10.182 4.877.494 8.94 4.182 10.252 10.182z"/><path d="m49.99 39.26c2.488-8.672-4.926-17.549-13.609-13.518 6.473.656 11.865 5.551 13.609 13.518z"/><path d="m39.08 22.133c1.875-6.531-3.711-13.219-10.252-10.182 4.877.494 8.94 4.182 10.252 10.182z"/><path d="m48.094 12.326c0-5.002-6.898-8.314-10.922-4.418 3.832-.246 8.697 1.322 10.922 4.418z"/></g></svg>