<svg enable-background="new 0 0 64 64" height="64" viewBox="0 0 64 64" width="64" xmlns="http://www.w3.org/2000/svg" xmlns:xlink="http://www.w3.org/1999/xlink"><linearGradient id="a"><stop offset=".0424" stop-color="#007ed6"/><stop offset=".1158" stop-color="#1493e0"/><stop offset=".2286" stop-color="#2daceb"/><stop offset=".3547" stop-color="#3fc0f4"/><stop offset=".4994" stop-color="#4dcefa"/><stop offset=".679" stop-color="#55d6fe"/><stop offset="1" stop-color="#57d8ff"/></linearGradient><linearGradient id="b" gradientUnits="userSpaceOnUse" x1="47.2178" x2="7.4181" xlink:href="#a" y1="14.0112" y2="17.4387"/><linearGradient id="c" gradientTransform="matrix(-.9934 -.1142 -.1142 .9934 256.0586 44.1016)" gradientUnits="userSpaceOnUse" x1="209.418" x2="209.418" y1="6.959" y2="-18.3052"><stop offset="0" stop-color="#ffb700"/><stop offset="1" stop-color="#ffd500"/></linearGradient><linearGradient id="d" gradientUnits="userSpaceOnUse" x1="21.7139" x2="61.5483" xlink:href="#a" y1="43.6768" y2="38.0096"/><linearGradient id="e" gradientTransform="matrix(.8692 -.4944 .4944 .8692 -198.4678 -187.3979)" gradientUnits="userSpaceOnUse" x1="75.1563" x2="75.1563" y1="323.7178" y2="290.6328"><stop offset="0" stop-color="#ffd500"/><stop offset="1" stop-color="#ffb700"/></linearGradient><path d="m2.467 29c-4.155-20.425 20.116-31.759 44.852-18.369l-3.673 7.194c-15.733-9.936-39.099-9.5-41.179 11.175z" fill="url(#b)"/><path d="m50.583 2.77c-.193-.975-.688-1.031-1.1-.125l-3.729 8.243-8.809-1.015c-1.023-.117-1.252.351-.508 1.042l6.549 6.082-3.732 8.233c-.412.909-.023 1.237.857.73l7.756-4.429 6.547 6.072c.744.688 1.195.455 1-.519l-1.762-8.862 7.756-4.441c.881-.506.764-1.017-.258-1.132l-8.805-1.01z" fill="url(#c)"/><path d="m59.649 24c1.838 15.075-8.494 30.963-34.329 17.491l-4.788 10.675c25.955 9.834 49.039-3.791 39.117-28.166z" fill="url(#d)"/><path d="m10.41 29.214c-.27-1.275.295-1.598 1.248-.719l8.677 8.027 10.023-5.741c1.17-.664 1.68-.217 1.141.997l-4.731 10.69 8.673 8.014c.953.885.66 1.479-.656 1.327l-11.546-1.37-4.736 10.683c-.539 1.214-1.196 1.163-1.463-.113l-2.415-11.59-11.555-1.375c-1.314-.155-1.435-.831-.27-1.496l10.027-5.732z" fill="url(#e)"/></svg>