<svg enable-background="new 0 0 64 64" height="64" viewBox="0 0 64 64" width="64" xmlns="http://www.w3.org/2000/svg" xmlns:xlink="http://www.w3.org/1999/xlink"><linearGradient id="a"><stop offset="0" stop-color="#5b666e"/><stop offset=".7695" stop-color="#3a3a47"/><stop offset="1" stop-color="#302c3b"/></linearGradient><radialGradient id="b" cx="19.5791" cy="29.9893" gradientUnits="userSpaceOnUse" r="23.2757" xlink:href="#a"/><radialGradient id="c" cx="40.0371" cy="21.2915" gradientUnits="userSpaceOnUse" r="7.6963" xlink:href="#a"/><path d="m24.578 16.478c-12.465 0-22.577 10.195-22.578 22.761.001 12.573 10.112 22.761 22.579 22.761 12.47 0 22.577-10.188 22.579-22.761-.002-12.566-10.107-22.761-22.58-22.761z" fill="url(#b)"/><path d="m39.547 16.667-3.361 3.389c-1.68 1.695 6.555 9.996 8.234 8.3l3.361-3.387z" fill="url(#c)"/><path d="m47.781 24.969c-1.68 1.694-9.914-6.608-8.234-8.302 1.682-1.694 9.916 6.608 8.234 8.302z" fill="#4e5e67"/><path d="m46.199 23.007c-.842.848-5.547-3.897-4.707-4.744.842-.847 5.547 3.898 4.707 4.744z" fill="#1a1626"/><path d="m44.1 22.087c1.164-1.123 5.209-8.004 7.295-10.2.814-.856-.924-1.933-1.361-1.548-2.43 2.136-6.316 9.307-7.354 10.361.631.828 1.42 1.387 1.42 1.387z" fill="#b47d56"/><path d="m50.41 7.382 1.561-4.695.773 4.781 3.84-4.71-1.494 5.631 6.91-1.107-6.221 3.877 5.846 3.064-6.691-.315 3.433 5.328-5.019-3.301-1.799 6.675-2.676-9.075-7.125-3.596 5.902-.792-1.959-7.147z" fill="#ef4e16"/><path d="m49.297 10.095-1.379-3.94 2.937 2.896.932-2.575.647 2.488 2.252-2.475-.909 3.076 3.496-.457-3.146 1.893 3.193 1.989-3.879-.3 1.977 3.342-2.91-1.906-.891 4.422-1.453-5.981-3.941-1.844z" fill="#ffe12c"/><path d="m50.561 10.778-.584-1.668 1.246 1.226.394-1.089.272 1.053.953-1.047-.383 1.301 1.479-.193-1.331.801 1.352.843-1.645-.126.838 1.414-1.232-.805-.445 1.624-.606-2.183-1.611-.883z" fill="#fff"/></svg>