<svg enable-background="new 0 0 64 64" height="64" viewBox="0 0 64 64" width="64" xmlns="http://www.w3.org/2000/svg" xmlns:xlink="http://www.w3.org/1999/xlink"><linearGradient id="a"><stop offset="0" stop-color="#ff3b3b"/><stop offset=".2558" stop-color="#fb3737"/><stop offset=".5207" stop-color="#f02b2a"/><stop offset=".7889" stop-color="#dd1616"/><stop offset="1" stop-color="#c90100"/></linearGradient><linearGradient id="b" gradientUnits="userSpaceOnUse" x1="1.5831" x2="17.1943" xlink:href="#a" y1="8.6699" y2="35.7094"/><linearGradient id="c" gradientUnits="userSpaceOnUse" x1="19.1361" x2="33.7509" xlink:href="#a" y1="7.0035" y2="32.317"/><linearGradient id="d" gradientUnits="userSpaceOnUse" x1="42.5745" x2="57.1886" xlink:href="#a" y1="7.0063" y2="32.3185"/><linearGradient id="e" gradientUnits="userSpaceOnUse" x1="20.1127" x2="32.3499" xlink:href="#a" y1="36.1668" y2="57.3623"/><linearGradient id="f" gradientUnits="userSpaceOnUse" x1="21.4274" x2="31.8123" xlink:href="#a" y1="48.1698" y2="66.157"/><path d="m10.92 3.279s-6.131 15.229-8.911 38.09c-.249 2.043 4.458.215 6.082-.404 3.671-22.516 8.908-37.944 8.908-37.944-1.528-.261-6.079.258-6.079.258z" fill="url(#b)"/><path d="m37.279 4.949c2.162 3.502 1.217 9.057-.092 14.566-2.16 8.904-7.252 18.109-15.494 18.109-7.792 0-8.602-8.457-6.529-17.115 1.258-5.248 3.331-10.6 6.484-14.154 2.433-2.709 5.766-4.355 9.098-4.355 3.242 0 5.451.648 6.533 2.949zm-15.856 15.612c-1.756 7.26-.944 10.91 1.939 10.91 3.014 0 5.852-4.604 7.701-12.158 1.711-7.205.899-10.512-1.983-10.512-2.748 0-5.763 4.004-7.657 11.76z" fill="url(#c)"/><path d="m60.716 4.953c2.163 3.498 1.216 9.053-.09 14.561-2.163 8.904-7.251 18.111-15.494 18.111-7.792 0-8.603-8.459-6.531-17.115 1.263-5.25 3.333-10.602 6.487-14.156 2.432-2.702 5.764-4.354 9.098-4.354 3.244 0 5.449.648 6.53 2.953zm-15.853 15.61c-1.757 7.258-.947 10.91 1.935 10.91 3.02 0 5.857-4.607 7.702-12.156 1.711-7.211.902-10.516-1.982-10.516-2.747 0-5.766 4.004-7.655 11.762z" fill="url(#d)"/><path d="m47.561 48.58c-5.365 0-33.34 2.201-44.359 3.107-.752-2.855.229-5.391 1.5-6.623 5.535-1.043 42.34-3.887 45.111-2.264-.462 2.011-1.27 4.55-2.252 5.78z" fill="url(#e)"/><path d="m42.859 59.779c-5.479 0-22.928 1.215-34.18 2.221-.767-3.18.236-5.988 1.531-7.354 5.654-1.158 32.117-3.088 34.946-1.287-.469 2.233-1.295 5.049-2.297 6.42z" fill="url(#f)"/></svg>