<svg enable-background="new 0 0 64 64" height="64" viewBox="0 0 64 64" width="64" xmlns="http://www.w3.org/2000/svg" xmlns:xlink="http://www.w3.org/1999/xlink"><linearGradient id="a"><stop offset="0" stop-color="#018fcf"/><stop offset=".1227" stop-color="#0196da"/><stop offset=".421" stop-color="#01a5ee"/><stop offset=".7156" stop-color="#01adfb"/><stop offset="1" stop-color="#01b0ff"/></linearGradient><linearGradient id="b" gradientTransform="matrix(.866 -.5 .5 .866 -72.779 179.4407)" gradientUnits="userSpaceOnUse" x1="132.918" x2="145.021" xlink:href="#a" y1="-58.8687" y2="-79.8317"/><linearGradient id="c" gradientTransform="matrix(.9397 -.342 .342 .9397 -54.9801 124.2153)" gradientUnits="userSpaceOnUse" x1="103.7432" x2="114.2469" xlink:href="#a" y1="-45.7817" y2="-74.6406"/><linearGradient id="d" gradientUnits="userSpaceOnUse" x1="51.7148" x2="51.7148" xlink:href="#a" y1="32" y2="2"/><path d="m21.151 51.682c.402-.232.764-.139.998.269l1.521 2.634c.234.405.137.767-.268.999l-10.895 6.292c-.408.234-.766.137-1-.269l-1.199-2.077c-.176-.304-.232-.577-.227-.917l.592-14.128-6.031 3.481c-.402.234-.764.139-.998-.267l-1.52-2.637c-.234-.405-.137-.766.266-.999l10.645-6.144c.404-.235.764-.137.996.268l1.201 2.079c.176.304.234.574.227.916l-.594 14.128z" fill="url(#b)"/><path d="m36.997 34.534c.569-.208 1.01-.005 1.219.568l1.353 3.717c.208.57.003 1.012-.568 1.219l-15.372 5.595c-.573.208-1.012.003-1.219-.567l-1.067-2.931c-.155-.429-.165-.792-.084-1.227l3.95-17.955-8.508 3.096c-.569.208-1.01.006-1.219-.567l-1.353-3.718c-.208-.57-.002-1.012.568-1.219l15.014-5.465c.573-.208 1.011-.002 1.219.568l1.066 2.932c.157.432.169.789.084 1.226l-3.951 17.955z" fill="url(#c)"/><path d="m60.93 25.4c.684 0 1.07.385 1.07 1.072v4.456c0 .684-.387 1.072-1.07 1.072h-18.43c-.688 0-1.07-.388-1.07-1.071v-3.514c0-.514.128-.901.383-1.33l11.1-17.486h-10.199c-.685 0-1.072-.384-1.072-1.071v-4.458c0-.684.388-1.07 1.072-1.07h17.999c.687 0 1.071.387 1.071 1.07v3.515c0 .517-.126.9-.385 1.33l-11.099 17.485z" fill="url(#d)"/></svg>