<svg enable-background="new 0 0 64 64" height="64" viewBox="0 0 64 64" width="64" xmlns="http://www.w3.org/2000/svg" xmlns:xlink="http://www.w3.org/1999/xlink"><linearGradient id="a" gradientUnits="userSpaceOnUse" x1="16.2483" x2="47.9718" y1="4.7978" y2="59.7445"><stop offset="0" stop-color="#ff3b3b"/><stop offset=".2558" stop-color="#fb3737"/><stop offset=".5207" stop-color="#f02b2a"/><stop offset=".7889" stop-color="#dd1616"/><stop offset="1" stop-color="#c90100"/></linearGradient><path d="m58.094 32.17c3.1-2.826 3.844-5.779 3.906-7.814.008-.506-.211-.977-.604-1.291-.381-.309-.893-.434-1.389-.326-1.045.23-2.158-.338-2.627-1.324-.502-1.057-.238-2.315.644-3.059.373-.32.582-.781.566-1.266-.01-.488-.242-.941-.635-1.24-.992-.754-2.125-1.291-3.373-1.604.088-1.816-.268-3.504-1.055-5.021-.229-.449-.666-.769-1.178-.857-.498-.084-1.014.064-1.385.398-.77.695-2.045.783-2.891.19-.924-.647-1.285-1.857-.877-2.94.174-.457.123-.978-.139-1.4-.262-.414-.692-.687-1.182-.75-2.045-.254-4.019.166-5.953 1.223-.887-1.234-1.979-2.207-3.256-2.893-.443-.236-.988-.256-1.439-.057-.467.207-.813.621-.926 1.105-.262 1.122-1.213 1.905-2.301 1.905-1.092 0-2.039-.783-2.305-1.902-.115-.492-.461-.908-.924-1.107-.461-.203-.998-.184-1.443.055-1.277.686-2.371 1.656-3.256 2.893-1.938-1.057-3.92-1.473-5.949-1.221-.492.063-.924.336-1.186.754-.264.422-.313.93-.139 1.394.408 1.084.049 2.293-.877 2.943-.844.592-2.119.506-2.891-.189-.371-.336-.869-.49-1.387-.4-.51.088-.947.41-1.172.852-.789 1.521-1.145 3.209-1.059 5.027-1.246.313-2.379.85-3.371 1.604-.387.295-.621.744-.637 1.24-.012.486.195.947.57 1.267.879.744 1.145 2 .645 3.055-.469.986-1.592 1.561-2.627 1.328-.477-.105-1.004.014-1.387.32-.392.315-.613.788-.605 1.3.061 2.029.805 4.983 3.906 7.807-3.1 2.793-3.844 5.713-3.906 7.729-.008.498.219.978.605 1.283.381.307.902.428 1.385.322 1.047-.229 2.162.332 2.631 1.307.498 1.037.234 2.273-.643 3.008-.377.316-.586.777-.572 1.26.014.488.246.938.641 1.236.988.74 2.129 1.268 3.395 1.572-.164 1.996.18 3.844 1.027 5.5.228.451.666.775 1.178.865.506.088 1.014-.064 1.389-.404.767-.703 2.039-.789 2.885-.191.928.658 1.289 1.887.879 2.988-.174.465-.125.975.139 1.404.262.42.691.695 1.182.758.371.047.758.072 1.146.072 1.75 0 3.479-.504 5.152-1.496.822 1.018 1.803 1.832 2.916 2.426.443.232.979.252 1.435.053.465-.205.811-.615.926-1.096.266-1.105 1.215-1.877 2.305-1.877 1.092 0 2.039.771 2.305 1.875.115.488.465.9.928 1.1.209.09.43.137.659.137.27 0 .537-.066.779-.193 1.111-.592 2.086-1.406 2.912-2.424 1.672.992 3.4 1.494 5.15 1.494.389 0 .775-.025 1.143-.072.492-.063.924-.338 1.188-.762.26-.424.309-.934.137-1.399-.41-1.101-.049-2.332.879-2.99.842-.602 2.115-.512 2.885.191.373.34.865.498 1.395.404.506-.09.945-.414 1.17-.861.85-1.658 1.193-3.506 1.029-5.502 1.266-.307 2.408-.836 3.393-1.574.393-.293.627-.74.641-1.236.014-.484-.195-.943-.57-1.262-.879-.73-1.143-1.967-.645-3.002.469-.977 1.594-1.543 2.629-1.31.117.025.238.037.357.037.375 0 .74-.127 1.025-.355.393-.309.619-.789.611-1.291-.063-2.012-.81-4.932-3.907-7.723zm-14.321-25.086c.047 1.775.924 3.441 2.404 4.482 1.451 1.018 3.342 1.285 5.01.727.102.518.145 1.07.123 1.654-2.256.113-4.699.818-7.271 2.104-.545.271-1.094.592-1.641.959.088-.684.133-1.35.133-1.988 0-2.705-.375-5.08-1.111-7.068.789-.448 1.578-.739 2.353-.87zm-30.962 5.205c1.65.543 3.607.266 5.012-.725 1.479-1.041 2.357-2.705 2.406-4.483.774.133 1.559.424 2.348.869-.738 1.99-1.111 4.365-1.111 7.07 0 .637.043 1.301.133 1.988-.545-.365-1.094-.686-1.639-.957-2.572-1.285-5.016-1.992-7.269-2.105-.025-.582.016-1.137.12-1.657zm-2.715 34.461c-.215-.057-.424-.121-.619-.195.836-1.578.885-3.469.098-5.113-.787-1.639-2.291-2.775-4.037-3.104.447-1.486 1.465-2.887 3.027-4.174.688.434 1.395.828 2.145 1.203 1.76.879 3.885 1.455 6.342 1.717-1.813 1.373-3.248 2.84-4.279 4.371-1.218 1.805-2.117 3.582-2.677 5.295zm26.422 11.205c-1.055-1.422-2.721-2.277-4.518-2.277-1.799 0-3.463.856-4.518 2.277-.17-.17-.332-.352-.49-.549 1.094-1.033 2.147-2.295 3.135-3.764.727-1.076 1.354-2.332 1.873-3.752.519 1.42 1.144 2.678 1.869 3.754.99 1.467 2.043 2.733 3.139 3.766-.158.196-.321.377-.49.545zm14.673-5.656c-1.652-.551-3.609-.267-5.018.733-1.48 1.055-2.355 2.74-2.402 4.537-2.457-.408-4.928-2.367-7.186-5.715-1.531-2.271-2.527-5.586-2.963-9.85-.084-.828-.781-1.453-1.623-1.453s-1.539.623-1.623 1.451c-.438 4.267-1.436 7.582-2.965 9.85-2.256 3.35-4.726 5.309-7.185 5.717-.045-1.797-.92-3.482-2.4-4.537-1.451-1.031-3.35-1.303-5.018-.736-.525-2.545.393-5.652 2.682-9.049 1.506-2.24 4.137-4.344 7.818-6.25.68-.35 1.023-1.135.815-1.871-.199-.691-.846-1.174-1.572-1.174l-.098.002c-4.313.262-7.816-.242-10.277-1.469-3.623-1.809-5.904-4.065-6.647-6.559 1.752-.332 3.258-1.484 4.047-3.143.789-1.662.734-3.58-.109-5.176 2.34-.91 5.463-.449 9.025 1.326 1.584.793 3.213 2.123 4.838 3.957.504.568 1.412.711 2.064.324.68-.404.971-1.229.69-1.967-.9-2.309-1.354-4.404-1.354-6.227 0-4.09.947-7.162 2.75-8.949 1.053 1.439 2.721 2.305 4.52 2.305 1.801 0 3.467-.863 4.519-2.301 1.803 1.783 2.75 4.854 2.75 8.945 0 1.824-.457 3.918-1.355 6.229-.285.734.004 1.563.688 1.967.658.383 1.557.246 2.066-.324 1.625-1.834 3.254-3.166 4.838-3.959 3.557-1.773 6.685-2.238 9.027-1.326-.842 1.596-.898 3.514-.109 5.178.785 1.658 2.293 2.81 4.043 3.141-.74 2.496-3.02 4.75-6.646 6.559-2.463 1.229-5.981 1.727-10.271 1.471l-.1-.004c-.721 0-1.381.494-1.572 1.176-.211.729.129 1.514.81 1.869 3.682 1.902 6.315 4.006 7.826 6.25 2.285 3.398 3.203 6.507 2.677 9.052zm3.233-10.855c-.787 1.643-.734 3.533.102 5.111-.197.074-.408.139-.623.195-.56-1.713-1.457-3.49-2.674-5.295-1.037-1.535-2.471-3-4.277-4.371 2.455-.262 4.58-.838 6.34-1.717.758-.377 1.463-.773 2.146-1.203 1.563 1.285 2.58 2.686 3.027 4.174-1.748.328-3.252 1.467-4.041 3.106z" fill="url(#a)"/></svg>