<svg enable-background="new 0 0 64 64" height="64" viewBox="0 0 64 64" width="64" xmlns="http://www.w3.org/2000/svg"><path d="m59 48h-54l-3-4h60z" fill="#c4c3a7"/><path d="m2.99 45.32.328.44 57.045-.219z" fill="#afb19e"/><path d="m2.289 44.385.332.443 58.742-.221z" fill="#afb19e"/><path d="m58.363 47.404-53.97-.215.32.426z" fill="#afb19e"/><path d="m3.689 46.254.327.434 55.347-.217z" fill="#afb19e"/><path d="m38.5 48h-13l-.5-4h14z" fill="#bec3cf"/><path d="m26.5 48h-2l-.5-4h2z" fill="#f59e01"/><path d="m39.5 48h-2l.5-4h2z" fill="#f59e01"/><path d="m2 16h60v28h-60z" fill="#ddddc3"/><path d="m14.852 19.989c0 .073.006.146.016.219h-.074c-.006-.036-.014-.07-.016-.104-.006-.026-.014-.05-.023-.072-.047-.078-.088-.124-.131-.155-.039-.022-.078-.034-.123-.039-.027-.004-.055-.006-.088-.006v1.103c.047.002.09.004.137.009v.046c-.115-.007-.238-.01-.357-.01s-.24.003-.359.01v-.046c.043-.005.09-.007.135-.01v-1.102h-.006c-.035 0-.066.002-.094.006-.045.005-.084.017-.121.039-.045.031-.084.077-.133.155-.008.022-.018.046-.023.072-.002.034-.008.068-.014.104h-.078c.01-.072.016-.146.016-.219 0-.072-.006-.146-.016-.216h.006v-.002c.006 0 .014 0 .02.002v-.002c.383.014.871.016 1.268.002h.012c.02 0 .035-.002.055-.002h.002v.002h.006c-.012.071-.017.144-.017.216z" fill="#3d3e39"/><path d="m16.451 19.826v1.109l.082.007v.046c-.098-.007-.203-.01-.303-.01-.104 0-.207.003-.309.01v-.046l.084-.009v-.529h-.381v.531l.084.007v.046c-.098-.007-.203-.01-.303-.01-.104 0-.207.003-.309.01v-.046l.082-.009v-1.108l-.082-.006v-.048c.098.009.203.013.303.013.104 0 .207-.004.309-.013v.048l-.084.007v.524h.381v-.525l-.084-.006v-.048c.098.009.203.013.305.013s.205-.004.307-.013v.048z" fill="#3d3e39"/><path d="m17.324 19.833v.521h.1c.059 0 .154-.01.168-.059.002-.025.008-.049.012-.074h.055c-.018.109-.018.206 0 .314h-.055c-.004-.024-.01-.047-.012-.07-.012-.052-.104-.065-.168-.065h-.1v.528c.064 0 .127 0 .191.002.129-.011.244-.063.289-.23.002-.052.006-.095.016-.145h.076c-.01.072-.016.146-.016.219 0 .072.006.146.016.214-.334-.012-.768-.014-1.102 0v-.046c.027-.004.055-.004.084-.005v-1.114c-.029-.002-.057-.002-.084-.004v-.048c.334.016.768.014 1.102 0-.01.07-.016.144-.016.216 0 .073.006.146.016.219h-.076c-.01-.05-.014-.093-.016-.144-.045-.168-.16-.221-.289-.231-.064.002-.126.002-.191.002z" fill="#3d3e39"/><path d="m20.107 19.817c-.021.004-.045.006-.064.008h.006c-.051 0-.074.035-.084.083l-.002.59c-.002.355-.15.501-.551.501-.395 0-.537-.146-.539-.501l-.002-.672c-.029-.001-.057-.005-.084-.007v-.048c.096.009.199.013.305.013.104 0 .205-.004.309-.013v.048c-.027.004-.055.006-.084.007l.002.783c0 .246.057.328.219.328.199.001.363-.091.363-.455l.002-.567c-.006-.041-.023-.078-.059-.089-.031-.001-.064-.005-.096-.009v-.047c.125.015.236.015.359 0z" fill="#3d3e39"/><path d="m21.65 19.817c-.02.004-.043.006-.064.008h.002-.002c-.002 0-.006 0-.01 0-.045.008-.066.055-.074.099v1.009l.002.003.053.007v.046c-.143-.014-.314-.012-.461-.001-.012 0-.02.001-.029.001h-.002l-.006-.015-.559-1.028v.896c.008.041.023.083.063.091.029.001.057.005.086.01v.046c-.125-.014-.236-.014-.359 0v-.046c.027-.005.053-.009.08-.01.041-.008.063-.054.07-.098v-1l-.002-.005c-.047-.004-.094-.007-.137-.011v-.048c.178.016.396.014.576 0l.018.046.547 1.004v-.904c-.006-.041-.023-.08-.061-.091-.029-.001-.059-.005-.088-.009v-.047c.123.015.234.015.357 0z" fill="#3d3e39"/><path d="m22.404 19.826v1.109l.084.007v.046c-.098-.007-.203-.01-.305-.01s-.205.003-.309.01v-.046l.084-.009v-1.108l-.084-.006v-.048c.1.009.205.013.305.013.104 0 .207-.004.309-.013v.048z" fill="#3d3e39"/><path d="m24.066 19.989c0 .073.006.146.018.219h-.076c-.006-.036-.012-.07-.014-.104-.008-.026-.016-.05-.023-.072-.049-.078-.088-.124-.133-.155-.037-.022-.078-.034-.121-.039-.027-.004-.055-.006-.088-.006v1.103c.045.002.09.004.137.009v.046c-.117-.007-.24-.01-.357-.01-.119 0-.242.003-.361.01v-.046c.045-.005.09-.007.137-.01v-1.102h-.006c-.037 0-.068.002-.096.006-.043.005-.084.017-.121.039-.045.031-.084.077-.133.155-.008.022-.016.046-.023.072-.002.034-.008.068-.014.104h-.076c.012-.072.018-.146.018-.219 0-.072-.006-.146-.018-.216h.006v-.002c.008 0 .014 0 .02.002v-.002c.385.014.871.016 1.268.002h.014c.018 0 .035-.002.053-.002h.004v.002h.006c-.015.071-.021.144-.021.216z" fill="#3d3e39"/><path d="m41.715 20.942v.046c-.211-.015-.455-.014-.66 0v-.046c.033-.005.068-.007.105-.009l-.131-.408h-.385l-.105.325c-.014.039-.006.078.053.082h-.004c.031.001.064.005.096.01v.046c-.123-.015-.244-.015-.367 0v-.046c.021-.005.045-.007.064-.009.047-.01.068-.041.072-.058l.348-1.055c-.014 0-.027-.002-.041-.004v-.047c.152.015.34.014.492 0l.02.046.365 1.119zm-1.367-.004c.006 0 .016 0 .021-.002zm.252-.005h-.008zm.414-.462-.176-.55-.178.55z" fill="#3d3e39"/><path d="m43.666 20.942v.046c-.1-.007-.203-.01-.305-.01-.104 0-.205.005-.309.01v-.046l.08-.007v-.923l-.266.925c.014 0 .027.001.041.005v.046c-.15-.014-.336-.012-.49 0l-.32-.96v.813c.006.041.023.083.061.091.029.001.057.005.086.01v.046c-.123-.014-.234-.014-.357 0v-.046c.027-.005.053-.009.078-.01.043-.008.064-.054.072-.098v-.99l-.006-.015c-.047-.004-.09-.007-.133-.011v-.048c.176.016.398.014.578 0l.355 1.07.301-1.07c.162.016.365.014.529 0v.048c-.027.004-.055.006-.084.007v1.107c.03.004.06.006.089.01z" fill="#3d3e39"/><path d="m44.453 19.833v.521h.102c.059 0 .152-.01.168-.059.002-.025.006-.049.01-.074h.055c-.016.109-.016.206 0 .314h-.055c-.004-.024-.008-.047-.01-.07-.014-.052-.105-.065-.168-.065h-.102v.528c.066 0 .129 0 .191.002.131-.011.246-.063.289-.23.004-.052.008-.095.018-.145h.076c-.012.072-.018.146-.018.219 0 .072.006.146.018.214-.334-.012-.768-.014-1.102 0v-.046c.027-.004.055-.004.084-.005v-1.114c-.029-.002-.057-.002-.084-.004v-.048c.334.016.768.014 1.102 0-.012.07-.018.144-.018.216 0 .073.006.146.018.219h-.076c-.01-.05-.014-.093-.018-.144-.043-.168-.158-.221-.289-.231-.062.002-.124.002-.191.002z" fill="#3d3e39"/><path d="m46.711 20.938v.012c-.043.029-.158.052-.287.052-.219 0-.289-.106-.293-.24-.004-.126.053-.358-.229-.358h-.059v.533l.084.007v.046c-.098-.007-.203-.01-.305-.01s-.205.003-.309.01v-.046l.084-.009v-1.108l-.084-.006v-.048c.1.009.205.013.305.013.104 0 .203-.004.307-.013h.002c.307 0 .609.048.609.321 0 .2-.189.258-.385.273.383.027.438.159.438.496 0 .066.027.084.068.084.019-.001.036-.005.054-.009zm-.783-1.119-.084.007v.532h.074c.17 0 .207-.035.207-.236 0-.241-.037-.303-.197-.303z" fill="#3d3e39"/><path d="m47.449 19.826v1.109l.084.007v.046c-.098-.007-.203-.01-.303-.01-.104 0-.207.003-.309.01v-.046l.082-.009v-1.108l-.082-.006v-.048c.098.009.203.013.303.013.104 0 .207-.004.309-.013v.048z" fill="#3d3e39"/><path d="m48.797 19.981v-.02c-.035-.122-.121-.159-.238-.159-.215 0-.295.283-.297.572.002.289.082.572.297.572.117 0 .203-.037.238-.159v-.017c0-.071.006-.144.02-.214h.076c-.012.072-.018.146-.018.219v.027l.002.061c.004.043.008.085.016.126h-.076l-.006-.039c-.08.036-.201.052-.279.052-.506 0-.746-.199-.758-.61 0-.005 0-.011 0-.016v-.016c.012-.411.252-.61.758-.61.078 0 .199.016.279.052l.006-.039h.076c-.008.041-.012.083-.016.126l-.002.061v.027c0 .073.006.146.018.219h-.076c-.014-.072-.02-.142-.02-.215z" fill="#3d3e39"/><path d="m50.5 20.942v.046c-.211-.015-.453-.014-.66 0v-.046c.035-.005.068-.007.105-.009l-.131-.408h-.384l-.105.325c-.012.039-.006.078.053.082h-.004c.031.001.064.005.096.01v.046c-.123-.015-.242-.015-.367 0v-.046c.021-.005.045-.007.064-.009.047-.01.068-.041.072-.058l.348-1.055c-.014 0-.027-.002-.041-.004v-.047c.152.015.34.014.492 0l.02.046.365 1.119zm-1.367-.004c.006 0 .016 0 .021-.002zm.252-.005h-.008zm.414-.462-.174-.55-.18.55z" fill="#3d3e39"/><path d="m47.25 17.313v1.75h9.25v21.875h-49v-21.875h9.25v-1.75h-13.25v25.375h57v-25.375z" fill="#545649"/><path d="m46.75 17.313h-29.5v1.75h29.5z" fill="#3d3e39"/><path d="m21 39.625h22v3.063h-22z" fill="#545649"/><path d="m25 16h14v28h-14z" fill="#e6ebef"/><path d="m38 16h2v28h-2z" fill="#f9c802"/><path d="m24 16h2v28h-2z" fill="#f9c802"/><path d="m19.863 31.034-.43-.38c.023-.127.029-.261.039-.391l.528-.263-.527-.264c-.01-.131-.016-.265-.039-.391l.43-.381-.574-.118c-.043-.122-.09-.243-.146-.36l.319-.486-.568.034c-.074-.109-.166-.204-.252-.306l.186-.557-.557.186c-.1-.086-.197-.178-.307-.252l.035-.568-.486.32c-.117-.058-.238-.104-.361-.146l-.117-.574-.381.429c-.127-.022-.26-.028-.391-.038l-.264-.528-.264.527c-.131.01-.264.016-.391.038l-.381-.429-.117.574c-.125.042-.244.089-.361.146l-.486-.319.033.568c-.109.074-.205.166-.305.252l-.557-.186.186.557c-.086.102-.178.196-.252.306l-.57-.034.322.486c-.057.117-.104.238-.148.36l-.572.118.43.381c-.025.126-.029.26-.041.391l-.526.264.525.264c.012.13.016.264.041.391l-.43.38.572.118c.045.125.092.244.148.361l-.321.486.57-.033c.074.109.166.205.252.305l-.186.557.557-.186c.1.086.195.178.305.251l-.033.571.486-.322c.117.057.236.105.361.148l.117.571.381-.427c.127.023.26.029.391.039l.264.526.264-.525c.131-.01.264-.016.391-.041l.381.429.117-.571c.123-.043.244-.092.361-.148l.486.321-.035-.571c.109-.073.207-.165.307-.251l.557.186-.186-.557c.086-.1.178-.195.252-.305l.568.033-.32-.486c.057-.117.104-.236.146-.361zm-3.863 1.466c-3.332 0-3.336-5 0-5 3.33 0 3.336 5 0 5z" fill="#3d3e39"/><path d="m51.363 32.784-.43-.38c.023-.127.029-.261.039-.391l.528-.263-.527-.264c-.01-.131-.016-.265-.039-.391l.43-.381-.574-.118c-.043-.122-.09-.243-.146-.36l.32-.486-.568.034c-.074-.109-.166-.204-.252-.306l.186-.557-.557.186c-.102-.086-.197-.178-.307-.252l.035-.568-.486.32c-.117-.058-.238-.104-.361-.146l-.117-.574-.381.429c-.127-.022-.26-.028-.391-.038l-.265-.528-.264.527c-.131.01-.264.016-.391.038l-.381-.429-.117.574c-.125.042-.244.089-.361.146l-.486-.32.033.568c-.109.074-.205.166-.305.252l-.557-.186.186.557c-.086.102-.178.196-.252.306l-.57-.034.322.486c-.057.117-.105.238-.148.36l-.572.118.43.381c-.025.126-.031.26-.041.391l-.526.265.525.264c.01.13.016.264.041.391l-.43.38.572.118c.043.125.092.244.148.361l-.322.486.57-.033c.074.109.166.205.252.305l-.186.557.557-.186c.1.086.195.178.305.251l-.032.571.486-.322c.117.057.236.105.361.148l.117.571.381-.427c.127.023.26.029.391.039l.264.526.264-.525c.131-.01.264-.016.391-.041l.381.429.117-.571c.123-.043.244-.092.361-.148l.486.322-.035-.571c.109-.073.205-.165.307-.251l.557.186-.186-.557c.086-.1.178-.195.252-.305l.568.033-.32-.486c.057-.117.104-.236.146-.361z" fill="#349964"/><path d="m16.605 30c.373-.094.709-.264.709-.654 0-.416-.285-.754-1.191-.754h-1.439v.08c.398 0 .416.096.416.445v1.766c0 .35-.018.445-.416.445v.081h1.439c.906 0 1.191-.339 1.191-.755 0-.39-.335-.56-.709-.654zm-.806-1.24c.453-.004.773.107.773.584 0 .465-.318.597-.773.597zm0 2.482v-1.182c.455 0 .773.13.773.598 0 .475-.32.586-.773.584z" fill="#3d3e39"/><path d="m47.5 34.75c-1.654 0-3-1.346-3-3s1.346-3 3-3 3 1.346 3 3-1.346 3-3 3zm0-5.5c-1.379 0-2.5 1.121-2.5 2.5 0 1.378 1.121 2.5 2.5 2.5 1.377 0 2.5-1.122 2.5-2.5 0-1.379-1.123-2.5-2.5-2.5z" fill="#e7eacd"/><path d="m60.5 22.333c0-2.53-1.568-4.583-3.5-4.583-1.934 0-3.5 2.053-3.5 4.583 0 2.531 1.566 5.042 3.5 5.042 1.932 0 3.5-2.511 3.5-5.042z" fill="#545649"/><path d="m53.459 17.331s-1.693 1.62.332 3.37c0 0 .59-2.341-.332-3.37z" fill="#c4c3a7"/><path d="m52.021 19.265s-.256 1.906 2.129 2.626c0 0-.101-1.91-2.129-2.626z" fill="#c4c3a7"/><path d="m54.586 18.531s-1.691 1.003-.436 3.359c0 .001 1.309-2.187.436-3.359z" fill="#c4c3a7"/><path d="m54.887 23.374s-.197-1.237-2.635-1.709c0 0-.143 1.62 2.635 1.709z" fill="#c4c3a7"/><path d="m54.887 23.374s-1.805-.205-1.805 1.95c0 0 1.805-.468 1.805-1.95z" fill="#c4c3a7"/><path d="m8.068 18.734c-3.998 0-4.381 7.692-.068 7.692 4.148.001 4.285-7.692.068-7.692z" fill="#545649"/><ellipse cx="7" cy="38.75" fill="#545649" rx="2.5" ry="2.625"/><path d="m57.668 24.29v-3.915h-1.031c-.109.273-.303.388-.506.388v.159c.016 0 .344.003.344.232v3.204c0 .226-.309.232-.344.232v.159h1.736v-.159c-.129.001-.199-.047-.199-.3z" fill="#ddddc3"/><path d="m47.5 32.037-1.439.719c.125.919 1.164.738 1.439 1.244.275-.506 1.314-.325 1.439-1.244z" fill="#e7eacd"/><path d="m46.063 32.195 1.438-.717 1.436.717c-.072-1.015.063-1.775.063-1.775l-.557-.42s-.289.487-.943 0c-.656.487-.943 0-.943 0l-.557.42s.135.76.063 1.775z" fill="#e7eacd"/><path d="m8.67 24.29v-3.915h-1.033c-.109.273-.303.388-.506.388v.159c.016 0 .344.003.344.232v3.204c0 .226-.309.232-.344.232v.159h1.738v-.159c-.131.001-.199-.047-.199-.3z" fill="#ddddc3"/><path d="m45.33 31.693c0 2.189-.748 3.557-1.916 3.557-1.166 0-1.914-1.367-1.914-3.557 0-2.117.748-3.443 1.914-3.443 1.168 0 1.916 1.326 1.916 3.443zm-1.4 0c0-2.601-.107-3.145-.516-3.145-.406 0-.514.544-.514 3.145 0 2.663.107 3.259.514 3.259.408 0 .516-.596.516-3.259z" fill="#3d3e39" opacity=".3"/><path d="m49.715 28.631c-.059.021-.125.031-.186.041h.006-.006c-.006 0-.018 0-.029 0-.125.041-.186.298-.209.556v5.643l.006.02.148.032v.267c-.406-.082-.896-.072-1.316-.01-.029 0-.053.01-.078.01h-.006l-.018-.092-1.592-5.746v5.006c.018.235.066.472.174.514.084.009.16.031.244.052v.267c-.352-.082-.67-.082-1.023 0v-.267c.078-.021.15-.043.229-.052.119-.042.18-.299.203-.545v-5.602l-.006-.031c-.137-.01-.27-.03-.389-.051v-.267c.502.082 1.131.069 1.639 0l.055.256 1.557 5.612v-5.059c-.02-.226-.066-.451-.174-.502-.084-.011-.168-.031-.252-.052v-.269c.354.082.672.082 1.023 0z" fill="#3d3e39" opacity=".3"/><path d="m51.865 28.713v2.919h.287c.168 0 .438-.051.479-.319.006-.144.02-.276.031-.421h.156c-.049.607-.049 1.15 0 1.759h-.156c-.012-.135-.025-.258-.031-.392-.035-.288-.299-.37-.479-.37h-.287v2.96c.186 0 .365 0 .545.01.371-.062.701-.358.826-1.293.006-.289.018-.525.049-.802h.215c-.031.399-.049.812-.049 1.222 0 .401.018.812.049 1.203-.951-.072-2.191-.082-3.143 0v-.267c.078-.012.156-.012.238-.021v-6.239c-.082-.011-.16-.011-.238-.021v-.267c.951.082 2.191.069 3.143 0-.031.39-.049.802-.049 1.201 0 .412.018.822.049 1.224h-.215c-.031-.278-.043-.515-.049-.802-.125-.937-.455-1.233-.826-1.295-.18.011-.359.011-.545.011z" fill="#3d3e39" opacity=".3"/><g fill="#c4c3a7"><path d="m59.883 21.925c.057-.602-.557-.436-.557-.436.777-.649.674-1.262.664-1.316-.971.067-1.016-.213-.813-.785h-1.785l-.389-.325-.389.325h-1.784c.223.623.094.835-.818.775 0 0-.152.646.66 1.326 0 0-.613-.166-.557.436 0 0 1.369-.637-.01 2.791l.945.523.18-.15.008.005c-.391.83.811 1.526 1.766 1.844.957-.317 2.158-1.014 1.768-1.844l.008-.005.18.15.945-.523c-.008-.01-.012-.019-.021-.029-1.361-3.394-.001-2.762-.001-2.762zm-.895 3.047-.209-.176-.301.252c.445.771-.584 1.343-1.475 1.662-.889-.319-1.92-.891-1.475-1.662l-.299-.252-.209.176-.57-.314c.338-.447 1.629-2.397.064-4.275.482-.062.734-.338.633-.783h1.563l.293-.244.293.244h1.564c-.102.445.148.722.633.783-1.566 1.878-.275 3.828.064 4.275z"/><path d="m53.5 27.416c1.072-.298 3.539-.34 3.539 2.345-2.426 0-2.902-2.345-3.539-2.345z"/><path d="m57.119 26.53s-1.117 1.692.461 3.582c0 0 1.467-1.987-.461-3.582z"/><path d="m59.223 26.063s-1.834.919-1.436 4.375c0 0 2.535-1.853 1.436-4.375z"/><path d="m54.5 30.875s3.641 1.124 2.65 3.5c0 0 0-.593-.537-.845-.82-.381-2.113-.64-2.113-2.655z"/><path d="m57.459 34.375s1.723-2.36 3.041-.577c0 0-.477.729-1.521.389-1.043-.338-1.52.188-1.52.188z"/><path d="m4.676 28.487s-1.619 2.326.916 4.575c0 .001 1.301-2.722-.916-4.575z"/><path d="m6.424 26.938s-2.109.832-.576 4.632c0-.001 1.578-2.799.576-4.632z"/><path d="m8.834 29.66s-3.242-.737-3.242 3.402c0 .001 2.281-.699 3.242-3.402z"/><path d="m8.662 18.488c-.338-.118-.65-.454-.211-.472.146-.338-.908-.508-.613.455-4.416.582-4.152 7.396-.234 9.874 0 0 .063-.308-.072-.559 1.439.791 2.301-.661.961-1.221 3.433-.964 4.482-6.568.169-8.077zm-.65 7.686c-2.447 0-2.832-2.433-2.832-2.433 1.271.186 1.158-1.165 1.158-1.165-1.389-.617-.852-2.912 1.5-3.58-.148.304.174.472.174.472.326-.826 2.502-.193 2.848 1.739-.338-.27-.781-.253-.781-.253-.604 1.041.084 1.631.084 1.631 1.077 0 .294 3.589-2.151 3.589z"/><path d="m10.949 21.07s-.818-1.321-.248-2.866c0 0 1.617.756.248 2.866z"/><path d="m11.449 17.313s-.656 1.87-.875 3.758c0-.001 2.697-1.767.875-3.758z"/><path d="m12.348 18.926s-1.385 1.063-1.773 2.145c-.001-.001 2.282.068 1.773-2.145z"/><path d="m14 22.374s0-1.664-3.426-1.115c0 0 1.264.909 3.426 1.115z"/><path d="m11.91 23.438s-1.336-.686-1.336-2.179c0 0 2.746.394 1.336 2.179z"/><path d="m4.619 18.406s-.572 1.565.789 2.212c0 0 .783-1.197-.789-2.212z"/><path d="m6.434 17.75s-1.33 1.29-.363 2.317c-.001 0 1.497-1.322.363-2.317z"/></g><path d="m10 39.25c0 1.48-1.119 2.679-2.5 2.679s-2.5-1.199-2.5-2.679c.416-.966 1.217-2.455 2.5-2.679 1.381 0 2.5 1.2 2.5 2.679z" fill="#545649"/><path d="m7.426 36.125c-1.719 0-2.086 1.072-1.418 1.072.338.293-.668.618-.668 0-1.666 1.59-.814 5.178 2.086 5.178 4.119 0 4.064-6.25 0-6.25zm.074 5.338c-2.668 0-2.668-4.464 0-4.464 2.666 0 2.666 4.464 0 4.464z" fill="#c4c3a7"/><path d="m58.574 19.5c.047-.511-.031-1.181-.516-1.897 0 0-.541.979-.324 1.897z" fill="#c4c3a7"/><path d="m59.031 19.5s-.143.388.08.606c.379-.287.754-.832.754-1.873 0 0-.826.241-1.279 1.267z" fill="#c4c3a7"/><path d="m7.508 31.287-.863.841s.113 1.493-.865 1.719c0-.395-1.004-.362-1.004.48-.001 1.133 2.732 1.361 2.732-3.04z" fill="#c4c3a7"/><ellipse cx="57" cy="39.313" fill="#545649" rx="2.5" ry="3.063"/><path d="m58.232 36.337c.031-.142-.063-.367-.063-.367-.328-.086-.701 0-.701 0 0-.482-.469-.595-.469-.595s-.469.112-.469.595c0 0-.375-.086-.703 0 0 0-.094.226-.063.367-2.537.564-2.523 6.038 1.234 6.038 3.762 0 3.77-5.474 1.234-6.038zm-1.232 5.086c-2.668 0-2.668-4.375 0-4.375 2.666 0 2.666 4.375 0 4.375z" fill="#c4c3a7"/><path d="m20.275 41.022c-.699 0-.748 1.053-1.771 1.053.275-.292-.504-.555-.504 0 0 .556.666.819 1.139.396v.208s.389.068.602-.18c0 0 .064.19.275 0 0 0 .162.188.764.188.604 0 1.221-.422 1.221-1.094 0-.673-.992-1.11-.57-1.885 0 0 .408.116.408-.234s-1.221-.511-1.221.308c0 .219.115.467.115.467s-.635-.205-.635.248c0 .263.162.22.162.22s-.227.116.015.305z" fill="#c4c3a7"/><path d="m43.723 41.022c.699 0 .748 1.053 1.773 1.053-.277-.292.504-.555.504 0 0 .556-.668.819-1.139.396v.208s-.391.068-.602-.18c0 0-.064.19-.277 0 0 0-.162.188-.764.188s-1.218-.421-1.218-1.093c0-.673.992-1.11.568-1.885 0 0-.406.116-.406-.234s1.219-.511 1.219.308c0 .219-.113.467-.113.467s.635-.205.635.248c0 .263-.162.22-.162.22s.226.115-.018.304z" fill="#c4c3a7"/><path d="m32.547 36.033v1.134c0 .217-.117.333-.334.333h-.417c-.216 0-.333-.116-.333-.333v-1.152c-1.844-.206-3.344-1.299-3.508-3.314-.018-.258.125-.392.366-.392h1.175c.225 0 .351.126.384.367.121.807.696 1.299 1.583 1.454v-3.409c-1.592-.584-3.292-1.348-3.292-3.537 0-1.951 1.543-3.038 3.292-3.209v-1.141c0-.217.117-.334.333-.334h.417c.217 0 .334.117.334.334v1.151c1.662.199 3.103 1.251 3.274 3.19.017.258-.125.393-.366.393h-1.143c-.225 0-.35-.127-.383-.36-.12-.741-.638-1.188-1.384-1.337v3.352c1.648.604 3.501 1.325 3.501 3.544.001 1.994-1.616 3.12-3.499 3.266zm-1.084-7.241v-2.938c-.83.132-1.375.607-1.375 1.33 0 .782.572 1.239 1.375 1.608zm2.667 3.975c0-.803-.674-1.262-1.583-1.641v3.033c.972-.114 1.583-.631 1.583-1.392z" fill="#7ab51d"/><path d="m8.035 40.57v-3.133h-.826c-.088.219-.242.312-.404.312v.126c.012 0 .275.002.275.187v2.563c0 .179-.246.187-.275.187v.126h1.391v-.126c-.104 0-.161-.039-.161-.242z" fill="#ddddc3"/><path d="m57.535 40.57v-3.133h-.826c-.088.219-.242.312-.404.312v.126c.012 0 .275.002.275.187v2.563c0 .179-.246.187-.275.187v.126h1.389v-.126c-.102 0-.159-.039-.159-.242z" fill="#ddddc3"/></svg>