<svg enable-background="new 0 0 64 64" height="64" viewBox="0 0 64 64" width="64" xmlns="http://www.w3.org/2000/svg" xmlns:xlink="http://www.w3.org/1999/xlink"><linearGradient id="a" gradientUnits="userSpaceOnUse" x1="47.3516" x2="47.3516" y1="42.3379" y2="22.0874"><stop offset="0" stop-color="#9ea2cd"/><stop offset=".1333" stop-color="#aeb1da"/><stop offset=".3091" stop-color="#bbbee5"/><stop offset=".5368" stop-color="#c3c5eb"/><stop offset="1" stop-color="#c5c7ed"/></linearGradient><path d="m2 14h60v32h-60z" fill="#e6ebef"/><path d="m37.774 16.989 1.815-2.989h16.681l1.592 2.506z" fill="#9085b9"/><path d="m50.163 18.439 2.15-4.439h-4.581z" fill="#6964aa"/><path d="m39.633 46h16.681l-1.752-4.438-13.543.307z" fill="#9085b9"/><path d="m45.12 40.594 2.301 5.406h4.892l2.63-5.258z" fill="#6964aa"/><path d="m17.818 15.575h42.08v28.983h-42.08z" fill="#c0c4e5"/><path d="m58.615 18.496h-20.841v21.682h9.958v-5.929h10.883z" fill="#68618a"/><path d="m42.065 31.461h16.55v12.168h-16.55z" fill="#9ea2cd"/><circle cx="6.314" cy="41.947" fill="#7f848f" r="2.434"/><circle cx="6.314" cy="41.947" fill="#a5acb9" r="2.184"/><path d="m16.229 29.002h.554v1.991h-.554z" fill="#ffe12c"/><path d="m16.371 28.434h.412s-.277-1.937 1.035-2.229c-1.589 0-1.447 2.229-1.447 2.229z" fill="#ffe12c"/><path d="m16.783 30.993h1.97v.642h-1.97z" fill="#ffe12c"/><path d="m6.087 18.362h-.792c.002.095.002.164.002.209 0 .192-.014.371-.041.535-.027.163-.077.352-.148.564.4.129.631.2.688.212.106.024.211.037.313.037.17 0 .308-.039.415-.118.105-.079.184-.203.232-.373l.111.027c-.043.33-.149.579-.318.749-.169.172-.357.256-.564.256-.14 0-.265-.024-.378-.075-.112-.05-.32-.188-.623-.416-.082.164-.171.287-.266.369s-.197.122-.305.122c-.103 0-.188-.035-.257-.105s-.103-.167-.103-.29c0-.138.047-.252.142-.343.094-.091.215-.137.361-.137.035 0 .074.002.117.006.043.005.092.011.145.019.004-.053.006-.099.008-.138.001-.039.002-.072.002-.099 0-.18-.021-.517-.064-1.011h-.597v-.291h.597c-.027-.306-.041-.509-.041-.611 0-.25.051-.479.15-.686.102-.206.24-.364.416-.474.178-.11.367-.165.57-.165.258 0 .452.07.582.209.13.14.195.278.195.418 0 .065-.025.124-.075.175-.05.052-.104.077-.165.077-.077 0-.143-.039-.193-.117-.021-.036-.037-.116-.046-.237-.008-.122-.043-.212-.104-.27-.063-.057-.152-.086-.268-.086-.161 0-.295.063-.4.19s-.158.351-.158.67c0 .149.013.341.037.574.014.153.024.264.031.332h.792zm-1.306 1.496c-.045-.028-.089-.05-.132-.064s-.086-.021-.129-.021c-.093 0-.164.025-.216.075-.051.05-.076.115-.076.195 0 .073.02.132.061.175.039.043.086.064.139.064.068 0 .135-.031.199-.095s.115-.173.154-.329z" fill="#49334f"/><path d="m9.895 19.585-.291.802h-2.458v-.113c.723-.659 1.231-1.198 1.526-1.616.295-.417.442-.799.442-1.146 0-.264-.081-.48-.242-.65-.162-.17-.355-.256-.581-.256-.204 0-.389.061-.552.18-.162.12-.283.296-.36.527h-.113c.052-.379.184-.67.395-.872.213-.203.477-.305.795-.305.338 0 .619.108.846.326.227.217.34.473.34.768 0 .211-.049.422-.148.633-.15.331-.396.683-.736 1.054-.51.557-.828.893-.955 1.007h1.087c.222 0 .376-.008.466-.024.089-.017.169-.05.24-.1.072-.051.135-.121.188-.214h.111z" fill="#49334f"/><path d="m10.383 18.329c0-.476.072-.884.216-1.228.144-.343.333-.598.571-.766.184-.134.375-.2.571-.2.319 0 .606.163.86.488.316.403.476.95.476 1.641 0 .483-.069.894-.209 1.231s-.317.583-.532.735c-.217.152-.425.229-.625.229-.398 0-.729-.234-.992-.703-.224-.394-.336-.87-.336-1.427zm.602.076c0 .574.071 1.042.212 1.404.117.305.291.457.522.457.11 0 .226-.049.344-.148s.209-.266.271-.499c.094-.353.141-.849.141-1.49 0-.475-.049-.871-.146-1.188-.074-.235-.17-.402-.286-.5-.084-.068-.185-.102-.304-.102-.14 0-.264.063-.372.188-.147.17-.247.437-.301.802-.054.363-.081.723-.081 1.076z" fill="#49334f"/><path d="m42.271 42.338 12.438-.027s-3.382-2.418-3.541-3.521c-.221-1.526-.781-3.573-.073-4.063 3.937-3.781-.938-12.375-4.688-12.625s-7.548 2.719-6.094 7.641c.113 3.598 1.984 7.219 3.303 7.684 0 0 .321 1.06.572 2.389.06.318-1.964 2.183-1.917 2.522z" fill="url(#a)"/><path d="m53.881 28.16c-.051-.154-.321-.642-.391-.66.104-.649 1.145-.969 1.066-1.637-.762.07-.86-.616-.44-1.207.102-.145.432-.786.004-.769-.344.014-.475.567-.718.546-.06-.375-.357-1.056-.119-1.379.266-.356.599-1.563-.226-.935.026-.02-.909.995-.824.499.14-.826-.005-.477-.478-.461-.403.014-.118-1.102-.055-1.267.386-1.014-.442-.913-.788-.118-.283.653-.887.585-.667-.166.229-.791-.747.037-.957.383-.022-.202-.197-.21-.275-.444-.111-.349-.041-.951.088-1.279.22-.576-.33-1.222-.891-.692-.022.021-.361 1.02-.374 1.093-.032.199-.11.442-.374.41-.31-.036-.046-.408-.146-.612-.431-.889-.707.459-.903.435-.861-.12-.119-1.504-.551-1.86-.93-.765-.702 1.072-.811 1.335-.305.746-1.423-.249-1.384.548-.522-.146-.061-.769-.411-1.025-.448-.332-.674.292-.67.609.009.253.015.505.022.757.134.402.006.566-.383.493-.079.036-.481.773-.511.18-.021-.436-.676-.117-.696.196-.025.38.292.624.242 1.032-.135 1.125 7.157-1.37 12.725 7.249.616-.454.081-.686-.104-1.254-.024-.071-.012-.032 0 0z" fill="#9ea2cd"/><path d="m53.969 28.818c-.363-1.471-1.154-1.373-.999-2.73.187-1.631-2.103-1.609-2.476-2.672-.569-1.623-1.94-1.448-2.902-2.147-1.6-1.16-3.405.2-4.608-.009-1.888-.331-1.245.858-2.972 1.63-1.764.789-.296 2.772-1.38 4.695-1.215 2.157.545 2.137 1.555 3.073.297 4.401 1.72 5.025 1.993 5.629.479 1.052 1.286 1.248 1.369 1.312.078.058.713 3.113.803 3.208 0 0 1.245.015 1.531 0-1.245-1.063-1.428-2.893-1.356-2.891.615.018 2.207-.571 2.726-1.115-1.391.493-1.709.284-3.338.576-.422.074-.873-.381-1.022-.79-.157-.424-.079-.95.362-1.158-.156-.138-.877-.218-.792-.436.126.031.936.122 1.46-.332-1.059.103-1.328-.252-.524-.346.231-.027 2.397.054 2.673-.486-.794.366-2.028-.149-2.795.048-.301.077-.463-.128-.461-.221.027-1.094.378-.922 1.014-1.223.399-.189.547.161.623.031.136-.236-.265-.302-.406-.302-.487 0-.856.488-1.373.23-.473-.237-.345-.773-.164-1.182.18-.408.688-2.462.6-2.671-.459-1.076-1.968-1.199-2.417-.978-.31-2.148.941-3.199 2.807-2.931 1.328.191 2.951-.746 3.982.423 1.87 2.116 1.893 3.261 2.348 5.47.207.996 1.588 1.008 1.587 1.28-.001.455.121 2.432-1.174 2.035-.515-.158-.397.258-.28.52.629 1.407 2.781 1.31 2.984-.629.191-1.834 1.658-2.333 1.022-4.911zm-13.109 3.679c-.124-.506-.219-1.021-.219-1.563 0-.532.215-.915.383-1.398.159.067.34.122.398.044 0 0-.365-.123-.341-.375.085-.033.374-.097.374-.097-.188.564.902.733.904.081 0 0 .222.108.314.211-.13 1.164-1.698 3.562-1.813 3.097zm1.87-3.358c-.001.004-.677-.829-2.009-.318-.064-.117-.049-.314.012-.421.812-.278 2.179-.008 1.997.739z" fill="#4f4a69"/><path d="m44.571 27.744c-.402.136-.047.686.263.569 2.133-.801 3.163-.181 3.082-.393-.1-.261-1.197-.903-3.345-.176z" fill="#4f4a69"/><path d="m44.628 29.348c-.214.286.602.593.9.441-.385-.131-.599-.552.064-.623.106.651 1.205.556 1.297-.049.258-.027.843.321.843.321-.354-.995-2.2-1.291-3.104-.09z" fill="#4f4a69"/><path d="m59 50h-54l-3-4h60z" fill="#cfd8dd"/><path d="m2.99 47.32.328.44 57.045-.219z" fill="#99a8ae"/><path d="m2.289 46.385.332.443 58.742-.221z" fill="#99a8ae"/><path d="m58.363 49.404-53.97-.215.32.426z" fill="#99a8ae"/><path d="m3.689 48.254.327.434 55.347-.217z" fill="#99a8ae"/><path d="m38.5 50h-13l-.5-4h14z" fill="#bec3cf"/><path d="m26.5 50h-2l-.5-4h2z" fill="#4c841a"/><path d="m39.5 50h-2l.5-4h2z" fill="#4c841a"/><path d="m25 14h14v32h-14z" fill="#e6ebef"/><path d="m38 14h2v32h-2z" fill="#92c932"/><path d="m24 14h2v32h-2z" fill="#92c932"/><path d="m32 32.283c0-.256-.026-.516-.096-.797h2.319v-1.879h-3.253c-.044-.059-.075-.113-.121-.176-.105-.146-.217-.293-.328-.438-.462-.602-.745-.996-.745-1.486 0-1.197.997-2.172 2.224-2.172s2.224.975 2.224 2.172h1.776c0-2.156-1.795-3.908-4-3.908-2.206 0-4 1.752-4 3.908 0 .863.379 1.537.779 2.1h-.779v1.879h2.029c.189.412.193.639.193.797 0 1.434-1.429 2.355-2.223 2.381v1.736h8v-1.736h-4.823c.498-.646.824-1.451.824-2.381z" fill="#7e32bf"/><path d="m57.264 39.925c-.389-.501-.952-.604-1.419-.269-.218.154-.391.385-.516.685-.12.286-.182.63-.182 1.021 0 .251.034.48.09.695h-.437l-.072.125c-.021.037-.045.065-.066.08-.025.018-.053.029-.082.035-.059.01-.161.015-.308.015h-.229c.092-.098.196-.211.314-.34.276-.302.472-.582.597-.855.089-.189.134-.386.134-.583 0-.291-.111-.546-.332-.758-.426-.408-1.159-.422-1.579-.017-.201.19-.327.461-.374.803l-.038.284h.552l.058-.17c.042-.125.102-.215.182-.274.163-.12.376-.129.523.026.077.081.114.186.114.318 0 .206-.097.448-.287.718-.212.299-.587.694-1.114 1.176l-.081.074v.446h2.274l.329-.903c.038.102.065.211.117.303.307.542.694.656.965.656.203 0 .409-.073.614-.219.202-.142.366-.365.487-.662.117-.281.177-.626.177-1.022 0-.575-.139-1.042-.411-1.388zm-.641 2.344c-.042.162-.094.225-.121.248-.063.052-.095.054-.099.054-.022 0-.09 0-.16-.186-.095-.243-.143-.568-.143-.966 0-.251.02-.512.058-.775.041-.281.114-.413.169-.477.047-.054.077-.054.09-.054.041 0 .061.011.068.018.028.023.084.089.137.259.066.215.1.491.1.821 0 .46-.034.815-.099 1.058z" fill="#68618a"/><path d="m53.356 21.535h-3.611v-.508l.082-.074c.92-.839 1.574-1.53 1.943-2.054.351-.497.528-.948.528-1.342 0-.278-.081-.498-.246-.673-.314-.332-.793-.32-1.138-.068-.171.125-.295.309-.38.563l-.058.17h-.611l.037-.283c.073-.547.271-.978.587-1.279.321-.307.726-.463 1.202-.463.503 0 .93.165 1.27.491.344.329.518.725.518 1.176 0 .311-.072.622-.215.927-.205.45-.541.931-.997 1.429-.345.376-.617.67-.824.888h.811c.334 0 .489-.015.561-.027.078-.015.148-.044.211-.088.063-.045.121-.111.172-.198l.072-.124h.648z" fill="#4f4a69"/><path d="m55.914 21.631c-.61 0-1.116-.35-1.505-1.039-.31-.549-.466-1.213-.466-1.975 0-.646.101-1.214.298-1.688.204-.488.482-.858.827-1.102.727-.526 1.584-.362 2.197.425.445.564.671 1.332.671 2.28 0 .656-.098 1.226-.29 1.692-.198.48-.46.838-.777 1.063-.321.229-.642.344-.955.344zm.035-5.345c-.067 0-.171.017-.293.157-.158.182-.27.488-.332.911-.066.456-.101.914-.101 1.361 0 .709.087 1.291.258 1.729.167.435.368.435.444.435.082 0 .179-.046.286-.135.11-.094.204-.273.27-.52.115-.433.174-1.061.174-1.868 0-.588-.061-1.082-.18-1.467-.079-.253-.18-.438-.293-.532-.058-.046-.136-.071-.233-.071z" fill="#4f4a69"/><path d="m53.561 20.246-.379 1.039h-3.187v-.147c.938-.854 1.598-1.553 1.979-2.095.383-.542.574-1.037.574-1.485 0-.343-.105-.624-.315-.845-.209-.221-.46-.33-.752-.33-.266 0-.504.077-.715.232-.212.155-.367.383-.469.684h-.146c.065-.491.236-.869.512-1.132.274-.263.617-.394 1.029-.394.438 0 .804.141 1.097.422.294.281.44.613.44.995 0 .274-.063.548-.191.821-.196.43-.515.885-.955 1.365-.662.723-1.074 1.158-1.239 1.307h1.41c.287 0 .487-.011.604-.031.115-.021.22-.064.313-.13s.174-.157.243-.276z" fill="#c0c4e5"/><path d="m54.193 18.617c0-.616.093-1.146.278-1.592.187-.444.433-.775.741-.993.239-.173.485-.259.74-.259.415 0 .786.211 1.115.633.412.523.618 1.232.618 2.127 0 .627-.091 1.159-.271 1.597-.181.438-.411.757-.69.954-.28.198-.551.297-.811.297-.516 0-.944-.304-1.287-.912-.288-.513-.433-1.13-.433-1.852zm.781.099c0 .744.092 1.351.275 1.82.151.396.377.594.677.594.144 0 .292-.064.446-.193.153-.129.271-.345.351-.647.122-.456.183-1.101.183-1.932 0-.615-.063-1.129-.191-1.541-.095-.306-.219-.521-.37-.649-.108-.087-.24-.131-.395-.131-.181 0-.341.081-.481.243-.191.22-.321.566-.391 1.039s-.104.938-.104 1.397z" fill="#c0c4e5"/><path d="m55.03 42.307-.22.604h-1.85v-.086c.544-.496.927-.901 1.149-1.216.222-.314.333-.602.333-.862 0-.198-.062-.362-.183-.49-.122-.128-.268-.191-.438-.191-.154 0-.292.045-.415.135-.122.091-.213.223-.271.396h-.086c.039-.285.138-.504.298-.656.159-.152.358-.229.598-.229.254 0 .466.081.637.245.17.163.255.355.255.577 0 .159-.036.318-.11.477-.114.25-.299.514-.555.793-.384.419-.624.672-.72.759h.818c.167 0 .283-.007.351-.019.067-.013.128-.038.182-.075.054-.038.101-.092.141-.161h.086z" fill="#c0c4e5"/><path d="m55.397 41.361c0-.357.054-.666.162-.924.107-.258.251-.45.43-.577.139-.1.282-.149.431-.149.24 0 .456.122.646.367.239.304.358.715.358 1.234 0 .364-.052.673-.157.927-.104.255-.238.439-.4.554-.163.115-.319.173-.471.173-.299 0-.548-.177-.747-.529-.168-.298-.252-.657-.252-1.076zm.454.058c0 .432.054.784.16 1.057.087.229.219.345.393.345.083 0 .17-.038.259-.112.09-.075.157-.2.203-.376.071-.265.106-.639.106-1.121 0-.357-.037-.656-.11-.895-.056-.178-.127-.303-.215-.377-.063-.051-.14-.076-.229-.076-.104 0-.198.047-.279.141-.111.128-.187.329-.227.604s-.061.543-.061.81z" fill="#c0c4e5"/><path d="m15.142 28.717v.465h.729v1.991h.554v-2.456z" fill="#68618a"/><path d="m16.425 31.173h1.97v.642h-1.97z" fill="#68618a"/><g fill="#ffe12c"><path d="m16.283 17.762c0 .667-1 .667-1 0s1-.667 1 0z"/><path d="m15.142 20.46c0 .667-1 .667-1 0s1-.667 1 0z"/><path d="m17.425 21.785c0 .667-1 .667-1 0s1-.667 1 0z"/><path d="m15.142 24.747c0 .667-1 .667-1 0s1-.667 1 0z"/><path d="m20.362 26.705c0 .667-1 .667-1 0s1-.667 1 0z"/><path d="m21.894 21.955c0 .667-1 .667-1 0s1-.667 1 0z"/><path d="m19.862 19.611c0 .667-1 .667-1 0s1-.667 1 0z"/><path d="m21.894 16.861c0 .667-1 .667-1 0s1-.667 1 0z"/><path d="m13.327 31.493c0 .667-1 .667-1 0s1-.667 1 0z"/><path d="m15.783 34.826c0 .667-1 .667-1 0s1-.667 1 0z"/><path d="m17.283 38.451c0 .667-1 .667-1 0s1-.667 1 0z"/><path d="m14.783 39.763c0 .667-1 .667-1 0s1-.667 1 0z"/><path d="m12.73 41.339c0 .667-1 .667-1 0s1-.667 1 0z"/><path d="m16.425 43.216c0 .667-1 .667-1 0s1-.667 1 0z"/><path d="m13.23 44.131c0 .667-1 .667-1 0s1-.667 1 0z"/></g></svg>