<svg enable-background="new 0 0 64 64" height="64" viewBox="0 0 64 64" width="64" xmlns="http://www.w3.org/2000/svg" xmlns:xlink="http://www.w3.org/1999/xlink"><linearGradient id="a" gradientUnits="userSpaceOnUse" x1="32.0005" x2="32.0005" y1="59" y2="5.0005"><stop offset="0" stop-color="#302c3b"/><stop offset=".5017" stop-color="#312e3d"/><stop offset=".6824" stop-color="#363543"/><stop offset=".8113" stop-color="#3f404d"/><stop offset=".9147" stop-color="#4c515c"/><stop offset="1" stop-color="#5b666e"/></linearGradient><path d="m58.363 11.563-5.926-5.928c-.349-.349-1.042-.635-1.537-.635h-.9v.45s-12.047 2.196-30 0h-7.8v-.45h-6.301c-.496 0-.899.405-.899.899v51.3c0 .494 1.304 1.801 1.8 1.801h50.401c.494 0 1.799-1.307 1.799-1.801v-44.099c0-.496-.285-1.187-.637-1.537z" fill="url(#a)"/><path d="m13.999 54v-20.2c0-.989.811-1.8 1.801-1.8h32.401c.988 0 1.799.811 1.799 1.8v20.2z" fill="#fff"/><path d="m20 5.45v18.55c0 .989 1.01 2 2 2h26c.988 0 2-1.011 2-2v-18.55z" fill="#cfd8dd"/><path d="m36 7h8v16h-8z" fill="#302c3b"/><path d="m57.201 54.5c0-.496-.406-.9-.9-.9h-1.801c-.496 0-.9.404-.9.9v1.799c0 .494.404.9.9.9h1.801c.494 0 .9-.406.9-.9z" fill="#fff"/><g fill="#ff1c29"><path d="m13.999 54h36.001v5h-36.001z"/><path d="m18 48h28v2h-28z"/><path d="m18 42h28v2h-28z"/><path d="m18 36h28v2h-28z"/></g></svg>