<svg enable-background="new 0 0 64 64" height="64" viewBox="0 0 64 64" width="64" xmlns="http://www.w3.org/2000/svg" xmlns:xlink="http://www.w3.org/1999/xlink"><linearGradient id="a" gradientUnits="userSpaceOnUse" x1="4.6606" x2="58.2822" y1="30.2583" y2="30.2583"><stop offset=".0909" stop-color="#c2b8ad"/><stop offset=".2424" stop-color="#bfb6ac"/><stop offset="1" stop-color="#6a7e8c"/></linearGradient><path d="m59 50h-54l-3-4h60z" fill="#ad9e7e"/><path d="m2.99 47.32.328.44 57.045-.219z" fill="#8a7b5f"/><path d="m2.289 46.385.332.443 58.742-.221z" fill="#8a7b5f"/><path d="m58.363 49.404-53.97-.215.32.426z" fill="#8a7b5f"/><path d="m3.689 48.254.327.434 55.347-.217z" fill="#8a7b5f"/><path d="m38.5 50h-13l-.5-4h14z" fill="#bec3cf"/><path d="m26.5 50h-2l-.5-4h2z" fill="#cc5872"/><path d="m39.5 50h-2l.5-4h2z" fill="#cc5872"/><path d="m2 14h60v32h-60z" fill="#e9d1b9"/><path d="m28.998 17.787c-4.398-2.404-10.941-2.125-13.338.648-1.264 1.461 8.933-.47 13.338-.648z" fill="#816f78"/><path d="m44.623 17.953c-4.398-2.404-13.625-3.527-19.25.508-1.551 1.113 14.845-.332 19.25-.508z" fill="#526678"/><path d="m9.061 41.492c8.172 2.447 8.312 1.797 20.641 1.418 6.953-.215 15.362.416 19.422-.199 4.807-.725 8.478-6.955 8.188-10.088.5-3.295 4.25-17.506-7.358-14.162-2.625-1.234-26.212-.688-26.212-.688s-18.367-3.25-18.276 6.211c-2.562 5.618 1.641 14.672 3.595 17.508z" fill="url(#a)"/><path d="m22.841 29.859c.26-.111.401-.232.401-.359s-.142-.248-.401-.359c.732-.399 1.159-.838 1.159-1.235 0-.486-.646-.932-1.715-1.273-.023-.352-.191-.666-.445-.879-.4-.34-.772-.711-1.111-1.111-.211-.252-.52-.418-.867-.445-.34-1.057-.783-1.697-1.268-1.697-.396 0-.836.428-1.234 1.16-.111-.26-.232-.402-.359-.402s-.248.143-.359.402c-.398-.732-.839-1.16-1.234-1.16-.484 0-.928.641-1.269 1.699-.341.031-.642.195-.851.443-.338.4-.71.771-1.111 1.111-.252.213-.419.523-.443.873-1.08.342-1.734.789-1.734 1.279 0 .396.427.836 1.159 1.234-.26.111-.401.232-.401.359s.142.248.401.359c-.732.4-1.159.841-1.159 1.236 0 .49.656.939 1.737 1.281.037.328.2.617.438.82.401.338.773.711 1.111 1.111.205.242.5.406.834.439.342 1.092.792 1.754 1.285 1.754.396 0 .836-.426 1.234-1.158.111.26.232.402.359.402s.248-.143.359-.402c.398.732.839 1.158 1.234 1.158.493 0 .943-.66 1.285-1.752.34-.029.643-.195.85-.441.339-.4.711-.773 1.111-1.111.241-.203.404-.496.44-.826 1.071-.342 1.72-.787 1.72-1.275.003-.395-.424-.836-1.156-1.235z" fill="#816f78" opacity=".5"/><path d="m24.009 41.559c-.631 0-1.205-.232-1.67-.611h1.425v-.264h-1.505l-.106-.279h1.611v-.264h-1.797v.131l-.116.049.084.223c-.415-.51-.676-1.164-.676-1.887 0-.805.313-1.535.816-2.061h.532v1.139h-.516v-.842h-.25v.973h.125v.133h.641v.412h.25v-.412h.375v-.133h.125v-1.27h.359v1.951h.25v-2.082h-.125v-.133h-.609v.133h-.125v1.27h-.25v-1.385h-.125v-.018h-.354c.458-.357 1.019-.576 1.631-.576.107 0 .107-.264 0-.264-1.656 0-3 1.418-3 3.164 0 1.748 1.344 3.164 3 3.164.107 0 .107-.261 0-.261z" fill="#a8151e"/><path d="m23.764 38.938v-.264h-.453v-.258h-1.454v.258.006.125l-.101.076.422.627.203-.153-.281-.417h.12l.493.658.195-.162-.371-.496h.295l.856.681.151-.211-.593-.47z" fill="#a8151e"/><path d="m21.857 39.926h1.907v-.131-.133h-1.907z" fill="#a8151e"/><path d="m5.192 24.58c-3.976 6.209 2.087 15.082 6.899 14.736-4.069-3.935-8.457-8.4-6.899-14.736z" fill="#8c949c"/><path d="m17.639 43.092c3.286-.293 6.125 2.191 12.203-.209-3.703.588-6.995-2.162-12.203.209z" fill="#345252"/><path clip-rule="evenodd" d="m17 26.5c-.99 0-.855.225-1.219 0-.348.262-.536 0-.536 0s-.536.355-1.245.002c.354.707 0 1.244 0 1.244s.262.188 0 .537c.225.361 0 .227 0 1.217 0-1.5 1.5-3 3-3z" fill="#e3c48c" fill-rule="evenodd"/><path clip-rule="evenodd" d="m14 29.5c0 .99.225.855 0 1.219.262.348 0 .535 0 .535s.355.537.001 1.246c.708-.354 1.244 0 1.244 0s.188-.262.536 0c.363-.225.229 0 1.219 0-1.5 0-3-1.5-3-3z" fill="#e3c48c" fill-rule="evenodd"/><path clip-rule="evenodd" d="m17 32.5c.99 0 .855-.225 1.219 0 .348-.262.536 0 .536 0s.536-.355 1.245 0c-.354-.709 0-1.246 0-1.246s-.262-.188 0-.535c-.225-.363 0-.229 0-1.219 0 1.5-1.5 3-3 3z" fill="#e3c48c" fill-rule="evenodd"/><path clip-rule="evenodd" d="m20 29.5c0-.99-.225-.855 0-1.217-.262-.35 0-.537 0-.537s-.355-.537-.001-1.246c-.708.355-1.244 0-1.244 0s-.188.262-.536 0c-.363.225-.229 0-1.219 0 1.5 0 3 1.5 3 3z" fill="#e3c48c" fill-rule="evenodd"/><path d="m7.28 34.006c-3.793 3.023.125 11.092 5.079 8.578-3.725-.477-6.059-4.543-5.079-8.578z" fill="#537360"/><path d="m18.561 17.49c-6.718-3.67-18.655-.791-12.969 7.385-.25-6.414 8.563-7.207 12.969-7.385z" fill="#8c949c"/><path d="m57.163 32.744c2.281 7.549-5.337 12.754-9.868 9.885 5.323-.576 9.977-5.897 9.868-9.885z" fill="#345252"/><path d="m57.279 32.244c5.938 6.645-2.703 13.988-7.234 11.119 7.047-1.31 8.984-6.668 7.234-11.119z" fill="#8c949c"/><path d="m48.488 18.193c9.958-7.297 14.938 5.145 8.542 8.178 1.68-9.137-5.417-8.529-7.418-7.141-.463.321-.931-.48-1.124-1.037z" fill="#8c949c"/><path d="m48.521 43.549c-3.286-.291-4.538 1.611-10.616-.787 3.702.586 5.408-1.582 10.616.787z" fill="#345252"/><path d="m7.093 33.941c-5.093 2.409-1.583 11.354 3.371 8.842-3.726-.478-5.559-5.424-3.371-8.842z" fill="#618570"/><path d="m5.968 38.416c-4.479 3.582 1.268 7.848 5.662 4.117-4.083 1.047-6.35-.074-5.662-4.117z" fill="#8c949c"/><path d="m9.623 35.986c-3.437 6.891 4.387 10.014 8.781 6.284-4.083 1.046-9.333-.799-8.781-6.284z" fill="#345252"/><g fill="#2f333e"><path d="m4.833 15.727v4.094h-.793v-2.193c0-.316-.006-.508-.018-.572s-.044-.111-.097-.145-.171-.049-.354-.049h-.078v-.479c.383-.105.674-.324.873-.656z"/><path d="m7.011 17.113v1.367c0 .309-.014.535-.04.676-.025.143-.08.273-.162.396-.083.123-.182.213-.299.266-.116.055-.246.08-.39.08-.189 0-.348-.025-.473-.084-.126-.057-.226-.143-.301-.264-.074-.121-.127-.246-.158-.379s-.047-.342-.047-.629v-1.43c0-.375.024-.658.075-.844.05-.188.15-.338.3-.451s.331-.17.545-.17c.174 0 .329.039.467.117.137.078.239.174.308.287.067.115.114.242.138.383.024.144.037.369.037.679zm-.793-.343c0-.219-.008-.355-.024-.408-.017-.055-.055-.082-.114-.082s-.099.029-.117.086c-.019.059-.028.193-.028.404v1.998c0 .236.009.379.026.43.018.049.056.072.115.072s.097-.029.115-.086.027-.186.027-.387z"/><path d="m9.164 17.113v1.367c0 .309-.014.535-.04.676-.025.143-.08.273-.162.396-.083.123-.182.213-.299.266-.116.055-.246.08-.39.08-.189 0-.348-.025-.473-.084-.126-.057-.226-.143-.301-.264-.074-.121-.127-.246-.158-.379s-.047-.342-.047-.629v-1.43c0-.375.024-.658.075-.844.05-.188.15-.338.3-.451s.331-.17.545-.17c.174 0 .329.039.467.117.137.078.239.174.308.287.067.115.114.242.138.383.024.144.037.369.037.679zm-.793-.343c0-.219-.008-.355-.024-.408-.017-.055-.055-.082-.114-.082s-.099.029-.117.086c-.019.059-.028.193-.028.404v1.998c0 .236.009.379.026.43.018.049.056.072.115.072s.097-.029.115-.086.027-.186.027-.387z"/><path d="m11.317 17.113v1.367c0 .309-.014.535-.04.676-.025.143-.08.273-.162.396-.083.123-.182.213-.299.266-.116.055-.246.08-.39.08-.189 0-.348-.025-.473-.084-.126-.057-.226-.143-.301-.264-.074-.121-.127-.246-.158-.379s-.047-.342-.047-.629v-1.43c0-.375.024-.658.075-.844.05-.188.15-.338.3-.451s.331-.17.545-.17c.174 0 .329.039.467.117.137.078.239.174.308.287.067.115.114.242.138.383.025.144.037.369.037.679zm-.793-.343c0-.219-.008-.355-.024-.408-.017-.055-.055-.082-.114-.082s-.099.029-.117.086c-.019.059-.028.193-.028.404v1.998c0 .236.009.379.026.43.018.049.056.072.115.072s.097-.029.115-.086.027-.186.027-.387z"/><path d="m53.602 15.727v4.094h-.793v-2.193c0-.316-.006-.508-.018-.572s-.044-.111-.097-.145-.171-.049-.354-.049h-.078v-.479c.383-.105.674-.324.873-.656z"/><path d="m55.779 17.113v1.367c0 .309-.014.535-.04.676-.025.143-.08.273-.162.396-.083.123-.182.213-.299.266-.116.055-.246.08-.39.08-.189 0-.348-.025-.473-.084-.126-.057-.226-.143-.301-.264-.074-.121-.127-.246-.158-.379s-.047-.342-.047-.629v-1.43c0-.375.024-.658.075-.844.05-.188.15-.338.3-.451s.331-.17.545-.17c.174 0 .329.039.467.117.137.078.239.174.308.287.067.115.114.242.138.383.025.144.037.369.037.679zm-.793-.343c0-.219-.008-.355-.024-.408-.017-.055-.055-.082-.114-.082s-.099.029-.117.086c-.019.059-.028.193-.028.404v1.998c0 .236.009.379.026.43.018.049.056.072.115.072s.097-.029.115-.086.027-.186.027-.387z"/><path d="m57.933 17.113v1.367c0 .309-.014.535-.04.676-.025.143-.08.273-.162.396-.083.123-.182.213-.299.266-.116.055-.246.08-.39.08-.189 0-.348-.025-.473-.084-.126-.057-.226-.143-.301-.264-.074-.121-.127-.246-.158-.379s-.047-.342-.047-.629v-1.43c0-.375.024-.658.075-.844.05-.188.15-.338.3-.451s.331-.17.545-.17c.174 0 .329.039.467.117.137.078.239.174.308.287.067.115.114.242.138.383.024.144.037.369.037.679zm-.793-.343c0-.219-.008-.355-.024-.408-.017-.055-.055-.082-.114-.082s-.099.029-.117.086c-.019.059-.028.193-.028.404v1.998c0 .236.009.379.026.43.018.049.056.072.115.072s.097-.029.115-.086.027-.186.027-.387z"/><path d="m60.086 17.113v1.367c0 .309-.014.535-.04.676-.025.143-.08.273-.162.396-.083.123-.182.213-.299.266-.116.055-.246.08-.39.08-.189 0-.348-.025-.473-.084-.126-.057-.226-.143-.301-.264-.074-.121-.127-.246-.158-.379s-.047-.342-.047-.629v-1.43c0-.375.024-.658.075-.844.05-.188.15-.338.3-.451s.331-.17.545-.17c.174 0 .329.039.467.117.137.078.239.174.308.287.067.115.114.242.138.383.024.144.037.369.037.679zm-.793-.343c0-.219-.008-.355-.024-.408-.017-.055-.055-.082-.114-.082s-.099.029-.117.086c-.019.059-.028.193-.028.404v1.998c0 .236.009.379.026.43.018.049.056.072.115.072s.097-.029.115-.086.027-.186.027-.387z"/><path clip-rule="evenodd" d="m19.857 29.701h-.828s-.016-.971.063-1.186.719-.232.766-.166-.001 1.352-.001 1.352zm1.598 0h-.828s-.047-1.285 0-1.352.688-.049.766.166.062 1.186.062 1.186zm.84-.82c.109-.164.281-.346.266-.561-.016-.213-.406-.758-.609-.807s-2.25-.217-3.047.131c-.708-.512-1.016.297-.688.676.208.24-.081 2.621-.049 2.787.032.164.158.576.377.658s.546-.461.534-1.029c-.003-.141 2.39-.193 2.403-.025.046.572.285 1.01.625.924.455-.115.079-2.588.188-2.754z" fill-rule="evenodd"/><path clip-rule="evenodd" d="m11.887 27.74c-.286-.031.189.746.424.893.234.15.938.051.938.184v.328s-1.635-.018-1.859.082c-.813.365.229 1.256.422 1.188.844-.297 1.188-.33 1.438-.346s-.031 1.072.094 1.203c.125.133.469.551.531.617.063.064.328-.451.344-.502.016-.049-.078-1.371 0-1.387.078-.014.938 0 1.344.398.243.238 1.406-.891 1.375-.99-.031-.098-.203-.328-.297-.361s-.844.33-2.391 0c-.171-.035.203-.23-.078-.43-.076-.053 1.267-.086 1.281-.18.078-.496-.688-1.09-.891-1.139s-.689.661-2.675.442z" fill-rule="evenodd"/></g><path d="m56.384 25.074c5.313 1.23 3.771 8.994.646 8.484.416-2.55.556-5.011-.646-8.484z" fill="#537360"/><path clip-rule="evenodd" d="m42.439 24.275c0 .805.358 4.516.987 5.697.532 1.002 1.543 1.891 1.543 1.891.22.99-3.063 5.129-1.262 6.938 8.372-9.699 6.817-5.674 6.817-17.654.001-.991-8.085-4.688-8.085 3.128z" fill="#97a0b5" fill-rule="evenodd"/><path clip-rule="evenodd" d="m53.19 31.018c-.816-1.572-1.168-2.543-1.871-2.576 0-.621.111-.881.111-.881.597-.34 1.135-3.285 1.135-3.285.193-.195.625-.934.625-1.525 0-.58-.356-.922-.356-.922.161-.418.1-1.092.1-1.092s-.382-.361-.79-.521c-.136-.404-.55-1.316-1.239-1.607 0-.746-1.656-1.879-2.736-1.879-2.195 0-2.289-.416-3.053-.416-.766 0-1.07.652-1.07.652s-.515-.57-1.047-.57c-1.286 0-.959 1.867-.959 1.867-1.006-.33-1.637.258-1.637.809 0 .553.192.939.192.939-.47.268-.397.779-.397.779.351-.246.711.037.711.037s-.475.307-.475 1.055c0 1.938 2.006 2.395 2.006 2.395 0-2.6.929-3.703 1.986-3.703.988 0 .979.158 2.64.158 2.944 0 3.194 3.143 2.335 3.27-1.638.244-3.209.402-3.209.867 0 .768.225 3.051-.142 3.143s-.434-.018-.725.033-.158.375.066.27.316.156.316.156c-.291-.133-.541.109-.657.217-.117.109-.616.527-.616.527.424.209.99-.135 1.065-.135s.5.301.5.301-.372-.064-.483-.041c-.317.068-.778.465-.778.465.763-.344 1.368 0 1.368 0 .447-.158 1.188-.086 1.188-.086s-.399.244-.979.297c-.578.053-.71.635-.71.635s1.474-.053 1.474.527c0 .871-1.921.748-1.921.748 1.381.303.868 1.338.868 1.338l2.711-1.557-2.369 2.904c-.604-.688-.526-1.082-.526-1.082-.474.211-.342.395-.342.395s-.289-.131-.5.08c-.21.211-.185.951-.263 1.32-.079.369.078.316.078.316l-.895 2.402s0-.605 0-1.715 1.185-2.934 1.185-3.824c0-.449-.137-.639-.137-.639 0 1.074-4.237 2.805-4.995 3.564-.184.186-1.395 3.373-1.395 3.373.588.59 1.143 2.93 5.54 3.311 10.549.914 12.387-8.713 12.387-8.713s-1.317-.528-3.315-2.381z" fill="#2f333e" fill-rule="evenodd"/><path clip-rule="evenodd" d="m45.146 24.758s-.254-.447-.939-.447c-.604 0-.898.225-1.214.225 0 0 .13.252.302.326.171.076.508-.137.885-.137s.685.213.966.033z" fill="#2f333e" fill-rule="evenodd"/><path clip-rule="evenodd" d="m45.146 25.668s-.354-.65-.898-.65c-.485 0-.816.334-1.045.637 0 0 .13.102.228.074.182-.049.327-.496.857-.496.583-.001.598.435.858.435z" fill="#2f333e" fill-rule="evenodd"/><circle clip-rule="evenodd" cx="44.375" cy="25.457" fill="#2f333e" fill-rule="evenodd" r=".351"/><path clip-rule="evenodd" d="m48.063 25.939c.66-.004 1.33-.25 1.33-.563 0-.188-.427-.598-1.071-.598-.748 0-1.17.58-1.17 1.256 0 .744.897 1.896 1.576 2.123.622.207.391-1.27.797-1.895.65-.998-.561.217-1.462-.323z" fill="#97a0b5" fill-rule="evenodd"/><circle clip-rule="evenodd" cx="48.234" cy="25.4" fill="#2f333e" fill-rule="evenodd" r=".337"/><path clip-rule="evenodd" d="m47.396 25.41s.575-.443 1.175-.178c.506.223.705.125.705.125-.233-.129-.497-.416-1.055-.416-.56 0-.825.469-.825.469z" fill="#2f333e" fill-rule="evenodd"/><path d="m25 14h14v32h-14z" fill="#e6ebef"/><path d="m38 14h2v32h-2z" fill="#ff8fa8"/><path d="m24 14h2v32h-2z" fill="#ff8fa8"/><path d="m36.5 25.285-.91-1.285-3.59 3.436-3.59-3.436-.91 1.285 3.374 3.229h-1.736v1.664h2.147v1.664h-2.147v1.662h2.147v2.496h1.43v-2.496h2.146v-1.662h-2.146v-1.664h2.146v-1.664h-1.735z" fill="#476989"/><path clip-rule="evenodd" d="m44.581 41.148 6.024-5.777-.125-1.039 1.718-.586.822-2.566-.473 2.683-1.668.608.224 1.213z" fill="#15171c" fill-rule="evenodd"/></svg>