<svg enable-background="new 0 0 64 64" height="64" viewBox="0 0 64 64" width="64" xmlns="http://www.w3.org/2000/svg" xmlns:xlink="http://www.w3.org/1999/xlink"><linearGradient id="a"><stop offset="0" stop-color="#545061"/><stop offset=".2793" stop-color="#464253"/><stop offset=".6189" stop-color="#211d2d"/><stop offset="1" stop-color="#1a1626"/></linearGradient><linearGradient id="b" gradientUnits="userSpaceOnUse" x1="38.9533" x2="57.344" xlink:href="#a" y1="24.8567" y2="56.7103"/><linearGradient id="c" gradientUnits="userSpaceOnUse" x1="7.8111" x2="24.1808" xlink:href="#a" y1="5.8254" y2="34.1786"/><linearGradient id="d" gradientUnits="userSpaceOnUse" x1="20.6208" x2="29.492" y1="40.6737" y2="56.0391"><stop offset="0" stop-color="#545061"/><stop offset=".1756" stop-color="#464253"/><stop offset=".6189" stop-color="#211d2d"/><stop offset="1" stop-color="#1a1626"/></linearGradient><linearGradient id="e" gradientUnits="userSpaceOnUse" x1="37.3915" x2="46.3104" xlink:href="#a" y1="6.9712" y2="22.4191"/><path d="m48.139 39.5 9.861-10.371-2.976-3.129-9.024 9.494-9.027-9.494-2.973 3.129 9.86 10.371h-.042-4.421v4.5h4.421v4.5h-4.421v4.5h4.421v9h4.364v-9h4.415v-4.5h-4.415v-4.5h4.415v-4.5h-4.415z" fill="url(#b)"/><path d="m19.783 18.4c-.726-.346-1.479-.67-2.222-.989v-6.851c1.485.574 2.527 1.917 2.628 3.468h5.811c0-4.487-3.661-8.207-8.438-8.9v-3.128h-3.125v3.108c-4.743.613-8.437 4.048-8.437 8.556 0 3.645 2.522 6.235 5.18 7.571 1.039.54 2.167 1.004 3.257 1.452v6.775c-1.495-.558-2.557-1.91-2.628-3.45h-5.809c0 4.471 3.694 8.201 8.437 8.871v3.117h3.125v-3.116c4.777-.635 8.438-4.053 8.438-8.467 0-4.089-3.197-6.518-6.217-8.017zm-7.659-5.099c0-1.535.884-2.488 2.313-2.86v5.518c-1.364-.753-2.313-1.583-2.313-2.658zm5.438 16.202v-5.417c1.346.729 2.267 1.557 2.267 2.696-.001 1.288-.891 2.287-2.267 2.721z" fill="url(#c)"/><path d="m25.55 45.535c-3.082-.311-7.339-3.47-7.339-3.47l-4.87 3.869c2.884 2.884 8.242 5.433 12.209 6.274v6.107l9.883-9.855-9.883-10.144z" fill="url(#d)"/><path d="m42.148 17.358c1.508.569 4.673 2.934 5.834 4.096l4.702-5.073c-2.627-2.628-6.937-4.642-10.536-5.412v-6.744l-10.158 10.468 10.158 9.531z" fill="url(#e)"/></svg>