<svg enable-background="new 0 0 64 64" height="64" viewBox="0 0 64 64" width="64" xmlns="http://www.w3.org/2000/svg" xmlns:xlink="http://www.w3.org/1999/xlink"><radialGradient id="a" cx="28.375" cy="-2.6919" gradientTransform="matrix(1 0 0 1.3139 0 24.5045)" gradientUnits="userSpaceOnUse" r="29.1407"><stop offset="0" stop-color="#f5c456"/><stop offset=".5092" stop-color="#f3c255"/><stop offset=".7811" stop-color="#ebba50"/><stop offset=".9966" stop-color="#deac47"/><stop offset="1" stop-color="#deac47"/></radialGradient><linearGradient id="b"><stop offset="0" stop-color="#deac47"/><stop offset="1" stop-color="#deac47" stop-opacity="0"/></linearGradient><linearGradient id="c" gradientTransform="matrix(-.9275 0 0 -1 -410.7279 1389.0469)" gradientUnits="userSpaceOnUse" x1="-477.6865" x2="-477.6865" xlink:href="#b" y1="1368.3701" y2="1385.3926"/><linearGradient id="d" gradientTransform="matrix(-.9275 0 0 -1 -410.7279 1389.0469)" gradientUnits="userSpaceOnUse" x1="-470.019" x2="-470.019" xlink:href="#b" y1="1368.876" y2="1381.5654"/><linearGradient id="e" gradientTransform="matrix(.7375 .5625 .5033 -.6599 -348.9655 1294.0702)" gradientUnits="userSpaceOnUse" x1="-504.269" x2="-504.269" xlink:href="#b" y1="1500.0615" y2="1517.7783"/><linearGradient id="f" gradientTransform="matrix(-.5953 .7112 .6365 .5327 -765.0981 512.2131)" gradientUnits="userSpaceOnUse" x1="-961.6089" x2="-961.6089" xlink:href="#b" y1="357.0225" y2="369.5771"/><linearGradient id="g" gradientTransform="matrix(-.8989 .2287 .1218 .4787 -487.9434 433.2484)" gradientUnits="userSpaceOnUse" x1="-655.6738" x2="-655.6738" xlink:href="#b" y1="-551.5698" y2="-539.2412"/><linearGradient id="h" gradientTransform="matrix(.5953 .7112 -.6365 .5327 378.0103 512.2131)" gradientUnits="userSpaceOnUse" x1="-649.4292" x2="-649.4292" xlink:href="#b" y1="-59.2632" y2="-45.7217"/><linearGradient id="i" gradientTransform="matrix(.9081 .2651 -.1127 .5143 96.9716 417.9816)" gradientUnits="userSpaceOnUse" x1="-158.874" x2="-158.874" xlink:href="#b" y1="-693.6426" y2="-678.7661"/><radialGradient id="j" cx="75.2178" cy="-582.1445" gradientTransform="matrix(.836 0 0 .5304 -30.8488 328.1067)" gradientUnits="userSpaceOnUse" r="6.4793"><stop offset="0" stop-color="#8f6654"/><stop offset=".42" stop-color="#8b6352"/><stop offset=".8232" stop-color="#805b4b"/><stop offset="1" stop-color="#785647"/></radialGradient><path d="m45.028 4.541c-5.862 1.571-11.984-.152-15.914-2.215-3.529-1.854-5.125 4.926-10.142 2.215 2.392 9.386 26.07 12.045 26.056 0z" fill="#c49a45"/><path d="m51.09 34.253c-4.998-10.302-9.477-14.372-13.854-15.438 4.695-2.898 10.623-7.036 7.789-14.274-4.018 3.757-5.581-2.459-10.706-2.459-5.792 0-10.965 7.059-15.35 2.459-3.166 6.169 3.307 11.666 7.941 14.337-6.279 1.02-13.004 9.974-16.453 24.219-6.449 26.608 57.74 26.418 40.633-8.844z" fill="url(#a)"/><path d="m32.384 20.677c5.25-11.868.21-6.605 1.281-15.17.529-4.231-7.905-2.024-1.281 15.17z" fill="url(#c)"/><path d="m29.531 20.171c.219-7.1-6.736-8.148-7.74-11.975-.711-2.712-3.76 2.518 7.74 11.975z" fill="url(#d)"/><path d="m33.354 19.85c7.186-8.149 4.332-9.578 9.301-10.999 2.336-.667.01 6.688-9.301 10.999z" fill="url(#e)"/><path d="m33.655 19.567c5.166-.886 12.018 5.567 8.041 5.761-2.431.118-1.33-4.171-8.041-5.761z" fill="url(#f)"/><path d="m32.867 19.633c4.389.924 5.09 6.414 2.04 5.431-1.867-.602 1.822-2.699-2.04-5.431z" fill="url(#g)"/><path d="m29.71 19.44c-5.167-1.095-12.018 6.878-8.042 7.117 2.433.146 1.332-5.154 8.042-7.117z" fill="url(#h)"/><path d="m32.152 19.522c-4.388 1.146-4.951 8.454-1.91 7.202 1.86-.766-1.901-3.635 1.91-7.202z" fill="url(#i)"/><path d="m38.352 19.806c-4.037 1.301-8.573 1.304-12.611.008-1.508-.497-1.209-2.28-.014-1.858 3.336 1.265 9.231 1.269 12.567.007 1.196-.422 1.564 1.343.058 1.843z" fill="url(#j)"/><path d="m33.1 51.729v1.966c0 .376-.203.577-.579.577h-.723c-.374 0-.577-.201-.577-.577v-1.997c-3.196-.357-5.796-2.252-6.08-5.746-.031-.446.216-.678.635-.678h2.036c.389 0 .608.218.665.637.21 1.397 1.207 2.25 2.744 2.52v-5.909c-2.759-1.013-5.706-2.336-5.706-6.131 0-3.382 2.674-5.267 5.706-5.562v-1.979c0-.375.203-.578.577-.578h.723c.376 0 .579.203.579.578v1.996c2.881.346 5.378 2.168 5.676 5.531.028.446-.217.681-.635.681h-1.98c-.39 0-.606-.221-.663-.625-.209-1.285-1.105-2.06-2.399-2.316v5.809c2.857 1.048 6.068 2.297 6.068 6.143-.001 3.455-2.804 5.407-6.067 5.66zm-1.879-12.55v-5.094c-1.439.229-2.383 1.053-2.383 2.306 0 1.356.992 2.147 2.383 2.788zm4.622 6.888c0-1.391-1.168-2.187-2.743-2.844v5.258c1.684-.197 2.743-1.093 2.743-2.414z" fill="#785647"/></svg>