<svg enable-background="new 0 0 64 64" height="64" viewBox="0 0 64 64" width="64" xmlns="http://www.w3.org/2000/svg" xmlns:xlink="http://www.w3.org/1999/xlink"><linearGradient id="a" gradientUnits="userSpaceOnUse" x1="18.3777" x2="45.1763" y1="8.4209" y2="54.8373"><stop offset="0" stop-color="#545061"/><stop offset=".2793" stop-color="#464253"/><stop offset=".6189" stop-color="#211d2d"/><stop offset="1" stop-color="#1a1626"/></linearGradient><path d="m38.052 29.336c-1.728-.861-3.567-1.644-5.282-2.428v-11.078c3.264.396 5.733 3.046 5.932 6.217h9.298c0-8.032-6.758-14.591-15.23-15.006v-5.041h-3.271v5.18c-7.588 1.021-13.499 6.746-13.499 14.259 0 6.075 4.036 10.393 8.286 12.62 1.664.9 3.469 1.674 5.213 2.418v11.295c-2.394-.93-4.093-3.182-4.203-5.751h-9.296c0 7.452 5.911 13.67 13.499 14.784v5.195h3.271v-5.036c8.472-.377 15.23-6.366 15.23-14.269 0-6.815-5.117-10.863-9.948-13.359zm-12.252-8.501c0-2.56 1.413-4.147 3.699-4.765v9.193c-2.18-1.254-3.699-2.635-3.699-4.428zm6.97 27.351v-10.262c3.053 1.447 5.355 3.008 5.355 5.379 0 2.669-2.198 4.591-5.355 4.883z" fill="url(#a)"/></svg>