<svg enable-background="new 0 0 64 64" height="64" viewBox="0 0 64 64" width="64" xmlns="http://www.w3.org/2000/svg" xmlns:xlink="http://www.w3.org/1999/xlink"><linearGradient id="a" gradientUnits="userSpaceOnUse" x1="33" x2="33" y1="61" y2="24.8569"><stop offset="0" stop-color="#1a1626" stop-opacity=".05"/><stop offset=".0917" stop-color="#1a1626" stop-opacity=".0706"/><stop offset=".6667" stop-color="#1a1626" stop-opacity=".2"/></linearGradient><linearGradient id="b" gradientTransform="matrix(1 0 0 -1 194 170)" gradientUnits="userSpaceOnUse" x1="-162.0015" x2="-162.0015" y1="156" y2="168"><stop offset="0" stop-color="#7e8a8f"/><stop offset=".0221" stop-color="#9ca7ac"/><stop offset=".0502" stop-color="#bbc6cb"/><stop offset=".0777" stop-color="#d1dbe0"/><stop offset=".1038" stop-color="#dee9ee"/><stop offset=".1273" stop-color="#e3edf2"/><stop offset=".2545" stop-color="#cfd8dd"/><stop offset=".4655" stop-color="#ccd5da"/><stop offset=".6185" stop-color="#c3ccd1"/><stop offset=".7531" stop-color="#b3bdc2"/><stop offset=".8766" stop-color="#9da8ad"/><stop offset=".9924" stop-color="#808c91"/><stop offset="1" stop-color="#7e8a8f"/></linearGradient><linearGradient id="c" gradientTransform="matrix(1 0 0 -1 194 170)" gradientUnits="userSpaceOnUse" x1="-162.001" x2="-162.001" y1="164.1309" y2="167.334"><stop offset="0" stop-color="#d9e3e8"/><stop offset=".1606" stop-color="#d5dfe3"/><stop offset=".3396" stop-color="#c7d1d6"/><stop offset=".5274" stop-color="#b2bbc0"/><stop offset=".7214" stop-color="#939da1"/><stop offset=".9182" stop-color="#6c7679"/><stop offset="1" stop-color="#5a6366"/></linearGradient><path d="m54 58c0 2.199-1.729 4-3.84 4h-36.32c-2.111 0-3.84-1.801-3.84-4v-46.998c0-2.199 1.729-4 3.84-4h36.32c2.111 0 3.84 1.801 3.84 4z" fill="#b47d56"/><path d="m52.264 61h-38.528v-7.566l36.985-28.578z" fill="url(#a)"/><path d="m13.293 11.502s.316 23.398-.291 47.998h37.998c-.344-24.6-.291-47.998-.291-47.998z" fill="#fff"/><g fill="#6e8189"><path d="m26 21h20v1h-20z"/><path d="m26 31h20v1h-20z"/><path d="m26 41h20v1h-20z"/><path d="m26 51h20v1h-20z"/></g><path d="m23.249 11.086s.043-1.893 1.197-2.314c.631-.23 4.705-1.525 4.705-1.525s.287 3.759-5.902 3.839z" fill="#b3c2c6"/><path d="m40.748 11.086s-.043-1.893-1.197-2.314c-.629-.23-4.703-1.525-4.703-1.525s-.287 3.759 5.9 3.839z" fill="#b3c2c6"/><path d="m21.974 9.475c-.125-.326.459-.412.643-.27.73.572 1.146.84 1.281.842 2.414.035 2.594-.299 2.76.076-4.663 1.734-3.647 2.033-4.684-.648z" fill="#6e8189"/><path d="m42.023 9.479c.125-.326-.459-.412-.641-.27-.73.572-1.146.838-1.283.84-2.414.035-2.594-.299-2.758.074 4.663 1.738 3.647 2.037 4.682-.644z" fill="#6e8189"/><path d="m42.023 10.932c-1.459-.268-4.316-.824-4.48-.824-.123 0-.346-.223-.346-.344 0-.803 0-2.477 0-3.131 0-.406-1.656-1.104-2.021-1.613-.578-.815-.799-3.02-3.177-3.02-2.377 0-2.598 2.205-3.178 3.02-.363.511-2.021 1.207-2.021 1.613v3.131c0 .121-.223.344-.344.344-.166 0-3.021.559-4.482.824-1.541.285-1.975 3.068-1.975 3.068h12 11.999s-.434-2.783-1.975-3.068zm-10.024-5.164c-.828 0-1.5-.67-1.5-1.5s.672-1.5 1.5-1.5c.83 0 1.5.67 1.5 1.5s-.67 1.5-1.5 1.5z" fill="url(#b)"/><path d="m31.999 2.666c-.885 0-1.6.719-1.6 1.602s.715 1.602 1.6 1.602 1.6-.719 1.6-1.602-.715-1.602-1.6-1.602zm0 2.746c-.633 0-1.145-.512-1.145-1.146 0-.631.512-1.145 1.145-1.145.635 0 1.146.514 1.146 1.145.001.634-.511 1.146-1.146 1.146z" fill="url(#c)"/><path d="m23.5 18.5v5h-5v-5zm.5-.5h-6v6h6z" fill="#6e8189"/><path d="m23.5 28.5v5h-5v-5zm.5-.5h-6v6h6z" fill="#6e8189"/><path d="m23.5 38.5v5h-5v-5zm.5-.5h-6v6h6z" fill="#6e8189"/><path d="m23.5 48.5v5h-5v-5zm.5-.5h-6v6h6z" fill="#6e8189"/><path d="m25.206 18.259c-1.008.309-3 1.273-4.031 3.561 0 0-.822-1.092-1.551-1.385-.207-.008-.732.039-1.086.428 0 0 1.037.297 2.582 2.645.373-.252 1.006-.648 1.006-.648.85-2.682 2.451-3.928 3.248-4.43-.055-.06-.109-.118-.168-.171z" fill="#e81c27"/></svg>