<svg enable-background="new 0 0 64 64" height="64" viewBox="0 0 64 64" width="64" xmlns="http://www.w3.org/2000/svg" xmlns:xlink="http://www.w3.org/1999/xlink"><linearGradient id="a" gradientUnits="userSpaceOnUse" x1="32.0005" x2="32.0005" y1="26" y2="2"><stop offset="0" stop-color="#f33"/><stop offset=".4063" stop-color="#ee2125"/><stop offset="1" stop-color="#cf000a"/></linearGradient><path d="m62 3.5c0-.825-.675-1.5-1.5-1.5h-57c-.825 0-1.5.675-1.5 1.5v22.5h60z" fill="url(#a)"/><path d="m2 26v34.5c0 .825.675 1.5 1.5 1.5h57c.825 0 1.5-.675 1.5-1.5v-34.5z" fill="#e6ebef"/><g fill="#fff"><path d="m53 7.5h3v3h-3z"/><path d="m48 7.5h3v3h-3z"/><path d="m43 7.5h3v3h-3z"/><path d="m53 12.5h3v3h-3z"/><path d="m48 12.5h3v3h-3z"/><path d="m43 12.5h3v3h-3z"/><path d="m53 17.5h3v3h-3z"/><path d="m48 17.5h3v3h-3z"/><path d="m43 17.5h3v3h-3z"/><path d="m5.835 16.238c-.017-.234.107-.356.328-.356h1.085c.206 0 .33.122.359.341.109 1.065.8 1.472 1.745 1.472 1.044 0 1.767-.497 1.767-1.585v-7.16c0-.22.122-.339.345-.339h1.076c.223 0 .343.119.343.339v7.159c0 2.244-1.711 3.279-3.53 3.279-1.737.001-3.365-.938-3.518-3.15z"/><path d="m14.731 15.987v-7.037c0-.22.122-.339.345-.339h1.076c.223 0 .345.119.345.339v6.932c0 1.164.723 1.813 2.073 1.813 1.352 0 2.074-.648 2.074-1.813v-6.932c0-.22.124-.339.348-.339h1.073c.223 0 .347.119.347.339v7.037c0 2.214-1.713 3.401-3.842 3.401-2.126.001-3.839-1.187-3.839-3.401z"/><path d="m30.481 17.871v.981c0 .219-.124.339-.348.339h-4.8-.576c-.221 0-.346-.12-.346-.339v-9.902c0-.22.125-.339.346-.339h1.075c.226 0 .348.119.348.339v8.58h3.953c.224 0 .348.12.348.341z"/><path d="m38.102 9.02-3.341 5.406v4.427c0 .219-.122.339-.345.339h-1.076c-.223 0-.345-.12-.345-.339v-4.44l-3.333-5.393c-.145-.236-.039-.408.229-.408h1.244c.186 0 .316.075.406.233l2.339 3.917 2.339-3.917c.093-.158.224-.233.406-.233h1.244c.271-.001.378.171.233.408z"/></g><path d="m23.428 31.484h3.495c.545 0 .85.307.85.85v23.332c0 .545-.305.85-.85.85h-3.219c-.545 0-.85-.305-.85-.85v-19.228l-4.836 2.654c-.58.341-1.018.061-1.018-.58v-3.119c0-.448.178-.787.579-1.019l4.794-2.621c.34-.203.65-.269 1.055-.269z" fill="#302c3b"/><path d="m31.666 31.484h14.482c.547 0 .852.307.852.85v2.79c0 .377-.074.688-.207 1.055l-8.001 19.692c-.169.446-.509.645-.982.645h-3.441c-.617 0-.886-.377-.645-.985l7.848-19.326h-9.905c-.543 0-.847-.303-.847-.846v-3.024c-.001-.544.303-.851.846-.851z" fill="#302c3b"/></svg>