<svg enable-background="new 0 0 64 64" height="64" viewBox="0 0 64 64" width="64" xmlns="http://www.w3.org/2000/svg" xmlns:xlink="http://www.w3.org/1999/xlink"><linearGradient id="a" gradientUnits="userSpaceOnUse" x1="32.0005" x2="32.0005" y1="61.5" y2="2.5005"><stop offset="0" stop-color="#f90"/><stop offset="1" stop-color="#ffdb00"/></linearGradient><linearGradient id="b"><stop offset=".2182" stop-color="#ffea7d" stop-opacity=".8"/><stop offset=".3368" stop-color="#ffef9b" stop-opacity=".6695"/><stop offset=".5938" stop-color="#fffbe6" stop-opacity=".3868"/><stop offset=".6727" stop-color="#fff" stop-opacity=".3"/><stop offset="1" stop-color="#ffc800" stop-opacity="0"/></linearGradient><radialGradient id="c" cx="718.3984" cy="-327.1104" gradientTransform="matrix(.6835 .6835 -.3853 .3853 -605.483 -353.4091)" gradientUnits="userSpaceOnUse" r="38.3862" xlink:href="#b"/><radialGradient id="d" cx="-166.3618" cy="-165.8989" gradientTransform="matrix(-.6835 -.6835 .3853 -.3853 2.6365 -125.2086)" gradientUnits="userSpaceOnUse" r="38.3856" xlink:href="#b"/><linearGradient id="e" gradientUnits="userSpaceOnUse" x1="25" x2="39" y1="32" y2="32"><stop offset="0" stop-color="#5b666e"/><stop offset=".0083" stop-color="#5b656e"/><stop offset=".6633" stop-color="#3c3c49"/><stop offset="1" stop-color="#302c3b"/></linearGradient><path d="m32 2c-16.568 0-30 13.432-30 30s13.432 30 30 30 30-13.432 30-30-13.432-30-30-30zm0 33.502c-1.932 0-3.5-1.568-3.5-3.502 0-1.933 1.568-3.501 3.5-3.501 1.934 0 3.5 1.568 3.5 3.501 0 1.934-1.566 3.502-3.5 3.502z" fill="#f9b700"/><path d="m32 2.5c-16.291 0-29.5 13.208-29.5 29.5 0 16.293 13.209 29.5 29.5 29.5 16.293 0 29.5-13.207 29.5-29.5 0-16.292-13.207-29.5-29.5-29.5zm0 33.436c-2.172 0-3.934-1.762-3.934-3.936 0-2.172 1.762-3.934 3.934-3.934s3.934 1.762 3.934 3.934c0 2.174-1.762 3.936-3.934 3.936z" fill="url(#a)"/><path d="m52.506 52.508c11.326-11.326 11.326-29.688.002-41.014-11.326-11.324-29.688-11.324-41.014 0-11.324 11.325-11.324 29.688.002 41.012 11.322 11.326 29.686 11.326 41.01.002zm-23.24-23.241c1.51-1.511 3.959-1.51 5.471 0 1.508 1.51 1.508 3.96 0 5.47-1.512 1.51-3.961 1.508-5.471 0-1.51-1.512-1.51-3.962 0-5.47z" fill="url(#c)"/><path d="m11.496 11.494c-11.326 11.324-11.326 29.688-.002 41.012 11.326 11.326 29.688 11.326 41.014 0 11.324-11.324 11.324-29.688-.002-41.012-11.322-11.325-29.686-11.325-41.01 0zm23.24 23.242c-1.512 1.508-3.961 1.508-5.471-.002-1.508-1.51-1.51-3.96 0-5.469 1.51-1.511 3.959-1.51 5.471 0 1.508 1.51 1.51 3.96 0 5.471z" fill="url(#d)"/><path d="m32 25c-3.866 0-7 3.134-7 7 0 3.867 3.134 7 7 7 3.867 0 7-3.133 7-7 0-3.866-3.133-7-7-7zm0 11.75c-2.623 0-4.75-2.125-4.75-4.75 0-2.623 2.127-4.75 4.75-4.75s4.75 2.127 4.75 4.75c0 2.625-2.127 4.75-4.75 4.75z" fill="url(#e)"/><path d="m32 21.5c-5.8 0-10.5 4.7-10.5 10.5 0 5.801 4.7 10.5 10.5 10.5 5.801 0 10.5-4.699 10.5-10.5 0-5.8-4.699-10.5-10.5-10.5zm0 18.501c-4.419 0-8-3.581-8-8.001 0-4.418 3.581-8 8-8s8 3.582 8 8c0 4.42-3.581 8.001-8 8.001z" fill="#ab5c10" opacity=".4"/></svg>