<svg enable-background="new 0 0 64 64" height="64" viewBox="0 0 64 64" width="64" xmlns="http://www.w3.org/2000/svg" xmlns:xlink="http://www.w3.org/1999/xlink"><linearGradient id="a" gradientUnits="userSpaceOnUse" x1="53.7813" x2="38.8959" y1="11.4824" y2="21.4321"><stop offset="0" stop-color="#4e5e67"/><stop offset=".0407" stop-color="#5b6a72"/><stop offset=".1948" stop-color="#859198"/><stop offset=".3517" stop-color="#a8b1b7"/><stop offset=".5098" stop-color="#c3cbd0"/><stop offset=".6694" stop-color="#d7dde1"/><stop offset=".8315" stop-color="#e2e7ec"/><stop offset="1" stop-color="#e6ebef"/></linearGradient><linearGradient id="b" gradientTransform="matrix(0 -1 1 0 -74.9365 557.3223)" gradientUnits="userSpaceOnUse" x1="547.0537" x2="539.5131" y1="124.959" y2="117.4184"><stop offset="0" stop-color="#d3d7db"/><stop offset=".0202" stop-color="#d6dade"/><stop offset=".159" stop-color="#e9ebed"/><stop offset=".324" stop-color="#f5f6f7"/><stop offset=".5403" stop-color="#fdfdfd"/><stop offset="1" stop-color="#fff"/></linearGradient><path d="m56 62v-38.298c0-6.457-13.457-21.702-17.133-21.702h-30.867v60z" fill="#e6ebef"/><path d="m38.867 2.015c3.446 0 17.133 13.605 17.133 21.687v21.798s-53.479-6.87-41.146-43.5z" fill="url(#a)"/><g fill="#99a8ae"><path d="m13 9h12v1h-12z"/><path d="m13 17h38v1h-38z"/><path d="m13 21h38v1h-38z"/><path d="m13 25h38v1h-38z"/><path d="m13 29h38v1h-38z"/><path d="m13 33h33v1h-33z"/><path d="m13 41h21v1h-21z"/><path d="m13 45h38v1h-38z"/><path d="m13 49h38v1h-38z"/><path d="m13 53h13v1h-13z"/><path d="m13 57h6v1h-6z"/></g><path d="m38.867 2.015c4.592 0 17.133 12.939 17.133 21.687 0 0-1.375-8.331-14.207-6.581 1.582-10-1.355-14.876-2.926-15.106z" fill="url(#b)"/></svg>