<svg enable-background="new 0 0 64 64" height="64" viewBox="0 0 64 64" width="64" xmlns="http://www.w3.org/2000/svg" xmlns:xlink="http://www.w3.org/1999/xlink"><linearGradient id="a" gradientUnits="userSpaceOnUse" x1="32" x2="32" y1="61" y2="34"><stop offset="0" stop-color="#cc0100"/><stop offset=".2111" stop-color="#df1616"/><stop offset=".4793" stop-color="#f12b2a"/><stop offset=".7442" stop-color="#fb3737"/><stop offset="1" stop-color="#ff3b3b"/></linearGradient><linearGradient id="b" gradientUnits="userSpaceOnUse" x1="13.9995" x2="13.9995" y1="61" y2="22.0005"><stop offset="0" stop-color="#69a123"/><stop offset=".2373" stop-color="#7dbb23"/><stop offset=".4966" stop-color="#8ecf22"/><stop offset=".7527" stop-color="#98dc22"/><stop offset="1" stop-color="#9be022"/></linearGradient><linearGradient id="c" gradientUnits="userSpaceOnUse" x1="50" x2="50" y1="61" y2="12.0005"><stop offset="0" stop-color="#009af7"/><stop offset=".0814" stop-color="#0ca2f4"/><stop offset=".3157" stop-color="#29b5ee"/><stop offset=".549" stop-color="#3dc3ea"/><stop offset=".7785" stop-color="#4acbe7"/><stop offset="1" stop-color="#4ecee6"/></linearGradient><path d="m2 2h60v60h-60z" fill="#e6ebef"/><g fill="#cfd8dd"><path d="m55.887 2h.5v60h-.5z"/><path d="m50.521 2h.5v60h-.5z"/><path d="m45.158 2h.5v60h-.5z"/><path d="m39.795 2h.5v60h-.5z"/><path d="m34.432 2h.5v60h-.5z"/><path d="m29.069 2h.5v60h-.5z"/><path d="m23.705 2h.5v60h-.5z"/><path d="m18.341 2h.5v60h-.5z"/><path d="m12.978 2h.5v60h-.5z"/><path d="m7.613 2h.5v60h-.5z"/><path d="m2 7.613h60v.5h-60z"/><path d="m2 12.978h60v.5h-60z"/><path d="m2 18.341h60v.5h-60z"/><path d="m2 23.705h60v.5h-60z"/><path d="m2 29.068h60v.5h-60z"/><path d="m2 34.432h60v.5h-60z"/><path d="m2 39.795h60v.5h-60z"/><path d="m2 45.159h60v.5h-60z"/><path d="m2 50.522h60v.5h-60z"/><path d="m2 55.887h60v.5h-60z"/><path d="m61 2h1v60h-1z"/><path d="m2 2h1v60h-1z"/><path d="m2 2h60v1h-60z"/><path d="m2 61h60v1h-60z"/></g><path d="m26 34h12v27h-12z" fill="url(#a)"/><path d="m8 22h12v39h-12z" fill="url(#b)"/><path d="m44 12h12v49h-12z" fill="url(#c)"/></svg>