<svg enable-background="new 0 0 64 64" height="64" viewBox="0 0 64 64" width="64" xmlns="http://www.w3.org/2000/svg" xmlns:xlink="http://www.w3.org/1999/xlink"><linearGradient id="a" gradientTransform="matrix(.7071 .7071 -.7071 .7071 -211.71 97.1913)" gradientUnits="userSpaceOnUse" x1="119.8662" x2="132.6494" y1="-194.5264" y2="-194.5264"><stop offset="0" stop-color="#b3c2c6"/><stop offset=".2131" stop-color="#aebdc1"/><stop offset=".4787" stop-color="#a0adb2"/><stop offset=".771" stop-color="#889499"/><stop offset="1" stop-color="#717b80"/></linearGradient><linearGradient id="b" gradientTransform="matrix(.7071 .7071 -.7071 .7071 -209.541 94.7392)" gradientUnits="userSpaceOnUse" x1="118.9043" x2="134.1787" y1="-227.4854" y2="-227.4854"><stop offset="0" stop-color="#ff2121"/><stop offset=".4092" stop-color="#ef1619"/><stop offset="1" stop-color="#d1000b"/></linearGradient><radialGradient id="c" cx="120.4082" cy="-218.8862" gradientTransform="matrix(.7128 .7128 -.7128 .7128 -211.6494 92.0105)" gradientUnits="userSpaceOnUse" r="22.0414"><stop offset="0" stop-color="#ff2121"/><stop offset=".3147" stop-color="#fc1f1f"/><stop offset=".5906" stop-color="#f1171a"/><stop offset=".8511" stop-color="#df0a12"/><stop offset="1" stop-color="#d1000b"/></radialGradient><radialGradient id="d" cx="119.9805" cy="-235.0259" gradientTransform="matrix(.7128 .7128 -.4355 .4355 -146.4695 26.8285)" gradientUnits="userSpaceOnUse" r="16.5527"><stop offset="0" stop-color="#ff2121"/><stop offset=".2762" stop-color="#fa1d1e"/><stop offset=".6204" stop-color="#ea1217"/><stop offset="1" stop-color="#d1000b"/></radialGradient><path d="m27.136 34.734-18.441 18.442-6.695 8.824 8.833-6.686 18.439-18.439z" fill="url(#a)"/><path d="m35.6 39.355-10.791-10.797 21.179-21.193 10.789 10.802z" fill="url(#b)"/><path d="m33.584 30.44c-6.275-6.279-15.58-10.085-22.959-9.264l32.204 32.237c.823-7.392-2.97-16.69-9.245-22.973z" fill="url(#c)"/><path d="m40.648 2c-1.02 5.37 3.07 12.321 6.055 15.308 2.982 2.982 9.926 7.072 15.297 6.05z" fill="url(#d)"/></svg>