<svg enable-background="new 0 0 64 64" height="64" viewBox="0 0 64 64" width="64" xmlns="http://www.w3.org/2000/svg"><path d="m51.805 61.71c-.389.388-1.025.388-1.414-.001l-48.099-48.1c-.39-.389-.39-1.027 0-1.416l9.903-9.902c.389-.389 1.025-.389 1.413 0l48.101 48.1c.389.389.389 1.025 0 1.414z" fill="#ffe1bd"/><path d="m52.918 60.598 2.949-2.951c-5.011-4.631-11.141-10.531-17.694-17.082-15.787-15.792-27.924-29.254-27.108-30.073.235-.232 1.499.59 3.544 2.244-2.281-2.371-4.367-4.596-6.227-6.633l-2.595 2.594c3.952 3.625 8.565 8.047 13.433 12.912 13.329 13.326 23.422 24.842 22.544 25.719-.875.875-12.392-9.217-25.718-22.545-4.867-4.867-9.286-9.479-12.913-13.432l-.841.842c-.39.389-.39 1.027 0 1.416l24.969 24.969c2.185-.096 10.237 6.191 18.937 14.889 2.47 2.472 4.728 4.881 6.72 7.131z" fill="#f5cfa0"/><path d="m44.572 39.863c-.208.209-1.068-.256-2.439-1.262 6.16 6.176 11.691 11.938 16.082 16.697l2.395-2.396c-1.045-1.018-2.12-2.076-3.229-3.186-7.561-7.559-13.37-14.012-12.969-14.41.396-.398 6.849 5.408 14.41 12.971 1.09 1.088 2.115 2.135 3.112 3.158.126-.354.056-.764-.226-1.045l-48.101-48.1c-.388-.389-1.024-.389-1.413 0l-1.378 1.38c3.753 3.43 8.182 7.662 12.863 12.348 12.357 12.353 21.71 23.029 20.893 23.845z" fill="#f5cfa0"/><path d="m61.354 50.744c.195.195.194.512 0 .707l-9.903 9.905c-.193.192-.512.195-.707 0l-48.098-48.1c-.195-.195-.195-.514 0-.709l9.903-9.902c.194-.195.512-.195.706 0zm.355-.353-48.101-48.1c-.388-.389-1.024-.389-1.413 0l-9.903 9.902c-.39.389-.39 1.027 0 1.416l48.099 48.1c.389.389 1.025.389 1.414.001l9.904-9.905c.389-.389.389-1.026 0-1.414z" fill="#1a1626" opacity=".1"/><g fill="#302c3b"><path d="m11.507 1.537h.279v5.827h-.279z" transform="matrix(.7141 .7001 -.7001 .7141 6.446 -6.8803)"/><path d="m13.486 2.826h.282v2.478h-.282z" transform="matrix(.7088 .7054 -.7054 .7088 6.8354 -8.4284)"/><path d="m14.288 3.625h.278v2.479h-.278z" transform="matrix(.7054 .7089 -.7089 .7054 7.6991 -8.7936)"/><path d="m15.084 4.422h.282v2.48h-.282z" transform="matrix(.7088 .7054 -.7054 .7088 8.4271 -9.0911)"/><path d="m15.882 5.22h.285v2.481h-.285z" transform="matrix(.7071 .7071 -.7071 .7071 9.2619 -9.4383)"/><path d="m16.281 5.855h.282v3.608h-.282z" transform="matrix(.7071 .7071 -.7071 .7071 10.2256 -9.3684)"/><path d="m17.48 6.818h.279v2.478h-.279z" transform="matrix(.7071 .7071 -.7071 .7071 10.8583 -10.0989)"/><path d="m18.278 7.619h.284v2.477h-.284z" transform="matrix(.7054 .7088 -.7088 .7054 11.7054 -10.4465)"/><path d="m19.075 8.416h.282v2.478h-.282z" transform="matrix(.7088 .7054 -.7054 .7088 12.4054 -10.7436)"/><path d="m19.872 9.214h.284v2.478h-.284z" transform="matrix(.7054 .7088 -.7088 .7054 13.3059 -11.1069)"/><path d="m19.488 9.522h.283v5.826h-.283z" transform="matrix(.7105 .7036 -.7036 .7105 14.4313 -10.213)"/><path d="m21.467 10.811h.286v2.478h-.286z" transform="matrix(.7037 .7105 -.7105 .7037 14.9651 -11.7839)"/><path d="m22.271 11.607h.279v2.48h-.279z" transform="matrix(.7071 .7071 -.7071 .7071 15.6484 -12.0834)"/><path d="m23.067 12.406h.282v2.479h-.282z" transform="matrix(.7071 .7071 -.7071 .7071 16.4463 -12.4139)"/><path d="m23.864 13.206h.285v2.478h-.285z" transform="matrix(.7071 .7071 -.7071 .7071 17.2457 -12.7441)"/><path d="m24.266 13.839h.28v3.609h-.28z" transform="matrix(.7106 .7036 -.7036 .7106 18.0705 -12.6447)"/><path d="m25.461 14.802h.283v2.478h-.283z" transform="matrix(.7036 .7105 -.7105 .7036 18.9854 -13.4384)"/><path d="m26.259 15.601h.287v2.477h-.287z" transform="matrix(.7054 .7088 -.7088 .7054 19.7143 -13.7532)"/><path d="m27.058 16.399h.285v2.478h-.285z" transform="matrix(.7139 .7002 -.7002 .7139 20.1311 -14.0007)"/><path d="m27.859 17.198h.28v2.478h-.28z" transform="matrix(.7089 .7054 -.7054 .7089 21.1565 -14.3811)"/><path d="m27.471 17.505h.282v5.826h-.282z" transform="matrix(.7071 .7071 -.7071 .7071 22.5255 -13.5444)"/><path d="m29.454 18.794h.285v2.479h-.285z" transform="matrix(.7088 .7054 -.7054 .7088 22.7492 -15.0436)"/><path d="m30.253 19.594h.282v2.478h-.282z" transform="matrix(.7071 .7071 -.7071 .7071 23.6332 -15.3896)"/><path d="m31.05 20.39h.282v2.477h-.282z" transform="matrix(.7001 .714 -.714 .7001 24.796 -15.7848)"/><path d="m31.847 21.188h.284v2.478h-.284z" transform="matrix(.7054 .7088 -.7088 .7054 25.3212 -16.0675)"/><path d="m32.248 21.822h.282v3.609h-.282z" transform="matrix(.7071 .7071 -.7071 .7071 26.1925 -15.9824)"/><path d="m33.447 22.784h.278v2.48h-.278z" transform="matrix(.7106 .7036 -.7036 .7106 26.6215 -16.6781)"/><path d="m34.243 23.585h.285v2.478h-.285z" transform="matrix(.7071 .7071 -.7071 .7071 27.6246 -17.0432)"/><path d="m35.042 24.383h.282v2.478h-.282z" transform="matrix(.7054 .7088 -.7088 .7054 28.5277 -17.3904)"/><path d="m35.841 25.18h.282v2.478h-.282z" transform="matrix(.7071 .7071 -.7071 .7071 29.2197 -17.7048)"/><path d="m35.455 25.489h.285v5.826h-.285z" transform="matrix(.7088 .7054 -.7054 .7088 30.4002 -16.84)"/><path d="m37.438 26.776h.283v2.482h-.283z" transform="matrix(.7105 .7036 -.7036 .7105 30.5912 -18.333)"/><path d="m38.236 27.576h.283v2.478h-.283z" transform="matrix(.7105 .7036 -.7036 .7105 31.3844 -18.6636)"/><path d="m38.398 30.592-.199-.203 1.754-1.75.197.197z"/><path d="m39.832 29.173h.285v2.478h-.285z" transform="matrix(.7088 .7054 -.7054 .7088 33.0924 -19.3423)"/><path d="m40.232 29.806h.282v3.607h-.282z" transform="matrix(.7071 .7071 -.7071 .7071 34.1762 -19.2899)"/><path d="m41.428 30.768h.281v2.478h-.281z" transform="matrix(.7054 .7088 -.7088 .7054 34.9353 -20.0355)"/><path d="m42.225 31.567h.285v2.478h-.285z" transform="matrix(.7071 .7071 -.7071 .7071 35.607 -20.3496)"/><path d="m43.026 32.367h.281v2.477h-.281z" transform="matrix(.7054 .7088 -.7088 .7054 36.5389 -20.6971)"/><path d="m43.824 33.163h.281v2.478h-.281z" transform="matrix(.7123 .7019 -.7019 .7123 36.7944 -20.9601)"/><path d="m43.438 33.47h.284v5.827h-.284z" transform="matrix(.7122 .7019 -.7019 .7122 38.0788 -20.1202)"/><path d="m45.421 34.76h.282v2.48h-.282z" transform="matrix(.7088 .7054 -.7054 .7088 38.6597 -21.6563)"/><path d="m46.219 35.557h.282v2.48h-.282z" transform="matrix(.7071 .7071 -.7071 .7071 39.5978 -22.0038)"/><path d="m47.016 36.358h.285v2.477h-.285z" transform="matrix(.7071 .7071 -.7071 .7071 40.3968 -22.3342)"/><path d="m47.816 37.155h.28v2.478h-.28z" transform="matrix(.7106 .7036 -.7036 .7106 40.8945 -22.6309)"/><path d="m48.216 37.788h.282v3.61h-.282z" transform="matrix(.714 .7001 -.7001 .714 41.5502 -22.533)"/><path d="m49.412 38.752h.282v2.478h-.282z" transform="matrix(.7071 .7071 -.7071 .7071 42.7919 -23.3263)"/><path d="m50.21 39.55h.283v2.479h-.283z" transform="matrix(.7105 .7036 -.7036 .7105 43.2756 -23.6233)"/><path d="m51.01 40.35h.28v2.478h-.28z" transform="matrix(.7036 .7106 -.7106 .7036 44.7125 -24.0202)"/><path d="m51.808 41.145h.279v2.48h-.279z" transform="matrix(.7071 .7071 -.7071 .7071 45.1856 -24.3181)"/><path d="m51.42 41.457h.286v5.824h-.286z" transform="matrix(.7037 .7105 -.7105 .7037 46.8038 -23.4885)"/><path d="m53.404 42.743h.279v2.477h-.279z" transform="matrix(.7071 .7071 -.7071 .7071 46.7826 -24.9793)"/><path d="m54.201 43.542h.285v2.479h-.285z" transform="matrix(.7071 .7071 -.7071 .7071 47.5818 -25.31)"/><path d="m54.997 44.34h.288v2.479h-.288z" transform="matrix(.7088 .7054 -.7054 .7088 48.209 -25.6244)"/><path d="m55.8 45.14h.28v2.478h-.28z" transform="matrix(.7089 .7054 -.7054 .7089 49.0006 -25.9545)"/><path d="m56.198 45.772h.281v3.609h-.281z" transform="matrix(.7054 .7088 -.7088 .7054 50.3231 -25.9175)"/><path d="m57.394 46.734h.284v2.48h-.284z" transform="matrix(.7054 .7088 -.7088 .7054 50.956 -26.6493)"/><path d="m58.194 47.532h.282v2.479h-.282z" transform="matrix(.7071 .7071 -.7071 .7071 51.5726 -26.9642)"/><path d="m58.994 48.332h.28v2.478h-.28z" transform="matrix(.7123 .7018 -.7018 .7123 51.8026 -27.2428)"/><path d="m59.79 49.131h.282v2.478h-.282z" transform="matrix(.7088 .7054 -.7054 .7088 52.9798 -27.6079)"/><path d="m59.405 49.437h.282v5.827h-.282z" transform="matrix(.714 .7001 -.7001 .714 53.6825 -26.7182)"/></g></svg>