<svg enable-background="new 0 0 64 64" height="64" viewBox="0 0 64 64" width="64" xmlns="http://www.w3.org/2000/svg" xmlns:xlink="http://www.w3.org/1999/xlink"><linearGradient id="a" gradientUnits="userSpaceOnUse" x1="15" x2="7" y1="30.0005" y2="30.0005"><stop offset="0" stop-color="#302c3b"/><stop offset=".3073" stop-color="#2d2938"/><stop offset=".5538" stop-color="#231f2e"/><stop offset=".6848" stop-color="#1a1626"/></linearGradient><linearGradient id="b" gradientUnits="userSpaceOnUse" x1="50" x2="50" y1="62" y2="2.0005"><stop offset=".097" stop-color="#3f4c54"/><stop offset=".1022" stop-color="#425058"/><stop offset=".123" stop-color="#4b5b63"/><stop offset=".1455" stop-color="#4e5e67"/></linearGradient><path d="m57 4s0-2-2-2h-40c-9.546 9.545 0 54 0 54s42 10.785 42-2z" fill="#839aa3"/><path d="m7 58v-54c0-2 2-2 2-2h6v54z" fill="url(#a)"/><g fill="#4e5e67"><path d="m27.016 15.586h.344c.096 0 .146.051.146.146v4.535c0 .094-.051.145-.146.145h-.254c-.078 0-.139-.029-.176-.094l-2.131-3.475v3.424c0 .094-.051.145-.146.145h-.344c-.096 0-.146-.051-.146-.145v-4.535c0-.096.051-.146.146-.146h.254c.08 0 .139.029.176.094l2.131 3.475v-3.422c0-.096.05-.147.146-.147z"/><path d="m28.286 18c0-1.391 1.098-2.5 2.5-2.5 1.4 0 2.5 1.109 2.5 2.5 0 1.389-1.099 2.5-2.5 2.5-1.403 0-2.5-1.111-2.5-2.5zm4.361 0c0-1.061-.807-1.881-1.861-1.881-1.057 0-1.861.82-1.861 1.881 0 1.059.805 1.879 1.861 1.879 1.054 0 1.861-.82 1.861-1.879z"/><path d="m36.598 15.732v.314c0 .094-.053.145-.146.145h-1.139v4.076c0 .094-.051.145-.145.145h-.346c-.096 0-.146-.051-.146-.145v-4.076h-1.139c-.094 0-.145-.051-.145-.145v-.314c0-.096.051-.146.145-.146h1.775 1.139c.094 0 .147.051.147.146z"/><path d="m40.031 19.953v.314c0 .094-.051.145-.148.145h-2.403-.098c-.094 0-.145-.051-.145-.145v-4.535c0-.096.051-.146.145-.146h.492 1.975c.094 0 .146.051.146.146v.314c0 .094-.053.145-.146.145h-1.975v1.484h1.803c.094 0 .146.053.146.146v.309c0 .096-.053.146-.146.146h-1.803v1.529h2.008c.098.002.149.052.149.148z"/><path d="m40.543 19.139c-.008-.104.047-.154.143-.154h.348c.09 0 .139.049.148.145.066.492.48.75 1.068.75.557 0 .949-.281.949-.719 0-.465-.469-.666-1.002-.861-.719-.266-1.541-.523-1.541-1.492 0-.84.725-1.307 1.494-1.307.775 0 1.471.439 1.543 1.283.006.102-.047.154-.141.154h-.352c-.086 0-.137-.051-.148-.141-.061-.445-.422-.678-.902-.678-.484 0-.855.256-.855.688 0 .488.432.684.967.885.721.271 1.576.535 1.576 1.469 0 .846-.746 1.34-1.588 1.34-.879-.001-1.635-.468-1.707-1.362z"/><path d="m55 56s-44.5 0-46 0c0 0-2 0-2 2v2c0 2 2 2 2 2h46s2 0 2-2v-6c0 2-2 2-2 2z"/></g><path d="m55 57h-46c-1 0-1 1-1 1v2s0 1 1 1h46c.553 0 1-.447 1-1v-1-2.25c-.5.25-1 .25-1 .25z" fill="#e6ebef"/><path d="m8 58.752v.496l47.625-.248z" fill="#cfd8dd"/><path d="m8 59.752v.248s.004.107.037.248l47.588-.248z" fill="#cfd8dd"/><path d="m8.037 57.752c-.033.141-.037.248-.037.248v.248l47.625-.248z" fill="#cfd8dd"/><path d="m49 2h2v60h-2z" fill="url(#b)"/></svg>