<svg enable-background="new 0 0 64 64" height="64" viewBox="0 0 64 64" width="64" xmlns="http://www.w3.org/2000/svg" xmlns:xlink="http://www.w3.org/1999/xlink"><linearGradient id="a" gradientUnits="userSpaceOnUse" x1="32.2534" x2="32.2534" y1="59" y2="50"><stop offset="0" stop-color="#fff"/><stop offset=".2258" stop-color="#f5f6f7"/><stop offset=".6071" stop-color="#dbdfe2"/><stop offset="1" stop-color="#b9c2c7"/></linearGradient><linearGradient id="b" gradientUnits="userSpaceOnUse" x1="36" x2="36" y1="52" y2="4.0005"><stop offset="0" stop-color="#cf0000"/><stop offset="1" stop-color="#ff000e"/></linearGradient><linearGradient id="c" gradientUnits="userSpaceOnUse" x1="9" x2="17" y1="30" y2="30"><stop offset=".2182" stop-color="#870000"/><stop offset=".4878" stop-color="#9d0000"/><stop offset=".7787" stop-color="#ad0000"/><stop offset="1" stop-color="#b30000"/></linearGradient><path d="m11 52s-2 0-2 4 2 4 2 4h6v-8z" fill="#7a0000"/><path d="m17 52v8h36s2 0 2-2v-8z" fill="#8f0000"/><path d="m17 53h-6s-1 0-1 3 1 3 1 3h41.506s2 0 2-2v-7z" fill="url(#a)"/><path d="m53 53h-36v-6h38v4c0 2-2 2-2 2z" fill="#a6141c"/><path d="m55 6s0-2-2-2h-36v48h36s2 0 2-2z" fill="url(#b)"/><path d="m11 52s-2 0-2 4v-48c0-4 2-4 2-4h6v48z" fill="url(#c)"/><path d="m35 12.75c1.242 0 2.246 1.007 2.246 2.252 0 1.243-1.004 2.25-2.246 2.25-1.244 0-2.252-1.007-2.252-2.25 0-1.246 1.008-2.252 2.252-2.252zm0-.75c-1.656 0-3 1.342-3 3.001 0 1.657 1.344 2.999 3 2.999s3-1.342 3-2.999c0-.798-.318-1.562-.877-2.124-.564-.561-1.328-.877-2.123-.877z" fill="#8f0000"/><path d="m35.598 15.298c-.041.007-.08-.005-.111-.036-.029-.029-.043-.068-.037-.112v-.301c-.006-.039.008-.081.037-.11.031-.029.07-.046.111-.039h.979c.038-.007.082.009.111.039s.041.071.037.11v.153c0 .696-.422 1.328-1.066 1.593-.644.268-1.385.12-1.879-.375-.034-.024-.053-.063-.053-.107 0-.041.019-.08.053-.104l.318-.321c.024-.035.066-.051.107-.051s.08.017.104.051c.241.24.589.337.917.258.33-.078.596-.321.699-.647h-.327z" fill="#8f0000"/><path d="m10.237 58.041c.057.184.12.332.185.451l42.941-.225z" fill="#bec3cf"/><path d="m10.058 57.109c.019.164.041.316.066.453l43.239-.227z" fill="#bec3cf"/><path d="m10.004 56.176c.002.16.006.313.015.455l43.345-.227z" fill="#bec3cf"/><path d="m10.027 55.244c-.01.143-.017.295-.021.455l43.357-.227z" fill="#bec3cf"/><path d="m10.147 54.313c-.029.137-.053.289-.075.455l43.291-.227z" fill="#bec3cf"/><path d="m10.495 53.383c-.074.113-.147.264-.214.451l43.082-.227z" fill="#bec3cf"/><g fill="#8f0000"><path d="m24.558 22.353-1.051-3.083c-.023-.073.014-.12.089-.12h.364c.059 0 .101.026.12.087l.83 2.564.83-2.564c.019-.062.061-.087.12-.087h.364c.075 0 .113.047.089.12l-1.05 3.083c-.019.056-.061.087-.12.087h-.465c-.059-.001-.102-.031-.12-.087z"/><path d="m28.701 21.269c0 .04-.003.078-.006.115-.007.068-.049.099-.112.099h-.397-1.354c.077.385.364.583.721.583.225 0 .41-.094.511-.226.038-.04.073-.063.13-.063l.301-.002c.077 0 .119.047.089.113-.172.383-.558.613-1.037.613-.75 0-1.24-.531-1.24-1.236 0-.695.496-1.236 1.231-1.236.702-.001 1.163.563 1.163 1.24zm-.512-.205c-.066-.4-.352-.573-.654-.573-.38 0-.637.222-.706.573z"/><path d="m30.316 20.155v.333c0 .066-.028.104-.078.104-.308.007-.599.176-.599.64v1.102c0 .069-.038.106-.106.106h-.296c-.068 0-.105-.037-.105-.106v-2.139c0-.068.037-.105.105-.105h.296c.068 0 .106.037.106.105v.247c.124-.248.329-.362.569-.388.07-.01.108.033.108.101z"/><path d="m32.372 21.779c0 .463-.404.721-.924.721-.481 0-.864-.23-.917-.677-.006-.073.036-.111.104-.111h.293c.063 0 .089.036.111.094.041.169.205.238.409.238.247 0 .417-.087.417-.266 0-.468-1.305-.134-1.305-1.03 0-.458.404-.721.888-.721.44 0 .818.23.87.677.007.073-.035.11-.104.11h-.291c-.064 0-.09-.035-.113-.096-.037-.167-.195-.235-.362-.235-.212 0-.38.087-.38.266 0 .473 1.304.132 1.304 1.03z"/><path d="m32.854 19.607v-.353c0-.068.037-.106.105-.106h.296c.068 0 .106.038.106.106v.353c0 .068-.038.106-.106.106h-.296c-.068 0-.105-.038-.105-.106zm0 2.726v-2.139c0-.068.037-.105.105-.105h.296c.068 0 .106.037.106.105v2.139c0 .069-.038.106-.106.106h-.296c-.068 0-.105-.037-.105-.106z"/><path d="m33.818 21.264c0-.698.553-1.236 1.241-1.236s1.241.538 1.241 1.236-.553 1.236-1.241 1.236-1.241-.538-1.241-1.236zm1.975 0c0-.428-.319-.743-.733-.743-.413 0-.733.315-.733.743s.32.743.733.743c.414 0 .733-.315.733-.743z"/><path d="m38.709 20.926v1.408c0 .069-.038.106-.105.106h-.297c-.068 0-.105-.037-.105-.106v-1.377c0-.303-.184-.454-.43-.454-.266 0-.506.158-.506.588v1.243c0 .069-.037.106-.105.106h-.296c-.068 0-.106-.037-.106-.106v-2.139c0-.068.038-.105.106-.105h.296c.068 0 .105.037.105.105v.161c.15-.229.381-.327.668-.327.436-.001.775.333.775.897z"/><path d="m42.788 21.45v.291c0 .068-.038.106-.106.106h-.27v.486c0 .069-.038.106-.105.106h-.334c-.068 0-.105-.037-.105-.106v-.486h-1.535c-.068 0-.105-.038-.105-.106v-.329c0-.047.009-.087.03-.132l1.064-2.056c.026-.051.065-.075.124-.075h.36c.079 0 .112.052.075.127l-1.069 2.068h1.056v-.75c0-.068.037-.106.105-.106h.334c.067 0 .105.038.105.106v.75h.27c.068 0 .106.038.106.106z"/><path d="m43.15 22.333v-.376c0-.068.039-.105.106-.105h.376c.068 0 .105.037.105.105v.376c0 .069-.037.106-.105.106h-.376c-.067 0-.106-.037-.106-.106z"/><path d="m46.5 21.445c0 .688-.545 1.055-1.152 1.055-.572 0-1.092-.329-1.146-.945-.004-.073.035-.11.104-.11h.334c.063 0 .096.035.107.101.043.273.275.428.602.428.369 0 .611-.2.611-.529s-.242-.529-.611-.529h-.885c-.068 0-.108-.04-.104-.11l.111-1.556c.006-.063.045-.101.109-.101h1.673c.068 0 .106.038.106.106v.296c0 .068-.038.106-.106.106h-1.271l-.052.733h.442c.607 0 1.128.366 1.128 1.055z"/></g></svg>