<svg enable-background="new 0 0 64 64" height="64" viewBox="0 0 64 64" width="64" xmlns="http://www.w3.org/2000/svg" xmlns:xlink="http://www.w3.org/1999/xlink"><linearGradient id="a" gradientUnits="userSpaceOnUse" x1="6.0918" x2="56.909" y1="19.3291" y2="48.6685"><stop offset="0" stop-color="#b9c2c7"/><stop offset=".2824" stop-color="#c0c8cd"/><stop offset=".6847" stop-color="#d2d9dd"/><stop offset="1" stop-color="#e6ebed"/></linearGradient><linearGradient id="b" gradientUnits="userSpaceOnUse" x1="42.6514" x2="30.2468" y1="9.9014" y2="18.1929"><stop offset="0" stop-color="#4e5e67"/><stop offset=".0407" stop-color="#5b6a72"/><stop offset=".1948" stop-color="#859198"/><stop offset=".3517" stop-color="#a8b1b7"/><stop offset=".5098" stop-color="#c3cbd0"/><stop offset=".6694" stop-color="#d7dde1"/><stop offset=".8315" stop-color="#e2e7ec"/><stop offset="1" stop-color="#e6ebef"/></linearGradient><linearGradient id="c" gradientTransform="matrix(0 -1 1 0 -74.9365 557.3223)" gradientUnits="userSpaceOnUse" x1="548.4326" x2="542.1481" y1="114.4551" y2="108.1705"><stop offset="0" stop-color="#d3d7db"/><stop offset=".0202" stop-color="#d6dade"/><stop offset=".159" stop-color="#e9ebed"/><stop offset=".324" stop-color="#f5f6f7"/><stop offset=".5403" stop-color="#fdfdfd"/><stop offset="1" stop-color="#fff"/></linearGradient><path d="m15.056 12h38.89v50h-38.89z" fill="#c1cacf"/><path d="m48.5 41.5h5v4h-5z" fill="#f2f5f7"/><path d="m53.5 41.5h6v4h-6z" fill="#7ab51d"/><path d="m12.057 8.999h38.889v50h-38.889z" fill="url(#a)"/><path d="m18.538 19.185h29.63v.926h-29.63z" fill="#99a8ae"/><path d="m18.538 22.888h29.63v.926h-29.63z" fill="#99a8ae"/><path d="m18.538 26.592h29.63v.926h-29.63z" fill="#99a8ae"/><path d="m18.538 30.295h29.63v.926h-29.63z" fill="#99a8ae"/><path d="m18.538 38.999h29.63v.926h-29.63z" fill="#99a8ae"/><path d="m18.538 43.258h29.63v.927h-29.63z" fill="#99a8ae"/><path d="m18.538 46.962h29.63v.926h-29.63z" fill="#99a8ae"/><path d="m18.538 50.666h29.63v.926h-29.63z" fill="#99a8ae"/><path d="m18.538 54.369h29.63v.926h-29.63z" fill="#99a8ae"/><path d="m45.502 13.499h5v4h-5z" fill="#e6e9eb"/><path d="m50.502 13.499h6v4h-6z" fill="#e8000d"/><path d="m44.5 52v-31.915c0-5.381-11.215-18.085-14.278-18.085h-25.722v50z" fill="#e6ebef"/><path d="m30.222 2.012c2.872 0 14.278 11.338 14.278 18.073v18.165s-44.566-5.725-34.288-36.25z" fill="url(#b)"/><g fill="#99a8ae"><path d="m8.667 7.833h10v.834h-10z"/><path d="m8.667 14.5h31.667v.833h-31.667z"/><path d="m8.667 17.833h31.667v.834h-31.667z"/><path d="m8.667 21.167h31.667v.833h-31.667z"/><path d="m8.667 24.5h31.667v.833h-31.667z"/><path d="m8.667 27.833h27.5v.834h-27.5z"/><path d="m8.667 34.5h17.5v.833h-17.5z"/><path d="m8.667 37.833h31.667v.834h-31.667z"/><path d="m8.667 41.167h31.667v.833h-31.667z"/><path d="m8.667 44.5h10.833v.833h-10.833z"/><path d="m8.667 47.833h5v.834h-5z"/></g><path d="m30.222 2.012c3.827 0 14.278 10.783 14.278 18.073 0 0-1.146-6.942-11.84-5.484 1.319-8.333-1.129-12.397-2.438-12.589z" fill="url(#c)"/><path d="m38.5 31.999h5v4h-5z" fill="#fff"/><path d="m43.5 31.999h6v4h-6z" fill="#0fb4d4"/></svg>