<svg enable-background="new 0 0 64 64" height="64" viewBox="0 0 64 64" width="64" xmlns="http://www.w3.org/2000/svg" xmlns:xlink="http://www.w3.org/1999/xlink"><linearGradient id="a" gradientUnits="userSpaceOnUse" x1="8" x2="32.0005" y1="28.4316" y2="28.4316"><stop offset="0" stop-color="#cfd8dd"/><stop offset=".2236" stop-color="#e1e7eb"/><stop offset=".4658" stop-color="#eef2f4"/><stop offset=".7" stop-color="#f2f5f7"/><stop offset=".7621" stop-color="#eef1f4"/><stop offset=".8265" stop-color="#e1e7e9"/><stop offset=".8918" stop-color="#cdd5d8"/><stop offset=".9575" stop-color="#b0bcc1"/><stop offset="1" stop-color="#99a8ae"/></linearGradient><linearGradient id="b" gradientUnits="userSpaceOnUse" x1="32.0005" x2="56" y1="28.4316" y2="28.4316"><stop offset="0" stop-color="#99a8ae"/><stop offset=".0425" stop-color="#b0bcc1"/><stop offset=".1082" stop-color="#cdd5d8"/><stop offset=".1735" stop-color="#e1e7e9"/><stop offset=".2379" stop-color="#eef1f4"/><stop offset=".3" stop-color="#f2f5f7"/><stop offset=".5342" stop-color="#eef2f4"/><stop offset=".7764" stop-color="#e1e7eb"/><stop offset="1" stop-color="#cfd8dd"/></linearGradient><path d="m32 12c-4.73-5.91-20.76-.874-29.061-.485-.529.024-.939.465-.939.996v40.673c0 .5.369.912.863.993 8.278 1.343 24.391-5.104 29.137.823 4.742-5.922 20.83.521 29.136-.824.495-.08.864-.493.864-.993v-40.672c0-.53-.41-.972-.941-.996-8.329-.387-24.332-5.42-29.059.485z" fill="#006dae"/><path d="m28 47v5.213c0 3.716 8 3.716 8 0 0-.725 0-5.213 0-5.213z" fill="#006dae"/><path d="m30 49v3.214c0 .404.973.786 2 .786s2-.382 2-.786v-3.214z" fill="#014d87"/><path d="m8 9.505s-1.344 1.617-4 3.269v39.078c4-2.138 5-3.981 5-3.981z" fill="#e6ebef"/><path d="m6.75 11.945c.107 6.255.08 7.51.125 13.764-.045 6.255-.018 12.51-.125 18.765-.107-6.255-.08-12.51-.125-18.765.045-6.254.018-7.509.125-13.764z" fill="#cfd8dd"/><path d="m4.5 13.945c.107 6.922.08 8.843.125 15.764-.045 6.922-.018 13.843-.125 20.765-.107-6.922-.08-13.843-.125-20.765.045-6.921.018-8.842.125-15.764z" fill="#cfd8dd"/><path d="m6 10.945c.107 4.922.08 7.843.125 12.764-.045 4.922-.018 9.843-.125 14.765-.107-4.922-.082-9.843-.125-14.765.045-4.921.018-7.842.125-12.764z" fill="#cfd8dd"/><path d="m56 9.505s1.344 1.617 4 3.269v39.078c-4-2.138-5-3.981-5-3.981z" fill="#e6ebef"/><path d="m59.199 48.474c-.107-6.255-.08-12.51-.125-18.765.045-6.254.018-10.509.125-16.764.107 6.255.082 10.51.125 16.764-.045 6.255-.017 12.51-.125 18.765z" fill="#cfd8dd"/><path d="m56.5 45.474c-.107-6.422-.08-12.843-.125-19.265.045-6.421.018-7.842.125-14.264.107 6.422.08 7.843.125 14.264-.045 6.422-.018 12.843-.125 19.265z" fill="#cfd8dd"/><path d="m58.25 46.764c-.107-4.921-.08-9.843-.125-14.764.045-4.921.018-9.843.125-14.764.107 4.921.08 9.843.125 14.764-.045 4.921-.018 9.843-.125 14.764z" fill="#cfd8dd"/><path d="m56 46.867c-17-5.773-31-5.773-48 0l-4 4.984c8.721 1.438 20.229-3.54 28 .257 7.767-3.797 19.279 1.181 28-.257z" fill="#013366"/><path d="m56 46.867c-17-5.773-31-5.773-48 0l-4 4.984c6.768 1.115 18.657-4.566 28 0 9.341-4.566 21.232 1.115 28 0z" fill="#b3c2c6"/><path d="m8 50.5c2.021-.254 4.018-.666 6.024-1.024 2.002-.37 4.014-.725 6.047-.933 2.033-.18 4.092-.212 6.121.055 2.029.254 4.023.854 5.809 1.847-1.83-.905-3.816-1.439-5.828-1.682-2.018-.237-4.059-.176-6.078.029-2.023.178-4.035.504-6.041.847-2.009.348-4.021.703-6.054.861z" fill="#99a8ae"/><path d="m14 49.028c2.994-.645 6.043-1.109 9.121-1.152 1.539.016 3.08.16 4.584.495 1.504.323 2.963.866 4.295 1.629-1.377-.675-2.838-1.155-4.33-1.467-1.496-.304-3.023-.418-4.549-.407-3.058-.047-6.089.469-9.121.902z" fill="#99a8ae"/><path d="m18 47.468c2.357-.369 4.748-.701 7.156-.543 1.199.095 2.393.308 3.541.666 1.149.354 2.251.843 3.303 1.409-2.186-.967-4.484-1.688-6.861-1.826-1.184-.097-2.375-.057-3.564.017-1.192.076-2.383.185-3.575.277z" fill="#99a8ae"/><path d="m56 50.75c-2.043-.188-4.057-.6-6.064-.999-2.01-.394-4.023-.769-6.055-.974-2.027-.231-4.082-.296-6.104-.016-2.016.284-3.992.913-5.777 1.925 1.734-1.097 3.718-1.794 5.753-2.089 2.037-.312 4.111-.275 6.152-.068 2.043.234 4.057.639 6.063 1.06 2.009.409 4.003.877 6.032 1.161z" fill="#99a8ae"/><path d="m50 49.068c-3.037-.511-6.08-1.101-9.156-1.049-1.533-.008-3.07.131-4.564.485-1.49.36-2.936.917-4.279 1.674 1.294-.841 2.736-1.462 4.24-1.836 1.502-.385 3.053-.555 4.602-.572 3.1.038 6.163.578 9.157 1.298z" fill="#99a8ae"/><path d="m46 47.285c-1.199-.113-2.396-.243-3.594-.333-1.197-.087-2.398-.13-3.588-.017-2.391.168-4.678 1.009-6.818 2.101 1.027-.627 2.109-1.176 3.251-1.58 1.141-.409 2.338-.659 3.547-.77 2.429-.191 4.835.19 7.202.599z" fill="#99a8ae"/><path d="m8 9.505v37.362c11.973 0 16.049-3.595 24 .996v-36.292c-5.216-5.133-16.517-.767-24-2.066z" fill="url(#a)"/><path d="m32 11.571v36.292c7.951-4.591 12.025-.996 24-.996v-37.362c-7.482 1.299-18.785-3.067-24 2.066z" fill="url(#b)"/><g fill="#99a8ae"><path d="m54 11.709c-6.463.354-14.818-2.072-20 .474v.5c5.182-2.546 13.537-.119 20-.474z"/><path d="m54 14.211c-6.463.354-14.818-2.072-20 .474v.5c5.182-2.546 13.537-.119 20-.474z"/><path d="m54 16.713c-6.463.354-14.818-2.072-20 .474v.5c5.182-2.546 13.537-.119 20-.474z"/><path d="m54 19.215c-6.463.354-14.818-2.072-20 .474v.5c5.182-2.546 13.537-.119 20-.474z"/><path d="m54 21.717c-6.463.354-14.818-2.072-20 .474v.5c5.182-2.546 13.537-.119 20-.474z"/><path d="m54 24.219c-6.463.354-14.818-2.072-20 .474v.5c5.182-2.546 13.537-.119 20-.474z"/><path d="m54 26.721c-6.463.354-14.818-2.072-20 .474v.5c5.182-2.546 13.537-.119 20-.474z"/><path d="m54 29.223c-6.463.354-14.818-2.072-20 .474v.5c5.182-2.546 13.537-.119 20-.474z"/><path d="m54 31.725c-6.463.354-14.818-2.072-20 .474v.5c5.182-2.546 13.537-.119 20-.474z"/><path d="m54 34.227c-6.463.354-14.818-2.072-20 .474v.5c5.182-2.546 13.537-.119 20-.474z"/><path d="m54 36.729c-6.463.354-14.818-2.072-20 .474v.5c5.182-2.546 13.537-.119 20-.474z"/><path d="m54 39.23c-6.463.354-14.818-2.072-20 .474v.5c5.182-2.546 13.537-.119 20-.474z"/><path d="m54 41.732c-6.463.354-14.818-2.072-20 .474v.5c5.182-2.546 13.537-.119 20-.474z"/><path d="m54 44.234c-6.463.354-14.818-2.072-20 .474v.5c5.182-2.546 13.537-.119 20-.474z"/><path d="m10 11.709c6.461.354 14.817-2.072 20 .474v.5c-5.184-2.546-13.539-.119-20-.474z"/><path d="m10 14.211c6.461.354 14.817-2.072 20 .474v.5c-5.184-2.546-13.539-.119-20-.474z"/><path d="m10 16.713c6.461.354 14.817-2.072 20 .474v.5c-5.184-2.546-13.539-.119-20-.474z"/><path d="m10 19.215c6.461.354 14.817-2.072 20 .474v.5c-5.184-2.546-13.539-.119-20-.474z"/><path d="m10 21.717c6.461.354 14.817-2.072 20 .474v.5c-5.184-2.546-13.539-.119-20-.474z"/><path d="m10 24.219c6.461.354 14.817-2.072 20 .474v.5c-5.184-2.546-13.539-.119-20-.474z"/><path d="m10 26.721c6.461.354 14.817-2.072 20 .474v.5c-5.184-2.546-13.539-.119-20-.474z"/><path d="m10 29.223c6.461.354 14.817-2.072 20 .474v.5c-5.184-2.546-13.539-.119-20-.474z"/><path d="m10 31.725c6.461.354 14.817-2.072 20 .474v.5c-5.184-2.546-13.539-.119-20-.474z"/><path d="m10 34.227c6.461.354 14.817-2.072 20 .474v.5c-5.184-2.546-13.539-.119-20-.474z"/><path d="m10 36.729c6.461.354 14.817-2.072 20 .474v.5c-5.184-2.546-13.539-.119-20-.474z"/><path d="m10 39.23c6.461.354 14.817-2.072 20 .474v.5c-5.184-2.546-13.539-.119-20-.474z"/><path d="m10 41.732c6.461.354 14.817-2.072 20 .474v.5c-5.184-2.546-13.539-.119-20-.474z"/><path d="m10 44.234c6.461.354 14.817-2.072 20 .474v.5c-5.184-2.546-13.539-.119-20-.474z"/></g><path d="m33.959 52.894c-2.091-3.484-2.927-13.607-2.484-39.951.016-.883.025-1.484.025-1.734 0-.277 1-.277 1 0 0 .253-.01.859-.025 1.752-.549 32.576.97 37.136 2.341 39.419.143.237-.574-.056-.574-.056s-.189.726-.283.57z" fill="#e81c27"/></svg>