<svg enable-background="new 0 0 64 64" height="64" viewBox="0 0 64 64" width="64" xmlns="http://www.w3.org/2000/svg" xmlns:xlink="http://www.w3.org/1999/xlink"><linearGradient id="a" gradientUnits="userSpaceOnUse" x1="15.7593" x2="21.6673" y1="41.8916" y2="38.4806"><stop offset=".2182" stop-color="#013366"/><stop offset="1" stop-color="#006dae"/></linearGradient><linearGradient id="b" gradientUnits="userSpaceOnUse" x1="16.5947" x2="20.3432" y1="15.5337" y2="19.1535"><stop offset=".2182" stop-color="#014f27"/><stop offset="1" stop-color="#529320"/></linearGradient><linearGradient id="c" gradientUnits="userSpaceOnUse" x1="13.1597" x2="59.8994" y1="19.7915" y2="19.7915"><stop offset="0" stop-color="#cf0000"/><stop offset="1" stop-color="#ff000e"/></linearGradient><linearGradient id="d" gradientUnits="userSpaceOnUse" x1="20.0146" x2="25.111" y1="27.7822" y2="24.8398"><stop offset=".2182" stop-color="#870000"/><stop offset=".4878" stop-color="#9d0000"/><stop offset=".7787" stop-color="#ad0000"/><stop offset="1" stop-color="#b30000"/></linearGradient><path d="m53.872 40.148 6.781 6.944s-22.445 11.146-29.988 14.741c-1.224.585-1.973-.567-1.973-.567-5.926-16.252 25.18-21.118 25.18-21.118z" fill="#013366"/><path d="m29.906 53.199s-2.548 1.79-1.69 5.784c.546 2.543 1.348 2.512 2.661 1.862 7.902-3.912 28.486-13.753 28.486-13.753s-1.6-4.355 1.291-7.318z" fill="#e6ebef"/><path d="m28.04 57.676 29.788-13.361-29.76 12.868c-.017.165-.018.33-.028.493z" fill="#bec3cf"/><path d="m58.173 42.159-29.397 12.013c-.069.171-.144.339-.21.51z" fill="#bec3cf"/><path d="m57.657 45.372-29.506 13.164c.024.147.054.297.064.447z" fill="#bec3cf"/><path d="m28.208 56.206 29.791-12.962-29.755 12.476c-.006.162-.022.325-.036.486z" fill="#bec3cf"/><path d="m28.421 59.81s.037.251.174.453l29.404-13.955z" fill="#bec3cf"/><path d="m28.984 60.894c.078.188.395.278.395.278l29.174-14.279z" fill="#bec3cf"/><path d="m34.737 12 27.262 27.564-31.803 13.689-22.386-33.596z" fill="#0fb4d4"/><path d="m28.693 61.267c-1.492-6.598 1.503-8.014 1.503-8.014l-22.018-33.688c-4.203 1.283-1.804 6.119-.608 8.14 5.847 9.89 21.123 33.562 21.123 33.562z" fill="url(#a)"/><path d="m61.999 17.113-30.542-9.49-28.634 22.869c-.83.514-1.523 4.636.484 5.778.485.277 35.829 17.73 35.829 17.73z" fill="#014f27"/><path d="m3.456 30.812c-.792-.317-1.16 4.062-.23 4.79.478.373 35.611 17.394 35.611 17.394l-.177-8.716s-30.432-11.555-35.204-13.468z" fill="#e6ebef"/><path d="m60.862 11.941-22.18 31.985c-1.164 2.551-1.592 6.48.154 9.068l22.025-35.688c-.637-1.876-.388-4.786.001-5.365z" fill="#cfd8dd"/><g fill="#bec3cf"><path d="m38.075 51.34c.044.139.084.281.138.418l21.999-35.284z"/><path d="m37.688 48.97c.006.2.004.4.021.6l22.254-34.544z"/><path d="m37.747 47.393c-.025.234-.039.47-.053.705l22.518-34.329z"/><path d="m60.055 15.779-22.24 34.484c.027.168.045.339.085.504z"/><path d="m38.436 52.25c.056.115.119.226.181.337l21.846-35.499z"/><path d="m2.736 32.367c-.028.104-.033.333-.033.333l34.386 15.409z"/><path d="m2.862 31.646c-.049.224-.065.314-.065.314l34.134 15.061z"/><path d="m2.676 33.155c-.027.177.015.334.015.334l34.562 15.728z"/><path d="m2.823 34.818s0 .269.134.4l34.628 16.272z"/><path d="m2.695 33.942c-.019.211.036.372.036.372l34.687 16.027z"/><path d="m2.977 31.267 33.795 14.683-33.66-14.961c-.135.126-.135.278-.135.278z"/></g><path d="m35.918 3.025c-1.396-.384-32.462 27.787-32.462 27.787l35.127 15.144 23.416-35.709z" fill="#92c932"/><path d="m33.376 2.323c-1.393-.388-2.107-.599-3.147.396-4.888 4.677-25.327 24.992-26.144 25.78-1.258 1.214-1.877 2.313-2.053 4.141 0 0 .791-2.116 1.423-1.828 1.366.622 2.685 1.158 3.957 1.707l28.506-29.494z" fill="url(#b)"/><path d="m52.89 26.279 5.849 5.99s-19.358 9.613-25.866 12.714c-1.055.505-1.701-.489-1.701-.489-5.112-14.019 21.718-18.215 21.718-18.215z" fill="#7a0000"/><path d="m32.218 37.536s-2.197 1.544-1.458 4.989c.472 2.193 1.163 2.167 2.293 1.605 6.817-3.373 24.572-11.861 24.572-11.861s-1.381-3.757 1.112-6.313z" fill="#e6ebef"/><path d="m30.609 41.398 25.693-11.526-25.669 11.1c-.014.142-.015.285-.024.426z" fill="#bec3cf"/><path d="m56.6 28.014-25.356 10.361c-.06.147-.123.292-.182.439z" fill="#bec3cf"/><path d="m56.154 30.784-25.45 11.354c.021.128.047.256.056.387z" fill="#bec3cf"/><path d="m30.754 40.13 25.694-11.181-25.663 10.761c-.005.14-.019.279-.031.42z" fill="#bec3cf"/><path d="m30.937 43.238s.033.216.15.39l25.361-12.035z" fill="#bec3cf"/><path d="m31.423 44.173c.066.161.34.24.34.24l25.164-12.316z" fill="#bec3cf"/><path d="m36.386 2 23.513 23.776-27.431 11.807-19.308-28.979z" fill="url(#c)"/><path d="m31.171 44.494c-1.287-5.689 1.297-6.911 1.297-6.911l-18.991-29.058c-3.625 1.108-1.556 5.278-.525 7.021 5.044 8.53 18.219 28.948 18.219 28.948z" fill="url(#d)"/></svg>