<svg enable-background="new 0 0 64 64" height="64" viewBox="0 0 64 64" width="64" xmlns="http://www.w3.org/2000/svg" xmlns:xlink="http://www.w3.org/1999/xlink"><linearGradient id="a" gradientUnits="userSpaceOnUse" x1="32.0005" x2="32.0005" y1="52" y2="12.0005"><stop offset="0" stop-color="#5b666e"/><stop offset=".0078" stop-color="#58626a"/><stop offset=".0596" stop-color="#464a55"/><stop offset=".1147" stop-color="#3a3947"/><stop offset=".175" stop-color="#322f3e"/><stop offset=".25" stop-color="#302c3b"/><stop offset=".75" stop-color="#302c3b"/><stop offset=".825" stop-color="#322f3e"/><stop offset=".8853" stop-color="#3a3947"/><stop offset=".9404" stop-color="#464a55"/><stop offset=".9922" stop-color="#58626a"/><stop offset="1" stop-color="#5b666e"/></linearGradient><linearGradient id="b" gradientUnits="userSpaceOnUse" x1="32.0044" x2="32.0044" y1="33.4551" y2="21.4565"><stop offset="0" stop-color="#9be022"/><stop offset=".4073" stop-color="#99de22"/><stop offset=".6075" stop-color="#93d622"/><stop offset=".7625" stop-color="#89c922"/><stop offset=".8936" stop-color="#7ab723"/><stop offset="1" stop-color="#69a123"/></linearGradient><linearGradient id="c"><stop offset="0" stop-color="#616d75"/><stop offset=".0007360131" stop-color="#616d75"/><stop offset=".0541" stop-color="#515562"/><stop offset=".1106" stop-color="#454455"/><stop offset=".1727" stop-color="#3e3a4d"/><stop offset=".25" stop-color="#3c374a"/><stop offset=".75" stop-color="#3c374a"/><stop offset=".8273" stop-color="#3e3a4d"/><stop offset=".8894" stop-color="#454455"/><stop offset=".9459" stop-color="#515562"/><stop offset=".9993" stop-color="#616d75"/><stop offset="1" stop-color="#616d75"/></linearGradient><linearGradient id="d" gradientUnits="userSpaceOnUse" x1="12.9946" x2="12.9946" xlink:href="#c" y1="46" y2="37.6914"/><linearGradient id="e" gradientUnits="userSpaceOnUse" x1="29.7915" x2="29.7915" xlink:href="#c" y1="46" y2="37.6914"/><linearGradient id="f" gradientUnits="userSpaceOnUse" x1="49.4199" x2="49.4199" xlink:href="#c" y1="46" y2="37.6914"/><path d="m60.9 17.161c-.763-1.883-2.204-3.167-3.873-3.792-4.879-1.826-45.176-1.826-50.055 0-1.669.625-3.11 1.908-3.873 3.792-1.466 3.621-1.466 26.056 0 29.677.763 1.885 2.204 3.168 3.873 3.793 4.879 1.826 45.176 1.826 50.055 0 1.669-.625 3.11-1.908 3.873-3.793 1.466-3.621 1.466-26.056 0-29.677z" fill="url(#a)"/><path d="m57.004 31.456c0 1.1-.9 1.999-2 1.999h-46c-1.1 0-2-.899-2-1.999v-8c0-1.1.9-2 2-2h46c1.1 0 2 .9 2 2z" fill="url(#b)"/><g fill="#014f27"><path d="m15.197 28.775c0 1.464-1.158 2.244-2.449 2.244-1.219 0-2.322-.7-2.438-2.009-.01-.155.074-.235.219-.235h.711c.135 0 .205.075.229.215.09.58.586.91 1.279.91.785 0 1.301-.425 1.301-1.125s-.516-1.125-1.301-1.125h-1.883c-.145 0-.23-.085-.221-.235l.24-3.308c.01-.135.096-.215.23-.215h3.557c.146 0 .227.08.227.225v.63c0 .145-.08.225-.227.225h-2.703l-.109 1.56h.939c1.29 0 2.399.779 2.399 2.243z"/><path d="m20.748 28.775c0 1.464-1.16 2.244-2.449 2.244-1.219 0-2.324-.7-2.439-2.009-.01-.155.076-.235.221-.235h.709c.135 0 .205.075.23.215.09.58.584.91 1.279.91.785 0 1.299-.425 1.299-1.125s-.514-1.125-1.299-1.125h-1.885c-.145 0-.229-.085-.219-.235l.24-3.308c.01-.135.094-.215.229-.215h3.559c.145 0 .225.08.225.225v.63c0 .145-.08.225-.225.225h-2.703l-.111 1.56h.939c1.291 0 2.4.779 2.4 2.243z"/><path d="m26.123 28.775c0 1.464-1.16 2.244-2.449 2.244-1.219 0-2.324-.7-2.439-2.009-.01-.155.076-.235.221-.235h.709c.135 0 .205.075.23.215.09.58.584.91 1.279.91.785 0 1.299-.425 1.299-1.125s-.514-1.125-1.299-1.125h-.439c-.146 0-.225-.08-.225-.225v-.38c0-.105.029-.19.094-.28l1.334-1.794h-2.703c-.145 0-.225-.08-.225-.225v-.63c0-.145.08-.225.225-.225h3.848c.145 0 .225.08.225.225v.6c0 .104-.029.189-.094.28l-1.309 1.749c.966.232 1.718.932 1.718 2.03z"/><path d="m27.176 28.146v-.589c0-.145.08-.225.225-.225h3.248c.145 0 .225.08.225.225v.589c0 .145-.08.225-.225.225h-3.249c-.144 0-.224-.08-.224-.225z"/><path d="m36.771 28.63c0 1.409-1.023 2.389-2.473 2.389-1.455 0-2.475-.979-2.475-2.389 0-.544.152-1.024.422-1.408l-.002-.001 2.113-3.183c.066-.1.156-.145.271-.145h.814c.18 0 .244.12.145.27l-1.414 2.081c.041-.001.082-.002.125-.002 1.451 0 2.474.979 2.474 2.388zm-1.148 0c0-.795-.564-1.299-1.324-1.299-.766 0-1.324.5-1.324 1.299s.559 1.299 1.324 1.299c.76.001 1.324-.504 1.324-1.299z"/><path d="m42.223 28.63c0 1.409-1.025 2.389-2.475 2.389-1.453 0-2.473-.979-2.473-2.389 0-.544.15-1.024.422-1.408l-.002-.001 2.113-3.183c.064-.1.154-.145.27-.145h.814c.18 0 .244.12.145.27l-1.412 2.081c.041-.001.082-.002.123-.002 1.449 0 2.475.979 2.475 2.388zm-1.151 0c0-.795-.564-1.299-1.324-1.299-.764 0-1.324.5-1.324 1.299s.561 1.299 1.324 1.299c.76.001 1.324-.504 1.324-1.299z"/><path d="m47.697 28.775c0 1.464-1.16 2.244-2.449 2.244-1.219 0-2.322-.7-2.438-2.009-.01-.155.074-.235.219-.235h.711c.135 0 .203.075.229.215.09.58.586.91 1.279.91.785 0 1.301-.425 1.301-1.125s-.516-1.125-1.301-1.125h-1.883c-.146 0-.23-.085-.221-.235l.24-3.308c.01-.135.096-.215.23-.215h3.557c.146 0 .225.08.225.225v.63c0 .145-.078.225-.225.225h-2.703l-.109 1.56h.939c1.29 0 2.399.779 2.399 2.243z"/><path d="m53.697 28.785v.62c0 .145-.08.225-.225.225h-.576v1.034c0 .145-.08.225-.225.225h-.709c-.145 0-.225-.08-.225-.225v-1.034h-3.264c-.145 0-.225-.08-.225-.225v-.699c0-.1.02-.185.064-.28l2.264-4.373c.055-.11.141-.16.266-.16h.764c.17 0 .24.11.16.27l-2.273 4.397h2.244v-1.594c0-.145.08-.225.225-.225h.709c.145 0 .225.08.225.225v1.594h.576c.145.001.225.081.225.225z"/></g><path d="m18.116 46.5h-2.442c-1.285 0-3.01-.711-3.927-1.619l-5.395-5.361c-.74-.732-.659-1.309-.545-1.586s.462-.742 1.503-.742h8.715c1.39 0 2.745 1.057 3.085 2.406l1.071 4.252c.172.682.047 1.359-.344 1.861s-1.018.789-1.721.789z" fill="#1a1626"/><path d="m35.195 46.5h-8.715c-1.39 0-2.746-1.057-3.087-2.406l-1.07-4.252c-.172-.682-.046-1.361.345-1.861.391-.502 1.018-.789 1.721-.789h8.715c1.369 0 2.753 1.08 3.086 2.406l1.07 4.252c.171.684.045 1.363-.347 1.863-.39.5-1.017.787-1.718.787z" fill="#1a1626"/><path d="m47.244 46.5h-2.44c-1.369 0-2.753-1.08-3.086-2.406l-1.07-4.252c-.171-.684-.045-1.363.347-1.863.391-.5 1.017-.787 1.718-.787h13.684c.862 0 1.548.428 1.788 1.115.216.617.008 1.293-.53 1.723l-6.368 5.061c-.997.79-2.772 1.409-4.043 1.409z" fill="#1a1626"/><path d="m19.695 43.971c.283 1.115-.43 2.029-1.579 2.029h-2.442c-1.148 0-2.758-.664-3.575-1.475l-5.395-5.359c-.817-.811-.544-1.475.605-1.475h8.715c1.15 0 2.319.914 2.601 2.027z" fill="url(#d)"/><path d="m36.774 43.971c.28 1.115-.43 2.029-1.579 2.029h-8.715c-1.15 0-2.32-.914-2.603-2.029l-1.069-4.252c-.281-1.113.431-2.027 1.58-2.027h8.715c1.15 0 2.321.914 2.601 2.027z" fill="url(#e)"/><path d="m16.371 41.846c0 2.092-3.136 2.092-3.136 0s3.136-2.092 3.136 0z" fill="#e81c27"/><path d="m32.982 41.846-5.505-1.377v2.754z" fill="#e6ebef"/><path d="m50.974 44.699c-.901.715-2.579 1.301-3.73 1.301h-2.44c-1.15 0-2.321-.914-2.601-2.029l-1.07-4.252c-.279-1.113.431-2.027 1.579-2.027h13.684c1.374 0 1.767 1.293.946 1.945-2.231 1.773-6.368 5.062-6.368 5.062z" fill="url(#f)"/><path d="m50.145 42.652h-5.081c-1.104 0-1.104-1.613 0-1.613h5.081c1.104 0 1.104 1.613 0 1.613z" fill="#a6e639"/></svg>