<svg enable-background="new 0 0 64 64" height="64" viewBox="0 0 64 64" width="64" xmlns="http://www.w3.org/2000/svg" xmlns:xlink="http://www.w3.org/1999/xlink"><linearGradient id="a" gradientTransform="matrix(1 0 0 -1 0 66)" gradientUnits="userSpaceOnUse" x1="34.2646" x2="34.2646" y1="7" y2="15.958"><stop offset="0" stop-color="#fff"/><stop offset=".2258" stop-color="#f5f6f7"/><stop offset=".6071" stop-color="#dbdfe2"/><stop offset="1" stop-color="#b9c2c7"/></linearGradient><linearGradient id="b" gradientUnits="userSpaceOnUse" x1="11.1357" x2="24.1414" y1="30" y2="30"><stop offset="0" stop-color="#f59e01"/><stop offset=".7" stop-color="#f9c802"/></linearGradient><linearGradient id="c"><stop offset="0" stop-color="#6e8189"/><stop offset=".1391" stop-color="#81929a"/><stop offset=".4201" stop-color="#b2bec4"/><stop offset=".5697" stop-color="#cfd8dd"/><stop offset=".6446" stop-color="#c9d3d8"/><stop offset=".7414" stop-color="#b9c4ca"/><stop offset=".8502" stop-color="#9fadb3"/><stop offset=".967" stop-color="#7a8c93"/><stop offset="1" stop-color="#6e8189"/></linearGradient><linearGradient id="d" gradientUnits="userSpaceOnUse" x1="7.9707" x2="14.3315" xlink:href="#c" y1="11.9673" y2="5.6065"/><linearGradient id="e" gradientUnits="userSpaceOnUse" x1="7.9712" x2="14.3319" xlink:href="#c" y1="21.9688" y2="15.6081"/><linearGradient id="f" gradientUnits="userSpaceOnUse" x1="7.9712" x2="14.332" xlink:href="#c" y1="31.9702" y2="25.6095"/><linearGradient id="g" gradientUnits="userSpaceOnUse" x1="7.9707" x2="14.3315" xlink:href="#c" y1="41.9717" y2="35.6108"/><linearGradient id="h" gradientUnits="userSpaceOnUse" x1="7.9707" x2="14.3315" xlink:href="#c" y1="51.9727" y2="45.6119"/><path d="m13.011 52s-2 0-2 4 2 4 2 4h6v-8z" fill="#f59e01"/><path d="m19.011 52v8h36.001s2 0 2-2v-8z" fill="#f59e01"/><path d="m18.991 53h-5.937c-.037 0-.072.001-.107.011-.221.061-.936.452-.936 2.989 0 2.331.604 2.851.873 2.967.059.025.12.033.184.033h41.449s2 0 2-2v-6.455c0-.294-.251-.525-.543-.501l-36.944 2.954c-.012.001-.026.002-.039.002z" fill="url(#a)"/><path d="m55.012 53h-36.001v-6h38.001v4c0 2-2 2-2 2z" fill="#f59e01"/><path d="m55.012 4h-42.001s-2 0-2 4v48c0-4 2-4 2-4h42.001s2 0 2-2v-44s0-2-2-2z" fill="url(#b)"/><g fill="#bec3cf"><path d="m12.248 58.041c.057.184.12.332.185.451l42.941-.226z"/><path d="m12.069 57.109c.019.164.041.315.066.453l43.239-.228z"/><path d="m12.015 56.176c.002.16.006.313.015.455l43.345-.227z"/><path d="m12.038 55.244c-.01.143-.017.295-.021.455l43.357-.228z"/><path d="m12.158 54.313c-.029.137-.053.288-.075.454l43.292-.227z"/><path d="m12.506 53.383c-.074.113-.147.265-.214.451l43.082-.227z"/></g><path d="m15.012 7.5c1.998 0 1.998 3 0 3-2.002 0-2.002-3 0-3z" fill="#302c3b"/><path d="m7.011 8.876c-.272 3.082 2.068 4.271 4 4.271v-1.844c-1.155 0-2.266-.959-2.122-2.232.313-2.751 5.122-2.799 5.122-.071 0 1.111 2 1.111 2 0 0-5.454-8.553-5.187-9-.124z" fill="url(#d)"/><path d="m15.012 17.502c1.998 0 1.998 3 0 3-2.002 0-2.002-3 0-3z" fill="#302c3b"/><path d="m7.011 18.877c-.272 3.082 2.068 4.271 4 4.271v-1.844c-1.155 0-2.266-.959-2.122-2.232.313-2.75 5.122-2.799 5.122-.07 0 1.111 2 1.111 2 0 0-5.455-8.553-5.188-9-.125z" fill="url(#e)"/><path d="m15.012 27.503c1.998 0 1.998 3 0 3-2.002 0-2.002-3 0-3z" fill="#302c3b"/><path d="m7.011 28.879c-.272 3.082 2.068 4.271 4 4.271v-1.844c-1.155 0-2.266-.959-2.122-2.232.313-2.75 5.122-2.798 5.122-.07 0 1.111 2 1.111 2 0 0-5.455-8.553-5.189-9-.125z" fill="url(#f)"/><path d="m15.012 37.504c1.998 0 1.998 3 0 3-2.002 0-2.002-3 0-3z" fill="#302c3b"/><path d="m7.011 38.881c-.272 3.082 2.068 4.27 4 4.27v-1.844c-1.155 0-2.266-.959-2.122-2.232.313-2.75 5.122-2.797 5.122-.07 0 1.111 2 1.111 2 0 0-5.454-8.553-5.189-9-.124z" fill="url(#g)"/><path d="m15.012 47.506c1.998 0 1.998 3 0 3-2.002 0-2.002-3 0-3z" fill="#302c3b"/><path d="m7.011 48.882c-.272 3.082 2.068 4.271 4 4.271v-1.844c-1.155 0-2.266-.959-2.122-2.232.313-2.75 5.122-2.798 5.122-.07 0 1.111 2 1.111 2 0 0-5.455-8.553-5.189-9-.125z" fill="url(#h)"/><path d="m26.402 21.192v.319c0 .096-.053.148-.149.148h-2.25-.201c-.097 0-.149-.053-.149-.148v-4.605c0-.097.052-.148.149-.148h.35c.096 0 .149.052.149.148v4.138h1.952c.097 0 .149.053.149.148z" fill="#d47706"/><path d="m29.884 21.192v.319c0 .096-.053.148-.148.148h-2.442-.097c-.096 0-.148-.053-.148-.148v-4.605c0-.097.053-.148.148-.148h.5 2.004c.097 0 .148.052.148.148v.318c0 .097-.052.149-.148.149h-2.004v1.508h1.829c.097 0 .149.052.149.148v.312c0 .097-.053.149-.149.149h-1.829v1.553h2.039c.096.001.148.054.148.149z" fill="#d47706"/><path d="m35.053 19.209c0 1.36-.978 2.451-2.331 2.451h-1.803-.096c-.098 0-.149-.053-.149-.148v-4.605c0-.097.052-.148.149-.148h.498 1.4c1.354-.001 2.332 1.09 2.332 2.45zm-.627 0c0-1.035-.69-1.835-1.704-1.835h-1.4v3.67h1.4c1.013 0 1.704-.801 1.704-1.835z" fill="#d47706"/><path d="m40.44 19.284v.443 1.784c0 .096-.053.148-.149.148h-.332c-.096 0-.148-.053-.148-.148v-.564c-.368.541-1.014.801-1.729.801-1.445 0-2.504-1.128-2.504-2.539s1.066-2.539 2.539-2.539c1.039 0 1.938.618 2.268 1.493.036.104-.016.17-.121.17h-.391c-.082 0-.139-.036-.177-.11-.267-.546-.878-.923-1.579-.923-1.121 0-1.891.834-1.891 1.909 0 1.093.78 1.926 1.891 1.926.886 0 1.668-.471 1.688-1.407h-1.439c-.096 0-.148-.053-.148-.149v-.294c0-.097.053-.148.148-.148h1.926c.096-.001.148.051.148.147z" fill="#d47706"/><path d="m44.221 21.192v.319c0 .096-.053.148-.148.148h-2.443-.097c-.096 0-.148-.053-.148-.148v-4.605c0-.097.053-.148.148-.148h.5 2.004c.097 0 .148.052.148.148v.318c0 .097-.052.149-.148.149h-2.004v1.508h1.829c.097 0 .149.052.149.148v.312c0 .097-.053.149-.149.149h-1.829v1.553h2.039c.096.001.149.054.149.149z" fill="#d47706"/><path d="m48.743 21.66h-.435c-.075 0-.135-.022-.186-.084l-1.537-1.789h-.928v1.725c0 .096-.053.148-.148.148h-.351c-.097 0-.149-.053-.149-.148v-4.605c0-.097.053-.148.149-.148h.499 1.138c.843 0 1.523.681 1.523 1.523 0 .647-.426 1.212-1.021 1.42l1.528 1.773c.083.096.044.185-.082.185zm-3.085-2.466h1.138c.481 0 .876-.409.876-.913 0-.51-.395-.914-.876-.914h-1.138z" fill="#d47706"/></svg>