<svg enable-background="new 0 0 64 64" height="64" viewBox="0 0 64 64" width="64" xmlns="http://www.w3.org/2000/svg" xmlns:xlink="http://www.w3.org/1999/xlink"><linearGradient id="a" gradientUnits="userSpaceOnUse" x1="32.0005" x2="32.0005" y1="50" y2="14.0005"><stop offset="0" stop-color="#e6ebed"/><stop offset=".512" stop-color="#dbe2e5"/><stop offset="1" stop-color="#ccd5d9"/></linearGradient><linearGradient id="b" gradientUnits="userSpaceOnUse" x1="32.0005" x2="32.0005" y1="50" y2="21.2017"><stop offset="0" stop-color="#e6ebed"/><stop offset=".2602" stop-color="#e3e9eb"/><stop offset=".4539" stop-color="#dae1e4"/><stop offset=".5758" stop-color="#cfd8dd"/></linearGradient><linearGradient id="c" gradientUnits="userSpaceOnUse" x1="32.0005" x2="32.0005" y1="37.7422" y2="-51.6079"><stop offset="0" stop-color="#b9c2c7"/><stop offset=".0456" stop-color="#c2cacf"/><stop offset=".2033" stop-color="#dce2e5"/><stop offset=".297" stop-color="#e6ebed"/></linearGradient><linearGradient id="d" gradientUnits="userSpaceOnUse" x1="32.0005" x2="32.0005" y1="38.5879" y2="14.0005"><stop offset="0" stop-color="#e6ebed"/><stop offset=".582" stop-color="#e3e9ec"/><stop offset="1" stop-color="#dae3e8"/></linearGradient><linearGradient id="e" gradientUnits="userSpaceOnUse" x1="31.9995" x2="31.9995" y1="46" y2="22.0005"><stop offset="0" stop-color="#0194d6"/><stop offset="1" stop-color="#0fb4d4"/></linearGradient><path d="m2 14h60v36h-60z" fill="url(#a)"/><path d="m32 20-30 30h60z" fill="#99a8ae"/><path d="m32 21.201-30 28.799h60z" fill="url(#b)"/><path d="m36.625 31.877v4.385l25.375-22.262h-60l25.042 21.971v-4.094z" fill="#99a8ae"/><path d="m30.713 38.119-28.713-24.119h60l-28.715 24.119c-.744.625-1.828.625-2.572 0z" fill="url(#c)"/><path d="m30.713 38.119-28.713-24.119h60l-28.715 24.119c-.744.625-1.828.625-2.572 0z" fill="url(#d)"/><path d="m37.55 44.76c-2.129.928-3.973 1.24-6.49 1.24-5.885 0-11.061-4.102-11.061-10.861 0-7.035 5.283-13.139 13.258-13.139 6.277 0 10.742 4.174 10.742 9.967 0 5.068-2.904 8.242-6.734 8.242-1.666 0-2.873-.863-3.049-2.656h-.072c-1.133 1.723-2.693 2.656-4.607 2.656-2.271 0-3.973-1.691-3.973-4.518 0-4.242 3.229-8.035 8.334-8.035 1.559 0 3.332.379 4.184.826l-1.064 6.416c-.32 2.033-.072 2.963.922 3 1.523.068 3.439-1.83 3.439-5.83 0-4.516-2.979-7.965-8.475-7.965-5.459 0-10.176 4.104-10.176 10.725 0 5.793 3.759 9.037 9.041 9.037 1.809 0 3.758-.385 5.176-1.072zm-3.121-14.242c-.285-.068-.674-.139-1.099-.139-2.339 0-4.186 2.242-4.186 4.896 0 1.313.604 2.139 1.739 2.139 1.346 0 2.729-1.619 3.014-3.619z" fill="url(#e)"/></svg>