<svg enable-background="new 0 0 64 64" height="64" viewBox="0 0 64 64" width="64" xmlns="http://www.w3.org/2000/svg" xmlns:xlink="http://www.w3.org/1999/xlink"><linearGradient id="a" gradientUnits="userSpaceOnUse" x1="26.9995" x2="41" y1="52" y2="52"><stop offset=".1697" stop-color="#9e6c48"/><stop offset=".348" stop-color="#996948"/><stop offset=".55" stop-color="#8c6148"/><stop offset=".7394" stop-color="#785647"/></linearGradient><radialGradient id="b" cx="30.6416" cy="13.7095" gradientTransform="matrix(-.0878 -.9737 4.9807 -.4291 -34.9507 53.2923)" gradientUnits="userSpaceOnUse" r="11.3679"><stop offset="0" stop-color="#abbdc5"/><stop offset=".2599" stop-color="#a7b8c0"/><stop offset=".5664" stop-color="#9aaab2"/><stop offset=".8952" stop-color="#86949a"/><stop offset="1" stop-color="#7e8b91"/></radialGradient><linearGradient id="c" gradientUnits="userSpaceOnUse" x1="17.3726" x2="17.3726" y1="48.3242" y2="7.7036"><stop offset="0" stop-color="#7e8b91"/><stop offset=".1472" stop-color="#859399"/><stop offset="1" stop-color="#abbdc5"/></linearGradient><linearGradient id="d" gradientTransform="matrix(-1 0 0 -1 590.4238 361.4414)" gradientUnits="userSpaceOnUse" x1="572.7656" x2="572.7656" y1="346.3828" y2="353.5566"><stop offset="0" stop-color="#1a1626" stop-opacity="0"/><stop offset=".9394" stop-color="#1a1626" stop-opacity=".15"/></linearGradient><radialGradient id="e" cx="574.0596" cy="350.8477" gradientTransform="matrix(.0287 -.9996 9.9959 .2871 -3507.1455 483.701)" gradientUnits="userSpaceOnUse" r="2.8891"><stop offset=".0909" stop-color="#6e8189"/><stop offset=".2659" stop-color="#677880"/><stop offset=".5561" stop-color="#555e69"/><stop offset=".9236" stop-color="#373544"/><stop offset="1" stop-color="#302c3b"/></radialGradient><radialGradient id="f" cx="35.6309" cy="67.335" gradientTransform="matrix(1 0 0 1.1667 0 -32.796)" gradientUnits="userSpaceOnUse" r="1.5775"><stop offset=".0909" stop-color="#cfd8dd"/><stop offset=".5899" stop-color="#a0abb0"/><stop offset="1" stop-color="#7e8a8f"/></radialGradient><linearGradient id="g" gradientUnits="userSpaceOnUse" x1="18.1084" x2="16.0348" y1="40.7881" y2="29.0281"><stop offset="0" stop-color="#abbdc5"/><stop offset="1" stop-color="#6e8189"/></linearGradient><linearGradient id="h" gradientTransform="matrix(-.00000004 1 -1 -.00000004 396.8785 393.6823)" gradientUnits="userSpaceOnUse" x1="-359.8916" x2="-359.8916" y1="361.2754" y2="336.5391"><stop offset="0" stop-color="#cf0000"/><stop offset="1" stop-color="#ff000e"/></linearGradient><linearGradient id="i" gradientUnits="userSpaceOnUse" x1="38.6045" x2="37.6086" y1="35.6436" y2="29.3557"><stop offset=".8303" stop-color="#302c3b"/><stop offset=".8747" stop-color="#343240"/><stop offset=".9346" stop-color="#3e434f"/><stop offset="1" stop-color="#4e5e67"/></linearGradient><path d="m27 42h14v20h-14z" fill="url(#a)"/><path d="m45.816 6c-8.937 0-28.686 1.027-28.686 1.027l16.184 41.973 28.686-6.062v-22.213c0-8.7-7.246-14.725-16.184-14.725z" fill="url(#b)"/><path d="m36.986 48.342c-.877.438-3.672.658-3.672.658s-.51-3.583 0-6.875c.613 2.354 2.252.987 3.676 1.761 1.641.89 1.406 3.75-.004 4.456z" fill="#687a82"/><path d="m17.13 7.027c-8.937 0-15.13 7.055-15.13 15.754v23.824l31.314 2.395v-26.219c0-8.699-7.246-15.754-16.184-15.754z" fill="#6e8189"/><path d="m16.845 7.703c-8.627 0-14.568 6.836-14.568 15.27v23.295l30.191 2.057v-25.352c0-8.434-6.994-15.27-15.623-15.27z" fill="url(#c)"/><path d="m19.494 12.791c0-1.688 0-4.906 0-4.906l-3.672.811v4.096c0 3.022 3.672 3.022 3.672-.001z" fill="url(#d)"/><path d="m15.884 13.68c1.049 0 1.771-.832 1.771-1.855 0-1.688.828-3.906 1.82-3.906 0 0-2.188-.412-3.523-.189-.986.164-1.969 2.221-1.969 4.096.001 1.022.852 1.854 1.901 1.854z" fill="url(#e)"/><path d="m37.078 46.171c0 1.999-2.572 1.999-2.572 0 0-2.001 2.572-2.001 2.572 0z" fill="url(#f)"/><path d="m27.164 39.18-.047-.002-20.191-1.36c-.402-.027-.732-.378-.732-.782v-5.661c0-.401.326-.728.727-.728l20.225.966c.406.02.736.366.736.773v6.076c0 .194-.074.376-.209.511-.136.133-.316.207-.509.207zm-20.233-8.033c-.139 0-.238.1-.238.227v5.661c0 .145.123.274.268.284l20.188 1.36.016.25v-.25c.061 0 .115-.021.154-.062.041-.04.063-.096.063-.156v-6.076c0-.142-.119-.268-.26-.273z" fill="url(#g)"/><g fill="#6e8189"><path d="m13.443 23.037-.01 5.836c0 .119-.066.182-.191.176l-.443-.021c-.121-.007-.188-.075-.188-.195l.002-4.631-1.652 3.577c-.043.099-.111.134-.213.129l-.395-.017c-.104-.003-.17-.047-.213-.146l-1.635-3.632.031 4.534c.002.117-.063.179-.178.173l-.424-.019c-.115-.006-.178-.073-.18-.19l-.047-5.67c-.002-.118.061-.183.18-.181l.426.007.193.003c.102.001.168.04.211.144l1.828 4.064 1.836-4.005c.045-.104.115-.142.219-.141l.391.006.26.004c.125.003.192.073.192.195z"/><path d="m19.75 29.352-.52-.025c-.111-.004-.191-.062-.23-.167l-.48-1.276-2.896-.115-.438 1.217c-.035.098-.111.148-.217.144l-.496-.023c-.141-.008-.203-.093-.158-.222l2.146-5.833c.035-.099.115-.156.225-.154l.643.01c.109.004.191.063.23.162l2.354 6.071c.049.136-.015.216-.163.211zm-1.532-2.267-1.201-3.188-1.117 3.104z"/><path d="m20.974 22.963.486.007c.135.002.209.075.209.201l.018 6.076c0 .127-.072.191-.207.185l-.48-.023c-.133-.006-.205-.079-.205-.202l-.027-6.05c-.001-.128.071-.197.206-.194z"/><path d="m27.087 29.068-.002.427c-.002.129-.078.195-.217.188l-3.221-.15-.283-.013c-.135-.006-.209-.078-.209-.204v-6.12c0-.128.074-.198.211-.195l.5.006c.137.003.211.075.211.205l-.008 5.527 2.803.121c.141.005.217.078.215.208z"/></g><path d="m60.34 40.001v-13.804l-22.736 4.071c-2.666 0-2.666 4 0 4l16.674-3.166v10.281z" fill="url(#h)"/><path d="m41.129 28.904-6.35 7.345-.779.137v-6.946l7.129-.968z" fill="#1a1626"/><path d="m41.129 28.904-6.647.947.291.296.006 6.102 6.739-1.176-.024-5.941z" fill="url(#i)"/></svg>