<svg enable-background="new 0 0 64 64" height="64" viewBox="0 0 64 64" width="64" xmlns="http://www.w3.org/2000/svg" xmlns:xlink="http://www.w3.org/1999/xlink"><linearGradient id="a" gradientUnits="userSpaceOnUse" x1="45.3428" x2="45.3428" y1="62" y2="16.1846"><stop offset="0" stop-color="#b3815d"/><stop offset=".2175" stop-color="#bf8c66"/><stop offset=".6874" stop-color="#d49e75"/><stop offset="1" stop-color="#dba57b"/></linearGradient><linearGradient id="b" gradientUnits="userSpaceOnUse" x1="31.9004" x2="31.9004" y1="31.561" y2="2.0005"><stop offset="0" stop-color="#ebb68d"/><stop offset=".3182" stop-color="#e4af87"/><stop offset=".7963" stop-color="#cf9c77"/><stop offset="1" stop-color="#c4926e"/></linearGradient><linearGradient id="c" gradientUnits="userSpaceOnUse" x1="8.2461" x2="28.7284" y1="48.8721" y2="28.3898"><stop offset="0" stop-color="#e0b18b"/><stop offset=".3523" stop-color="#e6b690"/><stop offset=".8155" stop-color="#f6c49c"/><stop offset="1" stop-color="#ffcba3"/></linearGradient><linearGradient id="d"><stop offset="0" stop-color="#785647"/><stop offset=".2003" stop-color="#7f5c4b"/><stop offset=".5021" stop-color="#946c55"/><stop offset=".8662" stop-color="#b68767"/><stop offset="1" stop-color="#c4926e"/></linearGradient><linearGradient id="e" gradientUnits="userSpaceOnUse" x1="16.5952" x2="50.0303" xlink:href="#d" y1="15.2954" y2="15.2954"/><linearGradient id="f" gradientUnits="userSpaceOnUse" x1="47.4072" x2="47.4072" y1="35.3027" y2="21.0479"><stop offset="0" stop-color="#785647"/><stop offset=".1593" stop-color="#896450"/><stop offset=".5078" stop-color="#a97d60"/><stop offset=".8005" stop-color="#bd8c6a"/><stop offset="1" stop-color="#c4926e"/></linearGradient><linearGradient id="g" gradientUnits="userSpaceOnUse" x1="48.0361" x2="46.2028" xlink:href="#d" y1="52.4277" y2="47.1769"/><path d="m31.9 31.561c-2.733 4.464 0 30.439 0 30.439 2.081 0 25.53-15.406 26.282-16.238.91-1.012 2.553-28.359 1.453-29.578 0 0-23.75 8.871-27.735 15.377z" fill="url(#a)"/><path d="m31.9 2c-1.215 0-26.344 12.627-27.734 14.168 0 0 8.891 14.023 27.734 15.393l27.735-15.377c-1.772-1.967-26.416-14.184-27.735-14.184z" fill="url(#b)"/><path d="m31.9 31.561 27.735-15.377c-2.985 1.092-20.338 10.436-27.735 15.377z" fill="#9e6c49"/><path d="m4.166 16.168c-.701.775 1.008 29.562 1.65 30.273.455.504 23.535 15.559 26.084 15.559v-30.439z" fill="url(#c)"/><path d="m50.027 21.047c-11.984-6.678-28-14.51-28-14.51l-5.432 2.734s15.205 7.51 27.991 14.781c1.529-.014 5.572-1.37 5.441-3.005z" fill="url(#e)"/><path d="m19.494 7.813s15.129 7.549 27.913 14.82c-12.659-7.617-27.913-14.82-27.913-14.82z" fill="#1a1626" opacity=".1"/><path d="m50.027 21.047s-2.467 1.676-5.441 3.006c.176 4.898.031 11.25.031 11.25l5.449-3.375c0-.001.391-5.308-.039-10.881z" fill="url(#f)"/><path d="m50.229 46.439s-2.268 1.406-5.34 3.229c-.034 3.02-.307 5.133-.307 5.133l5.484-3.523c0-.001.223-2.026.163-4.839z" fill="url(#g)"/><path d="m5.925 19.731 6.237 3.486.314 11.168-6.236-3.492z" fill="#f2f5f7"/><g fill="#4e5e67"><path d="m6.708 24.838v.342l4.954 2.773v-.346z"/><path d="m7.056 30.429-.129-4.555-.234-.135.129 4.555z"/><path d="m7.267 30.574-.129-4.556-.082-.071.129 4.555z"/><path d="m7.783 30.845-.129-4.555-.235-.135.129 4.555z"/><path d="m7.994 30.99-.129-4.556-.082-.071.129 4.555z"/><path d="m8.509 31.261-.129-4.555-.234-.135.129 4.555z"/><path d="m8.72 31.406-.129-4.556-.082-.071.129 4.555z"/><path d="m9.083 31.614-.128-4.556-.082-.071.128 4.555z"/><path d="m9.599 31.885-.129-4.555-.234-.135.129 4.555z"/><path d="m9.81 32.03-.129-4.556-.082-.071.129 4.555z"/><path d="m10.326 32.301-.129-4.555-.235-.135.129 4.556z"/><path d="m10.537 32.446-.129-4.556-.082-.071.129 4.556z"/><path d="m10.9 32.654-.129-4.556-.082-.071.129 4.556z"/><path d="m11.263 32.862-.129-4.556-.082-.071.129 4.556z"/><path d="m11.779 33.133-.129-4.555-.234-.135.128 4.556z"/><path d="m6.66 22.475c-.004-.025.002-.036.014-.03l.059.034c.01.006.016.021.016.045.008.078.037.132.08.156.047.026.066-.008.064-.069-.004-.078-.041-.134-.086-.194-.068-.095-.15-.202-.158-.434-.008-.208.061-.275.137-.231s.15.184.164.4c.002.027-.004.037-.014.03l-.059-.033c-.01-.006-.016-.021-.018-.046-.008-.073-.033-.122-.068-.143s-.057.012-.053.073c.002.08.035.135.078.197.068.093.156.2.164.432.008.209-.059.275-.145.227-.084-.048-.162-.191-.175-.414z"/><path d="m7.343 22.131.037 1.016c.002.024-.004.033-.014.028l-.058-.035c-.012-.005-.018-.021-.018-.046l-.016-.42-.152-.087.016.421c.004.023-.002.033-.012.029l-.061-.035c-.01-.006-.016-.022-.016-.047l-.038-1.015c0-.022.004-.033.014-.027l.059.034c.012.006.018.022.018.047l.016.389.152.087-.016-.389c-.002-.023.002-.035.014-.029l.059.033c.008.005.016.023.016.046z"/><path d="m7.441 22.152.059.035c.01.005.016.022.018.047l.037 1.014c.002.024-.004.034-.012.029l-.061-.035c-.012-.006-.016-.021-.016-.046l-.039-1.015c0-.024.002-.034.014-.029z"/><path d="m7.937 22.792c.008.201-.055.323-.139.274l-.082-.046.012.328c.002.023-.004.033-.014.028l-.059-.034c-.012-.007-.016-.021-.018-.046l-.037-1.015c0-.023.002-.034.014-.028l.074.042.082.047c.087.05.159.251.167.45zm-.09-.051c-.004-.09-.033-.178-.068-.196l-.082-.048.012.322.082.048c.035.02.058-.035.056-.126z"/><path d="m8.423 22.755.004.13c0 .025-.004.035-.014.029l-.096-.054.031.847c.002.023-.002.035-.012.027l-.061-.032c-.01-.006-.016-.022-.018-.047l-.031-.848-.094-.055c-.01-.005-.016-.021-.016-.046l-.006-.131c-.002-.024.004-.034.014-.028l.184.107.096.054c.012.006.017.024.019.047z"/><path d="m8.443 23.264c-.012-.318.086-.505.217-.429s.246.385.258.703c.014.319-.084.506-.215.429-.133-.075-.248-.384-.26-.703zm.385.223c-.008-.209-.078-.395-.16-.441-.082-.049-.141.063-.135.271.01.209.078.394.162.442.082.047.142-.062.133-.272z"/><path d="m9.144 23.427c0 .132-.121.049-.121-.083s.121-.049.121.083z"/><path d="m9.144 24.023c0 .132-.121.05-.121-.083 0-.132.121-.049.121.083z"/></g></svg>