<svg enable-background="new 0 0 64 64" height="64" viewBox="0 0 64 64" width="64" xmlns="http://www.w3.org/2000/svg" xmlns:xlink="http://www.w3.org/1999/xlink"><radialGradient id="a" cx="29.5" cy="24.9746" gradientTransform="matrix(1 0 0 .8285 0 4.284)" gradientUnits="userSpaceOnUse" r="25.1002"><stop offset="0" stop-color="#ffd500"/><stop offset=".3882" stop-color="#ffd200"/><stop offset=".6775" stop-color="#ffc900"/><stop offset=".9339" stop-color="#ffb800"/><stop offset="1" stop-color="#ffb300"/></radialGradient><linearGradient id="b" gradientUnits="userSpaceOnUse" x1="50.4941" x2="61.167" y1="27.2583" y2="27.2583"><stop offset="0" stop-color="#4a3000"/><stop offset=".1688" stop-color="#774e00"/><stop offset=".3469" stop-color="#9e6800"/><stop offset=".5225" stop-color="#be7d00"/><stop offset=".6925" stop-color="#d48c00"/><stop offset=".8546" stop-color="#e19500"/><stop offset="1" stop-color="#e69800"/></linearGradient><path d="m61.45 32.938c1.429-1.471-.021-5.133-3.24-8.178-3.22-3.043-6.988-4.32-8.417-2.848-.312.32-.453.75-.534 1.242-.945 5.779-2.852 6.633-4.555 8.66.509-1.695.773-3.471.773-5.289 0-4.947-1.953-9.6-5.498-13.098-3.544-3.499-8.259-5.427-13.271-5.427-5.014 0-9.728 1.928-13.272 5.428-3.545 3.498-5.498 8.15-5.498 13.098 0 4.342 1.504 8.457 4.267 11.764-2.057-.967-5.75-3.527-7.531-5.082-.834-.729-.537-1.412-.705-1.592-.643-.686-2.474.982-1.834 1.668.176.188.701-.186 1.527.719 4.312 4.715 10.516 11.947 22.714 11.947 16.294 0 25.474-10.195 33.4-12.328.435-.118 1.319-.319 1.674-.684zm-34.742 6.718c-7.337 0-13.304-5.891-13.304-13.131 0-7.238 5.967-13.129 13.304-13.129 7.336 0 13.303 5.891 13.303 13.129 0 7.241-5.967 13.131-13.303 13.131z" fill="url(#a)"/><path d="m57.996 25.027c-2.693-2.545-5.847-3.613-7.042-2.381-.261.268-.406.623-.447 1.039-.149 1.5 1.051 3.811 3.159 5.803 2.024 1.914 4.308 2.994 5.825 2.887.502-.035.918-.199 1.216-.504 1.195-1.232-.018-4.295-2.711-6.844z" fill="url(#b)"/><path d="m25.25 38.857v7.49c0 .854 1.458.854 1.458 0 0-1.373 0-6.367 0-7.49 0-.927-1.458-.927-1.458 0z" fill="#b00505"/><path d="m28.165 38.857v7.49c0 .854 1.458.854 1.458 0 0-1.373 0-6.367 0-7.49 0-.927-1.458-.927-1.458 0z" fill="#b00505"/><path d="m28.165 51.32c0-.842 0-12.404 0-12.463 0-.928-1.457-.928-1.457 0v12.482c-.513.404-.676 1.229-.729 1.91-.052-.691-.217-1.531-.729-1.93 0-.842 0-12.404 0-12.463 0-.928-1.458-.928-1.458 0v12.482c-.736.582-.731 1.982-.729 2.676.006 2.646 2.917 2.646 2.917 0 0 2.646 2.908 2.646 2.914 0 .001-.696.007-2.123-.729-2.694z" fill="#e81c27"/></svg>