<svg enable-background="new 0 0 64 64" height="64" viewBox="0 0 64 64" width="64" xmlns="http://www.w3.org/2000/svg" xmlns:xlink="http://www.w3.org/1999/xlink"><linearGradient id="a"><stop offset=".3576" stop-color="#0fb4d4"/><stop offset=".8606" stop-color="#0fb4d4" stop-opacity="0"/></linearGradient><linearGradient id="b" gradientUnits="userSpaceOnUse" x1="17.8091" x2="25.3486" xlink:href="#a" y1="49.2783" y2="-5.8973"/><linearGradient id="c" gradientUnits="userSpaceOnUse" x1="28.1787" x2="35.718" xlink:href="#a" y1="50.6943" y2="-4.4796"/><linearGradient id="d" gradientUnits="userSpaceOnUse" x1="37.5869" x2="45.126" xlink:href="#a" y1="51.9795" y2="-3.1932"/><linearGradient id="e" gradientTransform="matrix(.9955 -.0952 .1964 .9858 -42.1124 35.9281)" gradientUnits="userSpaceOnUse" x1="72.4902" x2="72.4902" y1="31.0269" y2="-5.8247"><stop offset="0" stop-color="#e6ebed"/><stop offset=".512" stop-color="#dbe2e5"/><stop offset="1" stop-color="#ccd5d9"/></linearGradient><linearGradient id="f" gradientTransform="matrix(.9955 -.0952 .1964 .9858 -42.1124 35.9281)" gradientUnits="userSpaceOnUse" x1="72.2295" x2="72.2295" y1="31.0269" y2="2.6606"><stop offset="0" stop-color="#e6ebed"/><stop offset=".2602" stop-color="#e3e9eb"/><stop offset=".4539" stop-color="#dae1e4"/><stop offset=".5758" stop-color="#cfd8dd"/></linearGradient><linearGradient id="g" gradientTransform="matrix(.9955 -.0952 .1964 .9858 -42.1124 35.9281)" gradientUnits="userSpaceOnUse" x1="72.5078" x2="72.5078" y1="18.0518" y2="-71.8058"><stop offset="0" stop-color="#b9c2c7"/><stop offset=".0456" stop-color="#c2cacf"/><stop offset=".2033" stop-color="#dce2e5"/><stop offset=".297" stop-color="#e6ebed"/></linearGradient><linearGradient id="h" gradientTransform="matrix(.9955 -.0952 .1964 .9858 -42.1124 35.9281)" gradientUnits="userSpaceOnUse" x1="72.5078" x2="72.5078" y1="18.9023" y2="-5.8247"><stop offset="0" stop-color="#e6ebed"/><stop offset=".582" stop-color="#e3e9ec"/><stop offset="1" stop-color="#dae3e8"/></linearGradient><path d="m18.878 5.977c-9.191 7.335-11.136 18.727-6.344 30.505 5.906 1.839 11.813 3.678 17.719 5.518-13.334-12.392-17.799-26.53-11.375-36.023z" fill="url(#b)"/><path d="m26.325 2c-8.043 8.932-8.227 20.379-1.625 30.879 6.18.626 12.359 1.252 18.538 1.878-15.221-9.416-21.861-22.273-16.913-32.757z" fill="url(#c)"/><path d="m39.147 28.576c5.784-.408 9.98-1.508 14.853-1.425-11.305-3.128-22.498-9.434-23.51-16.379-2.489 5.686 2.488 13.311 8.657 17.804z" fill="url(#d)"/><path d="m60 54.461-48.799 7.539-7.201-36.331c28.434 5.178 50.463-1.669 50.463-1.669z" fill="url(#e)"/><path d="m32.536 30.334-21.335 31.666c25.319-10.751 48.799-7.539 48.799-7.539z" fill="#99a8ae"/><path d="m32.746 31.445-21.545 30.555 48.799-7.539z" fill="url(#f)"/><path d="m34.798 48.124-30.798-22.455c29.25 5.551 50.463-1.669 50.463-1.669l-17.515 23.871c-.495.678-1.416.787-2.15.253z" fill="#99a8ae"/><path d="m34.644 47.162-30.644-21.493 50.463-1.669-17.722 22.921c-.495.642-1.38.745-2.097.241z" fill="url(#g)"/><path d="m34.644 47.162-30.644-21.493 50.463-1.669-17.722 22.921c-.495.642-1.38.745-2.097.241z" fill="url(#h)"/></svg>