<svg enable-background="new 0 0 64 64" height="64" viewBox="0 0 64 64" width="64" xmlns="http://www.w3.org/2000/svg" xmlns:xlink="http://www.w3.org/1999/xlink"><linearGradient id="a" gradientUnits="userSpaceOnUse" x1="28.561" x2="28.561" y1="62" y2="2.0005"><stop offset=".8061" stop-color="#ff000e"/><stop offset="1" stop-color="#cf0000"/></linearGradient><linearGradient id="b" gradientUnits="userSpaceOnUse" x1="30.0649" x2="30.0649" y1="19.918" y2="5.293"><stop offset="0" stop-color="#ff000e"/><stop offset="1" stop-color="#b80000"/></linearGradient><linearGradient id="c"><stop offset="0" stop-color="#870000"/><stop offset="1" stop-color="#b30000"/></linearGradient><linearGradient id="d" gradientUnits="userSpaceOnUse" x1="51.001" x2="51.001" xlink:href="#c" y1="62" y2="2.0005"/><linearGradient id="e" gradientUnits="userSpaceOnUse" x1="16.376" x2="16.376" xlink:href="#c" y1="23.0879" y2="5.293"/><path d="m52.121 49.832h5l-1 6.223h-4z" fill="#ff000e"/><path d="m52.121 2s-38.078 0-38.119 0c-4.418 0-9.002 6.52-9.002 24.377v35.623h4.002v-5.621h30v5.621h4z" fill="url(#a)"/><path d="m33.861 31.309c2.205 0 4 1.683 4 3.75v12.639c0 2.067-1.795 3.75-4 3.75h-19.72c-2.205 0-3.998-1.683-3.998-3.75v-12.639c0-2.067 1.793-3.75 3.998-3.75zm0-.5h-19.72c-2.48 0-4.498 1.906-4.498 4.25v12.639c0 2.344 2.018 4.25 4.498 4.25h19.721c2.48 0 4.5-1.906 4.5-4.25v-12.639c-.001-2.344-2.02-4.25-4.501-4.25z" fill="#b00505"/><path d="m43.023 5.293h-25.918v14.625h22.125c.536-7.137 1.971-11.838 3.793-14.625z" fill="url(#b)"/><path d="m22.217 19.918c-3 .4-11.682 3.17-11.682 3.17h28.523c.037-1.107.096-2.162.172-3.17z" fill="#b00505"/><path d="m52 2c-4.416 0-8.998 6.52-8.998 24.377v35.623l2.879-1.357v-5.613l10.24-4.801v5.826l2.879-1.61v-33.693c0-10.356-2.58-18.752-7-18.752z" fill="url(#d)"/><g fill="#fff"><path d="m20.369 38.265v6.225c0 .141-.076.215-.213.215h-.665c-.139 0-.215-.074-.215-.215v-4.625l-1.592 3.584c-.047.115-.127.164-.247.164h-.503c-.119 0-.2-.049-.247-.164l-1.592-3.584v4.625c0 .141-.076.215-.215.215h-.665c-.138 0-.213-.074-.213-.215v-6.225c0-.137.075-.213.213-.213h.665.219c.12 0 .2.047.249.162l1.839 4.133 1.839-4.133c.047-.115.127-.162.247-.162h.532.352c.136 0 .212.076.212.213z"/><path d="m26.854 44.704h-.737c-.118 0-.204-.059-.242-.176l-.396-1.166h-2.764l-.395 1.166c-.038.117-.123.176-.243.176h-.736c-.157 0-.228-.09-.176-.244l2.214-6.232c.038-.113.129-.176.247-.176h.941c.119 0 .209.063.247.176l2.215 6.232c.053.154-.018.244-.175.244zm-1.723-2.367-1.034-3.039-1.032 3.039z"/><path d="m28.039 38.052h.665c.138 0 .214.076.214.213v6.225c0 .141-.076.215-.214.215h-.665c-.139 0-.213-.074-.213-.215v-6.225c0-.137.074-.213.213-.213z"/><path d="m34.002 43.872v.617c0 .141-.076.215-.213.215h-2.971-.357c-.137 0-.213-.074-.213-.215v-6.225c0-.137.076-.213.213-.213h.666c.137 0 .215.076.215.213v5.395h2.447c.137 0 .213.074.213.213z"/></g><path d="m37.223 9.565h-5c-.275 0-.275-.5 0-.5h5c.275 0 .275.5 0 .5z" fill="#910404"/><path d="m22.217 19.918c0-7.561-1.885-14.625-5.111-14.625-3.225 0-6.57 4.76-6.57 17.795z" fill="url(#e)"/></svg>