<svg enable-background="new 0 0 64 64" height="64" viewBox="0 0 64 64" width="64" xmlns="http://www.w3.org/2000/svg" xmlns:xlink="http://www.w3.org/1999/xlink"><linearGradient id="a" gradientUnits="userSpaceOnUse" x1="26.9995" x2="41" y1="52" y2="52"><stop offset=".1697" stop-color="#9e6c48"/><stop offset=".348" stop-color="#996948"/><stop offset=".55" stop-color="#8c6148"/><stop offset=".7394" stop-color="#785647"/></linearGradient><radialGradient id="b" cx="30.6416" cy="13.7095" gradientTransform="matrix(-.0878 -.9737 4.9807 -.4291 -34.9507 53.2923)" gradientUnits="userSpaceOnUse" r="11.3679"><stop offset="0" stop-color="#abbdc5"/><stop offset=".2599" stop-color="#a7b8c0"/><stop offset=".5664" stop-color="#9aaab2"/><stop offset=".8952" stop-color="#86949a"/><stop offset="1" stop-color="#7e8b91"/></radialGradient><linearGradient id="c" gradientUnits="userSpaceOnUse" x1="2.2769" x2="32.4683" y1="27.6865" y2="27.6865"><stop offset="0" stop-color="#7b9099"/><stop offset="1" stop-color="#302c3b"/></linearGradient><linearGradient id="d" gradientUnits="userSpaceOnUse" x1="2.2769" x2="32.4683" y1="44.1484" y2="44.1484"><stop offset="0" stop-color="#7b9099"/><stop offset=".146" stop-color="#697882"/><stop offset=".3831" stop-color="#505763"/><stop offset=".6102" stop-color="#3e3f4d"/><stop offset=".8211" stop-color="#343140"/><stop offset="1" stop-color="#302c3b"/></linearGradient><radialGradient id="e" cx="35.6309" cy="67.335" gradientTransform="matrix(1 0 0 1.1667 0 -32.796)" gradientUnits="userSpaceOnUse" r="1.5775"><stop offset=".0909" stop-color="#cfd8dd"/><stop offset=".5899" stop-color="#a0abb0"/><stop offset="1" stop-color="#7e8a8f"/></radialGradient><linearGradient id="f" gradientUnits="userSpaceOnUse" x1="42.625" x2="42.625" y1="34.7031" y2="2.0005"><stop offset="0" stop-color="#cf0000"/><stop offset="1" stop-color="#ff000e"/></linearGradient><linearGradient id="g" gradientUnits="userSpaceOnUse" x1="38.6045" x2="37.6086" y1="35.6436" y2="29.3557"><stop offset=".8303" stop-color="#302c3b"/><stop offset=".8747" stop-color="#343240"/><stop offset=".9346" stop-color="#3e434f"/><stop offset="1" stop-color="#4e5e67"/></linearGradient><linearGradient id="h" gradientTransform="matrix(.9955 -.0952 .1964 .9858 -41.4639 35.6405)" gradientUnits="userSpaceOnUse" x1="61.5732" x2="61.5732" y1="17.0078" y2="-7.7305"><stop offset="0" stop-color="#e6ebed"/><stop offset=".512" stop-color="#dbe2e5"/><stop offset="1" stop-color="#ccd5d9"/></linearGradient><linearGradient id="i" gradientTransform="matrix(.9955 -.0952 .1964 .9858 -41.4639 35.6405)" gradientUnits="userSpaceOnUse" x1="61.5732" x2="61.5732" y1="17.0078" y2="-2.0342"><stop offset="0" stop-color="#e6ebed"/><stop offset=".2602" stop-color="#e3e9eb"/><stop offset=".4539" stop-color="#dae1e4"/><stop offset=".5758" stop-color="#cfd8dd"/></linearGradient><linearGradient id="j" gradientTransform="matrix(.9955 -.0952 .1964 .9858 -41.4639 35.6405)" gradientUnits="userSpaceOnUse" x1="62.6152" x2="62.6152" y1="8.8691" y2="-7.7305"><stop offset="0" stop-color="#e6ebed"/><stop offset=".582" stop-color="#e3e9ec"/><stop offset="1" stop-color="#dae3e8"/></linearGradient><path d="m27 42h14v20h-14z" fill="url(#a)"/><path d="m45.816 6c-8.937 0-28.686 1.027-28.686 1.027l16.184 41.973 28.686-6.062v-22.213c0-8.7-7.246-14.725-16.184-14.725z" fill="url(#b)"/><path d="m36.986 48.342c-.877.438-3.672.658-3.672.658s-.51-3.583 0-6.875c.613 2.354 2.252.987 3.676 1.761 1.641.89 1.406 3.75-.004 4.456z" fill="#687a82"/><path d="m17.13 7.027c-8.937 0-15.13 7.055-15.13 15.754v23.824l31.314 2.395v-26.219c0-8.699-7.246-15.754-16.184-15.754z" fill="#6e8189"/><path d="m16.845 7.703c-8.627 0-14.568 6.836-14.568 15.27v23.295l30.191 1.402v-24.697c0-8.434-6.994-15.27-15.623-15.27z" fill="url(#c)"/><path d="m2.277 46.268 30.191 2.056v-8.351z" fill="url(#d)"/><path d="m37.078 46.171c0 1.999-2.572 1.999-2.572 0 0-2.001 2.572-2.001 2.572 0z" fill="url(#e)"/><path d="m49.625 2-14 1v29.703c0 2.666 4 2.666 4 0v-19.988l10-1.506z" fill="url(#f)"/><path d="m41.129 28.904-6.35 7.345-.779.137v-6.946l7.129-.968z" fill="#1a1626"/><path d="m41.129 28.904-6.647.947.291.296.006 6.102 6.739-1.176-.024-5.941z" fill="url(#g)"/><path d="m6.579 23.28 4.834 24.39 21.055-3.253v-11.37s-15.364-7.85-25.889-9.767z" fill="url(#h)"/><path d="m25.736 26.411-14.323 21.259c7.731-3.283 15.202-4.624 21.055-5.113v-10.065z" fill="#99a8ae"/><path d="m11.413 47.67 21.055-3.253v-11.37l-6.591-5.89z" fill="url(#i)"/><path d="m6.579 23.28 20.676 15.073c.493.359 1.11.286 1.444-.169l3.77-5.138v-.555c-.001.001-15.17-7.177-25.89-9.211z" fill="#99a8ae"/><path d="m27.15 37.708c.482.339 1.076.27 1.41-.161l3.908-5.055v-9.52c0-.185-.021-.364-.029-.548l-25.86.856z" fill="url(#j)"/></svg>