<svg enable-background="new 0 0 64 64" height="64" viewBox="0 0 64 64" width="64" xmlns="http://www.w3.org/2000/svg" xmlns:xlink="http://www.w3.org/1999/xlink"><linearGradient id="a" gradientUnits="userSpaceOnUse" x1="36.9395" x2="36.9395" y1="62" y2="56.7168"><stop offset="0" stop-color="#4e5e67"/><stop offset=".276" stop-color="#4c5b64"/><stop offset=".4958" stop-color="#45515b"/><stop offset=".6964" stop-color="#38404c"/><stop offset=".8843" stop-color="#272937"/><stop offset="1" stop-color="#1a1626"/></linearGradient><linearGradient id="b" gradientUnits="userSpaceOnUse" x1="32.0005" x2="32.0005" y1="53.6387" y2="30.0698"><stop offset="0" stop-color="#4e5e67"/><stop offset=".542" stop-color="#506069"/><stop offset=".7858" stop-color="#556770"/><stop offset=".9695" stop-color="#5f727d"/><stop offset="1" stop-color="#617580"/></linearGradient><radialGradient id="c" cx="30.252" cy="60.4873" gradientTransform="matrix(.8896 0 0 3.049 -15.5961 -149.1706)" gradientUnits="userSpaceOnUse" r="5.0995"><stop offset="0" stop-color="#839aa3"/><stop offset=".4214" stop-color="#7d939c"/><stop offset="1" stop-color="#6e8189"/></radialGradient><path d="m4 53.639v4.854c0 1.074.97 1.953 2.154 1.953h51.691c1.186 0 2.154-.879 2.154-1.953v-4.854c-9.476-10.936-45.339-9.942-55.999 0z" fill="#445159"/><path d="m18.939 54.645v4.723c0 .738.864 1.344 1.92 1.344h32.158c1.057 0 1.922-.605 1.922-1.344v-4.723z" fill="#6e8189"/><path d="m19.939 54.645h34v4.723h-34z" fill="#1a1626"/><path d="m51.939 56.717h-30l-2 2.682s.656 2.602 5.143 2.602h23.713c4.486 0 5.145-2.602 5.145-2.602z" fill="url(#a)"/><path d="m36.564 56.123v4.393c0 .316.75.316.75 0v-4.393z" fill="#1a1626"/><path d="m31.537 56.123-.969 4.354c-.07.311.676.377.742.08l.986-4.434z" fill="#1a1626"/><path d="m26.504 56.123-1.923 4.316c-.133.299.595.426.717.152l1.99-4.469h-.784z" fill="#1a1626"/><path d="m41.582 56.123.986 4.434c.066.297.811.23.742-.08l-.971-4.354z" fill="#1a1626"/><path d="m47.375 56.123h-.785l1.99 4.469c.123.273.85.146.717-.152z" fill="#1a1626"/><path d="m49.938 19.021c-8.859 0-17.719 0-26.578 0-.912 0-1.709.904-1.77 2.009-.218 4.018-.434 8.034-.65 12.052h32c-.383-4.018-.766-8.034-1.15-12.052-.106-1.105-.94-2.008-1.852-2.009z" fill="#4e5e67"/><path d="m49.959 19.272c-8.871 0-17.742 0-26.611 0-.456.001-.854.451-.882 1.005-.184 3.683-.366 7.365-.55 11.047h29.975c-.336-3.682-.672-7.365-1.008-11.047-.051-.552-.465-1.005-.924-1.005z" fill="#cfd8dd"/><path d="m49.385 33.082c-8.297 0-16.594 0-24.89 0 .237-6.36.475-12.721.712-19.082h22.674c.502 6.361 1.002 12.722 1.504 19.082z" fill="#f2f5f7"/><path d="m55.254 30.069c-15.502 0-31.005 0-46.507 0-1.064 0-1.99.452-2.058 1.003-.896 7.524-1.793 15.045-2.689 22.567h56c-.896-7.521-1.793-15.043-2.689-22.566-.067-.552-.993-1.005-2.057-1.004z" fill="url(#b)"/><path d="m43.844 44.818c4.141 0 4.607 5.166.316 5.164-4.291 0-4.457-5.164-.316-5.164z" fill="#445159"/><path d="m43.869 45.248c3.461 0 3.83 4.305.264 4.305-3.565 0-3.723-4.305-.264-4.305z" fill="#e81c27"/><path d="m51.922 44.389c4.814 0 5.641 6.025.621 6.025-5.022 0-5.438-6.025-.621-6.025z" fill="#445159"/><path d="m51.965 44.818c4.141 0 4.824 5.166.533 5.164-4.291 0-4.674-5.164-.533-5.164z" fill="#7ab51d"/><path d="m16.34 53.049c-.335 5.811-12.614 5.811-11.879 0 .602-5.115 1.675-14.254 2.446-20.814.521-4.12 11.062-4.12 10.824 0-.393 5.89-1.09 16.308-1.391 20.814z" fill="#566873"/><path d="m7.938 32.026c-.466 6.761-1.174 13.519-2.202 20.281-.673 3.928 9.418 3.928 9.468 0 .217-6.762.756-13.52 1.536-20.281.53-4.693-8.469-4.693-8.802 0z" fill="#404d54"/><path d="m8.463 30.907c-.506 6.972-1.23 13.943-2.243 20.915-.66 4.053 8.501 4.053 8.589 0 .27-6.973.833-13.943 1.612-20.915.529-4.84-7.597-4.84-7.958 0z" fill="url(#c)"/><g fill="#445159"><path d="m35.047 35.129c.045 2.018-3.396 2.018-3.393 0s3.346-2.018 3.393 0z"/><path d="m35.131 39.453c.045 2.02-3.475 2.02-3.471 0 .004-2.015 3.424-2.015 3.471 0z"/><path d="m35.215 43.777c.047 2.02-3.553 2.02-3.549 0 .004-2.017 3.504-2.017 3.549 0z"/><path d="m35.301 48.104c.045 2.018-3.633 2.018-3.629 0 .002-2.018 3.58-2.018 3.629 0z"/><path d="m30.201 35.129c-.008 2.018-3.449 2.018-3.393 0 .058-2.018 3.399-2.018 3.393 0z"/><path d="m30.172 39.453c-.006 2.02-3.526 2.02-3.47 0 .056-2.015 3.478-2.015 3.47 0z"/><path d="m30.145 43.777c-.008 2.02-3.607 2.02-3.55 0 .057-2.017 3.555-2.017 3.55 0z"/><path d="m30.115 48.104c-.006 2.018-3.685 2.018-3.627 0 .056-2.018 3.635-2.018 3.627 0z"/><path d="m25.355 35.129c-.06 2.018-3.501 2.018-3.392 0 .11-2.018 3.452-2.018 3.392 0z"/><path d="m25.214 39.453c-.06 2.02-3.581 2.02-3.471 0 .109-2.015 3.531-2.015 3.471 0z"/><path d="m25.073 43.777c-.06 2.02-3.66 2.02-3.55 0 .11-2.017 3.609-2.017 3.55 0z"/><path d="m24.932 48.104c-.059 2.018-3.738 2.018-3.628 0 .108-2.018 3.687-2.018 3.628 0z"/></g><path d="m34.787 35.129c.039 1.711-2.877 1.711-2.875 0 .004-1.709 2.836-1.709 2.875 0z" fill="#b3c2c6"/><path d="m34.855 39.453c.039 1.699-2.924 1.699-2.92 0 .003-1.695 2.881-1.695 2.92 0z" fill="#b3c2c6"/><path d="m34.936 43.777c.041 1.701-2.994 1.701-2.992 0 .003-1.699 2.954-1.699 2.992 0z" fill="#b3c2c6"/><path d="m35.014 48.104c.039 1.697-3.059 1.697-3.055 0 .002-1.7 3.014-1.7 3.055 0z" fill="#b3c2c6"/><path d="m29.941 35.129c-.004 1.711-2.921 1.711-2.875 0 .05-1.709 2.881-1.709 2.875 0z" fill="#b3c2c6"/><path d="m29.896 39.453c-.006 1.699-2.967 1.699-2.919 0 .048-1.695 2.925-1.695 2.919 0z" fill="#b3c2c6"/><path d="m29.865 43.777c-.006 1.701-3.039 1.701-2.992 0 .049-1.699 2.998-1.699 2.992 0z" fill="#b3c2c6"/><path d="m29.828 48.104c-.004 1.697-3.102 1.697-3.054 0 .048-1.7 3.062-1.7 3.054 0z" fill="#b3c2c6"/><path d="m25.096 35.129c-.051 1.709-2.965 1.709-2.873 0 .092-1.707 2.923-1.707 2.873 0z" fill="#b3c2c6"/><path d="m24.938 39.453c-.05 1.697-3.01 1.697-2.918 0 .091-1.695 2.968-1.695 2.918 0z" fill="#b3c2c6"/><path d="m24.792 43.777c-.05 1.701-3.082 1.701-2.99 0 .094-1.699 3.04-1.699 2.99 0z" fill="#b3c2c6"/><path d="m24.644 48.104c-.049 1.697-3.145 1.697-3.053 0 .092-1.698 3.102-1.698 3.053 0z" fill="#b3c2c6"/><path d="m38.916 32.286.123 6.025h16.234l-.625-6.025z" fill="#302c3b"/><path d="m40.896 33.791.081 3.014h12.218l-.312-3.014z" fill="#a6e639"/></svg>