<svg enable-background="new 0 0 64 64" height="64" viewBox="0 0 64 64" width="64" xmlns="http://www.w3.org/2000/svg" xmlns:xlink="http://www.w3.org/1999/xlink"><linearGradient id="a" gradientUnits="userSpaceOnUse" x1="32.0005" x2="32.0005" y1="60" y2="24.0005"><stop offset="0" stop-color="#e6ebed"/><stop offset=".512" stop-color="#dbe2e5"/><stop offset="1" stop-color="#ccd5d9"/></linearGradient><linearGradient id="b" gradientUnits="userSpaceOnUse" x1="32.0005" x2="32.0005" y1="60" y2="31.2007"><stop offset="0" stop-color="#e6ebed"/><stop offset=".2602" stop-color="#e3e9eb"/><stop offset=".4539" stop-color="#dae1e4"/><stop offset=".5758" stop-color="#cfd8dd"/></linearGradient><linearGradient id="c" gradientUnits="userSpaceOnUse" x1="32.0005" x2="32.0005" y1="47.7422" y2="-41.6079"><stop offset="0" stop-color="#b9c2c7"/><stop offset=".0456" stop-color="#c2cacf"/><stop offset=".2033" stop-color="#dce2e5"/><stop offset=".297" stop-color="#e6ebed"/></linearGradient><linearGradient id="d" gradientUnits="userSpaceOnUse" x1="32.0005" x2="32.0005" y1="48.5879" y2="24.0005"><stop offset="0" stop-color="#e6ebed"/><stop offset=".582" stop-color="#e3e9ec"/><stop offset="1" stop-color="#dae3e8"/></linearGradient><linearGradient id="e" gradientTransform="matrix(0 1 -1 0 316.1406 111.1401)" gradientUnits="userSpaceOnUse" x1="-92.1396" x2="-92.1396" y1="299.1406" y2="269.1406"><stop offset="0" stop-color="#ff000e"/><stop offset="1" stop-color="#cf0000"/></linearGradient><path d="m2 24h60v36h-60z" fill="url(#a)"/><path d="m32 30-30 30h60z" fill="#99a8ae"/><path d="m32 31.2-30 28.8h60z" fill="url(#b)"/><path d="m30.68 49.162-28.68-25.162h60l-28.681 25.162c-.755.662-1.883.662-2.639 0z" fill="#99a8ae"/><path d="m30.713 48.119-28.713-24.119h60l-28.714 24.119c-.745.625-1.829.625-2.573 0z" fill="url(#c)"/><path d="m30.713 48.119-28.713-24.119h60l-28.714 24.119c-.745.625-1.829.625-2.573 0z" fill="url(#d)"/><path d="m32.002 34 14.998-15.162h-6.805v-14.838h-16.388v14.838h-6.807z" fill="url(#e)"/></svg>