<svg enable-background="new 0 0 64 64" height="64" viewBox="0 0 64 64" width="64" xmlns="http://www.w3.org/2000/svg" xmlns:xlink="http://www.w3.org/1999/xlink"><linearGradient id="a"><stop offset="0" stop-color="#d6e5ed"/><stop offset=".0475" stop-color="#d1e0e7"/><stop offset=".4807" stop-color="#a8b2b8"/><stop offset=".812" stop-color="#8f969a"/><stop offset="1" stop-color="#858c8f"/></linearGradient><linearGradient id="b" gradientUnits="userSpaceOnUse" x1="14.4033" x2="23.5967" xlink:href="#a" y1="15.25" y2="15.25"/><linearGradient id="c" gradientUnits="userSpaceOnUse" x1="6.333" x2="13.3447" xlink:href="#a" y1="15.2119" y2="15.2119"/><linearGradient id="d" gradientUnits="userSpaceOnUse" x1="3" x2="61" y1="35" y2="35"><stop offset=".9" stop-color="#323844"/><stop offset="1" stop-color="#1a1626"/></linearGradient><linearGradient id="e"><stop offset="0" stop-color="#7b8589"/><stop offset=".0116" stop-color="#8d979b"/><stop offset=".0341" stop-color="#aab3b8"/><stop offset=".0566" stop-color="#bec8cc"/><stop offset=".0787" stop-color="#cbd4d9"/><stop offset=".1" stop-color="#cfd8dd"/><stop offset=".9" stop-color="#cfd8dd"/><stop offset=".9213" stop-color="#cbd4d9"/><stop offset=".9434" stop-color="#bec8cc"/><stop offset=".9659" stop-color="#aab3b8"/><stop offset=".9884" stop-color="#8d979b"/><stop offset="1" stop-color="#7b8589"/></linearGradient><linearGradient id="f" gradientUnits="userSpaceOnUse" x1="3" x2="61" xlink:href="#e" y1="49" y2="49"/><linearGradient id="g" gradientUnits="userSpaceOnUse" x1="3" x2="61" xlink:href="#e" y1="18" y2="18"/><radialGradient id="h" cx="41" cy="33.459" gradientTransform="matrix(.7071 -.7071 4.2426 4.2426 -129.9458 -79.5041)" gradientUnits="userSpaceOnUse" r="15.5"><stop offset=".2303" stop-color="#effaff"/><stop offset=".3695" stop-color="#e7f2f7"/><stop offset=".5869" stop-color="#d1dce1"/><stop offset=".8538" stop-color="#adb9bd"/><stop offset="1" stop-color="#96a2a6"/></radialGradient><linearGradient id="i" gradientUnits="userSpaceOnUse" x1="33.3613" x2="48.6394" y1="25.8208" y2="41.0989"><stop offset="0" stop-color="#302c3b"/><stop offset=".4746" stop-color="#312e3d"/><stop offset=".7489" stop-color="#363742"/><stop offset=".972" stop-color="#3f454b"/><stop offset="1" stop-color="#40474d"/></linearGradient><radialGradient id="j" cx="584.2705" cy="38.9951" gradientTransform="matrix(.3583 .4654 -.5242 .4036 -154.4499 -262.5237)" gradientUnits="userSpaceOnUse" r="25.3184"><stop offset="0" stop-color="#fff" stop-opacity=".2"/><stop offset="1" stop-color="#fff" stop-opacity="0"/></radialGradient><linearGradient id="k" gradientUnits="userSpaceOnUse" x1="3" x2="20.3257" y1="35" y2="35"><stop offset="0" stop-color="#302c3b"/><stop offset=".0155" stop-color="#33313f"/><stop offset=".0989" stop-color="#3f4551"/><stop offset=".1937" stop-color="#47535d"/><stop offset=".3087" stop-color="#4c5b65"/><stop offset=".5" stop-color="#4e5e67"/><stop offset=".6307" stop-color="#4a5862"/><stop offset=".8028" stop-color="#414853"/><stop offset=".9973" stop-color="#302c3b"/><stop offset="1" stop-color="#302c3b"/></linearGradient><linearGradient id="l" gradientUnits="userSpaceOnUse" x1="8.8628" x2="18.8628" y1="19.0566" y2="19.0566"><stop offset=".0061" stop-color="#acb4b8"/><stop offset=".0293" stop-color="#b8bec2"/><stop offset=".093" stop-color="#d2d6d8"/><stop offset=".1634" stop-color="#e6e8e9"/><stop offset=".243" stop-color="#f4f5f6"/><stop offset=".3395" stop-color="#fcfdfd"/><stop offset=".5" stop-color="#fff"/><stop offset=".6625" stop-color="#fcfdfd"/><stop offset=".7601" stop-color="#f4f5f6"/><stop offset=".8407" stop-color="#e6e8e9"/><stop offset=".912" stop-color="#d2d6d8"/><stop offset=".9765" stop-color="#b8bec2"/><stop offset="1" stop-color="#acb4b8"/></linearGradient><path d="m23.137 14.25h-8.274c-.252 0-.459.181-.459.4v1.6h9.193v-1.6c0-.219-.207-.4-.46-.4z" fill="url(#b)"/><g fill="#1a1626"><path d="m14.633 14.65h.459v1.6h-.459z" opacity=".2"/><path d="m15.552 14.65h.46v1.6h-.46z" opacity=".2"/><path d="m16.472 14.65h.46v1.6h-.46z" opacity=".2"/><path d="m17.391 14.65h.459v1.6h-.459z" opacity=".2"/><path d="m18.311 14.65h.459v1.6h-.459z" opacity=".2"/><path d="m19.23 14.65h.459v1.6h-.459z" opacity=".2"/><path d="m20.149 14.65h.46v1.6h-.46z" opacity=".2"/><path d="m21.068 14.65h.46v1.6h-.46z" opacity=".2"/><path d="m21.988 14.65h.459v1.6h-.459z" opacity=".2"/><path d="m22.907 14.65h.459v1.6h-.459z" opacity=".2"/></g><path d="m2 22h2v1h-2z" fill="#cfd8dd"/><path d="m60 22h2v1h-2z" fill="#cfd8dd"/><path d="m13.333 16.125h-7s.406-1.294.905-1.496c1.197-.486 3.993-.486 5.19 0 .549.222.995 1.784.905 1.496z" fill="url(#c)"/><path d="m8.804 14.125h2.058v2h-2.058z" fill="#cfd8dd"/><path d="m3 22h58v26h-58z" fill="url(#d)"/><path d="m59.031 50h-54.063c-1.968 0-1.968-2-1.968-2h58s0 2-1.969 2z" fill="url(#f)"/><path d="m61 14.948-1.477-.948s-20.447 0-28.597 0c-5.083 0-5.729 2.113-10.601 2.113-1.599 0-13.773 0-16.326 0-1 0-1 .851-1 .851v5.036h58v-7.052z" fill="url(#g)"/><circle cx="28.99" cy="44.813" fill="#99a8ae" r="2.687"/><circle cx="28.99" cy="44.813" fill="#302c3b" r="1.974"/><circle cx="41" cy="33.459" fill="url(#h)" r="15.5"/><circle cx="41" cy="33.459" fill="#1a1626" r="13.621"/><circle cx="40.999" cy="33.459" fill="#25222e" r="12.212"/><circle cx="41" cy="33.459" fill="url(#i)" r="10.802"/><circle cx="41" cy="33.459" fill="#302c3b" opacity=".2" r="6.74"/><circle cx="41" cy="33.459" fill="#35313d" r="7.045"/><circle cx="41" cy="33.459" fill="#272430" r="5.637"/><circle cx="40.999" cy="33.459" fill="#2d2a36" r="4.228"/><circle cx="41" cy="33.459" fill="#35313d" r="2.818"/><circle cx="41" cy="33.459" fill="#1a1626" r=".939"/><path d="m44.314 38.18c-3.785 2.92-8.957 2.558-11.542-.806-2.592-3.365-1.621-8.456 2.167-11.372 3.789-2.923 8.959-2.557 11.551.806 2.594 3.366 1.615 8.459-2.176 11.372z" fill="url(#j)"/><circle cx="24.3" cy="19.057" fill="#4e5e67" r="1.5"/><circle cx="24.3" cy="19.057" fill="#99a8ae" r="1"/><circle cx="24.3" cy="19.057" fill="#1a1626" r=".65"/><path d="m3 22h17.326v26h-17.326z" fill="url(#k)"/><path d="m19.113 18.057c0-.413-.337-.75-.75-.75h-9c-.413 0-.75.337-.75.75v2c0 .412.337.75.75.75h9c.413 0 .75-.338.75-.75z" fill="#6e8189"/><path d="m18.863 18.057c0-.275-.225-.5-.5-.5h-9c-.275 0-.5.225-.5.5v2c0 .274.225.5.5.5h9c.275 0 .5-.226.5-.5z" fill="url(#l)"/><path d="m8.863 19.604h10v.1h-10z" fill="#6e8189" opacity=".3"/><path d="m8.863 20.203h10v.1h-10z" fill="#6e8189" opacity=".3"/><path d="m8.863 19.005h10v.1h-10z" fill="#6e8189" opacity=".3"/><path d="m8.863 18.406h10v.1h-10z" fill="#6e8189" opacity=".3"/><path d="m17.513 17.307h.1v3.5h-.1z" fill="#6e8189" opacity=".3"/><path d="m10.113 17.307h.1v3.5h-.1z" fill="#6e8189" opacity=".3"/><path d="m8.863 17.807h10v.1h-10z" fill="#6e8189" opacity=".3"/></svg>