<svg enable-background="new 0 0 64 64" height="64" viewBox="0 0 64 64" width="64" xmlns="http://www.w3.org/2000/svg" xmlns:xlink="http://www.w3.org/1999/xlink"><linearGradient id="a"><stop offset="0" stop-color="#302c3b"/><stop offset=".5128" stop-color="#454853"/><stop offset="1" stop-color="#5b666e"/></linearGradient><linearGradient id="b" gradientUnits="userSpaceOnUse" x1="22" x2="22" xlink:href="#a" y1="62" y2="61"/><linearGradient id="c" gradientUnits="userSpaceOnUse" x1="42" x2="42" xlink:href="#a" y1="62" y2="61"/><linearGradient id="d" gradientUnits="userSpaceOnUse" x1="47.3545" x2="47.3545" y1="53.5254" y2="44.4746"><stop offset="0" stop-color="#302c3b"/><stop offset=".5017" stop-color="#312e3d"/><stop offset=".6824" stop-color="#363543"/><stop offset=".8113" stop-color="#3f404d"/><stop offset=".9147" stop-color="#4c515c"/><stop offset="1" stop-color="#5b666e"/></linearGradient><linearGradient id="e"><stop offset="0" stop-color="#b3c2c6"/><stop offset=".415" stop-color="#b0bfc3"/><stop offset=".756" stop-color="#a6b5ba"/><stop offset="1" stop-color="#99a8ae"/></linearGradient><radialGradient id="f" cx="52.8184" cy="49" gradientUnits="userSpaceOnUse" r="4.7434" xlink:href="#e"/><radialGradient id="g" cx="57.8301" cy="49" gradientUnits="userSpaceOnUse" r="4.6856" xlink:href="#e"/><radialGradient id="h" cx="-31.9771" cy="-15.1274" gradientTransform="matrix(.866 -.5 .5 .866 51.2589 19.1149)" gradientUnits="userSpaceOnUse" r="14" xlink:href="#e"/><radialGradient id="i" cx="106.6064" cy="26.9883" gradientTransform="matrix(.866 .5 -.5 .866 -30.829 -58.6727)" gradientUnits="userSpaceOnUse" r="14" xlink:href="#e"/><linearGradient id="j" gradientUnits="userSpaceOnUse" x1="32.0005" x2="32.0005" y1="60" y2="38"><stop offset="0" stop-color="#4e5e67"/><stop offset=".542" stop-color="#506069"/><stop offset=".7858" stop-color="#556770"/><stop offset=".9695" stop-color="#5f727d"/><stop offset="1" stop-color="#617580"/></linearGradient><linearGradient id="k" gradientUnits="userSpaceOnUse" x1="28.0317" x2="28.0317" y1="58" y2="47.2754"><stop offset=".2424" stop-color="#6e8189"/><stop offset=".7062" stop-color="#7a8f97"/><stop offset="1" stop-color="#839aa3"/></linearGradient><path d="m20.5 59h3v2.432h-3z" fill="#1a1626"/><path d="m24 61h-4c-.55 0-1 .449-1 1h6c0-.551-.45-1-1-1z" fill="url(#b)"/><path d="m40.5 59h3v2.432h-3z" fill="#1a1626"/><path d="m44 61h-4c-.55 0-1 .449-1 1h6c0-.551-.45-1-1-1z" fill="url(#c)"/><path d="m44.854 44.475h5v9.051h-5z" fill="url(#d)"/><path d="m49.638 43.094h6.361v11.813h-6.361z" fill="url(#f)"/><path d="m48.854 53.525.784 1.381v-11.812l-.784 1.381z" fill="#6e8189"/><path d="m56.493 42.51h2.674v12.98h-2.674z" fill="url(#g)"/><path d="m55.999 54.906.494.584v-12.98l-.494.584z" fill="#6e8189"/><path d="m24.733 41.787h-4.464l-6-18.783 3.464-2z" fill="#8a989e"/><path d="m42.729 39.787h-4.463l8-22.785 3.463 2z" fill="#8a989e"/><path d="m19.315 38.146h-.635l-10.276-13.221.422-.209z" fill="#302c3b"/><path d="m43.555 38.125h-.703l11.743-16.777.455.229z" fill="#302c3b"/><path d="m22.614 18.186c5.091 8.816-8.135 16.453-13.226 7.635-5.09-8.817 8.135-16.454 13.226-7.635z" fill="#302c3b"/><path d="m9.002 9.879c-6.696 3.865-8.99 12.428-5.124 19.123 3.865 6.697 12.428 8.992 19.124 5.125 6.696-3.865 8.99-12.428 5.124-19.125-3.865-6.695-12.428-8.99-19.124-5.123zm8.842 1.654c.244-4.076 9.713 1.389 6.303 3.639l-4.359 2.879c-1.337.883-2.353.297-2.257-1.303zm-3.685 0 .313 5.215c.096 1.6-.919 2.186-2.258 1.303l-4.358-2.879c-3.409-2.248 6.058-7.715 6.303-3.639zm-8.145 6.83 4.672 2.338c1.434.715 1.434 1.887.001 2.604l-4.672 2.336c-3.655 1.828-3.655-9.104-.001-7.278zm8.145 14.11c-.245 4.076-9.712-1.389-6.302-3.641l4.358-2.879c1.337-.881 2.353-.295 2.256 1.305zm3.686-.002-.314-5.213c-.095-1.6.92-2.186 2.258-1.303l4.359 2.877c3.407 2.252-6.06 7.717-6.303 3.639zm8.144-6.828-4.673-2.336c-1.433-.717-1.433-1.889 0-2.607l4.673-2.336c3.655-1.827 3.653 9.105 0 7.279z" fill="url(#h)"/><g fill="#302c3b"><path d="m14.379 21.102c.425.736-.678 1.373-1.103.637-.423-.735.679-1.372 1.103-.637z"/><path d="m15.97 23.857c.425.736-.678 1.373-1.103.637-.424-.734.679-1.371 1.103-.637z"/><path d="m17.135 19.512c.424.734-.679 1.371-1.103.637-.425-.735.678-1.372 1.103-.637z"/><path d="m18.726 22.268c.424.734-.679 1.371-1.103.637-.425-.737.678-1.374 1.103-.637z"/><path d="m54.61 21.82c-5.092 8.818-18.316 1.182-13.226-7.637 5.092-8.816 18.316-1.179 13.226 7.637z"/></g><path d="m54.997 5.879c-6.695-3.867-15.258-1.572-19.123 5.123-3.866 6.697-1.572 15.26 5.124 19.125 6.694 3.865 15.257 1.573 19.124-5.125 3.865-6.695 1.57-15.258-5.125-19.123zm2.988 8.484c3.652-1.826 3.652 9.104 0 7.277l-4.674-2.336c-1.432-.717-1.432-1.889 0-2.605zm-1.843-3.191-4.357 2.879c-1.338.883-2.354.297-2.258-1.303l.314-5.215c.242-4.076 9.709 1.389 6.301 3.639zm-9.987-3.639.313 5.215c.095 1.6-.921 2.186-2.258 1.303l-4.358-2.879c-3.409-2.25 6.058-7.715 6.303-3.639zm-8.145 14.108c-3.653 1.828-3.653-9.104 0-7.277l4.672 2.336c1.433.717 1.433 1.889 0 2.605zm1.843 3.191 4.358-2.879c1.339-.881 2.354-.295 2.258 1.305l-.313 5.213c-.246 4.078-9.713-1.389-6.303-3.639zm9.986 3.641-.313-5.215c-.096-1.6.92-2.186 2.256-1.305l4.359 2.879c3.409 2.25-6.056 7.717-6.302 3.641z" fill="url(#i)"/><path d="m47.966 16.146c-.424.736-1.526.1-1.102-.635.424-.736 1.526-.099 1.102.635z" fill="#302c3b"/><path d="m46.375 18.902c-.424.736-1.526.1-1.102-.637.424-.734 1.527-.097 1.102.637z" fill="#302c3b"/><path d="m50.722 17.738c-.426.734-1.527.1-1.104-.637.426-.734 1.528-.097 1.104.637z" fill="#302c3b"/><path d="m49.13 20.494c-.424.734-1.525.098-1.102-.637s1.526-.099 1.102.637z" fill="#302c3b"/><path d="m47 58c0 1.1-.888 2-1.973 2h-26.054c-1.085 0-1.973-.9-1.973-2v-18c0-1.1.888-2 1.973-2h26.055c1.084 0 1.972.9 1.972 2z" fill="url(#j)"/><path d="m36.063 57c0 .549-.45 1-1 1h-14.063c-.55 0-1-.451-1-1v-8.725c0-.549.45-1 1-1h14.063c.55 0 1 .451 1 1z" fill="url(#k)"/><path d="m34.208 50.289h-12.355c-.355 0-.653-.189-.836-.459.043.51.462.918.982.918h12.063c.522 0 .943-.41.984-.922-.182.272-.483.463-.838.463z" fill="#4e5e67"/><path d="m34.208 52.891h-12.355c-.355 0-.653-.191-.836-.461.043.51.462.92.982.92h12.063c.522 0 .943-.41.984-.922-.182.271-.483.463-.838.463z" fill="#4e5e67"/><path d="m34.208 55.49h-12.355c-.355 0-.653-.189-.836-.459.043.51.462.918.982.918h12.063c.522 0 .943-.41.984-.922-.182.272-.483.463-.838.463z" fill="#4e5e67"/></svg>