<svg enable-background="new 0 0 64 64" height="64" viewBox="0 0 64 64" width="64" xmlns="http://www.w3.org/2000/svg" xmlns:xlink="http://www.w3.org/1999/xlink"><linearGradient id="a"><stop offset="0" stop-color="#302c3b"/><stop offset=".3779" stop-color="#454854"/><stop offset=".7557" stop-color="#555e67"/><stop offset="1" stop-color="#5b666e"/></linearGradient><linearGradient id="b" gradientUnits="userSpaceOnUse" x1="53" x2="53" xlink:href="#a" y1="50" y2="44"/><linearGradient id="c" gradientUnits="userSpaceOnUse" x1="43" x2="43" xlink:href="#a" y1="50" y2="44"/><linearGradient id="d" gradientUnits="userSpaceOnUse" x1="33" x2="33" xlink:href="#a" y1="50" y2="44"/><path d="m45.508.557h1.532v20.427h-1.532z" fill="#99a8ae" transform="matrix(.3417 .9398 -.9398 .3417 40.5819 -36.3977)"/><circle cx="55.87" cy="7.276" fill="#cfd8dd" r="1.276"/><path d="m23.297 4.59h2.043v28.342h-2.043z" fill="#cfd8dd" transform="matrix(.3422 .9396 -.9396 .3422 33.6246 -10.5094)"/><circle cx="10.042" cy="23.957" fill="#99a8ae" r="2.042"/><circle cx="10.043" cy="23.957" fill="#cfd8dd" r="1.022"/><path d="m62 54c0 1.988-2.012 4-4 4h-52c-1.988 0-4-2.012-4-4v-26.001c0-1.988 2.012-4 4-4h52c1.988 0 4 2.012 4 4z" fill="#95c539"/><path d="m17 62h-6l-1-4h8z" fill="#302c3b"/><path d="m53 62h-6l-1-4h8z" fill="#302c3b"/><path d="m30 31.999h26v6.001h-26z" fill="#fff"/><path d="m30 31.999h26v2h-26z" fill="#e6ebef"/><path d="m49 38h-2l1-6.001z" fill="#e81c27"/><path d="m57 47c0 2.205-1.793 4-4 4-2.209 0-4-1.795-4-4 0-2.209 1.791-4 4-4 2.207 0 4 1.791 4 4z" fill="#e6ebef"/><circle cx="53" cy="47" fill="url(#b)" r="3"/><path d="m53.387 45.258c0 .107-.088.193-.193.193h-.387c-.107 0-.193-.086-.193-.193v-1.161c0-.106.086-.193.193-.193h.387c.105 0 .193.087.193.193z" fill="#f2f5f7"/><path d="m43 51c-2.205 0-4-1.792-4-4s1.795-4 4-4c2.209 0 4 1.792 4 4s-1.791 4-4 4z" fill="#e6ebef"/><circle cx="43" cy="47" fill="url(#c)" r="3"/><path d="m44.742 47.387c-.107 0-.193-.087-.193-.193v-.387c0-.106.086-.193.193-.193h1.16c.107 0 .193.087.193.193v.387c0 .106-.086.193-.193.193z" fill="#f2f5f7"/><path d="m35.828 44.172c1.559 1.559 1.561 4.096 0 5.656-1.561 1.562-4.098 1.561-5.656 0-1.563-1.562-1.563-4.096 0-5.656 1.56-1.562 4.094-1.563 5.656 0z" fill="#e6ebef"/><circle cx="33" cy="47" fill="url(#d)" r="3"/><path d="m32.041 45.495c.076.075.076.198 0 .273l-.273.273c-.074.075-.197.075-.273 0l-.82-.821c-.076-.076-.076-.198 0-.273l.273-.273c.074-.076.197-.076.273 0z" fill="#f2f5f7"/><g fill="#4e5e67"><path d="m31.5 31.999h.5v2h-.5z"/><path d="m33.375 31.999h.5v2h-.5z"/><path d="m35.25 31.999h.5v2h-.5z"/><path d="m37.125 31.999h.5v2h-.5z"/><path d="m39 31.999h.5v2h-.5z"/><path d="m40.875 31.999h.5v2h-.5z"/><path d="m42.75 31.999h.5v2h-.5z"/><path d="m44.625 31.999h.5v2h-.5z"/><path d="m46.5 31.999h.5v2h-.5z"/><path d="m48.375 31.999h.5v2h-.5z"/><path d="m50.25 31.999h.5v2h-.5z"/><path d="m52.125 31.999h.5v2h-.5z"/><path d="m54 31.999h.5v2h-.5z"/></g><path d="m25 30v22c0 1.521-2 1.521-2 0v-22c0-1.521 2-1.521 2 0z" fill="#6f9529"/><path d="m21 30v22c0 1.521-2 1.521-2 0v-22c0-1.521 2-1.521 2 0z" fill="#6f9529"/><path d="m17 30v22c0 1.521-2 1.521-2 0v-22c0-1.521 2-1.521 2 0z" fill="#6f9529"/><path d="m13 30v22c0 1.521-2 1.521-2 0v-22c0-1.521 2-1.521 2 0z" fill="#6f9529"/><path d="m9 30v22c0 1.521-2 1.521-2 0v-22c0-1.521 2-1.521 2 0z" fill="#6f9529"/><path d="m25 39v4c0 1.521-2 1.521-2 0v-4c0-1.521 2-1.521 2 0z" fill="#3f404d"/><path d="m21 35v12c0 1.521-2 1.521-2 0v-12c0-1.521 2-1.521 2 0z" fill="#3f404d"/><path d="m17 33v16c0 1.521-2 1.521-2 0v-16c0-1.521 2-1.521 2 0z" fill="#3f404d"/><path d="m13 35v12c0 1.521-2 1.521-2 0v-12c0-1.521 2-1.521 2 0z" fill="#3f404d"/><path d="m9 39v4c0 1.521-2 1.521-2 0v-4c0-1.521 2-1.521 2 0z" fill="#3f404d"/></svg>