<svg enable-background="new 0 0 64 64" height="64" viewBox="0 0 64 64" width="64" xmlns="http://www.w3.org/2000/svg" xmlns:xlink="http://www.w3.org/1999/xlink"><linearGradient id="a" gradientUnits="userSpaceOnUse" x1="23.293" x2="40.707" y1="12.9639" y2="12.9639"><stop offset="0" stop-color="#6e8189"/><stop offset=".031" stop-color="#6a7d84"/><stop offset=".1978" stop-color="#5b6970"/><stop offset=".3875" stop-color="#505b62"/><stop offset=".6175" stop-color="#49535a"/><stop offset="1" stop-color="#475157"/></linearGradient><linearGradient id="b" gradientUnits="userSpaceOnUse" x1="6.8818" x2="57.1189" y1="12.8823" y2="63.1194"><stop offset="0" stop-color="#4e5e67"/><stop offset=".1749" stop-color="#444d58"/><stop offset=".4325" stop-color="#393b48"/><stop offset=".702" stop-color="#32303e"/><stop offset="1" stop-color="#302c3b"/></linearGradient><linearGradient id="c" gradientUnits="userSpaceOnUse" x1="28.0005" x2="28.0005" y1="57" y2="19.0005"><stop offset="0" stop-color="#009af7"/><stop offset=".0814" stop-color="#0ca2f4"/><stop offset=".3157" stop-color="#29b5ee"/><stop offset=".549" stop-color="#3dc3ea"/><stop offset=".7785" stop-color="#4acbe7"/><stop offset="1" stop-color="#4ecee6"/></linearGradient><linearGradient id="d" gradientUnits="userSpaceOnUse" x1="12.0298" x2="31.6368" y1="21.3203" y2="40.9273"><stop offset="0" stop-color="#fff" stop-opacity=".5"/><stop offset=".7455" stop-color="#fff" stop-opacity="0"/></linearGradient><path d="m36.575 1.164h1.532v14.429h-1.532z" fill="#99a8ae" transform="matrix(-.7077 -.7065 .7065 -.7077 57.8495 40.6883)"/><path d="m25.891 1.164h1.532v14.429h-1.532z" fill="#99a8ae" transform="matrix(.7077 -.7065 .7065 .7077 1.8716 21.2811)"/><path d="m23.293 14.25c0-1.414 1.247-2.572 2.77-2.572h11.873c1.523 0 2.771 1.158 2.771 2.572z" fill="url(#a)"/><circle cx="42.441" cy="3.278" fill="#cfd8dd" r="1.276"/><circle cx="21.557" cy="3.278" fill="#cfd8dd" r="1.276"/><path d="m62 55c0 4.317-2.686 7-7 7h-46c-4.316 0-7-2.683-7-7v-34c0-4.315 2.684-7 7-7h46c4.314 0 7 2.685 7 7z" fill="url(#b)"/><path d="m49 50.5c0 3.576-3.15 6.5-7 6.5h-28c-3.852 0-7-2.924-7-6.5v-25c0-3.574 3.148-6.5 7-6.5h28c3.85 0 7 2.926 7 6.5z" fill="url(#c)"/><circle cx="56" cy="26" fill="#bec3cf" r="4"/><g fill="#e6ebef"><circle cx="56" cy="26" r="3"/><circle cx="56" cy="34" r="2"/><circle cx="56" cy="40" r="2"/></g><path d="m9 45.497v-18.997c0-3.025 2.664-5.5 5.922-5.5h23.994c0 31.332-29.916 24.497-29.916 24.497z" fill="url(#d)" opacity=".7"/></svg>