<svg enable-background="new 0 0 64 64" height="64" viewBox="0 0 64 64" width="64" xmlns="http://www.w3.org/2000/svg" xmlns:xlink="http://www.w3.org/1999/xlink"><linearGradient id="a"><stop offset="0" stop-color="#d6e5ed"/><stop offset=".0475" stop-color="#d1e0e7"/><stop offset=".4807" stop-color="#a8b2b8"/><stop offset=".812" stop-color="#8f969a"/><stop offset="1" stop-color="#858c8f"/></linearGradient><linearGradient id="b" gradientUnits="userSpaceOnUse" x1="14.4023" x2="23.5957" xlink:href="#a" y1="15.251" y2="15.251"/><linearGradient id="c" gradientUnits="userSpaceOnUse" x1="6.332" x2="13.3438" xlink:href="#a" y1="15.2129" y2="15.2129"/><linearGradient id="d" gradientUnits="userSpaceOnUse" x1="3" x2="61" y1="35" y2="35"><stop offset=".9" stop-color="#323844"/><stop offset="1" stop-color="#1a1626"/></linearGradient><linearGradient id="e"><stop offset="0" stop-color="#7b8589"/><stop offset=".0116" stop-color="#8d979b"/><stop offset=".0341" stop-color="#aab3b8"/><stop offset=".0566" stop-color="#bec8cc"/><stop offset=".0787" stop-color="#cbd4d9"/><stop offset=".1" stop-color="#cfd8dd"/><stop offset=".9" stop-color="#cfd8dd"/><stop offset=".9213" stop-color="#cbd4d9"/><stop offset=".9434" stop-color="#bec8cc"/><stop offset=".9659" stop-color="#aab3b8"/><stop offset=".9884" stop-color="#8d979b"/><stop offset="1" stop-color="#7b8589"/></linearGradient><linearGradient id="f" gradientUnits="userSpaceOnUse" x1="3" x2="61" xlink:href="#e" y1="49" y2="49"/><linearGradient id="g" gradientUnits="userSpaceOnUse" x1="3" x2="61" xlink:href="#e" y1="18.001" y2="18.001"/><radialGradient id="h" cx="41" cy="33.459" gradientTransform="matrix(.7071 -.7071 4.2426 4.2426 -129.9458 -79.5041)" gradientUnits="userSpaceOnUse" r="15.5"><stop offset=".2303" stop-color="#effaff"/><stop offset=".3695" stop-color="#e7f2f7"/><stop offset=".5869" stop-color="#d1dce1"/><stop offset=".8538" stop-color="#adb9bd"/><stop offset="1" stop-color="#96a2a6"/></radialGradient><linearGradient id="i" gradientUnits="userSpaceOnUse" x1="33.3613" x2="48.6387" y1="25.8208" y2="41.0982"><stop offset="0" stop-color="#302c3b"/><stop offset=".4746" stop-color="#312e3d"/><stop offset=".7489" stop-color="#363742"/><stop offset=".972" stop-color="#3f454b"/><stop offset="1" stop-color="#40474d"/></linearGradient><radialGradient id="j" cx="584.2715" cy="38.9941" gradientTransform="matrix(.3583 .4654 -.5242 .4036 -154.4499 -262.5237)" gradientUnits="userSpaceOnUse" r="25.3169"><stop offset="0" stop-color="#fff" stop-opacity=".2"/><stop offset="1" stop-color="#fff" stop-opacity="0"/></radialGradient><linearGradient id="k" gradientUnits="userSpaceOnUse" x1="3" x2="20.3252" y1="35" y2="35"><stop offset="0" stop-color="#302c3b"/><stop offset=".0155" stop-color="#33313f"/><stop offset=".0989" stop-color="#3f4551"/><stop offset=".1937" stop-color="#47535d"/><stop offset=".3087" stop-color="#4c5b65"/><stop offset=".5" stop-color="#4e5e67"/><stop offset=".6307" stop-color="#4a5862"/><stop offset=".8028" stop-color="#414853"/><stop offset=".9973" stop-color="#302c3b"/><stop offset="1" stop-color="#302c3b"/></linearGradient><linearGradient id="l" gradientUnits="userSpaceOnUse" x1="18.2817" x2="18.2817" y1="34.5625" y2="2.0015"><stop offset="0" stop-color="#ff4d00"/><stop offset=".2986" stop-color="#ff7400"/><stop offset=".5819" stop-color="#ff9200"/><stop offset=".8251" stop-color="#ffa400"/><stop offset="1" stop-color="#fa0"/></linearGradient><linearGradient id="m" gradientUnits="userSpaceOnUse" x1="18.1758" x2="18.1758" y1="26.791" y2="9.2295"><stop offset="0" stop-color="#ffb500"/><stop offset=".0869" stop-color="#ffba00"/><stop offset=".6742" stop-color="#ffda00"/><stop offset="1" stop-color="#ffe600"/></linearGradient><linearGradient id="n" gradientUnits="userSpaceOnUse" x1="18.1758" x2="18.1758" y1="21.7275" y2="14.292"><stop offset="0" stop-color="#fff1a3"/><stop offset=".1596" stop-color="#fff4b6"/><stop offset=".5273" stop-color="#fffade"/><stop offset=".8203" stop-color="#fffef6"/><stop offset="1" stop-color="#fff"/></linearGradient><path d="m23.137 14.251h-8.274c-.253 0-.46.18-.46.4v1.6h9.193v-1.6c0-.22-.207-.4-.459-.4z" fill="url(#b)"/><g fill="#1a1626"><path d="m14.633 14.651h.459v1.6h-.459z" opacity=".2"/><path d="m15.552 14.651h.46v1.6h-.46z" opacity=".2"/><path d="m16.471 14.651h.461v1.6h-.461z" opacity=".2"/><path d="m17.391 14.651h.459v1.6h-.459z" opacity=".2"/><path d="m18.311 14.651h.459v1.6h-.459z" opacity=".2"/><path d="m19.229 14.651h.46v1.6h-.46z" opacity=".2"/><path d="m20.148 14.651h.46v1.6h-.46z" opacity=".2"/><path d="m21.068 14.651h.459v1.6h-.459z" opacity=".2"/><path d="m21.987 14.651h.46v1.6h-.46z" opacity=".2"/><path d="m22.906 14.651h.46v1.6h-.46z" opacity=".2"/></g><path d="m2 22.001h2v.999h-2z" fill="#cfd8dd"/><path d="m60 22.001h2v.999h-2z" fill="#cfd8dd"/><path d="m13.332 16.126h-7s.406-1.295.905-1.496c1.197-.486 3.993-.486 5.19 0 .55.221.996 1.783.905 1.496z" fill="url(#c)"/><path d="m8.804 14.126h2.058v2h-2.058z" fill="#cfd8dd"/><path d="m3 22.001h58v25.999h-58z" fill="url(#d)"/><path d="m59.031 50h-54.063c-1.968 0-1.968-2-1.968-2h58s0 2-1.969 2z" fill="url(#f)"/><path d="m61 14.948-1.477-.947s-20.447 0-28.598 0c-5.083 0-5.729 2.113-10.601 2.113-1.599 0-13.772 0-16.325 0-1 0-1 .85-1 .85v5.037h58v-7.053z" fill="url(#g)"/><circle cx="28.989" cy="44.813" fill="#99a8ae" r="2.687"/><circle cx="28.989" cy="44.813" fill="#302c3b" r="1.974"/><circle cx="41" cy="33.459" fill="url(#h)" r="15.5"/><circle cx="41" cy="33.459" fill="#1a1626" r="13.621"/><circle cx="40.999" cy="33.459" fill="#25222e" r="12.212"/><circle cx="41" cy="33.459" fill="url(#i)" r="10.803"/><circle cx="41" cy="33.459" fill="#302c3b" opacity=".2" r="6.74"/><circle cx="41" cy="33.459" fill="#35313d" r="7.045"/><circle cx="41" cy="33.459" fill="#272430" r="5.637"/><circle cx="40.999" cy="33.459" fill="#2d2a36" r="4.228"/><circle cx="41" cy="33.459" fill="#35313d" r="2.818"/><circle cx="41" cy="33.459" fill="#1a1626" r=".939"/><path d="m44.313 38.18c-3.785 2.92-8.956 2.557-11.542-.807-2.592-3.365-1.621-8.455 2.168-11.371 3.788-2.924 8.959-2.557 11.551.805 2.594 3.367 1.615 8.46-2.177 11.373z" fill="url(#j)"/><circle cx="24.299" cy="19.058" fill="#4e5e67" r="1.5"/><circle cx="24.299" cy="19.058" fill="#99a8ae" r="1"/><circle cx="24.299" cy="19.058" fill="#1a1626" r=".65"/><path d="m3 22.001h17.325v25.999h-17.325z" fill="url(#k)"/><path d="m24.741 20.017 9.822-5.446-11.018.483 3.27-6.76-5.965 4.242.736-9.316-4.342 7.681-6.533-8.9 2.806 11.086-9.802-3.254 7.812 7.139-9.527 1.851 9.132 2.08-5.123 9.142 8.383-5.066.347 9.584 3.435-8.752 4.615 6.924-.254-8.319 7.954 3.038z" fill="url(#l)"/><path d="m21.892 19.19 5.748-2.669-6.377-.186 1.713-3.789-3.378 1.932.124-5.153-2.268 4.299-3.414-4.395 1.492 5.534-5.695-1.44 4.652 4.014-5.777 1.355 5.289 1.219-3.729 5.714 5.717-3.87.155 5.036 2.054-4.601 2.319 3.435-.039-4.161 4.177 1.832z" fill="url(#m)"/><path d="m19.749 18.507 2.434-1.125-2.701-.084.727-1.604-1.431.823.054-2.186-.962 1.818-1.445-1.857.634 2.346-2.413-.614 1.969 1.7-2.446.576 2.238.515-1.575 2.42 2.419-1.64.066 2.133.869-1.95.983 1.457-.017-1.759 1.769.775z" fill="url(#n)"/></svg>