<svg enable-background="new 0 0 64 64" height="64" viewBox="0 0 64 64" width="64" xmlns="http://www.w3.org/2000/svg" xmlns:xlink="http://www.w3.org/1999/xlink"><linearGradient id="a" gradientUnits="userSpaceOnUse" x1="32.0005" x2="32.0005" y1="24" y2="14"><stop offset="0" stop-color="#5b666e"/><stop offset=".3887" stop-color="#494e59"/><stop offset="1" stop-color="#302c3b"/></linearGradient><linearGradient id="b" gradientUnits="userSpaceOnUse" x1="32.0005" x2="32.0005" y1="50" y2="5.5379"><stop offset="0" stop-color="#3a3647"/><stop offset=".7283" stop-color="#515863"/><stop offset="1" stop-color="#5b666e"/></linearGradient><radialGradient id="c" cx="32" cy="33" gradientTransform="matrix(1 0 0 .4635 0 17.7036)" gradientUnits="userSpaceOnUse" r="31.0197"><stop offset=".5091" stop-color="#effaff"/><stop offset=".5847" stop-color="#e7f2f7"/><stop offset=".7028" stop-color="#d1dce1"/><stop offset=".8478" stop-color="#adb9bd"/><stop offset=".9273" stop-color="#96a2a6"/></radialGradient><linearGradient id="d" gradientUnits="userSpaceOnUse" x1="7.999" x2="33.1426" y1="33" y2="33"><stop offset="0" stop-color="#5b666e"/><stop offset=".0078" stop-color="#58626a"/><stop offset=".0596" stop-color="#464a55"/><stop offset=".1147" stop-color="#3a3947"/><stop offset=".175" stop-color="#322f3e"/><stop offset=".25" stop-color="#302c3b"/></linearGradient><linearGradient id="e" gradientUnits="userSpaceOnUse" x1="35.4277" x2="51.4297" y1="33" y2="33"><stop offset=".75" stop-color="#302c3b"/><stop offset=".825" stop-color="#322f3e"/><stop offset=".8853" stop-color="#3a3947"/><stop offset=".9404" stop-color="#464a55"/><stop offset=".9922" stop-color="#58626a"/><stop offset="1" stop-color="#5b666e"/></linearGradient><path d="m2 14v9c0 .55.449 1 1 1h58c.549 0 1-.45 1-1v-9z" fill="url(#a)"/><path d="m60 24v-6h-56v6h-2v24.01c0 1.095.9 1.99 2 1.99h56c1.1 0 2-.895 2-1.99v-24.01z" fill="url(#b)"/><path d="m55.52 24h-47.04c-2.476 0-4.48 4.029-4.48 9s2.004 9 4.48 9h47.04c2.475 0 4.48-4.029 4.48-9s-2.006-9-4.48-9z" fill="#4e5e67"/><path d="m55.959 25h-47.971c-.665.202-2.898 2.978-2.898 8s2.234 7.793 2.951 8h47.936c.73-.248 2.934-3.02 2.934-8-.001-5.022-2.235-7.793-2.952-8z" fill="url(#c)"/><path d="m30.268 41c1.796-2.174 2.875-4.959 2.875-8 0-3.039-1.078-5.827-2.875-8h-19.396c-1.795 2.173-2.873 4.961-2.873 8 0 3.041 1.078 5.826 2.873 8z" fill="url(#d)"/><circle cx="20.571" cy="33" fill="#e6ebef" r="5.715"/><path d="m17.535 37.117.569-.989c-.778-.623-1.326-1.521-1.475-2.557h-1.143c.162 1.456.937 2.714 2.049 3.546z" fill="#6e8189"/><path d="m17.535 28.883c-1.112.833-1.887 2.089-2.049 3.545h1.143c.149-1.036.697-1.935 1.475-2.557z" fill="#6e8189"/><path d="m20.57 30.714c-1.261 0-2.285 1.024-2.285 2.286 0 1.264 1.024 2.286 2.285 2.286z" fill="#4e5e67"/><path d="m20.57 27.857c-.733 0-1.424.167-2.053.444l.571.988c.458-.183.956-.289 1.482-.289z" fill="#6e8189"/><path d="m20.57 37c-.526 0-1.024-.107-1.482-.289l-.571.986c.629.278 1.319.445 2.053.445z" fill="#6e8189"/><path d="m51.02 25-.715 10 1.115-1.69.313-8.31z" fill="#302c3b"/><circle cx="43.429" cy="33" fill="url(#e)" r="8.001"/><circle cx="43.43" cy="33" fill="#e6ebef" r="5.715"/><path d="m46.465 37.117-.57-.989c.777-.623 1.327-1.521 1.477-2.557h1.143c-.163 1.456-.938 2.714-2.05 3.546z" fill="#6e8189"/><path d="m46.465 28.883c1.112.833 1.887 2.089 2.049 3.545h-1.143c-.149-1.036-.699-1.935-1.477-2.557z" fill="#6e8189"/><path d="m43.43 30.714c1.262 0 2.285 1.024 2.285 2.286 0 1.264-1.023 2.286-2.285 2.286z" fill="#4e5e67"/><path d="m43.43 27.857v1.143c.524 0 1.021.107 1.482.29l.568-.988c-.628-.278-1.317-.445-2.05-.445z" fill="#6e8189"/><path d="m44.912 36.711c-.461.182-.958.289-1.482.289v1.143c.733 0 1.422-.167 2.051-.445z" fill="#6e8189"/><path d="m21 24h22v18h-22z" fill="#4e5e67"/><path d="m42 39.75c0 .688-.563 1.25-1.25 1.25h-17.5c-.687 0-1.25-.562-1.25-1.25v-13.5c0-.688.563-1.25 1.25-1.25h17.5c.688 0 1.25.563 1.25 1.25z" fill="#302c3b"/><path d="m41.5 26.5c0-.55-.45-1-1-1h-17c-.55 0-1 .45-1 1v3h19z" fill="#018bc9"/><path d="m22.5 29.5v10c0 .55.45 1 1 1h17c.55 0 1-.45 1-1v-10z" fill="#fff"/><g fill="#99a8ae"><path d="m24 30.75h16v.25h-16z"/><path d="m24 32.813h16v.25h-16z"/><path d="m24 34.875h16v.25h-16z"/><path d="m24 39h16v.25h-16z"/><path d="m24 36.938h16v.25h-16z"/></g></svg>