<svg enable-background="new 0 0 64 64" height="64" viewBox="0 0 64 64" width="64" xmlns="http://www.w3.org/2000/svg" xmlns:xlink="http://www.w3.org/1999/xlink"><linearGradient id="a" gradientTransform="matrix(.7071 .7071 -.7071 .7071 -191.0234 -18.2829)" gradientUnits="userSpaceOnUse" x1="193.6113" x2="204.2168" y1="-129.415" y2="-129.415"><stop offset="0" stop-color="#8e9da3"/><stop offset=".4214" stop-color="#87969c"/><stop offset="1" stop-color="#768489"/></linearGradient><linearGradient id="b"><stop offset="0" stop-color="#5b666e"/><stop offset=".0868" stop-color="#4c525d"/><stop offset=".1974" stop-color="#40414d"/><stop offset=".3334" stop-color="#373543"/><stop offset=".5205" stop-color="#312e3d"/><stop offset="1" stop-color="#302c3b"/></linearGradient><linearGradient id="c" gradientTransform="matrix(.7071 .7071 -.7071 .7071 -191.0234 -18.2829)" gradientUnits="userSpaceOnUse" x1="192.7275" x2="205.1016" xlink:href="#b" y1="-143.061" y2="-143.061"/><linearGradient id="d" gradientTransform="matrix(.7071 .7071 -.7071 .7071 -191.0234 -18.2829)" gradientUnits="userSpaceOnUse" x1="190.8555" x2="206.9766" xlink:href="#b" y1="-148.4053" y2="-148.4053"/><linearGradient id="e" gradientUnits="userSpaceOnUse" x1="4.2734" x2="4.2734" y1="46.2241" y2="29.0063"><stop offset=".5394" stop-color="#747a7d"/><stop offset="1" stop-color="#c1cfd6"/></linearGradient><linearGradient id="f" gradientUnits="userSpaceOnUse" x1="6.8911" x2="6.8911" y1="46.2241" y2="29.0063"><stop offset=".1576" stop-color="#858c8f"/><stop offset=".6364" stop-color="#d6e5ed"/><stop offset=".707" stop-color="#d0dfe6"/><stop offset=".8081" stop-color="#c0cdd3"/><stop offset=".9271" stop-color="#a5afb4"/><stop offset="1" stop-color="#919a9e"/></linearGradient><linearGradient id="g" gradientUnits="userSpaceOnUse" x1="31.6294" x2="31.6294" y1="60.5322" y2="29.0063"><stop offset="0" stop-color="#768489"/><stop offset=".5786" stop-color="#87969c"/><stop offset="1" stop-color="#8e9da3"/></linearGradient><linearGradient id="h" gradientUnits="userSpaceOnUse" x1="36.0679" x2="36.0679" y1="56.6596" y2="38.6596"><stop offset="0" stop-color="#302c3b"/><stop offset=".5128" stop-color="#454853"/><stop offset="1" stop-color="#5b666e"/></linearGradient><path d="m50.953 28.544-12.131 12.13-6.769-6.77 5.335-6.794 6.065-6.064z" fill="url(#a)"/><path d="m56.752 23.996-3.111 3.111s-5.941-3.25-8.749-8.75l3.109-3.11c5.456 3.067 8.751 8.749 8.751 8.749z" fill="url(#c)"/><path d="m61.918 21.481-4.438 1.786s-5.164-3.247-8.75-8.748l1.787-4.437c5.282 4.215 11.401 11.399 11.401 11.399z" fill="url(#d)"/><g fill="#1a1626"><path d="m44.892 18.359-1.359 2.091-.08.596 7.5 7.498.595-.078 2.094-1.359z"/><path d="m62 20.837-10.838-10.837-.644.083 11.4 11.398z"/><path d="m57.48 23.268-8.75-8.748-.082.645-.647.082 8.751 8.749.082-.644z"/></g><path d="m7.287 45.092v12.478c0 .543.443.988.986.988h2.96v-13.466z" fill="#5a6367"/><path d="m3.522 46.224c-.453 0-1.522-.989-1.522-.989v-15.241s1.069-.988 1.522-.988c4.378 0 3.67 17.218 0 17.218z" fill="url(#e)"/><path d="m3.522 29.006h6.737v17.218h-6.737z" fill="url(#f)"/><path d="m28.035 28h5.919v1.563h-5.919z" fill="#b3c2c6"/><path d="m28.035 28.597h5.919v1.563h-5.919z" fill="#6e8189"/><path d="m53.515 60.532h-44.256l.001-31.526h25.614s.231 1.636 2.452 1.636c4.467 0 16.674-.001 16.674-.001v4.733l-.999 1-.001 22.571.515.491z" fill="url(#g)"/><path d="m51.55 62c-12.103-.001-29.726 0-39.839-.001-2.451 0-2.452-1.467-2.452-1.467h44.256s.04 1.467-1.965 1.468z" fill="#5a6367"/><path d="m21.765 36.374c-.532 0-1.068.403-1.188.896l-.82 2.664c-.122.551-.658 1.002-1.191 1.002h-1.28c-.529 0-1.629.063-1.629 1.219l.001 11.113c0 .871.911 1.115 1.443 1.115l1.465-.001c.534 0 1.07.45 1.191 1.003l.819 2.662c.122.492.657.896 1.19.896l31.234.002.001-22.571z" fill="#5a6367"/><path d="m20.574 41.154-3.723-.001c-.544.001-.988.445-.988.988v11.035c.001.543.445.988.988.989l3.723-.001z" fill="#99a8ae"/><path d="m51.76 37.646c.001-.543-.454-.986-1.01-.987l-28.664.001c-.555 0-1.136.428-1.288.949l-.76 2.604c-.152.522-.277 1.394-.278 1.936v11.022c.001.543.125 1.413.278 1.936l.76 2.604c.152.521.732.948 1.289.948h28.663c.556 0 1.01-.444 1.011-.986z" fill="#7f8e94"/><path d="m49.068 39.643c0-.542-.443-.983-.985-.983h-24.027c-.543 0-.987.441-.987.983v16.032c0 .542.445.984.988.984l24.027-.001c.541.001.984-.441.984-.983z" fill="url(#h)"/></svg>