<svg enable-background="new 0 0 64 64" height="64" viewBox="0 0 64 64" width="64" xmlns="http://www.w3.org/2000/svg" xmlns:xlink="http://www.w3.org/1999/xlink"><radialGradient id="a" cx="31.9991" cy="31.9996" gradientUnits="userSpaceOnUse" r="26.2001"><stop offset="0" stop-color="#545061"/><stop offset=".2793" stop-color="#464253"/><stop offset=".6105" stop-color="#312d3d"/><stop offset=".7961" stop-color="#211d2d"/><stop offset=".9556" stop-color="#1a1626"/></radialGradient><linearGradient id="b" gradientUnits="userSpaceOnUse" x1="16.9976" x2="47.0025" y1="6.015" y2="57.985"><stop offset="0" stop-color="#ff3b3b"/><stop offset=".2558" stop-color="#fb3737"/><stop offset=".5207" stop-color="#f02b2a"/><stop offset=".7889" stop-color="#dd1616"/><stop offset="1" stop-color="#c90100"/></linearGradient><path d="m7.368 23.676c-11.1 32.841 38.163 49.489 49.262 16.648 11.1-32.842-38.161-49.49-49.262-16.648z" fill="url(#a)"/><path d="m37.766 14.996h-11.533c-2.123 0-3.844 1.691-3.844 3.779v26.449c0 2.088 1.721 3.779 3.844 3.779h11.532c2.124 0 3.845-1.691 3.845-3.779v-26.449c0-2.087-1.72-3.779-3.844-3.779zm-7.647 1.379h3.761c.266 0 .481.213.481.473 0 .262-.216.473-.481.473h-3.761c-.266 0-.48-.211-.48-.473 0-.26.215-.473.48-.473zm1.881 30.727c-.637 0-1.153-.508-1.153-1.133s.517-1.133 1.153-1.133c.638 0 1.153.508 1.153 1.133s-.515 1.133-1.153 1.133zm7.688-4.143h-15.376v-24.184h15.377z" fill="#fff"/><path d="m32 2c-16.568 0-30 13.432-30 30s13.432 30 30 30 30-13.432 30-30-13.432-30-30-30zm24 30c0 5.546-1.886 10.649-5.045 14.713l-33.667-33.668c4.063-3.159 9.166-5.045 14.712-5.045 13.254 0 24 10.746 24 24zm-48 0c0-5.546 1.886-10.648 5.045-14.712l33.666 33.668c-4.063 3.158-9.166 5.044-14.711 5.044-13.256 0-24-10.744-24-24z" fill="url(#b)"/></svg>