<svg enable-background="new 0 0 64 64" height="64" viewBox="0 0 64 64" width="64" xmlns="http://www.w3.org/2000/svg" xmlns:xlink="http://www.w3.org/1999/xlink"><linearGradient id="a"><stop offset="0" stop-color="#ff2121"/><stop offset=".2778" stop-color="#fb1f1f"/><stop offset=".537" stop-color="#f0181b"/><stop offset=".7879" stop-color="#dd0d13"/><stop offset="1" stop-color="#c7000a"/></linearGradient><linearGradient id="b" gradientUnits="userSpaceOnUse" x1="34.125" x2="37.7351" xlink:href="#a" y1="35.959" y2="39.5691"/><linearGradient id="c"><stop offset="0" stop-color="#eb0000"/><stop offset=".3476" stop-color="#bf0002"/><stop offset="1" stop-color="#630005"/></linearGradient><linearGradient id="d" gradientUnits="userSpaceOnUse" x1="37.9268" x2="41.5369" xlink:href="#c" y1="31.7061" y2="35.3162"/><linearGradient id="e" gradientUnits="userSpaceOnUse" x1="13.1333" x2="16.7434" xlink:href="#c" y1="6.0054" y2="9.6155"/><linearGradient id="f"><stop offset="0" stop-color="#eb0000"/><stop offset=".2198" stop-color="#e70000"/><stop offset=".4249" stop-color="#dc0001"/><stop offset=".6243" stop-color="#c90003"/><stop offset=".8187" stop-color="#af0005"/><stop offset="1" stop-color="#8f0007"/></linearGradient><linearGradient id="g" gradientUnits="userSpaceOnUse" x1="26.3926" x2="30.0034" xlink:href="#f" y1="6.1294" y2="9.7402"/><linearGradient id="h" gradientUnits="userSpaceOnUse" x1="28.9165" x2="32.5266" xlink:href="#c" y1="45.9385" y2="49.5486"/><linearGradient id="i" gradientUnits="userSpaceOnUse" x1="43.4697" x2="47.0805" xlink:href="#f" y1="29.4653" y2="33.0761"/><linearGradient id="j" gradientUnits="userSpaceOnUse" x1="49.3213" x2="52.9314" xlink:href="#f" y1="28.6538" y2="32.2639"/><linearGradient id="k" gradientUnits="userSpaceOnUse" x1="54.8398" x2="58.4493" xlink:href="#c" y1="27.0181" y2="30.6275"/><linearGradient id="l" gradientUnits="userSpaceOnUse" x1="57.5908" x2="61.2016" xlink:href="#f" y1="21.8296" y2="25.4404"/><linearGradient id="m" gradientUnits="userSpaceOnUse" x1="56.127" x2="59.7371" xlink:href="#c" y1="16.0571" y2="19.6672"/><linearGradient id="n" gradientUnits="userSpaceOnUse" x1="7.6753" x2="11.2854" xlink:href="#c" y1="8.7231" y2="12.3333"/><linearGradient id="o" gradientUnits="userSpaceOnUse" x1="53.1484" x2="56.7592" xlink:href="#c" y1="10.6606" y2="14.2714"/><linearGradient id="p" gradientUnits="userSpaceOnUse" x1="49.5195" x2="53.1296" xlink:href="#f" y1="5.9731" y2="9.5833"/><linearGradient id="q" gradientUnits="userSpaceOnUse" x1="44.1758" x2="47.7859" xlink:href="#a" y1="2.7896" y2="6.3997"/><linearGradient id="r" gradientUnits="userSpaceOnUse" x1="32.7085" x2="36.3186" xlink:href="#a" y1="4.4214" y2="8.0315"/><linearGradient id="s" gradientUnits="userSpaceOnUse" x1="38.2871" x2="41.8972" xlink:href="#c" y1="2.7886" y2="6.3987"/><linearGradient id="t" gradientUnits="userSpaceOnUse" x1="3.8008" x2="7.4102" xlink:href="#f" y1="13.7554" y2="17.3648"/><linearGradient id="u" gradientUnits="userSpaceOnUse" x1="19.5498" x2="23.1592" xlink:href="#f" y1="5.3398" y2="8.9493"/><linearGradient id="v" gradientUnits="userSpaceOnUse" x1="2.7998" x2="6.4099" xlink:href="#f" y1="20.0884" y2="23.6985"/><linearGradient id="w" gradientUnits="userSpaceOnUse" x1="4.4746" x2="8.0847" xlink:href="#c" y1="26.4688" y2="30.0789"/><linearGradient id="x" gradientUnits="userSpaceOnUse" x1="6.3521" x2="9.9629" xlink:href="#c" y1="31.9282" y2="35.539"/><linearGradient id="y" gradientUnits="userSpaceOnUse" x1="8.5083" x2="12.1184" xlink:href="#a" y1="37.876" y2="41.4861"/><linearGradient id="z" gradientUnits="userSpaceOnUse" x1="12.0044" x2="15.6159" xlink:href="#f" y1="43.4688" y2="47.0802"/><linearGradient id="A" gradientUnits="userSpaceOnUse" x1="17.0269" x2="20.637" xlink:href="#c" y1="47.5723" y2="51.1824"/><linearGradient id="B" gradientUnits="userSpaceOnUse" x1="23.4854" x2="27.0955" xlink:href="#f" y1="48.4385" y2="52.0486"/><linearGradient id="C" gradientUnits="userSpaceOnUse" x1="33.5186" x2="37.1287" xlink:href="#f" y1="41.9482" y2="45.5584"/><linearGradient id="D"><stop offset="0" stop-color="#d6e5ed"/><stop offset="1" stop-color="#858c8f"/></linearGradient><radialGradient id="E" cx="-334.708" cy="-585.6787" gradientTransform="matrix(.3625 -.932 .932 .3625 704.7511 -54.5152)" gradientUnits="userSpaceOnUse" r="1.2703" xlink:href="#D"/><linearGradient id="F" gradientTransform="matrix(.3625 -.932 .932 .3625 704.7511 -54.5152)" gradientUnits="userSpaceOnUse" x1="-336.6621" x2="-333.4438" xlink:href="#f" y1="-584.1626" y2="-584.1626"/><radialGradient id="G" cx="-335.1836" cy="-581.4268" gradientTransform="matrix(.3625 -.932 .932 .3625 704.7511 -54.5152)" gradientUnits="userSpaceOnUse" r="2.1207" xlink:href="#D"/><linearGradient id="H" gradientTransform="matrix(.3625 -.932 .932 .3625 704.7511 -54.5152)" gradientUnits="userSpaceOnUse" x1="-337.2417" x2="-333.8354" xlink:href="#f" y1="-578.9561" y2="-578.9561"/><path d="m22.686 51.142c-10.571 0-15.66-16.628-18.568-29.135-.774-3.33.003-6.679 2.187-9.429 3.091-3.894 8.672-6.218 14.926-6.218 2.374 0 4.82.325 7.272.966 1.142.302 3.003-.477 5.155-1.418 2.52-1.101 5.655-2.472 8.986-2.472 4.911 0 9.105 2.933 12.823 8.965 4.401 7.143 5.81 11.817 4.433 14.71-1.457 3.06-5.727 3.617-10.247 4.207-7.263.948-14.771 1.928-13.833 12.389l.021.234-.166.166c-4.696 4.667-9.066 7.035-12.989 7.035zm-1.455-43.782c-5.952 0-11.24 2.183-14.145 5.84-2.02 2.543-2.709 5.51-1.995 8.581 2.831 12.176 7.734 28.361 17.594 28.361 3.605 0 7.682-2.213 12.12-6.579-.885-11.2 7.762-12.327 14.719-13.235 4.243-.554 8.251-1.077 9.475-3.645 1.2-2.522-.232-7.022-4.382-13.756-3.52-5.713-7.436-8.49-11.972-8.49-3.122 0-6.025 1.269-8.586 2.388-2.34 1.022-4.353 1.85-5.81 1.469-2.368-.62-4.729-.934-7.018-.934z" fill="#594640"/><path d="m37.737 35.96c-2.41-2.399-6.029 1.202-3.617 3.605 2.412 2.401 6.031-1.202 3.617-3.605z" fill="url(#b)"/><path d="m41.54 31.708c-2.41-2.399-6.029 1.202-3.617 3.604 2.412 2.401 6.031-1.201 3.617-3.604z" fill="url(#d)"/><path d="m16.746 6.007c-2.41-2.399-6.029 1.202-3.617 3.604 2.412 2.401 6.031-1.2 3.617-3.604z" fill="url(#e)"/><path d="m30.006 6.132c-2.41-2.399-6.029 1.202-3.617 3.604 2.412 2.401 6.031-1.201 3.617-3.604z" fill="url(#g)"/><path d="m32.53 45.94c-2.412-2.4-6.029 1.202-3.619 3.604 2.412 2.401 6.031-1.201 3.619-3.604z" fill="url(#h)"/><path d="m47.085 29.468c-2.412-2.4-6.031 1.202-3.619 3.605 2.412 2.402 6.029-1.201 3.619-3.605z" fill="url(#i)"/><path d="m52.935 28.656c-2.41-2.399-6.031 1.202-3.617 3.605 2.41 2.4 6.029-1.2 3.617-3.605z" fill="url(#j)"/><path d="m58.453 27.02c-2.41-2.399-6.029 1.202-3.617 3.605 2.41 2.4 6.029-1.201 3.617-3.605z" fill="url(#k)"/><path d="m61.205 21.832c-2.412-2.4-6.029 1.202-3.619 3.605 2.412 2.4 6.031-1.201 3.619-3.605z" fill="url(#l)"/><path d="m59.741 16.059c-2.412-2.4-6.031 1.201-3.619 3.605 2.412 2.4 6.029-1.202 3.619-3.605z" fill="url(#m)"/><path d="m11.29 8.726c-2.412-2.4-6.031 1.201-3.619 3.605 2.412 2.399 6.029-1.202 3.619-3.605z" fill="url(#n)"/><path d="m56.763 10.664c-2.412-2.401-6.029 1.201-3.619 3.604 2.412 2.4 6.031-1.201 3.619-3.604z" fill="url(#o)"/><path d="m53.132 5.975c-2.41-2.399-6.029 1.202-3.617 3.605 2.412 2.4 6.029-1.202 3.617-3.605z" fill="url(#p)"/><path d="m47.789 2.792c-2.412-2.4-6.029 1.202-3.617 3.604 2.412 2.4 6.029-1.201 3.617-3.604z" fill="url(#q)"/><path d="m36.321 4.423c-2.412-2.4-6.029 1.202-3.617 3.604 2.412 2.401 6.029-1.2 3.617-3.604z" fill="url(#r)"/><path d="m41.901 2.791c-2.412-2.399-6.031 1.201-3.619 3.605 2.412 2.401 6.03-1.202 3.619-3.605z" fill="url(#s)"/><path d="m7.415 13.757c-2.414-2.399-6.031 1.202-3.619 3.605 2.41 2.4 6.029-1.201 3.619-3.605z" fill="url(#t)"/><path d="m23.164 5.342c-2.414-2.399-6.031 1.202-3.619 3.605 2.41 2.4 6.029-1.202 3.619-3.605z" fill="url(#u)"/><path d="m6.414 20.09c-2.412-2.399-6.031 1.202-3.619 3.605 2.412 2.401 6.029-1.201 3.619-3.605z" fill="url(#v)"/><path d="m8.089 26.471c-2.412-2.4-6.029 1.201-3.619 3.604 2.412 2.401 6.031-1.2 3.619-3.604z" fill="url(#w)"/><path d="m9.967 31.931c-2.412-2.4-6.031 1.202-3.619 3.605 2.412 2.4 6.029-1.201 3.619-3.605z" fill="url(#x)"/><path d="m12.121 37.878c-2.41-2.4-6.029 1.201-3.617 3.604s6.031-1.202 3.617-3.604z" fill="url(#y)"/><path d="m15.618 43.471c-2.41-2.399-6.031 1.202-3.617 3.605 2.412 2.402 6.031-1.201 3.617-3.605z" fill="url(#z)"/><path d="m20.64 47.573c-2.41-2.4-6.029 1.203-3.617 3.605 2.412 2.401 6.029-1.2 3.617-3.605z" fill="url(#A)"/><path d="m27.099 48.44c-2.41-2.4-6.029 1.201-3.617 3.605 2.41 2.401 6.029-1.2 3.617-3.605z" fill="url(#B)"/><path d="m37.132 41.95c-2.41-2.4-6.029 1.201-3.617 3.605 2.41 2.401 6.029-1.201 3.617-3.605z" fill="url(#C)"/><path d="m60.378 44.289-.688-.575c-4.007 4.794-16.707 4.061-16.707 4.061s4.774 11.498 15.228 12.701l.019-.896c-5.292-.112-9.847-4.814-12.461-8.222 3.739 3.287 10.091 7.873 14.577 5.855l-.367-.816c-3.63 1.633-8.902-1.803-12.534-4.805 3.746 2.123 9.116 4.328 13.825 3.092l-.228-.867c-4.05 1.064-8.761-.679-12.311-2.565 3.899 1.372 8.995 2.351 13.269.462l-.361-.818c-4.654 2.057-10.536.398-14.423-1.209 3.709.68 9.235.973 14.401-1.538l-.392-.806c-5.266 2.559-11.062 2.027-14.629 1.286 4.175-.087 10.832-.81 13.782-4.34z" fill="#4e5e67"/><path d="m59.688 43.403-.539-.715c-6.802 5.109-16.028 4.971-16.12 4.969 0 0 3.795 11.865 14.752 14.343l.197-.873c-7.926-1.834-12.059-8.628-12.749-10.286.113.115 6.357 9.089 14.079 8.361l-.114-.888c-5.015.646-10.115-3.866-13.118-7.169 3.479 2.505 9.123 5.734 14.4 5.053l-.113-.888c-4.878.63-10.042-2.145-13.26-4.343 3.164 1.909 8.119 3.697 14.704 2.393l-.28-.85c-4.432 1.465-10.039-.494-13.862-2.329 3.864 1.042 9.356 1.847 13.861-.108l-.354-.822c-4.504 1.953-10.225.934-13.986-.152 4.361.35 10.883.213 13.739-3.205l-.688-.574c-2.545 3.046-8.607 3.199-12.791 2.887 3.402-.509 8.178-1.751 12.242-4.804z" fill="#38444a"/><path d="m38.116 43.774c1.275.496.207 3.244-1.069 2.748s-.208-3.244 1.069-2.748z" fill="url(#E)"/><path d="m39.453 44.52c1.392.542.225 3.54-1.167 2.999s-.225-3.54 1.167-2.999z" fill="url(#F)"/><path d="m42.06 45.366c2.888 1.123 1.514 4.656-1.375 3.533-2.888-1.123-1.514-4.656 1.375-3.533z" fill="url(#G)"/><path d="m44.163 46.771c1.474.573.239 3.747-1.233 3.175-1.475-.573-.24-3.748 1.233-3.175z" fill="url(#H)"/></svg>