<svg enable-background="new 0 0 64 64" height="64" viewBox="0 0 64 64" width="64" xmlns="http://www.w3.org/2000/svg" xmlns:xlink="http://www.w3.org/1999/xlink"><linearGradient id="a" gradientUnits="userSpaceOnUse" x1="31.9995" x2="31.9995" y1="2" y2="62.0005"><stop offset="0" stop-color="#f90"/><stop offset=".2875" stop-color="#ff9500"/><stop offset=".5853" stop-color="#f80"/><stop offset=".8868" stop-color="#ff7400"/><stop offset="1" stop-color="#ff6a00"/></linearGradient><path d="m62 54c0 4.399-3.6 8-8 8h-44c-4.4 0-8-3.601-8-8v-44c0-4.4 3.6-8 8-8h44c4.4 0 8 3.6 8 8z" fill="url(#a)"/><g fill="#fff"><path d="m38.801 12h-13.601c-2.5 0-4.5 2-4.5 4.4v31.1c0 2.5 2 4.4 4.5 4.4h13.601c2.5 0 4.5-2 4.5-4.4v-31.1c0-2.4-2-4.4-4.5-4.4zm-9.001 1.6h4.399c.301 0 .602.2.602.601 0 .3-.301.6-.602.6h-4.399c-.301 0-.601-.2-.601-.6.101-.301.301-.601.601-.601zm2.2 36.2c-.8 0-1.4-.6-1.4-1.3s.601-1.3 1.4-1.3c.801 0 1.401.6 1.401 1.3s-.601 1.3-1.401 1.3zm9.1-4.9h-18.1v-28.4h18.1c0-.1 0 28.4 0 28.4z"/><path d="m18.6 19.1c-7.2 8.3-5 20.6.1 25.8.3.3.7-.2.5-.601-4-6.7-4.5-17.399 0-24.7.2-.399-.3-.799-.6-.499z"/><path d="m13.2 41.8c-3.3-5.399-3.7-14.2 0-20.2.2-.3-.2-.699-.5-.399-5.9 6.799-4.1 16.799.1 20.999.3.4.6 0 .4-.4z"/><path d="m45.4 44.9c7.199-8.301 5-20.601-.1-25.801-.3-.299-.7.201-.499.601 4 6.7 4.5 17.399 0 24.7-.201.4.299.8.599.5z"/><path d="m50.801 22.2c3.299 5.399 3.699 14.2 0 20.2-.201.3.199.7.5.4 5.898-6.8 4.1-16.8-.102-21-.299-.4-.599 0-.398.4z"/></g></svg>