<svg enable-background="new 0 0 64 64" height="64" viewBox="0 0 64 64" width="64" xmlns="http://www.w3.org/2000/svg" xmlns:xlink="http://www.w3.org/1999/xlink"><linearGradient id="a" gradientUnits="userSpaceOnUse" x1="39" x2="39" y1="61" y2="3.0005"><stop offset="0" stop-color="#58636b"/><stop offset=".0225" stop-color="#525964"/><stop offset=".0737" stop-color="#494858"/><stop offset=".13" stop-color="#433e51"/><stop offset=".2" stop-color="#413b4f"/><stop offset=".9" stop-color="#413b4f"/><stop offset=".935" stop-color="#433e51"/><stop offset=".9631" stop-color="#494858"/><stop offset=".9888" stop-color="#525964"/><stop offset="1" stop-color="#58636b"/></linearGradient><radialGradient id="b" cx="39.501" cy="60.8887" gradientTransform="matrix(1 0 0 .6847 -.000488 19.1959)" gradientUnits="userSpaceOnUse" r="106.2294"><stop offset=".1091" stop-color="#ffea80"/><stop offset=".3818" stop-color="#190bb0"/><stop offset=".4046" stop-color="#180aa2"/><stop offset=".4899" stop-color="#150674"/><stop offset=".5717" stop-color="#120450"/><stop offset=".6477" stop-color="#100236"/><stop offset=".7159" stop-color="#0f0026"/><stop offset=".7697" stop-color="#0f0021"/></radialGradient><linearGradient id="c" gradientUnits="userSpaceOnUse" x1="9.753412" x2="68.246912" y1="61.248" y2="2.7546"><stop offset=".2" stop-color="#ff00b7" stop-opacity="0"/><stop offset=".47" stop-color="#57dcff" stop-opacity=".5"/><stop offset=".52" stop-color="#57dcff" stop-opacity=".5"/><stop offset=".8" stop-color="#ff00b7" stop-opacity="0"/></linearGradient><linearGradient id="d" gradientTransform="matrix(.7071 -.7071 .7071 .7071 -181.5416 161.3828)" gradientUnits="userSpaceOnUse" x1="239.1494" x2="262.0742" y1="61.3164" y2="61.3164"><stop offset=".2485" stop-color="#02005e" stop-opacity="0"/><stop offset=".5" stop-color="#02005e"/><stop offset="1" stop-color="#02005e" stop-opacity="0"/></linearGradient><linearGradient id="e" gradientUnits="userSpaceOnUse" x1="12" x2="12" y1="42" y2="22.0005"><stop offset="0" stop-color="#018bc9"/><stop offset=".2685" stop-color="#058ecb"/><stop offset=".5268" stop-color="#1097d3"/><stop offset=".7799" stop-color="#24a6df"/><stop offset="1" stop-color="#3bb8ed"/></linearGradient><path d="m54 58c0 1.65-1.35 3-3 3h-24c-1.65 0-3-1.35-3-3v-52c0-1.649 1.35-3 3-3h24c1.65 0 3 1.351 3 3z" fill="url(#a)"/><path d="m41.574 5h-5.148c-.568 0-.568-1 0-1h5.148c.567 0 .567 1 0 1z" fill="#1a1626"/><path d="m29.303 4.5c0 1-1.5 1-1.5 0s1.5-1 1.5 0z" fill="#6e8189"/><path d="m51 6h-24c-1.1 0-2 .9-2 2v48c0 1.102.9 2 2 2h24c1.1 0 2-.898 2-2v-48c0-1.1-.9-2-2-2z" fill="url(#b)"/><path d="m51 6h-24c-1.1 0-2 .9-2 2v48c0 1.102.9 2 2 2h24c1.1 0 2-.898 2-2v-48c0-1.1-.9-2-2-2z" fill="url(#c)"/><path d="m51.025 29.757c-1.033-.992-3.395 1.243-4.037-.393-1.197-3.044-2.834 1.588-4.457-1.592-.918-1.798-2.15 1.585-3.996-.149-1.029-.966 4.287-3.221-.975-2.636-1.748.194-1.184-1.44-2.182-1.943-1.221-.614-1.041-3.475-2.271-2.315-1.33 1.254-2.217-4.486-3.004-1.807-.869 2.963-2.586-1.242-3.59-.866-3.027 1.132 2.418-3.856-.291-4.152-.512-.056-.904-.078-1.223-.098v10.702c.646 1.029 1.404 1.684 2.57.771 2.402-1.881-2.346 8.021.574 6.857 1.328-.529 6.818-1.365 6.346.377-1.754 6.455 2.395 1.047 4.758.928 4.143-.207-3.236 8.104 1.078 5.744 1.369-.748 3.594-4.416 4.479-3.732 3.277 2.533 3.098 5.256 2.939 6.551-.331 2.744 5.257-.698 5.257-.698v-10.65c-.75-.1-1.428-.373-1.975-.899z" fill="url(#d)" opacity=".35"/><path d="m27 58h24c1.1 0 2-.898 2-2v-3.963c-2.207-.111-5.248-3.75-7.438-3.725-1.689.02-3.973 2.703-5.625 2.984-1.393.24-4.215-.916-5.625-.746-2.072.248-5.414 2.822-7.5 2.986-.525.041-1.143-.031-1.813-.17v2.634c.001 1.102.901 2 2.001 2z" fill="#1a1626"/><g fill="#fff"><path d="m31.998 25.498c.877 0 .877-1.313 0-1.313-.875 0-.875 1.313 0 1.313z" opacity=".2"/><path d="m29.885 27.253c.877 0 .875-1.315 0-1.315-.877 0-.877 1.315 0 1.315z" opacity=".2"/><path d="m38.219 37.779c.877 0 .877-1.314 0-1.314-.879 0-.879 1.314 0 1.314z" opacity=".2"/><path d="m50.301 39.287c.877.002.877-1.316 0-1.316s-.877 1.316 0 1.316z" opacity=".2"/><path d="m35.225 28.156c.877-.012.859-1.325-.018-1.316-.877.01-.859 1.327.018 1.316z" opacity=".2"/><path d="m43.041 26.376c.584-.001.582-.877 0-.877-.584 0-.584.877 0 .877z" opacity=".2"/><path d="m26.816 21.333c.586 0 .586-.88.002-.878-.586 0-.586.878-.002.878z" opacity=".2"/><path d="m38.334 29.007c.586.002.586-.877 0-.876-.586-.001-.586.878 0 .876z" opacity=".2"/><path d="m48.305 34.93c.582 0 .582-.881 0-.879-.586 0-.586.879 0 .879z" opacity=".2"/><path d="m51.449 31.86c.582-.001.582-.878 0-.879-.586 0-.586.879 0 .879z" opacity=".2"/><path d="m28.568 30.105c.584-.002.584-.878 0-.88-.584.001-.584.88 0 .88z" opacity=".2"/><path d="m52.107 35.146c.877 0 .877-1.313 0-1.313s-.877 1.315 0 1.313z" opacity=".2"/><path d="m46.109 40.163c.877 0 .877-1.315 0-1.315s-.877 1.314 0 1.315z" opacity=".2"/><path d="m46.986 27.689c.586 0 .586-.877 0-.877s-.584.877 0 .877z" opacity=".2"/><path d="m29.227 22.43c.584-.001.584-.877 0-.878-.586 0-.586.878 0 .878z" opacity=".2"/><path d="m45.451 33.893c.879 0 .879-1.318 0-1.316-.875-.001-.875 1.316 0 1.316z" opacity=".2"/><path d="m30.748 30.762c.586-.001.586-.878 0-.878-.584 0-.584.877 0 .878z" opacity=".2"/><path d="m26.816 24.402c.586 0 .586-.879 0-.879s-.586.879 0 .879z" opacity=".2"/><path d="m38.656 31.658c.879 0 .877-1.316 0-1.316s-.877 1.316 0 1.316z" opacity=".2"/><path d="m48.305 30.981c.582-.002.582-.878 0-.879-.586.001-.586.879 0 .879z" opacity=".2"/><path d="m50.303 28.131c.584 0 .582-.877 0-.877-.586 0-.586.877 0 .877z" opacity=".2"/><path d="m26.504 27.936c.582.003.582-.877 0-.876-.586 0-.586.876 0 .876z" opacity=".2"/><path d="m33.611 33.674c.586-.002.586-.879 0-.877-.584-.002-.584.875 0 .877z" opacity=".2"/><path d="m30.541 35.805c.586.002.586-.875 0-.875-.584 0-.584.875 0 .875z" opacity=".2"/><path d="m44.141 37.342c.584 0 .586-.877 0-.877s-.586.879 0 .877z" opacity=".2"/></g><path d="m31.455 50.029c-.762.629-3.15.629-3.91 0-.762-.627-.691-3.291 0-3.998s3.219-.707 3.91 0 .76 3.371 0 3.998z" fill="#b7ff3b"/><path d="m50.455 50.029c-.762.629-3.15.629-3.91 0-.762-.627-.691-3.291 0-3.998s3.219-.707 3.91 0 .76 3.371 0 3.998z" fill="#ffe600"/><path d="m44.121 50.029c-.76.629-3.15.629-3.91 0-.762-.627-.691-3.291 0-3.998s3.221-.707 3.91 0c.692.707.762 3.371 0 3.998z" fill="#ff38f6"/><path d="m37.789 50.029c-.762.629-3.152.629-3.91 0-.762-.627-.693-3.291 0-3.998.689-.707 3.219-.707 3.91 0 .69.707.76 3.371 0 3.998z" fill="#57cdff"/><path d="m46.543 38.972c.762-.628 3.15-.628 3.91 0 .762.628.691 3.292 0 3.999s-3.219.707-3.91 0-.76-3.371 0-3.999z" fill="#57cdff"/><path d="m27.543 38.972c.762-.628 3.15-.628 3.91 0 .762.628.691 3.292 0 3.999s-3.219.707-3.91 0-.76-3.371 0-3.999z" fill="#ff38f6"/><path d="m33.877 38.972c.76-.628 3.15-.628 3.91 0 .762.628.691 3.292 0 3.999s-3.221.707-3.91 0c-.691-.707-.762-3.371 0-3.999z" fill="#ffe600"/><path d="m40.209 38.972c.762-.628 3.152-.628 3.91 0 .762.628.693 3.292 0 3.999-.689.707-3.219.707-3.91 0-.689-.707-.76-3.371 0-3.999z" fill="#b7ff3b"/><path d="m33.719 30.097c-.004-.054.021-.08.072-.08h.115c.045 0 .076.026.08.076.031.368.279.506.57.506.311 0 .574-.157.574-.544v-1.846c0-.05.027-.077.076-.077h.115c.051 0 .076.027.076.077v1.846c0 .548-.408.805-.842.805-.412-.001-.803-.234-.836-.763z" fill="#fff"/><path d="m37.381 28.975v1.762c0 .05-.027.077-.078.077h-.1c-.049 0-.076-.027-.076-.077v-.177c-.15.229-.359.3-.59.3-.355 0-.65-.269-.65-.709v-1.176c0-.05.027-.076.076-.076h.1c.051 0 .076.026.076.076v1.176c0 .303.188.464.445.464.26 0 .543-.161.543-.636v-1.004c0-.05.027-.076.076-.076h.1c.051-.001.078.026.078.076z" fill="#fff"/><path d="m37.914 30.736v-2.604c0-.05.025-.076.076-.076h.1c.049 0 .076.026.076.076v2.604c0 .05-.027.077-.076.077h-.1c-.051 0-.076-.027-.076-.077z" fill="#fff"/><path d="m39.992 28.898h.111c.053 0 .08.034.061.088l-.9 2.531c-.016.043-.045.062-.088.062h-.111c-.053 0-.08-.034-.061-.088l.244-.693-.738-1.812c-.023-.054 0-.088.057-.088h.107c.043 0 .072.016.088.058l.613 1.489.529-1.485c.014-.043.045-.062.088-.062z" fill="#fff"/><path d="m41.963 28.132h.143c.049 0 .076.027.076.077v2.527c0 .05-.027.077-.076.077h-.116c-.049 0-.076-.027-.076-.077v-2.31l-.578.311c-.055.03-.092.004-.092-.054v-.13c0-.042.02-.073.053-.092l.57-.307c.031-.018.063-.022.096-.022z" fill="#fff"/><path d="m42.641 28.132h1.492c.051 0 .078.027.078.077v.126c0 .035-.008.065-.02.096l-.969 2.325c-.016.042-.047.058-.088.058h-.119c-.059 0-.08-.035-.059-.088l.973-2.341h-1.289c-.051 0-.078-.026-.078-.076v-.1c.001-.05.028-.077.079-.077z" fill="#fff"/><path d="m31.068 18.421h4.352c.152 0 .234.083.234.234v.529c0 .104-.021.195-.057.292l-2.682 6.48c-.047.126-.139.176-.27.176h-.58c-.174 0-.246-.104-.178-.27l2.672-6.473h-3.492c-.15 0-.234-.082-.234-.234v-.501c.001-.15.085-.233.235-.233z" fill="#fff"/><path d="m36.121 21.575v-.717c0-.151.082-.233.232-.233h.717c.152 0 .234.082.234.233v.717c0 .151-.082.233-.234.233h-.717c-.15.001-.232-.081-.232-.233zm0 4.324v-.717c0-.151.082-.233.232-.233h.717c.152 0 .234.082.234.233v.717c0 .151-.082.233-.234.233h-.717c-.15.001-.232-.081-.232-.233z" fill="#fff"/><path d="m40.244 18.421h.631c.152 0 .234.083.234.234v7.244c0 .151-.082.233-.234.233h-.551c-.15 0-.234-.082-.234-.233v-6.404l-1.605.868c-.162.094-.281.014-.281-.163v-.57c0-.126.057-.22.164-.28l1.586-.856c.093-.059.183-.073.29-.073z" fill="#fff"/><path d="m42.389 18.421h4.352c.152 0 .234.083.234.234v.529c0 .104-.021.195-.059.292l-2.68 6.48c-.047.126-.141.176-.27.176h-.582c-.172 0-.244-.104-.176-.27l2.672-6.473h-3.492c-.152 0-.234-.082-.234-.234v-.501c0-.15.082-.233.235-.233z" fill="#fff"/><path d="m47.25 54.713c0 1-1.5 1-1.5 0s1.5-1 1.5 0z" fill="#b3c2c6"/><path d="m32.25 54.713c0 1-1.5 1-1.5 0s1.5-1 1.5 0z" fill="#b3c2c6"/><path d="m39.75 54.713c0 1-1.5 1-1.5 0s1.5-1 1.5 0z" fill="#b3c2c6"/><path d="m48.373 7.139v-.138h-.277v.138h-.184v.852h.645v-.852z" fill="#cfd8dd"/><path d="m47.227 7.991h-.905l.905-.99z" fill="#cfd8dd"/><path d="m44.893 7.116.557.875.555-.875c-.196-.154-.915-.154-1.112 0z" fill="#cfd8dd"/><path d="m49.172 7.025h.051c.018 0 .027.011.027.029v.903c0 .016-.01.025-.027.025h-.041c-.02 0-.029-.01-.029-.025v-.825l-.207.11c-.018.01-.031.001-.031-.019v-.046c0-.016.006-.026.02-.032l.203-.109c.01-.008.022-.011.034-.011z" fill="#cfd8dd"/><path d="m49.426 7.506c0-.297.131-.496.363-.496.236 0 .363.199.363.496 0 .295-.127.494-.363.494-.232 0-.363-.199-.363-.494zm.631 0c0-.256-.1-.403-.268-.403s-.266.147-.266.403.098.402.266.402.268-.146.268-.402z" fill="#cfd8dd"/><path d="m50.289 7.506c0-.297.131-.496.363-.496.234 0 .363.199.363.496.001.295-.128.494-.363.494-.232 0-.363-.199-.363-.494zm.631 0c0-.256-.1-.403-.268-.403s-.266.147-.266.403.098.402.266.402.268-.146.268-.402z" fill="#cfd8dd"/><path d="m51.139 7.215c0-.113.09-.205.209-.205.121 0 .209.092.209.205s-.086.205-.209.205c-.119 0-.209-.092-.209-.205zm.064.736.635-.907c.01-.011.02-.019.035-.019h.043c.023 0 .031.016.02.034l-.639.907c-.008.01-.02.017-.033.017h-.043c-.022 0-.032-.014-.018-.032zm.266-.736c0-.067-.047-.123-.121-.123-.072 0-.121.056-.121.123 0 .069.049.124.121.124.074 0 .121-.055.121-.124zm.111.58c0-.112.09-.205.211-.205.119 0 .209.093.209.205 0 .114-.09.205-.209.205-.121 0-.211-.091-.211-.205zm.332 0c0-.068-.049-.123-.121-.123-.074 0-.123.055-.123.123s.049.124.123.124c.072 0 .121-.056.121-.124z" fill="#cfd8dd"/><path d="m22 32-10.108-10v4.536h-9.892v10.928h9.892v4.536z" fill="url(#e)"/></svg>