<svg enable-background="new 0 0 64 64" height="64" viewBox="0 0 64 64" width="64" xmlns="http://www.w3.org/2000/svg" xmlns:xlink="http://www.w3.org/1999/xlink"><linearGradient id="a" gradientUnits="userSpaceOnUse" x1="32" x2="32" y1="2" y2="62"><stop offset="0" stop-color="#00abf1"/><stop offset=".2292" stop-color="#00a7ef"/><stop offset=".4667" stop-color="#009ae9"/><stop offset=".7079" stop-color="#0086e0"/><stop offset=".9504" stop-color="#0069d3"/><stop offset="1" stop-color="#0062d0"/></linearGradient><path d="m62 54c0 4.4-3.6 8-8 8h-44c-4.4 0-8-3.6-8-8v-44c0-4.4 3.6-8 8-8h44c4.4 0 8 3.6 8 8z" fill="url(#a)"/><g fill="#fff"><path d="m42 24.227h-18c-.656 0-3.871.291-3.988 5.705l-7.08 6.068c-.578-1.641-.932-3.545-.932-5.773 0-10.271 7.176-14 12-14h18v-4l10 8-10 8z"/><path d="m22 39.773h18c.656 0 3.871-.291 3.989-5.705l7.079-6.068c.579 1.642.932 3.545.932 5.773 0 10.271-7.177 14-12 14h-18v4l-10-8 10-8z"/></g></svg>