<svg enable-background="new 0 0 64 64" height="64" viewBox="0 0 64 64" width="64" xmlns="http://www.w3.org/2000/svg" xmlns:xlink="http://www.w3.org/1999/xlink"><linearGradient id="a"><stop offset="0" stop-color="#f59e01"/><stop offset="1" stop-color="#ffe463"/></linearGradient><linearGradient id="b" gradientUnits="userSpaceOnUse" x1="32.0005" x2="32.0005" xlink:href="#a" y1="57.834" y2="6.1457"/><linearGradient id="c" gradientUnits="userSpaceOnUse" x1="54.5488" x2="54.5488" xlink:href="#a" y1="57.832" y2="6.148"/><linearGradient id="d" gradientUnits="userSpaceOnUse" x1="9.4507" x2="9.4507" xlink:href="#a" y1="57.832" y2="6.148"/><linearGradient id="e" gradientUnits="userSpaceOnUse" x1="16.0562" x2="16.0562" xlink:href="#a" y1="57.834" y2="6.1457"/><linearGradient id="f" gradientUnits="userSpaceOnUse" x1="47.9434" x2="47.9434" xlink:href="#a" y1="57.834" y2="6.1457"/><linearGradient id="g" gradientUnits="userSpaceOnUse" x1="47.9443" x2="47.9443" xlink:href="#a" y1="57.832" y2="6.1477"/><linearGradient id="h" gradientUnits="userSpaceOnUse" x1="16.0557" x2="16.0557" xlink:href="#a" y1="57.834" y2="6.1457"/><linearGradient id="i" gradientUnits="userSpaceOnUse" x1="32.0005" x2="32.0005" xlink:href="#a" y1="57.833" y2="6.1456"/><path d="m32 51.098c-1.649 0-3 1.553-3 3.451s1.351 3.451 3 3.451c1.65 0 3-1.553 3-3.451s-1.35-3.451-3-3.451z" fill="url(#b)"/><path d="m32 12.902c1.65 0 3-1.552 3-3.451 0-1.898-1.35-3.451-3-3.451-1.649 0-3 1.553-3 3.451s1.351 3.451 3 3.451z" fill="url(#b)"/><path d="m54.549 29c-1.898 0-3.451 1.35-3.451 3s1.553 3 3.451 3 3.451-1.35 3.451-3-1.553-3-3.451-3z" fill="url(#c)"/><path d="m9.451 29c-1.898 0-3.451 1.35-3.451 3s1.553 3 3.451 3 3.451-1.35 3.451-3-1.553-3-3.451-3z" fill="url(#d)"/><path d="m13.935 45.823c-1.343 1.343-1.486 3.396-.32 4.562 1.167 1.166 3.22 1.023 4.563-.318 1.342-1.344 1.485-3.396.318-4.563-1.166-1.166-3.219-1.024-4.561.319z" fill="url(#e)"/><path d="m50.066 18.177c1.342-1.342 1.483-3.395.317-4.562s-3.219-1.023-4.561.319c-1.345 1.342-1.486 3.395-.32 4.562s3.221 1.023 4.564-.319z" fill="url(#f)"/><path d="m45.504 45.504c-1.166 1.168-1.023 3.221.32 4.563 1.342 1.343 3.395 1.484 4.561.318s1.023-3.219-.318-4.562c-1.344-1.343-3.397-1.485-4.563-.319z" fill="url(#g)"/><path d="m18.496 18.496c1.166-1.167 1.023-3.219-.318-4.562-1.343-1.342-3.396-1.486-4.563-.319-1.166 1.167-1.023 3.219.318 4.562s3.395 1.486 4.563.319z" fill="url(#h)"/><path d="m32 17c-8.285 0-15 6.716-15 15s6.715 15 15 15c8.284 0 15-6.716 15-15s-6.717-15-15-15zm0 25c-5.523 0-10-4.477-10-10s4.477-10 10-10c5.521 0 10 4.477 10 10s-4.479 10-10 10z" fill="url(#i)"/></svg>