<svg enable-background="new 0 0 64 64" height="64" viewBox="0 0 64 64" width="64" xmlns="http://www.w3.org/2000/svg" xmlns:xlink="http://www.w3.org/1999/xlink"><linearGradient id="a" gradientUnits="userSpaceOnUse" x1="32" x2="32" y1="2" y2="62"><stop offset="0" stop-color="#00abf1"/><stop offset=".2292" stop-color="#00a7ef"/><stop offset=".4667" stop-color="#009ae9"/><stop offset=".7079" stop-color="#0086e0"/><stop offset=".9504" stop-color="#0069d3"/><stop offset="1" stop-color="#0062d0"/></linearGradient><path d="m62 54c0 4.4-3.6 8-8 8h-44c-4.4 0-8-3.6-8-8v-44c0-4.4 3.6-8 8-8h44c4.4 0 8 3.6 8 8z" fill="url(#a)"/><g fill="#fff"><path d="m37.25 52.354-4.468-6.092c-.18.008-.36.014-.544.014-3.923 0-7.114-2.512-7.114-5.602v-13.603h5.59l-9.857-13.446-9.857 13.446h5.587v13.604c0 3.294 1.629 6.386 4.585 8.715 2.957 2.329 6.887 3.61 11.066 3.61 1.731 0 3.417-.219 5.012-.646z"/><path d="m31.784 17.719c3.918 0 7.106 2.507 7.106 5.593v13.634h-5.582l9.846 13.43 9.846-13.431h-5.582v-13.633c0-3.289-1.626-6.379-4.579-8.705-2.954-2.325-6.88-3.607-11.055-3.607-1.739 0-3.434.225-5.034.652l4.46 6.081c.189-.01.381-.014.574-.014z"/></g></svg>