<svg enable-background="new 0 0 64 64" height="64" viewBox="0 0 64 64" width="64" xmlns="http://www.w3.org/2000/svg" xmlns:xlink="http://www.w3.org/1999/xlink"><linearGradient id="a" gradientUnits="userSpaceOnUse" x1="19.9995" x2="19.9995" y1="32" y2="4"><stop offset="0" stop-color="#bec8cc"/><stop offset=".2613" stop-color="#bbc5c9"/><stop offset=".4431" stop-color="#b2bcc0"/><stop offset=".6008" stop-color="#a3adb1"/><stop offset=".7448" stop-color="#8e979b"/><stop offset=".878" stop-color="#737c7f"/><stop offset="1" stop-color="#535b5e"/></linearGradient><linearGradient id="b" gradientUnits="userSpaceOnUse" x1="13.9814" x2="13.9814" y1="32" y2="4.7422"><stop offset="0" stop-color="#fafdff" stop-opacity=".7"/><stop offset=".897" stop-color="#fafdff" stop-opacity="0"/></linearGradient><linearGradient id="c" gradientTransform="matrix(-1 0 0 1 -83.4561 0)" gradientUnits="userSpaceOnUse" x1="-109.3691" x2="-109.3691" y1="32" y2="4.7422"><stop offset="0" stop-color="#0b0c0d" stop-opacity=".3"/><stop offset=".897" stop-color="#0b0c0d" stop-opacity="0"/></linearGradient><linearGradient id="d" gradientUnits="userSpaceOnUse" x1="10.5664" x2="29.4326" y1="19.8223" y2="19.8223"><stop offset="0" stop-color="#0b0c0d" stop-opacity=".3"/><stop offset=".0991" stop-color="#242526" stop-opacity=".3198"/><stop offset=".7272" stop-color="#bcbfc1" stop-opacity=".4454"/><stop offset="1" stop-color="#fafdff" stop-opacity=".5"/></linearGradient><linearGradient id="e" gradientUnits="userSpaceOnUse" x1="2" x2="37.999" y1="45.5605" y2="45.5605"><stop offset="0" stop-color="#ffd231"/><stop offset="1" stop-color="#db7600"/></linearGradient><radialGradient id="f" cx="-841.5366" cy="265.9609" gradientTransform="matrix(-.00000004 1.0027 -4.2262 -.00000018 1133.4812 889.4797)" gradientUnits="userSpaceOnUse" r="10.1276"><stop offset=".6485" stop-color="#cfd8dd"/><stop offset=".7397" stop-color="#cad4d9"/><stop offset=".8413" stop-color="#bdc8cd"/><stop offset=".9475" stop-color="#a7b4ba"/><stop offset="1" stop-color="#99a8ae"/></radialGradient><linearGradient id="g" gradientTransform="matrix(-1 0 0 -1 233.8327 1252.1588)" gradientUnits="userSpaceOnUse" x1="182.834" x2="182.834" y1="1195.5723" y2="1217.637"><stop offset="0" stop-color="#302c3b"/><stop offset=".5" stop-color="#4e5e67"/><stop offset=".6407" stop-color="#49555f"/><stop offset=".8695" stop-color="#3a3d4a"/><stop offset="1" stop-color="#302c3b"/></linearGradient><linearGradient id="h" gradientTransform="matrix(-1 0 0 -1 233.8327 1252.1588)" gradientUnits="userSpaceOnUse" x1="187.3945" x2="187.3945" y1="1215.8994" y2="1197.3184"><stop offset="0" stop-color="#717b80"/><stop offset=".2182" stop-color="#aab9bd"/><stop offset=".25" stop-color="#b3c2c6"/><stop offset=".5" stop-color="#ced7dc"/><stop offset=".75" stop-color="#b3c2c6"/><stop offset="1" stop-color="#717b80"/></linearGradient><path d="m20 4c-7.181 0-13 5.904-13 13.188v14.812h5.443v-14.812c0-10.252 15.112-10.252 15.112 0v14.812h5.443v-14.812c.001-7.284-5.82-13.188-12.998-13.188z" fill="url(#a)"/><path d="m20.481 4.742c-7.181 0-13 5.906-13 13.189v14.069h1.669v-14.068c0-8.586 6.26-12.61 11.331-13.19z" fill="url(#b)"/><path d="m19.413 4.742c7.181 0 13 5.906 13 13.189v14.069h-1.67v-14.068c0-8.586-6.259-12.61-11.33-13.19z" fill="url(#c)"/><path d="m29.433 32v-14.477c0-13.172-18.866-13.172-18.866 0v14.477h1.293v-15.252c0-10.557 16.28-10.557 16.28 0v15.252z" fill="url(#d)"/><path d="m37.999 58.898c0 .605-.496 1.102-1.102 1.102h-33.795c-.606 0-1.102-.496-1.102-1.102v-26.673c0-.605.496-1.104 1.102-1.104h33.796c.605 0 1.102.498 1.102 1.104v26.673z" fill="url(#e)"/><path d="m37.081 31.121c0 1.557-34.163 1.557-34.163 0z" fill="#c46a12"/><path d="m23.381 54.781c3.801-.713 6.334-1.87 19.512-3.168.561-.078.574-12.072.008-12.152-13.175-1.27-15.702-2.41-19.505-3.117-.674-.103-7.875 7.529-12.824 9.123-.105.109-.105.109 0 .226 4.946 1.582 12.128 9.185 12.809 9.088z" fill="#4e5e67"/><path d="m23.118 55.109c4.092-.737 6.813-1.933 20.993-3.282 1.471-.194 1.479-12.386.009-12.587-14.179-1.314-16.896-2.496-20.985-3.229-.726-.106-1.439.189-1.97.799-1.77 2.035-6.354 6.725-11.503 8.494l13.908.002c.13-1.016.966-1.812 2.017-1.813 1.146 0 2.07.922 2.069 2.068.001 1.143-.932 2.07-2.069 2.067-1.055 0-1.883-.794-2.016-1.809l-13.909.003c5.18 1.73 9.71 6.447 11.488 8.492.529.61 1.241.901 1.968.795z" fill="url(#f)"/><path d="m62 36.267-17.414.681c-3.229.132-4.584 3.992-4.584 8.612 0 4.626 1.354 8.483 4.584 8.615l17.414.682z" fill="url(#g)"/><path d="m44.586 54.175c2.406 1.359 3.668.251 6.45.257 0 0-2.864-1.707-2.864-8.846.001-7.138 2.864-8.892 2.864-8.892-2.783.005-4.046-1.104-6.45.253 0 0-2.745 2.712-2.745 8.64.001 5.926 2.745 8.588 2.745 8.588z" fill="url(#h)"/></svg>