<svg enable-background="new 0 0 64 64" height="64" viewBox="0 0 64 64" width="64" xmlns="http://www.w3.org/2000/svg" xmlns:xlink="http://www.w3.org/1999/xlink"><linearGradient id="a"><stop offset=".0818" stop-color="#e1e3e7"/><stop offset=".2147" stop-color="#d9e0e4"/><stop offset=".3952" stop-color="#d6dde1"/><stop offset=".6287" stop-color="#c2cacd"/><stop offset=".7669" stop-color="#a2aaad"/><stop offset="1" stop-color="#a2aaad"/></linearGradient><radialGradient id="b" cx="12.0396" cy="32" gradientTransform="matrix(1 0 0 1.927 0 -29.664)" gradientUnits="userSpaceOnUse" r="5.616" xlink:href="#a"/><linearGradient id="c" gradientUnits="userSpaceOnUse" x1="16.0419" x2="16.0419" y1="24.3242" y2="39.6738"><stop offset="0" stop-color="#545061"/><stop offset=".2793" stop-color="#464253"/><stop offset=".6189" stop-color="#211d2d"/><stop offset="1" stop-color="#1a1626"/></linearGradient><radialGradient id="d" cx="17.6515" cy="32" gradientTransform="matrix(1 0 0 1.927 0 -29.664)" gradientUnits="userSpaceOnUse" r="5.8093" xlink:href="#a"/><radialGradient id="e" cx="26.2963" cy="32" gradientTransform="matrix(1 0 0 1.927 0 -29.664)" gradientUnits="userSpaceOnUse" r="14.6351"><stop offset="0" stop-color="#e1e3e7"/><stop offset=".1166" stop-color="#d9e0e4"/><stop offset=".2296" stop-color="#d6dde1"/><stop offset=".4487" stop-color="#c2cacd"/><stop offset=".6401" stop-color="#a2aaad"/><stop offset=".8016" stop-color="#a2aaad"/><stop offset="1" stop-color="#4e5e67"/></radialGradient><linearGradient id="f" gradientUnits="userSpaceOnUse" x1="28" x2="46" y1="32" y2="32"><stop offset=".0736" stop-color="#e6ebef"/><stop offset=".2556" stop-color="#d9e0e4"/><stop offset=".5343" stop-color="#d6dde1"/><stop offset=".9743" stop-color="#c2cacd"/></linearGradient><radialGradient id="g" cx="37.9164" cy="32" gradientUnits="userSpaceOnUse" r="16.6305"><stop offset="0" stop-color="#545061"/><stop offset=".2793" stop-color="#464253"/><stop offset=".6105" stop-color="#312d3d"/><stop offset=".7961" stop-color="#211d2d"/><stop offset=".9556" stop-color="#1a1626"/></radialGradient><linearGradient id="h" gradientUnits="userSpaceOnUse" x1="32.8872" x2="32.8872" y1="22.0176" y2="41.9688"><stop offset="0" stop-color="#d9e0e4"/><stop offset=".2316" stop-color="#d6dde1"/><stop offset=".8311" stop-color="#c2cacd"/></linearGradient><radialGradient id="i" cx="33.016" cy="31.9927" gradientUnits="userSpaceOnUse" r="7.2651"><stop offset="0" stop-color="#d9e0e4"/><stop offset=".3543" stop-color="#d6dde1"/><stop offset=".5285" stop-color="#c2cacd"/><stop offset=".7526" stop-color="#a2aaad"/><stop offset="1" stop-color="#a2aaad"/></radialGradient><linearGradient id="j" gradientUnits="userSpaceOnUse" x1="44.625" x2="55.9774" y1="22.1675" y2="41.8304"><stop offset=".2017" stop-color="#00abf1"/><stop offset=".5778" stop-color="#00a7ef"/><stop offset=".9667" stop-color="#009aea"/><stop offset="1" stop-color="#0099e9"/></linearGradient><path d="m13.675 39.674c-4.901 0-4.901-15.348.002-15.348l.402-.002v15.352z" fill="url(#b)"/><path d="m14.077 39.674c-3.433.004-3.431-15.348.002-15.35l6.501.002v15.348z" fill="url(#c)"/><path d="m17.296 39.676c-3.431-.002-3.43-15.35.001-15.352h3.284v15.35z" fill="url(#d)"/><path d="m20.58 39.674c-4.207-1.178-4.207-14.168 0-15.348 4.644-1.301 14.587-16.493 14.587-16.493v48.334c.001 0-9.943-15.19-14.587-16.493z" fill="url(#e)"/><path d="m37.43 57c11.427 0 11.427-50 0-50-12.573 0-12.573 50 0 50z" fill="url(#f)"/><path d="m38.004 54.5c9.014 0 9.014-45 0-45-3.386 0-5.645 4.998-6.774 11.665l-.161.853c2.147 5.927 2.308 13.012-.001 19.951l.459 2.461c1.208 5.851 3.366 10.07 6.477 10.07z" fill="url(#g)"/><path d="m31.069 22.018c5.88.375 5.878 19.578-.001 19.951-1.037-5.796-1.021-14.662.001-19.951z" fill="url(#h)"/><path d="m30.554 37.939c4.251-.424 4.379-13.916.374-15.104.045-.277.092-.557.142-.818 5.88.375 5.878 19.576-.001 19.95-.22-1.224-.391-2.589-.515-4.028z" fill="url(#i)"/><path d="m48.399 43.25c-.001-.124.018-.25.059-.375 2.319-7.115 2.319-14.637 0-21.752-.262-.803.353-1.62 1.371-1.826 1.017-.206 2.054.277 2.315 1.08 2.475 7.603 2.475 15.643 0 23.244-.261.803-1.298 1.286-2.315 1.08-.862-.174-1.43-.783-1.43-1.451z" fill="url(#j)"/></svg>