<svg enable-background="new 0 0 64 64" height="64" viewBox="0 0 64 64" width="64" xmlns="http://www.w3.org/2000/svg" xmlns:xlink="http://www.w3.org/1999/xlink"><linearGradient id="a" gradientUnits="userSpaceOnUse" x1="32" x2="32" y1="2" y2="62"><stop offset="0" stop-color="#00abf1"/><stop offset=".2292" stop-color="#00a7ef"/><stop offset=".4667" stop-color="#009ae9"/><stop offset=".7079" stop-color="#0086e0"/><stop offset=".9504" stop-color="#0069d3"/><stop offset="1" stop-color="#0062d0"/></linearGradient><path d="m62 54c0 4.4-3.6 8-8 8h-44c-4.4 0-8-3.6-8-8v-44c0-4.4 3.6-8 8-8h44c4.4 0 8 3.6 8 8z" fill="url(#a)"/><g fill="#fff"><path d="m53 19-10-8v4h-18c-4.824 0-12 3.955-12 14.226 0 .774.057 1.494.136 2.191 2.224-1.512 4.904-2.399 7.792-2.414l.084-.072c.117-5.414 3.332-5.931 3.988-5.931h18v4z"/><path d="m21 33c-5.523 0-10 4.477-10 10s4.477 10 10 10 10-4.477 10-10-4.477-10-10-10zm2.5 17.5h-3.273v-10.793c-1.198.979-2.605 1.707-4.227 2.176v-2.604c.854-.246 1.781-.705 2.782-1.393 1.003-.676 1.689-1.477 2.063-2.387h2.655z"/><path d="m52.068 27-7.08 6.068c-.117 5.414-3.332 5.932-3.988 5.932h-6.587c.377 1.268.587 2.609.587 4s-.21 2.732-.587 4h6.587c4.824 0 12-3.955 12-14.227 0-2.228-.352-4.131-.932-5.773z"/></g></svg>