<svg enable-background="new 0 0 64 64" height="64" viewBox="0 0 64 64" width="64" xmlns="http://www.w3.org/2000/svg" xmlns:xlink="http://www.w3.org/1999/xlink"><linearGradient id="a" gradientTransform="matrix(.7071 -.7071 .7071 .7071 410.5667 -390.4463)" gradientUnits="userSpaceOnUse" x1="-569.0044" x2="-563.8096" y1="45.248" y2="45.248"><stop offset=".3758" stop-color="#99a8ae"/><stop offset=".8121" stop-color="#b3c2c6"/></linearGradient><linearGradient id="b" gradientTransform="matrix(.7071 -.7071 .7071 .7071 410.5667 -390.4463)" gradientUnits="userSpaceOnUse" x1="-566.4077" x2="-566.4077" y1="47.7627" y2="49.6172"><stop offset="0" stop-color="#b3c2c6"/><stop offset="1" stop-color="#99a8ae"/></linearGradient><radialGradient id="c" cx="16.0293" cy="20.2773" gradientTransform="matrix(-.7071 .7071 .7071 .7071 21.3955 -1.275)" gradientUnits="userSpaceOnUse" r="18.8604"><stop offset="0" stop-color="#f7eff0"/><stop offset=".3032" stop-color="#f4edef"/><stop offset=".569" stop-color="#e9e8ee"/><stop offset=".82" stop-color="#d7e0eb"/><stop offset="1" stop-color="#c5d7e8"/></radialGradient><radialGradient id="d" cx="470.2549" cy="-167.9785" gradientTransform="matrix(-.7071 .7071 .7071 .7071 475.6748 -189.444)" gradientUnits="userSpaceOnUse" r="22.4146"><stop offset=".7212" stop-color="#737e80"/><stop offset=".8606" stop-color="#cfd8dd"/><stop offset="1" stop-color="#b3c2c6"/></radialGradient><linearGradient id="e" gradientTransform="matrix(-.7071 .7071 .7071 .7071 475.6748 -189.444)" gradientUnits="userSpaceOnUse" x1="455.2686" x2="485.3607" y1="-182.938" y2="-152.8459"><stop offset="0" stop-color="#e6ebed"/><stop offset="1" stop-color="#cfd8dd"/></linearGradient><linearGradient id="f" gradientTransform="matrix(.7071 -.7071 .7071 .7071 410.5667 -390.4463)" gradientUnits="userSpaceOnUse" x1="-571.1548" x2="-561.6582" y1="57.9297" y2="57.9297"><stop offset="0" stop-color="#302c3b"/><stop offset=".6185" stop-color="#444e59"/><stop offset="1" stop-color="#4e5e67"/></linearGradient><radialGradient id="g" cx="291.5791" cy="-111.7559" gradientTransform="matrix(.3544 .4683 .5644 -.4272 -27.1534 -173.9603)" gradientUnits="userSpaceOnUse" r="39.4244"><stop offset="0" stop-color="#fff"/><stop offset="1" stop-color="#fff" stop-opacity="0"/></radialGradient><linearGradient id="h" gradientTransform="matrix(.7071 -.7071 .7071 .7071 410.5667 -390.4463)" gradientUnits="userSpaceOnUse" x1="-566.4072" x2="-566.4072" y1="65.8965" y2="67.751"><stop offset=".3333" stop-color="#b3c2c6"/><stop offset=".7333" stop-color="#99a8ae"/></linearGradient><path d="m46.326 42.652-3.671 3.672-4.871-4.867 3.672-3.672z" fill="url(#a)"/><path d="m47.111 42.547c.421.422-4.143 4.986-4.565 4.564l-.677-.681c-.42-.421 4.141-4.983 4.562-4.562z" fill="url(#b)"/><path d="m37.736 37.732c7.363-7.363 7.364-19.306 0-26.671-7.366-7.366-19.307-7.365-26.674 0-7.363 7.366-7.363 19.309.001 26.672 7.367 7.367 19.309 7.365 26.673-.001z" fill="url(#c)"/><path d="m8.561 40.236c8.75 8.748 22.928 8.75 31.677 0 8.748-8.746 8.748-22.928 0-31.676-8.746-8.748-22.93-8.747-31.677 0-8.749 8.749-8.747 22.931 0 31.676zm2.843-2.843c-7.175-7.176-7.177-18.809 0-25.988 7.175-7.175 18.813-7.175 25.988 0 7.175 7.176 7.174 18.813 0 25.988-7.176 7.179-18.811 7.176-25.988 0z" fill="url(#d)"/><path d="m39.444 9.353c-8.309-8.31-21.783-8.309-30.092 0-8.31 8.311-8.309 21.783 0 30.091 8.313 8.31 21.78 8.312 30.092 0 8.309-8.308 8.31-21.78 0-30.091zm-1.026 29.065c-7.743 7.746-20.295 7.744-28.039.001-7.74-7.744-7.742-20.295 0-28.04 7.741-7.741 20.298-7.74 28.038 0 7.742 7.743 7.742 20.298.001 28.039z" fill="url(#e)"/><path d="m60.67 53.954-6.713 6.714s-9.175-9.173-12.14-12.137c-.59-.589 6.124-7.305 6.712-6.715 2.939 2.938 12.141 12.138 12.141 12.138z" fill="url(#f)"/><path d="m28.67 30.491c6.354-4.805 8.269-12.974 4.279-18.237-3.989-5.275-12.37-5.652-18.718-.846-6.355 4.805-8.27 12.973-4.281 18.247 3.991 5.274 12.375 5.645 18.72.836z" fill="url(#g)"/><path d="m43.732 48.395h-1.946c-.006.059.001.107.03.137.138.138.294.293.457.457h1.459v1.459c.193.191.392.39.594.592v-2.051l4.067-.001v4.067h-2.052c.197.197.396.396.595.596l1.457-.002v1.458c.2.199.398.397.595.594v-2.052l4.066.001.001 4.067h-2.051c.205.206.403.404.595.594h1.455l.001 1.455c.245.246.444.445.594.595v-2.05h2.663l.594-.594h-3.257v-4.068h4.067v3.258l.595-.594-.001-2.664h2.054c-.15-.15-.349-.349-.594-.594h-1.46v-1.459c-.189-.191-.387-.389-.593-.594v2.053h-4.069l.001-4.068 2.053.001c-.196-.196-.395-.395-.593-.594h-1.46v-1.458c-.199-.199-.396-.397-.594-.594v2.052h-4.067v-4.067l2.052-.001c-.204-.204-.402-.401-.593-.594h-1.459v-1.456c-.165-.165-.32-.321-.46-.459-.028-.029-.076-.036-.135-.031l.001 1.946h-2.627c-.206.192-.415.391-.625.595h3.251v4.068h-4.067v-3.252c-.203.211-.402.42-.594.625zm5.256.592h4.067v4.067h-4.067z" fill="#302c3b" opacity=".3"/><path d="m61.985 53.318c.421.42-8.246 9.088-8.668 8.666l-.677-.68c-.422-.421 8.243-9.087 8.664-8.665z" fill="url(#h)"/></svg>