<svg enable-background="new 0 0 64 64" height="64" viewBox="0 0 64 64" width="64" xmlns="http://www.w3.org/2000/svg" xmlns:xlink="http://www.w3.org/1999/xlink"><radialGradient id="a" cx="84.5254" cy="15.3389" gradientTransform="matrix(1 0 0 20.0008 -59.5986 -270.5157)" gradientUnits="userSpaceOnUse" r="27.7189"><stop offset="0" stop-color="#9be022"/><stop offset=".1186" stop-color="#87c622"/><stop offset=".2483" stop-color="#76b223"/><stop offset=".3764" stop-color="#6ca523"/><stop offset=".5" stop-color="#69a123"/><stop offset=".7236" stop-color="#6ba323"/><stop offset=".8186" stop-color="#70aa23"/><stop offset=".8893" stop-color="#7ab723"/><stop offset=".9474" stop-color="#88c822"/><stop offset=".998" stop-color="#9adf22"/><stop offset="1" stop-color="#9be022"/></radialGradient><radialGradient id="b" cx="89.5439" cy="-13.6641" gradientTransform="matrix(1 0 0 5.218 -59.5986 77.3055)" gradientUnits="userSpaceOnUse" r="5.9982"><stop offset="0" stop-color="#b3c2c6"/><stop offset=".2131" stop-color="#aebdc1"/><stop offset=".4787" stop-color="#a0adb2"/><stop offset=".771" stop-color="#889499"/><stop offset="1" stop-color="#717b80"/></radialGradient><path d="m52 55.345c-.002 7.54-39.998 7.54-40 0v-48.537h40z" fill="url(#a)"/><g fill="#fff"><path d="m32.375 15.022c0 .11-.096.2-.213.2h-.322c-.117 0-.215-.09-.215-.2v-2.6c0-.11.098-.2.215-.2h.322c.117 0 .213.09.213.2z"/><path d="m30.701 14.097c-.109 0-.201-.096-.201-.214v-.321c0-.118.092-.214.201-.214h2.6c.109 0 .199.097.199.214v.321c0 .118-.09.214-.199.214z"/><path d="m30.701 57.875c-.109 0-.201-.096-.201-.214v-.321c0-.118.092-.215.201-.215h2.6c.109 0 .199.097.199.215v.321c0 .118-.09.214-.199.214z"/><path d="m29.131 41.664.536-.537c.011-.01.024-.018.038-.018.016 0 .029.008.039.018l.537.537c.01.01.016.022.016.037 0 .014-.006.028-.016.039l-.537.536c-.021.021-.055.021-.077 0l-.536-.536c-.022-.021-.022-.056 0-.076z"/><path d="m30.638 33.402c0-.794.671-1.451 1.536-1.451.867 0 1.537.657 1.537 1.451 0 .461-.188.803-.496 1.025h1.456c.037-.004.072.008.099.033.025.025.039.061.033.098v.368c.006.036-.008.071-.033.097-.026.026-.062.039-.099.033h-3.823c-.037.006-.072-.007-.098-.033-.025-.025-.038-.061-.034-.097v-.368c-.006-.037.007-.072.033-.098.024-.025.062-.039.097-.035h.289c-.309-.221-.497-.564-.497-1.025zm2.474.103c0-.526-.391-.922-.935-.922-.543 0-.935.396-.935.922s.39.921.931.921c.544 0 .939-.395.939-.921zm.527-2.049c.004.036-.008.071-.034.097s-.062.039-.097.033h-2.662c-.035.006-.072-.007-.097-.033-.026-.026-.039-.061-.035-.097v-.368c-.004-.036.009-.071.035-.098.024-.025.062-.038.097-.033h2.658c.035-.004.072.008.096.033.026.027.039.062.035.098zm-.16-3.212c.088-.059.159-.017.159.088v.382c.001.064-.033.125-.088.158l-.891.569.891.569c.055.033.089.093.088.158v.382c0 .104-.07.146-.159.088l-1.345-.861-1.259.804c-.088.06-.158.019-.158-.087v-.381c-.002-.065.032-.125.087-.157l.803-.514-.803-.515c-.055-.033-.089-.093-.087-.158v-.382c0-.104.069-.146.158-.088l1.259.806zm-2.837-1.546c0-.874.702-1.446 1.542-1.446.051 0 .097 0 .143.005.035.001.069.016.093.042s.034.062.03.096v2.177c.479-.096.725-.452.725-.897.008-.243-.094-.477-.279-.634-.049-.04-.076-.099-.078-.161v-.373c0-.097.06-.15.141-.112.476.214.764.692.764 1.289 0 .931-.659 1.542-1.535 1.542-.875.001-1.548-.616-1.548-1.529h.002zm1.288.88v-1.69c-.498.083-.713.438-.713.814-.003.471.273.79.709.876zm1.709-2.786c.004.036-.008.071-.034.097s-.062.039-.097.034h-3.943c-.037.004-.072-.008-.099-.034-.024-.026-.038-.062-.032-.097v-.368c-.006-.037.008-.073.032-.098.026-.026.062-.038.099-.034h3.943c.035-.004.07.008.097.034.026.025.038.061.034.098zm-2.104-1.562c.588 0 .164-1.621 1.279-1.621.575 0 .896.501.896 1.148 0 .598-.287 1.075-.84 1.139-.037.008-.077-.002-.104-.027-.028-.026-.043-.063-.037-.101v-.362c0-.08.044-.111.117-.14.209-.049.296-.253.296-.508 0-.307-.108-.517-.331-.517-.58 0-.166 1.621-1.279 1.621-.57 0-.896-.502-.896-1.104 0-.546.286-1.017.842-1.081.037-.009.074.001.104.028.027.026.041.063.036.101v.362c0 .079-.044.112-.12.139-.209.047-.293.243-.293.45 0 .261.108.473.33.473z"/><path d="m30.714 41.537c-.004-.035.009-.072.035-.097.026-.026.062-.038.097-.034h2.905c.766 0 1.14.356 1.135 1.065.003.036-.011.072-.037.097s-.062.039-.099.035h-.347c-.036.004-.071-.01-.097-.035-.027-.024-.04-.061-.037-.097-.01-.294-.16-.435-.52-.435h-2.904c-.035.004-.07-.008-.097-.033-.026-.026-.039-.062-.035-.098v-.368zm2.997-2.035c-.004.848-.693 1.532-1.54 1.529-.849-.002-1.533-.69-1.533-1.537.001-.848.688-1.535 1.536-1.535.41-.002.803.159 1.093.45.289.29.448.685.444 1.093zm-.613 0c.004-.375-.218-.715-.563-.861-.344-.146-.742-.07-1.009.193-.267.262-.347.66-.205 1.007.142.345.479.572.853.572.245.007.482-.086.656-.259.176-.172.272-.406.268-.652zm-2.276-3.529c-.066-.018-.112-.08-.108-.15v-.399c0-.093.056-.139.149-.107l3.834 1.315c.068.019.111.082.105.152v.399c0 .093-.055.14-.148.108l-1.054-.362-2.734 1.079c-.09.033-.152-.007-.152-.104v-.396c-.006-.068.038-.129.103-.149l1.909-.744z"/><path d="m30.001 46.828c0-1.152.933-2.086 2.087-2.086 1.151 0 2.085.934 2.085 2.086s-.934 2.086-2.085 2.086c-1.154 0-2.087-.934-2.087-2.086zm-.696 0c0 1.535 1.245 2.781 2.783 2.781 1.534 0 2.78-1.246 2.78-2.781 0-1.537-1.246-2.781-2.78-2.781-.739 0-1.446.293-1.969.814-.52.522-.814 1.229-.814 1.967z"/><path d="m32.364 46.271c.005.038-.007.076-.034.104s-.064.04-.104.034h-.279c-.037.006-.076-.006-.104-.034s-.041-.066-.034-.104v-.904c-.007-.038.007-.076.034-.104.027-.026.066-.04.104-.034h.141c.646 0 1.23.39 1.477.987.248.597.111 1.285-.347 1.742-.023.032-.06.05-.099.05s-.075-.018-.099-.05l-.296-.296c-.031-.022-.049-.059-.049-.098s.018-.074.049-.098c.222-.223.313-.545.238-.85-.072-.307-.299-.551-.599-.648v.303z"/></g><path d="m51.998 6.808c.002-4.555-39.998-4.553-39.998 0s40 4.553 39.998 0z" fill="#619c37"/><path d="m48.988 6.35c.002-3.148-33.973-3.147-33.973 0 .001 3.145 33.975 3.145 33.973 0z" fill="#cfd8dd"/><path d="m39.102 4.325h-14.204l-1.111 2.15c0 1.618 16.426 1.618 16.424 0z" fill="url(#b)"/><path d="m39.102 4.325c0-1.618-14.203-1.618-14.203 0-.001 1.616 14.203 1.616 14.203 0z" fill="#b3c2c6"/><path d="m38.482 3.985c0-1.313-12.961-1.313-12.961 0s12.961 1.313 12.961 0z" fill="#cfd8dd"/></svg>