<svg enable-background="new 0 0 64 64" height="64" viewBox="0 0 64 64" width="64" xmlns="http://www.w3.org/2000/svg" xmlns:xlink="http://www.w3.org/1999/xlink"><linearGradient id="a" gradientUnits="userSpaceOnUse" x1="32" x2="32" y1="2" y2="62"><stop offset="0" stop-color="#00abf1"/><stop offset=".2292" stop-color="#00a7ef"/><stop offset=".4667" stop-color="#009ae9"/><stop offset=".7079" stop-color="#0086e0"/><stop offset=".9504" stop-color="#0069d3"/><stop offset="1" stop-color="#0062d0"/></linearGradient><path d="m62 54c0 4.4-3.6 8-8 8h-44c-4.4 0-8-3.6-8-8v-44c0-4.4 3.6-8 8-8h44c4.4 0 8 3.6 8 8z" fill="url(#a)"/><g fill="#fff"><path d="m27.324 20.059c1.529-.684 3.19-1.041 4.895-1.041 6.588 0 11.949 5.129 11.949 11.982h7.832c0-10.771-8.875-19.813-19.781-19.813-3.846 0-7.557 1.086-10.764 3.17l-3.455-3.357v13.146h13.531z"/><path d="m36.5 42.564c-1.465.662-3.053 1.016-4.691 1.016-6.598 0-11.967-5.346-11.967-12.58h-7.842c0 11.367 8.887 20.848 19.809 20.848 3.707 0 7.248-1.092 10.33-3.088l3.861 4.24v-14.766h-13.443z"/></g></svg>