<svg enable-background="new 0 0 64 64" height="64" viewBox="0 0 64 64" width="64" xmlns="http://www.w3.org/2000/svg" xmlns:xlink="http://www.w3.org/1999/xlink"><linearGradient id="a"><stop offset="0" stop-color="#f59e01"/><stop offset="1" stop-color="#ffe463"/></linearGradient><linearGradient id="b" gradientUnits="userSpaceOnUse" x1="32.0005" x2="32.0005" xlink:href="#a" y1="62" y2="1.9917"/><linearGradient id="c" gradientUnits="userSpaceOnUse" x1="56.2695" x2="56.2695" xlink:href="#a" y1="61.998" y2="1.9946"/><linearGradient id="d" gradientUnits="userSpaceOnUse" x1="7.7305" x2="7.7305" xlink:href="#a" y1="61.998" y2="1.9946"/><linearGradient id="e" gradientUnits="userSpaceOnUse" x1="14.8389" x2="14.8389" xlink:href="#a" y1="62" y2="1.9917"/><linearGradient id="f" gradientUnits="userSpaceOnUse" x1="49.1621" x2="49.1621" xlink:href="#a" y1="62.001" y2="1.9926"/><linearGradient id="g" gradientUnits="userSpaceOnUse" x1="49.1621" x2="49.1621" xlink:href="#a" y1="62" y2="1.9917"/><linearGradient id="h" gradientUnits="userSpaceOnUse" x1="32.0005" x2="32.0005" xlink:href="#a" y1="62" y2="2.001"/><path d="m32 50.541c-1.649 0-3 1.35-3 3v5.459c0 1.65 1.351 3 3 3 1.65 0 3-1.35 3-3v-5.459c0-1.65-1.35-3-3-3z" fill="url(#b)"/><path d="m32 13.461c1.65 0 3-1.35 3-3v-5.461c0-1.65-1.35-3-3-3-1.649 0-3 1.35-3 3v5.461c0 1.65 1.351 3 3 3z" fill="url(#b)"/><path d="m59 29h-5.461c-1.648 0-3 1.35-3 3s1.352 3 3 3h5.461c1.65 0 3-1.35 3-3s-1.35-3-3-3z" fill="url(#c)"/><path d="m13.461 32c0-1.65-1.35-3-3-3h-5.461c-1.649 0-3 1.35-3 3s1.351 3 3 3h5.461c1.65 0 3-1.35 3-3z" fill="url(#d)"/><path d="m14.648 45.109-3.86 3.86c-1.167 1.166-1.167 3.076-.001 4.242 1.167 1.166 3.076 1.166 4.243 0l3.86-3.86c1.167-1.166 1.167-3.074 0-4.242-1.165-1.166-3.075-1.166-4.242 0z" fill="url(#e)"/><path d="m49.354 18.891 3.859-3.861c1.166-1.167 1.166-3.076 0-4.242-1.166-1.167-3.074-1.167-4.242 0l-3.859 3.861c-1.168 1.167-1.168 3.076-.002 4.242s3.076 1.166 4.244 0z" fill="url(#f)"/><path d="m49.354 45.109c-1.168-1.166-3.076-1.166-4.244 0-1.166 1.166-1.166 3.076.002 4.242l3.859 3.86c1.168 1.166 3.076 1.166 4.242 0s1.166-3.076 0-4.242z" fill="url(#g)"/><path d="m14.648 18.89c1.167 1.167 3.076 1.167 4.242 0 1.167-1.167 1.167-3.076 0-4.242l-3.86-3.861c-1.167-1.167-3.076-1.167-4.243 0-1.166 1.167-1.166 3.076.001 4.242z" fill="url(#e)"/><path d="m32 17c-8.286 0-15 6.716-15 15s6.715 15 15 15c8.283 0 15-6.716 15-15s-6.717-15-15-15zm0 25c-5.523 0-10-4.477-10-10s4.477-10 10-10c5.521 0 10 4.477 10 10s-4.479 10-10 10z" fill="url(#h)"/></svg>