<svg enable-background="new 0 0 64 64" height="64" viewBox="0 0 64 64" width="64" xmlns="http://www.w3.org/2000/svg" xmlns:xlink="http://www.w3.org/1999/xlink"><linearGradient id="a" gradientUnits="userSpaceOnUse" x1="31.9995" x2="31.9995" y1="2" y2="62.0005"><stop offset="0" stop-color="#00abf1"/><stop offset=".2292" stop-color="#00a7ef"/><stop offset=".4667" stop-color="#009ae9"/><stop offset=".708" stop-color="#0086e0"/><stop offset=".9504" stop-color="#0069d3"/><stop offset="1" stop-color="#0062d0"/></linearGradient><path d="m62 54c0 4.399-3.6 8-8 8h-44c-4.399 0-8-3.601-8-8v-44c0-4.4 3.601-8 8-8h44c4.4 0 8 3.6 8 8z" fill="url(#a)"/><g fill="#fff"><path d="m18.592 16.594h4.302c.671 0 1.045.374 1.045 1.046v28.72c0 .672-.374 1.046-1.045 1.046h-3.961c-.671 0-1.045-.374-1.045-1.046v-23.67l-5.954 3.268c-.715.419-1.254.077-1.254-.715v-3.84c0-.551.22-.969.715-1.255l5.898-3.225c.418-.252.803-.329 1.299-.329z"/><path d="m28.672 32c0-9.508 4.466-16 12.324-16s12.324 6.492 12.324 16c0 9.507-4.467 16-12.324 16s-12.324-6.493-12.324-16zm18.596 0c0-6.515-2.145-10.103-6.271-10.103s-6.272 3.588-6.272 10.103c0 6.514 2.145 10.102 6.271 10.102s6.272-3.588 6.272-10.102z"/></g></svg>