<svg enable-background="new 0 0 64 64" height="64" viewBox="0 0 64 64" width="64" xmlns="http://www.w3.org/2000/svg" xmlns:xlink="http://www.w3.org/1999/xlink"><radialGradient id="a" cx="32" cy="32" gradientUnits="userSpaceOnUse" r="30"><stop offset=".683" stop-color="#a2aaad"/><stop offset="1" stop-color="#4e5e67"/></radialGradient><radialGradient id="b" cx="32" cy="33.5" fx="34.1839" fy="36.5534" gradientUnits="userSpaceOnUse" r="28.7511"><stop offset=".094" stop-color="#a2aaad"/><stop offset="1" stop-color="#6e8189"/></radialGradient><radialGradient id="c" cx="32" cy="33" gradientUnits="userSpaceOnUse" r="15"><stop offset=".7446" stop-color="#a2aaad"/><stop offset=".9156" stop-color="#4e5e67"/></radialGradient><linearGradient id="d" gradientUnits="userSpaceOnUse" x1="24.4985" x2="39.5016" y1="18.3818" y2="44.368"><stop offset="0" stop-color="#e9e6ef"/><stop offset=".3535" stop-color="#d6dde1"/><stop offset=".6919" stop-color="#c2cacd"/><stop offset="1" stop-color="#a2aaad"/></linearGradient><circle cx="32" cy="32" fill="url(#a)" r="30"/><path d="m61 32c0 16.568-12.432 30-29 30s-29-13.432-29-30c0-13.902 12.433-27 29-27 16.568 0 29 13.098 29 27z" fill="url(#b)"/><circle cx="32" cy="33" fill="url(#c)" r="15"/><path d="m47 31.375c0 8.283-6.714 15-14.998 15-8.29 0-15.002-6.717-15.002-15 0-8.285 6.712-15 15.002-15 8.284 0 14.998 6.715 14.998 15z" fill="url(#d)"/></svg>