<svg enable-background="new 0 0 64 64" height="64" viewBox="0 0 64 64" width="64" xmlns="http://www.w3.org/2000/svg" xmlns:xlink="http://www.w3.org/1999/xlink"><linearGradient id="a" gradientUnits="userSpaceOnUse" x1="24.9995" x2="24.9995" y1="32" y2="4"><stop offset="0" stop-color="#bec8cc"/><stop offset=".2613" stop-color="#bbc5c9"/><stop offset=".4431" stop-color="#b2bcc0"/><stop offset=".6008" stop-color="#a3adb1"/><stop offset=".7448" stop-color="#8e979b"/><stop offset=".878" stop-color="#737c7f"/><stop offset="1" stop-color="#535b5e"/></linearGradient><linearGradient id="b" gradientUnits="userSpaceOnUse" x1="18.9814" x2="18.9814" y1="32" y2="4.7422"><stop offset="0" stop-color="#fafdff" stop-opacity=".7"/><stop offset=".897" stop-color="#fafdff" stop-opacity="0"/></linearGradient><linearGradient id="c" gradientTransform="matrix(-1 0 0 1 -83.4561 0)" gradientUnits="userSpaceOnUse" x1="-114.3691" x2="-114.3691" y1="32" y2="4.7422"><stop offset="0" stop-color="#0b0c0d" stop-opacity=".3"/><stop offset=".897" stop-color="#0b0c0d" stop-opacity="0"/></linearGradient><linearGradient id="d" gradientUnits="userSpaceOnUse" x1="15.5664" x2="34.4326" y1="19.8223" y2="19.8223"><stop offset="0" stop-color="#0b0c0d" stop-opacity=".3"/><stop offset=".0991" stop-color="#242526" stop-opacity=".3198"/><stop offset=".7272" stop-color="#bcbfc1" stop-opacity=".4454"/><stop offset="1" stop-color="#fafdff" stop-opacity=".5"/></linearGradient><linearGradient id="e" gradientUnits="userSpaceOnUse" x1="7" x2="42.999" y1="45.5605" y2="45.5605"><stop offset="0" stop-color="#ffd231"/><stop offset="1" stop-color="#db7600"/></linearGradient><linearGradient id="f" gradientTransform="matrix(0 -1 1 0 -266.8132 305.0632)" gradientUnits="userSpaceOnUse" x1="273.0654" x2="273.0654" y1="329.6631" y2="296.3962"><stop offset="0" stop-color="#ffd94d"/><stop offset="1" stop-color="#f5af31"/></linearGradient><linearGradient id="g" gradientTransform="matrix(0 -1 1 0 -266.8132 305.0632)" gradientUnits="userSpaceOnUse" x1="290.3262" x2="290.3262" y1="327.9775" y2="297.8013"><stop offset="0" stop-color="#ffc55e"/><stop offset="1" stop-color="#ffd94d"/></linearGradient><linearGradient id="h"><stop offset="0" stop-color="#e09500"/><stop offset=".4667" stop-color="#ffe173"/><stop offset=".5479" stop-color="#fddd6d"/><stop offset=".6609" stop-color="#f8d15b"/><stop offset=".7925" stop-color="#f0bd3d"/><stop offset=".9371" stop-color="#e5a214"/><stop offset="1" stop-color="#e09500"/></linearGradient><linearGradient id="i" gradientTransform="matrix(0 -1 1 0 -266.8132 305.0632)" gradientUnits="userSpaceOnUse" x1="290.4775" x2="297.0013" xlink:href="#h" y1="315.0381" y2="308.5143"/><linearGradient id="j"><stop offset="0" stop-color="#ffd94d"/><stop offset="1" stop-color="#d68e00"/></linearGradient><linearGradient id="k" gradientTransform="matrix(0 -1 1 0 -266.8132 305.0632)" gradientUnits="userSpaceOnUse" x1="263.4385" x2="263.4385" xlink:href="#j" y1="315.71" y2="312.5098"/><linearGradient id="l" gradientTransform="matrix(0 -1 1 0 -266.8132 305.0632)" gradientUnits="userSpaceOnUse" x1="261.7012" x2="261.7012" xlink:href="#j" y1="310.3486" y2="306.6868"/><linearGradient id="m" gradientTransform="matrix(0 -1 1 0 -266.8132 305.0632)" gradientUnits="userSpaceOnUse" x1="280.6416" x2="296.8593" xlink:href="#h" y1="319.6123" y2="303.3947"/><path d="m25 4c-7.181 0-13 5.904-13 13.188v14.812h5.443v-14.812c0-10.252 15.113-10.252 15.113 0v14.812h5.443v-14.812c0-7.284-5.822-13.188-12.999-13.188z" fill="url(#a)"/><path d="m25.481 4.742c-7.181 0-13 5.906-13 13.189v14.069h1.669v-14.068c0-8.586 6.26-12.61 11.331-13.19z" fill="url(#b)"/><path d="m24.413 4.742c7.18 0 13 5.906 13 13.189v14.069h-1.67v-14.068c0-8.586-6.259-12.61-11.33-13.19z" fill="url(#c)"/><path d="m34.433 32v-14.477c0-13.172-18.866-13.172-18.866 0v14.477h1.293v-15.252c0-10.557 16.28-10.557 16.28 0v15.252z" fill="url(#d)"/><path d="m42.999 58.898c0 .605-.496 1.102-1.102 1.102h-33.795c-.606 0-1.102-.496-1.102-1.102v-26.673c0-.605.496-1.104 1.102-1.104h33.796c.605 0 1.102.498 1.102 1.104v26.673z" fill="url(#e)"/><path d="m42.081 31.121c0 1.557-34.163 1.557-34.163 0z" fill="#c46a12"/><path d="m32.372 16.251c.022 4.436 2.387 8.33 5.913 10.517v.001c.613.401 1.438.957 1.441 1.551.037 7.383.072 21.191.105 27.751l1.135 1.192s1.357.309 2.566 2.731c.127.126 1.516-1.9 3.129-3.547 0 0 .267-9.701.01-24.124-.003-.154 3.37-.021 3.371-.161 0-1.923-.377-1.878-.386-3.405-.005-.831.687-1.268 1.94-2.179 3.28-2.196 5.425-5.942 5.402-10.2-.032-6.803-5.573-12.343-12.376-12.378-6.801-.034-12.283 5.45-12.25 12.251zm15.063-5.21c.008 1.534-1.229 2.771-2.762 2.762-1.531-.007-2.779-1.257-2.789-2.791-.008-1.532 1.229-2.768 2.763-2.76 1.53.009 2.78 1.258 2.788 2.789z" fill="url(#f)"/><path d="m33.517 16.257c.016 3.127 1.316 5.961 3.398 7.998l15.625.08c2.061-2.019 3.332-4.837 3.316-7.963-.03-6.172-5.057-11.199-11.226-11.227-6.17-.032-11.145 4.943-11.113 11.112zm13.918-5.216c.008 1.534-1.229 2.771-2.762 2.762-1.531-.007-2.779-1.257-2.789-2.791-.008-1.532 1.229-2.768 2.763-2.76 1.53.009 2.78 1.258 2.788 2.789z" fill="url(#g)"/><path d="m41.262 11.009c.009 1.878 1.539 3.406 3.415 3.416 1.877.012 3.389-1.502 3.38-3.381-.011-1.876-1.539-3.404-3.415-3.415-1.877-.008-3.389 1.507-3.38 3.38zm6.075.032c.008 1.479-1.186 2.675-2.664 2.665-1.48-.006-2.684-1.211-2.691-2.694-.01-1.478 1.185-2.671 2.663-2.663 1.481.007 2.686 1.213 2.692 2.692z" fill="url(#i)"/><path d="m46.524 28.51c-.011-2.279 2.302-2.267 2.315.013.005 1.308.026 5.454.03 5.919 0 .204-1.311 1.229-1.31 1.359.001.385.006 1.177.007 1.562 0 .151 1.325 1.627 1.326 1.898 0 .316-.844 1.141-.845 1.293.002.254.007 1.336.007 1.479.001.09.574.559.574.864.003.322-1.223 1.625-1.223 1.796.002.273.004.932.006 1.204.001.142 1.279 1.59 1.28 1.76.002.283-1.017 2.03-1.017 2.172-.001.295.004.798.008 1.095-.002.152.788 1.328.79 1.542.001.273-.872 1.234-.932 1.656-.02.124.26 1.354.181 1.404-.574.366-1.063.922-1.063.922s-.128-27.163-.134-27.938z" fill="url(#k)"/><path d="m43.37 28.495c.006 1.076.162 31.499.162 31.499l-2.566-2.731s-.141-27.706-.145-28.78c-.012-2.34 2.539-2.326 2.549.012z" fill="url(#l)"/><path d="m56.1 16.372c.016 3.092-1.188 5.982-3.389 8.137l-.071.069-15.824-.08-.069-.07c-2.224-2.177-3.458-5.08-3.473-8.173-.032-6.293 5.061-11.385 11.354-11.354 6.295.032 11.44 5.178 11.472 11.471zm-3.662 7.721c2.063-2.056 3.191-4.796 3.175-7.723-.032-6.024-4.959-10.952-10.983-10.982-6.025-.029-10.901 4.845-10.87 10.869.015 2.928 1.17 5.678 3.253 7.756z" fill="url(#m)"/></svg>