<svg enable-background="new 0 0 64 64" height="64" viewBox="0 0 64 64" width="64" xmlns="http://www.w3.org/2000/svg" xmlns:xlink="http://www.w3.org/1999/xlink"><linearGradient id="a" gradientUnits="userSpaceOnUse" x1="3" x2="61" y1="20" y2="20"><stop offset="0" stop-color="#4e585e"/><stop offset=".3201" stop-color="#41444e"/><stop offset=".7152" stop-color="#343240"/><stop offset="1" stop-color="#302c3b"/></linearGradient><path d="m3 20 16-16v10h42v12h-42v10z" fill="url(#a)"/><g fill="#302c3b"><path d="m16.76 54.806c0 2.772-2.069 4.897-4.863 4.897h-7.296-.358c-.336 0-.522-.188-.522-.523v-14.36c0-.335.187-.522.522-.522h2.503 3.378c2.636 0 4.545 1.776 4.545 4.159 0 .675-.207 1.325-.558 1.88 1.61.837 2.649 2.476 2.649 4.469zm-10.013-7.669v2.606h4.432c.299-.299.465-.713.465-1.121 0-.864-.583-1.485-1.519-1.485zm6.987 7.504c0-1.243-.721-2.223-2.201-2.223h-4.786v4.445h4.765c1.496 0 2.222-.984 2.222-2.222z"/><path d="m30.606 59.703h-2.206c-.292 0-.501-.132-.589-.436l-.741-2.327h-5.911l-.742 2.327c-.088.304-.297.436-.589.436h-2.206c-.38 0-.562-.216-.436-.589l4.897-14.383c.088-.286.313-.435.604-.435h2.851c.291 0 .517.148.604.435l4.898 14.383c.128.373-.054.589-.434.589zm-4.44-5.601-2.051-6.438-2.051 6.438z"/><path d="m31.323 52c0-4.501 3.361-8 8.027-8 3.438 0 6.377 2.118 7.324 5.211.093.357-.095.588-.452.588h-2.141c-.291 0-.468-.143-.594-.413-.688-1.496-2.283-2.437-4.138-2.437-3.021 0-5.001 2.09-5.001 5.051 0 2.96 1.98 5.051 5.001 5.051 1.854 0 3.45-.941 4.138-2.438.126-.27.303-.413.594-.413h2.141c.357 0 .55.215.457.545-.913 3.098-3.867 5.255-7.328 5.255-4.666 0-8.028-3.5-8.028-8z"/><path d="m59.839 59.703h-2.316c-.27 0-.479-.094-.634-.319l-5.265-6.917v6.714c0 .335-.188.522-.522.522h-1.982c-.336 0-.521-.188-.521-.522v-14.361c0-.336.186-.523.521-.523h1.981c.335 0 .522.188.522.523v6.287l5.045-6.492c.17-.219.357-.318.627-.318h2.316c.424 0 .589.287.324.633l-5.227 6.863 5.447 7.277c.25.352.108.633-.316.633z"/></g></svg>