<svg enable-background="new 0 0 64 64" height="64" viewBox="0 0 64 64" width="64" xmlns="http://www.w3.org/2000/svg" xmlns:xlink="http://www.w3.org/1999/xlink"><linearGradient id="a" gradientTransform="matrix(.7071 -.7071 .7071 .7071 -41.1071 259.4258)" gradientUnits="userSpaceOnUse" x1="209.0449" x2="209.0449" y1="-83.5005" y2="-128.9145"><stop offset="0" stop-color="#ffd94d"/><stop offset="1" stop-color="#f5af31"/></linearGradient><linearGradient id="b" gradientTransform="matrix(.7071 -.7071 .7071 .7071 -41.1071 259.4258)" gradientUnits="userSpaceOnUse" x1="232.6074" x2="232.6074" y1="-85.8027" y2="-126.9969"><stop offset="0" stop-color="#ffc55e"/><stop offset="1" stop-color="#ffd94d"/></linearGradient><linearGradient id="c"><stop offset="0" stop-color="#e09500"/><stop offset=".4667" stop-color="#ffe173"/><stop offset=".5479" stop-color="#fddd6d"/><stop offset=".6609" stop-color="#f8d15b"/><stop offset=".7925" stop-color="#f0bd3d"/><stop offset=".9371" stop-color="#e5a214"/><stop offset="1" stop-color="#e09500"/></linearGradient><linearGradient id="d" gradientTransform="matrix(.7071 -.7071 .7071 .7071 -41.1071 259.4258)" gradientUnits="userSpaceOnUse" x1="232.8125" x2="241.7179" xlink:href="#c" y1="-103.4673" y2="-112.3727"/><linearGradient id="e"><stop offset="0" stop-color="#ffd94d"/><stop offset="1" stop-color="#d68e00"/></linearGradient><linearGradient id="f" gradientTransform="matrix(.7071 -.7071 .7071 .7071 -41.1071 259.4258)" gradientUnits="userSpaceOnUse" x1="195.9023" x2="195.9023" xlink:href="#e" y1="-102.5498" y2="-106.9187"/><linearGradient id="g" gradientTransform="matrix(.7071 -.7071 .7071 .7071 -41.1071 259.4258)" gradientUnits="userSpaceOnUse" x1="193.5313" x2="193.5313" xlink:href="#e" y1="-109.8687" y2="-114.8675"/><linearGradient id="h" gradientTransform="matrix(.7071 -.7071 .7071 .7071 -41.1071 259.4258)" gradientUnits="userSpaceOnUse" x1="219.3857" x2="241.5239" xlink:href="#c" y1="-97.2227" y2="-119.3608"/><path d="m33.449 7.947c-4.257 4.303-5.736 10.345-4.443 15.858h-.002c.206.981.465 2.313-.105 2.889-7.089 7.161-20.384 20.524-26.686 26.89l-.054 2.246s1.014 1.605-.159 5.112c0 .245 3.297-.371 6.443-.403 0 0 9.621-9.106 23.294-23.275.146-.151 3.274 3.232 3.409 3.099 1.858-1.857 1.451-2.178 2.917-3.66.797-.807 1.886-.561 3.977-.23 5.284 1.048 10.97-.498 15.061-4.63 6.532-6.599 6.532-17.296-.001-23.895-6.532-6.597-17.118-6.597-23.651-.001zm19.57 9.511c-1.473 1.487-3.859 1.487-5.33 0-1.473-1.485-1.472-3.896 0-5.385 1.472-1.487 3.858-1.487 5.33.002 1.469 1.486 1.469 3.898 0 5.383z" fill="url(#a)"/><path d="m34.549 9.059c-3.002 3.033-4.481 7.023-4.439 11l15.007 15.158c3.936.042 7.884-1.451 10.887-4.484 5.927-5.985 5.927-15.691 0-21.674-5.926-5.986-15.53-5.986-21.455 0zm18.47 8.399c-1.473 1.487-3.859 1.487-5.33 0-1.473-1.485-1.472-3.896 0-5.385 1.472-1.487 3.858-1.487 5.33.002 1.469 1.486 1.469 3.898 0 5.383z" fill="url(#b)"/><path d="m47.091 11.47c-1.803 1.82-1.802 4.771 0 6.592 1.801 1.822 4.72 1.822 6.524 0 1.801-1.82 1.802-4.771 0-6.593-1.804-1.82-4.723-1.819-6.524.001zm5.834 5.894c-1.421 1.436-3.727 1.436-5.145 0-1.422-1.435-1.422-3.76.002-5.198 1.417-1.435 3.722-1.435 5.142 0 1.422 1.438 1.422 3.764.001 5.198z" fill="url(#d)"/><path d="m35.277 33.441c2.189-2.211 4.411.033 2.223 2.247-1.256 1.268-5.238 5.29-5.684 5.742-.196.198-2.451-.079-2.576.049-.371.372-1.129 1.14-1.5 1.514-.146.146-.291 2.849-.553 3.112-.304.306-1.916.285-2.063.433-.242.246-1.284 1.297-1.42 1.434-.087.088.013 1.094-.279 1.388-.31.315-2.75.389-2.914.555-.265.266-.896.903-1.157 1.168-.136.138-.301 2.768-.463 2.934-.271.275-2.941.979-3.077 1.115-.286.284-.769.775-1.049 1.063-.149.145-.522 2.044-.727 2.252-.262.266-2.033.349-2.499.699-.139.102-1.057 1.558-1.179 1.53-.911-.201-1.917-.137-1.917-.137s26.092-26.345 26.834-27.098z" fill="url(#f)"/><path d="m32.249 30.383c-1.033 1.044-30.249 30.559-30.249 30.559l.159-5.112s26.606-26.879 27.641-27.921c2.245-2.269 4.695.206 2.449 2.474z" fill="url(#g)"/><path d="m56.236 30.967c-2.969 3-6.921 4.628-11.124 4.584l-.136-.002-15.197-15.351v-.136c-.044-4.248 1.566-8.241 4.537-11.24 6.044-6.104 15.876-6.104 21.918 0 6.048 6.107 6.048 16.04.002 22.145zm-10.985 3.918c3.975.006 7.709-1.549 10.518-4.39 5.785-5.846 5.785-15.356 0-21.201-5.787-5.846-15.2-5.846-20.984 0-2.813 2.84-4.352 6.609-4.346 10.625z" fill="url(#h)"/></svg>