<svg enable-background="new 0 0 64 64" height="64" viewBox="0 0 64 64" width="64" xmlns="http://www.w3.org/2000/svg" xmlns:xlink="http://www.w3.org/1999/xlink"><linearGradient id="a"><stop offset="0" stop-color="#707b7d"/><stop offset=".0993" stop-color="#939c9f"/><stop offset=".205" stop-color="#b2b9bc"/><stop offset=".2949" stop-color="#c5cbce"/><stop offset=".3576" stop-color="#ccd1d4"/><stop offset="1" stop-color="#707b7d"/></linearGradient><linearGradient id="b" gradientTransform="matrix(.7071 .7071 -.7071 .7071 414.4004 107.889)" gradientUnits="userSpaceOnUse" x1="-335.5464" x2="-312.5785" xlink:href="#a" y1="208.7637" y2="185.7958"/><linearGradient id="c" gradientTransform="matrix(.7071 .7071 -.7071 .7071 414.4004 107.889)" gradientUnits="userSpaceOnUse" x1="-336.999" x2="-311.127" xlink:href="#a" y1="236.1973" y2="236.1973"/><linearGradient id="d" gradientTransform="matrix(.7071 .7071 -.7071 .7071 414.4004 107.889)" gradientUnits="userSpaceOnUse" x1="-327.7578" x2="-320.3652" y1="216.7393" y2="216.7393"><stop offset="0" stop-color="#707b7d"/><stop offset=".0808" stop-color="#939c9f"/><stop offset=".1668" stop-color="#b2b9bc"/><stop offset=".2399" stop-color="#c5cbce"/><stop offset=".2909" stop-color="#ccd1d4"/><stop offset=".7515" stop-color="#707b7d"/></linearGradient><path d="m33.64 30.363c-4.547-4.547-6.172-12.125-.487-17.81l6.919-6.919c5.687-5.687 13.263-4.061 17.81.485 4.545 4.544 6.171 12.122.484 17.809l-6.919 6.919c-5.686 5.686-13.263 4.06-17.807-.484zm19.667-19.669c-1.698-1.698-5.436-3.712-8.661-.485l-6.918 6.918c-3.227 3.227-1.213 6.963.485 8.662 1.698 1.698 5.435 3.71 8.66.484l6.918-6.92c3.227-3.224 1.214-6.959-.484-8.659z" fill="url(#b)"/><path d="m6.122 57.881c-4.547-4.546-6.175-12.122-.487-17.81l6.916-6.916c5.688-5.688 13.265-4.061 17.81.485 4.545 4.544 6.172 12.121.484 17.809l-6.916 6.916c-5.688 5.688-13.264 4.06-17.807-.484zm19.665-19.666c-1.698-1.698-5.436-3.713-8.662-.486l-6.916 6.917c-3.227 3.227-1.213 6.962.486 8.661 1.698 1.698 5.434 3.712 8.659.485l6.917-6.917c3.227-3.227 1.215-6.961-.484-8.66z" fill="url(#c)"/><path d="m21.48 42.521c-1.446-1.446-1.589-3.639-.326-4.901l16.465-16.465c1.265-1.265 3.455-1.118 4.9.326 1.442 1.443 1.591 3.638.327 4.901l-16.465 16.467c-1.263 1.261-3.458 1.116-4.901-.328z" fill="url(#d)"/></svg>