<svg enable-background="new 0 0 64 64" height="64" viewBox="0 0 64 64" width="64" xmlns="http://www.w3.org/2000/svg" xmlns:xlink="http://www.w3.org/1999/xlink"><linearGradient id="a" gradientUnits="userSpaceOnUse" x1="3" x2="61" y1="20" y2="20"><stop offset="0" stop-color="#4e585e"/><stop offset=".3201" stop-color="#41444e"/><stop offset=".7152" stop-color="#343240"/><stop offset="1" stop-color="#302c3b"/></linearGradient><path d="m61 20-16-16v10h-42v12h42v10z" fill="url(#a)"/><g fill="#302c3b"><path d="m3.001 55.5c-.022-.359.178-.545.508-.545h1.953c.309 0 .477.17.53.506.185 1.05 1.051 1.59 2.516 1.59 1.52 0 2.234-.666 2.234-1.558 0-1.095-1.212-1.573-2.65-2.091-2.181-.781-4.842-1.655-4.842-4.93 0-2.948 2.402-4.472 4.923-4.472 2.5 0 4.842 1.393 5.09 4.418.022.357-.178.545-.508.545h-1.953c-.309 0-.476-.171-.529-.5-.18-1.018-.932-1.514-2.1-1.514-1.228 0-1.948.638-1.948 1.523 0 1.134 1.044 1.635 2.44 2.156 2.197.805 5.053 1.613 5.053 4.864 0 2.955-2.396 4.507-5.209 4.507-2.808.001-5.259-1.419-5.508-4.499z"/><path d="m14.855 52c0-4.5 3.5-8 7.867-8 4.365 0 7.866 3.5 7.866 8s-3.501 8-7.866 8c-4.367 0-7.867-3.5-7.867-8zm12.757 0c0-2.961-2.143-5.051-4.891-5.051-2.749 0-4.89 2.09-4.89 5.051s2.141 5.051 4.89 5.051 4.891-2.09 4.891-5.051z"/><path d="m32.004 52c0-4.5 3.5-8 7.866-8s7.866 3.5 7.866 8-3.5 8-7.866 8-7.866-3.5-7.866-8zm12.758 0c0-2.961-2.145-5.051-4.892-5.051-2.749 0-4.891 2.09-4.891 5.051s2.142 5.051 4.891 5.051c2.747 0 4.892-2.09 4.892-5.051z"/><path d="m58.538 44.297h1.948c.329 0 .514.188.514.523v14.36c0 .336-.185.522-.514.522h-1.348c-.271 0-.492-.104-.633-.336l-5.675-9.182v8.995c0 .336-.185.522-.515.522h-1.945c-.331 0-.515-.187-.515-.522v-14.359c0-.336.184-.523.515-.523h1.347c.27 0 .492.105.633.336l5.675 9.184v-8.997c-.001-.336.184-.523.513-.523z"/></g></svg>