<svg enable-background="new 0 0 64 64" height="64" viewBox="0 0 64 64" width="64" xmlns="http://www.w3.org/2000/svg" xmlns:xlink="http://www.w3.org/1999/xlink"><linearGradient id="a" gradientUnits="userSpaceOnUse" x1="16" x2="48" y1="20" y2="20"><stop offset="0" stop-color="#4e585e"/><stop offset=".3201" stop-color="#41444e"/><stop offset=".7152" stop-color="#343240"/><stop offset="1" stop-color="#302c3b"/></linearGradient><path d="m32 4 16 16h-10v16h-12v-16h-10z" fill="url(#a)"/><g fill="#302c3b"><path d="m22.616 44.82v1.859c0 .336-.187.521-.521.521h-3.191v11.979c0 .335-.187.522-.522.522h-1.981c-.335 0-.522-.188-.522-.522v-11.978h-3.191c-.335 0-.522-.186-.522-.521v-1.86c0-.336.188-.523.522-.523h6.218 3.191c.333 0 .519.187.519.523z"/><path d="m22.732 52c0-4.501 3.56-8 8.001-8 4.439 0 7.999 3.499 7.999 8 0 4.5-3.56 8-7.999 8-4.441 0-8.001-3.5-8.001-8zm12.974 0c0-2.961-2.179-5.051-4.973-5.051-2.796 0-4.975 2.09-4.975 5.051 0 2.96 2.179 5.051 4.975 5.051 2.794 0 4.973-2.091 4.973-5.051z"/><path d="m51.837 49.414c0 2.828-2.283 5.117-5.199 5.117h-2.724v4.649c0 .335-.188.522-.522.522h-1.982c-.336 0-.522-.188-.522-.522v-14.36c0-.336.187-.523.522-.523h2.504 2.724c2.916 0 5.199 2.284 5.199 5.117zm-3.026 0c0-1.282-.94-2.277-2.173-2.277h-2.724v4.555h2.724c1.232-.001 2.173-1.002 2.173-2.278z"/></g></svg>