<svg enable-background="new 0 0 64 64" height="64" viewBox="0 0 64 64" width="64" xmlns="http://www.w3.org/2000/svg" xmlns:xlink="http://www.w3.org/1999/xlink"><linearGradient id="a" gradientTransform="matrix(.7071 .7071 -.7071 .7071 -222.457 108.5433)" gradientUnits="userSpaceOnUse" x1="126.3467" x2="126.3467" y1="-205.5513" y2="-262.5229"><stop offset=".103" stop-color="#f59e01"/><stop offset=".2953" stop-color="#f8b510"/><stop offset=".5583" stop-color="#fccd1f"/><stop offset=".8004" stop-color="#fedc29"/><stop offset="1" stop-color="#ffe12c"/></linearGradient><linearGradient id="b" gradientTransform="matrix(.7071 .7071 -.7071 .7071 -222.457 108.5433)" gradientUnits="userSpaceOnUse" x1="126.3398" x2="126.3398" y1="-206.9121" y2="-262.5229"><stop offset="0" stop-color="#cf0000"/><stop offset=".3788" stop-color="#e90007"/><stop offset=".7319" stop-color="#f9000c"/><stop offset="1" stop-color="#ff000e"/></linearGradient><path d="m51.993 12.736-.115-.115c-.247-.25-.226-.625.05-.84.273-.215.695-.188.943.063l.115.115c.246.25.225.625-.049.84-.275.215-.697.187-.944-.063z" fill="#f59e01"/><path d="m52.867 12.469-.115-.115c-.248-.25-.226-.625.049-.84.273-.215.695-.188.943.063l.115.116c.247.249.225.624-.049.839-.274.214-.697.187-.943-.063z" fill="#f59e01"/><path d="m51.455 12.193-.116-.116c-.247-.249-.226-.625.05-.84.273-.214.695-.187.943.063l.115.116c.246.25.225.625-.049.84s-.697.186-.943-.063z" fill="#f59e01"/><path d="m52.193 11.79-.115-.116c-.247-.248-.225-.625.049-.839.274-.215.697-.187.943.063l.115.116c.247.248.225.625-.049.839-.273.214-.696.186-.943-.063z" fill="#f9b700"/><path d="m21.69 62-.382-2.307-.953-15.189-15.067-.961-2.288-.386 38.717-39.03s1.334-1.347 2.67 0c0 0 5.895 8.664 16.02 16.15 1.336 1.346 0 2.691 0 2.691z" fill="url(#a)"/><path d="m21.309 59.693-2.288-13.843-13.733-2.307 39.099-39.416 16.019 16.15z" fill="url(#b)"/><path d="m48.813 15.83c-.605-.619-.606-1.623 0-2.242.605-.619 1.586-.619 2.19 0 .604.621.604 1.623 0 2.242-.605.621-1.585.621-2.19 0z" fill="#fff"/><path d="m50.034 13.896-.108-.109c-.23-.232-.23-.609 0-.842s.604-.232.834 0l.109.11c.23.232.23.608 0 .841s-.604.233-.835 0z" fill="#f9b700"/><path d="m50.173 13.268-.109-.109c-.229-.232-.229-.609 0-.842.23-.232.604-.232.835 0l.109.11c.23.231.23.608 0 .841s-.605.232-.835 0z" fill="#fdca47"/><path d="m50.53 12.858-.109-.11c-.23-.232-.23-.609 0-.841s.604-.232.835 0l.108.11c.231.232.231.608 0 .841-.229.233-.603.233-.834 0z" fill="#f9b700"/><path d="m50.669 12.229-.109-.109c-.23-.232-.23-.609 0-.842s.604-.232.835 0l.108.11c.23.232.23.608 0 .841s-.605.232-.834 0z" fill="#fdca47"/><path d="m51.025 11.82-.109-.11c-.23-.232-.23-.608 0-.841s.604-.232.835 0l.108.109c.23.232.23.609 0 .842s-.603.233-.834 0z" fill="#f9b700"/><path d="m51.164 11.191-.109-.111c-.23-.232-.23-.608 0-.841s.604-.232.834 0l.109.11c.23.232.23.609 0 .842-.23.232-.603.232-.834 0z" fill="#fdca47"/><path d="m51.521 10.781-.109-.109c-.23-.232-.23-.609 0-.842s.604-.232.834 0l.109.11c.23.231.23.608 0 .841s-.603.233-.834 0z" fill="#f9b700"/><path d="m51.978 10.473-.109-.11c-.229-.232-.229-.608 0-.841.231-.232.604-.232.835 0l.109.109c.23.232.23.609 0 .842s-.605.232-.835 0z" fill="#fdca47"/><path d="m50.759 14.627-.118-.119c-.23-.232-.23-.609 0-.842.23-.231.604-.231.834 0l.118.12c.23.231.23.608 0 .841-.23.232-.604.232-.834 0z" fill="#f9b700"/><path d="m51.402 14.508-.117-.119c-.23-.232-.23-.609 0-.842s.604-.232.834 0l.118.119c.23.232.23.609 0 .842s-.604.232-.835 0z" fill="#fdca47"/><path d="m51.811 14.15-.117-.12c-.23-.232-.23-.608 0-.841s.604-.232.834 0l.118.119c.23.232.23.609 0 .842-.231.232-.605.232-.835 0z" fill="#f9b700"/><path d="m52.455 14.03-.118-.12c-.23-.231-.23-.608 0-.84s.604-.232.835 0l.117.119c.23.232.23.608 0 .841-.23.232-.603.232-.834 0z" fill="#fdca47"/><path d="m52.863 13.672-.119-.119c-.23-.232-.23-.608 0-.841s.604-.232.835 0l.118.119c.23.232.23.608 0 .841s-.603.232-.834 0z" fill="#f9b700"/><path d="m53.508 13.553-.119-.119c-.23-.232-.23-.609 0-.842.23-.231.604-.231.834 0l.119.12c.23.232.23.608 0 .841s-.604.232-.834 0z" fill="#fdca47"/><path d="m53.916 13.195-.119-.119c-.23-.232-.23-.609 0-.842s.604-.232.834 0l.119.119c.23.232.23.609 0 .842s-.604.233-.834 0z" fill="#f9b700"/><path d="m54.215 12.729-.117-.119c-.23-.232-.23-.609 0-.842s.604-.232.834 0l.118.119c.23.232.23.609 0 .842s-.605.232-.835 0z" fill="#fdca47"/><g fill="#f59e01"><path d="m55.025 11.203-.115-.115c-.248-.25-.226-.625.049-.84.273-.215.696-.187.943.063l.115.115c.246.25.225.625-.049.84-.274.214-.697.187-.943-.063z"/><path d="m55.563 10.599-.115-.116c-.247-.249-.225-.625.049-.84.274-.214.697-.186.943.063l.115.117c.248.248.226.625-.049.839-.274.214-.695.186-.943-.063z"/><path d="m53.51 11.97-.115-.116c-.248-.249-.226-.625.049-.84.273-.214.695-.186.943.063l.115.117c.247.248.225.625-.049.839s-.697.186-.943-.063z"/><path d="m54.383 11.703-.116-.117c-.247-.248-.226-.625.05-.839.273-.215.695-.187.943.063l.115.116c.246.249.225.625-.049.84-.274.214-.697.185-.943-.063z"/><path d="m55.875 9.909-.125-.126c-.247-.248-.225-.625.049-.839.274-.215.697-.187.943.063l.125.126c.248.248.226.625-.049.839-.273.215-.696.186-.943-.063z"/><path d="m56.215 9.105-.125-.126c-.246-.248-.225-.624.049-.839.274-.214.697-.187.943.063l.125.126c.248.249.226.625-.049.84-.273.213-.696.185-.943-.064z"/><path d="m56.805 8.552-.125-.126c-.248-.249-.226-.625.049-.84.273-.214.696-.186.943.063l.125.127c.246.248.225.624-.049.839-.274.213-.697.186-.943-.063z"/><path d="m57.145 7.748-.125-.127c-.248-.248-.226-.625.049-.839.273-.215.696-.187.943.063l.125.126c.247.248.225.625-.049.839-.275.214-.697.186-.943-.062z"/><path d="m57.732 7.194-.124-.126c-.247-.249-.226-.625.049-.84s.696-.186.944.063l.124.126c.247.249.226.625-.049.84-.274.214-.696.186-.944-.063z"/><path d="m58.073 6.39-.124-.126c-.248-.249-.226-.625.049-.84.273-.215.696-.186.943.063l.125.126c.246.249.225.625-.049.839-.275.214-.697.187-.944-.062z"/><path d="m58.662 5.836-.124-.125c-.247-.249-.226-.625.049-.84s.696-.187.944.063l.124.125c.247.25.226.625-.049.84s-.696.187-.944-.063z"/><path d="m59.365 5.396-.125-.125c-.247-.249-.225-.625.049-.84.274-.214.697-.186.943.063l.125.126c.247.249.225.625-.049.839-.274.215-.697.187-.943-.063z"/><path d="m52.701 11.156-.115-.117c-.247-.248-.225-.625.049-.84.274-.214.697-.186.943.063l.116.117c.247.249.225.625-.05.839-.273.215-.695.186-.943-.062z"/></g><path d="m53.439 10.753-.115-.116c-.246-.249-.225-.625.05-.84.274-.214.696-.186.943.063l.115.116c.247.249.226.625-.05.84-.273.213-.694.186-.943-.063z" fill="#f9b700"/><path d="m53.948 10.118-.115-.116c-.247-.249-.226-.625.049-.84s.696-.186.944.063l.115.117c.246.248.225.625-.05.839-.274.215-.696.186-.943-.063z" fill="#f59e01"/><path d="m54.352 9.378-.115-.116c-.247-.249-.225-.625.049-.84s.697-.187.943.063l.115.117c.248.248.226.624-.049.839-.274.213-.695.186-.943-.063z" fill="#f9b700"/><path d="m54.547 8.57-.125-.126c-.247-.249-.225-.625.049-.839.273-.215.697-.188.943.063l.125.125c.246.249.225.625-.049.84-.274.214-.697.185-.943-.063z" fill="#f59e01"/><path d="m54.752 7.63-.125-.126c-.247-.248-.225-.625.049-.839.274-.215.697-.187.943.063l.125.126c.248.248.226.625-.049.839-.273.214-.696.186-.943-.063z" fill="#f9b700"/><path d="m55.207 6.941-.125-.125c-.247-.25-.225-.625.049-.84s.697-.187.943.063l.125.125c.247.249.225.625-.049.84s-.697.186-.943-.063z" fill="#f59e01"/><path d="m55.412 6.002-.125-.126c-.246-.249-.225-.625.049-.84.274-.214.697-.187.944.063l.124.126c.248.249.226.625-.049.84-.273.214-.696.185-.943-.063z" fill="#f9b700"/><path d="m55.867 5.313-.125-.125c-.246-.25-.225-.625.049-.84s.697-.187.943.063l.125.125c.247.25.225.625-.049.84-.274.214-.697.187-.943-.063z" fill="#f59e01"/><path d="m56.073 4.373-.125-.126c-.247-.249-.226-.625.049-.839.274-.215.696-.188.944.062l.124.126c.247.249.226.625-.049.84s-.696.185-.943-.063z" fill="#f9b700"/><path d="m56.527 3.684-.124-.125c-.247-.249-.226-.625.049-.84s.696-.187.943.063l.124.125c.248.25.226.625-.049.84-.273.214-.695.187-.943-.063z" fill="#f59e01"/><path d="m57.096 3.109-.125-.125c-.246-.25-.225-.625.049-.84s.697-.188.943.063l.125.125c.248.25.226.625-.049.84-.273.215-.696.186-.943-.063z" fill="#f9b700"/></svg>