<svg enable-background="new 0 0 64 64" height="64" viewBox="0 0 64 64" width="64" xmlns="http://www.w3.org/2000/svg" xmlns:xlink="http://www.w3.org/1999/xlink"><linearGradient id="a" gradientUnits="userSpaceOnUse" x1="28.9367" x2="35.063" y1="2.8608" y2="13.4719"><stop offset="0" stop-color="#f9c802"/><stop offset=".3677" stop-color="#f59e01"/><stop offset=".5943" stop-color="#ea8800"/><stop offset=".8937" stop-color="#f27f00"/></linearGradient><linearGradient id="b" gradientUnits="userSpaceOnUse" x1=".5476" x2="59.2158" y1="31.3103" y2="32.472"><stop offset="0" stop-color="#f59e01"/><stop offset=".1501" stop-color="#f9b700"/><stop offset=".1578" stop-color="#f9b803"/><stop offset=".3038" stop-color="#fcd037"/><stop offset=".4139" stop-color="#fede57"/><stop offset=".4746" stop-color="#ffe463"/><stop offset=".5234" stop-color="#fdd542"/><stop offset=".5775" stop-color="#fbc825"/><stop offset=".6313" stop-color="#fabf11"/><stop offset=".6842" stop-color="#f9b904"/><stop offset=".7354" stop-color="#f9b700"/><stop offset=".8425" stop-color="#f9b700"/><stop offset=".997" stop-color="#f6a701"/></linearGradient><radialGradient id="c" cx="32" cy="55.856" gradientUnits="userSpaceOnUse" r="21.6535"><stop offset=".0336" stop-color="#f9d902"/><stop offset=".2106" stop-color="#f9c802"/><stop offset=".4709" stop-color="#f59e01"/><stop offset=".7218" stop-color="#ea8800"/><stop offset="1" stop-color="#f27f00"/></radialGradient><radialGradient id="d" cx="32" cy="56.209" gradientUnits="userSpaceOnUse" r="19.4328"><stop offset="0" stop-color="#545061"/><stop offset=".3512" stop-color="#464253"/><stop offset=".7435" stop-color="#211d2d"/><stop offset=".9241" stop-color="#1a1626"/><stop offset=".9908" stop-color="#110b1e"/></radialGradient><radialGradient id="e" cx="30.3444" cy="58.1477" gradientTransform="matrix(1 0 0 .7297 0 15.7173)" gradientUnits="userSpaceOnUse" r="14.1336"><stop offset="0" stop-color="#f9d402"/><stop offset=".1765" stop-color="#f9c802"/><stop offset=".2517" stop-color="#f9c302"/><stop offset=".343" stop-color="#f7b402"/><stop offset=".4339" stop-color="#f59e01"/><stop offset=".6756" stop-color="#ea8800"/><stop offset=".9984" stop-color="#f27f00"/></radialGradient><path d="m32 2c-3.315 0-6 2.761-6 6.166s2.685 6.167 6 6.167c3.313 0 6-2.762 6-6.167s-2.687-6.166-6-6.166zm-.021 9.64c-1.878 0-3.399-1.564-3.399-3.493 0-1.931 1.521-3.495 3.399-3.495s3.399 1.564 3.399 3.495c.001 1.928-1.521 3.493-3.399 3.493z" fill="url(#a)"/><path d="m14.791 25.348c0-22.908 34.418-22.908 34.418 0 0 11.477 11.791 29.66 11.791 29.66l-58.693.107s12.484-18.29 12.484-29.767z" fill="url(#b)"/><path d="m62 56.149c0 7.802-60 7.802-60 0 0-8.582 60-8.582 60 0z" fill="url(#c)"/><path d="m59.033 56.445c0 6.282-54.066 6.282-54.066 0 0-6.911 54.066-6.911 54.066 0z" fill="url(#d)"/><path d="m21.901 51.653c.822 13.443 19.377 13.448 20.195 0-6.306-.54-13.888-.54-20.195 0z" fill="url(#e)"/></svg>