<svg enable-background="new 0 0 64 64" height="64" viewBox="0 0 64 64" width="64" xmlns="http://www.w3.org/2000/svg" xmlns:xlink="http://www.w3.org/1999/xlink"><linearGradient id="a" gradientUnits="userSpaceOnUse" x1="3" x2="61" y1="20" y2="20"><stop offset="0" stop-color="#4e585e"/><stop offset=".3201" stop-color="#41444e"/><stop offset=".7152" stop-color="#343240"/><stop offset="1" stop-color="#302c3b"/></linearGradient><path d="m3 20 16-16v10h42v12h-42v10z" fill="url(#a)"/><g fill="#302c3b"><path d="m24.397 57.617v1.86c0 .335-.188.522-.523.522h-7.62-.468c-.336 0-.522-.188-.522-.522v-14.36c0-.336.187-.523.522-.523h2.504 5.475c.335 0 .522.188.522.523v1.859c0 .336-.188.522-.522.522h-5.475v3.296h4.924c.336 0 .522.188.522.522v1.794c0 .335-.187.522-.522.522h-4.924v3.461h5.584c.335.002.523.189.523.524z"/><path d="m35.389 44.594h1.982c.334 0 .521.188.521.523v14.36c0 .335-.188.522-.521.522h-1.371c-.275 0-.5-.104-.645-.336l-5.771-9.183v8.996c0 .335-.187.522-.521.522h-1.981c-.336 0-.522-.188-.522-.522v-14.36c0-.336.187-.523.522-.523h1.37c.275 0 .501.105.644.336l5.772 9.184v-8.996c-.001-.336.187-.523.521-.523z"/><path d="m54.736 52.297c0 4.33-3.18 7.703-7.428 7.703h-5.557-.469c-.336 0-.521-.188-.521-.522v-14.36c0-.336.186-.523.521-.523h2.504 3.521c4.25-.001 7.429 3.372 7.429 7.702zm-2.916 0c0-2.845-1.838-4.798-4.512-4.798h-3.521v9.596h3.521c2.674 0 4.512-1.953 4.512-4.798z"/></g></svg>