<svg enable-background="new 0 0 64 64" height="64" viewBox="0 0 64 64" width="64" xmlns="http://www.w3.org/2000/svg" xmlns:xlink="http://www.w3.org/1999/xlink"><linearGradient id="a"><stop offset="0" stop-color="#5b666e"/><stop offset=".0067" stop-color="#5b656e"/><stop offset=".5347" stop-color="#3c3c49"/><stop offset=".8061" stop-color="#302c3b"/></linearGradient><linearGradient id="b" gradientTransform="matrix(.7071 .7071 .7071 -.7071 260.7054 -629.6621)" gradientUnits="userSpaceOnUse" x1="296.666" x2="315.6338" xlink:href="#a" y1="-614.5107" y2="-614.5107"/><linearGradient id="c" gradientTransform="matrix(.7071 .7071 .7071 -.7071 260.7054 -629.6621)" gradientUnits="userSpaceOnUse" x1="293.1006" x2="319.1982" y1="-638.5156" y2="-638.5156"><stop offset="0" stop-color="#5b666e"/><stop offset=".6113" stop-color="#424450"/><stop offset="1" stop-color="#302c3b"/></linearGradient><linearGradient id="d" gradientTransform="matrix(.7071 .7071 .7071 -.7071 260.7054 -629.6621)" gradientUnits="userSpaceOnUse" x1="292.5098" x2="319.79" xlink:href="#a" y1="-648.2676" y2="-648.2676"/><linearGradient id="e" gradientTransform="matrix(.7071 .7071 .7071 -.7071 260.7054 -629.6621)" gradientUnits="userSpaceOnUse" x1="293.5791" x2="318.7207" y1="-656.4512" y2="-656.4512"><stop offset="0" stop-color="#302c3b"/><stop offset=".3367" stop-color="#3c3c49"/><stop offset=".9917" stop-color="#5b656e"/><stop offset="1" stop-color="#5b666e"/></linearGradient><radialGradient id="f" cx="306.2744" cy="-649.4561" gradientTransform="matrix(.7071 .7071 1.2657 -1.2657 623.4606 -992.4174)" gradientUnits="userSpaceOnUse" r="9.6196"><stop offset="0" stop-color="#fffed4"/><stop offset=".1344" stop-color="#fffdd0"/><stop offset=".2599" stop-color="#fffbc5"/><stop offset=".3818" stop-color="#fff8b2"/><stop offset=".5016" stop-color="#fff498"/><stop offset=".6197" stop-color="#ffee75"/><stop offset=".7352" stop-color="#ffe74c"/><stop offset=".8121" stop-color="#ffe12c"/></radialGradient><linearGradient id="g" gradientTransform="matrix(.7071 .7071 .7071 -.7071 260.7054 -629.6621)" gradientUnits="userSpaceOnUse" x1="303.1924" x2="309.1025" y1="-624.1445" y2="-624.1445"><stop offset="0" stop-color="#5b666e"/><stop offset=".0083" stop-color="#5b656e"/><stop offset=".6633" stop-color="#3c3c49"/><stop offset="1" stop-color="#302c3b"/></linearGradient><path d="m25.78 25.928s18.602-17.364 24.687-23.272c1.552-1.507 5.202-.333 8.206 2.671 3.005 3.005 4.178 6.657 2.673 8.207-5.908 6.084-23.273 24.688-23.273 24.688z" fill="#1a1626"/><path d="m21.365 29.223s20.297-18.946 26.937-25.395c1.691-1.643 5.676-.361 8.953 2.916 3.279 3.277 4.559 7.262 2.916 8.953-6.446 6.641-25.393 26.938-25.393 26.938z" fill="url(#b)"/><path d="m10.58 34.967c8.385-8.384 15.897-7.634 20.993-2.538 5.094 5.092 5.844 12.605-2.54 20.991z" fill="url(#c)"/><path d="m3.363 41.348 5.786-5.784c3.197-3.198 10.104-1.472 15.432 3.856 5.327 5.326 7.053 12.236 3.858 15.43l-5.787 5.788z" fill="url(#d)"/><ellipse cx="13.249" cy="50.751" fill="#6e8189" rx="13.638" ry="8.184" transform="matrix(.7071 .7071 -.7071 .7071 39.7648 5.4953)"/><path d="m21.897 59.881c2.813-2.813 1.111-9.072-3.798-13.98-4.908-4.91-11.168-6.608-13.98-3.796s-1.112 9.072 3.796 13.979c4.91 4.91 11.169 6.609 13.982 3.797z" fill="url(#e)"/><path d="m18.1 45.9c4.304 4.304 6.141 9.645 4.633 12.791-3.146 1.508-8.488-.328-12.792-4.633-4.304-4.303-6.14-9.645-4.632-12.791 3.146-1.507 8.487.33 12.791 4.633z" fill="url(#f)"/><path d="m18.1 45.9c.61.609 1.159 1.243 1.667 1.887-4.928 4.621-8.175 1.375-3.553-3.554.642.508 1.275 1.056 1.886 1.667z" fill="#fff"/><path d="m38.021 31.204c3.324-3.325-1.896-8.548-5.223-5.224-3.324 3.328 1.897 8.55 5.223 5.224z" fill="#cfd8dd"/><path d="m37.496 30.68c2.659-2.657-1.515-6.834-4.177-4.178-2.656 2.663 1.518 6.837 4.177 4.178z" fill="#1a1626"/><path d="m37.939 30.236c2.659-2.659-1.518-6.835-4.179-4.179-2.656 2.662 1.52 6.839 4.179 4.179z" fill="url(#g)"/><g fill="#1a1626"><path d="m32.708 29.635h3.167v.142h-3.167z" transform="matrix(.707 .7073 -.7073 .707 31.0595 -15.548)"/><path d="m32.529 29.246h4.305v.142h-4.305z" transform="matrix(.7069 .7073 -.7073 .7069 30.9026 -15.9378)"/><path d="m32.491 28.856h5.16v.142h-5.16z" transform="matrix(.707 .7072 -.7072 .707 30.7329 -16.3271)"/><path d="m32.717 28.466h5.488v.142h-5.488z" transform="matrix(.7071 .7071 -.7071 .7071 30.5652 -16.7167)"/><path d="m33.023 28.078h5.656v.141h-5.656z" transform="matrix(.707 .7072 -.7072 .707 30.4095 -17.1065)"/><path d="m33.494 27.688h5.492v.141h-5.492z" transform="matrix(.707 .7072 -.7072 .707 30.2483 -17.4963)"/><path d="m34.05 27.299h5.16v.141h-5.16z" transform="matrix(.7072 .707 -.707 .7072 30.0756 -17.8845)"/><path d="m34.868 26.907h4.303v.142h-4.303z" transform="matrix(.7071 .7071 -.7071 .7071 29.9195 -18.2749)"/><path d="m35.826 26.518h3.165v.141h-3.165z" transform="matrix(.7073 .707 -.707 .7073 29.748 -18.6626)"/></g></svg>