<svg enable-background="new 0 0 64 64" height="64" viewBox="0 0 64 64" width="64" xmlns="http://www.w3.org/2000/svg" xmlns:xlink="http://www.w3.org/1999/xlink"><radialGradient id="a" cx="505.4385" cy="-1078.3247" gradientTransform="matrix(-.7071 .7071 -4.0681 -4.0681 -4024.3391 -4737.1992)" gradientUnits="userSpaceOnUse" r="3.6085"><stop offset="0" stop-color="#93a1a8"/><stop offset=".1474" stop-color="#a1aeb4"/><stop offset=".4707" stop-color="#bac5cb"/><stop offset=".7644" stop-color="#cad3d8"/><stop offset="1" stop-color="#cfd8dd"/></radialGradient><linearGradient id="b" gradientUnits="userSpaceOnUse" x1="12.5337" x2="18.4423" y1="18.5898" y2="12.6812"><stop offset="0" stop-color="#302c3b"/><stop offset=".2783" stop-color="#33303e"/><stop offset=".5301" stop-color="#3b3b48"/><stop offset=".7708" stop-color="#484d58"/><stop offset="1" stop-color="#5b666e"/></linearGradient><linearGradient id="c"><stop offset="0" stop-color="#cfd8dd"/><stop offset=".1801" stop-color="#cad3d8"/><stop offset=".4047" stop-color="#bac3c8"/><stop offset=".653" stop-color="#a1aaaf"/><stop offset=".9165" stop-color="#7e888d"/><stop offset="1" stop-color="#717b80"/></linearGradient><radialGradient id="d" cx="502.3535" cy="-1102.814" gradientTransform="matrix(-.7071 .7071 -.4532 -.4532 -120.1393 -832.9993)" gradientUnits="userSpaceOnUse" r="2.5145" xlink:href="#c"/><radialGradient id="e" cx="502.3516" cy="-1092.3813" gradientTransform="matrix(-.7071 .7071 -.4532 -.4532 -122.7881 -835.6481)" gradientUnits="userSpaceOnUse" r="2.5161" xlink:href="#c"/><radialGradient id="f" cx="502.3105" cy="-1081.9482" gradientTransform="matrix(-.7071 .7071 -.4532 -.4532 -125.4369 -838.2969)" gradientUnits="userSpaceOnUse" r="2.5153" xlink:href="#c"/><linearGradient id="g" gradientUnits="userSpaceOnUse" x1="41.4756" x2="41.4756" y1="62.0005" y2="26.3984"><stop offset="0" stop-color="#cfd8dd"/><stop offset="1" stop-color="#e6ebed"/></linearGradient><linearGradient id="h" gradientUnits="userSpaceOnUse" x1="21.5474" x2="61.4033" y1="48.4414" y2="48.4414"><stop offset="0" stop-color="#cfd8dd"/><stop offset=".1233" stop-color="#d5dde1"/><stop offset=".4643" stop-color="#e2e8ea"/><stop offset=".7939" stop-color="#e6ebed"/></linearGradient><radialGradient id="i" cx="507.4785" cy="-1109.6362" gradientTransform="matrix(-.7071 .7071 -7.1624 -7.1624 -7563.1997 -8276.0596)" gradientUnits="userSpaceOnUse" r="7.6139"><stop offset="0" stop-color="#93a1a8"/><stop offset=".2547" stop-color="#a3b0b6"/><stop offset="1" stop-color="#cfd8dd"/></radialGradient><path d="m5.378 10.681c.179.063 3.451-7.61 2.876-8.185-2.618-2.62-9.467 5.873-2.876 8.185z" fill="url(#a)"/><path d="m23.35 28.371 5.39-5.391s-16.063-16.047-20.511-20.512c-2.27 1.584-5.524 6.083-2.851 8.212 3.863 1.66 4.803 4.572 7.826 8.284 4.221 5.188 6.843 6.104 10.146 9.407z" fill="url(#b)"/><path d="m22.745 23.787c-1.222-1.225.611-3.063 1.832-1.838 1.223 1.225-.611 3.066-1.832 1.838z" fill="url(#d)"/><path d="m15.368 16.411c-1.222-1.225.611-3.064 1.832-1.839 1.223 1.227-.611 3.066-1.832 1.839z" fill="url(#e)"/><path d="m8.02 9.003c-1.222-1.224.611-3.063 1.832-1.837 1.224 1.225-.61 3.065-1.832 1.837z" fill="url(#f)"/><path d="m32.159 26.398-10.612 10.649c10.993 11.029 26.338 25.533 39.856 24.935-1.016-7.471-12.689-18.97-29.244-35.584z" fill="url(#g)"/><path d="m23.705 34.883-2.157 2.164c10.992 11.029 26.337 25.533 39.855 24.935-.108-.792-.339-1.625-.682-2.504-12.747-1.136-26.741-14.298-37.016-24.595z" fill="url(#h)"/><path d="m32.159 26.398-3.419-3.418-5.39 5.391s1.701 1.699 1.983 1.982c.49.49-.479 1.146-4.135 5.162-.195.215-.328.875.35 1.531 5.788-4.444 10.611-10.648 10.611-10.648z" fill="url(#i)"/></svg>