<svg enable-background="new 0 0 64 64" height="64" viewBox="0 0 64 64" width="64" xmlns="http://www.w3.org/2000/svg" xmlns:xlink="http://www.w3.org/1999/xlink"><radialGradient id="a" cx="24.876" cy="20.9507" gradientUnits="userSpaceOnUse" r="26.4009"><stop offset=".2303" stop-color="#aa5bef"/><stop offset=".4906" stop-color="#a858ee"/><stop offset=".6597" stop-color="#a250e9"/><stop offset=".8029" stop-color="#9641e1"/><stop offset=".9308" stop-color="#872cd7"/><stop offset="1" stop-color="#7c1dcf"/></radialGradient><radialGradient id="b" cx="533.0303" cy="31.8657" gradientTransform="matrix(.3583 .4654 -.7152 .5506 -151.4179 -257.4933)" gradientUnits="userSpaceOnUse" r="37.1782"><stop offset="0" stop-color="#fff"/><stop offset="1" stop-color="#fff" stop-opacity="0"/></radialGradient><linearGradient id="c"><stop offset="0" stop-color="#ffb300"/><stop offset=".2575" stop-color="#ffc000"/><stop offset=".6692" stop-color="#ffd000"/><stop offset="1" stop-color="#ffd500"/></linearGradient><linearGradient id="d" gradientUnits="userSpaceOnUse" x1="32.0005" x2="32.0005" xlink:href="#c" y1="48" y2="44"/><linearGradient id="e"><stop offset="0" stop-color="#ffb300"/><stop offset=".0093" stop-color="#ffb300"/><stop offset=".5586" stop-color="#f8a301"/><stop offset="1" stop-color="#f59e01"/></linearGradient><linearGradient id="f" gradientUnits="userSpaceOnUse" x1="51.2148" x2="51.2148" xlink:href="#e" y1="62" y2="45.3164"/><linearGradient id="g" gradientUnits="userSpaceOnUse" x1="50.6367" x2="50.6367" xlink:href="#c" y1="51.2256" y2="43.999"/><linearGradient id="h" gradientUnits="userSpaceOnUse" x1="12.7847" x2="12.7847" xlink:href="#e" y1="62" y2="45.3164"/><linearGradient id="i" gradientUnits="userSpaceOnUse" x1="13.3628" x2="13.3628" xlink:href="#c" y1="51.2256" y2="43.999"/><linearGradient id="j" gradientTransform="matrix(42 0 0 -52 8843 14357.0938)" gradientUnits="userSpaceOnUse" x1="-209.5933" x2="-209.5933" y1="275.292" y2="275.5996"><stop offset="0" stop-color="#f90"/><stop offset=".022" stop-color="#ff9c03"/><stop offset=".274" stop-color="#ffb91d"/><stop offset=".5236" stop-color="#ffce31"/><stop offset=".7678" stop-color="#ffdb3c"/><stop offset="1" stop-color="#ffdf40"/></linearGradient><linearGradient id="k" gradientTransform="matrix(24 0 0 -26 4973 6997)" gradientUnits="userSpaceOnUse" x1="-205.396" x2="-205.396" y1="268.292" y2="268.792"><stop offset="0" stop-color="#6fad00"/><stop offset=".0389" stop-color="#73b202"/><stop offset=".2625" stop-color="#87cc0f"/><stop offset=".4933" stop-color="#96de17"/><stop offset=".734" stop-color="#9ee91c"/><stop offset="1" stop-color="#a1ed1e"/></linearGradient><linearGradient id="l" gradientUnits="userSpaceOnUse" x1="52.0674" x2="52.0674" y1="32.9995" y2="20"><stop offset="0" stop-color="#ff45ab"/><stop offset=".2265" stop-color="#ff5db6"/><stop offset=".4776" stop-color="#ff71be"/><stop offset=".7337" stop-color="#ff7cc3"/><stop offset="1" stop-color="#ff80c5"/></linearGradient><path d="m33.695 58.527-.746-.603 3.051-7.924h-8l3.051 7.924-.746.603.695.68-1 2.189.44.604h3.119l.441-.604-1-2.189z" fill="#ea8800"/><path d="m32 2c-14.899 0-27 12.095-27 27.01 0 14.918 12.101 26.99 27 26.99s27-12.072 27-26.99c0-14.915-12.101-27.01-27-27.01z" fill="url(#a)"/><path d="m31.199 27.326c-7.589 5.847-16.822 6.578-20.619 1.64-3.807-4.942-.738-13.68 6.851-19.521 7.589-5.847 16.822-6.578 20.629-1.64 3.806 4.943.728 13.685-6.861 19.521z" fill="url(#b)"/><path d="m10.402 48h43.198c2.717 0 2.717-4 0-4h-43.198c-2.718 0-2.718 4 0 4z" fill="url(#d)"/><path d="m54.679 58.607-.574-.59s1.677-4.813 1.403-7.682l-2.695-4.621-5.92-.398 1.476 4.373c3.272 2.32 4.273 8.328 4.273 8.328l-.574.59.535.664-.77 2.139.339.59h2.402l.339-.59-.77-2.139z" fill="url(#f)"/><path d="m50.654 44.191c-6.113-1.424-6.47 5.516-1.998 5.832 1.18.084 2.335 1.758 2.455 1.01.368-2.289-3.634-5.289-3.634-5.289s3.32 1.434 4.837 4.363c.772 1.494 1.654 1.27 1.805.27.257-1.719-1.516-3.514-1.516-3.514s1.522.439 2.075 2.676c.25 1.012.754.975.829.797.489-1.168-.257-5.072-4.853-6.145z" fill="url(#g)"/><path d="m53.935 52.01c.479 2.969-.224 6.096-.224 6.096s.326-2.303-1.38-5.18c1.233 3.119.866 5.221.866 5.221l-.556-.129-.574.59s1.595 1.031 2.611 0l-.574-.59s.809-2.881-.169-6.008z" fill="#f9c802"/><path d="m54.144 59.271v1.327l-.266-1.153-.432 1.569-.073-1.598-.77-.145-.77 2.139h3.08z" fill="#f9c802"/><path d="m9.321 58.607.574-.59s-1.677-4.813-1.403-7.682l2.695-4.621 5.92-.398-1.476 4.373c-3.272 2.32-4.273 8.328-4.273 8.328l.574.59-.535.664.77 2.139-.339.59h-2.402l-.339-.59.77-2.139z" fill="url(#h)"/><path d="m13.346 44.191c6.113-1.424 6.47 5.516 1.998 5.832-1.18.084-2.335 1.758-2.455 1.01-.368-2.289 3.634-5.289 3.634-5.289s-3.32 1.434-4.837 4.363c-.772 1.494-1.654 1.27-1.805.27-.257-1.719 1.516-3.514 1.516-3.514s-1.522.439-2.075 2.676c-.25 1.012-.754.975-.829.797-.489-1.168.257-5.072 4.853-6.145z" fill="url(#i)"/><path d="m10.065 52.01c-.479 2.969.224 6.096.224 6.096s-.326-2.303 1.38-5.18c-1.233 3.119-.866 5.221-.866 5.221l.556-.129.574.59s-1.595 1.031-2.611 0l.574-.59s-.809-2.881.169-6.008z" fill="#f9c802"/><path d="m9.856 59.271v1.327l.266-1.153.432 1.569.073-1.598.77-.145.77 2.139h-3.08z" fill="#f9c802"/><path d="m40.084 25.917c-.56 6.224-1.695 7.345-6.463 7.999 4.768.656 5.903 1.777 6.463 8 .559-6.223 1.693-7.344 6.461-8-4.768-.654-5.903-1.775-6.461-7.999z" fill="url(#j)"/><path d="m43.5 8.404c-.521 5.059-1.574 5.967-5.998 6.5 4.424.533 5.478 1.44 5.998 6.5.521-5.06 1.574-5.967 5.998-6.5-4.424-.533-5.477-1.441-5.998-6.5z" fill="url(#k)"/><path d="m52.067 20c-.519 5.057-1.573 5.967-6 6.5 4.427.533 5.481 1.444 6 6.5.519-5.056 1.572-5.967 6-6.5-4.427-.533-5.481-1.443-6-6.5z" fill="url(#l)"/></svg>