<svg enable-background="new 0 0 64 64" height="64" viewBox="0 0 64 64" width="64" xmlns="http://www.w3.org/2000/svg" xmlns:xlink="http://www.w3.org/1999/xlink"><linearGradient id="a" gradientTransform="matrix(-.7071 .7071 .7071 .7071 -344.4492 138.6302)" gradientUnits="userSpaceOnUse" x1="-349.6035" x2="-333.564" y1="199.625" y2="199.625"><stop offset="0" stop-color="#6e787a"/><stop offset=".0084" stop-color="#727c7e"/><stop offset=".0968" stop-color="#9da5a7"/><stop offset=".1765" stop-color="#bcc3c5"/><stop offset=".2439" stop-color="#cfd5d7"/><stop offset=".2909" stop-color="#d6dbde"/><stop offset=".7515" stop-color="#6e787a"/></linearGradient><linearGradient id="b"><stop offset="0" stop-color="#3b4042"/><stop offset=".0085" stop-color="#3c4143"/><stop offset=".3281" stop-color="#696f72"/><stop offset=".6113" stop-color="#8a9094"/><stop offset=".845" stop-color="#9ea5a9"/><stop offset="1" stop-color="#a5acb0"/></linearGradient><linearGradient id="c" gradientTransform="matrix(-.7071 .7071 .7071 .7071 -344.4492 138.6302)" gradientUnits="userSpaceOnUse" x1="-341.4897" x2="-341.6966" xlink:href="#b" y1="181.3916" y2="178.434"/><linearGradient id="d" gradientTransform="matrix(-.7071 .7071 .7071 .7071 -344.4492 138.6302)" gradientUnits="userSpaceOnUse" x1="-341.4883" x2="-341.6952" xlink:href="#b" y1="185.2158" y2="182.2572"/><linearGradient id="e" gradientTransform="matrix(-.7071 .7071 .7071 .7071 -344.4492 138.6302)" gradientUnits="userSpaceOnUse" x1="-341.4883" x2="-341.6952" xlink:href="#b" y1="189.0381" y2="186.0795"/><linearGradient id="f" gradientTransform="matrix(-.7071 .7071 .7071 .7071 -344.4492 138.6302)" gradientUnits="userSpaceOnUse" x1="-341.4888" x2="-341.6957" xlink:href="#b" y1="192.8613" y2="189.9018"/><linearGradient id="g" gradientTransform="matrix(-.7071 .7071 .7071 .7071 -344.4492 138.6302)" gradientUnits="userSpaceOnUse" x1="-341.4849" x2="-341.6918" xlink:href="#b" y1="210.6309" y2="207.6713"/><linearGradient id="h" gradientTransform="matrix(-.7071 .7071 .7071 .7071 -344.4492 138.6302)" gradientUnits="userSpaceOnUse" x1="-341.4839" x2="-341.6908" xlink:href="#b" y1="214.4521" y2="211.4926"/><linearGradient id="i" gradientTransform="matrix(-.7071 .7071 .7071 .7071 -344.4492 138.6302)" gradientUnits="userSpaceOnUse" x1="-341.4844" x2="-341.6912" xlink:href="#b" y1="218.2734" y2="215.3158"/><linearGradient id="j" gradientTransform="matrix(-.7071 .7071 .7071 .7071 -344.4492 138.6302)" gradientUnits="userSpaceOnUse" x1="-341.4844" x2="-341.6913" xlink:href="#b" y1="222.0977" y2="219.1391"/><linearGradient id="k" gradientTransform="matrix(-.7071 .7071 .7071 .7071 -344.4492 138.6302)" gradientUnits="userSpaceOnUse" x1="-341.4839" x2="-341.6907" xlink:href="#b" y1="225.9189" y2="222.9613"/><linearGradient id="l"><stop offset="0" stop-color="#808487"/><stop offset="1" stop-color="#5b6163"/></linearGradient><linearGradient id="m" gradientTransform="matrix(.7071 -.7071 .7071 .7071 -92.7379 267.4971)" gradientUnits="userSpaceOnUse" x1="236.7285" x2="246.2285" xlink:href="#l" y1="-97.5771" y2="-97.5771"/><linearGradient id="n"><stop offset="0" stop-color="#91989e"/><stop offset="1" stop-color="#b8bfc4"/></linearGradient><linearGradient id="o" gradientTransform="matrix(.7071 -.7071 .7071 .7071 -92.7379 267.4971)" gradientUnits="userSpaceOnUse" x1="246.2275" x2="263.2285" xlink:href="#n" y1="-97.5776" y2="-97.5776"/><linearGradient id="p"><stop offset="0" stop-color="#1c1d1f"/><stop offset=".1812" stop-color="#3e4143"/><stop offset=".4449" stop-color="#6a6f72"/><stop offset=".6789" stop-color="#8a9094"/><stop offset=".872" stop-color="#9ea5a9"/><stop offset="1" stop-color="#a5acb0"/></linearGradient><linearGradient id="q" gradientTransform="matrix(.7071 -.7071 .7071 .7071 -310.7022 -36.3652)" gradientUnits="userSpaceOnUse" x1="176.2881" x2="211.6348" xlink:href="#p" y1="271.4111" y2="271.4111"/><linearGradient id="r" gradientTransform="matrix(.7071 -.7071 .7071 .7071 -92.7379 267.4971)" gradientUnits="userSpaceOnUse" x1="236.7275" x2="246.2285" xlink:href="#l" y1="-68.6875" y2="-68.6875"/><linearGradient id="s" gradientTransform="matrix(.7071 -.7071 .7071 .7071 -92.7379 267.4971)" gradientUnits="userSpaceOnUse" x1="246.2275" x2="263.2285" xlink:href="#n" y1="-68.6875" y2="-68.6875"/><linearGradient id="t" gradientTransform="matrix(.7071 -.7071 .7071 .7071 -310.7022 -36.3652)" gradientUnits="userSpaceOnUse" x1="176.2881" x2="211.6348" xlink:href="#p" y1="300.3008" y2="300.3008"/><path d="m22.629 12.24s33.054 33.055 39.674 39.675c2.598 2.598-7.79 12.984-10.386 10.388-7.008-7.006-39.676-39.675-39.676-39.675z" fill="url(#a)"/><path d="m19.586 29.973 11.329-9.446c.353-.352-1.533-2.237-1.886-1.885l-11.33 9.444c-.35.351 1.535 2.237 1.887 1.887z" fill="url(#c)"/><path d="m22.29 32.676 11.329-9.444c.354-.351-1.535-2.239-1.885-1.888l-11.331 9.446c-.353.351 1.535 2.237 1.887 1.886z" fill="url(#d)"/><path d="m24.989 35.38 11.331-9.445c.352-.353-1.532-2.239-1.886-1.886l-11.331 9.444c-.349.352 1.535 2.236 1.886 1.887z" fill="url(#e)"/><path d="m27.694 38.082 11.331-9.444c.354-.351-1.535-2.241-1.89-1.888l-11.328 9.446c-.352.351 1.537 2.238 1.887 1.886z" fill="url(#f)"/><path d="m40.253 50.647 11.334-9.443c.35-.352-1.535-2.238-1.887-1.887l-11.33 9.445c-.351.351 1.533 2.237 1.883 1.885z" fill="url(#g)"/><path d="m42.958 53.352 11.332-9.445c.348-.352-1.537-2.238-1.89-1.887l-11.329 9.446c-.351.35 1.535 2.236 1.887 1.886z" fill="url(#h)"/><path d="m45.66 56.055 11.328-9.444c.354-.351-1.531-2.236-1.882-1.885l-11.332 9.443c-.349.351 1.534 2.236 1.886 1.886z" fill="url(#i)"/><path d="m48.362 58.758 11.332-9.444c.354-.352-1.535-2.238-1.885-1.885l-11.332 9.444c-.349.351 1.536 2.236 1.885 1.885z" fill="url(#j)"/><path d="m51.067 61.462 11.327-9.445c.353-.353-1.532-2.238-1.885-1.886l-11.329 9.444c-.351.35 1.536 2.237 1.887 1.887z" fill="url(#k)"/><path d="m1.583 25.624c-.389.389-.4 1.014-.024 1.39l8.192 8.192c.375.376 1.001.365 1.39-.024l6.18-5.838-9.898-9.899z" fill="url(#m)"/><path d="m25.625 1.583-6.181 5.839 9.899 9.899 5.84-6.18c.39-.389.399-1.016.024-1.392l-8.193-8.191c-.374-.375-1-.364-1.389.025z" fill="#cfd8dd"/><path d="m29.343 17.321-12.021 12.021-9.899-9.899 12.021-12.022z" fill="url(#o)"/><path d="m34.679 11.382-3.958 4.153c-.76.795-1.995.832-2.746.082l-6.828-6.827c-.75-.751-.713-1.986.083-2.745l4.153-3.959c.291-.278.593-.549.873-.788-.228.021-.455.107-.631.284l-6.181 5.839-12.021 12.022-5.84 6.181c-.176.176-.265.402-.285.631.239-.28.511-.583.789-.873l3.96-4.152c.759-.796 1.995-.833 2.745-.083l6.827 6.827c.75.75.713 1.986-.083 2.745l-4.153 3.958c-.275.263-.607.545-.934.802.249-.007.5-.105.692-.298l6.18-5.838 12.021-12.021 5.84-6.18c.177-.177.265-.402.284-.632-.237.28-.509.581-.787.872zm-7.049 4.58c.75.75.729 2.001-.049 2.779l-8.839 8.839c-.778.777-2.03.799-2.78.049l-6.827-6.827c-.75-.75-.729-2.002.049-2.779l8.838-8.84c.778-.777 2.029-.799 2.78-.048z" fill="url(#q)"/><path d="m22.01 46.052c-.389.389-.399 1.015-.024 1.39l8.192 8.192c.375.375 1.002.364 1.391-.024l6.181-5.84-9.899-9.898z" fill="url(#r)"/><path d="m46.054 22.011-6.182 5.839 9.898 9.899 5.841-6.18c.39-.389.398-1.016.024-1.391l-8.192-8.191c-.376-.376-1.001-.364-1.389.024z" fill="#cfd8dd"/><path d="m49.771 37.749-12.021 12.021-9.899-9.899 12.021-12.021z" fill="url(#s)"/><path d="m55.106 31.81-3.958 4.154c-.761.795-1.996.832-2.746.082l-6.827-6.827c-.75-.75-.713-1.986.083-2.745l4.153-3.959c.291-.278.592-.55.873-.789-.229.021-.455.108-.631.285l-6.182 5.839-12.02 12.021-5.841 6.181c-.176.176-.264.402-.284.631.239-.28.511-.583.789-.873l3.96-4.152c.759-.796 1.995-.833 2.745-.083l6.829 6.827c.75.75.712 1.985-.084 2.745l-4.153 3.959c-.275.263-.607.544-.934.801.248-.006.5-.104.691-.297l6.181-5.84 12.021-12.021 5.841-6.18c.177-.176.265-.402.284-.631-.241.279-.512.582-.79.872zm-7.047 4.581c.75.749.729 2.001-.049 2.779l-8.839 8.839c-.778.778-2.029.799-2.779.049l-6.829-6.827c-.75-.75-.729-2.002.049-2.779l8.839-8.839c.777-.777 2.029-.799 2.78-.049z" fill="url(#t)"/></svg>