<svg enable-background="new 0 0 64 64" height="64" viewBox="0 0 64 64" width="64" xmlns="http://www.w3.org/2000/svg" xmlns:xlink="http://www.w3.org/1999/xlink"><linearGradient id="a" gradientUnits="userSpaceOnUse" x1="32" x2="32" y1="2" y2="62"><stop offset="0" stop-color="#00abf1"/><stop offset=".2292" stop-color="#00a7ef"/><stop offset=".4667" stop-color="#009ae9"/><stop offset=".7079" stop-color="#0086e0"/><stop offset=".9504" stop-color="#0069d3"/><stop offset="1" stop-color="#0062d0"/></linearGradient><path d="m62 54c0 4.4-3.6 8-8 8h-44c-4.4 0-8-3.6-8-8v-44c0-4.4 3.6-8 8-8h44c4.4 0 8 3.6 8 8z" fill="url(#a)"/><g fill="#fff"><path d="m14 14h16v4h-16z"/><path d="m14 22v4h6v4h4v-4h6v-4z"/><path d="m49.521 18.986c-.322-.488-.736-.883-1.195-1.232-.131-.1-.197-.145-.33-.238l-.266-.213c-.172-.145-.332-.291-.482-.44-.598-.594-.973-1.213-1.146-1.746-.154-.457-.172-.84-.15-1.117h-3.234l-2.068 10.809c-.607-.172-1.283-.27-2.002-.27-2.568 0-4.648 1.223-4.648 2.731s2.08 2.73 4.648 2.73c2.426 0 4.414-1.092 4.627-2.484l1.916-10.023c.262.213.541.416.838.6.23.142.469.275.713.402.123.061.248.119.371.18.08.041.236.119.31.164.381.209.754.475 1.025.773.275.299.453.643.502 1.02.053.375-.023.779-.178 1.158-.316.768-.885 1.426-1.4 1.949-.525.524-1.021.92-1.375 1.188-.357.268-.574.406-.574.406s.238-.109.639-.328c.398-.221.965-.551 1.592-1.014.619-.467 1.33-1.059 1.859-1.904.26-.424.461-.926.484-1.48.03-.556-.154-1.138-.476-1.621z"/><path d="m27.66 46.529 1.32-1.123-1.955-2.213-1.4 1.256-2.705-2.762c1.654-.607 2.82-2.031 2.82-3.688 0-2.205-2.066-4-4.603-4s-4.604 1.795-4.604 4c0 .902.35 1.732.934 2.404-1.495.974-2.467 2.519-2.467 4.265 0 2.939 2.751 5.332 6.136 5.332 1.623 0 3.17-.566 4.307-1.535l1.484 1.535h.012l2.061-2.098zm-8.059-8.529c0-.736.689-1.334 1.535-1.334.848 0 1.537.598 1.537 1.334s-.689 1.334-1.537 1.334c-.845 0-1.535-.598-1.535-1.334zm1.535 9.334c-1.691 0-3.068-1.195-3.068-2.666 0-.971.602-1.82 1.494-2.285l3.891 4.025c-.578.578-1.422.926-2.317.926z"/><path d="m50 34h-4l-12 16h4z"/><path d="m38 42c-2.205 0-4-1.795-4-4 0-2.207 1.795-4 4-4 2.207 0 4 1.793 4 4 0 2.205-1.793 4-4 4zm0-6c-1.102 0-2 .896-2 2 0 1.102.898 2 2 2 1.104 0 2-.898 2-2 0-1.104-.897-2-2-2z"/><path d="m46 50c-2.205 0-4-1.793-4-4s1.795-4 4-4c2.207 0 4 1.793 4 4s-1.793 4-4 4zm0-6c-1.102 0-2 .898-2 2 0 1.104.898 2 2 2 1.104 0 2-.896 2-2 0-1.102-.897-2-2-2z"/></g></svg>