<svg enable-background="new 0 0 64 64" height="64" viewBox="0 0 64 64" width="64" xmlns="http://www.w3.org/2000/svg" xmlns:xlink="http://www.w3.org/1999/xlink"><linearGradient id="a"><stop offset="0" stop-color="#4e5e67"/><stop offset="1" stop-color="#302c3b"/></linearGradient><linearGradient id="b" gradientUnits="userSpaceOnUse" x1="25.9316" x2="28.6333" xlink:href="#a" y1="33.4824" y2="33.4824"/><linearGradient id="c" gradientUnits="userSpaceOnUse" x1="25.6396" x2="28.9126" xlink:href="#a" y1="31.5273" y2="31.5273"/><linearGradient id="d" gradientUnits="userSpaceOnUse" x1="17.2051" x2="20.6045" xlink:href="#a" y1="31.2354" y2="31.2354"/><linearGradient id="e" gradientUnits="userSpaceOnUse" x1="18.0928" x2="21.6611" xlink:href="#a" y1="29.541" y2="29.541"/><linearGradient id="f" gradientUnits="userSpaceOnUse" x1="20.9551" x2="24.6816" xlink:href="#a" y1="33.415" y2="33.415"/><linearGradient id="g" gradientUnits="userSpaceOnUse" x1="21.3271" x2="25.5068" xlink:href="#a" y1="31.1846" y2="31.1846"/><linearGradient id="h"><stop offset="0" stop-color="#4e5e67"/><stop offset=".3737" stop-color="#3f4450"/><stop offset=".738" stop-color="#343241"/><stop offset="1" stop-color="#302c3b"/></linearGradient><linearGradient id="i" gradientTransform="matrix(.9848 .1736 -.1736 .9848 41.4406 64.8912)" gradientUnits="userSpaceOnUse" x1="-31.6924" x2="-9.2744" xlink:href="#h" y1="-14.5322" y2="-14.5322"/><linearGradient id="j" gradientUnits="userSpaceOnUse" x1="32.0005" x2="50" y1="33.9995" y2="33.9995"><stop offset="0" stop-color="#302c3b"/><stop offset=".262" stop-color="#343241"/><stop offset=".6263" stop-color="#3f4450"/><stop offset="1" stop-color="#4e5e67"/></linearGradient><linearGradient id="k" gradientTransform="matrix(.9659 .2588 -.2588 .9659 49.2094 99.0266)" gradientUnits="userSpaceOnUse" x1="-46.5967" x2="-36.4902" y1="-73.7227" y2="-73.7227"><stop offset="0" stop-color="#b3c2c6"/><stop offset=".2131" stop-color="#aebdc1"/><stop offset=".4787" stop-color="#a0adb2"/><stop offset=".771" stop-color="#889499"/><stop offset="1" stop-color="#717b80"/></linearGradient><linearGradient id="l"><stop offset="0" stop-color="#302c3b"/><stop offset="1" stop-color="#4e5e67"/></linearGradient><linearGradient id="m" gradientUnits="userSpaceOnUse" x1="38.999" x2="38.999" xlink:href="#l" y1="60.0004" y2="48.0014"/><linearGradient id="n" gradientUnits="userSpaceOnUse" x1="36.7393" x2="36.7393" y1="53.9985" y2="50.0004"><stop offset="0" stop-color="#717b80"/><stop offset="1" stop-color="#b3c2c6"/></linearGradient><linearGradient id="o" gradientTransform="matrix(.9659 .2588 -.2588 .9659 49.2094 99.0266)" gradientUnits="userSpaceOnUse" x1="-33.4604" x2="-33.4604" xlink:href="#l" y1="-64.1221" y2="-79.2793"/><linearGradient id="p" gradientTransform="matrix(.9659 .2588 -.2588 .9659 49.2094 99.0266)" gradientUnits="userSpaceOnUse" x1="-33.4604" x2="-33.4604" xlink:href="#h" y1="-73.7227" y2="-69.6807"/><linearGradient id="q" gradientUnits="userSpaceOnUse" x1="33.9995" x2="33.9995" y1="61.9672" y2="58.0339"><stop offset="0" stop-color="#b3c2c6"/><stop offset="1" stop-color="#717b80"/></linearGradient><linearGradient id="r" gradientUnits="userSpaceOnUse" x1="17.5" x2="28.5005" y1="55.999" y2="55.999"><stop offset="0" stop-color="#57e5ff"/><stop offset="1" stop-color="#078ede"/></linearGradient><path d="m26.468 35.687h1.647v.391h-1.647z" fill="#6e8189" transform="matrix(1 -.0036 .0036 1 -.1275 .0973)"/><path d="m26.375 35.099h1.828v.783h-1.828z" fill="#302c3b" transform="matrix(1 -.0053 .0053 1 -.1892 .1463)"/><path d="m28.569 35.51-2.559.006-.008-2.25 2.559-.012z" fill="#1a1626"/><path d="m28.633 34.543-2.694.012-.007-2.137 2.695-.008z" fill="url(#b)"/><path d="m28.836 32.583-3.113.011-.004-2.12 3.108-.01z" fill="#1a1626"/><path d="m28.913 32.261-3.267.01-.006-1.475 3.267-.012z" fill="url(#c)"/><path d="m16.89 33.123h1.647v.392h-1.647z" fill="#6e8189" transform="matrix(.8671 .4982 -.4982 .8671 18.9532 -4.3953)"/><path d="m16.994 32.587h1.825v.784h-1.825z" fill="#302c3b" transform="matrix(.8681 .4964 -.4964 .8681 18.7325 -4.5386)"/><path d="m17.177 30.893h2.56v2.254h-2.56z" fill="#1a1626" transform="matrix(.8676 .4973 -.4973 .8676 18.3682 -4.9385)"/><path d="m19.544 32.831-2.339-1.338 1.061-1.853 2.338 1.341z" fill="url(#d)"/><path d="m18.319 28.479h3.112v2.122h-3.112z" fill="#1a1626" transform="matrix(.8679 .4967 -.4967 .8679 17.2979 -5.9707)"/><path d="m20.928 30.993-2.835-1.623.735-1.281 2.833 1.622z" fill="url(#e)"/><path d="m21.11 35.926h1.946v.461h-1.946z" fill="#6e8189" transform="matrix(.9659 .2589 -.2589 .9659 10.1143 -4.4848)"/><path d="m21.124 35.245h2.159v.926h-2.159z" fill="#302c3b" transform="matrix(.9662 .2578 -.2578 .9662 9.9573 -4.5174)"/><path d="m21.029 33.114h3.025v2.664h-3.025z" fill="#1a1626" transform="matrix(.9659 .2589 -.2589 .9659 9.6871 -4.6615)"/><path d="m24.028 35.045-3.073-.824.65-2.435 3.077.824z" fill="url(#f)"/><path d="m21.576 29.931h3.681v2.506h-3.681z" fill="#1a1626" transform="matrix(.9658 .2592 -.2592 .9658 8.8844 -5.0041)"/><path d="m25.056 32.527-3.729-1 .447-1.685 3.733 1z" fill="url(#g)"/><path d="m25.001 60.5h-4v-3.5l3.998-.5z" fill="#6e8189"/><path d="m17.286 46.865c10.894 1.905 15.713 5.043 15.714 9.135l4.998-8z" fill="#1a1626"/><path d="m35 48.002-22.079-3.861-.339 1.904 22.078 3.857z" fill="url(#i)"/><path d="m35.25 14.001-3.25 12.999c2.435.505 11 2.003 11 10 0 7.141-4.91 10.998-4.91 10.998l-4.09 1.002v4.998c4 0 16-6 16-21.998 0-15.065-14.75-17.999-14.75-17.999z" fill="url(#j)"/><path d="m30.559 27.645-3.713 2.145-6.832-1.832 4.705-17.565 2.477-1.431 1.308-4.879 5.855 1.569-1.308 4.881 1.429 2.475z" fill="url(#k)"/><path d="m32.999 51.908.001 8.092h12s-3.5-6.963-5-9.941c-1.74-3.459-7-2.368-7.001 1.849z" fill="url(#m)"/><circle cx="36.739" cy="51.999" fill="url(#n)" r="1.999"/><path d="m29.944 31.704-12.443-3.333.139-.519.517.14.279-1.039-.518-.139.139-.517 12.443 3.333-.14.518-.516-.139-.281 1.037.521.14z" fill="#b3c2c6"/><path d="m28.156 2.88h7.075v2.021h-7.075z" fill="#302c3b" transform="matrix(.9659 .2588 -.2588 .9659 2.0869 -8.0704)"/><path d="m33.051 10.533-5.855-1.571-2.477 1.431 9.761 2.615z" fill="#b3c2c6"/><path d="m30.559 27.645 4.888 1.312c.533.142 1.082-.176 1.225-.707l3.404-12.708c.145-.533-.174-1.081-.707-1.226l-4.891-1.309z" fill="url(#o)"/><circle cx="35.446" cy="21.11" fill="url(#p)" r="2.021"/><circle cx="35.445" cy="21.11" fill="#b3c2c6" r="1.011"/><path d="m52.018 59.965c-7.965-2.629-21.914-2.074-26.512-1.426-10.534 1.459-10.505.936-10.506 3.461h37.998c.002-.99-.1-1.746-.98-2.035z" fill="url(#q)"/><path d="m17.875 58 10.625-1.875-.373-2.127-10.627 1.875z" fill="url(#r)"/><path d="m18.097 28.463h11.808v1.075h-11.808z" fill="#6e8189" transform="matrix(-.966 -.2587 .2587 -.966 39.6819 63.2228)"/><path d="m30.538 45.258-19.198-3.354-.339 1.903 19.201 3.353z" fill="#1a1626"/></svg>