<svg enable-background="new 0 0 64 64" height="64" viewBox="0 0 64 64" width="64" xmlns="http://www.w3.org/2000/svg"><path d="m59.964 55h-17l1-2h16z" fill="#1a1626"/><path d="m60.187 11.956-.257-.293.171-.354-.352-.173.02-.391-.39-.026-.129-.37-.371.126-.261-.291-.294.257-.354-.17-.172.352-.392-.021-.026.39-1.627.14 2.835 7.963s-.376-4.27-.244-4.599c.112-.281 1.678-1.909 1.678-1.909l-.127-.371zm-1.713.614c-.395-.023-.696-.363-.673-.759.024-.396.365-.696.76-.672.396.024.696.364.673.759-.025.396-.365.697-.76.672z" fill="#1a1626"/><path d="m2 12.111h2v5h-2z" fill="#302c3b"/><path d="m30.334 24.285c2.68 2.131 2.373 7.629-2.484 8.307-.236.033-.818.787-.428.803 3.926.146 6.266-2.992 6.047-6.086-.111-1.582 3.313-2.232 3.238-2.939-.074-.71-6.373-.085-6.373-.085z" fill="#1a1626"/><path d="m7.486 9c-2 0-4.486 1.344-4.486 1.344l4.976 1v-1.906h-.49z" fill="#1a1626"/><path d="m51.767 9.156-.283 1.344h2.424l-.523-1.344z" fill="#1a1626"/><path d="m58.118 24.162c1.896-.5 3.882-.188 3.882-.901 0-.62-1.265-.849-2.049-2.229-3.36-4.328-3.681-9.231-3.681-9.231s-.521-1.458-1.161-1.458c-.795 0-52.109 0-52.109 0v10.689h1.706c.195.799.459 1.307.793 1.307 14.669 0 13.329 1.41 16.673 9.492.785 1.898 3.227 5.232 6.006 5.232h11.554s2.167 6.385 2.628 12.223c.246 3.109-1.795 5.215.408 5.215h17.434c1.09 0 1.68-.883 1.68-2.262 0-7.125-6.588-17.516-7.91-21.377-1.292-3.766 1.117-5.901 4.146-6.7zm-22.169 10.688h-7.547c-3.236 0-5.021-2.783-5.021-5.311v-1.355c0-3.682 2.57-3.832 5.738-3.832h3.961c2.436 0 4.305 2.504 4.305 5v2.686c0 1.314.121 2.812-1.436 2.812z" fill="#302c3b"/><path d="m56.271 11.801h-53.271v7.477h17.963c4.688 0 5.367 1.754 5.367 1.754h33.621z" fill="#424555"/><path d="m47.901 21.558h1.409l-2.331-5.807c-.249-.626-1.446-.101-1.195.523z" fill="#302c3b"/><path d="m50.492 21.558h1.406l-2.327-5.807c-.251-.626-1.447-.1-1.198.523z" fill="#302c3b"/><path d="m53.081 21.558h1.409l-2.331-5.807c-.25-.626-1.446-.1-1.197.523z" fill="#302c3b"/><path d="m55.67 21.558h1.408l-2.328-5.808c-.25-.626-1.448-.101-1.197.523z" fill="#302c3b"/><g fill="#363242"><path d="m46.586 31.698h2v2h-2z" transform="matrix(.7069 -.7074 .7074 .7069 -9.1796 43.2449)"/><path d="m44.818 26.395h2v2h-2z" transform="matrix(-.7071 -.7071 .7071 -.7071 58.846 79.1639)"/><path d="m44.818 29.93h2v2h-2z" transform="matrix(.7071 .7071 -.7071 .7071 35.2908 -23.3392)"/><path d="m48.354 26.395h2v2h-2z" transform="matrix(.7071 .7071 -.7071 .7071 33.8262 -26.8745)"/><path d="m43.051 28.162h2v2h-2z" transform="matrix(-.7069 -.7074 .7074 -.7069 54.5608 80.9351)"/><path d="m46.586 35.234h2v2h-2z" transform="matrix(-.7071 -.7071 .7071 -.7071 55.6134 95.5026)"/><path d="m50.121 38.769h2v2h-2z" transform="matrix(.7074 .7069 -.7069 .7074 43.0716 -24.4977)"/><path d="m48.354 40.536h2v2.001h-2z" transform="matrix(-.7069 -.7074 .7074 -.7069 54.8599 105.8071)"/><path d="m44.818 37.001h2v2h-2z" transform="matrix(-.7071 .7071 -.7071 -.7071 105.0876 32.4733)"/><path d="m48.354 37.001h2v2h-2z" transform="matrix(-.7071 -.7071 .7071 -.7071 57.381 99.7699)"/><path d="m44.818 33.466h2v2h-2z" transform="matrix(-.7071 .7071 -.7071 -.7071 102.5878 26.4384)"/><path d="m46.586 38.769h2v2h-2z" transform="matrix(.7071 .7071 -.7071 .7071 42.0582 -22.0004)"/><path d="m51.889 37.001h2v2h-2z" transform="matrix(.7074 -.7069 .7069 .7074 -11.3834 48.5067)"/><path d="m50.122 35.233h2v2h-2z" transform="matrix(-.7071 -.7071 .7071 -.7071 61.6491 98.0027)"/><path d="m48.354 33.466h2v2h-2z" transform="matrix(-.7071 -.7071 .7071 -.7071 59.8815 93.7354)"/><path d="m51.89 40.536h2v2h-2z" transform="matrix(-.7071 -.7071 .7071 -.7071 60.9178 108.3052)"/><path d="m48.354 44.072h2v2h-2z" transform="matrix(.7071 .7071 -.7071 .7071 46.3262 -21.6968)"/><path d="m51.889 44.072h2v2.001h-2z" transform="matrix(.7069 .7074 -.7074 .7069 47.3857 -24.1988)"/><path d="m46.586 42.304h2v2h-2z" transform="matrix(-.7071 .7071 -.7071 -.7071 111.855 40.2766)"/><path d="m48.354 29.93h2v2h-2z" transform="matrix(.7071 -.7071 .7071 .7071 -7.4153 43.9573)"/><path d="m50.122 42.304h2v2.001h-2z" transform="matrix(.7071 .7071 -.7071 .7071 45.5939 -23.4649)"/><path d="m50.121 49.375h2v2h-2z" transform="matrix(.7071 -.7071 .7071 .7071 -20.6475 50.9026)"/><path d="m51.389 52.764-.267-.267-.267.267z"/><path d="m54.391 52.764h.533l-.267-.267z"/><path d="m46.586 49.375h2v2h-2z" transform="matrix(.7071 -.7071 .7071 .7071 -21.6833 48.403)"/><path d="m47.319 52.764h.534l-.267-.267z"/><path d="m45.818 50.729-.945.944c.301.624.91 1.001 1.76 1.07l.6-.6z"/><path d="m59.289 51.4-.742.743.273.273c.22-.249.379-.609.469-1.016z"/><path d="m59.383 50.559c0-.138-.012-.283-.019-.426l-1.171-1.172-1.415 1.414 1.415 1.415 1.188-1.187c0-.014.002-.03.002-.044z"/><path d="m57.926 52.764h.211c.098 0 .188-.019.273-.049l-.217-.218z"/><path d="m53.657 49.375h2v2h-2z" transform="matrix(.7071 -.7071 .7071 .7071 -19.6121 53.4031)"/><path d="m43.697 45.071-.037-.037c.005.021.01.04.014.06z"/><path d="m59.083 48.07-.536.537.75.751c-.051-.416-.119-.843-.214-1.288z"/><path d="m58.193 45.426-1.414 1.414 1.414 1.414.756-.757c-.146-.597-.322-1.212-.526-1.842z"/><path d="m53.657 42.304h2v2h-2z" transform="matrix(-.7071 -.7071 .7071 -.7071 62.6854 112.5726)"/><path d="m45.465 43.304-1.414-1.414-.932.932c.111.438.217.864.318 1.283l.613.613z"/><path d="m55.425 44.071h2v2h-2z" transform="matrix(.7071 .7071 -.7071 .7071 48.3967 -26.6973)"/><path d="m55.011 38.001.46.46c-.098-.21-.195-.421-.293-.627z"/><path d="m39.738 24.281h-1.748c.027.1.057.211.087.322l.67.67z"/><path d="m46.586 28.162h2v2h-2z" transform="matrix(-.7071 -.7071 .7071 -.7071 60.6136 83.4312)"/><path d="m53.657 38.769h2v2h-2z" transform="matrix(-.7071 -.7071 .7071 -.7071 65.1851 106.5377)"/><path d="m38.394 25.627-.048-.047c.008.025.014.048.021.074z"/><path d="m51.053 24.281-1.346 1.346 1.414 1.414 1.414-1.414-1.346-1.346z"/><path d="m40.162 27.395-1.415-1.414-.226.225c.186.655.395 1.392.626 2.203z"/><path d="m50.121 31.698h2.001v2h-2.001z" transform="matrix(-.7071 -.7071 .7071 -.7071 64.1492 91.967)"/><path d="m40.162 30.931-.412-.412c.06.21.121.427.182.642z"/><path d="m52.89 33.052-1.414 1.414 1.414 1.414.921-.92c-.317-.668-.596-1.274-.842-1.828z"/><path d="m39.467 29.528 1.049 1.048 1.414-1.414-1.414-1.414-1.211 1.211c.023.084.047.165.071.25.03.104.062.214.091.319z"/><path d="m56.778 43.304 1.28 1.28c-.219-.612-.457-1.231-.709-1.853z"/><path d="m54.038 35.438-.795.795 1.414 1.414.293-.293c-.2-.422-.397-.837-.589-1.235-.111-.235-.215-.453-.323-.681z"/><path d="m41.93 32.698-1.414-1.414-.427.426c.204.72.413 1.454.624 2.205z"/><path d="m55.425 47.608h2v2h-2z" transform="matrix(.7074 .7069 -.7069 .7074 50.8716 -25.66)"/><path d="m55.011 41.536 1.414 1.414.72-.72c-.275-.662-.561-1.323-.854-1.976z"/><path d="m45.465 46.84-1.414-1.415-.242.242c.195.851.361 1.632.496 2.332z"/><path d="m44.696 51.144.769-.769-.916-.917c.064.482.107.904.107 1.218 0 .165.014.32.04.468z"/><path d="m45.818 50.021 1.414-1.414-1.414-1.414-1.405 1.405c.001.007.003.014.003.021z"/><path d="m50.147 52.764.621-.621-1.414-1.414-1.415 1.415.622.62z"/><path d="m57.219 52.764.621-.62-1.415-1.415-1.414 1.415.62.62z"/><path d="m53.684 52.764.62-.62-1.414-1.415-1.414 1.415.62.62z"/><path d="m53.657 45.84h2v2h-2z" transform="matrix(.7071 .7071 -.7071 .7071 49.1295 -24.9294)"/><path d="m41.283 33.466h2v2h-2z" transform="matrix(.7071 .7071 -.7071 .7071 36.7555 -19.8039)"/><path d="m41.93 36.233-.788-.787c.114.41.229.82.343 1.232z"/><path d="m42.283 39.415 1.414-1.414-1.414-1.414-.646.646c.193.707.385 1.41.572 2.107z"/><path d="m51.922 29.775c-.063-.452-.098-.892-.082-1.31l-.719-.718-1.414 1.414 1.414 1.414z"/><path d="m43.697 41.536-1.23-1.23c.176.665.346 1.314.508 1.953z"/><path d="m47.518 24.281-1.346 1.346 1.414 1.414 1.414-1.414-1.344-1.346z"/><path d="m43.982 24.281-1.345 1.346 1.414 1.414 1.414-1.414-1.346-1.346z"/><path d="m45.818 25.273.993-.992h-1.985z"/><path d="m42.283 25.273.992-.992h-1.984z"/><path d="m41.283 26.395h2v2h-2z" transform="matrix(.7071 .7071 -.7071 .7071 31.7553 -21.8751)"/><path d="m40.445 24.281-1.344 1.346 1.415 1.414 1.414-1.414-1.346-1.346z"/><path d="m51.475 27.395.429.428c.054-.394.142-.771.271-1.127z"/><path d="m49.354 25.273.992-.992h-1.983z"/><path d="m51.889 47.607h2v2h-2z" transform="matrix(.7071 .7071 -.7071 .7071 49.8615 -23.1615)"/><path d="m52.889 25.273.992-.992h-1.985z"/><path d="m52.359 31.629c-.145-.426-.256-.839-.34-1.242l-.545.543 1 .999c-.036-.097-.085-.212-.115-.3z"/><path d="m46.586 45.84h2v2h-2z" transform="matrix(.7071 .7071 -.7071 .7071 47.0584 -19.9293)"/><path d="m48.354 47.608h2v2h-2z" transform="matrix(.7071 .7071 -.7071 .7071 48.8259 -20.6614)"/><path d="m44.818 44.072h2v2h-2z" transform="matrix(-.7071 .7071 -.7071 -.7071 110.0874 44.5439)"/><path d="m41.283 29.93h2v2h-2z" transform="matrix(-.7071 .7071 -.7071 -.7071 94.0529 22.9024)"/><path d="m50.121 45.84h2v2h-2z" transform="matrix(.7074 .7069 -.7069 .7074 48.07 -22.4283)"/><path d="m43.051 35.234h2v2h-2z" transform="matrix(-.7071 .7071 -.7071 -.7071 100.8203 30.7057)"/><path d="m44.818 40.536h2v2h-2z" transform="matrix(.7071 .7071 -.7071 .7071 42.7904 -20.2328)"/><path d="m43.051 31.698h2v2h-2z" transform="matrix(.7071 .7071 -.7071 .7071 36.0233 -21.5715)"/><path d="m43.051 38.769h2v2h-2z" transform="matrix(-.7071 .7071 -.7071 -.7071 103.32 36.7406)"/></g><path d="m44.965 27.832c-.441.441-.482 1.132-.123 1.62l1.744-1.744c-.488-.358-1.179-.318-1.621.124z" fill="#4e5e67"/><path d="m46.732 29.6c.442-.441.482-1.132.124-1.621l-1.744 1.745c.49.358 1.179.318 1.62-.124z" fill="#4e5e67"/><path d="m46.459 27.835-1.49 1.49c.037.052.22.233.271.271l1.49-1.489c-.038-.052-.22-.234-.271-.272z" fill="#42424f"/><path d="m52.604 48.688c-.441-.442-1.131-.482-1.619-.124l1.744 1.744c.357-.489.318-1.179-.125-1.62z" fill="#4e5e67"/><path d="m50.836 50.455c.441.441 1.133.482 1.621.123l-1.744-1.744c-.359.489-.318 1.179.123 1.621z" fill="#4e5e67"/><path d="m52.602 50.181-1.49-1.49c-.053.037-.234.22-.271.271l1.49 1.49c.05-.038.232-.22.271-.271z" fill="#42424f"/></svg>