<svg enable-background="new 0 0 64 64" height="64" viewBox="0 0 64 64" width="64" xmlns="http://www.w3.org/2000/svg" xmlns:xlink="http://www.w3.org/1999/xlink"><linearGradient id="a" gradientUnits="userSpaceOnUse" x1="31.9995" x2="31.9995" y1="2" y2="62.0005"><stop offset="0" stop-color="#00abf1"/><stop offset=".2292" stop-color="#00a7ef"/><stop offset=".4667" stop-color="#009ae9"/><stop offset=".708" stop-color="#0086e0"/><stop offset=".9504" stop-color="#0069d3"/><stop offset="1" stop-color="#0062d0"/></linearGradient><path d="m62 54c0 4.4-3.6 8-8 8h-44c-4.399 0-8-3.6-8-8v-44c0-4.399 3.601-8 8-8h44c4.4 0 8 3.601 8 8z" fill="url(#a)"/><g fill="#fff"><path d="m22.175 11.176h2.549c.399 0 .62.222.62.62v17.014c0 .397-.221.619-.62.619h-2.346c-.398 0-.62-.222-.62-.619v-14.023l-3.526 1.937c-.424.247-.744.046-.744-.424v-2.274c0-.326.13-.574.423-.743l3.496-1.911c.248-.15.475-.196.768-.196z"/><path d="m35.782 28.985v-1.616c0-.301.098-.542.319-.764l5.881-5.932c1.146-1.167 2.131-2.522 2.131-3.808 0-1.538-.92-2.372-2.27-2.372-1.309 0-2.223.567-2.43 1.851-.066.399-.275.601-.646.601h-2.365c-.398 0-.62-.223-.594-.646.299-3.67 3.097-5.299 5.958-5.299 2.967 0 5.934 1.844 5.934 5.866 0 2.087-1.304 4.14-2.882 5.698l-3.669 3.585h6.224c.398 0 .621.222.621.619v2.217c0 .397-.223.619-.621.619h-10.97c-.399 0-.621-.221-.621-.619z"/><path d="m27.923 47.023c0 3.916-3.077 5.977-6.519 5.977-3.247 0-6.174-1.838-6.493-5.331-.027-.425.214-.646.612-.646h2.373c.372 0 .554.201.639.579.235 1.174 1.258 1.903 2.869 1.903 1.883 0 2.934-1.01 2.934-2.482 0-1.474-1.051-2.484-2.934-2.484h-1.33c-.399 0-.62-.223-.62-.618v-1.331c0-.293.092-.521.267-.77l3.058-4.061h-6.551c-.398 0-.619-.222-.619-.621v-2.123c0-.398.221-.621.619-.621h10.235c.397 0 .619.223.619.621v1.929c0 .294-.091.521-.268.771l-3.1 4.082c2.398.7 4.209 2.519 4.209 5.226z"/><path d="m49.091 47.016v2.087c0 .397-.223.618-.62.618h-1.336v2.484c0 .397-.221.619-.619.619h-2.385c-.398 0-.621-.222-.621-.619v-2.484h-8.207c-.397 0-.619-.221-.619-.618v-2.308c0-.274.052-.502.176-.77l5.652-11.01c.15-.301.377-.444.723-.444h2.549c.471 0 .666.3.443.743l-5.678 11.082h4.961v-3.709c0-.397.223-.619.621-.619h2.385c.398 0 .619.222.619.619v3.709h1.336c.397 0 .62.223.62.62z"/></g></svg>