<svg enable-background="new 0 0 64 64" height="64" viewBox="0 0 64 64" width="64" xmlns="http://www.w3.org/2000/svg" xmlns:xlink="http://www.w3.org/1999/xlink"><linearGradient id="a" gradientUnits="userSpaceOnUse" x1="2" x2="32" y1="32" y2="32"><stop offset="0" stop-color="#ffc800"/><stop offset="1" stop-color="#ffe14d"/></linearGradient><linearGradient id="b" gradientTransform="matrix(-1 0 0 1 -1995.3701 0)" gradientUnits="userSpaceOnUse" x1="-2057.3701" x2="-2027.3701" y1="32" y2="32"><stop offset="0" stop-color="#ffe14d"/><stop offset="1" stop-color="#fc0"/></linearGradient><path d="m22.992 21.93 6.179-4.691-3.033 19.584c-8.416-.121-12.922.616-12.922.616s-1.494-5.212-1.027-9.567c.375-3.523 2.715-3.957 2.715-3.957l3.51 3.037c-2.168-9.83.826-18.266.826-18.266s-9.27 8.693-12.285 15.906c-3.096 7.408-4.955 16.226-4.955 16.226l6.4 5.914s5.648-1.664 9.963-1.998c4.129-.318 7.906-.398 7.906-.398v8.48l5.731 9.184v-60z" fill="url(#a)"/><path d="m41.008 21.93-6.179-4.691 3.032 19.584c8.416-.121 12.923.616 12.923.616s1.493-5.212 1.026-9.567c-.375-3.523-2.715-3.957-2.715-3.957l-3.51 3.037c2.168-9.83-.826-18.266-.826-18.266s9.27 8.693 12.285 15.906c3.097 7.408 4.956 16.226 4.956 16.226l-6.4 5.914s-5.647-1.664-9.963-1.998c-4.129-.318-7.906-.398-7.906-.398v8.48l-5.731 9.184v-60z" fill="url(#b)"/><g fill="#f9c802"><path d="m29.475 14.864-4.997 3.78-1.486 3.286 6.179-4.691z"/><path d="m34.525 14.864.304 2.375 6.179 4.691-1.486-3.286z"/><path d="m12.437 26.497c-.006.053-.008.108-.013.162.706-2.413 2.48-2.744 2.48-2.744l3.51 3.037c-.222-1.006-.378-1.993-.5-2.962l-2.796-2.45s-2.311 1.434-2.681 4.957z"/><path d="m48.883 21.54-2.797 2.45c-.122.97-.277 1.956-.5 2.962l3.51-3.037s1.775.331 2.48 2.744c-.005-.054-.007-.109-.013-.162-.37-3.523-2.68-4.957-2.68-4.957z"/><path d="m55.305 45.357s-5.577-1.664-9.838-1.998c-4.078-.318-7.736-.398-7.736-.398v1.375s3.777.08 7.906.398c4.315.334 9.963 1.998 9.963 1.998l6.4-5.914s-.115-.544-.333-1.47z"/><path d="m26.269 42.961s-3.658.08-7.736.398c-4.261.334-9.838 1.998-9.838 1.998l-6.362-6.009c-.218.926-.333 1.47-.333 1.47l6.4 5.914s5.648-1.664 9.963-1.998c4.129-.318 7.906-.398 7.906-.398z"/><path d="m26.269 50.104v2.712l5.731 9.184 5.73-9.184v-2.712l-5.73 9.184z"/></g></svg>