<svg enable-background="new 0 0 64 64" height="64" viewBox="0 0 64 64" width="64" xmlns="http://www.w3.org/2000/svg" xmlns:xlink="http://www.w3.org/1999/xlink"><linearGradient id="a"><stop offset="0" stop-color="#ebbb96"/><stop offset="1" stop-color="#cf9770"/></linearGradient><linearGradient id="b" gradientUnits="userSpaceOnUse" x1="50" x2="60" xlink:href="#a" y1="39.25" y2="39.25"/><linearGradient id="c"><stop offset=".5091" stop-color="#ebbb96"/><stop offset=".6618" stop-color="#e7b691"/><stop offset=".8414" stop-color="#dda983"/><stop offset="1" stop-color="#cf9770"/></linearGradient><linearGradient id="d" gradientUnits="userSpaceOnUse" x1="48" x2="62" xlink:href="#c" y1="61" y2="61"/><linearGradient id="e"><stop offset="0" stop-color="#ffe1bd"/><stop offset=".3398" stop-color="#f5cda9"/><stop offset=".6921" stop-color="#edc09b"/><stop offset="1" stop-color="#ebbb96"/></linearGradient><linearGradient id="f" gradientUnits="userSpaceOnUse" x1="48" x2="62" xlink:href="#e" y1="27.7627" y2="27.7627"/><linearGradient id="g"><stop offset=".1152" stop-color="#ffe1bd"/><stop offset=".4408" stop-color="#fddeba"/><stop offset=".6834" stop-color="#f9d5b1"/><stop offset=".8985" stop-color="#f0c5a0"/><stop offset="1" stop-color="#ebbb96"/></linearGradient><linearGradient id="h" gradientUnits="userSpaceOnUse" x1="48" x2="62" xlink:href="#g" y1="24.5" y2="24.5"/><linearGradient id="i" gradientUnits="userSpaceOnUse" x1="4" x2="13.999" xlink:href="#a" y1="39.25" y2="39.25"/><linearGradient id="j" gradientUnits="userSpaceOnUse" x1="2" x2="15.999" xlink:href="#c" y1="61" y2="61"/><linearGradient id="k" gradientUnits="userSpaceOnUse" x1="2" x2="15.999" xlink:href="#e" y1="27.7627" y2="27.7627"/><linearGradient id="l" gradientUnits="userSpaceOnUse" x1="2" x2="15.999" xlink:href="#g" y1="24.5" y2="24.5"/><radialGradient id="m" cx="28.1821" cy="21.8926" gradientTransform="matrix(.9444 0 0 .9378 3.6258 5.4344)" gradientUnits="userSpaceOnUse" r="17.627"><stop offset="0" stop-color="#ffd500"/><stop offset=".2859" stop-color="#ffd200"/><stop offset=".5366" stop-color="#ffc700"/><stop offset=".7733" stop-color="#ffb500"/><stop offset="1" stop-color="#ff9c00"/></radialGradient><radialGradient id="n" cx="556.8105" cy="15.5518" gradientTransform="matrix(.2888 .4703 -.8064 .4881 -119.9822 -241.353)" gradientUnits="userSpaceOnUse" r="9.9348"><stop offset="0" stop-color="#fff7d1"/><stop offset="1" stop-color="#fff7d1" stop-opacity="0"/></radialGradient><path d="m12 46h40v16h-40z" fill="#f5d9a6"/><path d="m46 40h-28c-.55 0-1 .45-1 1v21h30v-21c0-.55-.45-1-1-1z" fill="#ffe8bb"/><path d="m38 46h-12c-.55 0-1 .45-1 1v15h14v-15c0-.55-.45-1-1-1z" fill="#f5d9a6"/><path d="m56.188 2c.059.368-.05.76-.336 1.044-.47.47-1.233.47-1.705 0-.284-.284-.393-.676-.334-1.044-.278.514-.207 1.168.229 1.603.529.529 1.389.529 1.918 0 .435-.435.507-1.089.228-1.603z" fill="#ffd710"/><path d="m50 16.5h10v45.5h-10z" fill="url(#b)"/><path d="m60 16.5-5-10.5-5 10.5z" fill="#ffb33b"/><path d="m57 16.5-2-10.5-2 10.5z" fill="#ffd710"/><path d="m55.001 3.572-.376 1.428.375 1.428.375-1.428z" fill="#ffd710"/><path d="m48 60h14v2h-14z" fill="url(#d)"/><path d="m49.5 16h11v1h-11z" fill="#ffd710"/><path d="m60 29.5h-10l-2-3s6.92-1.068 14 0z" fill="url(#f)"/><path d="m55 18.5c-1.5 1.334-1.5 1.334-1.5 2.667v3.333h3v-3.333c0-1.333 0-1.333-1.5-2.667z" fill="#45332c"/><path d="m60 22.5v1h-2v-1h-2v1h-2v-1h-2v1h-2v-1h-2v4h14v-4z" fill="url(#h)"/><path d="m10.188 2c.059.368-.05.76-.336 1.044-.47.47-1.233.47-1.705 0-.284-.284-.393-.676-.334-1.044-.279.514-.208 1.168.228 1.603.529.529 1.389.529 1.918 0 .436-.435.508-1.089.229-1.603z" fill="#ffd710"/><path d="m4 16.5h9.999v45.5h-9.999z" fill="url(#i)"/><path d="m13.999 16.5-4.999-10.5-5 10.5z" fill="#ffb33b"/><path d="m11 16.5-2-10.5-2 10.5z" fill="#ffd710"/><path d="m9.001 3.572-.376 1.428.375 1.428.375-1.428z" fill="#ffd710"/><path d="m2 60h13.999v2h-13.999z" fill="url(#j)"/><path d="m3.5 16h10.999v1h-10.999z" fill="#ffd710"/><path d="m13.999 29.5h-9.999l-2-3s6.92-1.068 13.999 0z" fill="url(#k)"/><path d="m9 18.5c-1.5 1.334-1.5 1.334-1.5 2.667v3.333h3v-3.333c0-1.333 0-1.333-1.5-2.667z" fill="#45332c"/><path d="m13.999 22.5v1h-1.999v-1h-2v1h-2v-1h-2v1h-2v-1h-2v4h13.999v-4z" fill="url(#l)"/><path d="m32 51s-4.5 1.379-4.5 4.754v6.246h9v-6.246c0-3.375-4.5-4.754-4.5-4.754z" fill="#785647"/><path d="m32 51.824s-3.688 1.317-3.688 3.713v6.463h7.375v-6.463c.001-2.395-3.687-3.713-3.687-3.713z" fill="#b47d56"/><path d="m28.003 55.214h7.994v.365h-7.994z" fill="#785647"/><path d="m31.807 55.514h.387v6.486h-.387z" fill="#785647"/><path d="m32.585 58.21h.197v.969h-.197z" fill="#d6a57c"/><path d="m31.218 58.21h.197v.969h-.197z" fill="#d6a57c"/><path d="m18 37h28v3h-28z" fill="#f5d9a6"/><path d="m41.119 24.526c-6.156-2.894-9.119-5.181-9.119-5.181s-2.965 2.287-9.117 5.182c-9.632 4.53-6.564 10.802-4.883 12.473h28c1.683-1.673 4.747-7.941-4.881-12.474z" fill="url(#m)"/><path d="m35.121 14c.154.964-.132 1.982-.881 2.727-1.236 1.228-3.245 1.228-4.482-.001-.748-.741-1.034-1.762-.879-2.726-.732 1.342-.543 3.049.598 4.184 1.395 1.384 3.652 1.384 5.045.001 1.142-1.135 1.33-2.842.599-4.185z" fill="#ffd710"/><path d="m31.151 32.779c-4.425 2.68-9.297 2.757-10.878.177-1.584-2.581.716-6.845 5.139-9.522 4.427-2.68 9.297-2.759 10.88-.18 1.588 2.585-.716 6.848-5.141 9.525z" fill="url(#n)" opacity=".5"/><path d="m31.111 19.111h1.777v.884h-1.777z" fill="#ffb33b"/><path d="m43 52c-2 2.001-2 2.001-2 3.999v2.001h4v-2.001c0-1.998 0-1.998-2-3.999z" fill="#cf9770"/><path d="m43 52.75c-1.5 1.501-1.5 1.501-1.5 2.999v1.742h3v-1.742c0-1.498 0-1.498-1.5-2.999z" fill="#45332c"/><path d="m21 52c-2 2.001-2 2.001-2 3.999v2.001h4v-2.001c0-1.998 0-1.998-2-3.999z" fill="#cf9770"/><path d="m21 52.75c-1.5 1.501-1.5 1.501-1.5 2.999v1.742h3v-1.742c0-1.498 0-1.498-1.5-2.999z" fill="#45332c"/></svg>