<svg enable-background="new 0 0 64 64" height="64" viewBox="0 0 64 64" width="64" xmlns="http://www.w3.org/2000/svg"><path d="m14 54-12-12v-40l12 12z" fill="#4e5e67"/><path d="m14 14h48v40h-48z" fill="#302c3b"/><path d="m62 14h-48l-12-12h48z" fill="#1a1626"/><path d="m16 12h40l-8-8h-40z" fill="#f2f5f7"/><path d="m48 4h-40l2 2h38l6 6h2z" fill="#cfd8dd"/><path d="m13 26h49v6h-48z" fill="#ffe12c"/><path d="m13 26.5h49v5h-48z" fill="#f9b700"/><path d="m14 32-12-12v-6l12 12z" fill="#ffe12c"/><path d="m14 31.5-12-12v-5l12 12z" fill="#ffcc12"/><path d="m42 36h12v6h-12z" fill="#f9b700"/><path d="m13 36h4.5v6h-3.5z" fill="#f9b700"/><path d="m60 36h2v6h-2z" fill="#f9b700"/><path d="m12 34v6l2 2v-6z" fill="#ffe12c"/><path d="m6 28v5.5l4 4.5v-6z" fill="#ffe12c"/><path d="m2 24v6l2 2v-6z" fill="#ffe12c"/><path d="m14 54h48v8h-48z" fill="#4e5e67"/><path d="m14 62-12-12v-8l12 12z" fill="#6e8189"/><path d="m14 56h6v2h-6z" fill="#6e8189"/><path d="m12 54-4-4v-2l4 4z" fill="#4e5e67"/><path d="m14 60-4-4v-2l4 4z" fill="#4e5e67"/><path d="m8 54-4-4v-2l4 4z" fill="#4e5e67"/><path d="m6 48-4-4v-2l4 4z" fill="#4e5e67"/><path d="m20 60h6v2h-6z" fill="#6e8189"/><path d="m32 60h6v2h-6z" fill="#6e8189"/><path d="m44 58h6v2h-6z" fill="#6e8189"/><path d="m23 58h6v2h-6z" fill="#6e8189"/><path d="m54 60h6v2h-6z" fill="#6e8189"/><path d="m36 56h6v2h-6z" fill="#6e8189"/><path d="m48 54h6v2h-6z" fill="#6e8189"/><path d="m56 56h6v2h-6z" fill="#6e8189"/><path d="m24 36v18h12v-18z" fill="#f9b700"/><path d="m24.75 37v17h1.5v-17z" fill="#ea8800"/><path d="m33.75 37v17h1.5v-17z" fill="#ea8800"/><path d="m24.75 36.75v1.5h10.5v-1.5z" fill="#ea8800"/><path d="m24.75 41.25v1.5h10.5v-1.5z" fill="#ea8800"/><path d="m24.75 45.75v1.5h10.5v-1.5z" fill="#ea8800"/><path d="m26.762 53h6.479c.68 0 .68 1 0 1h-6.479c-.682 0-.682-1 0-1z" fill="#ea8800"/><path d="m26.762 51.5h6.479c.68 0 .68 1 0 1h-6.479c-.682 0-.682-1 0-1z" fill="#ea8800"/><path d="m26.762 50h6.479c.68 0 .68 1 0 1h-6.479c-.682 0-.682-1 0-1z" fill="#ea8800"/><g fill="#f9b700"><path d="m26 37.5c0 .667-1 .667-1 0s1-.667 1 0z"/><path d="m30.5 37.5c0 .667-1 .667-1 0s1-.667 1 0z"/><path d="m35 37.5c0 .667-1 .667-1 0s1-.667 1 0z"/><path d="m31.227 37h2.047c.637 0 .637 1 0 1h-2.047c-.635 0-.635-1 0-1z"/><path d="m26.727 37h2.047c.637 0 .637 1 0 1h-2.047c-.635 0-.635-1 0-1z"/><path d="m35 38.727v2.047c0 .636-1 .636-1 0v-2.047c0-.636 1-.636 1 0z"/><path d="m30.5 42c0 .667-1 .667-1 0s1-.667 1 0z"/><path d="m31.227 41.5h2.047c.637 0 .637 1 0 1h-2.047c-.635 0-.635-1 0-1z"/><path d="m26.727 41.5h2.047c.637 0 .637 1 0 1h-2.047c-.635 0-.635-1 0-1z"/><path d="m34.5 42.5c-.666 0-.666-1 0-1 .668 0 .668 1 0 1z"/><path d="m25.5 42.5c-.666 0-.666-1 0-1 .668 0 .668 1 0 1z"/><path d="m30.5 46.5c0 .667-1 .667-1 0s1-.667 1 0z"/><path d="m31.227 46h2.047c.637 0 .637 1 0 1h-2.047c-.635 0-.635-1 0-1z"/><path d="m26.727 46h2.047c.637 0 .637 1 0 1h-2.047c-.635 0-.635-1 0-1z"/><path d="m34.5 47c-.666 0-.666-1 0-1 .668 0 .668 1 0 1z"/><path d="m25.5 47c-.666 0-.666-1 0-1 .668 0 .668 1 0 1z"/><path d="m35 47.727v2.047c0 .636-1 .636-1 0v-2.047c0-.636 1-.636 1 0z"/><path d="m35 43.227v2.047c0 .636-1 .636-1 0v-2.047c0-.636 1-.636 1 0z"/><path d="m26 38.727v2.047c0 .636-1 .636-1 0v-2.047c0-.636 1-.636 1 0z"/><path d="m26 47.727v2.047c0 .636-1 .636-1 0v-2.047c0-.636 1-.636 1 0z"/><path d="m35 50.977v2.047c0 .636-1 .636-1 0v-2.047c0-.636 1-.636 1 0z"/><path d="m26 50.977v2.047c0 .636-1 .636-1 0v-2.047c0-.636 1-.636 1 0z"/><path d="m26 43.227v2.047c0 .636-1 .636-1 0v-2.047c0-.636 1-.636 1 0z"/></g><path d="m32 54-2-7.5-2 7.5z" fill="#1a1626"/><path d="m31 54-1-7.5-2 7.5z" fill="#302c3b"/><path d="m58.208 38.035c-.279-.884-.935-.752-1.208-1.535-.273.783-.93.651-1.208 1.535-1.09.287-.992 2.38-.09 2.369 0 0-.021 1.096 1.298 1.096s1.298-1.096 1.298-1.096c.902.011 1-2.082-.09-2.369z" fill="#f9b700"/><path d="m40.208 38.035c-.279-.884-.935-.752-1.208-1.535-.273.783-.93.651-1.208 1.535-1.09.287-.992 2.38-.09 2.369 0 0-.021 1.096 1.298 1.096s1.298-1.096 1.298-1.096c.902.011 1-2.082-.09-2.369z" fill="#f9b700"/><path d="m22.208 38.035c-.279-.884-.935-.752-1.208-1.535-.273.783-.93.651-1.208 1.535-1.09.287-.992 2.38-.09 2.369 0 0-.021 1.096 1.298 1.096s1.298-1.096 1.298-1.096c.902.011 1-2.082-.09-2.369z" fill="#f9b700"/><path d="m25.5 54h9v2h-9z" fill="#3e4a52"/><path d="m30 55.5c-.666 0-.666-1 0-1 .667 0 .667 1 0 1z" fill="#6e8189"/></svg>