<svg enable-background="new 0 0 64 64" height="64" viewBox="0 0 64 64" width="64" xmlns="http://www.w3.org/2000/svg" xmlns:xlink="http://www.w3.org/1999/xlink"><linearGradient id="a"><stop offset="0" stop-color="#545061"/><stop offset=".2793" stop-color="#464253"/><stop offset=".6189" stop-color="#211d2d"/><stop offset="1" stop-color="#1a1626"/></linearGradient><linearGradient id="b" gradientUnits="userSpaceOnUse" x1="16.9977" x2="47.0024" xlink:href="#a" y1="6.0155" y2="57.9851"/><linearGradient id="c" gradientUnits="userSpaceOnUse" x1="19.4979" x2="44.5021" y1="10.3458" y2="53.6542"><stop offset="0" stop-color="#d9e0e4"/><stop offset=".2316" stop-color="#d6dde1"/><stop offset=".5714" stop-color="#c2cacd"/><stop offset="1" stop-color="#a2aaad"/></linearGradient><linearGradient id="d" gradientUnits="userSpaceOnUse" x1="27.2189" x2="36.5133" xlink:href="#a" y1="14.4506" y2="30.549"/><linearGradient id="e" gradientUnits="userSpaceOnUse" x1="29.9998" x2="34.0005" xlink:href="#a" y1="28.5353" y2="35.4648"/><circle cx="32" cy="32" fill="url(#b)" r="30"/><circle cx="32" cy="32" fill="url(#c)" r="25"/><circle cx="32" cy="32" fill="#fff" r="22"/><path d="m34 32h-4v-18c0-1.105.895-2 2-2 1.105 0 2 .895 2 2z" fill="url(#d)"/><circle cx="32" cy="32" fill="url(#e)" r="4"/><path d="m34.5 32c0 1.378-1.12 2.5-2.5 2.5s-2.5-1.122-2.5-2.5 1.12-2.5 2.5-2.5 2.5 1.122 2.5 2.5z" fill="#fff"/></svg>