<svg enable-background="new 0 0 64 64" height="64" viewBox="0 0 64 64" width="64" xmlns="http://www.w3.org/2000/svg" xmlns:xlink="http://www.w3.org/1999/xlink"><linearGradient id="a" gradientUnits="userSpaceOnUse" x1="20.5781" x2="43.1338" y1="41.7432" y2="41.7432"><stop offset=".2303" stop-color="#cfd8dd"/><stop offset=".5477" stop-color="#c7d2d6"/><stop offset="1" stop-color="#b3c2c6"/></linearGradient><radialGradient id="b" cx="30.6445" cy="23.0688" gradientTransform="matrix(1.0037 0 0 .3917 1.1403 14.0324)" gradientUnits="userSpaceOnUse" r="12.4789"><stop offset=".6303" stop-color="#f7f1ed"/><stop offset="1" stop-color="#d9e2e8"/></radialGradient><linearGradient id="c" gradientUnits="userSpaceOnUse" x1="31.5903" x2="31.5903" y1="20.3008" y2="2"><stop offset="0" stop-color="#ff7b00"/><stop offset=".2417" stop-color="#fb6b00"/><stop offset=".7114" stop-color="#f04200"/><stop offset="1" stop-color="#e82500"/></linearGradient><linearGradient id="d" gradientUnits="userSpaceOnUse" x1="31.5386" x2="31.5386" y1="20.3008" y2="4.5"><stop offset="0" stop-color="#fa0"/><stop offset=".1749" stop-color="#ffa400"/><stop offset=".4181" stop-color="#ff9200"/><stop offset=".7014" stop-color="#ff7400"/><stop offset="1" stop-color="#ff4d00"/></linearGradient><linearGradient id="e" gradientTransform="matrix(-1 0 0 1 -286.2363 0)" gradientUnits="userSpaceOnUse" x1="-317.4976" x2="-317.4976" y1="20.3008" y2="6.9141"><stop offset="0" stop-color="#ffb500"/><stop offset=".0869" stop-color="#ffba00"/><stop offset=".6742" stop-color="#ffda00"/><stop offset="1" stop-color="#ffe600"/></linearGradient><linearGradient id="f" gradientTransform="matrix(-1 0 0 1 -286.2363 0)" gradientUnits="userSpaceOnUse" x1="-317.5376" x2="-317.5376" y1="19.6904" y2="9.2441"><stop offset=".2424" stop-color="#fff2ab"/><stop offset=".3596" stop-color="#fff1a5"/><stop offset=".5236" stop-color="#ffef92"/><stop offset=".7153" stop-color="#ffec74"/><stop offset=".9263" stop-color="#ffe74b"/><stop offset="1" stop-color="#ffe53b"/></linearGradient><linearGradient id="g" gradientUnits="userSpaceOnUse" x1="31.5386" x2="31.5386" y1="23.6895" y2="16.5181"><stop offset=".2303" stop-color="#f3f3f3"/><stop offset=".246" stop-color="#d5d5d7"/><stop offset=".2699" stop-color="#afadb3"/><stop offset=".2963" stop-color="#8c8a92"/><stop offset=".3248" stop-color="#706d77"/><stop offset=".3563" stop-color="#585561"/><stop offset=".3919" stop-color="#464350"/><stop offset=".4341" stop-color="#393644"/><stop offset=".4892" stop-color="#322e3d"/><stop offset=".6061" stop-color="#302c3b"/><stop offset=".6237" stop-color="#4e473b"/><stop offset=".6515" stop-color="#776c3b"/><stop offset=".6819" stop-color="#9c8d3b"/><stop offset=".7145" stop-color="#bba83b"/><stop offset=".7499" stop-color="#d4be3b"/><stop offset=".7893" stop-color="#e7d03b"/><stop offset=".835" stop-color="#f5dc3b"/><stop offset=".8925" stop-color="#fde33b"/><stop offset="1" stop-color="#ffe53b"/></linearGradient><path d="m20.578 21.486v36.368c0 5.527 22.556 5.527 22.556 0v-36.368z" fill="url(#a)"/><path d="m43.647 22.897c1.359-3.896-18.708-6.321-23.069-1.411-1.48 1.667.428 2.49-.213 4.827-1.767 6.438 3.481-1.958 3.063 2.083-.568 5.489-2.274 13.104.418 12.448 1.411-.344-.031-5.969 1.066-10.406.796-3.219 4.514-3.131 5.269-.979 3.366 9.592 9.517-7.713 10.393-.063.516 4.5-1.326 16.782 1.903 15.438 3.426-1.427-2.01-13.169.656-16.25 2.272-2.625-.794-1.934.514-5.687z" fill="url(#b)"/><path d="m40.911 22.623c-2.747 4.068-14.928 3.666-17.612.221-1.547-1.982 3.905-3.535 8.557-2.382 5.875 1.456 9.92.876 9.055 2.161z" fill="#cfd8dd"/><path d="m31.298 2c-1.165 6.547-11.813 18.301-.097 18.301 10.478 0 5.784-14.06.097-18.301z" fill="url(#c)"/><path d="m32.015 4.5c-.788 3.364-10.333 15.801-.813 15.801 8.797 0 3.519-12.823.813-15.801z" fill="url(#d)"/><path d="m31.201 20.301c-6.56 0-.997-10.087 1.425-13.387.254 6.253 4.669 13.387-1.425 13.387z" fill="url(#e)"/><path d="m31.304 19.69c-2.891 0-1.893-6.17.944-10.446-.337 5.067 2.515 10.446-.944 10.446z" fill="url(#f)"/><path d="m32.329 23.407c-.141.476-.9.306-.8-.18.917-4.399-.803-4.923-1.046-6.148-.072-.369 1.176-.669 1.185-.523.051.841 1.515 3.996.661 6.851z" fill="url(#g)"/></svg>