<svg enable-background="new 0 0 64 64" height="64" viewBox="0 0 64 64" width="64" xmlns="http://www.w3.org/2000/svg" xmlns:xlink="http://www.w3.org/1999/xlink"><linearGradient id="a" gradientUnits="userSpaceOnUse" x1="41.5391" x2="41.5391" y1="38.0547" y2="18.9448"><stop offset="0" stop-color="#fff" stop-opacity="0"/><stop offset="1" stop-color="#fff"/></linearGradient><path d="m18.962 15.476c-8.107 37.397-7.365 36.596 9.703 36.596-9.445-7.099 8.647-37.105-9.703-36.596z" fill="#261a17"/><path d="m16.039 14.897c-5.916 28.414-.813 35.708 3.721 37.175h5.193c-12.153-9.201 6.845-37.734-8.914-37.175z" fill="#1e1513"/><path d="m42.815 15.475c8.107 37.396 7.365 36.595-9.701 36.595 8.686-5.697-8.648-37.105 9.701-36.595z" fill="#261a17"/><path d="m45.737 14.895c8.65 25.851-.018 35.98-3.719 37.175h-5.193c12.154-8.449-6.843-37.734 8.912-37.175z" fill="#1e1513"/><path d="m46.937 28.787c2.467 6.571.025 20.057-5.082 23.286 5.66 0 9.111-8.549 10.791-20.31 2.101-14.696-10.106-14.704-5.709-2.976z" fill="#3a2c29"/><path d="m9.767 34.489c2.064 10.614 4.602 17.583 10.16 17.583-6.197-6.998-5.467-21.76-3.707-25.433 8.977-5.827-9.941-10.103-6.453 7.85z" fill="#3a2c29"/><path d="m50.729 53.443c-2.398-1.26-12.363-4.596-12.363-4.596h-14.837s-9.955 3.326-12.344 4.594c-3.469 1.836-4.197 8.559-4.197 8.559h48c-.001 0-.776-6.729-4.259-8.557z" fill="#302c3b"/><path d="m23.128 45.27h15.726v8.314h-15.726z" fill="#dba97f"/><path d="m31 51.721-8.375-3.658 2.449 13.937h11.849l2.451-13.937z" fill="#fff"/><path d="m31 51.721-7.413 3.095 1.487 7.184h11.849l1.49-7.184z" fill="#e6ebef"/><path d="m35.183 62-2.221-6.889 1.037-2.138-2.999-1.252-3 1.252 1.039 2.138-2.225 6.889z" fill="#302c3b"/><path d="m20.376 62s-3.162-2.988-6.055-8.773l7.311-1.932-8.191-5.111s5.113-3.834 10.146-4.986v10.098s.797 4.51 4.783 10.705h-7.994z" fill="#4e5e67"/><path d="m41.624 62s3.16-2.988 6.055-8.773l-7.313-1.932 8.191-5.111s-5.115-3.834-10.145-4.986v10.098s-.797 4.51-4.783 10.705h7.995z" fill="#4e5e67"/><path d="m30.99 6.489c-11.609 0-17.201 9.455-16.502 21.61.143 2.444.822 5.969 1.66 8.99 1.742 6.278 10.93 12.601 14.842 12.601 3.91 0 13.099-6.322 14.839-12.601.84-3.021 1.52-6.545 1.664-8.99.697-12.155-4.892-21.61-16.503-21.61z" fill="#fcd5b2"/><path d="m30.99 39.661c-2.822-1.241-2.844-.05-7.199.242 1.635 1.856 2.838 4.243 7.197 4.243 5.003 0 5.849-2.711 7.203-4.243-4.36-.292-4.379-1.483-7.201-.242z" fill="#d88d56"/><path d="m25.097 40.365c2.844 2.959 8.976 2.92 11.785.002-4.379.471-7.404.471-11.785-.002z" fill="#fff"/><path d="m34.589 35.419c0 2.342-7.199 2.342-7.199 0 0-.538 7.199-.538 7.199 0z" fill="#dba97f"/><path d="m18.449 28.431c1.553 4.059 7.863 3.465 9.02.623-.878-4.566-8.165-4.957-9.02-.623z" fill="#fff"/><path d="m20.685 27.995c0 3.596 5.199 3.596 5.199 0 0-3.337-5.199-3.337-5.199 0z" fill="#613f34"/><path d="m21.199 29.145c0 2.062 4.172 2.062 4.172 0 0-1.913-4.172-1.913-4.172 0z" fill="#7d5037"/><path d="m22.205 28.051c0 1.492 2.16 1.492 2.16 0 0-1.385-2.16-1.385-2.16 0z" fill="#1a1626"/><path d="m21.468 27.615c0 .755 1.09.755 1.09 0 0-.699-1.09-.699-1.09 0z" fill="#ab968c"/><path d="m18.449 28.4c0-4.361 9.02-4.361 9.02.688-1.288-4.145-7.731-4.145-9.02-.688z" fill="#45332c"/><path d="m41.862 19.475c1.49 2.227 3.465 5.018 5.074 9.312 2.467 6.571 4.029 14.737 5.709 2.976.66-4.618.314-8.782-.586-12.287h-10.197z" fill="#3a2c29"/><path d="m9.937 19.475c-1.125 4.089-1.326 9.063-.17 15.014 2.064 10.614 2.9-3.666 4.662-7.339 4.025-2.613 9.691-5.045 14.93-7.675z" fill="#3a2c29"/><path d="m28.064 19.475c-8.373 3.898-16.877 6.757-17.961 12.235 4.289-6.152 14.721-8.007 22.816-12.235z" fill="#1e1513"/><path d="m45.132 28.699c-1.98 5.184-10.029 4.424-11.506.797 1.119-5.825 10.418-6.325 11.506-.797z" fill="#fff"/><path d="m35.681 28.148c0 4.547 6.576 4.547 6.576 0 0-4.221-6.576-4.221-6.576 0z" fill="#613f34"/><path d="m36.331 29.603c0 2.607 5.275 2.607 5.275 0 0-2.42-5.275-2.42-5.275 0z" fill="#7d5037"/><path d="m37.604 28.218c0 1.889 2.729 1.889 2.729 0 0-1.75-2.729-1.75-2.729 0z" fill="#1a1626"/><path d="m36.673 27.669c0 .953 1.379.953 1.379 0 0-.884-1.379-.884-1.379 0z" fill="#ab968c"/><path d="m45.132 28.662c0-5.564-11.506-5.564-11.506.881 1.645-5.288 9.863-5.288 11.506-.881z" fill="#45332c"/><path d="m60.071 49.967c1.565 4.314 1.532 12.033 1.532 12.033h-9.238s-1.176-10.43.479-11.223c3.344-1.601 6.995-1.455 7.227-.81z" fill="#302c3b"/><path d="m47.091 39.844c-.873-1.279 2.57-2.223 3.139.023.229.908 9.631.668 10.381 2.01 1.352 2.41-1.748 7.166-1.293 8.145.453.979-6.324 2.516-6.191 1.285.436-4.033-1.584-2.508-2.449-5.9-.654-2.552-2.421-3.852-3.587-5.563z" fill="#dba97f"/><path d="m44.013 19.272c5.092 1.367 8.115 6.603 6.752 11.698-1.367 5.096-6.604 8.124-11.697 6.756-5.096-1.365-8.119-6.604-6.751-11.702 1.362-5.094 6.6-8.117 11.696-6.752z" fill="url(#a)" opacity=".65"/><path d="m48.341 35.186h3.373v3.61h-3.373z" fill="#bec3cf" transform="matrix(-.7077 .7065 -.7065 -.7077 111.5663 27.8237)"/><path d="m49.044 36.006c4.148-4.147 4.146-10.866.002-15.015-4.146-4.145-10.869-4.146-15.014 0-4.146 4.146-4.146 10.872 0 15.017 4.145 4.146 10.869 4.146 15.012-.002zm-13.676-1.336c-3.41-3.405-3.408-8.938.002-12.344 3.406-3.409 8.932-3.407 12.338 0 3.412 3.408 3.412 8.938 0 12.346-3.406 3.408-8.934 3.408-12.34-.002z" fill="#bec3cf"/><path d="m53.157 36.244h4.501v12.254h-4.501z" fill="#302c3b" transform="matrix(-.7073 .7069 -.7069 -.7073 124.5498 33.1744)"/><path d="m57.847 48.92c.521.521 4.633-3.584 4.107-4.111l-.32-.318c-.525-.525-4.635 3.582-4.109 4.105z" fill="#bec3cf"/><path d="m54.954 37.025c1.795-.781 2.447.791 2.471 1.396 1.646-.135 2.457 1.197 2.461 1.709 3.467 1.652-3.807 9.588-2.83 4.857-2.443 2.174-2.428-.502-1.674-2.229-2.367 3.924-3.205.949-1.469-2.361-3.301 5.337-3.473-7.903 1.041-3.372z" fill="#fcd5b2"/><path d="m52.79 23.462s.055.513.096.984c-5.496.955-12.893 1.51-21.886 1.51-7.643 0-16.617-.797-21.914-1.527.035-.408.094-.971.094-.971z" opacity=".2"/><path d="m59.999 20.542c0 2.146-12.988 4.415-29 4.415-16.018 0-29-2.27-29-4.415 0-2.146 12.982-3.887 29-3.887 16.012 0 29 1.74 29 3.887z" fill="#4e5e67"/><path d="m50.517 17.081c0 4.111-39.033 4.111-39.033 0 0-22.012 8.738-13.436 19.516-13.436 10.776 0 19.517-8.576 19.517 13.436z" fill="#4e5e67"/><g fill="#302c3b"><path d="m31 5.061c-5.41 0-14.777-3.377-11.617-.627 4.156 3.607 19.226 3.477 23.228 0 3.167-2.75-6.202.627-11.611.627z" opacity=".4"/><path d="m11.484 15.325v3.889c7.627 2.561 31.404 2.561 39.033 0v-3.889c-7.621 2.562-31.416 2.562-39.033 0z"/></g></svg>