<svg enable-background="new 0 0 64 64" height="64" viewBox="0 0 64 64" width="64" xmlns="http://www.w3.org/2000/svg"><path d="m32.524 16.336s-5.338-3.094-4.832.324c4.328 4.084 5.502 10.378 5.502 10.378s2.265-7.693-.67-10.702z" fill="#423225"/><path d="m20.373 58.553s-1.207 1.646 0 3.447h3.332v-1.252s.558 1.252 5.649 1.252c1.76 0 1.942-1.627.092-1.723-1.869-.098-1.596-1.334-3.344-3.449z" fill="#1a1626"/><path d="m40.373 58.553s-1.201 1.646 0 3.447h3.335v-1.252s.557 1.252 5.646 1.252c1.76 0 1.946-1.627.094-1.723-1.869-.098-1.594-1.334-3.342-3.449z" fill="#1a1626"/><path d="m44.081 46.727c-.555-2.758-5.424-6.039-8.202-11.478 0 0-4.303 0-11.247 0 0 0-3.059 1.46-1.394 8.05 1.018 3.999-1.107 10.748-4.442 15.665 0 0 4.908 1.784 10.001 0 0 0-1.526-3.434 1.085-10.069.842-2.144-1.109-4.271.863-9.004 0 0 .954 2.01 8.069 8.035 0 0-1.405 6.191.264 11.038 0 0 1.063.452 4.902.452 3.588 0 5.373-.452 5.373-.452s-3.437-3.034-5.272-12.237z" fill="#302c3b"/><path d="m32.524 16.336c.772 2.442.575 9.365.575 9.365s-1.206-8-5.614-9.66c0 0 2.338 11.596 0 20.484 0 0 5.365 1.045 8.325-1.077 3.162-13.164-3.286-19.112-3.286-19.112z" fill="#7ab51d"/><path d="m33.612 17.197c1.824-1.25 5.423.451 8.271-.564.829-.294 2.976-2.611 4.433-6.816l3.59 2.936s-2.102 4.47-4.748 7.9c-.391.501-2.619 1.045-7.311.587 0 0-1.75 9.019 2.9 14.867 0 0-2.1-.866-5.328-1.188 0 .001 2.437-7.375-1.807-17.722z" fill="#302c3b"/><path d="m36.849 36.941s-.529-.727-1.039-1.493v-.487s2.654.094 4.938 1.146c-.001 0 .442 1.392-3.899.834z" fill="#1a1626"/><path d="m27.782 17.576s-2.721-1.591-4.647-.146c-10.347 7.769-8.855 5.291-10.08 15.197l4.848.137c.436-7.44 1.113-7.563 7.065-9.8 0 0 3.443 6.308-4.023 13.144 0 0-.269 4.903 10.225 1.929-.003-.002 4.64-8.578-3.388-20.461z" fill="#302c3b"/><path d="m13 33.47s1.902.703 5.189.112c0 0-1.585-1.227-5.189-.112z" fill="#529320"/><path d="m13.055 31.271s.029 1.218-.055 2.198c0 0 1.771-.662 5.189.112 0 0-.164-1.091-.099-2.216 0 0-.372-.441-1.834-.574l-.663 1.929-.667-1.993c.002.001-1.088-.043-1.871.544z" fill="#7ab51d"/><path d="m50.521 12.037s-1.555-1.558-4.295-2.37c0 0 1.091 1.861 4.295 2.37z" fill="#529320"/><path d="m49.547 13.809s.493-1.003.974-1.771c0 0-2.035-.391-4.295-2.37 0 0-.338.958-.865 1.847 0 0 .205.567 1.259 1.248l1.321-1.312-.344 1.89c0-.001 1.105.637 1.95.468z" fill="#7ab51d"/><path d="m27.485 16.041-2.519.903 2.738 1.355-1.004 2.288s8.72 5.224 4.466 17.447c3.731-7.649.801-17.741-3.681-21.993z" fill="#6e8189"/><path d="m32.334 16.041 2.965.783-.976 1.313 2.454.521s1.473 8.102-1.359 16.262c1.743-8.717-1.087-15.881-3.084-18.879z" fill="#6e8189"/><path d="m21.325 36.285s6.882 1.563 9.843 1.75c-3.683.222-7.782-.833-8.161-.408-.096.313-.165.786-.165.786-.947-.363-1.451-.995-1.517-2.128z" fill="#1a1626"/><path d="m13.533 33.336c-.092 3.155.752 3.973 2.195 4.505 1.305.482-.271-2.971.721-3.184.234 1.635 1.283 1.85 1.199.819-.084-1.01-.082-1.6-.334-2.068-.69-.204-3.027-.336-3.781-.072z" fill="#614a36"/><path d="m48.69 5.973c.326-.556 1.301-.087.994.597-.143.316-.539 1.074-.847 1.712 1.573.514 3.31 1.336 1.154 3.608 0 0-2.054-.514-3.382-1.905.677-1.383 1.426-2.891 2.081-4.012z" fill="#614a36"/><g fill="#423225"><path d="m48.469 10.139c.288.407 1.079.998 1.708.891-.792.238-1.688-.407-1.854-.868z"/><path d="m49.122 9.731c.479-.16.248-.922-.237-.793-.903.233-1.733.479-1.733.479s.769-.412 1.766-.604c.566-.11.975.823.277 1.026-.938.274-1.365.939-1.365.939s.261-.705 1.292-1.047z"/><path d="m24.227 8.631c-2.021-.365-.442 5.291 1.141 3.73.734-.721-.197-3.559-1.141-3.73z"/><path d="m36.321 8.631c-.945.171-1.872 3.009-1.137 3.73 1.585 1.561 3.163-4.095 1.137-3.73z"/></g><path d="m30.274 2c-4.181 0-6.196 3.163-5.942 7.564.05.885.597 3.771 1.114 4.807.533 1.06 2.305 2.693 3.393 3.03.686.214 2.188.214 2.874 0 1.086-.337 2.859-1.971 3.39-3.03.52-1.036 1.065-3.922 1.119-4.807.252-4.401-1.764-7.564-5.948-7.564z" fill="#614a36"/><path d="m30.274 13.977c-.94-.276-2.334.132-2.334.132.531.577.92 1.327 2.334 1.327 1.621 0 1.896-.851 2.332-1.327 0-.001-1.393-.411-2.332-.132z" fill="#36281d"/><path d="m28.295 14.206c.988.827 2.979.831 3.971 0-1.053.044-2.912.045-3.971 0z" fill="#fff"/><path d="m31.571 12.421c0 .845-2.592.845-2.592 0 0-.192 2.592-.192 2.592 0z" fill="#423225"/><path d="m30.274 2c-2.875 0-4.614.951-5.363.587 0 0-.082.489.213.81 0 0-.311.267-.813-.185-.478 1.548.939 2.444 5.963 2.444 5.025 0 3.825-1.224 6.295.925-.242-2.648-1.923-4.581-6.295-4.581z" fill="#38332d"/><path d="m32.401 4.311c-2.767 1.021-3.775-.822-6.387-1.001 1.243.586 1.85 1.489 2.866 2.141-2.219-.742-3.847-2.021-3.971-2.859 0 0-.369 1.225 1.095 2.141-1.4.129-1.693-1.516-1.693-1.516-.707 1.14-.609 4.813.178 7.538.131-.973-.168-1.374.281-2.547 1.346-3.503.48-2.032 5.506-2.032 5.023 0 4.118-1.342 5.502 2.032.416 1.006.15 1.574.283 2.547 1.653-6.148-.722-7.528-3.66-6.444z" fill="#26221e"/><path d="m34.753 9.904c-.561 1.462-2.833 1.248-3.249.225.315-1.645 2.94-1.786 3.249-.225z" fill="#fff"/><path d="m25.799 9.904c.557 1.462 2.831 1.248 3.247.225-.317-1.646-2.942-1.787-3.247-.225z" fill="#fff"/><path d="m34.983 8.143c-.957-.474-2.788-.498-3.469-.165-.146.063-.05.513.074.471.95-.353 2.481-.361 3.372.03.121.049.171-.27.023-.336z" fill="#36281d"/><path d="m25.565 8.143c.957-.474 2.787-.498 3.469-.165.146.063.05.513-.074.471-.95-.353-2.48-.361-3.373.03-.118.049-.166-.27-.022-.336z" fill="#36281d"/><path d="m32.084 9.748c0 1.284 1.856 1.284 1.856 0 0-1.191-1.856-1.191-1.856 0z" fill="#613f34"/><path d="m32.27 10.159c0 .735 1.489.735 1.489 0 0-.683-1.489-.683-1.489 0z" fill="#7d5037"/><path d="m32.626 9.769c0 .531.771.531.771 0 0-.496-.771-.496-.771 0z" fill="#1a1626"/><path d="m32.364 9.612c0 .269.389.269.389 0-.001-.25-.389-.25-.389 0z" fill="#ab968c"/><path d="m26.608 9.748c0 1.284 1.858 1.284 1.858 0 .001-1.191-1.858-1.191-1.858 0z" fill="#613f34"/><path d="m26.793 10.158c0 .736 1.489.736 1.489 0 .001-.682-1.489-.682-1.489 0z" fill="#7d5037"/><path d="m27.151 9.769c0 .531.772.531.772 0 .001-.496-.772-.496-.772 0z" fill="#1a1626"/><path d="m26.891 9.612c0 .269.389.269.389 0 0-.25-.389-.25-.389 0z" fill="#ab968c"/><path d="m34.753 9.892c0-1.569-3.249-1.569-3.249.25.465-1.493 2.784-1.493 3.249-.25z" fill="#423225"/><path d="m25.799 9.892c0-1.569 3.247-1.569 3.247.25-.463-1.494-2.784-1.494-3.247-.25z" fill="#423225"/></svg>