<svg enable-background="new 0 0 64 64" height="64" viewBox="0 0 64 64" width="64" xmlns="http://www.w3.org/2000/svg" xmlns:xlink="http://www.w3.org/1999/xlink"><linearGradient id="a" gradientUnits="userSpaceOnUse" x1="40.5381" x2="40.5381" y1="38.0547" y2="18.9448"><stop offset="0" stop-color="#fff" stop-opacity="0"/><stop offset="1" stop-color="#fff"/></linearGradient><path d="m52.201 52.658c-2.697-1.375-13.906-5.018-13.906-5.018h-16.689s-11.197 3.633-13.885 5.016c-3.9 2.004-4.721 9.344-4.721 9.344h53.99s-.873-7.346-4.789-9.342z" fill="#302c3b"/><path d="m21.155 43.734h17.689v9.078h-17.689z" fill="#946346"/><path d="m30.008 50.777-9.42-3.992 2.756 15.215h13.328l2.756-15.215z" fill="#fff"/><path d="m30.008 50.777-8.338 3.381 1.674 7.842h13.328l1.676-7.842z" fill="#e6ebef"/><path d="m34.715 62-2.5-7.521 1.168-2.334-3.375-1.368-3.375 1.368 1.17 2.334-2.502 7.521z" fill="#302c3b"/><path d="m18.059 62s-3.557-3.262-6.809-9.578l8.223-2.109-9.215-5.58s5.754-4.187 11.412-5.444v11.024s.898 4.924 5.381 11.688h-8.992z" fill="#4e5e67"/><path d="m41.959 62s3.555-3.262 6.811-9.578l-8.227-2.109 9.215-5.58s-5.752-4.187-11.41-5.444v11.024s-.896 4.924-5.38 11.688h8.991z" fill="#4e5e67"/><path d="m13.676 24.33c-5.457-.984-1.195 14.28 3.076 10.069 1.981-1.952-.525-9.607-3.076-10.069z" fill="#946346"/><path d="m46.314 24.33c-2.553.463-5.057 8.118-3.076 10.069 4.274 4.21 8.532-11.054 3.076-10.069z" fill="#946346"/><path d="m29.995 6.434c-11.283 0-16.721 8.539-16.039 20.411.137 2.391 1.615 10.182 3.014 12.976 1.43 2.86 6.215 7.269 9.146 8.183 1.852.574 5.906.574 7.757 0 2.932-.914 7.717-5.322 9.146-8.183 1.4-2.794 2.879-10.585 3.014-12.976.684-11.872-4.754-20.411-16.038-20.411z" fill="#b88a6f"/><path d="m29.995 38.758c-2.539-.748-6.299.354-6.299.354 1.432 1.56 2.482 3.584 6.299 3.584 4.373 0 5.115-2.298 6.298-3.584 0-.001-3.763-1.104-6.298-.354z" fill="#80553c"/><path d="m24.657 39.374c2.66 2.234 8.035 2.248 10.708 0-2.835.121-7.853.123-10.708 0z" fill="#fff"/><path d="m33.494 34.561c0 2.277-6.998 2.277-6.998 0 .001-.524 6.998-.524 6.998 0z" fill="#946346"/><path d="m44.139 27.812c-1.979 5.184-10.029 4.424-11.503.797 1.118-5.824 10.415-6.324 11.503-.797z" fill="#fff"/><path d="m17.913 27.765c1.506 3.948 7.643 3.37 8.766.606-.854-4.44-7.936-4.819-8.766-.606z" fill="#fff"/><path d="m34.688 27.261c0 4.547 6.576 4.547 6.576 0 0-4.22-6.576-4.22-6.576 0z" fill="#613f34"/><path d="m35.34 28.717c0 2.607 5.275 2.607 5.275 0 0-2.421-5.275-2.421-5.275 0z" fill="#7d5037"/><path d="m36.611 27.332c0 1.889 2.73 1.889 2.73 0 .001-1.75-2.73-1.75-2.73 0z" fill="#1a1626"/><path d="m35.68 26.783c0 .953 1.379.953 1.379 0 0-.885-1.379-.885-1.379 0z" fill="#ab968c"/><path d="m20.104 27.343c0 3.465 5.01 3.465 5.01 0 0-3.215-5.01-3.215-5.01 0z" fill="#613f34"/><path d="m20.6 28.451c0 1.988 4.018 1.988 4.018 0 0-1.844-4.018-1.844-4.018 0z" fill="#7d5037"/><path d="m21.569 27.398c0 1.438 2.08 1.438 2.08 0 0-1.334-2.08-1.334-2.08 0z" fill="#1a1626"/><path d="m20.86 26.978c0 .727 1.049.727 1.049 0 0-.674-1.049-.674-1.049 0z" fill="#ab968c"/><path d="m44.139 27.775c0-5.564-11.503-5.564-11.503.881 1.641-5.287 9.86-5.287 11.503-.881z" fill="#946346"/><path d="m17.913 27.736c0-4.24 8.766-4.24 8.766.67-1.251-4.031-7.514-4.031-8.766-.67z" fill="#946346"/><path d="m15.071 23.406h-2.031c.295 2.279.744 4.568 1.346 6.655.343-2.56-.401-3.671.685-6.655z" fill="#6b4435"/><path d="m44.924 23.406c.986 2.572.338 4.104.686 6.655.674-2.51 1.09-4.713 1.299-6.655z" fill="#6b4435"/><path d="m59.072 49.967c1.565 4.314 1.53 12.033 1.53 12.033h-9.236s-1.176-10.43.479-11.223c3.343-1.601 6.993-1.455 7.227-.81z" fill="#302c3b"/><path d="m46.09 39.843c-.871-1.278 2.57-2.222 3.139.023.23.908 9.633.668 10.383 2.01 1.352 2.411-1.748 7.167-1.295 8.146s-6.322 2.516-6.189 1.285c.434-4.033-1.586-2.508-2.451-5.9-.652-2.552-2.419-3.853-3.587-5.564z" fill="#946346"/><path d="m43.012 19.272c5.094 1.367 8.115 6.603 6.752 11.699-1.365 5.096-6.604 8.123-11.695 6.756-5.097-1.365-8.121-6.604-6.753-11.702 1.362-5.095 6.602-8.118 11.696-6.753z" fill="url(#a)" opacity=".65"/><path d="m47.343 35.186h3.37v3.609h-3.37z" fill="#bec3cf" transform="matrix(-.7075 .7067 -.7067 -.7075 109.8582 28.5162)"/><path d="m48.045 36.006c4.146-4.146 4.145-10.866.002-15.015-4.148-4.145-10.869-4.146-15.016 0-4.144 4.146-4.144 10.873 0 15.017 4.147 4.145 10.869 4.145 15.014-.002zm-13.678-1.336c-3.41-3.404-3.408-8.938.002-12.344 3.408-3.409 8.932-3.407 12.34 0 3.41 3.408 3.41 8.938 0 12.346-3.408 3.408-8.934 3.408-12.342-.002z" fill="#bec3cf"/><path d="m52.157 36.244h4.5v12.254h-4.5z" fill="#302c3b" transform="matrix(-.7071 .7071 -.7071 -.7071 122.8398 33.8603)"/><path d="m56.848 48.92c.521.521 4.631-3.584 4.105-4.111l-.32-.318c-.525-.525-4.633 3.582-4.107 4.105z" fill="#bec3cf"/><path d="m53.955 37.025c1.793-.781 2.447.791 2.471 1.396 1.646-.135 2.455 1.196 2.461 1.708 3.465 1.652-3.807 9.589-2.83 4.858-2.443 2.174-2.428-.502-1.674-2.229-2.367 3.924-3.207.949-1.469-2.362-3.303 5.338-3.475-7.902 1.041-3.371z" fill="#b88a6f"/><path d="m49.861 23.417s.229.443.443.916c-4.945.955-12.205 1.623-20.298 1.623-6.877 0-11.984-.293-16.75-1.023-.07-.381-.156-1.041-.156-1.041z" opacity=".2"/><path d="m57.002 20.542c0 2.146-12.088 4.415-26.996 4.415s-26.994-2.27-26.994-4.415c0-2.146 12.086-3.887 26.994-3.887s26.996 1.74 26.996 3.887z" fill="#4e5e67"/><path d="m47.486 17.081c0 4.111-34.958 4.111-34.958 0 0-22.012 7.826-13.436 17.479-13.436 9.651 0 17.479-8.576 17.479 13.436z" fill="#4e5e67"/><g fill="#302c3b"><path d="m30.006 5.061c-4.844 0-13.234-3.377-10.4-.627 3.719 3.607 17.216 3.477 20.8 0 2.836-2.75-5.554.627-10.4.627z" opacity=".4"/><path d="m12.528 15.325v3.889c6.83 2.561 28.126 2.561 34.958 0v-3.889c-6.824 2.562-28.136 2.562-34.958 0z"/></g></svg>