<svg enable-background="new 0 0 64 64" height="64" viewBox="0 0 64 64" width="64" xmlns="http://www.w3.org/2000/svg" xmlns:xlink="http://www.w3.org/1999/xlink"><linearGradient id="a"><stop offset="0" stop-color="#4e5e67"/><stop offset=".2345" stop-color="#50606a"/><stop offset=".381" stop-color="#576872"/><stop offset=".5033" stop-color="#647681"/><stop offset=".6124" stop-color="#758a95"/><stop offset=".7126" stop-color="#8ca3b0"/><stop offset=".8063" stop-color="#a7c2d1"/><stop offset=".8934" stop-color="#c7e6f7"/><stop offset=".9091" stop-color="#ceedff"/></linearGradient><linearGradient id="b" gradientUnits="userSpaceOnUse" x1="46.793" x2="46.793" xlink:href="#a" y1="39.4355" y2="24.4087"/><linearGradient id="c" gradientUnits="userSpaceOnUse" x1="17.394" x2="17.394" xlink:href="#a" y1="39.4385" y2="24.4121"/><path d="m36.123 24.626c-2.357 1.182-5.893 1.182-8.249 0-2.517-1.3-5.592-2.131-9.274-2.455-3.593-.317-11.215-.307-15.025 1.043-.438.153-.867.353-1.285.566-.234.119-.28.208-.28.648v.569c0 1.068-.134.653.628 1.099 1.48.871 2.319 3.134 2.771 6.247.642 4.539 2.854 7.382 6.452 8.741 3.338 1.259 7.07 1.216 10.385-.113 1.811-.728 3.4-1.879 4.663-3.745 2.219-3.273 1.553-5.315 2.695-8.127.996-2.454 3.796-2.454 4.795 0 1.144 2.813.479 4.854 2.695 8.127 1.259 1.866 2.853 3.018 4.663 3.745 3.312 1.329 7.045 1.372 10.383.113 3.598-1.358 5.813-4.202 6.454-8.741.449-3.113 1.29-5.376 2.771-6.247.76-.445.627-.03.627-1.099v-.569c0-.44-.048-.529-.28-.648-.418-.214-.849-.413-1.284-.566-3.812-1.35-11.434-1.361-15.026-1.043-3.687.325-6.763 1.156-9.279 2.455" fill="#302c3b"/><path d="m37.697 26.619c-1.434 1.251-.132 10.294 4.221 11.969 2.715 1.043 8.053 1.676 11.742-1.521 3.021-2.615 3.672-10.536 1.525-11.767-2.359-1.354-14.423-1.354-17.488 1.319z" fill="url(#b)" opacity=".3"/><path d="m26.489 26.622c1.434 1.25.132 10.296-4.219 11.968-2.716 1.045-8.052 1.677-11.743-1.519-3.021-2.615-3.673-10.536-1.526-11.768 2.36-1.353 14.423-1.353 17.488 1.319z" fill="url(#c)" opacity=".3"/></svg>