<svg enable-background="new 0 0 64 64" height="64" viewBox="0 0 64 64" width="64" xmlns="http://www.w3.org/2000/svg"><path d="m32.524 16.336s-5.338-3.094-4.833.324c4.328 4.084 5.502 10.378 5.502 10.378s2.265-7.693-.669-10.702z" fill="#e6b045"/><path d="m20.372 58.553s-1.206 1.645 0 3.447h3.332v-1.252s.558 1.252 5.649 1.252c1.76 0 1.943-1.627.093-1.723-1.87-.097-1.596-1.334-3.345-3.449z" fill="#1a1626"/><path d="m40.372 58.553s-1.201 1.645 0 3.447h3.335v-1.252s.556 1.252 5.647 1.252c1.76 0 1.946-1.627.093-1.723-1.869-.097-1.593-1.334-3.342-3.449z" fill="#1a1626"/><path d="m44.08 46.727c-.554-2.758-5.424-6.04-8.202-11.478 0 0-4.303 0-11.246 0 0 0-3.059 1.46-1.393 8.05 1.017 3.999-1.108 10.748-4.442 15.665 0 0 4.907 1.784 10.001 0 0 0-1.527-3.434 1.085-10.07.842-2.143-1.11-4.271.863-9.004 0 0 .954 2.01 8.068 8.036 0 0-1.405 6.191.264 11.038 0 0 1.063.452 4.902.452 3.589 0 5.374-.452 5.374-.452s-3.439-3.035-5.274-12.237z" fill="#302c3b"/><path d="m32.524 16.336c.771 2.442.574 9.365.574 9.365s-1.206-8-5.614-9.66c0 0 2.338 11.596 0 20.485 0 0 5.366 1.045 8.324-1.078 3.162-13.164-3.284-19.112-3.284-19.112z" fill="#7ab51d"/><path d="m33.612 17.197c1.824-1.25 5.422.451 8.27-.564.829-.294 2.976-2.611 4.432-6.816l3.591 2.936s-2.102 4.47-4.749 7.9c-.39.501-2.619 1.045-7.31.587 0 0-1.75 9.019 2.9 14.868 0 0-2.1-.867-5.328-1.188 0 0 2.438-7.376-1.806-17.723z" fill="#302c3b"/><path d="m36.847 36.941s-.528-.726-1.038-1.493v-.487s2.654.094 4.938 1.146c-.001 0 .442 1.392-3.9.834z" fill="#1a1626"/><path d="m27.781 17.576s-2.72-1.591-4.647-.146c-10.347 7.769-8.854 5.291-10.08 15.197l4.848.137c.436-7.441 1.114-7.563 7.065-9.8 0 0 3.443 6.308-4.023 13.144 0 0-.269 4.903 10.224 1.928-.001-.001 4.641-8.577-3.387-20.46z" fill="#302c3b"/><path d="m13 33.47s1.903.703 5.189.112c0 0-1.585-1.227-5.189-.112z" fill="#529320"/><path d="m13.054 31.271s.03 1.218-.054 2.198c0 0 1.771-.662 5.189.112 0 0-.163-1.091-.098-2.216 0 0-.372-.441-1.834-.574l-.663 1.929-.667-1.993c.001.001-1.089-.043-1.873.544z" fill="#7ab51d"/><path d="m50.52 12.037s-1.555-1.558-4.296-2.37c0 0 1.093 1.861 4.296 2.37z" fill="#529320"/><path d="m49.546 13.809s.493-1.003.974-1.771c0 0-2.035-.391-4.296-2.37 0 0-.338.958-.864 1.847 0 0 .205.567 1.258 1.248l1.321-1.312-.344 1.89c0-.001 1.106.637 1.951.468z" fill="#7ab51d"/><path d="m27.484 16.041-2.518.903 2.738 1.355-1.004 2.288s8.72 5.224 4.466 17.447c3.73-7.649.801-17.741-3.682-21.993z" fill="#6e8189"/><path d="m32.334 16.041 2.965.783-.976 1.313 2.454.521s1.473 8.102-1.359 16.262c1.742-8.717-1.088-15.881-3.084-18.879z" fill="#6e8189"/><path d="m21.324 36.285s6.882 1.563 9.843 1.75c-3.682.222-7.782-.833-8.161-.408-.096.313-.165.786-.165.786-.946-.363-1.45-.995-1.517-2.128z" fill="#1a1626"/><path d="m13.533 33.336c-.092 3.155.752 3.973 2.195 4.505 1.305.482-.27-2.971.721-3.184.234 1.635 1.284 1.85 1.199.82-.084-1.01-.082-1.6-.333-2.069-.691-.204-3.028-.336-3.782-.072z" fill="#fc6"/><path d="m48.689 5.973c.326-.556 1.301-.087.995.597-.143.316-.54 1.074-.847 1.712 1.573.514 3.309 1.336 1.154 3.608 0 0-2.053-.514-3.381-1.905.675-1.383 1.424-2.891 2.079-4.012z" fill="#fc6"/><g fill="#e6b045"><path d="m48.468 10.139c.288.407 1.079.998 1.708.891-.792.238-1.688-.407-1.854-.868z"/><path d="m49.121 9.731c.478-.16.248-.922-.237-.793-.903.233-1.734.479-1.734.479s.769-.412 1.766-.604c.566-.11.974.823.277 1.026-.937.274-1.365.939-1.365.939s.262-.705 1.293-1.047z"/><path d="m24.227 8.631c-2.021-.365-.443 5.291 1.14 3.73.734-.721-.196-3.559-1.14-3.73z"/><path d="m36.321 8.631c-.946.171-1.873 3.009-1.138 3.73 1.584 1.561 3.162-4.095 1.138-3.73z"/></g><path d="m30.273 2c-4.18 0-6.196 3.163-5.942 7.564.05.885.597 3.771 1.115 4.807.532 1.06 2.304 2.693 3.392 3.03.686.214 2.188.214 2.874 0 1.086-.337 2.859-1.971 3.39-3.03.519-1.036 1.065-3.922 1.118-4.807.252-4.401-1.763-7.564-5.947-7.564z" fill="#fc6"/><path d="m30.273 13.977c-.94-.276-2.334.132-2.334.132.531.577.92 1.327 2.334 1.327 1.621 0 1.896-.851 2.333-1.327 0-.001-1.393-.411-2.333-.132z" fill="#e6a400"/><path d="m28.295 14.206c.988.827 2.979.831 3.971 0-1.053.044-2.912.045-3.971 0z" fill="#fff"/><path d="m31.571 12.421c0 .845-2.593.845-2.593 0 .001-.192 2.593-.192 2.593 0z" fill="#e6b045"/><path d="m30.273 2c-2.875 0-4.614.951-5.363.587 0 0-.082.489.213.81 0 0-.311.267-.812-.185-.478 1.548.939 2.444 5.962 2.444 5.025 0 3.825-1.224 6.296.925-.243-2.648-1.925-4.581-6.296-4.581z" fill="#594640"/><path d="m32.4 4.311c-2.766 1.021-3.775-.822-6.387-1.001 1.244.586 1.85 1.489 2.867 2.141-2.219-.742-3.847-2.021-3.971-2.859 0 0-.369 1.225 1.095 2.141-1.4.129-1.693-1.516-1.693-1.516-.708 1.14-.61 4.813.178 7.538.13-.973-.169-1.374.28-2.547 1.346-3.503.481-2.032 5.506-2.032 5.023 0 4.118-1.342 5.503 2.032.415 1.006.15 1.574.282 2.547 1.653-6.148-.722-7.528-3.66-6.444z" fill="#453631"/><path d="m34.752 9.904c-.561 1.462-2.833 1.248-3.248.225.314-1.645 2.939-1.786 3.248-.225z" fill="#fff"/><path d="m25.799 9.904c.556 1.462 2.831 1.248 3.247.225-.317-1.646-2.943-1.787-3.247-.225z" fill="#fff"/><path d="m34.982 8.143c-.956-.474-2.786-.498-3.468-.165-.146.063-.05.513.074.471.95-.353 2.481-.361 3.371.03.121.049.171-.27.023-.336z" fill="#c1873c"/><path d="m25.564 8.143c.957-.474 2.787-.498 3.469-.165.146.063.05.513-.074.471-.95-.353-2.481-.361-3.373.03-.117.049-.165-.27-.022-.336z" fill="#c1873c"/><path d="m32.084 9.748c0 1.284 1.855 1.284 1.855 0 0-1.191-1.855-1.191-1.855 0z" fill="#613f34"/><path d="m32.269 10.159c0 .735 1.489.735 1.489 0 0-.683-1.489-.683-1.489 0z" fill="#7d5037"/><path d="m32.626 9.769c0 .531.771.531.771 0 0-.496-.771-.496-.771 0z" fill="#1a1626"/><path d="m32.363 9.612c0 .269.389.269.389 0 0-.25-.389-.25-.389 0z" fill="#ab968c"/><path d="m26.608 9.748c0 1.284 1.858 1.284 1.858 0 .001-1.191-1.858-1.191-1.858 0z" fill="#613f34"/><path d="m26.793 10.158c0 .736 1.489.736 1.489 0 0-.682-1.489-.682-1.489 0z" fill="#7d5037"/><path d="m27.151 9.769c0 .531.772.531.772 0 .001-.496-.772-.496-.772 0z" fill="#1a1626"/><path d="m26.891 9.612c0 .269.389.269.389 0-.001-.25-.389-.25-.389 0z" fill="#ab968c"/><path d="m34.752 9.892c0-1.569-3.248-1.569-3.248.25.465-1.493 2.783-1.493 3.248-.25z" fill="#e6b045"/><path d="m25.799 9.892c0-1.569 3.247-1.569 3.247.25-.464-1.494-2.785-1.494-3.247-.25z" fill="#e6b045"/></svg>