<svg enable-background="new 0 0 64 64" height="64" viewBox="0 0 64 64" width="64" xmlns="http://www.w3.org/2000/svg" xmlns:xlink="http://www.w3.org/1999/xlink"><radialGradient id="a" cx="24.3774" cy="59.7549" gradientTransform="matrix(1.027 0 0 .2172 6.9635 46.7737)" gradientUnits="userSpaceOnUse" r="9.5976"><stop offset=".1091" stop-color="#81878a"/><stop offset=".2795" stop-color="#898f92" stop-opacity=".8087"/><stop offset=".5503" stop-color="#9ea6a9" stop-opacity=".5048"/><stop offset=".8857" stop-color="#c1cacf" stop-opacity=".1283"/><stop offset="1" stop-color="#cfd8dd" stop-opacity="0"/></radialGradient><linearGradient id="b"><stop offset="0" stop-color="#4e5e67"/><stop offset=".2345" stop-color="#50606a"/><stop offset=".381" stop-color="#576872"/><stop offset=".5033" stop-color="#647681"/><stop offset=".6124" stop-color="#758a95"/><stop offset=".7126" stop-color="#8ca3b0"/><stop offset=".8063" stop-color="#a7c2d1"/><stop offset=".8934" stop-color="#c7e6f7"/><stop offset=".9091" stop-color="#ceedff"/></linearGradient><linearGradient id="c" gradientUnits="userSpaceOnUse" x1="34.8105" x2="34.8105" xlink:href="#b" y1="12.3516" y2="9.4536"/><linearGradient id="d" gradientUnits="userSpaceOnUse" x1="29.2231" x2="29.2231" xlink:href="#b" y1="12.3521" y2="9.4541"/><path d="m31.999 62c-13.332 0-13.332-4.49 0-4.49 13.334 0 13.334 4.49 0 4.49z" fill="url(#a)"/><path d="m32.437 48.992h-3.814v2.85c.01 3.588 3.826 3.586 3.814 0z" fill="#302c3b"/><path d="m32.06 48.992h-3.063v2.094c.006 1.694 3.066 1.693 3.063 0z" fill="#fff"/><path d="m35.603 49.585h-3.816v2.852c.012 3.589 3.826 3.587 3.816 0z" fill="#302c3b"/><path d="m35.226 49.585h-3.061v2.096c.002 1.695 3.064 1.693 3.061 0z" fill="#fff"/><path d="m37.786 35.399c1.451-1.436.322 2.744 1.67 1.411 1.254-1.241.189-3.356.189-3.356l-2.137-.378c.001 0-.921 3.511.278 2.323z" fill="#fcd5b2"/><path d="m26.208 35.399c-1.451-1.438-.322 2.743-1.668 1.41-1.256-1.241-.189-3.355-.189-3.355l2.137-.379c-.001 0 .919 3.511-.28 2.324z" fill="#fcd5b2"/><path d="m39.114 19.149c-.859-.562-4.828-2.034-4.828-2.034h-4.549s-3.973 1.477-4.834 2.035c-1.252.811-.977 14.699-.977 14.699l2.512.183c.898 7.906 1.773 16.736 1.773 16.736l7.572.001s.873-8.831 1.773-16.737l2.51-.183c.001 0 .292-13.887-.952-14.7z" fill="#302c3b"/><g fill="#1a1626"><path d="m32.521 37.57-.524 13.199-.521-13.199z"/><path d="m37.907 24.566-.349 8.96-.35-8.96z"/><path d="m26.786 24.666-.348 8.96-.349-8.96z"/><path d="m26.438 32.512h11.119v1.114h-11.119z"/></g><path d="m29.411 16.68h5.174v2.698h-5.174z" fill="#cc9d76"/><path d="m34.104 23.98c.629-1.508.643-7.113.643-7.113-.92 1.658-2.648 2.414-2.75 2.457-.102-.043-1.828-.799-2.75-2.457 0 0 .016 5.605.645 7.113l2.113 4.147z" fill="#e6ebef"/><path d="m33.415 25.64-.752-4.271.352-.731-1.018-1.214-1.018 1.214.354.731-.754 4.271 1.416 2.487z" fill="#302c3b"/><path d="m31.997 19.324c-.102-.043-1.828-.799-2.75-2.457 0 0 .006 1.412.117 2.924.342.563.91 1.439 1.131 1.439.324 0 1.502-1.732 1.502-1.732s1.168 1.732 1.523 1.732c.254 0 .789-.844 1.109-1.418.113-1.521.117-2.945.117-2.945-.919 1.658-2.647 2.414-2.749 2.457" fill="#fff"/><path d="m27.331 20.382 1.643-.564-1.84-1.489s1.148-1.12 2.277-1.456v2.945s1.689 6.501 2.584 8.31c0-.001-4.014-6.057-4.664-7.746z" fill="#4e5e67"/><path d="m36.663 20.382-1.641-.564 1.838-1.489s-1.148-1.12-2.275-1.456v2.945s-1.695 6.501-2.59 8.31c0-.001 4.018-6.057 4.668-7.746z" fill="#4e5e67"/><path d="m26.356 9.274c-1.889-.378-.414 5.494 1.063 3.874.685-.75-.182-3.696-1.063-3.874z" fill="#dba97f"/><path d="m37.644 9.274c-.883.178-1.748 3.124-1.063 3.874 1.477 1.62 2.949-4.252 1.063-3.874z" fill="#dba97f"/><path d="m32.001 2.995c-3.904 0-5.785 2.996-5.549 7.16.047.84.559 3.573 1.043 4.552.494 1.003 2.148 2.551 3.164 2.87.641.203 2.041.203 2.682 0 1.014-.319 2.67-1.867 3.164-2.87.484-.979.996-3.712 1.041-4.552.238-4.164-1.645-7.16-5.545-7.16z" fill="#fcd5b2"/><path d="m32.001 14.333c-.879-.261-2.18.126-2.18.126.496.547.857 1.257 2.18 1.257 1.512 0 1.768-.807 2.178-1.257 0-.001-1.303-.387-2.178-.126z" fill="#cc9d76"/><path d="m30.153 14.551c.92.783 2.779.788 3.703 0-.98.042-2.714.043-3.703 0z" fill="#fff"/><path d="m33.21 12.86c0 .801-2.422.801-2.422 0 0-.183 2.422-.183 2.422 0z" fill="#cc9d76"/><path d="m32.782 9.496c-.447.229-1.119.229-1.566 0-.48-.249-1.064-.41-1.764-.474-.682-.062-2.131-.059-2.854.201-.086.03-.166.069-.246.109-.044.023-.052.042-.052.126v.107c0 .209-.025.127.119.213.281.169.439.605.527 1.206.121.874.541 1.423 1.227 1.686.633.241 1.342.233 1.973-.023.344-.14.646-.362.887-.722.42-.631.295-1.025.512-1.567.189-.473.721-.473.91 0 .217.542.094.937.514 1.567.238.359.541.582.887.722.627.257 1.336.265 1.973.023.684-.263 1.104-.812 1.225-1.686.086-.601.246-1.037.529-1.206.143-.086.117-.004.117-.213v-.107c0-.085-.008-.104-.051-.126-.08-.04-.162-.079-.246-.109-.725-.26-2.172-.263-2.855-.201-.701.063-1.287.225-1.766.474" fill="#302c3b"/><path d="m33.081 9.879c-.271.242-.023 1.985.803 2.309.516.201 1.531.323 2.232-.293.574-.505.697-2.031.289-2.27-.447-.26-2.742-.26-3.324.254z" fill="url(#c)" opacity=".3"/><path d="m30.952 9.881c.271.24.023 1.984-.803 2.307-.516.202-1.529.324-2.23-.293-.574-.503-.699-2.031-.291-2.269.449-.261 2.742-.261 3.324.255z" fill="url(#d)" opacity=".3"/><path d="m40.841 7.054c0 1.828-3.957 2.783-8.84 2.783-4.885 0-8.842-.955-8.842-2.783 0-.87 3.957.414 8.842.414 4.881 0 8.84-1.284 8.84-.414z" fill="#4e5e67"/><path d="m37.315 6.823c0 1.313-10.631 1.313-10.631 0 0-7.038 2.379-4.297 5.316-4.297 2.935 0 5.315-2.741 5.315 4.297z" fill="#4e5e67"/><path d="m32.001 2.978c-1.475 0-4.027-1.078-3.166-.2 1.133 1.154 5.238 1.11 6.328 0 .861-.878-1.689.2-3.162.2z" fill="#302c3b" opacity=".4"/><path d="m26.685 6.26v1.244c2.076.818 8.553.818 10.631 0v-1.244c-2.075.821-8.557.821-10.631 0z" fill="#302c3b"/></svg>