<svg enable-background="new 0 0 64 64" height="64" viewBox="0 0 64 64" width="64" xmlns="http://www.w3.org/2000/svg" xmlns:xlink="http://www.w3.org/1999/xlink"><linearGradient id="a" gradientUnits="userSpaceOnUse" x1="40.5381" x2="40.5381" y1="38.0547" y2="18.9448"><stop offset="0" stop-color="#fff" stop-opacity="0"/><stop offset="1" stop-color="#fff"/></linearGradient><path d="m52.199 52.658c-2.697-1.375-13.904-5.018-13.904-5.018h-16.691s-11.195 3.633-13.883 5.016c-3.9 2.004-4.721 9.344-4.721 9.344h53.988s-.873-7.346-4.789-9.342z" fill="#302c3b"/><path d="m21.155 43.734h17.689v9.078h-17.689z" fill="#d6a67a"/><path d="m30.006 50.777-9.42-3.992 2.758 15.215h13.328l2.756-15.215z" fill="#fff"/><path d="m30.006 50.777-8.336 3.381 1.674 7.842h13.328l1.674-7.842z" fill="#e6ebef"/><path d="m34.713 62-2.498-7.521 1.166-2.334-3.375-1.368-3.373 1.368 1.168 2.334-2.502 7.521z" fill="#302c3b"/><path d="m18.059 62s-3.557-3.262-6.811-9.578l8.225-2.109-9.215-5.58s5.752-4.187 11.412-5.444v11.024s.896 4.924 5.381 11.688h-8.992z" fill="#4e5e67"/><path d="m41.959 62s3.553-3.262 6.811-9.578l-8.227-2.109 9.215-5.58s-5.754-4.187-11.412-5.444v11.024s-.896 4.924-5.378 11.688h8.991z" fill="#4e5e67"/><path d="m13.674 24.33c-5.457-.984-1.195 14.28 3.076 10.069 1.981-1.952-.523-9.607-3.076-10.069z" fill="#d6a67a"/><path d="m46.314 24.33c-2.553.463-5.059 8.118-3.078 10.069 4.274 4.21 8.532-11.054 3.078-10.069z" fill="#d6a67a"/><path d="m29.993 6.434c-11.283 0-16.721 8.539-16.039 20.411.137 2.391 1.615 10.182 3.014 12.976 1.432 2.86 6.215 7.269 9.146 8.183 1.854.574 5.906.574 7.757 0 2.932-.914 7.717-5.322 9.148-8.183 1.398-2.794 2.877-10.585 3.014-12.976.682-11.872-4.754-20.411-16.04-20.411z" fill="#e3c19b"/><path d="m29.993 38.758c-2.537-.748-6.297.354-6.297.354 1.432 1.56 2.48 3.584 6.297 3.584 4.375 0 5.117-2.298 6.298-3.584 0-.001-3.761-1.104-6.298-.354z" fill="#bf8c6b"/><path d="m24.655 39.374c2.66 2.234 8.035 2.248 10.708 0-2.833.121-7.851.123-10.708 0z" fill="#fff"/><path d="m33.492 34.561c0 2.277-6.998 2.277-6.998 0 .001-.524 6.998-.524 6.998 0z" fill="#d6a67a"/><path d="m44.139 27.812c-1.98 5.184-10.029 4.424-11.505.797 1.118-5.824 10.417-6.324 11.505-.797z" fill="#fff"/><path d="m17.911 27.765c1.508 3.948 7.645 3.37 8.768.606-.854-4.44-7.936-4.819-8.768-.606z" fill="#fff"/><path d="m34.688 27.261c0 4.547 6.576 4.547 6.576 0 0-4.22-6.576-4.22-6.576 0z" fill="#613f34"/><path d="m35.338 28.717c0 2.607 5.275 2.607 5.275 0 0-2.421-5.275-2.421-5.275 0z" fill="#7d5037"/><path d="m36.611 27.332c0 1.889 2.729 1.889 2.729 0 0-1.75-2.729-1.75-2.729 0z" fill="#1a1626"/><path d="m35.68 26.783c0 .953 1.379.953 1.379 0 0-.885-1.379-.885-1.379 0z" fill="#ab968c"/><path d="m20.102 27.343c0 3.465 5.012 3.465 5.012 0 0-3.215-5.012-3.215-5.012 0z" fill="#613f34"/><path d="m20.598 28.451c0 1.988 4.02 1.988 4.02 0 0-1.844-4.02-1.844-4.02 0z" fill="#7d5037"/><path d="m21.569 27.398c0 1.438 2.08 1.438 2.08 0 0-1.334-2.08-1.334-2.08 0z" fill="#1a1626"/><path d="m20.858 26.978c0 .727 1.051.727 1.051 0 0-.674-1.051-.674-1.051 0z" fill="#ab968c"/><path d="m44.139 27.775c0-5.564-11.505-5.564-11.505.881 1.643-5.287 9.862-5.287 11.505-.881z" fill="#d6a67a"/><path d="m17.911 27.736c0-4.24 8.768-4.24 8.768.67-1.253-4.031-7.514-4.031-8.768-.67z" fill="#d6a67a"/><path d="m15.071 23.406h-2.031c.295 2.279.742 4.568 1.344 6.655.345-2.56-.399-3.671.687-6.655z" fill="#ba9d52"/><path d="m44.924 23.406c.984 2.572.338 4.104.684 6.655.676-2.51 1.092-4.713 1.301-6.655z" fill="#ba9d52"/><path d="m59.07 49.967c1.565 4.314 1.532 12.033 1.532 12.033h-9.238s-1.176-10.43.479-11.223c3.345-1.601 6.995-1.455 7.227-.81z" fill="#302c3b"/><path d="m46.09 39.843c-.873-1.278 2.57-2.222 3.139.023.229.908 9.631.668 10.381 2.01 1.352 2.411-1.748 7.167-1.293 8.146.453.979-6.324 2.516-6.191 1.285.436-4.033-1.584-2.508-2.449-5.9-.654-2.552-2.421-3.853-3.587-5.564z" fill="#d6a67a"/><path d="m43.012 19.272c5.092 1.367 8.115 6.603 6.752 11.699-1.367 5.096-6.604 8.123-11.697 6.756-5.095-1.365-8.119-6.604-6.751-11.702 1.362-5.095 6.6-8.118 11.696-6.753z" fill="url(#a)" opacity=".65"/><path d="m47.34 35.186h3.372v3.61h-3.372z" fill="#bec3cf" transform="matrix(-.7078 .7064 -.7064 -.7078 109.8583 28.5425)"/><path d="m48.043 36.006c4.148-4.146 4.146-10.866.002-15.015-4.146-4.145-10.869-4.146-15.014 0-4.146 4.146-4.146 10.873 0 15.017 4.145 4.145 10.869 4.145 15.012-.002zm-13.676-1.336c-3.41-3.404-3.408-8.938.002-12.344 3.406-3.409 8.932-3.407 12.338 0 3.412 3.408 3.412 8.938 0 12.346-3.406 3.408-8.934 3.408-12.34-.002z" fill="#bec3cf"/><path d="m52.156 36.244h4.501v12.254h-4.501z" fill="#302c3b" transform="matrix(-.7073 .7069 -.7069 -.7073 122.8408 33.882)"/><path d="m56.846 48.92c.521.521 4.633-3.584 4.107-4.111l-.32-.318c-.525-.525-4.635 3.582-4.109 4.105z" fill="#bec3cf"/><path d="m53.953 37.025c1.795-.781 2.447.791 2.471 1.396 1.646-.135 2.457 1.196 2.461 1.708 3.467 1.652-3.807 9.589-2.83 4.858-2.443 2.174-2.428-.502-1.674-2.229-2.367 3.924-3.205.949-1.469-2.362-3.301 5.338-3.473-7.902 1.041-3.371z" fill="#e3c19b"/><path d="m49.861 23.417s.229.443.443.916c-4.947.955-12.207 1.623-20.298 1.623-6.877 0-11.984-.293-16.752-1.023-.07-.381-.156-1.041-.156-1.041z" opacity=".2"/><path d="m57 20.542c0 2.146-12.088 4.415-26.994 4.415-14.91 0-26.994-2.27-26.994-4.415 0-2.146 12.084-3.887 26.994-3.887 14.906 0 26.994 1.74 26.994 3.887z" fill="#4e5e67"/><path d="m47.484 17.081c0 4.111-34.957 4.111-34.957 0 0-22.012 7.824-13.436 17.479-13.436 9.652 0 17.478-8.576 17.478 13.436z" fill="#4e5e67"/><g fill="#302c3b"><path d="m30.006 5.061c-4.846 0-13.234-3.377-10.402-.627 3.721 3.607 17.216 3.477 20.802 0 2.836-2.75-5.556.627-10.4.627z" opacity=".4"/><path d="m12.528 15.325v3.889c6.83 2.561 28.126 2.561 34.957 0v-3.889c-6.823 2.562-28.137 2.562-34.957 0z"/></g></svg>