<svg enable-background="new 0 0 64 64" height="64" viewBox="0 0 64 64" width="64" xmlns="http://www.w3.org/2000/svg" xmlns:xlink="http://www.w3.org/1999/xlink"><linearGradient id="a" gradientUnits="userSpaceOnUse" x1="32.0015" x2="32.0015" y1="60.124" y2="36.9277"><stop offset="0" stop-color="#1a1626"/><stop offset=".5368" stop-color="#292534"/><stop offset="1" stop-color="#302c3b"/></linearGradient><linearGradient id="b" gradientUnits="userSpaceOnUse" x1="2.9346" x2="61.0654" y1="41.3105" y2="41.3105"><stop offset="0" stop-color="#717b80"/><stop offset=".229" stop-color="#889499"/><stop offset=".5213" stop-color="#a0adb2"/><stop offset=".7869" stop-color="#aebdc1"/><stop offset="1" stop-color="#b3c2c6"/></linearGradient><ellipse cx="32" cy="47" fill="#cfd8dd" rx="30" ry="15"/><path d="m61.001 46.375c0 7.593-12.983 13.749-29 13.749s-29-6.156-29-13.749c0-12.596 58-12.596 58 0z" fill="url(#a)"/><path d="m32.001 32.417c-16.017 0-29.066 6.407-29.066 14.054 0 1.295.445 2.545 1.142 3.734 3.413-5.834 14.617-10.113 27.923-10.113s24.511 4.279 27.925 10.113c.695-1.189 1.141-2.439 1.141-3.734-.001-7.647-13.048-14.054-29.065-14.054z" fill="url(#b)"/></svg>