<svg enable-background="new 0 0 64 64" height="64" viewBox="0 0 64 64" width="64" xmlns="http://www.w3.org/2000/svg" xmlns:xlink="http://www.w3.org/1999/xlink"><linearGradient id="a" gradientUnits="userSpaceOnUse" x1="41.5391" x2="41.5391" y1="38.0547" y2="18.9443"><stop offset="0" stop-color="#fff" stop-opacity="0"/><stop offset="1" stop-color="#fff"/></linearGradient><path d="m18.962 15.476c-8.107 37.397-7.365 36.596 9.703 36.596-9.445-7.1 8.647-37.105-9.703-36.596z" fill="#3b2c29"/><path d="m16.038 14.897c-5.916 28.413-.813 35.708 3.721 37.175h5.193c-12.152-9.202 6.846-37.734-8.914-37.175z" fill="#453631"/><path d="m42.815 15.475c8.107 37.396 7.365 36.596-9.701 36.596 8.686-5.699-8.648-37.105 9.701-36.596z" fill="#3b2c29"/><path d="m45.737 14.896c8.65 25.85-.018 35.979-3.719 37.175h-5.193c12.154-8.45-6.844-37.735 8.912-37.175z" fill="#453631"/><path d="m46.937 28.786c2.467 6.571.025 20.058-5.082 23.286 5.66 0 9.111-8.55 10.791-20.31 2.101-14.695-10.106-14.702-5.709-2.976z" fill="#594640"/><path d="m9.767 34.488c2.064 10.614 4.602 17.584 10.16 17.584-6.197-6.999-5.467-21.76-3.707-25.433 8.976-5.827-9.942-10.103-6.453 7.849z" fill="#594640"/><path d="m50.73 53.443c-2.398-1.26-12.363-4.597-12.363-4.597h-14.839s-9.954 3.327-12.344 4.595c-3.467 1.835-4.196 8.559-4.196 8.559h48s-.776-6.729-4.258-8.557z" fill="#302c3b"/><path d="m23.128 45.269h15.728v8.315h-15.728z" fill="#e6b045"/><path d="m30.999 51.72-8.375-3.657 2.45 13.937h11.85l2.45-13.937z" fill="#fff"/><path d="m30.999 51.72-7.412 3.096 1.487 7.184h11.85l1.489-7.184z" fill="#e6ebef"/><path d="m35.184 62-2.222-6.89 1.037-2.137-3-1.253-3 1.253 1.039 2.137-2.225 6.89z" fill="#302c3b"/><path d="m20.376 62s-3.162-2.988-6.055-8.773l7.312-1.933-8.192-5.111s5.114-3.834 10.146-4.986v10.098s.798 4.511 4.783 10.706h-7.994z" fill="#4e5e67"/><path d="m41.625 62s3.159-2.988 6.055-8.773l-7.313-1.933 8.192-5.111s-5.115-3.834-10.146-4.986v10.098s-.797 4.511-4.783 10.706h7.995z" fill="#4e5e67"/><path d="m30.989 6.488c-11.609 0-17.201 9.455-16.502 21.611.143 2.444.822 5.969 1.66 8.988 1.742 6.279 10.93 12.601 14.842 12.601 3.91 0 13.1-6.321 14.84-12.601.84-3.02 1.52-6.544 1.664-8.988.697-12.156-4.892-21.611-16.504-21.611z" fill="#fc6"/><path d="m30.989 39.66c-2.822-1.24-2.844-.05-7.199.242 1.635 1.856 2.838 4.244 7.197 4.244 5.004 0 5.85-2.711 7.203-4.244-4.359-.292-4.378-1.482-7.201-.242z" fill="#d47706"/><path d="m25.097 40.365c2.844 2.959 8.977 2.92 11.785.002-4.379.47-7.404.47-11.785-.002z" fill="#fff"/><path d="m43.784 23.684c-2.617-1.559-7.309-1.75-9.166-.688-.393.214-.287 1.341.053 1.2 2.648-1.103 6.682-1.158 9.168.117.334.169.34-.403-.055-.629z" fill="#594640"/><path d="m18.196 23.684c2.615-1.559 7.307-1.75 9.166-.688.393.214.289 1.341-.055 1.2-2.648-1.103-6.68-1.159-9.166.117-.333.169-.341-.403.055-.629z" fill="#594640"/><path d="m34.589 35.418c0 2.342-7.199 2.342-7.199 0 0-.537 7.199-.537 7.199 0z" fill="#e6b045"/><path d="m18.448 28.431c1.553 4.06 7.863 3.466 9.02.624-.877-4.567-8.164-4.957-9.02-.624z" fill="#fff"/><path d="m20.685 27.995c0 3.596 5.199 3.596 5.199 0 0-3.338-5.199-3.338-5.199 0z" fill="#613f34"/><path d="m21.198 29.145c0 2.062 4.172 2.062 4.172 0 0-1.914-4.172-1.914-4.172 0z" fill="#7d5037"/><path d="m22.204 28.051c0 1.492 2.16 1.492 2.16 0 0-1.385-2.16-1.385-2.16 0z" fill="#1a1626"/><path d="m21.468 27.615c0 .754 1.09.754 1.09 0 0-.699-1.09-.699-1.09 0z" fill="#ab968c"/><path d="m18.448 28.399c0-4.361 9.02-4.361 9.02.689-1.287-4.145-7.731-4.145-9.02-.689z" fill="#45332c"/><path d="m41.863 19.476c1.49 2.226 3.464 5.017 5.073 9.311 2.467 6.571 4.029 14.736 5.709 2.976.66-4.618.315-8.783-.586-12.287z" fill="#594640"/><path d="m9.937 19.476c-1.124 4.088-1.326 9.063-.17 15.013 2.064 10.614 2.9-3.665 4.662-7.338 4.026-2.613 9.692-5.046 14.931-7.675z" fill="#594640"/><path d="m28.063 19.476c-8.372 3.898-16.876 6.756-17.961 12.235 4.289-6.152 14.722-8.007 22.817-12.235z" fill="#453631"/><path d="m45.132 28.699c-1.979 5.183-10.029 4.423-11.505.797 1.119-5.824 10.417-6.324 11.505-.797z" fill="#fff"/><path d="m35.681 28.148c0 4.547 6.576 4.547 6.576 0 0-4.22-6.576-4.22-6.576 0z" fill="#613f34"/><path d="m36.332 29.604c0 2.607 5.275 2.607 5.275 0 0-2.421-5.275-2.421-5.275 0z" fill="#7d5037"/><path d="m37.604 28.219c0 1.889 2.729 1.889 2.729 0 .001-1.75-2.729-1.75-2.729 0z" fill="#1a1626"/><path d="m36.673 27.669c0 .953 1.379.953 1.379 0 0-.884-1.379-.884-1.379 0z" fill="#ab968c"/><path d="m45.132 28.662c0-5.564-11.505-5.564-11.505.881 1.644-5.287 9.862-5.287 11.505-.881z" fill="#45332c"/><path d="m60.072 49.967c1.565 4.314 1.531 12.033 1.531 12.033h-9.237s-1.176-10.43.479-11.223c3.343-1.601 6.994-1.455 7.227-.81z" fill="#302c3b"/><path d="m47.091 39.844c-.872-1.279 2.57-2.223 3.139.022.229.908 9.632.669 10.382 2.01 1.352 2.411-1.748 7.167-1.294 8.146.453.979-6.323 2.516-6.19 1.285.435-4.033-1.585-2.509-2.45-5.9-.653-2.552-2.42-3.852-3.587-5.563z" fill="#e6b045"/><circle cx="41.541" cy="28.499" fill="url(#a)" opacity=".65" r="9.553"/><path d="m48.342 35.187h3.372v3.609h-3.372z" fill="#bec3cf" transform="matrix(-.7075 .7067 -.7067 -.7075 111.5661 27.8104)"/><path d="m49.045 36.006c4.147-4.146 4.146-10.865.002-15.016-4.147-4.145-10.869-4.146-15.015 0s-4.146 10.873 0 15.018c4.146 4.146 10.869 4.146 15.013-.002zm-13.677-1.336c-3.41-3.404-3.408-8.938.002-12.344 3.407-3.41 8.932-3.408 12.339 0 3.411 3.408 3.411 8.938 0 12.346-3.407 3.408-8.934 3.408-12.341-.002z" fill="#bec3cf"/><path d="m53.158 36.244h4.5v12.254h-4.5z" fill="#302c3b" transform="matrix(-.7072 .707 -.707 -.7072 124.5492 33.1634)"/><path d="m57.848 48.92c.521.521 4.632-3.584 4.106-4.111l-.32-.318c-.525-.525-4.634 3.582-4.108 4.105z" fill="#bec3cf"/><path d="m54.955 37.025c1.794-.781 2.447.791 2.471 1.396 1.646-.134 2.456 1.198 2.461 1.71 3.466 1.652-3.807 9.587-2.83 4.857-2.443 2.174-2.428-.503-1.674-2.229-2.367 3.924-3.206.949-1.469-2.361-3.302 5.335-3.474-7.904 1.041-3.373z" fill="#fc6"/><path d="m52.791 23.462s.054.513.096.985c-5.497.955-12.894 1.51-21.888 1.51-7.643 0-16.616-.797-21.913-1.527.035-.409.093-.972.093-.972z" opacity=".2"/><path d="m60 20.541c0 2.146-12.988 4.416-29.001 4.416-16.018 0-28.999-2.269-28.999-4.416s12.981-3.887 28.999-3.887c16.013 0 29.001 1.741 29.001 3.887z" fill="#4e5e67"/><path d="m50.517 17.08c0 4.111-39.033 4.111-39.033 0 0-22.012 8.738-13.436 19.516-13.436s19.517-8.576 19.517 13.436z" fill="#4e5e67"/><g fill="#302c3b"><path d="m30.999 5.061c-5.41 0-14.776-3.377-11.616-.627 4.155 3.607 19.227 3.477 23.228 0 3.168-2.75-6.202.627-11.612.627z" opacity=".4"/><path d="m11.483 15.324v3.889c7.627 2.561 31.405 2.561 39.033 0v-3.889c-7.62 2.563-31.415 2.563-39.033 0z"/></g></svg>