<svg enable-background="new 0 0 64 64" height="64" viewBox="0 0 64 64" width="64" xmlns="http://www.w3.org/2000/svg" xmlns:xlink="http://www.w3.org/1999/xlink"><linearGradient id="a"><stop offset="0" stop-color="#ff2121"/><stop offset=".4092" stop-color="#ef1619"/><stop offset="1" stop-color="#d1000b"/></linearGradient><linearGradient id="b" gradientTransform="matrix(.7071 .7071 -.7071 .7071 -242.0166 153.4296)" gradientUnits="userSpaceOnUse" x1="99.8525" x2="115.9395" xlink:href="#a" y1="-312.4805" y2="-312.4805"/><linearGradient id="c"><stop offset="0" stop-color="#ff9187"/><stop offset="1" stop-color="#e05c51"/></linearGradient><linearGradient id="d" gradientTransform="matrix(.7071 .7071 -.7071 .7071 -242.0166 153.4296)" gradientUnits="userSpaceOnUse" x1="99.8516" x2="115.9395" xlink:href="#c" y1="-307.6543" y2="-307.6543"/><linearGradient id="e"><stop offset="0" stop-color="#4e5e67"/><stop offset=".3737" stop-color="#3f4450"/><stop offset=".738" stop-color="#343241"/><stop offset="1" stop-color="#302c3b"/></linearGradient><linearGradient id="f" gradientTransform="matrix(.7071 .7071 -.7071 .7071 -242.0166 153.4296)" gradientUnits="userSpaceOnUse" x1="99.8516" x2="115.9395" xlink:href="#e" y1="-297.1963" y2="-297.1963"/><linearGradient id="g" gradientTransform="matrix(.7071 .7071 -.7071 .7071 -242.0166 153.4296)" gradientUnits="userSpaceOnUse" x1="99.8506" x2="115.9395" xlink:href="#c" y1="-284.3267" y2="-284.3267"/><linearGradient id="h" gradientTransform="matrix(.7071 .7071 -.7071 .7071 -242.0166 153.4296)" gradientUnits="userSpaceOnUse" x1="99.8516" x2="115.9395" xlink:href="#e" y1="-264.2188" y2="-264.2188"/><linearGradient id="i" gradientTransform="matrix(.7071 .7071 -.7071 .7071 -242.0166 153.4296)" gradientUnits="userSpaceOnUse" x1="99.8516" x2="115.9395" xlink:href="#c" y1="-261.0005" y2="-261.0005"/><linearGradient id="j" gradientTransform="matrix(.7071 .7071 -.7071 .7071 -242.0166 153.4296)" gradientUnits="userSpaceOnUse" x1="99.8516" x2="115.9395" xlink:href="#a" y1="-256.1743" y2="-256.1743"/><linearGradient id="k" gradientTransform="matrix(.7071 .7071 -.7071 .7071 -242.0166 153.4296)" gradientUnits="userSpaceOnUse" x1="101.4619" x2="114.3311" xlink:href="#a" y1="-246.5498" y2="-246.5498"/><path d="m61.49 13.884c3.033-3.033-8.342-14.408-11.375-11.375l-3.412 3.412 11.375 11.375z" fill="url(#b)"/><path d="m58.078 17.297c3.033-3.033-8.342-14.409-11.375-11.375l-3.414 3.413 11.377 11.375z" fill="url(#d)"/><path d="m54.666 20.709c3.032-3.031-8.344-14.408-11.377-11.375l-11.375 11.377 11.375 11.375z" fill="url(#f)"/><path d="m51.821 23.554c3.032-3.033-8.343-14.408-11.376-11.376l-23.888 23.887 11.375 11.377z" fill="url(#g)"/><path d="m28.502 46.873c3.033-3.034-8.342-14.409-11.375-11.376l-5.688 5.688 11.376 11.376z" fill="url(#h)"/><path d="m25.089 50.286c3.034-3.033-8.343-14.409-11.376-11.376l-3.412 3.414 11.375 11.374z" fill="url(#i)"/><path d="m21.676 53.698c3.033-3.033-8.342-14.407-11.375-11.374l-3.413 3.411 11.376 11.376z" fill="url(#j)"/><path d="m18.264 57.111c-3.034 3.035-14.41-8.341-11.376-11.376 3.033-3.033 14.409 8.343 11.376 11.376z" fill="#b00505"/><path d="m7.344 47.557s0 0-5.233 9.783c-.81 1.511 3.037 5.358 4.55 4.549 9.783-5.232 9.783-5.232 9.783-5.232 2.426-2.428-6.674-11.529-9.1-9.1z" fill="url(#k)"/><path d="m6.143 61.84c-.85.85-4.832-3.134-3.983-3.982.949-.949 4.93 3.033 3.983 3.982z" fill="#b00505"/><path d="m33.621 41.755c-3.793-3.793 10.996-18.58 14.787-14.788z" fill="#302c3b"/></svg>