<svg enable-background="new 0 0 64 64" height="64" viewBox="0 0 64 64" width="64" xmlns="http://www.w3.org/2000/svg" xmlns:xlink="http://www.w3.org/1999/xlink"><radialGradient id="a" cx="219.041" cy="9.9673" gradientTransform="matrix(.6996 .716 -.6996 .716 -131.2607 -117.4816)" gradientUnits="userSpaceOnUse" r="9.2201"><stop offset="0" stop-color="#8a6859"/><stop offset="1" stop-color="#785647"/></radialGradient><linearGradient id="b" gradientTransform="matrix(.7071 .7071 -.7071 .7071 -131.6396 -115.1959)" gradientUnits="userSpaceOnUse" x1="213.7051" x2="229.7656" y1="22.0659" y2="22.0659"><stop offset="0" stop-color="#f33"/><stop offset=".2909" stop-color="#ef2729"/><stop offset=".8566" stop-color="#c60910"/><stop offset="1" stop-color="#ba0009"/></linearGradient><linearGradient id="c" gradientTransform="matrix(.7071 -.7071 .7071 .7071 -51.0817 -57.3799)" gradientUnits="userSpaceOnUse" x1="9.2051" x2="9.2051" y1="115.1484" y2="129.1738"><stop offset="0" stop-color="#0085d4"/><stop offset=".0945" stop-color="#0080cc"/><stop offset=".6976" stop-color="#00639e"/><stop offset="1" stop-color="#00588c"/></linearGradient><linearGradient id="d" gradientTransform="matrix(.7071 -.7071 .7071 .7071 -51.0817 -57.3799)" gradientUnits="userSpaceOnUse" x1="-19.6509" x2="-19.6509" y1="116.8008" y2="128.4336"><stop offset="0" stop-color="#b3c2c6"/><stop offset=".2131" stop-color="#aebdc1"/><stop offset=".4787" stop-color="#a0adb2"/><stop offset=".771" stop-color="#889499"/><stop offset="1" stop-color="#717b80"/></linearGradient><linearGradient id="e"><stop offset="0" stop-color="#717b80"/><stop offset=".229" stop-color="#889499"/><stop offset=".5213" stop-color="#a0adb2"/><stop offset=".7869" stop-color="#aebdc1"/><stop offset="1" stop-color="#b3c2c6"/></linearGradient><linearGradient id="f" gradientTransform="matrix(.7071 -.7071 .7071 .7071 -51.0817 -57.3799)" gradientUnits="userSpaceOnUse" x1="-18.6016" x2="-17.6875" xlink:href="#e" y1="122.5996" y2="122.5996"/><linearGradient id="g" gradientTransform="matrix(.7071 -.7071 .7071 .7071 -51.0817 -57.3799)" gradientUnits="userSpaceOnUse" x1="-19.7612" x2="-18.8477" xlink:href="#e" y1="122.6133" y2="122.6133"/><path d="m23.967 49.201-7.889-8.354c-4.73 1.215-8.807 4.244-9.224 8.207-.513 4.869 6.526 13.6 12.691 9.258 3.722-2.621 4.422-9.111 4.422-9.111z" fill="url(#a)"/><g fill="#73564a"><path d="m17.593 42.451-.769-.813s-6.133.807-8.74 5.805c4.463-4.691 9.509-4.992 9.509-4.992z"/><path d="m18.482 43.395-.769-.813s-6.345 2.496-8.953 7.492c4.464-4.691 9.722-6.679 9.722-6.679z"/><path d="m22.001 43.389-.769-.816s-6.345 2.498-8.953 7.494c4.463-4.692 9.722-6.678 9.722-6.678z"/></g><path d="m2 59.004s7.507 6.957 17.381-.33c2.226-1.643-4.789.26-3.73-2.678.451-1.254-4.321.068-4.182-3.182.094-2.176-3.494.715-4.27-3.605-.679-3.781-.998 8.305-5.199 9.795z" fill="url(#b)"/><path d="m44.559 9.827c-7.549 7.724-17.149 19.298-24.955 27.288 1.403 6.303 8.087 8.275 8.087 8.275 7.806-7.988 19.174-17.876 26.662-25.541 6.613-6.768 9.077-14.736 6.841-17.025s-10.022.235-16.635 7.003z" fill="url(#c)"/><path d="m23.965 49.205c1.242-1.271 2.484-2.543 3.727-3.814-2.903-2.537-5.607-5.305-8.087-8.275-1.241 1.271-2.483 2.541-3.726 3.813 2.478 2.971 5.184 5.737 8.086 8.276z" fill="url(#d)"/><path d="m27.063 46.352c-.111.113-.285.137-.386.051-2.928-2.496-5.622-5.254-8.06-8.25-.085-.104-.063-.279.05-.395.112-.113.271-.123.354-.02 2.438 2.996 5.133 5.754 8.061 8.25.101.086.092.248-.019.364z" fill="url(#f)"/><path d="m26.252 47.18c-.111.115-.285.139-.386.053-2.927-2.496-5.622-5.254-8.06-8.25-.084-.104-.063-.281.051-.395.111-.115.27-.123.354-.02 2.439 2.996 5.133 5.754 8.061 8.248.1.086.092.25-.02.364z" fill="url(#g)"/></svg>