<svg enable-background="new 0 0 64 64" height="64" viewBox="0 0 64 64" width="64" xmlns="http://www.w3.org/2000/svg" xmlns:xlink="http://www.w3.org/1999/xlink"><radialGradient id="a" cx="85.5488" cy="46.2207" gradientTransform="matrix(.6881 -.6895 .1415 .1419 -13.9428 64.8694)" gradientUnits="userSpaceOnUse" r="24.2554"><stop offset="0" stop-color="#4e5e67"/><stop offset="1" stop-color="#302c3b"/></radialGradient><radialGradient id="b" cx="64.4648" cy="46.3496" gradientTransform="matrix(.6788 -.6802 .1786 .1792 -16.3035 63.747)" gradientUnits="userSpaceOnUse" r="21.7493"><stop offset="0" stop-color="#4e5e67"/><stop offset=".2252" stop-color="#49555f"/><stop offset=".5911" stop-color="#3a3d4a"/><stop offset=".8" stop-color="#302c3b"/></radialGradient><linearGradient id="c"><stop offset="0" stop-color="#302c3b"/><stop offset=".4852" stop-color="#231f2f"/><stop offset="1" stop-color="#1a1626"/></linearGradient><radialGradient id="d" cx="-139.2563" cy="46.3848" gradientTransform="matrix(-.6788 .6802 .1448 .1453 -73.2929 123.9873)" gradientUnits="userSpaceOnUse" r="13.9035" xlink:href="#c"/><linearGradient id="e"><stop offset="0" stop-color="#b3c2c6"/><stop offset=".1272" stop-color="#aab9bd"/><stop offset="1" stop-color="#717b80"/></linearGradient><radialGradient id="f" cx="64.084" cy="23.7036" gradientTransform="matrix(.5163 -.5163 -.5567 -.5567 4.0896 86.2618)" gradientUnits="userSpaceOnUse" r="4.0514" xlink:href="#e"/><radialGradient id="g" cx="101.4043" cy="23.6611" gradientTransform="matrix(.3864 -.3872 -.7309 -.7333 1.0985 97.5881)" gradientUnits="userSpaceOnUse" r="3.9205" xlink:href="#e"/><radialGradient id="h" cx="99.6191" cy="23.6611" gradientTransform="matrix(.3864 -.3872 -.5551 -.5569 -3.3655 93.7199)" gradientUnits="userSpaceOnUse" r="3.9202" xlink:href="#e"/><radialGradient id="i" cx="36.2988" cy="45.9922" gradientTransform="matrix(.7057 -.7071 .1448 .1453 -14.5406 65.2308)" gradientUnits="userSpaceOnUse" r="11.3613" xlink:href="#c"/><radialGradient id="j" cx="-178.583" cy="313.8203" gradientTransform="matrix(.7071 .7072 -2.9804 2.981 1063.6583 -747.1754)" gradientUnits="userSpaceOnUse" r="4.9028"><stop offset=".6485" stop-color="#cfd8dd"/><stop offset=".7397" stop-color="#cad4d9"/><stop offset=".8413" stop-color="#bdc8cd"/><stop offset=".9475" stop-color="#a7b4ba"/><stop offset="1" stop-color="#99a8ae"/></radialGradient><path d="m55.255 3.551c-3.058 2.513-14.007 12.564-15.256 13.816-1.94 1.941 4.604 8.504 6.543 6.562 1.247-1.251 11.687-12.629 14.194-15.699 1.09-1.33 2.013-3.811.37-5.458-1.639-1.646-4.521-.312-5.851.779z" fill="url(#a)"/><path d="m46.207 23.72c-7.015 7.028-15.35 15.655-15.35 15.655-.977.979-7.351-5.207-6.27-6.291 0 0 8.606-8.352 15.621-15.38 1.749-1.752 7.747 4.262 5.999 6.016z" fill="url(#b)"/><path d="m27.542 42.696 7.586-7.706c.92-.934-5.054-7.286-6.166-6.186l-7.689 7.602c-1.749 1.752 4.52 8.041 6.269 6.29z" fill="url(#d)"/><path d="m21.229 36.723c-.196.209-.758.858-.758.858-.522.534 5.263 6.54 5.896 5.915 0 0 .649-.563.859-.757 1.027-.967-5.033-7.045-5.997-6.016z" fill="url(#f)"/><path d="m20.509 37.992-.763.855c-.525.533 4.727 6.001 5.36 5.379l.854-.766c.995-.995-4.457-6.466-5.451-5.468z" fill="url(#g)"/><path d="m19.515 38.989-.763.855c-.525.532 4.727 6.001 5.36 5.38l.854-.768c.995-.995-4.457-6.466-5.451-5.467z" fill="url(#h)"/><path d="m18.858 40.192c-6.43 7.225-7.26 7.118-7.323 7.181-.294.294.977 1.92 2.052 3.028 1.104 1.078 2.727 2.353 3.023 2.058.061-.063-.053-.9 7.154-7.344.309-.309-.709-1.861-1.939-3.089-1.225-1.233-2.66-2.14-2.967-1.834z" fill="url(#i)"/><path d="m54.86 3.756c-.092-.093-.242-.081-.346.012-1.646 1.479-13.728 12.316-13.729 12.318-.364.328-.982.362-.483-.115 7.882-7.547 13.619-12.709 13.622-12.711.566-.544 1.499-.873 1.818-.55.577.576.577.576.021.964-.459.318-.582.402-.903.082z" fill="#4e5e67"/><path d="m9.917 60.376c1.055-1.541 1.525-2.802 5.58-7.745.164-.218-3.926-4.316-4.146-4.152-4.931 4.066-6.185 4.54-7.722 5.597-.267.196-.118 5.259-1.264 7.494.002.075.002.075.076.077 2.23-1.149 7.278-1.005 7.476-1.271z" fill="#4e5e67"/><path d="m9.94 60.578c1.146-1.649 1.665-2.988 6.045-8.288.436-.569-3.722-4.734-4.292-4.302-5.288 4.392-6.62 4.916-8.266 6.062-.285.212-.428.558-.4.947.09 1.298.125 4.464-1.027 6.826l5.75-5.75c-.302-.391-.288-.947.07-1.308.39-.391 1.021-.391 1.412 0 .39.392.389 1.025 0 1.413-.36.36-.915.371-1.306.07l-5.749 5.752c2.358-1.177 5.516-1.112 6.82-1.021.389.027.731-.117.943-.401z" fill="url(#j)"/></svg>