<svg enable-background="new 0 0 64 64" height="64" viewBox="0 0 64 64" width="64" xmlns="http://www.w3.org/2000/svg" xmlns:xlink="http://www.w3.org/1999/xlink"><radialGradient id="a" cx="89.7711" cy="19.5464" gradientTransform="matrix(1.0806 0 0 1.4925 -62.7278 -7.1292)" gradientUnits="userSpaceOnUse" r="23.8191"><stop offset=".4485" stop-color="#614a36"/><stop offset=".7752" stop-color="#5f4834"/><stop offset=".9322" stop-color="#58412c"/><stop offset="1" stop-color="#523b26"/></radialGradient><path d="m45.847 27.923c-3.268-4.713-9.234-2.85-9.234-2.85s0-11.26 0-17.359c0-6.606-11.043-6.606-11.043 0v16.918c-3.186-3.092-9.406-.369-9.82 3.389-.135 1.215-.223 4.137-.275 5.238 0 0 0 0-.002 0-6.397-.82-7.744 13.719 5.314 19.193.971.406 1.904 2.197 1.904 5.475 0 4.588 23.963 4.24 23.963 0 0-8.35 4.578-5.162 6.393-19.313 1.208-9.423-3.204-11.675-7.2-10.691z" fill="url(#a)"/><g fill="#452f1b"><path d="m21.945 57.919c0-3.065-.865-4.539-1.445-4.781-13.461-5.644-12.352-20.367-5.74-20.664 0 0 .143-3.598.248-4.543.424-3.863 6-6.732 9.816-4.76v-15.463c0-7.611 12.543-7.611 12.543 0v16.42c1.912-.336 6.068-.541 8.799 2.953 4.318-.781 8.867 1.965 7.627 11.623-1.797 14.01-6.387 11.291-6.387 19.215 0 5.036-25.461 5.832-25.461 0zm-.865-6.164c1.48.619 2.365 2.775 2.365 6.018 0 3.664 22.463 3.395 22.463 0 0-8.498 4.605-5.275 6.398-19.26 1.523-11.877-5.797-10.094-6.779-9.746 0 0-2.617-5.066-9.66-2.686v-18.373c0-5.635-9.543-5.635-9.543 0v18.689c-3.539-4.828-9.498-1.277-9.826 1.697-.098.893-.311 6.004-.311 6.004-5.854-2.19-8.106 12.208 4.893 17.657z"/><path d="m46.767 34.435-1.484-.221c.006-.035.51-3.522-.162-6.102l1.451-.379c.75 2.882.216 6.548.195 6.702z"/><path d="m35.863 25.074h1.5v10.152h-1.5z"/><path d="m24.82 24.632h1.5v11.199h-1.5z"/><path d="m14.747 32.529h1.5v6.311h-1.5z"/></g></svg>