<svg enable-background="new 0 0 64 64" height="64" viewBox="0 0 64 64" width="64" xmlns="http://www.w3.org/2000/svg" xmlns:xlink="http://www.w3.org/1999/xlink"><radialGradient id="a" cx="89.5352" cy="19.3418" gradientTransform="matrix(1.0806 0 0 1.4925 -62.4743 -6.8239)" gradientUnits="userSpaceOnUse" r="23.8182"><stop offset=".4485" stop-color="#fc6"/><stop offset=".7332" stop-color="#fecb64"/><stop offset=".87" stop-color="#fac65c"/><stop offset=".9751" stop-color="#f4bd4f"/><stop offset="1" stop-color="#f2ba4b"/></radialGradient><path d="m45.847 27.923c-3.268-4.712-9.233-2.85-9.233-2.85s0-11.259 0-17.358c0-6.605-11.043-6.605-11.043 0v16.918c-3.187-3.093-9.407-.369-9.82 3.388-.135 1.216-.223 4.137-.275 5.239-.001 0-.001 0-.002 0-6.396-.821-7.744 13.719 5.313 19.193.971.406 1.905 2.197 1.905 5.475 0 4.588 23.962 4.24 23.962 0 0-8.35 4.579-5.162 6.393-19.313 1.209-9.425-3.203-11.676-7.2-10.692z" fill="url(#a)"/><g fill="#d9a640"><path d="m21.944 57.92c0-3.064-.864-4.539-1.445-4.781-13.46-5.645-12.352-20.368-5.739-20.665 0 0 .143-3.598.248-4.543.424-3.863 5.999-6.731 9.815-4.76v-15.463c0-7.611 12.543-7.611 12.543 0v16.42c1.913-.336 6.069-.54 8.8 2.953 4.317-.781 8.867 1.966 7.627 11.624-1.797 14.01-6.387 11.291-6.387 19.215 0 5.035-25.462 5.832-25.462 0zm-.865-6.164c1.48.619 2.365 2.775 2.365 6.018 0 3.664 22.463 3.395 22.463 0 0-8.498 4.605-5.275 6.398-19.26 1.523-11.878-5.797-10.095-6.778-9.747 0 0-2.618-5.065-9.66-2.686l-.001-18.373c0-5.634-9.543-5.634-9.543 0v18.69c-3.539-4.828-9.497-1.277-9.825 1.696-.099.894-.311 6.005-.311 6.005-5.854-2.191-8.105 12.208 4.892 17.657z"/><path d="m46.767 34.436-1.484-.221c.006-.035.511-3.522-.161-6.103l1.45-.379c.75 2.881.216 6.548.195 6.703z"/><path d="m35.863 25.073h1.5v10.153h-1.5z"/><path d="m24.82 24.633h1.5v11.199h-1.5z"/><path d="m14.748 32.529h1.5v6.311h-1.5z"/></g></svg>