<svg enable-background="new 0 0 64 64" height="64" viewBox="0 0 64 64" width="64" xmlns="http://www.w3.org/2000/svg" xmlns:xlink="http://www.w3.org/1999/xlink"><radialGradient id="a" cx="23.9336" cy="20.1497" gradientTransform="matrix(0 .9891 -.7697 0 43.965 -2.9324)" gradientUnits="userSpaceOnUse" r="44.4646"><stop offset=".4364" stop-color="#fcd5b2"/><stop offset=".7049" stop-color="#fbd3b0"/><stop offset=".8242" stop-color="#f6cda9"/><stop offset=".903" stop-color="#f0c59e"/></radialGradient><path d="m53.75 31.787c-7.795.166-8.471 7.906-10.736 6.045-.467-.383-.643-2.268-.396-3.111 1.768-6.066 4.486-17.275 5.307-20.435 1.486-5.721-6.307-7.875-7.791-2.154-.074.283-4.838 21.305-5.172 21.221-.318-.082-.553-23.918-.693-26.197-.387-6.305-8.582-5.619-8.053.674.019.252.924 25.523.379 25.523-.467 0-4.828-21.109-5.291-23.31-1.305-6.184-9.312-4.314-7.871 1.836.053.232 5.447 21.475 4.941 21.475-.424 0-5.972-13.332-5.972-13.332-1.734-4.947-8.072-2.793-6.34 2.162 3.678 10.527 5.605 12.047 5.064 22.881-.475 9.434 5.031 16.174 15.789 16.189 23.519.029 16.859-16.881 30.664-25.418 1.71-1.061.059-4.129-3.829-4.049z" fill="url(#a)"/><g fill="#e0af82"><path d="m53.75 31.037c-4.953.106-7.228 3.027-8.734 4.961-.795 1.021-1.195 1.586-1.49 1.289-.346-.348-.523-1.129-.189-2.355 1.273-4.672 5.101-19.654 5.313-20.459 1.736-6.578-7.404-9.313-9.24-2.531-.012.039-4.021 17.688-4.021 17.688s-.32-21.683-.371-22.521c-.426-7.195-10.049-6.65-9.549.769.055.813.672 21.455.672 21.455l-4.106-19.446c-1.428-7.133-11.021-5.033-9.333 2.16 0 0 3.277 13.248 3.97 16.275-1.068-2.449-2.371-5.578-3.564-8.551-2.201-5.986-9.824-3.111-7.754 2.658 4.127 11.504 5.529 12.451 5.022 22.594-.534 10.612 6.071 16.965 16.538 16.977 23.971 0 17.631-17.223 31.059-25.529 2.282-1.413.708-5.434-4.223-5.434zm3.433 4.16c-14.385 8.895-7.15 25.305-30.269 25.305-8.971-.014-15.558-5.088-15.04-15.402.555-11.096-1.688-13.387-5.104-23.168-1.385-3.953 3.512-5.725 4.936-1.633 5.248 13.392 6.158 13.797 6.97 13.654 1.244-.215-.613-6.211-4.514-22.246-1.271-5.141 5.351-6.734 6.406-1.512 4.82 21.691 4.801 23.965 6.164 23.965.736 0 1.109-1.406.229-26.394-.188-5.32 6.316-5.854 6.559-.566.455 9.943-.283 26.689 1.351 26.891 1.326.166 1.287-2.635 5.986-21.771 1.246-4.801 7.555-2.9 6.34 1.777-.209.809-3.988 15.91-5.301 20.416-.518 1.783-.07 3.314.641 3.9 1.654 1.361 2.992-.631 3.662-1.49 1.41-1.813 3.312-4.297 7.551-4.385 3.158-.001 4.414 2.052 3.433 2.659z"/><path d="m42.8 36.947c-3.976.168-10.178 6.951-9.859 14.494.484-6.83 7.332-13.002 11.156-12.959z"/></g></svg>