<svg enable-background="new 0 0 64 64" height="64" viewBox="0 0 64 64" width="64" xmlns="http://www.w3.org/2000/svg" xmlns:xlink="http://www.w3.org/1999/xlink"><linearGradient id="a" gradientUnits="userSpaceOnUse" x1="32.0005" x2="32.0005" y1="49" y2="41"><stop offset="0" stop-color="#cfd8dd"/><stop offset=".1801" stop-color="#cad3d8"/><stop offset=".4047" stop-color="#bac3c8"/><stop offset=".653" stop-color="#a1aaaf"/><stop offset=".9165" stop-color="#7e888d"/><stop offset="1" stop-color="#717b80"/></linearGradient><linearGradient id="b" gradientUnits="userSpaceOnUse" x1="32.0005" x2="32.0005" y1="39" y2="5.0005"><stop offset="0" stop-color="#4e5e67"/><stop offset="1" stop-color="#6e8189"/></linearGradient><path d="m24 46c0 2.604-8 3-8 3h32s-8-.396-8-3v-5h-16z" fill="url(#a)"/><path d="m59 2h-54c-1.875 0-3 1.125-3 3v34c0 1.875 1.125 3 3 3h54c1.875 0 3-1.125 3-3v-34c0-1.875-1.125-3-3-3z" fill="#302c3b"/><path d="m5 5h54v34h-54z" fill="url(#b)"/><path d="m16 49h32v1h-32z" fill="#b3c2c6"/><path d="m30.427 39.754.139.141c.003.002.005.006.005.01s-.002.008-.005.01l-.139.141c-.003.002-.007.004-.011.004-.003 0-.007-.002-.01-.004l-.14-.141c-.006-.006-.006-.014 0-.02l.14-.141c.006-.004.015-.004.021 0z" fill="#b3c2c6"/><path d="m32.573 40.146c.206 0 .377.174.377.398 0 .227-.171.4-.377.4-.119 0-.209-.049-.267-.129v.379c.001.01-.002.018-.008.025-.008.006-.017.01-.026.008h-.096c-.01.002-.019-.002-.024-.008-.008-.008-.011-.016-.009-.025v-.994c-.002-.01.001-.02.009-.025.006-.006.015-.01.024-.01h.096c.01 0 .019.002.026.01.006.006.009.016.009.025v.074c.057-.079.147-.128.266-.128zm-.027.643c.137 0 .24-.102.24-.242s-.104-.242-.24-.242-.238.1-.238.24c0 .143.102.244.238.244zm.533.137c-.01.002-.019-.002-.024-.008-.008-.008-.011-.016-.009-.025v-.691c-.002-.01.001-.02.009-.025.006-.008.015-.01.024-.01h.096c.009 0 .018.002.025.01.007.006.01.016.009.025v.689c.001.01-.002.02-.009.025-.008.008-.017.01-.025.01zm.835-.041c.015.023.005.041-.023.041h-.099c-.017 0-.033-.008-.042-.021l-.147-.232-.148.232c-.008.014-.024.021-.041.021h-.099c-.027 0-.038-.018-.022-.041l.223-.35-.208-.326c-.017-.023-.006-.041.021-.041h.1c.017-.002.032.008.041.021l.134.209.133-.209c.009-.014.025-.023.041-.021h.1c.027 0 .038.018.023.041l-.21.326zm.401-.739c.227 0 .376.184.376.402 0 .012 0 .025-.002.037 0 .008-.004.018-.011.023s-.017.01-.025.008h-.565c.025.125.117.189.233.189.063 0 .124-.025.165-.074.01-.012.025-.02.041-.02h.097c.026 0 .039.016.029.037-.056.123-.18.197-.334.197-.243 0-.4-.17-.4-.398-.001-.225.159-.401.396-.401zm-.228.336h.439c-.021-.129-.113-.186-.212-.186-.122 0-.205.07-.228.184v.002zm.724.444c-.009.002-.019-.002-.025-.008-.006-.008-.01-.016-.009-.025v-1.025c-.001-.01.003-.018.009-.025.007-.006.017-.01.025-.008h.096c.01-.002.02.002.025.008.007.008.01.016.009.025v1.025c.001.01-.002.018-.009.025-.006.006-.016.01-.025.008zm.406-.547c0 .154.421.043.421.334 0 .148-.13.232-.299.232-.155 0-.278-.074-.296-.219-.001-.01.001-.02.008-.027.007-.006.017-.01.026-.01h.094c.021 0 .029.012.036.031.013.055.066.076.132.076.08 0 .135-.027.135-.086 0-.15-.422-.043-.422-.332 0-.148.132-.232.287-.232.143 0 .265.074.281.219.003.01 0 .02-.007.027-.008.006-.017.01-.026.01h-.095c-.021 0-.028-.012-.036-.033-.012-.053-.063-.076-.117-.076-.068 0-.122.029-.122.086z" fill="#b3c2c6"/><path d="m30.459 40.166c.01 0 .019.002.024.01.008.006.011.016.01.025v.754c0 .199-.093.297-.276.295-.01.002-.02-.002-.026-.01-.006-.006-.009-.016-.009-.025v-.09c0-.01.003-.018.009-.025.007-.006.017-.01.026-.01.076-.002.112-.041.112-.135v-.754c-.001-.01.002-.02.009-.025.007-.008.016-.01.025-.01zm.528.779c-.22-.002-.397-.18-.396-.4 0-.221.18-.398.399-.398s.398.18.398.398c.001.107-.041.209-.117.285-.074.074-.176.117-.284.115zm0-.16c.098.002.187-.057.225-.146.038-.088.019-.191-.05-.262-.068-.068-.172-.09-.263-.053-.089.037-.148.125-.148.221-.001.064.022.127.067.172s.106.07.169.068zm.918-.59c.005-.018.021-.029.039-.029h.104c.024 0 .036.016.028.039l-.342.996c-.005.018-.021.029-.039.027h-.104c-.024 0-.036-.014-.028-.039l.095-.273-.28-.711c-.009-.023.001-.039.026-.039h.103c.018-.002.034.01.039.027l.193.496z" fill="#b3c2c6"/><path d="m29.084 39.98c.3 0 .542.242.542.543 0 .299-.242.541-.542.541-.299 0-.542-.242-.542-.541 0-.3.243-.543.542-.543zm0-.179c-.398 0-.723.322-.723.723 0 .398.324.723.723.723s.724-.324.724-.723c0-.191-.076-.377-.212-.512s-.32-.211-.512-.211z" fill="#b3c2c6"/><path d="m29.229 40.596c-.01 0-.02-.002-.027-.01s-.01-.016-.009-.027v-.072c-.001-.01.002-.02.009-.025.008-.008.018-.012.027-.01h.235c.01-.002.02.002.027.01.007.006.011.016.009.025v.037c0 .168-.102.32-.257.383-.155.064-.334.029-.452-.09-.009-.006-.014-.016-.014-.025s.005-.02.014-.025l.076-.076c.006-.008.016-.014.026-.014.009 0 .019.006.024.014.058.057.142.08.222.061.079-.018.143-.076.168-.154h-.078z" fill="#b3c2c6"/><path d="m12 61.5c0 .189.631.5.631.5h38.738s.631-.313.631-.5z" fill="#b3c2c6"/><path d="m49.75 53.5h-35.5l-2.25 8h40z" fill="#cfd8dd"/><g fill="#6e8189"><path d="m18.729 57.844h-3.885l.244-.975h3.829z"/><path d="m18.164 60.76h-4.05l.242-.973h3.997z"/><path d="m17.744 56.383h-2.535l.243-.971h2.497z"/><path d="m20.912 56.383h-2.534l.197-.971h2.497z"/><path d="m21.965 57.844h-2.589l.179-.975h2.552z"/><path d="m21.538 60.76h-2.699l.18-.973h2.662z"/><path d="m24.912 60.76h-2.699l.134-.973h2.663z"/><path d="m39.088 60.76h-13.5l.088-.973h13.314z"/><path d="m25.203 57.844h-2.59l.133-.975h2.553z"/><path d="m28.439 57.844h-2.59l.089-.975h2.552z"/><path d="m31.675 57.844h-2.588l.041-.975h2.553z"/><path d="m34.913 57.844h-2.589l-.005-.975h2.553z"/><path d="m38.151 57.844h-2.59l-.051-.975h2.553z"/><path d="m39.604 59.301h-2.645l-.069-.973h2.608z"/><path d="m42.462 60.76h-2.7l-.106-.973h2.663z"/><path d="m36.298 59.301h-2.646l-.022-.973h2.608z"/><path d="m32.991 59.301h-2.643l.023-.973h2.607z"/><path d="m29.686 59.301h-2.645l.069-.973h2.607z"/><path d="m26.381 59.301h-2.646l.116-.973h2.608z"/><path d="m23.074 59.301h-2.644l.16-.973h2.609z"/><path d="m19.769 59.301h-5.29l.244-.973h5.215z"/><path d="m24.08 56.383h-2.535l.152-.971h2.497z"/><path d="m27.248 56.383h-2.534l.105-.971h2.498z"/><path d="m30.417 56.383h-2.535l.058-.971h2.498z"/><path d="m33.584 56.383h-2.534l.013-.971h2.499z"/><path d="m36.752 56.383h-2.533l-.032-.971h2.496z"/><path d="m34.789 54.926h-2.478l-.005-.973h2.442z"/><path d="m41.387 57.844h-2.59l-.096-.975h2.553z"/><path d="m44.624 57.844h-2.589l-.142-.975h2.552z"/><path d="m42.909 59.301h-2.644l-.116-.973h2.609z"/><path d="m45.836 60.76h-2.699l-.152-.973h2.663z"/><path d="m49.156 57.844h-3.884l-.189-.975h3.829z"/><path d="m49.521 59.301h-5.951l-.16-.973h5.867z"/><path d="m39.92 56.383h-2.534l-.078-.971h2.498z"/><path d="m43.088 56.383h-2.534l-.124-.971h2.498z"/><path d="m48.791 56.383h-5.069l-.17-.971h4.996z"/><path d="m49.886 60.76h-3.374l-.198-.973h3.33z"/><path d="m48.425 54.926h-3.718l-.187-.973h3.663z"/><path d="m44.088 54.926h-2.48l-.142-.973h2.442z"/><path d="m40.987 54.926h-2.478l-.097-.973h2.442z"/><path d="m37.889 54.926h-2.48l-.051-.973h2.444z"/><path d="m31.689 54.926h-2.477l.041-.973h2.44z"/><path d="m28.592 54.926h-2.481l.087-.973h2.444z"/><path d="m25.491 54.926h-2.478l.133-.973h2.442z"/><path d="m22.392 54.926h-2.479l.179-.973h2.442z"/><path d="m19.293 54.926h-3.718l.242-.973h3.664z"/></g><path d="m32.5 3.5c0 .667-1 .667-1 0 0-.666 1-.666 1 0z" fill="#4e5e67"/></svg>