<svg enable-background="new 0 0 64 64" height="64" viewBox="0 0 64 64" width="64" xmlns="http://www.w3.org/2000/svg" xmlns:xlink="http://www.w3.org/1999/xlink"><radialGradient id="a" cx="30.5327" cy="12.8198" gradientUnits="userSpaceOnUse" r="9.2216"><stop offset="0" stop-color="#ff000e"/><stop offset=".2721" stop-color="#fa000d"/><stop offset=".593" stop-color="#ec0008"/><stop offset=".9372" stop-color="#d40001"/><stop offset="1" stop-color="#cf0000"/></radialGradient><path d="m47 29.908c-.002 16.461-8.23 32.092-15 32.092-6.771 0-14.999-15.631-15-32.092 0-17.922 6.719-27.152 14.999-27.154 8.284.001 15.001 9.231 15.001 27.154z" fill="#302c3b"/><ellipse cx="22.793" cy="30.734" fill="#1a1626" rx="3.68" ry="8.327"/><path d="m24.425 25.345c-.635-1.521-1.532-2.479-2.53-2.479-1.921-.002-3.479 3.521-3.479 7.867.001 4.346 1.56 7.872 3.479 7.87.997 0 1.894-.955 2.53-2.479-.588-1.408-.949-3.301-.951-5.391.003-2.085.363-3.982.951-5.388z" fill="#4e5e67"/><path d="m24.991 25.911c-.525 1.261-.851 2.954-.851 4.823.001 1.87.325 3.567.851 4.827.524-1.262.848-2.957.85-4.826 0-1.869-.324-3.564-.85-4.824z" fill="#6e8189"/><ellipse cx="41.207" cy="30.735" fill="#1a1626" rx="3.68" ry="8.325"/><path d="m39.576 36.127c.635 1.521 1.531 2.479 2.529 2.479 1.92-.002 3.477-3.523 3.479-7.871 0-4.346-1.559-7.869-3.479-7.868-1 0-1.895.955-2.529 2.479.586 1.408.949 3.303.949 5.391 0 2.087-.363 3.98-.949 5.39z" fill="#4e5e67"/><path d="m39.008 35.559c.525-1.258.848-2.957.852-4.823-.002-1.871-.326-3.564-.85-4.825-.525 1.261-.85 2.956-.85 4.824 0 1.87.324 3.564.848 4.824z" fill="#6e8189"/><path d="m42.309 14.64c.004 5.506-4.613 9.971-10.308 9.971s-10.31-4.463-10.312-9.971c.001-5.507 4.617-9.971 10.31-9.971 5.694 0 10.31 4.464 10.31 9.971z" fill="#1a1626"/><path d="m35.686 3.486c0 .884-7.375.884-7.375 0 .002-1.981 7.375-1.982 7.375 0z" fill="#302c3b"/><path d="m31.999 6.14c-4.697 0-8.5 3.804-8.5 8.5 0 4.693 3.802 8.5 8.5 8.5 4.695 0 8.5-3.807 8.5-8.5-.001-4.696-3.806-8.5-8.5-8.5z" fill="url(#a)"/></svg>