<svg enable-background="new 0 0 64 64" height="64" viewBox="0 0 64 64" width="64" xmlns="http://www.w3.org/2000/svg" xmlns:xlink="http://www.w3.org/1999/xlink"><linearGradient id="a"><stop offset="0" stop-color="#fada72"/><stop offset="1" stop-color="#ebaf3d"/></linearGradient><linearGradient id="b" gradientUnits="userSpaceOnUse" x1="4" x2="60" xlink:href="#a" y1="32" y2="32"/><linearGradient id="c"><stop offset="0" stop-color="#ebaf3d"/><stop offset="1" stop-color="#fada72"/></linearGradient><linearGradient id="d" gradientUnits="userSpaceOnUse" x1="4" x2="60" xlink:href="#c" y1="32" y2="32"/><linearGradient id="e" gradientUnits="userSpaceOnUse" x1="8" x2="56" xlink:href="#c" y1="32" y2="32"/><linearGradient id="f" gradientUnits="userSpaceOnUse" x1="8" x2="56" xlink:href="#a" y1="32" y2="32"/><radialGradient id="g" cx="95.9385" cy="93.3838" gradientTransform="matrix(.8375 0 0 .8739 -48.0477 -48.8182)" gradientUnits="userSpaceOnUse" r="22.4219"><stop offset="0" stop-color="#fa0"/><stop offset=".3422" stop-color="#ffa700"/><stop offset=".5973" stop-color="#ff9d00"/><stop offset=".8234" stop-color="#ff8d00"/><stop offset="1" stop-color="#ff7b00"/></radialGradient><linearGradient id="h" gradientUnits="userSpaceOnUse" x1="32.0005" x2="32.0005" y1="41.7549" y2="25.9053"><stop offset="0" stop-color="#ffb700"/><stop offset=".2854" stop-color="#ffc700"/><stop offset=".619" stop-color="#ffd200"/><stop offset="1" stop-color="#ffd500"/></linearGradient><radialGradient id="i" cx="95.8486" cy="92.4756" gradientTransform="matrix(.8375 0 0 .5788 -48.0477 -21.5311)" gradientUnits="userSpaceOnUse" r="35.3546"><stop offset=".0606" stop-color="#fee29a"/><stop offset=".0976" stop-color="#f8e09c"/><stop offset=".1479" stop-color="#e6daa1"/><stop offset=".2058" stop-color="#cacfaa"/><stop offset=".2694" stop-color="#a2c1b6"/><stop offset=".3378" stop-color="#6fafc6"/><stop offset=".4089" stop-color="#3199d9"/><stop offset=".4606" stop-color="#0087e8"/><stop offset="1" stop-color="#004c78"/></radialGradient><path d="m4 60v-56h56z" fill="url(#b)"/><path d="m60 60h-56l56-56z" fill="url(#d)"/><path d="m8 56v-48h48z" fill="url(#e)"/><path d="m56 56h-48l48-48z" fill="url(#f)"/><path d="m10 10h44v44h-44z" fill="#fff"/><path d="m14 14h36v19.878h-36z" fill="url(#g)"/><ellipse cx="32" cy="33.83" fill="url(#h)" rx="7.8" ry="7.925"/><path d="m14 33.879h36v16.122h-36z" fill="url(#i)"/><g fill="#feec9a"><path d="m30.198 42.899c0 1.029 3.604 0 3.604 0s-3.604-1.029-3.604 0z" opacity=".7"/><path d="m28.851 41.071s6.299 1.027 6.299 0c-.001-1.03-6.299 0-6.299 0z" opacity=".7"/><path d="m32.9 39.698s4.499 1.029 4.499 0-4.499 0-4.499 0z" opacity=".7"/><path d="m39.198 35.583s-14.396-2.058-14.396 0c0 2.057 14.396 0 14.396 0z" opacity=".7"/><path d="m26.601 37.869s11.699 2.057 11.699 0-11.699 0-11.699 0z" opacity=".7"/><path d="m26.601 39.698c0 1.029 5.399 0 5.399 0s-5.399-1.029-5.399 0z" opacity=".7"/></g><path d="m16.775 27.745c1.305-.75 2.618-1.727 4.459-1.451 2.117.319 3.094.733 4.222-.193 1.13-.926 2.051 1.088 3.601 1.459 1.548.37 5.001.659 3.019.871-2.454.264-17.869.864-17.229 0 .22-.297 1.201-.267 1.928-.686z" fill="#f9b700"/><path d="m46.418 31.407c-1.029-.332-2.066-.766-3.52-.643-1.669.142-2.438.326-3.328-.085-.891-.41-1.618.482-2.841.648-1.223.163-3.945.292-2.382.386 1.937.116 14.097.384 13.591 0-.173-.132-.946-.12-1.52-.306z" fill="#f9b700"/><path d="m27.421 31.623c.423-.743 1.151-.923 1.727-.411-.266-.771-1.378-.809-1.728-.114-.35-.697-1.464-.659-1.729.112.577-.513 1.307-.331 1.73.413z" fill="#f9b700"/><path d="m25.69 32.548c.255-.447.693-.557 1.042-.248-.161-.464-.83-.487-1.042-.068-.21-.42-.88-.396-1.039.066.346-.308.786-.198 1.039.25z" fill="#f9b700"/><path d="m29.147 32.453c.167-.291.453-.362.68-.161-.104-.304-.542-.317-.68-.045-.138-.274-.574-.26-.678.044.226-.202.513-.13.678.162z" fill="#f9b700"/><path d="m22.583 31.042c.228-.401.619-.498.93-.223-.143-.415-.742-.435-.93-.062-.189-.375-.789-.354-.933.062.311-.276.704-.177.933.223z" fill="#ffe463"/><path d="m23.325 31.859c.146-.253.394-.315.592-.14-.091-.264-.47-.277-.592-.04-.118-.237-.499-.225-.59.039.198-.174.448-.113.59.141z" fill="#ffe463"/><path d="m14 14v36.001h.817v-35.169h35.183v-.832z" fill="#1a1626" opacity=".3"/></svg>