<svg enable-background="new 0 0 64 64" height="64" viewBox="0 0 64 64" width="64" xmlns="http://www.w3.org/2000/svg" xmlns:xlink="http://www.w3.org/1999/xlink"><linearGradient id="a" gradientUnits="userSpaceOnUse" x1="53.1162" x2="53.1162" y1="16" y2="9"><stop offset="0" stop-color="#517813"/><stop offset="1" stop-color="#a2eb2d"/></linearGradient><linearGradient id="b" gradientUnits="userSpaceOnUse" x1="39.2988" x2="39.2988" y1="16" y2="9"><stop offset="0" stop-color="#08677a"/><stop offset="1" stop-color="#00d6ff"/></linearGradient><linearGradient id="c" gradientUnits="userSpaceOnUse" x1="25.4829" x2="25.4829" y1="16" y2="9"><stop offset="0" stop-color="#990009"/><stop offset="1" stop-color="#ff000e"/></linearGradient><linearGradient id="d" gradientUnits="userSpaceOnUse" x1="32.0005" x2="32.0005" y1="55" y2="9.0005"><stop offset="0" stop-color="#ffd699"/><stop offset="1" stop-color="#ffe7ba"/></linearGradient><path d="m45.232 16h15.768v-2.863c-.396 0-.76-.225-.938-.577l-.469-2.981c-.175-.355-.538-.579-.937-.579h-11.418c-.396 0-.758.224-.938.578l-.602 3.246c-.102.202-.266.365-.467.468v2.708z" fill="url(#a)"/><path d="m31.414 16h15.77v-2.863c-.398 0-.76-.225-.938-.577l-.469-2.981c-.175-.355-.541-.579-.937-.579h-11.418c-.396 0-.76.224-.938.578l-.602 3.246c-.102.202-.266.365-.469.468v2.708z" fill="url(#b)"/><path d="m17.598 16h15.77v-2.863c-.398 0-.76-.225-.938-.577l-.469-2.981c-.176-.355-.541-.579-.938-.579h-11.418c-.396 0-.76.224-.938.578l-.602 3.246c-.102.202-.266.365-.469.468v2.708z" fill="url(#c)"/><path d="m61.064 13.137h-41.513c-.398 0-.76-.225-.938-.577l-.469-2.981c-.175-.355-.54-.579-.937-.579h-11.418c-.396 0-.76.224-.938.578l-.601 3.246c-.102.202-.266.365-.469.468l-1.203.601c-.355.176-.578.539-.578.934v39.673c0 .275.225.5.5.5h59c.275 0 .5-.225.5-.5v-40.786c-.176-.355-.541-.577-.936-.577z" fill="url(#d)"/></svg>