<svg enable-background="new 0 0 64 64" height="64" viewBox="0 0 64 64" width="64" xmlns="http://www.w3.org/2000/svg" xmlns:xlink="http://www.w3.org/1999/xlink"><linearGradient id="a"><stop offset="0" stop-color="#302c3b"/><stop offset="1" stop-color="#4e5e67"/></linearGradient><linearGradient id="b" gradientUnits="userSpaceOnUse" x1="32.0005" x2="32.0005" xlink:href="#a" y1="62" y2="23.0005"/><linearGradient id="c" gradientUnits="userSpaceOnUse" x1="32.0005" x2="32.0005" y1="48.5" y2="36.5"><stop offset="0" stop-color="#7e8a8f"/><stop offset="1" stop-color="#cfd8dd"/></linearGradient><linearGradient id="d" gradientUnits="userSpaceOnUse" x1="32.0005" x2="32.0005" y1="48" y2="37"><stop offset=".7515" stop-color="#fff"/><stop offset=".812" stop-color="#fbfcfc"/><stop offset=".8702" stop-color="#f0f1f2"/><stop offset=".9275" stop-color="#dce0e2"/><stop offset=".9838" stop-color="#c1c7cc"/><stop offset="1" stop-color="#b8bfc4"/></linearGradient><linearGradient id="e" gradientUnits="userSpaceOnUse" x1="32.0005" x2="32.0005" xlink:href="#a" y1="22.208" y2="5.5059"/><linearGradient id="f" gradientUnits="userSpaceOnUse" x1="45.8848" x2="45.8848" y1="9" y2="2"><stop offset="0" stop-color="#517813"/><stop offset="1" stop-color="#a2eb2d"/></linearGradient><linearGradient id="g" gradientUnits="userSpaceOnUse" x1="31.3853" x2="31.3853" y1="14" y2="7"><stop offset="0" stop-color="#08677a"/><stop offset="1" stop-color="#00d6ff"/></linearGradient><linearGradient id="h" gradientUnits="userSpaceOnUse" x1="16.8848" x2="16.8848" y1="18.8086" y2="11.8086"><stop offset="0" stop-color="#990009"/><stop offset="1" stop-color="#ff000e"/></linearGradient><linearGradient id="i" gradientUnits="userSpaceOnUse" x1="32.0005" x2="32.0005" y1="22.208" y2="16"><stop offset="0" stop-color="#ffd699"/><stop offset="1" stop-color="#ffe7ba"/></linearGradient><path d="m61 62h-58l-1-39h60z" fill="url(#b)"/><path d="m62 23h-60l8-18h44z" fill="#6e8189"/><path d="m42.5 47.5c0 .549-.451 1-1 1h-19c-.551 0-1-.451-1-1v-10c0-.551.449-1 1-1h19c.549 0 1 .449 1 1z" fill="url(#c)"/><path d="m42 47.5c0 .275-.225.5-.5.5h-19c-.275 0-.5-.225-.5-.5v-10c0-.275.225-.5.5-.5h19c.275 0 .5.225.5.5z" fill="url(#d)"/><path d="m60.605 22.208-57.209-.002 7.042-16.7 43.125.002z" fill="url(#e)"/><path d="m11.076 5.775h42v4.098h-42z" fill="#fff"/><path d="m38.5 9h14.77v-2.708c-.398 0-.76-.38-.938-.732l-.469-2.981c-.175-.355-.541-.579-.937-.579h-10.418c-.396 0-.76.224-.938.578l-.602 3.246c-.102.202-.266.365-.469.468v2.708z" fill="url(#f)"/><path d="m54.5 21.208v-14.017c0-.55-.45-1-1-1h-43c-.55 0-1 .45-1 1v14.017z" fill="#e6ba7a"/><path d="m9.809 10.775h44.383v4.098h-44.383z" fill="#fff"/><path d="m24 14h14.77v-2.708c-.398 0-.76-.38-.938-.732l-.469-2.981c-.175-.355-.541-.579-.937-.579h-10.418c-.396 0-.76.224-.938.578l-.602 3.246c-.102.202-.266.365-.469.468v2.708z" fill="url(#g)"/><path d="m55.5 22.208v-10.017c0-.55-.45-1-1-1h-45c-.55 0-1 .45-1 1v10.017z" fill="#f7d094"/><path d="m9.076 15.584h46v4.098h-46z" fill="#fff"/><path d="m9.5 18.809h14.77v-2.708c-.398 0-.76-.38-.938-.732l-.469-2.981c-.176-.354-.541-.578-.938-.578h-10.417c-.396 0-.76.224-.938.578l-.602 3.246c-.102.202-.266.365-.469.468v2.707z" fill="url(#h)"/><path d="m55.5 16h-47c-.55 0-1 .45-1 1v5.208h49v-5.208c0-.55-.45-1-1-1z" fill="url(#i)"/></svg>