<svg enable-background="new 0 0 64 64" height="64" viewBox="0 0 64 64" width="64" xmlns="http://www.w3.org/2000/svg" xmlns:xlink="http://www.w3.org/1999/xlink"><linearGradient id="a" gradientTransform="matrix(-1 0 0 1 -395.4404 98.5854)" gradientUnits="userSpaceOnUse" x1="-438.2075" x2="-432.6696" y1="-54.3794" y2="-54.3794"><stop offset=".2485" stop-color="#6e787a"/><stop offset=".7091" stop-color="#d6dbde"/><stop offset=".7561" stop-color="#cfd5d7"/><stop offset=".8235" stop-color="#bcc3c5"/><stop offset=".9032" stop-color="#9da5a7"/><stop offset=".9916" stop-color="#727c7e"/><stop offset="1" stop-color="#6e787a"/></linearGradient><linearGradient id="b"><stop offset="0" stop-color="#3b4042"/><stop offset=".0085" stop-color="#3c4143"/><stop offset=".3281" stop-color="#696f72"/><stop offset=".6113" stop-color="#8a9094"/><stop offset=".845" stop-color="#9ea5a9"/><stop offset="1" stop-color="#a5acb0"/></linearGradient><linearGradient id="c" gradientTransform="matrix(-1 0 0 1 -395.4404 98.5854)" gradientUnits="userSpaceOnUse" x1="-435.373" x2="-435.5097" xlink:href="#b" y1="-63.8647" y2="-65.819"/><linearGradient id="d" gradientTransform="matrix(-1 0 0 1 -395.4404 98.5854)" gradientUnits="userSpaceOnUse" x1="-435.3726" x2="-435.5091" xlink:href="#b" y1="-61.6338" y2="-63.5861"/><linearGradient id="e" gradientTransform="matrix(-1 0 0 1 -395.4404 98.5854)" gradientUnits="userSpaceOnUse" x1="-435.3726" x2="-435.5093" xlink:href="#b" y1="-59.4019" y2="-61.358"/><linearGradient id="f" gradientTransform="matrix(-1 0 0 1 -395.4404 98.5854)" gradientUnits="userSpaceOnUse" x1="-435.3721" x2="-435.5089" xlink:href="#b" y1="-57.1709" y2="-59.1271"/><linearGradient id="g" gradientTransform="matrix(-1 0 0 1 -395.4404 98.5854)" gradientUnits="userSpaceOnUse" x1="-435.3711" x2="-435.5079" xlink:href="#b" y1="-50.939" y2="-52.8951"/><linearGradient id="h" gradientTransform="matrix(-1 0 0 1 -395.4404 98.5854)" gradientUnits="userSpaceOnUse" x1="-435.3706" x2="-435.5074" xlink:href="#b" y1="-48.708" y2="-50.6642"/><linearGradient id="i" gradientTransform="matrix(-1 0 0 1 -395.4404 98.5854)" gradientUnits="userSpaceOnUse" x1="-435.3706" x2="-435.5071" xlink:href="#b" y1="-46.48" y2="-48.4322"/><linearGradient id="j" gradientTransform="matrix(-1 0 0 1 -395.4404 98.5854)" gradientUnits="userSpaceOnUse" x1="-435.3711" x2="-435.5078" xlink:href="#b" y1="-44.248" y2="-46.2032"/><linearGradient id="k" gradientTransform="matrix(-1 0 0 1 -395.4404 98.5854)" gradientUnits="userSpaceOnUse" x1="-435.3706" x2="-435.5073" xlink:href="#b" y1="-42.0171" y2="-43.9713"/><linearGradient id="l"><stop offset="0" stop-color="#d6dbde"/><stop offset=".1665" stop-color="#ccd2d5"/><stop offset=".4451" stop-color="#b3b9bc"/><stop offset=".7994" stop-color="#899194"/><stop offset="1" stop-color="#6e787a"/></linearGradient><linearGradient id="m" gradientUnits="userSpaceOnUse" x1="36" x2="44" xlink:href="#l" y1="28.9316" y2="28.9316"/><linearGradient id="n" gradientUnits="userSpaceOnUse" x1="28" x2="28" y1="-8.2988" y2="48.0136"><stop offset="0" stop-color="#565e61"/><stop offset=".5576" stop-color="#c4ccd1"/><stop offset=".6275" stop-color="#bec6cb"/><stop offset=".7195" stop-color="#aeb6bb"/><stop offset=".824" stop-color="#939b9f"/><stop offset=".9368" stop-color="#6e7679"/><stop offset="1" stop-color="#565e61"/></linearGradient><linearGradient id="o" gradientUnits="userSpaceOnUse" x1="35.5391" x2="44.4629" xlink:href="#l" y1="59.6924" y2="59.6924"/><linearGradient id="p" gradientUnits="userSpaceOnUse" x1="12.3413" x2="21.4182" y1="25.0005" y2="25.0005"><stop offset="0" stop-color="#565e61"/><stop offset=".3154" stop-color="#7d8588"/><stop offset=".775" stop-color="#b0b8bd"/><stop offset="1" stop-color="#c4ccd1"/></linearGradient><linearGradient id="q" gradientUnits="userSpaceOnUse" x1="33.5156" x2="33.5156" y1="48.25" y2="2.4447"><stop offset="0" stop-color="#565e61"/><stop offset=".5576" stop-color="#a9b1b5"/><stop offset=".6412" stop-color="#a3abaf"/><stop offset=".7514" stop-color="#939b9f"/><stop offset=".8758" stop-color="#788083"/><stop offset="1" stop-color="#565e61"/></linearGradient><path d="m41.547 60.443h10.393c.307 0 .506-.336.506-.75s-.199-.75-.506-.75c-.309 0-10.393 0-10.393 0z" fill="#717b80"/><path d="m51.889 59.693c0 1.996 1.111 2.004 1.111 0 0-1.998-1.111-2.004-1.111 0z" fill="#a2abae"/><path d="m38.455 60.443c-2.492 0-10.246 0-10.393 0-.307 0-.506-.336-.506-.75s.199-.75.506-.75 10.393 0 10.393 0z" fill="#717b80"/><path d="m28.113 59.693c0 1.996-1.113 2.004-1.113 0 0-1.998 1.113-2.004 1.113 0z" fill="#a2abae"/><path d="m37.465 30.742h5.072v26.928h-5.072z" fill="url(#a)"/><path d="m37.465 34.131 5.072.771c.172.002.172-1.545 0-1.545l-5.072-.773c-.172 0-.172 1.547 0 1.547z" fill="url(#c)"/><path d="m37.465 36.361 5.07.771c.174.002.174-1.545.002-1.545l-5.072-.771c-.172-.003-.172 1.545 0 1.545z" fill="url(#d)"/><path d="m37.465 38.592 5.07.773c.174 0 .174-1.545 0-1.545l-5.07-.775c-.172.002-.172 1.545 0 1.547z" fill="url(#e)"/><path d="m37.465 40.822 5.07.773c.174.002.174-1.547 0-1.547l-5.07-.773c-.172 0-.172 1.547 0 1.547z" fill="url(#f)"/><path d="m37.463 47.053 5.072.775c.172-.002.174-1.547 0-1.547l-5.072-.773c-.172 0-.172 1.545 0 1.545z" fill="url(#g)"/><path d="m37.463 49.285 5.072.773c.172-.004.172-1.547 0-1.547l-5.072-.773c-.172 0-.172 1.545 0 1.547z" fill="url(#h)"/><path d="m37.463 51.518 5.072.77c.172.002.172-1.543 0-1.543l-5.072-.773c-.172-.001-.172 1.544 0 1.546z" fill="url(#i)"/><path d="m37.463 53.744 5.072.775c.174 0 .172-1.547 0-1.545l-5.072-.775c-.172.002-.172 1.545 0 1.545z" fill="url(#j)"/><path d="m37.463 55.977 5.072.773c.172 0 .172-1.547 0-1.547l-5.072-.771c-.172-.002-.172 1.545 0 1.545z" fill="url(#k)"/><path d="m36 27.988h8v1.887h-8z" fill="url(#m)"/><path d="m36 29.875 1.465 1.867h5.072l1.463-1.867z" fill="#717b80"/><path d="m43.865 41.1h-20.398c-.777 0-1.133-.311-1.133-1.148v-29.9c0-.84.355-1.15 1.133-1.15h20.355v-.502c-4.295-.261-5.234-6.4-17.006-6.4-21.074 0-21.102 46 0 46 6.375 0 8.051-3.461 11.916-2.439.313.082.633.141.955.141h4.18c.625 0 1.133-.516 1.133-1.15v-2.297c0-.638-.508-1.155-1.135-1.155z" fill="url(#n)"/><path d="m35.539 57.885v3.615c0 .277.225.5.5.5h7.924c.275 0 .5-.223.5-.5v-3.615c0-.275-.225-.5-.5-.5h-7.924c-.275 0-.5.224-.5.5z" fill="url(#o)"/><path d="m20.621 8.113c.01-1.033-1.463-1.516-2.184-.707-7.643 8.561-7.771 26.412.061 35.195.713.799 2.172.314 2.168-.707-.041-9.74-.17-19.861-.045-33.781z" fill="url(#p)"/><path d="m44 8.4h-20.471c-1.084 0-1.635.555-1.635 1.65v29.9c0 1.094.551 1.648 1.635 1.648h12.031c.865 0 1.904-.004 1.904-.004v-.5s-1.039-.496-1.904-.496c-2.863 0-12.031 0-12.031 0-.499 0-.635-.08-.635-.648v-29.9c0-.568.136-.65.635-.65h10.449l1.75 1.299h8.272c1.516 0 1.516-2.299 0-2.299z" fill="url(#q)"/></svg>