<svg enable-background="new 0 0 64 64" height="64" viewBox="0 0 64 64" width="64" xmlns="http://www.w3.org/2000/svg" xmlns:xlink="http://www.w3.org/1999/xlink"><radialGradient id="a" cx="462.5547" cy="-6.8345" gradientTransform="matrix(.7071 -.7087 .7071 .7087 -272.5309 382.4414)" gradientUnits="userSpaceOnUse" r="11.9215"><stop offset="0" stop-color="#abbdc5"/><stop offset=".2599" stop-color="#a7b8c0"/><stop offset=".5664" stop-color="#9aaab2"/><stop offset=".8952" stop-color="#86949a"/><stop offset="1" stop-color="#7e8b91"/></radialGradient><linearGradient id="b" gradientTransform="matrix(.7071 -.7071 .7071 .7071 -272.5372 382.7539)" gradientUnits="userSpaceOnUse" x1="449.1768" x2="477.4355" y1="-38.2334" y2="-38.2334"><stop offset="0" stop-color="#6e8088"/><stop offset=".0263" stop-color="#88979e"/><stop offset=".0606" stop-color="#a2afb5"/><stop offset=".0985" stop-color="#b6c1c7"/><stop offset=".1414" stop-color="#c4ced3"/><stop offset=".1935" stop-color="#ccd6db"/><stop offset=".28" stop-color="#cfd8dd"/><stop offset=".31" stop-color="#d2dbdf"/><stop offset=".4961" stop-color="#e1e7e9"/><stop offset=".65" stop-color="#e6ebed"/><stop offset="1" stop-color="#b3c2c6"/></linearGradient><radialGradient id="c" cx="462.3428" cy="-32.0854" fx="462.3103" fy="-32.081" gradientTransform="matrix(.7071 -.7087 .2226 .2231 -288.0775 366.8593)" gradientUnits="userSpaceOnUse" r="17.259"><stop offset=".6121" stop-color="#bf8b65"/><stop offset=".8061" stop-color="#ebbb96"/></radialGradient><linearGradient id="d" gradientTransform="matrix(.7071 -.7071 .7071 .7071 -272.5372 382.7539)" gradientUnits="userSpaceOnUse" x1="457.2041" x2="465.0342" y1="-5.8301" y2="-5.8301"><stop offset="0" stop-color="#7b9099"/><stop offset="1" stop-color="#302c3b"/></linearGradient><path d="m38.323 58.384c4.48 8.62 17.352.221 21.998-8.427.152-.286.008-.906.142-1.192.042-.088.371.159.413.071.231-.516-.009-1.281.158-1.79.027-.084.493.084.52-.001.207-.685-.071-1.499-.001-2.154.01-.09.438-.04.444-.129.05-.676-.542-1.447-.666-2.067-.017-.082.524-.045.504-.126-.396-1.632-1.451-3.023-3.352-3.989-8.917-3.55-23.927 10.457-20.16 19.804z" fill="url(#a)"/><path d="m58.483 38.579s-24.473-13.776-38.43-36.009c-1.583-2.525-16.288 3.463-18.052 15.429-.136.914 19.031 16.516 36.322 40.385-1.125-8.706 13.505-22.15 20.16-19.805z" fill="url(#b)"/><path d="m9.651 25.628c4.092 4.103 7.84 8.259 11.933 12.36-.002.002.419-.186.45-.292-4.719-4.739-6.988-9.875-6.956-9.849-.003-.004 1.287 2.453 3.45 5.229-.657-.904-.982-1.564-1.089-1.953-.098-.242-.154-.526-.125-.626-.163-.21-.31-.586-.296-.729-.227-.212-.451-.679-.333-.72-.214-.3-.374-.854-.162-.722.008-.046.021-.076.035-.093-.173-.31-.269-.883-.119-.813-.174-.346-.226-1.006-.03-.792.014-.024.026-.044.037-.058-.134-.366-.11-.982.063-.752.006-.01.015-.014.02-.021-.12-.371-.054-1.009.111-.762.006-.011.017-.017.026-.025-.135-.345-.134-.867.049-.678.037-.062.073-.078.106-.065.015-.355.173-.735.272-.502.015-.013.024-.017.038-.023.024-.304.142-.578.241-.384.037-.031.07-.042.095-.037-.072-.363.172-1.009.292-.725.102-.063.152-.016.164.078.152-.32.527-.625.512-.359.302-.027.022.387-.266.587.002.002.001.002.001.004.31-.043.013.447-.276.644.017.205-.236.709-.46.757.008.136-.065.371-.171.552.088.12-.089.62-.29.802.124.063.084.611-.059.873.153-.048.135.427.021.743.095.07.095.486.013.77.072-.055.13.054.162.227-.014-.163.016-.258.111-.17.02-.043.035-.065.054-.079-.08-.254-.102-.599-.05-.727-.129-.338-.155-.771.02-.608.015-.035.033-.057.048-.071-.021-.287.029-.528.149-.368.012-.02.026-.032.039-.046-.065-.367.009-.835.151-.616.02-.023.036-.038.052-.045-.015-.293.094-.67.194-.707-.038-.38.171-.939.28-.666.009-.005.014-.008.022-.014-.016-.37.398-.984.446-.666.098-.03.141.004.144.076.15-.244.361-.406.368-.197.328-.063 0 .49-.296.681.026.121-.14.41-.327.58 0 .008 0 .016.001.028.337-.023-.104.585-.413.689.008.015.016.031.022.058.292-.138.091.531-.153.784.154.013.047.562-.132.824.091.1.043.564-.083.821.063.176.076.517.023.744.199-.174.195.441.068.792.138.073.21.853.044 1.055.036.19.049.438.021.616.101.059.178.521.148.838.484.682 1.314 1.729 2.715 3.217-.521-.83-.847-1.474-1.033-1.935-.189-.092-.37-.688-.362-.925-.149-.222-.271-.559-.253-.693-.227-.218-.447-.69-.327-.725-.209-.306-.36-.863-.149-.728.011-.049.023-.074.039-.093-.172-.314-.255-.89-.102-.813-.171-.349-.207-1.015-.015-.794.013-.023.025-.042.035-.056-.125-.37-.086-.986.08-.752.009-.01.015-.017.023-.023-.112-.371-.032-1.014.128-.756.01-.012.02-.02.027-.024-.122-.354-.111-.872.065-.678.041-.061.077-.078.11-.066.024-.354.195-.735.288-.497.015-.011.026-.015.041-.02.028-.307.155-.576.248-.38.041-.03.074-.041.099-.038-.063-.366.202-1.004.313-.715.107-.063.156-.016.166.079.164-.316.548-.615.526-.35.301-.019.008.39-.284.582v.005c.314-.036 0 .444-.296.64.012.205-.255.702-.483.749.005.136-.076.369-.187.547.088.12-.104.616-.308.797.117.066.068.612-.081.871.156-.045.126.428.008.742.094.074.083.487-.003.772.071-.055.129.058.159.233-.013-.167.018-.263.114-.17.017-.046.037-.067.057-.078-.078-.258-.091-.602-.039-.729-.121-.341-.137-.772.036-.609.017-.035.032-.058.05-.066-.018-.289.041-.528.158-.368.016-.018.028-.033.039-.042-.059-.37.03-.838.167-.616.021-.021.038-.034.057-.044-.012-.292.107-.665.209-.705-.029-.379.194-.935.299-.659.01-.006.015-.008.021-.012-.001-.372.429-.98.468-.656.099-.029.14.006.142.076.16-.238.377-.396.376-.188.327-.053-.014.489-.315.676.025.123-.153.404-.345.572-.001.009.001.015.001.028.339-.016-.119.585-.434.682.009.012.016.032.021.06.3-.135.083.533-.17.779.156.018.033.563-.15.819.092.104.033.567-.098.823.058.176.067.518.008.744.203-.175.188.449.053.792.137.076.195.845.033 1.048.051.282.045.693-.072.814.101.24.253.547.512.954-.979-2.714 2.314-3.524 2.359-3.491-.148-.093-4.612 1.839-.228 5.637 1.16-2.914 3.024-5.483 5.376-7.491-.702-.724-1.406-1.447-2.12-2.162-.236.202-.468.408-.693.62-.294-.297-.59-.592-.885-.883.181-.168.363-.334.549-.496-.509-.04-.957-.37-.896-.995.045-.461.317-.758.663-.904-.546-.035-1.033-.366-.956-.988.053-.442.338-.722.699-.852-.563-.048-1.06-.384-.973-.979.182-1.297 2.598-1.012 2.442.084.665-.675 2.421-.266 2.253.626.691-.612 2.414-.159 2.283.657.229-.09.457-.177.689-.257.297.294.592.589.886.883-.298.104-.592.215-.884.334.712.716 1.413 1.437 2.103 2.161.675-.275 1.365-.513 2.071-.71-3.942-3.977-8.572-8.188-12.415-12.446-7.512 1.717-12.926 10.245-13.118 13.302zm2.537 1.714c-.087.271-.357.005-.271-.265.089-.267.359-.005.271.265zm2.377 1.81c-.095.269-.363.002-.269-.269.096-.269.364-.002.269.269zm-3.618-5.589c-.074.17-.254-.004-.18-.174.074-.169.255.005.18.174zm1.927 1.397c-.079.169-.259-.004-.183-.177.082-.167.262.007.183.177zm2.318.132c-.095.163-.274-.012-.184-.175.096-.162.278.015.184.175zm-1.421-3.387c-.106.154-.29-.019-.187-.173.104-.151.29.02.187.173zm1.221.576c-.159.229-.437-.029-.276-.258.163-.226.44.034.276.258zm7.841 6.349c-.117.15-.297-.031-.18-.182.12-.145.301.034.18.182zm2.255.966c-.186.214-.452-.058-.268-.271.191-.213.458.058.268.271zm-9.321-10.182c-.134.142-.323-.028-.189-.17.131-.14.32.03.189.17zm2.23 1.288c-.131.131-.318-.04-.187-.173.134-.13.32.043.187.173zm3.624 2.82c-.208.194-.482-.071-.277-.265.206-.193.484.073.277.265zm-5.842-6.575c.137-.117.33.048.191.17-.137.122-.328-.045-.191-.17zm4.642 4.377c.142-.123.331.053.189.175-.142.123-.329-.052-.189-.175zm2.8 2.363c-.145.123-.328-.055-.185-.178.145-.123.33.055.185.178zm-1.57-10.054c.258-.101.563.153.304.253-.259.102-.563-.151-.304-.253zm3.897 6.091c-.254.126-.538-.138-.282-.266.255-.125.54.14.282.266zm-2.168-1.423c-1.419.754-3.305.76-4.388-.211-1.077-.963-.987-2.531.373-3.296 1.358-.77 3.517-.419 4.652.56 1.142.978.779 2.189-.637 2.947zm5.31.941c-.185.061-.372-.116-.19-.178.183-.057.372.117.19.178z" fill="#4e5e67"/><path d="m30.207 25.345c-.189-.192-.442-.181-.698-.067-.454-.464-1.254.021-.799.488-.202.166-.287.359-.096.551.74.753 2.327-.221 1.593-.972z" fill="#4e5e67"/><g fill="#6e8189"><path d="m8.556 16.152c-.08-.098-.095-.217-.043-.338.097-.244.203-.482.313-.719.055-.107.124-.116.207-.038.296.31.532.175.759-.23.259-.462.297-.897.031-1.257-.728-.971-1.454-1.941-2.176-2.913-.071-.095-.067-.208.01-.315.15-.212.303-.415.466-.619.08-.103.169-.105.235-.014.713.966 1.429 1.93 2.146 2.896.692.931.411 2.14-.081 3.062-.481.868-1.106 1.354-1.867.485z"/><path d="m10.33 11.139c-.931-1.255-.736-3.301.717-4.337 1.45-1.048 3.497-.689 4.36.5.874 1.194.218 2.757-1.166 3.87-1.387 1.102-2.974 1.234-3.911-.033zm3.983-3.265c-.579-.791-1.772-.933-2.681-.271-.902.661-1.089 1.85-.484 2.668.605.826 1.622.777 2.502.093.879-.692 1.246-1.691.663-2.49z"/><path d="m19.006 4.015c-.187.759-.351 1.569-.489 2.427.398.545.797 1.091 1.198 1.64.063.087.021.155-.114.199-.267.08-.531.167-.79.261-.134.046-.245.025-.308-.062-.405-.557-.808-1.109-1.21-1.661-1.126-.478-2.234-.931-3.331-1.364-.151-.062-.141-.163.011-.228.29-.129.585-.254.882-.366.112-.044.21-.039.31.008.723.322 1.448.651 2.177.991.063-.578.133-1.137.215-1.676.009-.074.068-.124.188-.146.327-.063.656-.117.988-.163.173-.021.296.033.273.14z"/><path d="m9.979 17.796c.137.153.273.307.405.462 3.006-4.635 7.869-8.124 13.89-9.603-.11-.149-.232-.299-.341-.449-6.05 1.46-10.931 4.947-13.954 9.59z"/><path d="m10.878 18.863c.13.161.262.322.389.487 3.008-4.62 7.866-8.098 13.872-9.571-.11-.152-.239-.299-.349-.449-6.023 1.456-10.887 4.918-13.912 9.533z"/><path d="m38.535 26.074c-6.606 2.791-11.709 8.364-13.875 15.295.233.265.465.523.7.793 2.168-7.014 7.339-12.65 14.037-15.43-.285-.221-.576-.437-.862-.658z"/><path d="m41.13 28.083c-6.885 2.757-12.196 8.516-14.364 15.703.231.269.463.541.693.813 2.163-7.269 7.538-13.087 14.509-15.837-.28-.226-.556-.457-.838-.679z"/><path d="m43.579 30.064c-7.092 2.803-12.569 8.707-14.807 16.089.229.274.459.553.689.829 2.229-7.472 7.772-13.441 14.955-16.241-.276-.227-.559-.451-.837-.677z"/><path d="m46.024 32.054c-7.312 2.854-12.961 8.923-15.254 16.521.228.28.456.561.685.842 2.278-7.688 7.991-13.825 15.391-16.677-.275-.231-.547-.458-.822-.686z"/><path d="m48.436 34.062c-7.532 2.914-13.35 9.157-15.679 16.984.226.287.451.567.679.857 2.316-7.931 8.206-14.255 15.839-17.166-.282-.222-.562-.448-.839-.675z"/><path d="m50.875 35.964c-7.763 3.025-13.771 9.449-16.227 17.506.225.292.449.584.674.88 2.444-8.198 8.563-14.729 16.474-17.741-.311-.212-.617-.424-.921-.645z"/></g><path d="m21.584 37.988s4.102-12.277 15.909-15.024c1.334.253 1.739 1.558 1.739 1.558s-12.3 2.951-15.822 15.435c-1.63-.479-1.826-1.969-1.826-1.969z" fill="url(#c)"/><path d="m51.908 51.171c1.658 1.661-3.004 6.534-5.1 4.345-1.887-1.969 1.372-6.414 4.117-6.956.001 0 1.202 1.234.983 2.611z" fill="url(#d)"/><path d="m53.483 56.355c-.219.22-.448.439-.689.658-3.534 3.2-9.074 5.158-11.372 2.854-1.292-1.295-1.533-3.486-.676-6.172.807-2.526 2.52-5.229 4.7-7.414 4.211-4.219 8.504-6.473 11.777-6.183 1.73.152 3.384 1.38 4.107 2.596-1.01-1.143-2.473-2.21-4.128-2.357-3.204-.282-7.427 1.945-11.588 6.114-2.153 2.158-3.846 4.826-4.642 7.318-.827 2.594-.608 4.699.618 5.928 1.991 1.997 7.151.66 11.041-2.861 2.269-2.052 3.591-4.258 3.637-6.057.023-.92-.277-1.698-.893-2.314-1.286-1.289-4.882-.313-7.125 1.936-1.758 1.765-2.34 4.053-1.295 5.1.266.266.648.407 1.11.407.912 0 2.03-.553 2.92-1.444.003-.002.006-.005.007-.008.708-.708 1.622-2.241.914-3.284.993.735.018 2.692-.743 3.454-.003.003-.006.006-.008.008-.947.948-2.102 1.516-3.09 1.516-.526 0-.969-.166-1.28-.479-1.138-1.142-.557-3.58 1.296-5.44 2.371-2.375 6.068-3.333 7.463-1.934.663.664.988 1.502.963 2.489-.041 1.696-1.108 3.65-3.024 5.569z" fill="#6e8189"/><path d="m52.361 55.907c-1.516 1.521-3.294 2.64-5.009 3.154-1.744.522-3.175.343-4.024-.511-1.04-1.043-1.269-2.888-.625-5.063.636-2.147 2.068-4.448 3.929-6.314 3.365-3.372 6.979-5.117 10.175-4.913 1.973.125 3.745 1.104 4.761 2.613-1.259-1.369-2.873-2.252-4.775-2.374-3.128-.198-6.675 1.521-9.99 4.844-1.834 1.839-3.244 4.104-3.868 6.213-.617 2.089-.413 3.848.563 4.825.785.787 2.13.947 3.786.45 1.653-.496 3.443-1.623 4.909-3.093 1.504-1.508 2.815-4.092 2.285-5.91-.273-.933-.989-1.532-2.132-1.784l.052-.234c1.216.268 2.014.942 2.31 1.951.563 1.927-.756 4.551-2.347 6.146z" fill="#6e8189"/><path d="m61.034 47.046c-1.027-1.222-2.526-2.143-4.288-2.295-2.725-.238-5.923 1.126-8.35 3.556-1.505 1.51-2.599 3.25-3.076 4.901-.471 1.625-.286 2.964.517 3.77.398.397.966.587 1.643.545 1.532-.098 3.363-1.294 4.777-3.12.912-1.182 1.123-3.329.456-4.688-.256-.523-.867-1.154-1.787-1.154l.111-.231c.816 0 1.488.453 1.891 1.28.702 1.433.481 3.694-.483 4.94-1.454 1.885-3.352 3.113-4.951 3.213-.746.047-1.377-.167-1.825-.615-.87-.869-1.073-2.292-.577-4.007.489-1.688 1.603-3.465 3.135-5.003 2.476-2.478 5.748-3.867 8.54-3.626 1.836.158 3.44 1.238 4.267 2.534z" fill="#6e8189"/><path d="m60.463 48.765c-1.338-1.32-2.507-2.138-4.211-2.243-2.619-.166-5.72 1.359-8.104 3.986l-.178-.162c2.461-2.718 5.565-4.235 8.298-4.065 1.778.111 2.953.897 4.195 2.484z" fill="#6e8189"/><path d="m55.008 56.461c.907-.845 1.728-1.799 2.314-2.891.585-1.08.937-2.332.746-3.553-.171-1.217-.997-2.31-2.132-2.758-1.128-.471-2.424-.355-3.555.072l-.081-.225c1.179-.424 2.531-.522 3.707-.013 1.184.489 2.026 1.652 2.182 2.906.172 1.259-.209 2.521-.813 3.6-.61 1.091-1.448 2.031-2.368 2.862z" fill="#6e8189"/></svg>