<svg enable-background="new 0 0 64 64" height="64" viewBox="0 0 64 64" width="64" xmlns="http://www.w3.org/2000/svg" xmlns:xlink="http://www.w3.org/1999/xlink"><linearGradient id="a" gradientUnits="userSpaceOnUse" x1="46.1885" x2="53.5674" y1="48.8105" y2="58.128"><stop offset="0" stop-color="#717b80"/><stop offset=".1145" stop-color="#889499"/><stop offset=".2607" stop-color="#a0adb2"/><stop offset=".3935" stop-color="#aebdc1"/><stop offset=".5" stop-color="#b3c2c6"/><stop offset="1" stop-color="#b3c2c6" stop-opacity="0"/></linearGradient><linearGradient id="b" gradientUnits="userSpaceOnUse" x1="51.7646" x2="46.2466" y1="54.0977" y2="48.5796"><stop offset="0" stop-color="#b8bfc4"/><stop offset=".065" stop-color="#c1c7cc"/><stop offset=".2918" stop-color="#dce0e2"/><stop offset=".5223" stop-color="#f0f1f2"/><stop offset=".7565" stop-color="#fbfcfc"/><stop offset="1" stop-color="#fff"/></linearGradient><linearGradient id="c"><stop offset="0" stop-color="#e5eaee"/><stop offset=".2" stop-color="#ced7dc"/><stop offset=".5" stop-color="#b3c2c6"/><stop offset="1" stop-color="#717b80"/></linearGradient><radialGradient id="d" cx="15.6821" cy="-15.9834" gradientTransform="matrix(.9669 0 0 1.2567 -1.2321 25.5867)" gradientUnits="userSpaceOnUse" r="2.6625" xlink:href="#c"/><radialGradient id="e" cx="25.0254" cy="-15.9834" gradientTransform="matrix(.9669 0 0 1.2567 -1.2321 25.5867)" gradientUnits="userSpaceOnUse" r="2.6625" xlink:href="#c"/><radialGradient id="f" cx="34.3682" cy="-15.9834" gradientTransform="matrix(.9669 0 0 1.2567 -1.2321 25.5867)" gradientUnits="userSpaceOnUse" r="2.6625" xlink:href="#c"/><radialGradient id="g" cx="43.7109" cy="-15.9834" gradientTransform="matrix(.9669 0 0 1.2567 -1.2321 25.5867)" gradientUnits="userSpaceOnUse" r="2.6625" xlink:href="#c"/><radialGradient id="h" cx="53.0537" cy="-15.9834" gradientTransform="matrix(.9669 0 0 1.2567 -1.2321 25.5867)" gradientUnits="userSpaceOnUse" r="2.6625" xlink:href="#c"/><path d="m7 5h50v54h-50z" fill="#e6ebef"/><path d="m7 59h50v3h-50z" fill="#cfd8dd"/><path d="m7 60.871v.66l50-.328z" fill="#99a8ae"/><path d="m7 59.469v.664l50-.33z" fill="#99a8ae"/><g fill="#bad6e6"><path d="m7 14.34h50v.301h-50z"/><path d="m7 17.758h50v.301h-50z"/><path d="m7 21.177h50v.301h-50z"/><path d="m7 24.595h50v.301h-50z"/><path d="m7 28.013h50v.301h-50z"/><path d="m7 31.432h50v.301h-50z"/><path d="m7 34.85h50v.301h-50z"/><path d="m7 38.268h50v.301h-50z"/><path d="m7 41.687h50v.301h-50z"/><path d="m7 45.104h50v.301h-50z"/><path d="m7 48.522h50v.301h-50z"/><path d="m7 51.941h50v.301h-50z"/><path d="m7 55.359h50v.301h-50z"/></g><path d="m37.029 59s13.875 1.523 19.955-7.415v-10.897s-.017 13.341-19.955 18.312z" fill="url(#a)"/><path d="m56.984 39.679c0 11.922-6.504 19.321-19.955 19.321 0 0 9.219-2.353 9.219-10.423 11.637 0 10.736-8.898 10.736-8.898z" fill="url(#b)"/><path d="m15.682 8.106c0 2.33-3.5 2.33-3.5 0 0-2.335 3.5-2.335 3.5 0z" fill="#302c3b"/><path d="m13.931 2c-.551 0-.999.447-.999 1.001v5c0 .552.447.999.999.999.553 0 1.001-.447 1.001-.999v-5c0-.554-.448-1.001-1.001-1.001z" fill="url(#d)"/><path d="m24.716 8.106c0 2.33-3.5 2.33-3.5 0 0-2.335 3.5-2.335 3.5 0z" fill="#302c3b"/><path d="m22.965 2c-.552 0-.999.447-.999 1.001v5c0 .552.448.999.999.999.553 0 1.001-.447 1.001-.999v-5c0-.554-.448-1.001-1.001-1.001z" fill="url(#e)"/><path d="m33.75 8.106c0 2.33-3.5 2.33-3.5 0 0-2.335 3.5-2.335 3.5 0z" fill="#302c3b"/><path d="m32 2c-.552 0-1 .447-1 1.001v5c0 .552.448.999 1 .999.554 0 1-.447 1-.999v-5c0-.554-.447-1.001-1-1.001z" fill="url(#f)"/><path d="m42.784 8.106c0 2.33-3.5 2.33-3.5 0 0-2.335 3.5-2.335 3.5 0z" fill="#302c3b"/><path d="m41.033 2c-.551 0-.999.447-.999 1.001v5c0 .552.448.999.999.999.554 0 1.001-.447 1.001-.999v-5c0-.554-.447-1.001-1.001-1.001z" fill="url(#g)"/><path d="m51.818 8.106c0 2.33-3.5 2.33-3.5 0 0-2.335 3.5-2.335 3.5 0z" fill="#302c3b"/><path d="m50.068 2c-.552 0-1 .447-1 1.001v5c0 .552.448.999 1 .999.553 0 1-.447 1-.999v-5c0-.554-.447-1.001-1-1.001z" fill="url(#h)"/></svg>