<svg enable-background="new 0 0 64 64" height="64" viewBox="0 0 64 64" width="64" xmlns="http://www.w3.org/2000/svg" xmlns:xlink="http://www.w3.org/1999/xlink"><linearGradient id="a"><stop offset="0" stop-color="#db7600"/><stop offset="1" stop-color="#ffd231"/></linearGradient><linearGradient id="b" gradientTransform="matrix(.7071 .7071 -.7071 .7071 594.5693 -96.3717)" gradientUnits="userSpaceOnUse" x1="-298.9741" x2="-298.9741" xlink:href="#a" y1="483.2842" y2="479.5352"/><linearGradient id="c" gradientTransform="matrix(.7071 .7071 -.7071 .7071 594.5693 -96.3717)" gradientUnits="userSpaceOnUse" x1="-305.6147" x2="-305.6147" y1="531.002" y2="482.4023"><stop offset="0" stop-color="#717b80"/><stop offset=".229" stop-color="#889499"/><stop offset=".5213" stop-color="#a0adb2"/><stop offset=".7869" stop-color="#aebdc1"/><stop offset="1" stop-color="#b3c2c6"/></linearGradient><linearGradient id="d" gradientTransform="matrix(.7071 .7071 -.7071 .7071 594.5693 -96.3717)" gradientUnits="userSpaceOnUse" x1="-309.1431" x2="-309.1431" y1="531.002" y2="482.4023"><stop offset="0" stop-color="#b3c2c6"/><stop offset="1" stop-color="#d2dbe0"/></linearGradient><linearGradient id="e" gradientTransform="matrix(.7071 .7071 -.7071 .7071 594.5693 -96.3717)" gradientUnits="userSpaceOnUse" x1="-315.0806" x2="-315.0806" xlink:href="#a" y1="483.2832" y2="479.5352"/><linearGradient id="f" gradientTransform="matrix(.7071 .7071 -.7071 .7071 594.5693 -96.3717)" gradientUnits="userSpaceOnUse" x1="-310.6772" x2="-303.376" y1="478.4941" y2="478.4941"><stop offset="0" stop-color="#ffd231"/><stop offset=".0889" stop-color="#fac42a"/><stop offset=".3463" stop-color="#eca218"/><stop offset=".5909" stop-color="#e38a0b"/><stop offset=".8151" stop-color="#dd7b03"/><stop offset="1" stop-color="#db7600"/></linearGradient><linearGradient id="g" gradientTransform="matrix(.7071 .7071 -.7071 .7071 594.5693 -96.3717)" gradientUnits="userSpaceOnUse" x1="-312.2124" x2="-301.8418" y1="464.2461" y2="464.2461"><stop offset="0" stop-color="#4e5e67"/><stop offset=".3737" stop-color="#3f4450"/><stop offset=".738" stop-color="#343241"/><stop offset="1" stop-color="#302c3b"/></linearGradient><linearGradient id="h" gradientTransform="matrix(.7071 .7071 -.7071 .7071 594.5693 -96.3717)" gradientUnits="userSpaceOnUse" x1="-310.8862" x2="-303.166" y1="451.1211" y2="451.1211"><stop offset="0" stop-color="#ffd231"/><stop offset="1" stop-color="#db7600"/></linearGradient><linearGradient id="i" gradientTransform="matrix(.7071 .7071 -.7071 .7071 594.5693 -96.3717)" gradientUnits="userSpaceOnUse" x1="-311.6748" x2="-302.3799" y1="481.415" y2="481.415"><stop offset="0" stop-color="#ffd231"/><stop offset=".1824" stop-color="#fdcd2e"/><stop offset=".41" stop-color="#f7bd26"/><stop offset=".6614" stop-color="#eda418"/><stop offset=".9283" stop-color="#df8106"/><stop offset="1" stop-color="#db7600"/></linearGradient><path d="m38.68 31.197s3.982 1.521 5.755 4.971c.46.895 1.288-3.586.412-4.086-2.518-1.427-3.526-3.525-3.526-3.525z" fill="url(#b)"/><path d="m35.177 26.832s4.454 3.521 3.935 4.042c-27.528 27.528-27.702 27.191-37.112 31.126z" fill="url(#c)"/><path d="m36.172 27.826s-2.525-3.458-3.046-2.939c-27.526 27.529-27.191 27.704-31.126 37.113z" fill="url(#d)"/><path d="m60.31 5.271c-.367.366-2.009-1.278-1.644-1.645 1.123-1.122 2.765.522 1.644 1.645z" fill="#e89712"/><path d="m32.803 25.318s-1.521-3.982-4.972-5.755c-.894-.459 3.587-1.288 4.087-.41 1.429 2.515 3.525 3.525 3.525 3.525z" fill="url(#e)"/><path d="m37.467 21.37-1.606 2.075 4.691 4.696 2.078-1.609z" fill="url(#f)"/><path d="m60.055 7.933c.253-.531-3.456-4.244-3.987-3.988-13.035 6.267-18.601 17.425-18.601 17.425l5.163 5.162s11.156-5.566 17.425-18.599z" fill="url(#g)"/><path d="m61.992 7.433c.214-1.184-4.242-5.641-5.424-5.425-.387.07.65.96-1.699 2.536 1.255.897 3.688 3.331 4.585 4.587 1.577-2.352 2.467-1.314 2.538-1.698z" fill="url(#h)"/><path d="m35.68 22.524c-.214-.214-.546-.23-.741-.035l-2.324 2.322c-.193.193-.177.526.037.741l5.792 5.797c.215.214.547.23.741.036l2.325-2.324c.193-.193.179-.527-.035-.74z" fill="url(#i)"/></svg>