<svg enable-background="new 0 0 64 64" height="64" viewBox="0 0 64 64" width="64" xmlns="http://www.w3.org/2000/svg" xmlns:xlink="http://www.w3.org/1999/xlink"><linearGradient id="a"><stop offset=".2909" stop-color="#ecf1f5"/><stop offset=".4364" stop-color="#e7edf1"/><stop offset=".5984" stop-color="#dae1e6"/><stop offset=".7685" stop-color="#c4ced3"/><stop offset=".943" stop-color="#a5b2b8"/><stop offset="1" stop-color="#99a8ae"/></linearGradient><linearGradient id="b" gradientUnits="userSpaceOnUse" x1="25.25" x2="38.75" xlink:href="#a" y1="38" y2="38"/><linearGradient id="c"><stop offset=".1879" stop-color="#ff000e"/><stop offset=".4034" stop-color="#f4000b"/><stop offset=".7765" stop-color="#d80005"/><stop offset="1" stop-color="#c40000"/></linearGradient><linearGradient id="d" gradientUnits="userSpaceOnUse" x1="31.5" x2="32.5" xlink:href="#c" y1="4" y2="4"/><linearGradient id="e" gradientUnits="userSpaceOnUse" x1="29.75" x2="34.25" xlink:href="#c" y1="10" y2="10"/><linearGradient id="f" gradientUnits="userSpaceOnUse" x1="31.25" x2="32.75" xlink:href="#a" y1="7" y2="7"/><linearGradient id="g" gradientUnits="userSpaceOnUse" x1="29.75" x2="34.25" xlink:href="#a" y1="13" y2="13"/><linearGradient id="h" gradientUnits="userSpaceOnUse" x1="32.0005" x2="32.0005" y1="62" y2="40"><stop offset="0" stop-color="#c40000"/><stop offset=".2235" stop-color="#d80005"/><stop offset=".5966" stop-color="#f4000b"/><stop offset=".8121" stop-color="#ff000e"/></linearGradient><linearGradient id="i" gradientUnits="userSpaceOnUse" x1="29.1309" x2="34.8711" xlink:href="#a" y1="26" y2="26"/><linearGradient id="j" gradientUnits="userSpaceOnUse" x1="27.5" x2="36.5" xlink:href="#c" y1="33" y2="33"/><linearGradient id="k" gradientUnits="userSpaceOnUse" x1="30.5156" x2="33.4863" xlink:href="#c" y1="19" y2="19"/><linearGradient id="l" gradientUnits="userSpaceOnUse" x1="30.875" x2="33.125" y1="15" y2="15"><stop offset="0" stop-color="#cfd8dd"/><stop offset=".2594" stop-color="#cad4d9"/><stop offset=".5484" stop-color="#bdc8cd"/><stop offset=".8505" stop-color="#a7b4ba"/><stop offset="1" stop-color="#99a8ae"/></linearGradient><path d="m30.875 40h2.25l1.125 22h-4.5z" fill="#b00505"/><path d="m25.25 36v3l1.125 1h11.25l1.125-1v-3z" fill="url(#b)"/><path d="m31.5 2h1v4h-1z" fill="url(#d)"/><path d="m32.883 10v-2h-1.766v2h-1.367v2h4.5v-2z" fill="url(#e)"/><path d="m31.25 6h1.5v2h-1.5z" fill="url(#f)"/><path d="m29.75 12h4.5v2h-4.5z" fill="url(#g)"/><path d="m38.291 42c-.225-.657-.449-1.318-.666-2h-11.25c-.23.68-.467 1.342-.705 2-5.846 16.16-11.67 20-11.67 20h4.5c-.002.001 4.895-6.94 13.5-6.94s13.504 6.941 13.5 6.94h4.5s-6.143-3.698-11.709-20zm.459 6-2.813-3.75.938-1.25zm-3.375-6-.563.75-.562-.75zm-1.687 2.25-1.688 2.25-1.688-2.25 1.688-2.25zm-3.938-2.25-.563.75-.562-.75zm-2.625 1 .938 1.25-2.813 3.75zm-2.437 9 1.688-2.25 1.687 2.25zm2.812-4 1.688-2.25 1.687 2.25-1.688 2.25zm2.813 4 1.687-2.25 1.688 2.25zm2.812-4 1.688-2.25 1.687 2.25-1.688 2.25zm2.813 4 1.688-2.25 1.687 2.25z" fill="url(#h)"/><path d="m30.001 29.979 1.686-2.1v2.121h.629v-2.121l1.686 2.1-.018.021h.887c-.521-2.277-1.047-5.042-1.383-8h-.002-.367l-.941 1.099v-1.099h-.354v1.099l-.941-1.099h-.367c-.338 2.958-.863 5.723-1.385 8h.887zm3.823-1.177-1.176-1.49.806-1.023zm-.652-6.138.299 1.865-.947-1.106zm-.957 1.44 1.15 1.252-1.15 1.252zm-.428 2.504-1.15-1.252 1.15-1.252zm-.957-3.944.648.759-.947 1.106zm-.282 3.625.806 1.023-1.176 1.49z" fill="url(#i)"/><path d="m34.871 30h-.887l-1.669 2.078v-2.078h-.629v2.078l-1.668-2.078h-.887c-.824 3.607-1.631 6-1.631 6h1.426l2.592-2.592v2.592h.967v-2.592l2.591 2.592h1.424s-.807-2.393-1.629-6zm-5.797 4.407.594-3.279 1.293 1.334zm3.966-1.945 1.294-1.334.594 3.279z" fill="url(#j)"/><path d="m30.877 21.993.947-1.106v1.113h.354v-1.113l.947 1.106-.006.007h.367c-.221-1.945-.361-3.973-.361-6h-.271l-.72 1.043v-1.043h-.268v1.043l-.719-1.043h-.272c0 2.027-.141 4.055-.359 6h.367zm2.148-.756-.66-.771.453-.529zm-.38-4.298.166 1.697-.676-1.006zm-.524 1.471.647.821-.647.822zm-.24 0v1.644l-.647-.822zm-.526-1.471.51.691-.674 1.006zm-.171 2.997.453.529-.66.771z" fill="url(#k)"/><path d="m31.867 14.957v1.043h.268v-1.043l.719 1.043h.271v-2h-.314v1.24l-.676-1.24h-.27l-.674 1.24v-1.24h-.316v2h.272z" fill="url(#l)"/><path d="m60.098 60.804c.229-.535-1.819-1.045-2.667-.359-.507-.432-2.605-.32-2.671.248-.248-.517-1.854-.62-2.26-.098-.643-.516-3.111-.214-3.313.328-.941-.426-1.985-.248-2.502.22-.277-.179-.732-.321-1.482-.339.23-.535-1.818-1.045-2.667-.359-.506-.432-2.604-.32-2.671.248-.248-.517-1.854-.62-2.26-.098-.642-.516-3.111-.214-3.313.328-.867-.393-1.824-.271-2.372.116-.284-.128-.692-.222-1.29-.235.229-.535-1.818-1.045-2.666-.359-.507-.432-2.606-.32-2.672.248-.248-.517-1.854-.62-2.259-.098-.642-.516-3.112-.214-3.313.328-.941-.426-1.985-.248-2.501.22-.278-.179-.732-.321-1.482-.339.229-.535-1.819-1.045-2.667-.359-.505-.432-2.605-.32-2.67.248-.248-.517-1.854-.62-2.26-.098-.642-.516-3.112-.214-3.312.328-1.402-.634-3.037.066-2.806 1.077h59.958s.348-1.144-1.882-1.196z" fill="#7ab51d"/></svg>