<svg enable-background="new 0 0 64 64" height="64" viewBox="0 0 64 64" width="64" xmlns="http://www.w3.org/2000/svg"><g fill="#529320"><path d="m56.26 6.429c-1.479 0-2.69 2.476-2.69 2.936 0 .2.067.492.369.492.605 0 .69-1.185 1.328-2.091.479-.68 1.38-.43 1.38-1.06-.001-.113-.133-.279-.387-.277z"/><path d="m57.876 5.443c0 .311.209.551.436.551.497 0 .881-1.725 2.144-2.535 1.048-.676 1.544-.862 1.544-1.329 0-.792-4.124 2.241-4.124 3.313z"/><path d="m8.935 52.975c1.192-.49.922-1.558-.001-1.186-1.037.418-1.787.073-1.725-1.074.064-1.213-2.54 1.078-3.968 1.228-2.104.221-.87 1.019-.981 1.442-.869 3.317 2.567.942 2.661 2.281.122 1.746-1.175 1.611-1.175 2.843 0 .514.472.979.472 1.269 0 .285-1.284 1.161-.34 1.251 1.031.1 1.565.848 1.314-.061-.198-.389-.394-.713 0-.794.986-.206.113 1.812.338 1.823 1.531.08.919-1.77 1.53-1.508.891.381 1.312.318 1.312-.48 0-1.059.474-2.684 1.303-3.873.561-.808 1.017-1.859.353-2.638-.273-.428-1.408-.093-1.093-.523z"/><path d="m17.514 49.267c-1.029 0-1.185 1.456-2.215 1.456-.313 0-1.226.126-1.474-.114-1.03-1-3.317 1.913-1.938 2.531.594.266.344 1.341.344 1.813 0 .999 1.582.931 2-.089.392-.954.994-2.352 2.046-2.352s1.426 1.087 1.979.995c.322-.053.289-1.101 1.008-1.63.37-.272.817-.679.697-1.32-.14-.75-1.054-1.29-2.447-1.29z"/><path d="m32.649 35.031c.775 0 .731-1.997.369-1.997-.702 0-1.149 1.997-.369 1.997z"/><path d="m42.708 22.046c.5-2.469-2.435-2.805-1.952-.906.469 1.844-1.528-.601-2.005-.234-.201.156-.126.504-.134 1.121-.011.8-1.094.619-1.284 1.499-.082.381.679.84.679 1.271 0 .429-1.11.795-1.11 1.246 0 .625 1.469.458 1.031 1.999-1.887 6.625-4.05 8.875-6.173 9.708-1.101.432-5.347-1.25-4.593 1.131.284.896-2.588 2.437-2.588 3.436 0 .391.224.795.224 1.205 0 .821-2.163 1.186-2.513.998-.623-.333.397-1.763-1.044-.953-.905.51-3.394.953-5.453.953-1.029 0-1.515-1.298-3.576 1.193-.888 1.074-3.699 2.609-4.724 2.723-1.424.157-.729 2.115.304 2.115 1.029 0 1.339-.863 2.386-.173 1.235.816.935.157 1.325-.728.725-1.641.581.464 1.515-.053 2.385-1.32 4.002-.196 4.662-1.185.837-1.254 2.82-1.26 2.389-.413-.813 1.594.805 1.167 1.234.408.645-1.138 1.692-.027 1.286.26-1.626 1.147-.707 1.084-.952 1.567-.658 1.298.201.833.586 1.738.666 1.573 1.734.982 2.209.324 1.122-1.55 2.952-2.321 3.041-3.03.109-.877-.92-.652-.936-1.463-.008-.462.443-1.268.697-1.269 1.645-.005-.309 2.323 4.895 1.531.604-.092 1.307-1.978 1.784-1.978.918 0 .252 1.03.252 1.558 0 .471 1.736.89 1.946-2.366.125-1.938 2.796-1.469 2.124-.453-.886 1.34-.983 1.882.002 1.882.3 0 1.592-.655 1.624-1.487.046-1.178.934-1.732 1.108-2.254.301-.898-1.11-1.786-.292-3.218.578-1.01 1.165-1.724 1.165-2.721 0-.999-.659-1.773-.659-3.141 0-1.086 2.064-.279 2.064-2.71 0-1.153 1.249-2.516 1.249-3.74.001-2.925-2.121-3.769-1.793-5.391z"/><path d="m54.592 10.964c-.32 0-.521.39-1.107.39-.834 0-.91-.897-.908-1.573 0-.229.617-2.417.299-2.417-.473 0-.974 1.83-1.579 1.83-.601 0-4.896-1.722-5.999-3.942-.472-.949-2.091-1.68-2.733-1.68-1.544 0-.522 2.498-.522 4.494 0 2.041-1.039.75-1.039 4.495v.003c0 1.185-.99-.503-2.053-.503-1.283 0-.636 1.037-.636 1.499 0 .679-1.421 1.275-1.421 2.496 0 .771 1.016 1.265 1.016 1.998 0 1.29-1.03 1.997 0 1.997 1.031 0 1.349-1.473 1.932-1.473.269 0 1.768.985 1.768.094 0-.696-3.402-1.383-3.402-2.443 0-.453.314-.669.649-.773.995-.31.921.445 1.56.74.434.199 2.32-1.842 2.782-.947.469.906 2.524.786 3.588 1.717 1.073.938 1.093.299 1.093-1.3 0-.37 1.685-2.691 2.686-2.691 2.777-.001 4.926-2.011 4.026-2.011z"/></g></svg>