<svg enable-background="new 0 0 64 64" height="64" viewBox="0 0 64 64" width="64" xmlns="http://www.w3.org/2000/svg" xmlns:xlink="http://www.w3.org/1999/xlink"><linearGradient id="a"><stop offset=".2848" stop-color="#947558"/><stop offset=".5019" stop-color="#917255"/><stop offset=".6863" stop-color="#896a4a"/><stop offset=".8581" stop-color="#7b5c39"/><stop offset="1" stop-color="#6b4c24"/></linearGradient><linearGradient id="b" gradientUnits="userSpaceOnUse" x1="16" x2="48" xlink:href="#a" y1="48.1426" y2="48.1426"/><linearGradient id="c" gradientUnits="userSpaceOnUse" x1="16.5137" x2="44.1895" xlink:href="#a" y1="22.8325" y2="22.8325"/><linearGradient id="d" gradientUnits="userSpaceOnUse" x1="18.0488" x2="33.1826" xlink:href="#a" y1="18.0938" y2="18.0938"/><g fill="#7ab51d"><path d="m12.879 47.429c-1.462 4.725-.642 8.124.41 8.124 2.439 0-.503-4.063-.41-8.124z"/><path d="m14.52 46.897c-1.462 4.725-.642 8.124.41 8.124 2.438 0-.503-4.062-.41-8.124z"/><path d="m16.316 46.272c-1.462 4.725-.642 8.124.41 8.124 2.439 0-.502-4.062-.41-8.124z"/><path d="m18.113 46.991c-1.462 4.725-.642 8.124.41 8.124 2.439 0-.502-4.062-.41-8.124z"/><path d="m2.571 52c-1.057 3.416-.463 5.874.297 5.874 1.763 0-.363-2.936-.297-5.874z"/><path d="m3.688 50.96c-1.057 3.416-.463 5.874.297 5.874 1.763 0-.363-2.937-.297-5.874z"/><path d="m5.104 49.793c-1.267 4.095-.556 7.041.355 7.041 2.114 0-.435-3.521-.355-7.041z"/><path d="m6.479 49.085c-1.267 4.095-.556 7.041.355 7.041 2.114 0-.435-3.521-.355-7.041z"/><path d="m7.854 48.71c-1.267 4.095-.556 7.041.355 7.041 2.114 0-.435-3.521-.355-7.041z"/><path d="m9.421 47.627c-1.462 4.725-.642 8.124.41 8.124 2.439 0-.503-4.063-.41-8.124z"/><path d="m11.332 48.272c-1.462 4.725-.642 8.124.41 8.124 2.439 0-.503-4.062-.41-8.124z"/><path d="m51.121 47.429c1.462 4.725.642 8.124-.41 8.124-2.439 0 .503-4.063.41-8.124z"/><path d="m49.48 46.897c1.462 4.725.642 8.124-.41 8.124-2.438 0 .503-4.062.41-8.124z"/><path d="m47.684 46.272c1.462 4.725.642 8.124-.41 8.124-2.439 0 .502-4.062.41-8.124z"/><path d="m45.887 46.991c1.462 4.725.642 8.124-.41 8.124-2.439 0 .502-4.062.41-8.124z"/><path d="m61.429 52c1.057 3.416.463 5.874-.297 5.874-1.763 0 .363-2.936.297-5.874z"/><path d="m60.312 50.96c1.057 3.416.463 5.874-.297 5.874-1.763 0 .363-2.937.297-5.874z"/><path d="m58.896 49.793c1.267 4.095.556 7.041-.355 7.041-2.114 0 .435-3.521.355-7.041z"/><path d="m57.521 49.085c1.267 4.095.556 7.041-.355 7.041-2.114 0 .435-3.521.355-7.041z"/><path d="m56.146 48.71c1.267 4.095.556 7.041-.355 7.041-2.114 0 .435-3.521.355-7.041z"/><path d="m54.579 47.627c1.462 4.725.642 8.124-.41 8.124-2.439 0 .503-4.063.41-8.124z"/><path d="m52.668 48.272c1.462 4.725.642 8.124-.41 8.124-2.439 0 .503-4.062.41-8.124z"/><ellipse cx="32" cy="57" rx="30" ry="5"/></g><path d="m39.258 36.296c3.67 8.423 8.742 7.369 8.742 17.423 0 4.224-29.823 9.258-32 4.082 6.062-11.508 18.322-21.9 23.258-21.505z" fill="url(#b)"/><path d="m16.675 41.071c-.339.9-.129 2.112.494 2.281 4.461 1.206 20.074-1.045 23.115-7.393 2.031-10.784 6.996-29.91 1.15-33.527-2.43-1.502-11.225 1.271-13.455 2.766-1.801 1.207-3.584 4.054-5.002 6.188.506 1.061 1.135 3.021.631 5.189-6.051 7.356-2.613 9.683-5.18 13.985-.531 2.103.688 4.001-1.753 10.511z" fill="url(#c)"/><path d="m17.169 43.353c6.135 1.061 20.146-2.957 23.115-7.393-3.619 6.033-13.221 8.075-24.284 21.841 1.052-5.521 4.536-10.92 4.536-10.92s-.398-2.723-.867-3.127c0 0-1.519-.006-2.5-.401z" fill="#45332c"/><path d="m23.608 16.576s-1.412-2.266-.631-5.189c1.531-2.395 9.463-3.858 11.46-3.313 3.59.983 5.36 4.163 5.36 4.163s-9.874 1.495-16.189 4.339z" fill="#45332c"/><path d="m39.528 29.161c.088 1.135 2.319 1.494 3.67-.242 1.348-1.734 2.266-18.326.992-24.444-.321-1.538-2.611-1.76-2.599-1.374.513 14.651-2.171 24.661-2.063 26.06z" fill="#6e5335"/><path d="m18.05 24.001c.109-1.253 7.795-7.067 8.821-13.408.233-1.451 6.235-.549 6.312 2.951-4.15 6.336-4.609 7.252-3.234 11.181 1.116 3.186-12.014.633-11.899-.724z" fill="url(#d)"/><path d="m18.05 24.001c.109-1.253 5.883-2.22 11.898.724 1.117 3.187-6.797 2.988-9.141 3.481-1.466.31-2.872-2.848-2.757-4.205z" fill="#6e5335"/><path d="m22.008 24.194c.647 1.27 3.112 3.135 3.112 3.135s3.291-.262 3.256-1.127c-.064-1.538-7.084-3.408-6.368-2.008z" fill="#45332c"/><path d="m27.893 31.075s-4.981-1.459-9.464-.514c-1.152 1.755-.421 3.051-.406 3.51.059 1.781-.656 4.557-1.348 7 2.203-2.621 1.66-4.906 2.754-6.41 1.07-1.471 5.786-1.515 4.4-2.47-.821-.567-4.727-.717-5.563-.066.063-1.774 9.627-1.05 9.627-1.05z" fill="#45332c"/><path d="m20.683 27.895c-.125-.988-1.619-2.997-2.508-3.729 1.023 1.754.383 3.428 2.508 3.729z" fill="#45332c"/><path d="m44.721 52.295c1.057 3.416.463 5.874-.297 5.874-1.763 0 .363-2.937.297-5.874z" fill="#7ab51d"/><path d="m43.413 52.616c1.057 3.416.463 5.874-.297 5.874-1.762 0 .363-2.936.297-5.874z" fill="#7ab51d"/><path d="m32.569 54.71c1.057 3.416.463 5.874-.297 5.874-1.762 0 .364-2.937.297-5.874z" fill="#7ab51d"/><path d="m24.726 55.231c1.057 3.416.463 5.874-.297 5.874-1.763 0 .363-2.936.297-5.874z" fill="#7ab51d"/><path d="m18.979 54.864c-1.057 3.416-.463 5.874.297 5.874 1.763 0-.363-2.936-.297-5.874z" fill="#7ab51d"/><path d="m29.729 55.554c-1.057 3.416-.463 5.874.297 5.874 1.763 0-.363-2.937-.297-5.874z" fill="#7ab51d"/><path d="m46.875 50.96c-1.057 3.416-.463 5.874.297 5.874 1.763 0-.363-2.937-.297-5.874z" fill="#7ab51d"/><path d="m40.229 52.334c1.267 4.095.556 7.041-.355 7.041-2.113 0 .436-3.521.355-7.041z" fill="#7ab51d"/><path d="m34.16 53.077c1.462 4.725.642 8.124-.41 8.124-2.438 0 .503-4.062.41-8.124z" fill="#7ab51d"/></svg>