<svg enable-background="new 0 0 64 64" height="64" viewBox="0 0 64 64" width="64" xmlns="http://www.w3.org/2000/svg" xmlns:xlink="http://www.w3.org/1999/xlink"><radialGradient id="a" cx="58.5527" cy="-26.0283" gradientTransform="matrix(.8995 0 0 .8457 -33.2792 27.4077)" gradientUnits="userSpaceOnUse" r="4.6468"><stop offset="0" stop-color="#ffe14d"/><stop offset=".2499" stop-color="#ffdf4a"/><stop offset=".4691" stop-color="#ffd93f"/><stop offset=".6767" stop-color="#ffcf2d"/><stop offset=".8761" stop-color="#ffc214"/><stop offset="1" stop-color="#ffb700"/></radialGradient><linearGradient id="b" gradientUnits="userSpaceOnUse" x1="15.5293" x2="21.8623" y1="5.9595" y2="5.9595"><stop offset="0" stop-color="#ffe14d"/><stop offset=".6521" stop-color="#ffc418"/><stop offset="1" stop-color="#ffb700"/></linearGradient><linearGradient id="c" gradientUnits="userSpaceOnUse" x1="32.0923" x2="32.0923" y1="62" y2="9.3745"><stop offset="0" stop-color="#5dcfbe"/><stop offset="1" stop-color="#9ef2e6"/></linearGradient><path d="m19.458 8.552c3.625-.9 3.767-5.127 4.609-6.552-2.137 1.187-2.699.421-4.158 1.467-.328.233-2.033-1.158-2.307-.94-.326.256-.422 1.612-1.519 2.511-4.025 3.299 1.942 4.268 3.375 3.514z" fill="url(#a)"/><path d="m18.366 9.153s-.062-5.015 3.496-6.388c-3.08 0-4.203 3.328-5.722.95-2.195 3.356 2.226 5.438 2.226 5.438z" fill="url(#b)"/><path d="m15.732 8.425c.769-.769 3.58-.769 4.349 0 1.688 1.687-6.036 1.687-4.349 0z" fill="#115e5e"/><path d="m44.561 52.313s-5.918-4.298-2.83-13.952c2.582-.319 9.051-.665 9.051-.665l-9.459-1.189 8.217-3.464-10.03 1.614 5.066-5.792-7.609 4.745-1.49-7.501-1.363 7.706-7.529-4.667 5.127 5.351-8.51.562c-4.521-13.464-2.178-17.438-3.666-20.489l2.781-.913-1.9-4.284-5.877.225c-2.182 4.164-.781 4.899.553 5.222.541 4.914-.59 6.469 1.059 7.839 1.623 2.41.213 8.168 2.26 15.615-.113.462-5.602 10.981-.166 11.902 3.975 3.711 1.035 4.972 3.744 11.822h28.031c-2.068-6.369-1.39-8.363-5.46-9.687zm-15.973-8.346c-2.357.094-1.783-5.434-1.783-5.434l2.479-.203c2.628 2.57-.696 5.637-.696 5.637zm1.609-7.707-4.973 1.177-1.209-1.868z" fill="url(#c)"/><path d="m44.887 52.226c-.088-2.216-2.785-3.961-2.584-10.447.082-.271.936-.157.516-3.323 2.582-.318 7.963-.759 7.963-.759l-7.943-.062c.012-.8-.33-1.554-.33-1.554 2.295-1.059 7.031-3.038 7.031-3.038l-7.277 2.267s-.418-.986-1.615-1.697c1.246-1.579 3.93-4.747 3.93-4.747l-5.041 4.149s-1.016-.561-2.547-.709l-1.512-6.196-.338 6.209s-1.854.25-2.883.79l-5.672-3.96 4.387 4.898c-.852.589-1.518 1.304-1.518 1.304l-5.248-.314c-.703-4.976-2.785-8.241-3.766-13.5 1.146-1.459-.854-3.697.551-6.216 2.23.102 3.949-1.434 1.279-4.071.611-.734.49-2.388-4.041-2.388-4.969 0-5.363 1.06-4.729 2.503-1.086 1.171-.256 3.633 1.078 3.956.313.54-.066 1.248.633 1.947-.313.077-.703 1.387-.188 2.419-.359 1.217-.172 2.449 1.172 3.112 1.494 7.816-.713 7.939 1.869 15.828-4.205 5.403-3.76 12.647.453 12.362-.738 3.142.742 3.963 1.76 4.749-.768 1.289-.758 2.626.309 3.134-.17 1.083-1.313 2.171-.854 3.128h3.982s4.211-4.899 5.637-14.639c-3.412 9.055-8.185 10.839-8.185 10.839-.377-5.607 8.705-10.154 8.98-15.534 1.307 3.249 3.221 4.119 5.275 5.493 4.707-.84 1.25 1.477 11.006 5.716-4.029.445-7.57-1.691-7.57-1.691s.039 4.863-3.201 9.816c0 0 2.914-1.275 5.463-6.276 0 0 6.529-.417 8.068 6.276h1.813c-.963-1.575-.805-8.671-6.113-9.774zm-15.512-15.955s-.242.536-.16.928l-3.252.307c-.912-.302-1.654-1.805-1.654-1.805zm-10.021-26.496c.209.024.254.754.047.77-7.919.586-5.278-1.401-.047-.77zm-5.549 3.842c-1.025-3.78 6.773-2.278 7.947-.499-4.047-.539-5.147-.031-7.947.499zm2.515 5.946c1.328.076 2.307.799 1.854 1.261-.875-.062-1.057-.521-1.932-.414 0 0 .109 1.088.203 1.71-1.297-.431-1.109-1.849-.797-2.588-.422-1.155-.123-2.013.031-2.126-.635-.963-.313-1.479-.469-2.512 1.422.139.156 1.541 1.328 2.589.359.153 1.438-.432 1.922.323-.703.509-1.672-.062-2.254.694.848.015 2.441-.001 2.391.952-.949.219-1.56-.483-2.277.111zm2.391 3.719c.426 3.958-1.811 3.347-1.979-.074 0 0 1.911-.572 1.979.074zm1.187-4.905c.492 2.519-1.051 1.002-1.223-1.709-.05-.778.78-.558 1.223 1.709zm-2.062 31.568c-2.139-10.31 1.465-5.596 3.398-4.509-2.689-7.012-4.336-9.518-3.898-17.677 3.521-.308.563 4.951 5.652 14.724 1.719-6.119 1.848 4.234-5.152 7.462zm10.713-6.077c-1.947-.288-.465-4.05-1.529-5.175l2.254-.143c.547 1.427-.494 2.104.516 3.417-.37.676-.933 1.173-1.241 1.901zm3.514-.285c-.557-1.278 1.33-3.271 2.689-2.564.545-.101.553-.697.621-1.234-.5-.629-2.145-.355-1.447.096-.207.157-.932.19-.932.19.049-1.444 2.586-1.424 3.102-2.756 1.105.411 1.814 1.185 2.793 1.711-.854.134-1.822.162-2.377.569-.17 2.364 1.049 3.212-1.346 3.134-.043.483.787.165.725.665-.373.133-.779.234-.932.568.174-.024 1.271-.663 1.344.191-.426-.074-.529.146-.93.095.316.502 1.828.238 1.861 1.33-1.861.975-4.554-.583-5.171-1.995zm5.792 1.33c.219-1.397-.875-2.156-.725-3.989.357.494 1.834.149 2.311.537.116.41-.443 2.443-1.586 3.452zm-2.068-8.547c-1.264 1.339-3.383 2.435-5.066 2.848-.238-4.542 7.387-7.191 10.443-1.612-1.871.391-4.158-.403-5.377-1.236z" fill="#198787"/><path d="m26.566 62h2.672s2.828-3.065 3.785-9.158c-1.437 3.556-6.482 9.084-6.457 9.158z" fill="#198787"/><g clip-rule="evenodd" fill="#115e5e" fill-rule="evenodd"><path d="m31.466 36.409c-.178.222-.306.442-.306.442-.771-.698-1.415-.665-1.415-.665.209-1.098.947-.43 1.721.223z"/><path d="m32.019 35.77c-.227.165-.387.373-.387.373-.645-.816-1.346-.946-1.346-.946.606-.994 1.075-.199 1.733.573z"/><path d="m32.692 35.223c-.236.143-.436.319-.436.319-.475-.927-1.161-1.174-1.161-1.174.789-.855 1.103-.03 1.597.855z"/><path d="m33.444 34.785c-.271.107-.478.257-.478.257-.315-.991-.948-1.345-.948-1.345.919-.715 1.085.134 1.426 1.088z"/><path d="m34.354 34.445c-.306.07-.559.199-.559.199-.188-1.016-.709-1.518-.709-1.518 1.038-.524 1.054.285 1.268 1.319z"/><path d="m35.331 34.268c-.32.038-.622.101-.622.101-.146-1.051-.477-1.6-.477-1.6 1.078-.441 1.002.321 1.099 1.499z"/><path d="m31.046 37.083c-.137.249-.213.509-.213.509-.531-.438-1.027-.357-1.387-.408.058-1.166 1.049-.536 1.6-.101z"/><path d="m40.634 36.334c.184.223.313.443.313.443.785-.699 1.441-.666 1.441-.666-.212-1.097-.964-.429-1.754.223z"/><path d="m40.071 35.694c.232.166.395.373.395.373.657-.815 1.372-.945 1.372-.945-.618-.993-1.097-.199-1.767.572z"/><path d="m39.386 35.147c.24.143.443.319.443.319.482-.926 1.184-1.173 1.184-1.173-.804-.855-1.125-.03-1.627.854z"/><path d="m38.619 34.71c.274.107.486.258.486.258.321-.991.966-1.345.966-1.345-.935-.715-1.103.134-1.452 1.087z"/><path d="m37.69 34.371c.313.069.569.199.569.199.192-1.017.724-1.519.724-1.519-1.058-.524-1.073.285-1.293 1.32z"/><path d="m36.696 34.192c.326.038.634.102.634.102.149-1.052.485-1.6.485-1.6-1.097-.44-1.021.322-1.119 1.498z"/><path d="m41.063 37.009c.139.249.217.508.217.508.541-.437 1.047-.356 1.414-.407-.06-1.168-1.07-.537-1.631-.101z"/><path d="m36.444 32.514c-.109.649-.053 1.691-.053 1.691-.352-.027-.761.013-.761.013s-.008-.917-.146-1.663c.211-.108.732-.178.96-.041z"/></g></svg>