<svg enable-background="new 0 0 64 64" height="64" viewBox="0 0 64 64" width="64" xmlns="http://www.w3.org/2000/svg" xmlns:xlink="http://www.w3.org/1999/xlink"><linearGradient id="a" gradientUnits="userSpaceOnUse" x1="2.8145" x2="60.0684" y1="33.7148" y2="33.7148"><stop offset="0" stop-color="#5b666e"/><stop offset=".2305" stop-color="#515862"/><stop offset="1" stop-color="#302c3b"/></linearGradient><linearGradient id="b" gradientUnits="userSpaceOnUse" x1="2" x2="62" y1="43.3105" y2="43.3105"><stop offset="0" stop-color="#9be323"/><stop offset="1" stop-color="#52a100"/></linearGradient><linearGradient id="c" gradientUnits="userSpaceOnUse" x1="32.0005" x2="32.0005" y1="56.9873" y2="44.5498"><stop offset="0" stop-color="#009af7"/><stop offset=".1209" stop-color="#0da3f4"/><stop offset=".4955" stop-color="#30baec"/><stop offset=".8019" stop-color="#46c9e8"/><stop offset="1" stop-color="#4ecee6"/></linearGradient><path d="m2.822 42.338c1.937-5.719 8.189-4.53 9.474-9.532 5.443-3.342 13.285-11.366 13.285-11.366h10.13l24.357 20.898c-8.475 2.371-19.129 2.464-19.129 2.464l-10.794 1.189s-12.831-.222-15.149-1.885l-6.513-.758c0 .001-5.901-.302-5.661-1.01z" fill="url(#a)"/><g fill="#1a1626"><path d="m30.901 21.439.609 5.646-2.221 2.124-1.217 3.751-6.262 4.151 10.326-4.386-3.998 2.875 1.803 5.159-6.199-1.849 6.402 7.08 10.794-1.189-3.625-8.603 12.855 5.918-8.408-7.871-2.201-4.853 9.934 6.947s3.313 5.697 10.574 5.997c-1.336-2.293-4.229-3.433-5.316-5.193-1.354-2.191-4.375-3.526-5.258-5.27-4.139-3.524-18.592-10.434-18.592-10.434z"/><path d="m21.467 31.289-2.24 3.821-13.695 6.216 15.59-6.108 1.452-3.269 6.747-8.15z"/><path d="m18.773 39.121c-6.298 1.94-10.29 4.228-10.29 4.228l6.513.758c0-.001 1.15-3.302 3.777-4.986z"/></g><path d="m38.133 25.575s-2.785-9.575-3.266-9.575c-.227 0-.436.076-.855.199-.928.275-1.019.091-1.875-.097-.694-.151-1.254.22-1.673.444-1.716.923-4.379 4.312-5.843 5.517-6.679 4.668-9.626 8.871-9.626 8.871l4.386-1.6-1.131 2.222s3.278-1.104 5.406-2.15c1.268-.627 3.303-2.914 3.573-2.463.449.743-1.766 2.931-1.766 2.931l1.053-.274-1.053 1.8 3.07-2.424-1.618 2.58s2.313-2.383 2.836-2.698c3.702-2.228-1.698 3.247-1.698 3.247s6.212-2.778 8.351-3.052c2.781-.351 5.887 2.07 5.887 2.07z" fill="#e6ebef"/><path d="m41.99 23.062c-2.115-1.533-3.512-4.53-5.48-6.202-.338-.294-1.125-.86-1.643-.86-1.076 0-1.838 2.918-2.828 3.466 0 0 .603.626.246 1.954 0 0 1.167-1.147 1.167-.26 0 1.772 1.543 1.666 1.834 2.477 1.168 3.258 3.031 5.5 3.91 5.813 1.729.616 3.082 1.68 3.082 1.68l-.713-1.642c2.225-.08 3.529 1.019 3.529 1.019s1.691-.831 4.398 1.368c-1.758-3.463-4.531-6.669-7.502-8.813z" fill="#b3c2c6"/><path d="m41.49 28.006s-2.504-2.473-6.799-8.698c3.997 9.156 6.799 8.698 6.799 8.698z" fill="#e6ebef"/><path d="m24.622 26.667s2.506-2.473 6.8-8.699c-3.997 9.157-6.8 8.699-6.8 8.699z" fill="#b3c2c6"/><path d="m20.849 26.636s1.96-1.239 5.569-4.672c-3.776 5.414-5.569 4.672-5.569 4.672z" fill="#b3c2c6"/><path d="m41.734 24.994s-1.541-1.521-4.184-5.353c2.46 5.635 4.184 5.353 4.184 5.353z" fill="#e6ebef"/><path d="m32.04 23.062s.51 1.232.885 1.456c.375.227 1.439 1.196 1.439 1.585 0 .39 1.059 1.814 1.434 1.879.381.064-.904.129-2.344-1.747-1.439-1.88-1.414 1.358-1.414 1.358s-1.108-1.677 0-4.531z" fill="#b3c2c6"/><path d="m2 44.55c0-2.924 1.467-4.883 2.91-4.573 1.359-2.374 4.313-1.982 4.037-.063.717-.185 2.761 1.013 2.448 2.125 1.526-1.01 3.555-.204 4.161.699.733-1.125 4.833-1.977 5.376.604.963-1.838 4.86-1.94 6.191-.724.928-2.001 4.896-1.293 5.789 1.265 1.593-2.834 5.082-3.147 6.843-1.963.475-.757 3.619-2.274 5.381-.251 1.398-1.136 4.221-1.178 5.307.544-.484-3.23 2.178-3.414 3.83-2.63-.355-1.733 2.838-1.624 3.41-.31.814-.475 2.363.131 2.258 2.052 1.235-.172 2.059 1.934 2.059 3.225 0 0-24.316 8.515-60 0z" fill="url(#b)"/><path d="m62 44.55c-20.504 1.448-39.498 1.448-60 0 0 .656 2.16 1.148 5.397 1.477-2.258.315-3.689.738-3.689 1.27 0 .865 3.758 1.442 8.781 1.737-2.984.327-4.956.802-4.956 1.427 0 .965 4.676 1.574 10.576 1.828-2.248.275-3.697.659-3.697 1.154 0 .889 4.664 1.421 10.262 1.6-2.08.178-3.52.466-3.52.863 0 1.34 16.333 1.436 18.671.287 5.508-.07 10.602-.525 10.602-1.37 0-.516-1.896-.887-4.627-1.113 4.98-.217 8.916-.732 8.916-1.549 0-.341-.691-.63-1.857-.866 3.297-.328 5.506-.822 5.506-1.486 0-.59-1.748-1.045-4.445-1.37 4.232-.315 7.246-.859 7.246-1.634 0-.419-.883-.77-2.355-1.055 1.974-.308 3.189-.708 3.189-1.2z" fill="url(#c)"/><path d="m45.658 58.149c0 1.244-16.337 1.244-16.337 0s16.337-1.244 16.337 0z" fill="#129fdb"/><path d="m39.191 60.183c0 1.089-14.306 1.089-14.306 0 0-1.09 14.306-1.09 14.306 0z" fill="#129fdb"/><path d="m39.541 61.417c0 .777-10.22.777-10.22 0 0-.779 10.22-.779 10.22 0z" fill="#129fdb"/></svg>