<svg enable-background="new 0 0 64 64" height="64" viewBox="0 0 64 64" width="64" xmlns="http://www.w3.org/2000/svg" xmlns:xlink="http://www.w3.org/1999/xlink"><linearGradient id="a" gradientUnits="userSpaceOnUse" x1="32.0005" x2="32.0005" y1="62" y2="2.0005"><stop offset="0" stop-color="#ffa027"/><stop offset=".2723" stop-color="#ffc151"/><stop offset=".7633" stop-color="#ffc93f"/><stop offset="1" stop-color="#ffe261"/></linearGradient><linearGradient id="b"><stop offset="0" stop-color="#4e5e67"/><stop offset=".2345" stop-color="#50606a"/><stop offset=".381" stop-color="#576872"/><stop offset=".5033" stop-color="#647681"/><stop offset=".6124" stop-color="#758a95"/><stop offset=".7126" stop-color="#8ca3b0"/><stop offset=".8063" stop-color="#a7c2d1"/><stop offset=".8934" stop-color="#c7e6f7"/><stop offset=".9091" stop-color="#ceedff"/></linearGradient><linearGradient id="c" gradientUnits="userSpaceOnUse" x1="45.8076" x2="45.8076" xlink:href="#b" y1="35.3838" y2="21.1084"/><linearGradient id="d" gradientUnits="userSpaceOnUse" x1="18.3682" x2="18.3682" xlink:href="#b" y1="35.3867" y2="21.1113"/><circle cx="32" cy="32" fill="url(#a)" r="30"/><path d="m35.85 21.314c-2.201 1.124-5.5 1.124-7.7 0-2.349-1.233-5.218-2.024-8.656-2.332-3.354-.301-10.467-.291-14.025.991-.408.146-.809.335-1.197.539-.219.114-.263.198-.263.616v.54c0 1.016-.124.621.585 1.044 1.382.828 2.166 2.977 2.587 5.935.599 4.313 2.665 7.014 6.022 8.305 3.115 1.195 6.6 1.154 9.691-.107 1.69-.691 3.174-1.785 4.353-3.558 2.07-3.11 1.449-5.051 2.516-7.722.93-2.332 3.543-2.332 4.475 0 1.068 2.671.447 4.611 2.516 7.722 1.176 1.772 2.662 2.866 4.354 3.558 3.09 1.262 6.574 1.303 9.689.107 3.357-1.291 5.426-3.992 6.023-8.305.42-2.958 1.205-5.106 2.588-5.935.709-.423.584-.028.584-1.044v-.54c0-.418-.045-.502-.262-.616-.389-.203-.791-.393-1.197-.539-3.559-1.282-10.672-1.293-14.025-.991-3.44.308-6.311 1.099-8.658 2.332" fill="#302c3b"/><path d="m37.318 23.208c-1.338 1.188-.123 9.78 3.939 11.37 2.533.992 7.516 1.593 10.959-1.443 2.82-2.485 3.428-10.01 1.424-11.18-2.201-1.286-13.46-1.286-16.322 1.253z" fill="url(#c)" opacity=".3"/><path d="m26.857 23.211c1.337 1.188.123 9.781-3.938 11.37-2.535.992-7.517 1.593-10.961-1.442-2.819-2.485-3.428-10.01-1.424-11.181 2.203-1.286 13.462-1.286 16.323 1.253z" fill="url(#d)" opacity=".3"/><path d="m24.659 50.003c7.75 2.006 17.272-1.016 21.294-7.304.328-.516-.184-1.063-.701-.654-4.201 3.316-13.118 5.785-19.648 3.876-2.5-.732-3.587 3.397-.945 4.082z" fill="#302c3b"/></svg>