<svg enable-background="new 0 0 64 64" height="64" viewBox="0 0 64 64" width="64" xmlns="http://www.w3.org/2000/svg" xmlns:xlink="http://www.w3.org/1999/xlink"><linearGradient id="a" gradientUnits="userSpaceOnUse" x1="32.0005" x2="32.0005" y1="62" y2="2.0005"><stop offset="0" stop-color="#ffa027"/><stop offset=".2723" stop-color="#ffc151"/><stop offset=".7633" stop-color="#ffc93f"/><stop offset="1" stop-color="#ffe261"/></linearGradient><linearGradient id="b" gradientUnits="userSpaceOnUse" x1="32.0005" x2="32.0005" y1="51.75" y2="48.3252"><stop offset="0" stop-color="#d63324"/><stop offset=".0798" stop-color="#dc3f31"/><stop offset=".2475" stop-color="#e75346"/><stop offset=".4352" stop-color="#ee6155"/><stop offset=".6572" stop-color="#f3695d"/><stop offset="1" stop-color="#f46c60"/></linearGradient><linearGradient id="c" gradientUnits="userSpaceOnUse" x1="15.999" x2="47.999" y1="39.5" y2="39.5"><stop offset="0" stop-color="#cfd7e6"/><stop offset=".0368" stop-color="#dae0ec"/><stop offset=".1263" stop-color="#eef1f6"/><stop offset=".2147" stop-color="#fbfcfd"/><stop offset=".3" stop-color="#fff"/><stop offset=".7" stop-color="#fff"/><stop offset=".7853" stop-color="#fbfcfd"/><stop offset=".8737" stop-color="#eef1f6"/><stop offset=".9632" stop-color="#dae0ec"/><stop offset="1" stop-color="#cfd7e6"/></linearGradient><circle cx="32" cy="32" fill="url(#a)" r="30"/><g fill="#302c3b"><circle cx="22" cy="24.5" r="4.5"/><circle cx="42" cy="24.5" r="4.5"/><path d="m51 37.789c0-.893-.527-2.01-2.037-2.297-3.871-.736-9.588-1.492-16.963-1.492h-.002c-7.368 0-13.09.756-16.961 1.492-1.508.287-2.037 1.404-2.037 2.297 0 8.078 6.271 16.211 18.998 16.211h.002c12.729 0 19-8.133 19-16.211z"/></g><path d="m23.999 50.082c2.314 1.051 4.981 1.668 8 1.668 3.022 0 5.688-.617 8.002-1.668.001 0-4.001-3.082-8.001-1.082-4-2-8.001 1.082-8.001 1.082z" fill="url(#b)"/><path d="m46.504 38.037c-2.508-.377-7.815-1.037-14.504-1.037s-11.995.66-14.505 1.037c-1.478.221-1.567.76-1.466 1.52.063.451.157 1 .303 1.588.161.652.291.824 1.447.836 2.221.027 26.222.027 28.444 0 1.156-.012 1.279-.184 1.445-.836.145-.588.242-1.137.301-1.588.105-.76.011-1.299-1.465-1.52z" fill="url(#c)"/></svg>