<svg enable-background="new 0 0 64 64" height="64" viewBox="0 0 64 64" width="64" xmlns="http://www.w3.org/2000/svg" xmlns:xlink="http://www.w3.org/1999/xlink"><linearGradient id="a" gradientTransform="matrix(60 0 0 -60 12746.9063 16617.0625)" gradientUnits="userSpaceOnUse" x1="-211.915" x2="-211.915" y1="275.918" y2="276.918"><stop offset="0" stop-color="#ffa027"/><stop offset=".2723" stop-color="#ffc151"/><stop offset=".7633" stop-color="#ffc93f"/><stop offset="1" stop-color="#ffe261"/></linearGradient><circle cx="32" cy="32" fill="url(#a)" r="30"/><path d="m54.221 21.311c-3.863-3.551-9.855-5.695-13.393-5.019-.748.144-1.418 2.808-.779 2.769 4.898-.299 10.107 1.016 13.883 4.063.504.409.869-1.28.289-1.813z" fill="#917524"/><path d="m9.781 21.313c3.861-3.554 9.854-5.696 13.393-5.021.745.142 1.416 2.809.777 2.768-4.898-.297-10.107 1.016-13.881 4.063-.506.414-.871-1.277-.289-1.81z" fill="#917524"/><g fill="#302c3b"><path d="m27.55 26.932c-3.647 3.965-10.198 5.119-14.981 2.641-.731-.38-1.022.222-.744.604 5.563 7.596 14.002 6.107 16.629-2.933.134-.454-.345-.92-.904-.312z"/><path d="m51.433 29.573c-4.784 2.478-11.334 1.323-14.981-2.644-.558-.606-1.037-.141-.906.314 2.63 9.039 11.068 10.527 16.631 2.932.278-.38-.011-.982-.744-.602z"/><path d="m44.924 43.591c-7.873 5.242-17.982 5.239-25.85 0-1.115-.74-1.251.06-.907.688 5.825 10.687 21.843 10.685 27.668 0 .342-.629.206-1.428-.911-.688z"/></g></svg>