<svg enable-background="new 0 0 64 64" height="64" viewBox="0 0 64 64" width="64" xmlns="http://www.w3.org/2000/svg" xmlns:xlink="http://www.w3.org/1999/xlink"><linearGradient id="a" gradientUnits="userSpaceOnUse" x1="32.0005" x2="32.0005" y1="62" y2="4.0005"><stop offset="0" stop-color="#ffa027"/><stop offset=".2723" stop-color="#ffc151"/><stop offset=".7633" stop-color="#ffc93f"/><stop offset="1" stop-color="#ffe261"/></linearGradient><linearGradient id="b"><stop offset="0" stop-color="#f18d84"/><stop offset=".2514" stop-color="#f29180" stop-opacity=".7486"/><stop offset=".5118" stop-color="#f49e73" stop-opacity=".4882"/><stop offset=".7755" stop-color="#f8b25f" stop-opacity=".2245"/><stop offset="1" stop-color="#fdca47" stop-opacity="0"/></linearGradient><radialGradient id="c" cx="14.1895" cy="38.2539" gradientUnits="userSpaceOnUse" r="10" xlink:href="#b"/><radialGradient id="d" cx="49.8105" cy="38" gradientUnits="userSpaceOnUse" r="10" xlink:href="#b"/><linearGradient id="e" gradientUnits="userSpaceOnUse" x1="32.0005" x2="32.0005" y1="17.2773" y2="2"><stop offset=".4121" stop-color="#00d0ff"/><stop offset=".9879" stop-color="#0174c7"/></linearGradient><circle cx="32" cy="33" fill="url(#a)" r="29"/><circle cx="14.189" cy="38.254" fill="url(#c)" r="10"/><circle cx="49.811" cy="38" fill="url(#d)" r="10"/><path d="m2 9.639c0 4.22 10.158 7.639 30 7.639 19.84 0 30-3.419 30-7.639s-10.16-7.639-30-7.639c-19.842 0-30 3.419-30 7.639zm10.625-1.803c0-1.126 4.215-1.876 9.912-2.256 2.949-1.018 6.166-1.58 9.463-1.58s6.473.562 9.422 1.58c5.697.38 9.953 1.13 9.953 2.256 0 3.394-38.75 3.394-38.75 0z" fill="url(#e)"/><g fill="#302c3b"><path d="m36.084 31.91c3.649-4.065 9.323-4.067 12.975 0 .559.622.891-.05.713-.578-3.547-10.496-10.855-10.496-14.403 0-.179.528.154 1.2.715.578z"/><path d="m14.943 31.91c3.651-4.065 9.323-4.067 12.975 0 .559.622.894-.05.714-.578-3.548-10.496-10.856-10.496-14.403 0-.178.528.154 1.2.714.578z"/><path d="m40.945 42.059c-5.449 4.659-12.447 4.656-17.894 0-.771-.658-1.232.053-.985.611 4.183 9.5 15.685 9.498 19.867 0 .246-.559-.213-1.27-.988-.611z"/></g></svg>