<svg enable-background="new 0 0 64 64" height="64" viewBox="0 0 64 64" width="64" xmlns="http://www.w3.org/2000/svg" xmlns:xlink="http://www.w3.org/1999/xlink"><linearGradient id="a" gradientTransform="matrix(60 0 0 -60 12746.9063 16617.0625)" gradientUnits="userSpaceOnUse" x1="-211.915" x2="-211.915" y1="275.918" y2="276.918"><stop offset="0" stop-color="#ffa027"/><stop offset=".2723" stop-color="#ffc151"/><stop offset=".7633" stop-color="#ffc93f"/><stop offset="1" stop-color="#ffe261"/></linearGradient><circle cx="32" cy="32" fill="url(#a)" r="30"/><g fill="#302c3b"><path d="m26.659 50.002c7.75 2.006 17.272-1.016 21.293-7.303.329-.516-.183-1.064-.7-.654-4.201 3.316-13.118 5.785-19.648 3.875-2.5-.731-3.586 3.398-.945 4.082z"/><path d="m29.196 29.917c-3.35-3.887-13.57-2.729-17.043 3.106-.232.391.077.867.61.539 3.354-2.062 7.571-1.958 7.571-1.958.008 2.808 2.227 5.083 4.967 5.083 3.97.001 5.86-4.49 3.895-6.77z"/><path d="m54.529 29.917c-3.35-3.887-13.57-2.729-17.043 3.106-.232.391.077.867.61.539 3.354-2.062 7.571-1.958 7.571-1.958.008 2.808 2.227 5.083 4.967 5.083 3.97.001 5.86-4.49 3.895-6.77z"/></g><path d="m57.813 23.807c-3.188-4.168-8.717-7.32-12.318-7.269-.76.012-1.883 2.519-1.248 2.592 4.877.558 9.777 2.756 12.965 6.412.429.491 1.079-1.108.601-1.735z" fill="#917524"/><path d="m6.189 23.811c3.186-4.172 8.715-7.322 12.314-7.271.762.01 1.885 2.52 1.248 2.591-4.875.56-9.777 2.756-12.965 6.412-.425.493-1.077-1.107-.597-1.732z" fill="#917524"/></svg>