<svg enable-background="new 0 0 64 64" height="64" viewBox="0 0 64 64" width="64" xmlns="http://www.w3.org/2000/svg" xmlns:xlink="http://www.w3.org/1999/xlink"><linearGradient id="a" gradientUnits="userSpaceOnUse" x1="32.0005" x2="32.0005" y1="62" y2="2.0005"><stop offset="0" stop-color="#ffa027"/><stop offset=".2723" stop-color="#ffc151"/><stop offset=".7633" stop-color="#ffc93f"/><stop offset="1" stop-color="#ffe261"/></linearGradient><linearGradient id="b"><stop offset="0" stop-color="#cfd7e6"/><stop offset=".0368" stop-color="#dae0ec"/><stop offset=".1263" stop-color="#eef1f6"/><stop offset=".2147" stop-color="#fbfcfd"/><stop offset=".3" stop-color="#fff"/><stop offset=".7" stop-color="#fff"/><stop offset=".7853" stop-color="#fbfcfd"/><stop offset=".8737" stop-color="#eef1f6"/><stop offset=".9632" stop-color="#dae0ec"/><stop offset="1" stop-color="#cfd7e6"/></linearGradient><linearGradient id="c" gradientUnits="userSpaceOnUse" x1="15.0625" x2="49.0615" xlink:href="#b" y1="40.0078" y2="40.0078"/><linearGradient id="d" gradientUnits="userSpaceOnUse" x1="17.5161" x2="46.4824" xlink:href="#b" y1="48.5" y2="48.5"/><circle cx="32" cy="32" fill="url(#a)" r="30"/><path d="m12 37c-.684.283-1 1.107-1 2 0 1.77 2.826 15 21 15s21-13.23 21-15c0-.893-.318-1.717-1-2-9.645-4-30.357-4-40 0z" fill="#302c3b"/><path d="m48.449 38c-11.266-2.666-21.676-2.666-32.77 0-.496.119-.744.453-.553 1.201l1.049 3.598c.195.748.777 1.314 1.264 1.201 5.709-1.334 23.416-1.332 29.111 0 .49.115 1.072-.453 1.268-1.201l1.178-3.598c.193-.748-.057-1.086-.547-1.201z" fill="url(#c)"/><path d="m45.99 47.314c.83-.723.572-1.031-.49-1.314-5.008-1.336-22.006-1.332-27 0-1.064.283-1.322.592-.492 1.314 0 0 5.385 4.686 13.992 4.686s13.99-4.686 13.99-4.686z" fill="url(#d)"/><g fill="#302c3b"><path d="m36.285 28.617c3.775-4.206 9.645-4.208 13.422 0 .578.644.922-.052.738-.598-3.67-10.858-11.23-10.858-14.9 0-.184.546.16 1.242.74.598z"/><path d="m14.416 28.617c3.776-4.206 9.645-4.208 13.421 0 .578.644.924-.052.738-.598-3.669-10.858-11.23-10.858-14.9 0-.184.546.161 1.242.741.598z"/></g></svg>