<svg enable-background="new 0 0 64 64" height="64" viewBox="0 0 64 64" width="64" xmlns="http://www.w3.org/2000/svg" xmlns:xlink="http://www.w3.org/1999/xlink"><linearGradient id="a" gradientUnits="userSpaceOnUse" x1="32.0005" x2="32.0005" y1="62" y2="2.0005"><stop offset="0" stop-color="#ffa027"/><stop offset=".2723" stop-color="#ffc151"/><stop offset=".7633" stop-color="#ffc93f"/><stop offset="1" stop-color="#ffe261"/></linearGradient><linearGradient id="b"><stop offset="0" stop-color="#f18d84"/><stop offset=".2514" stop-color="#f29180" stop-opacity=".7486"/><stop offset=".5118" stop-color="#f49e73" stop-opacity=".4882"/><stop offset=".7755" stop-color="#f8b25f" stop-opacity=".2245"/><stop offset="1" stop-color="#fdca47" stop-opacity="0"/></linearGradient><radialGradient id="c" cx="14.1895" cy="32.2539" gradientUnits="userSpaceOnUse" r="10" xlink:href="#b"/><radialGradient id="d" cx="49.8105" cy="32" gradientUnits="userSpaceOnUse" r="10" xlink:href="#b"/><circle cx="32" cy="32" fill="url(#a)" r="30"/><circle cx="14.189" cy="32.254" fill="url(#c)" r="10"/><circle cx="49.811" cy="32" fill="url(#d)" r="10"/><g fill="#302c3b"><path d="m36.225 24.804c3.775-4.206 9.645-4.208 13.422 0 .578.644.922-.052.738-.598-3.67-10.858-11.23-10.858-14.9 0-.184.546.16 1.241.74.598z"/><path d="m14.355 24.804c3.777-4.206 9.645-4.208 13.422 0 .578.644.924-.052.738-.598-3.67-10.858-11.23-10.858-14.9 0-.183.546.16 1.241.74.598z"/><path d="m44.523 36.392c-7.629 5.491-17.426 5.488-25.051 0-1.08-.776-1.725.063-1.379.722 5.855 11.193 21.957 11.191 27.813 0 .344-.66-.299-1.499-1.383-.722z"/></g></svg>