<svg enable-background="new 0 0 64 64" height="64" viewBox="0 0 64 64" width="64" xmlns="http://www.w3.org/2000/svg" xmlns:xlink="http://www.w3.org/1999/xlink"><linearGradient id="a" gradientUnits="userSpaceOnUse" x1="32.0005" x2="32.0005" y1="62" y2="2.0005"><stop offset=".5" stop-color="#b12fed"/><stop offset="1" stop-color="#c685ff"/></linearGradient><circle cx="32" cy="32" fill="url(#a)" r="30"/><path d="m44.055 10.252c1.17-1.985 6.713-.564 14.338-8.252 2.313 12.75-2.59 19.338-4.324 19.901-7.989 2.599-13.301-6.078-10.014-11.649z" fill="#302c3b"/><path d="m58.393 2c.244 9.622-3.381 14.764-6.506 17.456-1.484 1.278-4.563 1.349 0-3.609-6.229 5.688-8.541-.208-7.873-5.52-3.197 5.573 2.102 14.161 10.055 11.574 1.734-.563 6.636-7.151 4.324-19.901z" fill="#1a1626"/><path d="m19.947 10.252c-1.17-1.985-6.713-.564-14.338-8.252-2.313 12.75 2.59 19.338 4.324 19.901 7.989 2.599 13.301-6.078 10.014-11.649z" fill="#302c3b"/><path d="m5.609 2c-.244 9.622 3.381 14.764 6.506 17.456 1.482 1.278 4.563 1.349 0-3.609 6.229 5.688 8.541-.208 7.871-5.52 3.197 5.573-2.1 14.161-10.053 11.574-1.734-.563-6.636-7.151-4.324-19.901z" fill="#1a1626"/><path d="m40.945 45.264c-5.449 4.66-12.447 4.658-17.894 0-.771-.658-1.232.055-.985.613 4.183 9.498 15.685 9.496 19.867 0 .246-.559-.213-1.272-.988-.613z" fill="#1a1626"/><path d="m53.364 26.882c1.451 4.437-.605 9.36-4.943 11.381-4.332 2.021-9.42.438-11.888-3.516l6.47-7.244z" fill="#fff"/><path d="m50.026 27.182c1.43 3.06.105 6.696-2.953 8.124-3.061 1.427-6.696.103-8.125-2.956-.904-1.944 10.174-7.112 11.078-5.168z" fill="#1a1626"/><path d="m53.364 26.883c-1.488-.971-3.258-1.372-5.055-1.365-1.801.017-3.602.439-5.244 1.201-1.637.751-3.14 1.858-4.313 3.229-1.164 1.371-2.029 3.032-2.22 4.8 1.249-1.248 2.445-2.28 3.727-3.178 1.275-.899 2.595-1.649 3.987-2.298 1.385-.642 2.826-1.168 4.336-1.563 1.517-.406 3.026-.655 4.782-.826z" fill="#1a1626"/><path d="m10.636 26.882c-1.451 4.437.606 9.36 4.944 11.381 4.331 2.021 9.42.438 11.888-3.516l-6.47-7.244z" fill="#fff"/><g fill="#1a1626"><path d="m13.974 27.182c-1.429 3.06-.104 6.696 2.953 8.124 3.062 1.427 6.697.103 8.126-2.956.904-1.944-10.174-7.112-11.079-5.168z"/><path d="m10.636 26.883c1.488-.971 3.259-1.372 5.055-1.365 1.801.017 3.603.439 5.245 1.201 1.637.751 3.14 1.858 4.313 3.229 1.164 1.371 2.029 3.032 2.22 4.8-1.249-1.248-2.445-2.28-3.727-3.178-1.275-.899-2.595-1.649-3.988-2.298-1.385-.642-2.826-1.168-4.336-1.563-1.517-.406-3.026-.655-4.782-.826z"/></g></svg>