<svg enable-background="new 0 0 64 64" height="64" viewBox="0 0 64 64" width="64" xmlns="http://www.w3.org/2000/svg" xmlns:xlink="http://www.w3.org/1999/xlink"><linearGradient id="a" gradientUnits="userSpaceOnUse" x1="32.0005" x2="32.0005" y1="62" y2="2.0005"><stop offset="0" stop-color="#ffa027"/><stop offset=".2723" stop-color="#ffc151"/><stop offset=".7633" stop-color="#ffc93f"/><stop offset="1" stop-color="#ffe261"/></linearGradient><circle cx="32" cy="32" fill="url(#a)" r="30"/><path d="m14.455 20.889c5.243.237 11.211-1.973 13.489-4.765.477-.591-.721-3.061-1.184-2.622-3.561 3.379-8.396 5.719-13.247 5.811-.651.012.155 1.541.942 1.576z" fill="#917524"/><path d="m49.543 20.887c-5.242.238-11.209-1.971-13.486-4.764-.48-.588.721-3.062 1.184-2.621 3.561 3.376 8.396 5.719 13.246 5.81.652.011-.155 1.541-.944 1.575z" fill="#917524"/><g fill="#302c3b"><circle cx="22" cy="28.5" r="4.5"/><circle cx="42" cy="28.5" r="4.5"/><path d="m22.77 48.328c5.624-4.66 12.844-4.658 18.463 0 .797.658.895-.053.648-.611-4.16-9.5-15.602-9.498-19.762 0-.246.558-.148 1.269.651.611z"/></g></svg>