<svg enable-background="new 0 0 64 64" height="64" viewBox="0 0 64 64" width="64" xmlns="http://www.w3.org/2000/svg" xmlns:xlink="http://www.w3.org/1999/xlink"><linearGradient id="a" gradientUnits="userSpaceOnUse" x1="31.999988" x2="31.999988" y1="61.999977" y2="2.000477"><stop offset="0" stop-color="#ffa027"/><stop offset=".2723" stop-color="#ffc151"/><stop offset=".7633" stop-color="#ffc93f"/><stop offset="1" stop-color="#ffe261"/></linearGradient><linearGradient id="b"><stop offset="0" stop-color="#f18d84"/><stop offset=".2514" stop-color="#f29180" stop-opacity=".7486"/><stop offset=".5118" stop-color="#f49e73" stop-opacity=".4882"/><stop offset=".7755" stop-color="#f8b25f" stop-opacity=".2245"/><stop offset="1" stop-color="#fdca47" stop-opacity="0"/></linearGradient><radialGradient id="c" cx="-31.3813" cy="4.1318" gradientTransform="matrix(.9848 -.1736 .1736 .9848 45.7334 31.7337)" gradientUnits="userSpaceOnUse" r="9.9998" xlink:href="#b"/><radialGradient id="d" cx="4.2393" cy="3.8774" gradientTransform="matrix(.9848 -.1736 .1736 .9848 45.7334 31.7337)" gradientUnits="userSpaceOnUse" r="10" xlink:href="#b"/><circle cx="31.999" cy="32" fill="url(#a)" r="30"/><circle cx="15.546" cy="41.252" fill="url(#c)" r="10"/><circle cx="50.582" cy="34.816" fill="url(#d)" r="10"/><path d="m43.685 48.437c1.272-1.89-2.315-2.603-2.821-5.466-.502-2.859 2.626-4.759.782-6.096-2.205-1.604-6.013.576-8.993-1.593.374 2.119 2.559 4.117 5.882 3.533 0 0-2.098 1.308-1.479 4.827.623 3.521 3.041 4.033 3.041 4.033-3.323.586-4.691 3.211-4.319 5.33 2.059-3.052 6.382-2.31 7.907-4.568z" fill="#302c3b"/><path d="m8.853 24.99c2.813-4.434 8.044-8.055 11.638-8.316.76-.057 2.097 2.346 1.469 2.472-4.808.98-9.5 3.595-12.357 7.515-.383.53-1.172-1.007-.75-1.671z" fill="#917524"/><path d="m53.324 17.148c-4.158-3.205-10.313-4.817-13.778-3.834-.733.207-1.169 2.921-.537 2.826 4.854-.723 10.157.13 14.185 2.836.539.366.755-1.348.13-1.828z" fill="#917524"/><g fill="#302c3b"><path d="m37.32 28.99c3.648-3.964 10.196-5.12 14.981-2.641.731.38 1.022-.221.744-.604-5.563-7.593-14.001-6.106-16.63 2.933-.134.455.346.921.905.312z"/><path d="m12.96 33.285c3.647-3.963 10.197-5.119 14.981-2.64.73.38 1.022-.221.744-.604-5.563-7.593-14.001-6.106-16.63 2.933-.133.454.345.921.905.311z"/></g></svg>