<svg enable-background="new 0 0 64 64" height="64" viewBox="0 0 64 64" width="64" xmlns="http://www.w3.org/2000/svg" xmlns:xlink="http://www.w3.org/1999/xlink"><linearGradient id="a" gradientTransform="matrix(.9848 -.1736 -.1736 -.9848 76.9429 -121.2937)" gradientUnits="userSpaceOnUse" x1="-70.8735" x2="-70.8735" y1="-173.1665" y2="-113.1655"><stop offset="0" stop-color="#ffa027"/><stop offset=".2723" stop-color="#ffc151"/><stop offset=".7633" stop-color="#ffc93f"/><stop offset="1" stop-color="#ffe261"/></linearGradient><circle cx="32" cy="32" fill="url(#a)" r="29.995"/><g fill="#302c3b"><path d="m46.266 48.604c1.272-1.889-2.315-2.602-2.82-5.465-.504-2.857 2.625-4.758.781-6.095-2.205-1.604-6.013.575-8.994-1.593.375 2.118 2.56 4.115 5.883 3.531 0 0-2.098 1.309-1.479 4.828.622 3.521 3.04 4.033 3.04 4.033-3.323.586-4.69 3.211-4.317 5.33 2.058-3.051 6.38-2.307 7.906-4.569z"/><ellipse cx="22.528" cy="26.524" rx="4.499" ry="5.999" transform="matrix(-.9848 .1738 -.1738 -.9848 49.3226 48.73)"/><ellipse cx="42.223" cy="23.052" rx="4.5" ry="5.999" transform="matrix(-.9848 .1737 -.1737 -.9848 87.8079 38.4192)"/></g></svg>