<svg enable-background="new 0 0 64 64" height="64" viewBox="0 0 64 64" width="64" xmlns="http://www.w3.org/2000/svg" xmlns:xlink="http://www.w3.org/1999/xlink"><linearGradient id="a" gradientUnits="userSpaceOnUse" x1="32.0005" x2="32.0005" y1="62" y2="2.0005"><stop offset="0" stop-color="#ffa027"/><stop offset=".2723" stop-color="#ffc151"/><stop offset=".7633" stop-color="#ffc93f"/><stop offset="1" stop-color="#ffe261"/></linearGradient><linearGradient id="b" gradientUnits="userSpaceOnUse" x1="32.0015" x2="32.0015" y1="41.46" y2="62"><stop offset="0" stop-color="#b32e24"/><stop offset=".0103" stop-color="#b63026"/><stop offset=".1122" stop-color="#d14136"/><stop offset=".2241" stop-color="#e54f42"/><stop offset=".3496" stop-color="#f4594b"/><stop offset=".4998" stop-color="#fc5e50"/><stop offset=".7394" stop-color="#ff6052"/></linearGradient><circle cx="32" cy="32" fill="url(#a)" r="30"/><path d="m47.877 37c-.32 0-6.65 2-15.875 2-9.227 0-15.555-2-15.875-2-.734 0-1.125.508-1.125 1 0 7.271 5.959 15 17 15s17-7.729 17-15c0-.492-.391-1-1.125-1z" fill="#302c3b"/><path d="m22.002 44.85v3.994c0 8.758 4.479 13.152 10 13.156 5.521-.004 10-4.398 10-13.156 0-1.605 0-3.102 0-3.994 0-5.233-10-2.847-10-2.847s-10-2.387-10 2.847z" fill="url(#b)"/><path d="m30.58 41.734 1.422 13.055 1.418-13.055c-.855.135-1.418.269-1.418.269s-.566-.134-1.422-.269z" fill="#b81b1b"/><g fill="#302c3b"><ellipse cx="22" cy="24.5" rx="4.5" ry="6"/><ellipse cx="42" cy="24.5" rx="4.5" ry="6"/></g></svg>