<svg enable-background="new 0 0 64 64" height="64" viewBox="0 0 64 64" width="64" xmlns="http://www.w3.org/2000/svg" xmlns:xlink="http://www.w3.org/1999/xlink"><linearGradient id="a" gradientUnits="userSpaceOnUse" x1="32.0005" x2="32.0005" y1="62" y2="2.0005"><stop offset="0" stop-color="#ffa027"/><stop offset=".2723" stop-color="#ffc151"/><stop offset=".7633" stop-color="#ffc93f"/><stop offset="1" stop-color="#ffe261"/></linearGradient><circle cx="32" cy="32" fill="url(#a)" r="30"/><path d="m9.402 29.439c5.243.237 11.212-1.973 13.487-4.765.479-.591-.719-3.061-1.184-2.622-3.561 3.379-8.395 5.719-13.247 5.811-.65.012.157 1.541.944 1.576z" fill="#917524"/><path d="m54.598 29.437c-5.242.238-11.211-1.971-13.486-4.764-.48-.588.721-3.062 1.184-2.621 3.561 3.376 8.396 5.719 13.246 5.81.651.012-.157 1.541-.944 1.575z" fill="#917524"/><g fill="#302c3b"><path d="m27.238 34.201c-4.281 3.271-10.932 3.271-15.214 0-.654-.502-1.045.041-.838.465 4.161 8.445 12.729 8.445 16.888 0 .211-.424-.179-.967-.836-.465z"/><path d="m51.975 34.201c-4.281 3.271-10.932 3.271-15.213 0-.654-.502-1.045.041-.838.465 4.16 8.445 12.729 8.445 16.887 0 .21-.424-.18-.967-.836-.465z"/><path d="m24.607 52.391c3.271-1.309 11.517-1.307 14.785 0 .687.34.708-.193.468-.549-4.139-5.789-11.584-5.789-15.722 0-.241.357-.218.888.469.549z"/></g></svg>