<svg enable-background="new 0 0 64 64" height="64" viewBox="0 0 64 64" width="64" xmlns="http://www.w3.org/2000/svg" xmlns:xlink="http://www.w3.org/1999/xlink"><linearGradient id="a" gradientUnits="userSpaceOnUse" x1="32.0005" x2="32.0005" y1="62" y2="2.0005"><stop offset="0" stop-color="#ffa027"/><stop offset=".2723" stop-color="#ffc151"/><stop offset=".7633" stop-color="#ffc93f"/><stop offset="1" stop-color="#ffe261"/></linearGradient><linearGradient id="b" gradientTransform="matrix(.9752 -.2211 .2211 .9752 9.5471 1.2489)" gradientUnits="userSpaceOnUse" x1="16.0732" x2="35.574" y1="43.2842" y2="57.2847"><stop offset="0" stop-color="#ade7ff"/><stop offset=".497" stop-color="#75d6ff"/><stop offset=".5909" stop-color="#71d5fd"/><stop offset=".6928" stop-color="#64d0f8"/><stop offset=".7984" stop-color="#4ec9ef"/><stop offset=".9059" stop-color="#30bfe2"/><stop offset="1" stop-color="#0fb4d4"/></linearGradient><circle cx="32" cy="32" fill="url(#a)" r="30"/><path d="m41.659 48.564c-1.057-2.051-3.624-3.425-9.66-3.425-6.035 0-8.602 1.374-9.658 3.425-.564 1.096-.389 2.025.242 2.283 2.106.86 4.19-.456 9.418-.456 5.217 0 7.31 1.316 9.415.456.632-.256.808-1.187.243-2.283z" fill="#302c3b"/><path d="m52.386 38.567c-6.757-3.132-17.376.059-18.248.803-1.144.974 3.436-.272 9.555 10.921 6.644 12.158 24.645-4.332 8.693-11.724z" fill="url(#b)"/><g fill="#302c3b"><path d="m27.238 28.7c-4.281 3.271-10.932 3.271-15.213-.001-.654-.501-1.045.041-.838.466 4.16 8.445 12.729 8.445 16.887-.001.211-.424-.179-.966-.836-.464z"/><path d="m51.975 28.7c-4.281 3.271-10.932 3.271-15.213-.001-.654-.501-1.045.041-.838.466 4.16 8.445 12.729 8.445 16.887-.001.21-.424-.18-.966-.836-.464z"/></g></svg>