<svg enable-background="new 0 0 64 64" height="64" viewBox="0 0 64 64" width="64" xmlns="http://www.w3.org/2000/svg" xmlns:xlink="http://www.w3.org/1999/xlink"><linearGradient id="a" gradientUnits="userSpaceOnUse" x1="32.0005" x2="32.0005" y1="62" y2="2.0005"><stop offset="0" stop-color="#ffa027"/><stop offset=".2723" stop-color="#ffc151"/><stop offset=".7633" stop-color="#ffc93f"/><stop offset="1" stop-color="#ffe261"/></linearGradient><linearGradient id="b" gradientUnits="userSpaceOnUse" x1="32.0005" x2="32.0005" y1="49.7285" y2="46.1807"><stop offset="0" stop-color="#d63324"/><stop offset=".0798" stop-color="#dc3f31"/><stop offset=".2475" stop-color="#e75346"/><stop offset=".4352" stop-color="#ee6155"/><stop offset=".6572" stop-color="#f3695d"/><stop offset="1" stop-color="#f46c60"/></linearGradient><linearGradient id="c" gradientUnits="userSpaceOnUse" x1="20.9995" x2="42.999" y1="38" y2="38"><stop offset="0" stop-color="#cfd7e6"/><stop offset=".0368" stop-color="#dae0ec"/><stop offset=".1263" stop-color="#eef1f6"/><stop offset=".2147" stop-color="#fbfcfd"/><stop offset=".3" stop-color="#fff"/><stop offset=".7" stop-color="#fff"/><stop offset=".7853" stop-color="#fbfcfd"/><stop offset=".8737" stop-color="#eef1f6"/><stop offset=".9632" stop-color="#dae0ec"/><stop offset="1" stop-color="#cfd7e6"/></linearGradient><circle cx="32" cy="32" fill="url(#a)" r="30"/><path d="m15.193 19.461c5.205-.677 10.699-3.89 12.455-7.034.369-.665-1.24-2.89-1.621-2.377-2.92 3.945-7.275 7.09-12.035 8.022-.638.125.42 1.491 1.201 1.389z" fill="#917524"/><path d="m48.805 19.458c-5.205-.675-10.697-3.887-12.455-7.032-.371-.663 1.242-2.891 1.621-2.376 2.92 3.942 7.275 7.09 12.035 8.021.64.125-.42 1.491-1.201 1.387z" fill="#917524"/><g fill="#302c3b"><path d="m51.719 25.414c-5.105 1.934-11.754.152-15.211-4.076-.527-.646-1.055-.242-.953.215 2.027 9.064 10.598 11.361 16.887 4.523.316-.344.062-.957-.723-.662z"/><path d="m27.491 21.338c-3.455 4.229-10.105 6.01-15.211 4.076-.782-.295-1.037.318-.721.662 6.289 6.838 14.858 4.541 16.887-4.523.103-.457-.425-.862-.955-.215z"/><path d="m32 34c-8.837-.059-15.946 4.945-16 11.168-.033 3.445 1.331 6.604 5.57 6.633 3.077.02 6.483-1.465 10.43-1.438 3.946-.027 7.353 1.457 10.43 1.438 4.239-.029 5.603-3.188 5.569-6.633-.053-6.223-7.162-11.227-15.999-11.168z"/></g><path d="m32 46.646c-4.238-2-8.481 3.082-8.481 3.082s5.281-1.332 8.481-1.332 8.481 1.332 8.481 1.332-4.243-5.082-8.481-3.082z" fill="url(#b)"/><path d="m42.721 39.037c-2.712-1.881-6.212-3.037-10.721-3.037-4.507 0-8.012 1.154-10.725 3.037-.436.301-.387.963.382.963h10.343s7.754 0 10.339 0c.77 0 .822-.662.382-.963z" fill="url(#c)"/></svg>