<svg enable-background="new 0 0 64 64" height="64" viewBox="0 0 64 64" width="64" xmlns="http://www.w3.org/2000/svg" xmlns:xlink="http://www.w3.org/1999/xlink"><linearGradient id="a" gradientTransform="matrix(1 0 0 -1 -56 -80)" gradientUnits="userSpaceOnUse" x1="88" x2="88" y1="-142" y2="-82"><stop offset="0" stop-color="#ffa027"/><stop offset=".2723" stop-color="#ffc151"/><stop offset=".7633" stop-color="#ffc93f"/><stop offset="1" stop-color="#ffe261"/></linearGradient><circle cx="32" cy="32" fill="url(#a)" r="30"/><g fill="#302c3b"><path d="m22.77 49.527c5.623-4.658 12.843-4.656 18.462 0 .797.658.896-.053.648-.61-4.16-9.5-15.602-9.498-19.762 0-.245.56-.147 1.271.652.61z"/><path d="m17.614 31.572c0 2.483 2.012 4.5 4.5 4.5 2.485 0 4.5-2.017 4.5-4.5 0-2.485-2.015-4.5-4.5-4.5-2.489.002-4.5 2.015-4.5 4.5z"/><path d="m25.961 33.906c-3.95-4.817-9.183-7.976-14.263-10.772-.339-.287-.143-.853.363-.761 3.098.564 10.994 2.419 13.494 4.585 2.31 2.002 1.34 5.523.406 6.948z"/><path d="m41.887 27.072c-2.486 0-4.5 2.015-4.5 4.5 0 2.483 2.014 4.5 4.5 4.5 2.488 0 4.5-2.017 4.5-4.5 0-2.485-2.012-4.498-4.5-4.5z"/><path d="m38.445 26.958c2.5-2.166 10.396-4.021 13.494-4.585.506-.092.701.474.363.761-5.08 2.797-10.313 5.955-14.264 10.772-.933-1.425-1.903-4.946.407-6.948z"/></g></svg>