<svg enable-background="new 0 0 64 64" height="64" viewBox="0 0 64 64" width="64" xmlns="http://www.w3.org/2000/svg" xmlns:xlink="http://www.w3.org/1999/xlink"><linearGradient id="a" gradientUnits="userSpaceOnUse" x1="32.0005" x2="32.0005" y1="62" y2="2.0005"><stop offset="0" stop-color="#ffa027"/><stop offset=".2723" stop-color="#ffc151"/><stop offset=".7633" stop-color="#ffc93f"/><stop offset="1" stop-color="#ffe261"/></linearGradient><circle cx="32" cy="32" fill="url(#a)" r="30"/><circle cx="32" cy="48" fill="#302c3b" r="5"/><path d="m51.344 15.346c-4.158-3.201-10.314-4.814-13.779-3.832-.732.208-1.167 2.92-.535 2.826 4.854-.725 10.158.131 14.184 2.838.539.363.755-1.352.13-1.832z" fill="#917524"/><path d="m12.656 15.349c4.156-3.204 10.313-4.816 13.779-3.834.73.206 1.166 2.921.533 2.825-4.854-.723-10.157.131-14.182 2.838-.54.366-.756-1.35-.13-1.829z" fill="#917524"/><g fill="#302c3b"><ellipse cx="21.999" cy="28.5" rx="4.5" ry="6"/><ellipse cx="41.999" cy="28.5" rx="4.5" ry="6"/></g></svg>