<svg enable-background="new 0 0 64 64" height="64" viewBox="0 0 64 64" width="64" xmlns="http://www.w3.org/2000/svg" xmlns:xlink="http://www.w3.org/1999/xlink"><linearGradient id="a" gradientUnits="userSpaceOnUse" x1="32.0005" x2="32.0005" y1="62" y2="2.0005"><stop offset="0" stop-color="#ffa027"/><stop offset=".2723" stop-color="#ffc151"/><stop offset=".7633" stop-color="#ffc93f"/><stop offset="1" stop-color="#ffe261"/></linearGradient><linearGradient id="b" gradientUnits="userSpaceOnUse" x1="32.0005" x2="32.0005" y1="47.7285" y2="44.1807"><stop offset="0" stop-color="#d63324"/><stop offset=".0798" stop-color="#dc3f31"/><stop offset=".2475" stop-color="#e75346"/><stop offset=".4352" stop-color="#ee6155"/><stop offset=".6572" stop-color="#f3695d"/><stop offset="1" stop-color="#f46c60"/></linearGradient><linearGradient id="c" gradientUnits="userSpaceOnUse" x1="20.9995" x2="42.999" y1="36" y2="36"><stop offset="0" stop-color="#cfd7e6"/><stop offset=".0368" stop-color="#dae0ec"/><stop offset=".1263" stop-color="#eef1f6"/><stop offset=".2147" stop-color="#fbfcfd"/><stop offset=".3" stop-color="#fff"/><stop offset=".7" stop-color="#fff"/><stop offset=".7853" stop-color="#fbfcfd"/><stop offset=".8737" stop-color="#eef1f6"/><stop offset=".9632" stop-color="#dae0ec"/><stop offset="1" stop-color="#cfd7e6"/></linearGradient><circle cx="32.001" cy="32" fill="url(#a)" r="30"/><g fill="#302c3b"><path d="m15.081 16.071c-.588-.301-1.051.427-.553.845 6.092 5.124 7.025 6.135 7.023 6.584.002.45-.932 1.46-7.023 6.584-.498.418-.035 1.146.553.846 12.752-6.513 14.236-6.98 14.236-7.43s-1.484-.917-14.236-7.429z"/><path d="m48.921 30.93c.586.301 1.047-.426.551-.844-6.09-5.126-7.023-6.136-7.021-6.585-.002-.451.932-1.461 7.021-6.584.496-.418.035-1.146-.551-.846-12.752 6.512-14.236 6.98-14.236 7.43s1.484.916 14.236 7.429z"/><path d="m32 32c-8.838-.059-15.945 4.945-16 11.168-.033 3.445 1.332 6.604 5.57 6.633 3.076.02 6.482-1.465 10.43-1.438 3.947-.027 7.354 1.457 10.43 1.438 4.238-.029 5.604-3.188 5.57-6.633-.055-6.223-7.162-11.227-16-11.168z"/></g><path d="m32 44.646c-4.238-2-8.48 3.082-8.48 3.082s5.28-1.332 8.48-1.332 8.48 1.332 8.48 1.332-4.242-5.082-8.48-3.082z" fill="url(#b)"/><path d="m42.721 37.037c-2.711-1.881-6.213-3.037-10.721-3.037s-8.012 1.154-10.725 3.037c-.436.301-.386.963.382.963h10.343s7.754 0 10.338 0c.771 0 .823-.662.383-.963z" fill="url(#c)"/></svg>