<svg enable-background="new 0 0 64 64" height="64" viewBox="0 0 64 64" width="64" xmlns="http://www.w3.org/2000/svg" xmlns:xlink="http://www.w3.org/1999/xlink"><linearGradient id="a" gradientTransform="matrix(1 0 0 -1 194 170)" gradientUnits="userSpaceOnUse" x1="-162" x2="-162" y1="108" y2="168"><stop offset="0" stop-color="#ffa027"/><stop offset=".2723" stop-color="#ffc151"/><stop offset=".7633" stop-color="#ffc93f"/><stop offset="1" stop-color="#ffe261"/></linearGradient><linearGradient id="b"><stop offset="0" stop-color="#cfd7e6"/><stop offset=".0368" stop-color="#dae0ec"/><stop offset=".1263" stop-color="#eef1f6"/><stop offset=".2147" stop-color="#fbfcfd"/><stop offset=".3" stop-color="#fff"/><stop offset=".7" stop-color="#fff"/><stop offset=".7853" stop-color="#fbfcfd"/><stop offset=".8737" stop-color="#eef1f6"/><stop offset=".9632" stop-color="#dae0ec"/><stop offset="1" stop-color="#cfd7e6"/></linearGradient><linearGradient id="c" gradientUnits="userSpaceOnUse" x1="16" x2="48" xlink:href="#b" y1="39.5" y2="39.5"/><linearGradient id="d" gradientTransform="matrix(-1 0 0 -1 1247.332 775.332)" gradientUnits="userSpaceOnUse" x1="1200.332" x2="1230.333" xlink:href="#b" y1="728.832" y2="728.832"/><circle cx="32" cy="32" fill="url(#a)" r="30"/><path d="m49.139 37.206c-5.251-2.848-29.333-3.033-34.351 0-4.099 2.477-3.328 8.035 0 10.859 4.713 4.002 29.313 3.822 34.351 0 3.446-2.613 4.179-8.593 0-10.859z" fill="#302c3b"/><path d="m46.506 38.037c-2.51-.378-7.817-1.037-14.506-1.037-6.688 0-11.994.659-14.504 1.037-1.479.22-1.568.759-1.467 1.519.063.451.158 1 .303 1.588.162.652.291.824 1.447.835 2.221.028 26.223.028 28.443 0 1.156-.011 1.281-.183 1.447-.835.145-.588.242-1.137.299-1.588.108-.76.014-1.299-1.462-1.519z" fill="url(#c)"/><path d="m18.4 47.964c2.354.377 7.329 1.036 13.6 1.036 6.27 0 11.244-.659 13.598-1.036 1.385-.22 1.469-.76 1.375-1.52-.059-.451-.148-1.001-.285-1.588-.15-.653-.271-.824-1.355-.835-2.082-.028-24.584-.028-26.666 0-1.084.011-1.201.182-1.357.835-.135.587-.227 1.137-.279 1.588-.103.76-.015 1.3 1.369 1.52z" fill="url(#d)"/><g fill="#302c3b"><ellipse cx="22" cy="24.5" rx="4.5" ry="6"/><ellipse cx="41.999" cy="24.5" rx="4.5" ry="6"/></g></svg>