<svg enable-background="new 0 0 64 64" height="64" viewBox="0 0 64 64" width="64" xmlns="http://www.w3.org/2000/svg" xmlns:xlink="http://www.w3.org/1999/xlink"><linearGradient id="a" gradientTransform="matrix(60 0 0 -60 12747.1875 16617.9375)" gradientUnits="userSpaceOnUse" x1="-211.9194" x2="-211.9194" y1="275.9326" y2="276.9326"><stop offset="0" stop-color="#ffa027"/><stop offset=".2723" stop-color="#ffc151"/><stop offset=".7633" stop-color="#ffc93f"/><stop offset="1" stop-color="#ffe261"/></linearGradient><radialGradient id="b" cx="-189.4248" cy="246.248" gradientTransform="matrix(10 0 0 -10 1905.3672 2509.6956)" gradientUnits="userSpaceOnUse" r=".9661"><stop offset="0" stop-color="#75d6ff"/><stop offset=".272" stop-color="#72d5fe"/><stop offset=".4586" stop-color="#69d2fa"/><stop offset=".6195" stop-color="#5acdf4"/><stop offset=".7658" stop-color="#44c6ea"/><stop offset=".9011" stop-color="#29bddf"/><stop offset="1" stop-color="#0fb4d4"/></radialGradient><circle cx="32" cy="32" fill="url(#a)" r="30"/><path d="m54.813 23.324c-3.188-4.168-8.718-7.32-12.318-7.269-.762.013-1.883 2.519-1.248 2.593 4.875.557 9.777 2.756 12.966 6.411.426.492 1.078-1.108.6-1.735z" fill="#917524"/><path d="m9.189 23.328c3.186-4.172 8.715-7.322 12.316-7.271.76.01 1.883 2.52 1.248 2.592-4.875.56-9.779 2.756-12.966 6.412-.426.494-1.078-1.108-.598-1.733z" fill="#917524"/><circle cx="43.5" cy="31" fill="#fff" r="8"/><circle cx="43.502" cy="31" fill="#302c3b" r="5.333"/><g fill="#fff"><ellipse cx="44.881" cy="34.971" rx="2.498" ry="2.891"/><ellipse cx="41.526" cy="31" rx="1.462" ry="1.689"/><circle cx="20.5" cy="31" r="8"/></g><circle cx="20.502" cy="31" fill="#302c3b" r="5.333"/><ellipse cx="21.881" cy="34.971" fill="#fff" rx="2.498" ry="2.891"/><ellipse cx="18.526" cy="31" fill="#fff" rx="1.462" ry="1.689"/><path d="m22.77 50.408c5.623-3.562 12.845-3.562 18.464 0 .797.504.896-.459.647-.885-4.561-7.964-15.199-7.964-19.762 0-.246.426-.148 1.389.651.885z" fill="#302c3b"/><path d="m15.172 41c-3.174 4.688-4.998 9.004-4.998 12.545 0 3.012 2.24 5.455 5 5.455 2.762 0 5-2.443 5-5.455 0-3.541-1.879-7.933-5.002-12.545z" fill="url(#b)"/></svg>