<svg enable-background="new 0 0 64 64" height="64" viewBox="0 0 64 64" width="64" xmlns="http://www.w3.org/2000/svg" xmlns:xlink="http://www.w3.org/1999/xlink"><linearGradient id="a" gradientUnits="userSpaceOnUse" x1="32.0005" x2="32.0005" y1="59.8223" y2="2.0005"><stop offset="0" stop-color="#ffa027"/><stop offset=".4364" stop-color="#ffc548"/><stop offset="1" stop-color="#61b3ff"/></linearGradient><linearGradient id="b" gradientUnits="userSpaceOnUse" x1="32.0005" x2="32.0005" y1="55.8828" y2="33.8828"><stop offset=".1273" stop-color="#ab5c10"/><stop offset=".1649" stop-color="#a25813"/><stop offset=".3464" stop-color="#794921"/><stop offset=".5245" stop-color="#593c2d"/><stop offset=".6958" stop-color="#423335"/><stop offset=".8577" stop-color="#352e39"/><stop offset="1" stop-color="#302c3b"/></linearGradient><path d="m32 2c-15.466 0-28 12.76-28 28.5 0 3.75 1.931 4.833 1.931 4.833s15.821 14.905 19.325 21.397c2.222 4.121 11.267 4.124 13.488 0 3.502-6.494 19.325-21.397 19.325-21.397s1.931-1.083 1.931-4.833c0-15.74-12.534-28.5-28-28.5z" fill="url(#a)"/><ellipse cx="43.5" cy="24" fill="#fff" rx="7.546" ry="9.432" transform="matrix(.866 -.5 .5 .866 -6.1718 24.9665)"/><ellipse cx="20.5" cy="24" fill="#fff" rx="7.546" ry="9.431" transform="matrix(.866 .5001 -.5001 .866 14.7487 -7.0348)"/><path d="m32 33.883c-3.418-.067-8.598 17.067-4.479 20.915 1.547 1.446 7.41 1.446 8.957 0 4.12-3.848-1.06-20.983-4.478-20.915z" fill="url(#b)"/><path d="m5 35.131c0-3.788 4.557-3.753 5.075 0 1.631 11.803 6.108 9.9 10.469 13.829 2.783 2.508 3.594 4.939 3.594 12.04h-10.465v-5.699c-2.296-1.228-8.673-2.997-8.673-20.17z" fill="#fff"/><path d="m18.122 45.876c-4.146-2.81-6.141-4.254-7.057-10.882-.35-2.536-2.18-3.691-3.73-3.691-1.657 0-3.335 1.315-3.335 3.828 0 15.384 6.117 19.474 8.672 20.773l.001 6.096h12.465c0-10.734-2.721-13.214-7.016-16.124zm-12.122-10.745c0-1.348.689-1.828 1.335-1.828.735 0 1.563.607 1.75 1.965 1.103 7.98 3.689 9.4 7.915 12.265 3.611 2.444 6.027 4.355 6.132 12.468h-8.459v-5.299c-2.931-1.638-8.673-4.466-8.673-19.571z" fill="#99a8ae"/><path d="m59 35.131c0-3.788-4.557-3.753-5.074 0-1.632 11.804-6.108 9.899-10.469 13.829-2.783 2.508-3.594 4.939-3.594 12.04h10.465v-5.699c2.297-1.229 8.672-2.996 8.672-20.17z" fill="#fff"/><path d="m38.863 62h12.465v-6.096c2.558-1.3 8.672-5.388 8.672-20.773 0-2.513-1.678-3.828-3.334-3.828-1.551 0-3.381 1.155-3.73 3.691-.917 6.628-2.913 8.073-7.057 10.882-4.295 2.91-7.016 5.39-7.016 16.124zm10.465-7.299v5.299h-8.459c.104-8.112 2.52-10.023 6.131-12.468 4.229-2.865 6.813-4.284 7.916-12.265.188-1.357 1.014-1.965 1.75-1.965.645 0 1.334.48 1.334 1.828 0 15.106-5.742 17.934-8.672 19.571z" fill="#99a8ae"/></svg>