<svg enable-background="new 0 0 64 64" height="64" viewBox="0 0 64 64" width="64" xmlns="http://www.w3.org/2000/svg" xmlns:xlink="http://www.w3.org/1999/xlink"><linearGradient id="a" gradientUnits="userSpaceOnUse" x1="32.0005" x2="32.0005" y1="62" y2="2.0005"><stop offset="0" stop-color="#ffa027"/><stop offset=".2723" stop-color="#ffc151"/><stop offset=".7633" stop-color="#ffc93f"/><stop offset="1" stop-color="#ffe261"/></linearGradient><linearGradient id="b"><stop offset="0" stop-color="#005b91"/><stop offset="1" stop-color="#007ec9"/></linearGradient><linearGradient id="c" gradientUnits="userSpaceOnUse" x1="22.605" x2="22.605" xlink:href="#b" y1="26.6504" y2="14.8931"/><linearGradient id="d" gradientUnits="userSpaceOnUse" x1="34.9326" x2="34.9326" xlink:href="#b" y1="20.2983" y2="5.6558"/><linearGradient id="e" gradientUnits="userSpaceOnUse" x1="52.5908" x2="52.5908" xlink:href="#b" y1="22.4595" y2="2"/><circle cx="32" cy="32" fill="url(#a)" r="30"/><path d="m26.973 21.244c-.213-.403-.686-.556-1.059-.348l-2.002 1.162.668-4.975c.025-.184-.012-.373-.098-.539l-.637-1.207c-.104-.193-.271-.34-.471-.406-.199-.068-.41-.045-.588.061l-4.941 2.865c-.176.104-.307.275-.359.489-.051.213-.021.44.08.636l.672 1.27c.215.406.686.56 1.057.349l1.867-1.083-.66 4.881c-.023.184.01.373.098.541l.67 1.268c.182.342.547.509.883.42.059-.018.117-.039.174-.074l5.037-2.914c.176-.107.305-.281.357-.49.055-.215.025-.439-.078-.635z" fill="url(#c)"/><path d="m40.648 8.027c-.113-.188-.287-.32-.488-.371l-7.869-1.978c-.416-.106-.824.168-.91.61l-.379 1.948c-.043.214-.002.436.109.619.113.189.291.32.49.371l3.613.91-5.471 4.732c-.133.115-.225.275-.26.454l-.379 1.946c-.041.212 0 .434.113.623.113.186.287.317.488.367l8.016 2.018c.111.027.221.027.328.004.088-.017.174-.052.254-.105.17-.114.287-.297.328-.512l.379-1.943c.084-.441-.186-.887-.602-.992l-3.83-.963 5.561-4.82c.133-.111.223-.275.258-.454l.361-1.843c.043-.212.004-.435-.11-.621z" fill="url(#d)"/><path d="m54.977 22.416c.189-.068.342-.209.428-.389l1.154-2.461c.178-.377.018-.829-.365-1.008l-5.834-2.756 10.125-5.032c.152-.074.275-.2.348-.354l1.096-2.338c.178-.377.018-.828-.363-1.006l-10.582-5c-.379-.178-.83-.016-1.006.361l-1.158 2.467c-.18.379-.02.83.361 1.008l5.543 2.619-9.971 4.946c-.152.075-.275.2-.346.353l-1.156 2.457c-.084.182-.094.392-.023.58.035.105.098.201.176.279.061.061.133.111.213.148l10.781 5.094c.182.089.391.099.579.032z" fill="url(#e)"/><g fill="#302c3b"><path d="m27.148 52.961c0 2.764 2.238 4 5 4s5-1.236 5-4c0-2.761-2.24-6-5-6-2.761 0-5 3.239-5 6z"/><path d="m27.238 35.044c-4.281 3.271-10.932 3.271-15.213-.001-.654-.501-1.045.041-.838.466 4.16 8.444 12.729 8.444 16.887-.001.211-.424-.179-.966-.836-.464z"/><path d="m51.975 35.044c-4.281 3.271-10.932 3.271-15.213-.001-.654-.501-1.045.041-.838.466 4.16 8.444 12.729 8.444 16.887-.001.21-.424-.18-.966-.836-.464z"/></g></svg>