<svg enable-background="new 0 0 64 64" height="64" viewBox="0 0 64 64" width="64" xmlns="http://www.w3.org/2000/svg" xmlns:xlink="http://www.w3.org/1999/xlink"><linearGradient id="a" gradientUnits="userSpaceOnUse" x1="32.0005" x2="32.0005" y1="62" y2="2.0005"><stop offset="0" stop-color="#ffa027"/><stop offset=".2723" stop-color="#ffc151"/><stop offset=".7633" stop-color="#ffc93f"/><stop offset="1" stop-color="#ffe261"/></linearGradient><linearGradient id="b"><stop offset="0" stop-color="#f18d84"/><stop offset=".2514" stop-color="#f29180" stop-opacity=".7486"/><stop offset=".5118" stop-color="#f49e73" stop-opacity=".4882"/><stop offset=".7755" stop-color="#f8b25f" stop-opacity=".2245"/><stop offset="1" stop-color="#fdca47" stop-opacity="0"/></linearGradient><radialGradient id="c" cx="14.1895" cy="40.2539" gradientUnits="userSpaceOnUse" r="10" xlink:href="#b"/><radialGradient id="d" cx="49.8105" cy="40" gradientUnits="userSpaceOnUse" r="10" xlink:href="#b"/><circle cx="32" cy="32" fill="url(#a)" r="30"/><circle cx="14.189" cy="40.254" fill="url(#c)" r="10"/><circle cx="49.811" cy="40" fill="url(#d)" r="10"/><path d="m54.345 16.063c-4.158-3.201-10.314-4.814-13.779-3.832-.732.209-1.167 2.92-.535 2.826 4.854-.725 10.158.131 14.184 2.838.539.363.755-1.352.13-1.832z" fill="#917524"/><path d="m9.657 16.066c4.156-3.205 10.313-4.816 13.779-3.834.73.205 1.166 2.92.533 2.824-4.854-.723-10.157.131-14.182 2.838-.54.368-.756-1.349-.13-1.828z" fill="#917524"/><path d="m29 30c0 5.246-4.257 9.5-9.5 9.5-5.246 0-9.5-4.254-9.5-9.5 0-5.244 4.254-9.5 9.5-9.5 5.243 0 9.5 4.256 9.5 9.5z" fill="#fff"/><path d="m54 30c0 5.246-4.257 9.5-9.5 9.5-5.246 0-9.5-4.254-9.5-9.5 0-5.244 4.254-9.5 9.5-9.5 5.243 0 9.5 4.256 9.5 9.5z" fill="#fff"/><g fill="#302c3b"><path d="m24 30c0 2.486-2.018 4.5-4.5 4.5-2.487 0-4.5-2.014-4.5-4.5s2.013-4.5 4.5-4.5c2.482 0 4.5 2.014 4.5 4.5z"/><path d="m49 30c0 2.486-2.018 4.5-4.5 4.5-2.488 0-4.5-2.014-4.5-4.5s2.012-4.5 4.5-4.5c2.482 0 4.5 2.014 4.5 4.5z"/><path d="m37.106 52h-10.212c-2.524 0-2.524-4 0-4h10.213c2.523 0 2.523 4-.001 4z"/></g></svg>