<svg enable-background="new 0 0 64 64" height="64" viewBox="0 0 64 64" width="64" xmlns="http://www.w3.org/2000/svg" xmlns:xlink="http://www.w3.org/1999/xlink"><linearGradient id="a" gradientUnits="userSpaceOnUse" x1="32.0005" x2="32.0005" y1="62" y2="2.0005"><stop offset="0" stop-color="#ffa027"/><stop offset=".4364" stop-color="#ffc548"/><stop offset="1" stop-color="#61b3ff"/></linearGradient><linearGradient id="b" gradientUnits="userSpaceOnUse" x1="22.0024" x2="42.002" y1="46" y2="46"><stop offset="0" stop-color="#cfd7e6"/><stop offset=".0368" stop-color="#dae0ec"/><stop offset=".1263" stop-color="#eef1f6"/><stop offset=".2147" stop-color="#fbfcfd"/><stop offset=".3" stop-color="#fff"/><stop offset=".7" stop-color="#fff"/><stop offset=".7853" stop-color="#fbfcfd"/><stop offset=".8737" stop-color="#eef1f6"/><stop offset=".9632" stop-color="#dae0ec"/><stop offset="1" stop-color="#cfd7e6"/></linearGradient><radialGradient id="c" cx="-70.6299" cy="9.043" gradientTransform="matrix(.8863 0 0 .9091 67.7384 34.1218)" gradientUnits="userSpaceOnUse" r="13.0797"><stop offset="0" stop-color="#75d6ff"/><stop offset=".18" stop-color="#70d4fd"/><stop offset=".3863" stop-color="#62d0f7"/><stop offset=".6056" stop-color="#4bc8ed"/><stop offset=".8324" stop-color="#2cbee0"/><stop offset="1" stop-color="#0fb4d4"/></radialGradient><circle cx="32" cy="32" fill="url(#a)" r="30"/><path d="m45.717 48c-1.5-3.592-5.146-6-13.716-6-8.569 0-12.213 2.408-13.715 6-.801 1.918.346 3.998.346 3.998.448 1.219 2.214 2.002 13.37 2.002 11.142 0 12.921-.783 13.369-2.002 0 0 1.147-2.08.346-3.998z" fill="#302c3b"/><path d="m41.973 46.965c.08-.26-.008-.617-.193-.797 0 0-2.232-2.168-9.779-2.168-7.545 0-9.778 2.168-9.778 2.168-.184.18-.27.537-.191.797l.174.563c.078.258.34.473.58.473h18.43c.244 0 .506-.215.586-.473z" fill="url(#b)"/><path d="m9.456 26.283c5.242.238 11.211-1.973 13.488-4.764.477-.592-.721-3.061-1.184-2.623-3.561 3.379-8.396 5.719-13.248 5.811-.65.014.157 1.541.944 1.576z" fill="#014d87"/><path d="m54.543 26.281c-5.242.238-11.209-1.971-13.486-4.764-.48-.588.721-3.061 1.184-2.621 3.561 3.377 8.396 5.719 13.246 5.811.652.012-.155 1.541-.944 1.574z" fill="#014d87"/><path d="m9.997 35.438c-3.808 5.208-5.997 10.003-5.997 13.939 0 3.346 2.687 6.061 6 6.061 3.314 0 6-2.715 6-6.061 0-3.936-2.254-8.814-6.003-13.939z" fill="url(#c)"/><g fill="#302c3b"><path d="m22 28.5c2.484 0 4.5 2.015 4.5 4.5s-2.016 4.5-4.5 4.5c-2.488 0-4.5-2.015-4.5-4.5s2.012-4.5 4.5-4.5z"/><path d="m42 28.5c2.484 0 4.5 2.015 4.5 4.5s-2.016 4.5-4.5 4.5c-2.488 0-4.5-2.015-4.5-4.5s2.012-4.5 4.5-4.5z"/></g></svg>