<svg enable-background="new 0 0 64 64" height="64" viewBox="0 0 64 64" width="64" xmlns="http://www.w3.org/2000/svg" xmlns:xlink="http://www.w3.org/1999/xlink"><linearGradient id="a"><stop offset="0" stop-color="#ab5c10" stop-opacity=".3"/><stop offset=".0089" stop-color="#ab5c10" stop-opacity=".3075"/><stop offset=".5002" stop-color="#96510e" stop-opacity=".7217"/><stop offset=".8303" stop-color="#8f4d0d"/></linearGradient><linearGradient id="b" gradientTransform="matrix(-1 0 0 -1 853.834 -298)" gradientUnits="userSpaceOnUse" x1="795.3213" x2="811.9717" xlink:href="#a" y1="-316.9175" y2="-316.9175"/><linearGradient id="c" gradientTransform="matrix(1 0 0 -1 -1320.6855 -298)" gradientUnits="userSpaceOnUse" x1="1326.1738" x2="1342.8252" xlink:href="#a" y1="-316.9175" y2="-316.9175"/><linearGradient id="d" gradientTransform="matrix(1 0 0 -1 -274 -298)" gradientUnits="userSpaceOnUse" x1="306" x2="306" y1="-359.0879" y2="-306.9404"><stop offset="0" stop-color="#f9b700"/><stop offset=".7212" stop-color="#f9c802"/></linearGradient><linearGradient id="e" gradientTransform="matrix(1 0 0 -1 -274 -298)" gradientUnits="userSpaceOnUse" x1="306" x2="306" y1="-351.0879" y2="-348.519"><stop offset="0" stop-color="#d63324"/><stop offset=".0798" stop-color="#dc3f31"/><stop offset=".2475" stop-color="#e75346"/><stop offset=".4352" stop-color="#ee6155"/><stop offset=".6572" stop-color="#f3695d"/><stop offset="1" stop-color="#f46c60"/></linearGradient><linearGradient id="f" gradientTransform="matrix(1 0 0 -1 -274 -298)" gradientUnits="userSpaceOnUse" x1="294" x2="318" y1="-345.1045" y2="-345.1045"><stop offset="0" stop-color="#cfd7e6"/><stop offset=".0368" stop-color="#dae0ec"/><stop offset=".1263" stop-color="#eef1f6"/><stop offset=".2147" stop-color="#fbfcfd"/><stop offset=".3" stop-color="#fff"/><stop offset=".7" stop-color="#fff"/><stop offset=".7853" stop-color="#fbfcfd"/><stop offset=".8737" stop-color="#eef1f6"/><stop offset=".9632" stop-color="#dae0ec"/><stop offset="1" stop-color="#cfd7e6"/></linearGradient><linearGradient id="g"><stop offset=".4182" stop-color="#ff1c23"/><stop offset=".6332" stop-color="#f8151a"/><stop offset=".986" stop-color="#e40201"/><stop offset="1" stop-color="#e30100"/></linearGradient><radialGradient id="h" cx="-844.0923" cy="866.4434" gradientTransform="matrix(2.8617 .5046 .5364 -3.0419 1997.3265 3082.7559)" gradientUnits="userSpaceOnUse" r="4.6282" xlink:href="#g"/><radialGradient id="i" cx="-883.0581" cy="806.6152" gradientTransform="matrix(2.8617 -.5046 -.5364 -3.0419 2977.3032 2029.2206)" gradientUnits="userSpaceOnUse" r="4.6277" xlink:href="#g"/><path d="m57.938 2.912s3.946 13.765-1.084 28.749l-23.113-15.822c4.594-4.701 13.912-11.58 24.197-12.927z" fill="#f9c302"/><path d="m55.905 32.917-14.043-16.542s4.896-5.842 15.539-11.457c3.188 12.699-1.496 27.999-1.496 27.999z" fill="url(#b)"/><path d="m6.063 2.912s-3.947 13.765 1.084 28.749l23.113-15.821c-4.593-4.702-13.911-11.581-24.197-12.928z" fill="#f9c302"/><path d="m8.097 32.917 14.043-16.542s-4.896-5.842-15.539-11.457c-3.19 12.699 1.496 27.999 1.496 27.999z" fill="url(#c)"/><path d="m32 8.94c-24.864 0-30 33.956-30 33.956 2.583 7.811 14.583 15.637 21.665 15.637 2.576 1.703 5.455 2.555 8.335 2.555 2.879 0 5.758-.852 8.336-2.555 7.082 0 19.082-7.828 21.664-15.637 0 0-5.137-33.956-30-33.956z" fill="url(#d)"/><path d="m10.136 14.448c3.466 1.218 4.025 2.076 4.025 2.076s-2.591-.242-5.211.929c1.598.715 2.184 2.519 2.184 2.519s-1.354-.107-2.802.465c1.191 1.012 1.091 2.881 1.091 2.881l9.211-10.207c0-.001-4.497-.52-8.498 1.337z" fill="#f9c802"/><path d="m53.863 14.448c-3.465 1.218-4.023 2.076-4.023 2.076s2.59-.242 5.211.929c-1.598.715-2.184 2.519-2.184 2.519s1.352-.107 2.801.465c-1.191 1.012-1.09 2.881-1.09 2.881l-9.211-10.208s4.496-.519 8.496 1.338z" fill="#f9c802"/><g fill="#de9400"><path d="m33.951 9.024c-.638-.046-1.284-.084-1.951-.084s-1.313.037-1.951.084c.563 6.918 1.887 15.484 1.951 16.322.064-.837 1.391-9.406 1.951-16.322z"/><path d="m40 10.264c-.857-.298-1.75-.542-2.674-.741 1.998 5.549 3.01 10.676 2.963 10.662-.019.022.381-4.638-.289-9.921z"/><path d="m23.711 20.185c-.048.014.965-5.115 2.963-10.662-.923.199-1.816.443-2.675.741-.669 5.283-.269 9.941-.288 9.921z"/><path d="m61.375 44.42c.244-.508.457-1.016.625-1.523 0 0-.078-.512-.256-1.395-5.65.496-12.045 1.426-12.713 1.477.653.046 6.789.941 12.344 1.441z"/><path d="m53.443 47.248c-.019-.012 2.713.207 6.215-.023.443-.596.824-1.199 1.174-1.809-4.027 1.242-7.398 1.867-7.389 1.832z"/><path d="m53.443 38.705c-.01-.035 3.795.672 8.147 2.074-.118-.553-.271-1.199-.45-1.926-4.183-.417-7.714-.132-7.697-.148z"/><path d="m2.625 44.42c5.555-.502 11.689-1.395 12.343-1.441-.667-.051-7.064-.979-12.712-1.477-.178.883-.256 1.394-.256 1.394.168.508.381 1.016.625 1.524z"/><path d="m10.557 38.705c.021.016-3.514-.27-7.695.148-.184.727-.332 1.373-.452 1.926 4.354-1.402 8.156-2.109 8.147-2.074z"/><path d="m10.557 47.248c.01.035-3.361-.59-7.39-1.832.351.607.731 1.211 1.174 1.807 3.501.232 6.231.013 6.216.025z"/></g><path d="m45.074 43.088c-.266 0-5.477 2-13.074 2s-12.811-2-13.074-2c-.604 0-.926.379-.926.75 0 5.453 4.909 11.25 14.001 11.25 9.093 0 13.999-5.797 13.999-11.25 0-.371-.32-.75-.926-.75z" fill="#302c3b"/><path d="m26 51.836c1.736.787 3.734 1.252 5.999 1.252 2.267 0 4.265-.465 6.001-1.252 0 0-3.002-2.311-6.001-.811-2.998-1.5-5.999.811-5.999.811z" fill="url(#e)"/><path d="m32 47.088c-6 0-12-2-12-2s.167 1.906 2 4c.262.301.477-1.5.477-1.5s4.561 1.5 9.523 1.5c4.965 0 9.375-1.5 9.375-1.5s.361 1.801.625 1.5c1.836-2.1 2-4 2-4s-6 2-12 2z" fill="url(#f)"/><path d="m36.707 37.84c-.943-1.002-8.473-1.002-9.415 0-1.444 1.527 2.842 5.248 4.708 5.248 1.865 0 6.152-3.721 4.707-5.248z" fill="#bb7a0a"/><path d="m46.23 22.594c-2.323-5.864-11.694-5.387-12.866 1.259-.786 4.457 2.842 8.173 9.79 16.185 9.27-5.152 13.951-7.402 14.737-11.859 1.173-6.647-7.472-10.301-11.661-5.585z" fill="url(#h)"/><path d="m17.768 22.594c-4.188-4.717-12.832-1.062-11.659 5.584.786 4.456 5.467 6.707 14.735 11.859 6.946-8.011 10.578-11.728 9.792-16.185-1.172-6.645-10.544-7.123-12.868-1.258z" fill="url(#i)"/></svg>