<svg enable-background="new 0 0 64 64" height="64" viewBox="0 0 64 64" width="64" xmlns="http://www.w3.org/2000/svg"><path d="m19.938 16.643c-8.131 34.903-7.389 34.155 9.73 34.155-9.473-6.627 8.674-34.63-9.73-34.155z" fill="#211e1a"/><path d="m17.004 16.102c-5.934 26.52-.814 33.329 3.733 34.696h5.209c-12.19-8.587 6.865-35.218-8.942-34.696z" fill="#26221e"/><path d="m43.861 16.641c8.131 34.905 7.387 34.157-9.73 34.157 8.711-5.32-8.674-34.632 9.73-34.157z" fill="#211e1a"/><path d="m46.793 16.1c8.674 24.127-.018 33.581-3.732 34.698h-5.207c12.191-7.889-6.864-35.22 8.939-34.698z" fill="#26221e"/><path d="m48.236 29.065c2.512 6.133.027 18.722-5.176 21.733 5.766 0 9.277-7.978 10.99-18.954 2.139-13.717-10.288-13.725-5.814-2.779z" fill="#38332d"/><path d="m10.393 34.389c2.1 9.905 4.686 16.409 10.344 16.409-6.309-6.529-5.566-20.308-3.774-23.735 9.139-5.442-10.123-9.43-6.57 7.326z" fill="#38332d"/><path d="m13.076 52.429c2.303-1.412 11.85-5.139 11.85-5.139h14.219s9.539 3.721 11.828 5.135c3.324 2.055 4.027 9.574 4.027 9.574h-46s.74-7.527 4.076-9.57z" fill="#8e3ed6"/><path d="m24.832 48.939c0 5.725 14.336 5.725 14.336 0 0-3.492 0-9.263 0-9.263h-14.336z" fill="#423225"/><path d="m32 8.254c-10.836 0-16.055 8.824-15.402 20.17.133 2.281.768 5.57 1.551 8.391 1.625 5.859 10.201 11.761 13.851 11.761 3.648 0 12.227-5.901 13.85-11.761.785-2.82 1.418-6.109 1.555-8.391.648-11.346-4.567-20.17-15.405-20.17z" fill="#614a36"/><path d="m16 61.999h1c-.5-6.666-.5-6.666-1 0z" fill="#732eb0"/><path d="m47 61.999h1c-.5-6.666-.5-6.666-1 0z" fill="#732eb0"/><path d="m35.299 35.323c0 2.148-6.6 2.148-6.6 0 0-.493 6.6-.493 6.6 0z" fill="#423225"/><path d="m27.385 42.843c2.811-1.747 6.422-1.747 9.23 0 .398.246.449-.02.324-.23-2.08-3.562-7.799-3.562-9.881 0-.12.211-.074.476.327.23z" fill="#36281d"/><path d="m43.945 25.703c-1.736-2.936-6.916-1.599-8.465-2.516-.357-.104-.449 1.19-.15 1.279 2.291.798 6.717-.658 8.342 2.022.224.323.541-.363.273-.785z" fill="#423225"/><path d="m20.057 25.703c1.734-2.935 6.912-1.599 8.461-2.516.357-.104.451 1.19.152 1.28-2.289.796-6.717-.659-8.344 2.022-.224.322-.539-.364-.269-.786z" fill="#423225"/><path d="m43.705 28.973c-1.447 3.787-7.336 3.232-8.414.582.816-4.266 7.617-4.629 8.414-.582z" fill="#fff"/><path d="m36.766 29.161c0 3.356 4.854 3.356 4.854 0-.001-3.117-4.854-3.117-4.854 0z" fill="#613f34"/><path d="m37.246 30.234c0 1.926 3.893 1.926 3.893 0 0-1.785-3.893-1.785-3.893 0z" fill="#7d5037"/><path d="m38.186 29.214c0 1.393 2.014 1.393 2.014 0-.001-1.293-2.014-1.293-2.014 0z" fill="#1a1626"/><path d="m37.496 28.808c0 .703 1.018.703 1.018 0 0-.654-1.018-.654-1.018 0z" fill="#ab968c"/><path d="m43.705 28.944c0-4.072-8.414-4.072-8.414.645 1.199-3.872 7.213-3.872 8.414-.645z" fill="#45332c"/><path d="m20.295 28.973c1.449 3.787 7.34 3.232 8.418.582-.818-4.266-7.619-4.629-8.418-.582z" fill="#fff"/><path d="m22.383 29.161c0 3.356 4.851 3.356 4.851 0 0-3.117-4.851-3.117-4.851 0z" fill="#613f34"/><path d="m22.861 30.234c0 1.924 3.894 1.924 3.894 0 .001-1.785-3.894-1.785-3.894 0z" fill="#7d5037"/><path d="m23.801 29.214c0 1.393 2.018 1.393 2.018 0-.001-1.295-2.018-1.295-2.018 0z" fill="#1a1626"/><path d="m23.113 28.806c0 .705 1.018.705 1.018 0 0-.652-1.018-.652-1.018 0z" fill="#ab968c"/><path d="m20.295 28.944c0-4.072 8.418-4.072 8.418.643-1.199-3.874-7.215-3.874-8.418-.643z" fill="#45332c"/><path d="m18.705 31.08h26.588v2.48h-26.588z" fill="#614a36"/><path d="m44.107 9.832c-7.598 7.785-.346 8.287 4.129 19.232 2.512 6.133 4.101 13.755 5.814 2.779 2.139-13.716-6.081-23.155-9.943-22.011z" fill="#38332d"/><path d="m25.457 6.85c-9.635 2.268-18.617 10.783-15.064 27.539 2.1 9.905 4.777-3.898 6.57-7.326 9.139-5.441 24.77-9.561 27.145-17.23 1.205-1.772-9.01-5.508-18.651-2.983z" fill="#38332d"/><g fill="#26221e"><path d="m18.074 19.055c4.074-.826 23.566-1.215 26.033-9.223-4.605 3.67-9.378 4.67-26.033 9.223z"/><path d="m11.049 31.795c6.836-9.123 29.229-8.117 33.059-21.963-7.436 11.621-31.19 13.192-33.059 21.963z"/><path d="m41.855 11.729c-1.766 2.781 4.363-1.303 10.971 16.6-1.629-10.467-7.211-17.672-10.971-16.6z"/></g></svg>