<svg enable-background="new 0 0 64 64" height="64" viewBox="0 0 64 64" width="64" xmlns="http://www.w3.org/2000/svg"><path d="m17.257 55.336c2.4-1.572 12.361-5.727 12.361-5.727h14.842s9.951 4.145 12.339 5.723c3.47 2.289 4.201 6.668 4.201 6.668h-48s.775-4.387 4.257-6.664z" fill="#7ab51d"/><path d="m6.552 24.441c.357-1.523 9.517-1.535 9.276.361-.81 6.422.2 18.1.667 18.897 2.978 5.082 9.517 6.924 12.108 6.338l-15.603 11.963s-6.938-11.475-7.985-15.625c-.734-2.907-.057-15.174 1.537-21.934z" fill="#7ab51d"/><path d="m15.293 24.447c0 1.176-8.326 1.176-8.326 0 0-7.734 8.326-7.463 8.326 0z" fill="#614a36"/><g fill="#423225"><path d="m29.002 50.998c0 6.75 16 6.75 16 0v-7h-16z"/><path d="m21.611 28.873c-5.146-.928-1.127 13.462 2.902 9.493 1.866-1.842-.495-9.058-2.902-9.493z"/><path d="m52.391 28.873c-2.406.436-4.77 7.651-2.9 9.493 4.029 3.969 8.044-10.421 2.9-9.493z"/></g><path d="m37.002 12c-10.643 0-15.77 8.051-15.127 19.245.129 2.254 1.525 9.6 2.844 12.234 1.348 2.695 5.859 6.851 8.625 7.712 1.746.543 5.568.543 7.314 0 2.764-.861 7.277-5.017 8.627-7.712 1.318-2.635 2.713-9.98 2.842-12.234.645-11.194-4.484-19.245-15.125-19.245z" fill="#614a36"/><path d="m37.002 42.475c-2.395-.705-5.94.332-5.94.332 1.35 1.471 2.34 3.381 5.94 3.381 4.123 0 4.822-2.166 5.939-3.381 0 0-3.548-1.041-5.939-.332z" fill="#36281d"/><path d="m31.967 43.057c2.508 2.105 7.576 2.117 10.1 0-2.674.114-7.407.116-10.1 0z" fill="#fff"/><path d="m40.301 38.516c0 2.148-6.6 2.148-6.6 0 0-.492 6.6-.492 6.6 0z" fill="#423225"/><path d="m37.002 12c-7.322 0-11.744 2.418-13.652 1.49 0 0-.207 1.248.541 2.061 0 0-.789.684-2.063-.469-1.213 3.939 2.387 6.221 15.174 6.221 12.785 0 9.73-3.113 16.016 2.355-.616-6.74-4.899-11.658-16.016-11.658z" fill="#38332d"/><path d="m42.416 17.875c-7.041 2.6-9.613-2.088-16.256-2.541 3.16 1.492 4.701 3.787 7.295 5.443-5.644-1.889-9.789-5.141-10.103-7.275 0 0-.941 3.117 2.785 5.447-3.563.33-4.307-3.856-4.307-3.856-1.805 2.898-1.555 12.246.449 19.181.334-2.475-.426-3.497.717-6.48 3.426-8.914 1.221-5.172 14.008-5.172 12.783 0 10.477-3.414 14.004 5.172 1.053 2.559.383 4.005.719 6.48 4.203-15.638-1.842-19.155-9.311-16.399z" fill="#26221e"/><path d="m48.395 32.112c-1.424 3.721-7.207 3.176-8.268.57.805-4.184 7.486-4.542 8.268-.57z" fill="#fff"/><path d="m25.608 32.112c1.422 3.721 7.209 3.176 8.268.57-.808-4.186-7.487-4.544-8.268-.57z" fill="#fff"/><path d="m48.984 27.631c-2.436-1.207-7.092-1.268-8.826-.426-.371.164-.127 1.311.186 1.199 2.42-.894 6.318-.916 8.582.078.301.127.428-.681.058-.851z" fill="#36281d"/><path d="m25.018 27.631c2.434-1.207 7.09-1.268 8.826-.426.371.164.127 1.311-.186 1.199-2.422-.894-6.318-.916-8.584.078-.3.127-.425-.681-.056-.851z" fill="#36281d"/><path d="m41.604 31.714c0 3.266 4.725 3.266 4.725 0-.001-3.033-4.725-3.033-4.725 0z" fill="#613f34"/><path d="m42.07 32.76c0 1.871 3.791 1.871 3.791 0 0-1.738-3.791-1.738-3.791 0z" fill="#7d5037"/><path d="m42.984 31.764c0 1.358 1.963 1.358 1.963 0 0-1.254-1.963-1.254-1.963 0z" fill="#1a1626"/><path d="m42.315 31.37c0 .686.992.686.992 0 0-.634-.992-.634-.992 0z" fill="#ab968c"/><path d="m27.674 31.714c0 3.266 4.726 3.266 4.726 0 0-3.033-4.726-3.033-4.726 0z" fill="#613f34"/><path d="m28.143 32.759c0 1.873 3.789 1.873 3.789 0 0-1.739-3.789-1.739-3.789 0z" fill="#7d5037"/><path d="m29.057 31.764c0 1.356 1.961 1.356 1.961 0 0-1.256-1.961-1.256-1.961 0z" fill="#1a1626"/><path d="m28.387 31.37c0 .684.99.684.99 0 0-.636-.99-.636-.99 0z" fill="#ab968c"/><path d="m48.395 32.083c0-3.997-8.268-3.997-8.268.633 1.182-3.798 7.086-3.798 8.268-.633z" fill="#423225"/><path d="m25.608 32.083c0-3.997 8.268-3.997 8.268.631-1.181-3.798-7.087-3.798-8.268-.631z" fill="#423225"/><path d="m21.457 13.168c-2.999.064-3.258 3.041-4.129 2.325-.181-.148-.248-.872-.154-1.196.682-2.334 1.727-6.646 2.041-7.86.571-2.2-2.425-3.028-2.996-.829-.028.109-1.859 8.195-1.989 8.162-.122-.031-.212-9.199-.266-10.076-.148-2.425-3.301-2.162-3.098.26.007.098.354 9.816.146 9.816-.179 0-1.858-8.119-2.036-8.967-.5-2.377-3.58-1.658-3.027.707.022.09 2.095 8.26 1.901 8.26-.162 0-2.298-5.128-2.298-5.128-.666-1.903-3.105-1.075-2.438.83 1.414 4.049 2.155 4.635 1.947 8.802-.182 3.628 1.936 6.22 6.073 6.226 9.046.013 6.485-6.492 11.794-9.775.66-.407.025-1.588-1.471-1.557z" fill="#614a36"/></svg>