<svg enable-background="new 0 0 64 64" height="64" viewBox="0 0 64 64" width="64" xmlns="http://www.w3.org/2000/svg"><path d="m24.793 51.612c-1.445.309-1.986-2.002-6.434-4.458-.778-.429-6.528-13.97-6.528-15.226 0-4.115 2.661-13.81 6.216-18.93 1.172-1.686-5.108-6.696-6.33-5.047-8.244 11.126-9.717 21.119-9.717 25.482 0 4.328 10.055 28.567 10.055 28.567z" fill="#7ab51d"/><path d="m39.207 51.612c1.445.309 1.986-2.002 6.435-4.458.778-.429 6.528-13.97 6.528-15.226 0-4.115-2.661-13.81-6.216-18.93-1.172-1.686 5.108-6.696 6.33-5.047 8.243 11.126 9.716 21.119 9.716 25.482 0 4.328-10.055 28.567-10.055 28.567z" fill="#7ab51d"/><path d="m20.97 2.529c-1.726.272-6.506 3.147-8.083 5.595-.865 1.341 3.506 4.381 4.78 3.513 3.846-2.62 2.539-5.145 7.229-6.109 5.613-1.155 7.223-1.805 7.223-3.15-.001-.596-7.411-.442-11.149.151z" fill="#b88a6f"/><path d="m43.029 2.529c1.726.272 6.506 3.147 8.083 5.595.865 1.341-3.506 4.381-4.78 3.513-3.846-2.62-2.539-5.145-7.229-6.109-5.613-1.155-7.223-1.805-7.223-3.15.001-.596 7.411-.442 11.149.151z" fill="#b88a6f"/><path d="m24.617 51.609c3.49-1.257 11.428-1.452 14.842 0 3.736 1.59 12.486 10.391 12.486 10.391h-39.89s8.726-9.01 12.562-10.391z" fill="#7ab51d"/><g fill="#946346"><path d="m24 53c0 6.75 16 6.75 16 0v-7h-16z"/><path d="m16.609 30.875c-5.146-.928-1.127 13.462 2.902 9.493 1.866-1.842-.495-9.058-2.902-9.493z"/><path d="m47.389 30.875c-2.406.435-4.77 7.651-2.9 9.493 4.029 3.969 8.044-10.421 2.9-9.493z"/></g><path d="m32 14.002c-10.643 0-15.77 8.051-15.127 19.245.129 2.254 1.525 9.6 2.844 12.234 1.348 2.695 5.859 6.851 8.625 7.712 1.746.543 5.568.543 7.314 0 2.764-.861 7.277-5.017 8.627-7.712 1.318-2.635 2.713-9.98 2.842-12.234.645-11.195-4.484-19.245-15.125-19.245z" fill="#b88a6f"/><path d="m32 44.477c-2.395-.705-5.94.332-5.94.332 1.35 1.471 2.34 3.381 5.94 3.381 4.123 0 4.822-2.166 5.939-3.381 0 0-3.548-1.041-5.939-.332z" fill="#80553c"/><path d="m26.965 45.059c2.508 2.105 7.576 2.117 10.1 0-2.674.114-7.407.116-10.1 0z" fill="#fff"/><path d="m35.299 40.518c0 2.148-6.6 2.148-6.6 0 0-.492 6.6-.492 6.6 0z" fill="#946346"/><path d="m32 14.002c-7.322 0-11.744 2.418-13.652 1.49 0 0-.207 1.248.541 2.061 0 0-.789.684-2.063-.469-1.213 3.939 2.387 6.221 15.174 6.221 12.785 0 9.73-3.113 16.016 2.355-.616-6.74-4.899-11.658-16.016-11.658z" fill="#875b49"/><path d="m37.414 19.877c-7.041 2.6-9.613-2.088-16.256-2.541 3.16 1.492 4.701 3.787 7.295 5.443-5.645-1.889-9.789-5.141-10.104-7.275 0 0-.941 3.117 2.785 5.447-3.563.33-4.307-3.855-4.307-3.855-1.805 2.898-1.555 12.246.449 19.181.334-2.475-.426-3.497.717-6.479 3.426-8.914 1.221-5.172 14.008-5.172 12.783 0 10.477-3.414 14.004 5.172 1.053 2.559.383 4.005.719 6.479 4.204-15.639-1.841-19.156-9.31-16.4z" fill="#6b4435"/><path d="m43.393 34.114c-1.424 3.721-7.207 3.176-8.268.57.805-4.184 7.486-4.542 8.268-.57z" fill="#fff"/><path d="m20.605 34.114c1.422 3.721 7.209 3.176 8.268.57-.807-4.186-7.486-4.544-8.268-.57z" fill="#fff"/><path d="m43.982 29.633c-2.435-1.207-7.092-1.268-8.826-.426-.371.164-.127 1.31.186 1.199 2.42-.895 6.318-.916 8.582.078.301.127.428-.682.058-.851z" fill="#80553c"/><path d="m20.016 29.633c2.434-1.207 7.09-1.268 8.826-.426.371.164.127 1.31-.186 1.199-2.422-.895-6.318-.916-8.584.078-.301.127-.426-.682-.056-.851z" fill="#80553c"/><path d="m36.602 33.716c0 3.266 4.725 3.266 4.725 0-.001-3.033-4.725-3.033-4.725 0z" fill="#613f34"/><path d="m37.068 34.762c0 1.871 3.791 1.871 3.791 0 0-1.738-3.791-1.738-3.791 0z" fill="#7d5037"/><path d="m37.982 33.766c0 1.357 1.963 1.357 1.963 0 0-1.255-1.963-1.255-1.963 0z" fill="#1a1626"/><path d="m37.313 33.372c0 .686.992.686.992 0 0-.634-.992-.634-.992 0z" fill="#ab968c"/><path d="m22.672 33.716c0 3.266 4.726 3.266 4.726 0 0-3.033-4.726-3.033-4.726 0z" fill="#613f34"/><path d="m23.141 34.76c0 1.873 3.789 1.873 3.789 0 0-1.738-3.789-1.738-3.789 0z" fill="#7d5037"/><path d="m24.055 33.766c0 1.355 1.961 1.355 1.961 0 0-1.257-1.961-1.257-1.961 0z" fill="#1a1626"/><path d="m23.385 33.372c0 .684.99.684.99 0 0-.636-.99-.636-.99 0z" fill="#ab968c"/><path d="m43.393 34.085c0-3.997-8.268-3.997-8.268.633 1.182-3.798 7.086-3.798 8.268-.633z" fill="#946346"/><path d="m20.605 34.085c0-3.997 8.268-3.997 8.268.631-1.18-3.798-7.086-3.798-8.268-.631z" fill="#946346"/></svg>