<svg enable-background="new 0 0 64 64" height="64" viewBox="0 0 64 64" width="64" xmlns="http://www.w3.org/2000/svg" xmlns:xlink="http://www.w3.org/1999/xlink"><radialGradient id="a" cx="33.6523" cy="47.7803" gradientTransform="matrix(1.004 0 0 .9643 -1.7863 -15.1041)" gradientUnits="userSpaceOnUse" r="24.9986"><stop offset="0" stop-color="#b3806a"/><stop offset="1" stop-color="#785647"/></radialGradient><linearGradient id="b"><stop offset="0" stop-color="#ebbb96"/><stop offset="1" stop-color="#ebbb96"/></linearGradient><radialGradient id="c" cx="267.5088" cy="-932.2617" gradientTransform="matrix(1.3077 0 0 -.8853 -317.8211 -781.8891)" gradientUnits="userSpaceOnUse" r="12.7083" xlink:href="#b"/><radialGradient id="d" cx="1312.9326" cy="53.4902" gradientTransform="matrix(-1 0 0 .9524 1352.2305 -20.9658)" gradientUnits="userSpaceOnUse" r="10.4613" xlink:href="#b"/><radialGradient id="e" cx="1327.5273" cy="53.4902" gradientTransform="matrix(-1 0 0 .9524 1352.2305 -20.9658)" gradientUnits="userSpaceOnUse" r="10.4618" xlink:href="#b"/><linearGradient id="f"><stop offset="0" stop-color="#d9a17a"/><stop offset="1" stop-color="#ebbb96"/></linearGradient><linearGradient id="g" gradientUnits="userSpaceOnUse" x1="41.4854" x2="39.4781" xlink:href="#f" y1="17.501" y2="28.9502"/><linearGradient id="h" gradientTransform="matrix(-1 0 0 1 1352.2305 0)" gradientUnits="userSpaceOnUse" x1="1329.7148" x2="1327.7075" xlink:href="#f" y1="17.5005" y2="28.9497"/><linearGradient id="i" gradientUnits="userSpaceOnUse" x1="32.0005" x2="32.0005" y1="50.1973" y2="48.8281"><stop offset="0" stop-color="#d63324"/><stop offset=".0798" stop-color="#dc3f31"/><stop offset=".2475" stop-color="#e75346"/><stop offset=".4352" stop-color="#ee6155"/><stop offset=".6572" stop-color="#f3695d"/><stop offset="1" stop-color="#f46c60"/></linearGradient><path d="m45 45.625c0-16.501-26-16.501-26 0 0 16.5 26 16.5 26 0z" fill="#785647"/><path d="m43.158 7.017s-2.531-1.998-5.414-.526c0 0-.248-1.522 1.734-2.849 0 0-3.789-.678-6.463 1.687 0 0-.398-1.576.734-3.329 0 0-4.727.316-6.871 4.173 0 0-2.242-.9-4.008.451 1.766.394 1.711 1.21 1.711 1.21l17.089 1.267s-.402-1.802 1.488-2.084z" fill="#785647"/><path d="m51.568 25.724c0-13.238-10.072-19.784-19.566-19.784-9.496 0-19.568 6.546-19.568 19.784 0 4.025-4.502 7.409-4.531 12.792-.069 13.875 12.05 17.484 24.099 17.484 12.047 0 24.17-3.604 24.096-17.486-.03-5.382-4.53-8.765-4.53-12.79z" fill="url(#a)"/><ellipse cx="32" cy="43.441" fill="url(#c)" rx="17" ry="10.986"/><ellipse cx="39.298" cy="29.978" fill="url(#d)" rx="10.702" ry="9.729"/><ellipse cx="24.703" cy="29.978" fill="url(#e)" rx="10.703" ry="9.729"/><ellipse cx="39.298" cy="29.978" fill="url(#g)" rx="8.845" ry="8.002"/><ellipse cx="24.703" cy="29.978" fill="url(#h)" rx="8.844" ry="8.002"/><g fill="#302c3b"><path d="m27.531 37.473c-.451-1.916 4.057 1.297 3.449 1.516-1.099.402-3.087-.001-3.449-1.516z"/><path d="m36.467 37.473c.453-1.916-4.055 1.297-3.449 1.516 1.101.402 3.087-.001 3.449-1.516z"/><path d="m39.363 44.613c0-.357-.203-.805-.789-.92-1.5-.293-3.715-.596-6.574-.596-2.857 0-5.074.303-6.574.596-.584.115-.791.563-.791.92 0 3.23 2.432 6.484 7.365 6.484 4.934.001 7.363-3.253 7.363-6.484z"/></g><path d="m28.898 49.531c.896.42 1.93.666 3.102.666s2.205-.246 3.102-.666c0 0-1.555-1.232-3.102-.434-1.549-.798-3.102.434-3.102.434z" fill="url(#i)"/><path d="m40.273 26.6c1.611 0 2.916 1.96 2.916 4.378s-1.305 4.379-2.916 4.379c-1.615 0-2.92-1.961-2.92-4.379s1.305-4.378 2.92-4.378z" fill="#302c3b"/><ellipse cx="23.732" cy="30.979" fill="#302c3b" rx="2.918" ry="4.379"/><path d="m23.652 29.572c0 1.369-1.914 1.369-1.914 0 0-1.373 1.914-1.373 1.914 0z" fill="#6e8189"/><path d="m40.121 29.572c0 1.369-1.914 1.369-1.914 0 0-1.373 1.914-1.373 1.914 0z" fill="#6e8189"/><path d="m54.625 19.915c-2.184-3.119-4.945-1.098-3.658 1.596-2.936 2.231 1.355 6.053 1.557 8.949.248 3.556-1.914 5.604-1.646 10.521 1.357 6.123 8.57 2.758 8.889-4.855.799-3.288-1.078-10.41-5.142-16.211z" fill="#ffdaad"/><path d="m56.162 29.406c-.814-4.49-3.588-6.829-5.195-7.895-1.162-2.632.873-3.117.873-3.117-2.442 2.147 4.322 4.671 4.322 11.012z" fill="#e3b182"/><path d="m50.967 21.511c-2.16 2.661 1.623 4.798 2.197 8.949.68 4.925-1.607 9.185.555 12.921.281.486-1.672.424-2.287.164-2.123-4.434.99-9.152.928-12.806-.036-2.134-4.637-7.12-1.393-9.228z" fill="#e3b182"/><path d="m50.727 40.945c-.791 6.342 3.686 5.893-1.328 21.055h12.601c-4.449-15.963-.492-30.193-3.084-24.756-1.984 4.16-4.668-.527-4.58 3.229.129 5.427-3.522-.233-3.609.472z" fill="#8a6859"/><path d="m9.375 19.891c2.184-3.119 4.945-1.098 3.658 1.596 2.936 2.231-1.355 6.053-1.557 8.949-.248 3.556 1.916 5.603 1.646 10.521-1.357 6.123-8.57 2.758-8.889-4.855-.799-3.288 1.078-10.41 5.142-16.211z" fill="#ffdaad"/><path d="m7.838 29.382c.814-4.49 3.588-6.829 5.195-7.895 1.164-2.632-.873-3.117-.873-3.117 2.442 2.147-4.322 4.671-4.322 11.012z" fill="#e3b182"/><path d="m13.033 21.487c2.16 2.661-1.623 4.798-2.195 8.949-.682 4.926 1.605 9.186-.557 12.922-.281.486 1.672.422 2.287.162 2.123-4.432-.99-9.15-.928-12.804.036-2.135 4.637-7.121 1.393-9.229z" fill="#e3b182"/><path d="m13.273 40.922c.791 6.34-3.686 5.893 1.328 21.055h-12.601c4.449-15.963.492-30.194 3.084-24.756 1.984 4.16 4.668-.527 4.58 3.229-.129 5.425 3.522-.233 3.609.472z" fill="#8a6859"/></svg>