<svg enable-background="new 0 0 64 64" height="64" viewBox="0 0 64 64" width="64" xmlns="http://www.w3.org/2000/svg"><path d="m50.207 32.65c-7.478-3.534-28.937-3.534-36.414 0-4.849 2.292-9.048 21.835.804 27.049h34.807c9.851-5.214 5.652-24.757.803-27.049z" fill="#529320"/><path d="m10.977 50.253c-.823.322 1.021-1.995 4.64-1.771 5.296-8.278 3.319-19.104-2.177-15.637-5.288 3.336-10.768 18.982-9.152 22.426 2.211 4.715 14.063 5.593 14.063 5.593s.457-3.727 4.363-6.169c-7.066-4.089-6.591-6.455-11.737-4.442z" fill="#7ab51d"/><path d="m31.142 58.458c1.511-1.031-4.478-3.973-7.89-3.973-5.041 0-10.096 7.592-1.53 6.564 3.751.406 5.7 1.847 5.852.122 0 0 .768-.131 1.598.304.856.452 1.973-.58 1.244-1.209 1.812.069 1.662-1.51.726-1.808z" fill="#fc6"/><path d="m23.732 59.201s5.438 1.051 3.571 2.63c.847-1.279-3.571-2.63-3.571-2.63z" fill="#e6b045"/><path d="m24.857 57.905s7.413 1.784 5.547 3.365c.846-1.279-5.547-3.365-5.547-3.365z" fill="#e6b045"/><path d="m25.878 56.366s7.454 1.352 5.793 3.458c.726-1.728-5.793-3.458-5.793-3.458z" fill="#e6b045"/><path d="m53.023 50.253c.823.322-1.021-1.995-4.64-1.771-5.296-8.278-3.319-19.104 2.177-15.637 5.287 3.335 10.768 18.981 9.151 22.425-2.211 4.715-14.063 5.593-14.063 5.593s-.457-3.727-4.363-6.169c7.067-4.088 6.592-6.454 11.738-4.441z" fill="#7ab51d"/><path d="m32.858 58.458c-1.511-1.031 4.478-3.973 7.889-3.973 5.042 0 10.097 7.592 1.531 6.564-3.751.406-5.7 1.847-5.852.122 0 0-.768-.131-1.598.304-.856.452-1.973-.58-1.244-1.209-1.812.069-1.662-1.51-.726-1.808z" fill="#fc6"/><path d="m40.268 59.201s-5.438 1.051-3.571 2.63c-.847-1.279 3.571-2.63 3.571-2.63z" fill="#e6b045"/><path d="m39.143 57.905s-7.413 1.784-5.547 3.365c-.846-1.279 5.547-3.365 5.547-3.365z" fill="#e6b045"/><path d="m38.122 56.366s-7.454 1.352-5.793 3.458c-.726-1.728 5.793-3.458 5.793-3.458z" fill="#e6b045"/><path d="m31.999 13.999c-21.654 0-19.568 17.358-19.568 25.472h39.137c-.001-8.114 2.086-25.472-19.569-25.472z" fill="#594640"/><path d="m14.365 35.041c-6.873-.889-2.396 12.91 2.987 9.105 2.495-1.765.229-8.688-2.987-9.105z" fill="#e6b045"/><path d="m49.635 35.041c-3.218.417-5.481 7.34-2.987 9.105 5.382 3.804 9.859-9.994 2.987-9.105z" fill="#e6b045"/><path d="m49.411 35.869c0-11.576-34.822-11.576-34.822 0 0 0 .038 2.901 1.165 8.695.543 2.793 6.784 9.435 16.245 9.435 9.465 0 15.703-6.642 16.246-9.435 1.127-5.796 1.166-8.695 1.166-8.695z" fill="#fc6"/><path d="m31.642 25.523c-3.164 5.638-15.01 9.163-19.08 8.797 3.686-3.728 5.323-13.328 19.08-8.797z" fill="#594640"/><path d="m12.562 34.32c5.184-1.354 11.917-4.116 19.08-8.797-3.164 5.638-13.567 10.088-19.08 8.797z" fill="#453631"/><path d="m47.624 25.219c-4.477 6.715-21.235 10.915-26.994 10.479 5.215-4.443 7.531-15.876 26.994-10.479z" fill="#594640"/><path d="m20.63 35.697c13.768-3.827 26.994-10.479 26.994-10.479-4.477 6.716-16.951 11.451-26.994 10.479z" fill="#453631"/><path d="m48.274 23.677c5.365 8.738-8.602 12.321-14.372 11.97 5.175-3.412 8.646-12.245 14.372-11.97z" fill="#594640"/><path d="m33.902 35.646c6.94-3.185 17.517-3.836 14.372-11.97 5.366 8.739-8.253 12.759-14.372 11.97z" fill="#453631"/><path d="m44.876 42.938c-1.606 4.206-8.145 3.59-9.343.646.909-4.73 8.461-5.135 9.343-.646z" fill="#fff"/><path d="m37.2 42.489c0 3.692 5.342 3.692 5.342 0 0-3.426-5.342-3.426-5.342 0z" fill="#613f34"/><path d="m37.729 43.671c0 2.117 4.283 2.117 4.283 0 .001-1.966-4.283-1.966-4.283 0z" fill="#7d5037"/><path d="m38.763 42.548c0 1.533 2.217 1.533 2.217 0-.001-1.422-2.217-1.422-2.217 0z" fill="#1a1626"/><path d="m38.006 42.1c0 .775 1.119.775 1.119 0 0-.718-1.119-.718-1.119 0z" fill="#ab968c"/><path d="m44.876 42.906c0-4.519-9.343-4.519-9.343.716 1.335-4.293 8.008-4.293 9.343-.716z" fill="#e6b045"/><path d="m19.121 42.938c1.606 4.206 8.147 3.59 9.344.646-.909-4.732-8.457-5.137-9.344-.646z" fill="#fff"/><path d="m21.458 42.488c0 3.692 5.341 3.692 5.341 0 0-3.426-5.341-3.426-5.341 0z" fill="#613f34"/><path d="m21.985 43.67c0 2.117 4.285 2.117 4.285 0 .001-1.965-4.285-1.965-4.285 0z" fill="#7d5037"/><path d="m23.021 42.547c0 1.532 2.216 1.532 2.216 0-.001-1.422-2.216-1.422-2.216 0z" fill="#1a1626"/><path d="m22.262 42.099c0 .774 1.12.774 1.12 0 0-.719-1.12-.719-1.12 0z" fill="#ab968c"/><path d="m19.121 42.906c0-4.519 9.344-4.519 9.344.714-1.333-4.294-8.01-4.294-9.344-.714z" fill="#e6b045"/><path d="m45.739 38.326c-2.791-1.386-8.131-1.452-10.121-.487-.426.188-.144 1.501.215 1.375 2.773-1.028 7.245-1.052 9.841.088.345.146.488-.782.065-.976z" fill="#c1873c"/><path d="m18.259 38.326c2.791-1.386 8.13-1.452 10.121-.487.426.188.145 1.501-.213 1.375-2.777-1.028-7.245-1.052-9.841.088-.346.146-.489-.782-.067-.976z" fill="#c1873c"/><path d="m35.783 49.602c0 2.462-7.568 2.462-7.568 0 0-.566 7.568-.566 7.568 0z" fill="#e6b045"/><g fill="#0fb4d4"><path d="m39.502 2.079c3.996 1.071-2.166 9.336-2.48 9.252-.319-.085-1.524-10.325 2.48-9.252z"/><path d="m53.637 10.184c2.373 3.389-7.66 5.76-7.848 5.493-.187-.27 5.471-8.889 7.848-5.493z"/><path d="m24.502 2.079c3.996-1.07 2.791 9.168 2.477 9.252-.317.086-6.481-8.18-2.477-9.252z"/><path d="m10.363 10.181c2.373-3.389 8.033 5.229 7.846 5.495-.188.269-10.223-2.101-7.846-5.495z"/></g></svg>