<svg enable-background="new 0 0 64 64" height="64" viewBox="0 0 64 64" width="64" xmlns="http://www.w3.org/2000/svg"><path d="m25.938 20.643c-8.131 34.904-7.388 34.156 9.73 34.156-9.472-6.627 8.674-34.631-9.73-34.156z" fill="#3b2c29"/><path d="m23.005 20.102c-5.935 26.519-.814 33.33 3.731 34.697h5.21c-12.189-8.588 6.865-35.218-8.941-34.697z" fill="#453631"/><path d="m49.861 20.641c8.132 34.906 7.387 34.158-9.73 34.158 8.712-5.319-8.673-34.632 9.73-34.158z" fill="#3b2c29"/><path d="m52.793 20.1c8.675 24.126-.018 33.582-3.732 34.699h-5.207c12.191-7.889-6.864-35.22 8.939-34.699z" fill="#453631"/><path d="m54.236 33.064c2.512 6.133.027 18.723-5.176 21.734 5.767 0 9.277-7.979 10.99-18.955 2.139-13.716-10.288-13.723-5.814-2.779z" fill="#594640"/><path d="m16.394 38.389c2.1 9.906 4.685 16.41 10.343 16.41-6.309-6.531-5.566-20.309-3.772-23.736 9.138-5.441-10.125-9.43-6.571 7.326z" fill="#594640"/><path d="m19.077 56.43c2.303-1.412 12.08-6.139 12.08-6.139h13.757s9.77 4.721 12.059 6.135c3.324 2.054 4.027 5.574 4.027 5.574h-46s.741-3.527 4.077-5.57z" fill="#8e3ed6"/><path d="m6.137 23.441c.357-1.523 9.516-1.535 9.275.361-.809 6.422.615 19.098 1.082 19.895 2.979 5.084 10.247 7.733 14.506 6.653-4.023 6.923-11.093 11.65-11.093 11.65h-7.676s-6.17-11.475-7.217-15.625c-.732-2.908-.471-16.174 1.123-22.934z" fill="#8e3ed6"/><path d="m14.877 23.447c0 1.176-8.326 1.176-8.326 0 0-7.735 8.326-7.464 8.326 0z" fill="#fc6"/><path d="m20.383 12.517c-2.824.061-3.068 2.864-3.889 2.19-.17-.139-.234-.821-.145-1.127.643-2.198 1.627-6.259 1.922-7.403.539-2.072-2.283-2.853-2.822-.78-.025.103-1.752 7.718-1.873 7.687-.115-.029-.199-8.664-.25-9.49-.141-2.283-3.109-2.035-2.918.245.008.092.334 9.245.137 9.245-.168 0-1.748-7.646-1.916-8.444-.472-2.24-3.373-1.563-2.851.665.02.084 1.973 7.778 1.789 7.778-.152 0-2.162-4.829-2.162-4.829-.629-1.792-2.926-1.011-2.297.784 1.332 3.813 2.029 4.364 1.834 8.289-.172 3.417 1.822 5.858 5.721 5.864 8.52.012 6.107-6.115 11.107-9.207.621-.384.023-1.495-1.387-1.467z" fill="#fc6"/><path d="m31 51c0 6.75 14 6.75 14 0v-7h-14z" fill="#e6b045"/><path d="m38 12.254c-10.835 0-16.053 8.824-15.402 20.169.134 2.281.768 5.57 1.551 8.391 1.625 5.86 10.201 11.76 13.851 11.76 3.649 0 12.227-5.9 13.85-11.76.785-2.82 1.419-6.109 1.555-8.391.649-11.344-4.567-20.169-15.405-20.169z" fill="#fc6"/><path d="m38 43.217c-2.635-1.16-2.654-.049-6.718.225 1.525 1.732 2.648 3.961 6.716 3.961 4.67 0 5.459-2.531 6.723-3.961-4.069-.274-4.086-1.385-6.721-.225z" fill="#d47706"/><path d="m32.5 43.871c2.655 2.764 8.377 2.729 11 .002-4.088.44-6.91.44-11-.002z" fill="#fff"/><path d="m49.941 28.301c-2.442-1.453-6.82-1.633-8.555-.641-.366.201-.268 1.252.05 1.121 2.472-1.029 6.235-1.08 8.556.109.313.157.319-.376-.051-.589z" fill="#594640"/><path d="m26.061 28.301c2.44-1.453 6.818-1.633 8.554-.641.366.201.27 1.252-.051 1.121-2.472-1.029-6.234-1.082-8.554.109-.312.157-.32-.376.051-.589z" fill="#594640"/><path d="m41.359 39.256c0 2.186-6.719 2.186-6.719 0 .001-.504 6.719-.504 6.719 0z" fill="#e6b045"/><path d="m49.705 32.734c-1.447 3.787-7.337 3.232-8.414.582.816-4.263 7.617-4.628 8.414-.582z" fill="#fff"/><path d="m42.766 32.322c0 3.355 4.854 3.355 4.854 0-.001-3.116-4.854-3.116-4.854 0z" fill="#613f34"/><path d="m43.245 33.395c0 1.926 3.894 1.926 3.894 0 0-1.786-3.894-1.786-3.894 0z" fill="#7d5037"/><path d="m44.185 32.375c0 1.393 2.015 1.393 2.015 0-.001-1.292-2.015-1.292-2.015 0z" fill="#1a1626"/><path d="m43.496 31.969c0 .703 1.018.703 1.018 0 0-.654-1.018-.654-1.018 0z" fill="#ab968c"/><path d="m49.705 32.705c0-4.072-8.414-4.072-8.414.645 1.198-3.871 7.213-3.871 8.414-.645z" fill="#45332c"/><path d="m26.295 32.734c1.449 3.787 7.338 3.232 8.417.582-.817-4.263-7.618-4.628-8.417-.582z" fill="#fff"/><path d="m28.383 32.328c0 3.355 4.851 3.355 4.851 0 0-3.117-4.851-3.117-4.851 0z" fill="#613f34"/><path d="m28.862 33.4c0 1.924 3.895 1.924 3.895 0-.001-1.785-3.895-1.785-3.895 0z" fill="#7d5037"/><path d="m29.801 32.381c0 1.393 2.017 1.393 2.017 0 0-1.295-2.017-1.295-2.017 0z" fill="#1a1626"/><path d="m29.114 31.973c0 .705 1.018.705 1.018 0-.001-.652-1.018-.652-1.018 0z" fill="#ab968c"/><path d="m26.295 32.705c0-4.072 8.417-4.072 8.417.643-1.199-3.871-7.213-3.871-8.417-.643z" fill="#45332c"/><path d="m50.107 13.833c-7.598 7.785-.346 8.287 4.129 19.232 2.512 6.133 4.102 13.756 5.814 2.779 2.139-13.717-6.081-23.156-9.943-22.011z" fill="#594640"/><path d="m31.458 10.85c-9.635 2.268-18.617 10.783-15.063 27.539 2.1 9.906 4.776-3.898 6.57-7.326 9.139-5.441 24.768-9.561 27.143-17.23 1.205-1.772-9.009-5.508-18.65-2.983z" fill="#594640"/><g fill="#453631"><path d="m24.075 23.055c4.074-.826 23.566-1.215 26.033-9.223-4.606 3.67-9.379 4.67-26.033 9.223z"/><path d="m17.05 35.795c6.835-9.123 29.227-8.117 33.057-21.962-7.435 11.621-31.189 13.191-33.057 21.962z"/><path d="m47.855 15.729c-1.766 2.781 4.364-1.303 10.971 16.599-1.628-10.466-7.211-17.671-10.971-16.599z"/></g></svg>