<svg enable-background="new 0 0 64 64" height="64" viewBox="0 0 64 64" width="64" xmlns="http://www.w3.org/2000/svg"><path d="m19.938 16.643c-8.131 34.904-7.389 34.156 9.73 34.156-9.473-6.627 8.674-34.631-9.73-34.156z" fill="#261a17"/><path d="m17.004 16.102c-5.934 26.519-.814 33.33 3.732 34.697h5.209c-12.189-8.588 6.866-35.218-8.941-34.697z" fill="#1e1513"/><path d="m43.861 16.641c8.131 34.906 7.387 34.158-9.73 34.158 8.711-5.32-8.674-34.632 9.73-34.158z" fill="#261a17"/><path d="m46.793 16.1c8.674 24.126-.018 33.582-3.732 34.699h-5.207c12.191-7.889-6.864-35.22 8.939-34.699z" fill="#1e1513"/><path d="m48.236 29.065c2.512 6.132.027 18.722-5.176 21.734 5.766 0 9.277-7.979 10.99-18.955 2.139-13.717-10.288-13.724-5.814-2.779z" fill="#3a2c29"/><path d="m10.393 34.389c2.1 9.906 4.686 16.41 10.344 16.41-6.309-6.529-5.566-20.308-3.773-23.736 9.138-5.441-10.124-9.43-6.571 7.326z" fill="#3a2c29"/><path d="m13.076 52.43c2.303-1.412 11.85-5.139 11.85-5.139h14.219s9.539 3.721 11.828 5.135c3.324 2.054 4.027 9.574 4.027 9.574h-46s.74-7.527 4.076-9.57z" fill="#8e3ed6"/><path d="m24.832 48.939c0 5.725 14.336 5.725 14.336 0 0-3.492 0-9.264 0-9.264h-14.336z" fill="#dba97f"/><path d="m32 8.254c-10.836 0-16.055 8.824-15.402 20.17.133 2.281.768 5.57 1.551 8.39 1.624 5.86 10.201 11.762 13.851 11.762 3.648 0 12.227-5.902 13.85-11.762.785-2.82 1.418-6.109 1.555-8.39.648-11.345-4.567-20.17-15.405-20.17z" fill="#fcd5b2"/><path d="m16 62h1c-.5-6.666-.5-6.666-1 0z" fill="#732eb0"/><path d="m47 62h1c-.5-6.666-.5-6.666-1 0z" fill="#732eb0"/><path d="m35.299 35.322c0 2.148-6.6 2.148-6.6 0 0-.492 6.6-.492 6.6 0z" fill="#dba97f"/><path d="m27.385 42.844c2.811-1.748 6.422-1.748 9.23 0 .398.246.449-.02.324-.23-2.08-3.563-7.799-3.563-9.881 0-.12.21-.074.476.327.23z" fill="#cc9d76"/><path d="m43.945 25.704c-1.736-2.936-6.916-1.599-8.465-2.516-.357-.104-.449 1.19-.15 1.279 2.291.798 6.717-.658 8.342 2.022.224.322.541-.364.273-.785z" fill="#594640"/><path d="m20.057 25.704c1.734-2.935 6.912-1.599 8.461-2.516.357-.104.451 1.19.152 1.28-2.289.796-6.717-.659-8.344 2.021-.224.322-.539-.364-.269-.785z" fill="#594640"/><path d="m43.705 28.973c-1.447 3.787-7.336 3.232-8.414.582.816-4.265 7.617-4.629 8.414-.582z" fill="#fff"/><path d="m36.766 29.162c0 3.356 4.854 3.356 4.854 0-.001-3.118-4.854-3.118-4.854 0z" fill="#613f34"/><path d="m37.246 30.234c0 1.926 3.893 1.926 3.893 0 0-1.785-3.893-1.785-3.893 0z" fill="#7d5037"/><path d="m38.186 29.214c0 1.393 2.014 1.393 2.014 0-.001-1.293-2.014-1.293-2.014 0z" fill="#1a1626"/><path d="m37.496 28.808c0 .703 1.018.703 1.018 0 0-.654-1.018-.654-1.018 0z" fill="#ab968c"/><path d="m43.705 28.944c0-4.072-8.414-4.072-8.414.645 1.199-3.872 7.213-3.872 8.414-.645z" fill="#45332c"/><path d="m20.295 28.973c1.449 3.787 7.34 3.232 8.418.582-.818-4.265-7.619-4.629-8.418-.582z" fill="#fff"/><path d="m22.383 29.162c0 3.356 4.852 3.356 4.852 0-.001-3.118-4.852-3.118-4.852 0z" fill="#613f34"/><path d="m22.861 30.234c0 1.924 3.895 1.924 3.895 0 0-1.785-3.895-1.785-3.895 0z" fill="#7d5037"/><path d="m23.801 29.214c0 1.393 2.018 1.393 2.018 0-.001-1.295-2.018-1.295-2.018 0z" fill="#1a1626"/><path d="m23.113 28.806c0 .705 1.018.705 1.018 0 0-.652-1.018-.652-1.018 0z" fill="#ab968c"/><path d="m20.295 28.944c0-4.072 8.418-4.072 8.418.643-1.199-3.874-7.215-3.874-8.418-.643z" fill="#45332c"/><path d="m18.705 31.081h26.588v2.48h-26.588z" fill="#fcd5b2"/><path d="m44.107 9.833c-7.598 7.785-.346 8.287 4.129 19.232 2.512 6.132 4.102 13.755 5.814 2.779 2.139-13.717-6.081-23.156-9.943-22.011z" fill="#3a2c29"/><path d="m25.457 6.85c-9.635 2.268-18.617 10.783-15.064 27.539 2.1 9.906 4.777-3.898 6.57-7.326 9.139-5.441 24.77-9.561 27.145-17.23 1.205-1.772-9.01-5.508-18.651-2.983z" fill="#3a2c29"/><g fill="#1e1513"><path d="m18.074 19.055c4.074-.826 23.566-1.215 26.033-9.223-4.605 3.67-9.378 4.67-26.033 9.223z"/><path d="m11.049 31.795c6.836-9.123 29.229-8.117 33.059-21.963-7.436 11.622-31.19 13.192-33.059 21.963z"/><path d="m41.855 11.729c-1.766 2.781 4.363-1.303 10.971 16.6-1.629-10.467-7.211-17.672-10.971-16.6z"/></g></svg>