<svg enable-background="new 0 0 64 64" height="64" viewBox="0 0 64 64" width="64" xmlns="http://www.w3.org/2000/svg" xmlns:xlink="http://www.w3.org/1999/xlink"><linearGradient id="a"><stop offset="0" stop-color="#614a36"/><stop offset=".5038" stop-color="#5d4631"/><stop offset="1" stop-color="#523b26"/></linearGradient><radialGradient id="b" cx="347.8627" cy="317.3867" gradientTransform="matrix(.9489 0 0 -1.6106 -317.2043 570.355)" gradientUnits="userSpaceOnUse" r="6.283" xlink:href="#a"/><linearGradient id="c"><stop offset=".4121" stop-color="#614a36"/><stop offset=".7338" stop-color="#5f4833"/><stop offset=".9327" stop-color="#57402b"/><stop offset="1" stop-color="#523b26"/></linearGradient><radialGradient id="d" cx="199.5868" cy="-580.6302" gradientTransform="matrix(-.0057 .9459 -.464 .0029 -254.326 -155.3709)" gradientUnits="userSpaceOnUse" r="28.4659" xlink:href="#c"/><radialGradient id="e" cx="1488.9948" cy="317.3867" gradientTransform="matrix(-.9489 0 0 -1.6106 1464.0245 570.355)" gradientUnits="userSpaceOnUse" r="6.283" xlink:href="#a"/><radialGradient id="f" cx="1362.4536" cy="-573.4999" gradientTransform="matrix(.0057 .9459 .464 .0029 308.3881 -1255.3472)" gradientUnits="userSpaceOnUse" r="28.4655" xlink:href="#c"/><g fill="#0fb4d4"><path d="m30.027 7.064c0 4.17 2 8.936 2 8.936s2-4.766 2-8.936c0-6.752-4-6.752-4 0z"/><path d="m19.799 9.261c2.086 3.612 6.201 6.739 6.201 6.739s-.65-5.127-2.734-8.738c-3.379-5.848-6.842-3.848-3.467 1.999z"/><path d="m40.734 7.263c-2.084 3.61-2.734 8.737-2.734 8.737s4.113-3.125 6.199-6.736c3.377-5.848-.088-7.85-3.465-2.001z"/></g><path d="m5.199 49.457c.496 1.928.936 8.533.936 10.857 0 1.609 13.299 1.666 13.299 0 0-1.326.227-8.465 1.051-9.881-.286-.332-15.286-.976-15.286-.976z" fill="url(#b)"/><path d="m19.012 60.219c-1.11 1.166-11.412 1.025-12.455-.008-.01-2.209-.432-8.859-.91-10.754h-.893c.508 1.961.955 8.566.955 10.961 0 2.109 14.148 2.109 14.148 0 0-1.184.168-8.273.924-9.639-.197-.234-.396-.463-.598-.689-.939 1.523-1.167 8.789-1.171 10.129z" fill="#452f1b"/><path d="m29.23 35.111c-4.894.127-5.334 4.904-6.752 3.766-.369-.299-.229-2.354-.229-2.354.084-3.375.145-8.021.188-14.859.021-3.439-5.018-3.41-5.041.033.008-.865.012-1.746.02-2.65.021-3.438-5.019-3.436-5.037.031-.006.928-.014 1.805-.02 2.648.022-3.432-5.016-3.4-5.037.033-.006.734-.014 2.418-.027 4.406-.125-3.424-4.299-3.324-4.439.105-.15 3.902-.381 11.84-.4 15.98-.029 5.943 3.309 11.387 9.793 11.221 14.1-.361 10.688-10.559 19.375-15.875 1.075-.659.046-2.547-2.394-2.485z" fill="url(#d)"/><path d="m22.234 38.408c-2.494.117-6.404 4.326-6.227 8.984.324-4.221 4.637-8.055 7.039-8.039z" fill="#452f1b"/><path d="m29.23 34.636c-4.711.123-5.898 4.563-6.441 3.889-.154-.195-.139-1.129-.08-1.99.088-3.555.147-8.279.188-14.869.018-2.984-3.293-3.859-5.025-2.242l.004-.375c0-4.07-5.953-4.07-5.953.027l-.004.398c-1.68-1.572-5.035-.738-5.053 2.283l-.014 2.121c-1.59-1.541-4.336-.482-4.451 2.375-.155 3.864-.385 11.784-.401 15.999-.018 3.285 1.467 8.961 6.418 10.566-3.715-1.996-5.523-7.252-5.508-10.563.02-4.201.252-12.108.404-15.963.111-2.848 3.412-2.887 3.523-.119l-.063 9.824.92.006.059-9.834.027-4.408c0-2.816 4.121-2.816 4.121-.039l-.086 14.242.914.008.094-15.043.012-1.85c.017-2.904 4.137-2.756 4.123-.039l-.018 2.652-.086 14.24.914.008.088-14.26c0-2.799 4.121-2.799 4.121-.02 0 6.582-.098 11.301-.185 14.826-.104 1.533.031 2.463.404 2.762 2 1.607 2.252-3.541 7.033-3.664 2.023 0 2.74 1.234 2.158 1.604-7.512 4.752-6.791 13.564-14.977 15.803 9.219-1.695 8.357-10.652 15.443-14.986 1.385-.845.553-3.369-2.623-3.369z" fill="#452f1b"/><path d="m58.801 49.457c-.496 1.928-.936 8.533-.936 10.857 0 1.609-13.301 1.666-13.301 0 0-1.326-.225-8.465-1.049-9.881.284-.332 15.286-.976 15.286-.976z" fill="url(#e)"/><path d="m44.988 60.219c1.109 1.166 11.41 1.025 12.455-.008.01-2.209.43-8.859.908-10.754h.893c-.506 1.961-.955 8.566-.955 10.961 0 2.109-14.146 2.109-14.146 0 0-1.184-.168-8.273-.926-9.639.199-.234.396-.463.6-.689.937 1.523 1.165 8.789 1.171 10.129z" fill="#452f1b"/><path d="m34.768 35.111c4.895.127 5.336 4.904 6.754 3.766.367-.299.229-2.354.229-2.354-.086-3.375-.146-8.021-.188-14.859-.023-3.439 5.016-3.41 5.039.033-.008-.865-.012-1.746-.02-2.65-.02-3.438 5.021-3.436 5.039.031.006.928.012 1.805.018 2.648-.021-3.432 5.018-3.4 5.039.033.006.734.012 2.418.025 4.406.125-3.424 4.299-3.324 4.44.105.152 3.902.383 11.84.4 15.98.029 5.943-3.309 11.387-9.793 11.221-14.098-.361-10.686-10.559-19.373-15.875-1.078-.659-.047-2.547 2.391-2.485z" fill="url(#f)"/><path d="m41.764 38.408c2.496.117 6.406 4.326 6.229 8.984-.324-4.221-4.639-8.055-7.039-8.039z" fill="#452f1b"/><path d="m34.768 34.636c4.711.123 5.898 4.563 6.441 3.889.156-.195.141-1.129.082-1.99-.088-3.555-.148-8.279-.188-14.869-.018-2.984 3.291-3.859 5.023-2.242l-.002-.375c0-4.07 5.953-4.07 5.953.027l.002.398c1.682-1.572 5.037-.738 5.053 2.283l.016 2.121c1.588-1.541 4.336-.482 4.451 2.375.152 3.863.385 11.783.4 15.998.018 3.285-1.469 8.961-6.418 10.566 3.715-1.996 5.521-7.252 5.506-10.563-.02-4.201-.25-12.108-.402-15.963-.113-2.848-3.412-2.887-3.524-.119l.061 9.824-.918.006-.059-9.834h-.002l-.027-4.408c0-2.816-4.119-2.816-4.119-.039l.086 14.242-.916.008-.092-15.043-.012-1.85c-.02-2.904-4.139-2.756-4.123-.039l.018 2.652h-.002l.088 14.24-.916.008-.086-14.26c0-2.799-4.123-2.799-4.123-.02 0 6.582.098 11.301.188 14.826.104 1.533-.031 2.463-.404 2.762-2 1.607-2.254-3.541-7.035-3.664-2.021 0-2.74 1.234-2.158 1.604 7.512 4.752 6.793 13.564 14.977 15.803-9.217-1.695-8.355-10.652-15.441-14.986-1.386-.844-.554-3.368 2.622-3.368z" fill="#452f1b"/></svg>