<svg enable-background="new 0 0 64 64" height="64" viewBox="0 0 64 64" width="64" xmlns="http://www.w3.org/2000/svg" xmlns:xlink="http://www.w3.org/1999/xlink"><linearGradient id="a" gradientUnits="userSpaceOnUse" x1="32.0005" x2="32.0005" y1="62" y2="2"><stop offset="0" stop-color="#ffa027"/><stop offset=".2723" stop-color="#ffc151"/><stop offset=".7633" stop-color="#ffc93f"/><stop offset="1" stop-color="#ffe261"/></linearGradient><circle cx="32" cy="32" fill="url(#a)" r="30"/><path d="m29.159 25.411c1.43 5.336-1.739 10.819-7.071 12.247-5.337 1.43-10.817-1.734-12.247-7.071-1.429-5.332 1.733-10.817 7.071-12.247 5.331-1.428 10.818 1.739 12.247 7.071z" fill="#fff"/><path d="m22.19 20.653c.644 2.402-.784 4.869-3.182 5.511-2.404.644-4.868-.779-5.512-3.182-.644-2.402 1.012-3.999 3.415-4.643 2.399-.641 4.636-.087 5.279 2.314z" fill="#302c3b"/><path d="m54.159 25.412c1.43 5.336-1.739 10.819-7.071 12.247-5.335 1.43-10.817-1.734-12.247-7.07-1.429-5.333 1.735-10.818 7.071-12.248 5.331-1.429 10.818 1.738 12.247 7.071z" fill="#fff"/><g fill="#302c3b"><path d="m47.19 20.654c.644 2.401-.786 4.868-3.183 5.51-2.403.644-4.867-.779-5.511-3.181-.644-2.401 1.011-3.999 3.415-4.643 2.397-.642 4.636-.088 5.279 2.314z"/><path d="m38.212 46.1c-4.525-.801-10.584.537-13.483 2.717-.736.555-.402 1.166.2 1.029 3.112-.711 8.535-.715 12.881-.064 1.661.245 2.14-3.376.402-3.682z"/></g></svg>