<svg enable-background="new 0 0 64 64" height="64" viewBox="0 0 64 64" width="64" xmlns="http://www.w3.org/2000/svg"><path d="m53.27 32.984c8.59-14.547-9.578-19.143-11.656-12.188 0 0-4.203 21.33 12.623 21.027-2.182-1.005-4.178-3.406-.967-8.839z" fill="#3a2c29"/><path d="m49.245 20.39c-3.834-2.26-2.406-2.75.402-2.34-3.395-1.07-7.035-.322-7.988 2.518-3.467 10.324-1.383 23.986 13.49 22.818-14.144-3.508 6.377-15.75-5.904-22.996z" fill="#1e1513"/><path d="m50.208 32.65c-7.479-3.535-28.938-3.535-36.414 0-4.85 2.291-9.049 21.836.803 27.051h34.807c9.851-5.215 5.651-24.76.804-27.051z" fill="#732eb0"/><path d="m10.977 50.253c-.824.322 1.02-1.994 4.639-1.77 5.297-8.281 3.32-19.107-2.176-15.639-5.287 3.335-10.768 18.984-9.152 22.427 2.211 4.715 14.064 5.594 14.064 5.594s.457-3.727 4.363-6.17c-7.066-4.088-6.591-6.453-11.738-4.442z" fill="#8e3ed6"/><path d="m31.141 58.458c1.512-1.031-4.477-3.973-7.889-3.973-5.041 0-10.096 7.592-1.531 6.564 3.752.406 5.701 1.848 5.852.123 0 0 .768-.131 1.598.303.857.453 1.973-.58 1.244-1.209 1.812.069 1.664-1.509.726-1.808z" fill="#fcd5b2"/><path d="m23.733 59.203s5.438 1.051 3.57 2.629c.848-1.28-3.57-2.629-3.57-2.629z" fill="#dba97f"/><path d="m24.858 57.906s7.412 1.785 5.547 3.365c.846-1.279-5.547-3.365-5.547-3.365z" fill="#dba97f"/><path d="m25.878 56.367s7.455 1.352 5.793 3.459c.726-1.729-5.793-3.459-5.793-3.459z" fill="#dba97f"/><path d="m53.024 50.253c.822.322-1.021-1.994-4.641-1.77-5.295-8.281-3.318-19.107 2.178-15.639 5.287 3.334 10.768 18.982 9.15 22.426-2.211 4.715-14.063 5.594-14.063 5.594s-.457-3.727-4.363-6.17c7.065-4.087 6.593-6.452 11.739-4.441z" fill="#8e3ed6"/><path d="m32.858 58.458c-1.51-1.031 4.479-3.973 7.889-3.973 5.043 0 10.098 7.592 1.531 6.564-3.75.406-5.699 1.848-5.852.123 0 0-.768-.131-1.598.303-.857.453-1.973-.58-1.244-1.209-1.812.069-1.662-1.509-.726-1.808z" fill="#fcd5b2"/><path d="m40.268 59.203s-5.44 1.051-3.572 2.629c-.846-1.28 3.572-2.629 3.572-2.629z" fill="#dba97f"/><path d="m39.143 57.906s-7.414 1.785-5.547 3.365c-.847-1.279 5.547-3.365 5.547-3.365z" fill="#dba97f"/><path d="m38.122 56.367s-7.453 1.352-5.793 3.459c-.727-1.729 5.793-3.459 5.793-3.459z" fill="#dba97f"/><path d="m40.21 16.091c-4.555 2.471 6.588 14.779 8.557 6.988 1.105-4.378-5.667-8.568-8.557-6.988z" fill="#8e3ed6"/><path d="m32.001 13.998c-13.486 0-19.631 9.943-20.854 21.861-.65 6.318.787 7.662 5.957 11.424 6.09 4.433 23.703 4.433 29.791 0 5.17-3.762 6.607-5.105 5.959-11.424-1.869-18.203-11.172-18.01-11.172-18.01s-.801-3.851-9.681-3.851z" fill="#3a2c29"/><path d="m17.641 46.796c1.072-10.244-1.588-11.313-5.24-3.941 0 0 3.094 5.978 5.24 3.941z" fill="#dba97f"/><path d="m46.36 46.796c.188-10.748-.369-12.168 5.309-6.064 0 0-2.547 8.682-5.309 6.064z" fill="#dba97f"/><path d="m49.116 38.015c-12.9-8.201-9.973-12.609-9.973-12.609-15.258 8.582-24.215 12.633-24.215 12.633s-.006.729 1.102 6.678c1.082 5.808 10.08 9.283 15.971 9.283 5.893 0 14.891-3.475 15.971-9.283 1.107-5.954 1.144-6.702 1.144-6.702z" fill="#fcd5b2"/><path d="m12.403 42.867c4.875-9.006 24.545-8.543 27.6-19.242-11.948 10.089-26.051 9.31-27.6 19.242z" fill="#1e1513"/><path d="m51.667 40.732c-7.684-6.371-19.164-10.686-11.664-17.107-2.303 8.132 6.746 8.988 11.664 17.107z" fill="#1e1513"/><path d="m44.878 42.939c-1.605 4.207-8.146 3.588-9.342.646.906-4.732 8.459-5.136 9.342-.646z" fill="#fff"/><path d="m37.204 42.49c0 3.693 5.34 3.693 5.34 0 0-3.43-5.34-3.43-5.34 0z" fill="#613f34"/><path d="m37.731 43.673c0 2.115 4.283 2.115 4.283 0 0-1.966-4.283-1.966-4.283 0z" fill="#7d5037"/><path d="m38.764 42.55c0 1.531 2.217 1.531 2.217 0 0-1.424-2.217-1.424-2.217 0z" fill="#1a1626"/><path d="m38.006 42.101c0 .775 1.119.775 1.119 0 .001-.721-1.119-.721-1.119 0z" fill="#ab968c"/><path d="m44.878 42.908c0-4.521-9.342-4.521-9.342.715 1.334-4.295 8.006-4.295 9.342-.715z" fill="#dba97f"/><path d="m19.122 42.939c1.605 4.207 8.146 3.588 9.344.646-.911-4.734-8.458-5.138-9.344-.646z" fill="#fff"/><path d="m21.458 42.49c0 3.691 5.34 3.691 5.34 0-.001-3.43-5.34-3.43-5.34 0z" fill="#613f34"/><path d="m21.985 43.671c0 2.117 4.285 2.117 4.285 0 0-1.964-4.285-1.964-4.285 0z" fill="#7d5037"/><path d="m23.02 42.548c0 1.533 2.217 1.533 2.217 0 0-1.423-2.217-1.423-2.217 0z" fill="#1a1626"/><path d="m22.262 42.099c0 .775 1.119.775 1.119 0 0-.721-1.119-.721-1.119 0z" fill="#ab968c"/><path d="m19.122 42.908c0-4.521 9.344-4.521 9.344.713-1.333-4.295-8.01-4.295-9.344-.713z" fill="#dba97f"/><path d="m45.741 38.326c-2.791-1.387-8.133-1.453-10.121-.488-.428.188-.144 1.502.213 1.375 2.773-1.027 7.246-1.053 9.842.088.343.146.488-.784.066-.975z" fill="#cc9d76"/><path d="m18.258 38.326c2.791-1.387 8.131-1.453 10.121-.488.426.188.146 1.502-.213 1.375-2.775-1.027-7.244-1.053-9.84.088-.345.146-.487-.784-.068-.975z" fill="#cc9d76"/><path d="m35.784 49.603c0 2.461-7.568 2.461-7.568 0-.001-.566 7.568-.566 7.568 0z" fill="#dba97f"/><g fill="#0fb4d4"><path d="m39.503 2.078c3.996 1.072-2.166 9.336-2.48 9.252-.319-.084-1.524-10.325 2.48-9.252z"/><path d="m53.637 10.183c2.373 3.389-7.66 5.76-7.848 5.492-.187-.269 5.471-8.888 7.848-5.492z"/><path d="m24.503 2.078c3.996-1.07 2.791 9.168 2.477 9.252-.317.086-6.481-8.18-2.477-9.252z"/><path d="m10.364 10.179c2.373-3.389 8.033 5.231 7.846 5.496-.188.27-10.223-2.101-7.846-5.496z"/></g></svg>