<svg enable-background="new 0 0 64 64" height="64" viewBox="0 0 64 64" width="64" xmlns="http://www.w3.org/2000/svg"><path d="m12.257 49.336c2.4-1.572 12.361-5.726 12.361-5.726h14.842s9.951 4.144 12.339 5.723c3.47 2.288 4.201 12.667 4.201 12.667h-48s.775-10.387 4.257-12.664z" fill="#7ab51d"/><path d="m24.224 45.445c0 6.381 15.553 6.381 15.553 0 0-3.891 0-10.324 0-10.324h-15.553z" fill="#dba97f"/><path d="m15 62h1c-.5-6.666-.5-6.666-1 0z" fill="#529320"/><path d="m48 62h1c-.5-6.666-.5-6.666-1 0z" fill="#529320"/><path d="m16.611 22.873c-5.147-.928-1.127 13.463 2.902 9.494 1.866-1.842-.495-9.058-2.902-9.494z" fill="#dba97f"/><path d="m47.391 22.873c-2.406.436-4.77 7.652-2.9 9.494 4.028 3.969 8.043-10.422 2.9-9.494z" fill="#dba97f"/><path d="m32.001 6c-10.642 0-15.769 8.051-15.126 19.246.128 2.254 1.524 9.6 2.843 12.234 1.348 2.695 5.86 6.852 8.625 7.713 1.746.543 5.568.543 7.314 0 2.765-.861 7.277-5.017 8.627-7.713 1.318-2.635 2.714-9.98 2.843-12.234.644-11.195-4.484-19.246-15.126-19.246z" fill="#fcd5b2"/><path d="m32.001 6c-7.321 0-11.744 2.418-13.651 1.49 0 0-.207 1.248.54 2.061 0 0-.789.684-2.063-.469-1.213 3.939 2.388 6.221 15.174 6.221s9.731-3.113 16.017 2.355c-.617-6.74-4.899-11.658-16.017-11.658z" fill="#3a2c29"/><path d="m37.415 11.875c-7.04 2.6-9.613-2.088-16.255-2.541 3.159 1.492 4.701 3.787 7.295 5.443-5.645-1.889-9.789-5.141-10.103-7.275 0 0-.942 3.117 2.784 5.447-3.563.33-4.307-3.855-4.307-3.855-1.804 2.898-1.554 12.246.45 19.182.334-2.475-.427-3.498.717-6.48 3.425-8.914 1.221-5.172 14.007-5.172 12.784 0 10.477-3.414 14.004 5.172 1.053 2.559.384 4.006.719 6.48 4.203-15.639-1.842-19.157-9.311-16.401z" fill="#1e1513"/><path d="m35.301 32.518c0 2.148-6.6 2.148-6.6 0 0-.493 6.6-.493 6.6 0z" fill="#dba97f"/><path d="m43.395 26.113c-1.104 2.888-7.525 2.397-8.268.572.806-4.185 7.486-4.542 8.268-.572z" fill="#fff"/><path d="m20.607 26.113c1.105 2.894 7.529 2.389 8.268.572-.806-4.187-7.485-4.544-8.268-.572z" fill="#fff"/><path d="m36.604 25.717c0 3.266 4.726 3.266 4.726 0-.001-3.033-4.726-3.033-4.726 0z" fill="#613f34"/><path d="m37.071 26.764c0 1.871 3.79 1.871 3.79 0 0-1.739-3.79-1.739-3.79 0z" fill="#7d5037"/><path d="m37.985 25.768c0 1.355 1.962 1.355 1.962 0 0-1.256-1.962-1.256-1.962 0z" fill="#1a1626"/><path d="m37.315 25.371c0 .686.991.686.991 0 .001-.633-.991-.633-.991 0z" fill="#ab968c"/><path d="m22.675 25.717c0 3.266 4.726 3.266 4.726 0-.001-3.033-4.726-3.033-4.726 0z" fill="#613f34"/><path d="m23.143 26.762c0 1.873 3.79 1.873 3.79 0 0-1.739-3.79-1.739-3.79 0z" fill="#7d5037"/><path d="m24.057 25.768c0 1.355 1.962 1.355 1.962 0 0-1.258-1.962-1.258-1.962 0z" fill="#1a1626"/><path d="m23.387 25.371c0 .684.99.684.99 0 0-.635-.99-.635-.99 0z" fill="#ab968c"/><path d="m43.395 26.084c0-3.998-8.268-3.998-8.268.635 1.182-3.799 7.086-3.799 8.268-.635z" fill="#dba97f"/><path d="m20.607 26.084c0-3.998 8.268-3.998 8.268.633-1.18-3.801-7.086-3.801-8.268-.633z" fill="#dba97f"/><g fill="#cc9d76"><path d="m27.386 39.038c2.812-1.747 6.422-1.747 9.231 0 .399.246.448-.019.324-.231-2.08-3.561-7.8-3.561-9.881 0-.122.213-.075.477.326.231z"/><path d="m43.756 22.257c-2.437-2.386-7.093.245-8.826-.239-.372-.009-.126 1.267.185 1.275 2.42.177 6.318-2.375 8.582-.206.3.252.427-.492.059-.83z"/><path d="m20.247 22.257c2.435-2.386 7.091.245 8.824-.239.372-.009.128 1.267-.185 1.275-2.418.177-6.316-2.375-8.582-.206-.3.252-.427-.492-.057-.83z"/></g><path d="m29.633 40.161c1.442-.837 3.296-.837 4.738 0 .204.118.229-.009.166-.11-1.067-1.706-4.004-1.706-5.072 0-.063.101-.038.228.168.11z" fill="#dba97f"/></svg>