<svg enable-background="new 0 0 64 64" height="64" viewBox="0 0 64 64" width="64" xmlns="http://www.w3.org/2000/svg"><path d="m50.208 32.65c-7.479-3.535-28.938-3.535-36.414 0-4.85 2.291-9.049 21.836.803 27.051h34.807c9.851-5.215 5.651-24.76.804-27.051z" fill="#529320"/><path d="m10.977 50.253c-.824.322 1.019-1.994 4.639-1.769 5.297-8.281 3.32-19.108-2.176-15.639-5.287 3.334-10.767 18.983-9.152 22.426 2.211 4.715 14.064 5.594 14.064 5.594s.457-3.727 4.363-6.17c-7.066-4.088-6.591-6.453-11.738-4.442z" fill="#7ab51d"/><path d="m31.141 58.459c1.512-1.031-4.477-3.973-7.889-3.973-5.041 0-10.096 7.592-1.531 6.564 3.752.406 5.701 1.848 5.852.123 0 0 .768-.131 1.598.303.858.453 1.973-.58 1.244-1.209 1.812.068 1.664-1.51.726-1.808z" fill="#b88a6f"/><path d="m23.733 59.203s5.438 1.051 3.57 2.629c.848-1.28-3.57-2.629-3.57-2.629z" fill="#946346"/><path d="m24.858 57.906s7.412 1.785 5.547 3.365c.846-1.279-5.547-3.365-5.547-3.365z" fill="#946346"/><path d="m25.878 56.367s7.455 1.352 5.793 3.459c.726-1.729-5.793-3.459-5.793-3.459z" fill="#946346"/><path d="m53.024 50.253c.822.322-1.021-1.994-4.641-1.769-5.295-8.281-3.318-19.108 2.178-15.639 5.287 3.334 10.768 18.982 9.15 22.426-2.211 4.715-14.063 5.594-14.063 5.594s-.457-3.727-4.363-6.17c7.067-4.088 6.593-6.453 11.739-4.442z" fill="#7ab51d"/><path d="m32.858 58.459c-1.51-1.031 4.479-3.973 7.889-3.973 5.043 0 10.098 7.592 1.531 6.564-3.75.406-5.699 1.848-5.852.123 0 0-.768-.131-1.598.303-.855.453-1.973-.58-1.244-1.209-1.812.068-1.661-1.51-.726-1.808z" fill="#b88a6f"/><path d="m40.268 59.203s-5.439 1.051-3.572 2.629c-.846-1.28 3.572-2.629 3.572-2.629z" fill="#946346"/><path d="m39.143 57.906s-7.414 1.785-5.547 3.365c-.845-1.279 5.547-3.365 5.547-3.365z" fill="#946346"/><path d="m38.122 56.367s-7.453 1.352-5.793 3.459c-.727-1.729 5.793-3.459 5.793-3.459z" fill="#946346"/><path d="m31.999 13.998c-21.654 0-19.568 17.359-19.568 25.473h39.137c-.001-8.114 2.087-25.473-19.569-25.473z" fill="#875b49"/><path d="m14.366 35.041c-6.873-.889-2.396 12.912 2.986 9.107 2.494-1.766.229-8.691-2.986-9.107z" fill="#946346"/><path d="m49.635 35.041c-3.219.416-5.482 7.342-2.988 9.107 5.383 3.803 9.86-9.996 2.988-9.107z" fill="#946346"/><path d="m49.411 35.869c0-11.576-34.822-11.576-34.822 0 0 0 .039 2.9 1.166 8.697.543 2.793 6.783 9.434 16.244 9.434 9.465 0 15.703-6.641 16.246-9.434 1.127-5.799 1.166-8.697 1.166-8.697z" fill="#b88a6f"/><path d="m31.641 25.523c-3.164 5.637-15.01 9.162-19.08 8.797 3.688-3.729 5.324-13.328 19.08-8.797z" fill="#875b49"/><path d="m12.561 34.32c5.184-1.355 11.918-4.117 19.08-8.797-3.164 5.637-13.566 10.088-19.08 8.797z" fill="#6b4435"/><path d="m47.624 25.218c-4.477 6.715-21.234 10.914-26.994 10.479 5.214-4.444 7.531-15.875 26.994-10.479z" fill="#875b49"/><path d="m20.63 35.697c13.768-3.828 26.994-10.479 26.994-10.479-4.477 6.715-16.951 11.45-26.994 10.479z" fill="#6b4435"/><path d="m48.274 23.675c5.365 8.738-8.602 12.322-14.371 11.971 5.174-3.412 8.645-12.244 14.371-11.971z" fill="#875b49"/><path d="m33.903 35.646c6.939-3.186 17.516-3.836 14.371-11.971 5.365 8.739-8.252 12.758-14.371 11.971z" fill="#6b4435"/><path d="m44.876 42.939c-1.605 4.207-8.145 3.59-9.342.646.908-4.732 8.461-5.136 9.342-.646z" fill="#fff"/><path d="m37.2 42.49c0 3.693 5.342 3.693 5.342 0 0-3.428-5.342-3.428-5.342 0z" fill="#613f34"/><path d="m37.729 43.671c0 2.117 4.283 2.117 4.283 0 0-1.964-4.283-1.964-4.283 0z" fill="#7d5037"/><path d="m38.762 42.548c0 1.533 2.217 1.533 2.217 0 0-1.423-2.217-1.423-2.217 0z" fill="#1a1626"/><path d="m38.007 42.101c0 .775 1.119.775 1.119 0 0-.721-1.119-.721-1.119 0z" fill="#ab968c"/><path d="m44.876 42.908c0-4.521-9.342-4.521-9.342.715 1.334-4.295 8.008-4.295 9.342-.715z" fill="#946346"/><path d="m19.122 42.939c1.605 4.207 8.146 3.59 9.344.646-.911-4.734-8.458-5.138-9.344-.646z" fill="#fff"/><path d="m21.458 42.49c0 3.691 5.342 3.691 5.342 0 0-3.43-5.342-3.43-5.342 0z" fill="#613f34"/><path d="m21.985 43.671c0 2.117 4.285 2.117 4.285 0 0-1.964-4.285-1.964-4.285 0z" fill="#7d5037"/><path d="m23.02 42.548c0 1.531 2.217 1.531 2.217 0 0-1.423-2.217-1.423-2.217 0z" fill="#1a1626"/><path d="m22.262 42.099c0 .775 1.119.775 1.119 0 .001-.721-1.119-.721-1.119 0z" fill="#ab968c"/><path d="m19.122 42.908c0-4.521 9.344-4.521 9.344.713-1.334-4.295-8.01-4.295-9.344-.713z" fill="#946346"/><path d="m45.739 38.326c-2.791-1.387-8.131-1.453-10.121-.488-.426.188-.143 1.502.215 1.375 2.773-1.027 7.246-1.051 9.842.088.343.146.488-.782.064-.975z" fill="#80553c"/><path d="m18.258 38.326c2.791-1.387 8.131-1.453 10.121-.488.426.188.145 1.502-.213 1.375-2.777-1.027-7.244-1.051-9.84.088-.345.146-.489-.782-.068-.975z" fill="#80553c"/><path d="m35.784 49.603c0 2.461-7.568 2.461-7.568 0 0-.566 7.568-.566 7.568 0z" fill="#946346"/><g fill="#0fb4d4"><path d="m39.503 2.078c3.996 1.072-2.166 9.336-2.48 9.252-.319-.084-1.524-10.325 2.48-9.252z"/><path d="m53.637 10.183c2.373 3.389-7.66 5.76-7.848 5.492-.187-.269 5.471-8.888 7.848-5.492z"/><path d="m24.503 2.078c3.996-1.07 2.791 9.168 2.476 9.252-.316.086-6.48-8.18-2.476-9.252z"/><path d="m10.364 10.179c2.373-3.389 8.033 5.23 7.846 5.496-.188.27-10.223-2.101-7.846-5.496z"/></g></svg>