<svg enable-background="new 0 0 64 64" height="64" viewBox="0 0 64 64" width="64" xmlns="http://www.w3.org/2000/svg"><path d="m50.206 32.65c-7.477-3.535-28.936-3.535-36.414 0-4.848 2.291-9.047 21.836.805 27.051h34.807c9.851-5.215 5.652-24.76.802-27.051z" fill="#529320"/><path d="m10.976 50.253c-.822.322 1.022-1.994 4.641-1.769 5.295-8.281 3.318-19.108-2.178-15.639-5.287 3.334-10.768 18.982-9.15 22.426 2.211 4.715 14.063 5.594 14.063 5.594s.457-3.727 4.363-6.17c-7.067-4.088-6.593-6.453-11.739-4.442z" fill="#7ab51d"/><path d="m31.142 58.459c1.51-1.031-4.479-3.973-7.891-3.973-5.041 0-10.096 7.592-1.529 6.564 3.75.406 5.699 1.848 5.852.123 0 0 .768-.131 1.598.303.855.453 1.973-.58 1.244-1.209 1.812.068 1.661-1.51.726-1.808z" fill="#e3c19b"/><path d="m23.732 59.203s5.44 1.051 3.572 2.629c.846-1.28-3.572-2.629-3.572-2.629z" fill="#d6a67a"/><path d="m24.857 57.906s7.414 1.785 5.547 3.365c.845-1.279-5.547-3.365-5.547-3.365z" fill="#d6a67a"/><path d="m25.878 56.367s7.453 1.352 5.793 3.459c.727-1.729-5.793-3.459-5.793-3.459z" fill="#d6a67a"/><path d="m53.023 50.253c.824.322-1.02-1.994-4.639-1.769-5.297-8.281-3.32-19.108 2.176-15.639 5.287 3.334 10.767 18.982 9.152 22.426-2.211 4.715-14.064 5.594-14.064 5.594s-.457-3.727-4.363-6.17c7.066-4.088 6.591-6.453 11.738-4.442z" fill="#7ab51d"/><path d="m32.859 58.459c-1.512-1.031 4.477-3.973 7.889-3.973 5.041 0 10.096 7.592 1.531 6.564-3.752.406-5.701 1.848-5.852.123 0 0-.768-.131-1.598.303-.857.453-1.973-.58-1.244-1.209-1.812.068-1.664-1.51-.726-1.808z" fill="#e3c19b"/><path d="m40.267 59.203s-5.438 1.051-3.57 2.629c-.848-1.28 3.57-2.629 3.57-2.629z" fill="#d6a67a"/><path d="m39.142 57.906s-7.412 1.785-5.547 3.365c-.846-1.279 5.547-3.365 5.547-3.365z" fill="#d6a67a"/><path d="m38.122 56.367s-7.455 1.352-5.793 3.459c-.726-1.729 5.793-3.459 5.793-3.459z" fill="#d6a67a"/><path d="m31.999 13.998c-21.654 0-19.568 17.359-19.568 25.473h39.137c0-8.114 2.086-25.473-19.569-25.473z" fill="#efde8b"/><path d="m14.365 35.041c-6.873-.889-2.395 12.912 2.988 9.107 2.494-1.766.228-8.691-2.988-9.107z" fill="#d6a67a"/><path d="m49.634 35.041c-3.217.416-5.48 7.342-2.986 9.107 5.383 3.803 9.859-9.996 2.986-9.107z" fill="#d6a67a"/><path d="m49.411 35.869c0-11.576-34.822-11.576-34.822 0 0 0 .037 2.9 1.164 8.697.543 2.793 6.785 9.434 16.246 9.434 9.465 0 15.703-6.641 16.246-9.434 1.127-5.799 1.166-8.697 1.166-8.697z" fill="#e3c19b"/><path d="m31.642 25.523c-3.164 5.637-15.01 9.162-19.08 8.797 3.685-3.729 5.322-13.328 19.08-8.797z" fill="#efde8b"/><path d="m12.562 34.32c5.184-1.355 11.916-4.117 19.08-8.797-3.164 5.637-13.566 10.088-19.08 8.797z" fill="#ba9d52"/><path d="m47.624 25.218c-4.477 6.715-21.236 10.914-26.994 10.479 5.215-4.444 7.531-15.875 26.994-10.479z" fill="#efde8b"/><path d="m20.63 35.697c13.768-3.828 26.994-10.479 26.994-10.479-4.476 6.715-16.951 11.45-26.994 10.479z" fill="#ba9d52"/><path d="m48.275 23.675c5.365 8.738-8.601 12.322-14.373 11.971 5.175-3.412 8.646-12.244 14.373-11.971z" fill="#efde8b"/><path d="m33.902 35.646c6.941-3.186 17.518-3.836 14.373-11.971 5.365 8.739-8.254 12.758-14.373 11.971z" fill="#ba9d52"/><path d="m44.876 42.939c-1.607 4.207-8.145 3.59-9.344.646.911-4.732 8.462-5.136 9.344-.646z" fill="#fff"/><path d="m37.201 42.49c0 3.693 5.342 3.693 5.342 0-.001-3.428-5.342-3.428-5.342 0z" fill="#613f34"/><path d="m37.73 43.671c0 2.117 4.283 2.117 4.283 0 0-1.964-4.283-1.964-4.283 0z" fill="#7d5037"/><path d="m38.763 42.548c0 1.533 2.217 1.533 2.217 0 0-1.423-2.217-1.423-2.217 0z" fill="#1a1626"/><path d="m38.005 42.101c0 .775 1.119.775 1.119 0 0-.721-1.119-.721-1.119 0z" fill="#ab968c"/><path d="m44.876 42.908c0-4.521-9.344-4.521-9.344.715 1.337-4.295 8.008-4.295 9.344-.715z" fill="#d6a67a"/><path d="m19.12 42.939c1.607 4.207 8.148 3.59 9.344.646-.908-4.734-8.457-5.138-9.344-.646z" fill="#fff"/><path d="m21.458 42.49c0 3.691 5.34 3.691 5.34 0 0-3.43-5.34-3.43-5.34 0z" fill="#613f34"/><path d="m21.986 43.671c0 2.117 4.285 2.117 4.285 0 0-1.964-4.285-1.964-4.285 0z" fill="#7d5037"/><path d="m23.021 42.548c0 1.531 2.215 1.531 2.215 0 0-1.423-2.215-1.423-2.215 0z" fill="#1a1626"/><path d="m22.261 42.099c0 .775 1.121.775 1.121 0 0-.721-1.121-.721-1.121 0z" fill="#ab968c"/><path d="m19.12 42.908c0-4.521 9.344-4.521 9.344.713-1.332-4.295-8.01-4.295-9.344-.713z" fill="#d6a67a"/><path d="m45.74 38.326c-2.791-1.387-8.131-1.453-10.121-.488-.426.188-.145 1.502.215 1.375 2.773-1.027 7.244-1.051 9.84.088.345.146.487-.782.066-.975z" fill="#bf8c6b"/><path d="m18.259 38.326c2.791-1.387 8.129-1.453 10.121-.488.426.188.144 1.502-.213 1.375-2.777-1.027-7.246-1.051-9.842.088-.345.146-.488-.782-.066-.975z" fill="#bf8c6b"/><path d="m35.783 49.603c0 2.461-7.568 2.461-7.568 0-.001-.566 7.568-.566 7.568 0z" fill="#d6a67a"/><g fill="#0fb4d4"><path d="m39.501 2.078c3.996 1.072-2.166 9.336-2.48 9.252-.319-.084-1.524-10.325 2.48-9.252z"/><path d="m53.636 10.183c2.373 3.389-7.66 5.76-7.848 5.492-.187-.269 5.471-8.888 7.848-5.492z"/><path d="m24.501 2.078c3.996-1.07 2.791 9.168 2.476 9.252-.316.086-6.48-8.18-2.476-9.252z"/><path d="m10.363 10.179c2.373-3.389 8.033 5.23 7.846 5.496-.188.27-10.223-2.101-7.846-5.496z"/></g></svg>