<svg enable-background="new 0 0 64 64" height="64" viewBox="0 0 64 64" width="64" xmlns="http://www.w3.org/2000/svg" xmlns:xlink="http://www.w3.org/1999/xlink"><linearGradient id="a"><stop offset=".4364" stop-color="#fc6"/><stop offset=".6859" stop-color="#fecb64"/><stop offset=".7967" stop-color="#fac65d"/><stop offset=".88" stop-color="#f4bd50"/><stop offset=".903" stop-color="#f2ba4b"/></linearGradient><radialGradient id="b" cx="41.6426" cy="11.813" gradientTransform="matrix(1 0 0 1.5779 0 .7847)" gradientUnits="userSpaceOnUse" r="18.3066" xlink:href="#a"/><radialGradient id="c" cx="689.457" cy="11.813" gradientTransform="matrix(-1 0 0 1.5779 711.8145 .7847)" gradientUnits="userSpaceOnUse" r="18.3066" xlink:href="#a"/><path d="m38.719 19.963c-1.053-3.837-2.209-8.425-2.209-14.843 0-3.121-4.51-3.233-4.51 0v14.843z" fill="#f2ba4b"/><path d="m38.061 20.148c-1.131-4.115-2.232-8.666-2.232-15.022 0-2.33-3.146-2.335-3.146-.005h-1.363c0-4.164 5.873-4.158 5.873.005 0 6.187 1.08 10.636 2.184 14.662z" fill="#d9a640"/><path d="m62 61.999v-13.182s-6.85-4.408-11.021-7.492c-2.406-1.777-14.914 8.074-13.551 11.414.604 1.477 5.568 9.26 5.568 9.26z" fill="#018bc9"/><path d="m49.922 42.966s-6.986-5.961-7.34-8.4c-.482-3.333-.623-6.16-2.146-10.089-1.477-3.815-2.684-7.938-3.113-14.481-.3-4.584-5.323-4.067-5.323-.508v37.152s.75 1.563 4.668 2.408c1.02.219 2.199 2.954 2.199 2.954 3.75.327 10.904-6.069 11.055-9.036z" fill="url(#b)"/><path d="m39.33 51.38c-.451-.953-1.42-2.715-2.5-2.947-3.443-.742-4.197-2.041-4.207-2.054l-1.221.608c.094.19 1.016 1.889 5.139 2.778.35.079 1.186 1.322 1.719 2.559 0 0 2.383-1.012 1.07-.944z" fill="#d9a640"/><path d="m50.367 42.48c-2.627-2.241-6.879-6.388-7.109-7.979-.438-3.042-.605-6.156-2.188-10.238-1.33-3.438-2.625-7.549-3.066-14.28-.346-5.267-6.686-5.234-6.686-.462h1.363c0-2.92 3.732-2.924 3.961.551.455 6.915 1.787 11.144 3.158 14.683 1.479 3.815 1.695 7.101 2.107 9.941.348 2.406 5.832 7.311 7.287 8.576.87.524 1.173-.792 1.173-.792z" fill="#d9a640"/><path d="m49.531 41.483c-.34 4.688-7.797 10.444-11.875 9.91-.332 7.594 21.617-3.607 11.875-9.91z" fill="#018bc9"/><path d="m31.318 5.121h1.363v42.245h-1.363z" fill="#d9a640"/><path d="m25.283 19.963c1.053-3.837 2.208-8.425 2.208-14.843 0-3.12 4.509-3.233 4.509.001v14.843h-6.717z" fill="#f2ba4b"/><path d="m25.94 20.148c1.129-4.115 2.232-8.666 2.232-15.022 0-2.33 3.146-2.335 3.146-.005h1.363c0-4.164-5.874-4.158-5.874.005 0 6.187-1.078 10.636-2.184 14.662z" fill="#d9a640"/><path d="m2 61.999v-13.182s6.85-4.408 11.021-7.492c2.408-1.777 14.917 8.074 13.551 11.414-.602 1.477-5.568 9.26-5.568 9.26z" fill="#018bc9"/><path d="m14.078 42.966s6.988-5.961 7.34-8.4c.483-3.333.625-6.16 2.147-10.089 1.479-3.815 2.683-7.938 3.112-14.481.302-4.584 5.323-4.067 5.323-.508v37.152s-.752 1.563-4.668 2.408c-1.019.219-2.2 2.954-2.2 2.954-3.75.327-10.902-6.069-11.054-9.036z" fill="url(#c)"/><path d="m24.672 51.38c.451-.953 1.418-2.715 2.498-2.947 3.445-.742 4.199-2.041 4.207-2.054l1.219.608c-.09.19-1.014 1.889-5.138 2.778-.348.079-1.182 1.322-1.716 2.559-.001 0-2.384-1.012-1.07-.944z" fill="#d9a640"/><path d="m13.635 42.48c2.626-2.241 6.878-6.388 7.107-7.979.439-3.042.605-6.156 2.186-10.238 1.332-3.438 2.626-7.549 3.068-14.28.345-5.267 6.685-5.234 6.685-.462h-1.363c0-2.92-3.732-2.924-3.961.551-.453 6.915-1.785 11.144-3.157 14.683-1.477 3.815-1.694 7.101-2.107 9.941-.348 2.406-5.831 7.311-7.287 8.576-.869.524-1.171-.792-1.171-.792z" fill="#d9a640"/><path d="m14.47 41.483c.341 4.688 7.798 10.444 11.875 9.91.332 7.594-21.618-3.607-11.875-9.91z" fill="#018bc9"/><path d="m31.318 5.121h1.363v42.245h-1.363z" fill="#d9a640"/></svg>