<svg enable-background="new 0 0 64 64" height="64" viewBox="0 0 64 64" width="64" xmlns="http://www.w3.org/2000/svg" xmlns:xlink="http://www.w3.org/1999/xlink"><linearGradient id="a" gradientTransform="matrix(1 0 0 -1 194 170)" gradientUnits="userSpaceOnUse" x1="-162" x2="-162" y1="147.001" y2="152.001"><stop offset="0" stop-color="#52a100"/><stop offset=".213" stop-color="#5ba904"/><stop offset=".5603" stop-color="#73bf10"/><stop offset=".9965" stop-color="#9be323"/><stop offset="1" stop-color="#9be323"/></linearGradient><linearGradient id="b"><stop offset="0" stop-color="#302c3b"/><stop offset="1" stop-color="#6e7b85"/></linearGradient><linearGradient id="c" gradientTransform="matrix(1 0 0 -1 194 170)" gradientUnits="userSpaceOnUse" x1="-166" x2="-166" xlink:href="#b" y1="134.0029" y2="141.002"/><linearGradient id="d" gradientTransform="matrix(1 0 0 -1 194 170)" gradientUnits="userSpaceOnUse" x1="-154" x2="-154" xlink:href="#b" y1="134.0029" y2="141.002"/><linearGradient id="e" gradientTransform="matrix(1 0 0 -1 194 170)" gradientUnits="userSpaceOnUse" x1="-142" x2="-142" xlink:href="#b" y1="134.0029" y2="141.002"/><linearGradient id="f" gradientTransform="matrix(1 0 0 -1 194 170)" gradientUnits="userSpaceOnUse" x1="-180.5" x2="-180.5" xlink:href="#b" y1="131.0029" y2="140.002"/><path d="m3.5 22.999h57v28.997h-57z" fill="#f9b700"/><path d="m3.5 24.998h57v23.998h-57z" fill="#ffe12c"/><path d="m58.5 17.999h-53c-1.1 0-2 .9-2 2v3h57v-3c0-1.1-.9-2-2-2z" fill="url(#a)"/><path d="m49.5 16h-15c-1.1 0-2 .899-2 1.999h19c0-1.1-.9-1.999-2-1.999z" fill="#7ab51d"/><path d="m31.5 28.998h-7c-.551 0-1 .45-1 1v4.999c0 .55.449 1 1 1h7c.549 0 1-.45 1-1v-4.999c0-.55-.451-1-1-1z" fill="url(#c)"/><path d="m43.5 28.998h-7c-.551 0-1 .45-1 1v4.999c0 .55.449 1 1 1h7c.549 0 1-.45 1-1v-4.999c0-.55-.451-1-1-1z" fill="url(#d)"/><path d="m55.5 28.998h-7c-.551 0-1 .45-1 1v4.999c0 .55.449 1 1 1h7c.549 0 1-.45 1-1v-4.999c0-.55-.451-1-1-1z" fill="url(#e)"/><path d="m22.5 30.998h35v.5h-35z" fill="#ffe12c"/><path d="m18.5 26.998h-10c-.551 0-1 .45-1 1v22.998h12v-22.998c0-.55-.451-1-1-1z" fill="#f9b700"/><path d="m17.5 27.998h-8c-.551 0-1 .45-1 1v21.998h10v-21.998c0-.55-.451-1-1-1z" fill="#ffe12c"/><path d="m10.5 30.998v6.999c0 .551.45 1 1 1h4c.55 0 1-.449 1-1v-6.999c0-.549-.45-1-1-1h-4c-.55 0-1 .451-1 1z" fill="url(#f)"/><path d="m17 54.995h30v4h-30z" fill="#1a1626"/><circle cx="23.998" cy="57" fill="#4e5e67" r="5"/><circle cx="24.002" cy="57" fill="#302c3b" r="4"/><circle cx="24.002" cy="57" fill="#4e5e67" r="2"/><circle cx="10" cy="57" fill="#4e5e67" r="5"/><circle cx="10" cy="57" fill="#302c3b" r="4"/><circle cx="9.998" cy="57" fill="#4e5e67" r="2"/><path d="m18.748 60.369h-3.493l-1.25-5.406h5.99z" fill="#6e8189"/><path d="m24.002 56.002h-14.004c-1.331 0-1.331 1.996 0 1.996h14.004c1.33 0 1.33-1.996 0-1.996z" fill="#4e5e67"/><circle cx="53.998" cy="57" fill="#4e5e67" r="5"/><circle cx="54.002" cy="57" fill="#302c3b" r="4"/><circle cx="54.002" cy="57" fill="#4e5e67" r="2"/><circle cx="40" cy="57" fill="#4e5e67" r="5"/><circle cx="40" cy="57" fill="#302c3b" r="4"/><circle cx="39.998" cy="57" fill="#4e5e67" r="2"/><path d="m48.748 60.369h-3.493l-1.25-5.406h5.99z" fill="#6e8189"/><path d="m54.002 56.002h-14.004c-1.331 0-1.331 1.996 0 1.996h14.004c1.33 0 1.33-1.996 0-1.996z" fill="#4e5e67"/><path d="m2 50.996h60v2.999h-60z" fill="#529320"/><path d="m3 53.995h58v2h-58z" fill="#302c3b"/><g fill="#99a8ae"><path d="m59 48.996h3v5.004h-3z"/><path d="m2 48.996h3v5.004h-3z"/></g></svg>