<svg enable-background="new 0 0 64 64" height="64" viewBox="0 0 64 64" width="64" xmlns="http://www.w3.org/2000/svg" xmlns:xlink="http://www.w3.org/1999/xlink"><linearGradient id="a"><stop offset="0" stop-color="#2289c7"/><stop offset=".2515" stop-color="#2086c3"/><stop offset=".5007" stop-color="#1a7cb7"/><stop offset=".7491" stop-color="#0f6da3"/><stop offset=".9957" stop-color="#005688"/><stop offset="1" stop-color="#005687"/></linearGradient><linearGradient id="b" gradientUnits="userSpaceOnUse" x1="15.4141" x2="48.5859" xlink:href="#a" y1="49.6738" y2="49.6738"/><radialGradient id="c" cx="32" cy="27.5" gradientTransform="matrix(1 0 0 2.1857 0 -32.6065)" gradientUnits="userSpaceOnUse" r="16.2464"><stop offset=".3818" stop-color="#e6ebef"/><stop offset=".6381" stop-color="#e1e7eb"/><stop offset=".9401" stop-color="#d3dbe0"/><stop offset="1" stop-color="#cfd8dd"/></radialGradient><linearGradient id="d" gradientUnits="userSpaceOnUse" x1="32.0005" x2="32.0005" y1="30.1611" y2="6.7241"><stop offset="0" stop-color="#302c3b"/><stop offset=".2926" stop-color="#454754"/><stop offset=".7557" stop-color="#636d78"/><stop offset="1" stop-color="#6e7b85"/></linearGradient><linearGradient id="e" gradientUnits="userSpaceOnUse" x1="46.6172" x2="52" xlink:href="#a" y1="28.9409" y2="28.9409"/><linearGradient id="f" gradientTransform="matrix(-1 0 0 1 -849.1191 0)" gradientUnits="userSpaceOnUse" x1="-861.1187" x2="-866.5015" y1="28.9404" y2="28.9404"><stop offset="0" stop-color="#005687"/><stop offset=".0043" stop-color="#005688"/><stop offset=".2509" stop-color="#0f6da3"/><stop offset=".4993" stop-color="#1a7cb7"/><stop offset=".7485" stop-color="#2086c3"/><stop offset="1" stop-color="#2289c7"/></linearGradient><linearGradient id="g"><stop offset="0" stop-color="#ffe600"/><stop offset=".1978" stop-color="#fde100"/><stop offset=".4376" stop-color="#f7d200"/><stop offset=".6992" stop-color="#edba00"/><stop offset=".9746" stop-color="#df9800"/><stop offset="1" stop-color="#de9400"/></linearGradient><radialGradient id="h" cx="43.4814" cy="42.2227" gradientTransform="matrix(.7071 .7071 -.9884 .9884 55.7206 -30.8386)" gradientUnits="userSpaceOnUse" r="1.3369" xlink:href="#g"/><radialGradient id="i" cx="-862.8169" cy="42.2227" gradientTransform="matrix(-.7071 .7071 .9884 .9884 -632.5707 610.0111)" gradientUnits="userSpaceOnUse" r="1.3369" xlink:href="#g"/><path d="m15 51h34v4h-34z" fill="#302c3b"/><path d="m10 58h44v4h-44z" fill="#302c3b"/><path d="m11.001 62 20.999-43.558-30 43.558z" fill="#b3c2c6"/><path d="m12.001 62 19.999-43.558-24 43.558z" fill="#4e5e67"/><path d="m32 18.442 21.002 43.558h8.998z" fill="#b3c2c6"/><path d="m32 18.442 20.002 43.558h3.998z" fill="#4e5e67"/><path d="m15.414 43.348c0 4.217 5.758 12.652 16.586 12.652 10.827 0 16.586-8.435 16.586-12.652z" fill="url(#b)"/><path d="m32 2c-15 0-20 10.25-20 15v18c0 6 6.943 18 20 18s20-12 20-18v-18c0-4.75-5-15-20-15" fill="#cfd8dd"/><path d="m32 2c-15 0-20 10.25-20 15v18c0 6 6.943 18 20 18s20-12 20-18v-18c0-4.75-5-15-20-15" fill="url(#c)"/><path d="m19.551 10.34c4.76-4.821 20.139-4.821 24.898 0 2.693 2.727.931 14.385.224 16.407-.78 2.234-3.699 3.414-8.263 3.414h-8.82c-4.563 0-7.48-1.18-8.262-3.414-.707-2.022-2.471-13.681.223-16.407z" fill="url(#d)"/><path d="m52 20c-1.507 9.69-5.383 16.543-5.383 17.722 0 .719 3.751-1 5.383-4.722z" fill="url(#e)"/><path d="m12 20c1.507 9.69 5.383 16.543 5.383 17.722 0 .719-3.751-1-5.383-4.722z" fill="url(#f)"/><path d="m43.48 44.07c.512.503 1.615.231 2.465-.605.853-.839 1.128-1.927.617-2.43-.511-.504-1.639-.378-2.465.605-.767.915-1.126 1.926-.617 2.43" fill="#b3c2c6"/><path d="m46.182 40.94c-.381-.387-1.205-.178-1.839.467-.636.644-.843 1.481-.46 1.867.328.331 1.271.106 1.84-.466.636-.642.84-1.481.459-1.868" fill="url(#h)"/><path d="m20.52 44.07c-.512.503-1.615.231-2.465-.605-.853-.839-1.128-1.927-.617-2.43.511-.504 1.639-.378 2.465.605.767.915 1.126 1.926.617 2.43" fill="#b3c2c6"/><path d="m17.818 40.94c.381-.387 1.205-.178 1.839.467.636.644.843 1.481.46 1.867-.328.331-1.271.106-1.84-.466-.636-.642-.839-1.481-.459-1.868" fill="url(#i)"/></svg>