<svg enable-background="new 0 0 64 64" height="64" viewBox="0 0 64 64" width="64" xmlns="http://www.w3.org/2000/svg" xmlns:xlink="http://www.w3.org/1999/xlink"><linearGradient id="a"><stop offset="0" stop-color="#5b666e"/><stop offset=".0095" stop-color="#59636c"/><stop offset=".097" stop-color="#494d58"/><stop offset=".192" stop-color="#3d3c4b"/><stop offset=".2988" stop-color="#363343"/><stop offset=".4424" stop-color="#343040"/></linearGradient><linearGradient id="b" gradientUnits="userSpaceOnUse" x1="15.1919" x2="15.1919" xlink:href="#a" y1="62" y2="51.0459"/><linearGradient id="c" gradientUnits="userSpaceOnUse" x1="48.8086" x2="48.8086" xlink:href="#a" y1="62" y2="51.0459"/><linearGradient id="d" gradientUnits="userSpaceOnUse" x1="32.0005" x2="32.0005" y1="56" y2="32.0005"><stop offset="0" stop-color="#f9c802"/><stop offset="1" stop-color="#ffe600"/></linearGradient><linearGradient id="e" gradientUnits="userSpaceOnUse" x1="32.0005" x2="32.0005" y1="34" y2="11.0005"><stop offset="0" stop-color="#302c3b"/><stop offset=".2358" stop-color="#41424f"/><stop offset=".7404" stop-color="#616b76"/><stop offset="1" stop-color="#6e7b85"/></linearGradient><path d="m9.889 51.046v7.824c0 1.722 1.363 3.13 3.03 3.13h4.546c1.667 0 3.03-1.408 3.03-3.13v-7.824z" fill="url(#b)"/><path d="m54.111 51.046v7.824c0 1.722-1.363 3.13-3.032 3.13h-4.544c-1.666 0-3.03-1.408-3.03-3.13v-7.824z" fill="url(#c)"/><path d="m42.537 2.948c-.18-.521-.793-.948-1.361-.948h-18.347c-.572 0-1.182.427-1.365.948l-.707 2.052h22.487z" fill="#cfd8dd"/><path d="m52 4h-40c-2.11 0-3 .751-3 3v9.5h46v-9.5c0-2.144-.783-3-3-3" fill="#e6ebef"/><path d="m54.209 11.625 7.5 7-1 2-7.5-7z" fill="#f9c802"/><path d="m9.792 11.625-7.5 7 1 2 7.5-7z" fill="#f9c802"/><path d="m62 28c0 1.104-5 1.104-5 0v-10c0-1.104 5-1.104 5 0z" fill="#f9b700"/><path d="m9 32v23c0 .55.445 1 .988 1h44.023c.543 0 .984-.45.984-1l.005-23z" fill="url(#d)"/><path d="m9 9v25c0 1.1.9 2 2 2h42c1.1 0 2-.9 2-2v-25z" fill="#1a1626"/><path d="m11 11v22c0 .55.449 1 1 1h40c.549 0 1-.45 1-1v-22z" fill="url(#e)"/><path d="m7 28c0 1.104-5 1.104-5 0v-10c0-1.104 5-1.104 5 0z" fill="#f9b700"/><path d="m13 30h15v1h-15z" fill="#4e5e67"/><path d="m36 30h15v1h-15z" fill="#4e5e67"/><path d="m27 34h1l-3-4h-1z" fill="#4e5e67"/><path d="m50 34h1l-3-4h-1z" fill="#4e5e67"/><path d="m20 46.5h-10v-5h5c4.014 0 5 5 5 5z" fill="#fff"/><path d="m9 41.5h1v5s-.646 0-1 0c-.5 0-.5-5 0-5z" fill="#e6ebef"/><path d="m10.656 44.001c0 2.333 3.5 2.333 3.5 0 0-2.334-3.5-2.334-3.5 0z" fill="#e6ebef"/><path d="m14.656 44.001c0 1.999 3 1.999 3 0 0-2-3-2-3 0z" fill="#e6ebef"/><path d="m44 46.501h10v-5s-1.281 0-5 0c-4.014 0-5 5-5 5z" fill="#fff"/><path d="m53.344 44.002c0 2.333-3.5 2.333-3.5 0 0-2.334 3.5-2.334 3.5 0z" fill="#e6ebef"/><path d="m49.344 44.002c0 1.999-3 1.999-3 0 0-2 3-2 3 0z" fill="#e6ebef"/><path d="m55 46.5c-.5 0-1 0-1 0v-5h1c.5 0 .5 5 0 5z" fill="#e6ebef"/><g fill="#f59e01"><path d="m22 42.999h20v.5h-20z"/><path d="m22 43.997h20v.501h-20z"/><path d="m22 44.996h20v.502h-20z"/><path d="m22 46.498v-.502h20v.502"/><path d="m42.536 53.948c-.18-.521-.793-.948-1.361-.948h-18.347c-.572 0-1.182.427-1.365.948l-.706 2.052h22.486z"/></g><path d="m43.582 17.318h-23.162c-3.227 0-3.227-5.318 0-5.318h23.162c3.225 0 3.225 5.318 0 5.318z" fill="#302c3b"/><path d="m27.382 15.411c-.004-.08.038-.123.114-.123h.455c.07 0 .109.043.124.119.032.288.207.401.479.401.309 0 .488-.146.488-.434v-2.352c0-.076.041-.119.117-.119h.451c.076 0 .119.043.119.119v2.352c0 .758-.57 1.104-1.178 1.104-.574.002-1.115-.311-1.169-1.067z" fill="#f9b700"/><path d="m30.174 14.659c0-1.024.811-1.82 1.822-1.82 1.01 0 1.82.796 1.82 1.82s-.812 1.821-1.82 1.821c-1.012 0-1.822-.794-1.822-1.821zm2.953 0c0-.675-.496-1.149-1.131-1.149-.637 0-1.133.477-1.133 1.149s.496 1.149 1.133 1.149c.635.003 1.131-.475 1.131-1.149z" fill="#f9b700"/><path d="m36.598 13.048-1.065 1.81v1.438c0 .076-.044.118-.121.118h-.449c-.075 0-.119-.042-.119-.118v-1.439l-1.063-1.807c-.049-.083-.012-.143.08-.143h.522c.066 0 .109.027.14.084l.668 1.201.666-1.201c.031-.057.074-.084.141-.084h.521c.088-.002.127.058.079.141z" fill="#f9b700"/></svg>