<svg enable-background="new 0 0 64 64" height="64" viewBox="0 0 64 64" width="64" xmlns="http://www.w3.org/2000/svg" xmlns:xlink="http://www.w3.org/1999/xlink"><linearGradient id="a" gradientTransform="matrix(.7071 .7071 -.7071 .7071 -34.7554 -90.2472)" gradientUnits="userSpaceOnUse" x1="133.6455" x2="133.6455" y1="81.666" y2="50.3037"><stop offset="0" stop-color="#ff7b00"/><stop offset=".2417" stop-color="#fb6b00"/><stop offset=".7114" stop-color="#f04200"/><stop offset="1" stop-color="#e82500"/></linearGradient><linearGradient id="b" gradientTransform="matrix(.7071 .7071 -.7071 .7071 -34.7554 -90.2472)" gradientUnits="userSpaceOnUse" x1="133.6445" x2="133.6445" y1="73.1006" y2="51.6719"><stop offset="0" stop-color="#fa0"/><stop offset=".1749" stop-color="#ffa400"/><stop offset=".4181" stop-color="#ff9200"/><stop offset=".7014" stop-color="#ff7400"/><stop offset="1" stop-color="#ff4d00"/></linearGradient><linearGradient id="c" gradientTransform="matrix(.7071 .7071 -.7071 .7071 -34.7554 -90.2472)" gradientUnits="userSpaceOnUse" x1="133.6465" x2="133.6465" y1="66.9746" y2="51.6719"><stop offset="0" stop-color="#ffb500"/><stop offset=".0869" stop-color="#ffba00"/><stop offset=".6742" stop-color="#ffda00"/><stop offset="1" stop-color="#ffe600"/></linearGradient><linearGradient id="d" gradientTransform="matrix(.7071 .7071 -.7071 .7071 -34.7554 -90.2472)" gradientUnits="userSpaceOnUse" x1="141.6396" x2="154.1035" y1="44.0967" y2="44.0967"><stop offset="0" stop-color="#005687"/><stop offset="1" stop-color="#2289c7"/></linearGradient><linearGradient id="e"><stop offset="0" stop-color="#2289c7"/><stop offset="1" stop-color="#005687"/></linearGradient><linearGradient id="f" gradientTransform="matrix(.7071 .7071 -.7071 .7071 -34.7554 -90.2472)" gradientUnits="userSpaceOnUse" x1="113.1875" x2="125.6523" xlink:href="#e" y1="44.0967" y2="44.0967"/><radialGradient id="g" cx="133.6445" cy="46.9258" gradientTransform="matrix(.7071 .7071 -.7071 .7071 -34.7554 -90.2472)" gradientUnits="userSpaceOnUse" r="8.7684"><stop offset="0" stop-color="#657078"/><stop offset=".2646" stop-color="#606b72"/><stop offset=".6132" stop-color="#525b62"/><stop offset="1" stop-color="#3c4247"/></radialGradient><linearGradient id="h" gradientTransform="matrix(.7071 .7071 -.7071 .7071 -34.7554 -90.2472)" gradientUnits="userSpaceOnUse" x1="121.7803" x2="145.5117" y1="23.5381" y2="23.5381"><stop offset=".297" stop-color="#cfdde6"/><stop offset=".4721" stop-color="#cad8e1"/><stop offset=".6788" stop-color="#bccbd3"/><stop offset=".9007" stop-color="#a6b4bb"/><stop offset="1" stop-color="#99a8ae"/></linearGradient><linearGradient id="i" gradientTransform="matrix(0 1 -1 0 -1.3579 -192.7368)" gradientUnits="userSpaceOnUse" x1="208.8115" x2="218.4619" y1="-44.4604" y2="-44.4604"><stop offset="0" stop-color="#4ecee6"/><stop offset=".1981" stop-color="#46c9e8"/><stop offset=".5045" stop-color="#30baec"/><stop offset=".8791" stop-color="#0da3f4"/><stop offset="1" stop-color="#009af7"/></linearGradient><linearGradient id="j" gradientTransform="matrix(.7071 .7071 -.7071 .7071 -34.7554 -90.2472)" gradientUnits="userSpaceOnUse" x1="132.5889" x2="134.7012" xlink:href="#e" y1="50.0361" y2="50.0361"/><linearGradient id="k" gradientTransform="matrix(.7071 .7071 -.7071 .7071 -34.7554 -90.2472)" gradientUnits="userSpaceOnUse" x1="125.7568" x2="141.5332" y1="3.9385" y2="3.9385"><stop offset="0" stop-color="#ff000e"/><stop offset=".7283" stop-color="#dd0004"/><stop offset="1" stop-color="#cf0000"/></linearGradient><path d="m18.942 34.59c-12.381 6.343-15.902 20.413-15.902 20.413s1.469-1.807 4.212-4.242c-3.654 6.318-5.252 11.239-5.252 11.239s4.912-1.586 11.232-5.242c-2.43 2.738-4.232 4.204-4.232 4.204s14.067-3.521 20.409-15.904z" fill="url(#a)"/><path d="m19.082 36.664c-8.778 4.015-10.63 14.185-10.63 14.185s.986-1.251 2.877-2.899c-2.355 4.458-3.272 7.995-3.272 7.995s3.53-.908 7.99-3.267c-1.646 1.887-2.896 2.87-2.896 2.87s10.169-1.85 14.185-10.63z" fill="url(#b)"/><path d="m19.854 37.437c-5.014 5.236-7.465 14.176-7.465 14.176s8.933-2.445 14.177-7.465z" fill="url(#c)"/><path d="m43.99 48.097c.568-7.62-.553-13.197-.553-13.197s-12.111 6.819-10.41 8.52c4.692 4.693 5.106 6.923.225 11.805-.234.234.209.549.457.456 5.377-2.026 10.137-5.643 10.281-7.584z" fill="url(#d)"/><path d="m15.904 20.01c-1.941.145-5.559 4.905-7.583 10.282-.094.248.222.691.456.457 4.881-4.881 7.111-4.468 11.805.226 1.7 1.701 8.52-10.41 8.52-10.41s-5.579-1.122-13.198-.555z" fill="url(#f)"/><path d="m24.812 25.159c-9.119 9.119-8.739 12.305-3.507 17.537 5.229 5.23 8.417 5.612 17.536-3.508z" fill="url(#g)"/><path d="m30.17 36.718c-3.588 3.59-6.174 6.821-5.776 7.219.401.4 3.632-2.184 7.222-5.774z" fill="#302c3b"/><path d="m34.501 38.161c-3.587 3.592-6.174 6.822-5.774 7.221.399.399 3.632-2.187 7.22-5.775z" fill="#302c3b"/><path d="m25.839 32.387c-3.591 3.589-6.176 6.821-5.777 7.218.4.4 3.631-2.186 7.222-5.773z" fill="#302c3b"/><path d="m24.394 28.054c-3.589 3.589-6.174 6.82-5.774 7.22.399.399 3.632-2.188 7.22-5.777z" fill="#302c3b"/><path d="m61.979 2.021s-15.381-1.4-35.656 18.876c-9.089 9.089-8.267 12.707-2.098 18.877 6.172 6.172 9.789 6.992 18.879-2.098 20.274-20.275 18.875-35.655 18.875-35.655z" fill="url(#h)"/><circle cx="43.103" cy="20.899" fill="#e81c27" r="6.754"/><circle cx="43.103" cy="20.899" fill="url(#i)" r="4.825"/><g fill="#fff"><path d="m47.539 17.146c-.456.456-1.139-.227-.684-.682s1.138.227.684.682z"/><path d="m39.352 25.333c-.456.456-1.139-.227-.684-.682s1.138.228.684.682z"/><path d="m46.855 25.334c-.456-.456.227-1.138.683-.682.454.454-.227 1.137-.683.682z"/><path d="m38.668 17.146c-.456-.456.227-1.138.683-.682.454.454-.229 1.137-.683.682z"/><path d="m48.893 21.38c-.643.001-.643-.964 0-.964.642 0 .642.964 0 .964z"/><path d="m37.313 21.381c-.645-.001-.645-.965-.001-.966.644.002.644.966.001.966z"/><path d="m42.62 26.688c.001-.644.966-.644.965 0 .001.644-.964.644-.965 0z"/><path d="m42.62 15.11c0-.645.965-.645.966 0-.001.642-.966.642-.966 0z"/></g><path d="m23.619 38.888c3.707-3.708 7.047-6.379 7.459-5.966.413.413-2.259 3.751-5.966 7.459-3.707 3.707-7.047 6.379-7.46 5.966-.412-.412 2.26-3.752 5.967-7.459z" fill="url(#j)"/><path d="m61.98 2.021s-5.765-.515-14.879 3.722c2.514 4.475 6.681 8.642 11.155 11.156 4.238-9.114 3.724-14.878 3.724-14.878z" fill="url(#k)"/></svg>