<svg enable-background="new 0 0 64 64" height="64" viewBox="0 0 64 64" width="64" xmlns="http://www.w3.org/2000/svg" xmlns:xlink="http://www.w3.org/1999/xlink"><radialGradient id="a" cx="32" cy="44.498" gradientTransform="matrix(1 0 0 10 0 -400.4824)" gradientUnits="userSpaceOnUse" r="28.3361"><stop offset=".6" stop-color="#ffe600"/><stop offset=".752" stop-color="#ffe300"/><stop offset=".8435" stop-color="#fedb00"/><stop offset=".9188" stop-color="#fccd01"/><stop offset=".9851" stop-color="#fab902"/><stop offset="1" stop-color="#f9b302"/></radialGradient><radialGradient id="b" cx="32" cy="29.498" gradientTransform="matrix(1 0 0 10 0 -265.4824)" gradientUnits="userSpaceOnUse" r="28.4185"><stop offset=".6" stop-color="#e6ebef"/><stop offset=".7399" stop-color="#e3e9ed"/><stop offset=".8241" stop-color="#dbe1e5"/><stop offset=".8935" stop-color="#cdd3d8"/><stop offset=".9544" stop-color="#b9c0c6"/><stop offset="1" stop-color="#a4adb3"/></radialGradient><linearGradient id="c"><stop offset="0" stop-color="#302c3b"/><stop offset=".2926" stop-color="#454754"/><stop offset=".7557" stop-color="#636d78"/><stop offset="1" stop-color="#6e7b85"/></linearGradient><linearGradient id="d" gradientTransform="matrix(1 0 0 -1 194 170)" gradientUnits="userSpaceOnUse" x1="-182" x2="-182" xlink:href="#c" y1="133.002" y2="145.002"/><linearGradient id="e" gradientTransform="matrix(1 0 0 -1 194 170)" gradientUnits="userSpaceOnUse" x1="-177" x2="-177" xlink:href="#c" y1="133.002" y2="145.002"/><linearGradient id="f" gradientTransform="matrix(1 0 0 -1 194 170)" gradientUnits="userSpaceOnUse" x1="-142.75" x2="-142.75" xlink:href="#c" y1="134.502" y2="144.502"/><linearGradient id="g" gradientTransform="matrix(1 0 0 -1 194 170)" gradientUnits="userSpaceOnUse" x1="-151.5" x2="-151.5" xlink:href="#c" y1="134.502" y2="144.502"/><linearGradient id="h" gradientTransform="matrix(1 0 0 -1 194 170)" gradientUnits="userSpaceOnUse" x1="-160.25" x2="-160.25" xlink:href="#c" y1="134.502" y2="144.502"/><linearGradient id="i" gradientTransform="matrix(1 0 0 -1 194 170)" gradientUnits="userSpaceOnUse" x1="-169" x2="-169" xlink:href="#c" y1="134.502" y2="144.502"/><linearGradient id="j" gradientTransform="matrix(1 0 0 -1 194 170)" gradientUnits="userSpaceOnUse" x1="-188.75" x2="-188.75" xlink:href="#c" y1="134.502" y2="144.502"/><linearGradient id="k" gradientTransform="matrix(-1 0 0 -1 -171.0039 170)" gradientUnits="userSpaceOnUse" x1="-229.7539" x2="-229.7539" xlink:href="#c" y1="134.502" y2="144.502"/><path d="m17 54.998h30v4h-30z" fill="#1a1626"/><path d="m17 52.998h30v4h-30z" fill="#594640"/><circle cx="19.313" cy="57.003" fill="#4e5e67" r="5"/><circle cx="19.315" cy="57.003" fill="#302c3b" r="4"/><path d="m21.315 57.003c0 1.105-.896 2-2 2-1.107 0-2-.895-2-2 0-1.104.893-2 2-2 1.104 0 2 .895 2 2z" fill="#4e5e67"/><circle cx="44.688" cy="57.003" fill="#4e5e67" r="5"/><circle cx="44.688" cy="57.003" fill="#302c3b" r="4.001"/><circle cx="44.686" cy="57.003" fill="#4e5e67" r="2"/><path d="m3.5 37.998h57v13h-57z" fill="url(#a)"/><path d="m3 37.998h58v.5h-58z" fill="#f59e01"/><path d="m3 50.498h58v.5h-58z" fill="#f59e01"/><path d="m7.5 54.998h13c0 2-1 3-3 3h-10z" fill="#594640"/><path d="m54.895 17.998h-45.79c-3.832 0-6.105 3-6.105 3h58s-2.273-3-6.105-3z" fill="#99a8ae"/><path d="m3.5 20.998h57v17h-57z" fill="url(#b)"/><path d="m2 50.998h60v3h-60z" fill="#f9b700"/><path d="m13.5 36.498c0 .275-.225.5-.5.5h-2c-.275 0-.5-.225-.5-.5v-11c0-.275.225-.5.5-.5h2c.275 0 .5.225.5.5z" fill="url(#d)"/><path d="m18.5 36.498c0 .275-.225.5-.5.5h-2c-.275 0-.5-.225-.5-.5v-11c0-.275.225-.5.5-.5h2c.275 0 .5.225.5.5z" fill="url(#e)"/><path d="m14.25 22.998h.5v15h-.5z" fill="#99a8ae"/><path d="m19.5 22.998h.5v15h-.5z" fill="#99a8ae"/><path d="m9 22.998h.5v15h-.5z" fill="#99a8ae"/><path d="m14.25 37.998h.5v13h-.5z" fill="#f59e01"/><path d="m19.5 37.998h.5v13h-.5z" fill="#f59e01"/><path d="m9 37.998h.5v13h-.5z" fill="#f59e01"/><path d="m13.5 46.998c0 .275-.225.5-.5.5h-2c-.275 0-.5-.225-.5-.5v-7c0-.275.225-.5.5-.5h2c.275 0 .5.225.5.5z" fill="#302c3b"/><path d="m18.5 46.998c0 .275-.225.5-.5.5h-2c-.275 0-.5-.225-.5-.5v-7c0-.275.225-.5.5-.5h2c.275 0 .5.225.5.5z" fill="#302c3b"/><path d="m3 22.498h58v.5h-58z" fill="#99a8ae"/><path d="m53.017.108h.483v17.261h-.483z" fill="#302c3b" transform="matrix(-.7071 -.7071 .7071 -.7071 84.7392 52.5777)"/><path d="m46.539 14.009h.964v1.931h-.964z" fill="#6e8189" transform="matrix(-.7071 -.7071 .7071 -.7071 69.682 58.8125)"/><path d="m48.54 12.012h.964v1.928h-.964z" fill="#6e8189" transform="matrix(-.7071 -.7071 .7071 -.7071 74.5115 56.8148)"/><path d="m59.85 2.829c-.453.454-1.135-.228-.682-.683.455-.453 1.137.229.682.683z" fill="#6e8189"/><path d="m40.094 14.498h6v1h-6z" fill="#99a8ae"/><g fill="#6e8189"><path d="m40.094 13.998h.5v2h-.5z"/><path d="m41.094 13.998h.5v2h-.5z"/><path d="m42.094 13.998h.5v2h-.5z"/><path d="m43.094 13.998h.5v2h-.5z"/><path d="m44.094 13.998h.5v2h-.5z"/><path d="m45.094 16.998h8v1h-8z"/></g><path d="m33.094 15.998h12v2h-12z" fill="#99a8ae"/><path d="m33.094 17.498h12v.5h-12z" fill="#6e8189"/><path d="m50.094 16.498h4v.5h-4z" fill="#99a8ae"/><path d="m45.094 13.998h2v4h-2z" fill="#4e5e67"/><path d="m47.75 26.346v9.652h7v-9.652c-1.454-1.791-5.537-1.802-7 0z" fill="#b47d56"/><path d="m48.25 26.521v8.977h6v-8.977c-1.109-1.364-4.891-1.364-6 0z" fill="url(#f)"/><path d="m47.75 29.498h7v.5h-7z" fill="#b47d56"/><path d="m39 26.346v9.652h7v-9.652c-1.454-1.791-5.537-1.802-7 0z" fill="#b47d56"/><path d="m39.5 26.521v8.977h6v-8.977c-1.109-1.364-4.891-1.364-6 0z" fill="url(#g)"/><path d="m39 29.498h7v.5h-7z" fill="#b47d56"/><path d="m30.25 26.346v9.652h7v-9.652c-1.454-1.791-5.537-1.802-7 0z" fill="#b47d56"/><path d="m30.75 26.521v8.977h6v-8.977c-1.109-1.364-4.891-1.364-6 0z" fill="url(#h)"/><path d="m30.25 29.498h7v.5h-7z" fill="#b47d56"/><path d="m21.5 26.346v9.652h7v-9.652c-1.454-1.791-5.537-1.802-7 0z" fill="#b47d56"/><path d="m22 26.521v8.977h6v-8.977c-1.109-1.364-4.891-1.364-6 0z" fill="url(#i)"/><path d="m21.5 29.498h7v.5h-7z" fill="#b47d56"/><path d="m56.5 54.998h-13c0 2 1 3 3 3h10z" fill="#594640"/><path d="m3 53.998h58v2h-58z" fill="#45332c"/><path d="m7.5 26.346c-.728-.896-2.363-1.347-4-1.347v10.999h4z" fill="#b47d56"/><path d="m7 26.521c-.555-.683-2.027-1.023-3.5-1.023v10h3.5z" fill="url(#j)"/><path d="m3.5 29.498h4v.5h-4z" fill="#b47d56"/><path d="m56.5 26.346c.728-.896 2.363-1.347 4-1.347v10.999h-4z" fill="#b47d56"/><path d="m57 26.521c.555-.683 2.027-1.023 3.5-1.023v10h-3.5z" fill="url(#k)"/><path d="m56.5 29.498h4v.5h-4z" fill="#b47d56"/></svg>