<svg enable-background="new 0 0 64 64" height="64" viewBox="0 0 64 64" width="64" xmlns="http://www.w3.org/2000/svg" xmlns:xlink="http://www.w3.org/1999/xlink"><linearGradient id="a" gradientUnits="userSpaceOnUse" x1="32.0005" x2="32.0005" y1="56" y2="40.739"><stop offset="0" stop-color="#77b516"/><stop offset=".9753" stop-color="#99d334"/><stop offset="1" stop-color="#9ad435"/></linearGradient><linearGradient id="b"><stop offset="0" stop-color="#302c3b"/><stop offset=".2926" stop-color="#454754"/><stop offset=".7557" stop-color="#636d78"/><stop offset="1" stop-color="#6e7b85"/></linearGradient><linearGradient id="c" gradientUnits="userSpaceOnUse" x1="8.0889" x2="8.0889" xlink:href="#b" y1="41" y2="24.9751"/><linearGradient id="d" gradientUnits="userSpaceOnUse" x1="22.6602" x2="22.6602" xlink:href="#b" y1="35.7119" y2="24.9751"/><linearGradient id="e" gradientUnits="userSpaceOnUse" x1="37.6953" x2="37.6953" xlink:href="#b" y1="35.7119" y2="24.9751"/><linearGradient id="f" gradientUnits="userSpaceOnUse" x1="52.2305" x2="52.2305" xlink:href="#b" y1="35.7119" y2="24.9751"/><linearGradient id="g"><stop offset=".4909" stop-color="#5b666e"/><stop offset=".6437" stop-color="#525a64"/><stop offset=".9181" stop-color="#3c3b49"/><stop offset="1" stop-color="#343040"/></linearGradient><radialGradient id="h" cx="13.6003776" cy="56.00089966" gradientUnits="userSpaceOnUse" r="5.99962878" xlink:href="#g"/><radialGradient id="i" cx="49.35068706" cy="56.00089966" gradientUnits="userSpaceOnUse" r="5.99962878" xlink:href="#g"/><path d="m21.879 19.011h-1.17c3.438-4.168 7.128-7.266 7.128-7.266l.235.478s-2.972 3.098-6.193 6.788z" fill="#cfd8dd"/><path d="m16.854 18.62-.326-.379c.147-.128 15.095-12.824 38.804-14.56l.037.498c-23.538 1.724-38.368 14.314-38.515 14.441z" fill="#cfd8dd"/><path d="m26.947 12.682c.929-.515 1.832-.98 2.634-1.354l-.556-1.195c-.888.413-1.896.938-2.932 1.52.274.351.558.695.854 1.029z" fill="#b3c2c6"/><path d="m15.14 18.414 3.487-1.841-.556-1.195-2.931 1.519z" fill="#b3c2c6"/><path d="m53.594 4.457c2.031.044 3.371-.607 3.675-1.438.267-.729-.754-1.44-1.034-.719-.438 1.125-1.953 1.381-2.844 1.469z" fill="#4e5e67"/><path d="m18.469 18.414h-3.329c4.424-4.295 12.348-7.911 12.348-7.911l.885 1.793c-.001 0-5.144 2.437-9.904 6.118z" fill="#4e5e67"/><path d="m31.168 17.979h-17.5c-.916 0-1.668.75-1.668 1.666h20.834c0-.916-.75-1.666-1.666-1.666z" fill="#e6ebef"/><path d="m34.168 19h-23.5c-.916 0-1.668.75-1.668 1.666h26.834c0-.916-.75-1.666-1.666-1.666z" fill="#cfd8dd"/><path d="m2 42v11.001c0 1.931 1.057 2.999 2.475 2.999h52.875c1.65 0 4.65-4.153 4.65-4.81 0-1.741 0-9.19 0-9.19z" fill="url(#a)"/><path d="m59.957 20s-39.23 0-52.641 0c-1.326 0-2.221 1.044-3.001 2.975l-2.315 20.025h60s0-16.013 0-20.025c0-.453 0-.879 0-1.261 0-.998-.752-1.714-2.043-1.714z" fill="#e6ebef"/><path d="m2 43.542h3.475v3h-3.475z" fill="#f2f5f7"/><path d="m22.287 49.625h8v5h-8z" fill="#529320"/><g fill="#4e5e67"><path d="m22.287 49.625h.47v5h-.47z"/><path d="m23.229 49.625h.47v5h-.47z"/><path d="m24.17 49.625h.47v5h-.47z"/><path d="m25.111 49.625h.47v5h-.47z"/><path d="m26.052 49.625h.471v5h-.471z"/><path d="m26.993 49.625h.471v5h-.471z"/><path d="m27.935 49.625h.47v5h-.47z"/><path d="m28.876 49.625h.47v5h-.47z"/><path d="m29.817 49.625h.47v5h-.47z"/></g><path d="m35.245 53h2v2h-2z" fill="#cfd8dd"/><path d="m35.37 53.125h1.75v.75h-1.75z" fill="#fff"/><path d="m7.475 43.542c.551 0-.449 3-1 3h-1v-3z" fill="#f59e01"/><path d="m4.314 22.975s-2.115 3.633-2.314 20.025h2.825c4.109 0 10.501-5.288 10.501-5.288h43.398c1.186 0 1.523-1.023 1.523-1.529 0-1.593 0-13.208 0-13.208z" fill="#1a1626"/><path d="m3 47-1 .25h3.475v8.75h.25v-8.75h15.75v8.75h.25v-8.75h9.125v8.75h.25v-8.75h10.125v8.75h.25v-8.75h15.75v8.75h.25v-8.75h4.525v-.25z" fill="#529320"/><path d="m3.639 24.975h10.504v10.737s-6.193 5.288-10.303 5.288c-.57 0-1.805 0-1.805 0 0-11.258 1.604-16.025 1.604-16.025z" fill="url(#c)"/><path d="m16.143 24.975h13.035v10.737h-13.035z" fill="url(#d)"/><path d="m31.178 24.975h13.035v10.737h-13.035z" fill="url(#e)"/><path d="m46.213 24.975v10.737h10.512c1.186 0 1.523-1.023 1.523-1.529 0-1.593 0-9.208 0-9.208z" fill="url(#f)"/><path d="m5.256 21.79v5.385l1.469.8s0-4.738 0-6.185c0-.997-1.469-.993-1.469 0z" fill="#cfd8dd"/><path d="m5.256 34.038c0 .275.225.5.5.5h2.504c.275 0 .5-.225.5-.5v-6.363c0-.275-.225-.5-.5-.5h-3.004z" fill="#e6ebef"/><path d="m13.597 49c-3.863-.003-6.994 3.128-6.997 6.993v.007h14c0-3.869-3.134-7-7.003-7z" fill="#1a1626"/><circle cx="13.6" cy="56" fill="url(#h)" r="6"/><circle cx="13.6" cy="56" fill="#e6ebef" r="4.2"/><path d="m17.188 57.22c.131-.383.205-.793.205-1.22s-.074-.837-.205-1.219l-2.109 1.219z" fill="#4e5e67"/><path d="m14.338 54.718 2.109-1.217c-.539-.615-1.274-1.057-2.109-1.222z" fill="#4e5e67"/><path d="m10.01 54.78c-.132.383-.204.793-.204 1.22s.072.837.204 1.219l2.11-1.219z" fill="#4e5e67"/><path d="m14.338 57.28v2.44c.837-.165 1.57-.606 2.112-1.222z" fill="#4e5e67"/><path d="m12.858 54.72v-2.44c-.833.165-1.57.606-2.109 1.222z" fill="#4e5e67"/><path d="m12.858 57.282-2.109 1.217c.542.615 1.276 1.057 2.109 1.222z" fill="#4e5e67"/><circle cx="13.598" cy="56" fill="#cfd8dd" r="3.092"/><path d="m13.854 53.716c0 .336-.507.336-.507 0 0-.338.507-.338.507 0z" fill="#4e5e67"/><path d="m13.854 58.284c0 .338-.507.338-.507 0 0-.336.507-.336.507 0z" fill="#4e5e67"/><path d="m15.705 55.073c-.289.166-.539-.266-.251-.433.287-.164.539.267.251.433z" fill="#4e5e67"/><path d="m11.745 57.359c-.287.167-.539-.267-.247-.435.288-.165.536.268.247.435z" fill="#4e5e67"/><path d="m15.454 57.358c-.288-.166-.038-.6.248-.433.288.168.039.599-.248.433z" fill="#4e5e67"/><path d="m11.495 55.073c-.289-.166-.037-.598.25-.433.289.168.038.599-.25.433z" fill="#4e5e67"/><path d="m15.878 56c0 1.257-1.024 2.276-2.281 2.276-1.255 0-2.274-1.02-2.274-2.276s1.02-2.276 2.274-2.276c1.257 0 2.281 1.019 2.281 2.276z" fill="#e6ebef"/><path d="m49.347 49c-3.863-.003-6.994 3.128-6.997 6.993v.007h14c0-3.869-3.134-7-7.003-7z" fill="#1a1626"/><circle cx="49.35" cy="56" fill="url(#i)" r="6"/><path d="m53.55 56c0 2.319-1.88 4.2-4.203 4.2-2.317 0-4.196-1.881-4.196-4.2s1.879-4.2 4.196-4.2c2.323 0 4.203 1.881 4.203 4.2z" fill="#e6ebef"/><path d="m52.938 57.22c.131-.383.204-.793.204-1.22s-.073-.837-.204-1.219l-2.112 1.219z" fill="#4e5e67"/><path d="m50.088 54.718 2.109-1.217c-.539-.615-1.274-1.057-2.109-1.222z" fill="#4e5e67"/><path d="m45.76 54.78c-.132.383-.204.793-.204 1.22s.072.837.204 1.219l2.11-1.219z" fill="#4e5e67"/><path d="m50.088 57.28v2.44c.837-.165 1.57-.606 2.112-1.222z" fill="#4e5e67"/><path d="m48.608 54.72v-2.44c-.833.165-1.57.606-2.109 1.222z" fill="#4e5e67"/><path d="m48.608 57.282-2.109 1.217c.542.615 1.276 1.057 2.109 1.222z" fill="#4e5e67"/><path d="m52.44 56c0 1.708-1.383 3.091-3.094 3.091-1.705 0-3.091-1.383-3.091-3.091s1.386-3.091 3.091-3.091c1.712 0 3.094 1.383 3.094 3.091z" fill="#cfd8dd"/><path d="m49.604 53.716c0 .336-.507.336-.507 0 0-.338.507-.338.507 0z" fill="#4e5e67"/><path d="m49.604 58.284c0 .338-.507.338-.507 0 0-.336.507-.336.507 0z" fill="#4e5e67"/><path d="m51.452 55.073c-.289.166-.539-.266-.248-.433.287-.164.536.267.248.433z" fill="#4e5e67"/><path d="m47.495 57.359c-.287.167-.539-.267-.25-.435.288-.165.539.268.25.435z" fill="#4e5e67"/><path d="m51.201 57.358c-.288-.166-.038-.6.251-.433.288.168.039.599-.251.433z" fill="#4e5e67"/><path d="m47.245 55.073c-.289-.166-.037-.598.25-.433.289.168.038.599-.25.433z" fill="#4e5e67"/><circle cx="49.349" cy="56" fill="#e6ebef" r="2.277"/><path d="m61 44v3c0 .55.451 1 1 1v-5c-.549 0-1 .45-1 1z" fill="#e81c27"/></svg>