<svg enable-background="new 0 0 64 64" height="64" viewBox="0 0 64 64" width="64" xmlns="http://www.w3.org/2000/svg" xmlns:xlink="http://www.w3.org/1999/xlink"><radialGradient id="a" cx="37.2559" cy="38.7227" gradientTransform="matrix(.9072 -.4226 .0931 .1994 -.1531 46.7468)" gradientUnits="userSpaceOnUse" r="89.6346"><stop offset=".32" stop-color="#c6cfd4"/><stop offset=".3469" stop-color="#d3dadf"/><stop offset=".3888" stop-color="#dee4e9"/><stop offset=".448" stop-color="#e5eaee"/><stop offset=".6121" stop-color="#e7ecf0"/></radialGradient><linearGradient id="b" gradientUnits="userSpaceOnUse" x1="40.8223" x2="40.8223" y1="43.6729" y2="27.6357"><stop offset="0" stop-color="#005687"/><stop offset=".0043" stop-color="#005688"/><stop offset=".2509" stop-color="#0f6da3"/><stop offset=".4993" stop-color="#1a7cb7"/><stop offset=".7485" stop-color="#2086c3"/><stop offset="1" stop-color="#2289c7"/></linearGradient><linearGradient id="c" gradientUnits="userSpaceOnUse" x1="39.3438" x2="62" y1="35.3477" y2="35.3477"><stop offset="0" stop-color="#302c3b"/><stop offset=".2733" stop-color="#33303e"/><stop offset=".5282" stop-color="#3b3b48"/><stop offset=".775" stop-color="#494e59"/><stop offset="1" stop-color="#5b666e"/></linearGradient><linearGradient id="d" gradientUnits="userSpaceOnUse" x1="32.2788" x2="32.2788" y1="54" y2="45.4083"><stop offset="0" stop-color="#e6ebef"/><stop offset=".0402" stop-color="#e0e6ea"/><stop offset=".2976" stop-color="#c1cbd0"/><stop offset=".5481" stop-color="#abb8bd"/><stop offset=".7866" stop-color="#9eacb2"/><stop offset="1" stop-color="#99a8ae"/></linearGradient><linearGradient id="e" gradientUnits="userSpaceOnUse" x1="34.7031" x2="34.7031" y1="29.1157" y2="14.9121"><stop offset="0" stop-color="#302c3b"/><stop offset=".2358" stop-color="#41424f"/><stop offset=".7404" stop-color="#616b76"/><stop offset="1" stop-color="#6e7b85"/></linearGradient><path d="m47.027 14.912s-18.989 11.46-25.189 14.204c0 0-12.024 8.427-18.687 16.038-.696.795-1.846 2.765-.594 5.391 27.152-5.565 59.443-8.106 59.443-8.106v-30.439s-8.725 0-14.973 2.912z" fill="url(#a)"/><path d="m29.709 45.668c8.871-.801 32.291-.75 32.291-.75v-17.283s-29.721 3.283-32.291 18.033z" fill="#c6cfd4"/><path d="m19.645 43.673s19.312-15.746 42.355-16.038c-18.988 3.25-27.682 13.22-27.682 13.22-9.556 1.289-14.673 2.818-14.673 2.818z" fill="url(#b)"/><path d="m62 40.444-22.656.161s8.225-8.49 22.656-10.516z" fill="url(#c)"/><path d="m28.038 54h33.962v5h-33.962z" fill="#302c3b"/><ellipse cx="55.994" cy="57" fill="#6e8189" rx="5.005" ry="5"/><circle cx="55.994" cy="57" fill="#99a8ae" r="4.004"/><circle cx="55.994" cy="57" fill="#6e8189" r="2.002"/><circle cx="37.976" cy="57" fill="#6e8189" r="5.005"/><circle cx="37.976" cy="57" fill="#99a8ae" r="4.004"/><circle cx="37.976" cy="57" fill="#6e8189" r="2.002"/><path d="m49.988 60h-6.006l-1.002-3h8.008z" fill="#6e8189"/><path d="m55.994 56h-18.018c-1.334 0-1.334 2 0 2h18.019c1.333 0 1.333-2-.001-2z" fill="#4e5e67"/><path d="m2.558 50.544s1.845 3.456 5.133 3.456h54.309v-9.895s-8.768 0-19.02 0c-15.69 0-27.828 3.584-40.422 6.439z" fill="url(#d)"/><path d="m27.966 54c-4.767 0-15.063 0-15.063 0l6.006 5h9.058c8.898 0 8.519-4 34.034-4v-4c-26.519 0-26.138 3-34.035 3z" fill="#302c3b"/><path d="m47.027 14.912c-4.627 1.404-22.259 11.128-25.189 14.204.698 0 15.888-5.482 25.146-6.482.87-.094.671-7.292.043-7.722z" fill="url(#e)"/><path d="m19.867 30.528c-1.682.61-6.351 4.077-7.732 6.051 5.354-1.186 7.732-6.051 7.732-6.051z" fill="#f9b700"/><path d="m12.902 54c1.628-1.225 3.592-3.332 4.276-6.842-3.722-6.309-8.42-7.637-8.42-7.637s5.125 2.256 7.726 7.789c-.035 1.624-1.508 4.17-3.582 6.69z" fill="#99a8ae"/></svg>