<svg enable-background="new 0 0 64 64" height="64" viewBox="0 0 64 64" width="64" xmlns="http://www.w3.org/2000/svg" xmlns:xlink="http://www.w3.org/1999/xlink"><linearGradient id="a" gradientTransform="matrix(1 0 0 -1 194 170)" gradientUnits="userSpaceOnUse" x1="-162" x2="-162" y1="123" y2="157"><stop offset="0" stop-color="#c6cfd4"/><stop offset=".5131" stop-color="#dce3e7"/><stop offset=".8606" stop-color="#e6ebef"/></linearGradient><linearGradient id="b" gradientTransform="matrix(1 0 0 -1 194 170)" gradientUnits="userSpaceOnUse" x1="-162" x2="-162" y1="130" y2="152"><stop offset="0" stop-color="#302c3b"/><stop offset=".2358" stop-color="#41424f"/><stop offset=".7404" stop-color="#616b76"/><stop offset="1" stop-color="#6e7b85"/></linearGradient><path d="m32 2c-16.568 0-30 13.432-30 30 0 11.105 6.041 20.796 15.01 25.982h2.936v1.487c3.689 1.625 7.765 2.531 12.054 2.531s8.365-.906 12.055-2.527v-1.49h2.938c8.968-5.187 15.007-14.878 15.007-25.983 0-16.568-13.432-30-30-30z" fill="#1a1626"/><path d="m39.412 47h-1.471l6.113 12.473c.529-.232 1.053-.481 1.568-.746z" fill="#4e5e67"/><path d="m41.5 47h-2.088l5.883 11.893c.574-.285 1.141-.589 1.695-.912z" fill="#b3c2c6"/><path d="m18.377 58.727c.516.264 1.037.514 1.568.746l6.114-12.473h-1.469z" fill="#4e5e67"/><path d="m17.01 57.98c.555.322 1.121.626 1.695.912l5.883-11.892h-2.088z" fill="#b3c2c6"/><path d="m40.994 8h-17.988c-1.418 0-2.568 1.15-2.568 2.57 0 .354.289.642.645.642s.643-.288.643-.642c0-.71.574-1.285 1.281-1.285h3.496c1.496 0 1.645.713 1.896 1.892.074.355.164 1.771.33 2.166h1.563c-.338-.206-.471-1.638-.635-2.43-.107-.497-.234-1.099-.545-1.628h5.781c-.313.529-.439 1.132-.543 1.628-.168.792-.301 2.224-.639 2.43h1.561c.166-.395.258-1.812.332-2.166.25-1.179.4-1.892 1.895-1.892h3.498c.707 0 1.283.575 1.283 1.285 0 .354.289.642.645.642.354 0 .641-.288.641-.642-.003-1.42-1.154-2.57-2.572-2.57z" fill="#99a8ae"/><path d="m16 45c0 2 2 8 3 8h26c1 0 3-6 3-8v-5h-32z" fill="#014d87"/><path d="m16 35v6c0 2 2 8 5 8h22c3 0 5-6 5-8v-6z" fill="#018bc9"/><path d="m42 13h-20c-4.621 0-6 3.047-6 5v17l6 4c4.852 3.234 4 8 8 8h4c4 0 4.268-5.512 8-8l6-4v-17c0-1.953-1.381-5-6-5z" fill="url(#a)"/><circle cx="21" cy="44" fill="#fff" r="2"/><circle cx="43" cy="44" fill="#fff" r="2"/><path d="m34 51h-4l-1 2h6z" fill="#013366"/><path d="m43 17h-22c-3 0-2 7-2 7h26s1-7-2-7z" fill="#99a8ae"/><path d="m43 18h-22c-2 0-2 6-2 6s.594 10.594 3 13c4 4 16 4 20 0 2.404-2.404 3-13 3-13s0-6-2-6z" fill="url(#b)"/><path d="m41.539 23.191h-19.078c-2.656 0-2.656-4.382 0-4.382h19.078c2.658 0 2.658 4.382 0 4.382z" fill="#302c3b"/><g fill="#f9b700"><path d="m28.197 21.62c-.004-.067.031-.102.094-.102h.375c.059 0 .09.035.102.098.027.238.17.331.395.331.254 0 .402-.12.402-.357v-1.937c0-.063.035-.098.098-.098h.371c.064 0 .1.035.1.098v1.937c0 .624-.471.91-.971.91-.477 0-.923-.258-.966-.88z"/><path d="m30.496 21c0-.844.668-1.5 1.5-1.5s1.5.656 1.5 1.5-.668 1.5-1.5 1.5-1.5-.656-1.5-1.5zm2.434 0c0-.555-.41-.947-.934-.947s-.932.392-.932.947.408.947.932.947.934-.392.934-.947z"/><path d="m35.787 19.673-.879 1.489v1.184c0 .063-.035.098-.098.098h-.371c-.064 0-.1-.035-.1-.098v-1.186l-.877-1.488c-.039-.069-.008-.118.066-.118h.432c.055 0 .09.023.115.069l.549.99.549-.99c.025-.046.061-.069.115-.069h.432c.075.001.106.05.067.119z"/></g></svg>