<svg enable-background="new 0 0 64 64" height="64" viewBox="0 0 64 64" width="64" xmlns="http://www.w3.org/2000/svg" xmlns:xlink="http://www.w3.org/1999/xlink"><radialGradient id="a" cx="53.167" cy="39.4824" gradientTransform="matrix(.9125 -.4091 .1242 .2771 -.2515 50.2958)" gradientUnits="userSpaceOnUse" r="189.8768"><stop offset=".32" stop-color="#c6cfd4"/><stop offset=".3469" stop-color="#d3dadf"/><stop offset=".3888" stop-color="#dee4e9"/><stop offset=".448" stop-color="#e5eaee"/><stop offset=".6121" stop-color="#e7ecf0"/></radialGradient><linearGradient id="b" gradientUnits="userSpaceOnUse" x1="26.9966" x2="26.9966" y1="32" y2="12"><stop offset="0" stop-color="#302c3b"/><stop offset=".2926" stop-color="#454754"/><stop offset=".7557" stop-color="#636d78"/><stop offset="1" stop-color="#6e7b85"/></linearGradient><linearGradient id="c"><stop offset="0" stop-color="#005687"/><stop offset=".0043" stop-color="#005688"/><stop offset=".2509" stop-color="#0f6da3"/><stop offset=".4993" stop-color="#1a7cb7"/><stop offset=".7485" stop-color="#2086c3"/><stop offset="1" stop-color="#2289c7"/></linearGradient><linearGradient id="d" gradientUnits="userSpaceOnUse" x1="44" x2="44" xlink:href="#c" y1="46" y2="21.0005"/><radialGradient id="e" cx="11.333" cy="42.5625" gradientTransform="matrix(.7071 .7071 -.9884 .9884 45.3885 -7.5203)" gradientUnits="userSpaceOnUse" r="2.9904"><stop offset="0" stop-color="#ffe600"/><stop offset=".1978" stop-color="#fde100"/><stop offset=".4376" stop-color="#f7d200"/><stop offset=".6992" stop-color="#edba00"/><stop offset=".9746" stop-color="#df9800"/><stop offset="1" stop-color="#de9400"/></radialGradient><linearGradient id="f" gradientUnits="userSpaceOnUse" x1="6.9082" x2="62" xlink:href="#c" y1="56" y2="56"/><path d="m28.037 54h33.963v5h-33.963z" fill="#013366"/><circle cx="55.993" cy="57" fill="#6e8189" r="5.005"/><circle cx="55.994" cy="57" fill="#99a8ae" r="4.004"/><circle cx="55.994" cy="57" fill="#6e8189" r="2.002"/><circle cx="37.976" cy="57" fill="#6e8189" r="5.005"/><circle cx="37.975" cy="57" fill="#99a8ae" r="4.004"/><circle cx="37.975" cy="57" fill="#6e8189" r="2.002"/><path d="m49.987 60h-6.006l-1.001-3h8.008z" fill="#6e8189"/><path d="m55.993 56h-18.018c-1.334 0-1.334 2 0 2h18.019c1.334 0 1.334-2-.001-2z" fill="#4e5e67"/><path d="m62 6c-13.912 1.938-20 6-20 6s-19.691 15.185-30 20c-6.175 5.49-10 11.178-10 15 0 4.74 9 8 9 8h51z" fill="url(#a)"/><path d="m42 12c-2.023 9.615-27.433 20-30 20-.407-2.51 17.192-18.26 30-20" fill="url(#b)"/><path d="m62 21s-36 10-36 20c0 4.625 6.42 5 16 5h20z" fill="url(#d)"/><path d="m15.469 39.127c-1.145-1.125-3.613-.52-5.516 1.355-1.904 1.875-2.521 4.309-1.379 5.434 1.143 1.127 3.666.846 5.516-1.355 1.715-2.043 2.519-4.307 1.379-5.434" fill="#b3c2c6"/><path d="m14.57 40.996c-.852-.863-2.693-.396-4.113 1.045-1.42 1.439-1.883 3.313-1.029 4.176.734.742 2.844.24 4.115-1.043 1.424-1.438 1.881-3.313 1.027-4.178" fill="url(#e)"/><path d="m11 55-4.092 5h21.057c8.898 0 8.519-4 34.035-4v-4c-26.518 0-51 3-51 3z" fill="url(#f)"/></svg>