<svg enable-background="new 0 0 64 64" height="64" viewBox="0 0 64 64" width="64" xmlns="http://www.w3.org/2000/svg" xmlns:xlink="http://www.w3.org/1999/xlink"><linearGradient id="a" gradientUnits="userSpaceOnUse" x1="13" x2="13" y1="56.001" y2="26.0015"><stop offset="0" stop-color="#c6cfd4"/><stop offset=".2285" stop-color="#d4dbe0"/><stop offset=".5643" stop-color="#e1e7eb"/><stop offset=".8606" stop-color="#e6ebef"/></linearGradient><linearGradient id="b" gradientUnits="userSpaceOnUse" x1="42.5" x2="42.5" y1="45.501" y2="15.5015"><stop offset="0" stop-color="#ffc800"/><stop offset="1" stop-color="#ffe600"/></linearGradient><linearGradient id="c"><stop offset="0" stop-color="#302c3b"/><stop offset=".2926" stop-color="#454754"/><stop offset=".7557" stop-color="#636d78"/><stop offset="1" stop-color="#6e7b85"/></linearGradient><linearGradient id="d" gradientUnits="userSpaceOnUse" x1="5.6655" x2="5.6655" xlink:href="#c" y1="40.001" y2="28.0015"/><linearGradient id="e" gradientUnits="userSpaceOnUse" x1="14.3413" x2="14.3413" xlink:href="#c" y1="40.001" y2="28.0015"/><linearGradient id="f"><stop offset=".4909" stop-color="#5b666e"/><stop offset=".6437" stop-color="#525a64"/><stop offset=".9181" stop-color="#3c3b49"/><stop offset="1" stop-color="#343040"/></linearGradient><radialGradient id="g" cx="53" cy="56.3047" gradientTransform="matrix(1 0 0 .9999 0 -.2999)" gradientUnits="userSpaceOnUse" r="6.0005" xlink:href="#f"/><radialGradient id="h" cx="77.0527" cy="117.0977" gradientTransform="matrix(1.2 0 0 1.1999 -74.4633 -84.5059)" gradientUnits="userSpaceOnUse" r="5.0005" xlink:href="#f"/><path d="m22.167 21.883h1.291v5.208h-1.291z" fill="#99a8ae"/><path d="m8.883 26.55s4.273-3.136 13.284-4.667v4.667z" fill="#cfd8dd"/><path d="m23 56.001v-29c0-.55-.451-1-1-1h-14c-.551 0-1.125.434-1.275.961 0 0-.109.387-.291 1.039l.066 5-2.984 7s-.516 2.167-.516 4v12z" fill="url(#a)"/><path d="m10.514 53.466h-3.222c-.482 0-.875-.393-.875-.875v-11.84c0-.421.073-1.098.163-1.509l2.471-11.32c.1-.458.563-.831 1.032-.831h11.209c.482 0 .875.393.875.875v16.785c0 .456-.289 1.023-.658 1.292l-9.565 6.958c-.351.256-.993.465-1.43.465zm-.431-26.125c-.353 0-.713.29-.788.634l-2.471 11.32c-.087.397-.157 1.051-.157 1.456v11.84c0 .345.28.625.625.625h3.222c.386 0 .973-.191 1.283-.417l9.565-6.958c.301-.219.555-.718.555-1.09v-16.785c0-.345-.28-.625-.625-.625z" fill="#1a1626" opacity=".1"/><path d="m61.5 14h-38c-.275 0-.5.225-.5.5v32.5l39 .001v-32.501c0-.275-.225-.5-.5-.5z" fill="#f59e01"/><path d="m24.5 15.501h36v30h-36z" fill="url(#b)"/><path d="m27.313 44.147h1v.5h-1z" fill="#e81c27"/><path d="m56.688 44.147h1v.5h-1z" fill="#e81c27"/><path d="m14 52.001h-11c-.551 0-1 .45-1 1v2c0 .55.449 1 1 1h11z" fill="#4e5e67"/><path d="m7 28.001h-.566l-2.918 12h.984c.549 0 1.092-.439 1.203-.979l2.092-10.043c.113-.539-.246-.978-.795-.978z" fill="url(#d)"/><path d="m20 28.001h-9c-.551 0-1.092.439-1.205.979l-2.092 10.042c-.111.539.246.979.797.979h11.5c.549 0 1-.45 1-1v-10c0-.55-.451-1-1-1z" fill="url(#e)"/><path d="m3 46.001h2v4h-2z" fill="#fff"/><path d="m5 46.001v4l1-1v-3z" fill="#f59e01"/><path d="m20.473 42.031c0-.365 0-.662-1.18-.662h-1.24c-1.184 0-1.184.297-1.184.662 0 .219 3.604.219 3.604 0z" fill="#99a8ae"/><path d="m18 47.001c-4.905 0-8.881 4.094-8.881 9h51.881c.55 0 1-.45 1-1v-8z" fill="#4e5e67"/><path d="m53 49c-3.866 0-7 3.133-7 7h14c0-3.867-3.135-7-7-7z" fill="#1a1626"/><circle cx="53" cy="56" fill="url(#g)" r="6"/><path d="m56.6 56.001c-.001 1.989-1.612 3.598-3.6 3.599-1.989 0-3.6-1.609-3.6-3.599s1.612-3.601 3.6-3.601c1.989 0 3.6 1.611 3.6 3.601z" fill="#e6ebef"/><circle cx="53" cy="56" fill="#99a8ae" r="2.945"/><g fill="#4e5e67"><path d="m53.286 53.98c0 .378-.572.378-.572 0 0-.382.572-.382.572 0z"/><path d="m53.286 58.02c0 .384-.572.384-.572 0 0-.377.572-.377.572 0z"/><path d="m54.894 55.234c-.328.19-.612-.302-.284-.49.326-.189.609.303.284.49z"/><path d="m51.391 57.256c-.325.188-.609-.303-.284-.49.328-.19.612.301.284.49z"/><path d="m54.606 57.256c-.322-.188-.041-.68.284-.49.329.187.044.678-.284.49z"/><path d="m51.106 55.234c-.325-.188-.041-.678.284-.489.329.188.045.679-.284.489z"/><circle cx="52.998" cy="56" r=".83"/></g><path d="m18 49c-3.866 0-7 3.133-7 7h14c0-3.867-3.134-7-7-7z" fill="#1a1626"/><circle cx="17.999" cy="56" fill="url(#h)" r="6"/><path d="m21.6 56.001c-.002 1.987-1.612 3.598-3.601 3.599-1.989 0-3.599-1.611-3.599-3.599s1.611-3.601 3.599-3.601c1.989 0 3.601 1.613 3.601 3.601z" fill="#99a8ae"/><circle cx="17.999" cy="56" fill="#e6ebef" r="3.085"/><path d="m18.324 53.699c0 .432-.651.432-.651 0s.651-.432.651 0z" fill="#4e5e67"/><path d="m18.324 58.299c0 .436-.651.436-.651 0 0-.429.651-.429.651 0z" fill="#4e5e67"/><path d="m20.154 55.127c-.374.218-.695-.341-.321-.558.369-.215.692.345.321.558z" fill="#4e5e67"/><path d="m16.167 57.43c-.369.213-.692-.345-.321-.558.372-.216.695.342.321.558z" fill="#4e5e67"/><path d="m19.828 57.43c-.368-.216-.048-.773.324-.558.372.213.049.771-.324.558z" fill="#4e5e67"/><path d="m15.846 55.127c-.372-.213-.048-.77.321-.556.373.215.051.773-.321.556z" fill="#4e5e67"/><path d="m19.799 56c0 .995-.804 1.8-1.801 1.8-.994 0-1.799-.805-1.799-1.8 0-.994.805-1.799 1.799-1.799.997 0 1.801.805 1.801 1.799z" fill="#99a8ae"/><path d="m19.439 56c0 .796-.649 1.44-1.444 1.44-.793 0-1.436-.645-1.436-1.44s.643-1.439 1.436-1.439c.795 0 1.444.643 1.444 1.439z" fill="#e6ebef"/></svg>