<svg enable-background="new 0 0 64 64" height="64" viewBox="0 0 64 64" width="64" xmlns="http://www.w3.org/2000/svg" xmlns:xlink="http://www.w3.org/1999/xlink"><linearGradient id="a" gradientTransform="matrix(1 0 0 -1 194 170)" gradientUnits="userSpaceOnUse" x1="-152" x2="-152" y1="137.001" y2="140.335"><stop offset="0" stop-color="#52a100"/><stop offset=".213" stop-color="#5ba904"/><stop offset=".5603" stop-color="#73bf10"/><stop offset=".9965" stop-color="#9be323"/><stop offset="1" stop-color="#9be323"/></linearGradient><linearGradient id="b"><stop offset="0" stop-color="#302c3b"/><stop offset="1" stop-color="#6e7b85"/></linearGradient><linearGradient id="c" gradientTransform="matrix(1 0 0 -1 194 170)" gradientUnits="userSpaceOnUse" x1="-154.666" x2="-154.666" xlink:href="#b" y1="128.3359" y2="133.002"/><linearGradient id="d" gradientTransform="matrix(1 0 0 -1 194 170)" gradientUnits="userSpaceOnUse" x1="-146.666" x2="-146.666" xlink:href="#b" y1="128.3359" y2="133.002"/><linearGradient id="e" gradientTransform="matrix(1 0 0 -1 194 170)" gradientUnits="userSpaceOnUse" x1="-138.666" x2="-138.666" xlink:href="#b" y1="128.3359" y2="133.002"/><linearGradient id="f" gradientTransform="matrix(1 0 0 -1 194 170)" gradientUnits="userSpaceOnUse" x1="-164.334" x2="-164.334" xlink:href="#b" y1="126.3359" y2="132.3359"/><path d="m30 2c-.484 0-2.582 3.417-3 3.75l-5.416 1.833c-1.834 1.167-3.334-.583-3.667-.833-.173-.13-.752.889-1.5 1.292-.692.372-1.562.125-1.667.125-.373 0-2.75-1.167-2.75-1.167-1.139.229-2.633 1.829-4.458 2.913-2.187 1.296-4.69 2.087-5.542 2.087v46h60v-46c-5.75 0-11.609-5.141-12.219-5.141-.418 0-3.541 4.539-6.113 3.141 0 0-12.973-8-13.668-8z" fill="#6e8189"/><path d="m62 20v39h-60v-35s4.049 5.137 5 5.833c1.594 1.167 6 2.501 8 3.834s-4.667-7.261-6.5-8.714l21.5 8.854c.833.36-15-11.807-17-14.807-1.447-2.171-5.333-3.65-4-3.658s10.167 4.825 12 5.992 6.833 5 11 6.5-1.75-9.573-1-9c10.883 8.333 29 11.5 29 11.5s-10.834-11.667-12-13.667 7.746 6.252 5 .649c-1.625-3.316 2 2.684 9 2.684z" fill="#4e5e67"/><path d="m4.667 17.833c-.144-.589 3.25 2.667 4.25 3.25s-3.333.5-4.25-3.25zm34.425-1.724c-.531-.529 3.469 9.559 10.268 9.559 5.515 0-5.93-5.219-10.268-9.559z" fill="#4e5e67"/><path d="m7.917 11.083c.417-.583 3.25-.417 3.25-.417s.041-2.874.833-3.666c-2.5.5-8.438 5-10 5 0 0 4.809.758 6.667 1.583.75.334-1.167-1.916-.75-2.5zm11.833-.88c1.417.964-2.583-2.703-1.833-3.453-.333-.25-2.948 1.417-3.167 1.417 0 0 2.833 1.75 4 2.917s-.417-1.845 1-.881zm-5-.62s4.333 2.833 4.833 3.583-2.026-.083-2.181 0c-.152.083 2.646 2.75 2.246 3-.398.25-3.398-2.833-4.898-3.292s2.5.459 0-3.291zm10.833-2s3.583 1.678 3.417 1.13-3.167-3.38 0-1.63c3.168 1.75 6.918 5.315 7.834 6.533 0 0-.584-2.128-1.834-3.414s-4.42-4.04-3.667-5.536c0 .001-1.333-1.083-1.333-2.666-.484 0-2.582 2.417-3 2.75-.417.333-.916-.25-1.25-.333-.333-.083-2.333 2-4.166 3.167 0 0 3.225 1.844 5 3.619 2.423 2.423 5.917 4.431 5.917 4.139-.001-.656-6.918-7.759-6.918-7.759zm8.251-1.511s2.584 1.595 3 3.095-1.666-1.022-3-3.095zm14.834 6.81c.334.146-2.916-3.644-.584-2.68 2.334.964-.166-1.941.75-1.489s4.332 3.249 4.166 2.643c-.166-.604-1.916-3.062 0-2.5h.002c-1.822-1.12-3.07-2.106-3.252-2.106-.416 0-4.188 3.25-6.082 3.25 0 0 2.52 1.813 5 2.882zm6-1.754c-.828 0 3.166 3.722 4.832 4.213 1.668.491-4.082-4.213-4.832-4.213z" fill="#e6ebef"/><path d="m2 59h60v2h-60z" fill="#b3c2c6"/><path d="m2 60h60v1h-60z" fill="#99a8ae"/><path d="m2 61h60v1h-60z" fill="#4e5e67"/><path d="m5 61h4v1h-4zm10 0h4v1h-4zm10 0h4v1h-4zm10 0h4v1h-4zm10 0h4v1h-4zm10 0h4v1h-4z" fill="#6e8189"/><path d="m23 32.999h38v19.331h-38z" fill="#f9b700"/><path d="m23 34.332h38v15.998h-38z" fill="#ffe12c"/><path d="m59.666 29.665h-35.332c-.734 0-1.334.601-1.334 1.334v2h38v-2c0-.733-.6-1.334-1.334-1.334z" fill="url(#a)"/><path d="m53.666 28.332h-10c-.732 0-1.332.601-1.332 1.333h12.666c0-.732-.6-1.333-1.334-1.333z" fill="#7ab51d"/><path d="m41.666 36.998h-4.666c-.367 0-.666.3-.666.666v3.333c0 .366.299.667.666.667h4.666c.367 0 .668-.301.668-.667v-3.333c0-.366-.301-.666-.668-.666z" fill="url(#c)"/><path d="m49.666 36.998h-4.666c-.367 0-.666.3-.666.666v3.333c0 .366.299.667.666.667h4.666c.367 0 .668-.301.668-.667v-3.333c0-.366-.301-.666-.668-.666z" fill="url(#d)"/><path d="m57.666 36.998h-4.666c-.367 0-.666.3-.666.666v3.333c0 .366.299.667.666.667h4.666c.367 0 .668-.301.668-.667v-3.333c0-.366-.301-.666-.668-.666z" fill="url(#e)"/><path d="m35.666 38.332h23.334v.332h-23.334z" fill="#ffe12c"/><path d="m33 35.664h-6.666c-.367 0-.668.301-.668.668v15.332h8v-15.332c0-.367-.301-.668-.666-.668z" fill="#f9b700"/><path d="m32.334 36.332h-5.334c-.367 0-.666.3-.666.666v14.666h6.666v-14.666c0-.366-.301-.666-.666-.666z" fill="#ffe12c"/><path d="m27.666 38.332v4.665c0 .367.301.667.668.667h2.666c.366 0 .666-.3.666-.667v-4.665c0-.367-.3-.668-.666-.668h-2.666c-.367 0-.668.301-.668.668z" fill="url(#f)"/><path d="m34 54.329h16v2.667h-16z" fill="#1a1626"/><circle cx="36.666" cy="55.667" fill="#3a454d" r="3.333"/><circle cx="36.668" cy="55.666" fill="#302c3b" r="2.666"/><circle cx="36.668" cy="55.666" fill="#4e5e67" r="1.334"/><circle cx="27.334" cy="55.667" fill="#3a454d" r="3.333"/><circle cx="27.334" cy="55.666" fill="#302c3b" r="2.666"/><circle cx="27.332" cy="55.666" fill="#4e5e67" r="1.334"/><path d="m33.166 57.912h-2.329l-.834-3.603h3.994z" fill="#6e8189"/><path d="m36.668 55h-9.336c-.888 0-.888 1.332 0 1.332h9.336c.887 0 .887-1.332 0-1.332z" fill="#4e5e67"/><circle cx="56.666" cy="55.667" fill="#3a454d" r="3.333"/><circle cx="56.668" cy="55.666" fill="#302c3b" r="2.666"/><circle cx="56.668" cy="55.666" fill="#4e5e67" r="1.334"/><circle cx="47.334" cy="55.667" fill="#3a454d" r="3.333"/><circle cx="47.334" cy="55.666" fill="#302c3b" r="2.666"/><circle cx="47.332" cy="55.666" fill="#4e5e67" r="1.334"/><path d="m53.166 57.912h-2.329l-.834-3.603h3.994z" fill="#6e8189"/><path d="m56.668 55h-9.336c-.888 0-.888 1.332 0 1.332h9.336c.887 0 .887-1.332 0-1.332z" fill="#4e5e67"/><path d="m22 51.664h40v1.999h-40z" fill="#529320"/><path d="m22.666 53.663h38.668v1.333h-38.668z" fill="#302c3b"/><g fill="#99a8ae"><path d="m60 50.33h2v3.333h-2z"/><path d="m22 50.33h2v3.333h-2z"/></g></svg>