<svg enable-background="new 0 0 64 64" height="64" viewBox="0 0 64 64" width="64" xmlns="http://www.w3.org/2000/svg" xmlns:xlink="http://www.w3.org/1999/xlink"><linearGradient id="a" gradientUnits="userSpaceOnUse" x1="31.9775" x2="31.9775" y1="50.3223" y2="23.0005"><stop offset="0" stop-color="#009af7"/><stop offset=".1209" stop-color="#0da3f4"/><stop offset=".4955" stop-color="#30baec"/><stop offset=".8019" stop-color="#46c9e8"/><stop offset="1" stop-color="#4ecee6"/></linearGradient><linearGradient id="b"><stop offset="0" stop-color="#302c3b"/><stop offset=".2926" stop-color="#454754"/><stop offset=".7557" stop-color="#636d78"/><stop offset="1" stop-color="#6e7b85"/></linearGradient><linearGradient id="c" gradientUnits="userSpaceOnUse" x1="20.8936" x2="20.8936" xlink:href="#b" y1="34.9639" y2="24.2944"/><linearGradient id="d" gradientUnits="userSpaceOnUse" x1="37.1699" x2="37.1699" xlink:href="#b" y1="34.9639" y2="24.2939"/><linearGradient id="e" gradientUnits="userSpaceOnUse" x1="58.6211" x2="58.6211" xlink:href="#b" y1="33.4043" y2="25.3003"/><linearGradient id="f" gradientUnits="userSpaceOnUse" x1="32.0005" x2="32.0005" y1="54.001" y2="44.5293"><stop offset="0" stop-color="#302c3b"/><stop offset=".2143" stop-color="#33303f"/><stop offset=".4462" stop-color="#3e3d4b"/><stop offset=".6865" stop-color="#4f5360"/><stop offset=".931" stop-color="#66717c"/><stop offset="1" stop-color="#6e7b85"/></linearGradient><linearGradient id="g"><stop offset=".4909" stop-color="#5b666e"/><stop offset=".6437" stop-color="#525a64"/><stop offset=".9181" stop-color="#3c3b49"/><stop offset="1" stop-color="#343040"/></linearGradient><radialGradient id="h" cx="4.4175" cy="96.3027" gradientTransform="matrix(1.1526 0 0 1.1527 45.4398 -56.0069)" gradientUnits="userSpaceOnUse" r="6.0728" xlink:href="#g"/><radialGradient id="i" cx="-26.6353" cy="96.3027" gradientTransform="matrix(1.1526 0 0 1.1527 45.4398 -56.0069)" gradientUnits="userSpaceOnUse" r="6.0728" xlink:href="#g"/><path d="m51.221 20h-16.487c-4.542 0-6 5-6 5h2.583s.459-3 3.417-3h16.486c2.958 0 3.417 3 3.417 3h2.583c.001 0-1.457-5-5.999-5z" fill="#302c3b"/><path d="m4.003 50.322s-2.051-5.022-1.61-6.08c.287-.689 1.704-2.218 1.704-2.961.985-1.327.756-1.391 0-3.013 0-1.522 5.36-3.126 11-3.602 5.006-3.005 9.143-8.217 11.594-10.373.088-.077.448-.275.544-.299 6.716-1.579 26.608-1.147 32.256.375.217.058.13.74-.094.754-.711.033-2.287.334-2.266.88.069 1.743.6 5.267 3.482 7.653.514 1.979 1.378 8.599.841 11.516.092 3.285-3.081 5.149-3.081 5.149h-54.37z" fill="url(#a)"/><path d="m35.652 48.673.699-13.974-.25-.011-.7 13.985z" fill="#018bc9"/><path d="m49.375 45.769-.249-.023c.803-8.262-1.66-12.376-1.685-12.417l.213-.131c.026.04 2.532 4.227 1.721 12.571z" fill="#018bc9"/><path d="m19.014 46.369-.248-.033c.097-.745.185-1.431.266-2.063.843-6.571.951-7.416 3.11-10.07l.194.158c-2.114 2.598-2.204 3.294-3.057 9.944-.081.633-.169 1.318-.265 2.064z" fill="#018bc9"/><path d="m15.097 34.667s2.32.658 3.44.015c1.123-.646 4.185-6.227 8.153-10.388-3.358 2.104-7.85 6.492-11.593 10.373z" fill="url(#c)"/><path d="m26.953 25.86c-3.602 4.662-5.695 9.104-5.298 9.104h30.197c2.349 0-.748-10.158-.748-10.158s-9.668-1.418-23.168.465c-.459.065-.72.25-.983.589z" fill="url(#d)"/><path d="m58.249 25.3s-1.335.076-1.324.469c.112 4.091.244 5.861 3.393 7.636-.397-2.583-1.694-7.332-2.069-8.105z" fill="url(#e)"/><path d="m36.247 24.456-1.631 10.508h3.174l.598-10.608z" fill="#1a1626"/><path d="m45.884 24.38.187 10.584h2.386l-1.005-10.5z" fill="#1a1626"/><path d="m61.454 45.173c-2.077-.071-2.069 1.505-2.749 2.439-.422-.816-.936-1.509-1.568-1.902-2.524-1.574-10.689-1.574-13.214 0-.801.498-1.414 1.469-1.884 2.572-5.934 0-12.745 0-18.809 0-.47-1.104-1.084-2.073-1.884-2.572-2.525-1.574-10.689-1.574-13.214 0-.796.495-1.406 1.456-1.875 2.549-2.086-.24-1.06-3.185-3.883-3.086-1.492 5.058 1.903 4.867 2.61 7.94.558.431 1.037.888 1.754.888h51.791c.716 0 1.187-.457 1.744-.888.707-3.073 2.673-2.883 1.181-7.94z" fill="url(#f)"/><path d="m58.53 54.001h-15.937s.936-4.92 2.924-6.128c1.916-1.163 8.111-1.163 10.026 0 1.988 1.208 2.987 6.128 2.987 6.128z" fill="#1a1626"/><path d="m57.53 55c0 3.87-3.131 7-7 7-3.862 0-7-3.13-7-7 0-3.869 3.138-6.999 7-6.999 3.869 0 7 3.13 7 6.999z" fill="url(#h)"/><path d="m55.37 55c0 2.666-2.167 4.84-4.84 4.84s-4.84-2.174-4.84-4.84c0-2.68 2.167-4.84 4.84-4.84s4.84 2.16 4.84 4.84z" fill="#e6ebef"/><g fill="#4e5e67"><path d="m54.058 56.19c.13-.369.198-.766.198-1.19s-.068-.82-.198-1.189l-2.072 1.189z"/><path d="m51.255 53.742 2.071-1.202c-.526-.603-1.251-1.026-2.071-1.19z"/><path d="m47.003 53.798c-.13.382-.198.778-.198 1.202 0 .425.068.821.198 1.19l2.071-1.19z"/><path d="m51.255 56.258v2.393c.827-.163 1.545-.587 2.078-1.189z"/><path d="m49.806 53.742v-2.392c-.827.164-1.545.588-2.078 1.19z"/><path d="m49.806 56.258-2.078 1.203c.533.603 1.251 1.026 2.078 1.189z"/><path d="m51.405 55c0 .479-.396.875-.875.875-.485 0-.875-.396-.875-.875 0-.478.39-.875.875-.875.479 0 .875.397.875.875z"/></g><path d="m25.745 36.046v-2.506c.001-1.055-4.557-.193-4.556.7l-.001 1.787c0 .375 4.557.889 4.557.019z" fill="#018bc9"/><path d="m22.668 54.001h-15.929s.998-4.92 2.986-6.129c1.915-1.162 8.112-1.162 10.026 0 1.99 1.209 2.917 6.129 2.917 6.129z" fill="#1a1626"/><circle cx="14.739" cy="55" fill="url(#i)" r="7"/><circle cx="14.739" cy="55" fill="#e6ebef" r="4.842"/><path d="m18.268 56.197c.127-.376.2-.78.2-1.197 0-.421-.073-.82-.2-1.197l-2.075 1.197z" fill="#4e5e67"/><path d="m15.466 53.739 2.074-1.195c-.531-.605-1.254-1.037-2.074-1.201z" fill="#4e5e67"/><path d="m11.21 53.801c-.127.379-.199.778-.199 1.199 0 .417.072.821.199 1.196l2.077-1.196z" fill="#4e5e67"/><path d="m15.466 56.259v2.397c.821-.163 1.543-.594 2.074-1.198z" fill="#4e5e67"/><path d="m14.013 53.739v-2.396c-.82.164-1.543.596-2.074 1.201z" fill="#4e5e67"/><path d="m14.013 56.261-2.074 1.197c.532.604 1.254 1.035 2.074 1.198z" fill="#4e5e67"/><circle cx="14.739" cy="54.999" fill="#4e5e67" r=".875"/><path d="m34.6 36.984c0-.475 0-.862-1.538-.862h-1.613c-1.54 0-1.54.388-1.54.862-.001.287 4.691.287 4.691 0z" fill="#cfd8dd"/><path d="m60.613 35.975c.141.659.842 5.504-.238 5.499-.313-.001-2.654-3.347-1.826-5.437.221-.556 1.988-.422 2.064-.062z" fill="#900"/><path d="m47.441 36.983c0-.474 0-.861-1.538-.861h-1.612c-1.54 0-1.54.388-1.54.861 0 .287 4.69.287 4.69 0z" fill="#cfd8dd"/><path d="m4.097 38.269h3.385v3.013h-3.385z" fill="#e6ebef"/><path d="m8.468 38.269h-.987v3.013h2.199c.001-.001-.076-2.467-1.212-3.013z" fill="#f59e01"/></svg>