<svg enable-background="new 0 0 64 64" height="64" viewBox="0 0 64 64" width="64" xmlns="http://www.w3.org/2000/svg" xmlns:xlink="http://www.w3.org/1999/xlink"><linearGradient id="a" gradientUnits="userSpaceOnUse" x1="42.5" x2="42.5" y1="48.5" y2="19.5005"><stop offset="0" stop-color="#cfd8dd"/><stop offset=".0487" stop-color="#d3dbe0"/><stop offset=".2945" stop-color="#e1e7eb"/><stop offset=".503" stop-color="#e6ebef"/></linearGradient><linearGradient id="b" gradientUnits="userSpaceOnUse" x1="12" x2="12" y1="56.999" y2="27.1421"><stop offset="0" stop-color="#77b516"/><stop offset=".9753" stop-color="#99d334"/><stop offset="1" stop-color="#9ad435"/></linearGradient><linearGradient id="c" gradientUnits="userSpaceOnUse" x1="9.3394" x2="9.3394" y1="42.6377" y2="36.8291"><stop offset="0" stop-color="#302c3b"/><stop offset=".2926" stop-color="#454754"/><stop offset=".7557" stop-color="#636d78"/><stop offset="1" stop-color="#6e7b85"/></linearGradient><linearGradient id="d"><stop offset=".4909" stop-color="#5b666e"/><stop offset=".6437" stop-color="#525a64"/><stop offset=".9181" stop-color="#3c3b49"/><stop offset="1" stop-color="#343040"/></linearGradient><radialGradient id="e" cx="14" cy="57" gradientUnits="userSpaceOnUse" r="5" xlink:href="#d"/><radialGradient id="f" cx="55" cy="57" gradientUnits="userSpaceOnUse" r="5" xlink:href="#d"/><radialGradient id="g" cx="41.6875" cy="57" gradientUnits="userSpaceOnUse" r="5" xlink:href="#d"/><path d="m62 18.5c0-.275-.225-.5-.5-.5h-38c-.275 0-.5.225-.5.5v32.5h39z" fill="#99a8ae"/><path d="m24.5 19.5h36v29h-36z" fill="url(#a)"/><path d="m51.375 19.5h.5v29h-.5z" fill="#cfd8dd"/><path d="m42.25 19.5h.5v29h-.5z" fill="#cfd8dd"/><path d="m33.125 19.5h.5v29h-.5z" fill="#cfd8dd"/><path d="m27.313 47.146h3v.5h-3z" fill="#e81c27"/><path d="m36.438 47.146h3v.5h-3z" fill="#e81c27"/><path d="m45.563 47.146h3v.5h-3z" fill="#e81c27"/><path d="m54.688 47.146h3v.5h-3z" fill="#e81c27"/><path d="m16.599 50v7h44.401c.55 0 1-.45 1-1v-6z" fill="#77b516"/><path d="m11.537 31.233c.456-1.065 3.723-4.785 5.437-5.594 1.393-.657 5.026-1.64 5.026-1.64v4.041s-10.979 4.398-10.463 3.193z" fill="#77b516"/><path d="m3.218 56.999h18.782v-29.857s-7.306 2.21-11.211 3.502c-.717.237-1.803.505-2.479 1.742-1.752 3.208-6.31 11.755-6.31 14.896v8.33c0 1.033.502 1.387 1.218 1.387z" fill="url(#b)"/><path d="m8.104 36.829c-.372 0-.777.291-.901.648l-1.843 4.573c-.124.356.077.62.447.585l6.874-.608c.37-.035.673-.373.673-.751v-3.76c0-.378-.305-.687-.676-.687z" fill="url(#c)"/><path d="m19.393 52.854.135-.001-.171-16.314-.677-6.154-.134.016.676 6.146.106 7.665h-5.204v-7.333c0-.417-.334-.757-.743-.757h-5.611c-.397 0-.852.3-1.014.668l-2.356 5.376c-.155.354-.281.957-.281 1.344v7.737c0 .418.334.758.743.758h4.53c.388 0 .934-.219 1.218-.486l2.997-2.824c.285-.269.518-.809.518-1.204v-3.14h5.206zm-5.404-5.365c0 .355-.218.861-.475 1.104l-2.997 2.824c-.258.243-.774.449-1.126.449h-4.53c-.335 0-.607-.278-.607-.62v-7.737c0-.371.12-.947.27-1.287l2.355-5.376c.14-.318.547-.586.891-.586h5.611c.335 0 .608.276.608.618z" fill="#77b516"/><path d="m13.795 31.285c-.063.7 5.314.184 5.55-.079.237-.265.276-2.32-.459-2.178-4.835.941-4.99 1.13-5.091 2.257z" fill="#302c3b"/><path d="m3.004 48.881h.715v2.958h-.715z" fill="#f59e01"/><path d="m2 48.881h1.004v2.958h-1.004z" fill="#e6ebef"/><path d="m13.181 44.097c0-.227 0-.411-.724-.411h-.759c-.726 0-.726.185-.726.411.001.137 2.209.137 2.209 0z" fill="#cfd8dd"/><path d="m14 48.999c-4.418 0-8 3.581-8 8h16c0-4.419-3.582-8-8-8z" fill="#89cc14"/><path d="m14 50.999c-3.313 0-6 2.686-6 6h12c0-3.314-2.687-6-6-6z" fill="#1a1626"/><circle cx="13.999" cy="57" fill="url(#e)" r="5"/><path d="m17 57c-.002 1.656-1.344 2.998-3.001 2.999-1.657 0-2.999-1.343-2.999-2.999 0-1.657 1.343-3.001 2.999-3.001 1.658 0 3.001 1.344 3.001 3.001z" fill="#99a8ae"/><circle cx="13.999" cy="56.999" fill="#e6ebef" r="2.571"/><path d="m14.271 55.082c0 .359-.543.359-.543 0 0-.361.543-.361.543 0z" fill="#4e5e67"/><path d="m14.271 58.915c0 .363-.543.363-.543 0 0-.357.543-.357.543 0z" fill="#4e5e67"/><path d="m15.795 56.271c-.312.182-.579-.284-.268-.465.308-.178.577.288.268.465z" fill="#4e5e67"/><path d="m12.473 58.19c-.308.178-.577-.287-.268-.465.31-.179.579.286.268.465z" fill="#4e5e67"/><path d="m15.523 58.19c-.307-.18-.04-.645.271-.465.31.178.04.643-.271.465z" fill="#4e5e67"/><path d="m12.205 56.271c-.311-.178-.04-.642.268-.463.31.179.042.644-.268.463z" fill="#4e5e67"/><circle cx="13.999" cy="56.999" fill="#99a8ae" r="1.5"/><path d="m15.199 56.999c0 .663-.541 1.2-1.203 1.2-.661 0-1.196-.537-1.196-1.2s.535-1.199 1.196-1.199c.662 0 1.203.536 1.203 1.199z" fill="#e6ebef"/><path d="m55 50.999c-3.313 0-6 2.686-6 6h12c0-3.314-2.687-6-6-6z" fill="#1a1626"/><circle cx="55" cy="57" fill="url(#f)" r="5"/><path d="m58 57c-.001 1.657-1.344 2.998-3 2.999-1.657 0-3-1.342-3-2.999 0-1.658 1.344-3.001 3-3.001 1.657 0 3 1.343 3 3.001z" fill="#e6ebef"/><circle cx="55" cy="57" fill="#99a8ae" r="2.455"/><path d="m55.238 55.315c0 .315-.478.315-.478 0 .001-.318.478-.318.478 0z" fill="#4e5e67"/><path d="m55.238 58.683c0 .319-.478.319-.478 0 .001-.315.478-.315.478 0z" fill="#4e5e67"/><path d="m56.578 56.36c-.274.159-.51-.251-.236-.408.271-.158.508.252.236.408z" fill="#4e5e67"/><path d="m53.659 58.046c-.271.157-.508-.252-.236-.408.272-.159.51.251.236.408z" fill="#4e5e67"/><path d="m56.339 58.046c-.27-.157-.035-.566.237-.408.273.156.035.565-.237.408z" fill="#4e5e67"/><path d="m53.423 56.36c-.272-.156-.035-.564.236-.407.273.156.036.566-.236.407z" fill="#4e5e67"/><circle cx="54.999" cy="56.999" fill="#4e5e67" r=".692"/><path d="m41.688 50.999c-3.313 0-6 2.686-6 6h12c0-3.314-2.687-6-6-6z" fill="#1a1626"/><circle cx="41.687" cy="57" fill="url(#g)" r="5"/><path d="m44.688 57c-.002 1.657-1.344 2.998-3.001 2.999-1.657 0-2.999-1.342-2.999-2.999 0-1.658 1.344-3.001 2.999-3.001 1.658 0 3.001 1.343 3.001 3.001z" fill="#e6ebef"/><circle cx="41.687" cy="57" fill="#99a8ae" r="2.455"/><g fill="#4e5e67"><path d="m41.926 55.315c0 .315-.478.315-.478 0 0-.318.478-.318.478 0z"/><path d="m41.926 58.683c0 .319-.478.319-.478 0 0-.315.478-.315.478 0z"/><path d="m43.265 56.36c-.273.159-.509-.251-.235-.408.27-.158.506.252.235.408z"/><path d="m40.346 58.046c-.271.157-.507-.252-.235-.408.272-.159.508.251.235.408z"/><path d="m43.026 58.046c-.271-.157-.035-.566.237-.408.272.156.036.565-.237.408z"/><path d="m40.11 56.36c-.272-.156-.035-.564.235-.407.273.156.038.566-.235.407z"/><circle cx="41.686" cy="56.999" r=".692"/><path d="m6.897 34.89v1.94l.734.459s0-1.57 0-2.399c.001-.573-.734-.571-.734 0z"/></g><path d="m6.897 40.768c0 .157.112.286.25.286h1.252c.137 0 .25-.129.25-.286v-3.651c0-.156-.113-.286-.25-.286h-1.502z" fill="#1a1626"/></svg>