<svg enable-background="new 0 0 64 64" height="64" viewBox="0 0 64 64" width="64" xmlns="http://www.w3.org/2000/svg" xmlns:xlink="http://www.w3.org/1999/xlink"><linearGradient id="a" gradientUnits="userSpaceOnUse" x1="32.0005" x2="32.0005" y1="54.9277" y2="23.9946"><stop offset=".1" stop-color="#302c3b"/><stop offset=".1017" stop-color="#302d3c"/><stop offset=".195" stop-color="#474956"/><stop offset=".2946" stop-color="#585f6b"/><stop offset=".4034" stop-color="#646f7a"/><stop offset=".5275" stop-color="#6c7882"/><stop offset=".7" stop-color="#6e7b85"/></linearGradient><linearGradient id="b" gradientUnits="userSpaceOnUse" x1="35.2461" x2="35.2461" y1="53.5566" y2="36.9863"><stop offset="0" stop-color="#cfd8dd"/><stop offset=".0487" stop-color="#d3dbe0"/><stop offset=".2945" stop-color="#e1e7eb"/><stop offset=".503" stop-color="#e6ebef"/></linearGradient><linearGradient id="c" gradientUnits="userSpaceOnUse" x1="35.8076" x2="35.8076" y1="36.9863" y2="25.9614"><stop offset="0" stop-color="#302c3b"/><stop offset=".2926" stop-color="#454754"/><stop offset=".7557" stop-color="#636d78"/><stop offset="1" stop-color="#6e7b85"/></linearGradient><linearGradient id="d"><stop offset=".4909" stop-color="#5b666e"/><stop offset=".6437" stop-color="#525a64"/><stop offset=".9181" stop-color="#3c3b49"/><stop offset="1" stop-color="#343040"/></linearGradient><radialGradient id="e" cx="50.12788524" cy="55.0003276" gradientUnits="userSpaceOnUse" r="6.99997032" xlink:href="#d"/><radialGradient id="f" cx="15.07939392" cy="55.0003276" gradientUnits="userSpaceOnUse" r="6.99997032" xlink:href="#d"/><path d="m38.762 23.235v-.452h-4.224v.452h-1.129v1.757h6.482v-1.757z" fill="#302c3b"/><path d="m39.461 22.809h-5.623c-.933 0-.933-1.809 0-1.809h5.623c.935 0 .935 1.809 0 1.809z" fill="#e81c27"/><path d="m34.965 21.238h.585v1.332h-.585z" fill="#f89987"/><path d="m37.751 21.238h.585v1.332h-.585z" fill="#f89987"/><path d="m56.785 56c-5.927 0-40.805 0-46.611 0-7.735 0-8.174-3.069-8.174-3.069h59.299s-.755 3.069-4.514 3.069z" fill="#4e5e67"/><path d="m61.44 44.355v-1.053-3.249s.074-1.667-1.082-2.361c-.935-.562-4.273-.321-4.857-1.241-1.286-2.026-7.429-12.457-14.484-12.457 0 0-7.251 0-8.946 0-5.858 0-15.27 12.457-15.27 12.457-11.101 2.451-13.81 5.822-13.81 5.822 1.209.979 0 2.125 0 2.125 0 .776-.991 1.756-.991 2.787v5.746s.916 1.997 4.08 1.997h52.254c5.617 0 3.106-10.573 3.106-10.573z" fill="url(#a)"/><path d="m51.512 53.557h-32.53v-16.57h32.53z" fill="url(#b)"/><path d="m61.44 40.054h-2.775l-.747 3.249h3.522z" fill="#e81c27"/><path d="m20.431 35.383c-.657.882-.291 1.604.813 1.604h30.269s-4.932-11.025-11.389-11.025h-8.66c-3.78-.001-11.032 9.42-11.033 9.421z" fill="url(#c)"/><path d="m37.634 25.961h-1.81l-.418 11.025h2.569z" fill="#1a1626"/><path d="m31.463 26.461h8.66c5.137 0 9.611 8.137 10.814 10.525h.574s-4.932-11.025-11.389-11.025h-8.66c-3.447 0-9.769 7.819-10.854 9.195h.637c2.614-3.283 7.591-8.695 10.218-8.695z" fill="#1a1626"/><path d="m58.127 54.928c0-4.423-3.577-8.002-8-8.002-4.413-.002-7.996 3.586-8 8.002z" fill="#1a1626"/><circle cx="50.127" cy="55" fill="url(#e)" r="7"/><circle cx="50.128" cy="55" fill="#e6ebef" r="4.841"/><g fill="#4e5e67"><path d="m53.657 56.198c.128-.377.2-.779.2-1.198s-.072-.821-.2-1.197l-2.076 1.197z"/><path d="m50.854 53.74 2.073-1.196c-.531-.605-1.253-1.038-2.073-1.201z"/><path d="m46.6 53.802c-.127.377-.2.779-.2 1.198s.073.821.2 1.197l2.076-1.197z"/><path d="m50.854 56.259v2.398c.822-.163 1.542-.596 2.075-1.201z"/><path d="m49.4 53.741v-2.398c-.82.163-1.543.596-2.073 1.201z"/><path d="m49.4 56.26-2.073 1.196c.533.605 1.253 1.038 2.073 1.201z"/></g><circle cx="50.127" cy="55" fill="#cfd8dd" r="1.903"/><circle cx="50.128" cy="55" fill="#e6ebef" r=".632"/><path d="m50.4 53.861c0 .361-.544.361-.544 0s.544-.361.544 0z" fill="#4e5e67"/><path d="m50.4 56.139c0 .361-.544.361-.544 0s.544-.362.544 0z" fill="#4e5e67"/><path d="m51.251 54.665c-.314.183-.586-.288-.271-.47.312-.18.583.29.271.47z" fill="#4e5e67"/><path d="m49.277 55.805c-.313.181-.583-.29-.271-.471.314-.182.586.289.271.471z" fill="#4e5e67"/><path d="m50.978 55.805c-.313-.182-.041-.652.273-.471.312.181.041.651-.273.471z" fill="#4e5e67"/><path d="m49.006 54.665c-.314-.18-.041-.65.271-.47.315.182.043.653-.271.47z" fill="#4e5e67"/><path d="m23.079 54.928c0-4.423-3.578-8.002-8.001-8.002-4.413-.002-7.995 3.586-7.999 8.002z" fill="#1a1626"/><circle cx="15.079" cy="55" fill="url(#f)" r="7"/><circle cx="15.08" cy="55" fill="#e6ebef" r="4.841"/><path d="m18.608 56.199c.128-.378.201-.779.201-1.199s-.073-.821-.201-1.197l-2.075 1.197z" fill="#4e5e67"/><path d="m15.805 53.74 2.074-1.197c-.531-.604-1.254-1.037-2.074-1.201z" fill="#4e5e67"/><path d="m11.551 53.801c-.128.378-.2.779-.2 1.199s.072.821.2 1.198l2.076-1.198z" fill="#4e5e67"/><path d="m15.805 56.259v2.399c.823-.163 1.543-.597 2.076-1.201z" fill="#4e5e67"/><path d="m14.352 53.741v-2.399c-.82.164-1.543.597-2.074 1.201z" fill="#4e5e67"/><path d="m14.352 56.26-2.074 1.197c.533.604 1.254 1.038 2.074 1.201z" fill="#4e5e67"/><circle cx="15.079" cy="55" fill="#cfd8dd" r="1.902"/><circle cx="15.08" cy="55" fill="#e6ebef" r=".632"/><path d="m15.352 53.862c0 .36-.545.36-.545 0 0-.363.545-.363.545 0z" fill="#4e5e67"/><path d="m15.352 56.138c0 .363-.545.363-.545 0 0-.361.545-.361.545 0z" fill="#4e5e67"/><path d="m16.202 54.666c-.314.182-.585-.289-.271-.471.312-.18.583.289.271.471z" fill="#4e5e67"/><path d="m14.229 55.805c-.313.181-.584-.289-.271-.471.314-.182.585.29.271.471z" fill="#4e5e67"/><path d="m15.928 55.805c-.312-.181-.041-.652.273-.471.313.182.042.651-.273.471z" fill="#4e5e67"/><path d="m13.958 54.666c-.314-.182-.041-.651.271-.471.314.182.043.653-.271.471z" fill="#4e5e67"/><path d="m36.565 25.961h.251v27.471h-.251z" fill="#1a1626" opacity=".1"/><path d="m2.991 42.273h3.298v2.125h-3.298z" fill="#e6ebef"/><path d="m7.278 42.273h-.989v2.125h2.207s-.078-1.58-1.218-2.125z" fill="#f59e01"/><path d="m22.835 37.229v-2.438c.002-1.027-4.271-.188-4.271.681v1.738c.001.364 4.271.864 4.271.019z" fill="#4e5e67"/><path d="m34.559 39.061c0-.474 0-.859-1.217-.859h-1.274c-1.217 0-1.217.386-1.217.859 0 .285 3.708.285 3.708 0z" fill="#4e5e67"/><path d="m50.291 39.061c0-.474 0-.859-1.215-.859h-1.276c-1.217 0-1.217.386-1.217.859 0 .285 3.708.285 3.708 0z" fill="#4e5e67"/><path d="m31.208 43.925 1.496-2.511h-2.991l-1.498-2.512-1.497 2.512h-2.992l1.499 2.511-1.499 2.512h2.992l1.497 2.511 1.498-2.511h2.991z" fill="#f59e01"/><path d="m61.44 44.355v-1.053s-37.731-.298-48.504.56c10.795.858 48.504.493 48.504.493z" fill="#1a1626" opacity=".05"/></svg>