<svg enable-background="new 0 0 64 64" height="64" viewBox="0 0 64 64" width="64" xmlns="http://www.w3.org/2000/svg" xmlns:xlink="http://www.w3.org/1999/xlink"><linearGradient id="a" gradientUnits="userSpaceOnUse" x1="41.375" x2="41.375" y1="37" y2="18.0005"><stop offset="0" stop-color="#302c3b"/><stop offset=".2926" stop-color="#454754"/><stop offset=".7557" stop-color="#636d78"/><stop offset="1" stop-color="#6e7b85"/></linearGradient><linearGradient id="b"><stop offset="0" stop-color="#f9c802"/><stop offset="1" stop-color="#ffe600"/></linearGradient><linearGradient id="c" gradientUnits="userSpaceOnUse" x1="11.9873" x2="11.9873" xlink:href="#b" y1="53" y2="41.5859"/><linearGradient id="d" gradientUnits="userSpaceOnUse" x1="17.1875" x2="17.1875" xlink:href="#b" y1="38" y2="32.0005"/><linearGradient id="e" gradientUnits="userSpaceOnUse" x1="41.375" x2="41.375" xlink:href="#b" y1="17" y2="14"/><linearGradient id="f" gradientUnits="userSpaceOnUse" x1="48" x2="48" xlink:href="#b" y1="50" y2="34"/><path d="m36.375 15.606v-2.19h-3v2.19" fill="#302c3b"/><path d="m36.375 12.483c0-.267-.225-.483-.5-.483h-2c-.275 0-.5.217-.5.483v.933h3z" fill="#900"/><path d="m36.087 12.902-1.212-.774-1.212.774v.514h2.424z" fill="#e81c27"/><path d="m34.225 13.416h1.3c-.001-.836-1.3-.836-1.3 0z" fill="#f66257"/><path d="m50.375 15h-18c-1.65 0-3 1.35-3 3l-2 21h28l-2-21c0-1.65-1.35-3-3-3z" fill="#4e5e67"/><path d="m50.375 16h-18c-1.1 0-2 .9-2 2l-2 21h26l-2-21c0-1.1-.9-2-2-2z" fill="#302c3b"/><path d="m49.375 18h-16c-.55 0-1 .45-1 1l-2 18h22l-2-18c0-.55-.45-1-1-1z" fill="url(#a)"/><path d="m6 37v16h42l-20-16z" fill="#f9b700"/><path d="m47 37h-26v3l5 7h21z" fill="#302c3b"/><path d="m21.067 18c-.587-.394-.571 2.051 0 2.466.933.679 2.245 1.452 2.245 2.246v5.507h2s0-4.532 0-6c.001-1.496-2.624-3.132-4.245-4.219z" fill="#4e5e67"/><path d="m22.313 25.156h4v10h-4z" fill="#302c3b"/><path d="m30.25 43h5v1h-5z" fill="#ffe12c"/><path d="m30.25 49.5h5v1h-5z" fill="#ffe12c"/><path d="m30.25 56h5v1h-5z" fill="#ffe12c"/><path d="m30 41h.5v16h-.5z" fill="#4e5e67"/><path d="m35 41h.5v16h-.5z" fill="#4e5e67"/><path d="m15.072 46.024 4-9.012h1.385l-4 9.012z" fill="#302c3b"/><path d="m12.692 45.806 4-9.013h1.385l-4 9.013z" fill="#302c3b"/><path d="m10.371 40.012h-.986v-3.013h2.199s-.076 2.466-1.213 3.013z" fill="#f59e01"/><path d="m6 36.999h3.385v3.013h-3.385z" fill="#e6ebef"/><path d="m11.987 41.586c-4.358 0-8.129 2.531-9.987 6.223l1.25.649h17.475l1.25-.649c-1.86-3.692-5.627-6.223-9.988-6.223z" fill="url(#c)"/><path d="m11.987 43.013c-3.813 0-7.112 2.215-8.739 5.445h17.479c-1.627-3.23-4.924-5.445-8.74-5.445z" fill="#f9b700"/><path d="m29.375 32v5c-14 0-24.375 1-24.375 1 1.271-3.83 12.209-6 24.375-6z" fill="url(#d)"/><path d="m32.75 18h-1.5v-2.5h-1v10.25c0 .275.225.25.5.25h2c.275 0 .5-.225.5-.5v-7c0-.275-.225-.5-.5-.5z" fill="#f9b700"/><path d="m51.479 14h-20.208c-.656 0-1.896 1.27-1.896 2h3c0 .73.24 1 .896 1h16.207c.656 0 .896-.27.896-1h3c.001-.73-1.239-2-1.895-2z" fill="url(#e)"/><path d="m48 34c-6.109 0-11.395 3.548-14 8.723l14 7.277 14-7.277c-2.605-5.175-7.889-8.723-14-8.723z" fill="url(#f)"/><path d="m48 36c-5.346 0-9.971 3.104-12.25 7.633v6.367h12.25l12.25-6.367c-2.279-4.529-6.902-7.633-12.25-7.633z" fill="#f9b700"/><path d="m11.78 45.702c.028-.014-.142-.726-.541-1.115-.801-.465-3.543-.189-4.304 1.395.101.051 1.342 1.297 4.845-.28z" fill="#302c3b"/><path d="m9.294 46.212c.021-.021-.382-.633-.891-.861-.911-.164-3.394 1.031-3.567 2.78.113.014 1.706.76 4.458-1.919z" fill="#4e5e67"/><path d="m7.132 47.542c.013-.027-.575-.465-1.132-.507-.913.158-2.837 2.129-2.4 3.832.111-.025 1.863.132 3.532-3.325z" fill="#302c3b"/><path d="m5.555 49.529c.004-.029-.698-.24-1.236-.089-.804.46-1.936 2.969-.943 4.42.096-.061 1.796-.512 2.179-4.331z" fill="#4e5e67"/><path d="m4.754 51.937c-.006-.03-.738.013-1.192.338-.598.707-.802 3.452.628 4.476.069-.092 1.511-1.096.564-4.814z" fill="#302c3b"/><path d="m4.826 54.472c-.017-.025-.689.264-1.005.725-.319.869.429 3.518 2.122 3.991.035-.11 1.047-1.545-1.117-4.716z" fill="#4e5e67"/><path d="m5.762 56.829c-.024-.019-.558.483-.696 1.024-.003.926 1.607 3.159 3.361 3.025-.005-.113.455-1.809-2.665-4.049z" fill="#302c3b"/><path d="m7.448 58.725c-.029-.01-.357.645-.304 1.2.315.871 2.592 2.42 4.195 1.695-.043-.105-.193-1.855-3.891-2.895z" fill="#4e5e67"/><path d="m9.683 59.929c-.031.003-.115.729.127 1.232.593.71 3.264 1.389 4.521.159-.077-.082-.816-1.676-4.648-1.391z" fill="#302c3b"/><path d="m12.194 60.298c-.028.014.142.726.541 1.115.801.465 3.543.189 4.304-1.395-.101-.051-1.342-1.297-4.845.28z" fill="#4e5e67"/><path d="m14.681 59.788c-.021.021.382.633.891.861.911.164 3.394-1.031 3.567-2.78-.114-.014-1.706-.76-4.458 1.919z" fill="#302c3b"/><path d="m16.843 58.458c-.013.027.575.465 1.132.507.913-.158 2.837-2.129 2.4-3.832-.111.025-1.863-.132-3.532 3.325z" fill="#4e5e67"/><path d="m18.419 56.471c-.003.029.699.24 1.237.089.804-.46 1.936-2.97.943-4.42-.096.061-1.796.512-2.18 4.331z" fill="#302c3b"/><path d="m19.22 54.064c.007.029.739-.014 1.193-.34.598-.706.802-3.451-.628-4.475-.069.092-1.512 1.096-.565 4.815z" fill="#4e5e67"/><path d="m19.147 51.529c.018.024.69-.265 1.006-.726.319-.869-.429-3.518-2.122-3.991-.034.109-1.047 1.545 1.116 4.717z" fill="#302c3b"/><path d="m18.212 49.172c.025.018.559-.484.697-1.025.003-.926-1.607-3.159-3.361-3.025.005.113-.455 1.809 2.664 4.05z" fill="#4e5e67"/><path d="m16.526 47.276c.029.009.357-.646.304-1.201-.315-.871-2.592-2.42-4.195-1.695.044.105.193 1.855 3.891 2.896z" fill="#302c3b"/><path d="m14.292 46.071c.031-.003.115-.729-.127-1.232-.537-.644-2.781-1.261-4.133-.456.552 0 1.207.204 1.207.204.544.902.191 1.793 3.053 1.484z" fill="#4e5e67"/><ellipse cx="11.987" cy="53" fill="#302c3b" rx="7.522" ry="7.461"/><path d="m17.487 53.001c-.003 3.038-2.464 5.498-5.5 5.499-3.039 0-5.5-2.461-5.5-5.499 0-3.039 2.464-5.501 5.5-5.501 3.039 0 5.5 2.462 5.5 5.501z" fill="#f9b700"/><circle cx="11.987" cy="53" fill="#ffe12c" r="4.5"/><g fill="#ea8c00"><path d="m12.424 49.913c0 .577-.875.577-.875 0 0-.584.875-.584.875 0z"/><path d="m12.424 56.087c0 .584-.875.584-.875 0 0-.577.875-.577.875 0z"/><path d="m14.879 51.828c-.502.293-.933-.459-.431-.749.496-.287.929.464.431.749z"/><path d="m9.528 54.919c-.497.287-.93-.462-.432-.748.5-.291.933.459.432.748z"/><path d="m14.442 54.919c-.495-.289-.065-1.039.435-.749.498.287.065 1.036-.435.749z"/><path d="m9.097 51.828c-.5-.286-.065-1.033.431-.747.499.288.068 1.037-.431.747z"/></g><path d="m15.048 53c0 1.692-1.368 3.063-3.063 3.063-1.692 0-3.063-1.37-3.063-3.063 0-1.691 1.37-3.063 3.063-3.063 1.695.001 3.063 1.372 3.063 3.063z" fill="#f9b700"/><path d="m14.175 53c0 1.209-.987 2.188-2.193 2.188s-2.182-.979-2.182-2.188.976-2.188 2.182-2.188 2.193.979 2.193 2.188z" fill="#ffe12c"/><path d="m47.725 40.27c.037-.018-.188-.967-.721-1.486-1.066-.62-4.718-.253-5.731 1.859.134.068 1.787 1.729 6.452-.373z" fill="#302c3b"/><path d="m44.413 40.95c.029-.028-.508-.844-1.186-1.149-1.214-.219-4.52 1.375-4.75 3.707.151.018 2.272 1.013 5.936-2.558z" fill="#4e5e67"/><path d="m41.534 42.723c.018-.036-.766-.619-1.507-.675-1.216.21-3.777 2.838-3.196 5.108.148-.034 2.482.176 4.703-4.433z" fill="#302c3b"/><path d="m39.435 45.373c.005-.04-.931-.32-1.646-.119-1.07.613-2.578 3.959-1.256 5.894.127-.084 2.391-.684 2.902-5.775z" fill="#4e5e67"/><path d="m38.368 48.582c-.009-.04-.983.017-1.588.451-.796.942-1.068 4.602.836 5.967.092-.121 2.014-1.46.752-6.418z" fill="#302c3b"/><path d="m38.464 51.962c-.021-.034-.918.352-1.338.967-.426 1.158.57 4.689 2.826 5.321.045-.146 1.394-2.061-1.488-6.288z" fill="#4e5e67"/><path d="m39.71 55.105c-.032-.025-.742.645-.927 1.365-.004 1.234 2.14 4.212 4.476 4.034-.007-.151.605-2.412-3.549-5.399z" fill="#302c3b"/><path d="m41.956 57.633c-.039-.013-.477.859-.404 1.6.419 1.162 3.451 3.227 5.586 2.261-.059-.141-.257-2.475-5.182-3.861z" fill="#4e5e67"/><path d="m44.931 59.238c-.041.003-.153.973.169 1.643.79.947 4.347 1.852 6.021.213-.102-.111-1.087-2.237-6.19-1.856z" fill="#302c3b"/><path d="m48.275 59.73c-.037.018.188.967.721 1.486 1.066.62 4.718.253 5.731-1.859-.134-.068-1.787-1.729-6.452.373z" fill="#4e5e67"/><path d="m51.587 59.05c-.029.028.508.844 1.186 1.149 1.214.219 4.52-1.375 4.75-3.707-.151-.018-2.272-1.013-5.936 2.558z" fill="#302c3b"/><path d="m54.466 57.277c-.018.036.766.619 1.507.675 1.216-.21 3.777-2.838 3.196-5.108-.148.034-2.481-.176-4.703 4.433z" fill="#4e5e67"/><path d="m56.564 54.627c-.004.04.932.32 1.647.119 1.07-.613 2.578-3.959 1.256-5.894-.127.084-2.391.684-2.903 5.775z" fill="#302c3b"/><path d="m57.631 51.419c.01.039.984-.018 1.589-.452.796-.942 1.068-4.602-.836-5.967-.092.121-2.014 1.46-.753 6.419z" fill="#4e5e67"/><path d="m57.535 48.039c.022.033.919-.353 1.339-.968.426-1.158-.57-4.689-2.826-5.321-.045.146-1.394 2.061 1.487 6.289z" fill="#302c3b"/><path d="m56.289 44.896c.033.023.743-.646.928-1.367.004-1.234-2.14-4.212-4.476-4.034.007.152-.605 2.413 3.548 5.401z" fill="#4e5e67"/><path d="m54.044 42.369c.039.011.477-.861.404-1.602-.419-1.162-3.451-3.227-5.586-2.261.059.141.257 2.475 5.182 3.863z" fill="#302c3b"/><path d="m51.069 40.762c.041-.004.153-.973-.169-1.643-.716-.858-3.704-1.682-5.504-.608.735 0 1.607.272 1.607.272.726 1.203.254 2.391 4.066 1.979z" fill="#4e5e67"/><ellipse cx="48" cy="50" fill="#302c3b" rx="10.017" ry="9.947"/><path d="m55 50.001c-.004 3.864-3.135 6.996-7 6.998-3.867 0-7-3.134-7-6.998 0-3.866 3.135-7 7-7 3.867 0 7 3.134 7 7z" fill="#f9b700"/><circle cx="48" cy="50" fill="#ffe12c" r="6"/><path d="m48.437 46.913c0 .577-.875.577-.875 0 0-.584.875-.584.875 0z" fill="#ea8c00"/><path d="m48.437 53.087c0 .584-.875.584-.875 0 0-.577.875-.577.875 0z" fill="#ea8c00"/><path d="m50.892 48.828c-.502.293-.933-.459-.431-.749.496-.287.929.464.431.749z" fill="#ea8c00"/><path d="m45.541 51.919c-.497.287-.93-.462-.432-.748.499-.291.933.459.432.748z" fill="#ea8c00"/><path d="m50.455 51.919c-.495-.289-.065-1.039.435-.749.498.287.065 1.036-.435.749z" fill="#ea8c00"/><path d="m45.109 48.828c-.5-.286-.065-1.033.431-.747.5.288.068 1.037-.431.747z" fill="#ea8c00"/><path d="m51.061 50c0 1.692-1.368 3.063-3.063 3.063-1.692 0-3.063-1.37-3.063-3.063 0-1.691 1.37-3.063 3.063-3.063 1.694.001 3.063 1.372 3.063 3.063z" fill="#f9b700"/><path d="m50.188 50c0 1.209-.987 2.188-2.193 2.188s-2.182-.979-2.182-2.188.976-2.188 2.182-2.188 2.193.979 2.193 2.188z" fill="#ffe12c"/><circle cx="48" cy="50" fill="#ea8c00" r="1"/></svg>