<svg enable-background="new 0 0 64 64" height="64" viewBox="0 0 64 64" width="64" xmlns="http://www.w3.org/2000/svg" xmlns:xlink="http://www.w3.org/1999/xlink"><linearGradient id="a" gradientUnits="userSpaceOnUse" x1="32.0005" x2="32.0005" y1="42" y2="32.0005"><stop offset=".2667" stop-color="#99a8ae"/><stop offset=".469" stop-color="#96a4ab"/><stop offset=".65" stop-color="#8c9aa0"/><stop offset=".8228" stop-color="#7b878f"/><stop offset=".9897" stop-color="#646e77"/><stop offset="1" stop-color="#626c75"/></linearGradient><linearGradient id="b"><stop offset="0" stop-color="#c6cfd4"/><stop offset=".2285" stop-color="#d4dbe0"/><stop offset=".5643" stop-color="#e1e7eb"/><stop offset=".8606" stop-color="#e6ebef"/></linearGradient><linearGradient id="c" gradientUnits="userSpaceOnUse" x1="38" x2="38" xlink:href="#b" y1="34" y2="26.0005"/><linearGradient id="d" gradientUnits="userSpaceOnUse" x1="34" x2="34" xlink:href="#b" y1="28" y2="2"/><linearGradient id="e"><stop offset="0" stop-color="#302c3b"/><stop offset=".103" stop-color="#3c3c4a"/><stop offset=".325" stop-color="#525764"/><stop offset=".5489" stop-color="#626b76"/><stop offset=".7734" stop-color="#6b7781"/><stop offset="1" stop-color="#6e7b85"/></linearGradient><linearGradient id="f" gradientUnits="userSpaceOnUse" x1="39" x2="39" xlink:href="#e" y1="19" y2="4"/><linearGradient id="g" gradientUnits="userSpaceOnUse" x1="20.2476" x2="62" y1="21" y2="21"><stop offset="0" stop-color="#ff000e"/><stop offset="1" stop-color="#c40000"/></linearGradient><linearGradient id="h"><stop offset="0" stop-color="#1a1626"/><stop offset=".6185" stop-color="#3b3845"/><stop offset="1" stop-color="#4b4854"/></linearGradient><linearGradient id="i" gradientUnits="userSpaceOnUse" x1="47.5" x2="47.5" xlink:href="#h" y1="17" y2="6"/><linearGradient id="j" gradientUnits="userSpaceOnUse" x1="37" x2="37" xlink:href="#h" y1="15" y2="7.5"/><linearGradient id="k" gradientUnits="userSpaceOnUse" x1="57.5" x2="57.5" xlink:href="#h" y1="17" y2="6"/><linearGradient id="l" gradientUnits="userSpaceOnUse" x1="22.231" x2="22.231" xlink:href="#e" y1="18.4424" y2="2.1016"/><g fill="#b3c2c6"><path d="m54 38h6v24h-6z"/><path d="m4 38h6v24h-6z"/><path d="m2 26h60v8h-60z"/></g><path d="m2 32v10s13.432-5 30-5 30 5 30 5v-10z" fill="url(#a)"/><path d="m14 26c4.266 0 5 8 12 8h36v-8z" fill="url(#c)"/><path d="m38 2c-7 0-32 13.25-32 20 0 1.25 3.274 4 6 4 5.016 0 5 2 10 2h40v-26z" fill="url(#d)"/><path d="m62 19v-15h-24c-6.936 0-22 8.934-22 12.199 0 2.904 4.252 2.8 8 2.8z" fill="url(#f)"/><path d="m28.273 22h33.727v-2h-41c-3.08 0 4.086 2 7.273 2z" fill="url(#g)"/><path d="m52.375 28h.25v-26h-.25z" fill="#1a1626" opacity=".15"/><path d="m40 25.125h-6c-1.172 0-2.125-.953-2.125-2.125v-15c0-1.172.953-2.125 2.125-2.125h6c1.172 0 2.125.953 2.125 2.125v15c0 1.172-.953 2.125-2.125 2.125zm-6-19c-1.034 0-1.875.841-1.875 1.875v15c0 1.034.841 1.875 1.875 1.875h6c1.034 0 1.875-.841 1.875-1.875v-15c0-1.034-.841-1.875-1.875-1.875z" fill="#1a1626" opacity=".15"/><path d="m43 16c0 .55.45 1 1 1h7c.55 0 1-.45 1-1v-9c0-.55-.45-1-1-1h-7c-.55 0-1 .45-1 1z" fill="url(#i)"/><path d="m33.5 14c0 .55.45 1 1 1h5c.55 0 1-.45 1-1v-5.5c0-.55-.45-1-1-1h-5c-.55 0-1 .45-1 1z" fill="url(#j)"/><path d="m54 6c-.55 0-1 .45-1 1v9c0 .55.45 1 1 1h8v-11z" fill="url(#k)"/><path d="m2 39 3 2v21h-3z" fill="#cfd8dd"/><path d="m62 62h-3v-21l3-2z" fill="#cfd8dd"/><path d="m36.798 2.102c-6.795 0-23.857 7.371-29.135 16.341 13.485-11.928 29.135-16.341 29.135-16.341z" fill="url(#l)"/><path d="m56.5 27h-8c-.55 0-1 .45-1 1h10c0-.55-.45-1-1-1z" fill="#99a8ae"/></svg>