<svg enable-background="new 0 0 64 64" height="64" viewBox="0 0 64 64" width="64" xmlns="http://www.w3.org/2000/svg" xmlns:xlink="http://www.w3.org/1999/xlink"><linearGradient id="a" gradientUnits="userSpaceOnUse" x1="31.9995" x2="31.9995" y1="2" y2="62.0005"><stop offset="0" stop-color="#00abf1"/><stop offset=".2292" stop-color="#00a7ef"/><stop offset=".4667" stop-color="#009ae9"/><stop offset=".708" stop-color="#0086e0"/><stop offset=".9504" stop-color="#0069d3"/><stop offset="1" stop-color="#0062d0"/></linearGradient><path d="m62 54c0 4.4-3.6 8-8 8h-44c-4.4 0-8-3.6-8-8v-44c0-4.399 3.6-8 8-8h44c4.4 0 8 3.601 8 8z" fill="url(#a)"/><g fill="#fff"><path d="m28 38-1 10h-8l-1-10h-2v13h14v-13z"/><path d="m20 37 3-3 3 4-4 2z"/><path d="m45 23h-6-6c-1 0-2 1-2 2l-1 4-5 3 1 2 6-2 2-5 1 24h3l1-13 1 13h3l1-24 1 9h3l-1-11c0-1-1-2-2-2z"/><path d="m43 19c0 1-1 2-2 2h-4c-1 0-2-1-2-2v-4c0-1 1-2 2-2h4c1 0 2 1 2 2z"/></g></svg>