<svg enable-background="new 0 0 64 64" height="64" viewBox="0 0 64 64" width="64" xmlns="http://www.w3.org/2000/svg" xmlns:xlink="http://www.w3.org/1999/xlink"><linearGradient id="a"><stop offset=".1455" stop-color="#cfd8dd"/><stop offset=".4056" stop-color="#c3cdd2"/><stop offset=".877" stop-color="#a3b0b6"/><stop offset="1" stop-color="#99a8ae"/></linearGradient><linearGradient id="b" gradientUnits="userSpaceOnUse" x1="50" x2="50" xlink:href="#a" y1="62" y2="39"/><linearGradient id="c" gradientUnits="userSpaceOnUse" x1="14" x2="14" xlink:href="#a" y1="62" y2="39"/><radialGradient id="d" cx="32" cy="29" gradientUnits="userSpaceOnUse" r="22.5942"><stop offset="0" stop-color="#ffe600"/><stop offset="1" stop-color="#f9c802"/></radialGradient><linearGradient id="e" gradientUnits="userSpaceOnUse" x1="6" x2="22" xlink:href="#a" y1="10" y2="10"/><linearGradient id="f" gradientUnits="userSpaceOnUse" x1="42" x2="58" xlink:href="#a" y1="10" y2="10"/><linearGradient id="g"><stop offset=".2121" stop-color="#ff3b3b"/><stop offset=".4183" stop-color="#f63131"/><stop offset=".7712" stop-color="#de1615"/><stop offset="1" stop-color="#cc0100"/></linearGradient><radialGradient id="h" cx="48.75" cy="8.083" gradientUnits="userSpaceOnUse" r="6" xlink:href="#g"/><radialGradient id="i" cx="12.75" cy="8.083" gradientUnits="userSpaceOnUse" r="6" xlink:href="#g"/><path d="m44 39v22c0 .55.451 1 1 1h10c.551 0 1-.45 1-1v-22z" fill="url(#b)"/><path d="m8 39v22c0 .55.45 1 1 1h10c.55 0 1-.45 1-1v-22z" fill="url(#c)"/><path d="m2 18h60v22h-60z" fill="url(#d)"/><g fill="#1a1626"><path d="m18 18-16 16v6h4l22-22z"/><path d="m38 18-22 22h10l22-22z"/><path d="m62 18h-4l-22 22h10l16-16z"/><path d="m56 40h6v-6z"/><path d="m8 18h-6v6z"/></g><path d="m22 10c0-4.419-3.581-8-8-8s-8 3.581-8 8c0 2.025.759 3.871 2 5.28v2.72h12v-2.72c1.241-1.409 2-3.255 2-5.28z" fill="url(#e)"/><path d="m58 10c0-4.419-3.58-8-8-8-4.418 0-8 3.581-8 8 0 2.025.76 3.871 2 5.28v2.72h12v-2.72c1.242-1.409 2-3.255 2-5.28z" fill="url(#f)"/><circle cx="50" cy="10" fill="url(#h)" r="6"/><circle cx="14" cy="10" fill="url(#i)" r="6"/><path d="m15 21c0 1.333-2 1.333-2 0s2-1.333 2 0z" fill="#99a8ae"/><path d="m15 37c0 1.333-2 1.333-2 0s2-1.333 2 0z" fill="#99a8ae"/><path d="m51 21c0 1.333-2 1.333-2 0s2-1.333 2 0z" fill="#99a8ae"/><path d="m51 37c0 1.333-2 1.333-2 0s2-1.333 2 0z" fill="#99a8ae"/></svg>