<svg enable-background="new 0 0 64 64" height="64" viewBox="0 0 64 64" width="64" xmlns="http://www.w3.org/2000/svg" xmlns:xlink="http://www.w3.org/1999/xlink"><radialGradient id="a" cx="32.001" cy="29.251" gradientTransform="matrix(1 0 0 5 0 -117.0039)" gradientUnits="userSpaceOnUse" r="19.5836"><stop offset=".5212" stop-color="#cc000b"/><stop offset=".6221" stop-color="#e43139"/><stop offset=".7197" stop-color="#f75b5f"/><stop offset=".7697" stop-color="#ff6b6e"/><stop offset="1" stop-color="#b30000"/></radialGradient><radialGradient id="b" cx="32" cy="27.4409" gradientTransform="matrix(1 0 0 5 0 -109.7637)" gradientUnits="userSpaceOnUse" r="16.4986"><stop offset=".1879" stop-color="#ff000e"/><stop offset=".3109" stop-color="#ff0b17"/><stop offset=".5247" stop-color="#ff2731"/><stop offset=".8017" stop-color="#ff5559"/><stop offset="1" stop-color="#ff7a7a"/></radialGradient><radialGradient id="c" cx="32.2539" cy="30.0762" gradientTransform="matrix(1 0 0 1.5666 0 -17.0403)" gradientUnits="userSpaceOnUse" r="8.547"><stop offset=".3212" stop-color="#ff8a8a"/><stop offset=".4061" stop-color="#ff7275"/><stop offset=".6004" stop-color="#ff4149"/><stop offset=".7712" stop-color="#ff1e29"/><stop offset=".9102" stop-color="#ff0815"/><stop offset="1" stop-color="#ff000e"/></radialGradient><radialGradient id="d" cx="32.1758" cy="37.376" gradientTransform="matrix(1 0 0 5 0 -149.5039)" gradientUnits="userSpaceOnUse" r="4.1093"><stop offset="0" stop-color="#f0000d"/><stop offset=".2357" stop-color="#e8000b"/><stop offset=".6003" stop-color="#d20007"/><stop offset="1" stop-color="#b30000"/></radialGradient><linearGradient id="e"><stop offset=".2" stop-color="#fff" stop-opacity="0"/><stop offset=".5313" stop-color="#ffd9db" stop-opacity=".2071"/><stop offset=".8275" stop-color="#ffbdc1" stop-opacity=".3922"/><stop offset="1" stop-color="#ffb3b7" stop-opacity=".5"/></linearGradient><linearGradient id="f" gradientUnits="userSpaceOnUse" x1="19.6699" x2="19.6699" xlink:href="#e" y1="47.6885" y2="11.481"/><linearGradient id="g" gradientUnits="userSpaceOnUse" x1="44.3301" x2="44.3301" xlink:href="#e" y1="47.6885" y2="11.4785"/><radialGradient id="h" cx="32" cy="49.2734" gradientTransform="matrix(1 0 0 5 0 -197.0938)" gradientUnits="userSpaceOnUse" r="22.7972"><stop offset=".5212" stop-color="#f0000c"/><stop offset=".6221" stop-color="#f73139"/><stop offset=".7197" stop-color="#fd5b5f"/><stop offset=".7697" stop-color="#ff6b6e"/><stop offset="1" stop-color="#b30000"/></radialGradient><radialGradient id="i" cx="32" cy="56.0547" gradientTransform="matrix(1 0 0 5 0 -224.2188)" gradientUnits="userSpaceOnUse" r="18.5148"><stop offset="0" stop-color="#5b666e"/><stop offset=".3154" stop-color="#505861"/><stop offset=".9135" stop-color="#343240"/><stop offset="1" stop-color="#302c3b"/></radialGradient><path d="m49.512 15.084c-.316-2.724-8.912-4.084-17.509-4.084-8.6 0-17.195 1.36-17.515 4.084-1.077 11.532-2.183 20.482-3.318 32.012 6.93.541 34.73.541 41.662 0-1.136-11.53-2.241-20.48-3.32-32.012z" fill="url(#a)"/><path d="m49.89 42.42c-.812-8.774-1.606-16.465-2.387-25.874-.279-2.725-7.89-4.084-15.501-4.084-7.614 0-15.224 1.359-15.506 4.084-.779 9.409-1.574 17.1-2.386 25.874 5.08-.818 30.7-.818 35.78 0z" fill="url(#b)"/><path d="m43.729 30.073c0 15.302-22.949 15.302-22.949 0-.001-15.298 22.949-15.298 22.949 0z" fill="#b00505"/><path d="m41.179 30.073c0 11.904-17.85 11.904-17.85 0 0-11.896 17.85-11.896 17.85 0z" fill="url(#c)"/><path d="m28.434 32.93h7.484v8.893h-7.484z" fill="url(#d)"/><path d="m22.914 13.134c.035-.62.284-1.163.634-1.654-.634.075-1.25.16-1.839.257-2.018.722-3.348 1.715-3.457 2.985-.8 11.747-1.622 20.903-2.46 32.645 1.828.109 3.652.246 5.48.321.561-12.375 1.109-22.172 1.642-34.554z" fill="url(#f)"/><path d="m42.728 47.688c1.828-.075 3.654-.212 5.482-.321-.84-11.741-1.662-20.898-2.461-32.645-.109-1.275-1.439-2.266-3.456-2.988-.593-.097-1.205-.179-1.843-.256.354.493.603 1.036.638 1.656.532 12.382 1.08 22.179 1.64 34.554z" fill="url(#g)"/><path d="m39.909 30.075c0 .849-15.3.849-15.3 0s15.3-.849 15.3 0z" fill="#fff" opacity=".3"/><path d="m54.231 47.221c0-1.514-44.461-1.514-44.461 0l-.72 5.239h45.9z" fill="url(#h)"/><path d="m7.305 51.822-.805 10.178h51l-.804-10.178c0-2.283-49.391-2.283-49.391 0z" fill="url(#i)"/></svg>