<svg enable-background="new 0 0 64 64" height="64" viewBox="0 0 64 64" width="64" xmlns="http://www.w3.org/2000/svg" xmlns:xlink="http://www.w3.org/1999/xlink"><linearGradient id="a" gradientUnits="userSpaceOnUse" x1="16.9977" x2="47.0025" y1="6.0149" y2="57.9846"><stop offset="0" stop-color="#ff3b3b"/><stop offset=".2558" stop-color="#fb3737"/><stop offset=".5207" stop-color="#f02b2a"/><stop offset=".7889" stop-color="#dd1616"/><stop offset="1" stop-color="#c90100"/></linearGradient><path d="m32 2c-16.568 0-30 13.432-30 30 0 16.566 13.432 30 30 30s30-13.434 30-30c0-16.568-13.432-30-30-30zm22 30c0 4.629-1.434 8.922-3.877 12.467l-30.59-30.592c3.543-2.443 7.836-3.875 12.467-3.875 12.15 0 22 9.85 22 22zm-44 0c0-4.629 1.434-8.924 3.875-12.469l30.592 30.592c-3.543 2.443-7.838 3.877-12.467 3.877-12.15 0-22-9.852-22-22z" fill="url(#a)"/></svg>