<svg enable-background="new 0 0 64 64" height="64" viewBox="0 0 64 64" width="64" xmlns="http://www.w3.org/2000/svg" xmlns:xlink="http://www.w3.org/1999/xlink"><linearGradient id="a" gradientUnits="userSpaceOnUse" x1="18" x2="46" y1="32" y2="32"><stop offset="0" stop-color="#5b666e"/><stop offset=".0382" stop-color="#494e59"/><stop offset=".0801" stop-color="#3b3b48"/><stop offset=".1233" stop-color="#33303e"/><stop offset=".1697" stop-color="#302c3b"/></linearGradient><radialGradient id="b" cx="32" cy="13" gradientUnits="userSpaceOnUse" r="7"><stop offset=".2121" stop-color="#ff3b3b"/><stop offset=".4183" stop-color="#f63131"/><stop offset=".7712" stop-color="#de1615"/><stop offset="1" stop-color="#cc0100"/></radialGradient><radialGradient id="c" cx="32" cy="32" gradientUnits="userSpaceOnUse" r="7"><stop offset="0" stop-color="#ffe02e"/><stop offset=".2489" stop-color="#ffda29"/><stop offset=".5857" stop-color="#ffc91a"/><stop offset=".9714" stop-color="#ffac02"/><stop offset="1" stop-color="#fa0"/></radialGradient><radialGradient id="d" cx="32" cy="51" gradientUnits="userSpaceOnUse" r="7"><stop offset="0" stop-color="#9be022"/><stop offset=".2668" stop-color="#91d422"/><stop offset=".7474" stop-color="#78b423"/><stop offset="1" stop-color="#69a123"/></radialGradient><path d="m46 60c0 1.1-.9 2-2 2h-24c-1.1 0-2-.9-2-2v-56c0-1.1.9-2 2-2h24c1.1 0 2 .9 2 2z" fill="url(#a)"/><g fill="#4e5e67"><path d="m46 4v4l6-2v-2z"/><path d="m46 23v4l6-2v-2z"/><path d="m46 42v4l6-2v-2z"/><path d="m18 4v4l-6-2v-2z"/><path d="m18 23v4l-6-2v-2z"/><path d="m18 42v4l-6-2v-2z"/></g><circle cx="32" cy="13" fill="url(#b)" r="7"/><path d="m34.98 13.917 2.678 1.911-2.021-2.828 2.021-2.829-2.676 1.911-.859-1.204-1.203-.86 1.91-2.675-2.83 2.02-2.828-2.021 1.91 2.675-1.203.86-.861 1.204-2.674-1.911 2.019 2.83-2.019 2.829 2.675-1.911.859 1.204 1.205.86-1.912 2.675 2.829-2.02 2.83 2.021-1.912-2.676 1.205-.859zm-3.687-.21-.99-.707.99-.707.707-.99.707.99.99.707-.99.707-.707.99z" fill="#fff" opacity=".3"/><path d="m25.884 9.523c2.934-4.674 9.301-4.678 12.233.002.691 1.105 2.418.08 1.721-1.034-3.754-5.99-11.918-5.986-15.674-.001-.7 1.114 1.026 2.139 1.72 1.033z" fill="#4e5e67"/><circle cx="32" cy="32" fill="url(#c)" r="7"/><path d="m34.98 32.918 2.678 1.91-2.021-2.828 2.021-2.829-2.676 1.911-.859-1.204-1.203-.86 1.91-2.675-2.83 2.02-2.828-2.021 1.91 2.675-1.203.86-.861 1.204-2.674-1.911 2.019 2.83-2.019 2.828 2.675-1.91.859 1.203 1.205.859-1.912 2.676 2.829-2.019 2.83 2.021-1.912-2.676 1.205-.859zm-3.687-.211-.99-.707.99-.707.707-.99.707.99.99.707-.99.707-.707.99z" fill="#fff" opacity=".3"/><path d="m25.884 28.523c2.934-4.674 9.301-4.678 12.233.002.691 1.105 2.418.08 1.721-1.034-3.754-5.99-11.918-5.986-15.674-.001-.7 1.114 1.026 2.139 1.72 1.033z" fill="#4e5e67"/><circle cx="32" cy="51" fill="url(#d)" r="7"/><path d="m34.98 51.918 2.678 1.91-2.021-2.828 2.021-2.828-2.676 1.91-.859-1.203-1.203-.859 1.91-2.676-2.83 2.019-2.828-2.021 1.91 2.676-1.203.859-.861 1.203-2.674-1.91 2.02 2.83-2.02 2.828 2.676-1.91.859 1.203 1.203.859-1.91 2.676 2.828-2.019 2.83 2.021-1.912-2.676 1.205-.859zm-3.687-.211-.99-.707.99-.707.707-.99.707.99.99.707-.99.707-.707.99z" fill="#fff" opacity=".3"/><path d="m25.884 47.523c2.934-4.674 9.301-4.679 12.233.002.691 1.104 2.418.08 1.721-1.034-3.754-5.99-11.918-5.985-15.674-.001-.7 1.114 1.026 2.139 1.72 1.033z" fill="#4e5e67"/></svg>