<svg enable-background="new 0 0 64 64" height="64" viewBox="0 0 64 64" width="64" xmlns="http://www.w3.org/2000/svg" xmlns:xlink="http://www.w3.org/1999/xlink"><linearGradient id="a"><stop offset="0" stop-color="#5b666e"/><stop offset=".0606" stop-color="#576169"/><stop offset=".6864" stop-color="#32333c"/><stop offset="1" stop-color="#23212b"/></linearGradient><linearGradient id="b" gradientUnits="userSpaceOnUse" x1="43.0576" x2="49.0576" xlink:href="#a" y1="23.1484" y2="23.1484"/><linearGradient id="c"><stop offset=".1879" stop-color="#ff000e"/><stop offset=".324" stop-color="#f4000d"/><stop offset=".5605" stop-color="#d80009"/><stop offset=".8672" stop-color="#aa0003"/><stop offset="1" stop-color="#940000"/></linearGradient><linearGradient id="d" gradientUnits="userSpaceOnUse" x1="43.0576" x2="49.0576" xlink:href="#c" y1="25.1284" y2="25.1284"/><linearGradient id="e" gradientUnits="userSpaceOnUse" x1="33.0723" x2="39.0723" xlink:href="#a" y1="23.1484" y2="23.1484"/><linearGradient id="f" gradientUnits="userSpaceOnUse" x1="33.0723" x2="39.0723" xlink:href="#c" y1="25.1284" y2="25.1284"/><linearGradient id="g" gradientUnits="userSpaceOnUse" x1="32.0005" x2="32.0005" y1="59.4824" y2="46.1563"><stop offset="0" stop-color="#c6cfd4"/><stop offset=".183" stop-color="#cfd7db"/><stop offset=".6525" stop-color="#e0e6ea"/><stop offset="1" stop-color="#e6ebef"/></linearGradient><linearGradient id="h" gradientUnits="userSpaceOnUse" x1="5.6982" x2="60.9082" y1="57.5322" y2="57.5322"><stop offset="0" stop-color="#566169"/><stop offset=".0657" stop-color="#4d555e"/><stop offset=".1979" stop-color="#40434f"/><stop offset=".3556" stop-color="#373643"/><stop offset=".5619" stop-color="#322e3d"/><stop offset="1" stop-color="#302c3b"/></linearGradient><path d="m50.732 28.067c-.138-.526-.701-.958-1.25-.958h-17.521c-.551 0-1.158.418-1.35.928l-3.457 9.184 26.4 1.615z" fill="#cfd8dd"/><path d="m32.981 34.305h-4.729l1.883-5.001h2.846z" fill="#fff"/><path d="m31.981 33.451h-3.407l1.239-3.291h2.168z" fill="#302c3b"/><path d="m34.981 29.304h5v5h-5z" fill="#fff"/><path d="m35.82 30.16h3.324v3.292h-3.324z" fill="#302c3b"/><path d="m41.981 29.304h5v5h-5z" fill="#fff"/><path d="m42.819 30.16h3.323v3.292h-3.323z" fill="#302c3b"/><path d="m57.096 50.15s-24.57 3.723-37.482-1.951l4.302-11.428c.192-.51.8-.928 1.349-.928h27.084c.549 0 1.112.432 1.25.957z" fill="#e6ebef"/><path d="m26.695 44.496h-5.687l2.258-6h3.429z" fill="#fff"/><path d="m25.695 43.475h-4.303l1.491-3.959h2.812z" fill="#302c3b"/><path d="m28.695 38.496h6v6h-6z" fill="#fff"/><path d="m29.695 39.496h4v4h-4z" fill="#302c3b"/><path d="m36.695 38.496h6v6h-6z" fill="#fff"/><path d="m37.695 39.496h4v4h-4z" fill="#302c3b"/><path d="m44.695 38.496h6v6h-6z" fill="#fff"/><path d="m45.695 39.496h4v4h-4z" fill="#302c3b"/><path d="m61.863 13.536c-.832.11-1.316-.346-1.886.166-.365-.195-.877-.37-1.154-.042-.355-.646-1.875-.588-2.531-.016-2.484-1.47-13.094.278-13.234 5.544 2.515.629 5.556.841 6 0 1.708.156 2.156-1.305 2.156-1.305s1.594.527 2.844-.619c.493.478 2.796-.381 3.167-1.183.663.466 1.727.243 2-.662.798.276 1.284-.289 1.284-.733 1.018.118 1.821-1.213 1.354-1.15z" fill="#b3c2c6"/><path d="m61.65 6.017c-1.212.457-2.305-.215-2.807.88-.71-.235-1.415.036-1.6.711-.858-.481-1.795-.414-2.355.106-1.618-1.683-4.236-1.74-5.088-.4-.666-.385-1.697-.462-2.227.155-1.448-.911-3.314-.258-3.558 1.201-1.573-.506-3.319.282-3.511 2.163-.66.159-1.066.741-1.097 1.504-1.224-.446-3.404.561-3.021 3.266-1.456-.4-3.974 1.519-3.316 3.585 4.375.353 6 0 6 0s1.627-.875 1.964-1.455c.85.36 3.838.149 3.901-1.501.818.205 1.808-.13 2.018-.855.561.312 1.847-.097 1.938-.709 1.258 1.053 3.817.352 4.022-.86 1.123.705 3.449-.224 3.43-1.777 1.377.628 2.861-.098 2.611-1.811 1.448.252 1.778-.917 1.446-1.717 1.675-.099 1.929-2.74 1.25-2.486z" fill="#cfd8dd"/><path d="m43.058 19.188h6v7.921h-6z" fill="url(#b)"/><path d="m43.058 23.148h6v3.961h-6z" fill="url(#d)"/><path d="m33.072 19.188h6v7.921h-6z" fill="url(#e)"/><path d="m33.072 23.148h6v3.961h-6z" fill="url(#f)"/><g fill="#4e5e67"><path d="m31.49 47.146h30.51v.496h-30.51z"/><path d="m61.5 47.146h.5v1.98h-.5z"/><path d="m57.166 47.146h.5v1.98h-.5z"/><path d="m52.832 47.146h.5v1.98h-.5z"/><path d="m48.497 47.146h.5v1.98h-.5z"/><path d="m44.162 47.146h.5v1.98h-.5z"/><path d="m39.828 47.146h.5v1.98h-.5z"/><path d="m35.494 47.146h.5v1.98h-.5z"/></g><path d="m62 49.127h-28.162l-2.766-2.971h-29.072s1.097 3.314 3.699 6.91c15.04 11.74 55.209 3.777 55.209 3.777z" fill="url(#g)"/><path d="m30.523 47.146 2.766 2.971h28.57l.141-.99h-28.162l-2.766-2.971h-29.072s.124.371.381.99z" fill="#e81c27"/><path d="m22.002 62h33.998l4.908-5.156c-40.92 0-48.754.33-55.21-3.779 3.998 6.376 10.165 8.935 16.304 8.935z" fill="url(#h)"/></svg>