<svg enable-background="new 0 0 64 64" height="64" viewBox="0 0 64 64" width="64" xmlns="http://www.w3.org/2000/svg" xmlns:xlink="http://www.w3.org/1999/xlink"><radialGradient id="a" cx="31.9991" cy="31.9996" gradientUnits="userSpaceOnUse" r="26.2001"><stop offset="0" stop-color="#545061"/><stop offset=".2793" stop-color="#464253"/><stop offset=".6105" stop-color="#312d3d"/><stop offset=".7961" stop-color="#211d2d"/><stop offset=".9556" stop-color="#1a1626"/></radialGradient><linearGradient id="b" gradientUnits="userSpaceOnUse" x1="16.9977" x2="47.0025" y1="6.0149" y2="57.9847"><stop offset="0" stop-color="#ff3b3b"/><stop offset=".2558" stop-color="#fb3737"/><stop offset=".5207" stop-color="#f02b2a"/><stop offset=".7889" stop-color="#dd1616"/><stop offset="1" stop-color="#c90100"/></linearGradient><linearGradient id="c" gradientUnits="userSpaceOnUse" x1="14.7439" x2="45.1048" y1="5.0343" y2="35.3952"><stop offset=".0245" stop-color="#e6ebef"/><stop offset=".2106" stop-color="#d9e0e4"/><stop offset=".4463" stop-color="#d6dde1"/><stop offset="1" stop-color="#a2aaad"/></linearGradient><path d="m7.368 23.676c-11.1 32.841 38.163 49.489 49.262 16.648 11.1-32.842-38.161-49.49-49.262-16.648z" fill="url(#a)"/><path d="m12 32h34v8h-34z" fill="#fff"/><path d="m48 32h4v8h-4z" fill="#fff"/><path d="m32 2c-16.568 0-30 13.432-30 30 0 16.566 13.432 30 30 30s30-13.434 30-30c0-16.568-13.432-30-30-30zm24 30c0 5.546-1.886 10.648-5.046 14.712l-33.667-33.667c4.064-3.159 9.166-5.045 14.713-5.045 13.254 0 24 10.744 24 24zm-48 0c0-5.546 1.886-10.649 5.045-14.713l33.667 33.667c-4.064 3.16-9.166 5.046-14.712 5.046-13.256 0-24-10.746-24-24z" fill="url(#b)"/><path d="m30.646 11.865c-3.15 11.799 6.436-4.316 18.846 19.143-6.58-8.725-27.885-2.367-36.844-12.041-12.427-13.416 23.204-26.598 17.998-7.102z" fill="url(#c)"/></svg>