<svg enable-background="new 0 0 64 64" height="64" viewBox="0 0 64 64" width="64" xmlns="http://www.w3.org/2000/svg" xmlns:xlink="http://www.w3.org/1999/xlink"><linearGradient id="a" gradientUnits="userSpaceOnUse" x1="5.7773" x2="61.1133" y1="39.3877" y2="39.3877"><stop offset="0" stop-color="#ff3b3b"/><stop offset=".2816" stop-color="#fc3838"/><stop offset=".5284" stop-color="#f32d2d"/><stop offset=".7622" stop-color="#e31b1b"/><stop offset=".9869" stop-color="#cd0302"/><stop offset="1" stop-color="#cc0100"/></linearGradient><linearGradient id="b"><stop offset="0" stop-color="#db9442"/><stop offset=".3947" stop-color="#cf843d"/><stop offset="1" stop-color="#b86432"/></linearGradient><linearGradient id="c" gradientTransform="matrix(.7071 .7071 -.7071 .7071 193.792 -184.2116)" gradientUnits="userSpaceOnUse" x1="38.7256" x2="47.4795" xlink:href="#b" y1="290.6406" y2="290.6406"/><linearGradient id="d" gradientTransform="matrix(.7071 .7071 -.7071 .7071 193.792 -184.2116)" gradientUnits="userSpaceOnUse" x1="40.96" x2="45.25" xlink:href="#b" y1="254.5586" y2="254.5586"/><linearGradient id="e" gradientTransform="matrix(.7071 .7071 -.7071 .7071 193.792 -184.2116)" gradientUnits="userSpaceOnUse" x1="43.1035" x2="43.1035" y1="302.7051" y2="252.2568"><stop offset="0" stop-color="#f5a54a"/><stop offset=".3395" stop-color="#eb9e47"/><stop offset="1" stop-color="#db9442"/></linearGradient><path d="m11.305 17.085c.613-.032 1.383-.977 2.063-2.223-.596.118-1.244.088-1.955-.184 5.776-2.245 3.587-15.681 11.194-10.944l-1.072 3.536c-2.75-2.572.115 6.198-4.518 7.691.492-.342.646-1.211.715-2.259-1.332 2.809-3.224 5.36-6.427 4.383z" fill="#875b49"/><path d="m11.305 17.085c.613-.032 2.639-1.199 3.318-2.446-1.684.65-2.598.627-3.211.04 6.584-.93 4.445-13.101 10.402-9.026l-.279 1.617c-2.75-2.572.115 6.198-4.518 7.691 1.449-1.104 1.561-2.235 1.201-3.017-1.333 2.807-3.71 6.118-6.913 5.141z" fill="#6b4435"/><path d="m23.027 3.805c1.064.853.215 4.093-2.01 3.837-1.826-.203.6-4.975 2.01-3.837z" fill="#8e3ed6"/><path d="m28.908 18.069c-1.744-1.087-1.363 3.611-1.42 4.033 0 0-1.314-2.872-5.117-3.593 0 0 .676-1.473 1.273-3.937.788-6.913 5.264 3.497 5.264 3.497z" fill="#946346"/><path d="m35.186 7.414c.232 1.021.242 2.149-.111 3.021-.545 1.346-.021 2.146.885 3.291.861 1.086-.418 1.704-1.506 1.505-.279.28-.152.63-.152.63-1.004.604-1.188 1.77-.844 2.157 0 0-.293.09-.328.598-.105 1.452-1.066 1.729-3.07.665-3.955-2.103-3.742-5.301-3.742-5.301-1.07 1.063-3.285-1.463-2.91-4.002.61-4.218 5.285-9.631 11.778-2.564z" fill="#b88a6f"/><path d="m26.609 11.962c.184-1.029-.49-2.078-1.332-2.234 0 0 1.223 1.488.555 3.076 0 0 .648-.123.777-.842z" fill="#946346"/><path d="m31.432 11.708c.436.729 1.725 1.323 2.191 1.313 1.672-3.092-1.228-2.571-2.191-1.313z" fill="#f5f5f5"/><path d="m33.572 13.02c-1.283-.271.047-3.601.59-1.566-.01.336-.334 1.62-.59 1.566z" fill="#45332c"/><path d="m31.432 11.708c.574-1.224 2.961-1.759 2.73-.254-.207-.874-1.873-.631-2.73.254z" fill="#45332c"/><path d="m33.766 11.419c-.064.316-.516.222-.453-.095.06-.289.511-.195.453.095z" fill="#f5f5f5"/><path d="m31.457 9.626c.99-.537 2.762-.165 3.336.393.127.11-.102.583-.197.493-.65-.594-2.01-.985-3.148-.673-.128.035-.143-.14.009-.213z" fill="#423225"/><path d="m33.807 16.442c-.443.204-.127.726-.127.726.361.05.191 1.024-.223.851-1.207-.512-2.15-1.644-2.127-2.021.246.053 2.146.314 2.971-.136 0-.001.002.407-.494.58z" fill="#84401e"/><path d="m33.807 16.442-.127.726c-.318-.043-1.475-.503-2.057-1.021 0 0 1.367.427 2.184.295z" fill="#fff"/><path d="m22.121 5.708c.674-2.907 3.881-4.176 7.414-3.554 4.572.802 6.428 3.972 5.65 5.259-4.813-3.466-6.926 6.339-8.385 2.738-.734-1.803-3.223-1.335-3.129.962.094 2.318 1.416 2.918 1.416 2.918-.732.937-1.469.947-1.469.947-3.487-1.176-4.2-8.347-1.497-9.27z" fill="#875b49"/><path d="m22.121 5.708c.674-2.907 5.869-3.392 7.449-2.788-2.438-.027-5.48 1.036-5.961 1.957 2.041-.202 5.125-.867 8.416-.118-2.064-.074-4.021 1.321-8.25 1.303 0 0 2.889 1.147 6.381.347-1.08 1.022-3.658 1.725-4.889 1.873 1.305.299 2.809.41 6.223-1.101-2.342 1.484-3.674 5.479-4.689 2.971-.734-1.803-3.223-1.335-3.129.962.094 2.318 1.416 2.918 1.416 2.918-.732.937-1.469.947-1.469.947-3.488-1.177-4.201-8.348-1.498-9.271z" fill="#6b4435"/><path d="m33.582 14.54c.092.465.732.69 1.129.744.529.074 1.074-.11 1.361-.446-.134-.471-1.449.47-2.49-.298z" fill="#946346"/><path d="m12.018 35.394s8.24 2.053 11.598 1.32c.408-2.49.746-7.271 1.465-7.156 1.045.168 5.324-1.176 2.734-8.342-.938-2.594-4.756-4.611-4.756-4.611-5.438 4.187-8.582 11.555-11.041 18.789z" fill="#8e3ed6"/><path d="m14.195 45.553c16.105-3.521 31.736-8.031 46.803-13.433.334-.025.668-.051 1.002-.078-.053-.664-.105-1.328-.156-1.993-18.832 1.488-37.746 1.57-56.588.248-.09-.34-.182-.681-.271-1.021-.995-.071-1.991-.147-2.985-.225.631 8.402 7.344 14.873 12.195 16.502z" fill="#b00505"/><path d="m14.195 45.553c3.266 1.701 43.047 1.389 46.02-.621 1.342-4.948.783-12.812.783-12.812-18.381 1.404-36.834 1.476-55.221.218 2.686 9.473 8.424 13.223 8.418 13.215z" fill="url(#a)"/><path d="m60.748 36.75c-9.363 2.129-40.605 1.535-52.705 0 12.916.41 36.041 1.323 52.705 0z" fill="#b00505"/><path d="m60.178 41.438c-8.689 2.129-37.674 1.535-48.896 0 11.98.41 33.435 1.324 48.896 0z" fill="#b00505"/><path d="m20.201 45.475c-3.551 2.004-11.885 10.035-11.697 11.359.379 2.689 2.504 4.773 5.162 5.162 1.34.195 9.422-8.061 11.424-11.635 2.994-5.359 2.191-7.086 2.191-7.086s-1.765-.802-7.08 2.2z" fill="url(#c)"/><path d="m47.418 26.156-3.033-3.034c-1.057 1.057-1.74 4.774-1.74 4.774s3.716-.682 4.773-1.74z" fill="url(#d)"/><path d="m10.814 60.791s-.596-.369-1.072-1.059l35.625-35.627 1.066 1.066z" fill="url(#e)"/><path d="m41.877 27.591.713-.711c-.807-.756-1.139-.012-2.725 1.003 0 0-5.906-.559-9.75-3.321l-1.803 3.224c4.5 2.743 10.422 2.759 10.422 2.759.477.443 1.969.758 2.676.65.973-.148 2.078-1.017 1.945-1.768 1.194-1.459-1.255-1.053-1.478-1.836z" fill="#b88a6f"/><path d="m27.025 20.258c-.701-1.144-2.469-1.017-3.463-.081-.994.934-.732 2.258-.139 3.466.902 1.828 2.615 3.333 4.619 4.553l2.57-4.161c-1.366-.984-2.63-2.219-3.587-3.777z" fill="#5d1e96"/></svg>