<svg enable-background="new 0 0 64 64" height="64" viewBox="0 0 64 64" width="64" xmlns="http://www.w3.org/2000/svg" xmlns:xlink="http://www.w3.org/1999/xlink"><linearGradient id="a" gradientUnits="userSpaceOnUse" x1="32.0005" x2="32.0005" y1="61" y2="27.0005"><stop offset="0" stop-color="#f9b700"/><stop offset=".0523" stop-color="#fabe00"/><stop offset=".2457" stop-color="#fdd400"/><stop offset=".4316" stop-color="#fee100"/><stop offset=".6" stop-color="#ffe600"/></linearGradient><linearGradient id="b" gradientUnits="userSpaceOnUse" x1="32.0005" x2="32.0005" y1="51" y2="29.0005"><stop offset="0" stop-color="#302c3b"/><stop offset=".2926" stop-color="#454754"/><stop offset=".7557" stop-color="#636d78"/><stop offset="1" stop-color="#6e7b85"/></linearGradient><path d="m25.273 22.428-1.396-.862 2.903-4.279 1.397.862z" fill="#99a8ae"/><path d="m30.5 11h3v3.53h-3z" fill="#302c3b"/><path d="m25.5 22.47h13v.53h-13z" fill="#4e5e67"/><path d="m28.25 18.296h7v.53h-7z" fill="#4e5e67"/><path d="m24 27h-2l9-14h2z" fill="#302c3b"/><path d="m42 27h-2l-9-14h2z" fill="#302c3b"/><path d="m42.396 27h-20.792c0 .001-6.604 5.83-6.604 17s6.604 16.999 6.604 17h20.791c.001-.001 6.605-5.83 6.605-17s-6.604-16.999-6.604-17z" fill="url(#a)"/><path d="m47 44c0-7.391-3.118-12.427-5.232-15h-19.536c-2.114 2.573-5.232 7.609-5.232 15 0 2.637.406 4.965 1.014 7h27.973c.607-2.035 1.013-4.363 1.013-7z" fill="#1a1626"/><path d="m45 44c0-6.532-2.435-11.221-4.461-14h-17.078c-2.026 2.779-4.461 7.468-4.461 14 0 2.22.298 4.208.752 6h24.496c.454-1.792.752-3.78.752-6z" fill="url(#b)"/><path d="m23.75 27h.5v34h-.5z" fill="#f9b700"/><path d="m23 29h2v22h-2z" fill="#1a1626"/><path d="m39.75 27h.5v34h-.5z" fill="#f9b700"/><path d="m39 29h2v22h-2z" fill="#1a1626"/><g fill="#302c3b"><path d="m41.396 60h-18.792v1c0 .55.45 1 1 1h16.791c.55 0 1-.45 1-1v-1z"/><path d="m46.557 56h-1.563l1.401-3.75h1.562z"/><path d="m17.443 56h1.563l-1.401-3.75h-1.562z"/></g><path d="m21.75 26.47h3v.53h-3z" fill="#4e5e67"/><path d="m39.25 26.47h3v.53h-3z" fill="#4e5e67"/><path d="m62 16.641-60-10.579v-1.016l60 10.579z" fill="#1a1626"/><path d="m62 13.595-60-10.58v-1.015l60 10.579z" fill="#1a1626"/><path d="m25.599 8.191c-.463 2.627-4.402 1.932-3.939-.694.463-2.627 4.402-1.932 3.939.694z" fill="#6e8189"/><path d="m24.614 8.018c-.231 1.313-2.201.966-1.97-.347.232-1.314 2.202-.966 1.97.347z" fill="#4e5e67"/><path d="m29.538 8.886c-.463 2.627-4.402 1.933-3.939-.694s4.402-1.932 3.939.694z" fill="#6e8189"/><path d="m28.553 8.713c-.231 1.313-2.2.965-1.969-.348s2.2-.966 1.969.348z" fill="#4e5e67"/><path d="m27.996 8.995c-.024.136-.154.227-.29.203l-6.401-1.129c-.136-.024-.227-.154-.203-.29l.131-.738c.023-.136.154-.227.289-.203l6.401 1.129c.136.023.227.154.203.29z" fill="#b3c2c6"/><path d="m24.599 5.191h2v6h-2z" fill="#99a8ae" transform="matrix(.9849 .1733 -.1733 .9849 1.8074 -4.3133)"/><path d="m38.401 10.449c-.463 2.626 3.476 3.321 3.939.694.464-2.626-3.476-3.321-3.939-.694z" fill="#6e8189"/><path d="m39.386 10.623c-.231 1.313 1.738 1.659 1.97.347s-1.739-1.66-1.97-.347z" fill="#4e5e67"/><path d="m34.462 9.754c-.463 2.627 3.477 3.321 3.939.695.463-2.627-3.476-3.321-3.939-.695z" fill="#6e8189"/><path d="m35.447 9.928c-.231 1.313 1.737 1.66 1.969.348s-1.737-1.661-1.969-.348z" fill="#4e5e67"/><path d="m35.874 10.384c-.023.136.067.266.203.29l6.401 1.129c.135.023.266-.067.289-.203l.131-.738c.023-.136-.067-.266-.203-.29l-6.401-1.129c-.136-.023-.266.067-.29.203z" fill="#b3c2c6"/><path d="m37.401 7.449h2v6h-2z" fill="#99a8ae" transform="matrix(-.9848 -.1738 .1738 -.9848 74.4021 27.4131)"/><path d="m25.021 5.866h15v1h-15z" fill="#6e8189" transform="matrix(.9848 .1736 -.1736 .9848 1.5992 -5.5499)"/><path d="m23.979 11.774h15v1.001h-15z" fill="#6e8189" transform="matrix(.9848 .1736 -.1736 .9848 2.6093 -5.2792)"/><path d="m32.477 6.081h2v7h-2z" fill="#302c3b" transform="matrix(-.9848 -.1738 .1738 -.9848 64.7793 24.8341)"/><path d="m32.927 6.945c-.231 1.313 1.738 1.66 1.97.347s-1.739-1.661-1.97-.347z" fill="#b3c2c6"/><path d="m33.419 7.032c-.115.655.869.829.984.173.117-.656-.868-.83-.984-.173z" fill="#6e8189"/><path d="m32.059 11.87c-.232 1.313 1.737 1.66 1.969.348.232-1.315-1.738-1.661-1.969-.348z" fill="#b3c2c6"/><path d="m32.551 11.957c-.116.655.869.829.984.174.116-.657-.869-.831-.984-.174z" fill="#6e8189"/><path d="m29.523 5.56h1.999v7h-1.999z" fill="#302c3b" transform="matrix(.9848 .1739 -.1739 .9848 2.0406 -5.1697)"/><path d="m31.941 6.771c-.231 1.313-2.201.966-1.97-.348.233-1.313 2.203-.965 1.97.348z" fill="#b3c2c6"/><path d="m31.449 6.685c-.115.656-1.101.482-.984-.174.115-.657 1.1-.484.984.174z" fill="#6e8189"/><path d="m31.073 11.696c-.231 1.313-2.201.966-1.97-.348s2.202-.965 1.97.348z" fill="#b3c2c6"/><path d="m30.581 11.609c-.116.656-1.101.482-.985-.174s1.1-.482.985.174z" fill="#6e8189"/></svg>