<svg enable-background="new 0 0 64 64" height="64" viewBox="0 0 64 64" width="64" xmlns="http://www.w3.org/2000/svg" xmlns:xlink="http://www.w3.org/1999/xlink"><radialGradient id="a" cx="32" cy="32" gradientUnits="userSpaceOnUse" r="26.2001"><stop offset="0" stop-color="#545061"/><stop offset=".2793" stop-color="#464253"/><stop offset=".6105" stop-color="#312d3d"/><stop offset=".7961" stop-color="#211d2d"/><stop offset=".9556" stop-color="#1a1626"/></radialGradient><linearGradient id="b" gradientUnits="userSpaceOnUse" x1="16.9976" x2="47.0025" y1="6.015" y2="57.985"><stop offset="0" stop-color="#ff3b3b"/><stop offset=".2558" stop-color="#fb3737"/><stop offset=".5207" stop-color="#f02b2a"/><stop offset=".7889" stop-color="#dd1616"/><stop offset="1" stop-color="#c90100"/></linearGradient><path d="m56.631 40.325c-11.1 32.841-60.361 16.192-49.262-16.65s60.361-16.192 49.262 16.65z" fill="url(#a)"/><g fill="#fff"><path d="m35.279 25.273h-5.781l-4.553 1.557c-1.764 0-3.193 1.424-3.193 3.182v3.801h4.336s-.109-2.664 1.336-2.664c0 0 5.908 4.952 9.445 0h3.67v-4.319h-4.478c-.707 0-.782-1.557-.782-1.557z"/><path d="m26.578 19.305h4.953v1.889h-.777c-1.432 0-1.432 1.517 0 1.517h4.203c1.43 0 1.43-1.517 0-1.517h-.777v-1.889h4.953c1.777 0 1.777-2.748 0-2.748-.127 0-2.227-.014-4.602 0-.639-.82-2.704-.832-3.352 0-2.377-.014-4.476 0-4.601 0-1.777 0-1.777 2.748 0 2.748z"/><path d="m42.248 25.273h1.709v6.832h-1.709z"/><path d="m21.182 46.623h6.264l1.139-10.248h-8.539zm6.279-6.57h-6.291l-.33-2.971h6.951z"/></g><path d="m32 2c-16.568 0-30 13.432-30 30s13.432 30 30 30 30-13.432 30-30-13.432-30-30-30zm24 30c0 5.546-1.886 10.649-5.045 14.713l-33.666-33.668c4.064-3.159 9.166-5.045 14.711-5.045 13.256 0 24 10.746 24 24zm-48 0c0-5.545 1.886-10.648 5.046-14.712l33.666 33.668c-4.064 3.158-9.166 5.044-14.712 5.044-13.254 0-24-10.744-24-24z" fill="url(#b)"/></svg>