<svg enable-background="new 0 0 64 64" height="64" viewBox="0 0 64 64" width="64" xmlns="http://www.w3.org/2000/svg" xmlns:xlink="http://www.w3.org/1999/xlink"><linearGradient id="a"><stop offset="0" stop-color="#b3c2c6"/><stop offset=".1974" stop-color="#c8d3d6"/><stop offset=".4292" stop-color="#d9e0e3"/><stop offset=".6834" stop-color="#e3e8eb"/><stop offset="1" stop-color="#e6ebed"/></linearGradient><linearGradient id="b" gradientUnits="userSpaceOnUse" x1="22.9995" x2="22.9995" xlink:href="#a" y1="29.1426" y2="26.2852"/><linearGradient id="c" gradientUnits="userSpaceOnUse" x1="35.3154" x2="35.3154" y1="61.3809" y2="31.8561"><stop offset="0" stop-color="#d3dce0"/><stop offset=".3862" stop-color="#ced7db"/><stop offset=".8282" stop-color="#c1cacd"/><stop offset="1" stop-color="#bac3c6"/></linearGradient><radialGradient id="d" cx="20.71" cy="29.2134" gradientUnits="userSpaceOnUse" r="18.0205"><stop offset=".3394" stop-color="#e6ebed"/><stop offset=".5532" stop-color="#e2e7ea"/><stop offset=".7614" stop-color="#d6dde0"/><stop offset=".9668" stop-color="#c3cbcf"/><stop offset="1" stop-color="#bfc7cc"/></radialGradient><linearGradient id="e" gradientUnits="userSpaceOnUse" x1="-28.6538" x2="146.487" y1="18.4287" y2="18.4287"><stop offset="0" stop-color="#e6ebed"/><stop offset=".3036" stop-color="#e2e8ea"/><stop offset=".5783" stop-color="#d7dde0"/><stop offset=".8409" stop-color="#c5cbd0"/><stop offset="1" stop-color="#b6bdc2"/></linearGradient><linearGradient id="f" gradientUnits="userSpaceOnUse" x1="53.8564" x2="53.8564" xlink:href="#a" y1="4.8574" y2="2"/><linearGradient id="g"><stop offset="0" stop-color="#767a7a"/><stop offset=".2778" stop-color="#9ea2a2"/><stop offset=".5937" stop-color="#c4c8ca"/><stop offset=".8456" stop-color="#dce0e2"/><stop offset="1" stop-color="#e5e9eb"/></linearGradient><linearGradient id="h" gradientUnits="userSpaceOnUse" x1="53.8555" x2="53.8555" xlink:href="#g" y1="11.6255" y2="7.6245"/><linearGradient id="i" gradientUnits="userSpaceOnUse" x1="53.8555" x2="53.8555" xlink:href="#g" y1="10.375" y2="8.875"/><path d="m41.572 26.285h-37.146c-1.902 0-1.9 2.857 0 2.857h37.146c1.905.001 1.901-2.857 0-2.857z" fill="url(#b)"/><path d="m60.285 32c-20.873-1.513-47.285 0-47.285 0l-2.648 27.811c-.114 1.173 1.63 2.189 6.648 2.189h37.143c0-4.979-13.143-21.416 6.142-30z" fill="url(#c)"/><path d="m31.703 46.365c-3.811 1.622-14.196 1.699-17.987 0-7.351-3.294-9.288-11.05-9.288-15.037h37.596c-.001 3.925-2.771 11.822-10.321 15.037z" fill="url(#d)"/><path d="m46.65 5.5-2.729 23c-.037.365-.344.643-.711.643h-39.497c-.395 0-.713.32-.713.714v1.428c0 .395.318.715.713.715h56.572c.395 0 .715-.32.715-.715v-25.714c0-.395-.32-.714-.715-.714h-12.926c-.365 0-.673.278-.709.643z" fill="url(#e)"/><path d="m60.5 2h-13.287c-.275 0-.5.225-.5.5v1.857c0 .275.225.5.5.5h13.287c.275 0 .5-.225.5-.5v-1.857c0-.275-.225-.5-.5-.5z" fill="url(#f)"/><path d="m55.855 9.625c0 2.667-4 2.667-4 0s4-2.667 4 0z" fill="url(#h)"/><path d="m56.877 8.875h-6.041c-.264 0-.48.182-.48.403v.692c0 .223.217.404.48.404h6.041c.264 0 .479-.182.479-.404v-.692c-.001-.221-.215-.403-.479-.403z" fill="url(#i)"/></svg>