<svg enable-background="new 0 0 64 64" height="64" viewBox="0 0 64 64" width="64" xmlns="http://www.w3.org/2000/svg"><path d="m16.379 55.636s-.597.072-.292.34c3.878 3.393 8.947 6.025 8.947 6.025.293-.113.289-.443.289-.443z" fill="#6e8189"/><path d="m24.38 56.983c-4.373-1.709-7.33-2.521-8.001-1.348 4.913 3.92 8.944 5.922 8.944 5.922 2.097-1.865.89-3.49-.943-4.574z" fill="#99a8ae"/><path d="m19.696 55.397c.386 1.219.861 1.662 1.217 1.143.334.682.809.527.984.199.447.566.933.156.554-.793-.23-.517-2.858-.877-2.755-.549z" fill="#1a1626"/><path d="m40.087 61.558s-.234.307.087.443c4.076-.305 7.826-7.414 7.826-7.414 0-.283-.263-.453-.263-.453z" fill="#6e8189"/><path d="m43.609 54.712c-3.216 4.313-3.8 5.809-3.522 6.846 3.915-.408 7.65-7.424 7.65-7.424-1.972-3.25-3.559-.184-4.128.578z" fill="#99a8ae"/><path d="m40.943 58.542c1.267-.021 1.832-.352 1.45-.846.747-.125.745-.629.49-.896.672-.266.432-.855-.576-.764-.56.074-1.705 2.512-1.364 2.506z" fill="#1a1626"/><path d="m36.874 32.306c-8.222-1.227-7.499 2.283-7.499 2.283 1.205 6.003 3.816 13.25 4.806 14.496.827 1.041 4.754 3.682 7.836 7.32 2.155-1.021 6.002-2.369 4.951-3.396-3.998-3.91-7.847-7.383-7.847-7.383-2.731-4.419-3.459-9.166-2.247-13.32z" fill="#1a1626"/><path d="m37.007 32.205s-4.773-3.007-6.713 1.799c-.665 4.634-4.568 9.126-5.252 10.58-.746 1.59-1.354 6.999-3.339 10.944 2.235 1.801 4.307 6.086 4.727 4.73 1.866-6.021 4.059-13.423 4.059-13.423 5.864-8.126 8.811-7.25 6.518-14.63z" fill="#302c3b"/><path d="m29.94 25.159c-2.189 2.623-3.588 4.832-4.605 5.646-.394.315-1.389 1.165-1.744 1.922-.255.545-.767 2.435.075 3.403.757.872 1.083-2.304 1.907-2.069-.531 1.304.129 1.868.534 1.085.711-1.372.503-1.896.464-2.497-.031-.469 1.358-2.125 3.369-3.656z" fill="#fc6"/><path d="m46.278 17.111c-.506-.117-1.008-1.017-1.391-2.154.479.187 1.023.256 1.654.134-4.48-2.718-.684-13.586-7.715-10.758l.374 3.102c2.668-1.738-1.006 5.145 2.633 7.068-.359-.356-.359-1.103-.264-1.985.698 2.534 1.899 4.936 4.709 4.593z" fill="#594640"/><path d="m46.278 17.111c-.506-.117-2.021-1.387-2.404-2.524 1.307.788 2.072.903 2.668.504-5.346-1.74-1.777-11.563-7.336-9.044l-.006 1.388c2.668-1.738-1.006 5.145 2.633 7.068-1.045-1.132-.971-2.091-.557-2.688.698 2.533 2.192 5.639 5.002 5.296z" fill="#453631"/><path d="m38.466 4.33c-1.012.554-.779 3.377 1.111 3.491 1.551.098.231-4.231-1.111-3.491z" fill="#8e3ed6"/><path d="m31.476 15.345c1.612-.649.604 3.207.591 3.567 0 0 1.516-2.199 4.788-2.24 0 0-.348-1.326-.482-3.465.358-5.874-4.897 2.138-4.897 2.138z" fill="#f7c259"/><path d="m27.812 5.55c-.344.816-.516 1.754-.35 2.533.256 1.2-.299 1.79-1.221 2.61-.877.777.098 1.48 1.033 1.474.191.275.033.548.033.548.748.649.73 1.647.387 1.92 0 0 .23.118.186.546-.125 1.225.635 1.597 2.459 1.005 3.602-1.17 3.895-3.865 3.895-3.865.736 1.043 2.951-.735 3.012-2.905.108-3.603-2.989-8.798-9.434-3.866z" fill="#fc6"/><path d="m34.286 10.598c-.002-.885.713-1.659 1.438-1.665 0 0-1.236 1.06-.914 2.479 0 0-.522-.197-.524-.814z" fill="#e6b045"/><path d="m30.308 9.677c-.471.543-1.631.849-2.018.771-.939-2.819 1.4-1.96 2.018-.771z" fill="#f5f5f5"/><path d="m28.333 10.455c1.107-.036.488-3.005-.262-1.391-.041.282.039 1.399.262 1.391z" fill="#45332c"/><path d="m30.308 9.677c-.299-1.104-2.207-1.899-2.236-.612.3-.698 1.652-.251 2.236.612z" fill="#45332c"/><path d="m28.407 9.095c.006.272.396.26.391-.013-.008-.25-.399-.238-.391.013z" fill="#f5f5f5"/><path d="m30.593 7.939c-.746-.592-2.275-.542-2.836-.162-.123.073-.002.5.092.439.629-.399 1.818-.525 2.721-.098.099.048.138-.096.023-.179z" fill="#594640"/><path d="m27.634 13.271c.34.235 0 .623 0 .623-.309-.012-.311.825.061.741 1.08-.249 2.031-1.053 2.068-1.371-.213.008-1.834-.054-2.455-.549 0 0-.061.339.326.556z" fill="#d47706"/><path d="m27.634 13.271v.623c.271.011 1.303-.202 1.863-.548 0 0-1.201.155-1.863-.075z" fill="#fff"/><path d="m38.942 6.048c-.134-2.52-2.619-4.047-5.652-4.048-3.926-.003-5.936 2.364-5.479 3.55 4.518-2.18 4.838 6.296 6.582 3.512.875-1.394 2.879-.639 2.463 1.26-.418 1.918-1.607 2.223-1.607 2.223.473.888 1.084 1.005 1.084 1.005 3.078-.47 4.725-6.336 2.609-7.502z" fill="#594640"/><path d="m38.942 6.048c-.135-2.52-4.391-3.687-5.795-3.415 2.035.335 4.412 1.667 4.678 2.505-1.67-.468-4.141-1.475-6.992-1.334 1.73.241 3.154 1.69 6.68 2.296 0 0-2.574.531-5.365-.647.75 1.01 2.793 1.973 3.797 2.277-1.131.057-2.4-.071-5.021-1.831 1.732 1.581 2.256 5.102 3.471 3.163.875-1.394 2.879-.639 2.463 1.26-.418 1.918-1.607 2.223-1.607 2.223.473.888 1.084 1.005 1.084 1.005 3.076-.47 4.723-6.336 2.607-7.502z" fill="#453631"/><path d="m28.101 11.72c-.145.373-.711.467-1.049.454-.451-.017-.879-.25-1.068-.571.181-.374 1.136.604 2.117.117z" fill="#e6b045"/><path d="m37.007 32.205s-3.125.166-7.698 2.416c-.369-3.467.546-8.081.265-8.226-4.867-2.5 1.41-6.284 2.047-7.976.128-.34.463-.699.688-.95-.245 2.534 2.602-3.041 5.215-.459 1.93 5.244-1.838 8.594-.517 15.195z" fill="#8e3ed6"/><path d="m42.208 25.119c-.167-.465-1.104-2.159-2.049-3.822-1.079.531-1.88.94-2.911 1.533.924 1.263 2.298 2.866 2.376 3.507.334 2.742.676 4.653.421 7.343-.042.438-1.153.708-1.745 2.927-.255.955.769.931 1.266-.57.895.37-1.169 3.354.138 3.121 1.447-.256 2.582-2.404 2.764-3.055.16-.582-.187-1.789-.198-2.33-.066-2.646.232-7.835-.062-8.654z" fill="#fc6"/><path d="m41.146 22.577c-.748-1.403-1.803-3.229-3.066-5.201-1.361-2.124-4.571-.151-3.469 2.13.599 1.24 1.554 2.89 3.07 5.098 1.077-.767 2.243-1.449 3.465-2.027z" fill="#5d1e96"/></svg>