<svg enable-background="new 0 0 64 64" height="64" viewBox="0 0 64 64" width="64" xmlns="http://www.w3.org/2000/svg" xmlns:xlink="http://www.w3.org/1999/xlink"><linearGradient id="a"><stop offset="0" stop-color="#4ecee6"/><stop offset=".1981" stop-color="#46c9e8"/><stop offset=".5045" stop-color="#30baec"/><stop offset=".8791" stop-color="#0da3f4"/><stop offset="1" stop-color="#009af7"/></linearGradient><linearGradient id="b" gradientUnits="userSpaceOnUse" x1="29.5186" x2="28.4774" xlink:href="#a" y1="32.9019" y2="35.1102"/><linearGradient id="c"><stop offset="0" stop-color="#009af7"/><stop offset=".1209" stop-color="#0da3f4"/><stop offset=".4955" stop-color="#30baec"/><stop offset=".8019" stop-color="#46c9e8"/><stop offset="1" stop-color="#4ecee6"/></linearGradient><linearGradient id="d" gradientUnits="userSpaceOnUse" x1="23.8096" x2="25.8505" xlink:href="#c" y1="41.918" y2="40.3341"/><linearGradient id="e" gradientUnits="userSpaceOnUse" x1="40.9873" x2="40.9873" xlink:href="#a" y1="49.1924" y2="51.6517"/><linearGradient id="f" gradientUnits="userSpaceOnUse" x1="44.0068" x2="46.007" xlink:href="#c" y1="42.6621" y2="41.329"/><linearGradient id="g" gradientUnits="userSpaceOnUse" x1="38.9795" x2="36.8133" xlink:href="#c" y1="39.5967" y2="38.4721"/><linearGradient id="h" gradientUnits="userSpaceOnUse" x1="17.0557" x2="14.9727" xlink:href="#c" y1="39.3926" y2="38.5596"/><linearGradient id="i" gradientUnits="userSpaceOnUse" x1="43.002" x2="43.002" y1="29.0684" y2="25"><stop offset="0" stop-color="#302c3b"/><stop offset=".364" stop-color="#3d3e4b"/><stop offset="1" stop-color="#5b666e"/></linearGradient><g fill="#99a8ae"><path d="m3.963 50.39c0 .334 19 .334 19 0 0-.332-19-.332-19 0z"/><path d="m13.463 40.89c-.333 0-.333 19 0 19s.333-19 0-19z"/><path d="m6.745 43.673c-.235.234 13.199 13.67 13.436 13.436.234-.237-13.201-13.672-13.436-13.436z"/><path d="m20.181 43.673c-.237-.235-13.671 13.199-13.436 13.435.236.235 13.671-13.199 13.436-13.435z"/><path d="m4.687 54.025c.127.309 17.682-6.963 17.553-7.271-.128-.307-17.68 6.965-17.553 7.271z"/><path d="m9.827 41.612c-.307.128 6.964 17.682 7.271 17.554.308-.127-6.962-17.681-7.271-17.554z"/><path d="m4.687 46.755c-.128.307 17.426 7.578 17.554 7.271.126-.308-17.428-7.58-17.554-7.271z"/><path d="m17.099 41.613c-.307-.126-7.578 17.426-7.271 17.555.308.126 7.579-17.427 7.271-17.555z"/><path d="m41.037 50.39c0 .334 19 .334 19 0 0-.332-19-.332-19 0z"/><path d="m50.537 40.89c-.333 0-.333 19 0 19s.333-19 0-19z"/><path d="m43.819 43.673c-.235.234 13.199 13.67 13.436 13.436.234-.237-13.2-13.672-13.436-13.436z"/><path d="m57.255 43.673c-.236-.234-13.671 13.199-13.436 13.436.237.234 13.671-13.2 13.436-13.436z"/><path d="m41.761 54.025c.127.309 17.682-6.963 17.553-7.271-.127-.307-17.68 6.965-17.553 7.271z"/><path d="m46.901 41.612c-.307.128 6.964 17.682 7.271 17.554.308-.127-6.962-17.681-7.271-17.554z"/><path d="m41.761 46.755c-.128.307 17.426 7.578 17.554 7.271.126-.308-17.427-7.58-17.554-7.271z"/><path d="m54.173 41.613c-.307-.126-7.578 17.426-7.271 17.555.308.126 7.579-17.427 7.271-17.555z"/></g><path d="m36 52h-2c-1.553 0-1.553 2 0 2h2c1.553 0 1.553-2 0-2" fill="#302c3b"/><path d="m13.5 62c-6.341 0-11.5-5.158-11.5-11.5 0-6.34 5.159-11.5 11.5-11.5s11.5 5.16 11.5 11.5c0 6.342-5.159 11.5-11.5 11.5m0-20.553c-4.992 0-9.053 4.061-9.053 9.053s4.061 9.055 9.053 9.055 9.053-4.063 9.053-9.055-4.061-9.053-9.053-9.053" fill="#302c3b"/><path d="m50.5 62c-6.341 0-11.5-5.158-11.5-11.5 0-6.34 5.159-11.5 11.5-11.5s11.5 5.16 11.5 11.5c0 6.342-5.159 11.5-11.5 11.5m0-20.553c-4.992 0-9.055 4.061-9.055 9.053s4.063 9.055 9.055 9.055c4.991 0 9.055-4.063 9.055-9.055s-4.064-9.053-9.055-9.053" fill="#302c3b"/><path d="m37.941 40-18.941-9.807 1.059-2.193 18.941 9.807z" fill="url(#b)"/><path d="m32.209 48.644-13.234-17.294-1.379 2.229 13.191 17.241c.49-.715.953-1.447 1.422-2.176z" fill="url(#d)"/><path d="m33.067 49.152c-.536.83-1.064 1.663-1.631 2.472h19.101v-2.472z" fill="url(#e)"/><path d="m49.016 50-10.016-14.713 1.986-1.287 10.014 14.713z" fill="url(#f)"/><path d="m33.091 50.939-2.183-1.103 11.733-22.742 2.181 1.107z" fill="url(#g)"/><path d="m32.06 54.836c-2.557 0-4.482-2.051-4.482-4.479 0-2.557 2.151-4.681 4.896-4.46 3.073.259 8.381.758 12.645 1.16 1.884.177 3.609.339 4.935.461 1.849.169 2.962 1.363 2.962 2.839s-1.113 2.67-2.962 2.837c-1.325.124-3.049.286-4.933.463-4.266.401-9.573.901-12.646 1.16-.141.014-.279.019-.415.019m.002-8.143c-2.055 0-3.794 1.677-3.794 3.664 0 2.09 1.92 3.843 4.118 3.651 3.07-.259 8.374-.758 12.635-1.16 1.885-.178 3.611-.34 4.937-.463 1.391-.127 2.361-.961 2.361-2.028 0-1.066-.971-1.902-2.361-2.028-1.325-.123-3.052-.284-4.937-.463-4.263-.4-9.566-.899-12.635-1.159-.109-.01-.217-.014-.324-.014" fill="#b3c2c6"/><path d="m48.537 50.388c0 2.669 4 2.669 4 0 0-2.664-4-2.664-4 0z" fill="#99a8ae"/><path d="m49.538 50.391c0 1.334 2 1.334 2 0 0-1.333-2-1.333-2 0z" fill="#6e8189"/><path d="m21.375 28s-4.779 12.718-4.865 13c1.28 5.895-2.261 10.391-2.261 10.391l-1.875-2.002c3.128-3.389 1.704-8.389 1.704-8.389l4.863-13z" fill="url(#h)"/><path d="m11.463 50.388c0 2.669 4 2.669 4 0 0-2.664-4-2.664-4 0z" fill="#302c3b"/><path d="m47.05 25c-2.011 0-4.021 2.094-9.757 1.43-.471-.054-.288 1.388 0 1.713 1.548 1.744 10.066.629 11.236-.143.416-.273 1.303-3-1.479-3" fill="url(#i)"/><path d="m19 21h5v-2h-5c-2 0-3 1-3 2.5 0 2.5 3 3.5 3 4.5h-1v2h4v-2h-1c0-2-3-3-3-4 0-.552.448-1 1-1z" fill="#99a8ae"/><path d="m27 19h-3v-1h-1v4h1v-1h3c1.461 0 1.461-2 0-2" fill="#302c3b"/><path d="m28 50.389c0 5.333 8 5.333 8 0s-8-5.333-8 0z" fill="#99a8ae"/><path d="m30 50.388c0 2.669 4 2.669 4 0 0-2.664-4-2.664-4 0z" fill="#6e8189"/><path d="m29.033 48.194h3.935v1h-3.935z" fill="#e6ebef" transform="matrix(.5083 .8612 -.8612 .5083 57.1786 -2.7529)"/><path d="m30 46h-2c-1.552 0-1.552 2 0 2h2c1.553 0 1.553-2 0-2z" fill="#302c3b"/><path d="m31 50.389c0 1.334 2 1.334 2 0 0-1.333-2-1.333-2 0z" fill="#e6ebef"/></svg>