<svg enable-background="new 0 0 64 64" height="64" viewBox="0 0 64 64" width="64" xmlns="http://www.w3.org/2000/svg"><path d="m16.379 55.635s-.598.073-.293.34c3.879 3.393 8.947 6.025 8.947 6.025.293-.112.289-.443.289-.443z" fill="#6e8189"/><path d="m24.379 56.982c-4.373-1.709-7.33-2.521-8-1.348 4.912 3.921 8.943 5.922 8.943 5.922 2.098-1.865.891-3.49-.943-4.574z" fill="#99a8ae"/><path d="m19.695 55.397c.387 1.219.861 1.662 1.217 1.143.334.681.809.526.984.199.447.566.934.155.555-.794-.23-.517-2.859-.877-2.756-.548z" fill="#1a1626"/><path d="m40.087 61.557s-.234.308.088.443c4.076-.304 7.826-7.414 7.826-7.414 0-.283-.264-.453-.264-.453z" fill="#6e8189"/><path d="m43.61 54.712c-3.217 4.313-3.801 5.808-3.523 6.845 3.916-.407 7.65-7.424 7.65-7.424-1.972-3.249-3.558-.183-4.127.579z" fill="#99a8ae"/><path d="m40.944 58.541c1.266-.021 1.832-.351 1.449-.846.748-.125.746-.629.49-.896.672-.267.432-.855-.576-.764-.56.074-1.704 2.513-1.363 2.506z" fill="#1a1626"/><path d="m30.75 16.241c1.551-.707.664 2.195.662 2.558 0 0 2.233-2.036 5.426-2.188 0 0-.383-1.32-.588-3.463.151-5.908-5.5 3.093-5.5 3.093z" fill="#d6a67a"/><path d="m27.301 6.114c-.326.856-.287 1.57-.101 2.367.293 1.229-.252 1.86-1.157 2.747-.861.841.137 1.523 1.081 1.477.197.277.141.732.141.732s.721.545.146 1.591c.764.715-.539 2.052 1.322 2.046 1.816-.006 4.184-1.461 4.584-1.876.635-.657.807-2.635.807-2.635.771 1.046 2.695-.869 2.701-3.114.01-3.722-3.176-8.704-9.524-3.335z" fill="#e3c19b"/><path d="m34.104 10.176c-.035-.889.658-1.69 1.385-1.722 0 0-1.205 1.107-.834 2.522 0 .001-.529-.181-.551-.8z" fill="#d6a67a"/><path d="m30.329 9.944c-.486.532-1.66.807-2.047.716-.86-2.857 1.463-1.926 2.047-.716z" fill="#f5f5f5"/><path d="m28.327 10.669c1.109-.003.578-3.003-.223-1.404-.051.282-.002 1.405.223 1.404z" fill="#45332c"/><path d="m30.329 9.944c-.27-1.116-2.158-1.972-2.225-.68.322-.689 1.662-.202 2.225.68z" fill="#d6a67a"/><path d="m28.44 9.306c-.002.273.391.272.393-.001 0-.253-.393-.253-.393.001z" fill="#f5f5f5"/><path d="m30.477 8.054c-.77-.568-2.248-.594-2.799-.192-.121.076-.043.619.055.566.771-.427 2.008-.439 2.727.029.093.06.134-.323.017-.403z" fill="#bf8c6b"/><path d="m27.295 13.839c.352.228.074.601.074.601-.17 0-.211.59.041.589 1.256-.004 1.732-.828 2.072-1.291-1.378-.071-2.755-.763-2.187.101z" fill="#bf8c6b"/><path d="m27.295 13.839s.012.522.074.601c.275 0 1.295-.225 1.848-.607z" fill="#fff"/><path d="m38.644 4.447c-.815-1.488-2.52-2.455-5.516-2.447-2.758.007-4.426.932-5.145.58 0 0-.148.461.033.852-.383.02-.609-.233-.609-.229-.268.435-.729 1.566-.105 2.912 4.367-1.649 4.621-.108 5.617 1.117.229.284-.492 1.555.651 2.836.248-2.852 3.586-2.594 3.195-.127-.25 1.581-.955 2.248-1.34 2.611.633.194.861.938.861.938 3.113-.009 4.285-7.567 2.358-9.043z" fill="#efde8b"/><path d="m27.94 12.208c-.133.391-.701.514-1.039.514-.458.002-.893-.22-1.092-.543.173-.393 1.16.575 2.131.029z" fill="#d6a67a"/><path d="m37.456 31.767c-8.221-1.227-8.198 2.774-8.198 2.774 1.205 6.003 3.934 13.298 4.922 14.543.828 1.042 4.754 3.682 7.836 7.32 2.156-1.021 6.002-2.368 4.951-3.396-3.998-3.91-7.846-7.383-7.846-7.383-2.731-4.418-2.876-9.704-1.665-13.858z" fill="#1a1626"/><path d="m37.456 31.767s-5.223-2.568-7.163 2.237c-.664 4.634-4.569 9.126-5.252 10.58-.746 1.59-1.354 6.999-3.338 10.943 2.234 1.802 4.307 6.086 4.727 4.731 1.866-6.022 4.059-13.423 4.059-13.423 5.864-8.126 9.26-7.689 6.967-15.068z" fill="#302c3b"/><path d="m29.442 25.565c-1.691 2.217-3.09 4.426-4.108 5.239-.393.315-1.389 1.165-1.744 1.922-.254.545-.766 2.435.076 3.403.756.872 1.082-2.304 1.906-2.069-.531 1.304.129 1.869.535 1.085.711-1.372.502-1.896.463-2.497-.031-.469 1.36-2.125 2.872-3.25z" fill="#e3c19b"/><path d="m37.677 32.205s-3.967.167-8.418 2.417c-.693-6.718-.354-13.861 2.361-16.969-.24 2.534 3.03-3.225 5.573-.643 1.878 5.244-.801 8.594.484 15.195z" fill="#7ab51d"/><path d="m42.208 25.119c-.166-.465-1.104-2.159-2.049-3.822-1.078.531-2.139 1.089-3.17 1.681.924 1.263 1.875 2.603 2.377 3.432.164 2.292.934 4.581.68 7.271-.043.438-1.154.709-1.746 2.928-.254.954.77.93 1.266-.57.895.369-1.168 3.353.139 3.121 1.447-.257 2.582-2.405 2.764-3.055.16-.582-.188-1.79-.199-2.33-.066-2.648.233-7.837-.062-8.656z" fill="#e3c19b"/><path d="m41.147 22.577c-.748-1.403-1.803-3.229-3.066-5.201-1.361-2.124-4.572-.151-3.469 2.13.598 1.24 1.553 2.89 3.07 5.098 1.077-.767 2.243-1.449 3.465-2.027z" fill="#529320"/></svg>