<svg enable-background="new 0 0 64 64" height="64" viewBox="0 0 64 64" width="64" xmlns="http://www.w3.org/2000/svg"><path d="m40.616 11.741c.438-.327.808-.781 1.053-1.42-4.019 2.033-9.794-3.791-12.612-1.938.654 1.106 1.173 2.288 1.721 3.454.789-.951 4.389 4.34 7.71 2.407-.526.125-1.2-.296-1.943-.88 2.682.797 5.527 1.065 6.802-1.668-.393.392-1.488.34-2.731.045z" fill="#614036"/><path d="m43.346 11.697c-.392.392-2.392 1.046-3.635.751 1.446-.736 1.982-1.363 1.958-2.127-4.008 3.366-9.76-2.901-11.711-.226.277.578.547 1.161.819 1.742.789-.951 4.389 4.34 7.71 2.407-1.611.307-2.438-.3-2.744-1.011 2.682.797 6.328 1.197 7.603-1.536z" fill="#4a2e24"/><path d="m28.774 8.125c-.911.826-.033 4.582 1.952 4.228 1.629-.286-.748-5.33-1.952-4.228z" fill="#8e3ed6"/><path d="m23.757 18.912c1.501-1.354 3.068.619 3.195 1.019 0 0 3.614-2.183 2.777-4.61-4.985-5.282-5.972 3.591-5.972 3.591z" fill="#755035"/><path d="m15.892 9.679c-.052 1.028.132 2.121.622 2.903.751 1.21.38 2.073-.302 3.337-.649 1.201.691 1.579 1.71 1.197.317.225.253.584.253.584 1.07.413 1.446 1.507 1.18 1.944 0 0 .297.036.417.522.348 1.385 1.323 1.488 3.079.114 3.464-2.716 2.719-5.774 2.719-5.774 1.215.845 2.927-1.98 2.136-4.373-1.306-3.976-6.734-8.412-11.814-.454z" fill="#916b50"/><path d="m24.946 12.604c-.353-.964.121-2.094.909-2.391 0 0-.93 1.649-.016 3.071.001.001-.647-.006-.893-.68z" fill="#755035"/><path d="m20.245 13.186c-.3.782-1.443 1.578-1.896 1.649-2.138-2.703.753-2.699 1.896-1.649z" fill="#f5f5f5"/><path d="m18.398 14.826c1.194-.482-.654-3.477-.834-1.415.066.325.595 1.513.834 1.415z" fill="#45332c"/><path d="m20.245 13.186c-.763-1.084-3.158-1.192-2.681.225.053-.88 1.704-.932 2.681-.225z" fill="#45332c"/><path d="m17.942 13.309c.114.296.534.127.421-.168-.107-.269-.528-.101-.421.168z" fill="#f5f5f5"/><path d="m19.868 11.178c-1.046-.349-2.694.314-3.155.954-.104.128.195.548.273.443.527-.688 1.774-1.3 2.928-1.194.128.013.113-.159-.046-.203z" fill="#423225"/><path d="m18.748 18.179c.465.121.247.679.247.679-.342.111-.014 1.026.359.787 1.078-.705 1.798-1.961 1.712-2.323-.229.093-2.02.672-2.892.379.001 0 .067.395.574.478z" fill="#84401e"/><path d="m18.748 18.179.247.679c.302-.097 1.342-.741 1.814-1.342.001 0-1.247.65-2.061.663z" fill="#fff"/><path d="m28.226 5.778c-1.144-2.695-4.455-3.371-7.763-2.163-4.281 1.565-5.538 4.951-4.571 6.064 4.065-4.185 7.763 4.942 8.564 1.206.403-1.871 2.888-1.847 3.183.393.303 2.261-.873 3.068-.873 3.068.865.781 1.578.664 1.578.664 3.171-1.74 2.649-8.802-.118-9.232z" fill="#614036"/><path d="m28.226 5.778c-1.144-2.695-6.244-2.271-7.668-1.414 2.351-.444 5.469.06 6.09.867-2.006.158-5.097.042-8.15 1.334 1.982-.428 4.106.588 8.189-.158 0 0-2.596 1.606-6.105 1.435 1.217.802 3.824 1.038 5.04.972-1.21.512-2.646.879-6.199.004 2.514 1.034 4.476 4.67 5.034 2.068.403-1.871 2.888-1.847 3.183.393.303 2.261-.873 3.068-.873 3.068.865.781 1.578.664 1.578.664 3.17-1.741 2.648-8.803-.119-9.233z" fill="#4a2e24"/><path d="m18.645 16.299c-.009.463-.59.792-.965.914-.496.163-1.056.077-1.39-.198.051-.478 1.479.206 2.355-.716z" fill="#755035"/><path d="m29.105 8.926s-1.16-.373-1.152-.083c.032 1.207-.932 4.031-.932 4.031s-3.057-1.797-4.207-5.031c-.098-.277-.953.311-1.007.598-.328 1.739 4.685 5.724 4.685 5.724s-1.669 4.164-2.976 5.543c4.262-1.145 5.589-10.782 5.589-10.782z" fill="#302c3b"/><path d="m14.975 8.156s-.189-.07-2.385 1.504c0 0 3.396 1.963 8.654-.148z" fill="#302c3b"/><path d="m33.396 4.474c-16.904-7.226-18.421 3.682-18.421 3.682 12.207 4.201 18.199-.361 18.199-.361l-1.699-.655s1.548-1.234 1.921-2.666z" fill="#e81c27"/><g fill="#b00505"><path d="m16.918 7.517c1.824-3.67 4.779-4.996 7.898-4.189-5.318 1.519-7.898 4.189-7.898 4.189z"/><path d="m19.516 6.742c2.869-2.033 5.004-2.566 9.711-2.275-4.012 2.745-9.711 2.275-9.711 2.275z"/><path d="m19.166 7.878c2.49-.863 5.979-1.189 8.516-.533-3.369 2.045-8.516.533-8.516.533z"/></g><path d="m28.262 31.818c-.895 3.857 2.256 3.46 6.271 10.189l1.934-2.93c-2.637-2.76-1.303-3.398-3.064-6.716z" fill="#755035"/><path d="m39.654 32.421-2.654-5.421c-2.615 1.5-6.764 2.455-8.951 4.652 0 0 1.688 1.697 6.324 3.224 1.949-.777 5.281-2.455 5.281-2.455z" fill="#5d1e96"/><path d="m21 28c-.717-.336-3-1-3-1v2l1.883.471-.883 3.529 2 1 1-4s1.564-.799-1-2z" fill="#302c3b"/><path d="m14 38.999c-6.076 0-11 4.924-11 11s4.924 11 11 11c6.074 0 11-4.924 11-11s-4.926-11-11-11zm0 20c-4.971 0-9-4.029-9-9s4.029-9 9-9 9 4.029 9 9-4.029 9-9 9z" fill="#99a8ae"/><path d="m50 38.999c-6.076 0-11 4.924-11 11s4.924 11 11 11c6.074 0 11-4.924 11-11s-4.926-11-11-11zm0 20c-4.971 0-9-4.029-9-9s4.029-9 9-9 9 4.029 9 9-4.029 9-9 9z" fill="#99a8ae"/><path d="m14 37.999c-6.627 0-12 5.373-12 12s5.373 12 12 12 12-5.373 12-12-5.373-12-12-12zm0 22c-5.523 0-10-4.477-10-10s4.477-10 10-10 10 4.477 10 10-4.477 10-10 10z" fill="#302c3b"/><path d="m50 37.999c-6.627 0-12 5.373-12 12s5.373 12 12 12 12-5.373 12-12-5.373-12-12-12zm0 22c-5.523 0-10-4.477-10-10s4.477-10 10-10 10 4.477 10 10-4.477 10-10 10z" fill="#302c3b"/><path d="m50.66 49.231-10.139-12.041 1.373-2.744c.246-.494-1.543-1.389-1.789-.895l-1.316 2.633-19.494-4.367-6.238 17.849c-.396 1.121 1.525 1.684 1.887.666l5.385-15.26 11.877 15.533c.008.012.023.016.031.025.086.105.619.367.764.367h17 .02c.551.002.86-1.582.639-1.766zm-12.793-11.203-5.047 10.092-10.355-13.545zm-3.25 10.971 4.932-9.859 8.301 9.859z" fill="#0fb4d4"/><path d="m16 49.999c0 2.668-4 2.668-4 0s4-2.668 4 0z" fill="#302c3b"/><path d="m50 47.999-17.002-1v-1l17.002 1z" fill="#bec3cf"/><path d="m50 52.999-17 1v-1l17-1z" fill="#bec3cf"/><path d="m53 49.999c0 4-6 4-6 0s6-4 6 0z" fill="#302c3b"/><path d="m32.998 53.999c-5.33 0-5.33-8 0-8 5.336 0 5.336 8 0 8z" fill="#302c3b"/><path d="m27 56.999h7v2h-7z" fill="#99a8ae"/><path d="m31 56.999h-2l3-7h2z" fill="#6e8189"/><path d="m34 50.003c0 1.33-2 1.33-2 0 0-1.338 2-1.338 2 0z" fill="#99a8ae"/><path d="m45 34.999c-2 1-4-1-8-1 0 0 0-2 2-2 4.123 0 5.434-.783 7 0 2 1.001.264 2.367-1 3z" fill="#302c3b"/><path d="m32.287 39.257c-.514 2.1 2.369 7.18.883 14.344h4.221c-1.109-7.164.672-8.637.172-13.965 0 0-4.649-2.934-5.276-.379z" fill="#916b50"/><path d="m37.285 52.819c-2.598.979-3.096.643-4.049.309-1.236.768-5.275 1.592-6.469 2.846-.172.18 0 1.025 0 1.025h11.281c.001 0 .11-4.508-.763-4.18z" fill="#302c3b"/><path d="m46.236 25.462c-4.909-10.569-18.127-13.111-19.691-9.086-1.053 2.713 3.629 9.174 7.219 7.154.525-.296 1.937 2.186 3.236 3.47-1.633 3-3.631 8.873-5.318 12.63 0 0 2.611-.143 6.318 1.291 1.832-5.24 11.065-9.368 8.236-15.459z" fill="#8e3ed6"/><path d="m36.301 40.345-1.965-.477c.945-4.285 3.246-6.83 5.096-8.875 1.629-1.799 2.537-2.881 2.303-4.207-.564-3.188-4.67-6.254-11.561-8.637l.654-1.891c5.381 1.861 11.982 5.137 12.875 10.178.418 2.355-1.068 3.998-2.787 5.898-1.779 1.968-3.785 4.245-4.615 8.011z" fill="#ffe463"/><path d="m27.16 23.109c.156.887.287 1.654.34 2.191-3.188 1.656-3.996 2.463-6.982.699-2-1.182-5.875-1.275-5.051 2.797.354 1.748 2.559-2.938 3.402-1.314 1.332 2.563 1.801 2.018 3.693 1.918 4.49-.236 9.119-.4 8.945-2.123-.105-1.043.213-2.047.17-3.48z" fill="#916b50"/><path d="m31.453 17.666c-.531-3.928-5.32-3.313-5.084-.086.135 1.855.332 4.775.619 6.404l4.992.174c-.064-2.166-.259-4.51-.527-6.492z" fill="#8e3ed6"/><path d="m20 28.005c0 2.658-4 2.658-4 0 0-2.673 4-2.673 4 0z" fill="#302c3b"/><path d="m19 28.001c0 1.33-2 1.33-2 0 0-1.335 2-1.335 2 0z" fill="#99a8ae"/></svg>