<svg enable-background="new 0 0 64 64" height="64" viewBox="0 0 64 64" width="64" xmlns="http://www.w3.org/2000/svg" xmlns:xlink="http://www.w3.org/1999/xlink"><linearGradient id="a" gradientUnits="userSpaceOnUse" x1="31.9995" x2="31.9995" y1="2" y2="62.0005"><stop offset="0" stop-color="#00abf1"/><stop offset=".2292" stop-color="#00a7ef"/><stop offset=".4667" stop-color="#009ae9"/><stop offset=".708" stop-color="#0086e0"/><stop offset=".9504" stop-color="#0069d3"/><stop offset="1" stop-color="#0062d0"/></linearGradient><path d="m62 54c0 4.4-3.6 8-7.999 8h-44.001c-4.399 0-8-3.6-8-8v-44c0-4.4 3.601-8 8-8h44.001c4.399 0 7.999 3.6 7.999 8z" fill="url(#a)"/><g fill="#fff"><path d="m34.431 22.189-5.638 19.825c-.113.425-.401.607-.804.607h-3.354c-.401 0-.689-.183-.804-.607l-2.589-9.104-2.601 9.104c-.114.425-.402.607-.805.607h-3.354c-.401 0-.689-.183-.803-.607l-5.638-19.825c-.144-.516.092-.812.607-.812h2.868c.425 0 .69.228.781.629l4.09 15.295 3.027-10.817-1.222-4.296c-.145-.516.092-.812.607-.812h2.412c.425 0 .69.228.781.629l4.09 15.295 4.09-15.295c.091-.402.356-.629.781-.629h2.868c.519.002.754.298.61.813z"/><path d="m34.792 32c0-6.207 4.636-11.032 11.069-11.032 4.743 0 8.794 2.921 10.099 7.186.129.494-.129.812-.621.812h-2.952c-.402 0-.646-.198-.819-.569-.948-2.064-3.148-3.361-5.706-3.361-4.165 0-6.896 2.883-6.896 6.965 0 4.081 2.731 6.965 6.896 6.965 2.558 0 4.758-1.297 5.706-3.361.174-.371.417-.568.819-.568h2.952c.492 0 .758.296.629.75-1.26 4.272-5.334 7.247-10.106 7.247-6.434-.002-11.07-4.828-11.07-11.034z"/></g></svg>