<svg enable-background="new 0 0 64 64" height="64" viewBox="0 0 64 64" width="64" xmlns="http://www.w3.org/2000/svg" xmlns:xlink="http://www.w3.org/1999/xlink"><linearGradient id="a"><stop offset="0" stop-color="#adf1ff"/><stop offset=".159" stop-color="#a9f0ff"/><stop offset=".3113" stop-color="#9eedff"/><stop offset=".461" stop-color="#8ae8ff"/><stop offset=".609" stop-color="#6fe1ff"/><stop offset=".7558" stop-color="#4cd8ff"/><stop offset=".8998" stop-color="#22cdff"/><stop offset="1" stop-color="#00c4ff"/></linearGradient><radialGradient id="b" cx="-73.4741" cy="210.502" gradientTransform="matrix(.5885 .5884 -1.2999 1.3001 340.4617 -195.3971)" gradientUnits="userSpaceOnUse" r="2.17" xlink:href="#a"/><radialGradient id="c" cx="-62.8491" cy="210.501" gradientTransform="matrix(.5885 .5884 -1.2999 1.3001 340.4612 -195.3965)" gradientUnits="userSpaceOnUse" r="2.1704" xlink:href="#a"/><radialGradient id="d" cx="-84.0986" cy="210.5" gradientTransform="matrix(.5885 .5884 -1.2999 1.3001 340.4606 -195.396)" gradientUnits="userSpaceOnUse" r="2.1702" xlink:href="#a"/><radialGradient id="e" cx="-94.7217" cy="210.5" gradientTransform="matrix(.5885 .5884 -1.2999 1.3001 340.4606 -195.396)" gradientUnits="userSpaceOnUse" r="2.1698" xlink:href="#a"/><radialGradient id="f" cx="-73.4746" cy="226.6914" gradientTransform="matrix(.5885 .5884 -1.2999 1.3001 350.0753 -205.012)" gradientUnits="userSpaceOnUse" r="2.17" xlink:href="#a"/><radialGradient id="g" cx="-84.0996" cy="226.6914" gradientTransform="matrix(.5885 .5884 -1.2999 1.3001 350.0753 -205.012)" gradientUnits="userSpaceOnUse" r="2.1703" xlink:href="#a"/><radialGradient id="h" cx="-89.4106" cy="218.5957" gradientTransform="matrix(.5885 .5884 -1.2999 1.3001 345.2679 -200.204)" gradientUnits="userSpaceOnUse" r="2.1703" xlink:href="#a"/><radialGradient id="i" cx="-78.7871" cy="218.5957" gradientTransform="matrix(.5885 .5884 -1.2999 1.3001 345.2679 -200.204)" gradientUnits="userSpaceOnUse" r="2.17" xlink:href="#a"/><radialGradient id="j" cx="-68.1621" cy="218.5957" gradientTransform="matrix(.5885 .5884 -1.2999 1.3001 345.2679 -200.204)" gradientUnits="userSpaceOnUse" r="2.1703" xlink:href="#a"/><linearGradient id="k" gradientUnits="userSpaceOnUse" x1="62.064" x2="53.7489" y1="32" y2="32"><stop offset="0" stop-color="#cfd8dd"/><stop offset=".1163" stop-color="#d5dde1"/><stop offset=".4903" stop-color="#e2e7ea"/><stop offset=".8364" stop-color="#e6ebed"/></linearGradient><linearGradient id="l" gradientTransform="matrix(.7071 .7071 -.7006 .7006 79.2718 -251.9219)" gradientUnits="userSpaceOnUse" x1="142.2695" x2="176.0889" y1="230.2451" y2="230.2451"><stop offset="0" stop-color="#e6ebed"/><stop offset=".4987" stop-color="#dde4e7"/><stop offset="1" stop-color="#cfd8dd"/></linearGradient><radialGradient id="m" cx="954.5645" cy="59.2119" gradientTransform="matrix(-.0756 .5817 -.8938 -.1162 152.1115 -536.9516)" gradientUnits="userSpaceOnUse" r="17.3053"><stop offset="0" stop-color="#fff" stop-opacity=".6"/><stop offset="1" stop-color="#fff" stop-opacity="0"/></radialGradient><linearGradient id="n"><stop offset="0" stop-color="#b3c2c6"/><stop offset=".4168" stop-color="#b1c0c4"/><stop offset=".658" stop-color="#a9b7bc"/><stop offset=".8538" stop-color="#9ca9ae"/><stop offset="1" stop-color="#8d999e"/></linearGradient><linearGradient id="o" gradientTransform="matrix(.7071 .7071 -.7071 .7071 76.5488 -249.1989)" gradientUnits="userSpaceOnUse" x1="141.8311" x2="176.5322" xlink:href="#n" y1="232.6006" y2="232.6006"/><linearGradient id="p" gradientTransform="matrix(.7071 .7071 -.7071 .7071 76.5488 -249.1989)" gradientUnits="userSpaceOnUse" x1="154.2861" x2="164.0762" xlink:href="#n" y1="215.3164" y2="215.3164"/><path d="m26.068 32.641c-2.454.597-4.393 1.467-5.546 2.62-.981.981-1.121 2.432-.312 3.241.809.807 2.26.667 3.241-.311 1.153-1.154 2.032-3.134 2.617-5.55z" fill="url(#b)"/><path d="m32.321 38.892c-2.455.598-4.395 1.468-5.548 2.622-.98.979-1.12 2.43-.312 3.239s2.26.668 3.243-.31c1.151-1.155 2.032-3.133 2.617-5.551z" fill="url(#c)"/><path d="m19.818 26.389c-2.455.598-4.396 1.467-5.548 2.621-.98.98-1.121 2.431-.313 3.239.812.81 2.26.669 3.241-.31 1.154-1.153 2.034-3.133 2.62-5.55z" fill="url(#d)"/><path d="m13.568 20.14c-2.457.596-4.396 1.467-5.549 2.619-.982.981-1.119 2.432-.311 3.241.81.809 2.261.668 3.24-.312 1.153-1.154 2.032-3.134 2.62-5.548z" fill="url(#e)"/><path d="m14.638 44.074c-2.457.596-4.396 1.468-5.549 2.621-.979.98-1.12 2.431-.31 3.24.809.808 2.258.668 3.24-.311 1.153-1.153 2.031-3.133 2.619-5.55z" fill="url(#f)"/><path d="m8.386 37.824c-2.456.594-4.397 1.467-5.549 2.619-.98.98-1.12 2.43-.312 3.24s2.26.669 3.241-.311c1.152-1.152 2.032-3.132 2.62-5.548z" fill="url(#g)"/><path d="m10.976 28.981c-2.454.596-4.396 1.466-5.548 2.619-.979.98-1.12 2.432-.312 3.241.809.811 2.261.668 3.241-.311 1.153-1.153 2.033-3.132 2.619-5.549z" fill="url(#h)"/><path d="m17.227 35.231c-2.455.597-4.394 1.466-5.547 2.619-.98.981-1.12 2.432-.311 3.241s2.258.667 3.24-.31c1.153-1.152 2.032-3.135 2.618-5.55z" fill="url(#i)"/><path d="m23.479 41.482c-2.456.598-4.396 1.469-5.549 2.62-.981.981-1.119 2.432-.311 3.239.81.811 2.26.67 3.243-.307 1.151-1.154 2.032-3.134 2.617-5.552z" fill="url(#j)"/><path d="m62 14.237c0-6.759-5.479-12.237-12.238-12.237-3.377 0-6.437 1.369-8.651 3.583l-11.537 11.537 5.768 5.769 11.536-11.538c.738-.737 1.758-1.193 2.884-1.193 2.255 0 4.078 1.824 4.079 4.079v47.763h8.159z" fill="url(#k)"/><path d="m36.442 16.021c-6.604-6.605-17.26-6.656-23.805-.11l23.913 23.914c6.547-6.547 6.495-17.202-.108-23.804z" fill="url(#l)"/><path d="m25.449 22.49c-4.415-.571-7.688-3.367-7.314-6.238.373-2.877 4.254-4.74 8.668-4.165 4.418.573 7.69 3.366 7.321 6.241-.374 2.878-4.261 4.737-8.675 4.162z" fill="url(#m)"/><path d="m36.324 40.673-24.535-24.535 1.153-1.154 24.536 24.539z" fill="url(#o)"/><path d="m39.383 20.003-6.922-6.923 1.866-1.867 6.921 6.924z" fill="url(#p)"/></svg>