<svg enable-background="new 0 0 64 64" height="64" viewBox="0 0 64 64" width="64" xmlns="http://www.w3.org/2000/svg" xmlns:xlink="http://www.w3.org/1999/xlink"><linearGradient id="a" gradientTransform="matrix(1 0 0 -1 -56 -80)" gradientUnits="userSpaceOnUse" x1="88" x2="88" y1="-138.0049" y2="-82.0088"><stop offset="0" stop-color="#697378"/><stop offset=".1088" stop-color="#727c82"/><stop offset=".4414" stop-color="#87949a"/><stop offset=".7475" stop-color="#94a3a9"/><stop offset="1" stop-color="#99a8ae"/></linearGradient><linearGradient id="b" gradientTransform="matrix(1 0 0 -1 -56 -80)" gradientUnits="userSpaceOnUse" x1="88" x2="88" y1="-142" y2="-126.7158"><stop offset="0" stop-color="#916958"/><stop offset=".21" stop-color="#8b6454"/><stop offset=".4866" stop-color="#7b5748"/><stop offset=".799" stop-color="#5f4034"/><stop offset="1" stop-color="#4a2f24"/></linearGradient><path d="m45.691 2.009c-.357-.055-6.848 23.744-15.434 21.503l-17.257-8.675s.266 12.152-11 18.154v25.014h60v-30.771c-11.734-13.273-9.277-24.129-16.309-25.225z" fill="url(#a)"/><g fill="#cfd8dd"><path d="m30.257 23.512c10.087-3.095 13.634-22.949 15.595-21.429.957.742 5.113 15.415.85 12.205-6.563-4.937 1.939 5.246 2.004 10.894.039 3.571-13.656-10.468-4.609 13.812z"/><path d="m56.682 28.589-5.282-10.183 1.506 7.274z"/><path d="m51.809 40.495-.709-6.693-3.893-3.794z"/><path d="m2 30.455s8.621-4.355 10.906-15.54c.188-.926 3.074 5.576 4.5 12.379.621 2.972-4.314-3.231-4.313 1.095.002 6.528-5.187 14.098-5.187 14.098 2.842-17.376-5.906 1.502-5.906 1.502z"/></g><path d="m62 46.716c-36.494 2.329-42.457 8.853-60 9.65v5.634h60z" fill="url(#b)"/><path d="m24.875 22.595c1.334-1.204 2.729.552 2.839.906 0 0 3.216-1.94 2.472-4.101-4.434-4.694-5.311 3.195-5.311 3.195z" fill="#423225"/><path d="m17.998 15.014c-.01.892.266 1.529.701 2.196.68 1.024.396 1.784-.131 2.897-.504 1.058.637 1.345 1.482.985.273.188.373.62.373.62s.842.256.67 1.405c.938.396.195 2.055 1.895 1.424 1.658-.616 3.33-2.741 3.557-3.255.359-.813-.147-2.678-.147-2.678 1.058.697 2.168-1.698 1.418-3.75-1.244-3.403-5.826-6.881-9.818.156z" fill="#614a36"/><path d="m25.574 16.438c-.33-.799.033-1.767.686-2.039 0 0-.727 1.418.088 2.584 0-.001-.545.012-.774-.545z" fill="#423225"/><path d="m22.051 17.494c-.266.648-1.246 1.294-1.631 1.342-1.744-2.32.689-2.25 1.631-1.342z" fill="#f5f5f5"/><path d="m20.465 18.828c1.012-.375-.48-2.936-.674-1.207.047.275.469 1.284.674 1.207z" fill="#45332c"/><path d="m22.051 17.494c-.623-.93-2.635-1.075-2.26.127.061-.738 1.447-.744 2.26-.127z" fill="#423225"/><path d="m20.109 17.546c.09.25.449.116.359-.133-.085-.231-.445-.099-.359.133z" fill="#f5f5f5"/><path d="m21.549 15.718c-.892-.261-2.252.214-2.619.765-.086.11.168.58.24.5.561-.648 1.686-1.076 2.5-.891.105.023.014-.34-.121-.374z" fill="#36281d"/><path d="m20.59 22.07c.396.09.268.522.268.522-.154.058.008.61.236.525 1.145-.427 1.305-1.339 1.459-1.875-1.283.401-2.774.231-1.963.828z" fill="#36281d"/><path d="m20.59 22.07s.186.475.268.522c.25-.092 1.109-.64 1.484-1.175z" fill="#fff"/><path d="m27.794 9.68c-1.241-1.086-10.825.506-9.796 5.334 3.434-2.975 4.182-1.652 5.506-.869.305.185.072 1.586 1.547 2.373-.732-2.687 2.402-3.574 2.875-1.19.304 1.528-.116 2.375-.346 2.837.644-.036 1.601.337 1.601.337 2.401-2.184.869-8.123-1.387-8.822z" fill="#38332d"/><path d="m20.629 20.365c.01.402-.469.705-.777.818-.416.154-.889.1-1.178-.129.025-.417 1.252.135 1.955-.689z" fill="#423225"/><path d="m28.779 13.497s-.996-.228-.969.015c.115 1.008-.486 3.441-.486 3.441s-2.685-1.28-3.885-3.902c-.102-.224-.774.33-.799.574-.146 1.48 4.336 4.445 4.336 4.445s-1.162 4.021-2.154 5.27c3.481-1.27 3.957-9.843 3.957-9.843z" fill="#302c3b"/><path d="m17.246 13.326s-.164-.061-2.068 1.303c0 0 2.945 1.701 7.502-.128z" fill="#302c3b"/><path d="m33.211 10.135c-14.65-6.263-15.965 3.191-15.965 3.191 10.578 3.641 15.771-.313 15.771-.313l-1.473-.568s1.342-1.069 1.667-2.31z" fill="#e81c27"/><path d="m18.93 12.773c1.58-3.182 4.143-4.33 6.846-3.631-4.61 1.317-6.846 3.631-6.846 3.631z" fill="#b00505"/><path d="m21.182 12.1c2.486-1.762 4.336-2.224 8.416-1.972-3.477 2.381-8.416 1.972-8.416 1.972z" fill="#b00505"/><path d="m20.877 13.086c2.158-.748 5.182-1.031 7.38-.462-2.919 1.772-7.38.462-7.38.462z" fill="#b00505"/><path d="m28.762 33.833c-.775 3.343 1.954 3 5.433 8.831l1.678-2.539c-2.285-2.393-1.129-2.945-2.654-5.82z" fill="#423225"/><path d="m38.635 34.355-2.301-4.698c-2.266 1.3-5.861 2.128-7.758 4.032 0 0 1.463 1.471 5.481 2.795 1.689-.673 4.578-2.129 4.578-2.129z" fill="#529320"/><path d="m22.467 30.523c-.621-.291-2.6-.865-2.6-.865v1.732l1.633.408-.766 3.059 1.732.867.867-3.467c.001 0 1.357-.693-.866-1.734z" fill="#302c3b"/><path d="m16.4 40.057c-5.266 0-9.533 4.268-9.533 9.533s4.268 9.533 9.533 9.533c5.264 0 9.533-4.268 9.533-9.533s-4.269-9.533-9.533-9.533zm0 17.334c-4.309 0-7.799-3.492-7.799-7.801 0-4.308 3.49-7.8 7.799-7.8s7.801 3.492 7.801 7.8-3.492 7.801-7.801 7.801z" fill="#99a8ae"/><path d="m47.602 40.057c-5.268 0-9.535 4.268-9.535 9.533s4.27 9.533 9.535 9.533 9.533-4.268 9.533-9.533-4.27-9.533-9.533-9.533zm0 17.334c-4.309 0-7.801-3.492-7.801-7.801 0-4.308 3.492-7.8 7.801-7.8s7.799 3.492 7.799 7.8c-.001 4.308-3.493 7.801-7.799 7.801z" fill="#99a8ae"/><path d="m16.4 39.191c-5.742 0-10.4 4.656-10.4 10.399s4.658 10.4 10.4 10.4c5.744 0 10.4-4.657 10.4-10.4s-4.655-10.399-10.4-10.399zm0 19.066c-4.787 0-8.666-3.879-8.666-8.667s3.879-8.667 8.666-8.667 8.666 3.879 8.666 8.667-3.878 8.667-8.666 8.667z" fill="#302c3b"/><path d="m47.602 39.191c-5.744 0-10.398 4.656-10.398 10.399s4.654 10.4 10.398 10.4c5.742 0 10.398-4.657 10.398-10.4s-4.656-10.399-10.398-10.399zm0 19.066c-4.787 0-8.668-3.879-8.668-8.667s3.881-8.667 8.668-8.667c4.785 0 8.666 3.879 8.666 8.667s-3.881 8.667-8.666 8.667z" fill="#302c3b"/><path d="m48.172 48.926-8.785-10.436 1.189-2.379c.213-.428-1.338-1.203-1.551-.774l-1.141 2.282-16.894-3.786-5.406 15.47c-.344.973 1.32 1.459 1.635.577l4.666-13.225 10.293 13.462c.008.01.021.014.026.021.074.092.537.318.662.318h14.735.016c.479.001.746-1.372.555-1.53zm-11.086-9.71-4.375 8.746-8.975-11.739zm-2.816 9.509 4.273-8.545 7.193 8.545z" fill="#0fb4d4"/><path d="m18.135 49.591c0 2.312-3.467 2.312-3.467 0s3.467-2.312 3.467 0z" fill="#302c3b"/><path d="m47.602 47.857-14.737-.866v-.867l14.737.867z" fill="#bec3cf"/><path d="m47.602 52.191-14.735.866v-.866l14.735-.867z" fill="#bec3cf"/><path d="m50.201 49.591c0 3.468-5.201 3.468-5.201 0 0-3.467 5.201-3.467 5.201 0z" fill="#302c3b"/><path d="m32.865 53.057c-4.619 0-4.619-6.934 0-6.934 4.625.001 4.625 6.934 0 6.934z" fill="#302c3b"/><path d="m27.667 55.658h6.067v1.732h-6.067z" fill="#99a8ae"/><path d="m31.134 55.658h-1.734l2.6-6.067h1.734z" fill="#6e8189"/><path d="m33.734 49.594c0 1.153-1.735 1.153-1.735 0 .001-1.16 1.735-1.16 1.735 0z" fill="#99a8ae"/><path d="m43.268 36.591c-1.732.867-3.467-.866-6.934-.866 0 0 0-1.733 1.732-1.733 3.574 0 4.711-.679 6.068 0 1.733.865.229 2.05-.866 2.599z" fill="#302c3b"/><path d="m32.25 40.281c-.444 1.82 2.053 6.223.764 12.432h3.658c-.961-6.209.582-7.484.15-12.104 0 0-4.03-2.543-4.572-.328z" fill="#614a36"/><path d="m36.582 52.035c-2.252.848-2.684.557-3.51.267-1.072.666-4.572 1.38-5.606 2.468-.149.154 0 .889 0 .889h9.776c0-.001.096-3.909-.66-3.624z" fill="#302c3b"/><path d="m44.338 28.325c-4.254-9.16-15.709-11.363-17.064-7.874-.912 2.352 5.388 4.652 9.062 9.207-1.416 2.6-3.146 7.689-4.61 10.945 0 0 2.264-.123 5.477 1.119 1.586-4.54 9.588-8.118 7.135-13.397z" fill="#7ab51d"/><path d="m35.729 41.223-1.703-.412c.818-3.713 2.814-5.92 4.416-7.691 1.412-1.559 2.199-2.497 1.996-3.646-.488-2.763-4.047-5.42-10.02-7.484l.566-1.639c4.665 1.612 10.385 4.451 11.159 8.82.363 2.042-.926 3.465-2.414 5.112-1.543 1.703-3.282 3.677-4 6.94z" fill="#89cc14"/><path d="m27.807 26.286c.135.769.248 1.434.295 1.899-2.764 1.435-3.465 2.133-6.053.605-1.732-1.023-5.092-1.105-4.377 2.424.307 1.516 2.217-2.546 2.949-1.139 1.154 2.221 1.561 1.748 3.201 1.662 3.891-.205 7.902-.348 7.752-1.84-.092-.904.184-1.774.146-3.018z" fill="#614a36"/><path d="m31.527 21.568c-.461-3.404-4.611-2.871-4.406-.074.117 1.607.287 4.139.535 5.55l4.328.151c-.056-1.879-.227-3.909-.457-5.627z" fill="#529320"/><path d="m21.602 30.529c0 2.304-3.467 2.304-3.467 0 0-2.317 3.467-2.317 3.467 0z" fill="#302c3b"/><path d="m20.734 30.525c0 1.154-1.734 1.154-1.734 0 0-1.157 1.734-1.157 1.734 0z" fill="#99a8ae"/></svg>