<svg enable-background="new 0 0 64 64" height="64" viewBox="0 0 64 64" width="64" xmlns="http://www.w3.org/2000/svg"><path d="m16.378 55.636s-.596.072-.291.34c3.877 3.393 8.947 6.025 8.947 6.025.293-.113.289-.443.289-.443z" fill="#6e8189"/><path d="m24.38 56.983c-4.373-1.709-7.33-2.521-8.002-1.348 4.914 3.92 8.945 5.922 8.945 5.922 2.096-1.865.889-3.49-.943-4.574z" fill="#99a8ae"/><path d="m19.697 55.397c.385 1.219.861 1.662 1.217 1.143.334.682.809.527.984.199.447.566.932.156.553-.793-.231-.517-2.858-.877-2.754-.549z" fill="#1a1626"/><path d="m40.087 61.558s-.234.307.086.443c4.076-.305 7.826-7.414 7.826-7.414 0-.283-.262-.453-.262-.453z" fill="#6e8189"/><path d="m43.608 54.712c-3.215 4.313-3.799 5.809-3.521 6.846 3.914-.408 7.65-7.424 7.65-7.424-1.972-3.25-3.56-.184-4.129.578z" fill="#99a8ae"/><path d="m40.942 58.542c1.268-.021 1.832-.352 1.451-.846.746-.125.744-.629.49-.896.672-.266.432-.855-.576-.764-.56.074-1.706 2.512-1.365 2.506z" fill="#1a1626"/><path d="m36.874 32.306c-8.222-1.227-7.5 2.283-7.5 2.283 1.205 6.003 3.816 13.25 4.806 14.496.826 1.041 4.754 3.682 7.836 7.32 2.154-1.021 6.002-2.369 4.951-3.396-3.998-3.91-7.848-7.383-7.848-7.383-2.729-4.419-3.458-9.166-2.245-13.32z" fill="#1a1626"/><path d="m37.007 32.205s-4.773-3.007-6.712 1.799c-.666 4.633-4.568 9.126-5.252 10.58-.746 1.59-1.355 6.999-3.34 10.944 2.236 1.801 4.307 6.086 4.727 4.73 1.867-6.021 4.059-13.423 4.059-13.423 5.864-8.126 8.811-7.25 6.518-14.63z" fill="#302c3b"/><path d="m29.941 25.159c-2.189 2.623-3.588 4.831-4.605 5.646-.395.314-1.389 1.164-1.744 1.922-.256.545-.768 2.435.074 3.403.758.872 1.084-2.304 1.908-2.069-.531 1.304.129 1.868.533 1.085.711-1.372.504-1.896.465-2.497-.031-.469 1.357-2.125 3.369-3.656z" fill="#614a36"/><path d="m46.278 17.11c-.506-.117-1.008-1.017-1.391-2.154.479.187 1.023.256 1.654.134-4.48-2.718-.684-13.586-7.715-10.758l.374 3.102c2.668-1.738-1.006 5.145 2.633 7.068-.359-.356-.359-1.103-.264-1.985.698 2.534 1.899 4.936 4.709 4.593z" fill="#38332d"/><path d="m46.278 17.11c-.506-.117-2.021-1.387-2.404-2.524 1.307.788 2.072.903 2.668.504-5.346-1.74-1.777-11.563-7.336-9.044l-.006 1.388c2.668-1.738-1.006 5.145 2.633 7.068-1.045-1.132-.971-2.091-.557-2.688.698 2.533 2.192 5.639 5.002 5.296z" fill="#26221e"/><path d="m38.466 4.329c-1.012.554-.779 3.377 1.111 3.491 1.551.098.231-4.231-1.111-3.491z" fill="#8e3ed6"/><path d="m31.476 15.344c1.611-.649.604 3.207.59 3.567 0 0 1.515-2.199 4.789-2.24 0 0-.348-1.326-.482-3.465.358-5.874-4.897 2.138-4.897 2.138z" fill="#423225"/><path d="m27.812 5.549c-.344.816-.516 1.754-.35 2.533.256 1.2-.299 1.79-1.221 2.61-.877.777.098 1.48 1.033 1.474.191.275.033.548.033.548.748.649.73 1.647.387 1.92 0 0 .23.118.186.546-.125 1.225.635 1.597 2.459 1.005 3.601-1.17 3.894-3.865 3.894-3.865.736 1.043 2.951-.735 3.012-2.905.109-3.603-2.988-8.798-9.433-3.866z" fill="#614a36"/><path d="m34.286 10.597c-.002-.885.713-1.659 1.438-1.665 0 0-1.236 1.06-.914 2.479 0 0-.522-.197-.524-.814z" fill="#423225"/><path d="m30.308 9.676c-.471.543-1.631.849-2.018.771-.939-2.819 1.401-1.96 2.018-.771z" fill="#f5f5f5"/><path d="m28.333 10.454c1.107-.036.488-3.005-.262-1.391-.04.282.04 1.399.262 1.391z" fill="#45332c"/><path d="m30.308 9.676c-.299-1.104-2.207-1.899-2.236-.612.301-.698 1.652-.251 2.236.612z" fill="#45332c"/><path d="m28.408 9.094c.006.272.396.26.391-.013-.008-.25-.399-.238-.391.013z" fill="#f5f5f5"/><path d="m30.593 7.938c-.746-.592-2.275-.542-2.836-.162-.123.073-.002.5.092.439.629-.399 1.818-.525 2.721-.098.099.048.138-.096.023-.179z" fill="#423225"/><path d="m27.634 13.27c.34.235 0 .623 0 .623-.309-.012-.311.825.061.741 1.08-.249 2.031-1.053 2.068-1.371-.213.008-1.834-.054-2.455-.549 0 0-.06.339.326.556z" fill="#36281d"/><path d="m27.634 13.27v.623c.271.011 1.303-.202 1.863-.548.001 0-1.201.155-1.863-.075z" fill="#fff"/><path d="m38.942 6.047c-.134-2.52-2.619-4.047-5.652-4.048-3.925-.003-5.935 2.364-5.478 3.55 4.518-2.18 4.838 6.296 6.582 3.512.875-1.394 2.879-.639 2.463 1.26-.418 1.918-1.607 2.223-1.607 2.223.473.888 1.084 1.005 1.084 1.005 3.077-.47 4.724-6.336 2.608-7.502z" fill="#38332d"/><path d="m38.942 6.047c-.135-2.52-4.391-3.687-5.795-3.415 2.035.335 4.412 1.667 4.678 2.505-1.67-.468-4.141-1.475-6.992-1.334 1.73.241 3.154 1.69 6.679 2.296 0 0-2.574.531-5.365-.647.75 1.01 2.792 1.973 3.796 2.277-1.131.057-2.4-.071-5.021-1.831 1.732 1.581 2.255 5.102 3.47 3.163.875-1.394 2.879-.639 2.463 1.26-.418 1.918-1.607 2.223-1.607 2.223.473.888 1.084 1.005 1.084 1.005 3.079-.47 4.726-6.336 2.61-7.502z" fill="#26221e"/><path d="m28.101 11.719c-.145.373-.711.467-1.049.454-.451-.017-.879-.25-1.068-.571.182-.373 1.137.604 2.117.117z" fill="#423225"/><path d="m37.007 32.205s-3.125.166-7.699 2.416c-.369-3.467.547-8.082.266-8.227-4.867-2.5 1.41-6.284 2.047-7.976.127-.34.463-.699.688-.95-.244 2.534 2.601-3.041 5.214-.459 1.931 5.244-1.838 8.594-.516 15.196z" fill="#8e3ed6"/><path d="m42.208 25.119c-.168-.466-1.104-2.16-2.049-3.822-1.08.53-1.881.94-2.912 1.532.924 1.263 2.299 2.867 2.377 3.508.334 2.741.676 4.653.42 7.343-.041.438-1.152.708-1.744 2.927-.256.955.768.931 1.266-.57.895.37-1.17 3.353.137 3.121 1.447-.257 2.582-2.404 2.764-3.055.16-.582-.186-1.79-.197-2.33-.066-2.646.231-7.835-.062-8.654z" fill="#614a36"/><path d="m41.146 22.577c-.748-1.403-1.803-3.229-3.066-5.202-1.361-2.123-4.57-.15-3.469 2.131.6 1.239 1.555 2.889 3.07 5.098 1.076-.767 2.242-1.45 3.465-2.027z" fill="#5d1e96"/></svg>