<svg enable-background="new 0 0 64 64" height="64" viewBox="0 0 64 64" width="64" xmlns="http://www.w3.org/2000/svg"><path d="m23.777 18.852c1.54-1.39 3.149.635 3.278 1.045 0 0 3.709-2.239 2.85-4.729-5.115-5.42-6.128 3.684-6.128 3.684z" fill="#755035"/><path d="m15.843 10.104c-.012 1.026.307 1.765.81 2.533.784 1.182.456 2.059-.151 3.344-.583 1.22.733 1.552 1.71 1.137.314.215.431.716.431.716s.972.295.772 1.621c1.082.456.227 2.371 2.186 1.644 1.913-.712 3.843-3.164 4.104-3.757.414-.938-.172-3.089-.172-3.089 1.219.803 2.502-1.96 1.638-4.329-1.434-3.927-6.721-7.94-11.328.18z" fill="#916b50"/><path d="m24.586 11.745c-.383-.922.038-2.037.791-2.351 0 0-.84 1.633.1 2.98 0 .001-.627.015-.891-.629z" fill="#755035"/><path d="m20.519 12.965c-.307.748-1.437 1.493-1.88 1.549-2.014-2.678.794-2.597 1.88-1.549z" fill="#f5f5f5"/><path d="m18.69 14.505c1.168-.433-.554-3.388-.778-1.394.054.319.541 1.482.778 1.394z" fill="#45332c"/><path d="m20.519 12.965c-.718-1.072-3.039-1.24-2.608.146.071-.851 1.671-.858 2.608-.146z" fill="#755035"/><path d="m18.28 13.025c.104.289.518.134.414-.153-.098-.268-.513-.115-.414.153z" fill="#f5f5f5"/><path d="m19.94 10.915c-1.03-.301-2.598.247-3.022.883-.1.127.193.668.276.576.648-.747 1.945-1.242 2.885-1.026.122.025.017-.393-.139-.433z" fill="#664129"/><path d="m18.833 18.246c.459.104.311.604.311.604-.18.065.007.703.271.605 1.321-.492 1.505-1.545 1.683-2.164-1.481.46-3.2.266-2.265.955z" fill="#664129"/><path d="m18.833 18.246s.214.546.311.604c.288-.106 1.278-.738 1.711-1.355z" fill="#fff"/><path d="m27.146 3.948c-1.435-1.253-12.492.584-11.305 6.155 3.963-3.432 4.826-1.906 6.354-1.002.351.213.084 1.83 1.784 2.737-.845-3.1 2.772-4.124 3.318-1.373.349 1.765-.136 2.74-.399 3.273.742-.042 1.848.39 1.848.39 2.772-2.521 1.005-9.372-1.6-10.18z" fill="#614036"/><path d="m18.88 16.277c.01.463-.541.813-.897.943-.48.18-1.025.115-1.36-.147.03-.482 1.444.156 2.257-.796z" fill="#755035"/><path d="m28.284 8.354s-1.151-.263-1.118.017c.132 1.163-.563 3.971-.563 3.971s-3.1-1.477-4.482-4.502c-.117-.26-.892.379-.921.66-.17 1.707 5.004 5.129 5.004 5.129s-1.342 4.639-2.486 6.081c4.014-1.465 4.566-11.356 4.566-11.356z" fill="#302c3b"/><path d="m14.975 8.156s-.189-.07-2.385 1.504c0 0 3.397 1.963 8.654-.149z" fill="#302c3b"/><path d="m33.396 4.475c-16.904-7.227-18.421 3.681-18.421 3.681 12.207 4.201 18.199-.361 18.199-.361l-1.699-.654s1.548-1.235 1.921-2.666z" fill="#e81c27"/><g fill="#b00505"><path d="m16.918 7.518c1.824-3.67 4.779-4.996 7.898-4.189-5.318 1.519-7.898 4.189-7.898 4.189z"/><path d="m19.516 6.742c2.869-2.033 5.004-2.566 9.71-2.275-4.011 2.745-9.71 2.275-9.71 2.275z"/><path d="m19.166 7.878c2.49-.862 5.979-1.188 8.516-.533-3.369 2.046-8.516.533-8.516.533z"/></g><path d="m28.262 31.818c-.894 3.856 2.256 3.461 6.271 10.188l1.934-2.93c-2.637-2.761-1.303-3.397-3.064-6.718z" fill="#755035"/><path d="m39.654 32.421-2.654-5.422c-2.615 1.5-6.764 2.455-8.951 4.651 0 0 1.688 1.697 6.324 3.226 1.949-.776 5.281-2.455 5.281-2.455z" fill="#529320"/><path d="m21 27.999c-.717-.336-3-1-3-1v2l1.883.471-.883 3.529 2 1 1-4s1.565-.798-1-2z" fill="#302c3b"/><path d="m14 38.999c-6.076 0-11 4.924-11 11s4.924 11 11 11c6.074 0 11-4.924 11-11s-4.926-11-11-11zm0 20c-4.971 0-9-4.029-9-9 0-4.972 4.029-9 9-9s9 4.028 9 9c0 4.971-4.029 9-9 9z" fill="#99a8ae"/><path d="m50 38.999c-6.076 0-11 4.924-11 11s4.924 11 11 11c6.074 0 11-4.924 11-11s-4.926-11-11-11zm0 20c-4.971 0-9-4.029-9-9 0-4.972 4.029-9 9-9s9 4.028 9 9c0 4.971-4.029 9-9 9z" fill="#99a8ae"/><path d="m14 37.999c-6.627 0-12 5.373-12 12s5.373 12 12 12 12-5.373 12-12c0-6.626-5.373-12-12-12zm0 22c-5.523 0-10-4.478-10-10s4.477-10 10-10 10 4.478 10 10c0 5.524-4.477 10-10 10z" fill="#302c3b"/><path d="m50 37.999c-6.627 0-12 5.373-12 12s5.373 12 12 12 12-5.373 12-12c0-6.626-5.373-12-12-12zm0 22c-5.523 0-10-4.478-10-10s4.477-10 10-10 10 4.478 10 10c0 5.524-4.477 10-10 10z" fill="#302c3b"/><path d="m50.66 49.232-10.139-12.041 1.373-2.744c.246-.494-1.543-1.389-1.789-.896l-1.316 2.634-19.494-4.367-6.238 17.85c-.396 1.121 1.525 1.684 1.887.666l5.385-15.26 11.877 15.533c.008.012.022.016.03.024.087.104.619.367.765.367h17 .021c.55.001.859-1.583.638-1.766zm-12.793-11.203-5.047 10.092-10.355-13.545zm-3.25 10.97 4.932-9.858 8.301 9.858z" fill="#0fb4d4"/><path d="m16 49.999c0 2.668-4 2.668-4 0 0-2.667 4-2.667 4 0z" fill="#302c3b"/><path d="m50 47.999-17.002-1v-1l17.002 1z" fill="#bec3cf"/><path d="m50 52.999-17 1v-1l17-1z" fill="#bec3cf"/><path d="m53 49.999c0 4-6 4-6 0s6-4 6 0z" fill="#302c3b"/><path d="m32.998 53.999c-5.33 0-5.33-8 0-8 5.336 0 5.336 8 0 8z" fill="#302c3b"/><path d="m27 56.999h7v2h-7z" fill="#99a8ae"/><path d="m31 56.999h-2l3-7h2z" fill="#6e8189"/><path d="m34 50.003c0 1.33-2 1.33-2 0 0-1.338 2-1.338 2 0z" fill="#99a8ae"/><path d="m45 34.999c-2 1-4-1-8-1 0 0 0-2 2-2 4.123 0 5.434-.783 7 0 2 1 .264 2.368-1 3z" fill="#302c3b"/><path d="m32.287 39.257c-.514 2.101 2.369 7.181.883 14.345h4.221c-1.108-7.164.672-8.638.172-13.966 0 0-4.649-2.933-5.276-.379z" fill="#916b50"/><path d="m37.285 52.82c-2.598.979-3.096.643-4.049.309-1.236.768-5.275 1.592-6.469 2.846-.172.181 0 1.025 0 1.025h11.28c.002-.001.111-4.508-.762-4.18z" fill="#302c3b"/><path d="m46.236 25.462c-4.909-10.569-18.127-13.11-19.691-9.086-1.053 2.713 6.217 5.369 10.455 10.623-1.633 3-3.631 8.873-5.318 12.631 0 0 2.611-.144 6.318 1.291 1.832-5.239 11.064-9.366 8.236-15.459z" fill="#7ab51d"/><path d="m36.301 40.345-1.965-.477c.945-4.285 3.246-6.83 5.096-8.875 1.629-1.8 2.537-2.882 2.303-4.207-.564-3.188-4.67-6.254-11.561-8.638l.654-1.891c5.381 1.861 11.982 5.137 12.875 10.178.418 2.355-1.068 3.998-2.787 5.899-1.779 1.968-3.785 4.246-4.615 8.011z" fill="#89cc14"/><path d="m27.16 23.109c.156.887.287 1.654.34 2.19-3.188 1.656-3.996 2.464-6.982.699-2-1.183-5.875-1.274-5.051 2.797.354 1.748 2.559-2.938 3.402-1.313 1.332 2.563 1.801 2.018 3.693 1.918 4.49-.236 9.12-.4 8.945-2.123-.104-1.043.214-2.047.17-3.481z" fill="#916b50"/><path d="m31.453 17.665c-.531-3.929-5.32-3.313-5.084-.086.135 1.856.332 4.774.619 6.403l4.992.175c-.064-2.165-.259-4.509-.527-6.492z" fill="#529320"/><path d="m20 28.005c0 2.658-4 2.658-4 0 0-2.673 4-2.673 4 0z" fill="#302c3b"/><path d="m19 28.001c0 1.33-2 1.33-2 0 0-1.336 2-1.336 2 0z" fill="#99a8ae"/></svg>