<svg enable-background="new 0 0 64 64" height="64" viewBox="0 0 64 64" width="64" xmlns="http://www.w3.org/2000/svg" xmlns:xlink="http://www.w3.org/1999/xlink"><linearGradient id="a" gradientUnits="userSpaceOnUse" x1="32" x2="32" y1="2" y2="62"><stop offset="0" stop-color="#00abf1"/><stop offset=".2292" stop-color="#00a7ef"/><stop offset=".4667" stop-color="#009ae9"/><stop offset=".7079" stop-color="#0086e0"/><stop offset=".9504" stop-color="#0069d3"/><stop offset="1" stop-color="#0062d0"/></linearGradient><path d="m62 54c0 4.4-3.6 8-8 8h-44c-4.4 0-8-3.6-8-8v-44c0-4.4 3.6-8 8-8h44c4.4 0 8 3.6 8 8z" fill="url(#a)"/><g fill="#fff"><circle cx="32" cy="14.438" r="4.5"/><path d="m39.93 33.728c.626 1.72 3.093.822 2.467-.897 0 0 0 0-3.547-9.745-.895-2.457-2.687-3.148-4.35-3.148-2.855 0-3.019 0-5 0-1.663 0-3.455.691-4.35 3.148-3.547 9.745-3.547 9.745-3.547 9.745-.626 1.72 1.84 2.618 2.466.898l2.791-7.666h.765l-5 15.625h5v10.65c0 2.3 3.938 2.3 3.938 0v-10.65h.875v10.65c0 2.3 3.938 2.3 3.938 0v-10.65h5l-5-15.625h.765z"/></g></svg>