<svg enable-background="new 0 0 64 64" height="64" viewBox="0 0 64 64" width="64" xmlns="http://www.w3.org/2000/svg" xmlns:xlink="http://www.w3.org/1999/xlink"><linearGradient id="a" gradientTransform="matrix(1 0 0 1.3838 0 225.0594)" gradientUnits="userSpaceOnUse" x1="5" x2="59" y1="-123.3926" y2="-123.3926"><stop offset="0" stop-color="#8a6859"/><stop offset=".1199" stop-color="#7f5f50"/><stop offset=".3346" stop-color="#725345"/><stop offset=".5333" stop-color="#6e4f41"/></linearGradient><linearGradient id="b" gradientTransform="matrix(1 0 0 1.3838 0 225.0594)" gradientUnits="userSpaceOnUse" x1="7.3228" x2="56.6797" y1="-125.478" y2="-125.478"><stop offset="0" stop-color="#8a6859"/><stop offset=".01" stop-color="#896758"/><stop offset=".2818" stop-color="#7c5a4b"/><stop offset=".5333" stop-color="#785647"/></linearGradient><radialGradient id="c" cx="32" cy="42.1494" gradientTransform="matrix(1 0 0 1.0115 0 5.863)" gradientUnits="userSpaceOnUse" r="16.8384"><stop offset="0" stop-color="#fada72"/><stop offset=".2521" stop-color="#f8d56c"/><stop offset=".601" stop-color="#f3c65a"/><stop offset="1" stop-color="#ebaf3d"/></radialGradient><radialGradient id="d" cx="32.1685" cy="30.0898" gradientTransform="matrix(1 0 0 .7702 0 24.2486)" gradientUnits="userSpaceOnUse" r="37.756"><stop offset="0" stop-color="#fada72"/><stop offset=".1461" stop-color="#f9d76e"/><stop offset=".2932" stop-color="#f5cd62"/><stop offset=".4403" stop-color="#f0bd4e"/><stop offset=".5333" stop-color="#ebaf3d"/><stop offset=".618" stop-color="#f3c65a"/><stop offset=".692" stop-color="#f8d56c"/><stop offset=".7455" stop-color="#fada72"/></radialGradient><linearGradient id="e" gradientTransform="matrix(.4073 0 0 1.5589 -147.6841 250.8463)" gradientUnits="userSpaceOnUse" x1="438.8203" x2="443.5029" y1="-147.5513" y2="-147.5513"><stop offset="0" stop-color="#f7c04f"/><stop offset=".2553" stop-color="#f5bc49"/><stop offset=".6084" stop-color="#eeb137"/><stop offset="1" stop-color="#e3a01b"/></linearGradient><linearGradient id="f" gradientTransform="matrix(-1 0 0 -.5317 -497.0625 -712.241)" gradientUnits="userSpaceOnUse" x1="-531.4448" x2="-526.707" y1="-1374.5938" y2="-1374.5938"><stop offset="0" stop-color="#e3a01b"/><stop offset=".3916" stop-color="#eeb137"/><stop offset=".7447" stop-color="#f5bc49"/><stop offset="1" stop-color="#f7c04f"/></linearGradient><linearGradient id="g"><stop offset="0" stop-color="#f2dc6b"/><stop offset=".2086" stop-color="#f1d765"/><stop offset=".4971" stop-color="#edc953"/><stop offset=".8309" stop-color="#e7b136"/><stop offset="1" stop-color="#e3a324"/></linearGradient><linearGradient id="h" gradientTransform="matrix(1 0 0 .4009 0 -291.9858)" gradientUnits="userSpaceOnUse" x1="28" x2="36.0283" xlink:href="#g" y1="771.1621" y2="771.1621"/><linearGradient id="i" gradientTransform="matrix(1 0 0 1.0632 0 15.224)" gradientUnits="userSpaceOnUse" x1="28.0352" x2="35.9668" xlink:href="#g" y1="9.7129" y2="9.7129"/><linearGradient id="j" gradientTransform="matrix(1 0 0 1.0632 0 15.224)" gradientUnits="userSpaceOnUse" x1="29.6445" x2="34.3828" xlink:href="#g" y1="7.8633" y2="7.8633"/><linearGradient id="k"><stop offset="0" stop-color="#fff" stop-opacity=".5"/><stop offset="1" stop-color="#fff" stop-opacity="0"/></linearGradient><radialGradient id="l" cx="558.3877" cy="45.1338" gradientTransform="matrix(.3583 .4604 -.7152 .5447 -151.4179 -250.6946)" gradientUnits="userSpaceOnUse" r="24.6098" xlink:href="#k"/><radialGradient id="m" cx="-450.8574" cy="-633.9336" gradientTransform="matrix(-.4654 .3545 -.5506 -.7076 -507.1209 -252.835)" gradientUnits="userSpaceOnUse" r="14.9088" xlink:href="#k"/><path d="m59 57.744c0 5.674-54 5.674-54 0 0-14.824 54-14.824 54 0z" fill="url(#a)"/><path d="m56.68 52.98c0 5.189-49.357 5.189-49.357 0 0-9.332 49.357-9.332 49.357 0z" fill="url(#b)"/><path d="m55.476 49.713c0 3.768-46.951 3.768-46.951 0-.001-7.008 46.951-7.008 46.951 0z" fill="url(#c)"/><path d="m54.144 48.109c0 2.971-44.286 2.971-44.286 0 0-4.099 44.286-4.099 44.286 0z" fill="#ad7743"/><path d="m55.476 45.932c0 3.764-46.951 3.764-46.951 0 0-13.695 10.51-19.271 23.477-19.271 12.964 0 23.474 5.575 23.474 19.271z" fill="url(#d)"/><path d="m34.836 27.087c0 .454-5.644.454-5.644 0 0-3.087 5.644-3.087 5.644 0z" fill="#ad7743"/><path d="m31.047 18.985h1.907v3.688h-1.907z" fill="url(#e)"/><path d="m29.672 18.005c.495-.212 4.214-.196 4.681 0 .108.045-.114 1.188-.234 1.255-.329.196-3.87.202-4.21 0-.12-.067-.343-1.21-.237-1.255z" fill="url(#f)"/><path d="m35.98 18.151c-.839.269-7.141.252-7.933 0-.18-.056.197-1.519.4-1.608 1.631-.717 5.48-.729 7.133 0 .203.089.582 1.552.4 1.608z" fill="url(#h)"/><path d="m35.919 26.147c-.827.704-7.054.667-7.836 0-.179-.149.193-.983.394-1.217.55-.638 6.478-.667 7.047 0 .201.234.575 1.068.395 1.217z" fill="url(#i)"/><path d="m34.354 24.835c-.495.42-4.214.398-4.681 0-.106-.09.116-2.375.236-2.516.329-.381 3.87-.398 4.21 0 .12.14.343 2.426.235 2.516z" fill="url(#j)"/><path d="m25.919 43.563c-5.023 3.83-11.136 4.309-13.65 1.074-2.52-3.236-.489-8.959 4.535-12.783 5.023-3.83 11.137-4.309 13.656-1.075 2.52 3.237.483 8.963-4.541 12.784z" fill="url(#l)"/><path d="m44.052 41.615c-2.345-3.01-2.636-6.674-.656-8.18 1.979-1.51 5.484-.293 7.827 2.717 2.344 3.01 2.636 6.674.655 8.184-1.982 1.51-5.486.289-7.826-2.721z" fill="url(#m)"/></svg>