<svg enable-background="new 0 0 64 64" height="64" viewBox="0 0 64 64" width="64" xmlns="http://www.w3.org/2000/svg" xmlns:xlink="http://www.w3.org/1999/xlink"><linearGradient id="a"><stop offset="0" stop-color="#889194"/><stop offset=".0367" stop-color="#949ca0"/><stop offset=".1982" stop-color="#c2cace"/><stop offset=".3226" stop-color="#dee6ea"/><stop offset=".3939" stop-color="#e9f0f5"/><stop offset=".6433" stop-color="#b5bec1"/><stop offset=".8485" stop-color="#889194"/></linearGradient><linearGradient id="b" gradientUnits="userSpaceOnUse" x1="50.291" x2="62" xlink:href="#a" y1="58.3047" y2="58.3047"/><linearGradient id="c" gradientUnits="userSpaceOnUse" x1="50.291" x2="62" y1="56.6094" y2="56.6094"><stop offset="0" stop-color="#e9f0f5"/><stop offset=".5486" stop-color="#b5bec1"/><stop offset="1" stop-color="#889194"/></linearGradient><radialGradient id="d" cx="55.4268" cy="32.0635" gradientTransform="matrix(.9757 0 0 .9968 -4.5614 1.6085)" gradientUnits="userSpaceOnUse" r="17.8618"><stop offset="0" stop-color="#abbdc5"/><stop offset=".2599" stop-color="#a7b8c0"/><stop offset=".5664" stop-color="#9aaab2"/><stop offset=".8952" stop-color="#86949a"/><stop offset="1" stop-color="#7e8b91"/></radialGradient><linearGradient id="e" gradientUnits="userSpaceOnUse" x1="30" x2="47.5605" xlink:href="#a" y1="16.0044" y2="16.0044"/><linearGradient id="f"><stop offset="0" stop-color="#5b666e"/><stop offset=".4872" stop-color="#454853"/><stop offset="1" stop-color="#302c3b"/></linearGradient><linearGradient id="g" gradientUnits="userSpaceOnUse" x1="7.1699" x2="9.4277" xlink:href="#f" y1="59.3945" y2="59.3945"/><linearGradient id="h" gradientUnits="userSpaceOnUse" x1="46.5703" x2="48.8301" xlink:href="#f" y1="59.3945" y2="59.3945"/><linearGradient id="i"><stop offset="0" stop-color="#0078bf"/><stop offset="1" stop-color="#00588c"/></linearGradient><linearGradient id="j" gradientUnits="userSpaceOnUse" x1="7.8696" x2="7.8696" xlink:href="#i" y1="55.7021" y2="41.1689"/><linearGradient id="k"><stop offset="0" stop-color="#006cad"/><stop offset=".2519" stop-color="#006fb2"/><stop offset=".5484" stop-color="#0078c0"/><stop offset=".8663" stop-color="#0087d8"/><stop offset=".903" stop-color="#0089db"/></linearGradient><linearGradient id="l" gradientUnits="userSpaceOnUse" x1="3.5229" x2="3.5229" xlink:href="#k" y1="58.1709" y2="43.9844"/><linearGradient id="m"><stop offset=".097" stop-color="#0089db"/><stop offset=".1337" stop-color="#0087d8"/><stop offset=".4516" stop-color="#0078c0"/><stop offset=".7481" stop-color="#006fb2"/><stop offset="1" stop-color="#006cad"/></linearGradient><linearGradient id="n" gradientUnits="userSpaceOnUse" x1="6.3296" x2="7.1141" xlink:href="#m" y1="44.876" y2="40.4265"/><linearGradient id="o" gradientTransform="matrix(-1 0 0 1 -301.0547 0)" gradientUnits="userSpaceOnUse" x1="-349.1851" x2="-349.1851" xlink:href="#i" y1="55.7021" y2="41.1689"/><linearGradient id="p" gradientTransform="matrix(-1 0 0 1 -301.0547 0)" gradientUnits="userSpaceOnUse" x1="-353.5317" x2="-353.5317" xlink:href="#k" y1="58.1709" y2="43.9844"/><linearGradient id="q" gradientTransform="matrix(-1 0 0 1 -301.0547 0)" gradientUnits="userSpaceOnUse" x1="-350.7246" x2="-349.94" xlink:href="#m" y1="44.876" y2="40.4261"/><linearGradient id="r" gradientUnits="userSpaceOnUse" x1="28" x2="28" y1="58.1699" y2="54.2676"><stop offset="0" stop-color="#006cad"/><stop offset=".2768" stop-color="#006fb2"/><stop offset=".602" stop-color="#0078c0"/><stop offset=".903" stop-color="#0085d4"/></linearGradient><linearGradient id="s" gradientUnits="userSpaceOnUse" x1="28.0005" x2="28.0005" xlink:href="#k" y1="54.7305" y2="50.5508"/><linearGradient id="t"><stop offset="0" stop-color="#0073b8"/><stop offset=".4164" stop-color="#006bac"/><stop offset="1" stop-color="#005c94"/></linearGradient><radialGradient id="u" cx="35.5967" cy="-3.7627" gradientTransform="matrix(1 0 0 .743 0 42.1221)" gradientUnits="userSpaceOnUse" r="11.1757" xlink:href="#t"/><radialGradient id="v" cx="16.6382" cy="-3.4912" gradientTransform="matrix(1 0 0 .7596 0 42.2325)" gradientUnits="userSpaceOnUse" r="12.0327" xlink:href="#t"/><linearGradient id="w"><stop offset="0" stop-color="#827b8f"/><stop offset=".2425" stop-color="#8b8597"/><stop offset=".6469" stop-color="#a29eac"/><stop offset="1" stop-color="#bcbac3"/></linearGradient><linearGradient id="x" gradientUnits="userSpaceOnUse" x1="49.1133" x2="42.7388" xlink:href="#w" y1="47.877" y2="41.815"/><linearGradient id="y" gradientUnits="userSpaceOnUse" x1="5.9473" x2="13.5724" xlink:href="#w" y1="47.8926" y2="42.205"/><path d="m50.291 56.608v2.262c0 1.506 11.709 1.506 11.709 0v-2.262z" fill="url(#b)"/><path d="m62 56.608c0 1.508-11.709 1.508-11.709 0 0-1.505 11.709-1.505 11.709 0z" fill="url(#c)"/><path d="m57.162 56.534h-1.463c0-.705.238-1.955.602-3.848 1.406-7.352 4.336-22.65-2.359-32.337-3.1-4.486-7.99-7.268-14.531-8.264l.217-1.48c6.951 1.061 12.17 4.049 15.512 8.883 7.055 10.209 4.045 25.929 2.598 33.486-.322 1.675-.576 3-.576 3.56z" fill="url(#d)"/><path d="m40.244 11.496c0 1.994-2.928 1.994-2.928 0s2.928-1.995 2.928 0z" fill="#99a8ae"/><path d="m30 12.515v7.975h17.561v-7.975c0-1.328-17.561-1.328-17.561 0z" fill="url(#e)"/><path d="m47.561 20.49c0 1.33-17.561 1.33-17.561 0 0-1.328 17.561-1.328 17.561 0z" fill="#ffe463"/><path d="m46.686 20.242c0 .996-15.809.996-15.809 0s15.809-.996 15.809 0z" fill="#fffedb"/><path d="m9.428 56.79s-.274 3.65-.314 4.438c-.052 1.028-1.576 1.028-1.629 0-.04-.788-.315-4.438-.315-4.438z" fill="url(#g)"/><path d="m48.83 56.79s-.275 3.65-.314 4.438c-.053 1.028-1.578 1.028-1.629 0-.04-.788-.316-4.438-.316-4.438z" fill="url(#h)"/><path d="m11.327 41.169s-4.995 1.551-6.499 3.188c-.268.29-.709 11.346-.137 11.346 6.063-.001 6.636-6.662 6.636-14.534z" fill="url(#j)"/><path d="m5.037 44.454c.184-.166-2.59-.662-2.904-.39-.299.263 0 13.107 0 13.894 0 .301 2.904.266 2.904 0 0-1.486-.297-13.24 0-13.504z" fill="url(#l)"/><path d="m11.327 41.169s-2.054-.121-2.723 0c-1.76.318-5.563 2.085-6.472 2.896-.143.128 2.756.521 2.904.39 1.336-1.194 6.291-3.286 6.291-3.286z" fill="url(#n)"/><path d="m44.673 41.169s4.995 1.551 6.499 3.188c.268.29.709 11.346.137 11.346-6.062-.001-6.636-6.662-6.636-14.534z" fill="url(#o)"/><path d="m50.963 44.454c-.184-.166 2.59-.662 2.904-.39.299.263 0 13.107 0 13.894 0 .301-2.904.266-2.904 0 0-1.486.297-13.24 0-13.504z" fill="url(#p)"/><path d="m44.673 41.169s2.054-.121 2.722 0c1.761.318 5.564 2.085 6.473 2.896.143.128-2.757.521-2.904.39-1.336-1.194-6.291-3.286-6.291-3.286z" fill="url(#q)"/><path d="m50.697 54.273c-1.323 0-44.071-.006-45.395-.006-.93 0-.705 3.902-.271 3.902h45.936c.434.001.66-3.896-.27-3.896z" fill="url(#r)"/><path d="m45.604 46.549c-1.064 0-34.143-.007-35.208-.007-.833 0-4.854 2.555-5.587 4.102-.234.496 46.617.503 46.383.007-.733-1.548-4.754-4.102-5.588-4.102z" fill="#0089db"/><path d="m51.191 50.65c-.067-.128-46.314-.136-46.383-.007-.342.651-.061 3.355.157 3.709.308.499 45.761.506 46.068.007.218-.352.501-3.056.158-3.709z" fill="url(#s)"/><path d="m46.365 45.81c.043-1.898-.49-5.242-.49-8.581 0-1.016.083-1.41-.988-1.15-3.855.938-11.133.332-15.848.215-1.01-.025-1.351-.154-1.281 1.146.117 2.175-.197 6.591.084 8.617.099.712.345 1.117 1.271 1.23 3.667.445 13.488-.258 16.213-.364 1.214-.046 1.02-.291 1.039-1.113z" fill="url(#u)"/><path d="m9.634 45.817c-.042-1.898.491-5.244.491-8.581 0-1.016-.083-1.412.988-1.15 3.855.939 11.133.33 15.848.215 1.009-.025 1.352-.156 1.281 1.146-.115 2.175.197 6.592-.084 8.618-.1.711-.345 1.115-1.271 1.229-3.668.445-13.488-.257-16.213-.364-1.213-.045-1.022-.29-1.04-1.113z" fill="url(#v)"/><path d="m40.845 47.105c.211-1.594.962-3.487 1.393-6.278.132-.851.113-1.192.978-.837 3.104 1.287 2.577.683 6.536 1.198.849.111 1.259.072.924 1.126-.57 1.802-1.426 5.04-1.419 6.41.005.609-.114 1.075-.861.815-2.706-.939-4.963-1.235-6.822-1.368-1.028-.072-.82-.375-.729-1.066z" fill="url(#x)"/><path d="m15.155 47.105c-.211-1.594-.962-3.487-1.393-6.278-.132-.851-.113-1.192-.978-.837-3.104 1.287-2.577.683-6.536 1.198-.848.112-1.258.073-.923 1.126.57 1.802 1.426 5.04 1.419 6.41-.005.61.114 1.076.861.816 2.706-.939 4.963-1.235 6.822-1.368 1.027-.073.819-.376.728-1.067z" fill="url(#y)"/></svg>