<svg enable-background="new 0 0 64 64" height="64" viewBox="0 0 64 64" width="64" xmlns="http://www.w3.org/2000/svg" xmlns:xlink="http://www.w3.org/1999/xlink"><linearGradient id="a" gradientUnits="userSpaceOnUse" x1="14" x2="14" y1="49" y2="36"><stop offset="0" stop-color="#e6ebed"/><stop offset="1" stop-color="#c6cfd4"/></linearGradient><linearGradient id="b" gradientUnits="userSpaceOnUse" x1="32.0005" x2="32.0005" y1="58" y2="16.0005"><stop offset="0" stop-color="#5b666e"/><stop offset="1" stop-color="#302c3b"/></linearGradient><linearGradient id="c" gradientUnits="userSpaceOnUse" x1="41.5205" x2="41.5205" y1="48" y2="36"><stop offset="0" stop-color="#cf0000"/><stop offset="1" stop-color="#ff000e"/></linearGradient><path d="m4 36h20v13h-20z" fill="url(#a)"/><path d="m4 54h4v8h-4z" fill="#302c3b"/><path d="m56 54h4v8h-4z" fill="#302c3b"/><path d="m61 48h-55v-31c0-.551-.449-1-1-1h-2c-.549 0-1 .449-1 1v40c0 .549.451 1 1 1h58c.549 0 1-.451 1-1v-8c0-.551-.451-1-1-1z" fill="url(#b)"/><path d="m59 36c-2 0-37 0-37 0v12h39s.5-12-2-12z" fill="url(#c)"/><path d="m29 36c0-1.689-8-2.053-8 0v12h8s0-8.894 0-12z" fill="#f46c60"/><path d="m23.51 36.341c-1.627 4.826-18.512 2.084-19.172-6.65-.273-3.61 3.66-4.766 8.916.984 2.959 3.237 11.744 1.25 10.256 5.666z" fill="#e6ebef"/></svg>