<svg enable-background="new 0 0 64 64" height="64" viewBox="0 0 64 64" width="64" xmlns="http://www.w3.org/2000/svg" xmlns:xlink="http://www.w3.org/1999/xlink"><linearGradient id="a" gradientUnits="userSpaceOnUse" x1="32" x2="32" y1="2" y2="62"><stop offset="0" stop-color="#00abf1"/><stop offset=".2292" stop-color="#00a7ef"/><stop offset=".4667" stop-color="#009ae9"/><stop offset=".7079" stop-color="#0086e0"/><stop offset=".9504" stop-color="#0069d3"/><stop offset="1" stop-color="#0062d0"/></linearGradient><path d="m62 54c0 4.4-3.6 8-8 8h-44c-4.4 0-8-3.6-8-8v-44c0-4.4 3.6-8 8-8h44c4.4 0 8 3.6 8 8z" fill="url(#a)"/><g fill="#fff"><circle cx="14.5" cy="49" r="2"/><circle cx="21.5" cy="49" r="2"/><circle cx="28.5" cy="49" r="2"/><circle cx="35.5" cy="49" r="2"/><circle cx="42.5" cy="49" r="2"/><circle cx="49.5" cy="49" r="2"/><path d="m41 20h-2v-3.902c0-.57-.447-1.033-1-1.033h-12c-.551 0-1 .463-1 1.033v3.902h-2v-3.902c0-1.709 1.346-3.098 3-3.098h12c1.654 0 3 1.389 3 3.098z"/><path d="m14 20c-1.104 0-2 .896-2 2v20c0 1.105.896 2 2 2h3.5v-24z"/><path d="m19.5 20h25v24h-25z"/><path d="m50 20h-3.5v24h3.5c1.105 0 2-.895 2-2v-20c0-1.104-.895-2-2-2z"/></g></svg>