<svg enable-background="new 0 0 64 64" height="64" viewBox="0 0 64 64" width="64" xmlns="http://www.w3.org/2000/svg" xmlns:xlink="http://www.w3.org/1999/xlink"><radialGradient id="a" cx="52" cy="9.6992" gradientUnits="userSpaceOnUse" r="8.1389"><stop offset=".5394" stop-color="#cfd8dd"/><stop offset=".7819" stop-color="#dee4e7"/><stop offset="1" stop-color="#e6ebed"/></radialGradient><linearGradient id="b"><stop offset="0" stop-color="#c6cfd4"/><stop offset="1" stop-color="#e6ebed"/></linearGradient><linearGradient id="c" gradientUnits="userSpaceOnUse" x1="45.5" x2="45.5" xlink:href="#b" y1="17.041" y2="11.7578"/><linearGradient id="d" gradientUnits="userSpaceOnUse" x1="45.5" x2="45.5" y1="19.6826" y2="16.1602"><stop offset="0" stop-color="#c6cfd4"/><stop offset=".5819" stop-color="#dce2e5"/><stop offset="1" stop-color="#e6ebed"/></linearGradient><radialGradient id="e" cx="30.8135" cy="34.8262" gradientTransform="matrix(1 0 0 .7519 0 8.6387)" gradientUnits="userSpaceOnUse" r="31.722"><stop offset="0" stop-color="#e6ebed"/><stop offset="1" stop-color="#cfd8dd"/></radialGradient><linearGradient id="f" gradientUnits="userSpaceOnUse" x1="32.0005" x2="32.0005" xlink:href="#b" y1="41.3965" y2="36.6406"/><linearGradient id="g"><stop offset="0" stop-color="#cfd8dd"/><stop offset=".0974" stop-color="#b3bfc5"/><stop offset=".2121" stop-color="#9aa8af"/><stop offset=".3404" stop-color="#86979e"/><stop offset=".4877" stop-color="#788a92"/><stop offset=".6709" stop-color="#70838b"/><stop offset="1" stop-color="#6e8189"/></linearGradient><radialGradient id="h" cx="11.8896" cy="56.8232" gradientTransform="matrix(.9397 .342 -2.7362 7.5175 156.1946 -374.4143)" gradientUnits="userSpaceOnUse" r="4.3007" xlink:href="#g"/><radialGradient id="i" cx="51.5098" cy="57.1982" gradientTransform="matrix(.9397 -.342 2.7362 7.5175 -153.3972 -355.1745)" gradientUnits="userSpaceOnUse" r="4.3003" xlink:href="#g"/><path d="m17.278 38.363c-3.844 1.928-9.092-3.141-4.84-6.08 5.959-4.123 8.68 4.155 4.84 6.08z" fill="#c2f8ff"/><path d="m9.991 38.543c-3.256.309-4.053-2.15-2.447-4.076 2.796-3.358 7.066 3.638 2.447 4.076z" fill="#b4eff7"/><path d="m26.721 38.363c-3.844 1.928-9.092-3.141-4.84-6.08 5.959-4.123 8.68 4.155 4.84 6.08z" fill="#c2f8ff"/><path d="m20.596 37.931c-3.256.309-4.053-2.15-2.447-4.076 2.797-3.358 7.066 3.638 2.447 4.076z" fill="#b4eff7"/><path d="m36.477 37.909c-3.844 1.928-9.092-3.141-4.84-6.08 5.959-4.123 8.679 4.154 4.84 6.08z" fill="#c2f8ff"/><path d="m29.97 37.447c-3.256.309-4.053-2.15-2.447-4.076 2.797-3.357 7.067 3.639 2.447 4.076z" fill="#b4eff7"/><path d="m44.877 38.847c-3.844 1.928-9.092-3.141-4.84-6.08 5.959-4.123 8.68 4.154 4.84 6.08z" fill="#c2f8ff"/><path d="m51.826 40.162c-3.844 1.928-9.092-3.141-4.84-6.08 5.959-4.123 8.68 4.154 4.84 6.08z" fill="#b4eff7"/><path d="m39.059 38.543c-3.256.309-4.053-2.15-2.447-4.076 2.796-3.358 7.066 3.638 2.447 4.076z" fill="#b4eff7"/><path d="m55.506 38.543c-3.256.309-4.053-2.15-2.447-4.076 2.796-3.358 7.066 3.638 2.447 4.076z" fill="#c2f8ff"/><path d="m52 2c-4.418 0-8 3.582-8 8v3.719h3v-3.719c0-2.762 2.24-5 5-5 2.762 0 5 2.238 5 5v28.773h3v-28.773c0-4.419-3.582-8-8-8z" fill="url(#a)"/><path d="m45.5 11.758c-3.16 0-5.725 2.364-5.725 5.283h11.449c.001-2.919-2.564-5.283-5.724-5.283z" fill="url(#c)"/><path d="m40.268 19.683c-2.418 0-2.418-3.522 0-3.522h10.465c2.418 0 2.418 3.522 0 3.522z" fill="url(#d)"/><path d="m15.696 56.754c-.242.9-2.23 2.58.365 3.275s1.715-1.754 1.955-2.652c.902-3.365-1.42-3.986-2.32-.623z" fill="#4e5e67"/><path d="m48.766 56.754c-.9-3.363-3.223-2.742-2.322.623.242.898-.639 3.348 1.955 2.652 2.595-.695.607-2.375.367-3.275z" fill="#4e5e67"/><path d="m59.096 40.098c0 18.416-12.029 18.791-26.865 18.791s-26.865-.375-26.865-18.791z" fill="url(#e)"/><path d="m59.396 41.396h-54.31c-4.115 0-4.115-4.756 0-4.756h54.31c3.471.001 3.471 4.756 0 4.756z" fill="url(#f)"/><path d="m13.612 52.357c-2.697-.723-3.914.561-4.193 1.604-.305 1.133 1.672 3.164 1.277 4.641-.242.9-2.23 2.58.365 3.275s1.715-1.754 1.955-2.652c.396-1.477 3.123-2.248 3.428-3.381.279-1.043-.133-2.764-2.832-3.487z" fill="url(#h)"/><path d="m55.043 53.961c-.279-1.043-1.496-2.326-4.195-1.604-2.697.723-3.109 2.443-2.83 3.486.305 1.133 3.031 1.904 3.426 3.381.242.898-.639 3.348 1.955 2.652 2.596-.695.607-2.375.367-3.275-.395-1.476 1.582-3.507 1.277-4.64z" fill="url(#i)"/></svg>