<svg enable-background="new 0 0 64 64" height="64" viewBox="0 0 64 64" width="64" xmlns="http://www.w3.org/2000/svg" xmlns:xlink="http://www.w3.org/1999/xlink"><linearGradient id="a" gradientUnits="userSpaceOnUse" x1="32" x2="32" y1="2" y2="62"><stop offset="0" stop-color="#00abf1"/><stop offset=".2292" stop-color="#00a7ef"/><stop offset=".4667" stop-color="#009ae9"/><stop offset=".7079" stop-color="#0086e0"/><stop offset=".9504" stop-color="#0069d3"/><stop offset="1" stop-color="#0062d0"/></linearGradient><path d="m62 54c0 4.4-3.6 8-8 8h-44c-4.4 0-8-3.6-8-8v-44c0-4.4 3.6-8 8-8h44c4.4 0 8 3.6 8 8z" fill="url(#a)"/><g fill="#fff"><path d="m18.424 44.529h14v5.998h-14z"/><path d="m12.424 30.529h6v14h-6z"/><path d="m38.154 22.973c0 4.764 9.555 4.764 9.555 0 0-2.586 0-4.75 0-4.75h-9.555l-3.801 2.85h3.801z"/><path d="m47.709 17.271v-3.8h-10.504l.949 3.8z"/><path d="m34.785 43.084 14.393-14.41h-8.701-5.692-.01l-13.502 14.103h5.702l7.81-8.16z"/><path d="m34.785 45.484h16.791v5.045h-16.791z"/><path d="m36.463 43.805h15.113v-15.131z"/></g></svg>