<svg enable-background="new 0 0 64 64" height="64" viewBox="0 0 64 64" width="64" xmlns="http://www.w3.org/2000/svg" xmlns:xlink="http://www.w3.org/1999/xlink"><linearGradient id="a" gradientUnits="userSpaceOnUse" x1="32" x2="32" y1="2" y2="62"><stop offset="0" stop-color="#00abf1"/><stop offset=".2292" stop-color="#00a7ef"/><stop offset=".4667" stop-color="#009ae9"/><stop offset=".7079" stop-color="#0086e0"/><stop offset=".9504" stop-color="#0069d3"/><stop offset="1" stop-color="#0062d0"/></linearGradient><path d="m62 54c0 4.4-3.6 8-8 8h-44c-4.4 0-8-3.6-8-8v-44c0-4.4 3.6-8 8-8h44c4.4 0 8 3.6 8 8z" fill="url(#a)"/><g fill="#fff"><path d="m48.621 52h-33.244c-1.861 0-3.377-1.496-3.377-3.334v-23.332c0-1.838 1.516-3.334 3.377-3.334h33.244c1.863 0 3.379 1.496 3.379 3.334v23.332c0 1.838-1.516 3.334-3.379 3.334zm-33.244-28c-.76 0-1.377.6-1.377 1.334v23.332c0 .736.617 1.334 1.377 1.334h33.244c.76 0 1.379-.598 1.379-1.334v-23.332c0-.734-.619-1.334-1.379-1.334z"/><path d="m47 32h-3v16h3c.553 0 1-.447 1-1v-14c0-.553-.447-1-1-1z"/><path d="m38 32v-4c0-1.104-.898-2-2-2h-8c-1.104 0-2 .896-2 2v4h-4v16h20v-16zm-2 0h-8v-4h8z"/><path d="m17 32c-.553 0-1 .447-1 1v14c0 .553.447 1 1 1h3v-16z"/><path d="m42 14h-14.555c-.693-1.189-1.969-2-3.445-2-2.209 0-4 1.791-4 4s1.791 4 4 4c1.477 0 2.752-.809 3.445-2h2.555l2-2 2 2h2l2-2 2 2h2l2-2zm-19 4c-1.105 0-2-.896-2-2s.895-2 2-2c1.104 0 2 .896 2 2s-.896 2-2 2z"/></g></svg>