<svg enable-background="new 0 0 64 64" height="64" viewBox="0 0 64 64" width="64" xmlns="http://www.w3.org/2000/svg" xmlns:xlink="http://www.w3.org/1999/xlink"><linearGradient id="a" gradientUnits="userSpaceOnUse" x1="31.9995" x2="31.9995" y1="2" y2="62.0005"><stop offset="0" stop-color="#bc2af7"/><stop offset=".2161" stop-color="#b928f3"/><stop offset=".4401" stop-color="#b121e6"/><stop offset=".6677" stop-color="#a217d2"/><stop offset=".8963" stop-color="#8e08b5"/><stop offset=".9949" stop-color="#8400a6"/></linearGradient><path d="m62 54c0 4.399-3.6 8-8 8h-44c-4.399 0-8-3.601-8-8v-44c0-4.4 3.601-8 8-8h44c4.4 0 8 3.6 8 8z" fill="url(#a)"/><g fill="#fff"><path d="m42.1 26.6 2.9-2.7-14-12.9-14 12.9 3 2.7 11-10.2z"/><path d="m41.7 42.6c.8-.8.601-1.899 0-2.8-2-2.6-4.101-5.2-6.101-7.8-.699-.8-2-.7-2.699 0-1.2 1.2-2.4 2.3-3.5 3.5 0 0 0 0-3.7-3.1l-.9 1c3.3 5.199 3.3 5.199 3.3 5.199.5 1 1.9.7 2.701 0l2.399-2.3 3.7 5.7c-2.2 2.2-3.5 3.4-5.801 5.601-1.199 1.2-.298 3.3 1.301 3.3h11.3v-2c-6.601-2-6.601-2-6.601-2 1.501-1.3 3.101-2.8 4.601-4.3z"/><path d="m30 25.3-2.6 2.3c-.4.3-.4.9-.099 1.3l2.199 2.6c.301.4.9.4 1.301.1l2.6-2.3c.4-.3.4-.899.1-1.3l-2.199-2.6c-.402-.4-.902-.4-1.302-.1z"/></g></svg>