<svg enable-background="new 0 0 64 64" height="64" viewBox="0 0 64 64" width="64" xmlns="http://www.w3.org/2000/svg" xmlns:xlink="http://www.w3.org/1999/xlink"><linearGradient id="a" gradientTransform="matrix(.9397 -.3421 .3421 .9397 -203.1458 -153.555)" gradientUnits="userSpaceOnUse" x1="147.3867" x2="195.1787" y1="237.3535" y2="237.3535"><stop offset=".297" stop-color="#e6ebef"/><stop offset=".5884" stop-color="#e1e7eb"/><stop offset=".9319" stop-color="#d3dbe0"/><stop offset="1" stop-color="#cfd8dd"/></linearGradient><linearGradient id="b"><stop offset="0" stop-color="#cfd8dd"/><stop offset=".0587" stop-color="#d3dbe0"/><stop offset=".3548" stop-color="#e1e7eb"/><stop offset=".6061" stop-color="#e6ebef"/></linearGradient><linearGradient id="c" gradientTransform="matrix(.9397 -.3421 .3421 .9397 -203.1458 -153.555)" gradientUnits="userSpaceOnUse" x1="178.7734" x2="178.7734" xlink:href="#b" y1="242.0713" y2="238.8496"/><linearGradient id="d" gradientTransform="matrix(.9397 -.3421 .3421 .9397 -203.1458 -153.555)" gradientUnits="userSpaceOnUse" x1="174.1406" x2="174.1406" xlink:href="#b" y1="238.332" y2="235.1113"/><path d="m9.699 59c.834-2.014 6.875-3.557 8.418 0 1.125-2.375 5.541-2.889 7.07-.207 2.027-2.209 5.918-2.891 8.59-.141 2.211-2.666 7.797-2.125 9.154.348 1.352-2.148 5.164-3.139 8.453 0 4.399-2.973 10.616 1 10.616 1h-60s2.324-4.807 7.699-1z" fill="#b8e866"/><path d="m2 60h60v2h-60z" fill="#6e8189"/><path d="m56.221 59.229c-1.25-.939-6.262-1.227-8.125-.371-2-.855-7.375-.658-9.285.428-2.027-1.309-7.508-1.57-11.147-.428-3.818-1.143-9.131-1.143-11.631 0-1.25-.492-4.875-1.33-8.625.283-2.625-1.12-5.408.859-5.408.859h60s-2.34-1.264-5.779-.771z" fill="#7ab51d"/><path d="m11.158 6.745 6.801 9.432s12.154-1.244 11.584-5.383c-4.865.143-7.572 1.098-15.045-4.59-.719-.549-3.34.541-3.34.541z" fill="#cfd8dd"/><path d="m16.792 16.139c-1.549 1.064-.734 1.639.006 1.758 5.209.834 14.238-.223 19.551-2.154 2.543-.926 19.066-6.939 21.09-7.676.676-.246 3.689-1.848 3.953-2.223.898-1.264.791-2.102-.256-2.553-.885-.379-3.604-1.105-4.162-1.248-.563-.141-3.014.063-4.688.557-4.204 1.24-30.304 9.971-35.494 13.539z" fill="url(#a)"/><path d="m58.203 3.553c.973.182 1.141-.434 1.621-.711-.348-.107-.717-.215-1.076-.316-.213.078-.531.193-.77.281-.148.051.063.715.225.746z" fill="#302c3b"/><path d="m14.136 13.139-2.66.969 7.385 2.867s3.625-1.32 4.781-1.742c.344-.123-.094-1.313-.48-1.316-3.397-.047-9.026-.778-9.026-.778z" fill="#cfd8dd"/><path d="m14.136 13.139-2.66.969 2.729-.768 9.438 1.893c.344-.123-.094-1.313-.48-1.316-3.398-.047-9.027-.778-9.027-.778z" fill="#018bc9"/><g fill="#302c3b"><path d="m53.912 5.622c-.455.166-.871-.973-.416-1.141.457-.164.873.975.416 1.141z"/><path d="m52.281 6.213c-.455.168-.869-.973-.416-1.137.455-.165.871.975.416 1.137z"/><path d="m50.65 6.809c-.457.166-.871-.975-.414-1.141.453-.164.869.975.414 1.141z"/><path d="m49.018 7.403c-.455.166-.867-.975-.414-1.139.455-.166.871.971.414 1.139z"/><path d="m36.969 11.79c-.453.164-.869-.975-.414-1.141s.869.975.414 1.141z"/><path d="m35.34 12.381c-.459.166-.871-.973-.416-1.139.453-.163.869.975.416 1.139z"/><path d="m33.707 12.975c-.455.166-.87-.973-.416-1.139.457-.166.871.975.416 1.139z"/><path d="m32.076 13.569c-.455.166-.871-.975-.414-1.139.453-.166.867.975.414 1.139z"/><path d="m30.445 14.163c-.457.166-.873-.973-.416-1.139.455-.164.869.973.416 1.139z"/></g><path d="m49.35 7.088c-5.363-.402-20.276-1.146-20.276-1.146-2.691-1.457-4.438-2.432-4.986-1.852.049.598 2.9 3.699 4.447 4.557 3.883 2.146 15.522 3.461 15.522 3.461s4.012-1.461 6.441-2.344c.891-.324-.121-2.599-1.148-2.676z" fill="#cfd8dd"/><path d="m29.164 6.188c1.125.662 15.717 1.65 21.459 2.076-.318-.877-.885-1.148-1.273-1.176-5.363-.402-19.338-1.002-20.147-1.471-4.238-2.463-5.137-1.803-5.115-1.527-.001 0 .898-.363 5.076 2.098z" fill="#018bc9"/><path d="m48.973 9.106s-3.346.373-4.49 2.199l.572 1.572c2.057.672 4.867-1.18 4.867-1.18z" fill="url(#c)"/><path d="m48.152 10.27h2.761v.19h-2.761z" fill="#99a8ae" transform="matrix(.343 .9393 -.9393 .343 42.276 -39.7174)"/><path d="m43.844 12.03h1.673v.187h-1.673z" fill="#99a8ae" transform="matrix(.342 .9397 -.9397 .342 40.7912 -34.009)"/><path d="m43.342 7.174s-3.348.379-4.49 2.201l.572 1.574c2.055.67 4.865-1.18 4.865-1.18z" fill="url(#d)"/><path d="m42.522 8.343h2.759v.188h-2.759z" fill="#99a8ae" transform="matrix(.3427 .9395 -.9395 .3427 36.7847 -35.6976)"/><path d="m38.212 10.101h1.675v.187h-1.675z" fill="#99a8ae" transform="matrix(.3416 .9398 -.9398 .3416 35.2898 -29.9883)"/><path d="m6.216 26.45c-.764.082 20.338-5.709 20.338-5.709s-10.107 4.605-20.338 5.709z" fill="#e6ebef"/><path d="m3.634 20.922c-.582.063 15.525-4.357 15.525-4.357s-7.714 3.516-15.525 4.357z" fill="#e6ebef"/><path d="m2.763 11.413c-.461.049 12.277-3.445 12.277-3.445s-6.101 2.781-12.277 3.445z" fill="#e6ebef"/><path d="m5.541 16.219c-.348.037 9.271-2.602 9.271-2.602s-4.607 2.1-9.271 2.602z" fill="#e6ebef"/><path d="m13.498 10.766c-.584.063 15.525-4.357 15.525-4.357s-7.717 3.515-15.525 4.357z" fill="#e6ebef"/></svg>