<svg enable-background="new 0 0 64 64" height="64" viewBox="0 0 64 64" width="64" xmlns="http://www.w3.org/2000/svg" xmlns:xlink="http://www.w3.org/1999/xlink"><linearGradient id="a" gradientTransform="matrix(.9962 .0871 -.0871 .9962 21.8286 -83.2628)" gradientUnits="userSpaceOnUse" x1="2.5225" x2="50.3145" y1="112.917" y2="112.917"><stop offset=".297" stop-color="#e6ebef"/><stop offset=".5884" stop-color="#e1e7eb"/><stop offset=".9319" stop-color="#d3dbe0"/><stop offset="1" stop-color="#cfd8dd"/></linearGradient><linearGradient id="b"><stop offset="0" stop-color="#cfd8dd"/><stop offset=".0587" stop-color="#d3dbe0"/><stop offset=".3548" stop-color="#e1e7eb"/><stop offset=".6061" stop-color="#e6ebef"/></linearGradient><linearGradient id="c" gradientTransform="matrix(.9962 .0871 -.0871 .9962 21.8286 -83.2628)" gradientUnits="userSpaceOnUse" x1="33.9092" x2="33.9092" xlink:href="#b" y1="117.6377" y2="114.415"/><linearGradient id="d" gradientTransform="matrix(.9962 .0871 -.0871 .9962 21.8286 -83.2628)" gradientUnits="userSpaceOnUse" x1="29.2778" x2="29.2778" xlink:href="#b" y1="113.8984" y2="110.6768"/><path d="m2 60h60v2h-60z" fill="#6e8189"/><path d="m34.739 35.131h.702v2.023h-.702z" fill="#6e8189" transform="matrix(.9963 -.0863 .0863 .9963 -2.9872 3.1619)"/><path d="m34.234 35.279h.433v1.438h-.433z" fill="#6e8189" transform="matrix(.7664 .6424 -.6424 .7664 31.1734 -13.7207)"/><path d="m34.25 36.315h.433v1.438h-.433z" fill="#6e8189" transform="matrix(-.64 .7684 -.7684 -.64 84.9816 34.2502)"/><circle cx="35.222" cy="37.925" fill="#302c3b" r="1.2"/><circle cx="35.221" cy="37.926" fill="#99a8ae" r=".6"/><circle cx="33.957" cy="36.577" fill="#99a8ae" r=".376"/><path d="m14.824 16 2.177 11.423s11.542 4.008 12.774.017c-4.471-1.926-7.327-2.204-11.696-10.518-.421-.801-3.255-.922-3.255-.922z" fill="#cfd8dd"/><path d="m15.961 26.896c-1.854.311-1.359 1.175-.738 1.596 4.369 2.957 12.998 5.816 18.629 6.31 2.695.236 20.214 1.77 22.357 1.956.717.063 4.125-.115 4.523-.344 1.347-.765 1.605-1.569.846-2.421-.641-.718-2.797-2.525-3.244-2.891-.449-.364-2.758-1.217-4.482-1.477-4.335-.652-31.68-3.771-37.891-2.729z" fill="url(#a)"/><path d="m58.811 32.99c.803.575 1.217.089 1.768.04-.268-.244-.559-.498-.84-.741-.227-.019-.563-.049-.816-.07-.158-.016-.247.674-.112.771z" fill="#302c3b"/><path d="m14.821 23.056-2.821-.247 5.48 5.719s3.846.336 5.07.443c.364.032.469-1.229.122-1.397-3.058-1.478-7.851-4.518-7.851-4.518z" fill="#cfd8dd"/><path d="m14.821 23.056-2.821-.247 2.799.457 7.752 5.705c.364.032.469-1.229.122-1.397-3.059-1.478-7.852-4.518-7.852-4.518z" fill="#018bc9"/><g fill="#302c3b"><path d="m54.047 33.051c-.482-.042-.379-1.249.104-1.208.485.043.379 1.251-.104 1.208z"/><path d="m52.318 32.899c-.484-.041-.377-1.25.104-1.206.482.042.377 1.25-.104 1.206z"/><path d="m50.589 32.749c-.483-.043-.378-1.251.106-1.208.48.043.376 1.249-.106 1.208z"/><path d="m48.857 32.598c-.481-.043-.375-1.25.106-1.208.484.042.379 1.249-.106 1.208z"/><path d="m36.084 31.48c-.48-.042-.375-1.25.105-1.208.484.042.378 1.25-.105 1.208z"/><path d="m34.357 31.329c-.485-.043-.379-1.25.105-1.208.48.042.376 1.25-.105 1.208z"/><path d="m32.626 31.177c-.481-.042-.376-1.249.106-1.208.483.043.376 1.252-.106 1.208z"/><path d="m30.898 31.025c-.483-.042-.377-1.251.105-1.207.481.042.375 1.25-.105 1.207z"/><path d="m29.168 30.875c-.483-.042-.379-1.251.105-1.208.483.043.377 1.249-.105 1.208z"/></g><path d="m49.293 32.452c-4.691-2.63-17.893-9.607-17.893-9.607-1.824-2.457-2.994-4.08-3.736-3.786-.209.563 1.065 4.58 2.105 6.01 2.609 3.587 12.604 9.696 12.604 9.696s4.254.372 6.828.599c.945.081.988-2.408.092-2.912z" fill="#cfd8dd"/><path d="m31.378 23.106c.739 1.075 13.546 8.137 18.571 10.95.082-.93-.316-1.415-.656-1.604-4.691-2.63-17.104-9.081-17.639-9.847-2.801-4.023-3.893-3.805-3.99-3.547 0 .001.967.052 3.714 4.048z" fill="#018bc9"/><path d="m48.098 34.121s-3.19-1.074-5 .097l-.145 1.667c1.579 1.477 4.908.987 4.908.987z" fill="url(#c)"/><path d="m48.049 36.886.236-2.751-.187-.022-.237 2.757z" fill="#99a8ae"/><path d="m42.096 34.95h1.673v.186h-1.673z" fill="#99a8ae" transform="matrix(-.0864 .9963 -.9963 -.0864 81.5535 -4.7017)"/><path d="m43.811 29.992s-3.193-1.072-5 .097l-.146 1.669c1.578 1.475 4.908.987 4.908.987z" fill="url(#d)"/><path d="m42.405 31.28h2.76v.186h-2.76z" fill="#99a8ae" transform="matrix(-.086 .9963 -.9963 -.086 78.8059 -9.5523)"/><path d="m37.806 30.821h1.675v.187h-1.675z" fill="#99a8ae" transform="matrix(-.0874 .9962 -.9962 -.0874 72.8195 -4.878)"/><path d="m32.264 35.003h.702v2.023h-.702z" fill="#6e8189" transform="matrix(.9962 -.0877 .0877 .9962 -3.0311 2.9973)"/><path d="m31.759 35.151h.434v1.437h-.434z" fill="#6e8189" transform="matrix(.7653 .6437 -.6437 .7653 30.5959 -12.1633)"/><path d="m31.775 36.187h.434v1.437h-.434z" fill="#6e8189" transform="matrix(-.6413 .7673 -.7673 -.6413 80.8262 36.0255)"/><circle cx="32.748" cy="37.797" fill="#302c3b" r="1.2"/><circle cx="32.748" cy="37.797" fill="#99a8ae" r=".6"/><circle cx="31.483" cy="36.448" fill="#99a8ae" r=".376"/><path d="m51.658 36.478h.702v2.023h-.702z" fill="#6e8189" transform="matrix(.9962 -.0877 .0877 .9962 -3.0858 4.7029)"/><path d="m51.153 36.626h.434v1.438h-.434z" fill="#6e8189" transform="matrix(.7653 .6437 -.6437 .7653 36.098 -24.3014)"/><path d="m51.169 37.662h.434v1.438h-.434z" fill="#6e8189" transform="matrix(-.6413 .7673 -.7673 -.6413 113.7889 23.5667)"/><circle cx="52.141" cy="39.273" fill="#302c3b" r="1.2"/><circle cx="52.141" cy="39.273" fill="#99a8ae" r=".6"/><circle cx="50.876" cy="37.924" fill="#99a8ae" r=".375"/><path d="m50.288 36.021h2.939v1.387h-2.939z" fill="#cfd8dd" transform="matrix(.9962 .0874 -.0874 .9962 3.4065 -4.3826)"/><path d="m31.682 34.545h4.255v1.387h-4.255z" fill="#cfd8dd" transform="matrix(.9962 .0872 -.0872 .9962 3.2018 -2.8141)"/><path d="m2.018 31.771c-.726-.248 20.845 3.422 20.845 3.422s-11.107-.098-20.845-3.422z" fill="#e6ebef"/><path d="m2.014 25.67c-.555-.189 15.912 2.612 15.912 2.612s-8.479-.074-15.912-2.612z" fill="#e6ebef"/><path d="m5.243 16.685c-.438-.15 12.583 2.065 12.583 2.065s-6.705-.059-12.583-2.065z" fill="#e6ebef"/><path d="m5.729 22.214c-.332-.113 9.502 1.56 9.502 1.56s-5.063-.045-9.502-1.56z" fill="#e6ebef"/><path d="m15.244 20.634c-.555-.189 15.912 2.612 15.912 2.612s-8.478-.074-15.912-2.612z" fill="#e6ebef"/></svg>