<svg enable-background="new 0 0 64 64" height="64" viewBox="0 0 64 64" width="64" xmlns="http://www.w3.org/2000/svg" xmlns:xlink="http://www.w3.org/1999/xlink"><linearGradient id="a"><stop offset=".1455" stop-color="#cfd8dd"/><stop offset=".9906" stop-color="#9aa9af"/><stop offset="1" stop-color="#99a8ae"/></linearGradient><linearGradient id="b" gradientTransform="matrix(1 0 0 -1 194 170)" gradientUnits="userSpaceOnUse" x1="-152.0142" x2="-148.0158" xlink:href="#a" y1="128.9023" y2="131.134"/><linearGradient id="c" gradientTransform="matrix(1 0 0 -1 194 170)" gradientUnits="userSpaceOnUse" x1="-174.3218" x2="-172.3215" xlink:href="#a" y1="130.2891" y2="129.2889"/><path d="m35.484 16.768c-1.512-.874-5.928-.878-7.321.042-2.213 1.462-3.113 5.925-5.863 7.859-3.456 2.431-3.104 9.051-6.063 11.014-4.391 2.914-4.965 9.896-8.188 12.041-2.624 1.747-6.049 14.276-6.049 14.276h60s-2.69-10.664-6.263-14.275c-2.142-2.166-4.021-9.568-6.722-12.041-4.528-4.151-5.398-8.717-7.841-11.014-1.618-1.524-3.459-6.612-5.69-7.902z" fill="#56646b"/><path d="m7.823 54.326c1.234 1.289-5.309 3.725-4.593.553.326-1.44 2.604-2.631 4.593-.553z" fill="#6e8189"/><path d="m20.691 51.34c.902 1.758-3.882 5.074-3.358.752.237-1.961 1.903-3.582 3.358-.752z" fill="#6e8189"/><path d="m32.316 54.445c.902 1.756-3.882 5.074-3.358.75.237-1.961 1.903-3.582 3.358-.75z" fill="#6e8189"/><path d="m46.633 51.838c.902 1.758-3.882 5.074-3.358.752.237-1.961 1.903-3.582 3.358-.752z" fill="#778b94"/><path d="m59.462 55.043c.902 1.086-3.882 3.137-3.358.465.237-1.213 1.903-2.215 3.358-.465z" fill="#778b94"/><path d="m55.437 45.021c1.121.934-4.826 2.695-4.176.4.295-1.042 2.366-1.903 4.176-.4z" fill="#6e8189"/><path d="m33.896 46.168c-.604 1.123-4.12-.197-1.631-1.504 1.131-.594 2.602-.305 1.631 1.504z" fill="#6e8189"/><path d="m34.44 37.533c.902 1.756-3.882 5.074-3.358.75.237-1.961 1.903-3.582 3.358-.75z" fill="#6e8189"/><path d="m16.488 36.428c.887 1.209-3.811 3.492-3.297.518.233-1.352 1.87-2.467 3.297-.518z" fill="#778b94"/><path d="m20.524 29.83c.494.964-2.133 2.786-1.844.412.13-1.076 1.046-1.967 1.844-.412z" fill="#778b94"/><path d="m28.604 30.344c.494.964-2.133 2.787-1.844.412.13-1.076 1.046-1.966 1.844-.412z" fill="#6e8189"/><path d="m38.507 44.871c.495.965-2.132 2.787-1.844.412.13-1.076 1.045-1.965 1.844-.412z" fill="#778b94"/><path d="m40.801 54.865c.495.963-2.132 2.785-1.844.412.13-1.076 1.045-1.966 1.844-.412z" fill="#6e8189"/><path d="m28.033 52.52c.495.965-2.132 2.787-1.844.412.13-1.077 1.045-1.965 1.844-.412z" fill="#778b94"/><path d="m23.283 44.676c.495.965-2.132 2.787-1.844.412.13-1.076 1.045-1.967 1.844-.412z" fill="#6e8189"/><path d="m8.58 48.85c.495.963-2.132 2.785-1.844.412.13-1.076 1.045-1.967 1.844-.412z" fill="#778b94"/><path d="m59.139 51.428c.666.666-2.869 1.922-2.481.283.174-.742 1.405-1.356 2.481-.283z" fill="#6e8189"/><path d="m38.375 30.182c.496.965-2.131 2.786-1.844.412.131-1.076 1.045-1.966 1.844-.412z" fill="#6e8189"/><path d="m18.554 33.059c.496.965-2.131 2.785-1.844.412.131-1.077 1.045-1.967 1.844-.412z" fill="#6e8189"/><g fill="#778b94"><path d="m29.907 24.573c.631.695-2.719 2.007-2.352.297.167-.776 1.334-1.417 2.352-.297z"/><path d="m32.337 25.176c-.563.169-1.277-1.406-.039-1.021.56.176.945.75.039 1.021z"/><path d="m41.489 23.809c.495.964-2.132 2.786-1.844.412.13-1.076 1.045-1.966 1.844-.412z"/><path d="m33.968 19.787c.253.491-1.087 1.421-.939.211.065-.55.532-1.004.939-.211z"/><path d="m17.97 37.604c.253.492-1.087 1.422-.939.211.065-.549.532-1.002.939-.211z"/><path d="m7.633 52.092c.253.49-1.998 1.482-1.85.273.065-.549 1.443-1.066 1.85-.273z"/><path d="m4.178 57.404c.253.492-2.173 4.951-2.178 1.576-.003-1.544 1.771-2.367 2.178-1.576z"/><path d="m13.536 40.787c.253.49-1.792 1.535-1.645.324.066-.548 1.238-1.117 1.645-.324z"/><path d="m47.17 32.745c.253.492-2.156.857-2.008-.353.065-.549 1.601-.44 2.008.353z"/><path d="m51.154 38.824c.451.877-1.94 2.535-1.678.377.118-.98.951-1.791 1.678-.377z"/><path d="m57.065 48.455c.252.49-1.884.613-1.736-.596.066-.548 1.328-.197 1.736.596z"/></g><path d="m43.175 26.27c.254.491-1.762.848-1.615-.362.066-.549 1.209-.431 1.615.362z" fill="#6e8189"/><path d="m39.568 21.316c.253.491-1.087 1.421-.939.211.065-.549.532-1.003.939-.211z" fill="#778b94"/><path d="m24.946 21.932c.254.491-1.086 1.421-.939.211.066-.549.533-1.003.939-.211z" fill="#6e8189"/><path d="m21.308 26.564c.253.491-1.584 1.565-1.437.355.066-.548 1.029-1.147 1.437-.355z" fill="#6e8189"/><path d="m28.966 16.476c.254.365-1.086 1.056-.939.156.066-.408.533-.746.939-.156z" fill="#778b94"/><path d="m34.265 16.353c.253.406-1.087 1.175-.939.175.065-.454.531-.83.939-.175z" fill="#778b94"/><path d="m30.971 16.427c.355.491-1.531 1.42-1.324.21.091-.549.749-1.003 1.324-.21z" fill="#6e8189"/><path d="m31.157 19.787c.336.491-1.439 1.421-1.244.211.088-.55.705-1.004 1.244-.211z" fill="#6e8189"/><path d="m11.117 47.012c-1.477 1.314-5.093-1.078-1.574-3.055 1.725-.969 3.952.938 1.574 3.055z" fill="#6e8189"/><path d="m24.227 56.529c-1.477 1.314-5.897-2.473-1.574-3.055 1.96-.263 3.951.938 1.574 3.055z" fill="#778b94"/><path d="m37.144 54.443c-1.477 1.313-5.897-2.473-1.574-3.057 1.96-.263 3.951.938 1.574 3.057z" fill="#778b94"/><path d="m45.661 57.873c-1.477 1.313-5.897-2.473-1.574-3.057 1.961-.263 3.952.938 1.574 3.057z" fill="#6e8189"/><path d="m43.618 47.369c-1.477 1.314-5.896-2.473-1.574-3.055 1.961-.265 3.953.936 1.574 3.055z" fill="#778b94"/><path d="m28.733 46.789c-1.477 1.314-5.897-2.473-1.574-3.055 1.961-.265 3.952.936 1.574 3.055z" fill="#778b94"/><path d="m26.769 39.471c-1.477 1.314-5.898-2.473-1.574-3.057 1.96-.264 3.951.938 1.574 3.057z" fill="#778b94"/><path d="m40.58 39.471c-1.477 1.314-5.897-2.473-1.574-3.055 1.961-.264 3.952.938 1.574 3.055z" fill="#778b94"/><path d="m49.811 37.152c-1.2 1.068-4.797-2.01-1.28-2.484 1.594-.215 3.214.762 1.28 2.484z" fill="#6e8189"/><path d="m44.719 31.003c-1.069.951-4.272-1.792-1.141-2.214 1.421-.191 2.863.678 1.141 2.214z" fill="#6e8189"/><path d="m33.093 31.851c-1.069.952-4.272-1.792-1.141-2.214 1.421-.191 2.863.679 1.141 2.214z" fill="#778b94"/><path d="m23.911 25.744c-1.07.951-4.273-1.792-1.141-2.214 1.42-.192 2.864.678 1.141 2.214z" fill="#778b94"/><path d="m35.53 25.82c-.66.587-2.637-1.106-.705-1.367.877-.119 1.768.419.705 1.367z" fill="#6e8189"/><path d="m37.714 18.708c-.661.589-2.644-1.109-.705-1.371.879-.119 1.771.419.705 1.371z" fill="#778b94"/><path d="m26.534 20.752c-.672.597-2.68-1.123-.717-1.388.893-.119 1.797.427.717 1.388z" fill="#778b94"/><path d="m36.053 17.136c-.396.347-1.568-.641-.416-.799.521-.071 1.051.241.416.799z" fill="#6e8189"/><path d="m38.252 20.637c-.55.489-2.194-.921-.586-1.138.73-.096 1.471.35.586 1.138z" fill="#6e8189"/><path d="m27.22 18.344c-.281.251-1.126-.474-.301-.585.375-.05.756.18.301.585z" fill="#778b94"/><path d="m32.223 16.668c-.281.251-1.126-.474-.301-.585.375-.049.756.18.301.585z" fill="#778b94"/><path d="m53.077 41.943c.494.963-2.133 2.785-1.844.412.129-1.076 1.045-1.966 1.844-.412z" fill="#778b94"/><path d="m11 48.201h42" fill="#c4926e"/><path d="m50.848 43.031h-37.696l2.348-3.992h33z" fill="#87431a"/><path d="m46.348 35.377h-28.696l1.956-3.327h24.784z" fill="#87431a"/><path d="m17.652 35.377h28.695v.666h-28.695z" fill="#471e01"/><path d="m13.152 43.031h37.695v.666h-37.695z" fill="#471e01"/><path d="m55.739 51.352h-47.478l2.739-4.659h42z" fill="#87431a"/><path d="m8.261 51.352h47.479v.666h-47.479z" fill="#471e01"/><path d="m62 62h-60l3.521-5.99h52.958z" fill="#87431a"/><path d="m42.239 28.389h-20.478l1.565-2.661h17.348z" fill="#87431a"/><path d="m21.761 28.389h20.479v.666h-20.479z" fill="#471e01"/><path d="m39.108 23.065h-14.216l1.173-1.996h11.87z" fill="#87431a"/><path d="m24.892 23.065h14.217v.666h-14.217z" fill="#471e01"/><path d="m36.369 18.406h-8.738l.782-1.33h7.174z" fill="#87431a"/><path d="m27.631 18.406h8.738v.666h-8.738z" fill="#471e01"/><path d="m49.049 62h5.375l-20.424-46z" fill="#99a8ae"/><path d="m51.049 62h3.375l-20.424-46z" fill="#302c3b"/><path d="m53 62h4.486l-23.486-46z" fill="url(#b)"/><path d="m14.951 62h-5.375l20.424-46z" fill="#99a8ae"/><path d="m12.951 62h-3.375l20.424-46z" fill="#302c3b"/><path d="m11 62h-4.486l23.486-46z" fill="url(#c)"/></svg>