<svg enable-background="new 0 0 64 64" height="64" viewBox="0 0 64 64" width="64" xmlns="http://www.w3.org/2000/svg" xmlns:xlink="http://www.w3.org/1999/xlink"><linearGradient id="a" gradientTransform="matrix(-1 0 0 1 111.0156 -.3945)" gradientUnits="userSpaceOnUse" x1="76.3525" x2="87.7239" y1="43.0645" y2="31.6931"><stop offset="0" stop-color="#565e61"/><stop offset=".3805" stop-color="#858d91"/><stop offset=".7929" stop-color="#b2babf"/><stop offset="1" stop-color="#c4ccd1"/></linearGradient><linearGradient id="b" gradientTransform="matrix(-.7071 .7071 .7071 .7071 -241.7822 -142.0123)" gradientUnits="userSpaceOnUse" x1="-108.6938" x2="-88.6704" y1="316.8701" y2="319.2413"><stop offset="0" stop-color="#565e61"/><stop offset=".062" stop-color="#5f676a"/><stop offset=".5043" stop-color="#9aa3a7"/><stop offset=".8293" stop-color="#bfc8cd"/><stop offset="1" stop-color="#cdd6db"/></linearGradient><linearGradient id="c"><stop offset="0" stop-color="#c4ccd1"/><stop offset=".1531" stop-color="#bdc5ca"/><stop offset=".3839" stop-color="#a8b0b5"/><stop offset=".6636" stop-color="#878f93"/><stop offset=".9792" stop-color="#596164"/><stop offset="1" stop-color="#565e61"/></linearGradient><linearGradient id="d" gradientTransform="matrix(-.7071 .7071 .7071 .7071 -105.2207 -1.8385)" gradientUnits="userSpaceOnUse" x1="-72.2271" x2="-72.2271" xlink:href="#c" y1="125.0664" y2="119.3779"/><linearGradient id="e" gradientTransform="matrix(.7071 -.7183 -.7071 -.7183 -128.5654 7.2359)" gradientUnits="userSpaceOnUse" x1="85.874" x2="95.7131" y1="-105.3364" y2="-105.4137"><stop offset="0" stop-color="#565e61"/><stop offset=".0208" stop-color="#596164"/><stop offset=".3364" stop-color="#878f93"/><stop offset=".6161" stop-color="#a8b0b5"/><stop offset=".8469" stop-color="#bdc5ca"/><stop offset="1" stop-color="#c4ccd1"/></linearGradient><linearGradient id="f" gradientTransform="matrix(.7071 -.7071 -.7071 -.7071 -128.5654 10.1539)" gradientUnits="userSpaceOnUse" x1="95.793" x2="104.6699" y1="-137.8916" y2="-137.8916"><stop offset=".1576" stop-color="#f5cfa0"/><stop offset=".5345" stop-color="#d2a378"/><stop offset=".8364" stop-color="#b47d56"/></linearGradient><linearGradient id="g" gradientTransform="matrix(.7071 -.7071 -.7071 -.7071 -128.5654 10.1539)" gradientUnits="userSpaceOnUse" x1="100.2305" x2="100.2305" y1="-166.0244" y2="-149.7349"><stop offset=".0182" stop-color="#3d2a1d" stop-opacity=".4"/><stop offset=".0747" stop-color="#63442f" stop-opacity=".2992"/><stop offset=".1498" stop-color="#8f6344" stop-opacity=".1652"/><stop offset=".2082" stop-color="#aa7651" stop-opacity=".061"/><stop offset=".2424" stop-color="#b47d56" stop-opacity="0"/></linearGradient><linearGradient id="h" gradientTransform="matrix(.7071 -.7071 -.7071 -.7071 -128.5654 10.1539)" gradientUnits="userSpaceOnUse" x1="100.418" x2="100.418" y1="-126.1924" y2="-108.26"><stop offset=".5636" stop-color="#b47d56" stop-opacity="0"/><stop offset=".62" stop-color="#aa7651" stop-opacity=".0915"/><stop offset=".7163" stop-color="#8f6344" stop-opacity=".2478"/><stop offset=".8401" stop-color="#63442f" stop-opacity=".4487"/><stop offset=".9333" stop-color="#3d2a1d" stop-opacity=".6"/></linearGradient><linearGradient id="i" gradientTransform="matrix(.7071 -.7183 -.7071 -.7183 -128.5654 7.2359)" gradientUnits="userSpaceOnUse" x1="86.0352" x2="94.9529" y1="-104.0337" y2="-104.1038"><stop offset="0" stop-color="#565e61"/><stop offset=".0166" stop-color="#596164"/><stop offset=".2691" stop-color="#878f93"/><stop offset=".4929" stop-color="#a8b0b5"/><stop offset=".6775" stop-color="#bdc5ca"/><stop offset=".8" stop-color="#c4ccd1"/></linearGradient><linearGradient id="j" gradientTransform="matrix(.7071 -.7071 -.7071 -.7071 -128.5654 10.1539)" gradientUnits="userSpaceOnUse" x1="95.6631" x2="106.8945" xlink:href="#c" y1="-107.4287" y2="-107.4287"/><linearGradient id="k" gradientTransform="matrix(.7071 -.7071 -.7071 -.7071 -128.5654 10.1539)" gradientUnits="userSpaceOnUse" x1="95.6289" x2="116.0781" xlink:href="#c" y1="-106.1343" y2="-106.1343"/><linearGradient id="l" gradientTransform="matrix(.7071 -.7071 -.7071 -.7071 14.6255 146.5211)" gradientUnits="userSpaceOnUse" x1="82.168" x2="82.168" y1="90.7764" y2="98.6162"><stop offset=".2242" stop-color="#565e61"/><stop offset=".3624" stop-color="#777f83"/><stop offset=".5555" stop-color="#a0a8ad"/><stop offset=".6545" stop-color="#b0b8bd"/><stop offset=".7151" stop-color="#a9b1b6"/><stop offset=".8022" stop-color="#979fa3"/><stop offset=".9047" stop-color="#788084"/><stop offset="1" stop-color="#565e61"/></linearGradient><path d="m9.337 55.813c2.981 2.917 7.813 2.914 10.788 0 1.289-1.259 1.913-2.87 2.194-4.499.18-1.039.953-3.414 2.502-4.984 9.935-10.074 17.664-17.018 21.028-20.304 1.349-1.322 8.05-2.593 8.05-2.593l-11.17-10.496s-1.148 6.023-2.624 7.467c-9.572 9.364-10.927 10.796-21.03 20.307-1.705 1.604-4.192 2.259-5.133 2.397-1.671.246-3.316.883-4.606 2.146-2.976 2.918-2.977 7.642.001 10.559zm.546-4.78c-.046-.43-.651-.891-.578-1.34.071-.448.793-.707.972-1.1.187-.411-.102-1.104.186-1.445.282-.346 1.036-.216 1.403-.472.364-.265.466-1.005.896-1.166.418-.158 1.004.322 1.461.272.441-.042.912-.638 1.37-.564.461.071.721.775 1.124.954.418.18 1.129-.098 1.478.178.351.28.217 1.018.483 1.378.266.354 1.026.461 1.188.874.165.412-.33.979-.278 1.429.042.431.649.894.579 1.342-.072.447-.797.701-.976 1.099-.187.411.102 1.105-.184 1.445-.283.347-1.04.216-1.401.472-.368.261-.472 1.005-.899 1.167-.419.156-1.002-.327-1.458-.28-.443.049-.915.644-1.373.573-.46-.073-.718-.777-1.123-.958-.423-.18-1.131.102-1.475-.178-.357-.277-.223-1.02-.489-1.377-.266-.354-1.025-.461-1.188-.87-.162-.415.329-.985.282-1.433z" fill="url(#a)"/><path d="m42.618 13.91c-.163-4.642 10.523-9.621 12.587-7.338 0 0-4.762 4.156-6.253 5.8-1.549 1.705 3.529 7.061 5.258 5.531 1.282-1.135 5.984-5.601 5.984-5.601 2.688 1.96-2.975 10.658-6.295 11.131-6.784.968-11.151-5.825-11.281-9.523z" fill="url(#b)"/><path d="m27.996 41.348 12.388-11.922c2.821-2.762-1.004-6.508-3.828-3.743l-12.389 11.916c-2.827 2.766 1.003 6.511 3.829 3.749z" fill="url(#d)"/><path d="m2.092 19.59c-.867.879 4.643 6.43 5.511 5.555.269-.271-5.171-5.893-5.511-5.555z" fill="#9ea9ae"/><path d="m4.219 17.483c.297 3.162 5.511 5.555 5.511 5.555.414-.41.588-5.525 6.851-5.461-1.291-2.395-6.517-6.09-6.517-6.09l-.551 1.059c-1.035 3.871-4.825 4.474-5.294 4.937z" fill="url(#e)"/><path d="m41.563 33.106c-6.881-6.932-10.059-7.93-18.289-17.766-1.104-1.318-5.938 3.547-4.625 4.662 9.767 8.285 10.757 11.482 17.642 18.417 4.781 4.814 9.186 7.779 19.121 20.232.71.891 2.32.008 4.285-1.973s2.842-3.604 1.957-4.32c-12.365-10.004-15.311-14.437-20.091-19.252z" fill="url(#f)"/><path d="m45.784 47.558c2.581 2.668 5.665 6.125 9.629 11.096.71.891 2.32.008 4.285-1.973s2.842-3.604 1.957-4.32c-4.925-3.982-8.351-7.08-10.997-9.674z" fill="url(#g)"/><path d="m27.282 28.274 4.242-4.209c-2.301-2.092-4.84-4.646-8.249-8.725-1.104-1.318-5.938 3.547-4.625 4.662 4.022 3.416 6.558 5.967 8.632 8.272z" fill="url(#h)"/><path d="m4.413 18.698 2.647 2.625s4.063-5.063 5.853-5.408c.85-.166-1.749-3.791-2.317-3.217-1.887 4.586-6.183 6-6.183 6z" fill="url(#i)"/><path d="m18.461 20.168 4.936-4.971s-2.045-2.057-3.342-3.361c-.486-.492-.424-1.135.189-1.752 4.762-4.796-8.278 5.607-7.656 5.934 1.207.627 1.924.174 5.873 4.15z" fill="url(#j)"/><path d="m20.246 10.084c4.761-4.796 14.329-1.064 13.336-1.94-3.445-3.051-13.751-4.938-19.232-.59-1.664 1.321-4.116 3.538-4.286 3.933-.375.881 1.902 4.207 2.524 4.531 1.207.627 7.043-5.316 7.658-5.934z" fill="url(#k)"/><path d="m2.092 19.59c-.398.406 5.11 5.959 5.511 5.555.065-.066 2.127-2.105 2.127-2.105s-3.646-3.15-5.511-5.555c0-.002-2.049 2.031-2.127 2.105z" fill="url(#l)"/></svg>