<svg enable-background="new 0 0 64 64" height="64" viewBox="0 0 64 64" width="64" xmlns="http://www.w3.org/2000/svg" xmlns:xlink="http://www.w3.org/1999/xlink"><linearGradient id="a" gradientUnits="userSpaceOnUse" x1="32.0005" x2="32.0005" y1="62" y2="20.0005"><stop offset="0" stop-color="#637682"/><stop offset="1" stop-color="#4e5e67"/></linearGradient><linearGradient id="b"><stop offset=".1455" stop-color="#cfd8dd"/><stop offset=".4056" stop-color="#c3cdd2"/><stop offset=".877" stop-color="#a3b0b6"/><stop offset="1" stop-color="#99a8ae"/></linearGradient><linearGradient id="c" gradientUnits="userSpaceOnUse" x1="14" x2="16" xlink:href="#b" y1="14.5" y2="14.5"/><linearGradient id="d" gradientUnits="userSpaceOnUse" x1="48" x2="50" xlink:href="#b" y1="14.5" y2="14.5"/><path d="m2 20h60v42h-60z" fill="#92c932"/><path d="m49 17c-6 2.496-13 0-14 0-3.182 0-6.176 2.159-8 2-1.896-.165-5.096-2-7-2-.827 0-2.969 1.352-5 1-.889-.154-5.1-2-6-2-1.375 0-7 2-7 2v2h60v-3s-4.666-2-6-2c-1.125 0-5.152 1.232-7 2z" fill="#c5dca8"/><path d="m34 20h-4l-28 20v22h60v-22z" fill="url(#a)"/><path d="m2 44v4l28-28z" fill="#ffe463"/><path d="m62 44v4l-28-28z" fill="#ffe463"/><path d="m15 5h34v2h-34z" fill="#bec3cf"/><path d="m15 12h34v2h-34z" fill="#bec3cf"/><path d="m6 23c9.5-3 22-3 22-3h-26v16s7.346-5.673 14-9c4-2-12.314-3.27-10-4z" fill="#7ab51d"/><path d="m59 23c2.721 1.359-10.15.85-8 3 6.584 6.584 11 14 11 14l-28-20s19.334.167 25 3z" fill="#7ab51d"/><path d="m12 26.5v1h4l2-1v-1z" fill="#4e5e67"/><path d="m14 25.5-2 1h4l2-1z" fill="#bec3cf"/><path d="m18 2h28v14h-28z" fill="#529320"/><path d="m15 3c-.552 0-1 .448-1 1v22h2v-22c0-.552-.448-1-1-1z" fill="url(#c)"/><path d="m52 26.5v1h-4l-2-1v-1z" fill="#4e5e67"/><path d="m50 25.5 2 1h-4l-2-1z" fill="#bec3cf"/><path d="m49 3c-.553 0-1 .448-1 1v22h2v-22c0-.552-.447-1-1-1z" fill="url(#d)"/><g fill="#fff"><path d="m34 8h9v2h-9z"/><path d="m34 4h9v2h-9z"/><path d="m34 12h9v2h-9z"/><path d="m25.333 40 2.667-8h-1.143l-3.427 8z"/><path d="m28.57 28h.763l1.334-4h-.38z"/><path d="m20.857 46-6.857 16h4l5.333-16z"/><path d="m31.333 22 .667-2-.858 2z"/><path d="m40.57 40-3.427-8h-1.143l2.668 8z"/><path d="m34.668 28h.762l-1.715-4h-.381z"/><path d="m32.857 22-.857-2 .667 2z"/><path d="m43.143 46h-2.475l5.332 16h4z"/><path d="m26 5.25c2.068 0 3.75 1.683 3.75 3.75s-1.682 3.75-3.75 3.75c-2.067 0-3.75-1.683-3.75-3.75s1.683-3.75 3.75-3.75zm0-1.25c-2.76 0-5 2.239-5 5s2.24 5 5 5c2.761 0 5-2.239 5-5s-2.239-5-5-5z"/><path d="m27.001 9.501c-.167 0-.251-.084-.251-.25v-.5c0-.168.084-.252.251-.252h1.624c.168 0 .252.084.252.252v.249c0 1.589-1.287 2.876-2.876 2.876-.771 0-1.497-.308-2.031-.842-.12-.12-.12-.234-.002-.354l.533-.53c.117-.117.234-.117.352 0 .304.303.713.477 1.149.477.723 0 1.335-.471 1.548-1.125h-.549z"/></g></svg>