<svg enable-background="new 0 0 64 64" height="64" viewBox="0 0 64 64" width="64" xmlns="http://www.w3.org/2000/svg" xmlns:xlink="http://www.w3.org/1999/xlink"><linearGradient id="a"><stop offset="0" stop-color="#302c3b"/><stop offset=".2926" stop-color="#454754"/><stop offset=".7557" stop-color="#636d78"/><stop offset="1" stop-color="#6e7b85"/></linearGradient><linearGradient id="b" gradientUnits="userSpaceOnUse" x1="45.3438" x2="45.3438" xlink:href="#a" y1="31.0342" y2="28"/><linearGradient id="c" gradientUnits="userSpaceOnUse" x1="40.2773" x2="40.2773" xlink:href="#a" y1="44.6729" y2="35.5234"/><linearGradient id="d" gradientUnits="userSpaceOnUse" x1="31.5317" x2="31.5317" xlink:href="#a" y1="41.9824" y2="35.5234"/><linearGradient id="e"><stop offset="0" stop-color="#c6cfd4"/><stop offset=".183" stop-color="#cfd7db"/><stop offset=".6525" stop-color="#e0e6ea"/><stop offset="1" stop-color="#e6ebef"/></linearGradient><linearGradient id="f" gradientUnits="userSpaceOnUse" x1="33.6914" x2="33.6914" xlink:href="#e" y1="58.6719" y2="44.5371"/><linearGradient id="g" gradientUnits="userSpaceOnUse" x1="35.2832" x2="35.2832" xlink:href="#e" y1="62" y2="52.8057"/><linearGradient id="h" gradientUnits="userSpaceOnUse" x1="46.2344" x2="46.2344" xlink:href="#e" y1="35.5234" y2="31.0347"/><path d="m58.201 26-2.072 1.267h.364l.672-.412v1.045l-.662 1.465-1.053-.691-.356.089 1.297.85-.608 1.344h.364l1.382-3.057v-1.267l1.036-.633z" fill="#99a8ae"/><path d="m56.228 28.81h-1.793l.166-.913h1.461z" fill="#cfd8dd"/><path d="m51.094 43.537h8l-.957 3.207-7.043-1.207z" fill="#99a8ae"/><path d="m37.861 31.034s.092-1.518-.768-3.034c12.922 0 15.219.88 16.5 3.034-1.867 0-11.693 0-15.732 0z" fill="url(#b)"/><path d="m34.396 34.275h15.517l3.066 11.214-26.477-4.117z" fill="#4e5e67"/><path d="m54.297 45.141-3.067-11.214h-.535l3.021 11.05z" fill="#4e5e67"/><path d="m43.663 32.578-1.209-4.511-.595-.016 1.223 4.363z" fill="#cfd8dd"/><path d="m48.325 44.673-1.83-9.149c-4.408 0-7.928 0-8.32 0l-5.945 6.663z" fill="url(#c)"/><path d="m36.561 35.523c-2.082 0-3.552 0-3.552 0l-6.507 5.849 4.079.61z" fill="url(#d)"/><path d="m5.384 46.744c22.91-4.965 53.753 0 53.753 0l2.863 9.53s-31.229 7.251-53.434-3.469c-1.071-1.454-3.182-6.061-3.182-6.061z" fill="url(#f)"/><path d="m5.813 47.659c20.689-1.368 46.253.056 46.253.056l1.897 2.454s-31.787-.622-46.829.167c-.456-.897-1.321-2.677-1.321-2.677z" fill="#4e5e67"/><path d="m8.566 52.806c3.707 5.895 14.895 9.194 24.605 9.194 15.403 0 25.188-.26 26.744-1.982.566-.625 2.085-3.744 2.085-3.744s-37.314 2.593-53.434-3.468z" fill="url(#g)"/><path d="m34.396 34.275s1.416-2.035 3.465-3.241h19.419c1.663 0 .262 3.241-.182 3.241-1.288 0-5.432 0-5.432 0v1.248h-2.982l-1.042-1.248z" fill="url(#h)"/><path d="m46.959 32.078c-1.111 0 .938-2.087 2.477-2.087 7.531 0 11.636 2.087 9.158 2.087-1.867 0-7.596 0-11.635 0z" fill="#cfd8dd"/><path d="m5.384 46.744c1.176-3.275 18.148-6.146 21.978-6.146-.243 1.821 29.477 4.421 29.477 4.421l2.299 1.725c-.001 0-39.93-1.814-53.754 0z" fill="#cfd8dd"/><g fill="#6e8189"><path d="m3.098 41.779 2.861 4.27h.84l-2.865-4.27z"/><path d="m10.334 41.504 2.309 4.545h.716l-2.309-4.545z"/><path d="m18.206 41.104 2.008 4.945h.691l-2.008-4.945z"/><path d="m25.776 40.928 2.007 5.121h.694l-2.008-5.121z"/><path d="m33.347 41.104 2.007 4.945h.693l-2.008-4.945z"/><path d="m40.917 41.355 2.008 4.694h.692l-2.008-4.694z"/><path d="m49.08 41.779h-.593l2.008 4.27h.693l-2.008-4.271c-.093-.001-.095.001-.1.001z"/></g><path d="m5.455 46.755c-.231.011-.26-.687-.027-.698 15.375-.854 30.859-.881 46.233-.028.231.012.204.708-.027.694-15.356-.85-30.822-.821-46.179.032z" fill="#99a8ae"/><path d="m2.188 42.191c-.231.015-.258-.681-.028-.693 16.491-.919 33.009-.916 49.501 0 .23.013.204.708-.027.693-16.473-.912-32.973-.912-49.446 0z" fill="#99a8ae"/><path d="m14.246 49.32h-2.146c-.54 0-.54-1.24 0-1.24h2.146c.54 0 .54 1.24 0 1.24z" fill="#302c3b"/><path d="m30.12 49.039h-2.147c-.54 0-.54-1.239 0-1.239h2.147c.54 0 .54 1.239 0 1.239z" fill="#302c3b"/><path d="m46.169 49.32h-2.147c-.54 0-.54-1.24 0-1.24h2.147c.54 0 .54 1.24 0 1.24z" fill="#302c3b"/></svg>