<svg enable-background="new 0 0 64 64" height="64" viewBox="0 0 64 64" width="64" xmlns="http://www.w3.org/2000/svg" xmlns:xlink="http://www.w3.org/1999/xlink"><linearGradient id="a"><stop offset="0" stop-color="#005687"/><stop offset=".0043" stop-color="#005688"/><stop offset=".2509" stop-color="#0f6da3"/><stop offset=".4993" stop-color="#1a7cb7"/><stop offset=".7485" stop-color="#2086c3"/><stop offset="1" stop-color="#2289c7"/></linearGradient><linearGradient id="b" gradientTransform="matrix(.7071 .7071 -.7071 .7071 124.1807 276.3847)" gradientUnits="userSpaceOnUse" x1="-260.6147" x2="-260.6147" xlink:href="#a" y1="-100.5527" y2="-114.6958"/><linearGradient id="c" gradientTransform="matrix(.7071 .7071 -.7071 .7071 124.1807 276.3847)" gradientUnits="userSpaceOnUse" x1="-215.3599" x2="-215.3599" xlink:href="#a" y1="-100.5522" y2="-114.752"/><linearGradient id="d"><stop offset=".497" stop-color="#e6ebef"/><stop offset=".6703" stop-color="#e1e7eb"/><stop offset=".8746" stop-color="#d3dbe0"/><stop offset=".9152" stop-color="#cfd8dd"/></linearGradient><linearGradient id="e" gradientTransform="matrix(0 1 -1 0 17.1821 561.1372)" gradientUnits="userSpaceOnUse" x1="-529.4678" x2="-516.8882" xlink:href="#d" y1="-2.5684" y2="-15.1479"/><linearGradient id="f" gradientTransform="matrix(.7071 .7071 -.7071 .7071 124.1807 276.3847)" gradientUnits="userSpaceOnUse" x1="-246.8813" x2="-229.0928" y1="-97.2178" y2="-97.2178"><stop offset="0" stop-color="#ffd500"/><stop offset=".4902" stop-color="#ffc700"/><stop offset="1" stop-color="#ffb300"/></linearGradient><linearGradient id="g" gradientTransform="matrix(.7071 .7071 -.7071 .7071 124.1807 276.3847)" gradientUnits="userSpaceOnUse" x1="-244.9053" x2="-231.0674" xlink:href="#d" y1="-114.5132" y2="-114.5132"/><linearGradient id="h" gradientTransform="matrix(.7071 .7071 -.7071 .7071 124.1807 276.3847)" gradientUnits="userSpaceOnUse" x1="-249.5107" x2="-226.4629" xlink:href="#d" y1="-121.835" y2="-121.835"/><linearGradient id="i" gradientTransform="matrix(.7071 .7071 -.7071 .7071 124.1807 276.3847)" gradientUnits="userSpaceOnUse" x1="-249.5117" x2="-226.4629" y1="-124.9082" y2="-124.9082"><stop offset=".0848" stop-color="#cfd8dd"/><stop offset=".1254" stop-color="#d3dbe0"/><stop offset=".3297" stop-color="#e1e7eb"/><stop offset=".503" stop-color="#e6ebef"/></linearGradient><radialGradient id="j" cx="-238.5498" cy="-132.4165" gradientTransform="matrix(.7071 .7071 -.7071 .7071 124.1807 276.3847)" gradientUnits="userSpaceOnUse" r="2.0002"><stop offset="0" stop-color="#e6ebef"/><stop offset=".4145" stop-color="#e1e7eb"/><stop offset=".9031" stop-color="#d3dbe0"/><stop offset="1" stop-color="#cfd8dd"/></radialGradient><path d="m23.154 24.094h3.77v1.888h-3.77z" fill="#6e8189" transform="matrix(.7074 .7068 -.7068 .7074 25.0251 -10.3719)"/><path d="m20 30-18-18 10-10 18.001 18z" fill="url(#b)"/><path d="m37.118 38.058h3.772v1.885h-3.772z" fill="#6e8189" transform="matrix(.7068 .7074 -.7074 .7068 39.022 -16.1568)"/><path d="m5.908 12.06h2.263v3.395h-2.263z" fill="#75d6ff" transform="matrix(.7069 .7073 -.7073 .7069 11.7944 -.9463)"/><path d="m12.627 5.342h2.264v3.396h-2.264z" fill="#cae8f0" transform="matrix(.7071 .7071 -.7071 .7071 9.0076 -7.6671)"/><path d="m11.507 10.943h2.262v3.393h-2.262z" fill="#0fb4d4" transform="matrix(.7067 .7075 -.7075 .7067 12.6501 -5.2345)"/><path d="m19.347 12.062h2.264v3.395h-2.264z" fill="#75d6ff" transform="matrix(.7073 .7069 -.7069 .7073 15.7205 -10.4496)"/><path d="m14.866 21.022h2.264v3.394h-2.264z" fill="#cae8f0" transform="matrix(.7073 .7069 -.7069 .7073 20.7421 -4.66)"/><path d="m20.47 19.904h2.264v3.393h-2.264z" fill="#0fb4d4" transform="matrix(.7071 .7071 -.7071 .7071 21.6012 -8.9478)"/><path d="m44.081 34 17.92 18-10.001 10-18-18z" fill="url(#c)"/><path d="m58.072 50.704h2.264v3.393h-2.264z" fill="#0fb4d4" transform="matrix(.7075 .7067 -.7067 .7075 54.345 -26.513)"/><path d="m50.232 49.665h2.264v3.393h-2.264z" fill="#75d6ff" transform="matrix(.7075 .7067 -.7067 .7075 51.3177 -21.2763)"/><path d="m44.632 50.783h2.262v3.395h-2.262z" fill="#cae8f0" transform="matrix(.7071 .7071 -.7071 .7071 50.5129 -16.9879)"/><path d="m43.511 42.943h2.262v3.395h-2.262z" fill="#cae8f0" transform="matrix(.7071 .7071 -.7071 .7071 44.6409 -18.4914)"/><path d="m37.91 44.063h2.263v3.397h-2.263z" fill="#75d6ff" transform="matrix(.7073 .7069 -.7069 .7073 43.775 -14.2043)"/><path d="m44.632 37.342h2.261v3.397h-2.261z" fill="#0fb4d4" transform="matrix(.7069 .7073 -.7073 .7069 41.0274 -20.926)"/><path d="m29.185 47.395 12.58-12.58-12.58-12.579-12.58 12.578c-3.474 3.475-3.474 9.105 0 12.578 3.474 3.475 9.105 3.475 12.58.003z" fill="url(#e)"/><path d="m31.979 44.6 1.397-1.398c-1.931 1.932-6.309.68-9.783-2.795-3.473-3.475-4.726-7.854-2.795-9.783l-1.398 1.398c-1.931 1.929-.678 6.308 2.795 9.783 3.475 3.472 7.855 4.724 9.784 2.795z" fill="url(#f)"/><ellipse cx="35.471" cy="28.526" fill="#b3c2c6" rx="4.942" ry="8.894" transform="matrix(.7071 -.7072 .7072 .7071 -9.7812 33.4401)"/><path d="m28.059 33.114h1.885v3.77h-1.885z" fill="#bec3cf" transform="matrix(-.7072 -.707 .707 -.7072 24.7682 80.2542)"/><path d="m41.065 32.72 4.191-4.193-9.783-9.784-4.191 4.192c-1.545 1.545-.607 4.986 2.095 7.688 2.702 2.701 6.144 3.641 7.688 2.097z" fill="url(#g)"/><ellipse cx="40.367" cy="23.634" fill="#b3c2c6" rx="3.953" ry="6.918" transform="matrix(.7072 -.707 .707 .7072 -4.8899 35.4619)"/><ellipse cx="40.366" cy="23.636" fill="#6e8189" rx="2.472" ry="4.942" transform="matrix(.707 -.7072 .7072 .707 -4.8888 35.4721)"/><path d="m52.37 27.927-16.297-16.298c-1.799 1.803-1.824 6.869 3.803 12.495 5.625 5.626 10.695 5.602 12.494 3.803z" fill="url(#h)"/><path d="m52.368 27.925.002.002c1.799-1.8-.389-6.906-4.89-11.408-4.499-4.5-9.609-6.688-11.408-4.89v.002c-1.798 1.803.391 6.908 4.892 11.407 4.498 4.5 9.607 6.688 11.406 4.889z" fill="url(#i)"/><path d="m46.927 23.698c1.017-3.047 2.031-6.099 3.048-9.146.176-.525-.657-.745-.833-.219-1.017 3.048-2.034 6.099-3.049 9.146-.176.527.658.745.834.219z" fill="#b3c2c6"/><path d="m40.522 17.907c3.047-1.017 6.098-2.031 9.146-3.048.526-.176.31-1.01-.218-.834-3.049 1.016-6.099 2.033-9.148 3.048-.527.176-.307 1.01.22.834z" fill="#b3c2c6"/><circle cx="49.001" cy="15" fill="url(#j)" r="2"/></svg>