<svg enable-background="new 0 0 64 64" height="64" viewBox="0 0 64 64" width="64" xmlns="http://www.w3.org/2000/svg" xmlns:xlink="http://www.w3.org/1999/xlink"><linearGradient id="a" gradientUnits="userSpaceOnUse" x1="32.0024" x2="32.0024" y1="46.5537" y2="31.3906"><stop offset="0" stop-color="#c40000"/><stop offset=".0315" stop-color="#c70001"/><stop offset=".4274" stop-color="#e50008"/><stop offset=".7642" stop-color="#f8000c"/><stop offset="1" stop-color="#ff000e"/></linearGradient><linearGradient id="b" gradientUnits="userSpaceOnUse" x1="35.7559" x2="48.8209" y1="33.9502" y2="42.2297"><stop offset="0" stop-color="#960000"/><stop offset=".3576" stop-color="#960000" stop-opacity="0"/></linearGradient><linearGradient id="c"><stop offset="0" stop-color="#db9442"/><stop offset=".3947" stop-color="#cf843d"/><stop offset="1" stop-color="#b86432"/></linearGradient><linearGradient id="d" gradientTransform="matrix(.7071 .7071 -.7071 .7071 191.4658 -186.2633)" gradientUnits="userSpaceOnUse" x1="43.0664" x2="51.4434" xlink:href="#c" y1="290.0059" y2="290.0059"/><linearGradient id="e" gradientTransform="matrix(.7071 .7071 -.7071 .7071 191.4658 -186.2633)" gradientUnits="userSpaceOnUse" x1="45.1816" x2="49.2871" xlink:href="#c" y1="245.8965" y2="245.8965"/><linearGradient id="f" gradientTransform="matrix(.7071 .7071 -.7071 .7071 191.4658 -186.2633)" gradientUnits="userSpaceOnUse" x1="46.5137" x2="47.9795" y1="272.6211" y2="272.6211"><stop offset="0" stop-color="#f5a54a"/><stop offset=".3395" stop-color="#eb9e47"/><stop offset="1" stop-color="#db9442"/></linearGradient><path d="m61.412 31.421s-13.068 3.052-29.351 3.059c-16.342.007-29.47-3.059-29.47-3.059s0-1 .482 8.445c.217 4.276 3.007 5.27 4.821 5.509 11.95 1.573 36.262 1.57 48.213 0 1.814-.238 4.604-1.231 4.821-5.509.484-9.445.484-8.445.484-8.445z" fill="url(#a)"/><path d="m56.117 45.343c1.814-.238 4.604-1.231 4.821-5.509.355-6.963.449-8.248.474-8.443-.166.038-10.265 2.374-23.716 2.936l-11.898 12.131c10.948.223 22.97-.149 30.319-1.115z" fill="url(#b)"/><path d="m32.062 35.276c-21.4 0-29.391-3.009-29.719-3.138-.376-.146-.484-1.584-.111-1.436.079.029 8.751 3.044 29.83 3.044 21.072 0 29.63-3.013 29.707-3.043.369-.145.27 1.285-.104 1.434-.325.129-8.204 3.139-29.603 3.139z" fill="#302c3b"/><path d="m21.196 46.177c-3.397 1.919-11.37 9.608-11.192 10.877.361 2.577 2.396 4.572 4.94 4.943 1.282.188 9.012-7.721 10.928-11.144 2.867-5.131 2.098-6.785 2.098-6.785s-1.69-.767-6.774 2.109z" fill="url(#d)"/><path d="m54.001 20.904-2.901-2.904c-1.011 1.012-1.663 4.572-1.663 4.572s3.555-.656 4.564-1.668z" fill="url(#e)"/><path d="m12.214 60.842s-.569-.352-1.025-1.014l40.853-40.888 1.018 1.021z" fill="url(#f)"/></svg>