<svg enable-background="new 0 0 64 64" height="64" viewBox="0 0 64 64" width="64" xmlns="http://www.w3.org/2000/svg" xmlns:xlink="http://www.w3.org/1999/xlink"><linearGradient id="a"><stop offset="0" stop-color="#6e7b85"/><stop offset=".0025" stop-color="#6e7a85"/><stop offset=".1583" stop-color="#575e6a"/><stop offset=".3244" stop-color="#464855"/><stop offset=".506" stop-color="#3a3846"/><stop offset=".7128" stop-color="#322f3e"/><stop offset="1" stop-color="#302c3b"/></linearGradient><linearGradient id="b" gradientUnits="userSpaceOnUse" x1="25.2002" x2="38.999" xlink:href="#a" y1="19.5" y2="19.5"/><linearGradient id="c" gradientUnits="userSpaceOnUse" x1="22.4004" x2="38.999" xlink:href="#a" y1="23.5" y2="23.5"/><linearGradient id="d" gradientUnits="userSpaceOnUse" x1="19.5996" x2="38.999" xlink:href="#a" y1="27.5" y2="27.5"/><linearGradient id="e" gradientUnits="userSpaceOnUse" x1="16.7998" x2="38.999" xlink:href="#a" y1="31.5" y2="31.5"/><linearGradient id="f" gradientUnits="userSpaceOnUse" x1="15.2256" x2="62" y1="52" y2="52"><stop offset="0" stop-color="#009af7"/><stop offset=".0787" stop-color="#0095ef"/><stop offset=".4713" stop-color="#007fcc"/><stop offset=".7924" stop-color="#0072b6"/><stop offset="1" stop-color="#006dae"/></linearGradient><linearGradient id="g" gradientUnits="userSpaceOnUse" x1="32.0005" x2="32.0005" y1="46" y2="34"><stop offset="0" stop-color="#c6cfd4"/><stop offset=".183" stop-color="#cfd7db"/><stop offset=".6525" stop-color="#e0e6ea"/><stop offset="1" stop-color="#e6ebef"/></linearGradient><path d="m62 9h-18l-6 4h24z" fill="#cfd8dd"/><path d="m42 13v4h-14l-11.9 17h45.9v-21z" fill="#e6ebef"/><path d="m37.623 18h-10.323l-2.1 3h12.423c1.835 0 1.835-3 0-3z" fill="url(#b)"/><path d="m37.623 22h-13.123l-2.1 3h15.223c1.835 0 1.835-3 0-3z" fill="url(#c)"/><path d="m37.623 29c1.835 0 1.835-3 0-3h-15.923l-2.1 3z" fill="url(#d)"/><path d="m37.623 33c1.835 0 1.835-3 0-3h-18.723l-2.1 3z" fill="url(#e)"/><path d="m42.626 33c-1.835 0-1.835-3 0-3h19.374v3z" fill="#302c3b"/><path d="m43 17h-15l-1-4h17z" fill="#cfd8dd"/><path d="m45 13h-19l1-2h17z" fill="#e6ebef"/><path d="m43.25 16h-15.5l-.5-2h16.5z" fill="#302c3b"/><path d="m29.75 13.5h1v3h-1z" fill="#cfd8dd"/><path d="m33.25 13.5h1v3h-1z" fill="#cfd8dd"/><path d="m36.75 13.5h1v3h-1z" fill="#cfd8dd"/><path d="m40.25 13.5h1v3h-1z" fill="#cfd8dd"/><g fill="#302c3b"><path d="m57.625 20.072c0 .569-1.5.569-1.5 0v-1.146c0-.569 1.5-.569 1.5 0z"/><path d="m44.125 20.072c0 .569-1.5.569-1.5 0v-1.146c0-.569 1.5-.569 1.5 0z"/><path d="m54.25 20.072c0 .569-1.5.569-1.5 0v-1.146c0-.569 1.5-.569 1.5 0z"/><path d="m50.875 20.072c0 .569-1.5.569-1.5 0v-1.146c0-.569 1.5-.569 1.5 0z"/><path d="m47.5 20.072c0 .569-1.5.569-1.5 0v-1.146c0-.569 1.5-.569 1.5 0z"/><path d="m57.625 24.072c0 .569-1.5.569-1.5 0v-1.146c0-.569 1.5-.569 1.5 0z"/><path d="m44.125 24.072c0 .569-1.5.569-1.5 0v-1.146c0-.569 1.5-.569 1.5 0z"/><path d="m54.25 24.072c0 .569-1.5.569-1.5 0v-1.146c0-.569 1.5-.569 1.5 0z"/><path d="m50.875 24.072c0 .569-1.5.569-1.5 0v-1.146c0-.569 1.5-.569 1.5 0z"/><path d="m47.5 24.072c0 .569-1.5.569-1.5 0v-1.146c0-.569 1.5-.569 1.5 0z"/><path d="m57.625 28.072c0 .569-1.5.569-1.5 0v-1.146c0-.569 1.5-.569 1.5 0z"/><path d="m44.125 28.072c0 .569-1.5.569-1.5 0v-1.146c0-.569 1.5-.569 1.5 0z"/><path d="m54.25 28.072c0 .569-1.5.569-1.5 0v-1.146c0-.569 1.5-.569 1.5 0z"/><path d="m50.875 28.072c0 .569-1.5.569-1.5 0v-1.146c0-.569 1.5-.569 1.5 0z"/><path d="m47.5 28.072c0 .569-1.5.569-1.5 0v-1.146c0-.569 1.5-.569 1.5 0z"/><path d="m61 20.072c0 .569-1.5.569-1.5 0v-1.146c0-.569 1.5-.569 1.5 0z"/><path d="m61 24.072c0 .569-1.5.569-1.5 0v-1.146c0-.569 1.5-.569 1.5 0z"/><path d="m61 28.072c0 .569-1.5.569-1.5 0v-1.146c0-.569 1.5-.569 1.5 0z"/><path d="m62 62h-39.439c0-2.192-.561-4-.561-4h40z"/></g><path d="m15.226 46c2.722 3.4 5.228 7.436 6.774 12h40v-12z" fill="url(#f)"/><path d="m62 34h-60s7.152 4.413 13.226 12h46.774z" fill="url(#g)"/><path d="m59.595 41.081h-1.147c-.54 0-.54-1.081 0-1.081h1.147c.54 0 .54 1.081 0 1.081z" fill="#302c3b"/><path d="m53.637 41.081h-1.147c-.54 0-.54-1.081 0-1.081h1.147c.54 0 .54 1.081 0 1.081z" fill="#302c3b"/><path d="m47.679 41.081h-1.147c-.54 0-.54-1.081 0-1.081h1.147c.54 0 .54 1.081 0 1.081z" fill="#302c3b"/><path d="m41.721 41.081h-1.147c-.54 0-.54-1.081 0-1.081h1.147c.54 0 .54 1.081 0 1.081z" fill="#302c3b"/><path d="m35.769 41.081h-1.147c-.54 0-.54-1.081 0-1.081h1.147c.54 0 .54 1.081 0 1.081z" fill="#302c3b"/><path d="m29.811 41.081h-1.147c-.54 0-.54-1.081 0-1.081h1.147c.54 0 .54 1.081 0 1.081z" fill="#302c3b"/><path d="m59.592 44.54h-1.147c-.54 0-.54-1.08 0-1.08h1.147c.54 0 .54 1.08 0 1.08z" fill="#302c3b"/><path d="m53.634 44.54h-1.147c-.54 0-.54-1.08 0-1.08h1.147c.54 0 .54 1.08 0 1.08z" fill="#302c3b"/><path d="m47.676 44.54h-1.147c-.54 0-.54-1.08 0-1.08h1.147c.54 0 .54 1.08 0 1.08z" fill="#302c3b"/><path d="m41.718 44.54h-1.148c-.54 0-.54-1.08 0-1.08h1.147c.541 0 .541 1.08.001 1.08z" fill="#302c3b"/><path d="m35.766 44.54h-1.147c-.54 0-.54-1.08 0-1.08h1.147c.54 0 .54 1.08 0 1.08z" fill="#302c3b"/><path d="m59.595 48h-1.146c-.541 0-.541-1.081 0-1.081h1.146c.541 0 .541 1.081 0 1.081z" fill="#302c3b"/><path d="m53.638 48h-1.148c-.539 0-.539-1.081 0-1.081h1.148c.539 0 .539 1.081 0 1.081z" fill="#302c3b"/><path d="m47.679 48h-1.146c-.541 0-.541-1.081 0-1.081h1.146c.541 0 .541 1.081 0 1.081z" fill="#302c3b"/><path d="m2 32h60v.5h-60z" fill="#99a8ae"/><path d="m2 32h.5v2h-.5z" fill="#99a8ae"/><path d="m5.967 32h.5v2h-.5z" fill="#99a8ae"/><path d="m9.934 32h.5v2h-.5z" fill="#99a8ae"/><path d="m13.9 32h.5v2h-.5z" fill="#99a8ae"/><path d="m17.867 32h.5v2h-.5z" fill="#99a8ae"/><path d="m21.833 32h.5v2h-.5z" fill="#99a8ae"/><path d="m25.8 32h.5v2h-.5z" fill="#99a8ae"/><path d="m29.767 32h.5v2h-.5z" fill="#99a8ae"/><path d="m33.733 32h.5v2h-.5z" fill="#99a8ae"/><path d="m37.7 32h.5v2h-.5z" fill="#99a8ae"/><path d="m41.667 32h.5v2h-.5z" fill="#99a8ae"/><path d="m45.633 32h.5v2h-.5z" fill="#99a8ae"/><path d="m49.6 32h.5v2h-.5z" fill="#99a8ae"/><path d="m53.566 32h.5v2h-.5z" fill="#99a8ae"/><path d="m57.533 32h.5v2h-.5z" fill="#99a8ae"/><path d="m61.5 32h.5v2h-.5z" fill="#99a8ae"/><path d="m24.269 37.5c-.854 0-.854-1.5 0-1.5h1.721c.854 0 .854 1.5 0 1.5z" fill="#302c3b"/><path d="m20.267 37.5c-.854 0-.854-1.5 0-1.5h1.721c.854 0 .854 1.5 0 1.5z" fill="#302c3b"/><path d="m28.271 37.5c-.854 0-.854-1.5 0-1.5h1.721c.854 0 .854 1.5 0 1.5z" fill="#302c3b"/><path d="m32.271 37.5c-.854 0-.854-1.5 0-1.5h1.721c.854 0 .854 1.5 0 1.5z" fill="#302c3b"/><path d="m59.387 2h-1.89c-.371 0-.813.254-.979.563l-3.455 6.437h7v-6.37c0-.346-.304-.63-.676-.63z" fill="#e6ebef"/><path d="m61.063 4.8h-4.2c0-.875 1.531-.875 2.101-.875h2.101z" fill="#b3c2c6"/></svg>