<svg enable-background="new 0 0 64 64" height="64" viewBox="0 0 64 64" width="64" xmlns="http://www.w3.org/2000/svg" xmlns:xlink="http://www.w3.org/1999/xlink"><linearGradient id="a" gradientTransform="matrix(1 0 0 -1 104 10)" gradientUnits="userSpaceOnUse" x1="-78" x2="-66" y1="1" y2="1"><stop offset="0" stop-color="#ff7b00"/><stop offset="1" stop-color="#de5100"/></linearGradient><linearGradient id="b"><stop offset="0" stop-color="#4e5e67"/><stop offset="1" stop-color="#302c3b"/></linearGradient><linearGradient id="c" gradientTransform="matrix(.9848 -.1736 -.1736 -.9848 133.779 23.3529)" gradientUnits="userSpaceOnUse" x1="-127.7358" x2="-122.9888" xlink:href="#b" y1="34.2637" y2="34.2637"/><linearGradient id="d" gradientTransform="matrix(.9848 .1736 .1736 -.9848 76.5641 -21.3151)" gradientUnits="userSpaceOnUse" x1="-13.3779" x2="-8.6318" xlink:href="#b" y1="-35.1323" y2="-35.1323"/><linearGradient id="e" gradientUnits="userSpaceOnUse" x1="32.0024" x2="32.0024" y1="44.998" y2="27.0015"><stop offset="0" stop-color="#302c3b"/><stop offset="1" stop-color="#4e5e67"/></linearGradient><linearGradient id="f" gradientUnits="userSpaceOnUse" x1="32.0005" x2="32.0005" y1="58" y2="14.0005"><stop offset="0" stop-color="#297786"/><stop offset="1" stop-color="#4f99a8"/></linearGradient><linearGradient id="g" gradientUnits="userSpaceOnUse" x1="32.0005" x2="32.0005" y1="17" y2="55.0005"><stop offset="0" stop-color="#cfd8dd"/><stop offset="1" stop-color="#97b1b8"/></linearGradient><radialGradient id="h" cx="31.998" cy="51.875" gradientTransform="matrix(1 0 0 .3434 0 34.0586)" gradientUnits="userSpaceOnUse" r="19.9535"><stop offset=".6485" stop-color="#fff"/><stop offset=".8216" stop-color="#e4e8ea"/><stop offset="1" stop-color="#c4ccd1"/></radialGradient><path d="m38 12h-12c0-3.313 2.684-6 6-6 3.313 0 6 2.687 6 6z" fill="url(#a)"/><path d="m23 15c0-1.659 1.006-3 3-3h12c1.996 0 3 1.341 3 3z" fill="#302c3b"/><path d="m5.377 11.826h1.186v17.201h-1.186z" fill="#99a8ae" transform="matrix(-.9849 .1729 -.1729 -.9849 15.3821 39.5133)"/><circle cx="4.373" cy="11.373" fill="url(#c)" r="2.373"/><path d="m57.438 11.827h1.186v17.201h-1.186z" fill="#99a8ae" transform="matrix(-.9848 -.1737 .1737 -.9848 111.631 50.6261)"/><circle cx="59.628" cy="11.374" fill="url(#d)" r="2.372"/><path d="m57.001 27.001h-50c-4.208 0-4.208 17.997 0 17.997h50c4.211 0 4.211-17.997 0-17.997z" fill="url(#e)"/><path d="m55.001 52.5c0 3.023-2.475 5.5-5.5 5.5h-35.001c-3.025 0-5.5-2.477-5.5-5.5v-33c0-3.024 2.475-5.5 5.5-5.5h35.001c3.025 0 5.5 2.476 5.5 5.5z" fill="url(#f)"/><path d="m13 55c.001-.502-.366-.914-.846-.988l-.001 1.975c.479-.073.849-.487.847-.987z" fill="#e6ebef"/><path d="m10.999 54.998c0 .502.368.916.848.988l.001-1.975c-.481.075-.849.487-.849.987z" fill="#e6ebef"/><path d="m12.154 55.844v-1.688c-.052-.008-.257-.008-.307 0l-.001 1.688c.05.006.257.008.308 0z" fill="#cfd8dd"/><path d="m52.708 54.293c-.354-.355-.906-.387-1.297-.1l1.396 1.395c.288-.389.256-.943-.099-1.295z" fill="#e6ebef"/><path d="m51.292 55.707c.354.354.908.387 1.299.1l-1.396-1.396c-.288.39-.257.943.097 1.296z" fill="#e6ebef"/><path d="m52.706 55.488-1.193-1.193c-.041.029-.188.176-.217.217l1.193 1.193c.039-.031.186-.176.217-.217z" fill="#cfd8dd"/><path d="m12 16.001c-.501-.001-.913.366-.987.846h1.975c-.073-.479-.487-.848-.988-.846z" fill="#e6ebef"/><path d="m12 18.001c.5.001.915-.367.987-.848h-1.975c.075.481.488.848.988.848z" fill="#e6ebef"/><path d="m12.845 16.847h-1.688c-.009.051-.009.257 0 .307h1.687c.007-.05.008-.257.001-.307z" fill="#cfd8dd"/><path d="m51.294 16.293c-.355.354-.387.905-.1 1.296l1.396-1.396c-.39-.287-.943-.255-1.296.1z" fill="#e6ebef"/><path d="m52.708 17.708c.354-.354.387-.907.1-1.298l-1.396 1.396c.39.288.942.256 1.296-.098z" fill="#e6ebef"/><path d="m52.489 16.294-1.193 1.193c.029.042.176.188.217.217l1.193-1.192c-.031-.04-.176-.187-.217-.218z" fill="#cfd8dd"/><path d="m52.001 51c0 2.199-1.801 4-4.001 4h-32c-2.2 0-4-1.801-4-4v-30c0-2.2 1.8-4 4-4h32c2.2 0 4.001 1.8 4.001 4z" fill="url(#g)"/><path d="m42 39.031c-4.416 0-8.001-3.582-8.001-7.999 0-4.42 3.585-8 8.001-8 4.42 0 7.999 3.58 7.999 8 0 4.417-3.579 7.999-7.999 7.999z" fill="#302c3b"/><path d="m42 37.697c-3.682 0-6.67-2.986-6.67-6.665 0-3.684 2.988-6.666 6.67-6.666 3.686 0 6.665 2.982 6.665 6.666 0 3.679-2.979 6.665-6.665 6.665z" fill="#fff"/><ellipse cx="42" cy="31.032" fill="#302c3b" rx="3.111" ry="3.554"/><path d="m22.001 39.031c-4.416 0-8-3.582-8-7.999 0-4.42 3.584-8 8-8 4.422 0 8 3.58 8 8 0 4.417-3.578 7.999-8 7.999z" fill="#302c3b"/><path d="m22.001 37.697c-3.684 0-6.668-2.984-6.668-6.665 0-3.684 2.984-6.666 6.668-6.666s6.666 2.982 6.666 6.666c0 3.681-2.982 6.665-6.666 6.665z" fill="#fff"/><ellipse cx="22.001" cy="31.032" fill="#302c3b" rx="3.111" ry="3.556"/><path d="m43.998 48.75c0 .688-.563 1.25-1.25 1.25h-21.5c-.688 0-1.25-.563-1.25-1.25v-3.5c0-.688.563-1.25 1.25-1.25h21.5c.688 0 1.25.563 1.25 1.25z" fill="#302c3b"/><path d="m42.998 48.25c0 .413-.338.75-.75.75h-20.5c-.412 0-.75-.337-.75-.75v-2.5c0-.413.338-.75.75-.75h20.5c.412 0 .75.337.75.75z" fill="url(#h)"/><g fill="#302c3b"><path d="m24 44.5h1v5h-1z"/><path d="m29 44.5h1v5h-1z"/><path d="m34 44.5h1v5h-1z"/><path d="m39 44.5h1v5h-1z"/></g><path d="m31.293 38.293c-.355.354-.387.905-.1 1.296l1.396-1.396c-.39-.287-.943-.255-1.296.1z" fill="#e6ebef"/><path d="m32.707 39.708c.354-.354.387-.907.1-1.298l-1.396 1.396c.39.288.943.256 1.296-.098z" fill="#e6ebef"/><path d="m32.488 38.294-1.193 1.193c.029.042.176.188.217.217l1.193-1.192c-.031-.04-.176-.187-.217-.218z" fill="#cfd8dd"/></svg>