<svg enable-background="new 0 0 64 64" height="64" viewBox="0 0 64 64" width="64" xmlns="http://www.w3.org/2000/svg" xmlns:xlink="http://www.w3.org/1999/xlink"><radialGradient id="a" cx="32.7739" cy="24.3676" gradientTransform="matrix(.9776 -.2539 .166 .653 -9.1966 14.9613)" gradientUnits="userSpaceOnUse" r="36.4077"><stop offset=".4485" stop-color="#e3c19b"/><stop offset=".7869" stop-color="#e3bf99"/><stop offset=".9495" stop-color="#e3b991"/><stop offset="1" stop-color="#e3b68d"/></radialGradient><path d="m57.2 12.468c-4.553 0-10.36-.209-19.109.014-19.556.502-31.109-2.885-34.097 1.727-2.606 4.02-.24 13.293-.688 22.572-.275 5.639 6.049 6.225 6.049 6.225-.83 3.143 1.529 11.264 8.353 8.783 6.875-2.496 13.645-2.578 16.848-4.922 2.881-2.105 6.476-6.994 9.016-9.537.436-.438 9.781-3.856 13.628-3.856 5.457 0 5.457-21.006 0-21.006z" fill="url(#a)"/><g fill="#cf9e70"><path d="m8.48 43.63c-2.506-.498-6.147-2.375-5.928-6.889.461-9.491-1.982-18.638.809-22.945 3.312-5.113 14.363-1.545 34.707-2.068 2.721-.068 17.802-.014 19.13-.014 6.402 0 6.402 22.506 0 22.506-3.553 0-12.353 3.16-13.164 3.691-2.842 2.879-5.92 7.277-9.039 9.557-3.418 2.5-10.266 2.564-17.033 5.021-6.769 2.462-9.933-4.558-9.482-8.859zm-3.859-29.017c-2.354 3.629-.135 13.219-.568 22.201-.256 5.24 5.646 5.506 6.252 5.521-1.231 2.938.816 11.047 7.147 8.744 6.859-2.488 13.752-2.697 16.66-4.822 2.34-1.711 7.582-8.172 8.928-9.461.742-.711 10.291-4.076 14.16-4.076 4.459 0 4.459-19.506 0-19.506-1.334 0-16.384-.055-19.091.014-18.477.473-30.861-2.67-33.488 1.385z"/><path d="m22.832 24.339c-3.207 1.305-8.16 3.055-11.399.451 3.324 3.912.631 6.121.588 9.205 1.389-3.381 2.701-4.01 2.994-4.084.582-.146 2.074 2.297 2.074 2.297.022-2.953-2.123-3.336-2.08-3.975.029-.445 3.574-.053 7.023-1.361.727-.275 1.102 13.357-12.355 15.184-1.254.166-.899 1.648.58 1.648 16.655-3.101 14.176-20.017 12.575-19.365z"/></g></svg>