<svg enable-background="new 0 0 64 64" height="64" viewBox="0 0 64 64" width="64" xmlns="http://www.w3.org/2000/svg" xmlns:xlink="http://www.w3.org/1999/xlink"><linearGradient id="a" gradientTransform="matrix(.9659 .2588 -.2588 .9659 92.4525 -213.6382)" gradientUnits="userSpaceOnUse" x1="1.9622" x2="1.9622" y1="273.538" y2="223.2167"><stop offset=".097" stop-color="#e3b68d"/><stop offset=".1495" stop-color="#e3ba92"/><stop offset=".3067" stop-color="#e3bf99"/><stop offset=".6606" stop-color="#e3c19b"/></linearGradient><linearGradient id="b"><stop offset=".4545" stop-color="#e3c19b"/><stop offset=".7558" stop-color="#e3bd96"/><stop offset="1" stop-color="#e3b68d"/></linearGradient><radialGradient id="c" cx="168.008" cy="842.3635" gradientTransform="matrix(.5759 .7544 -.4829 .3666 346.4803 -379.2617)" gradientUnits="userSpaceOnUse" r="8.1793" xlink:href="#b"/><radialGradient id="d" cx="-51.6809" cy="258.814" gradientTransform="matrix(.8869 .2324 -.1538 .5857 128.4313 -107.5812)" gradientUnits="userSpaceOnUse" r="8.353" xlink:href="#b"/><radialGradient id="e" cx="-26.266" cy="265.9909" gradientTransform="matrix(.9191 .2411 -.1537 .5857 105.3958 -110.5516)" gradientUnits="userSpaceOnUse" r="8.5627" xlink:href="#b"/><radialGradient id="f" cx="-27.0373" cy="273.4626" gradientTransform="matrix(.9191 .2411 -.1537 .5857 104.7393 -108.1941)" gradientUnits="userSpaceOnUse" r="7.996" xlink:href="#b"/><path d="m37.572 19.99c3.406-3.801 5.217-7.805 3.754-12.973-1.824-6.449-7.082-4.35-7.498-1.852-2.084 12.541-9.697 13.982-12.346 16.66-8.098 8.199-7.482 19.381-5.25 22.965 4.908 7.884 17.178 8.31 17.178 8.31l9.035-23.758s-9.943-3.699-4.873-9.352z" fill="url(#a)"/><path d="m37.365 60.33c-1.418-1.297-4.254-5.094-9.1-8.002-1.027-.617 4.084-8.898 7.32-3.123 1.396 2.494 4.227 4.703 6.037 7.102 2.487 3.289-1.413 6.63-4.257 4.023z" fill="url(#c)"/><path d="m36.859 60.902c-1.979-1.816-4.111-4.965-8.887-7.857-4.051-.977-9.441-3.131-12.375-7.838-2.531-4.066-2.908-15.527 5.353-23.891 2.613-2.646 10.117-4.092 12.139-16.258.539-3.254 6.902-5.488 8.957 1.772 1.385 4.895.176 9.111-3.918 13.678-4.352 4.855 4.342 8.059 5.271 8.404-2.525 7.072-6.523 18.404-7.023 20.18 1.35 2.234 4.176 4.566 5.846 6.781 3.12 4.131-1.992 8.117-5.363 5.029zm-2.291-55.597c-2.129 12.805-10.037 14.519-12.553 17.066-8.131 8.232-6.977 19.102-5.146 22.041 2.691 4.32 7.883 6.344 11.674 7.246 5.059 3.033 7.26 6.164 9.328 8.137 2.086 1.988 5.143-.387 3.156-3.018-1.611-2.135-4.662-4.631-6.096-7.189-.217-.381-.309-.543 6.568-19.81-4.156-1.852-8.609-5.674-4.486-10.272 3.713-4.141 4.82-7.924 3.592-12.266-1.584-5.597-5.742-3.707-6.037-1.935z" fill="#cf9e70"/><path d="m34.164 36.951-.014 1.395c-2.477 2.768-10.686 3.73-15.945-.859 5.219 3.599 13.728 2.247 15.959-.536z" fill="#cf9e70"/><path d="m45.297 36.475c-4.354-1.166-7.699-2.061-11.102-2.971-3.352-.9-1.561-5.332.717-5.955.857-.234 2.289-.439 3.965-.213 1.867.256 4.977.91 8.355 2.506 3.545 1.672 2.039 7.697-1.935 6.633z" fill="url(#d)"/><path d="m45.105 37.201-11.104-2.973c-4.174-1.119-2.246-6.596.713-7.404 1.047-.285 2.576-.459 4.262-.232 1.646.225 4.953.842 8.574 2.57 4.456 2.129 2.348 9.287-2.445 8.039zm-9.996-8.928c-1.459.398-3.355 3.797-.721 4.504l11.104 2.973c2.986.85 4.268-3.897 1.422-5.231-3.455-1.615-6.58-2.226-8.139-2.439-1.31-.178-2.672-.078-3.666.193z" fill="#cf9e70"/><path d="m43.015 43.356c-4.332-1.162-7.662-2.053-11.053-2.961-4.443-1.188-2.57-8.174 1.873-6.982 3.334.893 7.555 2.021 11.053 2.959 4.444 1.189 2.573 8.173-1.873 6.984z" fill="url(#e)"/><path d="m42.822 44.08-11.053-2.961c-5.557-1.646-2.918-9.9 2.26-8.433l11.053 2.961c5.543 1.556 2.998 9.888-2.26 8.433zm-10.666-4.41 11.053 2.959c3.436.955 4.967-4.547 1.486-5.531l-11.053-2.961c-3.199-1.041-5.228 4.414-1.486 5.533z" fill="#cf9e70"/><path d="m40.328 49.609c-4.047-1.084-7.156-1.914-10.322-2.766-4.148-1.109-2.4-7.633 1.75-6.521 3.113.832 7.053 1.889 10.32 2.764 4.148 1.109 2.4 7.633-1.748 6.523z" fill="url(#f)"/><path d="m40.135 50.334-10.323-2.764c-5.146-1.531-2.924-9.238 2.137-7.973l10.32 2.764c5.325 1.629 2.735 9.305-2.134 7.973zm-9.936-4.215 10.322 2.766c3.061.851 4.608-4.066 1.361-5.074l-10.32-2.764c-3.041-.852-4.603 4.195-1.363 5.072z" fill="#cf9e70"/></svg>