<svg enable-background="new 0 0 64 64" height="64" viewBox="0 0 64 64" width="64" xmlns="http://www.w3.org/2000/svg" xmlns:xlink="http://www.w3.org/1999/xlink"><linearGradient id="a" gradientUnits="userSpaceOnUse" x1="32.0005" x2="32.0005" y1="62" y2="2.0005"><stop offset="0" stop-color="#ffa027"/><stop offset=".2723" stop-color="#ffc151"/><stop offset=".7633" stop-color="#ffc93f"/><stop offset="1" stop-color="#ffe261"/></linearGradient><linearGradient id="b"><stop offset="0" stop-color="#e6eeff"/><stop offset=".0572" stop-color="#eef4ff"/><stop offset=".1807" stop-color="#fbfcff"/><stop offset=".3" stop-color="#fff"/><stop offset=".7" stop-color="#fff"/><stop offset=".8193" stop-color="#fbfcff"/><stop offset=".9428" stop-color="#eef4ff"/><stop offset="1" stop-color="#e6eeff"/></linearGradient><linearGradient id="c" gradientTransform="matrix(1 0 0 -1 194 170)" gradientUnits="userSpaceOnUse" x1="-167.5005" x2="-161.8477" xlink:href="#b" y1="120.3594" y2="120.3594"/><linearGradient id="d" gradientTransform="matrix(-1 0 0 -1 589.5801 170)" gradientUnits="userSpaceOnUse" x1="552.0811" x2="557.5791" xlink:href="#b" y1="120.3594" y2="120.3594"/><linearGradient id="e"><stop offset="0" stop-color="#fff" stop-opacity="0"/><stop offset="1" stop-color="#fff"/></linearGradient><linearGradient id="f" gradientTransform="matrix(23.2003 0 0 -17.1813 4765.6719 4517.7007)" gradientUnits="userSpaceOnUse" x1="-204.6465" x2="-204.6465" xlink:href="#e" y1="260.7559" y2="261.7559"/><linearGradient id="g" gradientTransform="matrix(23.2003 0 0 -17.1818 4794.0469 4517.8584)" gradientUnits="userSpaceOnUse" x1="-204.646" x2="-204.646" xlink:href="#e" y1="260.7568" y2="261.7559"/><circle cx="32" cy="32" fill="url(#a)" r="30"/><path d="m44 43.265c-7.684 4.9-16.4 4.846-24.003 0-1.035-.658-1.162.053-.842.613 5.408 9.498 20.282 9.496 25.692 0 .317-.561.192-1.272-.847-.613z" fill="#302c3b"/><path d="m32.001 47.947c-3.364 0-5.499-.584-5.499-.584s-.062 4.016.419 4.25c.857.418 3.67.342 4.438.143.644-.17.642-.549.642-.549.341-1.312 0-3.26 0-3.26z" fill="url(#c)"/><path d="m32.001 47.947c3.364 0 5.495-.584 5.495-.584s.066 4.016-.416 4.25c-.855.418-3.668.342-4.438.143-.644-.17-.642-.549-.642-.549v-3.26z" fill="url(#d)"/><g fill="#302c3b"><ellipse cx="20" cy="29" rx="4" ry="5"/><ellipse cx="44" cy="29" rx="4" ry="5"/><path d="m29.792 23.91h4.416v4.773h-4.416z"/><path d="m5.254 21.994c-1.686.563-2.229 3.602-.84 4.701 1.979 1.569 3.241-5.506.84-4.701z"/><path d="m58.746 21.994c-2.401-.805-1.139 6.268.84 4.701 1.389-1.097.846-4.137-.84-4.701z"/></g><path d="m26.609 35.463c-3.23 2.844-14.492 2.828-17.74 0-2.76-2.403-3.849-11.852-.936-14.091 1.949-1.497 17.713-1.052 19.611 0 3.245 1.795 1.811 11.675-.935 14.091z" fill="url(#f)" opacity=".5"/><path d="m37.391 35.463c3.23 2.844 14.492 2.828 17.74 0 2.76-2.404 3.849-11.854.936-14.093-1.948-1.497-17.711-1.05-19.609 0-3.247 1.797-1.813 11.677.933 14.093z" fill="url(#g)" opacity=".5"/><path d="m17.76 39.022c-1.641 0-7.201-.179-9.848-2.485-2.215-1.928-3.258-6.605-3.145-10.23.062-2.017.508-4.706 2.275-6.064.408-.313 1.646-1.265 9.581-1.265.39 0 9.583.013 11.63 1.146 1.387.768 2.258 2.426 2.52 4.793.42 3.794-.792 9.497-3.201 11.616-2.624 2.311-8.174 2.489-9.812 2.489zm-1.136-17.181c-4.88 0-7.356.409-7.833.684-.48.373-1.057 1.604-1.127 3.872-.109 3.559 1.029 7.006 2.164 7.994 1.215 1.057 4.402 1.77 7.932 1.77 3.518 0 6.685-.709 7.883-1.766 1.338-1.176 2.638-5.637 2.247-9.167-.147-1.349-.543-2.323-1.056-2.606-.693-.322-4.928-.781-10.21-.781z" fill="#302c3b"/><path d="m46.238 39.021c-1.638 0-7.188-.18-9.813-2.488-2.407-2.119-3.619-7.821-3.201-11.615.262-2.369 1.135-4.027 2.521-4.795 2.047-1.133 11.242-1.145 11.633-1.145 7.932 0 9.17.95 9.576 1.264 1.769 1.359 2.215 4.048 2.277 6.064.113 3.625-.932 8.303-3.145 10.231-2.645 2.307-8.203 2.484-9.848 2.484zm1.142-17.18c-5.284 0-9.522.458-10.232.788-.496.274-.89 1.25-1.039 2.599-.389 3.529.909 7.991 2.247 9.167 1.198 1.055 4.367 1.765 7.883 1.765 3.529 0 6.717-.71 7.932-1.769 1.135-.988 2.275-4.436 2.165-7.996-.071-2.268-.646-3.498-1.159-3.893-.443-.252-2.919-.661-7.797-.661z" fill="#302c3b"/></svg>