<svg enable-background="new 0 0 64 64" height="64" viewBox="0 0 64 64" width="64" xmlns="http://www.w3.org/2000/svg" xmlns:xlink="http://www.w3.org/1999/xlink"><linearGradient id="a" gradientUnits="userSpaceOnUse" x1="32.0005" x2="32.0005" y1="62" y2="2.0005"><stop offset="0" stop-color="#ffa027"/><stop offset=".2723" stop-color="#ffc151"/><stop offset=".7633" stop-color="#ffc93f"/><stop offset="1" stop-color="#ffe261"/></linearGradient><circle cx="32" cy="32" fill="url(#a)" r="30"/><path d="m20.501 15.929c2.365 0 4.285 1.918 4.285 4.285 0 2.366-1.92 4.286-4.285 4.286-2.371 0-4.286-1.92-4.286-4.286 0-2.367 1.915-4.285 4.286-4.285z" fill="#302c3b"/><circle cx="40.285" cy="22.356" fill="#302c3b" r="4.286"/><path d="m48.498 14.046c-4.182-1.74-9.674-1.711-12.346-.117-.563.337-.32 2.695.186 2.478 3.885-1.689 8.5-2.161 12.461-.805.531.182.328-1.296-.301-1.556z" fill="#917524"/><path d="m13.975 9.239c4.318-1.37 9.788-.861 12.31.959.533.384.083 2.715-.4 2.449-3.724-2.021-8.278-2.894-12.342-1.886-.548.137-.217-1.318.432-1.522z" fill="#917524"/><path d="m38.736 37.078c-5.363-4.482-14.008-5.661-19.534-2.205-.453.284-.254.906.308.779 4.556-1.045 12.515.344 16.953 4.293 1.699 1.513 4.101-1.338 2.273-2.867z" fill="#302c3b"/><path d="m20.818 60.227c-10.27 2.361-14.777-7.09-11.753-15.5 1.083-3.008-1.761-7.483 1.224-9.232 3.069-1.797 5.943.895 6.045 6.761 2.729-.616 6.432-2.922 8.78-2.76 1.283.09 5.766 2.11 7.239 2.219 5.073.37 4.901 6.86-1.625 6.166.104.988-.303 2.754-1.25 3.777.414 1.147.474 2.847-.961 4.373.56 3.981-4.346 6.333-7.699 4.196z" fill="#fff"/><path d="m20.585 61.08c-10.982 2.595-15.277-8.098-12.398-16.039 1.192-3.291-1.969-8.411 1.224-10.332 3.282-1.977 7.362.16 7.47 6.605 2.919-.681 6.111-2.992 8.622-2.814 1.374.1 6.176 2.439 7.753 2.559 5.424.405 4.998 8.053-1.981 7.291.109 1.086-.09 2.387-1.104 3.51.441 1.263.504 3.127-1.027 4.806.598 4.371-4.971 6.762-8.559 4.414zm2.034-3.029-1.219 1.385c5.018 2.479 8.533-3.345 3.227-5.473 1.497.072 2.582.694 3.106 1.146 1.555-2.39 1.386-3.941-1.696-6.021 2.104.479 2.877 1.514 2.877 1.514 1.521-3.02.637-4.285-2.163-5.862 2.083.144 3.387 1.351 4.641 1.673 3.154.813 4.518-3.417 1.888-3.607-3.24-.236-6.341-2.423-8.247-2.254-2.72.241-4.31 1.967-10.262 3.756.28-5.836-1.214-8.824-3.829-7.939-2.264.765.541 4.238-.861 8.828-3.144 10.287 4.102 17.131 12.538 12.854z" fill="#99a8ae"/></svg>