<svg enable-background="new 0 0 64 64" height="64" viewBox="0 0 64 64" width="64" xmlns="http://www.w3.org/2000/svg" xmlns:xlink="http://www.w3.org/1999/xlink"><radialGradient id="a" cx="50.6074" cy="29.5527" gradientTransform="matrix(1.0236 0 0 1.4056 -23.432 -14.5571)" gradientUnits="userSpaceOnUse" r="26.3573"><stop offset=".4364" stop-color="#fc6"/><stop offset=".6859" stop-color="#fecb64"/><stop offset=".7967" stop-color="#fac65d"/><stop offset=".88" stop-color="#f4bd50"/><stop offset=".903" stop-color="#f2ba4b"/></radialGradient><linearGradient id="b"><stop offset=".4545" stop-color="#fc6"/><stop offset=".6609" stop-color="#fdc961"/><stop offset=".9065" stop-color="#f6bf53"/><stop offset="1" stop-color="#f2ba4b"/></linearGradient><radialGradient id="c" cx="807.3906" cy="-1223.9629" gradientTransform="matrix(.149 -.8767 .6543 .1008 727.9295 864.819)" gradientUnits="userSpaceOnUse" r="7.7828" xlink:href="#b"/><radialGradient id="d" cx="807.9482" cy="-1232.0415" gradientTransform="matrix(.149 -.8767 .6543 .1008 725.0756 864.3417)" gradientUnits="userSpaceOnUse" r="9.3836" xlink:href="#b"/><path d="m34.604 30.668c-2.332-5.664-4.452-13.886-8.648-24.542-2.299-5.854-10.388-3.463-8.278 2.457 3.582 10.041 6.476 18.083 7.536 22.085z" fill="#fc6"/><path d="m25.982 30.668c-.788-3.094-7.599-22.337-7.599-22.337-1.686-4.738 4.848-7.092 6.874-1.93 2.297 5.829 7.52 21.736 8.546 24.267h1.612c-1.084-2.586-6.37-18.979-8.762-24.817-2.802-6.843-12.087-3.768-9.683 2.983 0 0 6.404 17.951 7.475 21.833h1.537z" fill="#d9a640"/><path d="m48.512 35.442-23.38-3.48c1.824-5.426 4.598-12.296 7.27-21.271 1.79-6.01-6.217-8.628-8.208-2.669-4.779 14.325-9.674 26.264-10.62 30.198-6.361 26.396 25.859 27.611 33.837 16.043 4.215-6.11 1.101-18.821 1.101-18.821z" fill="url(#a)"/><path d="m12.847 38.044c.664-2.768 8.502-23.865 10.636-30.26 2.354-7.038 11.644-3.68 9.637 3.12-2.078 7.038-6.452 18.894-6.987 20.448l22.988 3.422c.145.592 3.417 13.381-1.092 19.914-8.508 12.338-41.721 10.493-35.182-16.644zm12.057-29.784c-2.383 7.146-10.138 28.204-10.6 30.134-6.18 25.64 25.009 26.291 32.49 15.443 3.522-5.105 1.602-15.375 1.098-17.729l-23.756-3.536s5.763-16.105 7.546-22.096c1.502-5.038-5.094-7.253-6.778-2.216z" fill="#d9a640"/><path d="m28.525 35.417 1.673-.193c3.75 2.309 6.331 11.195 1.741 17.668 3.413-6.28.309-15.44-3.414-17.475z" fill="#d9a640"/><path d="m51.24 31.217c.084 2.116-.346 6.214-.938 7.858-.449 1.246-1.318 2.541-1.98 2.998-1.802 1.242-6.521.855-5.793-3.281.547-3.096 1.068-6.072 1.643-9.326.648-3.68 6.944-1.615 7.068 1.751z" fill="url(#c)"/><path d="m44.299 28.749c-.799 4.529-1.411 8.01-2.036 11.557-.817 4.645-9.375 3.285-8.556-1.359.613-3.484 1.388-7.896 2.035-11.555.82-4.65 9.374-3.288 8.557 1.357z" fill="url(#d)"/><path d="m41.79 38.663 1.644-9.327c.582-4.38 8.389-2.673 8.556 1.854.086 2.194-.351 6.384-.98 8.14-.502 1.389-1.452 2.801-2.26 3.361-2.412 1.66-7.802.746-6.96-4.028zm3.119-9.067-1.643 9.327c-.628 3.566 3.527 3.291 4.629 2.533.482-.334 1.281-1.473 1.701-2.635.554-1.537.973-5.572.895-7.575-.103-2.785-5.123-4.255-5.582-1.65z" fill="#d9a640"/><path d="m32.969 38.815 2.036-11.555c1.23-5.758 10.979-3.883 10.033 1.618l-2.036 11.556c-.963 5.629-11.027 4.003-10.033-1.619zm3.511-11.294-2.035 11.554c-.625 3.545 6.398 4.855 7.079 1.1l2.036-11.556c.659-3.507-6.403-4.871-7.08-1.098z" fill="#d9a640"/><path d="m29.951 27.976c6.24-5.709 11.168 1.745 5.46 8.15-3.947 4.438-10.85 6.271-12.095 7.932-.908 1.207-7.99-.65-8.727-3.129-2.307-7.807 9.539-7.627 15.362-12.953z" fill="#fc6"/><path d="m23.915 44.483-1.198-.9c1.469-1.957 7.976-3.449 12.134-7.979 5.021-5.466 1.214-12.226-4.394-7.098-6.068 5.551-15.478 3.726-16.686 12.639l-1.485-.201c1.333-9.852 11.557-8.421 17.16-13.545 6.752-6.174 13.075 1.853 6.524 9.203-3.798 4.27-11.077 6.581-12.055 7.881z" fill="#d9a640"/></svg>