<svg enable-background="new 0 0 64 64" height="64" viewBox="0 0 64 64" width="64" xmlns="http://www.w3.org/2000/svg" xmlns:xlink="http://www.w3.org/1999/xlink"><linearGradient id="a" gradientUnits="userSpaceOnUse" x1="32.0005" x2="32.0005" y1="62" y2="2.0005"><stop offset="0" stop-color="#ffa027"/><stop offset=".2723" stop-color="#ffc151"/><stop offset=".7633" stop-color="#ffc93f"/><stop offset="1" stop-color="#ffe261"/></linearGradient><linearGradient id="b" gradientUnits="userSpaceOnUse" x1="31.9995" x2="31.9995" y1="41.3037" y2="62"><stop offset=".1212" stop-color="#20591d"/><stop offset=".2982" stop-color="#3b7422"/><stop offset=".6776" stop-color="#81b92f"/><stop offset=".7636" stop-color="#92c932"/></linearGradient><circle cx="32" cy="32" fill="url(#a)" r="30"/><path d="m47.875 37c-.32 0-6.65 2-15.875 2-9.227 0-15.555-2-15.875-2-.734 0-1.125.508-1.125 1 0 7.271 5.959 15 17 15s17-7.729 17-15c0-.492-.391-1-1.125-1z" fill="#302c3b"/><path d="m21.923 44.718v4.026c0 8.824 4.513 13.252 10.077 13.256 5.564-.004 10.077-4.432 10.077-13.256 0-1.619 0-3.127 0-4.026 0-5.271-10.077-2.867-10.077-2.867s-10.077-2.405-10.077 2.867z" fill="url(#b)"/><path d="m48 27.223c0-1.096-.303-1.977-.91-2.643-.838-.92-2.051-1.293-3.205-1.604v-5.169c.461.104.869.266 1.184.531.533.443.838 1.074.91 1.893h1.734c-.055-1.283-.508-2.292-1.363-3.027-.645-.553-1.473-.934-2.465-1.08v-1.124h-1.732v1.099c-1.057.14-1.934.552-2.611 1.178-.836.776-1.252 1.824-1.252 3.142 0 1.048.318 1.895.955 2.539.787.809 1.859 1.186 2.908 1.49v5.628c-.639-.113-1.152-.335-1.52-.679-.541-.513-.83-1.342-.861-2.486h-1.772c0 1.511.424 2.848 1.27 3.652.684.635 1.654 1.137 2.883 1.307v1.13h1.732v-1.115c1.146-.145 2.094-.652 2.814-1.332.865-.826 1.301-1.936 1.301-3.33zm-7.277-5.515c-.889-.851-.789-2.55.102-3.37.338-.312.783-.508 1.328-.603v4.751c-.61-.198-1.09-.455-1.43-.778zm4.703 7.783c-.385.337-.904.539-1.541.622v-5.197c.768.208 1.342.527 1.721.954.387.437.58.989.58 1.654 0 .861-.254 1.516-.76 1.967z" fill="#302c3b"/><path d="m35.611 54.058c0-.791-.219-1.428-.657-1.908-.604-.666-1.48-.934-2.314-1.159v-3.734c.332.076.628.192.854.385.386.319.606.776.659 1.367h1.251c-.038-.927-.366-1.655-.984-2.187-.465-.399-1.063-.675-1.779-.78v-.812h-1.251v.793c-.764.102-1.396.398-1.887.851-.604.562-.904 1.318-.904 2.269 0 .758.23 1.367.69 1.833.567.586 1.343.856 2.101 1.078v4.063c-.461-.081-.832-.241-1.098-.489-.392-.37-.6-.969-.622-1.796h-1.28c0 1.091.306 2.057.918 2.638.493.459 1.194.819 2.082.942v.818h1.251v-.807c.828-.104 1.512-.47 2.032-.962.624-.596.938-1.398.938-2.403zm-5.256-3.984c-.642-.614-.569-1.841.074-2.434.243-.225.565-.368.959-.436v3.432c-.44-.143-.786-.327-1.033-.562zm3.398 5.621c-.279.243-.653.39-1.113.449v-3.752c.555.148.969.379 1.242.688.279.315.419.714.419 1.195 0 .622-.183 1.095-.548 1.42z" fill="#fff"/><path d="m26 27.224c0-1.097-.303-1.978-.909-2.644-.838-.92-2.051-1.293-3.205-1.604v-5.17c.46.104.869.266 1.183.531.533.443.838 1.075.911 1.894h1.733c-.054-1.283-.508-2.292-1.363-3.028-.645-.553-1.473-.934-2.464-1.079v-1.123h-1.732v1.099c-1.057.139-1.934.552-2.612 1.178-.835.776-1.252 1.824-1.252 3.142 0 1.048.319 1.894.956 2.538.786.81 1.859 1.186 2.908 1.49v5.629c-.639-.113-1.152-.336-1.521-.679-.541-.513-.829-1.342-.86-2.486h-1.773c0 1.511.424 2.848 1.271 3.651.684.635 1.654 1.137 2.883 1.307v1.132h1.732v-1.116c1.146-.145 2.093-.652 2.813-1.332.866-.826 1.301-1.937 1.301-3.33zm-7.276-5.515c-.89-.852-.789-2.55.102-3.371.337-.311.783-.508 1.328-.602v4.75c-.61-.197-1.091-.454-1.43-.777zm4.703 7.783c-.386.336-.904.539-1.541.622v-5.197c.768.208 1.342.526 1.72.954.387.437.58.988.58 1.654 0 .86-.253 1.516-.759 1.967z" fill="#302c3b"/></svg>