<svg enable-background="new 0 0 64 64" height="64" viewBox="0 0 64 64" width="64" xmlns="http://www.w3.org/2000/svg" xmlns:xlink="http://www.w3.org/1999/xlink"><radialGradient id="a" cx="2308.0298" cy="24.3676" gradientTransform="matrix(-.9776 -.2539 -.166 .653 2297.5715 592.6188)" gradientUnits="userSpaceOnUse" r="36.4079"><stop offset=".4485" stop-color="#fcd5b2"/><stop offset=".7565" stop-color="#fbd3b0"/><stop offset=".9046" stop-color="#f6cda8"/><stop offset="1" stop-color="#f0c59e"/></radialGradient><path d="m6.798 12.468c4.553 0 10.361-.209 19.111.014 19.557.502 31.109-2.885 34.098 1.727 2.605 4.019.238 13.293.688 22.572.273 5.639-6.049 6.225-6.049 6.225.828 3.142-1.529 11.264-8.355 8.783-6.873-2.496-13.643-2.579-16.848-4.923-2.879-2.105-6.475-6.993-9.016-9.536-.436-.438-9.781-3.855-13.629-3.855-5.455-.001-5.455-21.007 0-21.007z" fill="url(#a)"/><g fill="#e0af82"><path d="m46.038 52.49c-6.768-2.457-13.617-2.522-17.035-5.022-3.117-2.278-6.195-6.677-9.037-9.556-.811-.531-9.611-3.692-13.164-3.692-6.402 0-6.402-22.506 0-22.506 1.328 0 16.41-.055 19.129.014 20.344.523 31.395-3.045 34.709 2.068 2.791 4.306.348 13.453.807 22.945.219 4.514-3.42 6.39-5.928 6.888.452 4.301-2.712 11.322-9.481 8.861zm-20.147-39.262c-2.705-.068-17.756-.014-19.09-.014-4.461 0-4.461 19.506 0 19.506 3.869 0 13.418 3.364 14.16 4.076 1.346 1.289 6.588 7.75 8.928 9.46 2.906 2.126 9.801 2.334 16.66 4.823 6.328 2.303 8.377-5.807 7.146-8.744.604-.016 6.506-.281 6.252-5.521-.434-8.982 1.783-18.573-.57-22.202-2.626-4.054-15.011-.911-33.486-1.384z"/><path d="m41.167 24.339c3.207 1.305 8.162 3.055 11.399.451-3.322 3.912-.629 6.121-.588 9.205-1.387-3.381-2.699-4.01-2.994-4.084-.58-.148-2.072 2.296-2.072 2.296-.023-2.953 2.121-3.336 2.08-3.974-.029-.445-3.574-.053-7.023-1.361-.729-.275-1.104 13.357 12.356 15.184 1.254.166.896 1.648-.58 1.648-16.656-3.101-14.18-20.017-12.578-19.365z"/></g></svg>