<svg enable-background="new 0 0 64 64" height="64" viewBox="0 0 64 64" width="64" xmlns="http://www.w3.org/2000/svg" xmlns:xlink="http://www.w3.org/1999/xlink"><linearGradient id="a" gradientTransform="matrix(.9848 -.1736 -.1736 -.9848 328.5886 152.3607)" gradientUnits="userSpaceOnUse" x1="-271.021" x2="-271.021" y1="142.0039" y2="200.0156"><stop offset="0" stop-color="#ffa027"/><stop offset=".2723" stop-color="#ffc151"/><stop offset=".7633" stop-color="#ffc93f"/><stop offset="1" stop-color="#ffe261"/></linearGradient><linearGradient id="b"><stop offset="0" stop-color="#f18d84"/><stop offset=".2514" stop-color="#f29180" stop-opacity=".7486"/><stop offset=".5118" stop-color="#f49e73" stop-opacity=".4882"/><stop offset=".7755" stop-color="#f8b25f" stop-opacity=".2245"/><stop offset="1" stop-color="#fdca47" stop-opacity="0"/></linearGradient><radialGradient id="c" cx="14.2979" cy="29.7422" gradientUnits="userSpaceOnUse" r="9.6641" xlink:href="#b"/><radialGradient id="d" cx="48.1611" cy="23.522" gradientUnits="userSpaceOnUse" r="9.6653" xlink:href="#b"/><circle cx="32" cy="31" fill="url(#a)" r="29"/><circle cx="14.298" cy="29.742" fill="url(#c)" r="9.664"/><circle cx="48.162" cy="23.522" fill="url(#d)" r="9.666"/><g fill="#302c3b"><path d="m34.195 19.933c2.887-4.638 8.475-5.624 12.771-2.253.66.516.871-.204.605-.692-5.316-9.72-12.514-8.45-14.184 2.5-.08.551.365 1.155.808.445z"/><path d="m13.379 23.604c2.888-4.637 8.475-5.624 12.772-2.252.662.516.872-.204.605-.692-5.315-9.721-12.512-8.451-14.183 2.5-.083.549.362 1.153.806.444z"/><path d="m40.439 29.067c-4.406 5.351-11.065 6.522-17.031 3.003-.845-.496-1.165.258-.835.75 5.575 8.339 16.522 6.406 18.909-3.336.141-.572-.416-1.172-1.043-.417z"/></g><path d="m37.373 43.306c-.838.854-1.186 2.197-.895 3.438-.203.119-.395.268-.566.442-.809.82-1.111 2.142-.779 3.365.211.77.65 1.426 1.256 1.901-.166.592-.174 1.249-.006 1.897.342 1.33 1.332 2.356 2.656 2.758-.012.391.037.796.148 1.203.391 1.415 1.465 2.47 2.875 2.82 3.143.781 7.455 1.486 12.947-.011 1.525-.416 2.863-1.2 3.975-2.331 2.572-2.613 3.621-6.871 2.67-10.845-.873-3.664-3.262-6.375-6.547-7.441-5.828-1.89-8.865-1.99-10.48-.35-.41.418-1 1.263-.936 2.634-1.113-.071-2.352-.186-3.693-.364-1.002-.131-1.934.182-2.625.884z" fill="#99a8ae"/><path d="m37.939 48.308c5.414.866 8.639 0 8.639 0s-4.777-.214-7.391-.998c-1.447-.435-1.16-3.22.568-2.989 6.381.847 10.457.324 10.457.324s-3.92-.48-4.543-1.322c-.852-3.427 3.758-2.652 8.867-.996 7.545 2.446 7.34 14.942-.016 16.946-5.057 1.378-9.057.734-12.01 0-1.988-.494-1.887-3.188-.908-2.991 3.18.64 4.975 0 4.975 0s-4.824-.385-6.963-.997c-1.988-.566-1.836-3.35-.299-2.99 3.791.889 7.262 0 7.262 0s-4.797-.109-8.297-.996c-1.999-.508-1.614-3.195-.341-2.991z" fill="#fff"/><path d="m26.626 43.306c-.69-.701-1.623-1.015-2.625-.882-1.342.179-2.58.293-3.693.364.065-1.371-.524-2.216-.935-2.634-1.616-1.641-4.652-1.54-10.48.35-3.286 1.066-5.672 3.777-6.548 7.441-.95 3.974.099 8.231 2.67 10.845 1.112 1.131 2.451 1.915 3.976 2.331 5.492 1.497 9.804.792 12.947.011 1.411-.351 2.485-1.405 2.874-2.82.112-.407.16-.813.149-1.203 1.325-.401 2.315-1.428 2.658-2.758.168-.648.158-1.306-.006-1.897.602-.476 1.045-1.132 1.254-1.901.334-1.224.029-2.545-.778-3.365-.172-.175-.362-.323-.566-.442.291-1.243-.057-2.587-.897-3.44z" fill="#99a8ae"/><path d="m25.72 51.298c-3.501.887-8.297.996-8.297.996s3.471.889 7.261 0c1.537-.359 1.69 2.424-.298 2.99-2.14.612-6.963.997-6.963.997s1.795.64 4.975 0c.979-.196 1.08 2.497-.908 2.991-2.954.734-6.955 1.378-12.012 0-7.354-2.004-7.559-14.5-.013-16.946 5.109-1.656 9.718-2.431 8.866.996-.624.842-4.543 1.322-4.543 1.322s4.077.522 10.457-.324c1.729-.23 2.016 2.555.568 2.989-2.613.784-7.389.998-7.389.998s3.223.866 8.638 0c1.273-.203 1.656 2.484-.342 2.991z" fill="#fff"/></svg>