<svg enable-background="new 0 0 64 64" height="64" viewBox="0 0 64 64" width="64" xmlns="http://www.w3.org/2000/svg" xmlns:xlink="http://www.w3.org/1999/xlink"><radialGradient id="a" cx="1055.115" cy="-582.4376" gradientTransform="matrix(.0056 .8974 .5267 .0032 340.6678 -915.0864)" gradientUnits="userSpaceOnUse" r="39.4757"><stop offset=".6848" stop-color="#614a36"/><stop offset=".8491" stop-color="#5c4531"/><stop offset="1" stop-color="#523b26"/></radialGradient><path d="m12.355 32.217c8.023.199 8.746 7.756 11.072 5.951.601-.469.373-3.719.373-3.719-.139-5.336-.242-12.684-.309-23.494-.035-5.437 8.225-5.393 8.26.053-.01-1.367-.018-2.762-.029-4.191-.033-5.434 8.226-5.43 8.258.051.01 1.465.021 2.853.031 4.191-.037-5.43 8.225-5.379 8.258.049.008 1.158.021 3.822.045 6.967.205-5.412 7.051-5.254 7.275.168.252 6.168.629 18.715.66 25.266.047 9.395-5.426 18-16.059 17.738-23.109-.57-17.514-16.693-31.754-25.1-1.764-1.04-.079-4.028 3.919-3.93z" fill="url(#a)"/><path d="m8.056 36.793c13.967 8.246 8.569 24.627 32.135 25.207 13.199 0 16.846-11.213 16.809-18.496-.031-6.66-.41-19.184-.662-25.293-.186-4.514-4.691-6.188-7.297-3.75l-.021-3.359c-.029-4.777-5.531-6.092-8.283-3.607l-.007-.632c0-6.477-9.758-6.477-9.758-.043l.004.594c-2.84-2.555-8.266-1.174-8.234 3.547.065 10.418.162 17.889.307 23.508.096 1.359.121 2.838-.135 3.146-.889 1.063-2.836-5.957-10.559-6.15-5.205 0-6.566 3.992-4.299 5.328zm4.299-3.828c7.838.195 8.254 8.336 11.533 5.797.609-.477.83-1.943.66-4.365-.145-5.576-.307-13.037-.307-23.445 0-4.394 6.758-4.394 6.758.031l.143 22.545 1.5-.01-.142-22.516h.002l-.03-4.192c-.024-4.299 6.73-4.531 6.758.06l.021 2.924.15 23.783 1.5-.01-.141-22.518c0-4.396 6.756-4.394 6.756.061l.045 6.967h.002l.098 15.551 1.5-.01-.098-15.535c.182-4.371 5.588-4.311 5.775.189.25 6.098.629 18.594.66 25.238.041 7.957-4.119 16.99-15.307 16.99-22.717-.559-16.578-16.268-31.373-24.998-.963-.569.223-2.537 3.537-2.537z" fill="#452f1b"/></svg>