<svg enable-background="new 0 0 64 64" height="64" viewBox="0 0 64 64" width="64" xmlns="http://www.w3.org/2000/svg"><path d="m12.257 47.336c2.4-1.572 12.361-5.726 12.361-5.726h14.842s9.951 4.144 12.339 5.723c3.47 2.288 4.201 12.667 4.201 12.667h-48s.775-10.387 4.257-12.664z" fill="#7ab51d"/><g fill="#e6b045"><path d="m24.224 43.445c0 6.381 15.553 6.381 15.553 0 0-3.891 0-10.324 0-10.324h-15.553z"/><path d="m16.611 20.873c-5.147-.928-1.127 13.463 2.902 9.494 1.866-1.842-.495-9.058-2.902-9.494z"/><path d="m47.391 20.873c-2.406.435-4.77 7.652-2.9 9.494 4.028 3.969 8.043-10.422 2.9-9.494z"/></g><path d="m32.001 4c-10.642 0-15.769 8.051-15.126 19.246.128 2.254 1.524 9.6 2.843 12.234 1.348 2.695 5.86 6.852 8.625 7.713 1.746.543 5.568.543 7.314 0 2.765-.861 7.277-5.018 8.627-7.713 1.318-2.635 2.714-9.98 2.843-12.234.644-11.195-4.484-19.246-15.126-19.246z" fill="#fc6"/><path d="m35.3 30.518c0 2.148-6.599 2.148-6.599 0 0-.493 6.599-.493 6.599 0z" fill="#e6b045"/><path d="m32.001 4c-7.321 0-11.744 2.418-13.651 1.49 0 0-.207 1.248.54 2.061 0 0-.789.684-2.063-.469-1.213 3.939 2.388 6.221 15.174 6.221s9.731-3.113 16.017 2.356c-.617-6.741-4.899-11.659-16.017-11.659z" fill="#594640"/><path d="m37.415 9.875c-7.04 2.6-9.613-2.088-16.255-2.541 3.159 1.492 4.701 3.787 7.295 5.443-5.645-1.889-9.789-5.141-10.103-7.275 0 0-.942 3.117 2.784 5.447-3.563.33-4.307-3.855-4.307-3.855-1.804 2.898-1.554 12.246.45 19.182.334-2.475-.427-3.498.717-6.48 3.425-8.914 1.221-5.172 14.007-5.172 12.784 0 10.477-3.414 14.004 5.172 1.053 2.559.384 4.006.719 6.48 4.203-15.639-1.842-19.157-9.311-16.401z" fill="#453631"/><path d="m43.983 20.631c-2.434-1.207-7.091-1.268-8.825-.426-.371.164-.127 1.311.186 1.199 2.419-.895 6.318-.916 8.582.078.301.127.427-.681.057-.851z" fill="#c1873c"/><path d="m20.018 20.631c2.434-1.207 7.09-1.268 8.826-.426.371.164.127 1.311-.186 1.199-2.422-.895-6.317-.916-8.583.078-.301.127-.426-.681-.057-.851z" fill="#c1873c"/><path d="m28.561 24.754c-2.016 1.285-5.145 1.285-7.16 0-.308-.198-.491.016-.393.182 1.957 3.318 5.99 3.318 7.946 0 .099-.166-.086-.38-.393-.182z" fill="#45332c"/><path d="m42.6 24.754c-2.016 1.285-5.145 1.285-7.16 0-.308-.198-.49.016-.395.182 1.958 3.318 5.991 3.318 7.947 0 .1-.166-.085-.38-.392-.182z" fill="#45332c"/><path d="m27.296 37.543c2.866-1.662 6.547-1.662 9.411 0 .406.234.457-.018.331-.219-2.121-3.389-7.953-3.389-10.074 0-.125.201-.076.453.332.219z" fill="#c1873c"/><path d="m15 60h1c-.5-6.667-.5-6.667-1 0z" fill="#529320"/><path d="m45.585 44.458s-11.404-9.675-2.443-23.583c-3.653.201-4.164 5.016-4.288 3.141-.171-2.584-1.127-7.516-1.256-8.846-.228-2.408-3.308-2.357-3.578.047-.155 1.377.48 6.052.34 6.068-.133.012-2.607-5.853-2.981-6.709-1.03-2.371-3.753-1.635-3.359.953.438 2.875 2.237 6.373 2.027 6.449-.179.064-2.94-3.933-3.402-4.73-1.194-2.061-4.213-.242-2.797 1.922.054.082 3.456 5.232 3.262 5.302-.161.059-2.487-2.24-2.487-2.24-1.368-1.189-3.329.206-2.228 1.781 2.456 3.512 3.125 3.462 4.434 7.705.642 2.086 1.855 5.108 3.572 5.739.068.363.162.74.282 1.131-.217.25-.319.484-.267.693 3.085 12.34 6.6 20.719 6.6 20.719h18.984z" opacity=".3"/><path d="m31.442 38.152c-.429-1.715 9.51-5.307 9.988-3.201 1.622 7.131 13.57 25.049 13.57 25.049l-14.72-.002s-5.752-9.506-8.838-21.846z" fill="#7ab51d"/><path d="m40.724 34.781c.455 1.248-8.385 4.465-8.838 3.217-2.989-8.211 5.955-11.141 8.838-3.217z" fill="#ffd580"/><path d="m42.347 21.051c-2.975 1.156-2.15 4.227-3.282 3.828-.233-.082-.565-.781-.59-1.141-.167-2.582-.69-7.273-.819-8.604-.229-2.406-3.527-2.145-3.297.264.012.119 1.121 8.869.981 8.885-.133.012-3.561-9.123-3.934-9.978-1.03-2.371-4.087-.959-3.002 1.387.043.096 3.928 9.686 3.718 9.762-.179.064-4.812-7.441-5.298-8.223-1.365-2.197-4.186-.355-2.77 1.807.054.082 5.1 7.496 4.905 7.566-.161.059-4.162-4.289-4.162-4.289-1.359-1.662-3.496.055-2.136 1.719 2.888 3.533 3.842 3.848 5.15 8.09 1.139 3.693 4.199 5.516 8.339 4.016 9.049-3.279 4.12-8.852 8.233-14.066.513-.648-.552-1.597-2.036-1.023z" fill="#ffd580"/></svg>