<svg enable-background="new 0 0 64 64" height="64" viewBox="0 0 64 64" width="64" xmlns="http://www.w3.org/2000/svg"><path d="m19.938 16.643c-8.131 34.904-7.388 34.156 9.73 34.156-9.473-6.627 8.674-34.631-9.73-34.156z" fill="#211e1a"/><path d="m17.005 16.102c-5.935 26.52-.814 33.33 3.732 34.697h5.21c-12.19-8.588 6.864-35.218-8.942-34.697z" fill="#26221e"/><path d="m43.861 16.641c8.132 34.906 7.387 34.158-9.73 34.158 8.712-5.32-8.674-34.632 9.73-34.158z" fill="#211e1a"/><path d="m46.793 16.1c8.675 24.127-.018 33.582-3.732 34.699h-5.207c12.191-7.888-6.864-35.22 8.939-34.699z" fill="#26221e"/><path d="m48.236 29.065c2.512 6.133.027 18.723-5.176 21.734 5.767 0 9.277-7.979 10.99-18.955 2.139-13.717-10.288-13.724-5.814-2.779z" fill="#38332d"/><path d="m10.394 34.389c2.1 9.906 4.685 16.41 10.343 16.41-6.309-6.531-5.566-20.309-3.773-23.736 9.139-5.441-10.124-9.43-6.57 7.326z" fill="#38332d"/><path d="m13.077 52.43c2.302-1.412 11.849-5.139 11.849-5.139h14.22s9.538 3.721 11.828 5.135c3.324 2.055 4.026 9.574 4.026 9.574h-46s.741-7.527 4.077-9.57z" fill="#8e3ed6"/><path d="m24.832 48.94c0 5.725 14.336 5.725 14.336 0 0-3.492 0-9.264 0-9.264h-14.336z" fill="#423225"/><path d="m32 8.254c-10.836 0-16.054 8.824-15.402 20.17.134 2.281.768 5.57 1.551 8.391 1.625 5.859 10.201 11.76 13.851 11.76 3.649 0 12.227-5.9 13.85-11.76.785-2.82 1.419-6.109 1.555-8.391.649-11.345-4.567-20.17-15.405-20.17z" fill="#614a36"/><path d="m43.941 24.301c-2.442-1.453-6.82-1.633-8.555-.641-.366.201-.268 1.252.05 1.121 2.472-1.029 6.235-1.08 8.556.109.313.157.319-.376-.051-.589z" fill="#423225"/><path d="m20.061 24.301c2.44-1.453 6.818-1.633 8.555-.641.366.201.27 1.252-.051 1.121-2.473-1.029-6.234-1.082-8.555.109-.313.157-.32-.376.051-.589z" fill="#423225"/><path d="m35.359 35.256c0 2.185-6.719 2.185-6.719 0 .001-.504 6.719-.504 6.719 0z" fill="#423225"/><path d="m44.107 9.833c-7.598 7.785-.346 8.287 4.129 19.232 2.512 6.133 4.101 13.756 5.814 2.779 2.139-13.717-6.081-23.156-9.943-22.011z" fill="#38332d"/><path d="m25.457 6.85c-9.635 2.268-18.617 10.783-15.063 27.539 2.1 9.906 4.776-3.898 6.57-7.326 9.139-5.441 24.769-9.56 27.144-17.23 1.205-1.772-9.009-5.508-18.651-2.983z" fill="#38332d"/><g fill="#26221e"><path d="m18.074 19.055c4.074-.826 23.566-1.215 26.033-9.223-4.605 3.67-9.378 4.67-26.033 9.223z"/><path d="m11.05 31.795c6.835-9.123 29.228-8.117 33.058-21.963-7.436 11.622-31.19 13.192-33.058 21.963z"/><path d="m41.855 11.729c-1.766 2.781 4.364-1.303 10.971 16.6-1.628-10.467-7.211-17.672-10.971-16.6z"/></g><path d="m28.562 29.485c-2.015 1.284-5.146 1.284-7.16 0-.308-.199-.491.016-.394.182 1.957 3.318 5.99 3.318 7.946 0 .1-.167-.085-.381-.392-.182z" fill="#45332c"/><path d="m42.601 29.485c-2.015 1.284-5.145 1.284-7.16 0-.308-.199-.49.016-.395.182 1.958 3.318 5.991 3.318 7.947 0 .1-.167-.085-.381-.392-.182z" fill="#45332c"/><path d="m27.297 42.274c2.866-1.662 6.547-1.662 9.411 0 .406.234.457-.018.331-.219-2.121-3.389-7.953-3.389-10.074 0-.125.201-.076.453.332.219z" fill="#36281d"/><path d="m47.1 50.922s-13.919-14.139-4.958-28.047c-3.653.201-4.164 5.016-4.288 3.141-.171-2.584-1.127-7.516-1.256-8.846-.228-2.408-3.308-2.358-3.578.047-.155 1.377.48 6.053.34 6.068-.133.012-2.607-5.854-2.981-6.709-1.03-2.371-3.753-1.635-3.359.953.438 2.875 2.237 6.373 2.027 6.449-.179.064-2.94-3.934-3.402-4.73-1.194-2.061-4.213-.242-2.797 1.922.054.082 3.456 5.232 3.262 5.303-.161.059-2.487-2.24-2.487-2.24-1.368-1.19-3.329.207-2.228 1.781 2.456 3.513 3.125 3.463 4.434 7.705.642 2.086 1.855 5.107 3.572 5.738.068.363.162.74.282 1.131-.217.25-.319.484-.267.693 3.085 12.341 6.6 20.719 6.6 20.719h18.984s-5.72-8.458-7.9-11.078z" opacity=".3"/><path d="m30.442 40.153c-.429-1.715 9.51-5.307 9.988-3.201 1.622 7.131 13.57 25.048 13.57 25.048l-14.72-.002c0 .001-5.752-9.505-8.838-21.845z" fill="#8e3ed6"/><path d="m39.724 36.782c.455 1.248-8.385 4.465-8.838 3.217-2.989-8.211 5.955-11.141 8.838-3.217z" fill="#7d6047"/><path d="m41.347 23.051c-2.975 1.156-2.15 4.227-3.282 3.828-.233-.082-.565-.781-.59-1.141-.167-2.582-.69-7.273-.819-8.604-.229-2.406-3.527-2.144-3.297.264.012.119 1.121 8.869.981 8.885-.133.012-3.561-9.123-3.934-9.978-1.03-2.371-4.087-.959-3.002 1.387.043.096 3.928 9.686 3.718 9.762-.179.064-4.811-7.441-5.298-8.223-1.365-2.197-4.186-.355-2.77 1.807.054.082 5.1 7.496 4.905 7.566-.161.059-4.162-4.289-4.162-4.289-1.359-1.662-3.496.055-2.136 1.719 2.888 3.533 3.842 3.848 5.15 8.09 1.139 3.693 4.199 5.516 8.339 4.016 9.049-3.279 4.12-8.851 8.233-14.066.513-.648-.552-1.597-2.036-1.023z" fill="#7d6047"/><path d="m16 62h1c-.5-6.666-.5-6.666-1 0z" fill="#732eb0"/></svg>