<svg enable-background="new 0 0 64 64" height="64" viewBox="0 0 64 64" width="64" xmlns="http://www.w3.org/2000/svg" xmlns:xlink="http://www.w3.org/1999/xlink"><linearGradient id="a" gradientUnits="userSpaceOnUse" x1="32.0005" x2="32.0005" y1="62" y2="2.0005"><stop offset="0" stop-color="#ffa027"/><stop offset=".2723" stop-color="#ffc151"/><stop offset=".7633" stop-color="#ffc93f"/><stop offset="1" stop-color="#ffe261"/></linearGradient><circle cx="32" cy="32" fill="url(#a)" r="30"/><path d="m11.316 21.788c7.516-3.538 13.432 2.343 16.141.504.682-.464 1.477 1.093.82 1.593-3.529 2.688-10.111-2.521-15.701.899-.767.47-2.088-2.606-1.26-2.996z" fill="#917524"/><path d="m35.672 18.375c9.51-3.941 10.494-9.875 17.061-1.803.545.672-2.051 2.186-2.615 1.527-4.773-5.547-4.596-.59-13.719 1.889-.917.249-1.315-1.369-.727-1.613z" fill="#917524"/><g fill="#302c3b"><circle cx="22" cy="30.6" r="4.5"/><ellipse cx="41.999" cy="29.1" rx="4.5" ry="6"/><path d="m37.106 48h-10.212c-2.524 0-2.524-4 0-4h10.212c2.524 0 2.524 4 0 4z"/></g></svg>