<svg enable-background="new 0 0 64 64" height="64" viewBox="0 0 64 64" width="64" xmlns="http://www.w3.org/2000/svg" xmlns:xlink="http://www.w3.org/1999/xlink"><linearGradient id="a" gradientUnits="userSpaceOnUse" x1="32.0005" x2="32.0005" y1="62" y2="3.1999"><stop offset="0" stop-color="#ffa027"/><stop offset=".2723" stop-color="#ffc151"/><stop offset=".7633" stop-color="#ffc93f"/><stop offset="1" stop-color="#ffe261"/></linearGradient><linearGradient id="b" gradientUnits="userSpaceOnUse" x1="27.6426" x2="36.3564" y1="47.5176" y2="47.5176"><stop offset="0" stop-color="#cfd7e6"/><stop offset=".0368" stop-color="#dae0ec"/><stop offset=".1263" stop-color="#eef1f6"/><stop offset=".2147" stop-color="#fbfcfd"/><stop offset=".3" stop-color="#fff"/><stop offset=".7" stop-color="#fff"/><stop offset=".7853" stop-color="#fbfcfd"/><stop offset=".8737" stop-color="#eef1f6"/><stop offset=".9632" stop-color="#dae0ec"/><stop offset="1" stop-color="#cfd7e6"/></linearGradient><linearGradient id="c" gradientUnits="userSpaceOnUse" x1="31.9995" x2="31.9995" y1="58.1338" y2="55.709"><stop offset="0" stop-color="#d63324"/><stop offset=".0798" stop-color="#dc3f31"/><stop offset=".2475" stop-color="#e75346"/><stop offset=".4352" stop-color="#ee6155"/><stop offset=".6572" stop-color="#f3695d"/><stop offset="1" stop-color="#f46c60"/></linearGradient><linearGradient id="d"><stop offset=".4242" stop-color="#fff"/><stop offset="1" stop-color="#fff" stop-opacity="0"/></linearGradient><radialGradient id="e" cx="168.832" cy="7.9058" gradientTransform="matrix(1.3213 0 0 1 -191.0775 0)" gradientUnits="userSpaceOnUse" r="5.906" xlink:href="#d"/><radialGradient id="f" cx="144.2734" cy="15.7808" gradientTransform="matrix(1.25 0 0 1 -148.3418 0)" gradientUnits="userSpaceOnUse" r="5.906" xlink:href="#d"/><radialGradient id="g" cx="12.6221" cy="16.7256" gradientUnits="userSpaceOnUse" r="5.9058" xlink:href="#d"/><radialGradient id="h" cx="16.6631" cy="12.2402" gradientUnits="userSpaceOnUse" r="5.9063" xlink:href="#d"/><radialGradient id="i" cx="23.2954" cy="9.0347" gradientUnits="userSpaceOnUse" r="5.9063" xlink:href="#d"/><radialGradient id="j" cx="22.0596" cy="15.5625" gradientUnits="userSpaceOnUse" r="5.9063" xlink:href="#d"/><radialGradient id="k" cx="1147.4463" cy="16.7256" gradientTransform="matrix(-1 0 0 1 1198.8242 0)" gradientUnits="userSpaceOnUse" r="5.9058" xlink:href="#d"/><radialGradient id="l" cx="1151.4873" cy="12.2402" gradientTransform="matrix(-1 0 0 1 1198.8242 0)" gradientUnits="userSpaceOnUse" r="5.9063" xlink:href="#d"/><radialGradient id="m" cx="1158.1191" cy="9.0347" gradientTransform="matrix(-1 0 0 1 1198.8242 0)" gradientUnits="userSpaceOnUse" r="5.9065" xlink:href="#d"/><radialGradient id="n" cx="1156.8838" cy="15.5625" gradientTransform="matrix(-1 0 0 1 1198.8242 0)" gradientUnits="userSpaceOnUse" r="5.9063" xlink:href="#d"/><path d="m15.214 19.151c0 7.875 11.813 7.875 11.813 0-.001-7.874-11.813-7.874-11.813 0z" fill="#cfd8dd"/><path d="m36.974 19.151c0 7.875 11.813 7.875 11.813 0-.001-7.874-11.813-7.874-11.813 0z" fill="#cfd8dd"/><path d="m59.492 28.703c.321 2.328-.134 3.519-.134 5.979h-54.716c0-2.461-.135-5.979-.135-5.979l5.814-1.874 4.47 4.31 3.988-5.227 12.334 3.542 13.208-3.244 2.436 3.945 2.873-2.577 3.107 6.2 3.091-6.677z" fill="#e8a329"/><path d="m45.597 17.601h-27.194s4.918 4.192 4.918 8.608c0 4.421-4.918 8.61-4.918 8.61h27.193s-4.635-3.228-4.635-8.61c.001-5.378 4.636-8.608 4.636-8.608z" fill="#cc8400"/><path d="m42.875 17.601h-22.176s3.632 4.256 3.632 8.608c0 4.355-3.632 8.61-3.632 8.61h22.176s-3.394-3.306-3.394-8.61c0-5.301 3.394-8.608 3.394-8.608z" fill="#f59e01"/><path d="m39.488 17.601h-15.4s2.925 4.323 2.925 8.608c0 4.286-2.925 8.61-2.925 8.61h15.4s-2.762-3.046-2.762-8.61c.001-5.56 2.762-8.608 2.762-8.608z" fill="#ffe12c"/><path d="m29.397 20.188c1.378 1.177 2.004 7.895 1.319 10.188-.728 2.441-2.695-11.363-1.319-10.188z" fill="#f59e01"/><path d="m34.278 18.63c1.149 1.975.559 11.938-.532 15.168-1.157 3.445-.619-17.142.532-15.168z" fill="#f59e01"/><path d="m4.507 28.703c-.329 1.715-.507 3.485-.507 5.297 0 15.464 12.535 28 28 28 15.463 0 28-12.536 28-28 0-1.812-.18-3.582-.508-5.297l-4.358 4.979-2.563-3.563-2.312 1.881-3.625-4.963-5.018 2.5-2.617-1.5-4.48 4.839-2.786-2.21-2.2 3.521-5.848-7.15-6.787 3.629-2.941-1.897-3.18 4.565-3.163-4.917z" fill="url(#a)"/><path d="m38.533 52.778c0 9.028-13.066 9.028-13.066 0v-1.156c0-9.028 13.066-9.028 13.066 0z" fill="#302c3b"/><path d="m27.643 48.934c.869-1.691 2.496-2.833 4.355-2.833 1.863 0 3.486 1.14 4.358 2.833z" fill="url(#b)"/><path d="m28.576 56.952c.99.746 2.131 1.182 3.424 1.182s2.434-.436 3.423-1.182c0 0-1.712-2.182-3.423-.766-1.713-1.415-3.424.766-3.424.766z" fill="url(#c)"/><circle cx="21.5" cy="37.666" fill="#fff" r="7"/><path d="m25 37.666c0 1.934-1.57 3.5-3.5 3.5-1.936 0-3.5-1.566-3.5-3.5s1.564-3.5 3.5-3.5c1.93 0 3.5 1.566 3.5 3.5z" fill="#302c3b"/><circle cx="42.5" cy="37.666" fill="#fff" r="7"/><path d="m46 37.666c0 1.934-1.57 3.5-3.5 3.5-1.936 0-3.5-1.566-3.5-3.5s1.564-3.5 3.5-3.5c1.93 0 3.5 1.566 3.5 3.5z" fill="#302c3b"/><g fill="#cfd8dd"><path d="m39.805 7.906c0 7.874-15.609 7.874-15.609 0-.001-7.875 15.609-7.875 15.609 0z"/><path d="m39.383 15.78c0 7.875-14.766 7.875-14.766 0 0-7.874 14.766-7.874 14.766 0z"/><path d="m18.528 16.725c0 7.875-11.813 7.875-11.813 0 .001-7.873 11.813-7.873 11.813 0z"/><path d="m22.569 12.241c0 7.874-11.813 7.874-11.813 0 .001-7.876 11.813-7.876 11.813 0z"/><path d="m29.202 9.035c0 7.874-11.813 7.874-11.813 0 0-7.875 11.813-7.875 11.813 0z"/><path d="m27.966 15.563c0 7.875-11.813 7.875-11.813 0s11.813-7.875 11.813 0z"/><path d="m45.472 16.725c0 7.875 11.813 7.875 11.813 0-.001-7.873-11.813-7.873-11.813 0z"/><path d="m41.431 12.241c0 7.874 11.813 7.874 11.813 0-.001-7.876-11.813-7.876-11.813 0z"/><path d="m34.798 9.035c0 7.874 11.813 7.874 11.813 0 0-7.875-11.813-7.875-11.813 0z"/><path d="m36.034 15.563c0 7.875 11.813 7.875 11.813 0s-11.813-7.875-11.813 0z"/></g><path d="m39.805 7.906c0 7.874-15.609 7.874-15.609 0-.001-7.875 15.609-7.875 15.609 0z" fill="url(#e)"/><path d="m39.383 15.78c0 7.875-14.766 7.875-14.766 0 0-7.874 14.766-7.874 14.766 0z" fill="url(#f)"/><path d="m18.528 16.725c0 7.875-11.813 7.875-11.813 0 .001-7.873 11.813-7.873 11.813 0z" fill="url(#g)"/><path d="m22.569 12.241c0 7.874-11.813 7.874-11.813 0 .001-7.876 11.813-7.876 11.813 0z" fill="url(#h)"/><path d="m29.202 9.035c0 7.874-11.813 7.874-11.813 0 0-7.875 11.813-7.875 11.813 0z" fill="url(#i)"/><path d="m27.966 15.563c0 7.875-11.813 7.875-11.813 0s11.813-7.875 11.813 0z" fill="url(#j)"/><path d="m45.472 16.725c0 7.875 11.813 7.875 11.813 0-.001-7.873-11.813-7.873-11.813 0z" fill="url(#k)"/><path d="m41.431 12.241c0 7.874 11.813 7.874 11.813 0-.001-7.876-11.813-7.876-11.813 0z" fill="url(#l)"/><path d="m34.798 9.035c0 7.874 11.813 7.874 11.813 0 0-7.875-11.813-7.875-11.813 0z" fill="url(#m)"/><path d="m36.034 15.563c0 7.875 11.813 7.875 11.813 0s-11.813-7.875-11.813 0z" fill="url(#n)"/></svg>