<svg enable-background="new 0 0 64 64" height="64" viewBox="0 0 64 64" width="64" xmlns="http://www.w3.org/2000/svg" xmlns:xlink="http://www.w3.org/1999/xlink"><linearGradient id="a" gradientTransform="matrix(-1 0 0 1 458.7813 0)" gradientUnits="userSpaceOnUse" x1="428.7813" x2="428.7813" y1="60" y2="4.0005"><stop offset="0" stop-color="#ffa027"/><stop offset=".2723" stop-color="#ffc151"/><stop offset=".7633" stop-color="#ffc93f"/><stop offset="1" stop-color="#ffe261"/></linearGradient><linearGradient id="b" gradientUnits="userSpaceOnUse" x1="44.75" x2="42.166" y1="39.4482" y2="47.7813"><stop offset="0" stop-color="#c48324"/><stop offset=".2784" stop-color="#d79b30" stop-opacity=".7216"/><stop offset=".7466" stop-color="#f2bd41" stop-opacity=".2534"/><stop offset="1" stop-color="#fdca47" stop-opacity="0"/></linearGradient><linearGradient id="c" gradientUnits="userSpaceOnUse" x1="46.5225" x2="48.423" y1="26.2607" y2="34.4836"><stop offset="0" stop-color="#fdca47" stop-opacity="0"/><stop offset=".3804" stop-color="#f8bd3f" stop-opacity=".3804"/><stop offset="1" stop-color="#ed9f2c"/></linearGradient><linearGradient id="d" gradientTransform="matrix(1.0475 -.0018 -.0018 1.0686 -24.6424 -24.3924)" gradientUnits="userSpaceOnUse" x1="66.376" x2="68.152" y1="61.5889" y2="51.6119"><stop offset="0" stop-color="#fdaa2e"/><stop offset=".0413" stop-color="#fdb033"/><stop offset=".1722" stop-color="#fdbf3e"/><stop offset=".3295" stop-color="#fdc745"/><stop offset=".5818" stop-color="#fdca47"/><stop offset=".6505" stop-color="#fdcd4f"/><stop offset=".7585" stop-color="#fed666"/><stop offset=".8913" stop-color="#fee48a"/><stop offset="1" stop-color="#fff1ad"/></linearGradient><circle cx="30" cy="32" fill="url(#a)" r="28"/><path d="m39.578 42.602c-4.996-1.207-12.482-.158-15.928 4.541-.617.844-.018 1.729.846 1.154 3.297-2.193 9.688-3.551 14.289-2.457 1.758.416 2.633-2.774.793-3.238z" fill="#302c3b"/><path d="m9.74 18.107c2.814-3.678 7.692-6.459 10.871-6.413.67.011 1.661 2.223 1.1 2.288-4.303.49-8.628 2.431-11.439 5.657-.377.433-.954-.98-.532-1.532z" fill="#917524"/><path d="m50.257 18.109c-2.811-3.68-7.689-6.46-10.868-6.414-.669.01-1.661 2.224-1.1 2.287 4.3.492 8.628 2.432 11.439 5.657.376.435.955-.978.529-1.53z" fill="#917524"/><path d="m32.703 38.613c8.271 2.38 17.438 8.697 17.893 12.354 4.92-5.348 6.482-11.641 6.482-11.641s-12.844-5.437-24.375-.713z" fill="url(#b)"/><path d="m36.754 31.167c8.271 2.38 17.17 3.96 21.246.746 0-4.396-1.129-7.81-1.129-7.81s-8.586 2.339-20.117 7.064z" fill="url(#c)"/><path d="m32.729 38.613c7.734 1.252 15.201 2.602 22.922 3.249 7.873.66 8.729-9.554.855-10.213-7.256-.608-17.773-.41-23.15-.518-4.723-.093-5.438 6.703-.627 7.482z" fill="url(#d)"/><g fill="#302c3b"><circle cx="21" cy="26.396" r="4.5"/><circle cx="41" cy="26.396" r="4.5"/></g></svg>