<svg enable-background="new 0 0 64 64" height="64" viewBox="0 0 64 64" width="64" xmlns="http://www.w3.org/2000/svg" xmlns:xlink="http://www.w3.org/1999/xlink"><linearGradient id="a"><stop offset="0"/><stop offset="1" stop-color="#854e28"/></linearGradient><radialGradient id="b" cx="43.9063" cy="45.3496" gradientTransform="matrix(1.0066 0 0 1.0676 2.8037 -28.0706)" gradientUnits="userSpaceOnUse" r="12.3209" xlink:href="#a"/><radialGradient id="c" cx="-802.4673" cy="45.3496" gradientTransform="matrix(-1.0066 0 0 1.0676 -790.7637 -28.0706)" gradientUnits="userSpaceOnUse" r="12.3203" xlink:href="#a"/><linearGradient id="d" gradientUnits="userSpaceOnUse" x1="32.0005" x2="32.0005" y1="62" y2="9.0005"><stop offset="0" stop-color="#ffa027"/><stop offset=".2723" stop-color="#ffc151"/><stop offset=".7633" stop-color="#ffc93f"/><stop offset="1" stop-color="#ffe261"/></linearGradient><linearGradient id="e"><stop offset="0" stop-color="#854e28"/><stop offset=".2965" stop-color="#99623c"/><stop offset=".7394" stop-color="#b47d56"/></linearGradient><radialGradient id="f" cx="99.2578" cy="43.7842" gradientTransform="matrix(.8709 0 0 2.7408 -47.604 -110.8194)" gradientUnits="userSpaceOnUse" r="7.8629" xlink:href="#e"/><radialGradient id="g" cx="-885.0684" cy="43.7842" gradientTransform="matrix(-.8709 0 0 2.7408 -745.6456 -110.8194)" gradientUnits="userSpaceOnUse" r="7.8634" xlink:href="#e"/><radialGradient id="h" cx="120.1035" cy="49.3789" gradientTransform="matrix(.8342 0 0 1.0963 -68.1902 -38.8185)" gradientUnits="userSpaceOnUse" r="12.9353"><stop offset="0" stop-color="#4d4b54"/><stop offset=".2891" stop-color="#47454e"/><stop offset=".6902" stop-color="#35333d"/><stop offset="1" stop-color="#23202b"/></radialGradient><radialGradient id="i" cx="29.0039" cy="42.3887" gradientTransform="matrix(1.0066 0 0 1.0676 2.8037 -28.0706)" gradientUnits="userSpaceOnUse" r="18.3695"><stop offset=".2606" stop-color="#b47d56"/><stop offset=".7035" stop-color="#99623c"/><stop offset="1" stop-color="#854e28"/></radialGradient><path d="m57.426 10.706c7.09 0 6.041 21.34-3.857 19.116-8.778-1.971-21.569-6.924-21.569-6.924s20.436-12.192 25.426-12.192z" fill="url(#b)"/><path d="m6.574 10.706c-7.088 0-6.04 21.34 3.858 19.116 8.777-1.971 21.568-6.924 21.568-6.924s-20.436-12.192-25.426-12.192z" fill="url(#c)"/><circle cx="32" cy="35.5" fill="url(#d)" r="26.5"/><path d="m46.086 3.014c-2.332-3.068-8.654 1.804-14.086 1.804l-.984 11.545s4.481-1.224 15.463-4.478c-.819-5.07 1.08-6.936-.393-8.871z" fill="url(#f)"/><path d="m17.914 3.014c2.333-3.068 8.655 1.804 14.086 1.804l.986 11.545s-4.481-1.224-15.464-4.478c.818-5.07-1.081-6.936.392-8.871z" fill="url(#g)"/><path d="m46.479 11.886s-10.344-.264-14.479-.264c-4.133 0-14.478.264-14.478.264s-.736 1.39-.459 1.928c3.57 6.926 26.305 6.926 29.875 0 .277-.539-.459-1.928-.459-1.928z" fill="url(#h)"/><path d="m32 14.736c-16.753 0-19.491-4.03-25.426-4.03 8.619 2.229 11.81 12.963 25.426 12.957 13.618.006 16.807-10.729 25.426-12.957-5.934 0-8.672 4.03-25.426 4.03z" fill="url(#i)"/><g fill="#302c3b"><ellipse cx="23.167" cy="31.642" rx="3.975" ry="5.3"/><ellipse cx="40.834" cy="31.642" rx="3.975" ry="5.3"/><path d="m39.904 44.385c-4.814 4.116-10.996 4.113-15.807 0-.682-.581-1.089.047-.87.54 3.694 8.392 13.855 8.391 17.548 0 .217-.493-.187-1.121-.871-.54z"/></g></svg>