<svg enable-background="new 0 0 64 64" height="64" viewBox="0 0 64 64" width="64" xmlns="http://www.w3.org/2000/svg" xmlns:xlink="http://www.w3.org/1999/xlink"><linearGradient id="a" gradientUnits="userSpaceOnUse" x1="32.0005" x2="32.0005" y1="62" y2="2.0005"><stop offset="0" stop-color="#ffa027"/><stop offset=".2723" stop-color="#ffc151"/><stop offset=".7633" stop-color="#ffc93f"/><stop offset="1" stop-color="#ffe261"/></linearGradient><linearGradient id="b" gradientUnits="userSpaceOnUse" x1="36.1162" x2="39.9912" y1="49.2432" y2="59.9307"><stop offset=".0303" stop-color="#bdebff"/><stop offset=".1697" stop-color="#75d6ff"/><stop offset=".3955" stop-color="#72d5fe"/><stop offset=".5504" stop-color="#69d2fa"/><stop offset=".6841" stop-color="#5acdf4"/><stop offset=".8056" stop-color="#44c6ea"/><stop offset=".9179" stop-color="#29bddf"/><stop offset="1" stop-color="#0fb4d4"/></linearGradient><circle cx="32" cy="32" fill="url(#a)" r="30"/><path d="m21.193 42.416c7.875 3.605 18.568 2.865 21.717 2.865.844 0 1.338.305 1.135.92-2.271 6.887-19.297 6.887-23.982-2.703-.522-1.072.408-1.412 1.13-1.082z" fill="#302c3b"/><path d="m29.927 50.588c.801-1.336 5.79-.934 5.79-.934 2.699-1.781 5.75-1.969 6.801-1.168-1.752 5.777 2.367 11.674-1.945 11.674-4.125 0 1.656-10.189-4.25-9.125-3.392.611-6.396-.447-6.396-.447z" fill="url(#b)"/><path d="m53.344 20.273c-4.158-3.201-10.314-4.814-13.779-3.832-.732.208-1.168 2.92-.535 2.826 4.854-.725 10.158.131 14.184 2.838.538.364.755-1.351.13-1.832z" fill="#917524"/><path d="m10.959 19.496c3.537-3.877 9.319-6.534 12.904-6.168.755.076 1.655 2.674 1.016 2.689-4.905.131-9.981 1.893-13.474 5.257-.469.455-.98-1.197-.446-1.778z" fill="#917524"/><g fill="#302c3b"><path d="m36.762 32.98c4.281-3.271 10.932-3.272 15.213 0 .654.502 1.045-.041.838-.465-4.16-8.445-12.729-8.445-16.887 0-.211.424.179.967.836.465z"/><path d="m12.025 32.98c4.281-3.271 10.932-3.272 15.212 0 .654.502 1.045-.041.838-.465-4.16-8.445-12.728-8.445-16.886 0-.21.424.18.967.836.465z"/></g></svg>