<svg enable-background="new 0 0 64 64" height="64" viewBox="0 0 64 64" width="64" xmlns="http://www.w3.org/2000/svg" xmlns:xlink="http://www.w3.org/1999/xlink"><linearGradient id="a" gradientUnits="userSpaceOnUse" x1="32.0005" x2="32.0005" y1="62" y2="2.0005"><stop offset="0" stop-color="#7ab51d"/><stop offset="1" stop-color="#a6e639"/></linearGradient><linearGradient id="b"><stop offset="0" stop-color="#957ca1" stop-opacity=".5"/><stop offset=".1848" stop-color="#957f9d" stop-opacity=".4076"/><stop offset=".3762" stop-color="#958890" stop-opacity=".3119"/><stop offset=".5708" stop-color="#94967c" stop-opacity=".2146"/><stop offset=".7675" stop-color="#93aa5f" stop-opacity=".1162"/><stop offset=".9641" stop-color="#92c43a" stop-opacity=".0179"/><stop offset="1" stop-color="#92c932" stop-opacity="0"/></linearGradient><radialGradient id="c" cx="49.8105" cy="41" gradientUnits="userSpaceOnUse" r="10" xlink:href="#b"/><radialGradient id="d" cx="14.1895" cy="41" gradientUnits="userSpaceOnUse" r="10" xlink:href="#b"/><circle cx="32" cy="32" fill="url(#a)" r="30"/><path d="m49.811 31c5.52 0 10 4.477 10 10 0 5.521-4.48 10-10 10-5.525 0-10-4.479-10-10 0-5.523 4.474-10 10-10z" fill="url(#c)"/><path d="m14.189 31c5.52 0 10 4.477 10 10 0 5.521-4.48 10-10 10-5.525 0-10-4.479-10-10 0-5.523 4.475-10 10-10z" fill="url(#d)"/><path d="m14.453 17.75c5.244.238 11.211-1.973 13.488-4.764.479-.592-.721-3.061-1.184-2.623-3.561 3.379-8.396 5.719-13.246 5.811-.65.014.155 1.541.942 1.576z" fill="#529320"/><path d="m49.541 17.748c-5.242.238-11.209-1.971-13.486-4.764-.48-.588.723-3.061 1.186-2.621 3.559 3.377 8.395 5.719 13.244 5.811.652.012-.155 1.541-.944 1.574z" fill="#529320"/><path d="m39.627 42.532c-5.734-1.727-9.52-1.727-15.254.001-.945.298-1.373-3.347-1.373-3.347 7.238-2.181 10.76-2.181 18 0 0 0-.426 3.646-1.373 3.346z" fill="#302c3b"/><path d="m43.639 33.741c-5.865 1.606-5.865 13.011 0 14.617-2.934-3.475-2.934-11.141 0-14.617z" fill="#529320"/><path d="m20.359 48.358c5.867-1.606 5.867-13.011 0-14.617 2.936 3.476 2.936 11.142 0 14.617z" fill="#529320"/><g fill="#302c3b"><circle cx="22" cy="25.5" r="4.5"/><circle cx="42" cy="25.5" r="4.5"/></g></svg>