<svg enable-background="new 0 0 64 64" height="64" viewBox="0 0 64 64" width="64" xmlns="http://www.w3.org/2000/svg" xmlns:xlink="http://www.w3.org/1999/xlink"><radialGradient id="a" cx="42.5625" cy="5.9722" gradientUnits="userSpaceOnUse" r="5.5"><stop offset="0" stop-color="#ffe02e"/><stop offset=".2489" stop-color="#ffda29"/><stop offset=".5857" stop-color="#ffc91a"/><stop offset=".9714" stop-color="#ffac02"/><stop offset="1" stop-color="#fa0"/></radialGradient><linearGradient id="b"><stop offset="0" stop-color="#fff"/><stop offset="1" stop-color="#fff" stop-opacity="0"/></linearGradient><radialGradient id="c" cx="555.9424" cy="-40.6094" gradientTransform="matrix(.3583 .4654 -.7924 .61 -189.2077 -228.6484)" gradientUnits="userSpaceOnUse" r="3.9138" xlink:href="#b"/><radialGradient id="d" cx="9.7363" cy="15.5474" gradientUnits="userSpaceOnUse" r="5.4999"><stop offset="0" stop-color="#9be022"/><stop offset=".2668" stop-color="#91d422"/><stop offset=".7474" stop-color="#78b423"/><stop offset="1" stop-color="#69a123"/></radialGradient><radialGradient id="e" cx="533.9209" cy="-8.4531" gradientTransform="matrix(.3583 .4654 -.7924 .61 -189.2077 -228.6484)" gradientUnits="userSpaceOnUse" r="3.9136" xlink:href="#b"/><radialGradient id="f" cx="54.9668" cy="52.4727" gradientUnits="userSpaceOnUse" r="5.4998"><stop offset=".2121" stop-color="#ff3b3b"/><stop offset=".4183" stop-color="#f63131"/><stop offset=".7712" stop-color="#de1615"/><stop offset="1" stop-color="#cc0100"/></radialGradient><radialGradient id="g" cx="631.2441" cy="-21.9082" gradientTransform="matrix(.3583 .4654 -.7924 .61 -189.2077 -228.6484)" gradientUnits="userSpaceOnUse" r="3.9136" xlink:href="#b"/><path d="m27.102 21.881c-4.647 21.435-4.222 20.976 5.565 20.976-5.416-4.072 4.956-21.269-5.565-20.976z" fill="#261a17"/><path d="m25.426 21.548c-3.387 16.286-.463 20.466 2.137 21.309h2.974c-6.965-5.277 3.921-21.629-5.111-21.309z" fill="#1e1513"/><path d="m40.779 21.879c4.65 21.436 4.221 20.977-5.561 20.977 4.979-3.268-4.958-21.268 5.561-20.977z" fill="#261a17"/><path d="m42.455 21.548c4.959 14.814-.009 20.62-2.134 21.309h-2.978c6.974-4.845-3.917-21.631 5.112-21.309z" fill="#1e1513"/><path d="m43.281 29.506c1.436 3.769.016 11.5-2.96 13.351 3.298 0 5.306-4.899 6.284-11.642 1.223-8.424-5.882-8.43-3.324-1.709z" fill="#3a2c29"/><path d="m21.649 32.779c1.198 6.083 2.677 10.077 5.913 10.077-3.606-4.013-3.185-12.472-2.158-14.578 5.224-3.34-5.787-5.791-3.755 4.501z" fill="#3a2c29"/><path d="m23 42.871c-2.136.78-4.102 7.288-7.481 10.121-1.043-2.077-3.192-6.515-4.041-8.836 0 0-3.386-.7-4.916.597 1.362 5.344 2.578 10.234 5.453 15.422 1.223 2.206 10.656-3.344 11.893-8.38-.001 0 .617-1.814-.908-8.924z" fill="#8e3ed6"/><path d="m5.377 42.902c.45.222 1.611-2.256 1.161-2.477 0 0-2.3-.771-3.024-.745-1.712.057-1.692 1.552-1.287 1.657 1.184.303 3.15 1.565 3.15 1.565z" fill="#dba97f"/><path d="m5.582 35.497c-.049 2.662.53 4.479.53 4.479 0-1.307.14-3.786.313-4.873.238-1.5 2.177-1.676 2.046-.163-.209 2.415.107 5.021.107 5.021s.263-2.302.421-4.235c.122-1.461 1.973-1.31 1.945.157-.021 1.182-.38 4.803-.38 4.803s.641-.873.797-2.98c.082-1.102 1.325-.776 1.359.313.061 1.939-.203 2.434-.438 3.344-.125.486-.175 1.844-.956 3.234-.484.861-3.601 1.109-4.5.422-.509-.39-2.197-2.872-2.575-3.721-.409-.92-.748-3.42-.609-5.529.101-1.525 1.968-1.8 1.94-.272z" fill="#fcd5b2"/><path d="m45 42.871c3.643 2.544 5.766 15.406 12.937 16.19-1.176 2.647-3.877 2.644-5.563 2.644-2.604 0-6.168-5.422-8.28-7.986-.001 0-.619-3.738.906-10.848z" fill="#8e3ed6"/><path d="m23 42.871c1.547-1.12 7.083-3.024 7.083-3.024h7.885s5.495 1.898 7.032 3.024l-.622 19.129h-20.74z" fill="#8e3ed6"/><path d="m23 42.871c1.39-.867 2.65-1.408 2.65-1.408l2.746 20.537h-3.296z" fill="#302c3b"/><path d="m45 42.871c-1.39-.867-2.65-1.408-2.65-1.408l-2.746 20.537h3.296z" fill="#302c3b"/><path d="m43.632 2c-3.035 0-5.5 2.466-5.5 5.505 0 3.036 2.465 5.495 5.5 5.495s5.5-2.459 5.5-5.495c0-3.039-2.465-5.505-5.5-5.505z" fill="url(#a)"/><path d="m43.568 7.137c-1.713 1.319-3.729 1.572-4.503.566-.774-1.007-.015-2.891 1.697-4.209 1.714-1.319 3.729-1.572 4.504-.566.776 1.007.015 2.891-1.698 4.209z" fill="url(#c)" opacity=".5"/><path d="m10.5 11.27c-3.036 0-5.5 2.464-5.5 5.502 0 3.039 2.464 5.498 5.5 5.498 3.034 0 5.5-2.459 5.5-5.498s-2.466-5.502-5.5-5.502z" fill="url(#d)"/><path d="m10.197 16.503c-1.713 1.319-3.729 1.572-4.503.566s-.014-2.89 1.698-4.209c1.714-1.319 3.729-1.572 4.504-.566.775 1.007.014 2.892-1.699 4.209z" fill="url(#e)" opacity=".5"/><path d="m59.759 59.138c-.313.392-2.43-1.337-2.121-1.731 0 0 1.74-1.69 2.404-1.981 1.568-.688 2.197.668 1.877.937-.936.785-2.16 2.775-2.16 2.775z" fill="#dba97f"/><path d="m56.036 48.5c-3.035 0-5.5 2.466-5.5 5.505 0 3.036 2.465 5.495 5.5 5.495s5.5-2.459 5.5-5.495c0-3.039-2.465-5.505-5.5-5.505z" fill="url(#f)"/><path d="m55.729 53.59c-1.713 1.319-3.729 1.572-4.502.566-.775-1.007-.016-2.891 1.697-4.209 1.713-1.319 3.729-1.572 4.504-.566.776 1.007.014 2.891-1.699 4.209z" fill="url(#g)" opacity=".5"/><path d="m58.774 57.384c-.1.61-.354 1.116-.354 1.116s.12-1.256 0-1.957c-.236-1.384-2.025-1.266-1.935.071.074 1.089-.311 2.088-.311 2.088s-.245-.998-.354-2.041c-.15-1.438-2.166-1.275-2.102.168.036.796.16 1.856.16 1.856s-.263-.538-.388-1.164c-.269-1.355-1.967-1.351-1.763.022.396 2.672 2.09 2.686 2.37 2.002.338.811 1.478.742 1.944.254.384.47 1.789.556 2.156-.136.691.706 1.924-.084 2.143-1.605.198-1.35-1.348-2.023-1.566-.674z" fill="#fcd5b2"/><path d="m30.335 40.521c0 4.147 7.326 4.147 7.326 0v-4.298h-7.326z" fill="#dba97f"/><path d="m34 16.729c-6.658 0-9.862 5.418-9.457 12.387.08 1.401.467 3.422.949 5.153 1 3.598 6.263 7.219 8.508 7.219s7.506-3.621 8.505-7.219c.481-1.731.872-3.752.952-5.153.402-6.97-2.803-12.387-9.457-12.387z" fill="#fcd5b2"/><path d="m34 35.743c-1.616-.713-1.634-.03-4.13.138.939 1.064 1.631 2.431 4.126 2.431 2.87 0 3.355-1.552 4.13-2.431-2.495-.168-2.51-.851-4.126-.138z" fill="#d88d56"/><path d="m30.621 36.144c1.63 1.696 5.145 1.679 6.759.002-2.515.27-4.245.27-6.759-.002z" fill="#fff"/><path d="m41.331 26.582c-1.501-.893-4.185-1.002-5.254-.393-.224.122-.16.77.035.688 1.515-.632 3.826-.663 5.254.069.192.095.192-.233-.035-.364z" fill="#594640"/><path d="m26.669 26.582c1.497-.893 4.186-1.002 5.25-.393.224.122.168.77-.03.688-1.52-.632-3.827-.663-5.251.069-.196.095-.2-.233.031-.364z" fill="#594640"/><path d="m36.063 33.312c0 1.343-4.126 1.343-4.126 0 .001-.311 4.126-.311 4.126 0z" fill="#dba97f"/><path d="m41.188 29.308c-.891 2.322-4.507 1.982-5.167.354.5-2.618 4.675-2.84 5.167-.354z" fill="#fff"/><path d="m36.926 29.053c0 2.06 2.98 2.06 2.98 0 0-1.915-2.98-1.915-2.98 0z" fill="#613f34"/><path d="m37.219 29.712c0 1.183 2.392 1.183 2.392 0-.001-1.097-2.392-1.097-2.392 0z" fill="#7d5037"/><path d="m37.795 29.083c0 .855 1.239.855 1.239 0 0-.792-1.239-.792-1.239 0z" fill="#1a1626"/><path d="m37.376 28.834c0 .433.625.433.625 0 0-.399-.625-.399-.625 0z" fill="#ab968c"/><path d="m41.188 29.289c0-2.502-5.167-2.502-5.167.396.738-2.378 4.43-2.378 5.167-.396z" fill="#45332c"/><path d="m26.809 29.308c.894 2.322 4.511 1.982 5.174.354-.506-2.618-4.678-2.84-5.174-.354z" fill="#fff"/><path d="m28.094 29.056c0 2.06 2.978 2.06 2.978 0-.001-1.913-2.978-1.913-2.978 0z" fill="#613f34"/><path d="m28.388 29.714c0 1.183 2.394 1.183 2.394 0-.001-1.095-2.394-1.095-2.394 0z" fill="#7d5037"/><path d="m28.963 29.087c0 .857 1.238.857 1.238 0 0-.794-1.238-.794-1.238 0z" fill="#1a1626"/><path d="m28.544 28.84c0 .431.624.431.624 0 0-.402-.624-.402-.624 0z" fill="#ab968c"/><path d="m26.809 29.289c0-2.502 5.174-2.502 5.174.392-.741-2.376-4.434-2.376-5.174-.392z" fill="#45332c"/><path d="m40.52 24.45c.841 1.231 1.891 2.768 2.762 5.056 1.436 3.769 2.346 8.451 3.324 1.709.367-2.529.193-4.814-.279-6.765z" fill="#3a2c29"/><path d="m21.675 24.45c-.588 2.29-.673 5.051-.025 8.329 1.198 6.083 2.729-2.395 3.755-4.501 2.098-1.342 4.792-2.554 7.356-3.828z" fill="#3a2c29"/><path d="m31.716 24.45c-4.597 2.096-9.096 3.726-9.693 6.735 2.364-3.389 7.977-4.504 12.53-6.735z" fill="#1e1513"/><path d="m43.978 24.45c.619 1.189 1.268 2.688 1.926 4.605-.245-1.695-.65-3.245-1.149-4.605z" fill="#1e1513"/><path d="m48.643 24.142c0 2.549-29.285 2.549-29.285 0-.001-2.55 29.285-2.55 29.285 0z" fill="#4e5e67"/><path d="m45.5 23.062c0 2.193-23 2.193-23 0 0-12.083 23-12.083 23 0z" fill="#302c3b"/><path d="m40.182 46.866c.44 1.108-4.623-1.043-4.623-1.043v-2.443s4.92-2.879 4.597-1.73c-.397 1.418-.34 4.301.026 5.216z" fill="#302c3b"/><path d="m38.068 44.4-2.087-.171 1.388-1.233-1.81.997v1.239l2.041.631-1.567-.966z" fill="#4e5e67"/><path d="m27.841 46.866c-.441 1.108 4.622-1.043 4.622-1.043v-2.443s-4.926-2.879-4.6-1.73c.401 1.418.343 4.301-.022 5.216z" fill="#302c3b"/><path d="m29.952 44.4 2.089-.171-1.389-1.233 1.811.997v1.239l-2.041.631 1.564-.966z" fill="#4e5e67"/><path d="m35.513 46.159c-.529.551-2.476.551-3.009 0-.531-.548-.531-2.557 0-3.104.533-.55 2.479-.55 3.009 0 .534.548.534 2.556 0 3.104z" fill="#302c3b"/></svg>