<svg enable-background="new 0 0 64 64" height="64" viewBox="0 0 64 64" width="64" xmlns="http://www.w3.org/2000/svg" xmlns:xlink="http://www.w3.org/1999/xlink"><radialGradient id="a" cx="53.7734" cy="8.4414" gradientTransform="matrix(.9987 0 0 1 -.5357 0)" gradientUnits="userSpaceOnUse" r="8.01"><stop offset="0" stop-color="#fae803"/><stop offset=".2582" stop-color="#fae103"/><stop offset=".636" stop-color="#facd03"/><stop offset="1" stop-color="#fab403"/></radialGradient><path d="m49.893 15.437c-1.849 4.166-3.27 4.971-4.213 7.185-3.313 1.643-4.562 1.196-7.781 2.626-9.047 1.578-13.247 4.231-13.247 4.231-5.961 1.895-4.135 4.204-7.044 11.436-2.625 4-1.667 6.667-6.208 10.376-3.275 2.675.028 4.66 5.141.182 1.851-3.308 4.136-4.683 5.681-10.315 0 4.281 1.553 5.185-.6 10.861l14.011-1.991c.995-4.917 2.796-7.081 3.58-12.967.884-6.636 4.093-6.161 9.594-9.125 1.53-.823 4.281-11.455 4.281-11.455s-2.894-1.724-3.195-1.044z" fill="#fc6"/><path d="m2 62h60v-12.836c-32.493-.939-42.373 3.053-60 1.003z" fill="#48c2f9"/><path d="m62 54.823c-22.667-.26-39.188 2.21-60 1.5v5.677h60z" fill="#7ed2fc"/><ellipse cx="54.001" cy="10.01" fill="url(#a)" rx="8.001" ry="8.01"/><path d="m61.112 6.792c-.531-.748-1.071-1.196-1.396-1.425.074-.267.128-.531.159-.791-.098-.108-.199-.212-.304-.312-.101 2.291-2.507 5.159-3.304 6.109-.043.051-.081.096-.115.137-.965-.234-2.12-.488-3.304-.736.853-2.914 2.456-6.189 4.205-7.168-.126-.054-.255-.103-.384-.148-1.854 1.227-3.364 4.575-4.143 7.25-1.326-.276-2.668-.541-3.796-.76.122-1.243.5-2.636 1.02-3.754.708-1.521 1.683-2.578 2.825-3.068-.387.07-.762.167-1.125.289-.788.607-1.468 1.502-1.998 2.643-.53 1.14-.915 2.557-1.046 3.828-.507-.099-.963-.186-1.344-.258-.142-.028-.273-.053-.392-.075-.046-.515-.039-1.731.755-3.108-.462.665-.825 1.402-1.07 2.191-.046.439-.029.791-.005 1.018-.123.209-.235.469-.331.767-.011.195-.019.391-.019.59 0 .375.026.746.077 1.108.017-.921.243-1.734.529-2.247.12.023.253.049.396.074 2.071.397 6.355 1.217 9.079 1.884.305 1.075.544 2.054.715 2.915-1.442.444-3.811.489-5.963.105-2.465-.438-4.172-1.323-4.71-2.436.05.285.116.563.195.836.336.354.789.674 1.355.959.829.416 1.902.749 3.101.962.992.177 2.031.265 3.01.265 1.174 0 2.26-.125 3.073-.37.19 1.036.276 1.89.251 2.519-1.069.577-2.721.883-4.34.799-1.307-.065-2.487-.369-3.445-.875.567.41 1.19.747 1.855.998.5.107 1.025.176 1.573.203.179.01.358.014.538.014 1.405 0 2.793-.275 3.785-.756-.027.195-.069.359-.128.492.136-.055.269-.112.399-.173.356-1.479-.411-4.645-.951-6.556.036-.043.078-.094.125-.15.386-.459 1.042-1.241 1.675-2.174 1.107 1.395 2.958 3.854 2.003 6.668.185-.229.357-.465.518-.711.182-1.072.026-2.189-.468-3.335-.521-1.21-1.317-2.224-1.862-2.909.489-.754.947-1.588 1.229-2.424.29.217.767.63 1.231 1.284.54.758.923 1.632 1.144 2.601-.035-.652-.147-1.283-.328-1.884-.161-.317-.344-.618-.549-.905z" fill="#302c3b"/><path d="m26.202 26.693c2.199-.469 2.265 1.487 2.051 2.575-.583 2.969 5.715.455 5.711-1.996-.002-1.251-.141-1.756-.217-3.033.533-8.723-7.545 2.454-7.545 2.454z" fill="#fc6"/><path d="m26.202 26.693c2.199-.469 1.773 2.043 1.321 3.055-.438.979 3.792.062 4.027-7.73.534-8.724-5.348 4.675-5.348 4.675z" fill="#f7c259"/><path d="m20.675 12.379c-.467 1.224-.561 2.538-.295 3.68.419 1.757-.36 2.661-1.654 3.93-1.232 1.203.196 2.18 1.545 2.112.282.397.201 1.048.201 1.048s1.031.78.209 2.276c1.093 1.022-.771 2.936 1.892 2.927 2.599-.009 5.984-2.09 6.559-2.684.907-.94 1.153-3.77 1.153-3.77 1.104 1.496 3.856-1.243 3.864-4.456.014-5.325-4.393-12.745-13.474-5.063z" fill="#fc6"/><path d="m24.856 18.151c-.696.762-2.375 1.154-2.928 1.023-1.23-4.087 2.093-2.754 2.928-1.023z" fill="#f5f5f5"/><path d="m21.992 19.188c1.587-.004.827-4.296-.318-2.009-.073.404-.004 2.01.318 2.009z" fill="#45332c"/><path d="m24.856 18.151c-.386-1.597-3.088-2.821-3.183-.973.461-.986 2.378-.29 3.183.973z" fill="#e6b045"/><path d="m22.154 17.237c-.003.392.559.39.562-.001-.001-.362-.562-.362-.562.001z" fill="#f5f5f5"/><path d="m25.068 15.446c-1.101-.813-3.216-.85-4.004-.275-.173.109-.062.886.079.811 1.104-.61 2.872-.629 3.9.042.134.084.193-.463.025-.578z" fill="#c1873c"/><path d="m20.517 23.723c.503.326.106.859.106.859-.243 0-.302.844.059.843 1.797-.006 2.479-1.185 2.965-1.848-1.974-.1-3.944-1.091-3.13.146z" fill="#e6a400"/><path d="m20.517 23.723s.017.748.106.859c.394 0 1.853-.321 2.644-.869z" fill="#fff"/><path d="m21.438 21.39c-.19.559-1.003.735-1.486.735-.654.002-1.277-.314-1.562-.777.249-.562 1.66.823 3.048.042z" fill="#e6b045"/><path d="m20.675 12.379s9.266-.274 13.072 11.86l4.592-10.838c-2.528-9.529-16.108-8.172-17.664-1.022z" fill="#e81c27"/><path d="m38.339 13.401c-2.712 1.602-3.581 4.846-3.581 4.846-2.221-2.098-4.619-.879-4.619-.879s2.237 2.398 3.608 6.871c3.18-1.617 5.86-6.117 4.592-10.838z" fill="#b00505"/><path d="m34.369 19.526c.051 3.788-5.583 4.273-5.637.482-.054-3.79 5.581-4.276 5.637-.482z" fill="#e81c27"/><g fill="#f7c259"><path d="m24.525 38.475c.021.757-1.41.855-1.429.098-.019-.759 1.411-.858 1.429-.098z"/><path d="m34.632 36.025c.275.704-1.036 1.283-1.311.576-.276-.705 1.035-1.285 1.311-.576z"/></g></svg>