<svg enable-background="new 0 0 64 64" height="64" viewBox="0 0 64 64" width="64" xmlns="http://www.w3.org/2000/svg" xmlns:xlink="http://www.w3.org/1999/xlink"><radialGradient id="a" cx="53.7734" cy="8.4414" gradientTransform="matrix(.9987 0 0 1 -.5357 0)" gradientUnits="userSpaceOnUse" r="8.01"><stop offset="0" stop-color="#fae803"/><stop offset=".2582" stop-color="#fae103"/><stop offset=".636" stop-color="#facd03"/><stop offset="1" stop-color="#fab403"/></radialGradient><path d="m49.893 15.437c-1.848 4.166-3.27 4.971-4.213 7.185-3.313 1.643-4.563 1.196-7.781 2.626-9.046 1.578-13.248 4.231-13.248 4.231-5.961 1.895-4.135 4.204-7.044 11.436-2.625 4-1.667 6.667-6.208 10.376-3.275 2.675.027 4.66 5.141.182 1.851-3.308 4.135-4.683 5.68-10.315 0 4.281 1.553 5.185-.6 10.861l14.011-1.991c.994-4.917 2.795-7.081 3.58-12.967.883-6.636 4.092-6.161 9.594-9.125 1.531-.823 4.281-11.455 4.281-11.455s-2.891-1.724-3.193-1.044z" fill="#e3c19b"/><path d="m2 62h60v-12.836c-32.494-.939-42.373 3.053-60 1.003z" fill="#48c2f9"/><path d="m62 54.823c-22.668-.26-39.188 2.21-60 1.5v5.677h60z" fill="#7ed2fc"/><ellipse cx="54.002" cy="10.01" fill="url(#a)" rx="8.002" ry="8.01"/><path d="m61.113 6.792c-.531-.748-1.072-1.196-1.396-1.425.074-.267.129-.531.16-.791-.098-.108-.199-.212-.305-.312-.1 2.291-2.506 5.159-3.303 6.109-.043.051-.082.096-.115.137-.965-.234-2.121-.488-3.305-.736.854-2.914 2.457-6.189 4.205-7.168-.125-.054-.254-.103-.383-.148-1.854 1.227-3.365 4.575-4.143 7.25-1.326-.276-2.668-.541-3.797-.76.123-1.243.5-2.636 1.02-3.754.709-1.521 1.684-2.578 2.826-3.068-.387.07-.762.167-1.125.289-.789.607-1.469 1.502-1.998 2.643-.531 1.14-.916 2.557-1.047 3.828-.506-.099-.963-.186-1.344-.258-.141-.028-.273-.053-.391-.075-.047-.515-.039-1.731.754-3.108-.461.665-.824 1.402-1.07 2.191-.045.439-.029.791-.004 1.018-.123.209-.236.469-.332.767-.012.195-.02.391-.02.59 0 .375.027.746.078 1.108.016-.921.242-1.734.529-2.247.119.023.252.049.395.074 2.072.397 6.355 1.217 9.08 1.884.305 1.075.543 2.054.715 2.915-1.443.444-3.811.489-5.963.105-2.465-.438-4.172-1.323-4.711-2.436.051.285.117.563.195.836.336.354.789.674 1.355.959.83.416 1.902.749 3.102.962.992.177 2.031.265 3.01.265 1.174 0 2.26-.125 3.072-.37.191 1.036.277 1.89.252 2.519-1.07.577-2.721.883-4.34.799-1.307-.065-2.488-.369-3.445-.875.566.41 1.189.747 1.855.998.5.107 1.025.176 1.572.203.18.01.359.014.539.014 1.404 0 2.793-.275 3.785-.756-.027.195-.07.359-.129.492.137-.055.27-.112.4-.173.355-1.479-.412-4.645-.951-6.556.035-.043.078-.094.125-.15.385-.459 1.041-1.241 1.674-2.174 1.107 1.395 2.959 3.854 2.004 6.668.184-.229.357-.465.518-.711.182-1.072.025-2.189-.469-3.335-.521-1.21-1.316-2.224-1.861-2.909.488-.754.947-1.588 1.229-2.424.289.217.766.63 1.23 1.284.541.758.924 1.632 1.145 2.601-.035-.652-.148-1.283-.328-1.884-.162-.317-.344-.618-.549-.905z" fill="#302c3b"/><path d="m26.202 26.693c2.199-.469 2.266 1.487 2.051 2.575-.582 2.969 5.714.455 5.71-1.996-.002-1.251-.141-1.756-.217-3.033.533-8.723-7.544 2.454-7.544 2.454z" fill="#e3c19b"/><path d="m26.202 26.693c2.199-.469 1.774 2.043 1.322 3.055-.438.979 3.791.062 4.027-7.73.533-8.724-5.349 4.675-5.349 4.675z" fill="#d6a67a"/><path d="m20.674 12.379c-.467 1.224-.561 2.538-.295 3.68.42 1.757-.36 2.661-1.654 3.93-1.232 1.203.195 2.18 1.545 2.112.283.397.201 1.048.201 1.048s1.031.78.21 2.276c1.093 1.022-.771 2.936 1.892 2.927 2.6-.009 5.985-2.09 6.559-2.684.908-.94 1.154-3.77 1.154-3.77 1.104 1.496 3.855-1.243 3.863-4.456.015-5.325-4.393-12.745-13.475-5.063z" fill="#e3c19b"/><path d="m24.856 18.151c-.695.762-2.375 1.154-2.928 1.023-1.23-4.087 2.092-2.754 2.928-1.023z" fill="#f5f5f5"/><path d="m21.992 19.188c1.587-.004.827-4.296-.318-2.009-.074.404-.004 2.01.318 2.009z" fill="#45332c"/><path d="m24.856 18.151c-.386-1.597-3.088-2.821-3.183-.973.461-.986 2.378-.29 3.183.973z" fill="#d6a67a"/><path d="m22.154 17.237c-.003.392.56.39.562-.001-.001-.362-.562-.362-.562.001z" fill="#f5f5f5"/><path d="m25.069 15.446c-1.102-.813-3.217-.85-4.005-.275-.173.109-.062.886.079.811 1.104-.61 2.871-.629 3.9.042.134.084.193-.463.026-.578z" fill="#bf8c6b"/><path d="m20.516 23.723c.504.326.106.859.106.859-.243 0-.302.844.059.843 1.797-.006 2.479-1.185 2.965-1.848-1.973-.1-3.942-1.091-3.13.146z" fill="#bf8c6b"/><path d="m20.516 23.723s.018.748.106.859c.394 0 1.853-.321 2.644-.869z" fill="#fff"/><path d="m21.438 21.39c-.189.559-1.002.735-1.486.735-.653.002-1.276-.314-1.562-.777.249-.562 1.659.823 3.048.042z" fill="#d6a67a"/><path d="m20.674 12.379s9.266-.274 13.072 11.86l4.592-10.838c-2.527-9.529-16.107-8.172-17.664-1.022z" fill="#e81c27"/><path d="m38.338 13.401c-2.711 1.602-3.58 4.846-3.58 4.846-2.22-2.098-4.619-.879-4.619-.879s2.236 2.398 3.607 6.871c3.18-1.617 5.861-6.117 4.592-10.838z" fill="#b00505"/><path d="m34.369 19.526c.051 3.788-5.583 4.273-5.636.482-.055-3.79 5.58-4.276 5.636-.482z" fill="#e81c27"/><g fill="#d6a67a"><path d="m24.526 38.475c.02.757-1.41.855-1.43.098s1.411-.858 1.43-.098z"/><path d="m34.631 36.025c.277.704-1.035 1.283-1.311.576-.275-.705 1.037-1.285 1.311-.576z"/></g></svg>