<svg enable-background="new 0 0 64 64" height="64" viewBox="0 0 64 64" width="64" xmlns="http://www.w3.org/2000/svg" xmlns:xlink="http://www.w3.org/1999/xlink"><radialGradient id="a" cx="42.5625" cy="5.9722" gradientUnits="userSpaceOnUse" r="5.5"><stop offset="0" stop-color="#ffe02e"/><stop offset=".2489" stop-color="#ffda29"/><stop offset=".5857" stop-color="#ffc91a"/><stop offset=".9714" stop-color="#ffac02"/><stop offset="1" stop-color="#fa0"/></radialGradient><linearGradient id="b"><stop offset="0" stop-color="#fff"/><stop offset="1" stop-color="#fff" stop-opacity="0"/></linearGradient><radialGradient id="c" cx="555.9431" cy="-40.6097" gradientTransform="matrix(.3583 .4654 -.7924 .61 -189.2076 -228.6487)" gradientUnits="userSpaceOnUse" r="3.9138" xlink:href="#b"/><radialGradient id="d" cx="9.7362" cy="15.5474" gradientUnits="userSpaceOnUse" r="5.5"><stop offset="0" stop-color="#18b5f8"/><stop offset=".5798" stop-color="#0989cb"/><stop offset="1" stop-color="#006dae"/></radialGradient><radialGradient id="e" cx="533.921" cy="-8.4535" gradientTransform="matrix(.3583 .4654 -.7924 .61 -189.2076 -228.6487)" gradientUnits="userSpaceOnUse" r="3.9138" xlink:href="#b"/><radialGradient id="f" cx="54.9668" cy="52.4722" gradientUnits="userSpaceOnUse" r="5.5"><stop offset=".2121" stop-color="#ff3b3b"/><stop offset=".4183" stop-color="#f63131"/><stop offset=".7712" stop-color="#de1615"/><stop offset="1" stop-color="#cc0100"/></radialGradient><radialGradient id="g" cx="631.2446" cy="-21.9088" gradientTransform="matrix(.3583 .4654 -.7924 .61 -189.2076 -228.6487)" gradientUnits="userSpaceOnUse" r="3.9135" xlink:href="#b"/><path d="m21.841 42.871c-3.857 1.41-4.576 7.079-6.701 8.86-1.043-2.077-2.814-5.254-3.662-7.575 0 0-3.386-.7-4.916.597 1.362 5.344 2.578 10.234 5.453 15.422 1.223 2.206 9.656-1.344 10.892-6.38 0 0 .459-3.814-1.066-10.924z" fill="#7ab51d"/><path d="m5.377 42.902c.45.222 1.611-2.256 1.161-2.477 0 0-2.3-.771-3.024-.745-1.712.057-1.692 1.552-1.287 1.657 1.184.303 3.15 1.565 3.15 1.565z" fill="#e6b045"/><path d="m5.582 35.497c-.049 2.662.53 4.479.53 4.479 0-1.307.14-3.786.313-4.873.238-1.5 2.177-1.676 2.046-.163-.209 2.415.107 5.022.107 5.022s.263-2.302.421-4.235c.122-1.461 1.973-1.31 1.945.157-.021 1.182-.38 4.803-.38 4.803s.641-.873.797-2.98c.082-1.102 1.325-.776 1.359.313.061 1.939-.203 2.434-.438 3.344-.125.486-.175 1.844-.956 3.234-.484.861-3.601 1.109-4.5.422-.509-.39-2.197-2.872-2.575-3.721-.409-.92-.748-3.42-.609-5.529.101-1.526 1.969-1.801 1.94-.273z" fill="#fc6"/><path d="m46.159 42.871c5.04 1.02 4.606 15.406 11.777 16.19-1.176 2.647-3.877 2.644-5.563 2.644-2.604 0-5.277-3.603-7.28-6.986 0 0-.459-4.738 1.066-11.848z" fill="#7ab51d"/><path d="m21.841 42.871c1.71-1.12 7.829-3.024 7.829-3.024h8.716s6.074 1.899 7.773 3.024l-.687 19.129h-22.926z" fill="#7ab51d"/><path d="m21.841 42.871c1.536-.867 2.93-1.408 2.93-1.408l3.035 20.537h-3.644z" fill="#302c3b"/><path d="m46.159 42.871c-1.536-.867-2.93-1.408-2.93-1.408l-3.035 20.537h3.644z" fill="#302c3b"/><g fill="#e6b045"><path d="m29.041 40.574c0 4.071 9.918 4.071 9.918 0 0-2.48 0-6.584 0-6.584h-9.918z"/><path d="m24.185 27.102c-3.282-.593-.719 8.587 1.851 6.056 1.189-1.176-.316-5.779-1.851-6.056z"/><path d="m43.817 27.102c-1.534.277-3.041 4.88-1.85 6.056 2.569 2.53 5.13-6.649 1.85-6.056z"/></g><path d="m34.001 16.34c-6.788 0-10.059 5.135-9.649 12.274.082 1.437.971 6.122 1.813 7.803.86 1.72 3.738 4.37 5.503 4.922 1.114.345 3.551.345 4.664 0 1.765-.552 4.643-3.202 5.503-4.922.843-1.681 1.732-6.366 1.813-7.803.412-7.139-2.86-12.274-9.647-12.274z" fill="#fc6"/><path d="m34.001 35.777c-1.527-.449-3.789.213-3.789.213.862.938 1.492 2.156 3.789 2.156 2.63 0 3.076-1.382 3.789-2.156 0 0-2.264-.664-3.789-.213z" fill="#e6a400"/><path d="m30.789 36.148c1.6 1.345 4.833 1.351 6.441 0-1.704.075-4.723.077-6.441 0z" fill="#fff"/><path d="m36.105 33.253c0 1.37-4.209 1.37-4.209 0 0-.315 4.209-.315 4.209 0z" fill="#e6b045"/><path d="m25.691 24.777h-2.066c.138 1.926.467 3.974.986 5.77.213-1.577-.272-2.23.458-4.134.248-.645.448-1.183.622-1.636z" fill="#453631"/><path d="m42.271 24.777c.186.451.397.988.664 1.636.671 1.633.244 2.557.459 4.134.627-2.337.886-4.233.867-5.77z" fill="#453631"/><path d="m41.267 29.168c-.907 2.372-4.597 2.024-5.273.362.514-2.669 4.776-2.895 5.273-.362z" fill="#fff"/><path d="m26.734 29.168c.907 2.372 4.598 2.024 5.273.362-.515-2.67-4.775-2.895-5.273-.362z" fill="#fff"/><path d="m41.645 26.309c-1.555-.771-4.524-.808-5.63-.271-.236.104-.08.834.118.764 1.543-.571 4.029-.582 5.475.049.191.083.272-.433.037-.542z" fill="#c1873c"/><path d="m26.358 26.309c1.553-.771 4.523-.808 5.629-.271.237.104.082.834-.118.764-1.546-.571-4.029-.582-5.476.049-.192.083-.272-.433-.035-.542z" fill="#c1873c"/><path d="m36.936 28.913c0 2.083 3.014 2.083 3.014 0-.001-1.935-3.014-1.935-3.014 0z" fill="#613f34"/><path d="m37.234 29.58c0 1.195 2.419 1.195 2.419 0-.001-1.108-2.419-1.108-2.419 0z" fill="#7d5037"/><path d="m37.818 28.946c0 .867 1.252.867 1.252 0-.001-.802-1.252-.802-1.252 0z" fill="#1a1626"/><path d="m37.39 28.693c0 .437.633.437.633 0 0-.403-.633-.403-.633 0z" fill="#ab968c"/><path d="m28.052 28.913c0 2.083 3.013 2.083 3.013 0 0-1.935-3.013-1.935-3.013 0z" fill="#613f34"/><path d="m28.35 29.58c0 1.195 2.418 1.195 2.418 0 0-1.11-2.418-1.11-2.418 0z" fill="#7d5037"/><path d="m28.933 28.946c0 .863 1.252.863 1.252 0 0-.804-1.252-.804-1.252 0z" fill="#1a1626"/><path d="m28.506 28.693c0 .437.631.437.631 0 0-.405-.631-.405-.631 0z" fill="#ab968c"/><path d="m41.267 29.149c0-2.549-5.273-2.549-5.273.404.754-2.424 4.519-2.424 5.273-.404z" fill="#e6b045"/><path d="m26.734 29.149c0-2.549 5.273-2.549 5.273.404-.754-2.424-4.52-2.424-5.273-.404z" fill="#e6b045"/><path d="m48.643 24.142c0 2.549-29.285 2.549-29.285 0 0-2.55 29.285-2.55 29.285 0z" fill="#4e5e67"/><path d="m44.737 23.062c0 2.193-21.475 2.193-21.475 0 .001-12.083 21.475-12.083 21.475 0z" fill="#302c3b"/><path d="m40.182 46.866c.441 1.108-4.623-1.043-4.623-1.043v-2.443s4.92-2.879 4.597-1.73c-.397 1.418-.339 4.301.026 5.216z" fill="#302c3b"/><path d="m38.069 44.4-2.087-.171 1.387-1.233-1.81.997v1.239l2.041.631-1.567-.966z" fill="#4e5e67"/><path d="m27.841 46.866c-.441 1.108 4.622-1.043 4.622-1.043v-2.443s-4.926-2.879-4.6-1.73c.401 1.418.343 4.301-.022 5.216z" fill="#302c3b"/><path d="m29.952 44.4 2.089-.171-1.389-1.233 1.811.997v1.239l-2.041.631 1.564-.966z" fill="#4e5e67"/><path d="m35.513 46.159c-.529.551-2.476.551-3.009 0-.531-.548-.531-2.557 0-3.104.533-.55 2.479-.55 3.009 0 .534.548.534 2.556 0 3.104z" fill="#302c3b"/><path d="m43.632 2c-3.035 0-5.5 2.466-5.5 5.505 0 3.036 2.465 5.495 5.5 5.495s5.5-2.459 5.5-5.495c0-3.039-2.465-5.505-5.5-5.505z" fill="url(#a)"/><path d="m43.569 7.137c-1.713 1.319-3.729 1.572-4.503.566-.774-1.007-.015-2.891 1.697-4.209 1.714-1.319 3.729-1.572 4.504-.566.775 1.007.014 2.891-1.698 4.209z" fill="url(#c)" opacity=".5"/><path d="m10.5 11.27c-3.036 0-5.5 2.464-5.5 5.502 0 3.039 2.464 5.498 5.5 5.498 3.034 0 5.5-2.459 5.5-5.498s-2.466-5.502-5.5-5.502z" fill="url(#d)"/><path d="m10.197 16.503c-1.713 1.319-3.729 1.572-4.503.566s-.014-2.89 1.698-4.209c1.714-1.319 3.729-1.572 4.504-.566.775 1.007.014 2.892-1.699 4.209z" fill="url(#e)" opacity=".5"/><path d="m59.759 59.138c-.313.392-2.43-1.337-2.121-1.731 0 0 1.74-1.69 2.404-1.981 1.568-.688 2.197.668 1.877.937-.935.785-2.16 2.775-2.16 2.775z" fill="#e6b045"/><path d="m56.036 48.5c-3.035 0-5.5 2.466-5.5 5.505 0 3.036 2.465 5.495 5.5 5.495s5.5-2.459 5.5-5.495c0-3.039-2.465-5.505-5.5-5.505z" fill="url(#f)"/><path d="m55.73 53.59c-1.713 1.319-3.729 1.572-4.502.566-.775-1.007-.016-2.891 1.697-4.209 1.713-1.319 3.729-1.572 4.504-.566.775 1.007.014 2.891-1.699 4.209z" fill="url(#g)" opacity=".5"/><path d="m58.775 57.384c-.1.61-.354 1.116-.354 1.116s.12-1.256 0-1.957c-.236-1.384-2.025-1.266-1.934.071.074 1.089-.311 2.088-.311 2.088s-.245-.998-.354-2.041c-.15-1.439-2.166-1.275-2.102.168.036.796.16 1.856.16 1.856s-.263-.538-.388-1.164c-.269-1.355-1.967-1.351-1.763.022.396 2.672 2.09 2.686 2.37 2.002.338.811 1.478.742 1.944.254.384.47 1.789.556 2.156-.136.691.706 1.924-.084 2.143-1.605.196-1.35-1.35-2.023-1.567-.674z" fill="#fc6"/></svg>