<svg enable-background="new 0 0 64 64" height="64" viewBox="0 0 64 64" width="64" xmlns="http://www.w3.org/2000/svg"><g fill="#614a36"><path d="m9.137 29.356h4.584v2.133h-4.584z"/><path d="m57.066 24.258c.879-1.533-.441-2.51-2.525.176-1.609 2.072-7.045 5.795-3.119 6.732 2.797.668 9.613-4.387 10.465-9.473.775-4.621-2.606 1.569-4.821 2.565z"/><path d="m6.934 24.258c-.879-1.533.441-2.51 2.523.176 1.609 2.072 7.045 5.795 3.119 6.732-2.795.668-9.613-4.387-10.463-9.473-.775-4.621 2.604 1.569 4.821 2.565z"/><path d="m50.639 29.356h4.584v2.133h-4.584z"/></g><path d="m55.764 31.076h-5.709l.205 13.143s-1.922-3.754-5.027-6.299c-4.744-3.885-8.332-1.334-13.053-1.334s-8.309-2.551-13.053 1.334c-3.107 2.545-5.029 6.299-5.029 6.299l.207-13.143h-5.711s-.734 15.768-.457 21.017c.258 4.848 3.916 6.688 11.459-3.385.832 7.063.416 13.291.416 13.291h12.168 12.166s-.416-6.229.418-13.291c7.541 10.072 11.199 8.232 11.459 3.385.277-5.248-.459-21.017-.459-21.017z" fill="#7ab51d"/><path d="m15.906 41.383-1.797 2.074-.101 4.759z" fill="#529320"/><path d="m48.453 41.383 1.797 2.074.102 4.759z" fill="#529320"/><path d="m27.18 37.297c0 4.469 10 4.469 10 0 0-2.727 0-5.232 0-5.232h-10z" fill="#423225"/><path d="m19.387 24.654c-3.877-.014.91 9.977 3.342 6.559 1.125-1.584-1.53-6.549-3.342-6.559z" fill="#423225"/><path d="m41.861 20.694c-1.701.627-2.498 6.201-.896 7.305 3.453 2.378 4.531-8.645.896-7.305z" fill="#423225"/><path d="m28.453 10.356c-7.771 1.369-10.479 7.908-8.568 15.998.385 1.629 2.35 6.812 3.652 8.566 1.33 1.795 5.16 4.248 7.289 4.521 1.346.172 4.137-.32 5.342-.941 1.906-.986 4.666-4.6 5.305-6.742.625-2.094.695-7.637.5-9.299-.971-8.256-5.752-13.474-13.52-12.103z" fill="#614a36"/><path d="m34.275 29.291c.275 1.568-4.543 2.418-4.818.85-.064-.36 4.754-1.209 4.818-.85z" fill="#423225"/><path d="m28.453 10.356c-5.348.941-8.266 3.277-9.777 2.846 0 0 .01.938.66 1.434 0 0-.486.601-1.566-.076-.379 3.031 2.545 4.234 11.881 2.588 9.334-1.646 6.703-3.525 11.996-.342-1.317-4.843-5.079-7.882-13.194-6.45z" fill="#38332d"/><path d="m33.162 13.947c-4.807 2.805-7.287-.287-12.197.238 2.5.682 3.92 2.16 6.027 3.035-4.363-.652-7.809-2.494-8.314-4.012 0 0-.285 2.396 2.734 3.619-2.557.699-3.639-2.262-3.639-2.262-.945 2.35.441 9.143 2.797 13.947-.074-1.85-.762-2.498-.311-4.824 1.354-6.949.225-3.932 9.563-5.578 9.332-1.646 7.209-3.842 10.891 1.973 1.098 1.732.793 2.875 1.358 4.639 1.056-11.958-3.811-13.747-8.909-10.775z" fill="#26221e"/><path d="m39.359 23.572c-.56 2.9-4.853 3.248-5.963 1.48.049-3.157 4.881-4.278 5.963-1.48z" fill="#fff"/><path d="m22.723 26.506c1.516 2.533 5.672 1.391 6.107-.649-1.125-2.953-6.049-2.353-6.107.649z" fill="#fff"/><path d="m39.213 20.225c-1.934-.568-5.342-.012-6.498.826-.25.168.076.973.289.852 1.652-.965 4.496-1.483 6.275-1.049.237.054.225-.553-.066-.629z" fill="#36281d"/><path d="m21.715 23.311c1.621-1.195 5.014-1.838 6.389-1.447.293.072.262.941.02.9-1.883-.342-4.732.143-6.258 1.16-.204.133-.399-.443-.151-.613z" fill="#36281d"/><path d="m34.35 24.156c.42 2.385 3.871 1.777 3.449-.609-.391-2.213-3.84-1.605-3.449.609z" fill="#613f34"/><path d="m34.824 24.861c.242 1.365 3.01.877 2.77-.488-.225-1.269-2.992-.781-2.77.488z" fill="#7d5037"/><path d="m35.365 24.016c.174.99 1.607.738 1.432-.252-.162-.918-1.594-.664-1.432.252z" fill="#1a1626"/><path d="m34.824 23.813c.088.502.813.373.725-.127-.082-.463-.807-.334-.725.127z" fill="#ab968c"/><path d="m24.18 25.949c.42 2.385 3.871 1.777 3.451-.609-.391-2.213-3.842-1.605-3.451.609z" fill="#613f34"/><path d="m24.656 26.653c.242 1.367 3.008.879 2.768-.488-.225-1.27-2.99-.782-2.768.488z" fill="#7d5037"/><path d="m25.195 25.809c.176.99 1.607.736 1.434-.252-.162-.92-1.596-.666-1.434.252z" fill="#1a1626"/><path d="m24.656 25.606c.088.502.811.373.723-.127-.082-.463-.805-.336-.723.127z" fill="#ab968c"/><path d="m39.355 23.551c-.514-2.918-6.551-1.854-5.955 1.527.375-2.925 4.686-3.685 5.955-1.527z" fill="#423225"/><path d="m22.719 26.485c-.516-2.918 5.521-3.982 6.117-.602-1.35-2.623-5.662-1.863-6.117.602z" fill="#423225"/><path d="m35.535 33.127c-1.662.266-4.029.416-5.949.258-.725-.059-.912.938-.152 1.037 2.133.275 4.594.059 6.326-.73.42-.192.177-.629-.225-.565z" fill="#36281d"/></svg>