<svg enable-background="new 0 0 64 64" height="64" viewBox="0 0 64 64" width="64" xmlns="http://www.w3.org/2000/svg" xmlns:xlink="http://www.w3.org/1999/xlink"><linearGradient id="a"><stop offset="0" stop-color="#fff"/><stop offset=".2477" stop-color="#fcfdfd"/><stop offset=".4201" stop-color="#f3f5f6"/><stop offset=".5691" stop-color="#e4e7e9"/><stop offset=".6485" stop-color="#d8dde0"/></linearGradient><radialGradient id="b" cx="41.3477" cy="43.4746" gradientUnits="userSpaceOnUse" r="14.564" xlink:href="#a"/><radialGradient id="c" cx="577.8887" cy="43.4746" gradientTransform="matrix(-1 0 0 1 600.543 0)" gradientUnits="userSpaceOnUse" r="14.564" xlink:href="#a"/><linearGradient id="d"><stop offset="0" stop-color="#fff" stop-opacity="0"/><stop offset="1" stop-color="#fff"/></linearGradient><linearGradient id="e" gradientUnits="userSpaceOnUse" x1="23.0669" x2="23.0669" xlink:href="#d" y1="33.7637" y2="25.7207"/><linearGradient id="f" gradientUnits="userSpaceOnUse" x1="40.9336" x2="40.9336" xlink:href="#d" y1="33.7637" y2="25.7207"/><radialGradient id="g" cx="18.8252" cy="53.9453" gradientTransform="matrix(.96 0 0 .8593 13.9276 -25.0821)" gradientUnits="userSpaceOnUse" r="22.2613"><stop offset="0" stop-color="#fff"/><stop offset=".3253" stop-color="#fbfcfc"/><stop offset=".6381" stop-color="#f0f2f3"/><stop offset=".945" stop-color="#dce1e3"/><stop offset="1" stop-color="#d8dde0"/></radialGradient><path d="m12.254 51.746c2.402-1.514 12.363-5.506 12.363-5.506h14.84s9.95 3.986 12.341 5.502c3.47 2.201 4.203 10.258 4.203 10.258h-48.001s.774-8.064 4.254-10.254z" fill="#e81c27"/><path d="m15.262 16.282c-3.579-8.738 1.368-14.282 16.738-14.282 15.365 0 20.318 5.544 16.738 14.282-2.245 5.482-31.232 5.475-33.476 0z" fill="#e81c27"/><path d="m49.365 12.623c3.713 8.43-38.444 8.43-34.731 0 5.033-11.425 29.685-11.454 34.731 0z" fill="#e6ebef"/><path d="m53.36 18.272c4.57 8.537 2.067 13.952-21.36 13.952s-25.93-5.415-21.36-13.951c1.335-2.497 8.692-12.949 21.36-12.949s20.024 10.452 21.36 12.948z" fill="#e81c27"/><path d="m15.27 21.732c-5.593-1.007-1.224 14.602 3.155 10.297 2.03-1.996-.538-9.825-3.155-10.297z" fill="#99a8ae"/><path d="m48.731 21.732c-2.617.472-5.185 8.301-3.155 10.297 4.381 4.305 8.745-11.303 3.155-10.297z" fill="#99a8ae"/><path d="m14.427 26.545c.152 2.602.876 6.355 1.77 9.57 2.422 8.729 11.07 11.884 15.803 11.884 4.731 0 13.382-3.155 15.803-11.884.893-3.215 1.617-6.969 1.77-9.57 1.051-18.293-36.199-18.293-35.146 0z" fill="#fc6"/><path d="m45.625 22.609c-2.785-1.66-7.783-1.863-9.761-.732-.42.228-.306 1.428.058 1.278 2.818-1.175 7.113-1.233 9.761.124.354.18.362-.428-.058-.67z" fill="#99a8ae"/><path d="m18.376 22.609c2.785-1.66 7.781-1.863 9.761-.732.42.228.308 1.428-.058 1.278-2.818-1.175-7.111-1.234-9.761.124-.356.18-.361-.428.058-.67z" fill="#99a8ae"/><path d="m24.527 38.139c3.277 3.058 11.683 3.076 14.986 0-3.915.873-11.043.878-14.986 0z" fill="#a17b31"/><path d="m35.834 33.569c0 2.495-7.665 2.495-7.665 0 0-.573 7.665-.573 7.665 0z" fill="#e6b045"/><path d="m27.785 33.831c-2.294 2.462-4.76 4.001-3.813 7.488.102-3.31 2.201-3.934 3.813-7.488z" fill="#e6b045"/><path d="m40.029 41.319c.938-3.452-1.496-5.001-3.813-7.487 1.614 3.557 3.711 4.176 3.813 7.487z" fill="#e6b045"/><path d="m35.877 28.326c1.53 2.893 7.624 3.897 7.624 3.897s-6.514-2.356-7.624-3.897z" fill="#e6b045"/><path d="m20.5 32.224s6.071-.977 7.624-3.897c-1.111 1.54-7.624 3.897-7.624 3.897z" fill="#e6b045"/><path d="m45.034 27.798c-.981 2.984-8.621 1.8-9.2.147.896-5.403 8.33-5.275 9.2-.147z" fill="#fff"/><path d="m37.306 26.581c0 3.794 5.489 3.794 5.489 0 0-3.522-5.489-3.522-5.489 0z" fill="#613f34"/><path d="m37.848 27.795c0 2.176 4.404 2.176 4.404 0 0-2.02-4.404-2.02-4.404 0z" fill="#7d5037"/><path d="m38.911 26.641c0 1.575 2.277 1.575 2.277 0 0-1.461-2.277-1.461-2.277 0z" fill="#1a1626"/><path d="m38.134 26.181c0 .796 1.15.796 1.15 0 0-.739-1.15-.739-1.15 0z" fill="#ab968c"/><path d="m45.034 27.762c0-5.162-9.2-5.752-9.2.226 1.313-4.905 7.886-4.315 9.2-.226z" fill="#e6b045"/><path d="m18.966 27.798c.982 2.984 8.621 1.8 9.199.147-.893-5.403-8.329-5.275-9.199-.147z" fill="#fff"/><path d="m21.204 26.581c0 3.794 5.489 3.794 5.489 0 0-3.522-5.489-3.522-5.489 0z" fill="#613f34"/><path d="m21.746 27.795c0 2.176 4.404 2.176 4.404 0 0-2.02-4.404-2.02-4.404 0z" fill="#7d5037"/><path d="m22.81 26.641c0 1.575 2.276 1.575 2.276 0 0-1.461-2.276-1.461-2.276 0z" fill="#1a1626"/><path d="m22.033 26.181c0 .796 1.149.796 1.149 0 0-.739-1.149-.739-1.149 0z" fill="#ab968c"/><path d="m18.966 27.762c0-5.161 9.199-5.752 9.199.225-1.312-4.904-7.884-4.314-9.199-.225z" fill="#e6b045"/><path d="m45.122 41.486c-5.049 5.963-13.112 6.513-13.112 6.513s3.221 6.856 9.352 4.433c-.85-.387-.842-.703-.834-.702 3.596.429 7.717-1.196 8.639-3.73-.012.011.666-.383.75.95 2.537-2.624.094-8.032-4.795-7.464z" fill="url(#b)"/><path d="m18.879 41.486c5.049 5.963 13.111 6.513 13.111 6.513s-3.221 6.856-9.352 4.433c.85-.387.842-.703.834-.702-3.596.429-7.717-1.196-8.639-3.73.012.011-.666-.383-.75.95-2.536-2.624-.092-8.032 4.796-7.464z" fill="url(#c)"/><path d="m30.5 53.211c0 2.074 3 2.074 3 0 .001-1.926-3-1.926-3 0z" fill="#f9b700"/><path d="m30.5 59.151c0 2.075 3 2.075 3 0 .001-1.924-3-1.924-3 0z" fill="#f9b700"/><path d="m28.592 29.742c0 5.361-11.051 5.361-11.051 0 .001-5.362 11.051-5.362 11.051 0z" fill="url(#e)" opacity=".8"/><path d="m46.459 29.742c0 5.361-11.051 5.361-11.051 0 0-5.362 11.051-5.362 11.051 0z" fill="url(#f)" opacity=".8"/><g fill="#99a8ae"><path d="m17.249 29.369-3.51-8.359.803.115 3.252 7.64z"/><path d="m46.753 29.369-.548-.604 3.252-7.64.804-.115z"/><path d="m35.421 29.492-.037.767s-.192-1.078-3.383-1.078c-3.192 0-3.383 1.078-3.383 1.078l-.037-.767s-.136-1.129 3.42-1.129c3.555 0 3.42 1.129 3.42 1.129z"/><path d="m23.067 33.427c-2.541 0-5.278-1.152-5.278-3.685s2.737-3.686 5.278-3.686c2.542 0 5.278 1.153 5.278 3.686s-2.736 3.685-5.278 3.685m0-8.189c-2.933 0-6.09 1.409-6.09 4.504 0 3.096 3.157 4.504 6.09 4.504 2.934 0 6.09-1.408 6.09-4.504 0-3.095-3.157-4.504-6.09-4.504"/><path d="m40.934 33.427c-2.544 0-5.278-1.152-5.278-3.685s2.734-3.686 5.278-3.686c2.542 0 5.278 1.153 5.278 3.686s-2.736 3.685-5.278 3.685m0-8.189c-2.933 0-6.09 1.409-6.09 4.504 0 3.096 3.157 4.504 6.09 4.504 2.934 0 6.091-1.408 6.091-4.504-.001-3.095-3.158-4.504-6.091-4.504"/></g><path d="m55.328 24.562c.569-2.208-2.718-1.508-2.418-4.067.218-1.844-.672-4.188-3.523-4.068-5.977.252-2.863-2.606-7.269-4.441-2.212-.922-3.357.916-5.324.987-1.895.07-1.76-2.227-4.794-2.227s-2.899 2.297-4.794 2.227c-1.967-.071-3.112-1.909-5.324-.987-4.405 1.835-1.293 4.693-7.269 4.441-2.852-.12-3.741 2.225-3.523 4.068.3 2.56-2.987 1.859-2.418 4.067.729 2.837-3.124 4.662 2.197 4.842 1.324.044.791 3.456 2.959 2.073 2.367-1.511 1.847-4.862 1.462-6.918-.807-4.318 4.301-1.118 5.232-5.144.844-3.646 3.268-1.345 6.02-1.733 2.491-.352 2.975-1.645 5.458-1.645 2.484 0 2.967 1.293 5.458 1.645 2.753.389 5.177-1.913 6.02 1.733.933 4.025 6.04.825 5.233 5.144-.385 2.056-.905 5.407 1.462 6.918 2.168 1.383 1.635-2.029 2.96-2.073 5.319-.18 1.466-2.006 2.195-4.842z" fill="url(#g)"/></svg>