<svg enable-background="new 0 0 64 64" height="64" viewBox="0 0 64 64" width="64" xmlns="http://www.w3.org/2000/svg" xmlns:xlink="http://www.w3.org/1999/xlink"><radialGradient id="a" cx="42.7227" cy="5.1807" gradientTransform="matrix(1.0076 0 0 1 .1642 0)" gradientUnits="userSpaceOnUse" r="11.5429"><stop offset="0" stop-color="#9be022"/><stop offset=".3647" stop-color="#99de22"/><stop offset=".5757" stop-color="#93d522"/><stop offset=".7475" stop-color="#87c722"/><stop offset=".8974" stop-color="#78b423"/><stop offset="1" stop-color="#69a123"/></radialGradient><linearGradient id="b"><stop offset="0" stop-color="#ff000e"/><stop offset=".2242" stop-color="#f8000c"/><stop offset=".5531" stop-color="#e40008"/><stop offset=".9448" stop-color="#c40001"/><stop offset="1" stop-color="#bf0000"/></linearGradient><radialGradient id="c" cx="42.7207" cy="5.1807" gradientTransform="matrix(1.0076 0 0 1 .1642 0)" gradientUnits="userSpaceOnUse" r="11.5455" xlink:href="#b"/><radialGradient id="d" cx="42.7236" cy="5.1802" gradientTransform="matrix(1.0076 0 0 1 .1642 0)" gradientUnits="userSpaceOnUse" r="11.5425" xlink:href="#b"/><radialGradient id="e" cx="42.7236" cy="5.1802" gradientTransform="matrix(1.0076 0 0 1 .1642 0)" gradientUnits="userSpaceOnUse" r="11.5437" xlink:href="#b"/><path d="m56.831 61.979s.854-3.619-1.27-6.747l-.84-2.48c-.379-.005-.42.151-.42.151s-.617 2.431 2.139 8.972c0 0 .067.185.391.104z" fill="#7ab51d"/><path d="m51.925 57.327c1.586.332 2.123 5.142 4.516 4.548 0 0 .826-3.364-1.299-6.491l-.84-2.48c-4.098.383-3.319 1.86-2.377 4.423z" fill="#302c3b"/><path d="m53.804 59.808c.576-1.11.555-1.753-.053-1.646.242-.705-.197-.935-.547-.834.082-.706-.539-.768-.932.152-.197.519 1.377 2.626 1.532 2.328z" fill="#7ab51d"/><path d="m46.612 59.888s-.352-3.701-3.369-5.993l-1.592-2.086c-.361.115-.352.277-.352.277s.195 2.499 4.906 7.828c.001 0 .124.152.407-.026z" fill="#7ab51d"/><path d="m40.411 56.957c1.607-.186 3.721 4.275 5.795 2.957 0 0-.295-3.45-3.313-5.742l-1.593-2.086c-3.76 1.66-2.608 2.74-.889 4.871z" fill="#302c3b"/><path d="m43.048 58.786c.188-1.233-.039-1.835-.582-1.543.002-.743-.486-.823-.785-.617-.148-.694-.76-.556-.836.438-.02.556 2.15 2.056 2.203 1.722z" fill="#7ab51d"/><path d="m39.839 53.494c-4.814-.416-5.803-4.188-10.621-3.115.299-1.961.686-3.286.686-3.286s-4.793.762-6.756.813c-.432 3.611 1.619 6.266 2.336 6.636 1.033.534 6.151-.058 13.698 2.042.616.17.975-3.063.657-3.09z" fill="#fcd5b2"/><path d="m40.169 53.494c-.211-.229-1.221-.267-1.221-.267s.785 1.95.232 3.355c.359.092.721.185 1.088.287.616.173.719-2.482-.099-3.375z" fill="#f2f5f7"/><path d="m29.401 49.696c.125.146.402.419.566.518.469 4.521-1.426 4.89-1.426 4.89-3.69 1.154-5.018-2.496-5.018-2.496 1.145-1.502 4.404-2.722 5.878-2.912z" fill="#7ab51d"/><path d="m51.765 53.823c-5.578-1.869-5.201-4.831-10.498-4.969-.391-1.944-1.129-3.343-1.76-4.788-1.926.495-3.678 3.295-5.504 4.006 1.381 2.585 2.971 4.845 3.652 5.277.98.624 5.85.727 13.176 3.491.598.226 1.236-2.915.934-3.017z" fill="#fcd5b2"/><path d="m52.071 53.526c-.074-.097-1.133 0-1.133 0 .443.77.443 2.884-.107 3.314.348.124.695.257 1.057.383.433.153.965-2.7.183-3.697z" fill="#f2f5f7"/><path d="m41.099 47.658c.199.852.568.974 1.488 1.217-.395 4.369-2.305 5.223-2.305 5.223-1.842 0-4.012-1.069-4.482-2.764.322-1.263 2.5-2.065 5.299-3.676z" fill="#7ab51d"/><path d="m36.899 37.562h-12.326c-.709 2.857-2.785 6.641-1.857 12.916 1.418.677 7.5-2.527 7.5-2.527.225-2.425.475-3.067 1.309-3.487.24-.121 1.395 3.117 2.785 4.659l6.701-3.976z" fill="#302c3b"/><path d="m40.354 45.536c-.488.368-1.336.793-1.336.793l-4.793-8.768h1.535z" fill="#ffe463"/><path d="m21.786 28.941c.508-.141 2.391-1 4.238-1.871-.482-1.184-.992-2.35-1.543-3.488-1.42.88-2.924 1.782-3.848 2.249-2.459-.006-4.961.63-7.811.151-.463-.08-.666-1.278-2.986-2.078-.998-.344-1.053.742.508 1.385-.463.918-3.482-1.498-3.34-.098.16 1.553 2.363 2.923 3.041 3.166.609.215 1.926-.059 2.502-.029 2.83.138 8.342.86 9.239.613z" fill="#fcd5b2"/><path d="m41.987 17.662 2.834-5.514 3.057 1.297s-2.07 5.613-3.145 7.282c-.822 1.273-4.902 2.854-4.902 2.854l-1.438-4.197z" fill="#fcd5b2"/><path d="m51.229 2.924c3.355 1.901 4.504 6.11 2.568 9.405-1.938 3.295-6.223 4.42-9.574 2.519-3.352-1.899-4.504-6.108-2.566-9.402 1.936-3.298 6.223-4.423 9.572-2.522z" fill="url(#a)"/><path d="m51.019 2.817c-4.373 4.961-11.184 5.604-3.611-.763.018-.015.035-.028.051-.042 1.204-.047 2.431.213 3.56.805z" fill="url(#c)"/><path d="m50.249 15.307c-3.484-9.078 1.418-11.146 2.576-1.702-.734.763-1.615 1.339-2.576 1.702z" fill="url(#d)"/><path d="m40.753 8.256c7.998 1.856 7.854 6.111.529 3.317-.449-1.041-.636-2.181-.529-3.317z" fill="url(#e)"/><path d="m40.505 23.407c-1.193-.799-1.787-4.355-1.787-4.355-7.102 2.152-11.801 2.152-16.942 5.297l2.381 4.251c.297-.15.596-.314.891-.481-.799 4.472-.818 10.133-.818 10.133l12.895-.604s-2.252-5.714-.877-10.513c.347-1.207 4.257-3.728 4.257-3.728z" fill="#7ab51d"/><path d="m35.073 20.042c-.988.094-1.518.359-1.518.359-1.619 8.228-.244 17.425-.244 17.425h1.641s-1.431-9.552.121-17.784z" fill="#ffe463"/><path d="m26.973 19.926c1.792-.8 1.522 3.985 1.52 4.396 0 0 1.568-2.538 5.063-3.921 0 0 .008-1.551-.23-3.979.173-6.69-6.353 3.504-6.353 3.504z" fill="#dba97f"/><path d="m23.051 8.456c-.371.97-.326 1.778-.113 2.682.332 1.392-.289 2.106-1.322 3.111-.982.952.158 1.727 1.232 1.673.227.313.162.829.162.829s.822.619.168 1.803c.871.81-.615 2.322 1.51 2.317 2.074-.006 4.774-1.655 5.235-2.126.725-.743.92-2.983.92-2.983.881 1.185 3.076-.985 3.082-3.527.012-4.218-3.623-9.86-10.874-3.779z" fill="#fcd5b2"/><path d="m30.821 13.056c-.041-1.006.75-1.914 1.578-1.95 0 0-1.373 1.254-.949 2.857 0 0-.605-.205-.629-.907z" fill="#dba97f"/><path d="m26.51 12.794c-.557.603-1.898.913-2.338.811-.98-3.236 1.67-2.182 2.338-.811z" fill="#f5f5f5"/><path d="m24.223 13.616c1.268-.004.658-3.401-.256-1.592-.056.32-.002 1.593.256 1.592z" fill="#45332c"/><path d="m26.51 12.794c-.309-1.265-2.465-2.233-2.543-.771.367-.78 1.901-.229 2.543.771z" fill="#dba97f"/><path d="m24.352 12.071c-.002.31.445.309.447-.001 0-.285-.447-.286-.447.001z" fill="#f5f5f5"/><path d="m26.678 10.654c-.877-.646-2.566-.674-3.195-.22-.137.087-.049.701.063.643.881-.482 2.293-.497 3.115.034.105.067.152-.367.017-.457z" fill="#cc9d76"/><path d="m23.045 17.206c.4.258.086.681.086.681-.195.001-.242.669.047.667 1.432-.004 1.979-.939 2.365-1.462-1.574-.082-3.146-.865-2.498.114z" fill="#cc9d76"/><path d="m23.045 17.206s.014.591.086.681c.314-.001 1.477-.255 2.109-.688z" fill="#fff"/><path d="m36.003 6.568c-.93-1.686-2.877-2.78-6.297-2.771-3.151.007-5.055 1.054-5.875.657 0 0-.168.521.037.964-.436.021-.695-.267-.697-.261-.303.493-.828 1.774-.119 3.298 4.987-1.868 5.278-.122 6.415 1.266.262.321-.563 1.761.744 3.212.283-3.229 4.094-2.937 3.646-.143-.285 1.79-1.09 2.545-1.529 2.958.723.22 1.043 1.063 1.043 1.063 3.556-.01 4.833-8.572 2.632-10.243z" fill="#3a2c29"/><path d="m23.782 15.359c-.15.442-.801.581-1.188.582-.52.002-1.018-.25-1.244-.615.197-.446 1.322.65 2.432.033z" fill="#dba97f"/></svg>