<svg enable-background="new 0 0 64 64" height="64" viewBox="0 0 64 64" width="64" xmlns="http://www.w3.org/2000/svg"><path d="m11.226 53.304c.45-.33 1.531-.105 2.724.382-.488.257-.927.65-1.27 1.248 5.345-1.729 10.79 8.294 14.135 1.28l-2.778-1.872c-1.701 4.4-7.865-4.854-12.811-1.038z" fill="#614036"/><path d="m11.226 53.304c.45-.33 2.541-.67 3.733-.182-1.556.507-2.187 1.049-2.279 1.812 5.158-3.118 10.626 6.662 12.48.387l-1.124-.979c-2.039 3.295-6.474-6.335-12.81-1.038z" fill="#4a2e24"/><path d="m27.312 56.141c.592-1.085-4.807-3.243-4.643-1.223.175 2.136 3.795 2.779 4.643 1.223z" fill="#8e3ed6"/><path d="m9.007 2.368s3.346-1.107 6.491.521l2.419.529c.036.341-.107.394-.107.394s-2.243.784-8.669-1.1c0 0-.18-.043-.134-.344z" fill="#8e3ed6"/><path d="m13.837 6.373c-.451-1.403-5.047-1.441-4.696-3.661 0 0 3.105-1.061 6.251.57l2.418.529c-.001 3.743-1.466 3.174-3.973 2.562z" fill="#302c3b"/><path d="m11.328 4.905c.997-.625 1.605-.666 1.559-.107.646-.285.903.092.838.418.66-.14.774.416-.061.857-.475.226-2.605-1.002-2.336-1.168z" fill="#8e3ed6"/><path d="m16.968 6.263c1.936 4.521 4.287 5.684 4.748 10.084 1.062 3.895 2.57 4.816 3.723 8.513-.288 1.635-3.199 2.564-5.368 2.296-2.202-6.554-2.702-9.785-2.706-10.963-.003-.887-.07-3.04-2.87-8.957-.229-.484 2.369-1.217 2.473-.973z" fill="#916b50"/><path d="m17.199 5.989c.085.055.073.942.073.942-.675-.319-2.452-.183-2.778.304-.126-.281-.262-.563-.39-.855-.157-.352 2.207-.977 3.095-.391z" fill="#f2f5f7"/><path d="m55.001 20.341s-1.57-3.049-5.047-4.027l-2.133-1.264c-.281.217-.219.352-.219.352s1.023 2.072 7.045 5.092c0-.001.163.091.354-.153z" fill="#8e3ed6"/><path d="m48.536 19.901c1.375-.687 4.699 2.398 6.111.592 0 0-1.434-2.854-4.912-3.829l-2.133-1.263c-2.802 2.646-1.326 3.237.934 4.5z" fill="#302c3b"/><path d="m51.437 20.562c-.248-1.116-.654-1.557-1.039-1.131-.25-.638-.717-.546-.916-.271-.367-.546-.865-.23-.598.647.172.481 2.621 1.055 2.553.755z" fill="#8e3ed6"/><path d="m46.446 17.663c-4.635 1.77-7.07.844-10.594 3.592-3.572 1.962-5.33 1.557-8.822 3.313-.989 1.354.348 4.108 2.045 5.488 6.3-2.999 8.996-4.579 9.857-5.401.646-.619 2.268-2.399 8.52-4.522.51-.174-.754-2.567-1.006-2.47z" fill="#916b50"/><path d="m46.485 17.304c-.098-.022-.736.607-.736.607.701.264 1.83 1.645 1.703 2.221.293-.105.59-.204.893-.316.365-.133-.815-2.279-1.86-2.512z" fill="#f2f5f7"/><path d="m18.627 23.112s2.819-.016 5.979-1.889c0 0 .825 2.445 1.688 3.234 1.132-.74 3.685-1.912 3.685-1.912s.66 3.423 3.689 5.64c0 0-4.267 2.557-5.32 4.297 0 0-4.188 1.584-8.613-1.293.001 0-1.139-4.671-1.108-8.077z" fill="#302c3b"/><path d="m32.023 41.811c1.105.234 2.117.467 2.796.666 1.709 1.798 3.998 3.121 5.572 5.576.254.4-.633 1.493.295 3.815.402.999 1.371.184.836-1.462 1.111-.385 1.141 3.722 2.246 2.514 1.221-1.342.861-4.026.598-4.713-.24-.613-1.635-1.257-2.01-1.7-1.852-2.174-4.563-6.271-5.4-6.729-.352-.193-1.842-1.22-3.281-1.7-.528 1.254-1.078 2.499-1.652 3.733z" fill="#916b50"/><path d="m15.457 59.985c-2.946 1.034-4.923 2.015-1.055 2.015 4.021 0 3.468-.636 4.526-.453 1.218.211 1.649.453 2.848.453 1.195 0 1.102-.768-.425-1.196-1.441-.405-1.896-1.003-2.239-2.429-.574-2.391-.903-7.502-.903-7.502s.368-1.847 1.554-3.477l-3.402-2.559c-2.09 6.994-1.905 3.688.175 12.614.272 1.166-.012 2.16-1.079 2.534z" fill="#916b50"/><path d="m15.82 45.29s2.19.79 3.899 2.917c0 0 .455-2.127 1.895-3.369 3.202-1.47 3.617.572 8.317-2.385l3.371-.085s-.102-2.373.984-4.394c0 0-2.238-.541-3.445-.795-.176-.037-2.271-2.322-1.5-5.92 0 0-5.417.616-10.026-1.204-.712 4.037 1.446 7.679.087 10.325-.451.658-2.608 2.683-3.582 4.91z" fill="#8e3ed6"/><path d="m23.753 44.144c-.437-2.477 4.264-3.306 4.7-.829.131.739.502 2.844.502 2.844l-4.7.829c0-.001-.384-2.179-.502-2.844z" fill="#755035"/><path d="m22.486 47.878c-1.598-1.115-2.086 4.038-.404 3.416.785-.292 1.147-2.898.404-3.416z" fill="#755035"/><path d="m30.914 46.392c-.52.741.713 3.065 1.551 3.071 1.79.01-.43-4.665-1.551-3.071z" fill="#755035"/><path d="m28.279 56.08c3.617-.638 4.841-3.891 3.955-7.643-.176-.754-.584-1.814-1.012-2.71-.887-1.861-4.1-3.326-5.317-3.111-1.221.216-3.733 2.689-3.935 4.742-.095.988-.113 2.124-.023 2.894.45 3.828 2.71 6.467 6.332 5.828z" fill="#916b50"/><path d="m23.345 51.426c.903.341 2.376.144 2.897-.29.108-.088.012-.435-.084-.372-.766.489-2.02.729-2.864.468-.113-.035-.084.145.051.194z" fill="#423225"/><path d="m31.32 50.02c-.729.629-2.18.946-2.818.718-.133-.045-.162-.403-.049-.378.887.197 2.146-.006 2.85-.539.095-.073.13.106.017.199z" fill="#423225"/><path d="m25.567 47.261c-.129-.73 2.114-1.126 2.243-.396.029.169-2.212.565-2.243.396z" fill="#755035"/><path d="m23.164 49.93c.258-1.348 2.26-1.511 2.773-.688-.019 1.471-2.267 1.993-2.773.688z" fill="#fff"/><path d="m25.506 49.66c-.197-1.12-1.82-.834-1.623.286.183 1.041 1.806.755 1.623-.286z" fill="#613f34"/><path d="m25.28 49.331c-.112-.645-1.413-.415-1.299.229.106.595 1.405.367 1.299-.229z" fill="#7d5037"/><path d="m25.029 49.726c-.083-.466-.756-.347-.674.118.077.433.75.314.674-.118z" fill="#1a1626"/><path d="m25.28 49.822c-.041-.235-.381-.176-.34.06.039.218.378.158.34-.06z" fill="#ab968c"/><path d="m23.166 49.94c.24 1.36 3.048.865 2.77-.71-.171 1.365-2.179 1.718-2.77.71z" fill="#45332c"/><path d="m30.982 48.552c-.709-1.178-2.641-.646-2.846.302.526 1.375 2.819 1.097 2.846-.302z" fill="#fff"/><path d="m30.308 48.811c-.197-1.12-1.816-.835-1.619.285.184 1.042 1.803.757 1.619-.285z" fill="#613f34"/><path d="m30.083 48.481c-.113-.644-1.412-.414-1.299.229.106.597 1.405.367 1.299-.229z" fill="#7d5037"/><path d="m29.835 48.876c-.084-.465-.758-.346-.676.119.077.434.753.315.676-.119z" fill="#1a1626"/><path d="m30.085 48.972c-.041-.234-.381-.174-.34.061.04.218.38.157.34-.061z" fill="#ab968c"/><path d="m30.984 48.562c.24 1.36-2.572 1.856-2.85.283.629 1.22 2.639.866 2.85-.283z" fill="#45332c"/><path d="m21.902 49.997c1.45 3.779 4.983 2.636 2.895 5.697-1.506.782-4.107-3.1-2.895-5.697z" fill="#614036"/><path d="m24.797 55.694c.86-4.165 6.492-4.625 7.457-7.264.91 1.898 1.302 5.753-1.98 7.588-2.966 1.656-5.775.341-5.477-.324z" fill="#614036"/><g fill="#4a2e24"><path d="m24.797 55.694c.501-2.392 3.574-2.438 7.14-4.798-3.143 3.168-4.82 2.328-7.14 4.798z"/><path d="m24.797 55.694c.6-4.716 5.74-4.621 7.457-7.264-.469 2.819-5.79 3.157-7.457 7.264z"/><path d="m22.357 52.463c1.861 3.234 3.392 1.531 3.205 2.501-.933.714-2.492-.151-3.205-2.501z"/></g><path d="m26.465 45.796c.916.225.861-.137 2.158-.455-.592-.474-1.082-1.129-2.394-.897-1.51.267-1.621 1.128-1.946 1.663 1.326-.145 1.398.212 2.182-.311z" fill="#84401e"/><path d="m28.205 45.271c-1.016-.741-2.861-.405-3.554.625 1.295-.374 2.206-.535 3.554-.625z" fill="#fff"/></svg>