<svg enable-background="new 0 0 64 64" height="64" viewBox="0 0 64 64" width="64" xmlns="http://www.w3.org/2000/svg" xmlns:xlink="http://www.w3.org/1999/xlink"><linearGradient id="a" gradientUnits="userSpaceOnUse" x1="39.6826" x2="36.4459" y1="44.0186" y2="38.3544"><stop offset="0" stop-color="#d6a67a"/><stop offset=".5537" stop-color="#deb78f"/><stop offset="1" stop-color="#e3c19b"/></linearGradient><linearGradient id="b" gradientUnits="userSpaceOnUse" x1="31.4854" x2="30.1103" y1="52.583" y2="37.9995"><stop offset="0" stop-color="#5d1e96"/><stop offset=".1931" stop-color="#6c28aa"/><stop offset=".4943" stop-color="#7f34c2"/><stop offset=".7714" stop-color="#8a3bd1"/><stop offset="1" stop-color="#8e3ed6"/></linearGradient><linearGradient id="c" gradientUnits="userSpaceOnUse" x1="39.752" x2="51.1299" y1="45.6504" y2="45.6504"><stop offset="0" stop-color="#e635de"/><stop offset=".1777" stop-color="#da30d3"/><stop offset=".4992" stop-color="#ba24b4"/><stop offset=".925" stop-color="#871083"/><stop offset="1" stop-color="#7d0c7a"/></linearGradient><linearGradient id="d" gradientUnits="userSpaceOnUse" x1="35.7598" x2="34.2912" y1="54.6816" y2="46.6199"><stop offset="0" stop-color="#018bc9"/><stop offset=".3755" stop-color="#0597cc"/><stop offset="1" stop-color="#0fb4d4"/></linearGradient><path d="m20.827 8.132c-9.936 23.045-9.324 22.621 2.582 24.697-5.775-5.715 10.283-22.791-2.582-24.697z" fill="#947d41"/><path d="m18.854 7.405c-7.377 17.539-4.648 22.848-1.656 24.34l3.621.633c-7.422-7.393 9.092-23.416-1.965-24.973z" fill="#ba9d52"/><path d="m37.472 11.032c1.375 25.025.947 24.418-10.957 22.34 6.713-2.603-1.786-24.898 10.957-22.34z" fill="#947d41"/><path d="m39.579 11.021c3.078 17.662-4.129 23.115-6.852 23.436l-3.623-.633c9.45-3.95-.453-25.083 10.475-22.803z" fill="#ba9d52"/><path d="m38.995 20.116c.994 4.533-2.279 12.895-6.268 14.34 4.008.699 7.436-4.363 9.967-11.717 3.174-9.181-5.47-10.699-3.699-2.623z" fill="#efde8b"/><path d="m12.017 19.192c.244 7.076 1.242 11.865 5.182 12.553-3.586-5.26-1.385-14.658.289-16.801 7.019-2.636-5.887-7.72-5.471 4.248z" fill="#efde8b"/><path d="m30.249 59.657c15.232-2.551 19.855-4.963 20.705-7.652.66-2.078-4.639-12.527-20.705 7.652z" fill="#732eb0"/><path d="m21.614 25.765c.311 3.541-.223 4.676-.223 4.676-2.795 1.008 6.164 18.09 19.287 20.174 10.775-6.238-2.324-16.129-3.318-16.988-1.654-1.426-3.793-1.555-6.967-2.209-1.33-.271-1.754-2.549-1.727-5.652h-7.052z" fill="#e3c19b"/><path d="m30.835 38.769c4.182 2.143 5.787 5.07 5.502 7.455 3.416.471 6.369-.029 7.482-5.031-.693-2.223-3.74-3.773-5.803-4.953-3.437-1.552-7.761-1.575-7.181 2.529z" fill="url(#a)"/><path d="m21.392 30.44c-11.773 3.271-5.174 13.684 2.203 27.873 11.043-1.236 19.945-3.492 21.83-7.727 2.865-6.43-4.254-13.629-5.094-14.648-3.766-4.582-8.152-4.479-9.803-4.494 3.359 1.023 6.184 4.125 7.875 5.023 9.709 5.158 4.875 7.662-2.533 11.402-9.812-3.104-13.758-12.919-14.478-17.429z" fill="url(#b)"/><path d="m51.128 47.284c.158-9.055-11.707-7.588-11.369-.738 4.121 8.111 11.369.738 11.369.738z" fill="url(#c)"/><path d="m47.878 50.542c.162-9.057-23.189-3.877-25.004 4.6 4.119 8.109 25.004-4.6 25.004-4.6z" fill="url(#d)"/><path d="m51.731 45.354c-.047-1.094-.941-1.984-1.467-1.836-.721 2.357-4.256 5.273-5.287 4.445-1.199-.959-.168-4.129-1.338-3.18-1.158.938-.152 6.188-1.076 6.479-1.137 1.041 2.078 3.559 2.693 3.479 6.227-4.201 7.372-6.154 6.475-9.387z" fill="#e3c19b"/><path d="m42.458 51.001c-7.717 2.416-10.469 2.133-17.768 4.453-5.41-19.738-6.307-23.799-7.422-23.068-9.701 6.363 1.807 27.73 4.121 29.008 2.994 1.656 13.127.055 24.051-6.518.375-1.479-2.058-4.164-2.982-3.875z" fill="#8e3ed6"/><path d="m21.048 28.171c3.391 5.795 4.254 5.941 9.438 1.645z" fill="#d6a67a"/><path d="m30.251 3.821c-7.537-1.314-12.25 4.121-13.189 12.016-.189 1.588-.148 3.932.051 5.963.408 4.234 5.654 9.336 8.191 9.779 2.543.443 9.225-2.576 11.08-6.416.887-1.842 1.732-4.031 2.107-5.586 1.844-7.736-.703-14.439-8.24-15.756z" fill="#e3c19b"/><path d="m26.454 25.138c-1.691-1.117-1.844-.354-4.707-.662.854 1.381 1.361 3.049 4.193 3.543 3.248.568 4.104-1.078 5.162-1.91-2.798-.682-2.677-1.45-4.648-.971z" fill="#c97e55"/><path d="m22.544 24.921c1.508 2.225 5.498 2.896 7.654 1.338-2.898-.192-4.857-.535-7.654-1.338z" fill="#fff"/><path d="m36.589 16.319c-1.521-1.299-4.543-1.951-5.873-1.479-.277.088-.338.828-.1.775 1.844-.41 4.469.012 5.938 1.115.197.148.267-.223.035-.411z" fill="#594640"/><path d="m19.978 13.421c1.875-.707 4.941-.299 6.031.598.229.178.031.893-.176.764-1.592-1.01-4.205-1.504-5.963-.961-.238.068-.178-.305.108-.401z" fill="#594640"/><path d="m29.274 22.817c-.268 1.508-4.939.693-4.67-.814.063-.35 4.733.467 4.67.814z" fill="#d6a67a"/><path d="m38.478 6.374c-6.242 4.438-1.254 5.666.518 13.742.994 4.533 1.168 9.977 3.699 2.623 3.173-9.181-1.393-16.683-4.217-16.365z" fill="#efde8b"/><path d="m25.872 2.058c-6.982.392-14.271 5.166-13.855 17.134.244 7.076 3.797-2.105 5.471-4.248 7.02-2.637 18.396-3.576 20.99-8.57 1.054-1.072-5.59-4.885-12.606-4.316z" fill="#efde8b"/><g fill="#ba9d52"><path d="m19.239 9.565c2.939-.074 16.539 2.023 19.238-3.191-3.654 1.969-7.093 2.08-19.238 3.191z"/><path d="m12.79 17.485c5.873-5.455 21.326-2.043 25.688-11.111-6.598 7.1-23.315 5.297-25.688 11.111z"/><path d="m36.683 7.407c-1.57 1.705 3.193-.365 5.594 12.764.152-7.404-2.852-13.043-5.594-12.764z"/></g><path d="m25.298 17.772c-1.559.639-3.736.26-4.98-.871-.188-.174-.342-.049-.295.078.953 2.523 3.76 3.012 5.527.965.09-.103-.012-.273-.252-.172z" fill="#45332c"/><path d="m35.063 19.476c-1.559.641-3.734.262-4.98-.869-.189-.176-.342-.049-.295.078.953 2.521 3.76 3.012 5.527.965.088-.104-.013-.274-.252-.174z" fill="#45332c"/></svg>