<svg enable-background="new 0 0 64 64" height="64" viewBox="0 0 64 64" width="64" xmlns="http://www.w3.org/2000/svg" xmlns:xlink="http://www.w3.org/1999/xlink"><radialGradient id="a" cx="53.375" cy="8.4414" gradientTransform="matrix(.9987 0 0 1 -.1413 0)" gradientUnits="userSpaceOnUse" r="8.01"><stop offset="0" stop-color="#fae803"/><stop offset=".2582" stop-color="#fae103"/><stop offset=".636" stop-color="#facd03"/><stop offset="1" stop-color="#fab403"/></radialGradient><path d="m9.464 50.943c5.501-4.255 4.792-6.424 8.125-9.574 2.859-4.865 2.172-10.081 7.063-11.891 3.099 3.214.041 8.147-2.271 11.161-.531 3.411-4.815 7.951-8.167 10.889-5.112 4.479-8.094 2.003-4.75-.585z" fill="#fc6"/><path d="m49.893 15.438c-1.849 4.165-3.142 5.82-4.085 8.033-3.313 1.643-4.655.747-7.875 2.177-7.076 3.482-1.635 16.046.375 11.372.636-6.664 4.74-6.643 10.241-9.606 1.529-.823 4.165-11.031 4.165-11.031s-2.52-1.626-2.821-.945z" fill="#fc6"/><path d="m37.933 25.647c-9.047 1.578-13.281 3.831-13.281 3.831-1.043 4.659-5.902 8.715-2.301 12.653 1.208 1.32.652 5.437-.73 9.886l14.011-1.991c.328-5.843 2.837-5.505 2.677-13.007-1.476 1.379-4.329-8.046-.376-11.372z" fill="#8e3ed6"/><path d="m26.202 26.693c2.199-.469 1.559 1.482 1.345 2.57-.583 2.969 6.421.46 6.417-1.991-.002-1.251-.141-1.756-.217-3.033.533-8.723-7.545 2.454-7.545 2.454z" fill="#f7c259"/><path d="m20.675 12.379c-.51 1.213-.672 2.372-.425 3.53.38 1.783-.443 2.658-1.811 3.877-1.301 1.154.145 2.198 1.531 2.188.285.409.05.814.05.814 1.11.965 1.084 2.447.574 2.851 0 0 .342.175.274.811-.185 1.819.941 2.372 3.648 1.493 5.343-1.737 5.776-5.74 5.776-5.74 1.092 1.549 4.377-1.093 4.467-4.315.165-5.351-4.525-12.833-14.084-5.509z" fill="#fc6"/><path d="m24.471 18.275c-.698.808-2.42 1.261-2.993 1.146-1.393-4.187 2.077-2.91 2.993-1.146z" fill="#f5f5f5"/><path d="m21.542 19.432c1.643-.054.725-4.463-.389-2.064-.06.416.059 2.074.389 2.064z" fill="#45332c"/><path d="m24.471 18.275c-.443-1.639-3.274-2.82-3.317-.908.446-1.036 2.45-.373 3.317.908z" fill="#45332c"/><path d="m21.651 17.411c.009.404.588.387.58-.018-.011-.372-.591-.354-.58.018z" fill="#f5f5f5"/><path d="m24.894 15.695c-1.107-.878-3.375-.806-4.206-.24-.183.109-.003.743.137.653.931-.595 2.696-.78 4.034-.145.148.069.206-.144.035-.268z" fill="#594640"/><path d="m20.505 23.614c.504.348 0 .925 0 .925-.457-.018-.461 1.225.09 1.1 1.604-.37 3.012-1.563 3.067-2.036-.315.013-2.72-.08-3.642-.814.001-.001-.088.502.485.825z" fill="#d47706"/><path d="m20.505 23.614v.925c.403.016 1.933-.302 2.764-.814 0 0-1.783.231-2.764-.111z" fill="#fff"/><path d="m21.196 21.311c-.213.553-1.054.691-1.555.674-.669-.025-1.303-.371-1.584-.849.27-.554 1.685.898 3.139.175z" fill="#e6b045"/><path d="m20.675 12.379s9.266-.273 13.072 11.86l4.592-10.838c-2.528-9.528-16.108-8.172-17.664-1.022z" fill="#8e3ed6"/><path d="m38.339 13.401c-2.712 1.602-3.581 4.846-3.581 4.846-2.221-2.098-4.619-.879-4.619-.879s2.237 2.399 3.608 6.871c3.18-1.617 5.86-6.117 4.592-10.838z" fill="#792cbf"/><path d="m34.369 19.526c.051 3.788-5.583 4.273-5.637.483-.054-3.791 5.581-4.277 5.637-.483z" fill="#8e3ed6"/><path d="m2 62h60v-12.836c-32.493-.939-42.373 3.053-60 1.003z" fill="#48c2f9"/><path d="m62 54.823c-22.666-.26-39.188 2.21-60 1.5v5.677h60z" fill="#7ed2fc"/><path d="m35.282 38.049c.621 2.853-3.291 5.478-5.443 3.817 2.026.18 4.583-2.157 5.443-3.817z" fill="#792cbf"/><ellipse cx="54" cy="10.01" fill="url(#a)" rx="8" ry="8.01"/><path d="m61.112 6.792c-.531-.747-1.071-1.196-1.396-1.425.074-.266.129-.531.159-.791-.098-.107-.199-.211-.304-.312-.101 2.292-2.507 5.159-3.304 6.109-.043.052-.081.097-.115.138-.965-.235-2.12-.489-3.304-.737.853-2.914 2.456-6.188 4.205-7.168-.126-.054-.255-.103-.384-.148-1.854 1.227-3.364 4.575-4.143 7.25-1.326-.276-2.668-.54-3.796-.759.122-1.244.5-2.637 1.02-3.755.708-1.521 1.683-2.578 2.825-3.068-.387.071-.762.167-1.125.29-.788.606-1.468 1.502-1.998 2.642s-.915 2.557-1.046 3.829c-.507-.1-.963-.187-1.344-.259-.142-.028-.273-.053-.392-.075-.046-.515-.039-1.73.755-3.108-.462.665-.826 1.402-1.07 2.192-.046.438-.029.79-.005 1.017-.123.21-.235.47-.331.767-.011.195-.019.392-.019.59 0 .376.026.746.077 1.108.017-.921.243-1.734.53-2.247.119.023.252.049.395.075 2.071.396 6.355 1.216 9.079 1.883.305 1.075.544 2.054.715 2.915-1.442.444-3.811.489-5.963.106-2.465-.438-4.172-1.324-4.71-2.437.05.285.116.563.195.837.336.353.789.674 1.355.958.829.417 1.902.749 3.101.962.992.178 2.031.265 3.01.265 1.174 0 2.26-.125 3.073-.37.19 1.037.276 1.89.252 2.519-1.07.577-2.721.884-4.341.8-1.307-.066-2.487-.37-3.446-.876.568.411 1.191.747 1.856.999.5.106 1.025.175 1.573.203.179.009.358.013.538.013 1.405 0 2.793-.275 3.785-.756-.027.195-.069.359-.128.492.136-.054.269-.112.399-.173.356-1.479-.411-4.645-.951-6.555.036-.044.078-.094.125-.15.386-.46 1.042-1.242 1.675-2.175 1.107 1.396 2.958 3.854 2.003 6.668.185-.229.357-.465.518-.711.182-1.072.026-2.189-.468-3.335-.521-1.209-1.317-2.223-1.862-2.908.489-.754.947-1.589 1.229-2.424.29.217.767.629 1.231 1.283.541.758.923 1.632 1.144 2.601-.035-.652-.147-1.283-.328-1.884-.161-.316-.344-.618-.549-.905z" fill="#302c3b"/></svg>