<svg enable-background="new 0 0 64 64" height="64" viewBox="0 0 64 64" width="64" xmlns="http://www.w3.org/2000/svg" xmlns:xlink="http://www.w3.org/1999/xlink"><radialGradient id="a" cx="42.5625" cy="5.9722" gradientUnits="userSpaceOnUse" r="5.5"><stop offset="0" stop-color="#ffe02e"/><stop offset=".2489" stop-color="#ffda29"/><stop offset=".5857" stop-color="#ffc91a"/><stop offset=".9714" stop-color="#ffac02"/><stop offset="1" stop-color="#fa0"/></radialGradient><linearGradient id="b"><stop offset="0" stop-color="#fff"/><stop offset="1" stop-color="#fff" stop-opacity="0"/></linearGradient><radialGradient id="c" cx="555.9414" cy="-40.6094" gradientTransform="matrix(.3583 .4654 -.7924 .61 -189.2077 -228.6484)" gradientUnits="userSpaceOnUse" r="3.9138" xlink:href="#b"/><radialGradient id="d" cx="9.7358" cy="15.5474" gradientUnits="userSpaceOnUse" r="5.4999"><stop offset="0" stop-color="#9be022"/><stop offset=".2668" stop-color="#91d422"/><stop offset=".7474" stop-color="#78b423"/><stop offset="1" stop-color="#69a123"/></radialGradient><radialGradient id="e" cx="533.9199" cy="-8.4536" gradientTransform="matrix(.3583 .4654 -.7924 .61 -189.2077 -228.6484)" gradientUnits="userSpaceOnUse" r="3.9138" xlink:href="#b"/><radialGradient id="f" cx="54.9668" cy="52.4727" gradientUnits="userSpaceOnUse" r="5.4998"><stop offset=".2121" stop-color="#ff3b3b"/><stop offset=".4183" stop-color="#f63131"/><stop offset=".7712" stop-color="#de1615"/><stop offset="1" stop-color="#cc0100"/></radialGradient><radialGradient id="g" cx="631.2441" cy="-21.9082" gradientTransform="matrix(.3583 .4654 -.7924 .61 -189.2077 -228.6484)" gradientUnits="userSpaceOnUse" r="3.9136" xlink:href="#b"/><path d="m21.841 42.871c-3.857 1.41-4.576 7.079-6.701 8.86-1.043-2.077-2.814-5.254-3.662-7.575 0 0-3.387-.7-4.916.597 1.361 5.344 2.578 10.234 5.453 15.422 1.223 2.206 9.656-1.344 10.893-6.38 0 0 .459-3.814-1.067-10.924z" fill="#7ab51d"/><path d="m5.376 42.902c.451.222 1.611-2.256 1.162-2.477 0 0-2.301-.771-3.025-.745-1.711.057-1.691 1.552-1.287 1.657 1.186.303 3.15 1.565 3.15 1.565z" fill="#946346"/><path d="m5.582 35.497c-.049 2.662.531 4.479.531 4.479 0-1.307.139-3.786.313-4.873.238-1.5 2.176-1.676 2.045-.163-.209 2.415.107 5.021.107 5.021s.263-2.301.422-4.234c.121-1.461 1.973-1.31 1.945.157-.021 1.182-.381 4.803-.381 4.803s.641-.873.797-2.98c.082-1.102 1.326-.776 1.359.313.061 1.939-.203 2.434-.438 3.344-.125.486-.174 1.844-.955 3.234-.484.861-3.602 1.109-4.5.422-.51-.39-2.197-2.872-2.576-3.721-.408-.92-.748-3.42-.609-5.529.102-1.526 1.969-1.801 1.94-.273z" fill="#b88a6f"/><path d="m46.159 42.871c5.039 1.02 4.605 15.406 11.777 16.19-1.176 2.647-3.877 2.644-5.564 2.644-2.604 0-5.277-3.603-7.279-6.986 0 0-.459-4.738 1.066-11.848z" fill="#7ab51d"/><path d="m21.841 42.871c1.709-1.12 7.828-3.024 7.828-3.024h8.716s6.074 1.898 7.773 3.024l-.686 19.129h-22.926z" fill="#7ab51d"/><path d="m21.841 42.871c1.535-.867 2.93-1.408 2.93-1.408l3.035 20.537h-3.645z" fill="#302c3b"/><path d="m46.159 42.871c-1.537-.867-2.93-1.408-2.93-1.408l-3.035 20.537h3.643z" fill="#302c3b"/><g fill="#946346"><path d="m29.041 40.574c0 4.071 9.917 4.071 9.917 0 0-2.48 0-6.584 0-6.584h-9.917z"/><path d="m24.185 27.102c-3.283-.593-.719 8.587 1.852 6.056 1.187-1.177-.317-5.779-1.852-6.056z"/><path d="m43.815 27.102c-1.533.277-3.041 4.88-1.85 6.056 2.571 2.53 5.132-6.649 1.85-6.056z"/></g><path d="m34.001 16.34c-6.789 0-10.058 5.135-9.648 12.274.082 1.437.971 6.122 1.813 7.803.859 1.72 3.738 4.37 5.502 4.922 1.115.345 3.55.345 4.664 0 1.766-.552 4.643-3.202 5.504-4.922.842-1.681 1.732-6.366 1.813-7.803.411-7.139-2.861-12.274-9.648-12.274z" fill="#b88a6f"/><path d="m34.001 35.777c-1.527-.449-3.789.213-3.789.213.861.938 1.492 2.156 3.789 2.156 2.629 0 3.076-1.382 3.789-2.156 0 0-2.266-.664-3.789-.213z" fill="#80553c"/><path d="m30.789 36.148c1.6 1.345 4.833 1.351 6.441 0-1.706.075-4.723.077-6.441 0z" fill="#fff"/><path d="m36.104 33.253c0 1.37-4.208 1.37-4.208 0 0-.315 4.208-.315 4.208 0z" fill="#946346"/><path d="m25.691 24.777h-2.066c.137 1.926.467 3.974.986 5.77.213-1.577-.273-2.23.457-4.134.248-.645.449-1.183.623-1.636z" fill="#6b4435"/><path d="m42.271 24.777c.186.451.396.988.664 1.636.67 1.633.244 2.557.459 4.134.627-2.337.885-4.233.867-5.77z" fill="#6b4435"/><path d="m41.267 29.168c-.908 2.372-4.598 2.024-5.273.362.513-2.669 4.775-2.895 5.273-.362z" fill="#fff"/><path d="m26.734 29.168c.906 2.372 4.598 2.024 5.271.362-.513-2.67-4.773-2.895-5.271-.362z" fill="#fff"/><path d="m41.644 26.309c-1.555-.771-4.523-.808-5.629-.271-.236.104-.08.834.117.764 1.543-.571 4.029-.582 5.475.049.191.083.273-.433.037-.542z" fill="#80553c"/><path d="m26.357 26.309c1.553-.771 4.523-.808 5.629-.271.238.104.082.834-.117.764-1.547-.571-4.029-.582-5.477.049-.191.083-.271-.433-.035-.542z" fill="#80553c"/><path d="m36.935 28.913c0 2.083 3.014 2.083 3.014 0-.001-1.935-3.014-1.935-3.014 0z" fill="#613f34"/><path d="m37.233 29.58c0 1.195 2.418 1.195 2.418 0 0-1.108-2.418-1.108-2.418 0z" fill="#7d5037"/><path d="m37.817 28.946c0 .867 1.252.867 1.252 0 0-.802-1.252-.802-1.252 0z" fill="#1a1626"/><path d="m37.39 28.693c0 .437.633.437.633 0-.001-.403-.633-.403-.633 0z" fill="#ab968c"/><path d="m28.052 28.913c0 2.083 3.012 2.083 3.012 0 0-1.935-3.012-1.935-3.012 0z" fill="#613f34"/><path d="m28.349 29.58c0 1.195 2.418 1.195 2.418 0 0-1.11-2.418-1.11-2.418 0z" fill="#7d5037"/><path d="m28.933 28.946c0 .863 1.252.863 1.252 0 0-.804-1.252-.804-1.252 0z" fill="#1a1626"/><path d="m28.505 28.693c0 .437.631.437.631 0 0-.405-.631-.405-.631 0z" fill="#ab968c"/><path d="m41.267 29.149c0-2.549-5.273-2.549-5.273.404.753-2.424 4.519-2.424 5.273-.404z" fill="#946346"/><path d="m26.734 29.149c0-2.549 5.271-2.549 5.271.404-.752-2.424-4.517-2.424-5.271-.404z" fill="#946346"/><path d="m48.642 24.142c0 2.549-29.285 2.549-29.285 0 0-2.55 29.285-2.55 29.285 0z" fill="#4e5e67"/><path d="m44.737 23.062c0 2.193-21.474 2.193-21.474 0 0-12.083 21.474-12.083 21.474 0z" fill="#302c3b"/><path d="m40.181 46.866c.441 1.108-4.623-1.043-4.623-1.043v-2.443s4.92-2.879 4.598-1.73c-.397 1.418-.341 4.301.025 5.216z" fill="#302c3b"/><path d="m38.067 44.4-2.086-.171 1.387-1.233-1.81.997v1.239l2.041.631-1.567-.966z" fill="#4e5e67"/><path d="m27.841 46.866c-.441 1.108 4.621-1.043 4.621-1.043v-2.443s-4.926-2.879-4.6-1.73c.401 1.418.345 4.301-.021 5.216z" fill="#302c3b"/><path d="m29.953 44.4 2.088-.171-1.389-1.233 1.81.997v1.239l-2.041.631 1.565-.966z" fill="#4e5e67"/><path d="m35.513 46.159c-.529.551-2.477.551-3.009 0-.531-.548-.531-2.557 0-3.104.533-.55 2.48-.55 3.009 0 .533.548.533 2.556 0 3.104z" fill="#302c3b"/><path d="m43.632 2c-3.035 0-5.5 2.466-5.5 5.505 0 3.036 2.465 5.495 5.5 5.495s5.5-2.459 5.5-5.495c0-3.039-2.465-5.505-5.5-5.505z" fill="url(#a)"/><path d="m43.567 7.137c-1.713 1.319-3.729 1.572-4.502.566-.775-1.007-.016-2.891 1.697-4.209 1.713-1.319 3.729-1.572 4.504-.566.776 1.007.014 2.891-1.699 4.209z" fill="url(#c)" opacity=".5"/><circle cx="10.5" cy="16.77" fill="url(#d)" r="5.5"/><path d="m10.197 16.503c-1.713 1.319-3.729 1.572-4.502.566-.775-1.007-.016-2.891 1.697-4.209 1.713-1.319 3.729-1.572 4.504-.566.775 1.007.014 2.892-1.699 4.209z" fill="url(#e)" opacity=".5"/><path d="m59.759 59.138c-.313.392-2.43-1.337-2.121-1.731 0 0 1.74-1.69 2.404-1.981 1.568-.688 2.197.668 1.877.937-.936.785-2.16 2.775-2.16 2.775z" fill="#946346"/><path d="m56.036 48.5c-3.035 0-5.5 2.466-5.5 5.505 0 3.036 2.465 5.495 5.5 5.495s5.5-2.459 5.5-5.495c0-3.039-2.465-5.505-5.5-5.505z" fill="url(#f)"/><path d="m55.729 53.59c-1.713 1.319-3.729 1.572-4.502.566-.775-1.007-.016-2.891 1.697-4.209 1.713-1.319 3.729-1.572 4.504-.566.776 1.007.014 2.891-1.699 4.209z" fill="url(#g)" opacity=".5"/><path d="m58.774 57.384c-.1.61-.355 1.116-.355 1.116s.121-1.256 0-1.957c-.236-1.384-2.025-1.266-1.934.071.074 1.089-.311 2.088-.311 2.088s-.246-.998-.354-2.041c-.15-1.438-2.166-1.275-2.102.168.035.796.16 1.856.16 1.856s-.264-.538-.389-1.164c-.268-1.355-1.967-1.351-1.762.022.396 2.672 2.09 2.686 2.369 2.002.338.811 1.479.742 1.945.254.383.47 1.789.556 2.156-.136.691.706 1.924-.084 2.143-1.605.198-1.35-1.349-2.023-1.566-.674z" fill="#b88a6f"/></svg>