<svg enable-background="new 0 0 64 64" height="64" viewBox="0 0 64 64" width="64" xmlns="http://www.w3.org/2000/svg"><path d="m36.361 15.663c-2.427 2.535-5.183 7.966-6.548 8.331-2.416.649-6.675-1.608-9.177-1.857-3.831-.384-2.447-5.479.493-4.548 2.612.824 6.039 1.963 7.423 2.44 2.208-2.685 5.451-4.123 5.078-6.831-.321-2.356.88-3.19 1.176-1.608 0 0 .826-2.775 2.763-1.979 1.987.812.879 3.869-1.208 6.052z" fill="#f7c259"/><path d="m39.641 17.22c1.249-1.226 1.414 1.886 1.538 2.235 0 0 1.44-2.749 4.468-4.017 0 0-.832-1.141-1.783-3.137-1.93-5.752-4.223 4.919-4.223 4.919z" fill="#f7c259"/><path d="m32.756 8.658c-.014.94.275 1.615.734 2.32.713 1.082.41 1.883-.151 3.058-.536 1.113.667 1.421 1.562 1.045.287.199.392.657.392.657s.742-.076.557 1.135c.988.422.344 2.221 2.139 1.561 1.75-.643 3.523-2.581 3.764-3.123.383-.856-.147-2.825-.147-2.825 1.112.739 2.297-1.785 1.514-3.954-1.301-3.597-6.125-7.285-10.364.126z" fill="#fc6"/><path d="m40.748 10.187c-.346-.845.041-1.861.731-2.147 0 0-.774 1.491.081 2.727.001 0-.574.011-.812-.58z" fill="#e6b045"/><path d="m37.023 11.291c-.282.685-1.317 1.362-1.724 1.409-1.833-2.455.735-2.372 1.724-1.409z" fill="#f5f5f5"/><path d="m35.346 12.693c1.07-.393-.498-3.1-.708-1.277.05.291.491 1.356.708 1.277z" fill="#45332c"/><path d="m37.023 11.291c-.651-.982-2.775-1.145-2.385.125.069-.777 1.532-.778 2.385-.125z" fill="#e6b045"/><path d="m34.977 11.338c.094.264.473.126.378-.138-.089-.245-.468-.107-.378.138z" fill="#f5f5f5"/><path d="m36.502 9.414c-.942-.278-2.378.217-2.768.798-.091.115.175.613.251.527.595-.683 1.782-1.129 2.642-.93.111.025.017-.359-.125-.395z" fill="#c1873c"/><path d="m35.523 16.207c-.177.433.092.774.327.666.509-.234.613-.855 1.694-1.163-1.31-.408-2.988-.224-2.021.497z" fill="#e69b45"/><path d="m43.116 3.065c-1.309-1.149-3.294-1.484-6.183-.425-2.659.977-3.943 2.454-4.762 2.367 0 0 .02.497.331.811-.362.153-.67-.012-.669-.008-.104.513-.152 1.768.922 2.848 3.635-3.126 4.422-1.727 5.814-.895.319.193.07 1.674 1.623 2.51-.763-2.841 2.549-3.764 3.039-1.246.313 1.614-.132 2.506-.376 2.991.679-.034 1.16.602 1.16.602 3.004-1.103 1.479-8.808-.899-9.555z" fill="#594640"/><path d="m35.513 14.315c.01.423-.496.742-.822.86-.441.161-.939.1-1.244-.141.03-.439 1.321.148 2.066-.719z" fill="#e6b045"/><path d="m23.437 17.22c-1.249-1.226-1.414 1.886-1.538 2.235 0 0-1.44-2.749-4.468-4.017 0 0 .832-1.141 1.783-3.137 1.93-5.752 4.223 4.919 4.223 4.919z" fill="#f7c259"/><path d="m30.321 8.658c.014.94-.275 1.615-.734 2.32-.713 1.082-.41 1.883.151 3.058.536 1.113-.667 1.421-1.562 1.045-.287.199-.392.657-.392.657s-.742-.076-.557 1.135c-.988.422-.344 2.221-2.139 1.561-1.75-.643-3.523-2.581-3.764-3.123-.383-.856.147-2.825.147-2.825-1.112.739-2.297-1.785-1.514-3.954 1.301-3.597 6.125-7.285 10.364.126z" fill="#fc6"/><path d="m22.329 10.187c.346-.845-.041-1.861-.732-2.147 0 0 .774 1.491-.081 2.727.001 0 .575.011.813-.58z" fill="#e6b045"/><path d="m26.055 11.291c.282.685 1.317 1.362 1.724 1.409 1.832-2.455-.736-2.372-1.724-1.409z" fill="#f5f5f5"/><path d="m27.732 12.693c-1.07-.393.498-3.1.708-1.277-.05.291-.492 1.356-.708 1.277z" fill="#45332c"/><path d="m26.055 11.291c.651-.982 2.775-1.145 2.385.125-.07-.777-1.533-.778-2.385-.125z" fill="#e6b045"/><path d="m28.101 11.338c-.094.264-.473.126-.378-.138.089-.245.468-.107.378.138z" fill="#f5f5f5"/><path d="m26.575 9.414c.942-.278 2.378.217 2.767.798.091.115-.175.613-.251.527-.595-.683-1.782-1.129-2.642-.93-.11.025-.015-.359.126-.395z" fill="#c1873c"/><path d="m27.555 16.207c.177.433-.092.774-.327.666-.509-.234-.613-.855-1.694-1.163 1.31-.408 2.988-.224 2.021.497z" fill="#e69b45"/><path d="m19.961 3.065c1.309-1.149 3.294-1.484 6.183-.425 2.659.977 3.943 2.454 4.762 2.367 0 0-.02.497-.331.811.362.153.67-.012.669-.008.104.513.152 1.768-.922 2.848-3.635-3.126-4.422-1.727-5.814-.895-.319.193-.07 1.674-1.623 2.51.763-2.841-2.549-3.764-3.039-1.246-.314 1.614.132 2.506.376 2.991-.679-.034-1.16.602-1.16.602-3.003-1.103-1.479-8.808.899-9.555z" fill="#594640"/><path d="m27.565 14.315c-.01.423.496.742.822.86.441.161.938.1 1.244-.141-.03-.439-1.321.148-2.066-.719z" fill="#e6b045"/><path d="m41.693 7.893c-.694-.361-2.626.249-2.987.943-.672 1.292.397 5.023 1.753 5.553.729.286 2.505-.434 2.726-1.184.551-1.875-.2-4.639-1.492-5.312zm-2.592 1.769c-.446-.484.522-1.379.971-.896.446.485-.523 1.38-.971.896zm2.235 4.122c-.379.654-1.69-.103-1.313-.76.379-.654 1.692.103 1.313.76zm.614-4.916c-.19.661-1.515.287-1.329-.376.189-.662 1.515-.289 1.329.376z" fill="#e81c27"/><path d="m37.383 19.3c-.281.243-.761-.217-.692-.447.299-1.016 2.661-4.633 3.509-5.449.356-.345.793.168.693.446-.393 1.111-2.709 4.755-3.51 5.45z" fill="#f2f5f7"/><path d="m34.714 3.977c-.271-.342.239-.738.494-.617 1.123.527 5.138 3.756 6.044 4.81.284.328-.134.81-.491.621-1.234-.649-5.278-3.835-6.047-4.814z" fill="#e3e6e8"/><path d="m34.059 4.318c-.207-.346.334-.692.559-.56.989.579 4.325 3.928 5.031 4.995.298.45-.289.738-.558.563-1.074-.699-4.445-4.01-5.032-4.998z" fill="#f2f5f7"/><path d="m19.894 13.205c.221.75 1.997 1.471 2.726 1.184 1.356-.53 2.425-4.261 1.753-5.553-.361-.694-2.293-1.305-2.987-.943-1.294.673-2.045 3.437-1.492 5.312zm3.112-4.439c.448-.483 1.417.411.971.896-.449.484-1.417-.411-.971-.896zm.048 4.258c.378.657-.934 1.414-1.313.76-.379-.657.934-1.414 1.313-.76zm-.598-4.532c.186.663-1.14 1.037-1.329.376-.185-.665 1.141-1.038 1.329-.376z" fill="#7ab51d"/><path d="m28.363 3.977c.271-.342-.239-.738-.494-.617-1.123.527-5.138 3.756-6.044 4.81-.284.328.134.81.491.621 1.234-.649 5.279-3.835 6.047-4.814z" fill="#e3e6e8"/><path d="m29.019 4.318c.207-.346-.334-.692-.559-.56-.989.579-4.325 3.928-5.031 4.995-.298.45.289.738.558.563 1.074-.699 4.445-4.01 5.032-4.998z" fill="#f2f5f7"/><path d="m22.06 37.999c-3.017.345-3.514 1.914-5.166 3.084.566.357 1.653 6.148.192 8.456l3.668.312c1.644-5.854 2.693-6.304 2.812-8.89.04-.868-.486-1.754-1.506-2.962z" fill="#f7c259"/><path d="m22.06 37.999c-2.236-3.198-7.075-6.646-7.075-6.646l-4.886 3.914c1.517 4.1 5.196 4.646 7.084 6.019 1.838-.881 3.046-2.476 4.877-3.287z" fill="#529320"/><path d="m17.07 49.209 3.69.097.185-1.222-3.612-.481c0-.001-.455.959-.263 1.606z" fill="#e6ebef"/><path d="m19.472 55.876-3.144-.313c-.46-.046-.12-.773-.12-.773s3.115-1.5 12.346.39c0 0-2.484 3.084-9.082.696z" fill="#7ab51d"/><path d="m16.767 51.75c-.399-.924.059-3.642.347-3.452.553.364 2.744.475 3.263.189-.396-1.948 1.294-1.599 1.253-1.014-.574 8.169 7.657 3.948 6.925 7.706 0 0-4.281 1.931-8.905-.02l-3.44-.369c-.216-2.07.559-3.037.557-3.04z" fill="#302c3b"/><path d="m24.008 52.623c-1.58.506-1.917.185-1.645-.586-.977.16-1.18-.464-.973-.898-.942-.051-.886-.874.403-1.183.725-.143 2.64 2.531 2.215 2.667z" fill="#7ab51d"/><path d="m30.905 32.959c.158-.538-.525-1.094.496-1.218 0 0-.032-.748.4-.693 1.563.194 2.005.377 2.63 1.355.213.338 6.03-2.364 8.307-3.038-1.538-2.682-5.97-10.02-2.715-10.856 3.102-.356 7.879 12.024 6.932 12.601-4.5 2.732-10.725 2.835-11.938 3.441-1.696.844-3.96.833-3.851-.393.05-.551-.406-.701-.261-1.199z" fill="#f7c259"/><path d="m17.415 15.019c1.257 10.758 5.113 14.65 6.14 3.327-1.268-.53-2.463-3.365-6.14-3.327z" fill="#f7c259"/><path d="m18.984 41.876s-2.555-2.089-6.758.894c0 0 .497 1.276.449 2.408-4.075.455-4.059 2.787-6.675 5.564l3.163 1.738c1.734-3.175 6.829-3.054 9.041-5.294 1.45-1.467.78-5.31.78-5.31z" fill="#fc6"/><path d="m18.984 41.876c-.096-1.921.49-4.569-1.624-8.445-1.615-2.958 6.479-3.545 6.479-15.041 0 0-.592-.813-.749-.369-.865 2.45-3.547-.045-4.355-1.926-.546-1.268-3.06-2.17-4.832-.443-4.829 4.701-3.135 10.024-5.473 13.909-1.387 2.303-1.852 5.188.171 7.185 1.504 1.484 2.062 3.709 3.625 6.024 1.834-.834 4.459-1.584 6.758-.894z" fill="#7ab51d"/><path d="m12.185 18.442c-2.052 4.553 2.547 6.717 4.763 2.246 2.745-5.541-2.381-7.527-4.763-2.246z" fill="#f7c259"/><path d="m49.053 54.426-3.69.097-.185-1.222 3.612-.481c0-.001.455.959.263 1.606z" fill="#e6ebef"/><path d="m46.651 61.093 3.144-.313c.46-.046.12-.773.12-.773s-3.115-1.5-12.346.39c0-.001 2.484 3.084 9.082.696z" fill="#e81c27"/><path d="m49.357 56.967c.399-.924-.06-3.642-.347-3.452-.553.364-2.744.475-3.263.19.396-1.948-1.294-1.599-1.253-1.014.574 8.169-7.657 3.948-6.925 7.706 0 0 4.281 1.931 8.905-.021l3.44-.369c.215-2.071-.559-3.037-.557-3.04z" fill="#302c3b"/><path d="m42.115 57.84c1.58.506 1.917.185 1.645-.586.977.16 1.18-.464.973-.898.942-.051.886-.874-.403-1.183-.724-.143-2.639 2.531-2.215 2.667z" fill="#e81c27"/><path d="m51.309 41.409c-.415-1.196 3.314-3.146.099-3.578-2.105-.283-8.267 1.86-5.397 6.561 1.462 1.689 4.842.304 8.877 3.591l2.137-2.954c-3.666-1.768-2.992-3.376-5.716-3.62z" fill="#f7c259"/><path d="m45.663 15.019c-1.258 10.758-5.114 14.65-6.141 3.327 1.268-.53 2.463-3.365 6.141-3.327z" fill="#f7c259"/><path d="m47.229 43.81c-1.893-1.339-2.815-3.792-6.517-2.309-1.278 2.423-1.001 3.85-.596 4.838.775 1.89 3.348 2.147 5.069 7.175l3.665-.324c-1.244-3.34-.906-5.192-2.837-7.134-.023-.785.361-1.421 1.216-2.246z" fill="#fc6"/><path d="m55.153 30.558c-3.032-4.186-1.15-10.206-5.979-14.907-1.772-1.727-4.286-.825-4.832.443-.809 1.881-3.49 4.376-4.355 1.926-.157-.444-.749.369-.749.369 0 10.343 8.958 13.009 6.901 15.108-2.103 2.146-4.072 5.181-5.427 8.004 2.218.52 4.675.99 6.517 2.309 2.724-1.813 3.195-3.612 5.793-4.604 3.599-1.375 4.342-5.596 2.131-8.648z" fill="#e81c27"/><path d="m50.893 18.442c2.052 4.553-2.547 6.717-4.763 2.246-2.745-5.541 2.381-7.527 4.763-2.246z" fill="#f7c259"/><path d="m29.825 26.99c-.342-.493.168-1.287-.912-1.072 0 0-.219-.771-.64-.571-1.526.722-1.915 1.056-2.222 2.26-.104.414-6.929-.387-9.47-.311.667-3.243 2.719-12.193-.872-11.955-3.276.678-3.991 14.872-2.835 15.142 5.494 1.274 11.861-.706 13.3-.496 2.008.291 4.308-.479 3.787-1.689-.234-.543.18-.849-.136-1.308z" fill="#fc6"/><path d="m56.919 45.169-2.541 2.679-.994-.734 2.214-2.895s1.001.357 1.321.95z" fill="#e6ebef"/><path d="m59.936 51.582 2.002-2.444c.293-.357-.462-.632-.462-.632s-3.264 1.142-8.454 9.006c0 0 3.937.424 6.914-5.93z" fill="#e81c27"/><path d="m58.931 46.751c-.371-.935-2.617-2.532-2.685-2.195-.134.648-1.605 2.275-2.174 2.44-1.098-1.657-2.045-.215-1.603.17 6.183 5.37-2.623 8.206.553 10.346 0 0 4.393-1.662 6.282-6.313l2.172-2.693c-1.313-1.616-2.544-1.751-2.545-1.755z" fill="#302c3b"/><path d="m54.428 52.489c1.475-.76 1.486-1.225.749-1.577.804-.578.506-1.162.052-1.323.631-.702.009-1.244-1.121-.552-.613.411-.077 3.656.32 3.452z" fill="#e81c27"/><path d="m5.329 51.623 3.352 1.548.652-1.049-3.127-1.871s-.798.702-.877 1.372z" fill="#e6ebef"/><path d="m4.899 58.696-2.764-1.53c-.404-.224.195-.758.195-.758s3.455-.146 11.186 5.24c0 0-3.501 1.852-8.617-2.952z" fill="#7ab51d"/><path d="m4.046 53.837c-.001-1.006 1.494-3.321 1.684-3.033.363.553 2.332 1.521 2.921 1.464.408-1.946 1.821-.957 1.553-.436-3.759 7.276 5.471 6.654 3.313 9.816 0 0-4.696.08-8.172-3.541l-3.015-1.699c.622-1.986 1.716-2.568 1.716-2.571z" fill="#302c3b"/><path d="m10.352 57.503c-1.651-.161-1.834-.589-1.279-1.189-.96-.238-.9-.893-.538-1.209-.846-.42-.468-1.153.838-.928.721.156 1.422 3.369.979 3.326z" fill="#7ab51d"/><path d="m25.696 19.305c.281.243.761-.217.692-.447-.299-1.016-2.661-4.633-3.509-5.449-.357-.345-.793.168-.693.446.393 1.111 2.71 4.755 3.51 5.45z" fill="#f2f5f7"/><path d="m45.84 15.409c-3.467.966-6.03 2.819-10.114 3.116-2.047.147-10.132.04-10.911-.153-3.042-.755-6.618-4.467-7.399-3.353.084.681 2.115 2.191 2.936 3.62.625 1.09 2.58 2.17 3.925 1.66.62-.235 10.101 2.688 11.35 2.473 4.374-.758 10.707-1.259 12.339-2.024 4.341-2.027 1.554-6.364-2.126-5.339z" fill="#fc6"/></svg>