<svg enable-background="new 0 0 64 64" height="64" viewBox="0 0 64 64" width="64" xmlns="http://www.w3.org/2000/svg" xmlns:xlink="http://www.w3.org/1999/xlink"><linearGradient id="a" gradientTransform="matrix(.7071 -.7071 .7071 .7071 -86.9767 106.5977)" gradientUnits="userSpaceOnUse" x1="127.2383" x2="146.5186" y1="31.791" y2="31.791"><stop offset="0" stop-color="#e6ebef"/><stop offset=".2857" stop-color="#e2e8ec"/><stop offset=".5605" stop-color="#d7dfe3"/><stop offset=".83" stop-color="#c3cfd3"/><stop offset="1" stop-color="#b3c2c6"/></linearGradient><radialGradient id="b" cx="13.2178" cy="10.9082" gradientTransform="matrix(.7071 -.7071 1.1042 1.1042 -8.1739 8.2093)" gradientUnits="userSpaceOnUse" r="8.8311"><stop offset="0" stop-color="#dadfe3"/><stop offset=".4388" stop-color="#d6dce0"/><stop offset=".8602" stop-color="#cbd3d6"/><stop offset="1" stop-color="#c5ced1"/></radialGradient><radialGradient id="c" cx="461.5674" cy="-27.1191" gradientTransform="matrix(.8757 .8352 -.2253 .2603 -358.3776 -324.1965)" gradientUnits="userSpaceOnUse" r="7.6927"><stop offset="0" stop-color="#fff"/><stop offset="1" stop-color="#fff" stop-opacity="0"/></radialGradient><path d="m3.775 3.776c-4.827 4.827.797 17.524 9.564 21.827 4.092 2.008 9.746 1.266 12.446 2.859 10.312 6.092 27.056 40.307 35.02 32.342 7.965-7.963-26.25-24.709-32.342-35.02-1.596-2.699-.853-8.354-2.859-12.445-4.303-8.768-17.002-14.391-21.829-9.563z" fill="url(#a)"/><path d="m23.769 12.438c-3.661-7.788-14.953-12.542-19.413-8.082-4.461 4.46.294 15.751 8.08 19.411 10.682 5.024 16.36-.647 11.333-11.329z" fill="url(#b)"/><path d="m58.929 60.895c-2.627 3.036-16.588-10.278-13.958-13.313 2.625-3.035 16.587 10.279 13.958 13.313z" fill="url(#c)" opacity=".5"/></svg>