<svg enable-background="new 0 0 64 64" height="64" viewBox="0 0 64 64" width="64" xmlns="http://www.w3.org/2000/svg" xmlns:xlink="http://www.w3.org/1999/xlink"><radialGradient id="a" cx="32.375" cy="47.9316" gradientTransform="matrix(1 0 0 .5784 0 20.2058)" gradientUnits="userSpaceOnUse" r="28.1257"><stop offset="0" stop-color="#ffac07"/><stop offset=".1526" stop-color="#fba807"/><stop offset=".3108" stop-color="#f09b06"/><stop offset=".4715" stop-color="#dd8705"/><stop offset=".6341" stop-color="#c26a04"/><stop offset=".798" stop-color="#a04402"/><stop offset=".961" stop-color="#761701"/><stop offset="1" stop-color="#6b0b00"/></radialGradient><radialGradient id="b" cx="32" cy="31.8887" gradientTransform="matrix(1 0 0 .126 0 27.8692)" gradientUnits="userSpaceOnUse" r="25.1784"><stop offset="0" stop-color="#ffac07"/><stop offset=".1839" stop-color="#fca807"/><stop offset=".3745" stop-color="#f19b06"/><stop offset=".5682" stop-color="#e08705"/><stop offset=".764" stop-color="#c86a03"/><stop offset=".9596" stop-color="#aa4501"/><stop offset="1" stop-color="#a33c00"/></radialGradient><linearGradient id="c" gradientUnits="userSpaceOnUse" x1="14.0244" x2="14.0244" y1="49.5381" y2="4.5213"><stop offset="0" stop-color="#fff" stop-opacity="0"/><stop offset=".1142" stop-color="#fff" stop-opacity=".1142"/><stop offset="1" stop-color="#fff"/></linearGradient><path d="m2 6.676 4.799 49.971c.691 2.933 11.31 5.353 25.201 5.353 13.89 0 24.509-2.42 25.201-5.354l4.799-49.97z" fill="#c5d7e8"/><path d="m4.4 6.676 2.399 25.213h50.402l2.399-25.213z" fill="#e6ebef"/><path d="m7.999 45.276c1.166 9.266 46.835 9.266 48.001 0l1.201-13.388h-50.402z" fill="url(#a)"/><path d="m32 29.211c-13.889 0-25.202 1.19-25.202 2.678.602 1.487 11.313 2.677 25.202 2.677 13.888 0 24.599-1.19 25.201-2.678 0-1.487-11.312-2.677-25.201-2.677z" fill="url(#b)"/><path d="m32 4c-16.569 0-30 1.069-30 2.676.787 1.757 13.431 2.678 30 2.678 16.568 0 28.798-1.07 30-2.678 0-1.405-13.432-2.676-30-2.676z" fill="#c5d7e8"/><path d="m32 4.785c-18.655 0-27.6.948-27.6 1.861s12.358 1.654 27.6 1.654 27.6-.74 27.6-1.654-8.946-1.861-27.6-1.861z" fill="#e6ebef"/><path d="m46.992 31.4c-1.033-1.075-8.867-2.012-10.313-2.012-1.688 0-6.443 6.823-6.443 8.321 0 2.705 2.833 10.503 3.751 11.453 1.031 1.069 9.473 1.687 10.914 1.687 1.51 0 7.838-7.825 7.838-9.322.001-.472-4.96-9.302-5.747-10.127z" fill="#fff" opacity=".35"/><path d="m47.5 32.107c-.227-.347-.404-.599-.508-.707-1.033-1.075-8.867-2.012-10.313-2.012-.625 0-1.672.939-2.742 2.195 4.243 1.016 8.967.95 13.563.524z" fill="#abd6ff" opacity=".7"/><path d="m28.854 44.271c-1.082 1.076-9.312 2.019-10.828 2.019-1.773 0-6.768-6.851-6.768-8.355 0-2.717 2.977-10.546 3.939-11.497 1.084-1.076 9.949-1.695 11.462-1.695 1.586.001 8.228 7.858 8.228 9.359.002.475-5.207 9.338-6.033 10.169z" fill="#fff" opacity=".35"/><path d="m26.651 24.742c-1.514 0-10.378.619-11.462 1.695-.382.378-1.082 1.846-1.787 3.642.281 3.719 19.78 3.766 19.587.771-2.619-3.427-5.502-6.107-6.338-6.108z" fill="#abd6ff" opacity=".7"/><path d="m8.666 53.697c19.209 4.432 22.963 5.307 44.934-.234-16.612 1.238-29.464 1.873-44.934.234z" fill="#96aab0"/><path d="m15.676 56.621c12.508 2.919 26.588 2.174 39.658-1.254-13.336.36-26.246 1.774-39.658 1.254z" fill="#96aab0"/><path d="m6.799 9.996s2.367 25.271 3.118 35.729c.094 1.313 11.339 5.269 11.333 3.25-.033-11.993-.833-38.063-.833-38.063s-10.229-.208-13.618-.916z" fill="url(#c)" opacity=".7"/></svg>