<svg enable-background="new 0 0 64 64" height="64" viewBox="0 0 64 64" width="64" xmlns="http://www.w3.org/2000/svg" xmlns:xlink="http://www.w3.org/1999/xlink"><radialGradient id="a" cx="32" cy="46.1875" gradientTransform="matrix(1 0 0 .5899 0 12.8747)" gradientUnits="userSpaceOnUse" r="32.1742"><stop offset="0" stop-color="#dae1e3"/><stop offset=".6279" stop-color="#d8e0e2"/><stop offset=".8538" stop-color="#d1dbdc"/><stop offset="1" stop-color="#c7d3d4"/></radialGradient><linearGradient id="b" gradientUnits="userSpaceOnUse" x1="2" x2="62" y1="40" y2="40"><stop offset="0" stop-color="#bf0000"/><stop offset=".05" stop-color="#ff000e"/><stop offset=".95" stop-color="#ff000e"/><stop offset="1" stop-color="#bf0000"/></linearGradient><path d="m59 20.95h-54v37.365h54zm-3 21.98-2.732-3.238 2.732-3.237zm-40.434 2.156-2.899 3.234-2.899-3.234 2.899-3.236zm-5.798-10.787 2.899-3.239 2.899 3.239-2.899 3.236zm4.833 5.392 2.899-3.236 2.899 3.236-2.899 3.239zm4.833-5.392 2.9-3.239 2.899 3.239-2.899 3.236zm2.9 7.551 2.899 3.236-2.899 3.234-2.9-3.234zm1.934-2.159 2.899-3.236 2.899 3.236-2.899 3.238zm4.833-5.392 2.899-3.239 2.899 3.239-2.899 3.236zm2.899 7.551 2.899 3.236-2.899 3.234-2.899-3.234zm1.935-2.159 2.899-3.236 2.899 3.236-2.899 3.238zm4.833-5.392 2.9-3.239 2.899 3.239-2.899 3.236zm2.9 7.551 2.899 3.236-2.899 3.234-2.9-3.234zm1.934-2.159 2.899-3.236 2.899 3.236-2.899 3.238zm4.833-5.392 2.899-3.239 2.901 3.239-2.901 3.236zm2.899 7.551 2.901 3.236-2.901 3.234-2.899-3.234zm4.666-16.184v6.473l-2.732-3.237zm0-2.75-4 3.933-4-3.933zm-9.499 2.75 2.899 3.236-2.899 3.237-2.899-3.237zm-1.501-2.75-3.332 3.83-3.668-3.83zm-8.166 2.75 2.899 3.236-2.899 3.237-2.899-3.237zm-1.834-2.75-3 3.83-3-3.83zm-7.833 2.75 2.899 3.236-2.899 3.237-2.899-3.237zm-1.167-2.75-3.666 3.83-3.334-3.83zm-8.5 2.75 2.899 3.236-2.899 3.237-2.899-3.237zm-1.5-2.75-4 3.933-3-3.933zm-8 2.75 2.733 3.236-2.733 3.237zm0 10.789 2.733 3.236-2.733 3.239zm0 11.043 2.733 3.934-2.733 3.931zm6.601 2.981 2.899-3.236 2.899 3.236-2.899 3.236zm4.833 5.39 2.9-3.234 2.899 3.234zm4.834-5.39 2.899-3.236 2.899 3.236-2.899 3.236zm4.833 5.39 2.899-3.234 2.899 3.234zm4.834-5.39 2.899-3.236 2.899 3.236-2.899 3.236zm4.833 5.39 2.9-3.234 2.899 3.234zm4.834-5.39 2.899-3.236 2.899 3.236-2.899 3.236zm9.666.953 2.732-3.934v7.865z" fill="#e6ebef"/><path d="m53 31.765c0-2.266 6-8.849 6-8.849l-1-3.933s-8 8.651-8 11.799v24.581h-36s0-19.025 0-24.581c0-3.147-8-11.799-8-11.799l-1 3.933s6 6.583 6 8.849v23.598l-6 2.951 1 2.949 6-2.949h40l6 2.949 1-2.949-6-2.951s0-17.697 0-23.598z" fill="url(#a)"/><path d="m56 18h-48c-3.252 0-6 2.702-6 5.899v37.364c0 .982 4 .982 4 0 0-8.092 0-37.364 0-37.364 0-1.108 1.075-1.966 2-1.966h48c.925 0 2 .858 2 1.966v37.364c0 .982 4 .982 4 0 0-6.863 0-37.364 0-37.364 0-3.197-2.748-5.899-6-5.899z" fill="url(#b)"/></svg>