<svg enable-background="new 0 0 64 64" height="64" viewBox="0 0 64 64" width="64" xmlns="http://www.w3.org/2000/svg" xmlns:xlink="http://www.w3.org/1999/xlink"><radialGradient id="a" cx="117.2207" cy="-85.1548" gradientTransform="matrix(.983 0 0 .9829 -64.0093 114.9168)" gradientUnits="userSpaceOnUse" r="4.3226"><stop offset="0" stop-color="#fa0"/><stop offset=".3422" stop-color="#ffa700"/><stop offset=".5973" stop-color="#ff9d00"/><stop offset=".8234" stop-color="#ff8d00"/><stop offset="1" stop-color="#ff7b00"/></radialGradient><linearGradient id="b" gradientTransform="matrix(.7071 .7071 -.7071 .7071 16.4756 143.7171)" gradientUnits="userSpaceOnUse" x1="-69.6035" x2="-66.4336" y1="-51.3423" y2="-51.3423"><stop offset="0" stop-color="#e6ebed"/><stop offset=".2532" stop-color="#dfe4e7"/><stop offset=".6149" stop-color="#ccd2d4"/><stop offset="1" stop-color="#b1b7ba"/></linearGradient><path d="m54.346 5.331c-1.832.564-2.76-.239-3.069-1.703-.097-.014-.196-.013-.294-.017-.13 1.858 1.929 3.099 3.81 2.051-.15-.108-.3-.216-.447-.331z" fill="#b3c2c6"/><path d="m58.666 9.653c-.563 1.83.24 2.757 1.703 3.067.016.099.016.195.02.296-1.859.131-3.1-1.929-2.051-3.812.107.15.217.302.328.449z" fill="#b3c2c6"/><path d="m52.342 28.332c-1.912 0-3.459 1.554-3.459 3.464-.002 1.911 1.55 3.457 3.459 3.458 1.914.001 3.463-1.548 3.463-3.458-.002-1.913-1.549-3.462-3.463-3.464z" fill="url(#a)"/><path d="m53.348 31.216c0-.871-.707-1.578-1.583-1.583-.872.001-1.581.708-1.577 1.586-.002.87.707 1.581 1.58 1.581.875.004 1.581-.708 1.58-1.584zm-1.58 1.496c-.826 0-1.494-.668-1.494-1.493 0-.829.668-1.497 1.494-1.497s1.496.67 1.496 1.494c-.002.826-.672 1.498-1.496 1.496z" fill="#ea8800"/><path d="m57.968 9.022c-1.756-.225-2.683-1.512-3.028-3.217-.096-.058-.191-.103-.287-.153-.066 1.933 1.971 4.196 3.76 3.927-.149-.182-.298-.365-.445-.557z" fill="#b3c2c6"/><path d="m59.197 17.601c.138-.17.293-.325.446-.484-.065-.615-.153-1.291-.276-2.097.496-.056.909-.158 1.279-.285-.043-.155-.096-.308-.137-.466-.348.118-.745.209-1.221.26-.08-.492-.37-2.203-.37-2.203.356-.094.653-.225.921-.374-.059-.163-.116-.33-.171-.493-.249.15-.526.282-.876.376-.095-.658-.184-1.333-.252-1.986-.18-.165-.356-.33-.534-.494-.386.142-.841.244-1.394.308-.043-.738-.045-1.335-.01-1.863-.137-.13-.261-.266-.385-.404-.532.035-1.135.033-1.881-.011.061-.539.165-.987.301-1.371-.18-.194-.363-.382-.557-.563-.596-.063-1.212-.144-1.916-.242.07-.273.174-.498.284-.708-.153-.073-.302-.159-.446-.251-.131.247-.246.514-.332.831 0 0-1.697-.286-2.199-.365.041-.404.117-.743.209-1.046-.162-.032-.324-.058-.491-.068-.089.307-.168.638-.21 1.033-.746-.116-1.377-.198-1.959-.263-.193.227-.396.446-.608.658.03.498.08 1.055.153 1.727-.443 0-.861.017-1.258.043-.053.171-.111.34-.166.511.459-.038.951-.062 1.48-.06.057.497.252 2.046.252 2.046-.535.031-1.043.089-1.508.165-.098-.623-.205-1.256-.311-1.885-.104.297-.223.593-.365.876.061.371.125.748.182 1.114-.248.052-.486.118-.725.182.008.166.02.334.028.502.249-.076.507-.142.774-.198.115.753.203 1.435.271 2.061-.416.103-.824.227-1.209.368-.02-.184-.047-.374-.072-.562-.164.067-.323.14-.479.214.022.185.048.376.069.554-.154.066-.307.153-.46.226.003.182.011.362.024.54.162-.088.326-.177.49-.253.064.645.102 1.259.111 1.834-.326.136-.66.288-1.004.461-.002-.258-.021-.533-.037-.805-.166.077-.332.151-.5.218.01.288.033.583.031.859-.35.188-1.287.731-1.287.731-.072.041-.119.116-.125.198-.045.608-.135 1.186-.26 1.761-.549.222-1.037.387-1.5.501-.078.019-.144.075-.172.153-.172.426-.381.857-.649 1.339-.229.017-.462.026-.695.026-.081.161-.164.322-.248.483.218.008.437.022.646.013-.088.151-1.046 1.883-1.195 2.176.114.225.232.447.35.67.551.03 1.084.019 1.617-.034-.139.495-.234.97-.287 1.448l.387.389c.477-.057.958-.152 1.448-.29-.05.482-.058.97-.04 1.465.234.157.469.322.699.489.285-.146 2.004-1.096 2.148-1.18-.006.189.004.381.008.573.172-.057.342-.118.514-.172.002-.234-.008-.47.008-.706.482-.262.912-.474 1.336-.646.076-.027.133-.089.153-.17.116-.469.276-.942.501-1.5.508-.112 1.018-.188 1.544-.236.204-.211.411-.422.659-.573.168-.296.381-.667.49-.864.227.001.465.004.704.013.183-.17.378-.324.581-.468-.346-.022-.693-.046-1.019-.05.175-.342.329-.678.462-1.001.576.01 1.191.045 1.834.107-.104.227-.225.448-.344.672.227-.1.456-.194.691-.285.052-.111.115-.219.164-.332.334.037.677.088 1.035.135.238-.157.51-.281.799-.385-.575-.094-1.117-.172-1.627-.233.145-.384.268-.784.368-1.204.62.068 1.299.158 2.063.271-.074.35-.166.685-.273 1.002.193-.052.375-.098.558-.142.071-.257.149-.51.208-.784.596.095 1.203.195 1.811.298.303-.128.609-.239.918-.343.049-.508.076-1.056.074-1.647.78.085 1.402.135 1.957.165zm-.331-2.534c.121.775.208 1.434.272 2.029-.537-.03-1.139-.084-1.896-.165-.012-.563-.047-1.177-.104-1.864.669.029 1.227.028 1.728 0zm-4.669-.718s-1.342-.086-1.923-.114c-.012-.551-.039-1.152-.087-1.886.271.018 1.57.112 1.947.136.03.608.054 1.24.063 1.864zm.448-1.77c.519.015 1.133.026 1.732.01.055.632.107 1.264.146 1.886-.592-.021-1.197-.054-1.817-.096-.011-.599-.037-1.212-.061-1.8zm-9.512 7.601c.129-.424.24-.832.336-1.226.463-.1.94-.175 1.424-.23-.117.398-.248.794-.404 1.202-.458.061-.907.149-1.356.254zm1.144.278c-.152.363-.31.7-.451 1.006-.402.07-.8.16-1.209.268.131-.336.264-.673.387-1.016.426-.103.848-.189 1.273-.258zm-2.202-2.948c.406-.157.802-.288 1.202-.4-.058.479-.131.954-.23 1.423-.394.092-.803.203-1.227.335.104-.453.192-.903.255-1.358zm-.794 1.484c-.341.126-.678.257-1.014.388.107-.405.196-.807.27-1.208.303-.144.643-.3 1.002-.451-.067.423-.152.843-.258 1.271zm4.532-4.39c.51-.038 1.057-.059 1.64-.059 0 .581-.019 1.132-.06 1.642-.572-.002-1.119.015-1.637.056.041-.517.058-1.066.057-1.639zm-.838 3.599c-.467.051-.934.118-1.387.21.09-.456.16-.922.209-1.388.451-.096.922-.172 1.404-.228-.055.484-.133.953-.226 1.406zm2.972-4.152c-.012-.554-.038-1.154-.086-1.823.533.014 1.124.041 1.824.088.045.712.072 1.29.086 1.82-.669-.047-1.271-.074-1.824-.085zm-.506-.001c-.599-.002-1.168.021-1.691.061 0-.569-.021-1.184-.061-1.853.514-.053 1.061-.086 1.662-.098.049.697.081 1.319.09 1.89zm-2.136.554c.004.593-.018 1.157-.061 1.689-.498.053-.98.129-1.449.227.051-.525.08-1.076.092-1.643.449-.114.926-.205 1.418-.273zm-2.381 4.47c-.093.381-.203.773-.338 1.186-.364.087-.742.189-1.16.315.125-.42.227-.799.313-1.16.413-.133.806-.245 1.185-.341zm2.783-2.321c.529-.042 1.094-.062 1.688-.059-.067.495-.16.967-.274 1.419-.57.008-1.117.039-1.644.092.099-.467.173-.951.23-1.452zm2.24-2.199c.569.014 1.189.045 1.893.093-.014.601-.045 1.149-.096 1.659-.671-.037-1.285-.056-1.858-.057.044-.528.063-1.094.061-1.695zm2.209-2.711c-.021-.292-.113-1.547-.139-1.878 0 0 1.297.099 1.883.131.033.584.133 1.884.133 1.884-.33-.024-1.586-.116-1.877-.137zm-.508-.033c-.721-.046-1.336-.073-1.883-.087-.029-.593-.117-1.927-.117-1.927.625.016 1.256.041 1.865.069.023.377.116 1.675.135 1.945zm-2.032-2.516c-.038-.623-.071-1.232-.092-1.82.62.043 1.254.094 1.885.146-.017.604-.005 1.216.012 1.736-.589-.028-1.202-.052-1.805-.062zm-.47.497s.085 1.306.116 1.864c-.576.017-1.105.045-1.601.095-.046-.667-.106-1.328-.163-1.917.501-.033 1.048-.047 1.648-.042zm-1.951 2.516c.037.647.055 1.238.055 1.792-.469.064-.926.148-1.357.256-.005-.562-.031-1.165-.077-1.798.43-.103.891-.185 1.379-.25zm-1.81 2.702c-.012.542-.043 1.068-.096 1.566-.379.105-.756.225-1.141.367.052-.491.086-1.005.096-1.526.371-.154.754-.29 1.141-.407zm-1.769 2.14c-.376.153-.722.309-1.046.459.059-.499.1-1.015.113-1.539.361-.193.707-.354 1.047-.498-.016.543-.054 1.074-.114 1.578zm-1.643 1.23.007-.004c-.083.405-.179.817-.3 1.235-.33.128-.695.259-1.078.39.133-.401.252-.792.344-1.172.345-.145.687-.298 1.027-.449zm-.479 1.84c-.106.334-.224.672-.359 1.042-.414.133-.775.238-1.117.322.145-.328.287-.66.424-.998.369-.116.724-.244 1.052-.366zm.598-.23s.799-.308 1.088-.415c-.096.36-.203.749-.337 1.18-.191.063-.939.302-1.126.363.138-.388.263-.76.375-1.128zm.564 1.354c-.023.078-.262.806-.35 1.098 0 0-.754.248-1.109.361.111-.355.363-1.107.363-1.107.292-.091 1.02-.328 1.096-.352zm.588-.185c.432-.135.818-.243 1.183-.335-.104.271-.418 1.084-.418 1.084-.368.113-.737.236-1.124.372.058-.181.299-.928.359-1.121zm.537 1.345c-.125.333-.254.689-.366 1.058-.337.135-.669.276-.996.424.083-.343.188-.708.321-1.12.37-.136.706-.253 1.041-.362zm.607-.184c.421-.121.831-.217 1.235-.299l-.008.016c-.152.338-.299.674-.442 1.02-.378.092-.771.208-1.173.346.129-.384.262-.751.388-1.083zm2.462-1.937c.507-.062 1.035-.1 1.578-.112-.145.337-.307.686-.498 1.047-.525.012-1.037.054-1.537.113.148-.323.304-.671.457-1.048zm.209-.533c.139-.383.258-.757.363-1.141.498-.05 1.023-.083 1.57-.094-.119.389-.256.771-.408 1.141-.521.013-1.037.042-1.525.094zm2.841-3.101c.555.002 1.146.019 1.791.057-.063.485-.146.946-.248 1.378-.635-.042-1.237-.069-1.797-.077.102-.432.189-.886.254-1.358zm2.444-2.011c.549.028 1.863.113 1.863.113.004.604-.009 1.147-.043 1.65-.645-.063-1.285-.12-1.916-.165.049-.496.082-1.022.096-1.598zm2.363.141c.65.044 1.292.081 1.918.097.06.706.094 1.328.109 1.896-.461-.058-2.078-.256-2.078-.256.035-.529.056-1.102.051-1.737zm3.709-2.521s.291 1.729.365 2.207c-.496.026-1.066.027-1.75-.006-.043-.656-.095-1.327-.152-1.999.588-.038 1.098-.101 1.537-.202zm-.379-2.468c.068.655.158 1.338.254 1.993-.414.092-.895.154-1.451.186-.051-.606-.102-1.265-.137-1.9.51-.064.952-.154 1.334-.279zm-1.838.25c.035.655.084 1.32.137 1.945-.627.015-1.258.006-1.793-.015 0 0-.104-1.385-.135-1.949.701.035 1.28.041 1.791.019zm-.109-2.232c-.025.499-.019 1.064.02 1.734-.492.018-1.055.01-1.731-.021-.032-.679-.038-1.242-.019-1.732.669.041 1.232.045 1.73.019zm-2.215 1.682c-.567-.031-1.948-.134-1.948-.134-.019-.531-.028-1.163-.011-1.793.623.053 1.289.104 1.945.137-.021.51-.019 1.092.014 1.79zm.236-3.627c-.128.383-.22.824-.279 1.337-.637-.036-1.296-.088-1.899-.138.029-.561.093-1.039.183-1.455.736.106 1.376.191 1.995.256zm-2.468-.381c-.103.442-.168.949-.203 1.537-.674-.053-1.346-.107-2-.149-.031-.687-.034-1.255-.004-1.754.486.079 2.207.366 2.207.366zm-4.575 1.176c-.084-.76-.137-1.36-.164-1.896.594.063 1.252.154 2.029.272-.029.498-.031 1.061-.002 1.729-.69-.056-1.302-.093-1.863-.105zm.06.508c.566.014 1.187.05 1.893.109.018.622.056 1.262.097 1.917-.633-.001-1.207.016-1.731.051-.001 0-.203-1.607-.259-2.077zm-1.687 2.7c.477-.08.994-.136 1.547-.166.061.618.123 1.31.172 2.015-.508.064-.99.15-1.444.257-.068-.634-.159-1.333-.275-2.106zm-1.375 3.042c.396-.155.814-.287 1.246-.394.049.667.072 1.297.075 1.879-.407.117-.806.253-1.2.412-.012-.597-.05-1.233-.121-1.897zm-2.802 3.86s.65-.378.913-.524c-.022.496-.062.982-.128 1.452 0 0-.74.33-.971.429.086-.443.149-.898.186-1.357zm-2.004 2.549c.355-.095.716-.208 1.111-.357-.096.349-.208.709-.344 1.083-.43.112-.828.193-1.229.248.181-.338.33-.659.462-.974zm-1.307 2.45c.035-.064.07-.126.109-.19.146-.245.295-.497.439-.752.441-.042.883-.125 1.344-.232-.139.331-.277.661-.422.985l-.012.029c-.493.093-.973.139-1.458.16zm-.791 1.472c.17-.342.359-.659.543-.957.492-.003.975-.042 1.463-.12-.145.337-.281.672-.408 1.021-.528.061-1.054.079-1.598.056zm2.605-1.188c.38-.078.786-.191 1.223-.324-.124.376-.247.752-.36 1.136-.466.13-.894.217-1.313.284.14-.37.292-.734.45-1.096zm-.874 2.958c.06-.436.151-.868.285-1.327.418-.056.84-.138 1.291-.25-.113.45-.194.874-.248 1.289-.463.138-.891.23-1.328.288zm1.863-.423c.063-.418.152-.848.279-1.316.387-.11.764-.234 1.139-.358-.136.44-.242.841-.324 1.224-.363.155-.727.31-1.094.45zm-.092 2.152c-.027-.544-.01-1.069.052-1.597.349-.128.687-.266 1.021-.41-.076.488-.117.974-.119 1.466-.296.183-.614.367-.954.541zm1.666-.904c-.066.039-.131.079-.193.117.018-.489.063-.972.156-1.461l.045-.021c.32-.141.645-.276.969-.412-.108.457-.19.901-.234 1.342-.249.142-.497.29-.743.435zm2.252-1.193c-.315.133-.633.28-.975.46.055-.399.137-.799.252-1.226.377-.138.732-.251 1.084-.344-.15.397-.265.753-.361 1.11zm3.074-2.917c-.145.263-.523.91-.523.91-.465.038-.912.1-1.361.187.102-.226.202-.454.302-.678l.132-.29c.47-.066.954-.108 1.45-.129zm3.336-1.889c-.664-.067-1.299-.107-1.896-.122.156-.393.295-.792.412-1.199.582.002 1.209.026 1.877.076-.108.431-.239.849-.393 1.245zm.935-1.651c.108-.455.194-.935.261-1.441.66.044 1.332.103 2.011.171-.026.55-.084 1.066-.165 1.545-.78-.118-1.473-.206-2.107-.275zm4.754.707-.095-.017c-.688-.118-1.373-.233-2.049-.339.076-.471.133-.977.165-1.509 0 0 1.562.194 2.046.253.002.576-.019 1.115-.067 1.612z" fill="#cfd8dd"/><path d="m-1.699 43.811h42.706v1.072h-42.706z" fill="#cfd8dd" transform="matrix(-.7071 .7071 -.7071 -.7071 64.9093 61.8064)"/><path d="m-2.331 43.358h42.707v.715h-42.707z" fill="#e6ebef" transform="matrix(-.7071 .7071 -.7071 -.7071 63.3853 61.1744)"/><path d="m-1.069 44.621h42.707v.715h-42.707z" fill="#b3c2c6" transform="matrix(-.7071 .7071 -.7071 -.7071 66.4332 62.4376)"/><path d="m31.853 33.909s-1-.703-1.781-1.744l-.994 1s.771.991 1.776 1.748z" fill="#c2bfaf" opacity=".6"/><path d="m19.713 46.046s-.8-.96-1.783-1.742l-13.123 13.13 1.762 1.765z" fill="#c2bfaf" opacity=".6"/><path d="m4.813 57.409c-1.494 1.28-2.23 1.813-2.23 1.813s-.258-.066-.438.109c-.135.137-.091.308-.091.308-.196.196.155.876.793 1.512.639.64 1.317.991 1.513.795 0 0 .173.043.307-.093.179-.176.11-.438.11-.438s.533-.734 1.815-2.229z" fill="#302c3b"/><path d="m5.764 58.235c-.503-.501-.779-.997-.801-1.02-.017-.017-.048-.005-.066.015 0 0-.269.238-.358.328-.065.063-.25.063-.352.153-.542.475-1.516 1.377-1.56 1.42-.05.05-.042.069-.044.09 0 .084.227.599.898 1.271.003.007.008.008.012.012.006.006.011.013.018.014.67.67 1.185.898 1.268.897.021.001.041.005.09-.041.041-.042.947-1.02 1.42-1.559.09-.104.09-.288.155-.354.088-.089.324-.36.324-.36.022-.014.032-.048.017-.063-.023-.022-.505-.282-1.021-.803z" fill="url(#b)"/><g fill="#1a1626"><path d="m9.052 56.706s-1.156-.547-2.065-1.459l-1.115 1.121s.901.86 2.066 1.458z" opacity=".1"/><path d="m11.182 54.577s-1.155-.547-2.065-1.458l-1.115 1.116s.901.865 2.064 1.463z" opacity=".1"/><path d="m13.311 52.448s-1.155-.547-2.065-1.461l-1.113 1.12s.899.864 2.065 1.46z" opacity=".1"/><path d="m15.442 50.319s-1.155-.549-2.064-1.46l-1.116 1.118s.901.863 2.066 1.459z" opacity=".1"/><path d="m17.571 48.188s-1.153-.549-2.065-1.46l-1.114 1.119s.9.862 2.065 1.46z" opacity=".1"/><path d="m19.704 46.058s-1.155-.549-2.065-1.463l-1.116 1.122s.902.861 2.066 1.459z" opacity=".1"/></g><path d="m48.065 6.858c-1.72-.92-1.854-1.838-3.631-1.747.17.743 2.212 1.794 3.631 1.747z" fill="#b3c2c6"/><path d="m49.498 7.544c-1.613-1.057-1.668-1.998-3.41-2.036.102.759 2.016 1.975 3.41 2.036z" fill="#9eacb0"/><path d="m50.852 8.343c-1.501-1.187-1.477-2.138-3.178-2.313.039.778 1.81 2.147 3.178 2.313z" fill="#b3c2c6"/><path d="m52.117 9.256c-1.38-1.312-1.283-2.271-2.936-2.575-.029.784 1.604 2.298 2.936 2.575z" fill="#9eacb0"/><path d="m53.293 10.27c-1.258-1.43-1.086-2.387-2.684-2.818-.091.786 1.393 2.437 2.684 2.818z" fill="#b3c2c6"/><path d="m54.371 11.384c-1.127-1.541-.883-2.493-2.422-3.05-.15.788 1.18 2.567 2.422 3.05z" fill="#9eacb0"/><path d="m53.199 9.327c-.207.782.961 2.683 2.153 3.268-.995-1.645-.68-2.588-2.153-3.268z" fill="#b3c2c6"/><path d="m56.225 13.896c-.855-1.745-.473-2.67-1.873-3.47-.268.771.74 2.783 1.873 3.47z" fill="#9eacb0"/><path d="m56.984 15.279c-.709-1.831-.264-2.736-1.58-3.655-.322.761.522 2.87 1.58 3.655z" fill="#b3c2c6"/><path d="m57.629 16.749c-.561-1.918-.054-2.798-1.279-3.833-.375.745.291 2.945 1.279 3.833z" fill="#9eacb0"/><path d="m58.152 18.292c-.406-1.996.161-2.847-.969-3.989-.429.723.067 3.004.969 3.989z" fill="#b3c2c6"/><path d="m58.367 19.082c.313-.732.559-2.06-.467-3.312-.478.695-.347 2.233.467 3.312z" fill="#9eacb0"/><path d="m46.275 10.261c-1.602-.443-2.225-1.306-3.578-.549.63.614 2.524.954 3.578.549z" fill="#b3c2c6"/><path d="m47.584 10.595c-1.502-.676-1.969-1.613-3.379-1.096.5.704 2.275 1.338 3.379 1.096z" fill="#9eacb0"/><path d="m48.826 11.114c-1.385-.881-1.694-1.865-3.139-1.582.37.766 2.001 1.655 3.139 1.582z" fill="#b3c2c6"/><path d="m49.98 11.801c-1.242-1.059-1.398-2.066-2.859-2.005.24.804 1.709 1.914 2.859 2.005z" fill="#9eacb0"/><path d="m51.029 12.646c-1.082-1.218-1.084-2.225-2.543-2.379.116.823 1.407 2.119 2.543 2.379z" fill="#b3c2c6"/><path d="m51.957 13.623c-.906-1.353-.76-2.331-2.186-2.694-.015.817 1.084 2.27 2.186 2.694z" fill="#9eacb0"/><path d="m50.952 11.759c-.14.799.745 2.374 1.792 2.956-.709-1.456-.42-2.391-1.792-2.956z" fill="#b3c2c6"/><path d="m53.373 15.909c-.498-1.539-.074-2.407-1.365-3.165-.254.758.402 2.432 1.365 3.165z" fill="#9eacb0"/><path d="m53.826 17.189c-.271-1.604.28-2.389-.902-3.323-.367.7.049 2.441.902 3.323z" fill="#b3c2c6"/><path d="m54.08 18.531c-.02-1.644.646-2.328-.402-3.43-.473.634-.311 2.411.402 3.43z" fill="#9eacb0"/><path d="m54.127 19.922c.241-1.66 1.008-2.229.122-3.488-.565.552-.669 2.337-.122 3.488z" fill="#b3c2c6"/><path d="m54.136 20.573c.395-.726 1.175-1.331.486-2.727-.647.454-.831 1.461-.486 2.727z" fill="#9eacb0"/><path d="m37.475 18.913c-1.299-.284-2.516-.024-3.822.009-.145.005-.209-.553-.033-.576.691-.092 2.83-.251 4.129.037z" fill="#cfd8dd"/><path d="m37.539 19.268c-1.021-.079-3.748 1.584-4.716 2.053-.133.063-.4-.45-.278-.532.755-.508 4.12-2.175 5.145-2.092z" fill="#cfd8dd"/><path d="m38.056 18.374c-.521-.634-1.565 1.303-.782 1.084.65 1.121 1.828-1.535.782-1.084z" fill="#b3c2c6"/><path d="m44.318 5.587c-1.299-.286-2.448-.073-3.666.396-.135.055-.381-.451-.227-.529 1.25-.645 2.305-.813 4.168-.397z" fill="#cfd8dd"/><path d="m44.354 5.272c-.494-.897-1.235-1.28-2.285-1.501-.146-.03-.043-.605.106-.593 1.278.091 2.185.891 2.737 1.903z" fill="#cfd8dd"/><path d="m44.922 4.694c-.523-.629-1.57 1.305-.785 1.084.654 1.123 1.831-1.535.785-1.084z" fill="#b3c2c6"/><path d="m43.184 9.401c-1.216-.537-3.082.003-4.311.455-.135.051.012.592.184.549.676-.168 2.814-.948 4.031-.41z" fill="#cfd8dd"/><path d="m43.021 9.677c-.926.436-1.787 1.104-2.431 1.964-.091.116.364.479.471.373.643-.646 1.371-1.417 2.301-1.85z" fill="#cfd8dd"/><path d="m43.136 10.482c-.792.197-.483-1.982.013-1.339 1.192-.519.565 2.32-.013 1.339z" fill="#b3c2c6"/><path d="m58.023 5.977c-6.01-6.005-13.576-5.87-14.898 5-.265 2.162-2.646 5.436-6.225 9.02-2.318 2.314-.758 4.303-1.74 5.565-1.4 1.8-3.112 3.471-1.65 4.928 1.457 1.464 3.127-.248 4.928-1.65 1.264-.983 3.25.577 5.564-1.737 3.584-3.582 6.855-5.961 9.018-6.226 10.873-1.327 11.009-8.892 5.003-14.9zm-2.728-.359c-.292.34-1.039-.311-.744-.647.293-.338 1.039.306.744.647zm3.735 3.831c-.341.294-.989-.451-.651-.747.34-.296.988.452.651.747zm-7.551-6.039c-.24.379-1.072-.154-.829-.534.242-.377 1.071.157.829.534zm9.644 9.941c-.381.242-.914-.592-.535-.834.378-.243.912.59.535.834zm-22.422 11.947c-1.477-1.476-1.917-3.989.159-6.067 4.905-4.905 5.241-7.055 5.521-8.835 1.404-8.965 6.766-7.823 11.905-2.683 5.141 5.141 6.28 10.499-2.685 11.906-1.777.28-3.928.611-8.831 5.521-2.079 2.075-4.59 1.635-6.069.158z" fill="#6e8189"/><path d="m34.305 29.694c-.317-.317-.158-1.112.795-2.068.955-.953 1.749-1.113 2.066-.795.318.317.158 1.113-.795 2.067-.953.953-1.748 1.115-2.066.796z" fill="#4e5e67"/><path d="m51.196 3.065c-.644-.166-1.011.691-1.109.937-.058.14.936.636 1.015.507.182-.307.281-1.392.094-1.444zm-.71.82c.154-.226.325-.407.57-.558.029.286-.016.532-.102.794-.136.01-.323-.065-.468-.236z" fill="#b3c2c6"/><path d="m54.973 5.324c-.191-.052-.945.212-1.145.56-.067.111.89.804.975.705.267-.302.359-1.213.17-1.265zm-.74.55c.167-.168.354-.293.608-.364.01.263-.051.478-.156.69-.134-.022-.319-.135-.452-.326z" fill="#b3c2c6"/><path d="m59.49 12.898c-.129.077.366 1.067.506 1.011.244-.096 1.104-.465.936-1.107-.049-.188-1.135-.088-1.442.096zm.389.145c.261-.086.506-.13.792-.1-.149.24-.331.413-.558.569-.173-.146-.246-.333-.234-.469z" fill="#b3c2c6"/><path d="m57.41 9.196c-.098.084.592 1.041.705.975.348-.203.613-.954.559-1.146-.051-.189-.963-.096-1.264.171zm.387.119c.215-.107.427-.166.693-.158-.074.253-.197.44-.364.607-.192-.13-.306-.316-.329-.449z" fill="#b3c2c6"/><path d="m37.487 24.575c-.007-.005.697 1.188 1.948 1.936.236-.02.575-.172.787-.23.019.038-1.773-.754-2.508-2.501-.058.213-.21.556-.227.795z" fill="#302c3b"/></svg>