<svg enable-background="new 0 0 64 64" height="64" viewBox="0 0 64 64" width="64" xmlns="http://www.w3.org/2000/svg" xmlns:xlink="http://www.w3.org/1999/xlink"><linearGradient id="a" gradientUnits="userSpaceOnUse" x1="22.001" x2="42.001" y1="16" y2="16"><stop offset="0" stop-color="#ff000e"/><stop offset=".7283" stop-color="#dd0004"/><stop offset="1" stop-color="#cf0000"/></linearGradient><linearGradient id="b"><stop offset="0" stop-color="#005687"/><stop offset=".2619" stop-color="#0b669b"/><stop offset=".7365" stop-color="#1c7fbb"/><stop offset="1" stop-color="#2289c7"/></linearGradient><linearGradient id="c" gradientUnits="userSpaceOnUse" x1="34.001" x2="54" xlink:href="#b" y1="16" y2="16"/><linearGradient id="d"><stop offset=".3333" stop-color="#eef2f5"/><stop offset=".647" stop-color="#e4e8ea"/><stop offset="1" stop-color="#d4d7d9"/></linearGradient><linearGradient id="e" gradientUnits="userSpaceOnUse" x1="28.001" x2="48.001" xlink:href="#d" y1="16" y2="16"/><linearGradient id="f" gradientUnits="userSpaceOnUse" x1="22.001" x2="40.001" xlink:href="#b" y1="16" y2="16"/><linearGradient id="g" gradientUnits="userSpaceOnUse" x1="10" x2="28.001" y1="16" y2="16"><stop offset="0" stop-color="#cf0000"/><stop offset=".2717" stop-color="#dd0004"/><stop offset="1" stop-color="#ff000e"/></linearGradient><radialGradient id="h" cx="25.001" cy="16" gradientUnits="userSpaceOnUse" r="11.7686" xlink:href="#d"/><radialGradient id="i" cx="44.3555" cy="43.7764" gradientTransform="matrix(.8081 -.8081 4.0406 4.0406 -180.7268 -95.0382)" gradientUnits="userSpaceOnUse" r="14"><stop offset=".1636" stop-color="#cfd8dd"/><stop offset=".3387" stop-color="#c9d3d8"/><stop offset=".5712" stop-color="#b8c4c9"/><stop offset=".8351" stop-color="#9dabb1"/><stop offset=".8667" stop-color="#99a8ae"/></radialGradient><radialGradient id="j" cx="44.3555" cy="43.7764" gradientTransform="matrix(.8081 .8081 -1.6162 1.6162 66.9098 -60.5975)" gradientUnits="userSpaceOnUse" r="11.9995"><stop offset=".1636" stop-color="#cfd8dd"/><stop offset=".3719" stop-color="#c9d3d8"/><stop offset=".6485" stop-color="#b8c4c9"/><stop offset=".9625" stop-color="#9dabb1"/><stop offset="1" stop-color="#99a8ae"/></radialGradient><path d="m36.001 2-14 28h6l14-28z" fill="url(#a)"/><path d="m48.001 2-14 28h5.999l14-28z" fill="url(#c)"/><path d="m42.001 2-14 28h6l14-28z" fill="url(#e)"/><path d="m43.001 28h-22s-1 0-1 1v7h2v-6h19s1 0 1 1v5h2v-7c0-1-1-1-1-1z" fill="#b3c2c6"/><path d="m28.001 2h-6l12 28h6z" fill="url(#f)"/><path d="m16.001 2h-6.001l12 28h6.001z" fill="url(#g)"/><path d="m28.001 30h6l-12-28h-6z" fill="url(#h)"/><ellipse cx="32" cy="46" fill="url(#i)" rx="16" ry="16"/><path d="m32 32.286c7.58 0 13.714 6.143 13.714 13.714s-6.134 13.714-13.714 13.714c-7.576 0-13.714-6.143-13.714-13.714s6.138-13.714 13.714-13.714z" fill="url(#j)"/><path d="m26.854 41.796h-.949c.211-.973.609-1.816 1.197-2.531.586-.714 1.322-1.271 2.207-1.668.886-.398 1.856-.597 2.911-.597.716 0 1.391.108 2.023.324.633.217 1.18.52 1.644.909.464.391.823.856 1.08 1.396s.386 1.112.386 1.715c0 .694-.205 1.446-.613 2.253-.408.808-1.137 1.764-2.188 2.867-1.051 1.105-2.455 2.357-4.217 3.755h6.178c.293 0 .512-.057.653-.169.142-.111.333-.36.571-.747h.977l-1.473 3.697h-11.955v-.603l2.999-2.225c1.449-1.073 2.594-2.049 3.433-2.925.84-.877 1.42-1.66 1.74-2.353.321-.69.482-1.376.482-2.056 0-.981-.333-1.791-.998-2.428s-1.525-.956-2.58-.956c-.807 0-1.526.208-2.16.626-.633.419-1.082.99-1.348 1.716z" fill="#6e8189"/></svg>