<svg enable-background="new 0 0 64 64" height="64" viewBox="0 0 64 64" width="64" xmlns="http://www.w3.org/2000/svg" xmlns:xlink="http://www.w3.org/1999/xlink"><radialGradient id="a" cx="26.56852354" cy="24.95422274" gradientUnits="userSpaceOnUse" r="34.26710502"><stop offset=".2727" stop-color="#e4f500"/><stop offset=".4734" stop-color="#e1f200"/><stop offset=".6367" stop-color="#d7ea00"/><stop offset=".7864" stop-color="#c6dc00"/><stop offset=".9273" stop-color="#aec900"/></radialGradient><circle cx="32" cy="32" fill="url(#a)" r="30"/><path d="m13.43 52.279c-.727 1.623-2.83.947-3.604-.52 1.216-1.077 1.183.497 3.604.52z" fill="#e81c27"/><path d="m10.067 51.922c5.542-12.545 7.574-27.227 3.73-42.529 5.601 14.408 2.912 30.572-3.73 42.529z" fill="#545909"/><path d="m10.974 11.74c1.929.529 1.098-1.375 3.586-2.254-1.625-1.228-3.754.817-3.586 2.254z" fill="#e81c27"/><path d="m14.066 10.523c-1.037-1.887 1.11-3.834 2.526-3.631.271 2.063-1.121.973-2.526 3.631z" fill="#e81c27"/><path d="m11.459 13.822c1.929.529 1.238-1.018 3.725-1.895-1.624-1.23-3.893.458-3.725 1.895z" fill="#e81c27"/><path d="m14.598 13.264c-1.037-1.887 1.11-3.832 2.527-3.633.271 2.064-1.121.973-2.527 3.633z" fill="#e81c27"/><path d="m12.002 17.141c1.861.748 1.347-.865 3.922-1.451-1.482-1.407-3.927.007-3.922 1.451z" fill="#e81c27"/><path d="m15.19 16.947c-.822-1.988 1.534-3.672 2.921-3.311.04 2.077-1.224.837-2.921 3.311z" fill="#e81c27"/><path d="m12.226 20.932c1.995 1.295 1.763-.688 4.888-.764-1.401-1.969-4.566-.908-4.888.764z" fill="#e81c27"/><path d="m16.034 21.527c-.972-2.35 1.812-4.338 3.449-3.91.048 2.453-1.446.988-3.449 3.91z" fill="#e81c27"/><path d="m12.374 24.572c2.186.783 3.411 1.979 4.454.988-1.3-2.355-3.489-2.371-4.454-.988z" fill="#e81c27"/><path d="m15.88 27.045c-.698-2.443 1.884-4.098 3.881-3.475-.235 2.44-1.553.811-3.881 3.475z" fill="#e81c27"/><path d="m12.068 29.807c1.692 1.617 2.337 3.207 3.695 2.746-.244-2.674-2.248-3.596-3.695-2.746z" fill="#e81c27"/><path d="m15.218 33.391c-.699-2.443 1.885-4.098 3.882-3.475-.234 2.439-1.555.813-3.882 3.475z" fill="#e81c27"/><path d="m15.263 37.693c-1.119-2.064-1.246-3.77-2.685-3.764-.591 2.604 1.042 4.11 2.685 3.764z" fill="#e81c27"/><path d="m14.443 38.205c.432-2.486 3.489-2.801 5.024-1.352-1.273 2.065-1.757.026-5.024 1.352z" fill="#e81c27"/><path d="m14.122 43.141c-1.116-2.064-1.244-3.77-2.683-3.764-.589 2.603 1.042 4.107 2.683 3.764z" fill="#e81c27"/><path d="m13.304 43.652c.433-2.488 3.49-2.803 5.025-1.354-1.273 2.065-1.758.026-5.025 1.354z" fill="#e81c27"/><path d="m13.024 46.891c-1.032-1.904-1.148-3.48-2.477-3.475-.546 2.404.961 3.795 2.477 3.475z" fill="#e81c27"/><path d="m16.901 47.066c-1.109 2.031-3.889 1.379-4.813-.342 1.725-1.41 1.555.51 4.813.342z" fill="#e81c27"/><path d="m11.785 50.014c-1.027-1.908-1.172-3.469-2.439-3.492-.473 2.369.997 3.777 2.439 3.492z" fill="#e81c27"/><path d="m15.493 50.27c-1.019 1.986-3.688 1.283-4.605-.441 1.618-1.358 1.494.536 4.605.441z" fill="#e81c27"/><path d="m10.523 51.926c-.875-1.65-1.05-2.977-2.041-3.045-.276 1.982.925 3.23 2.041 3.045z" fill="#e81c27"/><path d="m47.896 56.053c-20.092-15.406-4.207-38.137 4.826-44.816-9.784 3.257-26.583 32.208-4.826 44.816z" fill="#545909"/><g fill="#e81c27"><path d="m54.227 14.656c-1.102.078-.408-1.742-2.111-3.473.79-.98 2.306 1.454 2.111 3.473z"/><path d="m52.461 11.793c.373-1.631-1.494-3.643-2.652-2.775.25 1.941 1.154.257 2.652 2.775z"/><path d="m53.061 16.221c-1.313.127-.422-1.947-2.379-3.832.976-1.135 2.685 1.547 2.379 3.832z"/><path d="m51.07 13.061c.506-1.852-1.639-4.045-3.049-3.027 1.293 1.7 1.95 1.298 3.049 3.027z"/><path d="m51.006 18.186c-1.361.186-.492-1.984-2.576-3.842.982-1.207 2.83 1.482 2.576 3.842z"/><path d="m48.85 15.018c.475-1.922-1.541-3.646-3.25-2.988 1.168 1.691 2.064 1.38 3.25 2.988z"/><path d="m48.154 20.621c-1.451.523-.422-1.813-2.541-3.102 1.102-1.425 2.93.735 2.541 3.102z"/><path d="m46.023 18.023c.424-2.219-1.727-3.771-3.479-2.736 1.272 1.668 2.192 1.164 3.479 2.736z"/><path d="m45.727 23.688c-1.453.523-.422-1.813-2.543-3.102 1.103-1.424 2.931.734 2.543 3.102z"/><path d="m43.785 21.305c.063-2.527-2.592-3.846-4.33-2.379 1.703 1.607 2.625.881 4.33 2.379z"/><path d="m43.545 28.27c-1.561 1.131-.74-1.91-3.314-2.598 1.033-2.029 3.406-.242 3.314 2.598z"/><path d="m42.092 32.836c-1.119 1.674-1.314-1.604-3.977-1.344.332-2.363 3.155-1.472 3.977 1.344z"/><path d="m41.629 38.645c-1.119 1.674-1.314-1.602-3.977-1.344.332-2.363 3.155-1.471 3.977 1.344z"/><path d="m42.582 42.709c-.354 2.213-2.016-1.027-4.525.457-.733-2.553 2.453-2.939 4.525-.457z"/><path d="m39.607 53.609c-1.146-1.201 1.734-.828 2.229-3.082 1.951.661.422 2.86-2.229 3.082z"/><path d="m38.996 46.197c2.342.727.748 3.119-2.336 3.355-1.445-1.314 1.959-.898 2.336-3.355z"/><path d="m38.277 42.99c.32-2.438-2.514-1.984-4.016.729.589 1.863 1.635-1.41 4.016-.729z"/><path d="m37.969 37.586c.318-2.438-2.516-1.982-4.016.727.586 1.867 1.633-1.409 4.016-.727z"/><path d="m38.516 31.84c1.133-2.172-1.693-2.723-4.031-.703-.083 1.951 2.019-.756 4.031.703z"/><path d="m40.473 26.416c1.836-2.074-1.24-3.488-4.41-1.924-.583 2.129 2.488-.26 4.41 1.924z"/><path d="m44.902 49.449c-.73-1.209-1.063 1.248-3.014 1.156.112 1.756 2.247.979 3.014-1.156z"/><path d="m43.371 46.383c-.34-1.775-1.834 1.016-4.139.029-.65 2.147 2.264 2.18 4.139-.029z"/><path d="m42.525 56.539c-1.156-1.281 1.66-.795 2.061-3.1 1.92.749.512 2.963-2.061 3.1z"/><path d="m47.094 51.758c-.932-1.137-.766 1.428-2.641 1.604.447 1.781 2.328.691 2.641-1.604z"/><path d="m45.506 58.422c-1.137-.914 1.418-.93 1.584-2.955 1.777.346.701 2.447-1.584 2.955z"/><path d="m49.379 53.832c-.926-.826-.564 1.332-2.225 1.768.547 1.449 2.135.234 2.225-1.768z"/></g></svg>