<svg enable-background="new 0 0 64 64" height="64" viewBox="0 0 64 64" width="64" xmlns="http://www.w3.org/2000/svg" xmlns:xlink="http://www.w3.org/1999/xlink"><radialGradient id="a" cx="32" cy="32.9082" gradientUnits="userSpaceOnUse" r="38.3969"><stop offset=".3333" stop-color="#eef2f5"/><stop offset=".647" stop-color="#e4e8ea"/><stop offset="1" stop-color="#d4d7d9"/></radialGradient><path d="m58.96 27.923c-.781-5.012-5.547-10.132-9.01-17.307-.732-1.693-10.055-6.128-17.95-6.8-7.894.672-17.218 5.106-17.95 6.8-3.463 7.175-8.229 12.295-9.01 17.307-.293 1.882 1 16.694 4.723 19.47 1.41 1.051 7.955-3.736 8.336-5.541.393-1.863-3.051-7.398-3.771-11.108.809-1.665 2.861-3.17 3.449-6.609 1.027 5.374.527 10.319 4.08 13.544-2.055 3.172-4.578 14.082-7.484 19.969 2.296 3.948 9.748 4.352 17.627 4.352 7.878 0 15.331-.404 17.628-4.354-2.906-5.887-5.43-16.797-7.484-19.969 3.552-3.225 3.053-8.17 4.08-13.544.586 3.439 2.642 4.944 3.449 6.609-.72 3.71-4.165 9.245-3.771 11.108.381 1.805 6.926 6.592 8.335 5.541 3.723-2.774 5.016-17.586 4.723-19.468z" fill="url(#a)"/><path d="m14.769 11.597c-1.213-1.961 3.271 8.167 2.42 11.73-.205.86-1.977-3.237-1.535-1.571.719 2.722.125 10.306-4.582 2.055 1.834 7.553 6.059 15.25 5.455 16.982-2.238.658-6.732 4.004-6.908 4.891-.176.889-2.938-6.096-3.711-9.301.629 6.133 3.01 11.508 4.195 11.6 2.449.188 8.148-4.648 8.32-6.209.109-1.006-2.818-8.865-3.904-10.828 0 0 2.084-1.867 3.111-5.092.934 3.924-2.289 8.25 2.699 10.75.432.047 2.359 2.492.385 2.74-1.795 1.439-3.363 10.334-7.574 17.254.412 1.699 3.76 3.879 6.41 4.342-5.967-2.801-.283-21.049 5.857-20.709 7.542-3.01.296-1.977-3.521-5.535-4.873-4.542.234-11.208-7.117-23.099z" fill="#cfd8dd"/><path d="m49.231 11.597c1.212-1.961-3.271 8.167-2.422 11.73.207.86 1.979-3.237 1.537-1.571-.719 2.722-.126 10.306 4.582 2.055-1.834 7.553-6.06 15.25-5.455 16.982 2.238.658 6.732 4.004 6.908 4.891.176.889 2.937-6.096 3.711-9.301-.629 6.133-3.01 11.508-4.195 11.6-2.45.188-8.148-4.648-8.319-6.209-.11-1.006 2.817-8.865 3.902-10.828 0 0-2.083-1.867-3.11-5.092-.934 3.924 2.289 8.25-2.7 10.75-.431.047-2.358 2.492-.383 2.74 1.794 1.439 3.362 10.334 7.573 17.254-.412 1.699-3.76 3.879-6.41 4.342 5.966-2.801.283-21.049-5.857-20.709-7.541-3.01-.297-1.977 3.521-5.535 4.873-4.542-.234-11.208 7.117-23.099z" fill="#cfd8dd"/><path d="m10.099 47.256c1.412-2.459 5.088-3.648 7.473-5.623-.757 2.283-6.212 6.14-7.473 5.623z" fill="#6e8189"/><path d="m53.901 47.256c-1.412-2.459-5.088-3.648-7.473-5.623.757 2.283 6.212 6.14 7.473 5.623z" fill="#6e8189"/><path d="m37.462 2s3.016 4.05-5.463 11.814c-8.477-7.762-5.46-11.814-5.46-11.814z" fill="#99a8ae"/><path d="m37.462 5.789s3.016 4.051-5.463 11.814c-8.477-7.762-5.46-11.814-5.46-11.814z" fill="#6e8189"/><path d="m33.653 14.715c-3.927-5.129-7.34-8.094-7.114-12.715-1.11.867-2.438 1.935-3.466 4.463 0 5.367 3.078 8.609 6.538 13.432 1.344-1.725 2.527-3.602 4.042-5.18z" fill="#cfd8dd"/><path d="m20.2 61.781c-1.84-45.213 17.804-48.672 17.262-59.781 1.109.867 2.438 1.935 3.467 4.463 0 12.896-18.281 15.367-16.438 55.225-2.056.312-4.291.093-4.291.093z" fill="#cfd8dd"/><path d="m43.419 36.639c-1.261.398-6.539.881-11.419.881s-10.159-.482-11.419-.881c-.793-.252-1.012 2.715-.586 3.238.947 1.166 6.813 1.389 12.005 1.389s11.058-.223 12.006-1.389c.425-.523.206-3.49-.587-3.238z" fill="#302c3b"/><path d="m33.896 38.998c2.811-.676 5.582 6.785 6.096 8.824.514 2.041-.5 6.105.549 11.111.123.59-4.415.336-4.491-.209-.837-6.066.446-9.143.142-10.787s-1.307-7.167-2.296-8.939z" fill="#cfd8dd"/><path d="m31.948 40.35c-2.816-.574-5.51 5.43-6.002 7.074-.492 1.643.562 4.939-.436 8.975-.116.479 4.417.318 4.487-.121.774-4.896-.54-7.396-.252-8.723.286-1.326 1.233-5.782 2.203-7.205z" fill="#cfd8dd"/><g fill="#302c3b"><path d="m33.206 37.938c2.668-1.111 6.586 5.816 7.416 7.75.83 1.932.473 6.107 2.3 10.883.216.564-4.306 1.031-4.467.506-1.787-5.859-1.007-9.098-1.567-10.674-.56-1.577-2.424-6.872-3.682-8.465z"/><path d="m28.76 40.252c1.172 1.488 3.889 2.258 5.512.158.779-1.01-6.063-.857-5.512-.158z"/><path d="m31.53 38.178c-3-.715-6.43 5.613-7.104 7.354s.187 5.305-1.237 9.586c-.168.506 4.758.496 4.87.027 1.257-5.209.047-7.93.472-9.338.423-1.409 1.827-6.141 2.999-7.629z"/><path d="m28.739 38.67c.756-1.32.385-1.893 1.205-2.07.818-.176 1.942-.105 3.982 1.486.98.766.048 2.771-.532 2.32-2.413-1.881-5.009-1.115-4.655-1.736z"/></g><path d="m28.825 38.896c-1.078-.986 3.537-.195 5.131 1.645.299.346-2.6-1.25-5.131-1.645z" fill="#1a1626"/><path d="m36.209 39.141c-.104-1.457 4.921 5.615 4.811 8.047-.892-3.084-3.248-6.018-4.811-8.047z" fill="#1a1626"/><path d="m28.451 47.078c-.752-1.885.435-4.393 2.651-7.912 1.393-.01-2.378 3.844-2.651 7.912z" fill="#1a1626"/><path d="m35.89 37.217c1.039.863 1.926 4.965-.727 4.602-.607-.085 1.119-2.432.727-4.602z" fill="#1a1626"/><path d="m32 41.699c2.223-.246 3.22.475 3.89-.232.67-.703 1.155-1.781 0-4.25-.555-1.186-3.793-1.207-3.807-.303.732 1.053.297 3.135-.083 4.785z" fill="#302c3b"/><path d="m32.083 36.914c.578-1.291 1.654 4.809-.083 4.785.483-.892.538-2.373.083-4.785z" fill="#1a1626"/></svg>