<svg enable-background="new 0 0 64 64" height="64" viewBox="0 0 64 64" width="64" xmlns="http://www.w3.org/2000/svg" xmlns:xlink="http://www.w3.org/1999/xlink"><linearGradient id="a"><stop offset="0" stop-color="#cfd8dd"/><stop offset="1" stop-color="#99a8ae"/></linearGradient><linearGradient id="b" gradientUnits="userSpaceOnUse" x1="5" x2="59" xlink:href="#a" y1="54.9844" y2="54.9844"/><linearGradient id="c" gradientUnits="userSpaceOnUse" x1="7" x2="57" y1="43.5195" y2="43.5195"><stop offset="0" stop-color="#ff000e"/><stop offset=".7283" stop-color="#dd0004"/><stop offset="1" stop-color="#cf0000"/></linearGradient><linearGradient id="d" gradientUnits="userSpaceOnUse" x1="5" x2="59" xlink:href="#a" y1="33.3057" y2="33.3057"/><linearGradient id="e"><stop offset="0" stop-color="#fdd674"/><stop offset="1" stop-color="#e6b53c"/></linearGradient><linearGradient id="f" gradientTransform="matrix(-.7071 .7071 -.7071 -.7071 271.712 67.7256)" gradientUnits="userSpaceOnUse" x1="143.2559" x2="145.2256" xlink:href="#e" y1="217.5752" y2="217.5752"/><linearGradient id="g" gradientUnits="userSpaceOnUse" x1="30.7539" x2="28.6426" xlink:href="#e" y1="28.645" y2="30.7564"/><linearGradient id="h" gradientTransform="matrix(.5299 .848 .848 -.5299 442.4045 81.6736)" gradientUnits="userSpaceOnUse" x1="-269.7949" x2="-267.8252" xlink:href="#e" y1="-299.9468" y2="-299.9468"/><linearGradient id="i" gradientTransform="matrix(-.9744 -.225 -.225 .9744 729.1024 76.0869)" gradientUnits="userSpaceOnUse" x1="695.1494" x2="693.0381" xlink:href="#e" y1="104.7275" y2="106.8388"/><path d="m32 58.259s-21.094-.624-27-10.29v5.613s2.898 8.418 27 8.418c24.1 0 27-8.418 27-8.418v-5.613c-5.906 9.666-27 10.29-27 10.29z" fill="url(#b)"/><path d="m32 37.678c-14.913 0-27 4.606-27 10.291 0 5.683 12.087 10.29 27 10.29 14.911 0 27-4.607 27-10.29 0-5.684-12.089-10.291-27-10.291z" fill="#e6ebef"/><path d="m7 42.715v6.123s2.684 7.455 25 7.455c22.314 0 25-7.455 25-7.455v-6.123c-5.469 8.95-44.531 8.95-50 0z" fill="#ad1211"/><path d="m7 33.291v13s2.684 7.456 25 7.456c22.314 0 25-7.456 25-7.456v-13z" fill="url(#c)"/><path d="m7 29.357v7.223s2.684 5.769 25 5.769c22.314 0 25-5.769 25-5.769v-7.223c-5.469 8.951-44.531 8.951-50 0z" fill="#ad1211"/><path d="m32 36.58s-21.094-.624-27-10.29v5.613s2.898 8.418 27 8.418c24.1 0 27-8.418 27-8.418v-5.613c-5.906 9.666-27 10.29-27 10.29z" fill="url(#d)"/><path d="m32 16c-14.913 0-27 4.606-27 10.29s12.087 10.29 27 10.29c14.911 0 27-4.606 27-10.29 0-5.683-12.089-10.29-27-10.29z" fill="#e6ebef"/><path d="m32 18.776c13.066 0 23.81 3.489 25.074 7.959.083-.291.126-.585.126-.885 0-4.884-11.283-8.843-25.2-8.843-13.919 0-25.2 3.958-25.2 8.843 0 .3.043.594.126.885 1.263-4.469 12.006-7.959 25.074-7.959z" fill="#99a8ae"/><path d="m32 34.693c13.066 0 23.81-3.489 25.074-7.958-1.264-4.469-12.008-7.959-25.074-7.959-13.068 0-23.811 3.489-25.074 7.959 1.263 4.469 12.006 7.958 25.074 7.958z" fill="#fff"/><path d="m39.276 57.966v1.466c0 1.119 3.697 1.119 3.697 0v-1.466z" fill="#99a8ae"/><ellipse cx="41.125" cy="57.966" fill="#e6ebef" rx="1.849" ry=".695"/><path d="m40.625 39.935v17.99c0 .305 1 .305 1 0v-17.99z" fill="#6e8189"/><path d="m39.276 38.594v1.467c0 1.117 3.697 1.117 3.697 0v-1.467z" fill="#99a8ae"/><ellipse cx="41.125" cy="38.594" fill="#e6ebef" rx="1.849" ry=".695"/><path d="m21.026 57.966v1.466c0 1.119 3.697 1.119 3.697 0v-1.466z" fill="#99a8ae"/><ellipse cx="22.875" cy="57.966" fill="#e6ebef" rx="1.849" ry=".695"/><path d="m22.375 39.935v17.99c0 .305 1 .305 1 0v-17.99z" fill="#6e8189"/><path d="m21.026 38.594v1.467c0 1.117 3.697 1.117 3.697 0v-1.467z" fill="#99a8ae"/><ellipse cx="22.875" cy="38.594" fill="#e6ebef" rx="1.849" ry=".695"/><path d="m53.651 53.85v1.466c0 1.119 3.697 1.119 3.697 0v-1.466z" fill="#99a8ae"/><ellipse cx="55.5" cy="53.85" fill="#e6ebef" rx="1.849" ry=".695"/><path d="m55 35.818v17.99c0 .305 1 .305 1 0v-17.99z" fill="#6e8189"/><path d="m53.651 34.478v1.467c0 1.117 3.697 1.117 3.697 0v-1.467z" fill="#99a8ae"/><ellipse cx="55.5" cy="34.478" fill="#e6ebef" rx="1.849" ry=".695"/><path d="m6.651 53.85v1.466c0 1.119 3.697 1.119 3.697 0v-1.466z" fill="#99a8ae"/><ellipse cx="8.5" cy="53.85" fill="#e6ebef" rx="1.849" ry=".695"/><path d="m8 35.818v17.99c0 .305 1 .305 1 0v-17.99z" fill="#6e8189"/><path d="m6.651 34.478v1.467c0 1.117 3.697 1.117 3.697 0v-1.467z" fill="#99a8ae"/><ellipse cx="8.5" cy="34.478" fill="#e6ebef" rx="1.849" ry=".695"/><path d="m2.234 3.627c-.789-.789.604-2.181 1.392-1.393 12.938 12.94 26.315 26.626 26.315 26.626l-1.084 1.082s-13.683-13.375-26.623-26.315z" fill="url(#f)"/><path d="m28.25 30.364c-1.535-1.538.576-3.649 2.111-2.111 2.584 2.582.473 4.692-2.111 2.111z" fill="url(#g)"/><g fill="#302c3b"><path d="m14.134 13.271c.236.241.234.628-.007.865s-.632.232-.868-.009c-.237-.241-.235-.629.007-.866.241-.235.629-.231.868.01zm.145-.144c-.316-.322-.836-.328-1.158-.012-.323.316-.327.832-.009 1.154.317.321.836.327 1.158.012.323-.314.327-.832.009-1.154z"/><path d="m13.752 13.873c-.021-.02-.02-.039 0-.059l.059-.057c.019-.019.038-.02.059 0l.186.191c.02.018.02.038-.001.057l-.028.028c-.186.181-.483.177-.668-.006-.088-.092-.134-.211-.134-.336 0-.026.014-.04.042-.039l.123.001c.027 0 .041.013.041.041-.002.07.025.137.074.188.085.084.21.102.312.052z"/><path d="m15.23 14.084-.003.219c.001.009-.007.017-.014.016l-.221-.003c-.01.001-.018-.006-.017-.015l.002-.22c0-.009.007-.016.016-.016l.22.002c.011.002.017.008.017.017z"/><path d="m16.546 16.038c.155.158.15.419-.021.588-.174.169-.436.168-.592.011-.09-.092-.12-.198-.102-.301l-.292.285c-.015.016-.035.015-.052-.001l-.071-.073c-.018-.017-.018-.037 0-.053l.764-.745c.018-.018.036-.018.053 0l.07.073c.018.018.017.036 0 .053l-.057.055c.105-.015.21.015.3.108zm-.514.461c.103.104.26.106.367.001.109-.104.11-.26.007-.366-.103-.105-.259-.107-.368 0-.109.104-.109.261-.006.365zm.3.513c-.017-.017-.016-.035-.001-.052l.532-.518c.017-.017.036-.017.053.001l.071.073c.017.017.018.035 0 .052l-.53.517c-.017.017-.036.017-.053 0zm.666.612c-.008.03-.028.035-.05.015l-.075-.077c-.013-.014-.017-.03-.014-.049l.065-.287-.289.06c-.019.005-.035 0-.049-.013l-.074-.078c-.021-.021-.017-.042.015-.048l.437-.091.094-.406c.006-.029.029-.033.049-.012l.075.075c.013.015.02.03.015.049l-.061.259.262-.055c.019-.005.034.001.048.015l.075.077c.021.02.015.042-.014.048l-.411.085zm.872-.243c.171.176.144.426-.025.591-.009.009-.018.017-.028.025-.02.015-.037.012-.052-.004l-.429-.432c-.077.112-.055.229.031.318.055.056.124.079.181.072.019 0 .033.003.048.016l.074.075c.018.02.018.041-.007.049-.136.05-.288.011-.404-.108-.183-.187-.171-.435.003-.606.174-.169.428-.177.608.004zm-.43.076.331.338c.083-.113.057-.227-.017-.303-.092-.093-.209-.103-.314-.035zm.209.892c-.017-.017-.018-.037 0-.052l.787-.77c.016-.016.034-.017.052.001l.072.074c.016.016.018.035-.001.052l-.787.768c-.017.017-.036.017-.053 0zm.729-.095c-.117.114.286.354.063.571-.115.112-.278.075-.405-.053-.118-.12-.153-.271-.056-.392.017-.018.036-.017.054 0l.07.072c.016.015.014.032.006.05-.034.052-.012.109.039.16.061.061.124.083.168.039.115-.115-.285-.357-.063-.572.113-.112.278-.075.396.045.108.109.144.259.044.38-.016.019-.036.017-.053 0l-.07-.073c-.017-.014-.014-.03-.003-.05.031-.05.011-.105-.031-.146-.053-.054-.116-.076-.159-.031z"/><path d="m14.933 14.431c.016.016.017.035-.001.052l-.581.567c-.151.148-.296.15-.434.008-.017-.017-.016-.037 0-.051l.069-.069c.017-.017.035-.015.053.001.06.055.117.054.189-.015l.58-.568c.016-.017.035-.015.052.001zm-.196.992c-.169-.17-.169-.437.003-.605.174-.17.441-.164.609.008.168.167.171.438-.004.606-.173.17-.441.163-.608-.009zm.122-.118c.101.101.258.104.363.001.106-.104.106-.26.005-.362-.101-.103-.257-.105-.364-.001-.105.103-.104.259-.004.362zm1.15.26c.02-.008.037-.004.052.011l.077.08c.019.019.018.038-.008.05l-1.023.484c-.021.011-.036.006-.052-.009l-.079-.08c-.019-.018-.016-.04.01-.05l.28-.134.335-.748c.013-.026.032-.027.05-.01l.079.079c.014.015.019.032.009.05l-.234.521z"/></g><path d="m61.627 3.795c.947-.591-.098-2.262-1.043-1.67-15.518 9.698-31.631 20.023-31.631 20.023l.814 1.299c.001 0 16.342-9.955 31.86-19.652z" fill="url(#h)"/><path d="m30.264 23.995c1.842-1.153.26-3.685-1.582-2.532-3.1 1.933-1.516 4.466 1.582 2.532z" fill="url(#i)"/><path d="m42.996 13.556c.289-.176.666-.087.842.201s.084.668-.205.844c-.287.177-.664.088-.842-.201-.174-.288-.084-.665.205-.844zm-.107-.174c-.385.236-.506.741-.271 1.126.236.386.736.506 1.123.268.385-.237.506-.741.271-1.125-.235-.386-.739-.506-1.123-.269z" fill="#302c3b"/><path d="m43.496 14.063c-.023.015-.041.01-.057-.013l-.041-.07c-.014-.022-.01-.042.014-.057l.229-.138c.021-.015.039-.011.055.014l.021.034c.135.222.063.511-.156.649-.109.064-.236.083-.357.055-.027-.006-.037-.022-.029-.05l.029-.119c.006-.027.021-.038.049-.031.068.018.139.006.201-.03.1-.064.145-.182.119-.292z" fill="#302c3b"/><path d="m44.035 12.67.213.053c.01.001.016.01.014.017l-.053.214c-.002.01-.01.016-.02.013l-.213-.051c-.01-.002-.014-.01-.012-.019l.051-.214c.005-.009.012-.015.02-.013z" fill="#302c3b"/><path d="m46.234 11.828c.189-.116.443-.052.568.153.127.207.066.462-.121.579-.111.067-.221.073-.316.031l.213.348c.012.019.006.038-.014.051l-.088.053c-.02.014-.039.009-.051-.012l-.555-.912c-.012-.021-.008-.039.012-.051l.088-.052c.021-.013.039-.008.051.012l.041.067c.008-.104.063-.2.172-.267zm.334.604c.125-.076.162-.229.084-.357-.078-.13-.229-.166-.355-.089-.125.076-.162.228-.084.358s.23.166.355.088zm.569-.176c-.021.012-.039.007-.051-.011l-.387-.635c-.012-.02-.008-.039.014-.051l.088-.053c.02-.013.037-.009.051.011l.385.633c.012.02.008.04-.012.052zm.744-.512c.027.015.029.036.004.052l-.092.056c-.016.01-.033.009-.051.002l-.266-.128-.006.295c0 .02-.008.034-.023.044l-.094.055c-.023.015-.043.007-.043-.025l.01-.446-.375-.183c-.027-.012-.025-.036-.002-.05l.092-.056c.018-.009.033-.012.051-.003l.238.117.006-.267c0-.019.01-.033.025-.043l.092-.056c.023-.017.043-.005.043.024l-.01.42zm-.039-.904c.209-.127.447-.044.57.158.006.01.012.021.018.033.01.022.004.039-.016.05l-.518.32c.092.101.211.105.318.041.066-.041.104-.103.109-.16.004-.018.012-.031.027-.043l.09-.055c.023-.013.045-.008.047.017.018.144-.055.284-.197.37-.223.136-.463.069-.59-.139s-.075-.458.142-.592zm-.024.435.404-.247c-.092-.106-.209-.105-.299-.051-.11.07-.146.182-.105.298zm.916-.002c-.02.012-.039.009-.051-.012l-.572-.94c-.012-.019-.008-.038.014-.051l.088-.054c.018-.012.037-.009.049.013l.572.94c.012.02.008.039-.012.051zm.073-.731c.086.14.41-.2.57.067.084.138.012.288-.141.383-.145.088-.301.088-.396-.034-.014-.021-.008-.04.012-.052l.086-.053c.018-.012.035-.006.051.006.043.044.104.035.164-.002.072-.045.109-.103.076-.155-.086-.138-.412.198-.572-.067-.084-.136-.01-.288.133-.375.131-.081.285-.082.381.043.014.02.008.039-.012.051l-.088.052c-.018.013-.033.007-.049-.008-.043-.042-.1-.035-.15-.003-.065.038-.099.094-.065.147z" fill="#302c3b"/><path d="m44.307 13.039c.02-.012.039-.008.051.012l.422.694c.109.181.078.322-.09.424-.02.013-.039.007-.051-.011l-.051-.083c-.014-.02-.006-.038.012-.051.068-.045.08-.102.029-.188l-.424-.692c-.012-.02-.006-.038.014-.05zm.922.413c-.203.126-.463.066-.588-.139-.127-.208-.061-.467.145-.592.201-.126.465-.068.59.14.124.208.058.467-.147.591zm-.086-.145c.121-.075.158-.228.082-.354-.076-.127-.229-.162-.352-.086-.123.075-.16.226-.084.354.078.126.229.16.354.086zm.511-1.062c-.004-.021.004-.037.021-.047l.096-.058c.021-.014.041-.008.047.02l.242 1.105c.006.022-.002.037-.021.049l-.096.059c-.021.014-.041.006-.045-.021l-.068-.303-.652-.495c-.023-.018-.021-.038 0-.051l.096-.059c.018-.01.035-.011.051.002l.455.346z" fill="#302c3b"/></svg>