<svg enable-background="new 0 0 64 64" height="64" viewBox="0 0 64 64" width="64" xmlns="http://www.w3.org/2000/svg" xmlns:xlink="http://www.w3.org/1999/xlink"><linearGradient id="a" gradientTransform="matrix(.7071 .7071 -.7071 .7071 103.8789 78.2386)" gradientUnits="userSpaceOnUse" x1="-103.1851" x2="-66.4824" y1="17.479" y2="17.479"><stop offset="0" stop-color="#dea252"/><stop offset="1" stop-color="#c98730"/></linearGradient><linearGradient id="b"><stop offset="0" stop-color="#ffebc2"/><stop offset="1" stop-color="#ffebc2" stop-opacity="0"/></linearGradient><radialGradient id="c" cx="331.8291" cy="89.335" gradientTransform="matrix(-.2699 .481 -.4167 -.2131 164.3089 -122.1876)" gradientUnits="userSpaceOnUse" r="26.6515" xlink:href="#b"/><radialGradient id="d" cx="386.0879" cy="92.9004" gradientTransform="matrix(-.2699 .481 -.4167 -.2131 159.7387 -124.5252)" gradientUnits="userSpaceOnUse" r="26.6523" xlink:href="#b"/><path d="m36.025 45.392c-8.593 23.772-27.272 14.284-28.627 11.902-13.432-23.607 6.328-29.39 11.393-35.442 11.588-24.415 24.272-20.425 41.201-13.673 7.143 30.827-21.707 30.976-23.967 37.213z" fill="url(#a)"/><g fill="#e6aa57"><path d="m7.89 31.476c.393 13.802 8.787 21.905 22.672 23.882.973.137 2.531-1.81 1.559-1.944-12.631-1.801-22.051-10.008-22.352-23.649-.023-1.041-1.918.426-1.879 1.711z"/><path d="m3.341 40.109c.525 7.99 9.584 18.143 22.356 19.431 1.211.121 3.051-1.3 1.834-1.417-12.68-1.284-22.471-12.173-23.412-20.972-.203-1.896-.895 1.166-.778 2.958z"/><path d="m14.476 26.272c-1.406 10.638 11.569 23.292 20.5 22.069.613-.083 1.389-2.295.771-2.21-8.322 1.14-20.932-10.251-19.426-21.615.147-1.094-1.675.484-1.845 1.756z"/><path d="m21.445 16.228c-1.609 12.689 5.143 22.041 18.483 26.439 1.246.413 2.682-1.359 2.088-1.523-12.428-3.51-20.403-15.745-18.612-27.267.07-.444-1.756.757-1.959 2.351z"/><path d="m25.412 10.682c6.541 7.892 8.77 23.314 24.779 26.446 1.313.256 2.645-1.532 2.045-1.634-14.918-2.496-18.359-18.424-25.113-26.763-.465-.572-2.108 1.475-1.711 1.951z"/><path d="m32.432 4.391c-1.258-.476-2.744 1.6-2.146 1.747 11.284 2.798 13.146 19.951 25.562 26.307.545.278 2.076-1.68 1.529-1.961-11.006-5.692-12.535-21.4-24.945-26.093z"/><path d="m41.68 2.541c-1.686-.9-4.041.148-3.455.395 13.785 5.787 13.465 14.794 21.047 23.92.396.474 1.441-1.681.945-2.216-7.311-7.874-3.004-13.802-18.537-22.099z"/><path d="m52.811 5.507c-21.084.553-24.172 11.968-32.302 17.993-13.338 9.886-18.656 19.434-14.205 31.894.203.57 1.594 3.091 1.258 1.575-3.469-15.597 1.854-21.814 13.988-31.572 8.364-6.727 15.5-19.88 33.678-18.645 1.264.088-1.013-1.278-2.417-1.245z"/><path d="m58.188 7.748c-20.279 4.941-29.051 19.181-32.781 21.115-12.476 6.483-16.144 19.66-17.925 28.556-.123.617 1.678 1.395 1.801.774 1.686-8.419 5.51-21.253 17.112-27.285 3.994-2.075 13.644-16.418 33.685-21.948.592-.163.152-1.713-1.892-1.212z"/><path d="m59.686 7.963c-8.33 16.804-27.832 22.092-31.113 27.75-5.097 8.793-14.22 19.218-21.013 21.613-.586.212 1.158 1.79 1.746 1.579 9.285-3.276 18.594-17.594 21.168-22.037 2.982-5.136 21.49-8.16 29.834-27.214.217-.499-.337-2.266-.622-1.691z"/><path d="m60.033 11.643c-3.013 17.759-14.203 21.971-24.381 27.872-3.494 2.024-9.004 18.501-25.09 19.661-.609.042 1.082.828 1.695.854 15.411.663 21.479-16.468 24.438-18.508 10.406-7.171 21.322-9.867 23.863-26.332.229-1.49-.417-4.165-.525-3.547z"/><path d="m60.852 7.907c7.24 31.251-22.018 32.267-23.996 37.735-8.899 24.61-28.599 14.939-30.239 12.06-14.617-25.672 10.023-32.923 11.408-36.077 14.227-32.431 32.639-15.035 42.03-14.408.369.027.732.43.797.69zm-25.666 37.121c2.572-7.122 30.551-6.403 24.068-36.069-9.268-1.334-26.77-16.164-39.653 13.491-1.506 3.469-25.443 11.075-11.439 34.324 1.091 1.714 18.711 11.236 27.024-11.746z"/></g><path d="m30.091 31.679c-16.834-8.609-1.923-35.176 14.901-26.564 16.832 8.608 1.925 35.175-14.901 26.564z" fill="url(#c)" opacity=".3"/><path d="m9.392 54.683c-16.834-8.609-1.923-35.176 14.902-26.566 16.831 8.61 1.925 35.176-14.902 26.566z" fill="url(#d)" opacity=".3"/></svg>