<svg enable-background="new 0 0 64 64" height="64" viewBox="0 0 64 64" width="64" xmlns="http://www.w3.org/2000/svg" xmlns:xlink="http://www.w3.org/1999/xlink"><radialGradient id="a" cx="-14.5981" cy="-9.6055" gradientTransform="matrix(.7071 .7071 -3.1364 3.1364 6.9825 77.5272)" gradientUnits="userSpaceOnUse" r="9.3617"><stop offset="0" stop-color="#ffac30"/><stop offset=".2064" stop-color="#fba62c"/><stop offset=".4782" stop-color="#ef9621"/><stop offset=".7851" stop-color="#dc7a0f"/><stop offset="1" stop-color="#cc6300"/></radialGradient><path d="m44 18.511s-3.875 6.664-8.625 7.702l2.313 3.913s3.623-6.75 7.844-9.125z" fill="#529320"/><path d="m40.665 32.072c2.851-2.227 3.224-6.18.83-8.832-2.392-2.653-6.646-3-9.495-.773z" fill="#529320"/><path d="m32.975 20c-5.904 0-15.787 18.791-20.939 24.473-5.015 5.526-10.036 15.226-10.036 17.37 0 .902 8.309-2.202 12.484-6.431 4.179-4.226 29.516-18.158 29.516-25.148 0-4.174-6.348-10.264-11.025-10.264z" fill="url(#a)"/><g fill="#d46a06"><path d="m30.25 29.363s7.402 5.793 5.384 9.691c2.94-1.806.328-7.202-5.384-9.691z"/><path d="m21.286 37.993s6.482 5.073 4.715 8.487c2.575-1.581.287-6.308-4.715-8.487z"/><path d="m11.1 48.622s5.076 2.564 3.514 5.975c2.149-2.063.467-5.483-3.514-5.975z"/><path d="m5.394 54.699s4.162 2.329 3.297 4.604c1.451-1.256-.184-3.859-3.297-4.604z"/><path d="m38.23 29.758s-5.792-7.401-9.691-5.384c1.807-2.94 7.203-.327 9.691 5.384z"/><path d="m28.605 39.159s-5.074-6.482-8.488-4.715c1.582-2.575 6.309-.287 8.488 4.715z"/><path d="m18.794 48.574s-2.565-5.076-5.974-3.514c2.062-2.15 5.482-.466 5.974 3.514z"/><path d="m11.599 55.177s-1.857-3.843-4.46-2.593c1.593-1.68 4.152-.446 4.46 2.593z"/></g><path d="m61.882 8.26c.703-.656-1.897-.648-3.397-.648-1.299-.001 1.515-3.612.515-3.612-1.115 0-3.83 3.977-4.193 3.768-.369-.209.849-5.768-.067-5.768-.825 0-3.152 6.42-3.646 7.268-.494.846-1.121-6.002-1.754-5.418-.777.717-.652 6.998-1.359 6.349-.453-.417-1.76-4.155-2.64-4.155-.474 0 .456 8.575-.62 7.072-1.074-1.506-1.572-4.436-2.347-4.436-.696 0-.394 13.32.681 13.32 2.51 0 12.736-.836 13.088-1.439.35-.605-4.121-.593-4.974-1.08-.854-.49 8.272-1.183 8.029-2.09-.247-.906-6.097-1.804-4.94-2.108 1.164-.316 6.742-2.594 6.742-3.283 0-.794-5.93-.268-4.816-.92 1.111-.653 4.689-1.874 5.698-2.82z" fill="#529320"/><path d="m55.208 17.016-6.858.832s.811-1.952 6.858-.832z" fill="#7ab51d"/><path d="m44.127 21 12.215-12.389c-7.084 3.737-12.215 12.389-12.215 12.389z" fill="#297124"/><path d="m43.072 14.807 1.705 3.633c0-.002 1.642-.829-1.705-3.633z" fill="#7ab51d"/><path d="m46.545 18.826s-.475 1.684 4.008 1.316z" fill="#7ab51d"/><path d="m46.963 10.021.363 5.416c0 .001 1.89-.791-.363-5.416z" fill="#7ab51d"/><path d="m49.105 8.287.361 4.15c.003.001 1.891-.605-.361-4.15z" fill="#7ab51d"/><path d="m51.436 14.738 5.576-1.539c-5.428-.39-5.576 1.539-5.576 1.539z" fill="#7ab51d"/></svg>