<svg enable-background="new 0 0 64 64" height="64" viewBox="0 0 64 64" width="64" xmlns="http://www.w3.org/2000/svg" xmlns:xlink="http://www.w3.org/1999/xlink"><radialGradient id="a" cx="20.4233" cy="-30.0654" gradientTransform="matrix(.7073 .7071 -.7073 .7071 7.23 35.8451)" gradientUnits="userSpaceOnUse" r="27.2624"><stop offset=".4424" stop-color="#356628"/><stop offset=".6257" stop-color="#305e24"/><stop offset=".9075" stop-color="#224918"/><stop offset="1" stop-color="#1d4013"/></radialGradient><radialGradient id="b" cx="98.7471" cy="-47.4385" gradientTransform="matrix(.6675 .6679 -1.6118 1.6129 -110.3375 39.1394)" gradientUnits="userSpaceOnUse" r="27.4291"><stop offset=".1576" stop-color="#fdf286"/><stop offset=".3958" stop-color="#edee75"/><stop offset=".8648" stop-color="#c3e24a"/><stop offset=".9394" stop-color="#bce042"/></radialGradient><radialGradient id="c" cx="4.498" cy="-18.9229" gradientTransform="matrix(.7073 .7071 -1.0864 1.0861 .056 43.0185)" gradientUnits="userSpaceOnUse" r="12.6607"><stop offset="0" stop-color="#e6a157"/><stop offset=".129" stop-color="#db974f"/><stop offset=".3564" stop-color="#bd7b3a"/><stop offset=".6535" stop-color="#8e4e18"/><stop offset=".7758" stop-color="#783a09"/><stop offset="1" stop-color="#542906"/></radialGradient><radialGradient id="d" cx="553.7705" cy="53.7178" gradientTransform="matrix(.3583 .4654 -.5999 .4619 -147.4859 -260.0267)" gradientUnits="userSpaceOnUse" r="22.7776"><stop offset="0" stop-color="#fff" stop-opacity=".2"/><stop offset=".7636" stop-color="#fff" stop-opacity="0"/></radialGradient><path d="m55.867 3.593c-5.648-3.713-55.951 41.469-49.644 47.773 23.67 23.664 42.205 2.732 48.459-13.496 4.877-12.649 10.777-27.968 1.185-34.277z" fill="url(#a)"/><path d="m54.809 21.593c8.88-14.853 1.22-26.052-15.67-15.357-9.123 5.776-18.691 8.046-27.803 18.201-21.807 24.298 3.482 43.636 26.467 23.327 8.873-7.841 13.336-20.031 17.006-26.171z" fill="#bce042"/><path d="m52.976 21.493c8.591-13.863 1.962-23.847-13.812-13.522-8.518 5.576-17.33 7.961-25.983 17.538-20.705 22.917 1.758 39.762 23.412 20.455 8.357-7.456 12.831-18.74 16.383-24.471z" fill="url(#b)"/><path d="m36.256 24.36c6.923 9.314-8.57 25.721-19.21 18.449-15.125-10.336 7.858-33.722 19.21-18.449z" fill="url(#c)"/><g fill="#16002b"><path d="m25.339 20.622c-6.604 2.167-11.005 8.205-11.933 14.969 1.99-6.362 6.175-11.612 11.933-14.969z" opacity=".1"/><path d="m25.507 42.915c6.38-2.757 10.216-9.169 10.526-15.989-1.404 6.515-5.095 12.125-10.526 15.989z" opacity=".1"/><path d="m15.571 39.257c3.52-3.529 5.083-12.677 7.231-14.436-4.664 3.398-4.621 9.768-7.231 14.436z" opacity=".1"/><path d="m32.482 24.965c-1.759 3.825-12.652 10.579-13.826 16.875 2.742-6.864 11.975-9.589 13.826-16.875z" opacity=".1"/><path d="m31.91 30.675c-4.994 3.039-6.422 9.384-11.379 12.478 5.832-1.786 8.684-10.641 11.379-12.478z" opacity=".1"/><path d="m29.625 20.31c-5.482 1.259-6.731 11.881-8.15 13.233 4.247-3.473 3.158-10.435 8.15-13.233z" opacity=".1"/></g><path d="m27.563 34.258c-3.899 3.005-8.949 2.985-11.276-.04-2.332-3.027-1.06-7.913 2.841-10.915 3.9-3.005 8.95-2.986 11.282.04 2.331 3.028 1.053 7.916-2.847 10.915z" fill="url(#d)"/></svg>