<svg enable-background="new 0 0 64 64" height="64" viewBox="0 0 64 64" width="64" xmlns="http://www.w3.org/2000/svg" xmlns:xlink="http://www.w3.org/1999/xlink"><radialGradient id="a" cx="108.2305" cy="-128.749" gradientTransform="matrix(.8501 .4892 -.5 .8632 -113.2335 97.3386)" gradientUnits="userSpaceOnUse" r="24.4693"><stop offset="0" stop-color="#c98648"/><stop offset=".2765" stop-color="#bb8043"/><stop offset=".8008" stop-color="#957037"/><stop offset="1" stop-color="#856932"/></radialGradient><radialGradient id="b" cx="150.4668" cy="-128.6494" gradientTransform="matrix(.7217 .4153 -.5 .8632 -144.7956 79.0622)" gradientUnits="userSpaceOnUse" r="28.7566"><stop offset=".2424" stop-color="#e5efcd"/><stop offset=".28" stop-color="#bccc95"/><stop offset=".317" stop-color="#9aae66"/><stop offset=".3521" stop-color="#7f9642"/><stop offset=".3846" stop-color="#6c8627"/><stop offset=".4136" stop-color="#607c18"/><stop offset=".4364" stop-color="#5c7812"/><stop offset=".4562" stop-color="#627f14"/><stop offset=".5594" stop-color="#7ea11e"/><stop offset=".6648" stop-color="#93bc25"/><stop offset=".7721" stop-color="#a3cf2b"/><stop offset=".8824" stop-color="#acda2e"/><stop offset="1" stop-color="#afde2f"/></radialGradient><path d="m42.996 4.824c40.074 23.061 10.326 74.417-29.75 51.355z" fill="url(#a)"/><path d="m42.996 4.824c11.857 6.824 14.809 23.851 6.594 38.032-8.215 14.182-24.486 20.147-36.344 13.323-11.857-6.823-14.809-23.85-6.594-38.032 8.214-14.181 24.486-20.146 36.344-13.323z" fill="#594640"/><path d="m42.5 5.68c11.462 6.596 14.316 23.055 6.375 36.764s-23.67 19.477-35.133 12.88c-11.463-6.596-14.316-23.056-6.375-36.765s23.67-19.476 35.133-12.879z" fill="url(#b)"/><path d="m43.734 39.486c-.517.894-11.769-6.494-12.413-5.75-.664.769 6.934 12.371 6.168 12.969-.776.607-7.153-11.957-8-11.538-.852.421.799 15.319-.088 15.536-.883.215-1.146-15.019-2.029-15.018-.868.001-5.496 15.24-6.33 15.022-.809-.212 5.121-15.109 4.374-15.539s-10.727 12.138-11.315 11.545c-.607-.611 10.322-12.225 9.89-12.974-.44-.763-13.81 6.626-14.063 5.757-.256-.874 13.516-6.9 13.454-7.846-.06-.94-14.165-.162-14.024-1.136.137-.959 14.016-.202 14.352-1.158.324-.927-11.719-6.947-11.202-7.84.518-.893 11.771 6.494 12.413 5.75.662-.769-6.934-12.371-6.168-12.968.776-.607 7.152 11.957 7.999 11.538.852-.42-.796-15.32.09-15.536.883-.216 1.146 15.019 2.028 15.017.869-.001 5.497-15.241 6.331-15.022.809.211-5.122 15.108-4.375 15.538s10.727-12.135 11.316-11.542c.607.61-10.323 12.223-9.889 12.974.44.762 13.809-6.627 14.063-5.757.256.874-13.516 6.9-13.455 7.846.06.94 14.165.161 14.025 1.136-.137.959-14.016.202-14.352 1.158-.326.925 11.718 6.945 11.2 7.838z" fill="#e5efcd" opacity=".1"/><g fill="#302c3b"><path d="m32.796 21.596c-.752-.433.471-2.543 1.223-2.11s-.47 2.542-1.223 2.11z"/><path d="m30.179 19.305c-.752-.433.47-2.542 1.222-2.11.751.432-.472 2.542-1.222 2.11z"/><path d="m37.028 18.22c-.753-.433.47-2.543 1.223-2.11.751.432-.472 2.542-1.223 2.11z"/><path d="m20.592 42.664c-.753-.433.47-2.543 1.222-2.109.752.431-.471 2.542-1.222 2.109z"/><path d="m25.888 40.861c-.752-.432.471-2.543 1.223-2.109.752.432-.471 2.543-1.223 2.109z"/><path d="m23.062 39.234c-.752-.432.471-2.542 1.223-2.109.75.432-.473 2.543-1.223 2.109z"/><path d="m37.466 33.729c.521-.898 2.284.116 1.764 1.015s-2.285-.116-1.764-1.015z"/><path d="m39.646 31.995c.521-.899 2.285.116 1.764 1.014-.52.899-2.283-.115-1.764-1.014z"/><path d="m37.748 38.185c.521-.899 2.285.116 1.764 1.016-.52.898-2.284-.117-1.764-1.016z"/><path d="m16.973 21.04c.521-.898 2.284.116 1.763 1.015-.52.898-2.283-.117-1.763-1.015z"/><path d="m14.998 25.728c.521-.899 2.284.116 1.764 1.015-.522.898-2.286-.117-1.764-1.015z"/><path d="m17.498 27.638c.521-.9 2.284.115 1.764 1.015-.522.898-2.286-.116-1.764-1.015z"/><path d="m34.979 25.465c-.162-.94 1.949-1.715 2.111-.773.164.94-1.948 1.714-2.111.773z"/><path d="m37.676 27.607c-.164-.941 1.948-1.715 2.111-.774.164.941-1.948 1.716-2.111.774z"/><path d="m41.736 26.95c-.162-.941 1.949-1.716 2.112-.774.164.941-1.948 1.715-2.112.774z"/><path d="m13.053 33.413c-.163-.941 1.948-1.715 2.111-.774.164.941-1.948 1.715-2.111.774z"/><path d="m17.513 37.634c-.164-.941 1.949-1.716 2.111-.774.165.941-1.947 1.715-2.111.774z"/><path d="m17.153 33.847c-.163-.941 1.948-1.715 2.112-.774.162.94-1.949 1.714-2.112.774z"/><path d="m30.535 38.446c.898-.33 1.282 1.88.383 2.211-.899.329-1.282-1.88-.383-2.211z"/><path d="m31.855 41.147c.9-.331 1.284 1.88.383 2.21-.9.33-1.282-1.88-.383-2.21z"/><path d="m27.063 44.193c.9-.33 1.284 1.879.384 2.209-.899.33-1.282-1.879-.384-2.209z"/><path d="m25.785 15.174c.899-.329 1.282 1.88.383 2.21-.9.329-1.284-1.881-.383-2.21z"/><path d="m25.473 18.813c.899-.33 1.282 1.879.383 2.21-.899.33-1.282-1.88-.383-2.21z"/><path d="m23.412 18.021c.899-.331 1.283 1.879.383 2.209-.899.331-1.283-1.879-.383-2.209z"/></g></svg>