<svg enable-background="new 0 0 64 64" height="64" viewBox="0 0 64 64" width="64" xmlns="http://www.w3.org/2000/svg" xmlns:xlink="http://www.w3.org/1999/xlink"><linearGradient id="a" gradientUnits="userSpaceOnUse" x1="3" x2="61" y1="45.1758" y2="45.1758"><stop offset="0" stop-color="#e8e8e8"/><stop offset=".4817" stop-color="#e5e5e5"/><stop offset=".8905" stop-color="#dadada"/><stop offset="1" stop-color="#d6d6d6"/></linearGradient><radialGradient id="b" cx="32.1104" cy="21.604" gradientTransform="matrix(1 0 0 .5875 0 8.9109)" gradientUnits="userSpaceOnUse" r="24.8787"><stop offset="0" stop-color="#ffc95e"/><stop offset=".2755" stop-color="#fdc65b"/><stop offset=".5171" stop-color="#f6bb50"/><stop offset=".7452" stop-color="#eaa93e"/><stop offset=".9636" stop-color="#d99025"/></radialGradient><linearGradient id="c" gradientUnits="userSpaceOnUse" x1="32.6509" x2="32.6509" y1="37.2158" y2="12.0005"><stop offset="0" stop-color="#ab5c10"/><stop offset=".5663" stop-color="#cd7407"/><stop offset="1" stop-color="#ea8800"/></linearGradient><linearGradient id="d" gradientUnits="userSpaceOnUse" x1="14.0083" x2="17.9771" y1="45.3525" y2="45.3525"><stop offset="0" stop-color="#ea8800"/><stop offset=".4337" stop-color="#cd7407"/><stop offset="1" stop-color="#ab5c10"/></linearGradient><path d="m4 46.841c0 8.844 12.537 15.159 28 15.159s28-6.315 28-15.159z" fill="#99a8ae"/><path d="m32 30.6c-14.912 0-30 7.384-30 15.158 0 8.843 13.432 15.16 30 15.16s30-6.317 30-15.16c0-7.775-15.088-15.158-30-15.158z" fill="#e6ebef"/><path d="m32 30.6c16.016 0 29 6.302 29 14.074 0 7.774-10.317 15.077-29 15.077s-29-7.303-29-15.077c0-7.773 12.984-14.074 29-14.074z" fill="url(#a)"/><path d="m55.998 44.199c0 6.075-10.781 11-24 11s-24-4.925-24-11 48-6.075 48 0z" fill="#bcc4c6"/><path d="m57.182 40.468c0 7.176-11.193 12.994-25 12.994-13.809 0-25-5.233-25-12.994 0-15.838 50-15.838 50 0z" fill="#ffe8bb"/><path d="m6.82 38.692c-.131 2.629 3.527 6.715 5.789 7.729 1.613.723 3.215.93 4.704 1.968 1.452 1.014 2.994 1.522 4.679 2.025 4.045 1.207 7.805 1.208 11.945 1.644 3.545.373 5.821-1.852 9.347-1.653 3.121.175 8.089-1.733 10.002-4.308.792-1.064 3.617-5.635 3.617-7.097 0-13.429-49.345-15.088-50.083-.308z" fill="#d99025"/><path d="m6.817 36.637c0 7.176 11.193 12.994 25 12.994 13.809 0 25-5.233 25-12.994 0-15.838-50-15.838-50 0z" fill="#ffe8bb"/><path d="m57.179 34.861c.131 2.629-3.527 6.715-5.789 7.729-1.613.723-3.215.93-4.704 1.968-1.452 1.014-2.994 1.522-4.679 2.025-4.045 1.207-7.805 1.208-11.945 1.644-3.545.373-5.821-1.852-9.347-1.653-3.121.175-8.089-1.733-10.002-4.308-.792-1.064-.646-2.518-1.372-3.603-.735-1.099-2.245-2.032-2.245-3.494 0-13.429 49.345-15.088 50.083-.308z" fill="#d99025"/><path d="m57.182 32.807c0 7.176-11.193 12.994-25 12.994-13.809 0-25-5.234-25-12.994 0-15.838 50-15.838 50 0z" fill="#ffe8bb"/><path d="m6.82 31.031c-.131 2.629 3.527 6.715 5.789 7.729 1.613.723 3.215.93 4.704 1.967 1.452 1.014 2.994 1.523 4.679 2.025 4.045 1.207 7.805 1.209 11.945 1.645 3.545.373 5.821-1.852 9.347-1.654 3.121.176 8.089-1.732 10.002-4.307.792-1.064 3.617-5.635 3.617-7.098 0-13.428-49.345-15.088-50.083-.307z" fill="#d99025"/><path d="m6.817 28.976c0 7.176 11.193 12.994 25 12.994 13.809 0 25-5.233 25-12.994 0-15.838-50-15.838-50 0z" fill="#ffe8bb"/><path d="m57.179 27.2c.131 2.629-3.527 6.715-5.789 7.729-1.613.723-3.215.93-4.704 1.968-1.452 1.014-2.994 1.522-4.679 2.025-4.045 1.207-7.805 1.208-11.945 1.644-3.545.373-5.821-1.852-9.347-1.653-3.121.175-8.089-1.733-10.002-4.308-.792-1.064-3.617-5.635-3.617-7.097 0-13.429 49.345-15.088 50.083-.308z" fill="#d99025"/><path d="m57.182 25.145c0 7.176-11.193 12.994-25 12.994-13.809 0-25-5.233-25-12.994 0-15.838 50-15.838 50 0z" fill="#ffe8bb"/><path d="m6.82 23.369c-.131 2.629 3.527 6.715 5.789 7.729 1.613.723 3.215.93 4.704 1.968 1.452 1.014 2.994 1.522 4.679 2.025 4.045 1.207 7.805 1.208 11.945 1.644 3.545.373 5.821-1.852 9.347-1.653 3.121.175 8.089-1.733 10.002-4.308.792-1.064.646-2.518 1.372-3.603.735-1.099 2.245-2.032 2.245-3.494 0-13.429-49.345-15.088-50.083-.308z" fill="url(#b)"/><path d="m33.295 12c-11.566 0-24.494 4.975-24.494 8.376 0 2.313 9.318 2.526 11.361 4.736 2.391 2.593-6.742 11.317-3.627 12.016 5.242 1.175 12.402-9.771 20.627-9.771 4.672 0 10.652 1.924 14.861 1.924 4.211 0 7.504-3.237 0-7.144-7.509-3.904-7.195-10.137-18.728-10.137z" fill="url(#c)"/><path d="m16.324 52.429c-3.588-1.335-2.369-9.47-.605-12.601 2.488-4.418 1.197.873 1.305 4.09.093 2.778 2.494 9.697-.7 8.511z" fill="url(#d)"/><g fill="#f59e01"><path d="m14.928 43.893c-.563 1.66-.84 5.252.668 7.037.652.77-.157-8.552-.668-7.037z"/><path d="m11.379 18.98c1.791-.616 10.475 1.581 9.025 2.509s-11.388-1.694-9.025-2.509z"/><path d="m21.691 32.224c-2.684 0-4.641 2.812-2.361 2.812 2.275-.001 6.123-2.812 2.361-2.812z"/><path d="m48.371 26.888c-5.162 0-11.031-4.006-18.617.633-6.205 3.795-1.514-3.796 8.273-3.796 11.045 0 12.893 3.163 10.344 3.163z"/></g><path d="m31.836 12.356c-.59 0-6.943 1.356-9.125 2.21-.527.209-.547 3.344 0 3.5 2.256.652 8.537 3.317 9.125 3.317.592 0 7.141-2.12 9.146-3.314.486-.291.529-3.294 0-3.501-2.181-.855-8.554-2.212-9.146-2.212z" fill="#ffed80"/><path d="m24.961 16.264c-1.826-.401 6.201 2.541 7.105 2.541 1.061 0 7.85-2.766 6.807-2.541-7.039 1.513-7.039 1.513-13.912 0z" fill="#fff"/></svg>