<svg enable-background="new 0 0 64 64" height="64" viewBox="0 0 64 64" width="64" xmlns="http://www.w3.org/2000/svg" xmlns:xlink="http://www.w3.org/1999/xlink"><linearGradient id="a" gradientUnits="userSpaceOnUse" x1="14" x2="50" y1="35.0352" y2="35.0352"><stop offset="0" stop-color="#f5f5f5"/><stop offset="1" stop-color="#e8e8e8"/></linearGradient><linearGradient id="b" gradientUnits="userSpaceOnUse" x1="22.3003" x2="22.3003" y1="52.3301" y2="2.3269"><stop offset="0" stop-color="#fff" stop-opacity="0"/><stop offset=".1142" stop-color="#fff" stop-opacity=".1142"/><stop offset="1" stop-color="#fff"/></linearGradient><path d="m32 5.019h-20s0 32.722 7 53.627c1.025 3.25 24.977 3.25 26 0 7-20.905 7-53.627 7-53.627z" fill="#c5d7e8"/><path d="m32 5.53h-18.229l.229 8.529h36l.229-8.528h-18.229z" fill="#e6ebef"/><path d="m32 56.35c-7.18 0-13 1.013-13 2.26 0 1.25 5.82 3.39 13 3.39s13-2.143 13-3.391c0-1.247-5.82-2.259-13-2.259z" fill="#c5d7e8"/><path d="m14 14.059c0 13.56 4.5 33.412 7 39.55 1.383 3.398 20.484 3.001 22 0 2.963-5.866 7-25.99 7-39.55z" fill="url(#a)"/><ellipse cx="32" cy="14.059" fill="#fff" rx="18" ry="2.013"/><path d="m32 2c-11.046 0-20 1.352-20 3.019 0 1.668 8.954 3.019 20 3.019s20-1.351 20-3.019c0-1.667-8.954-3.019-20-3.019z" fill="#c5d7e8"/><ellipse cx="32" cy="4.878" fill="#f5f5f5" rx="18" ry="2.013"/><path d="m21.002 57.285c9.054 2.594 10.823 3.106 21.179-.137-7.83.725-13.888 1.096-21.179.137z" fill="#96aab0"/><path d="m24.306 58.996c5.896 1.709 12.532 1.272 18.692-.732-6.285.21-12.37 1.037-18.692.732z" fill="#96aab0"/><path d="m14.959 8.408s-.542 19.686 6.043 40.784c.438 1.402 8.917 4.615 8.645 2.354-2.563-21.292-2.449-41.752-2.449-41.752s-8.85-.586-12.239-1.386z" fill="url(#b)" opacity=".7"/></svg>