<svg enable-background="new 0 0 64 64" height="64" viewBox="0 0 64 64" width="64" xmlns="http://www.w3.org/2000/svg" xmlns:xlink="http://www.w3.org/1999/xlink"><linearGradient id="a" gradientUnits="userSpaceOnUse" x1="25.5068" x2="36.2605" y1="25.9072" y2="36.6609"><stop offset="0" stop-color="#ffcb61"/><stop offset=".3249" stop-color="#fec85f"/><stop offset=".5278" stop-color="#f9c057"/><stop offset=".6972" stop-color="#f1b14a"/><stop offset=".8482" stop-color="#e69d37"/><stop offset=".9856" stop-color="#d8821f"/><stop offset="1" stop-color="#d67f1c"/></linearGradient><linearGradient id="b"><stop offset=".1636" stop-color="#ebbd7a"/><stop offset=".1659" stop-color="#ebbd7a"/><stop offset=".5276" stop-color="#e7a554"/><stop offset=".8183" stop-color="#e4963d"/><stop offset="1" stop-color="#e39134"/></linearGradient><radialGradient id="c" cx="285.334" cy="239.4326" gradientTransform="matrix(.6984 .7549 -.6984 .7549 15.7471 -384.5334)" gradientUnits="userSpaceOnUse" r="5.1662" xlink:href="#b"/><linearGradient id="d"><stop offset=".4242" stop-color="#ffdead"/><stop offset=".5122" stop-color="#fcd8a4"/><stop offset=".6529" stop-color="#f2c98d"/><stop offset=".7455" stop-color="#ebbd7a"/></linearGradient><radialGradient id="e" cx="287.4004" cy="239.7646" gradientTransform="matrix(.9752 -.1693 .0385 .2589 -240.4791 .00046)" gradientUnits="userSpaceOnUse" r="15.0625" xlink:href="#d"/><radialGradient id="f" cx="269.7891" cy="278.8477" gradientTransform="matrix(.6441 .7658 -.6441 .7658 41.4307 -395.4775)" gradientUnits="userSpaceOnUse" r="6.3561" xlink:href="#b"/><radialGradient id="g" cx="272.3311" cy="279.2568" gradientTransform="matrix(.8993 -.1718 .0355 .2627 -217.8537 .3316)" gradientUnits="userSpaceOnUse" r="18.5305" xlink:href="#d"/><radialGradient id="h" cx="213.248" cy="426.8389" gradientTransform="matrix(.4086 .8229 -.7181 .5731 243.4877 -382.8114)" gradientUnits="userSpaceOnUse" r="5.6207" xlink:href="#b"/><radialGradient id="i" cx="215.4961" cy="427.2012" gradientTransform="matrix(.8213 .0179 -.0221 .2463 -142.8195 -69.7389)" gradientUnits="userSpaceOnUse" r="16.3855" xlink:href="#d"/><radialGradient id="j" cx="134.4434" cy="444.0938" gradientTransform="matrix(.3814 .7104 -.6085 .529 232.6086 -281.4252)" gradientUnits="userSpaceOnUse" r="5.6007" xlink:href="#b"/><radialGradient id="k" cx="136.6836" cy="444.4531" gradientTransform="matrix(.7166 -.0123 -.0117 .2176 -78.4758 -44.2186)" gradientUnits="userSpaceOnUse" r="16.3309" xlink:href="#d"/><path d="m14.89 57.037c-6.518 5.033-6.655 4.314-9.616 4.893-4.511.881-3.658-6.783-1.615-9.578 8.555-11.702 30.454-36.533 43.127-46.899 4.922-4.026 9.821-4.2 13.837-2.218 2.716 1.34.959 5.798-1.357 8.713-9.364 11.762-39.121 41.031-44.376 45.089z" fill="url(#a)"/><path d="m40.728 13.08c4.974 6.075 14.163-2.943 14.163-2.943-6.487-5.253-14.163 2.943-14.163 2.943z" fill="url(#c)"/><path d="m40.728 13.08s5.773 3.177 14.163-2.943c0 0-6.189-3.149-14.163 2.943z" fill="url(#e)"/><path d="m27.568 26.48c5.641 7.58 16.069-3.675 16.069-3.675-7.36-6.553-16.069 3.675-16.069 3.675z" fill="url(#f)"/><path d="m27.568 26.48s6.549 3.964 16.069-3.675c0 .001-7.023-3.925-16.069 3.675z" fill="url(#g)"/><path d="m17.554 37.373c3.01 7.078 13.086-.204 13.086-.204-4.521-6.546-13.086.204-13.086.204z" fill="url(#h)"/><path d="m17.554 37.373s4.358 4.32 13.086-.204c0 0-4.73-4.371-13.086.204z" fill="url(#i)"/><path d="m7.962 49.319c2.829 6.109 11.362-.625 11.362-.625-4.126-5.587-11.362.625-11.362.625z" fill="url(#j)"/><path d="m7.962 49.319s3.917 3.64 11.362-.625c.001 0-4.241-3.673-11.362.625z" fill="url(#k)"/></svg>