<svg enable-background="new 0 0 64 64" height="64" viewBox="0 0 64 64" width="64" xmlns="http://www.w3.org/2000/svg" xmlns:xlink="http://www.w3.org/1999/xlink"><linearGradient id="a" gradientUnits="userSpaceOnUse" x1="2" x2="62.001" y1="46.1338" y2="46.1338"><stop offset="0" stop-color="#cfd8dd"/><stop offset=".3818" stop-color="#cbd5da"/><stop offset=".7485" stop-color="#c0ccd0"/><stop offset="1" stop-color="#b3c2c6"/></linearGradient><path d="m2 30.269c0 24.891 60.001 24.891 60.001 0 0-20.106-60.001-20.106-60.001 0" fill="#e6ebef"/><path d="m3.875 29.783c0-18.061 56.249-18.061 56.249 0 .002 18.6-56.249 18.6-56.249 0" fill="#99a8ae"/><path d="m15.594 23.769 19.088-6.32c-4.336-13.428-23.426-7.106-19.088 6.32" fill="#e81c27"/><path d="m17.236 22.519 15.395-5.1c-3.182-9.845-18.578-4.748-15.395 5.1" fill="#c21413"/><path d="m56.997 18.822c-1.52-.659-3.646 2.516-6.092.214-1.679-1.581-3.183-.938-3.386-2.289-.172-1.139 2.139-2.622.885-2.993-3.049-.9-5.723 4.18-8.18 2.152-1.889-1.558-1.922-.665-3.359-1.092-1.99-.589.576-4.988-1.65-3.705-1.926 1.109-2.846 3.154-7.15 1.291-2.639-1.143-3.273 10.086 8.014 14.912 10.448 4.467 26.617-6.027 20.918-8.49" fill="#7ab51d"/><path d="m50.905 19.036c-1.679-1.581-3.183-.938-3.386-2.289-.172-1.139 2.139-2.622.885-2.993-3.049-.9-5.723 4.18-8.18 2.154-1.889-1.56-2.783-6.082-5.012-4.799-1.768 1.018-2.662 2.699-6.166 1.664 11.496 2.704 6.842 16.98 27.95 6.049-1.518-.659-3.645 2.515-6.091.214" fill="#92c932"/><path d="m22.85 18.898c3.912-9.936 18.084-4.473 14.17 5.463z" fill="#fff"/><path d="m25.215 19.059c2.443-6.2 12.166-2.45 9.725 3.748z" fill="#f59e01"/><path d="m23.947 16.421c-2.891-3.158-6.174 5.034-12.158 4.303-6.244-.762-6.566 1.814-7.938 3.109-2.559 5.883 7.131 39.715 36.508-.101 0 .001-9.808-.092-16.412-7.311z" fill="#7ab51d"/><path d="m36.891 23.373c-3.504 0-2.07-6.668-6.545-6.668-4.211 0-5.465 6.162-9.045 6.162-3.311 0-4.295-4.224-7.221-4.579-3.441-.421-4.266 6.272-10.229 5.546 0 0 24.805 27.659 40.535-4.516-3.224-.396-3.999 4.055-7.495 4.055z" fill="#a6e639"/><path d="m35.699 23.673c-2.729-1.4-4.439.004-5.186-1.664-.625-1.402 1.828-4.199.08-4.199-4.26 0-5.9 7.579-9.795 5.903-2.988-1.288-2.717-.125-4.727-.125-2.779 0-1.027-6.661-3.447-4.153-1.922 1.988-2.479 4.502-7.371 4.502 7.049 0 5.072 10.465 19.396 10.465 15.098 0 16.924-15.086 19.736-15.086-2.196-.269-4.711 6.394-8.686 4.357z" fill="#7ab51d"/><path d="m35.504 33.465c.326-15.893 22.845-15.822 22.517.072z" fill="#e81c27"/><path d="m20.244 30.331c-2.67 3.195-9.604-3.032-6.932-6.229 2.672-3.194 9.604 3.035 6.932 6.229" fill="#302c3b"/><path d="m37.697 32.715c.24-11.658 18.401-11.598 18.161.059z" fill="#c21413"/><path d="m5.77 43.732c-2.445-17.909 23.412-20.723 25.859-2.814z" fill="#e81c27"/><path d="m8.16 42.605c-1.799-13.133 19.055-15.403 20.85-2.27z" fill="#c21413"/><path d="m25.727 31.664c-1.631-11.931 15.596-13.806 17.227-1.876z" fill="#fff"/><path d="m28.137 31.216c-1.055-7.698 11.17-9.028 12.223-1.33z" fill="#f59e01"/><path d="m59.04 25.614c2.961 2.907-3.352 9.81-6.311 6.904-2.959-2.911 3.354-9.81 6.311-6.904" fill="#302c3b"/><path d="m57.548 31.419c-2.85-.347-4.488 1.583-6.77 1.305-6.985-.85-9.665-4.995-13.569-5.471-4.195-.512-5.375 4.553-11.357 3.823-6.246-.762-6.088 3.335-7.939 3.109-.001.001 16.778 23.932 39.635-2.766" fill="#92c932"/><path d="m57.548 31.419c-3.225-.395-3.1 2.303-6.598 2.303-3.505 0-2.069-6.665-6.544-6.665-4.213 0-5.465 6.161-9.045 6.161-3.313 0-4.295-4.223-7.221-4.579-3.443-.42-4.268 6.274-10.229 5.547.001 0 32.762 26.23 39.637-2.767" fill="#a6e639"/><path d="m57.548 31.419c-2.195-.268-3.813 4.643-7.788 2.608-2.729-1.4-4.439.004-5.186-1.666-.625-1.402 1.828-4.201.08-4.201-4.258 0-5.9 7.582-9.795 5.904-2.99-1.287-2.717-.125-4.727-.125-2.777 0-1.027-6.662-3.447-4.153-2.092 2.168-2.555 5.159-8.773 4.399-3.811-.467-2.537 13.967 15.652 16.186 15.073 1.838 32.22-17.947 23.984-18.952" fill="#92c932"/><path d="m57.548 31.419c-2.195-.27-3.813 4.643-7.788 2.608-2.729-1.4-4.439.004-5.186-1.666-.625-1.402 1.828-4.201.08-4.201-4.258 0-5.9 7.582-9.795 5.904-2.99-1.287-2.715-.125-4.727-.125-2.777 0-1.027-6.662-3.447-4.151-1.92 1.988-2.479 4.502-7.369 4.502 7.047 0 5.07 10.465 19.395 10.465 15.101.001 16.026-13.336 18.837-13.336" fill="#7ab51d"/><path d="m40.932 42.863c-2.33 5-13.184-.434-10.854-5.434 2.33-4.997 13.184.436 10.854 5.434" fill="#302c3b"/><path d="m59.979 31.359c-2.994 16.497-52.964 16.497-55.958 0h-1.98c1.703 23.434 58.216 23.434 59.919 0z" fill="#e6ebef"/><path d="m2 30.269c0 42.307 60.001 42.307 60.001 0 0 21.077-60.001 21.077-60.001 0" fill="url(#a)"/><g fill="#7ab51d"><path d="m40.498 44.334c-.478.051.481-.037 0 0"/><path d="m18.619 34.25v.006c.061 0 .117.008.176.008-.055-.002-.119-.01-.176-.014"/></g></svg>