<svg enable-background="new 0 0 64 64" height="64" viewBox="0 0 64 64" width="64" xmlns="http://www.w3.org/2000/svg" xmlns:xlink="http://www.w3.org/1999/xlink"><radialGradient id="a" cx="-22.7061" cy="22.9536" gradientTransform="matrix(.7151 .7108 -2.2265 2.2133 113.8345 -21.7099)" gradientUnits="userSpaceOnUse" r="20.3539"><stop offset="0" stop-color="#77b516"/><stop offset="1" stop-color="#297124"/></radialGradient><path d="m48.571 38.499c-.051-.041 2.24-.452 2.632-2.886 2.313-2.71 4.261-5.465 5.84-8.176 0 0 1.657-.875 1.284-2.332.645-1.259 7.961-17.496-.046-21.995-4.587-2.576-10.422-.501-16.752 4.49 0 0-2.539.191-3.589 3.078-4.771 5.132-9.25 9.882-11.299 12.466-2.282.47-2.059 2.639-2.059 2.639-2.155 2.803-4.379 5.366-6.55 7.729-1.825.348-2.049 2.196-2.049 2.196-1.557 1.644-6.44 6.713-7.315 7.67-2.185.689-2.672 3.092-2.672 3.092-2.531 3.158-3.788 5.941-3.67 8.811 0 0-1.202 1.904 1.017 4.023 1.603 2.549 4.881 3.258 9.255 2.266 0 0 1.655.912 3.347-.982 2.501-.889 10.53-5.121 11.717-5.848 0 0 1.687.313 2.771-1.764 1.873-1.229 3.788-2.559 5.733-3.998 0 0 1.428.01 2.045-1.531 1.581-1.212 8.661-7.189 10.36-8.948z" fill="url(#a)"/><g fill="#7ab51d"><path d="m49.088 15.551c-3.917-1.231-4.759 8.161-1.522 3.041 1.55-2.443 5.055-1.928 1.522-3.041z"/><path d="m39.18 17.521c-3.952-1.119-4.513 8.293-1.427 3.08 1.471-2.486 4.989-2.073 1.427-3.08z"/><path d="m45.88 34.486c4.841.389 3.289-10.648.936-3.9-1.128 3.224-5.302 3.556-.936 3.9z"/><path d="m33.869 46.042c3.505.277 2.38-7.714.677-2.828-.817 2.334-3.84 2.574-.677 2.828z"/><path d="m18.655 56.911c3.278 1.266 4.516-6.707 1.466-2.512-1.455 2.002-4.422 1.37-1.466 2.512z"/><path d="m54.31 23.963c3.503.312 2.438-7.694.699-2.819-.831 2.326-3.858 2.538-.699 2.819z"/><path d="m14.448 43.183c-2.759-.219-1.874 6.061-.532 2.219.64-1.831 3.017-2.02.532-2.219z"/><path d="m36.122 28.435c-2.762-.219-1.875 6.062-.534 2.22.641-1.831 3.017-2.02.534-2.22z"/><path d="m10.079 52.372c-2.758-.217-1.875 6.059-.533 2.219.639-1.83 3.016-2.016.533-2.219z"/><path d="m51.49 6.717c-2.567-1.018-3.596 5.243-1.168 1.965 1.157-1.563 3.485-1.048 1.168-1.965z"/><path d="m27.351 30.748c-4.1-.324-2.784 9.014-.791 3.3.951-2.726 4.484-3.006.791-3.3z"/><path d="m23.544 40.537c-3.983-1.007-4.269 8.417-1.337 3.122 1.399-2.529 4.931-2.216 1.337-3.122z"/><path d="m42.913 24.975s-18.579 22.083-29.33 27.542c0 0 17.572-6.577 29.33-27.542z"/><path d="m56.563 5.52s-.348 9.04-9.063 16.666c.001 0 11.468-4.979 9.063-16.666z"/><path d="m19.862 33.892s14.229-18.315 22.885-25.482c0 0-14.457 19.209-22.885 25.482z"/></g></svg>