<svg enable-background="new 0 0 64 64" height="64" viewBox="0 0 64 64" width="64" xmlns="http://www.w3.org/2000/svg" xmlns:xlink="http://www.w3.org/1999/xlink"><linearGradient id="a" gradientUnits="userSpaceOnUse" x1="35.9199" x2="24.1674" y1="38.5674" y2="7.9147"><stop offset=".4121" stop-color="#529320"/><stop offset=".4567" stop-color="#5d9d23"/><stop offset=".5797" stop-color="#76b32a"/><stop offset=".708" stop-color="#88c32f"/><stop offset=".8439" stop-color="#93cc32"/><stop offset="1" stop-color="#96cf33"/></linearGradient><linearGradient id="b"><stop offset="0" stop-color="#529320"/><stop offset="1" stop-color="#96cf33"/></linearGradient><linearGradient id="c" gradientTransform="matrix(-.8689 .6037 .5706 .8212 -77.0662 24.6964)" gradientUnits="userSpaceOnUse" x1="-79.0317" x2="-85.2569" xlink:href="#b" y1="75.9893" y2="53.3582"/><linearGradient id="d" gradientUnits="userSpaceOnUse" x1="36.2598" x2="30.7612" xlink:href="#b" y1="40.8633" y2="20.8737"/><linearGradient id="e" gradientUnits="userSpaceOnUse" x1="32.0005" x2="32.0005" y1="61.999" y2="14.0186"><stop offset="0" stop-color="#d6a57c"/><stop offset=".0566" stop-color="#daa981"/><stop offset=".4088" stop-color="#eebf99"/><stop offset=".7328" stop-color="#fbcca8"/><stop offset="1" stop-color="#ffd1ad"/></linearGradient><path d="m58.521 14.018c-9.271-6.555-54.69 11.937-56.521 21.554 1.193 1.215 45.975-.881 56.521-21.554z" fill="#ffe1bd"/><path d="m56.783 24.362c3.905-17.582-6.215-7.828-6.608-11.557-.851-8.043-9.748 2.869-9.491-3.659.212-5.411-4.196-3.604-7.792 3.607-4.404 8.833-9.71-6.754-11.402 2.635-1.685 9.341-12.184-4.042-11.763 9.126.14 4.345-12.706 2.839-2.569 14.189-.001 0 40.628 12.846 49.625-14.341z" fill="url(#a)"/><path d="m36.692 17.063 13.068-.205c.02-9.334-13.051-9.128-13.068.205z" fill="#e81c27"/><path d="m38.59 17.039 9.293-.145c.012-6.462-9.282-6.316-9.293.145z" fill="#c21413"/><path d="m15.606 24.858 13.068-.205c.02-9.334-13.051-9.128-13.068.205z" fill="#e81c27"/><path d="m17.504 24.833 9.293-.144c.012-6.461-9.282-6.316-9.293.144z" fill="#c21413"/><path d="m32.946 13.853c11.022-5.683 18.424 10.38 7.399 16.058-11.023 5.679-18.216-20.041-7.399-16.058z" fill="#014f27"/><path d="m33.649 15.381c8.809-4.538 14.881 8.644 6.073 13.179-8.809 4.538-15.727-16.735-6.073-13.179z" fill="#b8e866"/><path d="m21.271 35.076c-9.061 8.521-20.532-4.874-11.47-13.391 9.061-8.518 22.953 14.221 11.47 13.391z" fill="#014f27"/><path d="m20.181 33.801c-7.241 6.807-16.654-4.185-9.413-10.99 7.24-6.806 19.661 11.732 9.413 10.99z" fill="#b8e866"/><path d="m4.196 31.383c-6.788-10.237 9.161 1.684 10.859-5.423 1.704-7.145 16.074 5.768 17.083-2.979.685-5.951 10.854-9.88 12.643-5.923 1.998 4.42 9.912-16.387 9.201-3.148-.775 14.458-40.371 35.404-49.786 17.473z" fill="url(#c)"/><path d="m25.259 21.735c-10.23 7.036.132 21.328 10.358 14.287 10.23-7.038-8.606-25.793-10.358-14.287z" fill="#014f27"/><path d="m26.245 23.093c-8.172 5.626.331 17.35 8.501 11.725 8.173-5.625-6.938-21.994-8.501-11.725z" fill="#b8e866"/><path d="m52.654 13.949c-11.618-4.302-17.056 12.544-5.437 16.841 11.618 4.298 15.702-22.111 5.437-16.841z" fill="#014f27"/><path d="m52.138 15.551c-9.284-3.434-13.746 10.39-4.463 13.821 9.285 3.433 13.624-18.526 4.463-13.821z" fill="#b8e866"/><path d="m25.997 33.279 12.487-3.901c-2.568-8.963-15.058-5.061-12.487 3.901z" fill="#e81c27"/><path d="m27.812 32.717 8.881-2.771c-1.781-6.205-10.662-3.431-8.881 2.771z" fill="#c21413"/><path d="m42.069 24.795 12.487-3.902c-2.568-8.964-15.058-5.061-12.487 3.902z" fill="#e81c27"/><path d="m43.884 24.233 8.881-2.772c-1.781-6.206-10.661-3.431-8.881 2.772z" fill="#c21413"/><path d="m10.936 37.428 11.205-6.805c-4.612-8.084-15.819-1.277-11.205 6.805z" fill="#e81c27"/><path d="m12.565 36.443 7.969-4.838c-3.193-5.594-11.163-.755-7.969 4.838z" fill="#c21413"/><path d="m56.556 19.448c-.19-12.886-6.204 6.971-11.307 1.893-5.126-5.105-9.389 14.65-14.829 7.749-3.701-4.697-13.677-1.935-12.957 2.541.808 5.001-16.41-8.088-8.808 2.847 8.303 11.946 48.233-2.38 47.901-15.03z" fill="url(#d)"/><path d="m58.521 14.018c-7.067 14.44-41.204 23.33-56.521 21.554 12.427 43.586 75.314 31.086 56.521-21.554z" fill="url(#e)"/><g fill="#cf8a54"><path d="m13.867 42.477c-1.054 3.141 1.84 4.553 3.966 4.568 2.165.021-3.23-6.756-3.966-4.568z" opacity=".3"/><path d="m22.225 52.123c1.3 2.471 3.011 1.232 3.73-.24.727-1.498-4.639-1.485-3.73.24z" opacity=".3"/><path d="m26.557 41.102c-2.291-.99-2.504 1.463-1.998 3.285.52 1.863 3.599-2.59 1.998-3.285z" opacity=".3"/><path d="m41.102 36.236c-1.056 3.131 1.84 4.547 3.964 4.563 2.164.017-3.227-6.758-3.964-4.563z" opacity=".3"/><path d="m39.878 54.404c1.299 2.467 3.008 1.227 3.726-.244.729-1.498-4.635-1.482-3.726.244z" opacity=".3"/><path d="m37.576 45.289c-2.291-.988-2.503 1.461-1.999 3.287.517 1.863 3.599-2.594 1.999-3.287z" opacity=".3"/><path d="m51.387 29.928c-.685 2.033 1.193 2.945 2.57 2.957 1.405.016-2.094-4.381-2.57-2.957z" opacity=".3"/><path d="m55.19 41.133c.842 1.598 1.951.795 2.417-.16.474-.977-3.006-.959-2.417.16z" opacity=".3"/><path d="m59.094 31.578c-1.484-.641-1.623.95-1.295 2.135.338 1.205 2.335-1.683 1.295-2.135z" opacity=".3"/></g><path d="m58.521 14.018c-.291-.204-.819.859-1.035 1.192-7.276 11.207-35.798 20.13-52.607 20.011 0 0-2.75-.33-2.879.352 11.329 5.579 58.618-9.303 56.521-21.555z" fill="#ffe1bd"/></svg>