<svg enable-background="new 0 0 64 64" height="64" viewBox="0 0 64 64" width="64" xmlns="http://www.w3.org/2000/svg"><path d="m51.221 6.965s-1.045 1.701-2.059-.41c-1.863-6.594-21.434-5.059-21.248-1.484 0 0-.389 1.898-2.996-.313-5.918-7.138-27.299 14.241-20.158 20.16 2.211 2.607.311 2.994.311 2.994-3.572-.184-5.107 19.385 1.484 21.25 2.111 1.012.412 2.061.412 2.061-2.139 2.844 9.234 11.145 12.598 8.752 2.018-.594 3.041.482 3.041.482 7.604 4.055 15.752-3.049 7.322-10.004.633-1.623-3.078-6.07-4.746-6.09 1.525-.67 3.447-5.795 1.854-7.543 1.748.248 10.035-8.04 9.789-9.788 1.746 1.596 6.871-.326 7.541-1.852.02 1.668 4.467 5.377 6.09 4.744 6.957 8.428 14.061.279 10.004-7.32 0 0-1.076-1.025-.484-3.043 2.393-3.359-5.912-14.734-8.755-12.596z" fill="#f9b146"/><path d="m51.758 28.62c-3.148 1.346-7.318-2.756-4.174-8.459-3.434 4.531-8.139 7.648-12.938-3.146 3.063 9.309-3.34 18.975-14.965 14.145 10.135 6.473 5.559 10.092-.598 13.545 7.115-.361 10.621 3.363 9.531 6.84 9.658 4.969 1.658 12.746-6.01 8.914 6.682 4.531 19.592-1.547 7.607-10.111.633-1.623-2.852-6.102-4.52-6.119 1.525-.672 3.271-5.484 1.676-7.232 5.117.727 10.352-4.508 9.625-9.625 1.748 1.596 6.563-.148 7.232-1.674.02 1.666 4.496 5.15 6.119 4.518 8.564 11.983 14.643-.928 10.111-7.605 3.851 7.694-3.442 15.87-8.696 6.009z" fill="#ea9d31"/><path d="m24.918 4.76c11.254 11.029 9.676 17.42 11.904 22.273.57 1.244 2.518-13.209-8.908-21.963-.58-.445-3.262-.571-2.996-.31z" fill="#ffc876"/><path d="m49.059 6.397c1.744 11.373-5.299 19.596-4.686 18.93 5.773-6.262 8.43-14.096 6.963-18.338-.094-.27-2.363-1.156-2.277-.592z" fill="#ffc876"/><path d="m50.932 29.602c4.92-4.488 6.512-5.791 9.527-6.996.41-.162-.199-3.404-.441-3.184-6.27 5.741-10.557 11.522-9.086 10.18z" fill="#ffc876"/><path d="m4.76 24.918c13.559.887 20.605 8.135 22.273 11.905.555 1.252-5.342-6.706-21.963-8.911-.722-.095-.681-3.017-.31-2.994z" fill="#ffc876"/><path d="m6.396 49.06c9.387-6.379 19.822-4.848 18.932-4.686-6.947 1.244-10.594 2.619-18.34 6.961-.248.139-1.064-1.955-.592-2.275z" fill="#ffc876"/><path d="m29.602 50.931c-4.488 4.922-5.791 6.512-6.996 9.527-.162.412-3.404-.197-3.184-.439 5.74-6.272 11.521-10.559 10.18-9.088z" fill="#ffc876"/><g fill="#febb59"><path d="m27.43 16.7c.859 1.305-2.52-9.145-4.496-10.602-4.74-3.494-13.785 7.205-12.047 6.545 6.24-2.375 9.468-6.656 16.543 4.057z"/><path d="m47.756 12.942c.42 1.258.516-6.576-.809-7.443-2.652-1.734-9.418-2.418-8.004-1.672 5.543 2.923 6.569 2.416 8.813 9.115z"/><path d="m54.369 22.18c-.635.973 4.785-3.232 4.658-4.611-.258-2.764-3.477-7.771-3.217-6.396 1.018 5.39 1.924 5.818-1.441 11.007z"/><path d="m58.932 28.543c3.041-1.375 1.023-5.994.842-4.455-.387 3.25-2.2 5.071-.842 4.455z"/><path d="m5.049 32.721c-3.694 5.657 1.666 14.925 1.125 11.159-1.153-7.957.519-13.686-1.125-11.159z"/><path d="m10.59 53.89c2.395 5.066 10.691 5.334 7.947 4.074-5.803-2.658-9.019-6.336-7.947-4.074z"/><path d="m24.172 59.731c2.219 2.15 6.08-.406 4.543-.238-3.246.358-5.533-.722-4.543.238z"/></g></svg>