<svg enable-background="new 0 0 64 64" height="64" viewBox="0 0 64 64" width="64" xmlns="http://www.w3.org/2000/svg"><path d="m32.631 28.975-1.904-7.973-9.728-9.002-7.756 1.403-4.243 11.647 3.602 8.429 20.029 7.769 19.818-8.839 2.551-9.26-4.753-8.837-7.299-1.074-7.469 5.782z" fill="#99a8ae"/><path d="m34.005 34.108 4.729-26.323 2.68.697-5.658 26.811z" fill="#e81c27"/><path d="m38.555 8.807c.18-1.021.32-1.08.832-5.629.211-1.859 3.734-1.374 3.269.453-1.241 4.852-1.241 4.852-1.444 5.814-.15.737-2.784.101-2.657-.638z" fill="#302c3b"/><path d="m40.894 28.604 5.715-19.326 2.535 1.088-6.68 19.682z" fill="#e81c27"/><path d="m46.314 10.277c.295-.999.438-1.037 1.48-5.545.422-1.839 3.805-.845 3.136.927-1.787 4.707-1.787 4.707-2.098 5.646-.235.717-2.73-.301-2.518-1.028z" fill="#302c3b"/><path d="m32.631 62c8.318-1.929 14.816-5.01 14.816-5.01l5.347-23.511s-9.027-1.765-20.163 5.338z" fill="#b3c2c6"/><path d="m52.794 33.479-4.753 1.976-3.947 7.723 3.353 13.812z" fill="#cfd8dd"/><path d="m29.963 28.242-8.173-7.598-7.443-1.211-4.866 6.277 1.942 8.991 21.208 4.116z" fill="#e6ebef"/><path d="m32.631 38.817c9.181-3.804 20.163-5.338 20.163-5.338l1.357-9.835-1.442-3.468s-2.745.605-2.236-3.084c.166-1.195-1.539-3.371-3.139-.936-1.104 1.68-3.396 5.533-3.396 5.533l1.726-.304.51 1.351-6.081 1.21-5.234 5.893z" fill="#cfd8dd"/><path d="m32.631 62 15.834-22.249-5.131-3.305-10.703 2.371z" fill="#e6ebef"/><path d="m11.423 34.701 5.3 24.141c6.919 2.271 15.908 3.158 15.908 3.158v-23.183s-10.604-3.398-21.208-4.116z" fill="#f2f5f7"/><path clip-rule="evenodd" d="m26.713 55.976c-.303-1.239 1.309-.836 1.318-2.026-1.395-.169-1.68-1.4-2.294-2.317.315-.423.895-.563 1.124-1.078-1.4-.415-1.774-1.571-2.135-2.472.506-.276.793-.787 1.313-1.044-1.104-.374-1.643-1.293-2.108-2.279.074-.576.413-.864.753-1.155-1.314-.673-2.766-3.154-2.766-3.154s-.861 2.021-2.065 2.197c.436.443.871.887 1.103 1.522-.227.85-.543 1.599-1.607 1.543.619.483 1.057 1.137 1.662 1.633-.137.804-.218 1.869-1.583 1.734.381.638 1.029 1.021 1.478 1.596-.405.715-.372 1.896-1.794 1.507.33 1.258 1.917 1.486 1.932 2.67l-2.896-.574.19 1.445 11.458 2.273-.19-1.446zm-2.34-9.231c-.37.708-2.769.227-3.347-.663.202-.617 2.969-.068 3.347.663zm.629 3.427c-.405.675-3.121.122-3.716-.737.177-.706 3.339-.079 3.716.737zm.495 2.902c-.583.668-3.213.093-3.954-.783.248-.927 3.444-.293 3.954.783zm-3.608.961c.514-.1 3.146.422 3.716.736.044.337.088.674.132 1.011l-3.715-.737c-.045-.337-.09-.673-.133-1.01z" fill="#e81c27" fill-rule="evenodd"/></svg>