<svg enable-background="new 0 0 64 64" height="64" viewBox="0 0 64 64" width="64" xmlns="http://www.w3.org/2000/svg"><path d="m31.286 33.592s-16.158 9.297-25.402 9.761c-9.24.465.095-19.621 6.443-27.291 3.832-4.573 16.534-17.009 34.364-13.42 17.826 3.589 23.756 34.066-2.475 50.986-13.439 8.682-15.634 3.707-16.589 1.075-.957-2.633-1.846-10.832 3.659-21.111z" fill="#fbb855"/><path d="m31.286 33.592 9.325-23.051c-15.041-4.347-17.396 24.893-29.61 31.92-1.827.488-3.568.814-5.118.892-9.24.465.095-19.621 6.443-27.291 3.832-4.573 15.062-14.849 31.004-11.64 9.968 2.006 4.48 14.93-5.135 24.437-9.065 8.968-9.615 28.476-10.57 25.844-.955-2.633-1.844-10.832 3.661-21.111z" fill="#ffc36b"/><path d="m61.996 24.511c-2.182 22.424-28.5 33.115-30.825 32.299-5.803-3.999 27.034-10.199 30.825-32.299z" fill="#d47706"/><path d="m30.502 55.616c.498-2.669 12.2-6.548 21.275-14.435-10.065 9.217-21.357 14.861-21.275 14.435z" fill="#ab5c10"/><path d="m33.039 17.245c-1.798-8.767 8.473-8.318 8.083-6.313-1.873 9.618-9.836 22.659-9.836 22.659s-5.536 3.323-10.829 5.422c0 .001 15.665-6.765 12.582-21.768z" fill="#d99025"/><path d="m59.998 53.758c-7.84-4.121-12.846-9-12.846-9-4.815 3.079-10.816 6.479-10.816 6.479s5.052 7.785 13.337 10.763c0 0 5.532-2.947 10.325-8.242z" fill="#e6ebef"/><path d="m49.646 46.926c-1.608-1.305-2.493-2.168-2.493-2.168-4.815 3.079-10.816 6.479-10.816 6.479s.846 1.302 2.411 3.044c-.001 0 6.368-3.576 10.898-7.355z" fill="#cfd8dd"/><path d="m47.363 44.959c-.139-.131-.211-.201-.211-.201-4.815 3.079-10.816 6.479-10.816 6.479s.237.364.691.966c6.388-3.793 10.336-7.244 10.336-7.244z" fill="#99a8ae"/></svg>