<svg enable-background="new 0 0 64 64" height="64" viewBox="0 0 64 64" width="64" xmlns="http://www.w3.org/2000/svg" xmlns:xlink="http://www.w3.org/1999/xlink"><linearGradient id="a" gradientUnits="userSpaceOnUse" x1="2" x2="60" y1="46.7637" y2="46.7637"><stop offset="0" stop-color="#f5000d"/><stop offset=".2452" stop-color="#f2000c"/><stop offset=".4601" stop-color="#e7000a"/><stop offset=".6637" stop-color="#d50106"/><stop offset=".8593" stop-color="#bc0101"/><stop offset=".903" stop-color="#b50100"/></linearGradient><linearGradient id="b" gradientUnits="userSpaceOnUse" x1="5.1396" x2="56.8584" y1="33.7451" y2="33.7451"><stop offset="0" stop-color="#600"/><stop offset=".4615" stop-color="#980b0a"/><stop offset=".8182" stop-color="#c21413"/></linearGradient><linearGradient id="c" gradientUnits="userSpaceOnUse" x1="38.1025" x2="62" y1="28.9917" y2="28.9917"><stop offset="0" stop-color="#cfd8dd"/><stop offset=".3818" stop-color="#cbd5da"/><stop offset=".7485" stop-color="#c0ccd0"/><stop offset="1" stop-color="#b3c2c6"/></linearGradient><path d="m46.787 54.846h-31.576s.412 2.817 4.63 5.103c1.559.84 5.268 2.051 11.159 2.051 5.892 0 9.603-1.211 11.16-2.052 4.215-2.285 4.627-5.102 4.627-5.102z" fill="#b00505"/><path d="m60 33.724h-58s.755 7.731 8.499 17.384c2.866 3.57 9.683 8.695 20.501 8.695 10.828 0 17.642-5.125 20.501-8.695 7.745-9.653 8.499-17.384 8.499-17.384z" fill="url(#a)"/><ellipse cx="31" cy="33.78" fill="#f44336" rx="28.998" ry="5.355"/><ellipse cx="31" cy="33.745" fill="url(#b)" rx="25.858" ry="4.396"/><path d="m47.438 29.35s-2.984 4.998-3.515 8.204c0 0 1.35-.144 2.468-.276.381-2.472 1.438-5.584 3.941-7.489-1.271-.234-2.894-.439-2.894-.439z" fill="#302c3b" opacity=".2"/><path d="m61.637 21.131c2.566 2.712-8.951 3.156-19.657 16.604-2.064.147-3.877.249-3.877.249 7.96-13.423 19.623-20.989 23.534-16.853z" fill="url(#c)"/></svg>