<svg enable-background="new 0 0 64 64" height="64" viewBox="0 0 64 64" width="64" xmlns="http://www.w3.org/2000/svg"><path d="m2.537 44.977v5.463c0 1.713 1.388 3.322 5.944 2.354 4.557-.963 16.051 10.391 21.5 9.105 5.447-1.393 9.41-3.748 28.629-6.105 2.576-.32 3.369-1.178 3.369-2.031 0-.754 0-5.359 0-5.359z" fill="#ab5c10"/><path d="m2.537 44.977c0 1.715 1.388 3.318 5.944 2.357 4.557-.963 16.051 10.389 21.5 9.102 5.447-1.391 9.41-3.75 28.629-6.104 6.736-.857 2.279-5.035-3.367-6.105-3.765-.643-52.706-10.086-52.706.75z" fill="#d99025"/><path d="m58.905 42.707c-6.863-13.731-70.859-7.807-51.843 2.813-1.734 8.443 8.461 1.619 9.137 4.717.674 3.096 4.691 6.902 6.781 3.789 2.191-3.125 5.605 6.078 9.328 1.215 4.967-6.49 8.783 3.211 10.828-2.416 3.02-8.314 6.23 3.824 7.965-3.242.846-3.445 5.854 4.508 6.287-2.016.136-2.036 8.115-.239 1.517-4.86z" fill="#92c932"/><path d="m60.845 40.021c-4.746-6.418-24.373 4.326-24.373 4.326s21.767 7.591 24.373-4.326z" fill="#e03636"/><path d="m45.317 46.016c-.049-1.285.484-2.912-8.031-2.686-8.518.227-28.285-3.5-28.285-3.5s.539 14.658 21.555 11.908c10.459-1.371 14.867-2.832 14.761-5.722z" fill="#e03636"/><path d="m25.044 52.813c-14.234 0-16.146-10.406-16.643-13.174 0 0 2.16 8.887 11.119 11.246 14.459 3.807 18.914-8.705 26.852-5.684 2.375.904-1.598 7.612-21.328 7.612zm19.1-6.858c-3.633-.113-9.48 4.23-11.824 5.178 4.927.377 16.552-5.028 11.824-5.178z" fill="#f46c60"/><path d="m46.354 39.072c-.684 9.525-41.383 10.545-40.699 1.023.684-9.529 41.383-10.551 40.699-1.023z" fill="#f46c60"/><path d="m46.001 37.734c.336 9.123-39.658 10.689-39.993 1.568-.148-4.017 39.846-5.583 39.993-1.568z" fill="#e03636"/><path d="m45.673 46.557.26-1.08s4.893 1.467 7.295-1.141c6.816-7.406 7.967-4.51 7.801-3.523-1.092 6.562-11.147 7.181-15.356 5.744zm7.32-.5c4.232-.809 7.125-3.6 7.049-5.1-.09-1.828-4.764 3.398-7.049 5.1z" fill="#f46c60"/><path d="m2 39.615.718.945c3.283-1.184 18.16-5.564 31.496 10.537 0 0 11.9-13.615 27.289-11.84v-1.184c-5.594-15.536-55.811-24.277-59.503 1.542z" fill="#ffe12c"/><path d="m4.177 34.205s-.18 2.572 4.377 1.607c4.557-.963 17.732 13 22.34 9.697 7.504-5.383 19.326-5.641 27.26-8.246-24.907-12.111-53.977-3.058-53.977-3.058z" fill="#1a1626" opacity=".3"/><path d="m2.537 26.39v5.461c0 1.713 1.388 3.321 5.944 2.356s16.051 10.389 21.5 9.102c5.447-1.391 9.41-3.746 28.629-6.102 2.477-.322 3.369-1.072 3.369-1.928v-5.463z" fill="#ab5c10"/><path d="m2.537 26.281c0 1.715 1.388 3.32 5.944 2.357 4.557-.967 16.051 10.387 21.5 9.104 5.447-1.393 9.41-3.748 28.629-6.104 6.736-.857 2.279-5.035-3.367-6.105-3.766-.643-13.375-2.785-14.367-5.252-.988-2.461-14.266-3.104-22.783-1.07-8.619 2.039-15.556 4.287-15.556 7.07z" fill="#f5cfa0"/><path d="m3.357 26.258c0 1.645 1.171 2.644 5.646 1.721 4.476-.926 15.773 10.197 21.125 8.966 5.35-1.334 8.7-3.453 27.574-5.708 6.406-.796 2.283-4.396-3.064-5.385-3.698-.616-13.307-2.824-14.281-5.188-.971-2.357-13.603-2.847-21.969-.906-8.463 1.962-15.031 3.834-15.031 6.5z" fill="#ffe8bb"/><g fill="#ffedcc"><path d="m8.853 24.233c.992 0 .992 1.356 0 1.356-.991 0-.991-1.356 0-1.356z"/><path d="m16.472 25.137c1.322 0 1.322 1.811 0 1.811s-1.323-1.811 0-1.811z"/><path d="m21.116 21.17c.992 0 .992 1.356 0 1.356-.99.001-.99-1.356 0-1.356z"/><path d="m27.161 23.897c.99 0 .99 1.356 0 1.356-.992 0-.992-1.356 0-1.356z"/><path d="m37.653 25.253c.992 0 .992 1.358 0 1.358-.99.001-.99-1.358 0-1.358z"/><path d="m34.421 20.67c.992 0 .992 1.356 0 1.356-.99.001-.99-1.356 0-1.356z"/><path d="m55.741 27.835c.99 0 .99 1.358 0 1.358-.992.001-.992-1.358 0-1.358z"/><path d="m51.384 29.254c.992 0 .992 1.358 0 1.358-.99.001-.99-1.358 0-1.358z"/><path d="m46.243 25.59c.992 0 .992 1.357 0 1.357-.99.001-.99-1.357 0-1.357z"/><path d="m33.249 30.159c1.32 0 1.32 1.811 0 1.811s-1.32-1.811 0-1.811z"/><path d="m43.153 29.254c1.322 0 1.322 1.81 0 1.81s-1.322-1.81 0-1.81z"/><path d="m23.595 29.254c1.322 0 1.322 1.81 0 1.81s-1.323-1.81 0-1.81z"/></g></svg>