<svg enable-background="new 0 0 64 64" height="64" viewBox="0 0 64 64" width="64" xmlns="http://www.w3.org/2000/svg"><path d="m4.061 58.239c4.973-9.198 38.13-34.699 28.045-46.907-3.455-4.182-6.689-14.712-13.652-5.94-2.604 3.276-13.46.773-7.822 12.59 2.85 5.978-10.785 2.608-3.893 14.732 2.957 5.2-9.471 8.438-2.678 25.525z" fill="#529320"/><path d="m4.303 59.5c3.857-8.347 33.865-42.166 27.205-47.084-4.11-3.038-4.557-10.061-7.945-8.41-5.634 2.748-2.137 5.118-6.974 4.778-4.506-.317.898 2.883-4.514 3.539-4.475.542 2.535 8.408-1.234 10.378-5.277 2.761-.796 3.565-4.609 5.609-2.315 1.238 5.137 5.246 1.997 8.199-3.17 2.98.894 3.497-2.716 6.039-4.188 2.945 2.13 2.089-1.525 6.221-1.344 1.525-.14 9.847.315 10.731z" fill="#7ab51d"/><path d="m7.131 59.262c6.873-23.142 2.174-28.01 17.217-51.036-18.851 22.303-12.11 27.561-21.126 48.195-2.32 2.863 4.847 5.409 3.909 2.841z" fill="#e5efcd"/><path d="m58.765 17.055c2.808-10.884-7.927-7.686-14.031-10.166-11.164-4.538-4.774 4.926-12.537 6.098-12.531 1.889-16.846 31.992-13.762 35.051 31.04-2.854 25.732-17.466 34.375-17.487 17.087-.044 4.905-9.435 5.955-13.496z" fill="#529320"/><path d="m26.531 38.997c6.721 4.34 24.617-.368 22.767-6.794-1.32-4.59 12.937-1.449 9.527-6.058-4.121-5.571 3.937-1.813-.379-6.046-4.632-4.547.889-2.256-1.287-9.022-1.307-4.066-10.163.561-15.644-3.795-4.825-3.834-2.921 5.966-4.915 5.581-6.37-1.238-1.91 4.887-6.967 4.042-5.287-.884-11.922 13.839-3.102 22.092z" fill="#7ab51d"/><path d="m26.412 37.01 3.007 1.808c5.124-8.648 8.155-14.627 24.15-24.556-19.066 8.593-21.671 14.732-27.157 22.748z" fill="#a3c86b"/><path d="m4.723 59.437c8.991-5.807-1.439-17.941 11.381-16.873 9.01.752.615-9.096 12.722-6.221 7.849 1.862.814-7.547 11.396-6.089 6.557.901 7.078-7.784 12.979-1.745 3.224 3.302 13.185 3.347 4.877 10.985-3.106 2.853.806 12.823-12.187 8.906-6.57-1.982-1.428 10.51-14.886 5.444-5.775-2.173-7.665 9.967-26.282 5.593z" fill="#529320"/><path d="m4.723 59.437c8.235-4.651 3.616-12.145 7.369-10.14 3.543 1.894-.377-6.09 4.294-4.276 4.315 1.676 3.973-5.616 6.438-4.471 4.416 2.047-1.456-6.347 6.449-3.192 5.279 2.104 3.269-6.605 6.778-4.709 3.361 1.813 3.451-3.884 7.583-1.467 1.294.751 5.416-7.156 6.9-3.114 1.687 4.581 11.028 3.104 9.713 6.504-2.19 5.658-5.078 2.636-4.143 7.17.869 4.222-3.111-.503-3.149 4.693-.029 4.295-9.063-1.394-10.667 2.411-2.245 5.322-3.619 1.181-5.292 5.03-1.016 2.336-6.084-4.23-8.784-.907-2.727 3.354-3.753-.425-5.973 3.293-2.568 4.311-2.427-1.765-6.299 2.185-1.426 1.455-10.244 1.313-11.217.99z" fill="#92c932"/><path d="m8.945 61.632c19.366-10.398 21.236-19.349 48.663-26.857-29.786 4.56-28.396 12.721-49.613 22.28-3.75.647-.93 5.589.95 4.577z" fill="#e5efcd"/><path d="m5.51 58.79c6.408-8.257 19.052 1.93 18.245-10.142-.566-8.488 9.695-.288 6.949-11.749-1.779-7.431 8.047-.52 6.771-10.503-.791-6.185 8.466-6.396 2.194-12.128-3.429-3.134-3.221-12.492-11.563-4.937-3.117 2.824-13.624-1.171-9.79 11.154 1.939 6.233-11.225 1.002-6.18 13.802 2.163 5.495-10.803 6.877-6.626 24.503z" fill="#529320"/><path d="m5.51 58.79c5.158-7.587 13.015-3.004 10.976-6.598-1.921-3.385 6.471.555 4.663-3.889-1.672-4.107 6.077-3.551 4.925-5.9-2.066-4.215 6.713 1.57 3.563-5.956-2.106-5.023 7.113-2.854 5.186-6.213-1.842-3.211 4.219-3.114 1.759-7.071-.771-1.24 7.75-4.851 3.488-6.379-4.832-1.731-3.019-10.457-6.67-9.331-6.078 1.871-2.937 4.681-7.735 3.658-4.47-.953.454 2.938-5.074 2.802-4.575-.11 1.245 8.561-2.841 9.941-5.723 1.934-1.35 3.362-5.492 4.807-2.513.878 4.345 5.851.741 8.278-3.644 2.451.353 3.538-3.659 5.5-4.653 2.273 1.813 2.339-2.488 5.847-1.588 1.293-1.664 9.577-1.342 10.504z" fill="#92c932"/><path d="m3.68 56.461c-2.519 2.793 3.379 6.996 4.86 5.035 1.69-14.215 19.15-19.867 20.895-42.848-10.56 28.403-17.455 20.66-25.755 37.813z" fill="#e5efcd"/></svg>