<svg enable-background="new 0 0 64 64" height="64" viewBox="0 0 64 64" width="64" xmlns="http://www.w3.org/2000/svg" xmlns:xlink="http://www.w3.org/1999/xlink"><linearGradient id="a" gradientUnits="userSpaceOnUse" x1="2" x2="62.001" y1="38.2412" y2="38.2412"><stop offset="0" stop-color="#f5cfa0"/><stop offset=".504" stop-color="#e6bf8e"/><stop offset="1" stop-color="#dbb381"/></linearGradient><linearGradient id="b" gradientTransform="matrix(1.0315 0 0 1 17.566 0)" gradientUnits="userSpaceOnUse" x1="13.3579" x2="13.3579" y1="53.3535" y2="2.1343"><stop offset="0" stop-color="#c21413"/><stop offset=".0561" stop-color="#c51313"/><stop offset=".6687" stop-color="#e8050f"/><stop offset="1" stop-color="#f5000d"/></linearGradient><path d="m3.09 47.754c-2.359 2.15-.764 11.799 3.564 13.352 14.068 5.05 19.639-12.631 40.851-19.283 4.249-1.333 11.98-7.444 13.402-10.688 1.487-3.391 2.306-9.815-3.35-15.771-6.599-6.952-51.245 29.45-54.467 32.39z" fill="url(#a)"/><path d="m47.128 10.863c-15.124-1.913-11.946-6.102-22.895-7.701-4.563-.667-10.67.701-13.256 14.57-.939 5.031 2.643 13.271-.506 17.75-4.767 6.78-6.24 7.837-8.101 13.178-2.308 6.627 10.38 12.057 25.72-2.66 8.021-7.693 22.102-7.895 28.458-14.682 13.197-14.09-4.539-19.837-9.42-20.455z" fill="#fde0da"/><path d="m46.712 11.24c-15.124-1.914-11.53-7.452-22.479-9.051-4.563-.667-11.119 4.766-12.557 15.384-.686 5.069 1.551 10.125-.784 16.02-3.03 7.652-6.619 9.741-8.521 15.068-1.463 4.092 9.841 9.983 25.181-4.734 8.022-7.693 22.034-6.396 28.397-13.177 12.438-13.254-4.356-18.893-9.237-19.51z" fill="url(#b)"/><g fill="#fde0da"><path d="m43.974 8.873c-4.259 1.554-6.044-.106-6.934-2.665-3.624-1.412-11.995-5.63-15.651-3.72 6.195-1.226 14.025 5.516 11.706 8.091-11.953 13.262-10.274 17.667-26.559 33.552-3.609 3.521 7.262-2.273 19.715-18.691 3.789-4.995 7.939-13.883 13.858-12.057 6.945 2.143 14.608-1.152 20.26 7.479.712-5.497-11.598-12.021-16.395-11.989z"/><path d="m32.737 17.228c-.411 4.062 27.588 7.086 26.665 9.179 5.369-4.853-25.48-5.729-26.665-9.179z"/><path d="m31.542 21.554c-.41 4.063 10.766 7.703 8.851 12.038 6.067-4.804-7.666-8.588-8.851-12.038z"/><path d="m54.286 17.459c-.516-2.325-7.398-2.56-7.127-5.276-2.494 3.644 5.836 3.548 7.127 5.276z"/><path d="m49.819 20.146c-.597-4.137-13.311-5.201-12.182-10.031-5.963 6.467 9.842 6.951 12.182 10.031z"/><path d="m20.594 44.398c-4.96-1.426-12.299 10.862-17.219 7.602 4.463 8.247 12.624-7.012 17.219-7.602z"/><path d="m26.935 40.258c-3.378.855-4.104 7.208-8.366 10.385 5.719 3.205 5.972-8.502 8.366-10.385z"/><path d="m29.602 35.482c2.355-3.69-4.383-11.112-.736-14.52-7.064 2.373 1.561 10.839.736 14.52z"/><path d="m13.989 9.292c3.699-2.835 4.393 1.388 13.707.044-2.42-2.958-10.292-.685-9.811-4.941-1.439.482-3.669 3.933-3.896 4.897z"/><path d="m22.711 11.856c-.355-1.569-6.52 5.633 3.867 2.455 8.078-2.472-3.267.192-3.867-2.455z"/><path d="m15.307 26.833c-.24-2.49-8.863 6.802 4.58 5.205 2.203-4.303-4.201-1.285-4.58-5.205z"/></g></svg>