<svg enable-background="new 0 0 64 64" height="64" viewBox="0 0 64 64" width="64" xmlns="http://www.w3.org/2000/svg" xmlns:xlink="http://www.w3.org/1999/xlink"><radialGradient id="a" cx="39.502" cy="76.2002" gradientTransform="matrix(.9958 0 0 .6666 .1562 -3.7932)" gradientUnits="userSpaceOnUse" r="22.0846"><stop offset=".1091" stop-color="#ffbe82"/><stop offset=".2844" stop-color="#fdbb7e"/><stop offset=".4582" stop-color="#f8b272"/><stop offset=".6314" stop-color="#efa45e"/><stop offset=".8043" stop-color="#e28f42"/><stop offset=".9756" stop-color="#d2751f"/><stop offset="1" stop-color="#cf7119"/></radialGradient><radialGradient id="b" cx="39.1035" cy="73.0938" gradientTransform="matrix(.9958 0 0 .4617 .1562 9.9984)" gradientUnits="userSpaceOnUse" r="24.3211"><stop offset=".75" stop-color="#ffd1ad"/><stop offset=".7684" stop-color="#facaa3"/><stop offset=".7996" stop-color="#ebb689"/><stop offset=".8397" stop-color="#d4965d"/><stop offset=".8868" stop-color="#b46922"/><stop offset=".9" stop-color="#aa5c10"/><stop offset=".9216" stop-color="#8e5018"/><stop offset=".9559" stop-color="#664123"/><stop offset=".9832" stop-color="#4e372a"/><stop offset="1" stop-color="#45332c"/></radialGradient><radialGradient id="c" cx="39.1895" cy="71.6699" gradientTransform="matrix(.9958 0 0 1.0493 .1562 -32.9521)" gradientUnits="userSpaceOnUse" r="6.0539"><stop offset="0" stop-color="#633000"/><stop offset=".5933" stop-color="#aa5e16"/><stop offset="1" stop-color="#d67b24"/></radialGradient><radialGradient id="d" cx="28.9849" cy="43.1143" gradientTransform="matrix(.8878 -.4397 .2399 .5111 -5.5449 26.139)" gradientUnits="userSpaceOnUse" r="23.8252"><stop offset=".7546" stop-color="#cfc9c1"/><stop offset=".755" stop-color="#cfc9c1"/><stop offset=".8487" stop-color="#e7e1db"/><stop offset=".9332" stop-color="#f5efeb"/><stop offset="1" stop-color="#faf4f0"/></radialGradient><radialGradient id="e" cx="25.6328" cy="57.7695" gradientTransform="matrix(.9355 -.3596 .1994 .5758 -9.8149 3.6176)" gradientUnits="userSpaceOnUse" r="27.9998"><stop offset="0" stop-color="#8a3a00"/><stop offset=".1543" stop-color="#b66627"/><stop offset=".3148" stop-color="#de8e49"/><stop offset=".4428" stop-color="#f6a65e"/><stop offset=".5212" stop-color="#ffaf66"/><stop offset=".6242" stop-color="#fcab61"/><stop offset=".7444" stop-color="#f3a053"/><stop offset=".8726" stop-color="#e38d3c"/><stop offset="1" stop-color="#cf741d"/></radialGradient><radialGradient id="f" cx="28.9199" cy="60.165" gradientTransform="matrix(.9706 -.2347 .1237 .5679 -6.5553 2.7969)" gradientUnits="userSpaceOnUse" r="10.716"><stop offset=".2" stop-color="#732d13"/><stop offset=".3772" stop-color="#823a18" stop-opacity=".7785"/><stop offset=".7172" stop-color="#aa5e25" stop-opacity=".3536"/><stop offset="1" stop-color="#cf7f32" stop-opacity="0"/></radialGradient><path d="m16.734 43.731c.193 6.705 4.533 14.061 12.986 16.9 5.274 1.775 13.954 1.873 20.436 0 7.803-2.253 11.844-10.704 11.844-16.423-14.158 5.941-28.062 5.4-45.266-.477z" fill="url(#a)"/><path d="m39.615 33.167c-25.17 2.34-30.387 15.498-14.04 19.09 3.34.734 8.438 2.334 13.983 2.207 4.252-.096 9.443-1.213 12.936-1.934 5.184-1.07 7.521-4.4 9.059-6.855 1.057-1.689.162-5.873-1.82-7.279-3.018-2.143-9.717-6.198-20.118-5.229zm-.273 13.123c-2.174-.021-3.902-.34-5.203-.826.572-.918 2.27-1.676 5.145-1.676 2.881 0 4.498.799 4.994 1.746-1.251.485-2.901.779-4.936.756z" fill="url(#b)"/><path d="m39.334 38.97c-8.667 0-10.323 4.578-5.195 6.494.572-.918 2.27-1.676 5.145-1.676 2.881 0 4.498.799 4.994 1.746 4.868-1.867 3.638-6.564-4.944-6.564z" fill="url(#c)"/><path d="m51.563 33.085c-2.406.193-3.244-2.639-10.352 2.895-.496 3.072 3.963 4.297 5.357 4.316 3.744 2.135-.359 7.863-5.111 6.176-4.176-1.482-9.624.449-12.508-.914-16.201-.293-9.018 6.477-5.402 5.807.863 2.797 9.838 3.375 13.344 1.775 1.869-.855 12.062 1.072 15.939-1.311 11.426-2.363 7.977-7.953 7.711-11.557.641-1.316-1.826-4.799-6.23-4.27.154-.983-1.463-3.021-2.748-2.917z" fill="url(#d)"/><g fill="#ebe6df"><path d="m27.427 49.942c-3.579.413-5.841-1.534-6.036-3.874-1.477 4.959 5.13 6.534 11.442 5.003 1.849-.448-2.489-1.466-5.406-1.129z"/><path d="m41.223 52.261c3.572-.754 6.41 1.54 11.607-.432-3.753 3.111-17.356 3.169-17.356-2.451.082.006 3.661 3.322 5.749 2.883z"/><path d="m54.179 47.144c-3.33-1.165-5.214-.492-6.099-2.637.086 5.209 9.646 5.582 12.411.746.794-1.389-3.928 2.725-6.312 1.891z"/><path d="m52.152 40.946c1.297 2.23 5.299.996 6.742-.256 2.342-2.027-3.857 2.006-6.742.256z"/><path d="m41.457 48.444c.652 2.508 4.83 2.451 6.551 1.652 2.795-1.29-4.244.842-6.551-1.652z"/><path d="m47.936 39.245c-2.842-1.219-4.486-.254-5.361-2.4.422 5.102 7.689 4.703 10.256.633-.067-.014-3.235 2.482-4.895 1.767z"/></g><path d="m22.15 15.067c-14.723 3.998-21.684 16.485-19.867 25.204 1.658 7.971 9.846 12.018 26.984 6.961 15.952-4.709 20.36-12.703 18.809-20.354-1.762-8.695-11.935-15.611-25.926-11.811z" fill="url(#e)"/><path d="m8.597 26.985c-1.008.307-1.297-1.023-.289-1.33.936-.285 1.225 1.047.289 1.33z" fill="#45332c" opacity=".5"/><path d="m16.267 35.675c-.512.154-.66-.52-.148-.676.476-.145.623.531.148.676z" fill="#45332c" opacity=".5"/><path d="m20.539 40.298c-.512.156-.66-.52-.148-.674.476-.145.622.531.148.674z" fill="#45332c" opacity=".5"/><path d="m12.833 43.478c-.51.156-.658-.52-.148-.674.477-.145.623.531.148.674z" fill="#30170d" opacity=".7"/><path d="m7.769 36.126c-.512.154-.66-.52-.148-.676.476-.144.623.531.148.676z" fill="#30170d" opacity=".7"/><path d="m7.935 32.364c-.51.156-.658-.52-.148-.674.476-.144.623.532.148.674z" fill="#45332c" opacity=".5"/><path d="m13.248 26.448c-.51.154-.658-.52-.148-.676.476-.144.622.532.148.676z" fill="#45332c" opacity=".5"/><path d="m12.089 24.021c-.512.154-.66-.52-.148-.676.476-.145.623.531.148.676z" fill="#45332c" opacity=".5"/><path d="m10.234 28.493c-.51.154-.658-.52-.148-.676.476-.144.622.532.148.676z" fill="#30170d" opacity=".7"/><path d="m23.257 19.825c-.512.156-.66-.52-.148-.674.476-.144.623.532.148.674z" fill="#45332c" opacity=".5"/><path d="m18.541 21.731c-.512.154-.66-.52-.148-.676.476-.144.622.532.148.676z" fill="#30170d" opacity=".7"/><path d="m31.708 20.356c-.51.156-.658-.52-.148-.674.477-.144.623.532.148.674z" fill="#30170d" opacity=".7"/><path d="m35.881 17.978c-.512.156-.66-.52-.148-.674.476-.145.622.531.148.674z" fill="#45332c" opacity=".5"/><path d="m39.561 24.38c-.51.154-.658-.52-.148-.676.476-.144.622.531.148.676z" fill="#30170d" opacity=".7"/><path d="m42.713 26.173c-.51.154-.658-.52-.148-.676.476-.144.623.531.148.676z" fill="#45332c" opacity=".5"/><path d="m43.836 29.589c-.51.156-.658-.52-.148-.674.476-.144.623.531.148.674z" fill="#45332c" opacity=".5"/><path d="m40.92 31.507c-.51.154-.658-.52-.148-.676.476-.144.623.531.148.676z" fill="#45332c" opacity=".5"/><path d="m39.762 30.132c-.51.154-.658-.52-.148-.676.476-.144.622.531.148.676z" fill="#30170d" opacity=".7"/><path d="m37.023 36.757c-.51.154-.658-.52-.148-.676.477-.144.623.531.148.676z" fill="#30170d" opacity=".7"/><path d="m35.502 36.485c-.51.154-.658-.52-.148-.676.476-.144.623.532.148.676z" fill="#45332c" opacity=".5"/><path d="m32.169 39.233c-.512.154-.66-.52-.148-.676.477-.144.623.532.148.676z" fill="#45332c" opacity=".5"/><path d="m26.785 38.339c-.51.156-.658-.52-.148-.674.476-.144.622.531.148.674z" fill="#30170d" opacity=".7"/><path d="m25.677 41.679c-.51.154-.658-.52-.148-.676.476-.145.623.531.148.676z" fill="#30170d" opacity=".7"/><path d="m12.966 41.349c-1.008.307-1.299-1.021-.291-1.33.938-.286 1.227 1.046.291 1.33z" fill="#45332c" opacity=".5"/><path d="m23.341 43.062c-1.008.305-1.299-1.023-.291-1.33.938-.288 1.227 1.046.291 1.33z" fill="#45332c" opacity=".5"/><path d="m36.502 34.11c-1.008.305-1.297-1.023-.289-1.33.935-.285 1.225 1.047.289 1.33z" fill="#45332c" opacity=".5"/><path d="m37.836 22.058c-1.008.307-1.297-1.023-.289-1.332.935-.286 1.224 1.048.289 1.332z" fill="#45332c" opacity=".5"/><path d="m25.761 19.444c-1.006.309-1.297-1.021-.289-1.33.936-.285 1.225 1.047.289 1.33z" fill="#45332c" opacity=".5"/><path d="m20.056 19.024c-1.006.305-1.297-1.023-.289-1.332.936-.285 1.225 1.049.289 1.332z" fill="#45332c" opacity=".5"/><path d="m5.808 37.724c-.805.246-.773-1.021-.393-1.555.493.158 1.141 1.328.393 1.555z" fill="#ffcf9e"/><path d="m16.437 40.517c-1.053-.033-.506-1.523.16-2.004.52.384.819 2.033-.16 2.004z" fill="#ffcf9e"/><path d="m11.185 33.829c-1.035-.209-.25-1.588.486-1.951.452.467.473 2.141-.486 1.951z" fill="#ffedd1"/><path d="m9.757 38.935c-.928-.5.229-1.59 1.039-1.721.293.578-.177 2.185-1.039 1.721z" fill="#ffcf9e"/><path d="m5.949 29.903c-.873-.59.385-1.559 1.203-1.609.234.603-.393 2.156-1.203 1.609z" fill="#ffcf9e"/><path d="m24.173 36.751c.055 1.053-1.477.629-2.01.006.342-.551 1.96-.985 2.01-.006z" fill="#ffcf9e"/><path d="m20.414 42.646c.955.447-.137 1.6-.938 1.777-.326-.561.053-2.192.938-1.777z" fill="#ffedd1"/><path d="m28.716 41.489c-1.043-.145-.342-1.568.371-1.975.477.438.598 2.108-.371 1.975z" fill="#ffcf9e"/><path d="m32.007 35.175c-.57.887-1.566-.35-1.635-1.168.6-.248 2.165.346 1.635 1.168z" fill="#ffedd1"/><path d="m35.963 29.888c-.098-1.051 1.449-.691 2.008-.092-.319.566-1.916 1.064-2.008.092z" fill="#ffcf9e"/><path d="m41.051 33.925c-.59.875-1.561-.383-1.611-1.201.603-.235 2.156.39 1.611 1.201z" fill="#ffcf9e"/><path d="m45.18 27.345c-.898.553-1.262-.994-.969-1.76.646.035 1.801 1.248.969 1.76z" fill="#ffcf9e"/><path d="m40.096 27.083c-.27 1.018-1.598.15-1.916-.607.494-.42 2.166-.34 1.916.607z" fill="#ffedd1"/><path d="m40.545 21.421c-.768-.723.631-1.477 1.447-1.395.135.635-.734 2.065-1.447 1.395z" fill="#ffcf9e"/><path d="m34.293 20.249c-.541-.668.67-1.127 1.32-.973.041.528-.816 1.59-1.32.973z" fill="#ffcf9e"/><path d="m28.941 16.337c.699-.5 1.084.734.891 1.377-.528.008-1.538-.91-.891-1.377z" fill="#ffedd1"/><path d="m23.466 16.56c.834.207.145 1.303-.469 1.572-.347-.397-.304-1.762.469-1.572z" fill="#ffcf9e"/><path d="m22.099 22.077c-.346.787-1.309-.08-1.469-.73.45-.276 1.787 0 1.469.73z" fill="#ffcf9e"/><path d="m16.033 24.308c-.684-.52.385-1.252 1.055-1.256.16.502-.419 1.736-1.055 1.256z" fill="#ffedd1"/><path d="m13.166 20.97c.096-.855 1.271-.313 1.619.26-.35.396-1.707.531-1.619-.26z" fill="#ffcf9e"/><path d="m29.052 30.483c-4.221-1.957-10.27 1.551-12.355.027-6.299-4.59 21.264-12.229 16.735-4.178-.925 1.644-3.829.493-4.38 4.151z" fill="url(#f)"/></svg>