<svg enable-background="new 0 0 64 64" height="64" viewBox="0 0 64 64" width="64" xmlns="http://www.w3.org/2000/svg"><path d="m46.142 58.835c-.1 0-.197-.001-.297-.007-1.41-.071-2.699-.66-3.621-1.655-.867-.935-1.303-2.126-1.229-3.355.051-.793-.088-1.611-.424-2.482-6.127 2.031-12.716 1.939-18.736-.284-2.65-.977-5.08-2.327-7.238-4.023-1.174 1.118-2.146 2.317-2.957 3.65-.91 1.494-2.633 2.421-4.494 2.422-.863 0-1.719-.204-2.478-.588-1.233-.625-2.115-1.66-2.485-2.913-.358-1.212-.188-2.481.479-3.577 1.478-2.426 3.283-4.554 5.504-6.485-2.392-4.254-3.522-9.158-3.274-14.235.625-12.728 7.26-17.386 11.158-19.032 1.999-.843 4.145-1.271 6.375-1.271 3.612 0 7.244 1.165 10.228 3.282.648.456 1.273.961 1.863 1.508 3.008-1.785 6.326-2.724 9.646-2.724 4.232 0 8.186 1.488 11.436 4.308 3.699 3.208 5.859 7.733 6.086 12.74.207 4.551-1.088 11.564-8.422 19.141-1.162 1.201-2.402 2.309-3.695 3.297 1.314 2.601 1.875 5.162 1.711 7.806-.156 2.511-2.412 4.477-5.136 4.477zm-22.452-17.474c.634.33 1.292.621 1.968.868 1.877.693 3.841 1.044 5.845 1.044.818 0 1.643-.059 2.463-.176l-.467-.46c-1.318-1.298-2.639-2.599-3.867-3.94-1.082.513-2.183.995-3.252 1.465-.847.372-1.764.776-2.69 1.199zm14.12-8.468c.908.976 1.955 2.021 3.201 3.246.846.829 1.732 1.702 2.604 2.601.682-.557 1.342-1.164 1.967-1.81 3.922-4.05 5.982-8.476 5.803-12.459-.111-2.49-1.121-4.684-2.842-6.176-1.279-1.11-2.869-1.723-4.477-1.723-1.494 0-2.992.506-4.461 1.507.916 3.177 1.021 6.705.303 10.251-.339 1.686-1.028 3.186-2.098 4.563zm-15.362-18.404c-.741 0-1.451.142-2.111.418-3 1.266-4.88 5.211-5.155 10.821-.145 2.961.373 5.803 1.502 8.282 1.791-.896 3.537-1.663 5.231-2.409.878-.387 1.681-.74 2.417-1.076-.055-.16-.107-.321-.157-.483-1.413-4.59-.401-9.155 3.007-13.582-.253-.232-.521-.449-.803-.648-1.222-.866-2.582-1.323-3.931-1.323z" fill="#d47706"/><path d="m15.468 34.626c.469-.197 1.514-.765 1.514-.765-4.615-12.356 1.529-20.509 7.362-19.105-6.274-3.185-13.542 6.596-8.876 19.87z" fill="#ab5c10"/><path d="m50.858 8.407c15.469 7.592 12.57 26.79-3.074 37.302.322.685.576 1.394.832 2.104 17.842-12.214 17.084-34.122 2.242-39.406z" fill="#ab5c10"/><path d="m39.628 49.763c-5.133 2.978-15.845 2.276-20.974-.118 5.169 2.994 14.191 4.616 21.914 1.698-.387-.863-.94-1.58-.94-1.58z" fill="#ab5c10"/><path d="m47.235 42.723c-1.377-1.726-4.752-5.203-5.619-6.053-4.338-4.263-9.553-9.532-9.342-13.828-1.605 4.127 1.516 7.524 7 12.915 4.895 4.812 10.441 10.269 9.992 17.511-.264 4.27-4.299 5.887-6.813 4.134 3.777 3.342 8.867 1.027 9.123-3.099.277-4.449-1.649-8.201-4.341-11.58z" fill="#ab5c10"/><path d="m38.954 18.785c2.832-2.326 5.406-2.598 8.104-1.488-1.93-2.096-5.703-2.619-9.105-.487.413.618.769 1.282 1.001 1.975z" fill="#ab5c10"/><path d="m28.391 37.193c-1.617.85-3.19 1.528-4.903 2.28-5.727 2.518-11.651 5.117-15.168 10.891-1.191 1.948-3.203 2.396-4.711 1.437 2.748 2.435 6.718 1.371 7.916-.594 3.519-5.772 8.547-8.183 14.274-10.7 1.426-.628 2.515-1.085 3.889-1.771-.452-.537-1.297-1.543-1.297-1.543z" fill="#ab5c10"/><path d="m29.339 6.431c9.984 4.284 11.519 19.561 7.183 24.937.568.59 1.008 1.181 1.541 1.796 5.379-8.236 2.551-22.821-8.724-26.733z" fill="#ab5c10"/><g fill="#fed0ac"><path d="m54.892 13.847c0 1.082-1.596 1.082-1.596 0s1.596-1.082 1.596 0z"/><path d="m58.056 29.848c0 1.082-1.596 1.082-1.596 0s1.596-1.082 1.596 0z"/><path d="m52.401 34.44c0 1.082-1.596 1.082-1.596 0s1.596-1.082 1.596 0z"/><path d="m59.118 22.842c0 1.082-1.596 1.082-1.596 0s1.596-1.082 1.596 0z"/><path d="m52.052 41.266c0 1.082-1.596 1.082-1.596 0s1.596-1.082 1.596 0z"/><path d="m32.833 36.755c0 1.082-1.596 1.082-1.596 0s1.596-1.082 1.596 0z"/><path d="m33.571 12.781c0 1.082-1.596 1.082-1.596 0 .001-1.084 1.596-1.084 1.596 0z"/><path d="m12.435 12.78c0 1.082-1.596 1.082-1.596 0s1.596-1.082 1.596 0z"/><path d="m12.856 19.597c0 1.082-1.596 1.082-1.596 0s1.596-1.082 1.596 0z"/><path d="m34.538 47.316c0 1.082-1.596 1.082-1.596 0s1.596-1.082 1.596 0z"/><path d="m23.539 47.681c0 1.082-1.596 1.082-1.596 0s1.596-1.082 1.596 0z"/><path d="m9.705 36.133c0 1.082-1.596 1.082-1.596 0s1.596-1.082 1.596 0z"/><path d="m16.411 40.651c0 1.082-1.596 1.082-1.596 0s1.596-1.082 1.596 0z"/><path d="m18.654 35.734c0 1.082-1.596 1.082-1.596 0s1.596-1.082 1.596 0z"/><path d="m25.94 36.133c0 1.082-1.596 1.082-1.596 0s1.596-1.082 1.596 0z"/><path d="m26.89 25.199c0 .813-1.2.813-1.2 0s1.2-.813 1.2 0z"/><path d="m7.216 49.645c0 1.082-1.596 1.082-1.596 0s1.596-1.082 1.596 0z"/><path d="m8.907 41.732c0 1.082-1.596 1.082-1.596 0s1.596-1.082 1.596 0z"/><path d="m36.999 24.098c0 1.082-1.596 1.082-1.596 0 0-1.084 1.596-1.084 1.596 0z"/><path d="m23.406 7.863c0 1.082-1.596 1.082-1.596 0 0-1.084 1.596-1.084 1.596 0z"/><path d="m12.856 31.473c0 1.082-1.596 1.082-1.596 0 0-1.084 1.596-1.084 1.596 0z"/><path d="m43.304 9.219c0 1.082-1.596 1.082-1.596 0s1.596-1.082 1.596 0z"/><path d="m44.237 54.555c0 1.082-1.596 1.082-1.596 0s1.596-1.082 1.596 0z"/><path d="m41.644 46.014c0 1.082-1.596 1.082-1.596 0s1.596-1.082 1.596 0z"/><path d="m39.29 43.355c0 .813-1.2.813-1.2 0s1.2-.813 1.2 0z"/><path d="m25.742 49.645c0 .813-1.2.813-1.2 0s1.2-.814 1.2 0z"/><path d="m29.339 50.255c0 .813-1.2.813-1.2 0s1.2-.814 1.2 0z"/><path d="m27.856 47.115c0 .813-1.2.813-1.2 0s1.2-.813 1.2 0z"/><path d="m32.036 15.445c0 .813-1.201.813-1.201 0s1.201-.813 1.201 0z"/><path d="m35.019 15.242c0 .813-1.199.813-1.199 0s1.199-.813 1.199 0z"/><path d="m29.364 10.227c0 .813-1.2.813-1.2 0s1.2-.814 1.2 0z"/><path d="m27.708 12.914c0 .813-1.2.813-1.2 0s1.2-.813 1.2 0z"/><path d="m35.989 19.617c0 .813-1.2.813-1.2 0s1.2-.813 1.2 0z"/><path d="m54.893 31.674c0 .813-1.2.813-1.2 0s1.2-.814 1.2 0z"/><path d="m58.921 26.621c0 .813-1.2.813-1.2 0s1.2-.813 1.2 0z"/><path d="m55.493 26.534c0 .813-1.201.813-1.201 0s1.201-.813 1.201 0z"/><path d="m55.731 22.231c0 .813-1.2.813-1.2 0s1.2-.813 1.2 0z"/><path d="m57.858 18.785c0 .813-1.2.813-1.2 0s1.2-.813 1.2 0z"/><path d="m44.838 44.576c0 .813-1.2.813-1.2 0s1.2-.813 1.2 0z"/><path d="m44.04 49.645c0 .813-1.2.813-1.2 0s1.2-.814 1.2 0z"/><path d="m19.254 38.422c0 .813-1.2.813-1.2 0s1.2-.814 1.2 0z"/><path d="m14.815 37.566c0 .813-1.2.813-1.2 0s1.2-.813 1.2 0z"/><path d="m9.507 17.69c0 .813-1.2.813-1.2 0s1.2-.813 1.2 0z"/><path d="m15.548 15.445c0 .813-1.2.813-1.2 0s1.2-.813 1.2 0z"/><path d="m16.148 11.589c0 .813-1.2.813-1.2 0s1.2-.814 1.2 0z"/><path d="m11.86 42.343c0 .813-1.2.813-1.2 0s1.2-.814 1.2 0z"/></g></svg>