<svg enable-background="new 0 0 64 64" height="64" viewBox="0 0 64 64" width="64" xmlns="http://www.w3.org/2000/svg" xmlns:xlink="http://www.w3.org/1999/xlink"><linearGradient id="a" gradientUnits="userSpaceOnUse" x1="32.0005" x2="32.0005" y1="62" y2="2.0005"><stop offset=".2" stop-color="#ff3e2e"/><stop offset=".5226" stop-color="#fa6019"/><stop offset=".8185" stop-color="#f7780a"/><stop offset="1" stop-color="#f68104"/></linearGradient><linearGradient id="b"><stop offset="0" stop-color="#75d6ff"/><stop offset=".272" stop-color="#72d5fe"/><stop offset=".4586" stop-color="#69d2fa"/><stop offset=".6195" stop-color="#5acdf4"/><stop offset=".7658" stop-color="#44c6ea"/><stop offset=".9011" stop-color="#29bddf"/><stop offset="1" stop-color="#0fb4d4"/></linearGradient><radialGradient id="c" cx="56.3809" cy="31.9746" gradientTransform="matrix(.9633 -.2685 .4667 1.6745 -12.8521 -6.4315)" gradientUnits="userSpaceOnUse" r="4.4476" xlink:href="#b"/><radialGradient id="d" cx="1274.1484" cy="38.9766" gradientTransform="matrix(-.9633 -.2685 -.4667 1.6745 1252.7985 315.7705)" gradientUnits="userSpaceOnUse" r="4.4476" xlink:href="#b"/><radialGradient id="e" cx="1331.5508" cy="147.7158" gradientTransform="matrix(-.8895 -.4569 -.7942 1.5463 1320.0049 392.613)" gradientUnits="userSpaceOnUse" r="3.34" xlink:href="#b"/><linearGradient id="f" gradientUnits="userSpaceOnUse" x1="32.0015" x2="32.0015" y1="62" y2="45"><stop offset=".0848" stop-color="#ff8fa8"/><stop offset=".3842" stop-color="#fd8da6"/><stop offset=".5541" stop-color="#f8849e"/><stop offset=".6916" stop-color="#ee7791"/><stop offset=".8117" stop-color="#e0637f"/><stop offset=".9194" stop-color="#ce4967"/><stop offset="1" stop-color="#bd3150"/></linearGradient><circle cx="32.001" cy="32" fill="url(#a)" r="30"/><path d="m45.718 48c-1.5-3.592-5.146-6-13.717-6-8.568 0-12.213 2.408-13.715 6-.801 1.918.346 3.998.346 3.998.449 1.219 2.215 2.002 13.371 2.002 11.143 0 12.922-.783 13.369-2.002 0 0 1.147-2.08.346-3.998z" fill="#1a1626"/><path d="m9.458 26.285c5.242.236 11.211-1.973 13.488-4.766.477-.59-.721-3.061-1.184-2.621-3.561 3.379-8.396 5.719-13.248 5.811-.65.012.157 1.541.944 1.576z" fill="#8f0505"/><path d="m54.544 26.283c-5.24.238-11.207-1.971-13.484-4.764-.48-.588.721-3.063 1.184-2.621 3.561 3.375 8.396 5.719 13.244 5.809.652.012-.155 1.541-.944 1.576z" fill="#8f0505"/><path d="m55.663 40.191c3.168 2.932 10.709-2.773 0-13.303 2.281 6.651-2.779 10.729 0 13.303z" fill="url(#c)"/><path d="m7.952 47.193c-3.168 2.932-10.709-2.773 0-13.303-2.281 6.651 2.779 10.729 0 13.303z" fill="url(#d)"/><path d="m17.56 18.828c-2.773 1.676-7.457-3.66 2.012-9.787-2.684 4.549.421 8.313-2.012 9.787z" fill="url(#e)"/><circle cx="22.001" cy="33.001" fill="#1a1626" r="4.5"/><circle cx="42.001" cy="33.001" fill="#1a1626" r="4.5"/><path d="m23.251 47.806v3.306c0 7.249 3.92 10.886 8.75 10.889 4.832-.003 8.75-3.64 8.75-10.889 0-1.328 0-2.567 0-3.306 0-4.331-8.75-2.356-8.75-2.356s-8.75-1.975-8.75 2.356z" fill="url(#f)"/><path d="m30.757 45.227 1.244 10.806 1.24-10.806c-.748.112-1.24.223-1.24.223s-.496-.111-1.244-.223z" fill="#c43755"/></svg>