<svg enable-background="new 0 0 64 64" height="64" viewBox="0 0 64 64" width="64" xmlns="http://www.w3.org/2000/svg"><path d="m47.1 8.469c-1.564-1.094-5.692-3.149-6.74-3.562-2.354.2-3.508-2.907-3.508-2.907h-9.703s-.855 3.045-3.508 2.907c-1.045.412-5.174 2.468-6.738 3.562-1.713 1.196-11.831 30.47-11.903 31.677 1.143 2.225 8.619 5.518 9.249 3.844 1.511-4.02 4.324-12.926 4.324-12.926s-.657 15.814-1.187 27.056c-.111 2.356 9.516 3.956 16.581 3.877l-.002-.489c6.149-.191 12.747-1.317 12.647-3.388-.527-11.241-1.186-27.056-1.186-27.056s2.813 8.906 4.325 12.926c.628 1.674 7.985-1.549 9.247-3.844-.07-1.207-10.186-30.481-11.898-31.677z" fill="#e6ebef"/><path d="m31.046 14.883c7.345-4.23 5.806-12.883 5.806-12.883h-9.703c-.001 0-1.006 9.475 3.897 12.883z" fill="#99a8ae"/><path d="m33.383 25.416c0 1.322-2.116 1.322-2.116 0s2.116-1.322 2.116 0z" fill="#4e5e67"/><path d="m33.383 37.071c0 1.322-2.116 1.322-2.116 0 0-1.323 2.116-1.323 2.116 0z" fill="#4e5e67"/><path d="m33.383 48.729c0 1.322-2.113 1.322-2.113 0 0-1.325 2.113-1.325 2.113 0z" fill="#4e5e67"/><g fill="#99a8ae"><path d="m19.061 28.626c-1.287 4.63-2.725 9.058-3.523 11.3-.088.249-2.895.063-6.436-1.125 3.668 1.906 6.1 1.911 6.059 2.022-.867 2.3-1.179 2.851-1.35 2.863-3.287.236-6.179-.896-8.811-3.54.449 1.857 4.856 4.434 9.395 4.635.386.016 2.398-4.521 1.84-4.745.572-1.695 1.988-6.864 1.988-6.864l-.234 11.609c-.001 0 1.205-8.702 1.072-16.155z"/><path d="m44.941 28.626c1.286 4.63 2.724 9.058 3.521 11.3.088.249 2.896.063 6.436-1.125-3.668 1.906-6.1 1.911-6.059 2.022.867 2.3 1.18 2.851 1.35 2.863 3.286.235 6.18-.896 8.811-3.54-.449 1.857-4.856 4.434-9.393 4.635-.387.016-2.4-4.521-1.841-4.745-.573-1.695-1.989-6.864-1.989-6.864l.235 11.609c.001 0-1.205-8.702-1.071-16.155z"/><path d="m27.385 54.232c-.982.846-6.779.393-7.969-.896-.444-.483-.535-7.913-.535-7.913s-.592 7.674 0 8.316c1.6 1.734 7.441 2.394 9.039 1.018.341-.294 0-8.321 0-8.321s-.303 7.597-.535 7.796z"/><path d="m18.746 43.568c3.084.822 6.226 1.177 9.31 1.05v3.076c-3.084.127-6.226-.228-9.31-1.05 0-1.025 0-2.05 0-3.076z"/><path d="m36.615 54.232c.982.846 6.779.393 7.969-.896.444-.483.535-7.913.535-7.913s.591 7.674 0 8.316c-1.6 1.734-7.441 2.394-9.038 1.018-.342-.294 0-8.321 0-8.321s.302 7.597.534 7.796z"/><path d="m45.254 43.568c-3.084.822-6.226 1.177-9.31 1.05v3.076c3.084.127 6.226-.228 9.31-1.05 0-1.025 0-2.05 0-3.076z"/><path d="m36.777 28.191c.786.676 5.434.313 6.386-.72.356-.386.429-6.341.429-6.341s.475 6.148 0 6.663c-1.281 1.392-5.963 1.919-7.242.817-.275-.236 0-6.67 0-6.67s.24 6.09.427 6.251z"/><path d="m43.699 19.645c-2.471.658-4.988.943-7.459.842v2.465c2.471.102 4.988-.184 7.459-.842 0-.822 0-1.644 0-2.465z"/></g><path d="m30.969 16.755c4.332-4.753 6.422-11.537 6.422-11.537h-10.782s.745 7.034 4.36 11.537z" fill="#6e8189"/><path d="m27.148 2c-2.035 2.241-3.453 2.254-3.508 2.907 1.574 3.066.119 7.441.119 7.441s1.842-.334 2.719-.438c-.622 1.983-1.028 2.09-1.883 3.156 3.427 1.922 7.668 5.844 9.299 7.484-.341-2.157-6.83-14.603-6.746-20.55z" fill="#e6ebef"/><path d="m17.371 10.014c.709 6.438.967 14.084.967 14.084s-.773-2.376-3.074-4.095c1.367 1.985 2.768 5.234 2.768 5.234s-1.818-1.236-3.137-.703c2.622.281 4.176 2.682 4.176 2.682-.343-2.158-.413-10.276-1.7-17.202z" fill="#99a8ae"/><path d="m46.629 10.014c-.708 6.438-.966 14.084-.966 14.084s.772-2.376 3.073-4.095c-1.367 1.985-2.768 5.234-2.768 5.234s1.818-1.236 3.138-.703c-2.622.281-4.176 2.682-4.176 2.682.343-2.158.412-10.276 1.699-17.202z" fill="#99a8ae"/><path d="m40.359 4.907c-1.355 2.479-.174 6.331-.174 6.331s-1.568-.252-2.943.359c0 0 .595 1.952 1.351 3.285 0 0-6.64 3.593-7.626 1.996-.194-2.046 5.885-9.41 5.885-14.878 1.734 2.336 3.495 2.254 3.507 2.907z" fill="#e6ebef"/><path d="m23.641 4.907c1.13 3.015-.094 6.974-.557 8.784 0 0 1.471-.604 2.791-.865 0 0-.813 1.316-1.666 2.382 2.675 1.175 8.243 6.229 9.4 7.753.949 1.249-.227 28.496.356 38.548.331-24.438.81-38.21.476-39.036-1.609-3.097-3.783-8.045-3.783-8.045.792 3.216 3.035 7.708 2.914 7.569-2.576-2.933-5.567-5.503-8.207-7.455 0 0 1.105-1.903 1.997-3.342-1.858.124-3.286.372-3.286.372s1.139-3.604-.435-6.665z" fill="#99a8ae"/><path d="m40.359 4.907c-1.354 2.475-.526 5.704-.526 5.704s-1.619-.014-2.995.597c0 0 .586 1.896 1.344 3.226 0 0-3.697 1.33-6.514 2.461.354 2.289.021.555 7.641-1.629-1.177-1.357-1.494-2.653-1.494-2.653s1.371-.489 3.158-.374c-1.373-2.09-1.207-5.384-.614-7.332z" fill="#99a8ae"/></svg>