<svg enable-background="new 0 0 64 64" height="64" viewBox="0 0 64 64" width="64" xmlns="http://www.w3.org/2000/svg" xmlns:xlink="http://www.w3.org/1999/xlink"><linearGradient id="a" gradientUnits="userSpaceOnUse" x1="1.9995" x2="62" y1="32.2334" y2="32.2334"><stop offset="0" stop-color="#f68"/><stop offset="1" stop-color="#ff94ac"/></linearGradient><linearGradient id="b" gradientUnits="userSpaceOnUse" x1="20.6567" x2="32.8087" y1="31.5913" y2="19.4393"><stop offset="0" stop-color="#a60042"/><stop offset=".486" stop-color="#d3276c"/><stop offset="1" stop-color="#ff4d94"/></linearGradient><linearGradient id="c"><stop offset="0" stop-color="#d62382"/><stop offset=".0656" stop-color="#db2884"/><stop offset=".3632" stop-color="#ec3b8c"/><stop offset=".6705" stop-color="#f74691"/><stop offset="1" stop-color="#fa4a93"/></linearGradient><linearGradient id="d" gradientUnits="userSpaceOnUse" x1="45.1719" x2="45.1719" xlink:href="#c" y1="53.6748" y2="45.4551"/><linearGradient id="e" gradientUnits="userSpaceOnUse" x1="55.875" x2="55.875" xlink:href="#c" y1="49.1816" y2="41.7295"/><radialGradient id="f" cx="51.4355" cy="46.041" gradientTransform="matrix(.8445 -.5355 .6425 1.0133 -21.5851 26.9312)" gradientUnits="userSpaceOnUse" r="3.5119"><stop offset="0" stop-color="#ff4d94"/><stop offset=".2233" stop-color="#fb4a91"/><stop offset=".4316" stop-color="#f04086"/><stop offset=".6341" stop-color="#dd3075"/><stop offset=".8316" stop-color="#c3195d"/><stop offset="1" stop-color="#a60042"/></radialGradient><path d="m3.249 24.221c-2.62 4.806 2.451 7.735 8.369 11.799l.6-.957c17.587 10.877 7.855 22.26 31.24 26.01 9.373 1.502 18.008 1.855 18.18-4.252.081-2.969-57.891-33.512-58.389-32.6z" fill="#8c0b5e"/><path d="m6.665 3.947c-8.303 19.617-4.891 23.205 5.252 29.547 19.919 12.453 7.869 22.141 31.24 26.01 16.402 2.717 19.287-.594 18.793-3.193-2.833-14.862-26.995-26.393-55.285-52.364z" fill="url(#a)"/><path d="m16.764 4.518c-10.717-6.987-13.291 2.357-9.996 6.416 8.959 11.031 8.346 26.377 27.39 33.018 9.799 3.418 21.924.471 17.703-3.43-15.435-14.254-18.451-25.153-35.097-36.004z" fill="#ff9cb2"/><path d="m21.456 8.676c-12.741-10.998-15.401-3.447-12.952.351 11.508 17.854 8.758 24.24 25.234 32.176 6.564 3.16 19.027.926 17.184-.721-15.651-13.976-10.959-15.832-29.466-31.806z" fill="url(#b)"/><path d="m50.637 47.199c-.572-2.971-7.521-1.502-10.445-.301-2.924 1.203 4.023 1.299 7.43 5.457s3.507-2.615 3.015-5.156z" fill="url(#d)"/><path d="m57.738 43.289c.721-3.389-3.594-.4-4.92.959-1.547 1.588 3.24 4.045 5.621 4.816s-1.421-2.384-.701-5.775z" fill="url(#e)"/><path d="m53.121 45.578c.734-3.84-7.682-1.152-3.609 1.012.113 3.183 7.65 1.875 3.609-1.012z" fill="url(#f)"/></svg>