<svg enable-background="new 0 0 64 64" height="64" viewBox="0 0 64 64" width="64" xmlns="http://www.w3.org/2000/svg"><path d="m42.482 13.483c-7.051.882-13.393-1.942-19.32.621-6.67 2.887-9.805 17.416-17.342 17.416v5.178c10.299 0 11.783-14.37 18.574-17.752 5.781-2.882 10.512.66 18.307-.804 5.783-1.089 6.963 18.708 15.674 18.708v-5.178c-5.469 0-6.734-19.334-15.893-18.189z" fill="#302c3b"/><path d="m58.881 37.792c0-5.219-2.99-10.313-11.201-10.313h-31.359c-8.211 0-11.201 5.094-11.201 10.313 0 4.611 1.992 11.625 10.081 12.189 8.959.627 10.514-2.732 12.316-5.547 1.537-2.387 7.432-2.387 8.963 0 1.807 2.814 3.361 6.174 12.32 5.547 8.087-.564 10.081-7.578 10.081-12.189z" fill="#e6ebef" opacity=".5"/><path d="m47.68 27.479h-31.359c-8.211 0-11.201 5.094-11.201 10.313 0 4.611 1.992 11.625 10.081 12.189 7.168.5 9.594-1.184 11.202-3.725-1.214.947-6.407.576-9.523.357-5.661-.395-7.056-5.303-7.056-8.531 0-3.656 2.093-7.222 7.841-7.222h28.671c5.748 0 7.84 3.565 7.84 7.222 0 3.229-1.395 8.137-7.057 8.531-3.113.219-8.309.59-9.523-.357 1.609 2.541 4.035 4.225 11.205 3.725 8.086-.564 10.08-7.578 10.08-12.189 0-5.219-2.99-10.313-11.201-10.313z" fill="#e6ebef" opacity=".5"/><path d="m47.139 50.981c-.002 0-.002 0-.002 0-7.371 0-9.527-2.586-11.104-5.219-1.68-2.832-6.541-2.535-8.068 0-1.691 2.828-4.013 5.771-12.857 5.154-8.19-.569-11.108-7.153-11.108-13.124 0-5.44 3.237-11.254 12.321-11.254h31.359c9.084 0 12.32 5.814 12.32 11.254 0 5.971-2.918 12.555-11.105 13.125-.62.043-1.204.064-1.756.064zm-9.104-6.062c1.529 2.557 3.113 4.182 9.102 4.182h.002c.494 0 1.016-.018 1.568-.055 8.617-.604 9.053-9.479 9.053-11.254 0-2.818-.982-9.373-10.08-9.373h-31.359c-9.098 0-10.08 6.555-10.08 9.373 0 1.775.436 10.65 9.053 11.254 7.248.508 9.015-1.359 10.67-4.127 2.573-4.311 9.483-4.324 12.071 0z" fill="#bec3cf"/><path d="m5.539 43.511s-1.582-.912-1.922-1.307c-1.354-1.574-1.354-7.334 0-8.908.34-.395 1.922-1.309 1.922-1.309z" fill="#bec3cf"/><path d="m2 34.294h1.301v6.912h-1.301z" fill="#302c3b"/><path d="m4.578 34.294h.793v6.912h-.793z" fill="#302c3b"/><path d="m58.463 43.511s1.58-.912 1.922-1.307c1.354-1.574 1.354-7.334 0-8.908-.342-.395-1.922-1.309-1.922-1.309z" fill="#bec3cf"/><g fill="#302c3b"><path d="m60.701 34.294h1.299v6.912h-1.299z"/><path d="m58.631 34.294h.793v6.912h-.793z"/></g></svg>