<svg enable-background="new 0 0 64 64" height="64" viewBox="0 0 64 64" width="64" xmlns="http://www.w3.org/2000/svg" xmlns:xlink="http://www.w3.org/1999/xlink"><radialGradient id="a" cx="88.333" cy="-98.834" gradientTransform="matrix(1 0 0 -1 -56 -80)" gradientUnits="userSpaceOnUse" r="48.0499"><stop offset="0" stop-color="#d16600"/><stop offset=".1741" stop-color="#cc6100"/><stop offset=".3852" stop-color="#bd5400"/><stop offset=".6156" stop-color="#a43e00"/><stop offset=".8579" stop-color="#832000"/><stop offset="1" stop-color="#6b0b00"/></radialGradient><linearGradient id="b"><stop offset="0" stop-color="#bd8a3e"/><stop offset="1" stop-color="#78441f"/></linearGradient><linearGradient id="c" gradientUnits="userSpaceOnUse" x1="10.8745" x2="20.3955" xlink:href="#b" y1="15.5474" y2="15.5474"/><linearGradient id="d" gradientTransform="matrix(-1 0 0 1 1295.5508 0)" gradientUnits="userSpaceOnUse" x1="1242.4258" x2="1251.9463" xlink:href="#b" y1="15.5474" y2="15.5474"/><path d="m56 22.345s2.441 0 4.732 1.478c0 0 .301-8.719-9.494-12.879 0 0 2.396-.998 5.25-.691 0 0-5.445-6.15-14.947-4.604 0 0 1.201-1.582 3.867-2.391-9.576-3.481-13.408 1.37-13.408 1.37s-3.832-4.852-13.408-1.371c2.666.809 3.867 2.391 3.867 2.391-9.502-1.547-14.947 4.604-14.947 4.604 2.854-.307 5.25.691 5.25.691-9.795 4.16-9.494 12.879-9.494 12.879 2.291-1.477 4.732-1.477 4.732-1.477-9.879 10.724-4.582 19.616-4.582 19.616 1.727-3.41 3.906-4.219 3.906-4.219-1.502 14.098 7.322 18.164 7.322 18.164.752-2.379 2.354-3.996 2.354-3.996 1.967 5.344 6.736 7.383 6.736 7.383-.148-2.848 1.504-4.289 1.504-4.289 1.903 6.258 11.268 6.996 11.268 6.996s-2.941-4.148 2.252-6.996c0 0 1.652.598 1.504 3.445 0 0 4.771-1.195 6.736-6.539 0 0 2.502.773 3.254 3.152 0 0 7.924-3.224 6.424-17.32 0 0 2.178.809 3.904 4.219 0 0 5.297-8.893-4.582-19.616z" fill="url(#a)"/><path d="m32 15.228c-9.328 10.365-21.499 8.688-19.813 20.875.723 5.215 3.24 7.297 7.608 8.965 4.354 1.66.603 6.463 12.203 6.463s7.849-4.803 12.203-6.463c4.368-1.668 6.887-3.75 7.608-8.965 1.69-12.187-10.481-10.51-19.809-20.875z" fill="#f9b700"/><path d="m32.016 18.798-1.752 4.202 1.752 13.104 1.72-13.104z" fill="#fff"/><path d="m39.979 40.495c-2.955-1.923-13.438-2.062-16.115.052-3.016 2.381-4.008 9.48 2.992 12.569l1.068-1.435s1.26 2.024 4.01 2.725c2.75-.699 4.018-2.725 4.018-2.725l1.07 1.435c7.024-3.098 6.296-10.448 2.957-12.621z" fill="#ffe8bb"/><path d="m37.895 39.076c-2.328-1.569-9.594-1.482-11.787 0-.844.566 1.557 4.197 5.891 4.197 4.342 0 6.735-3.63 5.896-4.197z" fill="#302c3b"/><path d="m31.999 41.287c-1.524 7.164-5.101 5.563-6.845 4.49-2.852-1.756 2.869 5.412 6.845.896 3.976 4.516 9.699-2.652 6.847-.896-1.744 1.073-5.323 2.674-6.847-4.49z" fill="#302c3b"/><g fill="#d6a57c"><path d="m36.177 43.314c0 .737 1.106.737 1.106 0 0-.736-1.106-.736-1.106 0z"/><path d="m38.035 42.07c0 .738 1.105.738 1.105 0 .003-.737-1.105-.737-1.105 0z"/><path d="m38.174 44.615c0 .738 1.105.738 1.105 0 0-.737-1.105-.737-1.105 0z"/><path d="m39.896 43.387c0 .736 1.105.736 1.105 0 .001-.739-1.105-.739-1.105 0z"/><path d="m27.823 43.314c0 .737-1.106.737-1.106 0 0-.736 1.106-.736 1.106 0z"/><path d="m25.965 42.07c0 .738-1.105.738-1.105 0-.003-.737 1.105-.737 1.105 0z"/><path d="m25.826 44.615c0 .738-1.105.738-1.105 0 0-.737 1.105-.737 1.105 0z"/><path d="m24.104 43.387c0 .736-1.105.736-1.105 0-.001-.739 1.105-.739 1.105 0z"/></g><path d="m44.945 32.935c0 5.487-6.225 5.487-6.225 0 .001-5.486 6.225-5.486 6.225 0z" fill="#302c3b"/><path d="m41.754 31.537c0 1.369-1.914 1.369-1.914 0 0-1.373 1.914-1.373 1.914 0z" fill="#6e8189"/><path d="m25.279 32.935c0 5.487-6.227 5.487-6.227 0 .001-5.486 6.227-5.486 6.227 0z" fill="#302c3b"/><path d="m22.086 31.537c0 1.369-1.914 1.369-1.914 0 0-1.373 1.914-1.373 1.914 0z" fill="#6e8189"/><path d="m11.882 21.791c-4.363-3.869-3.094-12.111-.627-14.113 2.543-2.064 10.371.652 12.406 4.781-1.167.456-2.266 1.005-3.293 1.614-4.037-1.323-8.902 2.708-7.428 6.405-.394.466-.748.908-1.058 1.313z" fill="#f9b700"/><path d="m12.94 20.479c-3.064-2.475-2.244-8.059-.592-9.398 1.635-1.328 6.59.359 8.047 2.979-3.214 1.901-5.732 4.387-7.455 6.419z" fill="url(#c)"/><path d="m52.118 21.791c4.363-3.869 3.094-12.111.627-14.113-2.543-2.064-10.371.652-12.406 4.781 1.167.456 2.266 1.005 3.293 1.614 4.037-1.323 8.902 2.708 7.428 6.405.394.466.748.908 1.058 1.313z" fill="#f9b700"/><path d="m51.06 20.479c3.064-2.475 2.244-8.059.592-9.398-1.635-1.328-6.59.359-8.047 2.979 3.214 1.901 5.732 4.387 7.455 6.419z" fill="url(#d)"/></svg>