<svg enable-background="new 0 0 64 64" height="64" viewBox="0 0 64 64" width="64" xmlns="http://www.w3.org/2000/svg" xmlns:xlink="http://www.w3.org/1999/xlink"><linearGradient id="a"><stop offset="0" stop-color="#b3806a"/><stop offset=".4547" stop-color="#956b58"/><stop offset=".9515" stop-color="#785647"/></linearGradient><linearGradient id="b" gradientUnits="userSpaceOnUse" x1="9.8667" x2="23.8379" xlink:href="#a" y1="34.6211" y2="34.6211"/><linearGradient id="c" gradientUnits="userSpaceOnUse" x1="17.7998" x2="17.7998" y1="25.064" y2="2"><stop offset="0" stop-color="#007a0c"/><stop offset=".1805" stop-color="#0b800b"/><stop offset=".4988" stop-color="#298f07"/><stop offset=".9147" stop-color="#58a701"/><stop offset="1" stop-color="#63ad00"/></linearGradient><linearGradient id="d" gradientUnits="userSpaceOnUse" x1="8.5601" x2="8.5601" y1="12.9385" y2="5.856"><stop offset="0" stop-color="#ffc800"/><stop offset="1" stop-color="#f59e01"/></linearGradient><linearGradient id="e" gradientUnits="userSpaceOnUse" x1="35.9551" x2="35.9551" y1="49.5547" y2="23.8452"><stop offset="0" stop-color="#bac2c7"/><stop offset=".3704" stop-color="#d2d8dd"/><stop offset=".7154" stop-color="#e1e6ea"/><stop offset="1" stop-color="#e6ebef"/></linearGradient><linearGradient id="f" gradientUnits="userSpaceOnUse" x1="15.4316" x2="62" xlink:href="#a" y1="32.7148" y2="32.7148"/><linearGradient id="g" gradientUnits="userSpaceOnUse" x1="14.4146" x2="48.5352" xlink:href="#a" y1="31.501" y2="31.501"/><path d="m28.566 44.761s2.189 2.125 2.584 4.346c.234 1.313-.064 3.844-.803 5.497 2.84 3.161-.565 1.052-.931 1.321-3.161 2.33-12.427 2.799-11.427 2.111 2.61-1.796-1.891-1.5-.443-2.113 2.565-1.084 1.556-1.381 1.218-1.557-1.118-.58 4.116-.852 8.981-.281 1.282.15 1.917-4.038 1.459-5.296-.433-1.187-3.254-3.394-3.254-3.394z" fill="#f59e01"/><path d="m17.674 55.869c1.311-.712 1.629-1.114 1.091-1.503 8.428-.502 11.194.576-1.091 1.503z" fill="#ffaa12"/><path d="m18.107 57.952c.914-.838.227-1.307-.331-1.554 7.904-1.559 14.308.341.331 1.554z" fill="#ffaa12"/><path d="m37.506 48.435s2.189 2.125 2.584 4.346c.234 1.313-.064 3.844-.803 5.498 2.84 3.16-.565 1.053-.931 1.32-3.161 2.33-12.427 2.799-11.427 2.111 2.61-1.795-1.891-1.5-.443-2.111 2.565-1.086 1.556-1.383 1.218-1.559-1.118-.58 4.116-.852 8.981-.281 1.282.15 1.917-4.037 1.459-5.295-.433-1.188-3.254-3.395-3.254-3.395z" fill="#f59e01"/><path d="m26.613 59.544c1.311-.713 1.629-1.115 1.091-1.504 8.429-.502 11.194.576-1.091 1.504z" fill="#ffaa12"/><path d="m27.047 61.628c.914-.838.227-1.309-.331-1.555 7.903-1.56 14.307.34.331 1.555z" fill="#ffaa12"/><path d="m34.991 45.678c0 4.603-9.602 4.603-9.602 0 .001-2.443 9.602-2.443 9.602 0z" fill="#99a8ae"/><path d="m59.923 31.764s-4.642 1.319-12.505-.807c1.392 11.939 12.505.807 12.505.807z" fill="#785647"/><path d="m21.895 24.977c.652 1.119 1.943 1.277 1.943 1.277-2.219.848-16.608 8.759-3.653 19.733-8.576-2.221-13.665-11.529-7.786-21.437 1.175-1.981 8.333-1.569 9.496.427z" fill="url(#b)"/><path d="m14.457 20.847c-1.009 1.629-2.059 3.704-2.059 3.704 1.356 2.797 6.255 3.348 9.398.98.548-.413-.305-.677-.468-2.179-.191-1.781-5.932-4.021-6.871-2.505z" fill="#e6ebef"/><path d="m14.457 20.847c3.861-7.323-3.502-4.548-3.221-12.496.333-9.385 13.135-7.897 13.135 1.364 0 6.096-3.149 8.873-3.042 13.637.061 2.664-9.511 2.5-6.872-2.505z" fill="url(#c)"/><path d="m2.393 12.146c1.093 2.313 8.902 2.517 11.488 1.121 1.4-.757.941-1.808.941-1.808s-14.219-3.108-12.429.687z" fill="#f59e01"/><path d="m11.688 5.856c-3.92 4.334-9.383 3.161-9.657 4.334-.185.791.456 2.063 1.885 2.379 2.194.487 8.369.698 10.955-.697 1.4-.758-3.643-1.84-1.964-4.916 0 0-.973-.064-1.219-1.1z" fill="url(#d)"/><path d="m16.58 9.409c-1.947 0-1.947-3.553 0-3.553 1.944 0 1.944 3.553 0 3.553z" fill="#302c3b"/><path d="m10.586 8.94c-.384-.4.543-1.365.927-.965.383.4-.543 1.365-.927.965z" fill="#302c3b"/><path d="m16.317 7.011c0 .62-.815.62-.815 0s.815-.62.815 0z" fill="#6e8189"/><path d="m30.908 47.337c5.312 5.498 9.619-.959 9.619-.959 10.905-1.226 17.474-6.427 17.474-6.427-5.027 1.015-7.623.127-7.623.127 5.23-.507-8.959-18.734-24.569-15.943-15.464 2.766-17.92 25.13 5.099 23.202z" fill="url(#e)"/><path d="m23.955 40.764c13.479 5.695 24.608 2.503 24.608 2.503-9.735-1.714-13.273-10.299-24.703-11.552-6.744-.738-14.634 2.827.095 9.049z" fill="#785647"/><path d="m28.445 40.756c19.639 4.806 33.555-6.081 33.555-6.081-13.487 1.045-20.703-13.557-36.312-10.903-9.212 1.565-18.701 11.733 2.757 16.984z" fill="url(#f)"/><path d="m31.228 39.847c-2.797-.698-4.104-1.871-4.104-1.871 12.801 2.029 21.412-4.85 21.412-4.85-2.986.25-5.6-1.05-5.6-1.05 1.459-.698 3.892-.364 3.892-.364s-7.258-9.559-19.674-8.58c-11.794.93-23.202 18.236 4.074 16.715z" fill="url(#g)"/></svg>