<svg enable-background="new 0 0 64 64" height="64" viewBox="0 0 64 64" width="64" xmlns="http://www.w3.org/2000/svg" xmlns:xlink="http://www.w3.org/1999/xlink"><linearGradient id="a"><stop offset="0" stop-color="#646f78"/><stop offset=".0091" stop-color="#657079"/><stop offset=".2298" stop-color="#7c8990"/><stop offset=".4607" stop-color="#8c9aa1"/><stop offset=".7084" stop-color="#96a5ab"/><stop offset="1" stop-color="#99a8ae"/></linearGradient><linearGradient id="b" gradientTransform="matrix(0 .8976 .9921 0 984.8666 -964.6935)" gradientUnits="userSpaceOnUse" x1="1100.3193" x2="1112.3848" xlink:href="#a" y1="-937.958" y2="-937.958"/><linearGradient id="c" gradientTransform="matrix(0 .8976 -.9921 0 1175.3154 -964.6935)" gradientUnits="userSpaceOnUse" x1="1100.3193" x2="1112.3848" xlink:href="#a" y1="1174.916" y2="1174.916"/><radialGradient id="d" cx="32" cy="32" gradientTransform="matrix(1 0 0 1.3446 0 -11.0275)" gradientUnits="userSpaceOnUse" r="32.3202"><stop offset=".3818" stop-color="#3e4a52"/><stop offset=".4432" stop-color="#3c474f"/><stop offset="1" stop-color="#302c3b"/></radialGradient><linearGradient id="e" gradientUnits="userSpaceOnUse" x1="32.0005" x2="32.0005" xlink:href="#a" y1="51.3574" y2="36.4719"/><linearGradient id="f" gradientUnits="userSpaceOnUse" x1="32.0005" x2="32.0005" y1="56.4961" y2="47.6094"><stop offset="0" stop-color="#646f78"/><stop offset=".3416" stop-color="#737f87"/><stop offset="1" stop-color="#99a8ae"/></linearGradient><linearGradient id="g"><stop offset=".2061" stop-color="#7b8a94" stop-opacity="0"/><stop offset="1" stop-color="#7b8a94"/></linearGradient><linearGradient id="h" gradientUnits="userSpaceOnUse" x1="40.3916" x2="40.3916" xlink:href="#g" y1="35.0547" y2="21.4785"/><linearGradient id="i" gradientUnits="userSpaceOnUse" x1="23.6104" x2="23.6104" xlink:href="#g" y1="35.0547" y2="21.4785"/><path d="m55.383 34.045c8.319-3.859 4.682-16.318-5.213-13.621-1.144 5.022.083 9.518 5.213 13.621z" fill="#99a8ae"/><path d="m55.3 33.783c5.852-4.701 2.341-12.553-4.668-10.492-.905 3.334.654 7.907 4.668 10.492z" fill="url(#b)"/><path d="m8.617 34.045c-8.319-3.859-4.682-16.318 5.213-13.621 1.143 5.022-.083 9.518-5.213 13.621z" fill="#99a8ae"/><path d="m8.7 33.783c-5.852-4.701-2.341-12.553 4.668-10.492.905 3.334-.654 7.907-4.668 10.492z" fill="url(#c)"/><path d="m51.438 23.909c-.643-10.159-.491-21.909-19.438-21.909s-18.795 11.75-19.438 21.909c-.208 3.288-9.017 8.091-7.278 17.318.484-1.585 1.5-2.704 1.5-2.704-.9 2.466-.649 4.972-.649 4.972.675-1.705 1.793-2.949 1.793-2.949s-.706 2.686-.23 5.113c.72-1.319 1.787-2.703 1.787-2.703s.049 19.044 22.515 19.044c22.47 0 22.517-19.045 22.517-19.045s1.066 1.384 1.786 2.703c.476-2.428-.23-5.113-.23-5.113s1.118 1.244 1.793 2.949c0 0 .251-2.506-.649-4.972 0 0 1.017 1.119 1.5 2.704 1.74-9.226-7.071-14.029-7.279-17.317z" fill="url(#d)"/><path d="m32 22.8c-24.085 0-8.358 12.02-8.358 12.02s-1.311 5.165.232 6.065c-1.954 2.223-4.163 5.604-2.413 7.277 1.414 1.356 10.539 3.195 10.539 3.195s9.125-1.84 10.539-3.195c1.75-1.674-.459-5.055-2.413-7.277 1.543-.9.232-6.065.232-6.065s15.727-12.02-8.358-12.02z" fill="url(#e)"/><path d="m43.004 47.609s-3.935 3.1-11.004 3.1-11.004-3.1-11.004-3.1c-1.079 1.809-1.04 8.887 11.004 8.887 12.046 0 12.084-7.078 11.004-8.887z" fill="url(#f)"/><ellipse cx="40.391" cy="28.267" fill="#99a8ae" rx="8.541" ry="7.854"/><ellipse cx="40.392" cy="28.267" fill="url(#h)" rx="7.503" ry="6.788"/><ellipse cx="23.609" cy="28.267" fill="#99a8ae" rx="8.541" ry="7.854"/><ellipse cx="23.61" cy="28.267" fill="url(#i)" rx="7.503" ry="6.788"/><ellipse cx="40.391" cy="28.267" fill="#302c3b" rx="2.379" ry="3.415"/><path d="m40.275 26.988c0 1.138-1.359 1.138-1.359 0 0-1.139 1.359-1.139 1.359 0z" fill="#6e8189"/><ellipse cx="23.609" cy="28.267" fill="#302c3b" rx="2.379" ry="3.415"/><path d="m23.494 26.988c0 1.138-1.359 1.138-1.359 0 0-1.139 1.359-1.139 1.359 0z" fill="#6e8189"/><path d="m41.601 39.332c0 3.233-2.239 3.311-5.001 3.311-2.761 0-4.999-.077-4.999-3.311s2.238-5.857 4.999-5.857 5.001 2.623 5.001 5.857z" fill="#99a8ae"/><path d="m37.069 37.74c-1.038-2.127-3.505.098-3.751 1.463-.317 1.758 5.173 1.449 3.751-1.463z" fill="#302c3b"/><path d="m22.399 39.332c0 3.233 2.239 3.311 5.001 3.311 2.761 0 4.999-.077 4.999-3.311s-2.238-5.857-4.999-5.857-5.001 2.623-5.001 5.857z" fill="#99a8ae"/><path d="m26.931 37.74c1.038-2.127 3.504.098 3.751 1.462.317 1.759-5.173 1.45-3.751-1.462z" fill="#302c3b"/></svg>