<svg enable-background="new 0 0 64 64" height="64" viewBox="0 0 64 64" width="64" xmlns="http://www.w3.org/2000/svg" xmlns:xlink="http://www.w3.org/1999/xlink"><radialGradient id="a" cx="-183.3535" cy="-660.6094" gradientTransform="matrix(.7071 -.706 4.2426 4.236 2953.0869 2689.5977)" gradientUnits="userSpaceOnUse" r="4.5466"><stop offset="0" stop-color="#c28fef"/><stop offset=".6667" stop-color="#b357e6"/></radialGradient><radialGradient id="b" cx="-183.3545" cy="-665.7393" gradientTransform="matrix(.7071 -.706 4.2426 4.236 2971.2236 2707.7061)" gradientUnits="userSpaceOnUse" r="3.9545"><stop offset="0" stop-color="#75d6ff"/><stop offset=".1023" stop-color="#67cdf8"/><stop offset=".6667" stop-color="#1a9ed6"/></radialGradient><radialGradient id="c" cx="-183.3564" cy="-670.1016" gradientTransform="matrix(.7071 -.706 4.2426 4.236 2986.6465 2723.105)" gradientUnits="userSpaceOnUse" r="3.7471"><stop offset="0" stop-color="#78ffc7"/><stop offset=".0538" stop-color="#72f9c3"/><stop offset=".7212" stop-color="#25b399"/></radialGradient><radialGradient id="d" cx="-183.3545" cy="-674.4961" gradientTransform="matrix(.7071 -.706 4.2426 4.236 3002.1833 2738.6177)" gradientUnits="userSpaceOnUse" r="3.5638"><stop offset="0" stop-color="#dcff91"/><stop offset=".1798" stop-color="#c5ef74"/><stop offset=".6667" stop-color="#88c427"/></radialGradient><radialGradient id="e" cx="-183.356" cy="-678.918" gradientTransform="matrix(.7071 -.706 4.2426 4.236 3017.8169 2754.2271)" gradientUnits="userSpaceOnUse" r="3.4113"><stop offset="0" stop-color="#ffed80"/><stop offset=".2612" stop-color="#ffd24c"/><stop offset=".6667" stop-color="#fa0"/></radialGradient><radialGradient id="f" cx="-183.356" cy="-682.9985" gradientTransform="matrix(.7071 -.706 4.2426 4.236 3032.2437 2768.6313)" gradientUnits="userSpaceOnUse" r="3.0459"><stop offset="0" stop-color="#ff8e80"/><stop offset=".2727" stop-color="#f44c45"/><stop offset=".6061" stop-color="#e80000"/></radialGradient><linearGradient id="g"><stop offset=".2545" stop-color="#cfd8dd"/><stop offset=".6086" stop-color="#d7dfe3"/><stop offset="1" stop-color="#e6ebef"/></linearGradient><linearGradient id="h" gradientUnits="userSpaceOnUse" x1="43.7949" x2="43.7949" xlink:href="#g" y1="62" y2="37.8932"/><linearGradient id="i" gradientUnits="userSpaceOnUse" x1="31.7339" x2="41.4698" y1="42.5156" y2="47.0158"><stop offset="0" stop-color="#302c3b" stop-opacity=".2"/><stop offset="1" stop-color="#302c3b" stop-opacity="0"/></linearGradient><linearGradient id="j" gradientUnits="userSpaceOnUse" x1="26.6094" x2="21.1288" xlink:href="#g" y1="54.7441" y2="37.6291"/><path d="m20.764 9.311c-.175-1.521 9.613 4.372 10.009 14.491.033.65-4.557.052-7.361-2.206-.001 0-2.022-6.756-2.648-12.285z" fill="#cfd8dd"/><path d="m21.504 11.38c-.1-1.068 6.44 4.229 6.604 11.241.015.451-3.074-.544-4.943-2.452-.001 0-1.295-4.905-1.661-8.789z" fill="#6e8189"/><path d="m15.237 20.204 4.21 5.791c3.406-.386 6.184-3.182 6.588-6.578l-5.715-4.142c-1.95 1.109-5.083 4.929-5.083 4.929z" fill="url(#a)"/><path d="m12.453 16.378 4.573 6.288s2.388-4.685 5.671-5.667l-6.23-4.516c-1.511.995-4.014 3.895-4.014 3.895z" fill="url(#b)"/><path d="m9.698 12.589 4.857 6.68s1.706-3.847 4.726-4.744l-6.625-4.802c-1.086.804-2.958 2.866-2.958 2.866z" fill="url(#c)"/><path d="m6.968 8.832 5.071 6.975s1.732-2.855 3.781-3.793l-6.944-5.03c-.681.558-1.908 1.848-1.908 1.848z" fill="url(#d)"/><path d="m4.258 5.104 5.224 7.186s1.344-2.354 2.815-2.828l-7.17-5.196c-.299.269-.869.838-.869.838z" fill="url(#e)"/><path d="m6.884 8.718s.612-1.37 1.835-1.85l-6.719-4.868z" fill="url(#f)"/><path d="m27.41 15.844c6.271 8.859 18.752 15.305 26.139 9.785-2.054-12.591-15.613-16.348-26.139-9.785z" fill="#fa5393"/><path d="m32.011 18.223c5.143 10.114 17.659 19.29 26.972 15.583.292-12.8-13.968-19.591-26.972-15.583z" fill="#ff8cbc"/><path d="m39.777 22.956c2.333 11.099 11.514 25.268 21.473 24.1 2.56-17.161-7.873-24.604-21.473-24.1z" fill="#fa5393"/><path d="m47.586 29.994c-1.761 11.202 3.121 20.145 10.464 26.665 9.536-7.032.128-25.89-10.464-26.665z" fill="#ff8cbc"/><path d="m31.89 18.089c-5.329 8.313-.612 27.623-.612 27.623 7.613 1.693 1.079 16.288 6.095 16.288 14.235 0 20.677-5.341 20.677-5.341 2.197-19.069-15.212-37.866-26.16-38.57z" fill="url(#h)"/><path d="m37.683 28.177c-9.815-.734-6.405 17.535-6.405 17.535 7.613 1.693 1.079 16.288 6.095 16.288-1.88-10.433 8.144-20.101.31-33.823z" fill="url(#i)"/><path d="m36.44 19.825c-.502-2.269-2.981-11.295-8.191-13.819-.63-.306-1.164 11.457-1.164 11.457-6.486 7.19-22.823 22.766-24.704 25.039-1.886 2.271 3.841 9.003 3.841 9.003 1.592.188 3.576 1.535 4.388 2.109 1.5 1.065 5.145-3.055 9.23-3.816 15.373-2.881 18.42-7.961 18.932-12.748 1.194-11.157-2.332-17.225-2.332-17.225z" fill="url(#j)"/><g fill="#302c3b"><path d="m6.323 45.384c-.53.375-1.824.654-2.216.147-.393-.507.27-1.611.798-1.984.526-.371 1.274-.263 1.664.243.394.506.283 1.223-.246 1.594z"/><path d="m16.25 42.61c-.12 2.353-1.307 4.662-3.13 6.34-.927.832-2.013 1.5-3.185 1.93-1.17.438-2.416.637-3.643.619 2.337-.709 4.461-1.699 6.133-3.246.842-.759 1.572-1.635 2.206-2.58.621-.957 1.185-1.967 1.619-3.063z"/><path d="m16.736 34.482s.934-.687 1.777-.519c0 0-1.155 1.143-.287 2.918 0 0 .938-2.15 2.552-2.282 0 0-1.104 1.564.306 2.99 0 0 .296-2.176 2.389-2.828 0 0-.294 1.141.728 2.503 0 0-.315-1.966 1.114-2.922 1.435-.957 3.026-1.481 3.838-3.929 0 0-3.483 3.558-8.29 2.574-1.247-.254-3.121-.591-4.127 1.495z"/></g><path d="m28.266 7.74c.164-1.062 5.208 5.671 3.648 12.509-.098.441-3.807-.781-4.192-3.582 0 0-.053-5.072.544-8.927z" fill="#99a8ae"/><path d="m5.073 41.566c-.538.329-.442.532.03.356.474-.175 2.782-.76 2.976 1.674 0 0 .13 1.089.423.008.289-1.086-.402-3.888-3.429-2.038z" fill="#99a8ae"/><path d="m27.219 14.903s-1.452 9.146 9.952 16.467c0 0-21.42-5.233-9.952-16.467z" fill="#fa5393"/><path d="m56.819 38.535c-16.319-5.745-15.603-22.967-21.322-22.527-2.901 14.369 12.276 22.016 21.322 22.527z" fill="#fa5393"/></svg>