<svg enable-background="new 0 0 64 64" height="64" viewBox="0 0 64 64" width="64" xmlns="http://www.w3.org/2000/svg" xmlns:xlink="http://www.w3.org/1999/xlink"><linearGradient id="a" gradientUnits="userSpaceOnUse" x1="35.3096" x2="35.3096" y1="56" y2="8.0005"><stop offset="0" stop-color="#7b8a94"/><stop offset=".2872" stop-color="#8b9aa2"/><stop offset=".6144" stop-color="#96a5ab"/><stop offset="1" stop-color="#99a8ae"/></linearGradient><radialGradient id="b" cx="9.874" cy="12.9048" gradientTransform="matrix(.6032 .837 -.5439 .4318 10.937 14.4051)" gradientUnits="userSpaceOnUse" r="9.5055"><stop offset="0" stop-color="#e3edf2"/><stop offset=".4075" stop-color="#e0eaef"/><stop offset=".7424" stop-color="#d6e0e5"/><stop offset=".897" stop-color="#cfd8dd"/></radialGradient><linearGradient id="c" gradientUnits="userSpaceOnUse" x1="14.751" x2="22.4839" y1="28.4053" y2="24.2951"><stop offset=".1879" stop-color="#cfd8dd"/><stop offset=".3413" stop-color="#d9e3e8"/><stop offset=".5739" stop-color="#e1ebf0"/><stop offset="1" stop-color="#e3edf2"/></linearGradient><path d="m33.254 10.299c2.654 5.135-.728 7.711 5.123 12.221 0 0 .524-2.705 2.009-5.573-5.201-1.854-3.555-6.785-7.132-6.648z" fill="#859399"/><path d="m33.608 10.309c2.176.479.316 5.069 3.036 8.16-.423 2.498-3.885 4.39-3.21-3.551.158-1.849-1.205-4.914.174-4.609z" fill="#4e5e67"/><path d="m8.758 39.582c-.708 1.936 1.568 2.499.878 3.256-1.188 1.303.896 5.361.827 5.723-.068.362.452.06.259.842-.568 2.306 3.386 6.157 3.377 3.209 2.283.236 3.886 3.138 7.892 2.433.775 1.899 4.222.349 5.135.538 7.479 1.551 12.363-8.54 20.263-7.979 1.144.08 3.964 4.416 6.6 2.992 1.29 2.115 8.011 4.72 8.011 4.72v-47.316c-12.302.217-16.785 7.841-18.541 7.885-12.991.316-7.098 9.114-18.953 11.572-.69.145-13.319 5.481-15.748 12.125z" fill="url(#a)"/><path d="m2.761 20.785c-2.133.733.336 12.748 5.906 19.111.586.669 6.681-4.456 6.036-7.089-11.963-4.902-10.443-12.537-11.942-12.022z" fill="url(#b)"/><path d="m16.434 21.517c-2.307-2.478-1.938 5.805-.232 10.715.31.892 7.495.624 8.652-4.611-1.029-2.252-6.24-3.762-8.42-6.104z" fill="url(#c)"/><path d="m13.746 50.216c-5.127-1.763 1.391-2.987 2.429-2.413.491.27-2.152 2.509-2.429 2.413z" fill="#302c3b"/><ellipse cx="26.956" cy="38.881" fill="#302c3b" rx="1.829" ry="2.044"/><path d="m26.459 38.537c0 .813-.824.813-.824 0 0-.814.824-.814.824 0z" fill="#6e8189"/><path d="m23.806 39.742s2.594-2.951 5.879-1.701c-1.455-3.596-5.879-1.978-5.879 1.701z" fill="#302c3b"/><path d="m14.099 52.611c7.013.923 10.253-3.453 10.253-3.453s-4.17 2.947-10.253 3.453z" fill="#4e5e67"/><g fill="#6e8189"><path d="m25.681 29.434c-2.188 2.12-3.437 3.995-6.55 4.372 2.802.786 5.195-1.959 6.55-4.372z"/><path d="m16.076 34.489c-1.767 3.237-2.352 6.11-6.549 6.651 4.495 1.246 6.157-2.951 6.549-6.651z"/><path d="m12.802 46.923c2.559-1.052 4.03-.854 4.834 1.07.047-2.263-1.564-3.29-4.834-1.07z"/></g><path d="m50.175 10.83c1.247 6.473 2.805 9.18-2.753 14.397 0 0-3.818-.564-5.479-3.5 3.522-3.597 3.912-13.876 8.232-10.897z" fill="#99a8ae"/><path d="m50.846 11.54c-2.051-2.53-3.859-1.28-5.246 5.748-1.142 5.792 1.633 9.783 2.063 6.753 6.105-5.447 4.325-11.092 3.183-12.501z" fill="#4e5e67"/><path d="m45.326 28.779c-1.998-3.155-4.17-4.818-2.913-9.844-2.878 4.753-.032 8.116 2.913 9.844z" fill="#6e8189"/><path d="m53.987 50.596c2.999-6.867.972-11.924 4.716-27.466-4.698 9.058-2.822 17.425-4.716 27.466z" fill="#6e8189"/></svg>