<svg enable-background="new 0 0 64 64" height="64" viewBox="0 0 64 64" width="64" xmlns="http://www.w3.org/2000/svg" xmlns:xlink="http://www.w3.org/1999/xlink"><linearGradient id="a"><stop offset="0" stop-color="#a85a00"/><stop offset=".1826" stop-color="#ae5f00"/><stop offset=".4366" stop-color="#c06c00"/><stop offset=".731" stop-color="#de8100"/><stop offset="1" stop-color="#f90"/></linearGradient><linearGradient id="b" gradientUnits="userSpaceOnUse" x1="10.9995" x2="29.2788" xlink:href="#a" y1="33.6582" y2="33.6582"/><linearGradient id="c" gradientUnits="userSpaceOnUse" x1="8.5273" x2="19.21" xlink:href="#a" y1="38.1475" y2="38.1475"/><linearGradient id="d" gradientUnits="userSpaceOnUse" x1="4.8999" x2="23.1792" xlink:href="#a" y1="35.1855" y2="35.1855"/><radialGradient id="e" cx="32.0752" cy="17.2159" gradientUnits="userSpaceOnUse" r="5.3941"><stop offset="0" stop-color="#f90"/><stop offset=".1751" stop-color="#f39000"/><stop offset=".4917" stop-color="#d37800"/><stop offset=".9112" stop-color="#a05100"/><stop offset="1" stop-color="#944800"/></radialGradient><linearGradient id="f"><stop offset="0" stop-color="#f90"/><stop offset=".1821" stop-color="#f89400"/><stop offset=".4423" stop-color="#e58600"/><stop offset=".7478" stop-color="#c77000"/><stop offset="1" stop-color="#a85a00"/></linearGradient><radialGradient id="g" cx="41.499" cy="9.0182" gradientUnits="userSpaceOnUse" r="8.6819" xlink:href="#f"/><radialGradient id="h" cx="38.5781" cy="16.3419" gradientUnits="userSpaceOnUse" r="12.428" xlink:href="#f"/><radialGradient id="i" cx="37.2549" cy="14.2418" gradientUnits="userSpaceOnUse" r="10.5965" xlink:href="#f"/><radialGradient id="j" cx="40.3389" cy="12.215" gradientUnits="userSpaceOnUse" r="9.69" xlink:href="#f"/><radialGradient id="k" cx="29.3467" cy="29.1172" gradientTransform="matrix(.7071 .7071 -1.3511 1.3511 47.9359 -30.9738)" gradientUnits="userSpaceOnUse" r="14.1625"><stop offset="0" stop-color="#f90"/><stop offset=".0755" stop-color="#f39000"/><stop offset=".3597" stop-color="#ca7100"/><stop offset=".6184" stop-color="#ac5a00"/><stop offset=".8404" stop-color="#9a4d00"/><stop offset="1" stop-color="#944800"/></radialGradient><linearGradient id="l"><stop offset="0" stop-color="#f90"/><stop offset=".269" stop-color="#de8100"/><stop offset=".5634" stop-color="#c06c00"/><stop offset=".8174" stop-color="#ae5f00"/><stop offset="1" stop-color="#a85a00"/></linearGradient><linearGradient id="m" gradientUnits="userSpaceOnUse" x1="38.3896" x2="62" xlink:href="#l" y1="36.5938" y2="36.5938"/><linearGradient id="n" gradientUnits="userSpaceOnUse" x1="32.3257" x2="47.666" xlink:href="#l" y1="41.9922" y2="41.9922"/><linearGradient id="o" gradientUnits="userSpaceOnUse" x1="26.1279" x2="42.6621" xlink:href="#l" y1="45.3877" y2="45.3877"/><linearGradient id="p" gradientUnits="userSpaceOnUse" x1="2.0005" x2="17.2852" y1="50.1465" y2="50.1465"><stop offset="0" stop-color="#f90"/><stop offset=".182" stop-color="#f89400"/><stop offset=".4491" stop-color="#e48600"/><stop offset=".767" stop-color="#c46e00"/><stop offset="1" stop-color="#a85a00"/></linearGradient><linearGradient id="q" gradientUnits="userSpaceOnUse" x1="10.3706" x2="31.1597" y1="52.3594" y2="52.3594"><stop offset="0" stop-color="#f90"/><stop offset=".3017" stop-color="#fc9700"/><stop offset=".4971" stop-color="#f49100"/><stop offset=".6623" stop-color="#e58600"/><stop offset=".8107" stop-color="#d07700"/><stop offset=".9467" stop-color="#b56300"/><stop offset="1" stop-color="#a85a00"/></linearGradient><path d="m29.265 34.768c-1.602-5.83 1.381-11.941-2.466-9.48-6.493 4.154-8.021 4.244-7.95 5.191-1.51 2.811-5.08 4.615-4.934 5.373-2.553 2.396-3.373 8.115-2.682 6.432 1.559-3.783 4.313-5.287 3.715-6.07.904-1.979 4.688-3.15 4.541-4.104.863-1.234 4.981-1.818 6.57-3.395-.878 1.014 1.28 2.91.799 8.395-.075.869 2.638-1.508 2.407-2.342z" fill="url(#b)"/><path d="m19.201 38.965c-.996-3.775.705-7.689-1.535-6.143-3.781 2.613-4.682 2.656-4.627 3.268-.866 1.797-2.949 2.922-2.854 3.414-1.482 1.52-1.911 5.199-1.521 4.121.881-2.422 2.488-3.367 2.131-3.877.514-1.266 2.727-1.982 2.63-2.6.5-.787 2.915-1.121 3.839-2.121-.511.645.776 1.891.543 5.422-.036.563 1.538-.943 1.394-1.484z" fill="url(#c)"/><path d="m23.166 36.293c-1.604-5.828 1.383-11.939-2.467-9.48-6.491 4.154-8.021 4.244-7.95 5.193-1.511 2.811-5.078 4.613-4.931 5.371-2.555 2.398-3.377 8.117-2.682 6.434 1.555-3.785 4.309-5.289 3.714-6.072.905-1.977 4.688-3.148 4.539-4.1.864-1.236 4.983-1.822 6.569-3.396-.878 1.014 1.283 2.91.803 8.393-.079.87 2.634-1.507 2.405-2.343z" fill="url(#d)"/><path d="m34.798 11.856-6.66-.252c-1.148 4.25 6.233 3.49 6.233 5.281 0 .648-1.056 1.277-.147 1.002 3.438-1.035 2.796-5.404.574-6.031z" fill="url(#e)"/><path d="m48.501 14.979c1.617-2.021 1.863-5.573-.154-7.057 0 0-3.381-2.864-4.255-5.129-5.702-2.709-8.919 2.387-8.919 2.387-4.015.557 1.109 6.424 2.721 2.713.977 0 2.229-.172 3.729-.73 1.638-.125 1.972 1.063 1.732 3.125-1.586 2.998-.043 4.902-.043 4.902.657.973 5.29.978 5.189-.211z" fill="url(#g)"/><path d="m43.312 15.19c-5.994 3.131-6.656 8.129-6.656 8.129l10.416 3.525c3.566-4.219 3.342-9.406 1.43-11.865-2.533-1.003-5.19.211-5.19.211z" fill="url(#h)"/><path d="m35.173 5.18c-4.162-.008-11.121 8.741-4.642 8.106 2.927-.287 5.937-1.606 7.363-5.393-2.363-.668-1.76-2.711-2.721-2.713z" fill="url(#i)"/><path d="m48.347 7.922s-.428-5.229-4.254-5.129c-.187 1.057-2.729 1.974-2.471 4.369.147 1.382.916 2.285 1.732 3.125 1.073-1.895 3.073-2.541 4.993-2.365z" fill="url(#j)"/><path d="m45.642 24.533c.094-3.674-8.491-5.492-12.773.661-1.538.127-4.962 2.769-5.094 3.925-2.404.338-5.749 3.271-5.879 4.361-2.845.178-7.887 4.859-6.505 5.525-.959 2.381.431 4.48 3.292 4.205 4.496 5.584 23.417-2.063 28.175-13.986 1.188-2.907-.821-4.426-1.216-4.691z" fill="url(#k)"/><path d="m59.083 38.645c.146-.758-3.422-2.561-4.932-5.371.07-.949-2.1-1.223-7.951-5.193-2.693-1.826-2.119 5.938-7.342 7.24-.872.215-.418 3.518.471 3.332 6.338-1.338 5.953-8.287 7.611-7.143 1.587 1.574 5.706 2.16 6.57 3.395-.149.953 3.633 2.125 4.539 4.102-.596.783 2.158 2.287 3.714 6.072.695 1.683-.127-4.036-2.68-6.434z" fill="url(#m)"/><path d="m47.517 44.352c.554-.559-1.016-2.941-.688-6.088.598-.758-.841-1.541-6.693-5.51-2.693-1.828-2.121 5.936-7.343 7.238-.869.217-.416 3.52.47 3.332 6.34-1.338 5.955-8.287 7.612-7.143 1.589 1.576 4.469 1.627 4.491 3.115-.665.721 1.443 2.688 1.08 4.818-.943.344.511 3.047-.332 7.033-.374 1.778 2.184-3.448 1.403-6.795z" fill="url(#n)"/><path d="m42.507 47.232c.578-.438-1.058-2.305-.715-4.771.621-.594-.876-1.207-6.969-4.316-2.803-1.434-2.937 4.95-8.375 5.972-.904.168.297 2.456 1.223 2.31 6.599-1.047 6.195-6.492 7.923-5.596 1.652 1.234 4.65 1.275 4.673 2.441-.69.564 1.506 2.105 1.126 3.775-.984.27.531 2.387-.346 5.513-.39 1.39 2.274-2.705 1.46-5.328z" fill="url(#o)"/><path d="m16.134 39.67c-5.309 1.688-9.008-1.02-9.495 2.092-1.306.045-2.966 2.059-2.487 3.385-4.63 4.018-.925 13.218 3.017 15.489 0 0-4.558-8.206-1.163-13.159 2.318 2.137 3.088 7.69 1.732 12.419 3.262-4.76 2.844-12.41-.268-14.001.979-.271 2.119-1.779 2.053-2.691 1.868-1.135 3.951 1.023 7.473-1.4.829-.57-.334-2.302-.862-2.134z" fill="url(#p)"/><path d="m26.08 43.041c1.826 5.043 7.13 6.453 4.23 8.516.832 1.042-.137 3.423-1.836 3.767-1.049 5.773-13.09 7.867-18.104 6.029 0 0 11.584-.893 14.438-6.211-3.781-.646-10.063 1.756-14.051 5.367 2.738-5.109 10.955-8.923 14.705-7.361-.379-.911.416-2.612 1.408-3.054-.082-2.068-3.725-2.521-3.584-6.57.034-.954 2.614-.985 2.794-.483z" fill="url(#q)"/><path d="m20.47 38.656c-2.961.283-2.435-1.385-1.7-1.947.755-.578.933 1.164 1.7 1.947z" fill="#302c3b"/><path d="m19.214 36.795c.225.072-.717.412-.847 1.223-.169-.487.31-1.397.847-1.223z" fill="#6e8189"/><path d="m25.513 39s-1.521 1.949-4.081-.133c0 0 2.985-3.476 4.081.133z" fill="#302c3b"/><path d="m24.143 37.691c.225.088-1.356.525-2.247 1.203.59-.972 1.711-1.412 2.247-1.203z" fill="#6e8189"/><g fill="#a35509"><path d="m42.722 27.684c-2.807-2.423-7.333-3.246-9.518-2.451 4.014-2.731 8.682.406 9.518 2.451z"/><path d="m37.878 31.559c-2.808-2.422-7.509-3.246-9.693-2.451 4.012-2.729 8.857.408 9.693 2.451z"/><path d="m31.939 36.34c-2.807-2.422-7.709-3.668-9.893-2.873 4.012-2.731 9.057.83 9.893 2.873z"/></g></svg>