<svg enable-background="new 0 0 64 64" height="64" viewBox="0 0 64 64" width="64" xmlns="http://www.w3.org/2000/svg" xmlns:xlink="http://www.w3.org/1999/xlink"><linearGradient id="a"><stop offset="0" stop-color="#b00000"/><stop offset="1" stop-color="#ff6800"/></linearGradient><linearGradient id="b" gradientTransform="matrix(1 0 0 -1 -56 -80)" gradientUnits="userSpaceOnUse" x1="100.3457" x2="100.3457" xlink:href="#a" y1="-94.9243" y2="-85.376"/><linearGradient id="c" gradientTransform="matrix(1 0 0 -1 -56 -80)" gradientUnits="userSpaceOnUse" x1="104.5068" x2="110.7461" xlink:href="#a" y1="-95.4956" y2="-95.4956"/><linearGradient id="d" gradientTransform="matrix(1 0 0 -1 -56 -80)" gradientUnits="userSpaceOnUse" x1="101.5947" x2="108.9427" xlink:href="#a" y1="-105.126" y2="-97.778"/><linearGradient id="e" gradientTransform="matrix(-1 0 0 -1 299.3672 -80)" gradientUnits="userSpaceOnUse" x1="279.7119" x2="279.7119" xlink:href="#a" y1="-94.9243" y2="-85.376"/><linearGradient id="f" gradientTransform="matrix(-1 0 0 -1 299.3672 -80)" gradientUnits="userSpaceOnUse" x1="283.874" x2="290.1123" xlink:href="#a" y1="-95.4956" y2="-95.4956"/><linearGradient id="g" gradientTransform="matrix(-1 0 0 -1 299.3672 -80)" gradientUnits="userSpaceOnUse" x1="280.96" x2="288.3086" xlink:href="#a" y1="-105.127" y2="-97.7783"/><linearGradient id="h" gradientTransform="matrix(.8989 -.4381 -.4381 -.8989 34.6519 -11.0561)" gradientUnits="userSpaceOnUse" x1="-14.8813" x2="-14.8813" xlink:href="#a" y1="-68.0791" y2="-61.4141"/><linearGradient id="i" gradientTransform="matrix(1 0 0 -1 -56 -80)" gradientUnits="userSpaceOnUse" x1="99.1641" x2="99.1641" xlink:href="#a" y1="-132.5234" y2="-125.4102"/><linearGradient id="j"><stop offset="0" stop-color="#ff6800"/><stop offset="1" stop-color="#b00000"/></linearGradient><linearGradient id="k" gradientTransform="matrix(.9805 .1965 .1965 -.9805 -85.6994 -121.9352)" gradientUnits="userSpaceOnUse" x1="168.3076" x2="177.1152" xlink:href="#j" y1="-138.0244" y2="-138.0244"/><linearGradient id="l" gradientTransform="matrix(.9805 .1965 .1965 -.9805 -85.6994 -121.9352)" gradientUnits="userSpaceOnUse" x1="163.4961" x2="163.4961" xlink:href="#a" y1="-138.4365" y2="-134.3423"/><linearGradient id="m" gradientTransform="matrix(.9823 .1873 .1873 -.9823 -87.0159 -120.5224)" gradientUnits="userSpaceOnUse" x1="171.6563" x2="171.6563" xlink:href="#a" y1="-131.5879" y2="-123.9653"/><linearGradient id="n" gradientTransform="matrix(.9823 .1873 .1873 -.9823 -87.0159 -120.5224)" gradientUnits="userSpaceOnUse" x1="163.1934" x2="163.1934" xlink:href="#a" y1="-133.3706" y2="-129.2422"/><linearGradient id="o" gradientTransform="matrix(.9538 .3006 .3006 -.9538 -105.3956 -149.4345)" gradientUnits="userSpaceOnUse" x1="200.9814" x2="200.9814" xlink:href="#a" y1="-129.9463" y2="-118.876"/><linearGradient id="p" gradientTransform="matrix(.9538 .3006 .3006 -.9538 -105.3956 -149.4345)" gradientUnits="userSpaceOnUse" x1="206.9082" x2="206.9082" xlink:href="#a" y1="-121.1494" y2="-110.4297"/><linearGradient id="q" gradientTransform="matrix(-.8989 -.4381 .4381 -.8989 99.8422 -11.0561)" gradientUnits="userSpaceOnUse" x1="48.4883" x2="48.4883" xlink:href="#a" y1="-98.96" y2="-92.2949"/><linearGradient id="r" gradientTransform="matrix(-1 0 0 -1 190.4941 -80)" gradientUnits="userSpaceOnUse" x1="169.6572" x2="169.6572" xlink:href="#a" y1="-132.5234" y2="-125.4102"/><linearGradient id="s" gradientTransform="matrix(-.9805 .1965 -.1965 -.9805 220.1935 -121.9352)" gradientUnits="userSpaceOnUse" x1="237.4277" x2="246.2354" xlink:href="#j" y1="-124.1729" y2="-124.1729"/><linearGradient id="t" gradientTransform="matrix(-.9805 .1965 -.1965 -.9805 220.1935 -121.9352)" gradientUnits="userSpaceOnUse" x1="232.6152" x2="232.6152" xlink:href="#a" y1="-124.5854" y2="-120.4917"/><linearGradient id="u" gradientTransform="matrix(-.9823 .1873 -.1873 -.9823 221.509 -120.5224)" gradientUnits="userSpaceOnUse" x1="240.9004" x2="240.9004" xlink:href="#a" y1="-118.3813" y2="-110.7588"/><linearGradient id="v" gradientTransform="matrix(-.9823 .1873 -.1873 -.9823 221.509 -120.5224)" gradientUnits="userSpaceOnUse" x1="232.4395" x2="232.4395" xlink:href="#a" y1="-120.1641" y2="-116.0356"/><linearGradient id="w" gradientTransform="matrix(-.9538 .3006 -.3006 -.9538 239.8897 -149.4345)" gradientUnits="userSpaceOnUse" x1="268.2168" x2="268.2168" xlink:href="#a" y1="-108.7583" y2="-97.688"/><linearGradient id="x" gradientTransform="matrix(-.9538 .3006 -.3006 -.9538 239.8897 -149.4345)" gradientUnits="userSpaceOnUse" x1="274.1445" x2="274.1445" xlink:href="#a" y1="-99.9619" y2="-89.2422"/><radialGradient id="y" cx="32" cy="34.3037" gradientTransform="matrix(1 0 0 1.3006 0 -10.3118)" gradientUnits="userSpaceOnUse" r="17.0294"><stop offset="0" stop-color="#ff6800"/><stop offset=".2668" stop-color="#fd6500"/><stop offset=".4524" stop-color="#f65c00"/><stop offset=".6133" stop-color="#ea4d00"/><stop offset=".7602" stop-color="#da3700"/><stop offset=".8963" stop-color="#c41b00"/><stop offset="1" stop-color="#b00000"/></radialGradient><path d="m52.19 10.009s-7.107-12.63-16.793-6.169c-.305 1.077 5.268-.893 6.903 2.149 2.548 4.736 8.089 6.068 9.89 4.02z" fill="#af1f23"/><path d="m40.984 7.552c1.521-.807 2.322-.674 2.322-.674.864-1.533 2.427-.752 2.427-.752s3.233-3.283 6.457 3.883l-3.362 4.915c-9.526-2.151-12.327-7.371-12.327-7.371s1.963-1.536 4.483-.001z" fill="url(#b)"/><path d="m52.596 21.472c-.479.418-3.989-4.884-4.088-7.365-.051-1.301 1.841-4.311 3.15-4.604 1.241-.277 5.702 7.799.938 11.969z" fill="url(#c)"/><path d="m54.257 19.143c.277.727-3.751 6.01-7.747 6.862l-2.591-2.553s3.298-4.502 5.922-5.583c.676-.176 4.138.547 4.416 1.274z" fill="url(#d)"/><path d="m11.81 10.009s7.107-12.63 16.793-6.169c.305 1.077-5.268-.893-6.903 2.149-2.547 4.736-8.088 6.068-9.89 4.02z" fill="#af1f23"/><path d="m23.016 7.552c-1.521-.807-2.322-.674-2.322-.674-.864-1.533-2.427-.752-2.427-.752s-3.233-3.283-6.457 3.883l3.362 4.915c9.527-2.151 12.328-7.37 12.328-7.37s-1.963-1.537-4.484-.002z" fill="url(#e)"/><path d="m11.405 21.472c.479.418 3.989-4.884 4.088-7.365.051-1.301-1.841-4.311-3.15-4.604-1.242-.277-5.703 7.799-.938 11.969z" fill="url(#f)"/><path d="m9.744 19.143c-.277.727 3.751 6.01 7.747 6.862l2.591-2.553s-3.298-4.502-5.922-5.583c-.676-.176-4.139.547-4.416 1.274z" fill="url(#g)"/><path d="m35.248 15.182-3.498 2.792-3.496-2.792c-3.645 2.117-3.329 5.021-3.329 5.021h14.157c-.001-.001-.191-2.903-3.834-5.021z" fill="#af1f23"/><path d="m49.858 57.011c.199 1.331 1.466 5.229 1.733 4.978 1.504-2.556.853-5.445.377-6.234.001-.001-2.217.13-2.11 1.256z" fill="#af1f23"/><path d="m48.645 50.465c-2.749.896.15 5.766.529 6.172.683.733 2.335.031 3.077-.815.744-.845-2.607-5.513-3.606-5.357z" fill="url(#h)"/><path d="m37.438 45.74c2.633-1.781 11.587 4.195 11.74 4.863.154.668-.565 1.914-1.182 1.92-9.12-.926-10.675-3.787-10.675-3.787s-.503-2.578.117-2.996z" fill="url(#i)"/><path d="m58.803 49.711c.504 1.4 2.664 5.56 2.875 5.32.93-2.521-.385-5.582-1.046-6.445 0 0-2.196-.053-1.829 1.125z" fill="#af1f23"/><path d="m52.949 44.045c-2.065 1.682 4.625 5.788 5.249 6.237.834.601 2.518-.849 2.6-1.907.081-1.059-6.968-4.771-7.849-4.33z" fill="url(#k)"/><path d="m41.889 44.627s1.854.969 12.167 2.144c.686.006 1.32-1.36 1.059-2.102-.265-.741-7.339-4.038-12.933-2.837 0 0-4.012 1.405-.293 2.795z" fill="url(#l)"/><path d="m59.528 34.319c.137-1.672 1.185-6.862 1.448-6.671 1.518 2.412 1.012 6.137.591 7.282 0 0-2.098.781-2.039-.611z" fill="#af1f23"/><path d="m54.137 40.354c-2.154-1.458.563-2.547 5.003-6.486.766-.68 2.552.608 2.701 1.63.149 1.023-6.802 5.209-7.704 4.856z" fill="url(#m)"/><path d="m43.938 37.165s1.937-.397 10.634.889c.562.149.566 1.458.182 2.05-.383.592-6.921 1.902-11.217-.414-.001.001-2.71-1.458.401-2.525z" fill="url(#n)"/><path d="m43.046 32.643c-.399-.744.332-5.119 11.055-7.122.57-.207.542 1.533.582 2.309-6.58 7.82-10.311 7.282-11.637 4.813z" fill="url(#o)"/><path d="m59.416 19.591c.011-1.857 1.195-8.122 1.481-7.939 1.766 2.505.964 6.501.616 7.804.003.001-2.05 1.672-2.097.135z" fill="#af1f23"/><path d="m54.681 27.832c-6.037-.091 3.2-8.137 3.78-8.852.7-.861 2.69-.472 3.263.505.576.978-6.032 8.319-7.043 8.347z" fill="url(#p)"/><path d="m14.141 57.011c-.199 1.331-1.465 5.229-1.732 4.978-1.504-2.556-.854-5.445-.377-6.234 0-.001 2.217.13 2.109 1.256z" fill="#af1f23"/><path d="m15.356 50.465c2.748.896-.15 5.766-.529 6.172-.684.733-2.336.031-3.078-.815-.745-.845 2.607-5.513 3.607-5.357z" fill="url(#q)"/><path d="m26.563 45.74c-2.633-1.781-11.588 4.195-11.74 4.863-.154.668.564 1.914 1.182 1.92 9.119-.926 10.674-3.787 10.674-3.787s.503-2.578-.116-2.996z" fill="url(#r)"/><path d="m5.198 49.711c-.504 1.4-2.664 5.56-2.875 5.32-.93-2.521.385-5.582 1.045-6.445 0 0 2.197-.053 1.83 1.125z" fill="#af1f23"/><path d="m11.051 44.045c2.064 1.682-4.625 5.788-5.25 6.237-.834.601-2.518-.849-2.6-1.907-.079-1.059 6.969-4.771 7.85-4.33z" fill="url(#s)"/><path d="m22.112 44.627s-1.854.969-12.168 2.144c-.686.006-1.32-1.36-1.059-2.102.266-.741 7.34-4.038 12.934-2.837 0 0 4.012 1.405.293 2.795z" fill="url(#t)"/><path d="m4.471 34.319c-.137-1.672-1.184-6.862-1.447-6.671-1.518 2.412-1.012 6.137-.592 7.282 0 0 2.1.781 2.039-.611z" fill="#af1f23"/><path d="m9.864 40.354c2.154-1.458-.564-2.547-5.004-6.486-.766-.68-2.551.608-2.701 1.63-.149 1.023 6.802 5.209 7.705 4.856z" fill="url(#u)"/><path d="m20.061 37.165s-1.936-.397-10.633.889c-.563.149-.566 1.458-.182 2.05.383.592 6.92 1.902 11.217-.414 0 .001 2.709-1.458-.402-2.525z" fill="url(#v)"/><path d="m20.954 32.643c.4-.744-.332-5.119-11.055-7.122-.57-.207-.541 1.533-.582 2.309 6.58 7.82 10.31 7.282 11.637 4.813z" fill="url(#w)"/><path d="m4.584 19.591c-.012-1.857-1.195-8.122-1.482-7.939-1.766 2.505-.963 6.501-.615 7.804-.002.001 2.051 1.672 2.097.135z" fill="#af1f23"/><path d="m9.319 27.832c6.037-.091-3.199-8.137-3.779-8.852-.701-.861-2.691-.472-3.264.505-.576.978 6.031 8.319 7.043 8.347z" fill="url(#x)"/><path d="m32.179 18.304c-5.301-.005-18.179 2.729-18.179 13.687s10.82 12.785 12.119 15.828 6.061 2.436 6.061 2.436 4.76.609 6.057-2.436c1.299-3.044 11.763-4.87 11.763-15.828s-12.597-13.682-17.821-13.687z" fill="url(#y)"/><path d="m36.74 20.942c-.972 0-1.758-.779-1.758-1.743 0-.963.786-1.744 1.758-1.744.969 0 1.755.782 1.755 1.744.002.964-.787 1.743-1.755 1.743z" fill="#302c3b"/><path d="m37.396 18.931c-.667 0-.667-1 0-1 .667.001.667 1 0 1z" fill="#6e8189"/><path d="m25.505 19.198c0-.963.786-1.744 1.755-1.744.972 0 1.758.782 1.758 1.744 0 .964-.786 1.743-1.758 1.743-.968.001-1.757-.778-1.755-1.743z" fill="#302c3b"/><path d="m26.604 18.931c-.667 0-.667-1 0-1s.666 1 0 1z" fill="#6e8189"/><g fill="#af1f23"><path d="m45.115 8.681c-.667 0-.667-1 0-1 .667.001.667 1 0 1z"/><path d="m47.658 10.95c-.667 0-.667-1 0-1 .667.001.667 1 0 1z"/><path d="m48.324 8.48c-1.066 0-1.066-1.6 0-1.6 1.067.003 1.067 1.6 0 1.6z"/><path d="m52.346 12.962c-.667 0-.667-1 0-1 .667.001.667 1 0 1z"/><path d="m51.127 21.202c-.667 0-.667-1 0-1 .667.001.667 1 0 1z"/><path d="m52.19 16.295c-1.066 0-1.066-1.6 0-1.6 1.067.003 1.067 1.6 0 1.6z"/><path d="m18.885 8.681c.667 0 .667-1 0-1-.667.001-.667 1 0 1z"/><path d="m16.342 10.95c1.066 0 1.066-1.6 0-1.6-1.066.002-1.066 1.6 0 1.6z"/><path d="m15.676 8.181c.667 0 .667-1 0-1-.667.001-.667 1 0 1z"/><path d="m11.655 12.962c.667 0 .667-1 0-1-.667.001-.667 1 0 1z"/><path d="m11.358 16.481c1.066 0 1.066-1.6 0-1.6-1.066.003-1.066 1.6 0 1.6z"/><path d="m12.874 21.202c.667 0 .667-1 0-1-.667.001-.667 1 0 1z"/><path d="m22.645 26.288c-1.046 0-1.046-1.567 0-1.567 1.045.002 1.045 1.567 0 1.567z"/><path d="m22.909 30.487c-.801 0-.801-1.2 0-1.2.799.002.799 1.2 0 1.2z"/><path d="m18.544 38.042c-.801 0-.801-1.2 0-1.2.8.002.8 1.2 0 1.2z"/><path d="m20.486 34.462c-1.046 0-1.046-1.567 0-1.567 1.045.002 1.045 1.567 0 1.567z"/><path d="m43.525 40.184c-1.046 0-1.046-1.566 0-1.566 1.045.001 1.045 1.566 0 1.566z"/><path d="m45.435 35.246c-1.046 0-1.046-1.568 0-1.568 1.044.002 1.044 1.568 0 1.568z"/><path d="m40.909 36.843c-.801 0-.801-1.199 0-1.199.799.001.799 1.199 0 1.199z"/><path d="m38.848 42.171c-.801 0-.801-1.199 0-1.199.799.001.799 1.199 0 1.199z"/><path d="m18.544 30.214c-1.046 0-1.046-1.567 0-1.567 1.045 0 1.043 1.567 0 1.567z"/></g></svg>