<svg enable-background="new 0 0 64 64" height="64" viewBox="0 0 64 64" width="64" xmlns="http://www.w3.org/2000/svg" xmlns:xlink="http://www.w3.org/1999/xlink"><linearGradient id="a" gradientTransform="matrix(.6186 -.7857 .7857 .6186 -62.8546 -103.5121)" gradientUnits="userSpaceOnUse" x1="-53.6519" x2="-5.6655" y1="150.6621" y2="150.6621"><stop offset="0" stop-color="#38312d"/><stop offset=".1876" stop-color="#4c443f"/><stop offset=".5148" stop-color="#6a5f59"/><stop offset=".7971" stop-color="#7c6f69"/><stop offset="1" stop-color="#82756f"/></linearGradient><linearGradient id="b" gradientUnits="userSpaceOnUse" x1="2" x2="20.4688" y1="16.2476" y2="16.2476"><stop offset="0" stop-color="#82756f"/><stop offset=".1876" stop-color="#6e625d"/><stop offset=".5148" stop-color="#504743"/><stop offset=".7971" stop-color="#3e3733"/><stop offset="1" stop-color="#38312d"/></linearGradient><linearGradient id="c" gradientTransform="matrix(.9608 -.2773 .2773 .9608 -13.8978 -38.576)" gradientUnits="userSpaceOnUse" x1="25.8208" x2="41.0049" y1="94.4453" y2="94.4453"><stop offset="0" stop-color="#cfd8dd"/><stop offset=".0616" stop-color="#d5dde2"/><stop offset=".252" stop-color="#e2e9ed"/><stop offset=".4985" stop-color="#eaeff3"/><stop offset="1" stop-color="#ecf1f5"/></linearGradient><linearGradient id="d" gradientTransform="matrix(.9608 -.2773 .2773 .9608 -13.8383 -38.7821)" gradientUnits="userSpaceOnUse" x1="4.8159" x2="26.8667" y1="89.4111" y2="89.4111"><stop offset="0" stop-color="#82756f"/><stop offset=".2029" stop-color="#7c6f69"/><stop offset=".4852" stop-color="#6a5f59"/><stop offset=".8124" stop-color="#4c443f"/><stop offset="1" stop-color="#38312d"/></linearGradient><radialGradient id="e" cx="7.3765" cy="76.5918" gradientTransform="matrix(.9608 -.2855 .2773 .9892 -13.8383 -40.8276)" gradientUnits="userSpaceOnUse" r="8.099"><stop offset="0" stop-color="#f4f8fc"/><stop offset=".3201" stop-color="#f1f5f9"/><stop offset=".5921" stop-color="#e6ecf0"/><stop offset=".8456" stop-color="#d5dce1"/><stop offset="1" stop-color="#c6cfd4"/></radialGradient><radialGradient id="f" cx="1.2881" cy="78.0781" gradientTransform="matrix(.49 -.8975 .2891 .1673 -14.1544 24.1307)" gradientUnits="userSpaceOnUse" r="6.8532"><stop offset="0" stop-color="#ffc800"/><stop offset=".3537" stop-color="#fab201"/><stop offset=".7076" stop-color="#f6a301"/><stop offset="1" stop-color="#f59e01"/></radialGradient><path d="m23.344 11.081c3.377 15.683-6.418 16.506-6.418 16.506l14.163 9.222c2.531-1.575.248-3.036 3.607-2.526 1.526.23-2.563-5.497.697-5.602 1.664-.054-2.88-5.295.395-5.359 2.773-.056.853-3.255 1.248-5.145.685.139 7.271-.496 2.758-2.073 10.836-1.539 10.011-3.663 4.948-4.244 2.03.105 5.421.077 7.446-1.127 2.842-1.693.585-1.847-6.344-1.503 3.242-.25 13.51-1.95 16.156-7.23 0 0-40.318 1.373-38.656 9.081z" fill="url(#a)"/><path d="m62 2c-4.573 4.221-27.141 7.885-27.141 7.885 25.234.495 27.141-7.885 27.141-7.885z" fill="#524a47"/><path d="m32.688 13.16c15.324 1.895 20.029-2.769 20.029-2.769-2.117 1.096-20.029 2.769-20.029 2.769z" fill="#524a47"/><path d="m31.939 15.702c12.315 1.865 16.222-1.988 16.222-1.988-2.115 1.093-16.222 1.988-16.222 1.988z" fill="#524a47"/><path d="m30.644 18.067c7.717 1.896 10.455-.587 10.455-.587-3.309.753-10.455.587-10.455.587z" fill="#524a47"/><path d="m16.926 24.6c1.119-1.27-.579-1.146-1.816-2.013 1.473-1.892 1.414-3.816-.837-2.75 2.213-2.743 2.653-5.156.912-5 1.741-3.281 1.854-6.938-1.106-4.132 4.461-7.146.851-8.705.851-8.705s-17.572 20.607-11.746 23.255c4.027 1.832 6.227 3.645 7.38 5.24 3.035-1.385 6.604-1.42 9.905-2.236.029-.044-5.001-2.006-3.543-3.659z" fill="url(#b)"/><path d="m40.723 48.252c5.702 2.78 6.942-.063 3.621-2.346 3.591.95 6.761-.337 7.68-3.954 0 0-12.65-.357-16.604-3.14 4.614 18.605 5.659 9.968 5.303 9.44z" fill="url(#c)"/><path d="m27.104 52.052c-.477 1.545-2.189 2.969-2.189 2.969l.648 1.838c2.646-1.686 3.77-3.9 3.77-3.9-.402-2.242-2.229-.907-2.229-.907z" fill="#f59e01"/><path d="m31.618 52.098c-.38 1.79-2.19 3.563-2.19 3.563l.944 2.022c2.842-2.163 3.895-4.772 3.895-4.772-.702-2.5-2.648-.814-2.649-.813z" fill="#f59e01"/><path d="m28.479 46.485 3.101-.922s1.346 4.801-.797 6.7c-2.143 1.905-5.768 1.35-3.836-1.123 1.933-2.47 1.532-4.654 1.532-4.655z" fill="#524a47"/><path d="m31.665 46.273c-.012 3.56-1.346 6.232-1.346 6.232 2.764 2.437 3.233.224 3.233.224.361 1.288 1.453 1.958 1.453 1.958.938-1.54.667-2.865.446-3.478.502.856 1.748 1.329 1.748 1.329.574-2.632-.811-4.392-1.076-4.695 1.221 1.455 2.507 1.145 2.507 1.145-.163-16.99-17.983-19.166-17.983-19.166l-5.821 11.544c-.68 9.262 12.788 8.119 16.839 4.907z" fill="url(#d)"/><path d="m10.694 36.354c-3.12-2.961.213-9.846 5.322-10.752-1.146.704-1.092 1.433-1.092 1.433s2.286-1.877 4.987-.833c-1.308.718-1.693 1.71-1.693 1.71s3.112-1.432 5.144 1.82c-1.356-.33-2.584.079-2.584.079s3.604 1.063 3.812 4.884c-1.243-.454-2.636-.639-2.636-.639s2.041 1.588 1.662 4.418c-1.354.899-3.075-.681-3.075-.681s1.078 2.695.521 4.395c-1.996.065-3.211-1.324-3.211-1.324s.398 1.822-.591 3.345c-1.076-.858-1.524-3.03-1.524-3.03s-.487 1.358-.418 2.744c-2.539-1.321-1.091-5.31-3.045-7.094-.001 0-1.274-.185-1.579-.475z" fill="url(#e)"/><path d="m12.37 40.299s-.146-2.261.353-3.063c1.532-2.462 2.506-2.197 2.462-3.324-2.661.655-5.14 4.199-2.815 6.387z" fill="#f9c802"/><path d="m12.37 40.299s-.631-1.835-.051-3.286c.527-1.312 1.846-1.703 2.865-3.102-3.217 1.226-6.121 3.402-2.814 6.388z" fill="#de8f01"/><path d="m10.384 33.901c-1.104.276-2.01 2.79-1.703 4.45.32 1.739 2.166 2.409 2.166 2.409s-3.107-2.891 4.338-6.85c-2.396.686-3.639 1.744-3.639 1.744s-.672-1.875-1.162-1.753z" fill="url(#f)"/><path d="m18.935 55.33c4.258 1.691 3.308 4.604 5.496 4.973 4.41-6.509.174-10.353-.334-8.294 1.49 1.7.074 3.903-.225 2.836-.5-1.788-2.564-4.286-3.019-2.266.821.506 2.675 4.47 1.038 3.137-2.921-2.381-3.29-.915-2.956-.386z" fill="#f9c802"/><path d="m23.022 61.324c.461-.913-.496-2.712 1.367-1.878 1.208.538-1.939 3.01-1.367 1.878z" fill="#302c3b"/><path d="m19.518 54.75c1.71.784-.065 1.237-.373 2.131-.384 1.106-.733-2.636.373-2.131z" fill="#302c3b"/><path d="m21.437 52.291c1.711.782-.065 1.238-.373 2.131-.383 1.106-.733-2.637.373-2.131z" fill="#302c3b"/><path d="m24.653 51.771c1.711.782-.064 1.238-.372 2.13-.383 1.108-.731-2.637.372-2.13z" fill="#302c3b"/><path d="m24.724 55.712c4.256 1.691 3.307 4.604 5.496 4.974 4.41-6.51.172-10.353-.335-8.297 1.491 1.704.073 3.905-.226 2.838-.498-1.786-2.564-4.286-3.018-2.265.823.506 2.674 4.468 1.039 3.137-2.921-2.383-3.292-.917-2.956-.387z" fill="#f9c802"/><g fill="#302c3b"><path d="m28.81 61.707c.463-.913-.495-2.712 1.369-1.88 1.205.539-1.94 3.011-1.369 1.88z"/><path d="m25.306 55.132c1.711.783-.065 1.237-.373 2.132-.383 1.105-.731-2.638.373-2.132z"/><path d="m27.224 52.672c1.712.782-.064 1.238-.371 2.133-.385 1.104-.733-2.638.371-2.133z"/><path d="m30.443 52.154c1.71.781-.065 1.237-.374 2.13-.382 1.107-.73-2.637.374-2.13z"/><path d="m15.241 31.171c.238.501-.004 1.123-.541 1.393-.533.27-1.16.083-1.396-.417-.238-.501.004-1.125.538-1.395.536-.268 1.162-.082 1.399.419z"/></g><path d="m13.937 31.64c.171.36-.266.581-.437.22s.265-.58.437-.22z" fill="#6e8189"/><path d="m12.783 32.882s.755-1.999 2.761-2.323c-1.527-1.202-3.533.692-2.761 2.323z" fill="#cfd8dd"/></svg>