<svg enable-background="new 0 0 64 64" height="64" viewBox="0 0 64 64" width="64" xmlns="http://www.w3.org/2000/svg"><path d="m8.076 23.823c1.357.361 3.204 1.932 5.483 2.299.792-.59 3.085-5.664 4.288-4.654 2.818 2.369-1.79 7.547-4.631 7.242-.631-.068-4.279-2.273-5.701-3.721.001 0-.121-1.049.561-1.166z" fill="#7ab51d"/><path d="m26.895 8.252c-.135 1.473.649 3.836.213 6.227-.791.592-6.084 1.176-5.586 2.711 1.169 3.598 7.33.746 8.01-2.184.15-.652-.595-5.02-1.41-6.922-.001 0-.931-.833-1.227.168z" fill="#7ab51d"/><path d="m23.857 17.959s3.504-.197 5.619-2.758c-.506 2.486-4.818 4.117-4.818 4.117z" fill="#689c19"/><path d="m29.585 53.99s.424-2.844.06-4.826c-.723-.811-5.342-2.803-6.831-4.225-3.535-3.381 2.515-9.621 6.708-9.404.949.049.891 2.309.374 2.771-1.071.957-2.202 2.715-3.297 4.225 3.267.717 6.593 3.857 6.499 6.49-.035.863-2.127 5.563-2.127 5.563z" fill="#7ab51d"/><path d="m39.026 22.102c1.449 1.264 2.304 6.324 3.001 7.189 3.246.469 4.066.418 6.057.521 1.619.24.297 1.656.297 1.656-2.516 1.203-6.039 1.307-6.93 1.137-1.834-.357-3.225-3.08-4.25-5.236-.8 1.285-1.967 3.043-1.967 3.043s-3.795-.951-3.326-1.691c1.344-2.129 3.719-9.586 7.118-6.619z" fill="#7ab51d"/><path d="m38.434 25.456s-2.932 3.703-4.664 4.109c-.463.107.857 1.473 1.318 1.375 1.553-.324 3.346-5.484 3.346-5.484z" fill="#689c19"/><path d="m11.42 3.958c5.787 2.188 4.633 6.316 6.205 9.092 1.131 1.998 7.979 4.438 12.924 10.152 11.879 13.736 10.248 23.947 17.605 25.837 5.488 1.41 14.982-8.725 9.314-22.216-7.48-17.803-26.236-24.821-24.704-24.821 2.007 0 19.289 7.459 27.18 25.775 5.572 12.939-.814 26.376-11.537 26.371-11.87-.007-14.948-13.085-23.277-19.337-9.321-6.998-9.929-15.943-11.856-17.16-2.633-1.658-6.541-.439-8.613-6.553-3.457-10.207-2.357-10.59 6.759-7.14z" fill="#7ab51d"/><path d="m59.219 35.748c.057-2.802-.443-5.82-1.75-8.925-7.481-17.803-26.237-24.821-24.705-24.821 2.007 0 27.838 13.854 26.455 33.746z" fill="#689c19"/><path d="m5.09 2.026c-1.26.199-1.727.471-1.541 1.648 1.402.99-.117 2.219 1.57 4.783 6.707 2.02 4.303 6.59 8.342 8.025 3.49 1.238 4.368 9.213 11.544 14.814 14.196 11.08 11.925 19.267 23.157 20.351 3.975.385 11.906-1.084 13.801-12.863-.5 8.576-5.932 15.367-13.557 15.363-11.869-.006-14.947-13.084-23.276-19.336-9.321-6.998-9.929-15.943-11.856-17.16-2.633-1.658-6.541-.439-8.613-6.553-2.37-6.996-2.598-9.377.429-9.072z" fill="#689c19"/><path d="m13.853 8.885c2.299-2.43-1.56-6.506-3.86-4.074-.852.897 3.009 4.973 3.86 4.074z" fill="#302c3b"/><path d="m5.467 9.59c-2.299 2.428 1.561 6.504 3.859 4.074.851-.898-3.008-4.974-3.859-4.074z" fill="#302c3b"/><path d="m12.451 5.031c.136-.598-1.045-.933-1.179-.333-.136.596 1.044.931 1.179.333z" fill="#6e8189"/><path d="m6.668 10.938c.422-.447-.419-1.336-.841-.891s.422 1.336.841.891z" fill="#6e8189"/><path d="m5.613 2.637c.584-.597 1.175.881-.244.469-1.367-.397.098-.32.244-.469z" fill="#41751a"/><path d="m3.412 4.963c.141-.154.068-1.701.443-.26.389 1.501-1.009.88-.443.26z" fill="#41751a"/><path d="m25.543 43.783s2.578-3.602 3.132-7.203c.091-.584 1.49 1.387 1.319 1.953-.812 2.688-4.451 5.25-4.451 5.25z" fill="#689c19"/><path d="m17.35 23.94s-.992 3.787-4.133 4.77c2.445.496 5.509-2.926 5.509-2.926z" fill="#689c19"/><g fill="#92c932"><path d="m28.727 31.772c2.6.324-.89-7.537-2.996-4.869-2.19 2.767 1.347 4.664 2.996 4.869z"/><path d="m33.56 31.932c1.663.207-.567-4.824-1.917-3.117-1.401 1.771.863 2.986 1.917 3.117z"/><path d="m30.851 27.317c.976.121-.333-2.832-1.126-1.83-.823 1.041.505 1.754 1.126 1.83z"/><path d="m21.187 19.78c1.663.207-.567-4.824-1.918-3.117-1.4 1.771.864 2.986 1.918 3.117z"/><path d="m24.008 20.336c.979.121-.334-2.832-1.125-1.83-.824 1.041.507 1.754 1.125 1.83z"/></g><path d="m7.113 22.619c-.581-.056-1.111-.449-1.354-1.245-.273-.905-1.574.043-.706.615.941.621.966.747.688 1.053-.308.339-1.137-.005-2.463-.921-.702-.485-1.248.708-.409.94.765.213 2.354.173 2.42.937.062.722-1.624.88-2.802.986-.912.082-.411 1.5.395 1.059.82-.447 2.144-1.315 2.735-.774.573.525-1.081 1.648-1.503 2.069-.652.655.598 1.52.911.594.644-1.899 1.366-1.618 2.392-2.018 1.921-.75 1.438-3.126-.304-3.295z" fill="#7ab51d"/><path d="m25.799 7.897c-.055-.589-.442-1.127-1.229-1.372-.893-.277.043-1.598.607-.717.611.955.736.98 1.037.699.335-.313-.004-1.153-.908-2.499-.479-.712.698-1.266.928-.415.21.775.171 2.387.924 2.454.711.063.867-1.647.971-2.842.08-.926 1.479-.417 1.044.4-.44.831-1.296 2.174-.763 2.774.518.582 1.625-1.097 2.04-1.525.646-.661 1.499.606.585.924-1.871.653-1.596 1.385-1.988 2.426-.739 1.951-3.082 1.462-3.248-.307z" fill="#7ab51d"/><path d="m49.521 28.25c.816-.08 1.563-.632 1.904-1.753.385-1.273 2.217.062.992.866-1.324.874-1.359 1.051-.971 1.481.436.479 1.602-.005 3.469-1.296.988-.683 1.756.997.574 1.323-1.074.3-3.311.245-3.404 1.318-.086 1.016 2.285 1.238 3.943 1.387 1.285.115.576 2.111-.557 1.49-1.152-.628-3.016-1.85-3.85-1.088-.805.739 1.521 2.319 2.117 2.913.916.922-.842 2.139-1.283.836-.906-2.674-1.92-2.278-3.365-2.839-2.701-1.056-2.024-4.402.431-4.638z" fill="#7ab51d"/><path d="m28.098 53.468c-.634.529-1.547.676-2.568.126-1.16-.624-1.525 1.634-.1 1.325 1.545-.332 1.694-.232 1.719.352.025.65-1.137 1.145-3.355 1.571-1.176.226-.548 1.964.516 1.348.969-.56 2.513-2.202 3.327-1.511.769.656-.753 2.516-1.822 3.81-.827 1.003 1.063 1.907 1.433.655.377-1.271.843-3.473 1.963-3.531 1.084-.055.541 2.731.533 3.577-.006 1.31 2.087.909 1.492-.329-1.225-2.541-.231-2.988.398-4.421 1.175-2.686-1.638-4.564-3.536-2.972z" fill="#7ab51d"/></svg>