<svg enable-background="new 0 0 64 64" height="64" viewBox="0 0 64 64" width="64" xmlns="http://www.w3.org/2000/svg" xmlns:xlink="http://www.w3.org/1999/xlink"><linearGradient id="a" gradientTransform="matrix(.7071 .7071 -.7071 .7071 13.5674 18.0321)" gradientUnits="userSpaceOnUse" x1="24.2065" x2="24.2065" y1="28.5264" y2="-21.7397"><stop offset="0" stop-color="#ff6672"/><stop offset=".2275" stop-color="#fc6370"/><stop offset=".427" stop-color="#f55868"/><stop offset=".616" stop-color="#e8465c"/><stop offset=".7986" stop-color="#d52d4b"/><stop offset=".975" stop-color="#be0c35"/><stop offset="1" stop-color="#ba0731"/></linearGradient><radialGradient id="b" cx="23.3799" cy="-31.208" gradientTransform="matrix(.7071 .6984 -1.5052 1.4867 -11.3396 43.3319)" gradientUnits="userSpaceOnUse" r="8.5158"><stop offset="0" stop-color="#ff6672"/><stop offset=".1754" stop-color="#f85d6c"/><stop offset=".4616" stop-color="#e7455b"/><stop offset=".8207" stop-color="#ca1d40"/><stop offset="1" stop-color="#ba0731"/></radialGradient><path d="m23.178 35.49 3.278 2.836c-3.43 12.186-19.678 16.48-16.488 14.395 3.411-2.235 10.076-6.831 13.21-17.231z" fill="#ba0731"/><path d="m25.525 35.468 3.585 2.423c-1.993 12.516-17.631 18.73-14.705 16.273 3.129-2.625 9.213-7.992 11.12-18.696z" fill="#c90835"/><path d="m27.858 37.781-2.519-3.553c-10.982 6.51-18.553 17.736-15.394 15.6 3.238-2.189 10.45-8.631 17.913-12.047z" fill="#c90835"/><path d="m22.976 35.697-1.5-4.107c-12.42-.875-21.93 13.213-18.913 10.872 3.225-2.505 9.743-7.314 20.413-6.765z" fill="#c90835"/><path d="m28.771 39.615 3.826 2.004c-.622 12.662-15.489 20.6-12.848 17.83 2.826-2.963 8.29-8.982 9.022-19.834z" fill="#ba0731"/><path d="m49.229 40.107c-2.328-2.316-5.162-.879-5.678-.111-1.123 1.666 4.939 2.031 1.82 5.133-8.887 8.838-16.557-7.555-5.049-9.646 2.972-.537 4.646-.984 5.205-4.325.793-4.88 2.891-3.702 5.318-6.591l-9.528-9.475c-2.927 2.43-1.69 4.473-6.629 5.289-3.36.556-3.808 2.222-4.351 5.177-.004.021-.01.039-.014.059-2.151 11.352-18.557 3.74-9.687-5.082 3.118-3.1 3.486 2.927 5.163 1.811.771-.513 2.217-3.328-.115-5.646-2.943-2.926-14.098 2.503-11.76 12.812.623 2.742 2.043 4.478 3.854 5.492-6.21 1.813-13.038 7.707-7.407 13.302 1.296 1.29 4.258 4.235 10.943.251 6.61-3.941 1.521-8.08-1.364-7.363-2.888.719 4.944 4.118-3.401 5.412-4.161.645-5.365-5.871 3.309-7.971 3.333-.807 5.699-.743 7.826-.895-.689 1.861-1.205 3.906-1.428 6.117-.844 8.355-10.691 11.406-13.889 12.318-3.196.91 7.664 2.859 14.18-5.141 1.59-1.953 2.596-3.725 3.369-5.42.662 2.889 2.552 5.318 6.43 6.189 10.37 2.328 15.829-8.766 12.883-11.696z" fill="url(#a)"/><path d="m56.417 4.814s-4.914.291-9.238-.75c-4.44-1.071-4.969 11.535-7.82 15.976-.001 0 12.494-9.937 17.058-15.226z" fill="#ba0731"/><path d="m61.185 9.553s-.295 4.888.75 9.186c1.08 4.413-11.598 4.94-16.064 7.776-.001.001 9.991-12.424 15.314-16.962z" fill="#ba0731"/><path d="m57.276 17.965c4.861-5.905 5.215-10.558 3.256-12.505-1.957-1.949-6.635-1.596-12.576 3.238-6.584 5.361-11.978 4.565-12.629 7.317-.652 2.756 3.736.719 3.211 5.081-.266 2.205.123 3.996 1.186 5.055 1.065 1.057 2.865 1.444 5.084 1.179 4.387-.521 2.34 3.845 5.111 3.195 2.768-.648 1.967-6.011 7.357-12.56z" fill="url(#b)"/><path d="m33.845 29.494c-1.36 1.354-2.566 2.341-2.697 2.21-.133-.131.863-1.329 2.222-2.683 1.361-1.352 2.567-2.342 2.698-2.211.13.13-.864 1.331-2.223 2.684z" fill="#b00505"/><path d="m35.323 30.969c-1.598 1.587-2.969 2.795-3.068 2.697-.098-.1 1.115-1.463 2.713-3.053 1.596-1.584 2.969-2.794 3.067-2.695.099.098-1.116 1.463-2.712 3.051z" fill="#b00505"/><ellipse cx="36.632" cy="32.218" fill="#b00505" rx=".322" ry="3.387" transform="matrix(.7094 .7048 -.7048 .7094 33.3544 -16.4558)"/><path d="m43.97 33.746c-.807.797-2.129.785-2.949-.023-.822-.813-.832-2.117-.025-2.912.808-.8 2.127-.791 2.951.021.82.813.829 2.117.023 2.914z" fill="#fff"/><path d="m43.544 33.326c-.576.568-1.52.563-2.106-.016-.589-.582-.594-1.514-.017-2.082.576-.571 1.52-.564 2.107.016.586.578.594 1.513.016 2.082z" fill="#302c3b"/><path d="m42.218 31.182c-.389.384.086.852.473.469.387-.384-.087-.852-.473-.469z" fill="#6e8189"/><path d="m35.063 24.949c-.807.796-2.129.786-2.95-.023-.823-.813-.831-2.117-.023-2.915.807-.798 2.127-.79 2.949.022s.831 2.118.024 2.916z" fill="#fff"/><path d="m34.638 24.529c-.576.568-1.521.563-2.107-.018-.588-.58-.594-1.512-.018-2.082.576-.569 1.521-.563 2.107.018.587.578.594 1.512.018 2.082z" fill="#302c3b"/><path d="m33.312 22.385c-.389.383.084.852.473.469.387-.385-.087-.853-.473-.469z" fill="#6e8189"/><g fill="#73031e"><path d="m42.999 16.015c-1.092 1.077.24 2.393 1.332 1.315 1.09-1.078-.242-2.395-1.332-1.315z" opacity=".15"/><path d="m45.554 22.287c-1.09 1.075.24 2.391 1.332 1.314 1.092-1.078-.24-2.394-1.332-1.314z" opacity=".15"/><path d="m46.829 18.477c-.629.62.137 1.378.768.757.629-.621-.139-1.379-.768-.757z" opacity=".15"/><path d="m49.372 23.076c-.629.62.139 1.379.768.758s-.139-1.38-.768-.758z" opacity=".15"/><path d="m52.604 15.267c-.631.62.137 1.378.766.757s-.139-1.379-.766-.757z" opacity=".15"/><path d="m51.685 9.863c-.629.62.139 1.379.768.757.628-.62-.141-1.378-.768-.757z" opacity=".15"/><path d="m58.563 9.606c-.629.62.139 1.378.768.757.629-.62-.141-1.379-.768-.757z" opacity=".15"/><path d="m45.698 13.064c-.631.62.139 1.378.766.757.631-.62-.139-1.379-.766-.757z" opacity=".15"/><path d="m48.765 13.607c-1.092 1.076.24 2.392 1.332 1.313 1.09-1.076-.243-2.393-1.332-1.313z" opacity=".15"/><path d="m51.015 18.735c-1.092 1.075.24 2.392 1.332 1.313 1.09-1.076-.243-2.393-1.332-1.313z" opacity=".15"/><path d="m54.979 12.282c-1.092 1.075.24 2.391 1.332 1.314s-.242-2.394-1.332-1.314z" opacity=".15"/><path d="m55.735 6.992c-1.092 1.076.24 2.392 1.33 1.313 1.092-1.076-.24-2.393-1.33-1.313z" opacity=".15"/></g></svg>