<svg enable-background="new 0 0 64 64" height="64" viewBox="0 0 64 64" width="64" xmlns="http://www.w3.org/2000/svg" xmlns:xlink="http://www.w3.org/1999/xlink"><linearGradient id="a" gradientUnits="userSpaceOnUse" x1="50.7578" x2="50.7578" y1="51.8057" y2="21.9282"><stop offset="0" stop-color="#9e6c49"/><stop offset=".4237" stop-color="#a26f4c"/><stop offset=".8816" stop-color="#af7953"/><stop offset="1" stop-color="#b47d56"/></linearGradient><linearGradient id="b" gradientUnits="userSpaceOnUse" x1="11.4277" x2="17.4668" y1="13.2075" y2="13.2075"><stop offset="0" stop-color="#785647"/><stop offset=".0032" stop-color="#785647"/><stop offset=".3452" stop-color="#8d6248"/><stop offset=".6807" stop-color="#9a6a49"/><stop offset="1" stop-color="#9e6c49"/></linearGradient><linearGradient id="c" gradientUnits="userSpaceOnUse" x1="9.6226" x2="42.9434" y1="32.9111" y2="32.9111"><stop offset="0" stop-color="#ffd1ad"/><stop offset=".2672" stop-color="#fbcca8"/><stop offset=".5912" stop-color="#eebf99"/><stop offset=".9434" stop-color="#daa981"/><stop offset="1" stop-color="#d6a57c"/></linearGradient><linearGradient id="d"><stop offset="0" stop-color="#9e6c49"/><stop offset="1" stop-color="#b47d56"/></linearGradient><linearGradient id="e" gradientUnits="userSpaceOnUse" x1="15.2681" x2="15.2681" xlink:href="#d" y1="41.082" y2="23.6909"/><linearGradient id="f" gradientUnits="userSpaceOnUse" x1="34.9951" x2="34.9951" xlink:href="#d" y1="61.8242" y2="22.5337"/><path d="m10.258 15.328c-.518-5.078 3.194-7.947 3.148-7.215-.15 2.338.256 4.168-.986 6.127-.543.858-2.096 1.723-2.162 1.088z" fill="#9e6c49"/><path d="m10.32 14.123c-1.901 1.004-3.666 1.551-4.204 2.379-.54.828-3.611 3.16-3.351 4.922.261 1.76.984 1.84 1.4 1.811 1.091 1.301 4.982.201 5.828-.584-1.38 12.806 17.059 12.037 21.695 15.091 4.293 2.824 19.037-4.443 11.381-14.334-4.506-5.822-9.826-6.021-15.99-3.59-6.502 2.564-10.691 2.693-12.607-.73-1.515-2.709-.829-6.719-4.152-4.965z" fill="#b47d56"/><path d="m41.875 33.803c2.314 10.695 4.939 24.056 20.125 15.013-21.453 5.065-10.432-17.673-19.695-25.986-5.451-4.891-1.397 11.725-.43 10.973z" fill="url(#a)"/><path clip-rule="evenodd" d="m7.096 16.881s1.527-.309 2.244.914c0 0-.719 1.563-2.053 1.072-.721-.265-.191-1.986-.191-1.986z" fill="#302c3b" fill-rule="evenodd"/><path d="m7.541 17.369c-.026.498-.387.465-.361-.037.017-.373.377-.34.361.037z" fill="#6e8189"/><path d="m10.807 16.436c6.152-1.141 8.198-6.961 7.354-6.639-2.693 1.023-4.99 1.154-6.85 3.461-.813 1.006-1.277 3.32-.504 3.178z" fill="#b47d56"/><path d="m11.635 15.732c4.237-.854 6.449-5.313 5.682-5.043-5.176 1.811-6.454 5.196-5.682 5.043z" fill="url(#b)"/><path d="m2.129 22.02c-.365-.908.096-1.381.754-1.756.654-.373 1.229 2.299.984 2.441-.242.139-1.447.033-1.738-.685z" fill="#302c3b"/><path d="m3.365 22.957s2.387.355 3.576-.77c.054.708-2.197 1.827-3.576.77z" fill="#9e6c49"/><path d="m9.994 22.65c-3.342 11.592 16.943 17.575 17.002 18.577.252 4.262 13.674 1.445 15.947-7.697-7.775.054-28.082 3.906-32.949-10.88z" fill="url(#c)"/><path d="m13.113 39.988c1.024-6.943 3.418-7.33-1.275-14.418-2.326-3.518 4.035-1.326 4.609.35.947 2.752 3.908 4.523 2.281 6.393-1.627 1.873-4.484 6.822-3.865 7.892.614 1.076-1.978 1.334-1.75-.217z" fill="url(#e)"/><path d="m16.201 44.697c-1.676-.014-3.316-3.158-3.088-4.709 1.828-.684 2.581 1.055 2.877 2.861.09.537-.849-1.074-.879-.666-.098 1.274 1.794 2.522 1.09 2.514z" fill="#302c3b"/><path d="m26.873 61.824c4.074-4.666 11.637-7.324 12.221-7.662.588-.344 2.439-2.91 2.115-3.541-.328-.633-4.404-11.699-2.443-12.936 8.652-5.447 7.756-11.713 2.412-14.135-5.348-2.42-16.619-.092-16.42 2.479.69 8.967 8.348 18.041 11.033 24.379 1.129 2.662-8.469 4.805-8.918 11.416z" fill="url(#f)"/><path d="m7.203 23.719s4.694-1.146 4.903-4.521c.54 1.794-.064 4.173-4.903 4.521z" fill="#9e6c49"/><path d="m26.721 61.961c.213.283.916-.982 3.232-2.916.123-.107-.654-.91.482-3.246-3.318 2.357-4.441 5.199-3.714 6.162z" fill="#302c3b"/></svg>