<svg enable-background="new 0 0 64 64" height="64" viewBox="0 0 64 64" width="64" xmlns="http://www.w3.org/2000/svg" xmlns:xlink="http://www.w3.org/1999/xlink"><linearGradient id="a"><stop offset="0" stop-color="#56a134"/><stop offset=".2297" stop-color="#549d34"/><stop offset=".4642" stop-color="#4e9132"/><stop offset=".701" stop-color="#447c31"/><stop offset=".9379" stop-color="#36602e"/><stop offset="1" stop-color="#32572d"/></linearGradient><linearGradient id="b" gradientUnits="userSpaceOnUse" x1="2" x2="62.001" xlink:href="#a" y1="31.5703" y2="31.5703"/><linearGradient id="c" gradientUnits="userSpaceOnUse" x1="7.5322" x2="59.6582" y1="33.4727" y2="33.4727"><stop offset="0" stop-color="#92c932"/><stop offset=".2929" stop-color="#8ac131"/><stop offset=".7568" stop-color="#73aa2d"/><stop offset="1" stop-color="#649c2b"/></linearGradient><linearGradient id="d" gradientUnits="userSpaceOnUse" x1="29.5303" x2="40.9727" xlink:href="#a" y1="53.2949" y2="53.2949"/><linearGradient id="e"><stop offset="0" stop-color="#32572d"/><stop offset=".055" stop-color="#345b2d"/><stop offset=".3735" stop-color="#3d702b"/><stop offset=".6899" stop-color="#427c2a"/><stop offset="1" stop-color="#44802a"/></linearGradient><linearGradient id="f" gradientUnits="userSpaceOnUse" x1="36.6836" x2="36.6836" xlink:href="#e" y1="53.3818" y2="43.9629"/><linearGradient id="g" gradientUnits="userSpaceOnUse" x1="16.9199" x2="26.25" xlink:href="#a" y1="52.2363" y2="52.2363"/><linearGradient id="h" gradientUnits="userSpaceOnUse" x1="22.3325" x2="22.3325" xlink:href="#e" y1="52.5049" y2="41.584"/><path d="m34.205 52.042c3.317 4.068 4.547 7.411 3.752 7.694-1.458.519-2.919 2.264-1.193 2.264h5.322c1.006 0-.277-6.838-2.273-12.205-1.583-4.254-9.388-2.389-5.608 2.247z" fill="#297124"/><path d="m13.631 48.729c-1.249 7.697-1.701 10.727-2.497 11.009-1.457.518-2.918 2.262-1.193 2.262h5.322c1.006 0 .868-1.796 1.281-4.171.417-2.391 2.714-2.186 4.226-6.081 3.106-8-5.948-10.361-7.139-3.019z" fill="#297124"/><path d="m39.332 53.606c-11.681 2.109-27.721-2.953-29.82-14.926-.933-2.788-4.188-4.808.698-22.438.35-2.346 1.175-8.344-1.524-8.926-1.004.629-6.165.598-6.22-.579-1.171-.093-.049-2.098 2.396-2.657-1.078-2.285 2.441-2.677 4.303-1.229 12.217 4.203 3.219 23.137 6.633 30.024 7.991-1.846 26.152 4.738 28.662 11.337 3.76 2.793 15.246 5.816 17.3 11.317.942 2.521-.472 5.612-11.459 5.612-5.036 0 12.872-1.757 6.472-5.935-5.787-3.772-12.496-2.493-17.441-1.6z" fill="url(#b)"/><path d="m51.588 60.425c3.816-.609 12.123-2.483 5.723-6.661-5.785-3.774-12.004-3.815-16.948-2.922-11.682 2.109-26.901-1.51-29-13.481-.933-2.788-2.559-3.255.188-21.339.636-4.189.313-8.081-2.146-9.501-.229.47-.707.802-.707.802 2.478 1.004 1.896 6.614 1.228 8.886-4.387 14.912-1.58 19.736-.647 22.523 2.1 11.975 18.406 17.133 30.088 15.023 4.944-.894 11.413-2.245 17.198 1.527 4.671 3.05-4.977 5.143-4.977 5.143z" fill="url(#c)"/><path d="m38.83 52.768c4.49-4.038 2.813-7.518 2.813-7.518 3.093 4.866-2.813 7.518-2.813 7.518z" fill="#38702c"/><path d="m37.586 52.622c5.816-1.636 5.857-5.497 5.857-5.497.615 5.73-5.857 5.497-5.857 5.497z" fill="#38702c"/><path d="m23.703 48.545c5.69 4.102 10.217 2.111 10.217 2.111-6.281 3.529-10.217-2.111-10.217-2.111z" fill="#38702c"/><path d="m27.435 48.051c3.908 3.723 7.569 2.68 7.569 2.68-5.16 2.032-7.569-2.68-7.569-2.68z" fill="#38702c"/><path d="m18.74 40.367s-3.15 3.889 1.306 10.312c0 0-6.656-5.099-1.306-10.312z" fill="#38702c"/><path d="m12.54 36.658c.115-3.57 3.258-3.782 3.258-3.782-2.327 1.333-3.258 3.782-3.258 3.782z" fill="#38702c"/><path d="m6.721 6.52c-2.469 1.187-4.255.218-4.255.218 1.911.329 4.255-.218 4.255-.218z" fill="#297124"/><path d="m7.265 4.089c0 1.015-1.525 1.015-1.525 0 0-1.014 1.525-1.014 1.525 0z" fill="#302c3b"/><path d="m6.426 3.751c0 .305-.458.305-.458 0 .001-.304.458-.304.458 0z" fill="#6e8189"/><path d="m32.32 49.546c.772 8.464-.019 9.907-.814 10.19-1.458.519-2.919 2.264-1.193 2.264h5.322c1.006 0 .756-1.803.756-4.214 0-2.799 2.553-2.6 4.064-6.494 3.106-8.001-8.811-9.153-8.135-1.746z" fill="url(#d)"/><path d="m39.316 53.382c5.254-10.843-7.764-11.491-6.739-.257-4.111-13.456 14.91-10.987 6.739.257z" fill="url(#f)"/><path d="m18.407 47.515c2.05 8.245 1.284 11.939.488 12.223-1.457.517-2.918 2.262-1.193 2.262h5.322c1.006 0 .756-1.802.756-4.214 0-2.799 2.355-4.822 2.466-9.157.233-9.09-9.286-6.935-7.839-1.114z" fill="url(#g)"/><path d="m25.486 52.505c3.417-12.251-8.566-12.708-6.33-1.542-5.544-12.477 11.935-13.038 6.33 1.542z" fill="url(#h)"/><g fill="#38702c"><path d="m17.665 35.198c-1.348-.01-1.338 1.861.011 1.872 1.349.009 1.34-1.863-.011-1.872z"/><path d="m19.87 38.159c-.777-.007-.771 1.071.007 1.077s.771-1.073-.007-1.077z"/><path d="m28.49 39.936c-.778-.009-.772 1.071.004 1.077.777.006.773-1.075-.004-1.077z"/><path d="m19.871 33.367c-.777-.006-.772 1.073.006 1.078.777.007.769-1.074-.006-1.078z"/><path d="m37.264 39.265c-.777-.006-.771 1.073.006 1.078.777.007.769-1.074-.006-1.078z"/><path d="m34.359 37.395c-.777-.007-.771 1.072.007 1.078.778.005.771-1.076-.007-1.078z"/><path d="m25.158 34.181c-.968-.008-.961 1.335.008 1.342.966.006.959-1.336-.008-1.342z"/><path d="m27.332 36.592c-.968-.008-.961 1.335.008 1.342.966.006.959-1.336-.008-1.342z"/><path d="m21.824 35.464c-.968-.008-.961 1.335.008 1.342.966.007.959-1.336-.008-1.342z"/><path d="m32.866 39.804c-.968-.008-.961 1.335.009 1.342.965.006.958-1.336-.009-1.342z"/><path d="m24.429 38.198c-1.348-.012-1.338 1.861.012 1.87 1.348.01 1.338-1.862-.012-1.87z"/><path d="m30.532 36.327c-1.349-.011-1.338 1.861.011 1.871 1.349.011 1.339-1.864-.011-1.871z"/></g></svg>