<svg enable-background="new 0 0 64 64" height="64" viewBox="0 0 64 64" width="64" xmlns="http://www.w3.org/2000/svg" xmlns:xlink="http://www.w3.org/1999/xlink"><linearGradient id="a" gradientUnits="userSpaceOnUse" x1="29.2212" x2="29.2212" y1="55.8496" y2="35.0889"><stop offset="0" stop-color="#d9b080"/><stop offset=".314" stop-color="#f0c99b"/><stop offset=".503" stop-color="#ffdaad"/></linearGradient><linearGradient id="b" gradientUnits="userSpaceOnUse" x1="3.061" x2="14.3716" y1="48.5068" y2="48.3973"><stop offset=".2242" stop-color="#785e58" stop-opacity=".8"/><stop offset=".3305" stop-color="#856a60" stop-opacity=".679"/><stop offset=".5285" stop-color="#a88a76" stop-opacity=".4538"/><stop offset=".7945" stop-color="#e0be9a" stop-opacity=".1511"/><stop offset=".9273" stop-color="#ffdaad" stop-opacity="0"/></linearGradient><path d="m55.45 46.009s1.418 3.091 5.717 3.152c0 0-1.903 3.835-9.474 1.784z" fill="#e3bb8a"/><path d="m34.679 49.094c2.214 10.033-3.989 8.37-2.6 11.073h5.886c1.685-3.659.225-12.068.225-12.068s-3.838-.488-3.511.995z" fill="#a37049"/><path d="m16.29 49.094c2.213 10.033-3.99 8.37-2.601 11.073h5.886c1.685-3.659.225-12.068.225-12.068s-3.838-.488-3.51.995z" fill="#a37049"/><path d="m21.349 50.93c2.214 10.032-3.99 8.367-2.601 11.07h5.885c1.687-3.656.226-12.066.226-12.066s-3.838-.487-3.51.996z" fill="#b58562"/><path d="m40.847 50.93c2.205 10.032-3.177 8.367-1.793 11.07h5.863c1.678-3.656.224-12.066.224-12.066s-4.62-.487-4.294.996z" fill="#b58562"/><path d="m55.45 46.009c1.476 15.435-28.806 8.015-40.754 8.337-5.069-.102-10.181-3.143-9.9-4.334-1.614-.547-1.976-1.145-1.825-3.058 1.063-2.403 5.529-3.238 7.523-5.229 8.188-8.173 31.796-10.927 44.956 4.284z" fill="url(#a)"/><path d="m14.696 54.346c-5.069-.102-10.181-3.143-9.9-4.334-1.614-.547-1.976-1.145-1.825-3.058.708-1.601 2.925-2.505 4.915-3.519 2.096.57 2.905-1.311 4.997-.914-2.87 7.667 14.822 9.708 1.813 11.825z" fill="url(#b)"/><path d="m3.192 48.542c-1.205-.013-2.093-2.601.404-2.985 3.77-.582.716 2.998-.404 2.985z" fill="#302c3b"/><path d="m14.448 44.549c0 2.75-3.813 2.75-3.813 0 0-2.743 3.813-2.743 3.813 0z" fill="#302c3b"/><path d="m12.105 43.714c0 .688-.953.688-.953 0 0-.687.953-.687.953 0z" fill="#6e8189"/><path d="m4.796 50.012c1.703-.05 3.336.669 5.995-.914-1.465 2.283-4.634 1.119-5.995.914z" fill="#302c3b"/><path d="m61.567 39.098c-.623-1.781-2.021-2.785-3.441-3.174 1.2-.451 2.55-.84 3.874-.377-.953-1.692-2.581-2.405-4.095-2.468 1.009-.856 2.186-1.724 3.604-1.745-.978-.873-2.115-1.19-3.204-1.159.499-.801 1.12-1.53 1.993-1.952-1.033-.324-2.024-.237-2.9.091.331-.892.798-1.74 1.566-2.342-1.218-.102-2.276.304-3.126.949.286-1.062.727-2.115 1.583-2.861-1.259-.037-2.319.454-3.146 1.179.068-1.074.288-2.166.951-3.067-1.443.3-2.482 1.235-3.14 2.351.022-1.278.176-2.647.979-3.737-1.427.296-2.458 1.212-3.115 2.31-.119-1.191-.105-2.457.497-3.57-1.362.503-2.259 1.552-2.767 2.725-.198-1.149-.264-2.375.234-3.506-1.287.606-2.095 1.692-2.519 2.874-.25-1.069-.362-2.209.025-3.307-1.412.813-2.155 2.196-2.411 3.591-.342-1.234-.589-2.599-.127-3.902-1.397.805-2.138 2.167-2.4 3.548-.457-1.056-.801-2.218-.582-3.437-1.271 1.066-1.781 2.58-1.803 4.011-.592-1.11-1.113-2.368-.946-3.738-1.175 1.112-1.605 2.6-1.575 3.995-.608-1.016-1.132-2.164-1.056-3.455-1.193 1.291-1.493 2.957-1.286 4.436-.723-1.061-1.406-2.285-1.372-3.708-1.065 1.241-1.347 2.774-1.175 4.163-.693-.987-1.318-2.118-1.326-3.444-1.068 1.326-1.287 2.942-1.029 4.366-.695-.987-1.321-2.119-1.328-3.444-1.139 1.412-1.307 3.15-.969 4.638-.725-1.014-1.397-2.184-1.406-3.56-1.136 1.408-1.307 3.144-.97 4.63-.679-.975-1.282-2.089-1.289-3.391-1.006 1.247-1.25 2.75-1.063 4.11-.631-.768-1.164-1.65-1.306-2.719-.878 1.439-.905 3.039-.495 4.399-.709-.817-1.333-1.768-1.485-2.939-.823 1.346-.893 2.83-.564 4.129-.601-.748-1.102-1.604-1.237-2.634-.878 1.436-.904 3.034-.496 4.392-.846-.58-1.634-1.308-2.053-2.352-.503 1.668-.112 3.254.651 4.463-.853-.473-1.652-1.089-2.151-2.031-.297 1.525.113 2.902.826 3.974-.532-.019-1.064-.112-1.577-.353 1.4 3.149 5.177 3.5 6.822 2.32-.39.564-.864 1.064-1.481 1.406 1.984.498 3.737-.447 4.825-1.733.214 1.935 1.162 3.379 2.79 3.379.123 0 .214-.027.322-.038-.727 1.828-.633 4.564 1.31 6.272-.172-1.102.108-2.147.515-3.106-.132 1.76.457 3.817 2.23 5.001-.357-1.241-.1-2.49.274-3.633-.11 1.944.759 4.384 3.012 5.37-.503-1.063-.499-2.227-.354-3.333.249 1.799 1.331 3.752 3.417 4.434-.553-.94-.672-2.01-.649-3.054.399 1.595 1.455 3.176 3.285 3.777-.529-.902-.658-1.923-.645-2.926.621 1.505 1.883 2.889 3.767 3.193-.588-.733-.869-1.617-1.012-2.515.82 1.579 2.45 2.992 4.604 2.881-.87-.726-1.334-1.765-1.646-2.819 1.033 1.592 3.088 2.934 5.41 2.286-.826-.432-1.416-1.139-1.886-1.918 1.343 1.23 3.519 1.972 5.573.87-1.086-.289-1.914-1.053-2.607-1.894 1.443.981 3.545 1.394 5.398.166-1.161-.194-2.079-.934-2.866-1.749 1.549.869 3.767 1.083 5.53-.408-1.396-.063-2.541-.933-3.52-1.807 1.387.783 3.229 1.033 4.9-.016-1.541-.297-2.637-1.552-3.553-2.664 1.416.223 3.137.301 4.438.753-.524-1.379-1.423-2.48-2.407-3.235 1.128.109 2.305.371 3.219 1.223-.238-1.834-1.344-3.119-2.612-3.839 1.226-.194 2.565-.282 3.744.404z" fill="#54423d"/><path d="m20.173 44.211s-.574-4.097 1.431-6.338c2.005-2.238 4.689-2.419 5.383.488 1.116 4.697-4.156 7.705-6.814 5.85z" fill="#ffdaad"/><path d="m21.275 42.766s-.358-2.537.883-3.922c1.24-1.386 2.901-1.496 3.331.303.692 2.902-2.57 4.765-4.214 3.619z" fill="#b58562"/><g fill="#ffdaad"><path d="m36.149 43.328c-1.199-1.344-4.629-.07-4.246.936.391 1.024 2.418-1.02 4.246-.936z"/><path d="m41.253 39.23c-1.198-1.344-4.629-.07-4.245.936.389 1.025 2.418-1.02 4.245-.936z"/><path d="m31.823 36.213c-1.331-1.199-4.61.457-4.126 1.412.493.975 2.3-1.287 4.126-1.412z"/><path d="m40.218 35.164c-1.457-1.021-4.522 1.041-3.932 1.928.602.904 2.134-1.571 3.932-1.928z"/><path d="m37.449 33.551c-1.458-1.021-4.522 1.039-3.932 1.928.601.904 2.134-1.573 3.932-1.928z"/><path d="m33.186 33.746c-1.034-1.488-4.587-.666-4.323.381.266 1.067 2.518-.699 4.323-.381z"/><path d="m28.571 31.57c-1.751.041-3.145 3.576-2.177 3.949.985.379.896-2.574 2.177-3.949z"/><path d="m27.49 26.819c-1.688.497-2.205 4.285-1.18 4.394 1.044.111.262-2.727 1.18-4.394z"/><path d="m25.271 25.656c-1.689.52-2.22 4.433-1.194 4.542 1.042.112.27-2.817 1.194-4.542z"/><path d="m19.865 27.866c1.743-.233 3.765 3.331 2.874 3.884-.907.563-1.355-2.615-2.874-3.884z"/><path d="m20.581 31.85c1.752.02 3.186 3.536 2.222 3.921-.98.392-.925-2.562-2.222-3.921z"/><path d="m17.939 34.32c1.578-.804 4.349 1.674 3.648 2.471-.71.811-1.91-1.861-3.648-2.471z"/><path d="m16.663 30.872c1.578-.804 4.35 1.675 3.648 2.47-.709.81-1.911-1.86-3.648-2.47z"/><path d="m15.897 37.671c.917-1.573 4.521-1.06 4.339.008-.183 1.086-2.563-.482-4.339-.008z"/><path d="m12.92 37.596c.462-1.768 3.235-2.297 3.251-1.223.019 1.094-1.988.266-3.251 1.223z"/><path d="m14.235 32.754c1.643-.629 3.958 1.863 3.163 2.55-.804.699-1.574-1.861-3.163-2.55z"/><path d="m35.938 23.083c-1.752.042-3.146 3.577-2.177 3.949.983.38.895-2.574 2.177-3.949z"/><path d="m25.006 30.659c-1.564.83-1.378 4.652-.352 4.551 1.044-.103-.244-2.73.352-4.551z"/><path d="m31.881 23.067c-1.564.83-1.378 4.652-.352 4.55 1.044-.102-.244-2.728.352-4.55z"/><path d="m29.534 25.074c-1.563.83-1.378 4.652-.351 4.55 1.045-.102-.244-2.728.351-4.55z"/><path d="m45.726 44.885c-1.199-1.344-4.629-.07-4.246.936.39 1.024 2.417-1.02 4.246-.936z"/><path d="m53.831 43.173c-1.199-1.344-4.629-.069-4.246.936.391 1.024 2.418-1.019 4.246-.936z"/><path d="m48.031 38.934c-1.199-1.344-4.63-.07-4.246.936.39 1.024 2.418-1.02 4.246-.936z"/><path d="m44.18 37.297c-.787-1.646-4.42-1.449-4.323-.371.097 1.099 2.592-.256 4.323.371z"/><path d="m49.175 34.854c-1.364-1.156-4.594.604-4.082 1.546.521.957 2.26-1.362 4.082-1.546z"/><path d="m45.805 33.84c-1.048-1.479-4.593-.619-4.32.426.278 1.064 2.511-.727 4.32-.426z"/><path d="m43.587 28.512c-1.086-1.447-4.607-.488-4.307.548.305 1.057 2.492-.797 4.307-.548z"/><path d="m42.756 31.475c-1.335-1.194-4.607.479-4.12 1.432.498.972 2.294-1.3 4.12-1.432z"/><path d="m38.841 25.799c-1.589-.778-4.32 1.75-3.61 2.533.725.797 1.882-1.894 3.61-2.533z"/><path d="m34.064 28.935c-1.589-.778-4.321 1.75-3.61 2.533.726.798 1.883-1.895 3.61-2.533z"/><path d="m38.233 30.259c-1.335-1.193-4.607.478-4.119 1.433.497.971 2.293-1.3 4.119-1.433z"/><path d="m54.53 37.838c-1.199-1.345-4.629-.071-4.246.935.391 1.024 2.418-1.019 4.246-.935z"/><path d="m52.404 35.232c-1.535-.889-4.425 1.436-3.766 2.268.672.849 2.002-1.754 3.766-2.268z"/><path d="m47.682 28.271c-1.535-.889-4.424 1.436-3.766 2.268.671.848 2.001-1.755 3.766-2.268z"/><path d="m43.861 23.771c-1.602-.748-4.29 1.829-3.566 2.599.738.785 1.851-1.928 3.566-2.599z"/><path d="m41.315 22.459c-1.535-.89-4.425 1.435-3.766 2.268.672.848 2.002-1.755 3.766-2.268z"/><path d="m50.694 23.863c-1.568-.821-4.362 1.63-3.671 2.433.705.817 1.929-1.842 3.671-2.433z"/><path d="m56.316 28.304c-1.535-.89-4.424 1.436-3.765 2.268.672.848 2.002-1.755 3.765-2.268z"/><path d="m46.902 22.263c-1.749-.124-3.435 3.267-2.504 3.729.95.47 1.111-2.481 2.504-3.729z"/><path d="m50.474 30.216c-1.535-.889-4.425 1.436-3.766 2.268.671.848 2.001-1.754 3.766-2.268z"/><path d="m53.767 26.728c-1.175-1.369-4.627-.167-4.264.846.371 1.032 2.435-.969 4.264-.846z"/><path d="m58.33 35.504c-1.073-1.455-4.603-.523-4.31.516.297 1.058 2.498-.778 4.31-.516z"/><path d="m58.603 31.365c-1.281-1.256-4.622.258-4.176 1.234.455.995 2.347-1.189 4.176-1.234z"/><path d="m59.372 37.838c-1.199-1.345-4.629-.071-4.246.935.391 1.024 2.418-1.019 4.246-.935z"/><path d="m36.327 49.137c.565-1.745-2.111-4.336-2.774-3.509-.679.843 1.988 1.77 2.774 3.509z"/><path d="m40.519 50.239c.565-1.744-2.111-4.335-2.775-3.509-.679.844 1.987 1.772 2.775 3.509z"/><path d="m44.334 43.494c.565-1.744-2.112-4.336-2.775-3.509-.678.843 1.988 1.771 2.775 3.509z"/><path d="m45.158 50.971c.565-1.745-2.111-4.336-2.775-3.509-.678.843 1.989 1.77 2.775 3.509z"/><path d="m48.333 45.548c.565-1.745-2.111-4.336-2.775-3.509-.678.844 1.989 1.77 2.775 3.509z"/><path d="m48.948 52.072c.565-1.744-2.111-4.336-2.775-3.508-.678.844 1.989 1.77 2.775 3.508z"/><path d="m30.732 42.787c-1.198-1.344-4.629-.07-4.245.936.39 1.024 2.418-1.02 4.245-.936z"/><path d="m35.909 40.738c-1.198-1.345-4.629-.07-4.245.935.39 1.024 2.418-1.019 4.245-.935z"/><path d="m31.874 39.836c-1.199-1.344-4.629-.07-4.246.936.39 1.024 2.418-1.02 4.246-.936z"/><path d="m32.191 46.973c-.402-1.813-3.98-2.506-4.124-1.421-.147 1.106 2.579.382 4.124 1.421z"/><path d="m40.28 46.108c-.403-1.813-3.981-2.506-4.125-1.421-.147 1.106 2.579.382 4.125 1.421z"/><path d="m41.45 43.175c-.402-1.812-3.981-2.505-4.125-1.421-.147 1.105 2.579.382 4.125 1.421z"/><path d="m53.581 47.941c-.402-1.813-3.981-2.506-4.125-1.421-.147 1.107 2.579.382 4.125 1.421z"/><path d="m51.433 41.881c-.402-1.813-3.981-2.506-4.125-1.422-.148 1.106 2.579.383 4.125 1.422z"/><path d="m35.838 39.127c-.403-1.812-3.981-2.505-4.125-1.421-.148 1.107 2.579.382 4.125 1.421z"/><path d="m56.698 41.764c-.402-1.811-3.981-2.504-4.125-1.42-.147 1.105 2.579.383 4.125 1.42z"/><path d="m53.793 33.195c-.869-1.621-4.489-1.232-4.338-.15.152 1.105 2.577-.393 4.338.15z"/><path d="m56.069 46.175c-.402-1.813-3.981-2.505-4.125-1.421-.147 1.105 2.579.382 4.125 1.421z"/><path d="m49.366 48.271c-.402-1.813-3.98-2.506-4.124-1.421-.147 1.107 2.579.382 4.124 1.421z"/></g></svg>