<svg enable-background="new 0 0 64 64" height="64" viewBox="0 0 64 64" width="64" xmlns="http://www.w3.org/2000/svg" xmlns:xlink="http://www.w3.org/1999/xlink"><linearGradient id="a"><stop offset="0" stop-color="#7d5130"/><stop offset=".2569" stop-color="#855734"/><stop offset=".6533" stop-color="#9b6640"/><stop offset="1" stop-color="#b3774d"/></linearGradient><linearGradient id="b" gradientUnits="userSpaceOnUse" x1="47.2588" x2="53.0342" xlink:href="#a" y1="39.9277" y2="39.9277"/><linearGradient id="c" gradientUnits="userSpaceOnUse" x1="42.21" x2="47.6182" xlink:href="#a" y1="39.2939" y2="39.2939"/><linearGradient id="d" gradientUnits="userSpaceOnUse" x1="36.6904" x2="42.7969" xlink:href="#a" y1="38.7676" y2="38.7676"/><linearGradient id="e" gradientUnits="userSpaceOnUse" x1="31.2539" x2="37.5127" xlink:href="#a" y1="38.0488" y2="38.0488"/><linearGradient id="f" gradientUnits="userSpaceOnUse" x1="25.7168" x2="31.7749" xlink:href="#a" y1="37.6641" y2="37.6641"/><linearGradient id="g"><stop offset="0" stop-color="#ad7853"/><stop offset=".5939" stop-color="#cf9d63"/></linearGradient><linearGradient id="h" gradientUnits="userSpaceOnUse" x1="25.3223" x2="53.0342" xlink:href="#g" y1="41.8838" y2="41.8838"/><linearGradient id="i" gradientUnits="userSpaceOnUse" x1="19.2627" x2="28.7627" xlink:href="#g" y1="38.5488" y2="38.5488"/><linearGradient id="j" gradientUnits="userSpaceOnUse" x1="15.1387" x2="22.6035" y1="40.5332" y2="40.5332"><stop offset="0" stop-color="#a87551"/><stop offset=".5911" stop-color="#946645"/><stop offset="1" stop-color="#8c6040"/></linearGradient><path d="m16.264 41.919c-.176 8.021-6.809 13.389-7.432 14.179-1.556 1.974 7.57-5.116 8.986-13.826.077-.466-1.544-.827-1.554-.353z" fill="#1f1714"/><g fill="#45332c"><path d="m2 51.316c14.088 3.954 15.897-18.795 15.941-19.258.044-.462 2.023 5.203 2.421 6.414.399 1.214-1.492-7.741-2.421-7.915-.928-.174-1.82 23.794-15.941 20.759z"/><path d="m55.194 16.341c-5.278 18.289-25.553 9.591-27.159 9.059-.343-.115-3.837 11.327-4.787 12.522-.724.912 3.36-14.069 4.787-14.069 1.917 0 20.437 10.559 27.159-7.512z"/><path d="m20.728 41.353c1.455 3.998 5.764 6.41 3.017 1.235 4.68 2.763 4.408.539 1.851-1.109 3.902 1.214 3.101-1.185.079-2.465-3.022-1.277-4.947 2.339-4.947 2.339z"/></g><path d="m53.034 40.531c-2.107-.493-3.096-1.221-5.775-1.929.102.832.209 1.794.24 2.651 3.617-.045 4.904-.303 5.535-.722z" fill="url(#b)"/><path d="m47.364 38.549c-1.523-.396-3.539-.953-5.154-1.321.277 1.295.407 2.672.406 3.998 1.598.03 3.537.144 5.002.135-.037-.956-.133-1.911-.254-2.812z" fill="url(#c)"/><path d="m42.3 37.154c-1.346-.294-3.923-.714-5.293-.943-.131 1.603-.114 2.678-.316 4.27 1.592.068 4.448.806 6.106.845.001-1.397-.149-2.815-.497-4.172z" fill="url(#d)"/><path d="m37.414 40.586c.212-1.629.051-3.235-.184-4.48-1.465-.224-4.448-.491-5.897-.595.074 1.725.059 2.582-.079 4.305 1.2.08 4.727.703 6.16.77z" fill="url(#e)"/><path d="m31.581 35.378c-1.246-.061-3.326-.098-4.531-.032-2.088.112-1.297 3.886-.485 4.623.193.176 2.806-.217 5.146-.041.133-1.723.046-3.158-.13-4.55z" fill="url(#f)"/><path d="m25.322 40.555c6.506-.759 13.014 9.429 27.712 0-13.351 1.818-20.151-3.844-27.712 0z" fill="url(#h)"/><path d="m34.544 9.904c-7.228-9.755-6.446 18.588-10.909 25.985 9.387-.581 13.979-21.834 10.909-25.985z" fill="#cfd8dd" opacity=".6"/><path d="m40.216 8.223c-6.455-10.51-9.118 19.198-15.732 27.659 9.387-.581 20.454-19.97 15.732-27.659z" fill="#cfd8dd" opacity=".6"/><path d="m17.38 37.92s-1.479 4.742-12.905 5.003c9.323 1.455 13.731-4.643 13.731-4.643z" fill="#45332c"/><path d="m28.213 35.557-1.07.646c-.175-.857.252-1.435.252-1.435-1.25-1.028-2.643-.316-2.643-.316.171-.176.64-.863.64-.863-1.734-.557-2.934.582-3.422 1l.162-1.091s-1.397.915-1.586 2.261c-.045-.299-.257-1.228-.257-1.228-2.527 3.504-.003 9.313 3.411 9.127 0 0 .167-.588.094-.925 1.255.642 2.142-.098 2.142-.098l-.42-.578c.624-.162 1.716-.205 2.437-1.557 0 0-.482-.283-.723-.287 0 0 1.31-.513 1.533-2.159 0 0-.618-.031-.846.137.763-1.072.296-2.634.296-2.634z" fill="url(#i)"/><path d="m22.192 38.222-.846.496c-.131-.676.211-1.124.211-1.124-.975-.821-2.075-.273-2.075-.273.136-.139.51-.673.51-.673-1.359-.453-2.311.43-2.698.753l.136-.854s-1.106.705-1.266 1.76c-.032-.233-.19-.965-.19-.965-2.016 2.729-.081 7.317 2.604 7.203 0 0 .137-.461.082-.726.981.519 1.685-.056 1.685-.056l-.324-.459c.49-.121 1.35-.144 1.927-1.2 0 0-.378-.229-.565-.23 0 0 1.034-.391 1.222-1.683 0 0-.485-.029-.666.1.607-.837.253-2.069.253-2.069z" fill="url(#j)"/><path d="m14.678 41.678c-.414 1.608 1.454 3.112 2.848 2.275 2.952-1.776-1.824-6.268-2.848-2.275z" fill="#302c3b"/><path d="m15.016 43.093c.092.233.713-2.298.542-2.363-.097-.038-1.085.989-.542 2.363z" fill="#4e5e67"/><path d="m8.823 60.291c11.905-2.654 14.627-22.547 14.677-23.01.049-.462.099 6.586.545 7.8.447 1.214.497-9.129-.545-9.3-1.043-.176-2.772 20.218-14.677 24.51z" fill="#45332c"/><path d="m59.846 17.459c-4.919 19.951-26.886 10.257-28.492 9.724-.343-.115-2.32 13.038-3.269 14.232-.723.91 1.842-15.779 3.269-15.779 1.917 0 21.739 10.863 28.492-8.177z" fill="#45332c"/><path d="m62 62c-14.604-3.238-26.903-28.653-27.372-29.39-.244-.385-5.7 9.753-7.691 11.284-1.045.804 5.918-12.828 7.691-12.828 2.389 0 10.78 25.15 27.372 30.934z" fill="#45332c"/></svg>