<svg enable-background="new 0 0 64 64" height="64" viewBox="0 0 64 64" width="64" xmlns="http://www.w3.org/2000/svg" xmlns:xlink="http://www.w3.org/1999/xlink"><radialGradient id="a" cx="19.2324" cy="37.0166" gradientTransform="matrix(.874 .1831 -.1542 .7176 18.591 7.4392)" gradientUnits="userSpaceOnUse" r="37.3791"><stop offset="0" stop-color="#f80"/><stop offset=".31" stop-color="#fc8500"/><stop offset=".5257" stop-color="#f37c00"/><stop offset=".7127" stop-color="#e46d00"/><stop offset=".8823" stop-color="#ce5800"/><stop offset="1" stop-color="#ba4500"/></radialGradient><linearGradient id="b" gradientUnits="userSpaceOnUse" x1="22.02" x2="22.02" y1="52.5605" y2="30.9404"><stop offset="0" stop-color="#de2800"/><stop offset=".1007" stop-color="#e33204"/><stop offset=".4787" stop-color="#f25411"/><stop offset=".792" stop-color="#fc6919"/><stop offset="1" stop-color="#ff701c"/></linearGradient><path d="m2.586 33.506c1.544-1.087 8.463-5.218 6.962-5.777-1.295-.487-9.834 7.801-6.962 5.777z" fill="#d44f00"/><path d="m17.547 26.445c-.006-.833-7.085-.078-7.896.381-.203.112-.86 2.69-.512 2.519 1.424-.699 8.412-2.109 8.408-2.9z" fill="#e05400"/><path d="m17.235 25.437c-.438-.321-.676 1.686-.206 1.974 2.288 1.406 8.026 1.813 8.193.919.132-.692-5.646-1.156-7.987-2.893z" fill="#d44f00"/><path d="m31.484 36.089c1.334-.92 4.372-1.239 3.188-1.905-1.02-.578-5.797 3.698-3.188 1.905z" fill="#d44f00"/><path d="m37.889 34.745c.145-.691-2.19-1.566-2.964-1.297-.195.067-1.221 2.118-.894 2.022 1.344-.389 3.719-.068 3.858-.725z" fill="#e05400"/><path d="m37.803 33.868c-.315-.326-.88 1.308-.531 1.608 1.705 1.474 6.539 2.581 6.844 1.861.235-.555-4.624-1.715-6.313-3.469z" fill="#d44f00"/><path d="m6.087 39.864c1.228-1.418 7.003-7.061 5.228-7.229-1.53-.151-7.515 9.87-5.228 7.229z" fill="#d44f00"/><path d="m19.244 29.455c-.304-.796-7.457 1.653-8.143 2.29-.172.157.062 2.787.365 2.537 1.242-1.015 8.064-4.07 7.778-4.827z" fill="#e05400"/><path d="m18.555 28.565c-.573-.201-.104 1.779.49 1.939 2.905.789 9.068-.221 8.923-1.117-.112-.694-6.336.27-9.413-.822z" fill="#d44f00"/><path d="m15.5 44.669c.521-1.637 3.273-8.355 1.869-8.111-1.213.207-2.838 11.158-1.869 8.111z" fill="#d44f00"/><path d="m21.087 31.302c-.497-.061.44 1.725.941 1.742 2.446.088 6.849-2.289 6.477-3.113-.288-.637-4.752 1.709-7.418 1.371z" fill="#d44f00"/><path d="m25.359 34.028c-.677-.492-3.739 4.871-3.789 5.705-.014.207 1.731 2.191 1.772 1.85.174-1.402 2.658-7.09 2.017-7.555z" fill="#e05400"/><path d="m24.382 33.646c-.487.113 1.012 1.469 1.488 1.313 2.327-.756 5.634-4.5 4.997-5.146-.491-.5-3.866 3.235-6.485 3.833z" fill="#d44f00"/><path d="m32.608 39.443c1.216-1.024 4.199-1.589 2.941-2.155-1.085-.491-5.319 4.153-2.941 2.155z" fill="#d44f00"/><path d="m38.815 37.586c.062-.7-2.366-1.382-3.104-1.05-.187.081-.958 2.206-.645 2.085 1.289-.497 3.689-.37 3.749-1.035z" fill="#e05400"/><path d="m38.625 36.719c-.354-.298-.719 1.374-.336 1.646 1.874 1.328 6.814 2.037 7.031 1.297.166-.575-4.803-1.335-6.695-2.943z" fill="#d44f00"/><path d="m32.39 43.397c.766-1.298 3.379-2.637 1.973-2.834-1.214-.173-3.471 5.372-1.973 2.834z" fill="#d44f00"/><path d="m37.569 39.966c-.205-.681-2.764-.674-3.338-.16-.144.128-.074 2.352.178 2.15 1.033-.817 3.356-1.344 3.16-1.99z" fill="#e05400"/><path d="m37.063 39.194c-.448-.188-.162 1.496.303 1.65 2.275.755 7.226.096 7.15-.664-.058-.587-5.054.03-7.453-.986z" fill="#d44f00"/><path d="m34.056 44.315c1.238-1.01 4.233-1.542 2.987-2.121-1.075-.504-5.407 4.092-2.987 2.121z" fill="#d44f00"/><path d="m40.304 42.526c.076-.697-2.34-1.406-3.085-1.084-.187.08-1.003 2.197-.687 2.078 1.299-.482 3.698-.33 3.772-.994z" fill="#e05400"/><path d="m40.131 41.658c-.349-.302-.747 1.364-.369 1.64 1.847 1.349 6.773 2.109 7.005 1.373.179-.57-4.778-1.386-6.636-3.013z" fill="#d44f00"/><path d="m31.342 46.096c1.587-.556 4.604-.118 3.693-1.046-.785-.803-6.793 2.127-3.693 1.046z" fill="#d44f00"/><path d="m37.925 46.374c.372-.625-1.57-2.037-2.403-1.968-.209.017-1.879 1.731-1.533 1.72 1.416-.045 3.583.844 3.936.248z" fill="#e05400"/><path d="m38.139 45.513c-.195-.389-1.282 1.038-1.049 1.411 1.139 1.829 5.396 4.071 5.929 3.458.412-.477-3.85-2.777-4.88-4.869z" fill="#d44f00"/><path d="m11.63 19.205c-25.725-16.101 18.795-22.332 40.024-8.234-25.655-17.406-66.248-6.709-41.429 8.577.535-.236 1.405-.343 1.405-.343z" fill="#b04100"/><path d="m13.131 19.165c-22.271-15.657 18.449-17.872 36.776-4.253-22.126-16.775-59.572-10.444-38.07 4.449.5-.166 1.294-.196 1.294-.196z" fill="#b04100"/><path d="m61.506 39.048c.609-1.221-1.98-7.871-3.932-9.182.013-1.527-3.829-5.458-5.356-5.74-9.35-10.566-56.144-6.466-40.135-2.039 10.616 2.937 13.128 11.914 29.012 10.996 0 0-3.211 4.213 3 6.236-.765.154-2.498 2.121-.508 4.139-.913.563-1.67 2.469-.719 3.605-1.076-.107-3.562 1.115-3.497 2.955-.862.684-8.307.475-12.596-2.207 0 0-4.708 1.273-4.817 2.479.122 5.299 10.567 11.514 12.568 10.65 1.933 2.137 13.488.771 14.539-1.701 2.476-.334 9.033-6.582 8.95-8.135 2.569-1.142 5.074-10.175 3.491-12.056z" fill="url(#a)"/><g fill="#b04100"><path d="m57.375 29.116c-2.564 8.451-13.28 10.203-13.28 10.203s10.061-.564 13.946-9.053c-.056-.589-.666-1.15-.666-1.15z"/><path d="m61.587 38.28c-6.22 5.498-18 5.178-18 5.178s10.389 1.617 18.213-3.855c.164-.571-.213-1.323-.213-1.323z"/><path d="m58.622 50.688c-7.011.402-15.754-3.625-15.754-3.625s6.533 4.318 14.912 4.775c.522-.364.842-1.15.842-1.15z"/><path d="m49.935 58.966c-3.783-4.711-10.563-8.947-10.563-8.947s7.856 6.627 9.341 9.709c.666-.036 1.222-.762 1.222-.762z"/></g><path d="m27.895 49.714c-.505-13.121-8.555-23.321-9.816-16.695-1.828.73-1.713 2.596-.935 3.52-2.425 1.781.238 4.164.986 5.504-3.033 2.195 1.608 4.998 4.3 9.789 1.305 2.327 5.485-1.614 5.465-2.118z" fill="url(#b)"/><path d="m28.172 25.646c-3.931 0-3.931-6.098 0-6.098 3.932 0 3.932 6.098 0 6.098z" fill="#302c3b"/><path d="m27.648 21.535c0 1.061-1.65 1.061-1.65 0 .001-1.065 1.65-1.065 1.65 0z" fill="#6e8189"/></svg>