<svg enable-background="new 0 0 64 64" height="64" viewBox="0 0 64 64" width="64" xmlns="http://www.w3.org/2000/svg" xmlns:xlink="http://www.w3.org/1999/xlink"><radialGradient id="a" cx="31.4155" cy="29.8369" gradientTransform="matrix(1 0 0 1.3178 0 -9.4823)" gradientUnits="userSpaceOnUse" r="13.9875"><stop offset="0" stop-color="#006dae"/><stop offset=".3495" stop-color="#006aab"/><stop offset=".6371" stop-color="#0062a1"/><stop offset=".9018" stop-color="#01548f"/><stop offset="1" stop-color="#014d87"/></radialGradient><g fill="#c5dca8"><path d="m36.922 14.156c0 21.697-9.846 21.697-9.846 0 0-7.105 4-12.156 4.924-12.156s4.922 5.051 4.922 12.156z"/><path d="m50.941 44.16c-19.743 0-19.743-10.824 0-10.824 6.463 0 11.059 4.396 11.059 5.412s-4.596 5.412-11.059 5.412z"/><path d="m13.056 33.336c19.742 0 19.742 10.824 0 10.824-6.463 0-11.056-4.396-11.056-5.412s4.593-5.412 11.056-5.412z"/><path d="m52.086 34.785c-17.096 10.85-22.02 1.477-4.922-9.373 5.596-3.551 11.576-2.27 12.037-1.391.463.881-1.517 7.213-7.115 10.764z"/><path d="m47.564 22.584c-9.871 18.791-18.399 13.379-8.527-5.412 3.23-6.152 8.992-8.328 9.793-7.82s1.967 7.08-1.266 13.232z"/><path d="m11.912 34.785c17.096 10.85 22.02 1.477 4.922-9.373-5.596-3.551-11.576-2.27-12.037-1.391-.464.881 1.517 7.213 7.115 10.764z"/><path d="m16.433 22.584c9.871 18.791 18.399 13.379 8.527-5.412-3.23-6.152-8.992-8.328-9.793-7.82-.798.507-1.964 7.08 1.266 13.232z"/></g><path d="m31.072 15.348c5.11 20.959-4.402 23.76-9.512 2.801-1.674-6.861 1-12.879 1.893-13.141.892-.264 5.945 3.476 7.619 10.34z" fill="#a3c86b"/><path d="m51.648 40.703c-19.068 5.615-21.617-4.838-2.548-10.455 6.242-1.838 11.717 1.102 11.955 2.082.24.981-3.164 6.535-9.407 8.373z" fill="#a3c86b"/><path d="m50.002 29.84c-13.959 15.342-20.922 7.689-6.963-7.654 4.57-5.023 10.648-5.486 11.301-4.768.654.719.232 7.398-4.338 12.422z" fill="#a3c86b"/><path d="m42.438 18.148c-5.109 20.959-14.622 18.158-9.51-2.801 1.672-6.863 6.725-10.604 7.618-10.34.892.263 3.565 6.28 1.892 13.141z" fill="#a3c86b"/><path d="m12.349 40.703c19.068 5.615 21.618-4.838 2.549-10.455-6.242-1.838-11.717 1.102-11.955 2.082s3.164 6.535 9.406 8.373z" fill="#a3c86b"/><path d="m13.996 29.84c13.959 15.342 20.922 7.689 6.963-7.654-4.57-5.023-10.646-5.486-11.301-4.768-.653.719-.233 7.398 4.338 12.422z" fill="#a3c86b"/><path d="m36.922 23.285c0 21.697-9.846 21.697-9.846 0 0-7.104 4-12.154 4.924-12.154s4.922 5.051 4.922 12.154z" fill="#7ab51d"/><path d="m48.652 48c-19.741 0-19.741-10.822 0-10.822 6.463 0 11.059 4.396 11.059 5.412s-4.596 5.41-11.059 5.41z" fill="#7ab51d"/><path d="m15.345 37.178c19.743 0 19.743 10.822 0 10.822-6.463 0-11.059-4.395-11.059-5.41s4.596-5.412 11.059-5.412z" fill="#7ab51d"/><path d="m48.883 38.123c-17.096 10.85-22.02 1.477-4.924-9.373 5.598-3.551 11.576-2.27 12.039-1.391.463.881-1.518 7.213-7.115 10.764z" fill="#7ab51d"/><path d="m44.59 29.443c-9.871 18.791-18.399 13.379-8.527-5.412 3.23-6.152 8.992-8.328 9.793-7.82.798.508 1.966 7.08-1.266 13.232z" fill="#7ab51d"/><path d="m15.115 38.123c17.096 10.85 22.02 1.477 4.924-9.373-5.598-3.551-11.577-2.27-12.039-1.391-.463.881 1.517 7.213 7.115 10.764z" fill="#7ab51d"/><path d="m19.408 29.443c9.871 18.791 18.399 13.379 8.527-5.412-3.23-6.152-8.992-8.328-9.791-7.82-.801.508-1.967 7.08 1.264 13.232z" fill="#7ab51d"/><path d="m50.943 46.436c-5.984 0-5.984-7.545 0-7.545 2.992 0 5.123 3.07 5.123 3.773s-2.13 3.772-5.123 3.772z" fill="#cbd716"/><path d="m50.943 45.77c-4.93 0-4.93-6.213 0-6.213 2.465 0 4.119 2.736 4.119 3.107.001.369-1.654 3.106-4.119 3.106z" fill="#f59e01"/><path d="m50.064 45.109c-3.193 0-3.193-4.893 0-4.893 3.196.001 3.196 4.893 0 4.893z" fill="#75d6ff"/><path d="m50.336 44.621c-1.449 0-1.059-1.305-.512-1.957-.547-.652-.938-1.957.512-1.957 2.131 0 2.131 3.914 0 3.914z" fill="#013366"/><path d="m13.054 38.891c5.984 0 5.984 7.545 0 7.545-2.992 0-5.123-3.068-5.123-3.771s2.131-3.774 5.123-3.774z" fill="#cbd716"/><path d="m13.054 39.557c4.93 0 4.93 6.213 0 6.213-2.465 0-4.119-2.736-4.119-3.105 0-.372 1.654-3.108 4.119-3.108z" fill="#f59e01"/><path d="m13.933 40.217c3.195 0 3.195 4.893 0 4.893s-3.195-4.893 0-4.893z" fill="#75d6ff"/><path d="m13.662 40.707c1.451 0 1.059 1.305.512 1.957.547.652.939 1.955-.512 1.955-2.131 0-2.131-3.912 0-3.912z" fill="#013366"/><path d="m50.121 35.52c-5.184 3.289-8.615-3.246-3.432-6.535 2.592-1.645 5.832-.156 6.152.453s-.128 4.437-2.72 6.082z" fill="#cbd716"/><path d="m49.818 34.943c-4.268 2.709-7.096-2.674-2.826-5.383 2.135-1.354 4.813.107 4.98.428s-.019 3.6-2.154 4.955z" fill="#f59e01"/><path d="m48.758 34.854c-2.768 1.756-4.992-2.48-2.227-4.236 2.768-1.757 4.992 2.48 2.227 4.236z" fill="#75d6ff"/><path d="m48.77 34.281c-1.256.797-1.51-.549-1.334-1.414-.77-.266-1.703-1.18-.447-1.975 1.845-1.171 3.626 2.217 1.781 3.389z" fill="#013366"/><path d="m44.443 26.518c-2.992 5.697-8.938 1.924-5.945-3.773 1.496-2.85 4.98-3.342 5.535-2.99.553.35 1.906 3.913.41 6.763z" fill="#cbd716"/><path d="m43.92 26.184c-2.465 4.691-7.361 1.584-4.896-3.107 1.232-2.346 4.217-2.551 4.508-2.367.29.185 1.62 3.128.388 5.474z" fill="#f59e01"/><path d="m42.959 26.691c-1.596 3.039-5.451.594-3.854-2.447s5.452-.596 3.854 2.447z" fill="#75d6ff"/><path d="m42.709 26.188c-.725 1.381-1.557.354-1.797-.492-.787.193-2.012-.084-1.287-1.465 1.066-2.03 4.15-.073 3.084 1.957z" fill="#013366"/><path d="m13.876 35.52c5.184 3.289 8.615-3.246 3.432-6.535-2.59-1.645-5.832-.156-6.152.453s.129 4.437 2.72 6.082z" fill="#cbd716"/><path d="m14.179 34.943c4.27 2.709 7.096-2.674 2.826-5.383-2.133-1.354-4.813.107-4.98.428s.019 3.6 2.154 4.955z" fill="#f59e01"/><path d="m15.24 34.854c2.768 1.756 4.992-2.48 2.227-4.236-2.768-1.757-4.993 2.48-2.227 4.236z" fill="#75d6ff"/><path d="m15.228 34.281c1.256.797 1.51-.549 1.334-1.414.77-.266 1.703-1.18.447-1.975-1.845-1.171-3.627 2.217-1.781 3.389z" fill="#013366"/><path d="m19.554 26.518c2.992 5.697 8.938 1.924 5.945-3.773-1.496-2.85-4.98-3.342-5.533-2.99-.554.35-1.908 3.913-.412 6.763z" fill="#cbd716"/><path d="m20.078 26.184c2.465 4.691 7.361 1.584 4.896-3.107-1.232-2.346-4.215-2.551-4.508-2.367-.291.185-1.619 3.128-.388 5.474z" fill="#f59e01"/><path d="m21.039 26.691c1.596 3.039 5.451.594 3.855-2.447-1.598-3.041-5.453-.596-3.855 2.447z" fill="#75d6ff"/><path d="m21.289 26.188c.725 1.381 1.557.354 1.797-.492.787.193 2.012-.084 1.287-1.465-1.067-2.03-4.151-.073-3.084 1.957z" fill="#013366"/><path d="m22.513 44.596c13.629 2.564 14.047 1.787.27 5.895-7.137 2.124-7.266-7.212-.27-5.895z" fill="#529320"/><path d="m41.486 44.596c-13.629 2.564-14.049 1.787-.271 5.895 7.137 2.124 7.267-7.212.271-5.895z" fill="#529320"/><path d="m29.052 34.623c4.202 15.182 4.993 15.26-4.43 2.951-4.876-6.375 2.272-10.746 4.43-2.951z" fill="#529320"/><path d="m35.947 34.623c-4.202 15.182-4.993 15.26 4.428 2.951 4.879-6.375-2.271-10.746-4.428-2.951z" fill="#529320"/><path d="m24.507 39.057c10.217 10.723 10.936 10.336-2.555 5.109-6.986-2.705-2.687-10.615 2.555-5.109z" fill="#529320"/><path d="m39.49 39.057c-10.217 10.723-10.936 10.336 2.557 5.109 6.986-2.705 2.685-10.615-2.557-5.109z" fill="#529320"/><path d="m35.699 59.438c-.477-2.127-.135-4.438.34-5.5.648-1.451-.475-1.605.482-4.857-.223-.459-2.521-.459-2.744 0 .957 3.252-.166 3.406.48 4.857.475 1.063.816 3.373.342 5.5-.217.971-1.506.523-1.663 1.689.561-.467.975-.117 1.584-.467.248.232.229 1.068.629 1.34.398-.271.377-1.107.627-1.34.609.35 1.023 0 1.582.467-.153-1.166-1.442-.719-1.659-1.689z" fill="#e5bc5e"/><path d="m29.48 59.438c-.475-2.127-.133-4.438.342-5.5.646-1.451-.477-1.605.482-4.857-.225-.459-2.521-.459-2.746 0 .957 3.252-.166 3.406.482 4.857.475 1.063.816 3.373.342 5.5-.219.971-1.508.523-1.662 1.689.559-.467.973-.117 1.584-.467.248.232.229 1.068.627 1.34.398-.271.379-1.107.627-1.34.611.35 1.025 0 1.584.467-.156-1.166-1.445-.719-1.662-1.689z" fill="#e5bc5e"/><path d="m31.82 19.6c-1.385 2.207.463-2.959 3.375-4.209-1.14 1.002-2.44 2.718-3.375 4.209z" fill="#302c3b"/><path d="m35.572 15.256c-1.299-1.598-.848-.271-.797.369 1.157-.078 1.543.551.797-.369z" fill="#1a1626"/><path d="m32.169 19.725c-2.006 1.578 2.209-3.092 4.336-2.967-1.349.635-2.9 1.836-4.336 2.967z" fill="#302c3b"/><path d="m36.9 16.732c-.857-1.914-.748-.506-.859.127 1.135.26 1.354.977.859-.127z" fill="#1a1626"/><path d="m32.406 19.99c-2.375.768 3.094-2.199 5.045-1.273-1.471.082-3.494.773-5.045 1.273z" fill="#302c3b"/><path d="m37.828 18.844c-.176-2.117-.533-.758-.848-.209.981.676.95 1.431.848.209z" fill="#1a1626"/><path d="m37.115 38.809c-.9-.803-1.773-2.785-2.441-7.551-.439-3.127.303-8.52-.967-10.207-2.09-2.789-7.459-1.293-6.495.867 3.842 1.765 2.91 2.885 2.195 9.34-.531 4.783-1.543 6.748-2.441 7.551-8.107 7.25-1.232 9.754-.127 10.154 1.91 2.684 3.242.406 5.201.406 1.958 0 3.29 2.277 5.202-.406 1.106-.4 7.979-2.904-.127-10.154z" fill="url(#a)"/><path d="m27.349 21.049c-.455 1.133 4.236 2.576 5.242 0-2.429-1.858-3.783-1.078-5.242 0z" fill="#fff"/><path d="m27.611 21.117c.979 1.123 3.221.734 3.314 0 .102-.818-1.761-1.359-3.314 0z" fill="#006dae"/><path d="m25.007 22.531c1.395.295 4.125.684 4.063-.359 0 0-3.934-.158-4.063.359z" fill="#ebbb96"/><path d="m26.837 21.117c-2.064.568-2.244 1.535-2.244 1.535 1.668-.578 3.785-.072 4.477-.48-1.069-.401-1.039-1.383-2.233-1.055z" fill="#ffe1bd"/><path d="m30.634 20.805c0 .969-1.359.969-1.359 0 0-.973 1.359-.973 1.359 0z" fill="#302c3b"/><path d="m29.908 20.516c0 .229-.33.229-.33 0 0-.223.33-.223.33 0z" fill="#6e8189"/></svg>