<svg enable-background="new 0 0 64 64" height="64" viewBox="0 0 64 64" width="64" xmlns="http://www.w3.org/2000/svg" xmlns:xlink="http://www.w3.org/1999/xlink"><linearGradient id="a"><stop offset="0" stop-color="#b3806a"/><stop offset=".4547" stop-color="#956b58"/><stop offset=".9515" stop-color="#785647"/></linearGradient><linearGradient id="b" gradientUnits="userSpaceOnUse" x1="29.374" x2="42.5664" xlink:href="#a" y1="36.3311" y2="36.3311"/><linearGradient id="c" gradientUnits="userSpaceOnUse" x1="34.9961" x2="34.9961" y1="58.46" y2="46.4961"><stop offset=".0182" stop-color="#66483b"/><stop offset=".2516" stop-color="#614338"/><stop offset=".544" stop-color="#51362e"/><stop offset=".8665" stop-color="#38201d"/><stop offset="1" stop-color="#2b1515"/></linearGradient><linearGradient id="d" gradientUnits="userSpaceOnUse" x1="20.9092" x2="62" y1="47.4023" y2="47.4023"><stop offset="0" stop-color="#805d4c"/><stop offset=".3272" stop-color="#9c7456"/><stop offset=".9939" stop-color="#deac6d"/></linearGradient><linearGradient id="e" gradientUnits="userSpaceOnUse" x1="30.3062" x2="46.3154" xlink:href="#a" y1="40.2461" y2="40.2461"/><linearGradient id="f" gradientUnits="userSpaceOnUse" x1="13.1572" x2="27.2446" y1="49.9277" y2="49.9277"><stop offset="0" stop-color="#805d4c"/><stop offset=".1824" stop-color="#85614e"/><stop offset=".4014" stop-color="#946e53"/><stop offset=".6393" stop-color="#ac825b"/><stop offset=".8891" stop-color="#ce9e67"/><stop offset=".9939" stop-color="#deac6d"/></linearGradient><linearGradient id="g" gradientUnits="userSpaceOnUse" x1="13.5386" x2="13.5386" y1="58.1328" y2="44.4688"><stop offset="0" stop-color="#4a2f24"/><stop offset=".3349" stop-color="#5e4033"/><stop offset="1" stop-color="#916958"/></linearGradient><linearGradient id="h" gradientUnits="userSpaceOnUse" x1="25.6045" x2="29.6836" xlink:href="#a" y1="54.2656" y2="54.2656"/><path d="m5.577 58.651.194.543 3.399-.827 2.064-5.511s.386.396.351.636c-.44 2.946-1.347 4.63-1.759 5.109l.518.978-1.086-.539-4.782.539c.256-.422.621-.862 1.101-.928z" fill="#785647"/><path d="m51.846 52.736-.477.997-3.869-.997-4.178-30.257-.969.999c.09 6.611 3.092 28.484 3.848 29.57l-.639 1.638 1.646-.679 6.57.726c-.413-.862-1.026-1.773-1.932-1.997z" fill="#785647"/><ellipse cx="42.687" cy="22.713" fill="#785647" rx=".998" ry=".968" transform="matrix(-.2279 -.9737 .9737 -.2279 30.2988 69.4529)"/><path d="m32.033 50.449c2.225-.861 6.133-17.465 10.307-25.612.457-.887.213-2.049-.646-2.554-.332-.195-.711-.276-1.117-.102-1.154.498-11.67 20.664-11.186 26.52.107 1.338 1.427 2.219 2.642 1.748z" fill="url(#b)"/><path d="m18.562 55.942s5.48 2.11 10.567 2.425c17.219 1.059 22.303-7.267 22.303-7.267s-16.631-8.479-32.87-2.424z" fill="url(#c)"/><path d="m20.909 49.889s7.922-1.051 12.915 0c18.197 3.836 28.176 0 28.176 0s-24.85-10.902-41.088-4.845v4.845z" fill="url(#d)"/><path d="m2.12 12.817c-1.107 17.661 5.684 30.987 9.869 35.321 0 .001-8.813-14.045-9.869-35.321z" fill="#785647"/><path d="m56.707 58.367-.578 1.21-4.697-1.21-4.004-33.328-1.176 1.209c.111 8.025 2.686 31.182 3.604 32.499l-.77 1.985 1.994-.825 7.977.881c-.508-1.042-1.25-2.15-2.35-2.421z" fill="#785647"/><ellipse cx="46.464" cy="25.208" fill="#785647" rx="1.211" ry="1.172" transform="matrix(-.2283 -.9736 .9736 -.2283 32.528 76.1994)"/><path d="m33.533 55.89c2.703-1.052 7.441-18.218 12.508-28.104.555-1.08.258-2.486-.783-3.102-.404-.234-.865-.333-1.357-.12-1.4.603-14.163 22.099-13.575 29.204.132 1.625 1.736 2.694 3.207 2.122z" fill="url(#e)"/><path d="m13.157 44.91c2.51-1.138 5.746-2.038 13.285-1.715.342.016.698.058.745.375.164 1.161.236 4.313-3.583 5.168-.553.125-1.678.006-1.809 1.4-.133 1.392.676 3.787-.887 5.802-1.371 1.77-4.697 0-4.697 0s.515-4.993-3.054-11.03z" fill="url(#f)"/><path d="m17.467 47.137c-.29-1.151-1.247-2.111-2.474-2.446-1.826-.494-4.435-.445-5.645 3.194-1.957 5.903 3.597 9.892 4.869 10.22 1.271.329 3.52-2.313 3.52-2.313s1.073-3.336-.27-8.655z" fill="url(#g)"/><path d="m13.925 47.506c.957-.226 1.952.582 2.221 1.801.268 1.219-.291 2.389-1.25 2.613-.957.225-1.951-.582-2.221-1.799-.27-1.221.29-2.392 1.25-2.615z" fill="#1a1626"/><path d="m13.94 48.989c.109 1.063-.933 1.22-.99.489-.087-1.128.915-1.218.99-.489z" fill="#6e8189"/><path d="m36.773 60.201-.43.898-3.491-.898-2.619-9.902s-.736.612-.713 1.036c.252 5.165 1.529 8.244 2.158 9.147l-.572 1.477 1.484-.611 5.928.652c-.373-.774-.926-1.6-1.745-1.799z" fill="#785647"/><ellipse cx="29.714" cy="50.494" fill="#785647" rx=".586" ry=".605"/><path d="m28.972 50.566c-.557.767-4.372 5.983-3.116 7.585.375.475 1.114.049 1.358-.196 1.994-2.034 3.377-9.605 1.758-7.389z" fill="url(#h)"/><g fill="#785647"><path d="m17.2 52.478c3.906 1.898 5.861 4.842 6.274 4.348 1.542-1.846-7.806-8.868-6.274-4.348z"/><path d="m9.173 60.446.263.91 4.497-1.39 3.227-9.31s.071.725.023 1.129c-.593 4.94-1.813 7.766-2.368 8.572l.767 1.643-1.53-.904-6.36.904c.352-.704.836-1.442 1.481-1.554z"/><path d="m17.16 50.657c.437 0 .792.457.792 1.02 0 .557-.355 1.014-.792 1.014-.433 0-.784-.457-.784-1.014 0-.563.351-1.02.784-1.02z"/><path d="m4.801 10c-1.708 15.209 4.255 30.592 7.881 37.393 0 0-6.036-16.914-7.881-37.393z"/></g></svg>