<svg enable-background="new 0 0 64 64" height="64" viewBox="0 0 64 64" width="64" xmlns="http://www.w3.org/2000/svg" xmlns:xlink="http://www.w3.org/1999/xlink"><linearGradient id="a"><stop offset="0" stop-color="#b47d56"/><stop offset="1" stop-color="#755238"/></linearGradient><linearGradient id="b" gradientUnits="userSpaceOnUse" x1="37.2813" x2="40.6182" xlink:href="#a" y1="59.7764" y2="59.7764"/><linearGradient id="c" gradientUnits="userSpaceOnUse" x1="17.0781" x2="20.4146" xlink:href="#a" y1="59.7764" y2="59.7764"/><linearGradient id="d"><stop offset="0" stop-color="#e8c8a0"/><stop offset=".2782" stop-color="#f4d5b0"/><stop offset=".6037" stop-color="#fcdeba"/><stop offset="1" stop-color="#ffe1bd"/></linearGradient><linearGradient id="e" gradientUnits="userSpaceOnUse" x1="14.8892" x2="13.6392" xlink:href="#d" y1="15.124" y2="9.6865"/><linearGradient id="f" gradientUnits="userSpaceOnUse" x1="43.4707" x2="46.8096" xlink:href="#a" y1="61.2285" y2="61.2285"/><linearGradient id="g" gradientUnits="userSpaceOnUse" x1="48.7012" x2="45.4514" xlink:href="#d" y1="51.5781" y2="52.5781"/><linearGradient id="h" gradientUnits="userSpaceOnUse" x1="21.3125" x2="24.6509" xlink:href="#a" y1="61.2285" y2="61.2285"/><linearGradient id="i" gradientUnits="userSpaceOnUse" x1="26.3989" x2="23.6076" xlink:href="#d" y1="51.6865" y2="52.478"/><radialGradient id="j" cx="30.0723" cy="28.1777" gradientUnits="userSpaceOnUse" r="26.3565"><stop offset="0" stop-color="#f2c19b"/><stop offset=".4371" stop-color="#efbe98"/><stop offset=".7963" stop-color="#e5b590"/><stop offset="1" stop-color="#dbad88"/></radialGradient><linearGradient id="k" gradientUnits="userSpaceOnUse" x1="17.5991" x2="19.4077" y1="6.0371" y2="6.0371"><stop offset="0" stop-color="#d6a57c"/><stop offset=".3096" stop-color="#d2a27a"/><stop offset=".5896" stop-color="#c79873"/><stop offset=".8575" stop-color="#b58867"/><stop offset="1" stop-color="#a87d5f"/></linearGradient><path d="m37.349 60.548h2.992s.277-.287.277-.771l-2.943-.771c-.613.94-.326 1.542-.326 1.542z" fill="url(#b)"/><path d="m41.735 42.749c-.389-1.238-4.275-.693-4.01.365 1.449 5.832 2.385 5.996 2.893 10.195.447 3.689-2.471 3.939-2.943 5.695l2.943.771c-.27-1.463 1.279-2.305 1.281-2.533.033-4.359 1.695-2.029.816-4.936-1.655-5.489.296-5.489-.98-9.557z" fill="#f5cfa0"/><path d="m42.083 46.985c-2.139-.354-4.408-4.205-3.555-.992-10.644-9.424 8.666-13.964 3.555.992z" fill="#d6a57c"/><path d="m17.145 60.548h2.992s.277-.287.277-.771l-2.943-.771c-.613.94-.326 1.542-.326 1.542z" fill="url(#c)"/><path d="m21.532 42.749c-.389-1.238-4.275-.693-4.01.365 1.449 5.832 2.385 5.996 2.893 10.195.447 3.689-2.471 3.939-2.943 5.695l2.943.771c-.27-1.463 1.279-2.305 1.281-2.533.033-4.359 1.695-2.029.816-4.936-1.656-5.489.295-5.489-.98-9.557z" fill="#f5cfa0"/><path d="m21.881 46.985c-2.139-.354-4.408-4.205-3.555-.992-7.84-13.673 8.667-13.964 3.555.992z" fill="#d6a57c"/><path d="m16.6 8.121c4.205.205 3.854 8.959-1.992 7.406-4.341-1.15-4.755.314-4.94-1.473-1.107-.125-.021-.592-.48-1.398-.949-1.398 1.932-2.422 3.835-2.66.874-.111 1.931-1.08 3.577-1.875z" fill="url(#e)"/><path clip-rule="evenodd" d="m10.537 12.494s-1.08.395-1.191.016c-.155-.528 1.214-.28 1.191-.016z" fill="#302c3b" fill-rule="evenodd"/><path d="m9.718 14.381c-.045-.188-.051-.326-.051-.326s1.158.18 2.521.014c-.968.447-2.47.312-2.47.312z" fill="#302c3b"/><path d="m50.009 30.191c.836 3.354 5.545 3.091 4.938 1.578-.374-.925-5.928-5.556-4.938-1.578z" fill="#d6a57c"/><path d="m49.462 30.941c-3.977 1.421 5.516 4.54 4.908 3.024-.373-.923-1.885-4.104-4.908-3.024z" fill="#d6a57c"/><path d="m51.31 30.809c-4.037-2.055 1.254 9.126 1.793 7.144.328-1.214 1.279-5.58-1.793-7.144z" fill="#d6a57c"/><path clip-rule="evenodd" d="m14.774 10.172s1.158-.125 1.648.68c0 0-.6.953-1.584.586-.531-.202-.064-1.266-.064-1.266z" fill="#302c3b" fill-rule="evenodd"/><path d="m15.088 10.5c-.039.314-.309.275-.27-.039.028-.236.298-.199.27.039z" fill="#fff"/><path d="m43.538 61.999h2.994s.277-.285.277-.77l-2.943-.771c-.615.941-.328 1.541-.328 1.541z" fill="url(#f)"/><path d="m47.927 44.2c-.389-1.238-4.275-.693-4.012.367 1.449 5.832 2.387 5.996 2.895 10.195.445 3.689-2.471 3.939-2.943 5.695l2.943.771c-.271-1.463 1.277-2.307 1.279-2.533.033-4.359 1.695-2.029.818-4.936-1.658-5.488.295-5.488-.98-9.559z" fill="url(#g)"/><path d="m21.379 61.999h2.994s.277-.285.277-.77l-2.943-.771c-.615.941-.328 1.541-.328 1.541z" fill="url(#h)"/><path d="m25.768 44.2c-.389-1.238-4.275-.693-4.012.367 1.449 5.832 2.387 5.996 2.895 10.195.445 3.689-2.471 3.939-2.943 5.695l2.943.771c-.271-1.463 1.277-2.307 1.279-2.533.033-4.359 1.696-2.029.819-4.936-1.659-5.488.295-5.488-.981-9.559z" fill="url(#i)"/><path d="m49.163 27.928c-3.553-3.787-17.604-1.635-22.16-.629-.925-.526-1.252-2.503-1.472-5.045.322.046.667.06 1.044.028-.664-.79-.888-1.614-1.222-2.367-.059-.83-.123-1.685-.202-2.545.289.033.594.044.924.016-.633-.754-.866-1.54-1.176-2.265-.104-.765-.232-1.515-.391-2.237.316.043.657.054 1.025.023-1.186-1.411-.964-2.934-2.483-3.957-.86-1.392-2.074-2.333-3.803-2.533.011-.031.025-.061.036-.092-3.176-.494-3.396 1.52-5.469 2.453.767.452 1.496.633 2.165.593-.149.147-.313.283-.51.389.88.795 1.638.938 2.231.608.702.571 1.372 1.222.881 2.581-2.626.222-2.671 2.065-4.458 3.215.687.278 1.32.371 1.891.316-.261.646-.507 1.329-1.061 1.989.445.038.838 0 1.208-.07-.309 1.324-.574 2.615-.792 3.867-.571 1.059-.442 2.238-1.188 3.49.255-.02.476-.075.701-.126-.121 1.046-.207 2.059-.258 3.034-.581 1.216-.187 2.44-.792 3.891.285-.063.531-.156.771-.256.066 1.474.229 2.832.489 4.048.065.832.272 1.672.066 2.697.231-.102.435-.217.628-.338.728 1.872 1.778 3.237 3.138 3.992.62 1.247 1.711 2.617 3.429 4.07-.541-3.137 1.723.236 3.863.59.667-1.606 1.072-3.014 1.286-4.256 4.748-.281 10.576-.664 13.613-.332.627 1.228 1.712 2.572 3.396 3.998-.541-3.137 1.725.236 3.863.59 1.129-2.719 1.527-4.885 1.453-6.584 5.526-3.965 1.834-12.333-.664-12.846z" fill="url(#j)"/><g fill="#d6a57c"><path d="m40.401 40.716c.119 1.219.711 2.053.711 2.053s-1.033.842-2.377-.123c1.588-.161 1.582-2.78 1.666-1.93z"/><path d="m19.993 31.719c-1.16 1.442-.834 3.343-2.16 4.306.865-1.481.33-3.709 2.16-4.306z"/><path d="m18.077 23.586c-.91 1.613-.279 3.436-1.432 4.602.613-1.602-.277-3.713 1.432-4.602z"/><path d="m23.245 28.471c1.027 1.541.531 3.404 1.768 4.482-.729-1.553.001-3.723-1.768-4.482z"/><path d="m23.436 20.938c.559 1.383-.137 2.77.66 3.822-.32-1.344.612-2.936-.66-3.822z"/><path d="m27.241 33.948c-.445 1.799.65 3.385-.148 4.816.162-1.706-1.26-3.503.148-4.816z"/><path d="m34.269 30.385c-.447 1.796.65 3.384-.148 4.815.159-1.709-1.263-3.503.148-4.815z"/><path d="m36.265 31.963c.549 1.769 2.309 2.56 2.365 4.198-.746-1.545-2.893-2.346-2.365-4.198z"/><path d="m44.683 29.141c1.143 1.459 3.068 1.57 3.703 3.082-1.246-1.178-3.535-1.162-3.703-3.082z"/><path d="m43.974 32.878c1.301 2.142 3.43 2.867 4.172 4.921-1.407-1.831-3.938-2.507-4.172-4.921z"/></g><path d="m18.438 9.887c-2.756-4.537.014-8.504.279-7.807.852 2.225 2.082 3.785 1.586 6.041-.217.986-1.519 2.334-1.865 1.766z" fill="#ffe1bd"/><path d="m18.44 9.027c-1.854-3.156-.102-6.613.158-5.992 1.742 4.201.182 6.567-.158 5.992z" fill="url(#k)"/></svg>