<svg enable-background="new 0 0 64 64" height="64" viewBox="0 0 64 64" width="64" xmlns="http://www.w3.org/2000/svg" xmlns:xlink="http://www.w3.org/1999/xlink"><linearGradient id="a" gradientUnits="userSpaceOnUse" x1="47.0967" x2="57.7063" y1="17.8564" y2="23.9819"><stop offset="0" stop-color="#806052"/><stop offset=".0414" stop-color="#8c6c5b"/><stop offset=".1953" stop-color="#b59378"/><stop offset=".346" stop-color="#d5b28f"/><stop offset=".4907" stop-color="#ecc8a0"/><stop offset=".6268" stop-color="#fad5aa"/><stop offset=".7455" stop-color="#ffdaad"/></linearGradient><linearGradient id="b" gradientUnits="userSpaceOnUse" x1="6.2939" x2="16.9025" y1="23.981" y2="17.8561"><stop offset=".2545" stop-color="#ffdaad"/><stop offset=".3732" stop-color="#fad5aa"/><stop offset=".5093" stop-color="#ecc8a0"/><stop offset=".654" stop-color="#d5b28f"/><stop offset=".8047" stop-color="#b59378"/><stop offset=".9586" stop-color="#8c6c5b"/><stop offset="1" stop-color="#806052"/></linearGradient><linearGradient id="c" gradientUnits="userSpaceOnUse" x1="32.0005" x2="32.0005" y1="23.8779" y2="2.0005"><stop offset=".1939" stop-color="#e3a444"/><stop offset=".3967" stop-color="#e1a244"/><stop offset=".4995" stop-color="#d99c42"/><stop offset=".5797" stop-color="#cc9240"/><stop offset=".6483" stop-color="#b9843e"/><stop offset=".7095" stop-color="#a0723a"/><stop offset=".7654" stop-color="#825b35"/><stop offset=".8162" stop-color="#5f4130"/><stop offset=".8242" stop-color="#593c2f"/></linearGradient><radialGradient id="d" cx="38.0459" cy="38.9561" gradientTransform="matrix(.9156 0 0 1 -2.834 0)" gradientUnits="userSpaceOnUse" r="19.8667"><stop offset="0" stop-color="#edba6f"/><stop offset=".3335" stop-color="#ebb565"/><stop offset=".9045" stop-color="#e4a749"/><stop offset="1" stop-color="#e3a444"/></radialGradient><path d="m60.211 13.004c-3.686.84-11.604 2.341-21.336 8.034 1.303 2.134 5.227 7.867 6.176 7.808 14.279 1.906 20.244-17 15.16-15.842z" fill="#e3a444"/><path d="m59.594 13.595c-19.422 5.443-16.98 14.952-14.863 14.821 13.917 1.835 20.037-16.271 14.863-14.821z" fill="url(#a)"/><path d="m3.789 13.004c3.686.84 11.604 2.341 21.336 8.034-1.303 2.134-5.226 7.867-6.175 7.808-14.28 1.906-20.244-17-15.161-15.842z" fill="#e3a444"/><path d="m4.406 13.595c19.421 5.443 16.981 14.952 14.864 14.821-13.919 1.835-20.037-16.271-14.864-14.821z" fill="url(#b)"/><path d="m41.355 3.534c0-2.044-4.77-2.044-4.77 0 0 7.605-2.488 10.365-4.585 10.365s-4.584-2.76-4.584-10.365c0-2.044-4.771-2.044-4.771 0 0 9.048-3.412 10.614 1.541 17.542 2.671 3.736 12.958 3.736 15.627 0 4.953-6.925 1.542-8.498 1.542-17.542z" fill="url(#c)"/><path d="m46.717 19.615c-4.475-2.97-10.678-3.703-14.717-3.703-4.038 0-10.242.733-14.716 3.703 1.383 1.78 0 3.215 2.387 5.368-6.205 12.599 1.425 20.72 3.65 25.666 1.53 3.398-.405 11.351 8.679 11.351s7.149-7.953 8.678-11.352c2.227-4.945 9.857-13.066 3.652-25.666 2.387-2.152 1.004-3.587 2.387-5.367z" fill="url(#d)"/><path d="m44.33 24.983c-8.396 1.621-12.33 16.15-3.652 25.665 2.226-4.945 10.222-13.345 3.652-25.665z" fill="#ffdaad"/><path d="m19.67 24.983c8.396 1.622 12.329 16.15 3.65 25.666-2.225-4.946-10.221-13.346-3.65-25.666z" fill="#ffdaad"/><path d="m37.609 51.23c.686-2.885-4.79 1.182-4.029 2.999 2-1.955 3.721-1.7 4.029-2.999z" fill="#302c3b"/><path d="m26.392 51.23c-.686-2.885 4.789 1.182 4.029 2.999-2-1.955-3.72-1.7-4.029-2.999z" fill="#302c3b"/><g fill="#e6a76c"><path d="m38.361 36.924c2.824-2.264 6.58 6.273 3.723 5.96-2.727-.299-2.359 5.288-3.936 1.515-1.15-2.753-1.404-6.18.213-7.475z"/><path d="m46.568 36.943c-.115 3.961-2.721 8.018-2.721 8.018 2.168-5.814-2.186-7.713-1.459-9.626.551-1.446 4.219.248 4.18 1.608z"/><path d="m43.271 45.946c-.9 1.581-2.074 3.654-2.074 3.654-1.596-1.454-1.375-3.447-.078-4.956.983-1.142 2.811.145 2.152 1.302z"/><path d="m25.639 36.924c-2.825-2.264-6.581 6.273-3.725 5.96 2.727-.299 2.361 5.288 3.938 1.515 1.15-2.753 1.404-6.18-.213-7.475z"/><path d="m17.431 36.943c.115 3.961 2.721 8.018 2.721 8.018-2.167-5.814 2.186-7.713 1.458-9.626-.551-1.446-4.219.248-4.179 1.608z"/><path d="m20.728 45.946c.9 1.581 2.073 3.654 2.073 3.654 1.596-1.454 1.377-3.447.078-4.956-.982-1.142-2.81.145-2.151 1.302z"/></g><path d="m41.746 34.344c-.436 2.448.611 4.676 2.336 4.977 1.725.302 3.473-1.436 3.908-3.881.436-2.452-.611-4.679-2.338-4.98-1.72-.306-3.472 1.432-3.906 3.884z" fill="#302c3b"/><path d="m47.471 32.893c0 1.479-2.033 1.479-2.033 0 0-1.48 2.033-1.48 2.033 0z" fill="#6e8189"/><path d="m50 31.229c-1.848-.373-2.02-1.637-3.932-1.637-1.74 0-4.244 1.397-4.422 5.677 1.264-4.438 5.75-2.126 8.354-4.04z" fill="#785647"/><path d="m22.255 34.344c.435 2.448-.61 4.676-2.336 4.977-1.725.302-3.472-1.436-3.907-3.881-.437-2.452.61-4.679 2.337-4.98 1.721-.306 3.474 1.432 3.906 3.884z" fill="#302c3b"/><path d="m16.531 32.893c0 1.479 2.033 1.479 2.033 0 0-1.48-2.033-1.48-2.033 0z" fill="#6e8189"/><path d="m14 31.229c1.85-.373 2.021-1.637 3.932-1.637 1.741 0 4.245 1.397 4.423 5.677-1.264-4.438-5.75-2.126-8.355-4.04z" fill="#785647"/><path d="m32 19.8c-4.832 0-8.89 1.136-6.369 2.791 5.099 3.349 6.369 14.672 6.369 14.672s1.27-11.323 6.37-14.672c2.521-1.654-1.538-2.791-6.37-2.791z" fill="#de9f3e"/><path d="m36.852 58.225c-2.955 1.298-6.75 1.298-9.706 0-.418-.184-.469.167-.34.322 2.398 2.903 7.991 2.903 10.387 0 .131-.155.078-.506-.341-.322z" fill="#302c3b"/></svg>