<svg enable-background="new 0 0 64 64" height="64" viewBox="0 0 64 64" width="64" xmlns="http://www.w3.org/2000/svg" xmlns:xlink="http://www.w3.org/1999/xlink"><linearGradient id="a" gradientTransform="matrix(-1.2003 0 0 2.9474 259.1757 -1050.7064)" gradientUnits="userSpaceOnUse" x1="189.2627" x2="189.2627" y1="375.8027" y2="358.8926"><stop offset="0" stop-color="#01b0ff"/><stop offset="1" stop-color="#45dfff"/></linearGradient><g fill="#018bc9"><path d="m38.143 26.811c2.025-.435 6.146-1.32 8.172-1.754 1.36-.293 1.836 1.867.477 2.159-1.889.404-6.823 1.464-8.174 1.754-1.357.291-1.833-1.87-.475-2.159z"/><path d="m40.617 34.881c1.893-.833 5.744-2.53 7.64-3.363 1.27-.559 2.182 1.459.911 2.018-1.767.777-6.379 2.808-7.642 3.363-1.267.559-2.179-1.461-.909-2.018z"/><path d="m43.515 41.052c2.053-.296 6.225-.897 8.277-1.192 1.375-.198 1.7 1.988.323 2.187-1.912.274-6.908.995-8.277 1.192-1.373.198-1.696-1.991-.323-2.187z"/><path d="m43.318 45.932c1.812.998 5.491 3.029 7.303 4.028 1.214.67.123 2.6-1.09 1.929-1.688-.931-6.097-3.362-7.305-4.028-1.21-.67-.12-2.599 1.092-1.929z"/><path d="m39.752 50.239c1.082 1.749 3.278 5.303 4.359 7.051.725 1.172-1.185 2.325-1.908 1.152-1.008-1.629-3.64-5.885-4.359-7.051-.725-1.17 1.185-2.323 1.908-1.152z"/><path d="m34.237 52.634c.252 2.034.763 6.168 1.014 8.201.167 1.362-2.054 1.63-2.221.267-.235-1.894-.845-6.844-1.013-8.199-.166-1.364 2.054-1.632 2.22-.269z"/><path d="m28.563 52.541c-.771 1.903-2.336 5.769-3.106 7.671-.518 1.275-2.595.454-2.077-.82.717-1.773 2.593-6.401 3.107-7.67.516-1.274 2.594-.454 2.076.819z"/><path d="m24.025 49.772c-1.691 1.189-5.125 3.602-6.814 4.79-1.134.796-2.431-1.005-1.298-1.802 1.574-1.107 5.689-3.996 6.815-4.787 1.133-.794 2.431 1.006 1.297 1.799z"/><path d="m21.346 44.495c-2.032.414-6.16 1.253-8.191 1.666-1.361.275-1.813-1.888-.45-2.165 1.893-.386 6.836-1.388 8.191-1.663 1.361-.276 1.812 1.889.45 2.162z"/><path d="m20.431 37.43c-2.077.046-6.29.139-8.363.186-1.39.03-1.439-2.179-.05-2.209 1.934-.044 6.978-.153 8.361-.186 1.391-.029 1.439 2.18.052 2.209z"/><path d="m20.684 30.439c-2.052-.324-6.211-.983-8.26-1.306-1.373-.217-1.019-2.399.354-2.182 1.91.299 6.891 1.091 8.26 1.306 1.371.218 1.017 2.402-.354 2.182z"/><path d="m22.242 23.88c-1.926-.772-5.828-2.341-7.75-3.111-1.287-.517-.444-2.564.844-2.046 1.791.716 6.464 2.597 7.747 3.11 1.287.519.444 2.567-.841 2.047z"/><path d="m25.316 17.989c-1.626-1.276-4.924-3.867-6.548-5.141-1.089-.854.305-2.584 1.392-1.729 1.516 1.186 5.463 4.29 6.548 5.14 1.087.855-.306 2.585-1.392 1.73z"/><path d="m29.878 13.435c-1.068-1.761-3.23-5.332-4.296-7.089-.714-1.179 1.206-2.313 1.92-1.135.994 1.637 3.582 5.915 4.294 7.087.712 1.181-1.208 2.316-1.918 1.137z"/><path d="m34.735 11.252c.066-2.053.203-6.211.269-8.259.045-1.372 2.28-1.3 2.235.072-.06 1.907-.226 6.888-.269 8.255-.046 1.374-2.282 1.304-2.235-.068z"/><path d="m36.813 11.248c2.052-.337 6.207-1.015 8.254-1.351 1.371-.224 1.735 1.956.363 2.18-1.905.315-6.884 1.125-8.25 1.349-1.371.221-1.737-1.959-.367-2.178z"/><path d="m37.395 18.338c2.078-.066 6.287-.193 8.359-.261 1.391-.041 1.459 2.167.069 2.209-1.932.064-6.973.215-8.356.259-1.391.041-1.462-2.167-.072-2.207z"/><path d="m38.142 26.81c2.032-.437 6.148-1.317 8.175-1.755 1.358-.291 1.832 1.869.473 2.159-1.887.409-6.817 1.462-8.171 1.754-1.36.289-1.836-1.87-.477-2.158z"/></g><path d="m16.658 42.497c3.607 25.765 39.242 12.669 29.538-5.558-6.549-12.301-3.733-18.832-5.338-26.336-1.987-9.303-28.764-.688-24.2 31.894z" fill="url(#a)"/><path d="m35.671 9.298c1.136 0 2.547.272 2.823 1.565.475 2.223.53 4.452.589 6.813.134 5.414.286 11.551 5.057 20.513 1.832 3.441 1.849 6.847.048 9.847-2.356 3.924-7.584 6.665-12.713 6.665-3.236 0-10.932-1.211-12.502-12.425-2.108-15.048 2.911-23.429 6.091-27.084 3.783-4.35 8.079-5.894 10.607-5.894m0-2.531c-8.253 0-22.676 11.088-19.205 35.862 1.467 10.473 8.159 14.604 15.009 14.604 10.216 0 20.781-9.186 14.899-20.232-6.631-12.456-3.78-19.067-5.404-26.667-.502-2.345-2.562-3.567-5.299-3.567z" fill="#00a4ed"/><path d="m40.734 45.516c0 2.667-4 2.667-4 0s4-2.667 4 0z" fill="#82e8ff"/><path d="m32.222 45.516c0 4.167-6.25 4.167-6.25 0s6.25-4.167 6.25 0z" fill="#82e8ff"/><path d="m36.734 36.418c0 2.667-4 2.667-4 0s4-2.667 4 0z" fill="#82e8ff"/><path d="m35.333 22.005c0 2.667-4 2.667-4 0s4-2.667 4 0z" fill="#82e8ff"/><path d="m31.478 16.39c0 1.877-2.814 1.877-2.814 0s2.814-1.877 2.814 0z" fill="#82e8ff"/><path d="m29.892 25.792c0 4.112-6.168 4.112-6.168 0s6.168-4.112 6.168 0z" fill="#82e8ff"/></svg>