<svg enable-background="new 0 0 64 64" height="64" viewBox="0 0 64 64" width="64" xmlns="http://www.w3.org/2000/svg" xmlns:xlink="http://www.w3.org/1999/xlink"><linearGradient id="a"><stop offset="0" stop-color="#cfd8dd"/><stop offset=".1767" stop-color="#d7dee3"/><stop offset=".58" stop-color="#e2e8ec"/><stop offset="1" stop-color="#e6ebef"/></linearGradient><linearGradient id="b" gradientUnits="userSpaceOnUse" x1="32.0005" x2="32.0005" xlink:href="#a" y1="61.668" y2="2"/><linearGradient id="c" gradientUnits="userSpaceOnUse" x1="36.7676" x2="36.7676" xlink:href="#a" y1="58.6982" y2="30.0093"/><linearGradient id="d" gradientUnits="userSpaceOnUse" x1="3.729" x2="6.354" y1="15.4478" y2="16.2397"><stop offset="0" stop-color="#ffe354"/><stop offset=".3706" stop-color="#ffc32f"/><stop offset=".7789" stop-color="#ffa50d"/><stop offset="1" stop-color="#f90"/></linearGradient><path d="m14.104 43.961c-6.286-2.994 16.258-18.514 11.504-32.266-3.51-10.153-11.588-10.826-17.315-8.738-5.331 1.943-5.855 4.455-4.755 8.281 7.734 6.572 11.108-2.191 11.108-2.191 12.463 11.081-14.881 23.509-12.498 40.81 1.544 11.213 24.814 14.391 40.496 9.75 18.976-5.615 19.356-18.056 19.356-18.056-4.897 2.715-37.205 7.801-47.896 2.41z" fill="url(#b)"/><path d="m55.249 31.269s-11.521 4.637-19.771 2.091c17.831 15.431 19.771-2.091 19.771-2.091z" fill="#b3c2c6"/><path d="m29.415 58.68c27.685-.862 30.585-24.444 30.585-24.444-13.517 6.721-22.821-11.006-38.078-1.194-9.007 5.79-15.851 26.364 7.493 25.638z" fill="url(#c)"/><g fill="#b3c2c6"><path d="m14.286 52.157c10.03 6.463 25.997-4.372 20.332-14.042 1.184 7.377-9.052 16.872-20.332 14.042z"/><path d="m23.848 53.395c10.03 6.465 25.997-4.369 20.331-14.039 1.184 7.376-9.051 16.871-20.331 14.039z"/><path d="m30.437 53.961c16.914 8.412 28.216-5.469 29.563-19.725-2.483 11.313-14.024 22.639-29.563 19.725z"/><path d="m7.39 57.068c17.923 10.762 52.844 3.164 54.61-15.517-5.524 12.861-30.73 23.037-54.61 15.517z"/><path d="m15.146 6.074c-.188 4.453-5.104 6.73-7.083 6.545 0 0-.242.912-.19 1.393 2.712.495 7.69-2.665 7.273-7.938z"/></g><path d="m3.148 20.23c-2.431-1.082 2.062-4.498 1.433-8.959 5.988-.459 2.768 4.039-1.433 8.959z" fill="url(#d)"/><path d="m8.135 6.896c-1.779 1.377-1.852 3.096-4.344 4.137-.798.334-1.211 3.221.603 2.803.471-.105.379.662.63.41.899-.916-.687-2.861.408-2.783 5.653.402-2.021 7.807-2.283 8.768 10.002-10.314 1.739-7.56 4.986-13.335z" fill="#302c3b"/><path d="m7.874 10.277c-1.334 0-1.334-2.461 0-2.461 1.332 0 1.332 2.461 0 2.461z" fill="#302c3b"/><path d="m7.694 8.617c0 .43-.558.43-.558 0s.558-.43.558 0z" fill="#6e8189"/><path d="m5.376 15.46c-.281.424-.908.012-.588-.379 1.284-1.57 1.599-1.386.588.379z" fill="#302c3b"/></svg>