<svg enable-background="new 0 0 64 64" height="64" viewBox="0 0 64 64" width="64" xmlns="http://www.w3.org/2000/svg"><path d="m16.41 34.339h-5.718c.092 4.697.828 10.102 2.17 14.698.438-3.215-.562-4.542.94-8.417 1.245-3.203 1.923-5.144 2.608-6.281z" fill="#b3c2c6"/><path d="m47.782 34.339c.733 1.094 1.431 3.017 2.789 6.281 1.38 3.323.501 5.202.942 8.417 1.73-6.377 2.131-11.192 1.568-14.698z" fill="#b3c2c6"/><path d="m10.284 42.921c-2.44-6.111-1.872-16.839 5.852-21.68.361 6.037-3.627 15.148-5.852 21.68z" fill="#e6ebef"/><path d="m10.284 42.921c-1.861-6.44 4.306-13.299 5.852-21.68.361 6.037-3.627 15.148-5.852 21.68z" fill="#b3c2c6"/><path d="m10.151 44.663c2.773-9.194-1.285-18.247 5.984-23.422.427 5.915 4.807 11.079-5.984 23.422z" fill="#e6ebef"/><path d="m10.151 44.663c8.994-14.375 1.476-17.798 5.984-23.42.427 5.913 4.807 11.077-5.984 23.42z" fill="#b3c2c6"/><path d="m16.136 21.243c23.359 11.795 32.147 9.083 37.939 22.836 6.486-24.592-22.719-37.707-37.939-22.836z" fill="#e6ebef"/><path d="m16.136 21.243c23.359 11.795 30.46 9.485 37.939 22.836.613-12.265-22.553-21.9-37.939-22.836z" fill="#b3c2c6"/><path d="m16.351 21.243c-6.113 8.19 18.714 12.93 27.979 13.141-7.672-6.905-14.468-14.563-27.979-13.141z" fill="#e6ebef"/><path d="m44.33 34.382c-9.944-3.162-30.482-5.363-27.979-13.141-6.114 8.193 18.035 13.141 27.979 13.141z" fill="#b3c2c6"/><path d="m28.915 34.382c-5.908-4.034-5.62-12.855-12.779-13.141-8.023 8.492 5.551 12.932 12.779 13.141z" fill="#e6ebef"/><path d="m28.915 34.382c-8.136-3.977-17.945-5.053-12.779-13.141-8.023 8.492 5.05 13.349 12.779 13.141z" fill="#b3c2c6"/><g fill="#6e8189"><path d="m62 62h-5.5v-3h2.5v-2.5h3z"/><path d="m49.5 62h-7v-3h7zm-14 0h-7v-3h7zm-14 0h-7v-3h7z"/><path d="m7.5 62h-5.5v-5.5h3v2.5h2.5z"/><path d="m5 49.5h-3v-7h3zm0-14h-3v-7h3zm0-14h-3v-7h3z"/><path d="m5 7.5h-3v-5.5h5.5v3h-2.5z"/><path d="m49.5 5h-7v-3h7zm-14 0h-7v-3h7zm-14 0h-7v-3h7z"/><path d="m62 7.5h-3v-2.5h-2.5v-3h5.5z"/><path d="m62 49.5h-3v-7h3zm0-14h-3v-7h3zm0-14h-3v-7h3z"/></g></svg>