<svg enable-background="new 0 0 64 64" height="64" viewBox="0 0 64 64" width="64" xmlns="http://www.w3.org/2000/svg" xmlns:xlink="http://www.w3.org/1999/xlink"><radialGradient id="a" cx="41.79" cy="9.5596" gradientTransform="matrix(1.0504 0 0 1.2981 -19.4131 1.5075)" gradientUnits="userSpaceOnUse" r="35.6188"><stop offset=".1515" stop-color="#e6ebef"/><stop offset=".394" stop-color="#e2e8ec"/><stop offset=".6271" stop-color="#d7dfe3"/><stop offset=".8558" stop-color="#c3cfd3"/><stop offset="1" stop-color="#b3c2c6"/></radialGradient><radialGradient id="b" cx="48.7715" cy="44.3672" gradientTransform="matrix(1.0504 0 0 2.0728 -19.4131 -42.0472)" gradientUnits="userSpaceOnUse" r="14.1933"><stop offset=".2909" stop-color="#b3c2c6"/><stop offset=".7214" stop-color="#d5dde1" stop-opacity=".3929"/><stop offset="1" stop-color="#e6ebef" stop-opacity="0"/></radialGradient><linearGradient id="c" gradientUnits="userSpaceOnUse" x1="17.916" x2="27.723" y1="4.8652" y2="19.3145"><stop offset="0" stop-color="#fff" stop-opacity=".5"/><stop offset=".7818" stop-color="#fff" stop-opacity="0"/></linearGradient><path d="m49.795 4.784c-8.325-5.917-9.06-.563-17.795-.563-8.734 0-9.47-5.354-17.795.563-5.693 4.042-4.932 15.051-1.692 20.075 4.612 7.155.595 32.002 11.764 36.952 6.388 2.827-1.902-26.918 7.724-26.918s1.336 29.745 7.724 26.918c11.169-4.949 7.151-29.797 11.764-36.952 3.238-5.024 3.999-16.033-1.694-20.075z" fill="url(#a)"/><path d="m49.795 4.784c-8.325-5.917-9.06-.563-17.795-.563-8.734 0-9.47-5.354-17.795.563-5.693 4.042-4.932 15.051-1.692 20.075 4.612 7.155.595 32.002 11.764 36.952 6.388 2.827-1.902-26.918 7.724-26.918s1.336 29.745 7.724 26.918c11.169-4.949 7.151-29.797 11.764-36.952 3.238-5.024 3.999-16.033-1.694-20.075z" fill="url(#b)"/><path d="m30.851 6.617c-11.519-4.764-17.051-1.261-17.987 6.191-2.865 22.813 38.24 2.185 17.987-6.191z" fill="url(#c)"/></svg>