<svg enable-background="new 0 0 64 64" height="64" viewBox="0 0 64 64" width="64" xmlns="http://www.w3.org/2000/svg"><path d="m12.137 33.464c-6.642-1.199-1.454 17.375 3.745 12.252 2.409-2.375-.639-11.691-3.745-12.252z" fill="#e6b045"/><path d="m51.864 33.464c-3.107.562-6.155 9.877-3.745 12.252 5.201 5.123 10.384-13.451 3.745-12.252z" fill="#e6b045"/><path d="m32 11.687c-13.734 0-20.352 10.392-19.522 24.839.166 2.906 1.967 12.39 3.668 15.789h31.709c1.702-3.399 3.503-12.883 3.668-15.789.83-14.448-5.787-24.839-19.523-24.839z" fill="#fc6"/><g fill="#6e8189"><path d="m62 62h-5.5v-3h2.5v-2.5h3z"/><path d="m49.5 62h-7v-3h7zm-14 0h-7v-3h7zm-14 0h-7v-3h7z"/><path d="m7.5 62h-5.5v-5.5h3v2.5h2.5z"/><path d="m5 49.5h-3v-7h3zm0-14h-3v-7h3zm0-14h-3v-7h3z"/><path d="m5 7.5h-3v-5.5h5.5v3h-2.5z"/><path d="m49.5 5h-7v-3h7zm-14 0h-7v-3h7zm-14 0h-7v-3h7z"/><path d="m62 7.5h-3v-2.5h-2.5v-3h5.5z"/><path d="m62 49.5h-3v-7h3zm0-14h-3v-7h3zm0-14h-3v-7h3z"/></g></svg>