<svg enable-background="new 0 0 64 64" height="64" viewBox="0 0 64 64" width="64" xmlns="http://www.w3.org/2000/svg"><path d="m24.033 9.02c-5.364 23.027-4.873 22.535 6.419 22.535-6.248-4.372 5.724-22.847-6.419-22.535z" fill="#3b2c29"/><path d="m22.097 8.664c-3.912 17.496-.532 21.989 2.464 22.892h3.436c-8.038-5.667 4.526-23.238-5.9-22.892z" fill="#453631"/><path d="m39.817 9.02c5.363 23.027 4.872 22.535-6.421 22.535 5.75-3.509-5.718-22.847 6.421-22.535z" fill="#3b2c29"/><path d="m41.752 8.664c5.725 15.917-.011 22.154-2.463 22.892h-3.437c8.045-5.206-4.526-23.238 5.9-22.892z" fill="#453631"/><path d="m42.704 17.214c1.659 4.048.016 12.354-3.415 14.341 3.803 0 6.124-5.265 7.249-12.506 1.414-9.051-6.784-9.054-3.834-1.835z" fill="#594640"/><path d="m17.739 20.729c1.384 6.537 3.086 10.826 6.821 10.826-4.158-4.308-3.675-13.399-2.486-15.661 6.024-3.589-6.679-6.222-4.335 4.835z" fill="#594640"/><path d="m62 62.001h-60s7.186-26.026 13.045-30.106c5.063-3.523 29.371-3.811 33.908 0 5.492 4.611 13.047 30.106 13.047 30.106z" fill="#006dae"/><path d="m54.641 62.001h-45.266s1.439-21.464 6.738-25.091c7.33-5.021 24.963-5.663 31.791 0 4.93 4.088 6.737 25.091 6.737 25.091z" fill="#014d87"/><path d="m59.893 45.979c-1.211-4.083-10.15-12.709-11.961-14.229l-15.939-5.086-15.938 5.086c-1.811 1.52-10.752 10.146-11.961 14.229-.838 2.824 3.574 6.721 12.127 13.34 3.973-1.219 1.895-4.535 1.895-4.535-3.119-2.004-5.1-5.43-7.863-8.492 1.221-.188 7.859-6.813 8.385-6.313 1.738 1.652 4.656 6.75 3.146 15.188.877 5.875 19.541 5.875 20.418 0-1.51-8.438 1.41-13.535 3.148-15.188.525-.5 7.164 6.125 8.383 6.313-2.762 3.063-4.742 6.488-7.863 8.492 0 0-2.078 3.316 1.895 4.535 8.553-6.619 12.964-10.515 12.128-13.34z" fill="#e81c27"/><path d="m41.938 56.396c-3.514 3.775-16.365 3.773-19.879 0l-.545 5.605h20.971z" fill="#ad1413"/><path d="m18.115 54.784c2.076.373 2.473-.961 3.863-.473 0 0 .445.338.535 1.418.088 1.029.664 1.822 2.682 3.094 1.328.836.223 2.604-1 2.02-.68 1.166-2.396 1.158-2.693 1.158-1.359 0-3.746-1.859-5.281-2.682 1.89-2.392 1.894-4.535 1.894-4.535z" fill="#fc6"/><path d="m45.869 54.784c-2.076.373-2.473-.961-3.861-.473 0 0-.447.338-.537 1.418-.086 1.029-.664 1.822-2.68 3.094-1.328.836-.223 2.604 1 2.02.678 1.166 2.396 1.158 2.693 1.158 1.359 0 3.746-1.859 5.279-2.682-1.888-2.392-1.894-4.535-1.894-4.535z" fill="#fc6"/><path d="m37.297 35.359c-2.961-.48-7.648-.48-10.609 0-.674 2.775-6.689 3.793-6.689 3.793l11.994 11.849 11.994-11.849c-.001 0-6.016-1.017-6.69-3.793z" fill="#ffe12c"/><path d="m38.182 37.123-2.59 2.57h-5.832c-.471 0-.707.105-.707.322 0 .213.236.322.707.322h3.527c2.82 0 4.232.963 4.232 2.891 0 1.931-1.412 2.896-4.232 2.896h-4.832l-2.588-2.575h7.42c.471 0 .705-.105.705-.32 0-.217-.234-.322-.705-.322h-3.527c-2.82 0-4.234-.963-4.234-2.891 0-1.93 1.414-2.893 4.234-2.893z" fill="#d47706"/><path d="m22.619 33.649c3.098-1.857 3.166-5.013 3.166-5.013s-1.973-.898-3.453.463c0 0-2.373-.773-3.086.562-2.215-.633-3.543 1.041-3.246 2.105 2.715-1.025 5.174 2.368 6.619 1.883z" fill="#006dae"/><path d="m16 31.766c.873-2.31 5.729 2.11 7.057 1.606-1.869 1.718-4.135-1.775-7.057-1.606z" fill="#014d87"/><path d="m19.246 29.661c1.631.404 2.385 1.899 2.381 1.724-.051-.948-1.756-1.786-.686-2.501 0-.001-1.429-.1-1.695.777z" fill="#014d87"/><path d="m22.332 29.099c1.186.922.998 2.248 1.059 2.082.314-.944-.309-2.385.375-2.786 0 0-1.104.147-1.434.704z" fill="#014d87"/><path d="m24.527 33.563c.078 1.899-3.887 2.206-3.963.307-.076-1.763 3.891-2.068 3.963-.307z" fill="#0fb4d4"/><path d="m41.381 33.649c-3.098-1.857-3.166-5.013-3.166-5.013s1.973-.898 3.453.463c0 0 2.373-.773 3.086.562 2.213-.633 3.541 1.041 3.244 2.105-2.715-1.025-5.172 2.368-6.617 1.883z" fill="#006dae"/><path d="m47.998 31.766c-.871-2.31-5.729 2.11-7.057 1.606 1.872 1.718 4.135-1.775 7.057-1.606z" fill="#014d87"/><path d="m44.754 29.661c-1.631.404-2.385 1.899-2.381 1.724.049-.948 1.754-1.786.684-2.501 0-.001 1.431-.1 1.697.777z" fill="#014d87"/><path d="m41.668 29.099c-1.186.922-1 2.248-1.059 2.082-.314-.944.307-2.385-.377-2.786 0 0 1.106.147 1.436.704z" fill="#014d87"/><path d="m39.473 33.563c-.08 1.899 3.885 2.206 3.961.307.076-1.763-3.889-2.068-3.961-.307z" fill="#0fb4d4"/><path d="m27.991 28.739c0 4.223 8 4.223 8 0v-4.374h-8z" fill="#e6b045"/><path d="m31.99 3.488c-7.149 0-10.591 5.821-10.159 13.306.086 1.505.506 3.677 1.023 5.537 1.069 3.862 6.728 7.755 9.136 7.755 2.412 0 8.063-3.893 9.14-7.755.515-1.86.934-4.032 1.023-5.537.428-7.485-3.009-13.306-10.163-13.306z" fill="#fc6"/><path d="m31.99 23.913c-1.736-.766-1.752-.03-4.437.15 1.013 1.143 1.756 2.61 4.437 2.61 3.083 0 3.6-1.665 4.437-2.61-2.685-.181-2.7-.916-4.437-.15z" fill="#d47706"/><path d="m28.359 24.344c1.752 1.823 5.533 1.804 7.261.004-2.695.288-4.556.288-7.261-.004z" fill="#fff"/><path d="m39.87 14.073c-1.613-.958-4.501-1.077-5.645-.421-.24.132-.172.825.034.739 1.631-.679 4.114-.713 5.645.07.207.106.21-.247-.034-.388z" fill="#594640"/><path d="m24.115 14.073c1.607-.958 4.496-1.077 5.644-.421.24.132.176.825-.034.739-1.631-.679-4.114-.713-5.641.07-.211.106-.218-.247.031-.388z" fill="#594640"/><path d="m34.206 21.303c0 1.439-4.428 1.439-4.428 0 0-.334 4.428-.334 4.428 0z" fill="#e6b045"/><path d="m32.009 14.926c-2.659.003-8.053-4.343-10.593.939 1.105 10.1 7.878 2.256 10.593 2.261 2.707.004 9.545 7.93 10.56-2.261-2.543-5.283-7.907-.941-10.56-.939z" fill="#006dae"/><path d="m39.713 17.001c-.952 2.493-4.839 2.129-5.548.382.537-2.812 5.023-3.052 5.548-.382z" fill="#fff"/><path d="m35.134 16.727c0 2.213 3.206 2.213 3.206 0 0-2.06-3.206-2.06-3.206 0z" fill="#613f34"/><path d="m35.452 17.436c0 1.271 2.569 1.271 2.569 0 0-1.178-2.569-1.178-2.569 0z" fill="#7d5037"/><path d="m36.07 16.761c0 .919 1.331.919 1.331 0 0-.851-1.331-.851-1.331 0z" fill="#1a1626"/><path d="m35.62 16.491c0 .465.669.465.669 0 0-.427-.669-.427-.669 0z" fill="#ab968c"/><path d="m39.713 16.982c0-2.688-5.548-2.688-5.548.424.788-2.554 4.756-2.554 5.548-.424z" fill="#014d87"/><path d="m24.269 17.001c.955 2.493 4.846 2.129 5.555.382-.542-2.812-5.027-3.052-5.555-.382z" fill="#fff"/><path d="m25.649 16.731c0 2.212 3.198 2.212 3.198 0 .001-2.055-3.198-2.055-3.198 0z" fill="#613f34"/><path d="m25.963 17.436c0 1.271 2.569 1.271 2.569 0 0-1.174-2.569-1.174-2.569 0z" fill="#7d5037"/><path d="m26.579 16.764c0 .92 1.334.92 1.334 0 0-.854-1.334-.854-1.334 0z" fill="#1a1626"/><path d="m26.129 16.499c0 .462.67.462.67 0 0-.431-.67-.431-.67 0z" fill="#ab968c"/><path d="m24.269 16.982c0-2.688 5.555-2.688 5.555.42-.792-2.554-4.761-2.554-5.555-.42z" fill="#014d87"/><path d="m39.979 4.527c-5.014 5.139-.225 5.468 2.726 12.688 1.659 4.048 2.709 9.076 3.834 1.835 1.413-9.052-4.014-15.276-6.56-14.523z" fill="#594640"/><path d="m27.678 2.561c-6.361 1.494-12.283 7.111-9.938 18.168 1.384 6.537 3.146-2.573 4.335-4.835 6.023-3.589 16.337-6.308 17.904-11.367.795-1.167-5.945-3.634-12.301-1.966z" fill="#594640"/><g fill="#453631"><path d="m22.806 10.611c2.688-.545 15.545-.8 17.173-6.084-3.038 2.423-6.185 3.083-17.173 6.084z"/><path d="m18.169 19.018c4.51-6.02 19.282-5.355 21.81-14.491-4.906 7.667-20.58 8.706-21.81 14.491z"/><path d="m38.493 5.78c-1.162 1.833 2.881-.858 7.239 10.951-1.073-6.904-4.76-11.66-7.239-10.951z"/></g></svg>