<svg enable-background="new 0 0 64 64" height="64" viewBox="0 0 64 64" width="64" xmlns="http://www.w3.org/2000/svg"><path d="m61.984 62h-59.968s5.183-26.459 11.039-30.607c5.06-3.582 33.354-3.873 37.889 0 5.489 4.687 11.04 30.607 11.04 30.607z" fill="#006dae"/><path d="m54.641 62h-45.266s-.561-21.463 4.738-25.09c7.33-5.021 28.963-5.662 35.791 0 4.93 4.088 4.737 25.09 4.737 25.09z" fill="#014d87"/><path d="m60.065 42.789c-1.036-5.051-4.404-7.232-7.801-9.01-1.271-2.615-4.086-3.811-7.283-4.111l-12.981-6.004-12.981 6.004c-3.197.301-6.013 1.496-7.283 4.111-3.396 1.777-6.765 3.959-7.801 9.01-7.943 7.258 11.141 16.529 11.141 16.529 4.931-1.219 2.034-4.535 2.034-4.535-3.35-2.004-2.12-5.596-6.151-7.832 2.591.545 4.807-3.908 4.807-3.908 1.843 11.42 6.477 6.287 5.872 16.445h20.727c-.604-10.158 4.029-5.025 5.872-16.445 0 0 2.216 4.453 4.807 3.908-4.031 2.236-2.802 5.828-6.151 7.832 0 0-2.896 3.316 2.034 4.535-.002 0 19.082-9.271 11.138-16.529z" fill="#e81c27"/><g fill="#ad1413"><path d="m42.67 56.395c-3.773 3.775-17.568 3.773-21.342 0l-.584 5.605h22.512z"/><path d="m12.777 38.477c-3.648.84-4.663 4.348-4.188 6.25.929-3.059 2.039-4.807 4.188-6.25z"/><path d="m16.355 38.986c1.506 5.74 7.637 7.299 10.947 6.525-5.342-1.423-8.406-3.156-10.947-6.525z"/><path d="m51.221 38.477c3.65.84 4.663 4.348 4.188 6.25-.929-3.059-2.039-4.807-4.188-6.25z"/><path d="m47.643 38.986c-1.506 5.74-7.637 7.299-10.948 6.525 5.345-1.423 8.409-3.156 10.948-6.525z"/><path d="m32 33.578c-1.853-2.35-8.438-3.096-10.592-2.615 3.957.506 8.677 1.969 10.592 4.754 1.915-2.785 6.635-4.248 10.592-4.754-2.157-.481-8.741.266-10.592 2.615z"/></g><path d="m46.891 54.783c-2.229.373-2.654-.961-4.146-.473 0 0-.479.338-.575 1.418-.094 1.029-.713 1.822-2.878 3.094-1.426.836-.239 2.604 1.073 2.02.728 1.166 2.573 1.158 2.891 1.158 1.46 0 4.021-1.859 5.669-2.682-2.029-2.392-2.034-4.535-2.034-4.535z" fill="#b88a6f"/><path d="m17.109 54.783c2.229.373 2.654-.961 4.146-.473 0 0 .479.338.575 1.418.094 1.029.713 1.822 2.878 3.094 1.426.836.239 2.604-1.073 2.02-.728 1.166-2.572 1.158-2.891 1.158-1.46 0-4.021-1.859-5.669-2.682 2.029-2.392 2.034-4.535 2.034-4.535z" fill="#b88a6f"/><path d="m41.558 32.125c-3.668-2.508-3.054-5.617-3.054-5.617s2.8-.441 4.449 1.223c0 0 3.305-.23 3.943 1.236 3.059-.129 4.439 1.807 3.811 2.783-3.35-1.607-7.35 1.172-9.149.375z" fill="#006dae"/><path d="m50.707 31.75c-.637-2.457-8.025.795-9.665.006 2.083 2.099 5.847-.82 9.665-.006z" fill="#014d87"/><path d="m46.896 28.967c-2.239.033-3.568 1.33-3.521 1.16.277-.918 2.711-1.361 1.46-2.299 0 0 1.909.219 2.061 1.139z" fill="#014d87"/><path d="m42.953 27.73c-1.769.641-1.819 1.98-1.858 1.805-.205-.996.938-2.27.125-2.814 0 0 1.423.388 1.733 1.009z" fill="#014d87"/><path d="m39.061 31.615c-.525 1.844 4.635 3.025 5.159 1.182.49-1.711-4.669-2.889-5.159-1.182z" fill="#0fb4d4"/><path d="m22.44 32.125c3.668-2.508 3.055-5.617 3.055-5.617s-2.801-.441-4.45 1.223c0 0-3.303-.23-3.943 1.236-3.059-.129-4.438 1.807-3.809 2.783 3.35-1.607 7.35 1.172 9.147.375z" fill="#006dae"/><path d="m13.293 31.75c.635-2.457 8.025.795 9.663.006-2.083 2.099-5.847-.82-9.663-.006z" fill="#014d87"/><path d="m17.102 28.967c2.241.033 3.57 1.33 3.523 1.16-.277-.918-2.711-1.361-1.46-2.299 0 0-1.909.219-2.063 1.139z" fill="#014d87"/><path d="m21.045 27.73c1.771.641 1.821 1.98 1.86 1.805.205-.996-.938-2.27-.125-2.814 0 0-1.423.388-1.735 1.009z" fill="#014d87"/><path d="m24.938 31.615c.527 1.844-4.633 3.025-5.157 1.182-.493-1.711 4.666-2.889 5.157-1.182z" fill="#0fb4d4"/><path d="m37.304 35.359c-2.961-.48-7.648-.48-10.609 0-.674 2.775-6.688 3.793-6.688 3.793l11.993 11.848 11.994-11.848s-6.016-1.017-6.69-3.793z" fill="#ffe12c"/><path d="m38.188 37.123-2.589 2.57h-5.833c-.471 0-.706.105-.706.322 0 .213.235.322.706.322h3.527c2.82 0 4.233.963 4.233 2.891 0 1.93-1.413 2.895-4.233 2.895h-4.832l-2.588-2.574h7.42c.472 0 .706-.105.706-.32 0-.217-.234-.322-.706-.322h-3.527c-2.819 0-4.233-.963-4.233-2.891 0-1.93 1.414-2.893 4.233-2.893z" fill="#d47706"/><path d="m26.998 27.285c0 5.156 10 5.156 10 0v-5.344h-10z" fill="#946346"/><path d="m21.117 13.93c-3.636-.656-.796 9.52 2.052 6.715 1.32-1.301-.352-6.407-2.052-6.715z" fill="#946346"/><path d="m42.88 13.93c-1.703.309-3.371 5.414-2.047 6.715 2.848 2.804 5.688-7.372 2.047-6.715z" fill="#946346"/><path d="m31.998 2c-7.521 0-11.15 5.691-10.691 13.609.09 1.594 1.073 6.785 2.007 8.648.957 1.906 4.145 4.848 6.103 5.453 1.232.387 3.937.387 5.171 0 1.954-.605 5.145-3.547 6.099-5.453.934-1.863 1.917-7.055 2.012-8.648.45-7.918-3.174-13.609-10.701-13.609z" fill="#b88a6f"/><path d="m31.998 23.551c-1.691-.5-4.201.234-4.201.234.959 1.039 1.657 2.391 4.201 2.391 2.918 0 3.413-1.531 4.198-2.391 0 0-2.507-.738-4.198-.234z" fill="#80553c"/><path d="m28.438 23.961c1.778 1.488 5.359 1.496 7.146 0-1.895.082-5.239.082-7.146 0z" fill="#fff"/><path d="m34.334 20.75c0 1.52-4.666 1.52-4.666 0 0-.348 4.666-.348 4.666 0z" fill="#946346"/><path d="m31.998 2c-5.173 0-8.302 1.709-9.649 1.053 0 0-.148.885.384 1.457 0 0-.56.482-1.462-.33-.859 2.785 1.691 4.398 10.728 4.398 9.043 0 6.883-2.199 11.327 1.664-.437-4.765-3.465-8.242-11.328-8.242z" fill="#875b49"/><path d="m35.826 6.156c-4.977 1.836-6.794-1.479-11.493-1.803 2.238 1.057 3.328 2.682 5.16 3.854-3.992-1.336-6.922-3.633-7.145-5.145 0 0-.663 2.203 1.969 3.852-2.519.234-3.047-2.727-3.047-2.727-1.273 2.049-1.099 8.66.32 13.563.234-1.75-.306-2.473.504-4.582 2.422-6.301.867-3.656 9.906-3.656 9.04 0 7.411-2.414 9.902 3.656.746 1.809.271 2.832.508 4.582 2.975-11.059-1.3-13.543-6.584-11.594z" fill="#6b4435"/><path d="m40.471 13.051c-1.72-.852-5.012-.895-6.239-.297-.262.113-.09.926.133.848 1.711-.633 4.465-.65 6.066.055.215.089.305-.485.04-.606z" fill="#80553c"/><path d="m23.523 13.051c1.725-.852 5.017-.895 6.243-.297.262.113.09.926-.133.848-1.711-.633-4.464-.65-6.07.055-.21.089-.295-.485-.04-.606z" fill="#80553c"/><path d="m32.018 14.111c-2.77.002-8.386-4.523-11.032.977 1.151 10.52 8.205 2.352 11.032 2.355 2.82.004 9.94 8.26 10.997-2.355-2.648-5.502-8.235-.979-10.997-.977z" fill="#006dae"/><path d="m40.056 16.223c-1.008 2.629-5.097 2.246-5.843.402.566-2.957 5.289-3.211 5.843-.402z" fill="#fff"/><path d="m23.945 16.223c1.002 2.629 5.095 2.246 5.846.402-.571-2.961-5.299-3.215-5.846-.402z" fill="#fff"/><path d="m35.255 15.941c0 2.309 3.34 2.309 3.34 0 0-2.144-3.34-2.144-3.34 0z" fill="#613f34"/><path d="m35.587 16.68c0 1.324 2.679 1.324 2.679 0 0-1.231-2.679-1.231-2.679 0z" fill="#7d5037"/><path d="m36.231 15.977c0 .957 1.388.957 1.388 0 0-.891-1.388-.891-1.388 0z" fill="#1a1626"/><path d="m35.76 15.695c0 .484.698.484.698 0 0-.449-.698-.449-.698 0z" fill="#ab968c"/><path d="m25.404 15.941c0 2.309 3.343 2.309 3.343 0 0-2.144-3.343-2.144-3.343 0z" fill="#613f34"/><path d="m25.735 16.68c0 1.324 2.68 1.324 2.68 0 0-1.231-2.68-1.231-2.68 0z" fill="#7d5037"/><path d="m26.38 15.977c0 .957 1.391.957 1.391 0 0-.891-1.391-.891-1.391 0z" fill="#1a1626"/><path d="m25.911 15.695c0 .484.699.484.699 0 0-.449-.699-.449-.699 0z" fill="#ab968c"/><path d="m40.056 16.199c0-2.824-5.843-2.824-5.843.449.836-2.683 5.007-2.683 5.843-.449z" fill="#014d87"/><path d="m23.945 16.199c0-2.824 5.846-2.824 5.846.449-.837-2.687-5.013-2.687-5.846-.449z" fill="#014d87"/></svg>