<svg enable-background="new 0 0 64 64" height="64" viewBox="0 0 64 64" width="64" xmlns="http://www.w3.org/2000/svg"><path d="m62 62.002h-60s7.186-26.027 13.045-30.105c5.063-3.523 29.371-3.811 33.908 0 5.492 4.609 13.047 30.105 13.047 30.105z" fill="#7ab51d"/><path d="m54.641 62.002h-45.266s1.439-21.465 6.738-25.092c7.33-5.02 24.963-5.662 31.791 0 4.93 4.088 6.737 25.092 6.737 25.092z" fill="#297124"/><path d="m59.893 45.98c-1.211-4.084-10.15-12.709-11.961-14.229l-15.939-5.086-15.938 5.086c-1.811 1.52-10.752 10.145-11.961 14.229-.838 2.824 3.574 6.721 12.127 13.34 3.973-1.219 1.895-4.535 1.895-4.535-3.119-2.004-5.1-5.43-7.863-8.492 1.221-.188 7.859-6.813 8.385-6.313 1.738 1.652 4.656 6.75 3.146 15.188.877 5.875 19.541 5.875 20.418 0-1.51-8.438 1.41-13.535 3.148-15.188.525-.5 7.164 6.125 8.383 6.313-2.762 3.063-4.742 6.488-7.863 8.492 0 0-2.078 3.316 1.895 4.535 8.553-6.619 12.964-10.515 12.128-13.34z" fill="#302c3b"/><path d="m41.938 56.396c-3.514 3.775-16.365 3.773-19.879 0l-.545 5.605h20.971z" fill="#1a1626"/><path d="m18.115 54.785c2.076.373 2.473-.961 3.863-.473 0 0 .445.338.535 1.418.088 1.029.664 1.822 2.682 3.094 1.328.836.223 2.604-1 2.02-.68 1.166-2.396 1.158-2.693 1.158-1.359 0-3.746-1.859-5.281-2.682 1.89-2.392 1.894-4.535 1.894-4.535z" fill="#916b50"/><path d="m45.869 54.785c-2.076.373-2.473-.961-3.861-.473 0 0-.447.338-.537 1.418-.086 1.029-.664 1.822-2.68 3.094-1.328.836-.223 2.604 1 2.02.678 1.166 2.396 1.158 2.693 1.158 1.359 0 3.746-1.859 5.279-2.682-1.888-2.392-1.894-4.535-1.894-4.535z" fill="#916b50"/><path d="m27.936 28.176c0 4.27 7.836 4.27 7.834 0 0-2.602.002-6.904.002-6.904h-7.836c0-.001 0 3.544 0 6.904z" fill="#664129"/><path d="m22.619 33.65c3.098-1.857 3.166-5.014 3.166-5.014s-1.973-.898-3.453.463c0 0-2.373-.773-3.086.563-2.215-.633-3.543 1.041-3.246 2.105 2.715-1.025 5.174 2.368 6.619 1.883z" fill="#7ab51d"/><g fill="#297124"><path d="m16 31.768c.873-2.311 5.729 2.109 7.057 1.605-1.869 1.717-4.135-1.775-7.057-1.605z"/><path d="m19.246 29.662c1.631.404 2.385 1.898 2.381 1.723-.051-.947-1.756-1.785-.686-2.5 0 0-1.429-.1-1.695.777z"/><path d="m22.332 29.1c1.186.922.998 2.248 1.059 2.082.314-.943-.309-2.385.375-2.785 0-.001-1.104.146-1.434.703z"/></g><path d="m24.527 33.563c.078 1.9-3.887 2.207-3.963.307-.076-1.763 3.891-2.067 3.963-.307z" fill="#d9e617"/><path d="m41.381 33.65c-3.098-1.857-3.166-5.014-3.166-5.014s1.973-.898 3.453.463c0 0 2.373-.773 3.086.563 2.213-.633 3.541 1.041 3.244 2.105-2.715-1.025-5.172 2.368-6.617 1.883z" fill="#7ab51d"/><path d="m47.998 31.768c-.871-2.311-5.729 2.109-7.057 1.605 1.872 1.717 4.135-1.775 7.057-1.605z" fill="#297124"/><path d="m44.754 29.662c-1.631.404-2.385 1.898-2.381 1.723.049-.947 1.754-1.785.684-2.5 0 0 1.431-.1 1.697.777z" fill="#297124"/><path d="m41.668 29.1c-1.186.922-1 2.248-1.059 2.082-.314-.943.307-2.385-.377-2.785 0-.001 1.106.146 1.436.703z" fill="#297124"/><path d="m39.473 33.563c-.08 1.9 3.885 2.207 3.961.307.076-1.763-3.889-2.067-3.961-.307z" fill="#d9e617"/><path d="m37.297 35.359c-2.961-.48-7.648-.48-10.609 0-.674 2.775-6.689 3.793-6.689 3.793l11.994 11.85 11.994-11.85c-.001 0-6.016-1.017-6.69-3.793z" fill="#7ab51d"/><path d="m29.842 47.738-4.98-9.115 3.262-1.867 3.871 7.063 3.871-7.063 3.258 1.867-4.979 9.115z" fill="#297124"/><path d="m22.654 14.74c-3.389-.646-.742 9.396 1.91 6.625 1.229-1.283-.326-6.32-1.91-6.625z" fill="#297124"/><path d="m41.055 14.74c-1.586.305-3.141 5.342-1.91 6.625 2.652 2.772 5.294-7.271 1.91-6.625z" fill="#297124"/><path d="m31.854 4c-6.771 0-10.035 5.516-9.627 12.607.084 1.426.48 3.482.969 5.244 1.018 3.662 6.377 7.35 8.658 7.35s7.641-3.688 8.656-7.35c.49-1.762.887-3.818.971-5.244.406-7.091-2.854-12.607-9.627-12.607z" fill="#916b50"/><path d="m31.854 4c-6.939 0-10.283 5.123-9.865 12.246.357 6.02 2.135 7.563 2.135 7.563-.445-4.254 5.846-6.568 7.73-6.568 1.883 0 8.176 2.314 7.73 6.568 0 0 1.77-1.525 2.135-7.563.418-7.123-2.926-12.246-9.865-12.246z" fill="#297124"/><path d="m31.869 14.9c-2.492.004-7.547-4.07-9.93.881 1.037 9.467 7.385 2.115 9.93 2.117 2.539.004 8.945 7.434 9.896-2.117-2.38-4.953-7.41-.883-9.896-.881z" fill="#302c3b"/><path d="m38.945 16.404c-.73 1.865-4.34 1.924-5.105.732.328-2.05 4.459-2.591 5.105-.732z" fill="#f5f5f5"/><path d="m24.764 16.404c.729 1.865 4.342 1.924 5.104.732-.327-2.05-4.456-2.591-5.104-.732z" fill="#f5f5f5"/><path d="m33.955 20.875c0 1.367-4.199 1.367-4.199 0 0-.312 4.199-.312 4.199 0z" fill="#664129"/><path d="m35.752 23.943c-.424-.682-1.461-1.139-3.896-1.139-2.438 0-3.473.457-3.898 1.139-.229.365.096.951.096.951.408.738.352.949 3.803.949 3.445 0 3.393-.211 3.801-.949-.002.001.322-.585.094-.951z" fill="#45332c"/><path d="m34.891 23.941c.02-.104-.033-.23-.115-.283 0 0-.742-.475-2.92-.475-2.18 0-2.922.475-2.922.475-.082.053-.135.18-.115.283l.037.197c.02.102.113.186.211.186h5.576c.096 0 .193-.084.211-.186z" fill="#fff"/><path d="m31.855 25.465c1.191 0 2.895 0 2.848-.391-.006-.068-.025-.152-.053-.242-.029-.1-.053-.127-.258-.127-.449 0-4.73 0-5.074 0-.207 0-.229.027-.26.127-.025.09-.045.174-.055.242-.044.391 1.659.391 2.852.391z" fill="#fff"/></svg>