<svg enable-background="new 0 0 64 64" height="64" viewBox="0 0 64 64" width="64" xmlns="http://www.w3.org/2000/svg"><path d="m62 62h-60s7.186-26.025 13.045-30.104c5.063-3.523 29.371-3.811 33.908 0 5.492 4.61 13.047 30.104 13.047 30.104z" fill="#7ab51d"/><path d="m54.641 62h-45.266s1.439-21.463 6.738-25.09c7.33-5.021 24.963-5.662 31.791 0 4.93 4.088 6.737 25.09 6.737 25.09z" fill="#297124"/><path d="m59.893 45.979c-1.21-4.083-10.149-12.709-11.96-14.229l-15.939-5.086-15.938 5.086c-1.81 1.52-10.751 10.146-11.961 14.229-.838 2.825 3.573 6.721 12.127 13.339 3.973-1.218 1.895-4.535 1.895-4.535-3.12-2.003-5.101-5.429-7.863-8.491 1.22-.188 7.858-6.813 8.384-6.313 1.738 1.652 4.657 6.75 3.147 15.188.877 5.875 19.541 5.875 20.418 0-1.51-8.438 1.409-13.535 3.147-15.188.526-.5 7.164 6.125 8.384 6.313-2.763 3.063-4.743 6.488-7.863 8.491 0 0-2.078 3.317 1.895 4.535 8.552-6.618 12.963-10.514 12.127-13.339z" fill="#302c3b"/><path d="m41.938 56.395c-3.515 3.775-16.365 3.774-19.88 0l-.543 5.605h20.97z" fill="#1a1626"/><path d="m18.116 54.783c2.076.374 2.473-.961 3.862-.473 0 0 .446.338.536 1.418.087 1.029.664 1.822 2.681 3.094 1.328.837.223 2.604-1 2.021-.678 1.166-2.396 1.157-2.693 1.157-1.359 0-3.746-1.859-5.28-2.682 1.889-2.391 1.894-4.535 1.894-4.535z" fill="#fdca47"/><path d="m45.87 54.783c-2.076.374-2.473-.961-3.862-.473 0 0-.446.338-.536 1.418-.087 1.029-.664 1.822-2.681 3.094-1.328.837-.223 2.604 1 2.021.679 1.166 2.397 1.157 2.693 1.157 1.359 0 3.746-1.859 5.28-2.682-1.888-2.391-1.894-4.535-1.894-4.535z" fill="#fdca47"/><path d="m27.937 28.176c0 4.269 7.835 4.269 7.834 0 0-2.603.001-6.905.001-6.905h-7.835z" fill="#e6a400"/><path d="m22.619 33.649c3.098-1.856 3.166-5.013 3.166-5.013s-1.973-.898-3.453.463c0 0-2.373-.773-3.086.562-2.214-.633-3.542 1.041-3.245 2.105 2.715-1.025 5.173 2.368 6.618 1.883z" fill="#7ab51d"/><g fill="#297124"><path d="m16.001 31.767c.872-2.31 5.729 2.109 7.057 1.605-1.87 1.718-4.135-1.774-7.057-1.605z"/><path d="m19.246 29.661c1.632.404 2.385 1.899 2.381 1.724-.05-.948-1.755-1.786-.685-2.501 0 0-1.43-.1-1.696.777z"/><path d="m22.332 29.1c1.186.922.999 2.248 1.059 2.082.314-.944-.308-2.385.376-2.786 0 0-1.105.146-1.435.704z"/></g><path d="m24.527 33.563c.079 1.899-3.886 2.206-3.962.307-.076-1.763 3.89-2.067 3.962-.307z" fill="#d9e617"/><path d="m41.381 33.649c-3.098-1.856-3.166-5.013-3.166-5.013s1.973-.898 3.453.463c0 0 2.373-.773 3.086.562 2.214-.633 3.542 1.041 3.245 2.105-2.715-1.025-5.173 2.368-6.618 1.883z" fill="#7ab51d"/><path d="m47.999 31.767c-.872-2.31-5.729 2.109-7.057 1.605 1.871 1.718 4.135-1.774 7.057-1.605z" fill="#297124"/><path d="m44.754 29.661c-1.631.404-2.385 1.899-2.381 1.724.05-.948 1.755-1.786.685-2.501 0 0 1.431-.1 1.696.777z" fill="#297124"/><path d="m41.668 29.1c-1.186.922-.999 2.248-1.059 2.082-.314-.944.308-2.385-.376-2.786 0 0 1.105.146 1.435.704z" fill="#297124"/><path d="m39.473 33.563c-.079 1.899 3.886 2.206 3.962.307.076-1.763-3.889-2.067-3.962-.307z" fill="#d9e617"/><path d="m37.297 35.359c-2.961-.48-7.648-.48-10.609 0-.674 2.775-6.688 3.793-6.688 3.793l11.993 11.848 11.994-11.848s-6.016-1.017-6.69-3.793z" fill="#7ab51d"/><path d="m29.843 47.737-4.98-9.115 3.262-1.867 3.871 7.063 3.871-7.063 3.258 1.867-4.979 9.115z" fill="#297124"/><path d="m22.654 14.74c-3.388-.647-.742 9.396 1.91 6.625 1.23-1.283-.326-6.321-1.91-6.625z" fill="#297124"/><path d="m41.055 14.74c-1.585.304-3.14 5.342-1.909 6.625 2.651 2.771 5.294-7.272 1.909-6.625z" fill="#297124"/><path d="m31.854 4c-6.771 0-10.034 5.516-9.626 12.606.083 1.426.479 3.482.969 5.244 1.017 3.662 6.376 7.35 8.657 7.35s7.642-3.688 8.657-7.35c.489-1.762.886-3.818.97-5.244.407-7.09-2.854-12.606-9.627-12.606z" fill="#fdca47"/><path d="m31.854 4c-6.939 0-10.283 5.123-9.865 12.246.356 6.02 2.134 7.562 2.134 7.562-.444-4.254 5.847-6.567 7.731-6.567 1.883 0 8.176 2.313 7.729 6.567 0 0 1.77-1.525 2.136-7.562.419-7.123-2.925-12.246-9.865-12.246z" fill="#297124"/><path d="m31.87 14.899c-2.492.004-7.548-4.07-9.93.881 1.037 9.468 7.385 2.115 9.93 2.118 2.538.004 8.945 7.434 9.896-2.118-2.381-4.953-7.411-.882-9.896-.881z" fill="#302c3b"/><path d="m38.945 16.404c-.729 1.864-4.34 1.923-5.104.732.327-2.05 4.458-2.591 5.104-.732z" fill="#f5f5f5"/><path d="m24.765 16.404c.729 1.864 4.341 1.923 5.104.732-.328-2.05-4.457-2.592-5.104-.732z" fill="#f5f5f5"/><path d="m33.955 20.875c0 1.367-4.199 1.367-4.199 0 0-.313 4.199-.313 4.199 0z" fill="#e6a400"/><path d="m35.753 23.943c-.425-.682-1.462-1.14-3.897-1.14-2.437 0-3.472.458-3.898 1.14-.229.365.097.95.097.95.408.738.351.95 3.803.95 3.445 0 3.393-.212 3.8-.95-.002.001.323-.584.095-.95z" fill="#45332c"/><path d="m34.892 23.941c.02-.104-.033-.23-.115-.284 0 0-.742-.474-2.921-.474-2.18 0-2.921.474-2.921.474-.082.054-.135.181-.116.284l.038.196c.02.103.113.187.21.187h5.576c.097 0 .193-.084.211-.187z" fill="#fff"/><path d="m31.855 25.464c1.192 0 2.895 0 2.849-.39-.007-.069-.026-.152-.053-.242-.03-.101-.053-.127-.259-.127-.448 0-4.73 0-5.074 0-.206 0-.229.026-.259.127-.025.09-.046.173-.055.242-.044.39 1.658.39 2.851.39z" fill="#fff"/></svg>