<svg enable-background="new 0 0 64 64" height="64" viewBox="0 0 64 64" width="64" xmlns="http://www.w3.org/2000/svg"><path d="m62 62h-60s5.186-26.459 11.045-30.605c5.063-3.582 33.371-3.875 37.908 0 5.492 4.687 11.047 30.605 11.047 30.605z" fill="#7ab51d"/><path d="m54.652 62h-45.289s-.561-21.463 4.74-25.09c7.334-5.02 28.979-5.662 35.811 0 4.932 4.088 4.738 25.09 4.738 25.09z" fill="#297124"/><path d="m60.08 42.791c-1.037-5.051-4.406-7.232-7.805-9.01-1.271-2.617-4.088-3.811-7.287-4.113l-12.988-6.002-12.988 6.002c-3.199.303-6.016 1.496-7.287 4.113-3.398 1.777-6.768 3.959-7.805 9.01-7.947 7.256 11.146 16.527 11.146 16.527 4.934-1.217 2.035-4.535 2.035-4.535-3.352-2.002-2.121-5.594-6.154-7.832 2.592.545 4.809-3.906 4.809-3.906 1.844 11.42 6.48 6.287 5.875 16.445h20.738c-.605-10.158 4.031-5.025 5.875-16.445 0 0 2.217 4.451 4.809 3.906-4.033 2.238-2.803 5.83-6.154 7.832 0 0-2.898 3.318 2.035 4.535 0 0 19.093-9.271 11.146-16.527z" fill="#302c3b"/><g fill="#1a1626"><path d="m42.676 56.395c-3.773 3.775-17.578 3.775-21.354 0l-.584 5.605h22.523z"/><path d="m12.768 38.479c-3.65.84-4.666 4.348-4.191 6.248.929-3.057 2.04-4.805 4.191-6.248z"/><path d="m16.348 38.988c1.506 5.74 7.641 7.297 10.953 6.525-5.346-1.425-8.412-3.156-10.953-6.525z"/><path d="m51.23 38.479c3.652.84 4.666 4.348 4.191 6.248-.929-3.057-2.04-4.805-4.191-6.248z"/><path d="m47.65 38.988c-1.506 5.74-7.641 7.297-10.953 6.525 5.348-1.425 8.414-3.156 10.953-6.525z"/><path d="m32 33.58c-1.854-2.35-8.441-3.096-10.598-2.617 3.959.508 8.682 1.971 10.598 4.754 1.916-2.783 6.639-4.246 10.598-4.754-2.159-.479-8.746.267-10.598 2.617z"/></g><path d="m46.898 54.783c-2.229.375-2.654-.961-4.148-.473 0 0-.477.338-.576 1.418-.092 1.029-.711 1.822-2.879 3.094-1.426.838-.238 2.605 1.074 2.021.729 1.167 2.574 1.157 2.893 1.157 1.461 0 4.023-1.859 5.672-2.682-2.03-2.39-2.036-4.535-2.036-4.535z" fill="#e3c19b"/><path d="m17.102 54.783c2.23.375 2.656-.961 4.15-.473 0 0 .477.338.574 1.418.094 1.029.713 1.822 2.879 3.094 1.428.838.24 2.605-1.072 2.021-.729 1.167-2.574 1.157-2.895 1.157-1.459 0-4.021-1.859-5.672-2.682 2.03-2.39 2.036-4.535 2.036-4.535z" fill="#e3c19b"/><path d="m41.563 32.125c-3.67-2.508-3.055-5.615-3.055-5.615s2.801-.443 4.451 1.221c0 0 3.307-.229 3.945 1.236 3.061-.129 4.441 1.809 3.813 2.785-3.352-1.609-7.354 1.17-9.154.373z" fill="#7ab51d"/><path d="m50.717 31.752c-.637-2.457-8.029.793-9.67.006 2.084 2.097 5.849-.82 9.67-.006z" fill="#297124"/><path d="m46.904 28.967c-2.24.033-3.57 1.332-3.523 1.16.277-.918 2.713-1.361 1.461-2.299 0 0 1.91.221 2.062 1.139z" fill="#297124"/><path d="m42.959 27.73c-1.77.641-1.82 1.98-1.859 1.805-.205-.996.938-2.268.125-2.814 0 0 1.423.39 1.734 1.009z" fill="#297124"/><path d="m39.064 31.617c-.525 1.844 4.637 3.025 5.162 1.18.491-1.709-4.671-2.889-5.162-1.18z" fill="#d9e617"/><path d="m22.436 32.125c3.67-2.508 3.057-5.615 3.057-5.615s-2.803-.443-4.453 1.221c0 0-3.305-.229-3.945 1.236-3.061-.129-4.439 1.809-3.811 2.785 3.351-1.609 7.353 1.17 9.152.373z" fill="#7ab51d"/><path d="m13.283 31.752c.635-2.457 8.029.793 9.668.006-2.084 2.097-5.849-.82-9.668-.006z" fill="#297124"/><path d="m17.094 28.967c2.242.033 3.572 1.332 3.525 1.16-.277-.918-2.713-1.361-1.461-2.299 0 0-1.91.221-2.064 1.139z" fill="#297124"/><path d="m21.039 27.73c1.771.641 1.822 1.98 1.861 1.805.205-.996-.938-2.268-.125-2.814 0 0-1.423.39-1.736 1.009z" fill="#297124"/><path d="m24.934 31.617c.527 1.844-4.635 3.025-5.16 1.18-.493-1.709 4.669-2.889 5.16-1.18z" fill="#d9e617"/><path d="m37.307 35.361c-2.963-.48-7.652-.48-10.615 0-.674 2.774-6.692 3.793-6.692 3.793l12 11.846 12-11.846s-6.02-1.019-6.693-3.793z" fill="#7ab51d"/><path d="m29.848 47.738-4.98-9.115 3.262-1.867 3.87 7.062 3.871-7.063 3.258 1.867-4.979 9.115h-4.302z" fill="#297124"/><path d="m21.777 13.934c-3.764-.719-.824 10.439 2.123 7.361 1.366-1.426-.363-7.024-2.123-7.361z" fill="#297124"/><path d="m42.223 13.934c-1.762.338-3.488 5.936-2.121 7.361 2.945 3.078 5.882-8.08 2.121-7.361z" fill="#297124"/><path d="m32 2.002c-7.523 0-11.148 5.691-10.695 13.607.092 1.592 1.078 6.787 2.01 8.648.955 1.906 4.145 4.846 6.1 5.455 1.234.383 3.938.383 5.172 0 1.955-.609 5.146-3.549 6.1-5.455.932-1.861 1.918-7.057 2.01-8.648.453-7.916-3.172-13.607-10.697-13.607z" fill="#e3c19b"/><path d="m32 2c-7.711 0-11.426 5.691-10.961 13.607.094 1.592 1.205 6.537 2.158 8.4-.494-4.727 6.709-7.297 8.803-7.297 2.092 0 9.297 2.57 8.801 7.297.955-1.863 2.064-6.809 2.16-8.4.465-7.916-3.25-13.607-10.961-13.607z" fill="#297124"/><path d="m32.018 14.111c-2.77.004-8.387-4.523-11.033.979 1.152 10.52 8.205 2.35 11.033 2.354 2.82.004 9.939 8.26 10.996-2.354-2.647-5.504-8.235-.981-10.996-.979z" fill="#302c3b"/><path d="m39.879 15.783c-.811 2.07-4.822 2.137-5.672.813.363-2.278 4.953-2.879 5.672-.813z" fill="#f5f5f5"/><path d="m24.121 15.783c.811 2.07 4.824 2.137 5.672.813-.363-2.278-4.951-2.881-5.672-.813z" fill="#f5f5f5"/><path d="m34.334 20.75c0 1.52-4.666 1.52-4.666 0 0-.348 4.666-.348 4.666 0z" fill="#bf8c6b"/><path d="m36.332 24.16c-.473-.758-1.625-1.268-4.332-1.268s-3.857.51-4.332 1.268c-.252.404.109 1.055.109 1.055.453.82.389 1.057 4.225 1.057 3.828 0 3.77-.236 4.223-1.057 0 0 .361-.651.107-1.055z" fill="#45332c"/><path d="m35.375 24.156c.021-.113-.037-.256-.129-.314 0 0-.824-.527-3.246-.527s-3.244.527-3.244.527c-.092.059-.15.201-.129.314l.041.219c.021.113.127.207.234.207h6.195c.107 0 .215-.094.234-.207z" fill="#fff"/><path d="m32 25.85c1.326 0 3.217 0 3.166-.434-.008-.078-.029-.17-.059-.27-.033-.111-.059-.141-.287-.141-.498 0-5.256 0-5.639 0-.229 0-.254.029-.287.141-.029.1-.051.191-.061.27-.05.434 1.841.434 3.167.434z" fill="#fff"/></svg>