<svg enable-background="new 0 0 64 64" height="64" viewBox="0 0 64 64" width="64" xmlns="http://www.w3.org/2000/svg"><path d="m38.527 19.994c-.623 13.959-.248 11.861-13.563 20.249-4.179 2.635-5.237 5.215-8.51 6.146-4.489 1.275-5.168-.717-10.231.68-1.196.33-5.638-1.08-3.29 4.098-.463 1.063-.744 3.059 1.924 3.799-.097 1.129 1.221 2.541 2.847 2.104.539.867 2.129 1.803 3.015 1.328.275 1.555 1.842 2.828 4.822 1.197 10.535 6.291 18.696-4.236 26.78-4.795 6.199-.428 25.308 5.277 17.061-16.68-1.775-4.732-.322-8.749 1.237-14.653 2.997-11.339-21.691-12.487-22.092-3.473z" fill="#fcd5b2"/><path d="m60.378 41.076c4.457 15.723-10.075 11.586-19.87 13.867-12 2.793-18.282 9.254-24.725 4.07-2.6 2.311-5.944-1.043-3.555-2.156.525-3.238 5.499-2.826 5.58-4.482-.951 1.178-5.256.637-5.922 3.984-1.075-.121-1.553.867-1.553.867-1.355.338-3.723-1.826-1.169-2.443.522-3.238 6.319-2.957 6.399-4.611-.951 1.174-5.991.809-6.657 4.154-.167-.004-1.489.232-1.741 1.33-1.196-.102-3.016-2.039-.375-2.295.6-2.852 4.441-3.533 6.691-4.061-2.554.086-6.352.459-7.095 3.412-1.575.338-1.544 1.088-1.544 1.088-1.092-.5-2.633-3.586.004-3.158 1.338-1.896 4.76-2.697 7.055-2.76-1.867-.703-6.131.541-7.354 2.014-2.129.688-2.389-1.023-2.074-2.008-.965 1.414-.205 3.119.07 3.398-.498 2.42.801 3.912 2.077 3.971.046 1.311 1.534 2.709 2.89 2.143 0 0 .65 2.145 2.814 1.633.466 1.039 1.804 2.791 5.197.889 8.211 5.65 15.443-1.816 25.307-3.646 7.428-1.38 26.88 3.197 19.55-15.2z" fill="#dba97f"/><path d="m51.105 42.109c2.607-1.393 3.027-6.682-.506-13.518-.273 2.287 1.96 9.35.506 13.518z" fill="#dba97f"/><g fill="#ffecdb"><path d="m5.662 47.156c-2.874-.533-3.271.438-3.271.438s-.694 2.797 2.229 1.539c1.792-.77 1.042-1.977 1.042-1.977z"/><path d="m5.177 50.393c-1.924-.02-1.994.834-1.994.834s.084 2.396 1.704.939c.993-.891.29-1.773.29-1.773z"/><path d="m6.888 53.225c-1.682.23-1.667.934-1.667.934s.286 1.934 1.571.545c.788-.852.096-1.479.096-1.479z"/><path d="m9.277 54.631c-1.656.371-1.583 1.068-1.583 1.068s.447 1.904 1.611.412c.714-.914-.028-1.48-.028-1.48z"/><path d="m12.464 56.545c-1.577.627-1.396 1.305-1.396 1.305s.739 1.811 1.655.154c.564-1.016-.259-1.459-.259-1.459z"/></g></svg>