<svg enable-background="new 0 0 64 64" height="64" viewBox="0 0 64 64" width="64" xmlns="http://www.w3.org/2000/svg"><path d="m22.232 22.072c7.651-.299 6.745-9.184 0-9.783z" fill="#f9b700"/><path d="m2 29.857 59.993-11.779v33.74l-59.993 10.182v-9.683c6.24 0 6.745-12.378 0-12.378z" fill="#f9b700"/><path d="m2 29.857c0-.898 14.395-12.177 14.395-12.177 5.437 3.094 10.973-1.497 5.838-5.391l5.135-4.092c2.113 0 19.226-2.496 34.023 10.281 0 .1-59.391 12.278-59.391 11.379z" fill="#ffe12c"/><path d="m61.993 18.079c-.502-.499-9.563-7.885-23.05-9.483 9.36 2.496 21.642 7.188 20.03 9.683-.401.699-16.609 3.694-16.609 4.193 1.41-.101 20.033-2.796 19.629-4.393z" fill="#f59e01"/><path d="m42.466 13.387c-3.522-5.39-12.582-2.496-11.777 2.396z" fill="#f9b700"/><path d="m42.466 13.387c-2.919-1.997-9.764-2.096-11.777 2.396 1.308 5.59 13.287 2.695 11.777-2.396z" fill="#d99025"/><path d="m19.112 41.637c4.328 8.086 13.388 2.694 11.878-4.891z" fill="#ffe12c"/><path d="m19.112 41.637c3.222 2.895 10.368 2.396 11.878-4.891-2.012-8.785-14.092-2.995-11.878 4.891z" fill="#d47706"/><path d="m45.888 36.246c5.234 7.887 14.195 2.096 11.98-5.49z" fill="#ffe12c"/><path d="m45.888 36.246c3.625 2.695 10.974 1.897 11.98-5.49-3.021-8.684-15-2.296-11.98 5.49z" fill="#d47706"/><path d="m47.095 46.428c.807 7.886-7.851 9.283-10.366 3.295z" fill="#ffe12c"/><path d="m47.095 46.428c-.904 3.793-5.938 7.387-10.366 3.295-2.618-7.088 8.253-9.883 10.366-3.295z" fill="#d47706"/><path d="m19.414 50.721c1.712 5.09-3.725 7.486-6.24 4.092z" fill="#ffe12c"/><path d="m19.414 50.721c0 2.595-2.718 5.89-6.24 4.092-2.919-4.192 3.825-8.085 6.24-4.092z" fill="#d47706"/><path d="m21.227 22.471c-2.315-3.095-7.952-1.398-7.349 1.397z" fill="#f9b700"/><path d="m21.227 22.471c-1.813-1.198-6.141-1.198-7.349 1.397.906 3.295 8.354 1.598 7.349-1.397z" fill="#d99025"/></svg>