<svg enable-background="new 0 0 64 64" height="64" viewBox="0 0 64 64" width="64" xmlns="http://www.w3.org/2000/svg" xmlns:xlink="http://www.w3.org/1999/xlink"><linearGradient id="a" gradientUnits="userSpaceOnUse" x1="35.001" x2="35.001" y1="58.5918" y2="21.272"><stop offset="0" stop-color="#d8dde0"/><stop offset=".8182" stop-color="#fff"/></linearGradient><linearGradient id="b" gradientUnits="userSpaceOnUse" x1="34.9922" x2="34.9922" y1="30.9634" y2="24.0898"><stop offset=".2788" stop-color="#1a1626" stop-opacity="0"/><stop offset="1" stop-color="#1a1626" stop-opacity=".8"/></linearGradient><radialGradient id="c" cx="6.0488" cy="41.8604" gradientUnits="userSpaceOnUse" r="5.3779"><stop offset=".2303" stop-color="#a2ff00"/><stop offset=".432" stop-color="#9ffd02"/><stop offset=".563" stop-color="#97f608"/><stop offset=".674" stop-color="#88e911"/><stop offset=".7737" stop-color="#73d81f"/><stop offset=".8659" stop-color="#57c231"/><stop offset=".9514" stop-color="#36a647"/><stop offset="1" stop-color="#209456"/></radialGradient><radialGradient id="d" cx="562.1611" cy="63.7666" gradientTransform="matrix(.3583 .4654 -.7152 .5506 -151.4179 -257.4933)" gradientUnits="userSpaceOnUse" r="7.5737"><stop offset="0" stop-color="#fff"/><stop offset="1" stop-color="#fff" stop-opacity="0"/></radialGradient><linearGradient id="e"><stop offset=".2545" stop-color="#916958"/><stop offset=".4316" stop-color="#8d6655"/><stop offset=".6087" stop-color="#815c4c"/><stop offset=".7858" stop-color="#6d4c3e"/><stop offset=".9621" stop-color="#513529"/><stop offset="1" stop-color="#4a2f24"/></linearGradient><linearGradient id="f" gradientUnits="userSpaceOnUse" x1="5.4658" x2="14.0723" xlink:href="#e" y1="53.0088" y2="53.0088"/><linearGradient id="g" gradientUnits="userSpaceOnUse" x1="3.3364" x2="13.2783" xlink:href="#e" y1="46" y2="46"/><path d="m62 27.281c0 3.252-5.424 2.719-27 2.719s-27 .533-27-2.719c0-3.256 54-3.256 54 0z" fill="#014d87"/><path d="m10 62h50c0-25.572-50-25.572-50 0z" fill="#006dae"/><path d="m13.744 40.482c1.096 13.418 19.596 12.618 19.574 21.518h3.365c-.023-8.9 18.477-8.1 19.574-21.518-11.333-6.06-31.491-5.894-42.513 0z" fill="#014d87"/><path d="m29.406 59.637c0 1.334-2 1.334-2 0s2-1.334 2 0z" fill="#f59e01"/><path d="m42.594 59.637c0 1.334-2 1.334-2 0s2-1.334 2 0z" fill="#f59e01"/><path d="m41.877 60.135c-4.512 1.158-9.242 1.158-13.754 0 .098-.379.195-.76.293-1.141 4.32 1.109 8.848 1.109 13.168 0 .098.381.195.762.293 1.141z" fill="#f9b700"/><path d="m49.684 26.096c-2.297.416-4.549 7.303-2.77 9.057 3.846 3.785 7.676-9.942 2.77-9.057z" fill="#d6a67a"/><path d="m20.32 26.096c-4.91-.885-1.076 12.842 2.768 9.057 1.779-1.755-.473-8.641-2.768-9.057z" fill="#d6a67a"/><path d="m35 10c-10.15 0-15.041 7.68-14.43 18.359.123 2.15 1.455 9.156 2.711 11.672 1.287 2.57 5.592 6.537 8.23 7.357 1.666.518 5.313.518 6.979 0 2.639-.82 6.943-4.787 8.23-7.357 1.258-2.516 2.59-9.521 2.711-11.672.614-10.679-4.279-18.359-14.431-18.359z" fill="#e3c19b"/><path d="m45.869 29.186c-1.355 3.551-6.875 3.029-7.887.545.768-3.993 7.141-4.333 7.887-.545z" fill="#fff"/><path d="m24.131 29.186c1.355 3.551 6.877 3.029 7.889.545-.77-3.993-7.141-4.335-7.889-.545z" fill="#fff"/><path d="m46.432 25.588c-2.322-1.637-6.764-1.719-8.418-.578-.355.223-.123 1.775.178 1.627 2.307-1.215 6.027-1.242 8.188.105.284.174.405-.924.052-1.154z" fill="#e6ebef"/><path d="m23.568 25.588c2.322-1.637 6.764-1.719 8.42-.578.354.223.121 1.775-.178 1.627-2.311-1.215-6.027-1.242-8.186.105-.288.174-.405-.924-.056-1.154z" fill="#e6ebef"/><path d="m39.391 28.807c0 3.117 4.508 3.117 4.508 0-.001-2.893-4.508-2.893-4.508 0z" fill="#613f34"/><path d="m39.838 29.805c0 1.785 3.615 1.785 3.615 0 0-1.659-3.615-1.659-3.615 0z" fill="#7d5037"/><path d="m40.709 28.855c0 1.295 1.871 1.295 1.871 0 0-1.199-1.871-1.199-1.871 0z" fill="#1a1626"/><path d="m40.072 28.479c0 .652.945.652.945 0 .001-.608-.945-.608-.945 0z" fill="#ab968c"/><path d="m26.104 28.807c0 3.117 4.508 3.117 4.508 0-.001-2.893-4.508-2.893-4.508 0z" fill="#613f34"/><path d="m26.549 29.805c0 1.785 3.617 1.785 3.617 0-.002-1.66-3.617-1.66-3.617 0z" fill="#7d5037"/><path d="m27.422 28.855c0 1.295 1.871 1.295 1.871 0 0-1.199-1.871-1.199-1.871 0z" fill="#1a1626"/><path d="m26.783 28.477c0 .654.943.654.943 0 .001-.606-.943-.606-.943 0z" fill="#ab968c"/><g fill="#d6a67a"><path d="m45.869 29.16c0-3.814-7.887-3.814-7.887.604 1.127-3.625 6.762-3.625 7.887-.604z"/><path d="m24.131 29.16c0-3.814 7.889-3.814 7.889.602-1.127-3.625-6.762-3.625-7.889-.602z"/><path d="m38.148 35.297c0 2.049-6.295 2.049-6.295 0 .001-.469 6.295-.469 6.295 0z"/></g><path d="m48.873 21.271v.002c.275 9.521-.715 15.086-4.707 18.139-.883-1.957-3.146-3.26-9.164-2.287-6.02-.973-8.283.332-9.166 2.287-4.064-3.084-5.037-8.555-4.715-18.139h-1.129c.258 10.609-.02 19.365.74 21.914 2.719 9.096 14.268 15.405 14.268 15.405s11.551-6.309 14.268-15.406c.76-2.547.482-11.305.742-21.914h-1.137z" fill="url(#a)"/><path d="m37.732 40.822c-1.709.229-2.73-.66-2.73-.66s-1.021.889-2.734.66c-.777-.104-1.395-.055-1.896.104 2.518 2.234 6.754 2.248 9.27.002-.507-.16-1.126-.209-1.91-.106z" fill="#45332c"/><path d="m60.391 28.141c-13.846 2.795-37.912 4.621-50.797.004 8.885-4.407 36.679-6.321 50.797-.004z" fill="url(#b)"/><path d="m62 27.281c0 3.252-5.424-2.281-27-2.281-21.574 0-27 5.533-27 2.281 0-11.256 54-11.256 54 0z" fill="#006dae"/><path d="m46.627 15.488c.164-3.02-5.205-5.309-4.373-8.465.402-1.527 2.871-2.553 1.74-5.023-1.869 3.305-11.16 0-15.801 5.828-3.713 2.186-11.515 11.822-8.154 15.182 7.066-1.203 21.148-1.686 29.934 0 3.291-3.291-2.16-6.998-3.346-7.522z" fill="#006dae"/><path d="m43.994 2c1.334 3.121-4.213 3.961-4.516 7.922 1.396-2.223 2.99-.629 2.746-1.678-.599-2.67 3.12-3.248 1.77-6.244z" fill="#013366" opacity=".2"/><path d="m45.055 12.27s-9.701 0-19.742 5.949c6.965-2.145 16.574-3.945 21.314-2.729.279-1.369-1.572-3.22-1.572-3.22z" fill="#013366" opacity=".2"/><path d="m47.688 18.219s-3.441.762-13 2.855c7.781-4.094 13-2.855 13-2.855z" fill="#013366" opacity=".2"/><circle cx="7.5" cy="43.5" fill="url(#c)" r="5.5"/><path d="m7.336 43.158c-1.545 1.191-3.426 1.34-4.199.334-.775-1.006-.15-2.785 1.395-3.977 1.547-1.189 3.428-1.34 4.203-.334.775 1.008.148 2.79-1.399 3.977z" fill="url(#d)"/><path d="m12.422 44.018s2.566 3.436 1.164 5.102c-1.93 2.286.486 12.88.486 12.88h-2.609s-.848-8.141-5.818-13.039c-1.495-1.471 6.871-.342 6.777-4.943z" fill="url(#f)"/><path d="m12.543 41.635c1.115.123 1.432 6.568-2.514 8.551-1.668.838-7.137-1.363-6.664-3.17.381-1.442 4.653.984 5.961.267 1.424-.783 1.6-5.822 3.217-5.648z" fill="url(#g)"/></svg>