<svg enable-background="new 0 0 64 64" height="64" viewBox="0 0 64 64" width="64" xmlns="http://www.w3.org/2000/svg" xmlns:xlink="http://www.w3.org/1999/xlink"><linearGradient id="a"><stop offset="0" stop-color="#ffddd6"/><stop offset="1" stop-color="#00a4c9"/></linearGradient><linearGradient id="b" gradientTransform="matrix(1 -.0013 .0013 1 1.1892 .8938)" gradientUnits="userSpaceOnUse" x1="21.4512" x2="49.7422" xlink:href="#a" y1="28.4336" y2="28.4336"/><linearGradient id="c" gradientTransform="matrix(1 -.0013 .0013 1 1.1892 .8938)" gradientUnits="userSpaceOnUse" x1="20.0562" x2="38.0166" xlink:href="#a" y1="11.4395" y2="11.4395"/><linearGradient id="d" gradientTransform="matrix(1 -.0013 .0013 1 1.1892 .8938)" gradientUnits="userSpaceOnUse" x1="22.3994" x2="58.3525" xlink:href="#a" y1="16.6211" y2="16.6211"/><linearGradient id="e" gradientTransform="matrix(1 -.0013 .0013 1 1.1892 .8938)" gradientUnits="userSpaceOnUse" x1="29.3662" x2="54.165" xlink:href="#a" y1="17.2148" y2="17.2148"/><linearGradient id="f" gradientTransform="matrix(1 -.0013 .0013 1 1.1892 .8938)" gradientUnits="userSpaceOnUse" x1="12.6626" x2="12.6626" y1="52.1006" y2="26.7168"><stop offset=".103" stop-color="#0cc"/><stop offset=".2127" stop-color="#00b3b8"/><stop offset=".4797" stop-color="#007b8d"/><stop offset=".7095" stop-color="#00526d"/><stop offset=".8904" stop-color="#003959"/><stop offset="1" stop-color="#003052"/></linearGradient><linearGradient id="g" gradientTransform="matrix(1 -.0013 .0013 1 1.1892 .8938)" gradientUnits="userSpaceOnUse" x1="12.061" x2="52.9229" y1="49.6973" y2="49.6973"><stop offset="0" stop-color="#0cc"/><stop offset="1" stop-color="#007ca6"/></linearGradient><linearGradient id="h" gradientTransform="matrix(1 -.0013 .0013 1 1.1892 .8938)" gradientUnits="userSpaceOnUse" x1="39.2822" x2="53.5137" xlink:href="#a" y1="8.3779" y2="8.3779"/><linearGradient id="i" gradientTransform="matrix(1 -.0013 .0013 1 1.1892 .8938)" gradientUnits="userSpaceOnUse" x1="52.4707" x2="57.3242" xlink:href="#a" y1="11.5488" y2="11.5488"/><linearGradient id="j" gradientTransform="matrix(1 -.0013 .0013 1 1.1892 .8938)" gradientUnits="userSpaceOnUse" x1="32.1865" x2="53.5137" xlink:href="#a" y1="9.1929" y2="9.1929"/><path d="m50.973 32.389c-9.633-3.103-13.422 2.012-28.303-8.586 11.008 14.029 18.371 11.749 28.303 8.586z" fill="url(#b)"/><path d="m39.215 8.203c-6.191 2.226-5.695 6.849-17.951 6.85 11.929 3.659 14.509-.793 17.951-6.85z" fill="url(#c)"/><path d="m58.793 9.227c-.906-3.189-3.334-5.186-4.086-4.801.49-.766-3.682-3.049-7.895-2.28-11.763 2.144-10.275 13.13-23.201 16.509 14.2 27.409 40.795 10.318 35.182-9.428z" fill="url(#d)"/><path d="m55.367 11.272c-8.709 4.43-7.404 10.285-24.781 13.143 17.041 2.13 20.103-4.211 24.781-13.143z" fill="url(#e)"/><path d="m56.906 26.795c1.168 4.101 1.17 6.363.961 7.283 1.059 2.156.357 4.278.713 6.188.092.506.6-.779.982-1.463 0 0 .498.789.109 1.638 0 0 1.516-1.063 1.83-2.159.566 1.873-1.617 3.255-1.336 3.715.506.818 1.84 1.375 1.838 2.648-2.15-1.977-2.891-.809-4.225-1.707-.887.053-1.453-.725-.82-2.211-.331-1.395-4.003-7.178-.052-13.932z" fill="#d6a67a"/><path d="m4.395 27.606c-8.031 22.226 6.393 19.089 9.883 25.371.285-6.227 18.625-5.574 8.463-22.784-.389 5.5-6.152 6.092-9.031 14.112-.657-9.214-8.468-8.548-9.315-16.699z" fill="url(#f)"/><path d="m53.482 39.064c1.746 2.225-.361 3.711-.85 7.346-2.855 21.307-34.506 18.225-38.924 6.01-.445-1.231-1.02-2.117 1.457-.863 6.646 3.359 19.131 3.525 23.531-6.488 3.937-8.958 8.181-4.811 14.786-6.005z" fill="url(#g)"/><path d="m54.904 23.143c-.723-.052-1.412-.783-3.082-.963-.809-1.016.252-3.281-1.74-3.629-3.734-.338-2.012 1.804-2.908 3.325-.723.042-1.379.142-1.957.3-3.363-1.453-4.889 2.408-5.094 3.281-2.186 2.74-3.82 6.114-4.779 6.565-4.016 1.887-6.051 8.022-7.195 8.602-1.193.059-2.854.18-3.74-.43.096.229.227.422.379.595-.918-.036-1.799-.181-2.398-.592.311.745.893 1.231 1.584 1.53-.725.017-1.582-.048-2.676-.232.941 1.871 5.998.857 5.771 1.955-.283 1.363-1.662 1.927-.887 3.205 1.039-2.249 3.551-2.601 3.766-4.602.209-1.92 6.65-5.06 8.037-7.662 2.545-1.667 4.896-4.55 5.906-6.019 2.213 6.54 6.742 7.923 2.68 11.107-1.949 1.528 3.469 9.307 3.988 8.066 1.934-4.621 5.672-6.709 5.654-11.871-.006-2.164 1.383-3.963.596-6.09 3.33-2.25 1.812-6.173-1.905-6.441z" fill="#e3c19b"/><path d="m47.428 20.256c1.879 2.397 2.256 2.396 4.125-.006z" fill="#d6a67a"/><path d="m53.402 6.381c-2.426 2.218-7.406 3.803-10.543 5.647.006.171.348 2.912.686 4.126.703 2.521 4.398 5.058 5.969 5.056 1.572-.003 5.26-2.548 5.957-5.071.336-1.215.67-3.947.674-4.114-1.469-3.026-3.311-3.968-2.743-5.644z" fill="#e3c19b"/><path d="m54.543 12.661c-.621 1.633-3.156 1.396-3.625.255.352-1.836 3.279-1.998 3.625-.255z" fill="#f5f5f5"/><path d="m51.564 12.487c.002 1.432 2.072 1.43 2.07-.002-.001-1.33-2.071-1.328-2.07.002z" fill="#45332c"/><path d="m54.543 12.648c-.002-1.753-3.627-1.748-3.625.282.518-1.666 3.103-1.67 3.625-.282z" fill="#45332c"/><path d="m51.684 12.133c0 .359.518.358.518 0-.001-.332-.518-.332-.518 0z" fill="#f5f5f5"/><path d="m44.465 12.673c.625 1.631 3.162 1.389 3.625.245-.356-1.834-3.283-1.987-3.625-.245z" fill="#f5f5f5"/><path d="m47.443 12.494c.002 1.433-2.068 1.436-2.07.003-.002-1.33 2.068-1.332 2.07-.003z" fill="#45332c"/><path d="m44.465 12.661c-.002-1.752 3.623-1.758 3.625.273-.52-1.667-3.108-1.664-3.625-.273z" fill="#45332c"/><path d="m46.074 12.069c0 .357-.518.359-.518.002.001-.334.518-.335.518-.002z" fill="#f5f5f5"/><path d="m49.51 17.18c-1.135-.498-1.143-.02-2.893.101.66.745 1.143 1.704 2.893 1.702 2.012-.004 2.35-1.094 2.893-1.709-1.751-.116-1.76-.594-2.893-.094z" fill="#c97e55"/><path d="m47.143 17.465c1.145 1.188 3.607 1.169 4.732-.005-1.756.191-2.971.193-4.732.005z" fill="#fff"/><path d="m54.643 10.752c-1.053-.625-2.938-.699-3.684-.271-.158.086-.115.538.021.482 1.063-.445 2.684-.47 3.684.042.133.068.137-.163-.021-.253z" fill="#594640"/><path d="m44.361 10.766c1.053-.629 2.936-.707 3.684-.281.158.086.117.537-.021.481-1.064-.442-2.684-.462-3.684.052-.133.067-.139-.162.021-.252z" fill="#594640"/><path d="m50.951 15.473c.002.941-2.889.945-2.891.004.001-.217 2.891-.22 2.891-.004z" fill="#d6a67a"/><path d="m40.488 13.997c2.938-3.932 12.578-3.605 14.219-9.57-3.193 5.008-13.42 5.792-14.219 9.57z" fill="url(#h)"/><path d="m53.736 5.34c-.758 1.197 4.922 2.838 3.893 14.094 2.986-9.796-2.274-14.559-3.893-14.094z" fill="url(#i)"/><path d="m54.707 4.426c-6.166 3.465-15.326-.871-21.313 11.209 9.997-9.482 18.026-5.086 21.313-11.209z" fill="url(#j)"/><path d="m54.004 39.358c-.885 1.265-.26 1.478-.604 1.868-.343.39-1.023-.947.604-1.868z" fill="#d6a67a"/><path d="m57.896 29.38c.482.004.766-.396.697-.737.371-.158.484-.742.352-.984.295-.266.313-1.029.035-1.307.145-.238.066-.826-.303-.998.088-.34-.172-.752-.654-.771-1.432-1.348-3.828 1.766-3.842 2.313-.011.544 2.215 3.766 3.715 2.484z" fill="#007ca6"/><g fill="#005878"><path d="m54.324 26.803c1.541-2.309 3.596-2.336 3.699-2.221.123.134-1.812-.117-3.699 2.221z"/><path d="m54.324 26.803c2.004-1.555 4.311-1.604 4.354-1.449.043.145-1.91-.131-4.354 1.449z"/><path d="m54.324 26.803c2.492-.572 4.66-.611 4.656-.451-.005.152-1.832-.076-4.656.451z"/><path d="m54.32 26.995c1.414 2.376 3.465 2.497 3.576 2.386.129-.128-1.818.034-3.576-2.386z"/><path d="m54.32 26.995c1.92 1.645 4.221 1.798 4.273 1.648.046-.145-1.915.041-4.273-1.648z"/><path d="m54.32 26.995c2.459.685 4.619.823 4.625.664.004-.154-1.834-.009-4.625-.664z"/></g><path d="m46.727 24.859c-.91.169-1.199.862-.861 1.337-.615.375-.467 1.262-.07 1.553-.396.5.023 1.575.705 1.832-.131.389.352 1.142 1.102 1.206.035.486.711.898 1.543.7 2.984 1.019 5.322-3.832 5.115-4.538-.212-.716-5.511-4.481-7.534-2.09z" fill="#007ca6"/><path d="m54.078 27.118c-1.377 3.526-4.697 4.47-4.934 4.369-.277-.116 3.026-.657 4.934-4.369z" fill="#005878"/><path d="m54.078 27.118c-2.457 2.778-6.316 3.851-6.477 3.669-.15-.174 3.315-.674 6.477-3.669z" fill="#005878"/><path d="m54.078 27.118c-3.734 1.705-7.494 2.684-7.578 2.463-.08-.21 3.264-.681 7.578-2.463z" fill="#005878"/><path d="m54.004 26.872c-3.412-2.736-7.135-2.217-7.277-2.013-.163.233 3.252-.675 7.277 2.013z" fill="#005878"/><path d="m54.004 26.872c-3.902-1.537-8.133-.916-8.139-.676-.004.226 3.451-.768 8.139.676z" fill="#005878"/><path d="m54.004 26.872c-4.334-.01-8.297.646-8.209.877.084.218 3.316-.72 8.209-.877z" fill="#005878"/></svg>