<svg enable-background="new 0 0 64 64" height="64" viewBox="0 0 64 64" width="64" xmlns="http://www.w3.org/2000/svg"><path d="m39.166 46.17h-14.338c-1.147 1.855-10.463-1.633-14.647-.709 0 0 17.49 11.629 22.07 11.656 4.58-.027 21.558-11.656 21.558-11.656-4.19-.925-13.491 2.566-14.643.709z" fill="#302c3b"/><g fill="#423225"><path d="m23 50.563c4.375 1.679 8.266 4.718 12.055 4.753 1.43-.475 3.07.859 4.588 1.154 1.711.332 4.361-.65 5.707.27 1.736-.479 2.381 1.348 1.197 1.744.307.533-.129.959-.396 1.029.215.459-.203.943-.438.953.121.346-.176.729-.533.801-.342 2.098-7.391-.936-9.258-1.328-.814-.172-1.418-.859-2.426-1.295l-10.094-.4c-1.396-4.975-.402-7.681-.402-7.681z"/><path d="m45.205 58.303c.461.408 1.602.58 1.816-.164-.371.207-.623.216-1.816.164z"/><path d="m45.027 59.639s1.352.295 1.592-.59c-.369.445-1.592.59-1.592.59z"/><path d="m44.793 60.676s1.08.234 1.342-.584c-.369.443-1.342.584-1.342.584z"/><path d="m44.354 61.379s1.088.281 1.305-.461c-.37.443-1.305.461-1.305.461z"/></g><path d="m10.181 45.394c3.223-1.036 9.211 2.179 13.267 5.347 0 4.225.851 7.539.851 7.539-6.759-.068-11.625-3.619-15.113-5.854-2.931-1.877-2.748-5.827.995-7.032z" fill="#4e5e67"/><path d="m40.998 50.563c-4.377 1.679-8.267 4.718-12.054 4.753-1.432-.475-3.072.859-4.589 1.154-1.711.332-4.36-.65-5.706.27-1.737-.479-2.382 1.348-1.197 1.744-.307.533.128.959.396 1.029-.215.459.202.943.437.953-.12.346.177.729.533.801.342 2.098 7.392-.936 9.257-1.328.816-.172 1.42-.859 2.426-1.295l10.095-.4c1.396-4.975.402-7.681.402-7.681z" fill="#614a36"/><path d="m18.792 58.303c-.461.408-1.601.58-1.816-.164.372.207.624.216 1.816.164z" fill="#423225"/><path d="m18.971 59.639s-1.352.295-1.592-.59c.369.445 1.592.59 1.592.59z" fill="#423225"/><path d="m19.204 60.676s-1.08.234-1.342-.584c.37.443 1.342.584 1.342.584z" fill="#423225"/><path d="m19.644 61.379s-1.088.281-1.304-.461c.369.443 1.304.461 1.304.461z" fill="#423225"/><path d="m53.816 45.394c-3.223-1.036-9.211 2.179-13.266 5.347 0 4.225-.852 7.539-.852 7.539 6.76-.068 11.625-3.619 15.113-5.854 2.931-1.877 2.748-5.827-.995-7.032z" fill="#4e5e67"/><path d="m24.999 8.177c-4.719 20.257-4.288 19.822 5.646 19.822-5.497-3.846 5.033-20.098-5.646-19.822z" fill="#211e1a"/><path d="m23.297 7.863c-3.444 15.39-.473 19.343 2.165 20.136h3.025c-7.076-4.983 3.982-20.438-5.19-20.136z" fill="#26221e"/><path d="m38.883 8.176c4.719 20.258 4.285 19.823-5.648 19.823 5.056-3.087-5.033-20.099 5.648-19.823z" fill="#211e1a"/><path d="m40.584 7.861c5.033 14.002-.012 19.489-2.166 20.138h-3.023c7.076-4.577-3.982-20.44 5.189-20.138z" fill="#26221e"/><path d="m41.422 15.385c1.457 3.561.016 10.866-3.004 12.614 3.346 0 5.383-4.63 6.377-11 1.242-7.962-5.971-7.966-3.373-1.614z" fill="#38332d"/><path d="m19.46 18.475c1.219 5.75 2.719 9.524 6.002 9.524-3.661-3.79-3.23-11.786-2.189-13.775 5.304-3.158-5.876-5.472-3.813 4.251z" fill="#38332d"/><path d="m61.361 43.713c-.123-.023-1.268.031-1.268.031s1.082-.289 1.375-.379c.795-.238.547-.998-.051-.998-.889-.002-1.967.367-1.967.367s.008-1.105-.127-1.822c-.072-.393-1.152-.432-1.508-.662-.084-.055-.168-.066-.248-.063.889-.602.34-1.311-.09-1.146-1.174.447-1.457-.082-2.018.42-.393.35-1.777 2.141-2.148 2.039-1.916-.52-4.508-2.465-5.334-3.471-4.039-4.842-4.424-10.972-7.844-10.804-.787-.156-2.51-.634-4.605-.69-.248-.535-.371-.879-.418-1.49h-6.222c-.049.611-.17.955-.42 1.49-2.094.057-3.817.534-4.604.69-3.42-.168-3.806 5.962-7.844 10.804-.826 1.006-3.418 2.951-5.335 3.471-.37.102-1.756-1.689-2.148-2.039-.561-.502-.843.027-2.018-.42-.429-.164-.979.545-.089 1.146-.081-.004-.165.008-.248.063-.355.23-1.437.27-1.508.662-.136.717-.128 1.822-.128 1.822s-1.078-.369-1.967-.367c-.598 0-.845.76-.05.998.293.09 1.375.379 1.375.379s-1.146-.055-1.268-.031c-.802.162-.83 1.02.058 1.156.206.031.733-.041.86-.033-.554.236-.656 1.182.55 1.152 1.627-.043 3.123.225 3.75.225.475 0 2.881-.123 3.738-1.301.665-.9 5.479-2.447 7.191-3.662 1.157-1.008 3.499-3.888 4.382-7.306 0 0 .292.925.292 1.987h17.086c0-1.063.293-1.987.293-1.987.881 3.418 3.223 6.298 4.381 7.306 1.713 1.215 6.525 2.762 7.191 3.662.857 1.178 3.264 1.301 3.738 1.301.627 0 2.123-.268 3.75-.225 1.205.029 1.104-.916.547-1.152.127-.008.654.064.859.033.889-.137.86-.994.059-1.156zm-53.325-1.858c-.539.598-.244 1.357-1.904.611-.219-.289-.297-.699-.14-1.014.82-.371.903-.848.732-1.102.279.139.643.264 1.122.367.271.392.19 1.138.19 1.138zm49.831.612c-1.66.746-1.365-.014-1.904-.611 0 0-.08-.746.189-1.137.48-.104.844-.229 1.123-.367-.172.254-.088.73.732 1.102.157.314.079.724-.14 1.013z" fill="#614a36"/><path d="m56.244 44.59c-.043-.594-.885-2.064-2.305-1.893 1.327.356 1.973 1.241 2.305 1.893z" fill="#423225"/><path d="m57.793 43.863c1.895-.148 4.777.066 4.107-1.25.147 1.121-2.607.907-4.107 1.25z" fill="#423225"/><path d="m59.451 42.529.004.205c-.83.287-1.254.221-1.254.221s.475-.121 1.25-.426z" fill="#423225"/><path d="m57.588 44.955c2.295-.398 4.691.633 4.348-.818-.051 1.162-2.141.113-4.348.818z" fill="#423225"/><path d="m57.275 40.352c-.279.139-.643.264-1.123.367-.27.391-.189 1.137-.189 1.137.539.598.244 1.357 1.904.611.219-.289.297-.699.141-1.014-.82-.371-.904-.848-.733-1.101z" fill="none"/><path d="m7.756 44.59c.043-.594.884-2.064 2.304-1.893-1.327.356-1.973 1.241-2.304 1.893z" fill="#423225"/><path d="m6.207 43.863c-1.894-.148-4.777.066-4.108-1.25-.146 1.121 2.607.907 4.108 1.25z" fill="#423225"/><path d="m4.548 42.529-.004.205c.83.287 1.255.221 1.255.221s-.475-.121-1.251-.426z" fill="#423225"/><path d="m6.411 44.955c-2.294-.398-4.69.633-4.347-.818.05 1.162 2.141.113 4.347.818z" fill="#423225"/><path d="m6.725 40.352c.279.139.643.264 1.122.367.271.391.189 1.137.189 1.137-.539.598-.244 1.357-1.904.611-.219-.289-.297-.699-.14-1.014.821-.371.904-.848.733-1.101z" fill="none"/><path d="m32.694 31.77c-.391.256-.694.838-.694.838s-.305-.582-.695-.839c.693 1.311.525 1.898.525 1.898h.338c0 .001-.169-.67.526-1.897z" fill="#423225"/><path d="m39.139 27.012c.057-.268-2.014-.705-2.094-.334-1.916 8.98-8.177 8.971-10.089 0-.08-.371-2.151.066-2.094.334 1.449 6.834-1.535 8.125-1.535 8.125-.295 1.343 1.185 4.844 1.185 4.844.603 3.475.317 6.189.317 6.189 4.09 4.215 10.248 4.211 14.338 0 0 0-.279-2.715.322-6.189 0 0 1.48-3.501 1.186-4.844-.001 0-2.986-1.291-1.536-8.125z" fill="#8e3ed6"/><path d="m28.016 24.541c3.615 4.172 4.342 4.17 7.955-.003z" fill="#423225"/><path d="m31.999 3.309c-6.289 0-9.316 5.121-8.939 11.705.078 1.324.446 3.232.9 4.869.943 3.401 5.921 6.825 8.039 6.825 2.117 0 7.095-3.424 8.039-6.825.455-1.637.822-3.545.9-4.869.376-6.584-2.649-11.705-8.939-11.705z" fill="#614a36"/><path d="m31.999 21.277c-1.529-.673-1.539-.028-3.898.131.885 1.006 1.537 2.297 3.896 2.297 2.71 0 3.169-1.468 3.902-2.297-2.362-.159-2.372-.804-3.9-.131z" fill="#36281d"/><path d="m28.807 21.657c1.541 1.604 4.861 1.584 6.384.001-2.372.255-4.011.255-6.384-.001z" fill="#fff"/><path d="m38.928 12.621c-1.416-.844-3.957-.947-4.965-.371-.213.116-.154.726.029.649 1.436-.597 3.619-.626 4.965.063.182.093.186-.218-.029-.341z" fill="#423225"/><path d="m25.069 12.621c1.418-.844 3.957-.947 4.966-.371.211.116.154.726-.029.649-1.436-.597-3.619-.627-4.966.063-.181.093-.186-.218.029-.341z" fill="#423225"/><path d="m33.947 18.979c0 1.27-3.898 1.27-3.898 0 0-.293 3.898-.293 3.898 0z" fill="#423225"/><path d="m39.025 4.225c-4.41 4.518-.201 4.809 2.396 11.16 1.457 3.561 2.379 7.984 3.373 1.614 1.243-7.962-3.528-13.439-5.769-12.774z" fill="#38332d"/><path d="m28.202 2.493c-5.592 1.317-10.805 6.259-8.742 15.982 1.219 5.75 2.771-2.262 3.813-4.251 5.304-3.157 14.374-5.548 15.753-9.999.699-1.03-5.229-3.198-10.824-1.732z" fill="#38332d"/><path d="m23.917 9.576c2.365-.479 13.677-.705 15.108-5.352-2.671 2.13-5.443 2.71-15.108 5.352z" fill="#26221e"/><path d="m19.841 16.971c3.967-5.295 16.962-4.711 19.185-12.746-4.317 6.744-18.101 7.656-19.185 12.746z" fill="#26221e"/><path d="m37.719 5.325c-1.025 1.614 2.531-.757 6.365 9.634-.943-6.074-4.184-10.257-6.365-9.634z" fill="#26221e"/><path d="m30.002 15.238c-1.17.745-2.984.745-4.155 0-.179-.115-.285.009-.229.105 1.136 1.926 3.477 1.926 4.612 0 .06-.096-.048-.22-.228-.105z" fill="#45332c"/><path d="m38.15 15.238c-1.17.745-2.986.745-4.156 0-.178-.115-.285.009-.229.105 1.137 1.926 3.477 1.926 4.611 0 .06-.096-.048-.22-.226-.105z" fill="#45332c"/></svg>