<svg enable-background="new 0 0 64 64" height="64" viewBox="0 0 64 64" width="64" xmlns="http://www.w3.org/2000/svg" xmlns:xlink="http://www.w3.org/1999/xlink"><linearGradient id="a" gradientUnits="userSpaceOnUse" x1="22.6133" x2="34.3525" y1="4.1758" y2="4.1758"><stop offset="0" stop-color="#ffabf7"/><stop offset="1" stop-color="#b721cf"/></linearGradient><linearGradient id="b" gradientUnits="userSpaceOnUse" x1="22.2422" x2="34.3848" y1="6.4385" y2="6.4385"><stop offset="0" stop-color="#ffabf7"/><stop offset=".2111" stop-color="#fda8f6"/><stop offset=".3793" stop-color="#f89ef3"/><stop offset=".5327" stop-color="#ef8dee"/><stop offset=".6774" stop-color="#e375e7"/><stop offset=".8158" stop-color="#d357df"/><stop offset=".9478" stop-color="#c032d4"/><stop offset="1" stop-color="#b721cf"/></linearGradient><path d="m62 1.999c-46.227 1.9-42.113 41.026-14.467 46.513-6.553-5.17-1.512-9.592-5.648-13.115 17.138-10.142 2.578-20.289 20.115-33.398z" fill="#b1e5fd"/><path d="m49.646 9.903c-29.037 1.381-26.453 29.821-9.086 33.812-4.117-3.756-.951-6.971-3.549-9.533 10.766-7.374 1.62-14.751 12.635-24.279z" fill="#7ed2fc"/><path d="m2 3.774c32.889 1.697 29.963 36.64 10.291 41.54 4.664-4.615 1.076-8.566 4.02-11.713-12.194-9.055-1.834-18.12-14.311-29.827z" fill="#b1e5fd"/><path d="m10.789 10.833c20.658 1.232 18.82 26.636 6.463 30.2 2.932-3.357.678-6.229 2.525-8.516-7.658-6.584-1.15-13.172-8.988-21.684z" fill="#7ed2fc"/><path d="m7.979 13 2.188-5.941c.257.118.503.255.729.42l-2.101 5.715c-.271-.066-.541-.131-.816-.194z" fill="#ffe12c"/><path d="m17.666 20.183c-.801.322-1.505.542-1.907.551-1.61-1.901-4.245-2.72-6.577-5.96-.001-2.049 1.093-1.333-.039-2.532l-.281.766c-1.996-2.27-4.98 2.912-1.434 3.902 2.315.768 4.239 5.871 7.209 7.544.833.47 3.084.078 5.135-.403-.674-1.259-1.329-2.667-2.106-3.868z" fill="#fc6"/><path d="m7.804 15.891-1.915 5.208c-.08.216-.855-.076-.777-.292l1.878-5.109c.552-.303.814.193.814.193z" fill="#ffe12c"/><path d="m11.621 8.953.316-1.827 1.674-.779-1.631-.864-.214-1.844-1.325 1.294-1.81-.362.816 1.665-.904 1.62 1.826-.265z" fill="#f9c802"/><path d="m36.954 50.639c-.14-.811-1.375-.912-2.77.322-2.791-.633.063 4.045.063 4.045 1.822 1.182 3.317 4.002 5.533 4.387 2.32.404-1.792-2.77-2.826-8.754z" fill="#fdca47"/><path d="m45.811 53.566c-.034-.93-1.324-2.59-3.056-1.482-3.006-1.227-.595 3.992-.595 3.992 1.244.885 2.759 4.922 4.518 5.686 2.456 1.06-.61-1.358-.867-8.196z" fill="#fdca47"/><path d="m42.755 52.084c-3.006-1.227-2.526-3.135-5.063-5.537-3.828-3.625-.873-7.73-3.38-13.26-6.1 1.512-10.512-.16-10.512-.16-1.572 4.041-1.636 10.707.063 13.859.613 1.137.551 3.045 2.897 4.17 3.05 1.463 7.487 3.85 7.487 3.85 1.822 1.182.591-4.055-.063-4.045-2.791-.633-2.361-2.426-5.116-3.555-1.049-.43-.012-3.305-.435-6.715 1.159 3.41 1.907 4.992 2.914 6.166.548.639.903 1.768 1.979 2.512 3.167 2.193 8.633 6.707 8.633 6.707 1.245.885 1.284-3.965.596-3.992z" fill="#8e3ed6"/><path d="m43.256 37.959c.619-.547-.081-1.973-1.792-4.285-1.613-2.184-1.128-3.959-2.159-6.092l-1.098-3.829c-1.38.187-2.501-.201-3.507.996.158.86 1.149 2.03 1.472 3.345.635 3.025 3.519 6.594 3.519 6.594 1.176 4.451 1.431 4.729 1.501 2.67.33-.186.354.26 1.089 1.619 1.454 2.687.975-1.018.975-1.018z" fill="#fc6"/><path clip-rule="evenodd" d="m23.905 31.47c-.787-1.153-.021-4.844-1.183-7.717-.071-.176-3.44 1.09-3.516.926 0 0-1.426-2.487-2.422-4.365 1.99-.913 3.08-1.59 5.629-2.777 2.946-1.37 8.449-2.382 12.145.244 1.434 1.021 3.051 2.263 3.994 6.11-1.404 1.904-4.023 1.214-4.023 1.214s-.121-.338-.722-1.146c-.248 3.401.509 5.815.213 6.809-.661 2.222-8.949 4.164-10.115.702z" fill="#8e3ed6" fill-rule="evenodd"/><path d="m34.021 30.767c-2.058 2.438-8.591 3.12-10.115.727-.216.107-.244 1.324-.105 1.633 1.068 2.367 5.245 2.896 10.512.139.244-.246-.165-2.499-.292-2.499z" fill="#5d1e96"/><g fill="#e6b045"><path d="m25.986 16.37c0 2.451 4.757 2.451 4.757 0v-2.541h-4.757z"/><path d="m22.615 8.3c-1.923-.346-.422 5.027 1.084 3.545.697-.686-.185-3.383-1.084-3.545z"/><path d="m34.116 8.3c-.899.162-1.782 2.859-1.082 3.545 1.505 1.482 3.006-3.891 1.082-3.545z"/></g><path d="m28.365 1.999c-3.976 0-5.893 3.006-5.651 7.188.048.842.568 3.584 1.061 4.568.506 1.008 2.191 2.561 3.226 2.879.652.205 2.081.205 2.732 0 1.035-.318 2.72-1.871 3.225-2.879.493-.984 1.013-3.727 1.062-4.568.24-4.182-1.677-7.188-5.655-7.188z" fill="#fc6"/><path d="m28.365 13.38c-.895-.262-2.22.125-2.22.125.505.551.874 1.264 2.22 1.264 1.541 0 1.804-.809 2.22-1.264 0 0-1.326-.389-2.22-.125z" fill="#e6a400"/><path d="m26.484 13.599c.938.785 2.832.789 3.775 0-1 .041-2.768.043-3.775 0z" fill="#fff"/><path d="m29.6 11.903c0 .801-2.467.801-2.467 0 0-.185 2.467-.185 2.467 0z" fill="#e6b045"/><path d="m28.365 1.999c-2.734 0-4.387.904-5.101.557 0 0-.078.465.201.77 0 0-.295.256-.77-.176-.455 1.473.893 2.324 5.669 2.324 4.778 0 3.637-1.162 5.987.879-.23-2.516-1.83-4.354-5.986-4.354z" fill="url(#a)"/><path d="m30.389 4.192c-2.631.973-3.592-.779-6.074-.949 1.183.559 1.758 1.416 2.728 2.035-2.11-.707-3.659-1.92-3.777-2.719 0 0-.352 1.164 1.04 2.035-1.332.123-1.608-1.441-1.608-1.441-.675 1.084-.58 4.576.168 7.164.124-.924-.16-1.307.268-2.42 1.28-3.33.457-1.932 5.235-1.932 4.776 0 3.916-1.273 5.233 1.932.393.955.143 1.496.269 2.42 1.567-5.841-.69-7.152-3.482-6.125z" fill="url(#b)"/><path d="m32.623 9.511c-.531 1.389-2.692 1.186-3.089.213.301-1.565 2.796-1.698 3.089-.213z" fill="#fff"/><path d="m24.109 9.511c.528 1.389 2.693 1.186 3.088.213-.3-1.565-2.799-1.7-3.088-.213z" fill="#fff"/><path d="m32.843 7.837c-.91-.451-2.647-.475-3.296-.158-.14.061-.048.486.069.447.902-.334 2.359-.342 3.205.029.116.047.161-.256.022-.318z" fill="#c1873c"/><path d="m23.888 7.837c.909-.451 2.648-.475 3.298-.158.139.061.048.486-.069.447-.904-.334-2.359-.342-3.209.029-.112.047-.159-.256-.02-.318z" fill="#c1873c"/><path d="m30.086 9.362c0 1.221 1.766 1.221 1.766 0 0-1.133-1.766-1.133-1.766 0z" fill="#613f34"/><path d="m30.261 9.753c0 .699 1.417.699 1.417 0 0-.65-1.417-.65-1.417 0z" fill="#7d5037"/><path d="m30.601 9.382c0 .504.734.504.734 0 0-.471-.734-.471-.734 0z" fill="#1a1626"/><path d="m30.352 9.233c0 .254.369.254.369 0 0-.238-.369-.238-.369 0z" fill="#ab968c"/><path d="m24.879 9.362c0 1.221 1.767 1.221 1.767 0 0-1.133-1.767-1.133-1.767 0z" fill="#613f34"/><path d="m25.054 9.751c0 .701 1.417.701 1.417 0 0-.648-1.417-.648-1.417 0z" fill="#7d5037"/><path d="m25.396 9.382c0 .504.733.504.733 0 .001-.471-.733-.471-.733 0z" fill="#1a1626"/><path d="m25.146 9.233c0 .254.369.254.369 0 .001-.238-.369-.238-.369 0z" fill="#ab968c"/><path d="m32.623 9.499c0-1.492-3.089-1.492-3.089.236.443-1.418 2.649-1.418 3.089-.236z" fill="#e6b045"/><path d="m24.109 9.499c0-1.492 3.088-1.492 3.088.236-.441-1.418-2.647-1.418-3.088-.236z" fill="#e6b045"/></svg>