<svg enable-background="new 0 0 64 64" height="64" viewBox="0 0 64 64" width="64" xmlns="http://www.w3.org/2000/svg"><path d="m2 61.999h60v-33.693c-24.664 9.24-39.113-8.316-60 0z" fill="#a6aeb0" opacity=".15"/><path d="m62 61.999h-60v-23.572c24.666 8.539 39.115-7.688 60 0z" fill="#a6aeb0" opacity=".15"/><path d="m19.076 13.401c-8.711 37.396-7.914 36.596 10.426 36.596-10.148-7.101 9.293-37.103-10.426-36.596z" fill="#947d41"/><path d="m15.934 12.823c-6.357 28.41-.871 35.709 3.998 37.174h5.584c-13.063-9.203 7.353-37.732-9.582-37.174z" fill="#ba9d52"/><path d="m44.709 13.401c8.713 37.396 7.916 36.596-10.424 36.596 9.332-5.701-9.295-37.105 10.424-36.596z" fill="#947d41"/><path d="m47.85 12.821c9.295 25.848-.02 35.979-3.998 37.176h-5.578c13.06-8.453-7.356-37.734 9.576-37.176z" fill="#ba9d52"/><path d="m24.982 48.868c0 5.754 14.035 5.754 14.035 0 0-3.514 0-5.318 0-5.318h-14.035z" fill="#e3c19b"/><path d="m24.801 44.292c6.543 6.738 7.857 6.732 14.398-.004z" fill="#d6a67a"/><path d="m32 4.416c-11.609 0-17.201 9.454-16.502 21.608.143 2.443.822 5.969 1.662 8.988 1.74 6.278 10.928 12.602 14.84 12.602s13.1-6.324 14.84-12.602c.84-3.02 1.52-6.545 1.664-8.988.697-12.154-4.893-21.608-16.504-21.608z" fill="#e3c19b"/><path d="m44.543 26.354c-1.553 4.061-7.861 3.465-9.018.623.875-4.564 8.164-4.955 9.018-.623z" fill="#fff"/><path d="m19.461 26.354c1.551 4.061 7.861 3.467 9.02.623-.877-4.564-8.167-4.955-9.02-.623z" fill="#fff"/><path d="m32.002 37.585c-2.822-1.24-2.844-.051-7.201.242 1.637 1.855 2.84 4.244 7.199 4.244 5.002 0 5.848-2.711 7.201-4.244-4.359-.293-4.377-1.482-7.199-.242z" fill="#c97e55"/><path d="m26.109 38.29c2.844 2.959 8.977 2.92 11.783 0-4.376.471-7.404.471-11.783 0z" fill="#fff"/><path d="m44.795 21.608c-2.617-1.561-7.307-1.75-9.164-.688-.395.213-.287 1.34.053 1.199 2.648-1.104 6.68-1.158 9.166.117.334.171.339-.401-.055-.628z" fill="#594640"/><path d="m19.207 21.608c2.617-1.561 7.307-1.75 9.168-.688.393.213.287 1.34-.055 1.199-2.648-1.104-6.68-1.158-9.168.117-.334.171-.339-.401.055-.628z" fill="#594640"/><path d="m35.602 33.343c0 2.342-7.201 2.342-7.201 0-.001-.537 7.201-.537 7.201 0z" fill="#d6a67a"/><path d="m44.973 6.104c-8.139 8.34-.371 8.879 4.424 20.605 2.693 6.572.029 20.061-5.545 23.287 6.178 0 9.939-8.551 11.775-20.311 2.291-14.694-6.518-24.806-10.654-23.581z" fill="#efde8b"/><path d="m24.99 2.912c-10.322 2.43-19.945 11.548-16.138 29.501 2.25 10.613 5.018 17.584 11.08 17.584-6.758-7-5.963-21.762-4.043-25.434 9.793-5.828 26.539-10.24 29.084-18.459 1.293-1.895-9.653-5.899-19.983-3.192z" fill="#efde8b"/><g fill="#ba9d52"><path d="m17.082 15.985c4.365-.885 25.248-1.301 27.891-9.881-4.936 3.934-10.049 5.006-27.891 9.881z"/><path d="m9.555 29.634c7.324-9.773 31.314-8.695 35.418-23.529-7.965 12.451-33.416 14.134-35.418 23.529z"/><path d="m42.559 8.14c-1.889 2.977 4.678-1.398 11.758 17.783-1.747-11.215-7.727-18.936-11.758-17.783z"/></g><path d="m37.107 25.913c0 3.596 5.199 3.596 5.199 0 .001-3.338-5.199-3.338-5.199 0z" fill="#613f34"/><path d="m37.619 27.063c0 2.063 4.172 2.063 4.172 0 0-1.914-4.172-1.914-4.172 0z" fill="#7d5037"/><path d="m38.627 25.97c0 1.492 2.16 1.492 2.16 0 0-1.385-2.16-1.385-2.16 0z" fill="#1a1626"/><path d="m37.889 25.534c0 .754 1.09.754 1.09 0 0-.699-1.09-.699-1.09 0z" fill="#ab968c"/><path d="m21.695 25.919c0 3.596 5.201 3.596 5.201 0 0-3.338-5.201-3.338-5.201 0z" fill="#613f34"/><path d="m22.211 27.069c0 2.063 4.172 2.063 4.172 0 0-1.914-4.172-1.914-4.172 0z" fill="#7d5037"/><path d="m23.217 25.976c0 1.492 2.158 1.492 2.158 0 0-1.385-2.158-1.385-2.158 0z" fill="#1a1626"/><path d="m22.48 25.54c0 .754 1.09.754 1.09 0 0-.701-1.09-.701-1.09 0z" fill="#ab968c"/><path d="m44.543 26.323c0-4.361-9.018-4.361-9.018.691 1.286-4.146 7.729-4.146 9.018-.691z" fill="#45332c"/><path d="m19.461 26.323c0-4.361 9.02-4.361 9.02.689-1.29-4.144-7.733-4.144-9.02-.689z" fill="#45332c"/><path d="m12.256 52.378c2.4-1.42 13.365-5.166 13.365-5.166 3.531 3.727 9.301 3.727 12.832 0 0 0 10.953 3.74 13.344 5.162 3.471 2.066 4.203 9.625 4.203 9.625h-48s.773-7.566 4.256-9.621z" fill="#e3c19b"/><path d="m23.211 61.999h25.789s-.318-4.139-4.029-4.092c-23.305.28-21.76 4.092-21.76 4.092z" fill="#a0d8e9"/><path d="m33.949 58.31c-11.977-.023-10.279-.391-14.918-.402-3.713-.012-4.031 4.091-4.031 4.091h25.791s-.863-3.676-6.842-3.689z" fill="#cae8f0"/><path d="m62 61.999h-60v-13.453c24.031-7.938 37.939 8.666 60 0z" fill="#a6aeb0" opacity=".2"/></svg>