<svg enable-background="new 0 0 64 64" height="64" viewBox="0 0 64 64" width="64" xmlns="http://www.w3.org/2000/svg"><path d="m10.576 49.518c1.174-4.439 5.5-11.139 2.611-16.635-9.772-3.865-5.602 11.084-2.611 16.635z" fill="#99a8ae"/><path d="m50.812 32.883c-2.889 5.496 1.438 12.195 2.611 16.635 2.99-5.551 7.16-20.5-2.611-16.635z" fill="#99a8ae"/><path d="m12.019 43.043c2.701-2.516.25-12.377-3.232-12.971-7.442-1.267-2.594 18.393 3.232 12.971z" fill="#423225"/><path d="m51.982 43.043c-2.701-2.516-.25-12.377 3.232-12.971 7.44-1.267 2.594 18.391-3.232 12.971z" fill="#423225"/><path d="m32.001 12c-26.041 0-15.549 3.018-22.5 18.313 0 0 .049 7.016 1.506 14.539 1.875 9.701 12.793 17.148 20.994 17.148 8.199 0 19.117-7.447 20.994-17.148 1.455-7.523 1.506-14.539 1.506-14.539.414-14.023 3.539-18.313-22.5-18.313z" fill="#614a36"/><path d="m8.025 33.264c-2.682-6.834-2.057-18.83 6.43-24.242.396 6.75-3.985 16.937-6.43 24.242z" fill="#99a8ae"/><path d="m8.025 33.264c-2.045-7.201 4.731-14.871 6.43-24.242.396 6.75-3.985 16.937-6.43 24.242z" fill="#6e8189"/><path d="m7.878 35.213c3.049-10.281-1.41-20.404 6.576-26.191.467 6.613 5.28 12.39-6.576 26.191z" fill="#99a8ae"/><path d="m7.878 35.213c9.883-16.074 1.623-19.904 6.576-26.191.467 6.613 5.28 12.39-6.576 26.191z" fill="#6e8189"/><path d="m14.454 9.022c25.662 13.189 35.316 10.158 41.68 25.537 7.125-27.5-24.957-42.166-41.68-25.537z" fill="#99a8ae"/><path d="m14.454 9.022c25.662 13.189 34.662 10.359 41.68 25.537 2.795-11.992-24.775-24.489-41.68-25.537z" fill="#6e8189"/><path d="m14.691 9.022c-6.717 9.16 20.559 14.461 30.74 14.695-8.432-7.721-15.896-16.283-30.74-14.695z" fill="#99a8ae"/><path d="m45.431 23.717c-10.926-3.537-33.49-6-30.74-14.695-6.717 9.16 19.814 14.695 30.74 14.695z" fill="#6e8189"/><path d="m28.494 23.717c-6.488-4.514-6.172-14.375-14.039-14.695-8.813 9.496 6.097 14.461 14.039 14.695z" fill="#99a8ae"/><path d="m28.494 23.717c-8.938-4.447-19.717-5.65-14.039-14.695-8.813 9.496 5.546 14.927 14.039 14.695z" fill="#6e8189"/><path d="m37.054 34.798c1.996 3.773 9.945 5.084 9.945 5.084s-8.494-3.074-9.945-5.084z" fill="#423225"/><path d="m16.999 39.882s7.922-1.273 9.945-5.084c-1.45 2.01-9.945 5.084-9.945 5.084z" fill="#423225"/><path d="m22.251 49.14c4.275 3.988 15.238 4.013 19.547 0-5.107 1.137-14.404 1.144-19.547 0z" fill="#2b2119"/><path d="m50.156 26.685c-3.688-1.83-10.744-1.919-13.373-.644-.563.247-.191 1.982.283 1.816 3.664-1.357 9.572-1.39 13.002.117.457.194.646-1.033.088-1.289z" fill="#99a8ae"/><path d="m13.843 26.685c3.687-1.83 10.742-1.919 13.373-.644.563.247.191 1.982-.281 1.816-3.67-1.357-9.572-1.39-13.004.117-.457.194-.644-1.033-.088-1.289z" fill="#99a8ae"/><path d="m49.001 34.109c-1.281 3.893-11.244 2.348-12 .193 1.168-7.048 10.866-6.882 12-.193z" fill="#fff"/><path d="m38.921 32.522c0 4.949 7.158 4.949 7.158 0 0-4.594-7.158-4.594-7.158 0z" fill="#613f34"/><path d="m39.628 34.106c0 2.838 5.744 2.838 5.744 0 0-2.635-5.744-2.635-5.744 0z" fill="#7d5037"/><path d="m41.015 32.6c0 2.055 2.971 2.055 2.971 0 0-1.906-2.971-1.906-2.971 0z" fill="#1a1626"/><path d="m40.001 32c0 1.037 1.5 1.037 1.5 0 0-.963-1.5-.963-1.5 0z" fill="#ab968c"/><path d="m49.001 34.062c0-6.733-12-7.503-12 .295 1.713-6.398 10.286-5.628 12-.295z" fill="#423225"/><path d="m14.999 34.109c1.283 3.893 11.246 2.348 12 .193-1.166-7.048-10.863-6.882-12-.193z" fill="#fff"/><path d="m17.919 32.522c0 4.949 7.158 4.949 7.158 0 .001-4.594-7.158-4.594-7.158 0z" fill="#613f34"/><path d="m18.626 34.106c0 2.838 5.744 2.838 5.744 0 0-2.635-5.744-2.635-5.744 0z" fill="#7d5037"/><path d="m20.013 32.6c0 2.055 2.971 2.055 2.971 0 0-1.906-2.971-1.906-2.971 0z" fill="#1a1626"/><path d="m18.999 32c0 1.037 1.5 1.037 1.5 0 0-.963-1.5-.963-1.5 0z" fill="#ab968c"/><g fill="#423225"><path d="m14.999 34.062c0-6.731 12-7.503 12 .293-1.712-6.396-10.285-5.626-12-.293z"/><path d="m36.999 43.179c0 3.254-9.998 3.254-9.998 0 0-.746 9.998-.746 9.998 0z"/><path d="m26.501 43.522c-2.992 3.21-6.209 5.218-4.975 9.767.134-4.318 2.872-5.133 4.975-9.767z"/><path d="m42.472 53.287c1.223-4.501-1.953-6.523-4.975-9.765 2.106 4.639 4.84 5.448 4.975 9.765z"/></g></svg>