<svg enable-background="new 0 0 64 64" height="64" viewBox="0 0 64 64" width="64" xmlns="http://www.w3.org/2000/svg"><path d="m51.213 37.699c-.275-.44.006-1.431.541-2.506.209.47.545.904 1.08 1.264-1.252-5.09 9.156-10.09 2.16-13.062l-1.938 2.457c3.127.657-4.363 2.926-3.148 6.859-.002-.506.527-1.034 1.223-1.59-1.303 2.285-2.156 4.834.082 6.578z" fill="#594640"/><path d="m51.213 37.699c-.275-.44-.451-2.409.084-3.484.369 1.48.83 2.104 1.537 2.242-2.559-5.01 6.945-9.433 1.211-11.582l-.988.978c3.127.657-4.363 2.926-3.148 6.859.063-1.539.795-2.165 1.514-2.295-1.304 2.284-2.448 5.538-.21 7.282z" fill="#453631"/><path d="m57.795 24.687c-.746-1.008-4.502-.754-4.637 1.138-.113 1.55 5.639.197 4.637-1.138z" fill="#8e3ed6"/><path d="m47.512 23.358c1.605.68-1.848 2.694-2.113 2.939 0 0 2.637-.483 4.99 1.803 0 0 .693-1.184 2.115-2.791 4.424-3.899-4.992-1.951-4.992-1.951z" fill="#f7c259"/><path d="m51.863 13.842c-.824.334-1.611.876-2.045 1.544-.672 1.03-1.482 1.055-2.719.982-1.176-.07-.982 1.116-.313 1.772-.061.33-.365.411-.365.411.068.988-.65 1.682-1.09 1.631 0 0 .08.246-.256.518-.957.777-.682 1.577 1.033 2.449 3.387 1.719 5.506.021 5.506.021-.217 1.258 2.617 1.566 4.199.075 2.636-2.47 4.125-8.333-3.95-9.403z" fill="#fc6"/><path d="m52.877 21.989c.625-.627 1.682-.669 2.201-.161 0 0-1.629-.125-2.408 1.107 0 .001-.231-.508.207-.946z" fill="#e6b045"/><path d="m50.707 18.524c-.721.052-1.76-.553-1.98-.88 1.334-2.658 2.384-.396 1.98.88z" fill="#f5f5f5"/><path d="m48.752 17.68c.813.757 2.48-1.78.803-1.169-.231.17-.967 1.016-.803 1.169z" fill="#45332c"/><path d="m50.707 18.524c.57-.991-.219-2.903-1.152-2.014.707-.28 1.349.993 1.152 2.014z" fill="#45332c"/><path d="m49.771 16.77c-.189.197.096.464.285.268.173-.184-.113-.451-.285-.268z" fill="#f5f5f5"/><path d="m52.141 17.498c-.109-.945-1.229-1.992-1.896-2.12-.139-.035-.357.353-.248.376.73.162 1.664.914 2.002 1.854.036.105.165.031.142-.11z" fill="#594640"/><path d="m46.258 19.175c.074.407-.441.44-.441.44-.211-.226-.807.364-.484.567.945.588 2.189.692 2.441.493-.156-.146-1.262-1.335-1.352-2.124 0 .001-.285.197-.164.624z" fill="#d47706"/><path d="m46.258 19.175-.441.44c.186.2 1.068.778 1.711.931-.001 0-.964-.739-1.27-1.371z" fill="#fff"/><path d="m59.41 22.064c1.691-1.877 1.012-4.713-1.139-6.858-2.785-2.778-5.891-2.525-6.408-1.364 4.754 1.653-1.035 7.872 2.18 7.137 1.609-.366 2.496 1.584.854 2.633-1.658 1.061-2.719.435-2.719.435-.295.962.057 1.478.057 1.478 2.517 1.843 7.849-1.14 7.175-3.461z" fill="#594640"/><path d="m59.41 22.064c1.691-1.877-.5-5.711-1.689-6.512 1.205 1.676 1.947 4.298 1.543 5.078-.855-1.512-1.893-3.97-4.016-5.887 1.057 1.394 1.037 3.425 3.109 6.346 0 0-2.203-1.444-3.348-4.251-.184 1.244.582 3.369 1.078 4.295-.842-.76-1.652-1.748-2.264-4.846.107 2.343-2.02 5.202.219 4.69 1.609-.366 2.496 1.584.854 2.633-1.658 1.061-2.719.435-2.719.435-.295.962.057 1.478.057 1.478 2.518 1.845 7.85-1.138 7.176-3.459z" fill="#453631"/><path d="m47.689 18.408c-.365.162-.834-.172-1.066-.42-.309-.33-.445-.798-.352-1.159.393-.135.377 1.231 1.418 1.579z" fill="#e6b045"/><path d="m32.684 12.509 1.742-10.509h-18.913l5.261 36.193 2.162-10.092 12.455-13.357z" fill="#916858"/><path d="m23.891 2-3.117 16.24 2.717 1.216-3.316 11.967 3.716 1-3.778 13.658-2.935 5.133-.734 5.27 4.031 3.51.422 2.006h-18.897v-60z" fill="#6b4d40"/><path d="m2.424 51.734 4.14 2.645 5.144 2.166 4.814-.217 3.953 3.666-9.143-1.916-5.082-2.747z" fill="#9e7666"/><path d="m14.593 32.454-12.169-2.906 17.979 1.056 3.488 1.819z" fill="#9e7666"/><g fill="#543d32"><path d="m11.271 31.66-5.209 15.179-3.429-17.291z"/><path d="m17.77 32.454-2.707 9.849-.47-9.849z"/><path d="m6.25 55.331-2.153 5.425-1.673-9.022z"/><path d="m11.332 58.078-.596 3.044-1.994-4.443z"/><path d="m3.929 16.82 7.841 8.666 3.011-5.367z"/><path d="m3.636 2 3.65 3.892.533 6.875 5.645-3.625 2.98-7.142z"/></g><path d="m3.929 16.82 11.166 1.919 5.728-.753 3.974 2.074-4.433-.497-5.583.556z" fill="#9e7666"/><path d="m24.797 11.324 9.953.957.641 2.463z" fill="#6b4d40"/><path d="m21.383 22.813-1.019-3.25 4.344.36-3.151 6.51z" fill="#543d32"/><path d="m33.912 2h7.059l-5.051 2.735-2.789 5.072-1.018-5.592z" fill="#6b4d40"/><path d="m34.617 29.101c-1.258-.689-5.486 3.813-9.776 6.771-.261.179.73 2.279 1.001 2.122 3.458-1.995 5.658-1.995 7.517-4.047.285.593 1.041 1.259 1.422 2.132.262.603 4.416-2.468 3.9-2.967-2.74-2.658-2.96-3.406-4.064-4.011z" fill="#f7c259"/><path d="m43.209 20.375c-.794-1.852-2.949-4.652-3.842-6.256-.527-.949-3.727-2.831-4.572-2.793-.68.031-3.775 1.583-3.348 2.228 2.045-.98 2.367-.76 2.703-.633.857.327 1.494 1.158-.855 1.655-.406.087-.502.606.416.461 1.465-.235 1.398-.557 2.438-.703.704-.098 1.145.396 1.402.917 1.18 2.384 1.268 4.763 2.615 6.788 2.123 3.194 2.088 4.848 4.369 6.188.482.282 2.992-.847 2.869-1.332-.539-2.15-3.41-4.685-4.195-6.52z" fill="#f7c259"/><path d="m25.18 35.636c-.819-.656-1.804-4.108-2.746-3.771-1.267 3.311 0 3.351 1.168 6.895.173.525 2.028.505 2.24-.765z" fill="#302c3b"/><path d="m40.109 34.156c-.229-.771-1.777-1.892-1.777-1.892s-2.244 1.993-3.906 3.477c0 0 .541 2.058.559 3.337.027 2.18 5.757-2.785 5.124-4.922z" fill="#5d1e96"/><path d="m39.346 37.282-13.388-35.282h1.542l13.47 35.534c-.042.125-2.241 1.667-1.624-.252z" fill="#594640"/><path d="m39.828 24.824c-3.887-.707-5.055-.473-6.652-.686-1.092-1.212-5.045-2.321-6.174-3.465-.772-2.084-3.351-2.384-3.625-2.419-.615-.081-2.548.163-2.601.64-.071.617 2.091.63 2.638 1.085.496.413.865 1.586 1.539 1.854 1.637.649 6.68 5.527 7.405 5.909.803.424 2.443.421 6.127.961.714.106 2.052-3.75 1.343-3.879z" fill="#fc6"/><path d="m17.779 55.269c2.439-4.409 3.281-7.169 5.061-8.909 1.276-1.248 4.04-2.993 5.879-4.449.598-.475 4.178 3.173 3.568 3.64-1.385 1.069-4.688 2.111-6.329 2.899-1.161 2.999-3.729 3.337-5.32 5.93-.177.285-3.03 1.198-2.859.889z" fill="#fc6"/><path d="m17.779 55.269c-.986.849-4.571 2.23-4.107 3.165 3.602.907 3.433-.597 7.304-1.856.551-.18.494-1.177-.337-2.198z" fill="#302c3b"/><path d="m39.533 24.6-1.611 4.162c1.426.066 1.723.41 1.723.41s-.918 1.356.389 2.263c-.51 1.42-.848 2.918-1.598 3.939-1.633 2.22-6.969 3.8-10.074 6.488-.109.944 3.426 4.219 3.426 4.219 1.971-1.06 5.775-1.225 8.244-1.393 6.406-.437 4.01-6.83 10.369-16.423.668-1.007-3.807-3-4.975-3.09-1.686-.129-5.893-.575-5.893-.575z" fill="#8e3ed6"/><path d="m39.162 33.987s3.381 5.072 5.879 6.458c-.037 1.063-.646 1.494-.646 1.494l-1.336-.841-3.1 2.692s.33.43.9.808c-.746.456-1.512.293-1.512.293s-3.58-2.239-4.73-6.8c.553-.751 1.441-.805 1.441-.805.736 3.058 2.734 5.43 2.734 5.43l2.982-2.845s-2.197-2.487-3.273-4.657c.251-.888.661-1.227.661-1.227z" fill="#302c3b"/><path d="m57.27 23.9s-.131-1.043-.355-.932c-.932.465-3.492.741-3.492.741s.291-3.045 2.4-5.124c.182-.178-.59-.632-.834-.569-1.48.378-2.768 5.751-2.768 5.751s-3.865.212-5.42-.307c2.449 2.916 10.469.44 10.469.44z" fill="#302c3b"/><path d="m61.219 15.791c-1.811-3.654-6.184-5.188-9.766-3.426-.986.485 2.234 3.815 3.547 6.464 1.195 2.414 1.793 7.365 3.008 6.766 3.582-1.759 5.021-6.15 3.211-9.804z" fill="#e81c27"/></svg>