<svg enable-background="new 0 0 64 64" height="64" viewBox="0 0 64 64" width="64" xmlns="http://www.w3.org/2000/svg"><path d="m38.844 45.043h-13.689c-1.764 3.014-9.683-1.211-14.404-.106 0 0 17.037 11.998 21.498 12.026 4.462-.028 21-12.026 21-12.026-4.724-1.105-12.642 3.12-14.405.106z" fill="#302c3b"/><path d="m32.594 54.342c.806.241 1.605.394 2.4.401 1.393-.473 2.992.856 4.471 1.15 1.666.33 4.248-.649 5.559.267 1.691-.477 2.318 1.343 1.166 1.738.299.53-.125.955-.387 1.023.209.459-.197.94-.426.949.117.346-.172.727-.52.798-.332 2.091-7.199-.931-9.018-1.321-.793-.172-1.381-.855-2.363-1.289l-1.442-.058c.258-1.205.406-2.462.56-3.658z" fill="#dba97f"/><path d="m44.883 57.718c.449.406 1.561.577 1.77-.163-.362.205-.608.214-1.77.163z" fill="#dba97f"/><path d="m44.709 59.047s1.316.295 1.551-.587c-.36.442-1.551.587-1.551.587z" fill="#dba97f"/><path d="m44.48 60.081s1.053.232 1.307-.582c-.359.441-1.307.582-1.307.582z" fill="#dba97f"/><path d="m44.053 60.78s1.061.281 1.271-.458c-.359.441-1.271.458-1.271.458z" fill="#dba97f"/><path d="m10.768 44.861c6.319-1.25 12.377 6.318 22.543 9.674-.517 2.396-.791 3.827-.791 3.827-12.787-.553-19.326-4.273-22.723-6.498-2.854-1.869-2.789-6.259.971-7.003z" fill="#4e5e67"/><path d="m31.405 54.688c-.807.249-1.607.407-2.4.415-1.395-.489-2.993.888-4.471 1.192-1.666.342-4.246-.673-5.557.276-1.693-.493-2.321 1.391-1.166 1.801-.299.55.123.989.386 1.061-.209.475.196.974.425.983-.116.358.173.752.519.826.333 2.166 7.201-.965 9.019-1.369.795-.178 1.383-.887 2.361-1.336l1.447-.061c-.26-1.247-.409-2.548-.563-3.788z" fill="#fcd5b2"/><path d="m19.115 58.186c-.449.421-1.559.598-1.77-.169.364.212.61.221 1.77.169z" fill="#dba97f"/><path d="m19.29 59.563s-1.316.306-1.55-.608c.36.458 1.55.608 1.55.608z" fill="#dba97f"/><path d="m19.517 60.634s-1.052.24-1.307-.604c.361.459 1.307.604 1.307.604z" fill="#dba97f"/><path d="m19.944 61.358s-1.06.291-1.269-.475c.36.458 1.269.475 1.269.475z" fill="#dba97f"/><path d="m53.232 44.866c-6.32-1.295-12.453 6.416-22.621 9.893.518 2.482.867 4.095.867 4.095 12.785-.572 19.326-4.427 22.724-6.732 2.855-1.936 2.79-6.485-.97-7.256z" fill="#4e5e67"/><path d="m61.332 42.767c-.127-.025-1.324.031-1.324.031s1.131-.301 1.436-.394c.83-.251.572-1.044-.051-1.044-.93-.001-2.057.383-2.057.383s.008-1.152-.133-1.902c-.076-.41-1.205-.45-1.576-.691-.086-.057-.174-.068-.26-.063.932-.63.355-1.369-.092-1.198-1.229.468-1.523-.085-2.109.438-.41.366-1.834 2.302-2.221 2.195-1.869-.521-4.1-2.435-4.904-3.44-3.91-4.892-2.273-11.668-8.039-11.363-.758-.161-1.941-.269-4.139-.324-.264-.518-.389-1.124-.441-1.716h-6.843c-.053.592-.18 1.198-.441 1.716-2.199.056-3.381.163-4.14.324-5.765-.305-4.129 6.472-8.039 11.363-.805 1.006-3.035 2.92-4.904 3.44-.387.106-1.811-1.829-2.221-2.195-.586-.522-.881.03-2.108-.438-.448-.171-1.023.568-.093 1.198-.085-.005-.173.007-.26.063-.371.241-1.5.281-1.575.691-.142.75-.134 1.902-.134 1.902s-1.126-.384-2.056-.383c-.624 0-.882.793-.052 1.044.306.093 1.437.394 1.437.394s-1.197-.057-1.324-.031c-.837.168-.867 1.065.061 1.207.215.033.767-.043.898-.035-.582.246-.688 1.235.571 1.203 1.7-.044 3.265.234 3.919.234.496 0 2.952-.141 3.849-1.369.654-.897 4.346-1.443 6.016-2.658 1.215-.887 4.023-3.12 4.829-6.709-.044 2.145.857 4.412.857 4.412h16.664s.9-2.268.857-4.412c.805 3.589 3.613 5.822 4.828 6.709 1.67 1.215 5.361 1.761 6.016 2.658.896 1.229 3.354 1.369 3.85 1.369.654 0 2.219-.278 3.918-.234 1.26.032 1.154-.957.572-1.203.131-.008.684.068.898.035.927-.142.896-1.039.06-1.207zm-53.023-1.94c-.563.624-.255 1.416-1.99.638-.229-.302-.31-.729-.146-1.059.856-.387.943-.885.765-1.148.292.144.672.275 1.173.382.282.408.198 1.187.198 1.187zm49.373.638c-1.736.778-1.428-.014-1.99-.638 0 0-.084-.779.197-1.188.502-.106.881-.238 1.174-.382-.18.264-.092.762.764 1.148.163.33.083.758-.145 1.06z" fill="#fcd5b2"/><g fill="#dba97f"><path d="m8.016 43.681c.045-.619.924-2.153 2.407-1.974-1.386.371-2.062 1.295-2.407 1.974z"/><path d="m6.397 42.923c-1.979-.153-4.993.071-4.294-1.305-.151 1.171 2.726.946 4.294 1.305z"/><path d="m4.664 41.531-.005.212c.867.302 1.312.231 1.312.231s-.496-.124-1.307-.443z"/><path d="m6.61 44.063c-2.397-.415-4.901.66-4.542-.855.052 1.215 2.237.12 4.542.855z"/><path d="m55.984 43.681c-.045-.619-.924-2.153-2.408-1.974 1.387.371 2.063 1.295 2.408 1.974z"/><path d="m57.602 42.923c1.98-.153 4.994.071 4.295-1.305.15 1.171-2.727.946-4.295 1.305z"/><path d="m59.336 41.531.004.212c-.867.302-1.311.231-1.311.231s.496-.124 1.307-.443z"/><path d="m57.389 44.063c2.398-.415 4.902.66 4.543-.855-.053 1.215-2.237.12-4.543.855z"/></g><path d="m40.475 39.087s-1.959-6.283-.547-13.37c.055-.276-2.936-.73-3.014-.346-2.143 10.691-7.687 10.688-9.828 0-.078-.385-3.068.069-3.014.346 1.412 7.087-.548 13.37-.548 13.37.732 3.616.974 6.627.974 6.627 3.985 4.37 11.02 4.366 15.002 0 0 0 .242-3.011.975-6.627z" fill="#7ab51d"/><path d="m28.379 23.883c3.291 2.502 3.951 2.5 7.242-.001z" fill="#dba97f"/><path d="m23.068 11.792c-2.986-.538-.653 7.813 1.685 5.51 1.083-1.069-.288-5.257-1.685-5.51z" fill="#dba97f"/><path d="m40.932 11.792c-1.396.253-2.77 4.441-1.684 5.51 2.338 2.302 4.668-6.048 1.684-5.51z" fill="#dba97f"/><path d="m32 2c-6.176 0-9.152 4.672-8.779 11.169.074 1.309.885 5.571 1.649 7.101.782 1.564 3.403 3.977 5.006 4.476 1.014.315 3.23.315 4.244 0 1.605-.499 4.225-2.911 5.008-4.476.764-1.529 1.574-5.792 1.648-7.101.374-6.497-2.6-11.169-8.776-11.169z" fill="#fcd5b2"/><path d="m32 19.687c-1.391-.409-3.447.192-3.447.192.783.854 1.357 1.963 3.447 1.963 2.392 0 2.798-1.257 3.447-1.963 0 0-2.06-.604-3.447-.192z" fill="#cc9d76"/><path d="m29.079 20.024c1.455 1.222 4.396 1.229 5.861 0-1.553.066-4.299.067-5.861 0z" fill="#fff"/><path d="m33.914 17.39c0 1.247-3.83 1.247-3.83 0 0-.286 3.83-.286 3.83 0z" fill="#dba97f"/><path d="m32 2c-4.25 0-6.816 1.403-7.923.865 0 0-.12.724.313 1.195 0 0-.457.396-1.196-.271-.704 2.285 1.386 3.609 8.806 3.609 7.419 0 5.646-1.807 9.294 1.367-.356-3.911-2.841-6.765-9.294-6.765z" fill="#3a2c29"/><path d="m35.143 5.409c-4.085 1.509-5.58-1.211-9.434-1.475 1.833.866 2.727 2.198 4.233 3.159-3.276-1.097-5.68-2.983-5.863-4.223 0 0-.547 1.81 1.615 3.161-2.067.192-2.499-2.236-2.499-2.236-1.047 1.682-.901 7.106.262 11.132.193-1.437-.248-2.031.415-3.762 1.987-5.173.709-3.001 8.13-3.001 7.417 0 6.078-1.981 8.126 3.001.609 1.485.223 2.325.416 3.762 2.44-9.075-1.067-11.116-5.401-9.518z" fill="#1e1513"/><path d="m38.953 11.071c-1.412-.701-4.115-.735-5.121-.248-.215.096-.074.762.107.696 1.404-.519 3.668-.531 4.98.046.175.074.249-.395.034-.494z" fill="#cc9d76"/><path d="m25.045 11.071c1.413-.701 4.116-.735 5.124-.248.215.096.074.762-.109.696-1.404-.519-3.666-.531-4.981.046-.175.074-.248-.395-.034-.494z" fill="#cc9d76"/><path d="m30.004 13.688c-1.17.746-2.986.746-4.157 0-.179-.115-.284.01-.229.105 1.137 1.926 3.477 1.926 4.614 0 .058-.095-.05-.22-.228-.105z" fill="#45332c"/><path d="m38.15 13.688c-1.17.746-2.986.746-4.154 0-.18-.115-.285.01-.23.105 1.137 1.926 3.477 1.926 4.613 0 .057-.095-.049-.22-.229-.105z" fill="#45332c"/></svg>