<svg enable-background="new 0 0 64 64" height="64" viewBox="0 0 64 64" width="64" xmlns="http://www.w3.org/2000/svg"><path d="m8.682 27.566c-7.797-1.406-1.707 20.396 4.396 14.383 2.829-2.787-.749-13.724-4.396-14.383z" fill="#755035"/><path d="m55.319 27.566c-3.649.659-7.227 11.596-4.396 14.383 6.105 6.014 12.189-15.789 4.396-14.383z" fill="#755035"/><path d="m32.001 2.002c-16.123 0-23.891 12.198-22.918 29.158.195 3.413 2.309 14.544 4.307 18.536 2.045 4.084 8.879 10.383 13.068 11.687 2.646.823 8.439.823 11.084 0 4.189-1.304 11.027-7.603 13.07-11.687 2-3.992 4.113-15.123 4.307-18.536.974-16.96-6.793-29.158-22.918-29.158z" fill="#916b50"/><path d="m32.001 48.176c-3.627-1.067-9 .505-9 .505 2.047 2.229 3.547 5.121 9 5.121 6.248 0 7.311-3.282 9-5.121 0 0-5.377-1.578-9-.505z" fill="#664129"/><g fill="#fff"><path d="m24.374 49.057c3.801 3.19 11.48 3.21 15.301 0-4.051.174-11.221.176-15.301 0z"/><path d="m49.262 32.473c-2.154 5.64-10.918 4.813-12.525.866 1.219-6.34 11.342-6.883 12.525-.866z"/><path d="m14.737 32.473c2.154 5.64 10.922 4.813 12.525.866-1.218-6.343-11.338-6.885-12.525-.866z"/></g><path d="m50.157 25.684c-3.688-1.83-10.744-1.919-13.373-.644-.563.247-.191 1.982.283 1.816 3.664-1.357 9.572-1.39 13.002.117.457.195.647-1.033.088-1.289z" fill="#664129"/><path d="m13.844 25.684c3.688-1.83 10.742-1.919 13.373-.644.563.247.191 1.982-.281 1.816-3.67-1.357-9.572-1.39-13.004.117-.457.195-.644-1.033-.088-1.289z" fill="#664129"/><path d="m37.001 42.179c0 3.254-9.998 3.254-9.998 0 0-.747 9.998-.747 9.998 0z" fill="#755035"/><path d="m32.001 2c-11.092 0-17.793 3.664-20.684 2.258 0 0-.314 1.892.818 3.123 0 0-1.195 1.033-3.125-.71-1.838 5.968 3.617 9.426 22.99 9.426s14.744-4.718 24.27 3.567c-.933-10.212-7.424-17.664-24.269-17.664z" fill="#614036"/><path d="m40.204 10.904c-10.666 3.937-14.566-3.166-24.627-3.852 4.785 2.26 7.123 5.738 11.053 8.249-8.555-2.865-14.832-7.789-15.309-11.025 0 0-1.428 4.725 4.217 8.255-5.396.5-6.523-5.841-6.523-5.841-2.115 3.398-2.365 12.651-.963 21.533.604 8.092-.014 11.122 1.289 15.487 4.316 14.446 13.292 18.284 22.66 18.29 9.367-.006 18.344-3.844 22.658-18.29 1.324-4.434.666-7.483 1.318-15.863 2.42-16.953-5.845-20.608-15.773-16.943zm-5.231 45.163c-1.299-.535-1.723-1.607-1.723-1.607h-2.5s-.424 1.072-1.723 1.607c-2.988 1.213-8.742-7.291-7.117-7.826 2.072-.683 5.684-.919 10.09-.92 4.404.001 8.016.237 10.09.92 1.626.535-4.128 9.039-7.117 7.826zm10.703-6.707s-.824-2.043-3.012-3.123c-2.75-1.361-5.225-1.028-10.664-1.02-5.441-.009-7.916-.342-10.664 1.02-2.188 1.08-3.012 3.123-3.012 3.123-9.119-6.037-9.428-18.516-7.543-23.429 5.188-13.506 1.85-7.835 21.221-7.835 19.373 0 15.875-5.171 21.221 7.835 1.828 4.448 1.516 17.429-7.547 23.429z" fill="#4a2e24"/><path d="m38.973 31.872c0 4.949 7.16 4.949 7.16 0 0-4.594-7.16-4.594-7.16 0z" fill="#613f34"/><path d="m39.682 33.456c0 2.838 5.742 2.838 5.742 0 0-2.635-5.742-2.635-5.742 0z" fill="#7d5037"/><path d="m41.067 31.95c0 2.055 2.973 2.055 2.973 0 0-1.906-2.973-1.906-2.973 0z" fill="#1a1626"/><path d="m40.053 31.35c0 1.037 1.5 1.037 1.5 0 0-.962-1.5-.962-1.5 0z" fill="#ab968c"/><path d="m17.87 31.871c0 4.949 7.158 4.949 7.158 0 0-4.594-7.158-4.594-7.158 0z" fill="#613f34"/><path d="m18.577 33.454c0 2.838 5.744 2.838 5.744 0 0-2.634-5.744-2.634-5.744 0z" fill="#7d5037"/><path d="m19.964 31.949c0 2.054 2.971 2.054 2.971 0-.001-1.907-2.971-1.907-2.971 0z" fill="#1a1626"/><path d="m18.948 31.348c0 1.038 1.5 1.038 1.5 0 0-.962-1.5-.962-1.5 0z" fill="#ab968c"/><path d="m49.262 32.431c0-6.056-12.525-6.056-12.525.959 1.789-5.755 10.736-5.755 12.525-.959z" fill="#755035"/><path d="m14.737 32.431c0-6.056 12.525-6.056 12.525.957-1.787-5.757-10.736-5.757-12.525-.957z" fill="#755035"/></svg>