<svg enable-background="new 0 0 64 64" height="64" viewBox="0 0 64 64" width="64" xmlns="http://www.w3.org/2000/svg"><path d="m62 22c-8.075 8.922-20.783 8.977-30 8.971-9.217.006-21.925-.049-30-8.971 0 16.412 19.279 21.006 12.485 30.964-2.146 3.147 37.176 3.147 35.029 0-6.791-9.958 12.486-14.552 12.486-30.964z" fill="#1a1626"/><path d="m32 30.971c-9.217.006-19.985-.516-28-7.018 0 9.727 26.279 21.068 19.486 31.025-2.146 3.147 19.174 3.147 17.027 0-6.793-9.957 19.487-21.299 19.487-31.025-8.015 6.502-18.783 7.024-28 7.018z" fill="#e81c27"/><path d="m31.896 16.537c.108 0 .108 0 0 0z" fill="#e81c27"/><path d="m54.205 52.6c-2.7-1.373-13.912-5.002-13.912-5.002l-16.695.02s-11.192 3.647-13.88 5.032c-3.899 2.009-4.708 9.35-4.708 9.35l54-.064s-.884-7.345-4.805-9.336z" fill="#1a1626"/><path d="m40.006 48.78c0 4.096-16 4.096-16 0 0-2.634 0-9.079 0-9.079h16z" fill="#e6b045"/><path d="m23.287 51.345 1.75 10.655h13.943l1.752-10.655z" fill="#e6ebef"/><path d="m23.287 51.345s.559 4.776 1.75 5.655c1.401 1.033 4.18-1.45 6.96-1.449 2.789.002 5.578 2.484 6.983 1.449 1.191-.878 1.752-5.655 1.752-5.655z" fill="#bec3cf"/><path d="m39.916 62s4.457-5.756 6.301-12.166l-7.123.917s.104 4.385-2.434 11.249z" fill="#302c3b"/><path d="m24.104 62s-4.457-5.756-6.299-12.166l7.121.917s-.104 4.385 2.436 11.249z" fill="#302c3b"/><path d="m31.359 51.329c-2.197-5.925-11.33-4.804-10.561-2.619.502 1.43.477 3.153-.131 4.535-1.149 2.614 9.067 4.723 10.692-1.916z" fill="#e81c27"/><path d="m32.629 51.324c2.182-5.926 11.318-4.83 10.555-2.643-.498 1.429-.469 3.152.143 4.532 1.153 2.613-9.057 4.751-10.698-1.889z" fill="#e81c27"/><g fill="#b00505"><path d="m32.95 50.916c1.748.349 3.586-2.706 4.125-.669.68 2.552-3.256 2.755-4.125.669z"/><path d="m30.76 52.76c-2.363 3.2-8.324 2.997-9.483 1.332-1.443-2.073 4.758 2.166 9.483-1.332z"/><path d="m33.234 52.76c2.363 3.2 8.324 2.997 9.483 1.332 1.443-2.073-4.758 2.166-9.483-1.332z"/><path d="m31.034 50.92c-1.748.354-3.594-2.696-4.127-.659-.674 2.553 3.262 2.748 4.127.659z"/></g><path d="m32 54.013c-1.385.001-1.727 1.079-1.732-2.665-.004-3.746.34-2.667 1.727-2.67 1.385-.001 1.727-1.082 1.732 2.665.003 3.743-.34 2.668-1.727 2.67z" fill="#e81c27"/><path d="m32 2c-12.452 0-17.771 6.588-17.771 15.608h35.535c.001-9.02-5.32-15.608-17.764-15.608z" fill="#302c3b"/><path d="m14.897 21.749c-5.719-1.031-1.252 14.958 3.225 10.547 2.072-2.046-.551-10.065-3.225-10.547z" fill="#e6b045"/><path d="m49.097 21.749c-2.674.482-5.299 8.502-3.223 10.547 4.477 4.41 8.938-11.579 3.223-10.547z" fill="#e6b045"/><path d="m31.997 9c-11.824 0-17.521 2.946-16.807 15.383.143 2.504 1.693 10.667 3.158 13.594 1.498 2.994 6.512 7.613 9.584 8.57 1.939.604 6.188.604 8.127 0 3.072-.957 8.086-5.576 9.586-8.57 1.465-2.928 3.016-11.09 3.158-13.594.716-12.437-4.982-15.383-16.806-15.383z" fill="#fc6"/><path d="m35.663 32.464c0 2.387-7.332 2.387-7.332 0 0-.547 7.332-.547 7.332 0z" fill="#e6b045"/><path d="m31.999 7.528c-6.707-2.476-22.621-3.075-16.359 20.222.373-2.75-.371-6.357.799-9.201 3.628-8.826 5.185-9.125 15.561-5.746 10.376-3.379 11.933-3.08 15.561 5.746 1.17 2.844.426 6.451.799 9.201 6.26-23.297-9.654-22.698-16.361-20.222z" fill="#1a1626"/><path d="m44.655 25.346c-1.58 4.135-8.008 3.529-9.186.635.895-4.65 8.319-5.047 9.186-.635z" fill="#fff"/><path d="m19.337 25.346c1.58 4.135 8.01 3.529 9.186.635-.895-4.652-8.317-5.049-9.186-.635z" fill="#fff"/><path d="m45.312 20.368c-2.705-1.342-7.879-1.408-9.807-.473-.412.182-.141 1.455.207 1.332 2.688-.994 7.02-1.018 9.535.086.334.143.475-.758.065-.945z" fill="#302c3b"/><path d="m18.683 20.368c2.703-1.342 7.877-1.408 9.807-.473.412.182.141 1.455-.207 1.332-2.691-.994-7.02-1.018-9.537.086-.335.143-.474-.758-.063-.945z" fill="#302c3b"/><path d="m37.11 24.905c0 3.629 5.25 3.629 5.25 0 0-3.369-5.25-3.369-5.25 0z" fill="#820505"/><path d="m37.63 26.067c0 2.08 4.211 2.08 4.211 0 0-1.932-4.211-1.932-4.211 0z" fill="#b00505"/><path d="m38.646 24.961c0 1.508 2.18 1.508 2.18 0-.001-1.396-2.18-1.396-2.18 0z" fill="#1a1626"/><path d="m37.901 24.522c0 .762 1.102.762 1.102 0 0-.705-1.102-.705-1.102 0z" fill="#ab968c"/><path d="m21.634 24.905c0 3.629 5.25 3.629 5.25 0 0-3.369-5.25-3.369-5.25 0z" fill="#820505"/><path d="m22.153 26.065c0 2.082 4.211 2.082 4.211 0 0-1.932-4.211-1.932-4.211 0z" fill="#b00505"/><path d="m23.169 24.961c0 1.506 2.18 1.506 2.18 0 0-1.398-2.18-1.398-2.18 0z" fill="#1a1626"/><path d="m22.425 24.522c0 .76 1.1.76 1.1 0-.001-.707-1.1-.707-1.1 0z" fill="#ab968c"/><path d="m44.655 25.315c0-4.441-9.186-4.441-9.186.703 1.313-4.221 7.874-4.221 9.186-.703z" fill="#302c3b"/><path d="m19.337 25.315c0-4.441 9.186-4.441 9.186.701-1.311-4.221-7.874-4.221-9.186-.701z" fill="#302c3b"/><path d="m31.999 36.834c-2.467-.688-7.252.383-7.252.383 1.65 1.691 2.859 3.887 7.252 3.887 4.391 0 5.6-2.195 7.248-3.887 0 0-4.783-1.071-7.248-.383z" fill="#302c3b"/><path d="m25.673 37.273c.197.482 2.807 2.281 6.324 2.281 3.52 0 6.129-1.799 6.326-2.281-3.152.155-9.474.157-12.65 0z" fill="#fff"/><path d="m26.929 37.371.939 4.733 1-4.612z" fill="#fff"/><path d="m37.067 37.371-.939 4.733-1-4.612z" fill="#fff"/></svg>