<svg enable-background="new 0 0 64 64" height="64" viewBox="0 0 64 64" width="64" xmlns="http://www.w3.org/2000/svg"><path d="m62 19.244c-8.076 10.42-20.783 10.482-30 10.475-9.217.008-21.926-.055-30-10.475 0 19.166 13.277 24.531 6.484 36.158-2.146 3.676 49.176 3.676 47.029 0-6.79-11.627 6.487-16.992 6.487-36.158z" fill="#1a1626"/><path d="m32 29.719c-9.217.008-19.986-.6-28-8.193 0 11.357 20.279 24.602 13.486 36.23-2.148 3.676 31.174 3.676 29.027 0-6.792-11.629 13.487-24.873 13.487-36.231-8.016 7.594-18.783 8.202-28 8.194z" fill="#e81c27"/><path d="m45.145 54.348c-.357-5.432 3.639-12.105 7.578-17.697.551-3.604.719-7.111.777-10.008v-3.055c.715-11.984-7.812-21.588-21.557-21.588-13.871 0-22.16 9.604-21.445 21.588v3.055c.029 2.854.174 6.322.701 9.898 3.98 5.652 8.049 12.391 7.646 17.879 3.091 2.793 23.198 2.762 26.3-.072z" fill="#302c3b"/><path d="m45.145 54.348c5.947-6.721 5.396-35.732 5.396-35.732h-2s-15.203 4.803-33 0h-2s-.967 29.365 5.305 35.805c4.588 4.71 21.941 4.85 26.299-.073z" fill="#1a1626"/><path d="m11.434 50.848c6.533-4.299 34.666-4.334 41.191-.004 3.615 2.392 4.375 11.156 4.375 11.156h-50s.809-8.771 4.434-11.152" fill="#1a1626"/><path d="m38.998 47.488v-9.709h-7-6.998v9.709l-8.439 1.564 2.219 6.436s3.109 4.959 13.219 6.508v.002s0 0 .002-.002v.002-.002c10.111-1.549 13.219-6.508 13.219-6.508l2.219-6.436z" fill="#b88a6f"/><path d="m34.268 54.43c-1.277.75-2.27 2.459-2.27 2.459s-.992-1.709-2.268-2.459c2.266 3.84 1.719 5.568 1.719 5.568h1.098s-.551-1.967 1.721-5.568z" fill="#946346"/><path d="m32 61.996c4.057-.621 6.988-1.793 9.041-2.971h-9.041-.002-9.041c2.055 1.178 4.984 2.35 9.041 2.971v.002s0 0 .002-.002v.002z" fill="#e81c27"/><path d="m42.99 62s5.635-7.818 7.965-16.525l-9.004 1.246s.131 5.955-3.076 15.279z" fill="#302c3b"/><path d="m21.004 62s-5.633-7.818-7.961-16.525l9 1.246s-.131 5.955 3.078 15.279z" fill="#302c3b"/><path d="m24.285 43.686c7.051 7.256 8.467 7.252 15.514-.004z" fill="#946346"/><path d="m32.041 19.068c-10.527.008-16.5-.451-16.5-.453-.021 3.951.773 11.689 1.354 14.545 1.666 8.129 11.398 14.455 15.146 14.455 3.75 0 13.482-6.326 15.146-14.455.592-2.855 1.375-10.594 1.354-14.545 0 .002-5.973.461-16.5.453z" fill="#b88a6f"/><path d="m32 38.152c-2.445-.285-4.965-.33-7.5-.096 5.479 3.803 9.521 3.803 15 0-2.533-.234-5.039-.189-7.5.096z" fill="#ab1c27"/><path d="m26.93 38.072.939 3.315 1-3.231z" fill="#fff"/><path d="m37.068 38.072-.939 3.315-1-3.231z" fill="#fff"/><path d="m34.988 37.207c-2.211-.791-3.002.264-2.988.25.016.014-.775-1.041-2.988-.25-1.699.594-4.512.82-4.512.85 3.076-.043 3.531.77 7.5.66 3.971.109 4.424-.703 7.5-.66 0-.03-2.812-.256-4.512-.85z" fill="#820505"/><path d="m44.836 21.611c-2.617-1.561-7.309-1.75-9.166-.688-.393.213-.287 1.34.053 1.199 2.648-1.104 6.682-1.158 9.168.117.334.171.339-.401-.055-.628z" fill="#36281d"/><path d="m19.248 21.611c2.615-1.561 7.307-1.75 9.166-.688.393.213.289 1.34-.055 1.199-2.648-1.104-6.68-1.158-9.166.117-.334.171-.341-.401.055-.628z" fill="#36281d"/><path d="m35.641 33.346c0 2.342-7.199 2.342-7.199 0-.001-.537 7.199-.537 7.199 0z" fill="#946346"/><path d="m44.582 26.357c-1.551 4.061-7.861 3.465-9.016.623.875-4.564 8.163-4.955 9.016-.623z" fill="#fff"/><path d="m37.146 25.916c0 3.596 5.201 3.596 5.201 0 .001-3.338-5.201-3.338-5.201 0z" fill="#613f34"/><path d="m37.66 27.066c0 2.063 4.172 2.063 4.172 0 0-1.914-4.172-1.914-4.172 0z" fill="#b00505"/><path d="m38.668 25.973c0 1.492 2.158 1.492 2.158 0 0-1.385-2.158-1.385-2.158 0z" fill="#1a1626"/><path d="m37.93 25.537c0 .754 1.09.754 1.09 0 0-.699-1.09-.699-1.09 0z" fill="#ab968c"/><path d="m44.582 26.326c0-4.361-9.016-4.361-9.016.691 1.286-4.146 7.729-4.146 9.016-.691z" fill="#45332c"/><path d="m19.5 26.357c1.553 4.061 7.863 3.467 9.02.623-.877-4.564-8.165-4.955-9.02-.623z" fill="#fff"/><path d="m21.736 25.922c0 3.596 5.199 3.596 5.199 0 .001-3.338-5.199-3.338-5.199 0z" fill="#613f34"/><path d="m22.25 27.072c0 2.063 4.172 2.063 4.172 0 0-1.914-4.172-1.914-4.172 0z" fill="#b00505"/><path d="m23.256 25.979c0 1.492 2.16 1.492 2.16 0 0-1.385-2.16-1.385-2.16 0z" fill="#1a1626"/><path d="m22.52 25.543c0 .754 1.09.754 1.09 0-.001-.701-1.09-.701-1.09 0z" fill="#ab968c"/><path d="m19.5 26.326c0-4.361 9.02-4.361 9.02.689-1.288-4.144-7.731-4.144-9.02-.689z" fill="#45332c"/></svg>