<svg enable-background="new 0 0 64 64" height="64" viewBox="0 0 64 64" width="64" xmlns="http://www.w3.org/2000/svg"><path d="m47.567 53.634c0 .577 3.051.577 3.051 0 0-2.336-3.051-2.336-3.051 0z" fill="#f9b700"/><g fill="#f59e01"><path d="m44.776 55.403c0 .715 8.633.715 8.633 0 0-2.894-8.633-2.894-8.633 0z"/><path d="m44.776 61.464c0 .715 8.633.715 8.633 0 0-2.893-8.633-2.893-8.633 0z"/><path d="m56.019 58.75c7.49 3.769 3.059-7.946-2.23-2.876-4.489 2.148.843 6.871 2.23 2.876zm-1.711-2.222c3.063-2.932 6.52 2.456 2.711 1.926 1.23-1.854-2.215-2.367-1.773-.688-.953-.584-2.105.658-1.016 1.445-1.286-.204-1.61-1.874.078-2.683z"/></g><path d="m54.97 55.685c-5.346-2.746-8.012.461-16.77-2.451-.768.432-2.227.506-1.18 1.748 8.202-1.072 10.192 11.078 17.95.703z" fill="#f9b700"/><path d="m38.347 53.522c-.097-.191-1.515.531-1.418.724.395.776 1.815.054 1.418-.724z" fill="#ab5c10"/><path d="m33.616 35.595c-2.148 8.857-9.323 11.584-11.426 5.801-2.568-.82-10.931-.822-13.506 0-5.17 13.68 15.162 23.426 24.807.502 8.063-19.157 22.899-8.189 5.896 2.104-9.945 6.021-5.594 9.041-1.332 10.392-4.088-3.481-1.779-5.417 3.291-7.686 33.201-14.87-2.989-30.656-7.73-11.113z" fill="#0fb4d4"/><path d="m21.649 39.262c0 2.667-12.426 2.667-12.426 0 0 0-.105-5.249-1.797-8.333h16.02c-1.693 3.084-1.797 8.333-1.797 8.333z" fill="#b30bad"/><path d="m22.19 41.396c0 2.666-6.754 4.408-6.754 4.408s-6.752-1.742-6.752-4.408c.66-2.154.539-2.134.539-2.134 3.62 1.86 8.808 1.86 12.426 0 0 0-.095.542.541 2.134z" fill="#f9b700"/><path d="m39.184 20.683c-14.624-2.274-7.967-14.921-17.237-18.327-5.935-2.181-9.389 6.247-5.978 9.2 9.35-6.396 5.981 13.887 23.215 9.127z" fill="#014d87"/><path d="m34.488 22.193c-11.982-3.189-6.718-16.38-13.274-18.537-4.884-1.607-7.097 5.434-4.318 8.031 9.06-5.038.715 11.647 17.592 10.506z" fill="#012a4a"/><path d="m15.072 4.319c1.065-3.015 7.193-.844 6.126 2.171-.23.651-6.396-1.413-6.126-2.171z" fill="#f59e01"/><path d="m18.13 18.07c-.727-.609-4.665-.609-5.388 0-.103 3.602-.389 3.322-5.51 4.562 0 2.631 8.203 5.984 8.203 5.984s8.203-3.353 8.203-5.984c-5.123-1.239-5.407-.96-5.508-4.562z" fill="#0fb4d4"/><path d="m16.203 25.001c-.43.449-.768 1.472-.768 1.472s-.335-1.022-.768-1.472c.768 2.3.582 3.335.582 3.335h.372c.001 0-.185-1.179.582-3.335z" fill="#006dae"/><path d="m8.68 33.074h13.512c.425-3.133 1.495-5.989 4.198-6.306.979-1.209.671-4.473-2.903-4.267-4.444 1.613-2.684 5.095-8.051 5.095-5.369 0-3.608-3.481-8.053-5.095-3.572-.207-3.883 3.057-2.901 4.267 2.704.317 3.774 3.173 4.198 6.306z" fill="#b30bad"/><path d="m4.557 26.281c.85-1.189 3.032-.107 3.522.71.882 2.015 1.059 4.83 1.512 5.308 3.678-.979 11.611-.35 10.717 1.997-8.757 1.326-11.34 1.556-13.075 1.492-.592-.02-1.833-3.828-2.676-9.507z" fill="#0fb4d4"/><path d="m9.591 32.299c3.678-.979 11.611-.35 10.717 1.997 0 0-2.129.435-4.043.598-2.089-1.676-5.47-2.544-6.674-2.595z" fill="#0099b5"/><path d="m26.313 26.281c-.85-1.189-3.031-.107-3.522.71-.882 2.015-.699 4.18-1.152 4.658-6.202-.877-11.089-1.923-12.047.65 4.274-.658 7.818 3.024 14.048 3.489.589.045 1.83-3.828 2.673-9.507z" fill="#0fb4d4"/><path d="m11.663 30.811c-.501.143-.721 1.15-.265 1.451.455.298 4.029 1.413 4.35 1.306-.475-.582.049-2.492 1.209-2.591-.233-.367-3.597-.652-5.294-.166z" fill="#d47706"/><path d="m16.311 31.268c-1.725-.349-4.291-.222-4.982-.18-.114.177-.18.404-.178.622 1.19.029 3.351.226 4.561.479.118-.356.323-.689.599-.921z" fill="#f9b700"/><path d="m18.156 19.442c-2.475 3.08-2.972 3.078-5.446-.002z" fill="#0099b5"/><path d="m20.69 15.055c1.695 1.691 3.387-4.44 1.221-4.045-1.014.185-2.007 3.261-1.221 4.045z" fill="#0099b5"/><path d="m10.178 15.055c.786-.784-.208-3.859-1.222-4.045-2.164-.396-.475 5.736 1.222 4.045z" fill="#0099b5"/><path d="m21.88 12.261c-.056.955-.321 2.332-.649 3.512-.68 2.452-4.269 4.921-5.797 4.921s-5.117-2.469-5.797-4.922c-.328-1.18-.594-2.557-.649-3.511-.273-4.749 1.911-8.441 6.446-8.441 4.536-.001 6.718 3.693 6.446 8.441z" fill="#0fb4d4"/><path d="m18.247 16.872c-.529.599-.859 1.658-2.813 1.658-1.703 0-2.173-.933-2.813-1.658 1.702-.114 1.711-.579 2.813-.095 1.102-.485 1.11-.02 2.813.095z" fill="#006dae"/><path d="m17.735 17.053c-1.097 1.14-3.492 1.155-4.604 0 1.712.183 2.894.183 4.604 0z" fill="#fff"/><path d="m20.453 10.782c-.971-.498-2.547-.477-3.581-.045-.133.055-.175-.385-.021-.469.726-.416 2.559-.341 3.58.269.155.088.152.311.022.245z" fill="#014d87"/><path d="m10.415 10.782c.972-.499 2.546-.477 3.581-.045.134.055.175-.385.021-.469-.727-.416-2.559-.341-3.58.269-.155.088-.153.311-.022.245z" fill="#014d87"/><path d="m14.027 15.12c0 .915 2.813.915 2.813 0 0-.21-2.813-.21-2.813 0z" fill="#0099b5"/><path d="m21.852 12.617c-.948-4.883-5.468-4.253-2.288-7.512 1.991-.625 4.309 4.627 2.288 7.512z" fill="#014d87"/><path d="m19.563 5.104c-1.93 4.856-8.842 4.211-10.573 7.199-.694-2.493-.349-7.241 4.018-8.759 3.94-1.37 7.06.82 6.555 1.56z" fill="#014d87"/><path d="m19.563 5.105c-1.117 2.786-4.845 2.187-9.662 4.283 4.48-3.164 6.328-1.789 9.662-4.283z" fill="#012a4a"/><path d="m19.563 5.104c-1.732 5.579-7.929 4.368-10.573 7.199 1.171-3.311 7.682-2.583 10.573-7.199z" fill="#012a4a"/><path d="m21.826 9.536c-1.563-4.312-3.778-2.577-3.344-3.711 1.283-.664 2.985.714 3.344 3.711z" fill="#012a4a"/><path d="m20.299 12.445c-.604 1.576-3.049 1.345-3.5.242.344-1.77 3.168-1.923 3.5-.242z" fill="#fff"/><path d="m17.424 12.274c0 1.383 1.998 1.383 1.998 0 0-1.282-1.998-1.282-1.998 0z" fill="#302c3b"/><path d="m20.299 12.433c0-1.691-3.5-1.691-3.5.269.502-1.608 2.998-1.608 3.5-.269z" fill="#302c3b"/><path d="m17.537 11.934c0 .346.502.346.502 0 0-.321-.502-.321-.502 0z" fill="#f5f5f5"/><path d="m10.572 12.445c.602 1.576 3.049 1.345 3.496.242-.339-1.77-3.166-1.923-3.496-.242z" fill="#fff"/><path d="m13.445 12.277c0 1.383-1.996 1.383-1.996 0 0-1.284 1.996-1.284 1.996 0z" fill="#302c3b"/><path d="m10.572 12.433c0-1.691 3.496-1.691 3.496.269-.5-1.609-2.996-1.609-3.496-.269z" fill="#302c3b"/><path d="m12.127 11.864c0 .346-.5.346-.5 0 0-.32.5-.32.5 0z" fill="#f5f5f5"/><path d="m21.649 39.262c-.504.259-1.043.474-1.6.66.048 1.247.194 2.505.449 3.757.969-.645 1.691-1.414 1.691-2.283-.635-1.592-.54-2.134-.54-2.134z" fill="#d47706"/><path d="m10.825 39.923c-.557-.188-1.098-.402-1.602-.661 0 0 .121-.021-.539 2.134 0 .869.724 1.639 1.692 2.284.255-1.253.401-2.511.449-3.757z" fill="#d47706"/></svg>