<svg enable-background="new 0 0 64 64" height="64" viewBox="0 0 64 64" width="64" xmlns="http://www.w3.org/2000/svg"><path d="m17.025 31.799h29.949v22.832h-29.949z" fill="#ad883d"/><path d="m23.582 50.029 8.418 7.214 8.421-7.214v-7.689h-16.839z" fill="#e6b045"/><path d="m54.276 52.943c-.085-.041-.103-.335 0-.424-3.511-1.289-7.008-2.193-10.166-2.847-.941-4.151.971-6.019.971-6.019-10.263.001-13.081 13.59-13.081 13.59s-2.818-13.589-13.082-13.589c0 0 1.912 1.867.971 6.019-3.159.653-6.654 1.558-10.165 2.847.102.089.085.383 0 .424-3.903 1.943-4.724 9.056-4.724 9.056h54s-.821-7.113-4.724-9.057z" fill="#529320"/><g fill="#297124"><path d="m54.276 52.52c-4.567 4.873-2.844 9.48-2.844 9.48s-.316-5.258 3.02-8.963c.109-.277-.008-.504-.176-.517z"/><path d="m34.854 59.439s6.597-5.153 9.248-9.775c-2.114 5.596-9.248 9.775-9.248 9.775z"/><path d="m9.724 52.52c4.567 4.873 2.845 9.48 2.845 9.48s.315-5.258-3.021-8.963c-.109-.277.007-.504.176-.517z"/><path d="m29.146 59.439s-6.597-5.153-9.247-9.775c2.112 5.596 9.247 9.775 9.247 9.775z"/></g><path d="m33.688 58.598c0 3.283-3.375 3.283-3.375 0 0-3.045 3.375-3.045 3.375 0z" fill="#c49a45"/><path d="m33.131 58.621c0 2.463-2.25 2.463-2.25 0 0-2.283 2.25-2.283 2.25 0z" fill="#e5bc5e"/><path d="m46.986 19.707s-.533 16.588-1.796 21.832c-2.075 8.621.661 12.703.902 20.42 2.074-5.971 3.872-13.092 2.668-23.994-.777-7.031 1.409-9.651.582-18.258-.066-.701-2.356 0-2.356 0z" fill="#c49a45"/><path d="m17.014 19.707s.533 16.588 1.796 21.832c2.076 8.621-.66 12.703-.903 20.42-2.073-5.971-3.871-13.092-2.666-23.994.776-7.031-1.409-9.651-.583-18.258.066-.701 2.356 0 2.356 0z" fill="#c49a45"/><path d="m11.284 17.988c-1.945-.33 3.035 20.932 6.921 17.314 2.134-1.988-4.168-16.843-6.921-17.314z" fill="#e6b045"/><path d="m52.715 17.988c-2.752.471-9.055 15.326-6.92 17.314 3.886 3.616 8.865-17.644 6.92-17.314z" fill="#e6b045"/><path d="m31.897 16.537c.108 0 .108 0 0 0z" fill="#e81c27"/><path d="m32.001 2c-12.452 0-17.771 6.589-17.771 15.608h35.535c.001-9.019-5.32-15.608-17.764-15.608z" fill="#ffd68c"/><path d="m31.998 9.001c-11.824 0-17.521 2.945-16.807 15.383.143 2.504 1.693 10.666 3.158 13.594 1.498 2.994 6.512 7.613 9.584 8.57 1.939.604 6.188.604 8.127 0 3.072-.957 8.086-5.576 9.586-8.57 1.465-2.928 3.016-11.09 3.158-13.594.716-12.438-4.982-15.383-16.806-15.383z" fill="#fc6"/><path d="m35.664 32.464c0 2.387-7.332 2.387-7.332 0 0-.547 7.332-.547 7.332 0z" fill="#e6b045"/><path d="m32 7.528c-6.707-2.475-22.621-3.075-16.359 20.223.373-2.75-.371-6.357.799-9.201 3.627-8.826 5.184-9.126 15.56-5.746 10.376-3.38 11.933-3.08 15.561 5.746 1.17 2.844.426 6.451.799 9.201 6.261-23.298-9.653-22.698-16.36-20.223z" fill="#c49a45"/><path d="m44.656 25.347c-1.58 4.135-8.008 3.529-9.186.635.895-4.651 8.319-5.047 9.186-.635z" fill="#fff"/><path d="m19.338 25.347c1.58 4.135 8.01 3.529 9.186.635-.895-4.653-8.317-5.049-9.186-.635z" fill="#fff"/><path d="m45.313 20.368c-2.705-1.342-7.879-1.408-9.807-.473-.412.182-.141 1.455.207 1.332 2.688-.994 7.02-1.018 9.535.086.334.143.475-.757.065-.945z" fill="#c1873c"/><path d="m18.684 20.368c2.703-1.342 7.877-1.408 9.807-.473.412.182.141 1.455-.207 1.332-2.691-.994-7.02-1.018-9.537.086-.335.143-.474-.757-.063-.945z" fill="#c1873c"/><path d="m37.111 24.905c0 3.629 5.25 3.629 5.25 0 0-3.369-5.25-3.369-5.25 0z" fill="#613f34"/><path d="m37.631 26.067c0 2.08 4.211 2.08 4.211 0 0-1.931-4.211-1.931-4.211 0z" fill="#7d5037"/><path d="m38.646 24.962c0 1.508 2.18 1.508 2.18 0 0-1.397-2.18-1.397-2.18 0z" fill="#1a1626"/><path d="m37.902 24.522c0 .762 1.102.762 1.102 0 0-.705-1.102-.705-1.102 0z" fill="#ab968c"/><path d="m21.635 24.905c0 3.629 5.25 3.629 5.25 0 0-3.369-5.25-3.369-5.25 0z" fill="#613f34"/><path d="m22.154 26.065c0 2.082 4.211 2.082 4.211 0 0-1.931-4.211-1.931-4.211 0z" fill="#7d5037"/><path d="m23.17 24.962c0 1.506 2.18 1.506 2.18 0 0-1.399-2.18-1.399-2.18 0z" fill="#1a1626"/><path d="m22.426 24.522c0 .76 1.1.76 1.1 0-.001-.707-1.1-.707-1.1 0z" fill="#ab968c"/><path d="m44.656 25.315c0-4.441-9.186-4.441-9.186.703 1.313-4.22 7.874-4.22 9.186-.703z" fill="#e6b045"/><path d="m19.338 25.315c0-4.441 9.186-4.441 9.186.701-1.311-4.22-7.874-4.22-9.186-.701z" fill="#e6b045"/><path d="m31.997 36.862c-2.66-.783-6.6.369-6.6.369 1.5 1.635 2.6 3.756 6.6 3.756 4.582 0 5.359-2.406 6.6-3.756 0 0-3.944-1.156-6.6-.369z" fill="#e6a400"/><path d="m26.403 37.509c2.787 2.34 8.418 2.354 11.221 0-2.971.127-8.228.129-11.221 0z" fill="#fff"/></svg>