<svg enable-background="new 0 0 64 64" height="64" viewBox="0 0 64 64" width="64" xmlns="http://www.w3.org/2000/svg" xmlns:xlink="http://www.w3.org/1999/xlink"><linearGradient id="a" gradientTransform="matrix(-1 -.0013 -.0013 1 1408.1316 -.0872)" gradientUnits="userSpaceOnUse" x1="1357.9883" x2="1357.9883" y1="54.7109" y2="29.3262"><stop offset=".103" stop-color="#0cc"/><stop offset=".2127" stop-color="#00b3b8"/><stop offset=".4797" stop-color="#007b8d"/><stop offset=".7095" stop-color="#00526d"/><stop offset=".8904" stop-color="#003959"/><stop offset="1" stop-color="#003052"/></linearGradient><linearGradient id="b" gradientUnits="userSpaceOnUse" x1="14.416" x2="26.7608" y1="4.2905" y2="4.2905"><stop offset="0" stop-color="#99f2ff"/><stop offset=".3222" stop-color="#67d8ed"/><stop offset="1" stop-color="#00a4c9"/></linearGradient><linearGradient id="c" gradientUnits="userSpaceOnUse" x1="14.0269" x2="26.7964" y1="6.6723" y2="6.6723"><stop offset="0" stop-color="#99f2ff"/><stop offset=".1506" stop-color="#95f0fd"/><stop offset=".3137" stop-color="#88e9f9"/><stop offset=".4827" stop-color="#72def1"/><stop offset=".6557" stop-color="#54cfe7"/><stop offset=".83" stop-color="#2dbbd9"/><stop offset="1" stop-color="#00a4c9"/></linearGradient><linearGradient id="d" gradientTransform="matrix(-1 -.0013 -.0013 1 1408.1316 -.0872)" gradientUnits="userSpaceOnUse" x1="1357.3877" x2="1395.6113" y1="50.4922" y2="50.4922"><stop offset="0" stop-color="#0cc"/><stop offset="1" stop-color="#007ca6"/></linearGradient><linearGradient id="e" gradientTransform="matrix(.9063 .4226 -.4226 .9063 96.6529 -207.7241)" gradientUnits="userSpaceOnUse" x1="54.8359" x2="62.2471" y1="218.8838" y2="218.8838"><stop offset="0" stop-color="#f9af02"/><stop offset="1" stop-color="#ffca4d"/></linearGradient><linearGradient id="f"><stop offset="0" stop-color="#ffca4d"/><stop offset="1" stop-color="#f9af02"/></linearGradient><linearGradient id="g" gradientTransform="matrix(.9063 .4226 -.4226 .9063 96.6529 -207.7241)" gradientUnits="userSpaceOnUse" x1="47.0234" x2="54.4336" xlink:href="#f" y1="218.8838" y2="218.8838"/><linearGradient id="h" gradientTransform="matrix(.9063 .4226 -.4226 .9063 96.6529 -207.7241)" gradientUnits="userSpaceOnUse" x1="52.5098" x2="56.7598" xlink:href="#f" y1="224.4395" y2="224.4395"/><path d="m2.61 37.898c-.479-.793.747-2.084 3.351-3.988 2.456-1.795 2.531-3.857 4.349-5.795l2.455-3.729c1.414.661 2.743.622 3.42 2.239-.458.867-1.91 1.787-2.694 3.086-1.691 3.025-5.971 5.879-5.971 5.879-2.747 4.369-3.112 4.58-2.499 2.354-.291-.309-.464.16-1.707 1.369-2.456 2.388-.704-1.415-.704-1.415z" fill="#e6b045"/><path d="m59.597 27.485c8.031 22.227-6.393 19.091-9.883 25.372-.285-6.227-18.625-5.574-8.463-22.784.389 5.501 6.152 6.093 9.032 14.112.655-9.214 8.467-8.548 9.314-16.7z" fill="url(#a)"/><path d="m41.497 35.098c-3.965-2.555-2.581-6.256-6.344-7.928-.968-.432-1.236-2.51-3.478-5.205-.225-.867-1.791-4.402-5.243-3.875-.578-.159-2.284-.996-3.007-1.039-.896-1.521 1.042-3.5-3.604-2.92-1.993.345-.844 2.354-1.652 3.369-1.361.765-3.382.765-4.2 2.882-2.396 3.917-1.42 4.843-.751 5.376-.787 2.127 1.152 6.16 1.194 9.451-2.245 6.043 12.13 4.402 10.222.48-1.198-3.174.405-3.588 2.618-10.127 1.04 1.448 2.204 2.689 4.784 4.301 1.266 2.262 7.474 7.311 7.474 7.311 3.52 7.082 7.378-2.551 1.987-2.076z" fill="#fc6"/><path d="m56.556 9.208s.46 1.871.761 1.692c1.256-.741.904-6.926.904-6.926s-4.963 3.707-4.724 5.146c.057.347 1.784-.508 1.784-.508l-22.03 47.289 1.273.597z" fill="#f9af02"/><path d="m18.169 16.861c2.094 1.872 2.514 1.871 4.598-.007z" fill="#e6b045"/><path d="m14.419 8.631c-2.021-.366-.443 5.291 1.139 3.73.734-.721-.196-3.559-1.139-3.73z" fill="#e6b045"/><path d="m26.513 8.631c-.945.171-1.873 3.009-1.137 3.73 1.582 1.561 3.16-4.095 1.137-3.73z" fill="#e6b045"/><path d="m20.466 2c-4.18 0-6.197 3.162-5.943 7.564.051.885.598 3.771 1.115 4.807.533 1.06 2.305 2.693 3.393 3.03.686.213 2.188.213 2.873 0 1.086-.337 2.859-1.971 3.391-3.03.518-1.036 1.064-3.922 1.117-4.807.251-4.401-1.763-7.565-5.946-7.564z" fill="#fc6"/><path d="m20.466 13.977c-.941-.276-2.334.132-2.334.132.531.577.92 1.327 2.334 1.327 1.621 0 1.896-.851 2.332-1.327 0-.001-1.393-.411-2.332-.132z" fill="#e6a400"/><path d="m18.487 14.206c.988.827 2.979.831 3.971 0-1.053.044-2.912.045-3.971 0z" fill="#fff"/><path d="m21.763 12.421c0 .845-2.592.844-2.592 0 0-.192 2.592-.192 2.592 0z" fill="#e6b045"/><path d="m20.466 2c-2.875 0-4.615.951-5.364.587 0 0-.081.489.214.81 0 0-.311.267-.813-.185-.477 1.548.939 2.444 5.963 2.444 5.025 0 3.824-1.224 6.295.925-.241-2.648-1.926-4.581-6.295-4.581z" fill="url(#b)"/><path d="m22.593 4.311c-2.766 1.021-3.775-.822-6.387-1.001 1.244.586 1.85 1.488 2.867 2.141-2.219-.742-3.848-2.021-3.971-2.859 0 0-.37 1.225 1.094 2.141-1.4.129-1.693-1.516-1.693-1.516-.707 1.139-.609 4.813.178 7.538.131-.973-.168-1.374.281-2.547 1.346-3.503.481-2.032 5.505-2.032s4.118-1.342 5.503 2.032c.416 1.006.15 1.574.283 2.547 1.653-6.148-.723-7.528-3.66-6.444z" fill="url(#c)"/><path d="m24.944 9.904c-.561 1.462-2.834 1.248-3.248.225.315-1.645 2.94-1.786 3.248-.225z" fill="#fff"/><path d="m15.991 9.904c.555 1.462 2.829 1.248 3.246.225-.316-1.646-2.943-1.787-3.246-.225z" fill="#fff"/><path d="m25.175 8.143c-.957-.474-2.787-.498-3.469-.165-.145.063-.049.513.074.47.95-.352 2.482-.36 3.371.031.121.049.17-.27.024-.336z" fill="#c1873c"/><path d="m15.757 8.143c.957-.474 2.787-.498 3.469-.165.145.063.049.513-.073.471-.952-.353-2.483-.361-3.374.03-.118.049-.167-.27-.022-.336z" fill="#c1873c"/><path d="m22.276 9.748c0 1.284 1.855 1.284 1.855 0 .002-1.191-1.854-1.191-1.855 0z" fill="#613f34"/><path d="m22.461 10.159c-.001.735 1.489.735 1.49 0-.001-.683-1.491-.683-1.49 0z" fill="#7d5037"/><path d="m22.817 9.769c0 .531.771.531.771 0 .001-.496-.771-.496-.771 0z" fill="#1a1626"/><path d="m22.556 9.612c0 .269.389.269.389 0-.001-.25-.389-.25-.389 0z" fill="#ab968c"/><path d="m16.8 9.748c0 1.284 1.859 1.284 1.859-.001 0-1.19-1.859-1.19-1.859.001z" fill="#613f34"/><path d="m16.985 10.157c0 .737 1.488.737 1.489.001 0-.682-1.489-.682-1.489-.001z" fill="#7d5037"/><path d="m17.343 9.769c0 .531.773.53.773-.001 0-.495-.773-.495-.773.001z" fill="#1a1626"/><path d="m17.083 9.612c0 .269.389.269.389-.001 0-.25-.389-.248-.389.001z" fill="#ab968c"/><path d="m24.944 9.892c0-1.569-3.248-1.569-3.248.25.465-1.493 2.783-1.493 3.248-.25z" fill="#e6b045"/><path d="m15.991 9.892c0-1.569 3.246-1.569 3.246.249-.463-1.493-2.785-1.493-3.246-.249z" fill="#e6b045"/><path d="m42.172 39.033s-.099-.59.559-.795c-.306-.559.228-.99.641-.984-.163-.203.134-.668.134-.668s-1.418 1.125-2.076.773c-1.442-.771-.451-2.071.07-2.299 1.423-.623 2.163.294 3.717.67.292.07.821.557-.355 1.148 0 0 .746.582-.23 1.248.553.369-.141 1.195-.664 1.035-.054.809-.701 1.002-.966.832-.784 1.089-2.231-.695-.83-.96z" fill="#fc6"/><g fill="#e6b045"><path d="m12.973 24.48c-.219.461.674.881.892.418.2-.425-.692-.845-.892-.418z"/><path d="m23.321 24.897c.225.554 1.263.134 1.038-.419-.208-.513-1.246-.091-1.038.419z"/><path d="m15.295 26.459c-2.37-.213-2.782-1.664-2.782-1.664-.19 1.355.991 2.094 2.782 1.664z"/><path d="m26.433 24.202c-1.522 1.103-3.083 2.298-5.915 2.476 3.05.386 5.083-.574 5.915-2.476z"/><path d="m17.399 34.567c.271 1.52-.385 1.45-.239 1.95.149.499 1.327-.429.239-1.95z"/></g><path d="m14.412 35.209c-1.746 2.225-2.264 7.68-1.775 11.313 2.855 21.308 33.227 17.993 37.645 5.778.446-1.232 1.02-2.117-1.456-.863-6.646 3.359-21.51 4.414-20.768-6.498.346-5.084-2.263-8.381-3.424-9.25.092 2.463-10.545 5.766-10.222-.48z" fill="url(#d)"/><path d="m60.791 15.153c.182-.301.117.802.315.512 1.897-2.788-.095-6.835-.095-6.835s-.093 3.432-2.763 4.782c.71.519 2.687-.799 1.795.69-2.781 4.647-8.239 3.909-8.239 3.909l-.974 2.538c.001.001 6.659-.131 9.961-5.596z" fill="url(#e)"/><path d="m48.007 9.192c.113-.333-.689.425-.595.087.916-3.245 5.296-4.321 5.296-4.321s-2.569 2.277-1.887 5.19c-.854-.21-1.115-2.571-1.683-.931-1.772 5.117 2.302 8.823 2.302 8.823l-1.319 2.378c0 .001-4.179-5.184-2.114-11.226z" fill="url(#g)"/><path d="m53.246 19.673c-1.71 3.666-5.562 1.87-3.852-1.797s5.562-1.871 3.852 1.797z" fill="url(#h)"/></svg>