<svg enable-background="new 0 0 64 64" height="64" viewBox="0 0 64 64" width="64" xmlns="http://www.w3.org/2000/svg"><path d="m17.025 31.799h29.949v22.832h-29.949z" fill="#ad883d"/><path d="m23.582 50.029 8.418 7.213 8.422-7.213v-7.689h-16.84z" fill="#423225"/><path d="m54.277 52.943c-.086-.041-.104-.336 0-.424-3.512-1.289-7.008-2.193-10.166-2.848-.941-4.15.971-6.018.971-6.018-10.264.001-13.082 13.589-13.082 13.589s-2.818-13.588-13.082-13.588c0 0 1.912 1.867.971 6.018-3.158.654-6.654 1.559-10.164 2.848.102.088.084.383 0 .424-3.903 1.943-4.725 9.056-4.725 9.056h54s-.82-7.113-4.723-9.057z" fill="#529320"/><g fill="#297124"><path d="m54.277 52.52c-4.568 4.873-2.845 9.48-2.845 9.48s-.316-5.258 3.02-8.963c.109-.277-.007-.504-.175-.517z"/><path d="m34.854 59.439s6.598-5.154 9.248-9.775c-2.114 5.596-9.248 9.775-9.248 9.775z"/><path d="m9.725 52.52c4.566 4.873 2.844 9.48 2.844 9.48s.316-5.258-3.021-8.963c-.109-.277.007-.504.177-.517z"/><path d="m29.146 59.439s-6.598-5.154-9.248-9.775c2.114 5.596 9.248 9.775 9.248 9.775z"/></g><path d="m33.688 58.598c0 3.283-3.375 3.283-3.375 0 0-3.045 3.375-3.045 3.375 0z" fill="#c49a45"/><path d="m33.131 58.621c0 2.463-2.25 2.463-2.25 0 0-2.283 2.25-2.283 2.25 0z" fill="#e5bc5e"/><path d="m46.986 19.707s-.533 16.588-1.795 21.832c-2.076 8.621.66 12.703.902 20.42 2.074-5.971 3.871-13.092 2.668-23.994-.777-7.031 1.408-9.65.582-18.258-.066-.701-2.357 0-2.357 0z" fill="#c49a45"/><path d="m17.014 19.707s.533 16.588 1.797 21.832c2.076 8.621-.66 12.703-.904 20.42-2.072-5.971-3.871-13.092-2.666-23.994.777-7.031-1.408-9.65-.582-18.258.066-.701 2.355 0 2.355 0z" fill="#c49a45"/><path d="m11.285 17.988c-1.945-.33 3.035 20.932 6.92 17.314 2.135-1.988-4.168-16.843-6.92-17.314z" fill="#423225"/><path d="m52.715 17.988c-2.752.471-9.055 15.326-6.92 17.314 3.887 3.616 8.865-17.644 6.92-17.314z" fill="#423225"/><path d="m31.898 16.537c.108 0 .108 0 0 0z" fill="#e81c27"/><path d="m32.002 2c-12.453 0-17.772 6.59-17.772 15.609h35.535c.001-9.019-5.32-15.609-17.763-15.609z" fill="#ffd68c"/><path d="m31.998 9.002c-11.824 0-17.521 2.945-16.807 15.381.143 2.504 1.693 10.666 3.158 13.594 1.498 2.994 6.512 7.613 9.584 8.57 1.939.604 6.188.604 8.127 0 3.072-.957 8.086-5.576 9.586-8.57 1.465-2.928 3.016-11.09 3.158-13.594.716-12.436-4.982-15.381-16.806-15.381z" fill="#614a36"/><path d="m35.664 32.463c0 2.387-7.332 2.387-7.332 0 0-.547 7.332-.547 7.332 0z" fill="#423225"/><path d="m32 7.529c-6.707-2.476-22.621-3.076-16.359 20.221.373-2.75-.371-6.357.799-9.201 3.628-8.824 5.185-9.125 15.56-5.744 10.377-3.381 11.934-3.08 15.561 5.744 1.17 2.844.426 6.451.799 9.201 6.261-23.297-9.653-22.697-16.36-20.221z" fill="#c49a45"/><path d="m44.656 25.346c-1.58 4.135-8.008 3.529-9.186.635.895-4.651 8.319-5.047 9.186-.635z" fill="#fff"/><path d="m19.338 25.346c1.58 4.135 8.01 3.529 9.186.635-.895-4.653-8.317-5.049-9.186-.635z" fill="#fff"/><path d="m45.313 20.367c-2.705-1.342-7.879-1.408-9.807-.473-.412.182-.141 1.455.207 1.332 2.688-.994 7.02-1.018 9.535.086.334.143.475-.757.065-.945z" fill="#36281d"/><path d="m18.684 20.367c2.703-1.342 7.877-1.408 9.807-.473.412.182.141 1.455-.207 1.332-2.691-.994-7.02-1.018-9.537.086-.335.143-.474-.757-.063-.945z" fill="#36281d"/><path d="m37.111 24.904c0 3.629 5.25 3.629 5.25 0 0-3.369-5.25-3.369-5.25 0z" fill="#613f34"/><path d="m37.631 26.066c0 2.08 4.211 2.08 4.211 0 0-1.931-4.211-1.931-4.211 0z" fill="#7d5037"/><path d="m38.646 24.961c0 1.508 2.18 1.508 2.18 0 0-1.397-2.18-1.397-2.18 0z" fill="#1a1626"/><path d="m37.902 24.521c0 .762 1.102.762 1.102 0 0-.705-1.102-.705-1.102 0z" fill="#ab968c"/><path d="m21.635 24.904c0 3.629 5.25 3.629 5.25 0 0-3.369-5.25-3.369-5.25 0z" fill="#613f34"/><path d="m22.154 26.064c0 2.082 4.211 2.082 4.211 0 0-1.931-4.211-1.931-4.211 0z" fill="#7d5037"/><path d="m23.17 24.961c0 1.506 2.18 1.506 2.18 0 0-1.398-2.18-1.398-2.18 0z" fill="#1a1626"/><path d="m22.426 24.521c0 .76 1.1.76 1.1 0-.001-.707-1.1-.707-1.1 0z" fill="#ab968c"/><path d="m44.656 25.314c0-4.441-9.186-4.441-9.186.703 1.313-4.22 7.874-4.22 9.186-.703z" fill="#423225"/><path d="m19.338 25.314c0-4.441 9.186-4.441 9.186.701-1.311-4.22-7.874-4.22-9.186-.701z" fill="#423225"/><path d="m31.998 36.861c-2.66-.783-6.6.369-6.6.369 1.5 1.635 2.6 3.756 6.6 3.756 4.582 0 5.359-2.406 6.6-3.756 0 0-3.944-1.156-6.6-.369z" fill="#36281d"/><path d="m26.404 37.508c2.787 2.34 8.418 2.354 11.221 0-2.971.127-8.229.129-11.221 0z" fill="#fff"/></svg>