<svg enable-background="new 0 0 64 64" height="64" viewBox="0 0 64 64" width="64" xmlns="http://www.w3.org/2000/svg"><path d="m2 62h60v-33.693c-24.666 9.24-39.115-8.316-60 0z" fill="#a6aeb0" opacity=".15"/><path d="m62 62h-60v-23.572c24.664 8.541 39.113-7.688 60 0z" fill="#a6aeb0" opacity=".15"/><path d="m54.27 51.42c-2.322-1.352-11.832-4.604-14.377-5.463 0-2.793 0-4.236 0-4.236h-15.789v4.266c-2.664.9-12.008 4.104-14.316 5.438-3.919 2.257-4.788 10.575-4.788 10.575h54s-.824-8.311-4.73-10.58z" fill="#fcd5b2"/><g fill="#dba97f"><path d="m23.9 42.887c7.361 7.406 8.84 7.4 16.197-.004z"/><path d="m14.9 20.75c-5.719-1.031-1.252 14.957 3.225 10.547 2.072-2.045-.551-10.065-3.225-10.547z"/><path d="m49.1 20.75c-2.674.482-5.299 8.502-3.223 10.547 4.477 4.41 8.937-11.578 3.223-10.547z"/></g><path d="m32 2.002c-11.824 0-17.521 8.945-16.807 21.383.143 2.504 1.693 10.666 3.158 13.594 1.498 2.994 6.512 7.613 9.584 8.57 1.939.604 6.188.604 8.127 0 3.072-.957 8.086-5.576 9.586-8.57 1.465-2.928 3.016-11.09 3.158-13.594.715-12.438-4.982-21.383-16.806-21.383z" fill="#fcd5b2"/><path d="m32 35.863c-2.66-.783-6.6.369-6.6.369 1.5 1.635 2.6 3.756 6.6 3.756 4.582 0 5.359-2.406 6.6-3.756 0 0-3.944-1.156-6.6-.369z" fill="#cc9d76"/><path d="m26.406 36.51c2.787 2.34 8.418 2.354 11.221 0-2.971.127-8.229.129-11.221 0z" fill="#fff"/><path d="m35.666 31.465c0 2.387-7.332 2.387-7.332 0 0-.547 7.332-.547 7.332 0z" fill="#dba97f"/><path d="m32 2c-8.135 0-13.049 2.688-15.168 1.656 0 0-.23 1.387.6 2.291 0 0-.877.758-2.291-.521-1.348 4.377 2.652 6.912 16.859 6.912s10.813-3.459 17.797 2.617c-.686-7.49-5.443-12.955-17.797-12.955z" fill="#3a2c29"/><path d="m38.016 8.529c-7.822 2.889-10.682-2.32-18.061-2.824 3.51 1.658 5.223 4.209 8.105 6.049-6.273-2.1-10.877-5.711-11.227-8.084 0 0-1.047 3.463 3.094 6.053-3.959.367-4.785-4.283-4.785-4.283-2.004 3.221-1.727 13.605.5 21.313.371-2.75-.475-3.887.797-7.201 3.805-9.904 1.355-5.746 15.563-5.746 14.205 0 11.641-3.793 15.561 5.746 1.17 2.844.426 4.451.799 7.201 4.669-17.378-2.048-21.286-10.346-18.224z" fill="#1e1513"/><path d="m44.658 24.348c-1.58 4.135-8.008 3.529-9.186.635.895-4.651 8.319-5.047 9.186-.635z" fill="#fff"/><path d="m19.34 24.348c1.58 4.135 8.01 3.529 9.186.635-.895-4.653-8.317-5.049-9.186-.635z" fill="#fff"/><path d="m45.314 19.369c-2.705-1.342-7.879-1.408-9.807-.473-.412.182-.141 1.455.207 1.332 2.688-.994 7.02-1.018 9.535.086.335.143.476-.757.065-.945z" fill="#cc9d76"/><path d="m18.686 19.369c2.703-1.342 7.877-1.408 9.807-.473.412.182.141 1.455-.207 1.332-2.691-.994-7.02-1.018-9.537.086-.335.143-.474-.757-.063-.945z" fill="#cc9d76"/><path d="m37.113 23.906c0 3.629 5.25 3.629 5.25 0 0-3.369-5.25-3.369-5.25 0z" fill="#613f34"/><path d="m37.633 25.068c0 2.08 4.211 2.08 4.211 0 0-1.931-4.211-1.931-4.211 0z" fill="#7d5037"/><path d="m38.648 23.963c0 1.508 2.18 1.508 2.18 0 0-1.397-2.18-1.397-2.18 0z" fill="#1a1626"/><path d="m37.904 23.523c0 .762 1.102.762 1.102 0 0-.705-1.102-.705-1.102 0z" fill="#ab968c"/><path d="m21.637 23.906c0 3.629 5.25 3.629 5.25 0 0-3.369-5.25-3.369-5.25 0z" fill="#613f34"/><path d="m22.156 25.066c0 2.082 4.211 2.082 4.211 0 0-1.931-4.211-1.931-4.211 0z" fill="#7d5037"/><path d="m23.172 23.963c0 1.506 2.18 1.506 2.18 0 0-1.399-2.18-1.399-2.18 0z" fill="#1a1626"/><path d="m22.428 23.523c0 .76 1.1.76 1.1 0-.001-.707-1.1-.707-1.1 0z" fill="#ab968c"/><path d="m44.658 24.316c0-4.441-9.186-4.441-9.186.703 1.313-4.22 7.874-4.22 9.186-.703z" fill="#dba97f"/><path d="m19.34 24.316c0-4.441 9.186-4.441 9.186.701-1.311-4.22-7.874-4.22-9.186-.701z" fill="#dba97f"/><path d="m21.658 62h30.34s-.375-5.057-4.738-5c-27.418.342-25.602 5-25.602 5z" fill="#a0d8e9"/><path d="m34.293 57.492c-14.092-.029-12.098-.476-17.551-.492-4.369-.014-4.744 5-4.744 5h30.344s-1.016-4.492-8.049-4.508z" fill="#cae8f0"/><path d="m62 62h-60v-13.451c24.029-7.939 37.938 8.664 60 0z" fill="#a6aeb0" opacity=".2"/></svg>