<svg enable-background="new 0 0 64 64" height="64" viewBox="0 0 64 64" width="64" xmlns="http://www.w3.org/2000/svg"><path d="m62 19.244c-8.074 10.42-20.783 10.482-30 10.475-9.217.008-21.924-.055-30-10.475 0 19.166 13.279 24.531 6.486 36.158-2.146 3.676 49.176 3.676 47.029 0-6.79-11.627 6.485-16.992 6.485-36.158z" fill="#1a1626"/><path d="m32 29.719c-9.217.008-19.984-.6-28-8.193 0 11.357 20.279 24.602 13.486 36.23-2.146 3.676 31.176 3.676 29.027 0-6.793-11.629 13.488-24.873 13.488-36.23-8.015 7.593-18.784 8.201-28.001 8.193z" fill="#e81c27"/><path d="m45.146 54.348c-.359-5.432 3.639-12.105 7.578-17.697.551-3.604.719-7.111.777-10.008v-3.055c.716-11.984-7.812-21.588-21.558-21.588-13.871 0-22.158 9.604-21.443 21.588v3.055c.029 2.854.174 6.322.701 9.898 3.98 5.652 8.047 12.391 7.645 17.879 3.092 2.793 23.197 2.762 26.3-.072z" fill="#302c3b"/><path d="m45.146 54.348c5.945-6.721 5.396-35.732 5.396-35.732h-2s-15.203 4.803-33 0h-2s-.969 29.365 5.303 35.805c4.589 4.71 21.944 4.85 26.301-.073z" fill="#1a1626"/><path d="m11.434 50.848c6.535-4.299 34.668-4.334 41.191-.004 3.615 2.392 4.375 11.156 4.375 11.156h-50s.809-8.771 4.434-11.152" fill="#1a1626"/><path d="m39 47.488v-9.709h-7-7v9.709l-8.438 1.564 2.217 6.436s3.109 4.959 13.219 6.508v.002s.002 0 .002-.002v.002l.002-.002c10.109-1.549 13.219-6.508 13.219-6.508l2.219-6.436z" fill="#916b50"/><path d="m34.27 54.43c-1.278.75-2.27 2.459-2.27 2.459s-.992-1.709-2.268-2.459c2.266 3.84 1.719 5.568 1.719 5.568h1.098s-.551-1.967 1.721-5.568z" fill="#755035"/><path d="m32.002 61.996c4.057-.621 6.986-1.793 9.041-2.971h-9.043-9.043c2.055 1.178 4.984 2.35 9.041 2.971v.002s.002 0 .002-.002v.002z" fill="#e81c27"/><path d="m42.992 62s5.635-7.818 7.965-16.525l-9.004 1.246s.131 5.955-3.076 15.279z" fill="#302c3b"/><path d="m21.006 62s-5.633-7.818-7.961-16.525l9 1.246s-.131 5.955 3.078 15.279z" fill="#302c3b"/><path d="m24.287 43.686c7.051 7.256 8.467 7.252 15.514-.004z" fill="#755035"/><path d="m32.043 19.068c-10.529.008-16.5-.451-16.5-.453-.021 3.951.773 11.689 1.354 14.545 1.664 8.129 11.396 14.455 15.146 14.455 3.748 0 13.48-6.326 15.146-14.455.592-2.855 1.375-10.594 1.354-14.545 0 .002-5.973.461-16.5.453z" fill="#916b50"/><path d="m32.002 38.152c-2.447-.285-4.967-.33-7.5-.096 5.479 3.803 9.521 3.803 15 0-2.535-.234-5.039-.189-7.5.096z" fill="#ab1c27"/><path d="m26.93 38.072.939 3.315 1-3.231z" fill="#fff"/><path d="m37.068 38.072-.939 3.315-1-3.231z" fill="#fff"/><path d="m34.99 37.207c-2.213-.791-3.004.264-2.988.25.014.014-.777-1.041-2.988-.25-1.699.594-4.512.82-4.512.85 3.076-.043 3.529.77 7.5.66 3.969.109 4.424-.703 7.5-.66 0-.03-2.813-.256-4.512-.85z" fill="#820505"/><path d="m44.836 21.611c-2.615-1.561-7.307-1.75-9.164-.688-.395.213-.287 1.34.053 1.199 2.648-1.104 6.682-1.158 9.168.117.332.171.339-.401-.057-.628z" fill="#36281d"/><path d="m19.248 21.611c2.615-1.561 7.307-1.75 9.166-.688.395.213.289 1.34-.053 1.199-2.648-1.104-6.68-1.158-9.168.117-.334.171-.339-.401.055-.628z" fill="#36281d"/><path d="m35.643 33.346c0 2.342-7.201 2.342-7.201 0-.001-.537 7.201-.537 7.201 0z" fill="#755035"/><path d="m44.584 26.357c-1.553 4.061-7.861 3.465-9.018.623.877-4.564 8.164-4.955 9.018-.623z" fill="#fff"/><path d="m37.148 25.916c0 3.596 5.199 3.596 5.199 0 .001-3.338-5.199-3.338-5.199 0z" fill="#613f34"/><path d="m37.662 27.066c0 2.063 4.172 2.063 4.172 0 0-1.914-4.172-1.914-4.172 0z" fill="#b00505"/><path d="m38.668 25.973c0 1.492 2.16 1.492 2.16 0 0-1.385-2.16-1.385-2.16 0z" fill="#1a1626"/><path d="m37.932 25.537c0 .754 1.09.754 1.09 0-.001-.699-1.09-.699-1.09 0z" fill="#ab968c"/><path d="m44.584 26.326c0-4.361-9.018-4.361-9.018.691 1.288-4.146 7.731-4.146 9.018-.691z" fill="#45332c"/><path d="m19.502 26.357c1.551 4.061 7.861 3.467 9.018.623-.875-4.564-8.165-4.955-9.018-.623z" fill="#fff"/><path d="m21.736 25.922c0 3.596 5.201 3.596 5.201 0 .001-3.338-5.201-3.338-5.201 0z" fill="#613f34"/><path d="m22.25 27.072c0 2.063 4.172 2.063 4.172 0 0-1.914-4.172-1.914-4.172 0z" fill="#b00505"/><path d="m23.258 25.979c0 1.492 2.158 1.492 2.158 0 0-1.385-2.158-1.385-2.158 0z" fill="#1a1626"/><path d="m22.52 25.543c0 .754 1.09.754 1.09 0-.001-.701-1.09-.701-1.09 0z" fill="#ab968c"/><path d="m19.502 26.326c0-4.361 9.018-4.361 9.018.689-1.288-4.144-7.731-4.144-9.018-.689z" fill="#45332c"/></svg>