<svg enable-background="new 0 0 64 64" height="64" viewBox="0 0 64 64" width="64" xmlns="http://www.w3.org/2000/svg" xmlns:xlink="http://www.w3.org/1999/xlink"><radialGradient id="a" cx="32.001" cy="42.6592" gradientUnits="userSpaceOnUse" r="29.3746"><stop offset=".6424" stop-color="#1a1626" stop-opacity="0"/><stop offset=".8504" stop-color="#1a1626" stop-opacity=".8801"/><stop offset=".8788" stop-color="#1a1626"/></radialGradient><path d="m51.799 51.613c-11.348-7.299-28.186-7.246-39.543.004-3.483 2.219-4.256 10.383-4.256 10.383h48s-.73-8.158-4.201-10.387z" fill="#4a148c"/><path d="m32 6.371c-11.609 0-17.201 9.455-16.502 21.611.143 2.445.822 5.969 1.66 8.99 1.742 6.277 10.93 12.6 14.842 12.6 3.91 0 13.1-6.322 14.84-12.6.84-3.021 1.52-6.545 1.664-8.99.697-12.156-4.893-21.611-16.504-21.611z" fill="#e3c19b"/><path d="m32 6.371c-11.609 0-17.201 9.455-16.502 21.611.143 2.445.822 5.969 1.66 8.99 1.742 6.277 10.93 12.6 14.842 12.6 3.91 0 13.1-6.322 14.84-12.6.84-3.021 1.52-6.545 1.664-8.99.697-12.156-4.893-21.611-16.504-21.611z" fill="url(#a)" opacity=".6"/><path d="m32 39.545c-2.822-1.242-2.844-.051-7.199.242 1.635 1.855 2.838 4.242 7.197 4.242 5.004 0 5.85-2.711 7.203-4.242-4.359-.293-4.379-1.484-7.201-.242z" fill="#c97e55"/><path d="m26.107 40.248c2.844 2.961 8.977 2.922 11.785.002-4.378.471-7.404.471-11.785-.002z" fill="#fff"/><path d="m44.795 23.566c-2.617-1.559-7.309-1.75-9.166-.688-.393.215-.287 1.342.053 1.201 2.648-1.104 6.682-1.158 9.168.117.334.169.339-.403-.055-.63z" fill="#594640"/><path d="m19.207 23.566c2.615-1.559 7.307-1.75 9.166-.688.393.215.289 1.342-.055 1.201-2.648-1.104-6.68-1.16-9.166.117-.334.169-.341-.403.055-.63z" fill="#594640"/><path d="m35.6 35.303c0 2.342-7.199 2.342-7.199 0-.001-.539 7.199-.539 7.199 0z" fill="#d6a67a"/><path d="m44.541 28.314c-1.551 4.059-7.861 3.465-9.016.623.875-4.566 8.163-4.957 9.016-.623z" fill="#fff"/><path d="m37.105 27.873c0 3.596 5.201 3.596 5.201 0 .001-3.338-5.201-3.338-5.201 0z" fill="#613f34"/><path d="m37.619 29.023c0 2.063 4.172 2.063 4.172 0 0-1.914-4.172-1.914-4.172 0z" fill="#7d5037"/><path d="m38.627 27.93c0 1.492 2.158 1.492 2.158 0 0-1.385-2.158-1.385-2.158 0z" fill="#1a1626"/><path d="m37.889 27.494c0 .754 1.09.754 1.09 0 0-.701-1.09-.701-1.09 0z" fill="#ab968c"/><path d="m44.541 28.283c0-4.361-9.016-4.361-9.016.691 1.286-4.146 7.729-4.146 9.016-.691z" fill="#45332c"/><path d="m19.459 28.314c1.553 4.059 7.863 3.465 9.02.623-.877-4.566-8.165-4.957-9.02-.623z" fill="#fff"/><path d="m21.695 27.879c0 3.596 5.199 3.596 5.199 0 .001-3.338-5.199-3.338-5.199 0z" fill="#613f34"/><path d="m22.209 29.029c0 2.061 4.172 2.061 4.172 0 0-1.914-4.172-1.914-4.172 0z" fill="#7d5037"/><path d="m23.215 27.936c0 1.492 2.16 1.492 2.16 0 0-1.387-2.16-1.387-2.16 0z" fill="#1a1626"/><path d="m22.479 27.498c0 .756 1.09.756 1.09 0-.001-.699-1.09-.699-1.09 0z" fill="#ab968c"/><path d="m19.459 28.283c0-4.361 9.02-4.361 9.02.689-1.288-4.146-7.731-4.146-9.02-.689z" fill="#45332c"/><path d="m47.471 45.924c2.332-2.172 4.529-11.723 4.529-23.078 0-13.897-10.5-20.846-20-20.846s-20 6.949-20 20.846c0 11.355 2.195 20.906 4.527 23.078-1.281 2.432-3.527 2.316-2.434 4.611 10.561 1.605 8.064 8.943 17.906 8.943s7.346-7.338 17.904-8.943c1.097-2.295-1.151-2.18-2.432-4.611zm-15.471 3.504c-3.885 0-13.01-6.281-14.74-12.516-.834-3.002-1.51-6.502-1.65-8.932-.393-6.796 16.39-13.462 16.39-13.462s16.783 6.666 16.393 13.463c-.143 2.43-.818 5.93-1.652 8.932-1.729 6.233-10.856 12.515-14.741 12.515z" fill="#8e3ed6"/><path d="m31.48 5.947c24.672 6.895 23.504 41.408-2.02 47.502 25.632-2.201 30.923-42.994 2.02-47.502z" fill="#732eb0"/><path d="m47.471 45.924c-10.502 5.633-11.281 14.83-25.129 6.439 13.517 11.688 17.224.008 25.129-6.439z" fill="#732eb0"/><g fill="#a253e8"><path d="m15.912 39.363c1.594 8.025 8.287 14.506 17.098 11.713-7.754.406-12.785-3.562-17.098-11.713z"/><path d="m26.365 12.086c-8.049 1.471-14.631 8.064-11.973 16.916-.287-7.76 3.758-12.729 11.973-16.916z"/></g></svg>