<svg enable-background="new 0 0 64 64" height="64" viewBox="0 0 64 64" width="64" xmlns="http://www.w3.org/2000/svg" xmlns:xlink="http://www.w3.org/1999/xlink"><linearGradient id="a" gradientUnits="userSpaceOnUse" x1="32.0005" x2="32.0005" y1="62" y2="2.0005"><stop offset="0" stop-color="#ffa027"/><stop offset=".2723" stop-color="#ffc151"/><stop offset=".7633" stop-color="#ffc93f"/><stop offset="1" stop-color="#ffe261"/></linearGradient><linearGradient id="b" gradientUnits="userSpaceOnUse" x1="44.9277" x2="44.9277" y1="37.9541" y2="15.0464"><stop offset="0" stop-color="#fff" stop-opacity="0"/><stop offset="1" stop-color="#fff"/></linearGradient><circle cx="31.999" cy="32" fill="url(#a)" r="30"/><circle cx="22" cy="26.5" fill="#302c3b" r="4.5"/><ellipse cx="43" cy="26.5" fill="#302c3b" rx="4.5" ry="6"/><path d="m12.386 17.705c7.518-3.539 13.434 2.342 16.143.504.682-.465 1.475 1.092.818 1.592-3.527 2.688-10.111-2.521-15.701.9-.768.469-2.088-2.607-1.26-2.996z" fill="#917524"/><path d="m35.741 14.291c7.889-3.27 12.115-7.883 17.061-1.803.547.672-2.049 2.186-2.615 1.527-2.914-3.386-6.456-.085-13.719 1.889-.916.25-1.315-1.369-.727-1.613z" fill="#917524"/><path d="m59.486 29c0 1.333-2 1.333-2 0s2-1.333 2 0z" fill="#6e8189"/><path d="m59.486 31c0 1.333-2 1.333-2 0s2-1.333 2 0z" fill="#99a8ae"/><path d="m59.486 33c0 1.333-2 1.333-2 0s2-1.333 2 0z" fill="#6e8189"/><path d="m59.486 35c0 1.333-2 1.333-2 0s2-1.333 2 0z" fill="#99a8ae"/><path d="m59.486 37c0 1.333-2 1.333-2 0s2-1.333 2 0z" fill="#6e8189"/><path d="m59.486 39c0 1.333-2 1.333-2 0s2-1.333 2 0z" fill="#99a8ae"/><path d="m59.486 41c0 1.333-2 1.333-2 0s2-1.333 2 0z" fill="#6e8189"/><path d="m59.486 43c0 1.333-2 1.333-2 0s2-1.333 2 0z" fill="#99a8ae"/><path d="m59.486 45c0 1.333-2 1.333-2 0s2-1.333 2 0z" fill="#6e8189"/><path d="m59.486 47c0 1.333-2 1.333-2 0s2-1.333 2 0z" fill="#99a8ae"/><path d="m59.486 49c0 1.333-2 1.333-2 0s2-1.333 2 0z" fill="#6e8189"/><path d="m59.486 51c0 1.333-2 1.333-2 0s2-1.333 2 0z" fill="#99a8ae"/><path d="m59.486 53c0 1.333-2 1.333-2 0s2-1.333 2 0z" fill="#6e8189"/><path d="m59.486 55c0 1.333-2 1.333-2 0s2-1.333 2 0z" fill="#99a8ae"/><path d="m59.486 57c0 1.333-2 1.333-2 0s2-1.333 2 0z" fill="#6e8189"/><path d="m59.486 59c0 1.333-2 1.333-2 0s2-1.333 2 0z" fill="#99a8ae"/><path d="m59.486 61c0 1.333-2 1.333-2 0s2-1.333 2 0z" fill="#6e8189"/><path d="m56.11 29.546c-.128 0-.128-6.092 0-6.092 3.399 0 3.399 6.092 0 6.092z" fill="#445159"/><path d="m44.928 37.954c-6.329 0-11.454-5.127-11.454-11.454s5.125-11.454 11.454-11.454c6.324 0 11.455 5.127 11.455 11.454s-5.131 11.454-11.455 11.454z" fill="url(#b)" opacity=".8"/><path d="m44.928 14.5c-6.631 0-12 5.371-12 12s5.369 12 12 12c6.624 0 12-5.371 12-12s-5.376-12-12-12zm0 22.909c-6.027 0-10.909-4.884-10.909-10.909s4.881-10.909 10.909-10.909c6.022 0 10.909 4.884 10.909 10.909s-4.887 10.909-10.909 10.909z" fill="#4e5e67"/><path d="m34.107 46h-10.212c-2.524 0-2.524-4 0-4h10.213c2.523 0 2.523 4-.001 4z" fill="#302c3b"/></svg>