<svg enable-background="new 0 0 64 64" height="64" viewBox="0 0 64 64" width="64" xmlns="http://www.w3.org/2000/svg"><path d="m14.427 32.147c-10.189 2.377-5.14 14.922-4.773 19.985 13.012-6.955 4.773-19.985 4.773-19.985z" fill="#efde8b"/><path d="m49.569 32.132s-8.236 13.029 4.779 19.982c.364-5.06 5.413-17.605-4.779-19.982z" fill="#efde8b"/><path d="m8.634 31.431c-9.107-1.393-3.174 20.218 3.957 14.259 3.305-2.765.305-13.607-3.957-14.259z" fill="#d6a67a"/><path d="m55.366 31.431c-4.264.652-7.264 11.494-3.959 14.259 7.133 5.957 13.065-15.652 3.959-14.259z" fill="#d6a67a"/><path d="m55.069 30.978c0-15.339-9.059-11.925-23.07-11.925-14.008 0-23.068-3.414-23.068 11.925 0 0 .051 5.844 1.543 13.521 2.445 12.568 12.598 17.5 21.525 17.5s19.083-4.932 21.525-17.5c1.495-7.682 1.545-13.521 1.545-13.521z" fill="#e3c19b"/><path d="m49.017 35.735c-2.125 5.559-10.764 4.744-12.348.854 1.201-6.25 11.18-6.785 12.348-.854z" fill="#fff"/><path d="m38.874 35.143c0 4.879 7.059 4.879 7.059 0 0-4.529-7.059-4.529-7.059 0z" fill="#613f34"/><path d="m39.573 36.704c0 2.797 5.66 2.797 5.66 0 0-2.598-5.66-2.598-5.66 0z" fill="#7d5037"/><path d="m40.938 35.22c0 2.025 2.93 2.025 2.93 0 0-1.879-2.93-1.879-2.93 0z" fill="#1a1626"/><path d="m39.938 34.628c0 1.023 1.479 1.023 1.479 0 0-.949-1.479-.949-1.479 0z" fill="#ab968c"/><path d="m49.017 35.693c0-5.97-12.348-5.97-12.348.945 1.764-5.672 10.584-5.672 12.348-.945z" fill="#d6a67a"/><path d="m14.984 35.735c2.123 5.559 10.766 4.744 12.346.854-1.202-6.253-11.176-6.787-12.346-.854z" fill="#fff"/><path d="m18.072 35.142c0 4.879 7.057 4.879 7.057 0-.001-4.529-7.057-4.529-7.057 0z" fill="#613f34"/><path d="m18.769 36.702c0 2.797 5.662 2.797 5.662 0 0-2.596-5.662-2.596-5.662 0z" fill="#7d5037"/><path d="m20.136 35.219c0 2.024 2.928 2.024 2.928 0 0-1.88-2.928-1.88-2.928 0z" fill="#1a1626"/><path d="m19.134 34.626c0 1.023 1.479 1.023 1.479 0 0-.949-1.479-.949-1.479 0z" fill="#ab968c"/><path d="m14.984 35.693c0-5.97 12.346-5.97 12.346.943-1.762-5.674-10.582-5.674-12.346-.943z" fill="#d6a67a"/><g fill="#bf8c6b"><path d="m50.157 29.641c-3.688-1.83-10.744-1.919-13.373-.644-.563.247-.191 1.982.283 1.816 3.664-1.357 9.572-1.39 13.002.117.455.194.647-1.034.088-1.289z"/><path d="m13.845 29.641c3.688-1.83 10.742-1.919 13.373-.644.563.247.191 1.982-.281 1.816-3.67-1.357-9.574-1.39-13.006.117-.455.194-.644-1.034-.086-1.289z"/><path d="m32.001 50.581c-3.627-1.066-9 .506-9 .506 2.047 2.229 3.547 5.121 9 5.121 6.248 0 7.31-3.283 9-5.121 0 0-5.377-1.578-9-.506z"/></g><path d="m24.375 51.464c3.801 3.189 11.48 3.209 15.3 0-4.051.174-11.22.176-15.3 0z" fill="#fff"/><path d="m37.001 45.802c0 3.254-10 3.254-10 0 0-.746 10-.746 10 0z" fill="#d6a67a"/><path d="m13.5 10.066c-9.799 6.295-8.527 17.292-6.838 26.908 7.068-15.785 7.017-19.474 6.838-26.908z" fill="#efde8b"/><path d="m6.662 36.974c5.955-18.3 3.67-22.208 6.838-26.908.179 7.434 2.044 12.774-6.838 26.908z" fill="#ba9d52"/><path d="m13.5 10.066c26.677 15.575 36.589 8.211 43.205 26.371 7.204-32.184-29.205-43.746-43.205-26.371z" fill="#efde8b"/><path d="m13.5 10.066c26.677 15.575 35.908 8.449 43.205 26.371 2.901-14.162-25.633-25.133-43.205-26.371z" fill="#ba9d52"/><path d="m13.5 10.066c5.201 10.781 27.169 16.986 35.132 17.292-6.533-7.505-7.676-22.105-35.132-17.292z" fill="#efde8b"/><path d="m48.632 27.358c-6.533-7.505-26.482-7.167-35.132-17.292 5.201 10.781 26.245 17.292 35.132 17.292z" fill="#ba9d52"/><path d="m13.5 10.066c-8.159 11.866 8.5 15.98 15.851 16.273-6.006-5.64-8.57-15.875-15.851-16.273z" fill="#efde8b"/><path d="m29.351 26.339c-8.273-5.558-21.105-4.97-15.851-16.273-8.159 11.866 7.992 16.562 15.851 16.273z" fill="#ba9d52"/></svg>