<svg enable-background="new 0 0 64 64" height="64" viewBox="0 0 64 64" width="64" xmlns="http://www.w3.org/2000/svg" xmlns:xlink="http://www.w3.org/1999/xlink"><linearGradient id="a" gradientUnits="userSpaceOnUse" x1="35.002" x2="35.002" y1="58.5928" y2="21.2729"><stop offset="0" stop-color="#d8dde0"/><stop offset=".8182" stop-color="#fff"/></linearGradient><linearGradient id="b" gradientUnits="userSpaceOnUse" x1="34.9922" x2="34.9922" y1="30.9634" y2="24.0903"><stop offset=".2788" stop-color="#1a1626" stop-opacity="0"/><stop offset="1" stop-color="#1a1626" stop-opacity=".8"/></linearGradient><radialGradient id="c" cx="6.0488" cy="41.8604" gradientUnits="userSpaceOnUse" r="5.3779"><stop offset=".2303" stop-color="#a2ff00"/><stop offset=".432" stop-color="#9ffd02"/><stop offset=".563" stop-color="#97f608"/><stop offset=".674" stop-color="#88e911"/><stop offset=".7737" stop-color="#73d81f"/><stop offset=".8659" stop-color="#57c231"/><stop offset=".9514" stop-color="#36a647"/><stop offset="1" stop-color="#209456"/></radialGradient><radialGradient id="d" cx="562.499" cy="63.4912" gradientTransform="matrix(.3583 .4654 -.7152 .5506 -151.7332 -257.4975)" gradientUnits="userSpaceOnUse" r="7.5726"><stop offset="0" stop-color="#fff"/><stop offset="1" stop-color="#fff" stop-opacity="0"/></radialGradient><linearGradient id="e"><stop offset=".2545" stop-color="#916958"/><stop offset=".4316" stop-color="#8d6655"/><stop offset=".6087" stop-color="#815c4c"/><stop offset=".7858" stop-color="#6d4c3e"/><stop offset=".9621" stop-color="#513529"/><stop offset="1" stop-color="#4a2f24"/></linearGradient><linearGradient id="f" gradientUnits="userSpaceOnUse" x1="5.4668" x2="14.0723" xlink:href="#e" y1="53.0098" y2="53.0098"/><linearGradient id="g" gradientUnits="userSpaceOnUse" x1="3.3374" x2="13.2793" xlink:href="#e" y1="46" y2="46"/><path d="m62 27.281c0 3.252-5.424 2.719-27 2.719s-27 .533-27-2.719c0-3.256 54-3.256 54 0z" fill="#014d87"/><path d="m10.001 62h50c0-25.571-50-25.571-50 0z" fill="#006dae"/><path d="m13.744 40.483c1.097 13.417 19.597 12.618 19.574 21.517h3.365c-.022-8.899 18.478-8.1 19.574-21.517-11.332-6.061-31.491-5.894-42.513 0z" fill="#014d87"/><path d="m29.407 59.637c0 1.334-2 1.334-2 0s2-1.334 2 0z" fill="#f59e01"/><path d="m42.595 59.637c0 1.334-2 1.334-2 0s2-1.334 2 0z" fill="#f59e01"/><path d="m41.878 60.135c-4.512 1.158-9.242 1.158-13.754 0 .098-.379.195-.76.293-1.141 4.32 1.109 8.848 1.109 13.168 0 .098.381.195.762.293 1.141z" fill="#f9b700"/><path d="m49.684 26.097c-2.297.415-4.549 7.302-2.77 9.056 3.846 3.785 7.676-9.941 2.77-9.056z" fill="#e6b045"/><path d="m20.32 26.097c-4.91-.885-1.076 12.842 2.768 9.056 1.779-1.755-.473-8.641-2.768-9.056z" fill="#e6b045"/><path d="m35.001 10.001c-10.15 0-15.042 7.68-14.431 18.358.123 2.15 1.455 9.157 2.712 11.672 1.287 2.57 5.591 6.537 8.229 7.358 1.666.518 5.313.518 6.979 0 2.638-.821 6.942-4.788 8.229-7.358 1.259-2.515 2.591-9.521 2.711-11.672.615-10.678-4.277-18.358-14.429-18.358z" fill="#fc6"/><path d="m45.87 29.186c-1.355 3.552-6.875 3.03-7.888.546.769-3.993 7.142-4.334 7.888-.546z" fill="#fff"/><path d="m24.132 29.186c1.355 3.552 6.877 3.03 7.888.546-.769-3.994-7.14-4.335-7.888-.546z" fill="#fff"/><path d="m46.433 25.589c-2.322-1.638-6.764-1.719-8.419-.578-.354.223-.122 1.775.179 1.627 2.307-1.215 6.027-1.242 8.187.105.285.174.405-.925.053-1.154z" fill="#e6ebef"/><path d="m23.569 25.589c2.322-1.638 6.764-1.719 8.419-.578.354.223.122 1.775-.177 1.627-2.311-1.215-6.027-1.242-8.187.105-.287.174-.405-.925-.055-1.154z" fill="#e6ebef"/><path d="m39.392 28.808c0 3.116 4.508 3.116 4.508 0-.001-2.893-4.508-2.893-4.508 0z" fill="#613f34"/><path d="m39.838 29.806c0 1.785 3.615 1.785 3.615 0 0-1.66-3.615-1.66-3.615 0z" fill="#7d5037"/><path d="m40.71 28.856c0 1.294 1.871 1.294 1.871 0 0-1.2-1.871-1.2-1.871 0z" fill="#1a1626"/><path d="m40.072 28.479c0 .652.945.652.945 0 .001-.607-.945-.607-.945 0z" fill="#ab968c"/><path d="m26.104 28.808c0 3.116 4.507 3.116 4.507 0 0-2.893-4.507-2.893-4.507 0z" fill="#613f34"/><path d="m26.549 29.805c0 1.786 3.617 1.786 3.617 0-.001-1.659-3.617-1.659-3.617 0z" fill="#7d5037"/><path d="m27.423 28.856c0 1.294 1.871 1.294 1.871 0 0-1.2-1.871-1.2-1.871 0z" fill="#1a1626"/><path d="m26.783 28.478c0 .654.944.654.944 0 .001-.606-.944-.606-.944 0z" fill="#ab968c"/><g fill="#e6b045"><path d="m45.87 29.16c0-3.814-7.888-3.814-7.888.604 1.127-3.624 6.762-3.624 7.888-.604z"/><path d="m24.132 29.16c0-3.814 7.888-3.814 7.888.602-1.127-3.624-6.762-3.624-7.888-.602z"/><path d="m38.148 35.297c0 2.05-6.294 2.05-6.294 0 0-.469 6.294-.469 6.294 0z"/></g><path d="m48.874 21.272c.274 9.522-.716 15.087-4.708 18.14-.883-1.956-3.146-3.259-9.164-2.287-6.02-.973-8.283.332-9.165 2.288-4.064-3.085-5.037-8.555-4.716-18.14h-1.128c.258 10.609-.02 19.365.74 21.914 2.718 9.097 14.268 15.405 14.268 15.405s11.55-6.309 14.267-15.406c.761-2.548.483-11.305.743-21.914z" fill="url(#a)"/><path d="m37.733 40.823c-1.71.229-2.731-.661-2.731-.661s-1.021.89-2.733.661c-.777-.104-1.395-.055-1.897.104 2.518 2.233 6.754 2.247 9.27.002-.506-.16-1.126-.21-1.909-.106z" fill="#45332c"/><path d="m60.392 28.141c-13.846 2.794-37.913 4.622-50.798.005 8.885-4.407 36.679-6.321 50.798-.005z" fill="url(#b)"/><path d="m62 27.281c0 3.252-5.424-2.281-27-2.281-21.574 0-27 5.533-27 2.281 0-11.256 54-11.256 54 0z" fill="#006dae"/><path d="m46.627 15.488c.165-3.02-5.205-5.309-4.373-8.465.403-1.527 2.871-2.552 1.741-5.023-1.869 3.305-11.161 0-15.802 5.828-3.713 2.186-11.515 11.822-8.154 15.182 7.066-1.203 21.148-1.686 29.934 0 3.291-3.291-2.16-6.998-3.346-7.522z" fill="#006dae"/><path d="m43.995 2c1.333 3.121-4.214 3.961-4.517 7.922 1.396-2.223 2.99-.629 2.746-1.678-.599-2.67 3.12-3.248 1.771-6.244z" fill="#013366" opacity=".2"/><path d="m45.055 12.27s-9.701 0-19.742 5.949c6.965-2.145 16.574-3.945 21.314-2.729.279-1.369-1.572-3.22-1.572-3.22z" fill="#013366" opacity=".2"/><path d="m47.688 18.219s-3.441.762-13 2.855c7.781-4.094 13-2.855 13-2.855z" fill="#013366" opacity=".2"/><circle cx="7.5" cy="43.5" fill="url(#c)" r="5.5"/><path d="m7.337 43.159c-1.546 1.191-3.427 1.34-4.2.334-.775-1.007-.15-2.787 1.396-3.977 1.546-1.191 3.427-1.34 4.202-.334.775 1.007.148 2.788-1.398 3.977z" fill="url(#d)"/><path d="m12.422 44.019s2.567 3.436 1.164 5.102c-1.93 2.285.486 12.879.486 12.879h-2.609s-.847-8.14-5.817-13.038c-1.495-1.472 6.87-.342 6.776-4.943z" fill="url(#f)"/><path d="m12.544 41.636c1.115.122 1.432 6.568-2.514 8.55-1.668.839-7.138-1.362-6.664-3.169.381-1.441 4.651.984 5.961.268 1.423-.784 1.6-5.824 3.217-5.649z" fill="url(#g)"/></svg>