<svg enable-background="new 0 0 64 64" height="64" viewBox="0 0 64 64" width="64" xmlns="http://www.w3.org/2000/svg"><path d="m62 19.244c-8.075 10.42-20.783 10.482-30 10.475-9.217.008-21.925-.055-30-10.475 0 19.166 13.278 24.531 6.485 36.158-2.146 3.676 49.176 3.676 47.029 0-6.79-11.627 6.486-16.992 6.486-36.158z" fill="#1a1626"/><path d="m32 29.719c-9.217.008-19.985-.6-28-8.193 0 11.357 20.279 24.602 13.486 36.23-2.147 3.676 31.175 3.676 29.027 0-6.793-11.629 13.487-24.873 13.487-36.23-8.015 7.593-18.783 8.201-28 8.193z" fill="#e81c27"/><path d="m45.146 54.348c-.358-5.432 3.639-12.105 7.578-17.697.551-3.604.719-7.111.777-10.008v-3.055c.715-11.985-7.813-21.588-21.558-21.588-13.871 0-22.159 9.603-21.444 21.588v3.055c.029 2.854.174 6.322.701 9.898 3.98 5.652 8.048 12.391 7.646 17.879 3.091 2.793 23.197 2.762 26.3-.072z" fill="#302c3b"/><path d="m45.146 54.348c5.946-6.72 5.396-35.732 5.396-35.732h-2s-15.203 4.804-33 0h-2s-.968 29.365 5.304 35.805c4.588 4.71 21.942 4.85 26.3-.073z" fill="#1a1626"/><path d="m11.434 50.848c6.534-4.299 34.667-4.334 41.191-.004 3.615 2.392 4.375 11.156 4.375 11.156h-50s.809-8.771 4.434-11.152" fill="#1a1626"/><path d="m38.999 47.488v-9.709h-7-6.999v9.709l-8.438 1.564 2.218 6.436s3.109 4.959 13.219 6.508v.002s.001 0 .002-.002v.002l.001-.002c10.11-1.549 13.219-6.508 13.219-6.508l2.219-6.436z" fill="#fc6"/><path d="m34.269 54.43c-1.277.75-2.27 2.459-2.27 2.459s-.992-1.709-2.268-2.459c2.266 3.84 1.719 5.568 1.719 5.568h1.098s-.551-1.967 1.721-5.568z" fill="#e6b045"/><path d="m32.001 61.996c4.057-.621 6.987-1.793 9.041-2.971h-9.042-.001-9.042c2.055 1.178 4.984 2.35 9.041 2.971v.002s.001 0 .003-.002c-.001.002-.001.002-.001.002z" fill="#e81c27"/><path d="m42.991 62s5.635-7.818 7.965-16.525l-9.004 1.246s.131 5.955-3.076 15.279z" fill="#302c3b"/><path d="m21.005 62s-5.633-7.818-7.961-16.525l9 1.246s-.131 5.955 3.078 15.279z" fill="#302c3b"/><path d="m24.286 43.686c7.051 7.257 8.467 7.253 15.514-.004z" fill="#e6b045"/><path d="m32.042 19.068c-10.528.008-16.5-.451-16.5-.453-.021 3.951.773 11.689 1.354 14.545 1.665 8.129 11.397 14.455 15.146 14.455s13.481-6.326 15.146-14.455c.592-2.855 1.375-10.594 1.354-14.545 0 .002-5.973.461-16.5.453z" fill="#fc6"/><path d="m32.001 38.152c-2.446-.285-4.966-.33-7.5-.096 5.479 3.803 9.521 3.803 15 0-2.534-.234-5.039-.189-7.5.096z" fill="#ab1c27"/><path d="m26.93 38.072.939 3.315 1-3.231z" fill="#fff"/><path d="m37.068 38.072-.939 3.315-1-3.231z" fill="#fff"/><path d="m34.989 37.207c-2.212-.791-3.003.264-2.988.25.015.014-.776-1.041-2.988-.25-1.699.594-4.512.82-4.512.85 3.076-.043 3.53.77 7.5.66 3.97.109 4.424-.703 7.5-.66 0-.03-2.813-.256-4.512-.85z" fill="#820505"/><path d="m44.836 21.61c-2.616-1.56-7.308-1.75-9.165-.688-.394.214-.287 1.341.053 1.2 2.648-1.104 6.682-1.158 9.168.117.333.17.339-.402-.056-.629z" fill="#594640"/><path d="m19.248 21.61c2.615-1.56 7.307-1.75 9.166-.688.394.214.289 1.341-.054 1.2-2.648-1.104-6.68-1.159-9.167.117-.334.17-.34-.402.055-.629z" fill="#594640"/><path d="m35.642 33.346c0 2.342-7.2 2.342-7.2 0-.001-.537 7.2-.537 7.2 0z" fill="#e6b045"/><path d="m44.583 26.357c-1.552 4.06-7.861 3.465-9.017.623.876-4.565 8.163-4.956 9.017-.623z" fill="#fff"/><path d="m37.147 25.916c0 3.596 5.2 3.596 5.2 0 .001-3.338-5.2-3.338-5.2 0z" fill="#613f34"/><path d="m37.661 27.066c0 2.063 4.172 2.063 4.172 0 0-1.914-4.172-1.914-4.172 0z" fill="#b00505"/><path d="m38.668 25.973c0 1.492 2.159 1.492 2.159 0 0-1.385-2.159-1.385-2.159 0z" fill="#1a1626"/><path d="m37.931 25.537c0 .754 1.09.754 1.09 0 0-.7-1.09-.7-1.09 0z" fill="#ab968c"/><path d="m44.583 26.326c0-4.361-9.017-4.361-9.017.691 1.287-4.146 7.73-4.146 9.017-.691z" fill="#45332c"/><path d="m19.501 26.357c1.552 4.06 7.862 3.466 9.019.623-.876-4.565-8.165-4.956-9.019-.623z" fill="#fff"/><path d="m21.736 25.922c0 3.596 5.2 3.596 5.2 0 .001-3.338-5.2-3.338-5.2 0z" fill="#613f34"/><path d="m22.25 27.072c0 2.062 4.172 2.062 4.172 0 0-1.914-4.172-1.914-4.172 0z" fill="#b00505"/><path d="m23.257 25.979c0 1.492 2.159 1.492 2.159 0 0-1.386-2.159-1.386-2.159 0z" fill="#1a1626"/><path d="m22.52 25.542c0 .755 1.09.755 1.09 0-.001-.7-1.09-.7-1.09 0z" fill="#ab968c"/><path d="m19.501 26.326c0-4.361 9.019-4.361 9.019.689-1.288-4.145-7.731-4.145-9.019-.689z" fill="#45332c"/></svg>