<svg enable-background="new 0 0 64 64" height="64" viewBox="0 0 64 64" width="64" xmlns="http://www.w3.org/2000/svg"><path d="m43.408 9.717c7.918 48.295 7.193 47.262-9.475 47.262 8.483-7.362-8.447-47.918 9.475-47.262z" fill="#ad883d"/><path d="m47.264 8.969c8.447 33.383-.02 46.463-3.635 48.01h-4.07c11.869-10.915-7.686-48.733 7.705-48.01z" fill="#c49a45"/><path d="m47.668 26.908c2.447 8.486.027 25.902-5.039 30.07 5.615 0 9.033-11.041 10.701-26.229 2.082-18.976-10.019-18.985-5.662-3.841z" fill="#ffd68c"/><path d="m20.551 9.717c-7.918 48.295-7.193 47.262 9.475 47.262-8.483-7.362 8.447-47.918-9.475-47.262z" fill="#ad883d"/><path d="m16.695 8.969c-8.447 33.383.02 46.463 3.635 48.01h4.07c-11.869-10.915 7.686-48.733-7.705-48.01z" fill="#c49a45"/><path d="m16.291 26.908c-2.447 8.486-.025 25.902 5.039 30.07-5.615 0-9.033-11.041-10.701-26.229-2.082-18.976 10.019-18.985 5.662-3.841z" fill="#ffd68c"/><path d="m31.957 2c-12.756 0-20.744 9.301-20.744 19.258l.965 6.162h39.604l.965-6.162c-.001-9.344-8.292-19.258-20.79-19.258z" fill="#ffd68c"/><path d="m24.518 51.018 7.482 6.619 7.486-6.619v-7.053h-14.968z" fill="#946346"/><path d="m51.801 53.691c-.074-.037-.09-.309 0-.389-3.119-1.184-6.227-2.012-9.035-2.611-.838-3.807.863-5.521.863-5.521-9.123 0-11.629 12.467-11.629 12.467s-2.504-12.467-11.629-12.467c0 0 1.701 1.715.863 5.521-2.809.6-5.914 1.428-9.035 2.611.09.08.076.352 0 .389-3.469 1.784-4.199 8.309-4.199 8.309h48s-.73-6.525-4.199-8.309z" fill="#529320"/><g fill="#297124"><path d="m51.801 53.303c-4.059 4.47-2.528 8.697-2.528 8.697s-.281-4.824 2.684-8.223c.098-.254-.006-.463-.156-.474z"/><path d="m34.537 59.65s5.863-4.727 8.221-8.969c-1.879 5.135-8.221 8.969-8.221 8.969z"/><path d="m12.199 53.303c4.061 4.47 2.53 8.697 2.53 8.697s.279-4.824-2.686-8.223c-.096-.254.006-.463.156-.474z"/><path d="m29.463 59.65s-5.863-4.727-8.219-8.969c1.877 5.135 8.219 8.969 8.219 8.969z"/></g><path d="m33.5 58.877c0 3.014-3 3.014-3 0 0-2.791 3-2.791 3 0z" fill="#c49a45"/><path d="m33.006 58.898c0 2.262-2 2.262-2 0 0-2.093 2-2.093 2 0z" fill="#e5bc5e"/><path d="m10.264 17.988c-1.945-.33 3.035 20.932 6.92 17.314 2.134-1.988-4.168-16.843-6.92-17.314z" fill="#946346"/><path d="m53.693 17.988c-2.752.471-9.055 15.326-6.92 17.314 3.887 3.616 8.866-17.644 6.92-17.314z" fill="#946346"/><path d="m31.977 7.801c-3.91 8.021-17.201 7.455-16.502 19.611.143 2.443.822 5.969 1.66 8.988 1.742 6.278 10.929 12.6 14.842 12.6 3.91 0 13.1-6.322 14.84-12.6.84-3.02 1.52-6.545 1.664-8.988.697-12.156-10.612-10.096-16.504-19.611z" fill="#b88a6f"/><path d="m31.977 38.973c-2.822-1.24-2.844-.051-7.199.242 1.635 1.855 2.838 4.244 7.197 4.244 5.004 0 5.85-2.711 7.203-4.244-4.36-.293-4.379-1.483-7.201-.242z" fill="#84401e"/><path d="m26.084 39.678c2.844 2.959 8.977 2.92 11.785 0-4.379.47-7.404.47-11.785 0z" fill="#fff"/><path d="m44.771 22.996c-2.617-1.561-7.309-1.75-9.166-.688-.393.213-.287 1.34.053 1.199 2.648-1.104 6.682-1.158 9.168.117.334.171.34-.401-.055-.628z" fill="#36281d"/><path d="m19.184 22.996c2.615-1.561 7.307-1.75 9.166-.688.393.213.289 1.34-.055 1.199-2.648-1.104-6.68-1.158-9.166.117-.334.171-.342-.401.055-.628z" fill="#36281d"/><path d="m35.576 34.73c0 2.342-7.199 2.342-7.199 0 0-.537 7.199-.537 7.199 0z" fill="#946346"/><path d="m44.518 27.742c-1.551 4.061-7.861 3.465-9.016.623.875-4.564 8.162-4.955 9.016-.623z" fill="#fff"/><path d="m37.082 27.301c0 3.596 5.201 3.596 5.201 0 0-3.338-5.201-3.338-5.201 0z" fill="#613f34"/><path d="m37.596 28.451c0 2.063 4.172 2.063 4.172 0 0-1.914-4.172-1.914-4.172 0z" fill="#7d5037"/><path d="m38.604 27.357c0 1.492 2.158 1.492 2.158 0 0-1.384-2.158-1.384-2.158 0z" fill="#1a1626"/><path d="m37.865 26.922c0 .754 1.09.754 1.09 0 0-.699-1.09-.699-1.09 0z" fill="#ab968c"/><path d="m44.518 27.711c0-4.361-9.016-4.361-9.016.691 1.285-4.146 7.728-4.146 9.016-.691z" fill="#45332c"/><path d="m19.436 27.742c1.553 4.061 7.863 3.467 9.02.623-.878-4.564-8.165-4.955-9.02-.623z" fill="#fff"/><path d="m21.672 27.307c0 3.596 5.199 3.596 5.199 0 0-3.338-5.199-3.338-5.199 0z" fill="#613f34"/><path d="m22.186 28.457c0 2.063 4.172 2.063 4.172 0-.001-1.914-4.172-1.914-4.172 0z" fill="#7d5037"/><path d="m23.191 27.363c0 1.492 2.16 1.492 2.16 0 .001-1.384-2.16-1.384-2.16 0z" fill="#1a1626"/><path d="m22.455 26.928c0 .754 1.09.754 1.09 0 0-.701-1.09-.701-1.09 0z" fill="#ab968c"/><path d="m19.436 27.711c0-4.361 9.02-4.361 9.02.689-1.288-4.144-7.731-4.144-9.02-.689z" fill="#45332c"/><path d="m31.979 5c-1.018 5.84-17.191 9.709-16.529 20.814 2.17-10.076 16.529-13.068 16.529-13.068s14.361 2.992 16.531 13.068c.662-11.105-15.512-14.974-16.531-20.814z" fill="#c49a45"/><path d="m31.59 22.197c-3.893-6.779-12.455-.547-19.412-6.855-.139-.125-.428 1.072-.355 1.141 6.512 6.17 14.764 1.637 19.768 8.656.339.476.47-2.121-.001-2.942z" fill="#529320"/><path d="m32.201 25.139c5.004-7.02 13.338-2.486 19.852-8.656.072-.068-.24-1.266-.379-1.141-6.957 6.309-15.58.076-19.473 6.855-.471.821-.34 3.418 0 2.942z" fill="#529320"/><path d="m34.033 22.703c0 4.051-4.277 4.051-4.277 0 0-3.756 4.277-3.756 4.277 0z" fill="#0fb4d4"/><path d="m33.33 22.734c0 3.035-2.852 3.035-2.852 0 .001-2.818 2.852-2.818 2.852 0z" fill="#75d6ff"/></svg>