<svg enable-background="new 0 0 64 64" height="64" viewBox="0 0 64 64" width="64" xmlns="http://www.w3.org/2000/svg" xmlns:xlink="http://www.w3.org/1999/xlink"><linearGradient id="a"><stop offset="0" stop-color="#ffddd6"/><stop offset="1" stop-color="#00a4c9"/></linearGradient><linearGradient id="b" gradientTransform="matrix(1 -.0013 .0013 1 .9065 1.1765)" gradientUnits="userSpaceOnUse" x1="21.7358" x2="50.0283" xlink:href="#a" y1="28.1504" y2="28.1504"/><linearGradient id="c" gradientTransform="matrix(1 -.0013 .0013 1 .9065 1.1765)" gradientUnits="userSpaceOnUse" x1="20.3394" x2="38.3008" xlink:href="#a" y1="11.1563" y2="11.1563"/><linearGradient id="d" gradientTransform="matrix(1 -.0013 .0013 1 .9065 1.1765)" gradientUnits="userSpaceOnUse" x1="22.6836" x2="58.6367" xlink:href="#a" y1="16.3369" y2="16.3369"/><linearGradient id="e" gradientTransform="matrix(1 -.0013 .0013 1 .9065 1.1765)" gradientUnits="userSpaceOnUse" x1="29.6499" x2="54.4492" xlink:href="#a" y1="16.9316" y2="16.9316"/><linearGradient id="f" gradientTransform="matrix(1 -.0013 .0013 1 .9065 1.1765)" gradientUnits="userSpaceOnUse" x1="12.9468" x2="12.9468" y1="51.8164" y2="26.4341"><stop offset=".103" stop-color="#0cc"/><stop offset=".2127" stop-color="#00b3b8"/><stop offset=".4797" stop-color="#007b8d"/><stop offset=".7095" stop-color="#00526d"/><stop offset=".8904" stop-color="#003959"/><stop offset="1" stop-color="#003052"/></linearGradient><linearGradient id="g" gradientTransform="matrix(1 -.0013 .0013 1 .9065 1.1765)" gradientUnits="userSpaceOnUse" x1="12.3457" x2="53.207" y1="49.4141" y2="49.4141"><stop offset="0" stop-color="#0cc"/><stop offset="1" stop-color="#007ca6"/></linearGradient><linearGradient id="h" gradientTransform="matrix(1 -.0013 .0013 1 .9065 1.1765)" gradientUnits="userSpaceOnUse" x1="39.5674" x2="53.7969" xlink:href="#a" y1="8.0947" y2="8.0947"/><linearGradient id="i" gradientTransform="matrix(1 -.0013 .0013 1 .9065 1.1765)" gradientUnits="userSpaceOnUse" x1="52.7559" x2="57.6074" xlink:href="#a" y1="11.2646" y2="11.2646"/><linearGradient id="j" gradientTransform="matrix(1 -.0013 .0013 1 .9065 1.1765)" gradientUnits="userSpaceOnUse" x1="32.4712" x2="53.7969" xlink:href="#a" y1="8.9102" y2="8.9102"/><path d="m50.974 32.389c-9.633-3.102-13.422 2.012-28.303-8.586 11.008 14.028 18.371 11.749 28.303 8.586z" fill="url(#b)"/><path d="m39.216 8.203c-6.192 2.225-5.696 6.848-17.953 6.85 11.931 3.659 14.511-.793 17.953-6.85z" fill="url(#c)"/><path d="m58.794 9.228c-.907-3.19-3.335-5.187-4.087-4.801.491-.766-3.682-3.049-7.894-2.281-11.764 2.144-10.276 13.13-23.201 16.509 14.199 27.408 40.794 10.318 35.182-9.427z" fill="url(#d)"/><path d="m55.368 11.272c-8.709 4.429-7.404 10.285-24.783 13.143 17.043 2.13 20.105-4.211 24.783-13.143z" fill="url(#e)"/><path d="m56.907 26.795c1.168 4.101 1.17 6.363.961 7.283 1.059 2.155.356 4.278.713 6.187.092.506.599-.779.982-1.462 0 0 .497.788.109 1.638 0 0 1.515-1.063 1.829-2.159.567 1.872-1.617 3.255-1.335 3.714.505.818 1.84 1.376 1.837 2.649-2.15-1.978-2.89-.81-4.225-1.707-.887.052-1.452-.726-.819-2.212-.331-1.394-4.004-7.177-.052-13.931z" fill="#e6b045"/><path d="m4.394 27.605c-8.03 22.226 6.394 19.089 9.884 25.37.285-6.227 18.624-5.574 8.462-22.783-.388 5.5-6.151 6.091-9.031 14.111-.657-9.212-8.466-8.546-9.315-16.698z" fill="url(#f)"/><path d="m53.483 39.063c1.745 2.225-.362 3.712-.85 7.347-2.856 21.307-34.507 18.225-38.925 6.009-.444-1.23-1.02-2.116 1.458-.863 6.646 3.36 19.13 3.525 23.532-6.488 3.936-8.958 8.18-4.81 14.785-6.005z" fill="url(#g)"/><path d="m54.905 23.144c-.723-.052-1.412-.784-3.082-.963-.81-1.016.252-3.282-1.74-3.629-3.735-.338-2.012 1.803-2.908 3.325-.723.042-1.379.142-1.957.3-3.363-1.454-4.89 2.407-5.094 3.28-2.186 2.741-3.82 6.115-4.78 6.566-4.015 1.887-6.051 8.021-7.195 8.601-1.193.06-2.854.18-3.74-.429.096.229.227.422.379.595-.918-.037-1.799-.182-2.398-.592.31.744.892 1.23 1.584 1.53-.725.017-1.582-.048-2.677-.233.942 1.871 5.999.857 5.772 1.956-.283 1.363-1.662 1.927-.887 3.204 1.038-2.248 3.55-2.6 3.766-4.602.209-1.92 6.651-5.059 8.038-7.661 2.545-1.667 4.896-4.55 5.906-6.02 2.212 6.54 6.741 7.923 2.679 11.107-1.949 1.528 3.469 9.306 3.988 8.065 1.934-4.621 5.673-6.709 5.655-11.871-.007-2.164 1.382-3.962.596-6.089 3.329-2.249 1.812-6.174-1.905-6.44z" fill="#fc6"/><path d="m47.429 20.256c1.878 2.397 2.255 2.396 4.125-.006z" fill="#e6b045"/><path d="m53.403 6.381c-2.427 2.218-7.407 3.802-10.544 5.647.006.171.348 2.912.687 4.125.703 2.521 4.397 5.058 5.968 5.056 1.572-.002 5.261-2.548 5.958-5.071.335-1.214.669-3.947.673-4.114-1.469-3.025-3.31-3.967-2.742-5.643z" fill="#fc6"/><path d="m54.544 12.661c-.621 1.632-3.156 1.396-3.625.255.352-1.836 3.279-1.997 3.625-.255z" fill="#f5f5f5"/><path d="m51.565 12.487c.002 1.432 2.072 1.43 2.07-.002-.001-1.33-2.072-1.328-2.07.002z" fill="#45332c"/><path d="m54.544 12.648c-.002-1.752-3.627-1.748-3.625.283.518-1.667 3.103-1.671 3.625-.283z" fill="#45332c"/><path d="m51.684 12.133c.001.359.519.358.518 0-.001-.332-.518-.331-.518 0z" fill="#f5f5f5"/><path d="m44.466 12.673c.625 1.631 3.162 1.389 3.625.246-.356-1.835-3.283-1.988-3.625-.246z" fill="#f5f5f5"/><path d="m47.444 12.494c.002 1.433-2.068 1.436-2.07.002-.002-1.329 2.068-1.331 2.07-.002z" fill="#45332c"/><path d="m44.466 12.661c-.002-1.752 3.623-1.757 3.625.273-.52-1.667-3.108-1.664-3.625-.273z" fill="#45332c"/><path d="m46.074 12.069c.001.357-.517.358-.518.001.001-.333.518-.334.518-.001z" fill="#f5f5f5"/><path d="m49.511 17.18c-1.136-.497-1.143-.019-2.893.101.659.745 1.143 1.704 2.893 1.702 2.012-.003 2.349-1.093 2.893-1.709-1.751-.116-1.761-.594-2.893-.094z" fill="#d47706"/><path d="m47.144 17.466c1.145 1.188 3.607 1.168 4.732-.005-1.756.19-2.971.191-4.732.005z" fill="#fff"/><path d="m54.644 10.752c-1.054-.625-2.938-.699-3.685-.271-.158.085-.114.538.022.481 1.062-.445 2.683-.469 3.684.042.133.068.137-.161-.021-.252z" fill="#594640"/><path d="m44.362 10.766c1.052-.628 2.935-.707 3.683-.281.158.085.118.538-.021.481-1.065-.442-2.685-.462-3.684.052-.132.067-.138-.162.022-.252z" fill="#594640"/><path d="m50.952 15.473c.001.941-2.89.945-2.891.003 0-.215 2.89-.219 2.891-.003z" fill="#e6b045"/><path d="m40.489 13.997c2.937-3.932 12.577-3.605 14.218-9.57-3.192 5.008-13.42 5.792-14.218 9.57z" fill="url(#h)"/><path d="m53.737 5.341c-.758 1.197 4.922 2.837 3.892 14.093 2.987-9.796-2.273-14.559-3.892-14.093z" fill="url(#i)"/><path d="m54.707 4.427c-6.165 3.464-15.325-.872-21.312 11.209 9.997-9.483 18.025-5.087 21.312-11.209z" fill="url(#j)"/><path d="m54.005 39.358c-.885 1.264-.26 1.477-.604 1.868-.343.39-1.023-.947.604-1.868z" fill="#e6b045"/><path d="m57.897 29.381c.482.003.765-.396.696-.738.372-.158.485-.742.352-.984.295-.266.313-1.028.036-1.307.144-.238.065-.825-.303-.997.088-.341-.173-.752-.655-.771-1.431-1.348-3.827 1.765-3.841 2.312-.012.544 2.214 3.765 3.715 2.485z" fill="#007ca6"/><g fill="#005878"><path d="m54.325 26.804c1.54-2.31 3.595-2.336 3.698-2.221.124.133-1.812-.118-3.698 2.221z"/><path d="m54.325 26.804c2.004-1.556 4.311-1.604 4.354-1.449.042.144-1.91-.132-4.354 1.449z"/><path d="m54.325 26.804c2.492-.572 4.66-.612 4.656-.452-.005.152-1.832-.076-4.656.452z"/><path d="m54.321 26.995c1.414 2.376 3.465 2.498 3.576 2.386.129-.128-1.818.034-3.576-2.386z"/><path d="m54.321 26.995c1.919 1.645 4.22 1.798 4.272 1.648.047-.145-1.915.041-4.272-1.648z"/><path d="m54.321 26.995c2.458.685 4.619.823 4.624.664.004-.154-1.834-.009-4.624-.664z"/></g><path d="m46.728 24.859c-.91.168-1.2.862-.861 1.337-.615.375-.468 1.261-.07 1.553-.396.499.023 1.575.705 1.832-.131.389.351 1.142 1.101 1.206.036.486.711.898 1.544.7 2.984 1.019 5.321-3.832 5.115-4.538-.212-.716-5.512-4.481-7.534-2.09z" fill="#007ca6"/><path d="m54.078 27.118c-1.377 3.526-4.696 4.47-4.933 4.369-.277-.117 3.026-.658 4.933-4.369z" fill="#005878"/><path d="m54.078 27.118c-2.456 2.777-6.315 3.851-6.477 3.668-.15-.174 3.315-.673 6.477-3.668z" fill="#005878"/><path d="m54.078 27.118c-3.734 1.705-7.493 2.683-7.577 2.462-.08-.21 3.263-.68 7.577-2.462z" fill="#005878"/><path d="m54.005 26.871c-3.413-2.736-7.135-2.216-7.277-2.012-.163.234 3.251-.675 7.277 2.012z" fill="#005878"/><path d="m54.005 26.871c-3.902-1.536-8.134-.916-8.139-.675-.004.226 3.451-.768 8.139.675z" fill="#005878"/><path d="m54.005 26.871c-4.334-.009-8.298.647-8.209.878.084.218 3.315-.72 8.209-.878z" fill="#005878"/></svg>