<svg enable-background="new 0 0 64 64" height="64" viewBox="0 0 64 64" width="64" xmlns="http://www.w3.org/2000/svg"><g fill="#efde8b"><path d="m12.619 27.521c8.063 11.81-3.143 16.636-2.498 24.627-5.903-7.129-3.241-21.018 2.498-24.627z"/><path d="m17.449 35.355c4.521 7.63-4.33 12.036-3.684 20.026-6.271-6.543-2.746-18.578 3.684-20.026z"/><path d="m19.398 42.969c5.576 4.292-2.447 8.72-.617 13.912-7.133-3.275-5.473-11.859.617-13.912z"/><path d="m51.38 27.521c-8.064 11.81 3.143 16.636 2.498 24.627 5.902-7.129 3.24-21.018-2.498-24.627z"/><path d="m46.55 35.355c-4.521 7.63 4.33 12.036 3.684 20.026 6.271-6.543 2.745-18.578-3.684-20.026z"/><path d="m44.601 42.969c-5.576 4.292 2.447 8.72.617 13.912 7.133-3.275 5.472-11.859-.617-13.912z"/></g><path d="m12.019 43.043c2.701-2.516.25-12.377-3.232-12.971-7.442-1.268-2.594 18.393 3.232 12.971z" fill="#d6a67a"/><path d="m51.981 43.043c-2.701-2.516-.25-12.377 3.232-12.971 7.44-1.268 2.595 18.391-3.232 12.971z" fill="#d6a67a"/><path d="m32 2c-16.125 0-23.893 13.131-22.92 30.015.197 3.395 1.143 8.291 2.307 12.485 2.419 8.72 15.179 17.5 20.613 17.5 5.431 0 18.193-8.78 20.611-17.5 1.166-4.194 2.109-9.091 2.311-12.485.966-16.884-6.798-30.015-22.922-30.015z" fill="#e3c19b"/><path d="m49.417 32.476c-2.154 5.638-10.918 4.811-12.523.865 1.218-6.341 11.337-6.883 12.523-.865z" fill="#fff"/><path d="m14.582 32.476c2.156 5.638 10.922 4.813 12.527.865-1.219-6.341-11.34-6.883-12.527-.865z" fill="#fff"/><path d="m49.769 25.882c-3.633-2.166-10.15-2.431-12.729-.955-.547.297-.4 1.862.072 1.667 3.678-1.532 9.281-1.608 12.734.163.464.234.473-.56-.077-.875z" fill="#bf8c6b"/><path d="m14.23 25.882c3.633-2.166 10.148-2.431 12.73-.955.547.297.402 1.862-.074 1.667-3.678-1.532-9.277-1.61-12.73.163-.465.234-.475-.56.074-.875z" fill="#bf8c6b"/><path d="m36.999 42.181c0 3.252-10 3.252-10 0 .001-.747 10-.747 10 0z" fill="#d6a67a"/><path d="m39.091 31.862c0 4.994 7.223 4.994 7.223 0-.001-4.635-7.223-4.635-7.223 0z" fill="#613f34"/><path d="m39.804 33.46c0 2.863 5.795 2.863 5.795 0 0-2.658-5.795-2.658-5.795 0z" fill="#7d5037"/><path d="m41.202 31.94c0 2.072 2.998 2.072 2.998 0 0-1.923-2.998-1.923-2.998 0z" fill="#1a1626"/><path d="m40.177 31.335c0 1.047 1.516 1.047 1.516 0-.001-.972-1.516-.972-1.516 0z" fill="#ab968c"/><path d="m17.687 31.87c0 4.994 7.223 4.994 7.223 0 0-4.636-7.223-4.636-7.223 0z" fill="#613f34"/><path d="m18.4 33.467c0 2.864 5.795 2.864 5.795 0 0-2.657-5.795-2.657-5.795 0z" fill="#7d5037"/><path d="m19.798 31.948c0 2.072 3 2.072 3 0 0-1.924-3-1.924-3 0z" fill="#1a1626"/><path d="m18.775 31.343c0 1.047 1.514 1.047 1.514 0 0-.973-1.514-.973-1.514 0z" fill="#ab968c"/><path d="m49.417 32.432c0-6.057-12.523-6.057-12.523.96 1.787-5.758 10.736-5.758 12.523-.96z" fill="#45332c"/><path d="m14.582 32.432c0-6.057 12.527-6.057 12.527.957-1.789-5.757-10.738-5.757-12.527-.957z" fill="#45332c"/><path d="m6.507 34.615c-2.865-7.13-2.197-19.645 6.869-25.291.424 7.043-4.257 17.67-6.869 25.291z" fill="#efde8b"/><path d="m6.507 34.615c-2.186-7.513 5.055-15.515 6.869-25.291.424 7.043-4.257 17.67-6.869 25.291z" fill="#ba9d52"/><path d="m6.351 36.648c3.256-10.727-1.508-21.287 7.025-27.324.5 6.9 5.643 12.926-7.025 27.324z" fill="#efde8b"/><path d="m6.351 36.648c10.559-16.77 1.732-20.764 7.025-27.322.5 6.898 5.643 12.924-7.025 27.322z" fill="#ba9d52"/><path d="m13.376 9.326c27.421 13.76 37.738 10.596 44.537 26.641 7.613-28.69-26.669-43.99-44.537-26.641z" fill="#efde8b"/><path d="m13.376 9.326c27.421 13.76 35.755 11.065 44.537 26.641.719-14.309-26.474-25.549-44.537-26.641z" fill="#ba9d52"/><path d="m13.628 9.326c-7.176 9.555 21.968 15.084 32.845 15.33-9.005-8.054-16.983-16.988-32.845-15.33z" fill="#efde8b"/><path d="m46.474 24.654c-11.674-3.689-35.783-6.258-32.846-15.33-7.175 9.557 21.172 15.33 32.846 15.33z" fill="#ba9d52"/><path d="m28.378 24.654c-6.936-4.707-6.598-14.996-15.002-15.33-9.418 9.906 6.516 15.086 15.002 15.33z" fill="#efde8b"/><path d="m28.378 24.654c-9.551-4.64-21.066-5.895-15.002-15.33-9.418 9.906 5.928 15.572 15.002 15.33z" fill="#ba9d52"/><path d="m32 48.175c-3.627-1.066-9 .506-9 .506 2.047 2.229 3.547 5.121 9 5.121 6.248 0 7.31-3.283 9-5.121-.001 0-5.378-1.578-9-.506z" fill="#bf8c6b"/><path d="m24.373 49.058c3.801 3.19 11.48 3.21 15.3 0-4.051.173-11.22.175-15.3 0z" fill="#fff"/></svg>