<svg enable-background="new 0 0 64 64" height="64" viewBox="0 0 64 64" width="64" xmlns="http://www.w3.org/2000/svg"><g fill="#302c3b"><path d="m14.655 23.411c-5 2.434-8.58 10.165-7.027 17.179.793-6.45 7.027-7.78 7.027-7.78z"/><path d="m14.005 10.684c-4.58 2.631-8.943 9.165-6.707 17.983 1.125-8.108 6.707-8.991 6.707-8.991z"/><path d="m45.507 12.705.99-4.468c4.564 1.703 10.088 7.32 10.809 16.509-3.297-7.819-11.799-12.041-11.799-12.041z"/><path d="m50.241 14.392-3.795 4.864s7.9 10.063 7.383 21.491c4.447-11.599.981-21.637-3.588-26.355z"/></g><path d="m17.937 10.643c-8.131 34.904-5.387 36.156 11.73 36.156-9.473-6.627 6.674-36.631-11.73-36.156z" fill="#1a1626"/><path d="m45.86 10.641c8.133 34.906 5.387 36.158-11.73 36.158 8.713-5.318-6.674-36.633 11.73-36.158z" fill="#1a1626"/><path d="m48.235 25.065c2.512 6.133.027 18.723-5.176 21.734 5.768 0 9.277-7.978 10.99-18.955 2.14-13.717-10.288-13.724-5.814-2.779z" fill="#302c3b"/><path d="m10.394 30.389c2.1 9.906 4.684 16.41 10.342 16.41-6.309-6.531-5.566-20.308-3.771-23.736 9.138-5.442-10.126-9.43-6.571 7.326z" fill="#302c3b"/><path d="m13.513 46.016c2.248-1.508 11.576-5.493 11.576-5.493h13.899s9.32 3.976 11.553 5.489c3.251 2.195-2.62 11.888-2.62 15.988h-31.84c0-4.096-5.83-13.801-2.568-15.984z" fill="#4e5e67"/><path d="m19.786 49.574-15.264-1.896c3.504-11.807 28.116-5.719 15.264 1.896z" fill="#4e5e67"/><path d="m19.731 51.816-14.685-4.193c2.301-7.581 15.656-6.223 14.685 4.193z" fill="#302c3b"/><path d="m19.991 52.367c-1.89-11.058-10.47-10.818-15.892-4.193-.305.371-2.205 4.48-2.094 5.313.547 4.123.133 6.008 2.185 5.461.307 2.23 1.883 1.434 2.344 1.529-.016 1.998 3.633 1.98 3.717-.549.115 2.98 3.762 2.576 3.303-.129-.897-5.283.363-8.686 2.322-7.174 1.826 1.408-.432 5.049 1.937 6.854 1.502 1.144 2.319-6.297 2.178-7.112z" fill="#99a8ae"/><path d="m8.829 61.81s1.305-.191 1.426-1.799c-1.01-4.898-.608-5.496.721-9.383-3.85 6.143-.079 9.511-2.147 11.182z" fill="#6e8189"/><path d="m5.046 60.433s.74.318 1.488.043c-.715-6.217.004-7.281 1.492-10.373-4.296 5.33-.662 10.262-2.98 10.33z" fill="#6e8189"/><path d="m2.933 58.801s.465.498 1.258.146c-1.141-5.975.584-6.32 1.246-8.988-3.731 5.248-.61 9.107-2.504 8.842z" fill="#6e8189"/><path d="m44.212 49.574 15.266-1.896c-3.506-11.807-28.116-5.719-15.266 1.896z" fill="#4e5e67"/><path d="m44.267 51.816 14.685-4.193c-2.299-7.581-15.654-6.223-14.685 4.193z" fill="#302c3b"/><path d="m44.007 52.367c1.893-11.058 10.471-10.818 15.894-4.193.305.371 2.205 4.48 2.094 5.313-.547 4.123-.133 6.008-2.186 5.461-.307 2.23-1.883 1.434-2.344 1.529.016 1.998-3.635 1.98-3.717-.549-.117 2.98-3.762 2.576-3.303-.129.895-5.283-.363-8.686-2.324-7.174-1.824 1.408.432 5.049-1.936 6.854-1.5 1.144-2.317-6.297-2.178-7.112z" fill="#99a8ae"/><path d="m55.171 61.81s-1.307-.191-1.428-1.799c1.01-4.898.608-5.496-.721-9.383 3.852 6.143.079 9.511 2.149 11.182z" fill="#6e8189"/><path d="m58.952 60.433s-.74.318-1.486.043c.713-6.217-.004-7.281-1.494-10.373 4.297 5.33.664 10.262 2.98 10.33z" fill="#6e8189"/><path d="m61.067 58.801s-.467.498-1.258.146c1.141-5.975-.586-6.32-1.248-8.988 3.733 5.248.612 9.107 2.506 8.842z" fill="#6e8189"/><path d="m25.001 41.998c0 6.75 14 6.75 14 0v-7h-14z" fill="#6e8189"/><path d="m31.999 4.254c-10.836 0-16.053 8.824-15.402 20.17.135 2.281.767 5.57 1.551 8.391 1.625 5.859 10.201 11.759 13.852 11.759s12.227-5.9 13.85-11.759c.785-2.82 1.42-6.109 1.555-8.391.649-11.345-4.568-20.17-15.406-20.17z" fill="#99a8ae"/><path d="m43.94 20.301c-2.441-1.453-6.82-1.633-8.555-.641-.365.201-.268 1.252.051 1.121 2.471-1.029 6.234-1.08 8.555.109.313.157.319-.376-.051-.589z" fill="#302c3b"/><path d="m20.06 20.301c2.441-1.453 6.818-1.633 8.555-.641.367.201.27 1.252-.051 1.121-2.473-1.029-6.234-1.082-8.555.109-.313.157-.32-.376.051-.589z" fill="#302c3b"/><path d="m35.358 31.256c0 2.185-6.719 2.185-6.719 0 .001-.504 6.719-.504 6.719 0z" fill="#6e8189"/><path d="m44.106 5.832c-7.598 7.785-.346 8.287 4.129 19.232 2.512 6.133 4.102 13.756 5.814 2.779 2.14-13.716-6.081-23.155-9.943-22.011z" fill="#302c3b"/><path d="m25.456 2.85c-9.635 2.268-18.617 10.783-15.062 27.539 2.1 9.906 4.775-3.898 6.57-7.326 9.139-5.441 24.768-9.561 27.143-17.23 1.207-1.772-9.008-5.508-18.651-2.983z" fill="#302c3b"/><path d="m18.073 15.055c4.074-.826 23.566-1.215 26.033-9.223-4.605 3.67-9.376 4.67-26.033 9.223z" fill="#1a1626"/><path d="m11.05 27.795c6.834-9.123 29.226-8.117 33.057-21.963-7.436 11.622-31.19 13.192-33.057 21.963z" fill="#1a1626"/><path d="m41.855 7.729c-1.766 2.781 4.365-1.303 10.971 16.6-1.628-10.467-7.212-17.672-10.971-16.6z" fill="#1a1626"/><path d="m36.409 39.273c0 1.559-1.973 2.13-4.406 2.13s-4.404-.571-4.404-2.13c0-5.979 8.81-5.979 8.81 0z" fill="#1a1626"/><path d="m35.694 40.154c0 1.559-1.654 2.13-3.691 2.13s-3.689-.571-3.689-2.13c0-2.453 7.38-2.453 7.38 0z" fill="#f46c60"/><path d="m32.003 40.522.586-2.184c-.389-.028-.783-.028-1.17 0z" fill="#e03636"/><path d="m37.69 22.221c-5.213 1.603-2.051 8.942 3.162 7.339s2.051-8.942-3.162-7.339z" fill="#6e8189"/><path d="m35.683 25.344c0 4 6.973 4 6.973 0-.001-3-6.973-3-6.973 0z" fill="#fcc7c3"/><path d="m36.968 25.27c0 2.764 4 2.764 4 0 0-2.568-4-2.568-4 0z" fill="#613f34"/><path d="m37.364 26.156c0 1.584 3.207 1.584 3.207 0 0-1.472-3.207-1.472-3.207 0z" fill="#7d5037"/><path d="m38.138 25.313c0 1.147 1.66 1.147 1.66 0 0-1.064-1.66-1.064-1.66 0z" fill="#1a1626"/><path d="m37.571 24.977c0 .581.838.581.838 0 0-.536-.838-.536-.838 0z" fill="#ab968c"/><path d="m42.655 25.348c0-.001 0-.003 0-.004 0-4-6.973-4-6.973 0v.004c1.424-2.004 5.286-2.004 6.973 0z" fill="#4e5e67"/><path d="m26.319 22.221c-5.215-1.603-8.377 5.736-3.166 7.339 5.215 1.603 8.377-5.736 3.166-7.339z" fill="#6e8189"/><path d="m21.353 25.344c0-3 6.973-3 6.973 0-.001 4-6.973 4-6.973 0z" fill="#fcc7c3"/><path d="m23.04 25.27c0 2.764 4 2.764 4 0 0-2.568-4-2.568-4 0z" fill="#613f34"/><path d="m23.435 26.154c0 1.585 3.209 1.585 3.209 0 0-1.471-3.209-1.471-3.209 0z" fill="#7d5037"/><path d="m24.208 25.313c0 1.147 1.662 1.147 1.662 0 0-1.065-1.662-1.065-1.662 0z" fill="#1a1626"/><path d="m23.642 24.977c0 .579.838.579.838 0 0-.537-.838-.537-.838 0z" fill="#ab968c"/><path d="m28.325 25.348c0-.001 0-.003 0-.004 0-4-6.973-4-6.973 0v.004c1.756-1.324 5.217-1.324 6.973 0z" fill="#4e5e67"/></svg>