<svg enable-background="new 0 0 64 64" height="64" viewBox="0 0 64 64" width="64" xmlns="http://www.w3.org/2000/svg"><path d="m10.576 49.518c1.174-4.439 5.5-11.139 2.611-16.635-9.771-3.865-5.601 11.084-2.611 16.635z" fill="#99a8ae"/><path d="m50.813 32.883c-2.889 5.496 1.438 12.195 2.611 16.635 2.99-5.551 7.16-20.5-2.611-16.635z" fill="#99a8ae"/><path d="m12.02 43.043c2.7-2.516.249-12.377-3.233-12.971-7.441-1.267-2.594 18.393 3.233 12.971z" fill="#e6b045"/><path d="m51.981 43.043c-2.7-2.516-.249-12.377 3.233-12.971 7.439-1.267 2.595 18.391-3.233 12.971z" fill="#e6b045"/><path d="m32.001 12c-26.04 0-15.548 3.018-22.5 18.312 0 0 .05 7.016 1.506 14.539 1.876 9.702 12.794 17.149 20.994 17.149s19.118-7.447 20.994-17.148c1.456-7.523 1.506-14.539 1.506-14.539.415-14.022 3.54-18.313-22.5-18.313z" fill="#fc6"/><path d="m8.024 33.264c-2.681-6.833-2.056-18.83 6.43-24.242.398 6.75-3.983 16.937-6.43 24.242z" fill="#99a8ae"/><path d="m8.024 33.264c-2.044-7.201 4.731-14.871 6.43-24.242.398 6.75-3.983 16.937-6.43 24.242z" fill="#6e8189"/><path d="m7.879 35.213c3.049-10.281-1.41-20.404 6.575-26.191.468 6.613 5.28 12.391-6.575 26.191z" fill="#99a8ae"/><path d="m7.879 35.213c9.883-16.074 1.622-19.904 6.575-26.191.468 6.613 5.28 12.391-6.575 26.191z" fill="#6e8189"/><path d="m14.454 9.022c25.663 13.189 35.317 10.158 41.681 25.537 7.125-27.5-24.957-42.166-41.681-25.537z" fill="#99a8ae"/><path d="m14.454 9.022c25.663 13.189 34.662 10.359 41.681 25.537 2.794-11.992-24.777-24.488-41.681-25.537z" fill="#6e8189"/><path d="m14.69 9.022c-6.716 9.16 20.56 14.461 30.741 14.695-8.431-7.72-15.896-16.283-30.741-14.695z" fill="#99a8ae"/><path d="m45.432 23.717c-10.927-3.537-33.491-6-30.741-14.695-6.716 9.16 19.814 14.695 30.741 14.695z" fill="#6e8189"/><path d="m28.494 23.717c-6.488-4.514-6.172-14.375-14.04-14.695-8.811 9.496 6.099 14.461 14.04 14.695z" fill="#99a8ae"/><path d="m28.494 23.717c-8.938-4.447-19.717-5.65-14.04-14.695-8.811 9.496 5.548 14.928 14.04 14.695z" fill="#6e8189"/><path d="m37.055 34.798c1.996 3.773 9.945 5.084 9.945 5.084s-8.495-3.074-9.945-5.084z" fill="#e6b045"/><path d="m17 39.882s7.921-1.273 9.945-5.084c-1.451 2.01-9.945 5.084-9.945 5.084z" fill="#e6b045"/><path d="m22.251 49.14c4.276 3.988 15.238 4.013 19.547 0-5.108 1.137-14.403 1.144-19.547 0z" fill="#a17b31"/><path d="m50.156 26.685c-3.688-1.83-10.744-1.919-13.373-.644-.563.247-.191 1.982.283 1.816 3.664-1.357 9.572-1.39 13.002.117.456.194.647-1.034.088-1.289z" fill="#99a8ae"/><path d="m13.844 26.685c3.688-1.83 10.742-1.919 13.373-.644.563.247.191 1.982-.281 1.816-3.67-1.357-9.573-1.39-13.005.117-.456.194-.645-1.034-.087-1.289z" fill="#99a8ae"/><path d="m49.001 34.108c-1.281 3.893-11.244 2.348-12 .193 1.168-7.047 10.865-6.881 12-.193z" fill="#fff"/><path d="m38.921 32.521c0 4.949 7.158 4.949 7.158 0 0-4.593-7.158-4.593-7.158 0z" fill="#613f34"/><path d="m39.628 34.105c0 2.838 5.744 2.838 5.744 0 0-2.634-5.744-2.634-5.744 0z" fill="#7d5037"/><path d="m41.015 32.6c0 2.055 2.971 2.055 2.971 0-.001-1.907-2.971-1.907-2.971 0z" fill="#1a1626"/><path d="m40.001 32c0 1.037 1.5 1.037 1.5 0 0-.963-1.5-.963-1.5 0z" fill="#ab968c"/><path d="m49.001 34.062c0-6.733-12-7.503-12 .295 1.713-6.398 10.285-5.628 12-.295z" fill="#e6b045"/><path d="m14.999 34.108c1.283 3.893 11.246 2.348 12 .193-1.166-7.047-10.863-6.881-12-.193z" fill="#fff"/><path d="m17.919 32.521c0 4.949 7.158 4.949 7.158 0 0-4.593-7.158-4.593-7.158 0z" fill="#613f34"/><path d="m18.626 34.105c0 2.838 5.744 2.838 5.744 0 0-2.634-5.744-2.634-5.744 0z" fill="#7d5037"/><path d="m20.013 32.6c0 2.055 2.971 2.055 2.971 0-.001-1.907-2.971-1.907-2.971 0z" fill="#1a1626"/><path d="m18.999 32c0 1.037 1.5 1.037 1.5 0 0-.963-1.5-.963-1.5 0z" fill="#ab968c"/><g fill="#e6b045"><path d="m14.999 34.062c0-6.731 12-7.503 12 .293-1.713-6.396-10.285-5.626-12-.293z"/><path d="m36.999 43.179c0 3.254-9.998 3.254-9.998 0 0-.746 9.998-.746 9.998 0z"/><path d="m26.502 43.521c-2.993 3.21-6.209 5.218-4.975 9.767.132-4.317 2.87-5.132 4.975-9.767z"/><path d="m42.473 53.287c1.223-4.501-1.953-6.523-4.976-9.765 2.106 4.639 4.84 5.448 4.976 9.765z"/></g></svg>