<svg enable-background="new 0 0 64 64" height="64" viewBox="0 0 64 64" width="64" xmlns="http://www.w3.org/2000/svg"><path d="m14.371 62c7.647-7.887-5.876-21.295 4.813-30.152-2.531 10.287 6.065 23.302-4.813 30.152z" fill="#006dae"/><path d="m35.146 16.485c-7.646 7.885 5.877 21.294-4.813 30.148 2.334-9.485-7.698-22.273 4.813-30.148z" fill="#b30bad"/><path d="m6.364 46.59c1.087 1.086 9.748 9.748 11.044 11.043.75.75-.649 2.15-1.398 1.398-1.388-1.387-9.915-9.912-11.044-11.041-.75-.75.648-2.15 1.398-1.4z" fill="#014d87"/><path d="m11.046 44.699 8.254 8.254c.751.75-.647 2.15-1.399 1.398-1.386-1.387-7.126-7.125-8.256-8.254-.75-.749.648-2.15 1.401-1.398z" fill="#b30bad"/><path d="m17.652 37.018c1.086 1.086 8.031 8.033 9.327 9.328.75.754-.649 2.154-1.4 1.402-1.387-1.389-8.197-8.199-9.329-9.328-.748-.75.651-2.15 1.402-1.402z" fill="#b30bad"/><path d="m19.938 33.02c1.086 1.086 9.745 9.744 11.042 11.043.75.75-.65 2.15-1.4 1.4-1.388-1.389-9.914-9.914-11.043-11.043-.75-.75.65-2.15 1.401-1.4z" fill="#014d87"/><path d="m23.938 30.735c1.389 1.389 8.198 8.199 9.327 9.328.751.75-.649 2.15-1.4 1.398-1.084-1.084-8.03-8.029-9.327-9.327-.753-.751.649-2.15 1.4-1.399z" fill="#e635de"/><path d="m2 49.627c7.886-7.645 21.296 5.877 30.149-4.811-10.286 2.532-23.3-6.068-30.149 4.811z" fill="#e635de"/><path d="m47.517 28.853c-7.887 7.647-21.297-5.876-30.15 4.813 9.484-2.333 22.273 7.699 30.15-4.813z" fill="#018bc9"/><path d="m46.349 26.981c-1.086-1.087-8.033-8.032-9.328-9.328-.752-.752.648-2.152 1.4-1.4 1.387 1.388 8.197 8.199 9.328 9.328.75.75-.65 2.15-1.4 1.4z" fill="#b30bad"/><path d="m44.063 30.979c-1.086-1.086-9.748-9.744-11.045-11.043-.75-.75.652-2.15 1.4-1.398 1.389 1.389 9.916 9.914 11.045 11.043.75.75-.65 2.148-1.4 1.398z" fill="#014d87"/><path d="m40.062 33.266c-1.389-1.389-8.199-8.2-9.327-9.331-.751-.747.649-2.147 1.399-1.397 1.084 1.086 8.031 8.031 9.328 9.327.752.753-.649 2.151-1.4 1.401z" fill="#e635de"/><path d="m49.63 2c-7.648 7.888 5.875 21.296-4.814 30.151 2.531-10.287-6.067-23.302 4.814-30.151z" fill="#006dae"/><path d="m57.635 17.41c-1.087-1.087-9.747-9.747-11.042-11.042-.751-.751.648-2.15 1.398-1.4 1.388 1.387 9.914 9.913 11.041 11.04.751.75-.646 2.153-1.397 1.402z" fill="#014d87"/><path d="m52.955 19.301c-1.087-1.086-6.958-6.958-8.255-8.255-.75-.751.647-2.149 1.398-1.398 1.389 1.386 7.127 7.124 8.256 8.253.75.75-.648 2.151-1.399 1.4z" fill="#b30bad"/><path d="m62 14.372c-7.886 7.646-21.296-5.875-30.151 4.813 10.288-2.534 23.3 6.066 30.151-4.813z" fill="#e635de"/></svg>