<svg enable-background="new 0 0 64 64" height="64" viewBox="0 0 64 64" width="64" xmlns="http://www.w3.org/2000/svg" xmlns:xlink="http://www.w3.org/1999/xlink"><linearGradient id="a"><stop offset="0" stop-color="#92c932"/><stop offset="1" stop-color="#6ca82e"/></linearGradient><linearGradient id="b" gradientUnits="userSpaceOnUse" x1="40.3574" x2="53.832" xlink:href="#a" y1="28.5889" y2="28.5889"/><linearGradient id="c" gradientUnits="userSpaceOnUse" x1="8.0098" x2="21.4843" xlink:href="#a" y1="28.5889" y2="28.5889"/><linearGradient id="d" gradientUnits="userSpaceOnUse" x1="46.1465" x2="46.1465" y1="58.5313" y2="58.4629"><stop offset="0" stop-color="#f6bec1"/><stop offset="1" stop-color="#f6d6d8"/></linearGradient><linearGradient id="e" gradientUnits="userSpaceOnUse" x1="32.0005" x2="32.0005" y1="62" y2="5.0884"><stop offset="0" stop-color="#6ca82e"/><stop offset=".3148" stop-color="#7eb830"/><stop offset=".69" stop-color="#8dc531"/><stop offset="1" stop-color="#92c932"/></linearGradient><linearGradient id="f" gradientUnits="userSpaceOnUse" x1="31.9487" x2="31.9487" y1="17.8096" y2="4.127"><stop offset="0" stop-color="#366b00"/><stop offset=".222" stop-color="#3f7305"/><stop offset=".584" stop-color="#578814"/><stop offset="1" stop-color="#7ba829"/></linearGradient><path d="m52.587 28.261c-.751-4.898-4.519-19.29-5.502-19.045-3.739 1.047-4.569 10.498-4.569 10.498l2.906 10.547 2.089 17.704 6.321-.37c-.167-4.823-.512-14.547-1.245-19.334z" fill="url(#b)"/><path d="m16.915 9.216c-.983-.245-4.751 14.146-5.502 19.045-.733 4.787-1.078 14.512-1.245 19.334l6.321.37 2.088-17.704 2.907-10.547s-.83-9.451-4.569-10.498z" fill="url(#c)"/><path d="m10.046 44.875-.046 2.825s2.283 1.798 6.691.556l.233-2.761c-4.056.877-6.878-.62-6.878-.62z" fill="#7ab51d"/><path d="m53.954 44.875.046 2.825s-2.283 1.798-6.691.556l-.233-2.761c4.056.877 6.878-.62 6.878-.62z" fill="#7ab51d"/><path d="m46.162 58.468c-.007-.006-.026-.006-.032 0-.083.081.12.089.032 0z" fill="url(#d)"/><path d="m47.168 9.216c-.432-.982-9.381-4.128-9.381-4.128l-5.787 11.174-5.787-11.174s-8.949 3.146-9.381 4.128c0 0 3.733 12.093 4.253 15.506 1.466 9.653-3.201 33.746-3.201 33.746 4.805 4.725 23.409 4.695 28.246 0 0 0-4.614-24.13-3.154-33.797.511-3.397 4.192-15.455 4.192-15.455z" fill="url(#e)"/><path d="m26.372 6.928h11.256l-5.628 11.557z" fill="#e6a3a8"/><g fill="#594640"><path d="m27.228 30.204c0 2.075 3 2.075 3 0 0-1.925-3-1.925-3 0z"/><path d="m34.772 30.204c0 2.075 3 2.075 3 0 0-1.925-3-1.925-3 0z"/><path d="m27.231 39.1c0 2.075 3 2.075 3 0 0-1.925-3-1.925-3 0z"/><path d="m34.776 39.1c0 2.075 3 2.075 3 0 0-1.925-3-1.925-3 0z"/><path d="m27.228 47.996c0 2.074 3 2.074 3 0 0-1.926-3-1.926-3 0z"/><path d="m34.772 47.996c0 2.074 3 2.074 3 0 0-1.926-3-1.926-3 0z"/><path d="m27.31 2h9.381s.938 7.591-4.69 15.086c-7.308-7.97-4.691-15.085-4.691-15.086z"/></g><path d="m27.31 4.418c.498-.423 9.037-.352 9.381 0 3.014 3.074-4.691 13.392-4.691 13.392s-7.998-10.58-4.69-13.392z" fill="url(#f)"/><path d="m32.937 16.644c-6.565-7.438-5.627-14.644-5.627-14.644l-6.556 8.374 6.556.452-4.683 7.42 6.982 4.167c.48-.788 3.328-5.769 3.328-5.769z" fill="#45332c"/><path d="m43.246 10.374-6.556-8.374s-.279 11.886-12.136 24.351v34.969l1.483.259v-35.105l15.335-8.228-4.683-7.42z" fill="#594640"/></svg>