<svg enable-background="new 0 0 64 64" height="64" viewBox="0 0 64 64" width="64" xmlns="http://www.w3.org/2000/svg"><path d="m34.899 54.994c-.536 2.03-1.461 4.156-1.461 4.156l1.371.427s.877-1.767 1.554-4.382c.034-.129-1.377-.526-1.464-.201z" fill="#013d6b"/><path d="m31.814 58.893-1.367-.423c1.507-3.064 1.926-5.028 2.387-8.273l1.478.066c-.48 3.369-.936 5.453-2.498 8.63z" fill="#013d6b"/><path d="m28.877 57.895-1.365-.424c1.507-3.063 2.137-5.477 2.6-8.721l1.476.066c-.48 3.369-1.148 5.901-2.711 9.079z" fill="#013d6b"/><path d="m36.526 54.489c.845-4.056 2.324-17.368-.388-39.562-1.227-4.974-17.96 29.307-19.204 33.896-.162.597 19.535 5.945 19.592 5.666z" fill="#a30505"/><g fill="#014d87"><path d="m27.733 53.686c2.418.566 5.279 1.096 8.628 1.51.195-.66.342-1.432.498-2.65-5.272 1.954-8.191-4.573-9.126 1.14z"/><path d="m25.875 55.928c-.953 1.871-2.107 3.664-3.451 5.365l1.25.707c1.4-1.762 2.375-3.152 3.59-5.564.06-.12-1.235-.807-1.389-.508z"/><path d="m21.207 60.172-1.246-.703c2.121-2.676 3.773-5.592 4.91-8.666l1.43.377c-1.182 3.191-2.895 6.216-5.094 8.992z"/><path d="m18.85 58.182-1.244-.703c2.121-2.676 3.771-5.592 4.91-8.666l1.428.377c-1.18 3.191-2.893 6.216-5.094 8.992z"/><path d="m14.137 54.783-1.246-.703c2.121-2.676 3.773-5.592 4.91-8.666l1.43.377c-1.182 3.191-2.895 6.217-5.094 8.992z"/><path d="m11.332 52.793-1.244-.703c2.119-2.676 3.77-5.592 4.908-8.668l1.43.379c-1.18 3.191-2.895 6.217-5.094 8.992z"/><path d="m16.492 56.191-1.244-.703c2.121-2.676 3.771-5.592 4.91-8.668l1.43.379c-1.182 3.192-2.895 6.215-5.096 8.992z"/><path d="m8.232 50.803-1.232-.721c1.086-1.52 1.621-2.344 2.227-3.27l1.988-.832c-.76 1.711-1.762 3.333-2.983 4.823z"/></g><path d="m15.432 13.833c12.262.834 11.572 4.238 20.129 3.197 6.002-.732 14.104-6.291 20.484-6.24 1.084.01 1.299-1.477.365-1.939l-.016-.008c.279-.451.236-2.387-.717-3.418.283-2.42-1.789-3.639-2.725-3.395-16.102 4.77-22.429 3.87-35.347 1.993-2.291-.096-2.592 2.775-2.256 3.428-.511.447-3.12 6.119.083 6.382z" fill="#c21413"/><path d="m27.572 55.779c1.684-3.785 5.943-16.484 7.984-38.75-.148-5.121-.908-5.746.547-11.424 0-1.121-2.238-2.152-4.121-2.043-.299.018-3.807.377-4.764.135-2.398-.609-4.379.65-4.475 1.699-3.018 6.711-.268 7.822-1.285 11.633-1.646 8.215-9.51 24.575-11.695 28.797-.284.549 17.694 10.213 17.809 9.953z" fill="#e81c27"/><path d="m35.783 13.97c5.465 2.221 14.088-6.098 20.611-5.125-7.011-3.207-14.302 6.008-20.611 5.125z" fill="#a30505"/><path d="m55.682 5.427c-7.075-.535-8.53 2.203-12.405 2.213 2.28-2.283 9.332-4.551 12.405-2.213z" fill="#a30505"/><path d="m15.35 7.451c1.656.016 3.939.469 5.447 1.094-1.533.337-4.221-.172-5.447-1.094z" fill="#a30505"/><path d="m27.326 15.193c.072-1.186.068-8.697.883-11.172-4.033 4.652-.883 11.172-.883 11.172z" fill="#c21413"/><path d="m35.561 17.031c-7.406.588-12.508.553-13.887-2.369.055.711.029 1.463-.213 2.367 2.035 2.576 14.078 2.5 14.1.002z" fill="#c21413"/><path d="m24.674 53.789c-2.453 0 .297-4.379-5.643-2.736-.574.16-1.193-.105-1.367-.594-.447-1.285-1.355-3.453-2.418-3.639-1.516-.261-5.316-.088-5.625-.72-.205.391-.344.637-.395.713 0 0 4.498 4.895 18.035 9.621.33-.604.637-1.326 1.047-2.484-.898.14-2.81-.161-3.634-.161z" fill="#006dae"/><path d="m28.311 53.949c.152-.324.236-.617.357-.982-1.078.102-2.039.824-3.127.676-1.102-.152-1.391-1.773-1.863-2.461-.703-1.027-1.768-1.186-3.09-1.012-.996.131-2.295.672-2.951-.215-.615-.832-.52-1.953-1.244-2.744-.807-.881-2.266-.777-3.438-.725-1.029.045-2.955-.395-2.42-2.186-.408.732-.703 1.35-.914 1.799.963 2.316 4.039 1.156 5.154 1.404 1.039.229 1.1 1.262 1.385 2.004.307.803.752 1.654 1.807 1.885 1.227.271 2.422-.391 3.645-.309 2.107.139 1.379 3.553 3.969 3.553.821.003 1.829-.546 2.73-.687z" fill="#ffe1bd"/><path d="m25.688 48.342c-.744-1.027-1.869-1.188-3.27-1.012-1.055.131-2.426.672-3.121-.215-.652-.832-.551-1.951-1.316-2.742-.854-.881-2.396-.777-3.637-.727-1.088.045-2.98-.262-2.418-2.195-.354.736-.711 1.326-.982 2.021 1.064 2.104 4.146.945 5.326 1.191 1.096.229 1.162 1.262 1.461 2.006.326.803.799 1.652 1.914 1.885 1.299.27 2.564-.391 3.855-.311 2.23.141 1.395 5.17 5.666 3.244.123-.322.221-.621.316-.99-2.843 1.571-3.294-1.468-3.794-2.155z" fill="#006dae"/><path d="m26.93 45.355c-.412-1.135-1.768-1.186-3.09-1.012-.996.131-2.295.674-2.949-.215-.615-.832-.52-1.951-1.246-2.742-.807-.881-2.266-.777-3.438-.727-1.029.045-3.094-.479-2.383-3.266-.432.82-.793 1.547-1.111 2.396.143.826.947 1.619 1.893 1.832 1.115.248 2.307-.191 3.424.057 1.037.229 1.098 1.262 1.383 2.006.305.803.754 1.652 1.807 1.885 1.225.271 2.422-.393 3.645-.311 2.109.139.99 4.816 5.205 3.293.09-.318.182-.643.273-.977-.507.174-2.208 1.114-3.413-2.219z" fill="#ffe1bd"/><path d="m31.422 18.294c0 6.459-3.113 10.637-8.795 17.727 2.219-5.161 5.23-11.167 5.23-17.625 0-1.271 3.565-1.375 3.565-.102z" fill="#c21413"/><path d="m26.637 18.537c-1.176 5.27-2.615 8.055-5.236 11.283 2.543-4.746 2.623-7.482 3.107-11.488.101-.836 2.312-.622 2.129.205z" fill="#c21413"/></svg>