<svg enable-background="new 0 0 64 64" height="64" viewBox="0 0 64 64" width="64" xmlns="http://www.w3.org/2000/svg" xmlns:xlink="http://www.w3.org/1999/xlink"><radialGradient id="a" cx="31.625" cy="7.5845" gradientUnits="userSpaceOnUse" r="6.0005"><stop offset=".6303" stop-color="#7a3c00"/><stop offset=".6892" stop-color="#9e570f"/><stop offset=".8194" stop-color="#f79c35"/><stop offset=".8303" stop-color="#ffa238"/><stop offset=".8534" stop-color="#f79c35"/><stop offset=".8885" stop-color="#e28c2c"/><stop offset=".9314" stop-color="#bf711d"/><stop offset=".98" stop-color="#904d09"/><stop offset="1" stop-color="#7a3c00"/></radialGradient><linearGradient id="b" gradientUnits="userSpaceOnUse" x1="30" x2="34" y1="10.5" y2="10.5"><stop offset="0" stop-color="#ffa238"/><stop offset=".1358" stop-color="#f79c35"/><stop offset=".3431" stop-color="#e28c2c"/><stop offset=".5959" stop-color="#bf711d"/><stop offset=".8821" stop-color="#904d09"/><stop offset="1" stop-color="#7a3c00"/></linearGradient><radialGradient id="c" cx="31.415577" cy="36.250488" gradientUnits="userSpaceOnUse" r="25.4742"><stop offset=".8061" stop-color="#7a3c00"/><stop offset=".84" stop-color="#9e570f"/><stop offset=".9149" stop-color="#f79c35"/><stop offset=".9212" stop-color="#ffa238"/><stop offset=".9319" stop-color="#f79c35"/><stop offset=".9482" stop-color="#e28c2c"/><stop offset=".9682" stop-color="#bf711d"/><stop offset=".9907" stop-color="#904d09"/><stop offset="1" stop-color="#7a3c00"/></radialGradient><radialGradient id="d" cx="31.999977" cy="36.999488" gradientUnits="userSpaceOnUse" r="21"><stop offset="0" stop-color="#fff8e0"/><stop offset=".3066" stop-color="#fff7de"/><stop offset=".4841" stop-color="#fff5d5"/><stop offset=".6287" stop-color="#fef1c7"/><stop offset=".7555" stop-color="#fdecb3"/><stop offset=".8707" stop-color="#fce59a"/><stop offset=".976" stop-color="#fadc7a"/><stop offset="1" stop-color="#fada72"/></radialGradient><linearGradient id="e" gradientUnits="userSpaceOnUse" x1="35.577177" x2="39.219677" y1="29.781788" y2="33.424288"><stop offset=".4" stop-color="#ff2121"/><stop offset=".6" stop-color="#a30008"/></linearGradient><linearGradient id="f" gradientTransform="matrix(.7071 .7071 -.7071 .7071 -336.918 -124.3888)" gradientUnits="userSpaceOnUse" x1="372.4082" x2="377.5596" y1="-139.1118" y2="-139.1118"><stop offset=".4" stop-color="#cfd8dd"/><stop offset=".6" stop-color="#93a1a8"/></linearGradient><radialGradient id="g" cx="374.2549" cy="-147.4741" gradientTransform="matrix(.7071 .7071 -.7071 .7071 -336.918 -124.3888)" gradientUnits="userSpaceOnUse" r="3.0935"><stop offset="0" stop-color="#cfd8dd"/><stop offset=".1801" stop-color="#cad3d8"/><stop offset=".4047" stop-color="#bac3c8"/><stop offset=".653" stop-color="#a1aaaf"/><stop offset=".9165" stop-color="#7e888d"/><stop offset="1" stop-color="#717b80"/></radialGradient><path d="m25.999 8c0 3.313 2.686 6 6 6 3.313 0 6.002-2.687 6.002-6 0-3.314-2.689-6-6.002-6-3.314 0-6 2.686-6 6zm2.002 0c0-2.21 1.789-4.001 3.998-4.001 2.211 0 4.002 1.791 4 4.001 0 2.209-1.789 3.999-4 3.999-2.209 0-3.998-1.79-3.998-3.999z" fill="url(#a)"/><path d="m30 13h4v-4.163c0-1.116-4-1.116-4 0z" fill="url(#b)"/><circle cx="32" cy="37" fill="url(#c)" r="25"/><path d="m11 37c0 11.596 9.403 21 20.999 21s21.001-9.403 21.001-21c0-11.598-9.405-21-21.001-21-11.594 0-20.999 9.402-20.999 21z" fill="url(#d)"/><path d="m33.085 18h.482c.1 0 .154.055.154.155v4.511c0 .1-.055.155-.154.155h-.341c-.083 0-.148-.031-.189-.101l-1.967-3.17v3.116c.001.1-.055.155-.155.155h-.48c-.101 0-.156-.055-.156-.156v-4.51c0-.1.056-.155.156-.155h.34c.083 0 .148.031.189.1l1.966 3.171v-3.116c0-.1.055-.155.155-.155z" fill="#ab8d47"/><path d="m51.001 38.809v.446c0 .101-.055.155-.154.155h-2.395-.12c-.1 0-.155-.055-.155-.155v-4.511c0-.1.056-.155.155-.155h.638 1.842c.1 0 .155.056.155.155v.447c0 .101-.055.156-.155.156l-1.842-.001v1.257h1.67c.1 0 .155.056.155.154v.436c0 .1-.056.154-.155.154h-1.67v1.305h1.877c.099 0 .154.056.154.157z" fill="#ab8d47"/><path d="m30.325 54.615c-.007-.106.052-.161.151-.161h.485c.094 0 .145.052.158.151.063.409.406.623.934.623.521 0 .83-.244.83-.604 0-.402-.428-.577-.923-.756-.706-.256-1.54-.521-1.54-1.516 0-.883.744-1.354 1.529-1.354s1.505.438 1.581 1.332c.007.107-.052.162-.151.162h-.485c-.093 0-.146-.052-.159-.148-.058-.381-.357-.574-.785-.574-.438 0-.736.228-.736.581 0 .421.382.597.871.778.709.262 1.591.52 1.591 1.494 0 .886-.755 1.375-1.622 1.375-.885.002-1.653-.453-1.729-1.383z" fill="#ab8d47"/><path d="m18.897 34.765-1.326 4.515c-.024.09-.086.131-.172.131h-.641c-.086 0-.147-.041-.171-.131l-.632-2.152-.635 2.152c-.024.09-.087.131-.173.131h-.641c-.086 0-.148-.041-.172-.131l-1.326-4.515c-.031-.109.021-.176.131-.176l.496.001c.09-.001.148.048.169.134l1.057 3.72.737-2.529-.337-1.149c-.031-.109.02-.176.131-.176h.427c.089 0 .148.049.168.135l1.058 3.72 1.058-3.72c.02-.086.079-.135.169-.135l.495.001c.109-.002.161.064.13.174z" fill="#ab8d47"/><path d="m36.001 21.009c5.892 1.471 10.52 6.098 11.99 11.991h.516c-1.491-6.17-6.338-11.015-12.507-12.507z" fill="#e5bc5e"/><path d="m16.009 33c1.471-5.893 6.1-10.521 11.991-11.991v-.516c-6.169 1.491-11.015 6.337-12.507 12.507z" fill="#e5bc5e"/><path d="m28 52.99c-5.893-1.469-10.521-6.097-11.991-11.99h-.516c1.491 6.17 6.338 11.016 12.507 12.507z" fill="#e5bc5e"/><path d="m47.991 41c-1.471 5.892-6.1 10.52-11.991 11.99v.517c6.169-1.492 11.016-6.339 12.507-12.507z" fill="#e5bc5e"/><g fill="#ffe7b5"><path d="m32.001 24.749c-6.766 0-12.25 5.484-12.25 12.25 0 6.767 5.484 12.25 12.25 12.25s12.25-5.483 12.25-12.25c0-6.766-5.484-12.25-12.25-12.25zm0 24.26c-6.633 0-12.01-5.377-12.01-12.01 0-6.632 5.377-12.01 12.01-12.01s12.01 5.377 12.01 12.01-5.377 12.01-12.01 12.01z"/><path d="m27.632 33.139-5.188-1.656 4.025 3.662c.252-.749.65-1.428 1.163-2.006z"/><path d="m36.37 33.139c.512.578.91 1.256 1.162 2.004l4.023-3.659z"/><path d="m30.146 31.469-3.663-4.025 1.657 5.187c.578-.512 1.257-.911 2.006-1.162z"/><path d="m35.861 32.629 1.656-5.184-3.661 4.024c.748.251 1.426.649 2.005 1.16z"/><path d="m26.469 38.855-4.024 3.66 5.185-1.655c-.512-.578-.91-1.256-1.161-2.005z"/><path d="m36.372 40.861 5.184 1.656-4.023-3.66c-.252.748-.649 1.426-1.161 2.004z"/><path d="m28.138 41.37-1.655 5.185 3.661-4.023c-.748-.252-1.427-.65-2.006-1.162z"/><path d="m33.857 42.532 3.659 4.023-1.654-5.185c-.578.513-1.257.911-2.005 1.162z"/></g><path d="m37.932 35.672c-.563-2.197-2.407-4.042-4.604-4.604l-1.326-6.089-1.323 6.068c-.999.244-1.997.784-2.919 1.706-.923.924-1.464 1.922-1.708 2.922l-6.073 1.325 6.091 1.327c.563 2.196 2.406 4.038 4.602 4.601l1.327 6.093 1.323-6.071c1-.244 1.999-.785 2.923-1.709.922-.922 1.462-1.918 1.706-2.918l6.07-1.323zm-2.747 4.509c-4.244 4.243-10.609-2.12-6.365-6.364 4.242-4.243 10.605 2.121 6.365 6.364z" fill="#e5bc5e"/><path d="m42.796 26.205-8.975 12.616-3.642-3.642z" fill="url(#e)"/><path d="m21.206 47.795 8.973-12.616 3.642 3.642z" fill="url(#f)"/><path d="m29.88 34.878c-2.83 2.829 1.414 7.071 4.242 4.242 2.828-2.827-1.414-7.07-4.242-4.242z" fill="#cfd8dd"/><path d="m30.233 35.23c-2.357 2.357 1.177 5.895 3.535 3.536 2.357-2.356-1.179-5.892-3.535-3.536z" fill="url(#g)"/></svg>