<svg enable-background="new 0 0 64 64" height="64" viewBox="0 0 64 64" width="64" xmlns="http://www.w3.org/2000/svg" xmlns:xlink="http://www.w3.org/1999/xlink"><linearGradient id="a"><stop offset="0" stop-color="#e6b53c"/><stop offset="1" stop-color="#fdd674"/></linearGradient><linearGradient id="b" gradientUnits="userSpaceOnUse" x1="32.0005" x2="32.0005" xlink:href="#a" y1="6" y2="4"/><linearGradient id="c"><stop offset="0" stop-color="#fdd674"/><stop offset="1" stop-color="#e6b53c"/></linearGradient><linearGradient id="d" gradientUnits="userSpaceOnUse" x1="56" x2="60" xlink:href="#c" y1="30" y2="30"/><linearGradient id="e" gradientUnits="userSpaceOnUse" x1="4" x2="8" xlink:href="#c" y1="30" y2="30"/><linearGradient id="f" gradientUnits="userSpaceOnUse" x1="32.0005" x2="32.0005" xlink:href="#a" y1="62" y2="54"/><g fill="#b3c2c6"><path d="m8 11.643h48v1h-48z"/><path d="m8 47.357h48v1h-48z"/><path d="m8 18.786h48v1h-48z"/><path d="m8 25.929h48v1h-48z"/><path d="m8 33.071h48v1h-48z"/><path d="m8 40.214h48v1h-48z"/></g><path d="m7 4h50v2h-50z" fill="url(#b)"/><path d="m56 2h4v56h-4z" fill="url(#d)"/><path d="m4 2h4v56h-4z" fill="url(#e)"/><path d="m2 54h60v8h-60z" fill="url(#f)"/><path d="m11.116 9.643c-2.192 0-2.116 1.333-2.116 2.502 0 1.167-.076 2.498 2.116 2.498s2.114-1.331 2.114-2.498c0-1.169.079-2.502-2.114-2.502z" fill="#f9c802"/><path d="m19.033 9.643c-2.192 0-2.116 1.333-2.116 2.502 0 1.167-.076 2.498 2.116 2.498s2.114-1.331 2.114-2.498c0-1.169.079-2.502-2.114-2.502z" fill="#ffe12c"/><path d="m23.265 9.643c-2.192 0-2.116 1.333-2.116 2.502 0 1.167-.076 2.498 2.116 2.498s2.114-1.331 2.114-2.498c0-1.169.078-2.502-2.114-2.502z" fill="#f9c802"/><path d="m27.497 9.643c-2.193 0-2.117 1.333-2.117 2.502 0 1.167-.076 2.498 2.117 2.498 2.192 0 2.114-1.331 2.114-2.498 0-1.169.078-2.502-2.114-2.502z" fill="#ffe12c"/><path d="m31.729 9.643c-2.193 0-2.116 1.333-2.116 2.502 0 1.167-.077 2.498 2.116 2.498 2.192 0 2.114-1.331 2.114-2.498 0-1.169.078-2.502-2.114-2.502z" fill="#f9c802"/><path d="m35.96 9.643c-2.193 0-2.117 1.333-2.117 2.502 0 1.167-.076 2.498 2.117 2.498 2.192 0 2.114-1.331 2.114-2.498 0-1.169.078-2.502-2.114-2.502z" fill="#ffe12c"/><path d="m40.191 9.643c-2.193 0-2.117 1.333-2.117 2.502 0 1.167-.076 2.498 2.117 2.498 2.192 0 2.114-1.331 2.114-2.498.001-1.169.079-2.502-2.114-2.502z" fill="#f9c802"/><path d="m44.422 9.643c-2.192 0-2.116 1.333-2.116 2.502 0 1.167-.076 2.498 2.116 2.498 2.193 0 2.115-1.331 2.115-2.498 0-1.169.078-2.502-2.115-2.502z" fill="#ffe12c"/><path d="m48.654 9.643c-2.193 0-2.117 1.333-2.117 2.502 0 1.167-.076 2.498 2.117 2.498 2.191 0 2.113-1.331 2.113-2.498.001-1.169.079-2.502-2.113-2.502z" fill="#f9c802"/><path d="m52.887 9.643c-2.195 0-2.119 1.333-2.119 2.502 0 1.167-.076 2.498 2.119 2.498 2.191 0 2.113-1.331 2.113-2.498 0-1.169.078-2.502-2.113-2.502z" fill="#ffe12c"/><path d="m11.116 16.786c-2.192 0-2.116 1.333-2.116 2.502 0 1.167-.076 2.498 2.116 2.498s2.114-1.331 2.114-2.498c0-1.169.079-2.502-2.114-2.502z" fill="#f59e01"/><path d="m15.348 16.786c-2.192 0-2.116 1.333-2.116 2.502 0 1.167-.076 2.498 2.116 2.498s2.114-1.331 2.114-2.498c0-1.169.078-2.502-2.114-2.502z" fill="#ea8800"/><path d="m23.265 16.786c-2.193 0-2.116 1.333-2.116 2.502 0 1.167-.077 2.498 2.116 2.498 2.192 0 2.114-1.331 2.114-2.498 0-1.169.078-2.502-2.114-2.502z" fill="#f59e01"/><path d="m27.496 16.786c-2.193 0-2.116 1.333-2.116 2.502 0 1.167-.077 2.498 2.116 2.498 2.192 0 2.114-1.331 2.114-2.498 0-1.169.078-2.502-2.114-2.502z" fill="#ea8800"/><path d="m31.728 16.786c-2.192 0-2.116 1.333-2.116 2.502 0 1.167-.076 2.498 2.116 2.498 2.193 0 2.115-1.331 2.115-2.498 0-1.169.078-2.502-2.115-2.502z" fill="#f59e01"/><path d="m35.96 16.786c-2.193 0-2.117 1.333-2.117 2.502 0 1.167-.076 2.498 2.117 2.498 2.192 0 2.114-1.331 2.114-2.498 0-1.169.078-2.502-2.114-2.502z" fill="#ea8800"/><path d="m40.191 16.786c-2.193 0-2.117 1.333-2.117 2.502 0 1.167-.076 2.498 2.117 2.498 2.192 0 2.114-1.331 2.114-2.498.001-1.169.079-2.502-2.114-2.502z" fill="#f59e01"/><path d="m44.422 16.786c-2.192 0-2.116 1.333-2.116 2.502 0 1.167-.076 2.498 2.116 2.498 2.193 0 2.115-1.331 2.115-2.498 0-1.169.078-2.502-2.115-2.502z" fill="#ea8800"/><path d="m48.654 16.786c-2.193 0-2.117 1.333-2.117 2.502 0 1.167-.076 2.498 2.117 2.498 2.191 0 2.113-1.331 2.113-2.498.001-1.169.079-2.502-2.113-2.502z" fill="#f59e01"/><path d="m52.887 16.786c-2.195 0-2.119 1.333-2.119 2.502 0 1.167-.076 2.498 2.119 2.498 2.191 0 2.113-1.331 2.113-2.498 0-1.169.078-2.502-2.113-2.502z" fill="#ea8800"/><path d="m11.116 23.93c-2.192 0-2.116 1.333-2.116 2.502 0 1.167-.076 2.498 2.116 2.498s2.114-1.331 2.114-2.498c0-1.169.079-2.502-2.114-2.502z" fill="#ff1c23"/><path d="m15.348 23.93c-2.192 0-2.116 1.333-2.116 2.502 0 1.167-.076 2.498 2.116 2.498s2.114-1.331 2.114-2.498c0-1.169.078-2.502-2.114-2.502z" fill="#e30007"/><path d="m19.579 23.93c-2.192 0-2.116 1.333-2.116 2.502 0 1.167-.076 2.498 2.116 2.498s2.114-1.331 2.114-2.498c0-1.169.078-2.502-2.114-2.502z" fill="#ff1c23"/><path d="m27.496 23.93c-2.193 0-2.116 1.333-2.116 2.502 0 1.167-.077 2.498 2.116 2.498 2.192 0 2.114-1.331 2.114-2.498 0-1.169.078-2.502-2.114-2.502z" fill="#ff1c23"/><path d="m31.728 23.93c-2.192 0-2.116 1.333-2.116 2.502 0 1.167-.076 2.498 2.116 2.498 2.193 0 2.115-1.331 2.115-2.498 0-1.169.078-2.502-2.115-2.502z" fill="#e30007"/><path d="m35.96 23.93c-2.193 0-2.117 1.333-2.117 2.502 0 1.167-.076 2.498 2.117 2.498 2.192 0 2.114-1.331 2.114-2.498 0-1.169.078-2.502-2.114-2.502z" fill="#ff1c23"/><path d="m40.191 23.93c-2.193 0-2.117 1.333-2.117 2.502 0 1.167-.076 2.498 2.117 2.498 2.192 0 2.114-1.331 2.114-2.498.001-1.169.079-2.502-2.114-2.502z" fill="#e30007"/><path d="m44.422 23.93c-2.192 0-2.116 1.333-2.116 2.502 0 1.167-.076 2.498 2.116 2.498 2.193 0 2.115-1.331 2.115-2.498 0-1.169.078-2.502-2.115-2.502z" fill="#ff1c23"/><path d="m48.654 23.93c-2.193 0-2.117 1.333-2.117 2.502 0 1.167-.076 2.498 2.117 2.498 2.191 0 2.113-1.331 2.113-2.498.001-1.169.079-2.502-2.113-2.502z" fill="#e30007"/><path d="m52.887 23.93c-2.195 0-2.119 1.333-2.119 2.502 0 1.167-.076 2.498 2.119 2.498 2.191 0 2.113-1.331 2.113-2.498 0-1.169.078-2.502-2.113-2.502z" fill="#ff1c23"/><path d="m11.116 31.073c-2.192 0-2.116 1.333-2.116 2.502 0 1.167-.076 2.498 2.116 2.498s2.114-1.331 2.114-2.498c0-1.169.079-2.502-2.114-2.502z" fill="#a71dde"/><path d="m15.348 31.073c-2.192 0-2.116 1.333-2.116 2.502 0 1.167-.076 2.498 2.116 2.498s2.114-1.331 2.114-2.498c0-1.169.078-2.502-2.114-2.502z" fill="#bc2af7"/><path d="m19.579 31.073c-2.192 0-2.116 1.333-2.116 2.502 0 1.167-.076 2.498 2.116 2.498s2.114-1.331 2.114-2.498c0-1.169.078-2.502-2.114-2.502z" fill="#a71dde"/><path d="m23.811 31.073c-2.192 0-2.116 1.333-2.116 2.502 0 1.167-.076 2.498 2.116 2.498s2.114-1.331 2.114-2.498c0-1.169.078-2.502-2.114-2.502z" fill="#bc2af7"/><path d="m31.728 31.073c-2.192 0-2.116 1.333-2.116 2.502 0 1.167-.076 2.498 2.116 2.498 2.193 0 2.115-1.331 2.115-2.498 0-1.169.078-2.502-2.115-2.502z" fill="#bc2af7"/><path d="m35.96 31.073c-2.193 0-2.117 1.333-2.117 2.502 0 1.167-.076 2.498 2.117 2.498 2.192 0 2.114-1.331 2.114-2.498 0-1.169.078-2.502-2.114-2.502z" fill="#a71dde"/><path d="m40.191 31.073c-2.193 0-2.117 1.333-2.117 2.502 0 1.167-.076 2.498 2.117 2.498 2.192 0 2.114-1.331 2.114-2.498.001-1.169.079-2.502-2.114-2.502z" fill="#bc2af7"/><path d="m44.422 31.073c-2.192 0-2.116 1.333-2.116 2.502 0 1.167-.076 2.498 2.116 2.498 2.193 0 2.115-1.331 2.115-2.498 0-1.169.078-2.502-2.115-2.502z" fill="#a71dde"/><path d="m48.654 31.073c-2.193 0-2.117 1.333-2.117 2.502 0 1.167-.076 2.498 2.117 2.498 2.191 0 2.113-1.331 2.113-2.498.001-1.169.079-2.502-2.113-2.502z" fill="#bc2af7"/><path d="m52.887 31.073c-2.195 0-2.119 1.333-2.119 2.502 0 1.167-.076 2.498 2.119 2.498 2.191 0 2.113-1.331 2.113-2.498 0-1.169.078-2.502-2.113-2.502z" fill="#a71dde"/><path d="m11.116 38.217c-2.192 0-2.116 1.333-2.116 2.502 0 1.167-.076 2.498 2.116 2.498s2.114-1.331 2.114-2.498c0-1.169.079-2.502-2.114-2.502z" fill="#018bc9"/><path d="m15.348 38.217c-2.192 0-2.116 1.333-2.116 2.502 0 1.167-.076 2.498 2.116 2.498s2.114-1.331 2.114-2.498c0-1.169.078-2.502-2.114-2.502z" fill="#006dae"/><path d="m19.579 38.217c-2.192 0-2.116 1.333-2.116 2.502 0 1.167-.076 2.498 2.116 2.498s2.114-1.331 2.114-2.498c0-1.169.078-2.502-2.114-2.502z" fill="#018bc9"/><path d="m23.811 38.217c-2.192 0-2.116 1.333-2.116 2.502 0 1.167-.076 2.498 2.116 2.498s2.114-1.331 2.114-2.498c0-1.169.078-2.502-2.114-2.502z" fill="#006dae"/><path d="m28.043 38.217c-2.193 0-2.117 1.333-2.117 2.502 0 1.167-.076 2.498 2.117 2.498 2.192 0 2.114-1.331 2.114-2.498 0-1.169.078-2.502-2.114-2.502z" fill="#018bc9"/><path d="m35.96 38.217c-2.193 0-2.117 1.333-2.117 2.502 0 1.167-.076 2.498 2.117 2.498 2.192 0 2.114-1.331 2.114-2.498 0-1.169.078-2.502-2.114-2.502z" fill="#018bc9"/><path d="m40.191 38.217c-2.193 0-2.117 1.333-2.117 2.502 0 1.167-.076 2.498 2.117 2.498 2.192 0 2.114-1.331 2.114-2.498.001-1.169.079-2.502-2.114-2.502z" fill="#006dae"/><path d="m44.422 38.217c-2.192 0-2.116 1.333-2.116 2.502 0 1.167-.076 2.498 2.116 2.498 2.193 0 2.115-1.331 2.115-2.498 0-1.169.078-2.502-2.115-2.502z" fill="#018bc9"/><path d="m48.654 38.217c-2.193 0-2.117 1.333-2.117 2.502 0 1.167-.076 2.498 2.117 2.498 2.191 0 2.113-1.331 2.113-2.498.001-1.169.079-2.502-2.113-2.502z" fill="#006dae"/><path d="m52.887 38.217c-2.195 0-2.119 1.333-2.119 2.502 0 1.167-.076 2.498 2.119 2.498 2.191 0 2.113-1.331 2.113-2.498 0-1.169.078-2.502-2.113-2.502z" fill="#018bc9"/><path d="m11.116 45.36c-2.192 0-2.116 1.333-2.116 2.502 0 1.167-.076 2.498 2.116 2.498s2.114-1.331 2.114-2.498c0-1.169.079-2.502-2.114-2.502z" fill="#529320"/><path d="m15.348 45.36c-2.192 0-2.116 1.333-2.116 2.502 0 1.167-.076 2.498 2.116 2.498s2.114-1.331 2.114-2.498c0-1.169.078-2.502-2.114-2.502z" fill="#7ab51d"/><path d="m19.579 45.36c-2.192 0-2.116 1.333-2.116 2.502 0 1.167-.076 2.498 2.116 2.498s2.114-1.331 2.114-2.498c0-1.169.078-2.502-2.114-2.502z" fill="#529320"/><path d="m23.811 45.36c-2.192 0-2.116 1.333-2.116 2.502 0 1.167-.076 2.498 2.116 2.498s2.114-1.331 2.114-2.498c0-1.169.078-2.502-2.114-2.502z" fill="#7ab51d"/><path d="m28.043 45.36c-2.193 0-2.117 1.333-2.117 2.502 0 1.167-.076 2.498 2.117 2.498 2.192 0 2.114-1.331 2.114-2.498 0-1.169.078-2.502-2.114-2.502z" fill="#529320"/><path d="m32.274 45.36c-2.193 0-2.117 1.333-2.117 2.502 0 1.167-.076 2.498 2.117 2.498 2.192 0 2.114-1.331 2.114-2.498.001-1.169.079-2.502-2.114-2.502z" fill="#7ab51d"/><path d="m40.191 45.36c-2.193 0-2.117 1.333-2.117 2.502 0 1.167-.076 2.498 2.117 2.498 2.192 0 2.114-1.331 2.114-2.498.001-1.169.079-2.502-2.114-2.502z" fill="#7ab51d"/><path d="m44.422 45.36c-2.192 0-2.116 1.333-2.116 2.502 0 1.167-.076 2.498 2.116 2.498 2.193 0 2.115-1.331 2.115-2.498 0-1.169.078-2.502-2.115-2.502z" fill="#529320"/><path d="m48.654 45.36c-2.193 0-2.117 1.333-2.117 2.502 0 1.167-.076 2.498 2.117 2.498 2.191 0 2.113-1.331 2.113-2.498.001-1.169.079-2.502-2.113-2.502z" fill="#7ab51d"/><path d="m52.887 45.36c-2.195 0-2.119 1.333-2.119 2.502 0 1.167-.076 2.498 2.119 2.498 2.191 0 2.113-1.331 2.113-2.498 0-1.169.078-2.502-2.113-2.502z" fill="#529320"/></svg>