<svg enable-background="new 0 0 64 64" height="64" viewBox="0 0 64 64" width="64" xmlns="http://www.w3.org/2000/svg"><path d="m51 61c0 .549-.449 1-1 1h-36c-.55 0-1-.451-1-1v-58c0-.55.45-1 1-1h36c.551 0 1 .45 1 1z" fill="#e81c27"/><g fill="#ffe12c"><path d="m37.451 24.454c.697-.26 1.617-.026 1.645.798.027.814-3.896 2.033-5.074 1.924-.635-.06-1.516-.389-1.456-1.033.059-.623 2.436-.775 4.885-1.689z"/><path d="m27.35 24.219c2.392-.478 4.469 3.283 2.443 3.285-1.007.002-3.976-2.978-2.443-3.285z"/><path d="m38.297 30.742c.451 1.355-1.123.995-4.182 1.736-.059.248-1.281 1.203-1.328.393-.125-2.142-1.619-3.438-1.209-4.053.307-.46.835-.062 1.409-.047.907.023 4.002-1.189 4.229-1.221.771-.102 2.326.615 2.443 1.267.181 1.025-1.138 1.162-1.362 1.925zm-4.512-.657c.002.344.129.563.143.893.992-.089 1.84-.32 2.631-.609.078-.244.199-.666.141-.893-1.116.057-1.897.449-2.915.609z"/><path d="m27.961 31.07c-.865.037-2.468 1.426-3.664 1.174-.682-.145-1.697-1.248-.939-1.972 1.882-.078 4.023-.594 5.497-1.548.733-.476 1.849.62 1.88 1.22.029.605-1.127 1.807-1.975 3.286.584.167 1.233.27 1.598.656.415-.805 1.119-.032 1.691.047.473.064 6.511-1.443 7.283-1.361.783.083 2.066.876 2.162 1.643.078.65-.404.89-.564 1.361-.25.733-.525 4.442-.705 5.208-.195.823-.889 2.32-1.598 2.3-1.029-.027-.58-1.946-1.223-2.486-1.623-.223-2.732.455-4.322.422-.107.652-.162 1.492-.798 1.406-.889-.117-.9-1.992-.985-3.191-.112-1.553-.21-2.877-.47-3.707-.395.725-1.488.335-1.832-.328-.154 1.949.141 4.451-.141 6.383-.099.674-.197 1.57-.799 1.594-.77.032-1.186-1.353-1.127-2.158.057-.803.529-4.703.563-5.678-.526.652-4.701 4.804-4.979 3.613-.143-.609 1.142-1.633 1.409-1.924 1.625-1.78 2.994-3.689 4.038-5.96zm8.314 4.739c.838-.348 2.408-.186 2.164.894-.186.81-1.645.628-2.396.984.012.292-.008.962 0 1.409.977-.275 1.941-.178 2.396.421.307-1.517.58-3.427.375-5.162-.928.028-1.836.073-2.537.329.211.105.149.771-.002 1.125zm-3.709-.514c.022.51.08.982.14 1.453.285-.324 1.31-.318 1.88-.516-.082-.396-.02-.993-.094-1.267-.687.065-1.316.185-1.926.33zm.422 4.269c.471-.123 1.057-.131 1.551-.234-.01-.512 0-1.002.047-1.455-.807.055-1.453-.053-1.833-.422.13.651.062 1.501.235 2.111z"/></g><path d="m13 3.328c0 13.06 38 13.059 38 0z" fill="#850404"/><path d="m50 2h-36c-.55 0-1 .45-1 1 0 12.426 38 12.426 38 0 0-.55-.449-1-1-1z" fill="#d41924"/><path d="m37.793 16.454h-11.586c0-8.799 11.586-8.799 11.586 0z" fill="#850404"/><path d="m37.871 16.884h-11.74c0-8.081 11.74-8.081 11.74 0z" fill="#e81c27"/></svg>