<svg enable-background="new 0 0 64 64" height="64" viewBox="0 0 64 64" width="64" xmlns="http://www.w3.org/2000/svg" xmlns:xlink="http://www.w3.org/1999/xlink"><linearGradient id="a" gradientUnits="userSpaceOnUse" x1="25.4497" x2="53.5112" y1="24.3491" y2="56.6421"><stop offset="0" stop-color="#019be0"/><stop offset="1" stop-color="#0174a8"/></linearGradient><path d="m4.009 57.326c-5.046-3.268 3.567-7.277 11.341-4.684-6.045-.552-8.368 6.612-11.341 4.684z" fill="#4e5e67"/><path d="m46.215 20.081c-.506.335-4.146-.218-4.357-.806-.963-2.696 6.285-.473 4.357.806z" fill="#302c3b"/><path d="m15.1 45.508c-5.818 4.516-13.408 7.416-12.85 9.385.729 2.563-1.696-2.883 10.002-2.43 10.423.404 29.848 21.391 43.575-1.143-12.364-14.797-35.864-15.951-40.727-5.812z" fill="#014d87"/><path d="m15.1 45.508c16.955-7.254 32.363 5.813 45.91 7.014 9.121-42.567-47.789-44.425-45.91-7.014z" fill="url(#a)"/><path d="m55.68 51.561c2.814-14.766-.992-27.705-10.709-31.804 9.228 4.895 12.129 16.782 10.709 31.804z" fill="#014d87"/><path d="m55.1 51.012c1.787-14.953-2.359-27.542-10.943-31.378 8.481 4.617 12.09 16.387 10.943 31.378z" fill="#0fb4d4"/><path d="m12.494 51.113c-6.154-.779-14.334 3.075-8.485 6.213-3.242-2.883.886-4.707 7.704-4.396 7.572.348 24.114 14.295 35.843 6.924-14.456 5.64-22.779-7.188-35.062-8.741z" fill="#302c3b"/><g fill="#006dae"><path d="m8.955 49.828c15.998-2.016 30.176 21.879 45.663 1.412-15.897 19.748-29.466-4.179-45.663-1.412z"/><path d="m11.167 48.766c15.021-1.896 28.388 19.066 42.053 2.049-14.181 16.216-26.845-4.653-42.053-2.049z"/><path d="m14.02 47.826c13.635-1.756 25.081 15.617 37.662 2.482-13.28 12.497-23.859-4.894-37.662-2.482z"/></g><path d="m15.1 44.576c17.094-7.076 32.363 6.039 45.91 7.24-15.879-2.753-28.576-14.541-45.91-7.24z" fill="#0fb4d4"/></svg>