<svg enable-background="new 0 0 64 64" height="64" viewBox="0 0 64 64" width="64" xmlns="http://www.w3.org/2000/svg" xmlns:xlink="http://www.w3.org/1999/xlink"><linearGradient id="a"><stop offset="0" stop-color="#e6ebef"/><stop offset="1" stop-color="#c5d7e8"/></linearGradient><linearGradient id="b" gradientTransform="matrix(.7071 .7071 -.7071 .7071 21.6235 18.3895)" gradientUnits="userSpaceOnUse" x1="5.748" x2="28.1758" xlink:href="#a" y1="6.4063" y2="6.4063"/><linearGradient id="c"><stop offset="0" stop-color="#c5d7e8"/><stop offset="1" stop-color="#e6ebef"/></linearGradient><linearGradient id="d" gradientTransform="matrix(.7071 .7071 -.7071 .7071 21.6235 18.3895)" gradientUnits="userSpaceOnUse" x1="7.7476" x2="26.1758" xlink:href="#c" y1="5.5308" y2="5.5308"/><linearGradient id="e" gradientTransform="matrix(.7071 .7071 -.7071 .7071 21.6235 18.3895)" gradientUnits="userSpaceOnUse" x1="10.4185" x2="23.5034" y1="11.6323" y2="11.6323"><stop offset="0" stop-color="#a3f01f"/><stop offset="1" stop-color="#62ad00"/></linearGradient><linearGradient id="f" gradientTransform="matrix(.7071 .7071 -.7071 .7071 21.6235 18.3895)" gradientUnits="userSpaceOnUse" x1="14.314" x2="14.314" y1="38.0439" y2="-28.7241"><stop offset="0" stop-color="#fff" stop-opacity="0"/><stop offset=".1142" stop-color="#fff" stop-opacity=".0571"/><stop offset="1" stop-color="#fff" stop-opacity=".5"/></linearGradient><linearGradient id="g" gradientTransform="matrix(.7071 .7071 -.7071 .7071 21.6235 18.3895)" gradientUnits="userSpaceOnUse" x1="16.9614" x2="16.9614" xlink:href="#a" y1="-25.541" y2="-31.1494"/><linearGradient id="h" gradientTransform="matrix(.7071 .7071 -.7071 .7071 21.6235 18.3895)" gradientUnits="userSpaceOnUse" x1="8.293" x2="25.6289" xlink:href="#c" y1="-28.7451" y2="-28.7451"/><path d="m45.401 2.74s.773 3.191-1.816 5.78c-7.887 7.889-25.557 25.555-39.484 39.485-6.94 6.938 4.955 18.834 11.893 11.895 11.803-11.803 31.084-31.083 39.484-39.485 2.578-2.576 5.783-1.816 5.783-1.816z" fill="url(#b)"/><path d="m46.815 4.154s.773 3.191-1.816 5.78c-7.887 7.89-24.85 24.848-38.777 38.778-6.232 6.23 2.834 15.297 9.064 9.064 11.803-11.8 30.377-30.375 38.777-38.776 2.578-2.576 5.783-1.816 5.783-1.816z" fill="url(#d)"/><path d="m38.579 16.17c-6.574 6.571-21.297 21.293-32.904 32.901-5.783 5.783 3.469 15.035 9.252 9.252 9.832-9.832 25.904-25.902 32.904-32.903 2.147-2.145-7.094-11.408-9.252-9.25z" fill="url(#e)"/><path d="m48.288 24.963c-1.543 1.544-10.793-7.709-9.25-9.251 1.539-1.543 10.793 7.709 9.25 9.251z" fill="#529320"/><g fill="#302c3b"><path d="m40.06 33.192s-2.285-.873-4.949-3.538l1.545-1.543c2.664 2.664 4.949 3.536 4.949 3.536z" opacity=".5"/><path d="m35.11 38.14s-2.285-.871-4.949-3.535l1.543-1.543c2.664 2.664 4.951 3.535 4.951 3.535z" opacity=".5"/><path d="m30.161 43.091s-2.287-.871-4.952-3.537l1.545-1.543c2.664 2.664 4.949 3.535 4.949 3.535z" opacity=".5"/><path d="m25.21 48.038s-2.285-.871-4.949-3.535l1.545-1.543c2.664 2.664 4.949 3.535 4.949 3.535z" opacity=".5"/><path d="m20.261 52.991s-2.286-.871-4.95-3.535l1.545-1.545c2.664 2.664 4.949 3.535 4.949 3.535z" opacity=".5"/></g><path d="m49.375 13.113c.89-.891 1.377-1.848 1.64-2.727l-2.828-2.828c-.264.878-.75 1.836-1.641 2.727-7.887 7.888-24.849 24.849-38.776 38.777-2.856 2.857-2.495 6.303-.67 8.605.076-1.463.703-2.982 2.084-4.361 13.927-13.93 32.303-32.305 40.191-40.193z" fill="url(#f)"/><path d="m61.708 18.385c-2.645 2.645-18.738-13.448-16.094-16.093 2.645-2.643 18.737 13.451 16.094 16.093z" fill="url(#g)"/><path d="m60.072 16.185c-1.384 1.387-13.645-10.871-12.259-12.258 1.385-1.386 13.647 10.873 12.259 12.258z" fill="url(#h)"/></svg>