<svg enable-background="new 0 0 64 64" height="64" viewBox="0 0 64 64" width="64" xmlns="http://www.w3.org/2000/svg" xmlns:xlink="http://www.w3.org/1999/xlink"><linearGradient id="a" gradientUnits="userSpaceOnUse" x1="27.0005" x2="27.0005" y1="58.8027" y2="36.1855"><stop offset="0" stop-color="#c1e668"/><stop offset="1" stop-color="#e5efcd"/></linearGradient><path d="m27 52.928s-19.531.225-25-11.957v10.418s2.684 10.611 25 10.611c22.314 0 25-10.611 25-10.611v-10.418c-5.469 12.181-25 11.957-25 11.957z" fill="#cadde3"/><path d="m21.373 54.943c-.021.027-.042.057-.067.084.025-.027.047-.056.067-.084z" fill="#cae8f0"/><path d="m27 28.001c-13.808 0-25 5.802-25 12.97 0 7.158 11.192 12.967 25 12.967 13.807 0 25-5.809 25-12.967 0-7.168-11.193-12.97-25-12.97z" fill="#cadde3"/><path d="m27 36.186c-12.973 0-23.486 5.063-23.486 11.309 0 6.244 10.514 11.309 23.486 11.309s23.486-5.064 23.486-11.309c0-6.247-10.514-11.309-23.486-11.309z" fill="url(#a)"/><path d="m35.134 38.398c-5.764-.887-4.904 2.531.333 2.975 5.765.494 5.125-2.137-.333-2.975z" fill="#a3c86b"/><path d="m32.076 46.215c.087 1.758 7.323 1.787 6.456.16-.955-1.791-6.536-1.82-6.456-.16z" fill="#a3c86b"/><path d="m33.451 49.563c.087 1.758 7.323 1.787 6.456.16-.955-1.791-6.536-1.821-6.456-.16z" fill="#529320"/><path d="m20.319 43.09c.095 1.912 7.977 1.943 7.031.174-1.038-1.953-7.12-1.983-7.031-.174z" fill="#529320"/><path d="m24.477 46.59c.067 1.357 5.664 1.381 4.993.123-.739-1.387-5.057-1.408-4.993-.123z" fill="#7ab51d"/><path d="m28.619 54.848c.086 1.727 7.198 1.754 6.346.156-.939-1.762-6.427-1.789-6.346-.156z" fill="#a3c86b"/><path d="m12.037 47.449c.058 1.17 4.875 1.189 4.297.107-.635-1.193-4.351-1.212-4.297-.107z" fill="#529320"/><path d="m25.995 55.721c.058 1.17 4.875 1.189 4.297.107-.635-1.193-4.351-1.213-4.297-.107z" fill="#a3c86b"/><path d="m39.518 44.955c.058 1.17 4.875 1.189 4.297.107-.635-1.193-4.351-1.212-4.297-.107z" fill="#7ab51d"/><path d="m22.382 38.795c.058 1.17 4.875 1.189 4.297.107-.635-1.193-4.351-1.213-4.297-.107z" fill="#529320"/><path d="m7.691 42.588c.058 1.17 4.875 1.188 4.297.105-.634-1.191-4.35-1.211-4.297-.105z" fill="#a3c86b"/><path d="m40.227 41.258c.058 1.17 4.875 1.188 4.297.105-.635-1.191-4.351-1.211-4.297-.105z" fill="#a3c86b"/><path d="m37.482 52.137c.361 2.932 9.141 1.217 7.851-1.303-1.42-2.781-8.191-1.469-7.851 1.303z" fill="#529320"/><path d="m20.095 54.85c7.726.742 6.317-5.455-.68-5.463-7.693-.012-6.633 4.765.68 5.463z" fill="#a3c86b"/><path d="m14.738 43.828c4.817-.033 3.729-3.789-.611-3.344-4.772.489-3.948 3.383.611 3.344z" fill="#a3c86b"/><path d="m27 52.928s-19.531.225-25-11.957v10.418s2.684 10.611 25 10.611c22.314 0 25-10.611 25-10.611v-10.418c-5.469 12.181-25 11.957-25 11.957z" fill="#bcced4" opacity=".5"/><path d="m27 28.001c-13.808 0-25 5.804-25 12.97 0 7.162 11.192 12.969 25 12.969 13.807 0 25-5.807 25-12.969 0-7.166-11.193-12.97-25-12.97zm0 23.794c-12.973 0-23.486-5.063-23.486-11.307 0-6.248 10.513-11.308 23.486-11.308 12.972 0 23.486 5.06 23.486 11.308 0 6.244-10.514 11.307-23.486 11.307z" fill="#e6f2f5"/><path d="m28.555 34.213c-.029.023-.055.043-.088.063.033-.02.058-.04.088-.063z" fill="#cae8f0"/><path d="m40.87 9.987c-12.898-3.461-24.812-.82-26.61 5.891-1.802 6.709 7.198 14.953 20.101 18.405 12.898 3.459 24.814.82 26.612-5.886 1.797-6.714-7.201-14.957-20.103-18.41z" fill="#cadde3" opacity=".7"/><path d="m34.515 33.717s-18.927-4.835-21.046-18.054l-2.704 10.092s-.162 10.972 21.394 16.747c21.555 5.775 26.902-3.809 26.902-3.809l2.702-10.087c-8.441 10.382-27.248 5.111-27.248 5.111z" fill="#e6f2f5" opacity=".8"/><path d="m40.982 9.571c-13.34-3.572-25.657-.848-27.514 6.092-1.861 6.941 7.441 15.462 20.779 19.036 13.339 3.572 25.657.842 27.515-6.093 1.864-6.939-7.443-15.46-20.78-19.035zm-6.174 23.047c-12.531-3.355-21.374-10.982-19.752-17.033 1.619-6.045 13.09-8.229 25.62-4.869 12.531 3.357 21.373 10.982 19.752 17.029-1.621 6.048-13.092 8.232-25.62 4.873z" fill="#cadde3"/></svg>