<svg enable-background="new 0 0 64 64" height="64" viewBox="0 0 64 64" width="64" xmlns="http://www.w3.org/2000/svg" xmlns:xlink="http://www.w3.org/1999/xlink"><linearGradient id="a" gradientTransform="matrix(.9848 .1737 -.1737 .9848 52.2873 -39.4228)" gradientUnits="userSpaceOnUse" x1="-32.9536" x2="-1.6123" y1="72.835" y2="72.835"><stop offset=".1333" stop-color="#019ce3"/><stop offset=".2982" stop-color="#0193d8"/><stop offset=".5828" stop-color="#007abc"/><stop offset=".6909" stop-color="#006fb0"/></linearGradient><linearGradient id="b"><stop offset="0" stop-color="#353f47"/><stop offset=".6424" stop-color="#23202b"/></linearGradient><linearGradient id="c" gradientTransform="matrix(.9848 .1737 -.1737 .9848 52.2873 -39.4228)" gradientUnits="userSpaceOnUse" x1="-18.1274" x2="-1.4316" xlink:href="#b" y1="47.8008" y2="47.8008"/><linearGradient id="d" gradientTransform="matrix(.9848 .1737 -.1737 .9848 52.2873 -39.4228)" gradientUnits="userSpaceOnUse" x1="-8.3599" x2="-.8071" xlink:href="#b" y1="76.8545" y2="76.8545"/><linearGradient id="e" gradientTransform="matrix(.9848 .1737 -.1737 .9848 52.2873 -39.4228)" gradientUnits="userSpaceOnUse" x1="-34.7871" x2="-20.2808" xlink:href="#b" y1="92.1084" y2="92.1084"/><linearGradient id="f" gradientTransform="matrix(.9397 -.342 .342 .9397 -16.1618 114.5977)" gradientUnits="userSpaceOnUse" x1="69.4854" x2="100.8262" y1="-54.9697" y2="-54.9697"><stop offset=".1697" stop-color="#019ce3"/><stop offset=".4069" stop-color="#0199df"/><stop offset=".6351" stop-color="#018ed4"/><stop offset=".8588" stop-color="#007dc0"/><stop offset="1" stop-color="#006fb0"/></linearGradient><linearGradient id="g" gradientTransform="matrix(.9397 -.342 .342 .9397 -16.1618 114.5977)" gradientUnits="userSpaceOnUse" x1="84.3125" x2="101.0078" xlink:href="#b" y1="-80.0049" y2="-80.0049"/><linearGradient id="h" gradientTransform="matrix(.9397 -.342 .342 .9397 -16.1618 114.5977)" gradientUnits="userSpaceOnUse" x1="94.0791" x2="101.6318" xlink:href="#b" y1="-50.9502" y2="-50.9502"/><linearGradient id="i" gradientTransform="matrix(.9397 -.342 .342 .9397 -16.1618 114.5977)" gradientUnits="userSpaceOnUse" x1="67.6514" x2="82.1582" xlink:href="#b" y1="-35.6963" y2="-35.6963"/><path d="m41.94 9.948c-1.38 7.83-2.471 14.016-3.533 20.043l-6.372 11.234c-7.451 1.988-11.432 7.546-16.455 10.71 0 0-9.79-4.497-10.616-12.768 6.622-7.17 15.307-12.371 16.968-14.921 1.289-1.982 2.567-8.627 4.137-16.896 7.572-1.49 15.871 2.598 15.871 2.598z" fill="url(#a)"/><path d="m26.8 2.088c.425-.584 15.996 1.9 16.063 2.633.05.546-.544 4.954-.923 5.227-.813.588-15.69-2.219-15.872-2.598-.472-.982.39-4.792.732-5.262z" fill="url(#c)"/><path d="m33.526 16.05c-.073-.112-.182-.222-.305-.332.123-.129.225-.275.27-.457.183-.717-.188-1.241-.766-1.636.234-.245.352-.563.283-.958-.284-1.593-3.656-.88-2.701-2.48.143-.239.169-.354-.038-.364-1.138-.05-2.198.865-2.157 1.854.013.28.074.526.158.758-.771.04-1.428.313-1.626 1.094-.047.184-.027.362.021.535-.157.036-.305.081-.421.142-.831.435-1.129 1.632-.609 2.404.919 1.368 5.832 2.619 7.28 1.844.826-.442 1.127-1.621.611-2.404z" fill="#b36e51" opacity=".9"/><path d="m29.995 18.662c-1.767-.313-3.867-1.092-4.466-1.981-.27-.402-.349-.925-.218-1.438.13-.509.448-.929.874-1.15.088-.047.194-.086.328-.122-.033-.173-.031-.326.006-.475.179-.696.708-1.092 1.578-1.177-.067-.22-.104-.425-.111-.638-.02-.464.18-.928.558-1.304.455-.456 1.103-.71 1.729-.684.18.012.228.08.255.135.051.111-.003.239-.111.421-.141.237-.184.418-.129.556.104.262.57.396 1.064.538.766.221 1.634.47 1.781 1.301.063.358-.014.687-.222.959.632.473.867 1.039.703 1.688-.037.146-.107.282-.217.418.104.099.18.186.235.27.265.402.343.925.214 1.431-.13.507-.447.928-.873 1.154-.554.297-1.64.332-2.978.098zm.29-8.712c-.009-.001-.016-.001-.022-.002-.559-.023-1.133.203-1.538.608-.329.328-.5.724-.484 1.115.011.234.058.463.148.72l.058.16-.172.01c-.854.044-1.349.37-1.507.995-.035.143-.028.292.021.473l.035.127-.13.031c-.17.039-.299.082-.392.13-.36.189-.632.55-.743.988-.115.441-.048.892.181 1.231.484.722 2.333 1.526 4.3 1.874 1.283.227 2.308.199 2.815-.072.361-.192.633-.555.745-.991.112-.438.046-.885-.18-1.229-.058-.088-.146-.183-.283-.307l-.099-.086.089-.097c.13-.135.206-.262.24-.399.147-.582-.085-1.072-.714-1.5l-.124-.084.104-.109c.224-.234.307-.519.25-.847-.12-.676-.873-.894-1.602-1.102-.556-.16-1.083-.313-1.23-.688-.085-.216-.036-.471.146-.78.056-.089.078-.141.088-.169z" fill="#302c3b" opacity=".9"/><path d="m31.544 16.703c.021-.087-.004-.209-.152-.273-.376-.173-.938-.391-1.69-.582-.75-.191-1.351-.268-1.764-.295-.162-.013-.243.084-.263.169-.198.781.241 1.73 1.537 2.06 1.295.326 2.134-.296 2.332-1.079z" fill="#302c3b" opacity=".9"/><path d="m28.493 17.132c.212.161.474.293.789.372.313.078.604.089.868.05 0 0-.34-.406-.803-.316-.365-.298-.854-.106-.854-.106z" fill="#f46c60" opacity=".9"/><path d="m31.078 16.613c-.243-.107-.765-.319-1.447-.49-.681-.172-1.239-.235-1.506-.262-.156-.011-.182.045-.191.133-.007.049-.013.114-.013.184-.005.076.006.1.123.129.223.061 2.669.681 2.895.734.121.029.137.012.171-.057.033-.059.059-.119.076-.166.032-.084.038-.144-.108-.205z" fill="#fff" opacity=".9"/><path d="m29.637 14.361c-.135.532-.68.856-1.211.72-.535-.132-.86-.676-.723-1.211.135-.535.677-.857 1.211-.723s.857.678.723 1.214z" fill="#fff" opacity=".9"/><circle cx="28.669" cy="14.114" fill="#1a1626" opacity=".9" r=".5"/><path d="m30.466 14.569c-.138.532.188 1.078.723 1.211.532.137 1.077-.186 1.212-.721.136-.535-.188-1.079-.723-1.213-.535-.135-1.078.19-1.212.723z" fill="#fff" opacity=".9"/><circle cx="31.433" cy="14.814" fill="#1a1626" opacity=".9" r=".498"/><path d="m32.604 34.94c-.043-.131-.121-.27-.213-.412.158-.093.298-.211.393-.378.378-.663.154-1.282-.312-1.831.299-.18.502-.464.541-.874.154-1.654-3.383-1.868-1.997-3.196.206-.198.262-.305.06-.372-1.114-.359-2.415.259-2.645 1.249-.063.282-.07.541-.052.794-.774-.17-1.5-.079-1.908.64-.097.17-.126.352-.126.538-.167-.007-.324-.002-.458.025-.939.203-1.563 1.308-1.26 2.216.539 1.605 5.066 4.188 6.713 3.815.939-.211 1.561-1.299 1.264-2.214z" fill="#b36e51" opacity=".9"/><path d="m28.39 36.564c-1.668-.792-3.536-2.14-3.887-3.184-.156-.472-.092-1.013.177-1.485.268-.468.697-.796 1.183-.901.099-.022.215-.032.357-.032.013-.18.058-.329.136-.468.366-.642.999-.889 1.886-.735-.008-.236.014-.45.063-.661.107-.465.431-.87.909-1.143.575-.326 1.285-.402 1.902-.204.174.062.203.143.214.203.021.125-.067.236-.224.389-.207.196-.296.364-.281.515.033.286.457.548.909.824.697.428 1.489.911 1.409 1.776-.035.372-.201.675-.481.887.498.643.575 1.27.237 1.868-.079.136-.184.251-.33.354.076.128.128.232.158.333.153.47.088 1.009-.178 1.476-.267.467-.696.798-1.181.905-.63.145-1.718-.117-2.978-.717zm2.667-8.556c-.009-.003-.017-.006-.023-.008-.546-.176-1.177-.108-1.69.183-.415.235-.691.581-.785.974-.054.234-.068.475-.048.754l.012.175-.17-.036c-.86-.191-1.439-.003-1.766.574-.075.132-.11.281-.11.474l.001.136-.137-.006c-.18-.006-.318.001-.425.022-.409.089-.775.373-1.006.777-.236.408-.292.871-.157 1.271.284.849 1.896 2.15 3.751 3.03 0 0 0 0-.001.002 1.209.573 2.233.828 2.81.698.412-.094.781-.378 1.01-.78.232-.403.288-.865.158-1.267-.033-.103-.096-.222-.199-.381l-.073-.112.116-.072c.165-.099.275-.203.347-.331.306-.535.208-1.085-.299-1.682l-.1-.117.132-.079c.285-.171.446-.431.479-.771.066-.704-.621-1.124-1.285-1.529-.507-.312-.988-.604-1.032-1.019-.025-.237.092-.476.358-.733.077-.075.115-.119.132-.147z" fill="#302c3b" opacity=".9"/><path d="m30.46 35.046c.044-.08.052-.206-.075-.311-.326-.275-.825-.646-1.519-1.042-.691-.393-1.268-.633-1.669-.772-.157-.057-.262.017-.307.097-.41.72-.232 1.779.962 2.461 1.196.676 2.198.289 2.608-.433z" fill="#302c3b" opacity=".9"/><path d="m27.317 34.639c.167.218.389.42.68.584.29.163.575.252.85.285 0 0-.227-.494-.71-.53-.283-.395-.82-.339-.82-.339z" fill="#f46c60" opacity=".9"/><path d="m30.021 34.829c-.212-.172-.669-.522-1.301-.879-.627-.357-1.164-.574-1.421-.67-.151-.056-.191-.006-.226.078-.02.046-.045.11-.063.176-.025.076-.021.102.086.163.204.122 2.46 1.403 2.669 1.518.111.063.133.05.187-.011.048-.048.089-.1.12-.142.056-.074.078-.131-.051-.233z" fill="#fff" opacity=".9"/><path d="m29.209 32.202c-.28.492-.909.664-1.399.385-.493-.277-.668-.906-.386-1.399.282-.492.907-.665 1.399-.386.493.281.665.907.386 1.4z" fill="#fff" opacity=".9"/><circle cx="28.316" cy="31.694" fill="#1a1626" opacity=".9" r=".514"/><path d="m29.974 32.636c-.282.492-.108 1.121.385 1.398.492.281 1.119.112 1.399-.382.281-.495.107-1.122-.386-1.4-.492-.28-1.119-.108-1.398.384z" fill="#fff" opacity=".9"/><path d="m31.12 32.698c-.247-.14-.562-.054-.699.191-.14.247-.056.561.189.699.249.141.563.054.701-.191.142-.246.053-.561-.191-.699z" fill="#1a1626" opacity=".9"/><path d="m19.622 45.96c-.068-.118-.175-.233-.296-.351.132-.127.242-.271.3-.452.22-.725-.13-1.276-.7-1.704.252-.24.389-.562.336-.965-.209-1.636-3.681-1.079-2.625-2.665.156-.234.187-.352-.022-.372-1.158-.107-2.283.771-2.293 1.781-.001.288.05.541.123.78-.786.003-1.47.246-1.711 1.033-.056.184-.046.366-.007.547-.163.029-.313.067-.436.125-.866.398-1.231 1.604-.74 2.419.867 1.438 5.811 2.96 7.326 2.242.865-.406 1.228-1.593.745-2.418z" fill="#b36e51" opacity=".9"/><path d="m15.891 48.445c-1.785-.406-3.888-1.308-4.452-2.244-.254-.423-.309-.959-.148-1.475.157-.511.503-.923.948-1.129.09-.043.202-.076.341-.107-.027-.179-.016-.332.03-.481.215-.703.774-1.076 1.665-1.122-.056-.227-.083-.44-.081-.657.004-.473.229-.934.636-1.3.484-.439 1.155-.667 1.796-.609.183.023.229.095.253.149.045.117-.016.245-.135.426-.155.235-.208.417-.159.558.092.271.561.434 1.059.603.769.263 1.639.561 1.749 1.415.045.369-.048.699-.274.964.619.517.833 1.105.633 1.759-.046.146-.124.282-.244.413.104.107.177.197.228.289.251.423.304.959.146 1.468-.156.51-.501.921-.947 1.132-.582.274-1.692.255-3.044-.052zm.734-8.863c-.009-.002-.018-.003-.024-.003-.567-.051-1.165.149-1.599.541-.352.318-.544.714-.549 1.114-.003.236.034.474.116.739l.049.167-.173.002c-.874.002-1.395.311-1.587.939-.044.142-.044.296-.001.482l.026.132-.131.023c-.176.032-.31.071-.408.114-.377.173-.67.527-.808.971-.137.445-.092.904.123 1.262.46.761 2.305 1.675 4.289 2.124 0 0 0 0-.001.003 1.295.295 2.343.318 2.873.068.38-.179.675-.535.813-.975.134-.44.089-.9-.123-1.261-.053-.094-.142-.192-.275-.326l-.096-.093.097-.095c.14-.13.222-.257.264-.396.182-.584-.031-1.098-.653-1.564l-.12-.093.11-.105c.239-.227.34-.512.297-.852-.089-.693-.845-.951-1.575-1.201-.56-.191-1.09-.373-1.221-.763-.074-.225-.013-.481.188-.787.06-.087.086-.138.099-.167z" fill="#302c3b" opacity=".9"/><path d="m17.569 46.526c.025-.087.004-.211-.142-.285-.376-.195-.94-.446-1.694-.68-.757-.231-1.364-.339-1.783-.388-.166-.021-.253.073-.277.159-.24.785.161 1.776 1.463 2.18 1.305.395 2.19-.199 2.433-.986z" fill="#302c3b" opacity=".9"/><path d="m14.438 46.811c.209.179.47.323.785.42.316.096.61.122.883.093 0 0-.326-.429-.803-.36-.357-.323-.865-.153-.865-.153z" fill="#f46c60" opacity=".9"/><path d="m17.096 46.413c-.243-.123-.762-.364-1.447-.572-.687-.209-1.253-.304-1.522-.343-.157-.019-.187.036-.202.126-.008.051-.018.116-.022.186-.007.076.002.102.119.139.224.074 2.685.825 2.914.894.12.035.137.019.178-.051.035-.06.063-.118.085-.166.034-.082.044-.144-.103-.213z" fill="#fff" opacity=".9"/><path d="m15.742 44.045c-.165.535-.737.838-1.272.675-.538-.163-.843-.734-.674-1.273.164-.537.731-.839 1.271-.674.537.163.838.733.675 1.272z" fill="#fff" opacity=".9"/><path d="m14.915 43.258c.272.084.422.369.338.637-.082.268-.363.422-.633.339-.269-.085-.421-.37-.34-.637.082-.27.366-.421.635-.339z" fill="#1a1626" opacity=".9"/><path d="m16.576 44.299c-.166.535.137 1.107.676 1.271.534.166 1.106-.136 1.273-.674.163-.538-.141-1.109-.679-1.272-.535-.165-1.107.137-1.27.675z" fill="#fff" opacity=".9"/><circle cx="17.549" cy="44.598" fill="#1a1626" opacity=".9" r=".509"/><path d="m37.457 22.2c-.09-.02-.197-.02-.311-.014-.003-.122-.025-.242-.091-.354-.261-.438-.696-.514-1.17-.424-.007-.233-.105-.446-.33-.604-.915-.641-2.211 1.353-2.525.106-.048-.187-.091-.255-.197-.158-.578.53-.648 1.492-.146 1.954.142.131.293.221.444.294-.354.395-.542.848-.259 1.325.068.111.164.188.272.249-.06.095-.109.189-.137.276-.193.614.245 1.344.876 1.468 1.114.218 4.117-1.565 4.446-2.651.189-.616-.239-1.338-.872-1.467z" fill="#b36e51" opacity=".8"/><path d="m37.009 25.194c-.001 0-.001 0 0 0-1.014.71-2.418 1.354-3.143 1.211-.328-.063-.621-.281-.808-.595-.184-.311-.234-.67-.135-.987.021-.064.054-.136.1-.219-.1-.067-.172-.144-.226-.235-.254-.425-.188-.875.193-1.342-.139-.073-.258-.156-.364-.256-.235-.216-.365-.539-.364-.908 0-.443.192-.883.511-1.176.094-.081.149-.072.189-.059.079.03.116.119.151.26.047.186.115.293.209.334.176.076.469-.085.779-.257.48-.267 1.024-.567 1.503-.234.206.144.327.343.358.576.538-.078.93.083 1.168.479.053.091.085.189.097.309.099-.003.178.002.245.017.326.068.618.285.803.594.184.312.233.671.137.988-.125.415-.638.962-1.403 1.5zm-4.105-4.387c-.005.002-.01.006-.013.009-.283.261-.453.652-.453 1.047-.001.319.108.597.307.78.119.108.254.197.423.276l.107.051-.078.088c-.396.438-.478.839-.249 1.222.051.085.128.155.239.219l.079.046-.048.078c-.064.102-.106.185-.128.253-.084.269-.04.577.119.846.161.271.412.456.689.512.588.114 1.881-.394 3.009-1.183.735-.516 1.223-1.028 1.336-1.408.083-.27.039-.579-.12-.846-.157-.269-.408-.454-.686-.512-.07-.015-.16-.018-.287-.011l-.09.006-.004-.091c-.002-.129-.028-.228-.078-.312-.211-.355-.563-.479-1.078-.383l-.103.02-.004-.104c-.003-.223-.103-.402-.289-.534-.388-.271-.861-.01-1.317.243-.351.192-.682.375-.937.264-.146-.063-.246-.21-.308-.45-.015-.073-.028-.108-.038-.126z" fill="#302c3b" opacity=".8"/><path d="m36.809 23.484c-.032-.052-.104-.1-.207-.059-.268.098-.649.267-1.109.539-.458.272-.788.529-1.002.717-.086.073-.077.16-.046.212.284.477.961.726 1.752.254.791-.473.896-1.185.612-1.663z" fill="#302c3b" opacity=".8"/><path d="m35.53 25.179c.183-.023.374-.087.566-.202.19-.113.338-.25.448-.399 0 0-.363-.031-.546.237-.322.033-.468.364-.468.364z" fill="#f46c60" opacity=".8"/><path d="m36.537 23.667c-.171.067-.527.217-.944.467-.416.248-.72.488-.86.606-.082.071-.067.11-.029.157.021.027.05.063.083.097.035.039.053.044.122.002.14-.078 1.633-.969 1.771-1.052.072-.046.071-.062.055-.112-.013-.044-.029-.086-.043-.118-.028-.055-.053-.089-.155-.047z" fill="#fff" opacity=".8"/><path d="m34.737 23.272c.194.326.085.75-.24.942-.324.195-.748.089-.941-.238-.195-.327-.089-.748.236-.942.327-.197.749-.089.945.238z" fill="#fff" opacity=".8"/><circle cx="34.146" cy="23.624" fill="#1a1626" opacity=".8" r=".344"/><path d="m35.243 22.97c.192.327.617.434.943.237.325-.192.434-.615.238-.941-.194-.327-.617-.436-.943-.239-.326.194-.433.618-.238.943z" fill="#fff" opacity=".8"/><circle cx="35.834" cy="22.618" fill="#1a1626" opacity=".8" r=".344"/><path d="m21.554 35.195c-.067-.081-.161-.158-.268-.233.086-.111.152-.233.172-.38.083-.575-.25-.954-.735-1.215.162-.211.228-.47.141-.772-.354-1.222-2.932-.382-2.319-1.713.091-.199.102-.288-.062-.28-.893.057-1.646.862-1.53 1.63.033.218.102.404.186.579-.598.097-1.089.365-1.178.991-.021.147.009.285.063.416-.122.042-.234.09-.321.147-.611.408-.742 1.368-.271 1.931.832.99 4.777 1.558 5.846.829.607-.413.744-1.36.276-1.93z" fill="#b36e51" opacity=".8"/><path d="m19.012 37.534c-1.407-.095-3.116-.53-3.657-1.176-.247-.29-.352-.692-.294-1.104.06-.407.272-.763.589-.974.065-.042.145-.082.244-.122-.039-.131-.049-.252-.033-.37.08-.562.461-.913 1.134-1.053-.069-.167-.116-.324-.141-.49-.055-.359.062-.74.327-1.067.316-.394.802-.647 1.295-.678.142-.006.186.043.211.083.047.083.018.188-.053.339-.09.198-.106.343-.053.445.102.195.477.261.877.331.616.108 1.314.23 1.501.867.081.275.046.539-.093.768.533.316.767.74.693 1.264-.02.118-.061.229-.136.344.091.067.155.129.207.189.241.293.346.695.287 1.101-.059.409-.271.764-.585.977-.409.279-1.255.398-2.32.326zm-.506-6.835c-.005-.001-.013.001-.018.001-.438.029-.869.255-1.152.604-.228.282-.329.607-.284.912.027.182.082.358.177.551l.058.119-.132.023c-.665.104-1.023.402-1.094.906-.017.112 0 .229.055.365l.038.097-.099.036c-.132.043-.227.09-.295.135-.267.178-.45.481-.5.835-.051.354.039.701.246.949.441.522 1.951.995 3.519 1.102h.002c1.02.069 1.819-.037 2.193-.293.267-.18.449-.487.498-.837.053-.353-.036-.697-.24-.945-.056-.064-.131-.132-.25-.216l-.083-.06.062-.083c.092-.116.139-.223.152-.334.067-.466-.156-.828-.684-1.111l-.104-.055.07-.096c.156-.202.197-.431.126-.682-.15-.518-.757-.624-1.344-.727-.449-.079-.874-.153-1.021-.436-.084-.159-.068-.363.049-.62.036-.076.051-.118.055-.14z" fill="#302c3b" opacity=".8"/><path d="m20.058 35.872c.008-.069-.021-.162-.143-.2-.308-.104-.767-.229-1.37-.314-.604-.086-1.078-.094-1.404-.081-.129.005-.182.086-.191.153-.089.628.334 1.333 1.374 1.482 1.04.147 1.644-.413 1.734-1.04z" fill="#302c3b" opacity=".8"/><path d="m17.709 36.465c.179.108.394.188.648.224.25.035.479.021.683-.033 0 0-.299-.289-.654-.179-.311-.204-.677-.012-.677-.012z" fill="#f46c60" opacity=".8"/><path d="m19.685 35.84c-.199-.063-.622-.185-1.172-.26-.548-.077-.988-.081-1.199-.079-.123.006-.139.052-.139.12-.001.039-.002.09.005.144.003.062.015.077.107.09.181.031 2.143.31 2.325.332.097.014.108 0 .129-.059.02-.048.036-.096.046-.137.017-.065.019-.114-.102-.151z" fill="#fff" opacity=".8"/><path d="m18.369 34.2c-.061.431-.461.729-.888.666-.43-.059-.728-.456-.666-.885.061-.431.458-.729.886-.67.43.062.728.46.668.889z" fill="#fff" opacity=".8"/><circle cx="17.593" cy="34.09" fill="#1a1626" opacity=".8" r=".393"/><path d="m19.034 34.296c-.062.428.239.826.667.886.428.063.827-.236.888-.665.061-.432-.238-.829-.668-.889-.428-.061-.825.238-.887.668z" fill="#fff" opacity=".8"/><circle cx="19.812" cy="34.406" fill="#1a1626" opacity=".8" r=".392"/><path d="m25.553 39.451h.599v2.322h-.599z" fill="#75d6ff" transform="matrix(.9969 -.0782 .0782 .9969 -3.0963 2.1458)"/><path d="m27.503 22.345h.601v2.32h-.601z" fill="#75d6ff" transform="matrix(.7071 -.7071 .7071 .7071 -8.4771 26.5443)"/><path d="m37.276 16.416h.603v2.319h-.603z" fill="#a6e639" transform="matrix(.7063 -.7079 .7079 .7063 -1.4052 31.7634)"/><path d="m21.985 27.097h.598v2.321h-.598z" fill="#a6e639" transform="matrix(.457 -.8895 .8895 .457 -13.0335 35.1656)"/><path d="m10.671 37.087h.602v2.322h-.602z" fill="#a6e639" transform="matrix(.1103 -.9939 .9939 .1103 -28.2529 44.9359)"/><path d="m31.037 32.93s4.178-1.888 7.37-2.939c.449 3.51.482 9.731-6.372 11.234.096-3.499-.998-8.295-.998-8.295z" fill="url(#d)"/><path d="m7.681 52.792c-7.023-1.798-7.052-8.873-2.717-13.625 3.985 1.431 9.013 6.158 9.935 7.609.248.393.664 3.355.682 5.158-2.137 1.159-4.642 1.692-7.9.858z" fill="url(#e)"/><path d="m52.118 7.394c2.719 7.472 4.867 13.373 6.961 19.125l.099 12.914c-5.458 5.449-6.127 12.252-8.895 17.503 0 0-10.729 1.002-15.578-5.748 2.149-9.521 7.07-18.367 7.232-21.407.126-2.361-2.089-8.754-4.864-16.7 5.813-5.077 15.045-5.687 15.045-5.687z" fill="url(#f)"/><path d="m35.076 8.158c.075-.718 14.803-6.352 15.228-5.751.316.448 2.005 4.563 1.814 4.987-.411.916-14.698 5.923-15.045 5.687-.9-.615-2.058-4.344-1.997-4.923z" fill="url(#g)"/><path d="m47.882 16.886c-.12-.061-.269-.101-.43-.135.042-.174.057-.351.005-.53-.2-.713-.782-.981-1.48-1.034.08-.329.022-.664-.234-.971-1.042-1.238-3.605 1.065-3.58-.799.004-.278-.03-.391-.215-.296-1.01.526-1.47 1.848-.94 2.684.15.236.326.419.515.578-.647.42-1.08.984-.86 1.759.051.183.157.327.285.454-.118.11-.223.223-.294.334-.502.79-.162 1.977.675 2.386 1.479.726 6.36-.647 7.226-2.043.494-.795.165-1.967-.673-2.387z" fill="#b36e51" opacity=".9"/><path d="m46.13 20.913c-.001 0-.001 0 0 0-1.688.614-3.896.989-4.859.518-.434-.214-.764-.627-.907-1.136-.142-.506-.076-1.028.182-1.434.054-.084.126-.172.224-.27-.115-.133-.189-.268-.231-.414-.194-.692.066-1.299.777-1.809-.167-.156-.302-.316-.415-.495-.249-.393-.309-.894-.169-1.41.167-.621.601-1.165 1.156-1.456.161-.079.237-.043.288-.011.1.071.117.21.114.42-.003.277.051.455.166.547.22.175.691.057 1.19-.066.774-.192 1.649-.41 2.193.236.233.278.331.601.287.94.783.094 1.271.466 1.453 1.11.041.146.049.299.021.471.14.033.248.071.339.115.43.217.759.63.9 1.133.141.504.076 1.027-.179 1.436-.332.537-1.255 1.11-2.53 1.575zm-4.106-7.689c-.008.003-.014.006-.021.009-.495.26-.879.743-1.027 1.296-.121.448-.071.877.138 1.208.126.198.281.372.488.549l.131.11-.143.094c-.719.466-.983.996-.808 1.616.04.141.121.267.254.398l.094.092-.097.092c-.128.12-.217.222-.273.309-.218.345-.273.792-.15 1.228.122.44.404.796.772.977.78.383 2.784.155 4.66-.527h.001c1.224-.445 2.099-.98 2.402-1.47.217-.348.271-.797.149-1.231-.122-.436-.403-.789-.771-.975-.094-.047-.218-.085-.398-.123l-.129-.025.03-.128c.045-.181.047-.33.008-.467-.163-.577-.61-.885-1.369-.941l-.148-.011.034-.146c.077-.314.007-.603-.206-.858-.442-.525-1.203-.337-1.938-.154-.562.14-1.095.271-1.41.02-.182-.144-.267-.389-.263-.748.003-.109-.003-.166-.01-.194z" fill="#302c3b" opacity=".9"/><path d="m46.491 18.443c-.025-.086-.107-.18-.269-.16-.412.038-1.009.13-1.756.341-.744.209-1.303.444-1.675.626-.146.07-.168.194-.143.278.219.775 1.074 1.377 2.361 1.015 1.287-.365 1.702-1.324 1.482-2.1z" fill="#302c3b" opacity=".9"/><path d="m44.063 20.339c.265.034.558.018.869-.071s.567-.226.777-.392c0 0-.497-.182-.853.127-.464-.075-.793.336-.793.336z" fill="#f46c60" opacity=".9"/><path d="m46.042 18.598c-.264.028-.82.105-1.498.299-.675.191-1.191.416-1.435.526-.141.068-.135.13-.1.21.02.046.046.105.08.166.035.067.056.083.172.05.224-.059 2.651-.745 2.874-.812.119-.035.125-.058.12-.135-.001-.067-.01-.133-.017-.182-.014-.088-.038-.141-.196-.122z" fill="#fff" opacity=".9"/><path d="m43.669 17.368c.148.529-.161 1.082-.689 1.229-.529.152-1.083-.155-1.231-.688-.15-.531.158-1.082.688-1.231.53-.151 1.081.158 1.232.69z" fill="#fff" opacity=".9"/><circle cx="42.707" cy="17.638" fill="#1a1626" opacity=".9" r=".5"/><path d="m44.49 17.133c.147.53.702.841 1.231.688.529-.147.841-.699.689-1.23-.148-.531-.702-.839-1.232-.688-.531.149-.837.702-.688 1.23z" fill="#fff" opacity=".9"/><circle cx="45.451" cy="16.863" fill="#1a1626" opacity=".9" r=".498"/><path d="m56.529 33.707c-.104-.092-.24-.173-.392-.25.091-.16.152-.332.151-.524-.005-.763-.508-1.186-1.187-1.428.17-.306.203-.654.033-1.028-.694-1.51-3.864.073-3.329-1.769.079-.275.075-.396-.134-.354-1.145.246-1.962 1.432-1.666 2.404.086.277.21.504.353.714-.756.24-1.339.68-1.333 1.507.002.195.066.367.159.528-.147.078-.281.16-.383.252-.713.646-.7 1.914.017 2.55 1.27 1.12 6.482 1.095 7.722-.053.709-.652.703-1.904-.011-2.549z" fill="#b36e51" opacity=".9"/><path d="m53.69 37.221c-1.84.147-4.133-.085-4.958-.814-.371-.33-.586-.831-.589-1.374-.002-.539.205-1.039.572-1.372.074-.069.172-.135.295-.206-.079-.163-.115-.314-.116-.474-.005-.738.421-1.268 1.265-1.579-.124-.201-.213-.397-.276-.605-.14-.456-.062-.969.218-1.443.335-.57.912-.991 1.544-1.128.182-.034.248.022.287.068.08.098.061.238.001.448-.08.274-.074.464.014.587.172.232.67.246 1.199.259.818.021 1.746.044 2.109.834.155.34.164.686.026 1.01.752.308 1.133.811 1.14 1.5 0 .155-.033.309-.109.471.13.072.228.138.304.208.368.331.581.83.583 1.368.003.537-.202 1.038-.568 1.374-.476.439-1.549.755-2.941.868zm-1.968-8.744c-.009.002-.017.003-.023.005-.562.12-1.073.495-1.373 1.003-.242.412-.309.85-.193 1.235.071.23.178.446.336.679l.098.145-.166.054c-.841.265-1.247.716-1.242 1.38.001.15.046.298.142.465l.069.117-.121.063c-.159.084-.275.16-.357.231-.31.281-.484.71-.483 1.176.001.472.184.9.5 1.18.671.592 2.717.914 4.764.749v.002c1.334-.108 2.349-.4 2.782-.801.311-.287.487-.717.484-1.181 0-.465-.183-.894-.496-1.176-.08-.073-.192-.144-.362-.23l-.12-.061.065-.12c.093-.168.136-.314.134-.461-.003-.616-.362-1.043-1.1-1.306l-.145-.052.074-.134c.162-.291.171-.598.029-.908-.294-.644-1.1-.664-1.878-.683-.594-.016-1.157-.029-1.402-.366-.141-.192-.158-.457-.056-.813.029-.103.04-.16.04-.192z" fill="#302c3b" opacity=".9"/><path d="m54.725 34.87c-.002-.092-.059-.205-.221-.231-.42-.075-1.038-.146-1.836-.144-.795.006-1.414.086-1.832.166-.164.029-.219.146-.217.237.005.828.688 1.657 2.063 1.65 1.375-.011 2.047-.848 2.043-1.678z" fill="#302c3b" opacity=".9"/><path d="m51.8 36.09c.253.104.547.167.88.164.333-.002.624-.068.879-.177 0 0-.443-.315-.881-.105-.442-.201-.878.118-.878.118z" fill="#f46c60" opacity=".9"/><path d="m54.236 34.901c-.27-.043-.841-.118-1.565-.11-.723.004-1.296.085-1.566.129-.158.029-.169.092-.156.182.006.05.017.118.034.184.016.079.031.1.155.099.238.002 2.832-.016 3.07-.021.128-.002.141-.023.157-.102.017-.066.026-.132.033-.184.01-.092 0-.153-.162-.177z" fill="#fff" opacity=".9"/><path d="m52.22 33.033c.003.566-.456 1.029-1.021 1.032-.566.006-1.031-.451-1.033-1.02-.003-.567.453-1.028 1.019-1.033.567-.003 1.03.455 1.035 1.021z" fill="#fff" opacity=".9"/><circle cx="51.192" cy="33.039" fill="#1a1626" opacity=".9" r=".514"/><path d="m53.099 33.026c.001.567.466 1.024 1.032 1.019.566-.002 1.025-.463 1.021-1.03-.004-.569-.468-1.026-1.034-1.02-.567.004-1.023.465-1.019 1.031z" fill="#fff" opacity=".9"/><path d="m54.122 32.508c-.283.002-.513.233-.51.514.003.284.231.515.514.512.286-.003.514-.234.512-.517-.001-.284-.236-.513-.516-.509z" fill="#1a1626" opacity=".9"/><path d="m50.796 49.741c-.119-.067-.268-.115-.432-.156.051-.176.074-.355.033-.541-.172-.738-.751-1.04-1.459-1.126.099-.334.056-.681-.19-1.003-1-1.313-3.728.904-3.606-.996.019-.282-.014-.397-.205-.311-1.058.485-1.592 1.81-1.096 2.689.143.249.314.443.497.613-.68.396-1.148.948-.966 1.75.044.188.145.341.268.477-.126.107-.236.216-.313.327-.552.778-.265 2.005.567 2.465 1.47.811 6.514-.342 7.466-1.722.545-.784.267-1.994-.564-2.466z" fill="#b36e51" opacity=".9"/><path d="m48.808 53.76c-1.75.54-4.021.811-4.979.282-.432-.239-.746-.677-.866-1.203-.119-.521-.026-1.051.257-1.451.057-.083.137-.168.241-.265-.112-.141-.179-.279-.214-.432-.166-.716.132-1.319.881-1.804-.162-.169-.292-.341-.398-.528-.234-.412-.269-.925-.101-1.444.201-.623.668-1.156 1.251-1.425.17-.072.246-.033.294.002.098.079.109.221.097.437-.018.281.028.465.141.563.216.189.702.095 1.218-.008.797-.157 1.699-.334 2.222.352.224.296.309.629.245.972.794.137 1.273.54 1.428 1.206.033.15.033.307-.005.48.144.041.252.083.341.136.43.241.742.679.86 1.199.121.519.027 1.048-.254 1.453-.365.529-1.336 1.067-2.659 1.478zm-3.798-8.044c-.007.003-.016.006-.021.01-.517.239-.934.712-1.113 1.268-.146.452-.115.891.082 1.24.115.206.266.392.47.581l.126.121-.149.088c-.756.438-1.053.966-.904 1.606.033.145.11.279.24.419l.089.102-.102.085c-.136.116-.232.216-.296.302-.24.34-.317.793-.215 1.245.104.454.373.83.738 1.032.778.43 2.833.298 4.775-.306 0 0 0 0 .001.003 1.27-.392 2.188-.896 2.522-1.377.24-.345.316-.801.216-1.25-.104-.449-.373-.824-.737-1.03-.092-.056-.219-.097-.4-.146l-.129-.032.036-.131c.055-.182.064-.333.03-.475-.135-.596-.576-.934-1.349-1.027l-.15-.021.043-.146c.095-.315.038-.613-.167-.886-.425-.557-1.208-.401-1.966-.253-.58.114-1.13.222-1.439-.051-.176-.157-.251-.408-.229-.775.005-.107.003-.164-.002-.196z" fill="#302c3b" opacity=".9"/><path d="m49.301 51.258c-.022-.088-.103-.186-.265-.176-.424.019-1.037.083-1.808.259-.771.177-1.351.388-1.738.556-.153.064-.182.188-.16.276.185.8 1.027 1.457 2.356 1.155 1.328-.31 1.797-1.266 1.615-2.07z" fill="#302c3b" opacity=".9"/><path d="m46.73 53.07c.271.049.568.045.89-.029.322-.075.59-.2.812-.361 0 0-.496-.208-.876.09-.47-.102-.826.3-.826.3z" fill="#f46c60" opacity=".9"/><path d="m48.834 51.396c-.271.017-.842.066-1.54.229-.698.161-1.235.363-1.489.464-.146.063-.143.125-.111.21.018.048.043.109.073.172.031.07.052.087.172.061.231-.047 2.737-.628 2.971-.684.122-.028.128-.052.129-.132 0-.069-.006-.134-.01-.188-.01-.088-.033-.145-.195-.132z" fill="#fff" opacity=".9"/><path d="m46.479 50.021c.124.546-.221 1.095-.765 1.221-.548.129-1.098-.213-1.222-.765-.126-.547.215-1.093.765-1.22.546-.126 1.093.218 1.222.764z" fill="#fff" opacity=".9"/><path d="m45.368 49.755c.277-.063.551.107.61.382.063.272-.104.547-.379.61-.274.061-.55-.11-.611-.382-.064-.274.107-.548.38-.61z" fill="#1a1626" opacity=".9"/><path d="m47.327 49.825c.124.547.673.891 1.221.762.545-.123.89-.669.766-1.219-.127-.549-.677-.891-1.224-.763-.547.125-.891.672-.763 1.22z" fill="#fff" opacity=".9"/><circle cx="48.319" cy="49.597" fill="#1a1626" opacity=".9" r=".509"/><path d="m54.36 20.246c-.088.029-.181.082-.275.145-.063-.104-.143-.197-.256-.261-.445-.249-.858-.097-1.225.218-.123-.199-.315-.334-.588-.358-1.112-.097-1.239 2.277-2.135 1.354-.134-.138-.205-.175-.249-.038-.236.748.185 1.616.85 1.766.188.043.364.044.532.032-.109.519-.046 1.005.438 1.276.114.063.236.082.36.08-.004.111 0 .219.02.308.14.63.884 1.041 1.492.834 1.074-.368 2.783-3.416 2.525-4.52-.145-.628-.875-1.04-1.489-.836z" fill="#b36e51" opacity=".8"/><path d="m55.47 23.063c-.001.001-.001.001 0 0-.523 1.122-1.418 2.382-2.116 2.62-.316.109-.679.067-.997-.11-.314-.178-.537-.463-.61-.788-.014-.066-.021-.145-.022-.239-.12-.009-.222-.038-.313-.091-.433-.241-.601-.664-.503-1.259-.157.006-.302-.007-.443-.04-.313-.068-.586-.284-.771-.604-.221-.383-.275-.859-.146-1.273.041-.117.094-.137.135-.145.083-.014.159.044.261.148.134.137.247.196.348.186.191-.022.364-.309.547-.613.283-.47.604-1.003 1.186-.953.249.021.454.132.598.319.428-.338.847-.394 1.251-.169.091.052.169.122.238.219.084-.051.155-.086.221-.107.316-.104.678-.063.991.112.316.178.539.464.613.787.096.422-.074 1.152-.468 2zm-5.749-1.747c-.002.005-.004.012-.005.016-.116.367-.066.791.13 1.133.159.276.393.462.656.521.157.034.318.045.505.028l.117-.01-.023.115c-.124.578.007.965.396 1.183.086.048.188.07.316.069h.091l-.002.093c-.005.12.001.212.017.283.062.273.253.52.525.671.274.155.585.19.854.101.566-.196 1.432-1.282 2.014-2.529.379-.813.545-1.502.454-1.888-.063-.274-.257-.521-.527-.673-.271-.153-.581-.188-.85-.101-.069.023-.148.065-.255.136l-.075.049-.049-.076c-.065-.111-.138-.184-.224-.231-.359-.202-.728-.134-1.124.208l-.079.068-.055-.089c-.115-.19-.291-.297-.519-.317-.471-.041-.751.422-1.02.869-.207.342-.401.665-.679.696-.157.019-.318-.06-.491-.236-.051-.053-.08-.077-.098-.089z" fill="#302c3b" opacity=".8"/><path d="m54.441 21.683c-.054-.028-.14-.034-.209.053-.184.219-.429.555-.69 1.021-.261.465-.418.853-.51 1.122-.037.105.013.177.065.205.484.271 1.194.148 1.646-.655.449-.804.184-1.474-.302-1.746z" fill="#302c3b" opacity=".8"/><path d="m54.183 23.791c.146-.112.279-.263.389-.458.108-.194.167-.386.188-.57 0 0-.331.153-.354.479-.263.189-.223.549-.223.549z" fill="#f46c60" opacity=".8"/><path d="m54.298 21.978c-.114.144-.349.45-.584.875-.236.423-.379.784-.442.956-.035.103-.003.13.054.151.032.013.074.029.119.042.051.017.068.013.107-.059.082-.139.931-1.656 1.007-1.798.04-.075.032-.088-.009-.123-.033-.032-.067-.061-.096-.081-.051-.035-.089-.05-.156.037z" fill="#fff" opacity=".8"/><path d="m52.541 22.535c.331.186.449.606.265.937-.185.331-.604.451-.936.265s-.451-.604-.267-.936c.186-.334.605-.452.938-.266z" fill="#fff" opacity=".8"/><path d="m51.903 22.968c.096-.166.304-.226.468-.133.167.093.227.301.135.467-.095.166-.304.226-.469.134-.167-.092-.225-.303-.134-.468z" fill="#1a1626" opacity=".8"/><path d="m52.828 22.021c.33.186.753.066.936-.266.186-.33.068-.75-.264-.936-.332-.187-.752-.068-.937.266-.185.332-.066.751.265.936z" fill="#fff" opacity=".8"/><path d="m52.864 21.252c-.092.165-.032.377.132.467.165.093.376.035.468-.13.093-.168.033-.377-.133-.47-.165-.092-.376-.032-.467.133z" fill="#1a1626" opacity=".8"/><path d="m47.086 39.452c-.099-.036-.219-.056-.348-.067.018-.14.014-.279-.042-.415-.215-.54-.693-.701-1.243-.685.034-.265-.04-.521-.265-.739-.919-.882-2.73 1.135-2.867-.324-.021-.219-.056-.301-.192-.213-.744.496-.994 1.569-.51 2.177.137.173.291.301.45.409-.47.383-.76.861-.524 1.448.056.138.149.242.264.328-.085.098-.158.195-.205.288-.325.659.041 1.557.729 1.809 1.218.441 4.918-1.04 5.479-2.205.319-.663-.036-1.552-.726-1.811z" fill="#b36e51" opacity=".8"/><path d="m46.054 42.749c-1.266.621-2.964 1.1-3.755.812-.359-.129-.65-.425-.807-.811-.152-.383-.145-.797.022-1.138.036-.068.084-.144.151-.228-.1-.095-.169-.194-.214-.305-.211-.525-.059-1.021.455-1.479-.144-.11-.263-.223-.366-.354-.229-.284-.316-.671-.251-1.088.078-.498.371-.961.783-1.234.119-.075.182-.055.224-.032.083.048.109.153.124.319.021.217.079.351.177.412.186.118.544-.013.924-.152.589-.215 1.255-.457 1.734 0 .208.198.31.444.304.712.621.008 1.034.258 1.231.747.043.112.062.229.056.365.111.014.199.034.273.062.355.133.646.43.799.81.153.384.146.798-.019 1.139-.213.446-.887.972-1.845 1.443zm-3.856-5.667c-.005.002-.011.007-.015.01-.365.244-.626.655-.695 1.1-.058.358.018.69.208.933.116.143.252.268.43.388l.11.075-.103.085c-.524.423-.686.861-.496 1.332.043.104.116.199.231.289l.081.065-.067.08c-.092.104-.151.191-.188.264-.143.288-.148.643-.016.974.134.332.385.588.688.698.644.232 2.188-.113 3.599-.805 0 0 0 0 .001-.001.919-.45 1.558-.941 1.754-1.351.141-.289.146-.646.013-.974-.131-.332-.379-.585-.681-.698-.08-.028-.18-.049-.324-.062l-.102-.011.012-.103c.021-.146.009-.263-.034-.366-.176-.437-.55-.639-1.148-.62l-.117.004.014-.117c.034-.253-.045-.473-.232-.653-.39-.374-.968-.162-1.527.042-.429.155-.833.304-1.103.133-.151-.097-.24-.281-.268-.562-.009-.084-.017-.127-.025-.149z" fill="#302c3b" opacity=".8"/><path d="m46.129 40.787c-.028-.065-.1-.13-.224-.103-.319.063-.778.186-1.344.413-.565.228-.981.457-1.257.632-.109.067-.114.165-.09.229.237.588.957.987 1.932.597.976-.395 1.218-1.18.983-1.768z" fill="#302c3b" opacity=".8"/><path d="m44.391 42.475c.21.004.437-.034.674-.131.233-.094.425-.222.574-.37 0 0-.403-.101-.655.172-.372-.021-.593.329-.593.329z" fill="#f46c60" opacity=".8"/><path d="m45.79 40.945c-.204.046-.632.151-1.145.361-.514.206-.897.424-1.078.53-.104.067-.094.115-.061.174.02.034.044.079.076.122.032.052.051.06.138.023.172-.063 2.011-.803 2.179-.874.092-.036.095-.056.083-.116-.007-.051-.017-.101-.027-.141-.018-.064-.042-.107-.165-.079z" fill="#fff" opacity=".8"/><path d="m43.831 40.183c.163.403-.035.862-.437 1.021-.4.164-.857-.032-1.019-.434-.163-.403.031-.859.432-1.022.403-.162.861.033 1.024.435z" fill="#fff" opacity=".8"/><path d="m42.956 40.112c.201-.079.431.017.51.218.081.2-.014.429-.215.511-.203.079-.432-.019-.513-.219-.082-.199.017-.429.218-.51z" fill="#1a1626" opacity=".8"/><path d="m44.455 39.934c.16.401.619.597 1.02.433.402-.159.599-.616.438-1.019-.164-.404-.621-.6-1.024-.436-.402.161-.596.618-.434 1.022z" fill="#fff" opacity=".8"/><circle cx="45.183" cy="39.64" fill="#1a1626" opacity=".8" r=".392"/><g fill="#75d6ff"><path d="m53.218 40.833h.6v2.321h-.6z" transform="matrix(.7751 -.6318 .6318 .7751 -14.4971 43.257)"/><path d="m49.266 10.155h.601v2.32h-.601z" transform="matrix(-.5785 -.8157 .8157 -.5785 69.0089 58.2926)"/><path d="m44.714 23.415h.601v2.321h-.601z" transform="matrix(.4762 -.8793 .8793 .4762 1.9671 52.4538)"/></g><path d="m51.919 15.479h.602v2.32h-.602z" fill="#a6e639" transform="matrix(.0957 -.9954 .9954 .0957 30.6615 67.0284)"/><path d="m44.883 30.535h.599v2.319h-.599z" fill="#a6e639" transform="matrix(-.5626 -.8267 .8267 -.5626 44.398 86.8797)"/><path d="m39.464 45.81h.602v2.32h-.602z" fill="#a6e639" transform="matrix(-.3764 -.9264 .9264 -.3764 11.218 101.4911)"/><path d="m54.166 32.749s2.674-3.724 4.913-6.23c2.144 2.815 5.283 8.185.099 12.914-1.667-3.078-5.012-6.684-5.012-6.684z" fill="url(#h)"/><path d="m43.87 61.629c-6.981 1.955-10.544-4.158-9.165-10.441 4.166-.755 10.884.826 12.407 1.623.411.215 2.254 2.573 3.171 4.125-1.271 2.071-3.174 3.786-6.413 4.693z" fill="url(#i)"/></svg>