<svg enable-background="new 0 0 64 64" height="64" viewBox="0 0 64 64" width="64" xmlns="http://www.w3.org/2000/svg" xmlns:xlink="http://www.w3.org/1999/xlink"><linearGradient id="a" gradientTransform="matrix(.7071 .7071 -.7071 .7071 397.2964 150.7362)" gradientUnits="userSpaceOnUse" x1="-337.4414" x2="-331.4292" y1="182.208" y2="182.208"><stop offset="0" stop-color="#99a8ae"/><stop offset=".0286" stop-color="#9baab0"/><stop offset=".4143" stop-color="#b8c3c9"/><stop offset=".7511" stop-color="#c9d3d8"/><stop offset="1" stop-color="#cfd8dd"/></linearGradient><linearGradient id="b" gradientTransform="matrix(.7071 .7071 -.7071 .7071 397.2964 150.7362)" gradientUnits="userSpaceOnUse" x1="-350.1934" x2="-342.2754" y1="202.0742" y2="202.0742"><stop offset="0" stop-color="#cfd8dd"/><stop offset=".9363" stop-color="#bac5ca"/><stop offset=".9636" stop-color="#b9c4c9"/></linearGradient><linearGradient id="c" gradientTransform="matrix(.7071 .7071 -.7071 .7071 397.2964 150.7362)" gradientUnits="userSpaceOnUse" x1="-343.9175" x2="-343.9175" y1="213.4912" y2="156.8945"><stop offset="0" stop-color="#99a8ae"/><stop offset=".0585" stop-color="#a3b0b6"/><stop offset=".2158" stop-color="#b6c2c7"/><stop offset=".396" stop-color="#c4cfd4"/><stop offset=".6174" stop-color="#cdd6db"/><stop offset="1" stop-color="#cfd8dd"/></linearGradient><linearGradient id="d" gradientTransform="matrix(.7071 .7071 -.7071 .7071 124.8882 464.4745)" gradientUnits="userSpaceOnUse" x1="-371.5269" x2="-371.5269" y1="-212.394" y2="-275.6384"><stop offset="0" stop-color="#cfd8dd"/><stop offset=".2489" stop-color="#c9d3d8"/><stop offset=".5857" stop-color="#b8c3c9"/><stop offset=".9714" stop-color="#9baab0"/><stop offset="1" stop-color="#99a8ae"/></linearGradient><path d="m50.362 25.863c-11.667 16.444-23.127 26.888-35.851 34.669-.376.23-3.234-1.429-1.918-2.267 18.282-11.653 26.446-21.563 35.913-34.429z" fill="url(#a)"/><path d="m13.431 50.556 2.088-2.088c-3.094-3.098-8.105-3.098-11.198 0-.226.228-.43.465-.623.71l2.112 2.11c.174-.256.371-.503.599-.732 1.94-1.942 5.082-1.941 7.022 0z" fill="url(#b)"/><path d="m15.519 48.468c-.98-.979-2.895 1.28-2.088 2.088 1.939 1.943 1.939 5.092.001 7.031-1.94 1.944-5.084 1.942-7.023.002-1.531-1.532-1.993-3.784.001-7.033 11.346-18.48 20.82-25.675 33.671-35.156l-2.024-1.857c-13.187 9.38-23.222 17.341-34.59 35.952-2.5 4.091-1.531 7.798.856 10.185 3.092 3.092 8.103 3.095 11.195 0 3.093-3.097 3.094-8.117.001-11.212z" fill="url(#c)"/><path d="m58.652 5.28c-4.893-4.897-7.938-3.544-11.724-.891-2.624 1.841-10.998 9.608-10.998 9.608 6.414 4.051 19.27 2.453 16.818 0-2.129-2.131-3.725-3.785-2.363-5.146.988-.987 2.289-.886 3.938.765 7.153 7.163-12.001 4.432-4.379 18.41 0 0 8.109-8.709 10.004-11.418 2.278-3.257 3.625-6.4-1.296-11.328z" fill="url(#d)"/></svg>