<svg enable-background="new 0 0 64 64" height="64" viewBox="0 0 64 64" width="64" xmlns="http://www.w3.org/2000/svg" xmlns:xlink="http://www.w3.org/1999/xlink"><linearGradient id="a" gradientUnits="userSpaceOnUse" x1="36.4727" x2="36.4727" y1="62" y2="2.0005"><stop offset="0" stop-color="#c1cccf"/><stop offset=".5085" stop-color="#d6dee1"/><stop offset="1" stop-color="#e6ebef"/></linearGradient><linearGradient id="b" gradientUnits="userSpaceOnUse" x1="4.9995" x2="28.936" y1="23.7871" y2="23.7871"><stop offset="0" stop-color="#e6ebef"/><stop offset="1" stop-color="#c1cccf"/></linearGradient><linearGradient id="c" gradientUnits="userSpaceOnUse" x1="11.8584" x2="21.2104" y1="23.6533" y2="23.6533"><stop offset="0" stop-color="#a89588"/><stop offset=".1049" stop-color="#9d8a7d"/><stop offset=".4915" stop-color="#786557"/><stop offset=".8035" stop-color="#614e40"/><stop offset="1" stop-color="#594638"/></linearGradient><path d="m18.681 42.609 27.902-2.997c-6.126-36.266-33.634-33.212-27.902 2.997z" fill="#b3c2c6"/><path d="m57.325 28.248c.991-18.16-7.313-26.877-16.329-26.213-7.093.522-27.05 3.05-27.05 3.05 16.552 2.808 16.292 22.159 15.381 35.251-.862 12.38.666 21.664.666 21.664s3.081-1.166 4.157-1.355c.686-.121 2.31.114 3 .031.962-.115.896-.458 1.844-.656.807-.169 3.844-.875 4.344-.656l.531-.766.125.609c1.219-.594 8.789-1.641 9.344-1.781.131-.033.391-1.328.391-1.328l.188 1.156c.569-.119 5.083-1.309 5.083-1.309s-2.626-10.242-1.675-27.697z" fill="url(#a)"/><path d="m28.732 22.604c-1.207-10.375-7.451-18.255-13.949-17.601-6.499.653-10.787 9.593-9.58 19.968s7.451 18.256 13.949 17.601c6.499-.653 10.787-9.592 9.58-19.968z" fill="url(#b)"/><path d="m11.63 24.278c.202 4.328 2.552 7.116 5.785 7.301 2.705.154 4.471-3.979 3.973-8.281-.55-4.747-3.229-8.016-5.894-7.528-2.906.531-4.094 3.593-3.864 8.508z" fill="#a89588"/><path d="m11.885 24.246c.191 4.102 2.418 6.743 5.481 6.918 2.563.146 4.236-3.771 3.765-7.847-.521-4.498-3.06-7.596-5.585-7.134-2.754.505-3.879 3.406-3.661 8.063z" fill="url(#c)"/><g fill="#b3c2c6"><path d="m23.145 29.157c.8-1.494.8-6.449 0-7.941.488 1.999.488 5.942 0 7.941z" opacity=".4"/><path d="m10.216 22.016c-.699 1.719.417 6.636 1.79 7.883-1.083-1.84-1.972-5.754-1.79-7.883z" opacity=".4"/><path d="m10.533 12.394c-1.301 1.303-2.837 6.453-2.461 8.255.107-2.231 1.329-6.332 2.461-8.255z" opacity=".4"/><path d="m24.338 15.606c-.291-2.187-4.332-6.653-6.478-7.159 2.198 1.29 5.414 4.845 6.478 7.159z" opacity=".4"/><path d="m11.682 36.988c.446 1.252 3.392 3.403 4.719 3.447-1.458-.499-3.801-2.21-4.719-3.447z" opacity=".4"/><path d="m16.834 36.869c1.086.813 3.781.097 4.319-1.148-.92.916-3.065 1.488-4.319 1.148z" opacity=".4"/><path d="m16.97 14.381c-.92-1.018-3.182-.555-3.626.744.767-.896 2.567-1.264 3.626-.744z" opacity=".4"/><path d="m36.061 14.059c-1.512-.076-6.277.889-7.638 1.548 1.876-.615 5.67-1.383 7.638-1.548z" opacity=".4"/><path d="m37.807 13.123c-1.506-.152-6.314.57-7.706 1.159 1.904-.518 5.732-1.094 7.706-1.159z" opacity=".4"/><path d="m52.746 29.961c-1.828-.274-7.738.326-9.472.964 2.356-.522 7.06-1 9.472-.964z" opacity=".4"/><path d="m54.982 29.032c-1.813-.365-7.746-.064-9.509.484 2.379-.402 7.101-.641 9.509-.484z" opacity=".4"/><path d="m43.973 45.558c-2.136-.32-9.035.382-11.06 1.126 2.75-.609 8.242-1.167 11.06-1.126z" opacity=".4"/><path d="m46.583 44.475c-2.117-.427-9.044-.076-11.103.565 2.777-.47 8.291-.75 11.103-.565z" opacity=".4"/><path d="m42.791 42.526c-2.117-.426-9.044-.075-11.103.565 2.777-.468 8.291-.748 11.103-.565z" opacity=".4"/></g></svg>