<svg enable-background="new 0 0 64 64" height="64" viewBox="0 0 64 64" width="64" xmlns="http://www.w3.org/2000/svg"><path d="m50.26 3.662-1.643-.715-3.119.715-2.644-1.353-6.106 1.353-3.912-1.17-1.337 1.047-7.327-1.154-4.031.713-4.277-1.098-4.864.947v58.106l2.74-.715 1.642.715 3.119-.715 2.645 1.353 6.105-1.353 3.913 1.17 1.337-1.047 7.327 1.154 4.031-.713 4.278 1.098 4.863-.947v-58.106z" fill="#e6ebef"/><path d="m22.544 53.951c-.004-.053.023-.08.072-.08h.18c.045 0 .07.025.076.074.033.252.246.387.549.387.285 0 .486-.145.486-.371 0-.236-.24-.342-.514-.441-.371-.137-.791-.27-.791-.766 0-.432.371-.672.766-.672.398 0 .756.225.793.66.004.051-.023.078-.072.078h-.18c-.045 0-.07-.025-.076-.072-.031-.229-.217-.348-.465-.348s-.439.131-.439.354c0 .25.223.35.498.453.369.141.809.275.809.754 0 .436-.383.689-.814.689-.452 0-.842-.24-.878-.699z" fill="#99a8ae"/><path d="m26.38 53.725c0 .023-.002.045-.002.064-.006.051-.035.072-.08.072h-.234-1.154c.055.326.295.512.607.512.203 0 .363-.09.447-.211.023-.031.051-.049.09-.049h.172c.055 0 .084.031.063.076-.123.279-.414.461-.775.461-.553 0-.92-.396-.92-.93 0-.523.365-.932.918-.932.532.001.868.441.868.937zm-.314-.135c-.047-.348-.293-.512-.557-.512-.33 0-.551.205-.6.512z" fill="#99a8ae"/><path d="m28.695 53.721c0 .523-.406.93-.898.93-.297 0-.525-.133-.668-.346v.934c0 .049-.025.076-.076.076h-.156c-.049 0-.074-.027-.074-.076v-2.329c0-.049.025-.076.074-.076h.156c.051 0 .076.027.076.076v.225c.143-.213.371-.346.668-.346.492 0 .898.406.898.932zm-.307 0c0-.361-.275-.635-.631-.635s-.629.273-.629.635.273.633.629.633.631-.272.631-.633z" fill="#99a8ae"/><path d="m29.939 52.91v.146c0 .049-.027.074-.076.074h-.273v1.4c0 .047-.025.074-.074.074h-.156c-.049 0-.076-.027-.076-.074v-1.4h-.273c-.051 0-.076-.025-.076-.074v-.146c0-.049.025-.076.076-.076h.273v-.492c0-.047.027-.074.076-.074h.156c.049 0 .074.027.074.074v.492h.273c.049 0 .076.027.076.076z" fill="#99a8ae"/><path d="m31.597 52.125h.201c.049 0 .074.027.074.076v2.33c0 .047-.025.074-.074.074h-.178c-.049 0-.074-.027-.074-.074v-2.061l-.516.279c-.055.031-.092.004-.092-.053v-.182c0-.041.02-.072.053-.092l.51-.275c.032-.018.061-.022.096-.022z" fill="#99a8ae"/><path d="m34.135 54.531v-.143c0-.037.01-.064.037-.092l.838-.846c.191-.191.352-.396.352-.609 0-.293-.205-.441-.436-.441-.238 0-.432.111-.461.371-.006.049-.033.074-.078.074h-.178c-.049 0-.074-.025-.072-.078.037-.469.404-.686.785-.686.379 0 .768.256.768.76 0 .305-.199.576-.439.814l-.639.633h1.051c.049 0 .074.025.074.074v.168c0 .047-.025.074-.074.074h-1.453c-.05.001-.075-.026-.075-.073z" fill="#99a8ae"/><path d="m36.084 53.365c0-.766.344-1.283.959-1.283.613 0 .957.518.957 1.283s-.344 1.285-.957 1.285c-.615 0-.959-.519-.959-1.285zm1.586 0c0-.615-.227-.965-.627-.965-.402 0-.629.35-.629.965 0 .617.227.967.629.967.4 0 .627-.35.627-.967z" fill="#99a8ae"/><path d="m38.941 52.125h.201c.049 0 .076.027.076.076v2.33c0 .047-.027.074-.076.074h-.176c-.049 0-.076-.027-.076-.074v-2.061l-.516.279c-.053.031-.09.004-.09-.053v-.182c0-.041.018-.072.051-.092l.512-.275c.03-.018.059-.022.094-.022z" fill="#99a8ae"/><path d="m41.545 53.902v.156c0 .049-.027.076-.076.076h-.227v.396c0 .047-.025.074-.074.074h-.18c-.049 0-.074-.027-.074-.074v-.396h-1.199c-.049 0-.074-.027-.074-.076v-.182c0-.033.006-.063.021-.094l.836-1.604c.02-.037.049-.055.09-.055h.197c.057 0 .078.037.053.092l-.842 1.611h.918v-.627c0-.047.025-.074.074-.074h.18c.049 0 .074.027.074.074v.627h.227c.049.002.076.028.076.076z" fill="#99a8ae"/><path d="m14 16.518h36v1h-36z" fill="#4e5e67"/><path d="m14 40.768h36v.5h-36z" fill="#4e5e67"/><g fill="#99a8ae"><path d="m31.212 43.9v.164c0 .049-.025.076-.076.076h-.588v2.104c0 .049-.025.076-.074.076h-.18c-.049 0-.074-.027-.074-.076v-2.104h-.588c-.051 0-.076-.027-.076-.076v-.164c0-.049.025-.076.076-.076h.916.588c.051 0 .076.028.076.076z"/><path d="m31.365 45.072c0-.719.566-1.291 1.293-1.291.723 0 1.29.572 1.29 1.291s-.566 1.293-1.29 1.293c-.727 0-1.293-.574-1.293-1.293zm2.254 0c0-.547-.416-.971-.961-.971-.547 0-.963.424-.963.971s.416.973.963.973c.545 0 .961-.426.961-.973z"/><path d="m35.76 43.9v.164c0 .049-.027.076-.076.076h-.588v2.104c0 .049-.027.076-.076.076h-.178c-.049 0-.076-.027-.076-.076v-2.104h-.588c-.049 0-.076-.027-.076-.076v-.164c0-.049.027-.076.076-.076h.918.588c.048 0 .076.028.076.076z"/><path d="m37.83 46.32h-.195c-.043 0-.072-.021-.086-.063l-.178-.496h-1.113l-.178.496c-.016.041-.045.063-.086.063h-.195c-.057 0-.08-.033-.061-.086l.865-2.348c.016-.039.047-.063.088-.063h.244c.043 0 .074.023.088.063l.867 2.348c.02.053-.005.086-.06.086zm-.57-.867-.445-1.238-.445 1.238z"/><path d="m39.684 46.082v.162c0 .049-.027.076-.076.076h-1.145-.104c-.047 0-.074-.027-.074-.076v-2.344c0-.049.027-.076.074-.076h.18c.049 0 .076.027.076.076v2.105h.992c.049.001.077.028.077.077z"/><path d="m43.039 43.539h1.762c.061 0 .096.033.096.096v.213c0 .043-.01.08-.025.119l-1.084 2.623c-.02.053-.057.072-.109.072h-.236c-.07 0-.1-.041-.072-.109l1.084-2.619h-1.414c-.063 0-.096-.035-.096-.096v-.203c-.002-.063.032-.096.094-.096z"/><path d="m47.121 44.434c-.006.008-.01.014-.014.02l-.518.928c-.025.037-.393.057-.354 0l.328-.645c-.008 0-.014 0-.021 0-.391 0-.67-.27-.67-.625 0-.357.279-.629.67-.629.387 0 .666.271.666.629 0 .117-.031.225-.086.316zm-.578-.012c.203 0 .332-.123.332-.311 0-.186-.129-.316-.332-.316-.207 0-.338.131-.338.316 0 .188.131.311.338.311z"/><path d="m48.867 44.848c0 .324-.26.533-.654.533-.396 0-.656-.209-.656-.533 0-.205.107-.369.281-.461-.133-.084-.223-.217-.223-.385 0-.33.27-.52.598-.52.326 0 .594.189.594.52 0 .168-.088.301-.221.385.174.092.281.256.281.461zm-.334-.047c0-.164-.129-.26-.32-.26-.207 0-.322.096-.322.26 0 .156.115.264.322.264.205-.001.32-.108.32-.264zm-.595-.787c0 .143.098.234.275.234.172 0 .273-.092.273-.234 0-.137-.102-.223-.273-.223-.178 0-.275.086-.275.223z"/><path d="m13.798 24.121c-.004-.064.029-.098.09-.098h.225c.057 0 .092.033.1.096.033.371.279.512.586.512.332 0 .59-.166.59-.551v-2.133c0-.061.033-.096.096-.096h.223c.063 0 .096.035.096.096v2.133c0 .648-.488.951-1.004.951-.496 0-.959-.275-1.002-.91z"/><path d="m16.38 23.859c0-.66.523-1.17 1.178-1.17.65 0 1.174.51 1.174 1.17 0 .662-.523 1.172-1.174 1.172-.654 0-1.178-.51-1.178-1.172zm1.965 0c0-.449-.344-.793-.787-.793-.445 0-.789.344-.789.793 0 .451.344.795.789.795.443 0 .787-.343.787-.795z"/><path d="m20.705 22.746h.217c.066 0 .1.039.076.107l-1.027 2.938c-.018.053-.057.076-.109.076h-.217c-.066 0-.1-.041-.078-.107l.281-.807-.842-2.098c-.025-.068.004-.109.072-.109h.215c.053 0 .09.02.109.072l.641 1.598.553-1.594c.017-.052.056-.076.109-.076z"/><path d="m42.432 23.414c0-.963.43-1.617 1.203-1.617.775 0 1.205.654 1.205 1.617s-.43 1.617-1.205 1.617c-.774 0-1.203-.654-1.203-1.617zm1.996 0c0-.777-.287-1.215-.793-1.215-.504 0-.791.438-.791 1.215s.287 1.217.791 1.217c.506 0 .793-.44.793-1.217z"/><path d="m46.207 22.746c0-.57.295-.949.791-.949.494 0 .791.379.791.949 0 .568-.297.947-.791.947-.496 0-.791-.379-.791-.947zm1.234 0c0-.4-.168-.613-.443-.613s-.443.213-.443.613c0 .398.168.609.443.609s.443-.21.443-.609z"/><path d="m48.217 22.746c0-.57.295-.949.791-.949.494 0 .791.379.791.949 0 .568-.297.947-.791.947-.496 0-.791-.379-.791-.947zm1.232 0c0-.4-.166-.613-.441-.613s-.443.213-.443.613c0 .398.168.609.443.609s.441-.21.441-.609z"/><path d="m14.005 29.389v-2.094c0-.061.035-.094.096-.094h.223c.063 0 .094.033.094.094v2.076c0 .398.26.607.682.607s.68-.209.68-.607v-2.076c0-.061.033-.094.096-.094h.223c.061 0 .094.033.094.094v2.094c0 .645-.486.99-1.092.99s-1.096-.346-1.096-.99z"/><path d="m18.703 28.877v1.352c0 .063-.033.096-.096.096h-.197c-.063 0-.096-.033-.096-.096v-1.338c0-.32-.195-.484-.463-.484-.277 0-.557.168-.557.648v1.174c0 .063-.033.096-.094.096h-.199c-.061 0-.094-.033-.094-.096v-2.041c0-.061.033-.094.094-.094h.199c.061 0 .094.033.094.094v.182c.16-.244.391-.332.66-.332.417-.001.749.316.749.839z"/><path d="m19.371 27.598v-.303c0-.061.033-.094.094-.094h.199c.061 0 .094.033.094.094v.303c0 .061-.033.094-.094.094h-.199c-.061-.001-.094-.034-.094-.094zm0 2.631v-2.041c0-.061.033-.094.094-.094h.199c.061 0 .094.033.094.094v2.041c0 .063-.033.096-.094.096h-.199c-.061-.001-.094-.034-.094-.096z"/><path d="m22.554 29.686c-.152.412-.566.693-1.051.693-.676 0-1.176-.508-1.176-1.17 0-.66.5-1.172 1.176-1.172.484 0 .895.281 1.051.695.025.064-.012.109-.078.109h-.219c-.051 0-.088-.025-.113-.07-.121-.219-.359-.355-.641-.355-.443 0-.787.344-.787.793 0 .447.344.791.787.791.283 0 .523-.139.641-.354.025-.047.061-.068.113-.068h.219c.066 0 .104.041.078.108z"/><path d="m22.974 29.209c0-.66.523-1.172 1.176-1.172s1.176.512 1.176 1.172c0 .662-.523 1.17-1.176 1.17s-1.176-.508-1.176-1.17zm1.963 0c0-.451-.344-.795-.787-.795s-.787.344-.787.795c0 .449.344.795.787.795s.787-.346.787-.795z"/><path d="m26.958 28.15v.213c0 .059-.023.094-.064.094-.313.016-.609.193-.609.674v1.098c0 .063-.033.096-.094.096h-.199c-.061 0-.094-.033-.094-.096v-2.041c0-.061.033-.094.094-.094h.199c.061 0 .094.033.094.094v.242c.139-.244.344-.348.578-.369.062-.006.095.031.095.089z"/><path d="m29.22 28.877v1.352c0 .063-.035.096-.096.096h-.199c-.061 0-.094-.033-.094-.096v-1.338c0-.32-.197-.484-.463-.484-.277 0-.557.168-.557.648v1.174c0 .063-.033.096-.096.096h-.199c-.061 0-.094-.033-.094-.096v-2.041c0-.061.033-.094.094-.094h.199c.063 0 .096.033.096.094v.182c.16-.244.391-.332.66-.332.417-.001.749.316.749.839z"/><path d="m32.66 30.025v.203c0 .063-.033.096-.096.096h-1.432-.129c-.063 0-.096-.033-.096-.096v-2.934c0-.061.033-.094.096-.094h.223c.061 0 .094.033.094.094v2.637h1.244c.062.001.096.034.096.094z"/><path d="m33.123 27.598v-.303c0-.061.033-.094.096-.094h.197c.063 0 .096.033.096.094v.303c0 .061-.033.094-.096.094h-.197c-.063-.001-.096-.034-.096-.094zm0 2.631v-2.041c0-.061.033-.094.096-.094h.197c.063 0 .096.033.096.094v2.041c0 .063-.033.096-.096.096h-.197c-.063-.001-.096-.034-.096-.096z"/><path d="m34.725 28.027v.066h.49c.063 0 .096.033.096.094v.186c0 .063-.033.096-.096.096h-.49v1.76c0 .063-.033.096-.096.096h-.197c-.063 0-.096-.033-.096-.096v-1.76h-.264c-.063 0-.096-.033-.096-.096v-.186c0-.061.033-.094.096-.094h.264v-.066c0-.564.305-.893.879-.887.063 0 .096.041.096.1v.186c0 .061-.033.09-.1.09-.324-.004-.486.16-.486.511z"/><path d="m37.813 29.215c0 .027-.002.055-.002.082-.006.061-.045.09-.102.09h-.293-1.453c.066.41.369.645.766.645.256 0 .457-.111.561-.266.031-.039.064-.061.115-.061l.215-.002c.068 0 .107.039.08.098-.156.352-.521.578-.977.578-.697 0-1.16-.498-1.16-1.17 0-.658.461-1.172 1.156-1.172.674 0 1.094.551 1.094 1.178zm-.395-.17c-.059-.438-.367-.645-.701-.645-.414 0-.693.258-.756.645z"/><path d="m42.795 30.229v-.178c0-.047.014-.08.047-.115l1.057-1.064c.24-.24.443-.5.443-.768 0-.369-.258-.557-.549-.557-.299 0-.543.141-.58.469-.006.061-.043.094-.1.094h-.223c-.063 0-.096-.033-.092-.1.047-.59.51-.865.99-.865.477 0 .965.324.965.959 0 .385-.25.725-.551 1.025l-.805.795h1.322c.061 0 .094.035.094.096v.209c0 .063-.033.096-.094.096h-1.83c-.061-.001-.094-.034-.094-.096z"/><path d="m47.43 28.096c-.004.008-.008.014-.012.02l-.518.814c-.025.035-.395.055-.354 0l.328-.531c-.008 0-.016 0-.023 0-.389 0-.668-.271-.668-.625 0-.357.279-.629.668-.629s.666.271.666.629c0 .117-.029.225-.084.318zm-.578-.012c.203 0 .334-.125.334-.311s-.131-.316-.334-.316c-.205 0-.336.131-.336.316s.13.311.336.311z"/><path d="m49.115 28.096c-.004.008-.01.014-.014.02l-.518.814c-.023.035-.393.055-.354 0l.33-.531c-.008 0-.016 0-.023 0-.391 0-.67-.271-.67-.625 0-.357.279-.629.67-.629.387 0 .666.271.666.629 0 .117-.031.225-.086.318zm-.578-.012c.203 0 .332-.125.332-.311s-.129-.316-.332-.316c-.207 0-.338.131-.338.316s.131.311.338.311z"/><path d="m16.203 32.645v2.934c0 .063-.033.094-.094.094h-.225c-.061 0-.094-.031-.094-.094v-1.316h-1.328v1.316c0 .063-.033.094-.094.094h-.225c-.061 0-.094-.031-.094-.094v-2.934c0-.061.033-.096.094-.096h.225c.061 0 .094.035.094.096v1.227h1.328v-1.227c0-.061.033-.096.094-.096h.225c.06 0 .094.035.094.096z"/><path d="m18.66 34.234v1.344c0 .063-.033.094-.094.094h-.195c-.061 0-.094-.031-.094-.094v-.137c-.145.195-.379.287-.662.287-.408 0-.785-.236-.785-.713s.377-.713.785-.713c.283 0 .518.096.662.258v-.316c0-.355-.225-.49-.484-.49-.229 0-.432.104-.473.314-.018.055-.043.088-.1.088h-.197c-.061 0-.098-.035-.094-.1.051-.406.4-.672.863-.672.497.001.868.311.868.85zm-.383.782c0-.238-.229-.387-.551-.387-.35 0-.508.164-.508.387 0 .225.158.389.508.389.322-.001.551-.165.551-.389z"/><path d="m21.687 34.559c0 .66-.512 1.17-1.129 1.17-.377 0-.664-.166-.844-.434v1.176c0 .061-.033.094-.094.094h-.199c-.061 0-.094-.033-.094-.094v-2.934c0-.063.033-.096.094-.096h.199c.061 0 .094.033.094.096v.283c.18-.268.467-.436.844-.436.617.001 1.129.512 1.129 1.175zm-.389 0c0-.455-.344-.801-.791-.801-.449 0-.793.346-.793.801s.344.797.793.797c.448-.001.791-.342.791-.797z"/><path d="m24.621 34.559c0 .66-.512 1.17-1.129 1.17-.377 0-.664-.166-.844-.434v1.176c0 .061-.033.094-.094.094h-.199c-.061 0-.094-.033-.094-.094v-2.934c0-.063.033-.096.094-.096h.199c.061 0 .094.033.094.096v.283c.18-.268.467-.436.844-.436.617.001 1.129.512 1.129 1.175zm-.389 0c0-.455-.344-.801-.791-.801-.449 0-.793.346-.793.801s.344.797.793.797c.447-.001.791-.342.791-.797z"/><path d="m26.593 33.441h.217c.066 0 .1.043.076.109l-1.027 2.939c-.016.051-.057.074-.107.074h-.219c-.066 0-.1-.039-.076-.107l.281-.807-.842-2.1c-.027-.064.002-.109.07-.109h.215c.053 0 .09.021.109.074l.641 1.596.555-1.592c.015-.051.055-.077.107-.077z"/><path d="m30.513 33.52c0 .533-.434.971-.977.971h-.721v1.088c0 .063-.031.094-.094.094h-.221c-.061 0-.096-.031-.096-.094v-2.934c0-.061.035-.096.096-.096h.316.721c.543 0 .976.435.976.971zm-.414 0c0-.324-.25-.582-.563-.582h-.721v1.166h.721c.313 0 .563-.262.563-.584z"/><path d="m30.853 34.559c0-.662.523-1.174 1.176-1.174s1.176.512 1.176 1.174c0 .66-.524 1.17-1.176 1.17s-1.176-.51-1.176-1.17zm1.963 0c0-.453-.344-.795-.787-.795s-.787.342-.787.795c0 .449.344.793.787.793s.787-.344.787-.793z"/><path d="m33.65 34.559c0-.662.523-1.174 1.176-1.174s1.176.512 1.176 1.174c0 .66-.523 1.17-1.176 1.17s-1.176-.51-1.176-1.17zm1.963 0c0-.453-.344-.795-.787-.795s-.789.342-.789.795c0 .449.346.793.789.793s.787-.344.787-.793z"/><path d="m45.307 34.748c0 .637-.508.98-1.07.98-.533 0-1.018-.311-1.066-.881-.004-.066.029-.1.092-.1h.227c.059 0 .09.033.098.094.039.316.307.486.65.486.379 0 .658-.207.658-.58s-.279-.578-.658-.578h-.82c-.061 0-.098-.035-.094-.1l.105-1.43c.004-.057.039-.092.096-.092h1.566c.061 0 .094.035.094.096v.197c0 .063-.033.096-.094.096h-1.275l-.059.83h.492c.56.002 1.058.345 1.058.982z"/><path d="m47.885 33.443c-.004.008-.008.014-.012.021l-.518.814c-.025.035-.395.055-.354 0l.328-.533c-.008 0-.016 0-.023 0-.389 0-.668-.27-.668-.625s.279-.627.668-.627.666.271.666.627c0 .117-.029.227-.084.318zm-.578-.009c.203 0 .334-.125.334-.313 0-.186-.131-.314-.334-.314-.205 0-.336.129-.336.314 0 .188.131.313.336.313z"/><path d="m49.57 33.443c-.004.008-.008.014-.014.021l-.518.814c-.023.035-.393.055-.354 0l.33-.533c-.008 0-.016 0-.023 0-.391 0-.67-.27-.67-.625s.279-.627.67-.627c.387 0 .666.271.666.627 0 .117-.031.227-.086.318zm-.578-.009c.203 0 .334-.125.334-.313 0-.186-.131-.314-.334-.314-.207 0-.336.129-.336.314 0 .188.129.313.336.313z"/></g><path d="m26.125 14.098h-.463c-.08 0-.143-.023-.197-.088l-1.637-1.906h-.988v1.836c0 .104-.057.158-.16.158h-.371c-.104 0-.158-.055-.158-.158v-4.903c0-.104.055-.158.158-.158h.531 1.211c.896 0 1.623.725 1.623 1.621 0 .689-.453 1.291-1.086 1.512l1.627 1.889c.083.103.042.197-.09.197zm-3.286-2.625h1.211c.514 0 .932-.436.932-.973 0-.543-.418-.973-.932-.973h-1.211z" fill="#4e5e67"/><path d="m29.976 13.6v.34c0 .104-.055.158-.158.158h-2.6-.104c-.104 0-.158-.055-.158-.158v-4.903c0-.104.055-.158.158-.158h.531 2.135c.104 0 .158.055.158.158v.338c0 .104-.055.158-.158.158h-2.135v1.607h1.947c.104 0 .16.055.16.158v.332c0 .102-.057.158-.16.158h-1.947v1.652h2.172c.104.001.159.058.159.16z" fill="#4e5e67"/><path d="m30.552 11.488c0-1.502 1.137-2.703 2.733-2.703 1.109 0 2.068.662 2.418 1.627.035.109-.02.182-.131.182h-.414c-.088 0-.148-.041-.188-.121-.281-.613-.934-1.018-1.686-1.018-1.221 0-2.042.889-2.042 2.033s.82 2.031 2.042 2.031c.752 0 1.404-.404 1.686-1.016.039-.08.1-.121.188-.121h.414c.111 0 .172.07.137.166-.346.971-1.307 1.643-2.424 1.643-1.596 0-2.733-1.201-2.733-2.703z" fill="#4e5e67"/><path d="m39.666 13.6v.34c0 .104-.055.158-.158.158h-2.6-.104c-.104 0-.158-.055-.158-.158v-4.903c0-.104.055-.158.158-.158h.531 2.135c.104 0 .158.055.158.158v.338c0 .104-.055.158-.158.158h-2.135v1.607h1.947c.104 0 .16.055.16.158v.332c0 .102-.057.158-.16.158h-1.947v1.652h2.172c.104.001.159.058.159.16z" fill="#4e5e67"/><path d="m40.762 8.879h.373c.104 0 .158.055.158.158v4.902c0 .104-.055.158-.158.158h-.373c-.102 0-.158-.055-.158-.158v-4.902c0-.103.056-.158.158-.158z" fill="#4e5e67"/><path d="m46.078 10.5c0 .891-.725 1.621-1.631 1.621h-1.203v1.818c0 .104-.057.158-.158.158h-.373c-.104 0-.158-.055-.158-.158v-4.902c0-.104.055-.158.158-.158h.531 1.203c.907 0 1.631.725 1.631 1.621zm-.689 0c0-.543-.42-.973-.941-.973h-1.203v1.945h1.203c.521.001.941-.435.941-.972z" fill="#4e5e67"/><path d="m50 9.037v.338c0 .104-.055.158-.158.158h-1.23v4.406c0 .104-.057.158-.158.158h-.374c-.102 0-.158-.055-.158-.158v-4.406h-1.23c-.104 0-.158-.055-.158-.158v-.338c0-.104.055-.158.158-.158h1.92 1.23c.103 0 .158.055.158.158z" fill="#4e5e67"/><path d="m16.798 9.389c1.158 0 2.096.939 2.096 2.102 0 1.158-.938 2.098-2.096 2.098-1.16 0-2.102-.939-2.102-2.098.001-1.163.942-2.102 2.102-2.102zm0-.7c-1.545 0-2.798 1.252-2.798 2.801 0 1.545 1.254 2.797 2.799 2.797s2.799-1.252 2.799-2.797c0-.746-.297-1.459-.818-1.982-.529-.524-1.239-.819-1.982-.819z" fill="#4e5e67"/><path d="m17.355 11.766c-.037.008-.074-.004-.104-.033-.027-.027-.039-.064-.035-.105v-.281c-.004-.035.008-.074.035-.102.029-.027.066-.043.104-.035h.914c.033-.008.076.008.104.035s.037.066.035.102v.145c0 .648-.395 1.238-.996 1.484-.602.25-1.291.111-1.752-.35-.033-.021-.049-.059-.049-.1 0-.039.016-.074.049-.096l.297-.301c.021-.031.063-.047.1-.047.039 0 .076.016.098.047.225.225.549.314.855.24.309-.072.557-.299.652-.604h-.307z" fill="#4e5e67"/><path d="m45.387 24.496h.48v.48h-.48z" fill="#99a8ae"/><path d="m45.439 29.845h.48v.48h-.48z" fill="#99a8ae"/><path d="m45.895 35.192h.48v.48h-.48z" fill="#99a8ae"/><path d="m45.131 46.183h.48v.48h-.48z" fill="#99a8ae"/><path d="m32.442 54.225h.48v.48h-.48z" fill="#99a8ae"/></svg>