<svg enable-background="new 0 0 64 64" height="64" viewBox="0 0 64 64" width="64" xmlns="http://www.w3.org/2000/svg" xmlns:xlink="http://www.w3.org/1999/xlink"><linearGradient id="a" gradientUnits="userSpaceOnUse" x1="32.0005" x2="32.0005" y1="26" y2="16"><stop offset=".0485" stop-color="#cf0000"/><stop offset=".0501" stop-color="#d00000"/><stop offset=".0904" stop-color="#e10000"/><stop offset=".1404" stop-color="#ec0000"/><stop offset=".2107" stop-color="#f30000"/><stop offset=".4061" stop-color="#f50000"/><stop offset=".5" stop-color="#ff7259"/><stop offset=".6" stop-color="#f3594b"/></linearGradient><linearGradient id="b" gradientUnits="userSpaceOnUse" x1="32.0005" x2="32.0005" y1="18.8818" y2="11"><stop offset=".697" stop-color="#302c3b"/><stop offset="1" stop-color="#4e585e"/></linearGradient><path d="m62 51c0 1.104-.895 2-2 2h-56c-1.104 0-2-.896-2-2v-26c31.414-1.939 60 0 60 0z" fill="#f50000"/><path d="m55.527 16.314c-.339-.202-.752-.314-1.168-.314h-44.718c-.416 0-.828.112-1.168.314-6.473 3.853-6.473 3.895-6.473 5.519v4.167h60v-4.167c0-1.624 0-1.666-6.473-5.519z" fill="url(#a)"/><path d="m60 48.5c0 1.375-1.125 2.5-2.5 2.5h-51c-1.375 0-2.5-1.125-2.5-2.5v-16.5h56z" fill="#c40000"/><path d="m59.5 38.75c0 1.243-.912 2.25-2.037 2.25h-50.926c-1.125 0-2.037-1.007-2.037-2.25v-6.25h55z" fill="#f50000"/><path d="m59.5 48.25c0 1.242-.912 2.25-2.037 2.25h-50.926c-1.125 0-2.037-1.008-2.037-2.25v-6.75h55z" fill="#f50000"/><path d="m13.5 26h-1c-.275 0-.5-.225-.5-.5v-2c0-.275.225-.5.5-.5h1c.275 0 .5.225.5.5v2c0 .275-.225.5-.5.5z" fill="#e6ebef"/><path d="m9.5 26h-1c-.275 0-.5-.225-.5-.5v-2c0-.275.225-.5.5-.5h1c.275 0 .5.225.5.5v2c0 .275-.225.5-.5.5z" fill="#e6ebef"/><path d="m14 28-.5.5-.387 1.158c-.068.205-.258.342-.474.342h-3.28c-.215 0-.406-.137-.473-.342l-.386-1.158-.5-.5v-1.5c0-.275.225-.5.5-.5h5c.275 0 .5.225.5.5z" fill="#b3c2c6"/><path d="m11.5 26.5h-1c-.275 0-.5-.225-.5-.5v-2c0-.275.225-.5.5-.5h1c.275 0 .5.225.5.5v2c0 .275-.225.5-.5.5z" fill="#cfd8dd"/><path d="m9.5 28.5c-.277 0-.5-.223-.5-.5v-3c0-.275.223-.5.5-.5.275 0 .5.225.5.5v3c0 .277-.225.5-.5.5z" fill="#f2f5f7"/><path d="m12.5 28.5c-.277 0-.5-.223-.5-.5v-3c0-.275.223-.5.5-.5.275 0 .5.225.5.5v3c0 .277-.225.5-.5.5z" fill="#f2f5f7"/><path d="m55.5 26h-1c-.275 0-.5-.225-.5-.5v-2c0-.275.225-.5.5-.5h1c.275 0 .5.225.5.5v2c0 .275-.225.5-.5.5z" fill="#e6ebef"/><path d="m51.5 26h-1c-.275 0-.5-.225-.5-.5v-2c0-.275.225-.5.5-.5h1c.275 0 .5.225.5.5v2c0 .275-.225.5-.5.5z" fill="#e6ebef"/><path d="m56 28-.5.5-.387 1.158c-.068.205-.258.342-.474.342h-3.279c-.215 0-.406-.137-.473-.342l-.387-1.158-.5-.5v-1.5c0-.275.225-.5.5-.5h5c.275 0 .5.225.5.5z" fill="#b3c2c6"/><path d="m53.5 26.5h-1c-.275 0-.5-.225-.5-.5v-2c0-.275.225-.5.5-.5h1c.275 0 .5.225.5.5v2c0 .275-.225.5-.5.5z" fill="#cfd8dd"/><path d="m51.5 28.5c-.277 0-.5-.223-.5-.5v-3c0-.275.223-.5.5-.5.275 0 .5.225.5.5v3c0 .277-.225.5-.5.5z" fill="#f2f5f7"/><path d="m54.5 28.5c-.277 0-.5-.223-.5-.5v-3c0-.275.223-.5.5-.5.275 0 .5.225.5.5v3c0 .277-.225.5-.5.5z" fill="#f2f5f7"/><path d="m32 11c-8.068 0-9.859 1.444-10.699 7.029-.129.853.85.853 2.16.853.119-6.696 4.426-4.859 8.539-4.859 4.115 0 8.422-1.837 8.539 4.859 1.313 0 2.289 0 2.16-.853-.84-5.585-2.631-7.029-10.699-7.029z" fill="url(#b)"/><path d="m36.652 18.882h3.887c.186 0-.025-1.741-.152-1.741-.961 0-1.572 0-1.984 0-.876 0-1.751.928-1.751 1.741z" fill="#b3c2c6"/><path d="m27.348 18.882s-2.541 0-3.887 0c-.186 0 .025-1.741.154-1.741h1.984c.874 0 1.749.928 1.749 1.741z" fill="#b3c2c6"/><g fill="#cfd8dd"><path d="m59.5 43.75h-55v-2.25h55z"/><path d="m59.5 34.75h-55v-2.25h55z"/></g></svg>