<svg enable-background="new 0 0 64 64" height="64" viewBox="0 0 64 64" width="64" xmlns="http://www.w3.org/2000/svg" xmlns:xlink="http://www.w3.org/1999/xlink"><radialGradient id="a" cx="29.625" cy="29.875" gradientTransform="matrix(.7071 -.7071 .5985 .5985 -9.2045 32.9416)" gradientUnits="userSpaceOnUse" r="32.4579"><stop offset=".7152" stop-color="#005687"/><stop offset=".7868" stop-color="#02598b"/><stop offset=".8578" stop-color="#086397"/><stop offset=".9285" stop-color="#1372ab"/><stop offset=".9988" stop-color="#2289c6"/><stop offset="1" stop-color="#2289c7"/></radialGradient><linearGradient id="b" gradientUnits="userSpaceOnUse" x1="31.9995" x2="31.9995" y1="46.9883" y2="17.0137"><stop offset="0" stop-color="#009af7"/><stop offset=".2824" stop-color="#12a6f3"/><stop offset=".8455" stop-color="#40c5e9"/><stop offset="1" stop-color="#4ecee6"/></linearGradient><linearGradient id="c" gradientUnits="userSpaceOnUse" x1="31.9995" x2="31.9995" y1="41.6797" y2="22.3218"><stop offset="0" stop-color="#302c3b"/><stop offset=".2848" stop-color="#343240"/><stop offset=".6799" stop-color="#41444e"/><stop offset="1" stop-color="#4e585e"/></linearGradient><linearGradient id="d" gradientUnits="userSpaceOnUse" x1="34.2246" x2="34.2246" y1="62" y2="5.2759"><stop offset="0" stop-color="#013366"/><stop offset=".3064" stop-color="#004779"/><stop offset=".6121" stop-color="#005687"/><stop offset=".7152" stop-color="#005687"/></linearGradient><path d="m29.085 2.021c-41.395 1.303-31.92 67.681 5.335 59.237 40.997-9.284 33.841-60.469-5.335-59.237z" fill="url(#a)"/><path d="m11.808 35.421c-2.814-26.278 31.338-33.691 39.675-6.598 7.58 24.619-36.698 34.362-39.675 6.598z" fill="#fff"/><path d="m21.412 42.235c-13.131-14.376 3.918-33.672 20.685-21.221 15.236 11.317-6.811 36.413-20.685 21.221z" fill="url(#b)"/><path d="m31.785 22.334c12.626.57 13.658 17.257.244 19.239-12.19 1.801-13.59-19.844-.244-19.239z" fill="url(#c)"/><path d="m36.458 31.901c-.264 5.824-7.958 6.301-8.873.113-.832-5.623 9.152-6.268 8.873-.113z" fill="#fff"/><path d="m45.784 5.275c20.373 12.305 18.586 45.976-13.544 53.253-11.611 2.631-20.449-2.197-25.789-10.018 5.229 9.439 14.883 15.715 27.974 12.748 34.232-7.751 34.885-44.715 11.359-55.983z" fill="url(#d)"/></svg>