<svg enable-background="new 0 0 64 64" height="64" viewBox="0 0 64 64" width="64" xmlns="http://www.w3.org/2000/svg" xmlns:xlink="http://www.w3.org/1999/xlink"><linearGradient id="a" gradientUnits="userSpaceOnUse" x1="42.0127" x2="42.0127" y1="5.5015" y2="1.9995"><stop offset=".3455" stop-color="#302c3b"/><stop offset=".5183" stop-color="#33303e"/><stop offset=".6896" stop-color="#3c3c49"/><stop offset=".8597" stop-color="#4a505a"/><stop offset="1" stop-color="#5b666e"/></linearGradient><linearGradient id="b"><stop offset="0" stop-color="#99a8ae"/><stop offset=".281" stop-color="#b1bfc7"/><stop offset=".6102" stop-color="#c7d5de"/><stop offset=".8182" stop-color="#cfdde6"/></linearGradient><linearGradient id="c" gradientUnits="userSpaceOnUse" x1="46.0039" x2="44.3789" xlink:href="#b" y1="10.7642" y2="10.4204"/><linearGradient id="d" gradientUnits="userSpaceOnUse" x1="36.7881" x2="35.2568" xlink:href="#b" y1="9.7661" y2="9.4536"/><linearGradient id="e" gradientUnits="userSpaceOnUse" x1="36.1318" x2="36.1318" y1="15.2515" y2="11.7495"><stop offset=".2667" stop-color="#302c3b"/><stop offset=".4582" stop-color="#33303f"/><stop offset=".652" stop-color="#3c3c49"/><stop offset=".8461" stop-color="#4b505b"/><stop offset="1" stop-color="#5b666e"/></linearGradient><linearGradient id="f" gradientUnits="userSpaceOnUse" x1="23.2026" x2="52.999" y1="38.2275" y2="38.2275"><stop offset="0" stop-color="#2289c7"/><stop offset="1" stop-color="#005687"/></linearGradient><linearGradient id="g" gradientUnits="userSpaceOnUse" x1="11.0005" x2="43.751" y1="37.1367" y2="37.1367"><stop offset="0" stop-color="#00a8f2"/><stop offset="1" stop-color="#018bc9"/></linearGradient><path d="m44.501 56.018s-1.354-.131-1.605-.168c-3.338-.502-4.304 5.453-.967 5.951.334.051 1.605.17 1.605.17z" fill="#4e5e67"/><path d="m43.534 61.971c-3.337-.5-2.37-6.453.967-5.953 3.337.498 2.371 6.453-.967 5.953z" fill="#302c3b"/><path d="m43.859 61.27c-2.29-.344-1.575-4.732.715-4.391s1.578 4.734-.715 4.391z" fill="#4e5e67"/><path d="m44.102 56.879c-1.54.221-2.134 2.738-1.188 3.867 1.539-.223 2.136-2.738 1.188-3.867z" fill="#ee4d23" opacity=".5"/><path d="m44.102 56.879c-1.54.221-2.134 2.738-1.188 3.867 1.539-.223 2.136-2.738 1.188-3.867z" fill="#1a1626"/><path d="m35.506 4.082c.137.322.896.572 1.259.559 2.311-.09 8.284-.211 11.587.859.194.063.402-1.941-.03-2.248-2.028-1.434-10.253-1.479-12.343-.92-.429.115-.639 1.354-.473 1.75z" fill="url(#a)"/><path d="m45.062 4.527c.184-.842 2.979-.357 2.767.527-.214.889-2.999.542-2.767-.527z" fill="#1a1626"/><path d="m43.107 16.281s1.788-8.221 2.481-11.416c.085-.389 1.726-.074 1.626.34-.541 2.252-2.411 11.291-2.411 11.291z" fill="url(#c)"/><path d="m35.898 3.816c.173-.797 2.813-.338 2.613.496-.202.84-2.832.514-2.613-.496z" fill="#1a1626"/><path d="m34.027 15.049s1.715-7.896 2.369-10.914c.08-.367 1.63-.07 1.536.32-.512 2.127-2.302 10.797-2.302 10.797z" fill="url(#d)"/><path d="m29.625 13.832c.137.322.896.572 1.26.559 2.31-.09 8.283-.211 11.586.859.194.063.401-1.941-.031-2.248-2.028-1.434-10.251-1.479-12.342-.92-.429.115-.639 1.354-.473 1.75z" fill="url(#e)"/><path d="m23.397 58.734c5.984 2.07 17.838 6.441 19.207-1.863.2-1.219 1.864-.973 3.482-.988 1.163-5.385 4.746-23.65 6.715-33.457.652-3.252.369-5.084-11.642-7.711-2.833-.621-19.962 43.258-17.762 44.019z" fill="url(#f)"/><path d="m28.618 60.545c3.818 1.68 7.842 1.533 8.9-3.363 1.163-5.387 5.919-27.844 7.799-37.668.518-2.709-.705-4.887-5.315-5.189-26.683-1.751-16.058 44.163-11.384 46.22z" fill="#013366"/><path d="m24.066 12.984c-2.636-.195-5.265.863-6.006 4.322-2.536 11.832-3.104 15.498-6.675 31.336-1.211 5.371.629 6.494 2.829 7.256 5.984 2.072 13.477 4.51 15.634 5.059 1.992.508 4.914 1.195 5.97-3.701 1.164-5.385 5.92-27.842 7.8-37.668.519-2.709-.347-5.008-4.952-5.365-2.896-.225-8.449-.78-14.6-1.239z" fill="url(#g)"/><path d="m38.666 14.223c-2.896-.225-8.449-.779-14.6-1.238-1.49-.111-2.979.182-4.125 1.08.946-.467 2.034-.633 3.133-.553 5.855.438 9.803.664 12.561.877 4.384.342 5.208 2.529 4.714 5.109-1.789 9.354-6.317 30.734-7.425 35.863-1.008 4.662-3.787 4.008-5.686 3.523-2.055-.523-7.847-2.543-13.544-4.514-1.104-.383-2.108-.867-2.646-1.982.252 2.252 1.618 2.975 3.167 3.51 5.984 2.072 13.477 4.51 15.634 5.059 1.992.508 4.914 1.195 5.97-3.701 1.164-5.385 5.92-27.842 7.8-37.668.518-2.709-.348-5.008-4.953-5.365z" fill="#006dae"/><g fill="#014d87"><path d="m13.706 51.396c-.28 1.295-1.396.848-1.118-.434l7.536-34.793c.278-1.283 1.472-1.193 1.191.104z"/><path d="m18.396 53.221c-.291 1.344-1.496.861-1.207-.469l7.838-36.16c.288-1.334 1.577-1.238 1.286.109z"/><path d="m23.474 55.191c-.303 1.398-1.608.877-1.308-.51l8.163-37.633c.302-1.389 1.699-1.283 1.395.119z"/><path d="m28.99 57.332c-.317 1.461-1.736.893-1.422-.553l8.517-39.234c.314-1.449 1.835-1.334 1.516.131z"/></g></svg>