<svg enable-background="new 0 0 64 64" height="64" viewBox="0 0 64 64" width="64" xmlns="http://www.w3.org/2000/svg" xmlns:xlink="http://www.w3.org/1999/xlink"><linearGradient id="a"><stop offset="0" stop-color="#defbff"/><stop offset=".2862" stop-color="#dafafe"/><stop offset=".5783" stop-color="#cef7fc"/><stop offset=".8723" stop-color="#b9f2f9"/><stop offset="1" stop-color="#aeeff7"/></linearGradient><radialGradient id="b" cx="57.9336" cy="42.8037" gradientUnits="userSpaceOnUse" r="2.9075" xlink:href="#a"/><radialGradient id="c" cx="59.2715" cy="47.6982" gradientUnits="userSpaceOnUse" r="4.4688" xlink:href="#a"/><linearGradient id="d" gradientUnits="userSpaceOnUse" x1="29.3091" x2="29.3091" y1="55.6152" y2="25.2876"><stop offset="0" stop-color="#ffadc9"/><stop offset="1" stop-color="#f69"/></linearGradient><linearGradient id="e" gradientUnits="userSpaceOnUse" x1="29.3091" x2="29.3091" y1="47.7061" y2="26.6948"><stop offset="0" stop-color="#f69"/><stop offset="1" stop-color="#f9b"/></linearGradient><linearGradient id="f" gradientUnits="userSpaceOnUse" x1="29.3037" x2="29.3037" y1="60.2969" y2="43.9775"><stop offset="0" stop-color="#ffa6c4"/><stop offset="1" stop-color="#f69"/></linearGradient><radialGradient id="g" cx="14.3975" cy="25.7988" gradientUnits="userSpaceOnUse" r="2.6172" xlink:href="#a"/><radialGradient id="h" cx="9.9385" cy="27.2148" gradientUnits="userSpaceOnUse" r="3.8387" xlink:href="#a"/><radialGradient id="i" cx="6.4443" cy="29.9492" gradientUnits="userSpaceOnUse" r="2.3462" xlink:href="#a"/><radialGradient id="j" cx="22.4272" cy="27.4868" gradientUnits="userSpaceOnUse" r="2.3465" xlink:href="#a"/><radialGradient id="k" cx="57.4707" cy="51.583" gradientUnits="userSpaceOnUse" r="5.1394" xlink:href="#a"/><radialGradient id="l" cx="52.5693" cy="56.251" gradientUnits="userSpaceOnUse" r="4.4697" xlink:href="#a"/><radialGradient id="m" cx="45.5459" cy="58.5342" gradientUnits="userSpaceOnUse" r="2.9079" xlink:href="#a"/><radialGradient id="n" cx="33.3887" cy="58.4922" gradientUnits="userSpaceOnUse" r="2.3465" xlink:href="#a"/><path d="m55.254 41.646c-1.754 2.249-.885 5.118 2.672 4.759 5.047-.509.383-8.676-2.672-4.759z" fill="url(#b)"/><path d="m54.77 45.522c-4.645 3.43 1.088 9.346 5.287 7.096 4.193-2.248 1.22-11.907-5.287-7.096z" fill="url(#c)"/><path d="m56.543 43.755c-.777-3.511-3.533-11.668-5.238-14.903-2.506-4.754-41.491-4.752-43.996 0-1.705 3.236-4.465 11.392-5.24 14.903-.416 1.883 1.211 9.67 1.211 9.67.457 2.92 51.568 2.92 52.023 0 0 0 1.681-7.674 1.24-9.67z" fill="url(#d)"/><path d="m54.754 43.622c-.726-3.218-3.3-10.695-4.893-13.66-2.342-4.358-38.763-4.356-41.104 0-1.592 2.967-4.171 10.442-4.895 13.66-1.214 5.393 52.132 5.497 50.892 0z" fill="url(#e)"/><path d="m2.034 43.978c-.274 2.186 1.24 9.447 1.24 9.447.457 2.92 3.998 4.91 5.891 5.309 9.869 2.084 30.375 2.084 40.243 0 1.893-.398 5.436-2.389 5.891-5.309 0 0 1.557-7.113 1.274-9.417-.001 6.839-54.539 7.451-54.539-.03z" fill="url(#f)"/><g fill="#e65181"><path d="m12.416 38.676c.578.65 1.436 1.113 2.306 1.113.982 0 1.54-.398 1.661-1.035.123-.656-.418-.863-1.232-1.238l-1.182-.559c-.951-.412-1.72-1.252-1.363-2.629.391-1.498 2.07-2.643 3.998-2.643 1.07 0 2.129.396 2.814 1.146l-1.3 1.287c-.553-.463-1.105-.727-1.866-.727-.734 0-1.286.305-1.403.824-.13.572.472.773 1.26 1.109l1.161.502c1.123.479 1.764 1.285 1.539 2.734-.273 1.783-2.02 3.41-4.595 3.41-1.411 0-2.765-.563-3.589-1.627z"/><path d="m20.346 36.395c.42-3.072 2.369-4.709 4.869-4.709 2.511 0 4.22 1.653 4.214 4.709-.008 3.379-2.005 5.576-4.927 5.576-2.908 0-4.617-2.198-4.156-5.576zm6.767 0c.068-1.908-.713-3.004-2.018-3.004-1.289 0-2.236 1.096-2.434 3.004-.207 2.037.572 3.395 1.99 3.395 1.435-.001 2.386-1.358 2.462-3.395z"/><path d="m36.117 39.127h-3.194l-.535 2.633h-2.484l2.889-9.915h2.52l4.297 9.915h-2.584zm-.637-1.83-.324-.916c-.352-.971-.691-2.08-1.027-3.031h-.059c-.154.965-.354 2.061-.57 3.031l-.195.916z"/><path d="m39.223 31.845h3.406c2.031 0 3.832.689 4.412 2.883.604 2.273-.955 3.338-3.125 3.338h-1.414l.689 3.693h-2.453zm4.181 4.413c1.24 0 1.713-.537 1.482-1.529-.225-.961-.92-1.309-2.063-1.309h-1.189l.529 2.838z"/></g><path d="m13.209 24.954c-1.578 2.024-.795 4.605 2.406 4.283 4.542-.461.344-7.809-2.406-4.283z" fill="url(#g)"/><path d="m7.967 25.566c-2.316 2.968-1.166 6.756 3.529 6.281 6.662-.675.504-11.453-3.529-6.281z" fill="url(#h)"/><path d="m5.318 28.987c-1.414 1.813-.713 4.129 2.158 3.839 4.071-.413.308-7.001-2.158-3.839z" fill="url(#i)"/><path d="m21.135 26.524c-1.414 1.813-.713 4.129 2.158 3.839 4.072-.413.309-7-2.158-3.839z" fill="url(#j)"/><path d="m53.832 47.952c-7.16 3.797.51 12.039 5.314 9.561 4.797-2.475-.541-12.094-5.314-9.561z" fill="url(#k)"/><path d="m48.9 54.075c-4.645 3.432 1.088 9.348 5.287 7.096 4.196-2.246 1.223-11.906-5.287-7.096z" fill="url(#l)"/><path d="m44.074 57.214c-1.754 2.246-.883 5.115 2.674 4.756 5.045-.512.383-8.676-2.674-4.756z" fill="url(#m)"/><path d="m32.263 57.573c-1.416 1.813-.713 4.127 2.159 3.838 4.07-.414.307-7-2.159-3.838z" fill="url(#n)"/></svg>