<svg enable-background="new 0 0 64 64" height="64" viewBox="0 0 64 64" width="64" xmlns="http://www.w3.org/2000/svg"><path d="m62 21.343-59.992 2.34s-.145 8.836.805 14.362c.938 5.468 5.283 15.701 14.566 14.912 8.736-.742 14.074-6.348 20.813-9.315 7.887-3.474 15.023-2.104 19.217-5.526 4.503-3.677 4.591-16.773 4.591-16.773z" fill="#71b090"/><path d="m41.669 11.098c-5.816.565-9.525 4.83-16.97 6.456-7.387 1.614-22.691-.125-22.691 6.129 0 25.497 24.33 10.885 36.001 5.59 8.66-3.929 23.991-1.629 23.991-7.93 0-6.284-11.556-11.098-20.331-10.245z" fill="#8cdbb3"/><g fill="#71b090"><path d="m24.721 31.885c0 2.168-7.314 2.168-7.314 0-.001-2.166 7.314-2.166 7.314 0z"/><path d="m51.1 14.897c0 1.63-5.499 1.63-5.499 0s5.499-1.63 5.499 0z"/><path d="m33.522 29.523c0 1.245-4.206 1.245-4.206 0 0-1.247 4.206-1.247 4.206 0z"/><path d="m12.797 25.346c.211-.207.336-.449.336-.728 0-2.166-7.313-2.166-7.313 0 0 1.251 2.438 1.775 4.499 1.581-.002.015-.01.029-.01.044 0 1.221 4.129 1.221 4.129 0 0-.526-.768-.825-1.641-.897z"/><path d="m42.343 17.778c0 1.221-4.126 1.221-4.126 0 0-1.222 4.126-1.222 4.126 0z"/><path d="m27.478 27.298c0 .932-3.155.932-3.155 0-.001-.936 3.155-.936 3.155 0z"/><path d="m19.674 22.242c0 1.245-4.207 1.245-4.207 0 0-1.242 4.207-1.242 4.207 0z"/><path d="m56.671 18.697c0 1.553-5.259 1.553-5.259 0 0-1.559 5.259-1.559 5.259 0z"/><path d="m47.179 23.168c0 .932-3.155.932-3.155 0-.001-.935 3.155-.935 3.155 0z"/><path d="m32.305 18.695c0 .934-3.155.934-3.155 0-.001-.933 3.155-.933 3.155 0z"/></g><path d="m27.853 43.521c0 3.467-5 3.467-5 0 0-3.471 5-3.471 5 0z" fill="#5a8c73"/><path d="m12.758 40.969c0 1.387-2 1.387-2 0s2-1.387 2 0z" fill="#5a8c73"/><path d="m40.217 33.51c0 1.388-2 1.388-2 0 0-1.386 2-1.386 2 0z" fill="#5a8c73"/><path d="m51.787 36.672c0 2.26-3.261 2.26-3.261 0 0-2.264 3.261-2.264 3.261 0z" fill="#5a8c73"/><path d="m54.335 29.967c.001-.027.008-.051.008-.08 0-2.263-3.261-2.263-3.261 0 0 1.162.86 1.722 1.698 1.689-.041.186-.068.382-.068.598 0 3.055 4.399 3.055 4.399 0 0-1.795-1.522-2.525-2.776-2.207z" fill="#5a8c73"/><path d="m15.133 46.82c0 2.773-4 2.773-4 0 0-2.776 4-2.776 4 0z" fill="#5a8c73"/><path d="m31.316 36.375c0 1.388-2 1.388-2 0 0-1.389 2-1.389 2 0z" fill="#5a8c73"/><path d="m36.701 40.162c0 2.395-3.45 2.395-3.45 0 0-2.392 3.45-2.392 3.45 0z" fill="#5a8c73"/><path d="m48.012 32.176c0 1.158-1.666 1.158-1.666 0 0-1.157 1.666-1.157 1.666 0z" fill="#5a8c73"/><path d="m8.31 40.162c0 2.082-2.999 2.082-2.999 0s2.999-2.082 2.999 0z" fill="#5a8c73"/></svg>