<svg enable-background="new 0 0 64 64" height="64" viewBox="0 0 64 64" width="64" xmlns="http://www.w3.org/2000/svg" xmlns:xlink="http://www.w3.org/1999/xlink"><linearGradient id="a" gradientUnits="userSpaceOnUse" x1="2" x2="62" y1="23.7861" y2="23.7861"><stop offset=".25" stop-color="#e6ebed"/><stop offset=".7032" stop-color="#e4e9ec"/><stop offset=".8662" stop-color="#dde4e7"/><stop offset=".9822" stop-color="#d2dadf"/><stop offset="1" stop-color="#cfd8dd"/></linearGradient><linearGradient id="b" gradientUnits="userSpaceOnUse" x1="32.1445" x2="32.1445" y1="31.9424" y2="14.9438"><stop offset="0" stop-color="#4e5e67"/><stop offset=".0407" stop-color="#5b6a72"/><stop offset=".1948" stop-color="#859198"/><stop offset=".3517" stop-color="#a8b1b7"/><stop offset=".5098" stop-color="#c3cbd0"/><stop offset=".6694" stop-color="#d7dde1"/><stop offset=".8315" stop-color="#e2e7ec"/><stop offset="1" stop-color="#e6ebef"/></linearGradient><path d="m55.352 57.213c-14.875 5.676-31.54 5.676-46.414 0-1.683-10.129-3.364-20.257-5.046-30.387 18.108 6.91 38.397 6.908 56.505 0-1.681 10.13-3.364 20.258-5.045 30.387z" fill="#8c6143"/><path d="m28.988 54.045c.021.98.043 1.961.065 2.941 2.064.34 4.123.584 6.167.736.021-.981.043-1.963.064-2.943-2.086-.15-4.188-.393-6.296-.734z" fill="#d6a57c"/><path d="m41.59 53.469c-.064.984-.13 1.97-.194 2.953 2.028-.034 4.035-.162 6.012-.381.107-.993.215-1.984.322-2.979-2.019.229-4.069.366-6.14.407z" fill="#d6a57c"/><path d="m16.478 52.317c.107.993.215 1.985.322 2.979 2.042.718 4.092 1.338 6.142 1.865-.065-.984-.13-1.97-.194-2.955-2.094-.53-4.186-1.16-6.27-1.889z" fill="#d6a57c"/><path d="m29.053 56.986c-2.055.152-4.094.21-6.111.176-.065-.984-.13-1.97-.194-2.955 2.061.041 4.143-.014 6.24-.162.021.98.043 1.961.065 2.941z" fill="#c4926e"/><path d="m7.951 52.928c.989.504 1.983.979 2.982 1.433-.149-1.006-.299-2.01-.448-3.016-1.02-.46-2.034-.942-3.044-1.452.17 1.012.34 2.025.51 3.035z" fill="#d6a57c"/><path d="m16.8 55.297c-1.987-.222-3.945-.535-5.867-.937-.149-1.006-.299-2.01-.448-3.016 1.963.418 3.963.742 5.993.973.107.994.215 1.986.322 2.98z" fill="#c4926e"/><path d="m56.848 49.893c-.967.254-1.944.489-2.932.698-.149 1.007-.299 2.009-.448 3.015.966-.202 1.923-.429 2.87-.678.17-1.01.34-2.023.51-3.035z" fill="#d6a57c"/><path d="m53.468 53.605c-2.007.909-4.029 1.721-6.061 2.436.107-.993.215-1.984.322-2.979 2.073-.725 4.139-1.548 6.187-2.472-.149 1.008-.299 2.01-.448 3.015z" fill="#c4926e"/><path d="m41.396 56.422c-2.061.529-4.122.961-6.176 1.301.021-.981.043-1.963.064-2.943 2.098-.341 4.202-.777 6.306-1.311-.065.984-.13 1.969-.194 2.953z" fill="#c4926e"/><path d="m28.826 46.687c.021.981.043 1.961.064 2.943 2.174.342 4.34.589 6.492.735.021-.98.044-1.963.065-2.943-2.195-.145-4.405-.39-6.621-.735z" fill="#d6a57c"/><path d="m42.076 46.08c-.064.986-.13 1.971-.194 2.955 2.136-.05 4.249-.198 6.332-.44.107-.993.215-1.985.322-2.979-2.125.253-4.281.409-6.46.464z" fill="#d6a57c"/><path d="m15.671 44.871c.107.993.215 1.986.322 2.978 2.147.745 4.305 1.385 6.462 1.926-.065-.984-.13-1.969-.194-2.954-2.201-.548-4.4-1.197-6.59-1.95z" fill="#d6a57c"/><path d="m28.89 49.63c-2.162.146-4.31.193-6.435.145-.065-.984-.13-1.969-.194-2.954 2.168.054 4.358.011 6.564-.134.022.981.044 1.96.065 2.943z" fill="#c4926e"/><path d="m6.675 45.339c1.041.52 2.087 1.016 3.137 1.485-.149-1.005-.299-2.01-.448-3.014-1.071-.477-2.138-.979-3.198-1.509.169 1.012.339 2.025.509 3.038z" fill="#d6a57c"/><path d="m15.994 47.849c-2.093-.244-4.156-.587-6.182-1.024-.149-1.005-.299-2.01-.448-3.014 2.066.45 4.172.806 6.308 1.061.107.992.214 1.985.322 2.977z" fill="#c4926e"/><path d="m58.123 42.302c-1.019.276-2.048.527-3.086.755-.149 1.006-.299 2.008-.448 3.014 1.018-.219 2.026-.465 3.024-.731.17-1.014.34-2.027.51-3.038z" fill="#d6a57c"/><path d="m54.589 46.07c-2.11.944-4.238 1.785-6.375 2.524.107-.993.215-1.985.322-2.979 2.18-.75 4.349-1.603 6.501-2.56-.149 1.008-.299 2.009-.448 3.015z" fill="#c4926e"/><path d="m41.882 49.035c-2.168.543-4.337.986-6.5 1.33.021-.98.044-1.963.065-2.943 2.205-.345 4.418-.791 6.629-1.342-.064.986-.13 1.971-.194 2.955z" fill="#c4926e"/><path d="m28.663 39.329c.022.979.044 1.962.065 2.942 2.281.35 4.556.594 6.817.736.021-.982.043-1.962.064-2.942-2.302-.14-4.621-.385-6.946-.736z" fill="#d6a57c"/><path d="m42.563 38.694c-.064.985-.13 1.97-.194 2.954 2.243-.064 4.464-.231 6.652-.5.107-.992.215-1.986.322-2.979-2.232.279-4.494.456-6.78.525z" fill="#d6a57c"/><path d="m14.865 37.426c.107.993.215 1.985.323 2.978 2.253.768 4.517 1.429 6.781 1.985-.065-.985-.13-1.971-.194-2.955-2.309-.564-4.614-1.231-6.91-2.008z" fill="#d6a57c"/><path d="m28.728 42.271c-2.271.142-4.526.18-6.759.117-.065-.985-.13-1.971-.194-2.955 2.275.069 4.574.035 6.888-.104.022.98.044 1.962.065 2.942z" fill="#c4926e"/><path d="m5.401 37.748c1.091.54 2.188 1.054 3.29 1.542-.149-1.007-.299-2.011-.448-3.016-1.122-.492-2.24-1.015-3.352-1.563.17 1.012.34 2.024.51 3.037z" fill="#d6a57c"/><path d="m15.188 40.403c-2.2-.27-4.368-.642-6.497-1.113-.149-1.007-.299-2.011-.448-3.016 2.171.485 4.381.87 6.622 1.151.107.994.215 1.986.323 2.978z" fill="#c4926e"/><path d="m59.397 34.711c-1.069.296-2.149.566-3.239.81-.15 1.005-.299 2.011-.449 3.016 1.07-.239 2.13-.501 3.179-.788.17-1.014.34-2.026.509-3.038z" fill="#d6a57c"/><path d="m55.709 38.536c-2.213.977-4.446 1.849-6.688 2.612.107-.992.215-1.986.322-2.979 2.285-.775 4.56-1.657 6.815-2.649-.15 1.005-.299 2.011-.449 3.016z" fill="#c4926e"/><path d="m42.368 41.648c-2.276.559-4.554 1.01-6.823 1.359.021-.982.043-1.962.064-2.942 2.314-.352 4.635-.808 6.953-1.371-.064.986-.129 1.97-.194 2.954z" fill="#c4926e"/><path d="m28.5 31.972c.021.98.043 1.963.065 2.942 2.389.355 4.773.6 7.141.736.021-.98.043-1.963.064-2.943-2.41-.136-4.837-.379-7.27-.735z" fill="#d6a57c"/><path d="m43.049 31.308c-.064.983-.13 1.97-.194 2.955 2.351-.08 4.678-.268 6.973-.561.107-.994.215-1.985.322-2.979-2.337.303-4.708.499-7.101.585z" fill="#d6a57c"/><path d="m14.058 29.979c.107.992.215 1.985.323 2.978 2.358.791 4.729 1.472 7.102 2.044-.064-.984-.13-1.971-.194-2.955-2.416-.577-4.829-1.266-7.231-2.067z" fill="#d6a57c"/><path d="m28.566 34.914c-2.379.136-4.743.165-7.083.087-.064-.984-.13-1.971-.194-2.955 2.383.085 4.79.06 7.212-.074.021.98.042 1.963.065 2.942z" fill="#c4926e"/><path d="m3.616 27.121c.17 1.012.34 2.023.51 3.035 1.143.562 2.291 1.093 3.445 1.597-.149-1.005-.299-2.008-.448-3.013-1.175-.511-2.344-1.052-3.507-1.619z" fill="#d6a57c"/><path d="m14.381 32.957c-2.306-.295-4.579-.696-6.811-1.204-.149-1.005-.299-2.008-.448-3.013 2.273.52 4.588.934 6.936 1.239.108.993.215 1.986.323 2.978z" fill="#c4926e"/><path d="m60.673 27.121c-1.12.316-2.252.604-3.395.865-.149 1.005-.299 2.01-.448 3.015 1.122-.256 2.232-.537 3.333-.845.17-1.011.34-2.023.51-3.035z" fill="#d6a57c"/><path d="m56.83 31.001c-2.317 1.012-4.654 1.911-7.003 2.701.107-.994.215-1.985.322-2.979 2.391-.798 4.771-1.711 7.129-2.737-.149 1.005-.299 2.01-.448 3.015z" fill="#c4926e"/><path d="m42.854 34.263c-2.384.571-4.769 1.034-7.147 1.388.021-.98.043-1.963.064-2.943 2.423-.354 4.852-.821 7.277-1.399-.064.982-.129 1.968-.194 2.954z" fill="#c4926e"/><g fill="#b47d56"><path d="m22.187 60.913-1.948-29.595 1.996-.115 1.948 29.594z"/><path d="m28.15 61.42-.65-29.476 2-.037.65 29.475z"/><path d="m10.503 58.256-4.49-30.188 1.981-.258 4.49 30.19z"/><path d="m16.29 59.858-3.232-29.832 1.99-.188 3.232 29.832z"/><path d="m47.999 59.858-1.99-.188 3.231-29.832 1.99.188z"/><path d="m53.785 58.256-1.98-.256 4.49-30.19 1.98.258z"/><path d="m36.139 61.42-2-.038.65-29.475 2 .037z"/><path d="m42.102 60.913-1.997-.116 1.949-29.594 1.996.115z"/></g><path d="m28.663 39.329c-2.324-.352-4.655-.808-6.985-1.373-.064-.986-.13-1.97-.194-2.955 2.372.571 4.747 1.032 7.115 1.386.021.979.042 1.961.064 2.942z" fill="#d6a57c"/><path d="m14.865 37.426c-2.295-.777-4.58-1.662-6.846-2.657-.15-1.005-.299-2.01-.448-3.016 2.307 1.01 4.634 1.908 6.972 2.694.107.992.214 1.985.322 2.979z" fill="#d6a57c"/><path d="m4.763 33.952c1.075.298 2.16.568 3.256.816-.15-1.005-.299-2.01-.448-3.016-1.116-.252-2.223-.531-3.317-.837.169 1.013.339 2.025.509 3.037z" fill="#c4926e"/><path d="m14.542 34.447c.107.992.215 1.984.322 2.979 2.242.28 4.516.457 6.813.53-.064-.986-.13-1.97-.194-2.955-2.34-.079-4.656-.265-6.941-.554z" fill="#c4926e"/><path d="m56.158 35.521c-2.182.49-4.401.877-6.654 1.159.107-.992.215-1.984.323-2.978 2.294-.293 4.558-.692 6.779-1.195-.149 1.006-.299 2.011-.448 3.014z" fill="#d6a57c"/><path d="m60.035 30.916c-1.137.558-2.281 1.089-3.429 1.591-.149 1.006-.3 2.011-.448 3.014 1.127-.495 2.25-1.018 3.367-1.568.17-1.013.34-2.025.51-3.037z" fill="#c4926e"/><path d="m42.563 38.694c-2.286.071-4.596.038-6.921-.101.022-.98.044-1.963.065-2.943 2.368.137 4.721.166 7.05.089-.065.986-.13 1.97-.194 2.955z" fill="#d6a57c"/><path d="m28.598 36.387c.021.979.043 1.961.064 2.942 2.313-.141 4.644-.384 6.979-.735.022-.98.044-1.963.065-2.943-2.378.353-4.75.597-7.108.736z" fill="#c4926e"/><path d="m42.757 35.739c-.064.985-.13 1.97-.194 2.955 2.318-.564 4.636-1.234 6.941-2.015.107-.992.215-1.984.323-2.978-2.348.79-4.708 1.469-7.07 2.038z" fill="#c4926e"/><path d="m28.826 46.687c-2.217-.346-4.439-.794-6.662-1.343-.064-.985-.13-1.971-.194-2.955 2.265.556 4.531 1.008 6.791 1.354.021.982.043 1.961.065 2.944z" fill="#d6a57c"/><path d="m15.671 44.871c-2.189-.753-4.369-1.608-6.532-2.568-.149-1.005-.299-2.009-.448-3.013 2.204.975 4.426 1.839 6.658 2.604.108.993.215 1.984.322 2.977z" fill="#d6a57c"/><path d="m6.039 41.543c1.023.278 2.057.531 3.101.76-.15-1.005-.3-2.009-.449-3.013-1.064-.237-2.119-.498-3.162-.784.17 1.013.34 2.025.51 3.037z" fill="#c4926e"/><path d="m15.349 41.895c.107.992.215 1.983.322 2.977 2.136.257 4.303.413 6.492.473-.064-.985-.13-1.971-.194-2.955-2.232-.066-4.442-.23-6.62-.495z" fill="#c4926e"/><path d="m55.037 43.057c-2.077.454-4.193.812-6.34 1.07.108-.994.216-1.986.323-2.979 2.188-.268 4.347-.638 6.465-1.104-.149 1.004-.298 2.009-.448 3.013z" fill="#d6a57c"/><path d="m58.76 38.506c-1.086.541-2.178 1.052-3.274 1.538-.149 1.004-.299 2.009-.448 3.013 1.076-.479 2.147-.982 3.213-1.514.169-1.012.339-2.024.509-3.037z" fill="#c4926e"/><path d="m42.076 46.08c-2.179.058-4.38.015-6.597-.13.021-.98.043-1.962.065-2.942 2.26.142 4.504.182 6.726.119-.064.985-.128 1.969-.194 2.953z" fill="#d6a57c"/><path d="m28.76 43.743c.021.981.044 1.961.065 2.943 2.205-.146 4.426-.39 6.654-.736.021-.98.043-1.962.065-2.942-2.271.347-4.535.594-6.784.735z" fill="#c4926e"/><path d="m42.271 43.127c-.064.985-.129 1.969-.194 2.953 2.211-.547 4.422-1.198 6.621-1.953.108-.994.216-1.986.323-2.979-2.244.766-4.496 1.424-6.75 1.979z" fill="#c4926e"/><path d="m28.988 54.045c-2.108-.343-4.224-.778-6.338-1.314-.064-.985-.13-1.97-.194-2.956 2.157.541 4.315.983 6.468 1.326.021.981.042 1.962.064 2.944z" fill="#d6a57c"/><path d="m16.478 52.317c-2.084-.728-4.159-1.554-6.218-2.479-.149-1.005-.299-2.009-.448-3.014 2.101.939 4.217 1.777 6.344 2.515.107.993.215 1.986.322 2.978z" fill="#d6a57c"/><path d="m7.313 49.134c.973.258 1.955.493 2.947.704-.149-1.005-.299-2.009-.448-3.014-1.013-.219-2.016-.461-3.009-.728.17 1.012.34 2.026.51 3.038z" fill="#c4926e"/><path d="m16.156 49.339c.107.993.215 1.986.322 2.979 2.03.232 4.09.369 6.172.413-.064-.985-.13-1.97-.194-2.956-2.125-.05-4.228-.195-6.3-.436z" fill="#c4926e"/><path d="m53.916 50.591c-1.974.421-3.984.749-6.025.982.108-.993.216-1.984.323-2.979 2.083-.244 4.136-.583 6.15-1.017-.149 1.006-.299 2.011-.448 3.014z" fill="#d6a57c"/><path d="m57.485 46.097c-1.035.519-2.076 1.014-3.121 1.481-.149 1.005-.299 2.01-.448 3.013 1.024-.461 2.045-.947 3.06-1.457.17-1.012.338-2.026.509-3.037z" fill="#c4926e"/><path d="m41.59 53.469c-2.071.041-4.164-.012-6.273-.161.022-.98.044-1.962.065-2.942 2.151.146 4.288.195 6.402.148-.064.985-.129 1.969-.194 2.955z" fill="#d6a57c"/><path d="m28.923 51.101c.021.981.043 1.963.064 2.944 2.098-.15 4.21-.396 6.329-.737.022-.98.044-1.962.065-2.942-2.161.343-4.317.588-6.458.735z" fill="#c4926e"/><path d="m41.784 50.514c-.064.985-.129 1.97-.194 2.955 2.104-.534 4.207-1.166 6.301-1.896.108-.993.216-1.984.323-2.979-2.137.74-4.282 1.381-6.43 1.92z" fill="#c4926e"/><path d="m29.15 61.401c-1.999-.336-4.007-.763-6.014-1.284-.064-.984-.13-1.97-.194-2.955 2.05.525 4.101.958 6.144 1.297.021.98.042 1.962.064 2.942z" fill="#d6a57c"/><path d="m17.285 59.765c-1.978-.704-3.948-1.5-5.903-2.391-.149-1.006-.299-2.01-.448-3.014 1.996.904 4.009 1.712 6.029 2.425.107.993.214 1.986.322 2.98z" fill="#d6a57c"/><path d="m8.588 56.724c.921.239 1.853.455 2.793.65-.149-1.006-.299-2.01-.448-3.014-.961-.202-1.913-.427-2.854-.672.17 1.012.339 2.025.509 3.036z" fill="#c4926e"/><path d="m16.962 56.785c.107.993.215 1.986.322 2.979 1.924.206 3.877.324 5.852.353-.064-.984-.13-1.97-.194-2.955-2.018-.033-4.014-.16-5.98-.377z" fill="#c4926e"/><path d="m52.795 58.128c-1.869.385-3.775.683-5.71.892.107-.992.215-1.986.322-2.979 1.978-.219 3.925-.528 5.837-.929-.149 1.005-.299 2.01-.449 3.016z" fill="#d6a57c"/><path d="m56.21 53.688c-.984.499-1.974.975-2.966 1.424-.149 1.005-.299 2.01-.449 3.016.973-.444 1.941-.912 2.905-1.404.17-1.011.34-2.024.51-3.036z" fill="#c4926e"/><path d="m41.104 60.855c-1.964.027-3.949-.037-5.949-.19.021-.98.044-1.962.065-2.942 2.043.15 4.071.211 6.079.179-.066.983-.13 1.969-.195 2.953z" fill="#d6a57c"/><path d="m29.085 58.459c.021.98.043 1.962.064 2.942 1.989-.153 3.994-.399 6.004-.736.021-.98.044-1.962.065-2.942-2.053.339-4.1.584-6.133.736z" fill="#c4926e"/><path d="m41.299 57.901c-.065.983-.13 1.97-.195 2.954 1.996-.52 3.992-1.13 5.981-1.836.107-.992.215-1.986.322-2.979-2.03.716-4.07 1.336-6.108 1.861z" fill="#c4926e"/><path d="m55.545 57.651c-14.983 5.798-31.818 5.798-46.801 0-.085-.507-.17-1.012-.255-1.519 15.146 5.861 32.165 5.861 47.311 0-.085.508-.17 1.013-.255 1.519z" fill="#e8b387"/><path d="m32.145 13.156c-15.237-.168-33.52 2.468-29.609 10.63 2.013 4.202-1.197 3.528 1.895 5.236 18.567 10.258 57.063 3.935 57.061-2.746 0-2.551.04-2.861.483-5.28.63-3.445-10.305-7.763-29.83-7.84z" fill="url(#a)"/><ellipse cx="32.144" cy="20.545" fill="url(#b)" rx="27.037" ry="6.57"/><path d="m46.836 14.16c-.317-.047-.146 1.563 0 1.997.367.151 2.23.558 2.465.455-.016-.47.436-1.782.957-1.864 0 0-1.906-.676-3.422-.588z" fill="#8c6143"/><path d="m15.754 25.764s-.303 1.382.239 3.26c.367.15 3.214.659 3.448.556-.016-.469.673-3.005 1.194-3.088.001-.001-2.485-.638-4.881-.728z" fill="#8c6143"/><path d="m3.8 21.045s-.789.798-.32 2.599c.25.431 1.325 1.204 1.56 1.102.067-1.027 1.136-1.984 1.646-1.984-.001-.001-1.21-1.129-2.886-1.717z" fill="#8c6143"/><path d="m59.274 17.72c-.317-.048-.974 1.213-1.13 2.475.184.578.634 1.19.868 1.088.506-.817 1.866-1.925 2.545-1.783.001-.001-.838-1.409-2.283-1.78z" fill="#8c6143"/><path d="m57.817 19.181c.294-9.563-8.564-11.238-8.368-4.552.021.713-2.376 1.266-2.351-.172.196-10.816 14.684-7.23 13.558 4.724-.093.989-2.863.828-2.839 0z" fill="#b47d56"/><path d="m57.408 18.685c1.61-.819 1.728 3.051.967 1.728-.483-.842-1.378-1.52-.967-1.728z" fill="#c4926e"/><path d="m60.845 18.87c-2.707-.817-3.025 3-1.747 1.675.812-.842 2.437-1.467 1.747-1.675z" fill="#d6a57c"/><path d="m46.907 14.355c1.233-.63 1.45 2.538.867 1.523-.371-.644-1.181-1.363-.867-1.523z" fill="#c4926e"/><path d="m49.541 14.496c-2.074-.625-2.438 2.539-1.458 1.524.623-.644 1.987-1.363 1.458-1.524z" fill="#d6a57c"/><path d="m16.538 26.784c.361-11.673-10.845-14.386-10.326-4.621.037.714-2.769.99-2.731-.446.337-13.194 17.959-8.476 15.893 5.207-.149.982-2.861.689-2.836-.14z" fill="#b47d56"/><path d="m15.516 25.56c2.301-1.023 2.371 4.733 1.417 2.841-.607-1.202-2.005-2.579-1.417-2.841z" fill="#c4926e"/><path d="m20.277 26.055c-3.697-1.322-4.679 4.384-2.799 2.631 1.195-1.112 3.742-2.293 2.799-2.631z" fill="#d6a57c"/><path d="m3.09 21.321c1.763-.785 1.816 3.627 1.086 2.178-.464-.921-1.536-1.978-1.086-2.178z" fill="#c4926e"/><path d="m6.739 21.701c-2.833-1.015-3.586 3.359-2.145 2.018.917-.855 2.868-1.759 2.145-2.018z" fill="#d6a57c"/><path d="m19.384 33.056s.795.768 1.448.135c1.569-1.521-.784-4.404-3.415-4.404-6.593 0-4.833 6.158-1.98 3.126-.608.998-1.126 1.822-1.136 1.838l.467.638c.073-.115 1.603-2.551 2.503-4.142 1.167 3.318 3.331 5.909 3.429 6.026l.399-.733c-.014-.018-.831-.998-1.715-2.484zm1.034-.748c-.598.727-1.831-1.497-2.293-2.42.753 0 2.944 1.629 2.293 2.42zm-6.668-.593c-.426-.628 1.661-1.794 2.678-1.794-.423.417-2.359 2.264-2.678 1.794z" fill="#cfd8dd"/><path d="m5.803 26.885s.465.538.847.095c.919-1.064-.46-3.081-1.997-3.081-3.858 0-2.829 4.309-1.159 2.187-.356.698-.66 1.275-.664 1.286l.272.447c.042-.082.938-1.785 1.465-2.9.683 2.322 1.948 4.136 2.006 4.217l.233-.511c-.009-.014-.486-.7-1.003-1.74zm.606-.523c-.35.509-1.073-1.047-1.343-1.694.441 0 1.722 1.14 1.343 1.694zm-3.903-.416c-.25-.437.972-1.255 1.567-1.255-.247.292-1.38 1.585-1.567 1.255z" fill="#cfd8dd"/></svg>