<svg enable-background="new 0 0 64 64" height="64" viewBox="0 0 64 64" width="64" xmlns="http://www.w3.org/2000/svg" xmlns:xlink="http://www.w3.org/1999/xlink"><linearGradient id="a" gradientUnits="userSpaceOnUse" x1="23.1724" x2="62.001" y1="55.2402" y2="55.2402"><stop offset="0" stop-color="#84c41f"/><stop offset="1" stop-color="#3c8a00"/></linearGradient><linearGradient id="b" gradientUnits="userSpaceOnUse" x1="38.959" x2="60.0508" y1="48.4648" y2="48.4648"><stop offset=".3455" stop-color="#3c8a00"/><stop offset="1" stop-color="#84c41f"/></linearGradient><path d="m58.925 51.268c-4.327-2.707-12.226-3.939-15.545-1.402-1.86 1.422-1.88 2.713-1.567 3.545.973 2.605 6.847 3.082 11.037 2.461v-2.277c-4.465.748-8.77-.188-9.143-.971.001-.004.078-.328.836-.908 2.542-1.943 9.689-.795 13.374 1.512 1.321.826 2.084 1.744 2.04 2.453-.022.354-.356 1.615-3.73 3.102-3.717 1.639-7.878.898-12.695.039-5.675-1.01-12.106-2.158-19.621.234-.542.172-.854.797-.698 1.393.156.6.729.941 1.264.77 7.075-2.254 13.266-1.148 18.729-.176 2.73.486 5.376.957 7.916.957 2.024 0 3.981-.299 5.861-1.127 3.25-1.432 4.889-3.08 5.011-5.039.071-1.16-.402-2.896-3.069-4.566z" fill="url(#a)"/><path d="m59.642 48.799c-1.059-1.949-3.872-2.641-7.436-3.516-3.499-.859-7.755-1.922-10.581-4.455v2.779c3.05 2.125 6.899 3.076 10.139 3.871 2.713.668 5.518 1.355 6.126 2.475.094.174.185.439.051.965-.341 1.35-2.869 2.492-6.287 2.842-.469.047-.92.074-1.359.092v2.25c4.177-.145 8.809-1.41 9.614-4.576.255-1.012.165-1.93-.267-2.727z" fill="url(#b)"/><path d="m48.823 31.989c0 30.431-45.685 30.431-45.685 0 0-30.436 45.685-30.436 45.685 0z" fill="#48851a"/><path d="m37.872 51.064c-6.153-5.326-9.404-11.41-9.662-18.088-.271-6.945 2.891-14.45 8.454-20.072 1.464-1.478-.574-3.492-2.038-2.015-6.111 6.176-9.579 14.474-9.28 22.195.291 7.502 3.873 14.283 10.65 20.146 1.391 1.204 3.462-.792 1.876-2.166z" fill="#529320"/><path d="m31.973 52.773c-6.072-5.219-9.385-11.584-9.847-18.924-.608-9.653 3.87-18.349 7.889-22.863 1.364-1.526-.776-3.377-2.143-1.851-4.382 4.921-9.264 14.398-8.603 24.917.512 8.113 4.149 15.127 10.813 20.855 1.676 1.443 3.761-.528 1.891-2.134z" fill="#529320"/><path d="m24.295 53.375c-15.901-13.088-8.344-33.392-2.124-42.297 1.149-1.647-1.2-3.29-2.353-1.642-8.298 11.514-13.428 32.914 2.654 46.146 1.404 1.16 3.433-.881 1.823-2.207z" fill="#529320"/><path d="m28.727 53.449c-15.901-13.09-8.065-34.216-1.846-43.124 1.148-1.647-1.202-3.29-2.353-1.642-8.3 11.514-13.705 33.738 2.377 46.972 1.405 1.159 3.433-.88 1.822-2.206z" fill="#6ea31a"/><path d="m35.427 52.521c-15.902-13.09-8.74-32.081-2.521-40.987 1.151-1.648-1.197-3.288-2.352-1.64-8.3 11.513-13.032 31.599 3.05 44.835 1.405 1.158 3.435-.881 1.823-2.208z" fill="#6ea31a"/><path d="m5.662 40.479c8.27-1.164 14.415-4.459 18.271-9.797 3.979-5.509 5.302-13.229 3.543-20.655-.495-2.084 2.366-2.695 2.86-.61 1.937 8.167.448 16.707-3.986 22.844-4.336 6-11.149 9.694-20.263 10.971-1.513.207-2.667-2.437-.425-2.753z" fill="#7ab51d"/><path d="m9.358 46.1c8.216-1.215 14.656-4.861 19.133-10.838 5.843-7.796 6.763-17.423 5.779-23.298-.365-2.165 2.521-2.623 2.887-.462 1.077 6.421.074 16.93-6.297 25.434-4.956 6.613-12.036 10.682-21.064 11.973-1.859.265-2.199-2.552-.438-2.809z" fill="#7ab51d"/><path d="m15.101 50.492c21.32-2.547 25.888-23.849 25.328-34.758-.116-2.248 2.865-2.394 2.982-.146.964 18.727-8.797 35.477-27.946 37.786-2.028.243-2.659-2.606-.364-2.882z" fill="#7ab51d"/><path d="m11.663 48.352c21.319-2.545 26.729-24.183 26.167-35.095-.115-2.249 2.868-2.394 2.982-.146.965 18.726-9.636 35.813-28.784 38.124-2.029.244-2.659-2.608-.365-2.883z" fill="#6ea31a"/><path d="m6.596 43.246c21.318-2.549 26.113-19.954 24.624-32.92-.115-2.249 2.867-2.392 2.982-.146 1.202 19.702-8.092 33.638-27.241 35.945-2.029.246-2.659-2.605-.365-2.879z" fill="#6ea31a"/><path d="m26.356 29.713c-7.482.248-14.564-2.349-21.105-7.75-1.494-1.232.41-3.342 1.908-2.109 17.878 14.761 34.7 2.383 37.891-.248 1.413-1.17 3.312.938 1.895 2.104-2.251 1.856-8.392 6.313-16.817 7.641-1.269.203-2.526.322-3.772.362z" fill="#92c932"/><path d="m25.752 35.66c-7.05 0-14.83-1.709-22.463-6.289-1.762-1.056-.259-3.425 1.506-2.369 9.655 5.791 18.971 6.255 25.086 5.63 7.845-.806 13.958-3.687 17.059-6.118 1.688-1.32 3.488.849 1.798 2.17-4.569 3.579-13.052 6.976-22.986 6.976z" fill="#92c932"/><path d="m3.309 36.736c-1.786-1.033-.32-3.426 1.467-2.391 15.902 9.203 30.636 4.334 43.199-.955 1.681-.704 2.818 1.848 1.138 2.557-16.837 7.93-33.319 8.578-45.804.789z" fill="#92c932"/><g fill="#7ab51d"><path d="m2.812 32.698c-1.787-1.035-.321-3.428 1.467-2.392 15.903 9.204 31.195 4.969 43.756-.32 1.68-.703 2.82 1.849 1.139 2.558-16.839 7.927-33.879 7.94-46.362.154z"/><path d="m3.669 25.478c-1.788-1.031-.322-3.428 1.466-2.392 13.664 9.191 28.185 7.795 41.789-.322 1.566-.933 2.819 1.849 1.138 2.558-16.611 10.479-31.908 7.948-44.393.156z"/><path d="m47.042 40.971c-2.179-.338-9.787-1.887-16.269-7.686-6.411-5.738-9.607-13.558-9.504-23.233.023-2.155 2.889-2.13 2.865.034-.258 23.798 20.94 27.759 23.357 28.132 2.186.339 1.034 2.981-.449 2.753z"/><path d="m44.174 45.811c-4.684-.721-11.859-3.473-17.943-9.025-4.972-4.537-10.881-12.581-10.793-25.131.016-2.156 2.88-2.143 2.866.022-.156 22.279 19.442 30.326 26.321 31.386 2.183.335 1.033 2.976-.451 2.748z"/><path d="m40.835 50.857c-13.867-2.97-30.376-13.986-31.277-35.237-.092-2.16 2.771-2.273 2.865-.115.834 19.673 16.16 29.875 29.031 32.632 2.147.461.868 3.039-.619 2.72z"/></g><path d="m43.308 48.326c-13.866-2.971-30.377-13.984-31.276-35.24-.092-2.158 2.771-2.272 2.864-.113.832 19.674 16.159 29.875 29.031 32.634 2.147.461.868 3.038-.619 2.719z" fill="#92c932"/><path d="m46.646 43.557c-13.867-2.973-27.966-11.761-28.867-33.018-.092-2.159 2.771-2.272 2.863-.113.834 19.674 13.751 27.651 26.622 30.415 2.147.46.87 3.036-.618 2.716z" fill="#92c932"/></svg>