<svg enable-background="new 0 0 64 64" height="64" viewBox="0 0 64 64" width="64" xmlns="http://www.w3.org/2000/svg" xmlns:xlink="http://www.w3.org/1999/xlink"><linearGradient id="a" gradientUnits="userSpaceOnUse" x1="20.0464" x2="59" y1="55.2402" y2="55.2402"><stop offset=".2848" stop-color="#de000d"/><stop offset=".463" stop-color="#d8000c"/><stop offset=".6976" stop-color="#c80008"/><stop offset=".9629" stop-color="#ac0001"/><stop offset="1" stop-color="#a80000"/></linearGradient><linearGradient id="b" gradientUnits="userSpaceOnUse" x1="31.4009" x2="56.8971" y1="48.4512" y2="48.4512"><stop offset=".2182" stop-color="#a80000"/><stop offset=".2588" stop-color="#ac0001"/><stop offset=".5487" stop-color="#c80008"/><stop offset=".8053" stop-color="#d8000c"/><stop offset="1" stop-color="#de000d"/></linearGradient><linearGradient id="c"><stop offset="0" stop-color="#bd8359"/><stop offset=".3188" stop-color="#b77d53"/><stop offset=".7612" stop-color="#a56b41"/><stop offset="1" stop-color="#995f34"/></linearGradient><linearGradient id="d" gradientUnits="userSpaceOnUse" x1="5" x2="38.5176" xlink:href="#c" y1="51.6592" y2="51.6592"/><linearGradient id="e"><stop offset="0" stop-color="#cc946c"/><stop offset=".2587" stop-color="#c78f66"/><stop offset=".6183" stop-color="#bb7f54"/><stop offset="1" stop-color="#a86939"/></linearGradient><linearGradient id="f" gradientUnits="userSpaceOnUse" x1="5" x2="38.5176" xlink:href="#e" y1="47.9492" y2="47.9492"/><linearGradient id="g" gradientUnits="userSpaceOnUse" x1="8.5293" x2="34.9893" y1="28.3237" y2="28.3237"><stop offset="0" stop-color="#ff000e"/><stop offset=".2096" stop-color="#f9000c"/><stop offset=".4857" stop-color="#e90007"/><stop offset=".7818" stop-color="#cf0000"/></linearGradient><linearGradient id="h"><stop offset="0" stop-color="#de000d"/><stop offset=".2313" stop-color="#d8000b"/><stop offset=".5354" stop-color="#c80006"/><stop offset=".7818" stop-color="#b50000"/></linearGradient><linearGradient id="i" gradientUnits="userSpaceOnUse" x1="8.5293" x2="34.9893" xlink:href="#h" y1="28.3496" y2="28.3496"/><linearGradient id="j"><stop offset="0" stop-color="#de000d"/><stop offset=".1947" stop-color="#d8000c"/><stop offset=".4513" stop-color="#c80008"/><stop offset=".7412" stop-color="#ac0001"/><stop offset=".7818" stop-color="#a80000"/></linearGradient><linearGradient id="k" gradientUnits="userSpaceOnUse" x1="8.5293" x2="34.9893" xlink:href="#j" y1="35.5059" y2="35.5059"/><linearGradient id="l" gradientUnits="userSpaceOnUse" x1="8.5293" x2="34.9893" xlink:href="#h" y1="20.0186" y2="20.0186"/><linearGradient id="m" gradientUnits="userSpaceOnUse" x1="8.5293" x2="34.9893" xlink:href="#j" y1="23.7407" y2="23.7407"/><linearGradient id="n" gradientUnits="userSpaceOnUse" x1="8.5293" x2="34.9893" xlink:href="#j" y1="15.3564" y2="15.3564"/><linearGradient id="o" gradientUnits="userSpaceOnUse" x1="8.5293" x2="34.9893" xlink:href="#h" y1="30.7402" y2="30.7402"/><linearGradient id="p" gradientUnits="userSpaceOnUse" x1="8.5293" x2="34.9893" xlink:href="#h" y1="36.709" y2="36.709"/><linearGradient id="q" gradientUnits="userSpaceOnUse" x1="8.5293" x2="34.9893" xlink:href="#j" y1="41.1484" y2="41.1484"/><linearGradient id="r" gradientUnits="userSpaceOnUse" x1="5" x2="38.5176" xlink:href="#c" y1="10.3711" y2="10.3711"/><linearGradient id="s" gradientUnits="userSpaceOnUse" x1="5" x2="38.5176" xlink:href="#e" y1="9.084" y2="9.084"/><path d="m55.923 51.268c-4.326-2.708-12.225-3.94-15.545-1.403-1.859 1.422-1.879 2.713-1.566 3.545.87 2.331 4.982 3.003 8.984 2.664l.679-1.295c-4.073.435-8.385-.187-8.385-1.934 0-4.234 9.819-3.754 14.886-.802 3.653 2.129 3.909 5.234-1.299 7.529-3.717 1.638-8.33 1.106-13.146.247-5.676-1.01-12.105-2.157-19.621.234-1.478.472-.905 1.633.566 1.163 7.074-2.255 13.266-1.149 18.729-.176 2.73.488 5.376.96 7.915.96 2.025 0 3.982-.3 5.861-1.128 3.25-1.432 4.889-3.08 5.012-5.039.07-1.16-.402-2.896-3.07-4.565z" fill="url(#a)"/><path d="m56.64 48.798c-.884-1.933-3.871-2.641-7.436-3.516-3.498-.859-11.754-1.922-14.58-4.454v1.779c3.049 2.124 10.898 3.076 14.139 3.871 4.891 1.202 6.542 1.649 6.9 3.11.6 2.442-3.594 4.82-7.012 5.17-.228.023-.635.066-.855.082v1.232c6.673-.493 10.103-4.519 8.844-7.274z" fill="url(#b)"/><path d="m5 47.318v4.213c0 5.934 33.54 5.965 33.518.055v-4.268z" fill="url(#d)"/><path d="m7.161 44.479s-2.161 1.313-2.161 2.84c0 5.469 33.518 5.469 33.518 0 0-1.321-2.165-2.84-2.165-2.84z" fill="url(#f)"/><path d="m36.655 44.996c.01 3.098-29.793 3.098-29.793 0 0-3.123 29.788-3.098 29.793 0z" fill="#a16437"/><path d="m8.529 10.224v33.822c.016 3.146 26.474 3.183 26.46.035v-33.857z" fill="url(#g)"/><path d="m8.529 25.245v2.401c.016 5.046 26.478 5.092 26.46.045v-2.402c.016 4.205-26.448 4.16-26.46-.044z" fill="url(#i)"/><path d="m8.529 32.401v2.401c.016 5.047 26.478 5.092 26.46.045v-2.402c.016 4.206-26.448 4.16-26.46-.044z" fill="url(#k)"/><path d="m8.529 16.382v2.813c.016 5.911 26.478 5.965 26.46.054v-2.815c.016 4.927-26.448 4.873-26.46-.052z" fill="url(#l)"/><path d="m8.529 19.977v2.643c.016 4.129 26.478 7.006 26.46 2.88v-2.347c.016 3.441-26.448.263-26.46-3.176z" fill="url(#m)"/><path d="m8.529 11.593v2.643c.016 4.128 26.478 7.006 26.46 2.878v-2.344c.016 3.439-26.448.262-26.46-3.177z" fill="url(#n)"/><path d="m8.529 26.14v3.229c.016 5.046 26.478 8.563 26.46 3.518v-2.865c.016 4.205-26.448.321-26.46-3.882z" fill="url(#o)"/><path d="m8.529 32.108v3.229c.016 5.046 26.478 8.564 26.46 3.519v-2.864c.016 4.204-26.448.321-26.46-3.884z" fill="url(#p)"/><path d="m8.529 36.547v3.23c.016 5.046 26.478 8.563 26.46 3.518v-2.865c.016 4.204-26.448.321-26.46-3.883z" fill="url(#q)"/><path d="m38.518 8.813c0-5.467-33.518-5.467-33.518 0 0 1.302 2.322 4.695 2.322 4.695s2.842 2.522 14.465 2.522c11.529 0 14.402-2.516 14.402-2.516s2.329-3.179 2.329-4.701z" fill="url(#r)"/><path d="m5 5.464v3.029c.021 5.581 33.54 5.631 33.518.05v-3.029z" fill="url(#s)"/><path d="m38.518 5.514c.018 4.651-33.502 4.601-33.518-.05-.019-4.652 33.502-4.602 33.518.05z" fill="#a16437"/><path d="m27.344 5.207c.008 1.55-11.168 1.533-11.171-.018-.006-1.548 11.166-1.533 11.171.018z" fill="#1a1626"/></svg>