<svg enable-background="new 0 0 64 64" height="64" viewBox="0 0 64 64" width="64" xmlns="http://www.w3.org/2000/svg" xmlns:xlink="http://www.w3.org/1999/xlink"><radialGradient id="a" cx="32" cy="36.5107" gradientTransform="matrix(1 0 0 2.5145 0 -55.5359)" gradientUnits="userSpaceOnUse" r="19.5606"><stop offset="0" stop-color="#e5eaee"/><stop offset=".2785" stop-color="#e1e7eb"/><stop offset=".567" stop-color="#d4dde1"/><stop offset=".8591" stop-color="#c0ccd0"/><stop offset="1" stop-color="#b3c2c6"/></radialGradient><linearGradient id="b"><stop offset="0" stop-color="#f49d01"/><stop offset="1" stop-color="#e98700"/></linearGradient><linearGradient id="c" gradientUnits="userSpaceOnUse" x1="29.9014" x2="34.0986" xlink:href="#b" y1="5.542" y2="5.542"/><linearGradient id="d" gradientUnits="userSpaceOnUse" x1="30.9087" x2="30.9087" y1="4.4902" y2="2"><stop offset="0" stop-color="#e98700"/><stop offset="1" stop-color="#f49d01"/></linearGradient><linearGradient id="e" gradientUnits="userSpaceOnUse" x1="27.8057" x2="36.1943" y1="9.1763" y2="9.1763"><stop offset="0" stop-color="#eb9701"/><stop offset=".7152" stop-color="#d97e00"/></linearGradient><radialGradient id="f" cx="31.999" cy="42.0781" gradientTransform="matrix(1 0 0 10 0 -378.7031)" gradientUnits="userSpaceOnUse" r="13.9573"><stop offset="0" stop-color="#fff"/><stop offset=".2767" stop-color="#fafbfc"/><stop offset=".5848" stop-color="#edf0f2"/><stop offset=".9071" stop-color="#d7dee3"/><stop offset="1" stop-color="#cfd8dd"/></radialGradient><linearGradient id="g" gradientUnits="userSpaceOnUse" x1="28" x2="33.8936" xlink:href="#b" y1="51.6758" y2="51.6758"/><linearGradient id="h" gradientUnits="userSpaceOnUse" x1="29.6953" x2="34" xlink:href="#b" y1="48.1445" y2="48.1445"/><linearGradient id="i" gradientUnits="userSpaceOnUse" x1="28.4902" x2="33.8936" xlink:href="#b" y1="44.3047" y2="44.3047"/><linearGradient id="j" gradientUnits="userSpaceOnUse" x1="28.1641" x2="33.8936" xlink:href="#b" y1="41.9131" y2="41.9131"/><linearGradient id="k" gradientUnits="userSpaceOnUse" x1="29.6953" x2="34" xlink:href="#b" y1="38.3809" y2="38.3809"/><linearGradient id="l" gradientUnits="userSpaceOnUse" x1="29.6953" x2="33.8936" xlink:href="#b" y1="33.5815" y2="33.5815"/><linearGradient id="m" gradientUnits="userSpaceOnUse" x1="38.4043" x2="38.4043" xlink:href="#b" y1="56.7578" y2="27.686"/><linearGradient id="n" gradientUnits="userSpaceOnUse" x1="27.8057" x2="36.1943" xlink:href="#b" y1="11.5293" y2="11.5293"/><path d="m20.625 58.491c.09 1.976 2.398 3.509 11.375 3.509s11.285-1.533 11.375-3.509c0 0 0 2.012-11.375 2.012s-11.375-2.012-11.375-2.012z" fill="#b3c2c6"/><path d="m32 11.71c-1.857 2.917-13 2.339-13 17.933 0 5.991.736 21.189 1.078 27.908.094 1.846 2.514 3.279 11.922 3.279s11.828-1.433 11.923-3.279c.341-6.719 1.077-21.917 1.077-27.908 0-15.594-11.144-15.016-13-17.933z" fill="url(#a)"/><path d="m28 12.351v1.995s0 .4 4 .4 4-.4 4-.4v-1.995z" fill="#b3c2c6"/><path d="m29.901 2.549h4.197v5.986h-4.197z" fill="url(#c)"/><path d="m37.509 2v1.66c-4.949 0-9.898-.17-12.787.83l-.414-.83s3.302-1.66 5.775-1.66c4.951 1.106 7.426 0 7.426 0z" fill="url(#d)"/><path d="m34.099 7.937h-4.197l-2.096 1.198c.609 1.708 7.779 1.708 8.389 0z" fill="url(#e)"/><path d="m19.104 27.202c-.357 4.224.609 23.075.89 28.702 7.973 1.4 16.038 1.4 24.011 0 .275-5.503 1.244-24.529.891-28.702-13.101 1.634-25.792 0-25.792 0z" fill="#e5eaee"/><path d="m19.104 27.202c-.357 4.224.609 23.075.89 28.702 7.973 1.4 16.038 1.4 24.011 0 .275-5.503 1.244-24.529.891-28.702-13.101 1.634-25.792 0-25.792 0z" fill="url(#f)"/><path d="m33.71 52.117h-5.526c-.117 0-.184-.066-.184-.184v-.516c0-.119.066-.185.184-.185h5.526c.119 0 .184.065.184.185v.516c0 .118-.065.184-.184.184z" fill="url(#g)"/><path d="m31.848 50.306c-1.216 0-2.152-.962-2.152-2.161s.937-2.161 2.152-2.161 2.152.961 2.152 2.161-.937 2.161-2.152 2.161zm0-3.439c-.745 0-1.294.557-1.294 1.277s.549 1.277 1.294 1.277c.744 0 1.293-.557 1.293-1.277s-.549-1.277-1.293-1.277z" fill="url(#h)"/><path d="m29.984 43.107h.484c.117 0 .184.064.184.184v.568h3.058c.119 0 .184.066.184.184v.517c0 .119-.064.185-.184.185h-3.058v.572c0 .119-.066.186-.184.186h-.484c-.117 0-.184-.066-.184-.186v-.572h-1.126c-.118 0-.185-.065-.185-.185v-.517c0-.117.066-.184.185-.184h1.126v-.568c.001-.119.067-.184.184-.184z" fill="url(#i)"/><path d="m28.962 42.355h-.614c-.119 0-.184-.065-.184-.185v-.516c0-.118.064-.185.184-.185h.614c.118 0 .185.066.185.185v.516c-.001.12-.067.185-.185.185zm4.748 0h-3.726c-.117 0-.184-.065-.184-.185v-.516c0-.118.066-.185.184-.185h3.726c.119 0 .184.066.184.185v.516c0 .12-.065.185-.184.185z" fill="url(#j)"/><path d="m31.848 40.542c-1.216 0-2.152-.962-2.152-2.16 0-1.2.937-2.161 2.152-2.161s2.152.961 2.152 2.161c0 1.198-.937 2.16-2.152 2.16zm0-3.437c-.745 0-1.294.555-1.294 1.276 0 .72.549 1.276 1.294 1.276.744 0 1.293-.557 1.293-1.276 0-.721-.549-1.276-1.293-1.276z" fill="url(#k)"/><path d="m31.258 31.883h2.452c.119 0 .184.066.184.186v.514c0 .119-.064.186-.184.186h-2.398c-.528 0-.79.318-.79.749 0 .462.273.88 1.023.88h2.165c.119 0 .184.066.184.184v.516c0 .119-.064.185-.184.185h-3.726c-.117 0-.184-.065-.184-.185v-.518c0-.117.066-.184.184-.184h.28c-.399-.262-.569-.662-.569-1.163 0-.76.58-1.35 1.563-1.35z" fill="url(#l)"/><path d="m37 56.758c.937-.067 1.872-.156 2.808-.263v-28.81c-.949.063-1.886.113-2.808.15z" fill="url(#m)"/><path d="m27.806 9.135h8.389v4.789h-8.389z" fill="url(#n)"/></svg>