<svg enable-background="new 0 0 64 64" height="64" viewBox="0 0 64 64" width="64" xmlns="http://www.w3.org/2000/svg" xmlns:xlink="http://www.w3.org/1999/xlink"><linearGradient id="a"><stop offset="0" stop-color="#c90100"/><stop offset="1" stop-color="#ff3b3b"/></linearGradient><linearGradient id="b" gradientUnits="userSpaceOnUse" x1="27.8691" x2="5.2002" xlink:href="#a" y1="52.707" y2="52.707"/><linearGradient id="c" gradientUnits="userSpaceOnUse" x1="27.8691" x2="5.2002" xlink:href="#a" y1="23.271" y2="23.271"/><linearGradient id="d"><stop offset="0" stop-color="#c90100"/><stop offset=".1791" stop-color="#d91212"/><stop offset=".4756" stop-color="#ee2928"/><stop offset=".7557" stop-color="#fb3636"/><stop offset="1" stop-color="#ff3b3b"/></linearGradient><linearGradient id="e" gradientUnits="userSpaceOnUse" x1="62.751" x2="16.4109" xlink:href="#d" y1="52.8076" y2="52.8076"/><linearGradient id="f" gradientUnits="userSpaceOnUse" x1="62.7471" x2="16.4142" xlink:href="#d" y1="23.437" y2="23.437"/><path d="m16.285 47.414h-7.056c-1.133 0-1.765.631-1.765 1.764v7.059c0 1.131.632 1.763 1.765 1.763h7.056c1.133 0 1.765-.632 1.765-1.764v-7.059c-.001-1.132-.633-1.763-1.765-1.763z" fill="url(#b)"/><path d="m16.75 6h-7.985c-1.134 0-1.765.63-1.765 1.764v13.093l1.765 18.145c.111 1.059.78 1.541 1.783 1.541h4.419c1.001 0 1.671-.482 1.783-1.541l1.765-18.145v-13.093c0-1.134-.633-1.764-1.765-1.764z" fill="url(#c)"/><path d="m43.207 47.614h-6.924c-1.111 0-1.73.62-1.73 1.731v6.923c0 1.112.619 1.731 1.73 1.731h6.924c1.111 0 1.732-.619 1.732-1.731v-6.923c0-1.111-.621-1.731-1.732-1.731z" fill="url(#e)"/><path d="m40.693 6c-8.964 0-16.945 4.701-17.783 14.631-.073 1.184.601 1.804 1.712 1.804h6.578c1.039 0 1.604-.565 1.84-1.622.656-3.37 3.48-5.047 7.324-5.047 4.191 0 6.613 1.913 6.613 5.302 0 6.706-10.658 9.767-12.061 18.002-.236 1.13.492 1.804 1.604 1.804h6.686c1.039 0 1.494-.51 1.842-1.494 1.766-5.612 11.952-9.11 11.952-19.077 0-9.347-8.09-14.303-16.307-14.303z" fill="url(#f)"/></svg>