<svg enable-background="new 0 0 64 64" height="64" viewBox="0 0 64 64" width="64" xmlns="http://www.w3.org/2000/svg" xmlns:xlink="http://www.w3.org/1999/xlink"><linearGradient id="a" gradientUnits="userSpaceOnUse" x1="31.9995" x2="31.9995" y1="2" y2="62.0005"><stop offset="0" stop-color="#00abf1"/><stop offset=".2292" stop-color="#00a7ef"/><stop offset=".4667" stop-color="#009ae9"/><stop offset=".708" stop-color="#0086e0"/><stop offset=".9504" stop-color="#0069d3"/><stop offset="1" stop-color="#0062d0"/></linearGradient><path d="m62 54c0 4.4-3.6 8-8 8h-44c-4.399 0-8-3.6-8-8v-44c0-4.4 3.601-8 8-8h44c4.4 0 8 3.6 8 8z" fill="url(#a)"/><path d="m28.143 19.915v-4.629c0-.823.463-1.286 1.286-1.286h5.143c.823 0 1.286.462 1.286 1.286v4.629c0 .822-.463 1.286-1.286 1.286h-5.143c-.824 0-1.286-.464-1.286-1.286zm0 28.8v-23.143c0-.822.463-1.285 1.286-1.285h5.143c.823 0 1.286.463 1.286 1.285v23.143c0 .822-.463 1.285-1.286 1.285h-5.143c-.824 0-1.286-.463-1.286-1.285z" fill="#fff"/></svg>