<svg enable-background="new 0 0 64 64" height="64" viewBox="0 0 64 64" width="64" xmlns="http://www.w3.org/2000/svg" xmlns:xlink="http://www.w3.org/1999/xlink"><radialGradient id="a" cx="32" cy="7" gradientUnits="userSpaceOnUse" r="2.5495"><stop offset="0" stop-color="#e6ebed"/><stop offset="1" stop-color="#cfd8dd"/></radialGradient><linearGradient id="b"><stop offset="0" stop-color="#cfd8dd"/><stop offset=".1801" stop-color="#cad3d8"/><stop offset=".4047" stop-color="#bac3c8"/><stop offset=".653" stop-color="#a1aaaf"/><stop offset=".9165" stop-color="#7e888d"/><stop offset="1" stop-color="#717b80"/></linearGradient><linearGradient id="c" gradientUnits="userSpaceOnUse" x1="12.8022" x2="18.0001" xlink:href="#b" y1="52.9697" y2="55.9707"/><linearGradient id="d" gradientUnits="userSpaceOnUse" x1="46" x2="51.1957" xlink:href="#b" y1="55.9717" y2="52.9719"/><radialGradient id="e" cx="32" cy="36" gradientUnits="userSpaceOnUse" r="26"><stop offset=".5152" stop-color="#ff000e"/><stop offset=".6578" stop-color="#fb000d"/><stop offset=".795" stop-color="#f0000a"/><stop offset=".9295" stop-color="#dc0004"/><stop offset="1" stop-color="#cf0000"/></radialGradient><radialGradient id="f" cx="32" cy="36" gradientUnits="userSpaceOnUse" r="20"><stop offset="0" stop-color="#fff"/><stop offset=".3958" stop-color="#fbfbfc"/><stop offset=".8234" stop-color="#eef1f4"/><stop offset="1" stop-color="#e6ebef"/></radialGradient><linearGradient id="g"><stop offset="0" stop-color="#e6ebed"/><stop offset=".4159" stop-color="#e2e8ea"/><stop offset=".8399" stop-color="#d6dee2"/><stop offset="1" stop-color="#cfd8dd"/></linearGradient><radialGradient id="h" cx="49.75" cy="9.375" gradientUnits="userSpaceOnUse" r="10" xlink:href="#g"/><radialGradient id="i" cx="6.75" cy="8.5" gradientUnits="userSpaceOnUse" r="11.4068" xlink:href="#g"/><path d="m30 7h4v6h-4z" fill="#6e8189"/><path d="m35 9h-6v-2.828c0-1.563 6-1.563 6 0z" fill="url(#a)"/><path d="m56.6 4.633-16.61 16.621 2.77 2.77 16.609-16.622c1.844-1.847-.922-4.617-2.769-2.769z" fill="#99a8ae"/><path d="m4.631 7.4 16.621 16.61 2.77-2.768-16.621-16.609c-1.848-1.846-4.617.922-2.77 2.767z" fill="#99a8ae"/><path d="m9.803 58.166 7-12.123 5.197 3-7 12.123c-1.333 2.311-6.531-.689-5.197-3z" fill="url(#c)"/><path d="m49 61.168-7-12.125 5.195-3 7 12.125c1.334 2.311-3.861 5.311-5.195 3z" fill="url(#d)"/><circle cx="32" cy="36" fill="url(#e)" r="26"/><circle cx="32" cy="36" fill="#302c3b" r="22"/><circle cx="32" cy="36" fill="#99a8ae" r="21"/><circle cx="32" cy="36" fill="url(#f)" r="20"/><g fill="#302c3b"><path d="m22.42 50.289c.324-.563 1.033-.758 1.584-.438.551.318.736 1.027.414 1.59-.326.559-1.033.754-1.586.436-.548-.316-.736-1.029-.412-1.588z"/><ellipse cx="40.58" cy="21.136" rx="1.153" ry="1.167" transform="matrix(-.8657 -.5006 .5006 -.8657 65.1287 59.747)"/><ellipse cx="17.135" cy="44.582" rx="1.152" ry="1.173" transform="matrix(-.5 -.866 .866 -.5 -12.9077 81.7115)"/><path d="m46.285 26.422c.563-.324 1.273-.139 1.59.41.32.553.125 1.262-.434 1.586-.563.324-1.271.137-1.592-.414-.318-.551-.122-1.26.436-1.582z"/><ellipse cx="14.836" cy="36" rx="1.17" ry="1.152"/><ellipse cx="49.164" cy="36" rx="1.17" ry="1.152"/><ellipse cx="17.135" cy="27.42" rx="1.152" ry="1.172" transform="matrix(.5 -.866 .866 .5 -15.1787 28.5508)"/><path d="m47.441 43.584c.559.322.752 1.033.434 1.582-.316.553-1.027.738-1.59.414-.559-.324-.754-1.031-.436-1.584.317-.551 1.03-.736 1.592-.412z"/><ellipse cx="23.419" cy="21.136" rx="1.154" ry="1.171" transform="matrix(.8659 -.5002 .5002 .8659 -7.4321 14.5498)"/><path d="m41.578 50.289c.326.559.139 1.271-.412 1.588-.551.318-1.26.123-1.584-.436-.322-.563-.137-1.271.414-1.59.551-.32 1.26-.124 1.582.438z"/><ellipse cx="31.999" cy="18.836" rx="1.153" ry="1.172"/><ellipse cx="31.999" cy="53.164" rx="1.153" ry="1.17"/></g><path d="m47.473 28.799-1.5-2.6-13.974 8.071-10.506-6.069-1.5 2.596 9.007 5.201 6 .002z" fill="#1a1626"/><circle cx="32" cy="36" fill="#1a1626" r="4"/><circle cx="32" cy="36" fill="#6e8189" r="3"/><path d="m42.113 5.555c-1.621 1.623 14.709 17.955 16.332 16.332 10.821-10.821-5.511-27.153-16.332-16.332z" fill="url(#h)"/><path d="m21.887 5.555c-10.82-10.82-27.154 5.51-16.332 16.332 1.623 1.621 17.953-14.711 16.332-16.332z" fill="url(#i)"/></svg>