<svg enable-background="new 0 0 64 64" height="64" viewBox="0 0 64 64" width="64" xmlns="http://www.w3.org/2000/svg" xmlns:xlink="http://www.w3.org/1999/xlink"><linearGradient id="a"><stop offset="0" stop-color="#5b666e"/><stop offset=".2305" stop-color="#515862"/><stop offset="1" stop-color="#302c3b"/></linearGradient><linearGradient id="b" gradientUnits="userSpaceOnUse" x1="12" x2="52" xlink:href="#a" y1="58.6992" y2="58.6992"/><linearGradient id="c"><stop offset="0" stop-color="#5b666e"/><stop offset=".4087" stop-color="#444753"/><stop offset=".7603" stop-color="#353341"/><stop offset="1" stop-color="#302c3b"/></linearGradient><linearGradient id="d" gradientUnits="userSpaceOnUse" x1="15.5" x2="48.5" xlink:href="#c" y1="54.2773" y2="54.2773"/><linearGradient id="e" gradientUnits="userSpaceOnUse" x1="20.2876" x2="43.7119" y1="36.5" y2="36.5"><stop offset="0" stop-color="#fae0a5"/><stop offset="1" stop-color="#c79e3e"/></linearGradient><radialGradient id="f" cx="32.2241" cy="21.2144" gradientTransform="matrix(1 0 0 .5203 0 10.1773)" gradientUnits="userSpaceOnUse" r="4.0765"><stop offset="0" stop-color="#9c7321"/><stop offset=".138" stop-color="#a27926"/><stop offset="1" stop-color="#c49a45"/></radialGradient><linearGradient id="g"><stop offset="0" stop-color="#fff" stop-opacity="0"/><stop offset=".1142" stop-color="#fff" stop-opacity=".1142"/><stop offset="1" stop-color="#fff"/></linearGradient><linearGradient id="h" gradientTransform="matrix(.866 .5 .5 -.866 -100.8837 -1009.045)" gradientUnits="userSpaceOnUse" x1="635.9355" x2="635.9355" xlink:href="#g" y1="-838.0581" y2="-861.8732"/><linearGradient id="i" gradientTransform="matrix(.866 -.5 .5 .866 -104.0653 209.7911)" gradientUnits="userSpaceOnUse" x1="207.8086" x2="207.8086" xlink:href="#g" y1="-90.1787" y2="-113.9937"/><linearGradient id="j" gradientUnits="userSpaceOnUse" x1="15.334" x2="48.668" xlink:href="#c" y1="11.25" y2="11.25"/><linearGradient id="k" gradientUnits="userSpaceOnUse" x1="12" x2="52" xlink:href="#a" y1="8.3003" y2="8.3003"/><path d="m52 55.399v3.601c0 1.656-8.953 3-20 3-11.045 0-20-1.344-20-3v-3.601z" fill="url(#b)"/><ellipse cx="32" cy="55.399" fill="#302c3b" rx="20" ry="3"/><path d="m48.5 51.555v2.97c0 1.367-7.387 2.475-16.5 2.475s-16.5-1.108-16.5-2.476v-2.97h33z" fill="url(#d)"/><ellipse cx="32" cy="51.555" fill="#302c3b" rx="16.5" ry="2.476"/><path d="m27.445 32.28c1.506-.483 2.418-.667 2.418-1.469s-.912-.988-2.418-1.469c-8.136-2.331-10.445-8.29-10.445-18.342h30c0 10.052-2.307 16.009-10.443 18.341-1.506.482-2.418.669-2.418 1.471s.912.985 2.418 1.469c8.136 2.333 10.443 8.289 10.443 18.341 0 1.313-6.717 2.378-15 2.378-8.285 0-15-1.065-15-2.378 0-10.052 2.309-16.01 10.445-18.342z" fill="#c5d7e8"/><path d="m28.355 32.28c1.205-.483 1.936-.667 1.936-1.469s-.73-.988-1.936-1.469c-6.509-2.331-8.355-8.29-8.355-18.342h24c0 10.052-1.844 16.009-8.354 18.341-1.205.482-1.936.669-1.936 1.471s.73.985 1.934 1.469c6.512 2.333 8.356 8.289 8.356 18.341 0 1.313-5.373 2.378-12 2.378s-12-1.065-12-2.378c0-10.052 1.846-16.01 8.355-18.342z" fill="#e6ebef"/><path d="m35.646 29.341c4.25-1.521 6.502-4.6 7.561-9.342h-22.413c1.059 4.742 3.313 7.821 7.561 9.344 1.205.48 1.699.681 1.936 1.24 1.43 3.36 1.436 9.29.77 11.884-1.182 4.604-9.488 5.674-10.77 8.679-.089.208 2.415 1.854 11.708 1.854 9.289 0 11.801-1.646 11.711-1.854-1.279-3.007-9.586-4.075-10.768-8.679-.666-2.594-.66-8.522.768-11.884.238-.56.73-.76 1.936-1.242z" fill="url(#e)"/><path d="m20.794 19.999c.161 1.994 19.82 4.289 22.412 0 1.127-1.865-22.738-4.024-22.412 0z" fill="#c49a45"/><path d="m27.591 19.86c.064 1.125 8.011 2.42 9.059 0 .455-1.052-9.192-2.271-9.059 0z" fill="url(#f)"/><path d="m18.198 51.555s-.597-14.877 8.237-17.834c1.247-.418 4.032-.35 3.196 1.488-3.321 7.303-1.683 17.652-1.683 17.652s-5.346 0-9.75-1.306z" fill="url(#h)" opacity=".7"/><path d="m18.198 10.918s-.597 14.876 8.237 17.834c1.247.417 4.032.349 3.196-1.488-3.321-7.303-1.683-17.653-1.683-17.653s-5.346 0-9.75 1.307z" fill="url(#i)" opacity=".7"/><path d="m48.668 8.5v3.001c0 1.38-7.463 2.499-16.668 2.499-9.203 0-16.666-1.119-16.666-2.499v-3.001z" fill="url(#j)"/><path d="m52 5v3.601c0 1.656-8.953 3-20 3-11.045 0-20-1.344-20-3v-3.601z" fill="url(#k)"/><ellipse cx="32" cy="5" fill="#302c3b" rx="20" ry="3"/></svg>