<svg enable-background="new 0 0 64 64" height="64" viewBox="0 0 64 64" width="64" xmlns="http://www.w3.org/2000/svg" xmlns:xlink="http://www.w3.org/1999/xlink"><linearGradient id="a" gradientUnits="userSpaceOnUse" x1="32.0005" x2="32.0005" y1="50.0957" y2="13.9048"><stop offset="0" stop-color="#d9f5ff"/><stop offset="1" stop-color="#fff"/></linearGradient><linearGradient id="b" gradientUnits="userSpaceOnUse" x1="32.0005" x2="32.0005" y1="52" y2="12.0005"><stop offset="0" stop-color="#8fbacc"/><stop offset=".2558" stop-color="#9cc6d8"/><stop offset=".6633" stop-color="#abd4e6"/><stop offset="1" stop-color="#b0d9eb"/></linearGradient><path d="m13.994 50.096c-1.065 0-2.122-.16-3.138-.484-4.099-1.29-6.855-4.924-6.855-9.039 0-2.746 1.252-5.36 3.427-7.172.565-.471 1.174-.874 1.829-1.209l-.033-.004.665-2.203c1.653-5.5 6.998-9.34 12.997-9.34.599 0 1.213.046 1.933.144.55.076 1.094.181 1.626.32l.263-.457c2.422-4.161 7.025-6.747 12.009-6.747 7.568 0 13.725 5.868 13.725 13.08 0 .355-.023.697-.056 1.043l-.018.255c.581.211 1.148.472 1.7.774 3.657 2.008 5.932 5.752 5.932 9.762 0 5.283-3.772 9.802-9.174 10.981-.883.195-1.778.295-2.654.295h-34.178z" fill="url(#a)"/><path d="m38.716 15.809c6.475 0 11.724 5.004 11.724 11.176 0 .303-.023.595-.049.887-2.707.2-5.171 1.229-7.107 2.83 1.44-.789 3.105-1.246 4.887-1.246.658 0 1.302.063 1.927.179 1.061.202 2.06.571 2.969 1.073 2.948 1.616 4.933 4.639 4.933 8.111 0 4.448-3.257 8.171-7.621 9.126-.711.156-1.447.248-2.207.248h-.002-34.176c-.874 0-1.718-.141-2.505-.392-3.187-.999-5.485-3.856-5.485-7.229 0-2.294 1.061-4.344 2.74-5.738.763-.633 1.646-1.127 2.62-1.454.823-.271 1.708-.429 2.63-.429 2.578 0 4.863 1.166 6.326 2.973h.075c-1.698-2.978-4.871-5.079-8.587-5.415 1.383-4.593 5.814-7.96 11.077-7.96.563 0 1.108.051 1.647.125 1.071.148 2.088.427 3.042.83 3.546 1.508 6.136 4.669 6.713 8.454 0-.021.003-.044.003-.064 0-4.312-2.321-8.106-5.837-10.319 2.006-3.435 5.844-5.766 10.263-5.766m0-3.809c-5.392 0-10.396 2.641-13.275 6.951-.109-.019-.221-.033-.333-.049-.824-.111-1.527-.162-2.222-.162-6.885 0-13.021 4.406-14.92 10.72l-.455 1.503c-.489.299-.958.636-1.4 1.005-2.61 2.171-4.111 5.306-4.111 8.604 0 4.94 3.31 9.299 8.234 10.848 1.21.385 2.478.58 3.76.58h34.176c1.029 0 2.076-.113 3.111-.344 6.311-1.382 10.719-6.658 10.719-12.837 0-4.692-2.656-9.067-6.934-11.416-.206-.111-.416-.221-.627-.323 0-.032 0-.06 0-.096 0-8.261-7.055-14.984-15.723-14.984z" fill="url(#b)"/></svg>