<svg enable-background="new 0 0 64 64" height="64" viewBox="0 0 64 64" width="64" xmlns="http://www.w3.org/2000/svg" xmlns:xlink="http://www.w3.org/1999/xlink"><linearGradient id="a"><stop offset="0" stop-color="#5b666e"/><stop offset=".2305" stop-color="#515862"/><stop offset="1" stop-color="#302c3b"/></linearGradient><linearGradient id="b" gradientUnits="userSpaceOnUse" x1="31.5" x2="32.5" xlink:href="#a" y1="7.7119" y2="7.7119"/><linearGradient id="c" gradientUnits="userSpaceOnUse" x1="31.3496" x2="32.6504" xlink:href="#a" y1="35.7813" y2="35.7813"/><linearGradient id="d" gradientUnits="userSpaceOnUse" x1="23.98702" x2="33.14398" y1="53.49912" y2="53.49912"><stop offset="0" stop-color="#d414cf"/><stop offset=".1177" stop-color="#c013bb"/><stop offset=".2873" stop-color="#aa11a6"/><stop offset=".4743" stop-color="#9b1097"/><stop offset=".69" stop-color="#920f8e"/><stop offset="1" stop-color="#8f0f8b"/></linearGradient><linearGradient id="e" gradientUnits="userSpaceOnUse" x1="32.0005" x2="32.0005" y1="-20.6699" y2="24.0837"><stop offset=".2303" stop-color="#d414cf"/><stop offset=".4405" stop-color="#d114cc"/><stop offset=".6147" stop-color="#c613c2"/><stop offset=".776" stop-color="#b512b1"/><stop offset=".9286" stop-color="#9d1099"/><stop offset="1" stop-color="#8f0f8b"/></linearGradient><linearGradient id="f"><stop offset="0" stop-color="#ab11a7"/><stop offset="1" stop-color="#d414cf"/></linearGradient><linearGradient id="g" gradientUnits="userSpaceOnUse" x1="17.248" x2="17.248" xlink:href="#f" y1="40.8613" y2="13.1644"/><linearGradient id="h" gradientUnits="userSpaceOnUse" x1="46.752" x2="46.752" xlink:href="#f" y1="38.374" y2="11.7525"/><linearGradient id="i" gradientUnits="userSpaceOnUse" x1="31.1152" x2="32.8848" y1="9.3271" y2="9.3271"><stop offset=".1818" stop-color="#cfdde6"/><stop offset=".3898" stop-color="#c7d5de"/><stop offset=".719" stop-color="#b1bfc7"/><stop offset="1" stop-color="#99a8ae"/></linearGradient><path d="m31.5 6.244v3.68h1v-3.68c0-.992-1-.992-1 0z" fill="url(#b)"/><path d="m31.35 21.063h1.301v29.437h-1.301z" fill="url(#c)"/><path d="m30.855 48.5v5.428c0 1.262-1.028 2.286-2.29 2.286-1.263 0-2.289-1.024-2.289-2.286 0-.63-.513-1.142-1.145-1.142-.634 0-1.145.512-1.145 1.142 0 2.522 2.053 4.572 4.578 4.572 2.524 0 4.579-2.05 4.579-4.572v-5.428z" fill="url(#d)"/><g fill="#302c3b"><path d="m17.125 33.201c.016-.154.397-.053.338.09-.567 1.323-.484 1.346-.338-.09z"/><path d="m16.841 34.097c.076-.296.515-.18.438.117-.077.298-.514.181-.438-.117z"/><path d="m2.704 31.168c.082-.131.379.132.263.232-1.082.933-1.017.99-.263-.232z"/><path d="m2.06 31.844c.198-.231.54.07.343.302-.199.232-.542-.069-.343-.302z"/><path d="m46.875 33.201c-.016-.154-.397-.053-.337.09.566 1.323.483 1.346.337-.09z"/><path d="m47.159 34.097c-.076-.296-.515-.18-.438.117.077.298.514.181.438-.117z"/><path d="m61.296 31.168c-.081-.131-.379.132-.263.232 1.082.933 1.017.99.263-.232z"/><path d="m61.94 31.844c-.198-.231-.54.07-.343.302.199.232.542-.069.343-.302z"/></g><path d="m17.248 33.5s15.735-5.743 29.504 0c0 0 .371-18.1-14.752-24-13.769 6.037-14.752 19.909-14.752 24z" fill="url(#e)"/><path d="m2.496 31.5s5.073-1.819 14.752 2c4.928-18.1 5.911-18.1 14.752-24-18.562 4.236-18.562 4.236-29.504 22z" fill="url(#g)"/><path d="m32 9.5c8.841 5.9 9.824 5.9 14.752 24 9.679-3.82 14.752-2 14.752-2-10.941-17.764-10.941-17.764-29.504-22z" fill="url(#h)"/><path d="m31.5 9.012-.385.706h1.77l-.385-.706c0-.101-1-.101-1 0z" fill="url(#i)"/></svg>