<svg enable-background="new 0 0 64 64" height="64" viewBox="0 0 64 64" width="64" xmlns="http://www.w3.org/2000/svg" xmlns:xlink="http://www.w3.org/1999/xlink"><linearGradient id="a"><stop offset="0" stop-color="#4ad6ff"/><stop offset=".6117" stop-color="#1eb2de"/><stop offset="1" stop-color="#009ac7"/></linearGradient><linearGradient id="b" gradientUnits="userSpaceOnUse" x1="10.2886" x2="25.3461" xlink:href="#a" y1="53.8716" y2="8.2004"/><linearGradient id="c" gradientUnits="userSpaceOnUse" x1="10.7564" x2="55.3427" xlink:href="#a" y1="53.4976" y2="37.4426"/><linearGradient id="d"><stop offset="0" stop-color="#94e7ff"/><stop offset=".3211" stop-color="#68d5f6"/><stop offset="1" stop-color="#00ace0"/></linearGradient><linearGradient id="e" gradientUnits="userSpaceOnUse" x1="10.1939" x2="39.143" xlink:href="#d" y1="53.9087" y2="7.8227"/><linearGradient id="f" gradientUnits="userSpaceOnUse" x1="10.3653" x2="55.2014" xlink:href="#d" y1="53.6382" y2="23.3598"/><linearGradient id="g" gradientTransform="matrix(.7071 .7071 -.7071 .7071 124.1807 167.9354)" gradientUnits="userSpaceOnUse" x1="-161.3022" x2="-161.3022" y1="8.1807" y2="-73.3652"><stop offset="0" stop-color="#adf1ff"/><stop offset=".3979" stop-color="#63deff"/><stop offset=".8084" stop-color="#1ccbff"/><stop offset="1" stop-color="#00c4ff"/></linearGradient><linearGradient id="h" gradientTransform="matrix(.7071 .7071 -.7071 .7071 124.665 169.1073)" gradientUnits="userSpaceOnUse" x1="-173.5381" x2="-151.4051" y1="-6.0283" y2="-28.1613"><stop offset="0" stop-color="#adf1ff" stop-opacity="0"/><stop offset="1" stop-color="#adf1ff"/></linearGradient><radialGradient id="i" cx="-161.3311" cy="-.2256" gradientTransform="matrix(.7058 .7059 -.7058 .7059 123.7002 168.0544)" gradientUnits="userSpaceOnUse" r="7.5005"><stop offset=".5212" stop-color="#e8ffff"/><stop offset=".9636" stop-color="#e8ffff" stop-opacity="0"/></radialGradient><path d="m25.563 8.296-20.54 40.001 10.682 10.682z" fill="url(#b)"/><path d="m55.705 38.441-50.682 9.856 10.682 10.682z" fill="url(#c)"/><path d="m39.808 8.297-34.785 40 10.682 10.682z" fill="url(#e)"/><path d="m55.705 24.195-40 34.784-10.682-10.682z" fill="url(#f)"/><path d="m15.644 59.648c.405-.406 46.356-57.648 46.356-57.648s-57.248 45.954-57.66 46.366c-3.119 3.119-3.119 8.176-.002 11.295 3.12 3.119 8.176 3.118 11.295 0z" fill="url(#g)"/><path d="m37.518 26.485-31.301 23.006 8.295 8.294z" fill="url(#h)"/><g fill="#c2f8ff"><path d="m15.001 32.508c0 2.659-3.987 2.66-3.988 0 .001-2.658 3.988-2.659 3.988 0z"/><path d="m20.265 24.197c0 1.328-1.994 1.326-1.993-.001-.001-1.33 1.993-1.33 1.993.001z"/><path d="m22.281 29.881c-.001 1.327-1.994 1.326-1.994 0 0-1.331 1.994-1.331 1.994 0z"/><path d="m35.967 8.297c0 1.329-1.993 1.329-1.993 0 0-1.33 1.993-1.33 1.993 0z"/><path d="m47.189 3.623c0 1.329-1.996 1.329-1.996-.001 0-1.327 1.996-1.327 1.996.001z"/><path d="m44.387 10.976c0 1.327-1.994 1.328-1.994 0 .001-1.329 1.994-1.329 1.994 0z"/><path d="m48.186 24.82c0 1.327-1.993 1.327-1.993 0-.002-1.329 1.993-1.329 1.993 0z"/><path d="m55.33 29.882c0 1.325-1.994 1.325-1.994-.001 0-1.331 1.995-1.331 1.994.001z"/><path d="m36.964 38.441c-.001 1.33-1.995 1.329-1.994.001 0-1.329 1.994-1.328 1.994-.001z"/><path d="m33.063 47.236c.001 1.33-1.994 1.33-1.994 0s1.994-1.329 1.994 0z"/><path d="m42.393 43.182c0 1.329-1.994 1.329-1.994-.001-.001-1.327 1.994-1.327 1.994.001z"/><path d="m33.488 24.196c.001 2.658-3.988 2.657-3.988 0 0-2.659 3.988-2.659 3.988 0z"/><path d="m32.068 12.895c0 2.656-3.99 2.657-3.99-.001.001-2.66 3.989-2.659 3.99.001z"/><path d="m54.335 20.068c-.001 2.66-3.99 2.66-3.99.001 0-2.658 3.99-2.66 3.99-.001z"/><path d="m48.186 36.845c0 2.66-3.988 2.659-3.988-.001-.001-2.658 3.988-2.658 3.988.001z"/></g><circle cx="9.987" cy="54.014" fill="url(#i)" r="7.487"/></svg>