<svg enable-background="new 0 0 64 64" height="64" viewBox="0 0 64 64" width="64" xmlns="http://www.w3.org/2000/svg" xmlns:xlink="http://www.w3.org/1999/xlink"><linearGradient id="a" gradientUnits="userSpaceOnUse" x1="2" x2="51.0801" y1="46.6602" y2="46.6602"><stop offset="0" stop-color="#e6ebef"/><stop offset=".2857" stop-color="#e2e8ec"/><stop offset=".5605" stop-color="#d7dfe3"/><stop offset=".83" stop-color="#c3cfd3"/><stop offset="1" stop-color="#b3c2c6"/></linearGradient><linearGradient id="b" gradientUnits="userSpaceOnUse" x1="4.54" x2="48.54" y1="27.3105" y2="27.3105"><stop offset="0" stop-color="#b3c2c6"/><stop offset=".2515" stop-color="#c0ccd0"/><stop offset=".6182" stop-color="#cbd5da"/><stop offset="1" stop-color="#cfd8dd"/></linearGradient><radialGradient id="c" cx="26.7065" cy="42.3408" gradientTransform="matrix(1 0 0 .4605 0 16.3047)" gradientUnits="userSpaceOnUse" r="23.3658"><stop offset="0" stop-color="#733b23"/><stop offset=".2676" stop-color="#6e3821"/><stop offset=".5658" stop-color="#61311c"/><stop offset=".8775" stop-color="#4b2414"/><stop offset="1" stop-color="#401e10"/></radialGradient><linearGradient id="d"><stop offset="0" stop-color="#a9b0b3"/><stop offset=".3157" stop-color="#bdc4c7"/><stop offset=".9614" stop-color="#eff6fc"/><stop offset="1" stop-color="#f2f9ff"/></linearGradient><linearGradient id="e" gradientUnits="userSpaceOnUse" x1="25.4287" x2="25.4287" xlink:href="#d" y1="24.7461" y2="2"/><linearGradient id="f" gradientUnits="userSpaceOnUse" x1="17.9751" x2="17.9751" xlink:href="#d" y1="24.4463" y2="7.9033"/><linearGradient id="g" gradientUnits="userSpaceOnUse" x1="35.1016" x2="35.1016" xlink:href="#d" y1="24.4463" y2="7.9033"/><path d="m62 41.155s0-9.822-10-7.104c-.42.124-1.71-.063-1.71-.063l-1.11 5.573c.009.002 6.65-7.246 12.82 1.594" fill="#e6ebef"/><path d="m58.77 45.084c2.621-1.737.851-4.828.851-4.828 0 4.808-10.931 6.72-14.261 9.129-1.969 2.037-.581 4.974 13.41-4.301z" fill="#99a8ae"/><path d="m49.189 41.3 1.631-.394s.27-1.592 1.57-2.791c1.659-1.53 7.26-1.2 7.26 2.533 0 6.152-11.24 8.044-14.58 10.463-1.4 1.015-3 4.156-3 4.156s1.209.238 1.479 0c5.101-4.351 18.451-6.161 18.451-14.298 0-3.98-4.141-7.02-10-4.85-.41.156-2 0-2 0z" fill="#b3c2c6"/><path d="m51.08 31.321h-49.08s.641 12.087 7.189 21.868c2.42 3.62 8.191 8.811 17.351 8.811s14.931-5.191 17.351-8.811c6.548-9.769 7.189-21.868 7.189-21.868z" fill="url(#a)"/><path d="m26.54 20.61c13.554 0 24.54 4.731 24.54 10.566 0 5.837-8.32 11.601-24.54 11.601s-24.54-5.763-24.54-11.6c0-5.835 10.986-10.567 24.54-10.567z" fill="#e6ebef"/><path d="m26.54 25.314c10.61 0 19.46 3.392 21.54 7.662.3-.589.46-1.251.46-1.924 0-5.2-9.851-9.408-22-9.408s-22 4.208-22 9.408c0 .662.16 1.303.46 1.924 2.08-4.27 10.93-7.662 21.54-7.662z" fill="url(#b)"/><path d="m26.54 40.256c10.61 0 19.46-3.01 21.54-7.279-2.07-4.271-10.93-7.662-21.54-7.662s-19.46 3.391-21.54 7.662c2.08 4.269 10.93 7.279 21.54 7.279z" fill="url(#c)"/><path d="m26.386 24.746s2.58-4.146-2.961-9.863c-6.08-6.287 2.961-8.706 2.961-12.883 0 0 1.459 1.663-.58 5.604-2.901 5.573 9.189 6.461.58 17.142z" fill="url(#e)" opacity=".6"/><path d="m18.675 24.446s1.9-2.915-2.22-7.176c-4.479-4.632 2.22-6.327 2.22-9.367 0 0 1.09 1.21-.439 4.074-2.171 4.053 6.9 4.694.439 12.469z" fill="url(#f)" opacity=".6"/><path d="m34.405 7.903s-1.881 2.937 2.22 7.176c4.479 4.632-2.22 6.327-2.22 9.367 0 0-1.09-1.21.439-4.074 2.161-4.053-6.909-4.704-.439-12.469z" fill="url(#g)" opacity=".6"/></svg>