<svg enable-background="new 0 0 64 64" height="64" viewBox="0 0 64 64" width="64" xmlns="http://www.w3.org/2000/svg" xmlns:xlink="http://www.w3.org/1999/xlink"><linearGradient id="a"><stop offset="0" stop-color="#b3c2c6"/><stop offset=".2956" stop-color="#bac7cb"/><stop offset=".7169" stop-color="#ccd5d9"/><stop offset="1" stop-color="#dde2e6"/></linearGradient><radialGradient id="b" cx="33.041" cy="-68.2207" gradientTransform="matrix(.7093 -.7093 .7093 .7093 56.2668 103.5479)" gradientUnits="userSpaceOnUse" r="27.1712" xlink:href="#a"/><radialGradient id="c" cx="115.291" cy="69.0293" gradientTransform="matrix(.7093 .7093 -.7093 .7093 -.5332 -99.4285)" gradientUnits="userSpaceOnUse" r="27.1713" xlink:href="#a"/><linearGradient id="d"><stop offset="0" stop-color="#d8dde0"/><stop offset=".4644" stop-color="#d5dbde"/><stop offset=".7539" stop-color="#cdd4d7"/><stop offset=".9953" stop-color="#bec9cc"/><stop offset="1" stop-color="#bec9cc"/></linearGradient><linearGradient id="e" gradientTransform="matrix(.7071 -.7071 .7071 .7071 56.8935 103.3164)" gradientUnits="userSpaceOnUse" x1="62.5508" x2="62.5508" xlink:href="#d" y1="-59.8442" y2="-69.873"/><linearGradient id="f" gradientTransform="matrix(.7071 -.7071 .7071 .7071 56.8935 103.3164)" gradientUnits="userSpaceOnUse" x1="3.4897" x2="3.4897" xlink:href="#d" y1="-59.2539" y2="-69.5635"/><linearGradient id="g" gradientTransform="matrix(.7071 .7071 -.7071 .7071 .2705 -99.0265)" gradientUnits="userSpaceOnUse" x1="144.8125" x2="144.8125" xlink:href="#d" y1="78.3994" y2="68.3711"/><linearGradient id="h" gradientTransform="matrix(.7071 .7071 -.7071 .7071 .2705 -99.0265)" gradientUnits="userSpaceOnUse" x1="85.75" x2="85.75" xlink:href="#d" y1="78.9893" y2="68.6807"/><radialGradient id="i" cx="32" cy="31.7681" gradientUnits="userSpaceOnUse" r="18.5224"><stop offset=".3212" stop-color="#fff"/><stop offset=".5523" stop-color="#fcfdfd"/><stop offset=".7075" stop-color="#f3f5f6"/><stop offset=".8404" stop-color="#e4e8eb"/><stop offset=".9601" stop-color="#cfd7db"/><stop offset="1" stop-color="#c6cfd4"/></radialGradient><linearGradient id="j" gradientUnits="userSpaceOnUse" x1="14.7783" x2="19.9746" y1="31.0244" y2="31.0244"><stop offset=".1818" stop-color="#cfd8dd" stop-opacity="0"/><stop offset="1" stop-color="#cfd8dd"/></linearGradient><linearGradient id="k" gradientUnits="userSpaceOnUse" x1="44.0254" x2="49.2217" y1="31.0244" y2="31.0244"><stop offset="0" stop-color="#cfd8dd"/><stop offset=".8182" stop-color="#cfd8dd" stop-opacity="0"/></linearGradient><linearGradient id="l"><stop offset="0" stop-color="#4e5e67"/><stop offset=".3649" stop-color="#4c5b65"/><stop offset=".6013" stop-color="#47535d"/><stop offset=".8007" stop-color="#3e4450"/><stop offset=".9792" stop-color="#322f3e"/><stop offset="1" stop-color="#302c3b"/></linearGradient><radialGradient id="m" cx="31.9355" cy="45.4531" gradientTransform="matrix(1 0 0 1.3605 0 -16.3845)" gradientUnits="userSpaceOnUse" r="4.543" xlink:href="#l"/><radialGradient id="n" cx="24.7271" cy="37.0781" gradientTransform="matrix(1 0 0 .8884 0 4.1395)" gradientUnits="userSpaceOnUse" r="5.1282" xlink:href="#l"/><radialGradient id="o" cx="472.7764" cy="37.0781" gradientTransform="matrix(-1 0 0 .8884 512.0488 4.1395)" gradientUnits="userSpaceOnUse" r="5.1273" xlink:href="#l"/><g clip-rule="evenodd" fill-rule="evenodd"><path d="m55.271 7.326c-5.297-11.285-14.188-2.027-9.642 5.002.929 1.439-32.016 32.895-33.411 32.283-11.807-5.148-13.903 15.818-3.544 13.655 1.443 7.527 12.599 2.929 8.968-8.283-.384-1.18 31.12-32.071 32.619-31.513 9.238 3.446 18.371-12.324 5.01-11.144z" fill="url(#b)"/><path d="m56.675 55.271c11.285-5.298 2.026-14.188-5.002-9.642-1.439.929-32.894-32.016-32.283-33.411 5.148-11.807-15.817-13.902-13.655-3.544-7.527 1.443-2.929 12.598 8.283 8.967 1.18-.384 32.071 31.12 31.513 32.619-3.446 9.239 12.325 18.372 11.144 5.011z" fill="url(#c)"/><path d="m55.271 7.326c-4.188.37-7.777 10.111-5.011 11.144 9.239 3.446 18.372-12.324 5.011-11.144z" fill="url(#e)"/><path d="m8.674 58.266c1.443 7.527 12.6 2.929 8.968-8.283-1.243-3.842-10.413.745-8.968 8.283z" fill="url(#f)"/><path d="m56.676 55.271c-.37-4.188-10.11-7.777-11.145-5.011-3.446 9.239 12.325 18.372 11.145 5.011z" fill="url(#g)"/><path d="m5.735 8.674c-7.527 1.443-2.928 12.599 8.283 8.967 3.842-1.242-.745-10.412-8.283-8.967z" fill="url(#h)"/></g><path d="m32 12.108c-9.475 0-21.529 9.192-15.687 26.227-5.615 6.994 5.13 4.771 5.13 10.642 0 1.897 4.652 2.746 5.284.948 0 1.547 5.272 2.098 5.272.699 0 1.398 5.272.848 5.272-.699.632 1.798 5.284.949 5.284-.948 0-5.87 10.745-3.647 5.13-10.642 5.844-17.035-6.21-26.227-15.685-26.227z" fill="url(#i)"/><path d="m47.687 38.335c2.632 6.445-6.25 4.769-6.25 9.273 0 1.156-4.222 2.044-4.164-1.224.014 3.067-5.273 4.196-5.273.076 0 4.12-5.288 2.991-5.272-.075.058 3.268-4.164 2.38-4.164 1.224 0-4.504-8.882-2.829-6.25-9.273-5.615 6.994 4.93 6.572 4.93 10.665 0 3.656 4.445 3.059 5.475 1.312.641 2.306 5.281 2.369 5.281.311 0 2.058 4.64 1.995 5.28-.313 1.032 1.749 5.477 2.344 5.477-1.312 0-4.092 10.546-3.67 4.93-10.664z" fill="#c6cfd4"/><path d="m15.052 26.51c-.576 3.379-.28 7.33 1.262 11.825.105-5.545 2.447-6.566 3.422-9.991 1.417-4.997-3.897-6.46-4.684-1.834z" fill="url(#j)"/><path d="m48.948 26.51c.576 3.379.28 7.33-1.262 11.825-.105-5.545-2.447-6.566-3.422-9.991-1.417-4.997 3.897-6.46 4.684-1.834z" fill="url(#k)"/><path d="m32 37.6c-3.069 0-4.834 9.954 0 5.513 4.834 4.441 3.069-5.513 0-5.513z" fill="url(#m)"/><path d="m27.627 31.531c-1.747-1.317-7.988-.358-8.616 2.534-1.631 7.519 6.433 5.515 9.771 2.452.449-.413.857-3.468-1.155-4.986z" fill="url(#n)"/><path d="m36.373 31.531c1.747-1.317 7.988-.358 8.616 2.534 1.631 7.519-6.433 5.515-9.771 2.452-.449-.413-.857-3.468 1.155-4.986z" fill="url(#o)"/></svg>