<svg enable-background="new 0 0 64 64" height="64" viewBox="0 0 64 64" width="64" xmlns="http://www.w3.org/2000/svg" xmlns:xlink="http://www.w3.org/1999/xlink"><linearGradient id="a" gradientUnits="userSpaceOnUse" x1="16.9975" x2="47.0023" y1="6.0154" y2="57.9852"><stop offset=".0293" stop-color="#464253"/><stop offset=".6189" stop-color="#211d2d"/><stop offset="1" stop-color="#1a1626"/></linearGradient><linearGradient id="b" gradientUnits="userSpaceOnUse" x1="18.9979" x2="45.0022" y1="9.4796" y2="54.5204"><stop offset="0" stop-color="#ffe12c"/><stop offset=".5027" stop-color="#ffe12c"/><stop offset="1" stop-color="#f9c802"/></linearGradient><linearGradient id="c"><stop offset="0" stop-color="#464253"/><stop offset=".6189" stop-color="#211d2d"/><stop offset="1" stop-color="#1a1626"/></linearGradient><linearGradient id="d" gradientUnits="userSpaceOnUse" x1="25.8159" x2="34.5239" xlink:href="#c" y1="38.6899" y2="53.7726"/><linearGradient id="e" gradientUnits="userSpaceOnUse" x1="14.5095" x2="23.2236" xlink:href="#c" y1="19.1997" y2="34.293"/><linearGradient id="f" gradientUnits="userSpaceOnUse" x1="37.6399" x2="47.6174" xlink:href="#c" y1="17.4352" y2="34.7168"/><linearGradient id="g" gradientUnits="userSpaceOnUse" x1="30.4612" x2="33.5388" xlink:href="#c" y1="29.5213" y2="34.8518"/><circle cx="32" cy="32" fill="url(#a)" r="30"/><circle cx="32" cy="32" fill="url(#b)" r="26"/><g clip-rule="evenodd" fill-rule="evenodd"><path d="m34.612 36.595c-.767.454-1.657.72-2.612.72-.943 0-1.825-.259-2.584-.703-2.493 4.255-4.986 8.51-7.38 12.865 2.604 1.391 6.041 2.71 9.964 2.71s7.358-1.321 9.965-2.71c-2.363-4.383-4.919-8.572-7.353-12.882z" fill="url(#d)"/><path d="m29.436 27.75c-2.477-4.297-4.921-8.63-7.473-12.854-5.611 3.473-9.693 8.475-9.963 17.29h14.872c0-1.896 1.032-3.548 2.564-4.436z" fill="url(#e)"/><path d="m42.037 14.896c-2.537 4.235-5.008 8.538-7.451 12.866 1.519.89 2.542 2.536 2.542 4.424h14.872c-.269-8.815-4.351-13.817-9.963-17.29z" fill="url(#f)"/><circle cx="32" cy="32.187" fill="url(#g)" r="3.077"/></g></svg>