<svg enable-background="new 0 0 64 64" height="64" viewBox="0 0 64 64" width="64" xmlns="http://www.w3.org/2000/svg" xmlns:xlink="http://www.w3.org/1999/xlink"><linearGradient id="a"><stop offset=".0293" stop-color="#464253"/><stop offset=".6189" stop-color="#211d2d"/><stop offset="1" stop-color="#1a1626"/></linearGradient><linearGradient id="b" gradientUnits="userSpaceOnUse" x1="16.9975" x2="47.0023" xlink:href="#a" y1="6.0154" y2="57.9852"/><linearGradient id="c" gradientUnits="userSpaceOnUse" x1="18.9979" x2="45.0022" y1="9.4796" y2="54.5204"><stop offset="0" stop-color="#ffe12c"/><stop offset=".5027" stop-color="#ffe12c"/><stop offset="1" stop-color="#f9c802"/></linearGradient><linearGradient id="d" gradientUnits="userSpaceOnUse" x1="30.3951" x2="34.093" xlink:href="#a" y1="21.3618" y2="27.7668"/><linearGradient id="e" gradientUnits="userSpaceOnUse" x1="37.8316" x2="41.4737" xlink:href="#a" y1="34.2893" y2="40.5975"/><linearGradient id="f" gradientUnits="userSpaceOnUse" x1="21.1518" x2="27.4548" xlink:href="#a" y1="32.3046" y2="43.2217"/><linearGradient id="g" gradientUnits="userSpaceOnUse" x1="16.1417" x2="25.8939" xlink:href="#a" y1="19.2025" y2="36.0938"/><linearGradient id="h" gradientUnits="userSpaceOnUse" x1="31.645" x2="48.0022" xlink:href="#a" y1="14.5576" y2="42.8891"/><linearGradient id="i" gradientUnits="userSpaceOnUse" x1="26.4151" x2="36.1878" xlink:href="#a" y1="37.1301" y2="54.057"/><circle cx="32" cy="32" fill="url(#b)" r="30"/><circle cx="32" cy="32" fill="url(#c)" r="26"/><path d="m36.287 26.5c.835-.628 1.532-1.433 2.037-2.362-1.792-1.259-3.973-1.997-6.324-1.997-2.352 0-4.533.738-6.326 1.997.506.93 1.203 1.734 2.038 2.362 1.238-.796 2.709-1.259 4.288-1.259 1.578 0 3.049.463 4.287 1.259z" fill="url(#d)"/><path d="m43.023 32.406c-1.059-.006-2.104.218-3.059.651.002.066.005.129.005.194 0 3.045-1.69 5.692-4.179 7.048.1 1.048.426 2.07.957 2.988 3.729-1.785 6.307-5.608 6.307-10.036.001-.284-.01-.565-.031-.845z" fill="url(#e)"/><path d="m24.029 33.252c0-.074.004-.148.006-.222-.958-.425-2.003-.64-3.06-.624-.021.279-.031.562-.031.846 0 4.447 2.601 8.283 6.356 10.059.533-.916.862-1.934.967-2.98-2.52-1.347-4.238-4.011-4.238-7.079z" fill="url(#f)"/><path d="m16.543 32.354c3.945-2.289 8.92-1.133 11.418 2.547l1.54-.893c-.071-.238-.11-.492-.11-.755 0-1.249.868-2.292 2.03-2.558v-1.762c-4.45-.302-7.968-4.066-7.969-8.667.001-3.531 2.073-6.57 5.05-7.93-.008.003-.016.005-.023.008.008-.004.016-.007.023-.011-4.468 1.477-7.693 5.702-7.693 10.687v.003c0 1.505.294 2.939.827 4.251-1.384.195-2.755.655-4.039 1.4-4.295 2.492-6.323 7.412-5.362 12.039-.317-3.27 1.265-6.594 4.308-8.359z" fill="url(#g)"/><path d="m51.999 38.534c.038-3.926-1.973-7.758-5.597-9.86-1.284-.745-2.654-1.205-4.039-1.4.533-1.312.828-2.746.828-4.251 0-.002 0-.002 0-.002 0-4.985-3.227-9.211-7.693-10.688.007.004.015.008.022.011-.008-.003-.016-.005-.022-.008 2.976 1.359 5.049 4.398 5.049 7.93-.001 4.601-3.518 8.365-7.969 8.667v1.762c1.162.266 2.03 1.309 2.03 2.558 0 .277-.043.543-.122.794l1.531.888c2.491-3.703 7.482-4.873 11.438-2.578 2.758 1.602 4.315 4.48 4.348 7.44.003.305-.01.612-.039.917v-.002.006c.151-.726.228-1.456.235-2.184z" fill="url(#h)"/><path d="m38.908 47.232c-2.777-1.612-4.339-4.522-4.349-7.504-.004-1.283.279-2.578.876-3.789l-1.535-.892c-.476.51-1.15.827-1.9.827-.764 0-1.451-.329-1.928-.855l-1.525.884c2.008 4.037.527 9.018-3.457 11.33-3.043 1.766-6.698 1.482-9.357-.43 3.506 3.149 8.761 3.845 13.056 1.353 1.276-.741 2.353-1.696 3.21-2.796.858 1.101 1.936 2.058 3.213 2.799 4.295 2.492 9.55 1.798 13.056-1.354-.006.004-.012.008-.017.012.005-.005.011-.009.017-.014-2.661 1.911-6.316 2.195-9.36.429z" fill="url(#i)"/></svg>