<svg enable-background="new 0 0 64 64" height="64" viewBox="0 0 64 64" width="64" xmlns="http://www.w3.org/2000/svg" xmlns:xlink="http://www.w3.org/1999/xlink"><linearGradient id="a" gradientUnits="userSpaceOnUse" x1="32" x2="32" y1="2" y2="62"><stop offset="0" stop-color="#bc2af7"/><stop offset=".2161" stop-color="#b928f3"/><stop offset=".4401" stop-color="#b121e6"/><stop offset=".6677" stop-color="#a217d2"/><stop offset=".8963" stop-color="#8e08b5"/><stop offset=".9949" stop-color="#8400a6"/></linearGradient><path d="m62 54c0 4.4-3.6 8-8 8h-44c-4.4 0-8-3.6-8-8v-44c0-4.4 3.6-8 8-8h44c4.4 0 8 3.6 8 8z" fill="url(#a)"/><g fill="#fff"><path d="m39.202 47c-8.284 0-15-6.716-15-15s6.716-15 15-15c4.673 0 8.845 2.137 11.596 5.486-3.384-6.244-9.994-10.486-17.596-10.486-11.046 0-20 8.955-20 20s8.954 20 20 20c7.602 0 14.212-4.242 17.596-10.486-2.751 3.349-6.923 5.486-11.596 5.486z"/><path d="m42.077 34.716 4.689 3.284-1.772-5.341 4.666-3.311-5.78-.017-1.803-5.331-1.801 5.331-5.782.017 4.668 3.311-1.771 5.341z"/></g></svg>