<svg enable-background="new 0 0 64 64" height="64" viewBox="0 0 64 64" width="64" xmlns="http://www.w3.org/2000/svg" xmlns:xlink="http://www.w3.org/1999/xlink"><linearGradient id="a" gradientTransform="matrix(1 0 0 -1 -56 -80)" gradientUnits="userSpaceOnUse" x1="88" x2="88" y1="-82" y2="-142"><stop offset="0" stop-color="#00c9ff"/><stop offset=".4976" stop-color="#5d2dff"/><stop offset="1" stop-color="#f600ff"/></linearGradient><path d="m32 2c-16.567 0-30 13.431-30 30 0 16.566 13.433 30 30 30s30-13.434 30-30c0-16.569-13.434-30-30-30zm3 35.518 12.652 12.651c-3.488 3.009-7.848 5.022-12.652 5.624zm-6 18.274c-4.805-.601-9.163-2.615-12.651-5.624l12.651-12.652zm-21-23.792c0-12.237 9.166-22.313 21-23.793v20.823l-16.68 16.68c-2.716-3.887-4.32-8.608-4.32-13.71zm43.68 13.711-16.68-16.679v-20.825c11.836 1.48 21 11.556 21 23.793 0 5.102-1.604 9.823-4.32 13.711z" fill="url(#a)"/></svg>