<svg enable-background="new 0 0 64 64" height="64" viewBox="0 0 64 64" width="64" xmlns="http://www.w3.org/2000/svg" xmlns:xlink="http://www.w3.org/1999/xlink"><linearGradient id="a" gradientUnits="userSpaceOnUse" x1="32" x2="32" y1="2" y2="62"><stop offset="0" stop-color="#bc2af7"/><stop offset=".2161" stop-color="#b928f3"/><stop offset=".4401" stop-color="#b121e6"/><stop offset=".6677" stop-color="#a217d2"/><stop offset=".8963" stop-color="#8e08b5"/><stop offset=".9949" stop-color="#8400a6"/></linearGradient><path d="m62 54c0 4.4-3.6 8-8 8h-44c-4.4 0-8-3.6-8-8v-44c0-4.4 3.6-8 8-8h44c4.4 0 8 3.6 8 8z" fill="url(#a)"/><g fill="#fff"><circle cx="32.784" cy="40.965" r="3.375"/><path d="m32 12c-11.046 0-20 8.954-20 20s8.954 20 20 20 20-8.954 20-20-8.954-20-20-20zm.541 36.329c-4.126-.083-7.611-3.263-7.979-7.464-.394-4.502 2.937-8.472 7.438-8.865 4.5-.394 7.83-4.363 7.438-8.864-.391-4.465-4.285-7.425-8.757-7.434 4.142-.335 8.411.887 11.838 3.763 6.912 5.8 7.816 16.141 2.017 23.054-3.105 3.699-7.511 5.66-11.995 5.81zm-1.522-27.536c1.689-.147 3.176 1.101 3.324 2.79.147 1.688-1.1 3.176-2.789 3.323-1.689.148-3.176-1.1-3.324-2.789-.147-1.689 1.1-3.176 2.789-3.324z"/></g></svg>