<svg enable-background="new 0 0 64 64" height="64" viewBox="0 0 64 64" width="64" xmlns="http://www.w3.org/2000/svg" xmlns:xlink="http://www.w3.org/1999/xlink"><linearGradient id="a" gradientUnits="userSpaceOnUse" x1="32" x2="32" y1="2" y2="62"><stop offset="0" stop-color="#bc2af7"/><stop offset=".2161" stop-color="#b928f3"/><stop offset=".4401" stop-color="#b121e6"/><stop offset=".6677" stop-color="#a217d2"/><stop offset=".8963" stop-color="#8e08b5"/><stop offset=".9949" stop-color="#8400a6"/></linearGradient><path d="m62 54c0 4.4-3.6 8-8 8h-44c-4.4 0-8-3.6-8-8v-44c0-4.4 3.6-8 8-8h44c4.4 0 8 3.6 8 8z" fill="url(#a)"/><path d="m50.896 30.897c-.338 0-.638.156-.84.397.047-.123.077-.256.077-.397 0-.609-.495-1.104-1.104-1.104-.119 0-.232.024-.341.059-.387-3.039-1.583-5.824-3.368-8.133.101-.051.197-.115.282-.199.431-.43.43-1.13 0-1.56-.431-.432-1.129-.432-1.562 0-.048.048-.088.102-.126.156-.011-.01-.02-.019-.028-.029.055-.037.106-.079.154-.127.433-.432.433-1.129 0-1.561-.43-.43-1.129-.431-1.56 0-.085.085-.148.182-.199.283-2.31-1.785-5.095-2.981-8.134-3.369.035-.108.06-.222.06-.342 0-.609-.495-1.102-1.104-1.102-.139 0-.273.028-.396.077.24-.203.396-.502.396-.841 0-.61-.494-1.105-1.103-1.105s-1.104.495-1.104 1.104c0 .339.158.639.397.841-.122-.048-.257-.077-.397-.077-.607 0-1.103.493-1.103 1.102 0 .12.024.233.06.342-3.04.388-5.825 1.584-8.134 3.369-.052-.101-.114-.199-.199-.284-.431-.43-1.13-.43-1.562 0-.431.431-.431 1.13 0 1.561.05.048.102.09.156.128-.009.009-.018.019-.028.028-.038-.055-.078-.108-.128-.156-.431-.431-1.129-.431-1.559 0-.431.43-.431 1.129 0 1.56.085.084.183.148.282.199-1.785 2.309-2.982 5.094-3.368 8.133-.108-.035-.222-.059-.341-.059-.609 0-1.104.495-1.104 1.104 0 .14.028.273.077.396-.203-.24-.502-.396-.84-.396-.61.002-1.105.497-1.105 1.105 0 .609.495 1.104 1.103 1.104.34 0 .64-.156.842-.396-.047.122-.077.255-.077.395 0 .609.495 1.104 1.104 1.104.119 0 .232-.024.341-.059.387 3.039 1.583 5.824 3.37 8.133-.101.052-.199.115-.284.201-.431.43-.431 1.129 0 1.56s1.13.431 1.559 0c.05-.048.092-.102.128-.156.011.009.019.02.028.029-.055.038-.107.08-.156.127-.43.431-.431 1.129 0 1.562.432.43 1.131.43 1.562 0 .085-.085.148-.183.199-.284 2.309 1.785 5.094 2.982 8.134 3.37-.035.108-.06.221-.06.341 0 .609.495 1.103 1.103 1.103.141 0 .274-.029.396-.076-.24.202-.396.502-.396.84 0 .608.495 1.102 1.104 1.102s1.103-.494 1.103-1.103c0-.338-.154-.638-.395-.84.123.047.256.076.395.076.609 0 1.104-.494 1.104-1.103 0-.12-.025-.233-.06-.341 3.04-.388 5.825-1.585 8.134-3.37.052.102.114.198.199.284.431.43 1.13.43 1.56 0 .433-.431.433-1.13 0-1.562-.048-.048-.102-.09-.154-.127.009-.009.018-.018.027-.029.037.055.079.108.127.156.433.431 1.131.431 1.562 0s.431-1.129 0-1.56c-.085-.085-.183-.148-.284-.199 1.785-2.31 2.982-5.095 3.37-8.135.108.035.222.059.341.059.609 0 1.104-.494 1.104-1.103 0-.14-.029-.272-.076-.396.202.239.502.396.84.396.609 0 1.104-.495 1.104-1.104-.001-.607-.496-1.102-1.105-1.102zm-17.333-12.436c2.594.296 4.963 1.321 6.904 2.863-.09.41-3.971 4.74-4.335 4.943-.872-.629-1.894-1.063-3.001-1.242-.114-.4.208-6.212.432-6.564zm-3.126 0c.225.351.547 6.163.431 6.565-1.106.179-2.126.612-2.999 1.242-.364-.203-4.244-4.533-4.334-4.943 1.941-1.542 4.309-2.567 6.902-2.864zm-9.113 5.073c.41.09 4.741 3.969 4.944 4.334-.631.872-1.065 1.893-1.242 3.001-.401.114-6.214-.207-6.564-.431.296-2.594 1.32-4.963 2.862-6.904zm.001 16.933c-1.543-1.942-2.566-4.31-2.863-6.903.352-.225 6.163-.546 6.564-.432.18 1.107.611 2.127 1.242 2.999-.202.367-4.533 4.244-4.943 4.336zm9.113 5.071c-2.594-.295-4.962-1.32-6.903-2.863.091-.41 3.97-4.739 4.334-4.941.873.629 1.893 1.063 2.999 1.241.115.4-.205 6.211-.43 6.563zm1.562-10.205c-1.841 0-3.333-1.491-3.333-3.333 0-1.84 1.492-3.333 3.333-3.333s3.333 1.494 3.333 3.333c0 1.842-1.492 3.333-3.333 3.333zm1.563 10.205c-.226-.353-.546-6.162-.43-6.564 1.106-.179 2.128-.612 2.999-1.242.365.203 4.244 4.533 4.334 4.943-1.942 1.542-4.31 2.567-6.903 2.863zm9.113-5.071c-.41-.09-4.741-3.969-4.942-4.335.629-.872 1.063-1.892 1.24-2.999.402-.115 6.214.207 6.565.432-.297 2.592-1.321 4.96-2.863 6.902zm-3.702-9.598c-.178-1.108-.61-2.128-1.24-3.001.201-.365 4.532-4.244 4.942-4.335 1.542 1.942 2.566 4.311 2.863 6.905-.351.224-6.163.545-6.565.431z" fill="#fff"/></svg>