<svg enable-background="new 0 0 64 64" height="64" viewBox="0 0 64 64" width="64" xmlns="http://www.w3.org/2000/svg" xmlns:xlink="http://www.w3.org/1999/xlink"><linearGradient id="a" gradientUnits="userSpaceOnUse" x1="19.5635" x2="47.6856" y1="6.0827" y2="54.7915"><stop offset="0" stop-color="#545061"/><stop offset=".2793" stop-color="#464253"/><stop offset=".6189" stop-color="#211d2d"/><stop offset="1" stop-color="#1a1626"/></linearGradient><path d="m52 22c0-11.045-8.955-20-20-20s-20 8.955-20 20c0 9.954 7.28 18.185 16.8 19.72v6.08h-7.8v6.4h7.8v7.8h6.4v-7.8h7.8v-6.4h-7.8v-6.08c9.52-1.534 16.8-9.766 16.8-19.72zm-33.6 0c0-7.511 6.089-13.6 13.6-13.6s13.6 6.089 13.6 13.6-6.089 13.6-13.6 13.6-13.6-6.089-13.6-13.6z" fill="url(#a)"/></svg>