<svg enable-background="new 0 0 64 64" height="64" viewBox="0 0 64 64" width="64" xmlns="http://www.w3.org/2000/svg" xmlns:xlink="http://www.w3.org/1999/xlink"><linearGradient id="a" gradientUnits="userSpaceOnUse" x1="32" x2="32" y1="2" y2="62"><stop offset="0" stop-color="#bc2af7"/><stop offset=".2161" stop-color="#b928f3"/><stop offset=".4401" stop-color="#b121e6"/><stop offset=".6677" stop-color="#a217d2"/><stop offset=".8963" stop-color="#8e08b5"/><stop offset=".9949" stop-color="#8400a6"/></linearGradient><path d="m62 54c0 4.4-3.6 8-8 8h-44c-4.4 0-8-3.6-8-8v-44c0-4.4 3.6-8 8-8h44c4.4 0 8 3.6 8 8z" fill="url(#a)"/><g fill="#fff"><path d="m13.447 18.115c12.915 3.592 24.588 3.496 37.11-.032 1.15-.326 1.542-1.361 1.422-2.244-.126-.914-.831-1.839-1.934-1.839-.187 0-.379.027-.571.081-11.318 3.191-23.548 3.202-34.949.035-.19-.054-.38-.081-.564-.081-1.108 0-1.815.929-1.939 1.846-.12.882.275 1.915 1.425 2.234z"/><path d="m50.553 45.885c-12.915-3.592-24.588-3.495-37.11.032-1.149.325-1.542 1.361-1.422 2.244.125.915.831 1.839 1.934 1.839.187 0 .379-.026.571-.081 11.318-3.191 23.548-3.202 34.949-.035.19.054.38.081.565.081 1.108 0 1.815-.929 1.939-1.846.119-.882-.276-1.915-1.426-2.234z"/><path d="m24 19h4v26h-4z"/><path d="m36 19h4v26h-4z"/></g></svg>