<svg enable-background="new 0 0 64 64" height="64" viewBox="0 0 64 64" width="64" xmlns="http://www.w3.org/2000/svg" xmlns:xlink="http://www.w3.org/1999/xlink"><linearGradient id="a" gradientUnits="userSpaceOnUse" x1="32" x2="32" y1="2" y2="62"><stop offset="0" stop-color="#bc2af7"/><stop offset=".2161" stop-color="#b928f3"/><stop offset=".4401" stop-color="#b121e6"/><stop offset=".6677" stop-color="#a217d2"/><stop offset=".8963" stop-color="#8e08b5"/><stop offset=".9949" stop-color="#8400a6"/></linearGradient><path d="m62 54c0 4.4-3.6 8-8 8h-44c-4.4 0-8-3.6-8-8v-44c0-4.4 3.6-8 8-8h44c4.4 0 8 3.6 8 8z" fill="url(#a)"/><g fill="#fff"><path d="m28.279 32.445c2.449-4.043 1.033-9.658-3.154-12.518 2.242-.794 4.594-1.198 7-1.198 3.357 0 6.631.772 9.732 2.295 1.34.653 2.979-.206 3.311-1.63.223-.959-.205-1.833-1.115-2.282-3.83-1.879-7.84-2.831-11.922-2.831-6.08 0-11.836 2.125-16.654 6.146-.195.167-.361.359-.488.572-.619.545-1.158 1.159-1.578 1.781-.141.165-.248.325-.309.458-.106.172-.184.353-.217.483-1.955 4.491-.6 9.328 3.371 12.037 1.262.861 2.674 1.297 4.193 1.297 3.061.001 6.133-1.809 7.83-4.61zm-7.799-9.195c1.42 0 2.881.865 3.719 2.205.895 1.429.963 3.164.186 4.759-.686 1.413-2.047 2.257-3.643 2.257-.758 0-1.519-.198-2.199-.57-2.209-1.211-2.584-4.302-1.574-6.385 1.13-1.873 2.533-2.266 3.511-2.266z"/><path d="m47.742 28.242c-1.262-.86-2.67-1.296-4.189-1.296-3.063 0-6.135 1.81-7.828 4.609-2.451 4.046-1.035 9.661 3.152 12.518-5.33 1.888-11.455 1.495-16.732-1.096-1.346-.667-2.981.203-3.313 1.628-.223.959.203 1.833 1.117 2.282 3.826 1.879 7.836 2.831 11.92 2.831 6.078 0 11.84-2.125 16.65-6.143.199-.167.363-.36.492-.578.617-.545 1.16-1.158 1.572-1.775.141-.16.252-.326.313-.457.1-.162.174-.333.217-.481 1.959-4.491.604-9.33-3.371-12.042zm-4.225 12.508c-1.42 0-2.879-.866-3.717-2.206-.895-1.429-.963-3.164-.186-4.759.686-1.412 2.047-2.255 3.643-2.255.758 0 1.52.197 2.201.57 2.207 1.208 2.582 4.299 1.574 6.383-1.134 1.874-2.536 2.267-3.515 2.267z"/></g></svg>