<svg enable-background="new 0 0 64 64" height="64" viewBox="0 0 64 64" width="64" xmlns="http://www.w3.org/2000/svg" xmlns:xlink="http://www.w3.org/1999/xlink"><linearGradient id="a" gradientUnits="userSpaceOnUse" x1="32" x2="32" y1="2" y2="62"><stop offset="0" stop-color="#bc2af7"/><stop offset=".2161" stop-color="#b928f3"/><stop offset=".4401" stop-color="#b121e6"/><stop offset=".6677" stop-color="#a217d2"/><stop offset=".8963" stop-color="#8e08b5"/><stop offset=".9949" stop-color="#8400a6"/></linearGradient><path d="m62 54c0 4.4-3.6 8-8 8h-44c-4.4 0-8-3.6-8-8v-44c0-4.4 3.6-8 8-8h44c4.4 0 8 3.6 8 8z" fill="url(#a)"/><path d="m47.805 40.865c-1.211 0-2.195.994-2.195 2.221 0 3.088-1.871 4.47-3.727 4.47-.961 0-1.85-.363-2.502-1.022-.783-.789-1.195-1.981-1.195-3.448 0-2.32 1.129-4.508 2.436-7.043 1.66-3.22 3.543-6.87 3.648-11.805.096-4.531-1.908-8.36-5.498-10.505-3.816-2.282-8.742-2.314-12.547-.079-3.586 2.106-5.607 5.958-5.545 10.567.037 2.658.617 4.556 1.414 6.018-4.528.403-8.094 4.27-8.094 8.972 0 4.97 3.98 9.013 8.873 9.013 4.892 0 8.873-4.043 8.873-9.013 0-4.81-2.131-6.976-3.844-8.715-1.555-1.582-2.785-2.831-2.832-6.336-.053-3.847 1.797-5.747 3.357-6.663 2.416-1.418 5.676-1.394 8.113.062 1.568.937 3.42 2.84 3.34 6.584-.084 3.896-1.643 6.92-3.152 9.845-1.443 2.796-2.934 5.689-2.934 9.099 0 3.378 1.352 5.451 2.484 6.595 1.486 1.494 3.474 2.318 5.605 2.318 4.033 0 8.117-3.061 8.117-8.914 0-1.227-.982-2.221-2.195-2.221zm-24.932 2.915c-2.471 0-4.483-2.05-4.483-4.569s2.012-4.569 4.483-4.569 4.482 2.05 4.482 4.569c0 2.52-2.011 4.569-4.482 4.569z" fill="#fff"/></svg>