<svg enable-background="new 0 0 64 64" height="64" viewBox="0 0 64 64" width="64" xmlns="http://www.w3.org/2000/svg" xmlns:xlink="http://www.w3.org/1999/xlink"><linearGradient id="a" gradientUnits="userSpaceOnUse" x1="32" x2="32" y1="2" y2="62"><stop offset="0" stop-color="#bc2af7"/><stop offset=".2161" stop-color="#b928f3"/><stop offset=".4401" stop-color="#b121e6"/><stop offset=".6677" stop-color="#a217d2"/><stop offset=".8963" stop-color="#8e08b5"/><stop offset=".9949" stop-color="#8400a6"/></linearGradient><path d="m62 54c0 4.4-3.6 8-8 8h-44c-4.4 0-8-3.6-8-8v-44c0-4.4 3.6-8 8-8h44c4.4 0 8 3.6 8 8z" fill="url(#a)"/><path d="m50.226 45.308c-1.208 0-2.325-.295-3.342-.812 3.145-3.577 4.773-8.65 4.773-12.807 0-2.57-.592-4.799-1.712-6.446-1.339-1.969-3.332-3.01-5.762-3.01-1.518 0-2.864.398-3.991 1.161v-1.474c0-2.047-.798-3.83-2.246-5.019-1.215-.997-2.847-1.547-4.595-1.547-1.964 0-3.994.715-5.41 2.082-.177-.188-.364-.369-.566-.536-1.216-.997-2.848-1.546-4.598-1.546-1.899 0-3.859.672-5.268 1.954-.841-1.093-1.974-1.908-3.306-2.254-.947-.245-1.913.354-2.151 1.344-.237.989.34 1.991 1.29 2.238 1.071.278 2.153 1.496 2.153 3.284v19.06c0 1.02.795 1.846 1.774 1.846s1.773-.827 1.773-1.846v-19.06c0-2.093 2.29-2.874 3.733-2.874.942 0 1.817.275 2.4.753.604.495.896 1.188.896 2.12v19.06c0 1.02.795 1.846 1.774 1.846s1.773-.827 1.773-1.846v-19.06c0-2.093 2.287-2.874 3.73-2.874.94 0 1.814.275 2.397.753.603.495.896 1.188.896 2.121l-.041 9.849c0 4.489 1.697 9.261 4.564 12.642-1.138.569-2.408.896-3.803.896-.98 0-1.774.827-1.774 1.846 0 1.02.794 1.846 1.774 1.846 2.547 0 4.769-.75 6.652-1.988 1.827 1.25 3.921 1.99 6.213 1.99.98 0 1.774-.826 1.774-1.846 0-1.019-.794-1.846-1.774-1.846zm-10.033-12.715v-1.577c.093-1.473.44-2.745 1.03-3.611.679-.996 1.648-1.479 2.961-1.479 1.264 0 2.202.475 2.865 1.451.685 1.004 1.06 2.537 1.06 4.313 0 3.383-1.414 7.685-4.076 10.539-2.288-2.594-3.64-6.383-3.84-9.636z" fill="#fff"/></svg>