<svg enable-background="new 0 0 64 64" height="64" viewBox="0 0 64 64" width="64" xmlns="http://www.w3.org/2000/svg" xmlns:xlink="http://www.w3.org/1999/xlink"><linearGradient id="a" gradientUnits="userSpaceOnUse" x1="32" x2="32" y1="2" y2="62"><stop offset="0" stop-color="#bc2af7"/><stop offset=".2161" stop-color="#b928f3"/><stop offset=".4401" stop-color="#b121e6"/><stop offset=".6677" stop-color="#a217d2"/><stop offset=".8963" stop-color="#8e08b5"/><stop offset=".9949" stop-color="#8400a6"/></linearGradient><path d="m62 54c0 4.4-3.6 8-8 8h-44c-4.4 0-8-3.6-8-8v-44c0-4.4 3.6-8 8-8h44c4.4 0 8 3.6 8 8z" fill="url(#a)"/><path d="m49.677 14.391c-.068-1.107-.958-1.998-2.077-2.066l-16.595-.012c-1.419-.001-2.159 1.113-2.159 2.213 0 1.099.74 2.212 2.158 2.212h11.128l-18.04 18.045s-6.664-6.664-6.671-6.671c-.683-.683-1.953-.866-2.727-.294-1.092.81-1.428 2.398-.403 3.424l6.671 6.671s-8.035 8.047-8.064 8.075c-.53.531-.622 1.651-.394 2.314.476 1.385 2.492 1.832 3.542.782l8.045-8.044s6.66 6.663 6.668 6.671c.681.681 1.959.867 2.73.294 1.088-.808 1.424-2.402.399-3.424l-6.668-6.669 18.039-18.046v11.129c0 2.836 4.427 2.836 4.427 0v-16.473z" fill="#fff"/></svg>