<svg enable-background="new 0 0 64 64" height="64" viewBox="0 0 64 64" width="64" xmlns="http://www.w3.org/2000/svg" xmlns:xlink="http://www.w3.org/1999/xlink"><linearGradient id="a" gradientUnits="userSpaceOnUse" x1="32" x2="32" y1="2" y2="62"><stop offset="0" stop-color="#bc2af7"/><stop offset=".2161" stop-color="#b928f3"/><stop offset=".4401" stop-color="#b121e6"/><stop offset=".6677" stop-color="#a217d2"/><stop offset=".8963" stop-color="#8e08b5"/><stop offset=".9949" stop-color="#8400a6"/></linearGradient><path d="m62 54c0 4.4-3.6 8-8 8h-44c-4.4 0-8-3.6-8-8v-44c0-4.4 3.6-8 8-8h44c4.4 0 8 3.6 8 8z" fill="url(#a)"/><path d="m40.801 33.258c-2.107 0-4.043.686-5.594 1.828v-15.111c0-3.505-2.643-7.565-8.238-7.565-2.285 0-4.642.774-6.338 2.251-1.012-1.26-2.375-2.198-3.979-2.598-1.141-.282-2.303.408-2.588 1.548s.408 2.294 1.551 2.579c1.291.321 2.592 1.723 2.592 3.784v21.962c0 1.175.957 2.127 2.135 2.127 1.18 0 2.135-.952 2.135-2.127v-21.961c0-2.412 2.756-3.311 4.492-3.311 1.74 0 3.969 1.195 3.969 3.311v23.86c0 2.824-1.713 4.103-3.484 4.103-2.851 0-2.851 4.063 0 4.063 2.637 0 5.297-1.304 6.711-3.843 1.676 1.672 4.025 2.718 6.637 2.718 5.082 0 9.199-3.944 9.199-8.809-.001-4.865-4.118-8.809-9.2-8.809zm0 13.921c-2.947 0-5.338-2.289-5.338-5.112 0-2.824 2.391-5.112 5.338-5.112 2.949 0 5.34 2.288 5.34 5.112-.001 2.823-2.391 5.112-5.34 5.112z" fill="#fff"/></svg>