<svg enable-background="new 0 0 64 64" height="64" viewBox="0 0 64 64" width="64" xmlns="http://www.w3.org/2000/svg" xmlns:xlink="http://www.w3.org/1999/xlink"><linearGradient id="a" gradientUnits="userSpaceOnUse" x1="32" x2="32" y1="2" y2="62"><stop offset="0" stop-color="#bc2af7"/><stop offset=".2161" stop-color="#b928f3"/><stop offset=".4401" stop-color="#b121e6"/><stop offset=".6677" stop-color="#a217d2"/><stop offset=".8963" stop-color="#8e08b5"/><stop offset=".9949" stop-color="#8400a6"/></linearGradient><path d="m62 54c0 4.4-3.6 8-8 8h-44c-4.4 0-8-3.6-8-8v-44c0-4.4 3.6-8 8-8h44c4.4 0 8 3.6 8 8z" fill="url(#a)"/><g fill="#fff"><path d="m49.947 17c-.37 0-.726.122-1.026.353l-8.941 6.797v-5.02c0-1.114-.977-2.129-2.052-2.129-.37 0-.727.122-1.029.353l-8.938 6.797v-5.02c0-1.114-.977-2.129-2.054-2.129-.368 0-.725.122-1.027.353l-12.018 9.141c-.762.578-1.05 1.563-.735 2.509.288.865.996 1.446 1.767 1.446.382 0 .753-.135 1.102-.4l8.936-6.797v5.02c0 1.114.979 2.129 2.055 2.129.369 0 .726-.122 1.027-.353l8.936-6.797v5.02c0 1.114.98 2.129 2.057 2.129.367 0 .724-.122 1.026-.353l8.938-6.797v5.02c0 2.685 4.03 2.685 4.03 0v-9.143c-.001-1.113-.981-2.129-2.054-2.129z"/><path d="m49.947 33.551c-.37 0-.726.122-1.026.353l-8.942 6.796v-5.02c0-1.114-.977-2.129-2.052-2.129-.37 0-.727.122-1.029.353l-8.937 6.796v-5.02c0-1.114-.977-2.129-2.054-2.129-.368 0-.725.122-1.027.353l-12.018 9.14c-.762.578-1.05 1.563-.735 2.509.287.865.995 1.447 1.765 1.447.382 0 .753-.135 1.102-.4l8.936-6.796v5.02c0 1.114.979 2.129 2.055 2.129.369 0 .726-.122 1.027-.352l8.936-6.796v5.02c0 1.114.98 2.129 2.057 2.129.367 0 .724-.122 1.026-.352l8.938-6.796v5.02c0 2.685 4.03 2.685 4.03 0v-9.142c.001-1.118-.979-2.133-2.052-2.133z"/></g></svg>