<svg enable-background="new 0 0 64 64" height="64" viewBox="0 0 64 64" width="64" xmlns="http://www.w3.org/2000/svg" xmlns:xlink="http://www.w3.org/1999/xlink"><linearGradient id="a" gradientUnits="userSpaceOnUse" x1="20.7112" x2="45.4902" y1="13.5098" y2="56.4283"><stop offset="0" stop-color="#545061"/><stop offset=".2793" stop-color="#464253"/><stop offset=".6189" stop-color="#211d2d"/><stop offset="1" stop-color="#1a1626"/></linearGradient><path d="m57 32.781c0-12.055-25-25.781-25-25.781s-25 13.726-25 25.781c0 7.146 6.021 13.281 13.281 13.281 3.495 0 6.604-1.348 8.917-3.535l-.323 2.754c-.421 2.991-2.495 5.727-5.469 6.25l-3.906.782v4.687h25v-4.688l-3.906-.781c-2.976-.523-5.049-3.258-5.469-6.25l-.325-2.754c2.313 2.188 5.424 3.535 8.919 3.535 7.259.001 13.281-6.134 13.281-13.281z" fill="url(#a)"/></svg>