<svg enable-background="new 0 0 64 64" height="64" viewBox="0 0 64 64" width="64" xmlns="http://www.w3.org/2000/svg"><path d="m17.176 56.474h13.277v-15.419h-18.827s-.641 5.389-.685 7.194c-.198 8.12 6.235 8.225 6.235 8.225z" fill="#529320"/><path d="m20.285 34.582 6.096 3.52-8.031-14.239-16.35.164 6.098 3.518-4.893 8.475c-.496.858-1.019 2.248-.295 3.504l8.308 14.387c1.488 2.578 4.079 2.563 5.958 2.563 0 0-8.52-1.75-3.074-11.184z" fill="#92c932"/><path d="m60.568 32.635-6.64-11.499-13.352 7.709 9.414 16.305s4.985-2.139 6.571-3.003c7.132-3.888 4.007-9.512 4.007-9.512z" fill="#529320"/><path d="m40.055 40.887v-7.035l-8.315 14.073 8.317 14.075v-7.039h9.781c.992 0 2.459-.243 3.183-1.497l8.306-14.387c1.488-2.58.181-4.815-.758-6.442 0 0 2.742 8.252-8.148 8.252z" fill="#92c932"/><path d="m18.898 5.878-6.641 11.499 13.354 7.709 9.415-16.306s-4.347-3.248-5.887-4.188c-6.935-4.231-10.241 1.286-10.241 1.286z" fill="#529320"/><path d="m36.3 19.518-6.094 3.52 16.347.161 8.031-14.24-6.096 3.521-4.891-8.472c-.495-.86-1.44-2.008-2.887-2.008h-16.613c-2.979 0-4.261 2.252-5.198 3.878 0 0 5.773-6.502 11.221 2.93z" fill="#92c932"/></svg>