<svg enable-background="new 0 0 64 64" height="64" viewBox="0 0 64 64" width="64" xmlns="http://www.w3.org/2000/svg" xmlns:xlink="http://www.w3.org/1999/xlink"><radialGradient id="a" cx="32" cy="16.0146" gradientTransform="matrix(1 0 0 .9027 0 17.5452)" gradientUnits="userSpaceOnUse" r="30.1672"><stop offset="0" stop-color="#4e585e"/><stop offset=".3962" stop-color="#444a53"/><stop offset="1" stop-color="#302c3b"/></radialGradient><path d="m47.721 18.002c-7.822.097-11.438 5.357-15.721 9.25-4.282-3.893-7.898-9.153-15.72-9.25-8.689-.107-14.214 6.228-14.28 13.998.066 7.77 5.591 14.105 14.28 13.998 7.822-.096 11.438-5.357 15.72-9.25 4.282 3.893 7.898 9.154 15.721 9.25 8.688.107 14.215-6.228 14.279-13.998-.064-7.77-5.591-14.105-14.279-13.998zm-31.441 22.568c-5.666 0-8.854-3.75-8.917-8.57.063-4.82 3.251-8.569 8.917-8.569 5.637 0 9.094 4.861 12.125 8.569-3.031 3.709-6.488 8.57-12.125 8.57zm31.441 0c-5.638 0-9.095-4.861-12.126-8.57 3.031-3.709 6.488-8.569 12.126-8.569 5.666 0 8.854 3.749 8.917 8.569-.064 4.82-3.251 8.57-8.917 8.57z" fill="url(#a)"/></svg>