<svg enable-background="new 0 0 64 64" height="64" viewBox="0 0 64 64" width="64" xmlns="http://www.w3.org/2000/svg" xmlns:xlink="http://www.w3.org/1999/xlink"><linearGradient id="a" gradientUnits="userSpaceOnUse" x1="6.1685" x2="33.0049" y1="36.625" y2="36.625"><stop offset="0" stop-color="#cfdde6"/><stop offset=".0873" stop-color="#c9d7e0"/><stop offset=".2088" stop-color="#b7c5ce"/><stop offset=".3496" stop-color="#9aa9b0"/><stop offset=".4303" stop-color="#86959c"/><stop offset="1" stop-color="#bfd1d9"/></linearGradient><linearGradient id="b"><stop offset="0" stop-color="#a3b5bd"/><stop offset=".2978" stop-color="#9fb0b8"/><stop offset=".6488" stop-color="#93a3aa"/><stop offset="1" stop-color="#818f94"/></linearGradient><radialGradient id="c" cx="-389.6602" cy="47.6602" gradientTransform="matrix(-1.0353 0 0 1 -384.6973 0)" gradientUnits="userSpaceOnUse" r="13.6253" xlink:href="#b"/><linearGradient id="d"><stop offset="0" stop-color="#cfdde6"/><stop offset=".1168" stop-color="#c9d7e0"/><stop offset=".2793" stop-color="#b7c5ce"/><stop offset=".4678" stop-color="#9aa9b0"/><stop offset=".5758" stop-color="#86959c"/><stop offset="1" stop-color="#bfd1d9"/></linearGradient><radialGradient id="e" cx="11.7314" cy="36.6689" gradientTransform="matrix(.9801 0 0 2.8728 -2.4107 -68.6737)" gradientUnits="userSpaceOnUse" r="5.2118" xlink:href="#d"/><linearGradient id="f" gradientTransform="matrix(-1 0 0 1 -247.6035 0)" gradientUnits="userSpaceOnUse" x1="-305.4272" x2="-279.604" y1="36.625" y2="36.625"><stop offset="0" stop-color="#bfd1d9"/><stop offset=".5697" stop-color="#86959c"/><stop offset=".6504" stop-color="#9aa9b0"/><stop offset=".7912" stop-color="#b7c5ce"/><stop offset=".9127" stop-color="#c9d7e0"/><stop offset="1" stop-color="#cfdde6"/></linearGradient><linearGradient id="g" gradientUnits="userSpaceOnUse" x1="32.0005" x2="32.0005" y1="21.5" y2="14.5"><stop offset=".2" stop-color="#86959c"/><stop offset=".3907" stop-color="#aab8c0"/><stop offset=".5688" stop-color="#c5d3dc"/><stop offset=".6727" stop-color="#cfdde6"/><stop offset=".7108" stop-color="#c8d7e0"/><stop offset=".7873" stop-color="#c1d2db"/><stop offset="1" stop-color="#bfd1d9"/></linearGradient><radialGradient id="h" cx="-88.6538" cy="47.6602" gradientTransform="matrix(1.0353 0 0 1 137.0733 0)" gradientUnits="userSpaceOnUse" r="13.6253" xlink:href="#b"/><radialGradient id="i" cx="-306.0908" cy="36.6689" gradientTransform="matrix(-.9801 0 0 2.8728 -245.0952 -68.6737)" gradientUnits="userSpaceOnUse" r="5.2126" xlink:href="#d"/><linearGradient id="j"><stop offset="0" stop-color="#cfdde6"/><stop offset=".1673" stop-color="#c9d7e0"/><stop offset=".3999" stop-color="#b7c5ce"/><stop offset=".6696" stop-color="#9aa9b0"/><stop offset=".8242" stop-color="#86959c"/><stop offset="1" stop-color="#99a8ae"/></linearGradient><radialGradient id="k" cx="18.2212" cy="16.3481" gradientUnits="userSpaceOnUse" r="5.0391" xlink:href="#j"/><radialGradient id="l" cx="44.2217" cy="16.3481" gradientUnits="userSpaceOnUse" r="5.0391" xlink:href="#j"/><radialGradient id="m" cx="30.9165" cy="6.833" gradientUnits="userSpaceOnUse" r="7.1254" xlink:href="#j"/><path d="m29.897 11.25c-.578 5.997-.298 26.994-2.121 35.75-1.687 8.104-16.681-.095-19.808-8.356-.538.303-1.073.606-1.606.909.424 2.92 1.815 9.049 5.263 11.447 6.462 4.498 14.709 6.08 20.375 11l1.005-50.75z" fill="url(#a)"/><path d="m6.362 39.553c-.26.148-.687.276-.946.423.968 19.054 21.341 16.934 26.584 22.024-3.241-7.114-22.503-7.281-25.638-22.447z" fill="url(#c)"/><path d="m7.542 31.679c-.259-1.32-4.635 3.043-3.285 11.848.19 1.244 1.854-1.434 7.213-2.095 1.466-.181-2.213-1.009-3.928-9.753z" fill="url(#e)"/><path d="m34.104 11.25c.578 5.997.298 26.994 2.12 35.75 1.688 8.104 16.682-.095 19.809-8.356.537.303 1.072.606 1.605.909-.423 2.92-1.814 9.049-5.262 11.447-6.463 4.498-14.71 6.08-20.376 11v-50.75z" fill="url(#f)"/><path d="m32 14.5c-2.199 1.918-13.054 1.75-13.054 1.75v3.5s11.115.059 13.054 1.75c1.941-1.691 13.055-1.75 13.055-1.75v-3.5s-10.856.168-13.055-1.75z" fill="url(#g)"/><path d="m57.638 39.553c.26.148.688.276.946.423-.968 19.053-21.343 16.935-26.584 22.024 3.241-7.114 22.503-7.281 25.638-22.447z" fill="url(#h)"/><path d="m56.458 31.679c.259-1.32 4.635 3.043 3.284 11.849-.19 1.243-1.854-1.436-7.213-2.096-1.466-.181 2.214-1.009 3.929-9.753z" fill="url(#i)"/><circle cx="19" cy="18" fill="url(#k)" r="3.5"/><circle cx="45" cy="18" fill="url(#l)" r="3.5"/><path d="m32 2c-3.313 0-6 2.688-6 6s2.688 6 6 6c3.313 0 6-2.688 6-6s-2.687-6-6-6zm0 9c-1.654 0-3-1.345-3-3s1.346-3 3-3c1.657 0 3 1.345 3 3s-1.344 3-3 3z" fill="url(#m)"/></svg>