<svg enable-background="new 0 0 64 64" height="64" viewBox="0 0 64 64" width="64" xmlns="http://www.w3.org/2000/svg" xmlns:xlink="http://www.w3.org/1999/xlink"><linearGradient id="a"><stop offset="0" stop-color="#b3c2c6"/><stop offset="1" stop-color="#d2dbe0"/></linearGradient><linearGradient id="b" gradientUnits="userSpaceOnUse" x1="13.458" x2="62" xlink:href="#a" y1="25.2197" y2="25.2197"/><linearGradient id="c"><stop offset="0" stop-color="#d2dbe0"/><stop offset="1" stop-color="#b3c2c6"/></linearGradient><linearGradient id="d" gradientUnits="userSpaceOnUse" x1="15.5586" x2="62" xlink:href="#c" y1="26.2705" y2="26.2705"/><linearGradient id="e" gradientUnits="userSpaceOnUse" x1="8.269" x2="11.6844" y1="52.3594" y2="55.7748"><stop offset="0" stop-color="#4e5e67"/><stop offset=".3737" stop-color="#3f4450"/><stop offset=".738" stop-color="#343241"/><stop offset="1" stop-color="#302c3b"/></linearGradient><linearGradient id="f" gradientUnits="userSpaceOnUse" x1="11.1631" x2="20.3633" y1="48.2373" y2="48.2373"><stop offset="0" stop-color="#ffd94d"/><stop offset="1" stop-color="#f5af31"/></linearGradient><linearGradient id="g" gradientUnits="userSpaceOnUse" x1="4.7495" x2="23.0215" y1="50.1152" y2="50.1152"><stop offset="0" stop-color="#ffc800"/><stop offset="1" stop-color="#f59e01"/></linearGradient><linearGradient id="h" gradientUnits="userSpaceOnUse" x1="2" x2="50.542" xlink:href="#c" y1="25.2197" y2="25.2197"/><linearGradient id="i" gradientUnits="userSpaceOnUse" x1="2" x2="48.4414" xlink:href="#a" y1="26.2705" y2="26.2705"/><linearGradient id="j" gradientUnits="userSpaceOnUse" x1="52.3164" x2="55.7317" y1="55.7744" y2="52.3591"><stop offset="0" stop-color="#302c3b"/><stop offset=".262" stop-color="#343241"/><stop offset=".6263" stop-color="#3f4450"/><stop offset="1" stop-color="#4e5e67"/></linearGradient><linearGradient id="k" gradientUnits="userSpaceOnUse" x1="43.6367" x2="52.8369" y1="48.2373" y2="48.2373"><stop offset="0" stop-color="#f5af31"/><stop offset="1" stop-color="#ffd94d"/></linearGradient><linearGradient id="l" gradientUnits="userSpaceOnUse" x1="40.9785" x2="59.251" y1="50.1152" y2="50.1152"><stop offset="0" stop-color="#f59e01"/><stop offset="1" stop-color="#ffc800"/></linearGradient><path d="m54.953 4.781-41.495 40.117 2.101 3.541 46.441-46.439z" fill="url(#b)"/><path d="m19.102 50.541-3.543-2.102 46.441-46.439-2.779 7.048z" fill="url(#d)"/><path d="m38.553-3.7h.584v57.709h-.584z" fill="#b3c2c6" transform="matrix(-.7054 -.7088 .7088 -.7054 48.4188 70.4324)"/><path d="m15.445 46.488c-.911.91 1.156 2.977 2.066 2.066.911-.911-1.156-2.976-2.066-2.066z" fill="#99a8ae"/><path d="m12.63 47.998 3.373 3.373s-4.775 5.498-9.756 7.688l-1.308-1.307c2.978-5.127 7.691-9.754 7.691-9.754z" fill="url(#e)"/><circle cx="4.484" cy="59.515" fill="#b3c2c6" r="2.485"/><circle cx="4.484" cy="59.515" fill="#e81c27" r="1.242"/><path d="m20.363 51.406-1.43 1.43-7.77-7.77 1.431-1.427z" fill="url(#f)"/><path d="m11.158 45.061 3.891 3.891 3.891 3.891c1.813 1.813 1.733 4.061 4.082 6.408-2.879.064-6.363-5.832-9.403-8.871-3.038-3.035-8.935-6.521-8.868-9.4 2.347 2.346 4.594 2.27 6.407 4.081z" fill="url(#g)"/><path d="m50.542 44.898-2.101 3.541-46.441-46.439 7.047 2.781z" fill="url(#h)"/><path d="m44.898 50.541 3.543-2.102-46.441-46.439 2.779 7.048z" fill="url(#i)"/><path d="m24.863-3.7h.584v57.709h-.584z" fill="#b3c2c6" transform="matrix(.7054 -.7088 .7088 .7054 -10.4194 25.2389)"/><path d="m48.555 46.488c.911.91-1.156 2.977-2.066 2.066-.911-.911 1.155-2.976 2.066-2.066z" fill="#99a8ae"/><path d="m51.37 47.998-3.373 3.373s4.775 5.498 9.756 7.688l1.308-1.307c-2.978-5.127-7.691-9.754-7.691-9.754z" fill="url(#j)"/><circle cx="59.516" cy="59.515" fill="#b3c2c6" r="2.485"/><circle cx="59.516" cy="59.515" fill="#e81c27" r="1.242"/><path d="m43.637 51.406 1.43 1.43 7.77-7.77-1.432-1.427z" fill="url(#k)"/><path d="m52.842 45.061-3.891 3.891-3.891 3.891c-1.813 1.813-1.733 4.061-4.082 6.408 2.879.064 6.363-5.832 9.403-8.871 3.038-3.035 8.935-6.521 8.868-9.4-2.348 2.346-4.594 2.27-6.407 4.081z" fill="url(#l)"/></svg>