<svg enable-background="new 0 0 64 64" height="64" viewBox="0 0 64 64" width="64" xmlns="http://www.w3.org/2000/svg" xmlns:xlink="http://www.w3.org/1999/xlink"><linearGradient id="a"><stop offset="0" stop-color="#b3c2c6"/><stop offset=".2131" stop-color="#aebdc1"/><stop offset=".4787" stop-color="#a0adb2"/><stop offset=".771" stop-color="#889499"/><stop offset="1" stop-color="#717b80"/></linearGradient><linearGradient id="b" gradientUnits="userSpaceOnUse" x1="28.7324" x2="32.3203" xlink:href="#a" y1="48.3154" y2="48.3154"/><radialGradient id="c" cx="30.8511" cy="29.2402" gradientUnits="userSpaceOnUse" r="18.8222"><stop offset="0" stop-color="#e6ebef"/><stop offset=".421" stop-color="#e3e9ee"/><stop offset=".6936" stop-color="#dbe4ed"/><stop offset=".9235" stop-color="#ccdbe9"/><stop offset="1" stop-color="#c5d7e8"/></radialGradient><radialGradient id="d" cx="25.7148" cy="29.7891" gradientUnits="userSpaceOnUse" r="16.2514"><stop offset="0" stop-color="#e635de"/><stop offset=".4063" stop-color="#d426cd"/><stop offset="1" stop-color="#b30bad"/></radialGradient><linearGradient id="e" gradientUnits="userSpaceOnUse" x1="7.0195" x2="9.4563" xlink:href="#a" y1="47.9795" y2="49.0417"/><linearGradient id="f" gradientUnits="userSpaceOnUse" x1="51.9082" x2="54.283" xlink:href="#a" y1="49.0576" y2="48.0577"/><radialGradient id="g" cx="494.0361" cy="41.2471" gradientTransform="matrix(.3957 .514 -.5998 .4618 -153.2442 -261.5755)" gradientUnits="userSpaceOnUse" r="37.2454"><stop offset="0" stop-color="#fff" stop-opacity=".4"/><stop offset="1" stop-color="#fff" stop-opacity="0"/></radialGradient><linearGradient id="h" gradientUnits="userSpaceOnUse" x1="30.7134" x2="30.7134" y1="38.2793" y2="34.6309"><stop offset="0" stop-color="#b3c2c6"/><stop offset="1" stop-color="#d2dbe0"/></linearGradient><path d="m31.611 62h-1.795l-.896-27.369h3.588z" fill="url(#b)"/><path d="m60.484 26.883 1.516-2.666s-19.801-12.133-26.754-13.66l.035.033c-1.465-.371-2.99-.59-4.568-.59-10.406 0-18.844 8.576-18.844 19.158 0 10.58 8.438 19.156 18.844 19.156 10.408 0 18.844-8.576 18.844-19.156 0-2.1-.344-4.115-.957-6.006l.016.016z" fill="url(#c)"/><path d="m14.715 29c0 9.066 7.164 16.578 15.998 16.578 8.836 0 16.002-7.512 16.002-16.578z" fill="url(#d)"/><path d="m15.459 35.449h-3.588l-9.871 26.551h1.795z" fill="url(#e)"/><path d="m45.969 35.449h3.588l9.871 26.551h-1.795z" fill="url(#f)"/><path d="m46.713 29c0 2-32 2-32 0s32-2 32 0z" fill="#c28fef"/><path d="m36.277 35.862c-6.375 4.914-14.954 4.462-19.155-1.002-4.212-5.468-2.455-13.875 3.922-18.783 6.375-4.912 14.955-4.46 19.166 1.003 4.212 5.47 2.445 13.882-3.933 18.782z" fill="url(#g)"/><path d="m10.973 38.279h39.482c2.986 0 2.986-3.648 0-3.648h-39.482c-2.989 0-2.989 3.648 0 3.648z" fill="url(#h)"/></svg>