<svg enable-background="new 0 0 64 64" height="64" viewBox="0 0 64 64" width="64" xmlns="http://www.w3.org/2000/svg" xmlns:xlink="http://www.w3.org/1999/xlink"><linearGradient id="a"><stop offset=".0102" stop-color="#ffe12c"/><stop offset=".2239" stop-color="#feda24"/><stop offset=".5519" stop-color="#fbc50f"/><stop offset=".7321" stop-color="#f9b700"/><stop offset=".891" stop-color="#f7aa01"/><stop offset="1" stop-color="#f59e01"/></linearGradient><radialGradient id="b" cx="32.0007" cy="41.789" gradientUnits="userSpaceOnUse" r="4.5736" xlink:href="#a"/><radialGradient id="c" cx="32.0012" cy="55.0264" gradientUnits="userSpaceOnUse" r="6.6825" xlink:href="#a"/><linearGradient id="d"><stop offset="0" stop-color="#f59e01"/><stop offset=".1639" stop-color="#f7aa01"/><stop offset=".4029" stop-color="#f9b700"/><stop offset=".5494" stop-color="#fbc50f"/><stop offset=".816" stop-color="#feda24"/><stop offset=".9898" stop-color="#ffe12c"/></linearGradient><radialGradient id="e" cx="48.9843" cy="40.014" gradientTransform="matrix(.7349 .6782 -1.3563 1.4698 67.2567 -52.0189)" gradientUnits="userSpaceOnUse" r="15.8522" xlink:href="#d"/><radialGradient id="f" cx="15.0164" cy="40.014" gradientTransform="matrix(.7349 -.6782 1.3563 1.4698 -50.2911 -8.6162)" gradientUnits="userSpaceOnUse" r="14.619" xlink:href="#d"/><radialGradient id="g" cx="31.9993" cy="22.299" gradientTransform="matrix(1 0 0 2 0 -22.299)" gradientUnits="userSpaceOnUse" r="15.4504" xlink:href="#a"/><linearGradient id="h" gradientUnits="userSpaceOnUse" x1="36.0422" x2="36.0422" y1="2" y2="42.598"><stop offset=".3211" stop-color="#f9b700"/><stop offset=".5552" stop-color="#f7aa01"/><stop offset=".7157" stop-color="#f59e01"/><stop offset=".7853" stop-color="#ef9903"/><stop offset=".874" stop-color="#e08b0a"/><stop offset=".9728" stop-color="#c67415"/><stop offset=".9877" stop-color="#c17017"/></linearGradient><linearGradient id="i" gradientUnits="userSpaceOnUse" x1="33.4047" x2="33.4047" y1="37" y2="47.615"><stop offset=".229" stop-color="#f9b700"/><stop offset=".3964" stop-color="#f7aa01"/><stop offset=".5112" stop-color="#f59e01"/><stop offset=".6331" stop-color="#ef9903"/><stop offset=".7886" stop-color="#e08b0a"/><stop offset=".9616" stop-color="#c67415"/><stop offset=".9877" stop-color="#c17017"/></linearGradient><linearGradient id="j" gradientUnits="userSpaceOnUse" x1="35.1897" x2="35.1897" y1="48.0528" y2="62"><stop offset=".229" stop-color="#f9b700"/><stop offset=".5238" stop-color="#f7aa01"/><stop offset=".726" stop-color="#f59e01"/><stop offset=".7929" stop-color="#ef9903"/><stop offset=".8783" stop-color="#e08b0a"/><stop offset=".9734" stop-color="#c67415"/><stop offset=".9877" stop-color="#c17017"/></linearGradient><linearGradient id="k"><stop offset="0" stop-color="#f9b700"/><stop offset=".4306" stop-color="#f7aa01"/><stop offset=".726" stop-color="#f59e01"/><stop offset=".7929" stop-color="#ef9903"/><stop offset=".8783" stop-color="#e08b0a"/><stop offset=".9734" stop-color="#c67415"/><stop offset=".9877" stop-color="#c17017"/></linearGradient><linearGradient id="l" gradientUnits="userSpaceOnUse" x1="44.1655" x2="44.1655" xlink:href="#k" y1="42.611" y2="56.2179"/><linearGradient id="m" gradientUnits="userSpaceOnUse" x1="48.9581" x2="48.9581" y1="28.622" y2="45.292"><stop offset=".229" stop-color="#f9b700"/><stop offset=".394" stop-color="#f7aa01"/><stop offset=".5072" stop-color="#f59e01"/><stop offset=".6301" stop-color="#ef9903"/><stop offset=".7869" stop-color="#e08b0a"/><stop offset=".9614" stop-color="#c67415"/><stop offset=".9877" stop-color="#c17017"/></linearGradient><linearGradient id="n" gradientUnits="userSpaceOnUse" x1="19.8357" x2="19.8357" xlink:href="#k" y1="42.611" y2="56.2179"/><linearGradient id="o" gradientUnits="userSpaceOnUse" x1="15.0418" x2="15.0418" y1="28.622" y2="45.293"><stop offset=".229" stop-color="#f9b700"/><stop offset=".4619" stop-color="#f7aa01"/><stop offset=".6217" stop-color="#f59e01"/><stop offset=".7153" stop-color="#ef9903"/><stop offset=".8347" stop-color="#e08b0a"/><stop offset=".9676" stop-color="#c67415"/><stop offset=".9877" stop-color="#c17017"/></linearGradient><radialGradient id="p" cx="32.0845" cy="29.1815" gradientTransform="matrix(.9988 -.0481 .0816 1.6964 -2.3444 -18.779)" gradientUnits="userSpaceOnUse" r="21.2626"><stop offset=".0102" stop-color="#ffe12c"/><stop offset=".184" stop-color="#feda24"/><stop offset=".4506" stop-color="#fbc50f"/><stop offset=".5971" stop-color="#f9b700"/><stop offset=".8361" stop-color="#f7aa01"/><stop offset="1" stop-color="#f59e01"/></radialGradient><linearGradient id="q"><stop offset=".229" stop-color="#f9b700"/><stop offset=".6475" stop-color="#f7aa01"/><stop offset=".9346" stop-color="#f59e01"/></linearGradient><linearGradient id="r" gradientUnits="userSpaceOnUse" x1="36.2546" x2="36.2546" xlink:href="#q" y1="38.363" y2="42"/><linearGradient id="s" gradientUnits="userSpaceOnUse" x1="35.0292" x2="35.0292" xlink:href="#q" y1="42" y2="43.818"/><linearGradient id="t" gradientUnits="userSpaceOnUse" x1="35.0292" x2="35.0292" xlink:href="#q" y1="36.545" y2="38.363"/><path d="m29.191 35.963v10.131s2.298.018 2.81 1.521c.511-1.504 2.809-1.521 2.809-1.521v-10.131z" fill="url(#b)"/><path d="m35.856 52.168c-.214-.973.895-3.438-1.279-4.035-1.722-.475-2.577 1.314-2.577 1.314s-.854-1.789-2.578-1.314c-2.174.598-1.063 3.063-1.277 4.035-.543 2.469-2.522 2.469-2.522 2.469s.951 1.619 2.511 1.619c1.13 0 1.439-.695 1.439-.695-.243 2.695 2.427 6.439 2.427 6.439s2.669-3.744 2.428-6.439c0 0 .31.695 1.44.695 1.559 0 2.511-1.619 2.511-1.619s-1.981 0-2.523-2.469z" fill="url(#c)"/><path d="m44.597 25.817c-12.52 6.973-9.953 26.325-1.575 29.55 11.995 4.619 11.575-14.906 3.787-12.813 4.946 8.6-8.943 10.143-6.526-2.791 2.063-11.023 18.732-9.762 14.832 5.529 13.58-2.622 5.488-28.386-10.518-19.475z" fill="url(#e)"/><path d="m19.404 25.817c12.521 6.973 9.952 26.325 1.575 29.55-11.995 4.619-11.575-14.906-3.787-12.812-4.947 8.6 8.943 10.143 6.526-2.791-2.062-11.023-18.732-9.762-14.834 5.529-13.58-2.623-5.486-28.387 10.52-19.476z" fill="url(#f)"/><path d="m32 2s-8.949 10.055-8.019 19.962c.764 8.146 5.902 14.384 5.902 19.374 0 0 1.492.014 2.116 1.262.624-1.248 2.116-1.262 2.116-1.262 0-4.99 5.14-11.229 5.902-19.374.931-9.909-8.017-19.962-8.017-19.962z" fill="url(#g)"/><path d="m32 2-.001 40.598c.624-1.248 2.116-1.262 2.116-1.262 0-4.99 5.14-11.229 5.902-19.374.931-9.909-8.017-19.962-8.017-19.962z" fill="url(#h)"/><path d="m32 37v10.615c.511-1.504 2.809-1.521 2.809-1.521v-9.094z" fill="url(#i)"/><path d="m35.856 52.168c-.214-.973.895-3.438-1.279-4.035-1.722-.475-2.577 1.314-2.577 1.314v12.553s2.669-3.744 2.428-6.439c0 0 .31.695 1.44.695 1.559 0 2.511-1.619 2.511-1.619s-1.981 0-2.523-2.469z" fill="url(#j)"/><path d="m35.968 42.611c.288 5.873 2.986 11.348 7.034 12.906 8.688 3.346 10.856-6.127 8.436-10.725 1.854 10.292-11.728 14.44-15.47-2.181z" fill="url(#l)"/><path d="m44.78 30.068c-4.034 2.217-4.986 7.449-4.498 9.695 2.007-10.726 18.659-9.476 14.832 5.529 6.26-6.479.8-21.34-10.334-15.224z" fill="url(#m)"/><path d="m28.033 42.611c-.288 5.873-2.987 11.348-7.034 12.906-8.688 3.346-10.857-6.127-8.436-10.725-1.855 10.292 11.728 14.44 15.47-2.181z" fill="url(#n)"/><path d="m19.22 30.068c4.034 2.217 4.985 7.449 4.498 9.695-2.008-10.725-18.659-9.475-14.834 5.53-6.258-6.48-.798-21.341 10.336-15.225z" fill="url(#o)"/><path d="m42.25 42h-.002-.642c1.685 0 1.685-3.637 0-3.637h.001.643c.828 0 .828-1.818 0-1.818h-.002-20.496c-.828 0-.828 1.818 0 1.818h.64c-1.67.003-1.679 3.584-.03 3.632.011 0 .019.004.03.004h-.64c-.828 0-.828 1.818 0 1.818h20.498c.828.001.828-1.817 0-1.817z" fill="url(#p)"/><g fill="#ffe463"><path d="m28.394 50.002c.054.502.763-.48 1.482-1.324.464-.543-1.645-.186-1.482 1.324z"/><path d="m23.424 47.07c.139-.715-.846 2.533-4.452 2.635-1.024.029 3.652 1.475 4.452-2.635z"/><path d="m48.193 46.756c-.104-.658.061 2.381-2.988 2.902-.866.147 3.574.889 2.988-2.902z"/></g><path d="m41.606 42h-11.967c13.232 0 11.967-3.637 11.967-3.637 1.685 0 1.685 3.637 0 3.637z" fill="url(#r)"/><path d="m42.25 43.818h-15.063c17.303 0 15.063-1.818 15.063-1.818.828 0 .828 1.818 0 1.818z" fill="url(#s)"/><path d="m42.25 38.363h-15.063c17.303 0 15.063-1.818 15.063-1.818.828 0 .828 1.818 0 1.818z" fill="url(#t)"/></svg>