<svg enable-background="new 0 0 64 64" height="64" viewBox="0 0 64 64" width="64" xmlns="http://www.w3.org/2000/svg" xmlns:xlink="http://www.w3.org/1999/xlink"><linearGradient id="a" gradientUnits="userSpaceOnUse" x1="32.0005" x2="32.0005" y1="62" y2="2"><stop offset="0" stop-color="#f9c802"/><stop offset="1" stop-color="#ffe12c"/></linearGradient><path d="m5.9 62c-3.313 0-4.811-2.379-3.328-5.291l26.734-52.527c1.48-2.91 3.907-2.91 5.387 0l26.734 52.527c1.483 2.912-.017 5.291-3.329 5.291z" fill="url(#a)"/><path d="m29.542 41.309-1.086-11.166v-8.057c0-.697.389-1.085 1.086-1.085h4.915c.697 0 1.086.388 1.086 1.085v8.057l-1.086 11.166c-.068.65-.48.947-1.097.947h-2.72c-.617 0-1.029-.297-1.098-.947zm-.799 10.605v-4.344c0-.697.389-1.084 1.086-1.084h4.343c.697 0 1.086.387 1.086 1.084v4.344c0 .697-.389 1.086-1.086 1.086h-4.343c-.698 0-1.086-.389-1.086-1.086z" fill="#1a1626"/></svg>