<svg enable-background="new 0 0 64 64" height="64" viewBox="0 0 64 64" width="64" xmlns="http://www.w3.org/2000/svg" xmlns:xlink="http://www.w3.org/1999/xlink"><radialGradient id="a" cx="26.57021616" cy="24.95604654" gradientUnits="userSpaceOnUse" r="34.26710502"><stop offset=".2727" stop-color="#fafdff"/><stop offset=".4936" stop-color="#f7fafc"/><stop offset=".6732" stop-color="#edf2f4"/><stop offset=".8379" stop-color="#dce3e7"/><stop offset=".9273" stop-color="#cfd8dd"/></radialGradient><circle cx="32" cy="32" fill="url(#a)" r="30"/><path d="m57.393 42.461c1.351 1.156 2.964-.354 3.035-2.011-1.561-.455-.858.954-3.035 2.011z" fill="#e81c27"/><path d="m60.279 40.7c-10.372-8.971-18.486-21.375-21.551-36.852 1.094 15.42 10.436 28.882 21.551 36.852z" fill="#4e5e67"/><path d="m42.284 4.763c-1.518 1.303-1.581-.774-4.205-.505.943-1.806 3.741-.866 4.205.505z" fill="#e81c27"/><path d="m38.968 4.984c.131-2.149-2.643-2.99-3.837-2.203.637 1.982 1.43.401 3.837 2.203z" fill="#e81c27"/><path d="m42.735 6.853c-1.518 1.303-1.555-.391-4.178-.121.943-1.806 3.714-1.251 4.178.121z" fill="#e81c27"/><path d="m39.658 7.688c.131-2.148-2.643-2.989-3.837-2.203.637 1.982 1.43.401 3.837 2.203z" fill="#e81c27"/><path d="m43.662 10.085c-1.363 1.471-1.588-.207-4.165.363.737-1.903 3.552-1.671 4.165-.363z" fill="#e81c27"/><path d="m40.697 11.272c-.107-2.149-2.957-2.664-4.057-1.744.853 1.895 1.465.233 4.057 1.744z" fill="#e81c27"/><path d="m45.08 13.606c-1.249 2.024-1.887.133-4.744 1.4.425-2.378 3.739-2.772 4.744-1.4z" fill="#e81c27"/><path d="m41.894 15.774c-.127-2.54-3.493-3.147-4.792-2.062 1.006 2.24 1.73.276 4.792 2.062z" fill="#e81c27"/><path d="m46.502 16.962c-1.641 1.643-2.238 3.246-3.603 2.798.168-2.686 2.14-3.635 3.603-2.798z" fill="#e81c27"/><path d="m44.391 20.696c-.413-2.509-3.455-2.899-4.993-1.482 1.252 2.104 1.749.068 4.993 1.482z" fill="#e81c27"/><path d="m49.016 21.563c-.838 2.187-.74 3.899-2.165 4.063-.923-2.522.495-4.213 2.165-4.063z" fill="#e81c27"/><path d="m47.701 26.15c-.412-2.509-3.455-2.899-4.993-1.482 1.253 2.105 1.751.069 4.993 1.482z" fill="#e81c27"/><path d="m49.501 30.059c.129-2.345-.485-3.94.817-4.55 1.647 2.1.816 4.16-.817 4.55z" fill="#e81c27"/><path d="m50.46 30.171c-1.454-2.063-4.353-1.04-5.12.926 2.034 1.321 1.6-.73 5.12-.926z" fill="#e81c27"/><path d="m52.859 34.495c.128-2.344-.486-3.939.816-4.549 1.647 2.101.816 4.159-.816 4.549z" fill="#e81c27"/><path d="m53.818 34.607c-1.455-2.063-4.353-1.04-5.12.926 2.033 1.322 1.6-.728 5.12-.926z" fill="#e81c27"/><path d="m55.456 37.417c.118-2.164-.449-3.638.754-4.2 1.52 1.939.753 3.841-.754 4.2z" fill="#e81c27"/><path d="m52.025 39.233c1.871 1.36 4.105-.416 4.205-2.367-2.162-.537-1.186 1.124-4.205 2.367z" fill="#e81c27"/><path d="m57.911 39.71c.112-2.164-.424-3.638.713-4.2 1.439 1.939.713 3.841-.713 4.2z" fill="#e81c27"/><path d="m54.668 41.526c1.77 1.36 3.883-.416 3.976-2.367-2.044-.536-1.122 1.124-3.976 2.367z" fill="#e81c27"/><path d="m59.869 40.899c.085-1.867-.324-3.14.544-3.626 1.098 1.675.544 3.316-.544 3.626z" fill="#e81c27"/><path d="m27.849 60.605c11.575-22.517-12.5-36.274-23.521-38.451 10.236-1.237 37.8 17.753 23.521 38.451z" fill="#4e5e67"/><g fill="#e81c27"><path d="m4.428 25.889c1.029-.401-.375-1.75.425-4.042-1.134-.549-1.464 2.299-.425 4.042z"/><path d="m4.801 22.544c-1.035-1.314-.207-3.93 1.211-3.643.603 1.863-.933.727-1.211 3.643z"/><path d="m6.15 26.804c1.243-.446-.451-1.94.514-4.481-1.369-.608-1.768 2.547-.514 4.481z"/><path d="m6.601 23.096c-1.249-1.457-.249-4.356 1.462-4.039-.442 2.09-1.208 2.006-1.462 4.039z"/><path d="m8.849 27.702c1.311-.414-.403-2.004.688-4.575-1.406-.671-1.928 2.551-.688 4.575z"/><path d="m9.444 23.917c-1.251-1.536-.167-3.956 1.659-4.091-.331 2.028-1.274 2.131-1.659 4.091z"/><path d="m12.467 28.686c1.538-.148-.393-1.82.973-3.891-1.606-.817-2.336 1.916-.973 3.891z"/><path d="m13.283 25.425c-1.332-1.823-.051-4.147 1.975-3.96-.436 2.052-1.483 1.989-1.975 3.96z"/><path d="m15.973 30.419c1.538-.147-.393-1.819.973-3.891-1.606-.816-2.336 1.917-.973 3.891z"/><path d="m16.71 27.435c-1.137-2.258.698-4.583 2.897-4.001-.852 2.181-1.996 1.918-2.897 4.001z"/><path d="m19.904 33.628c1.896.355-.146-2.042 1.887-3.764-1.802-1.392-3.183 1.237-1.887 3.764z"/><path d="m23.17 37.135c1.727 1.035.502-2.01 3.02-2.913-1.311-1.995-3.481.017-3.02 2.913z"/><path d="m26.072 42.189c1.727 1.034.502-2.011 3.02-2.914-1.31-1.995-3.481.019-3.02 2.914z"/><path d="m26.948 46.271c1.266 1.85 1.383-1.789 4.287-1.521-.429-2.621-3.474-1.609-4.287 1.521z"/><path d="m34.298 54.854c.521-1.575-1.925-.008-3.333-1.833-1.482 1.429.841 2.763 3.333 1.833z"/><path d="m31.68 47.893c-1.807 1.657.658 3.138 3.547 2.034.744-1.807-2.157.024-3.547-2.034z"/><path d="m30.959 44.685c-1.332-2.066 1.425-2.867 3.941-1.059.266 1.937-2.079-.576-3.941 1.059z"/><path d="m28.929 39.667c-1.331-2.066 1.426-2.867 3.941-1.059.267 1.938-2.079-.576-3.941 1.059z"/><path d="m25.978 34.707c-1.951-1.479.366-3.187 3.344-2.358.907 1.728-2.149.178-3.344 2.358z"/><path d="m21.889 30.641c-2.544-1.091-.368-3.685 3.165-3.625 1.436 1.675-2.361.828-3.165 3.625z"/><path d="m27.73 53.355c.145-1.405 1.494.675 3.219-.241.652 1.633-1.61 1.844-3.219.241z"/><path d="m27.805 49.93c-.45-1.75 2.092.135 3.754-1.744 1.505 1.663-1.115 2.94-3.754 1.744z"/><path d="m32.911 58.749c.498-1.651-1.841-.008-3.188-1.922-1.415 1.499.804 2.899 3.188 1.922z"/><path d="m26.737 56.381c.357-1.427 1.302.962 3.072.319.357 1.803-1.809 1.621-3.072-.319z"/><path d="m31.021 61.726c.637-1.313-1.679-.234-2.695-1.994-1.458 1.072.412 2.51 2.695 1.994z"/><path d="m25.557 59.232c.484-1.143 1.081.962 2.768.646.125 1.545-1.83 1.126-2.768-.646z"/></g></svg>