<svg enable-background="new 0 0 64 64" height="64" viewBox="0 0 64 64" width="64" xmlns="http://www.w3.org/2000/svg" xmlns:xlink="http://www.w3.org/1999/xlink"><radialGradient id="a" cx="29.4736" cy="71.2139" gradientTransform="matrix(1 0 0 1.0597 0 -33.9715)" gradientUnits="userSpaceOnUse" r="18.8258"><stop offset="0" stop-color="#fff"/><stop offset=".2711" stop-color="#fbfbfc"/><stop offset=".5561" stop-color="#eef1f3"/><stop offset=".8466" stop-color="#d9e0e5"/><stop offset="1" stop-color="#cbd4db"/></radialGradient><radialGradient id="b" cx="28.4966" cy="50.4111" gradientTransform="matrix(1.0617 0 0 1.0568 -.8743 -33.1213)" gradientUnits="userSpaceOnUse" r="12.3443"><stop offset="0" stop-color="#fff"/><stop offset=".2606" stop-color="#f8f9fa"/><stop offset=".6522" stop-color="#e3e8ec"/><stop offset="1" stop-color="#cbd4db"/></radialGradient><radialGradient id="c" cx="32.9448" cy="55.6914" gradientTransform="matrix(.9496 0 0 2.6419 .7137 -121.4005)" gradientUnits="userSpaceOnUse" r="2.5507"><stop offset="0" stop-color="#ffd500"/><stop offset=".9091" stop-color="#f80"/></radialGradient><radialGradient id="d" cx="172.002" cy="-167.6675" gradientTransform="matrix(.9138 -.2038 1.1773 5.2936 68.8832 931.8279)" gradientUnits="userSpaceOnUse" r="7.6148"><stop offset="0" stop-color="#1a1626"/><stop offset=".1928" stop-color="#1d1929"/><stop offset=".3233" stop-color="#262232"/><stop offset=".4349" stop-color="#353141"/><stop offset=".497" stop-color="#413d4d"/><stop offset=".7091" stop-color="#413d4d"/><stop offset=".7227" stop-color="#3d3949"/><stop offset=".814" stop-color="#2a2636"/><stop offset=".9062" stop-color="#1e1a2a"/><stop offset="1" stop-color="#1a1626"/></radialGradient><path d="m49.162 48.053c0 12.868-7.685 13.947-17.162 13.947-9.479 0-17.162-1.079-17.162-13.947 0-10.045 7.684-18.188 17.162-18.188 9.479 0 17.162 8.143 17.162 18.188z" fill="url(#a)"/><path d="m45.106 23.527c0 9.87-5.866 13.047-13.107 13.047-7.238 0-13.106-3.177-13.106-13.047 0-7.203 5.869-13.044 13.106-13.044 7.241 0 13.107 5.841 13.107 13.044z" fill="url(#b)"/><g fill="#302c3b"><path d="m27.616 22.893c0 2.654-4 2.654-4 0 0-2.656 4-2.656 4 0z"/><path d="m40.383 22.893c0 2.654-4 2.654-4 0 0-2.656 4-2.656 4 0z"/><path d="m32 43.131c-2.666 0-2.666-3.979 0-3.979 2.666-.001 2.666 3.979 0 3.979z"/><path d="m32 52.743c-2.666 0-2.666-3.979 0-3.979 2.666.001 2.666 3.979 0 3.979z"/></g><path d="m34.295 27.884c0 1.696-1.205 5.007-2.294 5.009-1.091-.002-2.297-3.432-2.297-5.009 0-2.631 4.591-2.838 4.591 0z" fill="url(#c)"/><path d="m8.605 33.214c.702-.224-.519-1.857-1.447-1.62-2.063.526-4.702-.079-4.882.146-.38.476-.324 1.334-.095 1.334 2.652-.002 4.783.664 6.424.14z" fill="#9e6c49"/><path d="m4.865 24.803c4.861 9.611 12.003 12.268 13.92 14.186.521.521-1.188 2.229-1.71 1.706-1.916-1.913-8.958-4.702-13.473-15.088-.223-.513.967-1.388 1.263-.804z" fill="#b47d56"/><path d="m55.395 33.214c-.703-.224.518-1.857 1.445-1.62 2.064.526 4.704-.079 4.884.146.381.476.323 1.334.095 1.334-2.653-.002-4.784.664-6.424.14z" fill="#9e6c49"/><path d="m59.135 24.803c-4.861 9.611-12.002 12.268-13.92 14.186-.521.521 1.188 2.229 1.711 1.706 1.915-1.913 8.957-4.702 13.472-15.088.222-.513-.967-1.388-1.263-.804z" fill="#b47d56"/><path d="m29.727 14.051c-3.435.767-11.306-.753-10.812 1.461.423 1.91 4.547 3.387 11.544 1.826 6.994-1.559 10.102-4.649 9.679-6.558-.493-2.217-6.976 2.503-10.411 3.271z" fill="#302c3b"/><path d="m29.612 13.527c-6.097 1.362-10.902.147-10.502 1.941.338 1.522 4.621 3.036 11.279 1.552 6.656-1.484 9.892-4.676 9.552-6.195-.398-1.797-4.234 1.344-10.329 2.702z" fill="#302c3b"/><path d="m34.924 2.365c-4.991.911-9.949 2.016-14.855 3.313.003-.001 1.294 3.024 2.491 7.732.023 2.835 7.272 1.103 7.28 1.15-.012-.047 7.286-1.559 6.105-4.135-.911-4.772-1.026-8.059-1.021-8.06z" fill="url(#d)"/><path d="m35.945 10.427c.504 1.646-4.06 2.79-6.287 3.313-2.238.475-6.858 1.379-7.099-.328-.206.173.336 1.564.625 2.449.241.708 3.087 1.253 7.028.37 3.94-.876 6.287-2.577 6.205-3.321-.11-.926-.212-2.414-.472-2.483z" fill="#e81c27"/><path d="m20.069 5.679c.344 1.083 15.005-2.183 14.855-3.313-.222-1.473-15.278 1.883-14.855 3.313z" fill="#302c3b"/><path d="m20.252 5.837c1.618.527 13.332-2.086 14.574-3.25-2.326 1.146-11.984 3.301-14.574 3.25z" fill="#302c3b"/></svg>