<svg enable-background="new 0 0 64 64" height="64" viewBox="0 0 64 64" width="64" xmlns="http://www.w3.org/2000/svg" xmlns:xlink="http://www.w3.org/1999/xlink"><linearGradient id="a" gradientUnits="userSpaceOnUse" x1="17.7744" x2="44.2236" y1="46.5" y2="46.5"><stop offset="0" stop-color="#f80"/><stop offset=".2113" stop-color="#ffa113"/><stop offset=".5427" stop-color="#ffc32b"/><stop offset=".8176" stop-color="#ffd83a"/><stop offset="1" stop-color="#ffdf40"/></linearGradient><radialGradient id="b" cx="30.6602" cy="41.0371" gradientUnits="userSpaceOnUse" r="13.5359"><stop offset="0" stop-color="#fff5bf"/><stop offset=".1612" stop-color="#fff4ba"/><stop offset=".3513" stop-color="#fff1ac"/><stop offset=".556" stop-color="#ffeb94"/><stop offset=".7711" stop-color="#ffe373"/><stop offset=".9922" stop-color="#ffd949"/><stop offset="1" stop-color="#ffd947"/></radialGradient><linearGradient id="c" gradientUnits="userSpaceOnUse" x1="32.0015" x2="32.0015" y1="30.5713" y2="3.4277"><stop offset="0" stop-color="#d9f5ff"/><stop offset="1" stop-color="#fff"/></linearGradient><linearGradient id="d" gradientUnits="userSpaceOnUse" x1="32.0005" x2="32.0005" y1="32" y2="2"><stop offset="0" stop-color="#ffec8c"/><stop offset=".0144" stop-color="#eae298"/><stop offset=".0405" stop-color="#c9d4ab"/><stop offset=".0675" stop-color="#b0c9b9"/><stop offset=".0954" stop-color="#9dc0c4"/><stop offset=".1247" stop-color="#93bcca"/><stop offset=".1576" stop-color="#8fbacc"/><stop offset=".3731" stop-color="#9cc6d8"/><stop offset=".7163" stop-color="#abd4e6"/><stop offset="1" stop-color="#b0d9eb"/></linearGradient><linearGradient id="e"><stop offset="0" stop-color="#adf1ff"/><stop offset=".159" stop-color="#a9f0ff"/><stop offset=".3113" stop-color="#9eedff"/><stop offset=".461" stop-color="#8ae8ff"/><stop offset=".609" stop-color="#6fe1ff"/><stop offset=".7558" stop-color="#4cd8ff"/><stop offset=".8998" stop-color="#22cdff"/><stop offset="1" stop-color="#00c4ff"/></linearGradient><radialGradient id="f" cx="-189.957" cy="94.7305" gradientTransform="matrix(.7831 .285 -.6297 1.73 222.0335 -69.2969)" gradientUnits="userSpaceOnUse" r="2.7458" xlink:href="#e"/><radialGradient id="g" cx="-149.2998" cy="82.3984" gradientTransform="matrix(.7831 .285 -.6297 1.73 218.4864 -59.5513)" gradientUnits="userSpaceOnUse" r="2.7461" xlink:href="#e"/><radialGradient id="h" cx="-185.7041" cy="107.3916" gradientTransform="matrix(.7831 .285 -.6297 1.73 225.6752 -79.3025)" gradientUnits="userSpaceOnUse" r="2.7461" xlink:href="#e"/><radialGradient id="i" cx="-143.9189" cy="94.7178" gradientTransform="matrix(.7831 .285 -.6297 1.73 222.0298 -69.2869)" gradientUnits="userSpaceOnUse" r="2.7461" xlink:href="#e"/><radialGradient id="j" cx="-155.9229" cy="98.3594" gradientTransform="matrix(.7831 .285 -.6297 1.73 223.0773 -72.1647)" gradientUnits="userSpaceOnUse" r="2.7457" xlink:href="#e"/><radialGradient id="k" cx="-175.6963" cy="104.3564" gradientTransform="matrix(.7831 .285 -.6297 1.73 224.8022 -76.9039)" gradientUnits="userSpaceOnUse" r="2.7461" xlink:href="#e"/><path d="m44.224 38.264h-12.207l2.681-7.264h-10.49l-6.434 14.046h12.886l-5.426 16.954z" fill="url(#a)"/><path d="m40.833 39.62h-10.852l3.346-8.62h-7.468l-5.372 12.689h12.207l-4.747 13.564z" fill="url(#b)"/><path d="m18.195 30.571c-.816 0-1.627-.119-2.404-.362-3.143-.968-5.256-3.693-5.256-6.779 0-2.06.959-4.021 2.627-5.38.434-.353.9-.655 1.402-.906l-.025-.003.51-1.652c1.268-4.125 5.365-7.006 9.965-7.006.459 0 .93.035 1.48.108.422.058.84.136 1.246.24l.203-.343c1.855-3.121 5.385-5.061 9.205-5.061 5.803 0 10.523 4.4 10.523 9.811 0 .266-.018.523-.043.782l-.014.19c.445.159.881.354 1.303.581 2.805 1.507 4.549 4.314 4.549 7.323 0 3.962-2.893 7.352-7.033 8.235-.676.146-1.363.221-2.035.221h-26.203z" fill="url(#c)"/><path d="m37.148 4.856c4.965 0 8.988 3.753 8.988 8.382 0 .227-.018.445-.037.664-2.074.151-3.965.923-5.449 2.123 1.105-.592 2.381-.935 3.748-.935.504 0 .996.048 1.477.134.813.152 1.578.43 2.275.806 2.262 1.212 3.783 3.479 3.783 6.085 0 3.336-2.496 6.127-5.842 6.844-.545.117-1.109.187-1.693.187h-26.203c-.67 0-1.316-.106-1.92-.294-2.443-.75-4.205-2.893-4.205-5.422 0-1.721.813-3.258 2.102-4.304.584-.476 1.262-.846 2.008-1.092.631-.202 1.311-.32 2.016-.32 1.977 0 3.729.874 4.852 2.229h.057c-1.301-2.232-3.734-3.809-6.584-4.062 1.061-3.443 4.459-5.97 8.494-5.97.43 0 .85.038 1.262.094.822.111 1.602.32 2.332.623 2.719 1.131 4.705 3.501 5.146 6.341 0-.016.004-.034.004-.049 0-3.233-1.781-6.08-4.477-7.739 1.536-2.577 4.48-4.325 7.866-4.325m0-2.856c-4.133 0-7.969 1.98-10.178 5.213-.084-.014-.168-.024-.254-.037-.633-.083-1.172-.121-1.703-.121-5.279 0-9.982 3.305-11.439 8.04l-.35 1.128c-.375.223-.734.477-1.072.754-2.002 1.627-3.152 3.979-3.152 6.453 0 3.705 2.537 6.974 6.314 8.136.926.288 1.899.434 2.881.434h26.203c.789 0 1.59-.085 2.385-.258 4.838-1.036 8.217-4.994 8.217-9.627 0-3.52-2.035-6.802-5.314-8.563-.158-.083-.32-.165-.48-.241 0-.025 0-.045 0-.072-.001-6.198-5.411-11.239-12.058-11.239z" fill="url(#d)"/><path d="m15.198 36.354c-2.501 2-4.262 4.038-4.968 5.979-.601 1.65.016 3.392 1.378 3.888s2.954-.441 3.556-2.092c.706-1.941.655-4.686.034-7.775z" fill="url(#f)"/><path d="m51.254 36.354c-2.501 2-4.262 4.038-4.968 5.979-.601 1.65.016 3.392 1.378 3.888s2.954-.441 3.556-2.092c.706-1.941.655-4.686.034-7.775z" fill="url(#g)"/><path d="m14.198 49.465c-2.501 2-4.262 4.038-4.968 5.979-.601 1.65.016 3.392 1.378 3.888s2.954-.441 3.556-2.092c.706-1.941.655-4.686.034-7.775z" fill="url(#h)"/><path d="m51.254 49.465c-2.501 2-4.262 4.038-4.968 5.979-.601 1.65.016 3.392 1.378 3.888s2.954-.441 3.556-2.092c.706-1.941.655-4.686.034-7.775z" fill="url(#i)"/><path d="m40.608 49.465c-2.501 2-4.262 4.038-4.968 5.979-.601 1.65.016 3.392 1.378 3.888s2.954-.441 3.556-2.092c.706-1.941.655-4.686.034-7.775z" fill="url(#j)"/><path d="m23.073 49.465c-2.501 2-4.262 4.038-4.968 5.979-.601 1.65.016 3.392 1.378 3.888s2.954-.441 3.556-2.092c.706-1.941.655-4.686.034-7.775z" fill="url(#k)"/></svg>