<svg enable-background="new 0 0 64 64" height="64" viewBox="0 0 64 64" width="64" xmlns="http://www.w3.org/2000/svg" xmlns:xlink="http://www.w3.org/1999/xlink"><linearGradient id="a" gradientTransform="matrix(.7071 -.7071 .7071 .7071 -199.3346 67.127)" gradientUnits="userSpaceOnUse" x1="184.0449" x2="192.8291" y1="150.0938" y2="150.0938"><stop offset=".1576" stop-color="#f5cfa0"/><stop offset=".5345" stop-color="#d2a378"/><stop offset=".8364" stop-color="#b47d56"/></linearGradient><linearGradient id="b" gradientTransform="matrix(.7071 -.7071 .7071 .7071 -199.3346 67.127)" gradientUnits="userSpaceOnUse" x1="188.4375" x2="188.4375" y1="177.9355" y2="161.8105"><stop offset=".0182" stop-color="#3d2a1d" stop-opacity=".4"/><stop offset=".0747" stop-color="#63442f" stop-opacity=".2992"/><stop offset=".1498" stop-color="#8f6344" stop-opacity=".1652"/><stop offset=".2082" stop-color="#aa7651" stop-opacity=".061"/><stop offset=".2424" stop-color="#b47d56" stop-opacity="0"/></linearGradient><linearGradient id="c" gradientTransform="matrix(.7071 -.7071 .7071 .7071 -199.3346 67.127)" gradientUnits="userSpaceOnUse" x1="188.6094" x2="188.6094" y1="138.5127" y2="120.7639"><stop offset=".4182" stop-color="#b47d56" stop-opacity="0"/><stop offset=".4727" stop-color="#aa7651" stop-opacity=".0915"/><stop offset=".5659" stop-color="#8f6344" stop-opacity=".2478"/><stop offset=".6856" stop-color="#63442f" stop-opacity=".4487"/><stop offset=".7758" stop-color="#3d2a1d" stop-opacity=".6"/></linearGradient><radialGradient id="d" cx="-9.4316" cy="95.9258" gradientTransform="matrix(-.6932 .6929 .7971 .7968 -63.1257 -50.026)" gradientUnits="userSpaceOnUse" r="22.8148"><stop offset="0" stop-color="#565e61"/><stop offset=".0208" stop-color="#596164"/><stop offset=".3364" stop-color="#878f93"/><stop offset=".6161" stop-color="#a8b0b5"/><stop offset=".8469" stop-color="#bdc5ca"/><stop offset="1" stop-color="#c4ccd1"/></radialGradient><linearGradient id="e" gradientTransform="matrix(-.7071 .7071 .7071 .7071 -4.4731 1.8534)" gradientUnits="userSpaceOnUse" x1="-35.501" x2="26.5405" y1="30.8457" y2="30.8457"><stop offset=".3939" stop-color="#b0b8bd"/><stop offset=".4131" stop-color="#a9b1b6"/><stop offset=".4406" stop-color="#979fa3"/><stop offset=".4729" stop-color="#788084"/><stop offset=".503" stop-color="#565e61"/></linearGradient><path d="m41.768 36.379c-6.813-6.857-9.958-7.845-18.104-17.579-1.095-1.306-5.877 3.508-4.578 4.611 9.668 8.2 10.648 11.364 17.464 18.224 4.733 4.765 9.092 7.698 18.93 20.021.703.881 2.296.008 4.243-1.952 1.943-1.959 2.813-3.563 1.936-4.274-12.242-9.9-15.161-14.288-19.891-19.051z" fill="url(#a)"/><path d="m45.946 50.677c2.555 2.641 5.608 6.062 9.533 10.979.703.881 2.296.008 4.243-1.952 1.943-1.959 2.813-3.563 1.936-4.274-4.874-3.939-8.266-7.006-10.886-9.572z" fill="url(#b)"/><path d="m27.63 31.598 4.2-4.166c-2.278-2.068-4.791-4.598-8.166-8.632-1.095-1.306-5.877 3.508-4.578 4.611 3.982 3.381 6.494 5.905 8.544 8.187z" fill="url(#c)"/><path d="m14.374 14.369c12.514-12.508 25.259-14.246 32.854-10.84-11.296-1.066-27.756 15.936-27.756 15.936s-17.009 16.451-15.943 27.743c-3.408-7.592-1.669-20.331 10.845-32.839z" fill="url(#d)"/><path d="m3.617 47.456c-3.703-10.295 1.597-21.984 11.73-32.114 10.135-10.13 21.83-15.427 32.13-11.725.116.042.112.18.004.176-7.126-.194-20.032 8.006-24.36 18.178-.098.228-.288.475-.478.664s-.436.38-.664.478c-10.177 4.325-18.38 17.225-18.186 24.347.003.109-.133.112-.176-.004z" fill="url(#e)"/></svg>