<svg enable-background="new 0 0 64 64" height="64" viewBox="0 0 64 64" width="64" xmlns="http://www.w3.org/2000/svg" xmlns:xlink="http://www.w3.org/1999/xlink"><linearGradient id="a"><stop offset="0" stop-color="#d40000"/><stop offset=".5152" stop-color="#ff3030"/></linearGradient><linearGradient id="b" gradientUnits="userSpaceOnUse" x1="32.0005" x2="32.0005" xlink:href="#a" y1="33.6328" y2="5.1479"/><linearGradient id="c" gradientUnits="userSpaceOnUse" x1="32.0005" x2="32.0005" y1="42" y2="3.4946"><stop offset="0" stop-color="#730000"/><stop offset=".5152" stop-color="#cf2727"/></linearGradient><linearGradient id="d" gradientUnits="userSpaceOnUse" x1="32.0005" x2="32.0005" xlink:href="#a" y1="34.2324" y2="2.001"/><path d="m32 57.588c-12.15 0-22-4.203-22-15.777-2.243-1.71-4-1-4-1 0 13.678 11.641 21.004 26 21.004s26-7.326 26-21.004c0 0-2.38-.405-4 1 0 11.574-9.85 15.777-22 15.777z" fill="#785647"/><g fill="#45332c"><path d="m58 40.811-4 1v-3.811h4z"/><path d="m10 41.811-4-1v-2.811h4z"/><path d="m39.349 62h-14.7c-3.161 0-3.161-5.396 0-5.396h14.699c3.164 0 3.164 5.396.001 5.396z"/></g><path d="m59 33.633h-54c0-17.855 6.753-28.486 26.999-28.486s27.001 10.631 27.001 28.486z" fill="url(#b)"/><path d="m43.543 31.664v-24.988l-11.54-3.182-11.543 3.181v24.989c-10.841 1.254-18.46 2.079-18.46 2.079 0 11.009 60 11.009 60 0 0 0-7.617-.825-18.457-2.079z" fill="url(#c)"/><path d="m3.478 35.146c7.113 7.873 49.933 7.873 57.046 0-9.846 6.418-47.202 6.418-57.046 0z" fill="#ff6854"/><path d="m22.458 6.088v26.157c0 2.649 19.084 2.649 19.084 0v-26.157c0-5.45-19.084-5.45-19.084 0z" fill="url(#d)"/><path d="m30 12h4v16h-4z" fill="#fff"/><path d="m24 18h16v4h-16z" fill="#fff"/></svg>