<svg enable-background="new 0 0 64 64" height="64" viewBox="0 0 64 64" width="64" xmlns="http://www.w3.org/2000/svg" xmlns:xlink="http://www.w3.org/1999/xlink"><linearGradient id="a"><stop offset="0" stop-color="#6e787a"/><stop offset=".0084" stop-color="#727c7e"/><stop offset=".0968" stop-color="#9da5a7"/><stop offset=".1765" stop-color="#bcc3c5"/><stop offset=".2439" stop-color="#cfd5d7"/><stop offset=".2909" stop-color="#d6dbde"/><stop offset=".7515" stop-color="#6e787a"/></linearGradient><linearGradient id="b" gradientUnits="userSpaceOnUse" x1="37.832" x2="54.9198" xlink:href="#a" y1="26.0669" y2="8.9791"/><linearGradient id="c" gradientUnits="userSpaceOnUse" x1="36.751" x2="56" xlink:href="#a" y1="46.4766" y2="46.4766"/><linearGradient id="d" gradientUnits="userSpaceOnUse" x1="43.626" x2="49.126" xlink:href="#a" y1="32" y2="32"/><linearGradient id="e" gradientUnits="userSpaceOnUse" x1="43.626" x2="49.126" xlink:href="#a" y1="8.271" y2="8.271"/><linearGradient id="f" gradientUnits="userSpaceOnUse" x1="43.626" x2="49.126" xlink:href="#a" y1="55.7285" y2="55.7285"/><linearGradient id="g" gradientUnits="userSpaceOnUse" x1="7.7163" x2="27.5317" xlink:href="#a" y1="26.2793" y2="37.7197"/><linearGradient id="h" gradientUnits="userSpaceOnUse" x1="8" x2="27.249" xlink:href="#a" y1="55.248" y2="55.248"/><linearGradient id="i" gradientUnits="userSpaceOnUse" x1="9.4722" x2="26.924" xlink:href="#a" y1="11.5132" y2="1.4374"/><linearGradient id="j" gradientUnits="userSpaceOnUse" x1="14.874" x2="20.374" xlink:href="#a" y1="17.5229" y2="17.5229"/><linearGradient id="k" gradientUnits="userSpaceOnUse" x1="14.874" x2="20.374" xlink:href="#a" y1="46.4766" y2="46.4766"/><path d="m46.376 30.275c-4.783 0-9.625-3.13-9.625-9.113v-7.278c0-5.983 4.842-9.113 9.625-9.113 4.782 0 9.624 3.129 9.624 9.113v7.278c0 5.984-4.842 9.113-9.624 9.113zm0-20.692c-1.787 0-4.813.906-4.813 4.301v7.278c0 3.395 3.025 4.301 4.813 4.301s4.812-.906 4.812-4.301v-7.278c0-3.395-3.025-4.301-4.812-4.301z" fill="url(#b)"/><path d="m46.376 59.229c-4.783 0-9.625-3.13-9.625-9.113v-7.278c0-5.983 4.842-9.113 9.625-9.113 4.782 0 9.624 3.13 9.624 9.113v7.278c0 5.984-4.842 9.113-9.624 9.113zm0-20.692c-1.787 0-4.813.906-4.813 4.301v7.278c0 3.395 3.025 4.301 4.813 4.301s4.812-.906 4.812-4.301v-7.278c0-3.395-3.025-4.301-4.812-4.301z" fill="url(#c)"/><path d="m46.376 43.068c-1.521 0-2.75-1.077-2.75-2.406v-17.324c0-1.329 1.229-2.406 2.75-2.406 1.518 0 2.75 1.077 2.75 2.406v17.324c0 1.329-1.232 2.406-2.75 2.406z" fill="url(#d)"/><path d="m43.626 2v10.136c0 1.329 1.229 2.406 2.75 2.406 1.518 0 2.75-1.077 2.75-2.406v-10.136z" fill="url(#e)"/><path d="m46.376 49.458c-1.521 0-2.75 1.077-2.75 2.406v10.136h5.5v-10.136c0-1.329-1.232-2.406-2.75-2.406z" fill="url(#f)"/><path d="m17.624 44.752c-4.782 0-9.624-3.13-9.624-9.113v-7.279c0-5.983 4.842-9.112 9.624-9.112 4.783 0 9.625 3.129 9.625 9.112v7.278c0 5.984-4.842 9.114-9.625 9.114zm0-20.692c-1.787 0-4.813.906-4.813 4.301v7.278c0 3.396 3.025 4.302 4.813 4.302s4.813-.906 4.813-4.302v-7.279c0-3.394-3.026-4.3-4.813-4.3z" fill="url(#g)"/><path d="m27.249 62h-4.813v-4.391c0-3.396-3.025-4.302-4.813-4.302s-4.813.906-4.813 4.302v4.391h-4.81v-4.391c0-5.983 4.842-9.113 9.624-9.113 4.783 0 9.625 3.13 9.625 9.113z" fill="url(#h)"/><path d="m17.624 15.504c-4.782 0-9.624-3.13-9.624-9.113v-4.391h4.812v4.391c0 3.396 3.025 4.302 4.813 4.302s4.813-.906 4.813-4.302v-4.391h4.813v4.391c-.002 5.983-4.844 9.113-9.627 9.113z" fill="url(#i)"/><path d="m17.624 28.591c-1.519 0-2.75-1.077-2.75-2.406v-17.324c0-1.329 1.231-2.406 2.75-2.406 1.521 0 2.75 1.077 2.75 2.406v17.323c0 1.33-1.229 2.407-2.75 2.407z" fill="url(#j)"/><path d="m17.624 57.545c-1.518 0-2.75-1.077-2.75-2.406v-17.324c0-1.329 1.232-2.406 2.75-2.406 1.521 0 2.75 1.077 2.75 2.406v17.323c0 1.33-1.229 2.407-2.75 2.407z" fill="url(#k)"/></svg>