<svg enable-background="new 0 0 64 64" height="64" viewBox="0 0 64 64" width="64" xmlns="http://www.w3.org/2000/svg" xmlns:xlink="http://www.w3.org/1999/xlink"><linearGradient id="a"><stop offset=".1879" stop-color="#ff000e"/><stop offset=".4034" stop-color="#f4000b"/><stop offset=".7765" stop-color="#d80005"/><stop offset="1" stop-color="#c40000"/></linearGradient><linearGradient id="b" gradientUnits="userSpaceOnUse" x1="13" x2="19" xlink:href="#a" y1="35.5" y2="35.5"/><linearGradient id="c"><stop offset="0" stop-color="#ff000e"/><stop offset=".0225" stop-color="#fd000e"/><stop offset=".6681" stop-color="#d40004"/><stop offset="1" stop-color="#c40000"/></linearGradient><linearGradient id="d" gradientUnits="userSpaceOnUse" x1="12" x2="20" xlink:href="#c" y1="18" y2="18"/><linearGradient id="e"><stop offset="0" stop-color="#5b666e"/><stop offset=".1359" stop-color="#4c525c"/><stop offset=".3221" stop-color="#3c3d4a"/><stop offset=".5049" stop-color="#33303f"/><stop offset=".6788" stop-color="#302c3b"/></linearGradient><linearGradient id="f" gradientUnits="userSpaceOnUse" x1="12" x2="20" xlink:href="#e" y1="53" y2="53"/><linearGradient id="g"><stop offset="0" stop-color="#5b666e"/><stop offset=".636" stop-color="#3d3e4b"/><stop offset="1" stop-color="#302c3b"/></linearGradient><linearGradient id="h" gradientUnits="userSpaceOnUse" x1="11" x2="21" xlink:href="#g" y1="57.5" y2="57.5"/><linearGradient id="i" gradientUnits="userSpaceOnUse" x1="45" x2="51" xlink:href="#a" y1="35.5" y2="35.5"/><linearGradient id="j" gradientUnits="userSpaceOnUse" x1="44" x2="52" xlink:href="#c" y1="18" y2="18"/><linearGradient id="k" gradientUnits="userSpaceOnUse" x1="44" x2="52" xlink:href="#e" y1="53" y2="53"/><linearGradient id="l" gradientUnits="userSpaceOnUse" x1="43" x2="53" xlink:href="#g" y1="57.5" y2="57.5"/><linearGradient id="m" gradientUnits="userSpaceOnUse" x1="32.0005" x2="32.0005" y1="15.5796" y2="10"><stop offset="0" stop-color="#302c3b"/><stop offset=".2733" stop-color="#33303e"/><stop offset=".5282" stop-color="#3b3b48"/><stop offset=".775" stop-color="#494e59"/><stop offset="1" stop-color="#5b666e"/></linearGradient><g fill="#e8000d"><path d="m29 18h6v10h-6z"/><path d="m22 25c-1.606 1.073-9.628 1.58-12 0v2c1.999 1.334 10.002 1.331 12 0z"/><path d="m54 25c-1.606 1.073-9.628 1.58-12 0v2c1.999 1.334 10.002 1.331 12 0z"/></g><path d="m13 19h6v33h-6z" fill="url(#b)"/><path d="m12 16h8v4h-8z" fill="url(#d)"/><path d="m12 52h8v2h-8z" fill="url(#f)"/><path d="m11 53h10v9h-10z" fill="url(#h)"/><path d="m45 19h6v33h-6z" fill="url(#i)"/><path d="m44 16h8v4h-8z" fill="url(#j)"/><path d="m44 52h8v2h-8z" fill="url(#k)"/><path d="m43 53h10v9h-10z" fill="url(#l)"/><path d="m6 27h52v5h-52z" fill="#ff000e"/><path d="m5 13.25c17.307 1.362 36.693 1.362 54 0l-.687 3.988c-17.515 1.378-35.112 1.378-52.627 0z" fill="#ff000e"/><path d="m2 10c19.229 1.514 40.771 1.514 60 0l-.763 4.431c-19.461 1.532-39.014 1.532-58.475 0z" fill="url(#m)"/></svg>