<svg enable-background="new 0 0 64 64" height="64" viewBox="0 0 64 64" width="64" xmlns="http://www.w3.org/2000/svg" xmlns:xlink="http://www.w3.org/1999/xlink"><linearGradient id="a"><stop offset=".1455" stop-color="#cfd8dd"/><stop offset=".4056" stop-color="#c3cdd2"/><stop offset=".877" stop-color="#a3b0b6"/><stop offset="1" stop-color="#99a8ae"/></linearGradient><linearGradient id="b" gradientUnits="userSpaceOnUse" x1="2" x2="62" xlink:href="#a" y1="52.6211" y2="52.6211"/><linearGradient id="c"><stop offset="0" stop-color="#75d6ff"/><stop offset=".1487" stop-color="#6dd2fe"/><stop offset=".3788" stop-color="#57c7fd"/><stop offset=".6615" stop-color="#34b5fb"/><stop offset=".9833" stop-color="#039bf7"/><stop offset="1" stop-color="#009af7"/></linearGradient><linearGradient id="d" gradientUnits="userSpaceOnUse" x1="3.6113" x2="60.3887" xlink:href="#c" y1="44.2686" y2="44.2686"/><linearGradient id="e"><stop offset="0" stop-color="#cfd8dd"/><stop offset=".3869" stop-color="#bdc8cd"/><stop offset="1" stop-color="#99a8ae"/></linearGradient><linearGradient id="f" gradientUnits="userSpaceOnUse" x1="23.1328" x2="40.8672" xlink:href="#e" y1="36.3193" y2="36.3193"/><linearGradient id="g" gradientUnits="userSpaceOnUse" x1="12" x2="52" xlink:href="#a" y1="28.603" y2="28.603"/><linearGradient id="h" gradientUnits="userSpaceOnUse" x1="12" x2="52" xlink:href="#c" y1="23.5" y2="23.5"/><linearGradient id="i" gradientUnits="userSpaceOnUse" x1="25.1748" x2="38.8252" xlink:href="#e" y1="17.084" y2="17.084"/><linearGradient id="j" gradientUnits="userSpaceOnUse" x1="22" x2="42" xlink:href="#a" y1="7.9009" y2="7.9009"/><linearGradient id="k" gradientUnits="userSpaceOnUse" x1="22" x2="42" xlink:href="#c" y1="5.3154" y2="5.3154"/><path d="m22 5.342h20v17.341h-20z" fill="#b1e5fd" opacity=".5"/><path d="m12 23.338h40v23.643h-40z" fill="#b1e5fd" opacity=".5"/><path d="m53.414 56.981v-3.501h-42.828v3.501c4.074 6.697 38.734 6.687 42.828 0z" fill="#99a8ae"/><path d="m2 44.741c0 4.009 6.516 10.258 10 12.025 9.814 4.979 30.186 4.979 40 0 3.484-1.768 10-8.017 10-12.025z" fill="url(#b)"/><ellipse cx="32" cy="44.742" fill="#cfd8dd" rx="30" ry="4.008"/><ellipse cx="32" cy="44.269" fill="url(#d)" rx="28.389" ry="3.205"/><path d="m60.389 44.27c0-1.772-12.711-3.206-28.389-3.206s-28.389 1.433-28.389 3.206c0 .296.363.583 1.03.855 1.609-1.594 13.241-2.828 27.359-2.828s25.75 1.234 27.358 2.828c.667-.272 1.031-.56 1.031-.855z" fill="#99a8ae"/><path d="m36.841 26.765h-9.682c1.186 1.674 2.307 3.75 2.307 6.547 0 5.947-6.333 8.433-6.333 10.86 0 2.27 17.734 2.27 17.734 0 0-2.428-6.333-4.913-6.333-10.86 0-2.797 1.121-4.874 2.307-6.547z" fill="url(#f)"/><path d="m28.651 32.977c.097.557.201 1.109.315 1.661 2.014.407 4.053.407 6.066 0 .113-.552.219-1.104.315-1.661-.206-.483-6.488-.482-6.696 0z" fill="#cfd8dd"/><path d="m12 23.501c0 2.595 4.344 6.643 6.667 7.786 6.543 3.224 20.125 3.224 26.667 0 2.322-1.143 6.666-5.191 6.666-7.786z" fill="url(#g)"/><g fill="#b1e5fd"><path d="m52 23.684v21.536c-.466.083-.967.161-1.498.237v-21.773z" opacity=".75"/><path d="m43.887 23.684v22.434c-.49.034-.988.065-1.499.095v-22.529z" opacity=".75"/><path d="m41.334 23.684v22.586c-.246.012-.498.023-.75.035v-22.621z" opacity=".75"/><path d="m48.535 23.684v22.022c-.689.079-1.417.151-2.18.22v-22.242z" opacity=".75"/><path d="m38.711 23.684v22.696c-.494.017-.993.032-1.499.046v-22.742z" opacity=".75"/><path d="m30.597 23.684v22.806c-.504-.004-1.003-.01-1.499-.018v-22.788z" opacity=".75"/><path d="m28.044 23.684v22.771c-.251-.006-.501-.011-.75-.017v-22.754z" opacity=".75"/><path d="m35.246 23.684v22.783c-.717.012-1.443.02-2.18.024v-22.807z" opacity=".75"/><path d="m26.122 23.684v22.723c-.506-.015-1.005-.031-1.499-.05v-22.673z" opacity=".75"/><path d="m18.008 23.684v22.272c-.514-.043-1.016-.089-1.499-.138v-22.134z" opacity=".75"/><path d="m13.499 23.684v21.773c-.532-.076-1.033-.154-1.499-.237v-21.536z" opacity=".75"/><path d="m15.456 23.684v22.021c-.255-.028-.505-.058-.75-.088v-21.933z" opacity=".75"/><path d="m22.658 23.684v22.584c-.746-.037-1.474-.079-2.18-.125v-22.459z" opacity=".75"/></g><ellipse cx="32" cy="23.5" fill="url(#h)" rx="20" ry="2.596"/><path d="m35.726 9.537h-7.451c.914 1.519 1.773 3.405 1.773 5.942 0 5.401-4.873 5.749-4.873 7.954 0 1.597 13.65 1.597 13.65 0 0-2.205-4.873-2.553-4.873-7.954 0-2.537.861-4.423 1.774-5.942z" fill="url(#i)"/><path d="m30.049 15.925c-.137.242-.276.483-.424.718.066.276.143.548.224.822 1.426.199 2.877.199 4.303 0 .081-.274.157-.546.224-.822-.148-.236-.287-.476-.424-.718-1.296.181-2.609.181-3.903 0z" fill="#cfd8dd"/><path d="m28.449 10.048c.103.409.214.818.334 1.224 2.137.301 4.296.301 6.433 0 .12-.405.232-.814.334-1.224-.216-.357-6.884-.353-7.101 0z" fill="#cfd8dd"/><path d="m22 5.315c0 1.315 2.172 3.366 3.333 3.945 3.272 1.634 10.062 1.634 13.335 0 1.16-.578 3.332-2.629 3.332-3.945z" fill="url(#j)"/><path d="m22 5.315v19.482c.393.041.797.079 1.214.116v-19.598z" fill="#b1e5fd" opacity=".75"/><path d="m28.569 5.315v19.901c.397.012.806.019 1.213.026v-19.927z" fill="#b1e5fd" opacity=".75"/><path d="m30.635 5.315v19.941c.201.003.404.003.607.004v-19.945z" fill="#b1e5fd" opacity=".75"/><path d="m24.805 5.315v19.721c.572.037 1.16.072 1.766.102v-19.823z" fill="#b1e5fd" opacity=".75"/><path d="m32.759 5.315v19.945c.407-.002.814-.005 1.214-.012v-19.933z" fill="#b1e5fd" opacity=".75"/><path d="m39.327 5.315v19.711c.414-.028.819-.059 1.214-.092v-19.619z" fill="#b1e5fd" opacity=".75"/><path d="m41.394 5.315v19.546c.208-.021.405-.042.606-.063v-19.483z" fill="#b1e5fd" opacity=".75"/><path d="m35.563 5.315v19.896c.602-.018 1.188-.041 1.765-.069v-19.827z" fill="#b1e5fd" opacity=".75"/><ellipse cx="32" cy="5.315" fill="url(#k)" rx="10" ry="1.315"/><path d="m32.642 4.583c0 .556-1.711.556-1.711 0 0-3.444 1.711-3.444 1.711 0z" fill="#7ed2fc"/><path d="m39.5 5.082c0 .556-1.711.556-1.711 0 0-3.444 1.711-3.444 1.711 0z" fill="#b1e5fd"/><path d="m28.069 5.082c0 .556-1.711.556-1.711 0 0-3.444 1.711-3.444 1.711 0z" fill="#7ed2fc"/><path d="m36.785 5.721c0 .37-.854.37-.854 0 0-2.296.854-2.296.854 0z" fill="#7ed2fc"/><path d="m29.927 5.721c0 .37-.854.37-.854 0-.001-2.296.854-2.296.854 0z" fill="#b1e5fd"/><path d="m25.355 5.038c0 .37-.855.37-.855 0 0-2.296.855-2.296.855 0z" fill="#b1e5fd"/><path d="m34.5 4.611c0 .37-.854.37-.854 0 0-2.296.854-2.296.854 0z" fill="#b1e5fd"/><path d="m12.77 45.874c-2.708-.641-2.64-2.433-.021-.641 1.516-1.662 3.043-.506.021.641z" fill="#b1e5fd"/><path d="m17.464 46.406c-2.708-.641-2.64-2.433-.021-.641 1.516-1.661 3.043-.506.021.641z" fill="#b1e5fd"/><path d="m25.822 25.67c-2.708-.641-2.64-2.433-.021-.641 1.516-1.662 3.043-.507.021.641z" fill="#7ed2fc"/><path d="m29.233 25.762c-2.708-.641-2.64-2.433-.021-.641 1.516-1.662 3.043-.507.021.641z" fill="#b1e5fd"/><path d="m33.5 25.67c-2.707-.641-2.639-2.433-.02-.641 1.516-1.662 3.042-.507.02.641z" fill="#b1e5fd"/><path d="m36.5 25.67c-2.707-.641-2.639-2.433-.02-.641 1.516-1.662 3.042-.507.02.641z" fill="#7ed2fc"/><path d="m40.068 25.367c-2.707-.641-2.639-2.433-.02-.641 1.516-1.662 3.043-.506.02.641z" fill="#b1e5fd"/><path d="m21.823 46.813c-2.708-.641-2.64-2.433-.021-.641 1.516-1.662 3.043-.507.021.641z" fill="#7ed2fc"/><path d="m25.569 46.929c-2.708-.641-2.64-2.433-.021-.641 1.516-1.662 3.043-.507.021.641z" fill="#b1e5fd"/><path d="m29.678 46.929c-2.708-.641-2.64-2.433-.021-.641 1.516-1.662 3.043-.507.021.641z" fill="#b1e5fd"/><path d="m34.396 47.142c-2.708-.641-2.64-2.433-.021-.641 1.517-1.662 3.043-.507.021.641z" fill="#7ed2fc"/><path d="m37.834 47.003c-2.707-.641-2.64-2.433-.021-.641 1.516-1.662 3.042-.507.021.641z" fill="#b1e5fd"/><path d="m41.046 46.664c-1.732-.41-1.688-1.557-.013-.41.969-1.064 1.946-.324.013.41z" fill="#7ed2fc"/><path d="m41.783 25.141c-1.732-.41-1.689-1.557-.014-.41.971-1.064 1.948-.325.014.41z" fill="#7ed2fc"/><path d="m31.025 25.611c-1.732-.41-1.689-1.557-.013-.41.969-1.063 1.946-.324.013.41z" fill="#7ed2fc"/><path d="m22.693 25.141c-1.732-.41-1.689-1.557-.013-.41.97-1.064 1.946-.325.013.41z" fill="#b1e5fd"/><path d="m27.756 46.775c-1.732-.41-1.689-1.557-.013-.41.97-1.063 1.946-.324.013.41z" fill="#7ed2fc"/><path d="m15.048 45.928c-1.732-.41-1.689-1.557-.013-.41.97-1.064 1.946-.325.013.41z" fill="#7ed2fc"/><path d="m43.271 46.737c-2.707-.641-2.64-2.433-.021-.641 1.517-1.661 3.043-.506.021.641z" fill="#b1e5fd"/><path d="m47.662 46.455c-2.707-.641-2.64-2.433-.021-.641 1.516-1.662 3.043-.506.021.641z" fill="#7ed2fc"/><path d="m51.385 45.86c-2.707-.641-2.639-2.433-.02-.641 1.516-1.661 3.042-.506.02.641z" fill="#b1e5fd"/></svg>