<svg enable-background="new 0 0 64 64" height="64" viewBox="0 0 64 64" width="64" xmlns="http://www.w3.org/2000/svg" xmlns:xlink="http://www.w3.org/1999/xlink"><linearGradient id="a"><stop offset="0" stop-color="#ff000e"/><stop offset=".7283" stop-color="#dd0004"/><stop offset="1" stop-color="#cf0000"/></linearGradient><linearGradient id="b" gradientUnits="userSpaceOnUse" x1="26" x2="46.4277" xlink:href="#a" y1="9.792" y2="9.792"/><linearGradient id="c" gradientUnits="userSpaceOnUse" x1="2" x2="62" y1="49.7207" y2="49.7207"><stop offset="0" stop-color="#9be022"/><stop offset=".5225" stop-color="#7fbd23"/><stop offset="1" stop-color="#69a123"/></linearGradient><radialGradient id="d" cx="26.625" cy="51.5645" gradientUnits="userSpaceOnUse" r="4.4517"><stop offset=".3333" stop-color="#eef2f5"/><stop offset=".5671" stop-color="#e4e8ea"/><stop offset=".9713" stop-color="#c9ccce"/><stop offset="1" stop-color="#c7cacc"/></radialGradient><radialGradient id="e" cx="26.625" cy="50.6074" gradientUnits="userSpaceOnUse" r="4.2359"><stop offset=".2727" stop-color="#464057"/><stop offset=".4818" stop-color="#433d54"/><stop offset=".6519" stop-color="#3a354a"/><stop offset=".8077" stop-color="#2b2639"/><stop offset=".9273" stop-color="#1a1626"/></radialGradient><linearGradient id="f" gradientUnits="userSpaceOnUse" x1="25" x2="27" xlink:href="#a" y1="9.2334" y2="9.2334"/><linearGradient id="g" gradientUnits="userSpaceOnUse" x1="25" x2="27" y1="35.2529" y2="35.2529"><stop offset="0" stop-color="#fdd674"/><stop offset="1" stop-color="#e6b53c"/></linearGradient><path d="m46.428 16.708c-6.81 2.49-13.618-2.49-20.428 0 0-4.611 0-9.222 0-13.833 6.81-2.489 13.618 2.49 20.428 0z" fill="url(#b)"/><ellipse cx="32" cy="49.721" fill="url(#c)" rx="30" ry="12.279"/><ellipse cx="26.625" cy="51.564" fill="url(#d)" rx="5.805" ry="2.438"/><path d="m33.645 37.441-.91.005-7.174 11.749v4.813c1.35.048 2.568-.035 2.568-.035v-4.804h-.01c.575-1.542 3.188-8.377 5.526-11.728z" fill="#302c3b" opacity=".1"/><path d="m26.625 50.173c2.777 0 5.096.819 5.667 1.915.089-.17.138-.344.138-.523 0-1.346-2.599-2.438-5.805-2.438-3.205 0-5.805 1.093-5.805 2.438 0 .18.05.354.137.523.571-1.096 2.89-1.915 5.668-1.915z" fill="url(#e)"/><path d="m27 3.061c0-1.414-2-1.414-2-.002v13.409h2z" fill="url(#f)"/><path d="m25 16.467v37.437s1 .222 2 .096v-37.533z" fill="url(#g)"/></svg>