<svg enable-background="new 0 0 64 64" height="64" viewBox="0 0 64 64" width="64" xmlns="http://www.w3.org/2000/svg" xmlns:xlink="http://www.w3.org/1999/xlink"><linearGradient id="a"><stop offset="0" stop-color="#302c3b"/><stop offset=".2926" stop-color="#454754"/><stop offset=".7557" stop-color="#636d78"/><stop offset="1" stop-color="#6e7b85"/></linearGradient><linearGradient id="b" gradientUnits="userSpaceOnUse" x1="23.9287" x2="23.9287" xlink:href="#a" y1="41.958" y2="34.7709"/><linearGradient id="c" gradientUnits="userSpaceOnUse" x1="35.0713" x2="35.0713" xlink:href="#a" y1="41.958" y2="34.7709"/><linearGradient id="d" gradientUnits="userSpaceOnUse" x1="46.2148" x2="46.2148" xlink:href="#a" y1="41.958" y2="34.7709"/><linearGradient id="e" gradientUnits="userSpaceOnUse" x1="57.3574" x2="57.3574" xlink:href="#a" y1="41.958" y2="34.7709"/><linearGradient id="f" gradientUnits="userSpaceOnUse" x1="49.791" x2="49.791" xlink:href="#a" y1="26.4902" y2="22.1387"/><linearGradient id="g" gradientUnits="userSpaceOnUse" x1="3.2021" x2="62" y1="53.7656" y2="53.7656"><stop offset="0" stop-color="#2289c7"/><stop offset=".2515" stop-color="#2086c3"/><stop offset=".5007" stop-color="#1a7cb7"/><stop offset=".7491" stop-color="#0f6da3"/><stop offset=".9957" stop-color="#005688"/><stop offset="1" stop-color="#005687"/></linearGradient><path d="m17.429 32.767h44.571v12.385h-44.571z" fill="#cfd8dd"/><path d="m19.929 34.958h8v8h-8z" fill="#1a1626"/><path d="m31.071 34.958h8v8h-8z" fill="#1a1626"/><path d="m42.215 34.958h8v8h-8z" fill="#1a1626"/><path d="m20.929 35.958h6v6h-6z" fill="url(#b)"/><path d="m32.071 35.958h6v6h-6z" fill="url(#c)"/><path d="m43.215 35.958h6v6h-6z" fill="url(#d)"/><path d="m53.357 34.958h8v8h-8z" fill="#1a1626"/><path d="m54.357 35.958h6v6h-6z" fill="url(#e)"/><path d="m62 62s-30.187 0-43.37 0c-7.389 0-11.143-11.961-11.143-11.961h54.513z" fill="#014d87"/><path d="m49.745 17.897c0 1.767-2.57 1.767-2.57 0 0-1.771 2.57-1.771 2.57 0z" fill="#b3c2c6"/><path d="m32.524 31.377 5.075-3.887h24.401v3.887z" fill="#cfd8dd"/><path d="m36.394 21.139 1.205 6.351h24.401v-6.351z" fill="#1a1626"/><path d="m37.583 22.139.826 4.351h23.591v-4.351z" fill="url(#f)"/><path d="m35.683 20.298c-.237.096-.709.841-.709.841h27.026v-2.737c0-.001-21.562-.016-26.317 1.896z" fill="#cfd8dd"/><path d="m62 60.61s-31.394-2.071-41.454-3.575c-15.773-2.358-17.344-10.114-17.344-10.114h58.798z" fill="url(#g)"/><g fill="#99a8ae"><path d="m3 40.151h19v1h-19z"/><path d="m16.5 40.651h1v5h-1z"/><path d="m12 40.651h1v5h-1z"/><path d="m7.5 40.651h1v5h-1z"/><path d="m3 40.651h1v5h-1z"/><path d="m20.999 40.651h1.001v5h-1.001z"/><path d="m3.428 42.651h18.144v1h-18.144z"/></g><path d="m46.118 16h4.684v.969h-4.684z" fill="#cfd8dd"/><path d="m42.122 41.17c-7.378 0-12.122 3.981-18.69 3.981-5.456 0-21.003 0-21.003 0-.237 0-.429.199-.429.442v.886c0 .243.192.442.429.442h59.571v-5.751s-12.715 0-19.878 0z" fill="#014d87"/><path d="m16.571 30.997h45.429v1.77h-45.429z" fill="#b3c2c6"/></svg>