<svg enable-background="new 0 0 64 64" height="64" viewBox="0 0 64 64" width="64" xmlns="http://www.w3.org/2000/svg"><path d="m25.97 15.5c6.935-8.293 14.375-3.991 18.312-6.52 1.635-1.05.715 4.308 1.377 7.908.5 2.715-10.629-5.38-16.841 1.36 0 .001-3.486-1.989-2.848-2.748z" fill="#c21413"/><path d="m32.715 26.613-1.361 3.087-4.695 6.907c-1.374 1.385-1.662 2.731 1.012 7.007l7.176-2.282c1.451-1.673-.43-2.459.938-4.166 5.875-4.126 10.334-8.25 5.852-12.203z" fill="#302c3b"/><path d="m43.935 26.07c-2.314-3.962-6.516-3.524-9.359-6.215-5.945-5.617-9.519-3.017-9.374-1.851.404 3.301-.062 5.819.865 6.697l5.288 4.998s1.772-1.736 4.84-2.257c5.044-.857 7.74-1.372 7.74-1.372z" fill="#006dae"/><path d="m8.004 60.887c-5.247.942-6.16-1.586-5.984-.568.157.905 2.386 2.153 6.035 1.5 12.832-2.303 42.479-7.621 53.085-9.523 1.26-.226 1.076-1.131-.158-.909-7.302 1.307-47.417 8.503-52.978 9.5z" fill="#e03636"/><path d="m14.516 11.958c-.005.969.292 1.66.762 2.382.729 1.106.431 1.936-.12 3.147-.529 1.153.685 1.458 1.58 1.06.292.201.4.674.4.674s.895.272.722 1.52c.997.424.222 2.23 2.022 1.534 1.754-.682 3.282-3.183 3.75-3.561 10.4-8.39-4.926-14.427-9.116-6.756z" fill="#fc6"/><path d="m17.315 19.606c.424.095.29.567.29.567-.164.064.011.661.255.566 1.212-.471 1.373-1.463 1.534-2.047-1.359.445-2.941.272-2.079.914z" fill="#e6a400"/><path d="m17.315 19.606s.2.512.29.567c.267-.104 1.172-.703 1.567-1.289z" fill="#fff"/><path d="m17.347 17.754c.014.435-.492.769-.818.894-.442.171-.943.114-1.254-.132.025-.453 1.33.139 2.072-.762z" fill="#e6b045"/><path d="m18.64 12.173c-.915-.273-2.229.201-4.401 1.371l1.286 2.501c.597-.321.765.193 1.036.719.535 1.043 3.399-.507 3.661-1.326.352-1.106-.438-2.92-1.582-3.265z" fill="#0fb4d4"/><path d="m17.83 12.111-1.403 4.386c.042.084.551.629.904.614l1.55-4.838c-.076-.041-.75-.191-1.051-.162z" fill="#a0d8e9"/><path d="m22.992 12.827-.795-1.546-2.552 1.324c-.28-.311-.598-.54-.94-.644-.932-.278-2.168.099-4.564 1.388-.186.101.087.442.198.387 2.271-1.17 3.435-1.591 4.233-1.353.472.142.927.602 1.223 1.234.286.614.371 1.286.22 1.756-.075.228-.519.656-1.226 1.038-.842.453-1.81.683-2.035.247-.026-.054-.054-.106-.079-.16-.166-.335-.325-.651-.634-.746-.184-.059-.387-.024-.615.099-.152.082.073.455.198.387.119-.063.212-.084.276-.065.139.043.255.279.38.531.027.055.055.109.083.164.397.777 1.662.448 2.621-.068.6-.323 1.294-.835 1.441-1.302.125-.385.116-.858.005-1.342z" fill="#302c3b"/><path d="m25.499 5.016c-.711 3.546-6.656 2.882-5.95-.667.708-3.545 6.659-2.878 5.95.667z" fill="#c21413"/><path d="m28.499 11.494c-.393 1.914-14.628.025-14.23-1.889 1.777-8.588 16.009-6.7 14.23 1.889z" fill="#e03636"/><path d="m27.524 14.051c-4.273-1.244-8.764-1.88-13.283-1.876-.889.007-1.035-2.665-.041-2.673 4.887-.001 9.75.685 14.378 2.033.938.281-.212 2.768-1.054 2.516z" fill="#c21413"/><path d="m19.966 23.167c.712 1.053 2.195-.498 2.814-.359.653.148 1.516 1.363 2.177 1.131 1.851-.647-.481-4.278.219-5.646.521-1.018 4.454-1.761 4.785-2.805.114-.36-1.05-.732-1.259-1.049-.203-.31.108-1.266-.35-1.376-1.57-.368-4.344 2.31-5.475 3.301-1.424 1.242-3.818 5.466-2.911 6.803z" fill="#e03636"/><path d="m38.769 54.209c-.111-.259-.844-.252-1.001-.484.544-4.657-9.875.146-12.128 2.429-.284.289-.763 1.378-.506 1.694l13.258-2.393c.212-.242.503-.949.377-1.246z" fill="#014d87"/><path d="m37.906 50.354c-.364-1.173-1.026-2.378-1.694-2.753-1.331-.747-5.161.201-5.87 1.571-.722 1.388-2.773 2.896-4.103 4.113l1.775 3.503c4.373-1.418 3.904-1.973 7.836-2.559z" fill="#006dae"/><path d="m28.014 56.788s-.35-2.017-1.775-3.503c-2.113 1.52-1.808 4.689 1.775 3.503z" fill="#0fb4d4"/><path d="m37.906 50.354c-1.103.925-1.716 2.499-2.056 3.876 1.933-.108 2.825-1.736 2.056-3.876z" fill="#0fb4d4"/><path d="m34.847 41.332c-2.325-.295-6.963 1.719-7.176 2.282-.207.563 1.57 5.431 2.145 6.107.377.443 4.312 1.094 5.06.748.729-.338 1.693-1.863 1.874-2.665.138-.616-1.4-5.403-1.903-6.472z" fill="#0fb4d4"/><path d="m34.072 48.088c.517-.094 1.007.259 1.099.788.09.527-.254 1.033-.77 1.126-.516.092-1.01-.262-1.102-.788-.089-.528.257-1.033.773-1.126z" fill="#302c3b"/><g fill="#014d87"><path d="m26.586 52.973c1.044.846 1.681 1.888 1.681 1.888l1.122-.803s-.531-1.38-1.738-2.106c-.33-.198-1.329.808-1.065 1.021z"/><path d="m28.327 51.425c1.043.845 1.682 1.887 1.682 1.887l1.123-.803s-.533-1.38-1.742-2.106c-.327-.197-1.327.808-1.063 1.022z"/><path d="m31.284 43.723s-1.942.107-3.494 1.086c-.418.267.203 1.57.609 1.373 1.6-.78 3.198-1.092 3.198-1.092z"/><path d="m31.902 46.406s-1.776.154-3.139 1.162c-.37.273.282 1.554.643 1.351 1.417-.814 2.866-1.161 2.866-1.161z"/></g><path d="m48.975 25.948c-11.267 4.165-27.145 10.038-27.145 10.038l.321.901s15.875-5.871 27.147-10.038z" fill="#e03636"/><path d="m23.014 37.287c1.8-.53.943-2.94-.773-2.173-2.167 1.139-4.443 1.976-6.822 2.521-1.8.532-.943 2.941.774 2.173 2.165-1.135 4.441-1.977 6.821-2.521z" fill="#99a8ae"/><path d="m50.364 29.352c1.178-.436-.963-6.448-2.139-6.014-1.178.434.963 6.449 2.139 6.014z" fill="#302c3b"/><path d="m49.984 26.596s2.004-.924 4.053-1.682c.435-.161.229-.737-.204-.577-2.047.757-4.172 1.356-4.172 1.356-.222.083.1.985.323.903z" fill="#e03636"/><path d="m20.193 34.659c-1.41-.148-1.783.804-2.851 1.392-.546.299-.918.936-.54 1.23l.875-.209c-.124.884-.497 2.613.443 2.466 1.711-.268 2.012.745 3.84.04.664-.257 1.29-1.341 1.312-2.002l.667-.717-3.082-2.913z" fill="#302c3b"/><path d="m27.192 16.147c-1.349.04-2.676 1.213-2.366 2.535 1.788 7.677-4.319 15.111-4.319 15.111l3.564 3.371s7.982-11.595 5.638-18.636c-.425-1.289-1.167-2.425-2.517-2.381z" fill="#014d87"/></svg>