<svg enable-background="new 0 0 64 64" height="64" viewBox="0 0 64 64" width="64" xmlns="http://www.w3.org/2000/svg" xmlns:xlink="http://www.w3.org/1999/xlink"><radialGradient id="a" cx="15.4775" cy="72.0957" gradientTransform="matrix(1.0548 0 0 1.0506 -6.8719 -35.0184)" gradientUnits="userSpaceOnUse" r="7.2104"><stop offset="0" stop-color="#f80"/><stop offset=".2913" stop-color="#fc8500"/><stop offset=".5282" stop-color="#f27e00"/><stop offset=".7453" stop-color="#e17000"/><stop offset=".9273" stop-color="#cc6000"/></radialGradient><radialGradient id="b" cx="568.5586" cy="6.249" gradientTransform="matrix(.3597 .4654 -.7956 .61 -191.1028 -228.6484)" gradientUnits="userSpaceOnUse" r="4.8784"><stop offset="0" stop-color="#ffdada"/><stop offset="1" stop-color="#ffdada" stop-opacity="0"/></radialGradient><path d="m46.656 18.954c-.568-.132-1.133-1.141-1.564-2.417.537.209 1.152.287 1.861.15-5.039-3.049-.77-15.242-8.678-12.069l.42 3.479c3-1.95-1.131 5.772 2.961 7.931-.404-.4-.404-1.237-.295-2.228.784 2.844 2.133 5.539 5.295 5.154z" fill="#38332d"/><path d="m46.656 18.954c-.568-.132-2.273-1.556-2.705-2.832 1.469.884 2.332 1.013 3.002.565-6.012-1.953-1.998-12.973-8.252-10.146l-.006 1.557c3-1.95-1.131 5.772 2.961 7.931-1.174-1.271-1.092-2.346-.627-3.017.785 2.842 2.465 6.327 5.627 5.942z" fill="#26221e"/><path d="m37.869 4.614c-1.137.622-.877 3.789 1.25 3.917 1.744.11.26-4.747-1.25-3.917z" fill="#8e3ed6"/><path d="m29.4 17.334c1.707-.761 1.449 3.789 1.447 4.178 0 0 1.496-2.412 4.824-3.727 0 0 .008-1.475-.219-3.782.167-6.36-6.052 3.331-6.052 3.331z" fill="#423225"/><path d="m25.887 5.983c-.387.916-.58 1.968-.393 2.842.287 1.347-.338 2.009-1.375 2.929-.986.872.111 1.661 1.162 1.653.217.309.037.614.037.614.842.729.822 1.849.436 2.154 0 0 .26.133.211.612-.143 1.374.711 1.792 2.764 1.128 4.051-1.313 4.381-4.337 4.381-4.337.828 1.17 3.318-.825 3.387-3.26.122-4.041-3.362-9.868-10.61-4.335z" fill="#614a36"/><path d="m33.168 11.646c-.002-.993.801-1.861 1.617-1.868 0 0-1.391 1.188-1.027 2.782 0 .001-.588-.221-.59-.914z" fill="#423225"/><path d="m28.693 10.613c-.529.609-1.834.952-2.27.866-1.056-3.163 1.577-2.2 2.27-.866z" fill="#f5f5f5"/><path d="m26.473 11.486c1.244-.041.549-3.371-.295-1.56-.047.316.045 1.569.295 1.56z" fill="#45332c"/><path d="m28.693 10.613c-.336-1.238-2.482-2.131-2.516-.687.339-.782 1.858-.28 2.516.687z" fill="#45332c"/><path d="m26.555 9.96c.008.306.447.292.441-.015-.01-.28-.449-.266-.441.015z" fill="#f5f5f5"/><path d="m29.014 8.664c-.838-.664-2.559-.607-3.19-.182-.139.082-.002.562.104.492.707-.447 2.045-.589 3.061-.109.111.054.156-.108.025-.201z" fill="#423225"/><path d="m25.686 14.646c.383.264 0 .698 0 .698-.346-.013-.348.926.068.832 1.215-.279 2.285-1.181 2.326-1.538-.24.009-2.063-.061-2.762-.616 0-.001-.066.379.368.624z" fill="#36281d"/><path d="m25.686 14.646v.698c.307.013 1.465-.227 2.096-.614-.001-.001-1.352.173-2.096-.084z" fill="#fff"/><path d="m38.406 6.542c-.152-2.827-2.947-4.54-6.357-4.542-4.416-.002-6.676 2.653-6.162 3.983 5.08-2.445 5.441 7.063 7.402 3.939.984-1.563 3.238-.717 2.771 1.413-.473 2.152-1.809 2.494-1.809 2.494.531.996 1.219 1.128 1.219 1.128 3.464-.525 5.315-7.107 2.936-8.415z" fill="#38332d"/><path d="m38.406 6.542c-.152-2.827-4.939-4.136-6.518-3.831 2.287.375 4.961 1.87 5.26 2.81-1.877-.524-4.656-1.654-7.865-1.496 1.947.271 3.549 1.896 7.514 2.575 0 0-2.895.597-6.035-.727.846 1.133 3.143 2.214 4.271 2.556-1.27.063-2.699-.08-5.646-2.055 1.949 1.773 2.537 5.724 3.902 3.549.984-1.563 3.238-.717 2.771 1.413-.473 2.152-1.809 2.494-1.809 2.494.531.996 1.219 1.128 1.219 1.128 3.464-.526 5.315-7.108 2.936-8.416z" fill="#26221e"/><path d="m26.211 12.905c-.162.418-.799.523-1.18.51-.508-.02-.988-.28-1.201-.642.205-.419 1.279.679 2.381.132z" fill="#423225"/><path d="m24.002 57.533c1.988-5.916 4.465-5.88 4.611-11.498.43-.087.867-.174 1.299-.264-.369-2.603-1.045-3.881-2.797-4.956-1.627.563-2.498 1.577-2.609 1.753-.664 1.04-.773 6.204-3.713 13.975-.24.634 3.102 1.311 3.209.99z" fill="#614a36"/><path d="m21.734 61.603h2.529c.371 0 .158-.606.158-.606s-2.363-1.442-9.871-.669c.001-.001 1.735 2.654 7.184 1.275z" fill="#8e3ed6"/><path d="m24.217 58.529c.393-.705.307-1.508.063-1.38-.469.247-2.379.144-2.77-.125.469-1.521-.68-1.941-.73-1.475-.43 3.936-6.514 1.724-6.229 4.777 0 0 3.26 1.878 7.1.689l2.771-.021c.336-1.632-.205-2.464-.205-2.465z" fill="#302c3b"/><path d="m17.285 58.42c.951.929 1.488.988 1.568.339.643.464 1.012.09 1.02-.296.693.301.947-.31.133-.992-.467-.361-2.977.7-2.721.949z" fill="#8e3ed6"/><path d="m53.457 46.756c-5.586-.472-6.08-2.633-11.016-1.568-.168-.356-.336-.715-.506-1.072-2.193.872-3.166 1.73-3.734 3.479.838 1.294 1.906 1.836 2.084 1.896 1.049.355 5.58-.644 12.988.262.606.074.489-2.972.184-2.997z" fill="#614a36"/><path d="m29.941 19.728c-1.441-.183-6.133 1.854-9.678 2.357-1.01.145-7.785 3.62-8.236 3.904-.467.293-1.797 1.078-2.203 1.54-.447.518-2.301 2.55-1.707 3.911.537 1.228 2.787-2.182 3.746-1.981-.451 1.541.391 2.145.729 1.2.785-2.198.412-2.572.76-2.854.506-.407 6.385-2.422 7.992-2.815 3.207-.785 5.32-.729 8.219-.849 3.078-.126 4.212-3.935.378-4.413z" fill="#614a36"/><path d="m34.715 40.445s-.736 6.841 4.43 8.91c0 0 3.332.374 3.561-5.136-3.086-1.539.709-6.24-2.553-10.55z" fill="#5d1e96"/><path d="m42.705 44.22c-.23 4.873-3.135 4.505-3.561 5.136.393.164.795.304 1.207.405 0 0 3.152.529 3.381-4.979-.431-.161-.755-.352-1.027-.562z" fill="#e6ebef"/><path d="m35.959 17.657c-3.254 8.578-6.857 12.063-6.523 1.838 1.142-.187 3.527-2.588 6.523-1.838z" fill="#423225"/><path d="m40.564 33.647-9.223.904c-.877 1.686-4.133 3.762-5.74 6.109 0 0 .354 2.79 6.402 4.545 2.376-3.892 12.382-3.891 8.561-11.558z" fill="#8e3ed6"/><path d="m25.602 40.661s-.467.419-.912 1.162c0 0 1.775 3.636 6.918 5.052.113-.913.396-1.669.396-1.669-3.533-1.215-5.775-3.471-6.402-4.545z" fill="#e6ebef"/><path d="m39.873 33.712-1.457-.189c2.426 5.563-7.09 5.003-8.781 11.104 0 0 .895.653 1.506.832 1.49-6.324 11.963-5.21 8.732-11.747z" fill="#e6ebef"/><path d="m38.494 17.67c-.477-.861-2.98-.159-3.172-.029-1.914 1.296-3.762 6.398-3.762 6.398-.234.043-2.459-1.18-.979-4.781.357-.867-1.439.291-1.439.291-.354 4.731-1.801 5.943.258 8.714.631.851 1.941 2.896 1.949 4.726 7.932 2.492 9.271-.797 9.271-.797s2.015-7.073-2.126-14.522z" fill="#8e3ed6"/><g fill="#e6ebef"><path d="m35.23 17.705c-2.008 1.151-3.809 6.044-3.809 6.044-.236.045-1.604-1.688-.672-4.856-.305-.132-.451.069-.451.069-1.449 5.09 1.316 5.903 1.316 5.903 1.093-2.23 2.417-6.163 3.616-7.16z"/><path d="m31.35 32.988c.016.484.016.999-.008 1.563 7.932 2.492 9.223-.904 9.223-.904s.043-.541.057-1.456c-1.593.377-3.104 2.38-9.272.797z"/><path d="m40.814 23.123c1.25 5.801-2.58 6.66-4.666 1.107-2.933-7.813 2.961-9.009 4.666-1.107z"/></g><path d="m40.426 22.537c.99 4.595-2.031 5.195-3.785.832-2.59-6.451 2.367-7.418 3.785-.832z" fill="#614a36"/><ellipse cx="10.659" cy="42.283" fill="url(#a)" rx="6.659" ry="6.631"/><path d="m13.957 43.799c-2.453-.809-4.566-1.506-5.402-3.183-.059-.113-.104-.229-.143-.346 3.188-1.219 6.951-1.501 8.547-.141-.057-.161-.119-.319-.184-.474-.773-.521-2.084-.819-3.561-.76-1.539.063-3.297.441-4.885 1.039-.117-.695.059-1.443.516-2.104.787-1.138 2.184-1.804 3.84-1.866-.205-.065-.416-.121-.627-.167-1.678.155-2.809.845-3.496 1.838-.525.759-.715 1.625-.559 2.427-.273.109-.539.225-.797.346-.191.091-.375.184-.553.278-.182-.728-.277-1.433-.266-2.08.008-.548.098-1.199.41-1.729-.148.106-.295.22-.434.338-.563 1.28-.227 2.83-.02 3.639-.348.197-.664.401-.943.609-.182-.637-.449-1.239-.873-1.774-.055.125-.105.252-.148.381.346.491.57 1.043.723 1.625-.482.397-.844.808-1.072 1.219.014.167.037.332.064.496.197-.388.514-.842 1.094-1.344.141.668.203 1.369.268 2.061.094 1.032.221 2.391.729 3.068.182.163.371.316.568.46-.709-.869-.824-2.147-.953-3.56-.07-.764-.139-1.537-.311-2.274.279-.212.596-.421.949-.625.285.995.715 2.038 1.264 3.034 1.107 2.008 2.58 4.047 4.795 4.428.189-.055.377-.117.559-.188-.422-.006-.865-.12-1.326-.347-2.053-1.004-4.164-4.172-4.988-7.097.195-.104.4-.207.613-.308.24-.113.486-.221.734-.322.043.126.094.251.154.371.898 1.806 3.078 2.524 5.604 3.357.922.305 1.869.617 2.824 1.002.053-.104.1-.209.143-.315-.97-.388-1.925-.705-2.857-1.012z" fill="#1a1626"/><path d="m10.191 42.04c-2.144 1.644-4.668 1.96-5.636.705-.969-1.254-.02-3.603 2.127-5.246 2.143-1.644 4.664-1.959 5.635-.705.968 1.254.015 3.602-2.126 5.246z" fill="url(#b)" opacity=".5"/><path d="m36.6 18.33c-2.146 2.472 6.236 5.843 8.994 7.239-1.453 1.804-5.268 7.563-5.629 7.397-1.057-.476-1.518-.387-2.885.304-.381.189.068.796.068.796-.752.661.113.751.291 1.287.164.495.617.372.887.857.607 1.081 2.438-.145 3.324-1.773.635-1.167 5.59-4.647 7.666-9.379.438-.996-10.42-8.716-12.716-6.728z" fill="#614a36"/><path d="m57.459 46.857-1.182-2.24c-.172-.328-.607.145-.607.145s-.17 2.766 4.021 9.052c0-.001 1.534-2.778-2.232-6.957z" fill="#8e3ed6"/><path d="m53.586 46.095c-.805-.017-1.473.434-1.246.589.438.302 1.238 2.042 1.184 2.513-1.563.295-1.395 1.508-.959 1.335 3.674-1.46 4.564 4.961 7.127 3.282 0 0 .135-3.764-2.709-6.608l-1.313-2.443c-1.602.465-2.082 1.332-2.084 1.332z" fill="#302c3b"/><path d="m56.73 52.282c.375-1.275.178-1.778-.434-1.547.109-.784-.395-.937-.738-.762-.059-.756-.715-.695-.938.345-.099.582 2.011 2.309 2.11 1.964z" fill="#8e3ed6"/></svg>