<svg enable-background="new 0 0 64 64" height="64" viewBox="0 0 64 64" width="64" xmlns="http://www.w3.org/2000/svg" xmlns:xlink="http://www.w3.org/1999/xlink"><radialGradient id="a" cx="15.4766" cy="72.0957" gradientTransform="matrix(1.0548 0 0 1.0506 -6.8719 -35.0184)" gradientUnits="userSpaceOnUse" r="7.2104"><stop offset="0" stop-color="#f80"/><stop offset=".2913" stop-color="#fc8500"/><stop offset=".5282" stop-color="#f27e00"/><stop offset=".7453" stop-color="#e17000"/><stop offset=".9273" stop-color="#cc6000"/></radialGradient><radialGradient id="b" cx="568.5586" cy="6.25" gradientTransform="matrix(.3597 .4654 -.7956 .61 -191.1028 -228.6484)" gradientUnits="userSpaceOnUse" r="4.8779"><stop offset="0" stop-color="#ffdada"/><stop offset="1" stop-color="#ffdada" stop-opacity="0"/></radialGradient><path d="m46.656 18.954c-.568-.132-1.133-1.141-1.564-2.417.537.208 1.152.287 1.861.15-5.04-3.049-.77-15.242-8.678-12.069l.42 3.48c3-1.951-1.132 5.772 2.96 7.93-.403-.4-.403-1.237-.295-2.228.785 2.844 2.133 5.538 5.296 5.154z" fill="#594640"/><path d="m46.656 18.954c-.568-.132-2.273-1.556-2.705-2.833 1.469.884 2.332 1.013 3.002.565-6.013-1.952-1.999-12.971-8.253-10.145l-.005 1.557c3-1.951-1.132 5.772 2.96 7.93-1.174-1.27-1.091-2.346-.626-3.017.784 2.843 2.464 6.327 5.627 5.943z" fill="#453631"/><path d="m37.868 4.614c-1.136.622-.876 3.789 1.251 3.917 1.744.11.26-4.747-1.251-3.917z" fill="#8e3ed6"/><path d="m29.399 17.333c1.707-.761 1.45 3.789 1.448 4.178 0 0 1.495-2.412 4.824-3.727 0 0 .007-1.475-.22-3.783.167-6.359-6.052 3.332-6.052 3.332z" fill="#f7c259"/><path d="m25.886 5.983c-.386.916-.58 1.968-.393 2.842.287 1.347-.338 2.009-1.374 2.929-.986.872.11 1.661 1.162 1.653.216.309.037.614.037.614.841.729.821 1.849.435 2.154 0 0 .261.133.211.613-.142 1.374.711 1.792 2.764 1.127 4.052-1.313 4.381-4.337 4.381-4.337.829 1.17 3.319-.825 3.388-3.259.122-4.042-3.362-9.869-10.611-4.336z" fill="#fc6"/><path d="m33.167 11.646c-.002-.993.802-1.861 1.618-1.868 0 0-1.392 1.189-1.028 2.782 0 0-.588-.222-.59-.914z" fill="#e6b045"/><path d="m28.692 10.613c-.529.609-1.834.953-2.269.866-1.056-3.163 1.576-2.2 2.269-.866z" fill="#f5f5f5"/><path d="m26.473 11.486c1.244-.041.549-3.372-.296-1.56-.046.316.045 1.569.296 1.56z" fill="#45332c"/><path d="m28.692 10.613c-.335-1.238-2.481-2.131-2.516-.687.34-.783 1.859-.281 2.516.687z" fill="#45332c"/><path d="m26.555 9.96c.008.305.447.292.44-.015-.009-.28-.448-.267-.44.015z" fill="#f5f5f5"/><path d="m29.013 8.664c-.837-.664-2.558-.608-3.189-.182-.14.082-.002.562.104.493.707-.448 2.045-.589 3.061-.109.11.052.156-.109.024-.202z" fill="#594640"/><path d="m25.685 14.646c.384.264 0 .698 0 .698-.346-.013-.348.926.068.832 1.216-.279 2.285-1.181 2.327-1.538-.24.009-2.063-.061-2.762-.616 0-.001-.067.379.367.624z" fill="#d47706"/><path d="m25.685 14.646v.698c.307.013 1.465-.226 2.097-.614-.001-.001-1.352.173-2.097-.084z" fill="#fff"/><path d="m38.405 6.542c-.151-2.827-2.946-4.541-6.357-4.542-4.416-.002-6.676 2.653-6.162 3.983 5.081-2.445 5.442 7.063 7.403 3.94.984-1.564 3.238-.717 2.771 1.413-.472 2.152-1.808 2.494-1.808 2.494.531.996 1.219 1.128 1.219 1.128 3.462-.527 5.313-7.108 2.934-8.416z" fill="#594640"/><path d="m38.405 6.542c-.151-2.827-4.939-4.136-6.517-3.831 2.287.375 4.961 1.87 5.259 2.81-1.877-.524-4.656-1.654-7.864-1.497 1.947.271 3.549 1.896 7.514 2.575 0 0-2.896.597-6.035-.726.845 1.133 3.143 2.213 4.271 2.555-1.271.063-2.699-.08-5.647-2.054 1.949 1.773 2.537 5.723 3.903 3.549.984-1.564 3.238-.717 2.771 1.413-.472 2.152-1.808 2.494-1.808 2.494.531.996 1.219 1.128 1.219 1.128 3.462-.527 5.313-7.108 2.934-8.416z" fill="#453631"/><path d="m26.211 12.905c-.163.418-.8.524-1.18.51-.508-.019-.988-.28-1.201-.641.205-.42 1.278.678 2.381.131z" fill="#e6b045"/><path d="m24.001 57.532c1.988-5.916 4.466-5.879 4.611-11.497.431-.087.867-.175 1.3-.264-.37-2.603-1.046-3.882-2.797-4.956-1.627.563-2.498 1.576-2.61 1.752-.663 1.041-.773 6.205-3.713 13.975-.239.635 3.102 1.312 3.209.99z" fill="#fc6"/><path d="m21.733 61.603h2.53c.37 0 .157-.606.157-.606s-2.363-1.442-9.87-.669c.001-.001 1.735 2.653 7.183 1.275z" fill="#8e3ed6"/><path d="m24.217 58.529c.392-.706.307-1.509.063-1.38-.47.247-2.38.143-2.771-.125.47-1.521-.679-1.941-.729-1.475-.43 3.936-6.514 1.724-6.229 4.777 0 0 3.259 1.878 7.099.689l2.771-.021c.336-1.632-.205-2.464-.204-2.465z" fill="#302c3b"/><path d="m17.285 58.42c.951.929 1.487.988 1.568.339.643.464 1.012.09 1.019-.297.693.302.947-.309.134-.992-.467-.36-2.977.701-2.721.95z" fill="#8e3ed6"/><path d="m53.457 46.755c-5.587-.471-6.08-2.632-11.017-1.567-.167-.356-.335-.716-.505-1.073-2.194.873-3.167 1.73-3.734 3.48.837 1.294 1.905 1.836 2.084 1.896 1.049.355 5.58-.645 12.987.262.606.074.489-2.973.185-2.998z" fill="#fc6"/><path d="m29.94 19.727c-1.441-.182-6.133 1.855-9.677 2.358-1.011.144-7.785 3.62-8.237 3.904-.466.293-1.797 1.078-2.203 1.541-.447.517-2.3 2.55-1.707 3.911.537 1.227 2.787-2.182 3.746-1.981-.45 1.541.391 2.144.729 1.2.784-2.198.411-2.572.76-2.854.505-.407 6.385-2.422 7.992-2.815 3.207-.786 5.319-.73 8.219-.849 3.079-.128 4.213-3.936.378-4.415z" fill="#fc6"/><path d="m34.714 40.444s-.736 6.842 4.43 8.911c0 0 3.333.374 3.561-5.136-3.085-1.539.709-6.24-2.552-10.551z" fill="#5d1e96"/><path d="m42.704 44.22c-.229 4.873-3.135 4.505-3.561 5.136.393.163.795.304 1.208.405 0 0 3.152.529 3.38-4.98-.431-.16-.755-.351-1.027-.561z" fill="#e6ebef"/><path d="m35.958 17.657c-3.253 8.578-6.856 12.063-6.522 1.838 1.142-.187 3.527-2.588 6.522-1.838z" fill="#f7c259"/><path d="m40.563 33.647-9.223.904c-.876 1.686-4.132 3.762-5.74 6.109 0 0 .354 2.789 6.403 4.545 2.375-3.893 12.382-3.892 8.56-11.558z" fill="#8e3ed6"/><path d="m25.601 40.661s-.467.419-.912 1.162c0 0 1.776 3.635 6.919 5.052.113-.913.396-1.669.396-1.669-3.533-1.215-5.775-3.471-6.403-4.545z" fill="#e6ebef"/><path d="m39.873 33.712-1.458-.189c2.426 5.563-7.089 5.002-8.78 11.104 0 0 .895.654 1.506.832 1.489-6.325 11.963-5.21 8.732-11.747z" fill="#e6ebef"/><path d="m38.493 17.67c-.477-.862-2.979-.16-3.172-.03-1.913 1.296-3.761 6.398-3.761 6.398-.234.043-2.459-1.179-.979-4.781.358-.867-1.439.292-1.439.292-.353 4.731-1.8 5.943.258 8.713.632.851 1.941 2.897 1.95 4.725 7.932 2.492 9.271-.797 9.271-.797s2.014-7.071-2.128-14.52z" fill="#8e3ed6"/><g fill="#e6ebef"><path d="m35.229 17.705c-2.007 1.151-3.808 6.043-3.808 6.043-.237.045-1.604-1.687-.673-4.856-.305-.132-.451.07-.451.07-1.449 5.089 1.317 5.903 1.317 5.903 1.093-2.23 2.417-6.163 3.615-7.16z"/><path d="m31.35 32.987c.015.484.015 1-.009 1.564 7.933 2.492 9.223-.904 9.223-.904s.044-.541.057-1.457c-1.593.377-3.103 2.381-9.271.797z"/><path d="m40.814 23.123c1.249 5.801-2.581 6.66-4.667 1.107-2.932-7.813 2.961-9.009 4.667-1.107z"/></g><path d="m40.426 22.537c.99 4.595-2.032 5.195-3.785.832-2.591-6.451 2.366-7.418 3.785-.832z" fill="#fc6"/><ellipse cx="10.659" cy="42.282" fill="url(#a)" rx="6.659" ry="6.632"/><path d="m13.956 43.798c-2.452-.808-4.566-1.506-5.402-3.182-.058-.113-.103-.229-.142-.346 3.187-1.219 6.951-1.501 8.546-.141-.056-.161-.118-.319-.184-.475-.773-.52-2.084-.818-3.56-.76-1.539.063-3.298.441-4.886 1.04-.117-.695.06-1.444.517-2.104.787-1.139 2.183-1.805 3.84-1.867-.206-.064-.416-.12-.628-.166-1.678.155-2.809.845-3.496 1.838-.525.758-.715 1.625-.558 2.427-.273.109-.539.224-.797.346-.191.091-.375.183-.554.278-.181-.728-.276-1.434-.266-2.08.008-.549.099-1.199.41-1.729-.148.105-.295.219-.434.338-.563 1.279-.226 2.83-.019 3.639-.349.197-.664.401-.944.609-.181-.637-.449-1.24-.873-1.774-.054.125-.104.252-.148.381.347.491.57 1.042.723 1.625-.481.397-.844.808-1.072 1.219.015.167.037.332.064.495.197-.387.514-.842 1.095-1.344.141.669.203 1.369.268 2.061.093 1.033.221 2.392.729 3.069.182.163.37.316.567.46-.709-.869-.824-2.147-.953-3.56-.07-.764-.139-1.538-.31-2.274.278-.212.595-.422.949-.625.284.995.714 2.037 1.264 3.033 1.107 2.008 2.58 4.047 4.795 4.428.189-.054.377-.117.559-.187-.422-.006-.865-.12-1.326-.347-2.053-1.004-4.165-4.172-4.988-7.098.195-.104.399-.207.613-.307.24-.113.485-.221.734-.322.042.126.093.25.153.371.899 1.805 3.079 2.524 5.604 3.357.923.305 1.869.617 2.825 1.002.053-.104.099-.209.142-.315-.969-.388-1.925-.705-2.857-1.013z" fill="#1a1626"/><path d="m10.19 42.04c-2.144 1.644-4.667 1.959-5.637.705-.968-1.254-.019-3.603 2.128-5.246 2.142-1.644 4.664-1.959 5.634-.705s.017 3.602-2.125 5.246z" fill="url(#b)" opacity=".5"/><path d="m36.6 18.33c-2.146 2.472 6.235 5.843 8.993 7.239-1.452 1.804-5.267 7.563-5.629 7.397-1.057-.476-1.517-.387-2.885.304-.38.189.069.795.069.795-.752.662.113.752.291 1.288.164.495.616.372.887.857.606 1.081 2.437-.145 3.324-1.774.635-1.166 5.589-4.646 7.666-9.378.438-.997-10.42-8.716-12.716-6.728z" fill="#fc6"/><path d="m57.459 46.857-1.182-2.241c-.173-.327-.608.145-.608.145s-.169 2.767 4.022 9.053c0-.001 1.534-2.778-2.232-6.957z" fill="#8e3ed6"/><path d="m53.586 46.095c-.806-.017-1.474.434-1.247.589.438.302 1.239 2.042 1.184 2.513-1.562.295-1.395 1.508-.959 1.334 3.675-1.459 4.565 4.962 7.128 3.283 0 0 .135-3.764-2.709-6.608l-1.313-2.444c-1.603.466-2.082 1.333-2.084 1.333z" fill="#302c3b"/><path d="m56.729 52.282c.376-1.275.178-1.778-.434-1.547.109-.785-.395-.938-.738-.762-.058-.756-.715-.695-.938.344-.098.582 2.011 2.309 2.11 1.965z" fill="#8e3ed6"/></svg>