<svg enable-background="new 0 0 64 64" height="64" viewBox="0 0 64 64" width="64" xmlns="http://www.w3.org/2000/svg" xmlns:xlink="http://www.w3.org/1999/xlink"><radialGradient id="a" cx="15.4766" cy="72.0957" gradientTransform="matrix(1.0548 0 0 1.0506 -6.8719 -35.0184)" gradientUnits="userSpaceOnUse" r="7.2104"><stop offset="0" stop-color="#f80"/><stop offset=".2913" stop-color="#fc8500"/><stop offset=".5282" stop-color="#f27e00"/><stop offset=".7453" stop-color="#e17000"/><stop offset=".9273" stop-color="#cc6000"/></radialGradient><radialGradient id="b" cx="568.5586" cy="6.25" gradientTransform="matrix(.3597 .4654 -.7956 .61 -191.1028 -228.6484)" gradientUnits="userSpaceOnUse" r="4.8779"><stop offset="0" stop-color="#ffdada"/><stop offset="1" stop-color="#ffdada" stop-opacity="0"/></radialGradient><path d="m29.422 17.639c1.736-.776 1.477 3.863 1.475 4.261 0 0 1.52-2.46 4.908-3.801 0 0 .008-1.503-.225-3.857.17-6.488-6.158 3.397-6.158 3.397z" fill="#dba97f"/><path d="m25.621 6.518c-.36.94-.316 1.724-.11 2.6.322 1.349-.28 2.042-1.282 3.017-.952.923.153 1.674 1.195 1.622.22.304.157.804.157.804s.797.601.163 1.748c.845.785-.597 2.251 1.464 2.246 2.011-.006 4.628-1.604 5.074-2.061.703-.722.892-2.893.892-2.893.854 1.148 2.982-.955 2.988-3.421.012-4.089-3.511-9.559-10.541-3.662z" fill="#fcd5b2"/><path d="m33.152 10.977c-.039-.974.729-1.855 1.531-1.89 0 0-1.332 1.216-.92 2.771.001-.001-.587-.201-.611-.881z" fill="#dba97f"/><path d="m28.975 10.724c-.541.585-1.841.885-2.267.786-.951-3.138 1.619-2.116 2.267-.786z" fill="#f5f5f5"/><path d="m26.757 11.521c1.23-.005.639-3.299-.248-1.544-.055.311-.002 1.544.248 1.544z" fill="#45332c"/><path d="m28.975 10.724c-.301-1.226-2.39-2.166-2.466-.747.356-.757 1.843-.222 2.466.747z" fill="#dba97f"/><path d="m26.882 10.021c-.002.301.432.3.434-.001-.001-.276-.434-.276-.434.001z" fill="#f5f5f5"/><path d="m29.137 8.647c-.85-.625-2.488-.652-3.098-.212-.132.083-.047.68.061.622.854-.468 2.223-.482 3.02.033.103.066.148-.355.017-.443z" fill="#cc9d76"/><path d="m25.615 15.001c.388.25.083.659.083.659-.189.002-.234.649.046.647 1.388-.004 1.918-.911 2.293-1.418-1.526-.077-3.051-.837-2.422.112z" fill="#cc9d76"/><path d="m25.615 15.001s.013.572.083.659c.305 0 1.432-.246 2.044-.667z" fill="#fff"/><path d="m38.178 4.688c-.903-1.636-2.791-2.697-6.105-2.688-3.055.007-4.901 1.021-5.697.637 0 0-.162.506.036.935-.422.021-.674-.258-.676-.253-.294.479-.803 1.721-.115 3.199 4.834-1.812 5.116-.118 6.219 1.227.252.312-.547 1.706.721 3.114.275-3.132 3.968-2.848 3.535-.139-.275 1.735-1.057 2.467-1.482 2.868.701.213 1.012 1.03 1.012 1.03 3.446-.01 4.685-8.31 2.552-9.93z" fill="#3a2c29"/><path d="m26.329 13.21c-.146.43-.776.563-1.151.563-.504.002-.986-.241-1.206-.596.191-.432 1.281.632 2.357.033z" fill="#dba97f"/><path d="m24.001 57.533c1.988-5.916 4.466-5.88 4.611-11.498.432-.087.867-.174 1.301-.264-.371-2.603-1.51-3.98-3.261-5.056-1.627.563-2.498 1.577-2.61 1.753-.663 1.04-.31 6.304-3.249 14.074-.24.635 3.101 1.312 3.208.991z" fill="#fcd5b2"/><path d="m21.733 61.603h2.53c.37 0 .157-.606.157-.606s-2.363-1.442-9.87-.669c.001-.001 1.735 2.654 7.183 1.275z" fill="#7ab51d"/><path d="m24.217 58.529c.392-.705.307-1.508.063-1.38-.47.247-2.38.144-2.771-.125.47-1.521-.679-1.941-.729-1.475-.43 3.936-6.514 1.724-6.229 4.777 0 0 3.259 1.878 7.099.689l2.771-.021c.336-1.632-.205-2.464-.204-2.465z" fill="#302c3b"/><path d="m17.285 58.42c.951.929 1.487.988 1.568.339.643.464 1.012.09 1.019-.296.693.301.947-.31.134-.992-.467-.361-2.977.7-2.721.949z" fill="#7ab51d"/><path d="m53.457 46.756c-5.588-.472-6.08-2.633-11.018-1.568-.166-.356-.334-.715-.504-1.072-2.195.872-3.168 1.73-3.734 3.479.836 1.294 1.904 2.648 2.084 2.709 1.049.355 5.58-1.456 12.986-.551.606.074.489-2.972.186-2.997z" fill="#fcd5b2"/><path d="m29.94 19.728c-1.441-.183-6.132 1.854-9.676 2.357-1.011.145-7.785 3.62-8.237 3.904-.466.293-1.797 1.078-2.203 1.54-.447.518-2.3 2.55-1.707 3.911.537 1.228 2.787-2.182 3.746-1.981-.45 1.541.391 2.145.729 1.2.784-2.198.411-2.572.76-2.854.505-.407 6.436-2.092 8.043-2.485 3.207-.785 5.341-.85 8.241-.969 3.077-.126 4.139-4.145.304-4.623z" fill="#fcd5b2"/><path d="m34.713 40.445s-.736 7.653 4.43 9.723c0 0 3.334-.438 3.561-5.948-3.084-1.539.709-6.24-2.551-10.55z" fill="#529320"/><path d="m42.703 44.22c-.229 4.873-3.135 5.317-3.561 5.948.393.164.795.304 1.209.405 0 0 3.152-.283 3.379-5.792-.431-.16-.755-.351-1.027-.561z" fill="#e6ebef"/><path d="m35.957 17.657c-3.251 8.578-6.855 12.063-6.521 1.838 1.143-.187 3.527-2.588 6.521-1.838z" fill="#dba97f"/><path d="m40.563 33.647-10.267.805c-.877 1.686-3.55 3.762-5.159 6.109 0 0 .817 2.89 6.868 4.645 2.372-3.893 12.38-3.892 8.558-11.559z" fill="#7ab51d"/><path d="m25.137 40.562s-.467.419-.912 1.162c0 0 2.24 3.735 7.383 5.151.113-.913.396-1.669.396-1.669-3.533-1.215-6.239-3.57-6.867-4.644z" fill="#e6ebef"/><path d="m39.873 33.712-1.459-.189c2.426 5.563-7.087 5.003-8.779 11.104 0 0 .895.653 1.506.832 1.488-6.324 11.963-5.21 8.732-11.747z" fill="#e6ebef"/><path d="m38.492 17.67c-.477-.861-2.979-.159-3.172-.029-1.912 1.296-3.759 6.398-3.759 6.398-.234.043-2.459-1.18-.98-4.781.359-.867-1.439.291-1.439.291-1.712 7.024.441 9.925 1.162 13.34 7.931 2.492 10.316-.697 10.316-.697s2.015-7.073-2.128-14.522z" fill="#7ab51d"/><g fill="#e6ebef"><path d="m35.229 17.705c-2.006 1.151-3.806 6.044-3.806 6.044-.238.045-1.605-1.688-.674-4.856-.305-.132-.451.069-.451.069-1.449 5.09 1.318 5.903 1.318 5.903 1.092-2.23 2.415-6.163 3.613-7.16z"/><path d="m30.303 32.889c.016.484.016.999-.008 1.563 7.931 2.492 10.267-.805 10.267-.805s.045-.541.057-1.456c-1.592.377-4.148 2.281-10.316.698z"/><path d="m40.814 23.123c1.248 5.801-2.582 6.66-4.668 1.107-2.931-7.813 2.961-9.009 4.668-1.107z"/></g><path d="m40.426 22.537c.99 4.595-2.033 5.195-3.785.832-2.592-6.451 2.365-7.418 3.785-.832z" fill="#fcd5b2"/><ellipse cx="10.659" cy="42.283" fill="url(#a)" rx="6.659" ry="6.631"/><path d="m13.956 43.799c-2.452-.809-4.566-1.506-5.402-3.183-.058-.113-.103-.229-.142-.346 3.187-1.219 6.951-1.501 8.546-.141-.056-.161-.118-.319-.184-.474-.773-.521-2.084-.819-3.56-.76-1.539.063-3.298.441-4.886 1.039-.117-.695.06-1.443.517-2.104.787-1.138 2.183-1.804 3.84-1.866-.206-.065-.416-.121-.628-.167-1.678.155-2.809.845-3.496 1.838-.525.759-.715 1.625-.558 2.427-.273.109-.539.225-.797.346-.191.091-.375.184-.554.278-.181-.728-.276-1.433-.266-2.08.008-.548.099-1.199.41-1.729-.148.106-.295.22-.434.338-.563 1.28-.226 2.83-.019 3.639-.349.197-.664.401-.944.609-.181-.637-.449-1.239-.873-1.774-.054.125-.104.252-.148.381.347.491.57 1.043.723 1.625-.481.397-.844.808-1.072 1.219.015.167.037.332.064.496.197-.388.514-.842 1.095-1.344.141.668.203 1.369.268 2.061.093 1.032.221 2.391.729 3.068.182.163.37.316.567.46-.709-.869-.824-2.147-.953-3.56-.07-.764-.139-1.537-.31-2.274.278-.212.595-.421.949-.625.284.995.714 2.038 1.264 3.034 1.107 2.008 2.58 4.047 4.795 4.428.189-.055.377-.117.559-.188-.422-.006-.865-.12-1.326-.347-2.053-1.004-4.165-4.172-4.988-7.097.195-.104.399-.207.613-.308.24-.113.485-.221.734-.322.042.126.093.251.153.371.899 1.806 3.079 2.524 5.604 3.357.923.305 1.869.617 2.825 1.002.053-.104.099-.209.142-.315-.969-.388-1.925-.705-2.857-1.012z" fill="#1a1626"/><path d="m10.19 42.04c-2.143 1.644-4.667 1.96-5.636.705-.968-1.254-.019-3.603 2.128-5.246 2.142-1.644 4.664-1.959 5.634-.705s.016 3.602-2.126 5.246z" fill="url(#b)" opacity=".5"/><path d="m36.6 18.33c-2.146 2.472 5.576 6.176 8.334 7.572-1.453 1.804-4.607 7.229-4.971 7.064-1.057-.476-1.516-.387-2.885.304-.379.189.07.796.07.796-.752.661.113.751.291 1.287.164.495.615.372.887.857.605 1.081 2.436-.145 3.324-1.773.635-1.167 5.588-4.647 7.666-9.379.438-.996-10.42-8.716-12.716-6.728z" fill="#fcd5b2"/><path d="m57.459 46.857-1.182-2.24c-.174-.328-.609.145-.609.145s-.168 2.766 4.023 9.052c0-.001 1.534-2.778-2.232-6.957z" fill="#7ab51d"/><path d="m53.586 46.095c-.807-.017-1.475.434-1.248.589.439.302 1.24 2.042 1.184 2.513-1.561.295-1.395 1.508-.959 1.335 3.676-1.46 4.566 4.961 7.129 3.282 0 0 .135-3.764-2.709-6.608l-1.314-2.443c-1.603.465-2.081 1.332-2.083 1.332z" fill="#302c3b"/><path d="m56.729 52.282c.377-1.275.178-1.778-.434-1.547.109-.784-.395-.937-.738-.762-.057-.756-.715-.695-.938.345-.099.582 2.01 2.309 2.11 1.964z" fill="#7ab51d"/></svg>