<svg enable-background="new 0 0 64 64" height="64" viewBox="0 0 64 64" width="64" xmlns="http://www.w3.org/2000/svg" xmlns:xlink="http://www.w3.org/1999/xlink"><radialGradient id="a" cx="34.043" cy="42.168" gradientTransform="matrix(.9847 0 0 1.0324 -1.5196 -9.2719)" gradientUnits="userSpaceOnUse" r="21.7901"><stop offset="0" stop-color="#ffc166"/><stop offset=".2217" stop-color="#fdbc5c"/><stop offset=".5927" stop-color="#f6ae43"/><stop offset="1" stop-color="#ed9a1f"/></radialGradient><radialGradient id="b" cx="34.042" cy="56.1543" gradientTransform="matrix(.9847 0 0 .5934 -1.5196 15.3758)" gradientUnits="userSpaceOnUse" r="23.7426"><stop offset=".2667" stop-color="#99a8ae"/><stop offset=".469" stop-color="#96a4ab"/><stop offset=".65" stop-color="#8c9aa0"/><stop offset=".8228" stop-color="#7b878f"/><stop offset=".9897" stop-color="#646e77"/><stop offset="1" stop-color="#626c75"/></radialGradient><radialGradient id="c" cx="34.041" cy="62.1494" gradientTransform="matrix(.9847 0 0 1.1103 -1.5196 -14.1169)" gradientUnits="userSpaceOnUse" r="26.3696"><stop offset=".2909" stop-color="#73868c"/><stop offset=".4878" stop-color="#6e7f85"/><stop offset=".7656" stop-color="#5f6d73"/><stop offset="1" stop-color="#4f585e"/></radialGradient><linearGradient id="d" gradientTransform="matrix(.9551 0 0 .9506 -4.4514 14.3958)" gradientUnits="userSpaceOnUse" x1="38.168" x2="38.168" y1="41.9072" y2="20.6719"><stop offset="0" stop-color="#5b666e"/><stop offset=".3154" stop-color="#59636b"/><stop offset=".5504" stop-color="#525963"/><stop offset=".7594" stop-color="#464955"/><stop offset=".9521" stop-color="#353341"/><stop offset="1" stop-color="#302c3b"/></linearGradient><linearGradient id="e" gradientUnits="userSpaceOnUse" x1="32" x2="32" y1="55.1396" y2="33.1396"><stop offset="0" stop-color="#ffc166"/><stop offset=".1689" stop-color="#faba5c"/><stop offset=".4516" stop-color="#eda843"/><stop offset=".8111" stop-color="#d88b19"/><stop offset="1" stop-color="#cc7a00"/></linearGradient><path d="m5.097 48.068c-1.018 2.465-1.896 5.176-2.568 8.193l.988.326c.703-3.158 1.636-5.982 2.726-8.52h-1.146z" fill="#cfd8dd"/><path d="m57.759 48.068c1.089 2.537 2.021 5.361 2.725 8.52l.988-.326c-.672-3.018-1.551-5.729-2.568-8.193h-1.145z" fill="#cfd8dd"/><path d="m59.125 48.522c-8.692-25.574-27.126-28.522-27.126-28.522s-18.432 2.948-27.122 28.522z" fill="url(#a)"/><path d="m57.881 48.522c-8.294-16.598-25.882-18.512-25.882-18.512s-17.586 1.914-25.88 18.512z" fill="#d47706"/><path d="m60.253 56.152c-.252 2.551-.894 5.848-.602 5.848.385 0 1.35-2.587 2.323-5.412.265-.767-1.64-1.246-1.721-.436z" fill="#302c3b"/><path d="m3.747 56.152c.252 2.551.894 5.848.602 5.848-.385 0-1.35-2.587-2.323-5.412-.265-.767 1.64-1.246 1.721-.436z" fill="#302c3b"/><path d="m31.999 30.643s-16.938 1.847-24.926 17.88h49.855c-7.99-16.034-24.929-17.88-24.929-17.88z" fill="url(#b)"/><path d="m56.929 48.522c-16.607-.99-33.248-.99-49.855 0-1.051 3.429-2.069 9.238-2.749 13.478 18.357-1.211 36.992-1.211 55.35 0-.68-4.241-1.697-10.048-2.746-13.478z" fill="url(#c)"/><path d="m42.903 52.897c-.285 1.782-21.521 1.782-21.805 0-.694-4.347 2.092-13.077 3.561-17.27.74-2.108 13.943-2.108 14.684 0 1.469 4.193 4.255 12.924 3.56 17.27z" fill="url(#d)"/><path d="m31.737 33.588h.477v14.588h-.477z" fill="#1a1626"/><path d="m20.515 47.922h22.922v.475h-22.922z" fill="#1a1626"/><path d="m40.003 34.865c-.81-2.301-15.196-2.301-16.004 0-1.601 4.567-4.636 14.083-3.881 18.819.309 1.94 23.455 1.94 23.764 0 .755-4.736-2.278-14.251-3.879-18.819zm2.9 18.032c-.285 1.782-21.521 1.782-21.805 0-.694-4.347 2.092-13.077 3.561-17.27.74-2.108 13.943-2.108 14.684 0 1.469 4.193 4.255 12.924 3.56 17.27z" fill="url(#e)"/></svg>