<svg enable-background="new 0 0 64 64" height="64" viewBox="0 0 64 64" width="64" xmlns="http://www.w3.org/2000/svg" xmlns:xlink="http://www.w3.org/1999/xlink"><linearGradient id="a"><stop offset="0" stop-color="#c40000"/><stop offset=".2235" stop-color="#d80005"/><stop offset=".5966" stop-color="#f4000b"/><stop offset=".8121" stop-color="#ff000e"/></linearGradient><linearGradient id="b" gradientTransform="matrix(-1 0 0 1 -270.5811 0)" gradientUnits="userSpaceOnUse" x1="-297.5811" x2="-297.5811" xlink:href="#a" y1="58" y2="28.0005"/><linearGradient id="c" gradientTransform="matrix(-1 0 0 1 -270.5811 0)" gradientUnits="userSpaceOnUse" x1="-328.5811" x2="-320.5811" y1="18" y2="18"><stop offset=".1879" stop-color="#ff000e"/><stop offset=".4034" stop-color="#f4000b"/><stop offset=".7765" stop-color="#d80005"/><stop offset="1" stop-color="#c40000"/></linearGradient><linearGradient id="d" gradientTransform="matrix(-1 0 0 1 -270.5811 0)" gradientUnits="userSpaceOnUse" x1="-328.5811" x2="-318.5811" y1="40" y2="40"><stop offset="0" stop-color="#5b666e"/><stop offset=".0914" stop-color="#494e59"/><stop offset=".1916" stop-color="#3b3b48"/><stop offset=".2951" stop-color="#33303e"/><stop offset=".4061" stop-color="#302c3b"/><stop offset=".4667" stop-color="#302c3b"/></linearGradient><linearGradient id="e" gradientTransform="matrix(-1 0 0 1 -270.5811 0)" gradientUnits="userSpaceOnUse" x1="-297.5811" x2="-297.5811" xlink:href="#a" y1="29" y2="2"/><linearGradient id="f" gradientTransform="matrix(-1 0 0 1 -270.5811 0)" gradientUnits="userSpaceOnUse" x1="-297.5811" x2="-297.5811" y1="27" y2="4"><stop offset="0" stop-color="#ff000e"/><stop offset=".0225" stop-color="#fd000e"/><stop offset=".6681" stop-color="#d40004"/><stop offset="1" stop-color="#c40000"/></linearGradient><linearGradient id="g" gradientUnits="userSpaceOnUse" x1="19.5005" x2="19.5005" y1="21" y2="10"><stop offset="0" stop-color="#302c3b"/><stop offset="1" stop-color="#6e7b85"/></linearGradient><path d="m8 22h38v38h-38z" fill="#99a8ae"/><path d="m10 28h34v30h-34z" fill="url(#b)"/><path d="m8 58h38c.549 0 1 .45 1 1v1h-1-38-1v-1c0-.55.449-1 1-1z" fill="#99a8ae"/><g fill="#6e8189"><path d="m6 60h42v2h-42z"/><path d="m49 7c3 0 5 5 5 5l-2 1c-.934-2.107-1.98-4-3-4h-1v-2z"/><path d="m46 47h2v4h-2z"/></g><path d="m55 19-1 2h-1v-2z" fill="#99a8ae"/><path d="m52 14-1-2 3-1 1 1.333 1-.333 2 2-1 1s1 2 1 4v6h-2v-6h-4l-2-2z" fill="url(#c)"/><path d="m50 25v-8l2 2v4h4v2z" fill="#302c3b"/><path d="m54 25-2 2h-6v-2z" fill="#6e8189"/><path d="m49 48c1.654 0 3 1.346 3 3 0 1.104.896 2 2 2s2-.896 2-2c0-.787-.508-1.752-1.096-2.87-.847-1.614-1.904-3.624-1.904-6.13 0-1.865.57-3.818 1.229-6.082.83-2.848 1.771-6.074 1.771-9.918v-1h2v1c0 4.129-.982 7.502-1.852 10.479-.615 2.115-1.148 3.942-1.148 5.521 0 2.014.891 3.705 1.674 5.199.681 1.296 1.326 2.521 1.326 3.801 0 2.206-1.795 4-4 4-2.207 0-4-1.794-4-4 0-.552-.449-1-1-1h-1v-2z" fill="url(#d)"/><path d="m8 2h38c1.1 0 2 .9 2 2v23c0 1.1-.9 2-2 2h-38c-1.1 0-2-.9-2-2v-23c0-1.1.9-2 2-2z" fill="url(#e)"/><path d="m45 4c.549 0 1 .45 1 1v21c0 .55-.451 1-1 1h-36c-.551 0-1-.45-1-1v-21c0-.55.449-1 1-1z" fill="url(#f)"/><path d="m27 36.25c3.723 0 6.75 3.028 6.75 6.75s-3.027 6.75-6.75 6.75c-3.721 0-6.75-3.028-6.75-6.75s3.029-6.75 6.75-6.75zm0-2.25c-4.969 0-9 4.03-9 9s4.031 9 9 9c4.971 0 9-4.03 9-9s-4.029-9-9-9z" fill="#f46c60"/><path d="m28.802 43.901c-.302 0-.452-.15-.452-.449v-.9c0-.303.15-.453.452-.453h2.923c.303 0 .452.15.452.453v.448c0 2.86-2.315 5.177-5.177 5.177-1.389 0-2.693-.554-3.656-1.516-.215-.216-.215-.422-.004-.638l.959-.954c.211-.211.422-.211.633 0 .548.545 1.283.857 2.068.857 1.301 0 2.404-.848 2.786-2.025z" fill="#f46c60"/><path d="m10 6h34v19h-34z" fill="#302c3b"/><path d="m11 10h17v11h-17z" fill="url(#g)"/><path d="m29 10h4v11h-4z" fill="#ffe12c"/><path d="m34 10h4v11h-4z" fill="#fff"/><path d="m39 10h4v11h-4z" fill="#e81c27"/><path d="m29.5 17.5h3v3h-3z" fill="#f9b700"/><path d="m34.5 17.5h3v3h-3z" fill="#cfd8dd"/><path d="m39.5 17.5h3v3h-3z" fill="#900"/><path d="m14.5 11.5h10v8h-10z" fill="#cfd8dd"/><path d="m17.5 12.229h6v3h-6z" fill="#99a8ae"/><path d="m17.5 15.982h6v3h-6z" fill="#99a8ae"/><path d="m16.101 14.578v.158c0 .029-.017.047-.047.047h-.064c-.03 0-.047-.018-.047-.047v-.162c-.262-.027-.477-.18-.501-.475-.002-.037.02-.057.056-.057h.211c.033 0 .052.018.058.053.016.088.076.143.177.162v-.4c-.224-.08-.472-.186-.472-.508 0-.287.22-.445.472-.471v-.158c0-.031.017-.047.047-.047h.064c.03 0 .047.016.047.047v.16c.237.029.445.178.47.465.002.039-.02.059-.056.059h-.204c-.033 0-.052-.018-.058-.053-.015-.084-.068-.133-.152-.152v.396c.23.082.498.18.498.508-.001.292-.231.452-.499.475zm-.159-1.045v-.336c-.096.018-.149.076-.149.152 0 .087.06.141.149.184zm.334.571c0-.09-.071-.143-.176-.188v.346c.115-.018.176-.078.176-.158z"/><path d="m16.499 18.066v.203c0 .037-.021.057-.057.057h-.732-.111c-.037 0-.058-.02-.058-.057v-1.574c0-.035.021-.057.058-.057h.217c.037 0 .058.021.058.057v1.313h.569c.036 0 .056.021.056.058z"/></svg>