<svg enable-background="new 0 0 64 64" height="64" viewBox="0 0 64 64" width="64" xmlns="http://www.w3.org/2000/svg" xmlns:xlink="http://www.w3.org/1999/xlink"><linearGradient id="a" gradientTransform="matrix(-.866 .5 -.5 -.866 790.2351 869.5457)" gradientUnits="userSpaceOnUse" x1="249.3242" x2="230.3774" y1="1076.54" y2="1109.3568"><stop offset="0" stop-color="#717b80"/><stop offset=".229" stop-color="#889499"/><stop offset=".5213" stop-color="#a0adb2"/><stop offset=".7869" stop-color="#aebdc1"/><stop offset="1" stop-color="#b3c2c6"/></linearGradient><linearGradient id="b"><stop offset="0" stop-color="#cf0000"/><stop offset=".1243" stop-color="#d60002"/><stop offset=".6824" stop-color="#f4000b"/><stop offset="1" stop-color="#ff000e"/></linearGradient><linearGradient id="c" gradientTransform="matrix(-.866 .5 -.5 -.866 790.2351 869.5457)" gradientUnits="userSpaceOnUse" x1="233.4521" x2="244.8484" xlink:href="#b" y1="1113.9004" y2="1138.3397"/><linearGradient id="d" gradientTransform="matrix(.866 .5 .5 -.866 373.6516 1024.1697)" gradientUnits="userSpaceOnUse" x1="-780.4648" x2="-799.4121" y1="660.416" y2="693.2336"><stop offset="0" stop-color="#b3c2c6"/><stop offset="1" stop-color="#d2dbe0"/></linearGradient><linearGradient id="e" gradientTransform="matrix(.866 .5 .5 -.866 373.6516 1024.1697)" gradientUnits="userSpaceOnUse" x1="-783.1025" x2="-798.1761" xlink:href="#b" y1="706.4824" y2="713.5114"/><path d="m25.162 26.01 2.16 3.669c6.723 8.678 18.961 32.218 18.961 32.218s1.09-1.444.429-3.35c-2.593-7.468-12.529-31.485-12.529-31.485-3.279.631-5.478-3.059-5.478-3.059z" fill="url(#a)"/><path d="m27.322 29.679 18.961 32.218s.425-.508.52-1.157l-17.306-30.359z" fill="#b3c2c6"/><path d="m14.652 19.829c3.087.814 5.931-.407 10.45 6.49.304.463 4.411-1.699 4.161-2.208-5.27-10.719-6.859-16.078-9.742-20.485-1.844-2.826-7.226-1.664-9.521 1.159-5.131 6.313.781 14.026 4.652 15.044zm-1.375-14.463c4.359-3.134 10.197 9.524 6.903 11.615-6.199 3.935-13.039-7.204-6.903-11.615z" fill="url(#c)"/><path d="m38.838 26.112-2.16 3.67c-7.801 10.572-18.96 32.218-18.96 32.218s-1.091-1.445-.429-3.35c2.593-7.467 12.527-31.484 12.527-31.484 3.28.63 5.479-3.061 5.479-3.061z" fill="url(#d)"/><path d="m36.678 29.782-18.96 32.218s-.425-.508-.521-1.157l17.307-30.358z" fill="#e6ebef"/><path d="m54 4.889c-2.293-2.821-7.676-3.985-9.521-1.161-2.882 4.41-4.473 9.769-9.741 20.488-.25.508 3.858 2.67 4.161 2.207 4.52-6.898 7.363-5.676 10.45-6.49 3.87-1.019 9.782-8.731 4.651-15.044zm-10.181 12.195c-3.292-2.089 2.545-14.748 6.902-11.614 6.139 4.411-.701 15.551-6.902 11.614z" fill="url(#e)"/><path d="m30.857 32.014c.486.485 1.247.53 1.784.134l-1.92-1.921c-.395.539-.351 1.298.136 1.787z" fill="#99a8ae"/><path d="m32.805 30.064c-.486-.487-1.247-.531-1.787-.136l1.924 1.922c.393-.539.348-1.298-.137-1.786z" fill="#99a8ae"/><path d="m30.86 30.366 1.642 1.643c.058-.041.258-.243.298-.299l-1.641-1.642c-.056.041-.257.243-.299.298z" fill="#6e8189"/></svg>