<svg enable-background="new 0 0 64 64" height="64" viewBox="0 0 64 64" width="64" xmlns="http://www.w3.org/2000/svg" xmlns:xlink="http://www.w3.org/1999/xlink"><radialGradient id="a" cx="-6.2817" cy="37.5938" gradientTransform="matrix(.8994 0 0 .9244 45.5208 -4.5102)" gradientUnits="userSpaceOnUse" r="37.7407"><stop offset=".4485" stop-color="#fc6"/><stop offset=".7332" stop-color="#fecb64"/><stop offset=".87" stop-color="#fac65c"/><stop offset=".9751" stop-color="#f4bd4f"/><stop offset="1" stop-color="#f2ba4b"/></radialGradient><linearGradient id="b"><stop offset=".4545" stop-color="#fc6"/><stop offset=".6609" stop-color="#fdc961"/><stop offset=".9065" stop-color="#f6bf53"/><stop offset="1" stop-color="#f2ba4b"/></linearGradient><radialGradient id="c" cx="-3.291" cy="89.7705" gradientTransform="matrix(.9677 .0044 .0036 1.1738 41.6659 -96.6622)" gradientUnits="userSpaceOnUse" r="11.4864" xlink:href="#b"/><radialGradient id="d" cx="-17.4443" cy="92.7676" gradientTransform="matrix(.9677 .0044 .0036 1.1738 41.4297 -98.8821)" gradientUnits="userSpaceOnUse" r="11.4855" xlink:href="#b"/><radialGradient id="e" cx="-30.7056" cy="99.123" gradientTransform="matrix(.9677 .0044 .0036 1.1738 40.8432 -102.0478)" gradientUnits="userSpaceOnUse" r="10.316" xlink:href="#b"/><radialGradient id="f" cx="11.2847" cy="90.8574" gradientTransform="matrix(.9677 .0044 .0036 1.1738 41.4795 -95.6533)" gradientUnits="userSpaceOnUse" r="11.4861" xlink:href="#b"/><path d="m4.666 24.084c-5.391 15.384 1.918 38.564 27.922 36.824 16.131-1.08 25.031-8.693 27.697-20.135 7.844-33.665-51.182-29.351-55.619-16.689z" fill="url(#a)"/><path d="m29.869 62c-12.461 0-19.207-5.822-22.671-10.707-5.337-7.525-6.702-18.335-3.477-27.539 2.28-6.506 15.768-10.017 27.3-10.017 12.306 0 22.218 3.596 27.194 9.865 3.641 4.586 4.665 10.44 3.044 17.399-2.941 12.62-12.832 19.849-28.605 20.904-.94.064-1.877.095-2.785.095zm1.153-46.263c-12.335 0-23.736 3.893-25.413 8.678-3.018 8.611-1.753 18.708 3.22 25.721 3.191 4.5 9.432 9.864 21.04 9.864.864 0 1.756-.03 2.652-.09 14.805-.992 24.069-7.688 26.79-19.363 1.477-6.334.581-11.617-2.661-15.702-4.595-5.788-13.936-9.108-25.628-9.108z" fill="#d9a640"/><path d="m47.359 31.917-1.623-1.835c-6.752-1.233-19.686 5.574-21.979 16.842 3.374-9.915 17.188-16.503 23.602-15.007z" fill="#d9a640"/><path d="m30.023 9.791c-.053-9.109 13.791-9.028 13.861.082l.061 9.468c.072 9.111-13.793 9.029-13.861-.087z" fill="url(#c)"/><path d="m16.101 11.025c-.053-9.108 13.792-9.027 13.862.082l.061 9.468c.07 9.112-13.795 9.029-13.862-.087z" fill="url(#d)"/><path d="m3.599 15.151c-.049-8.182 12.387-8.108 12.449.073l.053 8.505c.064 8.184-12.389 8.107-12.449-.079z" fill="url(#e)"/><path d="m43.945 12.139c-.053-9.109 13.789-9.027 13.863.083l.061 9.47c.066 9.109-13.793 9.026-13.863-.09z" fill="url(#f)"/><path d="m58.809 12.213c-.066-8.064-10.157-10.351-14.325-4.933-2.166-6.755-12.275-7.074-14.87-.692-3.806-5.539-13.889-4.143-14.485 3.667-3.969-4.106-12.574-2.442-12.53 4.902l.053 8.499c0 8.534 12.338 9.826 14.256 1.879 3.664 4.407 11.371 3.561 13.528-1.755 2.98 4.332 9.87 4.455 12.973.426 2.47 7.67 15.46 7.102 15.46-2.521zm-54.157 11.43-.053-8.498c-.04-6.765 10.449-6.891 10.449.084l.053 8.506c.053 6.782-10.449 6.768-10.449-.092zm12.51-3.162-.061-9.462c0-7.724 11.862-7.745 11.862.094l.061 9.469c-.001 7.838-11.862 7.609-11.862-.101zm13.922-1.234-.061-9.462c0-7.785 11.861-7.677 11.861.094l.061 9.469c0 7.905-11.861 7.572-11.861-.101zm13.922 2.348-.061-9.462c0-7.879 11.863-7.671 11.863.095l.061 9.471c0 7.846-11.863 7.596-11.863-.104z" fill="#d9a640"/><path d="m37.139 17.965c-2.697-.012-9.09 2.26-18.167 2.505-3.975.106-4.631 6.284 1.381 9.002 8.381 3.782 21.305-1.152 25.184 7.169.955 2.051 14.727-6.378 12.543-10.077-5.316-9.001-19.059-8.588-20.941-8.599z" fill="#fc6"/><path d="m44.631 37.064c-2.086-4.474-7.18-4.641-13.077-4.835-3.991-.131-8.118-.268-11.612-1.844-4.091-1.85-5.425-5.144-4.932-7.588.397-1.967 1.941-3.272 3.936-3.325 5.615-.152 10.176-1.089 13.506-1.774 2.081-.428 3.568-.736 4.691-.732.135-.002.316-.004.557-.01 13.587-.343 19.414 4.53 21.898 8.662l-1.061 2.285c-2.506-4.81-8.148-9.25-20.79-8.948-.266.006-.474.009-.614.01-.006 0-.012 0-.018 0-.899 0-2.385.305-4.261.691-3.403.7-8.063 1.657-13.855 1.814-1.074.029-1.814.656-2.029 1.722-.325 1.613.724 3.981 3.795 5.37 3.133 1.414 7.059 1.543 10.855 1.668 6.007.198 12.219.402 14.823 5.991z" fill="#d9a640"/></svg>