<svg enable-background="new 0 0 64 64" height="64" viewBox="0 0 64 64" width="64" xmlns="http://www.w3.org/2000/svg" xmlns:xlink="http://www.w3.org/1999/xlink"><radialGradient id="a" cx="-6.0937" cy="37.8783" gradientTransform="matrix(.8994 0 0 .9244 45.3521 -4.7729)" gradientUnits="userSpaceOnUse" r="37.7416"><stop offset=".4485" stop-color="#fcd5b2"/><stop offset=".7565" stop-color="#fbd3b0"/><stop offset=".9046" stop-color="#f6cda8"/><stop offset="1" stop-color="#f0c59e"/></radialGradient><linearGradient id="b"><stop offset=".4545" stop-color="#fcd5b2"/><stop offset=".6999" stop-color="#f9d1ad"/><stop offset=".9919" stop-color="#f0c59f"/><stop offset="1" stop-color="#f0c59e"/></linearGradient><radialGradient id="c" cx="-3.1629" cy="89.3727" gradientTransform="matrix(.9677 .0045 .0036 1.1739 41.5441 -96.197)" gradientUnits="userSpaceOnUse" r="11.4854" xlink:href="#b"/><radialGradient id="d" cx="-17.3175" cy="92.3692" gradientTransform="matrix(.9677 .0045 .0036 1.1739 41.308 -98.4169)" gradientUnits="userSpaceOnUse" r="11.4854" xlink:href="#b"/><radialGradient id="e" cx="-30.5791" cy="98.7255" gradientTransform="matrix(.9677 .0045 .0036 1.1739 40.7213 -101.583)" gradientUnits="userSpaceOnUse" r="10.3155" xlink:href="#b"/><radialGradient id="f" cx="11.4133" cy="90.4579" gradientTransform="matrix(.9677 .0045 .0036 1.1739 41.3578 -95.1876)" gradientUnits="userSpaceOnUse" r="11.4858" xlink:href="#b"/><path d="m4.665 24.084c-5.391 15.385 1.918 38.563 27.923 36.822 16.132-1.08 25.032-8.691 27.698-20.133 7.844-33.665-51.183-29.351-55.621-16.689z" fill="url(#a)"/><path d="m29.869 62c-12.462 0-19.207-5.824-22.671-10.709-5.337-7.525-6.701-18.334-3.477-27.537 2.28-6.507 15.767-10.018 27.301-10.018 12.306 0 22.218 3.596 27.193 9.865 3.642 4.587 4.665 10.44 3.044 17.399-2.939 12.62-12.831 19.849-28.603 20.905-.942.062-1.879.095-2.787.095zm1.154-46.263c-12.336 0-23.736 3.893-25.413 8.678-3.018 8.611-1.753 18.707 3.22 25.721 3.191 4.5 9.433 9.865 21.04 9.865.864 0 1.756-.031 2.651-.091 14.807-.991 24.07-7.687 26.791-19.363 1.477-6.334.58-11.616-2.662-15.701-4.594-5.789-13.936-9.109-25.627-9.109z" fill="#e0af82"/><path d="m47.361 31.916-1.623-1.836c-6.753-1.233-19.687 5.574-21.979 16.842 3.372-9.914 17.187-16.502 23.602-15.006z" fill="#e0af82"/><path d="m30.024 9.791c-.053-9.109 13.792-9.028 13.862.082l.061 9.467c.072 9.111-13.794 9.029-13.862-.086z" fill="url(#c)"/><path d="m16.101 11.025c-.053-9.108 13.792-9.026 13.862.082l.061 9.468c.07 9.111-13.796 9.029-13.862-.087z" fill="url(#d)"/><path d="m3.599 15.151c-.049-8.182 12.387-8.108 12.449.072l.053 8.506c.064 8.184-12.389 8.106-12.449-.08z" fill="url(#e)"/><path d="m43.947 12.139c-.053-9.109 13.789-9.027 13.863.082l.061 9.471c.066 9.109-13.793 9.025-13.863-.09z" fill="url(#f)"/><path d="m58.81 12.213c-.066-8.064-10.156-10.351-14.324-4.933-2.166-6.756-12.276-7.074-14.871-.693-3.806-5.538-13.889-4.143-14.484 3.667-3.971-4.105-12.576-2.441-12.532 4.903l.053 8.5c0 8.533 12.338 9.826 14.256 1.879 3.664 4.406 11.371 3.561 13.529-1.756 2.98 4.332 9.869 4.455 12.973.426 2.471 7.67 15.461 7.103 15.461-2.521zm-54.158 11.43-.053-8.498c-.039-6.765 10.449-6.891 10.449.084l.053 8.507c.054 6.78-10.449 6.766-10.449-.093zm12.509-3.162-.06-9.463c0-7.723 11.862-7.744 11.862.095l.061 9.47c0 7.837-11.863 7.608-11.863-.102zm13.923-1.234-.061-9.462c0-7.785 11.862-7.677 11.862.095l.061 9.469c.001 7.903-11.862 7.571-11.862-.102zm13.923 2.347-.061-9.462c0-7.879 11.863-7.671 11.863.095l.061 9.471c0 7.847-11.863 7.597-11.863-.104z" fill="#e0af82"/><path d="m37.139 17.965c-2.697-.012-9.09 2.26-18.167 2.506-3.975.106-4.631 6.283 1.381 9.002 8.382 3.781 21.306-1.152 25.186 7.169.955 2.051 14.726-6.378 12.543-10.077-5.317-9.002-19.06-8.59-20.943-8.6z" fill="#fcd5b2"/><path d="m44.632 37.065c-2.086-4.475-7.18-4.642-13.078-4.836-3.99-.131-8.117-.268-11.611-1.844-4.092-1.851-5.426-5.145-4.933-7.589.397-1.967 1.941-3.273 3.936-3.325 5.615-.152 10.176-1.09 13.506-1.773 2.081-.428 3.569-.736 4.692-.733.135-.002.316-.004.557-.01 13.586-.343 19.413 4.53 21.896 8.662l-1.059 2.285c-2.506-4.809-8.149-9.25-20.791-8.947-.266.006-.473.009-.613.01-.006 0-.012 0-.018 0-.9 0-2.385.305-4.262.691-3.403.699-8.063 1.656-13.855 1.813-1.074.028-1.814.656-2.029 1.722-.324 1.613.725 3.981 3.795 5.37 3.134 1.413 7.059 1.543 10.855 1.668 6.008.198 12.219.402 14.824 5.989z" fill="#e0af82"/></svg>