<svg enable-background="new 0 0 64 64" height="64" viewBox="0 0 64 64" width="64" xmlns="http://www.w3.org/2000/svg" xmlns:xlink="http://www.w3.org/1999/xlink"><radialGradient id="a" cx="-6.0938" cy="37.8783" gradientTransform="matrix(.8994 0 0 .9244 45.3521 -4.7729)" gradientUnits="userSpaceOnUse" r="37.7416"><stop offset=".4485" stop-color="#916b50"/><stop offset=".77" stop-color="#8f694e"/><stop offset=".9245" stop-color="#8a6246"/><stop offset="1" stop-color="#855c3f"/></radialGradient><linearGradient id="b"><stop offset=".4545" stop-color="#916b50"/><stop offset=".724" stop-color="#8d674b"/><stop offset="1" stop-color="#855c3f"/></linearGradient><radialGradient id="c" cx="-3.1626" cy="89.3726" gradientTransform="matrix(.9677 .0045 .0036 1.1739 41.5441 -96.197)" gradientUnits="userSpaceOnUse" r="11.4854" xlink:href="#b"/><radialGradient id="d" cx="-17.317" cy="92.3691" gradientTransform="matrix(.9677 .0045 .0036 1.1739 41.308 -98.4169)" gradientUnits="userSpaceOnUse" r="11.4854" xlink:href="#b"/><radialGradient id="e" cx="-30.5792" cy="98.7255" gradientTransform="matrix(.9677 .0045 .0036 1.1739 40.7213 -101.583)" gradientUnits="userSpaceOnUse" r="10.3155" xlink:href="#b"/><radialGradient id="f" cx="11.4132" cy="90.4579" gradientTransform="matrix(.9677 .0045 .0036 1.1739 41.3578 -95.1876)" gradientUnits="userSpaceOnUse" r="11.4858" xlink:href="#b"/><path d="m4.665 24.084c-5.391 15.385 1.918 38.563 27.924 36.822 16.131-1.08 25.031-8.691 27.697-20.133 7.844-33.665-51.183-29.351-55.621-16.689z" fill="url(#a)"/><path d="m29.87 62c-12.463 0-19.207-5.824-22.672-10.709-5.336-7.525-6.701-18.334-3.477-27.537 2.281-6.507 15.768-10.018 27.301-10.018 12.307 0 22.219 3.596 27.193 9.865 3.642 4.587 4.665 10.44 3.044 17.399-2.94 12.619-12.83 19.849-28.604 20.904-.941.063-1.878.096-2.785.096zm1.153-46.263c-12.336 0-23.736 3.893-25.412 8.678-3.018 8.611-1.754 18.707 3.219 25.721 3.191 4.499 9.433 9.864 21.04 9.864.863 0 1.756-.031 2.65-.091 14.807-.991 24.07-7.687 26.791-19.363 1.477-6.334.58-11.616-2.662-15.701-4.593-5.788-13.935-9.108-25.626-9.108z" fill="#754e31"/><path d="m47.361 31.916-1.623-1.836c-6.752-1.233-19.686 5.574-21.978 16.842 3.372-9.914 17.187-16.502 23.601-15.006z" fill="#754e31"/><path d="m30.025 9.791c-.053-9.109 13.791-9.028 13.861.082l.061 9.467c.072 9.111-13.793 9.029-13.861-.086z" fill="url(#c)"/><path d="m16.101 11.025c-.053-9.108 13.793-9.026 13.863.082l.061 9.468c.07 9.111-13.797 9.029-13.863-.087z" fill="url(#d)"/><path d="m3.599 15.151c-.049-8.182 12.387-8.108 12.449.072l.053 8.506c.064 8.184-12.389 8.106-12.449-.08z" fill="url(#e)"/><path d="m43.947 12.139c-.053-9.109 13.789-9.027 13.863.082l.061 9.471c.066 9.109-13.793 9.025-13.863-.09z" fill="url(#f)"/><path d="m58.81 12.213c-.067-8.064-10.156-10.351-14.324-4.933-2.166-6.756-12.276-7.074-14.872-.693-3.804-5.538-13.888-4.143-14.484 3.667-3.969-4.105-12.574-2.441-12.531 4.903l.053 8.5c0 8.533 12.338 9.826 14.256 1.879 3.664 4.406 11.371 3.561 13.529-1.756 2.981 4.332 9.869 4.455 12.973.426 2.471 7.67 15.461 7.103 15.461-2.521zm-54.158 11.43-.053-8.498c-.039-6.765 10.449-6.891 10.449.084l.053 8.507c.054 6.78-10.449 6.766-10.449-.093zm12.509-3.162-.06-9.463c0-7.723 11.863-7.744 11.863.095l.061 9.47c0 7.837-11.864 7.608-11.864-.102zm13.924-1.234-.06-9.462c0-7.785 11.861-7.677 11.861.095l.061 9.469c0 7.903-11.862 7.571-11.862-.102zm13.922 2.347-.06-9.462c0-7.879 11.863-7.671 11.863.095l.061 9.471c-.001 7.847-11.864 7.597-11.864-.104z" fill="#754e31"/><path d="m37.14 17.965c-2.697-.012-9.09 2.26-18.168 2.506-3.975.106-4.631 6.283 1.381 9.002 8.383 3.781 21.307-1.152 25.186 7.169.955 2.051 14.727-6.378 12.543-10.077-5.317-9.002-19.059-8.59-20.942-8.6z" fill="#916b50"/><path d="m44.632 37.065c-2.086-4.475-7.18-4.642-13.078-4.836-3.99-.131-8.117-.268-11.611-1.844-4.092-1.851-5.426-5.145-4.932-7.589.397-1.967 1.941-3.273 3.936-3.325 5.615-.152 10.176-1.09 13.506-1.773 2.08-.428 3.568-.736 4.691-.733.135-.002.316-.004.557-.01 13.586-.343 19.414 4.53 21.896 8.662l-1.059 2.285c-2.506-4.809-8.148-9.25-20.791-8.947-.266.006-.473.009-.613.01-.006 0-.012 0-.018 0-.9 0-2.385.305-4.262.691-3.402.699-8.063 1.656-13.856 1.813-1.074.028-1.815.656-2.029 1.722-.324 1.613.725 3.981 3.795 5.37 3.135 1.413 7.059 1.543 10.855 1.668 6.008.198 12.219.402 14.824 5.989z" fill="#754e31"/></svg>