<svg enable-background="new 0 0 64 64" height="64" viewBox="0 0 64 64" width="64" xmlns="http://www.w3.org/2000/svg" xmlns:xlink="http://www.w3.org/1999/xlink"><radialGradient id="a" cx="208.7653" cy="-597.884" gradientTransform="matrix(-.0056 .8974 -.7113 .0043 -395.2511 -164.0669)" gradientUnits="userSpaceOnUse" r="47.4407"><stop offset=".4364" stop-color="#614a36"/><stop offset=".72" stop-color="#5f4834"/><stop offset=".846" stop-color="#58412d"/><stop offset=".903" stop-color="#523b26"/></radialGradient><path d="m51.645 32.215c-8.023.201-8.746 7.758-11.072 5.953-.602-.468-.373-3.72-.373-3.72.139-5.336.242-12.682.309-23.492.035-5.438-8.225-5.393-8.26.051.01-1.365.017-2.76.029-4.19.033-5.434-8.227-5.432-8.258.051-.01 1.465-.021 2.854-.031 4.189.037-5.428-8.225-5.377-8.258.049-.008 1.16-.021 3.824-.045 6.967-.205-5.412-7.051-5.252-7.275.168-.252 6.17-.629 18.717-.66 25.267-.047 9.395 5.426 18 16.059 17.738 23.109-.57 17.514-16.693 31.754-25.1 1.764-1.04.079-4.028-3.919-3.931z" fill="url(#a)"/><g fill="#452f1b"><path d="m40.178 37.43c-4.09.184-10.5 6.838-10.211 14.203.533-6.672 7.603-12.734 11.539-12.707z"/><path d="m51.645 31.465c-7.723.193-9.67 7.213-10.558 6.15-.256-.309-.23-1.787-.135-3.148.145-5.619.242-13.088.307-23.506.031-4.721-5.394-6.102-8.234-3.547l.004-.594c0-6.436-9.758-6.436-9.758.043l-.006.631c-2.752-2.484-8.254-1.17-8.283 3.607l-.021 3.357c-2.606-2.438-7.111-.764-7.297 3.752-.253 6.111-.632 18.632-.664 25.294-.037 7.284 3.61 18.496 16.809 18.496 23.566-.58 18.168-16.963 32.135-25.207 2.267-1.335.906-5.328-4.299-5.328zm3.537 4.035c-14.795 8.73-8.656 24.441-31.373 25-11.188 0-15.348-9.033-15.309-16.988.031-6.644.41-19.141.66-25.24.188-4.498 5.594-4.561 5.775-.188l-.098 15.533 1.5.01.098-15.549h.002l.045-6.967c0-4.455 6.756-4.457 6.756-.063l-.141 22.52 1.5.01.15-23.783.021-2.924c.027-4.592 6.781-4.359 6.758-.06l-.029 4.191h.003l-.143 22.516 1.5.01.143-22.545c0-4.426 6.758-4.426 6.758-.031 0 10.408-.162 17.867-.307 23.443-.17 2.422.051 3.891.66 4.367 3.279 2.539 3.695-5.601 11.533-5.797 3.315 0 4.501 1.967 3.538 2.535z"/></g></svg>