<svg enable-background="new 0 0 64 64" height="64" viewBox="0 0 64 64" width="64" xmlns="http://www.w3.org/2000/svg" xmlns:xlink="http://www.w3.org/1999/xlink"><radialGradient id="a" cx="208.6719" cy="-597.6675" gradientTransform="matrix(-.0056 .8974 -.7113 .0043 -395.0905 -163.977)" gradientUnits="userSpaceOnUse" r="47.4408"><stop offset=".4364" stop-color="#fc6"/><stop offset=".6859" stop-color="#fecb64"/><stop offset=".7967" stop-color="#fac65d"/><stop offset=".88" stop-color="#f4bd50"/><stop offset=".903" stop-color="#f2ba4b"/></radialGradient><path d="m51.644 32.216c-8.022.2-8.746 7.756-11.071 5.952-.603-.469-.373-3.72-.373-3.72.139-5.336.241-12.682.308-23.493.036-5.438-8.224-5.394-8.258.051.01-1.365.017-2.76.028-4.19.033-5.433-8.227-5.43-8.258.052-.01 1.465-.021 2.853-.03 4.189.036-5.428-8.225-5.378-8.257.049-.008 1.16-.022 3.824-.045 6.967-.206-5.412-7.051-5.253-7.275.168-.253 6.168-.63 18.715-.66 25.267-.047 9.395 5.425 18 16.057 17.738 23.109-.569 17.515-16.693 31.755-25.1 1.762-1.04.077-4.028-3.921-3.93z" fill="url(#a)"/><g fill="#d9a640"><path d="m40.177 37.43c-4.09.184-10.499 6.838-10.209 14.204.532-6.672 7.602-12.735 11.537-12.709z"/><path d="m51.644 31.465c-7.722.193-9.669 7.213-10.558 6.149-.257-.308-.23-1.786-.136-3.146.146-5.619.243-13.089.308-23.507.03-4.721-5.396-6.102-8.235-3.546l.004-.594c0-6.435-9.758-6.435-9.758.042l-.005.631c-2.753-2.483-8.254-1.17-8.283 3.607l-.021 3.359c-2.605-2.438-7.111-.764-7.298 3.751-.251 6.11-.631 18.632-.662 25.293-.037 7.283 3.609 18.496 16.808 18.496 23.567-.58 18.168-16.962 32.136-25.207 2.268-1.336.906-5.328-4.3-5.328zm3.538 4.036c-14.795 8.73-8.656 24.44-31.374 24.999-11.187 0-15.348-9.033-15.308-16.988.03-6.645.409-19.141.66-25.239.187-4.499 5.593-4.561 5.775-.188l-.098 15.534 1.5.01.098-15.55h.001l.045-6.967c0-4.454 6.757-4.456 6.757-.062l-.141 22.519 1.5.01.15-23.784h-.001l.021-2.923c.028-4.592 6.782-4.36 6.758-.062l-.028 4.191h.003l-.144 22.516 1.5.01.144-22.545c0-4.425 6.757-4.425 6.757-.031 0 10.408-.161 17.869-.306 23.445-.171 2.422.051 3.89.66 4.365 3.278 2.541 3.694-5.601 11.532-5.796 3.316 0 4.501 1.968 3.539 2.536z"/></g></svg>