<svg enable-background="new 0 0 64 64" height="64" viewBox="0 0 64 64" width="64" xmlns="http://www.w3.org/2000/svg" xmlns:xlink="http://www.w3.org/1999/xlink"><radialGradient id="a" cx="47.1592" cy="43.167" gradientTransform="matrix(.9834 0 0 .9813 -9.0505 -1.5579)" gradientUnits="userSpaceOnUse" r="23.3364"><stop offset=".4485" stop-color="#fc6"/><stop offset=".7332" stop-color="#fecb64"/><stop offset=".87" stop-color="#fac65c"/><stop offset=".9751" stop-color="#f4bd4f"/><stop offset="1" stop-color="#f2ba4b"/></radialGradient><linearGradient id="b" gradientUnits="userSpaceOnUse" x1="37.627" x2="38.9849" y1="34.4648" y2="-11.364"><stop offset="0" stop-color="#f2ba4b"/><stop offset=".038" stop-color="#f4bd4f"/><stop offset=".2022" stop-color="#fac55c"/><stop offset=".4153" stop-color="#fecb64"/><stop offset=".8545" stop-color="#fc6"/></linearGradient><linearGradient id="c"><stop offset=".4545" stop-color="#fc6"/><stop offset=".6609" stop-color="#fdc961"/><stop offset=".9065" stop-color="#f6bf53"/><stop offset="1" stop-color="#f2ba4b"/></linearGradient><radialGradient id="d" cx="-231.0024" cy="29.3149" gradientTransform="matrix(.8309 -.0853 .129 1.1847 205.1527 -22.8956)" gradientUnits="userSpaceOnUse" r="5.5923" xlink:href="#c"/><radialGradient id="e" cx="-221.0244" cy="25.1294" gradientTransform="matrix(.8309 -.0853 .129 1.1847 205.7147 -20.7104)" gradientUnits="userSpaceOnUse" r="5.5926" xlink:href="#c"/><path d="m13.446 36.283c-2.889 20.386 11.217 24.892 18.729 24.965 6.504.063 15.798-2.592 18.562-14.104 5.256-21.911-32.676-18.404-37.291-10.861z" fill="url(#a)"/><g fill="#d9a640"><path d="m12.709 36.178c-2.961 20.283 10.79 25.736 19.47 25.822 4.676 0 16.112-1.431 19.292-14.682 5.755-23.98-37.598-19.106-38.762-11.14zm37.303 10.791c-2.931 12.213-13.512 13.531-17.833 13.531-8.886-.086-20.525-5.672-18.009-23.95 4.619-6.863 40.816-10.308 35.842 10.419z"/><path d="m42.542 41.194-1.013-1.264c-4.217-.85-12.294 3.838-13.725 11.602 2.106-6.828 10.733-11.367 14.738-10.338z"/><path d="m52.854 8.673c1.457-6.542-8.357-8.86-9.972-1.992-1.98 8.432-4.254 17.34-5.133 18.961-.801-1.754-2.621-11.197-3.805-19.469-.932-6.517-10.86-5.028-9.993 1.879 1.404 11.193 3.738 22.314 3.74 22.32 3.7 2.962 11.639-1.788 20.537 4.725-.468-7.532 1.571-12.721 4.626-26.424z"/></g><path d="m44.222 7.12c-1.982 8.432-4.473 20.523-6.518 20.51-.967-.006-2.455-2.268-5.116-20.822-.754-5.261-7.822-3.989-7.16 1.281 1.404 11.193 4.047 23.639 4.047 23.639.357 1.818 5.511-3.175 17.197 2.23-.239-7.538 1.934-12.714 4.686-25.424 1.091-5.048-5.956-6.44-7.136-1.414z" fill="url(#b)"/><path d="m11.047 31.714c-.828-7.316 9.379-8.268 10.129-.971l.707 6.123c.822 7.242-9.379 8.164-10.137.934z" fill="#d9a640"/><path d="m12.54 31.521c-.586-5.256 6.566-5.947 7.16-.686l.691 6.199c.59 5.236-6.572 5.898-7.165.66z" fill="url(#d)"/><path d="m19.36 28.091c-.828-7.316 9.381-8.27 10.129-.971l.707 6.123c.822 7.242-9.377 8.164-10.135.932z" fill="#d9a640"/><path d="m20.852 27.897c-.586-5.258 6.568-5.947 7.16-.686l.693 6.197c.588 5.236-6.572 5.9-7.164.66z" fill="url(#e)"/><path d="m35.866 31.585c-1.718-.01-5.791 1.555-11.57 1.725-2.531.072-2.95 4.328.881 6.203 5.335 2.605 13.567-.795 16.037 4.939.608 1.412 9.513-2.266 8.46-4.982-2.652-6.846-12.609-7.879-13.808-7.885z" fill="#fc6"/><path d="m40.547 44.757c-2.301-5.342-10.65-2.111-15.683-4.566-4.699-2.301-3.941-7.533-.587-7.629 3.563-.105 8.566-1.928 11.621-1.928 3.374 0 9.438.805 13.298 4.867 1.646 1.733-.15 2.121-1.34.814-2.833-3.106-8.646-4.32-11.958-4.32-3.338 0-7.881 1.955-11.581 2.064-1.504.043-2.227 3.111 1.174 4.775 5.175 2.527 13.656-1.037 16.391 5.313z" fill="#d9a640"/></svg>