<svg enable-background="new 0 0 64 64" height="64" viewBox="0 0 64 64" width="64" xmlns="http://www.w3.org/2000/svg" xmlns:xlink="http://www.w3.org/1999/xlink"><radialGradient id="a" cx="47.2063" cy="42.8452" gradientTransform="matrix(.9834 0 0 .9813 -9.0957 -1.2445)" gradientUnits="userSpaceOnUse" r="23.336"><stop offset=".4485" stop-color="#614a36"/><stop offset=".7752" stop-color="#5f4834"/><stop offset=".9322" stop-color="#58412c"/><stop offset="1" stop-color="#523b26"/></radialGradient><linearGradient id="b" gradientUnits="userSpaceOnUse" x1="37.6278" x2="38.9857" y1="34.464" y2="-11.364"><stop offset="0" stop-color="#523b26"/><stop offset=".105" stop-color="#58412c"/><stop offset=".3499" stop-color="#5f4834"/><stop offset=".8545" stop-color="#614a36"/></linearGradient><linearGradient id="c"><stop offset=".4545" stop-color="#614a36"/><stop offset=".7335" stop-color="#5c4531"/><stop offset="1" stop-color="#523b26"/></linearGradient><radialGradient id="d" cx="-230.6732" cy="29.1846" gradientTransform="matrix(.8309 -.0853 .129 1.1847 204.8886 -22.7154)" gradientUnits="userSpaceOnUse" r="5.5926" xlink:href="#c"/><radialGradient id="e" cx="-220.6946" cy="24.9999" gradientTransform="matrix(.8309 -.0853 .129 1.1847 205.4505 -20.5305)" gradientUnits="userSpaceOnUse" r="5.5926" xlink:href="#c"/><path d="m13.447 36.283c-2.889 20.385 11.217 24.891 18.728 24.965 6.504.063 15.797-2.592 18.561-14.105 5.257-21.91-32.674-18.403-37.289-10.86z" fill="url(#a)"/><g fill="#452f1b"><path d="m12.71 36.178c-2.963 20.283 10.789 25.736 19.469 25.822 4.676 0 16.111-1.432 19.291-14.682 5.756-23.98-37.598-19.107-38.76-11.14zm37.301 10.791c-2.93 12.213-13.512 13.531-17.832 13.531-8.885-.086-20.525-5.672-18.008-23.951 4.617-6.863 40.815-10.307 35.84 10.42z"/><path d="m42.542 41.194-1.014-1.264c-4.217-.85-12.293 3.838-13.725 11.602 2.106-6.829 10.733-11.368 14.739-10.338z"/><path d="m52.853 8.672c1.457-6.541-8.357-8.859-9.971-1.992-1.98 8.432-4.254 17.34-5.133 18.961-.801-1.754-2.621-11.197-3.805-19.469-.932-6.516-10.859-5.027-9.992 1.879 1.404 11.193 3.738 22.314 3.74 22.32 3.699 2.963 11.639-1.787 20.535 4.725-.468-7.531 1.571-12.721 4.626-26.424z"/></g><path d="m44.222 7.119c-1.982 8.432-4.473 20.524-6.517 20.51-.967-.006-2.455-2.268-5.115-20.822-.754-5.26-7.822-3.988-7.16 1.281 1.404 11.193 4.047 23.639 4.047 23.639.358 1.818 5.51-3.174 17.195 2.23-.238-7.537 1.934-12.713 4.686-25.424 1.09-5.046-5.956-6.439-7.136-1.414z" fill="url(#b)"/><path d="m11.048 31.713c-.828-7.316 9.379-8.268 10.129-.971l.707 6.123c.822 7.242-9.379 8.164-10.137.934z" fill="#452f1b"/><path d="m12.54 31.52c-.586-5.256 6.566-5.947 7.16-.685l.691 6.199c.59 5.236-6.572 5.898-7.166.66z" fill="url(#d)"/><path d="m19.361 28.09c-.828-7.316 9.381-8.27 10.129-.971l.707 6.123c.822 7.242-9.377 8.164-10.135.932z" fill="#452f1b"/><path d="m20.853 27.897c-.586-5.258 6.568-5.947 7.16-.686l.693 6.197c.588 5.236-6.572 5.9-7.164.66z" fill="url(#e)"/><path d="m35.866 31.584c-1.719-.01-5.791 1.555-11.57 1.725-2.531.072-2.949 4.328.881 6.203 5.336 2.606 13.566-.795 16.037 4.94.607 1.412 9.512-2.266 8.459-4.982-2.65-6.847-12.607-7.88-13.807-7.886z" fill="#614a36"/><path d="m40.546 44.756c-2.301-5.342-10.649-2.111-15.682-4.566-4.699-2.301-3.941-7.533-.588-7.629 3.562-.105 8.566-1.928 11.621-1.928 3.373 0 9.437.805 13.297 4.867 1.646 1.734-.15 2.121-1.34.815-2.832-3.106-8.645-4.32-11.957-4.32-3.338 0-7.881 1.955-11.58 2.065-1.504.043-2.226 3.111 1.174 4.775 5.174 2.527 13.654-1.037 16.391 5.313z" fill="#452f1b"/></svg>