<svg enable-background="new 0 0 64 64" height="64" viewBox="0 0 64 64" width="64" xmlns="http://www.w3.org/2000/svg" xmlns:xlink="http://www.w3.org/1999/xlink"><radialGradient id="a" cx="37.6768" cy="41.874" gradientTransform="matrix(.9925 .1479 -.0822 .5988 2.9696 7.8864)" gradientUnits="userSpaceOnUse" r="35.6375"><stop offset=".4364" stop-color="#fc6"/><stop offset=".6859" stop-color="#fecb64"/><stop offset=".7967" stop-color="#fac65d"/><stop offset=".88" stop-color="#f4bd50"/><stop offset=".903" stop-color="#f2ba4b"/></radialGradient><linearGradient id="b" gradientUnits="userSpaceOnUse" x1="19.7363" x2="25.6522" y1="30.3218" y2="34.4528"><stop offset=".1333" stop-color="#4e5e67"/><stop offset=".1832" stop-color="#47525c"/><stop offset=".2779" stop-color="#3c414d"/><stop offset=".3952" stop-color="#353543"/><stop offset=".5588" stop-color="#312e3d"/><stop offset="1" stop-color="#302c3b"/></linearGradient><path d="m58.763 34.396c-1.558 0-6.354-.124-9.194-.583-4.857-.785-12.95-4.709-26.128-9.155-2.187-.737-5.528 4.135-16.808 8.322-3.155 1.171.112 5.437-3.593 17.96-1.664 5.629 4.132 6.396 6.508 4.727.502 5.063 6.267 5.334 6.643 1.875 2.339 3.25 5.302 1.04 5.39-.629 1.941 2.941 5.681 1.17 5.39-1.246 2.631 6.063 17.336 5.396 21.649 1.044 0 0 4.871-.745 9.68-.745 3.371-.001 3.571-21.57.463-21.57z" fill="url(#a)"/><path d="m27.584 57.465c-.422 1.758-2.605 2.865-5.478.838-1.017 2.077-3.809 2.247-5.608.686-1.611 2.78-6.45 1.923-7.505-2.188-3.325 1.283-8.322-.471-6.665-6.074 3.734-12.627.203-17.024 4.049-18.451 10.584-3.931 13.945-8.443 16.6-8.443 2.021 0 17.091 6.584 25.534 9.006 2.613.749 8.451.807 10.254.807 4.598 0 4.162 23.069-.463 23.069-4.106 0-8.308.558-9.332.702-4.803 4.592-14.327 4.911-21.386.048zm-1.807-3.3c10.138 9.08 20.51 4.424 22.489 1.841 0 0 5.226-.791 10.035-.791 2.77 0 3.043-20.073.287-20.073-.023 0-6.387-.236-9.136-.589-4.214-.541-18.831-6.874-26.247-9.185-1.679-.523-5.271 4.216-16.313 8.314-2.423.899.431 5.416-3.135 17.471-1.419 4.807 3.698 5.717 6.408 3.164-.331 4.803 5.485 7.225 5.495 1.205 2.136 4.379 6.412 3.895 4.732-.722 3.782 4.07 7.032 4.492 5.385-.635z" fill="#d9a640"/><path d="m11.218 38.33c2.769 4.344-4.676 14.1 2.883 3.449 9.13-12.862.586-1.084-2.883-3.449z" fill="#d9a640"/><path d="m43.951 4.476-3.446-2.476-3.15 4.736-.873-.626-28.794 43.3-3.095 9.481-1.663 2.502.845.607 1.663-2.502 7.443-6.359 28.792-43.3-.871-.625z" fill="url(#b)"/><path d="m44.194 54.897c23.691-9.481-7.726-22.24-21.581-16.395-2.58 1.088-8.074 7.048-14.267 10.821-3.338 2.035-1.243 9.225 4.256 7.326 4.842-1.672 5.154-4.234 12.599-5.371 3.611 2.737 8.214 7.933 18.993 3.619z" fill="#fc6"/><path d="m7.982 48.683c6.553-4.021 12.466-10.632 17.862-12.39l.461 1.428c-4.904 1.598-11.451 8.547-17.55 12.245-3.129 1.899-.89 7.207 3.666 5.963 4.79-1.309 5.039-4.84 13.054-5.424 4.665 4.253 10.174 7.199 19.336 3.345l.577 1.383c-9.763 4.111-15.598.95-20.411-3.178-6.737.564-6.739 3.753-12.148 5.317-6.605 1.91-9.105-6.076-4.847-8.689z" fill="#d9a640"/></svg>