<svg enable-background="new 0 0 64 64" height="64" viewBox="0 0 64 64" width="64" xmlns="http://www.w3.org/2000/svg" xmlns:xlink="http://www.w3.org/1999/xlink"><linearGradient id="a" gradientTransform="matrix(42 0 0 -52 8843 14357)" gradientUnits="userSpaceOnUse" x1="-210" x2="-210" y1="275.0195" y2="276.0195"><stop offset="0" stop-color="#f90"/><stop offset=".022" stop-color="#ff9c03"/><stop offset=".274" stop-color="#ffb91d"/><stop offset=".5236" stop-color="#ffce31"/><stop offset=".7678" stop-color="#ffdb3c"/><stop offset="1" stop-color="#ffdf40"/></linearGradient><linearGradient id="b" gradientTransform="matrix(24 0 0 -26 4973 6997)" gradientUnits="userSpaceOnUse" x1="-205.125" x2="-205.125" y1="268.0381" y2="269.0381"><stop offset="0" stop-color="#6fad00"/><stop offset=".0389" stop-color="#73b202"/><stop offset=".2625" stop-color="#87cc0f"/><stop offset=".4933" stop-color="#96de17"/><stop offset=".734" stop-color="#9ee91c"/><stop offset="1" stop-color="#a1ed1e"/></linearGradient><linearGradient id="c" gradientTransform="matrix(24 0 0 -26 4967 7031)" gradientUnits="userSpaceOnUse" x1="-205.125" x2="-205.125" y1="268.0381" y2="269.0381"><stop offset="0" stop-color="#7d0c7a"/><stop offset=".094" stop-color="#930c90"/><stop offset=".254" stop-color="#b30dae"/><stop offset=".4208" stop-color="#cc0dc6"/><stop offset=".5949" stop-color="#dd0ed8"/><stop offset=".781" stop-color="#e80ee2"/><stop offset="1" stop-color="#eb0ee5"/></linearGradient><path d="m23 4c-1.816 20.226-5.507 23.868-21 26 15.493 2.132 19.184 5.774 21 26 1.816-20.226 5.506-23.868 21-26-15.494-2.132-19.186-5.774-21-26z" fill="url(#a)"/><path d="m50 2c-1.037 10.113-3.146 11.935-12 13 8.854 1.065 10.963 2.887 12 13 1.037-10.113 3.146-11.935 12-13-8.854-1.065-10.963-2.887-12-13z" fill="url(#b)"/><path d="m44 36c-1.037 10.113-3.146 11.934-12 13 8.854 1.066 10.963 2.888 12 13 1.037-10.112 3.146-11.934 12-13-8.854-1.066-10.963-2.887-12-13z" fill="url(#c)"/></svg>