<svg enable-background="new 0 0 64 64" height="64" viewBox="0 0 64 64" width="64" xmlns="http://www.w3.org/2000/svg" xmlns:xlink="http://www.w3.org/1999/xlink"><linearGradient id="a" gradientUnits="userSpaceOnUse" x1="32" x2="32" y1="2" y2="62"><stop offset="0" stop-color="#47de00"/><stop offset=".2814" stop-color="#45da00"/><stop offset=".5729" stop-color="#41cd00"/><stop offset=".8681" stop-color="#39b900"/><stop offset="1" stop-color="#35ad00"/></linearGradient><path d="m62 54c0 4.4-3.6 8-8 8h-44c-4.4 0-8-3.6-8-8v-44c0-4.4 3.6-8 8-8h44c4.4 0 8 3.6 8 8z" fill="url(#a)"/><g fill="#fff"><path d="m30 9h4v46h-4z"/><path d="m9 30h46v4h-46z"/><path d="m30 9h4.001v46h-4.001z" transform="matrix(.707 .7072 -.7072 .707 32.0041 -13.2549)"/><path d="m30 9h4v46h-4z" transform="matrix(-.7072 .707 -.707 -.7072 77.2546 32.0032)"/></g></svg>