<svg enable-background="new 0 0 64 64" height="64" viewBox="0 0 64 64" width="64" xmlns="http://www.w3.org/2000/svg" xmlns:xlink="http://www.w3.org/1999/xlink"><linearGradient id="a"><stop offset="0" stop-color="#82eaff"/><stop offset="1" stop-color="#00c4ff"/></linearGradient><radialGradient id="b" cx="31.9995" cy="32" gradientUnits="userSpaceOnUse" r="22.5941" xlink:href="#a"/><radialGradient id="c" cx="32" cy="31.999" gradientUnits="userSpaceOnUse" r="24.3149" xlink:href="#a"/><radialGradient id="d" cx="32" cy="32" gradientUnits="userSpaceOnUse" r="24.3154" xlink:href="#a"/><path d="m33.999 45.318v-26.638l8.402-8.254c.787-.773.799-2.039.025-2.828-.775-.787-2.041-.799-2.828-.025l-5.6 5.5v-9.073c0-1.105-.895-2-2-2-1.104 0-2 .895-2 2v9.074l-5.598-5.502c-.789-.773-2.055-.762-2.828.025-.773.789-.764 2.055.025 2.828l8.4 8.256v26.637l-8.4 8.254c-.789.775-.799 2.041-.025 2.828.391.398.908.6 1.426.6.506 0 1.014-.191 1.402-.574l5.598-5.5v9.074c0 1.104.896 2 2 2 1.105 0 2-.896 2-2v-9.074l5.6 5.5c.389.383.895.574 1.4.574.518 0 1.035-.201 1.428-.6.773-.787.762-2.053-.025-2.828z" fill="url(#b)"/><path d="m57.501 26.367-7.727-2.1 8.029-4.535c.979-.553 1.313-1.775.748-2.732s-1.816-1.287-2.793-.732l-8.029 4.537 2.006-7.6c.283-1.068-.373-2.16-1.467-2.436-1.09-.279-2.207.367-2.49 1.436l-3.012 11.402-23.578 13.32-11.597-3.148c-1.088-.297-2.213.328-2.516 1.391-.303 1.064.336 2.168 1.424 2.463l7.729 2.098-8.031 4.537c-.977.552-1.313 1.775-.749 2.732.379.641 1.066 1 1.771 1 .348 0 .699-.086 1.02-.268l8.031-4.537-2.006 7.598c-.285 1.07.373 2.16 1.467 2.438.172.043.342.063.512.063.91 0 1.74-.598 1.979-1.498l3.012-11.404 23.576-13.32 11.6 3.148c.182.051.367.074.547.074.895 0 1.719-.582 1.969-1.467.302-1.063-.337-2.165-1.425-2.46z" fill="url(#c)"/><path d="m57.804 44.268-8.029-4.537 7.727-2.098c1.088-.295 1.727-1.398 1.424-2.463-.301-1.063-1.422-1.688-2.516-1.391l-11.598 3.148-23.578-13.32-3.012-11.402c-.283-1.068-1.398-1.715-2.49-1.436-1.094.275-1.752 1.367-1.467 2.438l2.006 7.598-8.031-4.537c-.977-.553-2.227-.225-2.792.732s-.229 2.18.748 2.732l8.031 4.537-7.729 2.098c-1.088.295-1.727 1.396-1.424 2.461.25.887 1.072 1.467 1.969 1.467.18 0 .365-.023.547-.074l11.6-3.148 23.576 13.32 3.012 11.402c.238.902 1.068 1.5 1.979 1.5.168 0 .34-.021.512-.064 1.094-.275 1.75-1.367 1.467-2.436l-2.006-7.6 8.029 4.537c.322.182.674.268 1.021.268.705 0 1.393-.359 1.771-1 .565-.957.231-2.18-.747-2.732z" fill="url(#d)"/></svg>