<svg enable-background="new 0 0 64 64" height="64" viewBox="0 0 64 64" width="64" xmlns="http://www.w3.org/2000/svg" xmlns:xlink="http://www.w3.org/1999/xlink"><linearGradient id="a" gradientUnits="userSpaceOnUse" x1="32" x2="32" y1="2" y2="62"><stop offset="0" stop-color="#47de00"/><stop offset=".2814" stop-color="#45da00"/><stop offset=".5729" stop-color="#41cd00"/><stop offset=".8681" stop-color="#39b900"/><stop offset="1" stop-color="#35ad00"/></linearGradient><path d="m62 54c0 4.4-3.6 8-8 8h-44c-4.4 0-8-3.6-8-8v-44c0-4.4 3.6-8 8-8h44c4.4 0 8 3.6 8 8z" fill="url(#a)"/><g fill="#fff"><path d="m32 26.957c.857 0 3.336-11.887 3.447-15.152.057-1.55-1.543-2.805-3.447-2.805-1.902 0-3.502 1.254-3.447 2.805.115 3.265 2.588 15.152 3.447 15.152z"/><path d="m26.955 32c0-.857-11.881-3.336-15.15-3.449-1.549-.054-2.805 1.545-2.805 3.449s1.256 3.502 2.805 3.449c3.269-.116 15.15-2.592 15.15-3.449z"/><path d="m28.469 26.438-13.131-11.098 11.1 13.129c.595-.744 1.283-1.432 2.031-2.031z"/><path d="m35.531 37.563 13.129 11.098-11.096-13.13c-.597.742-1.285 1.437-2.033 2.032z"/><path d="m52.195 28.551c-3.267.113-15.151 2.592-15.151 3.449 0 .856 11.884 3.333 15.151 3.449 1.549.053 2.805-1.545 2.805-3.449.002-1.904-1.256-3.503-2.805-3.449z"/><path d="m32 37.045c-.857 0-3.332 11.882-3.447 15.149-.055 1.548 1.543 2.806 3.449 2.806 1.902 0 3.502-1.258 3.445-2.806-.111-3.267-2.592-15.149-3.447-15.149z"/><path d="m37.563 28.469 11.1-13.13-13.13 11.097c.747.6 1.432 1.289 2.03 2.033z"/><path d="m26.439 35.531-11.102 13.13 13.131-11.099c-.743-.594-1.437-1.29-2.029-2.031z"/><circle cx="32" cy="32" r="3.45"/></g></svg>