<svg enable-background="new 0 0 64 64" height="64" viewBox="0 0 64 64" width="64" xmlns="http://www.w3.org/2000/svg" xmlns:xlink="http://www.w3.org/1999/xlink"><linearGradient id="a"><stop offset="0" stop-color="#c90100"/><stop offset=".1791" stop-color="#d91212"/><stop offset=".4756" stop-color="#ee2928"/><stop offset=".7557" stop-color="#fb3636"/><stop offset="1" stop-color="#ff3b3b"/></linearGradient><linearGradient id="b" gradientUnits="userSpaceOnUse" x1="54.792" x2="8.4629" xlink:href="#a" y1="52.8076" y2="52.8076"/><linearGradient id="c" gradientUnits="userSpaceOnUse" x1="54.7939" x2="8.4618" xlink:href="#a" y1="23.437" y2="23.437"/><path d="m35.255 47.614h-6.923c-1.111 0-1.731.62-1.731 1.731v6.923c0 1.112.62 1.731 1.731 1.731h6.923c1.111 0 1.73-.619 1.73-1.731v-6.923c0-1.111-.619-1.731-1.73-1.731z" fill="url(#b)"/><path d="m32.741 6c-8.964 0-16.945 4.701-17.783 14.631-.073 1.184.601 1.804 1.712 1.804h6.577c1.039 0 1.604-.565 1.84-1.622.656-3.37 3.48-5.047 7.325-5.047 4.19 0 6.614 1.913 6.614 5.302 0 6.706-10.659 9.767-12.062 18.002-.236 1.13.492 1.804 1.604 1.804h6.687c1.039 0 1.494-.51 1.84-1.494 1.768-5.611 11.952-9.109 11.952-19.076 0-9.348-8.089-14.304-16.306-14.304z" fill="url(#c)"/></svg>