<svg enable-background="new 0 0 64 64" height="64" viewBox="0 0 64 64" width="64" xmlns="http://www.w3.org/2000/svg" xmlns:xlink="http://www.w3.org/1999/xlink"><linearGradient id="a"><stop offset="0" stop-color="#c90100"/><stop offset="1" stop-color="#ff3b3b"/></linearGradient><linearGradient id="b" gradientUnits="userSpaceOnUse" x1="47.1094" x2="24.4436" xlink:href="#a" y1="52.707" y2="52.707"/><linearGradient id="c" gradientUnits="userSpaceOnUse" x1="47.1123" x2="24.4433" xlink:href="#a" y1="23.271" y2="23.271"/><path d="m35.527 47.414h-7.056c-1.133 0-1.764.631-1.764 1.764v7.059c0 1.132.631 1.764 1.764 1.764h7.056c1.133 0 1.764-.632 1.764-1.764v-7.059c0-1.133-.631-1.764-1.764-1.764z" fill="url(#b)"/><path d="m35.992 6h-7.985c-1.133 0-1.765.63-1.765 1.764v13.093l1.765 18.145c.11 1.059.78 1.541 1.783 1.541h4.418c1.002 0 1.672-.482 1.783-1.541l1.766-18.145v-13.093c.001-1.134-.632-1.764-1.765-1.764z" fill="url(#c)"/></svg>