<svg enable-background="new 0 0 64 64" height="64" viewBox="0 0 64 64" width="64" xmlns="http://www.w3.org/2000/svg" xmlns:xlink="http://www.w3.org/1999/xlink"><linearGradient id="a" gradientUnits="userSpaceOnUse" x1="22.9359" x2="49.7838" y1="-.885" y2="45.617"><stop offset="0" stop-color="#545061"/><stop offset=".2793" stop-color="#464253"/><stop offset=".6189" stop-color="#211d2d"/><stop offset="1" stop-color="#1a1626"/></linearGradient><path d="m61.95 11.231s-19.9-1.6-30 3.1c-10.1-4.7-30-3.1-30-3.1v6.6s12.4-1.5 22.2 1.5c-6.1 5.3-9 11.3-9 16.9 0 22.4 33.7 22.4 33.7 0 0-5.6-2.9-11.6-9-16.9 9.8-3 22.2-1.5 22.2-1.5v-6.6zm-21.3 24.9c0 12.4-17.4 12.4-17.4 0 0-4.4 2.8-9.1 8.7-13.1 5.9 4 8.7 8.7 8.7 13.1z" fill="url(#a)"/></svg>