<svg enable-background="new 0 0 64 64" height="64" viewBox="0 0 64 64" width="64" xmlns="http://www.w3.org/2000/svg" xmlns:xlink="http://www.w3.org/1999/xlink"><linearGradient id="a" gradientUnits="userSpaceOnUse" x1="32" x2="32" y1="2" y2="62"><stop offset="0" stop-color="#ff3b3b"/><stop offset=".2558" stop-color="#fb3737"/><stop offset=".5207" stop-color="#f02b2a"/><stop offset=".7889" stop-color="#dd1616"/><stop offset="1" stop-color="#c90100"/></linearGradient><path d="m2 32c0-16.564 13.439-30 30-30 16.572 0 30 13.436 30 30 0 16.57-13.428 30-30 30-16.561 0-30-13.43-30-30z" fill="url(#a)"/><g fill="#fff"><path d="m26.361 39.193c-.715-.967-1.918-2.469-3.18-3.865v14.172h-4.822v-12.293c-1.371 1.236-2.742 2.308-4.113 3.223-.383-1.344-1.533-3.76-2.246-4.617 3.783-2.148 7.455-5.799 9.813-9.932h-8.223v-4.564h4.824v-6.817h4.877v6.816h1.26l.877-.16 2.685 1.717c-.988 2.685-2.301 5.209-3.891 7.57 1.809 1.449 4.492 3.918 5.316 4.725z"/><path d="m46.324 39.199c-.102 4.65-.256 5.371-.869 5.371h-1.225c-.561 0-.611-.111-.611-1.439v-11.795h4.084v-16.336h-17.564v16.336h2.963c-.357 6.81-1.381 11.131-6.486 13.787.973.887 2.248 2.713 2.758 3.877 6.281-3.377 7.709-9.137 8.17-17.664h1.787v11.85c0 4.098.766 5.371 4.135 5.371h2.502c2.654 0 3.676-1.551 4.033-7.697-1.124-.278-2.858-.942-3.677-1.661zm-3.267-12.459h-8.477v-7.145h8.477z"/></g></svg>